version 1
nodes
  0 "Bip01" -1
  1 "Bip01 Pelvis" 0
  2 "Bip01 Spine" 1
  3 "Bip01 Spine1" 2
  4 "Bip01 Spine2" 3
  5 "Bip01 Spine3" 4
  6 "Bip01 Neck" 5
  7 "Bip01 L Arm" 6
  8 "Bip01 L Arm1" 7
  9 "Bip01 L Arm2" 8
 10 "Bip01 L Hand" 9
 11 "Bip06 L elbow2-smooth" 8
 12 "Bip01 R Arm" 6
 13 "Bip01 R Arm1" 12
 14 "Bip01 R Arm2" 13
 15 "Bip01 R Hand" 14
 16 "Bip06 R elbow2-smooth" 13
 17 "Bip01 Head" 6
 18 "Bip06 Head_helper" 17
 19 "Bip06 Head_eyes_l" 18
 20 "Bip06 Head_eyes_r" 18
 21 "Bip06 Head_blink_l" 18
 22 "Bip06 Head_blink_smooth_l1" 21
 23 "Bip06 Head_blink_r" 18
 24 "Bip06 Head_blink_smooth_r1" 23
 25 "Bip06 Head_L_eyebrow" 18
 26 "Bip06 Head_R_eyebrow" 18
 27 "Bip06 Head_blink_l_lid" 18
 28 "Bip06 Head_blink_r_lid" 18
 29 "Bip06 bunny" 18
 30 "Bip06 bunnyL" 29
 31 "Bip06 bunnyR" 29
 32 "Bip01 L Leg" 1
 33 "Bip01 L Leg1" 32
 34 "Bip01 L Foot" 33
 35 "Bip01 R Leg" 1
 36 "Bip01 R Leg1" 35
 37 "Bip01 R Foot" 36
 38 "Bip03 HairR1" 17
 39 "Bip03 HairR2" 38
 40 "Bip03 HairL1" 17
 41 "Bip03 HairL2" 40
 42 "Bip03 swingR" 17
 43 "Bip03 swingL" 17
end
skeleton
time 0
  0   0.243428 0.429701 1.851990 0.000000 0.000000 -1.571354
  1   -1.093036 0.000002 -0.326057 -1.570756 -1.570425 -0.000026
  2   2.262337 0.113614 0.064702 -0.069357 -0.007178 -0.103522
  3   2.380047 0.353302 0.047440 0.000000 -0.000040 -0.008632
  4   2.033756 0.190472 -0.000128 -0.078243 0.004794 0.060544
  5   2.451511 0.204909 -0.003447 0.000000 -0.000005 -0.017472
  6   7.247600 -0.397300 -0.109469 0.000001 0.000009 0.052298
  7   -2.022252 -0.104661 3.136172 -0.299166 -1.361862 -2.901655
  8   1.168026 -0.537438 -0.063437 0.100471 1.225270 0.272969
  9   6.790376 -0.619176 0.015206 -0.000269 -0.000285 -0.451448
 10   8.637599 0.544015 -0.090417 -1.570112 0.000292 -0.069354
 11   6.790465 -0.619039 0.017802 -0.001860 -0.011140 -0.331198
 12   -2.022474 -0.104699 -2.873818 0.298873 1.361742 -2.901984
 13   1.167898 -0.537463 0.063297 -0.133211 -1.247203 -0.012743
 14   7.002743 -0.617765 -0.183752 0.000229 0.000250 -1.472970
 15   8.209042 0.615527 -0.255885 1.682906 -0.000063 -0.069646
 16   7.002735 -0.617911 -0.183641 0.013732 0.008101 -1.049647
 17   1.574674 0.609930 -0.000899 0.163542 -0.016701 0.094982
 18   -0.602177 0.511412 -0.000006 0.000000 0.000000 0.000000
 19   3.646428 0.364526 1.119313 -0.000002 -0.000014 -0.174510
 20   3.646422 0.364499 -1.117566 0.000007 -0.000003 -0.174546
 21   3.805634 1.330634 1.627658 0.000002 -0.000011 -0.000026
 22   -0.246060 -0.011889 0.516521 -0.000011 0.000031 0.000025
 23   3.805651 1.330659 -1.631083 0.000019 0.000002 -0.000024
 24   -0.246150 -0.011872 -0.516511 -0.000005 -0.000006 0.000048
 25   4.941364 1.997338 1.629330 0.000018 -0.000001 -0.000024
 26   4.941382 1.997366 -1.629410 -0.000001 0.000005 -0.000024
 27   2.930087 1.603639 1.514501 -0.000019 -0.000022 -0.000050
 28   2.932517 1.603245 -1.501142 -0.000002 -0.000009 -0.000024
 29   8.824059 0.150544 0.091743 0.000006 -0.000231 -0.174534
 30   2.111085 -0.561179 1.784320 -0.000008 -0.000682 0.000024
 31   2.121290 -0.561289 -1.853599 0.000000 0.000000 -0.000002
 32   -0.814395 -0.093824 3.127092 -0.015867 -3.142184 -0.273682
 33   14.298673 -0.408176 0.471578 -0.000088 -0.000041 -0.265537
 34   15.835795 0.581398 0.242756 -0.141978 0.005906 -0.007017
 35   -0.815868 -0.091229 -3.114430 -0.027536 3.136847 0.139513
 36   14.294526 -0.410349 -0.467541 0.000093 0.000048 -0.002252
 37   15.834409 0.579420 -0.284600 0.263180 -0.000343 0.141396
 38   1.139685 -3.453749 -2.823813 0.000000 0.000000 0.000001
 39   -4.457742 -1.054854 -0.746180 0.000000 0.000000 0.000000
 40   1.118101 -3.449769 3.237290 0.000000 0.000001 0.000000
 41   -4.433840 -1.059130 0.959566 -0.000001 0.000000 0.000000
 42   -0.657468 1.697302 -2.688614 0.000000 0.000002 0.000000
 43   -0.664068 1.698578 2.869377 0.000000 0.000002 0.000000
time 1
  0   0.243428 0.421888 1.840271 0.000000 0.000000 -1.571354
  1   -1.093036 0.000002 -0.326057 -1.570756 -1.570425 -0.000219
  2   2.262337 0.113614 0.064702 -0.069357 -0.007178 -0.103522
  3   2.380047 0.353302 0.047440 0.000000 -0.000040 -0.008632
  4   2.033756 0.190472 -0.000128 -0.078243 0.004626 0.058767
  5   2.451511 0.204909 -0.003447 0.000000 -0.000005 -0.017472
  6   7.247600 -0.397300 -0.109469 0.000001 0.000009 0.052298
  7   -2.022252 -0.104661 3.136172 -0.316804 -1.360709 -2.884562
  8   1.168026 -0.537438 -0.063437 0.109520 1.221597 0.273981
  9   6.790376 -0.619176 0.015206 -0.000269 -0.000285 -0.451448
 10   8.637599 0.544015 -0.090417 -1.570112 0.000292 -0.069354
 11   6.790465 -0.619039 0.017802 -0.001860 -0.011140 -0.331198
 12   -2.022474 -0.104699 -2.873818 0.298873 1.361742 -2.901984
 13   1.167898 -0.537463 0.063297 -0.138132 -1.245474 -0.007779
 14   7.002743 -0.617765 -0.183752 0.000229 0.000250 -1.472970
 15   8.209042 0.615527 -0.255885 1.682906 -0.000063 -0.069646
 16   7.002735 -0.617911 -0.183641 0.013732 0.008101 -1.049647
 17   1.574674 0.609930 -0.000899 0.163542 -0.016701 0.096682
 18   -0.602177 0.511412 -0.000006 0.000000 0.000000 0.000000
 19   3.646428 0.364526 1.119313 -0.000002 -0.000014 -0.174510
 20   3.646422 0.364499 -1.117566 0.000007 -0.000003 -0.174546
 21   3.805634 1.330634 1.627658 0.000002 -0.000011 -0.000026
 22   -0.246060 -0.011889 0.516521 -0.000011 0.000031 0.000025
 23   3.805651 1.330659 -1.631083 0.000019 0.000002 -0.000024
 24   -0.246150 -0.011872 -0.516511 -0.000005 -0.000006 0.000048
 25   4.941364 1.997338 1.629330 0.000018 -0.000001 -0.000024
 26   4.941382 1.997366 -1.629410 -0.000001 0.000005 -0.000024
 27   2.930087 1.603639 1.514501 -0.000019 -0.000022 -0.000050
 28   2.932517 1.603245 -1.501142 -0.000002 -0.000009 -0.000024
 29   8.824059 0.150544 0.091743 0.000006 -0.000231 -0.174534
 30   2.111085 -0.561179 1.784320 -0.000008 -0.000682 0.000024
 31   2.121290 -0.561289 -1.853599 0.000000 0.000000 -0.000002
 32   -0.814395 -0.093824 3.127092 -0.015867 -3.142184 -0.274934
 33   14.298673 -0.408176 0.471578 -0.000088 -0.000041 -0.268316
 34   15.835795 0.581398 0.242756 -0.141978 0.005857 -0.005474
 35   -0.815868 -0.091229 -3.114430 -0.027712 3.137503 0.123901
 36   14.294526 -0.410349 -0.467541 0.000093 0.000048 -0.034308
 37   15.834409 0.579420 -0.284600 0.263180 -0.000343 0.157469
 38   1.139685 -3.453749 -2.823813 0.000000 0.000000 -0.000671
 39   -4.457742 -1.054854 -0.746180 0.000000 -0.000024 -0.001515
 40   1.118101 -3.449769 3.237290 0.000000 0.000001 -0.000611
 41   -4.433840 -1.059130 0.959566 -0.000001 -0.000024 -0.001515
 42   -0.657468 1.697302 -2.688614 0.000108 0.001505 0.000000
 43   -0.664068 1.698578 2.869377 -0.000150 -0.001865 0.000042
time 2
  0   0.243428 0.410169 1.832458 0.000000 0.000000 -1.571354
  1   -1.093036 0.000002 -0.326057 -1.570756 -1.570425 -0.000026
  2   2.262337 0.113614 0.064702 -0.069357 -0.007178 -0.103522
  3   2.380047 0.353302 0.047440 0.000000 -0.000040 -0.008632
  4   2.033756 0.190472 -0.000128 -0.078280 0.004255 0.054817
  5   2.451511 0.204909 -0.003447 0.000000 -0.000005 -0.017472
  6   7.247600 -0.397300 -0.109469 0.000001 0.000009 0.052298
  7   -2.022252 -0.104661 3.136172 -0.355243 -1.357999 -2.846807
  8   1.168026 -0.537438 -0.063437 0.128441 1.214050 0.275626
  9   6.790376 -0.619176 0.015206 -0.000269 -0.000285 -0.451448
 10   8.637599 0.544015 -0.090417 -1.570112 0.000292 -0.069354
 11   6.790465 -0.619039 0.017802 -0.001860 -0.011140 -0.331198
 12   -2.022474 -0.104699 -2.873818 0.298873 1.361742 -2.901888
 13   1.167898 -0.537463 0.063297 -0.149028 -1.242271 0.002875
 14   7.002743 -0.617765 -0.183752 0.000229 0.000250 -1.472970
 15   8.209042 0.615527 -0.255885 1.682906 -0.000063 -0.069646
 16   7.002735 -0.617911 -0.183641 0.013732 0.008101 -1.049647
 17   1.574674 0.609930 -0.000899 0.163542 -0.016701 0.100637
 18   -0.602177 0.511412 -0.000006 0.000000 0.000000 0.000000
 19   3.646428 0.364526 1.119313 -0.000002 -0.000014 -0.174510
 20   3.646422 0.364499 -1.117566 0.000007 -0.000003 -0.174546
 21   3.805634 1.330634 1.627658 0.000002 -0.000011 -0.000026
 22   -0.246060 -0.011889 0.516521 -0.000011 0.000031 0.000025
 23   3.805651 1.330659 -1.631083 0.000019 0.000002 -0.000024
 24   -0.246150 -0.011872 -0.516511 -0.000005 -0.000006 0.000048
 25   4.941364 1.997338 1.629330 0.000018 -0.000001 -0.000024
 26   4.941382 1.997366 -1.629410 -0.000001 0.000005 -0.000024
 27   2.930087 1.603639 1.514501 -0.000019 -0.000022 -0.000050
 28   2.932517 1.603245 -1.501142 -0.000002 -0.000009 -0.000024
 29   8.824059 0.150544 0.091743 0.000006 -0.000231 -0.174534
 30   2.111085 -0.561179 1.784320 -0.000008 -0.000682 0.000024
 31   2.121290 -0.561289 -1.853599 0.000000 0.000000 -0.000002
 32   -0.814395 -0.093824 3.127092 -0.015867 -3.142184 -0.276756
 33   14.298673 -0.408176 0.471578 -0.000088 -0.000041 -0.272524
 34   15.835795 0.581398 0.242756 -0.141978 0.005784 -0.002960
 35   -0.815868 -0.091229 -3.114430 -0.027712 3.137503 0.116232
 36   14.294526 -0.410349 -0.467541 0.000093 0.000048 -0.051070
 37   15.834409 0.579420 -0.284600 0.263180 -0.000343 0.166139
 38   1.139685 -3.453749 -2.823813 0.000000 -0.000036 -0.002504
 39   -4.457742 -1.054854 -0.746180 0.000024 -0.000084 -0.005806
 40   1.118101 -3.449769 3.237290 0.000000 -0.000035 -0.002505
 41   -4.433840 -1.059130 0.959566 0.000023 -0.000084 -0.005806
 42   -0.657468 1.697302 -2.676895 0.000443 0.005736 -0.000042
 43   -0.664068 1.698578 2.861564 -0.000575 -0.007138 0.000125
time 3
  0   0.243428 0.398450 1.816833 0.000000 0.000000 -1.571354
  1   -1.093036 0.000002 -0.326057 -1.570756 -1.570425 -0.000026
  2   2.262337 0.113614 0.064702 -0.069357 -0.007178 -0.103522
  3   2.380047 0.353302 0.047440 0.000000 -0.000040 -0.008632
  4   2.033756 0.190472 -0.000128 -0.078280 0.004111 0.051591
  5   2.451511 0.204909 -0.003447 0.000000 -0.000005 -0.017472
  6   7.247600 -0.397300 -0.109469 0.000001 0.000009 0.052298
  7   -2.022252 -0.104661 3.136172 -0.386205 -1.355491 -2.816848
  8   1.168026 -0.537438 -0.063437 0.143565 1.207811 0.276385
  9   6.790376 -0.619176 0.015206 -0.000269 -0.000285 -0.451448
 10   8.637599 0.544015 -0.090417 -1.570112 0.000292 -0.069354
 11   6.790465 -0.619039 0.017802 -0.001860 -0.011140 -0.331198
 12   -2.022474 -0.104699 -2.873818 0.298873 1.361771 -2.901984
 13   1.167898 -0.537463 0.063297 -0.157252 -1.239118 0.011229
 14   7.002743 -0.617765 -0.183752 0.000229 0.000250 -1.472970
 15   8.209042 0.615527 -0.255885 1.682906 -0.000063 -0.069646
 16   7.002735 -0.617911 -0.183641 0.013732 0.008101 -1.049647
 17   1.574674 0.609930 -0.000899 0.163542 -0.016701 0.103890
 18   -0.602177 0.511412 -0.000006 0.000000 0.000000 0.000000
 19   3.646428 0.364526 1.119313 -0.000002 -0.000014 -0.174510
 20   3.646422 0.364499 -1.117566 0.000007 -0.000003 -0.174546
 21   3.805634 1.330634 1.627658 0.000002 -0.000011 -0.000026
 22   -0.246060 -0.011889 0.516521 -0.000011 0.000031 0.000025
 23   3.805651 1.330659 -1.631083 0.000019 0.000002 -0.000024
 24   -0.246150 -0.011872 -0.516511 -0.000005 -0.000006 0.000048
 25   4.941364 1.997338 1.629330 0.000018 -0.000001 -0.000024
 26   4.941382 1.997366 -1.629410 -0.000001 0.000005 -0.000024
 27   2.930087 1.603639 1.514501 -0.000019 -0.000022 -0.000050
 28   2.932517 1.603245 -1.501142 -0.000002 -0.000009 -0.000024
 29   8.824059 0.150544 0.091743 0.000006 -0.000231 -0.174534
 30   2.111085 -0.561179 1.784320 -0.000008 -0.000682 0.000024
 31   2.121290 -0.561289 -1.853599 0.000000 0.000000 -0.000002
 32   -0.814395 -0.093824 3.127092 -0.015867 -3.142184 -0.278577
 33   14.298673 -0.408176 0.471578 -0.000088 -0.000041 -0.276891
 34   15.835795 0.581398 0.242756 -0.141978 0.005735 -0.000711
 35   -0.815868 -0.091229 -3.114430 -0.027712 3.137690 0.109440
 36   14.294526 -0.410349 -0.467541 0.000093 0.000048 -0.065360
 37   15.834409 0.579420 -0.284600 0.263180 -0.000343 0.173490
 38   1.139685 -3.453749 -2.823813 0.000021 -0.000084 -0.005436
 39   -4.457742 -1.054854 -0.746180 0.000048 -0.000204 -0.012425
 40   1.118101 -3.449769 3.237290 0.000021 -0.000083 -0.005437
 41   -4.433840 -1.059130 0.959566 0.000047 -0.000204 -0.012425
 42   -0.657468 1.697302 -2.661269 0.000959 0.012268 -0.000125
 43   -0.664068 1.698578 2.845939 -0.001224 -0.015281 0.000335
time 4
  0   0.243428 0.390637 1.812926 0.000000 0.000000 -1.571354
  1   -1.093036 0.000002 -0.326057 -1.570756 -1.570425 -0.000026
  2   2.262337 0.113614 0.064702 -0.069357 -0.007178 -0.103522
  3   2.380047 0.353302 0.047440 0.000000 -0.000040 -0.008632
  4   2.033756 0.190472 -0.000128 -0.078317 0.003691 0.048183
  5   2.451511 0.204909 -0.003447 0.000000 -0.000005 -0.017472
  6   7.247600 -0.397300 -0.109469 0.000001 0.000009 0.052298
  7   -2.022252 -0.104661 3.136172 -0.419564 -1.352580 -2.783978
  8   1.168026 -0.537438 -0.063437 0.159764 1.200767 0.276638
  9   6.790376 -0.619176 0.015206 -0.000269 -0.000285 -0.451448
 10   8.637599 0.544015 -0.090417 -1.570112 0.000292 -0.069354
 11   6.790465 -0.619039 0.017802 -0.001860 -0.011140 -0.331198
 12   -2.022474 -0.104699 -2.873818 0.298873 1.361742 -2.901984
 13   1.167898 -0.537463 0.063297 -0.166461 -1.236524 0.020551
 14   7.002743 -0.617765 -0.183752 0.000229 0.000250 -1.472970
 15   8.209042 0.615527 -0.255885 1.682906 -0.000063 -0.069646
 16   7.002735 -0.617911 -0.183641 0.013732 0.008101 -1.049647
 17   1.574674 0.609930 -0.000899 0.163542 -0.016701 0.107475
 18   -0.602177 0.511412 -0.000006 0.000000 0.000000 0.000000
 19   3.646428 0.364526 1.119313 -0.000002 -0.000014 -0.174510
 20   3.646422 0.364499 -1.117566 0.000007 -0.000003 -0.174546
 21   3.805634 1.330634 1.627658 0.000002 -0.000011 -0.000026
 22   -0.246060 -0.011889 0.516521 -0.000011 0.000031 0.000025
 23   3.805651 1.330659 -1.631083 0.000019 0.000002 -0.000024
 24   -0.246150 -0.011872 -0.516511 -0.000005 -0.000006 0.000048
 25   4.941364 1.997338 1.629330 0.000018 -0.000001 -0.000024
 26   4.941382 1.997366 -1.629410 -0.000001 0.000005 -0.000024
 27   2.930087 1.603639 1.514501 -0.000019 -0.000022 -0.000050
 28   2.932517 1.603245 -1.501142 -0.000002 -0.000009 -0.000024
 29   8.824059 0.150544 0.091743 0.000006 -0.000231 -0.174534
 30   2.111085 -0.561179 1.784320 -0.000008 -0.000682 0.000024
 31   2.121290 -0.561289 -1.853599 0.000000 0.000000 -0.000002
 32   -0.814395 -0.093824 3.127092 -0.015867 -3.141993 -0.280740
 33   14.298673 -0.408176 0.471578 -0.000088 -0.000041 -0.281893
 34   15.835795 0.581398 0.242756 -0.141978 0.005735 0.002068
 35   -0.815868 -0.091229 -3.114430 -0.027712 3.138159 0.103195
 36   14.294526 -0.410349 -0.467541 0.000093 0.000048 -0.078646
 37   15.834409 0.579420 -0.284600 0.263180 -0.000394 0.180791
 38   1.139685 -3.453749 -2.823813 0.000021 -0.000145 -0.009224
 39   -4.457742 -1.054854 -0.746180 0.000084 -0.000336 -0.020951
 40   1.118101 -3.449769 3.237290 0.000021 -0.000144 -0.009225
 41   -4.433840 -1.059130 0.959566 0.000095 -0.000336 -0.020951
 42   -0.653562 1.697302 -2.637831 0.001618 0.020701 -0.000209
 43   -0.664068 1.698578 2.830313 -0.002074 -0.025779 0.000544
time 5
  0   0.243428 0.390637 1.801207 0.000000 0.000000 -1.571354
  1   -1.093036 0.000002 -0.326057 -1.570756 -1.570425 -0.000026
  2   2.262337 0.113614 0.064702 -0.069357 -0.007178 -0.103522
  3   2.380047 0.353302 0.047440 0.000000 -0.000040 -0.008632
  4   2.033756 0.190472 -0.000128 -0.078317 0.003464 0.044414
  5   2.451511 0.204909 -0.003447 0.000000 -0.000005 -0.017472
  6   7.247600 -0.397300 -0.109469 0.000001 0.000009 0.052298
  7   -2.022252 -0.104661 3.136172 -0.454360 -1.349063 -2.750262
  8   1.168026 -0.537438 -0.063437 0.176913 1.193119 0.277081
  9   6.790376 -0.619176 0.015206 -0.000269 -0.000285 -0.451448
 10   8.637599 0.544015 -0.090417 -1.570112 0.000292 -0.069354
 11   6.790465 -0.619039 0.017802 -0.001860 -0.011140 -0.331198
 12   -2.022474 -0.104699 -2.873818 0.298873 1.361771 -2.901984
 13   1.167898 -0.537463 0.063297 -0.176092 -1.233117 0.030116
 14   7.002743 -0.617765 -0.183752 0.000229 0.000250 -1.472970
 15   8.209042 0.615527 -0.255885 1.682906 -0.000063 -0.069646
 16   7.002735 -0.617911 -0.183641 0.013732 0.008101 -1.049647
 17   1.574674 0.609930 -0.000899 0.163542 -0.016701 0.111134
 18   -0.602177 0.511412 -0.000006 0.000000 0.000000 0.000000
 19   3.646428 0.364526 1.119313 -0.000002 -0.000014 -0.174510
 20   3.646422 0.364499 -1.117566 0.000007 -0.000003 -0.174546
 21   3.805634 1.330634 1.627658 0.000002 -0.000011 -0.000026
 22   -0.246060 -0.011889 0.516521 -0.000011 0.000031 0.000025
 23   3.805651 1.330659 -1.631083 0.000019 0.000002 -0.000024
 24   -0.246150 -0.011872 -0.516511 -0.000005 -0.000006 0.000048
 25   4.941364 1.997338 1.629330 0.000018 -0.000001 -0.000024
 26   4.941382 1.997366 -1.629410 -0.000001 0.000005 -0.000024
 27   2.930087 1.603639 1.514501 -0.000019 -0.000022 -0.000050
 28   2.932517 1.603245 -1.501142 -0.000002 -0.000009 -0.000024
 29   8.824059 0.150544 0.091743 0.000006 -0.000231 -0.174534
 30   2.111085 -0.561179 1.784320 -0.000008 -0.000682 0.000024
 31   2.121290 -0.561289 -1.853599 0.000000 0.000000 -0.000002
 32   -0.814395 -0.093824 3.127092 -0.015867 -3.141993 -0.283359
 33   14.298673 -0.408176 0.471578 -0.000088 -0.000041 -0.287133
 34   15.835795 0.581398 0.242756 -0.141932 0.005711 0.005023
 35   -0.815868 -0.091229 -3.114430 -0.027712 3.138252 0.097169
 36   14.294526 -0.410349 -0.467541 0.000093 0.000048 -0.091391
 37   15.834409 0.579420 -0.284600 0.263180 -0.000471 0.187433
 38   1.139685 -3.453749 -2.823813 0.000042 -0.000217 -0.013623
 39   -4.457742 -1.054854 -0.746180 0.000132 -0.000503 -0.030991
 40   1.118101 -3.449769 3.237290 0.000042 -0.000216 -0.013624
 41   -4.433840 -1.059130 0.959566 0.000131 -0.000503 -0.030991
 42   -0.649655 1.697302 -2.614393 0.002397 0.030605 -0.000335
 43   -0.664068 1.698578 2.810781 -0.003074 -0.038097 0.000836
time 6
  0   0.243428 0.378918 1.781675 0.000000 0.000000 -1.571354
  1   -1.093036 0.000002 -0.326057 -1.570756 -1.570425 0.000264
  2   2.262337 0.113614 0.064702 -0.069357 -0.007178 -0.103522
  3   2.380047 0.353302 0.047440 0.000000 -0.000040 -0.008632
  4   2.033756 0.190472 -0.000128 -0.078317 0.003224 0.040572
  5   2.451511 0.204909 -0.003447 0.000000 -0.000005 -0.017472
  6   7.247600 -0.397300 -0.109469 0.000001 0.000009 0.052298
  7   -2.022252 -0.104661 3.136172 -0.488677 -1.345258 -2.716545
  8   1.168026 -0.537438 -0.063437 0.194062 1.185572 0.276638
  9   6.790376 -0.619176 0.015206 -0.000269 -0.000285 -0.451448
 10   8.637599 0.544015 -0.090417 -1.570112 0.000292 -0.069354
 11   6.790465 -0.619039 0.017802 -0.001860 -0.011140 -0.331198
 12   -2.022474 -0.104699 -2.873818 0.298873 1.361742 -2.901984
 13   1.167898 -0.537463 0.063297 -0.185933 -1.229557 0.040044
 14   7.002743 -0.617765 -0.183752 0.000229 0.000250 -1.472970
 15   8.209042 0.615527 -0.255885 1.682906 -0.000063 -0.069646
 16   7.002735 -0.617911 -0.183641 0.013732 0.008101 -1.049647
 17   1.574674 0.609930 -0.000899 0.163542 -0.016701 0.115052
 18   -0.602177 0.511412 -0.000006 0.000000 0.000000 0.000000
 19   3.646428 0.364526 1.119313 -0.000002 -0.000014 -0.174510
 20   3.646422 0.364499 -1.117566 0.000007 -0.000003 -0.174546
 21   3.805634 1.330634 1.627658 0.000002 -0.000011 -0.000026
 22   -0.246060 -0.011889 0.516521 -0.000011 0.000031 0.000025
 23   3.805651 1.330659 -1.631083 0.000019 0.000002 -0.000024
 24   -0.246150 -0.011872 -0.516511 -0.000005 -0.000006 0.000048
 25   4.941364 1.997338 1.629330 0.000018 -0.000001 -0.000024
 26   4.941382 1.997366 -1.629410 -0.000001 0.000005 -0.000024
 27   2.930087 1.603639 1.514501 -0.000019 -0.000022 -0.000050
 28   2.932517 1.603245 -1.501142 -0.000002 -0.000009 -0.000024
 29   8.824059 0.150544 0.091743 0.000006 -0.000231 -0.174534
 30   2.111085 -0.561179 1.784320 -0.000008 -0.000682 0.000024
 31   2.121290 -0.561289 -1.853599 0.000000 0.000000 -0.000002
 32   -0.814395 -0.093824 3.127092 -0.015867 -3.141898 -0.285351
 33   14.298673 -0.408176 0.471578 -0.000088 -0.000041 -0.292850
 34   15.835795 0.581398 0.242756 -0.141932 0.005613 0.008022
 35   -0.815868 -0.091229 -3.114430 -0.027712 3.138440 0.091692
 36   14.294526 -0.410349 -0.467541 0.000093 0.000048 -0.103673
 37   15.834409 0.579420 -0.284600 0.263140 -0.000522 0.193873
 38   1.139685 -3.453749 -2.823813 0.000063 -0.000301 -0.018572
 39   -4.457742 -1.054854 -0.746180 0.000192 -0.000683 -0.042070
 40   1.118101 -3.449769 3.237290 0.000063 -0.000300 -0.018573
 41   -4.433840 -1.059130 0.959566 0.000191 -0.000683 -0.042070
 42   -0.649655 1.697302 -2.587048 0.003248 0.041553 -0.000460
 43   -0.664068 1.698578 2.791250 -0.004173 -0.051733 0.001129
time 7
  0   0.243428 0.367199 1.769956 0.000000 0.000000 -1.571354
  1   -1.093036 0.000002 -0.326057 -1.570756 -1.570425 -0.000026
  2   2.262337 0.113614 0.064702 -0.069357 -0.007178 -0.103522
  3   2.380047 0.353302 0.047440 0.000000 -0.000040 -0.008632
  4   2.033756 0.190472 -0.000128 -0.078354 0.002793 0.036621
  5   2.451511 0.204909 -0.003447 0.000000 -0.000005 -0.017472
  6   7.247600 -0.397300 -0.109469 0.000001 0.000009 0.052298
  7   -2.022252 -0.104661 3.136172 -0.522707 -1.341135 -2.683862
  8   1.168026 -0.537438 -0.063437 0.210768 1.177723 0.275689
  9   6.790376 -0.619176 0.015206 -0.000269 -0.000285 -0.451448
 10   8.637599 0.544015 -0.090417 -1.570112 0.000292 -0.069354
 11   6.790465 -0.619039 0.017802 -0.001860 -0.011140 -0.331198
 12   -2.022474 -0.104699 -2.873818 0.298873 1.361742 -2.901984
 13   1.167898 -0.537463 0.063297 -0.195423 -1.226048 0.049790
 14   7.002743 -0.617765 -0.183752 0.000229 0.000250 -1.472970
 15   8.209042 0.615527 -0.255885 1.682906 -0.000063 -0.069646
 16   7.002735 -0.617911 -0.183641 0.013732 0.008101 -1.049647
 17   1.574674 0.609930 -0.000899 0.163542 -0.016701 0.118970
 18   -0.602177 0.511412 -0.000006 0.000000 0.000000 0.000000
 19   3.646428 0.364526 1.119313 -0.000002 -0.000014 -0.174510
 20   3.646422 0.364499 -1.117566 0.000007 -0.000003 -0.174546
 21   3.805634 1.330634 1.627658 0.000002 -0.000011 -0.000026
 22   -0.246060 -0.011889 0.516521 -0.000011 0.000031 0.000025
 23   3.805651 1.330659 -1.631083 0.000019 0.000002 -0.000024
 24   -0.246150 -0.011872 -0.516511 -0.000005 -0.000006 0.000048
 25   4.941364 1.997338 1.629330 0.000018 -0.000001 -0.000024
 26   4.941382 1.997366 -1.629410 -0.000001 0.000005 -0.000024
 27   2.930087 1.603639 1.514501 -0.000019 -0.000022 -0.000050
 28   2.932517 1.603245 -1.501142 -0.000002 -0.000009 -0.000024
 29   8.824059 0.150544 0.091743 0.000006 -0.000231 -0.174534
 30   2.111085 -0.561179 1.784320 -0.000008 -0.000682 0.000024
 31   2.121290 -0.561289 -1.853599 0.000000 0.000000 -0.000002
 32   -0.814395 -0.093824 3.127092 -0.015867 -3.141611 -0.287969
 33   14.298673 -0.408176 0.471578 -0.000088 -0.000041 -0.298090
 34   15.835795 0.581398 0.242756 -0.141932 0.005540 0.011109
 35   -0.815868 -0.091229 -3.114430 -0.027712 3.138908 0.086433
 36   14.294526 -0.410349 -0.467541 0.000093 0.000048 -0.114874
 37   15.834409 0.579420 -0.284600 0.263061 -0.000573 0.200007
 38   1.139685 -3.453749 -2.823813 0.000084 -0.000386 -0.023704
 39   -4.457742 -1.054854 -0.746180 0.000240 -0.000875 -0.053793
 40   1.118101 -3.449769 3.237290 0.000084 -0.000385 -0.023705
 41   -4.433840 -1.059130 0.959566 0.000239 -0.000875 -0.053793
 42   -0.645749 1.697302 -2.559704 0.004159 0.053128 -0.000586
 43   -0.664068 1.698578 2.767811 -0.005335 -0.066153 0.001464
time 8
  0   0.243428 0.355480 1.769956 0.000000 0.000000 -1.571354
  1   -1.093036 0.000002 -0.326057 -1.570756 -1.570425 -0.000026
  2   2.262337 0.113614 0.064702 -0.069357 -0.007178 -0.103522
  3   2.380047 0.353302 0.047440 0.000000 -0.000040 -0.008632
  4   2.033756 0.190472 -0.000128 -0.078354 0.002625 0.032778
  5   2.451511 0.204909 -0.003447 0.000000 -0.000005 -0.017472
  6   7.247600 -0.397300 -0.109469 0.000001 0.000009 0.052298
  7   -2.022252 -0.104661 3.136172 -0.554340 -1.336927 -2.652776
  8   1.168026 -0.537438 -0.063437 0.226778 1.170176 0.274487
  9   6.790376 -0.619176 0.015206 -0.000269 -0.000285 -0.451448
 10   8.637599 0.544015 -0.090417 -1.570112 0.000292 -0.069354
 11   6.790465 -0.619039 0.017802 -0.001860 -0.011140 -0.331198
 12   -2.022474 -0.104699 -2.873818 0.298873 1.361771 -2.901984
 13   1.167898 -0.537463 0.063297 -0.204632 -1.222742 0.059052
 14   7.002743 -0.617765 -0.183752 0.000229 0.000250 -1.472970
 15   8.209042 0.615527 -0.255885 1.682906 -0.000063 -0.069646
 16   7.002735 -0.617911 -0.183641 0.013732 0.008101 -1.049647
 17   1.574674 0.609930 -0.000899 0.163542 -0.016701 0.122961
 18   -0.602177 0.511412 -0.000006 0.000000 0.000000 0.000000
 19   3.646428 0.364526 1.119313 -0.000002 -0.000014 -0.174510
 20   3.646422 0.364499 -1.117566 0.000007 -0.000003 -0.174546
 21   3.805634 1.330634 1.627658 0.000002 -0.000011 -0.000026
 22   -0.246060 -0.011889 0.516521 -0.000011 0.000031 0.000025
 23   3.805651 1.330659 -1.631083 0.000019 0.000002 -0.000024
 24   -0.246150 -0.011872 -0.516511 -0.000005 -0.000006 0.000048
 25   4.941364 1.997338 1.629330 0.000018 -0.000001 -0.000024
 26   4.941382 1.997366 -1.629410 -0.000001 0.000005 -0.000024
 27   2.930087 1.603639 1.514501 -0.000019 -0.000022 -0.000050
 28   2.932517 1.603245 -1.501142 -0.000002 -0.000009 -0.000024
 29   8.824059 0.150544 0.091743 0.000006 -0.000231 -0.174534
 30   2.111085 -0.561179 1.784320 -0.000008 -0.000682 0.000024
 31   2.121290 -0.561289 -1.853599 0.000000 0.000000 -0.000002
 32   -0.814395 -0.093824 3.127092 -0.015867 -3.141611 -0.290417
 33   14.298673 -0.408176 0.471578 -0.000088 -0.000041 -0.303648
 34   15.835795 0.581398 0.242756 -0.141932 0.005491 0.014284
 35   -0.815868 -0.091229 -3.114430 -0.027712 3.139002 0.081722
 36   14.294526 -0.410349 -0.467541 0.000093 0.000048 -0.124684
 37   15.834409 0.579420 -0.284600 0.263061 -0.000573 0.205788
 38   1.139685 -3.453749 -2.823813 0.000105 -0.000470 -0.028958
 39   -4.453836 -1.054854 -0.746180 0.000300 -0.001067 -0.065741
 40   1.118101 -3.449769 3.237290 0.000105 -0.000469 -0.028959
 41   -4.437746 -1.059130 0.959566 0.000299 -0.001067 -0.065741
 42   -0.641843 1.697302 -2.528453 0.005081 0.064919 -0.000753
 43   -0.664068 1.698578 2.744373 -0.006522 -0.080825 0.001798
time 9
  0   0.243428 0.355480 1.738705 0.000000 0.000000 -1.571354
  1   -1.093036 0.000002 -0.326057 -1.570756 -1.570425 -0.000026
  2   2.262337 0.113614 0.064702 -0.069357 -0.007178 -0.103522
  3   2.380047 0.353302 0.047440 0.000000 -0.000040 -0.008632
  4   2.033756 0.190472 -0.000128 -0.078354 0.002301 0.028972
  5   2.451511 0.204909 -0.003447 0.000000 -0.000005 -0.017472
  6   7.247600 -0.397300 -0.109469 0.000001 0.000009 0.052298
  7   -2.022252 -0.104661 3.136172 -0.583673 -1.332603 -2.624226
  8   1.168026 -0.537438 -0.063437 0.241649 1.163182 0.272969
  9   6.790376 -0.619176 0.015206 -0.000269 -0.000285 -0.451448
 10   8.637599 0.544015 -0.090417 -1.570112 0.000292 -0.069354
 11   6.790465 -0.619039 0.017802 -0.001860 -0.011140 -0.331198
 12   -2.022474 -0.104699 -2.873818 0.298873 1.361742 -2.901984
 13   1.167898 -0.537463 0.063297 -0.213349 -1.219335 0.067648
 14   7.002743 -0.617765 -0.183752 0.000229 0.000250 -1.472970
 15   8.209042 0.615527 -0.255885 1.682906 -0.000063 -0.069646
 16   7.002735 -0.617911 -0.183641 0.013732 0.008101 -1.049647
 17   1.574674 0.609930 -0.000899 0.163542 -0.016701 0.126362
 18   -0.602177 0.511412 -0.000006 0.000000 0.000000 0.000000
 19   3.646428 0.364526 1.119313 -0.000002 -0.000014 -0.174510
 20   3.646422 0.364499 -1.117566 0.000007 -0.000003 -0.174546
 21   3.805634 1.330634 1.627658 0.000002 -0.000011 -0.000026
 22   -0.246060 -0.011889 0.516521 -0.000011 0.000031 0.000025
 23   3.805651 1.330659 -1.631083 0.000019 0.000002 -0.000024
 24   -0.246150 -0.011872 -0.516511 -0.000005 -0.000006 0.000048
 25   4.941364 1.997338 1.629330 0.000018 -0.000001 -0.000024
 26   4.941382 1.997366 -1.629410 -0.000001 0.000005 -0.000024
 27   2.930087 1.603639 1.514501 -0.000019 -0.000022 -0.000050
 28   2.932517 1.603245 -1.501142 -0.000002 -0.000009 -0.000024
 29   8.824059 0.150544 0.091743 0.000006 -0.000231 -0.174534
 30   2.111085 -0.561179 1.784320 -0.000008 -0.000682 0.000024
 31   2.121290 -0.561289 -1.853599 0.000000 0.000000 -0.000002
 32   -0.814395 -0.093824 3.127092 -0.015867 -3.141516 -0.292808
 33   14.298673 -0.408176 0.471578 -0.000088 -0.000041 -0.308968
 34   15.835795 0.581398 0.242756 -0.141886 0.005467 0.017107
 35   -0.815868 -0.091229 -3.114430 -0.027712 3.139002 0.077230
 36   14.294526 -0.410349 -0.467541 0.000093 0.000048 -0.134262
 37   15.834409 0.579420 -0.284600 0.263061 -0.000650 0.211061
 38   1.139685 -3.453749 -2.823813 0.000126 -0.000554 -0.034151
 39   -4.453836 -1.054854 -0.746180 0.000348 -0.001258 -0.077465
 40   1.118101 -3.449769 3.237290 0.000126 -0.000553 -0.034152
 41   -4.437746 -1.059130 0.959566 0.000347 -0.001258 -0.077465
 42   -0.637936 1.697302 -2.501108 0.005980 0.076510 -0.000878
 43   -0.664068 1.698578 2.724841 -0.007684 -0.095245 0.002091
time 10
  0   0.243428 0.347667 1.726986 0.000000 0.000000 -1.571354
  1   -1.093036 0.000002 -0.326057 -1.570756 -1.570425 -0.000219
  2   2.262337 0.113614 0.064702 -0.069357 -0.007178 -0.103522
  3   2.380047 0.353302 0.047440 0.000000 -0.000040 -0.008632
  4   2.033756 0.190472 -0.000128 -0.078354 0.001966 0.025746
  5   2.451511 0.204909 -0.003447 0.000000 -0.000005 -0.017472
  6   7.247600 -0.397300 -0.109469 0.000001 0.000009 0.052298
  7   -2.022252 -0.104661 3.136172 -0.609746 -1.328653 -2.598962
  8   1.168026 -0.537438 -0.063437 0.255191 1.156440 0.271071
  9   6.790376 -0.619176 0.015206 -0.000269 -0.000285 -0.451448
 10   8.637599 0.544015 -0.090417 -1.570112 0.000292 -0.069354
 11   6.790465 -0.619039 0.017802 -0.001860 -0.011140 -0.331198
 12   -2.022474 -0.104699 -2.873818 0.298873 1.361742 -2.901984
 13   1.167898 -0.537463 0.063297 -0.221081 -1.216182 0.075578
 14   7.002743 -0.617765 -0.183752 0.000229 0.000250 -1.472970
 15   8.209042 0.615527 -0.255885 1.682906 -0.000063 -0.069646
 16   7.002735 -0.617911 -0.183641 0.013732 0.008101 -1.049647
 17   1.574674 0.609930 -0.000899 0.163542 -0.016701 0.129910
 18   -0.602177 0.511412 -0.000006 0.000000 0.000000 0.000000
 19   3.646428 0.364526 1.119313 -0.000002 -0.000014 -0.174510
 20   3.646422 0.364499 -1.117566 0.000007 -0.000003 -0.174546
 21   3.805634 1.330634 1.627658 0.000002 -0.000011 -0.000026
 22   -0.246060 -0.011889 0.516521 -0.000011 0.000031 0.000025
 23   3.805651 1.330659 -1.631083 0.000019 0.000002 -0.000024
 24   -0.246150 -0.011872 -0.516511 -0.000005 -0.000006 0.000048
 25   4.941364 1.997338 1.629330 0.000018 -0.000001 -0.000024
 26   4.941382 1.997366 -1.629410 -0.000001 0.000005 -0.000024
 27   2.930087 1.603639 1.514501 -0.000019 -0.000022 -0.000050
 28   2.932517 1.603245 -1.501142 -0.000002 -0.000009 -0.000024
 29   8.824059 0.150544 0.091743 0.000006 -0.000231 -0.174534
 30   2.111085 -0.561179 1.784320 -0.000008 -0.000682 0.000024
 31   2.121290 -0.561289 -1.853599 0.000000 0.000000 -0.000002
 32   -0.814395 -0.093824 3.127092 -0.015867 -3.141420 -0.294914
 33   14.298673 -0.408176 0.471578 -0.000088 -0.000041 -0.313811
 34   15.835795 0.581398 0.242756 -0.141886 0.005467 0.020018
 35   -0.815868 -0.091229 -3.114430 -0.027712 3.139189 0.073286
 36   14.294526 -0.410349 -0.467541 0.000093 0.000048 -0.143222
 37   15.834409 0.579420 -0.284600 0.263061 -0.000701 0.215826
 38   1.139685 -3.453749 -2.823813 0.000147 -0.000639 -0.039038
 39   -4.453836 -1.054854 -0.746180 0.000395 -0.001450 -0.088571
 40   1.118101 -3.449769 3.237290 0.000147 -0.000638 -0.039039
 41   -4.437746 -1.059130 0.959566 0.000394 -0.001450 -0.088571
 42   -0.637936 1.697302 -2.473763 0.006843 0.087458 -0.001004
 43   -0.664068 1.698578 2.701403 -0.008783 -0.108881 0.002426
time 11
  0   0.243428 0.335948 1.726986 0.000000 0.000000 -1.571354
  1   -1.093036 0.000002 -0.326057 -1.570756 -1.570425 -0.000026
  2   2.262337 0.113614 0.064702 -0.069357 -0.007178 -0.103522
  3   2.380047 0.353302 0.047440 0.000000 -0.000040 -0.008632
  4   2.033756 0.190472 -0.000128 -0.078354 0.001834 0.022629
  5   2.451511 0.204909 -0.003447 0.000000 -0.000005 -0.017472
  6   7.247600 -0.397300 -0.109469 0.000001 0.000009 0.052298
  7   -2.022252 -0.104661 3.136172 -0.631698 -1.324819 -2.577361
  8   1.168026 -0.537438 -0.063437 0.267088 1.150704 0.269363
  9   6.790376 -0.619176 0.015206 -0.000269 -0.000285 -0.451448
 10   8.637599 0.544015 -0.090417 -1.570112 0.000292 -0.069354
 11   6.790465 -0.619039 0.017802 -0.001860 -0.011140 -0.331198
 12   -2.022474 -0.104699 -2.873818 0.298873 1.361742 -2.901984
 13   1.167898 -0.537463 0.063297 -0.227900 -1.213690 0.082479
 14   7.002743 -0.617765 -0.183752 0.000229 0.000250 -1.472970
 15   8.209042 0.615527 -0.255885 1.682906 -0.000063 -0.069646
 16   7.002735 -0.617911 -0.183641 0.013732 0.008101 -1.049647
 17   1.574674 0.609930 -0.000899 0.163542 -0.016701 0.132534
 18   -0.602177 0.511412 -0.000006 0.000000 0.000000 0.000000
 19   3.646428 0.364526 1.119313 -0.000002 -0.000014 -0.174510
 20   3.646422 0.364499 -1.117566 0.000007 -0.000003 -0.174546
 21   3.805634 1.330634 1.627658 0.000002 -0.000011 -0.000026
 22   -0.246060 -0.011889 0.516521 -0.000011 0.000031 0.000025
 23   3.805651 1.330659 -1.631083 0.000019 0.000002 -0.000024
 24   -0.246150 -0.011872 -0.516511 -0.000005 -0.000006 0.000048
 25   4.941364 1.997338 1.629330 0.000018 -0.000001 -0.000024
 26   4.941382 1.997366 -1.629410 -0.000001 0.000005 -0.000024
 27   2.930087 1.603639 1.514501 -0.000019 -0.000022 -0.000050
 28   2.932517 1.603245 -1.501142 -0.000002 -0.000009 -0.000024
 29   8.824059 0.150544 0.091743 0.000006 -0.000065 -0.164073
 30   2.111085 -0.561179 1.756975 -0.001296 0.054592 -0.001220
 31   2.129103 -0.561289 -1.830161 0.000475 -0.032144 0.000435
 32   -0.814395 -0.093824 3.127092 -0.015867 -3.141420 -0.296735
 33   14.298673 -0.408176 0.471578 -0.000088 -0.000041 -0.317940
 34   15.835795 0.581398 0.242756 -0.141863 0.005369 0.022179
 35   -0.815868 -0.091229 -3.114430 -0.027712 3.139564 0.069945
 36   14.294526 -0.410349 -0.467541 0.000093 0.000048 -0.150406
 37   15.834409 0.579420 -0.284600 0.263002 -0.000701 0.219731
 38   1.139685 -3.453749 -2.823813 0.000168 -0.000711 -0.043498
 39   -4.453836 -1.054854 -0.746180 0.000443 -0.001606 -0.098584
 40   1.118101 -3.449769 3.237290 0.000168 -0.000710 -0.043499
 41   -4.437746 -1.059130 0.959566 0.000442 -0.001606 -0.098584
 42   -0.634030 1.697302 -2.446419 0.007622 0.097347 -0.001129
 43   -0.664068 1.698578 2.681871 -0.009783 -0.121199 0.002677
time 12
  0   0.243428 0.335948 1.715267 0.000000 0.000000 -1.571354
  1   -1.093036 0.000002 -0.326057 -1.570756 -1.570425 -0.000219
  2   2.262337 0.113614 0.064702 -0.069357 -0.007178 -0.103522
  3   2.380047 0.353302 0.047440 0.000000 -0.000040 -0.008632
  4   2.033756 0.190472 -0.000128 -0.078354 0.001630 0.020309
  5   2.451511 0.204909 -0.003447 0.000000 -0.000005 -0.017472
  6   7.247600 -0.397300 -0.109469 0.000001 0.000009 0.052298
  7   -2.022252 -0.104661 3.136172 -0.649719 -1.321619 -2.560175
  8   1.168026 -0.537438 -0.063437 0.276580 1.145572 0.267655
  9   6.790376 -0.619176 0.015206 -0.000269 -0.000285 -0.451448
 10   8.637599 0.544015 -0.090417 -1.570112 0.000292 -0.069354
 11   6.790465 -0.619039 0.017802 -0.001860 -0.011140 -0.331198
 12   -2.022474 -0.104699 -2.873818 0.298873 1.361742 -2.901888
 13   1.167898 -0.537463 0.063297 -0.233594 -1.211249 0.087927
 14   7.002743 -0.617765 -0.183752 0.000229 0.000250 -1.472970
 15   8.209042 0.615527 -0.255885 1.682906 -0.000063 -0.069646
 16   7.002735 -0.617911 -0.183641 0.013732 0.008101 -1.049647
 17   1.574674 0.609930 -0.000899 0.163542 -0.016701 0.134974
 18   -0.602177 0.511412 -0.000006 0.000000 0.000000 0.000000
 19   3.646428 0.364526 1.119313 -0.000002 -0.000014 -0.174510
 20   3.646422 0.364499 -1.117566 0.000007 -0.000003 -0.174546
 21   3.805634 1.330634 1.627658 0.000002 -0.000011 -0.000026
 22   -0.246060 -0.011889 0.516521 -0.000011 0.000031 0.000025
 23   3.805651 1.330659 -1.631083 0.000019 0.000002 -0.000024
 24   -0.246150 -0.011872 -0.516511 -0.000005 -0.000006 0.000048
 25   4.941364 1.997338 1.629330 0.000018 -0.000001 -0.000024
 26   4.941382 1.997366 -1.629410 -0.000001 0.000005 -0.000024
 27   2.930087 1.603639 1.514501 -0.000019 -0.000022 -0.000050
 28   2.932517 1.603245 -1.501142 -0.000002 -0.000009 -0.000024
 29   8.824059 0.150544 0.091743 -0.000172 0.000339 -0.139019
 30   2.122804 -0.561179 1.682754 -0.004361 0.186471 -0.004200
 31   2.152541 -0.561289 -1.775472 0.001609 -0.108864 0.001490
 32   -0.814395 -0.093824 3.127092 -0.015867 -3.141420 -0.298272
 33   14.298673 -0.408176 0.471578 -0.000088 -0.000041 -0.321592
 34   15.835795 0.581398 0.242756 -0.141863 0.005345 0.024340
 35   -0.815868 -0.091229 -3.114430 -0.027536 3.139751 0.067097
 36   14.294526 -0.410349 -0.467541 0.000093 0.000048 -0.156663
 37   15.834409 0.579420 -0.284600 0.263002 -0.000778 0.223178
 38   1.139685 -3.453749 -2.823813 0.000189 -0.000771 -0.047225
 39   -4.453836 -1.054854 -0.746180 0.000479 -0.001750 -0.107110
 40   1.118101 -3.449769 3.237290 0.000189 -0.000770 -0.047226
 41   -4.437746 -1.059130 0.959566 0.000478 -0.001750 -0.107110
 42   -0.630123 1.697302 -2.426887 0.008281 0.105780 -0.001213
 43   -0.664068 1.698578 2.666246 -0.010620 -0.131696 0.002928
time 13
  0   0.243428 0.324229 1.715267 0.000000 0.000000 -1.571354
  1   -1.093036 0.000002 -0.326057 -1.570756 -1.570425 -0.000219
  2   2.262337 0.113614 0.064702 -0.069357 -0.007178 -0.103522
  3   2.380047 0.353302 0.047440 0.000000 -0.000040 -0.008632
  4   2.033756 0.190472 -0.000128 -0.078354 0.001354 0.018533
  5   2.451511 0.204909 -0.003447 0.000000 -0.000005 -0.017472
  6   7.247600 -0.397300 -0.109469 0.000001 0.000009 0.052298
  7   -2.022252 -0.104661 3.136172 -0.662755 -1.319256 -2.547402
  8   1.168026 -0.537438 -0.063437 0.283604 1.142201 0.266453
  9   6.790376 -0.619176 0.015206 -0.000269 -0.000285 -0.451448
 10   8.637599 0.544015 -0.090417 -1.570112 0.000292 -0.069354
 11   6.790465 -0.619039 0.017802 -0.001860 -0.011140 -0.331198
 12   -2.022474 -0.104699 -2.873818 0.298873 1.361771 -2.901984
 13   1.167898 -0.537463 0.063297 -0.237601 -1.209673 0.092225
 14   7.002743 -0.617765 -0.183752 0.000229 0.000250 -1.472970
 15   8.209042 0.615527 -0.255885 1.682906 -0.000063 -0.069646
 16   7.002735 -0.617911 -0.183641 0.013732 0.008101 -1.049647
 17   1.574674 0.609930 -0.000899 0.163542 -0.016701 0.136859
 18   -0.602177 0.511412 -0.000006 0.000000 0.000000 0.000000
 19   3.646428 0.364526 1.119313 -0.000002 -0.000014 -0.174510
 20   3.646422 0.364499 -1.117566 0.000007 -0.000003 -0.174546
 21   3.805634 1.330634 1.627658 0.000002 -0.000011 -0.000026
 22   -0.246060 -0.011889 0.516521 -0.000011 0.000031 0.000025
 23   3.805651 1.330659 -1.631083 0.000019 0.000002 -0.000024
 24   -0.246150 -0.011872 -0.516511 -0.000005 -0.000006 0.000048
 25   4.941364 1.997338 1.629330 0.000018 -0.000001 -0.000024
 26   4.941382 1.997366 -1.629410 -0.000001 0.000005 -0.000024
 27   2.930087 1.603639 1.514501 -0.000019 -0.000022 -0.000050
 28   2.932517 1.603245 -1.501142 -0.000002 -0.000009 -0.000024
 29   8.824059 0.150544 0.091743 -0.000350 0.000813 -0.109191
 30   2.130617 -0.561179 1.596814 -0.008036 0.343866 -0.007760
 31   2.183792 -0.561289 -1.705157 0.002957 -0.200425 0.002746
 32   -0.814395 -0.093824 3.127092 -0.015867 -3.141420 -0.299524
 33   14.298673 -0.408176 0.471578 -0.000088 -0.000041 -0.324291
 34   15.835795 0.581398 0.242756 -0.141863 0.005345 0.025663
 35   -0.815868 -0.091229 -3.114430 -0.027536 3.139845 0.064960
 36   14.294526 -0.410349 -0.467541 0.000093 0.000048 -0.160988
 37   15.834409 0.579420 -0.284600 0.263002 -0.000829 0.225561
 38   1.139685 -3.453749 -2.823813 0.000189 -0.000819 -0.050158
 39   -4.453836 -1.054854 -0.746180 0.000515 -0.001858 -0.113757
 40   1.118101 -3.449769 3.237290 0.000189 -0.000818 -0.050159
 41   -4.437746 -1.059130 0.959566 0.000514 -0.001858 -0.113757
 42   -0.630123 1.697302 -2.411262 0.008797 0.112327 -0.001296
 43   -0.664068 1.698578 2.654527 -0.011282 -0.139856 0.003095
time 14
  0   0.243428 0.324229 1.703548 0.000000 0.000000 -1.571354
  1   -1.093036 0.000002 -0.326057 -1.570756 -1.570425 -0.000026
  2   2.262337 0.113614 0.064702 -0.069357 -0.007178 -0.103522
  3   2.380047 0.353302 0.047440 0.000000 -0.000040 -0.008632
  4   2.033756 0.190472 -0.000128 -0.078354 0.001282 0.017373
  5   2.451511 0.204909 -0.003447 0.000000 -0.000005 -0.017472
  6   7.247600 -0.397300 -0.109469 0.000001 0.000009 0.052298
  7   -2.022252 -0.104661 3.136172 -0.670712 -1.317728 -2.540076
  8   1.168026 -0.537438 -0.063437 0.287907 1.139937 0.265631
  9   6.790376 -0.619176 0.015206 -0.000269 -0.000285 -0.451448
 10   8.637599 0.544015 -0.090417 -1.570112 0.000292 -0.069354
 11   6.790465 -0.619039 0.017802 -0.001860 -0.011140 -0.331198
 12   -2.022474 -0.104699 -2.873818 0.298873 1.361742 -2.901984
 13   1.167898 -0.537463 0.063297 -0.240413 -1.208605 0.094525
 14   7.002743 -0.617765 -0.183752 0.000229 0.000250 -1.472970
 15   8.209042 0.615527 -0.255885 1.682906 -0.000063 -0.069646
 16   7.002735 -0.617911 -0.183641 0.013732 0.008101 -1.049647
 17   1.574674 0.609930 -0.000899 0.163542 -0.016701 0.137931
 18   -0.602177 0.511412 -0.000006 0.000000 0.000000 0.000000
 19   3.658147 0.270773 1.119313 -0.000002 -0.000014 -0.174510
 20   3.658141 0.270746 -1.117566 0.000007 -0.000003 -0.174546
 21   3.352495 1.260319 1.572969 0.000002 -0.000011 -0.000026
 22   -0.238247 -0.382994 0.496989 0.000099 -0.028720 0.445010
 23   3.360325 1.256438 -1.623270 0.000019 0.000002 -0.000024
 24   -0.160210 -0.285318 -0.532136 0.000091 -0.028745 0.445076
 25   4.531195 1.993432 1.637143 -0.032209 0.220350 0.007203
 26   4.531213 1.993460 -1.621597 0.035761 -0.204352 -0.020865
 27   3.117593 1.463010 1.502782 -0.000019 -0.000022 -0.000050
 28   3.120023 1.462616 -1.512861 -0.000002 -0.000009 -0.000024
 29   8.824059 0.150544 0.091743 -0.000440 0.001217 -0.084137
 30   2.138430 -0.561179 1.522593 -0.011114 0.475745 -0.010740
 31   2.207230 -0.557383 -1.650468 0.004091 -0.277145 0.003783
 32   -0.814395 -0.093824 3.127092 -0.015867 -3.141229 -0.300606
 33   14.298673 -0.408176 0.471578 -0.000088 -0.000041 -0.325959
 34   15.835795 0.581398 0.242756 -0.141863 0.005296 0.026898
 35   -0.815868 -0.091229 -3.114430 -0.027536 3.139845 0.063646
 36   14.294526 -0.410349 -0.467541 0.000093 0.000048 -0.163769
 37   15.834409 0.579420 -0.284600 0.263002 -0.000829 0.227234
 38   1.139685 -3.453749 -2.823813 0.000189 -0.000856 -0.052051
 39   -4.453836 -1.054854 -0.746180 0.000527 -0.001930 -0.118048
 40   1.118101 -3.449769 3.237290 0.000189 -0.000855 -0.052053
 41   -4.437746 -1.059130 0.959566 0.000526 -0.001930 -0.118048
 42   -0.630123 1.697302 -2.399543 0.009120 0.116558 -0.001338
 43   -0.664068 1.698578 2.646714 -0.011707 -0.145112 0.003220
time 15
  0   0.243428 0.324229 1.703548 0.000000 0.000000 -1.571354
  1   -1.093036 0.000002 -0.326057 -1.570756 -1.570425 -0.000026
  2   2.262337 0.113614 0.064702 -0.069357 -0.007178 -0.103522
  3   2.380047 0.353302 0.047440 0.000000 -0.000040 -0.008632
  4   2.033756 0.190472 -0.000128 -0.078354 0.001258 0.017047
  5   2.451511 0.204909 -0.003447 0.000000 -0.000005 -0.017472
  6   7.247600 -0.397300 -0.109469 0.000001 0.000009 0.052298
  7   -2.022252 -0.104661 3.136172 -0.672629 -1.317411 -2.538010
  8   1.168026 -0.537438 -0.063437 0.288983 1.139484 0.265441
  9   6.790376 -0.619176 0.015206 -0.000269 -0.000285 -0.451448
 10   8.637599 0.544015 -0.090417 -1.570112 0.000292 -0.069354
 11   6.790465 -0.619039 0.017802 -0.001860 -0.011140 -0.331198
 12   -2.022474 -0.104699 -2.873818 0.298873 1.361742 -2.901984
 13   1.167898 -0.537463 0.063297 -0.241327 -1.208300 0.095433
 14   7.002743 -0.617765 -0.183752 0.000229 0.000250 -1.472970
 15   8.209042 0.615527 -0.255885 1.682906 -0.000063 -0.069646
 16   7.002735 -0.617911 -0.183641 0.013732 0.008101 -1.049647
 17   1.574674 0.609930 -0.000899 0.163542 -0.016701 0.138263
 18   -0.602177 0.511412 -0.000006 0.000000 0.000000 0.000000
 19   3.673773 0.177020 1.119313 -0.000002 -0.000014 -0.174510
 20   3.673767 0.176993 -1.117566 0.000007 -0.000003 -0.174546
 21   2.899356 1.190005 1.518280 0.000002 -0.000011 -0.000026
 22   -0.226528 -0.758005 0.473551 0.000194 -0.057471 0.890061
 23   2.914999 1.182217 -1.611551 0.000019 0.000002 -0.000024
 24   -0.074270 -0.562670 -0.551668 0.000187 -0.057496 0.890104
 25   4.117120 1.989525 1.648862 -0.064423 0.440701 0.014429
 26   4.117138 1.989553 -1.609878 0.071535 -0.408734 -0.041706
 27   3.305099 1.322380 1.487156 -0.000019 -0.000022 -0.000050
 28   3.307528 1.321986 -1.528487 -0.000002 -0.000009 -0.000024
 29   8.824059 0.150544 0.091743 -0.000529 0.001383 -0.073622
 30   2.142336 -0.565085 1.491342 -0.012402 0.531019 -0.011984
 31   2.215043 -0.557383 -1.627030 0.004566 -0.309315 0.004238
 32   -0.814395 -0.093824 3.127092 -0.015867 -3.141229 -0.300606
 33   14.298673 -0.408176 0.471578 -0.000088 -0.000041 -0.326515
 34   15.835795 0.581398 0.242756 -0.141863 0.005296 0.026898
 35   -0.815868 -0.091229 -3.114430 -0.027536 3.139845 0.063426
 36   14.294526 -0.410349 -0.467541 0.000093 0.000048 -0.164696
 37   15.834409 0.579420 -0.284600 0.263002 -0.000829 0.227589
 38   1.139685 -3.453749 -2.823813 0.000210 -0.000868 -0.052724
 39   -4.449929 -1.054854 -0.746180 0.000539 -0.001953 -0.119563
 40   1.118101 -3.449769 3.237290 0.000210 -0.000867 -0.052725
 41   -4.441652 -1.059130 0.959566 0.000538 -0.001953 -0.119563
 42   -0.626217 1.697302 -2.395636 0.009240 0.118061 -0.001380
 43   -0.664068 1.698578 2.642807 -0.011857 -0.146995 0.003262
time 16
  0   0.243428 0.324229 1.703548 0.000000 0.000000 -1.571354
  1   -1.093036 0.000002 -0.326057 -1.570756 -1.570425 -0.000026
  2   2.262337 0.113614 0.064702 -0.069357 -0.007178 -0.103522
  3   2.380047 0.353302 0.047440 0.000000 -0.000040 -0.008632
  4   2.033756 0.190472 -0.000128 -0.078354 0.001306 0.017627
  5   2.451511 0.204909 -0.003447 0.000000 -0.000005 -0.017472
  6   7.247600 -0.397300 -0.109469 0.000001 0.000009 0.052298
  7   -2.022252 -0.104661 3.136172 -0.668699 -1.318131 -2.541767
  8   1.168026 -0.537438 -0.063437 0.286958 1.140440 0.265947
  9   6.790376 -0.619176 0.015206 -0.000269 -0.000285 -0.451448
 10   8.637599 0.544015 -0.090417 -1.570112 0.000292 -0.069354
 11   6.790465 -0.619039 0.017802 -0.001860 -0.011140 -0.331198
 12   -2.022474 -0.104699 -2.873818 0.298873 1.361742 -2.901888
 13   1.167898 -0.537463 0.063297 -0.240624 -1.208757 0.094283
 14   7.002743 -0.617765 -0.183752 0.000229 0.000250 -1.472970
 15   8.209042 0.615527 -0.255885 1.682906 -0.000063 -0.069646
 16   7.002735 -0.617911 -0.183641 0.013732 0.008101 -1.049647
 17   1.574674 0.609930 -0.000899 0.163542 -0.016701 0.137746
 18   -0.602177 0.511412 -0.000006 0.000000 0.000000 0.000000
 19   3.658147 0.270773 1.119313 -0.000002 -0.000014 -0.174510
 20   3.658141 0.270746 -1.117566 0.000007 -0.000003 -0.174546
 21   3.352495 1.260319 1.572969 0.000002 -0.000011 -0.000026
 22   -0.238247 -0.382994 0.496989 0.000099 -0.028720 0.445010
 23   3.360325 1.256438 -1.623270 0.000019 0.000002 -0.000024
 24   -0.160210 -0.285318 -0.532136 0.000091 -0.028745 0.445076
 25   4.531195 1.993432 1.637143 -0.032209 0.220350 0.007203
 26   4.531213 1.993460 -1.621597 0.035761 -0.204352 -0.020865
 27   3.117593 1.463010 1.502782 -0.000019 -0.000022 -0.000050
 28   3.120023 1.462616 -1.512861 -0.000002 -0.000009 -0.000024
 29   8.824059 0.150544 0.091743 -0.000440 0.001217 -0.084137
 30   2.138430 -0.561179 1.522593 -0.011114 0.475745 -0.010740
 31   2.207230 -0.557383 -1.650468 0.004091 -0.277145 0.003783
 32   -0.814395 -0.093824 3.127092 -0.015867 -3.141229 -0.300321
 33   14.298673 -0.408176 0.471578 -0.000088 -0.000041 -0.325721
 34   15.835795 0.581398 0.242756 -0.141863 0.005296 0.026501
 35   -0.815868 -0.091229 -3.114430 -0.027536 3.139845 0.063810
 36   14.294526 -0.410349 -0.467541 0.000093 0.000048 -0.163460
 37   15.834409 0.579420 -0.284600 0.263002 -0.000829 0.226880
 38   1.139685 -3.453749 -2.823813 0.000189 -0.000856 -0.052051
 39   -4.453836 -1.054854 -0.746180 0.000527 -0.001930 -0.118048
 40   1.118101 -3.449769 3.237290 0.000189 -0.000855 -0.052053
 41   -4.437746 -1.059130 0.959566 0.000526 -0.001930 -0.118048
 42   -0.630123 1.697302 -2.399543 0.009120 0.116558 -0.001338
 43   -0.664068 1.698578 2.646714 -0.011707 -0.145112 0.003220
time 17
  0   0.243428 0.324229 1.715267 0.000000 0.000000 -1.571354
  1   -1.093036 0.000002 -0.326057 -1.570756 -1.570425 -0.000219
  2   2.262337 0.113614 0.064702 -0.069357 -0.007178 -0.103522
  3   2.380047 0.353302 0.047440 0.000000 -0.000040 -0.008632
  4   2.033756 0.190472 -0.000128 -0.078354 0.001498 0.018823
  5   2.451511 0.204909 -0.003447 0.000000 -0.000005 -0.017472
  6   7.247600 -0.397300 -0.109469 0.000001 0.000009 0.052298
  7   -2.022252 -0.104661 3.136172 -0.659400 -1.319746 -2.550595
  8   1.168026 -0.537438 -0.063437 0.282022 1.143157 0.266706
  9   6.790376 -0.619176 0.015206 -0.000269 -0.000285 -0.451448
 10   8.637599 0.544015 -0.090417 -1.570112 0.000292 -0.069354
 11   6.790465 -0.619039 0.017802 -0.001860 -0.011140 -0.331198
 12   -2.022474 -0.104699 -2.873818 0.298873 1.361742 -2.901888
 13   1.167898 -0.537463 0.063297 -0.238304 -1.210080 0.091680
 14   7.002743 -0.617765 -0.183752 0.000229 0.000250 -1.472970
 15   8.209042 0.615527 -0.255885 1.682906 -0.000063 -0.069646
 16   7.002735 -0.617911 -0.183641 0.013732 0.008101 -1.049647
 17   1.574674 0.609930 -0.000899 0.163542 -0.016701 0.136415
 18   -0.602177 0.511412 -0.000006 0.000000 0.000000 0.000000
 19   3.646428 0.364526 1.119313 -0.000002 -0.000014 -0.174510
 20   3.646422 0.364499 -1.117566 0.000007 -0.000003 -0.174546
 21   3.805634 1.330634 1.627658 0.000002 -0.000011 -0.000026
 22   -0.246060 -0.011889 0.516521 -0.000011 0.000031 0.000025
 23   3.805651 1.330659 -1.631083 0.000019 0.000002 -0.000024
 24   -0.246150 -0.011872 -0.516511 -0.000005 -0.000006 0.000048
 25   4.941364 1.997338 1.629330 0.000018 -0.000001 -0.000024
 26   4.941382 1.997366 -1.629410 -0.000001 0.000005 -0.000024
 27   2.930087 1.603639 1.514501 -0.000019 -0.000022 -0.000050
 28   2.932517 1.603245 -1.501142 -0.000002 -0.000009 -0.000024
 29   8.824059 0.150544 0.091743 -0.000350 0.000813 -0.109191
 30   2.130617 -0.561179 1.596814 -0.008036 0.343866 -0.007760
 31   2.183792 -0.561289 -1.705157 0.002957 -0.200425 0.002746
 32   -0.814395 -0.093824 3.127092 -0.015867 -3.141420 -0.299524
 33   14.298673 -0.408176 0.471578 -0.000088 -0.000041 -0.324133
 34   15.835795 0.581398 0.242756 -0.141863 0.005345 0.025619
 35   -0.815868 -0.091229 -3.114430 -0.027536 3.139845 0.065344
 36   14.294526 -0.410349 -0.467541 0.000093 0.000048 -0.160602
 37   15.834409 0.579420 -0.284600 0.263002 -0.000829 0.225511
 38   1.139685 -3.453749 -2.823813 0.000189 -0.000819 -0.050158
 39   -4.453836 -1.054854 -0.746180 0.000515 -0.001858 -0.113757
 40   1.118101 -3.449769 3.237290 0.000189 -0.000818 -0.050159
 41   -4.437746 -1.059130 0.959566 0.000514 -0.001858 -0.113757
 42   -0.630123 1.697302 -2.411262 0.008797 0.112327 -0.001296
 43   -0.664068 1.698578 2.654527 -0.011282 -0.139856 0.003095
time 18
  0   0.243428 0.335948 1.715267 0.000000 0.000000 -1.571354
  1   -1.093036 0.000002 -0.326057 -1.570756 -1.570425 -0.000219
  2   2.262337 0.113614 0.064702 -0.069357 -0.007178 -0.103522
  3   2.380047 0.353302 0.047440 0.000000 -0.000040 -0.008632
  4   2.033756 0.190472 -0.000128 -0.078354 0.001678 0.020744
  5   2.451511 0.204909 -0.003447 0.000000 -0.000005 -0.017472
  6   7.247600 -0.397300 -0.109469 0.000001 0.000009 0.052298
  7   -2.022252 -0.104661 3.136172 -0.645980 -1.322282 -2.563650
  8   1.168026 -0.537438 -0.063437 0.274429 1.146981 0.268098
  9   6.790376 -0.619176 0.015206 -0.000269 -0.000285 -0.451448
 10   8.637599 0.544015 -0.090417 -1.570112 0.000292 -0.069354
 11   6.790465 -0.619039 0.017802 -0.001860 -0.011140 -0.331198
 12   -2.022474 -0.104699 -2.873818 0.298873 1.361742 -2.901984
 13   1.167898 -0.537463 0.063297 -0.235000 -1.211504 0.087503
 14   7.002743 -0.617765 -0.183752 0.000229 0.000250 -1.472970
 15   8.209042 0.615527 -0.255885 1.682906 -0.000063 -0.069646
 16   7.002735 -0.617911 -0.183641 0.013732 0.008101 -1.049647
 17   1.574674 0.609930 -0.000899 0.163542 -0.016701 0.134419
 18   -0.602177 0.511412 -0.000006 0.000000 0.000000 0.000000
 19   3.646428 0.364526 1.119313 -0.000002 -0.000014 -0.174510
 20   3.646422 0.364499 -1.117566 0.000007 -0.000003 -0.174546
 21   3.805634 1.330634 1.627658 0.000002 -0.000011 -0.000026
 22   -0.246060 -0.011889 0.516521 -0.000011 0.000031 0.000025
 23   3.805651 1.330659 -1.631083 0.000019 0.000002 -0.000024
 24   -0.246150 -0.011872 -0.516511 -0.000005 -0.000006 0.000048
 25   4.941364 1.997338 1.629330 0.000018 -0.000001 -0.000024
 26   4.941382 1.997366 -1.629410 -0.000001 0.000005 -0.000024
 27   2.930087 1.603639 1.514501 -0.000019 -0.000022 -0.000050
 28   2.932517 1.603245 -1.501142 -0.000002 -0.000009 -0.000024
 29   8.824059 0.150544 0.091743 -0.000172 0.000339 -0.139019
 30   2.122804 -0.561179 1.682754 -0.004361 0.186471 -0.004200
 31   2.152541 -0.561289 -1.775472 0.001609 -0.108864 0.001490
 32   -0.814395 -0.093824 3.127092 -0.015867 -3.141420 -0.298272
 33   14.298673 -0.408176 0.471578 -0.000088 -0.000041 -0.321354
 34   15.835795 0.581398 0.242756 -0.141863 0.005345 0.023987
 35   -0.815868 -0.091229 -3.114430 -0.027536 3.139751 0.067261
 36   14.294526 -0.410349 -0.467541 0.000093 0.000048 -0.156122
 37   15.834409 0.579420 -0.284600 0.263002 -0.000778 0.222975
 38   1.139685 -3.453749 -2.823813 0.000189 -0.000771 -0.047225
 39   -4.453836 -1.054854 -0.746180 0.000479 -0.001750 -0.107110
 40   1.118101 -3.449769 3.237290 0.000189 -0.000770 -0.047226
 41   -4.437746 -1.059130 0.959566 0.000478 -0.001750 -0.107110
 42   -0.630123 1.697302 -2.426887 0.008281 0.105780 -0.001213
 43   -0.664068 1.698578 2.666246 -0.010620 -0.131696 0.002928
time 19
  0   0.243428 0.347667 1.726986 0.000000 0.000000 -1.571354
  1   -1.093036 0.000002 -0.326057 -1.570756 -1.570425 -0.000219
  2   2.262337 0.113614 0.064702 -0.069357 -0.007178 -0.103522
  3   2.380047 0.353302 0.047440 0.000000 -0.000040 -0.008632
  4   2.033756 0.190472 -0.000128 -0.078354 0.001882 0.023354
  5   2.451511 0.204909 -0.003447 0.000000 -0.000005 -0.017472
  6   7.247600 -0.397300 -0.109469 0.000001 0.000009 0.052298
  7   -2.022252 -0.104661 3.136172 -0.627671 -1.325655 -2.581681
  8   1.168026 -0.537438 -0.063437 0.264810 1.151660 0.269616
  9   6.790376 -0.619176 0.015206 -0.000269 -0.000285 -0.451448
 10   8.637599 0.544015 -0.090417 -1.570112 0.000292 -0.069354
 11   6.790465 -0.619039 0.017802 -0.001860 -0.011140 -0.331198
 12   -2.022474 -0.104699 -2.873818 0.298873 1.361742 -2.901888
 13   1.167898 -0.537463 0.063297 -0.230290 -1.213690 0.082176
 14   7.002743 -0.617765 -0.183752 0.000229 0.000250 -1.472970
 15   8.209042 0.615527 -0.255885 1.682906 -0.000063 -0.069646
 16   7.002735 -0.617911 -0.183641 0.013732 0.008101 -1.049647
 17   1.574674 0.609930 -0.000899 0.163542 -0.016701 0.132017
 18   -0.602177 0.511412 -0.000006 0.000000 0.000000 0.000000
 19   3.646428 0.364526 1.119313 -0.000002 -0.000014 -0.174510
 20   3.646422 0.364499 -1.117566 0.000007 -0.000003 -0.174546
 21   3.805634 1.330634 1.627658 0.000002 -0.000011 -0.000026
 22   -0.246060 -0.011889 0.516521 -0.000011 0.000031 0.000025
 23   3.805651 1.330659 -1.631083 0.000019 0.000002 -0.000024
 24   -0.246150 -0.011872 -0.516511 -0.000005 -0.000006 0.000048
 25   4.941364 1.997338 1.629330 0.000018 -0.000001 -0.000024
 26   4.941382 1.997366 -1.629410 -0.000001 0.000005 -0.000024
 27   2.930087 1.603639 1.514501 -0.000019 -0.000022 -0.000050
 28   2.932517 1.603245 -1.501142 -0.000002 -0.000009 -0.000024
 29   8.824059 0.150544 0.091743 0.000006 -0.000065 -0.164073
 30   2.111085 -0.561179 1.756975 -0.001296 0.054592 -0.001220
 31   2.129103 -0.561289 -1.830161 0.000475 -0.032144 0.000435
 32   -0.814395 -0.093824 3.127092 -0.015867 -3.141420 -0.296735
 33   14.298673 -0.408176 0.471578 -0.000088 -0.000041 -0.317940
 34   15.835795 0.581398 0.242756 -0.141863 0.005369 0.022179
 35   -0.815868 -0.091229 -3.114430 -0.027712 3.139564 0.069945
 36   14.294526 -0.410349 -0.467541 0.000093 0.000048 -0.150329
 37   15.834409 0.579420 -0.284600 0.263002 -0.000778 0.219731
 38   1.139685 -3.453749 -2.823813 0.000168 -0.000711 -0.043498
 39   -4.453836 -1.054854 -0.746180 0.000443 -0.001606 -0.098584
 40   1.118101 -3.449769 3.237290 0.000168 -0.000710 -0.043499
 41   -4.437746 -1.059130 0.959566 0.000442 -0.001606 -0.098584
 42   -0.634030 1.697302 -2.446419 0.007622 0.097347 -0.001129
 43   -0.664068 1.698578 2.681871 -0.009783 -0.121199 0.002677
time 20
  0   0.243428 0.347667 1.726986 0.000000 0.000000 -1.571354
  1   -1.093036 0.000002 -0.326057 -1.570756 -1.570425 -0.000219
  2   2.262337 0.113614 0.064702 -0.069357 -0.007178 -0.103522
  3   2.380047 0.353302 0.047440 0.000000 -0.000040 -0.008632
  4   2.033756 0.190472 -0.000128 -0.078354 0.002002 0.026326
  5   2.451511 0.204909 -0.003447 0.000000 -0.000005 -0.017472
  6   7.247600 -0.397300 -0.109469 0.000001 0.000009 0.052298
  7   -2.022252 -0.104661 3.136172 -0.605241 -1.329230 -2.603376
  8   1.168026 -0.537438 -0.063437 0.253166 1.157698 0.271514
  9   6.790376 -0.619176 0.015206 -0.000269 -0.000285 -0.451448
 10   8.637599 0.544015 -0.090417 -1.570112 0.000292 -0.069354
 11   6.790465 -0.619039 0.017802 -0.001860 -0.011140 -0.331198
 12   -2.022474 -0.104699 -2.873818 0.298873 1.361771 -2.901984
 13   1.167898 -0.537463 0.063297 -0.224596 -1.216182 0.075820
 14   7.002743 -0.617765 -0.183752 0.000229 0.000250 -1.472970
 15   8.209042 0.615527 -0.255885 1.682906 -0.000063 -0.069646
 16   7.002735 -0.617911 -0.183641 0.013732 0.008101 -1.049647
 17   1.574674 0.609930 -0.000899 0.163542 -0.016701 0.129356
 18   -0.602177 0.511412 -0.000006 0.000000 0.000000 0.000000
 19   3.646428 0.364526 1.119313 -0.000002 -0.000014 -0.174510
 20   3.646422 0.364499 -1.117566 0.000007 -0.000003 -0.174546
 21   3.805634 1.330634 1.627658 0.000002 -0.000011 -0.000026
 22   -0.246060 -0.011889 0.516521 -0.000011 0.000031 0.000025
 23   3.805651 1.330659 -1.631083 0.000019 0.000002 -0.000024
 24   -0.246150 -0.011872 -0.516511 -0.000005 -0.000006 0.000048
 25   4.941364 1.997338 1.629330 0.000018 -0.000001 -0.000024
 26   4.941382 1.997366 -1.629410 -0.000001 0.000005 -0.000024
 27   2.930087 1.603639 1.514501 -0.000019 -0.000022 -0.000050
 28   2.932517 1.603245 -1.501142 -0.000002 -0.000009 -0.000024
 29   8.824059 0.150544 0.091743 0.000006 -0.000231 -0.174534
 30   2.111085 -0.561179 1.784320 -0.000008 -0.000682 0.000024
 31   2.121290 -0.561289 -1.853599 0.000000 0.000000 -0.000002
 32   -0.814395 -0.093824 3.127092 -0.015867 -3.141420 -0.294914
 33   14.298673 -0.408176 0.471578 -0.000088 -0.000041 -0.313811
 34   15.835795 0.581398 0.242756 -0.141886 0.005467 0.019709
 35   -0.815868 -0.091229 -3.114430 -0.027712 3.139189 0.073122
 36   14.294526 -0.410349 -0.467541 0.000093 0.000048 -0.143377
 37   15.834409 0.579420 -0.284600 0.263061 -0.000701 0.216029
 38   1.139685 -3.453749 -2.823813 0.000147 -0.000639 -0.039038
 39   -4.453836 -1.054854 -0.746180 0.000395 -0.001450 -0.088571
 40   1.118101 -3.449769 3.237290 0.000147 -0.000638 -0.039039
 41   -4.437746 -1.059130 0.959566 0.000394 -0.001450 -0.088571
 42   -0.637936 1.697302 -2.473763 0.006843 0.087458 -0.001004
 43   -0.664068 1.698578 2.701403 -0.008783 -0.108881 0.002426
time 21
  0   0.243428 0.355480 1.738705 0.000000 0.000000 -1.571354
  1   -1.093036 0.000002 -0.326057 -1.570756 -1.570425 -0.000026
  2   2.262337 0.113614 0.064702 -0.069357 -0.007178 -0.103522
  3   2.380047 0.353302 0.047440 0.000000 -0.000040 -0.008632
  4   2.033756 0.190472 -0.000128 -0.078354 0.002337 0.029661
  5   2.451511 0.204909 -0.003447 0.000000 -0.000005 -0.017472
  6   7.247600 -0.397300 -0.109469 0.000001 0.000009 0.052298
  7   -2.022252 -0.104661 3.136172 -0.579551 -1.333237 -2.628546
  8   1.168026 -0.537438 -0.063437 0.239561 1.163987 0.273412
  9   6.790376 -0.619176 0.015206 -0.000269 -0.000285 -0.451448
 10   8.637599 0.544015 -0.090417 -1.570112 0.000292 -0.069354
 11   6.790465 -0.619039 0.017802 -0.001860 -0.011140 -0.331198
 12   -2.022474 -0.104699 -2.873818 0.298873 1.361742 -2.901984
 13   1.167898 -0.537463 0.063297 -0.217777 -1.219234 0.068374
 14   7.002743 -0.617765 -0.183752 0.000229 0.000250 -1.472970
 15   8.209042 0.615527 -0.255885 1.682906 -0.000063 -0.069646
 16   7.002735 -0.617911 -0.183641 0.013732 0.008101 -1.049647
 17   1.574674 0.609930 -0.000899 0.163542 -0.016701 0.125955
 18   -0.602177 0.511412 -0.000006 0.000000 0.000000 0.000000
 19   3.646428 0.364526 1.119313 -0.000002 -0.000014 -0.174510
 20   3.646422 0.364499 -1.117566 0.000007 -0.000003 -0.174546
 21   3.805634 1.330634 1.627658 0.000002 -0.000011 -0.000026
 22   -0.246060 -0.011889 0.516521 -0.000011 0.000031 0.000025
 23   3.805651 1.330659 -1.631083 0.000019 0.000002 -0.000024
 24   -0.246150 -0.011872 -0.516511 -0.000005 -0.000006 0.000048
 25   4.941364 1.997338 1.629330 0.000018 -0.000001 -0.000024
 26   4.941382 1.997366 -1.629410 -0.000001 0.000005 -0.000024
 27   2.930087 1.603639 1.514501 -0.000019 -0.000022 -0.000050
 28   2.932517 1.603245 -1.501142 -0.000002 -0.000009 -0.000024
 29   8.824059 0.150544 0.091743 0.000006 -0.000231 -0.174534
 30   2.111085 -0.561179 1.784320 -0.000008 -0.000682 0.000024
 31   2.121290 -0.561289 -1.853599 0.000000 0.000000 -0.000002
 32   -0.814395 -0.093824 3.127092 -0.015867 -3.141516 -0.292922
 33   14.298673 -0.408176 0.471578 -0.000088 -0.000041 -0.309206
 34   15.835795 0.581398 0.242756 -0.141886 0.005491 0.017151
 35   -0.815868 -0.091229 -3.114430 -0.027712 3.139002 0.076847
 36   14.294526 -0.410349 -0.467541 0.000093 0.000048 -0.134957
 37   15.834409 0.579420 -0.284600 0.263061 -0.000701 0.211568
 38   1.139685 -3.453749 -2.823813 0.000126 -0.000554 -0.034151
 39   -4.453836 -1.054854 -0.746180 0.000348 -0.001258 -0.077465
 40   1.118101 -3.449769 3.237290 0.000126 -0.000553 -0.034152
 41   -4.437746 -1.059130 0.959566 0.000347 -0.001258 -0.077465
 42   -0.637936 1.697302 -2.501108 0.005980 0.076510 -0.000878
 43   -0.664068 1.698578 2.724841 -0.007684 -0.095245 0.002091
time 22
  0   0.243428 0.355480 1.769956 0.000000 0.000000 -1.571354
  1   -1.093036 0.000002 -0.326057 -1.570756 -1.570425 -0.000026
  2   2.262337 0.113614 0.064702 -0.069357 -0.007178 -0.103522
  3   2.380047 0.353302 0.047440 0.000000 -0.000040 -0.008632
  4   2.033756 0.190472 -0.000128 -0.078354 0.002661 0.033213
  5   2.451511 0.204909 -0.003447 0.000000 -0.000005 -0.017472
  6   7.247600 -0.397300 -0.109469 0.000001 0.000009 0.052298
  7   -2.022252 -0.104661 3.136172 -0.550314 -1.337445 -2.656439
  8   1.168026 -0.537438 -0.063437 0.224753 1.171182 0.274677
  9   6.790376 -0.619176 0.015206 -0.000269 -0.000285 -0.451448
 10   8.637599 0.544015 -0.090417 -1.570112 0.000292 -0.069354
 11   6.790465 -0.619039 0.017802 -0.001860 -0.011140 -0.331198
 12   -2.022474 -0.104699 -2.873818 0.298873 1.361742 -2.901888
 13   1.167898 -0.537463 0.063297 -0.210467 -1.222437 0.059960
 14   7.002743 -0.617765 -0.183752 0.000229 0.000250 -1.472970
 15   8.209042 0.615527 -0.255885 1.682906 -0.000063 -0.069646
 16   7.002735 -0.617911 -0.183641 0.013732 0.008101 -1.049647
 17   1.574674 0.609930 -0.000899 0.163542 -0.016701 0.122296
 18   -0.602177 0.511412 -0.000006 0.000000 0.000000 0.000000
 19   3.646428 0.364526 1.119313 -0.000002 -0.000014 -0.174510
 20   3.646422 0.364499 -1.117566 0.000007 -0.000003 -0.174546
 21   3.805634 1.330634 1.627658 0.000002 -0.000011 -0.000026
 22   -0.246060 -0.011889 0.516521 -0.000011 0.000031 0.000025
 23   3.805651 1.330659 -1.631083 0.000019 0.000002 -0.000024
 24   -0.246150 -0.011872 -0.516511 -0.000005 -0.000006 0.000048
 25   4.941364 1.997338 1.629330 0.000018 -0.000001 -0.000024
 26   4.941382 1.997366 -1.629410 -0.000001 0.000005 -0.000024
 27   2.930087 1.603639 1.514501 -0.000019 -0.000022 -0.000050
 28   2.932517 1.603245 -1.501142 -0.000002 -0.000009 -0.000024
 29   8.824059 0.150544 0.091743 0.000006 -0.000231 -0.174534
 30   2.111085 -0.561179 1.784320 -0.000008 -0.000682 0.000024
 31   2.121290 -0.561289 -1.853599 0.000000 0.000000 -0.000002
 32   -0.814395 -0.093824 3.127092 -0.015867 -3.141611 -0.290929
 33   14.298673 -0.408176 0.471578 -0.000088 -0.000041 -0.303807
 34   15.835795 0.581398 0.242756 -0.141932 0.005540 0.014461
 35   -0.815868 -0.091229 -3.114430 -0.027712 3.139002 0.081065
 36   14.294526 -0.410349 -0.467541 0.000093 0.000048 -0.125842
 37   15.834409 0.579420 -0.284600 0.263061 -0.000650 0.206497
 38   1.139685 -3.453749 -2.823813 0.000105 -0.000470 -0.028958
 39   -4.453836 -1.054854 -0.746180 0.000300 -0.001067 -0.065741
 40   1.118101 -3.449769 3.237290 0.000105 -0.000469 -0.028959
 41   -4.437746 -1.059130 0.959566 0.000299 -0.001067 -0.065741
 42   -0.641843 1.697302 -2.528453 0.005081 0.064919 -0.000753
 43   -0.664068 1.698578 2.744373 -0.006522 -0.080825 0.001798
time 23
  0   0.243428 0.367199 1.769956 0.000000 0.000000 -1.571354
  1   -1.093036 0.000002 -0.326057 -1.570756 -1.570425 -0.000026
  2   2.262337 0.113614 0.064702 -0.069357 -0.007178 -0.103522
  3   2.380047 0.353302 0.047440 0.000000 -0.000040 -0.008632
  4   2.033756 0.190472 -0.000128 -0.078354 0.002828 0.037056
  5   2.451511 0.204909 -0.003447 0.000000 -0.000005 -0.017472
  6   7.247600 -0.397300 -0.109469 0.000001 0.000009 0.052298
  7   -2.022252 -0.104661 3.136172 -0.518585 -1.341654 -2.687337
  8   1.168026 -0.537438 -0.063437 0.208680 1.178679 0.275942
  9   6.790376 -0.619176 0.015206 -0.000269 -0.000285 -0.451448
 10   8.637599 0.544015 -0.090417 -1.570112 0.000292 -0.069354
 11   6.790465 -0.619039 0.017802 -0.001860 -0.011140 -0.331198
 12   -2.022474 -0.104699 -2.873818 0.298873 1.361742 -2.901984
 13   1.167898 -0.537463 0.063297 -0.202031 -1.225641 0.051122
 14   7.002743 -0.617765 -0.183752 0.000229 0.000250 -1.472970
 15   8.209042 0.615527 -0.255885 1.682906 -0.000063 -0.069646
 16   7.002735 -0.617911 -0.183641 0.013732 0.008101 -1.049647
 17   1.574674 0.609930 -0.000899 0.163542 -0.016701 0.118415
 18   -0.602177 0.511412 -0.000006 0.000000 0.000000 0.000000
 19   3.646428 0.364526 1.119313 -0.000002 -0.000014 -0.174510
 20   3.646422 0.364499 -1.117566 0.000007 -0.000003 -0.174546
 21   3.805634 1.330634 1.627658 0.000002 -0.000011 -0.000026
 22   -0.246060 -0.011889 0.516521 -0.000011 0.000031 0.000025
 23   3.805651 1.330659 -1.631083 0.000019 0.000002 -0.000024
 24   -0.246150 -0.011872 -0.516511 -0.000005 -0.000006 0.000048
 25   4.941364 1.997338 1.629330 0.000018 -0.000001 -0.000024
 26   4.941382 1.997366 -1.629410 -0.000001 0.000005 -0.000024
 27   2.930087 1.603639 1.514501 -0.000019 -0.000022 -0.000050
 28   2.932517 1.603245 -1.501142 -0.000002 -0.000009 -0.000024
 29   8.824059 0.150544 0.091743 0.000006 -0.000231 -0.174534
 30   2.111085 -0.561179 1.784320 -0.000008 -0.000682 0.000024
 31   2.121290 -0.561289 -1.853599 0.000000 0.000000 -0.000002
 32   -0.814395 -0.093824 3.127092 -0.015867 -3.141611 -0.288311
 33   14.298673 -0.408176 0.471578 -0.000088 -0.000041 -0.298805
 34   15.835795 0.581398 0.242756 -0.141932 0.005613 0.011462
 35   -0.815868 -0.091229 -3.114430 -0.027712 3.138908 0.085666
 36   14.294526 -0.410349 -0.467541 0.000093 0.000048 -0.116727
 37   15.834409 0.579420 -0.284600 0.263061 -0.000573 0.201022
 38   1.139685 -3.453749 -2.823813 0.000084 -0.000386 -0.023704
 39   -4.457742 -1.054854 -0.746180 0.000240 -0.000875 -0.053793
 40   1.118101 -3.449769 3.237290 0.000084 -0.000385 -0.023705
 41   -4.433840 -1.059130 0.959566 0.000239 -0.000875 -0.053793
 42   -0.645749 1.697302 -2.559704 0.004159 0.053128 -0.000586
 43   -0.664068 1.698578 2.767811 -0.005335 -0.066153 0.001464
time 24
  0   0.243428 0.378918 1.781675 0.000000 0.000000 -1.571354
  1   -1.093036 0.000002 -0.326057 -1.570756 -1.570425 0.000264
  2   2.262337 0.113614 0.064702 -0.069357 -0.007178 -0.103522
  3   2.380047 0.353302 0.047440 0.000000 -0.000040 -0.008632
  4   2.033756 0.190472 -0.000128 -0.078317 0.003260 0.041006
  5   2.451511 0.204909 -0.003447 0.000000 -0.000005 -0.017472
  6   7.247600 -0.397300 -0.109469 0.000001 0.000009 0.052298
  7   -2.022252 -0.104661 3.136172 -0.484556 -1.345690 -2.720584
  8   1.168026 -0.537438 -0.063437 0.191974 1.186679 0.276638
  9   6.790376 -0.619176 0.015206 -0.000269 -0.000285 -0.451448
 10   8.637599 0.544015 -0.090417 -1.570112 0.000292 -0.069354
 11   6.790465 -0.619039 0.017802 -0.001860 -0.011140 -0.331198
 12   -2.022474 -0.104699 -2.873818 0.298873 1.361742 -2.901888
 13   1.167898 -0.537463 0.063297 -0.193525 -1.228947 0.041618
 14   7.002743 -0.617765 -0.183752 0.000229 0.000250 -1.472970
 15   8.209042 0.615527 -0.255885 1.682906 -0.000063 -0.069646
 16   7.002735 -0.617911 -0.183641 0.013732 0.008101 -1.049647
 17   1.574674 0.609930 -0.000899 0.163542 -0.016701 0.114608
 18   -0.602177 0.511412 -0.000006 0.000000 0.000000 0.000000
 19   3.646428 0.364526 1.119313 -0.000002 -0.000014 -0.174510
 20   3.646422 0.364499 -1.117566 0.000007 -0.000003 -0.174546
 21   3.805634 1.330634 1.627658 0.000002 -0.000011 -0.000026
 22   -0.246060 -0.011889 0.516521 -0.000011 0.000031 0.000025
 23   3.805651 1.330659 -1.631083 0.000019 0.000002 -0.000024
 24   -0.246150 -0.011872 -0.516511 -0.000005 -0.000006 0.000048
 25   4.941364 1.997338 1.629330 0.000018 -0.000001 -0.000024
 26   4.941382 1.997366 -1.629410 -0.000001 0.000005 -0.000024
 27   2.930087 1.603639 1.514501 -0.000019 -0.000022 -0.000050
 28   2.932517 1.603245 -1.501142 -0.000002 -0.000009 -0.000024
 29   8.824059 0.150544 0.091743 0.000006 -0.000231 -0.174534
 30   2.111085 -0.561179 1.784320 -0.000008 -0.000682 0.000024
 31   2.121290 -0.561289 -1.853599 0.000000 0.000000 -0.000002
 32   -0.814395 -0.093824 3.127092 -0.015867 -3.141898 -0.286034
 33   14.298673 -0.408176 0.471578 -0.000088 -0.000041 -0.293406
 34   15.835795 0.581398 0.242756 -0.141932 0.005613 0.008463
 35   -0.815868 -0.091229 -3.114430 -0.027712 3.138440 0.090541
 36   14.294526 -0.410349 -0.467541 0.000093 0.000048 -0.105604
 37   15.834409 0.579420 -0.284600 0.263061 -0.000573 0.195241
 38   1.139685 -3.453749 -2.823813 0.000063 -0.000301 -0.018572
 39   -4.457742 -1.054854 -0.746180 0.000192 -0.000683 -0.042070
 40   1.118101 -3.449769 3.237290 0.000063 -0.000300 -0.018573
 41   -4.433840 -1.059130 0.959566 0.000191 -0.000683 -0.042070
 42   -0.649655 1.697302 -2.587048 0.003248 0.041553 -0.000460
 43   -0.664068 1.698578 2.791250 -0.004173 -0.051733 0.001129
time 25
  0   0.243428 0.390637 1.801207 0.000000 0.000000 -1.571354
  1   -1.093036 0.000002 -0.326057 -1.570756 -1.570425 -0.000026
  2   2.262337 0.113614 0.064702 -0.069357 -0.007178 -0.103522
  3   2.380047 0.353302 0.047440 0.000000 -0.000040 -0.008632
  4   2.033756 0.190472 -0.000128 -0.078317 0.003476 0.044957
  5   2.451511 0.204909 -0.003447 0.000000 -0.000005 -0.017472
  6   7.247600 -0.397300 -0.109469 0.000001 0.000009 0.052298
  7   -2.022252 -0.104661 3.136172 -0.449472 -1.349553 -2.755051
  8   1.168026 -0.537438 -0.063437 0.174446 1.194075 0.277081
  9   6.790376 -0.619176 0.015206 -0.000269 -0.000285 -0.451448
 10   8.637599 0.544015 -0.090417 -1.570112 0.000292 -0.069354
 11   6.790465 -0.619039 0.017802 -0.001860 -0.011140 -0.331198
 12   -2.022474 -0.104699 -2.873818 0.298873 1.361742 -2.901984
 13   1.167898 -0.537463 0.063297 -0.184527 -1.232405 0.032235
 14   7.002743 -0.617765 -0.183752 0.000229 0.000250 -1.472970
 15   8.209042 0.615527 -0.255885 1.682906 -0.000063 -0.069646
 16   7.002735 -0.617911 -0.183641 0.013732 0.008101 -1.049647
 17   1.574674 0.609930 -0.000899 0.163542 -0.016701 0.110616
 18   -0.602177 0.511412 -0.000006 0.000000 0.000000 0.000000
 19   3.646428 0.364526 1.119313 -0.000002 -0.000014 -0.174510
 20   3.646422 0.364499 -1.117566 0.000007 -0.000003 -0.174546
 21   3.805634 1.330634 1.627658 0.000002 -0.000011 -0.000026
 22   -0.246060 -0.011889 0.516521 -0.000011 0.000031 0.000025
 23   3.805651 1.330659 -1.631083 0.000019 0.000002 -0.000024
 24   -0.246150 -0.011872 -0.516511 -0.000005 -0.000006 0.000048
 25   4.941364 1.997338 1.629330 0.000018 -0.000001 -0.000024
 26   4.941382 1.997366 -1.629410 -0.000001 0.000005 -0.000024
 27   2.930087 1.603639 1.514501 -0.000019 -0.000022 -0.000050
 28   2.932517 1.603245 -1.501142 -0.000002 -0.000009 -0.000024
 29   8.824059 0.150544 0.091743 0.000006 -0.000231 -0.174534
 30   2.111085 -0.561179 1.784320 -0.000008 -0.000682 0.000024
 31   2.121290 -0.561289 -1.853599 0.000000 0.000000 -0.000002
 32   -0.814395 -0.093824 3.127092 -0.015867 -3.141993 -0.283416
 33   14.298673 -0.408176 0.471578 -0.000088 -0.000041 -0.287848
 34   15.835795 0.581398 0.242756 -0.141932 0.005711 0.005464
 35   -0.815868 -0.091229 -3.114430 -0.027712 3.138252 0.096019
 36   14.294526 -0.410349 -0.467541 0.000093 0.000048 -0.093786
 37   15.834409 0.579420 -0.284600 0.263140 -0.000522 0.188954
 38   1.139685 -3.453749 -2.823813 0.000042 -0.000217 -0.013623
 39   -4.457742 -1.054854 -0.746180 0.000132 -0.000503 -0.030991
 40   1.118101 -3.449769 3.237290 0.000042 -0.000216 -0.013624
 41   -4.433840 -1.059130 0.959566 0.000131 -0.000503 -0.030991
 42   -0.649655 1.697302 -2.614393 0.002397 0.030605 -0.000335
 43   -0.664068 1.698578 2.810781 -0.003074 -0.038097 0.000836
time 26
  0   0.243428 0.398450 1.812926 0.000000 0.000000 -1.571354
  1   -1.093036 0.000002 -0.326057 -1.570756 -1.570425 -0.000026
  2   2.262337 0.113614 0.064702 -0.069357 -0.007178 -0.103522
  3   2.380047 0.353302 0.047440 0.000000 -0.000040 -0.008632
  4   2.033756 0.190472 -0.000128 -0.078280 0.003847 0.048800
  5   2.451511 0.204909 -0.003447 0.000000 -0.000005 -0.017472
  6   7.247600 -0.397300 -0.109469 0.000001 0.000009 0.052298
  7   -2.022252 -0.104661 3.136172 -0.413621 -1.353070 -2.789612
  8   1.168026 -0.537438 -0.063437 0.156854 1.201924 0.276638
  9   6.790376 -0.619176 0.015206 -0.000269 -0.000285 -0.451448
 10   8.637599 0.544015 -0.090417 -1.570112 0.000292 -0.069354
 11   6.790465 -0.619039 0.017802 -0.001860 -0.011140 -0.331198
 12   -2.022474 -0.104699 -2.873818 0.298873 1.361742 -2.901984
 13   1.167898 -0.537463 0.063297 -0.175178 -1.235812 0.022610
 14   7.002743 -0.617765 -0.183752 0.000229 0.000250 -1.472970
 15   8.209042 0.615527 -0.255885 1.682906 -0.000063 -0.069646
 16   7.002735 -0.617911 -0.183641 0.013732 0.008101 -1.049647
 17   1.574674 0.609930 -0.000899 0.163542 -0.016701 0.106772
 18   -0.602177 0.511412 -0.000006 0.000000 0.000000 0.000000
 19   3.646428 0.364526 1.119313 -0.000002 -0.000014 -0.174510
 20   3.646422 0.364499 -1.117566 0.000007 -0.000003 -0.174546
 21   3.805634 1.330634 1.627658 0.000002 -0.000011 -0.000026
 22   -0.246060 -0.011889 0.516521 -0.000011 0.000031 0.000025
 23   3.805651 1.330659 -1.631083 0.000019 0.000002 -0.000024
 24   -0.246150 -0.011872 -0.516511 -0.000005 -0.000006 0.000048
 25   4.941364 1.997338 1.629330 0.000018 -0.000001 -0.000024
 26   4.941382 1.997366 -1.629410 -0.000001 0.000005 -0.000024
 27   2.930087 1.603639 1.514501 -0.000019 -0.000022 -0.000050
 28   2.932517 1.603245 -1.501142 -0.000002 -0.000009 -0.000024
 29   8.824059 0.150544 0.091743 0.000006 -0.000231 -0.174534
 30   2.111085 -0.561179 1.784320 -0.000008 -0.000682 0.000024
 31   2.121290 -0.561289 -1.853599 0.000000 0.000000 -0.000002
 32   -0.814395 -0.093824 3.127092 -0.015867 -3.141993 -0.281252
 33   14.298673 -0.408176 0.471578 -0.000088 -0.000041 -0.282449
 34   15.835795 0.581398 0.242756 -0.141978 0.005735 0.002509
 35   -0.815868 -0.091229 -3.114430 -0.027712 3.138252 0.101880
 36   14.294526 -0.410349 -0.467541 0.000093 0.000048 -0.081427
 37   15.834409 0.579420 -0.284600 0.263180 -0.000471 0.182313
 38   1.139685 -3.453749 -2.823813 0.000021 -0.000145 -0.009224
 39   -4.457742 -1.054854 -0.746180 0.000084 -0.000336 -0.020951
 40   1.118101 -3.449769 3.237290 0.000021 -0.000144 -0.009225
 41   -4.433840 -1.059130 0.959566 0.000095 -0.000336 -0.020951
 42   -0.653562 1.697302 -2.637831 0.001618 0.020701 -0.000209
 43   -0.664068 1.698578 2.830313 -0.002074 -0.025779 0.000544
time 27
  0   0.243428 0.410169 1.816833 0.000000 0.000000 -1.571354
  1   -1.093036 0.000002 -0.326057 -1.570756 -1.570425 -0.000026
  2   2.262337 0.113614 0.064702 -0.069357 -0.007178 -0.103522
  3   2.380047 0.353302 0.047440 0.000000 -0.000040 -0.008632
  4   2.033756 0.190472 -0.000128 -0.078280 0.004171 0.052316
  5   2.451511 0.204909 -0.003447 0.000000 -0.000005 -0.017472
  6   7.247600 -0.397300 -0.109469 0.000001 0.000009 0.052298
  7   -2.022252 -0.104661 3.136172 -0.378441 -1.356126 -2.824080
  8   1.168026 -0.537438 -0.063437 0.139705 1.209270 0.276385
  9   6.790376 -0.619176 0.015206 -0.000269 -0.000285 -0.451448
 10   8.637599 0.544015 -0.090417 -1.570112 0.000292 -0.069354
 11   6.790465 -0.619039 0.017802 -0.001860 -0.011140 -0.331198
 12   -2.022474 -0.104699 -2.873818 0.298873 1.361742 -2.901984
 13   1.167898 -0.537463 0.063297 -0.166180 -1.238762 0.013166
 14   7.002743 -0.617765 -0.183752 0.000229 0.000250 -1.472970
 15   8.209042 0.615527 -0.255885 1.682906 -0.000063 -0.069646
 16   7.002735 -0.617911 -0.183641 0.013732 0.008101 -1.049647
 17   1.574674 0.609930 -0.000899 0.163542 -0.016701 0.103002
 18   -0.602177 0.511412 -0.000006 0.000000 0.000000 0.000000
 19   3.646428 0.364526 1.119313 -0.000002 -0.000014 -0.174510
 20   3.646422 0.364499 -1.117566 0.000007 -0.000003 -0.174546
 21   3.805634 1.330634 1.627658 0.000002 -0.000011 -0.000026
 22   -0.246060 -0.011889 0.516521 -0.000011 0.000031 0.000025
 23   3.805651 1.330659 -1.631083 0.000019 0.000002 -0.000024
 24   -0.246150 -0.011872 -0.516511 -0.000005 -0.000006 0.000048
 25   4.941364 1.997338 1.629330 0.000018 -0.000001 -0.000024
 26   4.941382 1.997366 -1.629410 -0.000001 0.000005 -0.000024
 27   2.930087 1.603639 1.514501 -0.000019 -0.000022 -0.000050
 28   2.932517 1.603245 -1.501142 -0.000002 -0.000009 -0.000024
 29   8.824059 0.150544 0.091743 0.000006 -0.000231 -0.174534
 30   2.111085 -0.561179 1.784320 -0.000008 -0.000682 0.000024
 31   2.121290 -0.561289 -1.853599 0.000000 0.000000 -0.000002
 32   -0.814395 -0.093824 3.127092 -0.015867 -3.142184 -0.278862
 33   14.298673 -0.408176 0.471578 -0.000088 -0.000041 -0.277367
 34   15.835795 0.581398 0.242756 -0.141978 0.005735 -0.000446
 35   -0.815868 -0.091229 -3.114430 -0.027712 3.137690 0.108180
 36   14.294526 -0.410349 -0.467541 0.000093 0.000048 -0.067909
 37   15.834409 0.579420 -0.284600 0.263180 -0.000394 0.175011
 38   1.139685 -3.453749 -2.823813 0.000021 -0.000084 -0.005436
 39   -4.457742 -1.054854 -0.746180 0.000048 -0.000204 -0.012425
 40   1.118101 -3.449769 3.237290 0.000021 -0.000083 -0.005437
 41   -4.433840 -1.059130 0.959566 0.000047 -0.000204 -0.012425
 42   -0.657468 1.697302 -2.661269 0.000959 0.012268 -0.000125
 43   -0.664068 1.698578 2.845939 -0.001224 -0.015281 0.000335
time 28
  0   0.243428 0.410169 1.832458 0.000000 0.000000 -1.571354
  1   -1.093036 0.000002 -0.326057 -1.570756 -1.570425 -0.000026
  2   2.262337 0.113614 0.064702 -0.069357 -0.007178 -0.103522
  3   2.380047 0.353302 0.047440 0.000000 -0.000040 -0.008632
  4   2.033756 0.190472 -0.000128 -0.078280 0.004327 0.056013
  5   2.451511 0.204909 -0.003447 0.000000 -0.000005 -0.017472
  6   7.247600 -0.397300 -0.109469 0.000001 0.000009 0.052298
  7   -2.022252 -0.104661 3.136172 -0.344699 -1.358691 -2.856951
  8   1.168026 -0.537438 -0.063437 0.123252 1.216163 0.275120
  9   6.790376 -0.619176 0.015206 -0.000269 -0.000285 -0.451448
 10   8.637599 0.544015 -0.090417 -1.570112 0.000292 -0.069354
 11   6.790465 -0.619039 0.017802 -0.001860 -0.011140 -0.331198
 12   -2.022474 -0.104699 -2.873818 0.298873 1.361742 -2.901984
 13   1.167898 -0.537463 0.063297 -0.157463 -1.241864 0.004207
 14   7.002743 -0.617765 -0.183752 0.000229 0.000250 -1.472970
 15   8.209042 0.615527 -0.255885 1.682906 -0.000063 -0.069646
 16   7.002735 -0.617911 -0.183641 0.013732 0.008101 -1.049647
 17   1.574674 0.609930 -0.000899 0.163542 -0.016701 0.099639
 18   -0.602177 0.511412 -0.000006 0.000000 0.000000 0.000000
 19   3.646428 0.364526 1.119313 -0.000002 -0.000014 -0.174510
 20   3.646422 0.364499 -1.117566 0.000007 -0.000003 -0.174546
 21   3.805634 1.330634 1.627658 0.000002 -0.000011 -0.000026
 22   -0.246060 -0.011889 0.516521 -0.000011 0.000031 0.000025
 23   3.805651 1.330659 -1.631083 0.000019 0.000002 -0.000024
 24   -0.246150 -0.011872 -0.516511 -0.000005 -0.000006 0.000048
 25   4.941364 1.997338 1.629330 0.000018 -0.000001 -0.000024
 26   4.941382 1.997366 -1.629410 -0.000001 0.000005 -0.000024
 27   2.930087 1.603639 1.514501 -0.000019 -0.000022 -0.000050
 28   2.932517 1.603245 -1.501142 -0.000002 -0.000009 -0.000024
 29   8.824059 0.150544 0.091743 0.000006 -0.000231 -0.174534
 30   2.111085 -0.561179 1.784320 -0.000008 -0.000682 0.000024
 31   2.121290 -0.561289 -1.853599 0.000000 0.000000 -0.000002
 32   -0.814395 -0.093824 3.127092 -0.015867 -3.142184 -0.276813
 33   14.298673 -0.408176 0.471578 -0.000088 -0.000041 -0.272683
 34   15.835795 0.581398 0.242756 -0.141978 0.005784 -0.003004
 35   -0.815868 -0.091229 -3.114430 -0.027712 3.137503 0.115301
 36   14.294526 -0.410349 -0.467541 0.000093 0.000048 -0.052460
 37   15.834409 0.579420 -0.284600 0.263180 -0.000394 0.167153
 38   1.139685 -3.453749 -2.823813 0.000000 -0.000036 -0.002504
 39   -4.457742 -1.054854 -0.746180 0.000024 -0.000084 -0.005806
 40   1.118101 -3.449769 3.237290 0.000000 -0.000035 -0.002505
 41   -4.433840 -1.059130 0.959566 0.000023 -0.000084 -0.005806
 42   -0.657468 1.697302 -2.676895 0.000443 0.005736 -0.000042
 43   -0.664068 1.698578 2.861564 -0.000575 -0.007138 0.000125
time 29
  0   0.243428 0.421888 1.840271 0.000000 0.000000 -1.571354
  1   -1.093036 0.000002 -0.326057 -1.570756 -1.570425 -0.000219
  2   2.262337 0.113614 0.064702 -0.069357 -0.007178 -0.103522
  3   2.380047 0.353302 0.047440 0.000000 -0.000040 -0.008632
  4   2.033756 0.190472 -0.000128 -0.078243 0.004650 0.058949
  5   2.451511 0.204909 -0.003447 0.000000 -0.000005 -0.017472
  6   7.247600 -0.397300 -0.109469 0.000001 0.000009 0.052298
  7   -2.022252 -0.104661 3.136172 -0.313833 -1.360853 -2.887473
  8   1.168026 -0.537438 -0.063437 0.108128 1.222251 0.273981
  9   6.790376 -0.619176 0.015206 -0.000269 -0.000285 -0.451448
 10   8.637599 0.544015 -0.090417 -1.570112 0.000292 -0.069354
 11   6.790465 -0.619039 0.017802 -0.001860 -0.011140 -0.331198
 12   -2.022474 -0.104699 -2.873818 0.298873 1.361742 -2.901984
 13   1.167898 -0.537463 0.063297 -0.149238 -1.244406 -0.004147
 14   7.002743 -0.617765 -0.183752 0.000229 0.000250 -1.472970
 15   8.209042 0.615527 -0.255885 1.682906 -0.000063 -0.069646
 16   7.002735 -0.617911 -0.183641 0.013732 0.008101 -1.049647
 17   1.574674 0.609930 -0.000899 0.163542 -0.016701 0.096534
 18   -0.602177 0.511412 -0.000006 0.000000 0.000000 0.000000
 19   3.646428 0.364526 1.119313 -0.000002 -0.000014 -0.174510
 20   3.646422 0.364499 -1.117566 0.000007 -0.000003 -0.174546
 21   3.805634 1.330634 1.627658 0.000002 -0.000011 -0.000026
 22   -0.246060 -0.011889 0.516521 -0.000011 0.000031 0.000025
 23   3.805651 1.330659 -1.631083 0.000019 0.000002 -0.000024
 24   -0.246150 -0.011872 -0.516511 -0.000005 -0.000006 0.000048
 25   4.941364 1.997338 1.629330 0.000018 -0.000001 -0.000024
 26   4.941382 1.997366 -1.629410 -0.000001 0.000005 -0.000024
 27   2.930087 1.603639 1.514501 -0.000019 -0.000022 -0.000050
 28   2.932517 1.603245 -1.501142 -0.000002 -0.000009 -0.000024
 29   8.824059 0.150544 0.091743 0.000006 -0.000231 -0.174534
 30   2.111085 -0.561179 1.784320 -0.000008 -0.000682 0.000024
 31   2.121290 -0.561289 -1.853599 0.000000 0.000000 -0.000002
 32   -0.814395 -0.093824 3.127092 -0.015867 -3.142184 -0.274934
 33   14.298673 -0.408176 0.471578 -0.000088 -0.000041 -0.268316
 34   15.835795 0.581398 0.242756 -0.141978 0.005857 -0.005518
 35   -0.815868 -0.091229 -3.114430 -0.027712 3.137503 0.123901
 36   14.294526 -0.410349 -0.467541 0.000093 0.000048 -0.034694
 37   15.834409 0.579420 -0.284600 0.263180 -0.000343 0.157671
 38   1.139685 -3.453749 -2.823813 0.000000 0.000000 -0.000671
 39   -4.457742 -1.054854 -0.746180 0.000000 -0.000024 -0.001515
 40   1.118101 -3.449769 3.237290 0.000000 0.000001 -0.000611
 41   -4.433840 -1.059130 0.959566 -0.000001 -0.000024 -0.001515
 42   -0.657468 1.697302 -2.688614 0.000108 0.001505 0.000000
 43   -0.664068 1.698578 2.869377 -0.000150 -0.001865 0.000042
time 30
  0   0.243428 0.429701 1.851990 0.000000 0.000000 -1.571354
  1   -1.093036 0.000002 -0.326057 -1.570756 -1.570425 -0.000026
  2   2.262337 0.113614 0.064702 -0.069357 -0.007178 -0.103522
  3   2.380047 0.353302 0.047440 0.000000 -0.000040 -0.008632
  4   2.033756 0.190472 -0.000128 -0.078243 0.004794 0.060544
  5   2.451511 0.204909 -0.003447 0.000000 -0.000005 -0.017472
  6   7.247600 -0.397300 -0.109469 0.000001 0.000009 0.052298
  7   -2.022252 -0.104661 3.136172 -0.299166 -1.361862 -2.901655
  8   1.168026 -0.537438 -0.063437 0.100471 1.225270 0.272969
  9   6.790376 -0.619176 0.015206 -0.000269 -0.000285 -0.451448
 10   8.637599 0.544015 -0.090417 -1.570112 0.000292 -0.069354
 11   6.790465 -0.619039 0.017802 -0.001860 -0.011140 -0.331198
 12   -2.022474 -0.104699 -2.873818 0.298873 1.361742 -2.901984
 13   1.167898 -0.537463 0.063297 -0.133211 -1.247203 -0.012743
 14   7.002743 -0.617765 -0.183752 0.000229 0.000250 -1.472970
 15   8.209042 0.615527 -0.255885 1.682906 -0.000063 -0.069646
 16   7.002735 -0.617911 -0.183641 0.013732 0.008101 -1.049647
 17   1.574674 0.609930 -0.000899 0.163542 -0.016701 0.094982
 18   -0.602177 0.511412 -0.000006 0.000000 0.000000 0.000000
 19   3.646428 0.364526 1.119313 -0.000002 -0.000014 -0.174510
 20   3.646422 0.364499 -1.117566 0.000007 -0.000003 -0.174546
 21   3.805634 1.330634 1.627658 0.000002 -0.000011 -0.000026
 22   -0.246060 -0.011889 0.516521 -0.000011 0.000031 0.000025
 23   3.805651 1.330659 -1.631083 0.000019 0.000002 -0.000024
 24   -0.246150 -0.011872 -0.516511 -0.000005 -0.000006 0.000048
 25   4.941364 1.997338 1.629330 0.000018 -0.000001 -0.000024
 26   4.941382 1.997366 -1.629410 -0.000001 0.000005 -0.000024
 27   2.930087 1.603639 1.514501 -0.000019 -0.000022 -0.000050
 28   2.932517 1.603245 -1.501142 -0.000002 -0.000009 -0.000024
 29   8.824059 0.150544 0.091743 0.000006 -0.000231 -0.174534
 30   2.111085 -0.561179 1.784320 -0.000008 -0.000682 0.000024
 31   2.121290 -0.561289 -1.853599 0.000000 0.000000 -0.000002
 32   -0.814395 -0.093824 3.127092 -0.015867 -3.142184 -0.273682
 33   14.298673 -0.408176 0.471578 -0.000088 -0.000041 -0.265537
 34   15.835795 0.581398 0.242756 -0.141978 0.005906 -0.007017
 35   -0.815868 -0.091229 -3.114430 -0.027536 3.136847 0.139513
 36   14.294526 -0.410349 -0.467541 0.000093 0.000048 -0.002252
 37   15.834409 0.579420 -0.284600 0.263180 -0.000343 0.141143
 38   1.139685 -3.453749 -2.823813 0.000000 0.000000 0.000001
 39   -4.457742 -1.054854 -0.746180 0.000000 0.000000 0.000000
 40   1.118101 -3.449769 3.237290 0.000000 0.000001 0.000000
 41   -4.433840 -1.059130 0.959566 -0.000001 0.000000 0.000000
 42   -0.657468 1.697302 -2.688614 0.000000 0.000002 0.000000
 43   -0.664068 1.698578 2.869377 0.000000 0.000002 0.000000
end
