version 1
nodes
  0 "Bip01" -1
  1 "Bip01 Pelvis" 0
  2 "Bip01 Spine" 1
  3 "Bip01 Spine1" 2
  4 "Bip01 Spine2" 3
  5 "Bip01 Spine3" 4
  6 "Bip01 Neck" 5
  7 "Bip01 L Arm" 6
  8 "Bip01 L Arm1" 7
  9 "Bip01 L Arm2" 8
 10 "Bip01 L Hand" 9
 11 "Bip06 L elbow2-smooth" 8
 12 "Bip01 R Arm" 6
 13 "Bip01 R Arm1" 12
 14 "Bip01 R Arm2" 13
 15 "Bip01 R Hand" 14
 16 "Bip06 R elbow2-smooth" 13
 17 "Bip01 Head" 6
 18 "Bip06 Head_helper" 17
 19 "Bip06 Head_eyes_l" 18
 20 "Bip06 Head_eyes_r" 18
 21 "Bip06 Head_blink_l" 18
 22 "Bip06 Head_blink_smooth_l1" 21
 23 "Bip06 Head_blink_r" 18
 24 "Bip06 Head_blink_smooth_r1" 23
 25 "Bip06 Head_L_eyebrow" 18
 26 "Bip06 Head_R_eyebrow" 18
 27 "Bip06 Head_blink_l_lid" 18
 28 "Bip06 Head_blink_r_lid" 18
 29 "Bip06 bunny" 18
 30 "Bip06 bunnyL" 29
 31 "Bip06 bunnyR" 29
 32 "Bip01 L Leg" 1
 33 "Bip01 L Leg1" 32
 34 "Bip01 L Foot" 33
 35 "Bip01 R Leg" 1
 36 "Bip01 R Leg1" 35
 37 "Bip01 R Foot" 36
 38 "Bip03 HairR1" 17
 39 "Bip03 HairR2" 38
 40 "Bip03 HairL1" 17
 41 "Bip03 HairL2" 40
 42 "Bip03 swingR" 17
 43 "Bip03 swingL" 17
end
skeleton
time 0
  0   0.020765 -0.546892 15.239118 0.000000 0.000000 -1.571069
  1   -1.093036 0.000002 -0.326057 -1.570651 -1.570379 -0.000171
  2   2.262337 0.113614 0.064702 -0.000014 0.000025 -0.086445
  3   2.380047 0.353302 0.047440 0.000000 -0.000016 0.008815
  4   2.033756 0.190472 -0.000128 -0.000010 0.000012 -0.139576
  5   2.451511 0.204909 -0.003447 0.000000 -0.000005 -0.017472
  6   7.247600 -0.397300 -0.109469 0.000001 -0.000003 0.418536
  7   -2.022252 -0.104661 3.136172 -0.298783 -1.361718 -2.901842
  8   1.168026 -0.537438 -0.063437 -0.449437 1.253295 -0.412774
  9   6.790376 -0.619176 0.015206 -0.009312 -0.035190 -0.050640
 10   8.637599 0.544015 -0.090417 -1.570112 0.000221 -0.122021
 11   6.790465 -0.619039 0.017802 -0.009597 -0.035216 -0.050552
 12   -2.022474 -0.104699 -2.873818 0.298969 1.362003 -2.901601
 13   1.167898 -0.537463 0.063297 0.452216 -1.252696 -0.417902
 14   7.002743 -0.617765 -0.183752 0.047085 0.002238 -0.046039
 15   8.209042 0.615527 -0.255885 1.570018 -0.000214 -0.121965
 16   7.002735 -0.617911 -0.183641 0.047532 0.002180 -0.050933
 17   1.574674 0.609930 -0.000899 0.000000 0.000008 -0.218706
 18   -0.602177 0.511412 -0.000006 0.000000 0.000000 0.000000
 19   3.677679 0.177020 1.119313 -0.000002 -0.000014 -0.174510
 20   3.673767 0.176993 -1.117566 0.000007 -0.000003 -0.174546
 21   3.938451 1.334540 1.627658 0.000002 -0.000011 -0.000026
 22   -0.246060 -0.011889 0.516521 -0.000011 0.000031 0.000025
 23   3.938468 1.334565 -1.631083 0.000019 0.000002 -0.000024
 24   -0.246150 -0.011872 -0.516511 -0.000005 -0.000006 0.000048
 25   4.941364 1.997338 1.629330 0.000018 -0.000001 -0.000024
 26   4.941382 1.997366 -1.629410 -0.000001 0.000005 -0.000024
 27   2.914462 1.619264 1.514501 -0.000019 -0.000022 -0.000050
 28   2.916892 1.618870 -1.501142 -0.000002 -0.000009 -0.000024
 29   8.824059 0.150544 0.091743 0.000006 -0.000231 -0.174534
 30   2.111085 -0.561179 1.784320 -0.000008 -0.000682 0.000024
 31   2.121290 -0.561289 -1.853599 0.000000 0.000000 -0.000002
 32   -0.814395 -0.093824 3.127092 0.031203 -3.131105 0.064436
 33   14.298673 -0.408176 0.471578 -0.000052 -0.000209 0.033794
 34   15.835795 0.581398 0.242756 -0.003065 -0.010786 -0.001460
 35   -0.815868 -0.091229 -3.114430 -0.032377 3.148371 0.064412
 36   14.294526 -0.410349 -0.467541 0.000045 0.000287 0.033744
 37   15.834409 0.579420 -0.284600 0.003089 0.010919 0.015959
 38   1.139685 -3.453749 -2.823813 0.000000 0.000000 0.000001
 39   -4.457742 -1.054854 -0.746180 0.000000 0.000000 0.000000
 40   1.118101 -3.449769 3.237290 0.000000 0.000001 0.000000
 41   -4.433840 -1.059130 0.959566 -0.000001 0.000000 0.000000
 42   -0.657468 1.697302 -2.688614 0.000000 0.000002 0.000000
 43   -0.664068 1.698578 2.869377 0.000000 0.000002 0.000000
time 1
  0   0.020765 -0.546892 15.239118 0.126483 0.000000 -1.571069
  1   -1.093036 0.000002 -0.326057 -1.570389 -1.570379 -0.000413
  2   2.262337 0.113614 0.064702 -0.000014 0.000025 -0.086445
  3   2.380047 0.353302 0.047440 0.030377 0.002848 0.078459
  4   2.033756 0.190472 -0.000128 0.046908 0.010379 -0.087272
  5   2.451511 0.204909 -0.003447 0.000000 -0.000005 -0.017472
  6   7.247600 -0.397300 -0.109469 0.000001 -0.000003 0.418536
  7   -2.022252 -0.104661 3.136172 -0.298783 -1.361718 -2.901842
  8   1.168026 -0.537438 -0.063437 -0.314269 1.168767 -0.178331
  9   6.790376 -0.619176 0.015206 -0.009312 -0.035190 -0.220517
 10   8.637599 0.544015 -0.090417 -1.570112 0.000221 -0.122021
 11   6.790465 -0.619039 0.017802 -0.009626 -0.035216 -0.169535
 12   -2.022474 -0.104699 -2.873818 0.298969 1.362003 -2.901601
 13   1.167898 -0.537463 0.063297 0.372360 -1.183686 -0.342839
 14   7.002743 -0.617765 -0.183752 0.047085 0.002238 -0.207007
 15   8.209042 0.615527 -0.255885 1.570018 -0.000214 -0.121965
 16   7.002735 -0.617911 -0.183641 0.047532 0.002180 -0.163471
 17   1.574674 0.609930 -0.000899 0.075840 0.018681 -0.156760
 18   -0.602177 0.511412 -0.000006 0.000000 0.000000 0.000000
 19   3.677679 0.177020 1.119313 -0.000002 -0.000014 -0.174510
 20   3.677673 0.176993 -1.117566 0.000007 -0.000003 -0.174546
 21   3.938451 1.334540 1.627658 0.000002 -0.000011 -0.000026
 22   -0.246060 -0.011889 0.516521 -0.000011 0.000031 0.000025
 23   3.942374 1.334565 -1.631083 0.000019 0.000002 -0.000024
 24   -0.246150 -0.011872 -0.516511 -0.000005 -0.000006 0.000048
 25   4.941364 1.997338 1.629330 0.000018 -0.000001 -0.000024
 26   4.941382 1.997366 -1.629410 -0.000001 0.000005 -0.000024
 27   2.914462 1.619264 1.514501 -0.000019 -0.000022 -0.000050
 28   2.916892 1.618870 -1.501142 -0.000002 -0.000009 -0.000024
 29   8.824059 0.150544 0.091743 -0.004628 0.000837 -0.147013
 30   2.111085 -0.561179 1.784320 -0.000008 -0.000682 0.000024
 31   2.121290 -0.561289 -1.853599 0.000000 0.000000 -0.000002
 32   -0.814395 -0.093824 3.127092 0.039685 -3.065778 0.194218
 33   14.298673 -0.408176 0.471578 0.164880 -0.003453 -0.587020
 34   15.835795 0.581398 0.242756 -0.003065 -0.010786 -0.001460
 35   -0.815868 -0.091229 -3.114430 -0.148116 3.080915 0.108289
 36   14.294526 -0.410349 -0.467541 0.010471 -0.060127 -0.048984
 37   15.834409 0.579420 -0.284600 0.003089 0.010919 0.089883
 38   1.151404 -3.449842 -2.823813 -0.004336 0.000518 0.084067
 39   -4.469461 -1.039229 -0.746180 0.005825 -0.001055 0.031917
 40   1.106382 -3.453675 3.237290 -0.004336 0.000519 0.084066
 41   -4.422121 -1.074755 0.959566 0.005824 -0.001055 0.031917
 42   -0.587153 1.744178 -2.684708 0.000635 0.001689 -0.030070
 43   -0.589847 1.737642 2.873283 0.000637 0.001697 -0.030070
time 2
  0   0.020765 -0.546892 15.239118 0.253048 0.000000 -1.571069
  1   -1.093036 0.000002 -0.326057 -1.572328 -1.570379 0.001039
  2   2.262337 0.113614 0.064702 -0.000014 0.000025 -0.086445
  3   2.380047 0.353302 0.047440 0.061009 0.003651 0.148287
  4   2.033756 0.190472 -0.000128 0.094324 0.018253 -0.034279
  5   2.451511 0.204909 -0.003447 0.000000 -0.000005 -0.017472
  6   7.247600 -0.397300 -0.109469 0.000001 -0.000003 0.418536
  7   -2.022252 -0.104661 3.136172 -0.298783 -1.361747 -2.901842
  8   1.168026 -0.537438 -0.063437 -0.245800 1.076742 -0.008919
  9   6.790376 -0.619176 0.015206 -0.009312 -0.035190 -0.390696
 10   8.637599 0.544015 -0.090417 -1.570112 0.000221 -0.122021
 11   6.790465 -0.619039 0.017802 -0.009626 -0.035244 -0.288634
 12   -2.022474 -0.104699 -2.873818 0.298969 1.362003 -2.901601
 13   1.167898 -0.537463 0.063297 0.315842 -1.113303 -0.291324
 14   7.002743 -0.617765 -0.183752 0.047085 0.002238 -0.368305
 15   8.209042 0.615527 -0.255885 1.570018 -0.000214 -0.121965
 16   7.002735 -0.617911 -0.183641 0.047532 0.002236 -0.276506
 17   1.574674 0.609930 -0.000899 0.152818 0.032739 -0.093593
 18   -0.602177 0.511412 -0.000006 0.000000 0.000000 0.000000
 19   3.673773 0.177020 1.119313 -0.000002 -0.000014 -0.174510
 20   3.673767 0.176993 -1.117566 0.000007 -0.000003 -0.174546
 21   3.938451 1.334540 1.627658 0.000002 -0.000011 -0.000026
 22   -0.246060 -0.011889 0.516521 -0.000011 0.000031 0.000025
 23   3.938468 1.334565 -1.631083 0.000019 0.000002 -0.000024
 24   -0.246150 -0.011872 -0.516511 -0.000005 -0.000006 0.000048
 25   4.941364 1.997338 1.629330 0.000018 -0.000001 -0.000024
 26   4.941382 1.997366 -1.629410 -0.000001 0.000005 -0.000024
 27   2.914462 1.619264 1.514501 -0.000019 -0.000022 -0.000050
 28   2.916892 1.618870 -1.501142 -0.000002 -0.000009 -0.000024
 29   8.824059 0.150544 0.091743 -0.017106 0.003662 -0.074319
 30   2.111085 -0.561179 1.784320 -0.000008 -0.000682 0.000024
 31   2.121290 -0.561289 -1.853599 0.000000 0.000000 -0.000002
 32   -0.814395 -0.093824 3.127092 0.039965 -2.999783 0.324342
 33   14.298673 -0.408176 0.471578 0.301289 0.089580 -1.202196
 34   15.835795 0.581398 0.242756 -0.003065 -0.010786 -0.001460
 35   -0.815868 -0.091229 -3.114430 -0.261654 3.008212 0.144333
 36   14.294526 -0.410349 -0.467541 0.026087 -0.119463 -0.132331
 37   15.834409 0.579420 -0.284600 0.003129 0.010919 0.163908
 38   1.182655 -3.442030 -2.823813 -0.015808 0.001904 0.305657
 39   -4.500712 -0.984539 -0.742274 0.021189 -0.003859 0.116113
 40   1.075131 -3.461488 3.237290 -0.015808 0.001905 0.305656
 41   -4.390870 -1.129445 0.955660 0.021188 -0.003859 0.116113
 42   -0.403554 1.869182 -2.672988 0.002337 0.006166 -0.109449
 43   -0.390622 1.839207 2.885002 0.002336 0.006169 -0.109449
time 3
  0   0.020765 -0.546892 15.239118 0.379366 0.000000 -1.571069
  1   -1.093036 0.000002 -0.326057 -1.570966 -1.570379 0.000216
  2   2.262337 0.113614 0.064702 -0.000014 0.000025 -0.086445
  3   2.380047 0.353302 0.047440 0.091611 0.002381 0.218135
  4   2.033756 0.190472 -0.000128 0.142108 0.023682 0.018823
  5   2.451511 0.204909 -0.003447 0.000000 -0.000005 -0.017472
  6   7.247600 -0.397300 -0.109469 0.000001 -0.000003 0.418536
  7   -2.022252 -0.104661 3.136172 -0.298783 -1.361718 -2.901842
  8   1.168026 -0.537438 -0.063437 -0.215805 0.981296 0.124497
  9   6.790376 -0.619176 0.015206 -0.009312 -0.035190 -0.560951
 10   8.637599 0.544015 -0.090417 -1.570112 0.000221 -0.122021
 11   6.790465 -0.619039 0.017802 -0.009626 -0.035301 -0.407848
 12   -2.022474 -0.104699 -2.873818 0.298969 1.362003 -2.901601
 13   1.167898 -0.537463 0.063297 0.273664 -1.041904 -0.254095
 14   7.002743 -0.617765 -0.183752 0.047085 0.002238 -0.529768
 15   8.209042 0.615527 -0.255885 1.570018 -0.000214 -0.121965
 16   7.002735 -0.617911 -0.183641 0.047532 0.002293 -0.389486
 17   1.574674 0.609930 -0.000899 0.230648 0.041827 -0.029503
 18   -0.602177 0.511412 -0.000006 0.000000 0.000000 0.000000
 19   3.673773 0.177020 1.119313 -0.000002 -0.000014 -0.174510
 20   3.673767 0.176993 -1.117566 0.000007 -0.000003 -0.174546
 21   3.938451 1.334540 1.627658 0.000002 -0.000011 -0.000026
 22   -0.246060 -0.011889 0.516521 -0.000011 0.000031 0.000025
 23   3.938468 1.334565 -1.631083 0.000019 0.000002 -0.000024
 24   -0.246150 -0.011872 -0.516511 -0.000005 -0.000006 0.000048
 25   4.941364 1.997338 1.629330 0.000018 -0.000001 -0.000024
 26   4.941382 1.997366 -1.629410 -0.000001 0.000005 -0.000024
 27   2.914462 1.619264 1.514501 -0.000019 -0.000022 -0.000050
 28   2.916892 1.618870 -1.501142 -0.000002 -0.000009 -0.000024
 29   8.824059 0.150544 0.091743 -0.034663 0.007650 0.028363
 30   2.111085 -0.561179 1.784320 -0.000008 -0.000682 0.000024
 31   2.121290 -0.561289 -1.853599 0.000000 0.000000 -0.000002
 32   -0.814395 -0.093824 3.127092 0.031296 -2.934169 0.455946
 33   14.298673 -0.408176 0.471578 0.360037 0.244058 -1.813403
 34   15.835795 0.581398 0.242756 -0.003065 -0.010786 -0.001460
 35   -0.815868 -0.091229 -3.114430 -0.374049 2.932137 0.172489
 36   14.294526 -0.410349 -0.467541 0.046832 -0.177300 -0.217917
 37   15.834409 0.579420 -0.284600 0.003129 0.010919 0.238287
 38   1.229532 -3.426404 -2.819907 -0.032016 0.003856 0.619010
 39   -4.547589 -0.914225 -0.738367 0.042917 -0.007826 0.235171
 40   1.028255 -3.477114 3.233384 -0.032016 0.003857 0.619010
 41   -4.343993 -1.199759 0.951753 0.042916 -0.007826 0.235171
 42   -0.141827 2.048875 -2.653457 0.004722 0.012483 -0.221659
 43   -0.109364 1.987649 2.904534 0.004723 0.012477 -0.221659
time 4
  0   0.020765 -0.546892 15.239118 0.506096 0.000000 -1.571069
  1   -1.093036 0.000002 -0.326057 -1.570284 -1.570379 0.000748
  2   2.262337 0.113614 0.064702 -0.000014 0.000025 -0.086445
  3   2.380047 0.353302 0.047440 0.122048 -0.001047 0.287861
  4   2.033756 0.190472 -0.000128 0.190114 0.026522 0.072288
  5   2.451511 0.204909 -0.003447 0.000000 -0.000005 -0.017472
  6   7.247600 -0.397300 -0.109469 0.000001 -0.000003 0.418536
  7   -2.022252 -0.104661 3.136172 -0.298783 -1.361718 -2.901842
  8   1.168026 -0.537438 -0.063437 -0.209667 0.884743 0.237227
  9   6.790376 -0.619176 0.015206 -0.009312 -0.035190 -0.731130
 10   8.637599 0.544015 -0.090417 -1.570112 0.000221 -0.122021
 11   6.790465 -0.619039 0.017802 -0.009626 -0.035301 -0.526831
 12   -2.022474 -0.104699 -2.873818 0.298969 1.362003 -2.901601
 13   1.167898 -0.537463 0.063297 0.240625 -0.969792 -0.226249
 14   7.002743 -0.617765 -0.183752 0.047085 0.002238 -0.691396
 15   8.209042 0.615527 -0.255885 1.570018 -0.000214 -0.121965
 16   7.002735 -0.617911 -0.183641 0.047532 0.002293 -0.502521
 17   1.574674 0.609930 -0.000899 0.308844 0.045945 0.035068
 18   -0.602177 0.511412 -0.000006 0.000000 0.000000 0.000000
 19   3.673773 0.177020 1.119313 -0.000002 -0.000014 -0.174510
 20   3.673767 0.176993 -1.117566 0.000007 -0.000003 -0.174546
 21   3.942357 1.334540 1.627658 0.000002 -0.000011 -0.000026
 22   -0.246060 -0.011889 0.516521 -0.000011 0.000031 0.000025
 23   3.942374 1.334565 -1.631083 0.000019 0.000002 -0.000024
 24   -0.246150 -0.011872 -0.516511 -0.000005 -0.000006 0.000048
 25   4.941364 1.997338 1.629330 0.000018 -0.000001 -0.000024
 26   4.941382 1.997366 -1.629410 -0.000001 0.000005 -0.000024
 27   2.914462 1.619264 1.514501 -0.000019 -0.000022 -0.000050
 28   2.916892 1.618870 -1.501142 -0.000002 -0.000009 -0.000024
 29   8.824059 0.150544 0.091743 -0.054805 0.012231 0.146121
 30   2.111085 -0.561179 1.784320 -0.000008 -0.000682 0.000024
 31   2.121290 -0.561289 -1.853599 0.000000 0.000000 -0.000002
 32   -0.814395 -0.093824 3.127092 0.014332 -2.870370 0.590396
 33   14.298673 -0.408176 0.471578 0.314663 0.403356 -2.448985
 34   15.835795 0.581398 0.242756 -0.003065 -0.010786 -0.001460
 35   -0.815868 -0.091229 -3.114430 -0.486267 2.853438 0.191880
 36   14.294526 -0.410349 -0.467541 0.072803 -0.233112 -0.305666
 37   15.834409 0.579420 -0.284600 0.003149 0.010919 0.312312
 38   1.280314 -3.406873 -2.816000 -0.050581 0.006098 0.978185
 39   -4.598372 -0.832191 -0.730555 0.067821 -0.012380 0.371617
 40   0.977472 -3.496645 3.229477 -0.050581 0.006099 0.978184
 41   -4.293211 -1.281793 0.943941 0.067820 -0.012380 0.371617
 42   0.162870 2.255913 -2.630018 0.007466 0.019735 -0.350304
 43   0.210959 2.155623 2.924066 0.007471 0.019726 -0.350304
time 5
  0   0.020765 -0.546892 15.239118 1.055784 0.000000 -1.571069
  1   -1.093036 0.000002 -0.326057 -1.569498 -1.570379 -0.000703
  2   2.262337 0.113614 0.064702 -0.003364 0.039082 -0.086482
  3   2.380047 0.353302 0.047440 0.096201 0.041475 0.220135
  4   2.033756 0.190472 -0.000128 0.139729 0.067246 0.022049
  5   2.451511 0.204909 -0.003447 0.000000 -0.000005 -0.017472
  6   7.247600 -0.397300 -0.109469 0.000001 -0.000003 0.418536
  7   -2.022252 -0.104661 3.136172 -0.298783 -1.361718 -2.901842
  8   1.168026 -0.537438 -0.063437 -1.021492 0.652140 -0.632920
  9   6.790376 -0.619176 0.015206 -0.009312 -0.035190 -0.683133
 10   8.637599 0.544015 -0.090417 -1.570024 0.000221 -0.122021
 11   6.790465 -0.619039 0.017802 -0.009626 -0.035301 -0.493322
 12   -2.022474 -0.104699 -2.873818 0.298969 1.362003 -2.901601
 13   1.167898 -0.537463 0.063297 0.938737 -0.597282 -0.978212
 14   7.002743 -0.617765 -0.183752 0.047085 0.002238 -0.634550
 15   8.209042 0.615527 -0.255885 1.570018 -0.000214 -0.121965
 16   7.002735 -0.617911 -0.183641 0.047532 0.002293 -0.462782
 17   1.574674 0.609930 -0.000899 0.229876 0.051128 -0.107860
 18   -0.602177 0.511412 -0.000006 0.000000 0.000000 0.000000
 19   3.677679 0.177020 1.119313 -0.000002 -0.000014 -0.174510
 20   3.673767 0.176993 -1.117566 0.000007 -0.000003 -0.174546
 21   3.938451 1.334540 1.627658 0.000002 -0.000011 -0.000026
 22   -0.246060 -0.011889 0.516521 -0.000011 0.000031 0.000025
 23   3.938468 1.334565 -1.631083 0.000019 0.000002 -0.000024
 24   -0.246150 -0.011872 -0.516511 -0.000005 -0.000006 0.000048
 25   4.941364 1.997338 1.629330 0.000018 -0.000001 -0.000024
 26   4.941382 1.997366 -1.629410 -0.000001 0.000005 -0.000024
 27   2.914462 1.619264 1.514501 -0.000019 -0.000022 -0.000050
 28   2.916892 1.618870 -1.501142 -0.000002 -0.000009 -0.000024
 29   8.824059 0.150544 0.091743 -0.074858 0.016813 0.263878
 30   2.111085 -0.561179 1.784320 -0.000008 -0.000682 0.000024
 31   2.121290 -0.561289 -1.853599 0.000000 0.000000 -0.000002
 32   -0.814395 -0.093824 3.127092 0.002215 -2.827678 0.463403
 33   14.298673 -0.408176 0.471578 0.360037 0.244058 -1.813403
 34   15.835795 0.581398 0.242756 -0.003065 -0.010786 -0.001460
 35   -0.815868 -0.091229 -3.114430 -0.333386 3.109021 -0.042404
 36   14.294526 -0.410349 -0.467541 0.115264 -0.168839 -0.900060
 37   15.834409 0.579420 -0.284600 0.003129 0.010919 0.238287
 38   1.331097 -3.391247 -2.816000 -0.069167 0.008339 1.337420
 39   -4.649154 -0.750157 -0.722742 0.092725 -0.016922 0.508064
 40   0.926689 -3.512271 3.229477 -0.069167 0.008340 1.337420
 41   -4.242428 -1.363827 0.936128 0.092724 -0.016922 0.508064
 42   0.463660 2.462950 -2.610487 0.010223 0.026972 -0.478908
 43   0.535187 2.323597 2.943598 0.010220 0.026976 -0.478908
time 6
  0   0.020765 -0.546892 15.239118 1.605389 0.000000 -1.571069
  1   -1.093036 0.000002 -0.326057 -1.570808 -1.570379 -0.000171
  2   2.262337 0.113614 0.064702 -0.006752 0.078152 -0.086698
  3   2.380047 0.353302 0.047440 0.067475 0.082126 0.151164
  4   2.033756 0.190472 -0.000128 0.087113 0.105357 -0.030436
  5   2.451511 0.204909 -0.003447 0.000000 -0.000005 -0.017472
  6   7.247600 -0.397300 -0.109469 0.000001 -0.000003 0.418536
  7   -2.022252 -0.104661 3.136172 -0.298783 -1.361718 -2.901842
  8   1.168026 -0.537438 -0.063437 -1.373268 0.125852 -1.058663
  9   6.790376 -0.619176 0.015206 -0.009312 -0.035190 -0.635060
 10   8.637599 0.544015 -0.090417 -1.570112 0.000221 -0.122021
 11   6.790465 -0.619039 0.017802 -0.009626 -0.035301 -0.459697
 12   -2.022474 -0.104699 -2.873818 0.298969 1.362003 -2.901601
 13   1.167898 -0.537463 0.063297 1.189976 -0.038747 -1.300741
 14   7.002743 -0.617765 -0.183752 0.047085 0.002238 -0.577951
 15   8.209042 0.615527 -0.255885 1.570018 -0.000214 -0.121965
 16   7.002735 -0.617911 -0.183641 0.047532 0.002293 -0.423153
 17   1.574674 0.609930 -0.000899 0.150990 0.045070 -0.250752
 18   -0.602177 0.511412 -0.000006 0.000000 0.000000 0.000000
 19   3.673773 0.177020 1.119313 -0.000002 -0.000014 -0.174510
 20   3.673767 0.176993 -1.117566 0.000007 -0.000003 -0.174546
 21   3.938451 1.334540 1.627658 0.000002 -0.000011 -0.000026
 22   -0.246060 -0.011889 0.516521 -0.000011 0.000031 0.000025
 23   3.938468 1.334565 -1.631083 0.000019 0.000002 -0.000024
 24   -0.246150 -0.011872 -0.516511 -0.000005 -0.000006 0.000048
 25   4.941364 1.997338 1.629330 0.000018 -0.000001 -0.000024
 26   4.941382 1.997366 -1.629410 -0.000001 0.000005 -0.000024
 27   2.914462 1.619264 1.514501 -0.000019 -0.000022 -0.000050
 28   2.916892 1.618870 -1.501142 -0.000002 -0.000009 -0.000024
 29   8.824059 0.150544 0.091743 -0.092415 0.020825 0.366614
 30   2.111085 -0.561179 1.784320 -0.000008 -0.000682 0.000024
 31   2.121290 -0.561289 -1.853599 0.000000 0.000000 -0.000002
 32   -0.814395 -0.093824 3.127092 -0.004309 -2.784127 0.334986
 33   14.298673 -0.408176 0.471578 0.301289 0.089580 -1.202196
 34   15.835795 0.581398 0.242756 -0.003065 -0.010786 -0.001460
 35   -0.815868 -0.091229 -3.114430 -0.122767 3.317854 -0.316621
 36   14.294526 -0.410349 -0.467541 0.114054 -0.092270 -1.485570
 37   15.834409 0.579420 -0.284600 0.003129 0.010919 0.163908
 38   1.377974 -3.375622 -2.812094 -0.085375 0.010291 1.650774
 39   -4.696031 -0.675936 -0.718835 0.114453 -0.020889 0.627122
 40   0.879812 -3.527896 3.225571 -0.085375 0.010292 1.650774
 41   -4.195551 -1.438048 0.932221 0.114452 -0.020889 0.627122
 42   0.725387 2.638737 -2.590955 0.012620 0.033288 -0.591118
 43   0.816446 2.472039 2.963130 0.012619 0.033299 -0.591118
time 7
  0   0.020765 -0.546892 15.239118 2.155242 0.000000 -1.571069
  1   -1.093036 0.000002 -0.326057 -1.572433 -1.570379 -0.000026
  2   2.262337 0.113614 0.064702 -0.010204 0.117306 -0.087006
  3   2.380047 0.353302 0.047440 0.035792 0.120777 0.080785
  4   2.033756 0.190472 -0.000128 0.032357 0.140555 -0.085061
  5   2.451511 0.204909 -0.003447 0.000000 -0.000005 -0.017472
  6   7.247600 -0.397300 -0.109469 0.000001 -0.000003 0.418536
  7   -2.022252 -0.104661 3.136172 -0.298783 -1.361718 -2.901842
  8   1.168026 -0.537438 -0.063437 -1.507486 -0.476158 -1.320498
  9   6.790376 -0.619176 0.015206 -0.009312 -0.035190 -0.587063
 10   8.637599 0.544015 -0.090417 -1.570112 0.000221 -0.122021
 11   6.790465 -0.619039 0.017802 -0.009626 -0.035301 -0.426131
 12   -2.022474 -0.104699 -2.873818 0.298969 1.362003 -2.901601
 13   1.167898 -0.537463 0.063297 1.276440 0.561388 -1.517879
 14   7.002743 -0.617765 -0.183752 0.047085 0.002238 -0.521270
 15   8.209042 0.615527 -0.255885 1.570018 -0.000214 -0.121965
 16   7.002735 -0.617911 -0.183641 0.047532 0.002293 -0.383415
 17   1.574674 0.609930 -0.000899 0.073768 0.027840 -0.392645
 18   -0.602177 0.511412 -0.000006 0.000000 0.000000 0.000000
 19   3.677679 0.177020 1.119313 -0.000002 -0.000014 -0.174510
 20   3.673767 0.176993 -1.117566 0.000007 -0.000003 -0.174546
 21   3.942357 1.334540 1.627658 0.000002 -0.000011 -0.000026
 22   -0.246060 -0.011889 0.516521 -0.000011 0.000031 0.000025
 23   3.942374 1.334565 -1.631083 0.000019 0.000002 -0.000024
 24   -0.246150 -0.011872 -0.516511 -0.000005 -0.000006 0.000048
 25   4.941364 1.997338 1.629330 0.000018 -0.000001 -0.000024
 26   4.941382 1.997366 -1.629410 -0.000001 0.000005 -0.000024
 27   2.914462 1.619264 1.514501 -0.000019 -0.000022 -0.000050
 28   2.916892 1.618870 -1.501142 -0.000002 -0.000009 -0.000024
 29   8.824059 0.150544 0.091743 -0.104892 0.023649 0.439254
 30   2.111085 -0.561179 1.784320 -0.000008 -0.000682 0.000024
 31   2.121290 -0.561289 -1.853599 0.000000 0.000000 -0.000002
 32   -0.814395 -0.093824 3.127092 -0.004589 -2.740002 0.204464
 33   14.298673 -0.408176 0.471578 0.164880 -0.003453 -0.587020
 34   15.835795 0.581398 0.242756 -0.003065 -0.010786 -0.001460
 35   -0.815868 -0.091229 -3.114430 0.147613 3.455951 -0.642110
 36   14.294526 -0.410349 -0.467541 0.070754 -0.029087 -2.068686
 37   15.834409 0.579420 -0.284600 0.003089 0.010919 0.089883
 38   1.409225 -3.367809 -2.812094 -0.096826 0.011677 1.872364
 39   -4.727282 -0.625153 -0.711023 0.129817 -0.023694 0.711318
 40   0.848562 -3.535709 3.225571 -0.096826 0.011678 1.872364
 41   -4.164300 -1.488831 0.924409 0.129816 -0.023694 0.711318
 42   0.912892 2.767647 -2.579236 0.014310 0.037765 -0.670496
 43   1.015671 2.577511 2.974849 0.014306 0.037771 -0.670496
time 8
  0   0.020765 -0.546892 15.239118 2.705095 0.000000 -1.571069
  1   -1.093036 0.000002 -0.326057 -1.570075 -1.570379 -0.000268
  2   2.262337 0.113614 0.064702 -0.013605 0.156448 -0.087512
  3   2.380047 0.353302 0.047440 0.001260 0.156982 0.008876
  4   2.033756 0.190472 -0.000128 -0.024446 0.172794 -0.141533
  5   2.451511 0.204909 -0.003447 0.000000 -0.000005 -0.017472
  6   7.247600 -0.397300 -0.109469 0.000001 -0.000003 0.418536
  7   -2.022252 -0.104661 3.136172 -0.298783 -1.361718 -2.901842
  8   1.168026 -0.537438 -0.063437 -1.439649 -1.090597 -1.657106
  9   6.790376 -0.619176 0.015206 -0.009312 -0.035190 -0.539141
 10   8.637599 0.544015 -0.090417 -1.570112 0.000221 -0.122021
 11   6.790465 -0.619039 0.017802 -0.009597 -0.035301 -0.392564
 12   -2.022474 -0.104699 -2.873818 0.298969 1.362003 -2.901601
 13   1.167898 -0.537463 0.063297 1.149907 1.162336 -1.859053
 14   7.002743 -0.617765 -0.183752 0.047085 0.002238 -0.464424
 15   8.209042 0.615527 -0.255885 1.570018 -0.000214 -0.121965
 16   7.002735 -0.617911 -0.183641 0.047532 0.002293 -0.343621
 17   1.574674 0.609930 -0.000899 0.000000 0.000008 -0.532764
 18   -0.602177 0.511412 -0.000006 0.000000 0.000000 0.000000
 19   3.673773 0.177020 1.119313 -0.000002 -0.000014 -0.174510
 20   3.673767 0.176993 -1.117566 0.000007 -0.000003 -0.174546
 21   3.938451 1.334540 1.627658 0.000002 -0.000011 -0.000026
 22   -0.246060 -0.011889 0.516521 -0.000011 0.000031 0.000025
 23   3.938468 1.334565 -1.631083 0.000019 0.000002 -0.000024
 24   -0.246150 -0.011872 -0.516511 -0.000005 -0.000006 0.000048
 25   4.941364 1.997338 1.629330 0.000018 -0.000001 -0.000024
 26   4.941382 1.997366 -1.629410 -0.000001 0.000005 -0.000024
 27   2.914462 1.619264 1.514501 -0.000019 -0.000022 -0.000050
 28   2.916892 1.618870 -1.501142 -0.000002 -0.000009 -0.000024
 29   8.824059 0.150544 0.091743 -0.109616 0.024741 0.466829
 30   2.111085 -0.561179 1.784320 -0.000008 -0.000682 0.000024
 31   2.121290 -0.561289 -1.853599 0.000000 0.000000 -0.000002
 32   -0.814395 -0.093824 3.127092 0.001376 -2.696260 0.071551
 33   14.298673 -0.408176 0.471578 -0.000052 -0.000209 0.033794
 34   15.835795 0.581398 0.242756 -0.003065 -0.010786 -0.001460
 35   -0.815868 -0.091229 -3.114430 0.458480 3.496800 -1.004464
 36   14.294526 -0.410349 -0.467541 -0.000063 -0.000180 -2.653655
 37   15.834409 0.579420 -0.284600 0.003089 0.010919 0.015959
 38   1.420944 -3.359996 -2.808187 -0.101183 0.012195 1.956430
 39   -4.739001 -0.605622 -0.711023 0.135642 -0.024760 0.743263
 40   0.836842 -3.543522 3.221664 -0.101183 0.012196 1.956430
 41   -4.152581 -1.508362 0.924409 0.135641 -0.024760 0.743263
 42   0.983207 2.814524 -2.571423 0.014957 0.039467 -0.700609
 43   1.089892 2.616575 2.982662 0.014955 0.039466 -0.700609
end
