version 1
nodes
  0 "Bip01" -1
  1 "Bip01 Pelvis" 0
  2 "Bip01 Spine" 1
  3 "Bip01 Spine1" 2
  4 "Bip01 Spine2" 3
  5 "Bip01 Spine3" 4
  6 "Bip01 Neck" 5
  7 "Bip01 L Arm" 6
  8 "Bip01 L Arm1" 7
  9 "Bip01 L Arm2" 8
 10 "Bip01 L Hand" 9
 11 "Bip06 L elbow2-smooth" 8
 12 "Bip01 R Arm" 6
 13 "Bip01 R Arm1" 12
 14 "Bip01 R Arm2" 13
 15 "Bip01 R Hand" 14
 16 "Bip06 R elbow2-smooth" 13
 17 "Bip01 Head" 6
 18 "Bip06 Head_helper" 17
 19 "Bip06 Head_eyes_l" 18
 20 "Bip06 Head_eyes_r" 18
 21 "Bip06 Head_blink_l" 18
 22 "Bip06 Head_blink_smooth_l1" 21
 23 "Bip06 Head_blink_r" 18
 24 "Bip06 Head_blink_smooth_r1" 23
 25 "Bip06 Head_L_eyebrow" 18
 26 "Bip06 Head_R_eyebrow" 18
 27 "Bip06 Head_blink_l_lid" 18
 28 "Bip06 Head_blink_r_lid" 18
 29 "Bip06 bunny" 18
 30 "Bip06 bunnyL" 29
 31 "Bip06 bunnyR" 29
 32 "Bip01 L Leg" 1
 33 "Bip01 L Leg1" 32
 34 "Bip01 L Foot" 33
 35 "Bip01 R Leg" 1
 36 "Bip01 R Leg1" 35
 37 "Bip01 R Foot" 36
 38 "Bip03 HairR1" 17
 39 "Bip03 HairR2" 38
 40 "Bip03 HairL1" 17
 41 "Bip03 HairL2" 40
 42 "Bip03 swingR" 17
 43 "Bip03 swingL" 17
end
skeleton
time 0
  0   0.243428 0.039064 -1.741870 0.000000 0.000000 -1.659038
  1   -1.093036 0.000002 -0.326057 -1.570599 -1.570425 -0.000268
  2   2.262337 0.113614 0.064702 -0.000052 0.000061 0.166366
  3   2.380047 0.353302 0.047440 0.000000 -0.000028 0.156939
  4   2.033756 0.190472 -0.000128 -0.000010 0.000024 0.130609
  5   2.451511 0.204909 -0.003447 0.000000 -0.000005 0.148110
  6   7.247600 -0.397300 -0.109469 0.000001 0.000009 0.052298
  7   -2.022252 -0.104661 3.136172 -0.159310 -1.174572 -3.047319
  8   1.168026 -0.537438 -0.063437 -0.570049 0.941447 -0.642409
  9   6.790376 -0.619176 0.015206 -0.000269 -0.000285 -0.660417
 10   8.637599 0.544015 -0.090417 -1.570112 0.000292 -0.052136
 11   6.790465 -0.619039 0.017802 -0.001013 -0.011310 -0.477461
 12   -2.022474 -0.104699 -2.873818 0.298873 1.361742 -2.901888
 13   1.167898 -0.537463 0.063297 0.939299 -1.179719 -0.974943
 14   7.002743 -0.617765 -0.183752 0.000229 0.000250 -0.693871
 15   8.209042 0.615527 -0.255885 1.570090 -0.000063 -0.051966
 16   7.002735 -0.617911 -0.183641 0.014485 0.003928 -0.504342
 17   1.574674 0.609930 -0.000899 0.000000 0.000008 -0.427832
 18   -0.602177 0.511412 -0.000006 0.000000 0.000000 0.000000
 19   3.673773 0.180927 1.119313 -0.000002 -0.000014 -0.174510
 20   3.673767 0.176993 -1.117566 0.000007 -0.000003 -0.174546
 21   3.942357 1.334540 1.627658 0.000002 -0.000011 -0.000026
 22   -0.246060 -0.011889 0.516521 -0.000011 0.000031 0.000025
 23   3.942374 1.334565 -1.631083 0.000019 0.000002 -0.000024
 24   -0.246150 -0.011872 -0.516511 -0.000005 -0.000006 0.000048
 25   4.941364 1.997338 1.629330 0.000018 -0.000001 -0.000024
 26   4.941382 1.997366 -1.629410 -0.000001 0.000005 -0.000024
 27   2.914462 1.623171 1.514501 -0.000019 -0.000022 -0.000050
 28   2.916892 1.618870 -1.501142 -0.000002 -0.000009 -0.000024
 29   8.824059 0.150544 0.091743 0.000006 -0.000231 -0.174534
 30   2.111085 -0.561179 1.784320 -0.000008 -0.000682 0.000024
 31   2.121290 -0.561289 -1.853599 0.000000 0.000000 -0.000002
 32   -0.814395 -0.093824 3.127092 0.213613 -2.873426 -0.395552
 33   14.298673 -0.408176 0.471578 -0.000088 -0.000041 -2.383958
 34   15.835795 0.581398 0.242756 0.340225 0.031018 0.068310
 35   -0.815868 -0.091229 -3.114430 -0.005004 2.953404 0.197139
 36   14.294526 -0.410349 -0.467541 0.000093 0.000048 -1.930805
 37   15.834409 0.579420 -0.284600 -0.186131 -0.029957 0.177040
 38   1.420944 -3.992828 -2.862877 -0.006652 -0.018799 0.225684
 39   -4.457742 -1.054854 -0.746180 0.000000 0.000000 0.000000
 40   1.278262 -3.981035 3.198226 -0.006652 -0.018798 0.225683
 41   -4.433840 -1.059130 0.959566 -0.000001 0.000000 0.000000
 42   -0.657468 1.697302 -2.688614 0.000000 0.000002 0.000000
 43   -0.664068 1.698578 2.869377 0.000000 0.000002 0.000000
time 1
  0   0.255147 -2.521976 -1.722338 0.000413 -0.019737 -1.643838
  1   -1.093036 0.000002 -0.326057 -1.570599 -1.570425 -0.000219
  2   2.262337 0.113614 0.064702 -0.000052 0.000061 0.166366
  3   2.380047 0.353302 0.047440 0.000000 -0.000028 0.156939
  4   2.033756 0.190472 -0.000128 -0.000010 0.000024 0.130609
  5   2.451511 0.204909 -0.003447 0.000000 -0.000005 0.148110
  6   7.247600 -0.397300 -0.109469 0.000001 0.000009 0.052298
  7   -2.022252 -0.104661 3.136172 -0.159310 -1.174572 -3.047319
  8   1.168026 -0.537438 -0.063437 -0.570049 0.941447 -0.642409
  9   6.790376 -0.619176 0.015206 -0.000269 -0.000285 -0.660417
 10   8.637599 0.544015 -0.090417 -1.570112 0.000292 -0.052136
 11   6.790465 -0.619039 0.017802 -0.001013 -0.011310 -0.477461
 12   -2.022474 -0.104699 -2.873818 0.298873 1.361742 -2.901984
 13   1.167898 -0.537463 0.063297 0.939299 -1.179719 -0.974943
 14   7.002743 -0.617765 -0.183752 0.000229 0.000250 -0.693871
 15   8.209042 0.615527 -0.255885 1.570090 -0.000063 -0.051966
 16   7.002735 -0.617911 -0.183641 0.014485 0.003928 -0.504342
 17   1.574674 0.609930 -0.000899 0.000000 0.000008 -0.427832
 18   -0.602177 0.511412 -0.000006 0.000000 0.000000 0.000000
 19   3.673773 0.177020 1.119313 -0.000002 -0.000014 -0.174510
 20   3.673767 0.176993 -1.117566 0.000007 -0.000003 -0.174546
 21   3.942357 1.334540 1.627658 0.000002 -0.000011 -0.000026
 22   -0.246060 -0.011889 0.516521 -0.000011 0.000031 0.000025
 23   3.942374 1.334565 -1.631083 0.000019 0.000002 -0.000024
 24   -0.246150 -0.011872 -0.516511 -0.000005 -0.000006 0.000048
 25   4.941364 1.997338 1.629330 0.000018 -0.000001 -0.000024
 26   4.941382 1.997366 -1.629410 -0.000001 0.000005 -0.000024
 27   2.914462 1.619264 1.514501 -0.000019 -0.000022 -0.000050
 28   2.916892 1.618870 -1.501142 -0.000002 -0.000009 -0.000024
 29   8.824059 0.150544 0.091743 0.000184 0.000386 -0.166701
 30   2.111085 -0.557273 1.784320 0.000087 -0.000304 0.004741
 31   2.121290 -0.557383 -1.853599 0.000092 0.000389 0.004711
 32   -0.814395 -0.093824 3.127092 0.196929 -2.865594 -0.348022
 33   14.298673 -0.408176 0.471578 -0.000088 -0.000041 -2.346720
 34   15.835795 0.581398 0.242756 0.336315 0.032799 0.077307
 35   -0.815868 -0.091229 -3.114430 -0.014422 2.944504 0.203931
 36   14.294526 -0.410349 -0.467541 0.000093 0.000048 -1.931114
 37   15.834409 0.579420 -0.284600 -0.196633 -0.021024 0.184188
 38   1.420944 -3.992828 -2.862877 -0.006609 -0.018702 0.228555
 39   -4.457742 -1.054854 -0.746180 0.000108 0.000072 0.003450
 40   1.278262 -3.981035 3.198226 -0.006609 -0.018702 0.228555
 41   -4.433840 -1.059130 0.959566 0.000107 0.000072 0.003450
 42   -0.657468 1.693396 -2.688614 0.000000 0.000002 0.002718
 43   -0.664068 1.694672 2.869377 0.000025 0.000143 0.004224
time 2
  0   0.266866 -5.360367 -1.706712 0.000991 -0.042052 -1.629113
  1   -1.093036 0.000002 -0.326057 -1.570494 -1.570425 -0.000219
  2   2.262337 0.113614 0.064702 -0.000052 0.000061 0.166366
  3   2.380047 0.353302 0.047440 0.000000 -0.000028 0.156939
  4   2.033756 0.190472 -0.000128 -0.000010 0.000024 0.130609
  5   2.451511 0.204909 -0.003447 0.000000 -0.000005 0.148110
  6   7.247600 -0.397300 -0.109469 0.000001 0.000009 0.052298
  7   -2.022252 -0.104661 3.136172 -0.159310 -1.174572 -3.047319
  8   1.168026 -0.537438 -0.063437 -0.570049 0.941447 -0.642409
  9   6.790376 -0.619176 0.015206 -0.000269 -0.000285 -0.660417
 10   8.637599 0.544015 -0.090417 -1.570112 0.000292 -0.052136
 11   6.790465 -0.619039 0.017802 -0.001013 -0.011310 -0.477461
 12   -2.022474 -0.104699 -2.873818 0.298873 1.361742 -2.901984
 13   1.167898 -0.537463 0.063297 0.939299 -1.179719 -0.974943
 14   7.002743 -0.617765 -0.183752 0.000229 0.000250 -0.693871
 15   8.209042 0.615527 -0.255885 1.570090 -0.000063 -0.051966
 16   7.002735 -0.617911 -0.183641 0.014485 0.003928 -0.504342
 17   1.574674 0.609930 -0.000899 0.000000 0.000008 -0.427832
 18   -0.602177 0.511412 -0.000006 0.000000 0.000000 0.000000
 19   3.673773 0.180927 1.119313 -0.000002 -0.000014 -0.174510
 20   3.673767 0.176993 -1.117566 0.000007 -0.000003 -0.174546
 21   3.942357 1.334540 1.627658 0.000002 -0.000011 -0.000026
 22   -0.246060 -0.011889 0.516521 -0.000011 0.000031 0.000025
 23   3.942374 1.334565 -1.631083 0.000019 0.000002 -0.000024
 24   -0.246150 -0.011872 -0.516511 -0.000005 -0.000006 0.000048
 25   4.941364 1.997338 1.629330 0.000018 -0.000001 -0.000024
 26   4.941382 1.997366 -1.629410 -0.000001 0.000005 -0.000024
 27   2.914462 1.619264 1.514501 -0.000019 -0.000022 -0.000050
 28   2.916892 1.618870 -1.501142 -0.000002 -0.000009 -0.000024
 29   8.824059 0.150544 0.091743 0.000897 0.002143 -0.144652
 30   2.118898 -0.541647 1.784320 0.000358 0.000800 0.018036
 31   2.121290 -0.541757 -1.853599 0.000368 0.001502 0.017993
 32   -0.814395 -0.093824 3.127092 0.179685 -2.858431 -0.299240
 33   14.298673 -0.408176 0.471578 -0.000088 -0.000041 -2.308450
 34   15.835795 0.581398 0.242756 0.332451 0.034776 0.086348
 35   -0.815868 -0.091229 -3.114430 -0.033697 2.932511 0.184211
 36   14.294526 -0.410349 -0.467541 0.000093 0.000048 -1.964174
 37   15.834409 0.579420 -0.284600 -0.211607 -0.007740 0.198486
 38   1.420944 -3.992828 -2.862877 -0.006483 -0.018461 0.236376
 39   -4.453836 -1.043135 -0.746180 0.000431 0.000300 0.012873
 40   1.282169 -3.981035 3.198226 -0.006483 -0.018461 0.236375
 41   -4.426027 -1.051317 0.959566 0.000430 0.000300 0.012873
 42   -0.657468 1.681677 -2.688614 0.000000 0.000017 0.010205
 43   -0.664068 1.682953 2.869377 0.000137 0.000536 0.015809
time 3
  0   0.278585 -8.190946 -1.694993 0.000991 -0.053965 -1.621893
  1   -1.093036 0.000002 -0.326057 -1.570599 -1.570425 -0.000219
  2   2.262337 0.113614 0.064702 -0.000052 0.000061 0.166366
  3   2.380047 0.353302 0.047440 0.000000 -0.000028 0.156939
  4   2.033756 0.190472 -0.000128 -0.000010 0.000024 0.130609
  5   2.451511 0.204909 -0.003447 0.000000 -0.000005 0.148110
  6   7.247600 -0.397300 -0.109469 0.000001 0.000009 0.052298
  7   -2.022252 -0.104661 3.136172 -0.159310 -1.174572 -3.047319
  8   1.168026 -0.537438 -0.063437 -0.570049 0.941447 -0.642409
  9   6.790376 -0.619176 0.015206 -0.000269 -0.000285 -0.660417
 10   8.637599 0.544015 -0.090417 -1.570112 0.000292 -0.052136
 11   6.790465 -0.619039 0.017802 -0.001013 -0.011310 -0.477461
 12   -2.022474 -0.104699 -2.873818 0.298873 1.361742 -2.901984
 13   1.167898 -0.537463 0.063297 0.939299 -1.179719 -0.974943
 14   7.002743 -0.617765 -0.183752 0.000229 0.000250 -0.693871
 15   8.209042 0.615527 -0.255885 1.570090 -0.000063 -0.051966
 16   7.002735 -0.617911 -0.183641 0.014485 0.003928 -0.504342
 17   1.574674 0.609930 -0.000899 0.000000 0.000008 -0.427832
 18   -0.602177 0.511412 -0.000006 0.000000 0.000000 0.000000
 19   3.673773 0.180927 1.119313 -0.000002 -0.000014 -0.174510
 20   3.673767 0.176993 -1.117566 0.000007 -0.000003 -0.174546
 21   3.942357 1.334540 1.627658 0.000002 -0.000011 -0.000026
 22   -0.246060 -0.011889 0.516521 -0.000011 0.000031 0.000025
 23   3.942374 1.334565 -1.631083 0.000019 0.000002 -0.000024
 24   -0.246150 -0.011872 -0.516511 -0.000005 -0.000006 0.000048
 25   4.941364 1.997338 1.629330 0.000018 -0.000001 -0.000024
 26   4.941382 1.997366 -1.629410 -0.000001 0.000005 -0.000024
 27   2.914462 1.619264 1.514501 -0.000019 -0.000022 -0.000050
 28   2.916892 1.618870 -1.501142 -0.000002 -0.000009 -0.000024
 29   8.824059 0.150544 0.091743 0.001878 0.004873 -0.110532
 30   2.126710 -0.518209 1.784320 0.000778 0.002544 0.038557
 31   2.125196 -0.522225 -1.853599 0.000781 0.003212 0.038536
 32   -0.814395 -0.093824 3.127092 0.170458 -2.854993 -0.274137
 33   14.298673 -0.408176 0.471578 -0.000088 -0.000041 -2.288918
 34   15.835795 0.581398 0.242756 0.330426 0.035874 0.091111
 35   -0.815868 -0.091229 -3.114430 -0.051916 2.923705 0.157370
 36   14.294526 -0.410349 -0.467541 0.000117 0.000048 -2.003800
 37   15.834409 0.579420 -0.284600 -0.223388 0.002652 0.211922
 38   1.420944 -3.988922 -2.862877 -0.006294 -0.018100 0.247922
 39   -4.449929 -1.027509 -0.746180 0.000911 0.000623 0.026756
 40   1.282169 -3.981035 3.198226 -0.006294 -0.018099 0.247922
 41   -4.418214 -1.043504 0.959566 0.000910 0.000623 0.026756
 42   -0.661374 1.666051 -2.688614 0.000012 0.000079 0.021204
 43   -0.667974 1.667327 2.869377 0.000287 0.001116 0.032872
time 4
  0   0.282491 -11.037150 -1.679368 0.000991 -0.065078 -1.614673
  1   -1.093036 0.000002 -0.326057 -1.570546 -1.570425 -0.000219
  2   2.262337 0.113614 0.064702 -0.000052 0.000061 0.166366
  3   2.380047 0.353302 0.047440 0.000000 -0.000028 0.156939
  4   2.033756 0.190472 -0.000128 -0.000010 0.000024 0.130609
  5   2.451511 0.204909 -0.003447 0.000000 -0.000005 0.148110
  6   7.247600 -0.397300 -0.109469 0.000001 0.000009 0.052298
  7   -2.022252 -0.104661 3.136172 -0.159310 -1.174572 -3.047319
  8   1.168026 -0.537438 -0.063437 -0.570049 0.941447 -0.642409
  9   6.790376 -0.619176 0.015206 -0.000269 -0.000285 -0.660417
 10   8.637599 0.544015 -0.090417 -1.570112 0.000292 -0.052136
 11   6.790465 -0.619039 0.017802 -0.001013 -0.011310 -0.477461
 12   -2.022474 -0.104699 -2.873818 0.298873 1.361742 -2.901984
 13   1.167898 -0.537463 0.063297 0.939299 -1.179719 -0.974943
 14   7.002743 -0.617765 -0.183752 0.000229 0.000250 -0.693871
 15   8.209042 0.615527 -0.255885 1.570090 -0.000063 -0.051966
 16   7.002735 -0.617911 -0.183641 0.014485 0.003928 -0.504342
 17   1.574674 0.609930 -0.000899 0.000000 0.000008 -0.427832
 18   -0.602177 0.511412 -0.000006 0.000000 0.000000 0.000000
 19   3.673773 0.177020 1.119313 -0.000002 -0.000014 -0.174510
 20   3.673767 0.176993 -1.117566 0.000007 -0.000003 -0.174546
 21   3.942357 1.334540 1.627658 0.000002 -0.000011 -0.000026
 22   -0.246060 -0.011889 0.516521 -0.000011 0.000031 0.000025
 23   3.942374 1.334565 -1.631083 0.000019 0.000002 -0.000024
 24   -0.246150 -0.011872 -0.516511 -0.000005 -0.000006 0.000048
 25   4.941364 1.997338 1.629330 0.000018 -0.000001 -0.000024
 26   4.941382 1.997366 -1.629410 -0.000001 0.000005 -0.000024
 27   2.914462 1.619264 1.514501 -0.000019 -0.000022 -0.000050
 28   2.916892 1.618870 -1.501142 -0.000002 -0.000009 -0.000024
 29   8.824059 0.150544 0.091743 0.003214 0.008386 -0.066540
 30   2.138430 -0.490864 1.780414 0.001321 0.004752 0.065040
 31   2.129103 -0.490974 -1.857505 0.001318 0.005439 0.065010
 32   -0.814395 -0.093824 3.127092 0.160577 -2.851937 -0.247782
 33   14.298673 -0.408176 0.471578 -0.000088 -0.000041 -2.268989
 34   15.835795 0.581398 0.242756 0.328287 0.037143 0.096359
 35   -0.815868 -0.091229 -3.114430 -0.082281 2.912556 0.107139
 36   14.294526 -0.410349 -0.467541 0.000093 0.000048 -2.074402
 37   15.834409 0.579420 -0.284600 -0.242756 0.017190 0.234383
 38   1.417037 -3.988922 -2.862877 -0.006083 -0.017654 0.261974
 39   -4.446023 -1.011884 -0.746180 0.001474 0.001031 0.043612
 40   1.282169 -3.981035 3.198226 -0.006083 -0.017653 0.261973
 41   -4.406495 -1.031785 0.959566 0.001485 0.001031 0.043612
 42   -0.665281 1.642613 -2.688614 0.000048 0.000217 0.034545
 43   -0.671881 1.643889 2.869377 0.000462 0.001822 0.053574
time 5
  0   0.305929 -13.883354 -1.675461 0.000991 -0.085259 -1.600994
  1   -1.093036 0.000002 -0.326057 -1.570599 -1.570425 -0.000219
  2   2.262337 0.113614 0.064702 -0.000052 0.000061 0.166366
  3   2.380047 0.353302 0.047440 0.000000 -0.000028 0.156939
  4   2.033756 0.190472 -0.000128 -0.000010 0.000024 0.130609
  5   2.451511 0.204909 -0.003447 0.000000 -0.000005 0.148110
  6   7.247600 -0.397300 -0.109469 0.000001 0.000009 0.052298
  7   -2.022252 -0.104661 3.136172 -0.159310 -1.174572 -3.047319
  8   1.168026 -0.537438 -0.063437 -0.570049 0.941447 -0.642409
  9   6.790376 -0.619176 0.015206 -0.000269 -0.000285 -0.660417
 10   8.637599 0.544015 -0.090417 -1.570112 0.000292 -0.052136
 11   6.790465 -0.619039 0.017802 -0.001013 -0.011310 -0.477461
 12   -2.022474 -0.104699 -2.873818 0.298873 1.361771 -2.901984
 13   1.167898 -0.537463 0.063297 0.939299 -1.179719 -0.974943
 14   7.002743 -0.617765 -0.183752 0.000229 0.000250 -0.693871
 15   8.209042 0.615527 -0.255885 1.570090 -0.000063 -0.051966
 16   7.002735 -0.617911 -0.183641 0.014485 0.003928 -0.504342
 17   1.574674 0.609930 -0.000899 0.000000 0.000008 -0.427832
 18   -0.602177 0.511412 -0.000006 0.000000 0.000000 0.000000
 19   3.673773 0.177020 1.119313 -0.000002 -0.000014 -0.174510
 20   3.673767 0.176993 -1.117566 0.000007 -0.000003 -0.174546
 21   3.942357 1.334540 1.627658 0.000002 -0.000011 -0.000026
 22   -0.246060 -0.011889 0.516521 -0.000011 0.000031 0.000025
 23   3.942374 1.334565 -1.631083 0.000019 0.000002 -0.000024
 24   -0.246150 -0.011872 -0.516511 -0.000005 -0.000006 0.000048
 25   4.941364 1.997338 1.629330 0.000018 -0.000001 -0.000024
 26   4.941382 1.997366 -1.629410 -0.000001 0.000005 -0.000024
 27   2.914462 1.619264 1.514501 -0.000019 -0.000022 -0.000050
 28   2.916892 1.618870 -1.501142 -0.000002 -0.000009 -0.000024
 29   8.824059 0.150544 0.091743 0.004730 0.012516 -0.014877
 30   2.154055 -0.455707 1.776507 0.001958 0.007339 0.096111
 31   2.136915 -0.455817 -1.861412 0.001961 0.008055 0.096088
 32   -0.814395 -0.093824 3.127092 0.140910 -2.846302 -0.194902
 33   14.298673 -0.408176 0.471578 -0.000088 -0.000041 -2.228972
 34   15.835795 0.581398 0.242756 0.324239 0.039852 0.106944
 35   -0.815868 -0.091229 -3.114430 -0.144595 2.892787 0.007553
 36   14.294526 -0.410349 -0.467541 0.000093 0.000048 -2.214059
 37   15.834409 0.579420 -0.284600 -0.283618 0.044577 0.279305
 38   1.417037 -3.988922 -2.862877 -0.005852 -0.017172 0.277248
 39   -4.438210 -0.992352 -0.746180 0.002109 0.001462 0.061955
 40   1.286075 -3.984941 3.198226 -0.005852 -0.017171 0.277247
 41   -4.394776 -1.020066 0.959566 0.002108 0.001462 0.061955
 42   -0.669187 1.619175 -2.688614 0.000096 0.000416 0.049099
 43   -0.675787 1.620451 2.869377 0.000662 0.002591 0.076075
time 6
  0   0.317648 -16.725653 -1.659836 0.000413 -0.099128 -1.586174
  1   -1.093036 0.000002 -0.326057 -1.570651 -1.570425 -0.000268
  2   2.262337 0.113614 0.064702 -0.000052 0.000061 0.166366
  3   2.380047 0.353302 0.047440 0.000000 -0.000028 0.156939
  4   2.033756 0.190472 -0.000128 -0.000010 0.000024 0.130609
  5   2.451511 0.204909 -0.003447 0.000000 -0.000005 0.148110
  6   7.247600 -0.397300 -0.109469 0.000001 0.000009 0.052298
  7   -2.022252 -0.104661 3.136172 -0.159310 -1.174572 -3.047319
  8   1.168026 -0.537438 -0.063437 -0.570049 0.941447 -0.642409
  9   6.790376 -0.619176 0.015206 -0.000269 -0.000285 -0.660417
 10   8.637599 0.544015 -0.090417 -1.570112 0.000292 -0.052136
 11   6.790465 -0.619039 0.017802 -0.001013 -0.011310 -0.477461
 12   -2.022474 -0.104699 -2.873818 0.298873 1.361771 -2.901984
 13   1.167898 -0.537463 0.063297 0.939299 -1.179719 -0.974943
 14   7.002743 -0.617765 -0.183752 0.000229 0.000250 -0.693871
 15   8.209042 0.615527 -0.255885 1.570090 -0.000063 -0.051966
 16   7.002735 -0.617911 -0.183641 0.014485 0.003928 -0.504342
 17   1.574674 0.609930 -0.000899 0.000000 0.000008 -0.427832
 18   -0.602177 0.511412 -0.000006 0.000000 0.000000 0.000000
 19   3.673773 0.177020 1.119313 -0.000002 -0.000014 -0.174510
 20   3.673767 0.176993 -1.117566 0.000007 -0.000003 -0.174546
 21   3.942357 1.334540 1.627658 0.000002 -0.000011 -0.000026
 22   -0.246060 -0.011889 0.516521 -0.000011 0.000031 0.000025
 23   3.942374 1.334565 -1.631083 0.000019 0.000002 -0.000024
 24   -0.246150 -0.011872 -0.516511 -0.000005 -0.000006 0.000048
 25   4.941364 1.997338 1.629330 0.000018 -0.000001 -0.000024
 26   4.941382 1.997366 -1.629410 -0.000001 0.000005 -0.000024
 27   2.914462 1.619264 1.514501 -0.000019 -0.000022 -0.000050
 28   2.916892 1.618870 -1.501142 -0.000002 -0.000009 -0.000024
 29   8.824059 0.150544 0.091743 0.006512 0.017074 0.042258
 30   2.173587 -0.416643 1.772601 0.002663 0.010245 0.130484
 31   2.140822 -0.420660 -1.865318 0.002666 0.010930 0.130478
 32   -0.814395 -0.093824 3.127092 0.121243 -2.841527 -0.142363
 33   14.298673 -0.408176 0.471578 -0.000088 -0.000041 -2.188321
 34   15.835795 0.581398 0.242756 0.320466 0.042585 0.116691
 35   -0.815868 -0.091229 -3.114430 -0.200484 2.884355 -0.091211
 36   14.294526 -0.410349 -0.467541 0.000093 0.000048 -2.344215
 37   15.834409 0.579420 -0.284600 -0.319083 0.063108 0.314391
 38   1.413131 -3.988922 -2.862877 -0.005620 -0.016690 0.292521
 39   -4.434304 -0.972820 -0.746180 0.002732 0.001894 0.080297
 40   1.286075 -3.984941 3.198226 -0.005620 -0.016689 0.292521
 41   -4.386963 -1.004441 0.959566 0.002731 0.001894 0.080297
 42   -0.669187 1.595736 -2.688614 0.000156 0.000723 0.063654
 43   -0.675787 1.597012 2.869377 0.000862 0.003344 0.098617
time 7
  0   0.317648 -19.579668 -1.648117 0.000000 -0.104640 -1.571354
  1   -1.093036 0.000002 -0.326057 -1.570651 -1.570425 -0.000219
  2   2.262337 0.113614 0.064702 -0.000052 0.000061 0.166366
  3   2.380047 0.353302 0.047440 0.000000 -0.000028 0.156939
  4   2.033756 0.190472 -0.000128 -0.000010 0.000024 0.130609
  5   2.451511 0.204909 -0.003447 0.000000 -0.000005 0.148110
  6   7.247600 -0.397300 -0.109469 0.000001 0.000009 0.052298
  7   -2.022252 -0.104661 3.136172 -0.159310 -1.174572 -3.047319
  8   1.168026 -0.537438 -0.063437 -0.570049 0.941447 -0.642409
  9   6.790376 -0.619176 0.015206 -0.000269 -0.000285 -0.660417
 10   8.637599 0.544015 -0.090417 -1.570112 0.000292 -0.052136
 11   6.790465 -0.619039 0.017802 -0.001013 -0.011310 -0.477461
 12   -2.022474 -0.104699 -2.873818 0.298873 1.361742 -2.901984
 13   1.167898 -0.537463 0.063297 0.939299 -1.179719 -0.974943
 14   7.002743 -0.617765 -0.183752 0.000229 0.000250 -0.693871
 15   8.209042 0.615527 -0.255885 1.570090 -0.000063 -0.051966
 16   7.002735 -0.617911 -0.183641 0.014485 0.003928 -0.504342
 17   1.574674 0.609930 -0.000899 0.000000 0.000008 -0.427832
 18   -0.602177 0.511412 -0.000006 0.000000 0.000000 0.000000
 19   3.673773 0.177020 1.119313 -0.000002 -0.000014 -0.174510
 20   3.673767 0.176993 -1.117566 0.000007 -0.000003 -0.174546
 21   3.942357 1.334540 1.627658 0.000002 -0.000011 -0.000026
 22   -0.246060 -0.011889 0.516521 -0.000011 0.000031 0.000025
 23   3.942374 1.334565 -1.631083 0.000019 0.000002 -0.000024
 24   -0.246150 -0.011872 -0.516511 -0.000005 -0.000006 0.000048
 25   4.941364 1.997338 1.629330 0.000018 -0.000001 -0.000024
 26   4.941382 1.997366 -1.629410 -0.000001 0.000005 -0.000024
 27   2.914462 1.619264 1.514501 -0.000019 -0.000022 -0.000050
 28   2.916892 1.618870 -1.501142 -0.000002 -0.000009 -0.000024
 29   8.824059 0.150544 0.091743 0.008294 0.021893 0.102666
 30   2.189212 -0.373673 1.768695 0.003396 0.013267 0.166852
 31   2.148634 -0.381596 -1.869224 0.003417 0.013961 0.166832
 32   -0.814395 -0.093824 3.127092 0.102415 -2.837611 -0.091190
 33   14.298673 -0.408176 0.471578 -0.000088 -0.000041 -2.146875
 34   15.835795 0.581398 0.242756 0.317108 0.045318 0.124012
 35   -0.815868 -0.091229 -3.114430 -0.228033 2.890726 -0.166530
 36   14.294526 -0.410349 -0.467541 0.000093 0.000048 -2.425862
 37   15.834409 0.579420 -0.284600 -0.331259 0.066154 0.322757
 38   1.413131 -3.985015 -2.862877 -0.005389 -0.016244 0.306512
 39   -4.426491 -0.953288 -0.750086 0.003308 0.002289 0.097153
 40   1.289981 -3.984941 3.198226 -0.005389 -0.016243 0.306511
 41   -4.375244 -0.992722 0.955660 0.003307 0.002289 0.097153
 42   -0.673093 1.576205 -2.688614 0.000264 0.001152 0.076995
 43   -0.679693 1.577481 2.873283 0.001037 0.004050 0.119319
time 8
  0   0.321554 -22.421967 -1.648117 -0.000248 -0.103573 -1.563564
  1   -1.093036 0.000002 -0.326057 -1.570599 -1.570425 -0.000268
  2   2.262337 0.113614 0.064702 -0.000052 0.000061 0.166366
  3   2.380047 0.353302 0.047440 0.000000 -0.000028 0.156939
  4   2.033756 0.190472 -0.000128 -0.000010 0.000024 0.130609
  5   2.451511 0.204909 -0.003447 0.000000 -0.000005 0.148110
  6   7.247600 -0.397300 -0.109469 0.000001 0.000009 0.052298
  7   -2.022252 -0.104661 3.136172 -0.159310 -1.174572 -3.047319
  8   1.168026 -0.537438 -0.063437 -0.570049 0.941447 -0.642409
  9   6.790376 -0.619176 0.015206 -0.000269 -0.000285 -0.660417
 10   8.637599 0.544015 -0.090417 -1.570112 0.000292 -0.052136
 11   6.790465 -0.619039 0.017802 -0.001013 -0.011310 -0.477461
 12   -2.022474 -0.104699 -2.873818 0.298873 1.361742 -2.901984
 13   1.167898 -0.537463 0.063297 0.939299 -1.179719 -0.974943
 14   7.002743 -0.617765 -0.183752 0.000229 0.000250 -0.693871
 15   8.209042 0.615527 -0.255885 1.570090 -0.000063 -0.051966
 16   7.002735 -0.617911 -0.183641 0.014485 0.003928 -0.504342
 17   1.574674 0.609930 -0.000899 0.000000 0.000008 -0.427832
 18   -0.602177 0.511412 -0.000006 0.000000 0.000000 0.000000
 19   3.673773 0.177020 1.119313 -0.000002 -0.000014 -0.174510
 20   3.673767 0.176993 -1.117566 0.000007 -0.000003 -0.174546
 21   3.942357 1.334540 1.627658 0.000002 -0.000011 -0.000026
 22   -0.246060 -0.011889 0.516521 -0.000011 0.000031 0.000025
 23   3.938468 1.334565 -1.631083 0.000019 0.000002 -0.000024
 24   -0.246150 -0.011872 -0.516511 -0.000005 -0.000006 0.000048
 25   4.941364 1.997338 1.629330 0.000018 -0.000001 -0.000024
 26   4.941382 1.997366 -1.629410 -0.000001 0.000005 -0.000024
 27   2.914462 1.619264 1.514501 -0.000019 -0.000022 -0.000050
 28   2.916892 1.618870 -1.501142 -0.000002 -0.000009 -0.000024
 29   8.824059 0.150544 0.091743 0.010166 0.026807 0.164146
 30   2.208744 -0.334610 1.764788 0.004155 0.016377 0.203863
 31   2.152541 -0.338626 -1.873131 0.004168 0.017069 0.203842
 32   -0.814395 -0.093824 3.127092 0.093187 -2.835892 -0.066656
 33   14.298673 -0.408176 0.471578 -0.000088 -0.000041 -2.126469
 34   15.835795 0.581398 0.242756 0.315636 0.046636 0.127055
 35   -0.815868 -0.091229 -3.114430 -0.227945 2.897753 -0.196932
 36   14.294526 -0.410349 -0.467541 0.000093 0.000048 -2.448649
 37   15.834409 0.579420 -0.284600 -0.329150 0.063978 0.319005
 38   1.413131 -3.985015 -2.862877 -0.005220 -0.015871 0.318059
 39   -4.418678 -0.933757 -0.750086 0.003775 0.002625 0.111037
 40   1.289981 -3.988848 3.198226 -0.005220 -0.015870 0.318058
 41   -4.367432 -0.977096 0.955660 0.003774 0.002625 0.111037
 42   -0.677000 1.560579 -2.688614 0.000384 0.001719 0.087994
 43   -0.683600 1.561855 2.873283 0.001187 0.004631 0.136341
time 9
  0   0.341086 -25.272078 -1.659836 -0.000413 -0.096550 -1.554634
  1   -1.093036 0.000002 -0.326057 -1.570599 -1.570425 -0.000316
  2   2.262337 0.113614 0.064702 -0.000052 0.000061 0.166366
  3   2.380047 0.353302 0.047440 0.000000 -0.000028 0.156939
  4   2.033756 0.190472 -0.000128 -0.000010 0.000024 0.130609
  5   2.451511 0.204909 -0.003447 0.000000 -0.000005 0.148110
  6   7.247600 -0.397300 -0.109469 0.000001 0.000009 0.052298
  7   -2.022252 -0.104661 3.136172 -0.159310 -1.174572 -3.047319
  8   1.168026 -0.537438 -0.063437 -0.570049 0.941447 -0.642409
  9   6.790376 -0.619176 0.015206 -0.000269 -0.000285 -0.660417
 10   8.637599 0.544015 -0.090417 -1.570112 0.000292 -0.052136
 11   6.790465 -0.619039 0.017802 -0.001013 -0.011310 -0.477461
 12   -2.022474 -0.104699 -2.873818 0.298873 1.361742 -2.901984
 13   1.167898 -0.537463 0.063297 0.939299 -1.179719 -0.974943
 14   7.002743 -0.617765 -0.183752 0.000229 0.000250 -0.693871
 15   8.209042 0.615527 -0.255885 1.570090 -0.000063 -0.051966
 16   7.002735 -0.617911 -0.183641 0.014485 0.003928 -0.504342
 17   1.574674 0.609930 -0.000899 0.000000 0.000008 -0.427832
 18   -0.602177 0.511412 -0.000006 0.000000 0.000000 0.000000
 19   3.673773 0.177020 1.119313 -0.000002 -0.000014 -0.174510
 20   3.673767 0.176993 -1.117566 0.000007 -0.000003 -0.174546
 21   3.938451 1.334540 1.627658 0.000002 -0.000011 -0.000026
 22   -0.246060 -0.011889 0.516521 -0.000011 0.000031 0.000025
 23   3.938468 1.334565 -1.631083 0.000019 0.000002 -0.000024
 24   -0.246150 -0.011872 -0.516511 -0.000005 -0.000006 0.000048
 25   4.941364 1.997338 1.629330 0.000018 -0.000001 -0.000024
 26   4.941382 1.997366 -1.629410 -0.000001 0.000005 -0.000024
 27   2.914462 1.619264 1.514501 -0.000019 -0.000022 -0.000050
 28   2.916892 1.618870 -1.501142 -0.000002 -0.000009 -0.000024
 29   8.824059 0.150544 0.091743 0.011949 0.031625 0.224554
 30   2.224370 -0.291640 1.760882 0.004901 0.019428 0.240209
 31   2.160354 -0.299562 -1.873131 0.004918 0.020125 0.240196
 32   -0.814395 -0.093824 3.127092 0.084798 -2.834554 -0.043944
 33   14.298673 -0.408176 0.471578 -0.000088 -0.000041 -2.105588
 34   15.835795 0.581398 0.242756 0.314578 0.047856 0.128201
 35   -0.815868 -0.091229 -3.114430 -0.222224 2.910307 -0.218076
 36   14.294526 -0.410349 -0.467541 0.000093 0.000048 -2.455060
 37   15.834409 0.579420 -0.284600 -0.315201 0.054892 0.299738
 38   1.413131 -3.985015 -2.862877 -0.005094 -0.015630 0.325940
 39   -4.414772 -0.922037 -0.750086 0.004099 0.002840 0.120460
 40   1.289981 -3.988848 3.198226 -0.005094 -0.015629 0.325939
 41   -4.359619 -0.961471 0.955660 0.004098 0.002840 0.120460
 42   -0.677000 1.544954 -2.684708 0.000551 0.002455 0.095481
 43   -0.683600 1.546230 2.873283 0.001287 0.005023 0.147926
time 10
  0   0.356711 -28.122189 -1.675461 -0.000991 -0.077169 -1.535444
  1   -1.093036 0.000002 -0.326057 -1.570546 -1.570425 -0.000316
  2   2.262337 0.113614 0.064702 -0.000052 0.000061 0.166366
  3   2.380047 0.353302 0.047440 0.000000 -0.000028 0.156939
  4   2.033756 0.190472 -0.000128 -0.000010 0.000024 0.130609
  5   2.451511 0.204909 -0.003447 0.000000 -0.000005 0.148110
  6   7.247600 -0.397300 -0.109469 0.000001 0.000009 0.052298
  7   -2.022252 -0.104661 3.136172 -0.159310 -1.174572 -3.047319
  8   1.168026 -0.537438 -0.063437 -0.570049 0.941447 -0.642409
  9   6.790376 -0.619176 0.015206 -0.000269 -0.000285 -0.660417
 10   8.637599 0.544015 -0.090417 -1.570112 0.000292 -0.052136
 11   6.790465 -0.619039 0.017802 -0.001013 -0.011310 -0.477461
 12   -2.022474 -0.104699 -2.873818 0.298873 1.361771 -2.901888
 13   1.167898 -0.537463 0.063297 0.939299 -1.179719 -0.974943
 14   7.002743 -0.617765 -0.183752 0.000229 0.000250 -0.693871
 15   8.209042 0.615527 -0.255885 1.570090 -0.000063 -0.051966
 16   7.002735 -0.617911 -0.183641 0.014485 0.003928 -0.504342
 17   1.574674 0.609930 -0.000899 0.000000 0.000008 -0.427832
 18   -0.602177 0.511412 -0.000006 0.000000 0.000000 0.000000
 19   3.673773 0.177020 1.119313 -0.000002 -0.000014 -0.174510
 20   3.673767 0.176993 -1.117566 0.000007 -0.000003 -0.174546
 21   3.942357 1.334540 1.627658 0.000002 -0.000011 -0.000026
 22   -0.246060 -0.011889 0.516521 -0.000011 0.000031 0.000025
 23   3.942374 1.334565 -1.631083 0.000019 0.000002 -0.000024
 24   -0.246150 -0.011872 -0.516511 -0.000005 -0.000006 0.000048
 25   4.941364 1.997338 1.629330 0.000018 -0.000001 -0.000024
 26   4.941382 1.997366 -1.629410 -0.000001 0.000005 -0.000024
 27   2.914462 1.619264 1.514501 -0.000019 -0.000022 -0.000050
 28   2.916892 1.618870 -1.501142 -0.000002 -0.000009 -0.000024
 29   8.824059 0.150544 0.091743 0.013642 0.036207 0.281636
 30   2.239995 -0.252576 1.756975 0.005606 0.022305 0.274604
 31   2.164260 -0.260499 -1.877037 0.005623 0.023000 0.274568
 32   -0.814395 -0.093824 3.127092 0.067928 -2.832262 0.001309
 33   14.298673 -0.408176 0.471578 -0.000088 -0.000041 -2.062951
 34   15.835795 0.581398 0.242756 0.312553 0.050150 0.129083
 35   -0.815868 -0.091229 -3.114430 -0.198372 2.936165 -0.261789
 36   14.294526 -0.410349 -0.467541 0.000093 0.000048 -2.459000
 37   15.834409 0.579420 -0.284600 -0.282633 0.036924 0.258112
 38   1.409225 -3.985015 -2.862877 -0.005052 -0.015533 0.328812
 39   -4.406960 -0.918131 -0.750086 0.004219 0.002924 0.123910
 40   1.289981 -3.988848 3.198226 -0.005052 -0.015532 0.328811
 41   -4.355712 -0.949752 0.955660 0.004218 0.002924 0.123910
 42   -0.680906 1.541047 -2.684708 0.000767 0.003360 0.098241
 43   -0.687506 1.542323 2.873283 0.001324 0.005180 0.152192
time 11
  0   0.364524 -30.976204 -1.694993 -0.000991 -0.052187 -1.516730
  1   -1.093036 0.000002 -0.326057 -1.570651 -1.570425 -0.000268
  2   2.262337 0.113614 0.064702 -0.000052 0.000061 0.166366
  3   2.380047 0.353302 0.047440 0.000000 -0.000028 0.156939
  4   2.033756 0.190472 -0.000128 -0.000010 0.000024 0.130609
  5   2.451511 0.204909 -0.003447 0.000000 -0.000005 0.148110
  6   7.247600 -0.397300 -0.109469 0.000001 0.000009 0.052298
  7   -2.022252 -0.104661 3.136172 -0.159310 -1.174572 -3.047319
  8   1.168026 -0.537438 -0.063437 -0.570049 0.941447 -0.642409
  9   6.790376 -0.619176 0.015206 -0.000269 -0.000285 -0.660417
 10   8.637599 0.544015 -0.090417 -1.570112 0.000292 -0.052136
 11   6.790465 -0.619039 0.017802 -0.001013 -0.011310 -0.477461
 12   -2.022474 -0.104699 -2.873818 0.298873 1.361771 -2.901984
 13   1.167898 -0.537463 0.063297 0.939299 -1.179719 -0.974943
 14   7.002743 -0.617765 -0.183752 0.000229 0.000250 -0.693871
 15   8.209042 0.615527 -0.255885 1.570090 -0.000063 -0.051966
 16   7.002735 -0.617911 -0.183641 0.014485 0.003928 -0.504342
 17   1.574674 0.609930 -0.000899 0.000000 0.000008 -0.427832
 18   -0.602177 0.511412 -0.000006 0.000000 0.000000 0.000000
 19   3.673773 0.177020 1.119313 -0.000002 -0.000014 -0.174510
 20   3.673767 0.176993 -1.117566 0.000007 -0.000003 -0.174546
 21   3.942357 1.334540 1.627658 0.000002 -0.000011 -0.000026
 22   -0.246060 -0.011889 0.516521 -0.000011 0.000031 0.000025
 23   3.942374 1.334565 -1.631083 0.000019 0.000002 -0.000024
 24   -0.246150 -0.011872 -0.516511 -0.000005 -0.000006 0.000048
 25   4.941364 1.997338 1.629330 0.000018 -0.000001 -0.000024
 26   4.941382 1.997366 -1.629410 -0.000001 0.000005 -0.000024
 27   2.914462 1.619264 1.514501 -0.000019 -0.000022 -0.000050
 28   2.916892 1.618870 -1.501142 -0.000002 -0.000009 -0.000024
 29   8.824059 0.150544 0.091743 0.015246 0.040337 0.333299
 30   2.255620 -0.217418 1.756975 0.006243 0.024921 0.305675
 31   2.168166 -0.229248 -1.880944 0.006251 0.025617 0.305646
 32   -0.814395 -0.093824 3.127092 0.050031 -2.830543 0.050376
 33   14.298673 -0.408176 0.471578 -0.000088 -0.000041 -2.014280
 34   15.835795 0.581398 0.242756 0.310575 0.052444 0.126922
 35   -0.815868 -0.091229 -3.114430 -0.163958 2.964085 -0.298983
 36   14.294526 -0.410349 -0.467541 0.000093 0.000048 -2.447413
 37   15.834409 0.579420 -0.284600 -0.240707 0.016448 0.206497
 38   1.413131 -3.985015 -2.862877 -0.005094 -0.015605 0.326368
 39   -4.403053 -0.914225 -0.750086 0.004123 0.002864 0.120853
 40   1.289981 -3.988848 3.198226 -0.005094 -0.015605 0.326367
 41   -4.355712 -0.941939 0.955660 0.004122 0.002864 0.120853
 42   -0.677000 1.552766 -2.676895 0.001139 0.006672 0.093473
 43   -0.679693 1.542323 2.869377 0.000500 0.001634 0.151230
time 12
  0   0.387962 -33.822411 -1.706712 -0.000826 -0.026316 -1.500580
  1   -1.093036 0.000002 -0.326057 -1.570599 -1.570425 -0.000219
  2   2.262337 0.113614 0.064702 -0.000052 0.000061 0.166366
  3   2.380047 0.353302 0.047440 0.000000 -0.000028 0.156939
  4   2.033756 0.190472 -0.000128 -0.000010 0.000024 0.130609
  5   2.451511 0.204909 -0.003447 0.000000 -0.000005 0.148110
  6   7.247600 -0.397300 -0.109469 0.000001 0.000009 0.052298
  7   -2.022252 -0.104661 3.136172 -0.159310 -1.174572 -3.047413
  8   1.168026 -0.537438 -0.063437 -0.570049 0.941447 -0.642409
  9   6.790376 -0.619176 0.015206 -0.000269 -0.000285 -0.660417
 10   8.637599 0.544015 -0.090417 -1.570112 0.000292 -0.052136
 11   6.790465 -0.619039 0.017802 -0.001013 -0.011310 -0.477461
 12   -2.022474 -0.104699 -2.873818 0.298873 1.361742 -2.901888
 13   1.167898 -0.537463 0.063297 0.939299 -1.179719 -0.974943
 14   7.002743 -0.617765 -0.183752 0.000229 0.000250 -0.693871
 15   8.209042 0.615527 -0.255885 1.570090 -0.000063 -0.051966
 16   7.002735 -0.617911 -0.183641 0.014485 0.003928 -0.504342
 17   1.574674 0.609930 -0.000899 0.000000 0.000008 -0.427832
 18   -0.602177 0.511412 -0.000006 0.000000 0.000000 0.000000
 19   3.673773 0.180927 1.119313 -0.000002 -0.000014 -0.174510
 20   3.673767 0.180900 -1.117566 0.000007 -0.000003 -0.174546
 21   3.942357 1.334540 1.627658 0.000002 -0.000011 -0.000026
 22   -0.246060 -0.011889 0.516521 -0.000011 0.000031 0.000025
 23   3.942374 1.334565 -1.631083 0.000019 0.000002 -0.000024
 24   -0.246150 -0.011872 -0.516511 -0.000005 -0.000006 0.000048
 25   4.941364 1.997338 1.629330 0.000018 -0.000001 -0.000024
 26   4.941382 1.997366 -1.629410 -0.000001 0.000005 -0.000024
 27   2.914462 1.619264 1.514501 -0.000019 -0.000022 -0.000050
 28   2.916892 1.622777 -1.501142 -0.000002 -0.000009 -0.000024
 29   8.824059 0.150544 0.091743 0.016583 0.043850 0.377290
 30   2.267340 -0.190074 1.753069 0.006786 0.027129 0.332136
 31   2.175979 -0.197997 -1.884850 0.006803 0.027818 0.332120
 32   -0.814395 -0.093824 3.127092 0.023001 -2.832358 0.117658
 33   14.298673 -0.408176 0.471578 -0.000088 -0.000041 -1.942186
 34   15.835795 0.581398 0.242756 0.304709 0.057789 0.118190
 35   -0.815868 -0.091229 -3.114430 -0.126112 2.990505 -0.330425
 36   14.294526 -0.410349 -0.467541 0.000093 0.000048 -2.429338
 37   15.834409 0.579420 -0.284600 -0.196771 -0.002851 0.153919
 38   1.413131 -3.985015 -2.862877 -0.005178 -0.015786 0.319586
 39   -4.403053 -0.910318 -0.750086 0.003859 0.002697 0.112495
 40   1.289981 -3.988848 3.198226 -0.005178 -0.015785 0.319585
 41   -4.359619 -0.934126 0.955660 0.003858 0.002697 0.112495
 42   -0.673093 1.587924 -2.661269 0.001762 0.013924 0.080592
 43   -0.667974 1.546230 2.849845 -0.001749 -0.007969 0.148511
time 13
  0   0.387962 -36.672520 -1.722338 -0.000578 -0.013869 -1.492980
  1   -1.093036 0.000002 -0.326057 -1.570651 -1.570425 -0.000219
  2   2.262337 0.113614 0.064702 -0.000052 0.000061 0.166366
  3   2.380047 0.353302 0.047440 0.000000 -0.000028 0.156939
  4   2.033756 0.190472 -0.000128 -0.000010 0.000024 0.130609
  5   2.451511 0.204909 -0.003447 0.000000 -0.000005 0.148110
  6   7.247600 -0.397300 -0.109469 0.000001 0.000009 0.052298
  7   -2.022252 -0.104661 3.136172 -0.159310 -1.174572 -3.047319
  8   1.168026 -0.537438 -0.063437 -0.570049 0.941447 -0.642409
  9   6.790376 -0.619176 0.015206 -0.000269 -0.000285 -0.660417
 10   8.637599 0.544015 -0.090417 -1.570112 0.000292 -0.052136
 11   6.790465 -0.619039 0.017802 -0.001013 -0.011310 -0.477461
 12   -2.022474 -0.104699 -2.873818 0.298873 1.361771 -2.901888
 13   1.167898 -0.537463 0.063297 0.939299 -1.179719 -0.974943
 14   7.002743 -0.617765 -0.183752 0.000229 0.000250 -0.693871
 15   8.209042 0.615527 -0.255885 1.570090 -0.000063 -0.051966
 16   7.002735 -0.617911 -0.183641 0.014485 0.003928 -0.504342
 17   1.574674 0.609930 -0.000899 0.000000 0.000008 -0.427832
 18   -0.602177 0.511412 -0.000006 0.000000 0.000000 0.000000
 19   3.673773 0.177020 1.119313 -0.000002 -0.000014 -0.174510
 20   3.673767 0.176993 -1.117566 0.000007 -0.000003 -0.174546
 21   3.942357 1.334540 1.627658 0.000002 -0.000011 -0.000026
 22   -0.246060 -0.011889 0.516521 -0.000011 0.000031 0.000025
 23   3.942374 1.334565 -1.631083 0.000019 0.000002 -0.000024
 24   -0.246150 -0.011872 -0.516511 -0.000005 -0.000006 0.000048
 25   4.941364 1.997338 1.629330 0.000018 -0.000001 -0.000024
 26   4.941382 1.997366 -1.629410 -0.000001 0.000005 -0.000024
 27   2.914462 1.619264 1.514501 -0.000019 -0.000022 -0.000050
 28   2.920798 1.618870 -1.501142 -0.000002 -0.000009 -0.000024
 29   8.824059 0.150544 0.091743 0.017563 0.046580 0.411410
 30   2.279059 -0.166636 1.749163 0.007206 0.028873 0.352678
 31   2.175979 -0.174558 -1.884850 0.007217 0.029554 0.352663
 32   -0.814395 -0.093824 3.127092 0.005664 -2.835032 0.157902
 33   14.298673 -0.408176 0.471578 -0.000088 -0.000041 -1.897962
 34   15.835795 0.581398 0.242756 0.300638 0.061791 0.111663
 35   -0.815868 -0.091229 -3.114430 -0.107013 3.002965 -0.345160
 36   14.294526 -0.410349 -0.467541 0.000093 0.000048 -2.419528
 37   15.834409 0.579420 -0.284600 -0.174783 -0.012142 0.128011
 38   1.413131 -3.985015 -2.862877 -0.005304 -0.016051 0.309567
 39   -4.399147 -0.910318 -0.750086 0.003476 0.002457 0.100098
 40   1.289981 -3.984941 3.198226 -0.005304 -0.016050 0.309566
 41   -4.359619 -0.926313 0.955660 0.003475 0.002457 0.100098
 42   -0.669187 1.634800 -2.637831 0.002553 0.024089 0.061563
 43   -0.652349 1.546230 2.818594 -0.005085 -0.022139 0.144120
time 14
  0   0.391868 -39.522629 -1.741870 -0.000248 -0.006846 -1.488895
  1   -1.093036 0.000002 -0.326057 -1.570651 -1.570425 -0.000219
  2   2.262337 0.113614 0.064702 -0.000052 0.000061 0.166366
  3   2.380047 0.353302 0.047440 0.000000 -0.000028 0.156939
  4   2.033756 0.190472 -0.000128 -0.000010 0.000024 0.130609
  5   2.451511 0.204909 -0.003447 0.000000 -0.000005 0.148110
  6   7.247600 -0.397300 -0.109469 0.000001 0.000009 0.052298
  7   -2.022252 -0.104661 3.136172 -0.159310 -1.174572 -3.047319
  8   1.168026 -0.537438 -0.063437 -0.570049 0.941447 -0.642409
  9   6.790376 -0.619176 0.015206 -0.000269 -0.000285 -0.660417
 10   8.637599 0.544015 -0.090417 -1.570112 0.000292 -0.052136
 11   6.790465 -0.619039 0.017802 -0.001013 -0.011310 -0.477461
 12   -2.022474 -0.104699 -2.873818 0.298873 1.361742 -2.901984
 13   1.167898 -0.537463 0.063297 0.939299 -1.179719 -0.974943
 14   7.002743 -0.617765 -0.183752 0.000229 0.000250 -0.693871
 15   8.209042 0.615527 -0.255885 1.570090 -0.000063 -0.051966
 16   7.002735 -0.617911 -0.183641 0.014485 0.003928 -0.504342
 17   1.574674 0.609930 -0.000899 0.000000 0.000008 -0.427832
 18   -0.602177 0.511412 -0.000006 0.000000 0.000000 0.000000
 19   3.673773 0.177020 1.119313 -0.000002 -0.000014 -0.174510
 20   3.673767 0.176993 -1.117566 0.000007 -0.000003 -0.174546
 21   3.942357 1.334540 1.627658 0.000002 -0.000011 -0.000026
 22   -0.246060 -0.011889 0.516521 -0.000011 0.000031 0.000025
 23   3.942374 1.334565 -1.631083 0.000019 0.000002 -0.000024
 24   -0.246150 -0.011872 -0.516511 -0.000005 -0.000006 0.000048
 25   4.941364 1.997338 1.629330 0.000018 -0.000001 -0.000024
 26   4.941382 1.997366 -1.629410 -0.000001 0.000005 -0.000024
 27   2.914462 1.619264 1.514501 -0.000019 -0.000022 -0.000050
 28   2.916892 1.618870 -1.501142 -0.000002 -0.000009 -0.000024
 29   8.824059 0.150544 0.091743 0.018276 0.048337 0.433513
 30   2.282965 -0.151010 1.749163 0.007491 0.029977 0.365973
 31   2.179885 -0.162839 -1.884850 0.007492 0.030667 0.365945
 32   -0.814395 -0.093824 3.127092 -0.005148 -2.836083 0.188184
 33   14.298673 -0.408176 0.471578 -0.000088 -0.000041 -1.864059
 34   15.835795 0.581398 0.242756 0.299028 0.063401 0.106459
 35   -0.815868 -0.091229 -3.114430 -0.092842 3.011960 -0.356664
 36   14.294526 -0.410349 -0.467541 0.000093 0.000048 -2.413889
 37   15.834409 0.579420 -0.284600 -0.158331 -0.018413 0.110113
 38   1.413131 -3.985015 -2.862877 -0.005452 -0.016389 0.297348
 39   -4.395240 -0.906412 -0.750086 0.002996 0.002145 0.084953
 40   1.286075 -3.984941 3.198226 -0.005452 -0.016388 0.297347
 41   -4.359619 -0.922407 0.955660 0.002995 0.002145 0.084953
 42   -0.665281 1.697302 -2.606580 0.003452 0.036171 0.038477
 43   -0.628911 1.550136 2.779531 -0.009133 -0.039336 0.138307
time 15
  0   0.391868 -42.380550 -1.741870 0.000000 0.000000 -1.484335
  1   -1.093036 0.000002 -0.326057 -1.570442 -1.570425 -0.000268
  2   2.262337 0.113614 0.064702 -0.000052 0.000061 0.166366
  3   2.380047 0.353302 0.047440 0.000000 -0.000028 0.156939
  4   2.033756 0.190472 -0.000128 -0.000010 0.000024 0.130609
  5   2.451511 0.204909 -0.003447 0.000000 -0.000005 0.148110
  6   7.247600 -0.397300 -0.109469 0.000001 0.000009 0.052298
  7   -2.022252 -0.104661 3.136172 -0.159310 -1.174572 -3.047319
  8   1.168026 -0.537438 -0.063437 -0.570049 0.941447 -0.642409
  9   6.790376 -0.619176 0.015206 -0.000269 -0.000285 -0.660417
 10   8.637599 0.544015 -0.090417 -1.570112 0.000292 -0.052136
 11   6.790465 -0.619039 0.017802 -0.001013 -0.011310 -0.477461
 12   -2.022474 -0.104699 -2.873818 0.298873 1.361742 -2.901984
 13   1.167898 -0.537463 0.063297 0.939299 -1.179719 -0.974943
 14   7.002743 -0.617765 -0.183752 0.000229 0.000250 -0.693871
 15   8.209042 0.615527 -0.255885 1.570090 -0.000063 -0.051966
 16   7.002735 -0.617911 -0.183641 0.014485 0.003928 -0.504342
 17   1.574674 0.609930 -0.000899 0.000000 0.000008 -0.427832
 18   -0.602177 0.511412 -0.000006 0.000000 0.000000 0.000000
 19   3.673773 0.180927 1.119313 -0.000002 -0.000014 -0.174510
 20   3.673767 0.180900 -1.117566 0.000007 -0.000003 -0.174546
 21   3.942357 1.334540 1.627658 0.000002 -0.000011 -0.000026
 22   -0.246060 -0.011889 0.516521 -0.000011 0.000031 0.000025
 23   3.942374 1.338472 -1.631083 0.000019 0.000002 -0.000024
 24   -0.246150 -0.011872 -0.516511 -0.000005 -0.000006 0.000048
 25   4.941364 1.997338 1.629330 0.000018 -0.000001 -0.000024
 26   4.941382 1.997366 -1.629410 -0.000001 0.000005 -0.000024
 27   2.914462 1.623171 1.514501 -0.000019 -0.000022 -0.000050
 28   2.916892 1.622777 -1.501142 -0.000002 -0.000009 -0.000024
 29   8.824059 0.150544 0.091743 0.018455 0.048978 0.441346
 30   2.286871 -0.143197 1.749163 0.007586 0.030384 0.370690
 31   2.179885 -0.155027 -1.888756 0.007584 0.031056 0.370676
 32   -0.814395 -0.093824 3.127092 -0.009995 -2.831976 0.221996
 33   14.298673 -0.408176 0.471578 -0.000088 -0.000041 -1.826821
 34   15.835795 0.581398 0.242756 0.304088 0.059228 0.102048
 35   -0.815868 -0.091229 -3.114430 -0.071895 3.025826 -0.377205
 36   14.294526 -0.410349 -0.467541 0.000093 0.000048 -2.410413
 37   15.834409 0.579420 -0.284600 -0.133428 -0.027371 0.084610
 38   1.413131 -3.988922 -2.862877 -0.005641 -0.016762 0.283846
 39   -4.395240 -0.906412 -0.750086 0.002469 0.001810 0.068350
 40   1.286075 -3.984941 3.198226 -0.005641 -0.016761 0.283845
 41   -4.359619 -0.918501 0.955660 0.002468 0.001810 0.068350
 42   -0.657468 1.755898 -2.575329 0.004398 0.049173 0.013341
 43   -0.605472 1.554042 2.740467 -0.013544 -0.058072 0.131155
time 16
  0   0.391868 -45.230667 -1.741870 -0.000248 -0.006846 -1.489560
  1   -1.093036 0.000002 -0.326057 -1.570599 -1.570425 -0.000316
  2   2.262337 0.113614 0.064702 -0.000052 0.000061 0.166366
  3   2.380047 0.353302 0.047440 0.000000 -0.000028 0.156939
  4   2.033756 0.190472 -0.000128 -0.000010 0.000024 0.130609
  5   2.451511 0.204909 -0.003447 0.000000 -0.000005 0.148110
  6   7.247600 -0.397300 -0.109469 0.000001 0.000009 0.052298
  7   -2.022252 -0.104661 3.136172 -0.159310 -1.174572 -3.047319
  8   1.168026 -0.537438 -0.063437 -0.570049 0.941447 -0.642409
  9   6.790376 -0.619176 0.015206 -0.000269 -0.000285 -0.660417
 10   8.637599 0.544015 -0.090417 -1.570112 0.000292 -0.052136
 11   6.790465 -0.619039 0.017802 -0.001013 -0.011310 -0.477461
 12   -2.022474 -0.104699 -2.873818 0.298873 1.361771 -2.901984
 13   1.167898 -0.537463 0.063297 0.939299 -1.179719 -0.974943
 14   7.002743 -0.617765 -0.183752 0.000229 0.000250 -0.693871
 15   8.209042 0.615527 -0.255885 1.570090 -0.000063 -0.051966
 16   7.002735 -0.617911 -0.183641 0.014485 0.003928 -0.504342
 17   1.574674 0.609930 -0.000899 0.000000 0.000008 -0.427832
 18   -0.602177 0.511412 -0.000006 0.000000 0.000000 0.000000
 19   3.673773 0.180927 1.119313 -0.000002 -0.000014 -0.174510
 20   3.673767 0.176993 -1.117566 0.000007 -0.000003 -0.174546
 21   3.938451 1.338447 1.627658 0.000002 -0.000011 -0.000026
 22   -0.246060 -0.011889 0.516521 -0.000011 0.000031 0.000025
 23   3.942374 1.338472 -1.631083 0.000019 0.000002 -0.000024
 24   -0.246150 -0.011872 -0.516511 -0.000005 -0.000006 0.000048
 25   4.941364 1.997338 1.629330 0.000018 -0.000001 -0.000024
 26   4.941382 1.997366 -1.629410 -0.000001 0.000005 -0.000024
 27   2.914462 1.623171 1.514501 -0.000019 -0.000022 -0.000050
 28   2.916892 1.622777 -1.501142 -0.000002 -0.000009 -0.000024
 29   8.824059 0.150544 0.091743 0.018276 0.048337 0.433513
 30   2.282965 -0.151010 1.749163 0.007491 0.029977 0.365973
 31   2.179885 -0.162839 -1.884850 0.007492 0.030667 0.365945
 32   -0.814395 -0.093824 3.127092 0.047888 -2.805616 0.157048
 33   14.298673 -0.408176 0.471578 -0.000088 -0.000041 -1.899947
 34   15.835795 0.581398 0.242756 0.338316 0.027284 0.115676
 35   -0.815868 -0.091229 -3.114430 -0.064942 3.032384 -0.394625
 36   14.294526 -0.410349 -0.467541 0.000093 0.000048 -2.424781
 37   15.834409 0.579420 -0.284600 -0.123636 -0.029957 0.081213
 38   1.417037 -3.988922 -2.862877 -0.005831 -0.017160 0.270161
 39   -4.395240 -0.906412 -0.750086 0.001930 0.001462 0.051494
 40   1.286075 -3.984941 3.198226 -0.005831 -0.017159 0.270160
 41   -4.359619 -0.914594 0.955660 0.001929 0.001462 0.051494
 42   -0.653562 1.822306 -2.544078 0.005321 0.062052 -0.011752
 43   -0.582034 1.557949 2.697497 -0.017954 -0.076792 0.122874
time 17
  0   0.391868 -48.084682 -1.706712 -0.000826 -0.026227 -1.503525
  1   -1.093036 0.000002 -0.326057 -1.570494 -1.570425 -0.000316
  2   2.262337 0.113614 0.064702 -0.000052 0.000061 0.166366
  3   2.380047 0.353302 0.047440 0.000000 -0.000028 0.156939
  4   2.033756 0.190472 -0.000128 -0.000010 0.000024 0.130609
  5   2.451511 0.204909 -0.003447 0.000000 -0.000005 0.148110
  6   7.247600 -0.397300 -0.109469 0.000001 0.000009 0.052298
  7   -2.022252 -0.104661 3.136172 -0.159310 -1.174572 -3.047319
  8   1.168026 -0.537438 -0.063437 -0.570049 0.941447 -0.642409
  9   6.790376 -0.619176 0.015206 -0.000269 -0.000285 -0.660417
 10   8.637599 0.544015 -0.090417 -1.570112 0.000292 -0.052136
 11   6.790465 -0.619039 0.017802 -0.001013 -0.011310 -0.477461
 12   -2.022474 -0.104699 -2.873818 0.298873 1.361742 -2.901984
 13   1.167898 -0.537463 0.063297 0.939299 -1.179719 -0.974943
 14   7.002743 -0.617765 -0.183752 0.000229 0.000250 -0.693871
 15   8.209042 0.615527 -0.255885 1.570090 -0.000063 -0.051966
 16   7.002735 -0.617911 -0.183641 0.014485 0.003928 -0.504342
 17   1.574674 0.609930 -0.000899 0.000000 0.000008 -0.427832
 18   -0.602177 0.511412 -0.000006 0.000000 0.000000 0.000000
 19   3.673773 0.177020 1.119313 -0.000002 -0.000014 -0.174510
 20   3.673767 0.176993 -1.117566 0.000007 -0.000003 -0.174546
 21   3.942357 1.334540 1.627658 0.000002 -0.000011 -0.000026
 22   -0.246060 -0.011889 0.516521 -0.000011 0.000031 0.000025
 23   3.942374 1.334565 -1.631083 0.000019 0.000002 -0.000024
 24   -0.246150 -0.011872 -0.516511 -0.000005 -0.000006 0.000048
 25   4.941364 1.997338 1.629330 0.000018 -0.000001 -0.000024
 26   4.941382 1.997366 -1.629410 -0.000001 0.000005 -0.000024
 27   2.914462 1.623171 1.514501 -0.000019 -0.000022 -0.000050
 28   2.916892 1.618870 -1.501142 -0.000002 -0.000009 -0.000024
 29   8.824059 0.150544 0.091743 0.017563 0.046580 0.411410
 30   2.279059 -0.166636 1.749163 0.007206 0.028873 0.352678
 31   2.175979 -0.174558 -1.884850 0.007217 0.029554 0.352663
 32   -0.814395 -0.093824 3.127092 0.124972 -2.779065 0.056409
 33   14.298673 -0.408176 0.471578 -0.000088 -0.000041 -2.011739
 34   15.835795 0.581398 0.242756 0.383033 -0.005100 0.136007
 35   -0.815868 -0.091229 -3.114430 -0.066966 3.034539 -0.408921
 36   14.294526 -0.410349 -0.467541 0.000093 0.000048 -2.451353
 37   15.834409 0.579420 -0.284600 -0.123104 -0.028754 0.093280
 38   1.417037 -3.988922 -2.862877 -0.005999 -0.017534 0.257209
 39   -4.395240 -0.906412 -0.750086 0.001414 0.001115 0.035703
 40   1.282169 -3.981035 3.198226 -0.005999 -0.017533 0.257208
 41   -4.359619 -0.914594 0.955660 0.001413 0.001115 0.035703
 42   -0.649655 1.880901 -2.516734 0.006160 0.073842 -0.034838
 43   -0.558596 1.561855 2.662339 -0.021990 -0.093990 0.113590
time 18
  0   0.364523 -50.938698 -1.698900 -0.000991 -0.050320 -1.521384
  1   -1.093036 0.000002 -0.326057 -1.570599 -1.570425 -0.000219
  2   2.262337 0.113614 0.064702 -0.000052 0.000061 0.166366
  3   2.380047 0.353302 0.047440 0.000000 -0.000028 0.156939
  4   2.033756 0.190472 -0.000128 -0.000010 0.000024 0.130609
  5   2.451511 0.204909 -0.003447 0.000000 -0.000005 0.148110
  6   7.247600 -0.397300 -0.109469 0.000001 0.000009 0.052298
  7   -2.022252 -0.104661 3.136172 -0.159310 -1.174572 -3.047319
  8   1.168026 -0.537438 -0.063437 -0.570049 0.941447 -0.642409
  9   6.790376 -0.619176 0.015206 -0.000269 -0.000285 -0.660417
 10   8.637599 0.544015 -0.090417 -1.570112 0.000292 -0.052136
 11   6.790465 -0.619039 0.017802 -0.001013 -0.011310 -0.477461
 12   -2.022474 -0.104699 -2.873818 0.298873 1.361771 -2.901984
 13   1.167898 -0.537463 0.063297 0.939299 -1.179719 -0.974943
 14   7.002743 -0.617765 -0.183752 0.000229 0.000250 -0.693871
 15   8.209042 0.615527 -0.255885 1.570090 -0.000063 -0.051966
 16   7.002735 -0.617911 -0.183641 0.014485 0.003928 -0.504342
 17   1.574674 0.609930 -0.000899 0.000000 0.000008 -0.427832
 18   -0.602177 0.511412 -0.000006 0.000000 0.000000 0.000000
 19   3.673773 0.180927 1.119313 -0.000002 -0.000014 -0.174510
 20   3.673767 0.176993 -1.117566 0.000007 -0.000003 -0.174546
 21   3.942357 1.334540 1.627658 0.000002 -0.000011 -0.000026
 22   -0.246060 -0.011889 0.516521 -0.000011 0.000031 0.000025
 23   3.938468 1.334565 -1.631083 0.000019 0.000002 -0.000024
 24   -0.246150 -0.011872 -0.516511 -0.000005 -0.000006 0.000048
 25   4.941364 1.997338 1.629330 0.000018 -0.000001 -0.000024
 26   4.941382 1.997366 -1.629410 -0.000001 0.000005 -0.000024
 27   2.914462 1.619264 1.514501 -0.000019 -0.000022 -0.000050
 28   2.916892 1.618870 -1.501142 -0.000002 -0.000009 -0.000024
 29   8.824059 0.150544 0.091743 0.016583 0.043850 0.377290
 30   2.267340 -0.190074 1.753069 0.006786 0.027129 0.332136
 31   2.175979 -0.197997 -1.884850 0.006803 0.027818 0.332120
 32   -0.814395 -0.093824 3.127092 0.174559 -2.759104 -0.007628
 33   14.298673 -0.408176 0.471578 -0.000088 -0.000041 -2.089470
 34   15.835795 0.581398 0.242756 0.418273 -0.020425 0.157000
 35   -0.815868 -0.091229 -3.114430 -0.074271 3.033133 -0.417138
 36   14.294526 -0.410349 -0.467541 0.000093 0.000048 -2.480705
 37   15.834409 0.579420 -0.284600 -0.128975 -0.025503 0.114676
 38   1.417037 -3.992828 -2.862877 -0.006167 -0.017871 0.246090
 39   -4.395240 -0.906412 -0.750086 0.000971 0.000815 0.022213
 40   1.282169 -3.981035 3.198226 -0.006167 -0.017870 0.246089
 41   -4.363525 -0.914594 0.955660 0.000970 0.000815 0.022213
 42   -0.645749 1.927778 -2.493295 0.006831 0.083502 -0.053825
 43   -0.539064 1.569668 2.631088 -0.025325 -0.108159 0.103510
time 19
  0   0.356710 -53.780994 -1.687180 -0.000991 -0.063300 -1.531454
  1   -1.093036 0.000002 -0.326057 -1.570494 -1.570425 -0.000219
  2   2.262337 0.113614 0.064702 -0.000052 0.000061 0.166366
  3   2.380047 0.353302 0.047440 0.000000 -0.000028 0.156939
  4   2.033756 0.190472 -0.000128 -0.000010 0.000024 0.130609
  5   2.451511 0.204909 -0.003447 0.000000 -0.000005 0.148110
  6   7.247600 -0.397300 -0.109469 0.000001 0.000009 0.052298
  7   -2.022252 -0.104661 3.136172 -0.159310 -1.174572 -3.047413
  8   1.168026 -0.537438 -0.063437 -0.570049 0.941447 -0.642409
  9   6.790376 -0.619176 0.015206 -0.000269 -0.000285 -0.660417
 10   8.637599 0.544015 -0.090417 -1.570112 0.000292 -0.052136
 11   6.790465 -0.619039 0.017802 -0.001013 -0.011310 -0.477461
 12   -2.022474 -0.104699 -2.873818 0.298873 1.361771 -2.901984
 13   1.167898 -0.537463 0.063297 0.939299 -1.179719 -0.974943
 14   7.002743 -0.617765 -0.183752 0.000229 0.000250 -0.693871
 15   8.209042 0.615527 -0.255885 1.570090 -0.000063 -0.051966
 16   7.002735 -0.617911 -0.183641 0.014485 0.003928 -0.504342
 17   1.574674 0.609930 -0.000899 0.000000 0.000008 -0.427832
 18   -0.602177 0.511412 -0.000006 0.000000 0.000000 0.000000
 19   3.673773 0.180927 1.119313 -0.000002 -0.000014 -0.174510
 20   3.673767 0.176993 -1.117566 0.000007 -0.000003 -0.174546
 21   3.942357 1.338447 1.627658 0.000002 -0.000011 -0.000026
 22   -0.246060 -0.011889 0.516521 -0.000011 0.000031 0.000025
 23   3.942374 1.338472 -1.631083 0.000019 0.000002 -0.000024
 24   -0.246150 -0.011872 -0.516511 -0.000005 -0.000006 0.000048
 25   4.941364 1.997338 1.629330 0.000018 -0.000001 -0.000024
 26   4.941382 1.997366 -1.629410 -0.000001 0.000005 -0.000024
 27   2.914462 1.619264 1.514501 -0.000019 -0.000022 -0.000050
 28   2.916892 1.622777 -1.501142 -0.000002 -0.000009 -0.000024
 29   8.824059 0.150544 0.091743 0.015246 0.040337 0.333299
 30   2.255620 -0.217418 1.756975 0.006243 0.024921 0.305675
 31   2.168166 -0.229248 -1.880944 0.006251 0.025617 0.305646
 32   -0.814395 -0.093824 3.127092 0.199819 -2.748693 -0.039277
 33   14.298673 -0.408176 0.471578 -0.000088 -0.000041 -2.129248
 34   15.835795 0.581398 0.242756 0.437480 -0.027502 0.169349
 35   -0.815868 -0.091229 -3.114430 -0.078848 3.031728 -0.416974
 36   14.294526 -0.410349 -0.467541 0.000093 0.000048 -2.495305
 37   15.834409 0.579420 -0.284600 -0.133053 -0.023660 0.126946
 38   1.420944 -3.992828 -2.862877 -0.006294 -0.018148 0.237781
 39   -4.395240 -0.906412 -0.750086 0.000623 0.000563 0.012312
 40   1.282169 -3.981035 3.198226 -0.006294 -0.018147 0.237780
 41   -4.363525 -0.910688 0.955660 0.000622 0.000563 0.012312
 42   -0.641843 1.962935 -2.477670 0.007287 0.090033 -0.066749
 43   -0.527345 1.577481 2.607650 -0.027587 -0.117778 0.092804
time 20
  0   0.356710 -56.615482 -1.679368 -0.000991 -0.075213 -1.541334
  1   -1.093036 0.000002 -0.326057 -1.570494 -1.570425 -0.000219
  2   2.262337 0.113614 0.064702 -0.000052 0.000061 0.166366
  3   2.380047 0.353302 0.047440 0.000000 -0.000028 0.156939
  4   2.033756 0.190472 -0.000128 -0.000010 0.000024 0.130609
  5   2.451511 0.204909 -0.003447 0.000000 -0.000005 0.148110
  6   7.247600 -0.397300 -0.109469 0.000001 0.000009 0.052298
  7   -2.022252 -0.104661 3.136172 -0.159310 -1.174572 -3.047413
  8   1.168026 -0.537438 -0.063437 -0.570049 0.941447 -0.642409
  9   6.790376 -0.619176 0.015206 -0.000269 -0.000285 -0.660417
 10   8.637599 0.544015 -0.090417 -1.570112 0.000292 -0.052136
 11   6.790465 -0.619039 0.017802 -0.001013 -0.011310 -0.477461
 12   -2.022474 -0.104699 -2.873818 0.298873 1.361771 -2.901984
 13   1.167898 -0.537463 0.063297 0.939299 -1.179719 -0.974943
 14   7.002743 -0.617765 -0.183752 0.000229 0.000250 -0.693871
 15   8.209042 0.615527 -0.255885 1.570090 -0.000063 -0.051966
 16   7.002735 -0.617911 -0.183641 0.014485 0.003928 -0.504342
 17   1.574674 0.609930 -0.000899 0.000000 0.000008 -0.427832
 18   -0.602177 0.511412 -0.000006 0.000000 0.000000 0.000000
 19   3.673773 0.180927 1.119313 -0.000002 -0.000014 -0.174510
 20   3.673767 0.176993 -1.117566 0.000007 -0.000003 -0.174546
 21   3.942357 1.334540 1.627658 0.000002 -0.000011 -0.000026
 22   -0.246060 -0.011889 0.516521 -0.000011 0.000031 0.000025
 23   3.942374 1.334565 -1.631083 0.000019 0.000002 -0.000024
 24   -0.246150 -0.011872 -0.516511 -0.000005 -0.000006 0.000048
 25   4.941364 1.997338 1.629330 0.000018 -0.000001 -0.000024
 26   4.941382 1.997366 -1.629410 -0.000001 0.000005 -0.000024
 27   2.914462 1.619264 1.514501 -0.000019 -0.000022 -0.000050
 28   2.916892 1.618870 -1.501142 -0.000002 -0.000009 -0.000024
 29   8.824059 0.150544 0.091743 0.013642 0.036207 0.281636
 30   2.239995 -0.252576 1.756975 0.005606 0.022305 0.274582
 31   2.164260 -0.260499 -1.877037 0.005623 0.023000 0.274568
 32   -0.814395 -0.093824 3.127092 0.222096 -2.740480 -0.068648
 33   14.298673 -0.408176 0.471578 -0.000088 -0.000041 -2.165771
 34   15.835795 0.581398 0.242756 0.454594 -0.031602 0.180904
 35   -0.815868 -0.091229 -3.114430 -0.083513 3.029198 -0.415440
 36   14.294526 -0.410349 -0.467541 0.000093 0.000048 -2.503338
 37   15.834409 0.579420 -0.284600 -0.138176 -0.021843 0.139621
 38   1.420944 -3.992828 -2.862877 -0.006399 -0.018341 0.233260
 39   -4.395240 -0.906412 -0.750086 0.000407 0.000395 0.007292
 40   1.282169 -3.981035 3.198226 -0.006399 -0.018340 0.233259
 41   -4.367432 -0.910688 0.955660 0.000406 0.000395 0.007292
 42   -0.637936 1.974654 -2.469857 0.007454 0.092441 -0.071516
 43   -0.523439 1.589200 2.603744 -0.028424 -0.121324 0.081554
time 21
  0   0.325459 -59.469498 -1.659836 -0.000248 -0.095661 -1.559099
  1   -1.093036 0.000002 -0.326057 -1.570599 -1.570425 -0.000219
  2   2.262337 0.113614 0.064702 -0.000052 0.000061 0.166366
  3   2.380047 0.353302 0.047440 0.000000 -0.000028 0.156939
  4   2.033756 0.190472 -0.000128 -0.000010 0.000024 0.130609
  5   2.451511 0.204909 -0.003447 0.000000 -0.000005 0.148110
  6   7.247600 -0.397300 -0.109469 0.000001 0.000009 0.052298
  7   -2.022252 -0.104661 3.136172 -0.159310 -1.174572 -3.047319
  8   1.168026 -0.537438 -0.063437 -0.570049 0.941447 -0.642409
  9   6.790376 -0.619176 0.015206 -0.000269 -0.000285 -0.660417
 10   8.637599 0.544015 -0.090417 -1.570112 0.000292 -0.052136
 11   6.790465 -0.619039 0.017802 -0.001013 -0.011310 -0.477461
 12   -2.022474 -0.104699 -2.873818 0.298873 1.361771 -2.901984
 13   1.167898 -0.537463 0.063297 0.939299 -1.179719 -0.974943
 14   7.002743 -0.617765 -0.183752 0.000229 0.000250 -0.693871
 15   8.209042 0.615527 -0.255885 1.570090 -0.000063 -0.051966
 16   7.002735 -0.617911 -0.183641 0.014485 0.003928 -0.504342
 17   1.574674 0.609930 -0.000899 0.000000 0.000008 -0.427832
 18   -0.602177 0.511412 -0.000006 0.000000 0.000000 0.000000
 19   3.673773 0.180927 1.119313 -0.000002 -0.000014 -0.174510
 20   3.673767 0.176993 -1.117566 0.000007 -0.000003 -0.174546
 21   3.942357 1.338447 1.627658 0.000002 -0.000011 -0.000026
 22   -0.246060 -0.011889 0.516521 -0.000011 0.000031 0.000025
 23   3.942374 1.334565 -1.631083 0.000019 0.000002 -0.000024
 24   -0.246150 -0.011872 -0.516511 -0.000005 -0.000006 0.000048
 25   4.941364 1.997338 1.629330 0.000018 -0.000001 -0.000024
 26   4.941382 1.997366 -1.629410 -0.000001 0.000005 -0.000024
 27   2.914462 1.623171 1.514501 -0.000019 -0.000022 -0.000050
 28   2.920798 1.622777 -1.501142 -0.000002 -0.000009 -0.000024
 29   8.824059 0.150544 0.091743 0.011949 0.031625 0.224554
 30   2.224370 -0.291640 1.760882 0.004901 0.019428 0.240209
 31   2.160354 -0.299562 -1.873131 0.004918 0.020125 0.240196
 32   -0.814395 -0.093824 3.127092 0.261243 -2.729687 -0.125400
 33   14.298673 -0.408176 0.471578 -0.000088 -0.000041 -2.232942
 34   15.835795 0.581398 0.242756 0.482888 -0.036825 0.199074
 35   -0.815868 -0.091229 -3.114430 -0.090554 3.023952 -0.400376
 36   14.294526 -0.410349 -0.467541 0.000093 0.000048 -2.510522
 37   15.834409 0.579420 -0.284600 -0.147476 -0.018797 0.162437
 38   1.420944 -3.992828 -2.862877 -0.006462 -0.018461 0.231183
 39   -4.395240 -0.910318 -0.750086 0.000300 0.000288 0.005301
 40   1.282169 -3.981035 3.198226 -0.006462 -0.018461 0.231182
 41   -4.371338 -0.918501 0.955660 0.000299 0.000288 0.005301
 42   -0.641843 1.966841 -2.477670 0.007251 0.089849 -0.069509
 43   -0.527345 1.600919 2.607650 -0.027624 -0.117919 0.070052
time 22
  0   0.317646 -62.319607 -1.648117 0.000000 -0.104640 -1.571354
  1   -1.093036 0.000002 -0.326057 -1.570651 -1.570425 -0.000219
  2   2.262337 0.113614 0.064702 -0.000052 0.000061 0.166366
  3   2.380047 0.353302 0.047440 0.000000 -0.000028 0.156939
  4   2.033756 0.190472 -0.000128 -0.000010 0.000024 0.130609
  5   2.451511 0.204909 -0.003447 0.000000 -0.000005 0.148110
  6   7.247600 -0.397300 -0.109469 0.000001 0.000009 0.052298
  7   -2.022252 -0.104661 3.136172 -0.159310 -1.174572 -3.047319
  8   1.168026 -0.537438 -0.063437 -0.570049 0.941548 -0.642409
  9   6.790376 -0.619176 0.015206 -0.000269 -0.000285 -0.660417
 10   8.637599 0.544015 -0.090417 -1.570112 0.000292 -0.052136
 11   6.790465 -0.619039 0.017802 -0.001013 -0.011310 -0.477461
 12   -2.022474 -0.104699 -2.873818 0.298873 1.361771 -2.901984
 13   1.167898 -0.537463 0.063297 0.939299 -1.179719 -0.974943
 14   7.002743 -0.617765 -0.183752 0.000229 0.000250 -0.693871
 15   8.209042 0.615527 -0.255885 1.570090 -0.000063 -0.051966
 16   7.002735 -0.617911 -0.183641 0.014485 0.003928 -0.504342
 17   1.574674 0.609930 -0.000899 0.000000 0.000008 -0.427832
 18   -0.602177 0.511412 -0.000006 0.000000 0.000000 0.000000
 19   3.673773 0.180927 1.119313 -0.000002 -0.000014 -0.174510
 20   3.673767 0.176993 -1.117566 0.000007 -0.000003 -0.174546
 21   3.942357 1.334540 1.627658 0.000002 -0.000011 -0.000026
 22   -0.246060 -0.011889 0.516521 -0.000011 0.000031 0.000025
 23   3.942374 1.334565 -1.631083 0.000019 0.000002 -0.000024
 24   -0.246150 -0.011872 -0.516511 -0.000005 -0.000006 0.000048
 25   4.941364 1.997338 1.629330 0.000018 -0.000001 -0.000024
 26   4.941382 1.997366 -1.629410 -0.000001 0.000005 -0.000024
 27   2.914462 1.623171 1.514501 -0.000019 -0.000022 -0.000050
 28   2.916892 1.622777 -1.501142 -0.000002 -0.000009 -0.000024
 29   8.824059 0.150544 0.091743 0.010166 0.026807 0.164146
 30   2.204838 -0.334610 1.764788 0.004155 0.016377 0.203863
 31   2.152541 -0.338626 -1.873131 0.004168 0.017069 0.203842
 32   -0.814395 -0.093824 3.127092 0.286223 -2.732170 -0.177996
 33   14.298673 -0.408176 0.471578 -0.000088 -0.000041 -2.284392
 34   15.835795 0.581398 0.242756 0.494090 -0.035312 0.203132
 35   -0.815868 -0.091229 -3.114430 -0.091610 3.016738 -0.368769
 36   14.294526 -0.410349 -0.467541 0.000093 0.000048 -2.493451
 37   15.834409 0.579420 -0.284600 -0.153839 -0.017901 0.177040
 38   1.420944 -3.992828 -2.862877 -0.006525 -0.018570 0.229533
 39   -4.399147 -0.922037 -0.750086 0.000204 0.000204 0.003730
 40   1.282169 -3.981035 3.198226 -0.006525 -0.018569 0.229532
 41   -4.375244 -0.926313 0.955660 0.000203 0.000204 0.003730
 42   -0.641843 1.943403 -2.493295 0.006675 0.082827 -0.064072
 43   -0.539064 1.616544 2.631088 -0.025463 -0.108693 0.058468
time 23
  0   0.317646 -65.165810 -1.659836 0.000000 -0.099306 -1.574204
  1   -1.093036 0.000002 -0.326057 -1.570599 -1.570425 -0.000268
  2   2.262337 0.113614 0.064702 -0.000052 0.000061 0.166366
  3   2.380047 0.353302 0.047440 0.000000 -0.000028 0.156939
  4   2.033756 0.190472 -0.000128 -0.000010 0.000024 0.130609
  5   2.451511 0.204909 -0.003447 0.000000 -0.000005 0.148110
  6   7.247600 -0.397300 -0.109469 0.000001 0.000009 0.052298
  7   -2.022252 -0.104661 3.136172 -0.159310 -1.174572 -3.047319
  8   1.168026 -0.537438 -0.063437 -0.570049 0.941447 -0.642409
  9   6.790376 -0.619176 0.015206 -0.000269 -0.000285 -0.660417
 10   8.637599 0.544015 -0.090417 -1.570112 0.000292 -0.052136
 11   6.790465 -0.619039 0.017802 -0.001013 -0.011310 -0.477461
 12   -2.022474 -0.104699 -2.873818 0.298873 1.361742 -2.901984
 13   1.167898 -0.537463 0.063297 0.939299 -1.179719 -0.974943
 14   7.002743 -0.617765 -0.183752 0.000229 0.000250 -0.693871
 15   8.209042 0.615527 -0.255885 1.570090 -0.000063 -0.051966
 16   7.002735 -0.617911 -0.183641 0.014485 0.003928 -0.504342
 17   1.574674 0.609930 -0.000899 0.000000 0.000008 -0.427832
 18   -0.602177 0.511412 -0.000006 0.000000 0.000000 0.000000
 19   3.673773 0.180927 1.119313 -0.000002 -0.000014 -0.174510
 20   3.673767 0.176993 -1.117566 0.000007 -0.000003 -0.174546
 21   3.942357 1.338447 1.627658 0.000002 -0.000011 -0.000026
 22   -0.246060 -0.011889 0.516521 -0.000011 0.000031 0.000025
 23   3.942374 1.338472 -1.631083 0.000019 0.000002 -0.000024
 24   -0.246150 -0.011872 -0.516511 -0.000005 -0.000006 0.000048
 25   4.941364 1.997338 1.629330 0.000018 -0.000001 -0.000024
 26   4.941382 1.997366 -1.629410 -0.000001 0.000005 -0.000024
 27   2.914462 1.623171 1.514501 -0.000019 -0.000022 -0.000050
 28   2.920798 1.622777 -1.501142 -0.000002 -0.000009 -0.000024
 29   8.824059 0.150544 0.091743 0.008294 0.021893 0.102666
 30   2.189212 -0.373673 1.768695 0.003396 0.013267 0.166852
 31   2.148634 -0.381596 -1.869224 0.003417 0.013961 0.166832
 32   -0.814395 -0.093824 3.127092 0.294519 -2.749171 -0.226721
 33   14.298673 -0.408176 0.471578 -0.000088 -0.000041 -2.318772
 34   15.835795 0.581398 0.242756 0.485602 -0.027795 0.189548
 35   -0.815868 -0.091229 -3.114430 -0.085801 3.007463 -0.310486
 36   14.294526 -0.410349 -0.467541 0.000093 0.000048 -2.440538
 37   15.834409 0.579420 -0.284600 -0.158056 -0.019437 0.182972
 38   1.420944 -3.992828 -2.862877 -0.006567 -0.018642 0.228250
 39   -4.406960 -0.937663 -0.750086 0.000132 0.000132 0.002496
 40   1.282169 -3.981035 3.198226 -0.006567 -0.018641 0.228249
 41   -4.383057 -0.945845 0.955660 0.000143 0.000132 0.002496
 42   -0.645749 1.912152 -2.520640 0.005848 0.072478 -0.056042
 43   -0.554690 1.632170 2.658433 -0.022289 -0.095119 0.047176
time 24
  0   0.321552 -68.019829 -1.663742 0.000000 -0.093882 -1.573159
  1   -1.093036 0.000002 -0.326057 -1.570494 -1.570425 -0.000316
  2   2.262337 0.113614 0.064702 -0.000052 0.000061 0.166366
  3   2.380047 0.353302 0.047440 0.000000 -0.000028 0.156939
  4   2.033756 0.190472 -0.000128 -0.000010 0.000024 0.130609
  5   2.451511 0.204909 -0.003447 0.000000 -0.000005 0.148110
  6   7.247600 -0.397300 -0.109469 0.000001 0.000009 0.052298
  7   -2.022252 -0.104661 3.136172 -0.159310 -1.174572 -3.047319
  8   1.168026 -0.537438 -0.063437 -0.570049 0.941447 -0.642409
  9   6.790376 -0.619176 0.015206 -0.000269 -0.000285 -0.660417
 10   8.637599 0.544015 -0.090417 -1.570112 0.000292 -0.052136
 11   6.790465 -0.619039 0.017802 -0.001013 -0.011310 -0.477461
 12   -2.022474 -0.104699 -2.873818 0.298873 1.361742 -2.901888
 13   1.167898 -0.537463 0.063297 0.939299 -1.179719 -0.974943
 14   7.002743 -0.617765 -0.183752 0.000229 0.000250 -0.693871
 15   8.209042 0.615527 -0.255885 1.570090 -0.000063 -0.051966
 16   7.002735 -0.617911 -0.183641 0.014485 0.003928 -0.504342
 17   1.574674 0.609930 -0.000899 0.000000 0.000008 -0.427832
 18   -0.602177 0.511412 -0.000006 0.000000 0.000000 0.000000
 19   3.673773 0.177020 1.119313 -0.000002 -0.000014 -0.174510
 20   3.673767 0.176993 -1.117566 0.000007 -0.000003 -0.174546
 21   3.942357 1.334540 1.627658 0.000002 -0.000011 -0.000026
 22   -0.246060 -0.011889 0.516521 -0.000011 0.000031 0.000025
 23   3.942374 1.334565 -1.631083 0.000019 0.000002 -0.000024
 24   -0.246150 -0.011872 -0.516511 -0.000005 -0.000006 0.000048
 25   4.941364 1.997338 1.629330 0.000018 -0.000001 -0.000024
 26   4.941382 1.997366 -1.629410 -0.000001 0.000005 -0.000024
 27   2.914462 1.619264 1.514501 -0.000019 -0.000022 -0.000050
 28   2.916892 1.618870 -1.501142 -0.000002 -0.000009 -0.000024
 29   8.824059 0.150544 0.091743 0.006512 0.017074 0.042258
 30   2.173587 -0.416643 1.772601 0.002663 0.010245 0.130484
 31   2.140822 -0.420660 -1.865318 0.002666 0.010930 0.130478
 32   -0.814395 -0.093824 3.127092 0.294333 -2.759963 -0.250685
 33   14.298673 -0.408176 0.471578 -0.000088 -0.000041 -2.333222
 34   15.835795 0.581398 0.242756 0.477965 -0.023037 0.179801
 35   -0.815868 -0.091229 -3.114430 -0.081313 3.001841 -0.274059
 36   14.294526 -0.410349 -0.467541 0.000105 0.000060 -2.405933
 37   15.834409 0.579420 -0.284600 -0.160243 -0.020640 0.184188
 38   1.420944 -3.992828 -2.862877 -0.006588 -0.018702 0.227334
 39   -4.418678 -0.957195 -0.746180 0.000084 0.000084 0.001571
 40   1.278262 -3.981035 3.198226 -0.006588 -0.018702 0.227333
 41   -4.394776 -0.965377 0.959566 0.000083 0.000084 0.001571
 42   -0.645749 1.876995 -2.547985 0.004830 0.059905 -0.046339
 43   -0.574221 1.647795 2.697497 -0.018416 -0.078612 0.036427
time 25
  0   0.329365 -70.869934 -1.675461 0.000000 -0.084281 -1.570119
  1   -1.093036 0.000002 -0.326057 -1.570599 -1.570425 -0.000219
  2   2.262337 0.113614 0.064702 -0.000052 0.000061 0.166366
  3   2.380047 0.353302 0.047440 0.000000 -0.000028 0.156939
  4   2.033756 0.190472 -0.000128 -0.000010 0.000024 0.130609
  5   2.451511 0.204909 -0.003447 0.000000 -0.000005 0.148110
  6   7.247600 -0.397300 -0.109469 0.000001 0.000009 0.052298
  7   -2.022252 -0.104661 3.136172 -0.159310 -1.174572 -3.047319
  8   1.168026 -0.537438 -0.063437 -0.570049 0.941447 -0.642409
  9   6.790376 -0.619176 0.015206 -0.000269 -0.000285 -0.660417
 10   8.637599 0.544015 -0.090417 -1.570112 0.000292 -0.052136
 11   6.790465 -0.619039 0.017802 -0.001013 -0.011310 -0.477461
 12   -2.022474 -0.104699 -2.873818 0.298873 1.361771 -2.901984
 13   1.167898 -0.537463 0.063297 0.939299 -1.179719 -0.974943
 14   7.002743 -0.617765 -0.183752 0.000229 0.000250 -0.693871
 15   8.209042 0.615527 -0.255885 1.570090 -0.000063 -0.051966
 16   7.002735 -0.617911 -0.183641 0.014485 0.003928 -0.504342
 17   1.574674 0.609930 -0.000899 0.000000 0.000008 -0.427832
 18   -0.602177 0.511412 -0.000006 0.000000 0.000000 0.000000
 19   3.673773 0.177020 1.119313 -0.000002 -0.000014 -0.174510
 20   3.673767 0.176993 -1.117566 0.000007 -0.000003 -0.174546
 21   3.942357 1.334540 1.627658 0.000002 -0.000011 -0.000026
 22   -0.246060 -0.011889 0.516521 -0.000011 0.000031 0.000025
 23   3.942374 1.338472 -1.631083 0.000019 0.000002 -0.000024
 24   -0.246150 -0.011872 -0.516511 -0.000005 -0.000006 0.000048
 25   4.941364 1.997338 1.629330 0.000018 -0.000001 -0.000024
 26   4.941382 1.997366 -1.629410 -0.000001 0.000005 -0.000024
 27   2.914462 1.619264 1.514501 -0.000019 -0.000022 -0.000050
 28   2.916892 1.622777 -1.501142 -0.000002 -0.000009 -0.000024
 29   8.824059 0.150544 0.091743 0.004730 0.012516 -0.014877
 30   2.154055 -0.455707 1.776507 0.001958 0.007339 0.096111
 31   2.136915 -0.455817 -1.861412 0.001961 0.008055 0.096088
 32   -0.814395 -0.093824 3.127092 0.290604 -2.774671 -0.272828
 33   14.298673 -0.408176 0.471578 -0.000088 -0.000041 -2.341956
 34   15.835795 0.581398 0.242756 0.464048 -0.017082 0.165203
 35   -0.815868 -0.091229 -3.114430 -0.074271 2.995095 -0.225197
 36   14.294526 -0.410349 -0.467541 0.000093 0.000048 -2.356883
 37   15.834409 0.579420 -0.284600 -0.162745 -0.022201 0.184341
 38   1.420944 -3.992828 -2.862877 -0.006609 -0.018739 0.226600
 39   -4.426491 -0.980633 -0.746180 0.000048 0.000048 0.000897
 40   1.278262 -3.981035 3.198226 -0.006609 -0.018738 0.226600
 41   -4.402589 -0.984909 0.959566 0.000047 0.000048 0.000897
 42   -0.649655 1.834025 -2.579236 0.003727 0.046214 -0.035758
 43   -0.593753 1.659514 2.736560 -0.014206 -0.060661 0.026515
time 26
  0   0.325458 -73.712234 -1.679368 -0.000083 -0.062322 -1.564229
  1   -1.093036 0.000002 -0.326057 -1.570599 -1.570425 -0.000268
  2   2.262337 0.113614 0.064702 -0.000052 0.000061 0.166366
  3   2.380047 0.353302 0.047440 0.000000 -0.000028 0.156939
  4   2.033756 0.190472 -0.000128 -0.000010 0.000024 0.130609
  5   2.451511 0.204909 -0.003447 0.000000 -0.000005 0.148110
  6   7.247600 -0.397300 -0.109469 0.000001 0.000009 0.052298
  7   -2.022252 -0.104661 3.136172 -0.159310 -1.174572 -3.047319
  8   1.168026 -0.537438 -0.063437 -0.570049 0.941548 -0.642409
  9   6.790376 -0.619176 0.015206 -0.000269 -0.000285 -0.660417
 10   8.637599 0.544015 -0.090417 -1.570112 0.000292 -0.052136
 11   6.790465 -0.619039 0.017802 -0.001013 -0.011310 -0.477461
 12   -2.022474 -0.104699 -2.873818 0.298873 1.361771 -2.901984
 13   1.167898 -0.537463 0.063297 0.939299 -1.179719 -0.974943
 14   7.002743 -0.617765 -0.183752 0.000229 0.000250 -0.693871
 15   8.209042 0.615527 -0.255885 1.570090 -0.000063 -0.051966
 16   7.002735 -0.617911 -0.183641 0.014485 0.003928 -0.504342
 17   1.574674 0.609930 -0.000899 0.000000 0.000008 -0.427832
 18   -0.602177 0.511412 -0.000006 0.000000 0.000000 0.000000
 19   3.673773 0.180927 1.119313 -0.000002 -0.000014 -0.174510
 20   3.673767 0.180900 -1.117566 0.000007 -0.000003 -0.174546
 21   3.942357 1.338447 1.627658 0.000002 -0.000011 -0.000026
 22   -0.246060 -0.011889 0.516521 -0.000011 0.000031 0.000025
 23   3.942374 1.338472 -1.631083 0.000019 0.000002 -0.000024
 24   -0.246150 -0.011872 -0.516511 -0.000005 -0.000006 0.000048
 25   4.941364 1.997338 1.629330 0.000018 -0.000001 -0.000024
 26   4.941382 1.997366 -1.629410 -0.000001 0.000005 -0.000024
 27   2.914462 1.623171 1.514501 -0.000019 -0.000022 -0.000050
 28   2.916892 1.618870 -1.501142 -0.000002 -0.000009 -0.000024
 29   8.824059 0.150544 0.091743 0.003214 0.008386 -0.066540
 30   2.138430 -0.490864 1.780414 0.001321 0.004752 0.065040
 31   2.129103 -0.490974 -1.857505 0.001318 0.005439 0.065010
 32   -0.814395 -0.093824 3.127092 0.278394 -2.803992 -0.314893
 33   14.298673 -0.408176 0.471578 -0.000088 -0.000041 -2.357677
 34   15.835795 0.581398 0.242756 0.434283 -0.005344 0.135125
 35   -0.815868 -0.091229 -3.114430 -0.058957 2.982448 -0.124461
 36   14.294526 -0.410349 -0.467541 0.000093 0.000048 -2.255153
 37   15.834409 0.579420 -0.284600 -0.168104 -0.025068 0.183174
 38   1.420944 -3.992828 -2.862877 -0.006630 -0.018775 0.226173
 39   -4.438210 -1.004071 -0.746180 0.000024 0.000024 0.000449
 40   1.278262 -3.981035 3.198226 -0.006630 -0.018774 0.226172
 41   -4.414308 -1.008347 0.959566 0.000023 0.000024 0.000449
 42   -0.653562 1.794961 -2.614393 0.002625 0.032537 -0.025135
 43   -0.617192 1.671233 2.775624 -0.010008 -0.042694 0.017733
time 27
  0   0.325458 -76.558449 -1.706712 -0.000083 -0.040096 -1.562899
  1   -1.093036 0.000002 -0.326057 -1.570494 -1.570425 -0.000316
  2   2.262337 0.113614 0.064702 -0.000052 0.000061 0.166366
  3   2.380047 0.353302 0.047440 0.000000 -0.000028 0.156939
  4   2.033756 0.190472 -0.000128 -0.000010 0.000024 0.130609
  5   2.451511 0.204909 -0.003447 0.000000 -0.000005 0.148110
  6   7.247600 -0.397300 -0.109469 0.000001 0.000009 0.052298
  7   -2.022252 -0.104661 3.136172 -0.159310 -1.174572 -3.047413
  8   1.168026 -0.537438 -0.063437 -0.570049 0.941548 -0.642409
  9   6.790376 -0.619176 0.015206 -0.000269 -0.000285 -0.660417
 10   8.637599 0.544015 -0.090417 -1.570112 0.000292 -0.052136
 11   6.790465 -0.619039 0.017802 -0.001013 -0.011310 -0.477461
 12   -2.022474 -0.104699 -2.873818 0.298873 1.361771 -2.901984
 13   1.167898 -0.537463 0.063297 0.939299 -1.179719 -0.974943
 14   7.002743 -0.617765 -0.183752 0.000229 0.000250 -0.693871
 15   8.209042 0.615527 -0.255885 1.570090 -0.000063 -0.051966
 16   7.002735 -0.617911 -0.183641 0.014485 0.003928 -0.504342
 17   1.574674 0.609930 -0.000899 0.000000 0.000008 -0.427832
 18   -0.602177 0.511412 -0.000006 0.000000 0.000000 0.000000
 19   3.673773 0.180927 1.119313 -0.000002 -0.000014 -0.174510
 20   3.673767 0.176993 -1.117566 0.000007 -0.000003 -0.174546
 21   3.942357 1.334540 1.627658 0.000002 -0.000011 -0.000026
 22   -0.246060 -0.011889 0.516521 -0.000011 0.000031 0.000025
 23   3.938468 1.338472 -1.631083 0.000019 0.000002 -0.000024
 24   -0.246150 -0.011872 -0.516511 -0.000005 -0.000006 0.000048
 25   4.941364 1.997338 1.629330 0.000018 -0.000001 -0.000024
 26   4.941382 1.997366 -1.629410 -0.000001 0.000005 -0.000024
 27   2.914462 1.619264 1.514501 -0.000019 -0.000022 -0.000050
 28   2.916892 1.618870 -1.501142 -0.000002 -0.000009 -0.000024
 29   8.824059 0.150544 0.091743 0.001878 0.004873 -0.110532
 30   2.126710 -0.518209 1.784320 0.000778 0.002544 0.038557
 31   2.125196 -0.522225 -1.853599 0.000781 0.003212 0.038536
 32   -0.814395 -0.093824 3.127092 0.260964 -2.833026 -0.352633
 33   14.298673 -0.408176 0.471578 -0.000088 -0.000041 -2.369825
 34   15.835795 0.581398 0.242756 0.401596 0.006028 0.104739
 35   -0.815868 -0.091229 -3.114430 -0.041794 2.970924 -0.018740
 36   14.294526 -0.410349 -0.467541 0.000093 0.000048 -2.148401
 37   15.834409 0.579420 -0.284600 -0.173719 -0.027807 0.181298
 38   1.420944 -3.992828 -2.862877 -0.006630 -0.018787 0.225867
 39   -4.446023 -1.023603 -0.746180 0.000000 0.000000 0.000196
 40   1.278262 -3.981035 3.198226 -0.006630 -0.018786 0.225866
 41   -4.422121 -1.027879 0.959566 0.000011 0.000000 0.000196
 42   -0.653562 1.755898 -2.641737 0.001606 0.019965 -0.015432
 43   -0.636723 1.682953 2.814688 -0.006135 -0.026203 0.010414
time 28
  0   0.321552 -79.400742 -1.722338 0.000000 -0.019737 -1.571354
  1   -1.093036 0.000002 -0.326057 -1.570494 -1.570425 -0.000268
  2   2.262337 0.113614 0.064702 -0.000052 0.000061 0.166366
  3   2.380047 0.353302 0.047440 0.000000 -0.000028 0.156939
  4   2.033756 0.190472 -0.000128 -0.000010 0.000024 0.130609
  5   2.451511 0.204909 -0.003447 0.000000 -0.000005 0.148110
  6   7.247600 -0.397300 -0.109469 0.000001 0.000009 0.052298
  7   -2.022252 -0.104661 3.136172 -0.159310 -1.174572 -3.047319
  8   1.168026 -0.537438 -0.063437 -0.570049 0.941447 -0.642409
  9   6.790376 -0.619176 0.015206 -0.000269 -0.000285 -0.660417
 10   8.637599 0.544015 -0.090417 -1.570112 0.000292 -0.052136
 11   6.790465 -0.619039 0.017802 -0.001013 -0.011310 -0.477461
 12   -2.022474 -0.104699 -2.873818 0.298873 1.361771 -2.901888
 13   1.167898 -0.537463 0.063297 0.939299 -1.179719 -0.974943
 14   7.002743 -0.617765 -0.183752 0.000229 0.000250 -0.693871
 15   8.209042 0.615527 -0.255885 1.570090 -0.000063 -0.051966
 16   7.002735 -0.617911 -0.183641 0.014485 0.003928 -0.504342
 17   1.574674 0.609930 -0.000899 0.000000 0.000008 -0.427832
 18   -0.602177 0.511412 -0.000006 0.000000 0.000000 0.000000
 19   3.673773 0.180927 1.119313 -0.000002 -0.000014 -0.174510
 20   3.673767 0.176993 -1.117566 0.000007 -0.000003 -0.174546
 21   3.942357 1.334540 1.627658 0.000002 -0.000011 -0.000026
 22   -0.246060 -0.011889 0.516521 -0.000011 0.000031 0.000025
 23   3.942374 1.334565 -1.631083 0.000019 0.000002 -0.000024
 24   -0.246150 -0.011872 -0.516511 -0.000005 -0.000006 0.000048
 25   4.941364 1.997338 1.629330 0.000018 -0.000001 -0.000024
 26   4.941382 1.997366 -1.629410 -0.000001 0.000005 -0.000024
 27   2.914462 1.619264 1.514501 -0.000019 -0.000022 -0.000050
 28   2.916892 1.618870 -1.501142 -0.000002 -0.000009 -0.000024
 29   8.824059 0.150544 0.091743 0.000897 0.002143 -0.144652
 30   2.118898 -0.541647 1.784320 0.000358 0.000800 0.018036
 31   2.121290 -0.541757 -1.853599 0.000368 0.001502 0.017993
 32   -0.814395 -0.093824 3.127092 0.242974 -2.857954 -0.385306
 33   14.298673 -0.408176 0.471578 -0.000088 -0.000041 -2.381655
 34   15.835795 0.581398 0.242756 0.371072 0.016083 0.079909
 35   -0.815868 -0.091229 -3.114430 -0.025159 2.961555 0.080408
 36   14.294526 -0.410349 -0.467541 0.000093 0.000048 -2.049992
 37   15.834409 0.579420 -0.284600 -0.179492 -0.029521 0.180791
 38   1.420944 -3.992828 -2.862877 -0.006652 -0.018799 0.225745
 39   -4.453836 -1.039229 -0.746180 0.000000 0.000000 0.000056
 40   1.278262 -3.981035 3.198226 -0.006652 -0.018798 0.225744
 41   -4.429934 -1.047411 0.959566 -0.000001 0.000000 0.000056
 42   -0.657468 1.724647 -2.669082 0.000767 0.009615 -0.007403
 43   -0.652349 1.694672 2.842032 -0.002949 -0.012614 0.004810
time 29
  0   0.274675 -82.243042 -1.734057 0.000000 -0.005068 -1.621038
  1   -1.093036 0.000002 -0.326057 -1.570599 -1.570425 -0.000219
  2   2.262337 0.113614 0.064702 -0.000052 0.000061 0.166366
  3   2.380047 0.353302 0.047440 0.000000 -0.000028 0.156939
  4   2.033756 0.190472 -0.000128 -0.000010 0.000024 0.130609
  5   2.451511 0.204909 -0.003447 0.000000 -0.000005 0.148110
  6   7.247600 -0.397300 -0.109469 0.000001 0.000009 0.052298
  7   -2.022252 -0.104661 3.136172 -0.159310 -1.174572 -3.047319
  8   1.168026 -0.537438 -0.063437 -0.570049 0.941447 -0.642409
  9   6.790376 -0.619176 0.015206 -0.000269 -0.000285 -0.660417
 10   8.637599 0.544015 -0.090417 -1.570112 0.000292 -0.052136
 11   6.790465 -0.619039 0.017802 -0.001013 -0.011310 -0.477461
 12   -2.022474 -0.104699 -2.873818 0.298873 1.361742 -2.901792
 13   1.167898 -0.537463 0.063297 0.939299 -1.179719 -0.974943
 14   7.002743 -0.617765 -0.183752 0.000229 0.000250 -0.693871
 15   8.209042 0.615527 -0.255885 1.570090 -0.000063 -0.051966
 16   7.002735 -0.617911 -0.183641 0.014485 0.003928 -0.504342
 17   1.574674 0.609930 -0.000899 0.000000 0.000008 -0.427832
 18   -0.602177 0.511412 -0.000006 0.000000 0.000000 0.000000
 19   3.673773 0.177020 1.119313 -0.000002 -0.000014 -0.174510
 20   3.673767 0.176993 -1.117566 0.000007 -0.000003 -0.174546
 21   3.938451 1.334540 1.627658 0.000002 -0.000011 -0.000026
 22   -0.246060 -0.011889 0.516521 -0.000011 0.000031 0.000025
 23   3.938468 1.334565 -1.631083 0.000019 0.000002 -0.000024
 24   -0.246150 -0.011872 -0.516511 -0.000005 -0.000006 0.000048
 25   4.941364 1.997338 1.629330 0.000018 -0.000001 -0.000024
 26   4.941382 1.997366 -1.629410 -0.000001 0.000005 -0.000024
 27   2.914462 1.619264 1.514501 -0.000019 -0.000022 -0.000050
 28   2.916892 1.618870 -1.501142 -0.000002 -0.000009 -0.000024
 29   8.824059 0.150544 0.091743 0.000184 0.000386 -0.166701
 30   2.111085 -0.557273 1.784320 0.000087 -0.000304 0.004741
 31   2.121290 -0.557383 -1.853599 0.000092 0.000389 0.004711
 32   -0.814395 -0.093824 3.127092 0.223587 -2.870561 -0.394300
 33   14.298673 -0.408176 0.471578 -0.000088 -0.000041 -2.383640
 34   15.835795 0.581398 0.242756 0.348943 0.026064 0.069633
 35   -0.815868 -0.091229 -3.114430 -0.010989 2.955559 0.161862
 36   14.294526 -0.410349 -0.467541 0.000093 0.000048 -1.967264
 37   15.834409 0.579420 -0.284600 -0.184142 -0.029880 0.178561
 38   1.420944 -3.992828 -2.862877 -0.006652 -0.018799 0.225684
 39   -4.457742 -1.050948 -0.746180 0.000000 0.000000 0.000000
 40   1.278262 -3.981035 3.198226 -0.006652 -0.018798 0.225683
 41   -4.433840 -1.055224 0.959566 -0.000001 0.000000 0.000000
 42   -0.657468 1.701208 -2.684708 0.000204 0.002578 -0.001966
 43   -0.660162 1.698578 2.865470 -0.000787 -0.003387 0.001255
time 30
  0   0.243424 -84.882202 -1.741870 0.000000 0.000000 -1.659038
  1   -1.093036 0.000002 -0.326057 -1.570599 -1.570425 -0.000268
  2   2.262337 0.113614 0.064702 -0.000052 0.000061 0.166366
  3   2.380047 0.353302 0.047440 0.000000 -0.000028 0.156939
  4   2.033756 0.190472 -0.000128 -0.000010 0.000024 0.130609
  5   2.451511 0.204909 -0.003447 0.000000 -0.000005 0.148110
  6   7.247600 -0.397300 -0.109469 0.000001 0.000009 0.052298
  7   -2.022252 -0.104661 3.136172 -0.159310 -1.174572 -3.047319
  8   1.168026 -0.537438 -0.063437 -0.570049 0.941447 -0.642409
  9   6.790376 -0.619176 0.015206 -0.000269 -0.000285 -0.660417
 10   8.637599 0.544015 -0.090417 -1.570112 0.000292 -0.052136
 11   6.790465 -0.619039 0.017802 -0.001013 -0.011310 -0.477461
 12   -2.022474 -0.104699 -2.873818 0.298873 1.361742 -2.901888
 13   1.167898 -0.537463 0.063297 0.939299 -1.179719 -0.974943
 14   7.002743 -0.617765 -0.183752 0.000229 0.000250 -0.693871
 15   8.209042 0.615527 -0.255885 1.570090 -0.000063 -0.051966
 16   7.002735 -0.617911 -0.183641 0.014485 0.003928 -0.504342
 17   1.574674 0.609930 -0.000899 0.000000 0.000008 -0.427832
 18   -0.602177 0.511412 -0.000006 0.000000 0.000000 0.000000
 19   3.673773 0.180927 1.119313 -0.000002 -0.000014 -0.174510
 20   3.673767 0.176993 -1.117566 0.000007 -0.000003 -0.174546
 21   3.942357 1.334540 1.627658 0.000002 -0.000011 -0.000026
 22   -0.246060 -0.011889 0.516521 -0.000011 0.000031 0.000025
 23   3.938468 1.334565 -1.631083 0.000019 0.000002 -0.000024
 24   -0.246150 -0.011872 -0.516511 -0.000005 -0.000006 0.000048
 25   4.941364 1.997338 1.629330 0.000018 -0.000001 -0.000024
 26   4.941382 1.997366 -1.629410 -0.000001 0.000005 -0.000024
 27   2.914462 1.623171 1.514501 -0.000019 -0.000022 -0.000050
 28   2.916892 1.618870 -1.501142 -0.000002 -0.000009 -0.000024
 29   8.824059 0.150544 0.091743 0.000006 -0.000231 -0.174534
 30   2.111085 -0.561179 1.784320 -0.000008 -0.000682 0.000024
 31   2.121290 -0.561289 -1.853599 0.000000 0.000000 -0.000002
 32   -0.814395 -0.093824 3.127092 0.213613 -2.873426 -0.395552
 33   14.298673 -0.408176 0.471578 -0.000088 -0.000041 -2.383958
 34   15.835795 0.581398 0.242756 0.340225 0.031018 0.068310
 35   -0.815868 -0.091229 -3.114430 -0.005004 2.953404 0.197139
 36   14.294526 -0.410349 -0.467541 0.000093 0.000048 -1.930805
 37   15.834409 0.579420 -0.284600 -0.186131 -0.029957 0.177040
 38   1.420944 -3.992828 -2.862877 -0.006652 -0.018799 0.225684
 39   -4.457742 -1.054854 -0.746180 0.000000 0.000000 0.000000
 40   1.278262 -3.981035 3.198226 -0.006652 -0.018798 0.225683
 41   -4.433840 -1.059130 0.959566 -0.000001 0.000000 0.000000
 42   -0.657468 1.697302 -2.688614 0.000000 0.000002 0.000000
 43   -0.664068 1.698578 2.869377 0.000000 0.000002 0.000000
end
