version 1
nodes
  0 "Bip01" -1
  1 "Bip01 Pelvis" 0
  2 "Bip01 Spine" 1
  3 "Bip01 Spine1" 2
  4 "Bip01 Spine2" 3
  5 "Bip01 Spine3" 4
  6 "Bip01 Neck" 5
  7 "Bip01 L Arm" 6
  8 "Bip01 L Arm1" 7
  9 "Bip01 L Arm2" 8
 10 "Bip01 L Hand" 9
 11 "Bip06 L elbow2-smooth" 8
 12 "Bip01 R Arm" 6
 13 "Bip01 R Arm1" 12
 14 "Bip01 R Arm2" 13
 15 "Bip01 R Hand" 14
 16 "Bip06 R elbow2-smooth" 13
 17 "Bip01 Head" 6
 18 "Bip06 Head_helper" 17
 19 "Bip06 Head_eyes_l" 18
 20 "Bip06 Head_eyes_r" 18
 21 "Bip06 Head_blink_l" 18
 22 "Bip06 Head_blink_smooth_l1" 21
 23 "Bip06 Head_blink_r" 18
 24 "Bip06 Head_blink_smooth_r1" 23
 25 "Bip06 Head_L_eyebrow" 18
 26 "Bip06 Head_R_eyebrow" 18
 27 "Bip06 Head_blink_l_lid" 18
 28 "Bip06 Head_blink_r_lid" 18
 29 "Bip06 bunny" 18
 30 "Bip06 bunnyL" 29
 31 "Bip06 bunnyR" 29
 32 "Bip01 L Leg" 1
 33 "Bip01 L Leg1" 32
 34 "Bip01 L Foot" 33
 35 "Bip01 R Leg" 1
 36 "Bip01 R Leg1" 35
 37 "Bip01 R Foot" 36
 38 "Bip03 HairR1" 17
 39 "Bip03 HairR2" 38
 40 "Bip03 HairL1" 17
 41 "Bip03 HairL2" 40
 42 "Bip03 swingR" 17
 43 "Bip03 swingL" 17
end
skeleton
time 0
  0   -0.967547 0.175787 -20.574476 0.000000 0.000000 -1.572114
  1   -1.093036 0.000002 -0.326057 -1.570704 -1.570425 -0.000219
  2   2.262337 0.113614 0.064702 -0.000052 0.000049 -0.103830
  3   2.380047 0.353302 0.047440 0.000000 -0.000040 -0.200423
  4   2.033756 0.190472 -0.000128 -0.156901 -0.002529 -0.017605
  5   2.451511 0.204909 -0.003447 -0.051796 -0.007186 -0.139194
  6   7.247600 -0.397300 -0.109469 0.000001 0.000033 0.052298
  7   -2.022252 -0.104661 3.136172 1.349015 -0.824782 -4.467804
  8   1.168026 -0.537438 -0.063437 -0.338696 0.488669 -0.217869
  9   6.790376 -0.619176 0.015206 -0.000158 -0.000151 -0.945458
 10   8.637599 0.544015 -0.090417 -3.686046 0.382511 -0.380290
 11   6.790465 -0.619039 0.017802 0.000067 -0.011481 -0.677132
 12   -2.022474 -0.104699 -2.873818 1.081713 1.163479 -2.149363
 13   1.167898 -0.537463 0.063297 -0.486379 -1.250814 -0.671361
 14   7.002743 -0.617765 -0.183752 0.000229 0.000250 -1.504652
 15   8.209042 0.615527 -0.255885 1.663133 0.688060 -0.096527
 16   7.002735 -0.617911 -0.183641 0.013684 0.008326 -1.071944
 17   1.574674 0.609930 -0.000899 0.209078 -0.006193 0.130132
 18   -0.602177 0.511412 -0.000006 0.000000 0.000000 0.000000
 19   3.673773 0.177020 1.119313 -0.000002 -0.000014 -0.174510
 20   3.673767 0.176993 -1.117566 0.000007 -0.000003 -0.174546
 21   3.942357 1.334540 1.627658 0.000002 -0.000011 -0.000026
 22   -0.246060 -0.011889 0.516521 -0.000011 0.000031 0.000025
 23   3.942374 1.334565 -1.631083 0.000019 0.000002 -0.000024
 24   -0.246150 -0.011872 -0.516511 -0.000005 -0.000006 0.000048
 25   4.941364 1.997338 1.629330 0.000018 -0.000001 -0.000024
 26   4.941382 1.997366 -1.629410 -0.000001 0.000005 -0.000024
 27   2.914462 1.619264 1.514501 -0.000019 -0.000022 -0.000050
 28   2.916892 1.618870 -1.501142 -0.000002 -0.000009 -0.000024
 29   8.824059 0.150544 0.091743 0.000006 -0.000231 -0.174534
 30   2.111085 -0.561179 1.784320 -0.000008 -0.000682 0.000024
 31   2.121290 -0.561289 -1.853599 0.000000 0.000000 -0.000002
 32   -0.814395 -0.093824 3.127092 3.071965 -0.114691 1.239365
 33   14.298673 -0.408176 0.471578 0.000248 0.000063 -1.896136
 34   15.835795 0.581398 0.242756 -0.214735 0.106913 -0.097869
 35   -0.815868 -0.091229 -3.114430 0.066464 3.132818 -1.010216
 36   14.294526 -0.410349 -0.467541 0.000021 -0.000012 -2.607695
 37   15.834409 0.579420 -0.284600 -0.006092 -0.035255 0.214508
 38   1.139685 -3.453749 -2.823813 0.000000 0.000000 0.000001
 39   -4.457742 -1.054854 -0.746180 0.000000 0.000000 0.000000
 40   1.118101 -3.449769 3.237290 0.000000 0.000001 0.000000
 41   -4.433840 -1.059130 0.959566 -0.000001 0.000000 0.000000
 42   -0.657468 1.697302 -2.688614 0.000000 0.000002 0.000000
 43   -0.664068 1.698578 2.869377 0.000000 0.000002 0.000000
time 1
  0   -0.967547 0.175787 -20.574476 0.000000 0.000000 -1.572114
  1   -1.093036 0.000002 -0.326057 -1.570704 -1.570425 -0.000219
  2   2.262337 0.113614 0.064702 -0.000052 0.000049 -0.156091
  3   2.380047 0.353302 0.047440 -0.068315 -0.013679 -0.199974
  4   2.033756 0.190472 -0.000128 -0.296050 -0.014981 -0.050227
  5   2.451511 0.204909 -0.003447 -0.051796 -0.007186 -0.139194
  6   7.247600 -0.397300 -0.109469 0.000001 0.000033 0.052298
  7   -2.022252 -0.104661 3.136172 1.349015 -0.824782 -4.467804
  8   1.168026 -0.537438 -0.063437 0.157297 0.684794 0.546507
  9   6.790376 -0.619176 0.015206 -0.000158 -0.000285 -1.851897
 10   8.637599 0.544015 -0.090417 -3.686046 0.382511 -0.380290
 11   6.790465 -0.619039 0.017802 0.003979 -0.011879 -1.311613
 12   -2.022474 -0.104699 -2.873818 1.081713 1.163508 -2.149363
 13   1.167898 -0.537463 0.063297 -1.423921 -0.808278 0.038470
 14   7.002743 -0.617765 -0.183752 0.000286 0.000250 -2.017258
 15   8.209042 0.615527 -0.255885 1.656302 0.584028 -0.108254
 16   7.002735 -0.617911 -0.183641 0.012884 0.011371 -1.430808
 17   1.574674 0.609930 -0.000899 0.416572 -0.021576 0.215586
 18   -0.602177 0.511412 -0.000006 0.000000 0.000000 0.000000
 19   3.673773 0.177020 1.119313 -0.000002 -0.000014 -0.174510
 20   3.673767 0.176993 -1.117566 0.000007 -0.000003 -0.174546
 21   3.942357 1.334540 1.627658 0.000002 -0.000011 -0.000026
 22   -0.246060 -0.011889 0.516521 -0.000011 0.000031 0.000025
 23   3.942374 1.334565 -1.631083 0.000019 0.000002 -0.000024
 24   -0.246150 -0.011872 -0.516511 -0.000005 -0.000006 0.000048
 25   4.941364 1.997338 1.629330 0.000018 -0.000001 -0.000024
 26   4.941382 1.997366 -1.629410 -0.000001 0.000005 -0.000024
 27   2.914462 1.619264 1.514501 -0.000019 -0.000022 -0.000050
 28   2.916892 1.618870 -1.501142 -0.000002 -0.000009 -0.000024
 29   8.824059 0.150544 0.091743 0.000006 -0.000231 -0.174534
 30   2.111085 -0.561179 1.784320 -0.000008 -0.000682 0.000024
 31   2.121290 -0.561289 -1.853599 0.000000 0.000000 -0.000002
 32   -0.814395 -0.093824 3.127092 3.071965 -0.114691 1.239365
 33   14.298673 -0.408176 0.471578 0.000248 0.000063 -1.896136
 34   15.835795 0.581398 0.242756 -0.214735 0.106913 -0.097869
 35   -0.815868 -0.091229 -3.114430 0.066464 3.132818 -1.010216
 36   14.294526 -0.410349 -0.467541 0.000021 -0.000012 -2.607695
 37   15.834409 0.579420 -0.284600 -0.006092 -0.035255 0.214508
 38   1.139685 -3.453749 -2.823813 0.000000 0.000000 0.000001
 39   -4.457742 -1.054854 -0.746180 0.000000 0.000000 0.000000
 40   1.118101 -3.449769 3.237290 0.000000 0.000001 0.000000
 41   -4.433840 -1.059130 0.959566 -0.000001 0.000000 0.000000
 42   -0.657468 1.697302 -2.688614 0.000000 0.000002 0.000000
 43   -0.664068 1.698578 2.869377 0.000000 0.000002 0.000000
time 2
  0   -0.967547 0.175787 -20.574476 0.000000 0.000000 -1.572114
  1   -1.093036 0.000002 -0.326057 -1.570704 -1.570425 -0.000219
  2   2.262337 0.113614 0.064702 -0.000052 0.000049 -0.149910
  3   2.380047 0.353302 0.047440 -0.060094 -0.012061 -0.200056
  4   2.033756 0.190472 -0.000128 -0.188069 -0.009072 -0.047436
  5   2.451511 0.204909 -0.003447 0.018692 0.002593 -0.139417
  6   7.247600 -0.397300 -0.109469 0.000001 0.000033 0.052298
  7   -2.022252 -0.104661 3.136172 1.349015 -0.824782 -4.467804
  8   1.168026 -0.537438 -0.063437 0.143565 0.702907 0.336166
  9   6.790376 -0.619176 0.015206 -0.000158 -0.000151 -1.786467
 10   8.637599 0.544015 -0.090417 -3.686046 0.382511 -0.380290
 11   6.790465 -0.619039 0.017802 0.003658 -0.011879 -1.265704
 12   -2.022474 -0.104699 -2.873818 1.081713 1.163479 -2.149363
 13   1.167898 -0.537463 0.063297 -1.322343 -0.826992 0.138655
 14   7.002743 -0.617765 -0.183752 0.000286 0.000250 -1.980378
 15   8.209042 0.615527 -0.255885 1.656805 0.591519 -0.107472
 16   7.002735 -0.617911 -0.183641 0.012931 0.011146 -1.404867
 17   1.574674 0.609930 -0.000899 0.229876 -0.003069 0.207306
 18   -0.602177 0.511412 -0.000006 0.000000 0.000000 0.000000
 19   3.673773 0.177020 1.119313 -0.000002 -0.000014 -0.174510
 20   3.673767 0.176993 -1.117566 0.000007 -0.000003 -0.174546
 21   3.942357 1.334540 1.627658 0.000002 -0.000011 -0.000026
 22   -0.246060 -0.011889 0.516521 -0.000011 0.000031 0.000025
 23   3.942374 1.334565 -1.631083 0.000019 0.000002 -0.000024
 24   -0.246150 -0.011872 -0.516511 -0.000005 -0.000006 0.000048
 25   4.941364 1.997338 1.629330 0.000018 -0.000001 -0.000024
 26   4.941382 1.997366 -1.629410 -0.000001 0.000005 -0.000024
 27   2.914462 1.619264 1.514501 -0.000019 -0.000022 -0.000050
 28   2.916892 1.618870 -1.501142 -0.000002 -0.000009 -0.000024
 29   8.824059 0.150544 0.091743 0.000006 -0.000231 -0.174534
 30   2.111085 -0.561179 1.784320 -0.000008 -0.000682 0.000024
 31   2.121290 -0.561289 -1.853599 0.000000 0.000000 -0.000002
 32   -0.814395 -0.093824 3.127092 3.071965 -0.114691 1.239365
 33   14.298673 -0.408176 0.471578 0.000248 0.000063 -1.896136
 34   15.835795 0.581398 0.242756 -0.214735 0.106913 -0.097869
 35   -0.815868 -0.091229 -3.114430 0.066464 3.132818 -1.010216
 36   14.294526 -0.410349 -0.467541 0.000021 -0.000012 -2.607695
 37   15.834409 0.579420 -0.284600 -0.006092 -0.035255 0.214508
 38   1.139685 -3.453749 -2.823813 0.000000 0.000000 0.000001
 39   -4.457742 -1.054854 -0.746180 0.000000 0.000000 0.000000
 40   1.118101 -3.449769 3.237290 0.000000 0.000001 0.000000
 41   -4.433840 -1.059130 0.959566 -0.000001 0.000000 0.000000
 42   -0.657468 1.697302 -2.688614 0.000000 0.000002 0.000000
 43   -0.664068 1.698578 2.869377 0.000000 0.000002 0.000000
time 3
  0   -0.967547 0.175787 -20.574476 0.000000 0.000000 -1.572114
  1   -1.093036 0.000002 -0.326057 -1.570704 -1.570425 -0.000219
  2   2.262337 0.113614 0.064702 -0.000052 0.000049 -0.133466
  3   2.380047 0.353302 0.047440 -0.038748 -0.007842 -0.200260
  4   2.033756 0.190472 -0.000128 -0.079110 -0.002684 -0.037323
  5   2.451511 0.204909 -0.003447 0.068998 0.009617 -0.139095
  6   7.247600 -0.397300 -0.109469 0.000001 0.000033 0.052298
  7   -2.022252 -0.104661 3.136172 1.349015 -0.824782 -4.467804
  8   1.168026 -0.537438 -0.063437 0.042316 0.705775 0.042891
  9   6.790376 -0.619176 0.015206 -0.000158 -0.000151 -1.619684
 10   8.637599 0.544015 -0.090417 -3.686046 0.382511 -0.380290
 11   6.790465 -0.619039 0.017802 0.002899 -0.011850 -1.149028
 12   -2.022474 -0.104699 -2.873818 1.081713 1.163479 -2.149363
 13   1.167898 -0.537463 0.063297 -1.148711 -0.911106 0.159600
 14   7.002743 -0.617765 -0.183752 0.000286 0.000250 -1.885992
 15   8.209042 0.615527 -0.255885 1.657884 0.610661 -0.105367
 16   7.002735 -0.617911 -0.183641 0.013120 0.010582 -1.338857
 17   1.574674 0.609930 -0.000899 0.048664 0.007652 0.179512
 18   -0.602177 0.511412 -0.000006 0.000000 0.000000 0.000000
 19   3.673773 0.177020 1.119313 -0.000002 -0.000014 -0.174510
 20   3.673767 0.176993 -1.117566 0.000007 -0.000003 -0.174546
 21   3.942357 1.334540 1.627658 0.000002 -0.000011 -0.000026
 22   -0.246060 -0.011889 0.516521 -0.000011 0.000031 0.000025
 23   3.942374 1.334565 -1.631083 0.000019 0.000002 -0.000024
 24   -0.246150 -0.011872 -0.516511 -0.000005 -0.000006 0.000048
 25   4.941364 1.997338 1.629330 0.000018 -0.000001 -0.000024
 26   4.941382 1.997366 -1.629410 -0.000001 0.000005 -0.000024
 27   2.914462 1.619264 1.514501 -0.000019 -0.000022 -0.000050
 28   2.916892 1.618870 -1.501142 -0.000002 -0.000009 -0.000024
 29   8.824059 0.150544 0.091743 0.000006 -0.000231 -0.174534
 30   2.111085 -0.561179 1.784320 -0.000008 -0.000682 0.000024
 31   2.121290 -0.561289 -1.853599 0.000000 0.000000 -0.000002
 32   -0.814395 -0.093824 3.127092 3.071965 -0.114691 1.239365
 33   14.298673 -0.408176 0.471578 0.000248 0.000063 -1.896136
 34   15.835795 0.581398 0.242756 -0.214735 0.106913 -0.097869
 35   -0.815868 -0.091229 -3.114430 0.066464 3.132818 -1.010216
 36   14.294526 -0.410349 -0.467541 0.000021 -0.000012 -2.607695
 37   15.834409 0.579420 -0.284600 -0.006092 -0.035255 0.214508
 38   1.139685 -3.453749 -2.823813 0.000000 0.000000 0.000001
 39   -4.457742 -1.054854 -0.746180 0.000000 0.000000 0.000000
 40   1.118101 -3.449769 3.237290 0.000000 0.000001 0.000000
 41   -4.433840 -1.059130 0.959566 -0.000001 0.000000 0.000000
 42   -0.657468 1.697302 -2.688614 0.000000 0.000002 0.000000
 43   -0.664068 1.698578 2.869377 0.000000 0.000002 0.000000
time 4
  0   -0.967547 0.175787 -20.574476 0.000000 0.000000 -1.572114
  1   -1.093036 0.000002 -0.326057 -1.570704 -1.570425 -0.000219
  2   2.262337 0.113614 0.064702 -0.000052 0.000049 -0.123292
  3   2.380047 0.353302 0.047440 -0.025457 -0.005038 -0.200362
  4   2.033756 0.190472 -0.000128 -0.081102 -0.001870 -0.030690
  5   2.451511 0.204909 -0.003447 0.046678 0.006497 -0.139194
  6   7.247600 -0.397300 -0.109469 0.000001 0.000033 0.052298
  7   -2.022252 -0.104661 3.136172 1.349015 -0.824782 -4.467804
  8   1.168026 -0.537438 -0.063437 -0.100508 0.657574 -0.101533
  9   6.790376 -0.619176 0.015206 -0.000158 -0.000151 -1.394866
 10   8.637599 0.544015 -0.090417 -3.686046 0.382511 -0.380290
 11   6.790465 -0.619039 0.017802 0.001965 -0.011765 -0.991691
 12   -2.022474 -0.104699 -2.873818 1.081713 1.163479 -2.149363
 13   1.167898 -0.537463 0.063297 -1.002916 -1.035445 -0.000091
 14   7.002743 -0.617765 -0.183752 0.000286 0.000250 -1.758521
 15   8.209042 0.615527 -0.255885 1.659466 0.636460 -0.102541
 16   7.002735 -0.617911 -0.183641 0.013308 0.009792 -1.249610
 17   1.574674 0.609930 -0.000899 0.059673 0.003345 0.162990
 18   -0.602177 0.511412 -0.000006 0.000000 0.000000 0.000000
 19   3.673773 0.177020 1.119313 -0.000002 -0.000014 -0.174510
 20   3.673767 0.176993 -1.117566 0.000007 -0.000003 -0.174546
 21   3.942357 1.334540 1.627658 0.000002 -0.000011 -0.000026
 22   -0.246060 -0.011889 0.516521 -0.000011 0.000031 0.000025
 23   3.942374 1.334565 -1.631083 0.000019 0.000002 -0.000024
 24   -0.246150 -0.011872 -0.516511 -0.000005 -0.000006 0.000048
 25   4.941364 1.997338 1.629330 0.000018 -0.000001 -0.000024
 26   4.941382 1.997366 -1.629410 -0.000001 0.000005 -0.000024
 27   2.914462 1.619264 1.514501 -0.000019 -0.000022 -0.000050
 28   2.916892 1.618870 -1.501142 -0.000002 -0.000009 -0.000024
 29   8.824059 0.150544 0.091743 0.000006 -0.000231 -0.174534
 30   2.111085 -0.561179 1.784320 -0.000008 -0.000682 0.000024
 31   2.121290 -0.561289 -1.853599 0.000000 0.000000 -0.000002
 32   -0.814395 -0.093824 3.127092 3.071965 -0.114691 1.239365
 33   14.298673 -0.408176 0.471578 0.000248 0.000063 -1.896136
 34   15.835795 0.581398 0.242756 -0.214735 0.106913 -0.097869
 35   -0.815868 -0.091229 -3.114430 0.066464 3.132818 -1.010216
 36   14.294526 -0.410349 -0.467541 0.000021 -0.000012 -2.607695
 37   15.834409 0.579420 -0.284600 -0.006092 -0.035255 0.214508
 38   1.139685 -3.453749 -2.823813 0.000000 0.000000 0.000001
 39   -4.457742 -1.054854 -0.746180 0.000000 0.000000 0.000000
 40   1.118101 -3.449769 3.237290 0.000000 0.000001 0.000000
 41   -4.433840 -1.059130 0.959566 -0.000001 0.000000 0.000000
 42   -0.657468 1.697302 -2.688614 0.000000 0.000002 0.000000
 43   -0.664068 1.698578 2.869377 0.000000 0.000002 0.000000
time 5
  0   -0.967547 0.175787 -20.574476 0.000000 0.000000 -1.572114
  1   -1.093036 0.000002 -0.326057 -1.570704 -1.570425 -0.000219
  2   2.262337 0.113614 0.064702 -0.000052 0.000049 -0.113552
  3   2.380047 0.353302 0.047440 -0.012646 -0.002557 -0.200362
  4   2.033756 0.190472 -0.000128 -0.118983 -0.002397 -0.024093
  5   2.451511 0.204909 -0.003447 -0.002482 -0.000305 -0.139417
  6   7.247600 -0.397300 -0.109469 0.000001 0.000033 0.052298
  7   -2.022252 -0.104661 3.136172 1.349015 -0.824782 -4.467804
  8   1.168026 -0.537438 -0.063437 -0.236308 0.576417 -0.176623
  9   6.790376 -0.619176 0.015206 -0.000158 -0.000151 -1.156012
 10   8.637599 0.544015 -0.090417 -3.686046 0.382511 -0.380290
 11   6.790465 -0.619039 0.017802 0.000943 -0.011623 -0.824376
 12   -2.022474 -0.104699 -2.873818 1.081713 1.163479 -2.149363
 13   1.167898 -0.537463 0.063297 -0.796456 -1.161717 -0.284786
 14   7.002743 -0.617765 -0.183752 0.000286 0.000250 -1.623295
 15   8.209042 0.615527 -0.255885 1.661479 0.664001 -0.099354
 16   7.002735 -0.617911 -0.183641 0.013543 0.008947 -1.154954
 17   1.574674 0.609930 -0.000899 0.134335 -0.002430 0.146727
 18   -0.602177 0.511412 -0.000006 0.000000 0.000000 0.000000
 19   3.673773 0.177020 1.119313 -0.000002 -0.000014 -0.174510
 20   3.673767 0.176993 -1.117566 0.000007 -0.000003 -0.174546
 21   3.942357 1.334540 1.627658 0.000002 -0.000011 -0.000026
 22   -0.246060 -0.011889 0.516521 -0.000011 0.000031 0.000025
 23   3.942374 1.334565 -1.631083 0.000019 0.000002 -0.000024
 24   -0.246150 -0.011872 -0.516511 -0.000005 -0.000006 0.000048
 25   4.941364 1.997338 1.629330 0.000018 -0.000001 -0.000024
 26   4.941382 1.997366 -1.629410 -0.000001 0.000005 -0.000024
 27   2.914462 1.619264 1.514501 -0.000019 -0.000022 -0.000050
 28   2.916892 1.618870 -1.501142 -0.000002 -0.000009 -0.000024
 29   8.824059 0.150544 0.091743 0.000006 -0.000231 -0.174534
 30   2.111085 -0.561179 1.784320 -0.000008 -0.000682 0.000024
 31   2.121290 -0.561289 -1.853599 0.000000 0.000000 -0.000002
 32   -0.814395 -0.093824 3.127092 3.071965 -0.114691 1.239365
 33   14.298673 -0.408176 0.471578 0.000248 0.000063 -1.896136
 34   15.835795 0.581398 0.242756 -0.214735 0.106913 -0.097869
 35   -0.815868 -0.091229 -3.114430 0.066464 3.132818 -1.010216
 36   14.294526 -0.410349 -0.467541 0.000021 -0.000012 -2.607695
 37   15.834409 0.579420 -0.284600 -0.006092 -0.035255 0.214508
 38   1.139685 -3.453749 -2.823813 0.000000 0.000000 0.000001
 39   -4.457742 -1.054854 -0.746180 0.000000 0.000000 0.000000
 40   1.118101 -3.449769 3.237290 0.000000 0.000001 0.000000
 41   -4.433840 -1.059130 0.959566 -0.000001 0.000000 0.000000
 42   -0.657468 1.697302 -2.688614 0.000000 0.000002 0.000000
 43   -0.664068 1.698578 2.869377 0.000000 0.000002 0.000000
time 6
  0   -0.967547 0.175787 -20.574476 0.000000 0.000000 -1.572114
  1   -1.093036 0.000002 -0.326057 -1.570704 -1.570425 -0.000219
  2   2.262337 0.113614 0.064702 -0.000052 0.000049 -0.103830
  3   2.380047 0.353302 0.047440 0.000000 -0.000040 -0.200423
  4   2.033756 0.190472 -0.000128 -0.156901 -0.002529 -0.017605
  5   2.451511 0.204909 -0.003447 -0.051796 -0.007186 -0.139194
  6   7.247600 -0.397300 -0.109469 0.000001 0.000033 0.052298
  7   -2.022252 -0.104661 3.136172 1.349015 -0.824782 -4.467804
  8   1.168026 -0.537438 -0.063437 -0.338696 0.488669 -0.217869
  9   6.790376 -0.619176 0.015206 -0.000158 -0.000151 -0.945458
 10   8.637599 0.544015 -0.090417 -3.686046 0.382511 -0.380290
 11   6.790465 -0.619039 0.017802 0.000067 -0.011481 -0.677132
 12   -2.022474 -0.104699 -2.873818 1.081713 1.163479 -2.149363
 13   1.167898 -0.537463 0.063297 -0.486379 -1.250814 -0.671361
 14   7.002743 -0.617765 -0.183752 0.000229 0.000250 -1.504652
 15   8.209042 0.615527 -0.255885 1.663133 0.688060 -0.096527
 16   7.002735 -0.617911 -0.183641 0.013684 0.008326 -1.071944
 17   1.574674 0.609930 -0.000899 0.209078 -0.006193 0.130132
 18   -0.602177 0.511412 -0.000006 0.000000 0.000000 0.000000
 19   3.673773 0.177020 1.119313 -0.000002 -0.000014 -0.174510
 20   3.673767 0.176993 -1.117566 0.000007 -0.000003 -0.174546
 21   3.942357 1.334540 1.627658 0.000002 -0.000011 -0.000026
 22   -0.246060 -0.011889 0.516521 -0.000011 0.000031 0.000025
 23   3.942374 1.334565 -1.631083 0.000019 0.000002 -0.000024
 24   -0.246150 -0.011872 -0.516511 -0.000005 -0.000006 0.000048
 25   4.941364 1.997338 1.629330 0.000018 -0.000001 -0.000024
 26   4.941382 1.997366 -1.629410 -0.000001 0.000005 -0.000024
 27   2.914462 1.619264 1.514501 -0.000019 -0.000022 -0.000050
 28   2.916892 1.618870 -1.501142 -0.000002 -0.000009 -0.000024
 29   8.824059 0.150544 0.091743 0.000006 -0.000231 -0.174534
 30   2.111085 -0.561179 1.784320 -0.000008 -0.000682 0.000024
 31   2.121290 -0.561289 -1.853599 0.000000 0.000000 -0.000002
 32   -0.814395 -0.093824 3.127092 3.071965 -0.114691 1.239365
 33   14.298673 -0.408176 0.471578 0.000248 0.000063 -1.896136
 34   15.835795 0.581398 0.242756 -0.214735 0.106913 -0.097869
 35   -0.815868 -0.091229 -3.114430 0.066464 3.132818 -1.010216
 36   14.294526 -0.410349 -0.467541 0.000021 -0.000012 -2.607695
 37   15.834409 0.579420 -0.284600 -0.006092 -0.035255 0.214508
 38   1.139685 -3.453749 -2.823813 0.000000 0.000000 0.000001
 39   -4.457742 -1.054854 -0.746180 0.000000 0.000000 0.000000
 40   1.118101 -3.449769 3.237290 0.000000 0.000001 0.000000
 41   -4.433840 -1.059130 0.959566 -0.000001 0.000000 0.000000
 42   -0.657468 1.697302 -2.688614 0.000000 0.000002 0.000000
 43   -0.664068 1.698578 2.869377 0.000000 0.000002 0.000000
end
