version 1
nodes
  0 "Bip01" -1
  1 "Bip01 Pelvis" 0
  2 "Bip01 Spine" 1
  3 "Bip01 Spine1" 2
  4 "Bip01 Spine2" 3
  5 "Bip01 Spine3" 4
  6 "Bip01 Neck" 5
  7 "Bip01 L Arm" 6
  8 "Bip01 L Arm1" 7
  9 "Bip01 L Arm2" 8
 10 "Bip01 L Hand" 9
 11 "Bip06 L elbow2-smooth" 8
 12 "Bip01 R Arm" 6
 13 "Bip01 R Arm1" 12
 14 "Bip01 R Arm2" 13
 15 "Bip01 R Hand" 14
 16 "Bip06 R elbow2-smooth" 13
 17 "Bip01 Head" 6
 18 "Bip06 Head_helper" 17
 19 "Bip06 Head_eyes_l" 18
 20 "Bip06 Head_eyes_r" 18
 21 "Bip06 Head_blink_l" 18
 22 "Bip06 Head_blink_smooth_l1" 21
 23 "Bip06 Head_blink_r" 18
 24 "Bip06 Head_blink_smooth_r1" 23
 25 "Bip06 Head_L_eyebrow" 18
 26 "Bip06 Head_R_eyebrow" 18
 27 "Bip06 Head_blink_l_lid" 18
 28 "Bip06 Head_blink_r_lid" 18
 29 "Bip06 bunny" 18
 30 "Bip06 bunnyL" 29
 31 "Bip06 bunnyR" 29
 32 "Bip01 L Leg" 1
 33 "Bip01 L Leg1" 32
 34 "Bip01 L Foot" 33
 35 "Bip01 R Leg" 1
 36 "Bip01 R Leg1" 35
 37 "Bip01 R Foot" 36
 38 "Bip03 HairR1" 17
 39 "Bip03 HairR2" 38
 40 "Bip03 HairL1" 17
 41 "Bip03 HairL2" 40
 42 "Bip03 swingR" 17
 43 "Bip03 swingL" 17
end
skeleton
time 0
  0   -0.967547 0.175787 -20.574476 0.000000 0.000000 -1.572114
  1   -1.093036 0.000002 -0.326057 -1.570389 -1.570611 -0.004042
  2   2.262337 0.113614 0.064702 -0.001721 0.024449 -0.071971
  3   2.380047 0.353302 0.047440 -0.010516 0.011921 0.007366
  4   2.033756 0.190472 -0.000128 0.144653 -0.018324 0.131696
  5   2.451511 0.204909 -0.003447 0.296019 0.025963 0.110070
  6   7.247600 -0.397300 -0.109469 -0.091897 0.032631 0.231869
  7   -2.022252 -0.104661 3.136172 1.227276 -1.771555 -4.594591
  8   1.168026 -0.537438 -0.063437 -0.280035 0.788844 -0.991101
  9   6.790376 -0.619176 0.015206 -0.000102 -0.000085 -1.220159
 10   8.637599 0.544015 -0.090417 -1.447174 0.185489 -0.201889
 11   6.790465 -0.619039 0.017802 0.001293 -0.011566 -0.869305
 12   -2.022474 -0.104699 -2.873818 -1.200412 0.657795 -4.369599
 13   1.167898 -0.537463 0.063297 -0.906259 -0.492776 -0.520206
 14   7.002743 -0.617765 -0.183752 0.000059 0.000023 -1.605639
 15   8.209042 0.615527 -0.255885 2.053565 -0.253598 0.274159
 16   7.002735 -0.617911 -0.183641 0.013449 0.008777 -1.142702
 17   1.574674 0.609930 -0.000899 0.032091 0.404404 0.483590
 18   -0.602177 0.511412 -0.000006 0.000000 0.000000 0.000000
 19   3.673773 0.177020 1.119313 -0.000002 -0.000014 -0.174510
 20   3.673767 0.176993 -1.117566 0.000007 -0.000003 -0.174546
 21   3.942357 1.334540 1.627658 0.000002 -0.000011 -0.000026
 22   -0.246060 -0.011889 0.516521 -0.000011 0.000031 0.000025
 23   3.942374 1.334565 -1.631083 0.000019 0.000002 -0.000024
 24   -0.246150 -0.011872 -0.516511 -0.000005 -0.000006 0.000048
 25   4.941364 1.997338 1.629330 0.000018 -0.000001 -0.000024
 26   4.941382 1.997366 -1.629410 -0.000001 0.000005 -0.000024
 27   2.914462 1.619264 1.514501 -0.000019 -0.000022 -0.000050
 28   2.916892 1.618870 -1.501142 -0.000002 -0.000009 -0.000024
 29   8.824059 0.150544 0.091743 0.000006 -0.000231 -0.174534
 30   2.111085 -0.561179 1.784320 -0.000008 -0.000682 0.000024
 31   2.121290 -0.561289 -1.853599 0.000000 0.000000 -0.000002
 32   -0.814395 -0.093824 3.127092 3.071965 -0.114691 1.239365
 33   14.298673 -0.408176 0.471578 0.000248 0.000063 -1.896136
 34   15.835795 0.581398 0.242756 -0.214735 0.106913 -0.097869
 35   -0.815868 -0.091229 -3.114430 0.066464 3.132818 -1.010216
 36   14.294526 -0.410349 -0.467541 0.000021 -0.000012 -2.607695
 37   15.834409 0.579420 -0.284600 -0.006092 -0.035255 0.214508
 38   1.139685 -3.453749 -2.823813 0.000000 0.000000 0.000001
 39   -4.457742 -1.054854 -0.746180 0.000000 0.000000 0.000000
 40   1.118101 -3.449769 3.237290 0.000000 0.000001 0.000000
 41   -4.433840 -1.059130 0.959566 -0.000001 0.000000 0.000000
 42   -0.657468 1.697302 -2.688614 0.000000 0.000002 0.000000
 43   -0.664068 1.698578 2.869377 0.000000 0.000002 0.000000
time 1
  0   -0.967547 0.175787 -20.574476 0.000000 0.000000 -1.572114
  1   -1.093036 0.000002 -0.326057 -1.570389 -1.570611 -0.004042
  2   2.262337 0.113614 0.064702 0.000050 0.020027 -0.065989
  3   2.380047 0.353302 0.047440 0.012046 0.021161 -0.000490
  4   2.033756 0.190472 -0.000128 0.050264 -0.034288 0.109223
  5   2.451511 0.204909 -0.003447 0.138852 0.014069 0.071882
  6   7.247600 -0.397300 -0.109469 -0.091897 0.032631 0.231869
  7   -2.022252 -0.104661 3.136172 1.029808 -1.703667 -4.401499
  8   1.168026 -0.537438 -0.063437 -0.248711 0.723687 -0.672268
  9   6.790376 -0.619176 0.015206 -0.000102 -0.000085 -1.195406
 10   8.637599 0.544015 -0.090417 -1.667160 0.223077 -0.065158
 11   6.790465 -0.619039 0.017802 0.001206 -0.011566 -0.852060
 12   -2.022474 -0.104699 -2.873818 -1.204244 0.924554 -4.491956
 13   1.167898 -0.537463 0.063297 -0.694386 -0.688820 -0.959991
 14   7.002743 -0.617765 -0.183752 0.000059 0.000023 -1.516368
 15   8.209042 0.615527 -0.255885 2.022431 -0.351804 0.368575
 16   7.002735 -0.617911 -0.183641 0.013543 0.008214 -1.080058
 17   1.574674 0.609930 -0.000899 0.110490 0.225648 0.462855
 18   -0.602177 0.511412 -0.000006 0.000000 0.000000 0.000000
 19   3.673773 0.177020 1.119313 -0.000002 -0.000014 -0.174510
 20   3.673767 0.176993 -1.117566 0.000007 -0.000003 -0.174546
 21   3.942357 1.334540 1.627658 0.000002 -0.000011 -0.000026
 22   -0.246060 -0.011889 0.516521 -0.000011 0.000031 0.000025
 23   3.942374 1.334565 -1.631083 0.000019 0.000002 -0.000024
 24   -0.246150 -0.011872 -0.516511 -0.000005 -0.000006 0.000048
 25   4.941364 1.997338 1.629330 0.000018 -0.000001 -0.000024
 26   4.941382 1.997366 -1.629410 -0.000001 0.000005 -0.000024
 27   2.914462 1.619264 1.514501 -0.000019 -0.000022 -0.000050
 28   2.916892 1.618870 -1.501142 -0.000002 -0.000009 -0.000024
 29   8.824059 0.150544 0.091743 0.000006 -0.000231 -0.174534
 30   2.111085 -0.561179 1.784320 -0.000008 -0.000682 0.000024
 31   2.121290 -0.561289 -1.853599 0.000000 0.000000 -0.000002
 32   -0.814395 -0.093824 3.127092 3.071965 -0.114691 1.239365
 33   14.298673 -0.408176 0.471578 0.000248 0.000063 -1.896136
 34   15.835795 0.581398 0.242756 -0.214735 0.106913 -0.097869
 35   -0.815868 -0.091229 -3.114430 0.066464 3.132818 -1.010216
 36   14.294526 -0.410349 -0.467541 0.000021 -0.000012 -2.607695
 37   15.834409 0.579420 -0.284600 -0.006092 -0.035255 0.214508
 38   1.139685 -3.453749 -2.823813 0.000000 0.000000 0.000001
 39   -4.457742 -1.054854 -0.746180 0.000000 0.000000 0.000000
 40   1.118101 -3.449769 3.237290 0.000000 0.000001 0.000000
 41   -4.433840 -1.059130 0.959566 -0.000001 0.000000 0.000000
 42   -0.657468 1.697302 -2.688614 0.000000 0.000002 0.000000
 43   -0.664068 1.698578 2.869377 0.000000 0.000002 0.000000
time 2
  0   -0.967547 0.175787 -20.574476 0.000000 0.000000 -1.572114
  1   -1.093036 0.000002 -0.326057 -1.570389 -1.570611 -0.004042
  2   2.262337 0.113614 0.064702 0.002024 0.015653 -0.060098
  3   2.380047 0.353302 0.047440 0.034607 0.030641 -0.007938
  4   2.033756 0.190472 -0.000128 -0.043276 -0.053919 0.087294
  5   2.451511 0.204909 -0.003447 -0.016843 -0.005958 0.034387
  6   7.247600 -0.397300 -0.109469 -0.091897 0.032631 0.231869
  7   -2.022252 -0.104661 3.136172 0.512751 -1.649644 -3.887683
  8   1.168026 -0.537438 -0.063437 -0.212135 0.644140 -0.364696
  9   6.790376 -0.619176 0.015206 -0.000102 -0.000085 -1.171181
 10   8.637599 0.544015 -0.090417 -1.896657 0.282135 0.044516
 11   6.790465 -0.619039 0.017802 0.001118 -0.011538 -0.835046
 12   -2.022474 -0.104699 -2.873818 -1.344505 1.196392 -4.700480
 13   1.167898 -0.537463 0.063297 -0.299532 -0.768357 -1.531015
 14   7.002743 -0.617765 -0.183752 0.000059 0.000023 -1.427262
 15   8.209042 0.615527 -0.255885 1.980943 -0.448648 0.468463
 16   7.002735 -0.617911 -0.183641 0.013684 0.007762 -1.017745
 17   1.574674 0.609930 -0.000899 0.214481 0.062962 0.412034
 18   -0.602177 0.511412 -0.000006 0.000000 0.000000 0.000000
 19   3.673773 0.177020 1.119313 -0.000002 -0.000014 -0.174510
 20   3.673767 0.176993 -1.117566 0.000007 -0.000003 -0.174546
 21   3.942357 1.334540 1.627658 0.000002 -0.000011 -0.000026
 22   -0.246060 -0.011889 0.516521 -0.000011 0.000031 0.000025
 23   3.942374 1.334565 -1.631083 0.000019 0.000002 -0.000024
 24   -0.246150 -0.011872 -0.516511 -0.000005 -0.000006 0.000048
 25   4.941364 1.997338 1.629330 0.000018 -0.000001 -0.000024
 26   4.941382 1.997366 -1.629410 -0.000001 0.000005 -0.000024
 27   2.914462 1.619264 1.514501 -0.000019 -0.000022 -0.000050
 28   2.916892 1.618870 -1.501142 -0.000002 -0.000009 -0.000024
 29   8.824059 0.150544 0.091743 0.000006 -0.000231 -0.174534
 30   2.111085 -0.561179 1.784320 -0.000008 -0.000682 0.000024
 31   2.121290 -0.561289 -1.853599 0.000000 0.000000 -0.000002
 32   -0.814395 -0.093824 3.127092 3.071965 -0.114691 1.239365
 33   14.298673 -0.408176 0.471578 0.000248 0.000063 -1.896136
 34   15.835795 0.581398 0.242756 -0.214735 0.106913 -0.097869
 35   -0.815868 -0.091229 -3.114430 0.066464 3.132818 -1.010216
 36   14.294526 -0.410349 -0.467541 0.000021 -0.000012 -2.607695
 37   15.834409 0.579420 -0.284600 -0.006092 -0.035255 0.214508
 38   1.139685 -3.453749 -2.823813 0.000000 0.000000 0.000001
 39   -4.457742 -1.054854 -0.746180 0.000000 0.000000 0.000000
 40   1.118101 -3.449769 3.237290 0.000000 0.000001 0.000000
 41   -4.433840 -1.059130 0.959566 -0.000001 0.000000 0.000000
 42   -0.657468 1.697302 -2.688614 0.000000 0.000002 0.000000
 43   -0.664068 1.698578 2.869377 0.000000 0.000002 0.000000
time 3
  0   -0.967547 0.175787 -20.574476 0.000000 0.000000 -1.572114
  1   -1.093036 0.000002 -0.326057 -1.570389 -1.570611 -0.004042
  2   2.262337 0.113614 0.064702 -0.000218 0.011518 -0.054008
  3   2.380047 0.353302 0.047440 0.037097 0.037172 -0.015978
  4   2.033756 0.190472 -0.000128 -0.102864 -0.063662 0.068917
  5   2.451511 0.204909 -0.003447 -0.108675 -0.017382 0.009275
  6   7.247600 -0.397300 -0.109469 -0.091897 0.032631 0.231869
  7   -2.022252 -0.104661 3.136172 2.548582 -1.487837 -5.926889
  8   1.168026 -0.537438 -0.063437 -0.229094 0.613448 -0.212365
  9   6.790376 -0.619176 0.015206 -0.000102 -0.000085 -1.124844
 10   8.637599 0.544015 -0.090417 -2.164198 0.355482 0.138346
 11   6.790465 -0.619039 0.017802 0.000914 -0.011538 -0.802632
 12   -2.022474 -0.104699 -2.873818 -1.723231 1.343863 -5.101157
 13   1.167898 -0.537463 0.063297 0.057784 -0.665173 -1.916077
 14   7.002743 -0.617765 -0.183752 0.000059 0.000023 -1.309527
 15   8.209042 0.615527 -0.255885 1.995612 -0.470438 0.519579
 16   7.002735 -0.617911 -0.183641 0.013826 0.007086 -0.935342
 17   1.574674 0.609930 -0.000899 0.291377 -0.028842 0.293832
 18   -0.602177 0.511412 -0.000006 0.000000 0.000000 0.000000
 19   3.673773 0.177020 1.119313 -0.000002 -0.000014 -0.174510
 20   3.673767 0.176993 -1.117566 0.000007 -0.000003 -0.174546
 21   3.942357 1.334540 1.627658 0.000002 -0.000011 -0.000026
 22   -0.246060 -0.011889 0.516521 -0.000011 0.000031 0.000025
 23   3.942374 1.334565 -1.631083 0.000019 0.000002 -0.000024
 24   -0.246150 -0.011872 -0.516511 -0.000005 -0.000006 0.000048
 25   4.941364 1.997338 1.629330 0.000018 -0.000001 -0.000024
 26   4.941382 1.997366 -1.629410 -0.000001 0.000005 -0.000024
 27   2.914462 1.619264 1.514501 -0.000019 -0.000022 -0.000050
 28   2.916892 1.618870 -1.501142 -0.000002 -0.000009 -0.000024
 29   8.824059 0.150544 0.091743 0.000006 -0.000231 -0.174534
 30   2.111085 -0.561179 1.784320 -0.000008 -0.000682 0.000024
 31   2.121290 -0.561289 -1.853599 0.000000 0.000000 -0.000002
 32   -0.814395 -0.093824 3.127092 3.071965 -0.114691 1.239365
 33   14.298673 -0.408176 0.471578 0.000248 0.000063 -1.896136
 34   15.835795 0.581398 0.242756 -0.214735 0.106913 -0.097869
 35   -0.815868 -0.091229 -3.114430 0.066464 3.132818 -1.010216
 36   14.294526 -0.410349 -0.467541 0.000021 -0.000012 -2.607695
 37   15.834409 0.579420 -0.284600 -0.006092 -0.035255 0.214508
 38   1.139685 -3.453749 -2.823813 0.000000 0.000000 0.000001
 39   -4.457742 -1.054854 -0.746180 0.000000 0.000000 0.000000
 40   1.118101 -3.449769 3.237290 0.000000 0.000001 0.000000
 41   -4.433840 -1.059130 0.959566 -0.000001 0.000000 0.000000
 42   -0.657468 1.697302 -2.688614 0.000000 0.000002 0.000000
 43   -0.664068 1.698578 2.869377 0.000000 0.000002 0.000000
time 4
  0   -0.967547 0.175787 -20.574476 0.000000 0.000000 -1.572114
  1   -1.093036 0.000002 -0.326057 -1.570389 -1.570611 -0.004042
  2   2.262337 0.113614 0.064702 -0.007338 0.008042 -0.047467
  3   2.380047 0.353302 0.047440 0.018271 0.040300 -0.025242
  4   2.033756 0.190472 -0.000128 -0.127116 -0.060822 0.052750
  5   2.451511 0.204909 -0.003447 -0.133597 -0.013178 -0.004767
  6   7.247600 -0.397300 -0.109469 -0.091897 0.032631 0.231869
  7   -2.022252 -0.104661 3.136172 1.985896 -1.401903 -5.368932
  8   1.168026 -0.537438 -0.063437 -0.341100 0.678555 -0.258735
  9   6.790376 -0.619176 0.015206 -0.000102 -0.000085 -1.020397
 10   8.637599 0.544015 -0.090417 -2.511878 0.444173 0.225087
 11   6.790465 -0.619039 0.017802 0.000505 -0.011452 -0.729501
 12   -2.022474 -0.104699 -2.873818 -1.864929 1.327348 -5.247162
 13   1.167898 -0.537463 0.063297 0.274367 -0.486674 -1.962991
 14   7.002743 -0.617765 -0.183752 0.000059 0.000023 -1.138245
 15   8.209042 0.615527 -0.255885 2.146536 -0.363758 0.484159
 16   7.002735 -0.617911 -0.183641 0.014014 0.006127 -0.815408
 17   1.574674 0.609930 -0.000899 0.333380 -0.034948 0.095869
 18   -0.602177 0.511412 -0.000006 0.000000 0.000000 0.000000
 19   3.673773 0.177020 1.119313 -0.000002 -0.000014 -0.174510
 20   3.673767 0.176993 -1.117566 0.000007 -0.000003 -0.174546
 21   3.942357 1.334540 1.627658 0.000002 -0.000011 -0.000026
 22   -0.246060 -0.011889 0.516521 -0.000011 0.000031 0.000025
 23   3.942374 1.334565 -1.631083 0.000019 0.000002 -0.000024
 24   -0.246150 -0.011872 -0.516511 -0.000005 -0.000006 0.000048
 25   4.941364 1.997338 1.629330 0.000018 -0.000001 -0.000024
 26   4.941382 1.997366 -1.629410 -0.000001 0.000005 -0.000024
 27   2.914462 1.619264 1.514501 -0.000019 -0.000022 -0.000050
 28   2.916892 1.618870 -1.501142 -0.000002 -0.000009 -0.000024
 29   8.824059 0.150544 0.091743 0.000006 -0.000231 -0.174534
 30   2.111085 -0.561179 1.784320 -0.000008 -0.000682 0.000024
 31   2.121290 -0.561289 -1.853599 0.000000 0.000000 -0.000002
 32   -0.814395 -0.093824 3.127092 3.071965 -0.114691 1.239365
 33   14.298673 -0.408176 0.471578 0.000248 0.000063 -1.896136
 34   15.835795 0.581398 0.242756 -0.214735 0.106913 -0.097869
 35   -0.815868 -0.091229 -3.114430 0.066464 3.132818 -1.010216
 36   14.294526 -0.410349 -0.467541 0.000021 -0.000012 -2.607695
 37   15.834409 0.579420 -0.284600 -0.006092 -0.035255 0.214508
 38   1.139685 -3.453749 -2.823813 0.000000 0.000000 0.000001
 39   -4.457742 -1.054854 -0.746180 0.000000 0.000000 0.000000
 40   1.118101 -3.449769 3.237290 0.000000 0.000001 0.000000
 41   -4.433840 -1.059130 0.959566 -0.000001 0.000000 0.000000
 42   -0.657468 1.697302 -2.688614 0.000000 0.000002 0.000000
 43   -0.664068 1.698578 2.869377 0.000000 0.000002 0.000000
time 5
  0   -0.967547 0.175787 -20.574476 0.000000 0.000000 -1.572114
  1   -1.093036 0.000002 -0.326057 -1.570389 -1.570611 -0.004042
  2   2.262337 0.113614 0.064702 -0.016229 0.004783 -0.040817
  3   2.380047 0.353302 0.047440 -0.007741 0.041666 -0.035342
  4   2.033756 0.190472 -0.000128 -0.138993 -0.053427 0.037056
  5   2.451511 0.204909 -0.003447 -0.135343 -0.002694 -0.014995
  6   7.247600 -0.397300 -0.109469 -0.091897 0.032631 0.231869
  7   -2.022252 -0.104661 3.136172 1.810380 -1.290601 -5.198943
  8   1.168026 -0.537438 -0.063437 -0.572517 0.748844 -0.434852
  9   6.790376 -0.619176 0.015206 -0.000102 -0.000085 -0.894895
 10   8.637599 0.544015 -0.090417 -2.911252 0.535047 0.275077
 11   6.790465 -0.619039 0.017802 0.000008 -0.011395 -0.641662
 12   -2.022474 -0.104699 -2.873818 -1.728309 1.232817 -5.110157
 13   1.167898 -0.537463 0.063297 0.428667 -0.295511 -1.845675
 14   7.002743 -0.617765 -0.183752 0.000059 0.000023 -0.939077
 15   8.209042 0.615527 -0.255885 2.333987 -0.169086 0.443085
 16   7.002735 -0.617911 -0.183641 0.014155 0.005112 -0.676047
 17   1.574674 0.609930 -0.000899 0.362018 0.007676 -0.123273
 18   -0.602177 0.511412 -0.000006 0.000000 0.000000 0.000000
 19   3.673773 0.177020 1.119313 -0.000002 -0.000014 -0.174510
 20   3.673767 0.176993 -1.117566 0.000007 -0.000003 -0.174546
 21   3.942357 1.334540 1.627658 0.000002 -0.000011 -0.000026
 22   -0.246060 -0.011889 0.516521 -0.000011 0.000031 0.000025
 23   3.942374 1.334565 -1.631083 0.000019 0.000002 -0.000024
 24   -0.246150 -0.011872 -0.516511 -0.000005 -0.000006 0.000048
 25   4.941364 1.997338 1.629330 0.000018 -0.000001 -0.000024
 26   4.941382 1.997366 -1.629410 -0.000001 0.000005 -0.000024
 27   2.914462 1.619264 1.514501 -0.000019 -0.000022 -0.000050
 28   2.916892 1.618870 -1.501142 -0.000002 -0.000009 -0.000024
 29   8.824059 0.150544 0.091743 0.000006 -0.000231 -0.174534
 30   2.111085 -0.561179 1.784320 -0.000008 -0.000682 0.000024
 31   2.121290 -0.561289 -1.853599 0.000000 0.000000 -0.000002
 32   -0.814395 -0.093824 3.127092 3.071965 -0.114691 1.239365
 33   14.298673 -0.408176 0.471578 0.000248 0.000063 -1.896136
 34   15.835795 0.581398 0.242756 -0.214735 0.106913 -0.097869
 35   -0.815868 -0.091229 -3.114430 0.066464 3.132818 -1.010216
 36   14.294526 -0.410349 -0.467541 0.000021 -0.000012 -2.607695
 37   15.834409 0.579420 -0.284600 -0.006092 -0.035255 0.214508
 38   1.139685 -3.453749 -2.823813 0.000000 0.000000 0.000001
 39   -4.457742 -1.054854 -0.746180 0.000000 0.000000 0.000000
 40   1.118101 -3.449769 3.237290 0.000000 0.000001 0.000000
 41   -4.433840 -1.059130 0.959566 -0.000001 0.000000 0.000000
 42   -0.657468 1.697302 -2.688614 0.000000 0.000002 0.000000
 43   -0.664068 1.698578 2.869377 0.000000 0.000002 0.000000
time 6
  0   -0.967547 0.175787 -20.574476 0.000000 0.000000 -1.572114
  1   -1.093036 0.000002 -0.326057 -1.570389 -1.570611 -0.004042
  2   2.262337 0.113614 0.064702 -0.026126 0.001822 -0.033859
  3   2.380047 0.353302 0.047440 -0.038913 0.041546 -0.046157
  4   2.033756 0.190472 -0.000128 -0.142866 -0.042989 0.021469
  5   2.451511 0.204909 -0.003447 -0.121855 0.012306 -0.022227
  6   7.247600 -0.397300 -0.109469 -0.091897 0.032631 0.231869
  7   -2.022252 -0.104661 3.136172 1.744238 -1.196048 -5.137053
  8   1.168026 -0.537438 -0.063437 -0.827601 0.710756 -0.597431
  9   6.790376 -0.619176 0.015206 -0.000102 -0.000085 -0.833992
 10   8.637599 0.544015 -0.090417 -3.269059 0.592486 0.270592
 11   6.790465 -0.619039 0.017802 -0.000225 -0.011310 -0.598982
 12   -2.022474 -0.104699 -2.873818 -1.630298 1.118521 -5.008001
 13   1.167898 -0.537463 0.063297 0.568205 -0.126623 -1.716312
 14   7.002743 -0.617765 -0.183752 0.000059 0.000023 -0.760948
 15   8.209042 0.615527 -0.255885 2.408262 0.013404 0.440679
 16   7.002735 -0.617911 -0.183641 0.014344 0.004154 -0.551256
 17   1.574674 0.609930 -0.000899 0.371320 0.046561 -0.276550
 18   -0.602177 0.511412 -0.000006 0.000000 0.000000 0.000000
 19   3.673773 0.177020 1.119313 -0.000002 -0.000014 -0.174510
 20   3.673767 0.176993 -1.117566 0.000007 -0.000003 -0.174546
 21   3.942357 1.334540 1.627658 0.000002 -0.000011 -0.000026
 22   -0.246060 -0.011889 0.516521 -0.000011 0.000031 0.000025
 23   3.942374 1.334565 -1.631083 0.000019 0.000002 -0.000024
 24   -0.246150 -0.011872 -0.516511 -0.000005 -0.000006 0.000048
 25   4.941364 1.997338 1.629330 0.000018 -0.000001 -0.000024
 26   4.941382 1.997366 -1.629410 -0.000001 0.000005 -0.000024
 27   2.914462 1.619264 1.514501 -0.000019 -0.000022 -0.000050
 28   2.916892 1.618870 -1.501142 -0.000002 -0.000009 -0.000024
 29   8.824059 0.150544 0.091743 0.000006 -0.000231 -0.174534
 30   2.111085 -0.561179 1.784320 -0.000008 -0.000682 0.000024
 31   2.121290 -0.561289 -1.853599 0.000000 0.000000 -0.000002
 32   -0.814395 -0.093824 3.127092 3.071965 -0.114691 1.239365
 33   14.298673 -0.408176 0.471578 0.000248 0.000063 -1.896136
 34   15.835795 0.581398 0.242756 -0.214735 0.106913 -0.097869
 35   -0.815868 -0.091229 -3.114430 0.066464 3.132818 -1.010216
 36   14.294526 -0.410349 -0.467541 0.000021 -0.000012 -2.607695
 37   15.834409 0.579420 -0.284600 -0.006092 -0.035255 0.214508
 38   1.139685 -3.453749 -2.823813 0.000000 0.000000 0.000001
 39   -4.457742 -1.054854 -0.746180 0.000000 0.000000 0.000000
 40   1.118101 -3.449769 3.237290 0.000000 0.000001 0.000000
 41   -4.433840 -1.059130 0.959566 -0.000001 0.000000 0.000000
 42   -0.657468 1.697302 -2.688614 0.000000 0.000002 0.000000
 43   -0.664068 1.698578 2.869377 0.000000 0.000002 0.000000
time 7
  0   -0.967547 0.175787 -20.574476 0.000000 0.000000 -1.572114
  1   -1.093036 0.000002 -0.326057 -1.570389 -1.570611 -0.004042
  2   2.262337 0.113614 0.064702 -0.036558 -0.000946 -0.026685
  3   2.380047 0.353302 0.047440 -0.072455 0.040000 -0.057544
  4   2.033756 0.190472 -0.000128 -0.142903 -0.030824 0.006173
  5   2.451511 0.204909 -0.003447 -0.100767 0.030467 -0.027725
  6   7.247600 -0.397300 -0.109469 -0.091897 0.032631 0.231869
  7   -2.022252 -0.104661 3.136172 1.717877 -1.138451 -5.113573
  8   1.168026 -0.537438 -0.063437 -0.965362 0.572039 -0.603757
  9   6.790376 -0.619176 0.015206 -0.000102 -0.000085 -0.888404
 10   8.637599 0.544015 -0.090417 -3.516257 0.601355 0.230513
 11   6.790465 -0.619039 0.017802 -0.000050 -0.011395 -0.637048
 12   -2.022474 -0.104699 -2.873818 -1.577508 1.004428 -4.948354
 13   1.167898 -0.537463 0.063297 0.714000 0.003717 -1.641794
 14   7.002743 -0.617765 -0.183752 0.000059 0.000023 -0.627867
 15   8.209042 0.615527 -0.255885 2.300480 0.137637 0.440018
 16   7.002735 -0.617911 -0.183641 0.014438 0.003477 -0.458146
 17   1.574674 0.609930 -0.000899 0.374001 0.058844 -0.336908
 18   -0.602177 0.511412 -0.000006 0.000000 0.000000 0.000000
 19   3.673773 0.177020 1.119313 -0.000002 -0.000014 -0.174510
 20   3.673767 0.176993 -1.117566 0.000007 -0.000003 -0.174546
 21   3.942357 1.334540 1.627658 0.000002 -0.000011 -0.000026
 22   -0.246060 -0.011889 0.516521 -0.000011 0.000031 0.000025
 23   3.942374 1.334565 -1.631083 0.000019 0.000002 -0.000024
 24   -0.246150 -0.011872 -0.516511 -0.000005 -0.000006 0.000048
 25   4.941364 1.997338 1.629330 0.000018 -0.000001 -0.000024
 26   4.941382 1.997366 -1.629410 -0.000001 0.000005 -0.000024
 27   2.914462 1.619264 1.514501 -0.000019 -0.000022 -0.000050
 28   2.916892 1.618870 -1.501142 -0.000002 -0.000009 -0.000024
 29   8.824059 0.150544 0.091743 0.000006 -0.000231 -0.174534
 30   2.111085 -0.561179 1.784320 -0.000008 -0.000682 0.000024
 31   2.121290 -0.561289 -1.853599 0.000000 0.000000 -0.000002
 32   -0.814395 -0.093824 3.127092 3.071965 -0.114691 1.239365
 33   14.298673 -0.408176 0.471578 0.000248 0.000063 -1.896136
 34   15.835795 0.581398 0.242756 -0.214735 0.106913 -0.097869
 35   -0.815868 -0.091229 -3.114430 0.066464 3.132818 -1.010216
 36   14.294526 -0.410349 -0.467541 0.000021 -0.000012 -2.607695
 37   15.834409 0.579420 -0.284600 -0.006092 -0.035255 0.214508
 38   1.139685 -3.453749 -2.823813 0.000000 0.000000 0.000001
 39   -4.457742 -1.054854 -0.746180 0.000000 0.000000 0.000000
 40   1.118101 -3.449769 3.237290 0.000000 0.000001 0.000000
 41   -4.433840 -1.059130 0.959566 -0.000001 0.000000 0.000000
 42   -0.657468 1.697302 -2.688614 0.000000 0.000002 0.000000
 43   -0.664068 1.698578 2.869377 0.000000 0.000002 0.000000
time 8
  0   -0.967547 0.175787 -20.574476 0.000000 0.000000 -1.572114
  1   -1.093036 0.000002 -0.326057 -1.570389 -1.570611 -0.004042
  2   2.262337 0.113614 0.064702 -0.046939 -0.003547 -0.019457
  3   2.380047 0.353302 0.047440 -0.105697 0.037663 -0.069318
  4   2.033756 0.190472 -0.000128 -0.143161 -0.018984 -0.009232
  5   2.451511 0.204909 -0.003447 -0.080124 0.048849 -0.032777
  6   7.247600 -0.397300 -0.109469 -0.091897 0.032631 0.231869
  7   -2.022252 -0.104661 3.136172 1.703882 -1.101379 -5.101458
  8   1.168026 -0.537438 -0.063437 -1.030098 0.401222 -0.517280
  9   6.790376 -0.619176 0.015206 -0.000102 -0.000085 -1.007567
 10   8.637599 0.544015 -0.090417 -3.693972 0.580731 0.185153
 11   6.790465 -0.619039 0.017802 0.000417 -0.011452 -0.720619
 12   -2.022474 -0.104699 -2.873818 -1.535161 0.872224 -4.892441
 13   1.167898 -0.537463 0.063297 0.862958 0.128514 -1.578414
 14   7.002743 -0.617765 -0.183752 0.000059 0.000023 -0.516072
 15   8.209042 0.615527 -0.255885 2.086928 0.237962 0.410490
 16   7.002735 -0.617911 -0.183641 0.014485 0.002857 -0.379937
 17   1.574674 0.609930 -0.000899 0.377048 0.062678 -0.348440
 18   -0.602177 0.511412 -0.000006 0.000000 0.000000 0.000000
 19   3.673773 0.177020 1.119313 -0.000002 -0.000014 -0.174510
 20   3.673767 0.176993 -1.117566 0.000007 -0.000003 -0.174546
 21   3.942357 1.334540 1.627658 0.000002 -0.000011 -0.000026
 22   -0.246060 -0.011889 0.516521 -0.000011 0.000031 0.000025
 23   3.942374 1.334565 -1.631083 0.000019 0.000002 -0.000024
 24   -0.246150 -0.011872 -0.516511 -0.000005 -0.000006 0.000048
 25   4.941364 1.997338 1.629330 0.000018 -0.000001 -0.000024
 26   4.941382 1.997366 -1.629410 -0.000001 0.000005 -0.000024
 27   2.914462 1.619264 1.514501 -0.000019 -0.000022 -0.000050
 28   2.916892 1.618870 -1.501142 -0.000002 -0.000009 -0.000024
 29   8.824059 0.150544 0.091743 0.000006 -0.000231 -0.174534
 30   2.111085 -0.561179 1.784320 -0.000008 -0.000682 0.000024
 31   2.121290 -0.561289 -1.853599 0.000000 0.000000 -0.000002
 32   -0.814395 -0.093824 3.127092 3.071965 -0.114691 1.239365
 33   14.298673 -0.408176 0.471578 0.000248 0.000063 -1.896136
 34   15.835795 0.581398 0.242756 -0.214735 0.106913 -0.097869
 35   -0.815868 -0.091229 -3.114430 0.066464 3.132818 -1.010216
 36   14.294526 -0.410349 -0.467541 0.000021 -0.000012 -2.607695
 37   15.834409 0.579420 -0.284600 -0.006092 -0.035255 0.214508
 38   1.139685 -3.453749 -2.823813 0.000000 0.000000 0.000001
 39   -4.457742 -1.054854 -0.746180 0.000000 0.000000 0.000000
 40   1.118101 -3.449769 3.237290 0.000000 0.000001 0.000000
 41   -4.433840 -1.059130 0.959566 -0.000001 0.000000 0.000000
 42   -0.657468 1.697302 -2.688614 0.000000 0.000002 0.000000
 43   -0.664068 1.698578 2.869377 0.000000 0.000002 0.000000
time 9
  0   -0.967547 0.175787 -20.574476 0.000000 0.000000 -1.572114
  1   -1.093036 0.000002 -0.326057 -1.570389 -1.570611 -0.004042
  2   2.262337 0.113614 0.064702 -0.056747 -0.006195 -0.012174
  3   2.380047 0.353302 0.047440 -0.136254 0.035099 -0.081030
  4   2.033756 0.190472 -0.000128 -0.147624 -0.009552 -0.025398
  5   2.451511 0.204909 -0.003447 -0.067612 0.065116 -0.039117
  6   7.247600 -0.397300 -0.109469 -0.091897 0.032631 0.231869
  7   -2.022252 -0.104661 3.136172 1.692187 -1.064250 -5.091127
  8   1.168026 -0.537438 -0.063437 -1.076483 0.237902 -0.398730
  9   6.790376 -0.619176 0.015206 -0.000102 -0.000085 -1.127259
 10   8.637599 0.544015 -0.090417 -3.863057 0.546310 0.152815
 11   6.790465 -0.619039 0.017802 0.000943 -0.011538 -0.804363
 12   -2.022474 -0.104699 -2.873818 -1.513222 0.739207 -4.850890
 13   1.167898 -0.537463 0.063297 1.018594 0.268160 -1.487854
 14   7.002743 -0.617765 -0.183752 0.000059 0.000023 -0.404360
 15   8.209042 0.615527 -0.255885 1.863382 0.327089 0.356908
 16   7.002735 -0.617911 -0.183641 0.014532 0.002293 -0.301729
 17   1.574674 0.609930 -0.000899 0.386350 0.067080 -0.335577
 18   -0.602177 0.511412 -0.000006 0.000000 0.000000 0.000000
 19   3.673773 0.177020 1.119313 -0.000002 -0.000014 -0.174510
 20   3.673767 0.176993 -1.117566 0.000007 -0.000003 -0.174546
 21   3.942357 1.334540 1.627658 0.000002 -0.000011 -0.000026
 22   -0.246060 -0.011889 0.516521 -0.000011 0.000031 0.000025
 23   3.942374 1.334565 -1.631083 0.000019 0.000002 -0.000024
 24   -0.246150 -0.011872 -0.516511 -0.000005 -0.000006 0.000048
 25   4.941364 1.997338 1.629330 0.000018 -0.000001 -0.000024
 26   4.941382 1.997366 -1.629410 -0.000001 0.000005 -0.000024
 27   2.914462 1.619264 1.514501 -0.000019 -0.000022 -0.000050
 28   2.916892 1.618870 -1.501142 -0.000002 -0.000009 -0.000024
 29   8.824059 0.150544 0.091743 0.000006 -0.000231 -0.174534
 30   2.111085 -0.561179 1.784320 -0.000008 -0.000682 0.000024
 31   2.121290 -0.561289 -1.853599 0.000000 0.000000 -0.000002
 32   -0.814395 -0.093824 3.127092 3.071965 -0.114691 1.239365
 33   14.298673 -0.408176 0.471578 0.000248 0.000063 -1.896136
 34   15.835795 0.581398 0.242756 -0.214735 0.106913 -0.097869
 35   -0.815868 -0.091229 -3.114430 0.066464 3.132818 -1.010216
 36   14.294526 -0.410349 -0.467541 0.000021 -0.000012 -2.607695
 37   15.834409 0.579420 -0.284600 -0.006092 -0.035255 0.214508
 38   1.139685 -3.453749 -2.823813 0.000000 0.000000 0.000001
 39   -4.457742 -1.054854 -0.746180 0.000000 0.000000 0.000000
 40   1.118101 -3.449769 3.237290 0.000000 0.000001 0.000000
 41   -4.433840 -1.059130 0.959566 -0.000001 0.000000 0.000000
 42   -0.657468 1.697302 -2.688614 0.000000 0.000002 0.000000
 43   -0.664068 1.698578 2.869377 0.000000 0.000002 0.000000
time 10
  0   -0.967547 0.175787 -20.574476 0.000000 0.000000 -1.572114
  1   -1.093036 0.000002 -0.326057 -1.570389 -1.570611 -0.004042
  2   2.262337 0.113614 0.064702 -0.056454 -0.017485 -0.005524
  3   2.380047 0.353302 0.047440 -0.120623 0.047958 -0.090846
  4   2.033756 0.190472 -0.000128 -0.132575 -0.000791 -0.041165
  5   2.451511 0.204909 -0.003447 -0.065164 0.074059 -0.055487
  6   7.247600 -0.397300 -0.109469 -0.091897 0.032631 0.231869
  7   -2.022252 -0.104661 3.136172 1.692187 -1.064250 -5.091127
  8   1.168026 -0.537438 -0.063437 -1.097492 0.160267 -0.431752
  9   6.790376 -0.619176 0.015206 -0.000102 -0.000085 -1.044924
 10   8.637599 0.544015 -0.090417 -3.909467 0.493235 0.098846
 11   6.790465 -0.619039 0.017802 0.000622 -0.011452 -0.746688
 12   -2.022474 -0.104699 -2.873818 -1.513222 0.739207 -4.850890
 13   1.167898 -0.537463 0.063297 1.012056 0.306200 -1.473144
 14   7.002743 -0.617765 -0.183752 0.000059 0.000023 -0.385631
 15   8.209042 0.615527 -0.255885 1.841236 0.337681 0.337664
 16   7.002735 -0.617911 -0.183641 0.014532 0.002180 -0.288593
 17   1.574674 0.609930 -0.000899 0.327611 0.060477 -0.336316
 18   -0.602177 0.511412 -0.000006 0.000000 0.000000 0.000000
 19   3.673773 0.177020 1.119313 -0.000002 -0.000014 -0.174510
 20   3.673767 0.176993 -1.117566 0.000007 -0.000003 -0.174546
 21   3.942357 1.334540 1.627658 0.000002 -0.000011 -0.000026
 22   -0.246060 -0.011889 0.516521 -0.000011 0.000031 0.000025
 23   3.942374 1.334565 -1.631083 0.000019 0.000002 -0.000024
 24   -0.246150 -0.011872 -0.516511 -0.000005 -0.000006 0.000048
 25   4.941364 1.997338 1.629330 0.000018 -0.000001 -0.000024
 26   4.941382 1.997366 -1.629410 -0.000001 0.000005 -0.000024
 27   2.914462 1.619264 1.514501 -0.000019 -0.000022 -0.000050
 28   2.916892 1.618870 -1.501142 -0.000002 -0.000009 -0.000024
 29   8.824059 0.150544 0.091743 0.000006 -0.000231 -0.174534
 30   2.111085 -0.561179 1.784320 -0.000008 -0.000682 0.000024
 31   2.121290 -0.561289 -1.853599 0.000000 0.000000 -0.000002
 32   -0.814395 -0.093824 3.127092 3.071965 -0.114691 1.239365
 33   14.298673 -0.408176 0.471578 0.000248 0.000063 -1.896136
 34   15.835795 0.581398 0.242756 -0.214735 0.106913 -0.097869
 35   -0.815868 -0.091229 -3.114430 0.066464 3.132818 -1.010216
 36   14.294526 -0.410349 -0.467541 0.000021 -0.000012 -2.607695
 37   15.834409 0.579420 -0.284600 -0.006092 -0.035255 0.214508
 38   1.139685 -3.453749 -2.823813 0.000000 0.000000 0.000001
 39   -4.457742 -1.054854 -0.746180 0.000000 0.000000 0.000000
 40   1.118101 -3.449769 3.237290 0.000000 0.000001 0.000000
 41   -4.433840 -1.059130 0.959566 -0.000001 0.000000 0.000000
 42   -0.657468 1.697302 -2.688614 0.000000 0.000002 0.000000
 43   -0.664068 1.698578 2.869377 0.000000 0.000002 0.000000
end
