version 1
nodes
  0 "Bip01" -1
  1 "Bip01 Pelvis" 0
  2 "Bip01 Spine" 1
  3 "Bip01 Spine1" 2
  4 "Bip01 Spine2" 3
  5 "Bip01 Spine3" 4
  6 "Bip01 Neck" 5
  7 "Bip01 L Arm" 6
  8 "Bip01 L Arm1" 7
  9 "Bip01 L Arm2" 8
 10 "Bip01 L Hand" 9
 11 "Bip06 L elbow2-smooth" 8
 12 "Bip01 R Arm" 6
 13 "Bip01 R Arm1" 12
 14 "Bip01 R Arm2" 13
 15 "Bip01 R Hand" 14
 16 "Bip06 R elbow2-smooth" 13
 17 "Bip01 Head" 6
 18 "Bip06 Head_helper" 17
 19 "Bip06 Head_eyes_l" 18
 20 "Bip06 Head_eyes_r" 18
 21 "Bip06 Head_blink_l" 18
 22 "Bip06 Head_blink_smooth_l1" 21
 23 "Bip06 Head_blink_r" 18
 24 "Bip06 Head_blink_smooth_r1" 23
 25 "Bip06 Head_L_eyebrow" 18
 26 "Bip06 Head_R_eyebrow" 18
 27 "Bip06 Head_blink_l_lid" 18
 28 "Bip06 Head_blink_r_lid" 18
 29 "Bip06 bunny" 18
 30 "Bip06 bunnyL" 29
 31 "Bip06 bunnyR" 29
 32 "Bip01 L Leg" 1
 33 "Bip01 L Leg1" 32
 34 "Bip01 L Foot" 33
 35 "Bip01 R Leg" 1
 36 "Bip01 R Leg1" 35
 37 "Bip01 R Foot" 36
 38 "Bip03 HairR1" 17
 39 "Bip03 HairR2" 38
 40 "Bip03 HairL1" 17
 41 "Bip03 HairL2" 40
 42 "Bip03 swingR" 17
 43 "Bip03 swingL" 17
end
skeleton
time 0
  0   -0.967547 0.175787 -20.574476 0.000000 0.000000 -1.572114
  1   -1.093036 0.000002 -0.326057 -1.570808 -1.570749 0.000022
  2   2.262337 0.113614 0.064702 0.000228 0.000061 -0.255697
  3   2.380047 0.353302 0.047440 0.000000 -0.000028 -0.245295
  4   2.033756 0.190472 -0.000128 -0.178331 0.014382 -0.122250
  5   2.451511 0.204909 -0.003447 -0.153367 -0.033114 -0.125771
  6   7.247600 -0.397300 -0.109469 -0.018755 -0.018567 0.507926
  7   -2.022252 -0.104661 3.136172 1.238875 -1.024584 -4.799517
  8   1.168026 -0.537438 -0.063437 -0.974791 0.334606 -1.107943
  9   6.790376 -0.619176 0.015206 0.054379 -0.116880 -0.454165
 10   8.637599 0.544015 -0.090417 -3.988549 0.202875 -0.503999
 11   6.790465 -0.619039 0.017802 0.031453 -0.095278 -0.332236
 12   -2.022474 -0.104699 -2.873818 -1.470683 1.765987 -5.213844
 13   1.167898 -0.537463 0.063297 0.417350 -0.737539 -0.968708
 14   7.002743 -0.617765 -0.183752 0.378432 -0.323082 -1.755056
 15   8.209042 0.615527 -0.255885 2.208085 0.413492 0.538102
 16   7.002735 -0.617911 -0.183641 0.221243 -0.293125 -1.224056
 17   1.574674 0.609930 -0.000899 0.254777 0.315535 -0.043807
 18   -0.602177 0.511412 -0.000006 0.000000 0.000000 0.000000
 19   3.673773 0.177020 1.119313 -0.000002 -0.000014 -0.174510
 20   3.673767 0.176993 -1.117566 0.000007 -0.000003 -0.174546
 21   3.942357 1.334540 1.627658 0.000002 -0.000011 -0.000026
 22   -0.246060 -0.011889 0.516521 -0.000011 0.000031 0.000025
 23   3.942374 1.334565 -1.631083 0.000019 0.000002 -0.000024
 24   -0.246150 -0.011872 -0.516511 -0.000005 -0.000006 0.000048
 25   4.941364 1.997338 1.629330 0.000018 -0.000001 -0.000024
 26   4.941382 1.997366 -1.629410 -0.000001 0.000005 -0.000024
 27   2.914462 1.619264 1.514501 -0.000019 -0.000022 -0.000050
 28   2.916892 1.618870 -1.501142 -0.000002 -0.000009 -0.000024
 29   8.824059 0.150544 0.091743 0.000006 -0.000231 -0.174534
 30   2.111085 -0.561179 1.784320 -0.000008 -0.000682 0.000024
 31   2.121290 -0.561289 -1.853599 0.000000 0.000000 -0.000002
 32   -0.814395 -0.093824 3.127092 3.071965 -0.114691 1.239365
 33   14.298673 -0.408176 0.471578 0.000248 0.000063 -1.896136
 34   15.835795 0.581398 0.242756 -0.214735 0.106913 -0.097869
 35   -0.815868 -0.091229 -3.114430 0.066464 3.132818 -1.010216
 36   14.294526 -0.410349 -0.467541 0.000021 -0.000012 -2.607695
 37   15.834409 0.579420 -0.284600 -0.006092 -0.035255 0.214508
 38   1.139685 -3.453749 -2.823813 0.000000 0.000000 0.000001
 39   -4.457742 -1.054854 -0.746180 0.000000 0.000000 0.000000
 40   1.118101 -3.449769 3.237290 0.000000 0.000001 0.000000
 41   -4.433840 -1.059130 0.959566 -0.000001 0.000000 0.000000
 42   -0.657468 1.697302 -2.688614 0.000000 0.000002 0.000000
 43   -0.664068 1.698578 2.869377 0.000000 0.000002 0.000000
time 1
  0   -0.967547 0.175787 -20.574476 0.000000 0.000000 -1.572114
  1   -1.093036 0.000002 -0.326057 -1.570808 -1.570749 0.000022
  2   2.262337 0.113614 0.064702 0.000228 0.000061 -0.255697
  3   2.380047 0.353302 0.047440 0.000000 -0.000028 -0.245295
  4   2.033756 0.190472 -0.000128 -0.320450 -0.014957 -0.125766
  5   2.451511 0.204909 -0.003447 -0.300281 -0.060217 -0.135578
  6   7.247600 -0.397300 -0.109469 -0.018755 -0.018567 0.507926
  7   -2.022252 -0.104661 3.136172 1.238875 -1.024584 -4.799517
  8   1.168026 -0.537438 -0.063437 -0.860506 0.656467 -0.616346
  9   6.790376 -0.619176 0.015206 0.053269 -0.185489 -1.272987
 10   8.637599 0.544015 -0.090417 -3.988549 0.202875 -0.503999
 11   6.790465 -0.619039 0.017802 0.014636 -0.150395 -0.902641
 12   -2.022474 -0.104699 -2.873818 -1.470683 1.765987 -5.213844
 13   1.167898 -0.537463 0.063297 0.391199 -0.822771 -1.184696
 14   7.002743 -0.617765 -0.183752 0.377180 -0.322571 -1.790203
 15   8.209042 0.615527 -0.255885 2.218870 0.409936 0.539485
 16   7.002735 -0.617911 -0.183641 0.219407 -0.294252 -1.248617
 17   1.574674 0.609930 -0.000899 0.511911 0.156399 0.036066
 18   -0.602177 0.511412 -0.000006 0.000000 0.000000 0.000000
 19   3.673773 0.177020 1.119313 -0.000002 -0.000014 -0.174510
 20   3.673767 0.176993 -1.117566 0.000007 -0.000003 -0.174546
 21   3.942357 1.334540 1.627658 0.000002 -0.000011 -0.000026
 22   -0.246060 -0.011889 0.516521 -0.000011 0.000031 0.000025
 23   3.942374 1.334565 -1.631083 0.000019 0.000002 -0.000024
 24   -0.246150 -0.011872 -0.516511 -0.000005 -0.000006 0.000048
 25   4.941364 1.997338 1.629330 0.000018 -0.000001 -0.000024
 26   4.941382 1.997366 -1.629410 -0.000001 0.000005 -0.000024
 27   2.914462 1.619264 1.514501 -0.000019 -0.000022 -0.000050
 28   2.916892 1.618870 -1.501142 -0.000002 -0.000009 -0.000024
 29   8.824059 0.150544 0.091743 0.000006 -0.000231 -0.174534
 30   2.111085 -0.561179 1.784320 -0.000008 -0.000682 0.000024
 31   2.121290 -0.561289 -1.853599 0.000000 0.000000 -0.000002
 32   -0.814395 -0.093824 3.127092 3.071965 -0.114691 1.239365
 33   14.298673 -0.408176 0.471578 0.000248 0.000063 -1.896136
 34   15.835795 0.581398 0.242756 -0.214735 0.106913 -0.097869
 35   -0.815868 -0.091229 -3.114430 0.066464 3.132818 -1.010216
 36   14.294526 -0.410349 -0.467541 0.000021 -0.000012 -2.607695
 37   15.834409 0.579420 -0.284600 -0.006092 -0.035255 0.214508
 38   1.139685 -3.453749 -2.823813 0.000000 0.000000 0.000001
 39   -4.457742 -1.054854 -0.746180 0.000000 0.000000 0.000000
 40   1.118101 -3.449769 3.237290 0.000000 0.000001 0.000000
 41   -4.433840 -1.059130 0.959566 -0.000001 0.000000 0.000000
 42   -0.657468 1.697302 -2.688614 0.000000 0.000002 0.000000
 43   -0.664068 1.698578 2.869377 0.000000 0.000002 0.000000
time 2
  0   -0.967547 0.175787 -20.574476 0.000000 0.000000 -1.572114
  1   -1.093036 0.000002 -0.326057 -1.570808 -1.570749 0.000022
  2   2.262337 0.113614 0.064702 0.000228 0.000061 -0.255697
  3   2.380047 0.353302 0.047440 0.000000 -0.000028 -0.245295
  4   2.033756 0.190472 -0.000128 -0.309919 -0.012775 -0.125621
  5   2.451511 0.204909 -0.003447 -0.289446 -0.058194 -0.134885
  6   7.247600 -0.397300 -0.109469 -0.018755 -0.018567 0.507926
  7   -2.022252 -0.104661 3.136172 1.238875 -1.024584 -4.799517
  8   1.168026 -0.537438 -0.063437 -0.871137 0.640265 -0.649621
  9   6.790376 -0.619176 0.015206 0.052992 -0.184221 -1.232385
 10   8.637599 0.544015 -0.090417 -3.988549 0.202875 -0.503999
 11   6.790465 -0.619039 0.017802 0.015220 -0.149087 -0.874322
 12   -2.022474 -0.104699 -2.873818 -1.470683 1.765987 -5.213844
 13   1.167898 -0.537463 0.063297 0.391902 -0.817889 -1.168654
 14   7.002743 -0.617765 -0.183752 0.377237 -0.322571 -1.789708
 15   8.209042 0.615527 -0.255885 2.218870 0.409936 0.539485
 16   7.002735 -0.617911 -0.183641 0.219407 -0.294196 -1.248175
 17   1.574674 0.609930 -0.000899 0.492900 0.168161 0.030152
 18   -0.602177 0.511412 -0.000006 0.000000 0.000000 0.000000
 19   3.673773 0.177020 1.119313 -0.000002 -0.000014 -0.174510
 20   3.673767 0.176993 -1.117566 0.000007 -0.000003 -0.174546
 21   3.942357 1.334540 1.627658 0.000002 -0.000011 -0.000026
 22   -0.246060 -0.011889 0.516521 -0.000011 0.000031 0.000025
 23   3.942374 1.334565 -1.631083 0.000019 0.000002 -0.000024
 24   -0.246150 -0.011872 -0.516511 -0.000005 -0.000006 0.000048
 25   4.941364 1.997338 1.629330 0.000018 -0.000001 -0.000024
 26   4.941382 1.997366 -1.629410 -0.000001 0.000005 -0.000024
 27   2.914462 1.619264 1.514501 -0.000019 -0.000022 -0.000050
 28   2.916892 1.618870 -1.501142 -0.000002 -0.000009 -0.000024
 29   8.824059 0.150544 0.091743 0.000006 -0.000231 -0.174534
 30   2.111085 -0.561179 1.784320 -0.000008 -0.000682 0.000024
 31   2.121290 -0.561289 -1.853599 0.000000 0.000000 -0.000002
 32   -0.814395 -0.093824 3.127092 3.071965 -0.114691 1.239365
 33   14.298673 -0.408176 0.471578 0.000248 0.000063 -1.896136
 34   15.835795 0.581398 0.242756 -0.214735 0.106913 -0.097869
 35   -0.815868 -0.091229 -3.114430 0.066464 3.132818 -1.010216
 36   14.294526 -0.410349 -0.467541 0.000021 -0.000012 -2.607695
 37   15.834409 0.579420 -0.284600 -0.006092 -0.035255 0.214508
 38   1.139685 -3.453749 -2.823813 0.000000 0.000000 0.000001
 39   -4.457742 -1.054854 -0.746180 0.000000 0.000000 0.000000
 40   1.118101 -3.449769 3.237290 0.000000 0.000001 0.000000
 41   -4.433840 -1.059130 0.959566 -0.000001 0.000000 0.000000
 42   -0.657468 1.697302 -2.688614 0.000000 0.000002 0.000000
 43   -0.664068 1.698578 2.869377 0.000000 0.000002 0.000000
time 3
  0   -0.967547 0.175787 -20.574476 0.000000 0.000000 -1.572114
  1   -1.093036 0.000002 -0.326057 -1.570808 -1.570749 0.000022
  2   2.262337 0.113614 0.064702 0.000228 0.000061 -0.255697
  3   2.380047 0.353302 0.047440 0.000000 -0.000028 -0.245295
  4   2.033756 0.190472 -0.000128 -0.283620 -0.007358 -0.125041
  5   2.451511 0.204909 -0.003447 -0.262196 -0.053220 -0.133275
  6   7.247600 -0.397300 -0.109469 -0.018755 -0.018567 0.507926
  7   -2.022252 -0.104661 3.136172 1.238875 -1.024584 -4.799517
  8   1.168026 -0.537438 -0.063437 -0.895690 0.595939 -0.733504
  9   6.790376 -0.619176 0.015206 0.052270 -0.179683 -1.117071
 10   8.637599 0.544015 -0.090417 -3.988549 0.202875 -0.503999
 11   6.790465 -0.619039 0.017802 0.017117 -0.144624 -0.794096
 12   -2.022474 -0.104699 -2.873818 -1.470683 1.765987 -5.213844
 13   1.167898 -0.537463 0.063297 0.397596 -0.804464 -1.132333
 14   7.002743 -0.617765 -0.183752 0.377464 -0.322684 -1.782860
 15   8.209042 0.615527 -0.255885 2.218870 0.409936 0.539485
 16   7.002735 -0.617911 -0.183641 0.219783 -0.293970 -1.243484
 17   1.574674 0.609930 -0.000899 0.445210 0.197626 0.015405
 18   -0.602177 0.511412 -0.000006 0.000000 0.000000 0.000000
 19   3.673773 0.177020 1.119313 -0.000002 -0.000014 -0.174510
 20   3.673767 0.176993 -1.117566 0.000007 -0.000003 -0.174546
 21   3.942357 1.334540 1.627658 0.000002 -0.000011 -0.000026
 22   -0.246060 -0.011889 0.516521 -0.000011 0.000031 0.000025
 23   3.942374 1.334565 -1.631083 0.000019 0.000002 -0.000024
 24   -0.246150 -0.011872 -0.516511 -0.000005 -0.000006 0.000048
 25   4.941364 1.997338 1.629330 0.000018 -0.000001 -0.000024
 26   4.941382 1.997366 -1.629410 -0.000001 0.000005 -0.000024
 27   2.914462 1.619264 1.514501 -0.000019 -0.000022 -0.000050
 28   2.916892 1.618870 -1.501142 -0.000002 -0.000009 -0.000024
 29   8.824059 0.150544 0.091743 0.000006 -0.000231 -0.174534
 30   2.111085 -0.561179 1.784320 -0.000008 -0.000682 0.000024
 31   2.121290 -0.561289 -1.853599 0.000000 0.000000 -0.000002
 32   -0.814395 -0.093824 3.127092 3.071965 -0.114691 1.239365
 33   14.298673 -0.408176 0.471578 0.000248 0.000063 -1.896136
 34   15.835795 0.581398 0.242756 -0.214735 0.106913 -0.097869
 35   -0.815868 -0.091229 -3.114430 0.066464 3.132818 -1.010216
 36   14.294526 -0.410349 -0.467541 0.000021 -0.000012 -2.607695
 37   15.834409 0.579420 -0.284600 -0.006092 -0.035255 0.214508
 38   1.139685 -3.453749 -2.823813 0.000000 0.000000 0.000001
 39   -4.457742 -1.054854 -0.746180 0.000000 0.000000 0.000000
 40   1.118101 -3.449769 3.237290 0.000000 0.000001 0.000000
 41   -4.433840 -1.059130 0.959566 -0.000001 0.000000 0.000000
 42   -0.657468 1.697302 -2.688614 0.000000 0.000002 0.000000
 43   -0.664068 1.698578 2.869377 0.000000 0.000002 0.000000
time 4
  0   -0.967547 0.175787 -20.574476 0.000000 0.000000 -1.572114
  1   -1.093036 0.000002 -0.326057 -1.570808 -1.570749 0.000022
  2   2.262337 0.113614 0.064702 0.000228 0.000061 -0.255697
  3   2.380047 0.353302 0.047440 0.000000 -0.000028 -0.245295
  4   2.033756 0.190472 -0.000128 -0.249409 -0.000312 -0.124316
  5   2.451511 0.204909 -0.003447 -0.226901 -0.046731 -0.130972
  6   7.247600 -0.397300 -0.109469 -0.018755 -0.018567 0.507926
  7   -2.022252 -0.104661 3.136172 1.238875 -1.024584 -4.799517
  8   1.168026 -0.537438 -0.063437 -0.924736 0.529524 -0.845285
  9   6.790376 -0.619176 0.015206 0.051771 -0.169204 -0.948476
 10   8.637599 0.544015 -0.090417 -3.988549 0.202875 -0.503999
 11   6.790465 -0.619039 0.017802 0.020387 -0.135727 -0.676613
 12   -2.022474 -0.104699 -2.873818 -1.470683 1.765987 -5.213844
 13   1.167898 -0.537463 0.063297 0.403220 -0.785342 -1.080818
 14   7.002743 -0.617765 -0.183752 0.377749 -0.322741 -1.775682
 15   8.209042 0.615527 -0.255885 2.218870 0.409936 0.539485
 16   7.002735 -0.617911 -0.183641 0.220160 -0.293745 -1.238461
 17   1.574674 0.609930 -0.000899 0.383344 0.235967 -0.003815
 18   -0.602177 0.511412 -0.000006 0.000000 0.000000 0.000000
 19   3.673773 0.177020 1.119313 -0.000002 -0.000014 -0.174510
 20   3.673767 0.176993 -1.117566 0.000007 -0.000003 -0.174546
 21   3.942357 1.334540 1.627658 0.000002 -0.000011 -0.000026
 22   -0.246060 -0.011889 0.516521 -0.000011 0.000031 0.000025
 23   3.942374 1.334565 -1.631083 0.000019 0.000002 -0.000024
 24   -0.246150 -0.011872 -0.516511 -0.000005 -0.000006 0.000048
 25   4.941364 1.997338 1.629330 0.000018 -0.000001 -0.000024
 26   4.941382 1.997366 -1.629410 -0.000001 0.000005 -0.000024
 27   2.914462 1.619264 1.514501 -0.000019 -0.000022 -0.000050
 28   2.916892 1.618870 -1.501142 -0.000002 -0.000009 -0.000024
 29   8.824059 0.150544 0.091743 0.000006 -0.000231 -0.174534
 30   2.111085 -0.561179 1.784320 -0.000008 -0.000682 0.000024
 31   2.121290 -0.561289 -1.853599 0.000000 0.000000 -0.000002
 32   -0.814395 -0.093824 3.127092 3.071965 -0.114691 1.239365
 33   14.298673 -0.408176 0.471578 0.000248 0.000063 -1.896136
 34   15.835795 0.581398 0.242756 -0.214735 0.106913 -0.097869
 35   -0.815868 -0.091229 -3.114430 0.066464 3.132818 -1.010216
 36   14.294526 -0.410349 -0.467541 0.000021 -0.000012 -2.607695
 37   15.834409 0.579420 -0.284600 -0.006092 -0.035255 0.214508
 38   1.139685 -3.453749 -2.823813 0.000000 0.000000 0.000001
 39   -4.457742 -1.054854 -0.746180 0.000000 0.000000 0.000000
 40   1.118101 -3.449769 3.237290 0.000000 0.000001 0.000000
 41   -4.433840 -1.059130 0.959566 -0.000001 0.000000 0.000000
 42   -0.657468 1.697302 -2.688614 0.000000 0.000002 0.000000
 43   -0.664068 1.698578 2.869377 0.000000 0.000002 0.000000
time 5
  0   -0.967547 0.175787 -20.574476 0.000000 0.000000 -1.572114
  1   -1.093036 0.000002 -0.326057 -1.570808 -1.570749 0.000022
  2   2.262337 0.113614 0.064702 0.000228 0.000061 -0.255697
  3   2.380047 0.353302 0.047440 0.000000 -0.000028 -0.245295
  4   2.033756 0.190472 -0.000128 -0.215198 0.006711 -0.123410
  5   2.451511 0.204909 -0.003447 -0.191555 -0.040164 -0.128545
  6   7.247600 -0.397300 -0.109469 -0.018755 -0.018567 0.507926
  7   -2.022252 -0.104661 3.136172 1.238875 -1.024584 -4.799517
  8   1.168026 -0.537438 -0.063437 -0.949605 0.452442 -0.960230
  9   6.790376 -0.619176 0.015206 0.052104 -0.152453 -0.756034
 10   8.637599 0.544015 -0.090417 -3.988549 0.202875 -0.503999
 11   6.790465 -0.619039 0.017802 0.024592 -0.122367 -0.542634
 12   -2.022474 -0.104699 -2.873818 -1.470683 1.765987 -5.213844
 13   1.167898 -0.537463 0.063297 0.406313 -0.764746 -1.024884
 14   7.002743 -0.617765 -0.183752 0.377863 -0.322854 -1.771887
 15   8.209042 0.615527 -0.255885 2.218870 0.409936 0.539485
 16   7.002735 -0.617911 -0.183641 0.220395 -0.293632 -1.235812
 17   1.574674 0.609930 -0.000899 0.321396 0.274283 -0.023109
 18   -0.602177 0.511412 -0.000006 0.000000 0.000000 0.000000
 19   3.673773 0.177020 1.119313 -0.000002 -0.000014 -0.174510
 20   3.673767 0.176993 -1.117566 0.000007 -0.000003 -0.174546
 21   3.942357 1.334540 1.627658 0.000002 -0.000011 -0.000026
 22   -0.246060 -0.011889 0.516521 -0.000011 0.000031 0.000025
 23   3.942374 1.334565 -1.631083 0.000019 0.000002 -0.000024
 24   -0.246150 -0.011872 -0.516511 -0.000005 -0.000006 0.000048
 25   4.941364 1.997338 1.629330 0.000018 -0.000001 -0.000024
 26   4.941382 1.997366 -1.629410 -0.000001 0.000005 -0.000024
 27   2.914462 1.619264 1.514501 -0.000019 -0.000022 -0.000050
 28   2.916892 1.618870 -1.501142 -0.000002 -0.000009 -0.000024
 29   8.824059 0.150544 0.091743 0.000006 -0.000231 -0.174534
 30   2.111085 -0.561179 1.784320 -0.000008 -0.000682 0.000024
 31   2.121290 -0.561289 -1.853599 0.000000 0.000000 -0.000002
 32   -0.814395 -0.093824 3.127092 3.071965 -0.114691 1.239365
 33   14.298673 -0.408176 0.471578 0.000248 0.000063 -1.896136
 34   15.835795 0.581398 0.242756 -0.214735 0.106913 -0.097869
 35   -0.815868 -0.091229 -3.114430 0.066464 3.132818 -1.010216
 36   14.294526 -0.410349 -0.467541 0.000021 -0.000012 -2.607695
 37   15.834409 0.579420 -0.284600 -0.006092 -0.035255 0.214508
 38   1.139685 -3.453749 -2.823813 0.000000 0.000000 0.000001
 39   -4.457742 -1.054854 -0.746180 0.000000 0.000000 0.000000
 40   1.118101 -3.449769 3.237290 0.000000 0.000001 0.000000
 41   -4.433840 -1.059130 0.959566 -0.000001 0.000000 0.000000
 42   -0.657468 1.697302 -2.688614 0.000000 0.000002 0.000000
 43   -0.664068 1.698578 2.869377 0.000000 0.000002 0.000000
time 6
  0   -0.967547 0.175787 -20.574476 0.000000 0.000000 -1.572114
  1   -1.093036 0.000002 -0.326057 -1.570808 -1.570749 0.000022
  2   2.262337 0.113614 0.064702 0.000228 0.000061 -0.255697
  3   2.380047 0.353302 0.047440 0.000000 -0.000028 -0.245295
  4   2.033756 0.190472 -0.000128 -0.188862 0.012164 -0.122576
  5   2.451511 0.204909 -0.003447 -0.164339 -0.035164 -0.126539
  6   7.247600 -0.397300 -0.109469 -0.018755 -0.018567 0.507926
  7   -2.022252 -0.104661 3.136172 1.238875 -1.024584 -4.799517
  8   1.168026 -0.537438 -0.063437 -0.966248 0.380543 -1.054994
  9   6.790376 -0.619176 0.015206 0.053158 -0.132831 -0.578988
 10   8.637599 0.544015 -0.090417 -3.988549 0.202875 -0.503999
 11   6.790465 -0.619039 0.017802 0.028650 -0.107245 -0.419210
 12   -2.022474 -0.104699 -2.873818 -1.470683 1.765987 -5.213844
 13   1.167898 -0.537463 0.063297 0.407930 -0.747252 -0.979604
 14   7.002743 -0.617765 -0.183752 0.377920 -0.322854 -1.769742
 15   8.209042 0.615527 -0.255885 2.218870 0.409936 0.539485
 16   7.002735 -0.617911 -0.183641 0.220490 -0.293576 -1.234377
 17   1.574674 0.609930 -0.000899 0.273788 0.303678 -0.037893
 18   -0.602177 0.511412 -0.000006 0.000000 0.000000 0.000000
 19   3.673773 0.177020 1.119313 -0.000002 -0.000014 -0.174510
 20   3.673767 0.176993 -1.117566 0.000007 -0.000003 -0.174546
 21   3.942357 1.334540 1.627658 0.000002 -0.000011 -0.000026
 22   -0.246060 -0.011889 0.516521 -0.000011 0.000031 0.000025
 23   3.942374 1.334565 -1.631083 0.000019 0.000002 -0.000024
 24   -0.246150 -0.011872 -0.516511 -0.000005 -0.000006 0.000048
 25   4.941364 1.997338 1.629330 0.000018 -0.000001 -0.000024
 26   4.941382 1.997366 -1.629410 -0.000001 0.000005 -0.000024
 27   2.914462 1.619264 1.514501 -0.000019 -0.000022 -0.000050
 28   2.916892 1.618870 -1.501142 -0.000002 -0.000009 -0.000024
 29   8.824059 0.150544 0.091743 0.000006 -0.000231 -0.174534
 30   2.111085 -0.561179 1.784320 -0.000008 -0.000682 0.000024
 31   2.121290 -0.561289 -1.853599 0.000000 0.000000 -0.000002
 32   -0.814395 -0.093824 3.127092 3.071965 -0.114691 1.239365
 33   14.298673 -0.408176 0.471578 0.000248 0.000063 -1.896136
 34   15.835795 0.581398 0.242756 -0.214735 0.106913 -0.097869
 35   -0.815868 -0.091229 -3.114430 0.066464 3.132818 -1.010216
 36   14.294526 -0.410349 -0.467541 0.000021 -0.000012 -2.607695
 37   15.834409 0.579420 -0.284600 -0.006092 -0.035255 0.214508
 38   1.139685 -3.453749 -2.823813 0.000000 0.000000 0.000001
 39   -4.457742 -1.054854 -0.746180 0.000000 0.000000 0.000000
 40   1.118101 -3.449769 3.237290 0.000000 0.000001 0.000000
 41   -4.433840 -1.059130 0.959566 -0.000001 0.000000 0.000000
 42   -0.657468 1.697302 -2.688614 0.000000 0.000002 0.000000
 43   -0.664068 1.698578 2.869377 0.000000 0.000002 0.000000
time 7
  0   -0.967547 0.175787 -20.574476 0.000000 0.000000 -1.572114
  1   -1.093036 0.000002 -0.326057 -1.570808 -1.570749 0.000022
  2   2.262337 0.113614 0.064702 0.000228 0.000061 -0.255697
  3   2.380047 0.353302 0.047440 0.000000 -0.000028 -0.245295
  4   2.033756 0.190472 -0.000128 -0.178331 0.014382 -0.122250
  5   2.451511 0.204909 -0.003447 -0.153367 -0.033114 -0.125771
  6   7.247600 -0.397300 -0.109469 -0.018755 -0.018567 0.507926
  7   -2.022252 -0.104661 3.136172 1.238875 -1.024584 -4.799517
  8   1.168026 -0.537438 -0.063437 -0.972323 0.348090 -1.094784
  9   6.790376 -0.619176 0.015206 0.053879 -0.122887 -0.499898
 10   8.637599 0.544015 -0.090417 -3.988549 0.202875 -0.503999
 11   6.790465 -0.619039 0.017802 0.030489 -0.099741 -0.364130
 12   -2.022474 -0.104699 -2.873818 -1.470683 1.765987 -5.213844
 13   1.167898 -0.537463 0.063297 0.407719 -0.740133 -0.960354
 14   7.002743 -0.617765 -0.183752 0.377920 -0.322854 -1.770237
 15   8.209042 0.615527 -0.255885 2.218870 0.409936 0.539485
 16   7.002735 -0.617911 -0.183641 0.220490 -0.293576 -1.234653
 17   1.574674 0.609930 -0.000899 0.254777 0.315535 -0.043807
 18   -0.602177 0.511412 -0.000006 0.000000 0.000000 0.000000
 19   3.673773 0.177020 1.119313 -0.000002 -0.000014 -0.174510
 20   3.673767 0.176993 -1.117566 0.000007 -0.000003 -0.174546
 21   3.942357 1.334540 1.627658 0.000002 -0.000011 -0.000026
 22   -0.246060 -0.011889 0.516521 -0.000011 0.000031 0.000025
 23   3.942374 1.334565 -1.631083 0.000019 0.000002 -0.000024
 24   -0.246150 -0.011872 -0.516511 -0.000005 -0.000006 0.000048
 25   4.941364 1.997338 1.629330 0.000018 -0.000001 -0.000024
 26   4.941382 1.997366 -1.629410 -0.000001 0.000005 -0.000024
 27   2.914462 1.619264 1.514501 -0.000019 -0.000022 -0.000050
 28   2.916892 1.618870 -1.501142 -0.000002 -0.000009 -0.000024
 29   8.824059 0.150544 0.091743 0.000006 -0.000231 -0.174534
 30   2.111085 -0.561179 1.784320 -0.000008 -0.000682 0.000024
 31   2.121290 -0.561289 -1.853599 0.000000 0.000000 -0.000002
 32   -0.814395 -0.093824 3.127092 3.071965 -0.114691 1.239365
 33   14.298673 -0.408176 0.471578 0.000248 0.000063 -1.896136
 34   15.835795 0.581398 0.242756 -0.214735 0.106913 -0.097869
 35   -0.815868 -0.091229 -3.114430 0.066464 3.132818 -1.010216
 36   14.294526 -0.410349 -0.467541 0.000021 -0.000012 -2.607695
 37   15.834409 0.579420 -0.284600 -0.006092 -0.035255 0.214508
 38   1.139685 -3.453749 -2.823813 0.000000 0.000000 0.000001
 39   -4.457742 -1.054854 -0.746180 0.000000 0.000000 0.000000
 40   1.118101 -3.449769 3.237290 0.000000 0.000001 0.000000
 41   -4.433840 -1.059130 0.959566 -0.000001 0.000000 0.000000
 42   -0.657468 1.697302 -2.688614 0.000000 0.000002 0.000000
 43   -0.664068 1.698578 2.869377 0.000000 0.000002 0.000000
end
