version 1
nodes
  0 "Bip01" -1
  1 "Bip01 Pelvis" 0
  2 "Bip01 Spine" 1
  3 "Bip01 Spine1" 2
  4 "Bip01 Spine2" 3
  5 "Bip01 Spine3" 4
  6 "Bip01 Neck" 5
  7 "Bip01 L Arm" 6
  8 "Bip01 L Arm1" 7
  9 "Bip01 L Arm2" 8
 10 "Bip01 L Hand" 9
 11 "Bip06 L elbow2-smooth" 8
 12 "Bip01 R Arm" 6
 13 "Bip01 R Arm1" 12
 14 "Bip01 R Arm2" 13
 15 "Bip01 R Hand" 14
 16 "Bip06 R elbow2-smooth" 13
 17 "Bip01 Head" 6
 18 "Bip06 Head_helper" 17
 19 "Bip06 Head_eyes_l" 18
 20 "Bip06 Head_eyes_r" 18
 21 "Bip06 Head_blink_l" 18
 22 "Bip06 Head_blink_smooth_l1" 21
 23 "Bip06 Head_blink_r" 18
 24 "Bip06 Head_blink_smooth_r1" 23
 25 "Bip06 Head_L_eyebrow" 18
 26 "Bip06 Head_R_eyebrow" 18
 27 "Bip06 Head_blink_l_lid" 18
 28 "Bip06 Head_blink_r_lid" 18
 29 "Bip06 bunny" 18
 30 "Bip06 bunnyL" 29
 31 "Bip06 bunnyR" 29
 32 "Bip01 L Leg" 1
 33 "Bip01 L Leg1" 32
 34 "Bip01 L Foot" 33
 35 "Bip01 R Leg" 1
 36 "Bip01 R Leg1" 35
 37 "Bip01 R Foot" 36
 38 "Bip03 HairR1" 17
 39 "Bip03 HairR2" 38
 40 "Bip03 HairL1" 17
 41 "Bip03 HairL2" 40
 42 "Bip03 swingR" 17
 43 "Bip03 swingL" 17
end
skeleton
time 0
  0   -0.967547 0.175787 -20.574476 0.000000 0.000000 -1.572114
  1   -1.093036 0.000002 -0.326057 -0.214014 -1.569082 -1.356583
  2   2.262337 0.113614 0.064702 -0.041309 -0.087487 0.348629
  3   2.380047 0.353302 0.047440 -0.099097 -0.011953 0.354015
  4   2.033756 0.190472 -0.000128 -0.135489 -0.014765 0.050431
  5   2.451511 0.204909 -0.003447 -0.367961 0.077493 0.048429
  6   7.247600 -0.397300 -0.109469 0.000001 0.000021 0.156829
  7   -2.022252 -0.104661 3.136172 0.479392 -1.239318 -3.683039
  8   1.168026 -0.537438 -0.063437 -0.721606 0.746580 -0.636336
  9   6.790376 -0.619176 0.015206 0.037014 0.045299 -1.050207
 10   8.637599 0.544015 -0.090417 -3.614626 0.247221 0.266830
 11   6.790465 -0.619039 0.017802 0.031628 0.016632 -0.750610
 12   -2.022474 -0.104699 -2.873818 -2.272876 1.443299 -5.613372
 13   1.167898 -0.537463 0.063297 -0.112966 -1.062042 -0.750601
 14   7.002743 -0.617765 -0.183752 0.019757 -0.136430 -1.725024
 15   8.209042 0.615527 -0.255885 2.235192 0.403505 0.416444
 16   7.002735 -0.617911 -0.183641 0.002245 -0.092439 -1.224387
 17   1.574674 0.609930 -0.000899 0.562241 0.005309 0.597467
 18   -0.602177 0.511412 -0.000006 0.000000 0.000000 0.000000
 19   3.646428 0.364526 1.119313 -0.000002 -0.000014 -0.174510
 20   3.646422 0.364499 -1.117566 0.000007 -0.000003 -0.174546
 21   3.805634 1.330634 1.627658 0.000002 -0.000011 -0.000026
 22   -0.246060 -0.011889 0.516521 -0.000011 0.000031 0.000025
 23   3.805651 1.330659 -1.631083 0.000019 0.000002 -0.000024
 24   -0.246150 -0.011872 -0.516511 -0.000005 -0.000006 0.000048
 25   4.941364 1.997338 1.629330 0.000018 -0.000001 -0.000024
 26   4.941382 1.997366 -1.629410 -0.000001 0.000005 -0.000024
 27   2.930087 1.603639 1.514501 -0.000019 -0.000022 -0.000050
 28   2.932517 1.603245 -1.501142 -0.000002 -0.000009 -0.000024
 29   8.824059 0.150544 0.091743 0.000006 -0.000231 -0.174534
 30   2.111085 -0.561179 1.784320 -0.000008 -0.000682 0.000024
 31   2.121290 -0.561289 -1.853599 0.000000 0.000000 -0.000002
 32   -0.814395 -0.093824 3.127092 3.071965 -0.114691 1.239365
 33   14.298673 -0.408176 0.471578 0.000248 0.000063 -1.896136
 34   15.835795 0.581398 0.242756 -0.214735 0.106913 -0.097869
 35   -0.815868 -0.091229 -3.114430 0.066464 3.132818 -1.010216
 36   14.294526 -0.410349 -0.467541 0.000021 -0.000012 -2.607695
 37   15.834409 0.579420 -0.284600 -0.006092 -0.035255 0.214508
 38   1.139685 -3.453749 -2.823813 0.000000 0.000000 0.000001
 39   -4.457742 -1.054854 -0.746180 0.000000 0.000000 0.000000
 40   1.118101 -3.449769 3.237290 0.000000 0.000001 0.000000
 41   -4.433840 -1.059130 0.959566 -0.000001 0.000000 0.000000
 42   -0.657468 1.697302 -2.688614 0.000000 0.000002 0.000000
 43   -0.664068 1.698578 2.869377 0.000000 0.000002 0.000000
time 1
  0   -0.967547 0.175787 -20.574476 0.000000 0.000000 -1.572114
  1   -1.093036 0.000002 -0.326057 -0.214014 -1.569082 -1.356583
  2   2.262337 0.113614 0.064702 -0.041309 -0.087487 0.348629
  3   2.380047 0.353302 0.047440 -0.098947 -0.012085 0.355913
  4   2.033756 0.190472 -0.000128 -0.135655 -0.014477 0.048908
  5   2.451511 0.204909 -0.003447 -0.368252 0.077976 0.046869
  6   7.247600 -0.397300 -0.109469 0.000001 0.000021 0.156829
  7   -2.022252 -0.104661 3.136172 0.479392 -1.239318 -3.683039
  8   1.168026 -0.537438 -0.063437 -0.721353 0.748190 -0.635577
  9   6.790376 -0.619176 0.015206 0.037014 0.045299 -1.050433
 10   8.637599 0.544015 -0.090417 -3.614626 0.247221 0.266830
 11   6.790465 -0.619039 0.017802 0.031686 0.016632 -0.750667
 12   -2.022474 -0.104699 -2.873818 -2.272876 1.443299 -5.613372
 13   1.167898 -0.537463 0.063297 -0.115285 -1.062347 -0.748785
 14   7.002743 -0.617765 -0.183752 0.019757 -0.136430 -1.725024
 15   8.209042 0.615527 -0.255885 2.235192 0.403505 0.416444
 16   7.002735 -0.617911 -0.183641 0.002245 -0.092439 -1.224387
 17   1.574674 0.609930 -0.000899 0.561834 0.004623 0.598465
 18   -0.602177 0.511412 -0.000006 0.000000 0.000000 0.000000
 19   3.646428 0.364526 1.119313 -0.000002 -0.000014 -0.174510
 20   3.646422 0.364499 -1.117566 0.000007 -0.000003 -0.174546
 21   3.805634 1.330634 1.627658 0.000002 -0.000011 -0.000026
 22   -0.246060 -0.011889 0.516521 -0.000011 0.000031 0.000025
 23   3.805651 1.330659 -1.631083 0.000019 0.000002 -0.000024
 24   -0.246150 -0.011872 -0.516511 -0.000005 -0.000006 0.000048
 25   4.941364 1.997338 1.629330 0.000018 -0.000001 -0.000024
 26   4.941382 1.997366 -1.629410 -0.000001 0.000005 -0.000024
 27   2.930087 1.603639 1.514501 -0.000019 -0.000022 -0.000050
 28   2.932517 1.603245 -1.501142 -0.000002 -0.000009 -0.000024
 29   8.824059 0.150544 0.091743 0.000986 -0.000492 -0.171530
 30   2.111085 -0.561179 1.784320 -0.000022 0.001236 0.000153
 31   2.121290 -0.561289 -1.853599 0.000000 -0.002564 0.000125
 32   -0.814395 -0.093824 3.127092 3.071965 -0.114691 1.239365
 33   14.298673 -0.408176 0.471578 0.000248 0.000063 -1.896136
 34   15.835795 0.581398 0.242756 -0.214735 0.106913 -0.097869
 35   -0.815868 -0.091229 -3.114430 0.066464 3.132818 -1.010216
 36   14.294526 -0.410349 -0.467541 0.000021 -0.000012 -2.607695
 37   15.834409 0.579420 -0.284600 -0.006092 -0.035255 0.214508
 38   1.139685 -3.453749 -2.823813 0.000084 -0.000072 0.000184
 39   -4.457742 -1.054854 -0.746180 0.000132 0.000288 -0.001178
 40   1.118101 -3.449769 3.237290 -0.000042 -0.000083 0.000367
 41   -4.433840 -1.059130 0.959566 0.000011 0.000024 -0.000112
 42   -0.657468 1.697302 -2.688614 0.000863 0.001351 -0.000125
 43   -0.664068 1.698578 2.869377 -0.001012 -0.001520 0.000251
time 2
  0   -0.967547 0.175787 -20.574476 0.000000 0.000000 -1.572114
  1   -1.093036 0.000002 -0.326057 -0.214014 -1.569082 -1.356583
  2   2.262337 0.113614 0.064702 -0.041309 -0.087487 0.348629
  3   2.380047 0.353302 0.047440 -0.098482 -0.012480 0.361566
  4   2.033756 0.190472 -0.000128 -0.136282 -0.013686 0.044232
  5   2.451511 0.204909 -0.003447 -0.369279 0.079334 0.042312
  6   7.247600 -0.397300 -0.109469 0.000001 0.000021 0.156829
  7   -2.022252 -0.104661 3.136172 0.479392 -1.239318 -3.683039
  8   1.168026 -0.537438 -0.063437 -0.720910 0.753322 -0.633426
  9   6.790376 -0.619176 0.015206 0.037014 0.045365 -1.050735
 10   8.637599 0.544015 -0.090417 -3.614626 0.247221 0.266830
 11   6.790465 -0.619039 0.017802 0.031686 0.016689 -0.750898
 12   -2.022474 -0.104699 -2.873818 -2.272876 1.443299 -5.613372
 13   1.167898 -0.537463 0.063297 -0.122807 -1.063059 -0.743337
 14   7.002743 -0.617765 -0.183752 0.019757 -0.136430 -1.725024
 15   8.209042 0.615527 -0.255885 2.235192 0.403505 0.416444
 16   7.002735 -0.617911 -0.183641 0.002245 -0.092439 -1.224387
 17   1.574674 0.609930 -0.000899 0.560860 0.002540 0.601422
 18   -0.602177 0.511412 -0.000006 0.000000 0.000000 0.000000
 19   3.646428 0.364526 1.119313 -0.000002 -0.000014 -0.174510
 20   3.646422 0.364499 -1.117566 0.000007 -0.000003 -0.174546
 21   3.805634 1.330634 1.627658 0.000002 -0.000011 -0.000026
 22   -0.246060 -0.011889 0.516521 -0.000011 0.000031 0.000025
 23   3.805651 1.330659 -1.631083 0.000019 0.000002 -0.000024
 24   -0.246150 -0.011872 -0.516511 -0.000005 -0.000006 0.000048
 25   4.941364 1.997338 1.629330 0.000018 -0.000001 -0.000024
 26   4.941382 1.997366 -1.629410 -0.000001 0.000005 -0.000024
 27   2.930087 1.603639 1.514501 -0.000019 -0.000022 -0.000050
 28   2.932517 1.603245 -1.501142 -0.000002 -0.000009 -0.000024
 29   8.824059 0.150544 0.091743 0.003927 -0.001323 -0.163000
 30   2.111085 -0.561179 1.780414 -0.000103 0.006729 0.000517
 31   2.125196 -0.561289 -1.849693 0.000015 -0.009765 0.000544
 32   -0.814395 -0.093824 3.127092 3.071965 -0.114691 1.239365
 33   14.298673 -0.408176 0.471578 0.000248 0.000063 -1.896136
 34   15.835795 0.581398 0.242756 -0.214735 0.106913 -0.097869
 35   -0.815868 -0.091229 -3.114430 0.066464 3.132818 -1.010216
 36   14.294526 -0.410349 -0.467541 0.000021 -0.000012 -2.607695
 37   15.834409 0.579420 -0.284600 -0.006092 -0.035255 0.214508
 38   1.139685 -3.453749 -2.823813 0.000400 -0.000289 0.000856
 39   -4.457742 -1.043135 -0.746180 0.000503 0.001127 -0.004487
 40   1.118101 -3.449769 3.237290 -0.000189 -0.000348 0.001466
 41   -4.429934 -1.051317 0.959566 0.000047 0.000108 -0.000449
 42   -0.657468 1.697302 -2.676895 0.003308 0.005169 -0.000460
 43   -0.664068 1.698578 2.857658 -0.003886 -0.005851 0.001004
time 3
  0   -0.967547 0.175787 -20.574476 0.000000 0.000000 -1.572114
  1   -1.093036 0.000002 -0.326057 -0.214014 -1.569082 -1.356583
  2   2.262337 0.113614 0.064702 -0.041309 -0.087487 0.348629
  3   2.380047 0.353302 0.047440 -0.097717 -0.013151 0.370809
  4   2.033756 0.190472 -0.000128 -0.137278 -0.012428 0.036621
  5   2.451511 0.204909 -0.003447 -0.370991 0.081553 0.034833
  6   7.247600 -0.397300 -0.109469 0.000001 0.000021 0.156829
  7   -2.022252 -0.104661 3.136172 0.479392 -1.239318 -3.683039
  8   1.168026 -0.537438 -0.063437 -0.719961 0.761775 -0.629757
  9   6.790376 -0.619176 0.015206 0.036958 0.045365 -1.051188
 10   8.637599 0.544015 -0.090417 -3.614626 0.247221 0.266830
 11   6.790465 -0.619039 0.017802 0.031686 0.016689 -0.751186
 12   -2.022474 -0.104699 -2.873818 -2.272876 1.443299 -5.613372
 13   1.167898 -0.537463 0.063297 -0.135109 -1.064178 -0.734378
 14   7.002743 -0.617765 -0.183752 0.019757 -0.136430 -1.725024
 15   8.209042 0.615527 -0.255885 2.235192 0.403505 0.416444
 16   7.002735 -0.617911 -0.183641 0.002245 -0.092439 -1.224387
 17   1.574674 0.609930 -0.000899 0.559194 -0.000797 0.606227
 18   -0.602177 0.511412 -0.000006 0.000000 0.000000 0.000000
 19   3.646428 0.364526 1.119313 -0.000002 -0.000014 -0.174510
 20   3.646422 0.364499 -1.117566 0.000007 -0.000003 -0.174546
 21   3.805634 1.330634 1.627658 0.000002 -0.000011 -0.000026
 22   -0.246060 -0.011889 0.516521 -0.000011 0.000031 0.000025
 23   3.805651 1.330659 -1.631083 0.000019 0.000002 -0.000024
 24   -0.246150 -0.011872 -0.516511 -0.000005 -0.000006 0.000048
 25   4.941364 1.997338 1.629330 0.000018 -0.000001 -0.000024
 26   4.941382 1.997366 -1.629410 -0.000001 0.000005 -0.000024
 27   2.930087 1.603639 1.514501 -0.000019 -0.000022 -0.000050
 28   2.932517 1.603245 -1.501142 -0.000002 -0.000009 -0.000024
 29   8.824059 0.150544 0.091743 0.008473 -0.002629 -0.149802
 30   2.114991 -0.561179 1.772601 -0.000225 0.015185 0.001075
 31   2.129103 -0.561289 -1.845786 0.000031 -0.020928 0.001163
 32   -0.814395 -0.093824 3.127092 3.071965 -0.114691 1.239365
 33   14.298673 -0.408176 0.471578 0.000248 0.000063 -1.896136
 34   15.835795 0.581398 0.242756 -0.214735 0.106913 -0.097869
 35   -0.815868 -0.091229 -3.114430 0.066464 3.132818 -1.010216
 36   14.294526 -0.410349 -0.467541 0.000021 -0.000012 -2.607695
 37   15.834409 0.579420 -0.284600 -0.006092 -0.035255 0.214508
 38   1.143591 -3.453749 -2.823813 0.000842 -0.000627 0.001956
 39   -4.457742 -1.027509 -0.742274 0.001091 0.002409 -0.009648
 40   1.114195 -3.449769 3.237290 -0.000400 -0.000758 0.003116
 41   -4.422121 -1.043504 0.963472 0.000107 0.000228 -0.000954
 42   -0.649655 1.697302 -2.661269 0.007095 0.011057 -0.001046
 43   -0.664068 1.698578 2.845939 -0.008321 -0.012535 0.002133
time 4
  0   -0.967547 0.175787 -20.574476 0.000000 0.000000 -1.572114
  1   -1.093036 0.000002 -0.326057 -0.214014 -1.569082 -1.356583
  2   2.262337 0.113614 0.064702 -0.041309 -0.087487 0.348629
  3   2.380047 0.353302 0.047440 -0.096651 -0.014098 0.383093
  4   2.033756 0.190472 -0.000128 -0.138661 -0.010690 0.026471
  5   2.451511 0.204909 -0.003447 -0.373233 0.084517 0.024803
  6   7.247600 -0.397300 -0.109469 0.000001 0.000021 0.156829
  7   -2.022252 -0.104661 3.136172 0.479392 -1.239318 -3.683039
  8   1.168026 -0.537438 -0.063437 -0.718632 0.772995 -0.624696
  9   6.790376 -0.619176 0.015206 0.036958 0.045365 -1.051867
 10   8.637599 0.544015 -0.090417 -3.614626 0.247221 0.266830
 11   6.790465 -0.619039 0.017802 0.031686 0.016689 -0.751705
 12   -2.022474 -0.104699 -2.873818 -2.272876 1.443299 -5.613372
 13   1.167898 -0.537463 0.063297 -0.151558 -1.065602 -0.722392
 14   7.002743 -0.617765 -0.183752 0.019757 -0.136430 -1.725024
 15   8.209042 0.615527 -0.255885 2.235192 0.403505 0.416444
 16   7.002735 -0.617911 -0.183641 0.002245 -0.092439 -1.224387
 17   1.574674 0.609930 -0.000899 0.556960 -0.005341 0.612621
 18   -0.602177 0.511412 -0.000006 0.000000 0.000000 0.000000
 19   3.646428 0.364526 1.119313 -0.000002 -0.000014 -0.174510
 20   3.646422 0.364499 -1.117566 0.000007 -0.000003 -0.174546
 21   3.805634 1.330634 1.627658 0.000002 -0.000011 -0.000026
 22   -0.246060 -0.011889 0.516521 -0.000011 0.000031 0.000025
 23   3.805651 1.330659 -1.631083 0.000019 0.000002 -0.000024
 24   -0.246150 -0.011872 -0.516511 -0.000005 -0.000006 0.000048
 25   4.941364 1.997338 1.629330 0.000018 -0.000001 -0.000024
 26   4.941382 1.997366 -1.629410 -0.000001 0.000005 -0.000024
 27   2.930087 1.603639 1.514501 -0.000019 -0.000022 -0.000050
 28   2.932517 1.603245 -1.501142 -0.000002 -0.000009 -0.000024
 29   8.824059 0.150544 0.091743 0.014266 -0.004409 -0.132796
 30   2.118898 -0.561179 1.760882 -0.000374 0.026112 0.001804
 31   2.136915 -0.561289 -1.837973 0.000061 -0.035330 0.001963
 32   -0.814395 -0.093824 3.127092 3.071965 -0.114691 1.239365
 33   14.298673 -0.408176 0.471578 0.000248 0.000063 -1.896136
 34   15.835795 0.581398 0.242756 -0.214735 0.106913 -0.097869
 35   -0.815868 -0.091229 -3.114430 0.066464 3.132818 -1.010216
 36   14.294526 -0.410349 -0.467541 0.000021 -0.000012 -2.607695
 37   15.834409 0.579420 -0.284600 -0.006092 -0.035255 0.214508
 38   1.147498 -3.453749 -2.823813 0.001431 -0.001073 0.003300
 39   -4.457742 -1.007978 -0.738367 0.001846 0.004075 -0.016267
 40   1.110288 -3.449769 3.237290 -0.000674 -0.001288 0.005315
 41   -4.410401 -1.031785 0.967379 0.000191 0.000395 -0.001599
 42   -0.645749 1.697302 -2.641737 0.011973 0.018646 -0.001798
 43   -0.664068 1.694672 2.826407 -0.014043 -0.021150 0.003639
time 5
  0   -0.967547 0.175787 -20.574476 0.000000 0.000000 -1.572114
  1   -1.093036 0.000002 -0.326057 -0.214014 -1.569082 -1.356583
  2   2.262337 0.113614 0.064702 -0.041309 -0.087487 0.348629
  3   2.380047 0.353302 0.047440 -0.095481 -0.015177 0.397479
  4   2.033756 0.190472 -0.000128 -0.140247 -0.008737 0.014546
  5   2.451511 0.204909 -0.003447 -0.375869 0.087990 0.013089
  6   7.247600 -0.397300 -0.109469 0.000001 0.000021 0.156829
  7   -2.022252 -0.104661 3.136172 0.479392 -1.239318 -3.683039
  8   1.168026 -0.537438 -0.063437 -0.716860 0.785976 -0.618876
  9   6.790376 -0.619176 0.015206 0.036958 0.045365 -1.052546
 10   8.637599 0.544015 -0.090417 -3.614626 0.247221 0.266830
 11   6.790465 -0.619039 0.017802 0.031686 0.016717 -0.752167
 12   -2.022474 -0.104699 -2.873818 -2.272876 1.443299 -5.613372
 13   1.167898 -0.537463 0.063297 -0.170890 -1.067229 -0.708227
 14   7.002743 -0.617765 -0.183752 0.019757 -0.136430 -1.725024
 15   8.209042 0.615527 -0.255885 2.235192 0.403505 0.416444
 16   7.002735 -0.617911 -0.183641 0.002245 -0.092439 -1.224387
 17   1.574674 0.609930 -0.000899 0.554319 -0.010642 0.620235
 18   -0.602177 0.511412 -0.000006 0.000000 0.000000 0.000000
 19   3.646428 0.364526 1.119313 -0.000002 -0.000014 -0.174510
 20   3.646422 0.364499 -1.117566 0.000007 -0.000003 -0.174546
 21   3.805634 1.330634 1.627658 0.000002 -0.000011 -0.000026
 22   -0.246060 -0.011889 0.516521 -0.000011 0.000031 0.000025
 23   3.805651 1.330659 -1.631083 0.000019 0.000002 -0.000024
 24   -0.246150 -0.011872 -0.516511 -0.000005 -0.000006 0.000048
 25   4.941364 1.997338 1.629330 0.000018 -0.000001 -0.000024
 26   4.941382 1.997366 -1.629410 -0.000001 0.000005 -0.000024
 27   2.930087 1.603639 1.514501 -0.000019 -0.000022 -0.000050
 28   2.932517 1.603245 -1.501142 -0.000002 -0.000009 -0.000024
 29   8.824059 0.150544 0.091743 0.021039 -0.006617 -0.112785
 30   2.126710 -0.561179 1.749163 -0.000550 0.038928 0.002640
 31   2.144728 -0.561289 -1.830161 0.000092 -0.052217 0.002909
 32   -0.814395 -0.093824 3.127092 3.071965 -0.114691 1.239365
 33   14.298673 -0.408176 0.471578 0.000248 0.000063 -1.896136
 34   15.835795 0.581398 0.242756 -0.214735 0.106913 -0.097869
 35   -0.815868 -0.091229 -3.114430 0.066464 3.132818 -1.010216
 36   14.294526 -0.410349 -0.467541 0.000021 -0.000012 -2.607695
 37   15.834409 0.579420 -0.284600 -0.006092 -0.035255 0.214508
 38   1.151404 -3.457655 -2.823813 0.002126 -0.001579 0.004827
 39   -4.461648 -0.988446 -0.730555 0.002721 0.006028 -0.024036
 40   1.106382 -3.445863 3.237290 -0.001010 -0.001915 0.007881
 41   -4.398683 -1.016160 0.971285 0.000287 0.000587 -0.002384
 42   -0.637936 1.697302 -2.618299 0.017701 0.027570 -0.002635
 43   -0.664068 1.690765 2.806875 -0.020765 -0.031255 0.005395
time 6
  0   -0.967547 0.175787 -20.574476 0.000000 0.000000 -1.572114
  1   -1.093036 0.000002 -0.326057 -0.214014 -1.569082 -1.356583
  2   2.262337 0.113614 0.064702 -0.041309 -0.087487 0.348629
  3   2.380047 0.353302 0.047440 -0.094281 -0.016315 0.412579
  4   2.033756 0.190472 -0.000128 -0.141999 -0.006639 0.001932
  5   2.451511 0.204909 -0.003447 -0.378796 0.091567 0.000731
  6   7.247600 -0.397300 -0.109469 0.000001 0.000021 0.156829
  7   -2.022252 -0.104661 3.136172 0.479392 -1.239318 -3.683039
  8   1.168026 -0.537438 -0.063437 -0.715088 0.799862 -0.612550
  9   6.790376 -0.619176 0.015206 0.036958 0.045365 -1.053301
 10   8.637599 0.544015 -0.090417 -3.614626 0.247221 0.266830
 11   6.790465 -0.619039 0.017802 0.031686 0.016717 -0.752744
 12   -2.022474 -0.104699 -2.873818 -2.272876 1.443299 -5.613372
 13   1.167898 -0.537463 0.063297 -0.191205 -1.068704 -0.693214
 14   7.002743 -0.617765 -0.183752 0.019757 -0.136430 -1.725024
 15   8.209042 0.615527 -0.255885 2.235192 0.403505 0.416444
 16   7.002735 -0.617911 -0.183641 0.002245 -0.092439 -1.224387
 17   1.574674 0.609930 -0.000899 0.551476 -0.016204 0.628219
 18   -0.602177 0.511412 -0.000006 0.000000 0.000000 0.000000
 19   3.646428 0.364526 1.119313 -0.000002 -0.000014 -0.174510
 20   3.646422 0.364499 -1.117566 0.000007 -0.000003 -0.174546
 21   3.805634 1.330634 1.627658 0.000002 -0.000011 -0.000026
 22   -0.246060 -0.011889 0.516521 -0.000011 0.000031 0.000025
 23   3.805651 1.330659 -1.631083 0.000019 0.000002 -0.000024
 24   -0.246150 -0.011872 -0.516511 -0.000005 -0.000006 0.000048
 25   4.941364 1.997338 1.629330 0.000018 -0.000001 -0.000024
 26   4.941382 1.997366 -1.629410 -0.000001 0.000005 -0.000024
 27   2.930087 1.603639 1.514501 -0.000019 -0.000022 -0.000050
 28   2.932517 1.603245 -1.501142 -0.000002 -0.000009 -0.000024
 29   8.824059 0.150544 0.091743 0.028525 -0.009228 -0.090682
 30   2.130617 -0.561179 1.737444 -0.000740 0.053081 0.003584
 31   2.152541 -0.561289 -1.818442 0.000138 -0.070892 0.003965
 32   -0.814395 -0.093824 3.127092 3.071965 -0.114691 1.239365
 33   14.298673 -0.408176 0.471578 0.000248 0.000063 -1.896136
 34   15.835795 0.581398 0.242756 -0.214735 0.106913 -0.097869
 35   -0.815868 -0.091229 -3.114430 0.066464 3.132818 -1.010216
 36   14.294526 -0.410349 -0.467541 0.000021 -0.000012 -2.607695
 37   15.834409 0.579420 -0.284600 -0.006092 -0.035255 0.214508
 38   1.155311 -3.457655 -2.823813 0.002884 -0.002157 0.006599
 39   -4.461648 -0.961101 -0.726648 0.003703 0.008173 -0.032646
 40   1.102476 -3.445863 3.237290 -0.001368 -0.002602 0.010692
 41   -4.386963 -1.000534 0.979098 0.000394 0.000791 -0.003253
 42   -0.634030 1.693396 -2.590955 0.024029 0.037428 -0.003597
 43   -0.664068 1.686859 2.783437 -0.028187 -0.042443 0.007319
time 7
  0   -0.967547 0.175787 -20.574476 0.000000 0.000000 -1.572114
  1   -1.093036 0.000002 -0.326057 -0.214014 -1.569082 -1.356583
  2   2.262337 0.113614 0.064702 -0.041309 -0.087487 0.348629
  3   2.380047 0.353302 0.047440 -0.093156 -0.017454 0.426904
  4   2.033756 0.190472 -0.000128 -0.143659 -0.004710 -0.009993
  5   2.451511 0.204909 -0.003447 -0.381552 0.094974 -0.011107
  6   7.247600 -0.397300 -0.109469 0.000001 0.000021 0.156829
  7   -2.022252 -0.104661 3.136172 0.479392 -1.239289 -3.683039
  8   1.168026 -0.537438 -0.063437 -0.713063 0.812894 -0.606224
  9   6.790376 -0.619176 0.015206 0.036958 0.045432 -1.054131
 10   8.637599 0.544015 -0.090417 -3.614626 0.247221 0.266830
 11   6.790465 -0.619039 0.017802 0.031686 0.016717 -0.753320
 12   -2.022474 -0.104699 -2.873818 -2.272876 1.443299 -5.613372
 13   1.167898 -0.537463 0.063297 -0.210748 -1.069924 -0.678807
 14   7.002743 -0.617765 -0.183752 0.019757 -0.136430 -1.725024
 15   8.209042 0.615527 -0.255885 2.235192 0.403505 0.416444
 16   7.002735 -0.617911 -0.183641 0.002245 -0.092439 -1.224387
 17   1.574674 0.609930 -0.000899 0.548754 -0.021458 0.635796
 18   -0.602177 0.511412 -0.000006 0.000000 0.000000 0.000000
 19   3.646428 0.364526 1.119313 -0.000002 -0.000014 -0.174510
 20   3.646422 0.364499 -1.117566 0.000007 -0.000003 -0.174546
 21   3.805634 1.330634 1.627658 0.000002 -0.000011 -0.000026
 22   -0.246060 -0.011889 0.516521 -0.000011 0.000031 0.000025
 23   3.805651 1.330659 -1.631083 0.000019 0.000002 -0.000024
 24   -0.246150 -0.011872 -0.516511 -0.000005 -0.000006 0.000048
 25   4.941364 1.997338 1.629330 0.000018 -0.000001 -0.000024
 26   4.941382 1.997366 -1.629410 -0.000001 0.000005 -0.000024
 27   2.930087 1.603639 1.514501 -0.000019 -0.000022 -0.000050
 28   2.932517 1.603245 -1.501142 -0.000002 -0.000009 -0.000024
 29   8.824059 0.150544 0.091743 0.036368 -0.012147 -0.067345
 30   2.138430 -0.557273 1.721818 -0.000957 0.068076 0.004591
 31   2.164260 -0.561289 -1.810629 0.000184 -0.090655 0.005075
 32   -0.814395 -0.093824 3.127092 3.071965 -0.114691 1.239365
 33   14.298673 -0.408176 0.471578 0.000248 0.000063 -1.896136
 34   15.835795 0.581398 0.242756 -0.214735 0.106913 -0.097869
 35   -0.815868 -0.091229 -3.114430 0.066464 3.132818 -1.010216
 36   14.294526 -0.410349 -0.467541 0.000021 -0.000012 -2.607695
 37   15.834409 0.579420 -0.284600 -0.006092 -0.035255 0.214508
 38   1.159217 -3.461562 -2.823813 0.003684 -0.002748 0.008432
 39   -4.465555 -0.933757 -0.718835 0.004734 0.010463 -0.041761
 40   1.098569 -3.441956 3.237290 -0.001747 -0.003325 0.013685
 41   -4.371338 -0.984909 0.983004 0.000502 0.001019 -0.004151
 42   -0.626217 1.693396 -2.563610 0.030728 0.047869 -0.004600
 43   -0.664068 1.682953 2.759999 -0.036045 -0.054275 0.009326
time 8
  0   -0.967547 0.175787 -20.574476 0.000000 0.000000 -1.572114
  1   -1.093036 0.000002 -0.326057 -0.214014 -1.569082 -1.356583
  2   2.262337 0.113614 0.064702 -0.041309 -0.087487 0.348629
  3   2.380047 0.353302 0.047440 -0.092211 -0.018400 0.439147
  4   2.033756 0.190472 -0.000128 -0.145079 -0.003068 -0.020251
  5   2.451511 0.204909 -0.003447 -0.383931 0.097833 -0.021088
  6   7.247600 -0.397300 -0.109469 0.000001 0.000021 0.156829
  7   -2.022252 -0.104661 3.136172 0.479392 -1.239289 -3.683039
  8   1.168026 -0.537438 -0.063437 -0.711228 0.824064 -0.601037
  9   6.790376 -0.619176 0.015206 0.036958 0.045432 -1.054735
 10   8.637599 0.544015 -0.090417 -3.614626 0.247221 0.266830
 11   6.790465 -0.619039 0.017802 0.031716 0.016774 -0.753724
 12   -2.022474 -0.104699 -2.873818 -2.272876 1.443299 -5.613372
 13   1.167898 -0.537463 0.063297 -0.227478 -1.070891 -0.666458
 14   7.002743 -0.617765 -0.183752 0.019757 -0.136430 -1.725024
 15   8.209042 0.615527 -0.255885 2.235192 0.403505 0.416444
 16   7.002735 -0.617911 -0.183641 0.002245 -0.092439 -1.224387
 17   1.574674 0.609930 -0.000899 0.546358 -0.025931 0.642227
 18   -0.602177 0.511412 -0.000006 0.000000 0.000000 0.000000
 19   3.646428 0.364526 1.119313 -0.000002 -0.000014 -0.174510
 20   3.646422 0.364499 -1.117566 0.000007 -0.000003 -0.174546
 21   3.805634 1.330634 1.627658 0.000002 -0.000011 -0.000026
 22   -0.246060 -0.011889 0.516521 -0.000011 0.000031 0.000025
 23   3.805651 1.330659 -1.631083 0.000019 0.000002 -0.000024
 24   -0.246150 -0.011872 -0.516511 -0.000005 -0.000006 0.000048
 25   4.941364 1.997338 1.629330 0.000018 -0.000001 -0.000024
 26   4.941382 1.997366 -1.629410 -0.000001 0.000005 -0.000024
 27   2.930087 1.603639 1.514501 -0.000019 -0.000022 -0.000050
 28   2.932517 1.603245 -1.501142 -0.000002 -0.000009 -0.000024
 29   8.824059 0.150544 0.091743 0.044211 -0.015328 -0.043579
 30   2.146242 -0.557273 1.710099 -0.001161 0.083334 0.005599
 31   2.172073 -0.561289 -1.798910 0.000215 -0.110755 0.006203
 32   -0.814395 -0.093824 3.127092 3.071965 -0.114691 1.239365
 33   14.298673 -0.408176 0.471578 0.000248 0.000063 -1.896136
 34   15.835795 0.581398 0.242756 -0.214735 0.106913 -0.097869
 35   -0.815868 -0.091229 -3.114430 0.066464 3.132818 -1.010216
 36   14.294526 -0.410349 -0.467541 0.000021 -0.000012 -2.607695
 37   15.834409 0.579420 -0.284600 -0.006092 -0.035255 0.214508
 38   1.163123 -3.465468 -2.823813 0.004505 -0.003362 0.010326
 39   -4.469461 -0.910318 -0.714929 0.005789 0.012776 -0.051017
 40   1.094663 -3.438050 3.237290 -0.002147 -0.004060 0.016740
 41   -4.355712 -0.965377 0.990817 0.000622 0.001246 -0.005076
 42   -0.618404 1.693396 -2.536265 0.037548 0.058479 -0.005646
 43   -0.664068 1.679046 2.736560 -0.044042 -0.066310 0.011418
time 9
  0   -0.967547 0.175787 -20.574476 0.000000 0.000000 -1.572114
  1   -1.093036 0.000002 -0.326057 -0.214014 -1.569082 -1.356583
  2   2.262337 0.113614 0.064702 -0.041309 -0.087487 0.348629
  3   2.380047 0.353302 0.047440 -0.091506 -0.019132 0.448289
  4   2.033756 0.190472 -0.000128 -0.146204 -0.001834 -0.027899
  5   2.451511 0.204909 -0.003447 -0.385780 0.099962 -0.028666
  6   7.247600 -0.397300 -0.109469 0.000001 0.000021 0.156829
  7   -2.022252 -0.104661 3.136172 0.479392 -1.239318 -3.683039
  8   1.168026 -0.537438 -0.063437 -0.709899 0.832416 -0.596925
  9   6.790376 -0.619176 0.015206 0.036958 0.045432 -1.055263
 10   8.637599 0.544015 -0.090417 -3.614626 0.247221 0.266830
 11   6.790465 -0.619039 0.017802 0.031716 0.016774 -0.754012
 12   -2.022474 -0.104699 -2.873818 -2.272876 1.443299 -5.613372
 13   1.167898 -0.537463 0.063297 -0.240132 -1.071603 -0.657196
 14   7.002743 -0.617765 -0.183752 0.019757 -0.136430 -1.725024
 15   8.209042 0.615527 -0.255885 2.235192 0.403505 0.416444
 16   7.002735 -0.617911 -0.183641 0.002245 -0.092439 -1.224387
 17   1.574674 0.609930 -0.000899 0.544611 -0.029268 0.647106
 18   -0.602177 0.511412 -0.000006 0.000000 0.000000 0.000000
 19   3.646428 0.364526 1.119313 -0.000002 -0.000014 -0.174510
 20   3.646422 0.364499 -1.117566 0.000007 -0.000003 -0.174546
 21   3.805634 1.330634 1.627658 0.000002 -0.000011 -0.000026
 22   -0.246060 -0.011889 0.516521 -0.000011 0.000031 0.000025
 23   3.805651 1.330659 -1.631083 0.000019 0.000002 -0.000024
 24   -0.246150 -0.011872 -0.516511 -0.000005 -0.000006 0.000048
 25   4.941364 1.997338 1.629330 0.000018 -0.000001 -0.000024
 26   4.941382 1.997366 -1.629410 -0.000001 0.000005 -0.000024
 27   2.930087 1.603639 1.514501 -0.000019 -0.000022 -0.000050
 28   2.932517 1.603245 -1.501142 -0.000002 -0.000009 -0.000024
 29   8.824059 0.150544 0.091743 0.051965 -0.018628 -0.020242
 30   2.150149 -0.557273 1.694474 -0.001378 0.098329 0.006607
 31   2.183792 -0.557383 -1.791097 0.000260 -0.130517 0.007313
 32   -0.814395 -0.093824 3.127092 3.071965 -0.114691 1.239365
 33   14.298673 -0.408176 0.471578 0.000248 0.000063 -1.896136
 34   15.835795 0.581398 0.242756 -0.214735 0.106913 -0.097869
 35   -0.815868 -0.091229 -3.114430 0.066464 3.132818 -1.010216
 36   14.294526 -0.410349 -0.467541 0.000021 -0.000012 -2.607695
 37   15.834409 0.579420 -0.284600 -0.006092 -0.035255 0.214508
 38   1.167030 -3.465468 -2.823813 0.005325 -0.003965 0.012159
 39   -4.469461 -0.882974 -0.707116 0.006819 0.015065 -0.060132
 40   1.090756 -3.438050 3.237290 -0.002526 -0.004783 0.019734
 41   -4.343993 -0.949752 0.994723 0.000730 0.001462 -0.005974
 42   -0.610592 1.689489 -2.508921 0.044235 0.068921 -0.006650
 43   -0.660162 1.675140 2.709216 -0.051900 -0.078141 0.013467
time 10
  0   -0.967547 0.175787 -20.574476 0.000000 0.000000 -1.572114
  1   -1.093036 0.000002 -0.326057 -0.214014 -1.569082 -1.356583
  2   2.262337 0.113614 0.064702 -0.041309 -0.087487 0.348629
  3   2.380047 0.353302 0.047440 -0.091086 -0.019599 0.453880
  4   2.033756 0.190472 -0.000128 -0.146868 -0.001091 -0.032611
  5   2.451511 0.204909 -0.003447 -0.386858 0.101293 -0.033322
  6   7.247600 -0.397300 -0.109469 0.000001 0.000021 0.156829
  7   -2.022252 -0.104661 3.136172 0.479392 -1.239318 -3.683039
  8   1.168026 -0.537438 -0.063437 -0.708950 0.837548 -0.594331
  9   6.790376 -0.619176 0.015206 0.036958 0.045432 -1.055565
 10   8.637599 0.544015 -0.090417 -3.614626 0.247221 0.266830
 11   6.790465 -0.619039 0.017802 0.031716 0.016774 -0.754301
 12   -2.022474 -0.104699 -2.873818 -2.272876 1.443299 -5.613372
 13   1.167898 -0.537463 0.063297 -0.247724 -1.071959 -0.651566
 14   7.002743 -0.617765 -0.183752 0.019757 -0.136430 -1.725024
 15   8.209042 0.615527 -0.255885 2.235192 0.403505 0.416444
 16   7.002735 -0.617911 -0.183641 0.002245 -0.092439 -1.224387
 17   1.574674 0.609930 -0.000899 0.543514 -0.031303 0.650100
 18   -0.602177 0.511412 -0.000006 0.000000 0.000000 0.000000
 19   3.646428 0.364526 1.119313 -0.000002 -0.000014 -0.174510
 20   3.646422 0.364499 -1.117566 0.000007 -0.000003 -0.174546
 21   3.805634 1.330634 1.627658 0.000002 -0.000011 -0.000026
 22   -0.246060 -0.011889 0.516521 -0.000011 0.000031 0.000025
 23   3.805651 1.330659 -1.631083 0.000019 0.000002 -0.000024
 24   -0.246150 -0.011872 -0.516511 -0.000005 -0.000006 0.000048
 25   4.941364 1.997338 1.629330 0.000018 -0.000001 -0.000024
 26   4.941382 1.997366 -1.629410 -0.000001 0.000005 -0.000024
 27   2.930087 1.603639 1.514501 -0.000019 -0.000022 -0.000050
 28   2.932517 1.603245 -1.501142 -0.000002 -0.000009 -0.000024
 29   8.824059 0.150544 0.091743 0.059095 -0.021928 0.001754
 30   2.157961 -0.553366 1.682754 -0.001567 0.112511 0.007529
 31   2.191605 -0.557383 -1.779378 0.000291 -0.149192 0.008350
 32   -0.814395 -0.093824 3.127092 3.071965 -0.114691 1.239365
 33   14.298673 -0.408176 0.471578 0.000248 0.000063 -1.896136
 34   15.835795 0.581398 0.242756 -0.214735 0.106913 -0.097869
 35   -0.815868 -0.091229 -3.114430 0.066464 3.132818 -1.010216
 36   14.294526 -0.410349 -0.467541 0.000021 -0.000012 -2.607695
 37   15.834409 0.579420 -0.284600 -0.006092 -0.035255 0.214508
 38   1.170936 -3.469374 -2.823813 0.006083 -0.004531 0.013931
 39   -4.473368 -0.855629 -0.703210 0.007790 0.017222 -0.068742
 40   1.086850 -3.434144 3.237290 -0.002884 -0.005470 0.022544
 41   -4.328368 -0.934126 1.002536 0.000838 0.001678 -0.006843
 42   -0.602779 1.689489 -2.481576 0.050575 0.078779 -0.007612
 43   -0.660162 1.675140 2.685778 -0.059334 -0.089329 0.015391
time 11
  0   -0.967547 0.175787 -20.574476 0.000000 0.000000 -1.572114
  1   -1.093036 0.000002 -0.326057 -0.214014 -1.569082 -1.356583
  2   2.262337 0.113614 0.064702 -0.041309 -0.087487 0.348629
  3   2.380047 0.353302 0.047440 -0.090936 -0.019743 0.455737
  4   2.033756 0.190472 -0.000128 -0.147108 -0.000839 -0.034206
  5   2.451511 0.204909 -0.003447 -0.387286 0.101698 -0.034882
  6   7.247600 -0.397300 -0.109469 0.000001 0.000021 0.156829
  7   -2.022252 -0.104661 3.136172 0.479392 -1.239318 -3.683039
  8   1.168026 -0.537438 -0.063437 -0.708697 0.839309 -0.593572
  9   6.790376 -0.619176 0.015206 0.036903 0.045432 -1.055565
 10   8.637599 0.544015 -0.090417 -3.614626 0.247221 0.266830
 11   6.790465 -0.619039 0.017802 0.031716 0.016774 -0.754358
 12   -2.022474 -0.104699 -2.873818 -2.272876 1.443299 -5.613372
 13   1.167898 -0.537463 0.063297 -0.250325 -1.072213 -0.649629
 14   7.002743 -0.617765 -0.183752 0.019757 -0.136430 -1.725024
 15   8.209042 0.615527 -0.255885 2.235192 0.403505 0.416444
 16   7.002735 -0.617911 -0.183641 0.002245 -0.092439 -1.224387
 17   1.574674 0.609930 -0.000899 0.543108 -0.031966 0.651098
 18   -0.602177 0.511412 -0.000006 0.000000 0.000000 0.000000
 19   3.646428 0.364526 1.119313 -0.000002 -0.000014 -0.174510
 20   3.646422 0.364499 -1.117566 0.000007 -0.000003 -0.174546
 21   3.805634 1.330634 1.627658 0.000002 -0.000011 -0.000026
 22   -0.246060 -0.011889 0.516521 -0.000011 0.000031 0.000025
 23   3.805651 1.330659 -1.631083 0.000019 0.000002 -0.000024
 24   -0.246150 -0.011872 -0.516511 -0.000005 -0.000006 0.000048
 25   4.941364 1.997338 1.629330 0.000018 -0.000001 -0.000024
 26   4.941382 1.997366 -1.629410 -0.000001 0.000005 -0.000024
 27   2.930087 1.603639 1.514501 -0.000019 -0.000022 -0.000050
 28   2.932517 1.603245 -1.501142 -0.000002 -0.000009 -0.000024
 29   8.824059 0.150544 0.091743 0.065601 -0.025013 0.021603
 30   2.161868 -0.553366 1.671035 -0.001744 0.125327 0.008387
 31   2.199417 -0.557383 -1.771565 0.000337 -0.166080 0.009296
 32   -0.814395 -0.093824 3.127092 3.071965 -0.114691 1.239365
 33   14.298673 -0.408176 0.471578 0.000248 0.000063 -1.896136
 34   15.835795 0.581398 0.242756 -0.214735 0.106913 -0.097869
 35   -0.815868 -0.091229 -3.114430 0.066464 3.132818 -1.010216
 36   14.294526 -0.410349 -0.467541 0.000021 -0.000012 -2.607695
 37   15.834409 0.579420 -0.284600 -0.006092 -0.035255 0.214508
 38   1.178749 -3.469374 -2.823813 0.006778 -0.005049 0.015519
 39   -4.473368 -0.836097 -0.695397 0.008677 0.019163 -0.076511
 40   1.079037 -3.434144 3.237290 -0.003221 -0.006097 0.025110
 41   -4.316648 -0.918501 1.006442 0.000934 0.001870 -0.007629
 42   -0.594966 1.689489 -2.458138 0.056304 0.087703 -0.008490
 43   -0.660162 1.671233 2.666246 -0.066044 -0.099435 0.017147
time 12
  0   -0.967547 0.175787 -20.574476 0.000000 0.000000 -1.572114
  1   -1.093036 0.000002 -0.326057 -0.214014 -1.569082 -1.356583
  2   2.262337 0.113614 0.064702 -0.041309 -0.087487 0.348629
  3   2.380047 0.353302 0.047440 -0.091206 -0.019443 0.452227
  4   2.033756 0.190472 -0.000128 -0.146665 -0.001282 -0.031161
  5   2.451511 0.204909 -0.003447 -0.386567 0.100888 -0.031960
  6   7.247600 -0.397300 -0.109469 0.000001 0.000021 0.156829
  7   -2.022252 -0.104661 3.136172 0.479392 -1.239318 -3.683039
  8   1.168026 -0.537438 -0.063437 -0.709203 0.836089 -0.595027
  9   6.790376 -0.619176 0.015206 0.036958 0.045432 -1.055414
 10   8.637599 0.544015 -0.090417 -3.614626 0.247221 0.266830
 11   6.790465 -0.619039 0.017802 0.031716 0.016774 -0.754243
 12   -2.022474 -0.104699 -2.873818 -2.272876 1.443299 -5.613372
 13   1.167898 -0.537463 0.063297 -0.245544 -1.071908 -0.653261
 14   7.002743 -0.617765 -0.183752 0.019757 -0.136430 -1.725024
 15   8.209042 0.615527 -0.255885 2.235192 0.403505 0.416444
 16   7.002735 -0.617911 -0.183641 0.002245 -0.092439 -1.224387
 17   1.574674 0.609930 -0.000899 0.543799 -0.030688 0.649213
 18   -0.602177 0.511412 -0.000006 0.000000 0.000000 0.000000
 19   3.646428 0.364526 1.119313 -0.000002 -0.000014 -0.174510
 20   3.646422 0.364499 -1.117566 0.000007 -0.000003 -0.174546
 21   3.805634 1.330634 1.627658 0.000002 -0.000011 -0.000026
 22   -0.246060 -0.011889 0.516521 -0.000011 0.000031 0.000025
 23   3.805651 1.330659 -1.631083 0.000019 0.000002 -0.000024
 24   -0.246150 -0.011872 -0.516511 -0.000005 -0.000006 0.000048
 25   4.941364 1.997338 1.629330 0.000018 -0.000001 -0.000024
 26   4.941382 1.997366 -1.629410 -0.000001 0.000005 -0.000024
 27   2.930087 1.603639 1.514501 -0.000019 -0.000022 -0.000050
 28   2.932517 1.603245 -1.501142 -0.000002 -0.000009 -0.000024
 29   8.824059 0.150544 0.091743 0.070948 -0.027767 0.038503
 30   2.165774 -0.553366 1.659316 -0.001893 0.136225 0.009116
 31   2.207230 -0.557383 -1.763752 0.000352 -0.180455 0.010096
 32   -0.814395 -0.093824 3.127092 3.071965 -0.114691 1.239365
 33   14.298673 -0.408176 0.471578 0.000248 0.000063 -1.896136
 34   15.835795 0.581398 0.242756 -0.214735 0.106913 -0.097869
 35   -0.815868 -0.091229 -3.114430 0.066464 3.132818 -1.010216
 36   14.294526 -0.410349 -0.467541 0.000021 -0.000012 -2.607695
 37   15.834409 0.579420 -0.284600 -0.006092 -0.035255 0.214508
 38   1.178749 -3.469374 -2.823813 0.007367 -0.005483 0.016863
 39   -4.473368 -0.816566 -0.691491 0.009432 0.020829 -0.083158
 40   1.079037 -3.434144 3.237290 -0.003494 -0.006627 0.027309
 41   -4.308836 -0.906782 1.010349 0.001018 0.002025 -0.008274
 42   -0.591060 1.689489 -2.438606 0.061169 0.095292 -0.009201
 43   -0.660162 1.667327 2.650620 -0.071766 -0.108049 0.018611
time 13
  0   -0.967547 0.175787 -20.574476 0.000000 0.000000 -1.572114
  1   -1.093036 0.000002 -0.326057 -0.214014 -1.569082 -1.356583
  2   2.262337 0.113614 0.064702 -0.041309 -0.087487 0.348629
  3   2.380047 0.353302 0.047440 -0.092016 -0.018604 0.441759
  4   2.033756 0.190472 -0.000128 -0.145411 -0.002684 -0.022462
  5   2.451511 0.204909 -0.003447 -0.384479 0.098434 -0.023267
  6   7.247600 -0.397300 -0.109469 0.000001 0.000021 0.156829
  7   -2.022252 -0.104661 3.136172 0.479392 -1.239318 -3.683039
  8   1.168026 -0.537438 -0.063437 -0.710785 0.826479 -0.599835
  9   6.790376 -0.619176 0.015206 0.036958 0.045432 -1.054810
 10   8.637599 0.544015 -0.090417 -3.614626 0.247221 0.266830
 11   6.790465 -0.619039 0.017802 0.031716 0.016774 -0.753782
 12   -2.022474 -0.104699 -2.873818 -2.272876 1.443299 -5.613372
 13   1.167898 -0.537463 0.063297 -0.230993 -1.071196 -0.663855
 14   7.002743 -0.617765 -0.183752 0.019757 -0.136430 -1.725024
 15   8.209042 0.615527 -0.255885 2.235192 0.403505 0.416444
 16   7.002735 -0.617911 -0.183641 0.002245 -0.092439 -1.224387
 17   1.574674 0.609930 -0.000899 0.545870 -0.026854 0.643705
 18   -0.602177 0.511412 -0.000006 0.000000 0.000000 0.000000
 19   3.646428 0.364526 1.119313 -0.000002 -0.000014 -0.174510
 20   3.646422 0.364499 -1.117566 0.000007 -0.000003 -0.174546
 21   3.805634 1.330634 1.627658 0.000002 -0.000011 -0.000026
 22   -0.246060 -0.011889 0.516521 -0.000011 0.000031 0.000025
 23   3.805651 1.330659 -1.631083 0.000019 0.000002 -0.000024
 24   -0.246150 -0.011872 -0.516511 -0.000005 -0.000006 0.000048
 25   4.941364 1.997338 1.629330 0.000018 -0.000001 -0.000024
 26   4.941382 1.997366 -1.629410 -0.000001 0.000005 -0.000024
 27   2.930087 1.603639 1.514501 -0.000019 -0.000022 -0.000050
 28   2.932517 1.603245 -1.501142 -0.000002 -0.000009 -0.000024
 29   8.824059 0.150544 0.091743 0.075137 -0.029951 0.051593
 30   2.169681 -0.553366 1.651503 -0.002015 0.144681 0.009673
 31   2.215043 -0.557383 -1.759846 0.000383 -0.191619 0.010733
 32   -0.814395 -0.093824 3.127092 3.071965 -0.114691 1.239365
 33   14.298673 -0.408176 0.471578 0.000248 0.000063 -1.896136
 34   15.835795 0.581398 0.242756 -0.214735 0.106913 -0.097869
 35   -0.815868 -0.091229 -3.114430 0.066464 3.132818 -1.010216
 36   14.294526 -0.410349 -0.467541 0.000021 -0.000012 -2.607695
 37   15.834409 0.579420 -0.284600 -0.006092 -0.035255 0.214508
 38   1.182655 -3.473281 -2.823813 0.007809 -0.005820 0.017902
 39   -4.477274 -0.800940 -0.687584 0.010007 0.022112 -0.088291
 40   1.075131 -3.430237 3.237290 -0.003726 -0.007037 0.028959
 41   -4.301023 -0.898969 1.014255 0.001078 0.002157 -0.008779
 42   -0.587153 1.685583 -2.422981 0.064956 0.101195 -0.009786
 43   -0.660162 1.667327 2.634995 -0.076214 -0.114734 0.019782
time 14
  0   -0.967547 0.175787 -20.574476 0.000000 0.000000 -1.572114
  1   -1.093036 0.000002 -0.326057 -0.214014 -1.569082 -1.356583
  2   2.262337 0.113614 0.064702 -0.041309 -0.087487 0.348629
  3   2.380047 0.353302 0.047440 -0.093291 -0.017322 0.425210
  4   2.033756 0.190472 -0.000128 -0.143456 -0.004950 -0.008543
  5   2.451511 0.204909 -0.003447 -0.381227 0.094543 -0.009720
  6   7.247600 -0.397300 -0.109469 0.000001 0.000021 0.156829
  7   -2.022252 -0.104661 3.136172 0.479392 -1.239318 -3.683039
  8   1.168026 -0.537438 -0.063437 -0.713253 0.811284 -0.607110
  9   6.790376 -0.619176 0.015206 0.036958 0.045432 -1.053980
 10   8.637599 0.544015 -0.090417 -3.614626 0.247221 0.266830
 11   6.790465 -0.619039 0.017802 0.031686 0.016717 -0.753205
 12   -2.022474 -0.104699 -2.873818 -2.272876 1.443299 -5.613372
 13   1.167898 -0.537463 0.063297 -0.208358 -1.069823 -0.680502
 14   7.002743 -0.617765 -0.183752 0.019757 -0.136430 -1.725024
 15   8.209042 0.615527 -0.255885 2.235192 0.403505 0.416444
 16   7.002735 -0.617911 -0.183641 0.002245 -0.092439 -1.224387
 17   1.574674 0.609930 -0.000899 0.549039 -0.020819 0.634909
 18   -0.602177 0.511412 -0.000006 0.000000 0.000000 0.000000
 19   3.658147 0.270773 1.119313 -0.000002 -0.000014 -0.174510
 20   3.658141 0.270746 -1.117566 0.000007 -0.000003 -0.174546
 21   3.352495 1.260319 1.572969 0.000002 -0.000011 -0.000026
 22   -0.238247 -0.382994 0.496989 0.000099 -0.028720 0.445010
 23   3.360325 1.256438 -1.623270 0.000019 0.000002 -0.000024
 24   -0.160210 -0.285318 -0.532136 0.000091 -0.028745 0.445076
 25   4.531195 1.993432 1.637143 -0.032209 0.220350 0.007203
 26   4.531213 1.993460 -1.621597 0.035761 -0.204352 -0.020865
 27   3.117593 1.463010 1.502782 -0.000019 -0.000022 -0.000050
 28   3.120023 1.462616 -1.512861 -0.000002 -0.000009 -0.000024
 29   8.824059 0.150544 0.091743 0.077811 -0.031399 0.060069
 30   2.173587 -0.553366 1.647597 -0.002096 0.150174 0.010038
 31   2.218949 -0.557383 -1.755940 0.000398 -0.198845 0.011134
 32   -0.814395 -0.093824 3.127092 3.071965 -0.114691 1.239365
 33   14.298673 -0.408176 0.471578 0.000248 0.000063 -1.896136
 34   15.835795 0.581398 0.242756 -0.214735 0.106913 -0.097869
 35   -0.815868 -0.091229 -3.114430 0.066464 3.132818 -1.010216
 36   14.294526 -0.410349 -0.467541 0.000021 -0.000012 -2.607695
 37   15.834409 0.579420 -0.284600 -0.006092 -0.035255 0.214508
 38   1.182655 -3.473281 -2.823813 0.008104 -0.006049 0.018574
 39   -4.477274 -0.789221 -0.687584 0.010391 0.022950 -0.091628
 40   1.075131 -3.430237 3.237290 -0.003852 -0.007302 0.030059
 41   -4.293211 -0.891156 1.018162 0.001126 0.002241 -0.009115
 42   -0.583247 1.685583 -2.415168 0.067401 0.104998 -0.010163
 43   -0.660162 1.663421 2.627182 -0.079075 -0.119049 0.020535
time 15
  0   -0.967547 0.175787 -20.574476 0.000000 0.000000 -1.572114
  1   -1.093036 0.000002 -0.326057 -0.214014 -1.569082 -1.356583
  2   2.262337 0.113614 0.064702 -0.041309 -0.087487 0.348629
  3   2.380047 0.353302 0.047440 -0.094881 -0.015764 0.405029
  4   2.033756 0.190472 -0.000128 -0.141114 -0.007670 0.008239
  5   2.451511 0.204909 -0.003447 -0.377324 0.089791 0.006922
  6   7.247600 -0.397300 -0.109469 0.000001 0.000021 0.156829
  7   -2.022252 -0.104661 3.136172 0.479392 -1.239318 -3.683039
  8   1.168026 -0.537438 -0.063437 -0.715974 0.792869 -0.615650
  9   6.790376 -0.619176 0.015206 0.036958 0.045365 -1.052999
 10   8.637599 0.544015 -0.090417 -3.614626 0.247221 0.266830
 11   6.790465 -0.619039 0.017802 0.031686 0.016717 -0.752455
 12   -2.022474 -0.104699 -2.873818 -2.272876 1.443299 -5.613372
 13   1.167898 -0.537463 0.063297 -0.181012 -1.067992 -0.700660
 14   7.002743 -0.617765 -0.183752 0.019757 -0.136430 -1.725024
 15   8.209042 0.615527 -0.255885 2.235192 0.403505 0.416444
 16   7.002735 -0.617911 -0.183641 0.002245 -0.092439 -1.224387
 17   1.574674 0.609930 -0.000899 0.552898 -0.013435 0.624227
 18   -0.602177 0.511412 -0.000006 0.000000 0.000000 0.000000
 19   3.673773 0.177020 1.119313 -0.000002 -0.000014 -0.174510
 20   3.673767 0.176993 -1.117566 0.000007 -0.000003 -0.174546
 21   2.899356 1.190005 1.518280 0.000002 -0.000011 -0.000026
 22   -0.226528 -0.758005 0.473551 0.000194 -0.057471 0.890061
 23   2.914999 1.182217 -1.611551 0.000019 0.000002 -0.000024
 24   -0.074270 -0.562670 -0.551668 0.000187 -0.057496 0.890104
 25   4.117120 1.989525 1.648862 -0.064423 0.440701 0.014429
 26   4.117138 1.989553 -1.609878 0.071535 -0.408734 -0.041706
 27   3.305099 1.322380 1.487156 -0.000019 -0.000022 -0.000050
 28   3.307528 1.321986 -1.528487 -0.000002 -0.000009 -0.000024
 29   8.824059 0.150544 0.091743 0.078791 -0.031921 0.063073
 30   2.173587 -0.553366 1.643691 -0.002123 0.152121 0.010167
 31   2.218949 -0.557383 -1.752033 0.000398 -0.201410 0.011279
 32   -0.814395 -0.093824 3.127092 3.071965 -0.114691 1.239365
 33   14.298673 -0.408176 0.471578 0.000248 0.000063 -1.896136
 34   15.835795 0.581398 0.242756 -0.214735 0.106913 -0.097869
 35   -0.815868 -0.091229 -3.114430 0.066464 3.132818 -1.010216
 36   14.294526 -0.410349 -0.467541 0.000021 -0.000012 -2.607695
 37   15.834409 0.579420 -0.284600 -0.006092 -0.035255 0.214508
 38   1.186561 -3.473281 -2.823813 0.008209 -0.006122 0.018818
 39   -4.477274 -0.789221 -0.683678 0.010522 0.023250 -0.092806
 40   1.071225 -3.430237 3.237290 -0.003915 -0.007386 0.030425
 41   -4.293211 -0.891156 1.018162 0.001138 0.002265 -0.009227
 42   -0.583247 1.685583 -2.411262 0.068276 0.106362 -0.010288
 43   -0.660162 1.663421 2.623276 -0.080100 -0.120587 0.020786
time 16
  0   -0.967547 0.175787 -20.574476 0.000000 0.000000 -1.572114
  1   -1.093036 0.000002 -0.326057 -0.214014 -1.569082 -1.356583
  2   2.262337 0.113614 0.064702 -0.041309 -0.087487 0.348629
  3   2.380047 0.353302 0.047440 -0.096501 -0.014230 0.384807
  4   2.033756 0.190472 -0.000128 -0.138827 -0.010462 0.024985
  5   2.451511 0.204909 -0.003447 -0.373524 0.084961 0.023416
  6   7.247600 -0.397300 -0.109469 0.000001 0.000021 0.156829
  7   -2.022252 -0.104661 3.136172 0.479392 -1.239318 -3.683039
  8   1.168026 -0.537438 -0.063437 -0.718442 0.774454 -0.624127
  9   6.790376 -0.619176 0.015206 0.036958 0.045365 -1.051867
 10   8.637599 0.544015 -0.090417 -3.614626 0.247221 0.266830
 11   6.790465 -0.619039 0.017802 0.031686 0.016689 -0.751763
 12   -2.022474 -0.104699 -2.873818 -2.272876 1.443299 -5.613372
 13   1.167898 -0.537463 0.063297 -0.153878 -1.065856 -0.720697
 14   7.002743 -0.617765 -0.183752 0.019757 -0.136430 -1.725024
 15   8.209042 0.615527 -0.255885 2.235192 0.403505 0.416444
 16   7.002735 -0.617911 -0.183641 0.002245 -0.092439 -1.224387
 17   1.574674 0.609930 -0.000899 0.556675 -0.005980 0.613582
 18   -0.602177 0.511412 -0.000006 0.000000 0.000000 0.000000
 19   3.658147 0.270773 1.119313 -0.000002 -0.000014 -0.174510
 20   3.658141 0.270746 -1.117566 0.000007 -0.000003 -0.174546
 21   3.352495 1.260319 1.572969 0.000002 -0.000011 -0.000026
 22   -0.238247 -0.382994 0.496989 0.000099 -0.028720 0.445010
 23   3.360325 1.256438 -1.623270 0.000019 0.000002 -0.000024
 24   -0.160210 -0.285318 -0.532136 0.000091 -0.028745 0.445076
 25   4.531195 1.993432 1.637143 -0.032209 0.220350 0.007203
 26   4.531213 1.993460 -1.621597 0.035761 -0.204352 -0.020865
 27   3.117593 1.463010 1.502782 -0.000019 -0.000022 -0.000050
 28   3.120023 1.462616 -1.512861 -0.000002 -0.000009 -0.000024
 29   8.824059 0.150544 0.091743 0.077811 -0.031399 0.060069
 30   2.173587 -0.553366 1.647597 -0.002096 0.150174 0.010038
 31   2.218949 -0.557383 -1.755940 0.000398 -0.198845 0.011134
 32   -0.814395 -0.093824 3.127092 3.071965 -0.114691 1.239365
 33   14.298673 -0.408176 0.471578 0.000248 0.000063 -1.896136
 34   15.835795 0.581398 0.242756 -0.214735 0.106913 -0.097869
 35   -0.815868 -0.091229 -3.114430 0.066464 3.132818 -1.010216
 36   14.294526 -0.410349 -0.467541 0.000021 -0.000012 -2.607695
 37   15.834409 0.579420 -0.284600 -0.006092 -0.035255 0.214508
 38   1.182655 -3.473281 -2.823813 0.008104 -0.006049 0.018574
 39   -4.477274 -0.789221 -0.687584 0.010391 0.022950 -0.091628
 40   1.075131 -3.430237 3.237290 -0.003852 -0.007302 0.030059
 41   -4.293211 -0.891156 1.018162 0.001126 0.002241 -0.009115
 42   -0.583247 1.685583 -2.415168 0.067401 0.104998 -0.010163
 43   -0.660162 1.663421 2.627182 -0.079075 -0.119049 0.020535
time 17
  0   -0.967547 0.175787 -20.574476 0.000000 0.000000 -1.572114
  1   -1.093036 0.000002 -0.326057 -0.214014 -1.569082 -1.356583
  2   2.262337 0.113614 0.064702 -0.041309 -0.087487 0.348629
  3   2.380047 0.353302 0.047440 -0.097927 -0.012959 0.368156
  4   2.033756 0.190472 -0.000128 -0.136983 -0.012763 0.038795
  5   2.451511 0.204909 -0.003447 -0.370443 0.080940 0.036938
  6   7.247600 -0.397300 -0.109469 0.000001 0.000021 0.156829
  7   -2.022252 -0.104661 3.136172 0.479392 -1.239318 -3.683039
  8   1.168026 -0.537438 -0.063437 -0.720277 0.759410 -0.630769
  9   6.790376 -0.619176 0.015206 0.036958 0.045365 -1.051037
 10   8.637599 0.544015 -0.090417 -3.614626 0.247221 0.266830
 11   6.790465 -0.619039 0.017802 0.031686 0.016689 -0.751129
 12   -2.022474 -0.104699 -2.873818 -2.272876 1.443299 -5.613372
 13   1.167898 -0.537463 0.063297 -0.131524 -1.063822 -0.736920
 14   7.002743 -0.617765 -0.183752 0.019757 -0.136430 -1.725024
 15   8.209042 0.615527 -0.255885 2.235192 0.403505 0.416444
 16   7.002735 -0.617911 -0.183641 0.002245 -0.092439 -1.224387
 17   1.574674 0.609930 -0.000899 0.559641 0.000079 0.604785
 18   -0.602177 0.511412 -0.000006 0.000000 0.000000 0.000000
 19   3.646428 0.364526 1.119313 -0.000002 -0.000014 -0.174510
 20   3.646422 0.364499 -1.117566 0.000007 -0.000003 -0.174546
 21   3.805634 1.330634 1.627658 0.000002 -0.000011 -0.000026
 22   -0.246060 -0.011889 0.516521 -0.000011 0.000031 0.000025
 23   3.805651 1.330659 -1.631083 0.000019 0.000002 -0.000024
 24   -0.246150 -0.011872 -0.516511 -0.000005 -0.000006 0.000048
 25   4.941364 1.997338 1.629330 0.000018 -0.000001 -0.000024
 26   4.941382 1.997366 -1.629410 -0.000001 0.000005 -0.000024
 27   2.930087 1.603639 1.514501 -0.000019 -0.000022 -0.000050
 28   2.932517 1.603245 -1.501142 -0.000002 -0.000009 -0.000024
 29   8.824059 0.150544 0.091743 0.075137 -0.029951 0.051593
 30   2.169681 -0.553366 1.651503 -0.002015 0.144681 0.009673
 31   2.215043 -0.557383 -1.759846 0.000383 -0.191619 0.010733
 32   -0.814395 -0.093824 3.127092 3.071965 -0.114691 1.239365
 33   14.298673 -0.408176 0.471578 0.000248 0.000063 -1.896136
 34   15.835795 0.581398 0.242756 -0.214735 0.106913 -0.097869
 35   -0.815868 -0.091229 -3.114430 0.066464 3.132818 -1.010216
 36   14.294526 -0.410349 -0.467541 0.000021 -0.000012 -2.607695
 37   15.834409 0.579420 -0.284600 -0.006092 -0.035255 0.214508
 38   1.182655 -3.473281 -2.823813 0.007809 -0.005820 0.017902
 39   -4.477274 -0.800940 -0.687584 0.010007 0.022112 -0.088291
 40   1.075131 -3.430237 3.237290 -0.003726 -0.007037 0.028959
 41   -4.301023 -0.898969 1.014255 0.001078 0.002157 -0.008779
 42   -0.587153 1.685583 -2.422981 0.064956 0.101195 -0.009786
 43   -0.660162 1.667327 2.634995 -0.076214 -0.114734 0.019782
time 18
  0   -0.967547 0.175787 -20.574476 0.000000 0.000000 -1.572114
  1   -1.093036 0.000002 -0.326057 -0.214014 -1.569082 -1.356583
  2   2.262337 0.113614 0.064702 -0.041309 -0.087487 0.348629
  3   2.380047 0.353302 0.047440 -0.098812 -0.012192 0.357586
  4   2.033756 0.190472 -0.000128 -0.135858 -0.014274 0.047495
  5   2.451511 0.204909 -0.003447 -0.368543 0.078355 0.045556
  6   7.247600 -0.397300 -0.109469 0.000001 0.000021 0.156829
  7   -2.022252 -0.104661 3.136172 0.479392 -1.239318 -3.683039
  8   1.168026 -0.537438 -0.063437 -0.721163 0.749800 -0.634881
  9   6.790376 -0.619176 0.015206 0.037014 0.045299 -1.050433
 10   8.637599 0.544015 -0.090417 -3.614626 0.247221 0.266830
 11   6.790465 -0.619039 0.017802 0.031686 0.016632 -0.750783
 12   -2.022474 -0.104699 -2.873818 -2.272876 1.443299 -5.613372
 13   1.167898 -0.537463 0.063297 -0.117605 -1.062551 -0.747211
 14   7.002743 -0.617765 -0.183752 0.019757 -0.136430 -1.725024
 15   8.209042 0.615527 -0.255885 2.235192 0.403505 0.416444
 16   7.002735 -0.617911 -0.183641 0.002245 -0.092439 -1.224387
 17   1.574674 0.609930 -0.000899 0.561591 0.003984 0.599352
 18   -0.602177 0.511412 -0.000006 0.000000 0.000000 0.000000
 19   3.646428 0.364526 1.119313 -0.000002 -0.000014 -0.174510
 20   3.646422 0.364499 -1.117566 0.000007 -0.000003 -0.174546
 21   3.805634 1.330634 1.627658 0.000002 -0.000011 -0.000026
 22   -0.246060 -0.011889 0.516521 -0.000011 0.000031 0.000025
 23   3.805651 1.330659 -1.631083 0.000019 0.000002 -0.000024
 24   -0.246150 -0.011872 -0.516511 -0.000005 -0.000006 0.000048
 25   4.941364 1.997338 1.629330 0.000018 -0.000001 -0.000024
 26   4.941382 1.997366 -1.629410 -0.000001 0.000005 -0.000024
 27   2.930087 1.603639 1.514501 -0.000019 -0.000022 -0.000050
 28   2.932517 1.603245 -1.501142 -0.000002 -0.000009 -0.000024
 29   8.824059 0.150544 0.091743 0.070948 -0.027767 0.038503
 30   2.165774 -0.553366 1.659316 -0.001893 0.136225 0.009116
 31   2.207230 -0.557383 -1.763752 0.000352 -0.180455 0.010096
 32   -0.814395 -0.093824 3.127092 3.071965 -0.114691 1.239365
 33   14.298673 -0.408176 0.471578 0.000248 0.000063 -1.896136
 34   15.835795 0.581398 0.242756 -0.214735 0.106913 -0.097869
 35   -0.815868 -0.091229 -3.114430 0.066464 3.132818 -1.010216
 36   14.294526 -0.410349 -0.467541 0.000021 -0.000012 -2.607695
 37   15.834409 0.579420 -0.284600 -0.006092 -0.035255 0.214508
 38   1.178749 -3.469374 -2.823813 0.007367 -0.005483 0.016863
 39   -4.473368 -0.816566 -0.691491 0.009432 0.020829 -0.083158
 40   1.079037 -3.434144 3.237290 -0.003494 -0.006627 0.027309
 41   -4.308836 -0.906782 1.010349 0.001018 0.002025 -0.008274
 42   -0.591060 1.689489 -2.438606 0.061169 0.095292 -0.009201
 43   -0.660162 1.667327 2.650620 -0.071766 -0.108049 0.018611
time 19
  0   -0.967547 0.175787 -20.574476 0.000000 0.000000 -1.572114
  1   -1.093036 0.000002 -0.326057 -0.214014 -1.569082 -1.356583
  2   2.262337 0.113614 0.064702 -0.041309 -0.087487 0.348629
  3   2.380047 0.353302 0.047440 -0.099097 -0.011953 0.354015
  4   2.033756 0.190472 -0.000128 -0.135489 -0.014765 0.050431
  5   2.451511 0.204909 -0.003447 -0.367961 0.077493 0.048429
  6   7.247600 -0.397300 -0.109469 0.000001 0.000021 0.156829
  7   -2.022252 -0.104661 3.136172 0.479392 -1.239318 -3.683039
  8   1.168026 -0.537438 -0.063437 -0.721606 0.746580 -0.636336
  9   6.790376 -0.619176 0.015206 0.037014 0.045299 -1.050207
 10   8.637599 0.544015 -0.090417 -3.614626 0.247221 0.266830
 11   6.790465 -0.619039 0.017802 0.031628 0.016632 -0.750610
 12   -2.022474 -0.104699 -2.873818 -2.272876 1.443299 -5.613372
 13   1.167898 -0.537463 0.063297 -0.112966 -1.062042 -0.750601
 14   7.002743 -0.617765 -0.183752 0.019757 -0.136430 -1.725024
 15   8.209042 0.615527 -0.255885 2.235192 0.403505 0.416444
 16   7.002735 -0.617911 -0.183641 0.002245 -0.092439 -1.224387
 17   1.574674 0.609930 -0.000899 0.562241 0.005309 0.597467
 18   -0.602177 0.511412 -0.000006 0.000000 0.000000 0.000000
 19   3.646428 0.364526 1.119313 -0.000002 -0.000014 -0.174510
 20   3.646422 0.364499 -1.117566 0.000007 -0.000003 -0.174546
 21   3.805634 1.330634 1.627658 0.000002 -0.000011 -0.000026
 22   -0.246060 -0.011889 0.516521 -0.000011 0.000031 0.000025
 23   3.805651 1.330659 -1.631083 0.000019 0.000002 -0.000024
 24   -0.246150 -0.011872 -0.516511 -0.000005 -0.000006 0.000048
 25   4.941364 1.997338 1.629330 0.000018 -0.000001 -0.000024
 26   4.941382 1.997366 -1.629410 -0.000001 0.000005 -0.000024
 27   2.930087 1.603639 1.514501 -0.000019 -0.000022 -0.000050
 28   2.932517 1.603245 -1.501142 -0.000002 -0.000009 -0.000024
 29   8.824059 0.150544 0.091743 0.065601 -0.025013 0.021603
 30   2.161868 -0.553366 1.671035 -0.001744 0.125327 0.008387
 31   2.199417 -0.557383 -1.771565 0.000337 -0.166080 0.009296
 32   -0.814395 -0.093824 3.127092 3.071965 -0.114691 1.239365
 33   14.298673 -0.408176 0.471578 0.000248 0.000063 -1.896136
 34   15.835795 0.581398 0.242756 -0.214735 0.106913 -0.097869
 35   -0.815868 -0.091229 -3.114430 0.066464 3.132818 -1.010216
 36   14.294526 -0.410349 -0.467541 0.000021 -0.000012 -2.607695
 37   15.834409 0.579420 -0.284600 -0.006092 -0.035255 0.214508
 38   1.178749 -3.469374 -2.823813 0.006778 -0.005049 0.015519
 39   -4.473368 -0.836097 -0.695397 0.008677 0.019163 -0.076511
 40   1.079037 -3.434144 3.237290 -0.003221 -0.006097 0.025110
 41   -4.316648 -0.918501 1.006442 0.000934 0.001870 -0.007629
 42   -0.594966 1.689489 -2.458138 0.056304 0.087703 -0.008490
 43   -0.660162 1.671233 2.666246 -0.066044 -0.099435 0.017147
time 20
  0   -0.967547 0.175787 -20.574476 0.000000 0.000000 -1.572114
  1   -1.093036 0.000002 -0.326057 -0.214014 -1.569082 -1.356583
  2   2.262337 0.113614 0.064702 -0.041309 -0.087487 0.348629
  3   2.380047 0.353302 0.047440 -0.099097 -0.011953 0.354015
  4   2.033756 0.190472 -0.000128 -0.135489 -0.014765 0.050431
  5   2.451511 0.204909 -0.003447 -0.367961 0.077493 0.048429
  6   7.247600 -0.397300 -0.109469 0.000001 0.000021 0.156829
  7   -2.022252 -0.104661 3.136172 0.479392 -1.239318 -3.683039
  8   1.168026 -0.537438 -0.063437 -0.721606 0.746580 -0.636336
  9   6.790376 -0.619176 0.015206 0.037014 0.045299 -1.050207
 10   8.637599 0.544015 -0.090417 -3.614626 0.247221 0.266830
 11   6.790465 -0.619039 0.017802 0.031628 0.016632 -0.750610
 12   -2.022474 -0.104699 -2.873818 -2.272876 1.443299 -5.613372
 13   1.167898 -0.537463 0.063297 -0.112966 -1.062042 -0.750601
 14   7.002743 -0.617765 -0.183752 0.019757 -0.136430 -1.725024
 15   8.209042 0.615527 -0.255885 2.235192 0.403505 0.416444
 16   7.002735 -0.617911 -0.183641 0.002245 -0.092439 -1.224387
 17   1.574674 0.609930 -0.000899 0.562241 0.005309 0.597467
 18   -0.602177 0.511412 -0.000006 0.000000 0.000000 0.000000
 19   3.646428 0.364526 1.119313 -0.000002 -0.000014 -0.174510
 20   3.646422 0.364499 -1.117566 0.000007 -0.000003 -0.174546
 21   3.805634 1.330634 1.627658 0.000002 -0.000011 -0.000026
 22   -0.246060 -0.011889 0.516521 -0.000011 0.000031 0.000025
 23   3.805651 1.330659 -1.631083 0.000019 0.000002 -0.000024
 24   -0.246150 -0.011872 -0.516511 -0.000005 -0.000006 0.000048
 25   4.941364 1.997338 1.629330 0.000018 -0.000001 -0.000024
 26   4.941382 1.997366 -1.629410 -0.000001 0.000005 -0.000024
 27   2.930087 1.603639 1.514501 -0.000019 -0.000022 -0.000050
 28   2.932517 1.603245 -1.501142 -0.000002 -0.000009 -0.000024
 29   8.824059 0.150544 0.091743 0.059095 -0.021928 0.001754
 30   2.157961 -0.553366 1.682754 -0.001567 0.112511 0.007529
 31   2.191605 -0.557383 -1.779378 0.000291 -0.149192 0.008350
 32   -0.814395 -0.093824 3.127092 3.071965 -0.114691 1.239365
 33   14.298673 -0.408176 0.471578 0.000248 0.000063 -1.896136
 34   15.835795 0.581398 0.242756 -0.214735 0.106913 -0.097869
 35   -0.815868 -0.091229 -3.114430 0.066464 3.132818 -1.010216
 36   14.294526 -0.410349 -0.467541 0.000021 -0.000012 -2.607695
 37   15.834409 0.579420 -0.284600 -0.006092 -0.035255 0.214508
 38   1.170936 -3.469374 -2.823813 0.006083 -0.004531 0.013931
 39   -4.473368 -0.855629 -0.703210 0.007790 0.017222 -0.068742
 40   1.086850 -3.434144 3.237290 -0.002884 -0.005470 0.022544
 41   -4.328368 -0.934126 1.002536 0.000838 0.001678 -0.006843
 42   -0.602779 1.689489 -2.481576 0.050575 0.078779 -0.007612
 43   -0.660162 1.675140 2.685778 -0.059334 -0.089329 0.015391
time 21
  0   -0.967547 0.175787 -20.574476 0.000000 0.000000 -1.572114
  1   -1.093036 0.000002 -0.326057 -0.214014 -1.569082 -1.356583
  2   2.262337 0.113614 0.064702 -0.041309 -0.087487 0.348629
  3   2.380047 0.353302 0.047440 -0.099097 -0.011953 0.354015
  4   2.033756 0.190472 -0.000128 -0.135489 -0.014765 0.050431
  5   2.451511 0.204909 -0.003447 -0.367961 0.077493 0.048429
  6   7.247600 -0.397300 -0.109469 0.000001 0.000021 0.156829
  7   -2.022252 -0.104661 3.136172 0.479392 -1.239318 -3.683039
  8   1.168026 -0.537438 -0.063437 -0.721606 0.746580 -0.636336
  9   6.790376 -0.619176 0.015206 0.037014 0.045299 -1.050207
 10   8.637599 0.544015 -0.090417 -3.614626 0.247221 0.266830
 11   6.790465 -0.619039 0.017802 0.031628 0.016632 -0.750610
 12   -2.022474 -0.104699 -2.873818 -2.272876 1.443299 -5.613372
 13   1.167898 -0.537463 0.063297 -0.112966 -1.062042 -0.750601
 14   7.002743 -0.617765 -0.183752 0.019757 -0.136430 -1.725024
 15   8.209042 0.615527 -0.255885 2.235192 0.403505 0.416444
 16   7.002735 -0.617911 -0.183641 0.002245 -0.092439 -1.224387
 17   1.574674 0.609930 -0.000899 0.562241 0.005309 0.597467
 18   -0.602177 0.511412 -0.000006 0.000000 0.000000 0.000000
 19   3.646428 0.364526 1.119313 -0.000002 -0.000014 -0.174510
 20   3.646422 0.364499 -1.117566 0.000007 -0.000003 -0.174546
 21   3.805634 1.330634 1.627658 0.000002 -0.000011 -0.000026
 22   -0.246060 -0.011889 0.516521 -0.000011 0.000031 0.000025
 23   3.805651 1.330659 -1.631083 0.000019 0.000002 -0.000024
 24   -0.246150 -0.011872 -0.516511 -0.000005 -0.000006 0.000048
 25   4.941364 1.997338 1.629330 0.000018 -0.000001 -0.000024
 26   4.941382 1.997366 -1.629410 -0.000001 0.000005 -0.000024
 27   2.930087 1.603639 1.514501 -0.000019 -0.000022 -0.000050
 28   2.932517 1.603245 -1.501142 -0.000002 -0.000009 -0.000024
 29   8.824059 0.150544 0.091743 0.051965 -0.018628 -0.020242
 30   2.150149 -0.557273 1.694474 -0.001378 0.098329 0.006607
 31   2.183792 -0.557383 -1.791097 0.000260 -0.130517 0.007313
 32   -0.814395 -0.093824 3.127092 3.071965 -0.114691 1.239365
 33   14.298673 -0.408176 0.471578 0.000248 0.000063 -1.896136
 34   15.835795 0.581398 0.242756 -0.214735 0.106913 -0.097869
 35   -0.815868 -0.091229 -3.114430 0.066464 3.132818 -1.010216
 36   14.294526 -0.410349 -0.467541 0.000021 -0.000012 -2.607695
 37   15.834409 0.579420 -0.284600 -0.006092 -0.035255 0.214508
 38   1.167030 -3.465468 -2.823813 0.005325 -0.003965 0.012159
 39   -4.469461 -0.882974 -0.707116 0.006819 0.015065 -0.060132
 40   1.090756 -3.438050 3.237290 -0.002526 -0.004783 0.019734
 41   -4.343993 -0.949752 0.994723 0.000730 0.001462 -0.005974
 42   -0.610592 1.689489 -2.508921 0.044235 0.068921 -0.006650
 43   -0.660162 1.675140 2.709216 -0.051900 -0.078141 0.013467
time 22
  0   -0.967547 0.175787 -20.574476 0.000000 0.000000 -1.572114
  1   -1.093036 0.000002 -0.326057 -0.214014 -1.569082 -1.356583
  2   2.262337 0.113614 0.064702 -0.041309 -0.087487 0.348629
  3   2.380047 0.353302 0.047440 -0.099097 -0.011953 0.354015
  4   2.033756 0.190472 -0.000128 -0.135489 -0.014765 0.050431
  5   2.451511 0.204909 -0.003447 -0.367961 0.077493 0.048429
  6   7.247600 -0.397300 -0.109469 0.000001 0.000021 0.156829
  7   -2.022252 -0.104661 3.136172 0.479392 -1.239318 -3.683039
  8   1.168026 -0.537438 -0.063437 -0.721606 0.746580 -0.636336
  9   6.790376 -0.619176 0.015206 0.037014 0.045299 -1.050207
 10   8.637599 0.544015 -0.090417 -3.614626 0.247221 0.266830
 11   6.790465 -0.619039 0.017802 0.031628 0.016632 -0.750610
 12   -2.022474 -0.104699 -2.873818 -2.272876 1.443299 -5.613372
 13   1.167898 -0.537463 0.063297 -0.112966 -1.062042 -0.750601
 14   7.002743 -0.617765 -0.183752 0.019757 -0.136430 -1.725024
 15   8.209042 0.615527 -0.255885 2.235192 0.403505 0.416444
 16   7.002735 -0.617911 -0.183641 0.002245 -0.092439 -1.224387
 17   1.574674 0.609930 -0.000899 0.562241 0.005309 0.597467
 18   -0.602177 0.511412 -0.000006 0.000000 0.000000 0.000000
 19   3.646428 0.364526 1.119313 -0.000002 -0.000014 -0.174510
 20   3.646422 0.364499 -1.117566 0.000007 -0.000003 -0.174546
 21   3.805634 1.330634 1.627658 0.000002 -0.000011 -0.000026
 22   -0.246060 -0.011889 0.516521 -0.000011 0.000031 0.000025
 23   3.805651 1.330659 -1.631083 0.000019 0.000002 -0.000024
 24   -0.246150 -0.011872 -0.516511 -0.000005 -0.000006 0.000048
 25   4.941364 1.997338 1.629330 0.000018 -0.000001 -0.000024
 26   4.941382 1.997366 -1.629410 -0.000001 0.000005 -0.000024
 27   2.930087 1.603639 1.514501 -0.000019 -0.000022 -0.000050
 28   2.932517 1.603245 -1.501142 -0.000002 -0.000009 -0.000024
 29   8.824059 0.150544 0.091743 0.044211 -0.015328 -0.043579
 30   2.146242 -0.557273 1.710099 -0.001161 0.083334 0.005599
 31   2.172073 -0.561289 -1.798910 0.000215 -0.110755 0.006203
 32   -0.814395 -0.093824 3.127092 3.071965 -0.114691 1.239365
 33   14.298673 -0.408176 0.471578 0.000248 0.000063 -1.896136
 34   15.835795 0.581398 0.242756 -0.214735 0.106913 -0.097869
 35   -0.815868 -0.091229 -3.114430 0.066464 3.132818 -1.010216
 36   14.294526 -0.410349 -0.467541 0.000021 -0.000012 -2.607695
 37   15.834409 0.579420 -0.284600 -0.006092 -0.035255 0.214508
 38   1.163123 -3.465468 -2.823813 0.004505 -0.003362 0.010326
 39   -4.469461 -0.910318 -0.714929 0.005789 0.012776 -0.051017
 40   1.094663 -3.438050 3.237290 -0.002147 -0.004060 0.016740
 41   -4.355712 -0.965377 0.990817 0.000622 0.001246 -0.005076
 42   -0.618404 1.693396 -2.536265 0.037548 0.058479 -0.005646
 43   -0.664068 1.679046 2.736560 -0.044042 -0.066310 0.011418
time 23
  0   -0.967547 0.175787 -20.574476 0.000000 0.000000 -1.572114
  1   -1.093036 0.000002 -0.326057 -0.214014 -1.569082 -1.356583
  2   2.262337 0.113614 0.064702 -0.041309 -0.087487 0.348629
  3   2.380047 0.353302 0.047440 -0.099097 -0.011953 0.354015
  4   2.033756 0.190472 -0.000128 -0.135489 -0.014765 0.050431
  5   2.451511 0.204909 -0.003447 -0.367961 0.077493 0.048429
  6   7.247600 -0.397300 -0.109469 0.000001 0.000021 0.156829
  7   -2.022252 -0.104661 3.136172 0.479392 -1.239318 -3.683039
  8   1.168026 -0.537438 -0.063437 -0.721606 0.746580 -0.636336
  9   6.790376 -0.619176 0.015206 0.037014 0.045299 -1.050207
 10   8.637599 0.544015 -0.090417 -3.614626 0.247221 0.266830
 11   6.790465 -0.619039 0.017802 0.031628 0.016632 -0.750610
 12   -2.022474 -0.104699 -2.873818 -2.272876 1.443299 -5.613372
 13   1.167898 -0.537463 0.063297 -0.112966 -1.062042 -0.750601
 14   7.002743 -0.617765 -0.183752 0.019757 -0.136430 -1.725024
 15   8.209042 0.615527 -0.255885 2.235192 0.403505 0.416444
 16   7.002735 -0.617911 -0.183641 0.002245 -0.092439 -1.224387
 17   1.574674 0.609930 -0.000899 0.562241 0.005309 0.597467
 18   -0.602177 0.511412 -0.000006 0.000000 0.000000 0.000000
 19   3.646428 0.364526 1.119313 -0.000002 -0.000014 -0.174510
 20   3.646422 0.364499 -1.117566 0.000007 -0.000003 -0.174546
 21   3.805634 1.330634 1.627658 0.000002 -0.000011 -0.000026
 22   -0.246060 -0.011889 0.516521 -0.000011 0.000031 0.000025
 23   3.805651 1.330659 -1.631083 0.000019 0.000002 -0.000024
 24   -0.246150 -0.011872 -0.516511 -0.000005 -0.000006 0.000048
 25   4.941364 1.997338 1.629330 0.000018 -0.000001 -0.000024
 26   4.941382 1.997366 -1.629410 -0.000001 0.000005 -0.000024
 27   2.930087 1.603639 1.514501 -0.000019 -0.000022 -0.000050
 28   2.932517 1.603245 -1.501142 -0.000002 -0.000009 -0.000024
 29   8.824059 0.150544 0.091743 0.036368 -0.012147 -0.067345
 30   2.138430 -0.557273 1.721818 -0.000957 0.068076 0.004591
 31   2.164260 -0.561289 -1.810629 0.000184 -0.090655 0.005075
 32   -0.814395 -0.093824 3.127092 3.071965 -0.114691 1.239365
 33   14.298673 -0.408176 0.471578 0.000248 0.000063 -1.896136
 34   15.835795 0.581398 0.242756 -0.214735 0.106913 -0.097869
 35   -0.815868 -0.091229 -3.114430 0.066464 3.132818 -1.010216
 36   14.294526 -0.410349 -0.467541 0.000021 -0.000012 -2.607695
 37   15.834409 0.579420 -0.284600 -0.006092 -0.035255 0.214508
 38   1.159217 -3.461562 -2.823813 0.003684 -0.002748 0.008432
 39   -4.465555 -0.933757 -0.718835 0.004734 0.010463 -0.041761
 40   1.098569 -3.441956 3.237290 -0.001747 -0.003325 0.013685
 41   -4.371338 -0.984909 0.983004 0.000502 0.001019 -0.004151
 42   -0.626217 1.693396 -2.563610 0.030728 0.047869 -0.004600
 43   -0.664068 1.682953 2.759999 -0.036045 -0.054275 0.009326
time 24
  0   -0.967547 0.175787 -20.574476 0.000000 0.000000 -1.572114
  1   -1.093036 0.000002 -0.326057 -0.214014 -1.569082 -1.356583
  2   2.262337 0.113614 0.064702 -0.041309 -0.087487 0.348629
  3   2.380047 0.353302 0.047440 -0.099097 -0.011953 0.354015
  4   2.033756 0.190472 -0.000128 -0.135489 -0.014765 0.050431
  5   2.451511 0.204909 -0.003447 -0.367961 0.077493 0.048429
  6   7.247600 -0.397300 -0.109469 0.000001 0.000021 0.156829
  7   -2.022252 -0.104661 3.136172 0.479392 -1.239318 -3.683039
  8   1.168026 -0.537438 -0.063437 -0.721606 0.746580 -0.636336
  9   6.790376 -0.619176 0.015206 0.037014 0.045299 -1.050207
 10   8.637599 0.544015 -0.090417 -3.614626 0.247221 0.266830
 11   6.790465 -0.619039 0.017802 0.031628 0.016632 -0.750610
 12   -2.022474 -0.104699 -2.873818 -2.272876 1.443299 -5.613372
 13   1.167898 -0.537463 0.063297 -0.112966 -1.062042 -0.750601
 14   7.002743 -0.617765 -0.183752 0.019757 -0.136430 -1.725024
 15   8.209042 0.615527 -0.255885 2.235192 0.403505 0.416444
 16   7.002735 -0.617911 -0.183641 0.002245 -0.092439 -1.224387
 17   1.574674 0.609930 -0.000899 0.562241 0.005309 0.597467
 18   -0.602177 0.511412 -0.000006 0.000000 0.000000 0.000000
 19   3.646428 0.364526 1.119313 -0.000002 -0.000014 -0.174510
 20   3.646422 0.364499 -1.117566 0.000007 -0.000003 -0.174546
 21   3.805634 1.330634 1.627658 0.000002 -0.000011 -0.000026
 22   -0.246060 -0.011889 0.516521 -0.000011 0.000031 0.000025
 23   3.805651 1.330659 -1.631083 0.000019 0.000002 -0.000024
 24   -0.246150 -0.011872 -0.516511 -0.000005 -0.000006 0.000048
 25   4.941364 1.997338 1.629330 0.000018 -0.000001 -0.000024
 26   4.941382 1.997366 -1.629410 -0.000001 0.000005 -0.000024
 27   2.930087 1.603639 1.514501 -0.000019 -0.000022 -0.000050
 28   2.932517 1.603245 -1.501142 -0.000002 -0.000009 -0.000024
 29   8.824059 0.150544 0.091743 0.028525 -0.009228 -0.090682
 30   2.130617 -0.561179 1.737444 -0.000754 0.053081 0.003584
 31   2.152541 -0.561289 -1.818442 0.000138 -0.070892 0.003965
 32   -0.814395 -0.093824 3.127092 3.071965 -0.114691 1.239365
 33   14.298673 -0.408176 0.471578 0.000248 0.000063 -1.896136
 34   15.835795 0.581398 0.242756 -0.214735 0.106913 -0.097869
 35   -0.815868 -0.091229 -3.114430 0.066464 3.132818 -1.010216
 36   14.294526 -0.410349 -0.467541 0.000021 -0.000012 -2.607695
 37   15.834409 0.579420 -0.284600 -0.006092 -0.035255 0.214508
 38   1.155311 -3.457655 -2.823813 0.002884 -0.002145 0.006599
 39   -4.461648 -0.961101 -0.726648 0.003703 0.008173 -0.032646
 40   1.102476 -3.445863 3.237290 -0.001368 -0.002602 0.010692
 41   -4.386963 -1.000534 0.979098 0.000394 0.000791 -0.003253
 42   -0.634030 1.693396 -2.590955 0.024029 0.037428 -0.003597
 43   -0.664068 1.686859 2.783437 -0.028187 -0.042443 0.007319
time 25
  0   -0.967547 0.175787 -20.574476 0.000000 0.000000 -1.572114
  1   -1.093036 0.000002 -0.326057 -0.214014 -1.569082 -1.356583
  2   2.262337 0.113614 0.064702 -0.041309 -0.087487 0.348629
  3   2.380047 0.353302 0.047440 -0.099097 -0.011953 0.354015
  4   2.033756 0.190472 -0.000128 -0.135489 -0.014765 0.050431
  5   2.451511 0.204909 -0.003447 -0.367961 0.077493 0.048429
  6   7.247600 -0.397300 -0.109469 0.000001 0.000021 0.156829
  7   -2.022252 -0.104661 3.136172 0.479392 -1.239318 -3.683039
  8   1.168026 -0.537438 -0.063437 -0.721606 0.746580 -0.636336
  9   6.790376 -0.619176 0.015206 0.037014 0.045299 -1.050207
 10   8.637599 0.544015 -0.090417 -3.614626 0.247221 0.266830
 11   6.790465 -0.619039 0.017802 0.031628 0.016632 -0.750610
 12   -2.022474 -0.104699 -2.873818 -2.272876 1.443299 -5.613372
 13   1.167898 -0.537463 0.063297 -0.112966 -1.062042 -0.750601
 14   7.002743 -0.617765 -0.183752 0.019757 -0.136430 -1.725024
 15   8.209042 0.615527 -0.255885 2.235192 0.403505 0.416444
 16   7.002735 -0.617911 -0.183641 0.002245 -0.092439 -1.224387
 17   1.574674 0.609930 -0.000899 0.562241 0.005309 0.597467
 18   -0.602177 0.511412 -0.000006 0.000000 0.000000 0.000000
 19   3.646428 0.364526 1.119313 -0.000002 -0.000014 -0.174510
 20   3.646422 0.364499 -1.117566 0.000007 -0.000003 -0.174546
 21   3.805634 1.330634 1.627658 0.000002 -0.000011 -0.000026
 22   -0.246060 -0.011889 0.516521 -0.000011 0.000031 0.000025
 23   3.805651 1.330659 -1.631083 0.000019 0.000002 -0.000024
 24   -0.246150 -0.011872 -0.516511 -0.000005 -0.000006 0.000048
 25   4.941364 1.997338 1.629330 0.000018 -0.000001 -0.000024
 26   4.941382 1.997366 -1.629410 -0.000001 0.000005 -0.000024
 27   2.930087 1.603639 1.514501 -0.000019 -0.000022 -0.000050
 28   2.932517 1.603245 -1.501142 -0.000002 -0.000009 -0.000024
 29   8.824059 0.150544 0.091743 0.021039 -0.006617 -0.112785
 30   2.126710 -0.561179 1.749163 -0.000550 0.038928 0.002640
 31   2.144728 -0.561289 -1.830161 0.000092 -0.052217 0.002909
 32   -0.814395 -0.093824 3.127092 3.071965 -0.114691 1.239365
 33   14.298673 -0.408176 0.471578 0.000248 0.000063 -1.896136
 34   15.835795 0.581398 0.242756 -0.214735 0.106913 -0.097869
 35   -0.815868 -0.091229 -3.114430 0.066464 3.132818 -1.010216
 36   14.294526 -0.410349 -0.467541 0.000021 -0.000012 -2.607695
 37   15.834409 0.579420 -0.284600 -0.006092 -0.035255 0.214508
 38   1.151404 -3.457655 -2.823813 0.002126 -0.001579 0.004827
 39   -4.461648 -0.988446 -0.730555 0.002721 0.006028 -0.024036
 40   1.106382 -3.445863 3.237290 -0.001010 -0.001915 0.007881
 41   -4.398683 -1.016160 0.971285 0.000287 0.000587 -0.002384
 42   -0.637936 1.697302 -2.618299 0.017701 0.027570 -0.002635
 43   -0.664068 1.690765 2.806875 -0.020765 -0.031255 0.005395
time 26
  0   -0.967547 0.175787 -20.574476 0.000000 0.000000 -1.572114
  1   -1.093036 0.000002 -0.326057 -0.214014 -1.569082 -1.356583
  2   2.262337 0.113614 0.064702 -0.041309 -0.087487 0.348629
  3   2.380047 0.353302 0.047440 -0.099097 -0.011953 0.354015
  4   2.033756 0.190472 -0.000128 -0.135489 -0.014765 0.050431
  5   2.451511 0.204909 -0.003447 -0.367961 0.077493 0.048429
  6   7.247600 -0.397300 -0.109469 0.000001 0.000021 0.156829
  7   -2.022252 -0.104661 3.136172 0.479392 -1.239318 -3.683039
  8   1.168026 -0.537438 -0.063437 -0.721606 0.746580 -0.636336
  9   6.790376 -0.619176 0.015206 0.037014 0.045299 -1.050207
 10   8.637599 0.544015 -0.090417 -3.614626 0.247221 0.266830
 11   6.790465 -0.619039 0.017802 0.031628 0.016632 -0.750610
 12   -2.022474 -0.104699 -2.873818 -2.272876 1.443299 -5.613372
 13   1.167898 -0.537463 0.063297 -0.112966 -1.062042 -0.750601
 14   7.002743 -0.617765 -0.183752 0.019757 -0.136430 -1.725024
 15   8.209042 0.615527 -0.255885 2.235192 0.403505 0.416444
 16   7.002735 -0.617911 -0.183641 0.002245 -0.092439 -1.224387
 17   1.574674 0.609930 -0.000899 0.562241 0.005309 0.597467
 18   -0.602177 0.511412 -0.000006 0.000000 0.000000 0.000000
 19   3.646428 0.364526 1.119313 -0.000002 -0.000014 -0.174510
 20   3.646422 0.364499 -1.117566 0.000007 -0.000003 -0.174546
 21   3.805634 1.330634 1.627658 0.000002 -0.000011 -0.000026
 22   -0.246060 -0.011889 0.516521 -0.000011 0.000031 0.000025
 23   3.805651 1.330659 -1.631083 0.000019 0.000002 -0.000024
 24   -0.246150 -0.011872 -0.516511 -0.000005 -0.000006 0.000048
 25   4.941364 1.997338 1.629330 0.000018 -0.000001 -0.000024
 26   4.941382 1.997366 -1.629410 -0.000001 0.000005 -0.000024
 27   2.930087 1.603639 1.514501 -0.000019 -0.000022 -0.000050
 28   2.932517 1.603245 -1.501142 -0.000002 -0.000009 -0.000024
 29   8.824059 0.150544 0.091743 0.014266 -0.004409 -0.132796
 30   2.118898 -0.561179 1.760882 -0.000374 0.026112 0.001804
 31   2.136915 -0.561289 -1.837973 0.000061 -0.035330 0.001963
 32   -0.814395 -0.093824 3.127092 3.071965 -0.114691 1.239365
 33   14.298673 -0.408176 0.471578 0.000248 0.000063 -1.896136
 34   15.835795 0.581398 0.242756 -0.214735 0.106913 -0.097869
 35   -0.815868 -0.091229 -3.114430 0.066464 3.132818 -1.010216
 36   14.294526 -0.410349 -0.467541 0.000021 -0.000012 -2.607695
 37   15.834409 0.579420 -0.284600 -0.006092 -0.035255 0.214508
 38   1.147498 -3.453749 -2.823813 0.001431 -0.001073 0.003300
 39   -4.457742 -1.007978 -0.738367 0.001846 0.004075 -0.016267
 40   1.110288 -3.449769 3.237290 -0.000674 -0.001288 0.005315
 41   -4.410401 -1.031785 0.967379 0.000191 0.000395 -0.001599
 42   -0.645749 1.697302 -2.641737 0.011973 0.018646 -0.001798
 43   -0.664068 1.694672 2.826407 -0.014043 -0.021150 0.003639
time 27
  0   -0.967547 0.175787 -20.574476 0.000000 0.000000 -1.572114
  1   -1.093036 0.000002 -0.326057 -0.214014 -1.569082 -1.356583
  2   2.262337 0.113614 0.064702 -0.041309 -0.087487 0.348629
  3   2.380047 0.353302 0.047440 -0.099097 -0.011953 0.354015
  4   2.033756 0.190472 -0.000128 -0.135489 -0.014765 0.050431
  5   2.451511 0.204909 -0.003447 -0.367961 0.077493 0.048429
  6   7.247600 -0.397300 -0.109469 0.000001 0.000021 0.156829
  7   -2.022252 -0.104661 3.136172 0.479392 -1.239318 -3.683039
  8   1.168026 -0.537438 -0.063437 -0.721606 0.746580 -0.636336
  9   6.790376 -0.619176 0.015206 0.037014 0.045299 -1.050207
 10   8.637599 0.544015 -0.090417 -3.614626 0.247221 0.266830
 11   6.790465 -0.619039 0.017802 0.031628 0.016632 -0.750610
 12   -2.022474 -0.104699 -2.873818 -2.272876 1.443299 -5.613372
 13   1.167898 -0.537463 0.063297 -0.112966 -1.062042 -0.750601
 14   7.002743 -0.617765 -0.183752 0.019757 -0.136430 -1.725024
 15   8.209042 0.615527 -0.255885 2.235192 0.403505 0.416444
 16   7.002735 -0.617911 -0.183641 0.002245 -0.092439 -1.224387
 17   1.574674 0.609930 -0.000899 0.562241 0.005309 0.597467
 18   -0.602177 0.511412 -0.000006 0.000000 0.000000 0.000000
 19   3.646428 0.364526 1.119313 -0.000002 -0.000014 -0.174510
 20   3.646422 0.364499 -1.117566 0.000007 -0.000003 -0.174546
 21   3.805634 1.330634 1.627658 0.000002 -0.000011 -0.000026
 22   -0.246060 -0.011889 0.516521 -0.000011 0.000031 0.000025
 23   3.805651 1.330659 -1.631083 0.000019 0.000002 -0.000024
 24   -0.246150 -0.011872 -0.516511 -0.000005 -0.000006 0.000048
 25   4.941364 1.997338 1.629330 0.000018 -0.000001 -0.000024
 26   4.941382 1.997366 -1.629410 -0.000001 0.000005 -0.000024
 27   2.930087 1.603639 1.514501 -0.000019 -0.000022 -0.000050
 28   2.932517 1.603245 -1.501142 -0.000002 -0.000009 -0.000024
 29   8.824059 0.150544 0.091743 0.008473 -0.002629 -0.149802
 30   2.114991 -0.561179 1.772601 -0.000225 0.015185 0.001075
 31   2.129103 -0.561289 -1.845786 0.000031 -0.020928 0.001163
 32   -0.814395 -0.093824 3.127092 3.071965 -0.114691 1.239365
 33   14.298673 -0.408176 0.471578 0.000248 0.000063 -1.896136
 34   15.835795 0.581398 0.242756 -0.214735 0.106913 -0.097869
 35   -0.815868 -0.091229 -3.114430 0.066464 3.132818 -1.010216
 36   14.294526 -0.410349 -0.467541 0.000021 -0.000012 -2.607695
 37   15.834409 0.579420 -0.284600 -0.006092 -0.035255 0.214508
 38   1.143591 -3.453749 -2.823813 0.000842 -0.000627 0.001956
 39   -4.457742 -1.027509 -0.742274 0.001091 0.002409 -0.009648
 40   1.114195 -3.449769 3.237290 -0.000400 -0.000758 0.003116
 41   -4.422121 -1.043504 0.963472 0.000107 0.000228 -0.000954
 42   -0.649655 1.697302 -2.661269 0.007095 0.011057 -0.001046
 43   -0.664068 1.698578 2.845939 -0.008321 -0.012535 0.002133
time 28
  0   -0.967547 0.175787 -20.574476 0.000000 0.000000 -1.572114
  1   -1.093036 0.000002 -0.326057 -0.214014 -1.569082 -1.356583
  2   2.262337 0.113614 0.064702 -0.041309 -0.087487 0.348629
  3   2.380047 0.353302 0.047440 -0.099097 -0.011953 0.354015
  4   2.033756 0.190472 -0.000128 -0.135489 -0.014765 0.050431
  5   2.451511 0.204909 -0.003447 -0.367961 0.077493 0.048429
  6   7.247600 -0.397300 -0.109469 0.000001 0.000021 0.156829
  7   -2.022252 -0.104661 3.136172 0.479392 -1.239318 -3.683039
  8   1.168026 -0.537438 -0.063437 -0.721606 0.746580 -0.636336
  9   6.790376 -0.619176 0.015206 0.037014 0.045299 -1.050207
 10   8.637599 0.544015 -0.090417 -3.614626 0.247221 0.266830
 11   6.790465 -0.619039 0.017802 0.031628 0.016632 -0.750610
 12   -2.022474 -0.104699 -2.873818 -2.272876 1.443299 -5.613372
 13   1.167898 -0.537463 0.063297 -0.112966 -1.062042 -0.750601
 14   7.002743 -0.617765 -0.183752 0.019757 -0.136430 -1.725024
 15   8.209042 0.615527 -0.255885 2.235192 0.403505 0.416444
 16   7.002735 -0.617911 -0.183641 0.002245 -0.092439 -1.224387
 17   1.574674 0.609930 -0.000899 0.562241 0.005309 0.597467
 18   -0.602177 0.511412 -0.000006 0.000000 0.000000 0.000000
 19   3.646428 0.364526 1.119313 -0.000002 -0.000014 -0.174510
 20   3.646422 0.364499 -1.117566 0.000007 -0.000003 -0.174546
 21   3.805634 1.330634 1.627658 0.000002 -0.000011 -0.000026
 22   -0.246060 -0.011889 0.516521 -0.000011 0.000031 0.000025
 23   3.805651 1.330659 -1.631083 0.000019 0.000002 -0.000024
 24   -0.246150 -0.011872 -0.516511 -0.000005 -0.000006 0.000048
 25   4.941364 1.997338 1.629330 0.000018 -0.000001 -0.000024
 26   4.941382 1.997366 -1.629410 -0.000001 0.000005 -0.000024
 27   2.930087 1.603639 1.514501 -0.000019 -0.000022 -0.000050
 28   2.932517 1.603245 -1.501142 -0.000002 -0.000009 -0.000024
 29   8.824059 0.150544 0.091743 0.003927 -0.001323 -0.163000
 30   2.111085 -0.561179 1.780414 -0.000103 0.006729 0.000517
 31   2.125196 -0.561289 -1.849693 0.000015 -0.009765 0.000544
 32   -0.814395 -0.093824 3.127092 3.071965 -0.114691 1.239365
 33   14.298673 -0.408176 0.471578 0.000248 0.000063 -1.896136
 34   15.835795 0.581398 0.242756 -0.214735 0.106913 -0.097869
 35   -0.815868 -0.091229 -3.114430 0.066464 3.132818 -1.010216
 36   14.294526 -0.410349 -0.467541 0.000021 -0.000012 -2.607695
 37   15.834409 0.579420 -0.284600 -0.006092 -0.035255 0.214508
 38   1.139685 -3.453749 -2.823813 0.000400 -0.000289 0.000856
 39   -4.457742 -1.043135 -0.746180 0.000503 0.001127 -0.004487
 40   1.118101 -3.449769 3.237290 -0.000189 -0.000348 0.001466
 41   -4.429934 -1.051317 0.959566 0.000047 0.000108 -0.000449
 42   -0.657468 1.697302 -2.676895 0.003308 0.005169 -0.000460
 43   -0.664068 1.698578 2.857658 -0.003886 -0.005851 0.001004
time 29
  0   -0.967547 0.175787 -20.574476 0.000000 0.000000 -1.572114
  1   -1.093036 0.000002 -0.326057 -0.214014 -1.569082 -1.356583
  2   2.262337 0.113614 0.064702 -0.041309 -0.087487 0.348629
  3   2.380047 0.353302 0.047440 -0.099097 -0.011953 0.354015
  4   2.033756 0.190472 -0.000128 -0.135489 -0.014765 0.050431
  5   2.451511 0.204909 -0.003447 -0.367961 0.077493 0.048429
  6   7.247600 -0.397300 -0.109469 0.000001 0.000021 0.156829
  7   -2.022252 -0.104661 3.136172 0.479392 -1.239318 -3.683039
  8   1.168026 -0.537438 -0.063437 -0.721606 0.746580 -0.636336
  9   6.790376 -0.619176 0.015206 0.037014 0.045299 -1.050207
 10   8.637599 0.544015 -0.090417 -3.614626 0.247221 0.266830
 11   6.790465 -0.619039 0.017802 0.031628 0.016632 -0.750610
 12   -2.022474 -0.104699 -2.873818 -2.272876 1.443299 -5.613372
 13   1.167898 -0.537463 0.063297 -0.112966 -1.062042 -0.750601
 14   7.002743 -0.617765 -0.183752 0.019757 -0.136430 -1.725024
 15   8.209042 0.615527 -0.255885 2.235192 0.403505 0.416444
 16   7.002735 -0.617911 -0.183641 0.002245 -0.092439 -1.224387
 17   1.574674 0.609930 -0.000899 0.562241 0.005309 0.597467
 18   -0.602177 0.511412 -0.000006 0.000000 0.000000 0.000000
 19   3.646428 0.364526 1.119313 -0.000002 -0.000014 -0.174510
 20   3.646422 0.364499 -1.117566 0.000007 -0.000003 -0.174546
 21   3.805634 1.330634 1.627658 0.000002 -0.000011 -0.000026
 22   -0.246060 -0.011889 0.516521 -0.000011 0.000031 0.000025
 23   3.805651 1.330659 -1.631083 0.000019 0.000002 -0.000024
 24   -0.246150 -0.011872 -0.516511 -0.000005 -0.000006 0.000048
 25   4.941364 1.997338 1.629330 0.000018 -0.000001 -0.000024
 26   4.941382 1.997366 -1.629410 -0.000001 0.000005 -0.000024
 27   2.930087 1.603639 1.514501 -0.000019 -0.000022 -0.000050
 28   2.932517 1.603245 -1.501142 -0.000002 -0.000009 -0.000024
 29   8.824059 0.150544 0.091743 0.000986 -0.000492 -0.171530
 30   2.111085 -0.561179 1.784320 -0.000022 0.001236 0.000153
 31   2.121290 -0.561289 -1.853599 0.000000 -0.002564 0.000125
 32   -0.814395 -0.093824 3.127092 3.071965 -0.114691 1.239365
 33   14.298673 -0.408176 0.471578 0.000248 0.000063 -1.896136
 34   15.835795 0.581398 0.242756 -0.214735 0.106913 -0.097869
 35   -0.815868 -0.091229 -3.114430 0.066464 3.132818 -1.010216
 36   14.294526 -0.410349 -0.467541 0.000021 -0.000012 -2.607695
 37   15.834409 0.579420 -0.284600 -0.006092 -0.035255 0.214508
 38   1.139685 -3.453749 -2.823813 0.000084 -0.000072 0.000184
 39   -4.457742 -1.054854 -0.746180 0.000132 0.000288 -0.001178
 40   1.118101 -3.449769 3.237290 -0.000042 -0.000083 0.000367
 41   -4.433840 -1.059130 0.959566 0.000011 0.000024 -0.000112
 42   -0.657468 1.697302 -2.688614 0.000863 0.001351 -0.000125
 43   -0.664068 1.698578 2.869377 -0.001012 -0.001520 0.000251
time 30
  0   -0.967547 0.175787 -20.574476 0.000000 0.000000 -1.572114
  1   -1.093036 0.000002 -0.326057 -0.214014 -1.569082 -1.356583
  2   2.262337 0.113614 0.064702 -0.041309 -0.087487 0.348629
  3   2.380047 0.353302 0.047440 -0.099097 -0.011953 0.354015
  4   2.033756 0.190472 -0.000128 -0.135489 -0.014765 0.050431
  5   2.451511 0.204909 -0.003447 -0.367961 0.077493 0.048429
  6   7.247600 -0.397300 -0.109469 0.000001 0.000021 0.156829
  7   -2.022252 -0.104661 3.136172 0.479392 -1.239318 -3.683039
  8   1.168026 -0.537438 -0.063437 -0.721606 0.746580 -0.636336
  9   6.790376 -0.619176 0.015206 0.037014 0.045299 -1.050207
 10   8.637599 0.544015 -0.090417 -3.614626 0.247221 0.266830
 11   6.790465 -0.619039 0.017802 0.031628 0.016632 -0.750610
 12   -2.022474 -0.104699 -2.873818 -2.272876 1.443299 -5.613372
 13   1.167898 -0.537463 0.063297 -0.112966 -1.062042 -0.750601
 14   7.002743 -0.617765 -0.183752 0.019757 -0.136430 -1.725024
 15   8.209042 0.615527 -0.255885 2.235192 0.403505 0.416444
 16   7.002735 -0.617911 -0.183641 0.002245 -0.092439 -1.224387
 17   1.574674 0.609930 -0.000899 0.562241 0.005309 0.597467
 18   -0.602177 0.511412 -0.000006 0.000000 0.000000 0.000000
 19   3.646428 0.364526 1.119313 -0.000002 -0.000014 -0.174510
 20   3.646422 0.364499 -1.117566 0.000007 -0.000003 -0.174546
 21   3.805634 1.330634 1.627658 0.000002 -0.000011 -0.000026
 22   -0.246060 -0.011889 0.516521 -0.000011 0.000031 0.000025
 23   3.805651 1.330659 -1.631083 0.000019 0.000002 -0.000024
 24   -0.246150 -0.011872 -0.516511 -0.000005 -0.000006 0.000048
 25   4.941364 1.997338 1.629330 0.000018 -0.000001 -0.000024
 26   4.941382 1.997366 -1.629410 -0.000001 0.000005 -0.000024
 27   2.930087 1.603639 1.514501 -0.000019 -0.000022 -0.000050
 28   2.932517 1.603245 -1.501142 -0.000002 -0.000009 -0.000024
 29   8.824059 0.150544 0.091743 0.000006 -0.000231 -0.174534
 30   2.111085 -0.561179 1.784320 -0.000008 -0.000682 0.000024
 31   2.121290 -0.561289 -1.853599 0.000000 0.000000 -0.000002
 32   -0.814395 -0.093824 3.127092 3.071965 -0.114691 1.239365
 33   14.298673 -0.408176 0.471578 0.000248 0.000063 -1.896136
 34   15.835795 0.581398 0.242756 -0.214735 0.106913 -0.097869
 35   -0.815868 -0.091229 -3.114430 0.066464 3.132818 -1.010216
 36   14.294526 -0.410349 -0.467541 0.000021 -0.000012 -2.607695
 37   15.834409 0.579420 -0.284600 -0.006092 -0.035255 0.214508
 38   1.139685 -3.453749 -2.823813 0.000000 0.000000 0.000001
 39   -4.457742 -1.054854 -0.746180 0.000000 0.000000 0.000000
 40   1.118101 -3.449769 3.237290 0.000000 0.000001 0.000000
 41   -4.433840 -1.059130 0.959566 -0.000001 0.000000 0.000000
 42   -0.657468 1.697302 -2.688614 0.000000 0.000002 0.000000
 43   -0.664068 1.698578 2.869377 0.000000 0.000002 0.000000
end
