version 1
nodes
  0 "Bip01" -1
  1 "Bip01 Pelvis" 0
  2 "Bip01 Spine" 1
  3 "Bip01 Spine1" 2
  4 "Bip01 Spine2" 3
  5 "Bip01 Spine3" 4
  6 "Bip01 Neck" 5
  7 "Bip01 L Arm" 6
  8 "Bip01 L Arm1" 7
  9 "Bip01 L Arm2" 8
 10 "Bip01 L Hand" 9
 11 "Bip06 L elbow2-smooth" 8
 12 "Bip01 R Arm" 6
 13 "Bip01 R Arm1" 12
 14 "Bip01 R Arm2" 13
 15 "Bip01 R Hand" 14
 16 "Bip06 R elbow2-smooth" 13
 17 "Bip01 Head" 6
 18 "Bip06 Head_helper" 17
 19 "Bip06 Head_eyes_l" 18
 20 "Bip06 Head_eyes_r" 18
 21 "Bip06 Head_blink_l" 18
 22 "Bip06 Head_blink_smooth_l1" 21
 23 "Bip06 Head_blink_r" 18
 24 "Bip06 Head_blink_smooth_r1" 23
 25 "Bip06 Head_L_eyebrow" 18
 26 "Bip06 Head_R_eyebrow" 18
 27 "Bip06 Head_blink_l_lid" 18
 28 "Bip06 Head_blink_r_lid" 18
 29 "Bip06 bunny" 18
 30 "Bip06 bunnyL" 29
 31 "Bip06 bunnyR" 29
 32 "Bip01 L Leg" 1
 33 "Bip01 L Leg1" 32
 34 "Bip01 L Foot" 33
 35 "Bip01 R Leg" 1
 36 "Bip01 R Leg1" 35
 37 "Bip01 R Foot" 36
 38 "Bip03 HairR1" 17
 39 "Bip03 HairR2" 38
 40 "Bip03 HairL1" 17
 41 "Bip03 HairL2" 40
 42 "Bip03 swingR" 17
 43 "Bip03 swingL" 17
end
skeleton
time 0
  0   -0.967547 0.175787 -20.574476 0.000000 0.000000 -1.572114
  1   -1.093036 0.000002 -0.326057 -1.570756 -1.570425 -0.000171
  2   2.262337 0.113614 0.064702 -0.000052 0.000049 -0.086391
  3   2.380047 0.353302 0.047440 0.000000 -0.000040 0.008774
  4   2.033756 0.190472 -0.000128 -0.000010 0.000024 -0.139576
  5   2.451511 0.204909 -0.003447 0.000000 -0.000005 -0.017472
  6   7.247600 -0.397300 -0.109469 0.000001 0.000009 0.418441
  7   -2.022252 -0.104661 3.136172 -0.298783 -1.361862 -2.901749
  8   1.168026 -0.537438 -0.063437 -1.486793 0.682077 -1.792420
  9   6.790376 -0.619176 0.015206 -0.009367 -0.035190 -0.504048
 10   8.637599 0.544015 -0.090417 -2.460007 0.377162 -0.085921
 11   6.790465 -0.619039 0.017802 -0.009685 -0.035301 -0.367937
 12   -2.022474 -0.104699 -2.873818 0.298777 1.361712 -2.901984
 13   1.167898 -0.537463 0.063297 0.430495 -1.236626 -0.397320
 14   7.002743 -0.617765 -0.183752 0.064506 -0.555842 -1.603906
 15   8.209042 0.615527 -0.255885 1.628404 0.515178 -0.139104
 16   7.002735 -0.617911 -0.183641 -0.042948 -0.399416 -1.104839
 17   1.574674 0.609930 -0.000899 0.000000 0.000008 -0.218522
 18   -0.602177 0.511412 -0.000006 0.000000 0.000000 0.000000
 19   3.673773 0.177020 1.119313 -0.000002 -0.000014 -0.174510
 20   3.673767 0.176993 -1.117566 0.000007 -0.000003 -0.174546
 21   3.942357 1.334540 1.627658 0.000002 -0.000011 -0.000026
 22   -0.246060 -0.011889 0.516521 -0.000011 0.000031 0.000025
 23   3.942374 1.334565 -1.631083 0.000019 0.000002 -0.000024
 24   -0.246150 -0.011872 -0.516511 -0.000005 -0.000006 0.000048
 25   4.941364 1.997338 1.629330 0.000018 -0.000001 -0.000024
 26   4.941382 1.997366 -1.629410 -0.000001 0.000005 -0.000024
 27   2.914462 1.619264 1.514501 -0.000019 -0.000022 -0.000050
 28   2.916892 1.618870 -1.501142 -0.000002 -0.000009 -0.000024
 29   8.824059 0.150544 0.091743 0.000006 -0.000231 -0.174534
 30   2.111085 -0.561179 1.784320 -0.000008 -0.000682 0.000024
 31   2.121290 -0.561289 -1.853599 0.000000 0.000000 -0.000002
 32   -0.814395 -0.093824 3.127092 3.071685 -0.114787 1.239365
 33   14.298673 -0.408176 0.471578 0.000020 -0.000002 -1.896136
 34   15.835795 0.581398 0.242756 -0.214735 0.106913 -0.097869
 35   -0.815868 -0.091229 -3.114430 0.066464 3.132818 -1.010216
 36   14.294526 -0.410349 -0.467541 0.000009 -0.000024 -2.607695
 37   15.834409 0.579420 -0.284600 -0.006131 -0.035383 0.214508
 38   1.139685 -3.453749 -2.823813 0.000000 0.000000 0.000001
 39   -4.457742 -1.054854 -0.746180 0.000000 0.000000 0.000000
 40   1.118101 -3.449769 3.237290 0.000000 0.000001 0.000000
 41   -4.433840 -1.059130 0.959566 -0.000001 0.000000 0.000000
 42   -0.657468 1.697302 -2.688614 0.000000 0.000002 0.000000
 43   -0.664068 1.698578 2.869377 0.000000 0.000002 0.000000
time 1
  0   -0.967547 0.175787 -20.574476 0.000000 0.000000 -1.572114
  1   -1.093036 0.000002 -0.326057 -1.570756 -1.570425 -0.000171
  2   2.262337 0.113614 0.064702 0.019780 0.001738 -0.086355
  3   2.380047 0.353302 0.047440 0.019801 -0.000184 0.008774
  4   2.033756 0.190472 -0.000128 0.007349 0.000995 -0.139576
  5   2.451511 0.204909 -0.003447 0.017425 0.000282 -0.017472
  6   7.247600 -0.397300 -0.109469 0.000001 0.000009 0.418441
  7   -2.022252 -0.104661 3.136172 -0.298783 -1.361862 -2.901749
  8   1.168026 -0.537438 -0.063437 -1.466227 0.856265 -1.741432
  9   6.790376 -0.619176 0.015206 -0.027287 -0.053343 -0.642456
 10   8.637599 0.544015 -0.090417 -2.305366 0.357945 -0.064145
 11   6.790465 -0.619039 0.017802 -0.023524 -0.046870 -0.464830
 12   -2.022474 -0.104699 -2.873818 0.298777 1.361712 -2.901984
 13   1.167898 -0.537463 0.063297 0.430495 -1.236626 -0.397320
 14   7.002743 -0.617765 -0.183752 0.155314 -0.551413 -1.651594
 15   8.209042 0.615527 -0.255885 1.724250 0.533261 -0.140428
 16   7.002735 -0.617911 -0.183641 0.017592 -0.411991 -1.131829
 17   1.574674 0.609930 -0.000899 0.052605 -0.002004 -0.154468
 18   -0.602177 0.511412 -0.000006 0.000000 0.000000 0.000000
 19   3.673773 0.177020 1.119313 -0.000002 -0.000014 -0.174510
 20   3.673767 0.176993 -1.117566 0.000007 -0.000003 -0.174546
 21   3.942357 1.334540 1.627658 0.000002 -0.000011 -0.000026
 22   -0.246060 -0.011889 0.516521 -0.000011 0.000031 0.000025
 23   3.942374 1.334565 -1.631083 0.000019 0.000002 -0.000024
 24   -0.246150 -0.011872 -0.516511 -0.000005 -0.000006 0.000048
 25   4.941364 1.997338 1.629330 0.000018 -0.000001 -0.000024
 26   4.941382 1.997366 -1.629410 -0.000001 0.000005 -0.000024
 27   2.914462 1.619264 1.514501 -0.000019 -0.000022 -0.000050
 28   2.916892 1.618870 -1.501142 -0.000002 -0.000009 -0.000024
 29   8.824059 0.150544 0.091743 0.000006 -0.000231 -0.174534
 30   2.111085 -0.561179 1.784320 -0.000008 -0.000682 0.000024
 31   2.121290 -0.561289 -1.853599 0.000000 0.000000 -0.000002
 32   -0.814395 -0.093824 3.127092 3.071685 -0.114787 1.239365
 33   14.298673 -0.408176 0.471578 0.000020 -0.000002 -1.896136
 34   15.835795 0.581398 0.242756 -0.214735 0.106913 -0.097869
 35   -0.815868 -0.091229 -3.114430 0.066464 3.132818 -1.010216
 36   14.294526 -0.410349 -0.467541 0.000009 -0.000024 -2.607695
 37   15.834409 0.579420 -0.284600 -0.006131 -0.035383 0.214508
 38   1.139685 -3.453749 -2.823813 0.000000 0.000000 0.000001
 39   -4.457742 -1.054854 -0.746180 0.000000 0.000000 0.000000
 40   1.118101 -3.449769 3.237290 0.000000 0.000001 0.000000
 41   -4.433840 -1.059130 0.959566 -0.000001 0.000000 0.000000
 42   -0.657468 1.697302 -2.688614 0.000000 0.000002 0.000000
 43   -0.664068 1.698578 2.869377 0.000000 0.000002 0.000000
time 2
  0   -0.967547 0.175787 -20.574476 0.000000 0.000000 -1.572114
  1   -1.093036 0.000002 -0.326057 -1.570756 -1.570425 -0.000171
  2   2.262337 0.113614 0.064702 0.039689 0.003440 -0.086301
  3   2.380047 0.353302 0.047440 0.039828 -0.000328 0.008774
  4   2.033756 0.190472 -0.000128 0.014762 0.002002 -0.139576
  5   2.451511 0.204909 -0.003447 0.034850 0.000504 -0.017472
  6   7.247600 -0.397300 -0.109469 0.000001 0.000009 0.418441
  7   -2.022252 -0.104661 3.136172 -0.298783 -1.361862 -2.901749
  8   1.168026 -0.537438 -0.063437 -1.423133 1.028994 -1.669885
  9   6.790376 -0.619176 0.015206 -0.043155 -0.073966 -0.780863
 10   8.637599 0.544015 -0.090417 -2.152397 0.335491 -0.045842
 11   6.790465 -0.619039 0.017802 -0.036428 -0.059946 -0.561609
 12   -2.022474 -0.104699 -2.873818 0.298777 1.361742 -2.901984
 13   1.167898 -0.537463 0.063297 0.430495 -1.236626 -0.397320
 14   7.002743 -0.617765 -0.183752 0.245324 -0.543293 -1.698127
 15   8.209042 0.615527 -0.255885 1.821031 0.551419 -0.139766
 16   7.002735 -0.617911 -0.183641 0.078744 -0.422986 -1.159094
 17   1.574674 0.609930 -0.000899 0.105088 -0.007471 -0.090673
 18   -0.602177 0.511412 -0.000006 0.000000 0.000000 0.000000
 19   3.673773 0.177020 1.119313 -0.000002 -0.000014 -0.174510
 20   3.673767 0.176993 -1.117566 0.000007 -0.000003 -0.174546
 21   3.942357 1.334540 1.627658 0.000002 -0.000011 -0.000026
 22   -0.246060 -0.011889 0.516521 -0.000011 0.000031 0.000025
 23   3.942374 1.334565 -1.631083 0.000019 0.000002 -0.000024
 24   -0.246150 -0.011872 -0.516511 -0.000005 -0.000006 0.000048
 25   4.941364 1.997338 1.629330 0.000018 -0.000001 -0.000024
 26   4.941382 1.997366 -1.629410 -0.000001 0.000005 -0.000024
 27   2.914462 1.619264 1.514501 -0.000019 -0.000022 -0.000050
 28   2.916892 1.618870 -1.501142 -0.000002 -0.000009 -0.000024
 29   8.824059 0.150544 0.091743 0.000006 -0.000231 -0.174534
 30   2.111085 -0.561179 1.784320 -0.000008 -0.000682 0.000024
 31   2.121290 -0.561289 -1.853599 0.000000 0.000000 -0.000002
 32   -0.814395 -0.093824 3.127092 3.071685 -0.114787 1.239365
 33   14.298673 -0.408176 0.471578 0.000020 -0.000002 -1.896136
 34   15.835795 0.581398 0.242756 -0.214735 0.106913 -0.097869
 35   -0.815868 -0.091229 -3.114430 0.066464 3.132818 -1.010216
 36   14.294526 -0.410349 -0.467541 0.000009 -0.000024 -2.607695
 37   15.834409 0.579420 -0.284600 -0.006131 -0.035383 0.214508
 38   1.139685 -3.453749 -2.823813 0.000000 0.000000 0.000001
 39   -4.457742 -1.054854 -0.746180 0.000000 0.000000 0.000000
 40   1.118101 -3.449769 3.237290 0.000000 0.000001 0.000000
 41   -4.433840 -1.059130 0.959566 -0.000001 0.000000 0.000000
 42   -0.657468 1.697302 -2.688614 0.000000 0.000002 0.000000
 43   -0.664068 1.698578 2.869377 0.000000 0.000002 0.000000
time 3
  0   -0.967547 0.175787 -20.574476 0.000000 0.000000 -1.572114
  1   -1.093036 0.000002 -0.326057 -1.570756 -1.570425 -0.000171
  2   2.262337 0.113614 0.064702 0.059534 0.005082 -0.086211
  3   2.380047 0.353302 0.047440 0.059689 -0.000448 0.008774
  4   2.033756 0.190472 -0.000128 0.022140 0.003056 -0.139576
  5   2.451511 0.204909 -0.003447 0.052292 0.000883 -0.017472
  6   7.247600 -0.397300 -0.109469 0.000001 0.000009 0.418441
  7   -2.022252 -0.104661 3.136172 -0.298783 -1.361862 -2.901655
  8   1.168026 -0.537438 -0.063437 -1.327769 1.198855 -1.547286
  9   6.790376 -0.619176 0.015206 -0.055748 -0.096658 -0.918969
 10   8.637599 0.544015 -0.090417 -2.000837 0.310924 -0.031808
 11   6.790465 -0.619039 0.017802 -0.048165 -0.074329 -0.658387
 12   -2.022474 -0.104699 -2.873818 0.298777 1.361712 -2.901984
 13   1.167898 -0.537463 0.063297 0.430495 -1.236626 -0.397320
 14   7.002743 -0.617765 -0.183752 0.334196 -0.531652 -1.744000
 15   8.209042 0.615527 -0.255885 1.918819 0.569426 -0.136940
 16   7.002735 -0.617911 -0.183641 0.140649 -0.432234 -1.186911
 17   1.574674 0.609930 -0.000899 0.157164 -0.016322 -0.027174
 18   -0.602177 0.511412 -0.000006 0.000000 0.000000 0.000000
 19   3.673773 0.177020 1.119313 -0.000002 -0.000014 -0.174510
 20   3.673767 0.176993 -1.117566 0.000007 -0.000003 -0.174546
 21   3.942357 1.334540 1.627658 0.000002 -0.000011 -0.000026
 22   -0.246060 -0.011889 0.516521 -0.000011 0.000031 0.000025
 23   3.942374 1.334565 -1.631083 0.000019 0.000002 -0.000024
 24   -0.246150 -0.011872 -0.516511 -0.000005 -0.000006 0.000048
 25   4.941364 1.997338 1.629330 0.000018 -0.000001 -0.000024
 26   4.941382 1.997366 -1.629410 -0.000001 0.000005 -0.000024
 27   2.914462 1.619264 1.514501 -0.000019 -0.000022 -0.000050
 28   2.916892 1.618870 -1.501142 -0.000002 -0.000009 -0.000024
 29   8.824059 0.150544 0.091743 0.000006 -0.000231 -0.174534
 30   2.111085 -0.561179 1.784320 -0.000008 -0.000682 0.000024
 31   2.121290 -0.561289 -1.853599 0.000000 0.000000 -0.000002
 32   -0.814395 -0.093824 3.127092 3.071685 -0.114787 1.239365
 33   14.298673 -0.408176 0.471578 0.000020 -0.000002 -1.896136
 34   15.835795 0.581398 0.242756 -0.214735 0.106913 -0.097869
 35   -0.815868 -0.091229 -3.114430 0.066464 3.132818 -1.010216
 36   14.294526 -0.410349 -0.467541 0.000009 -0.000024 -2.607695
 37   15.834409 0.579420 -0.284600 -0.006131 -0.035383 0.214508
 38   1.139685 -3.453749 -2.823813 0.000000 0.000000 0.000001
 39   -4.457742 -1.054854 -0.746180 0.000000 0.000000 0.000000
 40   1.118101 -3.449769 3.237290 0.000000 0.000001 0.000000
 41   -4.433840 -1.059130 0.959566 -0.000001 0.000000 0.000000
 42   -0.657468 1.697302 -2.688614 0.000000 0.000002 0.000000
 43   -0.664068 1.698578 2.869377 0.000000 0.000002 0.000000
time 4
  0   -0.967547 0.175787 -20.574476 0.000000 0.000000 -1.572114
  1   -1.093036 0.000002 -0.326057 -1.570756 -1.570425 -0.000171
  2   2.262337 0.113614 0.064702 0.079430 0.006820 -0.086138
  3   2.380047 0.353302 0.047440 0.079670 -0.000615 0.008774
  4   2.033756 0.190472 -0.000128 0.029572 0.004123 -0.139576
  5   2.451511 0.204909 -0.003447 0.069717 0.001157 -0.017472
  6   7.247600 -0.397300 -0.109469 0.000001 0.000009 0.418441
  7   -2.022252 -0.104661 3.136172 -0.298783 -1.361862 -2.901749
  8   1.168026 -0.537438 -0.063437 -1.064143 1.357496 -1.257174
  9   6.790376 -0.619176 0.015206 -0.065346 -0.120684 -1.057150
 10   8.637599 0.544015 -0.090417 -1.851215 0.284669 -0.021824
 11   6.790465 -0.619039 0.017802 -0.058442 -0.089792 -0.754704
 12   -2.022474 -0.104699 -2.873818 0.298777 1.361742 -2.901984
 13   1.167898 -0.537463 0.063297 0.430495 -1.236626 -0.397320
 14   7.002743 -0.617765 -0.183752 0.421872 -0.516547 -1.787893
 15   8.209042 0.615527 -0.255885 2.017902 0.586979 -0.132189
 16   7.002735 -0.617911 -0.183641 0.203166 -0.439734 -1.214949
 17   1.574674 0.609930 -0.000899 0.208469 -0.028392 0.035733
 18   -0.602177 0.511412 -0.000006 0.000000 0.000000 0.000000
 19   3.673773 0.177020 1.119313 -0.000002 -0.000014 -0.174510
 20   3.673767 0.176993 -1.117566 0.000007 -0.000003 -0.174546
 21   3.942357 1.334540 1.627658 0.000002 -0.000011 -0.000026
 22   -0.246060 -0.011889 0.516521 -0.000011 0.000031 0.000025
 23   3.942374 1.334565 -1.631083 0.000019 0.000002 -0.000024
 24   -0.246150 -0.011872 -0.516511 -0.000005 -0.000006 0.000048
 25   4.941364 1.997338 1.629330 0.000018 -0.000001 -0.000024
 26   4.941382 1.997366 -1.629410 -0.000001 0.000005 -0.000024
 27   2.914462 1.619264 1.514501 -0.000019 -0.000022 -0.000050
 28   2.916892 1.618870 -1.501142 -0.000002 -0.000009 -0.000024
 29   8.824059 0.150544 0.091743 0.000006 -0.000231 -0.174534
 30   2.111085 -0.561179 1.784320 -0.000008 -0.000682 0.000024
 31   2.121290 -0.561289 -1.853599 0.000000 0.000000 -0.000002
 32   -0.814395 -0.093824 3.127092 3.071685 -0.114787 1.239365
 33   14.298673 -0.408176 0.471578 0.000020 -0.000002 -1.896136
 34   15.835795 0.581398 0.242756 -0.214735 0.106913 -0.097869
 35   -0.815868 -0.091229 -3.114430 0.066464 3.132818 -1.010216
 36   14.294526 -0.410349 -0.467541 0.000009 -0.000024 -2.607695
 37   15.834409 0.579420 -0.284600 -0.006131 -0.035383 0.214508
 38   1.139685 -3.453749 -2.823813 0.000000 0.000000 0.000001
 39   -4.457742 -1.054854 -0.746180 0.000000 0.000000 0.000000
 40   1.118101 -3.449769 3.237290 0.000000 0.000001 0.000000
 41   -4.433840 -1.059130 0.959566 -0.000001 0.000000 0.000000
 42   -0.657468 1.697302 -2.688614 0.000000 0.000002 0.000000
 43   -0.664068 1.698578 2.869377 0.000000 0.000002 0.000000
time 5
  0   -0.967547 0.175787 -20.574476 0.000000 0.000000 -1.572114
  1   -1.093036 0.000002 -0.326057 -1.570756 -1.570425 -0.000171
  2   2.262337 0.113614 0.064702 0.099262 0.008570 -0.085921
  3   2.380047 0.353302 0.047440 0.099667 -0.000843 0.008774
  4   2.033756 0.190472 -0.000128 0.036986 0.005106 -0.139576
  5   2.451511 0.204909 -0.003447 0.087159 0.001418 -0.017472
  6   7.247600 -0.397300 -0.109469 0.000001 0.000009 0.418441
  7   -2.022252 -0.104661 3.136172 -0.298783 -1.361862 -2.901749
  8   1.168026 -0.537438 -0.063437 -0.097407 1.448816 -0.264745
  9   6.790376 -0.619176 0.015206 -0.071338 -0.145845 -1.195557
 10   8.637599 0.544015 -0.090417 -1.702738 0.257076 -0.016181
 11   6.790465 -0.619039 0.017802 -0.067347 -0.106250 -0.851368
 12   -2.022474 -0.104699 -2.873818 0.298777 1.361742 -2.901984
 13   1.167898 -0.537463 0.063297 0.430495 -1.236626 -0.397320
 14   7.002743 -0.617765 -0.183752 0.507840 -0.498319 -1.829641
 15   8.209042 0.615527 -0.255885 2.118350 0.604230 -0.125092
 16   7.002735 -0.617911 -0.183641 0.266153 -0.445542 -1.242766
 17   1.574674 0.609930 -0.000899 0.259124 -0.043681 0.097939
 18   -0.602177 0.511412 -0.000006 0.000000 0.000000 0.000000
 19   3.673773 0.177020 1.119313 -0.000002 -0.000014 -0.174510
 20   3.673767 0.176993 -1.117566 0.000007 -0.000003 -0.174546
 21   3.942357 1.334540 1.627658 0.000002 -0.000011 -0.000026
 22   -0.246060 -0.011889 0.516521 -0.000011 0.000031 0.000025
 23   3.942374 1.334565 -1.631083 0.000019 0.000002 -0.000024
 24   -0.246150 -0.011872 -0.516511 -0.000005 -0.000006 0.000048
 25   4.941364 1.997338 1.629330 0.000018 -0.000001 -0.000024
 26   4.941382 1.997366 -1.629410 -0.000001 0.000005 -0.000024
 27   2.914462 1.619264 1.514501 -0.000019 -0.000022 -0.000050
 28   2.916892 1.618870 -1.501142 -0.000002 -0.000009 -0.000024
 29   8.824059 0.150544 0.091743 0.000006 -0.000231 -0.174534
 30   2.111085 -0.561179 1.784320 -0.000008 -0.000682 0.000024
 31   2.121290 -0.561289 -1.853599 0.000000 0.000000 -0.000002
 32   -0.814395 -0.093824 3.127092 3.071685 -0.114787 1.239365
 33   14.298673 -0.408176 0.471578 0.000020 -0.000002 -1.896136
 34   15.835795 0.581398 0.242756 -0.214735 0.106913 -0.097869
 35   -0.815868 -0.091229 -3.114430 0.066464 3.132818 -1.010216
 36   14.294526 -0.410349 -0.467541 0.000009 -0.000024 -2.607695
 37   15.834409 0.579420 -0.284600 -0.006131 -0.035383 0.214508
 38   1.139685 -3.453749 -2.823813 0.000000 0.000000 0.000001
 39   -4.457742 -1.054854 -0.746180 0.000000 0.000000 0.000000
 40   1.118101 -3.449769 3.237290 0.000000 0.000001 0.000000
 41   -4.433840 -1.059130 0.959566 -0.000001 0.000000 0.000000
 42   -0.657468 1.697302 -2.688614 0.000000 0.000002 0.000000
 43   -0.664068 1.698578 2.869377 0.000000 0.000002 0.000000
time 6
  0   -0.967547 0.175787 -20.574476 0.000000 0.000000 -1.572114
  1   -1.093036 0.000002 -0.326057 -1.570756 -1.570425 -0.000171
  2   2.262337 0.113614 0.064702 0.119171 0.010248 -0.085795
  3   2.380047 0.353302 0.047440 0.119558 -0.001023 0.008733
  4   2.033756 0.190472 -0.000128 0.044363 0.006172 -0.139576
  5   2.451511 0.204909 -0.003447 0.104670 0.001797 -0.017472
  6   7.247600 -0.397300 -0.109469 0.000001 0.000009 0.418441
  7   -2.022252 -0.104661 3.136172 -0.298783 -1.361862 -2.901749
  8   1.168026 -0.537438 -0.063437 0.846927 1.354326 0.705733
  9   6.790376 -0.619176 0.015206 -0.073890 -0.171807 -1.334643
 10   8.637599 0.544015 -0.090417 -1.556462 0.229060 -0.014734
 11   6.790465 -0.619039 0.017802 -0.074676 -0.123703 -0.947973
 12   -2.022474 -0.104699 -2.873818 0.298777 1.361742 -2.901984
 13   1.167898 -0.537463 0.063297 0.430495 -1.236626 -0.397320
 14   7.002743 -0.617765 -0.183752 0.591929 -0.477025 -1.869161
 15   8.209042 0.615527 -0.255885 2.220093 0.620648 -0.116072
 16   7.002735 -0.617911 -0.183641 0.329565 -0.449658 -1.270694
 17   1.574674 0.609930 -0.000899 0.308682 -0.061976 0.159368
 18   -0.602177 0.511412 -0.000006 0.000000 0.000000 0.000000
 19   3.673773 0.177020 1.119313 -0.000002 -0.000014 -0.174510
 20   3.673767 0.176993 -1.117566 0.000007 -0.000003 -0.174546
 21   3.942357 1.334540 1.627658 0.000002 -0.000011 -0.000026
 22   -0.246060 -0.011889 0.516521 -0.000011 0.000031 0.000025
 23   3.942374 1.334565 -1.631083 0.000019 0.000002 -0.000024
 24   -0.246150 -0.011872 -0.516511 -0.000005 -0.000006 0.000048
 25   4.941364 1.997338 1.629330 0.000018 -0.000001 -0.000024
 26   4.941382 1.997366 -1.629410 -0.000001 0.000005 -0.000024
 27   2.914462 1.619264 1.514501 -0.000019 -0.000022 -0.000050
 28   2.916892 1.618870 -1.501142 -0.000002 -0.000009 -0.000024
 29   8.824059 0.150544 0.091743 0.000006 -0.000231 -0.174534
 30   2.111085 -0.561179 1.784320 -0.000008 -0.000682 0.000024
 31   2.121290 -0.561289 -1.853599 0.000000 0.000000 -0.000002
 32   -0.814395 -0.093824 3.127092 3.071685 -0.114787 1.239365
 33   14.298673 -0.408176 0.471578 0.000020 -0.000002 -1.896136
 34   15.835795 0.581398 0.242756 -0.214735 0.106913 -0.097869
 35   -0.815868 -0.091229 -3.114430 0.066464 3.132818 -1.010216
 36   14.294526 -0.410349 -0.467541 0.000009 -0.000024 -2.607695
 37   15.834409 0.579420 -0.284600 -0.006131 -0.035383 0.214508
 38   1.139685 -3.453749 -2.823813 0.000000 0.000000 0.000001
 39   -4.457742 -1.054854 -0.746180 0.000000 0.000000 0.000000
 40   1.118101 -3.449769 3.237290 0.000000 0.000001 0.000000
 41   -4.433840 -1.059130 0.959566 -0.000001 0.000000 0.000000
 42   -0.657468 1.697302 -2.688614 0.000000 0.000002 0.000000
 43   -0.664068 1.698578 2.869377 0.000000 0.000002 0.000000
time 7
  0   -0.967547 0.175787 -20.574476 0.000000 0.000000 -1.572114
  1   -1.093036 0.000002 -0.326057 -1.570756 -1.570425 -0.000171
  2   2.262337 0.113614 0.064702 0.139016 0.011949 -0.085578
  3   2.380047 0.353302 0.047440 0.139509 -0.001155 0.008713
  4   2.033756 0.190472 -0.000128 0.051777 0.007239 -0.139431
  5   2.451511 0.204909 -0.003447 0.122112 0.002032 -0.017422
  6   7.247600 -0.397300 -0.109469 0.000001 0.000009 0.418441
  7   -2.022252 -0.104661 3.136172 -0.298783 -1.361862 -2.901655
  8   1.168026 -0.537438 -0.063437 1.103846 1.195182 0.989077
  9   6.790376 -0.619176 0.015206 -0.072781 -0.197636 -1.474032
 10   8.637599 0.544015 -0.090417 -1.410010 0.201045 -0.017483
 11   6.790465 -0.619039 0.017802 -0.080340 -0.141697 -1.044579
 12   -2.022474 -0.104699 -2.873818 0.298777 1.361712 -2.901984
 13   1.167898 -0.537463 0.063297 0.430495 -1.236626 -0.397320
 14   7.002743 -0.617765 -0.183752 0.674026 -0.452891 -1.906123
 15   8.209042 0.615527 -0.255885 2.323201 0.636385 -0.104586
 16   7.002735 -0.617911 -0.183641 0.393165 -0.452083 -1.298180
 17   1.574674 0.609930 -0.000899 0.357021 -0.083418 0.219615
 18   -0.602177 0.511412 -0.000006 0.000000 0.000000 0.000000
 19   3.673773 0.177020 1.119313 -0.000002 -0.000014 -0.174510
 20   3.673767 0.176993 -1.117566 0.000007 -0.000003 -0.174546
 21   3.942357 1.334540 1.627658 0.000002 -0.000011 -0.000026
 22   -0.246060 -0.011889 0.516521 -0.000011 0.000031 0.000025
 23   3.942374 1.334565 -1.631083 0.000019 0.000002 -0.000024
 24   -0.246150 -0.011872 -0.516511 -0.000005 -0.000006 0.000048
 25   4.941364 1.997338 1.629330 0.000018 -0.000001 -0.000024
 26   4.941382 1.997366 -1.629410 -0.000001 0.000005 -0.000024
 27   2.914462 1.619264 1.514501 -0.000019 -0.000022 -0.000050
 28   2.916892 1.618870 -1.501142 -0.000002 -0.000009 -0.000024
 29   8.824059 0.150544 0.091743 0.000006 -0.000231 -0.174534
 30   2.111085 -0.561179 1.784320 -0.000008 -0.000682 0.000024
 31   2.121290 -0.561289 -1.853599 0.000000 0.000000 -0.000002
 32   -0.814395 -0.093824 3.127092 3.071685 -0.114787 1.239365
 33   14.298673 -0.408176 0.471578 0.000020 -0.000002 -1.896136
 34   15.835795 0.581398 0.242756 -0.214735 0.106913 -0.097869
 35   -0.815868 -0.091229 -3.114430 0.066464 3.132818 -1.010216
 36   14.294526 -0.410349 -0.467541 0.000009 -0.000024 -2.607695
 37   15.834409 0.579420 -0.284600 -0.006131 -0.035383 0.214508
 38   1.139685 -3.453749 -2.823813 0.000000 0.000000 0.000001
 39   -4.457742 -1.054854 -0.746180 0.000000 0.000000 0.000000
 40   1.118101 -3.449769 3.237290 0.000000 0.000001 0.000000
 41   -4.433840 -1.059130 0.959566 -0.000001 0.000000 0.000000
 42   -0.657468 1.697302 -2.688614 0.000000 0.000002 0.000000
 43   -0.664068 1.698578 2.869377 0.000000 0.000002 0.000000
time 8
  0   -0.967547 0.175787 -20.574476 0.000000 0.000000 -1.572114
  1   -1.093036 0.000002 -0.326057 -1.570756 -1.570425 -0.000171
  2   2.262337 0.113614 0.064702 0.125081 0.010739 -0.085650
  3   2.380047 0.353302 0.047440 0.125588 -0.001071 0.008733
  4   2.033756 0.190472 -0.000128 0.046613 0.006508 -0.139576
  5   2.451511 0.204909 -0.003447 0.109856 0.001888 -0.017472
  6   7.247600 -0.397300 -0.109469 0.000001 0.000009 0.418441
  7   -2.022252 -0.104661 3.136172 -0.298783 -1.361862 -2.901655
  8   1.168026 -0.537438 -0.063437 0.859963 1.289622 0.757923
  9   6.790376 -0.619176 0.015206 -0.008591 -0.086847 -1.478560
 10   8.637599 0.544015 -0.090417 -1.410010 0.201045 -0.017483
 11   6.790465 -0.619039 0.017802 -0.016984 -0.072424 -1.049539
 12   -2.022474 -0.104699 -2.873818 0.298777 1.361742 -2.901984
 13   1.167898 -0.537463 0.063297 0.430495 -1.236626 -0.397320
 14   7.002743 -0.617765 -0.183752 0.674026 -0.452891 -1.906123
 15   8.209042 0.615527 -0.255885 2.375618 0.607861 -0.085041
 16   7.002735 -0.617911 -0.183641 0.393165 -0.452083 -1.298180
 17   1.574674 0.609930 -0.000899 0.357021 -0.083418 0.219615
 18   -0.602177 0.511412 -0.000006 0.000000 0.000000 0.000000
 19   3.673773 0.177020 1.119313 -0.000002 -0.000014 -0.174510
 20   3.673767 0.176993 -1.117566 0.000007 -0.000003 -0.174546
 21   3.942357 1.334540 1.627658 0.000002 -0.000011 -0.000026
 22   -0.246060 -0.011889 0.516521 -0.000011 0.000031 0.000025
 23   3.942374 1.334565 -1.631083 0.000019 0.000002 -0.000024
 24   -0.246150 -0.011872 -0.516511 -0.000005 -0.000006 0.000048
 25   4.941364 1.997338 1.629330 0.000018 -0.000001 -0.000024
 26   4.941382 1.997366 -1.629410 -0.000001 0.000005 -0.000024
 27   2.914462 1.619264 1.514501 -0.000019 -0.000022 -0.000050
 28   2.916892 1.618870 -1.501142 -0.000002 -0.000009 -0.000024
 29   8.824059 0.150544 0.091743 0.000006 -0.000231 -0.174534
 30   2.111085 -0.561179 1.784320 -0.000008 -0.000682 0.000024
 31   2.121290 -0.561289 -1.853599 0.000000 0.000000 -0.000002
 32   -0.814395 -0.093824 3.127092 3.071685 -0.114787 1.239365
 33   14.298673 -0.408176 0.471578 0.000020 -0.000002 -1.896136
 34   15.835795 0.581398 0.242756 -0.214735 0.106913 -0.097869
 35   -0.815868 -0.091229 -3.114430 0.066464 3.132818 -1.010216
 36   14.294526 -0.410349 -0.467541 0.000009 -0.000024 -2.607695
 37   15.834409 0.579420 -0.284600 -0.006131 -0.035383 0.214508
 38   1.139685 -3.453749 -2.823813 0.000000 0.000000 0.000001
 39   -4.457742 -1.054854 -0.746180 0.000000 0.000000 0.000000
 40   1.118101 -3.449769 3.237290 0.000000 0.000001 0.000000
 41   -4.433840 -1.059130 0.959566 -0.000001 0.000000 0.000000
 42   -0.657468 1.697302 -2.688614 0.000000 0.000002 0.000000
 43   -0.664068 1.698578 2.869377 0.000000 0.000002 0.000000
time 9
  0   -0.967547 0.175787 -20.574476 0.000000 0.000000 -1.572114
  1   -1.093036 0.000002 -0.326057 -1.570756 -1.570425 -0.000171
  2   2.262337 0.113614 0.064702 0.111210 0.009552 -0.085849
  3   2.380047 0.353302 0.047440 0.111577 -0.000951 0.008774
  4   2.033756 0.190472 -0.000128 0.041430 0.005789 -0.139576
  5   2.451511 0.204909 -0.003447 0.097686 0.001679 -0.017472
  6   7.247600 -0.397300 -0.109469 0.000001 0.000009 0.418441
  7   -2.022252 -0.104661 3.136172 -0.298783 -1.361862 -2.901655
  8   1.168026 -0.537438 -0.063437 0.433326 1.355131 0.343694
  9   6.790376 -0.619176 0.015206 0.055433 0.023608 -1.475768
 10   8.637599 0.544015 -0.090417 -1.410010 0.201045 -0.017483
 11   6.790465 -0.619039 0.017802 0.045847 -0.003379 -1.048673
 12   -2.022474 -0.104699 -2.873818 0.298777 1.361712 -2.901984
 13   1.167898 -0.537463 0.063297 0.430495 -1.236626 -0.397320
 14   7.002743 -0.617765 -0.183752 0.674026 -0.452891 -1.906123
 15   8.209042 0.615527 -0.255885 2.426094 0.578732 -0.067661
 16   7.002735 -0.617911 -0.183641 0.393165 -0.452083 -1.298180
 17   1.574674 0.609930 -0.000899 0.357021 -0.083418 0.219615
 18   -0.602177 0.511412 -0.000006 0.000000 0.000000 0.000000
 19   3.673773 0.177020 1.119313 -0.000002 -0.000014 -0.174510
 20   3.673767 0.176993 -1.117566 0.000007 -0.000003 -0.174546
 21   3.942357 1.334540 1.627658 0.000002 -0.000011 -0.000026
 22   -0.246060 -0.011889 0.516521 -0.000011 0.000031 0.000025
 23   3.942374 1.334565 -1.631083 0.000019 0.000002 -0.000024
 24   -0.246150 -0.011872 -0.516511 -0.000005 -0.000006 0.000048
 25   4.941364 1.997338 1.629330 0.000018 -0.000001 -0.000024
 26   4.941382 1.997366 -1.629410 -0.000001 0.000005 -0.000024
 27   2.914462 1.619264 1.514501 -0.000019 -0.000022 -0.000050
 28   2.916892 1.618870 -1.501142 -0.000002 -0.000009 -0.000024
 29   8.824059 0.150544 0.091743 0.000006 -0.000231 -0.174534
 30   2.111085 -0.561179 1.784320 -0.000008 -0.000682 0.000024
 31   2.121290 -0.561289 -1.853599 0.000000 0.000000 -0.000002
 32   -0.814395 -0.093824 3.127092 3.071685 -0.114787 1.239365
 33   14.298673 -0.408176 0.471578 0.000020 -0.000002 -1.896136
 34   15.835795 0.581398 0.242756 -0.214735 0.106913 -0.097869
 35   -0.815868 -0.091229 -3.114430 0.066464 3.132818 -1.010216
 36   14.294526 -0.410349 -0.467541 0.000009 -0.000024 -2.607695
 37   15.834409 0.579420 -0.284600 -0.006131 -0.035383 0.214508
 38   1.139685 -3.453749 -2.823813 0.000000 0.000000 0.000001
 39   -4.457742 -1.054854 -0.746180 0.000000 0.000000 0.000000
 40   1.118101 -3.449769 3.237290 0.000000 0.000001 0.000000
 41   -4.433840 -1.059130 0.959566 -0.000001 0.000000 0.000000
 42   -0.657468 1.697302 -2.688614 0.000000 0.000002 0.000000
 43   -0.664068 1.698578 2.869377 0.000000 0.000002 0.000000
time 10
  0   -0.967547 0.175787 -20.574476 0.000000 0.000000 -1.572114
  1   -1.093036 0.000002 -0.326057 -1.570756 -1.570425 -0.000171
  2   2.262337 0.113614 0.064702 0.097339 0.008342 -0.085921
  3   2.380047 0.353302 0.047440 0.097732 -0.000807 0.008774
  4   2.033756 0.190472 -0.000128 0.036230 0.005022 -0.139576
  5   2.451511 0.204909 -0.003447 0.085482 0.001392 -0.017472
  6   7.247600 -0.397300 -0.109469 0.000001 0.000009 0.418441
  7   -2.022252 -0.104661 3.136172 -0.298783 -1.361862 -2.901749
  8   1.168026 -0.537438 -0.063437 -0.154233 1.362024 -0.231533
  9   6.790376 -0.619176 0.015206 0.120233 0.134063 -1.465957
 10   8.637599 0.544015 -0.090417 -1.410010 0.201045 -0.017483
 11   6.790465 -0.619039 0.017802 0.109027 0.065694 -1.042041
 12   -2.022474 -0.104699 -2.873818 0.298777 1.361712 -2.901984
 13   1.167898 -0.537463 0.063297 0.430495 -1.236626 -0.397320
 14   7.002743 -0.617765 -0.183752 0.674026 -0.452891 -1.906123
 15   8.209042 0.615527 -0.255885 2.475420 0.548771 -0.052326
 16   7.002735 -0.617911 -0.183641 0.393165 -0.452083 -1.298180
 17   1.574674 0.609930 -0.000899 0.357021 -0.083418 0.219615
 18   -0.602177 0.511412 -0.000006 0.000000 0.000000 0.000000
 19   3.673773 0.177020 1.119313 -0.000002 -0.000014 -0.174510
 20   3.673767 0.176993 -1.117566 0.000007 -0.000003 -0.174546
 21   3.942357 1.334540 1.627658 0.000002 -0.000011 -0.000026
 22   -0.246060 -0.011889 0.516521 -0.000011 0.000031 0.000025
 23   3.942374 1.334565 -1.631083 0.000019 0.000002 -0.000024
 24   -0.246150 -0.011872 -0.516511 -0.000005 -0.000006 0.000048
 25   4.941364 1.997338 1.629330 0.000018 -0.000001 -0.000024
 26   4.941382 1.997366 -1.629410 -0.000001 0.000005 -0.000024
 27   2.914462 1.619264 1.514501 -0.000019 -0.000022 -0.000050
 28   2.916892 1.618870 -1.501142 -0.000002 -0.000009 -0.000024
 29   8.824059 0.150544 0.091743 0.000006 -0.000231 -0.174534
 30   2.111085 -0.561179 1.784320 -0.000008 -0.000682 0.000024
 31   2.121290 -0.561289 -1.853599 0.000000 0.000000 -0.000002
 32   -0.814395 -0.093824 3.127092 3.071685 -0.114787 1.239365
 33   14.298673 -0.408176 0.471578 0.000020 -0.000002 -1.896136
 34   15.835795 0.581398 0.242756 -0.214735 0.106913 -0.097869
 35   -0.815868 -0.091229 -3.114430 0.066464 3.132818 -1.010216
 36   14.294526 -0.410349 -0.467541 0.000009 -0.000024 -2.607695
 37   15.834409 0.579420 -0.284600 -0.006131 -0.035383 0.214508
 38   1.139685 -3.453749 -2.823813 0.000000 0.000000 0.000001
 39   -4.457742 -1.054854 -0.746180 0.000000 0.000000 0.000000
 40   1.118101 -3.449769 3.237290 0.000000 0.000001 0.000000
 41   -4.433840 -1.059130 0.959566 -0.000001 0.000000 0.000000
 42   -0.657468 1.697302 -2.688614 0.000000 0.000002 0.000000
 43   -0.664068 1.698578 2.869377 0.000000 0.000002 0.000000
time 11
  0   -0.967547 0.175787 -20.574476 0.000000 0.000000 -1.572114
  1   -1.093036 0.000002 -0.326057 -1.570756 -1.570425 -0.000171
  2   2.262337 0.113614 0.064702 0.083404 0.007168 -0.086084
  3   2.380047 0.353302 0.047440 0.083766 -0.000639 0.008774
  4   2.033756 0.190472 -0.000128 0.031066 0.004291 -0.139576
  5   2.451511 0.204909 -0.003447 0.073226 0.001170 -0.017472
  6   7.247600 -0.397300 -0.109469 0.000001 0.000009 0.418441
  7   -2.022252 -0.104661 3.136172 -0.298783 -1.361862 -2.901655
  8   1.168026 -0.537438 -0.063437 -0.625736 1.306125 -0.690550
  9   6.790376 -0.619176 0.015206 0.187585 0.243651 -1.448524
 10   8.637599 0.544015 -0.090417 -1.410010 0.201045 -0.017483
 11   6.790465 -0.619039 0.017802 0.173142 0.133999 -1.029641
 12   -2.022474 -0.104699 -2.873818 0.298777 1.361712 -2.901984
 13   1.167898 -0.537463 0.063297 0.430495 -1.236626 -0.397320
 14   7.002743 -0.617765 -0.183752 0.674026 -0.452891 -1.906123
 15   8.209042 0.615527 -0.255885 2.523091 0.518356 -0.038976
 16   7.002735 -0.617911 -0.183641 0.393165 -0.452083 -1.298180
 17   1.574674 0.609930 -0.000899 0.357021 -0.083418 0.219615
 18   -0.602177 0.511412 -0.000006 0.000000 0.000000 0.000000
 19   3.673773 0.177020 1.119313 -0.000002 -0.000014 -0.174510
 20   3.673767 0.176993 -1.117566 0.000007 -0.000003 -0.174546
 21   3.942357 1.334540 1.627658 0.000002 -0.000011 -0.000026
 22   -0.246060 -0.011889 0.516521 -0.000011 0.000031 0.000025
 23   3.942374 1.334565 -1.631083 0.000019 0.000002 -0.000024
 24   -0.246150 -0.011872 -0.516511 -0.000005 -0.000006 0.000048
 25   4.941364 1.997338 1.629330 0.000018 -0.000001 -0.000024
 26   4.941382 1.997366 -1.629410 -0.000001 0.000005 -0.000024
 27   2.914462 1.619264 1.514501 -0.000019 -0.000022 -0.000050
 28   2.916892 1.618870 -1.501142 -0.000002 -0.000009 -0.000024
 29   8.824059 0.150544 0.091743 0.000006 -0.000231 -0.174534
 30   2.111085 -0.561179 1.784320 -0.000008 -0.000682 0.000024
 31   2.121290 -0.561289 -1.853599 0.000000 0.000000 -0.000002
 32   -0.814395 -0.093824 3.127092 3.071685 -0.114787 1.239365
 33   14.298673 -0.408176 0.471578 0.000020 -0.000002 -1.896136
 34   15.835795 0.581398 0.242756 -0.214735 0.106913 -0.097869
 35   -0.815868 -0.091229 -3.114430 0.066464 3.132818 -1.010216
 36   14.294526 -0.410349 -0.467541 0.000009 -0.000024 -2.607695
 37   15.834409 0.579420 -0.284600 -0.006131 -0.035383 0.214508
 38   1.139685 -3.453749 -2.823813 0.000000 0.000000 0.000001
 39   -4.457742 -1.054854 -0.746180 0.000000 0.000000 0.000000
 40   1.118101 -3.449769 3.237290 0.000000 0.000001 0.000000
 41   -4.433840 -1.059130 0.959566 -0.000001 0.000000 0.000000
 42   -0.657468 1.697302 -2.688614 0.000000 0.000002 0.000000
 43   -0.664068 1.698578 2.869377 0.000000 0.000002 0.000000
time 12
  0   -0.967547 0.175787 -20.574476 0.000000 0.000000 -1.572114
  1   -1.093036 0.000002 -0.326057 -1.570756 -1.570425 -0.000171
  2   2.262337 0.113614 0.064702 0.069482 0.005957 -0.086156
  3   2.380047 0.353302 0.047440 0.069755 -0.000519 0.008774
  4   2.033756 0.190472 -0.000128 0.025865 0.003560 -0.139576
  5   2.451511 0.204909 -0.003447 0.061039 0.001026 -0.017472
  6   7.247600 -0.397300 -0.109469 0.000001 0.000009 0.418441
  7   -2.022252 -0.104661 3.136172 -0.298783 -1.361862 -2.901749
  8   1.168026 -0.537438 -0.063437 -0.899740 1.216012 -0.951942
  9   6.790376 -0.619176 0.015206 0.259154 0.351903 -1.422639
 10   8.637599 0.544015 -0.090417 -1.410010 0.201045 -0.017483
 11   6.790465 -0.619039 0.017802 0.239067 0.201310 -1.010954
 12   -2.022474 -0.104699 -2.873818 0.298777 1.361712 -2.901984
 13   1.167898 -0.537463 0.063297 0.430495 -1.236626 -0.397320
 14   7.002743 -0.617765 -0.183752 0.674026 -0.452891 -1.906123
 15   8.209042 0.615527 -0.255885 2.569613 0.487411 -0.027490
 16   7.002735 -0.617911 -0.183641 0.393165 -0.452083 -1.298180
 17   1.574674 0.609930 -0.000899 0.357021 -0.083418 0.219615
 18   -0.602177 0.511412 -0.000006 0.000000 0.000000 0.000000
 19   3.673773 0.177020 1.119313 -0.000002 -0.000014 -0.174510
 20   3.673767 0.176993 -1.117566 0.000007 -0.000003 -0.174546
 21   3.942357 1.334540 1.627658 0.000002 -0.000011 -0.000026
 22   -0.246060 -0.011889 0.516521 -0.000011 0.000031 0.000025
 23   3.942374 1.334565 -1.631083 0.000019 0.000002 -0.000024
 24   -0.246150 -0.011872 -0.516511 -0.000005 -0.000006 0.000048
 25   4.941364 1.997338 1.629330 0.000018 -0.000001 -0.000024
 26   4.941382 1.997366 -1.629410 -0.000001 0.000005 -0.000024
 27   2.914462 1.619264 1.514501 -0.000019 -0.000022 -0.000050
 28   2.916892 1.618870 -1.501142 -0.000002 -0.000009 -0.000024
 29   8.824059 0.150544 0.091743 0.000006 -0.000231 -0.174534
 30   2.111085 -0.561179 1.784320 -0.000008 -0.000682 0.000024
 31   2.121290 -0.561289 -1.853599 0.000000 0.000000 -0.000002
 32   -0.814395 -0.093824 3.127092 3.071685 -0.114787 1.239365
 33   14.298673 -0.408176 0.471578 0.000020 -0.000002 -1.896136
 34   15.835795 0.581398 0.242756 -0.214735 0.106913 -0.097869
 35   -0.815868 -0.091229 -3.114430 0.066464 3.132818 -1.010216
 36   14.294526 -0.410349 -0.467541 0.000009 -0.000024 -2.607695
 37   15.834409 0.579420 -0.284600 -0.006131 -0.035383 0.214508
 38   1.139685 -3.453749 -2.823813 0.000000 0.000000 0.000001
 39   -4.457742 -1.054854 -0.746180 0.000000 0.000000 0.000000
 40   1.118101 -3.449769 3.237290 0.000000 0.000001 0.000000
 41   -4.433840 -1.059130 0.959566 -0.000001 0.000000 0.000000
 42   -0.657468 1.697302 -2.688614 0.000000 0.000002 0.000000
 43   -0.664068 1.698578 2.869377 0.000000 0.000002 0.000000
time 13
  0   -0.967547 0.175787 -20.574476 0.000000 0.000000 -1.572114
  1   -1.093036 0.000002 -0.326057 -1.570756 -1.570425 -0.000171
  2   2.262337 0.113614 0.064702 0.055560 0.004783 -0.086301
  3   2.380047 0.353302 0.047440 0.055834 -0.000424 0.008774
  4   2.033756 0.190472 -0.000128 0.020683 0.002816 -0.139576
  5   2.451511 0.204909 -0.003447 0.048766 0.000831 -0.017472
  6   7.247600 -0.397300 -0.109469 0.000001 0.000009 0.418441
  7   -2.022252 -0.104661 3.136172 -0.298783 -1.361862 -2.901655
  8   1.168026 -0.537438 -0.063437 -1.059840 1.111107 -1.099149
  9   6.790376 -0.619176 0.015206 0.337159 0.457953 -1.387395
 10   8.637599 0.544015 -0.090417 -1.410010 0.201045 -0.017483
 11   6.790465 -0.619039 0.017802 0.307416 0.266859 -0.986327
 12   -2.022474 -0.104699 -2.873818 0.298777 1.361742 -2.901984
 13   1.167898 -0.537463 0.063297 0.430495 -1.236626 -0.397320
 14   7.002743 -0.617765 -0.183752 0.674026 -0.452891 -1.906123
 15   8.209042 0.615527 -0.255885 2.615127 0.456013 -0.018108
 16   7.002735 -0.617911 -0.183641 0.393165 -0.452083 -1.298180
 17   1.574674 0.609930 -0.000899 0.357021 -0.083418 0.219615
 18   -0.602177 0.511412 -0.000006 0.000000 0.000000 0.000000
 19   3.673773 0.177020 1.119313 -0.000002 -0.000014 -0.174510
 20   3.673767 0.176993 -1.117566 0.000007 -0.000003 -0.174546
 21   3.942357 1.334540 1.627658 0.000002 -0.000011 -0.000026
 22   -0.246060 -0.011889 0.516521 -0.000011 0.000031 0.000025
 23   3.942374 1.334565 -1.631083 0.000019 0.000002 -0.000024
 24   -0.246150 -0.011872 -0.516511 -0.000005 -0.000006 0.000048
 25   4.941364 1.997338 1.629330 0.000018 -0.000001 -0.000024
 26   4.941382 1.997366 -1.629410 -0.000001 0.000005 -0.000024
 27   2.914462 1.619264 1.514501 -0.000019 -0.000022 -0.000050
 28   2.916892 1.618870 -1.501142 -0.000002 -0.000009 -0.000024
 29   8.824059 0.150544 0.091743 0.000006 -0.000231 -0.174534
 30   2.111085 -0.561179 1.784320 -0.000008 -0.000682 0.000024
 31   2.121290 -0.561289 -1.853599 0.000000 0.000000 -0.000002
 32   -0.814395 -0.093824 3.127092 3.071685 -0.114787 1.239365
 33   14.298673 -0.408176 0.471578 0.000020 -0.000002 -1.896136
 34   15.835795 0.581398 0.242756 -0.214735 0.106913 -0.097869
 35   -0.815868 -0.091229 -3.114430 0.066464 3.132818 -1.010216
 36   14.294526 -0.410349 -0.467541 0.000009 -0.000024 -2.607695
 37   15.834409 0.579420 -0.284600 -0.006131 -0.035383 0.214508
 38   1.139685 -3.453749 -2.823813 0.000000 0.000000 0.000001
 39   -4.457742 -1.054854 -0.746180 0.000000 0.000000 0.000000
 40   1.118101 -3.449769 3.237290 0.000000 0.000001 0.000000
 41   -4.433840 -1.059130 0.959566 -0.000001 0.000000 0.000000
 42   -0.657468 1.697302 -2.688614 0.000000 0.000002 0.000000
 43   -0.664068 1.698578 2.869377 0.000000 0.000002 0.000000
time 14
  0   -0.967547 0.175787 -20.574476 0.000000 0.000000 -1.572114
  1   -1.093036 0.000002 -0.326057 -1.570756 -1.570425 -0.000171
  2   2.262337 0.113614 0.064702 0.041638 0.003572 -0.086301
  3   2.380047 0.353302 0.047440 0.041823 -0.000340 0.008774
  4   2.033756 0.190472 -0.000128 0.015519 0.002085 -0.139576
  5   2.451511 0.204909 -0.003447 0.036613 0.000543 -0.017472
  6   7.247600 -0.397300 -0.109469 0.000001 0.000009 0.418441
  7   -2.022252 -0.104661 3.136172 -0.298783 -1.361862 -2.901749
  8   1.168026 -0.537438 -0.063437 -1.162481 0.999862 -1.188600
  9   6.790376 -0.619176 0.015206 0.424428 0.560867 -1.339775
 10   8.637599 0.544015 -0.090417 -1.410010 0.201045 -0.017483
 11   6.790465 -0.619039 0.017802 0.379005 0.330276 -0.954779
 12   -2.022474 -0.104699 -2.873818 0.298777 1.361712 -2.901984
 13   1.167898 -0.537463 0.063297 0.430495 -1.236626 -0.397320
 14   7.002743 -0.617765 -0.183752 0.674026 -0.452891 -1.906123
 15   8.209042 0.615527 -0.255885 2.659419 0.424236 -0.010170
 16   7.002735 -0.617911 -0.183641 0.393165 -0.452083 -1.298180
 17   1.574674 0.609930 -0.000899 0.357021 -0.083418 0.219615
 18   -0.602177 0.511412 -0.000006 0.000000 0.000000 0.000000
 19   3.673773 0.177020 1.119313 -0.000002 -0.000014 -0.174510
 20   3.673767 0.176993 -1.117566 0.000007 -0.000003 -0.174546
 21   3.942357 1.334540 1.627658 0.000002 -0.000011 -0.000026
 22   -0.246060 -0.011889 0.516521 -0.000011 0.000031 0.000025
 23   3.942374 1.334565 -1.631083 0.000019 0.000002 -0.000024
 24   -0.246150 -0.011872 -0.516511 -0.000005 -0.000006 0.000048
 25   4.941364 1.997338 1.629330 0.000018 -0.000001 -0.000024
 26   4.941382 1.997366 -1.629410 -0.000001 0.000005 -0.000024
 27   2.914462 1.619264 1.514501 -0.000019 -0.000022 -0.000050
 28   2.916892 1.618870 -1.501142 -0.000002 -0.000009 -0.000024
 29   8.824059 0.150544 0.091743 0.000006 -0.000231 -0.174534
 30   2.111085 -0.561179 1.784320 -0.000008 -0.000682 0.000024
 31   2.121290 -0.561289 -1.853599 0.000000 0.000000 -0.000002
 32   -0.814395 -0.093824 3.127092 3.071685 -0.114787 1.239365
 33   14.298673 -0.408176 0.471578 0.000020 -0.000002 -1.896136
 34   15.835795 0.581398 0.242756 -0.214735 0.106913 -0.097869
 35   -0.815868 -0.091229 -3.114430 0.066464 3.132818 -1.010216
 36   14.294526 -0.410349 -0.467541 0.000009 -0.000024 -2.607695
 37   15.834409 0.579420 -0.284600 -0.006131 -0.035383 0.214508
 38   1.139685 -3.453749 -2.823813 0.000000 0.000000 0.000001
 39   -4.457742 -1.054854 -0.746180 0.000000 0.000000 0.000000
 40   1.118101 -3.449769 3.237290 0.000000 0.000001 0.000000
 41   -4.433840 -1.059130 0.959566 -0.000001 0.000000 0.000000
 42   -0.657468 1.697302 -2.688614 0.000000 0.000002 0.000000
 43   -0.664068 1.698578 2.869377 0.000000 0.000002 0.000000
time 15
  0   -0.967547 0.175787 -20.574476 0.000000 0.000000 -1.572114
  1   -1.093036 0.000002 -0.326057 -1.570756 -1.570425 -0.000171
  2   2.262337 0.113614 0.064702 0.027703 0.002446 -0.086355
  3   2.380047 0.353302 0.047440 0.027902 -0.000244 0.008774
  4   2.033756 0.190472 -0.000128 0.010318 0.001354 -0.139576
  5   2.451511 0.204909 -0.003447 0.024409 0.000361 -0.017472
  6   7.247600 -0.397300 -0.109469 0.000001 0.000009 0.418441
  7   -2.022252 -0.104661 3.136172 -0.298783 -1.361862 -2.901749
  8   1.168026 -0.537438 -0.063437 -1.234177 0.885195 -1.246926
  9   6.790376 -0.619176 0.015206 0.523959 0.659442 -1.278118
 10   8.637599 0.544015 -0.090417 -1.410010 0.201045 -0.017483
 11   6.790465 -0.619039 0.017802 0.454653 0.390935 -0.916425
 12   -2.022474 -0.104699 -2.873818 0.298777 1.361712 -2.901984
 13   1.167898 -0.537463 0.063297 0.430495 -1.236626 -0.397320
 14   7.002743 -0.617765 -0.183752 0.674026 -0.452891 -1.906123
 15   8.209042 0.615527 -0.255885 2.702920 0.392156 -0.003916
 16   7.002735 -0.617911 -0.183641 0.393165 -0.452083 -1.298180
 17   1.574674 0.609930 -0.000899 0.357021 -0.083418 0.219615
 18   -0.602177 0.511412 -0.000006 0.000000 0.000000 0.000000
 19   3.673773 0.177020 1.119313 -0.000002 -0.000014 -0.174510
 20   3.673767 0.176993 -1.117566 0.000007 -0.000003 -0.174546
 21   3.942357 1.334540 1.627658 0.000002 -0.000011 -0.000026
 22   -0.246060 -0.011889 0.516521 -0.000011 0.000031 0.000025
 23   3.942374 1.334565 -1.631083 0.000019 0.000002 -0.000024
 24   -0.246150 -0.011872 -0.516511 -0.000005 -0.000006 0.000048
 25   4.941364 1.997338 1.629330 0.000018 -0.000001 -0.000024
 26   4.941382 1.997366 -1.629410 -0.000001 0.000005 -0.000024
 27   2.914462 1.619264 1.514501 -0.000019 -0.000022 -0.000050
 28   2.916892 1.618870 -1.501142 -0.000002 -0.000009 -0.000024
 29   8.824059 0.150544 0.091743 0.000006 -0.000231 -0.174534
 30   2.111085 -0.561179 1.784320 -0.000008 -0.000682 0.000024
 31   2.121290 -0.561289 -1.853599 0.000000 0.000000 -0.000002
 32   -0.814395 -0.093824 3.127092 3.071685 -0.114787 1.239365
 33   14.298673 -0.408176 0.471578 0.000020 -0.000002 -1.896136
 34   15.835795 0.581398 0.242756 -0.214735 0.106913 -0.097869
 35   -0.815868 -0.091229 -3.114430 0.066464 3.132818 -1.010216
 36   14.294526 -0.410349 -0.467541 0.000009 -0.000024 -2.607695
 37   15.834409 0.579420 -0.284600 -0.006131 -0.035383 0.214508
 38   1.139685 -3.453749 -2.823813 0.000000 0.000000 0.000001
 39   -4.457742 -1.054854 -0.746180 0.000000 0.000000 0.000000
 40   1.118101 -3.449769 3.237290 0.000000 0.000001 0.000000
 41   -4.433840 -1.059130 0.959566 -0.000001 0.000000 0.000000
 42   -0.657468 1.697302 -2.688614 0.000000 0.000002 0.000000
 43   -0.664068 1.698578 2.869377 0.000000 0.000002 0.000000
time 16
  0   -0.967547 0.175787 -20.574476 0.000000 0.000000 -1.572114
  1   -1.093036 0.000002 -0.326057 -1.570756 -1.570425 -0.000171
  2   2.262337 0.113614 0.064702 0.013819 0.001175 -0.086391
  3   2.380047 0.353302 0.047440 0.013891 -0.000136 0.008774
  4   2.033756 0.190472 -0.000128 0.005154 0.000623 -0.139576
  5   2.451511 0.204909 -0.003447 0.012153 0.000178 -0.017472
  6   7.247600 -0.397300 -0.109469 0.000001 0.000009 0.418441
  7   -2.022252 -0.104661 3.136172 -0.298783 -1.361862 -2.901655
  8   1.168026 -0.537438 -0.063437 -1.288092 0.768517 -1.286527
  9   6.790376 -0.619176 0.015206 0.639966 0.752077 -1.197972
 10   8.637599 0.544015 -0.090417 -1.410010 0.201045 -0.017483
 11   6.790465 -0.619039 0.017802 0.535088 0.448098 -0.870458
 12   -2.022474 -0.104699 -2.873818 0.298777 1.361712 -2.901984
 13   1.167898 -0.537463 0.063297 0.430495 -1.236626 -0.397320
 14   7.002743 -0.617765 -0.183752 0.674026 -0.452891 -1.906123
 15   8.209042 0.615527 -0.255885 2.745703 0.360001 0.000775
 16   7.002735 -0.617911 -0.183641 0.393165 -0.452083 -1.298180
 17   1.574674 0.609930 -0.000899 0.357021 -0.083418 0.219615
 18   -0.602177 0.511412 -0.000006 0.000000 0.000000 0.000000
 19   3.673773 0.177020 1.119313 -0.000002 -0.000014 -0.174510
 20   3.673767 0.176993 -1.117566 0.000007 -0.000003 -0.174546
 21   3.942357 1.334540 1.627658 0.000002 -0.000011 -0.000026
 22   -0.246060 -0.011889 0.516521 -0.000011 0.000031 0.000025
 23   3.942374 1.334565 -1.631083 0.000019 0.000002 -0.000024
 24   -0.246150 -0.011872 -0.516511 -0.000005 -0.000006 0.000048
 25   4.941364 1.997338 1.629330 0.000018 -0.000001 -0.000024
 26   4.941382 1.997366 -1.629410 -0.000001 0.000005 -0.000024
 27   2.914462 1.619264 1.514501 -0.000019 -0.000022 -0.000050
 28   2.916892 1.618870 -1.501142 -0.000002 -0.000009 -0.000024
 29   8.824059 0.150544 0.091743 0.000006 -0.000231 -0.174534
 30   2.111085 -0.561179 1.784320 -0.000008 -0.000682 0.000024
 31   2.121290 -0.561289 -1.853599 0.000000 0.000000 -0.000002
 32   -0.814395 -0.093824 3.127092 3.071685 -0.114787 1.239365
 33   14.298673 -0.408176 0.471578 0.000020 -0.000002 -1.896136
 34   15.835795 0.581398 0.242756 -0.214735 0.106913 -0.097869
 35   -0.815868 -0.091229 -3.114430 0.066464 3.132818 -1.010216
 36   14.294526 -0.410349 -0.467541 0.000009 -0.000024 -2.607695
 37   15.834409 0.579420 -0.284600 -0.006131 -0.035383 0.214508
 38   1.139685 -3.453749 -2.823813 0.000000 0.000000 0.000001
 39   -4.457742 -1.054854 -0.746180 0.000000 0.000000 0.000000
 40   1.118101 -3.449769 3.237290 0.000000 0.000001 0.000000
 41   -4.433840 -1.059130 0.959566 -0.000001 0.000000 0.000000
 42   -0.657468 1.697302 -2.688614 0.000000 0.000002 0.000000
 43   -0.664068 1.698578 2.869377 0.000000 0.000002 0.000000
time 17
  0   -0.967547 0.175787 -20.574476 0.000000 0.000000 -1.572114
  1   -1.093036 0.000002 -0.326057 -1.570756 -1.570425 -0.000171
  2   2.262337 0.113614 0.064702 -0.000052 0.000049 -0.086391
  3   2.380047 0.353302 0.047440 0.000000 -0.000040 0.008774
  4   2.033756 0.190472 -0.000128 -0.000010 0.000024 -0.139576
  5   2.451511 0.204909 -0.003447 0.000000 -0.000005 -0.017472
  6   7.247600 -0.397300 -0.109469 0.000001 0.000009 0.418441
  7   -2.022252 -0.104661 3.136172 -0.298783 -1.361862 -2.901749
  8   1.168026 -0.537438 -0.063437 -1.331123 0.650530 -1.314741
  9   6.790376 -0.619176 0.015206 0.777722 0.836370 -1.094808
 10   8.637599 0.544015 -0.090417 -1.410010 0.201045 -0.017483
 11   6.790465 -0.619039 0.017802 0.621013 0.501111 -0.816590
 12   -2.022474 -0.104699 -2.873818 0.298777 1.361712 -2.901984
 13   1.167898 -0.537463 0.063297 0.430495 -1.236626 -0.397320
 14   7.002743 -0.617765 -0.183752 0.674026 -0.452891 -1.906123
 15   8.209042 0.615527 -0.255885 2.787550 0.327467 0.004022
 16   7.002735 -0.617911 -0.183641 0.393165 -0.452083 -1.298180
 17   1.574674 0.609930 -0.000899 0.357021 -0.083418 0.219615
 18   -0.602177 0.511412 -0.000006 0.000000 0.000000 0.000000
 19   3.673773 0.177020 1.119313 -0.000002 -0.000014 -0.174510
 20   3.673767 0.176993 -1.117566 0.000007 -0.000003 -0.174546
 21   3.942357 1.334540 1.627658 0.000002 -0.000011 -0.000026
 22   -0.246060 -0.011889 0.516521 -0.000011 0.000031 0.000025
 23   3.942374 1.334565 -1.631083 0.000019 0.000002 -0.000024
 24   -0.246150 -0.011872 -0.516511 -0.000005 -0.000006 0.000048
 25   4.941364 1.997338 1.629330 0.000018 -0.000001 -0.000024
 26   4.941382 1.997366 -1.629410 -0.000001 0.000005 -0.000024
 27   2.914462 1.619264 1.514501 -0.000019 -0.000022 -0.000050
 28   2.916892 1.618870 -1.501142 -0.000002 -0.000009 -0.000024
 29   8.824059 0.150544 0.091743 0.000006 -0.000231 -0.174534
 30   2.111085 -0.561179 1.784320 -0.000008 -0.000682 0.000024
 31   2.121290 -0.561289 -1.853599 0.000000 0.000000 -0.000002
 32   -0.814395 -0.093824 3.127092 3.071685 -0.114787 1.239365
 33   14.298673 -0.408176 0.471578 0.000020 -0.000002 -1.896136
 34   15.835795 0.581398 0.242756 -0.214735 0.106913 -0.097869
 35   -0.815868 -0.091229 -3.114430 0.066464 3.132818 -1.010216
 36   14.294526 -0.410349 -0.467541 0.000009 -0.000024 -2.607695
 37   15.834409 0.579420 -0.284600 -0.006131 -0.035383 0.214508
 38   1.139685 -3.453749 -2.823813 0.000000 0.000000 0.000001
 39   -4.457742 -1.054854 -0.746180 0.000000 0.000000 0.000000
 40   1.118101 -3.449769 3.237290 0.000000 0.000001 0.000000
 41   -4.433840 -1.059130 0.959566 -0.000001 0.000000 0.000000
 42   -0.657468 1.697302 -2.688614 0.000000 0.000002 0.000000
 43   -0.664068 1.698578 2.869377 0.000000 0.000002 0.000000
time 18
  0   -0.967547 0.175787 -20.574476 0.000000 0.000000 -1.572114
  1   -1.093036 0.000002 -0.326057 -1.570756 -1.570425 -0.000171
  2   2.262337 0.113614 0.064702 -0.000052 0.000049 -0.086391
  3   2.380047 0.353302 0.047440 0.000000 -0.000040 0.008774
  4   2.033756 0.190472 -0.000128 -0.000010 0.000024 -0.139576
  5   2.451511 0.204909 -0.003447 0.000000 -0.000005 -0.017472
  6   7.247600 -0.397300 -0.109469 0.000001 0.000009 0.418441
  7   -2.022252 -0.104661 3.136172 -0.298783 -1.361862 -2.901749
  8   1.168026 -0.537438 -0.063437 -1.355233 0.659838 -1.392741
  9   6.790376 -0.619176 0.015206 0.659495 0.665916 -1.035038
 10   8.637599 0.544015 -0.090417 -1.580680 0.233706 -0.014734
 11   6.790465 -0.619039 0.017802 0.523497 0.394090 -0.766124
 12   -2.022474 -0.104699 -2.873818 0.298777 1.361712 -2.901984
 13   1.167898 -0.537463 0.063297 0.430495 -1.236626 -0.397320
 14   7.002743 -0.617765 -0.183752 0.578038 -0.480773 -1.862643
 15   8.209042 0.615527 -0.255885 2.603335 0.367340 -0.001210
 16   7.002735 -0.617911 -0.183641 0.318973 -0.449094 -1.265947
 17   1.574674 0.609930 -0.000899 0.300476 -0.058710 0.149056
 18   -0.602177 0.511412 -0.000006 0.000000 0.000000 0.000000
 19   3.673773 0.177020 1.119313 -0.000002 -0.000014 -0.174510
 20   3.673767 0.176993 -1.117566 0.000007 -0.000003 -0.174546
 21   3.942357 1.334540 1.627658 0.000002 -0.000011 -0.000026
 22   -0.246060 -0.011889 0.516521 -0.000011 0.000031 0.000025
 23   3.942374 1.334565 -1.631083 0.000019 0.000002 -0.000024
 24   -0.246150 -0.011872 -0.516511 -0.000005 -0.000006 0.000048
 25   4.941364 1.997338 1.629330 0.000018 -0.000001 -0.000024
 26   4.941382 1.997366 -1.629410 -0.000001 0.000005 -0.000024
 27   2.914462 1.619264 1.514501 -0.000019 -0.000022 -0.000050
 28   2.916892 1.618870 -1.501142 -0.000002 -0.000009 -0.000024
 29   8.824059 0.150544 0.091743 0.000006 -0.000231 -0.174534
 30   2.111085 -0.561179 1.784320 -0.000008 -0.000682 0.000024
 31   2.121290 -0.561289 -1.853599 0.000000 0.000000 -0.000002
 32   -0.814395 -0.093824 3.127092 3.071685 -0.114787 1.239365
 33   14.298673 -0.408176 0.471578 0.000020 -0.000002 -1.896136
 34   15.835795 0.581398 0.242756 -0.214735 0.106913 -0.097869
 35   -0.815868 -0.091229 -3.114430 0.066464 3.132818 -1.010216
 36   14.294526 -0.410349 -0.467541 0.000009 -0.000024 -2.607695
 37   15.834409 0.579420 -0.284600 -0.006131 -0.035383 0.214508
 38   1.139685 -3.453749 -2.823813 0.000000 0.000000 0.000001
 39   -4.457742 -1.054854 -0.746180 0.000000 0.000000 0.000000
 40   1.118101 -3.449769 3.237290 0.000000 0.000001 0.000000
 41   -4.433840 -1.059130 0.959566 -0.000001 0.000000 0.000000
 42   -0.657468 1.697302 -2.688614 0.000000 0.000002 0.000000
 43   -0.664068 1.698578 2.869377 0.000000 0.000002 0.000000
time 19
  0   -0.967547 0.175787 -20.574476 0.000000 0.000000 -1.572114
  1   -1.093036 0.000002 -0.326057 -1.570756 -1.570425 -0.000171
  2   2.262337 0.113614 0.064702 -0.000052 0.000049 -0.086391
  3   2.380047 0.353302 0.047440 0.000000 -0.000040 0.008774
  4   2.033756 0.190472 -0.000128 -0.000010 0.000024 -0.139576
  5   2.451511 0.204909 -0.003447 0.000000 -0.000005 -0.017472
  6   7.247600 -0.397300 -0.109469 0.000001 0.000009 0.418441
  7   -2.022252 -0.104661 3.136172 -0.298783 -1.361862 -2.901749
  8   1.168026 -0.537438 -0.063437 -1.380165 0.667486 -1.471690
  9   6.790376 -0.619176 0.015206 0.542100 0.501868 -0.958815
 10   8.637599 0.544015 -0.090417 -1.752054 0.266367 -0.017845
 11   6.790465 -0.619039 0.017802 0.425018 0.292328 -0.705335
 12   -2.022474 -0.104699 -2.873818 0.298777 1.361712 -2.901984
 13   1.167898 -0.537463 0.063297 0.430495 -1.236626 -0.397320
 14   7.002743 -0.617765 -0.183752 0.479374 -0.504736 -1.816110
 15   8.209042 0.615527 -0.255885 2.415740 0.405396 -0.014380
 16   7.002735 -0.617911 -0.183641 0.245157 -0.443794 -1.233549
 17   1.574674 0.609930 -0.000899 0.242347 -0.038214 0.077278
 18   -0.602177 0.511412 -0.000006 0.000000 0.000000 0.000000
 19   3.673773 0.177020 1.119313 -0.000002 -0.000014 -0.174510
 20   3.673767 0.176993 -1.117566 0.000007 -0.000003 -0.174546
 21   3.942357 1.334540 1.627658 0.000002 -0.000011 -0.000026
 22   -0.246060 -0.011889 0.516521 -0.000011 0.000031 0.000025
 23   3.942374 1.334565 -1.631083 0.000019 0.000002 -0.000024
 24   -0.246150 -0.011872 -0.516511 -0.000005 -0.000006 0.000048
 25   4.941364 1.997338 1.629330 0.000018 -0.000001 -0.000024
 26   4.941382 1.997366 -1.629410 -0.000001 0.000005 -0.000024
 27   2.914462 1.619264 1.514501 -0.000019 -0.000022 -0.000050
 28   2.916892 1.618870 -1.501142 -0.000002 -0.000009 -0.000024
 29   8.824059 0.150544 0.091743 0.000006 -0.000231 -0.174534
 30   2.111085 -0.561179 1.784320 -0.000008 -0.000682 0.000024
 31   2.121290 -0.561289 -1.853599 0.000000 0.000000 -0.000002
 32   -0.814395 -0.093824 3.127092 3.071685 -0.114787 1.239365
 33   14.298673 -0.408176 0.471578 0.000020 -0.000002 -1.896136
 34   15.835795 0.581398 0.242756 -0.214735 0.106913 -0.097869
 35   -0.815868 -0.091229 -3.114430 0.066464 3.132818 -1.010216
 36   14.294526 -0.410349 -0.467541 0.000009 -0.000024 -2.607695
 37   15.834409 0.579420 -0.284600 -0.006131 -0.035383 0.214508
 38   1.139685 -3.453749 -2.823813 0.000000 0.000000 0.000001
 39   -4.457742 -1.054854 -0.746180 0.000000 0.000000 0.000000
 40   1.118101 -3.449769 3.237290 0.000000 0.000001 0.000000
 41   -4.433840 -1.059130 0.959566 -0.000001 0.000000 0.000000
 42   -0.657468 1.697302 -2.688614 0.000000 0.000002 0.000000
 43   -0.664068 1.698578 2.869377 0.000000 0.000002 0.000000
time 20
  0   -0.967547 0.175787 -20.574476 0.000000 0.000000 -1.572114
  1   -1.093036 0.000002 -0.326057 -1.570756 -1.570425 -0.000171
  2   2.262337 0.113614 0.064702 -0.000052 0.000049 -0.086391
  3   2.380047 0.353302 0.047440 0.000000 -0.000040 0.008774
  4   2.033756 0.190472 -0.000128 -0.000010 0.000024 -0.139576
  5   2.451511 0.204909 -0.003447 0.000000 -0.000005 -0.017472
  6   7.247600 -0.397300 -0.109469 0.000001 0.000009 0.418441
  7   -2.022252 -0.104661 3.136172 -0.298783 -1.361862 -2.901749
  8   1.168026 -0.537438 -0.063437 -1.406047 0.673724 -1.551145
  9   6.790376 -0.619176 0.015206 0.420267 0.346497 -0.868556
 10   8.637599 0.544015 -0.090417 -1.926070 0.298043 -0.026309
 11   6.790465 -0.619039 0.017802 0.323678 0.197075 -0.635144
 12   -2.022474 -0.104699 -2.873818 0.298777 1.361712 -2.901984
 13   1.167898 -0.537463 0.063297 0.430495 -1.236626 -0.397320
 14   7.002743 -0.617765 -0.183752 0.378262 -0.524554 -1.766194
 15   8.209042 0.615527 -0.255885 2.224694 0.440578 -0.035007
 16   7.002735 -0.617911 -0.183641 0.171860 -0.436181 -1.200930
 17   1.574674 0.609930 -0.000899 0.182959 -0.021931 0.004353
 18   -0.602177 0.511412 -0.000006 0.000000 0.000000 0.000000
 19   3.673773 0.177020 1.119313 -0.000002 -0.000014 -0.174510
 20   3.673767 0.176993 -1.117566 0.000007 -0.000003 -0.174546
 21   3.942357 1.334540 1.627658 0.000002 -0.000011 -0.000026
 22   -0.246060 -0.011889 0.516521 -0.000011 0.000031 0.000025
 23   3.942374 1.334565 -1.631083 0.000019 0.000002 -0.000024
 24   -0.246150 -0.011872 -0.516511 -0.000005 -0.000006 0.000048
 25   4.941364 1.997338 1.629330 0.000018 -0.000001 -0.000024
 26   4.941382 1.997366 -1.629410 -0.000001 0.000005 -0.000024
 27   2.914462 1.619264 1.514501 -0.000019 -0.000022 -0.000050
 28   2.916892 1.618870 -1.501142 -0.000002 -0.000009 -0.000024
 29   8.824059 0.150544 0.091743 0.000006 -0.000231 -0.174534
 30   2.111085 -0.561179 1.784320 -0.000008 -0.000682 0.000024
 31   2.121290 -0.561289 -1.853599 0.000000 0.000000 -0.000002
 32   -0.814395 -0.093824 3.127092 3.071685 -0.114787 1.239365
 33   14.298673 -0.408176 0.471578 0.000020 -0.000002 -1.896136
 34   15.835795 0.581398 0.242756 -0.214735 0.106913 -0.097869
 35   -0.815868 -0.091229 -3.114430 0.066464 3.132818 -1.010216
 36   14.294526 -0.410349 -0.467541 0.000009 -0.000024 -2.607695
 37   15.834409 0.579420 -0.284600 -0.006131 -0.035383 0.214508
 38   1.139685 -3.453749 -2.823813 0.000000 0.000000 0.000001
 39   -4.457742 -1.054854 -0.746180 0.000000 0.000000 0.000000
 40   1.118101 -3.449769 3.237290 0.000000 0.000001 0.000000
 41   -4.433840 -1.059130 0.959566 -0.000001 0.000000 0.000000
 42   -0.657468 1.697302 -2.688614 0.000000 0.000002 0.000000
 43   -0.664068 1.698578 2.869377 0.000000 0.000002 0.000000
time 21
  0   -0.967547 0.175787 -20.574476 0.000000 0.000000 -1.572114
  1   -1.093036 0.000002 -0.326057 -1.570756 -1.570425 -0.000171
  2   2.262337 0.113614 0.064702 -0.000052 0.000049 -0.086391
  3   2.380047 0.353302 0.047440 0.000000 -0.000040 0.008774
  4   2.033756 0.190472 -0.000128 -0.000010 0.000024 -0.139576
  5   2.451511 0.204909 -0.003447 0.000000 -0.000005 -0.017472
  6   7.247600 -0.397300 -0.109469 0.000001 0.000009 0.418441
  7   -2.022252 -0.104661 3.136172 -0.298783 -1.361862 -2.901749
  8   1.168026 -0.537438 -0.063437 -1.432562 0.678202 -1.631359
  9   6.790376 -0.619176 0.015206 0.289668 0.202539 -0.762977
 10   8.637599 0.544015 -0.090417 -2.101760 0.327677 -0.040851
 11   6.790465 -0.619039 0.017802 0.217988 0.109582 -0.555207
 12   -2.022474 -0.104699 -2.873818 0.298777 1.361712 -2.901984
 13   1.167898 -0.537463 0.063297 0.430495 -1.236626 -0.397320
 14   7.002743 -0.617765 -0.183752 0.275043 -0.539772 -1.713803
 15   8.209042 0.615527 -0.255885 2.029694 0.471371 -0.063512
 16   7.002735 -0.617911 -0.183641 0.099222 -0.426201 -1.168477
 17   1.574674 0.609930 -0.000899 0.122514 -0.010074 -0.069532
 18   -0.602177 0.511412 -0.000006 0.000000 0.000000 0.000000
 19   3.673773 0.177020 1.119313 -0.000002 -0.000014 -0.174510
 20   3.673767 0.176993 -1.117566 0.000007 -0.000003 -0.174546
 21   3.942357 1.334540 1.627658 0.000002 -0.000011 -0.000026
 22   -0.246060 -0.011889 0.516521 -0.000011 0.000031 0.000025
 23   3.942374 1.334565 -1.631083 0.000019 0.000002 -0.000024
 24   -0.246150 -0.011872 -0.516511 -0.000005 -0.000006 0.000048
 25   4.941364 1.997338 1.629330 0.000018 -0.000001 -0.000024
 26   4.941382 1.997366 -1.629410 -0.000001 0.000005 -0.000024
 27   2.914462 1.619264 1.514501 -0.000019 -0.000022 -0.000050
 28   2.916892 1.618870 -1.501142 -0.000002 -0.000009 -0.000024
 29   8.824059 0.150544 0.091743 0.000006 -0.000231 -0.174534
 30   2.111085 -0.561179 1.784320 -0.000008 -0.000682 0.000024
 31   2.121290 -0.561289 -1.853599 0.000000 0.000000 -0.000002
 32   -0.814395 -0.093824 3.127092 3.071685 -0.114787 1.239365
 33   14.298673 -0.408176 0.471578 0.000020 -0.000002 -1.896136
 34   15.835795 0.581398 0.242756 -0.214735 0.106913 -0.097869
 35   -0.815868 -0.091229 -3.114430 0.066464 3.132818 -1.010216
 36   14.294526 -0.410349 -0.467541 0.000009 -0.000024 -2.607695
 37   15.834409 0.579420 -0.284600 -0.006131 -0.035383 0.214508
 38   1.139685 -3.453749 -2.823813 0.000000 0.000000 0.000001
 39   -4.457742 -1.054854 -0.746180 0.000000 0.000000 0.000000
 40   1.118101 -3.449769 3.237290 0.000000 0.000001 0.000000
 41   -4.433840 -1.059130 0.959566 -0.000001 0.000000 0.000000
 42   -0.657468 1.697302 -2.688614 0.000000 0.000002 0.000000
 43   -0.664068 1.698578 2.869377 0.000000 0.000002 0.000000
time 22
  0   -0.967547 0.175787 -20.574476 0.000000 0.000000 -1.572114
  1   -1.093036 0.000002 -0.326057 -1.570756 -1.570425 -0.000171
  2   2.262337 0.113614 0.064702 -0.000052 0.000049 -0.086391
  3   2.380047 0.353302 0.047440 0.000000 -0.000040 0.008774
  4   2.033756 0.190472 -0.000128 -0.000010 0.000024 -0.139576
  5   2.451511 0.204909 -0.003447 0.000000 -0.000005 -0.017472
  6   7.247600 -0.397300 -0.109469 0.000001 0.000009 0.418441
  7   -2.022252 -0.104661 3.136172 -0.298783 -1.361862 -2.901749
  8   1.168026 -0.537438 -0.063437 -1.459646 0.681121 -1.711763
  9   6.790376 -0.619176 0.015206 0.147196 0.073997 -0.642003
 10   8.637599 0.544015 -0.090417 -2.279827 0.354285 -0.060745
 11   6.790465 -0.619039 0.017802 0.107071 0.031640 -0.466215
 12   -2.022474 -0.104699 -2.873818 0.298777 1.361712 -2.901984
 13   1.167898 -0.537463 0.063297 0.430495 -1.236626 -0.397320
 14   7.002743 -0.617765 -0.183752 0.170344 -0.550220 -1.659267
 15   8.209042 0.615527 -0.255885 1.830810 0.496717 -0.098512
 16   7.002735 -0.617911 -0.183641 0.027760 -0.413964 -1.136299
 17   1.574674 0.609930 -0.000899 0.061298 -0.002714 -0.143897
 18   -0.602177 0.511412 -0.000006 0.000000 0.000000 0.000000
 19   3.673773 0.177020 1.119313 -0.000002 -0.000014 -0.174510
 20   3.673767 0.176993 -1.117566 0.000007 -0.000003 -0.174546
 21   3.942357 1.334540 1.627658 0.000002 -0.000011 -0.000026
 22   -0.246060 -0.011889 0.516521 -0.000011 0.000031 0.000025
 23   3.942374 1.334565 -1.631083 0.000019 0.000002 -0.000024
 24   -0.246150 -0.011872 -0.516511 -0.000005 -0.000006 0.000048
 25   4.941364 1.997338 1.629330 0.000018 -0.000001 -0.000024
 26   4.941382 1.997366 -1.629410 -0.000001 0.000005 -0.000024
 27   2.914462 1.619264 1.514501 -0.000019 -0.000022 -0.000050
 28   2.916892 1.618870 -1.501142 -0.000002 -0.000009 -0.000024
 29   8.824059 0.150544 0.091743 0.000006 -0.000231 -0.174534
 30   2.111085 -0.561179 1.784320 -0.000008 -0.000682 0.000024
 31   2.121290 -0.561289 -1.853599 0.000000 0.000000 -0.000002
 32   -0.814395 -0.093824 3.127092 3.071685 -0.114787 1.239365
 33   14.298673 -0.408176 0.471578 0.000020 -0.000002 -1.896136
 34   15.835795 0.581398 0.242756 -0.214735 0.106913 -0.097869
 35   -0.815868 -0.091229 -3.114430 0.066464 3.132818 -1.010216
 36   14.294526 -0.410349 -0.467541 0.000009 -0.000024 -2.607695
 37   15.834409 0.579420 -0.284600 -0.006131 -0.035383 0.214508
 38   1.139685 -3.453749 -2.823813 0.000000 0.000000 0.000001
 39   -4.457742 -1.054854 -0.746180 0.000000 0.000000 0.000000
 40   1.118101 -3.449769 3.237290 0.000000 0.000001 0.000000
 41   -4.433840 -1.059130 0.959566 -0.000001 0.000000 0.000000
 42   -0.657468 1.697302 -2.688614 0.000000 0.000002 0.000000
 43   -0.664068 1.698578 2.869377 0.000000 0.000002 0.000000
time 23
  0   -0.967547 0.175787 -20.574476 0.000000 0.000000 -1.572114
  1   -1.093036 0.000002 -0.326057 -1.570756 -1.570425 -0.000171
  2   2.262337 0.113614 0.064702 -0.000052 0.000049 -0.086391
  3   2.380047 0.353302 0.047440 0.000000 -0.000040 0.008774
  4   2.033756 0.190472 -0.000128 -0.000010 0.000024 -0.139576
  5   2.451511 0.204909 -0.003447 0.000000 -0.000005 -0.017472
  6   7.247600 -0.397300 -0.109469 0.000001 0.000009 0.418441
  7   -2.022252 -0.104661 3.136172 -0.298783 -1.361862 -2.901749
  8   1.168026 -0.537438 -0.063437 -1.486793 0.682077 -1.792420
  9   6.790376 -0.619176 0.015206 -0.009367 -0.035190 -0.504048
 10   8.637599 0.544015 -0.090417 -2.460007 0.377162 -0.085921
 11   6.790465 -0.619039 0.017802 -0.009685 -0.035301 -0.367937
 12   -2.022474 -0.104699 -2.873818 0.298777 1.361712 -2.901984
 13   1.167898 -0.537463 0.063297 0.430495 -1.236626 -0.397320
 14   7.002743 -0.617765 -0.183752 0.064506 -0.555842 -1.603906
 15   8.209042 0.615527 -0.255885 1.628404 0.515178 -0.139104
 16   7.002735 -0.617911 -0.183641 -0.042948 -0.399416 -1.104839
 17   1.574674 0.609930 -0.000899 0.000000 0.000008 -0.218522
 18   -0.602177 0.511412 -0.000006 0.000000 0.000000 0.000000
 19   3.673773 0.177020 1.119313 -0.000002 -0.000014 -0.174510
 20   3.673767 0.176993 -1.117566 0.000007 -0.000003 -0.174546
 21   3.942357 1.334540 1.627658 0.000002 -0.000011 -0.000026
 22   -0.246060 -0.011889 0.516521 -0.000011 0.000031 0.000025
 23   3.942374 1.334565 -1.631083 0.000019 0.000002 -0.000024
 24   -0.246150 -0.011872 -0.516511 -0.000005 -0.000006 0.000048
 25   4.941364 1.997338 1.629330 0.000018 -0.000001 -0.000024
 26   4.941382 1.997366 -1.629410 -0.000001 0.000005 -0.000024
 27   2.914462 1.619264 1.514501 -0.000019 -0.000022 -0.000050
 28   2.916892 1.618870 -1.501142 -0.000002 -0.000009 -0.000024
 29   8.824059 0.150544 0.091743 0.000006 -0.000231 -0.174534
 30   2.111085 -0.561179 1.784320 -0.000008 -0.000682 0.000024
 31   2.121290 -0.561289 -1.853599 0.000000 0.000000 -0.000002
 32   -0.814395 -0.093824 3.127092 3.071685 -0.114787 1.239365
 33   14.298673 -0.408176 0.471578 0.000020 -0.000002 -1.896136
 34   15.835795 0.581398 0.242756 -0.214735 0.106913 -0.097869
 35   -0.815868 -0.091229 -3.114430 0.066464 3.132818 -1.010216
 36   14.294526 -0.410349 -0.467541 0.000009 -0.000024 -2.607695
 37   15.834409 0.579420 -0.284600 -0.006131 -0.035383 0.214508
 38   1.139685 -3.453749 -2.823813 0.000000 0.000000 0.000001
 39   -4.457742 -1.054854 -0.746180 0.000000 0.000000 0.000000
 40   1.118101 -3.449769 3.237290 0.000000 0.000001 0.000000
 41   -4.433840 -1.059130 0.959566 -0.000001 0.000000 0.000000
 42   -0.657468 1.697302 -2.688614 0.000000 0.000002 0.000000
 43   -0.664068 1.698578 2.869377 0.000000 0.000002 0.000000
time 24
  0   -0.967547 0.175787 -20.574476 0.000000 0.000000 -1.572114
  1   -1.093036 0.000002 -0.326057 -1.570756 -1.570425 -0.000171
  2   2.262337 0.113614 0.064702 -0.000052 0.000049 -0.086391
  3   2.380047 0.353302 0.047440 0.000000 -0.000040 0.008774
  4   2.033756 0.190472 -0.000128 -0.000010 0.000024 -0.139576
  5   2.451511 0.204909 -0.003447 0.000000 -0.000005 -0.017472
  6   7.247600 -0.397300 -0.109469 0.000001 0.000009 0.418441
  7   -2.022252 -0.104661 3.136172 -0.298783 -1.361862 -2.901749
  8   1.168026 -0.537438 -0.063437 -1.527356 0.806454 -1.820065
  9   6.790376 -0.619176 0.015206 -0.009367 -0.035190 -0.666983
 10   8.637599 0.544015 -0.090417 -2.460007 0.377162 -0.085921
 11   6.790465 -0.619039 0.017802 -0.009685 -0.035301 -0.481960
 12   -2.022474 -0.104699 -2.873818 0.298777 1.361712 -2.901984
 13   1.167898 -0.537463 0.063297 0.430495 -1.236626 -0.397320
 14   7.002743 -0.617765 -0.183752 0.064506 -0.555842 -1.603906
 15   8.209042 0.615527 -0.255885 1.628404 0.515178 -0.139104
 16   7.002735 -0.617911 -0.183641 -0.042948 -0.399416 -1.104839
 17   1.574674 0.609930 -0.000899 0.000000 0.000008 -0.218522
 18   -0.602177 0.511412 -0.000006 0.000000 0.000000 0.000000
 19   3.673773 0.177020 1.119313 -0.000002 -0.000014 -0.174510
 20   3.673767 0.176993 -1.117566 0.000007 -0.000003 -0.174546
 21   3.942357 1.334540 1.627658 0.000002 -0.000011 -0.000026
 22   -0.246060 -0.011889 0.516521 -0.000011 0.000031 0.000025
 23   3.942374 1.334565 -1.631083 0.000019 0.000002 -0.000024
 24   -0.246150 -0.011872 -0.516511 -0.000005 -0.000006 0.000048
 25   4.941364 1.997338 1.629330 0.000018 -0.000001 -0.000024
 26   4.941382 1.997366 -1.629410 -0.000001 0.000005 -0.000024
 27   2.914462 1.619264 1.514501 -0.000019 -0.000022 -0.000050
 28   2.916892 1.618870 -1.501142 -0.000002 -0.000009 -0.000024
 29   8.824059 0.150544 0.091743 0.000006 -0.000231 -0.174534
 30   2.111085 -0.561179 1.784320 -0.000008 -0.000682 0.000024
 31   2.121290 -0.561289 -1.853599 0.000000 0.000000 -0.000002
 32   -0.814395 -0.093824 3.127092 3.071685 -0.114787 1.239365
 33   14.298673 -0.408176 0.471578 0.000020 -0.000002 -1.896136
 34   15.835795 0.581398 0.242756 -0.214735 0.106913 -0.097869
 35   -0.815868 -0.091229 -3.114430 0.066464 3.132818 -1.010216
 36   14.294526 -0.410349 -0.467541 0.000009 -0.000024 -2.607695
 37   15.834409 0.579420 -0.284600 -0.006131 -0.035383 0.214508
 38   1.139685 -3.453749 -2.823813 0.000000 0.000000 0.000001
 39   -4.457742 -1.054854 -0.746180 0.000000 0.000000 0.000000
 40   1.118101 -3.449769 3.237290 0.000000 0.000001 0.000000
 41   -4.433840 -1.059130 0.959566 -0.000001 0.000000 0.000000
 42   -0.657468 1.697302 -2.688614 0.000000 0.000002 0.000000
 43   -0.664068 1.698578 2.869377 0.000000 0.000002 0.000000
time 25
  0   -0.967547 0.175787 -20.574476 0.000000 0.000000 -1.572114
  1   -1.093036 0.000002 -0.326057 -1.570756 -1.570425 -0.000171
  2   2.262337 0.113614 0.064702 -0.000052 0.000049 -0.086391
  3   2.380047 0.353302 0.047440 0.000000 -0.000040 0.008774
  4   2.033756 0.190472 -0.000128 -0.000010 0.000024 -0.139576
  5   2.451511 0.204909 -0.003447 0.000000 -0.000005 -0.017472
  6   7.247600 -0.397300 -0.109469 0.000001 0.000009 0.418441
  7   -2.022252 -0.104661 3.136172 -0.298783 -1.361862 -2.901749
  8   1.168026 -0.537438 -0.063437 -1.580132 0.929925 -1.860488
  9   6.790376 -0.619176 0.015206 -0.009367 -0.035190 -0.830143
 10   8.637599 0.544015 -0.090417 -2.460007 0.377162 -0.085921
 11   6.790465 -0.619039 0.017802 -0.009685 -0.035301 -0.596099
 12   -2.022474 -0.104699 -2.873818 0.298777 1.361712 -2.901984
 13   1.167898 -0.537463 0.063297 0.430495 -1.236626 -0.397320
 14   7.002743 -0.617765 -0.183752 0.064506 -0.555842 -1.603906
 15   8.209042 0.615527 -0.255885 1.628404 0.515178 -0.139104
 16   7.002735 -0.617911 -0.183641 -0.042948 -0.399416 -1.104839
 17   1.574674 0.609930 -0.000899 0.000000 0.000008 -0.218522
 18   -0.602177 0.511412 -0.000006 0.000000 0.000000 0.000000
 19   3.673773 0.177020 1.119313 -0.000002 -0.000014 -0.174510
 20   3.673767 0.176993 -1.117566 0.000007 -0.000003 -0.174546
 21   3.942357 1.334540 1.627658 0.000002 -0.000011 -0.000026
 22   -0.246060 -0.011889 0.516521 -0.000011 0.000031 0.000025
 23   3.942374 1.334565 -1.631083 0.000019 0.000002 -0.000024
 24   -0.246150 -0.011872 -0.516511 -0.000005 -0.000006 0.000048
 25   4.941364 1.997338 1.629330 0.000018 -0.000001 -0.000024
 26   4.941382 1.997366 -1.629410 -0.000001 0.000005 -0.000024
 27   2.914462 1.619264 1.514501 -0.000019 -0.000022 -0.000050
 28   2.916892 1.618870 -1.501142 -0.000002 -0.000009 -0.000024
 29   8.824059 0.150544 0.091743 0.000006 -0.000231 -0.174534
 30   2.111085 -0.561179 1.784320 -0.000008 -0.000682 0.000024
 31   2.121290 -0.561289 -1.853599 0.000000 0.000000 -0.000002
 32   -0.814395 -0.093824 3.127092 3.071685 -0.114787 1.239365
 33   14.298673 -0.408176 0.471578 0.000020 -0.000002 -1.896136
 34   15.835795 0.581398 0.242756 -0.214735 0.106913 -0.097869
 35   -0.815868 -0.091229 -3.114430 0.066464 3.132818 -1.010216
 36   14.294526 -0.410349 -0.467541 0.000009 -0.000024 -2.607695
 37   15.834409 0.579420 -0.284600 -0.006131 -0.035383 0.214508
 38   1.139685 -3.453749 -2.823813 0.000000 0.000000 0.000001
 39   -4.457742 -1.054854 -0.746180 0.000000 0.000000 0.000000
 40   1.118101 -3.449769 3.237290 0.000000 0.000001 0.000000
 41   -4.433840 -1.059130 0.959566 -0.000001 0.000000 0.000000
 42   -0.657468 1.697302 -2.688614 0.000000 0.000002 0.000000
 43   -0.664068 1.698578 2.869377 0.000000 0.000002 0.000000
time 26
  0   -0.967547 0.175787 -20.574476 0.000000 0.000000 -1.572114
  1   -1.093036 0.000002 -0.326057 -1.570756 -1.570425 -0.000171
  2   2.262337 0.113614 0.064702 -0.000052 0.000049 -0.086391
  3   2.380047 0.353302 0.047440 0.000000 -0.000040 0.008774
  4   2.033756 0.190472 -0.000128 -0.000010 0.000024 -0.139576
  5   2.451511 0.204909 -0.003447 0.000000 -0.000005 -0.017472
  6   7.247600 -0.397300 -0.109469 0.000001 0.000009 0.418441
  7   -2.022252 -0.104661 3.136172 -0.298783 -1.361862 -2.901749
  8   1.168026 -0.537438 -0.063437 -1.653854 1.051434 -1.922167
  9   6.790376 -0.619176 0.015206 -0.009367 -0.035190 -0.992776
 10   8.637599 0.544015 -0.090417 -2.460007 0.377162 -0.085921
 11   6.790465 -0.619039 0.017802 -0.009626 -0.035301 -0.710064
 12   -2.022474 -0.104699 -2.873818 0.298777 1.361712 -2.901984
 13   1.167898 -0.537463 0.063297 0.430495 -1.236626 -0.397320
 14   7.002743 -0.617765 -0.183752 0.064506 -0.555842 -1.603906
 15   8.209042 0.615527 -0.255885 1.628404 0.515178 -0.139104
 16   7.002735 -0.617911 -0.183641 -0.042948 -0.399416 -1.104839
 17   1.574674 0.609930 -0.000899 0.000000 0.000008 -0.218522
 18   -0.602177 0.511412 -0.000006 0.000000 0.000000 0.000000
 19   3.673773 0.177020 1.119313 -0.000002 -0.000014 -0.174510
 20   3.673767 0.176993 -1.117566 0.000007 -0.000003 -0.174546
 21   3.942357 1.334540 1.627658 0.000002 -0.000011 -0.000026
 22   -0.246060 -0.011889 0.516521 -0.000011 0.000031 0.000025
 23   3.942374 1.334565 -1.631083 0.000019 0.000002 -0.000024
 24   -0.246150 -0.011872 -0.516511 -0.000005 -0.000006 0.000048
 25   4.941364 1.997338 1.629330 0.000018 -0.000001 -0.000024
 26   4.941382 1.997366 -1.629410 -0.000001 0.000005 -0.000024
 27   2.914462 1.619264 1.514501 -0.000019 -0.000022 -0.000050
 28   2.916892 1.618870 -1.501142 -0.000002 -0.000009 -0.000024
 29   8.824059 0.150544 0.091743 0.000006 -0.000231 -0.174534
 30   2.111085 -0.561179 1.784320 -0.000008 -0.000682 0.000024
 31   2.121290 -0.561289 -1.853599 0.000000 0.000000 -0.000002
 32   -0.814395 -0.093824 3.127092 3.071685 -0.114787 1.239365
 33   14.298673 -0.408176 0.471578 0.000020 -0.000002 -1.896136
 34   15.835795 0.581398 0.242756 -0.214735 0.106913 -0.097869
 35   -0.815868 -0.091229 -3.114430 0.066464 3.132818 -1.010216
 36   14.294526 -0.410349 -0.467541 0.000009 -0.000024 -2.607695
 37   15.834409 0.579420 -0.284600 -0.006131 -0.035383 0.214508
 38   1.139685 -3.453749 -2.823813 0.000000 0.000000 0.000001
 39   -4.457742 -1.054854 -0.746180 0.000000 0.000000 0.000000
 40   1.118101 -3.449769 3.237290 0.000000 0.000001 0.000000
 41   -4.433840 -1.059130 0.959566 -0.000001 0.000000 0.000000
 42   -0.657468 1.697302 -2.688614 0.000000 0.000002 0.000000
 43   -0.664068 1.698578 2.869377 0.000000 0.000002 0.000000
time 27
  0   -0.967547 0.175787 -20.574476 0.000000 0.000000 -1.572114
  1   -1.093036 0.000002 -0.326057 -1.570756 -1.570425 -0.000171
  2   2.262337 0.113614 0.064702 -0.000052 0.000049 -0.086391
  3   2.380047 0.353302 0.047440 0.000000 -0.000040 0.008774
  4   2.033756 0.190472 -0.000128 -0.000010 0.000024 -0.139576
  5   2.451511 0.204909 -0.003447 0.000000 -0.000005 -0.017472
  6   7.247600 -0.397300 -0.109469 0.000001 0.000009 0.418441
  7   -2.022252 -0.104661 3.136172 -0.298783 -1.361862 -2.901749
  8   1.168026 -0.537438 -0.063437 -1.606520 0.978931 -1.881871
  9   6.790376 -0.619176 0.015206 -0.009367 -0.035190 -0.895045
 10   8.637599 0.544015 -0.090417 -2.460007 0.377162 -0.085921
 11   6.790465 -0.619039 0.017802 -0.009626 -0.035301 -0.641662
 12   -2.022474 -0.104699 -2.873818 0.298777 1.361712 -2.901984
 13   1.167898 -0.537463 0.063297 0.430495 -1.236626 -0.397320
 14   7.002743 -0.617765 -0.183752 0.064506 -0.555842 -1.603906
 15   8.209042 0.615527 -0.255885 1.628404 0.515178 -0.139104
 16   7.002735 -0.617911 -0.183641 -0.042948 -0.399416 -1.104839
 17   1.574674 0.609930 -0.000899 0.000000 0.000008 -0.218522
 18   -0.602177 0.511412 -0.000006 0.000000 0.000000 0.000000
 19   3.673773 0.177020 1.119313 -0.000002 -0.000014 -0.174510
 20   3.673767 0.176993 -1.117566 0.000007 -0.000003 -0.174546
 21   3.942357 1.334540 1.627658 0.000002 -0.000011 -0.000026
 22   -0.246060 -0.011889 0.516521 -0.000011 0.000031 0.000025
 23   3.942374 1.334565 -1.631083 0.000019 0.000002 -0.000024
 24   -0.246150 -0.011872 -0.516511 -0.000005 -0.000006 0.000048
 25   4.941364 1.997338 1.629330 0.000018 -0.000001 -0.000024
 26   4.941382 1.997366 -1.629410 -0.000001 0.000005 -0.000024
 27   2.914462 1.619264 1.514501 -0.000019 -0.000022 -0.000050
 28   2.916892 1.618870 -1.501142 -0.000002 -0.000009 -0.000024
 29   8.824059 0.150544 0.091743 0.000006 -0.000231 -0.174534
 30   2.111085 -0.561179 1.784320 -0.000008 -0.000682 0.000024
 31   2.121290 -0.561289 -1.853599 0.000000 0.000000 -0.000002
 32   -0.814395 -0.093824 3.127092 3.071685 -0.114787 1.239365
 33   14.298673 -0.408176 0.471578 0.000020 -0.000002 -1.896136
 34   15.835795 0.581398 0.242756 -0.214735 0.106913 -0.097869
 35   -0.815868 -0.091229 -3.114430 0.066464 3.132818 -1.010216
 36   14.294526 -0.410349 -0.467541 0.000009 -0.000024 -2.607695
 37   15.834409 0.579420 -0.284600 -0.006131 -0.035383 0.214508
 38   1.139685 -3.453749 -2.823813 0.000000 0.000000 0.000001
 39   -4.457742 -1.054854 -0.746180 0.000000 0.000000 0.000000
 40   1.118101 -3.449769 3.237290 0.000000 0.000001 0.000000
 41   -4.433840 -1.059130 0.959566 -0.000001 0.000000 0.000000
 42   -0.657468 1.697302 -2.688614 0.000000 0.000002 0.000000
 43   -0.664068 1.698578 2.869377 0.000000 0.000002 0.000000
time 28
  0   -0.967547 0.175787 -20.574476 0.000000 0.000000 -1.572114
  1   -1.093036 0.000002 -0.326057 -1.570756 -1.570425 -0.000171
  2   2.262337 0.113614 0.064702 -0.000052 0.000049 -0.086391
  3   2.380047 0.353302 0.047440 0.000000 -0.000040 0.008774
  4   2.033756 0.190472 -0.000128 -0.000010 0.000024 -0.139576
  5   2.451511 0.204909 -0.003447 0.000000 -0.000005 -0.017472
  6   7.247600 -0.397300 -0.109469 0.000001 0.000009 0.418441
  7   -2.022252 -0.104661 3.136172 -0.298783 -1.361862 -2.901749
  8   1.168026 -0.537438 -0.063437 -1.568362 0.905522 -1.850999
  9   6.790376 -0.619176 0.015206 -0.009367 -0.035190 -0.797315
 10   8.637599 0.544015 -0.090417 -2.460007 0.377162 -0.085921
 11   6.790465 -0.619039 0.017802 -0.009685 -0.035301 -0.573259
 12   -2.022474 -0.104699 -2.873818 0.298777 1.361712 -2.901984
 13   1.167898 -0.537463 0.063297 0.430495 -1.236626 -0.397320
 14   7.002743 -0.617765 -0.183752 0.064506 -0.555842 -1.603906
 15   8.209042 0.615527 -0.255885 1.628404 0.515178 -0.139104
 16   7.002735 -0.617911 -0.183641 -0.042948 -0.399416 -1.104839
 17   1.574674 0.609930 -0.000899 0.000000 0.000008 -0.218522
 18   -0.602177 0.511412 -0.000006 0.000000 0.000000 0.000000
 19   3.673773 0.177020 1.119313 -0.000002 -0.000014 -0.174510
 20   3.673767 0.176993 -1.117566 0.000007 -0.000003 -0.174546
 21   3.942357 1.334540 1.627658 0.000002 -0.000011 -0.000026
 22   -0.246060 -0.011889 0.516521 -0.000011 0.000031 0.000025
 23   3.942374 1.334565 -1.631083 0.000019 0.000002 -0.000024
 24   -0.246150 -0.011872 -0.516511 -0.000005 -0.000006 0.000048
 25   4.941364 1.997338 1.629330 0.000018 -0.000001 -0.000024
 26   4.941382 1.997366 -1.629410 -0.000001 0.000005 -0.000024
 27   2.914462 1.619264 1.514501 -0.000019 -0.000022 -0.000050
 28   2.916892 1.618870 -1.501142 -0.000002 -0.000009 -0.000024
 29   8.824059 0.150544 0.091743 0.000006 -0.000231 -0.174534
 30   2.111085 -0.561179 1.784320 -0.000008 -0.000682 0.000024
 31   2.121290 -0.561289 -1.853599 0.000000 0.000000 -0.000002
 32   -0.814395 -0.093824 3.127092 3.071685 -0.114787 1.239365
 33   14.298673 -0.408176 0.471578 0.000020 -0.000002 -1.896136
 34   15.835795 0.581398 0.242756 -0.214735 0.106913 -0.097869
 35   -0.815868 -0.091229 -3.114430 0.066464 3.132818 -1.010216
 36   14.294526 -0.410349 -0.467541 0.000009 -0.000024 -2.607695
 37   15.834409 0.579420 -0.284600 -0.006131 -0.035383 0.214508
 38   1.139685 -3.453749 -2.823813 0.000000 0.000000 0.000001
 39   -4.457742 -1.054854 -0.746180 0.000000 0.000000 0.000000
 40   1.118101 -3.449769 3.237290 0.000000 0.000001 0.000000
 41   -4.433840 -1.059130 0.959566 -0.000001 0.000000 0.000000
 42   -0.657468 1.697302 -2.688614 0.000000 0.000002 0.000000
 43   -0.664068 1.698578 2.869377 0.000000 0.000002 0.000000
time 29
  0   -0.967547 0.175787 -20.574476 0.000000 0.000000 -1.572114
  1   -1.093036 0.000002 -0.326057 -1.570756 -1.570425 -0.000171
  2   2.262337 0.113614 0.064702 -0.000052 0.000049 -0.086391
  3   2.380047 0.353302 0.047440 0.000000 -0.000040 0.008774
  4   2.033756 0.190472 -0.000128 -0.000010 0.000024 -0.139576
  5   2.451511 0.204909 -0.003447 0.000000 -0.000005 -0.017472
  6   7.247600 -0.397300 -0.109469 0.000001 0.000009 0.418441
  7   -2.022252 -0.104661 3.136172 -0.298783 -1.361862 -2.901749
  8   1.168026 -0.537438 -0.063437 -1.536848 0.831460 -1.826897
  9   6.790376 -0.619176 0.015206 -0.009367 -0.035190 -0.699660
 10   8.637599 0.544015 -0.090417 -2.460007 0.377162 -0.085921
 11   6.790465 -0.619039 0.017802 -0.009685 -0.035301 -0.504857
 12   -2.022474 -0.104699 -2.873818 0.298777 1.361712 -2.901984
 13   1.167898 -0.537463 0.063297 0.430495 -1.236626 -0.397320
 14   7.002743 -0.617765 -0.183752 0.064506 -0.555842 -1.603906
 15   8.209042 0.615527 -0.255885 1.628404 0.515178 -0.139104
 16   7.002735 -0.617911 -0.183641 -0.042948 -0.399416 -1.104839
 17   1.574674 0.609930 -0.000899 0.000000 0.000008 -0.218522
 18   -0.602177 0.511412 -0.000006 0.000000 0.000000 0.000000
 19   3.673773 0.177020 1.119313 -0.000002 -0.000014 -0.174510
 20   3.673767 0.176993 -1.117566 0.000007 -0.000003 -0.174546
 21   3.942357 1.334540 1.627658 0.000002 -0.000011 -0.000026
 22   -0.246060 -0.011889 0.516521 -0.000011 0.000031 0.000025
 23   3.942374 1.334565 -1.631083 0.000019 0.000002 -0.000024
 24   -0.246150 -0.011872 -0.516511 -0.000005 -0.000006 0.000048
 25   4.941364 1.997338 1.629330 0.000018 -0.000001 -0.000024
 26   4.941382 1.997366 -1.629410 -0.000001 0.000005 -0.000024
 27   2.914462 1.619264 1.514501 -0.000019 -0.000022 -0.000050
 28   2.916892 1.618870 -1.501142 -0.000002 -0.000009 -0.000024
 29   8.824059 0.150544 0.091743 0.000006 -0.000231 -0.174534
 30   2.111085 -0.561179 1.784320 -0.000008 -0.000682 0.000024
 31   2.121290 -0.561289 -1.853599 0.000000 0.000000 -0.000002
 32   -0.814395 -0.093824 3.127092 3.071685 -0.114787 1.239365
 33   14.298673 -0.408176 0.471578 0.000020 -0.000002 -1.896136
 34   15.835795 0.581398 0.242756 -0.214735 0.106913 -0.097869
 35   -0.815868 -0.091229 -3.114430 0.066464 3.132818 -1.010216
 36   14.294526 -0.410349 -0.467541 0.000009 -0.000024 -2.607695
 37   15.834409 0.579420 -0.284600 -0.006131 -0.035383 0.214508
 38   1.139685 -3.453749 -2.823813 0.000000 0.000000 0.000001
 39   -4.457742 -1.054854 -0.746180 0.000000 0.000000 0.000000
 40   1.118101 -3.449769 3.237290 0.000000 0.000001 0.000000
 41   -4.433840 -1.059130 0.959566 -0.000001 0.000000 0.000000
 42   -0.657468 1.697302 -2.688614 0.000000 0.000002 0.000000
 43   -0.664068 1.698578 2.869377 0.000000 0.000002 0.000000
time 30
  0   -0.967547 0.175787 -20.574476 0.000000 0.000000 -1.572114
  1   -1.093036 0.000002 -0.326057 -1.570756 -1.570425 -0.000171
  2   2.262337 0.113614 0.064702 -0.000052 0.000049 -0.086391
  3   2.380047 0.353302 0.047440 0.000000 -0.000040 0.008774
  4   2.033756 0.190472 -0.000128 -0.000010 0.000024 -0.139576
  5   2.451511 0.204909 -0.003447 0.000000 -0.000005 -0.017472
  6   7.247600 -0.397300 -0.109469 0.000001 0.000009 0.418441
  7   -2.022252 -0.104661 3.136172 -0.298783 -1.361862 -2.901749
  8   1.168026 -0.537438 -0.063437 -1.510017 0.756844 -1.807729
  9   6.790376 -0.619176 0.015206 -0.009367 -0.035190 -0.601930
 10   8.637599 0.544015 -0.090417 -2.460007 0.377162 -0.085921
 11   6.790465 -0.619039 0.017802 -0.009685 -0.035301 -0.436570
 12   -2.022474 -0.104699 -2.873818 0.298777 1.361712 -2.901984
 13   1.167898 -0.537463 0.063297 0.430495 -1.236626 -0.397320
 14   7.002743 -0.617765 -0.183752 0.064506 -0.555842 -1.603906
 15   8.209042 0.615527 -0.255885 1.628404 0.515178 -0.139104
 16   7.002735 -0.617911 -0.183641 -0.042948 -0.399416 -1.104839
 17   1.574674 0.609930 -0.000899 0.000000 0.000008 -0.218522
 18   -0.602177 0.511412 -0.000006 0.000000 0.000000 0.000000
 19   3.673773 0.177020 1.119313 -0.000002 -0.000014 -0.174510
 20   3.673767 0.176993 -1.117566 0.000007 -0.000003 -0.174546
 21   3.942357 1.334540 1.627658 0.000002 -0.000011 -0.000026
 22   -0.246060 -0.011889 0.516521 -0.000011 0.000031 0.000025
 23   3.942374 1.334565 -1.631083 0.000019 0.000002 -0.000024
 24   -0.246150 -0.011872 -0.516511 -0.000005 -0.000006 0.000048
 25   4.941364 1.997338 1.629330 0.000018 -0.000001 -0.000024
 26   4.941382 1.997366 -1.629410 -0.000001 0.000005 -0.000024
 27   2.914462 1.619264 1.514501 -0.000019 -0.000022 -0.000050
 28   2.916892 1.618870 -1.501142 -0.000002 -0.000009 -0.000024
 29   8.824059 0.150544 0.091743 0.000006 -0.000231 -0.174534
 30   2.111085 -0.561179 1.784320 -0.000008 -0.000682 0.000024
 31   2.121290 -0.561289 -1.853599 0.000000 0.000000 -0.000002
 32   -0.814395 -0.093824 3.127092 3.071685 -0.114787 1.239365
 33   14.298673 -0.408176 0.471578 0.000020 -0.000002 -1.896136
 34   15.835795 0.581398 0.242756 -0.214735 0.106913 -0.097869
 35   -0.815868 -0.091229 -3.114430 0.066464 3.132818 -1.010216
 36   14.294526 -0.410349 -0.467541 0.000009 -0.000024 -2.607695
 37   15.834409 0.579420 -0.284600 -0.006131 -0.035383 0.214508
 38   1.139685 -3.453749 -2.823813 0.000000 0.000000 0.000001
 39   -4.457742 -1.054854 -0.746180 0.000000 0.000000 0.000000
 40   1.118101 -3.449769 3.237290 0.000000 0.000001 0.000000
 41   -4.433840 -1.059130 0.959566 -0.000001 0.000000 0.000000
 42   -0.657468 1.697302 -2.688614 0.000000 0.000002 0.000000
 43   -0.664068 1.698578 2.869377 0.000000 0.000002 0.000000
time 31
  0   -0.967547 0.175787 -20.574476 0.000000 0.000000 -1.572114
  1   -1.093036 0.000002 -0.326057 -1.570756 -1.570425 -0.000171
  2   2.262337 0.113614 0.064702 -0.000052 0.000049 -0.086391
  3   2.380047 0.353302 0.047440 0.000000 -0.000040 0.008774
  4   2.033756 0.190472 -0.000128 -0.000010 0.000024 -0.139576
  5   2.451511 0.204909 -0.003447 0.000000 -0.000005 -0.017472
  6   7.247600 -0.397300 -0.109469 0.000001 0.000009 0.418441
  7   -2.022252 -0.104661 3.136172 -0.298783 -1.361862 -2.901749
  8   1.168026 -0.537438 -0.063437 -1.486793 0.682077 -1.792420
  9   6.790376 -0.619176 0.015206 -0.009367 -0.035190 -0.504048
 10   8.637599 0.544015 -0.090417 -2.460007 0.377162 -0.085921
 11   6.790465 -0.619039 0.017802 -0.009685 -0.035301 -0.367937
 12   -2.022474 -0.104699 -2.873818 0.298777 1.361712 -2.901984
 13   1.167898 -0.537463 0.063297 0.430495 -1.236626 -0.397320
 14   7.002743 -0.617765 -0.183752 0.064506 -0.555842 -1.603906
 15   8.209042 0.615527 -0.255885 1.628404 0.515178 -0.139104
 16   7.002735 -0.617911 -0.183641 -0.042948 -0.399416 -1.104839
 17   1.574674 0.609930 -0.000899 0.000000 0.000008 -0.218522
 18   -0.602177 0.511412 -0.000006 0.000000 0.000000 0.000000
 19   3.673773 0.177020 1.119313 -0.000002 -0.000014 -0.174510
 20   3.673767 0.176993 -1.117566 0.000007 -0.000003 -0.174546
 21   3.942357 1.334540 1.627658 0.000002 -0.000011 -0.000026
 22   -0.246060 -0.011889 0.516521 -0.000011 0.000031 0.000025
 23   3.942374 1.334565 -1.631083 0.000019 0.000002 -0.000024
 24   -0.246150 -0.011872 -0.516511 -0.000005 -0.000006 0.000048
 25   4.941364 1.997338 1.629330 0.000018 -0.000001 -0.000024
 26   4.941382 1.997366 -1.629410 -0.000001 0.000005 -0.000024
 27   2.914462 1.619264 1.514501 -0.000019 -0.000022 -0.000050
 28   2.916892 1.618870 -1.501142 -0.000002 -0.000009 -0.000024
 29   8.824059 0.150544 0.091743 0.000006 -0.000231 -0.174534
 30   2.111085 -0.561179 1.784320 -0.000008 -0.000682 0.000024
 31   2.121290 -0.561289 -1.853599 0.000000 0.000000 -0.000002
 32   -0.814395 -0.093824 3.127092 3.071685 -0.114787 1.239365
 33   14.298673 -0.408176 0.471578 0.000020 -0.000002 -1.896136
 34   15.835795 0.581398 0.242756 -0.214735 0.106913 -0.097869
 35   -0.815868 -0.091229 -3.114430 0.066464 3.132818 -1.010216
 36   14.294526 -0.410349 -0.467541 0.000009 -0.000024 -2.607695
 37   15.834409 0.579420 -0.284600 -0.006131 -0.035383 0.214508
 38   1.139685 -3.453749 -2.823813 0.000000 0.000000 0.000001
 39   -4.457742 -1.054854 -0.746180 0.000000 0.000000 0.000000
 40   1.118101 -3.449769 3.237290 0.000000 0.000001 0.000000
 41   -4.433840 -1.059130 0.959566 -0.000001 0.000000 0.000000
 42   -0.657468 1.697302 -2.688614 0.000000 0.000002 0.000000
 43   -0.664068 1.698578 2.869377 0.000000 0.000002 0.000000
end
