version 1
nodes
  0 "Bip01" -1
  1 "Bip01 Pelvis" 0
  2 "Bip01 Spine" 1
  3 "Bip01 Spine1" 2
  4 "Bip01 Spine2" 3
  5 "Bip01 Spine3" 4
  6 "Bip01 Neck" 5
  7 "Bip01 L Arm" 6
  8 "Bip01 L Arm1" 7
  9 "Bip01 L Arm2" 8
 10 "Bip01 L Hand" 9
 11 "Bip06 L elbow2-smooth" 8
 12 "Bip01 R Arm" 6
 13 "Bip01 R Arm1" 12
 14 "Bip01 R Arm2" 13
 15 "Bip01 R Hand" 14
 16 "Bip06 R elbow2-smooth" 13
 17 "Bip01 Head" 6
 18 "Bip06 Head_helper" 17
 19 "Bip06 Head_eyes_l" 18
 20 "Bip06 Head_eyes_r" 18
 21 "Bip06 Head_blink_l" 18
 22 "Bip06 Head_blink_smooth_l1" 21
 23 "Bip06 Head_blink_r" 18
 24 "Bip06 Head_blink_smooth_r1" 23
 25 "Bip06 Head_L_eyebrow" 18
 26 "Bip06 Head_R_eyebrow" 18
 27 "Bip06 Head_blink_l_lid" 18
 28 "Bip06 Head_blink_r_lid" 18
 29 "Bip06 bunny" 18
 30 "Bip06 bunnyL" 29
 31 "Bip06 bunnyR" 29
 32 "Bip01 L Leg" 1
 33 "Bip01 L Leg1" 32
 34 "Bip01 L Foot" 33
 35 "Bip01 R Leg" 1
 36 "Bip01 R Leg1" 35
 37 "Bip01 R Foot" 36
 38 "Bip03 HairR1" 17
 39 "Bip03 HairR2" 38
 40 "Bip03 HairL1" 17
 41 "Bip03 HairL2" 40
 42 "Bip03 swingR" 17
 43 "Bip03 swingL" 17
end
skeleton
time 0
  0   -0.967547 0.175787 -20.574476 0.000000 0.000000 -1.572114
  1   -1.093036 0.000002 -0.326057 -0.214014 -1.569082 -1.356583
  2   2.262337 0.113614 0.064702 -0.193904 -0.082717 0.042400
  3   2.380047 0.353302 0.047440 -0.182832 0.028268 0.208708
  4   2.033756 0.190472 -0.000128 -0.347911 0.013926 -0.094195
  5   2.451511 0.204909 -0.003447 -0.240372 0.166584 -0.028567
  6   7.247600 -0.397300 -0.109469 0.000001 0.000021 0.156829
  7   -2.022252 -0.104661 3.136172 1.473151 -1.231650 -4.670100
  8   1.168026 -0.537438 -0.063437 -0.290413 0.858831 -0.877105
  9   6.790376 -0.619176 0.015206 0.022644 0.097890 -1.620665
 10   8.637599 0.544015 -0.090417 -1.856499 -0.323504 0.001688
 11   6.790465 -0.619039 0.017802 0.036329 0.054665 -1.148970
 12   -2.022474 -0.104699 -2.873818 -2.729876 1.524450 -5.860575
 13   1.167898 -0.537463 0.063297 0.533268 -0.778986 -0.797092
 14   7.002743 -0.617765 -0.183752 0.029607 -0.147787 -1.882444
 15   8.209042 0.615527 -0.255885 2.247559 0.176072 -0.229611
 16   7.002735 -0.617911 -0.183641 0.004222 -0.102702 -1.333779
 17   1.574674 0.609930 -0.000899 0.909188 -0.241347 0.092764
 18   -0.602177 0.511412 -0.000006 0.000000 0.000000 0.000000
 19   3.673773 0.177020 1.119313 -0.000002 -0.000014 -0.174510
 20   3.673767 0.176993 -1.117566 0.000007 -0.000003 -0.174546
 21   3.942357 1.334540 1.627658 0.000002 -0.000011 -0.000026
 22   -0.246060 -0.011889 0.516521 -0.000011 0.000031 0.000025
 23   3.942374 1.334565 -1.631083 0.000019 0.000002 -0.000024
 24   -0.246150 -0.011872 -0.516511 -0.000005 -0.000006 0.000048
 25   4.941364 1.997338 1.629330 0.000018 -0.000001 -0.000024
 26   4.941382 1.997366 -1.629410 -0.000001 0.000005 -0.000024
 27   2.914462 1.619264 1.514501 -0.000019 -0.000022 -0.000050
 28   2.916892 1.618870 -1.501142 -0.000002 -0.000009 -0.000024
 29   8.824059 0.150544 0.091743 0.000006 -0.000231 -0.174534
 30   2.111085 -0.561179 1.784320 -0.000008 -0.000682 0.000024
 31   2.121290 -0.561289 -1.853599 0.000000 0.000000 -0.000002
 32   -0.814395 -0.093824 3.127092 3.071965 -0.114691 1.239365
 33   14.298673 -0.408176 0.471578 0.000248 0.000063 -1.896136
 34   15.835795 0.581398 0.242756 -0.214735 0.106913 -0.097869
 35   -0.815868 -0.091229 -3.114430 0.066464 3.132818 -1.010216
 36   14.294526 -0.410349 -0.467541 0.000021 -0.000012 -2.607695
 37   15.834409 0.579420 -0.284600 -0.006092 -0.035255 0.214508
 38   1.139685 -3.453749 -2.823813 0.000000 0.000000 0.000001
 39   -4.457742 -1.054854 -0.746180 0.000000 0.000000 0.000000
 40   1.118101 -3.449769 3.237290 0.000000 0.000001 0.000000
 41   -4.433840 -1.059130 0.959566 -0.000001 0.000000 0.000000
 42   -0.657468 1.697302 -2.688614 0.000000 0.000002 0.000000
 43   -0.664068 1.698578 2.869377 0.000000 0.000002 0.000000
time 1
  0   -0.967547 0.175787 -20.574476 0.000000 0.000000 -1.572114
  1   -1.093036 0.000002 -0.326057 -0.214014 -1.569082 -1.356583
  2   2.262337 0.113614 0.064702 -0.214475 -0.043611 0.075000
  3   2.380047 0.353302 0.047440 -0.185322 0.037124 0.211544
  4   2.033756 0.190472 -0.000128 -0.298116 0.023574 -0.075564
  5   2.451511 0.204909 -0.003447 -0.285133 0.214994 -0.053704
  6   7.247600 -0.397300 -0.109469 0.000001 0.000021 0.156829
  7   -2.022252 -0.104661 3.136172 2.117125 -1.138451 -5.277645
  8   1.168026 -0.537438 -0.063437 -0.817666 0.615108 -1.478585
  9   6.790376 -0.619176 0.015206 0.033962 0.071261 -1.321210
 10   8.637599 0.544015 -0.090417 -1.576189 -0.367709 0.041984
 11   6.790465 -0.619039 0.017802 0.035774 0.034483 -0.940014
 12   -2.022474 -0.104699 -2.873818 -0.551989 1.531561 -3.715975
 13   1.167898 -0.537463 0.063297 0.772205 -0.668682 -0.642123
 14   7.002743 -0.617765 -0.183752 0.022547 -0.140065 -1.772217
 15   8.209042 0.615527 -0.255885 2.524170 0.125380 -0.608175
 16   7.002735 -0.617911 -0.183641 0.002716 -0.095541 -1.257227
 17   1.574674 0.609930 -0.000899 1.179564 -0.231146 -0.142714
 18   -0.602177 0.511412 -0.000006 0.000000 0.000000 0.000000
 19   3.673773 0.177020 1.119313 -0.000002 -0.000014 -0.174510
 20   3.673767 0.176993 -1.117566 0.000007 -0.000003 -0.174546
 21   3.942357 1.334540 1.627658 0.000002 -0.000011 -0.000026
 22   -0.246060 -0.011889 0.516521 -0.000011 0.000031 0.000025
 23   3.942374 1.334565 -1.631083 0.000019 0.000002 -0.000024
 24   -0.246150 -0.011872 -0.516511 -0.000005 -0.000006 0.000048
 25   4.941364 1.997338 1.629330 0.000018 -0.000001 -0.000024
 26   4.941382 1.997366 -1.629410 -0.000001 0.000005 -0.000024
 27   2.914462 1.619264 1.514501 -0.000019 -0.000022 -0.000050
 28   2.916892 1.618870 -1.501142 -0.000002 -0.000009 -0.000024
 29   8.824059 0.150544 0.091743 0.000006 -0.000231 -0.174534
 30   2.111085 -0.561179 1.784320 -0.000008 -0.000682 0.000024
 31   2.121290 -0.561289 -1.853599 0.000000 0.000000 -0.000002
 32   -0.814395 -0.093824 3.127092 3.071965 -0.114691 1.239365
 33   14.298673 -0.408176 0.471578 0.000248 0.000063 -1.896136
 34   15.835795 0.581398 0.242756 -0.214735 0.106913 -0.097869
 35   -0.815868 -0.091229 -3.114430 0.066464 3.132818 -1.010216
 36   14.294526 -0.410349 -0.467541 0.000021 -0.000012 -2.607695
 37   15.834409 0.579420 -0.284600 -0.006092 -0.035255 0.214508
 38   1.139685 -3.453749 -2.823813 0.000000 0.000000 0.000001
 39   -4.457742 -1.054854 -0.746180 0.000000 0.000000 0.000000
 40   1.118101 -3.449769 3.237290 0.000000 0.000001 0.000000
 41   -4.433840 -1.059130 0.959566 -0.000001 0.000000 0.000000
 42   -0.657468 1.697302 -2.688614 0.000000 0.000002 0.000000
 43   -0.664068 1.698578 2.869377 0.000000 0.000002 0.000000
time 2
  0   -0.967547 0.175787 -20.574476 0.000000 0.000000 -1.572114
  1   -1.093036 0.000002 -0.326057 -0.214014 -1.569082 -1.356583
  2   2.262337 0.113614 0.064702 -0.225048 -0.006087 0.096974
  3   2.380047 0.353302 0.047440 -0.185967 0.047179 0.209728
  4   2.033756 0.190472 -0.000128 -0.254075 0.034384 -0.066720
  5   2.451511 0.204909 -0.003447 -0.311801 0.257738 -0.076810
  6   7.247600 -0.397300 -0.109469 0.000001 0.000021 0.156829
  7   -2.022252 -0.104661 3.136172 2.346130 -1.025247 -5.486985
  8   1.168026 -0.537438 -0.063437 -1.020606 0.311713 -1.655145
  9   6.790376 -0.619176 0.015206 0.036792 0.041895 -1.015039
 10   8.637599 0.544015 -0.090417 -1.364481 -0.306118 0.068245
 11   6.790465 -0.619039 0.017802 0.030869 0.014386 -0.725982
 12   -2.022474 -0.104699 -2.873818 -0.364112 1.469159 -3.553215
 13   1.167898 -0.537463 0.063297 1.104917 -0.549581 -0.804114
 14   7.002743 -0.617765 -0.183752 0.007574 -0.114625 -1.462162
 15   8.209042 0.615527 -0.255885 2.728374 0.084751 -0.864481
 16   7.002735 -0.617911 -0.183641 0.001492 -0.075015 -1.041312
 17   1.574674 0.609930 -0.000899 1.331000 -0.218863 -0.311737
 18   -0.602177 0.511412 -0.000006 0.000000 0.000000 0.000000
 19   3.673773 0.177020 1.119313 -0.000002 -0.000014 -0.174510
 20   3.673767 0.176993 -1.117566 0.000007 -0.000003 -0.174546
 21   3.942357 1.334540 1.627658 0.000002 -0.000011 -0.000026
 22   -0.246060 -0.011889 0.516521 -0.000011 0.000031 0.000025
 23   3.942374 1.334565 -1.631083 0.000019 0.000002 -0.000024
 24   -0.246150 -0.011872 -0.516511 -0.000005 -0.000006 0.000048
 25   4.941364 1.997338 1.629330 0.000018 -0.000001 -0.000024
 26   4.941382 1.997366 -1.629410 -0.000001 0.000005 -0.000024
 27   2.914462 1.619264 1.514501 -0.000019 -0.000022 -0.000050
 28   2.916892 1.618870 -1.501142 -0.000002 -0.000009 -0.000024
 29   8.824059 0.150544 0.091743 0.000006 -0.000231 -0.174534
 30   2.111085 -0.561179 1.784320 -0.000008 -0.000682 0.000024
 31   2.121290 -0.561289 -1.853599 0.000000 0.000000 -0.000002
 32   -0.814395 -0.093824 3.127092 3.071965 -0.114691 1.239365
 33   14.298673 -0.408176 0.471578 0.000248 0.000063 -1.896136
 34   15.835795 0.581398 0.242756 -0.214735 0.106913 -0.097869
 35   -0.815868 -0.091229 -3.114430 0.066464 3.132818 -1.010216
 36   14.294526 -0.410349 -0.467541 0.000021 -0.000012 -2.607695
 37   15.834409 0.579420 -0.284600 -0.006092 -0.035255 0.214508
 38   1.139685 -3.453749 -2.823813 0.000000 0.000000 0.000001
 39   -4.457742 -1.054854 -0.746180 0.000000 0.000000 0.000000
 40   1.118101 -3.449769 3.237290 0.000000 0.000001 0.000000
 41   -4.433840 -1.059130 0.959566 -0.000001 0.000000 0.000000
 42   -0.657468 1.697302 -2.688614 0.000000 0.000002 0.000000
 43   -0.664068 1.698578 2.869377 0.000000 0.000002 0.000000
time 3
  0   -0.967547 0.175787 -20.574476 0.000000 0.000000 -1.572114
  1   -1.093036 0.000002 -0.326057 -0.214014 -1.569082 -1.356583
  2   2.262337 0.113614 0.064702 -0.174492 0.023239 0.060471
  3   2.380047 0.353302 0.047440 -0.176802 0.063191 0.182650
  4   2.033756 0.190472 -0.000128 -0.233253 0.053847 -0.088939
  5   2.451511 0.204909 -0.003447 -0.293537 0.296187 -0.095780
  6   7.247600 -0.397300 -0.109469 0.000001 0.000021 0.156829
  7   -2.022252 -0.104661 3.136172 2.343062 -1.039862 -5.488769
  8   1.168026 -0.537438 -0.063437 -1.025352 0.452140 -1.643948
  9   6.790376 -0.619176 0.015206 0.030689 0.012863 -0.708339
 10   8.637599 0.544015 -0.090417 -1.340527 -0.238261 -0.050038
 11   6.790465 -0.619039 0.017802 0.021760 -0.004261 -0.511201
 12   -2.022474 -0.104699 -2.873818 -0.594432 1.418977 -3.778398
 13   1.167898 -0.537463 0.063297 1.261819 -0.698025 -1.099463
 14   7.002743 -0.617765 -0.183752 0.001197 -0.072661 -1.015147
 15   8.209042 0.615527 -0.255885 2.707810 -0.029949 -1.144119
 16   7.002735 -0.617911 -0.183641 0.007470 -0.045863 -0.729308
 17   1.574674 0.609930 -0.000899 0.815515 -0.277415 -0.154209
 18   -0.602177 0.511412 -0.000006 0.000000 0.000000 0.000000
 19   3.673773 0.177020 1.119313 -0.000002 -0.000014 -0.174510
 20   3.673767 0.176993 -1.117566 0.000007 -0.000003 -0.174546
 21   3.942357 1.334540 1.627658 0.000002 -0.000011 -0.000026
 22   -0.246060 -0.011889 0.516521 -0.000011 0.000031 0.000025
 23   3.942374 1.334565 -1.631083 0.000019 0.000002 -0.000024
 24   -0.246150 -0.011872 -0.516511 -0.000005 -0.000006 0.000048
 25   4.941364 1.997338 1.629330 0.000018 -0.000001 -0.000024
 26   4.941382 1.997366 -1.629410 -0.000001 0.000005 -0.000024
 27   2.914462 1.619264 1.514501 -0.000019 -0.000022 -0.000050
 28   2.916892 1.618870 -1.501142 -0.000002 -0.000009 -0.000024
 29   8.824059 0.150544 0.091743 0.000006 -0.000231 -0.174534
 30   2.111085 -0.561179 1.784320 -0.000008 -0.000682 0.000024
 31   2.121290 -0.561289 -1.853599 0.000000 0.000000 -0.000002
 32   -0.814395 -0.093824 3.127092 3.071965 -0.114691 1.239365
 33   14.298673 -0.408176 0.471578 0.000248 0.000063 -1.896136
 34   15.835795 0.581398 0.242756 -0.214735 0.106913 -0.097869
 35   -0.815868 -0.091229 -3.114430 0.066464 3.132818 -1.010216
 36   14.294526 -0.410349 -0.467541 0.000021 -0.000012 -2.607695
 37   15.834409 0.579420 -0.284600 -0.006092 -0.035255 0.214508
 38   1.139685 -3.453749 -2.823813 0.000000 0.000000 0.000001
 39   -4.457742 -1.054854 -0.746180 0.000000 0.000000 0.000000
 40   1.118101 -3.449769 3.237290 0.000000 0.000001 0.000000
 41   -4.433840 -1.059130 0.959566 -0.000001 0.000000 0.000000
 42   -0.657468 1.697302 -2.688614 0.000000 0.000002 0.000000
 43   -0.664068 1.698578 2.869377 0.000000 0.000002 0.000000
time 4
  0   -0.967547 0.175787 -20.574476 0.000000 0.000000 -1.572114
  1   -1.093036 0.000002 -0.326057 -0.214014 -1.569082 -1.356583
  2   2.262337 0.113614 0.064702 -0.139120 0.029255 0.056296
  3   2.380047 0.353302 0.047440 -0.164651 0.062663 0.179079
  4   2.033756 0.190472 -0.000128 -0.207876 0.063998 -0.115182
  5   2.451511 0.204909 -0.003447 -0.237154 0.303720 -0.105439
  6   7.247600 -0.397300 -0.109469 0.000001 0.000021 0.156829
  7   -2.022252 -0.104661 3.136172 2.300981 -1.076905 -5.454584
  8   1.168026 -0.537438 -0.063437 -1.046298 0.566605 -1.597831
  9   6.790376 -0.619176 0.015206 0.024642 0.000116 -0.562687
 10   8.637599 0.544015 -0.090417 -1.352504 -0.045392 0.301266
 11   6.790465 -0.619039 0.017802 0.016096 -0.012333 -0.409117
 12   -2.022474 -0.104699 -2.873818 -1.012438 1.354108 -4.182617
 13   1.167898 -0.537463 0.063297 1.303012 -0.649561 -1.290208
 14   7.002743 -0.617765 -0.183752 0.022376 -0.019284 -0.407165
 15   8.209042 0.615527 -0.255885 2.961483 0.124775 -1.226688
 16   7.002735 -0.617911 -0.183641 0.029455 -0.011861 -0.303661
 17   1.574674 0.609930 -0.000899 0.473199 -0.265014 0.002099
 18   -0.602177 0.511412 -0.000006 0.000000 0.000000 0.000000
 19   3.673773 0.177020 1.119313 -0.000002 -0.000014 -0.174510
 20   3.673767 0.176993 -1.117566 0.000007 -0.000003 -0.174546
 21   3.942357 1.334540 1.627658 0.000002 -0.000011 -0.000026
 22   -0.246060 -0.011889 0.516521 -0.000011 0.000031 0.000025
 23   3.942374 1.334565 -1.631083 0.000019 0.000002 -0.000024
 24   -0.246150 -0.011872 -0.516511 -0.000005 -0.000006 0.000048
 25   4.941364 1.997338 1.629330 0.000018 -0.000001 -0.000024
 26   4.941382 1.997366 -1.629410 -0.000001 0.000005 -0.000024
 27   2.914462 1.619264 1.514501 -0.000019 -0.000022 -0.000050
 28   2.916892 1.618870 -1.501142 -0.000002 -0.000009 -0.000024
 29   8.824059 0.150544 0.091743 0.000006 -0.000231 -0.174534
 30   2.111085 -0.561179 1.784320 -0.000008 -0.000682 0.000024
 31   2.121290 -0.561289 -1.853599 0.000000 0.000000 -0.000002
 32   -0.814395 -0.093824 3.127092 3.071965 -0.114691 1.239365
 33   14.298673 -0.408176 0.471578 0.000248 0.000063 -1.896136
 34   15.835795 0.581398 0.242756 -0.214735 0.106913 -0.097869
 35   -0.815868 -0.091229 -3.114430 0.066464 3.132818 -1.010216
 36   14.294526 -0.410349 -0.467541 0.000021 -0.000012 -2.607695
 37   15.834409 0.579420 -0.284600 -0.006092 -0.035255 0.214508
 38   1.139685 -3.453749 -2.823813 0.000000 0.000000 0.000001
 39   -4.457742 -1.054854 -0.746180 0.000000 0.000000 0.000000
 40   1.118101 -3.449769 3.237290 0.000000 0.000001 0.000000
 41   -4.433840 -1.059130 0.959566 -0.000001 0.000000 0.000000
 42   -0.657468 1.697302 -2.688614 0.000000 0.000002 0.000000
 43   -0.664068 1.698578 2.869377 0.000000 0.000002 0.000000
time 5
  0   -0.967547 0.175787 -20.574476 0.000000 0.000000 -1.572114
  1   -1.093036 0.000002 -0.326057 -0.214014 -1.569082 -1.356583
  2   2.262337 0.113614 0.064702 -0.105200 0.043205 0.038804
  3   2.380047 0.353302 0.047440 -0.145840 0.048462 0.174957
  4   2.033756 0.190472 -0.000128 -0.143659 0.041011 -0.120184
  5   2.451511 0.204909 -0.003447 -0.116001 0.228272 -0.094121
  6   7.247600 -0.397300 -0.109469 0.000001 0.000021 0.156829
  7   -2.022252 -0.104661 3.136172 2.221131 -1.127785 -5.385461
  8   1.168026 -0.537438 -0.063437 -1.137232 0.640115 -1.646162
  9   6.790376 -0.619176 0.015206 0.018483 -0.009562 -0.444203
 10   8.637599 0.544015 -0.090417 -1.372230 -0.262194 0.721658
 11   6.790465 -0.619039 0.017802 0.010899 -0.018416 -0.326180
 12   -2.022474 -0.104699 -2.873818 -1.560071 1.220105 -4.712639
 13   1.167898 -0.537463 0.063297 1.472005 -0.578568 -1.413820
 14   7.002743 -0.617765 -0.183752 0.057219 0.007632 0.058165
 15   8.209042 0.615527 -0.255885 3.406203 0.049872 -1.428929
 16   7.002735 -0.617911 -0.183641 0.054594 0.006071 0.022087
 17   1.574674 0.609930 -0.000899 0.124383 -0.055017 0.212333
 18   -0.602177 0.511412 -0.000006 0.000000 0.000000 0.000000
 19   3.673773 0.177020 1.119313 -0.000002 -0.000014 -0.174510
 20   3.673767 0.176993 -1.117566 0.000007 -0.000003 -0.174546
 21   3.942357 1.334540 1.627658 0.000002 -0.000011 -0.000026
 22   -0.246060 -0.011889 0.516521 -0.000011 0.000031 0.000025
 23   3.942374 1.334565 -1.631083 0.000019 0.000002 -0.000024
 24   -0.246150 -0.011872 -0.516511 -0.000005 -0.000006 0.000048
 25   4.941364 1.997338 1.629330 0.000018 -0.000001 -0.000024
 26   4.941382 1.997366 -1.629410 -0.000001 0.000005 -0.000024
 27   2.914462 1.619264 1.514501 -0.000019 -0.000022 -0.000050
 28   2.916892 1.618870 -1.501142 -0.000002 -0.000009 -0.000024
 29   8.824059 0.150544 0.091743 0.000006 -0.000231 -0.174534
 30   2.111085 -0.561179 1.784320 -0.000008 -0.000682 0.000024
 31   2.121290 -0.561289 -1.853599 0.000000 0.000000 -0.000002
 32   -0.814395 -0.093824 3.127092 3.071965 -0.114691 1.239365
 33   14.298673 -0.408176 0.471578 0.000248 0.000063 -1.896136
 34   15.835795 0.581398 0.242756 -0.214735 0.106913 -0.097869
 35   -0.815868 -0.091229 -3.114430 0.066464 3.132818 -1.010216
 36   14.294526 -0.410349 -0.467541 0.000021 -0.000012 -2.607695
 37   15.834409 0.579420 -0.284600 -0.006092 -0.035255 0.214508
 38   1.139685 -3.453749 -2.823813 0.000000 0.000000 0.000001
 39   -4.457742 -1.054854 -0.746180 0.000000 0.000000 0.000000
 40   1.118101 -3.449769 3.237290 0.000000 0.000001 0.000000
 41   -4.433840 -1.059130 0.959566 -0.000001 0.000000 0.000000
 42   -0.657468 1.697302 -2.688614 0.000000 0.000002 0.000000
 43   -0.664068 1.698578 2.869377 0.000000 0.000002 0.000000
time 6
  0   -0.967547 0.175787 -20.574476 0.000000 0.000000 -1.572114
  1   -1.093036 0.000002 -0.326057 -0.214014 -1.569082 -1.356583
  2   2.262337 0.113614 0.064702 -0.076592 0.114993 0.005102
  3   2.380047 0.353302 0.047440 -0.080300 0.026278 0.179385
  4   2.033756 0.190472 -0.000128 -0.077616 0.009036 -0.120981
  5   2.451511 0.204909 -0.003447 -0.006984 0.142027 -0.081243
  6   7.247600 -0.397300 -0.109469 0.000001 0.000021 0.156829
  7   -2.022252 -0.104661 3.136172 2.105143 -1.182672 -5.280557
  8   1.168026 -0.537438 -0.063437 -1.621834 0.925246 -1.851506
  9   6.790376 -0.619176 0.015206 0.033851 0.022740 -0.814974
 10   8.637599 0.544015 -0.090417 -2.585852 1.124145 0.613069
 11   6.790465 -0.619039 0.017802 0.025380 0.002021 -0.585948
 12   -2.022474 -0.104699 -2.873818 -1.672453 0.973924 -4.791626
 13   1.167898 -0.537463 0.063297 0.450811 -0.797649 -0.383579
 14   7.002743 -0.617765 -0.183752 0.000969 -0.082996 -1.123065
 15   8.209042 0.615527 -0.255885 2.944083 -0.724125 0.899286
 16   7.002735 -0.617911 -0.183641 0.005211 -0.052742 -0.804701
 17   1.574674 0.609930 -0.000899 -0.079171 0.080144 0.373335
 18   -0.602177 0.511412 -0.000006 0.000000 0.000000 0.000000
 19   3.673773 0.177020 1.119313 -0.000002 -0.000014 -0.174510
 20   3.673767 0.176993 -1.117566 0.000007 -0.000003 -0.174546
 21   3.942357 1.334540 1.627658 0.000002 -0.000011 -0.000026
 22   -0.246060 -0.011889 0.516521 -0.000011 0.000031 0.000025
 23   3.942374 1.334565 -1.631083 0.000019 0.000002 -0.000024
 24   -0.246150 -0.011872 -0.516511 -0.000005 -0.000006 0.000048
 25   4.941364 1.997338 1.629330 0.000018 -0.000001 -0.000024
 26   4.941382 1.997366 -1.629410 -0.000001 0.000005 -0.000024
 27   2.914462 1.619264 1.514501 -0.000019 -0.000022 -0.000050
 28   2.916892 1.618870 -1.501142 -0.000002 -0.000009 -0.000024
 29   8.824059 0.150544 0.091743 0.000006 -0.000231 -0.174534
 30   2.111085 -0.561179 1.784320 -0.000008 -0.000682 0.000024
 31   2.121290 -0.561289 -1.853599 0.000000 0.000000 -0.000002
 32   -0.814395 -0.093824 3.127092 3.071965 -0.114691 1.239365
 33   14.298673 -0.408176 0.471578 0.000248 0.000063 -1.896136
 34   15.835795 0.581398 0.242756 -0.214735 0.106913 -0.097869
 35   -0.815868 -0.091229 -3.114430 0.066464 3.132818 -1.010216
 36   14.294526 -0.410349 -0.467541 0.000021 -0.000012 -2.607695
 37   15.834409 0.579420 -0.284600 -0.006092 -0.035255 0.214508
 38   1.139685 -3.453749 -2.823813 0.000000 0.000000 0.000001
 39   -4.457742 -1.054854 -0.746180 0.000000 0.000000 0.000000
 40   1.118101 -3.449769 3.237290 0.000000 0.000001 0.000000
 41   -4.433840 -1.059130 0.959566 -0.000001 0.000000 0.000000
 42   -0.657468 1.697302 -2.688614 0.000000 0.000002 0.000000
 43   -0.664068 1.698578 2.869377 0.000000 0.000002 0.000000
time 7
  0   -0.967547 0.175787 -20.574476 0.000000 0.000000 -1.572114
  1   -1.093036 0.000002 -0.326057 -0.214014 -1.569082 -1.356583
  2   2.262337 0.113614 0.064702 -0.045245 0.115736 -0.017108
  3   2.380047 0.353302 0.047440 -0.041793 0.002872 0.176467
  4   2.033756 0.190472 -0.000128 -0.031602 -0.016922 -0.127578
  5   2.451511 0.204909 -0.003447 0.031581 0.100262 -0.085230
  6   7.247600 -0.397300 -0.109469 0.000001 0.000021 0.156829
  7   -2.022252 -0.104661 3.136172 1.957330 -1.234186 -5.143720
  8   1.168026 -0.537438 -0.063437 -1.286953 1.162377 -1.564303
  9   6.790376 -0.619176 0.015206 0.037014 0.049236 -1.090582
 10   8.637599 0.544015 -0.090417 -3.240174 0.533358 0.109770
 11   6.790465 -0.619039 0.017802 0.032475 0.019275 -0.778928
 12   -2.022474 -0.104699 -2.873818 -1.372194 0.469517 -4.574102
 13   1.167898 -0.537463 0.063297 -0.018769 -0.380693 0.162082
 14   7.002743 -0.617765 -0.183752 0.002393 -0.095943 -1.259363
 15   8.209042 0.615527 -0.255885 2.841477 -0.874536 0.667216
 16   7.002735 -0.617911 -0.183641 0.003045 -0.061539 -0.899909
 17   1.574674 0.609930 -0.000899 -0.101066 0.172279 0.328834
 18   -0.602177 0.511412 -0.000006 0.000000 0.000000 0.000000
 19   3.673773 0.177020 1.119313 -0.000002 -0.000014 -0.174510
 20   3.673767 0.176993 -1.117566 0.000007 -0.000003 -0.174546
 21   3.942357 1.334540 1.627658 0.000002 -0.000011 -0.000026
 22   -0.246060 -0.011889 0.516521 -0.000011 0.000031 0.000025
 23   3.942374 1.334565 -1.631083 0.000019 0.000002 -0.000024
 24   -0.246150 -0.011872 -0.516511 -0.000005 -0.000006 0.000048
 25   4.941364 1.997338 1.629330 0.000018 -0.000001 -0.000024
 26   4.941382 1.997366 -1.629410 -0.000001 0.000005 -0.000024
 27   2.914462 1.619264 1.514501 -0.000019 -0.000022 -0.000050
 28   2.916892 1.618870 -1.501142 -0.000002 -0.000009 -0.000024
 29   8.824059 0.150544 0.091743 0.000006 -0.000231 -0.174534
 30   2.111085 -0.561179 1.784320 -0.000008 -0.000682 0.000024
 31   2.121290 -0.561289 -1.853599 0.000000 0.000000 -0.000002
 32   -0.814395 -0.093824 3.127092 3.071965 -0.114691 1.239365
 33   14.298673 -0.408176 0.471578 0.000248 0.000063 -1.896136
 34   15.835795 0.581398 0.242756 -0.214735 0.106913 -0.097869
 35   -0.815868 -0.091229 -3.114430 0.066464 3.132818 -1.010216
 36   14.294526 -0.410349 -0.467541 0.000021 -0.000012 -2.607695
 37   15.834409 0.579420 -0.284600 -0.006092 -0.035255 0.214508
 38   1.139685 -3.453749 -2.823813 0.000000 0.000000 0.000001
 39   -4.457742 -1.054854 -0.746180 0.000000 0.000000 0.000000
 40   1.118101 -3.449769 3.237290 0.000000 0.000001 0.000000
 41   -4.433840 -1.059130 0.959566 -0.000001 0.000000 0.000000
 42   -0.657468 1.697302 -2.688614 0.000000 0.000002 0.000000
 43   -0.664068 1.698578 2.869377 0.000000 0.000002 0.000000
time 8
  0   -0.967547 0.175787 -20.574476 0.000000 0.000000 -1.572114
  1   -1.093036 0.000002 -0.326057 -0.214014 -1.569082 -1.356583
  2   2.262337 0.113614 0.064702 -0.013949 0.102829 -0.036949
  3   2.380047 0.353302 0.047440 -0.009556 -0.020210 0.172100
  4   2.033756 0.190472 -0.000128 0.007072 -0.041622 -0.134755
  5   2.451511 0.204909 -0.003447 0.043939 0.072858 -0.094344
  6   7.247600 -0.397300 -0.109469 0.000001 0.000021 0.156829
  7   -2.022252 -0.104661 3.136172 1.798014 -1.277946 -4.992891
  8   1.168026 -0.537438 -0.063437 -0.439944 1.181245 -0.782531
  9   6.790376 -0.619176 0.015206 0.034295 0.070126 -1.308305
 10   8.637599 0.544015 -0.090417 -3.476980 -0.549739 0.144206
 11   6.790465 -0.619039 0.017802 0.035686 0.033630 -0.930959
 12   -2.022474 -0.104699 -2.873818 -1.407547 0.515752 -4.825327
 13   1.167898 -0.537463 0.063297 -0.155073 -0.502642 -0.422987
 14   7.002743 -0.617765 -0.183752 0.000969 -0.078680 -1.078346
 15   8.209042 0.615527 -0.255885 2.552572 -0.755902 0.296109
 16   7.002735 -0.617911 -0.183641 0.006105 -0.049866 -0.773407
 17   1.574674 0.609930 -0.000899 -0.095176 0.217862 0.251142
 18   -0.602177 0.511412 -0.000006 0.000000 0.000000 0.000000
 19   3.673773 0.177020 1.119313 -0.000002 -0.000014 -0.174510
 20   3.673767 0.176993 -1.117566 0.000007 -0.000003 -0.174546
 21   3.942357 1.334540 1.627658 0.000002 -0.000011 -0.000026
 22   -0.246060 -0.011889 0.516521 -0.000011 0.000031 0.000025
 23   3.942374 1.334565 -1.631083 0.000019 0.000002 -0.000024
 24   -0.246150 -0.011872 -0.516511 -0.000005 -0.000006 0.000048
 25   4.941364 1.997338 1.629330 0.000018 -0.000001 -0.000024
 26   4.941382 1.997366 -1.629410 -0.000001 0.000005 -0.000024
 27   2.914462 1.619264 1.514501 -0.000019 -0.000022 -0.000050
 28   2.916892 1.618870 -1.501142 -0.000002 -0.000009 -0.000024
 29   8.824059 0.150544 0.091743 0.000006 -0.000231 -0.174534
 30   2.111085 -0.561179 1.784320 -0.000008 -0.000682 0.000024
 31   2.121290 -0.561289 -1.853599 0.000000 0.000000 -0.000002
 32   -0.814395 -0.093824 3.127092 3.071965 -0.114691 1.239365
 33   14.298673 -0.408176 0.471578 0.000248 0.000063 -1.896136
 34   15.835795 0.581398 0.242756 -0.214735 0.106913 -0.097869
 35   -0.815868 -0.091229 -3.114430 0.066464 3.132818 -1.010216
 36   14.294526 -0.410349 -0.467541 0.000021 -0.000012 -2.607695
 37   15.834409 0.579420 -0.284600 -0.006092 -0.035255 0.214508
 38   1.139685 -3.453749 -2.823813 0.000000 0.000000 0.000001
 39   -4.457742 -1.054854 -0.746180 0.000000 0.000000 0.000000
 40   1.118101 -3.449769 3.237290 0.000000 0.000001 0.000000
 41   -4.433840 -1.059130 0.959566 -0.000001 0.000000 0.000000
 42   -0.657468 1.697302 -2.688614 0.000000 0.000002 0.000000
 43   -0.664068 1.698578 2.869377 0.000000 0.000002 0.000000
time 9
  0   -0.967547 0.175787 -20.574476 0.000000 0.000000 -1.572114
  1   -1.093036 0.000002 -0.326057 -0.214014 -1.569082 -1.356583
  2   2.262337 0.113614 0.064702 0.006686 0.086745 -0.050015
  3   2.380047 0.353302 0.047440 0.003510 -0.036557 0.170937
  4   2.033756 0.190472 -0.000128 0.035400 -0.058029 -0.136930
  5   2.451511 0.204909 -0.003447 0.040858 0.058471 -0.097712
  6   7.247600 -0.397300 -0.109469 0.000001 0.000021 0.156829
  7   -2.022252 -0.104661 3.136172 1.669660 -1.315393 -4.869484
  8   1.168026 -0.537438 -0.063437 -0.122213 1.106830 -0.334015
  9   6.790376 -0.619176 0.015206 0.026916 0.090282 -1.531312
 10   8.637599 0.544015 -0.090417 -3.363465 -1.326990 0.440890
 11   6.790465 -0.619039 0.017802 0.036621 0.048639 -1.086681
 12   -2.022474 -0.104699 -2.873818 -1.431786 0.509019 -4.996608
 13   1.167898 -0.537463 0.063297 -0.060103 -0.553395 -0.696725
 14   7.002743 -0.617765 -0.183752 0.003190 -0.100429 -1.306391
 15   8.209042 0.615527 -0.255885 2.317305 -0.562516 0.003481
 16   7.002735 -0.617911 -0.183641 0.002527 -0.064640 -0.932748
 17   1.574674 0.609930 -0.000899 -0.095298 0.231115 0.180436
 18   -0.602177 0.511412 -0.000006 0.000000 0.000000 0.000000
 19   3.673773 0.177020 1.119313 -0.000002 -0.000014 -0.174510
 20   3.673767 0.176993 -1.117566 0.000007 -0.000003 -0.174546
 21   3.942357 1.334540 1.627658 0.000002 -0.000011 -0.000026
 22   -0.246060 -0.011889 0.516521 -0.000011 0.000031 0.000025
 23   3.942374 1.334565 -1.631083 0.000019 0.000002 -0.000024
 24   -0.246150 -0.011872 -0.516511 -0.000005 -0.000006 0.000048
 25   4.941364 1.997338 1.629330 0.000018 -0.000001 -0.000024
 26   4.941382 1.997366 -1.629410 -0.000001 0.000005 -0.000024
 27   2.914462 1.619264 1.514501 -0.000019 -0.000022 -0.000050
 28   2.916892 1.618870 -1.501142 -0.000002 -0.000009 -0.000024
 29   8.824059 0.150544 0.091743 0.000006 -0.000231 -0.174534
 30   2.111085 -0.561179 1.784320 -0.000008 -0.000682 0.000024
 31   2.121290 -0.561289 -1.853599 0.000000 0.000000 -0.000002
 32   -0.814395 -0.093824 3.127092 3.071965 -0.114691 1.239365
 33   14.298673 -0.408176 0.471578 0.000248 0.000063 -1.896136
 34   15.835795 0.581398 0.242756 -0.214735 0.106913 -0.097869
 35   -0.815868 -0.091229 -3.114430 0.066464 3.132818 -1.010216
 36   14.294526 -0.410349 -0.467541 0.000021 -0.000012 -2.607695
 37   15.834409 0.579420 -0.284600 -0.006092 -0.035255 0.214508
 38   1.139685 -3.453749 -2.823813 0.000000 0.000000 0.000001
 39   -4.457742 -1.054854 -0.746180 0.000000 0.000000 0.000000
 40   1.118101 -3.449769 3.237290 0.000000 0.000001 0.000000
 41   -4.433840 -1.059130 0.959566 -0.000001 0.000000 0.000000
 42   -0.657468 1.697302 -2.688614 0.000000 0.000002 0.000000
 43   -0.664068 1.698578 2.869377 0.000000 0.000002 0.000000
time 10
  0   -0.967547 0.175787 -20.574476 0.000000 0.000000 -1.572114
  1   -1.093036 0.000002 -0.326057 -0.214014 -1.569082 -1.356583
  2   2.262337 0.113614 0.064702 0.042071 0.046297 -0.049762
  3   2.380047 0.353302 0.047440 -0.014536 -0.041914 0.175610
  4   2.033756 0.190472 -0.000128 0.060076 -0.067665 -0.134248
  5   2.451511 0.204909 -0.003447 0.031444 0.050925 -0.094022
  6   7.247600 -0.397300 -0.109469 0.000001 0.000021 0.156829
  7   -2.022252 -0.104661 3.136172 1.583867 -1.356817 -4.784396
  8   1.168026 -0.537438 -0.063437 -0.600740 1.236641 -0.371022
  9   6.790376 -0.619176 0.015206 0.008109 0.116177 -1.863821
 10   8.637599 0.544015 -0.090417 -2.398626 -0.904577 -0.038536
 11   6.790465 -0.619039 0.017802 0.033672 0.070810 -1.318246
 12   -2.022474 -0.104699 -2.873818 -1.451139 0.559839 -5.011447
 13   1.167898 -0.537463 0.063297 0.369548 -0.493030 -1.017377
 14   7.002743 -0.617765 -0.183752 0.001767 -0.092422 -1.221988
 15   8.209042 0.615527 -0.255885 2.266973 -0.620320 -0.004397
 16   7.002735 -0.617911 -0.183641 0.003563 -0.059114 -0.873747
 17   1.574674 0.609930 -0.000899 -0.125317 0.247800 0.125179
 18   -0.602177 0.511412 -0.000006 0.000000 0.000000 0.000000
 19   3.673773 0.177020 1.119313 -0.000002 -0.000014 -0.174510
 20   3.673767 0.176993 -1.117566 0.000007 -0.000003 -0.174546
 21   3.942357 1.334540 1.627658 0.000002 -0.000011 -0.000026
 22   -0.246060 -0.011889 0.516521 -0.000011 0.000031 0.000025
 23   3.942374 1.334565 -1.631083 0.000019 0.000002 -0.000024
 24   -0.246150 -0.011872 -0.516511 -0.000005 -0.000006 0.000048
 25   4.941364 1.997338 1.629330 0.000018 -0.000001 -0.000024
 26   4.941382 1.997366 -1.629410 -0.000001 0.000005 -0.000024
 27   2.914462 1.619264 1.514501 -0.000019 -0.000022 -0.000050
 28   2.916892 1.618870 -1.501142 -0.000002 -0.000009 -0.000024
 29   8.824059 0.150544 0.091743 0.000006 -0.000231 -0.174534
 30   2.111085 -0.561179 1.784320 -0.000008 -0.000682 0.000024
 31   2.121290 -0.561289 -1.853599 0.000000 0.000000 -0.000002
 32   -0.814395 -0.093824 3.127092 3.071965 -0.114691 1.239365
 33   14.298673 -0.408176 0.471578 0.000248 0.000063 -1.896136
 34   15.835795 0.581398 0.242756 -0.214735 0.106913 -0.097869
 35   -0.815868 -0.091229 -3.114430 0.066464 3.132818 -1.010216
 36   14.294526 -0.410349 -0.467541 0.000021 -0.000012 -2.607695
 37   15.834409 0.579420 -0.284600 -0.006092 -0.035255 0.214508
 38   1.139685 -3.453749 -2.823813 0.000000 0.000000 0.000001
 39   -4.457742 -1.054854 -0.746180 0.000000 0.000000 0.000000
 40   1.118101 -3.449769 3.237290 0.000000 0.000001 0.000000
 41   -4.433840 -1.059130 0.959566 -0.000001 0.000000 0.000000
 42   -0.657468 1.697302 -2.688614 0.000000 0.000002 0.000000
 43   -0.664068 1.698578 2.869377 0.000000 0.000002 0.000000
time 11
  0   -0.967547 0.175787 -20.574476 0.000000 0.000000 -1.572114
  1   -1.093036 0.000002 -0.326057 -0.214014 -1.569082 -1.356583
  2   2.262337 0.113614 0.064702 0.096995 -0.017569 -0.045894
  3   2.380047 0.353302 0.047440 -0.051723 -0.040368 0.183303
  4   2.033756 0.190472 -0.000128 0.087869 -0.076569 -0.130369
  5   2.451511 0.204909 -0.003447 0.018161 0.045468 -0.088945
  6   7.247600 -0.397300 -0.109469 0.000001 0.000021 0.156829
  7   -2.022252 -0.104661 3.136172 1.506318 -1.406256 -4.704380
  8   1.168026 -0.537438 -0.063437 -1.051044 1.058629 -0.656453
  9   6.790376 -0.619176 0.015206 -0.001989 0.124853 -2.001625
 10   8.637599 0.544015 -0.090417 -2.350983 -0.591692 0.386342
 11   6.790465 -0.619039 0.017802 0.030986 0.079622 -1.414044
 12   -2.022474 -0.104699 -2.873818 -1.463115 0.623112 -4.992203
 13   1.167898 -0.537463 0.063297 0.807002 -0.394627 -1.330161
 14   7.002743 -0.617765 -0.183752 0.001311 -0.070901 -0.996996
 15   8.209042 0.615527 -0.255885 2.202692 -0.752119 0.004684
 16   7.002735 -0.617911 -0.183641 0.007941 -0.044735 -0.716503
 17   1.574674 0.609930 -0.000899 -0.174631 0.276129 0.074062
 18   -0.602177 0.511412 -0.000006 0.000000 0.000000 0.000000
 19   3.673773 0.177020 1.119313 -0.000002 -0.000014 -0.174510
 20   3.673767 0.176993 -1.117566 0.000007 -0.000003 -0.174546
 21   3.942357 1.334540 1.627658 0.000002 -0.000011 -0.000026
 22   -0.246060 -0.011889 0.516521 -0.000011 0.000031 0.000025
 23   3.942374 1.334565 -1.631083 0.000019 0.000002 -0.000024
 24   -0.246150 -0.011872 -0.516511 -0.000005 -0.000006 0.000048
 25   4.941364 1.997338 1.629330 0.000018 -0.000001 -0.000024
 26   4.941382 1.997366 -1.629410 -0.000001 0.000005 -0.000024
 27   2.914462 1.619264 1.514501 -0.000019 -0.000022 -0.000050
 28   2.916892 1.618870 -1.501142 -0.000002 -0.000009 -0.000024
 29   8.824059 0.150544 0.091743 0.000006 -0.000231 -0.174534
 30   2.111085 -0.561179 1.784320 -0.000008 -0.000682 0.000024
 31   2.121290 -0.561289 -1.853599 0.000000 0.000000 -0.000002
 32   -0.814395 -0.093824 3.127092 3.071965 -0.114691 1.239365
 33   14.298673 -0.408176 0.471578 0.000248 0.000063 -1.896136
 34   15.835795 0.581398 0.242756 -0.214735 0.106913 -0.097869
 35   -0.815868 -0.091229 -3.114430 0.066464 3.132818 -1.010216
 36   14.294526 -0.410349 -0.467541 0.000021 -0.000012 -2.607695
 37   15.834409 0.579420 -0.284600 -0.006092 -0.035255 0.214508
 38   1.139685 -3.453749 -2.823813 0.000000 0.000000 0.000001
 39   -4.457742 -1.054854 -0.746180 0.000000 0.000000 0.000000
 40   1.118101 -3.449769 3.237290 0.000000 0.000001 0.000000
 41   -4.433840 -1.059130 0.959566 -0.000001 0.000000 0.000000
 42   -0.657468 1.697302 -2.688614 0.000000 0.000002 0.000000
 43   -0.664068 1.698578 2.869377 0.000000 0.000002 0.000000
time 12
  0   -0.967547 0.175787 -20.574476 0.000000 0.000000 -1.572114
  1   -1.093036 0.000002 -0.326057 -0.214014 -1.569082 -1.356583
  2   2.262337 0.113614 0.064702 0.122368 -0.060414 -0.045479
  3   2.380047 0.353302 0.047440 -0.084336 -0.038594 0.190894
  4   2.033756 0.190472 -0.000128 0.115938 -0.084479 -0.125911
  5   2.451511 0.204909 -0.003447 0.002328 0.041956 -0.082902
  6   7.247600 -0.397300 -0.109469 0.000001 0.000021 0.156829
  7   -2.022252 -0.104661 3.136172 1.407776 -1.460595 -4.600977
  8   1.168026 -0.537438 -0.063437 -0.934734 0.872768 -0.666638
  9   6.790376 -0.619176 0.015206 0.003060 0.120782 -1.934534
 10   8.637599 0.544015 -0.090417 -2.449440 -0.626183 0.658863
 11   6.790465 -0.619039 0.017802 0.032416 0.075415 -1.367443
 12   -2.022474 -0.104699 -2.873818 -1.460145 0.693349 -4.936961
 13   1.167898 -0.537463 0.063297 1.048048 -0.336195 -1.487309
 14   7.002743 -0.617765 -0.183752 0.004499 -0.053979 -0.817629
 15   8.209042 0.615527 -0.255885 2.155739 -0.908961 -0.050823
 16   7.002735 -0.617911 -0.183641 0.012978 -0.033852 -0.591050
 17   1.574674 0.609930 -0.000899 -0.214847 0.302045 0.031002
 18   -0.602177 0.511412 -0.000006 0.000000 0.000000 0.000000
 19   3.673773 0.177020 1.119313 -0.000002 -0.000014 -0.174510
 20   3.673767 0.176993 -1.117566 0.000007 -0.000003 -0.174546
 21   3.942357 1.334540 1.627658 0.000002 -0.000011 -0.000026
 22   -0.246060 -0.011889 0.516521 -0.000011 0.000031 0.000025
 23   3.942374 1.334565 -1.631083 0.000019 0.000002 -0.000024
 24   -0.246150 -0.011872 -0.516511 -0.000005 -0.000006 0.000048
 25   4.941364 1.997338 1.629330 0.000018 -0.000001 -0.000024
 26   4.941382 1.997366 -1.629410 -0.000001 0.000005 -0.000024
 27   2.914462 1.619264 1.514501 -0.000019 -0.000022 -0.000050
 28   2.916892 1.618870 -1.501142 -0.000002 -0.000009 -0.000024
 29   8.824059 0.150544 0.091743 0.000006 -0.000231 -0.174534
 30   2.111085 -0.561179 1.784320 -0.000008 -0.000682 0.000024
 31   2.121290 -0.561289 -1.853599 0.000000 0.000000 -0.000002
 32   -0.814395 -0.093824 3.127092 3.071965 -0.114691 1.239365
 33   14.298673 -0.408176 0.471578 0.000248 0.000063 -1.896136
 34   15.835795 0.581398 0.242756 -0.214735 0.106913 -0.097869
 35   -0.815868 -0.091229 -3.114430 0.066464 3.132818 -1.010216
 36   14.294526 -0.410349 -0.467541 0.000021 -0.000012 -2.607695
 37   15.834409 0.579420 -0.284600 -0.006092 -0.035255 0.214508
 38   1.139685 -3.453749 -2.823813 0.000000 0.000000 0.000001
 39   -4.457742 -1.054854 -0.746180 0.000000 0.000000 0.000000
 40   1.118101 -3.449769 3.237290 0.000000 0.000001 0.000000
 41   -4.433840 -1.059130 0.959566 -0.000001 0.000000 0.000000
 42   -0.657468 1.697302 -2.688614 0.000000 0.000002 0.000000
 43   -0.664068 1.698578 2.869377 0.000000 0.000002 0.000000
time 13
  0   -0.967547 0.175787 -20.574476 0.000000 0.000000 -1.572114
  1   -1.093036 0.000002 -0.326057 -0.214014 -1.569082 -1.356583
  2   2.262337 0.113614 0.064702 0.115757 -0.069138 -0.040112
  3   2.380047 0.353302 0.047440 -0.087201 -0.037492 0.198342
  4   2.033756 0.190472 -0.000128 0.141740 -0.091095 -0.120800
  5   2.451511 0.204909 -0.003447 -0.015371 0.040206 -0.075968
  6   7.247600 -0.397300 -0.109469 0.000001 0.000021 0.156829
  7   -2.022252 -0.104661 3.136172 1.177717 -1.515425 -4.364872
  8   1.168026 -0.537438 -0.063437 -0.969665 0.825321 -0.871538
  9   6.790376 -0.619176 0.015206 0.011548 0.112640 -1.812353
 10   8.637599 0.544015 -0.090417 -2.487220 -0.646385 0.796607
 11   6.790465 -0.619039 0.017802 0.034460 0.067456 -1.282488
 12   -2.022474 -0.104699 -2.873818 -1.434085 0.763268 -4.843901
 13   1.167898 -0.537463 0.063297 1.012056 -0.244301 -1.510252
 14   7.002743 -0.617765 -0.183752 0.011445 -0.036092 -0.616481
 15   8.209042 0.615527 -0.255885 2.368356 -1.007545 -0.285599
 16   7.002735 -0.617911 -0.183641 0.020275 -0.022518 -0.450143
 17   1.574674 0.609930 -0.000899 -0.202701 0.315961 0.027935
 18   -0.602177 0.511412 -0.000006 0.000000 0.000000 0.000000
 19   3.673773 0.177020 1.119313 -0.000002 -0.000014 -0.174510
 20   3.673767 0.176993 -1.117566 0.000007 -0.000003 -0.174546
 21   3.942357 1.334540 1.627658 0.000002 -0.000011 -0.000026
 22   -0.246060 -0.011889 0.516521 -0.000011 0.000031 0.000025
 23   3.942374 1.334565 -1.631083 0.000019 0.000002 -0.000024
 24   -0.246150 -0.011872 -0.516511 -0.000005 -0.000006 0.000048
 25   4.941364 1.997338 1.629330 0.000018 -0.000001 -0.000024
 26   4.941382 1.997366 -1.629410 -0.000001 0.000005 -0.000024
 27   2.914462 1.619264 1.514501 -0.000019 -0.000022 -0.000050
 28   2.916892 1.618870 -1.501142 -0.000002 -0.000009 -0.000024
 29   8.824059 0.150544 0.091743 0.000006 -0.000231 -0.174534
 30   2.111085 -0.561179 1.784320 -0.000008 -0.000682 0.000024
 31   2.121290 -0.561289 -1.853599 0.000000 0.000000 -0.000002
 32   -0.814395 -0.093824 3.127092 3.071965 -0.114691 1.239365
 33   14.298673 -0.408176 0.471578 0.000248 0.000063 -1.896136
 34   15.835795 0.581398 0.242756 -0.214735 0.106913 -0.097869
 35   -0.815868 -0.091229 -3.114430 0.066464 3.132818 -1.010216
 36   14.294526 -0.410349 -0.467541 0.000021 -0.000012 -2.607695
 37   15.834409 0.579420 -0.284600 -0.006092 -0.035255 0.214508
 38   1.139685 -3.453749 -2.823813 0.000000 0.000000 0.000001
 39   -4.457742 -1.054854 -0.746180 0.000000 0.000000 0.000000
 40   1.118101 -3.449769 3.237290 0.000000 0.000001 0.000000
 41   -4.433840 -1.059130 0.959566 -0.000001 0.000000 0.000000
 42   -0.657468 1.697302 -2.688614 0.000000 0.000002 0.000000
 43   -0.664068 1.698578 2.869377 0.000000 0.000002 0.000000
time 14
  0   -0.967547 0.175787 -20.574476 0.000000 0.000000 -1.572114
  1   -1.093036 0.000002 -0.326057 -0.214014 -1.569082 -1.356583
  2   2.262337 0.113614 0.064702 0.092027 -0.076030 -0.041485
  3   2.380047 0.353302 0.047440 -0.095271 -0.032482 0.203831
  4   2.033756 0.190472 -0.000128 0.162524 -0.096212 -0.115363
  5   2.451511 0.204909 -0.003447 -0.034114 0.040023 -0.068439
  6   7.247600 -0.397300 -0.109469 0.000001 0.000021 0.156829
  7   -2.022252 -0.104661 3.136172 -3.356652 -1.594181 0.175985
  8   1.168026 -0.537438 -0.063437 -0.950934 0.802630 -1.024123
  9   6.790376 -0.619176 0.015206 0.019038 0.103496 -1.690246
 10   8.637599 0.544015 -0.090417 -2.503776 -0.626746 0.797620
 11   6.790465 -0.619039 0.017802 0.035861 0.059326 -1.197475
 12   -2.022474 -0.104699 -2.873818 -1.381870 0.824625 -4.716373
 13   1.167898 -0.537463 0.063297 0.941127 -0.209669 -1.477442
 14   7.002743 -0.617765 -0.183752 0.013324 -0.032458 -0.574486
 15   8.209042 0.615527 -0.255885 2.486780 -1.014581 -0.379654
 16   7.002735 -0.617911 -0.183641 0.021970 -0.020262 -0.420835
 17   1.574674 0.609930 -0.000899 -0.191002 0.305666 0.019212
 18   -0.602177 0.511412 -0.000006 0.000000 0.000000 0.000000
 19   3.673773 0.177020 1.119313 -0.000002 -0.000014 -0.174510
 20   3.673767 0.176993 -1.117566 0.000007 -0.000003 -0.174546
 21   3.942357 1.334540 1.627658 0.000002 -0.000011 -0.000026
 22   -0.246060 -0.011889 0.516521 -0.000011 0.000031 0.000025
 23   3.942374 1.334565 -1.631083 0.000019 0.000002 -0.000024
 24   -0.246150 -0.011872 -0.516511 -0.000005 -0.000006 0.000048
 25   4.941364 1.997338 1.629330 0.000018 -0.000001 -0.000024
 26   4.941382 1.997366 -1.629410 -0.000001 0.000005 -0.000024
 27   2.914462 1.619264 1.514501 -0.000019 -0.000022 -0.000050
 28   2.916892 1.618870 -1.501142 -0.000002 -0.000009 -0.000024
 29   8.824059 0.150544 0.091743 0.000006 -0.000231 -0.174534
 30   2.111085 -0.561179 1.784320 -0.000008 -0.000682 0.000024
 31   2.121290 -0.561289 -1.853599 0.000000 0.000000 -0.000002
 32   -0.814395 -0.093824 3.127092 3.071965 -0.114691 1.239365
 33   14.298673 -0.408176 0.471578 0.000248 0.000063 -1.896136
 34   15.835795 0.581398 0.242756 -0.214735 0.106913 -0.097869
 35   -0.815868 -0.091229 -3.114430 0.066464 3.132818 -1.010216
 36   14.294526 -0.410349 -0.467541 0.000021 -0.000012 -2.607695
 37   15.834409 0.579420 -0.284600 -0.006092 -0.035255 0.214508
 38   1.139685 -3.453749 -2.823813 0.000000 0.000000 0.000001
 39   -4.457742 -1.054854 -0.746180 0.000000 0.000000 0.000000
 40   1.118101 -3.449769 3.237290 0.000000 0.000001 0.000000
 41   -4.433840 -1.059130 0.959566 -0.000001 0.000000 0.000000
 42   -0.657468 1.697302 -2.688614 0.000000 0.000002 0.000000
 43   -0.664068 1.698578 2.869377 0.000000 0.000002 0.000000
time 15
  0   -0.967547 0.175787 -20.574476 0.000000 0.000000 -1.572114
  1   -1.093036 0.000002 -0.326057 -0.214014 -1.569082 -1.356583
  2   2.262337 0.113614 0.064702 0.056095 -0.081375 -0.045623
  3   2.380047 0.353302 0.047440 -0.106387 -0.024561 0.208871
  4   2.033756 0.190472 -0.000128 0.175416 -0.099568 -0.109745
  5   2.451511 0.204909 -0.003447 -0.052566 0.041238 -0.060762
  6   7.247600 -0.397300 -0.109469 0.000001 0.000021 0.156829
  7   -2.022252 -0.104661 3.136172 -1.139553 -1.510121 -2.035182
  8   1.168026 -0.537438 -0.063437 -0.912586 0.802177 -1.136093
  9   6.790376 -0.619176 0.015206 0.024975 0.093952 -1.573272
 10   8.637599 0.544015 -0.090417 -2.358116 -0.516374 0.518154
 11   6.790465 -0.619039 0.017802 0.036504 0.051481 -1.115922
 12   -2.022474 -0.104699 -2.873818 -1.308003 0.872340 -4.567017
 13   1.167898 -0.537463 0.063297 0.866191 -0.260879 -1.323381
 14   7.002743 -0.617765 -0.183752 0.003759 -0.056875 -0.847826
 15   8.209042 0.615527 -0.255885 2.389783 -0.849946 -0.190702
 16   7.002735 -0.617911 -0.183641 0.012037 -0.035600 -0.612189
 17   1.574674 0.609930 -0.000899 -0.153264 0.289832 0.026826
 18   -0.602177 0.511412 -0.000006 0.000000 0.000000 0.000000
 19   3.673773 0.177020 1.119313 -0.000002 -0.000014 -0.174510
 20   3.673767 0.176993 -1.117566 0.000007 -0.000003 -0.174546
 21   3.942357 1.334540 1.627658 0.000002 -0.000011 -0.000026
 22   -0.246060 -0.011889 0.516521 -0.000011 0.000031 0.000025
 23   3.942374 1.334565 -1.631083 0.000019 0.000002 -0.000024
 24   -0.246150 -0.011872 -0.516511 -0.000005 -0.000006 0.000048
 25   4.941364 1.997338 1.629330 0.000018 -0.000001 -0.000024
 26   4.941382 1.997366 -1.629410 -0.000001 0.000005 -0.000024
 27   2.914462 1.619264 1.514501 -0.000019 -0.000022 -0.000050
 28   2.916892 1.618870 -1.501142 -0.000002 -0.000009 -0.000024
 29   8.824059 0.150544 0.091743 0.000006 -0.000231 -0.174534
 30   2.111085 -0.561179 1.784320 -0.000008 -0.000682 0.000024
 31   2.121290 -0.561289 -1.853599 0.000000 0.000000 -0.000002
 32   -0.814395 -0.093824 3.127092 3.071965 -0.114691 1.239365
 33   14.298673 -0.408176 0.471578 0.000248 0.000063 -1.896136
 34   15.835795 0.581398 0.242756 -0.214735 0.106913 -0.097869
 35   -0.815868 -0.091229 -3.114430 0.066464 3.132818 -1.010216
 36   14.294526 -0.410349 -0.467541 0.000021 -0.000012 -2.607695
 37   15.834409 0.579420 -0.284600 -0.006092 -0.035255 0.214508
 38   1.139685 -3.453749 -2.823813 0.000000 0.000000 0.000001
 39   -4.457742 -1.054854 -0.746180 0.000000 0.000000 0.000000
 40   1.118101 -3.449769 3.237290 0.000000 0.000001 0.000000
 41   -4.433840 -1.059130 0.959566 -0.000001 0.000000 0.000000
 42   -0.657468 1.697302 -2.688614 0.000000 0.000002 0.000000
 43   -0.664068 1.698578 2.869377 0.000000 0.000002 0.000000
time 16
  0   -0.967547 0.175787 -20.574476 0.000000 0.000000 -1.572114
  1   -1.093036 0.000002 -0.326057 -0.214014 -1.569082 -1.356583
  2   2.262337 0.113614 0.064702 0.027856 -0.075658 -0.053032
  3   2.380047 0.353302 0.047440 -0.112493 -0.021397 0.210585
  4   2.033756 0.190472 -0.000128 0.177832 -0.100910 -0.103873
  5   2.451511 0.204909 -0.003447 -0.070128 0.043718 -0.052961
  6   7.247600 -0.397300 -0.109469 0.000001 0.000021 0.156829
  7   -2.022252 -0.104661 3.136172 -1.261293 -1.470109 -1.909146
  8   1.168026 -0.537438 -0.063437 -0.853292 0.819938 -1.223646
  9   6.790376 -0.619176 0.015206 0.030855 0.081405 -1.430412
 10   8.637599 0.544015 -0.090417 -2.212545 -0.311538 0.049507
 11   6.790465 -0.619039 0.017802 0.036475 0.041845 -1.016376
 12   -2.022474 -0.104699 -2.873818 -1.224938 0.909607 -4.413927
 13   1.167898 -0.537463 0.063297 0.778813 -0.348502 -1.114657
 14   7.002743 -0.617765 -0.183752 0.002165 -0.095318 -1.252020
 15   8.209042 0.615527 -0.255885 2.146392 -0.544433 0.114555
 16   7.002735 -0.617911 -0.183641 0.003187 -0.061087 -0.894720
 17   1.574674 0.609930 -0.000899 -0.116258 0.280815 0.030448
 18   -0.602177 0.511412 -0.000006 0.000000 0.000000 0.000000
 19   3.673773 0.177020 1.119313 -0.000002 -0.000014 -0.174510
 20   3.673767 0.176993 -1.117566 0.000007 -0.000003 -0.174546
 21   3.942357 1.334540 1.627658 0.000002 -0.000011 -0.000026
 22   -0.246060 -0.011889 0.516521 -0.000011 0.000031 0.000025
 23   3.942374 1.334565 -1.631083 0.000019 0.000002 -0.000024
 24   -0.246150 -0.011872 -0.516511 -0.000005 -0.000006 0.000048
 25   4.941364 1.997338 1.629330 0.000018 -0.000001 -0.000024
 26   4.941382 1.997366 -1.629410 -0.000001 0.000005 -0.000024
 27   2.914462 1.619264 1.514501 -0.000019 -0.000022 -0.000050
 28   2.916892 1.618870 -1.501142 -0.000002 -0.000009 -0.000024
 29   8.824059 0.150544 0.091743 0.000006 -0.000231 -0.174534
 30   2.111085 -0.561179 1.784320 -0.000008 -0.000682 0.000024
 31   2.121290 -0.561289 -1.853599 0.000000 0.000000 -0.000002
 32   -0.814395 -0.093824 3.127092 3.071965 -0.114691 1.239365
 33   14.298673 -0.408176 0.471578 0.000248 0.000063 -1.896136
 34   15.835795 0.581398 0.242756 -0.214735 0.106913 -0.097869
 35   -0.815868 -0.091229 -3.114430 0.066464 3.132818 -1.010216
 36   14.294526 -0.410349 -0.467541 0.000021 -0.000012 -2.607695
 37   15.834409 0.579420 -0.284600 -0.006092 -0.035255 0.214508
 38   1.139685 -3.453749 -2.823813 0.000000 0.000000 0.000001
 39   -4.457742 -1.054854 -0.746180 0.000000 0.000000 0.000000
 40   1.118101 -3.449769 3.237290 0.000000 0.000001 0.000000
 41   -4.433840 -1.059130 0.959566 -0.000001 0.000000 0.000000
 42   -0.657468 1.697302 -2.688614 0.000000 0.000002 0.000000
 43   -0.664068 1.698578 2.869377 0.000000 0.000002 0.000000
time 17
  0   -0.967547 0.175787 -20.574476 0.000000 0.000000 -1.572114
  1   -1.093036 0.000002 -0.326057 -0.214014 -1.569082 -1.356583
  2   2.262337 0.113614 0.064702 -0.000753 -0.069654 -0.059231
  3   2.380047 0.353302 0.047440 -0.118763 -0.017717 0.211789
  4   2.033756 0.190472 -0.000128 0.166729 -0.099987 -0.098146
  5   2.451511 0.204909 -0.003447 -0.085550 0.047321 -0.045680
  6   7.247600 -0.397300 -0.109469 0.000001 0.000021 0.156829
  7   -2.022252 -0.104661 3.136172 -1.248735 -1.440791 -1.919853
  8   1.168026 -0.537438 -0.063437 -0.736920 0.863158 -1.230415
  9   6.790376 -0.619176 0.015206 0.034351 0.069726 -1.304155
 10   8.637599 0.544015 -0.090417 -2.149403 -0.125003 -0.354969
 11   6.790465 -0.619039 0.017802 0.035599 0.033374 -0.928133
 12   -2.022474 -0.104699 -2.873818 -1.147334 0.948702 -4.279507
 13   1.167898 -0.537463 0.063297 0.599909 -0.438108 -0.921309
 14   7.002743 -0.617765 -0.183752 0.011103 -0.122632 -1.553743
 15   8.209042 0.615527 -0.255885 2.009058 -0.171129 0.233687
 16   7.002735 -0.617911 -0.183641 0.001351 -0.081105 -1.105226
 17   1.574674 0.609930 -0.000899 -0.062516 0.269384 0.039060
 18   -0.602177 0.511412 -0.000006 0.000000 0.000000 0.000000
 19   3.673773 0.177020 1.119313 -0.000002 -0.000014 -0.174510
 20   3.673767 0.176993 -1.117566 0.000007 -0.000003 -0.174546
 21   3.942357 1.334540 1.627658 0.000002 -0.000011 -0.000026
 22   -0.246060 -0.011889 0.516521 -0.000011 0.000031 0.000025
 23   3.942374 1.334565 -1.631083 0.000019 0.000002 -0.000024
 24   -0.246150 -0.011872 -0.516511 -0.000005 -0.000006 0.000048
 25   4.941364 1.997338 1.629330 0.000018 -0.000001 -0.000024
 26   4.941382 1.997366 -1.629410 -0.000001 0.000005 -0.000024
 27   2.914462 1.619264 1.514501 -0.000019 -0.000022 -0.000050
 28   2.916892 1.618870 -1.501142 -0.000002 -0.000009 -0.000024
 29   8.824059 0.150544 0.091743 0.000006 -0.000231 -0.174534
 30   2.111085 -0.561179 1.784320 -0.000008 -0.000682 0.000024
 31   2.121290 -0.561289 -1.853599 0.000000 0.000000 -0.000002
 32   -0.814395 -0.093824 3.127092 3.071965 -0.114691 1.239365
 33   14.298673 -0.408176 0.471578 0.000248 0.000063 -1.896136
 34   15.835795 0.581398 0.242756 -0.214735 0.106913 -0.097869
 35   -0.815868 -0.091229 -3.114430 0.066464 3.132818 -1.010216
 36   14.294526 -0.410349 -0.467541 0.000021 -0.000012 -2.607695
 37   15.834409 0.579420 -0.284600 -0.006092 -0.035255 0.214508
 38   1.139685 -3.453749 -2.823813 0.000000 0.000000 0.000001
 39   -4.457742 -1.054854 -0.746180 0.000000 0.000000 0.000000
 40   1.118101 -3.449769 3.237290 0.000000 0.000001 0.000000
 41   -4.433840 -1.059130 0.959566 -0.000001 0.000000 0.000000
 42   -0.657468 1.697302 -2.688614 0.000000 0.000002 0.000000
 43   -0.664068 1.698578 2.869377 0.000000 0.000002 0.000000
time 18
  0   -0.967547 0.175787 -20.574476 0.000000 0.000000 -1.572114
  1   -1.093036 0.000002 -0.326057 -0.214014 -1.569082 -1.356583
  2   2.262337 0.113614 0.064702 -0.038876 -0.073141 -0.054695
  3   2.380047 0.353302 0.047440 -0.131214 -0.007470 0.213544
  4   2.033756 0.190472 -0.000128 0.086652 -0.085630 -0.090933
  5   2.451511 0.204909 -0.003447 -0.095204 0.059790 -0.037755
  6   7.247600 -0.397300 -0.109469 0.000001 0.000021 0.156829
  7   -2.022252 -0.104661 3.136172 -1.006310 -1.449526 -2.171079
  8   1.168026 -0.537438 -0.063437 -0.487911 0.914881 -1.030702
  9   6.790376 -0.619176 0.015206 0.032464 0.076400 -1.375622
 10   8.637599 0.544015 -0.090417 -2.041347 -0.064045 -0.394035
 11   6.790465 -0.619039 0.017802 0.036183 0.038150 -0.978079
 12   -2.022474 -0.104699 -2.873818 -1.154712 1.067729 -4.267060
 13   1.167898 -0.537463 0.063297 0.442305 -0.553802 -0.827904
 14   7.002743 -0.617765 -0.183752 0.018448 -0.134670 -1.701015
 15   8.209042 0.615527 -0.255885 2.063056 0.114788 0.111728
 16   7.002735 -0.617911 -0.183641 0.002010 -0.090860 -1.207719
 17   1.574674 0.609930 -0.000899 0.087336 0.224536 0.074025
 18   -0.602177 0.511412 -0.000006 0.000000 0.000000 0.000000
 19   3.673773 0.177020 1.119313 -0.000002 -0.000014 -0.174510
 20   3.673767 0.176993 -1.117566 0.000007 -0.000003 -0.174546
 21   3.942357 1.334540 1.627658 0.000002 -0.000011 -0.000026
 22   -0.246060 -0.011889 0.516521 -0.000011 0.000031 0.000025
 23   3.942374 1.334565 -1.631083 0.000019 0.000002 -0.000024
 24   -0.246150 -0.011872 -0.516511 -0.000005 -0.000006 0.000048
 25   4.941364 1.997338 1.629330 0.000018 -0.000001 -0.000024
 26   4.941382 1.997366 -1.629410 -0.000001 0.000005 -0.000024
 27   2.914462 1.619264 1.514501 -0.000019 -0.000022 -0.000050
 28   2.916892 1.618870 -1.501142 -0.000002 -0.000009 -0.000024
 29   8.824059 0.150544 0.091743 0.000006 -0.000231 -0.174534
 30   2.111085 -0.561179 1.784320 -0.000008 -0.000682 0.000024
 31   2.121290 -0.561289 -1.853599 0.000000 0.000000 -0.000002
 32   -0.814395 -0.093824 3.127092 3.071965 -0.114691 1.239365
 33   14.298673 -0.408176 0.471578 0.000248 0.000063 -1.896136
 34   15.835795 0.581398 0.242756 -0.214735 0.106913 -0.097869
 35   -0.815868 -0.091229 -3.114430 0.066464 3.132818 -1.010216
 36   14.294526 -0.410349 -0.467541 0.000021 -0.000012 -2.607695
 37   15.834409 0.579420 -0.284600 -0.006092 -0.035255 0.214508
 38   1.139685 -3.453749 -2.823813 0.000000 0.000000 0.000001
 39   -4.457742 -1.054854 -0.746180 0.000000 0.000000 0.000000
 40   1.118101 -3.449769 3.237290 0.000000 0.000001 0.000000
 41   -4.433840 -1.059130 0.959566 -0.000001 0.000000 0.000000
 42   -0.657468 1.697302 -2.688614 0.000000 0.000002 0.000000
 43   -0.664068 1.698578 2.869377 0.000000 0.000002 0.000000
time 19
  0   -0.967547 0.175787 -20.574476 0.000000 0.000000 -1.572114
  1   -1.093036 0.000002 -0.326057 -0.214014 -1.569082 -1.356583
  2   2.262337 0.113614 0.064702 -0.060721 -0.072326 -0.057893
  3   2.380047 0.353302 0.047440 -0.137904 -0.000807 0.214809
  4   2.033756 0.190472 -0.000128 -0.054729 -0.057993 -0.084916
  5   2.451511 0.204909 -0.003447 -0.102085 0.081958 -0.029533
  6   7.247600 -0.397300 -0.109469 0.000001 0.000021 0.156829
  7   -2.022252 -0.104661 3.136172 -0.344986 -1.470080 -2.853663
  8   1.168026 -0.537438 -0.063437 -0.198403 0.933296 -0.809796
  9   6.790376 -0.619176 0.015206 0.027970 0.088079 -1.505653
 10   8.637599 0.544015 -0.090417 -1.891109 -0.134154 -0.180403
 11   6.790465 -0.619039 0.017802 0.036621 0.046962 -1.068802
 12   -2.022474 -0.104699 -2.873818 -1.390589 1.249941 -4.532933
 13   1.167898 -0.537463 0.063297 0.374258 -0.789563 -0.763071
 14   7.002743 -0.617765 -0.183752 0.020896 -0.137907 -1.744000
 15   8.209042 0.615527 -0.255885 2.170551 0.237962 -0.183305
 16   7.002735 -0.617911 -0.183641 0.002386 -0.093680 -1.237523
 17   1.574674 0.609930 -0.000899 0.261074 0.146885 0.096719
 18   -0.602177 0.511412 -0.000006 0.000000 0.000000 0.000000
 19   3.673773 0.177020 1.119313 -0.000002 -0.000014 -0.174510
 20   3.673767 0.176993 -1.117566 0.000007 -0.000003 -0.174546
 21   3.942357 1.334540 1.627658 0.000002 -0.000011 -0.000026
 22   -0.246060 -0.011889 0.516521 -0.000011 0.000031 0.000025
 23   3.942374 1.334565 -1.631083 0.000019 0.000002 -0.000024
 24   -0.246150 -0.011872 -0.516511 -0.000005 -0.000006 0.000048
 25   4.941364 1.997338 1.629330 0.000018 -0.000001 -0.000024
 26   4.941382 1.997366 -1.629410 -0.000001 0.000005 -0.000024
 27   2.914462 1.619264 1.514501 -0.000019 -0.000022 -0.000050
 28   2.916892 1.618870 -1.501142 -0.000002 -0.000009 -0.000024
 29   8.824059 0.150544 0.091743 0.000006 -0.000231 -0.174534
 30   2.111085 -0.561179 1.784320 -0.000008 -0.000682 0.000024
 31   2.121290 -0.561289 -1.853599 0.000000 0.000000 -0.000002
 32   -0.814395 -0.093824 3.127092 3.071965 -0.114691 1.239365
 33   14.298673 -0.408176 0.471578 0.000248 0.000063 -1.896136
 34   15.835795 0.581398 0.242756 -0.214735 0.106913 -0.097869
 35   -0.815868 -0.091229 -3.114430 0.066464 3.132818 -1.010216
 36   14.294526 -0.410349 -0.467541 0.000021 -0.000012 -2.607695
 37   15.834409 0.579420 -0.284600 -0.006092 -0.035255 0.214508
 38   1.139685 -3.453749 -2.823813 0.000000 0.000000 0.000001
 39   -4.457742 -1.054854 -0.746180 0.000000 0.000000 0.000000
 40   1.118101 -3.449769 3.237290 0.000000 0.000001 0.000000
 41   -4.433840 -1.059130 0.959566 -0.000001 0.000000 0.000000
 42   -0.657468 1.697302 -2.688614 0.000000 0.000002 0.000000
 43   -0.664068 1.698578 2.869377 0.000000 0.000002 0.000000
time 20
  0   -0.967547 0.175787 -20.574476 0.000000 0.000000 -1.572114
  1   -1.093036 0.000002 -0.326057 -0.214014 -1.569082 -1.356583
  2   2.262337 0.113614 0.064702 -0.077203 -0.077072 -0.056665
  3   2.380047 0.353302 0.047440 -0.144835 0.006420 0.215972
  4   2.033756 0.190472 -0.000128 -0.164573 -0.034767 -0.082704
  5   2.451511 0.204909 -0.003447 -0.116155 0.103369 -0.023193
  6   7.247600 -0.397300 -0.109469 0.000001 0.000021 0.156829
  7   -2.022252 -0.104661 3.136172 0.300329 -1.455752 -3.515023
  8   1.168026 -0.537438 -0.063437 -0.075765 0.923988 -0.815426
  9   6.790376 -0.619176 0.015206 0.027027 0.089948 -1.526482
 10   8.637599 0.544015 -0.090417 -1.801194 -0.261068 0.085824
 11   6.790465 -0.619039 0.017802 0.036621 0.048326 -1.083221
 12   -2.022474 -0.104699 -2.873818 -1.851900 1.353383 -5.033372
 13   1.167898 -0.537463 0.063297 0.322168 -0.980065 -0.655138
 14   7.002743 -0.617765 -0.183752 0.017024 -0.132569 -1.674778
 15   8.209042 0.615527 -0.255885 2.345563 0.243182 -0.516165
 16   7.002735 -0.617911 -0.183641 0.001821 -0.089169 -1.189395
 17   1.574674 0.609930 -0.000899 0.403208 0.070488 0.105922
 18   -0.602177 0.511412 -0.000006 0.000000 0.000000 0.000000
 19   3.673773 0.177020 1.119313 -0.000002 -0.000014 -0.174510
 20   3.673767 0.176993 -1.117566 0.000007 -0.000003 -0.174546
 21   3.942357 1.334540 1.627658 0.000002 -0.000011 -0.000026
 22   -0.246060 -0.011889 0.516521 -0.000011 0.000031 0.000025
 23   3.942374 1.334565 -1.631083 0.000019 0.000002 -0.000024
 24   -0.246150 -0.011872 -0.516511 -0.000005 -0.000006 0.000048
 25   4.941364 1.997338 1.629330 0.000018 -0.000001 -0.000024
 26   4.941382 1.997366 -1.629410 -0.000001 0.000005 -0.000024
 27   2.914462 1.619264 1.514501 -0.000019 -0.000022 -0.000050
 28   2.916892 1.618870 -1.501142 -0.000002 -0.000009 -0.000024
 29   8.824059 0.150544 0.091743 0.000006 -0.000231 -0.174534
 30   2.111085 -0.561179 1.784320 -0.000008 -0.000682 0.000024
 31   2.121290 -0.561289 -1.853599 0.000000 0.000000 -0.000002
 32   -0.814395 -0.093824 3.127092 3.071965 -0.114691 1.239365
 33   14.298673 -0.408176 0.471578 0.000248 0.000063 -1.896136
 34   15.835795 0.581398 0.242756 -0.214735 0.106913 -0.097869
 35   -0.815868 -0.091229 -3.114430 0.066464 3.132818 -1.010216
 36   14.294526 -0.410349 -0.467541 0.000021 -0.000012 -2.607695
 37   15.834409 0.579420 -0.284600 -0.006092 -0.035255 0.214508
 38   1.139685 -3.453749 -2.823813 0.000000 0.000000 0.000001
 39   -4.457742 -1.054854 -0.746180 0.000000 0.000000 0.000000
 40   1.118101 -3.449769 3.237290 0.000000 0.000001 0.000000
 41   -4.433840 -1.059130 0.959566 -0.000001 0.000000 0.000000
 42   -0.657468 1.697302 -2.688614 0.000000 0.000002 0.000000
 43   -0.664068 1.698578 2.869377 0.000000 0.000002 0.000000
time 21
  0   -0.967547 0.175787 -20.574476 0.000000 0.000000 -1.572114
  1   -1.093036 0.000002 -0.326057 -0.214014 -1.569082 -1.356583
  2   2.262337 0.113614 0.064702 -0.109875 -0.090795 -0.038991
  3   2.380047 0.353302 0.047440 -0.158501 0.020274 0.217421
  4   2.033756 0.190472 -0.000128 -0.202952 -0.023214 -0.082016
  5   2.451511 0.204909 -0.003447 -0.143542 0.120772 -0.019701
  6   7.247600 -0.397300 -0.109469 0.000001 0.000021 0.156829
  7   -2.022252 -0.104661 3.136172 0.716353 -1.433527 -3.935674
  8   1.168026 -0.537438 -0.063437 -0.087725 0.882026 -0.929865
  9   6.790376 -0.619176 0.015206 0.028858 0.086277 -1.484220
 10   8.637599 0.544015 -0.090417 -1.774335 -0.325475 0.250625
 11   6.790465 -0.619039 0.017802 0.036621 0.045483 -1.053807
 12   -2.022474 -0.104699 -2.873818 -1.985551 1.415233 -5.176792
 13   1.167898 -0.537463 0.063297 0.255457 -0.981488 -0.553984
 14   7.002743 -0.617765 -0.183752 0.013608 -0.127174 -1.608114
 15   8.209042 0.615527 -0.255885 2.486636 0.296220 -0.712995
 16   7.002735 -0.617911 -0.183641 0.001492 -0.084714 -1.143033
 17   1.574674 0.609930 -0.000899 0.516054 0.001570 0.111467
 18   -0.602177 0.511412 -0.000006 0.000000 0.000000 0.000000
 19   3.673773 0.177020 1.119313 -0.000002 -0.000014 -0.174510
 20   3.673767 0.176993 -1.117566 0.000007 -0.000003 -0.174546
 21   3.942357 1.334540 1.627658 0.000002 -0.000011 -0.000026
 22   -0.246060 -0.011889 0.516521 -0.000011 0.000031 0.000025
 23   3.942374 1.334565 -1.631083 0.000019 0.000002 -0.000024
 24   -0.246150 -0.011872 -0.516511 -0.000005 -0.000006 0.000048
 25   4.941364 1.997338 1.629330 0.000018 -0.000001 -0.000024
 26   4.941382 1.997366 -1.629410 -0.000001 0.000005 -0.000024
 27   2.914462 1.619264 1.514501 -0.000019 -0.000022 -0.000050
 28   2.916892 1.618870 -1.501142 -0.000002 -0.000009 -0.000024
 29   8.824059 0.150544 0.091743 0.000006 -0.000231 -0.174534
 30   2.111085 -0.561179 1.784320 -0.000008 -0.000682 0.000024
 31   2.121290 -0.561289 -1.853599 0.000000 0.000000 -0.000002
 32   -0.814395 -0.093824 3.127092 3.071965 -0.114691 1.239365
 33   14.298673 -0.408176 0.471578 0.000248 0.000063 -1.896136
 34   15.835795 0.581398 0.242756 -0.214735 0.106913 -0.097869
 35   -0.815868 -0.091229 -3.114430 0.066464 3.132818 -1.010216
 36   14.294526 -0.410349 -0.467541 0.000021 -0.000012 -2.607695
 37   15.834409 0.579420 -0.284600 -0.006092 -0.035255 0.214508
 38   1.139685 -3.453749 -2.823813 0.000000 0.000000 0.000001
 39   -4.457742 -1.054854 -0.746180 0.000000 0.000000 0.000000
 40   1.118101 -3.449769 3.237290 0.000000 0.000001 0.000000
 41   -4.433840 -1.059130 0.959566 -0.000001 0.000000 0.000000
 42   -0.657468 1.697302 -2.688614 0.000000 0.000002 0.000000
 43   -0.664068 1.698578 2.869377 0.000000 0.000002 0.000000
time 22
  0   -0.967547 0.175787 -20.574476 0.000000 0.000000 -1.572114
  1   -1.093036 0.000002 -0.326057 -0.214014 -1.569082 -1.356583
  2   2.262337 0.113614 0.064702 -0.133541 -0.094054 -0.013584
  3   2.380047 0.353302 0.047440 -0.165611 0.028447 0.216156
  4   2.033756 0.190472 -0.000128 -0.210661 -0.015951 -0.082125
  5   2.451511 0.204909 -0.003447 -0.178118 0.137470 -0.017695
  6   7.247600 -0.397300 -0.109469 0.000001 0.000021 0.156829
  7   -2.022252 -0.104661 3.136172 1.040065 -1.396167 -4.260155
  8   1.168026 -0.537438 -0.063437 -0.162270 0.866982 -1.000526
  9   6.790376 -0.619176 0.015206 0.029579 0.084542 -1.465278
 10   8.637599 0.544015 -0.090417 -1.661788 -0.270782 0.205771
 11   6.790465 -0.619039 0.017802 0.036591 0.044176 -1.040599
 12   -2.022474 -0.104699 -2.873818 -1.673124 1.478331 -4.861900
 13   1.167898 -0.537463 0.063297 0.159784 -0.906478 -0.435881
 14   7.002743 -0.617765 -0.183752 0.017024 -0.132683 -1.676511
 15   8.209042 0.615527 -0.255885 2.436808 0.418410 -0.759000
 16   7.002735 -0.617911 -0.183641 0.001821 -0.089225 -1.190554
 17   1.574674 0.609930 -0.000899 0.578652 -0.044509 0.106366
 18   -0.602177 0.511412 -0.000006 0.000000 0.000000 0.000000
 19   3.673773 0.177020 1.119313 -0.000002 -0.000014 -0.174510
 20   3.673767 0.176993 -1.117566 0.000007 -0.000003 -0.174546
 21   3.942357 1.334540 1.627658 0.000002 -0.000011 -0.000026
 22   -0.246060 -0.011889 0.516521 -0.000011 0.000031 0.000025
 23   3.942374 1.334565 -1.631083 0.000019 0.000002 -0.000024
 24   -0.246150 -0.011872 -0.516511 -0.000005 -0.000006 0.000048
 25   4.941364 1.997338 1.629330 0.000018 -0.000001 -0.000024
 26   4.941382 1.997366 -1.629410 -0.000001 0.000005 -0.000024
 27   2.914462 1.619264 1.514501 -0.000019 -0.000022 -0.000050
 28   2.916892 1.618870 -1.501142 -0.000002 -0.000009 -0.000024
 29   8.824059 0.150544 0.091743 0.000006 -0.000231 -0.174534
 30   2.111085 -0.561179 1.784320 -0.000008 -0.000682 0.000024
 31   2.121290 -0.561289 -1.853599 0.000000 0.000000 -0.000002
 32   -0.814395 -0.093824 3.127092 3.071965 -0.114691 1.239365
 33   14.298673 -0.408176 0.471578 0.000248 0.000063 -1.896136
 34   15.835795 0.581398 0.242756 -0.214735 0.106913 -0.097869
 35   -0.815868 -0.091229 -3.114430 0.066464 3.132818 -1.010216
 36   14.294526 -0.410349 -0.467541 0.000021 -0.000012 -2.607695
 37   15.834409 0.579420 -0.284600 -0.006092 -0.035255 0.214508
 38   1.139685 -3.453749 -2.823813 0.000000 0.000000 0.000001
 39   -4.457742 -1.054854 -0.746180 0.000000 0.000000 0.000000
 40   1.118101 -3.449769 3.237290 0.000000 0.000001 0.000000
 41   -4.433840 -1.059130 0.959566 -0.000001 0.000000 0.000000
 42   -0.657468 1.697302 -2.688614 0.000000 0.000002 0.000000
 43   -0.664068 1.698578 2.869377 0.000000 0.000002 0.000000
time 23
  0   -0.967547 0.175787 -20.574476 0.000000 0.000000 -1.572114
  1   -1.093036 0.000002 -0.326057 -0.214014 -1.569082 -1.356583
  2   2.262337 0.113614 0.064702 -0.156494 -0.093970 0.014878
  3   2.380047 0.353302 0.047440 -0.171447 0.035111 0.214748
  4   2.033756 0.190472 -0.000128 -0.216655 -0.009072 -0.082559
  5   2.451511 0.204909 -0.003447 -0.209904 0.152641 -0.016580
  6   7.247600 -0.397300 -0.109469 0.000001 0.000021 0.156829
  7   -2.022252 -0.104661 3.136172 1.251432 -1.350245 -4.467992
  8   1.168026 -0.537438 -0.063437 -0.219602 0.853045 -1.010268
  9   6.790376 -0.619176 0.015206 0.028747 0.086544 -1.487767
 10   8.637599 0.544015 -0.090417 -1.549065 -0.170335 0.058116
 11   6.790465 -0.619039 0.017802 0.036621 0.045711 -1.056287
 12   -2.022474 -0.104699 -2.873818 -0.819674 1.507587 -4.004826
 13   1.167898 -0.537463 0.063297 0.066712 -0.818194 -0.348408
 14   7.002743 -0.617765 -0.183752 0.025735 -0.143699 -1.822628
 15   8.209042 0.615527 -0.255885 2.231022 0.555202 -0.757496
 16   7.002735 -0.617911 -0.183641 0.003328 -0.098811 -1.292219
 17   1.574674 0.609930 -0.000899 0.632109 -0.084270 0.097902
 18   -0.602177 0.511412 -0.000006 0.000000 0.000000 0.000000
 19   3.673773 0.177020 1.119313 -0.000002 -0.000014 -0.174510
 20   3.673767 0.176993 -1.117566 0.000007 -0.000003 -0.174546
 21   3.942357 1.334540 1.627658 0.000002 -0.000011 -0.000026
 22   -0.246060 -0.011889 0.516521 -0.000011 0.000031 0.000025
 23   3.942374 1.334565 -1.631083 0.000019 0.000002 -0.000024
 24   -0.246150 -0.011872 -0.516511 -0.000005 -0.000006 0.000048
 25   4.941364 1.997338 1.629330 0.000018 -0.000001 -0.000024
 26   4.941382 1.997366 -1.629410 -0.000001 0.000005 -0.000024
 27   2.914462 1.619264 1.514501 -0.000019 -0.000022 -0.000050
 28   2.916892 1.618870 -1.501142 -0.000002 -0.000009 -0.000024
 29   8.824059 0.150544 0.091743 0.000006 -0.000231 -0.174534
 30   2.111085 -0.561179 1.784320 -0.000008 -0.000682 0.000024
 31   2.121290 -0.561289 -1.853599 0.000000 0.000000 -0.000002
 32   -0.814395 -0.093824 3.127092 3.071965 -0.114691 1.239365
 33   14.298673 -0.408176 0.471578 0.000248 0.000063 -1.896136
 34   15.835795 0.581398 0.242756 -0.214735 0.106913 -0.097869
 35   -0.815868 -0.091229 -3.114430 0.066464 3.132818 -1.010216
 36   14.294526 -0.410349 -0.467541 0.000021 -0.000012 -2.607695
 37   15.834409 0.579420 -0.284600 -0.006092 -0.035255 0.214508
 38   1.139685 -3.453749 -2.823813 0.000000 0.000000 0.000001
 39   -4.457742 -1.054854 -0.746180 0.000000 0.000000 0.000000
 40   1.118101 -3.449769 3.237290 0.000000 0.000001 0.000000
 41   -4.433840 -1.059130 0.959566 -0.000001 0.000000 0.000000
 42   -0.657468 1.697302 -2.688614 0.000000 0.000002 0.000000
 43   -0.664068 1.698578 2.869377 0.000000 0.000002 0.000000
time 24
  0   -0.967547 0.175787 -20.574476 0.000000 0.000000 -1.572114
  1   -1.093036 0.000002 -0.326057 -0.214014 -1.569082 -1.356583
  2   2.262337 0.113614 0.064702 -0.179345 -0.094522 0.037647
  3   2.380047 0.353302 0.047440 -0.178287 0.042649 0.213503
  4   2.033756 0.190472 -0.000128 -0.226540 -0.001198 -0.083611
  5   2.451511 0.204909 -0.003447 -0.235973 0.165997 -0.017348
  6   7.247600 -0.397300 -0.109469 0.000001 0.000021 0.156829
  7   -2.022252 -0.104661 3.136172 1.376239 -1.304784 -4.588111
  8   1.168026 -0.537438 -0.063437 -0.232258 0.830152 -0.964848
  9   6.790376 -0.619176 0.015206 0.026472 0.091283 -1.541802
 10   8.637599 0.544015 -0.090417 -1.504416 -0.085022 -0.096700
 11   6.790465 -0.619039 0.017802 0.036621 0.049378 -1.093948
 12   -2.022474 -0.104699 -2.873818 0.065679 1.489156 -3.120274
 13   1.167898 -0.537463 0.063297 -0.002108 -0.729758 -0.352040
 14   7.002743 -0.617765 -0.183752 0.034958 -0.152614 -1.958019
 15   8.209042 0.615527 -0.255885 1.967498 0.667405 -0.744326
 16   7.002735 -0.617911 -0.183641 0.005587 -0.107495 -1.386267
 17   1.574674 0.609930 -0.000899 0.686461 -0.121474 0.086666
 18   -0.602177 0.511412 -0.000006 0.000000 0.000000 0.000000
 19   3.673773 0.177020 1.119313 -0.000002 -0.000014 -0.174510
 20   3.673767 0.176993 -1.117566 0.000007 -0.000003 -0.174546
 21   3.942357 1.334540 1.627658 0.000002 -0.000011 -0.000026
 22   -0.246060 -0.011889 0.516521 -0.000011 0.000031 0.000025
 23   3.942374 1.334565 -1.631083 0.000019 0.000002 -0.000024
 24   -0.246150 -0.011872 -0.516511 -0.000005 -0.000006 0.000048
 25   4.941364 1.997338 1.629330 0.000018 -0.000001 -0.000024
 26   4.941382 1.997366 -1.629410 -0.000001 0.000005 -0.000024
 27   2.914462 1.619264 1.514501 -0.000019 -0.000022 -0.000050
 28   2.916892 1.618870 -1.501142 -0.000002 -0.000009 -0.000024
 29   8.824059 0.150544 0.091743 0.000006 -0.000231 -0.174534
 30   2.111085 -0.561179 1.784320 -0.000008 -0.000682 0.000024
 31   2.121290 -0.561289 -1.853599 0.000000 0.000000 -0.000002
 32   -0.814395 -0.093824 3.127092 3.071965 -0.114691 1.239365
 33   14.298673 -0.408176 0.471578 0.000248 0.000063 -1.896136
 34   15.835795 0.581398 0.242756 -0.214735 0.106913 -0.097869
 35   -0.815868 -0.091229 -3.114430 0.066464 3.132818 -1.010216
 36   14.294526 -0.410349 -0.467541 0.000021 -0.000012 -2.607695
 37   15.834409 0.579420 -0.284600 -0.006092 -0.035255 0.214508
 38   1.139685 -3.453749 -2.823813 0.000000 0.000000 0.000001
 39   -4.457742 -1.054854 -0.746180 0.000000 0.000000 0.000000
 40   1.118101 -3.449769 3.237290 0.000000 0.000001 0.000000
 41   -4.433840 -1.059130 0.959566 -0.000001 0.000000 0.000000
 42   -0.657468 1.697302 -2.688614 0.000000 0.000002 0.000000
 43   -0.664068 1.698578 2.869377 0.000000 0.000002 0.000000
time 25
  0   -0.967547 0.175787 -20.574476 0.000000 0.000000 -1.572114
  1   -1.093036 0.000002 -0.326057 -0.214014 -1.569082 -1.356583
  2   2.262337 0.113614 0.064702 -0.191866 -0.094797 0.046610
  3   2.380047 0.353302 0.047440 -0.182892 0.046472 0.212544
  4   2.033756 0.190472 -0.000128 -0.238417 0.004434 -0.085242
  5   2.451511 0.204909 -0.003447 -0.250779 0.173464 -0.019181
  6   7.247600 -0.397300 -0.109469 0.000001 0.000021 0.156829
  7   -2.022252 -0.104661 3.136172 1.440560 -1.268433 -4.647748
  8   1.168026 -0.537438 -0.063437 -0.242383 0.817171 -0.933976
  9   6.790376 -0.619176 0.015206 0.024586 0.094620 -1.580894
 10   8.637599 0.544015 -0.090417 -1.499396 -0.043984 -0.186552
 11   6.790465 -0.619039 0.017802 0.036475 0.052021 -1.121171
 12   -2.022474 -0.104699 -2.873818 0.337196 1.466866 -2.845784
 13   1.167898 -0.537463 0.063297 -0.015254 -0.693703 -0.378494
 14   7.002743 -0.617765 -0.183752 0.041164 -0.157327 -2.038792
 15   8.209042 0.615527 -0.255885 1.805788 0.700166 -0.712814
 16   7.002735 -0.617911 -0.183641 0.007282 -0.112570 -1.442343
 17   1.574674 0.609930 -0.000899 0.731104 -0.149732 0.080567
 18   -0.602177 0.511412 -0.000006 0.000000 0.000000 0.000000
 19   3.673773 0.177020 1.119313 -0.000002 -0.000014 -0.174510
 20   3.673767 0.176993 -1.117566 0.000007 -0.000003 -0.174546
 21   3.942357 1.334540 1.627658 0.000002 -0.000011 -0.000026
 22   -0.246060 -0.011889 0.516521 -0.000011 0.000031 0.000025
 23   3.942374 1.334565 -1.631083 0.000019 0.000002 -0.000024
 24   -0.246150 -0.011872 -0.516511 -0.000005 -0.000006 0.000048
 25   4.941364 1.997338 1.629330 0.000018 -0.000001 -0.000024
 26   4.941382 1.997366 -1.629410 -0.000001 0.000005 -0.000024
 27   2.914462 1.619264 1.514501 -0.000019 -0.000022 -0.000050
 28   2.916892 1.618870 -1.501142 -0.000002 -0.000009 -0.000024
 29   8.824059 0.150544 0.091743 0.000006 -0.000231 -0.174534
 30   2.111085 -0.561179 1.784320 -0.000008 -0.000682 0.000024
 31   2.121290 -0.561289 -1.853599 0.000000 0.000000 -0.000002
 32   -0.814395 -0.093824 3.127092 3.071965 -0.114691 1.239365
 33   14.298673 -0.408176 0.471578 0.000248 0.000063 -1.896136
 34   15.835795 0.581398 0.242756 -0.214735 0.106913 -0.097869
 35   -0.815868 -0.091229 -3.114430 0.066464 3.132818 -1.010216
 36   14.294526 -0.410349 -0.467541 0.000021 -0.000012 -2.607695
 37   15.834409 0.579420 -0.284600 -0.006092 -0.035255 0.214508
 38   1.139685 -3.453749 -2.823813 0.000000 0.000000 0.000001
 39   -4.457742 -1.054854 -0.746180 0.000000 0.000000 0.000000
 40   1.118101 -3.449769 3.237290 0.000000 0.000001 0.000000
 41   -4.433840 -1.059130 0.959566 -0.000001 0.000000 0.000000
 42   -0.657468 1.697302 -2.688614 0.000000 0.000002 0.000000
 43   -0.664068 1.698578 2.869377 0.000000 0.000002 0.000000
time 26
  0   -0.967547 0.175787 -20.574476 0.000000 0.000000 -1.572114
  1   -1.093036 0.000002 -0.326057 -0.214014 -1.569082 -1.356583
  2   2.262337 0.113614 0.064702 -0.193853 -0.093671 0.045779
  3   2.380047 0.353302 0.047440 -0.183987 0.044567 0.211728
  4   2.033756 0.190472 -0.000128 -0.258409 0.007263 -0.086873
  5   2.451511 0.204909 -0.003447 -0.252919 0.174261 -0.020939
  6   7.247600 -0.397300 -0.109469 0.000001 0.000021 0.156829
  7   -2.022252 -0.104661 3.136172 1.465579 -1.247015 -4.670288
  8   1.168026 -0.537438 -0.063437 -0.265860 0.820240 -0.933976
  9   6.790376 -0.619176 0.015206 0.024142 0.095487 -1.592063
 10   8.637599 0.544015 -0.090417 -1.535679 -0.059470 -0.187782
 11   6.790465 -0.619039 0.017802 0.036475 0.052732 -1.129015
 12   -2.022474 -0.104699 -2.873818 0.383758 1.484222 -2.790254
 13   1.167898 -0.537463 0.063297 0.056870 -0.729148 -0.408822
 14   7.002743 -0.617765 -0.183752 0.042701 -0.158406 -2.059583
 15   8.209042 0.615527 -0.255885 1.851231 0.638049 -0.606612
 16   7.002735 -0.617911 -0.183641 0.007800 -0.113867 -1.456693
 17   1.574674 0.609930 -0.000899 0.769450 -0.170441 0.081565
 18   -0.602177 0.511412 -0.000006 0.000000 0.000000 0.000000
 19   3.673773 0.177020 1.119313 -0.000002 -0.000014 -0.174510
 20   3.673767 0.176993 -1.117566 0.000007 -0.000003 -0.174546
 21   3.942357 1.334540 1.627658 0.000002 -0.000011 -0.000026
 22   -0.246060 -0.011889 0.516521 -0.000011 0.000031 0.000025
 23   3.942374 1.334565 -1.631083 0.000019 0.000002 -0.000024
 24   -0.246150 -0.011872 -0.516511 -0.000005 -0.000006 0.000048
 25   4.941364 1.997338 1.629330 0.000018 -0.000001 -0.000024
 26   4.941382 1.997366 -1.629410 -0.000001 0.000005 -0.000024
 27   2.914462 1.619264 1.514501 -0.000019 -0.000022 -0.000050
 28   2.916892 1.618870 -1.501142 -0.000002 -0.000009 -0.000024
 29   8.824059 0.150544 0.091743 0.000006 -0.000231 -0.174534
 30   2.111085 -0.561179 1.784320 -0.000008 -0.000682 0.000024
 31   2.121290 -0.561289 -1.853599 0.000000 0.000000 -0.000002
 32   -0.814395 -0.093824 3.127092 3.071965 -0.114691 1.239365
 33   14.298673 -0.408176 0.471578 0.000248 0.000063 -1.896136
 34   15.835795 0.581398 0.242756 -0.214735 0.106913 -0.097869
 35   -0.815868 -0.091229 -3.114430 0.066464 3.132818 -1.010216
 36   14.294526 -0.410349 -0.467541 0.000021 -0.000012 -2.607695
 37   15.834409 0.579420 -0.284600 -0.006092 -0.035255 0.214508
 38   1.139685 -3.453749 -2.823813 0.000000 0.000000 0.000001
 39   -4.457742 -1.054854 -0.746180 0.000000 0.000000 0.000000
 40   1.118101 -3.449769 3.237290 0.000000 0.000001 0.000000
 41   -4.433840 -1.059130 0.959566 -0.000001 0.000000 0.000000
 42   -0.657468 1.697302 -2.688614 0.000000 0.000002 0.000000
 43   -0.664068 1.698578 2.869377 0.000000 0.000002 0.000000
time 27
  0   -0.967547 0.175787 -20.574476 0.000000 0.000000 -1.572114
  1   -1.093036 0.000002 -0.326057 -0.214014 -1.569082 -1.356583
  2   2.262337 0.113614 0.064702 -0.194376 -0.091286 0.045056
  3   2.380047 0.353302 0.047440 -0.184062 0.041067 0.210973
  4   2.033756 0.190472 -0.000128 -0.280005 0.009276 -0.088613
  5   2.451511 0.204909 -0.003447 -0.251327 0.173112 -0.022772
  6   7.247600 -0.397300 -0.109469 0.000001 0.000021 0.156829
  7   -2.022252 -0.104661 3.136172 1.473631 -1.237819 -4.676111
  8   1.168026 -0.537438 -0.063437 -0.282946 0.826177 -0.932268
  9   6.790376 -0.619176 0.015206 0.023809 0.095954 -1.597723
 10   8.637599 0.544015 -0.090417 -1.623920 -0.126622 -0.148354
 11   6.790465 -0.619039 0.017802 0.036445 0.053158 -1.132994
 12   -2.022474 -0.104699 -2.873818 0.398225 1.512550 -2.766127
 13   1.167898 -0.537463 0.063297 0.193245 -0.757271 -0.494176
 14   7.002743 -0.617765 -0.183752 0.041221 -0.157384 -2.040442
 15   8.209042 0.615527 -0.255885 2.001652 0.518507 -0.437987
 16   7.002735 -0.617911 -0.183641 0.007329 -0.112683 -1.443502
 17   1.574674 0.609930 -0.000899 0.805197 -0.189185 0.084152
 18   -0.602177 0.511412 -0.000006 0.000000 0.000000 0.000000
 19   3.673773 0.177020 1.119313 -0.000002 -0.000014 -0.174510
 20   3.673767 0.176993 -1.117566 0.000007 -0.000003 -0.174546
 21   3.942357 1.334540 1.627658 0.000002 -0.000011 -0.000026
 22   -0.246060 -0.011889 0.516521 -0.000011 0.000031 0.000025
 23   3.942374 1.334565 -1.631083 0.000019 0.000002 -0.000024
 24   -0.246150 -0.011872 -0.516511 -0.000005 -0.000006 0.000048
 25   4.941364 1.997338 1.629330 0.000018 -0.000001 -0.000024
 26   4.941382 1.997366 -1.629410 -0.000001 0.000005 -0.000024
 27   2.914462 1.619264 1.514501 -0.000019 -0.000022 -0.000050
 28   2.916892 1.618870 -1.501142 -0.000002 -0.000009 -0.000024
 29   8.824059 0.150544 0.091743 0.000006 -0.000231 -0.174534
 30   2.111085 -0.561179 1.784320 -0.000008 -0.000682 0.000024
 31   2.121290 -0.561289 -1.853599 0.000000 0.000000 -0.000002
 32   -0.814395 -0.093824 3.127092 3.071965 -0.114691 1.239365
 33   14.298673 -0.408176 0.471578 0.000248 0.000063 -1.896136
 34   15.835795 0.581398 0.242756 -0.214735 0.106913 -0.097869
 35   -0.815868 -0.091229 -3.114430 0.066464 3.132818 -1.010216
 36   14.294526 -0.410349 -0.467541 0.000021 -0.000012 -2.607695
 37   15.834409 0.579420 -0.284600 -0.006092 -0.035255 0.214508
 38   1.139685 -3.453749 -2.823813 0.000000 0.000000 0.000001
 39   -4.457742 -1.054854 -0.746180 0.000000 0.000000 0.000000
 40   1.118101 -3.449769 3.237290 0.000000 0.000001 0.000000
 41   -4.433840 -1.059130 0.959566 -0.000001 0.000000 0.000000
 42   -0.657468 1.697302 -2.688614 0.000000 0.000002 0.000000
 43   -0.664068 1.698578 2.869377 0.000000 0.000002 0.000000
time 28
  0   -0.967547 0.175787 -20.574476 0.000000 0.000000 -1.572114
  1   -1.093036 0.000002 -0.326057 -0.214014 -1.569082 -1.356583
  2   2.262337 0.113614 0.064702 -0.194197 -0.088374 0.044225
  3   2.380047 0.353302 0.047440 -0.183642 0.036861 0.210279
  4   2.033756 0.190472 -0.000128 -0.302708 0.010822 -0.090353
  5   2.451511 0.204909 -0.003447 -0.247698 0.170906 -0.024753
  6   7.247600 -0.397300 -0.109469 0.000001 0.000021 0.156829
  7   -2.022252 -0.104661 3.136172 1.473631 -1.235714 -4.674045
  8   1.168026 -0.537438 -0.063437 -0.292881 0.834982 -0.924930
  9   6.790376 -0.619176 0.015206 0.023698 0.096355 -1.602100
 10   8.637599 0.544015 -0.090417 -1.730214 -0.215173 -0.086789
 11   6.790465 -0.619039 0.017802 0.036445 0.053442 -1.136051
 12   -2.022474 -0.104699 -2.873818 0.371591 1.547408 -2.782691
 13   1.167898 -0.537463 0.063297 0.345718 -0.766679 -0.613369
 14   7.002743 -0.617765 -0.183752 0.037179 -0.154318 -1.987226
 15   8.209042 0.615527 -0.255885 2.143013 0.365448 -0.305023
 16   7.002735 -0.617911 -0.183641 0.006152 -0.109356 -1.406523
 17   1.574674 0.609930 -0.000899 0.839807 -0.206509 0.087738
 18   -0.602177 0.511412 -0.000006 0.000000 0.000000 0.000000
 19   3.673773 0.177020 1.119313 -0.000002 -0.000014 -0.174510
 20   3.673767 0.176993 -1.117566 0.000007 -0.000003 -0.174546
 21   3.942357 1.334540 1.627658 0.000002 -0.000011 -0.000026
 22   -0.246060 -0.011889 0.516521 -0.000011 0.000031 0.000025
 23   3.942374 1.334565 -1.631083 0.000019 0.000002 -0.000024
 24   -0.246150 -0.011872 -0.516511 -0.000005 -0.000006 0.000048
 25   4.941364 1.997338 1.629330 0.000018 -0.000001 -0.000024
 26   4.941382 1.997366 -1.629410 -0.000001 0.000005 -0.000024
 27   2.914462 1.619264 1.514501 -0.000019 -0.000022 -0.000050
 28   2.916892 1.618870 -1.501142 -0.000002 -0.000009 -0.000024
 29   8.824059 0.150544 0.091743 0.000006 -0.000231 -0.174534
 30   2.111085 -0.561179 1.784320 -0.000008 -0.000682 0.000024
 31   2.121290 -0.561289 -1.853599 0.000000 0.000000 -0.000002
 32   -0.814395 -0.093824 3.127092 3.071965 -0.114691 1.239365
 33   14.298673 -0.408176 0.471578 0.000248 0.000063 -1.896136
 34   15.835795 0.581398 0.242756 -0.214735 0.106913 -0.097869
 35   -0.815868 -0.091229 -3.114430 0.066464 3.132818 -1.010216
 36   14.294526 -0.410349 -0.467541 0.000021 -0.000012 -2.607695
 37   15.834409 0.579420 -0.284600 -0.006092 -0.035255 0.214508
 38   1.139685 -3.453749 -2.823813 0.000000 0.000000 0.000001
 39   -4.457742 -1.054854 -0.746180 0.000000 0.000000 0.000000
 40   1.118101 -3.449769 3.237290 0.000000 0.000001 0.000000
 41   -4.433840 -1.059130 0.959566 -0.000001 0.000000 0.000000
 42   -0.657468 1.697302 -2.688614 0.000000 0.000002 0.000000
 43   -0.664068 1.698578 2.869377 0.000000 0.000002 0.000000
time 29
  0   -0.967547 0.175787 -20.574476 0.000000 0.000000 -1.572114
  1   -1.093036 0.000002 -0.326057 -0.214014 -1.569082 -1.356583
  2   2.262337 0.113614 0.064702 -0.193841 -0.085413 0.043249
  3   2.380047 0.353302 0.047440 -0.183117 0.032306 0.209463
  4   2.033756 0.190472 -0.000128 -0.325632 0.012308 -0.092129
  5   2.451511 0.204909 -0.003447 -0.243556 0.168438 -0.026759
  6   7.247600 -0.397300 -0.109469 0.000001 0.000021 0.156829
  7   -2.022252 -0.104661 3.136172 1.471330 -1.235397 -4.670194
  8   1.168026 -0.537438 -0.063437 -0.295412 0.846202 -0.907723
  9   6.790376 -0.619176 0.015206 0.023310 0.096889 -1.608817
 10   8.637599 0.544015 -0.090417 -1.821273 -0.291547 -0.027395
 11   6.790465 -0.619039 0.017802 0.036387 0.053869 -1.140665
 12   -2.022474 -0.104699 -2.873818 -2.638093 1.557392 -5.778334
 13   1.167898 -0.537463 0.063297 0.468033 -0.766679 -0.726811
 14   7.002743 -0.617765 -0.183752 0.032396 -0.150343 -1.922377
 15   8.209042 0.615527 -0.255885 2.227283 0.232514 -0.238572
 16   7.002735 -0.617911 -0.183641 0.004881 -0.105239 -1.361541
 17   1.574674 0.609930 -0.000899 0.874335 -0.223762 0.090879
 18   -0.602177 0.511412 -0.000006 0.000000 0.000000 0.000000
 19   3.673773 0.177020 1.119313 -0.000002 -0.000014 -0.174510
 20   3.673767 0.176993 -1.117566 0.000007 -0.000003 -0.174546
 21   3.942357 1.334540 1.627658 0.000002 -0.000011 -0.000026
 22   -0.246060 -0.011889 0.516521 -0.000011 0.000031 0.000025
 23   3.942374 1.334565 -1.631083 0.000019 0.000002 -0.000024
 24   -0.246150 -0.011872 -0.516511 -0.000005 -0.000006 0.000048
 25   4.941364 1.997338 1.629330 0.000018 -0.000001 -0.000024
 26   4.941382 1.997366 -1.629410 -0.000001 0.000005 -0.000024
 27   2.914462 1.619264 1.514501 -0.000019 -0.000022 -0.000050
 28   2.916892 1.618870 -1.501142 -0.000002 -0.000009 -0.000024
 29   8.824059 0.150544 0.091743 0.000006 -0.000231 -0.174534
 30   2.111085 -0.561179 1.784320 -0.000008 -0.000682 0.000024
 31   2.121290 -0.561289 -1.853599 0.000000 0.000000 -0.000002
 32   -0.814395 -0.093824 3.127092 3.071965 -0.114691 1.239365
 33   14.298673 -0.408176 0.471578 0.000248 0.000063 -1.896136
 34   15.835795 0.581398 0.242756 -0.214735 0.106913 -0.097869
 35   -0.815868 -0.091229 -3.114430 0.066464 3.132818 -1.010216
 36   14.294526 -0.410349 -0.467541 0.000021 -0.000012 -2.607695
 37   15.834409 0.579420 -0.284600 -0.006092 -0.035255 0.214508
 38   1.139685 -3.453749 -2.823813 0.000000 0.000000 0.000001
 39   -4.457742 -1.054854 -0.746180 0.000000 0.000000 0.000000
 40   1.118101 -3.449769 3.237290 0.000000 0.000001 0.000000
 41   -4.433840 -1.059130 0.959566 -0.000001 0.000000 0.000000
 42   -0.657468 1.697302 -2.688614 0.000000 0.000002 0.000000
 43   -0.664068 1.698578 2.869377 0.000000 0.000002 0.000000
time 30
  0   -0.967547 0.175787 -20.574476 0.000000 0.000000 -1.572114
  1   -1.093036 0.000002 -0.326057 -0.214014 -1.569082 -1.356583
  2   2.262337 0.113614 0.064702 -0.193904 -0.082717 0.042400
  3   2.380047 0.353302 0.047440 -0.182832 0.028268 0.208708
  4   2.033756 0.190472 -0.000128 -0.347911 0.013926 -0.094195
  5   2.451511 0.204909 -0.003447 -0.240372 0.166584 -0.028567
  6   7.247600 -0.397300 -0.109469 0.000001 0.000021 0.156829
  7   -2.022252 -0.104661 3.136172 1.473151 -1.231650 -4.670100
  8   1.168026 -0.537438 -0.063437 -0.290413 0.858831 -0.877105
  9   6.790376 -0.619176 0.015206 0.022644 0.097890 -1.620665
 10   8.637599 0.544015 -0.090417 -1.856499 -0.323504 0.001688
 11   6.790465 -0.619039 0.017802 0.036329 0.054665 -1.148970
 12   -2.022474 -0.104699 -2.873818 -2.729876 1.524450 -5.860575
 13   1.167898 -0.537463 0.063297 0.533268 -0.778986 -0.797092
 14   7.002743 -0.617765 -0.183752 0.029607 -0.147787 -1.882444
 15   8.209042 0.615527 -0.255885 2.247559 0.176072 -0.229611
 16   7.002735 -0.617911 -0.183641 0.004222 -0.102702 -1.333779
 17   1.574674 0.609930 -0.000899 0.909188 -0.241347 0.092764
 18   -0.602177 0.511412 -0.000006 0.000000 0.000000 0.000000
 19   3.673773 0.177020 1.119313 -0.000002 -0.000014 -0.174510
 20   3.673767 0.176993 -1.117566 0.000007 -0.000003 -0.174546
 21   3.942357 1.334540 1.627658 0.000002 -0.000011 -0.000026
 22   -0.246060 -0.011889 0.516521 -0.000011 0.000031 0.000025
 23   3.942374 1.334565 -1.631083 0.000019 0.000002 -0.000024
 24   -0.246150 -0.011872 -0.516511 -0.000005 -0.000006 0.000048
 25   4.941364 1.997338 1.629330 0.000018 -0.000001 -0.000024
 26   4.941382 1.997366 -1.629410 -0.000001 0.000005 -0.000024
 27   2.914462 1.619264 1.514501 -0.000019 -0.000022 -0.000050
 28   2.916892 1.618870 -1.501142 -0.000002 -0.000009 -0.000024
 29   8.824059 0.150544 0.091743 0.000006 -0.000231 -0.174534
 30   2.111085 -0.561179 1.784320 -0.000008 -0.000682 0.000024
 31   2.121290 -0.561289 -1.853599 0.000000 0.000000 -0.000002
 32   -0.814395 -0.093824 3.127092 3.071965 -0.114691 1.239365
 33   14.298673 -0.408176 0.471578 0.000248 0.000063 -1.896136
 34   15.835795 0.581398 0.242756 -0.214735 0.106913 -0.097869
 35   -0.815868 -0.091229 -3.114430 0.066464 3.132818 -1.010216
 36   14.294526 -0.410349 -0.467541 0.000021 -0.000012 -2.607695
 37   15.834409 0.579420 -0.284600 -0.006092 -0.035255 0.214508
 38   1.139685 -3.453749 -2.823813 0.000000 0.000000 0.000001
 39   -4.457742 -1.054854 -0.746180 0.000000 0.000000 0.000000
 40   1.118101 -3.449769 3.237290 0.000000 0.000001 0.000000
 41   -4.433840 -1.059130 0.959566 -0.000001 0.000000 0.000000
 42   -0.657468 1.697302 -2.688614 0.000000 0.000002 0.000000
 43   -0.664068 1.698578 2.869377 0.000000 0.000002 0.000000
end
