version 1
nodes
  0 "Bip01" -1
  1 "Bip01 Pelvis" 0
  2 "Bip01 Spine" 1
  3 "Bip01 Spine1" 2
  4 "Bip01 Spine2" 3
  5 "Bip01 Spine3" 4
  6 "Bip01 Neck" 5
  7 "Bip01 L Arm" 6
  8 "Bip01 L Arm1" 7
  9 "Bip01 L Arm2" 8
 10 "Bip01 L Hand" 9
 11 "Bip06 L elbow2-smooth" 8
 12 "Bip01 R Arm" 6
 13 "Bip01 R Arm1" 12
 14 "Bip01 R Arm2" 13
 15 "Bip01 R Hand" 14
 16 "Bip06 R elbow2-smooth" 13
 17 "Bip01 Head" 6
 18 "Bip06 Head_helper" 17
 19 "Bip06 Head_eyes_l" 18
 20 "Bip06 Head_eyes_r" 18
 21 "Bip06 Head_blink_l" 18
 22 "Bip06 Head_blink_smooth_l1" 21
 23 "Bip06 Head_blink_r" 18
 24 "Bip06 Head_blink_smooth_r1" 23
 25 "Bip06 Head_L_eyebrow" 18
 26 "Bip06 Head_R_eyebrow" 18
 27 "Bip06 Head_blink_l_lid" 18
 28 "Bip06 Head_blink_r_lid" 18
 29 "Bip06 bunny" 18
 30 "Bip06 bunnyL" 29
 31 "Bip06 bunnyR" 29
 32 "Bip01 L Leg" 1
 33 "Bip01 L Leg1" 32
 34 "Bip01 L Foot" 33
 35 "Bip01 R Leg" 1
 36 "Bip01 R Leg1" 35
 37 "Bip01 R Foot" 36
 38 "Bip03 HairR1" 17
 39 "Bip03 HairR2" 38
 40 "Bip03 HairL1" 17
 41 "Bip03 HairL2" 40
 42 "Bip03 swingR" 17
 43 "Bip03 swingL" 17
end
skeleton
time 0
  0   -0.967547 0.175787 -20.574476 0.000000 0.000000 -1.572114
  1   -1.093036 0.000002 -0.326057 -1.570808 -1.570425 -0.000219
  2   2.262337 0.113614 0.064702 -0.000052 0.000049 -0.217080
  3   2.380047 0.353302 0.047440 -0.269688 -0.015944 -0.058788
  4   2.033756 0.190472 -0.000128 -0.269954 -0.013554 -0.050553
  5   2.451511 0.204909 -0.003447 -0.138715 -0.014340 -0.103532
  6   7.247600 -0.397300 -0.109469 0.000001 0.000033 0.052298
  7   -2.022252 -0.104661 3.136172 1.070165 -1.170882 -4.229632
  8   1.168026 -0.537438 -0.063437 -1.486983 0.291839 -1.294308
  9   6.790376 -0.619176 0.015206 -0.000158 -0.000151 -1.208537
 10   8.637599 0.544015 -0.090417 -3.510973 0.279530 0.733016
 11   6.790465 -0.619039 0.017802 0.001206 -0.011623 -0.861172
 12   -2.022474 -0.104699 -2.873818 0.298873 1.361800 -2.901888
 13   1.167898 -0.537463 0.063297 1.045517 -0.580297 -1.635680
 14   7.002743 -0.617765 -0.183752 0.000286 0.000250 -1.753571
 15   8.209042 0.615527 -0.255885 2.034799 -0.197232 0.869278
 16   7.002735 -0.617911 -0.183641 0.013308 0.009736 -1.246188
 17   1.574674 0.609930 -0.000899 0.524991 -0.030972 0.035364
 18   -0.602177 0.511412 -0.000006 0.000000 0.000000 0.000000
 19   3.673773 0.177020 1.119313 -0.000002 -0.000014 -0.174510
 20   3.673767 0.176993 -1.117566 0.000007 -0.000003 -0.174546
 21   3.942357 1.334540 1.627658 0.000002 -0.000011 -0.000026
 22   -0.246060 -0.011889 0.516521 -0.000011 0.000031 0.000025
 23   3.942374 1.334565 -1.631083 0.000019 0.000002 -0.000024
 24   -0.246150 -0.011872 -0.516511 -0.000005 -0.000006 0.000048
 25   4.941364 1.997338 1.629330 0.000018 -0.000001 -0.000024
 26   4.941382 1.997366 -1.629410 -0.000001 0.000005 -0.000024
 27   2.914462 1.619264 1.514501 -0.000019 -0.000022 -0.000050
 28   2.916892 1.618870 -1.501142 -0.000002 -0.000009 -0.000024
 29   8.824059 0.150544 0.091743 0.000006 -0.000231 -0.174534
 30   2.111085 -0.561179 1.784320 -0.000008 -0.000682 0.000024
 31   2.121290 -0.561289 -1.853599 0.000000 0.000000 -0.000002
 32   -0.814395 -0.093824 3.127092 3.071965 -0.114691 1.239365
 33   14.298673 -0.408176 0.471578 0.000248 0.000063 -1.896136
 34   15.835795 0.581398 0.242756 -0.214735 0.106913 -0.097869
 35   -0.815868 -0.091229 -3.114430 0.066464 3.132818 -1.010216
 36   14.294526 -0.410349 -0.467541 0.000021 -0.000012 -2.607695
 37   15.834409 0.579420 -0.284600 -0.006092 -0.035255 0.214508
 38   1.139685 -3.453749 -2.823813 0.000000 0.000000 0.000001
 39   -4.457742 -1.054854 -0.746180 0.000000 0.000000 0.000000
 40   1.118101 -3.449769 3.237290 0.000000 0.000001 0.000000
 41   -4.433840 -1.059130 0.959566 -0.000001 0.000000 0.000000
 42   -0.657468 1.697302 -2.688614 0.000000 0.000002 0.000000
 43   -0.664068 1.698578 2.869377 0.000000 0.000002 0.000000
time 1
  0   -0.967547 0.175787 -20.574476 0.000000 0.000000 -1.572114
  1   -1.093036 0.000002 -0.326057 -1.570808 -1.570425 -0.000219
  2   2.262337 0.113614 0.064702 -0.051741 -0.011325 -0.216845
  3   2.380047 0.353302 0.047440 -0.325597 -0.015129 -0.164346
  4   2.033756 0.190472 -0.000128 -0.323050 -0.016299 -0.049828
  5   2.451511 0.204909 -0.003447 -0.191589 -0.019784 -0.102566
  6   7.247600 -0.397300 -0.109469 0.000001 0.000033 0.052298
  7   -2.022252 -0.104661 3.136172 1.070165 -1.170882 -4.229632
  8   1.168026 -0.537438 -0.063437 -1.501664 0.427134 -1.243699
  9   6.790376 -0.619176 0.015206 -0.000158 -0.000285 -1.543613
 10   8.637599 0.544015 -0.090417 -3.267738 0.181054 0.828294
 11   6.790465 -0.619039 0.017802 0.002607 -0.011793 -1.095736
 12   -2.022474 -0.104699 -2.873818 0.298873 1.361800 -2.901888
 13   1.167898 -0.537463 0.063297 1.113634 -0.672140 -1.748577
 14   7.002743 -0.617765 -0.183752 0.000286 0.000250 -1.857940
 15   8.209042 0.615527 -0.255885 2.051912 -0.190271 0.732947
 16   7.002735 -0.617911 -0.183641 0.013120 0.010356 -1.319263
 17   1.574674 0.609930 -0.000899 0.740812 -0.108055 0.127803
 18   -0.602177 0.511412 -0.000006 0.000000 0.000000 0.000000
 19   3.673773 0.177020 1.119313 -0.000002 -0.000014 -0.174510
 20   3.673767 0.176993 -1.117566 0.000007 -0.000003 -0.174546
 21   3.942357 1.334540 1.627658 0.000002 -0.000011 -0.000026
 22   -0.246060 -0.011889 0.516521 -0.000011 0.000031 0.000025
 23   3.942374 1.334565 -1.631083 0.000019 0.000002 -0.000024
 24   -0.246150 -0.011872 -0.516511 -0.000005 -0.000006 0.000048
 25   4.941364 1.997338 1.629330 0.000018 -0.000001 -0.000024
 26   4.941382 1.997366 -1.629410 -0.000001 0.000005 -0.000024
 27   2.914462 1.619264 1.514501 -0.000019 -0.000022 -0.000050
 28   2.916892 1.618870 -1.501142 -0.000002 -0.000009 -0.000024
 29   8.824059 0.150544 0.091743 0.000006 -0.000231 -0.174534
 30   2.111085 -0.561179 1.784320 -0.000008 -0.000682 0.000024
 31   2.121290 -0.561289 -1.853599 0.000000 0.000000 -0.000002
 32   -0.814395 -0.093824 3.127092 3.071965 -0.114691 1.239365
 33   14.298673 -0.408176 0.471578 0.000248 0.000063 -1.896136
 34   15.835795 0.581398 0.242756 -0.214735 0.106913 -0.097869
 35   -0.815868 -0.091229 -3.114430 0.066464 3.132818 -1.010216
 36   14.294526 -0.410349 -0.467541 0.000021 -0.000012 -2.607695
 37   15.834409 0.579420 -0.284600 -0.006092 -0.035255 0.214508
 38   1.139685 -3.453749 -2.823813 0.000000 0.000000 0.000001
 39   -4.457742 -1.054854 -0.746180 0.000000 0.000000 0.000000
 40   1.118101 -3.449769 3.237290 0.000000 0.000001 0.000000
 41   -4.433840 -1.059130 0.959566 -0.000001 0.000000 0.000000
 42   -0.657468 1.697302 -2.688614 0.000000 0.000002 0.000000
 43   -0.664068 1.698578 2.869377 0.000000 0.000002 0.000000
time 2
  0   -0.967547 0.175787 -20.574476 0.000000 0.000000 -1.572114
  1   -1.093036 0.000002 -0.326057 -1.570808 -1.570425 -0.000219
  2   2.262337 0.113614 0.064702 -0.103761 -0.022866 -0.215887
  3   2.380047 0.353302 0.047440 -0.381236 -0.019994 -0.269761
  4   2.033756 0.190472 -0.000128 -0.376165 -0.018876 -0.048777
  5   2.451511 0.204909 -0.003447 -0.244463 -0.025202 -0.101402
  6   7.247600 -0.397300 -0.109469 0.000001 0.000033 0.052298
  7   -2.022252 -0.104661 3.136172 1.070165 -1.170882 -4.229632
  8   1.168026 -0.537438 -0.063437 -1.517801 0.481172 -1.205111
  9   6.790376 -0.619176 0.015206 -0.000158 -0.000151 -1.770845
 10   8.637599 0.544015 -0.090417 -2.988485 0.178872 0.926392
 11   6.790465 -0.619039 0.017802 0.003600 -0.011850 -1.254919
 12   -2.022474 -0.104699 -2.873818 0.298873 1.361800 -2.901888
 13   1.167898 -0.537463 0.063297 1.178447 -0.768103 -1.855057
 14   7.002743 -0.617765 -0.183752 0.000286 0.000250 -1.962392
 15   8.209042 0.615527 -0.255885 2.068162 -0.180587 0.596916
 16   7.002735 -0.617911 -0.183641 0.012978 0.011033 -1.392283
 17   1.574674 0.609930 -0.000899 0.949484 -0.214390 0.196699
 18   -0.602177 0.511412 -0.000006 0.000000 0.000000 0.000000
 19   3.673773 0.177020 1.119313 -0.000002 -0.000014 -0.174510
 20   3.673767 0.176993 -1.117566 0.000007 -0.000003 -0.174546
 21   3.942357 1.334540 1.627658 0.000002 -0.000011 -0.000026
 22   -0.246060 -0.011889 0.516521 -0.000011 0.000031 0.000025
 23   3.942374 1.334565 -1.631083 0.000019 0.000002 -0.000024
 24   -0.246150 -0.011872 -0.516511 -0.000005 -0.000006 0.000048
 25   4.941364 1.997338 1.629330 0.000018 -0.000001 -0.000024
 26   4.941382 1.997366 -1.629410 -0.000001 0.000005 -0.000024
 27   2.914462 1.619264 1.514501 -0.000019 -0.000022 -0.000050
 28   2.916892 1.618870 -1.501142 -0.000002 -0.000009 -0.000024
 29   8.824059 0.150544 0.091743 0.000006 -0.000231 -0.174534
 30   2.111085 -0.561179 1.784320 -0.000008 -0.000682 0.000024
 31   2.121290 -0.561289 -1.853599 0.000000 0.000000 -0.000002
 32   -0.814395 -0.093824 3.127092 3.071965 -0.114691 1.239365
 33   14.298673 -0.408176 0.471578 0.000248 0.000063 -1.896136
 34   15.835795 0.581398 0.242756 -0.214735 0.106913 -0.097869
 35   -0.815868 -0.091229 -3.114430 0.066464 3.132818 -1.010216
 36   14.294526 -0.410349 -0.467541 0.000021 -0.000012 -2.607695
 37   15.834409 0.579420 -0.284600 -0.006092 -0.035255 0.214508
 38   1.139685 -3.453749 -2.823813 0.000000 0.000000 0.000001
 39   -4.457742 -1.054854 -0.746180 0.000000 0.000000 0.000000
 40   1.118101 -3.449769 3.237290 0.000000 0.000001 0.000000
 41   -4.433840 -1.059130 0.959566 -0.000001 0.000000 0.000000
 42   -0.657468 1.697302 -2.688614 0.000000 0.000002 0.000000
 43   -0.664068 1.698578 2.869377 0.000000 0.000002 0.000000
time 3
  0   -0.967547 0.175787 -20.574476 0.000000 0.000000 -1.572114
  1   -1.093036 0.000002 -0.326057 -1.570808 -1.570425 -0.000219
  2   2.262337 0.113614 0.064702 -0.127287 -0.028007 -0.215327
  3   2.380047 0.353302 0.047440 -0.406137 -0.024333 -0.317551
  4   2.033756 0.190472 -0.000128 -0.400306 -0.019894 -0.048379
  5   2.451511 0.204909 -0.003447 -0.268598 -0.027565 -0.100684
  6   7.247600 -0.397300 -0.109469 0.000001 0.000033 0.052298
  7   -2.022252 -0.104661 3.136172 1.070165 -1.170882 -4.229632
  8   1.168026 -0.537438 -0.063437 -1.525521 0.432115 -1.177719
  9   6.790376 -0.619176 0.015206 -0.000158 -0.000285 -1.937327
 10   8.637599 0.544015 -0.090417 -2.693908 0.219980 1.022321
 11   6.790465 -0.619039 0.017802 0.004388 -0.011935 -1.371422
 12   -2.022474 -0.104699 -2.873818 0.298873 1.361800 -2.901888
 13   1.167898 -0.537463 0.063297 1.230256 -0.802328 -1.866075
 14   7.002743 -0.617765 -0.183752 0.000286 0.000250 -2.049105
 15   8.209042 0.615527 -0.255885 2.081464 -0.169616 0.475018
 16   7.002735 -0.617911 -0.183641 0.012790 0.011540 -1.452940
 17   1.574674 0.609930 -0.000899 1.042507 -0.279474 0.222239
 18   -0.602177 0.511412 -0.000006 0.000000 0.000000 0.000000
 19   3.673773 0.177020 1.119313 -0.000002 -0.000014 -0.174510
 20   3.673767 0.176993 -1.117566 0.000007 -0.000003 -0.174546
 21   3.942357 1.334540 1.627658 0.000002 -0.000011 -0.000026
 22   -0.246060 -0.011889 0.516521 -0.000011 0.000031 0.000025
 23   3.942374 1.334565 -1.631083 0.000019 0.000002 -0.000024
 24   -0.246150 -0.011872 -0.516511 -0.000005 -0.000006 0.000048
 25   4.941364 1.997338 1.629330 0.000018 -0.000001 -0.000024
 26   4.941382 1.997366 -1.629410 -0.000001 0.000005 -0.000024
 27   2.914462 1.619264 1.514501 -0.000019 -0.000022 -0.000050
 28   2.916892 1.618870 -1.501142 -0.000002 -0.000009 -0.000024
 29   8.824059 0.150544 0.091743 0.000006 -0.000231 -0.174534
 30   2.111085 -0.561179 1.784320 -0.000008 -0.000682 0.000024
 31   2.121290 -0.561289 -1.853599 0.000000 0.000000 -0.000002
 32   -0.814395 -0.093824 3.127092 3.071965 -0.114691 1.239365
 33   14.298673 -0.408176 0.471578 0.000248 0.000063 -1.896136
 34   15.835795 0.581398 0.242756 -0.214735 0.106913 -0.097869
 35   -0.815868 -0.091229 -3.114430 0.066464 3.132818 -1.010216
 36   14.294526 -0.410349 -0.467541 0.000021 -0.000012 -2.607695
 37   15.834409 0.579420 -0.284600 -0.006092 -0.035255 0.214508
 38   1.139685 -3.453749 -2.823813 0.000000 0.000000 0.000001
 39   -4.457742 -1.054854 -0.746180 0.000000 0.000000 0.000000
 40   1.118101 -3.449769 3.237290 0.000000 0.000001 0.000000
 41   -4.433840 -1.059130 0.959566 -0.000001 0.000000 0.000000
 42   -0.657468 1.697302 -2.688614 0.000000 0.000002 0.000000
 43   -0.664068 1.698578 2.869377 0.000000 0.000002 0.000000
time 4
  0   -0.967547 0.175787 -20.574476 0.000000 0.000000 -1.572114
  1   -1.093036 0.000002 -0.326057 -1.570808 -1.570425 -0.000219
  2   2.262337 0.113614 0.064702 -0.124421 -0.027360 -0.215417
  3   2.380047 0.353302 0.047440 -0.403047 -0.023698 -0.311613
  4   2.033756 0.190472 -0.000128 -0.397263 -0.019751 -0.048487
  5   2.451511 0.204909 -0.003447 -0.265568 -0.027317 -0.100783
  6   7.247600 -0.397300 -0.109469 0.000001 0.000033 0.052298
  7   -2.022252 -0.104661 3.136172 1.070165 -1.170882 -4.229632
  8   1.168026 -0.537438 -0.063437 -1.527546 0.442530 -1.180376
  9   6.790376 -0.619176 0.015206 -0.000158 -0.000285 -1.918913
 10   8.637599 0.544015 -0.090417 -2.730102 0.211744 1.002571
 11   6.790465 -0.619039 0.017802 0.004271 -0.011935 -1.358445
 12   -2.022474 -0.104699 -2.873818 0.298873 1.361800 -2.901888
 13   1.167898 -0.537463 0.063297 1.221328 -0.802989 -1.860748
 14   7.002743 -0.617765 -0.183752 0.000286 0.000250 -2.041927
 15   8.209042 0.615527 -0.255885 2.086641 -0.164622 0.426848
 16   7.002735 -0.617911 -0.183641 0.012790 0.011484 -1.448083
 17   1.574674 0.609930 -0.000899 1.030565 -0.282598 0.224382
 18   -0.602177 0.511412 -0.000006 0.000000 0.000000 0.000000
 19   3.673773 0.177020 1.119313 -0.000002 -0.000014 -0.174510
 20   3.673767 0.176993 -1.117566 0.000007 -0.000003 -0.174546
 21   3.942357 1.334540 1.627658 0.000002 -0.000011 -0.000026
 22   -0.246060 -0.011889 0.516521 -0.000011 0.000031 0.000025
 23   3.942374 1.334565 -1.631083 0.000019 0.000002 -0.000024
 24   -0.246150 -0.011872 -0.516511 -0.000005 -0.000006 0.000048
 25   4.941364 1.997338 1.629330 0.000018 -0.000001 -0.000024
 26   4.941382 1.997366 -1.629410 -0.000001 0.000005 -0.000024
 27   2.914462 1.619264 1.514501 -0.000019 -0.000022 -0.000050
 28   2.916892 1.618870 -1.501142 -0.000002 -0.000009 -0.000024
 29   8.824059 0.150544 0.091743 0.000006 -0.000231 -0.174534
 30   2.111085 -0.561179 1.784320 -0.000008 -0.000682 0.000024
 31   2.121290 -0.561289 -1.853599 0.000000 0.000000 -0.000002
 32   -0.814395 -0.093824 3.127092 3.071965 -0.114691 1.239365
 33   14.298673 -0.408176 0.471578 0.000248 0.000063 -1.896136
 34   15.835795 0.581398 0.242756 -0.214735 0.106913 -0.097869
 35   -0.815868 -0.091229 -3.114430 0.066464 3.132818 -1.010216
 36   14.294526 -0.410349 -0.467541 0.000021 -0.000012 -2.607695
 37   15.834409 0.579420 -0.284600 -0.006092 -0.035255 0.214508
 38   1.139685 -3.453749 -2.823813 0.000000 0.000000 0.000001
 39   -4.457742 -1.054854 -0.746180 0.000000 0.000000 0.000000
 40   1.118101 -3.449769 3.237290 0.000000 0.000001 0.000000
 41   -4.433840 -1.059130 0.959566 -0.000001 0.000000 0.000000
 42   -0.657468 1.697302 -2.688614 0.000000 0.000002 0.000000
 43   -0.664068 1.698578 2.869377 0.000000 0.000002 0.000000
time 5
  0   -0.967547 0.175787 -20.574476 0.000000 0.000000 -1.572114
  1   -1.093036 0.000002 -0.326057 -1.570808 -1.570425 -0.000219
  2   2.262337 0.113614 0.064702 -0.116218 -0.025467 -0.215706
  3   2.380047 0.353302 0.047440 -0.394301 -0.022140 -0.294942
  4   2.033756 0.190472 -0.000128 -0.388890 -0.019487 -0.048632
  5   2.451511 0.204909 -0.003447 -0.257164 -0.026482 -0.101105
  6   7.247600 -0.397300 -0.109469 0.000001 0.000033 0.052298
  7   -2.022252 -0.104661 3.136172 1.070165 -1.170882 -4.229632
  8   1.168026 -0.537438 -0.063437 -1.528242 0.463864 -1.189612
  9   6.790376 -0.619176 0.015206 -0.000158 -0.000285 -1.865331
 10   8.637599 0.544015 -0.090417 -2.829263 0.193161 0.962058
 11   6.790465 -0.619039 0.017802 0.004038 -0.011879 -1.321014
 12   -2.022474 -0.104699 -2.873818 0.298873 1.361800 -2.901888
 13   1.167898 -0.537463 0.063297 1.205300 -0.812906 -1.865833
 14   7.002743 -0.617765 -0.183752 0.000286 0.000250 -2.011730
 15   8.209042 0.615527 -0.255885 2.078444 -0.172567 0.505748
 16   7.002735 -0.617911 -0.183641 0.012884 0.011315 -1.426889
 17   1.574674 0.609930 -0.000899 0.998067 -0.264375 0.218690
 18   -0.602177 0.511412 -0.000006 0.000000 0.000000 0.000000
 19   3.673773 0.177020 1.119313 -0.000002 -0.000014 -0.174510
 20   3.673767 0.176993 -1.117566 0.000007 -0.000003 -0.174546
 21   3.942357 1.334540 1.627658 0.000002 -0.000011 -0.000026
 22   -0.246060 -0.011889 0.516521 -0.000011 0.000031 0.000025
 23   3.942374 1.334565 -1.631083 0.000019 0.000002 -0.000024
 24   -0.246150 -0.011872 -0.516511 -0.000005 -0.000006 0.000048
 25   4.941364 1.997338 1.629330 0.000018 -0.000001 -0.000024
 26   4.941382 1.997366 -1.629410 -0.000001 0.000005 -0.000024
 27   2.914462 1.619264 1.514501 -0.000019 -0.000022 -0.000050
 28   2.916892 1.618870 -1.501142 -0.000002 -0.000009 -0.000024
 29   8.824059 0.150544 0.091743 0.000006 -0.000231 -0.174534
 30   2.111085 -0.561179 1.784320 -0.000008 -0.000682 0.000024
 31   2.121290 -0.561289 -1.853599 0.000000 0.000000 -0.000002
 32   -0.814395 -0.093824 3.127092 3.071965 -0.114691 1.239365
 33   14.298673 -0.408176 0.471578 0.000248 0.000063 -1.896136
 34   15.835795 0.581398 0.242756 -0.214735 0.106913 -0.097869
 35   -0.815868 -0.091229 -3.114430 0.066464 3.132818 -1.010216
 36   14.294526 -0.410349 -0.467541 0.000021 -0.000012 -2.607695
 37   15.834409 0.579420 -0.284600 -0.006092 -0.035255 0.214508
 38   1.139685 -3.453749 -2.823813 0.000000 0.000000 0.000001
 39   -4.457742 -1.054854 -0.746180 0.000000 0.000000 0.000000
 40   1.118101 -3.449769 3.237290 0.000000 0.000001 0.000000
 41   -4.433840 -1.059130 0.959566 -0.000001 0.000000 0.000000
 42   -0.657468 1.697302 -2.688614 0.000000 0.000002 0.000000
 43   -0.664068 1.698578 2.869377 0.000000 0.000002 0.000000
time 6
  0   -0.967547 0.175787 -20.574476 0.000000 0.000000 -1.572114
  1   -1.093036 0.000002 -0.326057 -1.570808 -1.570425 -0.000219
  2   2.262337 0.113614 0.064702 -0.103761 -0.022866 -0.215887
  3   2.380047 0.353302 0.047440 -0.381236 -0.019994 -0.269761
  4   2.033756 0.190472 -0.000128 -0.376165 -0.018876 -0.048777
  5   2.451511 0.204909 -0.003447 -0.244463 -0.025202 -0.101402
  6   7.247600 -0.397300 -0.109469 0.000001 0.000033 0.052298
  7   -2.022252 -0.104661 3.136172 1.070165 -1.170882 -4.229632
  8   1.168026 -0.537438 -0.063437 -1.525078 0.476643 -1.205806
  9   6.790376 -0.619176 0.015206 -0.000158 -0.000285 -1.809107
 10   8.637599 0.544015 -0.090417 -2.944628 0.174508 0.930805
 11   6.790465 -0.619039 0.017802 0.003775 -0.011879 -1.281622
 12   -2.022474 -0.104699 -2.873818 0.298873 1.361800 -2.901888
 13   1.167898 -0.537463 0.063297 1.189484 -0.818144 -1.859053
 14   7.002743 -0.617765 -0.183752 0.000286 0.000250 -1.979223
 15   8.209042 0.615527 -0.255885 2.067514 -0.181116 0.602809
 16   7.002735 -0.617911 -0.183641 0.012931 0.011146 -1.404040
 17   1.574674 0.609930 -0.000899 0.948997 -0.235099 0.207196
 18   -0.602177 0.511412 -0.000006 0.000000 0.000000 0.000000
 19   3.673773 0.177020 1.119313 -0.000002 -0.000014 -0.174510
 20   3.673767 0.176993 -1.117566 0.000007 -0.000003 -0.174546
 21   3.942357 1.334540 1.627658 0.000002 -0.000011 -0.000026
 22   -0.246060 -0.011889 0.516521 -0.000011 0.000031 0.000025
 23   3.942374 1.334565 -1.631083 0.000019 0.000002 -0.000024
 24   -0.246150 -0.011872 -0.516511 -0.000005 -0.000006 0.000048
 25   4.941364 1.997338 1.629330 0.000018 -0.000001 -0.000024
 26   4.941382 1.997366 -1.629410 -0.000001 0.000005 -0.000024
 27   2.914462 1.619264 1.514501 -0.000019 -0.000022 -0.000050
 28   2.916892 1.618870 -1.501142 -0.000002 -0.000009 -0.000024
 29   8.824059 0.150544 0.091743 0.000006 -0.000231 -0.174534
 30   2.111085 -0.561179 1.784320 -0.000008 -0.000682 0.000024
 31   2.121290 -0.561289 -1.853599 0.000000 0.000000 -0.000002
 32   -0.814395 -0.093824 3.127092 3.071965 -0.114691 1.239365
 33   14.298673 -0.408176 0.471578 0.000248 0.000063 -1.896136
 34   15.835795 0.581398 0.242756 -0.214735 0.106913 -0.097869
 35   -0.815868 -0.091229 -3.114430 0.066464 3.132818 -1.010216
 36   14.294526 -0.410349 -0.467541 0.000021 -0.000012 -2.607695
 37   15.834409 0.579420 -0.284600 -0.006092 -0.035255 0.214508
 38   1.139685 -3.453749 -2.823813 0.000000 0.000000 0.000001
 39   -4.457742 -1.054854 -0.746180 0.000000 0.000000 0.000000
 40   1.118101 -3.449769 3.237290 0.000000 0.000001 0.000000
 41   -4.433840 -1.059130 0.959566 -0.000001 0.000000 0.000000
 42   -0.657468 1.697302 -2.688614 0.000000 0.000002 0.000000
 43   -0.664068 1.698578 2.869377 0.000000 0.000002 0.000000
time 7
  0   -0.967547 0.175787 -20.574476 0.000000 0.000000 -1.572114
  1   -1.093036 0.000002 -0.326057 -1.570808 -1.570425 -0.000219
  2   2.262337 0.113614 0.064702 -0.088183 -0.019414 -0.216303
  3   2.380047 0.353302 0.047440 -0.364554 -0.018017 -0.238194
  4   2.033756 0.190472 -0.000128 -0.360249 -0.018109 -0.049212
  5   2.451511 0.204909 -0.003447 -0.228647 -0.023596 -0.101724
  6   7.247600 -0.397300 -0.109469 0.000001 0.000033 0.052298
  7   -2.022252 -0.104661 3.136172 1.070165 -1.170882 -4.229632
  8   1.168026 -0.537438 -0.063437 -1.519193 0.480970 -1.226050
  9   6.790376 -0.619176 0.015206 -0.000158 -0.000151 -1.770619
 10   8.637599 0.544015 -0.090417 -3.077782 0.154869 0.924294
 11   6.790465 -0.619039 0.017802 0.003600 -0.011850 -1.254630
 12   -2.022474 -0.104699 -2.873818 0.298873 1.361800 -2.901888
 13   1.167898 -0.537463 0.063297 1.172332 -0.814991 -1.840711
 14   7.002743 -0.617765 -0.183752 0.000286 0.000250 -1.944983
 15   8.209042 0.615527 -0.255885 2.055435 -0.188531 0.704742
 16   7.002735 -0.617911 -0.183641 0.012978 0.010920 -1.380196
 17   1.574674 0.609930 -0.000899 0.887171 -0.198486 0.189787
 18   -0.602177 0.511412 -0.000006 0.000000 0.000000 0.000000
 19   3.673773 0.177020 1.119313 -0.000002 -0.000014 -0.174510
 20   3.673767 0.176993 -1.117566 0.000007 -0.000003 -0.174546
 21   3.942357 1.334540 1.627658 0.000002 -0.000011 -0.000026
 22   -0.246060 -0.011889 0.516521 -0.000011 0.000031 0.000025
 23   3.942374 1.334565 -1.631083 0.000019 0.000002 -0.000024
 24   -0.246150 -0.011872 -0.516511 -0.000005 -0.000006 0.000048
 25   4.941364 1.997338 1.629330 0.000018 -0.000001 -0.000024
 26   4.941382 1.997366 -1.629410 -0.000001 0.000005 -0.000024
 27   2.914462 1.619264 1.514501 -0.000019 -0.000022 -0.000050
 28   2.916892 1.618870 -1.501142 -0.000002 -0.000009 -0.000024
 29   8.824059 0.150544 0.091743 0.000006 -0.000231 -0.174534
 30   2.111085 -0.561179 1.784320 -0.000008 -0.000682 0.000024
 31   2.121290 -0.561289 -1.853599 0.000000 0.000000 -0.000002
 32   -0.814395 -0.093824 3.127092 3.071965 -0.114691 1.239365
 33   14.298673 -0.408176 0.471578 0.000248 0.000063 -1.896136
 34   15.835795 0.581398 0.242756 -0.214735 0.106913 -0.097869
 35   -0.815868 -0.091229 -3.114430 0.066464 3.132818 -1.010216
 36   14.294526 -0.410349 -0.467541 0.000021 -0.000012 -2.607695
 37   15.834409 0.579420 -0.284600 -0.006092 -0.035255 0.214508
 38   1.139685 -3.453749 -2.823813 0.000000 0.000000 0.000001
 39   -4.457742 -1.054854 -0.746180 0.000000 0.000000 0.000000
 40   1.118101 -3.449769 3.237290 0.000000 0.000001 0.000000
 41   -4.433840 -1.059130 0.959566 -0.000001 0.000000 0.000000
 42   -0.657468 1.697302 -2.688614 0.000000 0.000002 0.000000
 43   -0.664068 1.698578 2.869377 0.000000 0.000002 0.000000
time 8
  0   -0.967547 0.175787 -20.574476 0.000000 0.000000 -1.572114
  1   -1.093036 0.000002 -0.326057 -1.570808 -1.570425 -0.000219
  2   2.262337 0.113614 0.064702 -0.070478 -0.015531 -0.216628
  3   2.380047 0.353302 0.047440 -0.345653 -0.016123 -0.202321
  4   2.033756 0.190472 -0.000128 -0.342175 -0.017234 -0.049357
  5   2.451511 0.204909 -0.003447 -0.210640 -0.021743 -0.102145
  6   7.247600 -0.397300 -0.109469 0.000001 0.000033 0.052298
  7   -2.022252 -0.104661 3.136172 1.070165 -1.170882 -4.229632
  8   1.168026 -0.537438 -0.063437 -1.511346 0.480014 -1.246609
  9   6.790376 -0.619176 0.015206 -0.000158 -0.000285 -1.728961
 10   8.637599 0.544015 -0.090417 -3.227757 0.138679 0.927405
 11   6.790465 -0.619039 0.017802 0.003366 -0.011850 -1.225505
 12   -2.022474 -0.104699 -2.873818 0.298873 1.361800 -2.901888
 13   1.167898 -0.537463 0.063297 1.153703 -0.801158 -1.811957
 14   7.002743 -0.617765 -0.183752 0.000286 0.000250 -1.909836
 15   8.209042 0.615527 -0.255885 2.043787 -0.194054 0.798196
 16   7.002735 -0.617911 -0.183641 0.013073 0.010695 -1.355580
 17   1.574674 0.609930 -0.000899 0.816571 -0.158536 0.165836
 18   -0.602177 0.511412 -0.000006 0.000000 0.000000 0.000000
 19   3.673773 0.177020 1.119313 -0.000002 -0.000014 -0.174510
 20   3.673767 0.176993 -1.117566 0.000007 -0.000003 -0.174546
 21   3.942357 1.334540 1.627658 0.000002 -0.000011 -0.000026
 22   -0.246060 -0.011889 0.516521 -0.000011 0.000031 0.000025
 23   3.942374 1.334565 -1.631083 0.000019 0.000002 -0.000024
 24   -0.246150 -0.011872 -0.516511 -0.000005 -0.000006 0.000048
 25   4.941364 1.997338 1.629330 0.000018 -0.000001 -0.000024
 26   4.941382 1.997366 -1.629410 -0.000001 0.000005 -0.000024
 27   2.914462 1.619264 1.514501 -0.000019 -0.000022 -0.000050
 28   2.916892 1.618870 -1.501142 -0.000002 -0.000009 -0.000024
 29   8.824059 0.150544 0.091743 0.000006 -0.000231 -0.174534
 30   2.111085 -0.561179 1.784320 -0.000008 -0.000682 0.000024
 31   2.121290 -0.561289 -1.853599 0.000000 0.000000 -0.000002
 32   -0.814395 -0.093824 3.127092 3.071965 -0.114691 1.239365
 33   14.298673 -0.408176 0.471578 0.000248 0.000063 -1.896136
 34   15.835795 0.581398 0.242756 -0.214735 0.106913 -0.097869
 35   -0.815868 -0.091229 -3.114430 0.066464 3.132818 -1.010216
 36   14.294526 -0.410349 -0.467541 0.000021 -0.000012 -2.607695
 37   15.834409 0.579420 -0.284600 -0.006092 -0.035255 0.214508
 38   1.139685 -3.453749 -2.823813 0.000000 0.000000 0.000001
 39   -4.457742 -1.054854 -0.746180 0.000000 0.000000 0.000000
 40   1.118101 -3.449769 3.237290 0.000000 0.000001 0.000000
 41   -4.433840 -1.059130 0.959566 -0.000001 0.000000 0.000000
 42   -0.657468 1.697302 -2.688614 0.000000 0.000002 0.000000
 43   -0.664068 1.698578 2.869377 0.000000 0.000002 0.000000
time 9
  0   -0.967547 0.175787 -20.574476 0.000000 0.000000 -1.572114
  1   -1.093036 0.000002 -0.326057 -1.570808 -1.570425 -0.000219
  2   2.262337 0.113614 0.064702 -0.051741 -0.011325 -0.216845
  3   2.380047 0.353302 0.047440 -0.325597 -0.015129 -0.164346
  4   2.033756 0.190472 -0.000128 -0.323050 -0.016299 -0.049828
  5   2.451511 0.204909 -0.003447 -0.191589 -0.019784 -0.102566
  6   7.247600 -0.397300 -0.109469 0.000001 0.000033 0.052298
  7   -2.022252 -0.104661 3.136172 1.070165 -1.170882 -4.229632
  8   1.168026 -0.537438 -0.063437 -1.501854 0.460643 -1.265904
  9   6.790376 -0.619176 0.015206 -0.000158 -0.000151 -1.654550
 10   8.637599 0.544015 -0.090417 -3.349198 0.143536 0.914600
 11   6.790465 -0.619039 0.017802 0.003045 -0.011850 -1.173367
 12   -2.022474 -0.104699 -2.873818 0.298873 1.361800 -2.901888
 13   1.167898 -0.537463 0.063297 1.132474 -0.772985 -1.774123
 14   7.002743 -0.617765 -0.183752 0.000286 0.000250 -1.873781
 15   8.209042 0.615527 -0.255885 2.034799 -0.197232 0.869278
 16   7.002735 -0.617911 -0.183641 0.013120 0.010469 -1.330357
 17   1.574674 0.609930 -0.000899 0.740853 -0.119273 0.136748
 18   -0.602177 0.511412 -0.000006 0.000000 0.000000 0.000000
 19   3.673773 0.177020 1.119313 -0.000002 -0.000014 -0.174510
 20   3.673767 0.176993 -1.117566 0.000007 -0.000003 -0.174546
 21   3.942357 1.334540 1.627658 0.000002 -0.000011 -0.000026
 22   -0.246060 -0.011889 0.516521 -0.000011 0.000031 0.000025
 23   3.942374 1.334565 -1.631083 0.000019 0.000002 -0.000024
 24   -0.246150 -0.011872 -0.516511 -0.000005 -0.000006 0.000048
 25   4.941364 1.997338 1.629330 0.000018 -0.000001 -0.000024
 26   4.941382 1.997366 -1.629410 -0.000001 0.000005 -0.000024
 27   2.914462 1.619264 1.514501 -0.000019 -0.000022 -0.000050
 28   2.916892 1.618870 -1.501142 -0.000002 -0.000009 -0.000024
 29   8.824059 0.150544 0.091743 0.000006 -0.000231 -0.174534
 30   2.111085 -0.561179 1.784320 -0.000008 -0.000682 0.000024
 31   2.121290 -0.561289 -1.853599 0.000000 0.000000 -0.000002
 32   -0.814395 -0.093824 3.127092 3.071965 -0.114691 1.239365
 33   14.298673 -0.408176 0.471578 0.000248 0.000063 -1.896136
 34   15.835795 0.581398 0.242756 -0.214735 0.106913 -0.097869
 35   -0.815868 -0.091229 -3.114430 0.066464 3.132818 -1.010216
 36   14.294526 -0.410349 -0.467541 0.000021 -0.000012 -2.607695
 37   15.834409 0.579420 -0.284600 -0.006092 -0.035255 0.214508
 38   1.139685 -3.453749 -2.823813 0.000000 0.000000 0.000001
 39   -4.457742 -1.054854 -0.746180 0.000000 0.000000 0.000000
 40   1.118101 -3.449769 3.237290 0.000000 0.000001 0.000000
 41   -4.433840 -1.059130 0.959566 -0.000001 0.000000 0.000000
 42   -0.657468 1.697302 -2.688614 0.000000 0.000002 0.000000
 43   -0.664068 1.698578 2.869377 0.000000 0.000002 0.000000
time 10
  0   -0.967547 0.175787 -20.574476 0.000000 0.000000 -1.572114
  1   -1.093036 0.000002 -0.326057 -1.570808 -1.570425 -0.000219
  2   2.262337 0.113614 0.064702 -0.033055 -0.007298 -0.216989
  3   2.380047 0.353302 0.047440 -0.305405 -0.014757 -0.126270
  4   2.033756 0.190472 -0.000128 -0.303925 -0.015232 -0.050082
  5   2.451511 0.204909 -0.003447 -0.172555 -0.017839 -0.102888
  6   7.247600 -0.397300 -0.109469 0.000001 0.000033 0.052298
  7   -2.022252 -0.104661 3.136172 1.070165 -1.170882 -4.229632
  8   1.168026 -0.537438 -0.063437 -1.492615 0.414052 -1.281719
  9   6.790376 -0.619176 0.015206 -0.000158 -0.000151 -1.527463
 10   8.637599 0.544015 -0.090417 -3.418153 0.178309 0.868879
 11   6.790465 -0.619039 0.017802 0.002549 -0.011793 -1.084432
 12   -2.022474 -0.104699 -2.873818 0.298873 1.361800 -2.901888
 13   1.167898 -0.537463 0.063297 1.106253 -0.719486 -1.726845
 14   7.002743 -0.617765 -0.183752 0.000286 0.000250 -1.835746
 15   8.209042 0.615527 -0.255885 2.031635 -0.198140 0.893934
 16   7.002735 -0.617911 -0.183641 0.013167 0.010244 -1.303699
 17   1.574674 0.609930 -0.000899 0.664160 -0.083631 0.103409
 18   -0.602177 0.511412 -0.000006 0.000000 0.000000 0.000000
 19   3.673773 0.177020 1.119313 -0.000002 -0.000014 -0.174510
 20   3.673767 0.176993 -1.117566 0.000007 -0.000003 -0.174546
 21   3.942357 1.334540 1.627658 0.000002 -0.000011 -0.000026
 22   -0.246060 -0.011889 0.516521 -0.000011 0.000031 0.000025
 23   3.942374 1.334565 -1.631083 0.000019 0.000002 -0.000024
 24   -0.246150 -0.011872 -0.516511 -0.000005 -0.000006 0.000048
 25   4.941364 1.997338 1.629330 0.000018 -0.000001 -0.000024
 26   4.941382 1.997366 -1.629410 -0.000001 0.000005 -0.000024
 27   2.914462 1.619264 1.514501 -0.000019 -0.000022 -0.000050
 28   2.916892 1.618870 -1.501142 -0.000002 -0.000009 -0.000024
 29   8.824059 0.150544 0.091743 0.000006 -0.000231 -0.174534
 30   2.111085 -0.561179 1.784320 -0.000008 -0.000682 0.000024
 31   2.121290 -0.561289 -1.853599 0.000000 0.000000 -0.000002
 32   -0.814395 -0.093824 3.127092 3.071965 -0.114691 1.239365
 33   14.298673 -0.408176 0.471578 0.000248 0.000063 -1.896136
 34   15.835795 0.581398 0.242756 -0.214735 0.106913 -0.097869
 35   -0.815868 -0.091229 -3.114430 0.066464 3.132818 -1.010216
 36   14.294526 -0.410349 -0.467541 0.000021 -0.000012 -2.607695
 37   15.834409 0.579420 -0.284600 -0.006092 -0.035255 0.214508
 38   1.139685 -3.453749 -2.823813 0.000000 0.000000 0.000001
 39   -4.457742 -1.054854 -0.746180 0.000000 0.000000 0.000000
 40   1.118101 -3.449769 3.237290 0.000000 0.000001 0.000000
 41   -4.433840 -1.059130 0.959566 -0.000001 0.000000 0.000000
 42   -0.657468 1.697302 -2.688614 0.000000 0.000002 0.000000
 43   -0.664068 1.698578 2.869377 0.000000 0.000002 0.000000
time 11
  0   -0.967547 0.175787 -20.574476 0.000000 0.000000 -1.572114
  1   -1.093036 0.000002 -0.326057 -1.570808 -1.570425 -0.000219
  2   2.262337 0.113614 0.064702 -0.015452 -0.003403 -0.217080
  3   2.380047 0.353302 0.047440 -0.286414 -0.015141 -0.090397
  4   2.033756 0.190472 -0.000128 -0.285870 -0.014345 -0.050408
  5   2.451511 0.204909 -0.003447 -0.154531 -0.015920 -0.103210
  6   7.247600 -0.397300 -0.109469 0.000001 0.000033 0.052298
  7   -2.022252 -0.104661 3.136172 1.070165 -1.170882 -4.229632
  8   1.168026 -0.537438 -0.063437 -1.486983 0.351562 -1.291145
  9   6.790376 -0.619176 0.015206 -0.000158 -0.000151 -1.368075
 10   8.637599 0.544015 -0.090417 -3.462450 0.230257 0.802684
 11   6.790465 -0.619039 0.017802 0.001848 -0.011708 -0.972946
 12   -2.022474 -0.104699 -2.873818 0.298873 1.361800 -2.901888
 13   1.167898 -0.537463 0.063297 1.076166 -0.646815 -1.677449
 14   7.002743 -0.617765 -0.183752 0.000286 0.000250 -1.794741
 15   8.209042 0.615527 -0.255885 2.033289 -0.197610 0.881726
 16   7.002735 -0.617911 -0.183641 0.013261 0.010018 -1.274944
 17   1.574674 0.609930 -0.000899 0.590635 -0.053810 0.068481
 18   -0.602177 0.511412 -0.000006 0.000000 0.000000 0.000000
 19   3.673773 0.177020 1.119313 -0.000002 -0.000014 -0.174510
 20   3.673767 0.176993 -1.117566 0.000007 -0.000003 -0.174546
 21   3.942357 1.334540 1.627658 0.000002 -0.000011 -0.000026
 22   -0.246060 -0.011889 0.516521 -0.000011 0.000031 0.000025
 23   3.942374 1.334565 -1.631083 0.000019 0.000002 -0.000024
 24   -0.246150 -0.011872 -0.516511 -0.000005 -0.000006 0.000048
 25   4.941364 1.997338 1.629330 0.000018 -0.000001 -0.000024
 26   4.941382 1.997366 -1.629410 -0.000001 0.000005 -0.000024
 27   2.914462 1.619264 1.514501 -0.000019 -0.000022 -0.000050
 28   2.916892 1.618870 -1.501142 -0.000002 -0.000009 -0.000024
 29   8.824059 0.150544 0.091743 0.000006 -0.000231 -0.174534
 30   2.111085 -0.561179 1.784320 -0.000008 -0.000682 0.000024
 31   2.121290 -0.561289 -1.853599 0.000000 0.000000 -0.000002
 32   -0.814395 -0.093824 3.127092 3.071965 -0.114691 1.239365
 33   14.298673 -0.408176 0.471578 0.000248 0.000063 -1.896136
 34   15.835795 0.581398 0.242756 -0.214735 0.106913 -0.097869
 35   -0.815868 -0.091229 -3.114430 0.066464 3.132818 -1.010216
 36   14.294526 -0.410349 -0.467541 0.000021 -0.000012 -2.607695
 37   15.834409 0.579420 -0.284600 -0.006092 -0.035255 0.214508
 38   1.139685 -3.453749 -2.823813 0.000000 0.000000 0.000001
 39   -4.457742 -1.054854 -0.746180 0.000000 0.000000 0.000000
 40   1.118101 -3.449769 3.237290 0.000000 0.000001 0.000000
 41   -4.433840 -1.059130 0.959566 -0.000001 0.000000 0.000000
 42   -0.657468 1.697302 -2.688614 0.000000 0.000002 0.000000
 43   -0.664068 1.698578 2.869377 0.000000 0.000002 0.000000
time 12
  0   -0.967547 0.175787 -20.574476 0.000000 0.000000 -1.572114
  1   -1.093036 0.000002 -0.326057 -1.570808 -1.570425 -0.000219
  2   2.262337 0.113614 0.064702 -0.000052 0.000049 -0.217080
  3   2.380047 0.353302 0.047440 -0.269688 -0.015944 -0.058788
  4   2.033756 0.190472 -0.000128 -0.269954 -0.013554 -0.050553
  5   2.451511 0.204909 -0.003447 -0.138715 -0.014340 -0.103532
  6   7.247600 -0.397300 -0.109469 0.000001 0.000033 0.052298
  7   -2.022252 -0.104661 3.136172 1.070165 -1.170882 -4.229632
  8   1.168026 -0.537438 -0.063437 -1.486983 0.291839 -1.294308
  9   6.790376 -0.619176 0.015206 -0.000158 -0.000151 -1.208537
 10   8.637599 0.544015 -0.090417 -3.510973 0.279530 0.733016
 11   6.790465 -0.619039 0.017802 0.001206 -0.011623 -0.861172
 12   -2.022474 -0.104699 -2.873818 0.298873 1.361800 -2.901888
 13   1.167898 -0.537463 0.063297 1.045517 -0.580297 -1.635680
 14   7.002743 -0.617765 -0.183752 0.000286 0.000250 -1.753571
 15   8.209042 0.615527 -0.255885 2.034799 -0.197232 0.869278
 16   7.002735 -0.617911 -0.183641 0.013308 0.009736 -1.246188
 17   1.574674 0.609930 -0.000899 0.524991 -0.030972 0.035364
 18   -0.602177 0.511412 -0.000006 0.000000 0.000000 0.000000
 19   3.673773 0.177020 1.119313 -0.000002 -0.000014 -0.174510
 20   3.673767 0.176993 -1.117566 0.000007 -0.000003 -0.174546
 21   3.942357 1.334540 1.627658 0.000002 -0.000011 -0.000026
 22   -0.246060 -0.011889 0.516521 -0.000011 0.000031 0.000025
 23   3.942374 1.334565 -1.631083 0.000019 0.000002 -0.000024
 24   -0.246150 -0.011872 -0.516511 -0.000005 -0.000006 0.000048
 25   4.941364 1.997338 1.629330 0.000018 -0.000001 -0.000024
 26   4.941382 1.997366 -1.629410 -0.000001 0.000005 -0.000024
 27   2.914462 1.619264 1.514501 -0.000019 -0.000022 -0.000050
 28   2.916892 1.618870 -1.501142 -0.000002 -0.000009 -0.000024
 29   8.824059 0.150544 0.091743 0.000006 -0.000231 -0.174534
 30   2.111085 -0.561179 1.784320 -0.000008 -0.000682 0.000024
 31   2.121290 -0.561289 -1.853599 0.000000 0.000000 -0.000002
 32   -0.814395 -0.093824 3.127092 3.071965 -0.114691 1.239365
 33   14.298673 -0.408176 0.471578 0.000248 0.000063 -1.896136
 34   15.835795 0.581398 0.242756 -0.214735 0.106913 -0.097869
 35   -0.815868 -0.091229 -3.114430 0.066464 3.132818 -1.010216
 36   14.294526 -0.410349 -0.467541 0.000021 -0.000012 -2.607695
 37   15.834409 0.579420 -0.284600 -0.006092 -0.035255 0.214508
 38   1.139685 -3.453749 -2.823813 0.000000 0.000000 0.000001
 39   -4.457742 -1.054854 -0.746180 0.000000 0.000000 0.000000
 40   1.118101 -3.449769 3.237290 0.000000 0.000001 0.000000
 41   -4.433840 -1.059130 0.959566 -0.000001 0.000000 0.000000
 42   -0.657468 1.697302 -2.688614 0.000000 0.000002 0.000000
 43   -0.664068 1.698578 2.869377 0.000000 0.000002 0.000000
end
