version 1
nodes
  0 "Bip01" -1
  1 "Bip01 Pelvis" 0
  2 "Bip01 Spine" 1
  3 "Bip01 Spine1" 2
  4 "Bip01 Spine2" 3
  5 "Bip01 Spine3" 4
  6 "Bip01 Neck" 5
  7 "Bip01 L Arm" 6
  8 "Bip01 L Arm1" 7
  9 "Bip01 L Arm2" 8
 10 "Bip01 L Hand" 9
 11 "Bip06 L elbow2-smooth" 8
 12 "Bip01 R Arm" 6
 13 "Bip01 R Arm1" 12
 14 "Bip01 R Arm2" 13
 15 "Bip01 R Hand" 14
 16 "Bip06 R elbow2-smooth" 13
 17 "Bip01 Head" 6
 18 "Bip06 Head_helper" 17
 19 "Bip06 Head_eyes_l" 18
 20 "Bip06 Head_eyes_r" 18
 21 "Bip06 Head_blink_l" 18
 22 "Bip06 Head_blink_smooth_l1" 21
 23 "Bip06 Head_blink_r" 18
 24 "Bip06 Head_blink_smooth_r1" 23
 25 "Bip06 Head_L_eyebrow" 18
 26 "Bip06 Head_R_eyebrow" 18
 27 "Bip06 Head_blink_l_lid" 18
 28 "Bip06 Head_blink_r_lid" 18
 29 "Bip06 bunny" 18
 30 "Bip06 bunnyL" 29
 31 "Bip06 bunnyR" 29
 32 "Bip01 L Leg" 1
 33 "Bip01 L Leg1" 32
 34 "Bip01 L Foot" 33
 35 "Bip01 R Leg" 1
 36 "Bip01 R Leg1" 35
 37 "Bip01 R Foot" 36
 38 "Bip03 HairR1" 17
 39 "Bip03 HairR2" 38
 40 "Bip03 HairL1" 17
 41 "Bip03 HairL2" 40
 42 "Bip03 swingR" 17
 43 "Bip03 swingL" 17
end
skeleton
time 0
  0   -0.967547 0.175787 -20.574476 0.000000 0.000000 -1.572114
  1   -1.093036 0.000002 -0.326057 -1.570756 -1.570425 -0.000219
  2   2.262337 0.113614 0.064702 -0.000052 0.000049 -0.051551
  3   2.380047 0.353302 0.047440 -0.255167 0.058385 0.219135
  4   2.033756 0.190472 -0.000128 -0.000010 0.000036 0.243917
  5   2.451511 0.204909 -0.003447 0.000000 -0.000005 0.252719
  6   7.247600 -0.397300 -0.109469 0.000001 0.000033 -0.209377
  7   -2.022252 -0.104661 3.136172 0.897141 -1.256499 -3.804848
  8   1.168026 -0.537438 -0.063437 -0.234283 0.940944 -0.606224
  9   6.790376 -0.619176 0.015206 -0.000158 -0.000285 -1.994456
 10   8.637599 0.544015 -0.090417 -1.174701 -0.597956 -0.222218
 11   6.790465 -0.619039 0.017802 0.004680 -0.011935 -1.411449
 12   -2.022474 -0.104699 -2.873818 -1.159406 1.101890 -4.048483
 13   1.167898 -0.537463 0.063297 0.101860 -0.751117 -0.224009
 14   7.002743 -0.617765 -0.183752 0.000286 0.000364 -1.961484
 15   8.209042 0.615527 -0.255885 1.667015 0.764779 -0.200445
 16   7.002735 -0.617911 -0.183641 0.012978 0.011033 -1.391676
 17   1.574674 0.609930 -0.000899 0.124992 -0.230365 0.551525
 18   -0.602177 0.511412 -0.000006 0.000000 0.000000 0.000000
 19   3.673773 0.177020 1.119313 -0.000002 -0.000014 -0.174510
 20   3.673767 0.176993 -1.117566 0.000007 -0.000003 -0.174546
 21   3.942357 1.334540 1.627658 0.000002 -0.000011 -0.000026
 22   -0.246060 -0.011889 0.516521 -0.000011 0.000031 0.000025
 23   3.942374 1.334565 -1.631083 0.000019 0.000002 -0.000024
 24   -0.246150 -0.011872 -0.516511 -0.000005 -0.000006 0.000048
 25   4.941364 1.997338 1.629330 0.000018 -0.000001 -0.000024
 26   4.941382 1.997366 -1.629410 -0.000001 0.000005 -0.000024
 27   2.914462 1.619264 1.514501 -0.000019 -0.000022 -0.000050
 28   2.916892 1.618870 -1.501142 -0.000002 -0.000009 -0.000024
 29   8.824059 0.150544 0.091743 0.000006 -0.000231 -0.174534
 30   2.111085 -0.561179 1.784320 -0.000008 -0.000682 0.000024
 31   2.121290 -0.561289 -1.853599 0.000000 0.000000 -0.000002
 32   -0.814395 -0.093824 3.127092 3.071965 -0.114691 1.239365
 33   14.298673 -0.408176 0.471578 0.000248 0.000063 -1.896136
 34   15.835795 0.581398 0.242756 -0.214735 0.106913 -0.097869
 35   -0.815868 -0.091229 -3.114430 0.066464 3.132818 -1.010216
 36   14.294526 -0.410349 -0.467541 0.000021 -0.000012 -2.607695
 37   15.834409 0.579420 -0.284600 -0.006092 -0.035255 0.214508
 38   1.139685 -3.453749 -2.823813 0.000000 0.000000 0.000001
 39   -4.457742 -1.054854 -0.746180 0.000000 0.000000 0.000000
 40   1.118101 -3.449769 3.237290 0.000000 0.000001 0.000000
 41   -4.433840 -1.059130 0.959566 -0.000001 0.000000 0.000000
 42   -0.657468 1.697302 -2.688614 0.000000 0.000002 0.000000
 43   -0.664068 1.698578 2.869377 0.000000 0.000002 0.000000
time 1
  0   -0.967547 0.175787 -20.574476 0.000000 0.000000 -1.572114
  1   -1.093036 0.000002 -0.326057 -1.570756 -1.570425 -0.000219
  2   2.262337 0.113614 0.064702 -0.000052 0.000049 -0.051551
  3   2.380047 0.353302 0.047440 -0.255167 0.058385 0.219135
  4   2.033756 0.190472 -0.000128 -0.000010 0.000036 0.243917
  5   2.451511 0.204909 -0.003447 0.000000 -0.000005 0.255839
  6   7.247600 -0.397300 -0.109469 0.000001 0.000033 -0.209377
  7   -2.022252 -0.104661 3.136172 0.885159 -1.253529 -3.792170
  8   1.168026 -0.537438 -0.063437 -0.232891 0.934554 -0.605465
  9   6.790376 -0.619176 0.015206 -0.000158 -0.000285 -1.994456
 10   8.637599 0.544015 -0.090417 -1.174701 -0.597956 -0.222218
 11   6.790465 -0.619039 0.017802 0.004680 -0.011935 -1.411449
 12   -2.022474 -0.104699 -2.873818 -1.149346 1.099830 -4.037282
 13   1.167898 -0.537463 0.063297 0.103547 -0.743896 -0.225583
 14   7.002743 -0.617765 -0.183752 0.000286 0.000364 -1.961484
 15   8.209042 0.615527 -0.255885 1.667015 0.764779 -0.200445
 16   7.002735 -0.617911 -0.183641 0.012978 0.011033 -1.391676
 17   1.574674 0.609930 -0.000899 0.124992 -0.230365 0.548457
 18   -0.602177 0.511412 -0.000006 0.000000 0.000000 0.000000
 19   3.673773 0.177020 1.119313 -0.000002 -0.000014 -0.174510
 20   3.673767 0.176993 -1.117566 0.000007 -0.000003 -0.174546
 21   3.942357 1.334540 1.627658 0.000002 -0.000011 -0.000026
 22   -0.246060 -0.011889 0.516521 -0.000011 0.000031 0.000025
 23   3.942374 1.334565 -1.631083 0.000019 0.000002 -0.000024
 24   -0.246150 -0.011872 -0.516511 -0.000005 -0.000006 0.000048
 25   4.941364 1.997338 1.629330 0.000018 -0.000001 -0.000024
 26   4.941382 1.997366 -1.629410 -0.000001 0.000005 -0.000024
 27   2.914462 1.619264 1.514501 -0.000019 -0.000022 -0.000050
 28   2.916892 1.618870 -1.501142 -0.000002 -0.000009 -0.000024
 29   8.824059 0.150544 0.091743 0.000006 -0.000231 -0.174534
 30   2.111085 -0.561179 1.784320 -0.000008 -0.000682 0.000024
 31   2.121290 -0.561289 -1.853599 0.000000 0.000000 -0.000002
 32   -0.814395 -0.093824 3.127092 3.071965 -0.114691 1.239365
 33   14.298673 -0.408176 0.471578 0.000248 0.000063 -1.896136
 34   15.835795 0.581398 0.242756 -0.214735 0.106913 -0.097869
 35   -0.815868 -0.091229 -3.114430 0.066464 3.132818 -1.010216
 36   14.294526 -0.410349 -0.467541 0.000021 -0.000012 -2.607695
 37   15.834409 0.579420 -0.284600 -0.006092 -0.035255 0.214508
 38   1.139685 -3.453749 -2.823813 0.000000 0.000000 0.000001
 39   -4.457742 -1.054854 -0.746180 0.000000 0.000000 0.000000
 40   1.118101 -3.449769 3.237290 0.000000 0.000001 0.000000
 41   -4.433840 -1.059130 0.959566 -0.000001 0.000000 0.000000
 42   -0.657468 1.697302 -2.688614 0.000000 0.000002 0.000000
 43   -0.664068 1.698578 2.869377 0.000000 0.000002 0.000000
time 2
  0   -0.967547 0.175787 -20.574476 0.000000 0.000000 -1.572114
  1   -1.093036 0.000002 -0.326057 -1.570756 -1.570425 -0.000219
  2   2.262337 0.113614 0.064702 -0.000052 0.000049 -0.051551
  3   2.380047 0.353302 0.047440 -0.255167 0.058385 0.219135
  4   2.033756 0.190472 -0.000128 -0.000010 0.000036 0.243917
  5   2.451511 0.204909 -0.003447 0.000000 -0.000005 0.259158
  6   7.247600 -0.397300 -0.109469 0.000001 0.000033 -0.209377
  7   -2.022252 -0.104661 3.136172 0.872505 -1.250041 -3.779115
  8   1.168026 -0.537438 -0.063437 -0.231372 0.927661 -0.605149
  9   6.790376 -0.619176 0.015206 -0.000158 -0.000285 -1.994456
 10   8.637599 0.544015 -0.090417 -1.174701 -0.597956 -0.222218
 11   6.790465 -0.619039 0.017802 0.004680 -0.011935 -1.411449
 12   -2.022474 -0.104699 -2.873818 -1.138712 1.097217 -4.024836
 13   1.167898 -0.537463 0.063297 0.105164 -0.735861 -0.227278
 14   7.002743 -0.617765 -0.183752 0.000286 0.000364 -1.961484
 15   8.209042 0.615527 -0.255885 1.667015 0.764779 -0.200445
 16   7.002735 -0.617911 -0.183641 0.012978 0.011033 -1.391676
 17   1.574674 0.609930 -0.000899 0.124992 -0.230365 0.545019
 18   -0.602177 0.511412 -0.000006 0.000000 0.000000 0.000000
 19   3.673773 0.177020 1.119313 -0.000002 -0.000014 -0.174510
 20   3.673767 0.176993 -1.117566 0.000007 -0.000003 -0.174546
 21   3.942357 1.334540 1.627658 0.000002 -0.000011 -0.000026
 22   -0.246060 -0.011889 0.516521 -0.000011 0.000031 0.000025
 23   3.942374 1.334565 -1.631083 0.000019 0.000002 -0.000024
 24   -0.246150 -0.011872 -0.516511 -0.000005 -0.000006 0.000048
 25   4.941364 1.997338 1.629330 0.000018 -0.000001 -0.000024
 26   4.941382 1.997366 -1.629410 -0.000001 0.000005 -0.000024
 27   2.914462 1.619264 1.514501 -0.000019 -0.000022 -0.000050
 28   2.916892 1.618870 -1.501142 -0.000002 -0.000009 -0.000024
 29   8.824059 0.150544 0.091743 0.000006 -0.000231 -0.174534
 30   2.111085 -0.561179 1.784320 -0.000008 -0.000682 0.000024
 31   2.121290 -0.561289 -1.853599 0.000000 0.000000 -0.000002
 32   -0.814395 -0.093824 3.127092 3.071965 -0.114691 1.239365
 33   14.298673 -0.408176 0.471578 0.000248 0.000063 -1.896136
 34   15.835795 0.581398 0.242756 -0.214735 0.106913 -0.097869
 35   -0.815868 -0.091229 -3.114430 0.066464 3.132818 -1.010216
 36   14.294526 -0.410349 -0.467541 0.000021 -0.000012 -2.607695
 37   15.834409 0.579420 -0.284600 -0.006092 -0.035255 0.214508
 38   1.139685 -3.453749 -2.823813 0.000000 0.000000 0.000001
 39   -4.457742 -1.054854 -0.746180 0.000000 0.000000 0.000000
 40   1.118101 -3.449769 3.237290 0.000000 0.000001 0.000000
 41   -4.433840 -1.059130 0.959566 -0.000001 0.000000 0.000000
 42   -0.657468 1.697302 -2.688614 0.000000 0.000002 0.000000
 43   -0.664068 1.698578 2.869377 0.000000 0.000002 0.000000
time 3
  0   -0.967547 0.175787 -20.574476 0.000000 0.000000 -1.572114
  1   -1.093036 0.000002 -0.326057 -1.570756 -1.570425 -0.000219
  2   2.262337 0.113614 0.064702 -0.000052 0.000049 -0.051551
  3   2.380047 0.353302 0.047440 -0.255167 0.058385 0.219135
  4   2.033756 0.190472 -0.000128 -0.000010 0.000036 0.243917
  5   2.451511 0.204909 -0.003447 0.000000 -0.000005 0.262848
  6   7.247600 -0.397300 -0.109469 0.000001 0.000033 -0.209377
  7   -2.022252 -0.104661 3.136172 0.859565 -1.246179 -3.765497
  8   1.168026 -0.537438 -0.063437 -0.229917 0.919963 -0.604516
  9   6.790376 -0.619176 0.015206 -0.000158 -0.000285 -1.994456
 10   8.637599 0.544015 -0.090417 -1.174701 -0.597956 -0.222218
 11   6.790465 -0.619039 0.017802 0.004680 -0.011935 -1.411449
 12   -2.022474 -0.104699 -2.873818 -1.127215 1.094402 -4.012102
 13   1.167898 -0.537463 0.063297 0.106991 -0.727317 -0.229397
 14   7.002743 -0.617765 -0.183752 0.000286 0.000364 -1.961484
 15   8.209042 0.615527 -0.255885 1.667015 0.764779 -0.200445
 16   7.002735 -0.617911 -0.183641 0.012978 0.011033 -1.391676
 17   1.574674 0.609930 -0.000899 0.124992 -0.230365 0.541397
 18   -0.602177 0.511412 -0.000006 0.000000 0.000000 0.000000
 19   3.673773 0.177020 1.119313 -0.000002 -0.000014 -0.174510
 20   3.673767 0.176993 -1.117566 0.000007 -0.000003 -0.174546
 21   3.942357 1.334540 1.627658 0.000002 -0.000011 -0.000026
 22   -0.246060 -0.011889 0.516521 -0.000011 0.000031 0.000025
 23   3.942374 1.334565 -1.631083 0.000019 0.000002 -0.000024
 24   -0.246150 -0.011872 -0.516511 -0.000005 -0.000006 0.000048
 25   4.941364 1.997338 1.629330 0.000018 -0.000001 -0.000024
 26   4.941382 1.997366 -1.629410 -0.000001 0.000005 -0.000024
 27   2.914462 1.619264 1.514501 -0.000019 -0.000022 -0.000050
 28   2.916892 1.618870 -1.501142 -0.000002 -0.000009 -0.000024
 29   8.824059 0.150544 0.091743 0.000006 -0.000231 -0.174534
 30   2.111085 -0.561179 1.784320 -0.000008 -0.000682 0.000024
 31   2.121290 -0.561289 -1.853599 0.000000 0.000000 -0.000002
 32   -0.814395 -0.093824 3.127092 3.071965 -0.114691 1.239365
 33   14.298673 -0.408176 0.471578 0.000248 0.000063 -1.896136
 34   15.835795 0.581398 0.242756 -0.214735 0.106913 -0.097869
 35   -0.815868 -0.091229 -3.114430 0.066464 3.132818 -1.010216
 36   14.294526 -0.410349 -0.467541 0.000021 -0.000012 -2.607695
 37   15.834409 0.579420 -0.284600 -0.006092 -0.035255 0.214508
 38   1.139685 -3.453749 -2.823813 0.000000 0.000000 0.000001
 39   -4.457742 -1.054854 -0.746180 0.000000 0.000000 0.000000
 40   1.118101 -3.449769 3.237290 0.000000 0.000001 0.000000
 41   -4.433840 -1.059130 0.959566 -0.000001 0.000000 0.000000
 42   -0.657468 1.697302 -2.688614 0.000000 0.000002 0.000000
 43   -0.664068 1.698578 2.869377 0.000000 0.000002 0.000000
time 4
  0   -0.967547 0.175787 -20.574476 0.000000 0.000000 -1.572114
  1   -1.093036 0.000002 -0.326057 -1.570756 -1.570425 -0.000219
  2   2.262337 0.113614 0.064702 -0.000052 0.000049 -0.051551
  3   2.380047 0.353302 0.047440 -0.255167 0.058385 0.219135
  4   2.033756 0.190472 -0.000128 -0.000010 0.000036 0.243917
  5   2.451511 0.204909 -0.003447 0.000000 -0.000005 0.266637
  6   7.247600 -0.397300 -0.109469 0.000001 0.000033 -0.209377
  7   -2.022252 -0.104661 3.136172 0.845665 -1.242258 -3.751316
  8   1.168026 -0.537438 -0.063437 -0.228208 0.912315 -0.603947
  9   6.790376 -0.619176 0.015206 -0.000158 -0.000285 -1.994456
 10   8.637599 0.544015 -0.090417 -1.174701 -0.597956 -0.222218
 11   6.790465 -0.619039 0.017802 0.004680 -0.011935 -1.411449
 12   -2.022474 -0.104699 -2.873818 -1.115239 1.091326 -3.998794
 13   1.167898 -0.537463 0.063297 0.108889 -0.718469 -0.231213
 14   7.002743 -0.617765 -0.183752 0.000286 0.000364 -1.961484
 15   8.209042 0.615527 -0.255885 1.667015 0.764779 -0.200445
 16   7.002735 -0.617911 -0.183641 0.012978 0.011033 -1.391676
 17   1.574674 0.609930 -0.000899 0.124992 -0.230365 0.537701
 18   -0.602177 0.511412 -0.000006 0.000000 0.000000 0.000000
 19   3.673773 0.177020 1.119313 -0.000002 -0.000014 -0.174510
 20   3.673767 0.176993 -1.117566 0.000007 -0.000003 -0.174546
 21   3.942357 1.334540 1.627658 0.000002 -0.000011 -0.000026
 22   -0.246060 -0.011889 0.516521 -0.000011 0.000031 0.000025
 23   3.942374 1.334565 -1.631083 0.000019 0.000002 -0.000024
 24   -0.246150 -0.011872 -0.516511 -0.000005 -0.000006 0.000048
 25   4.941364 1.997338 1.629330 0.000018 -0.000001 -0.000024
 26   4.941382 1.997366 -1.629410 -0.000001 0.000005 -0.000024
 27   2.914462 1.619264 1.514501 -0.000019 -0.000022 -0.000050
 28   2.916892 1.618870 -1.501142 -0.000002 -0.000009 -0.000024
 29   8.824059 0.150544 0.091743 0.000006 -0.000231 -0.174534
 30   2.111085 -0.561179 1.784320 -0.000008 -0.000682 0.000024
 31   2.121290 -0.561289 -1.853599 0.000000 0.000000 -0.000002
 32   -0.814395 -0.093824 3.127092 3.071965 -0.114691 1.239365
 33   14.298673 -0.408176 0.471578 0.000248 0.000063 -1.896136
 34   15.835795 0.581398 0.242756 -0.214735 0.106913 -0.097869
 35   -0.815868 -0.091229 -3.114430 0.066464 3.132818 -1.010216
 36   14.294526 -0.410349 -0.467541 0.000021 -0.000012 -2.607695
 37   15.834409 0.579420 -0.284600 -0.006092 -0.035255 0.214508
 38   1.139685 -3.453749 -2.823813 0.000000 0.000000 0.000001
 39   -4.457742 -1.054854 -0.746180 0.000000 0.000000 0.000000
 40   1.118101 -3.449769 3.237290 0.000000 0.000001 0.000000
 41   -4.433840 -1.059130 0.959566 -0.000001 0.000000 0.000000
 42   -0.657468 1.697302 -2.688614 0.000000 0.000002 0.000000
 43   -0.664068 1.698578 2.869377 0.000000 0.000002 0.000000
time 5
  0   -0.967547 0.175787 -20.574476 0.000000 0.000000 -1.572114
  1   -1.093036 0.000002 -0.326057 -1.570756 -1.570425 -0.000219
  2   2.262337 0.113614 0.064702 -0.000052 0.000049 -0.051551
  3   2.380047 0.353302 0.047440 -0.255167 0.058385 0.219135
  4   2.033756 0.190472 -0.000128 -0.000010 0.000036 0.243917
  5   2.451511 0.204909 -0.003447 0.000000 -0.000005 0.270451
  6   7.247600 -0.397300 -0.109469 0.000001 0.000033 -0.209377
  7   -2.022252 -0.104661 3.136172 0.832341 -1.238222 -3.737041
  8   1.168026 -0.537438 -0.063437 -0.226373 0.904617 -0.603504
  9   6.790376 -0.619176 0.015206 -0.000158 -0.000285 -1.994456
 10   8.637599 0.544015 -0.090417 -1.174701 -0.597956 -0.222218
 11   6.790465 -0.619039 0.017802 0.004680 -0.011935 -1.411449
 12   -2.022474 -0.104699 -2.873818 -1.103359 1.088278 -3.985390
 13   1.167898 -0.537463 0.063297 0.110577 -0.709366 -0.233271
 14   7.002743 -0.617765 -0.183752 0.000286 0.000364 -1.961484
 15   8.209042 0.615527 -0.255885 1.667015 0.764779 -0.200445
 16   7.002735 -0.617911 -0.183641 0.012978 0.011033 -1.391676
 17   1.574674 0.609930 -0.000899 0.124992 -0.230365 0.533820
 18   -0.602177 0.511412 -0.000006 0.000000 0.000000 0.000000
 19   3.673773 0.177020 1.119313 -0.000002 -0.000014 -0.174510
 20   3.673767 0.176993 -1.117566 0.000007 -0.000003 -0.174546
 21   3.942357 1.334540 1.627658 0.000002 -0.000011 -0.000026
 22   -0.246060 -0.011889 0.516521 -0.000011 0.000031 0.000025
 23   3.942374 1.334565 -1.631083 0.000019 0.000002 -0.000024
 24   -0.246150 -0.011872 -0.516511 -0.000005 -0.000006 0.000048
 25   4.941364 1.997338 1.629330 0.000018 -0.000001 -0.000024
 26   4.941382 1.997366 -1.629410 -0.000001 0.000005 -0.000024
 27   2.914462 1.619264 1.514501 -0.000019 -0.000022 -0.000050
 28   2.916892 1.618870 -1.501142 -0.000002 -0.000009 -0.000024
 29   8.824059 0.150544 0.091743 0.000006 -0.000231 -0.174534
 30   2.111085 -0.561179 1.784320 -0.000008 -0.000682 0.000024
 31   2.121290 -0.561289 -1.853599 0.000000 0.000000 -0.000002
 32   -0.814395 -0.093824 3.127092 3.071965 -0.114691 1.239365
 33   14.298673 -0.408176 0.471578 0.000248 0.000063 -1.896136
 34   15.835795 0.581398 0.242756 -0.214735 0.106913 -0.097869
 35   -0.815868 -0.091229 -3.114430 0.066464 3.132818 -1.010216
 36   14.294526 -0.410349 -0.467541 0.000021 -0.000012 -2.607695
 37   15.834409 0.579420 -0.284600 -0.006092 -0.035255 0.214508
 38   1.139685 -3.453749 -2.823813 0.000000 0.000000 0.000001
 39   -4.457742 -1.054854 -0.746180 0.000000 0.000000 0.000000
 40   1.118101 -3.449769 3.237290 0.000000 0.000001 0.000000
 41   -4.433840 -1.059130 0.959566 -0.000001 0.000000 0.000000
 42   -0.657468 1.697302 -2.688614 0.000000 0.000002 0.000000
 43   -0.664068 1.698578 2.869377 0.000000 0.000002 0.000000
time 6
  0   -0.967547 0.175787 -20.574476 0.000000 0.000000 -1.572114
  1   -1.093036 0.000002 -0.326057 -1.570756 -1.570425 -0.000219
  2   2.262337 0.113614 0.064702 -0.000052 0.000049 -0.051551
  3   2.380047 0.353302 0.047440 -0.255167 0.058385 0.219135
  4   2.033756 0.190472 -0.000128 -0.000010 0.000036 0.243917
  5   2.451511 0.204909 -0.003447 0.000000 -0.000005 0.274364
  6   7.247600 -0.397300 -0.109469 0.000001 0.000033 -0.209377
  7   -2.022252 -0.104661 3.136172 0.819496 -1.234042 -3.723423
  8   1.168026 -0.537438 -0.063437 -0.224791 0.896416 -0.603061
  9   6.790376 -0.619176 0.015206 -0.000158 -0.000285 -1.994456
 10   8.637599 0.544015 -0.090417 -1.174701 -0.597956 -0.222218
 11   6.790465 -0.619039 0.017802 0.004680 -0.011935 -1.411449
 12   -2.022474 -0.104699 -2.873818 -1.091383 1.085260 -3.971891
 13   1.167898 -0.537463 0.063297 0.112404 -0.700212 -0.235208
 14   7.002743 -0.617765 -0.183752 0.000286 0.000364 -1.961484
 15   8.209042 0.615527 -0.255885 1.667015 0.764779 -0.200324
 16   7.002735 -0.617911 -0.183641 0.012978 0.011033 -1.391676
 17   1.574674 0.609930 -0.000899 0.124992 -0.230365 0.529865
 18   -0.602177 0.511412 -0.000006 0.000000 0.000000 0.000000
 19   3.673773 0.177020 1.119313 -0.000002 -0.000014 -0.174510
 20   3.673767 0.176993 -1.117566 0.000007 -0.000003 -0.174546
 21   3.942357 1.334540 1.627658 0.000002 -0.000011 -0.000026
 22   -0.246060 -0.011889 0.516521 -0.000011 0.000031 0.000025
 23   3.942374 1.334565 -1.631083 0.000019 0.000002 -0.000024
 24   -0.246150 -0.011872 -0.516511 -0.000005 -0.000006 0.000048
 25   4.941364 1.997338 1.629330 0.000018 -0.000001 -0.000024
 26   4.941382 1.997366 -1.629410 -0.000001 0.000005 -0.000024
 27   2.914462 1.619264 1.514501 -0.000019 -0.000022 -0.000050
 28   2.916892 1.618870 -1.501142 -0.000002 -0.000009 -0.000024
 29   8.824059 0.150544 0.091743 0.000006 -0.000231 -0.174534
 30   2.111085 -0.561179 1.784320 -0.000008 -0.000682 0.000024
 31   2.121290 -0.561289 -1.853599 0.000000 0.000000 -0.000002
 32   -0.814395 -0.093824 3.127092 3.071965 -0.114691 1.239365
 33   14.298673 -0.408176 0.471578 0.000248 0.000063 -1.896136
 34   15.835795 0.581398 0.242756 -0.214735 0.106913 -0.097869
 35   -0.815868 -0.091229 -3.114430 0.066464 3.132818 -1.010216
 36   14.294526 -0.410349 -0.467541 0.000021 -0.000012 -2.607695
 37   15.834409 0.579420 -0.284600 -0.006092 -0.035255 0.214508
 38   1.139685 -3.453749 -2.823813 0.000000 0.000000 0.000001
 39   -4.457742 -1.054854 -0.746180 0.000000 0.000000 0.000000
 40   1.118101 -3.449769 3.237290 0.000000 0.000001 0.000000
 41   -4.433840 -1.059130 0.959566 -0.000001 0.000000 0.000000
 42   -0.657468 1.697302 -2.688614 0.000000 0.000002 0.000000
 43   -0.664068 1.698578 2.869377 0.000000 0.000002 0.000000
time 7
  0   -0.967547 0.175787 -20.574476 0.000000 0.000000 -1.572114
  1   -1.093036 0.000002 -0.326057 -1.570756 -1.570425 -0.000219
  2   2.262337 0.113614 0.064702 -0.000052 0.000049 -0.051551
  3   2.380047 0.353302 0.047440 -0.255167 0.058385 0.219135
  4   2.033756 0.190472 -0.000128 -0.000010 0.000036 0.243917
  5   2.451511 0.204909 -0.003447 0.000000 -0.000005 0.278153
  6   7.247600 -0.397300 -0.109469 0.000001 0.000033 -0.209377
  7   -2.022252 -0.104661 3.136172 0.806843 -1.229833 -3.710181
  8   1.168026 -0.537438 -0.063437 -0.223146 0.888617 -0.602555
  9   6.790376 -0.619176 0.015206 -0.000158 -0.000285 -1.994456
 10   8.637599 0.544015 -0.090417 -1.174701 -0.597956 -0.222218
 11   6.790465 -0.619039 0.017802 0.004680 -0.011935 -1.411449
 12   -2.022474 -0.104699 -2.873818 -1.079886 1.082125 -3.959061
 13   1.167898 -0.537463 0.063297 0.113880 -0.691211 -0.237024
 14   7.002743 -0.617765 -0.183752 0.000286 0.000364 -1.961484
 15   8.209042 0.615527 -0.255885 1.667015 0.764779 -0.200445
 16   7.002735 -0.617911 -0.183641 0.012978 0.011033 -1.391676
 17   1.574674 0.609930 -0.000899 0.124992 -0.230365 0.526095
 18   -0.602177 0.511412 -0.000006 0.000000 0.000000 0.000000
 19   3.673773 0.177020 1.119313 -0.000002 -0.000014 -0.174510
 20   3.673767 0.176993 -1.117566 0.000007 -0.000003 -0.174546
 21   3.942357 1.334540 1.627658 0.000002 -0.000011 -0.000026
 22   -0.246060 -0.011889 0.516521 -0.000011 0.000031 0.000025
 23   3.942374 1.334565 -1.631083 0.000019 0.000002 -0.000024
 24   -0.246150 -0.011872 -0.516511 -0.000005 -0.000006 0.000048
 25   4.941364 1.997338 1.629330 0.000018 -0.000001 -0.000024
 26   4.941382 1.997366 -1.629410 -0.000001 0.000005 -0.000024
 27   2.914462 1.619264 1.514501 -0.000019 -0.000022 -0.000050
 28   2.916892 1.618870 -1.501142 -0.000002 -0.000009 -0.000024
 29   8.824059 0.150544 0.091743 0.000006 -0.000231 -0.174534
 30   2.111085 -0.561179 1.784320 -0.000008 -0.000682 0.000024
 31   2.121290 -0.561289 -1.853599 0.000000 0.000000 -0.000002
 32   -0.814395 -0.093824 3.127092 3.071965 -0.114691 1.239365
 33   14.298673 -0.408176 0.471578 0.000248 0.000063 -1.896136
 34   15.835795 0.581398 0.242756 -0.214735 0.106913 -0.097869
 35   -0.815868 -0.091229 -3.114430 0.066464 3.132818 -1.010216
 36   14.294526 -0.410349 -0.467541 0.000021 -0.000012 -2.607695
 37   15.834409 0.579420 -0.284600 -0.006092 -0.035255 0.214508
 38   1.139685 -3.453749 -2.823813 0.000000 0.000000 0.000001
 39   -4.457742 -1.054854 -0.746180 0.000000 0.000000 0.000000
 40   1.118101 -3.449769 3.237290 0.000000 0.000001 0.000000
 41   -4.433840 -1.059130 0.959566 -0.000001 0.000000 0.000000
 42   -0.657468 1.697302 -2.688614 0.000000 0.000002 0.000000
 43   -0.664068 1.698578 2.869377 0.000000 0.000002 0.000000
time 8
  0   -0.967547 0.175787 -20.574476 0.000000 0.000000 -1.572114
  1   -1.093036 0.000002 -0.326057 -1.570756 -1.570425 -0.000219
  2   2.262337 0.113614 0.064702 -0.000052 0.000049 -0.051551
  3   2.380047 0.353302 0.047440 -0.255167 0.058385 0.219135
  4   2.033756 0.190472 -0.000128 -0.000010 0.000036 0.243917
  5   2.451511 0.204909 -0.003447 0.000000 -0.000005 0.281744
  6   7.247600 -0.397300 -0.109469 0.000001 0.000033 -0.209377
  7   -2.022252 -0.104661 3.136172 0.795244 -1.225798 -3.697596
  8   1.168026 -0.537438 -0.063437 -0.221627 0.881372 -0.602302
  9   6.790376 -0.619176 0.015206 -0.000158 -0.000285 -1.994456
 10   8.637599 0.544015 -0.090417 -1.174701 -0.597956 -0.222218
 11   6.790465 -0.619039 0.017802 0.004680 -0.011935 -1.411449
 12   -2.022474 -0.104699 -2.873818 -1.069348 1.078816 -3.946902
 13   1.167898 -0.537463 0.063297 0.115708 -0.682514 -0.238840
 14   7.002743 -0.617765 -0.183752 0.000286 0.000364 -1.961484
 15   8.209042 0.615527 -0.255885 1.667015 0.764779 -0.200324
 16   7.002735 -0.617911 -0.183641 0.012978 0.011033 -1.391676
 17   1.574674 0.609930 -0.000899 0.124992 -0.230365 0.522362
 18   -0.602177 0.511412 -0.000006 0.000000 0.000000 0.000000
 19   3.673773 0.177020 1.119313 -0.000002 -0.000014 -0.174510
 20   3.673767 0.176993 -1.117566 0.000007 -0.000003 -0.174546
 21   3.942357 1.334540 1.627658 0.000002 -0.000011 -0.000026
 22   -0.246060 -0.011889 0.516521 -0.000011 0.000031 0.000025
 23   3.942374 1.334565 -1.631083 0.000019 0.000002 -0.000024
 24   -0.246150 -0.011872 -0.516511 -0.000005 -0.000006 0.000048
 25   4.941364 1.997338 1.629330 0.000018 -0.000001 -0.000024
 26   4.941382 1.997366 -1.629410 -0.000001 0.000005 -0.000024
 27   2.914462 1.619264 1.514501 -0.000019 -0.000022 -0.000050
 28   2.916892 1.618870 -1.501142 -0.000002 -0.000009 -0.000024
 29   8.824059 0.150544 0.091743 0.000006 -0.000231 -0.174534
 30   2.111085 -0.561179 1.784320 -0.000008 -0.000682 0.000024
 31   2.121290 -0.561289 -1.853599 0.000000 0.000000 -0.000002
 32   -0.814395 -0.093824 3.127092 3.071965 -0.114691 1.239365
 33   14.298673 -0.408176 0.471578 0.000248 0.000063 -1.896136
 34   15.835795 0.581398 0.242756 -0.214735 0.106913 -0.097869
 35   -0.815868 -0.091229 -3.114430 0.066464 3.132818 -1.010216
 36   14.294526 -0.410349 -0.467541 0.000021 -0.000012 -2.607695
 37   15.834409 0.579420 -0.284600 -0.006092 -0.035255 0.214508
 38   1.139685 -3.453749 -2.823813 0.000000 0.000000 0.000001
 39   -4.457742 -1.054854 -0.746180 0.000000 0.000000 0.000000
 40   1.118101 -3.449769 3.237290 0.000000 0.000001 0.000000
 41   -4.433840 -1.059130 0.959566 -0.000001 0.000000 0.000000
 42   -0.657468 1.697302 -2.688614 0.000000 0.000002 0.000000
 43   -0.664068 1.698578 2.869377 0.000000 0.000002 0.000000
time 9
  0   -0.967547 0.175787 -20.574476 0.000000 0.000000 -1.572114
  1   -1.093036 0.000002 -0.326057 -1.570756 -1.570425 -0.000219
  2   2.262337 0.113614 0.064702 -0.000052 0.000049 -0.051551
  3   2.380047 0.353302 0.047440 -0.255167 0.058385 0.219135
  4   2.033756 0.190472 -0.000128 -0.000010 0.000036 0.243917
  5   2.451511 0.204909 -0.003447 0.000000 -0.000005 0.285186
  6   7.247600 -0.397300 -0.109469 0.000001 0.000033 -0.209377
  7   -2.022252 -0.104661 3.136172 0.784604 -1.221935 -3.686232
  8   1.168026 -0.537438 -0.063437 -0.220045 0.874378 -0.601859
  9   6.790376 -0.619176 0.015206 -0.000158 -0.000285 -1.994456
 10   8.637599 0.544015 -0.090417 -1.174701 -0.597956 -0.222218
 11   6.790465 -0.619039 0.017802 0.004680 -0.011935 -1.411449
 12   -2.022474 -0.104699 -2.873818 -1.059288 1.075885 -3.935796
 13   1.167898 -0.537463 0.063297 0.117114 -0.674683 -0.240535
 14   7.002743 -0.617765 -0.183752 0.000286 0.000364 -1.961484
 15   8.209042 0.615527 -0.255885 1.667015 0.764779 -0.200324
 16   7.002735 -0.617911 -0.183641 0.012978 0.011033 -1.391676
 17   1.574674 0.609930 -0.000899 0.124992 -0.230365 0.518962
 18   -0.602177 0.511412 -0.000006 0.000000 0.000000 0.000000
 19   3.673773 0.177020 1.119313 -0.000002 -0.000014 -0.174510
 20   3.673767 0.176993 -1.117566 0.000007 -0.000003 -0.174546
 21   3.942357 1.334540 1.627658 0.000002 -0.000011 -0.000026
 22   -0.246060 -0.011889 0.516521 -0.000011 0.000031 0.000025
 23   3.942374 1.334565 -1.631083 0.000019 0.000002 -0.000024
 24   -0.246150 -0.011872 -0.516511 -0.000005 -0.000006 0.000048
 25   4.941364 1.997338 1.629330 0.000018 -0.000001 -0.000024
 26   4.941382 1.997366 -1.629410 -0.000001 0.000005 -0.000024
 27   2.914462 1.619264 1.514501 -0.000019 -0.000022 -0.000050
 28   2.916892 1.618870 -1.501142 -0.000002 -0.000009 -0.000024
 29   8.824059 0.150544 0.091743 0.000006 -0.000231 -0.174534
 30   2.111085 -0.561179 1.784320 -0.000008 -0.000682 0.000024
 31   2.121290 -0.561289 -1.853599 0.000000 0.000000 -0.000002
 32   -0.814395 -0.093824 3.127092 3.071965 -0.114691 1.239365
 33   14.298673 -0.408176 0.471578 0.000248 0.000063 -1.896136
 34   15.835795 0.581398 0.242756 -0.214735 0.106913 -0.097869
 35   -0.815868 -0.091229 -3.114430 0.066464 3.132818 -1.010216
 36   14.294526 -0.410349 -0.467541 0.000021 -0.000012 -2.607695
 37   15.834409 0.579420 -0.284600 -0.006092 -0.035255 0.214508
 38   1.139685 -3.453749 -2.823813 0.000000 0.000000 0.000001
 39   -4.457742 -1.054854 -0.746180 0.000000 0.000000 0.000000
 40   1.118101 -3.449769 3.237290 0.000000 0.000001 0.000000
 41   -4.433840 -1.059130 0.959566 -0.000001 0.000000 0.000000
 42   -0.657468 1.697302 -2.688614 0.000000 0.000002 0.000000
 43   -0.664068 1.698578 2.869377 0.000000 0.000002 0.000000
time 10
  0   -0.967547 0.175787 -20.574476 0.000000 0.000000 -1.572114
  1   -1.093036 0.000002 -0.326057 -1.570756 -1.570425 -0.000219
  2   2.262337 0.113614 0.064702 -0.000052 0.000049 -0.051551
  3   2.380047 0.353302 0.047440 -0.255167 0.058385 0.219135
  4   2.033756 0.190472 -0.000128 -0.000010 0.000036 0.243917
  5   2.451511 0.204909 -0.003447 0.000000 -0.000005 0.288282
  6   7.247600 -0.397300 -0.109469 0.000001 0.000033 -0.209377
  7   -2.022252 -0.104661 3.136172 0.774922 -1.218389 -3.676183
  8   1.168026 -0.537438 -0.063437 -0.218969 0.867938 -0.601606
  9   6.790376 -0.619176 0.015206 -0.000158 -0.000285 -1.994456
 10   8.637599 0.544015 -0.090417 -1.174701 -0.597956 -0.222218
 11   6.790465 -0.619039 0.017802 0.004680 -0.011935 -1.411449
 12   -2.022474 -0.104699 -2.873818 -1.050474 1.073157 -3.925552
 13   1.167898 -0.537463 0.063297 0.118309 -0.667258 -0.242230
 14   7.002743 -0.617765 -0.183752 0.000286 0.000364 -1.961484
 15   8.209042 0.615527 -0.255885 1.667015 0.764779 -0.200445
 16   7.002735 -0.617911 -0.183641 0.012978 0.011033 -1.391676
 17   1.574674 0.609930 -0.000899 0.124992 -0.230365 0.516005
 18   -0.602177 0.511412 -0.000006 0.000000 0.000000 0.000000
 19   3.673773 0.177020 1.119313 -0.000002 -0.000014 -0.174510
 20   3.673767 0.176993 -1.117566 0.000007 -0.000003 -0.174546
 21   3.942357 1.334540 1.627658 0.000002 -0.000011 -0.000026
 22   -0.246060 -0.011889 0.516521 -0.000011 0.000031 0.000025
 23   3.942374 1.334565 -1.631083 0.000019 0.000002 -0.000024
 24   -0.246150 -0.011872 -0.516511 -0.000005 -0.000006 0.000048
 25   4.941364 1.997338 1.629330 0.000018 -0.000001 -0.000024
 26   4.941382 1.997366 -1.629410 -0.000001 0.000005 -0.000024
 27   2.914462 1.619264 1.514501 -0.000019 -0.000022 -0.000050
 28   2.916892 1.618870 -1.501142 -0.000002 -0.000009 -0.000024
 29   8.824059 0.150544 0.091743 0.000006 -0.000231 -0.174534
 30   2.111085 -0.561179 1.784320 -0.000008 -0.000682 0.000024
 31   2.121290 -0.561289 -1.853599 0.000000 0.000000 -0.000002
 32   -0.814395 -0.093824 3.127092 3.071965 -0.114691 1.239365
 33   14.298673 -0.408176 0.471578 0.000248 0.000063 -1.896136
 34   15.835795 0.581398 0.242756 -0.214735 0.106913 -0.097869
 35   -0.815868 -0.091229 -3.114430 0.066464 3.132818 -1.010216
 36   14.294526 -0.410349 -0.467541 0.000021 -0.000012 -2.607695
 37   15.834409 0.579420 -0.284600 -0.006092 -0.035255 0.214508
 38   1.139685 -3.453749 -2.823813 0.000000 0.000000 0.000001
 39   -4.457742 -1.054854 -0.746180 0.000000 0.000000 0.000000
 40   1.118101 -3.449769 3.237290 0.000000 0.000001 0.000000
 41   -4.433840 -1.059130 0.959566 -0.000001 0.000000 0.000000
 42   -0.657468 1.697302 -2.688614 0.000000 0.000002 0.000000
 43   -0.664068 1.698578 2.869377 0.000000 0.000002 0.000000
time 11
  0   -0.967547 0.175787 -20.574476 0.000000 0.000000 -1.572114
  1   -1.093036 0.000002 -0.326057 -1.570756 -1.570425 -0.000219
  2   2.262337 0.113614 0.064702 -0.000052 0.000049 -0.051551
  3   2.380047 0.353302 0.047440 -0.255167 0.058385 0.219135
  4   2.033756 0.190472 -0.000128 -0.000010 0.000036 0.243917
  5   2.451511 0.204909 -0.003447 0.000000 -0.000005 0.290932
  6   7.247600 -0.397300 -0.109469 0.000001 0.000033 -0.209377
  7   -2.022252 -0.104661 3.136172 0.766774 -1.215362 -3.667543
  8   1.168026 -0.537438 -0.063437 -0.217830 0.862403 -0.601606
  9   6.790376 -0.619176 0.015206 -0.000158 -0.000285 -1.994456
 10   8.637599 0.544015 -0.090417 -1.174701 -0.597956 -0.222218
 11   6.790465 -0.619039 0.017802 0.004680 -0.011935 -1.411449
 12   -2.022474 -0.104699 -2.873818 -1.042809 1.070864 -3.916744
 13   1.167898 -0.537463 0.063297 0.119293 -0.660952 -0.243562
 14   7.002743 -0.617765 -0.183752 0.000286 0.000364 -1.961484
 15   8.209042 0.615527 -0.255885 1.667015 0.764779 -0.200324
 16   7.002735 -0.617911 -0.183641 0.012978 0.011033 -1.391676
 17   1.574674 0.609930 -0.000899 0.124992 -0.230365 0.513270
 18   -0.602177 0.511412 -0.000006 0.000000 0.000000 0.000000
 19   3.673773 0.177020 1.119313 -0.000002 -0.000014 -0.174510
 20   3.673767 0.176993 -1.117566 0.000007 -0.000003 -0.174546
 21   3.942357 1.334540 1.627658 0.000002 -0.000011 -0.000026
 22   -0.246060 -0.011889 0.516521 -0.000011 0.000031 0.000025
 23   3.942374 1.334565 -1.631083 0.000019 0.000002 -0.000024
 24   -0.246150 -0.011872 -0.516511 -0.000005 -0.000006 0.000048
 25   4.941364 1.997338 1.629330 0.000018 -0.000001 -0.000024
 26   4.941382 1.997366 -1.629410 -0.000001 0.000005 -0.000024
 27   2.914462 1.619264 1.514501 -0.000019 -0.000022 -0.000050
 28   2.916892 1.618870 -1.501142 -0.000002 -0.000009 -0.000024
 29   8.824059 0.150544 0.091743 0.000006 -0.000231 -0.174534
 30   2.111085 -0.561179 1.784320 -0.000008 -0.000682 0.000024
 31   2.121290 -0.561289 -1.853599 0.000000 0.000000 -0.000002
 32   -0.814395 -0.093824 3.127092 3.071965 -0.114691 1.239365
 33   14.298673 -0.408176 0.471578 0.000248 0.000063 -1.896136
 34   15.835795 0.581398 0.242756 -0.214735 0.106913 -0.097869
 35   -0.815868 -0.091229 -3.114430 0.066464 3.132818 -1.010216
 36   14.294526 -0.410349 -0.467541 0.000021 -0.000012 -2.607695
 37   15.834409 0.579420 -0.284600 -0.006092 -0.035255 0.214508
 38   1.139685 -3.453749 -2.823813 0.000000 0.000000 0.000001
 39   -4.457742 -1.054854 -0.746180 0.000000 0.000000 0.000000
 40   1.118101 -3.449769 3.237290 0.000000 0.000001 0.000000
 41   -4.433840 -1.059130 0.959566 -0.000001 0.000000 0.000000
 42   -0.657468 1.697302 -2.688614 0.000000 0.000002 0.000000
 43   -0.664068 1.698578 2.869377 0.000000 0.000002 0.000000
time 12
  0   -0.967547 0.175787 -20.574476 0.000000 0.000000 -1.572114
  1   -1.093036 0.000002 -0.326057 -1.570756 -1.570425 -0.000219
  2   2.262337 0.113614 0.064702 -0.000052 0.000049 -0.051551
  3   2.380047 0.353302 0.047440 -0.255167 0.058385 0.219135
  4   2.033756 0.190472 -0.000128 -0.000010 0.000036 0.243917
  5   2.451511 0.204909 -0.003447 0.000000 -0.000005 0.293235
  6   7.247600 -0.397300 -0.109469 0.000001 0.000033 -0.209377
  7   -2.022252 -0.104661 3.136172 0.760256 -1.212825 -3.660311
  8   1.168026 -0.537438 -0.063437 -0.216691 0.857724 -0.601353
  9   6.790376 -0.619176 0.015206 -0.000158 -0.000285 -1.994456
 10   8.637599 0.544015 -0.090417 -1.174701 -0.597956 -0.222218
 11   6.790465 -0.619039 0.017802 0.004680 -0.011935 -1.411449
 12   -2.022474 -0.104699 -2.873818 -1.036294 1.068745 -3.909372
 13   1.167898 -0.537463 0.063297 0.120277 -0.655663 -0.244591
 14   7.002743 -0.617765 -0.183752 0.000286 0.000364 -1.961484
 15   8.209042 0.615527 -0.255885 1.667015 0.764779 -0.200324
 16   7.002735 -0.617911 -0.183641 0.012978 0.011033 -1.391676
 17   1.574674 0.609930 -0.000899 0.124992 -0.230365 0.511089
 18   -0.602177 0.511412 -0.000006 0.000000 0.000000 0.000000
 19   3.673773 0.177020 1.119313 -0.000002 -0.000014 -0.174510
 20   3.673767 0.176993 -1.117566 0.000007 -0.000003 -0.174546
 21   3.942357 1.334540 1.627658 0.000002 -0.000011 -0.000026
 22   -0.246060 -0.011889 0.516521 -0.000011 0.000031 0.000025
 23   3.942374 1.334565 -1.631083 0.000019 0.000002 -0.000024
 24   -0.246150 -0.011872 -0.516511 -0.000005 -0.000006 0.000048
 25   4.941364 1.997338 1.629330 0.000018 -0.000001 -0.000024
 26   4.941382 1.997366 -1.629410 -0.000001 0.000005 -0.000024
 27   2.914462 1.619264 1.514501 -0.000019 -0.000022 -0.000050
 28   2.916892 1.618870 -1.501142 -0.000002 -0.000009 -0.000024
 29   8.824059 0.150544 0.091743 0.000006 -0.000231 -0.174534
 30   2.111085 -0.561179 1.784320 -0.000008 -0.000682 0.000024
 31   2.121290 -0.561289 -1.853599 0.000000 0.000000 -0.000002
 32   -0.814395 -0.093824 3.127092 3.071965 -0.114691 1.239365
 33   14.298673 -0.408176 0.471578 0.000248 0.000063 -1.896136
 34   15.835795 0.581398 0.242756 -0.214735 0.106913 -0.097869
 35   -0.815868 -0.091229 -3.114430 0.066464 3.132818 -1.010216
 36   14.294526 -0.410349 -0.467541 0.000021 -0.000012 -2.607695
 37   15.834409 0.579420 -0.284600 -0.006092 -0.035255 0.214508
 38   1.139685 -3.453749 -2.823813 0.000000 0.000000 0.000001
 39   -4.457742 -1.054854 -0.746180 0.000000 0.000000 0.000000
 40   1.118101 -3.449769 3.237290 0.000000 0.000001 0.000000
 41   -4.433840 -1.059130 0.959566 -0.000001 0.000000 0.000000
 42   -0.657468 1.697302 -2.688614 0.000000 0.000002 0.000000
 43   -0.664068 1.698578 2.869377 0.000000 0.000002 0.000000
time 13
  0   -0.967547 0.175787 -20.574476 0.000000 0.000000 -1.572114
  1   -1.093036 0.000002 -0.326057 -1.570756 -1.570425 -0.000219
  2   2.262337 0.113614 0.064702 -0.000052 0.000049 -0.051551
  3   2.380047 0.353302 0.047440 -0.255167 0.058385 0.219135
  4   2.033756 0.190472 -0.000128 -0.000010 0.000036 0.243917
  5   2.451511 0.204909 -0.003447 0.000000 -0.000005 0.294845
  6   7.247600 -0.397300 -0.109469 0.000001 0.000033 -0.209377
  7   -2.022252 -0.104661 3.136172 0.755271 -1.210779 -3.655146
  8   1.168026 -0.537438 -0.063437 -0.215995 0.854202 -0.601353
  9   6.790376 -0.619176 0.015206 -0.000158 -0.000285 -1.994456
 10   8.637599 0.544015 -0.090417 -1.174701 -0.597956 -0.222218
 11   6.790465 -0.619039 0.017802 0.004680 -0.011935 -1.411449
 12   -2.022474 -0.104699 -2.873818 -1.031600 1.067265 -3.903914
 13   1.167898 -0.537463 0.063297 0.120980 -0.651748 -0.245499
 14   7.002743 -0.617765 -0.183752 0.000286 0.000364 -1.961484
 15   8.209042 0.615527 -0.255885 1.667015 0.764779 -0.200445
 16   7.002735 -0.617911 -0.183641 0.012978 0.011033 -1.391676
 17   1.574674 0.609930 -0.000899 0.124992 -0.230365 0.509241
 18   -0.602177 0.511412 -0.000006 0.000000 0.000000 0.000000
 19   3.673773 0.177020 1.119313 -0.000002 -0.000014 -0.174510
 20   3.673767 0.176993 -1.117566 0.000007 -0.000003 -0.174546
 21   3.942357 1.334540 1.627658 0.000002 -0.000011 -0.000026
 22   -0.246060 -0.011889 0.516521 -0.000011 0.000031 0.000025
 23   3.942374 1.334565 -1.631083 0.000019 0.000002 -0.000024
 24   -0.246150 -0.011872 -0.516511 -0.000005 -0.000006 0.000048
 25   4.941364 1.997338 1.629330 0.000018 -0.000001 -0.000024
 26   4.941382 1.997366 -1.629410 -0.000001 0.000005 -0.000024
 27   2.914462 1.619264 1.514501 -0.000019 -0.000022 -0.000050
 28   2.916892 1.618870 -1.501142 -0.000002 -0.000009 -0.000024
 29   8.824059 0.150544 0.091743 0.000006 -0.000231 -0.174534
 30   2.111085 -0.561179 1.784320 -0.000008 -0.000682 0.000024
 31   2.121290 -0.561289 -1.853599 0.000000 0.000000 -0.000002
 32   -0.814395 -0.093824 3.127092 3.071965 -0.114691 1.239365
 33   14.298673 -0.408176 0.471578 0.000248 0.000063 -1.896136
 34   15.835795 0.581398 0.242756 -0.214735 0.106913 -0.097869
 35   -0.815868 -0.091229 -3.114430 0.066464 3.132818 -1.010216
 36   14.294526 -0.410349 -0.467541 0.000021 -0.000012 -2.607695
 37   15.834409 0.579420 -0.284600 -0.006092 -0.035255 0.214508
 38   1.139685 -3.453749 -2.823813 0.000000 0.000000 0.000001
 39   -4.457742 -1.054854 -0.746180 0.000000 0.000000 0.000000
 40   1.118101 -3.449769 3.237290 0.000000 0.000001 0.000000
 41   -4.433840 -1.059130 0.959566 -0.000001 0.000000 0.000000
 42   -0.657468 1.697302 -2.688614 0.000000 0.000002 0.000000
 43   -0.664068 1.698578 2.869377 0.000000 0.000002 0.000000
time 14
  0   -0.967547 0.175787 -20.574476 0.000000 0.000000 -1.572114
  1   -1.093036 0.000002 -0.326057 -1.570756 -1.570425 -0.000219
  2   2.262337 0.113614 0.064702 -0.000052 0.000049 -0.051551
  3   2.380047 0.353302 0.047440 -0.255167 0.058385 0.219135
  4   2.033756 0.190472 -0.000128 -0.000010 0.000036 0.243917
  5   2.451511 0.204909 -0.003447 0.000000 -0.000005 0.295984
  6   7.247600 -0.397300 -0.109469 0.000001 0.000033 -0.209377
  7   -2.022252 -0.104661 3.136172 0.752204 -1.209481 -3.651671
  8   1.168026 -0.537438 -0.063437 -0.215552 0.852391 -0.601100
  9   6.790376 -0.619176 0.015206 -0.000158 -0.000285 -1.994456
 10   8.637599 0.544015 -0.090417 -1.174701 -0.597956 -0.222218
 11   6.790465 -0.619039 0.017802 0.004680 -0.011935 -1.411449
 12   -2.022474 -0.104699 -2.873818 -1.028630 1.066278 -3.900659
 13   1.167898 -0.537463 0.063297 0.121191 -0.649256 -0.245923
 14   7.002743 -0.617765 -0.183752 0.000286 0.000364 -1.961484
 15   8.209042 0.615527 -0.255885 1.667015 0.764779 -0.200445
 16   7.002735 -0.617911 -0.183641 0.012978 0.011033 -1.391676
 17   1.574674 0.609930 -0.000899 0.124992 -0.230365 0.508206
 18   -0.602177 0.511412 -0.000006 0.000000 0.000000 0.000000
 19   3.673773 0.177020 1.119313 -0.000002 -0.000014 -0.174510
 20   3.673767 0.176993 -1.117566 0.000007 -0.000003 -0.174546
 21   3.942357 1.334540 1.627658 0.000002 -0.000011 -0.000026
 22   -0.246060 -0.011889 0.516521 -0.000011 0.000031 0.000025
 23   3.942374 1.334565 -1.631083 0.000019 0.000002 -0.000024
 24   -0.246150 -0.011872 -0.516511 -0.000005 -0.000006 0.000048
 25   4.941364 1.997338 1.629330 0.000018 -0.000001 -0.000024
 26   4.941382 1.997366 -1.629410 -0.000001 0.000005 -0.000024
 27   2.914462 1.619264 1.514501 -0.000019 -0.000022 -0.000050
 28   2.916892 1.618870 -1.501142 -0.000002 -0.000009 -0.000024
 29   8.824059 0.150544 0.091743 0.000006 -0.000231 -0.174534
 30   2.111085 -0.561179 1.784320 -0.000008 -0.000682 0.000024
 31   2.121290 -0.561289 -1.853599 0.000000 0.000000 -0.000002
 32   -0.814395 -0.093824 3.127092 3.071965 -0.114691 1.239365
 33   14.298673 -0.408176 0.471578 0.000248 0.000063 -1.896136
 34   15.835795 0.581398 0.242756 -0.214735 0.106913 -0.097869
 35   -0.815868 -0.091229 -3.114430 0.066464 3.132818 -1.010216
 36   14.294526 -0.410349 -0.467541 0.000021 -0.000012 -2.607695
 37   15.834409 0.579420 -0.284600 -0.006092 -0.035255 0.214508
 38   1.139685 -3.453749 -2.823813 0.000000 0.000000 0.000001
 39   -4.457742 -1.054854 -0.746180 0.000000 0.000000 0.000000
 40   1.118101 -3.449769 3.237290 0.000000 0.000001 0.000000
 41   -4.433840 -1.059130 0.959566 -0.000001 0.000000 0.000000
 42   -0.657468 1.697302 -2.688614 0.000000 0.000002 0.000000
 43   -0.664068 1.698578 2.869377 0.000000 0.000002 0.000000
time 15
  0   -0.967547 0.175787 -20.574476 0.000000 0.000000 -1.572114
  1   -1.093036 0.000002 -0.326057 -1.570756 -1.570425 -0.000219
  2   2.262337 0.113614 0.064702 -0.000052 0.000049 -0.051551
  3   2.380047 0.353302 0.047440 -0.255167 0.058385 0.219135
  4   2.033756 0.190472 -0.000128 -0.000010 0.000036 0.243917
  5   2.451511 0.204909 -0.003447 0.000000 -0.000005 0.296306
  6   7.247600 -0.397300 -0.109469 0.000001 0.000033 -0.209377
  7   -2.022252 -0.104661 3.136172 0.751245 -1.209107 -3.650544
  8   1.168026 -0.537438 -0.063437 -0.215489 0.851485 -0.601100
  9   6.790376 -0.619176 0.015206 -0.000158 -0.000285 -1.994456
 10   8.637599 0.544015 -0.090417 -1.174701 -0.597956 -0.222218
 11   6.790465 -0.619039 0.017802 0.004680 -0.011935 -1.411449
 12   -2.022474 -0.104699 -2.873818 -1.027480 1.065785 -3.899415
 13   1.167898 -0.537463 0.063297 0.121402 -0.648239 -0.245923
 14   7.002743 -0.617765 -0.183752 0.000286 0.000364 -1.961484
 15   8.209042 0.615527 -0.255885 1.667015 0.764779 -0.200445
 16   7.002735 -0.617911 -0.183641 0.012978 0.011033 -1.391676
 17   1.574674 0.609930 -0.000899 0.124992 -0.230365 0.507984
 18   -0.602177 0.511412 -0.000006 0.000000 0.000000 0.000000
 19   3.673773 0.177020 1.119313 -0.000002 -0.000014 -0.174510
 20   3.673767 0.176993 -1.117566 0.000007 -0.000003 -0.174546
 21   3.942357 1.334540 1.627658 0.000002 -0.000011 -0.000026
 22   -0.246060 -0.011889 0.516521 -0.000011 0.000031 0.000025
 23   3.942374 1.334565 -1.631083 0.000019 0.000002 -0.000024
 24   -0.246150 -0.011872 -0.516511 -0.000005 -0.000006 0.000048
 25   4.941364 1.997338 1.629330 0.000018 -0.000001 -0.000024
 26   4.941382 1.997366 -1.629410 -0.000001 0.000005 -0.000024
 27   2.914462 1.619264 1.514501 -0.000019 -0.000022 -0.000050
 28   2.916892 1.618870 -1.501142 -0.000002 -0.000009 -0.000024
 29   8.824059 0.150544 0.091743 0.000006 -0.000231 -0.174534
 30   2.111085 -0.561179 1.784320 -0.000008 -0.000682 0.000024
 31   2.121290 -0.561289 -1.853599 0.000000 0.000000 -0.000002
 32   -0.814395 -0.093824 3.127092 3.071965 -0.114691 1.239365
 33   14.298673 -0.408176 0.471578 0.000248 0.000063 -1.896136
 34   15.835795 0.581398 0.242756 -0.214735 0.106913 -0.097869
 35   -0.815868 -0.091229 -3.114430 0.066464 3.132818 -1.010216
 36   14.294526 -0.410349 -0.467541 0.000021 -0.000012 -2.607695
 37   15.834409 0.579420 -0.284600 -0.006092 -0.035255 0.214508
 38   1.139685 -3.453749 -2.823813 0.000000 0.000000 0.000001
 39   -4.457742 -1.054854 -0.746180 0.000000 0.000000 0.000000
 40   1.118101 -3.449769 3.237290 0.000000 0.000001 0.000000
 41   -4.433840 -1.059130 0.959566 -0.000001 0.000000 0.000000
 42   -0.657468 1.697302 -2.688614 0.000000 0.000002 0.000000
 43   -0.664068 1.698578 2.869377 0.000000 0.000002 0.000000
time 16
  0   -0.967547 0.175787 -20.574476 0.000000 0.000000 -1.572114
  1   -1.093036 0.000002 -0.326057 -1.570756 -1.570425 -0.000219
  2   2.262337 0.113614 0.064702 -0.000052 0.000049 -0.051551
  3   2.380047 0.353302 0.047440 -0.255167 0.058385 0.219135
  4   2.033756 0.190472 -0.000128 -0.000010 0.000036 0.243917
  5   2.451511 0.204909 -0.003447 0.000000 -0.000005 0.295984
  6   7.247600 -0.397300 -0.109469 0.000001 0.000033 -0.209377
  7   -2.022252 -0.104661 3.136172 0.752204 -1.209481 -3.651671
  8   1.168026 -0.537438 -0.063437 -0.215552 0.852391 -0.601100
  9   6.790376 -0.619176 0.015206 -0.000158 -0.000285 -1.994456
 10   8.637599 0.544015 -0.090417 -1.174701 -0.597956 -0.222218
 11   6.790465 -0.619039 0.017802 0.004680 -0.011935 -1.411449
 12   -2.022474 -0.104699 -2.873818 -1.028630 1.066278 -3.900659
 13   1.167898 -0.537463 0.063297 0.121191 -0.649256 -0.245923
 14   7.002743 -0.617765 -0.183752 0.000286 0.000364 -1.961484
 15   8.209042 0.615527 -0.255885 1.667015 0.764779 -0.200445
 16   7.002735 -0.617911 -0.183641 0.012978 0.011033 -1.391676
 17   1.574674 0.609930 -0.000899 0.124992 -0.230365 0.508206
 18   -0.602177 0.511412 -0.000006 0.000000 0.000000 0.000000
 19   3.673773 0.177020 1.119313 -0.000002 -0.000014 -0.174510
 20   3.673767 0.176993 -1.117566 0.000007 -0.000003 -0.174546
 21   3.942357 1.334540 1.627658 0.000002 -0.000011 -0.000026
 22   -0.246060 -0.011889 0.516521 -0.000011 0.000031 0.000025
 23   3.942374 1.334565 -1.631083 0.000019 0.000002 -0.000024
 24   -0.246150 -0.011872 -0.516511 -0.000005 -0.000006 0.000048
 25   4.941364 1.997338 1.629330 0.000018 -0.000001 -0.000024
 26   4.941382 1.997366 -1.629410 -0.000001 0.000005 -0.000024
 27   2.914462 1.619264 1.514501 -0.000019 -0.000022 -0.000050
 28   2.916892 1.618870 -1.501142 -0.000002 -0.000009 -0.000024
 29   8.824059 0.150544 0.091743 0.000006 -0.000231 -0.174534
 30   2.111085 -0.561179 1.784320 -0.000008 -0.000682 0.000024
 31   2.121290 -0.561289 -1.853599 0.000000 0.000000 -0.000002
 32   -0.814395 -0.093824 3.127092 3.071965 -0.114691 1.239365
 33   14.298673 -0.408176 0.471578 0.000248 0.000063 -1.896136
 34   15.835795 0.581398 0.242756 -0.214735 0.106913 -0.097869
 35   -0.815868 -0.091229 -3.114430 0.066464 3.132818 -1.010216
 36   14.294526 -0.410349 -0.467541 0.000021 -0.000012 -2.607695
 37   15.834409 0.579420 -0.284600 -0.006092 -0.035255 0.214508
 38   1.139685 -3.453749 -2.823813 0.000000 0.000000 0.000001
 39   -4.457742 -1.054854 -0.746180 0.000000 0.000000 0.000000
 40   1.118101 -3.449769 3.237290 0.000000 0.000001 0.000000
 41   -4.433840 -1.059130 0.959566 -0.000001 0.000000 0.000000
 42   -0.657468 1.697302 -2.688614 0.000000 0.000002 0.000000
 43   -0.664068 1.698578 2.869377 0.000000 0.000002 0.000000
time 17
  0   -0.967547 0.175787 -20.574476 0.000000 0.000000 -1.572114
  1   -1.093036 0.000002 -0.326057 -1.570756 -1.570425 -0.000219
  2   2.262337 0.113614 0.064702 -0.000052 0.000049 -0.051551
  3   2.380047 0.353302 0.047440 -0.255167 0.058385 0.219135
  4   2.033756 0.190472 -0.000128 -0.000010 0.000036 0.243917
  5   2.451511 0.204909 -0.003447 0.000000 -0.000005 0.294845
  6   7.247600 -0.397300 -0.109469 0.000001 0.000033 -0.209377
  7   -2.022252 -0.104661 3.136172 0.755271 -1.210779 -3.655146
  8   1.168026 -0.537438 -0.063437 -0.215995 0.854202 -0.601353
  9   6.790376 -0.619176 0.015206 -0.000158 -0.000285 -1.994456
 10   8.637599 0.544015 -0.090417 -1.174701 -0.597956 -0.222218
 11   6.790465 -0.619039 0.017802 0.004680 -0.011935 -1.411449
 12   -2.022474 -0.104699 -2.873818 -1.031600 1.067265 -3.903914
 13   1.167898 -0.537463 0.063297 0.120980 -0.651748 -0.245499
 14   7.002743 -0.617765 -0.183752 0.000286 0.000364 -1.961484
 15   8.209042 0.615527 -0.255885 1.667015 0.764779 -0.200445
 16   7.002735 -0.617911 -0.183641 0.012978 0.011033 -1.391676
 17   1.574674 0.609930 -0.000899 0.124992 -0.230365 0.509241
 18   -0.602177 0.511412 -0.000006 0.000000 0.000000 0.000000
 19   3.673773 0.177020 1.119313 -0.000002 -0.000014 -0.174510
 20   3.673767 0.176993 -1.117566 0.000007 -0.000003 -0.174546
 21   3.942357 1.334540 1.627658 0.000002 -0.000011 -0.000026
 22   -0.246060 -0.011889 0.516521 -0.000011 0.000031 0.000025
 23   3.942374 1.334565 -1.631083 0.000019 0.000002 -0.000024
 24   -0.246150 -0.011872 -0.516511 -0.000005 -0.000006 0.000048
 25   4.941364 1.997338 1.629330 0.000018 -0.000001 -0.000024
 26   4.941382 1.997366 -1.629410 -0.000001 0.000005 -0.000024
 27   2.914462 1.619264 1.514501 -0.000019 -0.000022 -0.000050
 28   2.916892 1.618870 -1.501142 -0.000002 -0.000009 -0.000024
 29   8.824059 0.150544 0.091743 0.000006 -0.000231 -0.174534
 30   2.111085 -0.561179 1.784320 -0.000008 -0.000682 0.000024
 31   2.121290 -0.561289 -1.853599 0.000000 0.000000 -0.000002
 32   -0.814395 -0.093824 3.127092 3.071965 -0.114691 1.239365
 33   14.298673 -0.408176 0.471578 0.000248 0.000063 -1.896136
 34   15.835795 0.581398 0.242756 -0.214735 0.106913 -0.097869
 35   -0.815868 -0.091229 -3.114430 0.066464 3.132818 -1.010216
 36   14.294526 -0.410349 -0.467541 0.000021 -0.000012 -2.607695
 37   15.834409 0.579420 -0.284600 -0.006092 -0.035255 0.214508
 38   1.139685 -3.453749 -2.823813 0.000000 0.000000 0.000001
 39   -4.457742 -1.054854 -0.746180 0.000000 0.000000 0.000000
 40   1.118101 -3.449769 3.237290 0.000000 0.000001 0.000000
 41   -4.433840 -1.059130 0.959566 -0.000001 0.000000 0.000000
 42   -0.657468 1.697302 -2.688614 0.000000 0.000002 0.000000
 43   -0.664068 1.698578 2.869377 0.000000 0.000002 0.000000
time 18
  0   -0.967547 0.175787 -20.574476 0.000000 0.000000 -1.572114
  1   -1.093036 0.000002 -0.326057 -1.570756 -1.570425 -0.000219
  2   2.262337 0.113614 0.064702 -0.000052 0.000049 -0.051551
  3   2.380047 0.353302 0.047440 -0.255167 0.058385 0.219135
  4   2.033756 0.190472 -0.000128 -0.000010 0.000036 0.243917
  5   2.451511 0.204909 -0.003447 0.000000 -0.000005 0.293235
  6   7.247600 -0.397300 -0.109469 0.000001 0.000033 -0.209377
  7   -2.022252 -0.104661 3.136172 0.760256 -1.212825 -3.660311
  8   1.168026 -0.537438 -0.063437 -0.216691 0.857724 -0.601353
  9   6.790376 -0.619176 0.015206 -0.000158 -0.000285 -1.994456
 10   8.637599 0.544015 -0.090417 -1.174701 -0.597956 -0.222218
 11   6.790465 -0.619039 0.017802 0.004680 -0.011935 -1.411449
 12   -2.022474 -0.104699 -2.873818 -1.036294 1.068745 -3.909372
 13   1.167898 -0.537463 0.063297 0.120277 -0.655663 -0.244591
 14   7.002743 -0.617765 -0.183752 0.000286 0.000364 -1.961484
 15   8.209042 0.615527 -0.255885 1.667015 0.764779 -0.200324
 16   7.002735 -0.617911 -0.183641 0.012978 0.011033 -1.391676
 17   1.574674 0.609930 -0.000899 0.124992 -0.230365 0.511089
 18   -0.602177 0.511412 -0.000006 0.000000 0.000000 0.000000
 19   3.673773 0.177020 1.119313 -0.000002 -0.000014 -0.174510
 20   3.673767 0.176993 -1.117566 0.000007 -0.000003 -0.174546
 21   3.942357 1.334540 1.627658 0.000002 -0.000011 -0.000026
 22   -0.246060 -0.011889 0.516521 -0.000011 0.000031 0.000025
 23   3.942374 1.334565 -1.631083 0.000019 0.000002 -0.000024
 24   -0.246150 -0.011872 -0.516511 -0.000005 -0.000006 0.000048
 25   4.941364 1.997338 1.629330 0.000018 -0.000001 -0.000024
 26   4.941382 1.997366 -1.629410 -0.000001 0.000005 -0.000024
 27   2.914462 1.619264 1.514501 -0.000019 -0.000022 -0.000050
 28   2.916892 1.618870 -1.501142 -0.000002 -0.000009 -0.000024
 29   8.824059 0.150544 0.091743 0.000006 -0.000231 -0.174534
 30   2.111085 -0.561179 1.784320 -0.000008 -0.000682 0.000024
 31   2.121290 -0.561289 -1.853599 0.000000 0.000000 -0.000002
 32   -0.814395 -0.093824 3.127092 3.071965 -0.114691 1.239365
 33   14.298673 -0.408176 0.471578 0.000248 0.000063 -1.896136
 34   15.835795 0.581398 0.242756 -0.214735 0.106913 -0.097869
 35   -0.815868 -0.091229 -3.114430 0.066464 3.132818 -1.010216
 36   14.294526 -0.410349 -0.467541 0.000021 -0.000012 -2.607695
 37   15.834409 0.579420 -0.284600 -0.006092 -0.035255 0.214508
 38   1.139685 -3.453749 -2.823813 0.000000 0.000000 0.000001
 39   -4.457742 -1.054854 -0.746180 0.000000 0.000000 0.000000
 40   1.118101 -3.449769 3.237290 0.000000 0.000001 0.000000
 41   -4.433840 -1.059130 0.959566 -0.000001 0.000000 0.000000
 42   -0.657468 1.697302 -2.688614 0.000000 0.000002 0.000000
 43   -0.664068 1.698578 2.869377 0.000000 0.000002 0.000000
time 19
  0   -0.967547 0.175787 -20.574476 0.000000 0.000000 -1.572114
  1   -1.093036 0.000002 -0.326057 -1.570756 -1.570425 -0.000219
  2   2.262337 0.113614 0.064702 -0.000052 0.000049 -0.051551
  3   2.380047 0.353302 0.047440 -0.255167 0.058385 0.219135
  4   2.033756 0.190472 -0.000128 -0.000010 0.000036 0.243917
  5   2.451511 0.204909 -0.003447 0.000000 -0.000005 0.290932
  6   7.247600 -0.397300 -0.109469 0.000001 0.000033 -0.209377
  7   -2.022252 -0.104661 3.136172 0.766774 -1.215362 -3.667543
  8   1.168026 -0.537438 -0.063437 -0.217830 0.862403 -0.601606
  9   6.790376 -0.619176 0.015206 -0.000158 -0.000285 -1.994456
 10   8.637599 0.544015 -0.090417 -1.174701 -0.597956 -0.222218
 11   6.790465 -0.619039 0.017802 0.004680 -0.011935 -1.411449
 12   -2.022474 -0.104699 -2.873818 -1.042809 1.070864 -3.916744
 13   1.167898 -0.537463 0.063297 0.119293 -0.660952 -0.243562
 14   7.002743 -0.617765 -0.183752 0.000286 0.000364 -1.961484
 15   8.209042 0.615527 -0.255885 1.667015 0.764779 -0.200324
 16   7.002735 -0.617911 -0.183641 0.012978 0.011033 -1.391676
 17   1.574674 0.609930 -0.000899 0.124992 -0.230365 0.513270
 18   -0.602177 0.511412 -0.000006 0.000000 0.000000 0.000000
 19   3.673773 0.177020 1.119313 -0.000002 -0.000014 -0.174510
 20   3.673767 0.176993 -1.117566 0.000007 -0.000003 -0.174546
 21   3.942357 1.334540 1.627658 0.000002 -0.000011 -0.000026
 22   -0.246060 -0.011889 0.516521 -0.000011 0.000031 0.000025
 23   3.942374 1.334565 -1.631083 0.000019 0.000002 -0.000024
 24   -0.246150 -0.011872 -0.516511 -0.000005 -0.000006 0.000048
 25   4.941364 1.997338 1.629330 0.000018 -0.000001 -0.000024
 26   4.941382 1.997366 -1.629410 -0.000001 0.000005 -0.000024
 27   2.914462 1.619264 1.514501 -0.000019 -0.000022 -0.000050
 28   2.916892 1.618870 -1.501142 -0.000002 -0.000009 -0.000024
 29   8.824059 0.150544 0.091743 0.000006 -0.000231 -0.174534
 30   2.111085 -0.561179 1.784320 -0.000008 -0.000682 0.000024
 31   2.121290 -0.561289 -1.853599 0.000000 0.000000 -0.000002
 32   -0.814395 -0.093824 3.127092 3.071965 -0.114691 1.239365
 33   14.298673 -0.408176 0.471578 0.000248 0.000063 -1.896136
 34   15.835795 0.581398 0.242756 -0.214735 0.106913 -0.097869
 35   -0.815868 -0.091229 -3.114430 0.066464 3.132818 -1.010216
 36   14.294526 -0.410349 -0.467541 0.000021 -0.000012 -2.607695
 37   15.834409 0.579420 -0.284600 -0.006092 -0.035255 0.214508
 38   1.139685 -3.453749 -2.823813 0.000000 0.000000 0.000001
 39   -4.457742 -1.054854 -0.746180 0.000000 0.000000 0.000000
 40   1.118101 -3.449769 3.237290 0.000000 0.000001 0.000000
 41   -4.433840 -1.059130 0.959566 -0.000001 0.000000 0.000000
 42   -0.657468 1.697302 -2.688614 0.000000 0.000002 0.000000
 43   -0.664068 1.698578 2.869377 0.000000 0.000002 0.000000
time 20
  0   -0.967547 0.175787 -20.574476 0.000000 0.000000 -1.572114
  1   -1.093036 0.000002 -0.326057 -1.570756 -1.570425 -0.000219
  2   2.262337 0.113614 0.064702 -0.000052 0.000049 -0.051551
  3   2.380047 0.353302 0.047440 -0.255167 0.058385 0.219135
  4   2.033756 0.190472 -0.000128 -0.000010 0.000036 0.243917
  5   2.451511 0.204909 -0.003447 0.000000 -0.000005 0.288282
  6   7.247600 -0.397300 -0.109469 0.000001 0.000033 -0.209377
  7   -2.022252 -0.104661 3.136172 0.774922 -1.218389 -3.676183
  8   1.168026 -0.537438 -0.063437 -0.218969 0.867938 -0.601606
  9   6.790376 -0.619176 0.015206 -0.000158 -0.000285 -1.994456
 10   8.637599 0.544015 -0.090417 -1.174701 -0.597956 -0.222218
 11   6.790465 -0.619039 0.017802 0.004680 -0.011935 -1.411449
 12   -2.022474 -0.104699 -2.873818 -1.050474 1.073157 -3.925552
 13   1.167898 -0.537463 0.063297 0.118309 -0.667258 -0.242230
 14   7.002743 -0.617765 -0.183752 0.000286 0.000364 -1.961484
 15   8.209042 0.615527 -0.255885 1.667015 0.764779 -0.200445
 16   7.002735 -0.617911 -0.183641 0.012978 0.011033 -1.391676
 17   1.574674 0.609930 -0.000899 0.124992 -0.230365 0.516005
 18   -0.602177 0.511412 -0.000006 0.000000 0.000000 0.000000
 19   3.673773 0.177020 1.119313 -0.000002 -0.000014 -0.174510
 20   3.673767 0.176993 -1.117566 0.000007 -0.000003 -0.174546
 21   3.942357 1.334540 1.627658 0.000002 -0.000011 -0.000026
 22   -0.246060 -0.011889 0.516521 -0.000011 0.000031 0.000025
 23   3.942374 1.334565 -1.631083 0.000019 0.000002 -0.000024
 24   -0.246150 -0.011872 -0.516511 -0.000005 -0.000006 0.000048
 25   4.941364 1.997338 1.629330 0.000018 -0.000001 -0.000024
 26   4.941382 1.997366 -1.629410 -0.000001 0.000005 -0.000024
 27   2.914462 1.619264 1.514501 -0.000019 -0.000022 -0.000050
 28   2.916892 1.618870 -1.501142 -0.000002 -0.000009 -0.000024
 29   8.824059 0.150544 0.091743 0.000006 -0.000231 -0.174534
 30   2.111085 -0.561179 1.784320 -0.000008 -0.000682 0.000024
 31   2.121290 -0.561289 -1.853599 0.000000 0.000000 -0.000002
 32   -0.814395 -0.093824 3.127092 3.071965 -0.114691 1.239365
 33   14.298673 -0.408176 0.471578 0.000248 0.000063 -1.896136
 34   15.835795 0.581398 0.242756 -0.214735 0.106913 -0.097869
 35   -0.815868 -0.091229 -3.114430 0.066464 3.132818 -1.010216
 36   14.294526 -0.410349 -0.467541 0.000021 -0.000012 -2.607695
 37   15.834409 0.579420 -0.284600 -0.006092 -0.035255 0.214508
 38   1.139685 -3.453749 -2.823813 0.000000 0.000000 0.000001
 39   -4.457742 -1.054854 -0.746180 0.000000 0.000000 0.000000
 40   1.118101 -3.449769 3.237290 0.000000 0.000001 0.000000
 41   -4.433840 -1.059130 0.959566 -0.000001 0.000000 0.000000
 42   -0.657468 1.697302 -2.688614 0.000000 0.000002 0.000000
 43   -0.664068 1.698578 2.869377 0.000000 0.000002 0.000000
time 21
  0   -0.967547 0.175787 -20.574476 0.000000 0.000000 -1.572114
  1   -1.093036 0.000002 -0.326057 -1.570756 -1.570425 -0.000219
  2   2.262337 0.113614 0.064702 -0.000052 0.000049 -0.051551
  3   2.380047 0.353302 0.047440 -0.255167 0.058385 0.219135
  4   2.033756 0.190472 -0.000128 -0.000010 0.000036 0.243917
  5   2.451511 0.204909 -0.003447 0.000000 -0.000005 0.285186
  6   7.247600 -0.397300 -0.109469 0.000001 0.000033 -0.209377
  7   -2.022252 -0.104661 3.136172 0.784604 -1.221935 -3.686232
  8   1.168026 -0.537438 -0.063437 -0.220045 0.874378 -0.601859
  9   6.790376 -0.619176 0.015206 -0.000158 -0.000285 -1.994456
 10   8.637599 0.544015 -0.090417 -1.174701 -0.597956 -0.222218
 11   6.790465 -0.619039 0.017802 0.004680 -0.011935 -1.411449
 12   -2.022474 -0.104699 -2.873818 -1.059288 1.075885 -3.935796
 13   1.167898 -0.537463 0.063297 0.117114 -0.674683 -0.240535
 14   7.002743 -0.617765 -0.183752 0.000286 0.000364 -1.961484
 15   8.209042 0.615527 -0.255885 1.667015 0.764779 -0.200324
 16   7.002735 -0.617911 -0.183641 0.012978 0.011033 -1.391676
 17   1.574674 0.609930 -0.000899 0.124992 -0.230365 0.518962
 18   -0.602177 0.511412 -0.000006 0.000000 0.000000 0.000000
 19   3.673773 0.177020 1.119313 -0.000002 -0.000014 -0.174510
 20   3.673767 0.176993 -1.117566 0.000007 -0.000003 -0.174546
 21   3.942357 1.334540 1.627658 0.000002 -0.000011 -0.000026
 22   -0.246060 -0.011889 0.516521 -0.000011 0.000031 0.000025
 23   3.942374 1.334565 -1.631083 0.000019 0.000002 -0.000024
 24   -0.246150 -0.011872 -0.516511 -0.000005 -0.000006 0.000048
 25   4.941364 1.997338 1.629330 0.000018 -0.000001 -0.000024
 26   4.941382 1.997366 -1.629410 -0.000001 0.000005 -0.000024
 27   2.914462 1.619264 1.514501 -0.000019 -0.000022 -0.000050
 28   2.916892 1.618870 -1.501142 -0.000002 -0.000009 -0.000024
 29   8.824059 0.150544 0.091743 0.000006 -0.000231 -0.174534
 30   2.111085 -0.561179 1.784320 -0.000008 -0.000682 0.000024
 31   2.121290 -0.561289 -1.853599 0.000000 0.000000 -0.000002
 32   -0.814395 -0.093824 3.127092 3.071965 -0.114691 1.239365
 33   14.298673 -0.408176 0.471578 0.000248 0.000063 -1.896136
 34   15.835795 0.581398 0.242756 -0.214735 0.106913 -0.097869
 35   -0.815868 -0.091229 -3.114430 0.066464 3.132818 -1.010216
 36   14.294526 -0.410349 -0.467541 0.000021 -0.000012 -2.607695
 37   15.834409 0.579420 -0.284600 -0.006092 -0.035255 0.214508
 38   1.139685 -3.453749 -2.823813 0.000000 0.000000 0.000001
 39   -4.457742 -1.054854 -0.746180 0.000000 0.000000 0.000000
 40   1.118101 -3.449769 3.237290 0.000000 0.000001 0.000000
 41   -4.433840 -1.059130 0.959566 -0.000001 0.000000 0.000000
 42   -0.657468 1.697302 -2.688614 0.000000 0.000002 0.000000
 43   -0.664068 1.698578 2.869377 0.000000 0.000002 0.000000
time 22
  0   -0.967547 0.175787 -20.574476 0.000000 0.000000 -1.572114
  1   -1.093036 0.000002 -0.326057 -1.570756 -1.570425 -0.000219
  2   2.262337 0.113614 0.064702 -0.000052 0.000049 -0.051551
  3   2.380047 0.353302 0.047440 -0.255167 0.058385 0.219135
  4   2.033756 0.190472 -0.000128 -0.000010 0.000036 0.243917
  5   2.451511 0.204909 -0.003447 0.000000 -0.000005 0.281744
  6   7.247600 -0.397300 -0.109469 0.000001 0.000033 -0.209377
  7   -2.022252 -0.104661 3.136172 0.795244 -1.225798 -3.697596
  8   1.168026 -0.537438 -0.063437 -0.221627 0.881372 -0.602302
  9   6.790376 -0.619176 0.015206 -0.000158 -0.000285 -1.994456
 10   8.637599 0.544015 -0.090417 -1.174701 -0.597956 -0.222218
 11   6.790465 -0.619039 0.017802 0.004680 -0.011935 -1.411449
 12   -2.022474 -0.104699 -2.873818 -1.069348 1.078816 -3.946902
 13   1.167898 -0.537463 0.063297 0.115708 -0.682514 -0.238840
 14   7.002743 -0.617765 -0.183752 0.000286 0.000364 -1.961484
 15   8.209042 0.615527 -0.255885 1.667015 0.764779 -0.200324
 16   7.002735 -0.617911 -0.183641 0.012978 0.011033 -1.391676
 17   1.574674 0.609930 -0.000899 0.124992 -0.230365 0.522362
 18   -0.602177 0.511412 -0.000006 0.000000 0.000000 0.000000
 19   3.673773 0.177020 1.119313 -0.000002 -0.000014 -0.174510
 20   3.673767 0.176993 -1.117566 0.000007 -0.000003 -0.174546
 21   3.942357 1.334540 1.627658 0.000002 -0.000011 -0.000026
 22   -0.246060 -0.011889 0.516521 -0.000011 0.000031 0.000025
 23   3.942374 1.334565 -1.631083 0.000019 0.000002 -0.000024
 24   -0.246150 -0.011872 -0.516511 -0.000005 -0.000006 0.000048
 25   4.941364 1.997338 1.629330 0.000018 -0.000001 -0.000024
 26   4.941382 1.997366 -1.629410 -0.000001 0.000005 -0.000024
 27   2.914462 1.619264 1.514501 -0.000019 -0.000022 -0.000050
 28   2.916892 1.618870 -1.501142 -0.000002 -0.000009 -0.000024
 29   8.824059 0.150544 0.091743 0.000006 -0.000231 -0.174534
 30   2.111085 -0.561179 1.784320 -0.000008 -0.000682 0.000024
 31   2.121290 -0.561289 -1.853599 0.000000 0.000000 -0.000002
 32   -0.814395 -0.093824 3.127092 3.071965 -0.114691 1.239365
 33   14.298673 -0.408176 0.471578 0.000248 0.000063 -1.896136
 34   15.835795 0.581398 0.242756 -0.214735 0.106913 -0.097869
 35   -0.815868 -0.091229 -3.114430 0.066464 3.132818 -1.010216
 36   14.294526 -0.410349 -0.467541 0.000021 -0.000012 -2.607695
 37   15.834409 0.579420 -0.284600 -0.006092 -0.035255 0.214508
 38   1.139685 -3.453749 -2.823813 0.000000 0.000000 0.000001
 39   -4.457742 -1.054854 -0.746180 0.000000 0.000000 0.000000
 40   1.118101 -3.449769 3.237290 0.000000 0.000001 0.000000
 41   -4.433840 -1.059130 0.959566 -0.000001 0.000000 0.000000
 42   -0.657468 1.697302 -2.688614 0.000000 0.000002 0.000000
 43   -0.664068 1.698578 2.869377 0.000000 0.000002 0.000000
time 23
  0   -0.967547 0.175787 -20.574476 0.000000 0.000000 -1.572114
  1   -1.093036 0.000002 -0.326057 -1.570756 -1.570425 -0.000219
  2   2.262337 0.113614 0.064702 -0.000052 0.000049 -0.051551
  3   2.380047 0.353302 0.047440 -0.255167 0.058385 0.219135
  4   2.033756 0.190472 -0.000128 -0.000010 0.000036 0.243917
  5   2.451511 0.204909 -0.003447 0.000000 -0.000005 0.278153
  6   7.247600 -0.397300 -0.109469 0.000001 0.000033 -0.209377
  7   -2.022252 -0.104661 3.136172 0.806843 -1.229833 -3.710181
  8   1.168026 -0.537438 -0.063437 -0.223146 0.888617 -0.602555
  9   6.790376 -0.619176 0.015206 -0.000158 -0.000285 -1.994456
 10   8.637599 0.544015 -0.090417 -1.174701 -0.597956 -0.222218
 11   6.790465 -0.619039 0.017802 0.004680 -0.011935 -1.411449
 12   -2.022474 -0.104699 -2.873818 -1.079886 1.082125 -3.959061
 13   1.167898 -0.537463 0.063297 0.113880 -0.691211 -0.237024
 14   7.002743 -0.617765 -0.183752 0.000286 0.000364 -1.961484
 15   8.209042 0.615527 -0.255885 1.667015 0.764779 -0.200445
 16   7.002735 -0.617911 -0.183641 0.012978 0.011033 -1.391676
 17   1.574674 0.609930 -0.000899 0.124992 -0.230365 0.526095
 18   -0.602177 0.511412 -0.000006 0.000000 0.000000 0.000000
 19   3.673773 0.177020 1.119313 -0.000002 -0.000014 -0.174510
 20   3.673767 0.176993 -1.117566 0.000007 -0.000003 -0.174546
 21   3.942357 1.334540 1.627658 0.000002 -0.000011 -0.000026
 22   -0.246060 -0.011889 0.516521 -0.000011 0.000031 0.000025
 23   3.942374 1.334565 -1.631083 0.000019 0.000002 -0.000024
 24   -0.246150 -0.011872 -0.516511 -0.000005 -0.000006 0.000048
 25   4.941364 1.997338 1.629330 0.000018 -0.000001 -0.000024
 26   4.941382 1.997366 -1.629410 -0.000001 0.000005 -0.000024
 27   2.914462 1.619264 1.514501 -0.000019 -0.000022 -0.000050
 28   2.916892 1.618870 -1.501142 -0.000002 -0.000009 -0.000024
 29   8.824059 0.150544 0.091743 0.000006 -0.000231 -0.174534
 30   2.111085 -0.561179 1.784320 -0.000008 -0.000682 0.000024
 31   2.121290 -0.561289 -1.853599 0.000000 0.000000 -0.000002
 32   -0.814395 -0.093824 3.127092 3.071965 -0.114691 1.239365
 33   14.298673 -0.408176 0.471578 0.000248 0.000063 -1.896136
 34   15.835795 0.581398 0.242756 -0.214735 0.106913 -0.097869
 35   -0.815868 -0.091229 -3.114430 0.066464 3.132818 -1.010216
 36   14.294526 -0.410349 -0.467541 0.000021 -0.000012 -2.607695
 37   15.834409 0.579420 -0.284600 -0.006092 -0.035255 0.214508
 38   1.139685 -3.453749 -2.823813 0.000000 0.000000 0.000001
 39   -4.457742 -1.054854 -0.746180 0.000000 0.000000 0.000000
 40   1.118101 -3.449769 3.237290 0.000000 0.000001 0.000000
 41   -4.433840 -1.059130 0.959566 -0.000001 0.000000 0.000000
 42   -0.657468 1.697302 -2.688614 0.000000 0.000002 0.000000
 43   -0.664068 1.698578 2.869377 0.000000 0.000002 0.000000
time 24
  0   -0.967547 0.175787 -20.574476 0.000000 0.000000 -1.572114
  1   -1.093036 0.000002 -0.326057 -1.570756 -1.570425 -0.000219
  2   2.262337 0.113614 0.064702 -0.000052 0.000049 -0.051551
  3   2.380047 0.353302 0.047440 -0.255167 0.058385 0.219135
  4   2.033756 0.190472 -0.000128 -0.000010 0.000036 0.243917
  5   2.451511 0.204909 -0.003447 0.000000 -0.000005 0.274364
  6   7.247600 -0.397300 -0.109469 0.000001 0.000033 -0.209377
  7   -2.022252 -0.104661 3.136172 0.819496 -1.234042 -3.723423
  8   1.168026 -0.537438 -0.063437 -0.224791 0.896416 -0.603061
  9   6.790376 -0.619176 0.015206 -0.000158 -0.000285 -1.994456
 10   8.637599 0.544015 -0.090417 -1.174701 -0.597956 -0.222218
 11   6.790465 -0.619039 0.017802 0.004680 -0.011935 -1.411449
 12   -2.022474 -0.104699 -2.873818 -1.091383 1.085260 -3.971891
 13   1.167898 -0.537463 0.063297 0.112404 -0.700212 -0.235208
 14   7.002743 -0.617765 -0.183752 0.000286 0.000364 -1.961484
 15   8.209042 0.615527 -0.255885 1.667015 0.764779 -0.200324
 16   7.002735 -0.617911 -0.183641 0.012978 0.011033 -1.391676
 17   1.574674 0.609930 -0.000899 0.124992 -0.230365 0.529865
 18   -0.602177 0.511412 -0.000006 0.000000 0.000000 0.000000
 19   3.673773 0.177020 1.119313 -0.000002 -0.000014 -0.174510
 20   3.673767 0.176993 -1.117566 0.000007 -0.000003 -0.174546
 21   3.942357 1.334540 1.627658 0.000002 -0.000011 -0.000026
 22   -0.246060 -0.011889 0.516521 -0.000011 0.000031 0.000025
 23   3.942374 1.334565 -1.631083 0.000019 0.000002 -0.000024
 24   -0.246150 -0.011872 -0.516511 -0.000005 -0.000006 0.000048
 25   4.941364 1.997338 1.629330 0.000018 -0.000001 -0.000024
 26   4.941382 1.997366 -1.629410 -0.000001 0.000005 -0.000024
 27   2.914462 1.619264 1.514501 -0.000019 -0.000022 -0.000050
 28   2.916892 1.618870 -1.501142 -0.000002 -0.000009 -0.000024
 29   8.824059 0.150544 0.091743 0.000006 -0.000231 -0.174534
 30   2.111085 -0.561179 1.784320 -0.000008 -0.000682 0.000024
 31   2.121290 -0.561289 -1.853599 0.000000 0.000000 -0.000002
 32   -0.814395 -0.093824 3.127092 3.071965 -0.114691 1.239365
 33   14.298673 -0.408176 0.471578 0.000248 0.000063 -1.896136
 34   15.835795 0.581398 0.242756 -0.214735 0.106913 -0.097869
 35   -0.815868 -0.091229 -3.114430 0.066464 3.132818 -1.010216
 36   14.294526 -0.410349 -0.467541 0.000021 -0.000012 -2.607695
 37   15.834409 0.579420 -0.284600 -0.006092 -0.035255 0.214508
 38   1.139685 -3.453749 -2.823813 0.000000 0.000000 0.000001
 39   -4.457742 -1.054854 -0.746180 0.000000 0.000000 0.000000
 40   1.118101 -3.449769 3.237290 0.000000 0.000001 0.000000
 41   -4.433840 -1.059130 0.959566 -0.000001 0.000000 0.000000
 42   -0.657468 1.697302 -2.688614 0.000000 0.000002 0.000000
 43   -0.664068 1.698578 2.869377 0.000000 0.000002 0.000000
time 25
  0   -0.967547 0.175787 -20.574476 0.000000 0.000000 -1.572114
  1   -1.093036 0.000002 -0.326057 -1.570756 -1.570425 -0.000219
  2   2.262337 0.113614 0.064702 -0.000052 0.000049 -0.051551
  3   2.380047 0.353302 0.047440 -0.255167 0.058385 0.219135
  4   2.033756 0.190472 -0.000128 -0.000010 0.000036 0.243917
  5   2.451511 0.204909 -0.003447 0.000000 -0.000005 0.270451
  6   7.247600 -0.397300 -0.109469 0.000001 0.000033 -0.209377
  7   -2.022252 -0.104661 3.136172 0.832341 -1.238222 -3.737041
  8   1.168026 -0.537438 -0.063437 -0.226373 0.904617 -0.603504
  9   6.790376 -0.619176 0.015206 -0.000158 -0.000285 -1.994456
 10   8.637599 0.544015 -0.090417 -1.174701 -0.597956 -0.222218
 11   6.790465 -0.619039 0.017802 0.004680 -0.011935 -1.411449
 12   -2.022474 -0.104699 -2.873818 -1.103359 1.088278 -3.985390
 13   1.167898 -0.537463 0.063297 0.110577 -0.709366 -0.233271
 14   7.002743 -0.617765 -0.183752 0.000286 0.000364 -1.961484
 15   8.209042 0.615527 -0.255885 1.667015 0.764779 -0.200445
 16   7.002735 -0.617911 -0.183641 0.012978 0.011033 -1.391676
 17   1.574674 0.609930 -0.000899 0.124992 -0.230365 0.533820
 18   -0.602177 0.511412 -0.000006 0.000000 0.000000 0.000000
 19   3.673773 0.177020 1.119313 -0.000002 -0.000014 -0.174510
 20   3.673767 0.176993 -1.117566 0.000007 -0.000003 -0.174546
 21   3.942357 1.334540 1.627658 0.000002 -0.000011 -0.000026
 22   -0.246060 -0.011889 0.516521 -0.000011 0.000031 0.000025
 23   3.942374 1.334565 -1.631083 0.000019 0.000002 -0.000024
 24   -0.246150 -0.011872 -0.516511 -0.000005 -0.000006 0.000048
 25   4.941364 1.997338 1.629330 0.000018 -0.000001 -0.000024
 26   4.941382 1.997366 -1.629410 -0.000001 0.000005 -0.000024
 27   2.914462 1.619264 1.514501 -0.000019 -0.000022 -0.000050
 28   2.916892 1.618870 -1.501142 -0.000002 -0.000009 -0.000024
 29   8.824059 0.150544 0.091743 0.000006 -0.000231 -0.174534
 30   2.111085 -0.561179 1.784320 -0.000008 -0.000682 0.000024
 31   2.121290 -0.561289 -1.853599 0.000000 0.000000 -0.000002
 32   -0.814395 -0.093824 3.127092 3.071965 -0.114691 1.239365
 33   14.298673 -0.408176 0.471578 0.000248 0.000063 -1.896136
 34   15.835795 0.581398 0.242756 -0.214735 0.106913 -0.097869
 35   -0.815868 -0.091229 -3.114430 0.066464 3.132818 -1.010216
 36   14.294526 -0.410349 -0.467541 0.000021 -0.000012 -2.607695
 37   15.834409 0.579420 -0.284600 -0.006092 -0.035255 0.214508
 38   1.139685 -3.453749 -2.823813 0.000000 0.000000 0.000001
 39   -4.457742 -1.054854 -0.746180 0.000000 0.000000 0.000000
 40   1.118101 -3.449769 3.237290 0.000000 0.000001 0.000000
 41   -4.433840 -1.059130 0.959566 -0.000001 0.000000 0.000000
 42   -0.657468 1.697302 -2.688614 0.000000 0.000002 0.000000
 43   -0.664068 1.698578 2.869377 0.000000 0.000002 0.000000
time 26
  0   -0.967547 0.175787 -20.574476 0.000000 0.000000 -1.572114
  1   -1.093036 0.000002 -0.326057 -1.570756 -1.570425 -0.000219
  2   2.262337 0.113614 0.064702 -0.000052 0.000049 -0.051551
  3   2.380047 0.353302 0.047440 -0.255167 0.058385 0.219135
  4   2.033756 0.190472 -0.000128 -0.000010 0.000036 0.243917
  5   2.451511 0.204909 -0.003447 0.000000 -0.000005 0.266637
  6   7.247600 -0.397300 -0.109469 0.000001 0.000033 -0.209377
  7   -2.022252 -0.104661 3.136172 0.845665 -1.242258 -3.751316
  8   1.168026 -0.537438 -0.063437 -0.228208 0.912315 -0.603947
  9   6.790376 -0.619176 0.015206 -0.000158 -0.000285 -1.994456
 10   8.637599 0.544015 -0.090417 -1.174701 -0.597956 -0.222218
 11   6.790465 -0.619039 0.017802 0.004680 -0.011935 -1.411449
 12   -2.022474 -0.104699 -2.873818 -1.115239 1.091326 -3.998794
 13   1.167898 -0.537463 0.063297 0.108889 -0.718469 -0.231213
 14   7.002743 -0.617765 -0.183752 0.000286 0.000364 -1.961484
 15   8.209042 0.615527 -0.255885 1.667015 0.764779 -0.200445
 16   7.002735 -0.617911 -0.183641 0.012978 0.011033 -1.391676
 17   1.574674 0.609930 -0.000899 0.124992 -0.230365 0.537701
 18   -0.602177 0.511412 -0.000006 0.000000 0.000000 0.000000
 19   3.673773 0.177020 1.119313 -0.000002 -0.000014 -0.174510
 20   3.673767 0.176993 -1.117566 0.000007 -0.000003 -0.174546
 21   3.942357 1.334540 1.627658 0.000002 -0.000011 -0.000026
 22   -0.246060 -0.011889 0.516521 -0.000011 0.000031 0.000025
 23   3.942374 1.334565 -1.631083 0.000019 0.000002 -0.000024
 24   -0.246150 -0.011872 -0.516511 -0.000005 -0.000006 0.000048
 25   4.941364 1.997338 1.629330 0.000018 -0.000001 -0.000024
 26   4.941382 1.997366 -1.629410 -0.000001 0.000005 -0.000024
 27   2.914462 1.619264 1.514501 -0.000019 -0.000022 -0.000050
 28   2.916892 1.618870 -1.501142 -0.000002 -0.000009 -0.000024
 29   8.824059 0.150544 0.091743 0.000006 -0.000231 -0.174534
 30   2.111085 -0.561179 1.784320 -0.000008 -0.000682 0.000024
 31   2.121290 -0.561289 -1.853599 0.000000 0.000000 -0.000002
 32   -0.814395 -0.093824 3.127092 3.071965 -0.114691 1.239365
 33   14.298673 -0.408176 0.471578 0.000248 0.000063 -1.896136
 34   15.835795 0.581398 0.242756 -0.214735 0.106913 -0.097869
 35   -0.815868 -0.091229 -3.114430 0.066464 3.132818 -1.010216
 36   14.294526 -0.410349 -0.467541 0.000021 -0.000012 -2.607695
 37   15.834409 0.579420 -0.284600 -0.006092 -0.035255 0.214508
 38   1.139685 -3.453749 -2.823813 0.000000 0.000000 0.000001
 39   -4.457742 -1.054854 -0.746180 0.000000 0.000000 0.000000
 40   1.118101 -3.449769 3.237290 0.000000 0.000001 0.000000
 41   -4.433840 -1.059130 0.959566 -0.000001 0.000000 0.000000
 42   -0.657468 1.697302 -2.688614 0.000000 0.000002 0.000000
 43   -0.664068 1.698578 2.869377 0.000000 0.000002 0.000000
time 27
  0   -0.967547 0.175787 -20.574476 0.000000 0.000000 -1.572114
  1   -1.093036 0.000002 -0.326057 -1.570756 -1.570425 -0.000219
  2   2.262337 0.113614 0.064702 -0.000052 0.000049 -0.051551
  3   2.380047 0.353302 0.047440 -0.255167 0.058385 0.219135
  4   2.033756 0.190472 -0.000128 -0.000010 0.000036 0.243917
  5   2.451511 0.204909 -0.003447 0.000000 -0.000005 0.262848
  6   7.247600 -0.397300 -0.109469 0.000001 0.000033 -0.209377
  7   -2.022252 -0.104661 3.136172 0.859565 -1.246179 -3.765497
  8   1.168026 -0.537438 -0.063437 -0.229917 0.919963 -0.604516
  9   6.790376 -0.619176 0.015206 -0.000158 -0.000285 -1.994456
 10   8.637599 0.544015 -0.090417 -1.174701 -0.597956 -0.222218
 11   6.790465 -0.619039 0.017802 0.004680 -0.011935 -1.411449
 12   -2.022474 -0.104699 -2.873818 -1.127215 1.094402 -4.012102
 13   1.167898 -0.537463 0.063297 0.106991 -0.727317 -0.229397
 14   7.002743 -0.617765 -0.183752 0.000286 0.000364 -1.961484
 15   8.209042 0.615527 -0.255885 1.667015 0.764779 -0.200445
 16   7.002735 -0.617911 -0.183641 0.012978 0.011033 -1.391676
 17   1.574674 0.609930 -0.000899 0.124992 -0.230365 0.541397
 18   -0.602177 0.511412 -0.000006 0.000000 0.000000 0.000000
 19   3.673773 0.177020 1.119313 -0.000002 -0.000014 -0.174510
 20   3.673767 0.176993 -1.117566 0.000007 -0.000003 -0.174546
 21   3.942357 1.334540 1.627658 0.000002 -0.000011 -0.000026
 22   -0.246060 -0.011889 0.516521 -0.000011 0.000031 0.000025
 23   3.942374 1.334565 -1.631083 0.000019 0.000002 -0.000024
 24   -0.246150 -0.011872 -0.516511 -0.000005 -0.000006 0.000048
 25   4.941364 1.997338 1.629330 0.000018 -0.000001 -0.000024
 26   4.941382 1.997366 -1.629410 -0.000001 0.000005 -0.000024
 27   2.914462 1.619264 1.514501 -0.000019 -0.000022 -0.000050
 28   2.916892 1.618870 -1.501142 -0.000002 -0.000009 -0.000024
 29   8.824059 0.150544 0.091743 0.000006 -0.000231 -0.174534
 30   2.111085 -0.561179 1.784320 -0.000008 -0.000682 0.000024
 31   2.121290 -0.561289 -1.853599 0.000000 0.000000 -0.000002
 32   -0.814395 -0.093824 3.127092 3.071965 -0.114691 1.239365
 33   14.298673 -0.408176 0.471578 0.000248 0.000063 -1.896136
 34   15.835795 0.581398 0.242756 -0.214735 0.106913 -0.097869
 35   -0.815868 -0.091229 -3.114430 0.066464 3.132818 -1.010216
 36   14.294526 -0.410349 -0.467541 0.000021 -0.000012 -2.607695
 37   15.834409 0.579420 -0.284600 -0.006092 -0.035255 0.214508
 38   1.139685 -3.453749 -2.823813 0.000000 0.000000 0.000001
 39   -4.457742 -1.054854 -0.746180 0.000000 0.000000 0.000000
 40   1.118101 -3.449769 3.237290 0.000000 0.000001 0.000000
 41   -4.433840 -1.059130 0.959566 -0.000001 0.000000 0.000000
 42   -0.657468 1.697302 -2.688614 0.000000 0.000002 0.000000
 43   -0.664068 1.698578 2.869377 0.000000 0.000002 0.000000
time 28
  0   -0.967547 0.175787 -20.574476 0.000000 0.000000 -1.572114
  1   -1.093036 0.000002 -0.326057 -1.570756 -1.570425 -0.000219
  2   2.262337 0.113614 0.064702 -0.000052 0.000049 -0.051551
  3   2.380047 0.353302 0.047440 -0.255167 0.058385 0.219135
  4   2.033756 0.190472 -0.000128 -0.000010 0.000036 0.243917
  5   2.451511 0.204909 -0.003447 0.000000 -0.000005 0.259158
  6   7.247600 -0.397300 -0.109469 0.000001 0.000033 -0.209377
  7   -2.022252 -0.104661 3.136172 0.872505 -1.250041 -3.779115
  8   1.168026 -0.537438 -0.063437 -0.231372 0.927661 -0.605149
  9   6.790376 -0.619176 0.015206 -0.000158 -0.000285 -1.994456
 10   8.637599 0.544015 -0.090417 -1.174701 -0.597956 -0.222218
 11   6.790465 -0.619039 0.017802 0.004680 -0.011935 -1.411449
 12   -2.022474 -0.104699 -2.873818 -1.138712 1.097217 -4.024836
 13   1.167898 -0.537463 0.063297 0.105164 -0.735861 -0.227278
 14   7.002743 -0.617765 -0.183752 0.000286 0.000364 -1.961484
 15   8.209042 0.615527 -0.255885 1.667015 0.764779 -0.200445
 16   7.002735 -0.617911 -0.183641 0.012978 0.011033 -1.391676
 17   1.574674 0.609930 -0.000899 0.124992 -0.230365 0.545019
 18   -0.602177 0.511412 -0.000006 0.000000 0.000000 0.000000
 19   3.673773 0.177020 1.119313 -0.000002 -0.000014 -0.174510
 20   3.673767 0.176993 -1.117566 0.000007 -0.000003 -0.174546
 21   3.942357 1.334540 1.627658 0.000002 -0.000011 -0.000026
 22   -0.246060 -0.011889 0.516521 -0.000011 0.000031 0.000025
 23   3.942374 1.334565 -1.631083 0.000019 0.000002 -0.000024
 24   -0.246150 -0.011872 -0.516511 -0.000005 -0.000006 0.000048
 25   4.941364 1.997338 1.629330 0.000018 -0.000001 -0.000024
 26   4.941382 1.997366 -1.629410 -0.000001 0.000005 -0.000024
 27   2.914462 1.619264 1.514501 -0.000019 -0.000022 -0.000050
 28   2.916892 1.618870 -1.501142 -0.000002 -0.000009 -0.000024
 29   8.824059 0.150544 0.091743 0.000006 -0.000231 -0.174534
 30   2.111085 -0.561179 1.784320 -0.000008 -0.000682 0.000024
 31   2.121290 -0.561289 -1.853599 0.000000 0.000000 -0.000002
 32   -0.814395 -0.093824 3.127092 3.071965 -0.114691 1.239365
 33   14.298673 -0.408176 0.471578 0.000248 0.000063 -1.896136
 34   15.835795 0.581398 0.242756 -0.214735 0.106913 -0.097869
 35   -0.815868 -0.091229 -3.114430 0.066464 3.132818 -1.010216
 36   14.294526 -0.410349 -0.467541 0.000021 -0.000012 -2.607695
 37   15.834409 0.579420 -0.284600 -0.006092 -0.035255 0.214508
 38   1.139685 -3.453749 -2.823813 0.000000 0.000000 0.000001
 39   -4.457742 -1.054854 -0.746180 0.000000 0.000000 0.000000
 40   1.118101 -3.449769 3.237290 0.000000 0.000001 0.000000
 41   -4.433840 -1.059130 0.959566 -0.000001 0.000000 0.000000
 42   -0.657468 1.697302 -2.688614 0.000000 0.000002 0.000000
 43   -0.664068 1.698578 2.869377 0.000000 0.000002 0.000000
time 29
  0   -0.967547 0.175787 -20.574476 0.000000 0.000000 -1.572114
  1   -1.093036 0.000002 -0.326057 -1.570756 -1.570425 -0.000219
  2   2.262337 0.113614 0.064702 -0.000052 0.000049 -0.051551
  3   2.380047 0.353302 0.047440 -0.255167 0.058385 0.219135
  4   2.033756 0.190472 -0.000128 -0.000010 0.000036 0.243917
  5   2.451511 0.204909 -0.003447 0.000000 -0.000005 0.255839
  6   7.247600 -0.397300 -0.109469 0.000001 0.000033 -0.209377
  7   -2.022252 -0.104661 3.136172 0.885159 -1.253529 -3.792170
  8   1.168026 -0.537438 -0.063437 -0.232891 0.934554 -0.605465
  9   6.790376 -0.619176 0.015206 -0.000158 -0.000285 -1.994456
 10   8.637599 0.544015 -0.090417 -1.174701 -0.597956 -0.222218
 11   6.790465 -0.619039 0.017802 0.004680 -0.011935 -1.411449
 12   -2.022474 -0.104699 -2.873818 -1.149346 1.099830 -4.037282
 13   1.167898 -0.537463 0.063297 0.103547 -0.743896 -0.225583
 14   7.002743 -0.617765 -0.183752 0.000286 0.000364 -1.961484
 15   8.209042 0.615527 -0.255885 1.667015 0.764779 -0.200445
 16   7.002735 -0.617911 -0.183641 0.012978 0.011033 -1.391676
 17   1.574674 0.609930 -0.000899 0.124992 -0.230365 0.548457
 18   -0.602177 0.511412 -0.000006 0.000000 0.000000 0.000000
 19   3.673773 0.177020 1.119313 -0.000002 -0.000014 -0.174510
 20   3.673767 0.176993 -1.117566 0.000007 -0.000003 -0.174546
 21   3.942357 1.334540 1.627658 0.000002 -0.000011 -0.000026
 22   -0.246060 -0.011889 0.516521 -0.000011 0.000031 0.000025
 23   3.942374 1.334565 -1.631083 0.000019 0.000002 -0.000024
 24   -0.246150 -0.011872 -0.516511 -0.000005 -0.000006 0.000048
 25   4.941364 1.997338 1.629330 0.000018 -0.000001 -0.000024
 26   4.941382 1.997366 -1.629410 -0.000001 0.000005 -0.000024
 27   2.914462 1.619264 1.514501 -0.000019 -0.000022 -0.000050
 28   2.916892 1.618870 -1.501142 -0.000002 -0.000009 -0.000024
 29   8.824059 0.150544 0.091743 0.000006 -0.000231 -0.174534
 30   2.111085 -0.561179 1.784320 -0.000008 -0.000682 0.000024
 31   2.121290 -0.561289 -1.853599 0.000000 0.000000 -0.000002
 32   -0.814395 -0.093824 3.127092 3.071965 -0.114691 1.239365
 33   14.298673 -0.408176 0.471578 0.000248 0.000063 -1.896136
 34   15.835795 0.581398 0.242756 -0.214735 0.106913 -0.097869
 35   -0.815868 -0.091229 -3.114430 0.066464 3.132818 -1.010216
 36   14.294526 -0.410349 -0.467541 0.000021 -0.000012 -2.607695
 37   15.834409 0.579420 -0.284600 -0.006092 -0.035255 0.214508
 38   1.139685 -3.453749 -2.823813 0.000000 0.000000 0.000001
 39   -4.457742 -1.054854 -0.746180 0.000000 0.000000 0.000000
 40   1.118101 -3.449769 3.237290 0.000000 0.000001 0.000000
 41   -4.433840 -1.059130 0.959566 -0.000001 0.000000 0.000000
 42   -0.657468 1.697302 -2.688614 0.000000 0.000002 0.000000
 43   -0.664068 1.698578 2.869377 0.000000 0.000002 0.000000
time 30
  0   -0.967547 0.175787 -20.574476 0.000000 0.000000 -1.572114
  1   -1.093036 0.000002 -0.326057 -1.570756 -1.570425 -0.000219
  2   2.262337 0.113614 0.064702 -0.000052 0.000049 -0.051551
  3   2.380047 0.353302 0.047440 -0.255167 0.058385 0.219135
  4   2.033756 0.190472 -0.000128 -0.000010 0.000036 0.243917
  5   2.451511 0.204909 -0.003447 0.000000 -0.000005 0.252719
  6   7.247600 -0.397300 -0.109469 0.000001 0.000033 -0.209377
  7   -2.022252 -0.104661 3.136172 0.897141 -1.256499 -3.804848
  8   1.168026 -0.537438 -0.063437 -0.234283 0.940944 -0.606224
  9   6.790376 -0.619176 0.015206 -0.000158 -0.000285 -1.994456
 10   8.637599 0.544015 -0.090417 -1.174701 -0.597956 -0.222218
 11   6.790465 -0.619039 0.017802 0.004680 -0.011935 -1.411449
 12   -2.022474 -0.104699 -2.873818 -1.159406 1.101890 -4.048483
 13   1.167898 -0.537463 0.063297 0.101860 -0.751117 -0.224009
 14   7.002743 -0.617765 -0.183752 0.000286 0.000364 -1.961484
 15   8.209042 0.615527 -0.255885 1.667015 0.764779 -0.200445
 16   7.002735 -0.617911 -0.183641 0.012978 0.011033 -1.391676
 17   1.574674 0.609930 -0.000899 0.124992 -0.230365 0.551525
 18   -0.602177 0.511412 -0.000006 0.000000 0.000000 0.000000
 19   3.673773 0.177020 1.119313 -0.000002 -0.000014 -0.174510
 20   3.673767 0.176993 -1.117566 0.000007 -0.000003 -0.174546
 21   3.942357 1.334540 1.627658 0.000002 -0.000011 -0.000026
 22   -0.246060 -0.011889 0.516521 -0.000011 0.000031 0.000025
 23   3.942374 1.334565 -1.631083 0.000019 0.000002 -0.000024
 24   -0.246150 -0.011872 -0.516511 -0.000005 -0.000006 0.000048
 25   4.941364 1.997338 1.629330 0.000018 -0.000001 -0.000024
 26   4.941382 1.997366 -1.629410 -0.000001 0.000005 -0.000024
 27   2.914462 1.619264 1.514501 -0.000019 -0.000022 -0.000050
 28   2.916892 1.618870 -1.501142 -0.000002 -0.000009 -0.000024
 29   8.824059 0.150544 0.091743 0.000006 -0.000231 -0.174534
 30   2.111085 -0.561179 1.784320 -0.000008 -0.000682 0.000024
 31   2.121290 -0.561289 -1.853599 0.000000 0.000000 -0.000002
 32   -0.814395 -0.093824 3.127092 3.071965 -0.114691 1.239365
 33   14.298673 -0.408176 0.471578 0.000248 0.000063 -1.896136
 34   15.835795 0.581398 0.242756 -0.214735 0.106913 -0.097869
 35   -0.815868 -0.091229 -3.114430 0.066464 3.132818 -1.010216
 36   14.294526 -0.410349 -0.467541 0.000021 -0.000012 -2.607695
 37   15.834409 0.579420 -0.284600 -0.006092 -0.035255 0.214508
 38   1.139685 -3.453749 -2.823813 0.000000 0.000000 0.000001
 39   -4.457742 -1.054854 -0.746180 0.000000 0.000000 0.000000
 40   1.118101 -3.449769 3.237290 0.000000 0.000001 0.000000
 41   -4.433840 -1.059130 0.959566 -0.000001 0.000000 0.000000
 42   -0.657468 1.697302 -2.688614 0.000000 0.000002 0.000000
 43   -0.664068 1.698578 2.869377 0.000000 0.000002 0.000000
end
