version 1
nodes
  0 "Bip01" -1
  1 "Bip01 Pelvis" 0
  2 "Bip01 Spine" 1
  3 "Bip01 Spine1" 2
  4 "Bip01 Spine2" 3
  5 "Bip01 Spine3" 4
  6 "Bip01 Neck" 5
  7 "Bip01 L Arm" 6
  8 "Bip01 L Arm1" 7
  9 "Bip01 L Arm2" 8
 10 "Bip01 L Hand" 9
 11 "Bip06 L elbow2-smooth" 8
 12 "Bip01 R Arm" 6
 13 "Bip01 R Arm1" 12
 14 "Bip01 R Arm2" 13
 15 "Bip01 R Hand" 14
 16 "Bip06 R elbow2-smooth" 13
 17 "Bip01 Head" 6
 18 "Bip06 Head_helper" 17
 19 "Bip06 Head_eyes_l" 18
 20 "Bip06 Head_eyes_r" 18
 21 "Bip06 Head_blink_l" 18
 22 "Bip06 Head_blink_smooth_l1" 21
 23 "Bip06 Head_blink_r" 18
 24 "Bip06 Head_blink_smooth_r1" 23
 25 "Bip06 Head_L_eyebrow" 18
 26 "Bip06 Head_R_eyebrow" 18
 27 "Bip06 Head_blink_l_lid" 18
 28 "Bip06 Head_blink_r_lid" 18
 29 "Bip06 bunny" 18
 30 "Bip06 bunnyL" 29
 31 "Bip06 bunnyR" 29
 32 "Bip01 L Leg" 1
 33 "Bip01 L Leg1" 32
 34 "Bip01 L Foot" 33
 35 "Bip01 R Leg" 1
 36 "Bip01 R Leg1" 35
 37 "Bip01 R Foot" 36
 38 "Bip03 HairR1" 17
 39 "Bip03 HairR2" 38
 40 "Bip03 HairL1" 17
 41 "Bip03 HairL2" 40
 42 "Bip03 swingR" 17
 43 "Bip03 swingL" 17
end
skeleton
time 0
  0   -0.967547 0.175787 -20.574476 0.000000 0.000000 -1.572114
  1   -1.093036 0.000002 -0.326057 -1.570756 -1.570425 -0.000171
  2   2.262337 0.113614 0.064702 -0.000052 0.000049 0.087866
  3   2.380047 0.353302 0.047440 0.000000 -0.000040 0.148287
  4   2.033756 0.190472 -0.000128 -0.000010 0.000024 -0.139576
  5   2.451511 0.204909 -0.003447 0.000000 -0.000005 -0.017472
  6   7.247600 -0.397300 -0.109469 0.000001 0.000009 0.418441
  7   -2.022252 -0.104661 3.136172 -0.298783 -1.361862 -2.901749
  8   1.168026 -0.537438 -0.063437 -1.133372 1.004189 -1.140522
  9   6.790376 -0.619176 0.015206 -0.125542 0.165498 -2.158522
 10   8.637599 0.544015 -0.090417 -1.558488 0.073850 -0.433463
 11   6.790465 -0.619039 0.017802 -0.046238 0.139940 -1.519185
 12   -2.022474 -0.104699 -2.873818 0.298873 1.361683 -2.901984
 13   1.167898 -0.537463 0.063297 1.672490 -0.864828 -1.446993
 14   7.002743 -0.617765 -0.183752 -0.131911 -0.891099 -1.759016
 15   8.209042 0.615527 -0.255885 3.094432 -0.198972 -0.458313
 16   7.002735 -0.617911 -0.183641 -0.279223 -0.604443 -1.160198
 17   1.574674 0.609930 -0.000899 0.226627 0.005972 -0.025807
 18   -0.602177 0.511412 -0.000006 0.000000 0.000000 0.000000
 19   3.673773 0.177020 1.119313 -0.000002 -0.000014 -0.174510
 20   3.673767 0.176993 -1.117566 0.000007 -0.000003 -0.174546
 21   3.942357 1.334540 1.627658 0.000002 -0.000011 -0.000026
 22   -0.246060 -0.011889 0.516521 -0.000011 0.000031 0.000025
 23   3.942374 1.334565 -1.631083 0.000019 0.000002 -0.000024
 24   -0.246150 -0.011872 -0.516511 -0.000005 -0.000006 0.000048
 25   4.941364 1.997338 1.629330 0.000018 -0.000001 -0.000024
 26   4.941382 1.997366 -1.629410 -0.000001 0.000005 -0.000024
 27   2.914462 1.619264 1.514501 -0.000019 -0.000022 -0.000050
 28   2.916892 1.618870 -1.501142 -0.000002 -0.000009 -0.000024
 29   8.824059 0.150544 0.091743 0.000006 -0.000231 -0.174534
 30   2.111085 -0.561179 1.784320 -0.000008 -0.000682 0.000024
 31   2.121290 -0.561289 -1.853599 0.000000 0.000000 -0.000002
 32   -0.814395 -0.093824 3.127092 3.071685 -0.114787 1.239365
 33   14.298673 -0.408176 0.471578 0.000020 -0.000002 -1.896136
 34   15.835795 0.581398 0.242756 -0.214735 0.106913 -0.097869
 35   -0.815868 -0.091229 -3.114430 0.066464 3.132818 -1.010216
 36   14.294526 -0.410349 -0.467541 0.000009 -0.000036 -2.607695
 37   15.834409 0.579420 -0.284600 -0.006131 -0.035383 0.214508
 38   1.139685 -3.453749 -2.823813 0.000000 0.000000 0.000001
 39   -4.457742 -1.054854 -0.746180 0.000000 0.000000 0.000000
 40   1.118101 -3.449769 3.237290 0.000000 0.000001 0.000000
 41   -4.433840 -1.059130 0.959566 -0.000001 0.000000 0.000000
 42   -0.657468 1.697302 -2.688614 0.000000 0.000002 0.000000
 43   -0.664068 1.698578 2.869377 0.000000 0.000002 0.000000
time 1
  0   -0.967547 0.175787 -20.574476 0.000000 0.000000 -1.572114
  1   -1.093036 0.000002 -0.326057 -1.570756 -1.570425 -0.000171
  2   2.262337 0.113614 0.064702 -0.017299 0.001523 0.087812
  3   2.380047 0.353302 0.047440 -0.012241 0.001782 0.148287
  4   2.033756 0.190472 -0.000128 -0.017143 -0.002385 -0.139576
  5   2.451511 0.204909 -0.003447 0.000000 -0.000005 -0.017472
  6   7.247600 -0.397300 -0.109469 0.000001 0.000009 0.418441
  7   -2.022252 -0.104661 3.136172 -0.298783 -1.361862 -2.901749
  8   1.168026 -0.537438 -0.063437 -1.133372 1.004189 -1.098264
  9   6.790376 -0.619176 0.015206 -0.125542 0.165498 -2.158522
 10   8.637599 0.544015 -0.090417 -1.558488 0.073850 -0.433463
 11   6.790465 -0.619039 0.017802 -0.046238 0.139940 -1.519185
 12   -2.022474 -0.104699 -2.873818 0.285843 1.365921 -2.915388
 13   1.167898 -0.537463 0.063297 1.614776 -0.905156 -1.392209
 14   7.002743 -0.617765 -0.183752 -0.145461 -0.876562 -1.699035
 15   8.209042 0.615527 -0.255885 2.989525 -0.199955 -0.441836
 16   7.002735 -0.617911 -0.183641 -0.275315 -0.592489 -1.127744
 17   1.574674 0.609930 -0.000899 0.226627 0.005972 -0.025807
 18   -0.602177 0.511412 -0.000006 0.000000 0.000000 0.000000
 19   3.673773 0.177020 1.119313 -0.000002 -0.000014 -0.174510
 20   3.673767 0.176993 -1.117566 0.000007 -0.000003 -0.174546
 21   3.942357 1.334540 1.627658 0.000002 -0.000011 -0.000026
 22   -0.246060 -0.011889 0.516521 -0.000011 0.000031 0.000025
 23   3.942374 1.334565 -1.631083 0.000019 0.000002 -0.000024
 24   -0.246150 -0.011872 -0.516511 -0.000005 -0.000006 0.000048
 25   4.941364 1.997338 1.629330 0.000018 -0.000001 -0.000024
 26   4.941382 1.997366 -1.629410 -0.000001 0.000005 -0.000024
 27   2.914462 1.619264 1.514501 -0.000019 -0.000022 -0.000050
 28   2.916892 1.618870 -1.501142 -0.000002 -0.000009 -0.000024
 29   8.824059 0.150544 0.091743 0.000006 -0.000231 -0.174534
 30   2.111085 -0.561179 1.784320 -0.000008 -0.000682 0.000024
 31   2.121290 -0.561289 -1.853599 0.000000 0.000000 -0.000002
 32   -0.814395 -0.093824 3.127092 3.071685 -0.114787 1.239365
 33   14.298673 -0.408176 0.471578 0.000020 -0.000002 -1.896136
 34   15.835795 0.581398 0.242756 -0.214735 0.106913 -0.097869
 35   -0.815868 -0.091229 -3.114430 0.066464 3.132818 -1.010216
 36   14.294526 -0.410349 -0.467541 0.000009 -0.000036 -2.607695
 37   15.834409 0.579420 -0.284600 -0.006131 -0.035383 0.214508
 38   1.139685 -3.453749 -2.823813 0.000000 0.000000 0.000001
 39   -4.457742 -1.054854 -0.746180 0.000000 0.000000 0.000000
 40   1.118101 -3.449769 3.237290 0.000000 0.000001 0.000000
 41   -4.433840 -1.059130 0.959566 -0.000001 0.000000 0.000000
 42   -0.657468 1.697302 -2.688614 0.000000 0.000002 0.000000
 43   -0.664068 1.698578 2.869377 0.000000 0.000002 0.000000
time 2
  0   -0.967547 0.175787 -20.574476 0.000000 0.000000 -1.572114
  1   -1.093036 0.000002 -0.326057 -1.570756 -1.570425 -0.000171
  2   2.262337 0.113614 0.064702 -0.034660 0.003045 0.087812
  3   2.380047 0.353302 0.047440 -0.024617 0.003567 0.148246
  4   2.033756 0.190472 -0.000128 -0.034479 -0.004818 -0.139576
  5   2.451511 0.204909 -0.003447 0.000000 -0.000005 -0.017472
  6   7.247600 -0.397300 -0.109469 0.000001 0.000009 0.418441
  7   -2.022252 -0.104661 3.136172 -0.298783 -1.361862 -2.901749
  8   1.168026 -0.537438 -0.063437 -1.133372 1.004189 -1.055879
  9   6.790376 -0.619176 0.015206 -0.125542 0.165498 -2.158522
 10   8.637599 0.544015 -0.090417 -1.558488 0.073850 -0.433463
 11   6.790465 -0.619039 0.017802 -0.046238 0.139940 -1.519185
 12   -2.022474 -0.104699 -2.873818 0.272239 1.370478 -2.929749
 13   1.167898 -0.537463 0.063297 1.550385 -0.943348 -1.330645
 14   7.002743 -0.617765 -0.183752 -0.157360 -0.861514 -1.640951
 15   8.209042 0.615527 -0.255885 2.884691 -0.199350 -0.425418
 16   7.002735 -0.617911 -0.183641 -0.271031 -0.580535 -1.095788
 17   1.574674 0.609930 -0.000899 0.226627 0.005972 -0.025807
 18   -0.602177 0.511412 -0.000006 0.000000 0.000000 0.000000
 19   3.673773 0.177020 1.119313 -0.000002 -0.000014 -0.174510
 20   3.673767 0.176993 -1.117566 0.000007 -0.000003 -0.174546
 21   3.942357 1.334540 1.627658 0.000002 -0.000011 -0.000026
 22   -0.246060 -0.011889 0.516521 -0.000011 0.000031 0.000025
 23   3.942374 1.334565 -1.631083 0.000019 0.000002 -0.000024
 24   -0.246150 -0.011872 -0.516511 -0.000005 -0.000006 0.000048
 25   4.941364 1.997338 1.629330 0.000018 -0.000001 -0.000024
 26   4.941382 1.997366 -1.629410 -0.000001 0.000005 -0.000024
 27   2.914462 1.619264 1.514501 -0.000019 -0.000022 -0.000050
 28   2.916892 1.618870 -1.501142 -0.000002 -0.000009 -0.000024
 29   8.824059 0.150544 0.091743 0.000006 -0.000231 -0.174534
 30   2.111085 -0.561179 1.784320 -0.000008 -0.000682 0.000024
 31   2.121290 -0.561289 -1.853599 0.000000 0.000000 -0.000002
 32   -0.814395 -0.093824 3.127092 3.071685 -0.114787 1.239365
 33   14.298673 -0.408176 0.471578 0.000020 -0.000002 -1.896136
 34   15.835795 0.581398 0.242756 -0.214735 0.106913 -0.097869
 35   -0.815868 -0.091229 -3.114430 0.066464 3.132818 -1.010216
 36   14.294526 -0.410349 -0.467541 0.000009 -0.000036 -2.607695
 37   15.834409 0.579420 -0.284600 -0.006131 -0.035383 0.214508
 38   1.139685 -3.453749 -2.823813 0.000000 0.000000 0.000001
 39   -4.457742 -1.054854 -0.746180 0.000000 0.000000 0.000000
 40   1.118101 -3.449769 3.237290 0.000000 0.000001 0.000000
 41   -4.433840 -1.059130 0.959566 -0.000001 0.000000 0.000000
 42   -0.657468 1.697302 -2.688614 0.000000 0.000002 0.000000
 43   -0.664068 1.698578 2.869377 0.000000 0.000002 0.000000
time 3
  0   -0.967547 0.175787 -20.574476 0.000000 0.000000 -1.572114
  1   -1.093036 0.000002 -0.326057 -1.570756 -1.570425 -0.000171
  2   2.262337 0.113614 0.064702 -0.052123 0.004531 0.087794
  3   2.380047 0.353302 0.047440 -0.036887 0.005485 0.148185
  4   2.033756 0.190472 -0.000128 -0.051741 -0.007239 -0.139431
  5   2.451511 0.204909 -0.003447 0.000000 -0.000005 -0.017472
  6   7.247600 -0.397300 -0.109469 0.000001 0.000009 0.418441
  7   -2.022252 -0.104661 3.136172 -0.298783 -1.361862 -2.901749
  8   1.168026 -0.537438 -0.063437 -1.133372 1.004189 -1.013432
  9   6.790376 -0.619176 0.015206 -0.125542 0.165498 -2.158522
 10   8.637599 0.544015 -0.090417 -1.558488 0.073850 -0.433463
 11   6.790465 -0.619039 0.017802 -0.046238 0.139940 -1.519185
 12   -2.022474 -0.104699 -2.873818 0.257772 1.374976 -2.944589
 13   1.167898 -0.537463 0.063297 1.478331 -0.978946 -1.261333
 14   7.002743 -0.617765 -0.183752 -0.167779 -0.846125 -1.583775
 15   8.209042 0.615527 -0.255885 2.779928 -0.197080 -0.409121
 16   7.002735 -0.617911 -0.183641 -0.266324 -0.568637 -1.063942
 17   1.574674 0.609930 -0.000899 0.226627 0.005972 -0.025807
 18   -0.602177 0.511412 -0.000006 0.000000 0.000000 0.000000
 19   3.673773 0.177020 1.119313 -0.000002 -0.000014 -0.174510
 20   3.673767 0.176993 -1.117566 0.000007 -0.000003 -0.174546
 21   3.942357 1.334540 1.627658 0.000002 -0.000011 -0.000026
 22   -0.246060 -0.011889 0.516521 -0.000011 0.000031 0.000025
 23   3.942374 1.334565 -1.631083 0.000019 0.000002 -0.000024
 24   -0.246150 -0.011872 -0.516511 -0.000005 -0.000006 0.000048
 25   4.941364 1.997338 1.629330 0.000018 -0.000001 -0.000024
 26   4.941382 1.997366 -1.629410 -0.000001 0.000005 -0.000024
 27   2.914462 1.619264 1.514501 -0.000019 -0.000022 -0.000050
 28   2.916892 1.618870 -1.501142 -0.000002 -0.000009 -0.000024
 29   8.824059 0.150544 0.091743 0.000006 -0.000231 -0.174534
 30   2.111085 -0.561179 1.784320 -0.000008 -0.000682 0.000024
 31   2.121290 -0.561289 -1.853599 0.000000 0.000000 -0.000002
 32   -0.814395 -0.093824 3.127092 3.071685 -0.114787 1.239365
 33   14.298673 -0.408176 0.471578 0.000020 -0.000002 -1.896136
 34   15.835795 0.581398 0.242756 -0.214735 0.106913 -0.097869
 35   -0.815868 -0.091229 -3.114430 0.066464 3.132818 -1.010216
 36   14.294526 -0.410349 -0.467541 0.000009 -0.000036 -2.607695
 37   15.834409 0.579420 -0.284600 -0.006131 -0.035383 0.214508
 38   1.139685 -3.453749 -2.823813 0.000000 0.000000 0.000001
 39   -4.457742 -1.054854 -0.746180 0.000000 0.000000 0.000000
 40   1.118101 -3.449769 3.237290 0.000000 0.000001 0.000000
 41   -4.433840 -1.059130 0.959566 -0.000001 0.000000 0.000000
 42   -0.657468 1.697302 -2.688614 0.000000 0.000002 0.000000
 43   -0.664068 1.698578 2.869377 0.000000 0.000002 0.000000
time 4
  0   -0.967547 0.175787 -20.574476 0.000000 0.000000 -1.572114
  1   -1.093036 0.000002 -0.326057 -1.570756 -1.570425 -0.000171
  2   2.262337 0.113614 0.064702 -0.069497 0.006065 0.087685
  3   2.380047 0.353302 0.047440 -0.049173 0.007307 0.148103
  4   2.033756 0.190472 -0.000128 -0.069022 -0.009648 -0.139286
  5   2.451511 0.204909 -0.003447 0.000000 -0.000005 -0.017472
  6   7.247600 -0.397300 -0.109469 0.000001 0.000009 0.418441
  7   -2.022252 -0.104661 3.136172 -0.298783 -1.361862 -2.901749
  8   1.168026 -0.537438 -0.063437 -1.133372 1.004189 -0.971174
  9   6.790376 -0.619176 0.015206 -0.125542 0.165498 -2.158522
 10   8.637599 0.544015 -0.090417 -1.558488 0.073850 -0.433463
 11   6.790465 -0.619039 0.017802 -0.046238 0.139940 -1.519185
 12   -2.022474 -0.104699 -2.873818 0.242443 1.379330 -2.959811
 13   1.167898 -0.537463 0.063297 1.397772 -1.011442 -1.183909
 14   7.002743 -0.617765 -0.183752 -0.176660 -0.830282 -1.527671
 15   8.209042 0.615527 -0.255885 2.675166 -0.193070 -0.393245
 16   7.002735 -0.617911 -0.183641 -0.261193 -0.556795 -1.032095
 17   1.574674 0.609930 -0.000899 0.226627 0.005972 -0.025807
 18   -0.602177 0.511412 -0.000006 0.000000 0.000000 0.000000
 19   3.673773 0.177020 1.119313 -0.000002 -0.000014 -0.174510
 20   3.673767 0.176993 -1.117566 0.000007 -0.000003 -0.174546
 21   3.942357 1.334540 1.627658 0.000002 -0.000011 -0.000026
 22   -0.246060 -0.011889 0.516521 -0.000011 0.000031 0.000025
 23   3.942374 1.334565 -1.631083 0.000019 0.000002 -0.000024
 24   -0.246150 -0.011872 -0.516511 -0.000005 -0.000006 0.000048
 25   4.941364 1.997338 1.629330 0.000018 -0.000001 -0.000024
 26   4.941382 1.997366 -1.629410 -0.000001 0.000005 -0.000024
 27   2.914462 1.619264 1.514501 -0.000019 -0.000022 -0.000050
 28   2.916892 1.618870 -1.501142 -0.000002 -0.000009 -0.000024
 29   8.824059 0.150544 0.091743 0.000006 -0.000231 -0.174534
 30   2.111085 -0.561179 1.784320 -0.000008 -0.000682 0.000024
 31   2.121290 -0.561289 -1.853599 0.000000 0.000000 -0.000002
 32   -0.814395 -0.093824 3.127092 3.071685 -0.114787 1.239365
 33   14.298673 -0.408176 0.471578 0.000020 -0.000002 -1.896136
 34   15.835795 0.581398 0.242756 -0.214735 0.106913 -0.097869
 35   -0.815868 -0.091229 -3.114430 0.066464 3.132818 -1.010216
 36   14.294526 -0.410349 -0.467541 0.000009 -0.000036 -2.607695
 37   15.834409 0.579420 -0.284600 -0.006131 -0.035383 0.214508
 38   1.139685 -3.453749 -2.823813 0.000000 0.000000 0.000001
 39   -4.457742 -1.054854 -0.746180 0.000000 0.000000 0.000000
 40   1.118101 -3.449769 3.237290 0.000000 0.000001 0.000000
 41   -4.433840 -1.059130 0.959566 -0.000001 0.000000 0.000000
 42   -0.657468 1.697302 -2.688614 0.000000 0.000002 0.000000
 43   -0.664068 1.698578 2.869377 0.000000 0.000002 0.000000
time 5
  0   -0.967547 0.175787 -20.574476 0.000000 0.000000 -1.572114
  1   -1.093036 0.000002 -0.326057 -1.570756 -1.570425 -0.000171
  2   2.262337 0.113614 0.064702 -0.086820 0.007575 0.087541
  3   2.380047 0.353302 0.047440 -0.061489 0.009092 0.148001
  4   2.033756 0.190472 -0.000128 -0.086284 -0.012020 -0.139141
  5   2.451511 0.204909 -0.003447 0.000000 -0.000005 -0.017472
  6   7.247600 -0.397300 -0.109469 0.000001 0.000009 0.418441
  7   -2.022252 -0.104661 3.136172 -0.298783 -1.361862 -2.901749
  8   1.168026 -0.537438 -0.063437 -1.133372 1.004189 -0.928663
  9   6.790376 -0.619176 0.015206 -0.125542 0.165498 -2.158522
 10   8.637599 0.544015 -0.090417 -1.558488 0.073850 -0.433463
 11   6.790465 -0.619039 0.017802 -0.046238 0.139940 -1.519185
 12   -2.022474 -0.104699 -2.873818 0.226826 1.383684 -2.976088
 13   1.167898 -0.537463 0.063297 1.308706 -1.040124 -1.097526
 14   7.002743 -0.617765 -0.183752 -0.184118 -0.814155 -1.472805
 15   8.209042 0.615527 -0.255885 2.570691 -0.187623 -0.377729
 16   7.002735 -0.617911 -0.183641 -0.255779 -0.545067 -1.000415
 17   1.574674 0.609930 -0.000899 0.226627 0.005972 -0.025807
 18   -0.602177 0.511412 -0.000006 0.000000 0.000000 0.000000
 19   3.673773 0.177020 1.119313 -0.000002 -0.000014 -0.174510
 20   3.673767 0.176993 -1.117566 0.000007 -0.000003 -0.174546
 21   3.942357 1.334540 1.627658 0.000002 -0.000011 -0.000026
 22   -0.246060 -0.011889 0.516521 -0.000011 0.000031 0.000025
 23   3.942374 1.334565 -1.631083 0.000019 0.000002 -0.000024
 24   -0.246150 -0.011872 -0.516511 -0.000005 -0.000006 0.000048
 25   4.941364 1.997338 1.629330 0.000018 -0.000001 -0.000024
 26   4.941382 1.997366 -1.629410 -0.000001 0.000005 -0.000024
 27   2.914462 1.619264 1.514501 -0.000019 -0.000022 -0.000050
 28   2.916892 1.618870 -1.501142 -0.000002 -0.000009 -0.000024
 29   8.824059 0.150544 0.091743 0.000006 -0.000231 -0.174534
 30   2.111085 -0.561179 1.784320 -0.000008 -0.000682 0.000024
 31   2.121290 -0.561289 -1.853599 0.000000 0.000000 -0.000002
 32   -0.814395 -0.093824 3.127092 3.071685 -0.114787 1.239365
 33   14.298673 -0.408176 0.471578 0.000020 -0.000002 -1.896136
 34   15.835795 0.581398 0.242756 -0.214735 0.106913 -0.097869
 35   -0.815868 -0.091229 -3.114430 0.066464 3.132818 -1.010216
 36   14.294526 -0.410349 -0.467541 0.000009 -0.000036 -2.607695
 37   15.834409 0.579420 -0.284600 -0.006131 -0.035383 0.214508
 38   1.139685 -3.453749 -2.823813 0.000000 0.000000 0.000001
 39   -4.457742 -1.054854 -0.746180 0.000000 0.000000 0.000000
 40   1.118101 -3.449769 3.237290 0.000000 0.000001 0.000000
 41   -4.433840 -1.059130 0.959566 -0.000001 0.000000 0.000000
 42   -0.657468 1.697302 -2.688614 0.000000 0.000002 0.000000
 43   -0.664068 1.698578 2.869377 0.000000 0.000002 0.000000
time 6
  0   -0.967547 0.175787 -20.574476 0.000000 0.000000 -1.572114
  1   -1.093036 0.000002 -0.326057 -1.570756 -1.570425 -0.000171
  2   2.262337 0.113614 0.064702 -0.104245 0.009097 0.087360
  3   2.380047 0.353302 0.047440 -0.073940 0.010986 0.147879
  4   2.033756 0.190472 -0.000128 -0.103602 -0.014441 -0.138887
  5   2.451511 0.204909 -0.003447 0.000000 -0.000005 -0.017472
  6   7.247600 -0.397300 -0.109469 0.000001 0.000009 0.418441
  7   -2.022252 -0.104661 3.136172 -0.298783 -1.361862 -2.901749
  8   1.168026 -0.537438 -0.063437 -1.133372 1.004189 -0.886088
  9   6.790376 -0.619176 0.015206 -0.125542 0.165498 -2.158522
 10   8.637599 0.544015 -0.090417 -1.558488 0.073850 -0.433463
 11   6.790465 -0.619039 0.017802 -0.046238 0.139940 -1.519185
 12   -2.022474 -0.104699 -2.873818 0.210252 1.387950 -2.993129
 13   1.167898 -0.537463 0.063297 1.210432 -1.064534 -1.002002
 14   7.002743 -0.617765 -0.183752 -0.190153 -0.797858 -1.419094
 15   8.209042 0.615527 -0.255885 2.466144 -0.180435 -0.362936
 16   7.002735 -0.617911 -0.183641 -0.250083 -0.533394 -0.969065
 17   1.574674 0.609930 -0.000899 0.226627 0.005972 -0.025807
 18   -0.602177 0.511412 -0.000006 0.000000 0.000000 0.000000
 19   3.673773 0.177020 1.119313 -0.000002 -0.000014 -0.174510
 20   3.673767 0.176993 -1.117566 0.000007 -0.000003 -0.174546
 21   3.942357 1.334540 1.627658 0.000002 -0.000011 -0.000026
 22   -0.246060 -0.011889 0.516521 -0.000011 0.000031 0.000025
 23   3.942374 1.334565 -1.631083 0.000019 0.000002 -0.000024
 24   -0.246150 -0.011872 -0.516511 -0.000005 -0.000006 0.000048
 25   4.941364 1.997338 1.629330 0.000018 -0.000001 -0.000024
 26   4.941382 1.997366 -1.629410 -0.000001 0.000005 -0.000024
 27   2.914462 1.619264 1.514501 -0.000019 -0.000022 -0.000050
 28   2.916892 1.618870 -1.501142 -0.000002 -0.000009 -0.000024
 29   8.824059 0.150544 0.091743 0.000006 -0.000231 -0.174534
 30   2.111085 -0.561179 1.784320 -0.000008 -0.000682 0.000024
 31   2.121290 -0.561289 -1.853599 0.000000 0.000000 -0.000002
 32   -0.814395 -0.093824 3.127092 3.071685 -0.114787 1.239365
 33   14.298673 -0.408176 0.471578 0.000020 -0.000002 -1.896136
 34   15.835795 0.581398 0.242756 -0.214735 0.106913 -0.097869
 35   -0.815868 -0.091229 -3.114430 0.066464 3.132818 -1.010216
 36   14.294526 -0.410349 -0.467541 0.000009 -0.000036 -2.607695
 37   15.834409 0.579420 -0.284600 -0.006131 -0.035383 0.214508
 38   1.139685 -3.453749 -2.823813 0.000000 0.000000 0.000001
 39   -4.457742 -1.054854 -0.746180 0.000000 0.000000 0.000000
 40   1.118101 -3.449769 3.237290 0.000000 0.000001 0.000000
 41   -4.433840 -1.059130 0.959566 -0.000001 0.000000 0.000000
 42   -0.657468 1.697302 -2.688614 0.000000 0.000002 0.000000
 43   -0.664068 1.698578 2.869377 0.000000 0.000002 0.000000
time 7
  0   -0.967547 0.175787 -20.574476 0.000000 0.000000 -1.572114
  1   -1.093036 0.000002 -0.326057 -1.570756 -1.570425 -0.000171
  2   2.262337 0.113614 0.064702 -0.121657 0.010595 0.087288
  3   2.380047 0.353302 0.047440 -0.086271 0.012771 0.147736
  4   2.033756 0.190472 -0.000128 -0.120901 -0.016850 -0.138597
  5   2.451511 0.204909 -0.003447 0.000000 -0.000005 -0.017472
  6   7.247600 -0.397300 -0.109469 0.000001 0.000009 0.418441
  7   -2.022252 -0.104661 3.136172 -0.298783 -1.361862 -2.901749
  8   1.168026 -0.537438 -0.063437 -1.133372 1.004189 -0.843830
  9   6.790376 -0.619176 0.015206 -0.125542 0.165498 -2.158522
 10   8.637599 0.544015 -0.090417 -1.558488 0.073850 -0.433463
 11   6.790465 -0.619039 0.017802 -0.046238 0.139940 -1.519185
 12   -2.022474 -0.104699 -2.873818 0.192911 1.392130 -3.010937
 13   1.167898 -0.537463 0.063297 1.103652 -1.084011 -0.898064
 14   7.002743 -0.617765 -0.183752 -0.194935 -0.781220 -1.366373
 15   8.209042 0.615527 -0.255885 2.362316 -0.171886 -0.349164
 16   7.002735 -0.617911 -0.183641 -0.243916 -0.521778 -0.937660
 17   1.574674 0.609930 -0.000899 0.226627 0.005972 -0.025807
 18   -0.602177 0.511412 -0.000006 0.000000 0.000000 0.000000
 19   3.673773 0.177020 1.119313 -0.000002 -0.000014 -0.174510
 20   3.673767 0.176993 -1.117566 0.000007 -0.000003 -0.174546
 21   3.942357 1.334540 1.627658 0.000002 -0.000011 -0.000026
 22   -0.246060 -0.011889 0.516521 -0.000011 0.000031 0.000025
 23   3.942374 1.334565 -1.631083 0.000019 0.000002 -0.000024
 24   -0.246150 -0.011872 -0.516511 -0.000005 -0.000006 0.000048
 25   4.941364 1.997338 1.629330 0.000018 -0.000001 -0.000024
 26   4.941382 1.997366 -1.629410 -0.000001 0.000005 -0.000024
 27   2.914462 1.619264 1.514501 -0.000019 -0.000022 -0.000050
 28   2.916892 1.618870 -1.501142 -0.000002 -0.000009 -0.000024
 29   8.824059 0.150544 0.091743 0.000006 -0.000231 -0.174534
 30   2.111085 -0.561179 1.784320 -0.000008 -0.000682 0.000024
 31   2.121290 -0.561289 -1.853599 0.000000 0.000000 -0.000002
 32   -0.814395 -0.093824 3.127092 3.071685 -0.114787 1.239365
 33   14.298673 -0.408176 0.471578 0.000020 -0.000002 -1.896136
 34   15.835795 0.581398 0.242756 -0.214735 0.106913 -0.097869
 35   -0.815868 -0.091229 -3.114430 0.066464 3.132818 -1.010216
 36   14.294526 -0.410349 -0.467541 0.000009 -0.000036 -2.607695
 37   15.834409 0.579420 -0.284600 -0.006131 -0.035383 0.214508
 38   1.139685 -3.453749 -2.823813 0.000000 0.000000 0.000001
 39   -4.457742 -1.054854 -0.746180 0.000000 0.000000 0.000000
 40   1.118101 -3.449769 3.237290 0.000000 0.000001 0.000000
 41   -4.433840 -1.059130 0.959566 -0.000001 0.000000 0.000000
 42   -0.657468 1.697302 -2.688614 0.000000 0.000002 0.000000
 43   -0.664068 1.698578 2.869377 0.000000 0.000002 0.000000
time 8
  0   -0.967547 0.175787 -20.574476 0.000000 0.000000 -1.572114
  1   -1.093036 0.000002 -0.326057 -1.570756 -1.570425 -0.000171
  2   2.262337 0.113614 0.064702 -0.138980 0.012117 0.087035
  3   2.380047 0.353302 0.047440 -0.098557 0.014605 0.147593
  4   2.033756 0.190472 -0.000128 -0.138163 -0.019259 -0.138416
  5   2.451511 0.204909 -0.003447 0.000000 -0.000005 -0.017472
  6   7.247600 -0.397300 -0.109469 0.000001 0.000009 0.418441
  7   -2.022252 -0.104661 3.136172 -0.298783 -1.361862 -2.901749
  8   1.168026 -0.537438 -0.063437 -1.133372 1.004189 -0.801572
  9   6.790376 -0.619176 0.015206 -0.125542 0.165498 -2.158522
 10   8.637599 0.544015 -0.090417 -1.558488 0.073850 -0.433463
 11   6.790465 -0.619039 0.017802 -0.046238 0.139940 -1.519185
 12   -2.022474 -0.104699 -2.873818 0.174707 1.396338 -3.029894
 13   1.167898 -0.537463 0.063297 0.989421 -1.097793 -0.786498
 14   7.002743 -0.617765 -0.183752 -0.198181 -0.764526 -1.314725
 15   8.209042 0.615527 -0.255885 2.258345 -0.161899 -0.336174
 16   7.002735 -0.617911 -0.183641 -0.237419 -0.510332 -0.906587
 17   1.574674 0.609930 -0.000899 0.226627 0.005972 -0.025807
 18   -0.602177 0.511412 -0.000006 0.000000 0.000000 0.000000
 19   3.673773 0.177020 1.119313 -0.000002 -0.000014 -0.174510
 20   3.673767 0.176993 -1.117566 0.000007 -0.000003 -0.174546
 21   3.942357 1.334540 1.627658 0.000002 -0.000011 -0.000026
 22   -0.246060 -0.011889 0.516521 -0.000011 0.000031 0.000025
 23   3.942374 1.334565 -1.631083 0.000019 0.000002 -0.000024
 24   -0.246150 -0.011872 -0.516511 -0.000005 -0.000006 0.000048
 25   4.941364 1.997338 1.629330 0.000018 -0.000001 -0.000024
 26   4.941382 1.997366 -1.629410 -0.000001 0.000005 -0.000024
 27   2.914462 1.619264 1.514501 -0.000019 -0.000022 -0.000050
 28   2.916892 1.618870 -1.501142 -0.000002 -0.000009 -0.000024
 29   8.824059 0.150544 0.091743 0.000006 -0.000231 -0.174534
 30   2.111085 -0.561179 1.784320 -0.000008 -0.000682 0.000024
 31   2.121290 -0.561289 -1.853599 0.000000 0.000000 -0.000002
 32   -0.814395 -0.093824 3.127092 3.071685 -0.114787 1.239365
 33   14.298673 -0.408176 0.471578 0.000020 -0.000002 -1.896136
 34   15.835795 0.581398 0.242756 -0.214735 0.106913 -0.097869
 35   -0.815868 -0.091229 -3.114430 0.066464 3.132818 -1.010216
 36   14.294526 -0.410349 -0.467541 0.000009 -0.000036 -2.607695
 37   15.834409 0.579420 -0.284600 -0.006131 -0.035383 0.214508
 38   1.139685 -3.453749 -2.823813 0.000000 0.000000 0.000001
 39   -4.457742 -1.054854 -0.746180 0.000000 0.000000 0.000000
 40   1.118101 -3.449769 3.237290 0.000000 0.000001 0.000000
 41   -4.433840 -1.059130 0.959566 -0.000001 0.000000 0.000000
 42   -0.657468 1.697302 -2.688614 0.000000 0.000002 0.000000
 43   -0.664068 1.698578 2.869377 0.000000 0.000002 0.000000
time 9
  0   -0.967547 0.175787 -20.574476 0.000000 0.000000 -1.572114
  1   -1.093036 0.000002 -0.326057 -1.570756 -1.570425 -0.000171
  2   2.262337 0.113614 0.064702 -0.156405 0.013639 0.086800
  3   2.380047 0.353302 0.047440 -0.110827 0.016499 0.147389
  4   2.033756 0.190472 -0.000128 -0.155499 -0.021668 -0.137981
  5   2.451511 0.204909 -0.003447 0.000000 -0.000005 -0.017472
  6   7.247600 -0.397300 -0.109469 0.000001 0.000009 0.418441
  7   -2.022252 -0.104661 3.136172 -0.298783 -1.361862 -2.901749
  8   1.168026 -0.537438 -0.063437 -1.133372 1.004189 -0.759061
  9   6.790376 -0.619176 0.015206 -0.125542 0.165498 -2.158522
 10   8.637599 0.544015 -0.090417 -1.558488 0.073850 -0.433463
 11   6.790465 -0.619039 0.017802 -0.046238 0.139940 -1.519185
 12   -2.022474 -0.104699 -2.873818 0.155642 1.400488 -3.049521
 13   1.167898 -0.537463 0.063297 0.870198 -1.105726 -0.669969
 14   7.002743 -0.617765 -0.183752 -0.200401 -0.747661 -1.263984
 15   8.209042 0.615527 -0.255885 2.154876 -0.150701 -0.324508
 16   7.002735 -0.617911 -0.183641 -0.230640 -0.498941 -0.875513
 17   1.574674 0.609930 -0.000899 0.226627 0.005972 -0.025807
 18   -0.602177 0.511412 -0.000006 0.000000 0.000000 0.000000
 19   3.673773 0.177020 1.119313 -0.000002 -0.000014 -0.174510
 20   3.673767 0.176993 -1.117566 0.000007 -0.000003 -0.174546
 21   3.942357 1.334540 1.627658 0.000002 -0.000011 -0.000026
 22   -0.246060 -0.011889 0.516521 -0.000011 0.000031 0.000025
 23   3.942374 1.334565 -1.631083 0.000019 0.000002 -0.000024
 24   -0.246150 -0.011872 -0.516511 -0.000005 -0.000006 0.000048
 25   4.941364 1.997338 1.629330 0.000018 -0.000001 -0.000024
 26   4.941382 1.997366 -1.629410 -0.000001 0.000005 -0.000024
 27   2.914462 1.619264 1.514501 -0.000019 -0.000022 -0.000050
 28   2.916892 1.618870 -1.501142 -0.000002 -0.000009 -0.000024
 29   8.824059 0.150544 0.091743 0.000006 -0.000231 -0.174534
 30   2.111085 -0.561179 1.784320 -0.000008 -0.000682 0.000024
 31   2.121290 -0.561289 -1.853599 0.000000 0.000000 -0.000002
 32   -0.814395 -0.093824 3.127092 3.071685 -0.114787 1.239365
 33   14.298673 -0.408176 0.471578 0.000020 -0.000002 -1.896136
 34   15.835795 0.581398 0.242756 -0.214735 0.106913 -0.097869
 35   -0.815868 -0.091229 -3.114430 0.066464 3.132818 -1.010216
 36   14.294526 -0.410349 -0.467541 0.000009 -0.000036 -2.607695
 37   15.834409 0.579420 -0.284600 -0.006131 -0.035383 0.214508
 38   1.139685 -3.453749 -2.823813 0.000000 0.000000 0.000001
 39   -4.457742 -1.054854 -0.746180 0.000000 0.000000 0.000000
 40   1.118101 -3.449769 3.237290 0.000000 0.000001 0.000000
 41   -4.433840 -1.059130 0.959566 -0.000001 0.000000 0.000000
 42   -0.657468 1.697302 -2.688614 0.000000 0.000002 0.000000
 43   -0.664068 1.698578 2.869377 0.000000 0.000002 0.000000
time 10
  0   -0.967547 0.175787 -20.574476 0.000000 0.000000 -1.572114
  1   -1.093036 0.000002 -0.326057 -1.570756 -1.570425 -0.000171
  2   2.262337 0.113614 0.064702 -0.173766 0.015149 0.086583
  3   2.380047 0.353302 0.047440 -0.123203 0.018272 0.147144
  4   2.033756 0.190472 -0.000128 -0.172743 -0.024125 -0.137582
  5   2.451511 0.204909 -0.003447 0.000000 -0.000005 -0.017472
  6   7.247600 -0.397300 -0.109469 0.000001 0.000009 0.418441
  7   -2.022252 -0.104661 3.136172 -0.298783 -1.361862 -2.901749
  8   1.168026 -0.537438 -0.063437 -1.133372 1.004189 -0.716740
  9   6.790376 -0.619176 0.015206 -0.125542 0.165498 -2.158522
 10   8.637599 0.544015 -0.090417 -1.558488 0.073850 -0.433463
 11   6.790465 -0.619039 0.017802 -0.046238 0.139940 -1.519185
 12   -2.022474 -0.104699 -2.873818 0.135331 1.404668 -3.069914
 13   1.167898 -0.537463 0.063297 0.748586 -1.106997 -0.551260
 14   7.002743 -0.617765 -0.183752 -0.201369 -0.730852 -1.213655
 15   8.209042 0.615527 -0.255885 2.051912 -0.138369 -0.313924
 16   7.002735 -0.617911 -0.183641 -0.223485 -0.487720 -0.844440
 17   1.574674 0.609930 -0.000899 0.226627 0.005972 -0.025807
 18   -0.602177 0.511412 -0.000006 0.000000 0.000000 0.000000
 19   3.673773 0.177020 1.119313 -0.000002 -0.000014 -0.174510
 20   3.673767 0.176993 -1.117566 0.000007 -0.000003 -0.174546
 21   3.942357 1.334540 1.627658 0.000002 -0.000011 -0.000026
 22   -0.246060 -0.011889 0.516521 -0.000011 0.000031 0.000025
 23   3.942374 1.334565 -1.631083 0.000019 0.000002 -0.000024
 24   -0.246150 -0.011872 -0.516511 -0.000005 -0.000006 0.000048
 25   4.941364 1.997338 1.629330 0.000018 -0.000001 -0.000024
 26   4.941382 1.997366 -1.629410 -0.000001 0.000005 -0.000024
 27   2.914462 1.619264 1.514501 -0.000019 -0.000022 -0.000050
 28   2.916892 1.618870 -1.501142 -0.000002 -0.000009 -0.000024
 29   8.824059 0.150544 0.091743 0.000006 -0.000231 -0.174534
 30   2.111085 -0.561179 1.784320 -0.000008 -0.000682 0.000024
 31   2.121290 -0.561289 -1.853599 0.000000 0.000000 -0.000002
 32   -0.814395 -0.093824 3.127092 3.071685 -0.114787 1.239365
 33   14.298673 -0.408176 0.471578 0.000020 -0.000002 -1.896136
 34   15.835795 0.581398 0.242756 -0.214735 0.106913 -0.097869
 35   -0.815868 -0.091229 -3.114430 0.066464 3.132818 -1.010216
 36   14.294526 -0.410349 -0.467541 0.000009 -0.000036 -2.607695
 37   15.834409 0.579420 -0.284600 -0.006131 -0.035383 0.214508
 38   1.139685 -3.453749 -2.823813 0.000000 0.000000 0.000001
 39   -4.457742 -1.054854 -0.746180 0.000000 0.000000 0.000000
 40   1.118101 -3.449769 3.237290 0.000000 0.000001 0.000000
 41   -4.433840 -1.059130 0.959566 -0.000001 0.000000 0.000000
 42   -0.657468 1.697302 -2.688614 0.000000 0.000002 0.000000
 43   -0.664068 1.698578 2.869377 0.000000 0.000002 0.000000
time 11
  0   -0.967547 0.175787 -20.574476 0.000000 0.000000 -1.572114
  1   -1.093036 0.000002 -0.326057 -1.570756 -1.570425 -0.000171
  2   2.262337 0.113614 0.064702 -0.191179 0.016659 0.086294
  3   2.380047 0.353302 0.047440 -0.135549 0.020094 0.146879
  4   2.033756 0.190472 -0.000128 -0.190042 -0.026510 -0.137147
  5   2.451511 0.204909 -0.003447 0.000000 -0.000005 -0.017472
  6   7.247600 -0.397300 -0.109469 0.000001 0.000009 0.418441
  7   -2.022252 -0.104661 3.136172 -0.298783 -1.361862 -2.901749
  8   1.168026 -0.537438 -0.063437 -1.133372 1.004189 -0.674482
  9   6.790376 -0.619176 0.015206 -0.125542 0.165498 -2.158522
 10   8.637599 0.544015 -0.090417 -1.558488 0.073850 -0.433463
 11   6.790465 -0.619039 0.017802 -0.046238 0.139940 -1.519185
 12   -2.022474 -0.104699 -2.873818 0.114157 1.408557 -3.091360
 13   1.167898 -0.537463 0.063297 0.627746 -1.101963 -0.433278
 14   7.002743 -0.617765 -0.183752 -0.201255 -0.713930 -1.164565
 15   8.209042 0.615527 -0.255885 1.949090 -0.124977 -0.304783
 16   7.002735 -0.617911 -0.183641 -0.216094 -0.476555 -0.813697
 17   1.574674 0.609930 -0.000899 0.226627 0.005972 -0.025807
 18   -0.602177 0.511412 -0.000006 0.000000 0.000000 0.000000
 19   3.673773 0.177020 1.119313 -0.000002 -0.000014 -0.174510
 20   3.673767 0.176993 -1.117566 0.000007 -0.000003 -0.174546
 21   3.942357 1.334540 1.627658 0.000002 -0.000011 -0.000026
 22   -0.246060 -0.011889 0.516521 -0.000011 0.000031 0.000025
 23   3.942374 1.334565 -1.631083 0.000019 0.000002 -0.000024
 24   -0.246150 -0.011872 -0.516511 -0.000005 -0.000006 0.000048
 25   4.941364 1.997338 1.629330 0.000018 -0.000001 -0.000024
 26   4.941382 1.997366 -1.629410 -0.000001 0.000005 -0.000024
 27   2.914462 1.619264 1.514501 -0.000019 -0.000022 -0.000050
 28   2.916892 1.618870 -1.501142 -0.000002 -0.000009 -0.000024
 29   8.824059 0.150544 0.091743 0.000006 -0.000231 -0.174534
 30   2.111085 -0.561179 1.784320 -0.000008 -0.000682 0.000024
 31   2.121290 -0.561289 -1.853599 0.000000 0.000000 -0.000002
 32   -0.814395 -0.093824 3.127092 3.071685 -0.114787 1.239365
 33   14.298673 -0.408176 0.471578 0.000020 -0.000002 -1.896136
 34   15.835795 0.581398 0.242756 -0.214735 0.106913 -0.097869
 35   -0.815868 -0.091229 -3.114430 0.066464 3.132818 -1.010216
 36   14.294526 -0.410349 -0.467541 0.000009 -0.000036 -2.607695
 37   15.834409 0.579420 -0.284600 -0.006131 -0.035383 0.214508
 38   1.139685 -3.453749 -2.823813 0.000000 0.000000 0.000001
 39   -4.457742 -1.054854 -0.746180 0.000000 0.000000 0.000000
 40   1.118101 -3.449769 3.237290 0.000000 0.000001 0.000000
 41   -4.433840 -1.059130 0.959566 -0.000001 0.000000 0.000000
 42   -0.657468 1.697302 -2.688614 0.000000 0.000002 0.000000
 43   -0.664068 1.698578 2.869377 0.000000 0.000002 0.000000
time 12
  0   -0.967547 0.175787 -20.574476 0.000000 0.000000 -1.572114
  1   -1.093036 0.000002 -0.326057 -1.570756 -1.570425 -0.000171
  2   2.262337 0.113614 0.064702 -0.208604 0.018193 0.085987
  3   2.380047 0.353302 0.047440 -0.147895 0.021976 0.146675
  4   2.033756 0.190472 -0.000128 -0.207360 -0.028883 -0.136640
  5   2.451511 0.204909 -0.003447 0.000000 -0.000005 -0.017472
  6   7.247600 -0.397300 -0.109469 0.000001 0.000009 0.418441
  7   -2.022252 -0.104661 3.136172 -0.298783 -1.361862 -2.901749
  8   1.168026 -0.537438 -0.063437 -1.133372 1.004189 -0.631971
  9   6.790376 -0.619176 0.015206 -0.125542 0.165498 -2.158522
 10   8.637599 0.544015 -0.090417 -1.558488 0.073850 -0.433463
 11   6.790465 -0.619039 0.017802 -0.046238 0.139940 -1.519185
 12   -2.022474 -0.104699 -2.873818 0.092217 1.412533 -3.114242
 13   1.167898 -0.537463 0.063297 0.511125 -1.090724 -0.319291
 14   7.002743 -0.617765 -0.183752 -0.199946 -0.697009 -1.116052
 15   8.209042 0.615527 -0.255885 1.846413 -0.110829 -0.297025
 16   7.002735 -0.617911 -0.183641 -0.208279 -0.465616 -0.782955
 17   1.574674 0.609930 -0.000899 0.226627 0.005972 -0.025807
 18   -0.602177 0.511412 -0.000006 0.000000 0.000000 0.000000
 19   3.673773 0.177020 1.119313 -0.000002 -0.000014 -0.174510
 20   3.673767 0.176993 -1.117566 0.000007 -0.000003 -0.174546
 21   3.942357 1.334540 1.627658 0.000002 -0.000011 -0.000026
 22   -0.246060 -0.011889 0.516521 -0.000011 0.000031 0.000025
 23   3.942374 1.334565 -1.631083 0.000019 0.000002 -0.000024
 24   -0.246150 -0.011872 -0.516511 -0.000005 -0.000006 0.000048
 25   4.941364 1.997338 1.629330 0.000018 -0.000001 -0.000024
 26   4.941382 1.997366 -1.629410 -0.000001 0.000005 -0.000024
 27   2.914462 1.619264 1.514501 -0.000019 -0.000022 -0.000050
 28   2.916892 1.618870 -1.501142 -0.000002 -0.000009 -0.000024
 29   8.824059 0.150544 0.091743 0.000006 -0.000231 -0.174534
 30   2.111085 -0.561179 1.784320 -0.000008 -0.000682 0.000024
 31   2.121290 -0.561289 -1.853599 0.000000 0.000000 -0.000002
 32   -0.814395 -0.093824 3.127092 3.071685 -0.114787 1.239365
 33   14.298673 -0.408176 0.471578 0.000020 -0.000002 -1.896136
 34   15.835795 0.581398 0.242756 -0.214735 0.106913 -0.097869
 35   -0.815868 -0.091229 -3.114430 0.066464 3.132818 -1.010216
 36   14.294526 -0.410349 -0.467541 0.000009 -0.000036 -2.607695
 37   15.834409 0.579420 -0.284600 -0.006131 -0.035383 0.214508
 38   1.139685 -3.453749 -2.823813 0.000000 0.000000 0.000001
 39   -4.457742 -1.054854 -0.746180 0.000000 0.000000 0.000000
 40   1.118101 -3.449769 3.237290 0.000000 0.000001 0.000000
 41   -4.433840 -1.059130 0.959566 -0.000001 0.000000 0.000000
 42   -0.657468 1.697302 -2.688614 0.000000 0.000002 0.000000
 43   -0.664068 1.698578 2.869377 0.000000 0.000002 0.000000
time 13
  0   -0.967547 0.175787 -20.574476 0.000000 0.000000 -1.572114
  1   -1.093036 0.000002 -0.326057 -1.570756 -1.570425 -0.000171
  2   2.262337 0.113614 0.064702 -0.225927 0.019691 0.085661
  3   2.380047 0.353302 0.047440 -0.160226 0.023737 0.146389
  4   2.033756 0.190472 -0.000128 -0.224659 -0.031256 -0.136060
  5   2.451511 0.204909 -0.003447 0.000000 -0.000005 -0.017472
  6   7.247600 -0.397300 -0.109469 0.000001 0.000009 0.418441
  7   -2.022252 -0.104661 3.136172 -0.298783 -1.361862 -2.901749
  8   1.168026 -0.537438 -0.063437 -1.133372 1.004189 -0.589460
  9   6.790376 -0.619176 0.015206 -0.125542 0.165498 -2.158522
 10   8.637599 0.544015 -0.090417 -1.558488 0.073850 -0.433463
 11   6.790465 -0.619039 0.017802 -0.046238 0.139940 -1.519185
 12   -2.022474 -0.104699 -2.873818 0.068840 1.416335 -3.137986
 13   1.167898 -0.537463 0.063297 0.400900 -1.073688 -0.211781
 14   7.002743 -0.617765 -0.183752 -0.197725 -0.680200 -1.067868
 15   8.209042 0.615527 -0.255885 1.744311 -0.095848 -0.290951
 16   7.002735 -0.617911 -0.183641 -0.200229 -0.454789 -0.752047
 17   1.574674 0.609930 -0.000899 0.226627 0.005972 -0.025807
 18   -0.602177 0.511412 -0.000006 0.000000 0.000000 0.000000
 19   3.673773 0.177020 1.119313 -0.000002 -0.000014 -0.174510
 20   3.673767 0.176993 -1.117566 0.000007 -0.000003 -0.174546
 21   3.942357 1.334540 1.627658 0.000002 -0.000011 -0.000026
 22   -0.246060 -0.011889 0.516521 -0.000011 0.000031 0.000025
 23   3.942374 1.334565 -1.631083 0.000019 0.000002 -0.000024
 24   -0.246150 -0.011872 -0.516511 -0.000005 -0.000006 0.000048
 25   4.941364 1.997338 1.629330 0.000018 -0.000001 -0.000024
 26   4.941382 1.997366 -1.629410 -0.000001 0.000005 -0.000024
 27   2.914462 1.619264 1.514501 -0.000019 -0.000022 -0.000050
 28   2.916892 1.618870 -1.501142 -0.000002 -0.000009 -0.000024
 29   8.824059 0.150544 0.091743 0.000006 -0.000231 -0.174534
 30   2.111085 -0.561179 1.784320 -0.000008 -0.000682 0.000024
 31   2.121290 -0.561289 -1.853599 0.000000 0.000000 -0.000002
 32   -0.814395 -0.093824 3.127092 3.071685 -0.114787 1.239365
 33   14.298673 -0.408176 0.471578 0.000020 -0.000002 -1.896136
 34   15.835795 0.581398 0.242756 -0.214735 0.106913 -0.097869
 35   -0.815868 -0.091229 -3.114430 0.066464 3.132818 -1.010216
 36   14.294526 -0.410349 -0.467541 0.000009 -0.000036 -2.607695
 37   15.834409 0.579420 -0.284600 -0.006131 -0.035383 0.214508
 38   1.139685 -3.453749 -2.823813 0.000000 0.000000 0.000001
 39   -4.457742 -1.054854 -0.746180 0.000000 0.000000 0.000000
 40   1.118101 -3.449769 3.237290 0.000000 0.000001 0.000000
 41   -4.433840 -1.059130 0.959566 -0.000001 0.000000 0.000000
 42   -0.657468 1.697302 -2.688614 0.000000 0.000002 0.000000
 43   -0.664068 1.698578 2.869377 0.000000 0.000002 0.000000
time 14
  0   -0.967547 0.175787 -20.574476 0.000000 0.000000 -1.572114
  1   -1.093036 0.000002 -0.326057 -1.570756 -1.570425 -0.000171
  2   2.262337 0.113614 0.064702 -0.243351 0.021189 0.085246
  3   2.380047 0.353302 0.047440 -0.172617 0.025619 0.146022
  4   2.033756 0.190472 -0.000128 -0.241958 -0.033617 -0.135480
  5   2.451511 0.204909 -0.003447 0.000000 -0.000005 -0.017472
  6   7.247600 -0.397300 -0.109469 0.000001 0.000009 0.418441
  7   -2.022252 -0.104661 3.136172 -0.298783 -1.361862 -2.901749
  8   1.168026 -0.537438 -0.063437 -1.133372 1.004189 -0.547392
  9   6.790376 -0.619176 0.015206 -0.125542 0.165498 -2.158522
 10   8.637599 0.544015 -0.090417 -1.558488 0.073850 -0.433463
 11   6.790465 -0.619039 0.017802 -0.046238 0.139940 -1.519185
 12   -2.022474 -0.104699 -2.873818 0.044314 1.420051 -3.162687
 13   1.167898 -0.537463 0.063297 0.298830 -1.051413 -0.112686
 14   7.002743 -0.617765 -0.183752 -0.194366 -0.663562 -1.020675
 15   8.209042 0.615527 -0.255885 1.642281 -0.080338 -0.286260
 16   7.002735 -0.617911 -0.183641 -0.191850 -0.444188 -0.721415
 17   1.574674 0.609930 -0.000899 0.226627 0.005972 -0.025807
 18   -0.602177 0.511412 -0.000006 0.000000 0.000000 0.000000
 19   3.673773 0.177020 1.119313 -0.000002 -0.000014 -0.174510
 20   3.673767 0.176993 -1.117566 0.000007 -0.000003 -0.174546
 21   3.942357 1.334540 1.627658 0.000002 -0.000011 -0.000026
 22   -0.246060 -0.011889 0.516521 -0.000011 0.000031 0.000025
 23   3.942374 1.334565 -1.631083 0.000019 0.000002 -0.000024
 24   -0.246150 -0.011872 -0.516511 -0.000005 -0.000006 0.000048
 25   4.941364 1.997338 1.629330 0.000018 -0.000001 -0.000024
 26   4.941382 1.997366 -1.629410 -0.000001 0.000005 -0.000024
 27   2.914462 1.619264 1.514501 -0.000019 -0.000022 -0.000050
 28   2.916892 1.618870 -1.501142 -0.000002 -0.000009 -0.000024
 29   8.824059 0.150544 0.091743 0.000006 -0.000231 -0.174534
 30   2.111085 -0.561179 1.784320 -0.000008 -0.000682 0.000024
 31   2.121290 -0.561289 -1.853599 0.000000 0.000000 -0.000002
 32   -0.814395 -0.093824 3.127092 3.071685 -0.114787 1.239365
 33   14.298673 -0.408176 0.471578 0.000020 -0.000002 -1.896136
 34   15.835795 0.581398 0.242756 -0.214735 0.106913 -0.097869
 35   -0.815868 -0.091229 -3.114430 0.066464 3.132818 -1.010216
 36   14.294526 -0.410349 -0.467541 0.000009 -0.000036 -2.607695
 37   15.834409 0.579420 -0.284600 -0.006131 -0.035383 0.214508
 38   1.139685 -3.453749 -2.823813 0.000000 0.000000 0.000001
 39   -4.457742 -1.054854 -0.746180 0.000000 0.000000 0.000000
 40   1.118101 -3.449769 3.237290 0.000000 0.000001 0.000000
 41   -4.433840 -1.059130 0.959566 -0.000001 0.000000 0.000000
 42   -0.657468 1.697302 -2.688614 0.000000 0.000002 0.000000
 43   -0.664068 1.698578 2.869377 0.000000 0.000002 0.000000
time 15
  0   -0.967547 0.175787 -20.574476 0.000000 0.000000 -1.572114
  1   -1.093036 0.000002 -0.326057 -1.570756 -1.570425 -0.000171
  2   2.262337 0.113614 0.064702 -0.194681 0.016983 0.086276
  3   2.380047 0.353302 0.047440 -0.137964 0.020514 0.146879
  4   2.033756 0.190472 -0.000128 -0.193528 -0.026929 -0.137111
  5   2.451511 0.204909 -0.003447 0.000000 -0.000005 -0.017472
  6   7.247600 -0.397300 -0.109469 0.000001 0.000009 0.418441
  7   -2.022252 -0.104661 3.136172 -0.298783 -1.361862 -2.901749
  8   1.168026 -0.537438 -0.063437 -1.133372 1.004189 -0.666005
  9   6.790376 -0.619176 0.015206 -0.125542 0.165498 -2.158522
 10   8.637599 0.544015 -0.090417 -1.558488 0.073850 -0.433463
 11   6.790465 -0.619039 0.017802 -0.046238 0.139940 -1.519185
 12   -2.022474 -0.104699 -2.873818 0.109846 1.409341 -3.095860
 13   1.167898 -0.537463 0.063297 0.603986 -1.100234 -0.410093
 14   7.002743 -0.617765 -0.183752 -0.201084 -0.710580 -1.154582
 15   8.209042 0.615527 -0.255885 1.928454 -0.122253 -0.303099
 16   7.002735 -0.617911 -0.183641 -0.214540 -0.474412 -0.807350
 17   1.574674 0.609930 -0.000899 0.226627 0.005972 -0.025807
 18   -0.602177 0.511412 -0.000006 0.000000 0.000000 0.000000
 19   3.673773 0.177020 1.119313 -0.000002 -0.000014 -0.174510
 20   3.673767 0.176993 -1.117566 0.000007 -0.000003 -0.174546
 21   3.942357 1.334540 1.627658 0.000002 -0.000011 -0.000026
 22   -0.246060 -0.011889 0.516521 -0.000011 0.000031 0.000025
 23   3.942374 1.334565 -1.631083 0.000019 0.000002 -0.000024
 24   -0.246150 -0.011872 -0.516511 -0.000005 -0.000006 0.000048
 25   4.941364 1.997338 1.629330 0.000018 -0.000001 -0.000024
 26   4.941382 1.997366 -1.629410 -0.000001 0.000005 -0.000024
 27   2.914462 1.619264 1.514501 -0.000019 -0.000022 -0.000050
 28   2.916892 1.618870 -1.501142 -0.000002 -0.000009 -0.000024
 29   8.824059 0.150544 0.091743 0.000006 -0.000231 -0.174534
 30   2.111085 -0.561179 1.784320 -0.000008 -0.000682 0.000024
 31   2.121290 -0.561289 -1.853599 0.000000 0.000000 -0.000002
 32   -0.814395 -0.093824 3.127092 3.071685 -0.114787 1.239365
 33   14.298673 -0.408176 0.471578 0.000020 -0.000002 -1.896136
 34   15.835795 0.581398 0.242756 -0.214735 0.106913 -0.097869
 35   -0.815868 -0.091229 -3.114430 0.066464 3.132818 -1.010216
 36   14.294526 -0.410349 -0.467541 0.000009 -0.000036 -2.607695
 37   15.834409 0.579420 -0.284600 -0.006131 -0.035383 0.214508
 38   1.139685 -3.453749 -2.823813 0.000000 0.000000 0.000001
 39   -4.457742 -1.054854 -0.746180 0.000000 0.000000 0.000000
 40   1.118101 -3.449769 3.237290 0.000000 0.000001 0.000000
 41   -4.433840 -1.059130 0.959566 -0.000001 0.000000 0.000000
 42   -0.657468 1.697302 -2.688614 0.000000 0.000002 0.000000
 43   -0.664068 1.698578 2.869377 0.000000 0.000002 0.000000
time 16
  0   -0.967547 0.175787 -20.574476 0.000000 0.000000 -1.572114
  1   -1.093036 0.000002 -0.326057 -1.570756 -1.570425 -0.000171
  2   2.262337 0.113614 0.064702 -0.145922 0.012752 0.086999
  3   2.380047 0.353302 0.047440 -0.103537 0.015336 0.147491
  4   2.033756 0.190472 -0.000128 -0.145079 -0.020278 -0.138271
  5   2.451511 0.204909 -0.003447 0.000000 -0.000005 -0.017472
  6   7.247600 -0.397300 -0.109469 0.000001 0.000009 0.418441
  7   -2.022252 -0.104661 3.136172 -0.298783 -1.361862 -2.901749
  8   1.168026 -0.537438 -0.063437 -1.133372 1.004189 -0.784555
  9   6.790376 -0.619176 0.015206 -0.125542 0.165498 -2.158522
 10   8.637599 0.544015 -0.090417 -1.558488 0.073850 -0.433463
 11   6.790465 -0.619039 0.017802 -0.046238 0.139940 -1.519185
 12   -2.022474 -0.104699 -2.873818 0.167138 1.398050 -3.037649
 13   1.167898 -0.537463 0.063297 0.942111 -1.101658 -0.740492
 14   7.002743 -0.617765 -0.183752 -0.199205 -0.757768 -1.294181
 15   8.209042 0.615527 -0.255885 2.217144 -0.157662 -0.331424
 16   7.002735 -0.617911 -0.183641 -0.234736 -0.505764 -0.894058
 17   1.574674 0.609930 -0.000899 0.226627 0.005972 -0.025807
 18   -0.602177 0.511412 -0.000006 0.000000 0.000000 0.000000
 19   3.673773 0.177020 1.119313 -0.000002 -0.000014 -0.174510
 20   3.673767 0.176993 -1.117566 0.000007 -0.000003 -0.174546
 21   3.942357 1.334540 1.627658 0.000002 -0.000011 -0.000026
 22   -0.246060 -0.011889 0.516521 -0.000011 0.000031 0.000025
 23   3.942374 1.334565 -1.631083 0.000019 0.000002 -0.000024
 24   -0.246150 -0.011872 -0.516511 -0.000005 -0.000006 0.000048
 25   4.941364 1.997338 1.629330 0.000018 -0.000001 -0.000024
 26   4.941382 1.997366 -1.629410 -0.000001 0.000005 -0.000024
 27   2.914462 1.619264 1.514501 -0.000019 -0.000022 -0.000050
 28   2.916892 1.618870 -1.501142 -0.000002 -0.000009 -0.000024
 29   8.824059 0.150544 0.091743 0.000006 -0.000231 -0.174534
 30   2.111085 -0.561179 1.784320 -0.000008 -0.000682 0.000024
 31   2.121290 -0.561289 -1.853599 0.000000 0.000000 -0.000002
 32   -0.814395 -0.093824 3.127092 3.071685 -0.114787 1.239365
 33   14.298673 -0.408176 0.471578 0.000020 -0.000002 -1.896136
 34   15.835795 0.581398 0.242756 -0.214735 0.106913 -0.097869
 35   -0.815868 -0.091229 -3.114430 0.066464 3.132818 -1.010216
 36   14.294526 -0.410349 -0.467541 0.000009 -0.000036 -2.607695
 37   15.834409 0.579420 -0.284600 -0.006131 -0.035383 0.214508
 38   1.139685 -3.453749 -2.823813 0.000000 0.000000 0.000001
 39   -4.457742 -1.054854 -0.746180 0.000000 0.000000 0.000000
 40   1.118101 -3.449769 3.237290 0.000000 0.000001 0.000000
 41   -4.433840 -1.059130 0.959566 -0.000001 0.000000 0.000000
 42   -0.657468 1.697302 -2.688614 0.000000 0.000002 0.000000
 43   -0.664068 1.698578 2.869377 0.000000 0.000002 0.000000
time 17
  0   -0.967547 0.175787 -20.574476 0.000000 0.000000 -1.572114
  1   -1.093036 0.000002 -0.326057 -1.570756 -1.570425 -0.000171
  2   2.262337 0.113614 0.064702 -0.097303 0.008534 0.087505
  3   2.380047 0.353302 0.047440 -0.068960 0.010255 0.147940
  4   2.033756 0.190472 -0.000128 -0.096704 -0.013531 -0.139032
  5   2.451511 0.204909 -0.003447 0.000000 -0.000005 -0.017472
  6   7.247600 -0.397300 -0.109469 0.000001 0.000009 0.418441
  7   -2.022252 -0.104661 3.136172 -0.298783 -1.361862 -2.901749
  8   1.168026 -0.537438 -0.063437 -1.133372 1.004189 -0.903105
  9   6.790376 -0.619176 0.015206 -0.125542 0.165498 -2.158522
 10   8.637599 0.544015 -0.090417 -1.558488 0.073850 -0.433463
 11   6.790465 -0.619039 0.017802 -0.046238 0.139940 -1.519185
 12   -2.022474 -0.104699 -2.873818 0.216958 1.386296 -2.986428
 13   1.167898 -0.537463 0.063297 1.250782 -1.055329 -1.041168
 14   7.002743 -0.617765 -0.183752 -0.187990 -0.804388 -1.440463
 15   8.209042 0.615527 -0.255885 2.507992 -0.183462 -0.368829
 16   7.002735 -0.617911 -0.183641 -0.252389 -0.538018 -0.981649
 17   1.574674 0.609930 -0.000899 0.226627 0.005972 -0.025807
 18   -0.602177 0.511412 -0.000006 0.000000 0.000000 0.000000
 19   3.673773 0.177020 1.119313 -0.000002 -0.000014 -0.174510
 20   3.673767 0.176993 -1.117566 0.000007 -0.000003 -0.174546
 21   3.942357 1.334540 1.627658 0.000002 -0.000011 -0.000026
 22   -0.246060 -0.011889 0.516521 -0.000011 0.000031 0.000025
 23   3.942374 1.334565 -1.631083 0.000019 0.000002 -0.000024
 24   -0.246150 -0.011872 -0.516511 -0.000005 -0.000006 0.000048
 25   4.941364 1.997338 1.629330 0.000018 -0.000001 -0.000024
 26   4.941382 1.997366 -1.629410 -0.000001 0.000005 -0.000024
 27   2.914462 1.619264 1.514501 -0.000019 -0.000022 -0.000050
 28   2.916892 1.618870 -1.501142 -0.000002 -0.000009 -0.000024
 29   8.824059 0.150544 0.091743 0.000006 -0.000231 -0.174534
 30   2.111085 -0.561179 1.784320 -0.000008 -0.000682 0.000024
 31   2.121290 -0.561289 -1.853599 0.000000 0.000000 -0.000002
 32   -0.814395 -0.093824 3.127092 3.071685 -0.114787 1.239365
 33   14.298673 -0.408176 0.471578 0.000020 -0.000002 -1.896136
 34   15.835795 0.581398 0.242756 -0.214735 0.106913 -0.097869
 35   -0.815868 -0.091229 -3.114430 0.066464 3.132818 -1.010216
 36   14.294526 -0.410349 -0.467541 0.000009 -0.000036 -2.607695
 37   15.834409 0.579420 -0.284600 -0.006131 -0.035383 0.214508
 38   1.139685 -3.453749 -2.823813 0.000000 0.000000 0.000001
 39   -4.457742 -1.054854 -0.746180 0.000000 0.000000 0.000000
 40   1.118101 -3.449769 3.237290 0.000000 0.000001 0.000000
 41   -4.433840 -1.059130 0.959566 -0.000001 0.000000 0.000000
 42   -0.657468 1.697302 -2.688614 0.000000 0.000002 0.000000
 43   -0.664068 1.698578 2.869377 0.000000 0.000002 0.000000
time 18
  0   -0.967547 0.175787 -20.574476 0.000000 0.000000 -1.572114
  1   -1.093036 0.000002 -0.326057 -1.570756 -1.570425 -0.000171
  2   2.262337 0.113614 0.064702 -0.048582 0.004219 0.087794
  3   2.380047 0.353302 0.047440 -0.034412 0.005041 0.148185
  4   2.033756 0.190472 -0.000128 -0.048274 -0.006699 -0.139576
  5   2.451511 0.204909 -0.003447 0.000000 -0.000005 -0.017472
  6   7.247600 -0.397300 -0.109469 0.000001 0.000009 0.418441
  7   -2.022252 -0.104661 3.136172 -0.298783 -1.361862 -2.901749
  8   1.168026 -0.537438 -0.063437 -1.133372 1.004189 -1.021972
  9   6.790376 -0.619176 0.015206 -0.125542 0.165498 -2.158522
 10   8.637599 0.544015 -0.090417 -1.558488 0.073850 -0.433463
 11   6.790465 -0.619039 0.017802 -0.046238 0.139940 -1.519185
 12   -2.022474 -0.104699 -2.873818 0.260838 1.374019 -2.941238
 13   1.167898 -0.537463 0.063297 1.493234 -0.971979 -1.275982
 14   7.002743 -0.617765 -0.183752 -0.165900 -0.849192 -1.595078
 15   8.209042 0.615527 -0.255885 2.800780 -0.197610 -0.412308
 16   7.002735 -0.617911 -0.183641 -0.267312 -0.571005 -1.070233
 17   1.574674 0.609930 -0.000899 0.226627 0.005972 -0.025807
 18   -0.602177 0.511412 -0.000006 0.000000 0.000000 0.000000
 19   3.673773 0.177020 1.119313 -0.000002 -0.000014 -0.174510
 20   3.673767 0.176993 -1.117566 0.000007 -0.000003 -0.174546
 21   3.942357 1.334540 1.627658 0.000002 -0.000011 -0.000026
 22   -0.246060 -0.011889 0.516521 -0.000011 0.000031 0.000025
 23   3.942374 1.334565 -1.631083 0.000019 0.000002 -0.000024
 24   -0.246150 -0.011872 -0.516511 -0.000005 -0.000006 0.000048
 25   4.941364 1.997338 1.629330 0.000018 -0.000001 -0.000024
 26   4.941382 1.997366 -1.629410 -0.000001 0.000005 -0.000024
 27   2.914462 1.619264 1.514501 -0.000019 -0.000022 -0.000050
 28   2.916892 1.618870 -1.501142 -0.000002 -0.000009 -0.000024
 29   8.824059 0.150544 0.091743 0.000006 -0.000231 -0.174534
 30   2.111085 -0.561179 1.784320 -0.000008 -0.000682 0.000024
 31   2.121290 -0.561289 -1.853599 0.000000 0.000000 -0.000002
 32   -0.814395 -0.093824 3.127092 3.071685 -0.114787 1.239365
 33   14.298673 -0.408176 0.471578 0.000020 -0.000002 -1.896136
 34   15.835795 0.581398 0.242756 -0.214735 0.106913 -0.097869
 35   -0.815868 -0.091229 -3.114430 0.066464 3.132818 -1.010216
 36   14.294526 -0.410349 -0.467541 0.000009 -0.000036 -2.607695
 37   15.834409 0.579420 -0.284600 -0.006131 -0.035383 0.214508
 38   1.139685 -3.453749 -2.823813 0.000000 0.000000 0.000001
 39   -4.457742 -1.054854 -0.746180 0.000000 0.000000 0.000000
 40   1.118101 -3.449769 3.237290 0.000000 0.000001 0.000000
 41   -4.433840 -1.059130 0.959566 -0.000001 0.000000 0.000000
 42   -0.657468 1.697302 -2.688614 0.000000 0.000002 0.000000
 43   -0.664068 1.698578 2.869377 0.000000 0.000002 0.000000
time 19
  0   -0.967547 0.175787 -20.574476 0.000000 0.000000 -1.572114
  1   -1.093036 0.000002 -0.326057 -1.570756 -1.570425 -0.000171
  2   2.262337 0.113614 0.064702 -0.000052 0.000049 0.087866
  3   2.380047 0.353302 0.047440 0.000000 -0.000040 0.148287
  4   2.033756 0.190472 -0.000128 -0.000010 0.000024 -0.139576
  5   2.451511 0.204909 -0.003447 0.000000 -0.000005 -0.017472
  6   7.247600 -0.397300 -0.109469 0.000001 0.000009 0.418441
  7   -2.022252 -0.104661 3.136172 -0.298783 -1.361862 -2.901749
  8   1.168026 -0.537438 -0.063437 -1.133372 1.004189 -1.140522
  9   6.790376 -0.619176 0.015206 -0.125542 0.165498 -2.158522
 10   8.637599 0.544015 -0.090417 -1.558488 0.073850 -0.433463
 11   6.790465 -0.619039 0.017802 -0.046238 0.139940 -1.519185
 12   -2.022474 -0.104699 -2.873818 0.298873 1.361683 -2.901984
 13   1.167898 -0.537463 0.063297 1.672490 -0.864828 -1.446993
 14   7.002743 -0.617765 -0.183752 -0.131911 -0.891099 -1.759016
 15   8.209042 0.615527 -0.255885 3.094432 -0.198972 -0.458313
 16   7.002735 -0.617911 -0.183641 -0.279223 -0.604443 -1.160198
 17   1.574674 0.609930 -0.000899 0.226627 0.005972 -0.025807
 18   -0.602177 0.511412 -0.000006 0.000000 0.000000 0.000000
 19   3.673773 0.177020 1.119313 -0.000002 -0.000014 -0.174510
 20   3.673767 0.176993 -1.117566 0.000007 -0.000003 -0.174546
 21   3.942357 1.334540 1.627658 0.000002 -0.000011 -0.000026
 22   -0.246060 -0.011889 0.516521 -0.000011 0.000031 0.000025
 23   3.942374 1.334565 -1.631083 0.000019 0.000002 -0.000024
 24   -0.246150 -0.011872 -0.516511 -0.000005 -0.000006 0.000048
 25   4.941364 1.997338 1.629330 0.000018 -0.000001 -0.000024
 26   4.941382 1.997366 -1.629410 -0.000001 0.000005 -0.000024
 27   2.914462 1.619264 1.514501 -0.000019 -0.000022 -0.000050
 28   2.916892 1.618870 -1.501142 -0.000002 -0.000009 -0.000024
 29   8.824059 0.150544 0.091743 0.000006 -0.000231 -0.174534
 30   2.111085 -0.561179 1.784320 -0.000008 -0.000682 0.000024
 31   2.121290 -0.561289 -1.853599 0.000000 0.000000 -0.000002
 32   -0.814395 -0.093824 3.127092 3.071685 -0.114787 1.239365
 33   14.298673 -0.408176 0.471578 0.000020 -0.000002 -1.896136
 34   15.835795 0.581398 0.242756 -0.214735 0.106913 -0.097869
 35   -0.815868 -0.091229 -3.114430 0.066464 3.132818 -1.010216
 36   14.294526 -0.410349 -0.467541 0.000009 -0.000036 -2.607695
 37   15.834409 0.579420 -0.284600 -0.006131 -0.035383 0.214508
 38   1.139685 -3.453749 -2.823813 0.000000 0.000000 0.000001
 39   -4.457742 -1.054854 -0.746180 0.000000 0.000000 0.000000
 40   1.118101 -3.449769 3.237290 0.000000 0.000001 0.000000
 41   -4.433840 -1.059130 0.959566 -0.000001 0.000000 0.000000
 42   -0.657468 1.697302 -2.688614 0.000000 0.000002 0.000000
 43   -0.664068 1.698578 2.869377 0.000000 0.000002 0.000000
time 20
  0   -0.967547 0.175787 -20.574476 0.000000 0.000000 -1.572114
  1   -1.093036 0.000002 -0.326057 -1.570756 -1.570425 -0.000171
  2   2.262337 0.113614 0.064702 -0.000052 0.000049 0.087866
  3   2.380047 0.353302 0.047440 0.000000 -0.000040 0.148287
  4   2.033756 0.190472 -0.000128 -0.000010 0.000024 -0.139576
  5   2.451511 0.204909 -0.003447 0.000000 -0.000005 -0.017472
  6   7.247600 -0.397300 -0.109469 0.000001 0.000009 0.418441
  7   -2.022252 -0.104661 3.136172 -0.298783 -1.361862 -2.901749
  8   1.168026 -0.537438 -0.063437 -1.133372 1.004189 -1.140522
  9   6.790376 -0.619176 0.015206 -0.125542 0.165498 -2.083130
 10   8.637599 0.544015 -0.090417 -1.558488 0.073850 -0.212596
 11   6.790465 -0.619039 0.017802 -0.047932 0.138235 -1.466586
 12   -2.022474 -0.104699 -2.873818 0.298873 1.361683 -2.901984
 13   1.167898 -0.537463 0.063297 1.661875 -0.916801 -1.438639
 14   7.002743 -0.617765 -0.183752 -0.131911 -0.891099 -1.834921
 15   8.209042 0.615527 -0.255885 2.463628 -0.247545 -0.514121
 16   7.002735 -0.617911 -0.183641 -0.290050 -0.603992 -1.207719
 17   1.574674 0.609930 -0.000899 0.226627 0.005972 -0.025807
 18   -0.602177 0.511412 -0.000006 0.000000 0.000000 0.000000
 19   3.673773 0.177020 1.119313 -0.000002 -0.000014 -0.174510
 20   3.673767 0.176993 -1.117566 0.000007 -0.000003 -0.174546
 21   3.942357 1.334540 1.627658 0.000002 -0.000011 -0.000026
 22   -0.246060 -0.011889 0.516521 -0.000011 0.000031 0.000025
 23   3.942374 1.334565 -1.631083 0.000019 0.000002 -0.000024
 24   -0.246150 -0.011872 -0.516511 -0.000005 -0.000006 0.000048
 25   4.941364 1.997338 1.629330 0.000018 -0.000001 -0.000024
 26   4.941382 1.997366 -1.629410 -0.000001 0.000005 -0.000024
 27   2.914462 1.619264 1.514501 -0.000019 -0.000022 -0.000050
 28   2.916892 1.618870 -1.501142 -0.000002 -0.000009 -0.000024
 29   8.824059 0.150544 0.091743 0.000006 -0.000231 -0.174534
 30   2.111085 -0.561179 1.784320 -0.000008 -0.000682 0.000024
 31   2.121290 -0.561289 -1.853599 0.000000 0.000000 -0.000002
 32   -0.814395 -0.093824 3.127092 3.071685 -0.114787 1.239365
 33   14.298673 -0.408176 0.471578 0.000020 -0.000002 -1.896136
 34   15.835795 0.581398 0.242756 -0.214735 0.106913 -0.097869
 35   -0.815868 -0.091229 -3.114430 0.066464 3.132818 -1.010216
 36   14.294526 -0.410349 -0.467541 0.000009 -0.000036 -2.607695
 37   15.834409 0.579420 -0.284600 -0.006131 -0.035383 0.214508
 38   1.139685 -3.453749 -2.823813 0.000000 0.000000 0.000001
 39   -4.457742 -1.054854 -0.746180 0.000000 0.000000 0.000000
 40   1.118101 -3.449769 3.237290 0.000000 0.000001 0.000000
 41   -4.433840 -1.059130 0.959566 -0.000001 0.000000 0.000000
 42   -0.657468 1.697302 -2.688614 0.000000 0.000002 0.000000
 43   -0.664068 1.698578 2.869377 0.000000 0.000002 0.000000
time 21
  0   -0.967547 0.175787 -20.574476 0.000000 0.000000 -1.572114
  1   -1.093036 0.000002 -0.326057 -1.570756 -1.570425 -0.000171
  2   2.262337 0.113614 0.064702 -0.000052 0.000049 0.087866
  3   2.380047 0.353302 0.047440 0.000000 -0.000040 0.148287
  4   2.033756 0.190472 -0.000128 -0.000010 0.000024 -0.139576
  5   2.451511 0.204909 -0.003447 0.000000 -0.000005 -0.017472
  6   7.247600 -0.397300 -0.109469 0.000001 0.000009 0.418441
  7   -2.022252 -0.104661 3.136172 -0.298783 -1.361862 -2.901749
  8   1.168026 -0.537438 -0.063437 -1.133372 1.004189 -1.140522
  9   6.790376 -0.619176 0.015206 -0.125542 0.165498 -2.007285
 10   8.637599 0.544015 -0.090417 -1.558488 0.073850 0.007982
 11   6.790465 -0.619039 0.017802 -0.049654 0.136558 -1.413698
 12   -2.022474 -0.104699 -2.873818 0.298873 1.361683 -2.901984
 13   1.167898 -0.537463 0.063297 1.649854 -0.968724 -1.428772
 14   7.002743 -0.617765 -0.183752 -0.131911 -0.891099 -1.910331
 15   8.209042 0.615527 -0.255885 1.824914 -0.318817 -0.529817
 16   7.002735 -0.617911 -0.183641 -0.301019 -0.603654 -1.254964
 17   1.574674 0.609930 -0.000899 0.226627 0.005972 -0.025807
 18   -0.602177 0.511412 -0.000006 0.000000 0.000000 0.000000
 19   3.673773 0.177020 1.119313 -0.000002 -0.000014 -0.174510
 20   3.673767 0.176993 -1.117566 0.000007 -0.000003 -0.174546
 21   3.942357 1.334540 1.627658 0.000002 -0.000011 -0.000026
 22   -0.246060 -0.011889 0.516521 -0.000011 0.000031 0.000025
 23   3.942374 1.334565 -1.631083 0.000019 0.000002 -0.000024
 24   -0.246150 -0.011872 -0.516511 -0.000005 -0.000006 0.000048
 25   4.941364 1.997338 1.629330 0.000018 -0.000001 -0.000024
 26   4.941382 1.997366 -1.629410 -0.000001 0.000005 -0.000024
 27   2.914462 1.619264 1.514501 -0.000019 -0.000022 -0.000050
 28   2.916892 1.618870 -1.501142 -0.000002 -0.000009 -0.000024
 29   8.824059 0.150544 0.091743 0.000006 -0.000231 -0.174534
 30   2.111085 -0.561179 1.784320 -0.000008 -0.000682 0.000024
 31   2.121290 -0.561289 -1.853599 0.000000 0.000000 -0.000002
 32   -0.814395 -0.093824 3.127092 3.071685 -0.114787 1.239365
 33   14.298673 -0.408176 0.471578 0.000020 -0.000002 -1.896136
 34   15.835795 0.581398 0.242756 -0.214735 0.106913 -0.097869
 35   -0.815868 -0.091229 -3.114430 0.066464 3.132818 -1.010216
 36   14.294526 -0.410349 -0.467541 0.000009 -0.000036 -2.607695
 37   15.834409 0.579420 -0.284600 -0.006131 -0.035383 0.214508
 38   1.139685 -3.453749 -2.823813 0.000000 0.000000 0.000001
 39   -4.457742 -1.054854 -0.746180 0.000000 0.000000 0.000000
 40   1.118101 -3.449769 3.237290 0.000000 0.000001 0.000000
 41   -4.433840 -1.059130 0.959566 -0.000001 0.000000 0.000000
 42   -0.657468 1.697302 -2.688614 0.000000 0.000002 0.000000
 43   -0.664068 1.698578 2.869377 0.000000 0.000002 0.000000
time 22
  0   -0.967547 0.175787 -20.574476 0.000000 0.000000 -1.572114
  1   -1.093036 0.000002 -0.326057 -1.570756 -1.570425 -0.000171
  2   2.262337 0.113614 0.064702 -0.000052 0.000049 0.087866
  3   2.380047 0.353302 0.047440 0.000000 -0.000040 0.148287
  4   2.033756 0.190472 -0.000128 -0.000010 0.000024 -0.139576
  5   2.451511 0.204909 -0.003447 0.000000 -0.000005 -0.017472
  6   7.247600 -0.397300 -0.109469 0.000001 0.000009 0.418441
  7   -2.022252 -0.104661 3.136172 -0.298783 -1.361862 -2.901749
  8   1.168026 -0.537438 -0.063437 -1.133372 1.004189 -1.140522
  9   6.790376 -0.619176 0.015206 -0.125542 0.165498 -1.931667
 10   8.637599 0.544015 -0.090417 -1.558488 0.073850 0.229066
 11   6.790465 -0.619039 0.017802 -0.051319 0.134938 -1.360925
 12   -2.022474 -0.104699 -2.873818 0.298873 1.361683 -2.901984
 13   1.167898 -0.537463 0.063297 1.635514 -1.020341 -1.416907
 14   7.002743 -0.617765 -0.183752 -0.131911 -0.891099 -1.986236
 15   8.209042 0.615527 -0.255885 1.170814 -0.384943 -0.496861
 16   7.002735 -0.617911 -0.183641 -0.312270 -0.603259 -1.302319
 17   1.574674 0.609930 -0.000899 0.226627 0.005972 -0.025807
 18   -0.602177 0.511412 -0.000006 0.000000 0.000000 0.000000
 19   3.673773 0.177020 1.119313 -0.000002 -0.000014 -0.174510
 20   3.673767 0.176993 -1.117566 0.000007 -0.000003 -0.174546
 21   3.942357 1.334540 1.627658 0.000002 -0.000011 -0.000026
 22   -0.246060 -0.011889 0.516521 -0.000011 0.000031 0.000025
 23   3.942374 1.334565 -1.631083 0.000019 0.000002 -0.000024
 24   -0.246150 -0.011872 -0.516511 -0.000005 -0.000006 0.000048
 25   4.941364 1.997338 1.629330 0.000018 -0.000001 -0.000024
 26   4.941382 1.997366 -1.629410 -0.000001 0.000005 -0.000024
 27   2.914462 1.619264 1.514501 -0.000019 -0.000022 -0.000050
 28   2.916892 1.618870 -1.501142 -0.000002 -0.000009 -0.000024
 29   8.824059 0.150544 0.091743 0.000006 -0.000231 -0.174534
 30   2.111085 -0.561179 1.784320 -0.000008 -0.000682 0.000024
 31   2.121290 -0.561289 -1.853599 0.000000 0.000000 -0.000002
 32   -0.814395 -0.093824 3.127092 3.071685 -0.114787 1.239365
 33   14.298673 -0.408176 0.471578 0.000020 -0.000002 -1.896136
 34   15.835795 0.581398 0.242756 -0.214735 0.106913 -0.097869
 35   -0.815868 -0.091229 -3.114430 0.066464 3.132818 -1.010216
 36   14.294526 -0.410349 -0.467541 0.000009 -0.000036 -2.607695
 37   15.834409 0.579420 -0.284600 -0.006131 -0.035383 0.214508
 38   1.139685 -3.453749 -2.823813 0.000000 0.000000 0.000001
 39   -4.457742 -1.054854 -0.746180 0.000000 0.000000 0.000000
 40   1.118101 -3.449769 3.237290 0.000000 0.000001 0.000000
 41   -4.433840 -1.059130 0.959566 -0.000001 0.000000 0.000000
 42   -0.657468 1.697302 -2.688614 0.000000 0.000002 0.000000
 43   -0.664068 1.698578 2.869377 0.000000 0.000002 0.000000
time 23
  0   -0.967547 0.175787 -20.574476 0.000000 0.000000 -1.572114
  1   -1.093036 0.000002 -0.326057 -1.570756 -1.570425 -0.000171
  2   2.262337 0.113614 0.064702 -0.000052 0.000049 0.087866
  3   2.380047 0.353302 0.047440 0.000000 -0.000040 0.148287
  4   2.033756 0.190472 -0.000128 -0.000010 0.000024 -0.139576
  5   2.451511 0.204909 -0.003447 0.000000 -0.000005 -0.017472
  6   7.247600 -0.397300 -0.109469 0.000001 0.000009 0.418441
  7   -2.022252 -0.104661 3.136172 -0.298783 -1.361862 -2.901749
  8   1.168026 -0.537438 -0.063437 -1.133372 1.004189 -1.140522
  9   6.790376 -0.619176 0.015206 -0.125542 0.165498 -1.931667
 10   8.637599 0.544015 -0.090417 -1.558488 0.073850 0.229066
 11   6.790465 -0.619039 0.017802 -0.051319 0.134938 -1.360925
 12   -2.022474 -0.104699 -2.873818 0.298873 1.361683 -2.901984
 13   1.167898 -0.537463 0.063297 1.618783 -1.072010 -1.402500
 14   7.002743 -0.617765 -0.183752 -0.131911 -0.891099 -2.061646
 15   8.209042 0.615527 -0.255885 1.170814 -0.384943 -0.496861
 16   7.002735 -0.617911 -0.183641 -0.323663 -0.602865 -1.349454
 17   1.574674 0.609930 -0.000899 0.226627 0.005972 -0.025807
 18   -0.602177 0.511412 -0.000006 0.000000 0.000000 0.000000
 19   3.673773 0.177020 1.119313 -0.000002 -0.000014 -0.174510
 20   3.673767 0.176993 -1.117566 0.000007 -0.000003 -0.174546
 21   3.942357 1.334540 1.627658 0.000002 -0.000011 -0.000026
 22   -0.246060 -0.011889 0.516521 -0.000011 0.000031 0.000025
 23   3.942374 1.334565 -1.631083 0.000019 0.000002 -0.000024
 24   -0.246150 -0.011872 -0.516511 -0.000005 -0.000006 0.000048
 25   4.941364 1.997338 1.629330 0.000018 -0.000001 -0.000024
 26   4.941382 1.997366 -1.629410 -0.000001 0.000005 -0.000024
 27   2.914462 1.619264 1.514501 -0.000019 -0.000022 -0.000050
 28   2.916892 1.618870 -1.501142 -0.000002 -0.000009 -0.000024
 29   8.824059 0.150544 0.091743 0.000006 -0.000231 -0.174534
 30   2.111085 -0.561179 1.784320 -0.000008 -0.000682 0.000024
 31   2.121290 -0.561289 -1.853599 0.000000 0.000000 -0.000002
 32   -0.814395 -0.093824 3.127092 3.071685 -0.114787 1.239365
 33   14.298673 -0.408176 0.471578 0.000020 -0.000002 -1.896136
 34   15.835795 0.581398 0.242756 -0.214735 0.106913 -0.097869
 35   -0.815868 -0.091229 -3.114430 0.066464 3.132818 -1.010216
 36   14.294526 -0.410349 -0.467541 0.000009 -0.000036 -2.607695
 37   15.834409 0.579420 -0.284600 -0.006131 -0.035383 0.214508
 38   1.139685 -3.453749 -2.823813 0.000000 0.000000 0.000001
 39   -4.457742 -1.054854 -0.746180 0.000000 0.000000 0.000000
 40   1.118101 -3.449769 3.237290 0.000000 0.000001 0.000000
 41   -4.433840 -1.059130 0.959566 -0.000001 0.000000 0.000000
 42   -0.657468 1.697302 -2.688614 0.000000 0.000002 0.000000
 43   -0.664068 1.698578 2.869377 0.000000 0.000002 0.000000
time 24
  0   -0.967547 0.175787 -20.574476 0.000000 0.000000 -1.572114
  1   -1.093036 0.000002 -0.326057 -1.570756 -1.570425 -0.000171
  2   2.262337 0.113614 0.064702 -0.000052 0.000049 0.087866
  3   2.380047 0.353302 0.047440 0.000000 -0.000040 0.148287
  4   2.033756 0.190472 -0.000128 -0.000010 0.000024 -0.139576
  5   2.451511 0.204909 -0.003447 0.000000 -0.000005 -0.017472
  6   7.247600 -0.397300 -0.109469 0.000001 0.000009 0.418441
  7   -2.022252 -0.104661 3.136172 -0.298783 -1.361862 -2.901749
  8   1.168026 -0.537438 -0.063437 -1.133372 1.004189 -1.140522
  9   6.790376 -0.619176 0.015206 -0.125542 0.165498 -1.931667
 10   8.637599 0.544015 -0.090417 -1.558488 0.073850 0.229066
 11   6.790465 -0.619039 0.017802 -0.051319 0.134938 -1.360925
 12   -2.022474 -0.104699 -2.873818 0.298873 1.361683 -2.901984
 13   1.167898 -0.537463 0.063297 1.598538 -1.123576 -1.384400
 14   7.002743 -0.617765 -0.183752 -0.131911 -0.891099 -2.137468
 15   8.209042 0.615527 -0.255885 1.170814 -0.384943 -0.496861
 16   7.002735 -0.617911 -0.183641 -0.335337 -0.602639 -1.396588
 17   1.574674 0.609930 -0.000899 0.226627 0.005972 -0.025807
 18   -0.602177 0.511412 -0.000006 0.000000 0.000000 0.000000
 19   3.673773 0.177020 1.119313 -0.000002 -0.000014 -0.174510
 20   3.673767 0.176993 -1.117566 0.000007 -0.000003 -0.174546
 21   3.942357 1.334540 1.627658 0.000002 -0.000011 -0.000026
 22   -0.246060 -0.011889 0.516521 -0.000011 0.000031 0.000025
 23   3.942374 1.334565 -1.631083 0.000019 0.000002 -0.000024
 24   -0.246150 -0.011872 -0.516511 -0.000005 -0.000006 0.000048
 25   4.941364 1.997338 1.629330 0.000018 -0.000001 -0.000024
 26   4.941382 1.997366 -1.629410 -0.000001 0.000005 -0.000024
 27   2.914462 1.619264 1.514501 -0.000019 -0.000022 -0.000050
 28   2.916892 1.618870 -1.501142 -0.000002 -0.000009 -0.000024
 29   8.824059 0.150544 0.091743 0.000006 -0.000231 -0.174534
 30   2.111085 -0.561179 1.784320 -0.000008 -0.000682 0.000024
 31   2.121290 -0.561289 -1.853599 0.000000 0.000000 -0.000002
 32   -0.814395 -0.093824 3.127092 3.071685 -0.114787 1.239365
 33   14.298673 -0.408176 0.471578 0.000020 -0.000002 -1.896136
 34   15.835795 0.581398 0.242756 -0.214735 0.106913 -0.097869
 35   -0.815868 -0.091229 -3.114430 0.066464 3.132818 -1.010216
 36   14.294526 -0.410349 -0.467541 0.000009 -0.000036 -2.607695
 37   15.834409 0.579420 -0.284600 -0.006131 -0.035383 0.214508
 38   1.139685 -3.453749 -2.823813 0.000000 0.000000 0.000001
 39   -4.457742 -1.054854 -0.746180 0.000000 0.000000 0.000000
 40   1.118101 -3.449769 3.237290 0.000000 0.000001 0.000000
 41   -4.433840 -1.059130 0.959566 -0.000001 0.000000 0.000000
 42   -0.657468 1.697302 -2.688614 0.000000 0.000002 0.000000
 43   -0.664068 1.698578 2.869377 0.000000 0.000002 0.000000
time 25
  0   -0.967547 0.175787 -20.574476 0.000000 0.000000 -1.572114
  1   -1.093036 0.000002 -0.326057 -1.570756 -1.570425 -0.000171
  2   2.262337 0.113614 0.064702 -0.000052 0.000049 0.087866
  3   2.380047 0.353302 0.047440 0.000000 -0.000040 0.148287
  4   2.033756 0.190472 -0.000128 -0.000010 0.000024 -0.139576
  5   2.451511 0.204909 -0.003447 0.000000 -0.000005 -0.017472
  6   7.247600 -0.397300 -0.109469 0.000001 0.000009 0.418441
  7   -2.022252 -0.104661 3.136172 -0.298783 -1.361862 -2.901749
  8   1.168026 -0.537438 -0.063437 -1.133372 1.004189 -1.140522
  9   6.790376 -0.619176 0.015206 -0.125542 0.165498 -1.931667
 10   8.637599 0.544015 -0.090417 -1.558488 0.073850 0.229066
 11   6.790465 -0.619039 0.017802 -0.051319 0.134938 -1.360925
 12   -2.022474 -0.104699 -2.873818 0.298873 1.361683 -2.901984
 13   1.167898 -0.537463 0.063297 1.573512 -1.175092 -1.361397
 14   7.002743 -0.617765 -0.183752 -0.131911 -0.891155 -2.212878
 15   8.209042 0.615527 -0.255885 1.170814 -0.384943 -0.496861
 16   7.002735 -0.617911 -0.183641 -0.347153 -0.602357 -1.443502
 17   1.574674 0.609930 -0.000899 0.226627 0.005972 -0.025807
 18   -0.602177 0.511412 -0.000006 0.000000 0.000000 0.000000
 19   3.673773 0.177020 1.119313 -0.000002 -0.000014 -0.174510
 20   3.673767 0.176993 -1.117566 0.000007 -0.000003 -0.174546
 21   3.942357 1.334540 1.627658 0.000002 -0.000011 -0.000026
 22   -0.246060 -0.011889 0.516521 -0.000011 0.000031 0.000025
 23   3.942374 1.334565 -1.631083 0.000019 0.000002 -0.000024
 24   -0.246150 -0.011872 -0.516511 -0.000005 -0.000006 0.000048
 25   4.941364 1.997338 1.629330 0.000018 -0.000001 -0.000024
 26   4.941382 1.997366 -1.629410 -0.000001 0.000005 -0.000024
 27   2.914462 1.619264 1.514501 -0.000019 -0.000022 -0.000050
 28   2.916892 1.618870 -1.501142 -0.000002 -0.000009 -0.000024
 29   8.824059 0.150544 0.091743 0.000006 -0.000231 -0.174534
 30   2.111085 -0.561179 1.784320 -0.000008 -0.000682 0.000024
 31   2.121290 -0.561289 -1.853599 0.000000 0.000000 -0.000002
 32   -0.814395 -0.093824 3.127092 3.071685 -0.114787 1.239365
 33   14.298673 -0.408176 0.471578 0.000020 -0.000002 -1.896136
 34   15.835795 0.581398 0.242756 -0.214735 0.106913 -0.097869
 35   -0.815868 -0.091229 -3.114430 0.066464 3.132818 -1.010216
 36   14.294526 -0.410349 -0.467541 0.000009 -0.000036 -2.607695
 37   15.834409 0.579420 -0.284600 -0.006131 -0.035383 0.214508
 38   1.139685 -3.453749 -2.823813 0.000000 0.000000 0.000001
 39   -4.457742 -1.054854 -0.746180 0.000000 0.000000 0.000000
 40   1.118101 -3.449769 3.237290 0.000000 0.000001 0.000000
 41   -4.433840 -1.059130 0.959566 -0.000001 0.000000 0.000000
 42   -0.657468 1.697302 -2.688614 0.000000 0.000002 0.000000
 43   -0.664068 1.698578 2.869377 0.000000 0.000002 0.000000
time 26
  0   -0.967547 0.175787 -20.574476 0.000000 0.000000 -1.572114
  1   -1.093036 0.000002 -0.326057 -1.570756 -1.570425 -0.000171
  2   2.262337 0.113614 0.064702 -0.000052 0.000049 0.087866
  3   2.380047 0.353302 0.047440 0.000000 -0.000040 0.148287
  4   2.033756 0.190472 -0.000128 -0.000010 0.000024 -0.139576
  5   2.451511 0.204909 -0.003447 0.000000 -0.000005 -0.017472
  6   7.247600 -0.397300 -0.109469 0.000001 0.000009 0.418441
  7   -2.022252 -0.104661 3.136172 -0.298783 -1.361862 -2.901749
  8   1.168026 -0.537438 -0.063437 -1.133372 1.004189 -1.140522
  9   6.790376 -0.619176 0.015206 -0.125542 0.165498 -1.931667
 10   8.637599 0.544015 -0.090417 -1.558488 0.073850 0.229066
 11   6.790465 -0.619039 0.017802 -0.051319 0.134938 -1.360925
 12   -2.022474 -0.104699 -2.873818 0.298873 1.361683 -2.901984
 13   1.167898 -0.537463 0.063297 1.592914 -1.136391 -1.379194
 14   7.002743 -0.617765 -0.183752 -0.131911 -0.891099 -2.156362
 15   8.209042 0.615527 -0.255885 1.170814 -0.384943 -0.496861
 16   7.002735 -0.617911 -0.183641 -0.338256 -0.602526 -1.408289
 17   1.574674 0.609930 -0.000899 0.226627 0.005972 -0.025807
 18   -0.602177 0.511412 -0.000006 0.000000 0.000000 0.000000
 19   3.673773 0.177020 1.119313 -0.000002 -0.000014 -0.174510
 20   3.673767 0.176993 -1.117566 0.000007 -0.000003 -0.174546
 21   3.942357 1.334540 1.627658 0.000002 -0.000011 -0.000026
 22   -0.246060 -0.011889 0.516521 -0.000011 0.000031 0.000025
 23   3.942374 1.334565 -1.631083 0.000019 0.000002 -0.000024
 24   -0.246150 -0.011872 -0.516511 -0.000005 -0.000006 0.000048
 25   4.941364 1.997338 1.629330 0.000018 -0.000001 -0.000024
 26   4.941382 1.997366 -1.629410 -0.000001 0.000005 -0.000024
 27   2.914462 1.619264 1.514501 -0.000019 -0.000022 -0.000050
 28   2.916892 1.618870 -1.501142 -0.000002 -0.000009 -0.000024
 29   8.824059 0.150544 0.091743 0.000006 -0.000231 -0.174534
 30   2.111085 -0.561179 1.784320 -0.000008 -0.000682 0.000024
 31   2.121290 -0.561289 -1.853599 0.000000 0.000000 -0.000002
 32   -0.814395 -0.093824 3.127092 3.071685 -0.114787 1.239365
 33   14.298673 -0.408176 0.471578 0.000020 -0.000002 -1.896136
 34   15.835795 0.581398 0.242756 -0.214735 0.106913 -0.097869
 35   -0.815868 -0.091229 -3.114430 0.066464 3.132818 -1.010216
 36   14.294526 -0.410349 -0.467541 0.000009 -0.000036 -2.607695
 37   15.834409 0.579420 -0.284600 -0.006131 -0.035383 0.214508
 38   1.139685 -3.453749 -2.823813 0.000000 0.000000 0.000001
 39   -4.457742 -1.054854 -0.746180 0.000000 0.000000 0.000000
 40   1.118101 -3.449769 3.237290 0.000000 0.000001 0.000000
 41   -4.433840 -1.059130 0.959566 -0.000001 0.000000 0.000000
 42   -0.657468 1.697302 -2.688614 0.000000 0.000002 0.000000
 43   -0.664068 1.698578 2.869377 0.000000 0.000002 0.000000
time 27
  0   -0.967547 0.175787 -20.574476 0.000000 0.000000 -1.572114
  1   -1.093036 0.000002 -0.326057 -1.570756 -1.570425 -0.000171
  2   2.262337 0.113614 0.064702 -0.000052 0.000049 0.087866
  3   2.380047 0.353302 0.047440 0.000000 -0.000040 0.148287
  4   2.033756 0.190472 -0.000128 -0.000010 0.000024 -0.139576
  5   2.451511 0.204909 -0.003447 0.000000 -0.000005 -0.017472
  6   7.247600 -0.397300 -0.109469 0.000001 0.000009 0.418441
  7   -2.022252 -0.104661 3.136172 -0.298783 -1.361862 -2.901749
  8   1.168026 -0.537438 -0.063437 -1.133372 1.004189 -1.140522
  9   6.790376 -0.619176 0.015206 -0.125542 0.165498 -1.931667
 10   8.637599 0.544015 -0.090417 -1.558488 0.073850 0.229066
 11   6.790465 -0.619039 0.017802 -0.051319 0.134938 -1.360925
 12   -2.022474 -0.104699 -2.873818 0.298873 1.361683 -2.901984
 13   1.167898 -0.537463 0.063297 1.609364 -1.097844 -1.394025
 14   7.002743 -0.617765 -0.183752 -0.131911 -0.891099 -2.099268
 15   8.209042 0.615527 -0.255885 1.170814 -0.384943 -0.496861
 16   7.002735 -0.617911 -0.183641 -0.329453 -0.602752 -1.372966
 17   1.574674 0.609930 -0.000899 0.226627 0.005972 -0.025807
 18   -0.602177 0.511412 -0.000006 0.000000 0.000000 0.000000
 19   3.673773 0.177020 1.119313 -0.000002 -0.000014 -0.174510
 20   3.673767 0.176993 -1.117566 0.000007 -0.000003 -0.174546
 21   3.942357 1.334540 1.627658 0.000002 -0.000011 -0.000026
 22   -0.246060 -0.011889 0.516521 -0.000011 0.000031 0.000025
 23   3.942374 1.334565 -1.631083 0.000019 0.000002 -0.000024
 24   -0.246150 -0.011872 -0.516511 -0.000005 -0.000006 0.000048
 25   4.941364 1.997338 1.629330 0.000018 -0.000001 -0.000024
 26   4.941382 1.997366 -1.629410 -0.000001 0.000005 -0.000024
 27   2.914462 1.619264 1.514501 -0.000019 -0.000022 -0.000050
 28   2.916892 1.618870 -1.501142 -0.000002 -0.000009 -0.000024
 29   8.824059 0.150544 0.091743 0.000006 -0.000231 -0.174534
 30   2.111085 -0.561179 1.784320 -0.000008 -0.000682 0.000024
 31   2.121290 -0.561289 -1.853599 0.000000 0.000000 -0.000002
 32   -0.814395 -0.093824 3.127092 3.071685 -0.114787 1.239365
 33   14.298673 -0.408176 0.471578 0.000020 -0.000002 -1.896136
 34   15.835795 0.581398 0.242756 -0.214735 0.106913 -0.097869
 35   -0.815868 -0.091229 -3.114430 0.066464 3.132818 -1.010216
 36   14.294526 -0.410349 -0.467541 0.000009 -0.000036 -2.607695
 37   15.834409 0.579420 -0.284600 -0.006131 -0.035383 0.214508
 38   1.139685 -3.453749 -2.823813 0.000000 0.000000 0.000001
 39   -4.457742 -1.054854 -0.746180 0.000000 0.000000 0.000000
 40   1.118101 -3.449769 3.237290 0.000000 0.000001 0.000000
 41   -4.433840 -1.059130 0.959566 -0.000001 0.000000 0.000000
 42   -0.657468 1.697302 -2.688614 0.000000 0.000002 0.000000
 43   -0.664068 1.698578 2.869377 0.000000 0.000002 0.000000
time 28
  0   -0.967547 0.175787 -20.574476 0.000000 0.000000 -1.572114
  1   -1.093036 0.000002 -0.326057 -1.570756 -1.570425 -0.000171
  2   2.262337 0.113614 0.064702 -0.000052 0.000049 0.087866
  3   2.380047 0.353302 0.047440 0.000000 -0.000040 0.148287
  4   2.033756 0.190472 -0.000128 -0.000010 0.000024 -0.139576
  5   2.451511 0.204909 -0.003447 0.000000 -0.000005 -0.017472
  6   7.247600 -0.397300 -0.109469 0.000001 0.000009 0.418441
  7   -2.022252 -0.104661 3.136172 -0.298783 -1.361862 -2.901749
  8   1.168026 -0.537438 -0.063437 -1.133372 1.004189 -1.140522
  9   6.790376 -0.619176 0.015206 -0.125542 0.165498 -1.931667
 10   8.637599 0.544015 -0.090417 -1.558488 0.073850 0.229066
 11   6.790465 -0.619039 0.017802 -0.051319 0.134938 -1.360925
 12   -2.022474 -0.104699 -2.873818 0.298873 1.361683 -2.901984
 13   1.167898 -0.537463 0.063297 1.623353 -1.059194 -1.406495
 14   7.002743 -0.617765 -0.183752 -0.131911 -0.891099 -2.042752
 15   8.209042 0.615527 -0.255885 1.170814 -0.384943 -0.496861
 16   7.002735 -0.617911 -0.183641 -0.320791 -0.602977 -1.337698
 17   1.574674 0.609930 -0.000899 0.226627 0.005972 -0.025807
 18   -0.602177 0.511412 -0.000006 0.000000 0.000000 0.000000
 19   3.673773 0.177020 1.119313 -0.000002 -0.000014 -0.174510
 20   3.673767 0.176993 -1.117566 0.000007 -0.000003 -0.174546
 21   3.942357 1.334540 1.627658 0.000002 -0.000011 -0.000026
 22   -0.246060 -0.011889 0.516521 -0.000011 0.000031 0.000025
 23   3.942374 1.334565 -1.631083 0.000019 0.000002 -0.000024
 24   -0.246150 -0.011872 -0.516511 -0.000005 -0.000006 0.000048
 25   4.941364 1.997338 1.629330 0.000018 -0.000001 -0.000024
 26   4.941382 1.997366 -1.629410 -0.000001 0.000005 -0.000024
 27   2.914462 1.619264 1.514501 -0.000019 -0.000022 -0.000050
 28   2.916892 1.618870 -1.501142 -0.000002 -0.000009 -0.000024
 29   8.824059 0.150544 0.091743 0.000006 -0.000231 -0.174534
 30   2.111085 -0.561179 1.784320 -0.000008 -0.000682 0.000024
 31   2.121290 -0.561289 -1.853599 0.000000 0.000000 -0.000002
 32   -0.814395 -0.093824 3.127092 3.071685 -0.114787 1.239365
 33   14.298673 -0.408176 0.471578 0.000020 -0.000002 -1.896136
 34   15.835795 0.581398 0.242756 -0.214735 0.106913 -0.097869
 35   -0.815868 -0.091229 -3.114430 0.066464 3.132818 -1.010216
 36   14.294526 -0.410349 -0.467541 0.000009 -0.000036 -2.607695
 37   15.834409 0.579420 -0.284600 -0.006131 -0.035383 0.214508
 38   1.139685 -3.453749 -2.823813 0.000000 0.000000 0.000001
 39   -4.457742 -1.054854 -0.746180 0.000000 0.000000 0.000000
 40   1.118101 -3.449769 3.237290 0.000000 0.000001 0.000000
 41   -4.433840 -1.059130 0.959566 -0.000001 0.000000 0.000000
 42   -0.657468 1.697302 -2.688614 0.000000 0.000002 0.000000
 43   -0.664068 1.698578 2.869377 0.000000 0.000002 0.000000
time 29
  0   -0.967547 0.175787 -20.574476 0.000000 0.000000 -1.572114
  1   -1.093036 0.000002 -0.326057 -1.570756 -1.570425 -0.000171
  2   2.262337 0.113614 0.064702 -0.000052 0.000049 0.087866
  3   2.380047 0.353302 0.047440 0.000000 -0.000040 0.148287
  4   2.033756 0.190472 -0.000128 -0.000010 0.000024 -0.139576
  5   2.451511 0.204909 -0.003447 0.000000 -0.000005 -0.017472
  6   7.247600 -0.397300 -0.109469 0.000001 0.000009 0.418441
  7   -2.022252 -0.104661 3.136172 -0.298783 -1.361862 -2.901749
  8   1.168026 -0.537438 -0.063437 -1.133372 1.004189 -1.140522
  9   6.790376 -0.619176 0.015206 -0.125542 0.165498 -2.158522
 10   8.637599 0.544015 -0.090417 -1.558488 0.073850 -0.433463
 11   6.790465 -0.619039 0.017802 -0.046238 0.139940 -1.519185
 12   -2.022474 -0.104699 -2.873818 0.298873 1.361683 -2.901984
 13   1.167898 -0.537463 0.063297 1.672490 -0.864828 -1.446993
 14   7.002743 -0.617765 -0.183752 -0.131911 -0.891099 -1.759016
 15   8.209042 0.615527 -0.255885 3.094432 -0.198972 -0.458313
 16   7.002735 -0.617911 -0.183641 -0.279223 -0.604443 -1.160198
 17   1.574674 0.609930 -0.000899 0.226627 0.005972 -0.025807
 18   -0.602177 0.511412 -0.000006 0.000000 0.000000 0.000000
 19   3.673773 0.177020 1.119313 -0.000002 -0.000014 -0.174510
 20   3.673767 0.176993 -1.117566 0.000007 -0.000003 -0.174546
 21   3.942357 1.334540 1.627658 0.000002 -0.000011 -0.000026
 22   -0.246060 -0.011889 0.516521 -0.000011 0.000031 0.000025
 23   3.942374 1.334565 -1.631083 0.000019 0.000002 -0.000024
 24   -0.246150 -0.011872 -0.516511 -0.000005 -0.000006 0.000048
 25   4.941364 1.997338 1.629330 0.000018 -0.000001 -0.000024
 26   4.941382 1.997366 -1.629410 -0.000001 0.000005 -0.000024
 27   2.914462 1.619264 1.514501 -0.000019 -0.000022 -0.000050
 28   2.916892 1.618870 -1.501142 -0.000002 -0.000009 -0.000024
 29   8.824059 0.150544 0.091743 0.000006 -0.000231 -0.174534
 30   2.111085 -0.561179 1.784320 -0.000008 -0.000682 0.000024
 31   2.121290 -0.561289 -1.853599 0.000000 0.000000 -0.000002
 32   -0.814395 -0.093824 3.127092 3.071685 -0.114787 1.239365
 33   14.298673 -0.408176 0.471578 0.000020 -0.000002 -1.896136
 34   15.835795 0.581398 0.242756 -0.214735 0.106913 -0.097869
 35   -0.815868 -0.091229 -3.114430 0.066464 3.132818 -1.010216
 36   14.294526 -0.410349 -0.467541 0.000009 -0.000036 -2.607695
 37   15.834409 0.579420 -0.284600 -0.006131 -0.035383 0.214508
 38   1.139685 -3.453749 -2.823813 0.000000 0.000000 0.000001
 39   -4.457742 -1.054854 -0.746180 0.000000 0.000000 0.000000
 40   1.118101 -3.449769 3.237290 0.000000 0.000001 0.000000
 41   -4.433840 -1.059130 0.959566 -0.000001 0.000000 0.000000
 42   -0.657468 1.697302 -2.688614 0.000000 0.000002 0.000000
 43   -0.664068 1.698578 2.869377 0.000000 0.000002 0.000000
end
