version 1
nodes
  0 "Bip01" -1
  1 "Bip01 Pelvis" 0
  2 "Bip01 Spine" 1
  3 "Bip01 Spine1" 2
  4 "Bip01 Spine2" 3
  5 "Bip01 Spine3" 4
  6 "Bip01 Neck" 5
  7 "Bip01 L Arm" 6
  8 "Bip01 L Arm1" 7
  9 "Bip01 L Arm2" 8
 10 "Bip01 L Hand" 9
 11 "Bip06 L elbow2-smooth" 8
 12 "Bip01 R Arm" 6
 13 "Bip01 R Arm1" 12
 14 "Bip01 R Arm2" 13
 15 "Bip01 R Hand" 14
 16 "Bip06 R elbow2-smooth" 13
 17 "Bip01 Head" 6
 18 "Bip06 Head_helper" 17
 19 "Bip06 Head_eyes_l" 18
 20 "Bip06 Head_eyes_r" 18
 21 "Bip06 Head_blink_l" 18
 22 "Bip06 Head_blink_smooth_l1" 21
 23 "Bip06 Head_blink_r" 18
 24 "Bip06 Head_blink_smooth_r1" 23
 25 "Bip06 Head_L_eyebrow" 18
 26 "Bip06 Head_R_eyebrow" 18
 27 "Bip06 Head_blink_l_lid" 18
 28 "Bip06 Head_blink_r_lid" 18
 29 "Bip06 bunny" 18
 30 "Bip06 bunnyL" 29
 31 "Bip06 bunnyR" 29
 32 "Bip01 L Leg" 1
 33 "Bip01 L Leg1" 32
 34 "Bip01 L Foot" 33
 35 "Bip01 R Leg" 1
 36 "Bip01 R Leg1" 35
 37 "Bip01 R Foot" 36
 38 "Bip03 HairR1" 17
 39 "Bip03 HairR2" 38
 40 "Bip03 HairL1" 17
 41 "Bip03 HairL2" 40
 42 "Bip03 swingR" 17
 43 "Bip03 swingL" 17
end
skeleton
time 0
  0   -0.967547 0.175787 -20.574476 0.000000 0.000000 -1.572114
  1   -1.093036 0.000002 -0.326057 -1.570756 -1.570425 -0.000171
  2   2.262337 0.113614 0.064702 -0.241441 -0.007502 -0.059755
  3   2.380047 0.353302 0.047440 0.020476 0.013527 0.086315
  4   2.033756 0.190472 -0.000128 -0.225378 -0.026090 0.329061
  5   2.451511 0.204909 -0.003447 -0.218548 -0.008922 0.458445
  6   7.247600 -0.397300 -0.109469 0.000001 0.000033 0.087015
  7   -2.022252 -0.104661 3.136172 1.219415 -1.038017 -4.397555
  8   1.168026 -0.537438 -0.063437 -0.445830 -0.061317 -0.126331
  9   6.790376 -0.619176 0.015206 0.005390 0.003052 -1.616741
 10   8.637599 0.544015 -0.090417 -2.304133 -0.089034 -0.069354
 11   6.790465 -0.619039 0.017802 0.007483 -0.010457 -1.146951
 12   -2.022474 -0.104699 -2.873818 -1.356577 0.807704 -4.507658
 13   1.167898 -0.537463 0.063297 1.152438 -0.300139 -0.994072
 14   7.002743 -0.617765 -0.183752 0.000286 0.000250 -1.534354
 15   8.209042 0.615527 -0.255885 2.158112 -0.134813 0.133438
 16   7.002735 -0.617911 -0.183641 0.013637 0.008495 -1.092697
 17   1.574674 0.609930 -0.000899 0.576093 -0.236755 -0.159717
 18   -0.602177 0.511412 -0.000006 0.000000 0.000000 0.000000
 19   3.673773 0.177020 1.119313 -0.000002 -0.000014 -0.174510
 20   3.673767 0.176993 -1.117566 0.000007 -0.000003 -0.174546
 21   3.942357 1.334540 1.627658 0.000002 -0.000011 -0.000026
 22   -0.246060 -0.011889 0.516521 -0.000011 0.000031 0.000025
 23   3.942374 1.334565 -1.631083 0.000019 0.000002 -0.000024
 24   -0.246150 -0.011872 -0.516511 -0.000005 -0.000006 0.000048
 25   4.941364 1.997338 1.629330 0.000018 -0.000001 -0.000024
 26   4.941382 1.997366 -1.629410 -0.000001 0.000005 -0.000024
 27   2.914462 1.619264 1.514501 -0.000019 -0.000022 -0.000050
 28   2.916892 1.618870 -1.501142 -0.000002 -0.000009 -0.000024
 29   8.824059 0.150544 0.091743 0.000006 -0.000231 -0.174534
 30   2.111085 -0.561179 1.784320 -0.000008 -0.000682 0.000024
 31   2.121290 -0.561289 -1.853599 0.000000 0.000000 -0.000002
 32   -0.814395 -0.093824 3.127092 3.071965 -0.114691 1.239365
 33   14.298673 -0.408176 0.471578 0.000248 0.000063 -1.896136
 34   15.835795 0.581398 0.242756 -0.214735 0.106913 -0.097869
 35   -0.815868 -0.091229 -3.114430 0.066464 3.132818 -1.010216
 36   14.294526 -0.410349 -0.467541 0.000021 -0.000012 -2.607695
 37   15.834409 0.579420 -0.284600 -0.006092 -0.035255 0.214508
 38   1.139685 -3.453749 -2.823813 0.000000 0.000000 0.000001
 39   -4.457742 -1.054854 -0.746180 0.000000 0.000000 0.000000
 40   1.118101 -3.449769 3.237290 0.000000 0.000001 0.000000
 41   -4.433840 -1.059130 0.959566 -0.000001 0.000000 0.000000
 42   -0.657468 1.697302 -2.688614 0.000000 0.000002 0.000000
 43   -0.664068 1.698578 2.869377 0.000000 0.000002 0.000000
time 1
  0   -0.967547 0.175787 -20.574476 0.000000 0.000000 -1.572114
  1   -1.093036 0.000002 -0.326057 -1.570756 -1.570425 -0.000171
  2   2.262337 0.113614 0.064702 -0.240829 -0.017545 -0.100559
  3   2.380047 0.353302 0.047440 -0.052369 0.010267 0.044504
  4   2.033756 0.190472 -0.000128 -0.297415 -0.041335 0.289806
  5   2.451511 0.204909 -0.003447 -0.291055 -0.022748 0.418870
  6   7.247600 -0.397300 -0.109469 0.000001 0.000033 0.087015
  7   -2.022252 -0.104661 3.136172 1.219415 -1.038017 -4.397555
  8   1.168026 -0.537438 -0.063437 -0.579288 -0.038726 -0.119752
  9   6.790376 -0.619176 0.015206 0.005335 0.003119 -1.635834
 10   8.637599 0.544015 -0.090417 -2.236763 0.034924 -0.047506
 11   6.790465 -0.619039 0.017802 0.007541 -0.010457 -1.160332
 12   -2.022474 -0.104699 -2.873818 -1.412433 0.660581 -4.544901
 13   1.167898 -0.537463 0.063297 1.188008 -0.201329 -0.909747
 14   7.002743 -0.617765 -0.183752 0.000229 0.000250 -1.497144
 15   8.209042 0.615527 -0.255885 2.171199 -0.021777 -0.033564
 16   7.002735 -0.617911 -0.183641 0.013684 0.008270 -1.066591
 17   1.574674 0.609930 -0.000899 0.780093 -0.346357 -0.090378
 18   -0.602177 0.511412 -0.000006 0.000000 0.000000 0.000000
 19   3.673773 0.177020 1.119313 -0.000002 -0.000014 -0.174510
 20   3.673767 0.176993 -1.117566 0.000007 -0.000003 -0.174546
 21   3.942357 1.334540 1.627658 0.000002 -0.000011 -0.000026
 22   -0.246060 -0.011889 0.516521 -0.000011 0.000031 0.000025
 23   3.942374 1.334565 -1.631083 0.000019 0.000002 -0.000024
 24   -0.246150 -0.011872 -0.516511 -0.000005 -0.000006 0.000048
 25   4.941364 1.997338 1.629330 0.000018 0.023166 -0.000024
 26   4.941382 1.997366 -1.629410 -0.000001 -0.023171 -0.000024
 27   2.914462 1.619264 1.514501 -0.000019 -0.000022 -0.000050
 28   2.916892 1.618870 -1.501142 -0.000002 -0.000009 -0.000024
 29   8.824059 0.150544 0.091743 0.000006 -0.000231 -0.174534
 30   2.111085 -0.561179 1.784320 -0.000008 -0.000682 0.000024
 31   2.121290 -0.561289 -1.853599 0.000000 0.000000 -0.000002
 32   -0.814395 -0.093824 3.127092 3.071965 -0.114691 1.239365
 33   14.298673 -0.408176 0.471578 0.000248 0.000063 -1.896136
 34   15.835795 0.581398 0.242756 -0.214735 0.106913 -0.097869
 35   -0.815868 -0.091229 -3.114430 0.066464 3.132818 -1.010216
 36   14.294526 -0.410349 -0.467541 0.000021 -0.000012 -2.607695
 37   15.834409 0.579420 -0.284600 -0.006092 -0.035255 0.214508
 38   1.139685 -3.453749 -2.823813 0.000000 0.000000 0.000001
 39   -4.457742 -1.054854 -0.746180 0.000000 0.000000 0.000000
 40   1.118101 -3.449769 3.237290 0.000000 0.000001 0.000000
 41   -4.433840 -1.059130 0.959566 -0.000001 0.000000 0.000000
 42   -0.657468 1.697302 -2.688614 0.000000 0.000002 0.000000
 43   -0.664068 1.698578 2.869377 0.000000 0.000002 0.000000
time 2
  0   -0.967547 0.175787 -20.574476 0.000000 0.000000 -1.572114
  1   -1.093036 0.000002 -0.326057 -1.570756 -1.570425 -0.000171
  2   2.262337 0.113614 0.064702 -0.239900 -0.027576 -0.141381
  3   2.380047 0.353302 0.047440 -0.125273 0.003687 0.003244
  4   2.033756 0.190472 -0.000128 -0.368714 -0.059180 0.251746
  5   2.451511 0.204909 -0.003447 -0.362843 -0.039237 0.380310
  6   7.247600 -0.397300 -0.109469 0.000001 0.000033 0.087015
  7   -2.022252 -0.104661 3.136172 1.190466 -1.070477 -4.372573
  8   1.168026 -0.537438 -0.063437 -0.707621 -0.102575 -0.195285
  9   6.790376 -0.619176 0.015206 0.005557 0.002718 -1.497125
 10   8.637599 0.544015 -0.090417 -2.176351 0.134104 -0.076082
 11   6.790465 -0.619039 0.017802 0.007016 -0.010599 -1.063208
 12   -2.022474 -0.104699 -2.873818 -1.456121 0.512066 -4.569219
 13   1.167898 -0.537463 0.063297 1.232154 -0.098806 -0.832565
 14   7.002743 -0.617765 -0.183752 0.000229 0.000250 -1.460181
 15   8.209042 0.615527 -0.255885 2.165374 0.092090 -0.200084
 16   7.002735 -0.617911 -0.183641 0.013732 0.008044 -1.040761
 17   1.574674 0.609930 -0.000899 0.991487 -0.470087 -0.061548
 18   -0.602177 0.511412 -0.000006 0.000000 0.000000 0.000000
 19   3.673773 0.177020 1.119313 -0.000002 -0.000014 -0.174510
 20   3.673767 0.176993 -1.117566 0.000007 -0.000003 -0.174546
 21   3.942357 1.334540 1.627658 0.000002 -0.000011 -0.000026
 22   -0.246060 -0.011889 0.516521 -0.000011 0.000031 0.000025
 23   3.942374 1.334565 -1.631083 0.000019 0.000002 -0.000024
 24   -0.246150 -0.011872 -0.516511 -0.000005 -0.000006 0.000048
 25   4.941364 1.997338 1.629330 0.000018 0.088724 -0.000024
 26   4.941382 1.997366 -1.629410 -0.000001 -0.088733 -0.000024
 27   2.914462 1.619264 1.514501 -0.000019 -0.000022 -0.000050
 28   2.916892 1.618870 -1.501142 -0.000002 -0.000009 -0.000024
 29   8.824059 0.150544 0.091743 0.000006 -0.000231 -0.174534
 30   2.111085 -0.561179 1.784320 -0.000008 -0.000682 0.000024
 31   2.121290 -0.561289 -1.853599 0.000000 0.000000 -0.000002
 32   -0.814395 -0.093824 3.127092 3.071965 -0.114691 1.239365
 33   14.298673 -0.408176 0.471578 0.000248 0.000063 -1.896136
 34   15.835795 0.581398 0.242756 -0.214735 0.106913 -0.097869
 35   -0.815868 -0.091229 -3.114430 0.066464 3.132818 -1.010216
 36   14.294526 -0.410349 -0.467541 0.000021 -0.000012 -2.607695
 37   15.834409 0.579420 -0.284600 -0.006092 -0.035255 0.214508
 38   1.139685 -3.453749 -2.823813 0.000000 0.000000 0.000001
 39   -4.457742 -1.054854 -0.746180 0.000000 0.000000 0.000000
 40   1.118101 -3.449769 3.237290 0.000000 0.000001 0.000000
 41   -4.433840 -1.059130 0.959566 -0.000001 0.000000 0.000000
 42   -0.657468 1.697302 -2.688614 0.000000 0.000002 0.000000
 43   -0.664068 1.698578 2.869377 0.000000 0.000002 0.000000
time 3
  0   -0.967547 0.175787 -20.574476 0.000000 0.000000 -1.572114
  1   -1.093036 0.000002 -0.326057 -1.570756 -1.570425 -0.000171
  2   2.262337 0.113614 0.064702 -0.239658 -0.030476 -0.153000
  3   2.380047 0.353302 0.047440 -0.126068 0.000308 -0.008632
  4   2.033756 0.190472 -0.000128 -0.368843 -0.065280 0.241017
  5   2.451511 0.204909 -0.003447 -0.363237 -0.045295 0.369438
  6   7.247600 -0.397300 -0.109469 0.000001 0.000033 0.087015
  7   -2.022252 -0.104661 3.136172 1.219415 -1.038017 -4.397555
  8   1.168026 -0.537438 -0.063437 -0.707811 -0.148260 -0.312443
  9   6.790376 -0.619176 0.015206 0.005889 0.002385 -1.359472
 10   8.637599 0.544015 -0.090417 -2.239229 0.233425 -0.186118
 11   6.790465 -0.619039 0.017802 0.006461 -0.010742 -0.966890
 12   -2.022474 -0.104699 -2.873818 -1.473653 0.444382 -4.577357
 13   1.167898 -0.537463 0.063297 1.304699 0.016227 -0.710769
 14   7.002743 -0.617765 -0.183752 0.000229 0.000250 -1.299214
 15   8.209042 0.615527 -0.255885 2.164871 0.095873 -0.205857
 16   7.002735 -0.617911 -0.183641 0.013967 0.007199 -0.928002
 17   1.574674 0.609930 -0.000899 0.993640 -0.487624 -0.020484
 18   -0.602177 0.511412 -0.000006 0.000000 0.000000 0.000000
 19   3.673773 0.177020 1.119313 -0.000002 -0.000014 -0.174510
 20   3.673767 0.176993 -1.117566 0.000007 -0.000003 -0.174546
 21   3.942357 1.334540 1.627658 0.000002 -0.000011 -0.000026
 22   -0.246060 -0.011889 0.516521 -0.000011 0.000031 0.000025
 23   3.942374 1.334565 -1.631083 0.000019 0.000002 -0.000024
 24   -0.246150 -0.011872 -0.516511 -0.000005 -0.000006 0.000048
 25   4.941364 1.997338 1.629330 0.000018 0.173006 -0.000024
 26   4.941382 1.997366 -1.629410 -0.000001 -0.173006 -0.000024
 27   2.914462 1.619264 1.514501 -0.000019 -0.000022 -0.000050
 28   2.916892 1.618870 -1.501142 -0.000002 -0.000009 -0.000024
 29   8.824059 0.150544 0.091743 0.000006 -0.000231 -0.174534
 30   2.111085 -0.561179 1.784320 -0.000008 -0.000682 0.000024
 31   2.121290 -0.561289 -1.853599 0.000000 0.000000 -0.000002
 32   -0.814395 -0.093824 3.127092 3.071965 -0.114691 1.239365
 33   14.298673 -0.408176 0.471578 0.000248 0.000063 -1.896136
 34   15.835795 0.581398 0.242756 -0.214735 0.106913 -0.097869
 35   -0.815868 -0.091229 -3.114430 0.066464 3.132818 -1.010216
 36   14.294526 -0.410349 -0.467541 0.000021 -0.000012 -2.607695
 37   15.834409 0.579420 -0.284600 -0.006092 -0.035255 0.214508
 38   1.139685 -3.453749 -2.823813 0.000000 0.000000 0.000001
 39   -4.457742 -1.054854 -0.746180 0.000000 0.000000 0.000000
 40   1.118101 -3.449769 3.237290 0.000000 0.000001 0.000000
 41   -4.433840 -1.059130 0.959566 -0.000001 0.000000 0.000000
 42   -0.657468 1.697302 -2.688614 0.000000 0.000002 0.000000
 43   -0.664068 1.698578 2.869377 0.000000 0.000002 0.000000
time 4
  0   -0.967547 0.175787 -20.574476 0.000000 0.000000 -1.572114
  1   -1.093036 0.000002 -0.326057 -1.570756 -1.570425 -0.000171
  2   2.262337 0.113614 0.064702 -0.240384 -0.023741 -0.125786
  3   2.380047 0.353302 0.047440 -0.025922 0.001961 0.017977
  4   2.033756 0.190472 -0.000128 -0.269290 -0.054817 0.265665
  5   2.451511 0.204909 -0.003447 -0.263514 -0.036704 0.394600
  6   7.247600 -0.397300 -0.109469 0.000001 0.000033 0.087015
  7   -2.022252 -0.104661 3.136172 1.385633 -0.735879 -4.527911
  8   1.168026 -0.537438 -0.063437 -0.429123 0.150154 -0.210151
  9   6.790376 -0.619176 0.015206 0.005889 0.002318 -1.336908
 10   8.637599 0.544015 -0.090417 -2.684573 0.281008 -0.556304
 11   6.790465 -0.619039 0.017802 0.006402 -0.010798 -0.951145
 12   -2.022474 -0.104699 -2.873818 -1.422971 0.627436 -4.551412
 13   1.167898 -0.537463 0.063297 1.307792 -0.000402 -0.646118
 14   7.002743 -0.617765 -0.183752 0.000229 0.000250 -0.751790
 15   8.209042 0.615527 -0.255885 2.133450 -0.219778 0.269108
 16   7.002735 -0.617911 -0.183641 0.014438 0.004266 -0.544909
 17   1.574674 0.609930 -0.000899 0.709209 -0.336417 0.047450
 18   -0.602177 0.511412 -0.000006 0.000000 0.000000 0.000000
 19   3.673773 0.177020 1.119313 -0.000002 -0.000014 -0.174510
 20   3.673767 0.176993 -1.117566 0.000007 -0.000003 -0.174546
 21   3.942357 1.334540 1.627658 0.000002 -0.000011 -0.000026
 22   -0.246060 -0.011889 0.516521 -0.000011 0.000031 0.000025
 23   3.942374 1.334565 -1.631083 0.000019 0.000002 -0.000024
 24   -0.246150 -0.011872 -0.516511 -0.000005 -0.000006 0.000048
 25   4.941364 1.997338 1.629330 0.000018 0.238536 -0.000024
 26   4.941382 1.997366 -1.629410 -0.000001 -0.238543 -0.000024
 27   2.914462 1.619264 1.514501 -0.000019 -0.000022 -0.000050
 28   2.916892 1.618870 -1.501142 -0.000002 -0.000009 -0.000024
 29   8.824059 0.150544 0.091743 0.000006 -0.000231 -0.174534
 30   2.111085 -0.561179 1.784320 -0.000008 -0.000682 0.000024
 31   2.121290 -0.561289 -1.853599 0.000000 0.000000 -0.000002
 32   -0.814395 -0.093824 3.127092 3.071965 -0.114691 1.239365
 33   14.298673 -0.408176 0.471578 0.000248 0.000063 -1.896136
 34   15.835795 0.581398 0.242756 -0.214735 0.106913 -0.097869
 35   -0.815868 -0.091229 -3.114430 0.066464 3.132818 -1.010216
 36   14.294526 -0.410349 -0.467541 0.000021 -0.000012 -2.607695
 37   15.834409 0.579420 -0.284600 -0.006092 -0.035255 0.214508
 38   1.139685 -3.453749 -2.823813 0.000000 0.000000 0.000001
 39   -4.457742 -1.054854 -0.746180 0.000000 0.000000 0.000000
 40   1.118101 -3.449769 3.237290 0.000000 0.000001 0.000000
 41   -4.433840 -1.059130 0.959566 -0.000001 0.000000 0.000000
 42   -0.657468 1.697302 -2.688614 0.000000 0.000002 0.000000
 43   -0.664068 1.698578 2.869377 0.000000 0.000002 0.000000
time 5
  0   -0.967547 0.175787 -20.574476 0.000000 0.000000 -1.572114
  1   -1.093036 0.000002 -0.326057 -1.570756 -1.570425 -0.000171
  2   2.262337 0.113614 0.064702 -0.241262 -0.012212 -0.078964
  3   2.380047 0.353302 0.047440 0.128319 0.000236 0.064175
  4   2.033756 0.190472 -0.000128 -0.115663 -0.041682 0.310213
  5   2.451511 0.204909 -0.003447 -0.109565 -0.026260 0.439772
  6   7.247600 -0.397300 -0.109469 0.000001 0.000033 0.087015
  7   -2.022252 -0.104661 3.136172 1.460498 -0.495402 -4.571488
  8   1.168026 -0.537438 -0.063437 -0.083169 0.251034 -0.223942
  9   6.790376 -0.619176 0.015206 0.006611 0.000916 -0.889084
 10   8.637599 0.544015 -0.090417 -3.123400 0.107003 -0.876716
 11   6.790465 -0.619039 0.017802 0.004767 -0.011282 -0.637624
 12   -2.022474 -0.104699 -2.873818 -1.356577 0.807704 -4.507658
 13   1.167898 -0.537463 0.063297 1.335559 -0.025677 -0.627292
 14   7.002743 -0.617765 -0.183752 0.000229 0.000250 -0.211545
 15   8.209042 0.615527 -0.255885 1.916590 -0.502442 0.860979
 16   7.002735 -0.617911 -0.183641 0.014673 0.001616 -0.166783
 17   1.574674 0.609930 -0.000899 0.305595 -0.096127 0.005314
 18   -0.602177 0.511412 -0.000006 0.000000 0.000000 0.000000
 19   3.673773 0.177020 1.119313 -0.000002 -0.000014 -0.174510
 20   3.673767 0.176993 -1.117566 0.000007 -0.000003 -0.174546
 21   3.942357 1.334540 1.627658 0.000002 -0.000011 -0.000026
 22   -0.246060 -0.011889 0.516521 -0.000011 0.000031 0.000025
 23   3.942374 1.334565 -1.631083 0.000019 0.000002 -0.000024
 24   -0.246150 -0.011872 -0.516511 -0.000005 -0.000006 0.000048
 25   4.941364 1.997338 1.629330 0.000018 0.261744 -0.000024
 26   4.941382 1.997366 -1.629410 -0.000001 -0.261756 -0.000024
 27   2.914462 1.619264 1.514501 -0.000019 -0.000022 -0.000050
 28   2.916892 1.618870 -1.501142 -0.000002 -0.000009 -0.000024
 29   8.824059 0.150544 0.091743 0.000006 -0.000231 -0.174534
 30   2.111085 -0.561179 1.784320 -0.000008 -0.000682 0.000024
 31   2.121290 -0.561289 -1.853599 0.000000 0.000000 -0.000002
 32   -0.814395 -0.093824 3.127092 3.071965 -0.114691 1.239365
 33   14.298673 -0.408176 0.471578 0.000248 0.000063 -1.896136
 34   15.835795 0.581398 0.242756 -0.214735 0.106913 -0.097869
 35   -0.815868 -0.091229 -3.114430 0.066464 3.132818 -1.010216
 36   14.294526 -0.410349 -0.467541 0.000021 -0.000012 -2.607695
 37   15.834409 0.579420 -0.284600 -0.006092 -0.035255 0.214508
 38   1.139685 -3.453749 -2.823813 0.000000 0.000000 0.000001
 39   -4.457742 -1.054854 -0.746180 0.000000 0.000000 0.000000
 40   1.118101 -3.449769 3.237290 0.000000 0.000001 0.000000
 41   -4.433840 -1.059130 0.959566 -0.000001 0.000000 0.000000
 42   -0.657468 1.697302 -2.688614 0.000000 0.000002 0.000000
 43   -0.664068 1.698578 2.869377 0.000000 0.000002 0.000000
time 6
  0   -0.967547 0.175787 -20.574476 0.000000 0.000000 -1.572114
  1   -1.093036 0.000002 -0.326057 -1.570756 -1.570425 -0.000171
  2   2.262337 0.113614 0.064702 -0.241454 0.000552 -0.026197
  3   2.380047 0.353302 0.047440 0.294275 -0.009436 0.115597
  4   2.033756 0.190472 -0.000128 0.050357 -0.034528 0.362263
  5   2.451511 0.204909 -0.003447 0.056537 -0.022186 0.492027
  6   7.247600 -0.397300 -0.109469 0.000001 0.000033 0.087015
  7   -2.022252 -0.104661 3.136172 1.377485 -0.756894 -4.522651
  8   1.168026 -0.537438 -0.063437 0.162296 -0.215178 -0.263606
  9   6.790376 -0.619176 0.015206 0.006111 0.001918 -1.214801
 10   8.637599 0.544015 -0.090417 -3.258579 -0.102830 -0.891619
 11   6.790465 -0.619039 0.017802 0.005964 -0.010912 -0.865671
 12   -2.022474 -0.104699 -2.873818 -1.421918 0.630658 -4.550741
 13   1.167898 -0.537463 0.063297 1.395663 0.265414 -0.535642
 14   7.002743 -0.617765 -0.183752 0.000229 0.000250 -0.155359
 15   8.209042 0.615527 -0.255885 1.918100 -0.516212 0.855326
 16   7.002735 -0.617911 -0.183641 0.014673 0.001334 -0.127375
 17   1.574674 0.609930 -0.000899 -0.143028 0.092214 -0.189248
 18   -0.602177 0.511412 -0.000006 0.000000 0.000000 0.000000
 19   3.673773 0.177020 1.119313 -0.000002 -0.000014 -0.174510
 20   3.673767 0.176993 -1.117566 0.000007 -0.000003 -0.174546
 21   3.942357 1.334540 1.627658 0.000002 -0.000011 -0.000026
 22   -0.246060 -0.011889 0.516521 -0.000011 0.000031 0.000025
 23   3.942374 1.334565 -1.631083 0.000019 0.000002 -0.000024
 24   -0.246150 -0.011872 -0.516511 -0.000005 -0.000006 0.000048
 25   4.941364 1.997338 1.629330 0.000018 0.252684 -0.000024
 26   4.941382 1.997366 -1.629410 -0.000001 -0.252688 -0.000024
 27   2.914462 1.619264 1.514501 -0.000019 -0.000022 -0.000050
 28   2.916892 1.618870 -1.501142 -0.000002 -0.000009 -0.000024
 29   8.824059 0.150544 0.091743 0.000006 -0.000231 -0.174534
 30   2.111085 -0.561179 1.784320 -0.000008 -0.000682 0.000024
 31   2.121290 -0.561289 -1.853599 0.000000 0.000000 -0.000002
 32   -0.814395 -0.093824 3.127092 3.071965 -0.114691 1.239365
 33   14.298673 -0.408176 0.471578 0.000248 0.000063 -1.896136
 34   15.835795 0.581398 0.242756 -0.214735 0.106913 -0.097869
 35   -0.815868 -0.091229 -3.114430 0.066464 3.132818 -1.010216
 36   14.294526 -0.410349 -0.467541 0.000021 -0.000012 -2.607695
 37   15.834409 0.579420 -0.284600 -0.006092 -0.035255 0.214508
 38   1.139685 -3.453749 -2.823813 0.000000 0.000000 0.000001
 39   -4.457742 -1.054854 -0.746180 0.000000 0.000000 0.000000
 40   1.118101 -3.449769 3.237290 0.000000 0.000001 0.000000
 41   -4.433840 -1.059130 0.959566 -0.000001 0.000000 0.000000
 42   -0.657468 1.697302 -2.688614 0.000000 0.000002 0.000000
 43   -0.664068 1.698578 2.869377 0.000000 0.000002 0.000000
time 7
  0   -0.967547 0.175787 -20.574476 0.000000 0.000000 -1.572114
  1   -1.093036 0.000002 -0.326057 -1.570756 -1.570425 -0.000171
  2   2.262337 0.113614 0.064702 -0.241313 0.011650 0.018366
  3   2.380047 0.353302 0.047440 0.429284 -0.023602 0.158000
  4   2.033756 0.190472 -0.000128 0.186407 -0.034528 0.407355
  5   2.451511 0.204909 -0.003447 0.192325 -0.024928 0.536902
  6   7.247600 -0.397300 -0.109469 0.000001 0.000033 0.087015
  7   -2.022252 -0.104661 3.136172 1.219415 -1.038017 -4.397555
  8   1.168026 -0.537438 -0.063437 0.300500 -0.553441 -1.062775
  9   6.790376 -0.619176 0.015206 0.006999 -0.000819 -0.399073
 10   8.637599 0.544015 -0.090417 -3.281300 -0.282255 -0.815368
 11   6.790465 -0.619039 0.017802 0.003016 -0.011708 -0.294574
 12   -2.022474 -0.104699 -2.873818 -1.475953 0.435936 -4.578506
 13   1.167898 -0.537463 0.063297 1.235879 0.523400 -0.476197
 14   7.002743 -0.617765 -0.183752 0.000229 0.000250 -0.301641
 15   8.209042 0.615527 -0.255885 2.000142 -0.463553 0.676478
 16   7.002735 -0.617911 -0.183641 0.014626 0.002067 -0.229813
 17   1.574674 0.609930 -0.000899 -0.533440 0.140637 -0.426797
 18   -0.602177 0.511412 -0.000006 0.000000 0.000000 0.000000
 19   3.673773 0.177020 1.119313 -0.000002 -0.000014 -0.174510
 20   3.673767 0.176993 -1.117566 0.000007 -0.000003 -0.174546
 21   3.942357 1.334540 1.627658 0.000002 -0.000011 -0.000026
 22   -0.246060 -0.011889 0.516521 -0.000011 0.000031 0.000025
 23   3.942374 1.334565 -1.631083 0.000019 0.000002 -0.000024
 24   -0.246150 -0.011872 -0.516511 -0.000005 -0.000006 0.000048
 25   4.941364 1.997338 1.629330 0.000018 0.225627 -0.000024
 26   4.941382 1.997366 -1.629410 -0.000001 -0.225632 -0.000024
 27   2.914462 1.619264 1.514501 -0.000019 -0.000022 -0.000050
 28   2.916892 1.618870 -1.501142 -0.000002 -0.000009 -0.000024
 29   8.824059 0.150544 0.091743 0.000006 -0.000231 -0.174534
 30   2.111085 -0.561179 1.784320 -0.000008 -0.000682 0.000024
 31   2.121290 -0.561289 -1.853599 0.000000 0.000000 -0.000002
 32   -0.814395 -0.093824 3.127092 3.071965 -0.114691 1.239365
 33   14.298673 -0.408176 0.471578 0.000248 0.000063 -1.896136
 34   15.835795 0.581398 0.242756 -0.214735 0.106913 -0.097869
 35   -0.815868 -0.091229 -3.114430 0.066464 3.132818 -1.010216
 36   14.294526 -0.410349 -0.467541 0.000021 -0.000012 -2.607695
 37   15.834409 0.579420 -0.284600 -0.006092 -0.035255 0.214508
 38   1.139685 -3.453749 -2.823813 0.000000 0.000000 0.000001
 39   -4.457742 -1.054854 -0.746180 0.000000 0.000000 0.000000
 40   1.118101 -3.449769 3.237290 0.000000 0.000001 0.000000
 41   -4.433840 -1.059130 0.959566 -0.000001 0.000000 0.000000
 42   -0.657468 1.697302 -2.688614 0.000000 0.000002 0.000000
 43   -0.664068 1.698578 2.869377 0.000000 0.000002 0.000000
time 8
  0   -0.967547 0.175787 -20.574476 0.000000 0.000000 -1.572114
  1   -1.093036 0.000002 -0.326057 -1.570756 -1.570425 -0.000171
  2   2.262337 0.113614 0.064702 -0.240829 0.017318 0.041623
  3   2.380047 0.353302 0.047440 0.491538 -0.032147 0.179589
  4   2.033756 0.190472 -0.000128 0.249334 -0.036014 0.430734
  5   2.451511 0.204909 -0.003447 0.255161 -0.027565 0.559984
  6   7.247600 -0.397300 -0.109469 0.000001 0.000033 0.087015
  7   -2.022252 -0.104661 3.136172 1.310576 -0.902241 -4.473063
  8   1.168026 -0.537438 -0.063437 0.188873 -0.536334 -0.659173
  9   6.790376 -0.619176 0.015206 0.006722 0.000182 -0.676869
 10   8.637599 0.544015 -0.090417 -3.215428 -0.427612 -0.771094
 11   6.790465 -0.619039 0.017802 0.003979 -0.011452 -0.488996
 12   -2.022474 -0.104699 -2.873818 -1.450085 0.534589 -4.566538
 13   1.167898 -0.537463 0.063297 1.096833 0.355427 -0.595390
 14   7.002743 -0.617765 -0.183752 0.000229 0.000250 -0.570278
 15   8.209042 0.615527 -0.255885 2.026746 -0.422546 0.612552
 16   7.002735 -0.617911 -0.183641 0.014532 0.003308 -0.417800
 17   1.574674 0.609930 -0.000899 -0.714327 0.117774 -0.551947
 18   -0.602177 0.511412 -0.000006 0.000000 0.000000 0.000000
 19   3.673773 0.177020 1.119313 -0.000002 -0.000014 -0.174510
 20   3.673767 0.176993 -1.117566 0.000007 -0.000003 -0.174546
 21   3.942357 1.334540 1.627658 0.000002 -0.000011 -0.000026
 22   -0.246060 -0.011889 0.516521 -0.000011 0.000031 0.000025
 23   3.942374 1.334565 -1.631083 0.000019 0.000002 -0.000024
 24   -0.246150 -0.011872 -0.516511 -0.000005 -0.000006 0.000048
 25   4.941364 1.997338 1.629330 0.000018 0.182927 -0.000024
 26   4.941382 1.997366 -1.629410 -0.000001 -0.182935 -0.000024
 27   2.914462 1.619264 1.514501 -0.000019 -0.000022 -0.000050
 28   2.916892 1.618870 -1.501142 -0.000002 -0.000009 -0.000024
 29   8.824059 0.150544 0.091743 0.000006 -0.000231 -0.174534
 30   2.111085 -0.561179 1.784320 -0.000008 -0.000682 0.000024
 31   2.121290 -0.561289 -1.853599 0.000000 0.000000 -0.000002
 32   -0.814395 -0.093824 3.127092 3.071965 -0.114691 1.239365
 33   14.298673 -0.408176 0.471578 0.000248 0.000063 -1.896136
 34   15.835795 0.581398 0.242756 -0.214735 0.106913 -0.097869
 35   -0.815868 -0.091229 -3.114430 0.066464 3.132818 -1.010216
 36   14.294526 -0.410349 -0.467541 0.000021 -0.000012 -2.607695
 37   15.834409 0.579420 -0.284600 -0.006092 -0.035255 0.214508
 38   1.139685 -3.453749 -2.823813 0.000000 0.000000 0.000001
 39   -4.457742 -1.054854 -0.746180 0.000000 0.000000 0.000000
 40   1.118101 -3.449769 3.237290 0.000000 0.000001 0.000000
 41   -4.433840 -1.059130 0.959566 -0.000001 0.000000 0.000000
 42   -0.657468 1.697302 -2.688614 0.000000 0.000002 0.000000
 43   -0.664068 1.698578 2.869377 0.000000 0.000002 0.000000
time 9
  0   -0.967547 0.175787 -20.574476 0.000000 0.000000 -1.572114
  1   -1.093036 0.000002 -0.326057 -1.570756 -1.570425 -0.000171
  2   2.262337 0.113614 0.064702 -0.240829 0.017690 0.043430
  3   2.380047 0.353302 0.047440 0.482462 -0.030852 0.182160
  4   2.033756 0.190472 -0.000128 0.240278 -0.034504 0.432800
  5   2.451511 0.204909 -0.003447 0.246226 -0.025959 0.562213
  6   7.247600 -0.397300 -0.109469 0.000001 0.000033 0.087015
  7   -2.022252 -0.104661 3.136172 1.395794 -0.706907 -4.534955
  8   1.168026 -0.537438 -0.063437 0.091675 -0.324863 -0.185353
  9   6.790376 -0.619176 0.015206 0.006666 0.000716 -0.819276
 10   8.637599 0.544015 -0.090417 -3.087998 -0.500325 -0.727832
 11   6.790465 -0.619039 0.017802 0.004505 -0.011367 -0.588831
 12   -2.022474 -0.104699 -2.873818 -1.408121 0.673265 -4.542508
 13   1.167898 -0.537463 0.063297 1.066044 0.118292 -0.732017
 14   7.002743 -0.617765 -0.183752 0.000229 0.000250 -0.838173
 15   8.209042 0.615527 -0.255885 2.049611 -0.378512 0.551753
 16   7.002735 -0.617911 -0.183641 0.014344 0.004717 -0.605345
 17   1.574674 0.609930 -0.000899 -0.690685 0.108757 -0.550875
 18   -0.602177 0.511412 -0.000006 0.000000 0.000000 0.000000
 19   3.673773 0.177020 1.119313 -0.000002 -0.000014 -0.174510
 20   3.673767 0.176993 -1.117566 0.000007 -0.000003 -0.174546
 21   3.942357 1.334540 1.627658 0.000002 -0.000011 -0.000026
 22   -0.246060 -0.011889 0.516521 -0.000011 0.000031 0.000025
 23   3.942374 1.334565 -1.631083 0.000019 0.000002 -0.000024
 24   -0.246150 -0.011872 -0.516511 -0.000005 -0.000006 0.000048
 25   4.941364 1.997338 1.629330 0.000018 0.130871 -0.000024
 26   4.941382 1.997366 -1.629410 -0.000001 -0.130869 -0.000024
 27   2.914462 1.619264 1.514501 -0.000019 -0.000022 -0.000050
 28   2.916892 1.618870 -1.501142 -0.000002 -0.000009 -0.000024
 29   8.824059 0.150544 0.091743 0.000006 -0.000231 -0.174534
 30   2.111085 -0.561179 1.784320 -0.000008 -0.000682 0.000024
 31   2.121290 -0.561289 -1.853599 0.000000 0.000000 -0.000002
 32   -0.814395 -0.093824 3.127092 3.071965 -0.114691 1.239365
 33   14.298673 -0.408176 0.471578 0.000248 0.000063 -1.896136
 34   15.835795 0.581398 0.242756 -0.214735 0.106913 -0.097869
 35   -0.815868 -0.091229 -3.114430 0.066464 3.132818 -1.010216
 36   14.294526 -0.410349 -0.467541 0.000021 -0.000012 -2.607695
 37   15.834409 0.579420 -0.284600 -0.006092 -0.035255 0.214508
 38   1.139685 -3.453749 -2.823813 0.000000 0.000000 0.000001
 39   -4.457742 -1.054854 -0.746180 0.000000 0.000000 0.000000
 40   1.118101 -3.449769 3.237290 0.000000 0.000001 0.000000
 41   -4.433840 -1.059130 0.959566 -0.000001 0.000000 0.000000
 42   -0.657468 1.697302 -2.688614 0.000000 0.000002 0.000000
 43   -0.664068 1.698578 2.869377 0.000000 0.000002 0.000000
time 10
  0   -0.967547 0.175787 -20.574476 0.000000 0.000000 -1.572114
  1   -1.093036 0.000002 -0.326057 -1.570756 -1.570425 -0.000171
  2   2.262337 0.113614 0.064702 -0.240957 0.015772 0.035280
  3   2.380047 0.353302 0.047440 0.438059 -0.024668 0.175957
  4   2.033756 0.190472 -0.000128 0.195278 -0.031136 0.425007
  5   2.451511 0.204909 -0.003447 0.201414 -0.021782 0.554535
  6   7.247600 -0.397300 -0.109469 0.000001 0.000033 0.087015
  7   -2.022252 -0.104661 3.136172 1.392343 -0.716882 -4.532513
  8   1.168026 -0.537438 -0.063437 -0.017801 -0.297643 -0.137907
  9   6.790376 -0.619176 0.015206 0.006555 0.001050 -0.935873
 10   8.637599 0.544015 -0.090417 -2.936615 -0.428808 -0.654113
 11   6.790465 -0.619039 0.017802 0.004943 -0.011225 -0.670384
 12   -2.022474 -0.104699 -2.873818 -1.394517 0.712418 -4.533795
 13   1.167898 -0.537463 0.063297 1.109838 0.046638 -0.773362
 14   7.002743 -0.617765 -0.183752 0.000229 0.000250 -0.980578
 15   8.209042 0.615527 -0.255885 2.074345 -0.340077 0.480430
 16   7.002735 -0.617911 -0.183641 0.014249 0.005451 -0.705023
 17   1.574674 0.609930 -0.000899 -0.566262 0.105775 -0.491590
 18   -0.602177 0.511412 -0.000006 0.000000 0.000000 0.000000
 19   3.673773 0.177020 1.119313 -0.000002 -0.000014 -0.174510
 20   3.673767 0.176993 -1.117566 0.000007 -0.000003 -0.174546
 21   3.942357 1.334540 1.627658 0.000002 -0.000011 -0.000026
 22   -0.246060 -0.011889 0.516521 -0.000011 0.000031 0.000025
 23   3.942374 1.334565 -1.631083 0.000019 0.000002 -0.000024
 24   -0.246150 -0.011872 -0.516511 -0.000005 -0.000006 0.000048
 25   4.941364 1.997338 1.629330 0.000018 0.078789 -0.000024
 26   4.941382 1.997366 -1.629410 -0.000001 -0.078804 -0.000024
 27   2.914462 1.619264 1.514501 -0.000019 -0.000022 -0.000050
 28   2.916892 1.618870 -1.501142 -0.000002 -0.000009 -0.000024
 29   8.824059 0.150544 0.091743 0.000006 -0.000231 -0.174534
 30   2.111085 -0.561179 1.784320 -0.000008 -0.000682 0.000024
 31   2.121290 -0.561289 -1.853599 0.000000 0.000000 -0.000002
 32   -0.814395 -0.093824 3.127092 3.071965 -0.114691 1.239365
 33   14.298673 -0.408176 0.471578 0.000248 0.000063 -1.896136
 34   15.835795 0.581398 0.242756 -0.214735 0.106913 -0.097869
 35   -0.815868 -0.091229 -3.114430 0.066464 3.132818 -1.010216
 36   14.294526 -0.410349 -0.467541 0.000021 -0.000012 -2.607695
 37   15.834409 0.579420 -0.284600 -0.006092 -0.035255 0.214508
 38   1.139685 -3.453749 -2.823813 0.000000 0.000000 0.000001
 39   -4.457742 -1.054854 -0.746180 0.000000 0.000000 0.000000
 40   1.118101 -3.449769 3.237290 0.000000 0.000001 0.000000
 41   -4.433840 -1.059130 0.959566 -0.000001 0.000000 0.000000
 42   -0.657468 1.697302 -2.688614 0.000000 0.000002 0.000000
 43   -0.664068 1.698578 2.869377 0.000000 0.000002 0.000000
time 11
  0   -0.967547 0.175787 -20.574476 0.000000 0.000000 -1.572114
  1   -1.093036 0.000002 -0.326057 -1.570756 -1.570425 -0.000171
  2   2.262337 0.113614 0.064702 -0.241262 0.011973 0.019865
  3   2.380047 0.353302 0.047440 0.367780 -0.015692 0.162775
  4   2.033756 0.190472 -0.000128 0.124108 -0.027313 0.409747
  5   2.451511 0.204909 -0.003447 0.130499 -0.016638 0.539404
  6   7.247600 -0.397300 -0.109469 0.000001 0.000033 0.087015
  7   -2.022252 -0.104661 3.136172 1.360135 -0.799328 -4.510536
  8   1.168026 -0.537438 -0.063437 -0.129870 -0.303983 -0.198764
  9   6.790376 -0.619176 0.015206 0.006333 0.001384 -1.032925
 10   8.637599 0.544015 -0.090417 -2.778890 -0.314635 -0.540967
 11   6.790465 -0.619039 0.017802 0.005264 -0.011140 -0.738267
 12   -2.022474 -0.104699 -2.873818 -1.384553 0.739410 -4.526998
 13   1.167898 -0.537463 0.063297 1.141682 -0.033661 -0.832444
 14   7.002743 -0.617765 -0.183752 0.000229 0.000250 -1.104006
 15   8.209042 0.615527 -0.255885 2.096995 -0.300961 0.409167
 16   7.002735 -0.617911 -0.183641 0.014155 0.006127 -0.791344
 17   1.574674 0.609930 -0.000899 -0.368111 0.088380 -0.395861
 18   -0.602177 0.511412 -0.000006 0.000000 0.000000 0.000000
 19   3.673773 0.177020 1.119313 -0.000002 -0.000014 -0.174510
 20   3.673767 0.176993 -1.117566 0.000007 -0.000003 -0.174546
 21   3.942357 1.334540 1.627658 0.000002 -0.000011 -0.000026
 22   -0.246060 -0.011889 0.516521 -0.000011 0.000031 0.000025
 23   3.942374 1.334565 -1.631083 0.000019 0.000002 -0.000024
 24   -0.246150 -0.011872 -0.516511 -0.000005 -0.000006 0.000048
 25   4.941364 1.997338 1.629330 0.000018 0.036103 -0.000024
 26   4.941382 1.997366 -1.629410 -0.000001 -0.036106 -0.000024
 27   2.914462 1.619264 1.514501 -0.000019 -0.000022 -0.000050
 28   2.916892 1.618870 -1.501142 -0.000002 -0.000009 -0.000024
 29   8.824059 0.150544 0.091743 0.000006 -0.000231 -0.174534
 30   2.111085 -0.561179 1.784320 -0.000008 -0.000682 0.000024
 31   2.121290 -0.561289 -1.853599 0.000000 0.000000 -0.000002
 32   -0.814395 -0.093824 3.127092 3.071965 -0.114691 1.239365
 33   14.298673 -0.408176 0.471578 0.000248 0.000063 -1.896136
 34   15.835795 0.581398 0.242756 -0.214735 0.106913 -0.097869
 35   -0.815868 -0.091229 -3.114430 0.066464 3.132818 -1.010216
 36   14.294526 -0.410349 -0.467541 0.000021 -0.000012 -2.607695
 37   15.834409 0.579420 -0.284600 -0.006092 -0.035255 0.214508
 38   1.139685 -3.453749 -2.823813 0.000000 0.000000 0.000001
 39   -4.457742 -1.054854 -0.746180 0.000000 0.000000 0.000000
 40   1.118101 -3.449769 3.237290 0.000000 0.000001 0.000000
 41   -4.433840 -1.059130 0.959566 -0.000001 0.000000 0.000000
 42   -0.657468 1.697302 -2.688614 0.000000 0.000002 0.000000
 43   -0.664068 1.698578 2.869377 0.000000 0.000002 0.000000
time 12
  0   -0.967547 0.175787 -20.574476 0.000000 0.000000 -1.572114
  1   -1.093036 0.000002 -0.326057 -1.570756 -1.570425 -0.000171
  2   2.262337 0.113614 0.064702 -0.241441 0.007096 -0.000031
  3   2.380047 0.353302 0.047440 0.281239 -0.005805 0.144675
  4   2.033756 0.190472 -0.000128 0.036598 -0.024425 0.389702
  5   2.451511 0.204909 -0.003447 0.043203 -0.012003 0.519467
  6   7.247600 -0.397300 -0.109469 0.000001 0.000033 0.087015
  7   -2.022252 -0.104661 3.136172 1.297636 -0.925504 -4.462733
  8   1.168026 -0.537438 -0.063437 -0.229284 -0.258901 -0.215465
  9   6.790376 -0.619176 0.015206 0.006111 0.001918 -1.219178
 10   8.637599 0.544015 -0.090417 -2.653398 -0.235305 -0.385788
 11   6.790465 -0.619039 0.017802 0.005964 -0.010912 -0.868670
 12   -2.022474 -0.104699 -2.873818 -1.377080 0.758479 -4.522019
 13   1.167898 -0.537463 0.063297 1.160452 -0.116300 -0.893705
 14   7.002743 -0.617765 -0.183752 0.000229 0.000250 -1.214810
 15   8.209042 0.615527 -0.255885 2.116840 -0.260937 0.338506
 16   7.002735 -0.617911 -0.183641 0.014014 0.006691 -0.869056
 17   1.574674 0.609930 -0.000899 -0.126739 0.039129 -0.291704
 18   -0.602177 0.511412 -0.000006 0.000000 0.000000 0.000000
 19   3.673773 0.177020 1.119313 -0.000002 -0.000014 -0.174510
 20   3.673767 0.176993 -1.117566 0.000007 -0.000003 -0.174546
 21   3.942357 1.334540 1.627658 0.000002 -0.000011 -0.000026
 22   -0.246060 -0.011889 0.516521 -0.000011 0.000031 0.000025
 23   3.942374 1.334565 -1.631083 0.000019 0.000002 -0.000024
 24   -0.246150 -0.011872 -0.516511 -0.000005 -0.000006 0.000048
 25   4.941364 1.997338 1.629330 0.000018 0.009018 -0.000024
 26   4.941382 1.997366 -1.629410 -0.000001 -0.009026 -0.000024
 27   2.914462 1.619264 1.514501 -0.000019 -0.000022 -0.000050
 28   2.916892 1.618870 -1.501142 -0.000002 -0.000009 -0.000024
 29   8.824059 0.150544 0.091743 0.000006 -0.000231 -0.174534
 30   2.111085 -0.561179 1.784320 -0.000008 -0.000682 0.000024
 31   2.121290 -0.561289 -1.853599 0.000000 0.000000 -0.000002
 32   -0.814395 -0.093824 3.127092 3.071965 -0.114691 1.239365
 33   14.298673 -0.408176 0.471578 0.000248 0.000063 -1.896136
 34   15.835795 0.581398 0.242756 -0.214735 0.106913 -0.097869
 35   -0.815868 -0.091229 -3.114430 0.066464 3.132818 -1.010216
 36   14.294526 -0.410349 -0.467541 0.000021 -0.000012 -2.607695
 37   15.834409 0.579420 -0.284600 -0.006092 -0.035255 0.214508
 38   1.139685 -3.453749 -2.823813 0.000000 0.000000 0.000001
 39   -4.457742 -1.054854 -0.746180 0.000000 0.000000 0.000000
 40   1.118101 -3.449769 3.237290 0.000000 0.000001 0.000000
 41   -4.433840 -1.059130 0.959566 -0.000001 0.000000 0.000000
 42   -0.657468 1.697302 -2.688614 0.000000 0.000002 0.000000
 43   -0.664068 1.698578 2.869377 0.000000 0.000002 0.000000
time 13
  0   -0.967547 0.175787 -20.574476 0.000000 0.000000 -1.572114
  1   -1.093036 0.000002 -0.326057 -1.570756 -1.570425 -0.000171
  2   2.262337 0.113614 0.064702 -0.241441 0.001774 -0.021643
  3   2.380047 0.353302 0.047440 0.187933 0.002645 0.124045
  4   2.033756 0.190472 -0.000128 -0.057274 -0.023406 0.367519
  5   2.451511 0.204909 -0.003447 -0.050529 -0.009301 0.497302
  6   7.247600 -0.397300 -0.109469 0.000001 0.000033 0.087015
  7   -2.022252 -0.104661 3.136172 1.219415 -1.038017 -4.397555
  8   1.168026 -0.537438 -0.063437 -0.313194 -0.210499 -0.245071
  9   6.790376 -0.619176 0.015206 0.005889 0.002318 -1.350643
 10   8.637599 0.544015 -0.090417 -2.533630 -0.173291 -0.234010
 11   6.790465 -0.619039 0.017802 0.006461 -0.010798 -0.960662
 12   -2.022474 -0.104699 -2.873818 -1.371044 0.773630 -4.517998
 13   1.167898 -0.537463 0.063297 1.166145 -0.192429 -0.945947
 14   7.002743 -0.617765 -0.183752 0.000229 0.000250 -1.318850
 15   8.209042 0.615527 -0.255885 2.133809 -0.219930 0.268626
 16   7.002735 -0.617911 -0.183641 0.013920 0.007255 -0.941910
 17   1.574674 0.609930 -0.000899 0.126861 -0.043326 -0.207951
 18   -0.602177 0.511412 -0.000006 0.000000 0.000000 0.000000
 19   3.673773 0.177020 1.119313 -0.000002 -0.000014 -0.174510
 20   3.673767 0.176993 -1.117566 0.000007 -0.000003 -0.174546
 21   3.942357 1.334540 1.627658 0.000002 -0.000011 -0.000026
 22   -0.246060 -0.011889 0.516521 -0.000011 0.000031 0.000025
 23   3.942374 1.334565 -1.631083 0.000019 0.000002 -0.000024
 24   -0.246150 -0.011872 -0.516511 -0.000005 -0.000006 0.000048
 25   4.941364 1.997338 1.629330 0.000018 -0.000001 -0.000024
 26   4.941382 1.997366 -1.629410 -0.000001 0.000005 -0.000024
 27   2.914462 1.619264 1.514501 -0.000019 -0.000022 -0.000050
 28   2.916892 1.618870 -1.501142 -0.000002 -0.000009 -0.000024
 29   8.824059 0.150544 0.091743 0.000006 -0.000231 -0.174534
 30   2.111085 -0.561179 1.784320 -0.000008 -0.000682 0.000024
 31   2.121290 -0.561289 -1.853599 0.000000 0.000000 -0.000002
 32   -0.814395 -0.093824 3.127092 3.071965 -0.114691 1.239365
 33   14.298673 -0.408176 0.471578 0.000248 0.000063 -1.896136
 34   15.835795 0.581398 0.242756 -0.214735 0.106913 -0.097869
 35   -0.815868 -0.091229 -3.114430 0.066464 3.132818 -1.010216
 36   14.294526 -0.410349 -0.467541 0.000021 -0.000012 -2.607695
 37   15.834409 0.579420 -0.284600 -0.006092 -0.035255 0.214508
 38   1.139685 -3.453749 -2.823813 0.000000 0.000000 0.000001
 39   -4.457742 -1.054854 -0.746180 0.000000 0.000000 0.000000
 40   1.118101 -3.449769 3.237290 0.000000 0.000001 0.000000
 41   -4.433840 -1.059130 0.959566 -0.000001 0.000000 0.000000
 42   -0.657468 1.697302 -2.688614 0.000000 0.000002 0.000000
 43   -0.664068 1.698578 2.869377 0.000000 0.000002 0.000000
time 14
  0   -0.967547 0.175787 -20.574476 0.000000 0.000000 -1.572114
  1   -1.093036 0.000002 -0.326057 -1.570756 -1.570425 -0.000171
  2   2.262337 0.113614 0.064702 -0.241441 -0.003331 -0.042551
  3   2.380047 0.353302 0.047440 0.097867 0.009368 0.103558
  4   2.033756 0.190472 -0.000128 -0.147901 -0.024293 0.346387
  5   2.451511 0.204909 -0.003447 -0.141060 -0.008478 0.475979
  6   7.247600 -0.397300 -0.109469 0.000001 0.000033 0.087015
  7   -2.022252 -0.104661 3.136172 1.206762 -1.052517 -4.386567
  8   1.168026 -0.537438 -0.063437 -0.385587 -0.119279 -0.153090
  9   6.790376 -0.619176 0.015206 0.005501 0.002785 -1.518256
 10   8.637599 0.544015 -0.090417 -2.417472 -0.127045 -0.143724
 11   6.790465 -0.619039 0.017802 0.007074 -0.010571 -1.078088
 12   -2.022474 -0.104699 -2.873818 -1.365008 0.788606 -4.513594
 13   1.167898 -0.537463 0.063297 1.161436 -0.255540 -0.981057
 14   7.002743 -0.617765 -0.183752 0.000229 0.000250 -1.423797
 15   8.209042 0.615527 -0.255885 2.147470 -0.177939 0.200190
 16   7.002735 -0.617911 -0.183641 0.013779 0.007819 -1.015262
 17   1.574674 0.609930 -0.000899 0.368233 -0.143768 -0.163487
 18   -0.602177 0.511412 -0.000006 0.000000 0.000000 0.000000
 19   3.673773 0.177020 1.119313 -0.000002 -0.000014 -0.174510
 20   3.673767 0.176993 -1.117566 0.000007 -0.000003 -0.174546
 21   3.942357 1.334540 1.627658 0.000002 -0.000011 -0.000026
 22   -0.246060 -0.011889 0.516521 -0.000011 0.000031 0.000025
 23   3.942374 1.334565 -1.631083 0.000019 0.000002 -0.000024
 24   -0.246150 -0.011872 -0.516511 -0.000005 -0.000006 0.000048
 25   4.941364 1.997338 1.629330 0.000018 -0.000001 -0.000024
 26   4.941382 1.997366 -1.629410 -0.000001 0.000005 -0.000024
 27   2.914462 1.619264 1.514501 -0.000019 -0.000022 -0.000050
 28   2.916892 1.618870 -1.501142 -0.000002 -0.000009 -0.000024
 29   8.824059 0.150544 0.091743 0.000006 -0.000231 -0.174534
 30   2.111085 -0.561179 1.784320 -0.000008 -0.000682 0.000024
 31   2.121290 -0.561289 -1.853599 0.000000 0.000000 -0.000002
 32   -0.814395 -0.093824 3.127092 3.071965 -0.114691 1.239365
 33   14.298673 -0.408176 0.471578 0.000248 0.000063 -1.896136
 34   15.835795 0.581398 0.242756 -0.214735 0.106913 -0.097869
 35   -0.815868 -0.091229 -3.114430 0.066464 3.132818 -1.010216
 36   14.294526 -0.410349 -0.467541 0.000021 -0.000012 -2.607695
 37   15.834409 0.579420 -0.284600 -0.006092 -0.035255 0.214508
 38   1.139685 -3.453749 -2.823813 0.000000 0.000000 0.000001
 39   -4.457742 -1.054854 -0.746180 0.000000 0.000000 0.000000
 40   1.118101 -3.449769 3.237290 0.000000 0.000001 0.000000
 41   -4.433840 -1.059130 0.959566 -0.000001 0.000000 0.000000
 42   -0.657468 1.697302 -2.688614 0.000000 0.000002 0.000000
 43   -0.664068 1.698578 2.869377 0.000000 0.000002 0.000000
time 15
  0   -0.967547 0.175787 -20.574476 0.000000 0.000000 -1.572114
  1   -1.093036 0.000002 -0.326057 -1.570756 -1.570425 -0.000171
  2   2.262337 0.113614 0.064702 -0.241441 -0.007502 -0.059755
  3   2.380047 0.353302 0.047440 0.020476 0.013527 0.086315
  4   2.033756 0.190472 -0.000128 -0.225378 -0.026090 0.329061
  5   2.451511 0.204909 -0.003447 -0.218548 -0.008922 0.458445
  6   7.247600 -0.397300 -0.109469 0.000001 0.000033 0.087015
  7   -2.022252 -0.104661 3.136172 1.219415 -1.038017 -4.397555
  8   1.168026 -0.537438 -0.063437 -0.445830 -0.061317 -0.126331
  9   6.790376 -0.619176 0.015206 0.005390 0.003052 -1.616741
 10   8.637599 0.544015 -0.090417 -2.304133 -0.089034 -0.069354
 11   6.790465 -0.619039 0.017802 0.007483 -0.010457 -1.146951
 12   -2.022474 -0.104699 -2.873818 -1.356577 0.807704 -4.507658
 13   1.167898 -0.537463 0.063297 1.152438 -0.300139 -0.994072
 14   7.002743 -0.617765 -0.183752 0.000286 0.000250 -1.534354
 15   8.209042 0.615527 -0.255885 2.158112 -0.134813 0.133438
 16   7.002735 -0.617911 -0.183641 0.013637 0.008495 -1.092697
 17   1.574674 0.609930 -0.000899 0.576093 -0.236755 -0.159717
 18   -0.602177 0.511412 -0.000006 0.000000 0.000000 0.000000
 19   3.673773 0.177020 1.119313 -0.000002 -0.000014 -0.174510
 20   3.673767 0.176993 -1.117566 0.000007 -0.000003 -0.174546
 21   3.942357 1.334540 1.627658 0.000002 -0.000011 -0.000026
 22   -0.246060 -0.011889 0.516521 -0.000011 0.000031 0.000025
 23   3.942374 1.334565 -1.631083 0.000019 0.000002 -0.000024
 24   -0.246150 -0.011872 -0.516511 -0.000005 -0.000006 0.000048
 25   4.941364 1.997338 1.629330 0.000018 -0.000001 -0.000024
 26   4.941382 1.997366 -1.629410 -0.000001 0.000005 -0.000024
 27   2.914462 1.619264 1.514501 -0.000019 -0.000022 -0.000050
 28   2.916892 1.618870 -1.501142 -0.000002 -0.000009 -0.000024
 29   8.824059 0.150544 0.091743 0.000006 -0.000231 -0.174534
 30   2.111085 -0.561179 1.784320 -0.000008 -0.000682 0.000024
 31   2.121290 -0.561289 -1.853599 0.000000 0.000000 -0.000002
 32   -0.814395 -0.093824 3.127092 3.071965 -0.114691 1.239365
 33   14.298673 -0.408176 0.471578 0.000248 0.000063 -1.896136
 34   15.835795 0.581398 0.242756 -0.214735 0.106913 -0.097869
 35   -0.815868 -0.091229 -3.114430 0.066464 3.132818 -1.010216
 36   14.294526 -0.410349 -0.467541 0.000021 -0.000012 -2.607695
 37   15.834409 0.579420 -0.284600 -0.006092 -0.035255 0.214508
 38   1.139685 -3.453749 -2.823813 0.000000 0.000000 0.000001
 39   -4.457742 -1.054854 -0.746180 0.000000 0.000000 0.000000
 40   1.118101 -3.449769 3.237290 0.000000 0.000001 0.000000
 41   -4.433840 -1.059130 0.959566 -0.000001 0.000000 0.000000
 42   -0.657468 1.697302 -2.688614 0.000000 0.000002 0.000000
 43   -0.664068 1.698578 2.869377 0.000000 0.000002 0.000000
end
