version 1
nodes
  0 "Bip01" -1
  1 "Bip01 Pelvis" 0
  2 "Bip01 Spine" 1
  3 "Bip01 Spine1" 2
  4 "Bip01 Spine2" 3
  5 "Bip01 Spine3" 4
  6 "Bip01 Neck" 5
  7 "Bip01 L Arm" 6
  8 "Bip01 L Arm1" 7
  9 "Bip01 L Arm2" 8
 10 "Bip01 L Hand" 9
 11 "Bip06 L elbow2-smooth" 8
 12 "Bip01 R Arm" 6
 13 "Bip01 R Arm1" 12
 14 "Bip01 R Arm2" 13
 15 "Bip01 R Hand" 14
 16 "Bip06 R elbow2-smooth" 13
 17 "Bip01 Head" 6
 18 "Bip06 Head_helper" 17
 19 "Bip06 Head_eyes_l" 18
 20 "Bip06 Head_eyes_r" 18
 21 "Bip06 Head_blink_l" 18
 22 "Bip06 Head_blink_smooth_l1" 21
 23 "Bip06 Head_blink_r" 18
 24 "Bip06 Head_blink_smooth_r1" 23
 25 "Bip06 Head_L_eyebrow" 18
 26 "Bip06 Head_R_eyebrow" 18
 27 "Bip06 Head_blink_l_lid" 18
 28 "Bip06 Head_blink_r_lid" 18
 29 "Bip06 bunny" 18
 30 "Bip06 bunnyL" 29
 31 "Bip06 bunnyR" 29
 32 "Bip01 L Leg" 1
 33 "Bip01 L Leg1" 32
 34 "Bip01 L Foot" 33
 35 "Bip01 R Leg" 1
 36 "Bip01 R Leg1" 35
 37 "Bip01 R Foot" 36
 38 "Bip03 HairR1" 17
 39 "Bip03 HairR2" 38
 40 "Bip03 HairL1" 17
 41 "Bip03 HairL2" 40
 42 "Bip03 swingR" 17
 43 "Bip03 swingL" 17
end
skeleton
time 0
  0   -0.967547 0.175787 -20.574476 0.000000 0.000000 -1.572114
  1   -1.093036 0.000002 -0.326057 -1.570808 -1.570425 -0.000123
  2   2.262337 0.113614 0.064702 -0.241645 -0.000287 -0.000284
  3   2.380047 0.353302 0.047440 0.020851 0.012891 0.146226
  4   2.033756 0.190472 -0.000128 -0.224419 -0.019463 0.386658
  5   2.451511 0.204909 -0.003447 -0.217076 -0.002590 0.515975
  6   7.247600 -0.397300 -0.109469 0.000001 0.000009 0.087015
  7   -2.022252 -0.104661 3.136172 1.219511 -1.038017 -4.397555
  8   1.168026 -0.537438 -0.063437 -0.445830 -0.061317 -0.126331
  9   6.790376 -0.619176 0.015206 0.005390 0.003052 -1.616741
 10   8.637599 0.544015 -0.090417 -2.304133 -0.089034 -0.069354
 11   6.790465 -0.619039 0.017802 0.007483 -0.010486 -1.146951
 12   -2.022474 -0.104699 -2.873818 -1.356481 0.807704 -4.507658
 13   1.167898 -0.537463 0.063297 1.152438 -0.300139 -0.994072
 14   7.002743 -0.617765 -0.183752 0.000229 0.000250 -1.534354
 15   8.209042 0.615527 -0.255885 2.158112 -0.134813 0.133438
 16   7.002735 -0.617911 -0.183641 0.013637 0.008495 -1.092697
 17   1.574674 0.609930 -0.000899 0.576093 -0.236755 -0.159717
 18   -0.602177 0.511412 -0.000006 0.000000 0.000000 0.000000
 19   3.673773 0.177020 1.119313 -0.000002 -0.000014 -0.174510
 20   3.673767 0.176993 -1.117566 0.000007 -0.000003 -0.174546
 21   3.942357 1.334540 1.627658 0.000002 -0.000011 -0.000026
 22   -0.246060 -0.011889 0.516521 -0.000011 0.000031 0.000025
 23   3.942374 1.334565 -1.631083 0.000019 0.000002 -0.000024
 24   -0.246150 -0.011872 -0.516511 -0.000005 -0.000006 0.000048
 25   4.941364 1.997338 1.629330 0.000018 -0.000001 -0.000024
 26   4.941382 1.997366 -1.629410 -0.000001 0.000005 -0.000024
 27   2.914462 1.619264 1.514501 -0.000019 -0.000022 -0.000050
 28   2.916892 1.618870 -1.501142 -0.000002 -0.000009 -0.000024
 29   8.824059 0.150544 0.091743 0.000006 -0.000231 -0.174534
 30   2.111085 -0.561179 1.784320 -0.000008 -0.000682 0.000024
 31   2.121290 -0.561289 -1.853599 0.000000 0.000000 -0.000002
 32   -0.814395 -0.093824 3.127092 3.071965 -0.114691 1.239365
 33   14.298673 -0.408176 0.471578 0.000248 0.000063 -1.896136
 34   15.835795 0.581398 0.242756 -0.214735 0.106913 -0.097869
 35   -0.815868 -0.091229 -3.114430 0.066464 3.132818 -1.010216
 36   14.294526 -0.410349 -0.467541 0.000021 -0.000012 -2.607695
 37   15.834409 0.579420 -0.284600 -0.006092 -0.035255 0.214508
 38   1.139685 -3.453749 -2.823813 0.000000 0.000000 0.000001
 39   -4.457742 -1.054854 -0.746180 0.000000 0.000000 0.000000
 40   1.118101 -3.449769 3.237290 0.000000 0.000001 0.000000
 41   -4.433840 -1.059130 0.959566 -0.000001 0.000000 0.000000
 42   -0.657468 1.697302 -2.688614 0.000000 0.000002 0.000000
 43   -0.664068 1.698578 2.869377 0.000000 0.000002 0.000000
time 1
  0   -0.967547 0.175787 -20.574476 0.000000 0.000000 -1.572114
  1   -1.093036 0.000002 -0.326057 -1.570808 -1.570425 -0.000123
  2   2.262337 0.113614 0.064702 -0.240294 -0.002492 0.000945
  3   2.380047 0.353302 0.047440 0.015256 0.013167 0.148001
  4   2.033756 0.190472 -0.000128 -0.227499 -0.017761 0.373573
  5   2.451511 0.204909 -0.003447 -0.216494 0.001979 0.501314
  6   7.247600 -0.397300 -0.109469 0.000001 0.000009 0.088947
  7   -2.022252 -0.104661 3.136172 1.242325 -1.066152 -4.423288
  8   1.168026 -0.537438 -0.063437 -0.386726 0.050934 -0.227358
  9   6.790376 -0.619176 0.015206 0.007831 0.016133 -1.617269
 10   8.637599 0.544015 -0.090417 -2.242575 -0.119020 -0.053583
 11   6.790465 -0.619039 0.017802 0.011483 -0.001447 -1.147355
 12   -2.022474 -0.104699 -2.873818 -1.367595 0.910332 -4.515892
 13   1.167898 -0.537463 0.063297 1.082071 -0.369861 -0.988987
 14   7.002743 -0.617765 -0.183752 0.001140 -0.020590 -1.581877
 15   8.209042 0.615527 -0.255885 2.177023 -0.094335 0.081479
 16   7.002735 -0.617911 -0.183641 0.010766 -0.006222 -1.126089
 17   1.574674 0.609930 -0.000899 0.582064 -0.240140 -0.140164
 18   -0.602177 0.511412 -0.000006 0.000000 0.000000 0.000000
 19   3.673773 0.177020 1.119313 -0.000002 -0.000014 -0.174510
 20   3.673767 0.176993 -1.117566 0.000007 -0.000003 -0.174546
 21   3.942357 1.334540 1.627658 0.000002 -0.000011 -0.000026
 22   -0.246060 -0.011889 0.516521 -0.000011 0.000031 0.000025
 23   3.942374 1.334565 -1.631083 0.000019 0.000002 -0.000024
 24   -0.246150 -0.011872 -0.516511 -0.000005 -0.000006 0.000048
 25   4.941364 1.997338 1.629330 0.000018 -0.000001 -0.000024
 26   4.941382 1.997366 -1.629410 -0.000001 0.000005 -0.000024
 27   2.914462 1.619264 1.514501 -0.000019 -0.000022 -0.000050
 28   2.916892 1.618870 -1.501142 -0.000002 -0.000009 -0.000024
 29   8.824059 0.150544 0.091743 0.000006 -0.000231 -0.174534
 30   2.111085 -0.561179 1.784320 -0.000008 -0.000682 0.000024
 31   2.121290 -0.561289 -1.853599 0.000000 0.000000 -0.000002
 32   -0.814395 -0.093824 3.127092 3.071965 -0.114691 1.239365
 33   14.298673 -0.408176 0.471578 0.000248 0.000063 -1.896136
 34   15.835795 0.581398 0.242756 -0.214735 0.106913 -0.097869
 35   -0.815868 -0.091229 -3.114430 0.066464 3.132818 -1.010216
 36   14.294526 -0.410349 -0.467541 0.000021 -0.000012 -2.607695
 37   15.834409 0.579420 -0.284600 -0.006092 -0.035255 0.214508
 38   1.139685 -3.453749 -2.823813 0.000000 0.000000 0.000001
 39   -4.457742 -1.054854 -0.746180 0.000000 0.000000 0.000000
 40   1.118101 -3.449769 3.237290 0.000000 0.000001 0.000000
 41   -4.433840 -1.059130 0.959566 -0.000001 0.000000 0.000000
 42   -0.657468 1.697302 -2.688614 0.000000 0.000002 0.000000
 43   -0.664068 1.698578 2.869377 0.000000 0.000002 0.000000
time 2
  0   -0.967547 0.175787 -20.574476 0.000000 0.000000 -1.572114
  1   -1.093036 0.000002 -0.326057 -1.570808 -1.570425 -0.000123
  2   2.262337 0.113614 0.064702 -0.236218 -0.009215 0.004596
  3   2.380047 0.353302 0.047440 -0.001425 0.013970 0.153225
  4   2.033756 0.190472 -0.000128 -0.236905 -0.012955 0.334462
  5   2.451511 0.204909 -0.003447 -0.215142 0.015975 0.457306
  6   7.247600 -0.397300 -0.109469 0.000001 0.000021 0.094649
  7   -2.022252 -0.104661 3.136172 1.317286 -1.138249 -4.504901
  8   1.168026 -0.537438 -0.063437 -0.279402 0.384568 -0.484638
  9   6.790376 -0.619176 0.015206 0.014045 0.050504 -1.618854
 10   8.637599 0.544015 -0.090417 -2.080800 -0.202292 -0.021028
 11   6.790465 -0.619039 0.017802 0.021906 0.022089 -1.148336
 12   -2.022474 -0.104699 -2.873818 -1.421630 1.183767 -4.562518
 13   1.167898 -0.537463 0.063297 0.879618 -0.551767 -0.946673
 14   7.002743 -0.617765 -0.183752 0.008371 -0.075046 -1.707203
 15   8.209042 0.615527 -0.255885 2.216857 0.016506 -0.051304
 16   7.002735 -0.617911 -0.183641 0.005587 -0.046145 -1.213459
 17   1.574674 0.609930 -0.000899 0.599815 -0.251026 -0.080842
 18   -0.602177 0.511412 -0.000006 0.000000 0.000000 0.000000
 19   3.673773 0.177020 1.119313 -0.000002 -0.000014 -0.174510
 20   3.673767 0.176993 -1.117566 0.000007 -0.000003 -0.174546
 21   3.942357 1.334540 1.627658 0.000002 -0.000011 -0.000026
 22   -0.246060 -0.011889 0.516521 -0.000011 0.000031 0.000025
 23   3.942374 1.334565 -1.631083 0.000019 0.000002 -0.000024
 24   -0.246150 -0.011872 -0.516511 -0.000005 -0.000006 0.000048
 25   4.941364 1.997338 1.629330 0.000018 -0.000001 -0.000024
 26   4.941382 1.997366 -1.629410 -0.000001 0.000005 -0.000024
 27   2.914462 1.619264 1.514501 -0.000019 -0.000022 -0.000050
 28   2.916892 1.618870 -1.501142 -0.000002 -0.000009 -0.000024
 29   8.824059 0.150544 0.091743 0.000006 -0.000231 -0.174534
 30   2.111085 -0.561179 1.784320 -0.000008 -0.000682 0.000024
 31   2.121290 -0.561289 -1.853599 0.000000 0.000000 -0.000002
 32   -0.814395 -0.093824 3.127092 3.071965 -0.114691 1.239365
 33   14.298673 -0.408176 0.471578 0.000248 0.000063 -1.896136
 34   15.835795 0.581398 0.242756 -0.214735 0.106913 -0.097869
 35   -0.815868 -0.091229 -3.114430 0.066464 3.132818 -1.010216
 36   14.294526 -0.410349 -0.467541 0.000021 -0.000012 -2.607695
 37   15.834409 0.579420 -0.284600 -0.006092 -0.035255 0.214508
 38   1.139685 -3.453749 -2.823813 0.000000 0.000000 0.000001
 39   -4.457742 -1.054854 -0.746180 0.000000 0.000000 0.000000
 40   1.118101 -3.449769 3.237290 0.000000 0.000001 0.000000
 41   -4.433840 -1.059130 0.959566 -0.000001 0.000000 0.000000
 42   -0.657468 1.697302 -2.688614 0.000000 0.000002 0.000000
 43   -0.664068 1.698578 2.869377 0.000000 0.000002 0.000000
time 3
  0   -0.967547 0.175787 -20.574476 0.000000 0.000000 -1.572114
  1   -1.093036 0.000002 -0.326057 -1.570808 -1.570425 -0.000123
  2   2.262337 0.113614 0.064702 -0.229761 -0.020073 0.010414
  3   2.380047 0.353302 0.047440 -0.028472 0.015432 0.161632
  4   2.033756 0.190472 -0.000128 -0.252489 -0.005992 0.271139
  5   2.451511 0.204909 -0.003447 -0.214149 0.038692 0.386155
  6   7.247600 -0.397300 -0.109469 0.000001 0.000021 0.103930
  7   -2.022252 -0.104661 3.136172 1.421867 -1.206801 -4.616380
  8   1.168026 -0.537438 -0.063437 -0.262443 0.733448 -0.756151
  9   6.790376 -0.619176 0.015206 0.020314 0.084742 -1.620288
 10   8.637599 0.544015 -0.090417 -1.918673 -0.289646 -0.001929
 11   6.790465 -0.619039 0.017802 0.032329 0.045682 -1.148912
 12   -2.022474 -0.104699 -2.873818 -1.703303 1.451716 -4.836720
 13   1.167898 -0.537463 0.063297 0.638853 -0.721317 -0.851089
 14   7.002743 -0.617765 -0.183752 0.022490 -0.128140 -1.833766
 15   8.209042 0.615527 -0.255885 2.241879 0.131736 -0.180780
 16   7.002735 -0.617911 -0.183641 0.003940 -0.086970 -1.300553
 17   1.574674 0.609930 -0.000899 0.627113 -0.270836 0.015146
 18   -0.602177 0.511412 -0.000006 0.000000 0.000000 0.000000
 19   3.673773 0.177020 1.119313 -0.000002 -0.000014 -0.174510
 20   3.673767 0.176993 -1.117566 0.000007 -0.000003 -0.174546
 21   3.942357 1.334540 1.627658 0.000002 -0.000011 -0.000026
 22   -0.246060 -0.011889 0.516521 -0.000011 0.000031 0.000025
 23   3.942374 1.334565 -1.631083 0.000019 0.000002 -0.000024
 24   -0.246150 -0.011872 -0.516511 -0.000005 -0.000006 0.000048
 25   4.941364 1.997338 1.629330 0.000018 -0.000001 -0.000024
 26   4.941382 1.997366 -1.629410 -0.000001 0.000005 -0.000024
 27   2.914462 1.619264 1.514501 -0.000019 -0.000022 -0.000050
 28   2.916892 1.618870 -1.501142 -0.000002 -0.000009 -0.000024
 29   8.824059 0.150544 0.091743 0.000006 -0.000231 -0.174534
 30   2.111085 -0.561179 1.784320 -0.000008 -0.000682 0.000024
 31   2.121290 -0.561289 -1.853599 0.000000 0.000000 -0.000002
 32   -0.814395 -0.093824 3.127092 3.071965 -0.114691 1.239365
 33   14.298673 -0.408176 0.471578 0.000248 0.000063 -1.896136
 34   15.835795 0.581398 0.242756 -0.214735 0.106913 -0.097869
 35   -0.815868 -0.091229 -3.114430 0.066464 3.132818 -1.010216
 36   14.294526 -0.410349 -0.467541 0.000021 -0.000012 -2.607695
 37   15.834409 0.579420 -0.284600 -0.006092 -0.035255 0.214508
 38   1.139685 -3.453749 -2.823813 0.000000 0.000000 0.000001
 39   -4.457742 -1.054854 -0.746180 0.000000 0.000000 0.000000
 40   1.118101 -3.449769 3.237290 0.000000 0.000001 0.000000
 41   -4.433840 -1.059130 0.959566 -0.000001 0.000000 0.000000
 42   -0.657468 1.697302 -2.688614 0.000000 0.000002 0.000000
 43   -0.664068 1.698578 2.869377 0.000000 0.000002 0.000000
time 4
  0   -0.967547 0.175787 -20.574476 0.000000 0.000000 -1.572114
  1   -1.093036 0.000002 -0.326057 -1.570808 -1.570425 -0.000123
  2   2.262337 0.113614 0.064702 -0.221609 -0.033880 0.017679
  3   2.380047 0.353302 0.047440 -0.062719 0.017637 0.172243
  4   2.033756 0.190472 -0.000128 -0.272905 0.001366 0.190199
  5   2.451511 0.204909 -0.003447 -0.215330 0.067806 0.294845
  6   7.247600 -0.397300 -0.109469 0.000001 0.000021 0.115650
  7   -2.022252 -0.104661 3.136172 1.473151 -1.231650 -4.670100
  8   1.168026 -0.537438 -0.063437 -0.290413 0.858831 -0.877105
  9   6.790376 -0.619176 0.015206 0.022644 0.097890 -1.620665
 10   8.637599 0.544015 -0.090417 -1.856499 -0.323504 0.001688
 11   6.790465 -0.619039 0.017802 0.036329 0.054665 -1.148970
 12   -2.022474 -0.104699 -2.873818 -2.729876 1.524450 -5.860575
 13   1.167898 -0.537463 0.063297 0.533268 -0.778986 -0.797092
 14   7.002743 -0.617765 -0.183752 0.029607 -0.147787 -1.882444
 15   8.209042 0.615527 -0.255885 2.247559 0.176072 -0.229611
 16   7.002735 -0.617911 -0.183641 0.004222 -0.102702 -1.333779
 17   1.574674 0.609930 -0.000899 0.659204 -0.299780 0.138263
 18   -0.602177 0.511412 -0.000006 0.000000 0.000000 0.000000
 19   3.673773 0.177020 1.119313 -0.000002 -0.000014 -0.174510
 20   3.673767 0.176993 -1.117566 0.000007 -0.000003 -0.174546
 21   3.942357 1.334540 1.627658 0.000002 -0.000011 -0.000026
 22   -0.246060 -0.011889 0.516521 -0.000011 0.000031 0.000025
 23   3.942374 1.334565 -1.631083 0.000019 0.000002 -0.000024
 24   -0.246150 -0.011872 -0.516511 -0.000005 -0.000006 0.000048
 25   4.941364 1.997338 1.629330 0.000018 -0.000001 -0.000024
 26   4.941382 1.997366 -1.629410 -0.000001 0.000005 -0.000024
 27   2.914462 1.619264 1.514501 -0.000019 -0.000022 -0.000050
 28   2.916892 1.618870 -1.501142 -0.000002 -0.000009 -0.000024
 29   8.824059 0.150544 0.091743 0.000006 -0.000231 -0.174534
 30   2.111085 -0.561179 1.784320 -0.000008 -0.000682 0.000024
 31   2.121290 -0.561289 -1.853599 0.000000 0.000000 -0.000002
 32   -0.814395 -0.093824 3.127092 3.071965 -0.114691 1.239365
 33   14.298673 -0.408176 0.471578 0.000248 0.000063 -1.896136
 34   15.835795 0.581398 0.242756 -0.214735 0.106913 -0.097869
 35   -0.815868 -0.091229 -3.114430 0.066464 3.132818 -1.010216
 36   14.294526 -0.410349 -0.467541 0.000021 -0.000012 -2.607695
 37   15.834409 0.579420 -0.284600 -0.006092 -0.035255 0.214508
 38   1.139685 -3.453749 -2.823813 0.000000 0.000000 0.000001
 39   -4.457742 -1.054854 -0.746180 0.000000 0.000000 0.000000
 40   1.118101 -3.449769 3.237290 0.000000 0.000001 0.000000
 41   -4.433840 -1.059130 0.959566 -0.000001 0.000000 0.000000
 42   -0.657468 1.697302 -2.688614 0.000000 0.000002 0.000000
 43   -0.664068 1.698578 2.869377 0.000000 0.000002 0.000000
time 5
  0   -0.967547 0.175787 -20.574476 0.000000 0.000000 -1.572114
  1   -1.093036 0.000002 -0.326057 -1.570808 -1.570425 -0.000123
  2   2.262337 0.113614 0.064702 -0.212972 -0.048824 0.025449
  3   2.380047 0.353302 0.047440 -0.099742 0.020454 0.183609
  4   2.033756 0.190472 -0.000128 -0.295626 0.007514 0.102699
  5   2.451511 0.204909 -0.003447 -0.219575 0.099035 0.195808
  6   7.247600 -0.397300 -0.109469 0.000001 0.000021 0.128289
  7   -2.022252 -0.104661 3.136172 1.473151 -1.231650 -4.670100
  8   1.168026 -0.537438 -0.063437 -0.290413 0.858831 -0.877105
  9   6.790376 -0.619176 0.015206 0.022644 0.097890 -1.620816
 10   8.637599 0.544015 -0.090417 -1.856499 -0.323504 0.001688
 11   6.790465 -0.619039 0.017802 0.036329 0.054665 -1.148970
 12   -2.022474 -0.104699 -2.873818 -2.729876 1.524450 -5.860575
 13   1.167898 -0.537463 0.063297 0.533268 -0.778986 -0.797092
 14   7.002743 -0.617765 -0.183752 0.029607 -0.147787 -1.882444
 15   8.209042 0.615527 -0.255885 2.247559 0.176072 -0.229611
 16   7.002735 -0.617911 -0.183641 0.004222 -0.102702 -1.333779
 17   1.574674 0.609930 -0.000899 0.689670 -0.334973 0.271064
 18   -0.602177 0.511412 -0.000006 0.000000 0.000000 0.000000
 19   3.673773 0.177020 1.119313 -0.000002 -0.000014 -0.174510
 20   3.673767 0.176993 -1.117566 0.000007 -0.000003 -0.174546
 21   3.942357 1.334540 1.627658 0.000002 -0.000011 -0.000026
 22   -0.246060 -0.011889 0.516521 -0.000011 0.000031 0.000025
 23   3.942374 1.334565 -1.631083 0.000019 0.000002 -0.000024
 24   -0.246150 -0.011872 -0.516511 -0.000005 -0.000006 0.000048
 25   4.941364 1.997338 1.629330 0.000018 -0.000001 -0.000024
 26   4.941382 1.997366 -1.629410 -0.000001 0.000005 -0.000024
 27   2.914462 1.619264 1.514501 -0.000019 -0.000022 -0.000050
 28   2.916892 1.618870 -1.501142 -0.000002 -0.000009 -0.000024
 29   8.824059 0.150544 0.091743 0.000006 -0.000231 -0.174534
 30   2.111085 -0.561179 1.784320 -0.000008 -0.000682 0.000024
 31   2.121290 -0.561289 -1.853599 0.000000 0.000000 -0.000002
 32   -0.814395 -0.093824 3.127092 3.071965 -0.114691 1.239365
 33   14.298673 -0.408176 0.471578 0.000248 0.000063 -1.896136
 34   15.835795 0.581398 0.242756 -0.214735 0.106913 -0.097869
 35   -0.815868 -0.091229 -3.114430 0.066464 3.132818 -1.010216
 36   14.294526 -0.410349 -0.467541 0.000021 -0.000012 -2.607695
 37   15.834409 0.579420 -0.284600 -0.006092 -0.035255 0.214508
 38   1.139685 -3.453749 -2.823813 0.000000 0.000000 0.000001
 39   -4.457742 -1.054854 -0.746180 0.000000 0.000000 0.000000
 40   1.118101 -3.449769 3.237290 0.000000 0.000001 0.000000
 41   -4.433840 -1.059130 0.959566 -0.000001 0.000000 0.000000
 42   -0.657468 1.697302 -2.688614 0.000000 0.000002 0.000000
 43   -0.664068 1.698578 2.869377 0.000000 0.000002 0.000000
time 6
  0   -0.967547 0.175787 -20.574476 0.000000 0.000000 -1.572114
  1   -1.093036 0.000002 -0.326057 -1.570808 -1.570425 -0.000123
  2   2.262337 0.113614 0.064702 -0.205062 -0.062703 0.032461
  3   2.380047 0.353302 0.047440 -0.133914 0.023414 0.194016
  4   2.033756 0.190472 -0.000128 -0.317001 0.011397 0.021614
  5   2.451511 0.204909 -0.003447 -0.226302 0.127391 0.103755
  6   7.247600 -0.397300 -0.109469 0.000001 0.000021 0.140009
  7   -2.022252 -0.104661 3.136172 1.473151 -1.231650 -4.670100
  8   1.168026 -0.537438 -0.063437 -0.290413 0.858831 -0.877105
  9   6.790376 -0.619176 0.015206 0.022644 0.097890 -1.620665
 10   8.637599 0.544015 -0.090417 -1.856499 -0.323504 0.001688
 11   6.790465 -0.619039 0.017802 0.036329 0.054665 -1.148970
 12   -2.022474 -0.104699 -2.873818 -2.729876 1.524450 -5.860575
 13   1.167898 -0.537463 0.063297 0.533268 -0.778986 -0.797092
 14   7.002743 -0.617765 -0.183752 0.029607 -0.147787 -1.882444
 15   8.209042 0.615527 -0.255885 2.247559 0.176072 -0.229611
 16   7.002735 -0.617911 -0.183641 0.004222 -0.102702 -1.333779
 17   1.574674 0.609930 -0.000899 0.713352 -0.370284 0.393627
 18   -0.602177 0.511412 -0.000006 0.000000 0.000000 0.000000
 19   3.673773 0.177020 1.119313 -0.000002 -0.000014 -0.174510
 20   3.673767 0.176993 -1.117566 0.000007 -0.000003 -0.174546
 21   3.942357 1.334540 1.627658 0.000002 -0.000011 -0.000026
 22   -0.246060 -0.011889 0.516521 -0.000011 0.000031 0.000025
 23   3.942374 1.334565 -1.631083 0.000019 0.000002 -0.000024
 24   -0.246150 -0.011872 -0.516511 -0.000005 -0.000006 0.000048
 25   4.941364 1.997338 1.629330 0.000018 -0.000001 -0.000024
 26   4.941382 1.997366 -1.629410 -0.000001 0.000005 -0.000024
 27   2.914462 1.619264 1.514501 -0.000019 -0.000022 -0.000050
 28   2.916892 1.618870 -1.501142 -0.000002 -0.000009 -0.000024
 29   8.824059 0.150544 0.091743 0.000006 -0.000231 -0.174534
 30   2.111085 -0.561179 1.784320 -0.000008 -0.000682 0.000024
 31   2.121290 -0.561289 -1.853599 0.000000 0.000000 -0.000002
 32   -0.814395 -0.093824 3.127092 3.071965 -0.114691 1.239365
 33   14.298673 -0.408176 0.471578 0.000248 0.000063 -1.896136
 34   15.835795 0.581398 0.242756 -0.214735 0.106913 -0.097869
 35   -0.815868 -0.091229 -3.114430 0.066464 3.132818 -1.010216
 36   14.294526 -0.410349 -0.467541 0.000021 -0.000012 -2.607695
 37   15.834409 0.579420 -0.284600 -0.006092 -0.035255 0.214508
 38   1.139685 -3.453749 -2.823813 0.000000 0.000000 0.000001
 39   -4.457742 -1.054854 -0.746180 0.000000 0.000000 0.000000
 40   1.118101 -3.449769 3.237290 0.000000 0.000001 0.000000
 41   -4.433840 -1.059130 0.959566 -0.000001 0.000000 0.000000
 42   -0.657468 1.697302 -2.688614 0.000000 0.000002 0.000000
 43   -0.664068 1.698578 2.869377 0.000000 0.000002 0.000000
time 7
  0   -0.967547 0.175787 -20.574476 0.000000 0.000000 -1.572114
  1   -1.093036 0.000002 -0.326057 -1.570808 -1.570425 -0.000123
  2   2.262337 0.113614 0.064702 -0.198948 -0.073633 0.037882
  3   2.380047 0.353302 0.047440 -0.160706 0.025979 0.202076
  4   2.033756 0.190472 -0.000128 -0.333913 0.013231 -0.041854
  5   2.451511 0.204909 -0.003447 -0.233337 0.149090 0.031341
  6   7.247600 -0.397300 -0.109469 0.000001 0.000021 0.149290
  7   -2.022252 -0.104661 3.136172 1.473151 -1.231650 -4.670100
  8   1.168026 -0.537438 -0.063437 -0.290413 0.858831 -0.877105
  9   6.790376 -0.619176 0.015206 0.022644 0.097890 -1.620665
 10   8.637599 0.544015 -0.090417 -1.856499 -0.323504 0.001688
 11   6.790465 -0.619039 0.017802 0.036329 0.054665 -1.148970
 12   -2.022474 -0.104699 -2.873818 -2.729876 1.524450 -5.860575
 13   1.167898 -0.537463 0.063297 0.533268 -0.778986 -0.797092
 14   7.002743 -0.617765 -0.183752 0.029607 -0.147787 -1.882444
 15   8.209042 0.615527 -0.255885 2.247559 0.176072 -0.229611
 16   7.002735 -0.617911 -0.183641 0.004222 -0.102702 -1.333779
 17   1.574674 0.609930 -0.000899 0.728545 -0.399299 0.488839
 18   -0.602177 0.511412 -0.000006 0.000000 0.000000 0.000000
 19   3.673773 0.177020 1.119313 -0.000002 -0.000014 -0.174510
 20   3.673767 0.176993 -1.117566 0.000007 -0.000003 -0.174546
 21   3.942357 1.334540 1.627658 0.000002 -0.000011 -0.000026
 22   -0.246060 -0.011889 0.516521 -0.000011 0.000031 0.000025
 23   3.942374 1.334565 -1.631083 0.000019 0.000002 -0.000024
 24   -0.246150 -0.011872 -0.516511 -0.000005 -0.000006 0.000048
 25   4.941364 1.997338 1.629330 0.000018 -0.000001 -0.000024
 26   4.941382 1.997366 -1.629410 -0.000001 0.000005 -0.000024
 27   2.914462 1.619264 1.514501 -0.000019 -0.000022 -0.000050
 28   2.916892 1.618870 -1.501142 -0.000002 -0.000009 -0.000024
 29   8.824059 0.150544 0.091743 0.000006 -0.000231 -0.174534
 30   2.111085 -0.561179 1.784320 -0.000008 -0.000682 0.000024
 31   2.121290 -0.561289 -1.853599 0.000000 0.000000 -0.000002
 32   -0.814395 -0.093824 3.127092 3.071965 -0.114691 1.239365
 33   14.298673 -0.408176 0.471578 0.000248 0.000063 -1.896136
 34   15.835795 0.581398 0.242756 -0.214735 0.106913 -0.097869
 35   -0.815868 -0.091229 -3.114430 0.066464 3.132818 -1.010216
 36   14.294526 -0.410349 -0.467541 0.000021 -0.000012 -2.607695
 37   15.834409 0.579420 -0.284600 -0.006092 -0.035255 0.214508
 38   1.139685 -3.453749 -2.823813 0.000000 0.000000 0.000001
 39   -4.457742 -1.054854 -0.746180 0.000000 0.000000 0.000000
 40   1.118101 -3.449769 3.237290 0.000000 0.000001 0.000000
 41   -4.433840 -1.059130 0.959566 -0.000001 0.000000 0.000000
 42   -0.657468 1.697302 -2.688614 0.000000 0.000002 0.000000
 43   -0.664068 1.698578 2.869377 0.000000 0.000002 0.000000
time 8
  0   -0.967547 0.175787 -20.574476 0.000000 0.000000 -1.572114
  1   -1.093036 0.000002 -0.326057 -1.570808 -1.570425 -0.000123
  2   2.262337 0.113614 0.064702 -0.195153 -0.080440 0.041243
  3   2.380047 0.353302 0.047440 -0.177357 0.027656 0.207096
  4   2.033756 0.190472 -0.000128 -0.344425 0.013830 -0.081110
  5   2.451511 0.204909 -0.003447 -0.238592 0.162250 -0.013658
  6   7.247600 -0.397300 -0.109469 0.000001 0.000021 0.154992
  7   -2.022252 -0.104661 3.136172 1.473151 -1.231650 -4.670100
  8   1.168026 -0.537438 -0.063437 -0.290413 0.858831 -0.877105
  9   6.790376 -0.619176 0.015206 0.022644 0.097890 -1.620665
 10   8.637599 0.544015 -0.090417 -1.856499 -0.323504 0.001688
 11   6.790465 -0.619039 0.017802 0.036329 0.054665 -1.148970
 12   -2.022474 -0.104699 -2.873818 -2.729876 1.524450 -5.860575
 13   1.167898 -0.537463 0.063297 0.533268 -0.778986 -0.797092
 14   7.002743 -0.617765 -0.183752 0.029607 -0.147787 -1.882444
 15   8.209042 0.615527 -0.255885 2.247559 0.176072 -0.229611
 16   7.002735 -0.617911 -0.183641 0.004222 -0.102702 -1.333779
 17   1.574674 0.609930 -0.000899 0.736425 -0.417760 0.547607
 18   -0.602177 0.511412 -0.000006 0.000000 0.000000 0.000000
 19   3.673773 0.177020 1.119313 -0.000002 -0.000014 -0.174510
 20   3.673767 0.176993 -1.117566 0.000007 -0.000003 -0.174546
 21   3.942357 1.334540 1.627658 0.000002 -0.000011 -0.000026
 22   -0.246060 -0.011889 0.516521 -0.000011 0.000031 0.000025
 23   3.942374 1.334565 -1.631083 0.000019 0.000002 -0.000024
 24   -0.246150 -0.011872 -0.516511 -0.000005 -0.000006 0.000048
 25   4.941364 1.997338 1.629330 0.000018 -0.000001 -0.000024
 26   4.941382 1.997366 -1.629410 -0.000001 0.000005 -0.000024
 27   2.914462 1.619264 1.514501 -0.000019 -0.000022 -0.000050
 28   2.916892 1.618870 -1.501142 -0.000002 -0.000009 -0.000024
 29   8.824059 0.150544 0.091743 0.000006 -0.000231 -0.174534
 30   2.111085 -0.561179 1.784320 -0.000008 -0.000682 0.000024
 31   2.121290 -0.561289 -1.853599 0.000000 0.000000 -0.000002
 32   -0.814395 -0.093824 3.127092 3.071965 -0.114691 1.239365
 33   14.298673 -0.408176 0.471578 0.000248 0.000063 -1.896136
 34   15.835795 0.581398 0.242756 -0.214735 0.106913 -0.097869
 35   -0.815868 -0.091229 -3.114430 0.066464 3.132818 -1.010216
 36   14.294526 -0.410349 -0.467541 0.000021 -0.000012 -2.607695
 37   15.834409 0.579420 -0.284600 -0.006092 -0.035255 0.214508
 38   1.139685 -3.453749 -2.823813 0.000000 0.000000 0.000001
 39   -4.457742 -1.054854 -0.746180 0.000000 0.000000 0.000000
 40   1.118101 -3.449769 3.237290 0.000000 0.000001 0.000000
 41   -4.433840 -1.059130 0.959566 -0.000001 0.000000 0.000000
 42   -0.657468 1.697302 -2.688614 0.000000 0.000002 0.000000
 43   -0.664068 1.698578 2.869377 0.000000 0.000002 0.000000
time 9
  0   -0.967547 0.175787 -20.574476 0.000000 0.000000 -1.572114
  1   -1.093036 0.000002 -0.326057 -1.570808 -1.570425 -0.000123
  2   2.262337 0.113614 0.064702 -0.193904 -0.082717 0.042400
  3   2.380047 0.353302 0.047440 -0.182832 0.028268 0.208708
  4   2.033756 0.190472 -0.000128 -0.347911 0.013926 -0.094195
  5   2.451511 0.204909 -0.003447 -0.240372 0.166584 -0.028567
  6   7.247600 -0.397300 -0.109469 0.000001 0.000021 0.156829
  7   -2.022252 -0.104661 3.136172 1.473151 -1.231650 -4.670100
  8   1.168026 -0.537438 -0.063437 -0.290413 0.858831 -0.877105
  9   6.790376 -0.619176 0.015206 0.022644 0.097890 -1.620665
 10   8.637599 0.544015 -0.090417 -1.856499 -0.323504 0.001688
 11   6.790465 -0.619039 0.017802 0.036329 0.054665 -1.148970
 12   -2.022474 -0.104699 -2.873818 -2.729876 1.524450 -5.860575
 13   1.167898 -0.537463 0.063297 0.533268 -0.778986 -0.797092
 14   7.002743 -0.617765 -0.183752 0.029607 -0.147787 -1.882444
 15   8.209042 0.615527 -0.255885 2.247559 0.176072 -0.229611
 16   7.002735 -0.617911 -0.183641 0.004222 -0.102702 -1.333779
 17   1.574674 0.609930 -0.000899 0.738822 -0.423866 0.567048
 18   -0.602177 0.511412 -0.000006 0.000000 0.000000 0.000000
 19   3.673773 0.177020 1.119313 -0.000002 -0.000014 -0.174510
 20   3.673767 0.176993 -1.117566 0.000007 -0.000003 -0.174546
 21   3.942357 1.334540 1.627658 0.000002 -0.000011 -0.000026
 22   -0.246060 -0.011889 0.516521 -0.000011 0.000031 0.000025
 23   3.942374 1.334565 -1.631083 0.000019 0.000002 -0.000024
 24   -0.246150 -0.011872 -0.516511 -0.000005 -0.000006 0.000048
 25   4.941364 1.997338 1.629330 0.000018 -0.000001 -0.000024
 26   4.941382 1.997366 -1.629410 -0.000001 0.000005 -0.000024
 27   2.914462 1.619264 1.514501 -0.000019 -0.000022 -0.000050
 28   2.916892 1.618870 -1.501142 -0.000002 -0.000009 -0.000024
 29   8.824059 0.150544 0.091743 0.000006 -0.000231 -0.174534
 30   2.111085 -0.561179 1.784320 -0.000008 -0.000682 0.000024
 31   2.121290 -0.561289 -1.853599 0.000000 0.000000 -0.000002
 32   -0.814395 -0.093824 3.127092 3.071965 -0.114691 1.239365
 33   14.298673 -0.408176 0.471578 0.000248 0.000063 -1.896136
 34   15.835795 0.581398 0.242756 -0.214735 0.106913 -0.097869
 35   -0.815868 -0.091229 -3.114430 0.066464 3.132818 -1.010216
 36   14.294526 -0.410349 -0.467541 0.000021 -0.000012 -2.607695
 37   15.834409 0.579420 -0.284600 -0.006092 -0.035255 0.214508
 38   1.139685 -3.453749 -2.823813 0.000000 0.000000 0.000001
 39   -4.457742 -1.054854 -0.746180 0.000000 0.000000 0.000000
 40   1.118101 -3.449769 3.237290 0.000000 0.000001 0.000000
 41   -4.433840 -1.059130 0.959566 -0.000001 0.000000 0.000000
 42   -0.657468 1.697302 -2.688614 0.000000 0.000002 0.000000
 43   -0.664068 1.698578 2.869377 0.000000 0.000002 0.000000
end
