version 1
nodes
  0 "Bip01" -1
  1 "Bip01 Pelvis" 0
  2 "Bip01 Spine" 1
  3 "Bip01 Spine1" 2
  4 "Bip01 Spine2" 3
  5 "Bip01 Spine3" 4
  6 "Bip01 Neck" 5
  7 "Bip01 L Arm" 6
  8 "Bip01 L Arm1" 7
  9 "Bip01 L Arm2" 8
 10 "Bip01 L Hand" 9
 11 "Bip06 L elbow2-smooth" 8
 12 "Bip01 R Arm" 6
 13 "Bip01 R Arm1" 12
 14 "Bip01 R Arm2" 13
 15 "Bip01 R Hand" 14
 16 "Bip06 R elbow2-smooth" 13
 17 "Bip01 Head" 6
 18 "Bip06 Head_helper" 17
 19 "Bip06 Head_eyes_l" 18
 20 "Bip06 Head_eyes_r" 18
 21 "Bip06 Head_blink_l" 18
 22 "Bip06 Head_blink_smooth_l1" 21
 23 "Bip06 Head_blink_r" 18
 24 "Bip06 Head_blink_smooth_r1" 23
 25 "Bip06 Head_L_eyebrow" 18
 26 "Bip06 Head_R_eyebrow" 18
 27 "Bip06 Head_blink_l_lid" 18
 28 "Bip06 Head_blink_r_lid" 18
 29 "Bip06 bunny" 18
 30 "Bip06 bunnyL" 29
 31 "Bip06 bunnyR" 29
 32 "Bip01 L Leg" 1
 33 "Bip01 L Leg1" 32
 34 "Bip01 L Foot" 33
 35 "Bip01 R Leg" 1
 36 "Bip01 R Leg1" 35
 37 "Bip01 R Foot" 36
 38 "Bip03 HairR1" 17
 39 "Bip03 HairR2" 38
 40 "Bip03 HairL1" 17
 41 "Bip03 HairL2" 40
 42 "Bip03 swingR" 17
 43 "Bip03 swingL" 17
end
skeleton
time 0
  0   -0.967547 0.175787 -20.574476 0.000000 0.000000 -1.572114
  1   -1.093036 0.000002 -0.326057 -1.570861 -1.570611 -0.003413
  2   2.262337 0.113614 0.064702 -0.001721 0.024449 -0.071971
  3   2.380047 0.353302 0.047440 -0.010516 0.011921 0.007366
  4   2.033756 0.190472 -0.000128 0.144653 -0.018324 0.131696
  5   2.451511 0.204909 -0.003447 0.296019 0.025963 0.110070
  6   7.247600 -0.397300 -0.109469 -0.091897 0.032631 0.231869
  7   -2.022252 -0.104661 3.136172 1.227276 -1.771555 -4.594591
  8   1.168026 -0.537438 -0.063437 -0.859557 0.775762 -1.124896
  9   6.790376 -0.619176 0.015206 -0.000102 -0.000085 -1.220159
 10   8.637599 0.544015 -0.090417 -1.447174 0.185489 -0.201889
 11   6.790465 -0.619039 0.017802 0.001293 -0.011566 -0.869305
 12   -2.022474 -0.104699 -2.873818 -1.200412 0.657795 -4.369599
 13   1.167898 -0.537463 0.063297 -0.906259 -0.492776 -0.520206
 14   7.002743 -0.617765 -0.183752 0.000059 0.000023 -1.605639
 15   8.209042 0.615527 -0.255885 2.053565 -0.253598 0.274159
 16   7.002735 -0.617911 -0.183641 0.013449 0.008777 -1.142702
 17   1.574674 0.609930 -0.000899 0.032091 0.404404 0.483590
 18   -0.602177 0.511412 -0.000006 0.000000 0.000000 0.000000
 19   3.673773 0.177020 1.119313 -0.000002 -0.000014 -0.174510
 20   3.673767 0.176993 -1.117566 0.000007 -0.000003 -0.174546
 21   3.942357 1.334540 1.627658 0.000002 -0.000011 -0.000026
 22   -0.246060 -0.011889 0.516521 -0.000011 0.000031 0.000025
 23   3.942374 1.334565 -1.631083 0.000019 0.000002 -0.000024
 24   -0.246150 -0.011872 -0.516511 -0.000005 -0.000006 0.000048
 25   4.941364 1.997338 1.629330 0.000018 -0.000001 -0.000024
 26   4.941382 1.997366 -1.629410 -0.000001 0.000005 -0.000024
 27   2.914462 1.619264 1.514501 -0.000019 -0.000022 -0.000050
 28   2.916892 1.618870 -1.501142 -0.000002 -0.000009 -0.000024
 29   8.824059 0.150544 0.091743 0.000006 -0.000231 -0.174534
 30   2.111085 -0.561179 1.784320 -0.000008 -0.000682 0.000024
 31   2.121290 -0.561289 -1.853599 0.000000 0.000000 -0.000002
 32   -0.814395 -0.093824 3.127092 3.071965 -0.114691 1.239365
 33   14.298673 -0.408176 0.471578 0.000248 0.000063 -1.896136
 34   15.835795 0.581398 0.242756 -0.214735 0.106913 -0.097869
 35   -0.815868 -0.091229 -3.114430 0.066464 3.132818 -1.010216
 36   14.294526 -0.410349 -0.467541 0.000021 -0.000012 -2.607695
 37   15.834409 0.579420 -0.284600 -0.006092 -0.035255 0.214508
 38   1.139685 -3.453749 -2.823813 0.000000 0.000000 0.000001
 39   -4.457742 -1.054854 -0.746180 0.000000 0.000000 0.000000
 40   1.118101 -3.449769 3.237290 0.000000 0.000001 0.000000
 41   -4.433840 -1.059130 0.959566 -0.000001 0.000000 0.000000
 42   -0.657468 1.697302 -2.688614 0.000000 0.000002 0.000000
 43   -0.664068 1.698578 2.869377 0.000000 0.000002 0.000000
time 1
  0   -0.967547 0.175787 -20.574476 0.000000 0.000000 -1.572114
  1   -1.093036 0.000002 -0.326057 -1.570861 -1.570611 -0.003413
  2   2.262337 0.113614 0.064702 -0.000218 0.021082 -0.070706
  3   2.380047 0.353302 0.047440 0.009901 0.013443 0.009570
  4   2.033756 0.190472 -0.000128 0.053529 -0.039154 0.131225
  5   2.451511 0.204909 -0.003447 0.127281 0.000922 0.092982
  6   7.247600 -0.397300 -0.109469 -0.091897 0.032631 0.231869
  7   -2.022252 -0.104661 3.136172 1.267057 -1.731629 -4.638168
  8   1.168026 -0.537438 -0.063437 -0.675158 0.822957 -0.706049
  9   6.790376 -0.619176 0.015206 -0.000102 -0.000085 -1.157295
 10   8.637599 0.544015 -0.090417 -1.645672 0.220754 -0.056766
 11   6.790465 -0.619039 0.017802 0.001060 -0.011538 -0.825299
 12   -2.022474 -0.104699 -2.873818 -1.188915 0.920113 -4.472904
 13   1.167898 -0.537463 0.063297 -0.783030 -0.600537 -0.834563
 14   7.002743 -0.617765 -0.183752 0.000059 0.000023 -1.497309
 15   8.209042 0.615527 -0.255885 2.055003 -0.366936 0.373566
 16   7.002735 -0.617911 -0.183641 0.013590 0.008157 -1.066812
 17   1.574674 0.609930 -0.000899 0.157083 0.208560 0.533894
 18   -0.602177 0.511412 -0.000006 0.000000 0.000000 0.000000
 19   3.673773 0.177020 1.119313 -0.000002 -0.000014 -0.174510
 20   3.673767 0.176993 -1.117566 0.000007 -0.000003 -0.174546
 21   3.942357 1.334540 1.627658 0.000002 -0.000011 -0.000026
 22   -0.246060 -0.011889 0.516521 -0.000011 0.000031 0.000025
 23   3.942374 1.334565 -1.631083 0.000019 0.000002 -0.000024
 24   -0.246150 -0.011872 -0.516511 -0.000005 -0.000006 0.000048
 25   4.941364 1.997338 1.629330 0.000018 -0.000001 -0.000024
 26   4.941382 1.997366 -1.629410 -0.000001 0.000005 -0.000024
 27   2.914462 1.619264 1.514501 -0.000019 -0.000022 -0.000050
 28   2.916892 1.618870 -1.501142 -0.000002 -0.000009 -0.000024
 29   8.824059 0.150544 0.091743 0.000006 -0.000231 -0.174534
 30   2.111085 -0.561179 1.784320 -0.000008 -0.000682 0.000024
 31   2.121290 -0.561289 -1.853599 0.000000 0.000000 -0.000002
 32   -0.814395 -0.093824 3.127092 3.071965 -0.114691 1.239365
 33   14.298673 -0.408176 0.471578 0.000248 0.000063 -1.896136
 34   15.835795 0.581398 0.242756 -0.214735 0.106913 -0.097869
 35   -0.815868 -0.091229 -3.114430 0.066464 3.132818 -1.010216
 36   14.294526 -0.410349 -0.467541 0.000021 -0.000012 -2.607695
 37   15.834409 0.579420 -0.284600 -0.006092 -0.035255 0.214508
 38   1.139685 -3.453749 -2.823813 0.000000 0.000000 0.000001
 39   -4.457742 -1.054854 -0.746180 0.000000 0.000000 0.000000
 40   1.118101 -3.449769 3.237290 0.000000 0.000001 0.000000
 41   -4.433840 -1.059130 0.959566 -0.000001 0.000000 0.000000
 42   -0.657468 1.697302 -2.688614 0.000000 0.000002 0.000000
 43   -0.664068 1.698578 2.869377 0.000000 0.000002 0.000000
time 2
  0   -0.967547 0.175787 -20.574476 0.000000 0.000000 -1.572114
  1   -1.093036 0.000002 -0.326057 -1.570861 -1.570611 -0.003413
  2   2.262337 0.113614 0.064702 0.001311 0.017498 -0.069441
  3   2.380047 0.353302 0.047440 0.030422 0.014905 0.011937
  4   2.033756 0.190472 -0.000128 -0.037854 -0.059156 0.132131
  5   2.451511 0.204909 -0.003447 -0.040961 -0.025254 0.080228
  6   7.247600 -0.397300 -0.109469 -0.091897 0.032631 0.231869
  7   -2.022252 -0.104661 3.136172 1.335212 -1.692078 -4.708512
  8   1.168026 -0.537438 -0.063437 -0.502655 0.830504 -0.298589
  9   6.790376 -0.619176 0.015206 -0.000102 -0.000085 -1.094506
 10   8.637599 0.544015 -0.090417 -1.852976 0.281360 0.063615
 11   6.790465 -0.619039 0.017802 0.000797 -0.011481 -0.781350
 12   -2.022474 -0.104699 -2.873818 -1.284339 1.190036 -4.635759
 13   1.167898 -0.537463 0.063297 -0.533267 -0.675141 -1.218111
 14   7.002743 -0.617765 -0.183752 0.000059 0.000023 -1.388897
 15   8.209042 0.615527 -0.255885 2.044578 -0.477777 0.480310
 16   7.002735 -0.617911 -0.183641 0.013732 0.007537 -0.990866
 17   1.574674 0.609930 -0.000899 0.271554 0.013545 0.538588
 18   -0.602177 0.511412 -0.000006 0.000000 0.000000 0.000000
 19   3.673773 0.177020 1.119313 -0.000002 -0.000014 -0.174510
 20   3.673767 0.176993 -1.117566 0.000007 -0.000003 -0.174546
 21   3.942357 1.334540 1.627658 0.000002 -0.000011 -0.000026
 22   -0.246060 -0.011889 0.516521 -0.000011 0.000031 0.000025
 23   3.942374 1.334565 -1.631083 0.000019 0.000002 -0.000024
 24   -0.246150 -0.011872 -0.516511 -0.000005 -0.000006 0.000048
 25   4.941364 1.997338 1.629330 0.000018 -0.000001 -0.000024
 26   4.941382 1.997366 -1.629410 -0.000001 0.000005 -0.000024
 27   2.914462 1.619264 1.514501 -0.000019 -0.000022 -0.000050
 28   2.916892 1.618870 -1.501142 -0.000002 -0.000009 -0.000024
 29   8.824059 0.150544 0.091743 0.000006 -0.000231 -0.174534
 30   2.111085 -0.561179 1.784320 -0.000008 -0.000682 0.000024
 31   2.121290 -0.561289 -1.853599 0.000000 0.000000 -0.000002
 32   -0.814395 -0.093824 3.127092 3.071965 -0.114691 1.239365
 33   14.298673 -0.408176 0.471578 0.000248 0.000063 -1.896136
 34   15.835795 0.581398 0.242756 -0.214735 0.106913 -0.097869
 35   -0.815868 -0.091229 -3.114430 0.066464 3.132818 -1.010216
 36   14.294526 -0.410349 -0.467541 0.000021 -0.000012 -2.607695
 37   15.834409 0.579420 -0.284600 -0.006092 -0.035255 0.214508
 38   1.139685 -3.453749 -2.823813 0.000000 0.000000 0.000001
 39   -4.457742 -1.054854 -0.746180 0.000000 0.000000 0.000000
 40   1.118101 -3.449769 3.237290 0.000000 0.000001 0.000000
 41   -4.433840 -1.059130 0.959566 -0.000001 0.000000 0.000000
 42   -0.657468 1.697302 -2.688614 0.000000 0.000002 0.000000
 43   -0.664068 1.698578 2.869377 0.000000 0.000002 0.000000
time 3
  0   -0.967547 0.175787 -20.574476 0.000000 0.000000 -1.572114
  1   -1.093036 0.000002 -0.326057 -1.570913 -1.570611 -0.003413
  2   2.262337 0.113614 0.064702 -0.001415 0.014394 -0.067887
  3   2.380047 0.353302 0.047440 0.030812 0.013730 0.013957
  4   2.033756 0.190472 -0.000128 -0.095616 -0.067018 0.136409
  5   2.451511 0.204909 -0.003447 -0.145836 -0.039420 0.080426
  6   7.247600 -0.397300 -0.109469 -0.091897 0.032631 0.231869
  7   -2.022252 -0.104661 3.136172 1.455322 -1.643908 -4.831073
  8   1.168026 -0.537438 -0.063437 -0.412671 0.854504 -0.075216
  9   6.790376 -0.619176 0.015206 -0.000102 -0.000085 -1.009831
 10   8.637599 0.544015 -0.090417 -2.096564 0.362098 0.168948
 11   6.790465 -0.619039 0.017802 0.000476 -0.011452 -0.722061
 12   -2.022474 -0.104699 -2.873818 -1.561700 1.346475 -4.935812
 13   1.167898 -0.537463 0.063297 -0.254472 -0.653477 -1.469088
 14   7.002743 -0.617765 -0.183752 0.000059 0.000023 -1.252350
 15   8.209042 0.615527 -0.255885 2.091243 -0.514094 0.536117
 16   7.002735 -0.617911 -0.183641 0.013873 0.006804 -0.895217
 17   1.574674 0.609930 -0.000899 0.343291 -0.114090 0.471393
 18   -0.602177 0.511412 -0.000006 0.000000 0.000000 0.000000
 19   3.673773 0.177020 1.119313 -0.000002 -0.000014 -0.174510
 20   3.673767 0.176993 -1.117566 0.000007 -0.000003 -0.174546
 21   3.942357 1.334540 1.627658 0.000002 -0.000011 -0.000026
 22   -0.246060 -0.011889 0.516521 -0.000011 0.000031 0.000025
 23   3.942374 1.334565 -1.631083 0.000019 0.000002 -0.000024
 24   -0.246150 -0.011872 -0.516511 -0.000005 -0.000006 0.000048
 25   4.941364 1.997338 1.629330 0.000018 -0.000001 -0.000024
 26   4.941382 1.997366 -1.629410 -0.000001 0.000005 -0.000024
 27   2.914462 1.619264 1.514501 -0.000019 -0.000022 -0.000050
 28   2.916892 1.618870 -1.501142 -0.000002 -0.000009 -0.000024
 29   8.824059 0.150544 0.091743 0.000006 -0.000231 -0.174534
 30   2.111085 -0.561179 1.784320 -0.000008 -0.000682 0.000024
 31   2.121290 -0.561289 -1.853599 0.000000 0.000000 -0.000002
 32   -0.814395 -0.093824 3.127092 3.071965 -0.114691 1.239365
 33   14.298673 -0.408176 0.471578 0.000248 0.000063 -1.896136
 34   15.835795 0.581398 0.242756 -0.214735 0.106913 -0.097869
 35   -0.815868 -0.091229 -3.114430 0.066464 3.132818 -1.010216
 36   14.294526 -0.410349 -0.467541 0.000021 -0.000012 -2.607695
 37   15.834409 0.579420 -0.284600 -0.006092 -0.035255 0.214508
 38   1.139685 -3.453749 -2.823813 0.000000 0.000000 0.000001
 39   -4.457742 -1.054854 -0.746180 0.000000 0.000000 0.000000
 40   1.118101 -3.449769 3.237290 0.000000 0.000001 0.000000
 41   -4.433840 -1.059130 0.959566 -0.000001 0.000000 0.000000
 42   -0.657468 1.697302 -2.688614 0.000000 0.000002 0.000000
 43   -0.664068 1.698578 2.869377 0.000000 0.000002 0.000000
time 4
  0   -0.967547 0.175787 -20.574476 0.000000 0.000000 -1.572114
  1   -1.093036 0.000002 -0.326057 -1.570861 -1.570611 -0.003413
  2   2.262337 0.113614 0.064702 -0.009032 0.011782 -0.066080
  3   2.380047 0.353302 0.047440 0.009796 0.010267 0.015406
  4   2.033756 0.190472 -0.000128 -0.117397 -0.062428 0.142860
  5   2.451511 0.204909 -0.003447 -0.183099 -0.039994 0.090852
  6   7.247600 -0.397300 -0.109469 -0.091897 0.032631 0.231869
  7   -2.022252 -0.104661 3.136172 2.790527 -1.583284 0.115221
  8   1.168026 -0.537438 -0.063437 -0.399129 0.946881 -0.074774
  9   6.790376 -0.619176 0.015206 -0.000102 -0.000085 -0.867575
 10   8.637599 0.544015 -0.090417 -2.421171 0.467050 0.263285
 11   6.790465 -0.619039 0.017802 -0.000108 -0.011367 -0.622456
 12   -2.022474 -0.104699 -2.873818 -1.665172 1.336926 -5.041893
 13   1.167898 -0.537463 0.063297 -0.019472 -0.579890 -1.477018
 14   7.002743 -0.617765 -0.183752 0.000059 0.000023 -1.062010
 15   8.209042 0.615527 -0.255885 2.281066 -0.423681 0.494983
 16   7.002735 -0.617911 -0.183641 0.014108 0.005732 -0.762037
 17   1.574674 0.609930 -0.000899 0.386431 -0.148951 0.325730
 18   -0.602177 0.511412 -0.000006 0.000000 0.000000 0.000000
 19   3.673773 0.177020 1.119313 -0.000002 -0.000014 -0.174510
 20   3.673767 0.176993 -1.117566 0.000007 -0.000003 -0.174546
 21   3.942357 1.334540 1.627658 0.000002 -0.000011 -0.000026
 22   -0.246060 -0.011889 0.516521 -0.000011 0.000031 0.000025
 23   3.942374 1.334565 -1.631083 0.000019 0.000002 -0.000024
 24   -0.246150 -0.011872 -0.516511 -0.000005 -0.000006 0.000048
 25   4.941364 1.997338 1.629330 0.000018 -0.000001 -0.000024
 26   4.941382 1.997366 -1.629410 -0.000001 0.000005 -0.000024
 27   2.914462 1.619264 1.514501 -0.000019 -0.000022 -0.000050
 28   2.916892 1.618870 -1.501142 -0.000002 -0.000009 -0.000024
 29   8.824059 0.150544 0.091743 0.000006 -0.000231 -0.174534
 30   2.111085 -0.561179 1.784320 -0.000008 -0.000682 0.000024
 31   2.121290 -0.561289 -1.853599 0.000000 0.000000 -0.000002
 32   -0.814395 -0.093824 3.127092 3.071965 -0.114691 1.239365
 33   14.298673 -0.408176 0.471578 0.000248 0.000063 -1.896136
 34   15.835795 0.581398 0.242756 -0.214735 0.106913 -0.097869
 35   -0.815868 -0.091229 -3.114430 0.066464 3.132818 -1.010216
 36   14.294526 -0.410349 -0.467541 0.000021 -0.000012 -2.607695
 37   15.834409 0.579420 -0.284600 -0.006092 -0.035255 0.214508
 38   1.139685 -3.453749 -2.823813 0.000000 0.000000 0.000001
 39   -4.457742 -1.054854 -0.746180 0.000000 0.000000 0.000000
 40   1.118101 -3.449769 3.237290 0.000000 0.000001 0.000000
 41   -4.433840 -1.059130 0.959566 -0.000001 0.000000 0.000000
 42   -0.657468 1.697302 -2.688614 0.000000 0.000002 0.000000
 43   -0.664068 1.698578 2.869377 0.000000 0.000002 0.000000
time 5
  0   -0.967547 0.175787 -20.574476 0.000000 0.000000 -1.572114
  1   -1.093036 0.000002 -0.326057 -1.570861 -1.570611 -0.003413
  2   2.262337 0.113614 0.064702 -0.018394 0.009181 -0.064092
  3   2.380047 0.353302 0.047440 -0.018691 0.005772 0.016732
  4   2.033756 0.190472 -0.000128 -0.126452 -0.053259 0.149784
  5   2.451511 0.204909 -0.003447 -0.196570 -0.035542 0.104597
  6   7.247600 -0.397300 -0.109469 -0.091897 0.032631 0.231869
  7   -2.022252 -0.104661 3.136172 1.163818 -1.490288 -4.539463
  8   1.168026 -0.537438 -0.063437 -0.477407 1.055409 -0.231027
  9   6.790376 -0.619176 0.015206 -0.000047 -0.000085 -0.703358
 10   8.637599 0.544015 -0.090417 -2.801611 0.580520 0.310092
 11   6.790465 -0.619039 0.017802 -0.000780 -0.011225 -0.507568
 12   -2.022474 -0.104699 -2.873818 -1.551736 1.237055 -4.923270
 13   1.167898 -0.537463 0.063297 0.195213 -0.504727 -1.377499
 14   7.002743 -0.617765 -0.183752 0.000059 0.000023 -0.843536
 15   8.209042 0.615527 -0.255885 2.507992 -0.243989 0.440679
 16   7.002735 -0.617911 -0.183641 0.014296 0.004605 -0.609098
 17   1.574674 0.609930 -0.000899 0.426971 -0.134893 0.158407
 18   -0.602177 0.511412 -0.000006 0.000000 0.000000 0.000000
 19   3.673773 0.177020 1.119313 -0.000002 -0.000014 -0.174510
 20   3.673767 0.176993 -1.117566 0.000007 -0.000003 -0.174546
 21   3.942357 1.334540 1.627658 0.000002 -0.000011 -0.000026
 22   -0.246060 -0.011889 0.516521 -0.000011 0.000031 0.000025
 23   3.942374 1.334565 -1.631083 0.000019 0.000002 -0.000024
 24   -0.246150 -0.011872 -0.516511 -0.000005 -0.000006 0.000048
 25   4.941364 1.997338 1.629330 0.000018 -0.000001 -0.000024
 26   4.941382 1.997366 -1.629410 -0.000001 0.000005 -0.000024
 27   2.914462 1.619264 1.514501 -0.000019 -0.000022 -0.000050
 28   2.916892 1.618870 -1.501142 -0.000002 -0.000009 -0.000024
 29   8.824059 0.150544 0.091743 0.000006 -0.000231 -0.174534
 30   2.111085 -0.561179 1.784320 -0.000008 -0.000682 0.000024
 31   2.121290 -0.561289 -1.853599 0.000000 0.000000 -0.000002
 32   -0.814395 -0.093824 3.127092 3.071965 -0.114691 1.239365
 33   14.298673 -0.408176 0.471578 0.000248 0.000063 -1.896136
 34   15.835795 0.581398 0.242756 -0.214735 0.106913 -0.097869
 35   -0.815868 -0.091229 -3.114430 0.066464 3.132818 -1.010216
 36   14.294526 -0.410349 -0.467541 0.000021 -0.000012 -2.607695
 37   15.834409 0.579420 -0.284600 -0.006092 -0.035255 0.214508
 38   1.139685 -3.453749 -2.823813 0.000000 0.000000 0.000001
 39   -4.457742 -1.054854 -0.746180 0.000000 0.000000 0.000000
 40   1.118101 -3.449769 3.237290 0.000000 0.000001 0.000000
 41   -4.433840 -1.059130 0.959566 -0.000001 0.000000 0.000000
 42   -0.657468 1.697302 -2.688614 0.000000 0.000002 0.000000
 43   -0.664068 1.698578 2.869377 0.000000 0.000002 0.000000
time 6
  0   -0.967547 0.175787 -20.574476 0.000000 0.000000 -1.572114
  1   -1.093036 0.000002 -0.326057 -1.570861 -1.570611 -0.003413
  2   2.262337 0.113614 0.064702 -0.028788 0.006772 -0.061797
  3   2.380047 0.353302 0.047440 -0.052474 0.000991 0.017875
  4   2.033756 0.190472 -0.000128 -0.126913 -0.041263 0.156816
  5   2.451511 0.204909 -0.003447 -0.193797 -0.028401 0.120546
  6   7.247600 -0.397300 -0.109469 -0.091897 0.032631 0.231869
  7   -2.022252 -0.104661 3.136172 1.194684 -1.429808 -4.568388
  8   1.168026 -0.537438 -0.063437 -0.640670 1.093547 -0.456993
  9   6.790376 -0.619176 0.015206 -0.000047 -0.000085 -0.604043
 10   8.637599 0.544015 -0.090417 -3.152285 0.659498 0.288461
 11   6.790465 -0.619039 0.017802 -0.001130 -0.011140 -0.438012
 12   -2.022474 -0.104699 -2.873818 -1.477677 1.117244 -4.838635
 13   1.167898 -0.537463 0.063297 0.387474 -0.458043 -1.299046
 14   7.002743 -0.617765 -0.183752 0.000059 0.000023 -0.646183
 15   8.209042 0.615527 -0.255885 2.617356 -0.074436 0.430937
 16   7.002735 -0.617911 -0.183641 0.014391 0.003590 -0.471005
 17   1.574674 0.609930 -0.000899 0.451913 -0.127272 0.055729
 18   -0.602177 0.511412 -0.000006 0.000000 0.000000 0.000000
 19   3.673773 0.177020 1.119313 -0.000002 -0.000014 -0.174510
 20   3.673767 0.176993 -1.117566 0.000007 -0.000003 -0.174546
 21   3.942357 1.334540 1.627658 0.000002 -0.000011 -0.000026
 22   -0.246060 -0.011889 0.516521 -0.000011 0.000031 0.000025
 23   3.942374 1.334565 -1.631083 0.000019 0.000002 -0.000024
 24   -0.246150 -0.011872 -0.516511 -0.000005 -0.000006 0.000048
 25   4.941364 1.997338 1.629330 0.000018 -0.000001 -0.000024
 26   4.941382 1.997366 -1.629410 -0.000001 0.000005 -0.000024
 27   2.914462 1.619264 1.514501 -0.000019 -0.000022 -0.000050
 28   2.916892 1.618870 -1.501142 -0.000002 -0.000009 -0.000024
 29   8.824059 0.150544 0.091743 0.000006 -0.000231 -0.174534
 30   2.111085 -0.561179 1.784320 -0.000008 -0.000682 0.000024
 31   2.121290 -0.561289 -1.853599 0.000000 0.000000 -0.000002
 32   -0.814395 -0.093824 3.127092 3.071965 -0.114691 1.239365
 33   14.298673 -0.408176 0.471578 0.000248 0.000063 -1.896136
 34   15.835795 0.581398 0.242756 -0.214735 0.106913 -0.097869
 35   -0.815868 -0.091229 -3.114430 0.066464 3.132818 -1.010216
 36   14.294526 -0.410349 -0.467541 0.000021 -0.000012 -2.607695
 37   15.834409 0.579420 -0.284600 -0.006092 -0.035255 0.214508
 38   1.139685 -3.453749 -2.823813 0.000000 0.000000 0.000001
 39   -4.457742 -1.054854 -0.746180 0.000000 0.000000 0.000000
 40   1.118101 -3.449769 3.237290 0.000000 0.000001 0.000000
 41   -4.433840 -1.059130 0.959566 -0.000001 0.000000 0.000000
 42   -0.657468 1.697302 -2.688614 0.000000 0.000002 0.000000
 43   -0.664068 1.698578 2.869377 0.000000 0.000002 0.000000
time 7
  0   -0.967547 0.175787 -20.574476 0.000000 0.000000 -1.572114
  1   -1.093036 0.000002 -0.326057 -1.570861 -1.570611 -0.003413
  2   2.262337 0.113614 0.064702 -0.039755 0.004471 -0.059321
  3   2.380047 0.353302 0.047440 -0.088686 -0.004031 0.018997
  4   2.033756 0.190472 -0.000128 -0.122856 -0.027744 0.164029
  5   2.451511 0.204909 -0.003447 -0.182945 -0.020359 0.137931
  6   7.247600 -0.397300 -0.109469 -0.091897 0.032631 0.231869
  7   -2.022252 -0.104661 3.136172 1.125091 -1.404411 -4.497200
  8   1.168026 -0.537438 -0.063437 -0.767104 1.036541 -0.586234
  9   6.790376 -0.619176 0.015206 -0.000047 -0.000085 -0.620495
 10   8.637599 0.544015 -0.090417 -3.397986 0.685120 0.226100
 11   6.790465 -0.619039 0.017802 -0.001101 -0.011140 -0.449489
 12   -2.022474 -0.104699 -2.873818 -1.442133 0.999262 -4.788275
 13   1.167898 -0.537463 0.063297 0.539665 -0.453160 -1.299409
 14   7.002743 -0.617765 -0.183752 0.000059 0.000023 -0.494208
 15   8.209042 0.615527 -0.255885 2.544662 0.035497 0.439537
 16   7.002735 -0.617911 -0.183641 0.014485 0.002744 -0.364649
 17   1.574674 0.609930 -0.000899 0.466943 -0.154347 0.042645
 18   -0.602177 0.511412 -0.000006 0.000000 0.000000 0.000000
 19   3.673773 0.177020 1.119313 -0.000002 -0.000014 -0.174510
 20   3.673767 0.176993 -1.117566 0.000007 -0.000003 -0.174546
 21   3.942357 1.334540 1.627658 0.000002 -0.000011 -0.000026
 22   -0.246060 -0.011889 0.516521 -0.000011 0.000031 0.000025
 23   3.942374 1.334565 -1.631083 0.000019 0.000002 -0.000024
 24   -0.246150 -0.011872 -0.516511 -0.000005 -0.000006 0.000048
 25   4.941364 1.997338 1.629330 0.000018 -0.000001 -0.000024
 26   4.941382 1.997366 -1.629410 -0.000001 0.000005 -0.000024
 27   2.914462 1.619264 1.514501 -0.000019 -0.000022 -0.000050
 28   2.916892 1.618870 -1.501142 -0.000002 -0.000009 -0.000024
 29   8.824059 0.150544 0.091743 0.000006 -0.000231 -0.174534
 30   2.111085 -0.561179 1.784320 -0.000008 -0.000682 0.000024
 31   2.121290 -0.561289 -1.853599 0.000000 0.000000 -0.000002
 32   -0.814395 -0.093824 3.127092 3.071965 -0.114691 1.239365
 33   14.298673 -0.408176 0.471578 0.000248 0.000063 -1.896136
 34   15.835795 0.581398 0.242756 -0.214735 0.106913 -0.097869
 35   -0.815868 -0.091229 -3.114430 0.066464 3.132818 -1.010216
 36   14.294526 -0.410349 -0.467541 0.000021 -0.000012 -2.607695
 37   15.834409 0.579420 -0.284600 -0.006092 -0.035255 0.214508
 38   1.139685 -3.453749 -2.823813 0.000000 0.000000 0.000001
 39   -4.457742 -1.054854 -0.746180 0.000000 0.000000 0.000000
 40   1.118101 -3.449769 3.237290 0.000000 0.000001 0.000000
 41   -4.433840 -1.059130 0.959566 -0.000001 0.000000 0.000000
 42   -0.657468 1.697302 -2.688614 0.000000 0.000002 0.000000
 43   -0.664068 1.698578 2.869377 0.000000 0.000002 0.000000
time 8
  0   -0.967547 0.175787 -20.574476 0.000000 0.000000 -1.572114
  1   -1.093036 0.000002 -0.326057 -1.570861 -1.570611 -0.003413
  2   2.262337 0.113614 0.064702 -0.050671 0.002254 -0.056737
  3   2.380047 0.353302 0.047440 -0.124943 -0.008945 0.020140
  4   2.033756 0.190472 -0.000128 -0.118706 -0.014286 0.170916
  5   2.451511 0.204909 -0.003447 -0.171956 -0.012604 0.155341
  6   7.247600 -0.397300 -0.109469 -0.091897 0.032631 0.231869
  7   -2.022252 -0.104661 3.136172 1.016101 -1.396513 -4.387130
  8   1.168026 -0.537438 -0.063437 -0.843168 0.938378 -0.628239
  9   6.790376 -0.619176 0.015206 -0.000047 -0.000085 -0.701396
 10   8.637599 0.544015 -0.090417 -3.575261 0.678010 0.156794
 11   6.790465 -0.619039 0.017802 -0.000780 -0.011225 -0.506183
 12   -2.022474 -0.104699 -2.873818 -1.419522 0.863081 -4.740213
 13   1.167898 -0.537463 0.063297 0.657411 -0.454788 -1.343781
 14   7.002743 -0.617765 -0.183752 0.000059 0.000023 -0.363355
 15   8.209042 0.615527 -0.255885 2.371089 0.125305 0.433944
 16   7.002735 -0.617911 -0.183641 0.014532 0.002180 -0.272863
 17   1.574674 0.609930 -0.000899 0.482379 -0.199693 0.074099
 18   -0.602177 0.511412 -0.000006 0.000000 0.000000 0.000000
 19   3.673773 0.177020 1.119313 -0.000002 -0.000014 -0.174510
 20   3.673767 0.176993 -1.117566 0.000007 -0.000003 -0.174546
 21   3.942357 1.334540 1.627658 0.000002 -0.000011 -0.000026
 22   -0.246060 -0.011889 0.516521 -0.000011 0.000031 0.000025
 23   3.942374 1.334565 -1.631083 0.000019 0.000002 -0.000024
 24   -0.246150 -0.011872 -0.516511 -0.000005 -0.000006 0.000048
 25   4.941364 1.997338 1.629330 0.000018 -0.000001 -0.000024
 26   4.941382 1.997366 -1.629410 -0.000001 0.000005 -0.000024
 27   2.914462 1.619264 1.514501 -0.000019 -0.000022 -0.000050
 28   2.916892 1.618870 -1.501142 -0.000002 -0.000009 -0.000024
 29   8.824059 0.150544 0.091743 0.000006 -0.000231 -0.174534
 30   2.111085 -0.561179 1.784320 -0.000008 -0.000682 0.000024
 31   2.121290 -0.561289 -1.853599 0.000000 0.000000 -0.000002
 32   -0.814395 -0.093824 3.127092 3.071965 -0.114691 1.239365
 33   14.298673 -0.408176 0.471578 0.000248 0.000063 -1.896136
 34   15.835795 0.581398 0.242756 -0.214735 0.106913 -0.097869
 35   -0.815868 -0.091229 -3.114430 0.066464 3.132818 -1.010216
 36   14.294526 -0.410349 -0.467541 0.000021 -0.000012 -2.607695
 37   15.834409 0.579420 -0.284600 -0.006092 -0.035255 0.214508
 38   1.139685 -3.453749 -2.823813 0.000000 0.000000 0.000001
 39   -4.457742 -1.054854 -0.746180 0.000000 0.000000 0.000000
 40   1.118101 -3.449769 3.237290 0.000000 0.000001 0.000000
 41   -4.433840 -1.059130 0.959566 -0.000001 0.000000 0.000000
 42   -0.657468 1.697302 -2.688614 0.000000 0.000002 0.000000
 43   -0.664068 1.698578 2.869377 0.000000 0.000002 0.000000
time 9
  0   -0.967547 0.175787 -20.574476 0.000000 0.000000 -1.572114
  1   -1.093036 0.000002 -0.326057 -1.570861 -1.570611 -0.003413
  2   2.262337 0.113614 0.064702 -0.061052 0.000073 -0.054117
  3   2.380047 0.353302 0.047440 -0.158726 -0.013535 0.021344
  4   2.033756 0.190472 -0.000128 -0.118780 -0.001870 0.177404
  5   2.451511 0.204909 -0.003447 -0.168738 -0.006272 0.171637
  6   7.247600 -0.397300 -0.109469 -0.091897 0.032631 0.231869
  7   -2.022252 -0.104661 3.136172 0.918038 -1.386711 -4.287297
  8   1.168026 -0.537438 -0.063437 -0.896386 0.840466 -0.636336
  9   6.790376 -0.619176 0.015206 -0.000047 -0.000085 -0.782825
 10   8.637599 0.544015 -0.090417 -3.746811 0.653796 0.096531
 11   6.790465 -0.619039 0.017802 -0.000429 -0.011310 -0.563224
 12   -2.022474 -0.104699 -2.873818 -1.413582 0.727307 -4.701917
 13   1.167898 -0.537463 0.063297 0.766511 -0.446092 -1.409219
 14   7.002743 -0.617765 -0.183752 0.000059 0.000023 -0.232089
 15   8.209042 0.615527 -0.255885 2.192985 0.210346 0.410671
 16   7.002735 -0.617911 -0.183641 0.014579 0.001560 -0.181078
 17   1.574674 0.609930 -0.000899 0.503705 -0.257180 0.123922
 18   -0.602177 0.511412 -0.000006 0.000000 0.000000 0.000000
 19   3.673773 0.177020 1.119313 -0.000002 -0.000014 -0.174510
 20   3.673767 0.176993 -1.117566 0.000007 -0.000003 -0.174546
 21   3.942357 1.334540 1.627658 0.000002 -0.000011 -0.000026
 22   -0.246060 -0.011889 0.516521 -0.000011 0.000031 0.000025
 23   3.942374 1.334565 -1.631083 0.000019 0.000002 -0.000024
 24   -0.246150 -0.011872 -0.516511 -0.000005 -0.000006 0.000048
 25   4.941364 1.997338 1.629330 0.000018 -0.000001 -0.000024
 26   4.941382 1.997366 -1.629410 -0.000001 0.000005 -0.000024
 27   2.914462 1.619264 1.514501 -0.000019 -0.000022 -0.000050
 28   2.916892 1.618870 -1.501142 -0.000002 -0.000009 -0.000024
 29   8.824059 0.150544 0.091743 0.000006 -0.000231 -0.174534
 30   2.111085 -0.561179 1.784320 -0.000008 -0.000682 0.000024
 31   2.121290 -0.561289 -1.853599 0.000000 0.000000 -0.000002
 32   -0.814395 -0.093824 3.127092 3.071965 -0.114691 1.239365
 33   14.298673 -0.408176 0.471578 0.000248 0.000063 -1.896136
 34   15.835795 0.581398 0.242756 -0.214735 0.106913 -0.097869
 35   -0.815868 -0.091229 -3.114430 0.066464 3.132818 -1.010216
 36   14.294526 -0.410349 -0.467541 0.000021 -0.000012 -2.607695
 37   15.834409 0.579420 -0.284600 -0.006092 -0.035255 0.214508
 38   1.139685 -3.453749 -2.823813 0.000000 0.000000 0.000001
 39   -4.457742 -1.054854 -0.746180 0.000000 0.000000 0.000000
 40   1.118101 -3.449769 3.237290 0.000000 0.000001 0.000000
 41   -4.433840 -1.059130 0.959566 -0.000001 0.000000 0.000000
 42   -0.657468 1.697302 -2.688614 0.000000 0.000002 0.000000
 43   -0.664068 1.698578 2.869377 0.000000 0.000002 0.000000
time 10
  0   -0.967547 0.175787 -20.574476 0.000000 0.000000 -1.572114
  1   -1.093036 0.000002 -0.326057 -1.570861 -1.570611 -0.003413
  2   2.262337 0.113614 0.064702 -0.061014 -0.010486 -0.052111
  3   2.380047 0.353302 0.047440 -0.144970 -0.006739 0.022466
  4   2.033756 0.190472 -0.000128 -0.099692 0.005741 0.184146
  5   2.451511 0.204909 -0.003447 -0.176800 -0.005227 0.178571
  6   7.247600 -0.397300 -0.109469 -0.091897 0.032631 0.231869
  7   -2.022252 -0.104661 3.136172 0.678393 -1.401067 -4.048656
  8   1.168026 -0.537438 -0.063437 -0.810009 0.826479 -0.664487
  9   6.790376 -0.619176 0.015206 -0.000047 -0.000085 -0.662002
 10   8.637599 0.544015 -0.090417 -3.786969 0.614448 0.029323
 11   6.790465 -0.619039 0.017802 -0.000926 -0.011196 -0.478615
 12   -2.022474 -0.104699 -2.873818 -1.402948 0.725276 -4.685640
 13   1.167898 -0.537463 0.063297 0.744157 -0.482148 -1.377136
 14   7.002743 -0.617765 -0.183752 0.000059 0.000023 -0.194879
 15   8.209042 0.615527 -0.255885 2.208876 0.210573 0.398884
 16   7.002735 -0.617911 -0.183641 0.014626 0.001334 -0.155082
 17   1.574674 0.609930 -0.000899 0.473077 -0.265653 0.196736
 18   -0.602177 0.511412 -0.000006 0.000000 0.000000 0.000000
 19   3.673773 0.177020 1.119313 -0.000002 -0.000014 -0.174510
 20   3.673767 0.176993 -1.117566 0.000007 -0.000003 -0.174546
 21   3.942357 1.334540 1.627658 0.000002 -0.000011 -0.000026
 22   -0.246060 -0.011889 0.516521 -0.000011 0.000031 0.000025
 23   3.942374 1.334565 -1.631083 0.000019 0.000002 -0.000024
 24   -0.246150 -0.011872 -0.516511 -0.000005 -0.000006 0.000048
 25   4.941364 1.997338 1.629330 0.000018 -0.000001 -0.000024
 26   4.941382 1.997366 -1.629410 -0.000001 0.000005 -0.000024
 27   2.914462 1.619264 1.514501 -0.000019 -0.000022 -0.000050
 28   2.916892 1.618870 -1.501142 -0.000002 -0.000009 -0.000024
 29   8.824059 0.150544 0.091743 0.000006 -0.000231 -0.174534
 30   2.111085 -0.561179 1.784320 -0.000008 -0.000682 0.000024
 31   2.121290 -0.561289 -1.853599 0.000000 0.000000 -0.000002
 32   -0.814395 -0.093824 3.127092 3.071965 -0.114691 1.239365
 33   14.298673 -0.408176 0.471578 0.000248 0.000063 -1.896136
 34   15.835795 0.581398 0.242756 -0.214735 0.106913 -0.097869
 35   -0.815868 -0.091229 -3.114430 0.066464 3.132818 -1.010216
 36   14.294526 -0.410349 -0.467541 0.000021 -0.000012 -2.607695
 37   15.834409 0.579420 -0.284600 -0.006092 -0.035255 0.214508
 38   1.139685 -3.453749 -2.823813 0.000000 0.000000 0.000001
 39   -4.457742 -1.054854 -0.746180 0.000000 0.000000 0.000000
 40   1.118101 -3.449769 3.237290 0.000000 0.000001 0.000000
 41   -4.433840 -1.059130 0.959566 -0.000001 0.000000 0.000000
 42   -0.657468 1.697302 -2.688614 0.000000 0.000002 0.000000
 43   -0.664068 1.698578 2.869377 0.000000 0.000002 0.000000
end
