version 1
nodes
  0 "Bip01" -1
  1 "Bip01 Pelvis" 0
  2 "Bip01 Spine" 1
  3 "Bip01 Spine1" 2
  4 "Bip01 Spine2" 3
  5 "Bip01 Spine3" 4
  6 "Bip01 Neck" 5
  7 "Bip01 L Arm" 6
  8 "Bip01 L Arm1" 7
  9 "Bip01 L Arm2" 8
 10 "Bip01 L Hand" 9
 11 "Bip06 L elbow2-smooth" 8
 12 "Bip01 R Arm" 6
 13 "Bip01 R Arm1" 12
 14 "Bip01 R Arm2" 13
 15 "Bip01 R Hand" 14
 16 "Bip06 R elbow2-smooth" 13
 17 "Bip01 Head" 6
 18 "Bip06 Head_helper" 17
 19 "Bip06 Head_eyes_l" 18
 20 "Bip06 Head_eyes_r" 18
 21 "Bip06 Head_blink_l" 18
 22 "Bip06 Head_blink_smooth_l1" 21
 23 "Bip06 Head_blink_r" 18
 24 "Bip06 Head_blink_smooth_r1" 23
 25 "Bip06 Head_L_eyebrow" 18
 26 "Bip06 Head_R_eyebrow" 18
 27 "Bip06 Head_blink_l_lid" 18
 28 "Bip06 Head_blink_r_lid" 18
 29 "Bip06 bunny" 18
 30 "Bip06 bunnyL" 29
 31 "Bip06 bunnyR" 29
 32 "Bip01 L Leg" 1
 33 "Bip01 L Leg1" 32
 34 "Bip01 L Foot" 33
 35 "Bip01 R Leg" 1
 36 "Bip01 R Leg1" 35
 37 "Bip01 R Foot" 36
 38 "Bip03 HairR1" 17
 39 "Bip03 HairR2" 38
 40 "Bip03 HairL1" 17
 41 "Bip03 HairL2" 40
 42 "Bip03 swingR" 17
 43 "Bip03 swingL" 17
end
skeleton
time 0
  0   -0.967547 0.175787 -20.574476 0.000000 0.000000 -1.572114
  1   -1.093036 0.000002 -0.326057 -0.214014 -1.569082 -1.356583
  2   2.262337 0.113614 0.064702 -0.075471 -0.097722 -0.086843
  3   2.380047 0.353302 0.047440 -0.149065 -0.036413 -0.081887
  4   2.033756 0.190472 -0.000128 -0.181651 -0.050179 -0.385367
  5   2.451511 0.204909 -0.003447 -0.421126 -0.013034 -0.380013
  6   7.247600 -0.397300 -0.109469 0.000001 0.000021 0.156829
  7   -2.022252 -0.104661 3.136172 0.479296 -1.239289 -3.683039
  8   1.168026 -0.537438 -0.063437 -0.721606 0.746580 -0.636336
  9   6.790376 -0.619176 0.015206 0.037014 0.045299 -1.050207
 10   8.637599 0.544015 -0.090417 -3.614626 0.247221 0.266830
 11   6.790465 -0.619039 0.017802 0.031628 0.016632 -0.750610
 12   -2.022474 -0.104699 -2.873818 -2.272780 1.443299 -5.613372
 13   1.167898 -0.537463 0.063297 -0.112966 -1.062042 -0.750601
 14   7.002743 -0.617765 -0.183752 0.019757 -0.136430 -1.725024
 15   8.209042 0.615527 -0.255885 2.609303 0.311352 0.456014
 16   7.002735 -0.617911 -0.183641 0.002245 -0.092439 -1.224387
 17   1.574674 0.609930 -0.000899 0.562241 0.005309 0.597467
 18   -0.602177 0.511412 -0.000006 0.000000 0.000000 0.000000
 19   3.673773 0.177020 1.119313 -0.000002 -0.000014 -0.174510
 20   3.673767 0.176993 -1.117566 0.000007 -0.000003 -0.174546
 21   3.942357 1.334540 1.627658 0.000002 -0.000011 -0.000026
 22   -0.246060 -0.011889 0.516521 -0.000011 0.000031 0.000025
 23   3.942374 1.334565 -1.631083 0.000019 0.000002 -0.000024
 24   -0.246150 -0.011872 -0.516511 -0.000005 -0.000006 0.000048
 25   4.941364 1.997338 1.629330 0.000018 0.261744 -0.000024
 26   4.941382 1.997366 -1.629410 -0.000001 -0.261756 -0.000024
 27   2.914462 1.619264 1.514501 -0.000019 -0.000022 -0.000050
 28   2.916892 1.618870 -1.501142 -0.000002 -0.000009 -0.000024
 29   8.824059 0.150544 0.091743 0.000006 -0.000231 -0.174534
 30   2.111085 -0.561179 1.784320 -0.000008 -0.000682 0.000024
 31   2.121290 -0.561289 -1.853599 0.000000 0.000000 -0.000002
 32   -0.814395 -0.093824 3.127092 3.071965 -0.114691 1.239365
 33   14.298673 -0.408176 0.471578 0.000248 0.000063 -1.896136
 34   15.835795 0.581398 0.242756 -0.214735 0.106913 -0.097869
 35   -0.815868 -0.091229 -3.114430 0.066464 3.132818 -1.010216
 36   14.294526 -0.410349 -0.467541 0.000021 -0.000012 -2.607695
 37   15.834409 0.579420 -0.284600 -0.006092 -0.035255 0.214508
 38   1.139685 -3.453749 -2.823813 0.000000 0.000000 0.000001
 39   -4.457742 -1.054854 -0.746180 0.000000 0.000000 0.000000
 40   1.118101 -3.449769 3.237290 0.000000 0.000001 0.000000
 41   -4.433840 -1.059130 0.959566 -0.000001 0.000000 0.000000
 42   -0.657468 1.697302 -2.688614 0.000000 0.000002 0.000000
 43   -0.664068 1.698578 2.869377 0.000000 0.000002 0.000000
time 1
  0   -0.967547 0.175787 -20.574476 0.000000 0.000000 -1.572114
  1   -1.093036 0.000002 -0.326057 -0.214014 -1.569082 -1.356583
  2   2.262337 0.113614 0.064702 -0.075471 -0.097722 -0.086843
  3   2.380047 0.353302 0.047440 -0.149065 -0.036413 -0.081887
  4   2.033756 0.190472 -0.000128 -0.215917 -0.052528 -0.379060
  5   2.451511 0.204909 -0.003447 -0.526754 -0.032161 -0.393411
  6   7.247600 -0.397300 -0.109469 0.000001 0.000021 0.156829
  7   -2.022252 -0.104661 3.136172 0.307135 -1.128794 -3.400069
  8   1.168026 -0.537438 -0.063437 -0.252065 0.816869 -0.093056
  9   6.790376 -0.619176 0.015206 0.001063 0.058513 -1.715452
 10   8.637599 0.544015 -0.090417 -3.614626 0.247221 0.266830
 11   6.790465 -0.619039 0.017802 0.015074 0.030191 -1.215700
 12   -2.022474 -0.104699 -2.873818 -0.363249 1.705007 -3.690986
 13   1.167898 -0.537463 0.063297 -0.861691 -0.823839 -0.277643
 14   7.002743 -0.617765 -0.183752 0.078512 -0.113376 -2.189694
 15   8.209042 0.615527 -0.255885 2.554369 0.480526 0.355585
 16   7.002735 -0.617911 -0.183641 0.042542 -0.090184 -1.548976
 17   1.574674 0.609930 -0.000899 0.637715 -0.038048 0.590814
 18   -0.602177 0.511412 -0.000006 0.000000 0.000000 0.000000
 19   3.673773 0.177020 1.119313 -0.000002 -0.000014 -0.174510
 20   3.673767 0.176993 -1.117566 0.000007 -0.000003 -0.174546
 21   3.942357 1.334540 1.627658 0.000002 -0.000011 -0.000026
 22   -0.246060 -0.011889 0.516521 -0.000011 0.000031 0.000025
 23   3.942374 1.334565 -1.631083 0.000019 0.000002 -0.000024
 24   -0.246150 -0.011872 -0.516511 -0.000005 -0.000006 0.000048
 25   4.941364 1.997338 1.629330 0.000018 0.261744 -0.000024
 26   4.941382 1.997366 -1.629410 -0.000001 -0.261756 -0.000024
 27   2.914462 1.619264 1.514501 -0.000019 -0.000022 -0.000050
 28   2.916892 1.618870 -1.501142 -0.000002 -0.000009 -0.000024
 29   8.824059 0.150544 0.091743 0.000006 -0.000231 -0.174534
 30   2.111085 -0.561179 1.784320 -0.000008 -0.000682 0.000024
 31   2.121290 -0.561289 -1.853599 0.000000 0.000000 -0.000002
 32   -0.814395 -0.093824 3.127092 3.071965 -0.114691 1.239365
 33   14.298673 -0.408176 0.471578 0.000248 0.000063 -1.896136
 34   15.835795 0.581398 0.242756 -0.214735 0.106913 -0.097869
 35   -0.815868 -0.091229 -3.114430 0.066464 3.132818 -1.010216
 36   14.294526 -0.410349 -0.467541 0.000021 -0.000012 -2.607695
 37   15.834409 0.579420 -0.284600 -0.006092 -0.035255 0.214508
 38   1.139685 -3.453749 -2.823813 0.000000 0.000000 0.000001
 39   -4.457742 -1.054854 -0.746180 0.000000 0.000000 0.000000
 40   1.118101 -3.449769 3.237290 0.000000 0.000001 0.000000
 41   -4.433840 -1.059130 0.959566 -0.000001 0.000000 0.000000
 42   -0.657468 1.697302 -2.688614 0.000000 0.000002 0.000000
 43   -0.664068 1.698578 2.869377 0.000000 0.000002 0.000000
time 2
  0   -0.967547 0.175787 -20.574476 0.000000 0.000000 -1.572114
  1   -1.093036 0.000002 -0.326057 -0.214014 -1.569082 -1.356583
  2   2.262337 0.113614 0.064702 -0.075471 -0.097722 -0.086843
  3   2.380047 0.353302 0.047440 -0.149065 -0.036413 -0.081887
  4   2.033756 0.190472 -0.000128 -0.213169 -0.052373 -0.379495
  5   2.451511 0.204909 -0.003447 -0.518247 -0.030581 -0.392470
  6   7.247600 -0.397300 -0.109469 0.000001 0.000021 0.156829
  7   -2.022252 -0.104661 3.136172 0.323815 -1.144995 -3.432188
  8   1.168026 -0.537438 -0.063437 -0.320408 0.818177 -0.171499
  9   6.790376 -0.619176 0.015206 0.006278 0.058180 -1.624514
 10   8.637599 0.544015 -0.090417 -3.614626 0.247221 0.266830
 11   6.790465 -0.619039 0.017802 0.017760 0.028940 -1.152085
 12   -2.022474 -0.104699 -2.873818 -0.227108 1.693543 -3.556278
 13   1.167898 -0.537463 0.063297 -0.783733 -0.866659 -0.316143
 14   7.002743 -0.617765 -0.183752 0.071167 -0.118146 -2.126000
 15   8.209042 0.615527 -0.255885 2.563357 0.457450 0.370559
 16   7.002735 -0.617911 -0.183641 0.036940 -0.091368 -1.504380
 17   1.574674 0.609930 -0.000899 0.631622 -0.034593 0.591479
 18   -0.602177 0.511412 -0.000006 0.000000 0.000000 0.000000
 19   3.673773 0.177020 1.119313 -0.000002 -0.000014 -0.174510
 20   3.673767 0.176993 -1.117566 0.000007 -0.000003 -0.174546
 21   3.942357 1.334540 1.627658 0.000002 -0.000011 -0.000026
 22   -0.246060 -0.011889 0.516521 -0.000011 0.000031 0.000025
 23   3.942374 1.334565 -1.631083 0.000019 0.000002 -0.000024
 24   -0.246150 -0.011872 -0.516511 -0.000005 -0.000006 0.000048
 25   4.941364 1.997338 1.629330 0.000018 0.261744 -0.000024
 26   4.941382 1.997366 -1.629410 -0.000001 -0.261756 -0.000024
 27   2.914462 1.619264 1.514501 -0.000019 -0.000022 -0.000050
 28   2.916892 1.618870 -1.501142 -0.000002 -0.000009 -0.000024
 29   8.824059 0.150544 0.091743 0.000006 -0.000231 -0.174534
 30   2.111085 -0.561179 1.784320 -0.000008 -0.000682 0.000024
 31   2.121290 -0.561289 -1.853599 0.000000 0.000000 -0.000002
 32   -0.814395 -0.093824 3.127092 3.071965 -0.114691 1.239365
 33   14.298673 -0.408176 0.471578 0.000248 0.000063 -1.896136
 34   15.835795 0.581398 0.242756 -0.214735 0.106913 -0.097869
 35   -0.815868 -0.091229 -3.114430 0.066464 3.132818 -1.010216
 36   14.294526 -0.410349 -0.467541 0.000021 -0.000012 -2.607695
 37   15.834409 0.579420 -0.284600 -0.006092 -0.035255 0.214508
 38   1.139685 -3.453749 -2.823813 0.000000 0.000000 0.000001
 39   -4.457742 -1.054854 -0.746180 0.000000 0.000000 0.000000
 40   1.118101 -3.449769 3.237290 0.000000 0.000001 0.000000
 41   -4.433840 -1.059130 0.959566 -0.000001 0.000000 0.000000
 42   -0.657468 1.697302 -2.688614 0.000000 0.000002 0.000000
 43   -0.664068 1.698578 2.869377 0.000000 0.000002 0.000000
time 3
  0   -0.967547 0.175787 -20.574476 0.000000 0.000000 -1.572114
  1   -1.093036 0.000002 -0.326057 -0.214014 -1.569082 -1.356583
  2   2.262337 0.113614 0.064702 -0.075471 -0.097722 -0.086843
  3   2.380047 0.353302 0.047440 -0.149065 -0.036413 -0.081887
  4   2.033756 0.190472 -0.000128 -0.206235 -0.051893 -0.380836
  5   2.451511 0.204909 -0.003447 -0.496988 -0.026638 -0.389895
  6   7.247600 -0.397300 -0.109469 0.000001 0.000021 0.156829
  7   -2.022252 -0.104661 3.136172 0.376920 -1.186275 -3.525353
  8   1.168026 -0.537438 -0.063437 -0.497909 0.804240 -0.375577
  9   6.790376 -0.619176 0.015206 0.020148 0.054909 -1.382792
 10   8.637599 0.544015 -0.090417 -3.614626 0.247221 0.266830
 11   6.790465 -0.619039 0.017802 0.024329 0.024648 -0.983097
 12   -2.022474 -0.104699 -2.873818 3.375525 1.463557 0.041289
 13   1.167898 -0.537463 0.063297 -0.543671 -0.968012 -0.454889
 14   7.002743 -0.617765 -0.183752 0.050501 -0.128310 -1.957689
 15   8.209042 0.615527 -0.255885 2.584640 0.396468 0.407965
 16   7.002735 -0.617911 -0.183641 0.022158 -0.093172 -1.386709
 17   1.574674 0.609930 -0.000899 0.616348 -0.025836 0.592958
 18   -0.602177 0.511412 -0.000006 0.000000 0.000000 0.000000
 19   3.673773 0.177020 1.119313 -0.000002 -0.000014 -0.174510
 20   3.673767 0.176993 -1.117566 0.000007 -0.000003 -0.174546
 21   3.942357 1.334540 1.627658 0.000002 -0.000011 -0.000026
 22   -0.246060 -0.011889 0.516521 -0.000011 0.000031 0.000025
 23   3.942374 1.334565 -1.631083 0.000019 0.000002 -0.000024
 24   -0.246150 -0.011872 -0.516511 -0.000005 -0.000006 0.000048
 25   4.941364 1.997338 1.629330 0.000018 0.261744 -0.000024
 26   4.941382 1.997366 -1.629410 -0.000001 -0.261756 -0.000024
 27   2.914462 1.619264 1.514501 -0.000019 -0.000022 -0.000050
 28   2.916892 1.618870 -1.501142 -0.000002 -0.000009 -0.000024
 29   8.824059 0.150544 0.091743 0.000006 -0.000231 -0.174534
 30   2.111085 -0.561179 1.784320 -0.000008 -0.000682 0.000024
 31   2.121290 -0.561289 -1.853599 0.000000 0.000000 -0.000002
 32   -0.814395 -0.093824 3.127092 3.071965 -0.114691 1.239365
 33   14.298673 -0.408176 0.471578 0.000248 0.000063 -1.896136
 34   15.835795 0.581398 0.242756 -0.214735 0.106913 -0.097869
 35   -0.815868 -0.091229 -3.114430 0.066464 3.132818 -1.010216
 36   14.294526 -0.410349 -0.467541 0.000021 -0.000012 -2.607695
 37   15.834409 0.579420 -0.284600 -0.006092 -0.035255 0.214508
 38   1.139685 -3.453749 -2.823813 0.000000 0.000000 0.000001
 39   -4.457742 -1.054854 -0.746180 0.000000 0.000000 0.000000
 40   1.118101 -3.449769 3.237290 0.000000 0.000001 0.000000
 41   -4.433840 -1.059130 0.959566 -0.000001 0.000000 0.000000
 42   -0.657468 1.697302 -2.688614 0.000000 0.000002 0.000000
 43   -0.664068 1.698578 2.869377 0.000000 0.000002 0.000000
time 4
  0   -0.967547 0.175787 -20.574476 0.000000 0.000000 -1.572114
  1   -1.093036 0.000002 -0.326057 -0.214014 -1.569082 -1.356583
  2   2.262337 0.113614 0.064702 -0.075471 -0.097722 -0.086843
  3   2.380047 0.353302 0.047440 -0.149065 -0.036413 -0.081887
  4   2.033756 0.190472 -0.000128 -0.197493 -0.051318 -0.382431
  5   2.451511 0.204909 -0.003447 -0.470046 -0.021703 -0.386452
  6   7.247600 -0.397300 -0.109469 0.000001 0.000021 0.156829
  7   -2.022252 -0.104661 3.136172 0.447088 -1.225279 -3.635517
  8   1.168026 -0.537438 -0.063437 -0.663388 0.766454 -0.567825
  9   6.790376 -0.619176 0.015206 0.032742 0.048435 -1.141145
 10   8.637599 0.544015 -0.090417 -3.614626 0.247221 0.266830
 11   6.790465 -0.619039 0.017802 0.029905 0.019048 -0.814167
 12   -2.022474 -0.104699 -2.873818 -2.422910 1.453225 -5.761962
 13   1.167898 -0.537463 0.063297 -0.242943 -1.043073 -0.657317
 14   7.002743 -0.617765 -0.183752 0.028354 -0.134954 -1.789048
 15   8.209042 0.615527 -0.255885 2.602903 0.334957 0.443145
 16   7.002735 -0.617911 -0.183641 0.007612 -0.093003 -1.269038
 17   1.574674 0.609930 -0.000899 0.597094 -0.014760 0.594806
 18   -0.602177 0.511412 -0.000006 0.000000 0.000000 0.000000
 19   3.673773 0.177020 1.119313 -0.000002 -0.000014 -0.174510
 20   3.673767 0.176993 -1.117566 0.000007 -0.000003 -0.174546
 21   3.942357 1.334540 1.627658 0.000002 -0.000011 -0.000026
 22   -0.246060 -0.011889 0.516521 -0.000011 0.000031 0.000025
 23   3.942374 1.334565 -1.631083 0.000019 0.000002 -0.000024
 24   -0.246150 -0.011872 -0.516511 -0.000005 -0.000006 0.000048
 25   4.941364 1.997338 1.629330 0.000018 0.261744 -0.000024
 26   4.941382 1.997366 -1.629410 -0.000001 -0.261756 -0.000024
 27   2.914462 1.619264 1.514501 -0.000019 -0.000022 -0.000050
 28   2.916892 1.618870 -1.501142 -0.000002 -0.000009 -0.000024
 29   8.824059 0.150544 0.091743 0.000006 -0.000231 -0.174534
 30   2.111085 -0.561179 1.784320 -0.000008 -0.000682 0.000024
 31   2.121290 -0.561289 -1.853599 0.000000 0.000000 -0.000002
 32   -0.814395 -0.093824 3.127092 3.071965 -0.114691 1.239365
 33   14.298673 -0.408176 0.471578 0.000248 0.000063 -1.896136
 34   15.835795 0.581398 0.242756 -0.214735 0.106913 -0.097869
 35   -0.815868 -0.091229 -3.114430 0.066464 3.132818 -1.010216
 36   14.294526 -0.410349 -0.467541 0.000021 -0.000012 -2.607695
 37   15.834409 0.579420 -0.284600 -0.006092 -0.035255 0.214508
 38   1.139685 -3.453749 -2.823813 0.000000 0.000000 0.000001
 39   -4.457742 -1.054854 -0.746180 0.000000 0.000000 0.000000
 40   1.118101 -3.449769 3.237290 0.000000 0.000001 0.000000
 41   -4.433840 -1.059130 0.959566 -0.000001 0.000000 0.000000
 42   -0.657468 1.697302 -2.688614 0.000000 0.000002 0.000000
 43   -0.664068 1.698578 2.869377 0.000000 0.000002 0.000000
time 5
  0   -0.967547 0.175787 -20.574476 0.000000 0.000000 -1.572114
  1   -1.093036 0.000002 -0.326057 -0.214014 -1.569082 -1.356583
  2   2.262337 0.113614 0.064702 -0.075471 -0.097722 -0.086843
  3   2.380047 0.353302 0.047440 -0.149065 -0.036413 -0.081887
  4   2.033756 0.190472 -0.000128 -0.189360 -0.050743 -0.383917
  5   2.451511 0.204909 -0.003447 -0.444867 -0.017238 -0.383183
  6   7.247600 -0.397300 -0.109469 0.000001 0.000021 0.156829
  7   -2.022252 -0.104661 3.136172 0.479296 -1.239289 -3.683039
  8   1.168026 -0.537438 -0.063437 -0.721606 0.746580 -0.636336
  9   6.790376 -0.619176 0.015206 0.037014 0.045299 -1.050207
 10   8.637599 0.544015 -0.090417 -3.614626 0.247221 0.266830
 11   6.790465 -0.619039 0.017802 0.031628 0.016632 -0.750610
 12   -2.022474 -0.104699 -2.873818 -2.272780 1.443299 -5.613372
 13   1.167898 -0.537463 0.063297 -0.112966 -1.062042 -0.750601
 14   7.002743 -0.617765 -0.183752 0.019757 -0.136430 -1.725024
 15   8.209042 0.615527 -0.255885 2.609303 0.311352 0.456014
 16   7.002735 -0.617911 -0.183641 0.002245 -0.092439 -1.224387
 17   1.574674 0.609930 -0.000899 0.579139 -0.004394 0.596210
 18   -0.602177 0.511412 -0.000006 0.000000 0.000000 0.000000
 19   3.673773 0.177020 1.119313 -0.000002 -0.000014 -0.174510
 20   3.673767 0.176993 -1.117566 0.000007 -0.000003 -0.174546
 21   3.942357 1.334540 1.627658 0.000002 -0.000011 -0.000026
 22   -0.246060 -0.011889 0.516521 -0.000011 0.000031 0.000025
 23   3.942374 1.334565 -1.631083 0.000019 0.000002 -0.000024
 24   -0.246150 -0.011872 -0.516511 -0.000005 -0.000006 0.000048
 25   4.941364 1.997338 1.629330 0.000018 0.261744 -0.000024
 26   4.941382 1.997366 -1.629410 -0.000001 -0.261756 -0.000024
 27   2.914462 1.619264 1.514501 -0.000019 -0.000022 -0.000050
 28   2.916892 1.618870 -1.501142 -0.000002 -0.000009 -0.000024
 29   8.824059 0.150544 0.091743 0.000006 -0.000231 -0.174534
 30   2.111085 -0.561179 1.784320 -0.000008 -0.000682 0.000024
 31   2.121290 -0.561289 -1.853599 0.000000 0.000000 -0.000002
 32   -0.814395 -0.093824 3.127092 3.071965 -0.114691 1.239365
 33   14.298673 -0.408176 0.471578 0.000248 0.000063 -1.896136
 34   15.835795 0.581398 0.242756 -0.214735 0.106913 -0.097869
 35   -0.815868 -0.091229 -3.114430 0.066464 3.132818 -1.010216
 36   14.294526 -0.410349 -0.467541 0.000021 -0.000012 -2.607695
 37   15.834409 0.579420 -0.284600 -0.006092 -0.035255 0.214508
 38   1.139685 -3.453749 -2.823813 0.000000 0.000000 0.000001
 39   -4.457742 -1.054854 -0.746180 0.000000 0.000000 0.000000
 40   1.118101 -3.449769 3.237290 0.000000 0.000001 0.000000
 41   -4.433840 -1.059130 0.959566 -0.000001 0.000000 0.000000
 42   -0.657468 1.697302 -2.688614 0.000000 0.000002 0.000000
 43   -0.664068 1.698578 2.869377 0.000000 0.000002 0.000000
time 6
  0   -0.967547 0.175787 -20.574476 0.000000 0.000000 -1.572114
  1   -1.093036 0.000002 -0.326057 -0.214014 -1.569082 -1.356583
  2   2.262337 0.113614 0.064702 -0.075471 -0.097722 -0.086843
  3   2.380047 0.353302 0.047440 -0.149065 -0.036413 -0.081887
  4   2.033756 0.190472 -0.000128 -0.183698 -0.050323 -0.384932
  5   2.451511 0.204909 -0.003447 -0.427425 -0.014157 -0.380855
  6   7.247600 -0.397300 -0.109469 0.000001 0.000021 0.156829
  7   -2.022252 -0.104661 3.136172 0.479296 -1.239289 -3.683039
  8   1.168026 -0.537438 -0.063437 -0.721606 0.746580 -0.636336
  9   6.790376 -0.619176 0.015206 0.037014 0.045299 -1.050207
 10   8.637599 0.544015 -0.090417 -3.614626 0.247221 0.266830
 11   6.790465 -0.619039 0.017802 0.031628 0.016632 -0.750610
 12   -2.022474 -0.104699 -2.873818 -2.272780 1.443299 -5.613372
 13   1.167898 -0.537463 0.063297 -0.112966 -1.062042 -0.750601
 14   7.002743 -0.617765 -0.183752 0.019757 -0.136430 -1.725024
 15   8.209042 0.615527 -0.255885 2.609303 0.311352 0.456014
 16   7.002735 -0.617911 -0.183641 0.002245 -0.092439 -1.224387
 17   1.574674 0.609930 -0.000899 0.566668 0.002706 0.597098
 18   -0.602177 0.511412 -0.000006 0.000000 0.000000 0.000000
 19   3.673773 0.177020 1.119313 -0.000002 -0.000014 -0.174510
 20   3.673767 0.176993 -1.117566 0.000007 -0.000003 -0.174546
 21   3.942357 1.334540 1.627658 0.000002 -0.000011 -0.000026
 22   -0.246060 -0.011889 0.516521 -0.000011 0.000031 0.000025
 23   3.942374 1.334565 -1.631083 0.000019 0.000002 -0.000024
 24   -0.246150 -0.011872 -0.516511 -0.000005 -0.000006 0.000048
 25   4.941364 1.997338 1.629330 0.000018 0.261744 -0.000024
 26   4.941382 1.997366 -1.629410 -0.000001 -0.261756 -0.000024
 27   2.914462 1.619264 1.514501 -0.000019 -0.000022 -0.000050
 28   2.916892 1.618870 -1.501142 -0.000002 -0.000009 -0.000024
 29   8.824059 0.150544 0.091743 0.000006 -0.000231 -0.174534
 30   2.111085 -0.561179 1.784320 -0.000008 -0.000682 0.000024
 31   2.121290 -0.561289 -1.853599 0.000000 0.000000 -0.000002
 32   -0.814395 -0.093824 3.127092 3.071965 -0.114691 1.239365
 33   14.298673 -0.408176 0.471578 0.000248 0.000063 -1.896136
 34   15.835795 0.581398 0.242756 -0.214735 0.106913 -0.097869
 35   -0.815868 -0.091229 -3.114430 0.066464 3.132818 -1.010216
 36   14.294526 -0.410349 -0.467541 0.000021 -0.000012 -2.607695
 37   15.834409 0.579420 -0.284600 -0.006092 -0.035255 0.214508
 38   1.139685 -3.453749 -2.823813 0.000000 0.000000 0.000001
 39   -4.457742 -1.054854 -0.746180 0.000000 0.000000 0.000000
 40   1.118101 -3.449769 3.237290 0.000000 0.000001 0.000000
 41   -4.433840 -1.059130 0.959566 -0.000001 0.000000 0.000000
 42   -0.657468 1.697302 -2.688614 0.000000 0.000002 0.000000
 43   -0.664068 1.698578 2.869377 0.000000 0.000002 0.000000
time 7
  0   -0.967547 0.175787 -20.574476 0.000000 0.000000 -1.572114
  1   -1.093036 0.000002 -0.326057 -0.214014 -1.569082 -1.356583
  2   2.262337 0.113614 0.064702 -0.075471 -0.097722 -0.086843
  3   2.380047 0.353302 0.047440 -0.149065 -0.036413 -0.081887
  4   2.033756 0.190472 -0.000128 -0.181651 -0.050179 -0.385367
  5   2.451511 0.204909 -0.003447 -0.421126 -0.013034 -0.380013
  6   7.247600 -0.397300 -0.109469 0.000001 0.000021 0.156829
  7   -2.022252 -0.104661 3.136172 0.479296 -1.239289 -3.683039
  8   1.168026 -0.537438 -0.063437 -0.721606 0.746580 -0.636336
  9   6.790376 -0.619176 0.015206 0.037014 0.045299 -1.050207
 10   8.637599 0.544015 -0.090417 -3.614626 0.247221 0.266830
 11   6.790465 -0.619039 0.017802 0.031628 0.016632 -0.750610
 12   -2.022474 -0.104699 -2.873818 -2.272780 1.443299 -5.613372
 13   1.167898 -0.537463 0.063297 -0.112966 -1.062042 -0.750601
 14   7.002743 -0.617765 -0.183752 0.019757 -0.136430 -1.725024
 15   8.209042 0.615527 -0.255885 2.609303 0.311352 0.456014
 16   7.002735 -0.617911 -0.183641 0.002245 -0.092439 -1.224387
 17   1.574674 0.609930 -0.000899 0.562241 0.005309 0.597467
 18   -0.602177 0.511412 -0.000006 0.000000 0.000000 0.000000
 19   3.673773 0.177020 1.119313 -0.000002 -0.000014 -0.174510
 20   3.673767 0.176993 -1.117566 0.000007 -0.000003 -0.174546
 21   3.942357 1.334540 1.627658 0.000002 -0.000011 -0.000026
 22   -0.246060 -0.011889 0.516521 -0.000011 0.000031 0.000025
 23   3.942374 1.334565 -1.631083 0.000019 0.000002 -0.000024
 24   -0.246150 -0.011872 -0.516511 -0.000005 -0.000006 0.000048
 25   4.941364 1.997338 1.629330 0.000018 0.261744 -0.000024
 26   4.941382 1.997366 -1.629410 -0.000001 -0.261756 -0.000024
 27   2.914462 1.619264 1.514501 -0.000019 -0.000022 -0.000050
 28   2.916892 1.618870 -1.501142 -0.000002 -0.000009 -0.000024
 29   8.824059 0.150544 0.091743 0.000006 -0.000231 -0.174534
 30   2.111085 -0.561179 1.784320 -0.000008 -0.000682 0.000024
 31   2.121290 -0.561289 -1.853599 0.000000 0.000000 -0.000002
 32   -0.814395 -0.093824 3.127092 3.071965 -0.114691 1.239365
 33   14.298673 -0.408176 0.471578 0.000248 0.000063 -1.896136
 34   15.835795 0.581398 0.242756 -0.214735 0.106913 -0.097869
 35   -0.815868 -0.091229 -3.114430 0.066464 3.132818 -1.010216
 36   14.294526 -0.410349 -0.467541 0.000021 -0.000012 -2.607695
 37   15.834409 0.579420 -0.284600 -0.006092 -0.035255 0.214508
 38   1.139685 -3.453749 -2.823813 0.000000 0.000000 0.000001
 39   -4.457742 -1.054854 -0.746180 0.000000 0.000000 0.000000
 40   1.118101 -3.449769 3.237290 0.000000 0.000001 0.000000
 41   -4.433840 -1.059130 0.959566 -0.000001 0.000000 0.000000
 42   -0.657468 1.697302 -2.688614 0.000000 0.000002 0.000000
 43   -0.664068 1.698578 2.869377 0.000000 0.000002 0.000000
end
