version 1
nodes
  0 "Bip01" -1
  1 "Bip01 Pelvis" 0
  2 "Bip01 Spine" 1
  3 "Bip01 Spine1" 2
  4 "Bip01 Spine2" 3
  5 "Bip01 Spine3" 4
  6 "Bip01 Neck" 5
  7 "Bip01 L Arm" 6
  8 "Bip01 L Arm1" 7
  9 "Bip01 L Arm2" 8
 10 "Bip01 L Hand" 9
 11 "Bip06 L elbow2-smooth" 8
 12 "Bip01 R Arm" 6
 13 "Bip01 R Arm1" 12
 14 "Bip01 R Arm2" 13
 15 "Bip01 R Hand" 14
 16 "Bip06 R elbow2-smooth" 13
 17 "Bip01 Head" 6
 18 "Bip06 Head_helper" 17
 19 "Bip06 Head_eyes_l" 18
 20 "Bip06 Head_eyes_r" 18
 21 "Bip06 Head_blink_l" 18
 22 "Bip06 Head_blink_smooth_l1" 21
 23 "Bip06 Head_blink_r" 18
 24 "Bip06 Head_blink_smooth_r1" 23
 25 "Bip06 Head_L_eyebrow" 18
 26 "Bip06 Head_R_eyebrow" 18
 27 "Bip06 Head_blink_l_lid" 18
 28 "Bip06 Head_blink_r_lid" 18
 29 "Bip06 bunny" 18
 30 "Bip06 bunnyL" 29
 31 "Bip06 bunnyR" 29
 32 "Bip01 L Leg" 1
 33 "Bip01 L Leg1" 32
 34 "Bip01 L Foot" 33
 35 "Bip01 R Leg" 1
 36 "Bip01 R Leg1" 35
 37 "Bip01 R Foot" 36
 38 "Bip03 HairR1" 17
 39 "Bip03 HairR2" 38
 40 "Bip03 HairL1" 17
 41 "Bip03 HairL2" 40
 42 "Bip03 swingR" 17
 43 "Bip03 swingL" 17
end
skeleton
time 0
  0   -0.967547 0.175787 -20.574476 0.000000 0.000000 -1.572114
  1   -1.093036 0.000002 -0.326057 -1.570756 -1.570425 -0.000219
  2   2.262337 0.113614 0.064702 -0.000052 0.000049 -0.243264
  3   2.380047 0.353302 0.047440 -0.155830 0.017625 0.111822
  4   2.033756 0.190472 -0.000128 -0.287327 0.015065 0.049814
  5   2.451511 0.204909 -0.003447 -0.156739 0.005544 0.034263
  6   7.247600 -0.397300 -0.109469 -0.000155 -0.183080 -0.252900
  7   -2.022252 -0.104661 3.136172 -1.657378 -1.783172 -1.187587
  8   1.168026 -0.537438 -0.063437 -0.881958 0.933749 -0.864263
  9   6.790376 -0.619176 0.015206 -0.000158 -0.000285 -1.932950
 10   8.637599 0.544015 -0.090417 -1.656328 -0.275709 -0.099594
 11   6.790465 -0.619039 0.017802 0.004388 -0.011935 -1.368308
 12   -2.022474 -0.104699 -2.873818 0.039619 1.193548 -2.846550
 13   1.167898 -0.537463 0.063297 -0.784014 -0.773595 0.300767
 14   7.002743 -0.617765 -0.183752 0.000229 0.000250 -2.147204
 15   8.209042 0.615527 -0.255885 1.570090 -0.000063 -0.069706
 16   7.002735 -0.617911 -0.183641 0.012602 0.012161 -1.521766
 17   1.574674 0.609930 -0.000899 0.574468 0.322280 -0.062620
 18   -0.602177 0.511412 -0.000006 0.000000 0.000000 0.000000
 19   3.673773 0.177020 1.119313 -0.000002 -0.000014 -0.174510
 20   3.673767 0.176993 -1.117566 0.000007 -0.000003 -0.174546
 21   3.942357 1.334540 1.627658 0.000002 -0.000011 -0.000026
 22   -0.246060 -0.011889 0.516521 -0.000011 0.000031 0.000025
 23   3.942374 1.334565 -1.631083 0.000019 0.000002 -0.000024
 24   -0.246150 -0.011872 -0.516511 -0.000005 -0.000006 0.000048
 25   4.941364 1.997338 1.629330 0.000018 -0.000001 -0.000024
 26   4.941382 1.997366 -1.629410 -0.000001 0.000005 -0.000024
 27   2.914462 1.619264 1.514501 -0.000019 -0.000022 -0.000050
 28   2.916892 1.618870 -1.501142 -0.000002 -0.000009 -0.000024
 29   8.824059 0.150544 0.091743 0.000006 -0.000231 -0.174534
 30   2.111085 -0.561179 1.784320 -0.000008 -0.000682 0.000024
 31   2.121290 -0.561289 -1.853599 0.000000 0.000000 -0.000002
 32   -0.814395 -0.093824 3.127092 3.071965 -0.114691 1.239365
 33   14.298673 -0.408176 0.471578 0.000248 0.000063 -1.896136
 34   15.835795 0.581398 0.242756 -0.214735 0.106913 -0.097869
 35   -0.815868 -0.091229 -3.114430 0.066464 3.132818 -1.010216
 36   14.294526 -0.410349 -0.467541 0.000021 -0.000012 -2.607695
 37   15.834409 0.579420 -0.284600 -0.006092 -0.035255 0.214508
 38   1.139685 -3.453749 -2.823813 0.000000 0.000000 0.000001
 39   -4.457742 -1.054854 -0.746180 0.000000 0.000000 0.000000
 40   1.118101 -3.449769 3.237290 0.000000 0.000001 0.000000
 41   -4.433840 -1.059130 0.959566 -0.000001 0.000000 0.000000
 42   -0.657468 1.697302 -2.688614 0.000000 0.000002 0.000000
 43   -0.664068 1.698578 2.869377 0.000000 0.000002 0.000000
time 1
  0   -0.967547 0.175787 -20.574476 0.000000 0.000000 -1.572114
  1   -1.093036 0.000002 -0.326057 -1.570756 -1.570425 -0.000219
  2   2.262337 0.113614 0.064702 -0.000052 0.000049 -0.243264
  3   2.380047 0.353302 0.047440 -0.155830 0.017625 0.111822
  4   2.033756 0.190472 -0.000128 -0.047647 0.000983 0.058804
  5   2.451511 0.204909 -0.003447 -0.156825 0.005217 0.033025
  6   7.247600 -0.397300 -0.109469 -0.000155 -0.183080 -0.252900
  7   -2.022252 -0.104661 3.136172 -1.657378 -1.783172 -1.187587
  8   1.168026 -0.537438 -0.063437 -0.730402 0.946730 -0.227864
  9   6.790376 -0.619176 0.015206 -0.000158 -0.000151 -1.932950
 10   8.637599 0.544015 -0.090417 -1.656328 -0.275709 -0.099594
 11   6.790465 -0.619039 0.017802 0.004388 -0.011935 -1.368308
 12   -2.022474 -0.104699 -2.873818 -0.443344 1.154569 -3.326404
 13   1.167898 -0.537463 0.063297 0.235704 -0.946043 -0.430130
 14   7.002743 -0.617765 -0.183752 0.000286 0.000250 -1.686164
 15   8.209042 0.615527 -0.255885 2.176879 0.128785 0.170843
 16   7.002735 -0.617911 -0.183641 0.013449 0.009341 -1.199054
 17   1.574674 0.609930 -0.000899 0.333583 0.267775 -0.092374
 18   -0.602177 0.511412 -0.000006 0.000000 0.000000 0.000000
 19   3.673773 0.177020 1.119313 -0.000002 -0.000014 -0.174510
 20   3.673767 0.176993 -1.117566 0.000007 -0.000003 -0.174546
 21   3.942357 1.334540 1.627658 0.000002 -0.000011 -0.000026
 22   -0.246060 -0.011889 0.516521 -0.000011 0.000031 0.000025
 23   3.942374 1.334565 -1.631083 0.000019 0.000002 -0.000024
 24   -0.246150 -0.011872 -0.516511 -0.000005 -0.000006 0.000048
 25   4.941364 1.997338 1.629330 0.000018 -0.000001 -0.000024
 26   4.941382 1.997366 -1.629410 -0.000001 0.000005 -0.000024
 27   2.914462 1.619264 1.514501 -0.000019 -0.000022 -0.000050
 28   2.916892 1.618870 -1.501142 -0.000002 -0.000009 -0.000024
 29   8.824059 0.150544 0.091743 0.000006 -0.000231 -0.174534
 30   2.111085 -0.561179 1.784320 -0.000008 -0.000682 0.000024
 31   2.121290 -0.561289 -1.853599 0.000000 0.000000 -0.000002
 32   -0.814395 -0.093824 3.127092 3.071965 -0.114691 1.239365
 33   14.298673 -0.408176 0.471578 0.000248 0.000063 -1.896136
 34   15.835795 0.581398 0.242756 -0.214735 0.106913 -0.097869
 35   -0.815868 -0.091229 -3.114430 0.066464 3.132818 -1.010216
 36   14.294526 -0.410349 -0.467541 0.000021 -0.000012 -2.607695
 37   15.834409 0.579420 -0.284600 -0.006092 -0.035255 0.214508
 38   1.139685 -3.453749 -2.823813 0.000000 0.000000 0.000001
 39   -4.457742 -1.054854 -0.746180 0.000000 0.000000 0.000000
 40   1.118101 -3.449769 3.237290 0.000000 0.000001 0.000000
 41   -4.433840 -1.059130 0.959566 -0.000001 0.000000 0.000000
 42   -0.657468 1.697302 -2.688614 0.000000 0.000002 0.000000
 43   -0.664068 1.698578 2.869377 0.000000 0.000002 0.000000
time 2
  0   -0.967547 0.175787 -20.574476 0.000000 0.000000 -1.572114
  1   -1.093036 0.000002 -0.326057 -1.570756 -1.570425 -0.000219
  2   2.262337 0.113614 0.064702 -0.000052 0.000049 -0.243264
  3   2.380047 0.353302 0.047440 -0.155830 0.017625 0.111822
  4   2.033756 0.190472 -0.000128 0.191830 -0.014765 0.064096
  5   2.451511 0.204909 -0.003447 -0.156825 0.005034 0.031836
  6   7.247600 -0.397300 -0.109469 -0.000155 -0.183080 -0.252900
  7   -2.022252 -0.104661 3.136172 -1.657378 -1.783172 -1.187587
  8   1.168026 -0.537438 -0.063437 -0.499934 0.821196 0.165363
  9   6.790376 -0.619176 0.015206 -0.000158 -0.000151 -1.932950
 10   8.637599 0.544015 -0.090417 -1.656328 -0.275709 -0.099594
 11   6.790465 -0.619039 0.017802 0.004388 -0.011935 -1.368308
 12   -2.022474 -0.104699 -2.873818 -0.785184 1.044481 -3.666476
 13   1.167898 -0.537463 0.063297 0.893537 -0.477723 -0.797697
 14   7.002743 -0.617765 -0.183752 0.000229 0.000250 -1.225124
 15   8.209042 0.615527 -0.255885 2.799342 0.094890 0.443205
 16   7.002735 -0.617911 -0.183641 0.014014 0.006747 -0.876231
 17   1.574674 0.609930 -0.000899 0.097857 0.207779 -0.107601
 18   -0.602177 0.511412 -0.000006 0.000000 0.000000 0.000000
 19   3.673773 0.177020 1.119313 -0.000002 -0.000014 -0.174510
 20   3.673767 0.176993 -1.117566 0.000007 -0.000003 -0.174546
 21   3.942357 1.334540 1.627658 0.000002 -0.000011 -0.000026
 22   -0.246060 -0.011889 0.516521 -0.000011 0.000031 0.000025
 23   3.942374 1.334565 -1.631083 0.000019 0.000002 -0.000024
 24   -0.246150 -0.011872 -0.516511 -0.000005 -0.000006 0.000048
 25   4.941364 1.997338 1.629330 0.000018 -0.000001 -0.000024
 26   4.941382 1.997366 -1.629410 -0.000001 0.000005 -0.000024
 27   2.914462 1.619264 1.514501 -0.000019 -0.000022 -0.000050
 28   2.916892 1.618870 -1.501142 -0.000002 -0.000009 -0.000024
 29   8.824059 0.150544 0.091743 0.000006 -0.000231 -0.174534
 30   2.111085 -0.561179 1.784320 -0.000008 -0.000682 0.000024
 31   2.121290 -0.561289 -1.853599 0.000000 0.000000 -0.000002
 32   -0.814395 -0.093824 3.127092 3.071965 -0.114691 1.239365
 33   14.298673 -0.408176 0.471578 0.000248 0.000063 -1.896136
 34   15.835795 0.581398 0.242756 -0.214735 0.106913 -0.097869
 35   -0.815868 -0.091229 -3.114430 0.066464 3.132818 -1.010216
 36   14.294526 -0.410349 -0.467541 0.000021 -0.000012 -2.607695
 37   15.834409 0.579420 -0.284600 -0.006092 -0.035255 0.214508
 38   1.139685 -3.453749 -2.823813 0.000000 0.000000 0.000001
 39   -4.457742 -1.054854 -0.746180 0.000000 0.000000 0.000000
 40   1.118101 -3.449769 3.237290 0.000000 0.000001 0.000000
 41   -4.433840 -1.059130 0.959566 -0.000001 0.000000 0.000000
 42   -0.657468 1.697302 -2.688614 0.000000 0.000002 0.000000
 43   -0.664068 1.698578 2.869377 0.000000 0.000002 0.000000
time 3
  0   -0.967547 0.175787 -20.574476 0.000000 0.000000 -1.572114
  1   -1.093036 0.000002 -0.326057 -1.570756 -1.570425 -0.000219
  2   2.262337 0.113614 0.064702 -0.000052 0.000049 -0.243264
  3   2.380047 0.353302 0.047440 -0.155830 0.017625 0.111822
  4   2.033756 0.190472 -0.000128 0.321702 -0.025072 0.074100
  5   2.451511 0.204909 -0.003447 -0.156739 0.005544 0.034263
  6   7.247600 -0.397300 -0.109469 -0.000155 -0.183080 -0.252900
  7   -2.022252 -0.104661 3.136172 -1.657378 -1.783172 -1.187587
  8   1.168026 -0.537438 -0.063437 -0.428174 0.709146 0.276575
  9   6.790376 -0.619176 0.015206 -0.000158 -0.000285 -1.932950
 10   8.637599 0.544015 -0.090417 -1.656328 -0.275709 -0.099594
 11   6.790465 -0.619039 0.017802 0.004388 -0.011935 -1.368308
 12   -2.022474 -0.104699 -2.873818 -0.912703 0.967568 -3.791897
 13   1.167898 -0.537463 0.063297 1.028787 -0.124691 -0.777963
 14   7.002743 -0.617765 -0.183752 0.000229 0.000250 -0.933550
 15   8.209042 0.615527 -0.255885 3.125278 0.010529 0.566727
 16   7.002735 -0.617911 -0.183641 0.014296 0.005169 -0.672073
 17   1.574674 0.609930 -0.000899 -0.030344 0.173841 -0.121758
 18   -0.602177 0.511412 -0.000006 0.000000 0.000000 0.000000
 19   3.673773 0.177020 1.119313 -0.000002 -0.000014 -0.174510
 20   3.673767 0.176993 -1.117566 0.000007 -0.000003 -0.174546
 21   3.942357 1.334540 1.627658 0.000002 -0.000011 -0.000026
 22   -0.246060 -0.011889 0.516521 -0.000011 0.000031 0.000025
 23   3.942374 1.334565 -1.631083 0.000019 0.000002 -0.000024
 24   -0.246150 -0.011872 -0.516511 -0.000005 -0.000006 0.000048
 25   4.941364 1.997338 1.629330 0.000018 -0.000001 -0.000024
 26   4.941382 1.997366 -1.629410 -0.000001 0.000005 -0.000024
 27   2.914462 1.619264 1.514501 -0.000019 -0.000022 -0.000050
 28   2.916892 1.618870 -1.501142 -0.000002 -0.000009 -0.000024
 29   8.824059 0.150544 0.091743 0.000006 -0.000231 -0.174534
 30   2.111085 -0.561179 1.784320 -0.000008 -0.000682 0.000024
 31   2.121290 -0.561289 -1.853599 0.000000 0.000000 -0.000002
 32   -0.814395 -0.093824 3.127092 3.071965 -0.114691 1.239365
 33   14.298673 -0.408176 0.471578 0.000248 0.000063 -1.896136
 34   15.835795 0.581398 0.242756 -0.214735 0.106913 -0.097869
 35   -0.815868 -0.091229 -3.114430 0.066464 3.132818 -1.010216
 36   14.294526 -0.410349 -0.467541 0.000021 -0.000012 -2.607695
 37   15.834409 0.579420 -0.284600 -0.006092 -0.035255 0.214508
 38   1.139685 -3.453749 -2.823813 0.000000 0.000000 0.000001
 39   -4.457742 -1.054854 -0.746180 0.000000 0.000000 0.000000
 40   1.118101 -3.449769 3.237290 0.000000 0.000001 0.000000
 41   -4.433840 -1.059130 0.959566 -0.000001 0.000000 0.000000
 42   -0.657468 1.697302 -2.688614 0.000000 0.000002 0.000000
 43   -0.664068 1.698578 2.869377 0.000000 0.000002 0.000000
time 4
  0   -0.967547 0.175787 -20.574476 0.000000 0.000000 -1.572114
  1   -1.093036 0.000002 -0.326057 -1.570756 -1.570425 -0.000219
  2   2.262337 0.113614 0.064702 -0.000052 0.000049 -0.243264
  3   2.380047 0.353302 0.047440 -0.155830 0.017625 0.111822
  4   2.033756 0.190472 -0.000128 0.325667 -0.028907 0.096537
  5   2.451511 0.204909 -0.003447 -0.156722 0.006653 0.042188
  6   7.247600 -0.397300 -0.109469 -0.000155 -0.183080 -0.252900
  7   -2.022252 -0.104661 3.136172 -1.653256 -1.783172 -1.191719
  8   1.168026 -0.537438 -0.063437 -0.439691 0.707989 0.179470
  9   6.790376 -0.619176 0.015206 -0.000158 -0.000151 -1.932950
 10   8.637599 0.544015 -0.090417 -1.656328 -0.275639 -0.099594
 11   6.790465 -0.619039 0.017802 0.004388 -0.011935 -1.368308
 12   -2.022474 -0.104699 -2.873818 -0.916152 0.965130 -3.795440
 13   1.167898 -0.537463 0.063297 1.041932 -0.085329 -0.782079
 14   7.002743 -0.617765 -0.183752 0.000229 0.000250 -0.816309
 15   8.209042 0.615527 -0.255885 3.134985 0.007352 0.569914
 16   7.002735 -0.617911 -0.183641 0.014391 0.004548 -0.590001
 17   1.574674 0.609930 -0.000899 -0.040256 0.171569 -0.152731
 18   -0.602177 0.511412 -0.000006 0.000000 0.000000 0.000000
 19   3.673773 0.177020 1.119313 -0.000002 -0.000014 -0.174510
 20   3.673767 0.176993 -1.117566 0.000007 -0.000003 -0.174546
 21   3.942357 1.334540 1.627658 0.000002 -0.000011 -0.000026
 22   -0.246060 -0.011889 0.516521 -0.000011 0.000031 0.000025
 23   3.942374 1.334565 -1.631083 0.000019 0.000002 -0.000024
 24   -0.246150 -0.011872 -0.516511 -0.000005 -0.000006 0.000048
 25   4.941364 1.997338 1.629330 0.000018 -0.000001 -0.000024
 26   4.941382 1.997366 -1.629410 -0.000001 0.000005 -0.000024
 27   2.914462 1.619264 1.514501 -0.000019 -0.000022 -0.000050
 28   2.916892 1.618870 -1.501142 -0.000002 -0.000009 -0.000024
 29   8.824059 0.150544 0.091743 0.000006 -0.000231 -0.174534
 30   2.111085 -0.561179 1.784320 -0.000008 -0.000682 0.000024
 31   2.121290 -0.561289 -1.853599 0.000000 0.000000 -0.000002
 32   -0.814395 -0.093824 3.127092 3.071965 -0.114691 1.239365
 33   14.298673 -0.408176 0.471578 0.000248 0.000063 -1.896136
 34   15.835795 0.581398 0.242756 -0.214735 0.106913 -0.097869
 35   -0.815868 -0.091229 -3.114430 0.066464 3.132818 -1.010216
 36   14.294526 -0.410349 -0.467541 0.000021 -0.000012 -2.607695
 37   15.834409 0.579420 -0.284600 -0.006092 -0.035255 0.214508
 38   1.139685 -3.453749 -2.823813 0.000000 0.000000 0.000001
 39   -4.457742 -1.054854 -0.746180 0.000000 0.000000 0.000000
 40   1.118101 -3.449769 3.237290 0.000000 0.000001 0.000000
 41   -4.433840 -1.059130 0.959566 -0.000001 0.000000 0.000000
 42   -0.657468 1.697302 -2.688614 0.000000 0.000002 0.000000
 43   -0.664068 1.698578 2.869377 0.000000 0.000002 0.000000
time 5
  0   -0.967547 0.175787 -20.574476 0.000000 0.000000 -1.572114
  1   -1.093036 0.000002 -0.326057 -1.570756 -1.570425 -0.000219
  2   2.262337 0.113614 0.064702 -0.000052 0.000049 -0.243264
  3   2.380047 0.353302 0.047440 -0.155830 0.017625 0.111822
  4   2.033756 0.190472 -0.000128 0.275448 -0.028583 0.126984
  5   2.451511 0.204909 -0.003447 -0.156688 0.008559 0.053258
  6   7.247600 -0.397300 -0.109469 -0.000155 -0.183080 -0.252900
  7   -2.022252 -0.104661 3.136172 -1.642807 -1.783028 -1.201768
  8   1.168026 -0.537438 -0.063437 -0.480064 0.725146 0.075470
  9   6.790376 -0.619176 0.015206 -0.000158 -0.000151 -1.932950
 10   8.637599 0.544015 -0.090417 -1.656328 -0.275287 -0.099811
 11   6.790465 -0.619039 0.017802 0.004388 -0.011935 -1.368308
 12   -2.022474 -0.104699 -2.873818 -0.871219 0.996040 -3.751207
 13   1.167898 -0.537463 0.063297 1.019367 -0.182411 -0.813739
 14   7.002743 -0.617765 -0.183752 0.000229 0.000250 -0.763258
 15   8.209042 0.615527 -0.255885 3.010952 0.044954 0.526074
 16   7.002735 -0.617911 -0.183641 0.014438 0.004266 -0.552912
 17   1.574674 0.609930 -0.000899 -0.000325 0.184136 -0.195310
 18   -0.602177 0.511412 -0.000006 0.000000 0.000000 0.000000
 19   3.673773 0.177020 1.119313 -0.000002 -0.000014 -0.174510
 20   3.673767 0.176993 -1.117566 0.000007 -0.000003 -0.174546
 21   3.942357 1.334540 1.627658 0.000002 -0.000011 -0.000026
 22   -0.246060 -0.011889 0.516521 -0.000011 0.000031 0.000025
 23   3.942374 1.334565 -1.631083 0.000019 0.000002 -0.000024
 24   -0.246150 -0.011872 -0.516511 -0.000005 -0.000006 0.000048
 25   4.941364 1.997338 1.629330 0.000018 -0.000001 -0.000024
 26   4.941382 1.997366 -1.629410 -0.000001 0.000005 -0.000024
 27   2.914462 1.619264 1.514501 -0.000019 -0.000022 -0.000050
 28   2.916892 1.618870 -1.501142 -0.000002 -0.000009 -0.000024
 29   8.824059 0.150544 0.091743 0.000006 -0.000231 -0.174534
 30   2.111085 -0.561179 1.784320 -0.000008 -0.000682 0.000024
 31   2.121290 -0.561289 -1.853599 0.000000 0.000000 -0.000002
 32   -0.814395 -0.093824 3.127092 3.071965 -0.114691 1.239365
 33   14.298673 -0.408176 0.471578 0.000248 0.000063 -1.896136
 34   15.835795 0.581398 0.242756 -0.214735 0.106913 -0.097869
 35   -0.815868 -0.091229 -3.114430 0.066464 3.132818 -1.010216
 36   14.294526 -0.410349 -0.467541 0.000021 -0.000012 -2.607695
 37   15.834409 0.579420 -0.284600 -0.006092 -0.035255 0.214508
 38   1.139685 -3.453749 -2.823813 0.000000 0.000000 0.000001
 39   -4.457742 -1.054854 -0.746180 0.000000 0.000000 0.000000
 40   1.118101 -3.449769 3.237290 0.000000 0.000001 0.000000
 41   -4.433840 -1.059130 0.959566 -0.000001 0.000000 0.000000
 42   -0.657468 1.697302 -2.688614 0.000000 0.000002 0.000000
 43   -0.664068 1.698578 2.869377 0.000000 0.000002 0.000000
time 6
  0   -0.967547 0.175787 -20.574476 0.000000 0.000000 -1.572114
  1   -1.093036 0.000002 -0.326057 -1.570756 -1.570425 -0.000219
  2   2.262337 0.113614 0.064702 -0.000052 0.000049 -0.243264
  3   2.380047 0.353302 0.047440 -0.155830 0.017625 0.111822
  4   2.033756 0.190472 -0.000128 0.192991 -0.023322 0.157686
  5   2.451511 0.204909 -0.003447 -0.156568 0.010361 0.064700
  6   7.247600 -0.397300 -0.109469 -0.000155 -0.183080 -0.252900
  7   -2.022252 -0.104661 3.136172 -1.629866 -1.782855 -1.215856
  8   1.168026 -0.537438 -0.063437 -0.539864 0.748995 -0.041056
  9   6.790376 -0.619176 0.015206 -0.000158 -0.000285 -1.932950
 10   8.637599 0.544015 -0.090417 -1.656328 -0.274794 -0.099811
 11   6.790465 -0.619039 0.017802 0.004388 -0.011935 -1.368308
 12   -2.022474 -0.104699 -2.873818 -0.787100 1.043697 -3.668104
 13   1.167898 -0.537463 0.063297 0.956170 -0.362283 -0.845701
 14   7.002743 -0.617765 -0.183752 0.000229 0.000250 -0.769281
 15   8.209042 0.615527 -0.255885 2.803081 0.094133 0.444769
 16   7.002735 -0.617911 -0.183641 0.014438 0.004323 -0.557161
 17   1.574674 0.609930 -0.000899 0.069869 0.207637 -0.237224
 18   -0.602177 0.511412 -0.000006 0.000000 0.000000 0.000000
 19   3.673773 0.177020 1.119313 -0.000002 -0.000014 -0.174510
 20   3.673767 0.176993 -1.117566 0.000007 -0.000003 -0.174546
 21   3.942357 1.334540 1.627658 0.000002 -0.000011 -0.000026
 22   -0.246060 -0.011889 0.516521 -0.000011 0.000031 0.000025
 23   3.942374 1.334565 -1.631083 0.000019 0.000002 -0.000024
 24   -0.246150 -0.011872 -0.516511 -0.000005 -0.000006 0.000048
 25   4.941364 1.997338 1.629330 0.000018 -0.000001 -0.000024
 26   4.941382 1.997366 -1.629410 -0.000001 0.000005 -0.000024
 27   2.914462 1.619264 1.514501 -0.000019 -0.000022 -0.000050
 28   2.916892 1.618870 -1.501142 -0.000002 -0.000009 -0.000024
 29   8.824059 0.150544 0.091743 0.000006 -0.000231 -0.174534
 30   2.111085 -0.561179 1.784320 -0.000008 -0.000682 0.000024
 31   2.121290 -0.561289 -1.853599 0.000000 0.000000 -0.000002
 32   -0.814395 -0.093824 3.127092 3.071965 -0.114691 1.239365
 33   14.298673 -0.408176 0.471578 0.000248 0.000063 -1.896136
 34   15.835795 0.581398 0.242756 -0.214735 0.106913 -0.097869
 35   -0.815868 -0.091229 -3.114430 0.066464 3.132818 -1.010216
 36   14.294526 -0.410349 -0.467541 0.000021 -0.000012 -2.607695
 37   15.834409 0.579420 -0.284600 -0.006092 -0.035255 0.214508
 38   1.139685 -3.453749 -2.823813 0.000000 0.000000 0.000001
 39   -4.457742 -1.054854 -0.746180 0.000000 0.000000 0.000000
 40   1.118101 -3.449769 3.237290 0.000000 0.000001 0.000000
 41   -4.433840 -1.059130 0.959566 -0.000001 0.000000 0.000000
 42   -0.657468 1.697302 -2.688614 0.000000 0.000002 0.000000
 43   -0.664068 1.698578 2.869377 0.000000 0.000002 0.000000
time 7
  0   -0.967547 0.175787 -20.574476 0.000000 0.000000 -1.572114
  1   -1.093036 0.000002 -0.326057 -1.570756 -1.570425 -0.000219
  2   2.262337 0.113614 0.064702 -0.000052 0.000049 -0.243264
  3   2.380047 0.353302 0.047440 -0.155830 0.017625 0.111822
  4   2.033756 0.190472 -0.000128 0.100520 -0.013650 0.180159
  5   2.451511 0.204909 -0.003447 -0.156431 0.011784 0.073665
  6   7.247600 -0.397300 -0.109469 -0.000155 -0.183080 -0.252900
  7   -2.022252 -0.104661 3.136172 -1.616542 -1.782769 -1.229192
  8   1.168026 -0.537438 -0.063437 -0.605929 0.771083 -0.171752
  9   6.790376 -0.619176 0.015206 -0.000158 -0.000151 -1.932950
 10   8.637599 0.544015 -0.090417 -1.656328 -0.274231 -0.099811
 11   6.790465 -0.619039 0.017802 0.004388 -0.011935 -1.368308
 12   -2.022474 -0.104699 -2.873818 -0.674048 1.092312 -3.555704
 13   1.167898 -0.537463 0.063297 0.840955 -0.565854 -0.841403
 14   7.002743 -0.617765 -0.183752 0.000229 0.000250 -0.830335
 15   8.209042 0.615527 -0.255885 2.564651 0.127650 0.342956
 16   7.002735 -0.617911 -0.183641 0.014391 0.004661 -0.599825
 17   1.574674 0.609930 -0.000899 0.152168 0.236298 -0.267347
 18   -0.602177 0.511412 -0.000006 0.000000 0.000000 0.000000
 19   3.673773 0.177020 1.119313 -0.000002 -0.000014 -0.174510
 20   3.673767 0.176993 -1.117566 0.000007 -0.000003 -0.174546
 21   3.942357 1.334540 1.627658 0.000002 -0.000011 -0.000026
 22   -0.246060 -0.011889 0.516521 -0.000011 0.000031 0.000025
 23   3.942374 1.334565 -1.631083 0.000019 0.000002 -0.000024
 24   -0.246150 -0.011872 -0.516511 -0.000005 -0.000006 0.000048
 25   4.941364 1.997338 1.629330 0.000018 -0.000001 -0.000024
 26   4.941382 1.997366 -1.629410 -0.000001 0.000005 -0.000024
 27   2.914462 1.619264 1.514501 -0.000019 -0.000022 -0.000050
 28   2.916892 1.618870 -1.501142 -0.000002 -0.000009 -0.000024
 29   8.824059 0.150544 0.091743 0.000006 -0.000231 -0.174534
 30   2.111085 -0.561179 1.784320 -0.000008 -0.000682 0.000024
 31   2.121290 -0.561289 -1.853599 0.000000 0.000000 -0.000002
 32   -0.814395 -0.093824 3.127092 3.071965 -0.114691 1.239365
 33   14.298673 -0.408176 0.471578 0.000248 0.000063 -1.896136
 34   15.835795 0.581398 0.242756 -0.214735 0.106913 -0.097869
 35   -0.815868 -0.091229 -3.114430 0.066464 3.132818 -1.010216
 36   14.294526 -0.410349 -0.467541 0.000021 -0.000012 -2.607695
 37   15.834409 0.579420 -0.284600 -0.006092 -0.035255 0.214508
 38   1.139685 -3.453749 -2.823813 0.000000 0.000000 0.000001
 39   -4.457742 -1.054854 -0.746180 0.000000 0.000000 0.000000
 40   1.118101 -3.449769 3.237290 0.000000 0.000001 0.000000
 41   -4.433840 -1.059130 0.959566 -0.000001 0.000000 0.000000
 42   -0.657468 1.697302 -2.688614 0.000000 0.000002 0.000000
 43   -0.664068 1.698578 2.869377 0.000000 0.000002 0.000000
time 8
  0   -0.967547 0.175787 -20.574476 0.000000 0.000000 -1.572114
  1   -1.093036 0.000002 -0.326057 -1.570756 -1.570425 -0.000219
  2   2.262337 0.113614 0.064702 -0.000052 0.000049 -0.243264
  3   2.380047 0.353302 0.047440 -0.155830 0.017625 0.111822
  4   2.033756 0.190472 -0.000128 0.019890 -0.003607 0.187372
  5   2.451511 0.204909 -0.003447 -0.156431 0.012215 0.077256
  6   7.247600 -0.397300 -0.109469 -0.000155 -0.183080 -0.252900
  7   -2.022252 -0.104661 3.136172 -1.606477 -1.782596 -1.239429
  8   1.168026 -0.537438 -0.063437 -0.660920 0.789649 -0.315100
  9   6.790376 -0.619176 0.015206 -0.000158 -0.000285 -1.932950
 10   8.637599 0.544015 -0.090417 -1.656328 -0.273879 -0.099811
 11   6.790465 -0.619039 0.017802 0.004388 -0.011935 -1.368308
 12   -2.022474 -0.104699 -2.873818 -0.556397 1.128883 -3.438709
 13   1.167898 -0.537463 0.063297 0.676321 -0.736980 -0.775057
 14   7.002743 -0.617765 -0.183752 0.000229 0.000250 -0.941718
 15   8.209042 0.615527 -0.255885 2.353616 0.136502 0.249382
 16   7.002735 -0.617911 -0.183641 0.014296 0.005225 -0.677813
 17   1.574674 0.609930 -0.000899 0.227805 0.261811 -0.275035
 18   -0.602177 0.511412 -0.000006 0.000000 0.000000 0.000000
 19   3.673773 0.177020 1.119313 -0.000002 -0.000014 -0.174510
 20   3.673767 0.176993 -1.117566 0.000007 -0.000003 -0.174546
 21   3.942357 1.334540 1.627658 0.000002 -0.000011 -0.000026
 22   -0.246060 -0.011889 0.516521 -0.000011 0.000031 0.000025
 23   3.942374 1.334565 -1.631083 0.000019 0.000002 -0.000024
 24   -0.246150 -0.011872 -0.516511 -0.000005 -0.000006 0.000048
 25   4.941364 1.997338 1.629330 0.000018 -0.000001 -0.000024
 26   4.941382 1.997366 -1.629410 -0.000001 0.000005 -0.000024
 27   2.914462 1.619264 1.514501 -0.000019 -0.000022 -0.000050
 28   2.916892 1.618870 -1.501142 -0.000002 -0.000009 -0.000024
 29   8.824059 0.150544 0.091743 0.000006 -0.000231 -0.174534
 30   2.111085 -0.561179 1.784320 -0.000008 -0.000682 0.000024
 31   2.121290 -0.561289 -1.853599 0.000000 0.000000 -0.000002
 32   -0.814395 -0.093824 3.127092 3.071965 -0.114691 1.239365
 33   14.298673 -0.408176 0.471578 0.000248 0.000063 -1.896136
 34   15.835795 0.581398 0.242756 -0.214735 0.106913 -0.097869
 35   -0.815868 -0.091229 -3.114430 0.066464 3.132818 -1.010216
 36   14.294526 -0.410349 -0.467541 0.000021 -0.000012 -2.607695
 37   15.834409 0.579420 -0.284600 -0.006092 -0.035255 0.214508
 38   1.139685 -3.453749 -2.823813 0.000000 0.000000 0.000001
 39   -4.457742 -1.054854 -0.746180 0.000000 0.000000 0.000000
 40   1.118101 -3.449769 3.237290 0.000000 0.000001 0.000000
 41   -4.433840 -1.059130 0.959566 -0.000001 0.000000 0.000000
 42   -0.657468 1.697302 -2.688614 0.000000 0.000002 0.000000
 43   -0.664068 1.698578 2.869377 0.000000 0.000002 0.000000
time 9
  0   -0.967547 0.175787 -20.574476 0.000000 0.000000 -1.572114
  1   -1.093036 0.000002 -0.326057 -1.570756 -1.570425 -0.000219
  2   2.262337 0.113614 0.064702 -0.000052 0.000049 -0.243264
  3   2.380047 0.353302 0.047440 -0.155830 0.017625 0.111822
  4   2.033756 0.190472 -0.000128 -0.057643 0.005453 0.168233
  5   2.451511 0.204909 -0.003447 -0.156534 0.011301 0.070074
  6   7.247600 -0.397300 -0.109469 -0.000155 -0.183080 -0.252900
  7   -2.022252 -0.104661 3.136172 -1.602451 -1.782596 -1.243843
  8   1.168026 -0.537438 -0.063437 -0.699964 0.823913 -0.452438
  9   6.790376 -0.619176 0.015206 -0.000158 -0.000285 -1.932950
 10   8.637599 0.544015 -0.090417 -1.656328 -0.273597 -0.099811
 11   6.790465 -0.619039 0.017802 0.004388 -0.011935 -1.368308
 12   -2.022474 -0.104699 -2.873818 -0.427919 1.160519 -3.311564
 13   1.167898 -0.537463 0.063297 0.402025 -0.889645 -0.596177
 14   7.002743 -0.617765 -0.183752 0.000229 0.000250 -1.173310
 15   8.209042 0.615527 -0.255885 2.150634 0.126515 0.159237
 16   7.002735 -0.617911 -0.183641 0.014061 0.006465 -0.840024
 17   1.574674 0.609930 -0.000899 0.309738 0.284010 -0.243027
 18   -0.602177 0.511412 -0.000006 0.000000 0.000000 0.000000
 19   3.673773 0.177020 1.119313 -0.000002 -0.000014 -0.174510
 20   3.673767 0.176993 -1.117566 0.000007 -0.000003 -0.174546
 21   3.942357 1.334540 1.627658 0.000002 -0.000011 -0.000026
 22   -0.246060 -0.011889 0.516521 -0.000011 0.000031 0.000025
 23   3.942374 1.334565 -1.631083 0.000019 0.000002 -0.000024
 24   -0.246150 -0.011872 -0.516511 -0.000005 -0.000006 0.000048
 25   4.941364 1.997338 1.629330 0.000018 -0.000001 -0.000024
 26   4.941382 1.997366 -1.629410 -0.000001 0.000005 -0.000024
 27   2.914462 1.619264 1.514501 -0.000019 -0.000022 -0.000050
 28   2.916892 1.618870 -1.501142 -0.000002 -0.000009 -0.000024
 29   8.824059 0.150544 0.091743 0.000006 -0.000231 -0.174534
 30   2.111085 -0.561179 1.784320 -0.000008 -0.000682 0.000024
 31   2.121290 -0.561289 -1.853599 0.000000 0.000000 -0.000002
 32   -0.814395 -0.093824 3.127092 3.071965 -0.114691 1.239365
 33   14.298673 -0.408176 0.471578 0.000248 0.000063 -1.896136
 34   15.835795 0.581398 0.242756 -0.214735 0.106913 -0.097869
 35   -0.815868 -0.091229 -3.114430 0.066464 3.132818 -1.010216
 36   14.294526 -0.410349 -0.467541 0.000021 -0.000012 -2.607695
 37   15.834409 0.579420 -0.284600 -0.006092 -0.035255 0.214508
 38   1.139685 -3.453749 -2.823813 0.000000 0.000000 0.000001
 39   -4.457742 -1.054854 -0.746180 0.000000 0.000000 0.000000
 40   1.118101 -3.449769 3.237290 0.000000 0.000001 0.000000
 41   -4.433840 -1.059130 0.959566 -0.000001 0.000000 0.000000
 42   -0.657468 1.697302 -2.688614 0.000000 0.000002 0.000000
 43   -0.664068 1.698578 2.869377 0.000000 0.000002 0.000000
time 10
  0   -0.967547 0.175787 -20.574476 0.000000 0.000000 -1.572114
  1   -1.093036 0.000002 -0.326057 -1.570756 -1.570425 -0.000219
  2   2.262337 0.113614 0.064702 -0.000052 0.000049 -0.243264
  3   2.380047 0.353302 0.047440 -0.155830 0.017625 0.111822
  4   2.033756 0.190472 -0.000128 -0.145411 0.012680 0.127274
  5   2.451511 0.204909 -0.003447 -0.156688 0.009369 0.054447
  6   7.247600 -0.397300 -0.109469 -0.000155 -0.183080 -0.252900
  7   -2.022252 -0.104661 3.136172 -1.607148 -1.782596 -1.238114
  8   1.168026 -0.537438 -0.063437 -0.747741 0.876441 -0.582628
  9   6.790376 -0.619176 0.015206 -0.000158 -0.000285 -1.932950
 10   8.637599 0.544015 -0.090417 -1.656328 -0.273949 -0.099811
 11   6.790465 -0.619039 0.017802 0.004388 -0.011935 -1.368308
 12   -2.022474 -0.104699 -2.873818 -0.262939 1.188323 -3.147560
 13   1.167898 -0.537463 0.063297 -0.078239 -0.972284 -0.224978
 14   7.002743 -0.617765 -0.183752 0.000286 0.000250 -1.525526
 15   8.209042 0.615527 -0.255885 1.924572 0.094209 0.063137
 16   7.002735 -0.617911 -0.183641 0.013637 0.008439 -1.086571
 17   1.574674 0.609930 -0.000899 0.409423 0.303394 -0.177827
 18   -0.602177 0.511412 -0.000006 0.000000 0.000000 0.000000
 19   3.673773 0.177020 1.119313 -0.000002 -0.000014 -0.174510
 20   3.673767 0.176993 -1.117566 0.000007 -0.000003 -0.174546
 21   3.942357 1.334540 1.627658 0.000002 -0.000011 -0.000026
 22   -0.246060 -0.011889 0.516521 -0.000011 0.000031 0.000025
 23   3.942374 1.334565 -1.631083 0.000019 0.000002 -0.000024
 24   -0.246150 -0.011872 -0.516511 -0.000005 -0.000006 0.000048
 25   4.941364 1.997338 1.629330 0.000018 -0.000001 -0.000024
 26   4.941382 1.997366 -1.629410 -0.000001 0.000005 -0.000024
 27   2.914462 1.619264 1.514501 -0.000019 -0.000022 -0.000050
 28   2.916892 1.618870 -1.501142 -0.000002 -0.000009 -0.000024
 29   8.824059 0.150544 0.091743 0.000006 -0.000231 -0.174534
 30   2.111085 -0.561179 1.784320 -0.000008 -0.000682 0.000024
 31   2.121290 -0.561289 -1.853599 0.000000 0.000000 -0.000002
 32   -0.814395 -0.093824 3.127092 3.071965 -0.114691 1.239365
 33   14.298673 -0.408176 0.471578 0.000248 0.000063 -1.896136
 34   15.835795 0.581398 0.242756 -0.214735 0.106913 -0.097869
 35   -0.815868 -0.091229 -3.114430 0.066464 3.132818 -1.010216
 36   14.294526 -0.410349 -0.467541 0.000021 -0.000012 -2.607695
 37   15.834409 0.579420 -0.284600 -0.006092 -0.035255 0.214508
 38   1.139685 -3.453749 -2.823813 0.000000 0.000000 0.000001
 39   -4.457742 -1.054854 -0.746180 0.000000 0.000000 0.000000
 40   1.118101 -3.449769 3.237290 0.000000 0.000001 0.000000
 41   -4.433840 -1.059130 0.959566 -0.000001 0.000000 0.000000
 42   -0.657468 1.697302 -2.688614 0.000000 0.000002 0.000000
 43   -0.664068 1.698578 2.869377 0.000000 0.000002 0.000000
time 11
  0   -0.967547 0.175787 -20.574476 0.000000 0.000000 -1.572114
  1   -1.093036 0.000002 -0.326057 -1.570756 -1.570425 -0.000219
  2   2.262337 0.113614 0.064702 -0.000052 0.000049 -0.243264
  3   2.380047 0.353302 0.047440 -0.155830 0.017625 0.111822
  4   2.033756 0.190472 -0.000128 -0.227278 0.015221 0.082002
  5   2.451511 0.204909 -0.003447 -0.156739 0.007084 0.039464
  6   7.247600 -0.397300 -0.109469 -0.000155 -0.183080 -0.252900
  7   -2.022252 -0.104661 3.136172 -1.624594 -1.782797 -1.220927
  8   1.168026 -0.537438 -0.063437 -0.813616 0.921774 -0.721801
  9   6.790376 -0.619176 0.015206 -0.000158 -0.000285 -1.932950
 10   8.637599 0.544015 -0.090417 -1.656328 -0.274442 -0.099811
 11   6.790465 -0.619039 0.017802 0.004388 -0.011935 -1.368308
 12   -2.022474 -0.104699 -2.873818 -0.090487 1.200775 -2.975322
 13   1.167898 -0.537463 0.063297 -0.544796 -0.902308 0.136839
 14   7.002743 -0.617765 -0.183752 0.000286 0.000250 -1.887312
 15   8.209042 0.615527 -0.255885 1.717995 0.045560 -0.017747
 16   7.002735 -0.617911 -0.183641 0.013120 0.010582 -1.339740
 17   1.574674 0.609930 -0.000899 0.505289 0.315748 -0.107675
 18   -0.602177 0.511412 -0.000006 0.000000 0.000000 0.000000
 19   3.673773 0.177020 1.119313 -0.000002 -0.000014 -0.174510
 20   3.673767 0.176993 -1.117566 0.000007 -0.000003 -0.174546
 21   3.942357 1.334540 1.627658 0.000002 -0.000011 -0.000026
 22   -0.246060 -0.011889 0.516521 -0.000011 0.000031 0.000025
 23   3.942374 1.334565 -1.631083 0.000019 0.000002 -0.000024
 24   -0.246150 -0.011872 -0.516511 -0.000005 -0.000006 0.000048
 25   4.941364 1.997338 1.629330 0.000018 -0.000001 -0.000024
 26   4.941382 1.997366 -1.629410 -0.000001 0.000005 -0.000024
 27   2.914462 1.619264 1.514501 -0.000019 -0.000022 -0.000050
 28   2.916892 1.618870 -1.501142 -0.000002 -0.000009 -0.000024
 29   8.824059 0.150544 0.091743 0.000006 -0.000231 -0.174534
 30   2.111085 -0.561179 1.784320 -0.000008 -0.000682 0.000024
 31   2.121290 -0.561289 -1.853599 0.000000 0.000000 -0.000002
 32   -0.814395 -0.093824 3.127092 3.071965 -0.114691 1.239365
 33   14.298673 -0.408176 0.471578 0.000248 0.000063 -1.896136
 34   15.835795 0.581398 0.242756 -0.214735 0.106913 -0.097869
 35   -0.815868 -0.091229 -3.114430 0.066464 3.132818 -1.010216
 36   14.294526 -0.410349 -0.467541 0.000021 -0.000012 -2.607695
 37   15.834409 0.579420 -0.284600 -0.006092 -0.035255 0.214508
 38   1.139685 -3.453749 -2.823813 0.000000 0.000000 0.000001
 39   -4.457742 -1.054854 -0.746180 0.000000 0.000000 0.000000
 40   1.118101 -3.449769 3.237290 0.000000 0.000001 0.000000
 41   -4.433840 -1.059130 0.959566 -0.000001 0.000000 0.000000
 42   -0.657468 1.697302 -2.688614 0.000000 0.000002 0.000000
 43   -0.664068 1.698578 2.869377 0.000000 0.000002 0.000000
time 12
  0   -0.967547 0.175787 -20.574476 0.000000 0.000000 -1.572114
  1   -1.093036 0.000002 -0.326057 -1.570756 -1.570425 -0.000219
  2   2.262337 0.113614 0.064702 -0.000052 0.000049 -0.243264
  3   2.380047 0.353302 0.047440 -0.155830 0.017625 0.111822
  4   2.033756 0.190472 -0.000128 -0.287327 0.015065 0.049814
  5   2.451511 0.204909 -0.003447 -0.156739 0.005544 0.034263
  6   7.247600 -0.397300 -0.109469 -0.000155 -0.183080 -0.252900
  7   -2.022252 -0.104661 3.136172 -1.657378 -1.783172 -1.187587
  8   1.168026 -0.537438 -0.063437 -0.881958 0.933749 -0.864263
  9   6.790376 -0.619176 0.015206 -0.000158 -0.000285 -1.932950
 10   8.637599 0.544015 -0.090417 -1.656328 -0.275709 -0.099594
 11   6.790465 -0.619039 0.017802 0.004388 -0.011935 -1.368308
 12   -2.022474 -0.104699 -2.873818 0.039619 1.193548 -2.846550
 13   1.167898 -0.537463 0.063297 -0.784014 -0.773595 0.300767
 14   7.002743 -0.617765 -0.183752 0.000229 0.000250 -2.147204
 15   8.209042 0.615527 -0.255885 1.570090 -0.000063 -0.069706
 16   7.002735 -0.617911 -0.183641 0.012602 0.012161 -1.521766
 17   1.574674 0.609930 -0.000899 0.574468 0.322280 -0.062620
 18   -0.602177 0.511412 -0.000006 0.000000 0.000000 0.000000
 19   3.673773 0.177020 1.119313 -0.000002 -0.000014 -0.174510
 20   3.673767 0.176993 -1.117566 0.000007 -0.000003 -0.174546
 21   3.942357 1.334540 1.627658 0.000002 -0.000011 -0.000026
 22   -0.246060 -0.011889 0.516521 -0.000011 0.000031 0.000025
 23   3.942374 1.334565 -1.631083 0.000019 0.000002 -0.000024
 24   -0.246150 -0.011872 -0.516511 -0.000005 -0.000006 0.000048
 25   4.941364 1.997338 1.629330 0.000018 -0.000001 -0.000024
 26   4.941382 1.997366 -1.629410 -0.000001 0.000005 -0.000024
 27   2.914462 1.619264 1.514501 -0.000019 -0.000022 -0.000050
 28   2.916892 1.618870 -1.501142 -0.000002 -0.000009 -0.000024
 29   8.824059 0.150544 0.091743 0.000006 -0.000231 -0.174534
 30   2.111085 -0.561179 1.784320 -0.000008 -0.000682 0.000024
 31   2.121290 -0.561289 -1.853599 0.000000 0.000000 -0.000002
 32   -0.814395 -0.093824 3.127092 3.071965 -0.114691 1.239365
 33   14.298673 -0.408176 0.471578 0.000248 0.000063 -1.896136
 34   15.835795 0.581398 0.242756 -0.214735 0.106913 -0.097869
 35   -0.815868 -0.091229 -3.114430 0.066464 3.132818 -1.010216
 36   14.294526 -0.410349 -0.467541 0.000021 -0.000012 -2.607695
 37   15.834409 0.579420 -0.284600 -0.006092 -0.035255 0.214508
 38   1.139685 -3.453749 -2.823813 0.000000 0.000000 0.000001
 39   -4.457742 -1.054854 -0.746180 0.000000 0.000000 0.000000
 40   1.118101 -3.449769 3.237290 0.000000 0.000001 0.000000
 41   -4.433840 -1.059130 0.959566 -0.000001 0.000000 0.000000
 42   -0.657468 1.697302 -2.688614 0.000000 0.000002 0.000000
 43   -0.664068 1.698578 2.869377 0.000000 0.000002 0.000000
end
