version 1
nodes
  0 "Bip01" -1
  1 "Bip01 Pelvis" 0
  2 "Bip01 Spine" 1
  3 "Bip01 Spine1" 2
  4 "Bip01 Spine2" 3
  5 "Bip01 Spine3" 4
  6 "Bip01 Neck" 5
  7 "Bip01 L Arm" 6
  8 "Bip01 L Arm1" 7
  9 "Bip01 L Arm2" 8
 10 "Bip01 L Hand" 9
 11 "Bip06 L elbow2-smooth" 8
 12 "Bip01 R Arm" 6
 13 "Bip01 R Arm1" 12
 14 "Bip01 R Arm2" 13
 15 "Bip01 R Hand" 14
 16 "Bip06 R elbow2-smooth" 13
 17 "Bip01 Head" 6
 18 "Bip06 Head_helper" 17
 19 "Bip06 Head_eyes_l" 18
 20 "Bip06 Head_eyes_r" 18
 21 "Bip06 Head_blink_l" 18
 22 "Bip06 Head_blink_smooth_l1" 21
 23 "Bip06 Head_blink_r" 18
 24 "Bip06 Head_blink_smooth_r1" 23
 25 "Bip06 Head_L_eyebrow" 18
 26 "Bip06 Head_R_eyebrow" 18
 27 "Bip06 Head_blink_l_lid" 18
 28 "Bip06 Head_blink_r_lid" 18
 29 "Bip06 bunny" 18
 30 "Bip06 bunnyL" 29
 31 "Bip06 bunnyR" 29
 32 "Bip01 L Leg" 1
 33 "Bip01 L Leg1" 32
 34 "Bip01 L Foot" 33
 35 "Bip01 R Leg" 1
 36 "Bip01 R Leg1" 35
 37 "Bip01 R Foot" 36
 38 "Bip03 HairR1" 17
 39 "Bip03 HairR2" 38
 40 "Bip03 HairL1" 17
 41 "Bip03 HairL2" 40
 42 "Bip03 swingR" 17
 43 "Bip03 swingL" 17
end
skeleton
time 0
  0   -0.967547 0.175787 -20.574476 0.000000 0.000000 -1.572114
  1   -1.093036 0.000002 -0.326057 -1.570808 -1.570425 -0.000219
  2   2.262337 0.113614 0.064702 -0.000052 0.000049 -0.156091
  3   2.380047 0.353302 0.047440 -0.156686 -0.008022 -0.051606
  4   2.033756 0.190472 -0.000128 -0.060907 -0.001881 -0.035003
  5   2.451511 0.204909 -0.003447 -0.087142 -0.001271 -0.017472
  6   7.247600 -0.397300 -0.109469 0.000001 0.000033 -0.122046
  7   -2.022252 -0.104661 3.136172 1.345277 -0.832882 -4.290490
  8   1.168026 -0.537438 -0.063437 -1.213168 -0.165015 -0.647976
  9   6.790376 -0.619176 0.015206 -0.000158 -0.000151 -0.415223
 10   8.637599 0.544015 -0.090417 -0.154029 -0.203770 0.119392
 11   6.790465 -0.619039 0.017802 -0.001918 -0.011054 -0.305936
 12   -2.022474 -0.104699 -2.873818 0.298873 1.361800 -2.728022
 13   1.167898 -0.537463 0.063297 0.499807 -1.270546 -0.921309
 14   7.002743 -0.617765 -0.183752 0.000286 0.000250 -1.630803
 15   8.209042 0.615527 -0.255885 1.570090 -0.000063 -0.069706
 16   7.002735 -0.617911 -0.183641 0.013496 0.009059 -1.160198
 17   1.574674 0.609930 -0.000899 0.304173 0.020433 0.125844
 18   -0.602177 0.511412 -0.000006 0.000000 0.000000 0.000000
 19   3.673773 0.177020 1.119313 -0.000002 -0.000014 -0.174510
 20   3.673767 0.176993 -1.117566 0.000007 -0.000003 -0.174546
 21   3.942357 1.334540 1.627658 0.000002 -0.000011 -0.000026
 22   -0.246060 -0.011889 0.516521 -0.000011 0.000031 0.000025
 23   3.942374 1.334565 -1.631083 0.000019 0.000002 -0.000024
 24   -0.246150 -0.011872 -0.516511 -0.000005 -0.000006 0.000048
 25   4.941364 1.997338 1.629330 0.000018 0.261744 -0.000024
 26   4.941382 1.997366 -1.629410 -0.000001 -0.261756 -0.000024
 27   2.914462 1.619264 1.514501 -0.000019 -0.000022 -0.000050
 28   2.916892 1.618870 -1.501142 -0.000002 -0.000009 -0.000024
 29   8.824059 0.150544 0.091743 0.000006 -0.000231 -0.174534
 30   2.111085 -0.561179 1.784320 -0.000008 -0.000682 0.000024
 31   2.121290 -0.561289 -1.853599 0.000000 0.000000 -0.000002
 32   -0.814395 -0.093824 3.127092 3.071965 -0.114691 1.239365
 33   14.298673 -0.408176 0.471578 0.000248 0.000063 -1.896136
 34   15.835795 0.581398 0.242756 -0.214735 0.106913 -0.097869
 35   -0.815868 -0.091229 -3.114430 0.066464 3.132818 -1.010216
 36   14.294526 -0.410349 -0.467541 0.000021 -0.000012 -2.607695
 37   15.834409 0.579420 -0.284600 -0.006092 -0.035255 0.214508
 38   1.139685 -3.453749 -2.823813 0.000000 0.000000 0.000001
 39   -4.457742 -1.054854 -0.746180 0.000000 0.000000 0.000000
 40   1.118101 -3.449769 3.237290 0.000000 0.000001 0.000000
 41   -4.433840 -1.059130 0.959566 -0.000001 0.000000 0.000000
 42   -0.657468 1.697302 -2.688614 0.000000 0.000002 0.000000
 43   -0.664068 1.698578 2.869377 0.000000 0.000002 0.000000
time 1
  0   -0.967547 0.175787 -20.574476 0.000000 0.000000 -1.572114
  1   -1.093036 0.000002 -0.326057 -1.570808 -1.570425 -0.000219
  2   2.262337 0.113614 0.064702 -0.000052 0.000049 -0.156091
  3   2.380047 0.353302 0.047440 -0.156686 -0.008022 -0.051606
  4   2.033756 0.190472 -0.000128 -0.060907 -0.001881 -0.035003
  5   2.451511 0.204909 -0.003447 -0.087142 -0.000814 -0.010785
  6   7.247600 -0.397300 -0.109469 0.000001 0.000033 -0.122046
  7   -2.022252 -0.104661 3.136172 1.338088 -0.831355 -4.280817
  8   1.168026 -0.537438 -0.063437 -1.210258 -0.177090 -0.649621
  9   6.790376 -0.619176 0.015206 -0.000158 -0.000151 -0.415223
 10   8.637599 0.544015 -0.090417 -0.154029 -0.203770 0.119392
 11   6.790465 -0.619039 0.017802 -0.001918 -0.011054 -0.305936
 12   -2.022474 -0.104699 -2.873818 0.293891 1.358288 -2.733192
 13   1.167898 -0.537463 0.063297 0.504306 -1.263223 -0.927060
 14   7.002743 -0.617765 -0.183752 0.000286 0.000250 -1.630803
 15   8.209042 0.615527 -0.255885 1.570090 -0.000063 -0.069706
 16   7.002735 -0.617911 -0.183641 0.013496 0.009059 -1.160198
 17   1.574674 0.609930 -0.000899 0.304173 0.020433 0.119191
 18   -0.602177 0.511412 -0.000006 0.000000 0.000000 0.000000
 19   3.673773 0.177020 1.119313 -0.000002 -0.000014 -0.174510
 20   3.673767 0.176993 -1.117566 0.000007 -0.000003 -0.174546
 21   3.942357 1.334540 1.627658 0.000002 -0.000011 -0.000026
 22   -0.246060 -0.011889 0.516521 -0.000011 0.000031 0.000025
 23   3.942374 1.334565 -1.631083 0.000019 0.000002 -0.000024
 24   -0.246150 -0.011872 -0.516511 -0.000005 -0.000006 0.000048
 25   4.941364 1.997338 1.629330 0.000018 0.261744 -0.000024
 26   4.941382 1.997366 -1.629410 -0.000001 -0.261756 -0.000024
 27   2.914462 1.619264 1.514501 -0.000019 -0.000022 -0.000050
 28   2.916892 1.618870 -1.501142 -0.000002 -0.000009 -0.000024
 29   8.824059 0.150544 0.091743 0.000006 -0.000231 -0.174534
 30   2.111085 -0.561179 1.784320 -0.000008 -0.000682 0.000024
 31   2.121290 -0.561289 -1.853599 0.000000 0.000000 -0.000002
 32   -0.814395 -0.093824 3.127092 3.071965 -0.114691 1.239365
 33   14.298673 -0.408176 0.471578 0.000248 0.000063 -1.896136
 34   15.835795 0.581398 0.242756 -0.214735 0.106913 -0.097869
 35   -0.815868 -0.091229 -3.114430 0.066464 3.132818 -1.010216
 36   14.294526 -0.410349 -0.467541 0.000021 -0.000012 -2.607695
 37   15.834409 0.579420 -0.284600 -0.006092 -0.035255 0.214508
 38   1.139685 -3.453749 -2.823813 0.000000 0.000000 0.000001
 39   -4.457742 -1.054854 -0.746180 0.000000 0.000000 0.000000
 40   1.118101 -3.449769 3.237290 0.000000 0.000001 0.000000
 41   -4.433840 -1.059130 0.959566 -0.000001 0.000000 0.000000
 42   -0.657468 1.697302 -2.688614 0.000000 0.000002 0.000000
 43   -0.664068 1.698578 2.869377 0.000000 0.000002 0.000000
time 2
  0   -0.967547 0.175787 -20.574476 0.000000 0.000000 -1.572114
  1   -1.093036 0.000002 -0.326057 -1.570808 -1.570425 -0.000219
  2   2.262337 0.113614 0.064702 -0.000052 0.000049 -0.156091
  3   2.380047 0.353302 0.047440 -0.156686 -0.008022 -0.051606
  4   2.033756 0.190472 -0.000128 -0.060907 -0.001881 -0.035003
  5   2.451511 0.204909 -0.003447 -0.087142 -0.000162 -0.003380
  6   7.247600 -0.397300 -0.109469 0.000001 0.000033 -0.122046
  7   -2.022252 -0.104661 3.136172 1.330035 -0.829567 -4.270110
  8   1.168026 -0.537438 -0.063437 -1.207157 -0.190021 -0.651392
  9   6.790376 -0.619176 0.015206 -0.000158 -0.000151 -0.415223
 10   8.637599 0.544015 -0.090417 -0.154029 -0.203770 0.119392
 11   6.790465 -0.619039 0.017802 -0.001918 -0.011054 -0.305936
 12   -2.022474 -0.104699 -2.873818 0.288334 1.354486 -2.738650
 13   1.167898 -0.537463 0.063297 0.509297 -1.255340 -0.932932
 14   7.002743 -0.617765 -0.183752 0.000286 0.000250 -1.630803
 15   8.209042 0.615527 -0.255885 1.570090 -0.000063 -0.069706
 16   7.002735 -0.617911 -0.183641 0.013496 0.009059 -1.160198
 17   1.574674 0.609930 -0.000899 0.304173 0.020433 0.111614
 18   -0.602177 0.511412 -0.000006 0.000000 0.000000 0.000000
 19   3.673773 0.177020 1.119313 -0.000002 -0.000014 -0.174510
 20   3.673767 0.176993 -1.117566 0.000007 -0.000003 -0.174546
 21   3.942357 1.334540 1.627658 0.000002 -0.000011 -0.000026
 22   -0.246060 -0.011889 0.516521 -0.000011 0.000031 0.000025
 23   3.942374 1.334565 -1.631083 0.000019 0.000002 -0.000024
 24   -0.246150 -0.011872 -0.516511 -0.000005 -0.000006 0.000048
 25   4.941364 1.997338 1.629330 0.000018 0.261744 -0.000024
 26   4.941382 1.997366 -1.629410 -0.000001 -0.261756 -0.000024
 27   2.914462 1.619264 1.514501 -0.000019 -0.000022 -0.000050
 28   2.916892 1.618870 -1.501142 -0.000002 -0.000009 -0.000024
 29   8.824059 0.150544 0.091743 0.000006 -0.000231 -0.174534
 30   2.111085 -0.561179 1.784320 -0.000008 -0.000682 0.000024
 31   2.121290 -0.561289 -1.853599 0.000000 0.000000 -0.000002
 32   -0.814395 -0.093824 3.127092 3.071965 -0.114691 1.239365
 33   14.298673 -0.408176 0.471578 0.000248 0.000063 -1.896136
 34   15.835795 0.581398 0.242756 -0.214735 0.106913 -0.097869
 35   -0.815868 -0.091229 -3.114430 0.066464 3.132818 -1.010216
 36   14.294526 -0.410349 -0.467541 0.000021 -0.000012 -2.607695
 37   15.834409 0.579420 -0.284600 -0.006092 -0.035255 0.214508
 38   1.139685 -3.453749 -2.823813 0.000000 0.000000 0.000001
 39   -4.457742 -1.054854 -0.746180 0.000000 0.000000 0.000000
 40   1.118101 -3.449769 3.237290 0.000000 0.000001 0.000000
 41   -4.433840 -1.059130 0.959566 -0.000001 0.000000 0.000000
 42   -0.657468 1.697302 -2.688614 0.000000 0.000002 0.000000
 43   -0.664068 1.698578 2.869377 0.000000 0.000002 0.000000
time 3
  0   -0.967547 0.175787 -20.574476 0.000000 0.000000 -1.572114
  1   -1.093036 0.000002 -0.326057 -1.570808 -1.570425 -0.000219
  2   2.262337 0.113614 0.064702 -0.000052 0.000049 -0.156091
  3   2.380047 0.353302 0.047440 -0.156686 -0.008022 -0.051606
  4   2.033756 0.190472 -0.000128 -0.060907 -0.001881 -0.035003
  5   2.451511 0.204909 -0.003447 -0.087142 0.000361 0.004644
  6   7.247600 -0.397300 -0.109469 0.000001 0.000033 -0.122046
  7   -2.022252 -0.104661 3.136172 1.321696 -0.827665 -4.258558
  8   1.168026 -0.537438 -0.063437 -1.203676 -0.203958 -0.653353
  9   6.790376 -0.619176 0.015206 -0.000158 -0.000151 -0.415223
 10   8.637599 0.544015 -0.090417 -0.154029 -0.203770 0.119392
 11   6.790465 -0.619039 0.017802 -0.001918 -0.011054 -0.305936
 12   -2.022474 -0.104699 -2.873818 0.282873 1.350480 -2.744298
 13   1.167898 -0.537463 0.063297 0.513726 -1.246593 -0.939046
 14   7.002743 -0.617765 -0.183752 0.000286 0.000250 -1.630803
 15   8.209042 0.615527 -0.255885 1.570090 -0.000063 -0.069706
 16   7.002735 -0.617911 -0.183641 0.013496 0.009059 -1.160198
 17   1.574674 0.609930 -0.000899 0.304173 0.020433 0.103631
 18   -0.602177 0.511412 -0.000006 0.000000 0.000000 0.000000
 19   3.673773 0.177020 1.119313 -0.000002 -0.000014 -0.174510
 20   3.673767 0.176993 -1.117566 0.000007 -0.000003 -0.174546
 21   3.942357 1.334540 1.627658 0.000002 -0.000011 -0.000026
 22   -0.246060 -0.011889 0.516521 -0.000011 0.000031 0.000025
 23   3.942374 1.334565 -1.631083 0.000019 0.000002 -0.000024
 24   -0.246150 -0.011872 -0.516511 -0.000005 -0.000006 0.000048
 25   4.941364 1.997338 1.629330 0.000018 0.261744 -0.000024
 26   4.941382 1.997366 -1.629410 -0.000001 -0.261756 -0.000024
 27   2.914462 1.619264 1.514501 -0.000019 -0.000022 -0.000050
 28   2.916892 1.618870 -1.501142 -0.000002 -0.000009 -0.000024
 29   8.824059 0.150544 0.091743 0.000006 -0.000231 -0.174534
 30   2.111085 -0.561179 1.784320 -0.000008 -0.000682 0.000024
 31   2.121290 -0.561289 -1.853599 0.000000 0.000000 -0.000002
 32   -0.814395 -0.093824 3.127092 3.071965 -0.114691 1.239365
 33   14.298673 -0.408176 0.471578 0.000248 0.000063 -1.896136
 34   15.835795 0.581398 0.242756 -0.214735 0.106913 -0.097869
 35   -0.815868 -0.091229 -3.114430 0.066464 3.132818 -1.010216
 36   14.294526 -0.410349 -0.467541 0.000021 -0.000012 -2.607695
 37   15.834409 0.579420 -0.284600 -0.006092 -0.035255 0.214508
 38   1.139685 -3.453749 -2.823813 0.000000 0.000000 0.000001
 39   -4.457742 -1.054854 -0.746180 0.000000 0.000000 0.000000
 40   1.118101 -3.449769 3.237290 0.000000 0.000001 0.000000
 41   -4.433840 -1.059130 0.959566 -0.000001 0.000000 0.000000
 42   -0.657468 1.697302 -2.688614 0.000000 0.000002 0.000000
 43   -0.664068 1.698578 2.869377 0.000000 0.000002 0.000000
time 4
  0   -0.967547 0.175787 -20.574476 0.000000 0.000000 -1.572114
  1   -1.093036 0.000002 -0.326057 -1.570808 -1.570425 -0.000219
  2   2.262337 0.113614 0.064702 -0.000052 0.000049 -0.156091
  3   2.380047 0.353302 0.047440 -0.156686 -0.008022 -0.051606
  4   2.033756 0.190472 -0.000128 -0.060907 -0.001881 -0.035003
  5   2.451511 0.204909 -0.003447 -0.087142 0.001144 0.012940
  6   7.247600 -0.397300 -0.109469 0.000001 0.000033 -0.122046
  7   -2.022252 -0.104661 3.136172 1.312877 -0.825532 -4.246537
  8   1.168026 -0.537438 -0.063437 -1.200069 -0.218851 -0.655694
  9   6.790376 -0.619176 0.015206 -0.000158 -0.000151 -0.415223
 10   8.637599 0.544015 -0.090417 -0.154029 -0.203770 0.119392
 11   6.790465 -0.619039 0.017802 -0.001918 -0.011054 -0.305936
 12   -2.022474 -0.104699 -2.873818 0.277317 1.346069 -2.750139
 13   1.167898 -0.537463 0.063297 0.518717 -1.237795 -0.945523
 14   7.002743 -0.617765 -0.183752 0.000286 0.000250 -1.630803
 15   8.209042 0.615527 -0.255885 1.570090 -0.000063 -0.069706
 16   7.002735 -0.617911 -0.183641 0.013496 0.009059 -1.160198
 17   1.574674 0.609930 -0.000899 0.304173 0.020433 0.095389
 18   -0.602177 0.511412 -0.000006 0.000000 0.000000 0.000000
 19   3.673773 0.177020 1.119313 -0.000002 -0.000014 -0.174510
 20   3.673767 0.176993 -1.117566 0.000007 -0.000003 -0.174546
 21   3.942357 1.334540 1.627658 0.000002 -0.000011 -0.000026
 22   -0.246060 -0.011889 0.516521 -0.000011 0.000031 0.000025
 23   3.942374 1.334565 -1.631083 0.000019 0.000002 -0.000024
 24   -0.246150 -0.011872 -0.516511 -0.000005 -0.000006 0.000048
 25   4.941364 1.997338 1.629330 0.000018 0.261744 -0.000024
 26   4.941382 1.997366 -1.629410 -0.000001 -0.261756 -0.000024
 27   2.914462 1.619264 1.514501 -0.000019 -0.000022 -0.000050
 28   2.916892 1.618870 -1.501142 -0.000002 -0.000009 -0.000024
 29   8.824059 0.150544 0.091743 0.000006 -0.000231 -0.174534
 30   2.111085 -0.561179 1.784320 -0.000008 -0.000682 0.000024
 31   2.121290 -0.561289 -1.853599 0.000000 0.000000 -0.000002
 32   -0.814395 -0.093824 3.127092 3.071965 -0.114691 1.239365
 33   14.298673 -0.408176 0.471578 0.000248 0.000063 -1.896136
 34   15.835795 0.581398 0.242756 -0.214735 0.106913 -0.097869
 35   -0.815868 -0.091229 -3.114430 0.066464 3.132818 -1.010216
 36   14.294526 -0.410349 -0.467541 0.000021 -0.000012 -2.607695
 37   15.834409 0.579420 -0.284600 -0.006092 -0.035255 0.214508
 38   1.139685 -3.453749 -2.823813 0.000000 0.000000 0.000001
 39   -4.457742 -1.054854 -0.746180 0.000000 0.000000 0.000000
 40   1.118101 -3.449769 3.237290 0.000000 0.000001 0.000000
 41   -4.433840 -1.059130 0.959566 -0.000001 0.000000 0.000000
 42   -0.657468 1.697302 -2.688614 0.000000 0.000002 0.000000
 43   -0.664068 1.698578 2.869377 0.000000 0.000002 0.000000
time 5
  0   -0.967547 0.175787 -20.574476 0.000000 0.000000 -1.572114
  1   -1.093036 0.000002 -0.326057 -1.570808 -1.570425 -0.000219
  2   2.262337 0.113614 0.064702 -0.000052 0.000049 -0.156091
  3   2.380047 0.353302 0.047440 -0.156686 -0.008022 -0.051606
  4   2.033756 0.190472 -0.000128 -0.060907 -0.001881 -0.035003
  5   2.451511 0.204909 -0.003447 -0.087142 0.001914 0.021385
  6   7.247600 -0.397300 -0.109469 0.000001 0.000033 -0.122046
  7   -2.022252 -0.104661 3.136172 1.303962 -0.823312 -4.234516
  8   1.168026 -0.537438 -0.063437 -1.196272 -0.233744 -0.657908
  9   6.790376 -0.619176 0.015206 -0.000158 -0.000151 -0.415223
 10   8.637599 0.544015 -0.090417 -0.154029 -0.203770 0.119392
 11   6.790465 -0.619039 0.017802 -0.001918 -0.011054 -0.305936
 12   -2.022474 -0.104699 -2.873818 0.271951 1.341483 -2.755787
 13   1.167898 -0.537463 0.063297 0.523145 -1.228743 -0.951516
 14   7.002743 -0.617765 -0.183752 0.000286 0.000250 -1.630803
 15   8.209042 0.615527 -0.255885 1.570090 -0.000063 -0.069706
 16   7.002735 -0.617911 -0.183641 0.013496 0.009059 -1.160198
 17   1.574674 0.609930 -0.000899 0.304173 0.020433 0.086961
 18   -0.602177 0.511412 -0.000006 0.000000 0.000000 0.000000
 19   3.673773 0.177020 1.119313 -0.000002 -0.000014 -0.174510
 20   3.673767 0.176993 -1.117566 0.000007 -0.000003 -0.174546
 21   3.942357 1.334540 1.627658 0.000002 -0.000011 -0.000026
 22   -0.246060 -0.011889 0.516521 -0.000011 0.000031 0.000025
 23   3.942374 1.334565 -1.631083 0.000019 0.000002 -0.000024
 24   -0.246150 -0.011872 -0.516511 -0.000005 -0.000006 0.000048
 25   4.941364 1.997338 1.629330 0.000018 0.261744 -0.000024
 26   4.941382 1.997366 -1.629410 -0.000001 -0.261756 -0.000024
 27   2.914462 1.619264 1.514501 -0.000019 -0.000022 -0.000050
 28   2.916892 1.618870 -1.501142 -0.000002 -0.000009 -0.000024
 29   8.824059 0.150544 0.091743 0.000006 -0.000231 -0.174534
 30   2.111085 -0.561179 1.784320 -0.000008 -0.000682 0.000024
 31   2.121290 -0.561289 -1.853599 0.000000 0.000000 -0.000002
 32   -0.814395 -0.093824 3.127092 3.071965 -0.114691 1.239365
 33   14.298673 -0.408176 0.471578 0.000248 0.000063 -1.896136
 34   15.835795 0.581398 0.242756 -0.214735 0.106913 -0.097869
 35   -0.815868 -0.091229 -3.114430 0.066464 3.132818 -1.010216
 36   14.294526 -0.410349 -0.467541 0.000021 -0.000012 -2.607695
 37   15.834409 0.579420 -0.284600 -0.006092 -0.035255 0.214508
 38   1.139685 -3.453749 -2.823813 0.000000 0.000000 0.000001
 39   -4.457742 -1.054854 -0.746180 0.000000 0.000000 0.000000
 40   1.118101 -3.449769 3.237290 0.000000 0.000001 0.000000
 41   -4.433840 -1.059130 0.959566 -0.000001 0.000000 0.000000
 42   -0.657468 1.697302 -2.688614 0.000000 0.000002 0.000000
 43   -0.664068 1.698578 2.869377 0.000000 0.000002 0.000000
time 6
  0   -0.967547 0.175787 -20.574476 0.000000 0.000000 -1.572114
  1   -1.093036 0.000002 -0.326057 -1.570808 -1.570425 -0.000219
  2   2.262337 0.113614 0.064702 -0.000052 0.000049 -0.156091
  3   2.380047 0.353302 0.047440 -0.156686 -0.008022 -0.051606
  4   2.033756 0.190472 -0.000128 -0.060907 -0.001881 -0.035003
  5   2.451511 0.204909 -0.003447 -0.087125 0.002658 0.029855
  6   7.247600 -0.397300 -0.109469 0.000001 0.000033 -0.122046
  7   -2.022252 -0.104661 3.136172 1.295239 -0.821092 -4.222495
  8   1.168026 -0.537438 -0.063437 -1.192476 -0.248788 -0.660375
  9   6.790376 -0.619176 0.015206 -0.000158 -0.000151 -0.415223
 10   8.637599 0.544015 -0.090417 -0.154029 -0.203770 0.119392
 11   6.790465 -0.619039 0.017802 -0.001918 -0.011054 -0.305936
 12   -2.022474 -0.104699 -2.873818 0.266969 1.336955 -2.760957
 13   1.167898 -0.537463 0.063297 0.527434 -1.219589 -0.957267
 14   7.002743 -0.617765 -0.183752 0.000286 0.000250 -1.630803
 15   8.209042 0.615527 -0.255885 1.570090 -0.000063 -0.069706
 16   7.002735 -0.617911 -0.183641 0.013496 0.009059 -1.160198
 17   1.574674 0.609930 -0.000899 0.304173 0.020433 0.078386
 18   -0.602177 0.511412 -0.000006 0.000000 0.000000 0.000000
 19   3.673773 0.177020 1.119313 -0.000002 -0.000014 -0.174510
 20   3.673767 0.176993 -1.117566 0.000007 -0.000003 -0.174546
 21   3.942357 1.334540 1.627658 0.000002 -0.000011 -0.000026
 22   -0.246060 -0.011889 0.516521 -0.000011 0.000031 0.000025
 23   3.942374 1.334565 -1.631083 0.000019 0.000002 -0.000024
 24   -0.246150 -0.011872 -0.516511 -0.000005 -0.000006 0.000048
 25   4.941364 1.997338 1.629330 0.000018 0.261744 -0.000024
 26   4.941382 1.997366 -1.629410 -0.000001 -0.261756 -0.000024
 27   2.914462 1.619264 1.514501 -0.000019 -0.000022 -0.000050
 28   2.916892 1.618870 -1.501142 -0.000002 -0.000009 -0.000024
 29   8.824059 0.150544 0.091743 0.000006 -0.000231 -0.174534
 30   2.111085 -0.561179 1.784320 -0.000008 -0.000682 0.000024
 31   2.121290 -0.561289 -1.853599 0.000000 0.000000 -0.000002
 32   -0.814395 -0.093824 3.127092 3.071965 -0.114691 1.239365
 33   14.298673 -0.408176 0.471578 0.000248 0.000063 -1.896136
 34   15.835795 0.581398 0.242756 -0.214735 0.106913 -0.097869
 35   -0.815868 -0.091229 -3.114430 0.066464 3.132818 -1.010216
 36   14.294526 -0.410349 -0.467541 0.000021 -0.000012 -2.607695
 37   15.834409 0.579420 -0.284600 -0.006092 -0.035255 0.214508
 38   1.139685 -3.453749 -2.823813 0.000000 0.000000 0.000001
 39   -4.457742 -1.054854 -0.746180 0.000000 0.000000 0.000000
 40   1.118101 -3.449769 3.237290 0.000000 0.000001 0.000000
 41   -4.433840 -1.059130 0.959566 -0.000001 0.000000 0.000000
 42   -0.657468 1.697302 -2.688614 0.000000 0.000002 0.000000
 43   -0.664068 1.698578 2.869377 0.000000 0.000002 0.000000
time 7
  0   -0.967547 0.175787 -20.574476 0.000000 0.000000 -1.572114
  1   -1.093036 0.000002 -0.326057 -1.570808 -1.570425 -0.000219
  2   2.262337 0.113614 0.064702 -0.000052 0.000049 -0.156091
  3   2.380047 0.353302 0.047440 -0.156686 -0.008022 -0.051606
  4   2.033756 0.190472 -0.000128 -0.060907 -0.001881 -0.035003
  5   2.451511 0.204909 -0.003447 -0.087108 0.003389 0.038176
  6   7.247600 -0.397300 -0.109469 0.000001 0.000033 -0.122046
  7   -2.022252 -0.104661 3.136172 1.286516 -0.818786 -4.210849
  8   1.168026 -0.537438 -0.063437 -1.188616 -0.263379 -0.663032
  9   6.790376 -0.619176 0.015206 -0.000158 -0.000151 -0.415223
 10   8.637599 0.544015 -0.090417 -0.154029 -0.203770 0.119392
 11   6.790465 -0.619039 0.017802 -0.001918 -0.011054 -0.305936
 12   -2.022474 -0.104699 -2.873818 0.261987 1.332659 -2.766127
 13   1.167898 -0.537463 0.063297 0.531159 -1.210537 -0.962715
 14   7.002743 -0.617765 -0.183752 0.000286 0.000250 -1.630803
 15   8.209042 0.615527 -0.255885 1.570090 -0.000063 -0.069706
 16   7.002735 -0.617911 -0.183641 0.013496 0.009059 -1.160198
 17   1.574674 0.609930 -0.000899 0.304173 0.020433 0.070107
 18   -0.602177 0.511412 -0.000006 0.000000 0.000000 0.000000
 19   3.673773 0.177020 1.119313 -0.000002 -0.000014 -0.174510
 20   3.673767 0.176993 -1.117566 0.000007 -0.000003 -0.174546
 21   3.942357 1.334540 1.627658 0.000002 -0.000011 -0.000026
 22   -0.246060 -0.011889 0.516521 -0.000011 0.000031 0.000025
 23   3.942374 1.334565 -1.631083 0.000019 0.000002 -0.000024
 24   -0.246150 -0.011872 -0.516511 -0.000005 -0.000006 0.000048
 25   4.941364 1.997338 1.629330 0.000018 0.261744 -0.000024
 26   4.941382 1.997366 -1.629410 -0.000001 -0.261756 -0.000024
 27   2.914462 1.619264 1.514501 -0.000019 -0.000022 -0.000050
 28   2.916892 1.618870 -1.501142 -0.000002 -0.000009 -0.000024
 29   8.824059 0.150544 0.091743 0.000006 -0.000231 -0.174534
 30   2.111085 -0.561179 1.784320 -0.000008 -0.000682 0.000024
 31   2.121290 -0.561289 -1.853599 0.000000 0.000000 -0.000002
 32   -0.814395 -0.093824 3.127092 3.071965 -0.114691 1.239365
 33   14.298673 -0.408176 0.471578 0.000248 0.000063 -1.896136
 34   15.835795 0.581398 0.242756 -0.214735 0.106913 -0.097869
 35   -0.815868 -0.091229 -3.114430 0.066464 3.132818 -1.010216
 36   14.294526 -0.410349 -0.467541 0.000021 -0.000012 -2.607695
 37   15.834409 0.579420 -0.284600 -0.006092 -0.035255 0.214508
 38   1.139685 -3.453749 -2.823813 0.000000 0.000000 0.000001
 39   -4.457742 -1.054854 -0.746180 0.000000 0.000000 0.000000
 40   1.118101 -3.449769 3.237290 0.000000 0.000001 0.000000
 41   -4.433840 -1.059130 0.959566 -0.000001 0.000000 0.000000
 42   -0.657468 1.697302 -2.688614 0.000000 0.000002 0.000000
 43   -0.664068 1.698578 2.869377 0.000000 0.000002 0.000000
time 8
  0   -0.967547 0.175787 -20.574476 0.000000 0.000000 -1.572114
  1   -1.093036 0.000002 -0.326057 -1.570808 -1.570425 -0.000219
  2   2.262337 0.113614 0.064702 -0.000052 0.000049 -0.156091
  3   2.380047 0.353302 0.047440 -0.156686 -0.008022 -0.051606
  4   2.033756 0.190472 -0.000128 -0.060907 -0.001881 -0.035003
  5   2.451511 0.204909 -0.003447 -0.087005 0.004081 0.046027
  6   7.247600 -0.397300 -0.109469 0.000001 0.000033 -0.122046
  7   -2.022252 -0.104661 3.136172 1.278464 -0.816537 -4.199579
  8   1.168026 -0.537438 -0.063437 -1.184819 -0.277467 -0.665436
  9   6.790376 -0.619176 0.015206 -0.000158 -0.000151 -0.415223
 10   8.637599 0.544015 -0.090417 -0.154029 -0.203770 0.119392
 11   6.790465 -0.619039 0.017802 -0.001918 -0.011054 -0.305936
 12   -2.022474 -0.104699 -2.873818 0.257389 1.328422 -2.770914
 13   1.167898 -0.537463 0.063297 0.534674 -1.201994 -0.967921
 14   7.002743 -0.617765 -0.183752 0.000286 0.000250 -1.630803
 15   8.209042 0.615527 -0.255885 1.570090 -0.000063 -0.069706
 16   7.002735 -0.617911 -0.183641 0.013496 0.009059 -1.160198
 17   1.574674 0.609930 -0.000899 0.304173 0.020433 0.062124
 18   -0.602177 0.511412 -0.000006 0.000000 0.000000 0.000000
 19   3.673773 0.177020 1.119313 -0.000002 -0.000014 -0.174510
 20   3.673767 0.176993 -1.117566 0.000007 -0.000003 -0.174546
 21   3.942357 1.334540 1.627658 0.000002 -0.000011 -0.000026
 22   -0.246060 -0.011889 0.516521 -0.000011 0.000031 0.000025
 23   3.942374 1.334565 -1.631083 0.000019 0.000002 -0.000024
 24   -0.246150 -0.011872 -0.516511 -0.000005 -0.000006 0.000048
 25   4.941364 1.997338 1.629330 0.000018 0.261744 -0.000024
 26   4.941382 1.997366 -1.629410 -0.000001 -0.261756 -0.000024
 27   2.914462 1.619264 1.514501 -0.000019 -0.000022 -0.000050
 28   2.916892 1.618870 -1.501142 -0.000002 -0.000009 -0.000024
 29   8.824059 0.150544 0.091743 0.000006 -0.000231 -0.174534
 30   2.111085 -0.561179 1.784320 -0.000008 -0.000682 0.000024
 31   2.121290 -0.561289 -1.853599 0.000000 0.000000 -0.000002
 32   -0.814395 -0.093824 3.127092 3.071965 -0.114691 1.239365
 33   14.298673 -0.408176 0.471578 0.000248 0.000063 -1.896136
 34   15.835795 0.581398 0.242756 -0.214735 0.106913 -0.097869
 35   -0.815868 -0.091229 -3.114430 0.066464 3.132818 -1.010216
 36   14.294526 -0.410349 -0.467541 0.000021 -0.000012 -2.607695
 37   15.834409 0.579420 -0.284600 -0.006092 -0.035255 0.214508
 38   1.139685 -3.453749 -2.823813 0.000000 0.000000 0.000001
 39   -4.457742 -1.054854 -0.746180 0.000000 0.000000 0.000000
 40   1.118101 -3.449769 3.237290 0.000000 0.000001 0.000000
 41   -4.433840 -1.059130 0.959566 -0.000001 0.000000 0.000000
 42   -0.657468 1.697302 -2.688614 0.000000 0.000002 0.000000
 43   -0.664068 1.698578 2.869377 0.000000 0.000002 0.000000
time 9
  0   -0.967547 0.175787 -20.574476 0.000000 0.000000 -1.572114
  1   -1.093036 0.000002 -0.326057 -1.570808 -1.570425 -0.000219
  2   2.262337 0.113614 0.064702 -0.000052 0.000049 -0.156091
  3   2.380047 0.353302 0.047440 -0.156686 -0.008022 -0.051606
  4   2.033756 0.190472 -0.000128 -0.060907 -0.001881 -0.035003
  5   2.451511 0.204909 -0.003447 -0.087005 0.004734 0.053506
  6   7.247600 -0.397300 -0.109469 0.000001 0.000033 -0.122046
  7   -2.022252 -0.104661 3.136172 1.270891 -0.814347 -4.189060
  8   1.168026 -0.537438 -0.063437 -1.181402 -0.290549 -0.667903
  9   6.790376 -0.619176 0.015206 -0.000158 -0.000151 -0.415223
 10   8.637599 0.544015 -0.090417 -0.154029 -0.203770 0.119392
 11   6.790465 -0.619039 0.017802 -0.001918 -0.011054 -0.305936
 12   -2.022474 -0.104699 -2.873818 0.253365 1.324649 -2.775031
 13   1.167898 -0.537463 0.063297 0.537556 -1.194111 -0.972461
 14   7.002743 -0.617765 -0.183752 0.000286 0.000250 -1.630803
 15   8.209042 0.615527 -0.255885 1.570090 -0.000063 -0.069706
 16   7.002735 -0.617911 -0.183641 0.013496 0.009059 -1.160198
 17   1.574674 0.609930 -0.000899 0.304173 0.020433 0.054510
 18   -0.602177 0.511412 -0.000006 0.000000 0.000000 0.000000
 19   3.673773 0.177020 1.119313 -0.000002 -0.000014 -0.174510
 20   3.673767 0.176993 -1.117566 0.000007 -0.000003 -0.174546
 21   3.942357 1.334540 1.627658 0.000002 -0.000011 -0.000026
 22   -0.246060 -0.011889 0.516521 -0.000011 0.000031 0.000025
 23   3.942374 1.334565 -1.631083 0.000019 0.000002 -0.000024
 24   -0.246150 -0.011872 -0.516511 -0.000005 -0.000006 0.000048
 25   4.941364 1.997338 1.629330 0.000018 0.261744 -0.000024
 26   4.941382 1.997366 -1.629410 -0.000001 -0.261756 -0.000024
 27   2.914462 1.619264 1.514501 -0.000019 -0.000022 -0.000050
 28   2.916892 1.618870 -1.501142 -0.000002 -0.000009 -0.000024
 29   8.824059 0.150544 0.091743 0.000006 -0.000231 -0.174534
 30   2.111085 -0.561179 1.784320 -0.000008 -0.000682 0.000024
 31   2.121290 -0.561289 -1.853599 0.000000 0.000000 -0.000002
 32   -0.814395 -0.093824 3.127092 3.071965 -0.114691 1.239365
 33   14.298673 -0.408176 0.471578 0.000248 0.000063 -1.896136
 34   15.835795 0.581398 0.242756 -0.214735 0.106913 -0.097869
 35   -0.815868 -0.091229 -3.114430 0.066464 3.132818 -1.010216
 36   14.294526 -0.410349 -0.467541 0.000021 -0.000012 -2.607695
 37   15.834409 0.579420 -0.284600 -0.006092 -0.035255 0.214508
 38   1.139685 -3.453749 -2.823813 0.000000 0.000000 0.000001
 39   -4.457742 -1.054854 -0.746180 0.000000 0.000000 0.000000
 40   1.118101 -3.449769 3.237290 0.000000 0.000001 0.000000
 41   -4.433840 -1.059130 0.959566 -0.000001 0.000000 0.000000
 42   -0.657468 1.697302 -2.688614 0.000000 0.000002 0.000000
 43   -0.664068 1.698578 2.869377 0.000000 0.000002 0.000000
time 10
  0   -0.967547 0.175787 -20.574476 0.000000 0.000000 -1.572114
  1   -1.093036 0.000002 -0.326057 -1.570808 -1.570425 -0.000219
  2   2.262337 0.113614 0.064702 -0.000052 0.000049 -0.156091
  3   2.380047 0.353302 0.047440 -0.156686 -0.008022 -0.051606
  4   2.033756 0.190472 -0.000128 -0.060907 -0.001881 -0.035003
  5   2.451511 0.204909 -0.003447 -0.087005 0.005178 0.060267
  6   7.247600 -0.397300 -0.109469 0.000001 0.000033 -0.122046
  7   -2.022252 -0.104661 3.136172 1.263798 -0.812386 -4.179857
  8   1.168026 -0.537438 -0.063437 -1.178048 -0.302272 -0.670370
  9   6.790376 -0.619176 0.015206 -0.000158 -0.000151 -0.415223
 10   8.637599 0.544015 -0.090417 -0.154029 -0.203770 0.119392
 11   6.790465 -0.619039 0.017802 -0.001918 -0.011054 -0.305936
 12   -2.022474 -0.104699 -2.873818 0.249820 1.320934 -2.778765
 13   1.167898 -0.537463 0.063297 0.540368 -1.186839 -0.976335
 14   7.002743 -0.617765 -0.183752 0.000286 0.000250 -1.630803
 15   8.209042 0.615527 -0.255885 1.570090 -0.000063 -0.069706
 16   7.002735 -0.617911 -0.183641 0.013496 0.009059 -1.160198
 17   1.574674 0.609930 -0.000899 0.304173 0.020433 0.047857
 18   -0.602177 0.511412 -0.000006 0.000000 0.000000 0.000000
 19   3.673773 0.177020 1.119313 -0.000002 -0.000014 -0.174510
 20   3.673767 0.176993 -1.117566 0.000007 -0.000003 -0.174546
 21   3.942357 1.334540 1.627658 0.000002 -0.000011 -0.000026
 22   -0.246060 -0.011889 0.516521 -0.000011 0.000031 0.000025
 23   3.942374 1.334565 -1.631083 0.000019 0.000002 -0.000024
 24   -0.246150 -0.011872 -0.516511 -0.000005 -0.000006 0.000048
 25   4.941364 1.997338 1.629330 0.000018 0.261744 -0.000024
 26   4.941382 1.997366 -1.629410 -0.000001 -0.261756 -0.000024
 27   2.914462 1.619264 1.514501 -0.000019 -0.000022 -0.000050
 28   2.916892 1.618870 -1.501142 -0.000002 -0.000009 -0.000024
 29   8.824059 0.150544 0.091743 0.000006 -0.000231 -0.174534
 30   2.111085 -0.561179 1.784320 -0.000008 -0.000682 0.000024
 31   2.121290 -0.561289 -1.853599 0.000000 0.000000 -0.000002
 32   -0.814395 -0.093824 3.127092 3.071965 -0.114691 1.239365
 33   14.298673 -0.408176 0.471578 0.000248 0.000063 -1.896136
 34   15.835795 0.581398 0.242756 -0.214735 0.106913 -0.097869
 35   -0.815868 -0.091229 -3.114430 0.066464 3.132818 -1.010216
 36   14.294526 -0.410349 -0.467541 0.000021 -0.000012 -2.607695
 37   15.834409 0.579420 -0.284600 -0.006092 -0.035255 0.214508
 38   1.139685 -3.453749 -2.823813 0.000000 0.000000 0.000001
 39   -4.457742 -1.054854 -0.746180 0.000000 0.000000 0.000000
 40   1.118101 -3.449769 3.237290 0.000000 0.000001 0.000000
 41   -4.433840 -1.059130 0.959566 -0.000001 0.000000 0.000000
 42   -0.657468 1.697302 -2.688614 0.000000 0.000002 0.000000
 43   -0.664068 1.698578 2.869377 0.000000 0.000002 0.000000
time 11
  0   -0.967547 0.175787 -20.574476 0.000000 0.000000 -1.572114
  1   -1.093036 0.000002 -0.326057 -1.570808 -1.570425 -0.000219
  2   2.262337 0.113614 0.064702 -0.000052 0.000049 -0.156091
  3   2.380047 0.353302 0.047440 -0.156686 -0.008022 -0.051606
  4   2.033756 0.190472 -0.000128 -0.060907 -0.001881 -0.035003
  5   2.451511 0.204909 -0.003447 -0.086971 0.005805 0.066186
  6   7.247600 -0.397300 -0.109469 0.000001 0.000033 -0.122046
  7   -2.022252 -0.104661 3.136172 1.257854 -0.810513 -4.171592
  8   1.168026 -0.537438 -0.063437 -1.175263 -0.312788 -0.672268
  9   6.790376 -0.619176 0.015206 -0.000158 -0.000151 -0.415223
 10   8.637599 0.544015 -0.090417 -0.154029 -0.203770 0.119392
 11   6.790465 -0.619039 0.017802 -0.001918 -0.011054 -0.305936
 12   -2.022474 -0.104699 -2.873818 0.246754 1.317712 -2.781829
 13   1.167898 -0.537463 0.063297 0.542407 -1.180330 -0.979846
 14   7.002743 -0.617765 -0.183752 0.000286 0.000250 -1.630803
 15   8.209042 0.615527 -0.255885 1.570090 -0.000063 -0.069706
 16   7.002735 -0.617911 -0.183641 0.013496 0.009059 -1.160198
 17   1.574674 0.609930 -0.000899 0.304173 0.020433 0.041869
 18   -0.602177 0.511412 -0.000006 0.000000 0.000000 0.000000
 19   3.673773 0.177020 1.119313 -0.000002 -0.000014 -0.174510
 20   3.673767 0.176993 -1.117566 0.000007 -0.000003 -0.174546
 21   3.942357 1.334540 1.627658 0.000002 -0.000011 -0.000026
 22   -0.246060 -0.011889 0.516521 -0.000011 0.000031 0.000025
 23   3.942374 1.334565 -1.631083 0.000019 0.000002 -0.000024
 24   -0.246150 -0.011872 -0.516511 -0.000005 -0.000006 0.000048
 25   4.941364 1.997338 1.629330 0.000018 0.261744 -0.000024
 26   4.941382 1.997366 -1.629410 -0.000001 -0.261756 -0.000024
 27   2.914462 1.619264 1.514501 -0.000019 -0.000022 -0.000050
 28   2.916892 1.618870 -1.501142 -0.000002 -0.000009 -0.000024
 29   8.824059 0.150544 0.091743 0.000006 -0.000231 -0.174534
 30   2.111085 -0.561179 1.784320 -0.000008 -0.000682 0.000024
 31   2.121290 -0.561289 -1.853599 0.000000 0.000000 -0.000002
 32   -0.814395 -0.093824 3.127092 3.071965 -0.114691 1.239365
 33   14.298673 -0.408176 0.471578 0.000248 0.000063 -1.896136
 34   15.835795 0.581398 0.242756 -0.214735 0.106913 -0.097869
 35   -0.815868 -0.091229 -3.114430 0.066464 3.132818 -1.010216
 36   14.294526 -0.410349 -0.467541 0.000021 -0.000012 -2.607695
 37   15.834409 0.579420 -0.284600 -0.006092 -0.035255 0.214508
 38   1.139685 -3.453749 -2.823813 0.000000 0.000000 0.000001
 39   -4.457742 -1.054854 -0.746180 0.000000 0.000000 0.000000
 40   1.118101 -3.449769 3.237290 0.000000 0.000001 0.000000
 41   -4.433840 -1.059130 0.959566 -0.000001 0.000000 0.000000
 42   -0.657468 1.697302 -2.688614 0.000000 0.000002 0.000000
 43   -0.664068 1.698578 2.869377 0.000000 0.000002 0.000000
time 12
  0   -0.967547 0.175787 -20.574476 0.000000 0.000000 -1.572114
  1   -1.093036 0.000002 -0.326057 -1.570808 -1.570425 -0.000219
  2   2.262337 0.113614 0.064702 -0.000052 0.000049 -0.156091
  3   2.380047 0.353302 0.047440 -0.156686 -0.008022 -0.051606
  4   2.033756 0.190472 -0.000128 -0.060907 -0.001881 -0.035003
  5   2.451511 0.204909 -0.003447 -0.086954 0.006275 0.071139
  6   7.247600 -0.397300 -0.109469 0.000001 0.000033 -0.122046
  7   -2.022252 -0.104661 3.136172 1.253062 -0.809129 -4.164736
  8   1.168026 -0.537438 -0.063437 -1.172859 -0.321341 -0.674229
  9   6.790376 -0.619176 0.015206 -0.000158 -0.000151 -0.415223
 10   8.637599 0.544015 -0.090417 -0.154029 -0.203770 0.119392
 11   6.790465 -0.619039 0.017802 -0.001918 -0.011054 -0.305936
 12   -2.022474 -0.104699 -2.873818 0.244263 1.315187 -2.784318
 13   1.167898 -0.537463 0.063297 0.544164 -1.175143 -0.982631
 14   7.002743 -0.617765 -0.183752 0.000286 0.000250 -1.630803
 15   8.209042 0.615527 -0.255885 1.570090 -0.000063 -0.069706
 16   7.002735 -0.617911 -0.183641 0.013496 0.009059 -1.160198
 17   1.574674 0.609930 -0.000899 0.304173 0.020433 0.036879
 18   -0.602177 0.511412 -0.000006 0.000000 0.000000 0.000000
 19   3.673773 0.177020 1.119313 -0.000002 -0.000014 -0.174510
 20   3.673767 0.176993 -1.117566 0.000007 -0.000003 -0.174546
 21   3.942357 1.334540 1.627658 0.000002 -0.000011 -0.000026
 22   -0.246060 -0.011889 0.516521 -0.000011 0.000031 0.000025
 23   3.942374 1.334565 -1.631083 0.000019 0.000002 -0.000024
 24   -0.246150 -0.011872 -0.516511 -0.000005 -0.000006 0.000048
 25   4.941364 1.997338 1.629330 0.000018 0.261744 -0.000024
 26   4.941382 1.997366 -1.629410 -0.000001 -0.261756 -0.000024
 27   2.914462 1.619264 1.514501 -0.000019 -0.000022 -0.000050
 28   2.916892 1.618870 -1.501142 -0.000002 -0.000009 -0.000024
 29   8.824059 0.150544 0.091743 0.000006 -0.000231 -0.174534
 30   2.111085 -0.561179 1.784320 -0.000008 -0.000682 0.000024
 31   2.121290 -0.561289 -1.853599 0.000000 0.000000 -0.000002
 32   -0.814395 -0.093824 3.127092 3.071965 -0.114691 1.239365
 33   14.298673 -0.408176 0.471578 0.000248 0.000063 -1.896136
 34   15.835795 0.581398 0.242756 -0.214735 0.106913 -0.097869
 35   -0.815868 -0.091229 -3.114430 0.066464 3.132818 -1.010216
 36   14.294526 -0.410349 -0.467541 0.000021 -0.000012 -2.607695
 37   15.834409 0.579420 -0.284600 -0.006092 -0.035255 0.214508
 38   1.139685 -3.453749 -2.823813 0.000000 0.000000 0.000001
 39   -4.457742 -1.054854 -0.746180 0.000000 0.000000 0.000000
 40   1.118101 -3.449769 3.237290 0.000000 0.000001 0.000000
 41   -4.433840 -1.059130 0.959566 -0.000001 0.000000 0.000000
 42   -0.657468 1.697302 -2.688614 0.000000 0.000002 0.000000
 43   -0.664068 1.698578 2.869377 0.000000 0.000002 0.000000
time 13
  0   -0.967547 0.175787 -20.574476 0.000000 0.000000 -1.572114
  1   -1.093036 0.000002 -0.326057 -1.570808 -1.570425 -0.000219
  2   2.262337 0.113614 0.064702 -0.000052 0.000049 -0.156091
  3   2.380047 0.353302 0.047440 -0.156686 -0.008022 -0.051606
  4   2.033756 0.190472 -0.000128 -0.060907 -0.001881 -0.035003
  5   2.451511 0.204909 -0.003447 -0.086851 0.006575 0.074829
  6   7.247600 -0.397300 -0.109469 0.000001 0.000033 -0.122046
  7   -2.022252 -0.104661 3.136172 1.249611 -0.807803 -4.159477
  8   1.168026 -0.537438 -0.063437 -1.170834 -0.327882 -0.675621
  9   6.790376 -0.619176 0.015206 -0.000158 -0.000151 -0.415223
 10   8.637599 0.544015 -0.090417 -0.154029 -0.203770 0.119392
 11   6.790465 -0.619039 0.017802 -0.001918 -0.011054 -0.305936
 12   -2.022474 -0.104699 -2.873818 0.242251 1.313301 -2.786520
 13   1.167898 -0.537463 0.063297 0.545570 -1.171125 -0.984810
 14   7.002743 -0.617765 -0.183752 0.000286 0.000250 -1.630803
 15   8.209042 0.615527 -0.255885 1.570090 -0.000063 -0.069706
 16   7.002735 -0.617911 -0.183641 0.013496 0.009059 -1.160198
 17   1.574674 0.609930 -0.000899 0.304173 0.020433 0.033257
 18   -0.602177 0.511412 -0.000006 0.000000 0.000000 0.000000
 19   3.673773 0.177020 1.119313 -0.000002 -0.000014 -0.174510
 20   3.673767 0.176993 -1.117566 0.000007 -0.000003 -0.174546
 21   3.942357 1.334540 1.627658 0.000002 -0.000011 -0.000026
 22   -0.246060 -0.011889 0.516521 -0.000011 0.000031 0.000025
 23   3.942374 1.334565 -1.631083 0.000019 0.000002 -0.000024
 24   -0.246150 -0.011872 -0.516511 -0.000005 -0.000006 0.000048
 25   4.941364 1.997338 1.629330 0.000018 0.261744 -0.000024
 26   4.941382 1.997366 -1.629410 -0.000001 -0.261756 -0.000024
 27   2.914462 1.619264 1.514501 -0.000019 -0.000022 -0.000050
 28   2.916892 1.618870 -1.501142 -0.000002 -0.000009 -0.000024
 29   8.824059 0.150544 0.091743 0.000006 -0.000231 -0.174534
 30   2.111085 -0.561179 1.784320 -0.000008 -0.000682 0.000024
 31   2.121290 -0.561289 -1.853599 0.000000 0.000000 -0.000002
 32   -0.814395 -0.093824 3.127092 3.071965 -0.114691 1.239365
 33   14.298673 -0.408176 0.471578 0.000248 0.000063 -1.896136
 34   15.835795 0.581398 0.242756 -0.214735 0.106913 -0.097869
 35   -0.815868 -0.091229 -3.114430 0.066464 3.132818 -1.010216
 36   14.294526 -0.410349 -0.467541 0.000021 -0.000012 -2.607695
 37   15.834409 0.579420 -0.284600 -0.006092 -0.035255 0.214508
 38   1.139685 -3.453749 -2.823813 0.000000 0.000000 0.000001
 39   -4.457742 -1.054854 -0.746180 0.000000 0.000000 0.000000
 40   1.118101 -3.449769 3.237290 0.000000 0.000001 0.000000
 41   -4.433840 -1.059130 0.959566 -0.000001 0.000000 0.000000
 42   -0.657468 1.697302 -2.688614 0.000000 0.000002 0.000000
 43   -0.664068 1.698578 2.869377 0.000000 0.000002 0.000000
time 14
  0   -0.967547 0.175787 -20.574476 0.000000 0.000000 -1.572114
  1   -1.093036 0.000002 -0.326057 -1.570808 -1.570425 -0.000219
  2   2.262337 0.113614 0.064702 -0.000052 0.000049 -0.156091
  3   2.380047 0.353302 0.047440 -0.156686 -0.008022 -0.051606
  4   2.033756 0.190472 -0.000128 -0.060907 -0.001881 -0.035003
  5   2.451511 0.204909 -0.003447 -0.086851 0.006653 0.077157
  6   7.247600 -0.397300 -0.109469 0.000001 0.000033 -0.122046
  7   -2.022252 -0.104661 3.136172 1.247023 -0.807111 -4.156565
  8   1.168026 -0.537438 -0.063437 -1.169948 -0.332058 -0.676443
  9   6.790376 -0.619176 0.015206 -0.000158 -0.000151 -0.415223
 10   8.637599 0.544015 -0.090417 -0.154029 -0.203770 0.119392
 11   6.790465 -0.619039 0.017802 -0.001918 -0.011054 -0.305936
 12   -2.022474 -0.104699 -2.873818 0.241293 1.312140 -2.787669
 13   1.167898 -0.537463 0.063297 0.546273 -1.168633 -0.986021
 14   7.002743 -0.617765 -0.183752 0.000286 0.000250 -1.630803
 15   8.209042 0.615527 -0.255885 1.570090 -0.000063 -0.069706
 16   7.002735 -0.617911 -0.183641 0.013496 0.009059 -1.160198
 17   1.574674 0.609930 -0.000899 0.304173 0.020433 0.030781
 18   -0.602177 0.511412 -0.000006 0.000000 0.000000 0.000000
 19   3.673773 0.177020 1.119313 -0.000002 -0.000014 -0.174510
 20   3.673767 0.176993 -1.117566 0.000007 -0.000003 -0.174546
 21   3.942357 1.334540 1.627658 0.000002 -0.000011 -0.000026
 22   -0.246060 -0.011889 0.516521 -0.000011 0.000031 0.000025
 23   3.942374 1.334565 -1.631083 0.000019 0.000002 -0.000024
 24   -0.246150 -0.011872 -0.516511 -0.000005 -0.000006 0.000048
 25   4.941364 1.997338 1.629330 0.000018 0.261744 -0.000024
 26   4.941382 1.997366 -1.629410 -0.000001 -0.261756 -0.000024
 27   2.914462 1.619264 1.514501 -0.000019 -0.000022 -0.000050
 28   2.916892 1.618870 -1.501142 -0.000002 -0.000009 -0.000024
 29   8.824059 0.150544 0.091743 0.000006 -0.000231 -0.174534
 30   2.111085 -0.561179 1.784320 -0.000008 -0.000682 0.000024
 31   2.121290 -0.561289 -1.853599 0.000000 0.000000 -0.000002
 32   -0.814395 -0.093824 3.127092 3.071965 -0.114691 1.239365
 33   14.298673 -0.408176 0.471578 0.000248 0.000063 -1.896136
 34   15.835795 0.581398 0.242756 -0.214735 0.106913 -0.097869
 35   -0.815868 -0.091229 -3.114430 0.066464 3.132818 -1.010216
 36   14.294526 -0.410349 -0.467541 0.000021 -0.000012 -2.607695
 37   15.834409 0.579420 -0.284600 -0.006092 -0.035255 0.214508
 38   1.139685 -3.453749 -2.823813 0.000000 0.000000 0.000001
 39   -4.457742 -1.054854 -0.746180 0.000000 0.000000 0.000000
 40   1.118101 -3.449769 3.237290 0.000000 0.000001 0.000000
 41   -4.433840 -1.059130 0.959566 -0.000001 0.000000 0.000000
 42   -0.657468 1.697302 -2.688614 0.000000 0.000002 0.000000
 43   -0.664068 1.698578 2.869377 0.000000 0.000002 0.000000
time 15
  0   -0.967547 0.175787 -20.574476 0.000000 0.000000 -1.572114
  1   -1.093036 0.000002 -0.326057 -1.570808 -1.570425 -0.000219
  2   2.262337 0.113614 0.064702 -0.000052 0.000049 -0.156091
  3   2.380047 0.353302 0.047440 -0.156686 -0.008022 -0.051606
  4   2.033756 0.190472 -0.000128 -0.060907 -0.001881 -0.035003
  5   2.451511 0.204909 -0.003447 -0.086851 0.006719 0.077999
  6   7.247600 -0.397300 -0.109469 0.000001 0.000033 -0.122046
  7   -2.022252 -0.104661 3.136172 1.246256 -0.806909 -4.155157
  8   1.168026 -0.537438 -0.063437 -1.169442 -0.333517 -0.676633
  9   6.790376 -0.619176 0.015206 -0.000158 -0.000151 -0.415223
 10   8.637599 0.544015 -0.090417 -0.154029 -0.203770 0.119392
 11   6.790465 -0.619039 0.017802 -0.001918 -0.011054 -0.305936
 12   -2.022474 -0.104699 -2.873818 0.240814 1.311530 -2.787956
 13   1.167898 -0.537463 0.063297 0.546484 -1.167616 -0.986505
 14   7.002743 -0.617765 -0.183752 0.000286 0.000250 -1.630803
 15   8.209042 0.615527 -0.255885 1.570090 -0.000063 -0.069706
 16   7.002735 -0.617911 -0.183641 0.013496 0.009059 -1.160198
 17   1.574674 0.609930 -0.000899 0.304173 0.020433 0.030115
 18   -0.602177 0.511412 -0.000006 0.000000 0.000000 0.000000
 19   3.673773 0.177020 1.119313 -0.000002 -0.000014 -0.174510
 20   3.673767 0.176993 -1.117566 0.000007 -0.000003 -0.174546
 21   3.942357 1.334540 1.627658 0.000002 -0.000011 -0.000026
 22   -0.246060 -0.011889 0.516521 -0.000011 0.000031 0.000025
 23   3.942374 1.334565 -1.631083 0.000019 0.000002 -0.000024
 24   -0.246150 -0.011872 -0.516511 -0.000005 -0.000006 0.000048
 25   4.941364 1.997338 1.629330 0.000018 0.261744 -0.000024
 26   4.941382 1.997366 -1.629410 -0.000001 -0.261756 -0.000024
 27   2.914462 1.619264 1.514501 -0.000019 -0.000022 -0.000050
 28   2.916892 1.618870 -1.501142 -0.000002 -0.000009 -0.000024
 29   8.824059 0.150544 0.091743 0.000006 -0.000231 -0.174534
 30   2.111085 -0.561179 1.784320 -0.000008 -0.000682 0.000024
 31   2.121290 -0.561289 -1.853599 0.000000 0.000000 -0.000002
 32   -0.814395 -0.093824 3.127092 3.071965 -0.114691 1.239365
 33   14.298673 -0.408176 0.471578 0.000248 0.000063 -1.896136
 34   15.835795 0.581398 0.242756 -0.214735 0.106913 -0.097869
 35   -0.815868 -0.091229 -3.114430 0.066464 3.132818 -1.010216
 36   14.294526 -0.410349 -0.467541 0.000021 -0.000012 -2.607695
 37   15.834409 0.579420 -0.284600 -0.006092 -0.035255 0.214508
 38   1.139685 -3.453749 -2.823813 0.000000 0.000000 0.000001
 39   -4.457742 -1.054854 -0.746180 0.000000 0.000000 0.000000
 40   1.118101 -3.449769 3.237290 0.000000 0.000001 0.000000
 41   -4.433840 -1.059130 0.959566 -0.000001 0.000000 0.000000
 42   -0.657468 1.697302 -2.688614 0.000000 0.000002 0.000000
 43   -0.664068 1.698578 2.869377 0.000000 0.000002 0.000000
time 16
  0   -0.967547 0.175787 -20.574476 0.000000 0.000000 -1.572114
  1   -1.093036 0.000002 -0.326057 -1.570808 -1.570425 -0.000219
  2   2.262337 0.113614 0.064702 -0.000052 0.000049 -0.156091
  3   2.380047 0.353302 0.047440 -0.156686 -0.008022 -0.051606
  4   2.033756 0.190472 -0.000128 -0.060907 -0.001881 -0.035003
  5   2.451511 0.204909 -0.003447 -0.086851 0.006653 0.077157
  6   7.247600 -0.397300 -0.109469 0.000001 0.000033 -0.122046
  7   -2.022252 -0.104661 3.136172 1.247023 -0.807111 -4.156565
  8   1.168026 -0.537438 -0.063437 -1.169948 -0.332058 -0.676443
  9   6.790376 -0.619176 0.015206 -0.000158 -0.000151 -0.415223
 10   8.637599 0.544015 -0.090417 -0.154029 -0.203770 0.119392
 11   6.790465 -0.619039 0.017802 -0.001918 -0.011054 -0.305936
 12   -2.022474 -0.104699 -2.873818 0.241293 1.312140 -2.787669
 13   1.167898 -0.537463 0.063297 0.546273 -1.168633 -0.986021
 14   7.002743 -0.617765 -0.183752 0.000286 0.000250 -1.630803
 15   8.209042 0.615527 -0.255885 1.570090 -0.000063 -0.069706
 16   7.002735 -0.617911 -0.183641 0.013496 0.009059 -1.160198
 17   1.574674 0.609930 -0.000899 0.304173 0.020433 0.030781
 18   -0.602177 0.511412 -0.000006 0.000000 0.000000 0.000000
 19   3.673773 0.177020 1.119313 -0.000002 -0.000014 -0.174510
 20   3.673767 0.176993 -1.117566 0.000007 -0.000003 -0.174546
 21   3.942357 1.334540 1.627658 0.000002 -0.000011 -0.000026
 22   -0.246060 -0.011889 0.516521 -0.000011 0.000031 0.000025
 23   3.942374 1.334565 -1.631083 0.000019 0.000002 -0.000024
 24   -0.246150 -0.011872 -0.516511 -0.000005 -0.000006 0.000048
 25   4.941364 1.997338 1.629330 0.000018 0.261744 -0.000024
 26   4.941382 1.997366 -1.629410 -0.000001 -0.261756 -0.000024
 27   2.914462 1.619264 1.514501 -0.000019 -0.000022 -0.000050
 28   2.916892 1.618870 -1.501142 -0.000002 -0.000009 -0.000024
 29   8.824059 0.150544 0.091743 0.000006 -0.000231 -0.174534
 30   2.111085 -0.561179 1.784320 -0.000008 -0.000682 0.000024
 31   2.121290 -0.561289 -1.853599 0.000000 0.000000 -0.000002
 32   -0.814395 -0.093824 3.127092 3.071965 -0.114691 1.239365
 33   14.298673 -0.408176 0.471578 0.000248 0.000063 -1.896136
 34   15.835795 0.581398 0.242756 -0.214735 0.106913 -0.097869
 35   -0.815868 -0.091229 -3.114430 0.066464 3.132818 -1.010216
 36   14.294526 -0.410349 -0.467541 0.000021 -0.000012 -2.607695
 37   15.834409 0.579420 -0.284600 -0.006092 -0.035255 0.214508
 38   1.139685 -3.453749 -2.823813 0.000000 0.000000 0.000001
 39   -4.457742 -1.054854 -0.746180 0.000000 0.000000 0.000000
 40   1.118101 -3.449769 3.237290 0.000000 0.000001 0.000000
 41   -4.433840 -1.059130 0.959566 -0.000001 0.000000 0.000000
 42   -0.657468 1.697302 -2.688614 0.000000 0.000002 0.000000
 43   -0.664068 1.698578 2.869377 0.000000 0.000002 0.000000
time 17
  0   -0.967547 0.175787 -20.574476 0.000000 0.000000 -1.572114
  1   -1.093036 0.000002 -0.326057 -1.570808 -1.570425 -0.000219
  2   2.262337 0.113614 0.064702 -0.000052 0.000049 -0.156091
  3   2.380047 0.353302 0.047440 -0.156686 -0.008022 -0.051606
  4   2.033756 0.190472 -0.000128 -0.060907 -0.001881 -0.035003
  5   2.451511 0.204909 -0.003447 -0.086851 0.006575 0.074829
  6   7.247600 -0.397300 -0.109469 0.000001 0.000033 -0.122046
  7   -2.022252 -0.104661 3.136172 1.249611 -0.807803 -4.159477
  8   1.168026 -0.537438 -0.063437 -1.170834 -0.327882 -0.675621
  9   6.790376 -0.619176 0.015206 -0.000158 -0.000151 -0.415223
 10   8.637599 0.544015 -0.090417 -0.154029 -0.203770 0.119392
 11   6.790465 -0.619039 0.017802 -0.001918 -0.011054 -0.305936
 12   -2.022474 -0.104699 -2.873818 0.242251 1.313301 -2.786520
 13   1.167898 -0.537463 0.063297 0.545570 -1.171125 -0.984810
 14   7.002743 -0.617765 -0.183752 0.000286 0.000250 -1.630803
 15   8.209042 0.615527 -0.255885 1.570090 -0.000063 -0.069706
 16   7.002735 -0.617911 -0.183641 0.013496 0.009059 -1.160198
 17   1.574674 0.609930 -0.000899 0.304173 0.020433 0.033257
 18   -0.602177 0.511412 -0.000006 0.000000 0.000000 0.000000
 19   3.673773 0.177020 1.119313 -0.000002 -0.000014 -0.174510
 20   3.673767 0.176993 -1.117566 0.000007 -0.000003 -0.174546
 21   3.942357 1.334540 1.627658 0.000002 -0.000011 -0.000026
 22   -0.246060 -0.011889 0.516521 -0.000011 0.000031 0.000025
 23   3.942374 1.334565 -1.631083 0.000019 0.000002 -0.000024
 24   -0.246150 -0.011872 -0.516511 -0.000005 -0.000006 0.000048
 25   4.941364 1.997338 1.629330 0.000018 0.261744 -0.000024
 26   4.941382 1.997366 -1.629410 -0.000001 -0.261756 -0.000024
 27   2.914462 1.619264 1.514501 -0.000019 -0.000022 -0.000050
 28   2.916892 1.618870 -1.501142 -0.000002 -0.000009 -0.000024
 29   8.824059 0.150544 0.091743 0.000006 -0.000231 -0.174534
 30   2.111085 -0.561179 1.784320 -0.000008 -0.000682 0.000024
 31   2.121290 -0.561289 -1.853599 0.000000 0.000000 -0.000002
 32   -0.814395 -0.093824 3.127092 3.071965 -0.114691 1.239365
 33   14.298673 -0.408176 0.471578 0.000248 0.000063 -1.896136
 34   15.835795 0.581398 0.242756 -0.214735 0.106913 -0.097869
 35   -0.815868 -0.091229 -3.114430 0.066464 3.132818 -1.010216
 36   14.294526 -0.410349 -0.467541 0.000021 -0.000012 -2.607695
 37   15.834409 0.579420 -0.284600 -0.006092 -0.035255 0.214508
 38   1.139685 -3.453749 -2.823813 0.000000 0.000000 0.000001
 39   -4.457742 -1.054854 -0.746180 0.000000 0.000000 0.000000
 40   1.118101 -3.449769 3.237290 0.000000 0.000001 0.000000
 41   -4.433840 -1.059130 0.959566 -0.000001 0.000000 0.000000
 42   -0.657468 1.697302 -2.688614 0.000000 0.000002 0.000000
 43   -0.664068 1.698578 2.869377 0.000000 0.000002 0.000000
time 18
  0   -0.967547 0.175787 -20.574476 0.000000 0.000000 -1.572114
  1   -1.093036 0.000002 -0.326057 -1.570808 -1.570425 -0.000219
  2   2.262337 0.113614 0.064702 -0.000052 0.000049 -0.156091
  3   2.380047 0.353302 0.047440 -0.156686 -0.008022 -0.051606
  4   2.033756 0.190472 -0.000128 -0.060907 -0.001881 -0.035003
  5   2.451511 0.204909 -0.003447 -0.086954 0.006275 0.071139
  6   7.247600 -0.397300 -0.109469 0.000001 0.000033 -0.122046
  7   -2.022252 -0.104661 3.136172 1.253062 -0.809129 -4.164736
  8   1.168026 -0.537438 -0.063437 -1.172859 -0.321341 -0.674229
  9   6.790376 -0.619176 0.015206 -0.000158 -0.000151 -0.415223
 10   8.637599 0.544015 -0.090417 -0.154029 -0.203770 0.119392
 11   6.790465 -0.619039 0.017802 -0.001918 -0.011054 -0.305936
 12   -2.022474 -0.104699 -2.873818 0.244263 1.315187 -2.784318
 13   1.167898 -0.537463 0.063297 0.544164 -1.175143 -0.982631
 14   7.002743 -0.617765 -0.183752 0.000286 0.000250 -1.630803
 15   8.209042 0.615527 -0.255885 1.570090 -0.000063 -0.069706
 16   7.002735 -0.617911 -0.183641 0.013496 0.009059 -1.160198
 17   1.574674 0.609930 -0.000899 0.304173 0.020433 0.036879
 18   -0.602177 0.511412 -0.000006 0.000000 0.000000 0.000000
 19   3.673773 0.177020 1.119313 -0.000002 -0.000014 -0.174510
 20   3.673767 0.176993 -1.117566 0.000007 -0.000003 -0.174546
 21   3.942357 1.334540 1.627658 0.000002 -0.000011 -0.000026
 22   -0.246060 -0.011889 0.516521 -0.000011 0.000031 0.000025
 23   3.942374 1.334565 -1.631083 0.000019 0.000002 -0.000024
 24   -0.246150 -0.011872 -0.516511 -0.000005 -0.000006 0.000048
 25   4.941364 1.997338 1.629330 0.000018 0.261744 -0.000024
 26   4.941382 1.997366 -1.629410 -0.000001 -0.261756 -0.000024
 27   2.914462 1.619264 1.514501 -0.000019 -0.000022 -0.000050
 28   2.916892 1.618870 -1.501142 -0.000002 -0.000009 -0.000024
 29   8.824059 0.150544 0.091743 0.000006 -0.000231 -0.174534
 30   2.111085 -0.561179 1.784320 -0.000008 -0.000682 0.000024
 31   2.121290 -0.561289 -1.853599 0.000000 0.000000 -0.000002
 32   -0.814395 -0.093824 3.127092 3.071965 -0.114691 1.239365
 33   14.298673 -0.408176 0.471578 0.000248 0.000063 -1.896136
 34   15.835795 0.581398 0.242756 -0.214735 0.106913 -0.097869
 35   -0.815868 -0.091229 -3.114430 0.066464 3.132818 -1.010216
 36   14.294526 -0.410349 -0.467541 0.000021 -0.000012 -2.607695
 37   15.834409 0.579420 -0.284600 -0.006092 -0.035255 0.214508
 38   1.139685 -3.453749 -2.823813 0.000000 0.000000 0.000001
 39   -4.457742 -1.054854 -0.746180 0.000000 0.000000 0.000000
 40   1.118101 -3.449769 3.237290 0.000000 0.000001 0.000000
 41   -4.433840 -1.059130 0.959566 -0.000001 0.000000 0.000000
 42   -0.657468 1.697302 -2.688614 0.000000 0.000002 0.000000
 43   -0.664068 1.698578 2.869377 0.000000 0.000002 0.000000
time 19
  0   -0.967547 0.175787 -20.574476 0.000000 0.000000 -1.572114
  1   -1.093036 0.000002 -0.326057 -1.570808 -1.570425 -0.000219
  2   2.262337 0.113614 0.064702 -0.000052 0.000049 -0.156091
  3   2.380047 0.353302 0.047440 -0.156686 -0.008022 -0.051606
  4   2.033756 0.190472 -0.000128 -0.060907 -0.001881 -0.035003
  5   2.451511 0.204909 -0.003447 -0.086971 0.005805 0.066186
  6   7.247600 -0.397300 -0.109469 0.000001 0.000033 -0.122046
  7   -2.022252 -0.104661 3.136172 1.257854 -0.810513 -4.171592
  8   1.168026 -0.537438 -0.063437 -1.175263 -0.312788 -0.672268
  9   6.790376 -0.619176 0.015206 -0.000158 -0.000151 -0.415223
 10   8.637599 0.544015 -0.090417 -0.154029 -0.203770 0.119392
 11   6.790465 -0.619039 0.017802 -0.001918 -0.011054 -0.305936
 12   -2.022474 -0.104699 -2.873818 0.246754 1.317712 -2.781829
 13   1.167898 -0.537463 0.063297 0.542407 -1.180330 -0.979846
 14   7.002743 -0.617765 -0.183752 0.000286 0.000250 -1.630803
 15   8.209042 0.615527 -0.255885 1.570090 -0.000063 -0.069706
 16   7.002735 -0.617911 -0.183641 0.013496 0.009059 -1.160198
 17   1.574674 0.609930 -0.000899 0.304173 0.020433 0.041869
 18   -0.602177 0.511412 -0.000006 0.000000 0.000000 0.000000
 19   3.673773 0.177020 1.119313 -0.000002 -0.000014 -0.174510
 20   3.673767 0.176993 -1.117566 0.000007 -0.000003 -0.174546
 21   3.942357 1.334540 1.627658 0.000002 -0.000011 -0.000026
 22   -0.246060 -0.011889 0.516521 -0.000011 0.000031 0.000025
 23   3.942374 1.334565 -1.631083 0.000019 0.000002 -0.000024
 24   -0.246150 -0.011872 -0.516511 -0.000005 -0.000006 0.000048
 25   4.941364 1.997338 1.629330 0.000018 0.261744 -0.000024
 26   4.941382 1.997366 -1.629410 -0.000001 -0.261756 -0.000024
 27   2.914462 1.619264 1.514501 -0.000019 -0.000022 -0.000050
 28   2.916892 1.618870 -1.501142 -0.000002 -0.000009 -0.000024
 29   8.824059 0.150544 0.091743 0.000006 -0.000231 -0.174534
 30   2.111085 -0.561179 1.784320 -0.000008 -0.000682 0.000024
 31   2.121290 -0.561289 -1.853599 0.000000 0.000000 -0.000002
 32   -0.814395 -0.093824 3.127092 3.071965 -0.114691 1.239365
 33   14.298673 -0.408176 0.471578 0.000248 0.000063 -1.896136
 34   15.835795 0.581398 0.242756 -0.214735 0.106913 -0.097869
 35   -0.815868 -0.091229 -3.114430 0.066464 3.132818 -1.010216
 36   14.294526 -0.410349 -0.467541 0.000021 -0.000012 -2.607695
 37   15.834409 0.579420 -0.284600 -0.006092 -0.035255 0.214508
 38   1.139685 -3.453749 -2.823813 0.000000 0.000000 0.000001
 39   -4.457742 -1.054854 -0.746180 0.000000 0.000000 0.000000
 40   1.118101 -3.449769 3.237290 0.000000 0.000001 0.000000
 41   -4.433840 -1.059130 0.959566 -0.000001 0.000000 0.000000
 42   -0.657468 1.697302 -2.688614 0.000000 0.000002 0.000000
 43   -0.664068 1.698578 2.869377 0.000000 0.000002 0.000000
time 20
  0   -0.967547 0.175787 -20.574476 0.000000 0.000000 -1.572114
  1   -1.093036 0.000002 -0.326057 -1.570808 -1.570425 -0.000219
  2   2.262337 0.113614 0.064702 -0.000052 0.000049 -0.156091
  3   2.380047 0.353302 0.047440 -0.156686 -0.008022 -0.051606
  4   2.033756 0.190472 -0.000128 -0.060907 -0.001881 -0.035003
  5   2.451511 0.204909 -0.003447 -0.087005 0.005178 0.060267
  6   7.247600 -0.397300 -0.109469 0.000001 0.000033 -0.122046
  7   -2.022252 -0.104661 3.136172 1.263798 -0.812386 -4.179857
  8   1.168026 -0.537438 -0.063437 -1.178048 -0.302272 -0.670370
  9   6.790376 -0.619176 0.015206 -0.000158 -0.000151 -0.415223
 10   8.637599 0.544015 -0.090417 -0.154029 -0.203770 0.119392
 11   6.790465 -0.619039 0.017802 -0.001918 -0.011054 -0.305936
 12   -2.022474 -0.104699 -2.873818 0.249820 1.320934 -2.778765
 13   1.167898 -0.537463 0.063297 0.540368 -1.186839 -0.976335
 14   7.002743 -0.617765 -0.183752 0.000286 0.000250 -1.630803
 15   8.209042 0.615527 -0.255885 1.570090 -0.000063 -0.069706
 16   7.002735 -0.617911 -0.183641 0.013496 0.009059 -1.160198
 17   1.574674 0.609930 -0.000899 0.304173 0.020433 0.047857
 18   -0.602177 0.511412 -0.000006 0.000000 0.000000 0.000000
 19   3.673773 0.177020 1.119313 -0.000002 -0.000014 -0.174510
 20   3.673767 0.176993 -1.117566 0.000007 -0.000003 -0.174546
 21   3.942357 1.334540 1.627658 0.000002 -0.000011 -0.000026
 22   -0.246060 -0.011889 0.516521 -0.000011 0.000031 0.000025
 23   3.942374 1.334565 -1.631083 0.000019 0.000002 -0.000024
 24   -0.246150 -0.011872 -0.516511 -0.000005 -0.000006 0.000048
 25   4.941364 1.997338 1.629330 0.000018 0.261744 -0.000024
 26   4.941382 1.997366 -1.629410 -0.000001 -0.261756 -0.000024
 27   2.914462 1.619264 1.514501 -0.000019 -0.000022 -0.000050
 28   2.916892 1.618870 -1.501142 -0.000002 -0.000009 -0.000024
 29   8.824059 0.150544 0.091743 0.000006 -0.000231 -0.174534
 30   2.111085 -0.561179 1.784320 -0.000008 -0.000682 0.000024
 31   2.121290 -0.561289 -1.853599 0.000000 0.000000 -0.000002
 32   -0.814395 -0.093824 3.127092 3.071965 -0.114691 1.239365
 33   14.298673 -0.408176 0.471578 0.000248 0.000063 -1.896136
 34   15.835795 0.581398 0.242756 -0.214735 0.106913 -0.097869
 35   -0.815868 -0.091229 -3.114430 0.066464 3.132818 -1.010216
 36   14.294526 -0.410349 -0.467541 0.000021 -0.000012 -2.607695
 37   15.834409 0.579420 -0.284600 -0.006092 -0.035255 0.214508
 38   1.139685 -3.453749 -2.823813 0.000000 0.000000 0.000001
 39   -4.457742 -1.054854 -0.746180 0.000000 0.000000 0.000000
 40   1.118101 -3.449769 3.237290 0.000000 0.000001 0.000000
 41   -4.433840 -1.059130 0.959566 -0.000001 0.000000 0.000000
 42   -0.657468 1.697302 -2.688614 0.000000 0.000002 0.000000
 43   -0.664068 1.698578 2.869377 0.000000 0.000002 0.000000
time 21
  0   -0.967547 0.175787 -20.574476 0.000000 0.000000 -1.572114
  1   -1.093036 0.000002 -0.326057 -1.570808 -1.570425 -0.000219
  2   2.262337 0.113614 0.064702 -0.000052 0.000049 -0.156091
  3   2.380047 0.353302 0.047440 -0.156686 -0.008022 -0.051606
  4   2.033756 0.190472 -0.000128 -0.060907 -0.001881 -0.035003
  5   2.451511 0.204909 -0.003447 -0.087005 0.004734 0.053506
  6   7.247600 -0.397300 -0.109469 0.000001 0.000033 -0.122046
  7   -2.022252 -0.104661 3.136172 1.270891 -0.814347 -4.189060
  8   1.168026 -0.537438 -0.063437 -1.181402 -0.290549 -0.667903
  9   6.790376 -0.619176 0.015206 -0.000158 -0.000151 -0.415223
 10   8.637599 0.544015 -0.090417 -0.154029 -0.203770 0.119392
 11   6.790465 -0.619039 0.017802 -0.001918 -0.011054 -0.305936
 12   -2.022474 -0.104699 -2.873818 0.253365 1.324649 -2.775031
 13   1.167898 -0.537463 0.063297 0.537556 -1.194111 -0.972461
 14   7.002743 -0.617765 -0.183752 0.000286 0.000250 -1.630803
 15   8.209042 0.615527 -0.255885 1.570090 -0.000063 -0.069706
 16   7.002735 -0.617911 -0.183641 0.013496 0.009059 -1.160198
 17   1.574674 0.609930 -0.000899 0.304173 0.020433 0.054510
 18   -0.602177 0.511412 -0.000006 0.000000 0.000000 0.000000
 19   3.673773 0.177020 1.119313 -0.000002 -0.000014 -0.174510
 20   3.673767 0.176993 -1.117566 0.000007 -0.000003 -0.174546
 21   3.942357 1.334540 1.627658 0.000002 -0.000011 -0.000026
 22   -0.246060 -0.011889 0.516521 -0.000011 0.000031 0.000025
 23   3.942374 1.334565 -1.631083 0.000019 0.000002 -0.000024
 24   -0.246150 -0.011872 -0.516511 -0.000005 -0.000006 0.000048
 25   4.941364 1.997338 1.629330 0.000018 0.261744 -0.000024
 26   4.941382 1.997366 -1.629410 -0.000001 -0.261756 -0.000024
 27   2.914462 1.619264 1.514501 -0.000019 -0.000022 -0.000050
 28   2.916892 1.618870 -1.501142 -0.000002 -0.000009 -0.000024
 29   8.824059 0.150544 0.091743 0.000006 -0.000231 -0.174534
 30   2.111085 -0.561179 1.784320 -0.000008 -0.000682 0.000024
 31   2.121290 -0.561289 -1.853599 0.000000 0.000000 -0.000002
 32   -0.814395 -0.093824 3.127092 3.071965 -0.114691 1.239365
 33   14.298673 -0.408176 0.471578 0.000248 0.000063 -1.896136
 34   15.835795 0.581398 0.242756 -0.214735 0.106913 -0.097869
 35   -0.815868 -0.091229 -3.114430 0.066464 3.132818 -1.010216
 36   14.294526 -0.410349 -0.467541 0.000021 -0.000012 -2.607695
 37   15.834409 0.579420 -0.284600 -0.006092 -0.035255 0.214508
 38   1.139685 -3.453749 -2.823813 0.000000 0.000000 0.000001
 39   -4.457742 -1.054854 -0.746180 0.000000 0.000000 0.000000
 40   1.118101 -3.449769 3.237290 0.000000 0.000001 0.000000
 41   -4.433840 -1.059130 0.959566 -0.000001 0.000000 0.000000
 42   -0.657468 1.697302 -2.688614 0.000000 0.000002 0.000000
 43   -0.664068 1.698578 2.869377 0.000000 0.000002 0.000000
time 22
  0   -0.967547 0.175787 -20.574476 0.000000 0.000000 -1.572114
  1   -1.093036 0.000002 -0.326057 -1.570808 -1.570425 -0.000219
  2   2.262337 0.113614 0.064702 -0.000052 0.000049 -0.156091
  3   2.380047 0.353302 0.047440 -0.156686 -0.008022 -0.051606
  4   2.033756 0.190472 -0.000128 -0.060907 -0.001881 -0.035003
  5   2.451511 0.204909 -0.003447 -0.087005 0.004081 0.046027
  6   7.247600 -0.397300 -0.109469 0.000001 0.000033 -0.122046
  7   -2.022252 -0.104661 3.136172 1.278464 -0.816537 -4.199579
  8   1.168026 -0.537438 -0.063437 -1.184819 -0.277467 -0.665436
  9   6.790376 -0.619176 0.015206 -0.000158 -0.000151 -0.415223
 10   8.637599 0.544015 -0.090417 -0.154029 -0.203770 0.119392
 11   6.790465 -0.619039 0.017802 -0.001918 -0.011054 -0.305936
 12   -2.022474 -0.104699 -2.873818 0.257389 1.328422 -2.770914
 13   1.167898 -0.537463 0.063297 0.534674 -1.201994 -0.967921
 14   7.002743 -0.617765 -0.183752 0.000286 0.000250 -1.630803
 15   8.209042 0.615527 -0.255885 1.570090 -0.000063 -0.069706
 16   7.002735 -0.617911 -0.183641 0.013496 0.009059 -1.160198
 17   1.574674 0.609930 -0.000899 0.304173 0.020433 0.062124
 18   -0.602177 0.511412 -0.000006 0.000000 0.000000 0.000000
 19   3.673773 0.177020 1.119313 -0.000002 -0.000014 -0.174510
 20   3.673767 0.176993 -1.117566 0.000007 -0.000003 -0.174546
 21   3.942357 1.334540 1.627658 0.000002 -0.000011 -0.000026
 22   -0.246060 -0.011889 0.516521 -0.000011 0.000031 0.000025
 23   3.942374 1.334565 -1.631083 0.000019 0.000002 -0.000024
 24   -0.246150 -0.011872 -0.516511 -0.000005 -0.000006 0.000048
 25   4.941364 1.997338 1.629330 0.000018 0.261744 -0.000024
 26   4.941382 1.997366 -1.629410 -0.000001 -0.261756 -0.000024
 27   2.914462 1.619264 1.514501 -0.000019 -0.000022 -0.000050
 28   2.916892 1.618870 -1.501142 -0.000002 -0.000009 -0.000024
 29   8.824059 0.150544 0.091743 0.000006 -0.000231 -0.174534
 30   2.111085 -0.561179 1.784320 -0.000008 -0.000682 0.000024
 31   2.121290 -0.561289 -1.853599 0.000000 0.000000 -0.000002
 32   -0.814395 -0.093824 3.127092 3.071965 -0.114691 1.239365
 33   14.298673 -0.408176 0.471578 0.000248 0.000063 -1.896136
 34   15.835795 0.581398 0.242756 -0.214735 0.106913 -0.097869
 35   -0.815868 -0.091229 -3.114430 0.066464 3.132818 -1.010216
 36   14.294526 -0.410349 -0.467541 0.000021 -0.000012 -2.607695
 37   15.834409 0.579420 -0.284600 -0.006092 -0.035255 0.214508
 38   1.139685 -3.453749 -2.823813 0.000000 0.000000 0.000001
 39   -4.457742 -1.054854 -0.746180 0.000000 0.000000 0.000000
 40   1.118101 -3.449769 3.237290 0.000000 0.000001 0.000000
 41   -4.433840 -1.059130 0.959566 -0.000001 0.000000 0.000000
 42   -0.657468 1.697302 -2.688614 0.000000 0.000002 0.000000
 43   -0.664068 1.698578 2.869377 0.000000 0.000002 0.000000
time 23
  0   -0.967547 0.175787 -20.574476 0.000000 0.000000 -1.572114
  1   -1.093036 0.000002 -0.326057 -1.570808 -1.570425 -0.000219
  2   2.262337 0.113614 0.064702 -0.000052 0.000049 -0.156091
  3   2.380047 0.353302 0.047440 -0.156686 -0.008022 -0.051606
  4   2.033756 0.190472 -0.000128 -0.060907 -0.001881 -0.035003
  5   2.451511 0.204909 -0.003447 -0.087108 0.003389 0.038176
  6   7.247600 -0.397300 -0.109469 0.000001 0.000033 -0.122046
  7   -2.022252 -0.104661 3.136172 1.286516 -0.818786 -4.210849
  8   1.168026 -0.537438 -0.063437 -1.188616 -0.263379 -0.663032
  9   6.790376 -0.619176 0.015206 -0.000158 -0.000151 -0.415223
 10   8.637599 0.544015 -0.090417 -0.154029 -0.203770 0.119392
 11   6.790465 -0.619039 0.017802 -0.001918 -0.011054 -0.305936
 12   -2.022474 -0.104699 -2.873818 0.261987 1.332659 -2.766127
 13   1.167898 -0.537463 0.063297 0.531159 -1.210537 -0.962715
 14   7.002743 -0.617765 -0.183752 0.000286 0.000250 -1.630803
 15   8.209042 0.615527 -0.255885 1.570090 -0.000063 -0.069706
 16   7.002735 -0.617911 -0.183641 0.013496 0.009059 -1.160198
 17   1.574674 0.609930 -0.000899 0.304173 0.020433 0.070107
 18   -0.602177 0.511412 -0.000006 0.000000 0.000000 0.000000
 19   3.673773 0.177020 1.119313 -0.000002 -0.000014 -0.174510
 20   3.673767 0.176993 -1.117566 0.000007 -0.000003 -0.174546
 21   3.942357 1.334540 1.627658 0.000002 -0.000011 -0.000026
 22   -0.246060 -0.011889 0.516521 -0.000011 0.000031 0.000025
 23   3.942374 1.334565 -1.631083 0.000019 0.000002 -0.000024
 24   -0.246150 -0.011872 -0.516511 -0.000005 -0.000006 0.000048
 25   4.941364 1.997338 1.629330 0.000018 0.261744 -0.000024
 26   4.941382 1.997366 -1.629410 -0.000001 -0.261756 -0.000024
 27   2.914462 1.619264 1.514501 -0.000019 -0.000022 -0.000050
 28   2.916892 1.618870 -1.501142 -0.000002 -0.000009 -0.000024
 29   8.824059 0.150544 0.091743 0.000006 -0.000231 -0.174534
 30   2.111085 -0.561179 1.784320 -0.000008 -0.000682 0.000024
 31   2.121290 -0.561289 -1.853599 0.000000 0.000000 -0.000002
 32   -0.814395 -0.093824 3.127092 3.071965 -0.114691 1.239365
 33   14.298673 -0.408176 0.471578 0.000248 0.000063 -1.896136
 34   15.835795 0.581398 0.242756 -0.214735 0.106913 -0.097869
 35   -0.815868 -0.091229 -3.114430 0.066464 3.132818 -1.010216
 36   14.294526 -0.410349 -0.467541 0.000021 -0.000012 -2.607695
 37   15.834409 0.579420 -0.284600 -0.006092 -0.035255 0.214508
 38   1.139685 -3.453749 -2.823813 0.000000 0.000000 0.000001
 39   -4.457742 -1.054854 -0.746180 0.000000 0.000000 0.000000
 40   1.118101 -3.449769 3.237290 0.000000 0.000001 0.000000
 41   -4.433840 -1.059130 0.959566 -0.000001 0.000000 0.000000
 42   -0.657468 1.697302 -2.688614 0.000000 0.000002 0.000000
 43   -0.664068 1.698578 2.869377 0.000000 0.000002 0.000000
time 24
  0   -0.967547 0.175787 -20.574476 0.000000 0.000000 -1.572114
  1   -1.093036 0.000002 -0.326057 -1.570808 -1.570425 -0.000219
  2   2.262337 0.113614 0.064702 -0.000052 0.000049 -0.156091
  3   2.380047 0.353302 0.047440 -0.156686 -0.008022 -0.051606
  4   2.033756 0.190472 -0.000128 -0.060907 -0.001881 -0.035003
  5   2.451511 0.204909 -0.003447 -0.087125 0.002658 0.029855
  6   7.247600 -0.397300 -0.109469 0.000001 0.000033 -0.122046
  7   -2.022252 -0.104661 3.136172 1.295239 -0.821092 -4.222495
  8   1.168026 -0.537438 -0.063437 -1.192476 -0.248788 -0.660375
  9   6.790376 -0.619176 0.015206 -0.000158 -0.000151 -0.415223
 10   8.637599 0.544015 -0.090417 -0.154029 -0.203770 0.119392
 11   6.790465 -0.619039 0.017802 -0.001918 -0.011054 -0.305936
 12   -2.022474 -0.104699 -2.873818 0.266969 1.336955 -2.760957
 13   1.167898 -0.537463 0.063297 0.527434 -1.219589 -0.957267
 14   7.002743 -0.617765 -0.183752 0.000286 0.000250 -1.630803
 15   8.209042 0.615527 -0.255885 1.570090 -0.000063 -0.069706
 16   7.002735 -0.617911 -0.183641 0.013496 0.009059 -1.160198
 17   1.574674 0.609930 -0.000899 0.304173 0.020433 0.078386
 18   -0.602177 0.511412 -0.000006 0.000000 0.000000 0.000000
 19   3.673773 0.177020 1.119313 -0.000002 -0.000014 -0.174510
 20   3.673767 0.176993 -1.117566 0.000007 -0.000003 -0.174546
 21   3.942357 1.334540 1.627658 0.000002 -0.000011 -0.000026
 22   -0.246060 -0.011889 0.516521 -0.000011 0.000031 0.000025
 23   3.942374 1.334565 -1.631083 0.000019 0.000002 -0.000024
 24   -0.246150 -0.011872 -0.516511 -0.000005 -0.000006 0.000048
 25   4.941364 1.997338 1.629330 0.000018 0.261744 -0.000024
 26   4.941382 1.997366 -1.629410 -0.000001 -0.261756 -0.000024
 27   2.914462 1.619264 1.514501 -0.000019 -0.000022 -0.000050
 28   2.916892 1.618870 -1.501142 -0.000002 -0.000009 -0.000024
 29   8.824059 0.150544 0.091743 0.000006 -0.000231 -0.174534
 30   2.111085 -0.561179 1.784320 -0.000008 -0.000682 0.000024
 31   2.121290 -0.561289 -1.853599 0.000000 0.000000 -0.000002
 32   -0.814395 -0.093824 3.127092 3.071965 -0.114691 1.239365
 33   14.298673 -0.408176 0.471578 0.000248 0.000063 -1.896136
 34   15.835795 0.581398 0.242756 -0.214735 0.106913 -0.097869
 35   -0.815868 -0.091229 -3.114430 0.066464 3.132818 -1.010216
 36   14.294526 -0.410349 -0.467541 0.000021 -0.000012 -2.607695
 37   15.834409 0.579420 -0.284600 -0.006092 -0.035255 0.214508
 38   1.139685 -3.453749 -2.823813 0.000000 0.000000 0.000001
 39   -4.457742 -1.054854 -0.746180 0.000000 0.000000 0.000000
 40   1.118101 -3.449769 3.237290 0.000000 0.000001 0.000000
 41   -4.433840 -1.059130 0.959566 -0.000001 0.000000 0.000000
 42   -0.657468 1.697302 -2.688614 0.000000 0.000002 0.000000
 43   -0.664068 1.698578 2.869377 0.000000 0.000002 0.000000
time 25
  0   -0.967547 0.175787 -20.574476 0.000000 0.000000 -1.572114
  1   -1.093036 0.000002 -0.326057 -1.570808 -1.570425 -0.000219
  2   2.262337 0.113614 0.064702 -0.000052 0.000049 -0.156091
  3   2.380047 0.353302 0.047440 -0.156686 -0.008022 -0.051606
  4   2.033756 0.190472 -0.000128 -0.060907 -0.001881 -0.035003
  5   2.451511 0.204909 -0.003447 -0.087142 0.001914 0.021385
  6   7.247600 -0.397300 -0.109469 0.000001 0.000033 -0.122046
  7   -2.022252 -0.104661 3.136172 1.303962 -0.823312 -4.234516
  8   1.168026 -0.537438 -0.063437 -1.196272 -0.233744 -0.657908
  9   6.790376 -0.619176 0.015206 -0.000158 -0.000151 -0.415223
 10   8.637599 0.544015 -0.090417 -0.154029 -0.203770 0.119392
 11   6.790465 -0.619039 0.017802 -0.001918 -0.011054 -0.305936
 12   -2.022474 -0.104699 -2.873818 0.271951 1.341483 -2.755787
 13   1.167898 -0.537463 0.063297 0.523145 -1.228743 -0.951516
 14   7.002743 -0.617765 -0.183752 0.000286 0.000250 -1.630803
 15   8.209042 0.615527 -0.255885 1.570090 -0.000063 -0.069706
 16   7.002735 -0.617911 -0.183641 0.013496 0.009059 -1.160198
 17   1.574674 0.609930 -0.000899 0.304173 0.020433 0.086961
 18   -0.602177 0.511412 -0.000006 0.000000 0.000000 0.000000
 19   3.673773 0.177020 1.119313 -0.000002 -0.000014 -0.174510
 20   3.673767 0.176993 -1.117566 0.000007 -0.000003 -0.174546
 21   3.942357 1.334540 1.627658 0.000002 -0.000011 -0.000026
 22   -0.246060 -0.011889 0.516521 -0.000011 0.000031 0.000025
 23   3.942374 1.334565 -1.631083 0.000019 0.000002 -0.000024
 24   -0.246150 -0.011872 -0.516511 -0.000005 -0.000006 0.000048
 25   4.941364 1.997338 1.629330 0.000018 0.261744 -0.000024
 26   4.941382 1.997366 -1.629410 -0.000001 -0.261756 -0.000024
 27   2.914462 1.619264 1.514501 -0.000019 -0.000022 -0.000050
 28   2.916892 1.618870 -1.501142 -0.000002 -0.000009 -0.000024
 29   8.824059 0.150544 0.091743 0.000006 -0.000231 -0.174534
 30   2.111085 -0.561179 1.784320 -0.000008 -0.000682 0.000024
 31   2.121290 -0.561289 -1.853599 0.000000 0.000000 -0.000002
 32   -0.814395 -0.093824 3.127092 3.071965 -0.114691 1.239365
 33   14.298673 -0.408176 0.471578 0.000248 0.000063 -1.896136
 34   15.835795 0.581398 0.242756 -0.214735 0.106913 -0.097869
 35   -0.815868 -0.091229 -3.114430 0.066464 3.132818 -1.010216
 36   14.294526 -0.410349 -0.467541 0.000021 -0.000012 -2.607695
 37   15.834409 0.579420 -0.284600 -0.006092 -0.035255 0.214508
 38   1.139685 -3.453749 -2.823813 0.000000 0.000000 0.000001
 39   -4.457742 -1.054854 -0.746180 0.000000 0.000000 0.000000
 40   1.118101 -3.449769 3.237290 0.000000 0.000001 0.000000
 41   -4.433840 -1.059130 0.959566 -0.000001 0.000000 0.000000
 42   -0.657468 1.697302 -2.688614 0.000000 0.000002 0.000000
 43   -0.664068 1.698578 2.869377 0.000000 0.000002 0.000000
time 26
  0   -0.967547 0.175787 -20.574476 0.000000 0.000000 -1.572114
  1   -1.093036 0.000002 -0.326057 -1.570808 -1.570425 -0.000219
  2   2.262337 0.113614 0.064702 -0.000052 0.000049 -0.156091
  3   2.380047 0.353302 0.047440 -0.156686 -0.008022 -0.051606
  4   2.033756 0.190472 -0.000128 -0.060907 -0.001881 -0.035003
  5   2.451511 0.204909 -0.003447 -0.087142 0.001144 0.012940
  6   7.247600 -0.397300 -0.109469 0.000001 0.000033 -0.122046
  7   -2.022252 -0.104661 3.136172 1.312877 -0.825532 -4.246537
  8   1.168026 -0.537438 -0.063437 -1.200069 -0.218851 -0.655694
  9   6.790376 -0.619176 0.015206 -0.000158 -0.000151 -0.415223
 10   8.637599 0.544015 -0.090417 -0.154029 -0.203770 0.119392
 11   6.790465 -0.619039 0.017802 -0.001918 -0.011054 -0.305936
 12   -2.022474 -0.104699 -2.873818 0.277317 1.346069 -2.750139
 13   1.167898 -0.537463 0.063297 0.518717 -1.237795 -0.945523
 14   7.002743 -0.617765 -0.183752 0.000286 0.000250 -1.630803
 15   8.209042 0.615527 -0.255885 1.570090 -0.000063 -0.069706
 16   7.002735 -0.617911 -0.183641 0.013496 0.009059 -1.160198
 17   1.574674 0.609930 -0.000899 0.304173 0.020433 0.095389
 18   -0.602177 0.511412 -0.000006 0.000000 0.000000 0.000000
 19   3.673773 0.177020 1.119313 -0.000002 -0.000014 -0.174510
 20   3.673767 0.176993 -1.117566 0.000007 -0.000003 -0.174546
 21   3.942357 1.334540 1.627658 0.000002 -0.000011 -0.000026
 22   -0.246060 -0.011889 0.516521 -0.000011 0.000031 0.000025
 23   3.942374 1.334565 -1.631083 0.000019 0.000002 -0.000024
 24   -0.246150 -0.011872 -0.516511 -0.000005 -0.000006 0.000048
 25   4.941364 1.997338 1.629330 0.000018 0.261744 -0.000024
 26   4.941382 1.997366 -1.629410 -0.000001 -0.261756 -0.000024
 27   2.914462 1.619264 1.514501 -0.000019 -0.000022 -0.000050
 28   2.916892 1.618870 -1.501142 -0.000002 -0.000009 -0.000024
 29   8.824059 0.150544 0.091743 0.000006 -0.000231 -0.174534
 30   2.111085 -0.561179 1.784320 -0.000008 -0.000682 0.000024
 31   2.121290 -0.561289 -1.853599 0.000000 0.000000 -0.000002
 32   -0.814395 -0.093824 3.127092 3.071965 -0.114691 1.239365
 33   14.298673 -0.408176 0.471578 0.000248 0.000063 -1.896136
 34   15.835795 0.581398 0.242756 -0.214735 0.106913 -0.097869
 35   -0.815868 -0.091229 -3.114430 0.066464 3.132818 -1.010216
 36   14.294526 -0.410349 -0.467541 0.000021 -0.000012 -2.607695
 37   15.834409 0.579420 -0.284600 -0.006092 -0.035255 0.214508
 38   1.139685 -3.453749 -2.823813 0.000000 0.000000 0.000001
 39   -4.457742 -1.054854 -0.746180 0.000000 0.000000 0.000000
 40   1.118101 -3.449769 3.237290 0.000000 0.000001 0.000000
 41   -4.433840 -1.059130 0.959566 -0.000001 0.000000 0.000000
 42   -0.657468 1.697302 -2.688614 0.000000 0.000002 0.000000
 43   -0.664068 1.698578 2.869377 0.000000 0.000002 0.000000
time 27
  0   -0.967547 0.175787 -20.574476 0.000000 0.000000 -1.572114
  1   -1.093036 0.000002 -0.326057 -1.570808 -1.570425 -0.000219
  2   2.262337 0.113614 0.064702 -0.000052 0.000049 -0.156091
  3   2.380047 0.353302 0.047440 -0.156686 -0.008022 -0.051606
  4   2.033756 0.190472 -0.000128 -0.060907 -0.001881 -0.035003
  5   2.451511 0.204909 -0.003447 -0.087142 0.000361 0.004644
  6   7.247600 -0.397300 -0.109469 0.000001 0.000033 -0.122046
  7   -2.022252 -0.104661 3.136172 1.321696 -0.827665 -4.258558
  8   1.168026 -0.537438 -0.063437 -1.203676 -0.203958 -0.653353
  9   6.790376 -0.619176 0.015206 -0.000158 -0.000151 -0.415223
 10   8.637599 0.544015 -0.090417 -0.154029 -0.203770 0.119392
 11   6.790465 -0.619039 0.017802 -0.001918 -0.011054 -0.305936
 12   -2.022474 -0.104699 -2.873818 0.282873 1.350480 -2.744298
 13   1.167898 -0.537463 0.063297 0.513726 -1.246593 -0.939046
 14   7.002743 -0.617765 -0.183752 0.000286 0.000250 -1.630803
 15   8.209042 0.615527 -0.255885 1.570090 -0.000063 -0.069706
 16   7.002735 -0.617911 -0.183641 0.013496 0.009059 -1.160198
 17   1.574674 0.609930 -0.000899 0.304173 0.020433 0.103631
 18   -0.602177 0.511412 -0.000006 0.000000 0.000000 0.000000
 19   3.673773 0.177020 1.119313 -0.000002 -0.000014 -0.174510
 20   3.673767 0.176993 -1.117566 0.000007 -0.000003 -0.174546
 21   3.942357 1.334540 1.627658 0.000002 -0.000011 -0.000026
 22   -0.246060 -0.011889 0.516521 -0.000011 0.000031 0.000025
 23   3.942374 1.334565 -1.631083 0.000019 0.000002 -0.000024
 24   -0.246150 -0.011872 -0.516511 -0.000005 -0.000006 0.000048
 25   4.941364 1.997338 1.629330 0.000018 0.261744 -0.000024
 26   4.941382 1.997366 -1.629410 -0.000001 -0.261756 -0.000024
 27   2.914462 1.619264 1.514501 -0.000019 -0.000022 -0.000050
 28   2.916892 1.618870 -1.501142 -0.000002 -0.000009 -0.000024
 29   8.824059 0.150544 0.091743 0.000006 -0.000231 -0.174534
 30   2.111085 -0.561179 1.784320 -0.000008 -0.000682 0.000024
 31   2.121290 -0.561289 -1.853599 0.000000 0.000000 -0.000002
 32   -0.814395 -0.093824 3.127092 3.071965 -0.114691 1.239365
 33   14.298673 -0.408176 0.471578 0.000248 0.000063 -1.896136
 34   15.835795 0.581398 0.242756 -0.214735 0.106913 -0.097869
 35   -0.815868 -0.091229 -3.114430 0.066464 3.132818 -1.010216
 36   14.294526 -0.410349 -0.467541 0.000021 -0.000012 -2.607695
 37   15.834409 0.579420 -0.284600 -0.006092 -0.035255 0.214508
 38   1.139685 -3.453749 -2.823813 0.000000 0.000000 0.000001
 39   -4.457742 -1.054854 -0.746180 0.000000 0.000000 0.000000
 40   1.118101 -3.449769 3.237290 0.000000 0.000001 0.000000
 41   -4.433840 -1.059130 0.959566 -0.000001 0.000000 0.000000
 42   -0.657468 1.697302 -2.688614 0.000000 0.000002 0.000000
 43   -0.664068 1.698578 2.869377 0.000000 0.000002 0.000000
time 28
  0   -0.967547 0.175787 -20.574476 0.000000 0.000000 -1.572114
  1   -1.093036 0.000002 -0.326057 -1.570808 -1.570425 -0.000219
  2   2.262337 0.113614 0.064702 -0.000052 0.000049 -0.156091
  3   2.380047 0.353302 0.047440 -0.156686 -0.008022 -0.051606
  4   2.033756 0.190472 -0.000128 -0.060907 -0.001881 -0.035003
  5   2.451511 0.204909 -0.003447 -0.087142 -0.000162 -0.003380
  6   7.247600 -0.397300 -0.109469 0.000001 0.000033 -0.122046
  7   -2.022252 -0.104661 3.136172 1.330035 -0.829567 -4.270110
  8   1.168026 -0.537438 -0.063437 -1.207157 -0.190021 -0.651392
  9   6.790376 -0.619176 0.015206 -0.000158 -0.000151 -0.415223
 10   8.637599 0.544015 -0.090417 -0.154029 -0.203770 0.119392
 11   6.790465 -0.619039 0.017802 -0.001918 -0.011054 -0.305936
 12   -2.022474 -0.104699 -2.873818 0.288334 1.354486 -2.738650
 13   1.167898 -0.537463 0.063297 0.509297 -1.255340 -0.932932
 14   7.002743 -0.617765 -0.183752 0.000286 0.000250 -1.630803
 15   8.209042 0.615527 -0.255885 1.570090 -0.000063 -0.069706
 16   7.002735 -0.617911 -0.183641 0.013496 0.009059 -1.160198
 17   1.574674 0.609930 -0.000899 0.304173 0.020433 0.111614
 18   -0.602177 0.511412 -0.000006 0.000000 0.000000 0.000000
 19   3.673773 0.177020 1.119313 -0.000002 -0.000014 -0.174510
 20   3.673767 0.176993 -1.117566 0.000007 -0.000003 -0.174546
 21   3.942357 1.334540 1.627658 0.000002 -0.000011 -0.000026
 22   -0.246060 -0.011889 0.516521 -0.000011 0.000031 0.000025
 23   3.942374 1.334565 -1.631083 0.000019 0.000002 -0.000024
 24   -0.246150 -0.011872 -0.516511 -0.000005 -0.000006 0.000048
 25   4.941364 1.997338 1.629330 0.000018 0.261744 -0.000024
 26   4.941382 1.997366 -1.629410 -0.000001 -0.261756 -0.000024
 27   2.914462 1.619264 1.514501 -0.000019 -0.000022 -0.000050
 28   2.916892 1.618870 -1.501142 -0.000002 -0.000009 -0.000024
 29   8.824059 0.150544 0.091743 0.000006 -0.000231 -0.174534
 30   2.111085 -0.561179 1.784320 -0.000008 -0.000682 0.000024
 31   2.121290 -0.561289 -1.853599 0.000000 0.000000 -0.000002
 32   -0.814395 -0.093824 3.127092 3.071965 -0.114691 1.239365
 33   14.298673 -0.408176 0.471578 0.000248 0.000063 -1.896136
 34   15.835795 0.581398 0.242756 -0.214735 0.106913 -0.097869
 35   -0.815868 -0.091229 -3.114430 0.066464 3.132818 -1.010216
 36   14.294526 -0.410349 -0.467541 0.000021 -0.000012 -2.607695
 37   15.834409 0.579420 -0.284600 -0.006092 -0.035255 0.214508
 38   1.139685 -3.453749 -2.823813 0.000000 0.000000 0.000001
 39   -4.457742 -1.054854 -0.746180 0.000000 0.000000 0.000000
 40   1.118101 -3.449769 3.237290 0.000000 0.000001 0.000000
 41   -4.433840 -1.059130 0.959566 -0.000001 0.000000 0.000000
 42   -0.657468 1.697302 -2.688614 0.000000 0.000002 0.000000
 43   -0.664068 1.698578 2.869377 0.000000 0.000002 0.000000
time 29
  0   -0.967547 0.175787 -20.574476 0.000000 0.000000 -1.572114
  1   -1.093036 0.000002 -0.326057 -1.570808 -1.570425 -0.000219
  2   2.262337 0.113614 0.064702 -0.000052 0.000049 -0.156091
  3   2.380047 0.353302 0.047440 -0.156686 -0.008022 -0.051606
  4   2.033756 0.190472 -0.000128 -0.060907 -0.001881 -0.035003
  5   2.451511 0.204909 -0.003447 -0.087142 -0.000814 -0.010785
  6   7.247600 -0.397300 -0.109469 0.000001 0.000033 -0.122046
  7   -2.022252 -0.104661 3.136172 1.338088 -0.831355 -4.280817
  8   1.168026 -0.537438 -0.063437 -1.210258 -0.177090 -0.649621
  9   6.790376 -0.619176 0.015206 -0.000158 -0.000151 -0.415223
 10   8.637599 0.544015 -0.090417 -0.154029 -0.203770 0.119392
 11   6.790465 -0.619039 0.017802 -0.001918 -0.011054 -0.305936
 12   -2.022474 -0.104699 -2.873818 0.293891 1.358288 -2.733192
 13   1.167898 -0.537463 0.063297 0.504306 -1.263223 -0.927060
 14   7.002743 -0.617765 -0.183752 0.000286 0.000250 -1.630803
 15   8.209042 0.615527 -0.255885 1.570090 -0.000063 -0.069706
 16   7.002735 -0.617911 -0.183641 0.013496 0.009059 -1.160198
 17   1.574674 0.609930 -0.000899 0.304173 0.020433 0.119191
 18   -0.602177 0.511412 -0.000006 0.000000 0.000000 0.000000
 19   3.673773 0.177020 1.119313 -0.000002 -0.000014 -0.174510
 20   3.673767 0.176993 -1.117566 0.000007 -0.000003 -0.174546
 21   3.942357 1.334540 1.627658 0.000002 -0.000011 -0.000026
 22   -0.246060 -0.011889 0.516521 -0.000011 0.000031 0.000025
 23   3.942374 1.334565 -1.631083 0.000019 0.000002 -0.000024
 24   -0.246150 -0.011872 -0.516511 -0.000005 -0.000006 0.000048
 25   4.941364 1.997338 1.629330 0.000018 0.261744 -0.000024
 26   4.941382 1.997366 -1.629410 -0.000001 -0.261756 -0.000024
 27   2.914462 1.619264 1.514501 -0.000019 -0.000022 -0.000050
 28   2.916892 1.618870 -1.501142 -0.000002 -0.000009 -0.000024
 29   8.824059 0.150544 0.091743 0.000006 -0.000231 -0.174534
 30   2.111085 -0.561179 1.784320 -0.000008 -0.000682 0.000024
 31   2.121290 -0.561289 -1.853599 0.000000 0.000000 -0.000002
 32   -0.814395 -0.093824 3.127092 3.071965 -0.114691 1.239365
 33   14.298673 -0.408176 0.471578 0.000248 0.000063 -1.896136
 34   15.835795 0.581398 0.242756 -0.214735 0.106913 -0.097869
 35   -0.815868 -0.091229 -3.114430 0.066464 3.132818 -1.010216
 36   14.294526 -0.410349 -0.467541 0.000021 -0.000012 -2.607695
 37   15.834409 0.579420 -0.284600 -0.006092 -0.035255 0.214508
 38   1.139685 -3.453749 -2.823813 0.000000 0.000000 0.000001
 39   -4.457742 -1.054854 -0.746180 0.000000 0.000000 0.000000
 40   1.118101 -3.449769 3.237290 0.000000 0.000001 0.000000
 41   -4.433840 -1.059130 0.959566 -0.000001 0.000000 0.000000
 42   -0.657468 1.697302 -2.688614 0.000000 0.000002 0.000000
 43   -0.664068 1.698578 2.869377 0.000000 0.000002 0.000000
time 30
  0   -0.967547 0.175787 -20.574476 0.000000 0.000000 -1.572114
  1   -1.093036 0.000002 -0.326057 -1.570808 -1.570425 -0.000219
  2   2.262337 0.113614 0.064702 -0.000052 0.000049 -0.156091
  3   2.380047 0.353302 0.047440 -0.156686 -0.008022 -0.051606
  4   2.033756 0.190472 -0.000128 -0.060907 -0.001881 -0.035003
  5   2.451511 0.204909 -0.003447 -0.087142 -0.001271 -0.017472
  6   7.247600 -0.397300 -0.109469 0.000001 0.000033 -0.122046
  7   -2.022252 -0.104661 3.136172 1.345277 -0.832882 -4.290490
  8   1.168026 -0.537438 -0.063437 -1.213168 -0.165015 -0.647976
  9   6.790376 -0.619176 0.015206 -0.000158 -0.000151 -0.415223
 10   8.637599 0.544015 -0.090417 -0.154029 -0.203770 0.119392
 11   6.790465 -0.619039 0.017802 -0.001918 -0.011054 -0.305936
 12   -2.022474 -0.104699 -2.873818 0.298873 1.361800 -2.728022
 13   1.167898 -0.537463 0.063297 0.499807 -1.270546 -0.921309
 14   7.002743 -0.617765 -0.183752 0.000286 0.000250 -1.630803
 15   8.209042 0.615527 -0.255885 1.570090 -0.000063 -0.069706
 16   7.002735 -0.617911 -0.183641 0.013496 0.009059 -1.160198
 17   1.574674 0.609930 -0.000899 0.304173 0.020433 0.125844
 18   -0.602177 0.511412 -0.000006 0.000000 0.000000 0.000000
 19   3.673773 0.177020 1.119313 -0.000002 -0.000014 -0.174510
 20   3.673767 0.176993 -1.117566 0.000007 -0.000003 -0.174546
 21   3.942357 1.334540 1.627658 0.000002 -0.000011 -0.000026
 22   -0.246060 -0.011889 0.516521 -0.000011 0.000031 0.000025
 23   3.942374 1.334565 -1.631083 0.000019 0.000002 -0.000024
 24   -0.246150 -0.011872 -0.516511 -0.000005 -0.000006 0.000048
 25   4.941364 1.997338 1.629330 0.000018 0.261744 -0.000024
 26   4.941382 1.997366 -1.629410 -0.000001 -0.261756 -0.000024
 27   2.914462 1.619264 1.514501 -0.000019 -0.000022 -0.000050
 28   2.916892 1.618870 -1.501142 -0.000002 -0.000009 -0.000024
 29   8.824059 0.150544 0.091743 0.000006 -0.000231 -0.174534
 30   2.111085 -0.561179 1.784320 -0.000008 -0.000682 0.000024
 31   2.121290 -0.561289 -1.853599 0.000000 0.000000 -0.000002
 32   -0.814395 -0.093824 3.127092 3.071965 -0.114691 1.239365
 33   14.298673 -0.408176 0.471578 0.000248 0.000063 -1.896136
 34   15.835795 0.581398 0.242756 -0.214735 0.106913 -0.097869
 35   -0.815868 -0.091229 -3.114430 0.066464 3.132818 -1.010216
 36   14.294526 -0.410349 -0.467541 0.000021 -0.000012 -2.607695
 37   15.834409 0.579420 -0.284600 -0.006092 -0.035255 0.214508
 38   1.139685 -3.453749 -2.823813 0.000000 0.000000 0.000001
 39   -4.457742 -1.054854 -0.746180 0.000000 0.000000 0.000000
 40   1.118101 -3.449769 3.237290 0.000000 0.000001 0.000000
 41   -4.433840 -1.059130 0.959566 -0.000001 0.000000 0.000000
 42   -0.657468 1.697302 -2.688614 0.000000 0.000002 0.000000
 43   -0.664068 1.698578 2.869377 0.000000 0.000002 0.000000
end
