version 1
nodes
  0 "Bip01" -1
  1 "Bip01 Pelvis" 0
  2 "Bip01 Spine" 1
  3 "Bip01 Spine1" 2
  4 "Bip01 Spine2" 3
  5 "Bip01 Spine3" 4
  6 "Bip01 Neck" 5
  7 "Bip01 L Arm" 6
  8 "Bip01 L Arm1" 7
  9 "Bip01 L Arm2" 8
 10 "Bip01 L Hand" 9
 11 "Bip06 L elbow2-smooth" 8
 12 "Bip01 R Arm" 6
 13 "Bip01 R Arm1" 12
 14 "Bip01 R Arm2" 13
 15 "Bip01 R Hand" 14
 16 "Bip06 R elbow2-smooth" 13
 17 "Bip01 Head" 6
 18 "Bip06 Head_helper" 17
 19 "Bip06 Head_eyes_l" 18
 20 "Bip06 Head_eyes_r" 18
 21 "Bip06 Head_blink_l" 18
 22 "Bip06 Head_blink_smooth_l1" 21
 23 "Bip06 Head_blink_r" 18
 24 "Bip06 Head_blink_smooth_r1" 23
 25 "Bip06 Head_L_eyebrow" 18
 26 "Bip06 Head_R_eyebrow" 18
 27 "Bip06 Head_blink_l_lid" 18
 28 "Bip06 Head_blink_r_lid" 18
 29 "Bip06 bunny" 18
 30 "Bip06 bunnyL" 29
 31 "Bip06 bunnyR" 29
 32 "Bip01 L Leg" 1
 33 "Bip01 L Leg1" 32
 34 "Bip01 L Foot" 33
 35 "Bip01 R Leg" 1
 36 "Bip01 R Leg1" 35
 37 "Bip01 R Foot" 36
 38 "Bip03 HairR1" 17
 39 "Bip03 HairR2" 38
 40 "Bip03 HairL1" 17
 41 "Bip03 HairL2" 40
 42 "Bip03 swingR" 17
 43 "Bip03 swingL" 17
end
skeleton
time 0
  0   -0.967547 0.175787 -20.574476 0.000000 0.000000 -1.572114
  1   -1.093036 0.000002 -0.326057 -1.570756 -1.570425 -0.000219
  2   2.262337 0.113614 0.064702 -0.000052 0.000049 0.192424
  3   2.380047 0.353302 0.047440 0.000000 -0.000040 0.060951
  4   2.033756 0.190472 -0.000128 -0.171747 0.030117 0.171532
  5   2.451511 0.204909 -0.003447 -0.138715 0.014461 0.103433
  6   7.247600 -0.397300 -0.109469 0.000001 0.000033 0.052298
  7   -2.022252 -0.104661 3.136172 0.914683 -1.249868 -4.083968
  8   1.168026 -0.537438 -0.063437 0.145590 0.647964 -0.638740
  9   6.790376 -0.619176 0.015206 -0.000158 -0.000151 -0.901309
 10   8.637599 0.544015 -0.090417 -4.170843 0.082719 -0.332470
 11   6.790465 -0.619039 0.017802 -0.000079 -0.011452 -0.646160
 12   -2.022474 -0.104699 -2.873818 0.839608 1.276092 -2.376940
 13   1.167898 -0.537463 0.063297 -1.142595 -1.002288 0.309908
 14   7.002743 -0.617765 -0.183752 0.000286 0.000250 -1.839294
 15   8.209042 0.615527 -0.255885 1.566351 0.413492 0.064520
 16   7.002735 -0.617911 -0.183641 0.013167 0.010300 -1.306238
 17   1.574674 0.609930 -0.000899 0.249375 -0.190392 0.382982
 18   -0.602177 0.511412 -0.000006 0.000000 0.000000 0.000000
 19   3.673773 0.177020 1.119313 -0.000002 -0.000014 -0.174510
 20   3.673767 0.176993 -1.117566 0.000007 -0.000003 -0.174546
 21   3.942357 1.334540 1.627658 0.000002 -0.000011 -0.000026
 22   -0.246060 -0.011889 0.516521 -0.000011 0.000031 0.000025
 23   3.942374 1.334565 -1.631083 0.000019 0.000002 -0.000024
 24   -0.246150 -0.011872 -0.516511 -0.000005 -0.000006 0.000048
 25   4.941364 1.997338 1.629330 0.000018 0.261744 -0.000024
 26   4.941382 1.997366 -1.629410 -0.000001 -0.261756 -0.000024
 27   2.914462 1.619264 1.514501 -0.000019 -0.000022 -0.000050
 28   2.916892 1.618870 -1.501142 -0.000002 -0.000009 -0.000024
 29   8.824059 0.150544 0.091743 0.000006 -0.000231 -0.174534
 30   2.111085 -0.561179 1.784320 -0.000008 -0.000682 0.000024
 31   2.121290 -0.561289 -1.853599 0.000000 0.000000 -0.000002
 32   -0.814395 -0.093824 3.127092 3.071965 -0.114691 1.239365
 33   14.298673 -0.408176 0.471578 0.000248 0.000063 -1.896136
 34   15.835795 0.581398 0.242756 -0.214735 0.106913 -0.097869
 35   -0.815868 -0.091229 -3.114430 0.066464 3.132818 -1.010216
 36   14.294526 -0.410349 -0.467541 0.000021 -0.000012 -2.607695
 37   15.834409 0.579420 -0.284600 -0.006092 -0.035255 0.214508
 38   1.139685 -3.453749 -2.823813 0.000000 0.000000 0.000001
 39   -4.457742 -1.054854 -0.746180 0.000000 0.000000 0.000000
 40   1.118101 -3.449769 3.237290 0.000000 0.000001 0.000000
 41   -4.433840 -1.059130 0.959566 -0.000001 0.000000 0.000000
 42   -0.657468 1.697302 -2.688614 0.000000 0.000002 0.000000
 43   -0.664068 1.698578 2.869377 0.000000 0.000002 0.000000
time 1
  0   -0.967547 0.175787 -20.574476 0.000000 0.000000 -1.572114
  1   -1.093036 0.000002 -0.326057 -1.570756 -1.570425 -0.000219
  2   2.262337 0.113614 0.064702 -0.000052 0.000049 0.157583
  3   2.380047 0.353302 0.047440 0.000000 -0.000040 0.060951
  4   2.033756 0.190472 -0.000128 -0.243212 0.021249 0.084358
  5   2.451511 0.204909 -0.003447 -0.139297 0.007358 0.051599
  6   7.247600 -0.397300 -0.109469 0.000001 0.000033 0.052298
  7   -2.022252 -0.104661 3.136172 0.914683 -1.249868 -4.083968
  8   1.168026 -0.537438 -0.063437 0.143248 0.854504 -0.670117
  9   6.790376 -0.619176 0.015206 -0.000158 -0.000151 -0.886669
 10   8.637599 0.544015 -0.090417 -4.170843 0.082719 -0.332470
 11   6.790465 -0.619039 0.017802 -0.000108 -0.011452 -0.635894
 12   -2.022474 -0.104699 -2.873818 1.219387 1.038241 -2.026240
 13   1.167898 -0.537463 0.063297 -1.342658 -0.221467 0.211902
 14   7.002743 -0.617765 -0.183752 0.000229 0.000250 -2.348847
 15   8.209042 0.615527 -0.255885 1.991226 0.409331 0.099400
 16   7.002735 -0.617911 -0.183641 0.012131 0.013514 -1.662838
 17   1.574674 0.609930 -0.000899 0.288331 -0.255997 0.544650
 18   -0.602177 0.511412 -0.000006 0.000000 0.000000 0.000000
 19   3.673773 0.177020 1.119313 -0.000002 -0.000014 -0.174510
 20   3.673767 0.176993 -1.117566 0.000007 -0.000003 -0.174546
 21   3.942357 1.334540 1.627658 0.000002 -0.000011 -0.000026
 22   -0.246060 -0.011889 0.516521 -0.000011 0.000031 0.000025
 23   3.942374 1.334565 -1.631083 0.000019 0.000002 -0.000024
 24   -0.246150 -0.011872 -0.516511 -0.000005 -0.000006 0.000048
 25   4.941364 1.997338 1.629330 0.000018 0.261744 -0.000024
 26   4.941382 1.997366 -1.629410 -0.000001 -0.261756 -0.000024
 27   2.914462 1.619264 1.514501 -0.000019 -0.000022 -0.000050
 28   2.916892 1.618870 -1.501142 -0.000002 -0.000009 -0.000024
 29   8.824059 0.150544 0.091743 0.000006 -0.000231 -0.174534
 30   2.111085 -0.561179 1.784320 -0.000008 -0.000682 0.000024
 31   2.121290 -0.561289 -1.853599 0.000000 0.000000 -0.000002
 32   -0.814395 -0.093824 3.127092 3.071965 -0.114691 1.239365
 33   14.298673 -0.408176 0.471578 0.000248 0.000063 -1.896136
 34   15.835795 0.581398 0.242756 -0.214735 0.106913 -0.097869
 35   -0.815868 -0.091229 -3.114430 0.066464 3.132818 -1.010216
 36   14.294526 -0.410349 -0.467541 0.000021 -0.000012 -2.607695
 37   15.834409 0.579420 -0.284600 -0.006092 -0.035255 0.214508
 38   1.139685 -3.453749 -2.823813 0.000000 0.000000 0.000001
 39   -4.457742 -1.054854 -0.746180 0.000000 0.000000 0.000000
 40   1.118101 -3.449769 3.237290 0.000000 0.000001 0.000000
 41   -4.433840 -1.059130 0.959566 -0.000001 0.000000 0.000000
 42   -0.657468 1.697302 -2.688614 0.000000 0.000002 0.000000
 43   -0.664068 1.698578 2.869377 0.000000 0.000002 0.000000
time 2
  0   -0.967547 0.175787 -20.574476 0.000000 0.000000 -1.572114
  1   -1.093036 0.000002 -0.326057 -1.570756 -1.570425 -0.000219
  2   2.262337 0.113614 0.064702 -0.000052 0.000049 0.150120
  3   2.380047 0.353302 0.047440 0.000000 -0.000040 0.060951
  4   2.033756 0.190472 -0.000128 -0.171286 0.015952 0.095848
  5   2.451511 0.204909 -0.003447 -0.088426 0.005883 0.075473
  6   7.247600 -0.397300 -0.109469 0.000001 0.000033 0.052298
  7   -2.022252 -0.104661 3.136172 0.914683 -1.249868 -4.083968
  8   1.168026 -0.537438 -0.063437 0.050859 0.715033 -0.780443
  9   6.790376 -0.619176 0.015206 -0.000158 -0.000151 -1.303626
 10   8.637599 0.544015 -0.090417 -4.170843 0.082719 -0.332470
 11   6.790465 -0.619039 0.017802 0.001556 -0.011708 -0.927729
 12   -2.022474 -0.104699 -2.873818 1.179915 1.081573 -2.060324
 13   1.167898 -0.537463 0.063297 -1.194193 -0.548564 0.250039
 14   7.002743 -0.617765 -0.183752 0.000229 0.000250 -2.238538
 15   8.209042 0.615527 -0.255885 1.822254 0.470842 -0.186493
 16   7.002735 -0.617911 -0.183641 0.012413 0.012781 -1.585624
 17   1.574674 0.609930 -0.000899 0.193277 -0.175340 0.539143
 18   -0.602177 0.511412 -0.000006 0.000000 0.000000 0.000000
 19   3.673773 0.177020 1.119313 -0.000002 -0.000014 -0.174510
 20   3.673767 0.176993 -1.117566 0.000007 -0.000003 -0.174546
 21   3.942357 1.334540 1.627658 0.000002 -0.000011 -0.000026
 22   -0.246060 -0.011889 0.516521 -0.000011 0.000031 0.000025
 23   3.942374 1.334565 -1.631083 0.000019 0.000002 -0.000024
 24   -0.246150 -0.011872 -0.516511 -0.000005 -0.000006 0.000048
 25   4.941364 1.997338 1.629330 0.000018 0.261744 -0.000024
 26   4.941382 1.997366 -1.629410 -0.000001 -0.261756 -0.000024
 27   2.914462 1.619264 1.514501 -0.000019 -0.000022 -0.000050
 28   2.916892 1.618870 -1.501142 -0.000002 -0.000009 -0.000024
 29   8.824059 0.150544 0.091743 0.000006 -0.000231 -0.174534
 30   2.111085 -0.561179 1.784320 -0.000008 -0.000682 0.000024
 31   2.121290 -0.561289 -1.853599 0.000000 0.000000 -0.000002
 32   -0.814395 -0.093824 3.127092 3.071965 -0.114691 1.239365
 33   14.298673 -0.408176 0.471578 0.000248 0.000063 -1.896136
 34   15.835795 0.581398 0.242756 -0.214735 0.106913 -0.097869
 35   -0.815868 -0.091229 -3.114430 0.066464 3.132818 -1.010216
 36   14.294526 -0.410349 -0.467541 0.000021 -0.000012 -2.607695
 37   15.834409 0.579420 -0.284600 -0.006092 -0.035255 0.214508
 38   1.139685 -3.453749 -2.823813 0.000000 0.000000 0.000001
 39   -4.457742 -1.054854 -0.746180 0.000000 0.000000 0.000000
 40   1.118101 -3.449769 3.237290 0.000000 0.000001 0.000000
 41   -4.433840 -1.059130 0.959566 -0.000001 0.000000 0.000000
 42   -0.657468 1.697302 -2.688614 0.000000 0.000002 0.000000
 43   -0.664068 1.698578 2.869377 0.000000 0.000002 0.000000
time 3
  0   -0.967547 0.175787 -20.574476 0.000000 0.000000 -1.572114
  1   -1.093036 0.000002 -0.326057 -1.570756 -1.570425 -0.000219
  2   2.262337 0.113614 0.064702 -0.000052 0.000049 0.152849
  3   2.380047 0.353302 0.047440 0.000000 -0.000040 0.060951
  4   2.033756 0.190472 -0.000128 -0.103731 0.012955 0.123903
  5   2.451511 0.204909 -0.003447 -0.052001 0.005478 0.104275
  6   7.247600 -0.397300 -0.109469 0.000001 0.000033 0.052298
  7   -2.022252 -0.104661 3.136172 0.914683 -1.249868 -4.083968
  8   1.168026 -0.537438 -0.063437 -0.116771 0.516341 -0.906964
  9   6.790376 -0.619176 0.015206 -0.000158 -0.000151 -1.195783
 10   8.637599 0.544015 -0.090417 -4.170843 0.082719 -0.332470
 11   6.790465 -0.619039 0.017802 0.001118 -0.011623 -0.852290
 12   -2.022474 -0.104699 -2.873818 1.075198 1.168065 -2.155299
 13   1.167898 -0.537463 0.063297 -0.920881 -0.937499 0.166138
 14   7.002743 -0.617765 -0.183752 0.000286 0.000250 -2.043247
 15   8.209042 0.615527 -0.255885 1.594250 0.466680 -0.408099
 16   7.002735 -0.617911 -0.183641 0.012790 0.011484 -1.448966
 17   1.574674 0.609930 -0.000899 0.115974 -0.105215 0.491722
 18   -0.602177 0.511412 -0.000006 0.000000 0.000000 0.000000
 19   3.673773 0.177020 1.119313 -0.000002 -0.000014 -0.174510
 20   3.673767 0.176993 -1.117566 0.000007 -0.000003 -0.174546
 21   3.942357 1.334540 1.627658 0.000002 -0.000011 -0.000026
 22   -0.246060 -0.011889 0.516521 -0.000011 0.000031 0.000025
 23   3.942374 1.334565 -1.631083 0.000019 0.000002 -0.000024
 24   -0.246150 -0.011872 -0.516511 -0.000005 -0.000006 0.000048
 25   4.941364 1.997338 1.629330 0.000018 0.261744 -0.000024
 26   4.941382 1.997366 -1.629410 -0.000001 -0.261756 -0.000024
 27   2.914462 1.619264 1.514501 -0.000019 -0.000022 -0.000050
 28   2.916892 1.618870 -1.501142 -0.000002 -0.000009 -0.000024
 29   8.824059 0.150544 0.091743 0.000006 -0.000231 -0.174534
 30   2.111085 -0.561179 1.784320 -0.000008 -0.000682 0.000024
 31   2.121290 -0.561289 -1.853599 0.000000 0.000000 -0.000002
 32   -0.814395 -0.093824 3.127092 3.071965 -0.114691 1.239365
 33   14.298673 -0.408176 0.471578 0.000248 0.000063 -1.896136
 34   15.835795 0.581398 0.242756 -0.214735 0.106913 -0.097869
 35   -0.815868 -0.091229 -3.114430 0.066464 3.132818 -1.010216
 36   14.294526 -0.410349 -0.467541 0.000021 -0.000012 -2.607695
 37   15.834409 0.579420 -0.284600 -0.006092 -0.035255 0.214508
 38   1.139685 -3.453749 -2.823813 0.000000 0.000000 0.000001
 39   -4.457742 -1.054854 -0.746180 0.000000 0.000000 0.000000
 40   1.118101 -3.449769 3.237290 0.000000 0.000001 0.000000
 41   -4.433840 -1.059130 0.959566 -0.000001 0.000000 0.000000
 42   -0.657468 1.697302 -2.688614 0.000000 0.000002 0.000000
 43   -0.664068 1.698578 2.869377 0.000000 0.000002 0.000000
time 4
  0   -0.967547 0.175787 -20.574476 0.000000 0.000000 -1.572114
  1   -1.093036 0.000002 -0.326057 -1.570756 -1.570425 -0.000219
  2   2.262337 0.113614 0.064702 -0.000052 0.000049 0.163294
  3   2.380047 0.353302 0.047440 0.000000 -0.000040 0.060951
  4   2.033756 0.190472 -0.000128 -0.110038 0.016431 0.140504
  5   2.451511 0.204909 -0.003447 -0.067954 0.007515 0.108832
  6   7.247600 -0.397300 -0.109469 0.000001 0.000033 0.052298
  7   -2.022252 -0.104661 3.136172 0.914683 -1.249868 -4.083968
  8   1.168026 -0.537438 -0.063437 -0.057730 0.538127 -0.855027
  9   6.790376 -0.619176 0.015206 -0.000158 -0.000151 -1.096619
 10   8.637599 0.544015 -0.090417 -4.170843 0.082719 -0.332470
 11   6.790465 -0.619039 0.017802 0.000680 -0.011566 -0.782850
 12   -2.022474 -0.104699 -2.873818 0.989642 1.217086 -2.234668
 13   1.167898 -0.537463 0.063297 -0.919897 -1.018561 0.179758
 14   7.002743 -0.617765 -0.183752 0.000286 0.000250 -1.946881
 15   8.209042 0.615527 -0.255885 1.551611 0.445042 -0.291793
 16   7.002735 -0.617911 -0.183641 0.012978 0.010920 -1.381521
 17   1.574674 0.609930 -0.000899 0.135066 -0.117924 0.457754
 18   -0.602177 0.511412 -0.000006 0.000000 0.000000 0.000000
 19   3.673773 0.177020 1.119313 -0.000002 -0.000014 -0.174510
 20   3.673767 0.176993 -1.117566 0.000007 -0.000003 -0.174546
 21   3.942357 1.334540 1.627658 0.000002 -0.000011 -0.000026
 22   -0.246060 -0.011889 0.516521 -0.000011 0.000031 0.000025
 23   3.942374 1.334565 -1.631083 0.000019 0.000002 -0.000024
 24   -0.246150 -0.011872 -0.516511 -0.000005 -0.000006 0.000048
 25   4.941364 1.997338 1.629330 0.000018 0.261744 -0.000024
 26   4.941382 1.997366 -1.629410 -0.000001 -0.261756 -0.000024
 27   2.914462 1.619264 1.514501 -0.000019 -0.000022 -0.000050
 28   2.916892 1.618870 -1.501142 -0.000002 -0.000009 -0.000024
 29   8.824059 0.150544 0.091743 0.000006 -0.000231 -0.174534
 30   2.111085 -0.561179 1.784320 -0.000008 -0.000682 0.000024
 31   2.121290 -0.561289 -1.853599 0.000000 0.000000 -0.000002
 32   -0.814395 -0.093824 3.127092 3.071965 -0.114691 1.239365
 33   14.298673 -0.408176 0.471578 0.000248 0.000063 -1.896136
 34   15.835795 0.581398 0.242756 -0.214735 0.106913 -0.097869
 35   -0.815868 -0.091229 -3.114430 0.066464 3.132818 -1.010216
 36   14.294526 -0.410349 -0.467541 0.000021 -0.000012 -2.607695
 37   15.834409 0.579420 -0.284600 -0.006092 -0.035255 0.214508
 38   1.139685 -3.453749 -2.823813 0.000000 0.000000 0.000001
 39   -4.457742 -1.054854 -0.746180 0.000000 0.000000 0.000000
 40   1.118101 -3.449769 3.237290 0.000000 0.000001 0.000000
 41   -4.433840 -1.059130 0.959566 -0.000001 0.000000 0.000000
 42   -0.657468 1.697302 -2.688614 0.000000 0.000002 0.000000
 43   -0.664068 1.698578 2.869377 0.000000 0.000002 0.000000
time 5
  0   -0.967547 0.175787 -20.574476 0.000000 0.000000 -1.572114
  1   -1.093036 0.000002 -0.326057 -1.570756 -1.570425 -0.000219
  2   2.262337 0.113614 0.064702 -0.000052 0.000049 0.177841
  3   2.380047 0.353302 0.047440 0.000000 -0.000040 0.060951
  4   2.033756 0.190472 -0.000128 -0.140911 0.022987 0.156236
  5   2.451511 0.204909 -0.003447 -0.103352 0.011184 0.106182
  6   7.247600 -0.397300 -0.109469 0.000001 0.000033 0.052298
  7   -2.022252 -0.104661 3.136172 0.914683 -1.249868 -4.083968
  8   1.168026 -0.537438 -0.063437 0.040924 0.594832 -0.751976
  9   6.790376 -0.619176 0.015206 -0.000158 -0.000151 -0.998889
 10   8.637599 0.544015 -0.090417 -4.170843 0.082719 -0.332470
 11   6.790465 -0.619039 0.017802 0.000330 -0.011538 -0.714447
 12   -2.022474 -0.104699 -2.873818 0.894122 1.257691 -2.325048
 13   1.167898 -0.537463 0.063297 -1.065550 -1.017341 0.286844
 14   7.002743 -0.617765 -0.183752 0.000286 0.000250 -1.872791
 15   8.209042 0.615527 -0.255885 1.557004 0.424689 -0.066278
 16   7.002735 -0.617911 -0.183641 0.013120 0.010469 -1.329695
 17   1.574674 0.609930 -0.000899 0.190921 -0.155838 0.421459
 18   -0.602177 0.511412 -0.000006 0.000000 0.000000 0.000000
 19   3.673773 0.177020 1.119313 -0.000002 -0.000014 -0.174510
 20   3.673767 0.176993 -1.117566 0.000007 -0.000003 -0.174546
 21   3.942357 1.334540 1.627658 0.000002 -0.000011 -0.000026
 22   -0.246060 -0.011889 0.516521 -0.000011 0.000031 0.000025
 23   3.942374 1.334565 -1.631083 0.000019 0.000002 -0.000024
 24   -0.246150 -0.011872 -0.516511 -0.000005 -0.000006 0.000048
 25   4.941364 1.997338 1.629330 0.000018 0.261744 -0.000024
 26   4.941382 1.997366 -1.629410 -0.000001 -0.261756 -0.000024
 27   2.914462 1.619264 1.514501 -0.000019 -0.000022 -0.000050
 28   2.916892 1.618870 -1.501142 -0.000002 -0.000009 -0.000024
 29   8.824059 0.150544 0.091743 0.000006 -0.000231 -0.174534
 30   2.111085 -0.561179 1.784320 -0.000008 -0.000682 0.000024
 31   2.121290 -0.561289 -1.853599 0.000000 0.000000 -0.000002
 32   -0.814395 -0.093824 3.127092 3.071965 -0.114691 1.239365
 33   14.298673 -0.408176 0.471578 0.000248 0.000063 -1.896136
 34   15.835795 0.581398 0.242756 -0.214735 0.106913 -0.097869
 35   -0.815868 -0.091229 -3.114430 0.066464 3.132818 -1.010216
 36   14.294526 -0.410349 -0.467541 0.000021 -0.000012 -2.607695
 37   15.834409 0.579420 -0.284600 -0.006092 -0.035255 0.214508
 38   1.139685 -3.453749 -2.823813 0.000000 0.000000 0.000001
 39   -4.457742 -1.054854 -0.746180 0.000000 0.000000 0.000000
 40   1.118101 -3.449769 3.237290 0.000000 0.000001 0.000000
 41   -4.433840 -1.059130 0.959566 -0.000001 0.000000 0.000000
 42   -0.657468 1.697302 -2.688614 0.000000 0.000002 0.000000
 43   -0.664068 1.698578 2.869377 0.000000 0.000002 0.000000
time 6
  0   -0.967547 0.175787 -20.574476 0.000000 0.000000 -1.572114
  1   -1.093036 0.000002 -0.326057 -1.570756 -1.570425 -0.000219
  2   2.262337 0.113614 0.064702 -0.000052 0.000049 0.192424
  3   2.380047 0.353302 0.047440 0.000000 -0.000040 0.060951
  4   2.033756 0.190472 -0.000128 -0.171747 0.030117 0.171532
  5   2.451511 0.204909 -0.003447 -0.138715 0.014461 0.103433
  6   7.247600 -0.397300 -0.109469 0.000001 0.000033 0.052298
  7   -2.022252 -0.104661 3.136172 0.914683 -1.249868 -4.083968
  8   1.168026 -0.537438 -0.063437 0.145590 0.647964 -0.638740
  9   6.790376 -0.619176 0.015206 -0.000158 -0.000151 -0.901309
 10   8.637599 0.544015 -0.090417 -4.170843 0.082719 -0.332470
 11   6.790465 -0.619039 0.017802 -0.000079 -0.011452 -0.646160
 12   -2.022474 -0.104699 -2.873818 0.839608 1.276092 -2.376940
 13   1.167898 -0.537463 0.063297 -1.142595 -1.002288 0.309908
 14   7.002743 -0.617765 -0.183752 0.000286 0.000250 -1.839294
 15   8.209042 0.615527 -0.255885 1.566351 0.413492 0.064520
 16   7.002735 -0.617911 -0.183641 0.013167 0.010300 -1.306238
 17   1.574674 0.609930 -0.000899 0.249375 -0.190392 0.382982
 18   -0.602177 0.511412 -0.000006 0.000000 0.000000 0.000000
 19   3.673773 0.177020 1.119313 -0.000002 -0.000014 -0.174510
 20   3.673767 0.176993 -1.117566 0.000007 -0.000003 -0.174546
 21   3.942357 1.334540 1.627658 0.000002 -0.000011 -0.000026
 22   -0.246060 -0.011889 0.516521 -0.000011 0.000031 0.000025
 23   3.942374 1.334565 -1.631083 0.000019 0.000002 -0.000024
 24   -0.246150 -0.011872 -0.516511 -0.000005 -0.000006 0.000048
 25   4.941364 1.997338 1.629330 0.000018 0.261744 -0.000024
 26   4.941382 1.997366 -1.629410 -0.000001 -0.261756 -0.000024
 27   2.914462 1.619264 1.514501 -0.000019 -0.000022 -0.000050
 28   2.916892 1.618870 -1.501142 -0.000002 -0.000009 -0.000024
 29   8.824059 0.150544 0.091743 0.000006 -0.000231 -0.174534
 30   2.111085 -0.561179 1.784320 -0.000008 -0.000682 0.000024
 31   2.121290 -0.561289 -1.853599 0.000000 0.000000 -0.000002
 32   -0.814395 -0.093824 3.127092 3.071965 -0.114691 1.239365
 33   14.298673 -0.408176 0.471578 0.000248 0.000063 -1.896136
 34   15.835795 0.581398 0.242756 -0.214735 0.106913 -0.097869
 35   -0.815868 -0.091229 -3.114430 0.066464 3.132818 -1.010216
 36   14.294526 -0.410349 -0.467541 0.000021 -0.000012 -2.607695
 37   15.834409 0.579420 -0.284600 -0.006092 -0.035255 0.214508
 38   1.139685 -3.453749 -2.823813 0.000000 0.000000 0.000001
 39   -4.457742 -1.054854 -0.746180 0.000000 0.000000 0.000000
 40   1.118101 -3.449769 3.237290 0.000000 0.000001 0.000000
 41   -4.433840 -1.059130 0.959566 -0.000001 0.000000 0.000000
 42   -0.657468 1.697302 -2.688614 0.000000 0.000002 0.000000
 43   -0.664068 1.698578 2.869377 0.000000 0.000002 0.000000
end
