version 1
nodes
  0 "Bip01" -1
  1 "Bip01 Pelvis" 0
  2 "Bip01 Spine" 1
  3 "Bip01 Spine1" 2
  4 "Bip01 Spine2" 3
  5 "Bip01 Spine3" 4
  6 "Bip01 Neck" 5
  7 "Bip01 L Arm" 6
  8 "Bip01 L Arm1" 7
  9 "Bip01 L Arm2" 8
 10 "Bip01 L Hand" 9
 11 "Bip06 L elbow2-smooth" 8
 12 "Bip01 R Arm" 6
 13 "Bip01 R Arm1" 12
 14 "Bip01 R Arm2" 13
 15 "Bip01 R Hand" 14
 16 "Bip06 R elbow2-smooth" 13
 17 "Bip01 Head" 6
 18 "Bip06 Head_helper" 17
 19 "Bip06 Head_eyes_l" 18
 20 "Bip06 Head_eyes_r" 18
 21 "Bip06 Head_blink_l" 18
 22 "Bip06 Head_blink_smooth_l1" 21
 23 "Bip06 Head_blink_r" 18
 24 "Bip06 Head_blink_smooth_r1" 23
 25 "Bip06 Head_L_eyebrow" 18
 26 "Bip06 Head_R_eyebrow" 18
 27 "Bip06 Head_blink_l_lid" 18
 28 "Bip06 Head_blink_r_lid" 18
 29 "Bip06 bunny" 18
 30 "Bip06 bunnyL" 29
 31 "Bip06 bunnyR" 29
 32 "Bip01 L Leg" 1
 33 "Bip01 L Leg1" 32
 34 "Bip01 L Foot" 33
 35 "Bip01 R Leg" 1
 36 "Bip01 R Leg1" 35
 37 "Bip01 R Foot" 36
 38 "Bip03 HairR1" 17
 39 "Bip03 HairR2" 38
 40 "Bip03 HairL1" 17
 41 "Bip03 HairL2" 40
 42 "Bip03 swingR" 17
 43 "Bip03 swingL" 17
end
skeleton
time 0
  0   -0.967547 0.175787 -20.574476 0.000000 0.000000 -1.572114
  1   -1.093036 0.000002 -0.326057 -1.570756 -1.570425 -0.000219
  2   2.262337 0.113614 0.064702 0.069482 0.005957 -0.086156
  3   2.380047 0.353302 0.047440 0.331522 -0.002785 0.008366
  4   2.033756 0.190472 -0.000128 0.415206 0.056543 -0.127687
  5   2.451511 0.204909 -0.003447 -0.104670 -0.001781 -0.017472
  6   7.247600 -0.397300 -0.109469 0.000001 0.000033 0.418441
  7   -2.022252 -0.104661 3.136172 -0.298783 -1.361862 -2.901749
  8   1.168026 -0.537438 -0.063437 -0.359135 1.171635 -0.328005
  9   6.790376 -0.619176 0.015206 0.000674 -0.226801 -0.418317
 10   8.637599 0.544015 -0.090417 -1.015216 0.064206 -0.818986
 11   6.790465 -0.619039 0.017802 -0.010298 -0.169923 -0.306571
 12   -2.022474 -0.104699 -2.873818 0.298873 1.361800 -2.901888
 13   1.167898 -0.537463 0.063297 1.217321 -0.194463 -0.988623
 14   7.002743 -0.617765 -0.183752 0.047085 0.002238 -0.377133
 15   8.209042 0.615527 -0.255885 1.570090 -0.000063 -0.121965
 16   7.002735 -0.617911 -0.183641 0.047532 0.002236 -0.282577
 17   1.574674 0.609930 -0.000899 -0.761610 0.006658 -0.194053
 18   -0.602177 0.511412 -0.000006 0.000000 0.000000 0.000000
 19   3.673773 0.177020 1.119313 -0.000002 -0.000014 -0.174510
 20   3.673767 0.176993 -1.117566 0.000007 -0.000003 -0.174546
 21   3.942357 1.334540 1.627658 0.000002 -0.000011 -0.000026
 22   -0.246060 -0.011889 0.516521 -0.000011 0.000031 0.000025
 23   3.942374 1.334565 -1.631083 0.000019 0.000002 -0.000024
 24   -0.246150 -0.011872 -0.516511 -0.000005 -0.000006 0.000048
 25   4.941364 1.997338 1.629330 0.000018 0.261744 -0.000024
 26   4.941382 1.997366 -1.629410 -0.000001 -0.261756 -0.000024
 27   2.914462 1.619264 1.514501 -0.000019 -0.000022 -0.000050
 28   2.916892 1.618870 -1.501142 -0.000002 -0.000009 -0.000024
 29   8.824059 0.150544 0.091743 0.000006 -0.000231 -0.174534
 30   2.111085 -0.561179 1.784320 -0.000008 -0.000682 0.000024
 31   2.121290 -0.561289 -1.853599 0.000000 0.000000 -0.000002
 32   -0.814395 -0.093824 3.127092 3.071965 -0.114691 1.239365
 33   14.298673 -0.408176 0.471578 0.000248 0.000063 -1.896136
 34   15.835795 0.581398 0.242756 -0.214735 0.106913 -0.097869
 35   -0.815868 -0.091229 -3.114430 0.066464 3.132818 -1.010216
 36   14.294526 -0.410349 -0.467541 0.000021 -0.000012 -2.607695
 37   15.834409 0.579420 -0.284600 -0.006092 -0.035255 0.214508
 38   1.139685 -3.453749 -2.823813 0.000000 0.000000 0.000001
 39   -4.457742 -1.054854 -0.746180 0.000000 0.000000 0.000000
 40   1.118101 -3.449769 3.237290 0.000000 0.000001 0.000000
 41   -4.433840 -1.059130 0.959566 -0.000001 0.000000 0.000000
 42   -0.657468 1.697302 -2.688614 0.000000 0.000002 0.000000
 43   -0.664068 1.698578 2.869377 0.000000 0.000002 0.000000
time 1
  0   -0.967547 0.175787 -20.574476 0.000000 0.000000 -1.572114
  1   -1.093036 0.000002 -0.326057 -1.570756 -1.570425 -0.000219
  2   2.262337 0.113614 0.064702 0.069482 0.005957 -0.087439
  3   2.380047 0.353302 0.047440 0.331522 -0.002785 0.007060
  4   2.033756 0.190472 -0.000128 0.415206 0.056543 -0.128919
  5   2.451511 0.204909 -0.003447 -0.104670 -0.001781 -0.018438
  6   7.247600 -0.397300 -0.109469 0.000001 0.000033 0.418441
  7   -2.022252 -0.104661 3.136172 -0.298783 -1.361862 -2.901749
  8   1.168026 -0.537438 -0.063437 -0.371159 1.170226 -0.339392
  9   6.790376 -0.619176 0.015206 0.000674 -0.226801 -0.418317
 10   8.637599 0.544015 -0.090417 -1.015216 0.064206 -0.818986
 11   6.790465 -0.619039 0.017802 -0.010298 -0.169923 -0.306571
 12   -2.022474 -0.104699 -2.873818 0.298873 1.361800 -2.901888
 13   1.167898 -0.537463 0.063297 1.214439 -0.198684 -0.988200
 14   7.002743 -0.617765 -0.183752 0.047085 0.002238 -0.377133
 15   8.209042 0.615527 -0.255885 1.570090 -0.000063 -0.121965
 16   7.002735 -0.617911 -0.183641 0.047532 0.002236 -0.282577
 17   1.574674 0.609930 -0.000899 -0.761610 0.006658 -0.188990
 18   -0.602177 0.511412 -0.000006 0.000000 0.000000 0.000000
 19   3.673773 0.177020 1.119313 -0.000002 -0.000014 -0.174510
 20   3.673767 0.176993 -1.117566 0.000007 -0.000003 -0.174546
 21   3.942357 1.334540 1.627658 0.000002 -0.000011 -0.000026
 22   -0.246060 -0.011889 0.516521 -0.000011 0.000031 0.000025
 23   3.942374 1.334565 -1.631083 0.000019 0.000002 -0.000024
 24   -0.246150 -0.011872 -0.516511 -0.000005 -0.000006 0.000048
 25   4.941364 1.997338 1.629330 0.000018 0.261744 -0.000024
 26   4.941382 1.997366 -1.629410 -0.000001 -0.261756 -0.000024
 27   2.914462 1.619264 1.514501 -0.000019 -0.000022 -0.000050
 28   2.916892 1.618870 -1.501142 -0.000002 -0.000009 -0.000024
 29   8.824059 0.150544 0.091743 0.000006 -0.000231 -0.174534
 30   2.111085 -0.561179 1.784320 -0.000008 -0.000682 0.000024
 31   2.121290 -0.561289 -1.853599 0.000000 0.000000 -0.000002
 32   -0.814395 -0.093824 3.127092 3.071965 -0.114691 1.239365
 33   14.298673 -0.408176 0.471578 0.000248 0.000063 -1.896136
 34   15.835795 0.581398 0.242756 -0.214735 0.106913 -0.097869
 35   -0.815868 -0.091229 -3.114430 0.066464 3.132818 -1.010216
 36   14.294526 -0.410349 -0.467541 0.000021 -0.000012 -2.607695
 37   15.834409 0.579420 -0.284600 -0.006092 -0.035255 0.214508
 38   1.139685 -3.453749 -2.823813 0.000000 0.000000 0.000001
 39   -4.457742 -1.054854 -0.746180 0.000000 0.000000 0.000000
 40   1.118101 -3.449769 3.237290 0.000000 0.000001 0.000000
 41   -4.433840 -1.059130 0.959566 -0.000001 0.000000 0.000000
 42   -0.657468 1.697302 -2.688614 0.000000 0.000002 0.000000
 43   -0.664068 1.698578 2.869377 0.000000 0.000002 0.000000
time 2
  0   -0.967547 0.175787 -20.574476 0.000000 0.000000 -1.572114
  1   -1.093036 0.000002 -0.326057 -1.570756 -1.570425 -0.000219
  2   2.262337 0.113614 0.064702 0.069482 0.005957 -0.088704
  3   2.380047 0.353302 0.047440 0.331522 -0.002785 0.005856
  4   2.033756 0.190472 -0.000128 0.415206 0.056543 -0.130188
  5   2.451511 0.204909 -0.003447 -0.104670 -0.001781 -0.019701
  6   7.247600 -0.397300 -0.109469 0.000001 0.000033 0.418441
  7   -2.022252 -0.104661 3.136172 -0.298783 -1.361862 -2.901749
  8   1.168026 -0.537438 -0.063437 -0.383119 1.168465 -0.350336
  9   6.790376 -0.619176 0.015206 0.000674 -0.226801 -0.418317
 10   8.637599 0.544015 -0.090417 -1.015216 0.064206 -0.818986
 11   6.790465 -0.619039 0.017802 -0.010298 -0.169923 -0.306571
 12   -2.022474 -0.104699 -2.873818 0.298873 1.361800 -2.901888
 13   1.167898 -0.537463 0.063297 1.211627 -0.202804 -0.987534
 14   7.002743 -0.617765 -0.183752 0.047085 0.002238 -0.377133
 15   8.209042 0.615527 -0.255885 1.570090 -0.000063 -0.121965
 16   7.002735 -0.617911 -0.183641 0.047532 0.002236 -0.282577
 17   1.574674 0.609930 -0.000899 -0.761610 0.006658 -0.183963
 18   -0.602177 0.511412 -0.000006 0.000000 0.000000 0.000000
 19   3.673773 0.177020 1.119313 -0.000002 -0.000014 -0.174510
 20   3.673767 0.176993 -1.117566 0.000007 -0.000003 -0.174546
 21   3.942357 1.334540 1.627658 0.000002 -0.000011 -0.000026
 22   -0.246060 -0.011889 0.516521 -0.000011 0.000031 0.000025
 23   3.942374 1.334565 -1.631083 0.000019 0.000002 -0.000024
 24   -0.246150 -0.011872 -0.516511 -0.000005 -0.000006 0.000048
 25   4.941364 1.997338 1.629330 0.000018 0.261744 -0.000024
 26   4.941382 1.997366 -1.629410 -0.000001 -0.261756 -0.000024
 27   2.914462 1.619264 1.514501 -0.000019 -0.000022 -0.000050
 28   2.916892 1.618870 -1.501142 -0.000002 -0.000009 -0.000024
 29   8.824059 0.150544 0.091743 0.000006 -0.000231 -0.174534
 30   2.111085 -0.561179 1.784320 -0.000008 -0.000682 0.000024
 31   2.121290 -0.561289 -1.853599 0.000000 0.000000 -0.000002
 32   -0.814395 -0.093824 3.127092 3.071965 -0.114691 1.239365
 33   14.298673 -0.408176 0.471578 0.000248 0.000063 -1.896136
 34   15.835795 0.581398 0.242756 -0.214735 0.106913 -0.097869
 35   -0.815868 -0.091229 -3.114430 0.066464 3.132818 -1.010216
 36   14.294526 -0.410349 -0.467541 0.000021 -0.000012 -2.607695
 37   15.834409 0.579420 -0.284600 -0.006092 -0.035255 0.214508
 38   1.139685 -3.453749 -2.823813 0.000000 0.000000 0.000001
 39   -4.457742 -1.054854 -0.746180 0.000000 0.000000 0.000000
 40   1.118101 -3.449769 3.237290 0.000000 0.000001 0.000000
 41   -4.433840 -1.059130 0.959566 -0.000001 0.000000 0.000000
 42   -0.657468 1.697302 -2.688614 0.000000 0.000002 0.000000
 43   -0.664068 1.698578 2.869377 0.000000 0.000002 0.000000
time 3
  0   -0.967547 0.175787 -20.574476 0.000000 0.000000 -1.572114
  1   -1.093036 0.000002 -0.326057 -1.570756 -1.570425 -0.000219
  2   2.262337 0.113614 0.064702 0.069482 0.005957 -0.089951
  3   2.380047 0.353302 0.047440 0.331522 -0.002785 0.004591
  4   2.033756 0.190472 -0.000128 0.415206 0.056543 -0.131493
  5   2.451511 0.204909 -0.003447 -0.104670 -0.001781 -0.020964
  6   7.247600 -0.397300 -0.109469 0.000001 0.000033 0.418441
  7   -2.022252 -0.104661 3.136172 -0.298783 -1.361862 -2.901749
  8   1.168026 -0.537438 -0.063437 -0.395079 1.166855 -0.361280
  9   6.790376 -0.619176 0.015206 0.000674 -0.226801 -0.418317
 10   8.637599 0.544015 -0.090417 -1.015216 0.064206 -0.818986
 11   6.790465 -0.619039 0.017802 -0.010298 -0.169923 -0.306571
 12   -2.022474 -0.104699 -2.873818 0.298873 1.361800 -2.901888
 13   1.167898 -0.537463 0.063297 1.208815 -0.206923 -0.987050
 14   7.002743 -0.617765 -0.183752 0.047085 0.002238 -0.377133
 15   8.209042 0.615527 -0.255885 1.570090 -0.000063 -0.121965
 16   7.002735 -0.617911 -0.183641 0.047579 0.002236 -0.282577
 17   1.574674 0.609930 -0.000899 -0.761610 0.006658 -0.179084
 18   -0.602177 0.511412 -0.000006 0.000000 0.000000 0.000000
 19   3.673773 0.177020 1.119313 -0.000002 -0.000014 -0.174510
 20   3.673767 0.176993 -1.117566 0.000007 -0.000003 -0.174546
 21   3.942357 1.334540 1.627658 0.000002 -0.000011 -0.000026
 22   -0.246060 -0.011889 0.516521 -0.000011 0.000031 0.000025
 23   3.942374 1.334565 -1.631083 0.000019 0.000002 -0.000024
 24   -0.246150 -0.011872 -0.516511 -0.000005 -0.000006 0.000048
 25   4.941364 1.997338 1.629330 0.000018 0.261744 -0.000024
 26   4.941382 1.997366 -1.629410 -0.000001 -0.261756 -0.000024
 27   2.914462 1.619264 1.514501 -0.000019 -0.000022 -0.000050
 28   2.916892 1.618870 -1.501142 -0.000002 -0.000009 -0.000024
 29   8.824059 0.150544 0.091743 0.000006 -0.000231 -0.174534
 30   2.111085 -0.561179 1.784320 -0.000008 -0.000682 0.000024
 31   2.121290 -0.561289 -1.853599 0.000000 0.000000 -0.000002
 32   -0.814395 -0.093824 3.127092 3.071965 -0.114691 1.239365
 33   14.298673 -0.408176 0.471578 0.000248 0.000063 -1.896136
 34   15.835795 0.581398 0.242756 -0.214735 0.106913 -0.097869
 35   -0.815868 -0.091229 -3.114430 0.066464 3.132818 -1.010216
 36   14.294526 -0.410349 -0.467541 0.000021 -0.000012 -2.607695
 37   15.834409 0.579420 -0.284600 -0.006092 -0.035255 0.214508
 38   1.139685 -3.453749 -2.823813 0.000000 0.000000 0.000001
 39   -4.457742 -1.054854 -0.746180 0.000000 0.000000 0.000000
 40   1.118101 -3.449769 3.237290 0.000000 0.000001 0.000000
 41   -4.433840 -1.059130 0.959566 -0.000001 0.000000 0.000000
 42   -0.657468 1.697302 -2.688614 0.000000 0.000002 0.000000
 43   -0.664068 1.698578 2.869377 0.000000 0.000002 0.000000
time 4
  0   -0.967547 0.175787 -20.574476 0.000000 0.000000 -1.572114
  1   -1.093036 0.000002 -0.326057 -1.570756 -1.570425 -0.000219
  2   2.262337 0.113614 0.064702 0.069482 0.005957 -0.091180
  3   2.380047 0.353302 0.047440 0.331522 -0.002785 0.003346
  4   2.033756 0.190472 -0.000128 0.415206 0.056543 -0.132689
  5   2.451511 0.204909 -0.003447 -0.104670 -0.001781 -0.022227
  6   7.247600 -0.397300 -0.109469 0.000001 0.000033 0.418441
  7   -2.022252 -0.104661 3.136172 -0.298783 -1.361862 -2.901749
  8   1.168026 -0.537438 -0.063437 -0.407039 1.164792 -0.372224
  9   6.790376 -0.619176 0.015206 0.000674 -0.226801 -0.418317
 10   8.637599 0.544015 -0.090417 -1.015216 0.064206 -0.818986
 11   6.790465 -0.619039 0.017802 -0.010298 -0.169923 -0.306571
 12   -2.022474 -0.104699 -2.873818 0.298873 1.361800 -2.901888
 13   1.167898 -0.537463 0.063297 1.206003 -0.211144 -0.986384
 14   7.002743 -0.617765 -0.183752 0.047085 0.002238 -0.377133
 15   8.209042 0.615527 -0.255885 1.570090 -0.000063 -0.121965
 16   7.002735 -0.617911 -0.183641 0.047532 0.002236 -0.282577
 17   1.574674 0.609930 -0.000899 -0.761610 0.006658 -0.174057
 18   -0.602177 0.511412 -0.000006 0.000000 0.000000 0.000000
 19   3.673773 0.177020 1.119313 -0.000002 -0.000014 -0.174510
 20   3.673767 0.176993 -1.117566 0.000007 -0.000003 -0.174546
 21   3.942357 1.334540 1.627658 0.000002 -0.000011 -0.000026
 22   -0.246060 -0.011889 0.516521 -0.000011 0.000031 0.000025
 23   3.942374 1.334565 -1.631083 0.000019 0.000002 -0.000024
 24   -0.246150 -0.011872 -0.516511 -0.000005 -0.000006 0.000048
 25   4.941364 1.997338 1.629330 0.000018 0.261744 -0.000024
 26   4.941382 1.997366 -1.629410 -0.000001 -0.261756 -0.000024
 27   2.914462 1.619264 1.514501 -0.000019 -0.000022 -0.000050
 28   2.916892 1.618870 -1.501142 -0.000002 -0.000009 -0.000024
 29   8.824059 0.150544 0.091743 0.000006 -0.000231 -0.174534
 30   2.111085 -0.561179 1.784320 -0.000008 -0.000682 0.000024
 31   2.121290 -0.561289 -1.853599 0.000000 0.000000 -0.000002
 32   -0.814395 -0.093824 3.127092 3.071965 -0.114691 1.239365
 33   14.298673 -0.408176 0.471578 0.000248 0.000063 -1.896136
 34   15.835795 0.581398 0.242756 -0.214735 0.106913 -0.097869
 35   -0.815868 -0.091229 -3.114430 0.066464 3.132818 -1.010216
 36   14.294526 -0.410349 -0.467541 0.000021 -0.000012 -2.607695
 37   15.834409 0.579420 -0.284600 -0.006092 -0.035255 0.214508
 38   1.139685 -3.453749 -2.823813 0.000000 0.000000 0.000001
 39   -4.457742 -1.054854 -0.746180 0.000000 0.000000 0.000000
 40   1.118101 -3.449769 3.237290 0.000000 0.000001 0.000000
 41   -4.433840 -1.059130 0.959566 -0.000001 0.000000 0.000000
 42   -0.657468 1.697302 -2.688614 0.000000 0.000002 0.000000
 43   -0.664068 1.698578 2.869377 0.000000 0.000002 0.000000
time 5
  0   -0.967547 0.175787 -20.574476 0.000000 0.000000 -1.572114
  1   -1.093036 0.000002 -0.326057 -1.570756 -1.570425 -0.000219
  2   2.262337 0.113614 0.064702 0.069482 0.005957 -0.092463
  3   2.380047 0.353302 0.047440 0.331522 -0.002785 0.002081
  4   2.033756 0.190472 -0.000128 0.415206 0.056543 -0.133994
  5   2.451511 0.204909 -0.003447 -0.104670 -0.001781 -0.023391
  6   7.247600 -0.397300 -0.109469 0.000001 0.000033 0.418441
  7   -2.022252 -0.104661 3.136172 -0.298783 -1.361862 -2.901749
  8   1.168026 -0.537438 -0.063437 -0.418746 1.163182 -0.382915
  9   6.790376 -0.619176 0.015206 0.000674 -0.226801 -0.418317
 10   8.637599 0.544015 -0.090417 -1.015216 0.064206 -0.818986
 11   6.790465 -0.619039 0.017802 -0.010298 -0.169923 -0.306571
 12   -2.022474 -0.104699 -2.873818 0.298873 1.361800 -2.901888
 13   1.167898 -0.537463 0.063297 1.203332 -0.215314 -0.985718
 14   7.002743 -0.617765 -0.183752 0.047085 0.002238 -0.377133
 15   8.209042 0.615527 -0.255885 1.570090 -0.000063 -0.121965
 16   7.002735 -0.617911 -0.183641 0.047579 0.002236 -0.282577
 17   1.574674 0.609930 -0.000899 -0.761610 0.006658 -0.169179
 18   -0.602177 0.511412 -0.000006 0.000000 0.000000 0.000000
 19   3.673773 0.177020 1.119313 -0.000002 -0.000014 -0.174510
 20   3.673767 0.176993 -1.117566 0.000007 -0.000003 -0.174546
 21   3.942357 1.334540 1.627658 0.000002 -0.000011 -0.000026
 22   -0.246060 -0.011889 0.516521 -0.000011 0.000031 0.000025
 23   3.942374 1.334565 -1.631083 0.000019 0.000002 -0.000024
 24   -0.246150 -0.011872 -0.516511 -0.000005 -0.000006 0.000048
 25   4.941364 1.997338 1.629330 0.000018 0.261744 -0.000024
 26   4.941382 1.997366 -1.629410 -0.000001 -0.261756 -0.000024
 27   2.914462 1.619264 1.514501 -0.000019 -0.000022 -0.000050
 28   2.916892 1.618870 -1.501142 -0.000002 -0.000009 -0.000024
 29   8.824059 0.150544 0.091743 0.000006 -0.000231 -0.174534
 30   2.111085 -0.561179 1.784320 -0.000008 -0.000682 0.000024
 31   2.121290 -0.561289 -1.853599 0.000000 0.000000 -0.000002
 32   -0.814395 -0.093824 3.127092 3.071965 -0.114691 1.239365
 33   14.298673 -0.408176 0.471578 0.000248 0.000063 -1.896136
 34   15.835795 0.581398 0.242756 -0.214735 0.106913 -0.097869
 35   -0.815868 -0.091229 -3.114430 0.066464 3.132818 -1.010216
 36   14.294526 -0.410349 -0.467541 0.000021 -0.000012 -2.607695
 37   15.834409 0.579420 -0.284600 -0.006092 -0.035255 0.214508
 38   1.139685 -3.453749 -2.823813 0.000000 0.000000 0.000001
 39   -4.457742 -1.054854 -0.746180 0.000000 0.000000 0.000000
 40   1.118101 -3.449769 3.237290 0.000000 0.000001 0.000000
 41   -4.433840 -1.059130 0.959566 -0.000001 0.000000 0.000000
 42   -0.657468 1.697302 -2.688614 0.000000 0.000002 0.000000
 43   -0.664068 1.698578 2.869377 0.000000 0.000002 0.000000
time 6
  0   -0.967547 0.175787 -20.574476 0.000000 0.000000 -1.572114
  1   -1.093036 0.000002 -0.326057 -1.570756 -1.570425 -0.000219
  2   2.262337 0.113614 0.064702 0.069482 0.005957 -0.093620
  3   2.380047 0.353302 0.047440 0.331522 -0.002785 0.000816
  4   2.033756 0.190472 -0.000128 0.415206 0.056543 -0.135226
  5   2.451511 0.204909 -0.003447 -0.104670 -0.001781 -0.024654
  6   7.247600 -0.397300 -0.109469 0.000001 0.000033 0.418441
  7   -2.022252 -0.104661 3.136172 -0.298783 -1.361862 -2.901749
  8   1.168026 -0.537438 -0.063437 -0.430263 1.161069 -0.393606
  9   6.790376 -0.619176 0.015206 0.000674 -0.226801 -0.418317
 10   8.637599 0.544015 -0.090417 -1.015216 0.064206 -0.818986
 11   6.790465 -0.619039 0.017802 -0.010298 -0.169923 -0.306571
 12   -2.022474 -0.104699 -2.873818 0.298873 1.361800 -2.901888
 13   1.167898 -0.537463 0.063297 1.200520 -0.219484 -0.985052
 14   7.002743 -0.617765 -0.183752 0.047085 0.002238 -0.377133
 15   8.209042 0.615527 -0.255885 1.570090 -0.000063 -0.121965
 16   7.002735 -0.617911 -0.183641 0.047532 0.002236 -0.282577
 17   1.574674 0.609930 -0.000899 -0.761610 0.006658 -0.164115
 18   -0.602177 0.511412 -0.000006 0.000000 0.000000 0.000000
 19   3.673773 0.177020 1.119313 -0.000002 -0.000014 -0.174510
 20   3.673767 0.176993 -1.117566 0.000007 -0.000003 -0.174546
 21   3.942357 1.334540 1.627658 0.000002 -0.000011 -0.000026
 22   -0.246060 -0.011889 0.516521 -0.000011 0.000031 0.000025
 23   3.942374 1.334565 -1.631083 0.000019 0.000002 -0.000024
 24   -0.246150 -0.011872 -0.516511 -0.000005 -0.000006 0.000048
 25   4.941364 1.997338 1.629330 0.000018 0.261744 -0.000024
 26   4.941382 1.997366 -1.629410 -0.000001 -0.261756 -0.000024
 27   2.914462 1.619264 1.514501 -0.000019 -0.000022 -0.000050
 28   2.916892 1.618870 -1.501142 -0.000002 -0.000009 -0.000024
 29   8.824059 0.150544 0.091743 0.000006 -0.000231 -0.174534
 30   2.111085 -0.561179 1.784320 -0.000008 -0.000682 0.000024
 31   2.121290 -0.561289 -1.853599 0.000000 0.000000 -0.000002
 32   -0.814395 -0.093824 3.127092 3.071965 -0.114691 1.239365
 33   14.298673 -0.408176 0.471578 0.000248 0.000063 -1.896136
 34   15.835795 0.581398 0.242756 -0.214735 0.106913 -0.097869
 35   -0.815868 -0.091229 -3.114430 0.066464 3.132818 -1.010216
 36   14.294526 -0.410349 -0.467541 0.000021 -0.000012 -2.607695
 37   15.834409 0.579420 -0.284600 -0.006092 -0.035255 0.214508
 38   1.139685 -3.453749 -2.823813 0.000000 0.000000 0.000001
 39   -4.457742 -1.054854 -0.746180 0.000000 0.000000 0.000000
 40   1.118101 -3.449769 3.237290 0.000000 0.000001 0.000000
 41   -4.433840 -1.059130 0.959566 -0.000001 0.000000 0.000000
 42   -0.657468 1.697302 -2.688614 0.000000 0.000002 0.000000
 43   -0.664068 1.698578 2.869377 0.000000 0.000002 0.000000
time 7
  0   -0.967547 0.175787 -20.574476 0.000000 0.000000 -1.572114
  1   -1.093036 0.000002 -0.326057 -1.570756 -1.570425 -0.000219
  2   2.262337 0.113614 0.064702 0.069482 0.005957 -0.094903
  3   2.380047 0.353302 0.047440 0.331522 -0.002785 -0.000388
  4   2.033756 0.190472 -0.000128 0.415206 0.056543 -0.136495
  5   2.451511 0.204909 -0.003447 -0.104670 -0.001781 -0.025942
  6   7.247600 -0.397300 -0.109469 0.000001 0.000033 0.418441
  7   -2.022252 -0.104661 3.136172 -0.298783 -1.361862 -2.901749
  8   1.168026 -0.537438 -0.063437 -0.441716 1.159308 -0.404297
  9   6.790376 -0.619176 0.015206 0.000674 -0.226801 -0.418317
 10   8.637599 0.544015 -0.090417 -1.015216 0.064206 -0.818986
 11   6.790465 -0.619039 0.017802 -0.010298 -0.169923 -0.306571
 12   -2.022474 -0.104699 -2.873818 0.298873 1.361800 -2.901888
 13   1.167898 -0.537463 0.063297 1.197498 -0.223450 -0.984568
 14   7.002743 -0.617765 -0.183752 0.047085 0.002238 -0.377133
 15   8.209042 0.615527 -0.255885 1.570090 -0.000063 -0.121965
 16   7.002735 -0.617911 -0.183641 0.047532 0.002236 -0.282577
 17   1.574674 0.609930 -0.000899 -0.761610 0.006658 -0.159088
 18   -0.602177 0.511412 -0.000006 0.000000 0.000000 0.000000
 19   3.673773 0.177020 1.119313 -0.000002 -0.000014 -0.174510
 20   3.673767 0.176993 -1.117566 0.000007 -0.000003 -0.174546
 21   3.942357 1.334540 1.627658 0.000002 -0.000011 -0.000026
 22   -0.246060 -0.011889 0.516521 -0.000011 0.000031 0.000025
 23   3.942374 1.334565 -1.631083 0.000019 0.000002 -0.000024
 24   -0.246150 -0.011872 -0.516511 -0.000005 -0.000006 0.000048
 25   4.941364 1.997338 1.629330 0.000018 0.261744 -0.000024
 26   4.941382 1.997366 -1.629410 -0.000001 -0.261756 -0.000024
 27   2.914462 1.619264 1.514501 -0.000019 -0.000022 -0.000050
 28   2.916892 1.618870 -1.501142 -0.000002 -0.000009 -0.000024
 29   8.824059 0.150544 0.091743 0.000006 -0.000231 -0.174534
 30   2.111085 -0.561179 1.784320 -0.000008 -0.000682 0.000024
 31   2.121290 -0.561289 -1.853599 0.000000 0.000000 -0.000002
 32   -0.814395 -0.093824 3.127092 3.071965 -0.114691 1.239365
 33   14.298673 -0.408176 0.471578 0.000248 0.000063 -1.896136
 34   15.835795 0.581398 0.242756 -0.214735 0.106913 -0.097869
 35   -0.815868 -0.091229 -3.114430 0.066464 3.132818 -1.010216
 36   14.294526 -0.410349 -0.467541 0.000021 -0.000012 -2.607695
 37   15.834409 0.579420 -0.284600 -0.006092 -0.035255 0.214508
 38   1.139685 -3.453749 -2.823813 0.000000 0.000000 0.000001
 39   -4.457742 -1.054854 -0.746180 0.000000 0.000000 0.000000
 40   1.118101 -3.449769 3.237290 0.000000 0.000001 0.000000
 41   -4.433840 -1.059130 0.959566 -0.000001 0.000000 0.000000
 42   -0.657468 1.697302 -2.688614 0.000000 0.000002 0.000000
 43   -0.664068 1.698578 2.869377 0.000000 0.000002 0.000000
time 8
  0   -0.967547 0.175787 -20.574476 0.000000 0.000000 -1.572114
  1   -1.093036 0.000002 -0.326057 -1.570756 -1.570425 -0.000219
  2   2.262337 0.113614 0.064702 0.069482 0.005957 -0.096131
  3   2.380047 0.353302 0.047440 0.331522 -0.002785 -0.001633
  4   2.033756 0.190472 -0.000128 0.415206 0.056543 -0.137727
  5   2.451511 0.204909 -0.003447 -0.104670 -0.001781 -0.027205
  6   7.247600 -0.397300 -0.109469 0.000001 0.000033 0.418441
  7   -2.022252 -0.104661 3.136172 -0.298783 -1.361862 -2.901749
  8   1.168026 -0.537438 -0.063437 -0.453233 1.157094 -0.414672
  9   6.790376 -0.619176 0.015206 0.000674 -0.226801 -0.418317
 10   8.637599 0.544015 -0.090417 -1.015216 0.064206 -0.818986
 11   6.790465 -0.619039 0.017802 -0.010298 -0.169923 -0.306571
 12   -2.022474 -0.104699 -2.873818 0.298873 1.361800 -2.901888
 13   1.167898 -0.537463 0.063297 1.194897 -0.227671 -0.983781
 14   7.002743 -0.617765 -0.183752 0.047085 0.002238 -0.377133
 15   8.209042 0.615527 -0.255885 1.570090 -0.000063 -0.121965
 16   7.002735 -0.617911 -0.183641 0.047532 0.002236 -0.282577
 17   1.574674 0.609930 -0.000899 -0.761610 0.006658 -0.154246
 18   -0.602177 0.511412 -0.000006 0.000000 0.000000 0.000000
 19   3.673773 0.177020 1.119313 -0.000002 -0.000014 -0.174510
 20   3.673767 0.176993 -1.117566 0.000007 -0.000003 -0.174546
 21   3.942357 1.334540 1.627658 0.000002 -0.000011 -0.000026
 22   -0.246060 -0.011889 0.516521 -0.000011 0.000031 0.000025
 23   3.942374 1.334565 -1.631083 0.000019 0.000002 -0.000024
 24   -0.246150 -0.011872 -0.516511 -0.000005 -0.000006 0.000048
 25   4.941364 1.997338 1.629330 0.000018 0.261744 -0.000024
 26   4.941382 1.997366 -1.629410 -0.000001 -0.261756 -0.000024
 27   2.914462 1.619264 1.514501 -0.000019 -0.000022 -0.000050
 28   2.916892 1.618870 -1.501142 -0.000002 -0.000009 -0.000024
 29   8.824059 0.150544 0.091743 0.000006 -0.000231 -0.174534
 30   2.111085 -0.561179 1.784320 -0.000008 -0.000682 0.000024
 31   2.121290 -0.561289 -1.853599 0.000000 0.000000 -0.000002
 32   -0.814395 -0.093824 3.127092 3.071965 -0.114691 1.239365
 33   14.298673 -0.408176 0.471578 0.000248 0.000063 -1.896136
 34   15.835795 0.581398 0.242756 -0.214735 0.106913 -0.097869
 35   -0.815868 -0.091229 -3.114430 0.066464 3.132818 -1.010216
 36   14.294526 -0.410349 -0.467541 0.000021 -0.000012 -2.607695
 37   15.834409 0.579420 -0.284600 -0.006092 -0.035255 0.214508
 38   1.139685 -3.453749 -2.823813 0.000000 0.000000 0.000001
 39   -4.457742 -1.054854 -0.746180 0.000000 0.000000 0.000000
 40   1.118101 -3.449769 3.237290 0.000000 0.000001 0.000000
 41   -4.433840 -1.059130 0.959566 -0.000001 0.000000 0.000000
 42   -0.657468 1.697302 -2.688614 0.000000 0.000002 0.000000
 43   -0.664068 1.698578 2.869377 0.000000 0.000002 0.000000
time 9
  0   -0.967547 0.175787 -20.574476 0.000000 0.000000 -1.572114
  1   -1.093036 0.000002 -0.326057 -1.570756 -1.570425 -0.000219
  2   2.262337 0.113614 0.064702 0.069482 0.005957 -0.097414
  3   2.380047 0.353302 0.047440 0.331522 -0.002785 -0.002939
  4   2.033756 0.190472 -0.000128 0.415206 0.056543 -0.138996
  5   2.451511 0.204909 -0.003447 -0.104670 -0.001781 -0.028468
  6   7.247600 -0.397300 -0.109469 0.000001 0.000033 0.418441
  7   -2.022252 -0.104661 3.136172 -0.298783 -1.361862 -2.901749
  8   1.168026 -0.537438 -0.063437 -0.464687 1.155333 -0.424920
  9   6.790376 -0.619176 0.015206 0.000674 -0.226801 -0.418317
 10   8.637599 0.544015 -0.090417 -1.015216 0.064206 -0.818986
 11   6.790465 -0.619039 0.017802 -0.010298 -0.169923 -0.306571
 12   -2.022474 -0.104699 -2.873818 0.298873 1.361800 -2.901888
 13   1.167898 -0.537463 0.063297 1.192085 -0.231892 -0.983236
 14   7.002743 -0.617765 -0.183752 0.047085 0.002238 -0.377133
 15   8.209042 0.615527 -0.255885 1.570090 -0.000063 -0.121965
 16   7.002735 -0.617911 -0.183641 0.047532 0.002236 -0.282577
 17   1.574674 0.609930 -0.000899 -0.761610 0.006658 -0.149146
 18   -0.602177 0.511412 -0.000006 0.000000 0.000000 0.000000
 19   3.673773 0.177020 1.119313 -0.000002 -0.000014 -0.174510
 20   3.673767 0.176993 -1.117566 0.000007 -0.000003 -0.174546
 21   3.942357 1.334540 1.627658 0.000002 -0.000011 -0.000026
 22   -0.246060 -0.011889 0.516521 -0.000011 0.000031 0.000025
 23   3.942374 1.334565 -1.631083 0.000019 0.000002 -0.000024
 24   -0.246150 -0.011872 -0.516511 -0.000005 -0.000006 0.000048
 25   4.941364 1.997338 1.629330 0.000018 0.261744 -0.000024
 26   4.941382 1.997366 -1.629410 -0.000001 -0.261756 -0.000024
 27   2.914462 1.619264 1.514501 -0.000019 -0.000022 -0.000050
 28   2.916892 1.618870 -1.501142 -0.000002 -0.000009 -0.000024
 29   8.824059 0.150544 0.091743 0.000006 -0.000231 -0.174534
 30   2.111085 -0.561179 1.784320 -0.000008 -0.000682 0.000024
 31   2.121290 -0.561289 -1.853599 0.000000 0.000000 -0.000002
 32   -0.814395 -0.093824 3.127092 3.071965 -0.114691 1.239365
 33   14.298673 -0.408176 0.471578 0.000248 0.000063 -1.896136
 34   15.835795 0.581398 0.242756 -0.214735 0.106913 -0.097869
 35   -0.815868 -0.091229 -3.114430 0.066464 3.132818 -1.010216
 36   14.294526 -0.410349 -0.467541 0.000021 -0.000012 -2.607695
 37   15.834409 0.579420 -0.284600 -0.006092 -0.035255 0.214508
 38   1.139685 -3.453749 -2.823813 0.000000 0.000000 0.000001
 39   -4.457742 -1.054854 -0.746180 0.000000 0.000000 0.000000
 40   1.118101 -3.449769 3.237290 0.000000 0.000001 0.000000
 41   -4.433840 -1.059130 0.959566 -0.000001 0.000000 0.000000
 42   -0.657468 1.697302 -2.688614 0.000000 0.000002 0.000000
 43   -0.664068 1.698578 2.869377 0.000000 0.000002 0.000000
time 10
  0   -0.967547 0.175787 -20.574476 0.000000 0.000000 -1.572114
  1   -1.093036 0.000002 -0.326057 -1.570756 -1.570425 -0.000219
  2   2.262337 0.113614 0.064702 0.069482 0.005957 -0.098643
  3   2.380047 0.353302 0.047440 0.331522 -0.002785 -0.004142
  4   2.033756 0.190472 -0.000128 0.415206 0.056543 -0.139975
  5   2.451511 0.204909 -0.003447 -0.104670 -0.001781 -0.029632
  6   7.247600 -0.397300 -0.109469 0.000001 0.000033 0.418441
  7   -2.022252 -0.104661 3.136172 -0.298783 -1.361862 -2.901749
  8   1.168026 -0.537438 -0.063437 -0.475761 1.153270 -0.435168
  9   6.790376 -0.619176 0.015206 0.000674 -0.226801 -0.418317
 10   8.637599 0.544015 -0.090417 -1.015216 0.064206 -0.818986
 11   6.790465 -0.619039 0.017802 -0.010298 -0.169923 -0.306571
 12   -2.022474 -0.104699 -2.873818 0.298873 1.361800 -2.901888
 13   1.167898 -0.537463 0.063297 1.189203 -0.235910 -0.982328
 14   7.002743 -0.617765 -0.183752 0.047085 0.002238 -0.377133
 15   8.209042 0.615527 -0.255885 1.570090 -0.000063 -0.121965
 16   7.002735 -0.617911 -0.183641 0.047579 0.002236 -0.282577
 17   1.574674 0.609930 -0.000899 -0.761610 0.006658 -0.144230
 18   -0.602177 0.511412 -0.000006 0.000000 0.000000 0.000000
 19   3.673773 0.177020 1.119313 -0.000002 -0.000014 -0.174510
 20   3.673767 0.176993 -1.117566 0.000007 -0.000003 -0.174546
 21   3.942357 1.334540 1.627658 0.000002 -0.000011 -0.000026
 22   -0.246060 -0.011889 0.516521 -0.000011 0.000031 0.000025
 23   3.942374 1.334565 -1.631083 0.000019 0.000002 -0.000024
 24   -0.246150 -0.011872 -0.516511 -0.000005 -0.000006 0.000048
 25   4.941364 1.997338 1.629330 0.000018 0.261744 -0.000024
 26   4.941382 1.997366 -1.629410 -0.000001 -0.261756 -0.000024
 27   2.914462 1.619264 1.514501 -0.000019 -0.000022 -0.000050
 28   2.916892 1.618870 -1.501142 -0.000002 -0.000009 -0.000024
 29   8.824059 0.150544 0.091743 0.000006 -0.000231 -0.174534
 30   2.111085 -0.561179 1.784320 -0.000008 -0.000682 0.000024
 31   2.121290 -0.561289 -1.853599 0.000000 0.000000 -0.000002
 32   -0.814395 -0.093824 3.127092 3.071965 -0.114691 1.239365
 33   14.298673 -0.408176 0.471578 0.000248 0.000063 -1.896136
 34   15.835795 0.581398 0.242756 -0.214735 0.106913 -0.097869
 35   -0.815868 -0.091229 -3.114430 0.066464 3.132818 -1.010216
 36   14.294526 -0.410349 -0.467541 0.000021 -0.000012 -2.607695
 37   15.834409 0.579420 -0.284600 -0.006092 -0.035255 0.214508
 38   1.139685 -3.453749 -2.823813 0.000000 0.000000 0.000001
 39   -4.457742 -1.054854 -0.746180 0.000000 0.000000 0.000000
 40   1.118101 -3.449769 3.237290 0.000000 0.000001 0.000000
 41   -4.433840 -1.059130 0.959566 -0.000001 0.000000 0.000000
 42   -0.657468 1.697302 -2.688614 0.000000 0.000002 0.000000
 43   -0.664068 1.698578 2.869377 0.000000 0.000002 0.000000
time 11
  0   -0.967547 0.175787 -20.574476 0.000000 0.000000 -1.572114
  1   -1.093036 0.000002 -0.326057 -1.570756 -1.570425 -0.000219
  2   2.262337 0.113614 0.064702 0.069482 0.005957 -0.099926
  3   2.380047 0.353302 0.047440 0.331522 -0.002785 -0.005408
  4   2.033756 0.190472 -0.000128 0.415206 0.056543 -0.141243
  5   2.451511 0.204909 -0.003447 -0.104670 -0.001781 -0.030895
  6   7.247600 -0.397300 -0.109469 0.000001 0.000033 0.418441
  7   -2.022252 -0.104661 3.136172 -0.298783 -1.361862 -2.901749
  8   1.168026 -0.537438 -0.063437 -0.486835 1.151006 -0.445353
  9   6.790376 -0.619176 0.015206 0.000674 -0.226801 -0.418317
 10   8.637599 0.544015 -0.090417 -1.015216 0.064206 -0.818986
 11   6.790465 -0.619039 0.017802 -0.010298 -0.169923 -0.306571
 12   -2.022474 -0.104699 -2.873818 0.298873 1.361800 -2.901792
 13   1.167898 -0.537463 0.063297 1.186180 -0.240334 -0.981965
 14   7.002743 -0.617765 -0.183752 0.047085 0.002238 -0.377133
 15   8.209042 0.615527 -0.255885 1.570090 -0.000063 -0.121965
 16   7.002735 -0.617911 -0.183641 0.047532 0.002236 -0.282577
 17   1.574674 0.609930 -0.000899 -0.761610 0.006658 -0.139277
 18   -0.602177 0.511412 -0.000006 0.000000 0.000000 0.000000
 19   3.673773 0.177020 1.119313 -0.000002 -0.000014 -0.174510
 20   3.673767 0.176993 -1.117566 0.000007 -0.000003 -0.174546
 21   3.942357 1.334540 1.627658 0.000002 -0.000011 -0.000026
 22   -0.246060 -0.011889 0.516521 -0.000011 0.000031 0.000025
 23   3.942374 1.334565 -1.631083 0.000019 0.000002 -0.000024
 24   -0.246150 -0.011872 -0.516511 -0.000005 -0.000006 0.000048
 25   4.941364 1.997338 1.629330 0.000018 0.261744 -0.000024
 26   4.941382 1.997366 -1.629410 -0.000001 -0.261756 -0.000024
 27   2.914462 1.619264 1.514501 -0.000019 -0.000022 -0.000050
 28   2.916892 1.618870 -1.501142 -0.000002 -0.000009 -0.000024
 29   8.824059 0.150544 0.091743 0.000006 -0.000231 -0.174534
 30   2.111085 -0.561179 1.784320 -0.000008 -0.000682 0.000024
 31   2.121290 -0.561289 -1.853599 0.000000 0.000000 -0.000002
 32   -0.814395 -0.093824 3.127092 3.071965 -0.114691 1.239365
 33   14.298673 -0.408176 0.471578 0.000248 0.000063 -1.896136
 34   15.835795 0.581398 0.242756 -0.214735 0.106913 -0.097869
 35   -0.815868 -0.091229 -3.114430 0.066464 3.132818 -1.010216
 36   14.294526 -0.410349 -0.467541 0.000021 -0.000012 -2.607695
 37   15.834409 0.579420 -0.284600 -0.006092 -0.035255 0.214508
 38   1.139685 -3.453749 -2.823813 0.000000 0.000000 0.000001
 39   -4.457742 -1.054854 -0.746180 0.000000 0.000000 0.000000
 40   1.118101 -3.449769 3.237290 0.000000 0.000001 0.000000
 41   -4.433840 -1.059130 0.959566 -0.000001 0.000000 0.000000
 42   -0.657468 1.697302 -2.688614 0.000000 0.000002 0.000000
 43   -0.664068 1.698578 2.869377 0.000000 0.000002 0.000000
time 12
  0   -0.967547 0.175787 -20.574476 0.000000 0.000000 -1.572114
  1   -1.093036 0.000002 -0.326057 -1.570756 -1.570425 -0.000219
  2   2.262337 0.113614 0.064702 0.069482 0.005957 -0.101173
  3   2.380047 0.353302 0.047440 0.331522 -0.002785 -0.006611
  4   2.033756 0.190472 -0.000128 0.415206 0.056543 -0.142331
  5   2.451511 0.204909 -0.003447 -0.104670 -0.001781 -0.032158
  6   7.247600 -0.397300 -0.109469 0.000001 0.000033 0.418441
  7   -2.022252 -0.104661 3.136172 -0.298783 -1.361862 -2.901749
  8   1.168026 -0.537438 -0.063437 -0.497846 1.148742 -0.455285
  9   6.790376 -0.619176 0.015206 0.000674 -0.226801 -0.418317
 10   8.637599 0.544015 -0.090417 -1.015216 0.064206 -0.818986
 11   6.790465 -0.619039 0.017802 -0.010298 -0.169923 -0.306571
 12   -2.022474 -0.104699 -2.873818 0.298873 1.361800 -2.901888
 13   1.167898 -0.537463 0.063297 1.183368 -0.244301 -0.981178
 14   7.002743 -0.617765 -0.183752 0.047085 0.002238 -0.377133
 15   8.209042 0.615527 -0.255885 1.570090 -0.000063 -0.121965
 16   7.002735 -0.617911 -0.183641 0.047532 0.002236 -0.282577
 17   1.574674 0.609930 -0.000899 -0.761610 0.006658 -0.134103
 18   -0.602177 0.511412 -0.000006 0.000000 0.000000 0.000000
 19   3.673773 0.177020 1.119313 -0.000002 -0.000014 -0.174510
 20   3.673767 0.176993 -1.117566 0.000007 -0.000003 -0.174546
 21   3.942357 1.334540 1.627658 0.000002 -0.000011 -0.000026
 22   -0.246060 -0.011889 0.516521 -0.000011 0.000031 0.000025
 23   3.942374 1.334565 -1.631083 0.000019 0.000002 -0.000024
 24   -0.246150 -0.011872 -0.516511 -0.000005 -0.000006 0.000048
 25   4.941364 1.997338 1.629330 0.000018 0.261744 -0.000024
 26   4.941382 1.997366 -1.629410 -0.000001 -0.261756 -0.000024
 27   2.914462 1.619264 1.514501 -0.000019 -0.000022 -0.000050
 28   2.916892 1.618870 -1.501142 -0.000002 -0.000009 -0.000024
 29   8.824059 0.150544 0.091743 0.000006 -0.000231 -0.174534
 30   2.111085 -0.561179 1.784320 -0.000008 -0.000682 0.000024
 31   2.121290 -0.561289 -1.853599 0.000000 0.000000 -0.000002
 32   -0.814395 -0.093824 3.127092 3.071965 -0.114691 1.239365
 33   14.298673 -0.408176 0.471578 0.000248 0.000063 -1.896136
 34   15.835795 0.581398 0.242756 -0.214735 0.106913 -0.097869
 35   -0.815868 -0.091229 -3.114430 0.066464 3.132818 -1.010216
 36   14.294526 -0.410349 -0.467541 0.000021 -0.000012 -2.607695
 37   15.834409 0.579420 -0.284600 -0.006092 -0.035255 0.214508
 38   1.139685 -3.453749 -2.823813 0.000000 0.000000 0.000001
 39   -4.457742 -1.054854 -0.746180 0.000000 0.000000 0.000000
 40   1.118101 -3.449769 3.237290 0.000000 0.000001 0.000000
 41   -4.433840 -1.059130 0.959566 -0.000001 0.000000 0.000000
 42   -0.657468 1.697302 -2.688614 0.000000 0.000002 0.000000
 43   -0.664068 1.698578 2.869377 0.000000 0.000002 0.000000
time 13
  0   -0.967547 0.175787 -20.574476 0.000000 0.000000 -1.572114
  1   -1.093036 0.000002 -0.326057 -1.570756 -1.570425 -0.000219
  2   2.262337 0.113614 0.064702 0.069482 0.005957 -0.102366
  3   2.380047 0.353302 0.047440 0.331522 -0.002785 -0.007917
  4   2.033756 0.190472 -0.000128 0.415206 0.056543 -0.143636
  5   2.451511 0.204909 -0.003447 -0.104670 -0.001781 -0.033421
  6   7.247600 -0.397300 -0.109469 0.000001 0.000033 0.418441
  7   -2.022252 -0.104661 3.136172 -0.298783 -1.361862 -2.901749
  8   1.168026 -0.537438 -0.063437 -0.508730 1.146528 -0.465280
  9   6.790376 -0.619176 0.015206 0.000674 -0.226801 -0.418317
 10   8.637599 0.544015 -0.090417 -1.015216 0.064206 -0.818986
 11   6.790465 -0.619039 0.017802 -0.010298 -0.169923 -0.306571
 12   -2.022474 -0.104699 -2.873818 0.298873 1.361800 -2.901888
 13   1.167898 -0.537463 0.063297 1.180556 -0.248471 -0.980633
 14   7.002743 -0.617765 -0.183752 0.047085 0.002238 -0.377133
 15   8.209042 0.615527 -0.255885 1.570090 -0.000063 -0.121965
 16   7.002735 -0.617911 -0.183641 0.047579 0.002236 -0.282577
 17   1.574674 0.609930 -0.000899 -0.761610 0.006658 -0.129261
 18   -0.602177 0.511412 -0.000006 0.000000 0.000000 0.000000
 19   3.673773 0.177020 1.119313 -0.000002 -0.000014 -0.174510
 20   3.673767 0.176993 -1.117566 0.000007 -0.000003 -0.174546
 21   3.942357 1.334540 1.627658 0.000002 -0.000011 -0.000026
 22   -0.246060 -0.011889 0.516521 -0.000011 0.000031 0.000025
 23   3.942374 1.334565 -1.631083 0.000019 0.000002 -0.000024
 24   -0.246150 -0.011872 -0.516511 -0.000005 -0.000006 0.000048
 25   4.941364 1.997338 1.629330 0.000018 0.261744 -0.000024
 26   4.941382 1.997366 -1.629410 -0.000001 -0.261756 -0.000024
 27   2.914462 1.619264 1.514501 -0.000019 -0.000022 -0.000050
 28   2.916892 1.618870 -1.501142 -0.000002 -0.000009 -0.000024
 29   8.824059 0.150544 0.091743 0.000006 -0.000231 -0.174534
 30   2.111085 -0.561179 1.784320 -0.000008 -0.000682 0.000024
 31   2.121290 -0.561289 -1.853599 0.000000 0.000000 -0.000002
 32   -0.814395 -0.093824 3.127092 3.071965 -0.114691 1.239365
 33   14.298673 -0.408176 0.471578 0.000248 0.000063 -1.896136
 34   15.835795 0.581398 0.242756 -0.214735 0.106913 -0.097869
 35   -0.815868 -0.091229 -3.114430 0.066464 3.132818 -1.010216
 36   14.294526 -0.410349 -0.467541 0.000021 -0.000012 -2.607695
 37   15.834409 0.579420 -0.284600 -0.006092 -0.035255 0.214508
 38   1.139685 -3.453749 -2.823813 0.000000 0.000000 0.000001
 39   -4.457742 -1.054854 -0.746180 0.000000 0.000000 0.000000
 40   1.118101 -3.449769 3.237290 0.000000 0.000001 0.000000
 41   -4.433840 -1.059130 0.959566 -0.000001 0.000000 0.000000
 42   -0.657468 1.697302 -2.688614 0.000000 0.000002 0.000000
 43   -0.664068 1.698578 2.869377 0.000000 0.000002 0.000000
time 14
  0   -0.967547 0.175787 -20.574476 0.000000 0.000000 -1.572114
  1   -1.093036 0.000002 -0.326057 -1.570756 -1.570425 -0.000219
  2   2.262337 0.113614 0.064702 0.069482 0.005957 -0.103595
  3   2.380047 0.353302 0.047440 0.331522 -0.002785 -0.009040
  4   2.033756 0.190472 -0.000128 0.415206 0.056543 -0.144941
  5   2.451511 0.204909 -0.003447 -0.104670 -0.001781 -0.034684
  6   7.247600 -0.397300 -0.109469 0.000001 0.000033 0.418441
  7   -2.022252 -0.104661 3.136172 -0.298783 -1.361862 -2.901749
  8   1.168026 -0.537438 -0.063437 -0.519551 1.144264 -0.475212
  9   6.790376 -0.619176 0.015206 0.000674 -0.226801 -0.418317
 10   8.637599 0.544015 -0.090417 -1.015216 0.064206 -0.818986
 11   6.790465 -0.619039 0.017802 -0.010298 -0.169923 -0.306571
 12   -2.022474 -0.104699 -2.873818 0.298873 1.361800 -2.901888
 13   1.167898 -0.537463 0.063297 1.177744 -0.252743 -0.979846
 14   7.002743 -0.617765 -0.183752 0.047085 0.002238 -0.377133
 15   8.209042 0.615527 -0.255885 1.570090 -0.000063 -0.121965
 16   7.002735 -0.617911 -0.183641 0.047532 0.002236 -0.282577
 17   1.574674 0.609930 -0.000899 -0.761610 0.006658 -0.124123
 18   -0.602177 0.511412 -0.000006 0.000000 0.000000 0.000000
 19   3.673773 0.177020 1.119313 -0.000002 -0.000014 -0.174510
 20   3.673767 0.176993 -1.117566 0.000007 -0.000003 -0.174546
 21   3.942357 1.334540 1.627658 0.000002 -0.000011 -0.000026
 22   -0.246060 -0.011889 0.516521 -0.000011 0.000031 0.000025
 23   3.942374 1.334565 -1.631083 0.000019 0.000002 -0.000024
 24   -0.246150 -0.011872 -0.516511 -0.000005 -0.000006 0.000048
 25   4.941364 1.997338 1.629330 0.000018 0.261744 -0.000024
 26   4.941382 1.997366 -1.629410 -0.000001 -0.261756 -0.000024
 27   2.914462 1.619264 1.514501 -0.000019 -0.000022 -0.000050
 28   2.916892 1.618870 -1.501142 -0.000002 -0.000009 -0.000024
 29   8.824059 0.150544 0.091743 0.000006 -0.000231 -0.174534
 30   2.111085 -0.561179 1.784320 -0.000008 -0.000682 0.000024
 31   2.121290 -0.561289 -1.853599 0.000000 0.000000 -0.000002
 32   -0.814395 -0.093824 3.127092 3.071965 -0.114691 1.239365
 33   14.298673 -0.408176 0.471578 0.000248 0.000063 -1.896136
 34   15.835795 0.581398 0.242756 -0.214735 0.106913 -0.097869
 35   -0.815868 -0.091229 -3.114430 0.066464 3.132818 -1.010216
 36   14.294526 -0.410349 -0.467541 0.000021 -0.000012 -2.607695
 37   15.834409 0.579420 -0.284600 -0.006092 -0.035255 0.214508
 38   1.139685 -3.453749 -2.823813 0.000000 0.000000 0.000001
 39   -4.457742 -1.054854 -0.746180 0.000000 0.000000 0.000000
 40   1.118101 -3.449769 3.237290 0.000000 0.000001 0.000000
 41   -4.433840 -1.059130 0.959566 -0.000001 0.000000 0.000000
 42   -0.657468 1.697302 -2.688614 0.000000 0.000002 0.000000
 43   -0.664068 1.698578 2.869377 0.000000 0.000002 0.000000
time 15
  0   -0.967547 0.175787 -20.574476 0.000000 0.000000 -1.572114
  1   -1.093036 0.000002 -0.326057 -1.570756 -1.570425 -0.000219
  2   2.262337 0.113614 0.064702 0.069482 0.005957 -0.102456
  3   2.380047 0.353302 0.047440 0.331522 -0.002785 -0.007979
  4   2.033756 0.190472 -0.000128 0.415206 0.056543 -0.143781
  5   2.451511 0.204909 -0.003447 -0.104670 -0.001781 -0.033545
  6   7.247600 -0.397300 -0.109469 0.000001 0.000033 0.418441
  7   -2.022252 -0.104661 3.136172 -0.298783 -1.361862 -2.901749
  8   1.168026 -0.537438 -0.063437 -0.509426 1.146377 -0.466039
  9   6.790376 -0.619176 0.015206 0.000674 -0.226801 -0.418317
 10   8.637599 0.544015 -0.090417 -1.015216 0.064206 -0.818986
 11   6.790465 -0.619039 0.017802 -0.010298 -0.169923 -0.306571
 12   -2.022474 -0.104699 -2.873818 0.298873 1.361800 -2.901888
 13   1.167898 -0.537463 0.063297 1.180486 -0.248674 -0.980633
 14   7.002743 -0.617765 -0.183752 0.047085 0.002238 -0.377133
 15   8.209042 0.615527 -0.255885 1.570090 -0.000063 -0.121965
 16   7.002735 -0.617911 -0.183641 0.047532 0.002236 -0.282577
 17   1.574674 0.609930 -0.000899 -0.761610 0.006658 -0.128780
 18   -0.602177 0.511412 -0.000006 0.000000 0.000000 0.000000
 19   3.673773 0.177020 1.119313 -0.000002 -0.000014 -0.174510
 20   3.673767 0.176993 -1.117566 0.000007 -0.000003 -0.174546
 21   3.942357 1.334540 1.627658 0.000002 -0.000011 -0.000026
 22   -0.246060 -0.011889 0.516521 -0.000011 0.000031 0.000025
 23   3.942374 1.334565 -1.631083 0.000019 0.000002 -0.000024
 24   -0.246150 -0.011872 -0.516511 -0.000005 -0.000006 0.000048
 25   4.941364 1.997338 1.629330 0.000018 0.261744 -0.000024
 26   4.941382 1.997366 -1.629410 -0.000001 -0.261756 -0.000024
 27   2.914462 1.619264 1.514501 -0.000019 -0.000022 -0.000050
 28   2.916892 1.618870 -1.501142 -0.000002 -0.000009 -0.000024
 29   8.824059 0.150544 0.091743 0.000006 -0.000231 -0.174534
 30   2.111085 -0.561179 1.784320 -0.000008 -0.000682 0.000024
 31   2.121290 -0.561289 -1.853599 0.000000 0.000000 -0.000002
 32   -0.814395 -0.093824 3.127092 3.071965 -0.114691 1.239365
 33   14.298673 -0.408176 0.471578 0.000248 0.000063 -1.896136
 34   15.835795 0.581398 0.242756 -0.214735 0.106913 -0.097869
 35   -0.815868 -0.091229 -3.114430 0.066464 3.132818 -1.010216
 36   14.294526 -0.410349 -0.467541 0.000021 -0.000012 -2.607695
 37   15.834409 0.579420 -0.284600 -0.006092 -0.035255 0.214508
 38   1.139685 -3.453749 -2.823813 0.000000 0.000000 0.000001
 39   -4.457742 -1.054854 -0.746180 0.000000 0.000000 0.000000
 40   1.118101 -3.449769 3.237290 0.000000 0.000001 0.000000
 41   -4.433840 -1.059130 0.959566 -0.000001 0.000000 0.000000
 42   -0.657468 1.697302 -2.688614 0.000000 0.000002 0.000000
 43   -0.664068 1.698578 2.869377 0.000000 0.000002 0.000000
time 16
  0   -0.967547 0.175787 -20.574476 0.000000 0.000000 -1.572114
  1   -1.093036 0.000002 -0.326057 -1.570756 -1.570425 -0.000219
  2   2.262337 0.113614 0.064702 0.069482 0.005957 -0.101300
  3   2.380047 0.353302 0.047440 0.331522 -0.002785 -0.006775
  4   2.033756 0.190472 -0.000128 0.415206 0.056543 -0.142621
  5   2.451511 0.204909 -0.003447 -0.104670 -0.001781 -0.032381
  6   7.247600 -0.397300 -0.109469 0.000001 0.000033 0.418441
  7   -2.022252 -0.104661 3.136172 -0.298783 -1.361862 -2.901749
  8   1.168026 -0.537438 -0.063437 -0.499238 1.148591 -0.456803
  9   6.790376 -0.619176 0.015206 0.000674 -0.226801 -0.418317
 10   8.637599 0.544015 -0.090417 -1.015216 0.064206 -0.818986
 11   6.790465 -0.619039 0.017802 -0.010298 -0.169923 -0.306571
 12   -2.022474 -0.104699 -2.873818 0.298873 1.361800 -2.901888
 13   1.167898 -0.537463 0.063297 1.183087 -0.244911 -0.981178
 14   7.002743 -0.617765 -0.183752 0.047085 0.002238 -0.377133
 15   8.209042 0.615527 -0.255885 1.570090 -0.000063 -0.121965
 16   7.002735 -0.617911 -0.183641 0.047532 0.002236 -0.282577
 17   1.574674 0.609930 -0.000899 -0.761610 0.006658 -0.133585
 18   -0.602177 0.511412 -0.000006 0.000000 0.000000 0.000000
 19   3.673773 0.177020 1.119313 -0.000002 -0.000014 -0.174510
 20   3.673767 0.176993 -1.117566 0.000007 -0.000003 -0.174546
 21   3.942357 1.334540 1.627658 0.000002 -0.000011 -0.000026
 22   -0.246060 -0.011889 0.516521 -0.000011 0.000031 0.000025
 23   3.942374 1.334565 -1.631083 0.000019 0.000002 -0.000024
 24   -0.246150 -0.011872 -0.516511 -0.000005 -0.000006 0.000048
 25   4.941364 1.997338 1.629330 0.000018 0.261744 -0.000024
 26   4.941382 1.997366 -1.629410 -0.000001 -0.261756 -0.000024
 27   2.914462 1.619264 1.514501 -0.000019 -0.000022 -0.000050
 28   2.916892 1.618870 -1.501142 -0.000002 -0.000009 -0.000024
 29   8.824059 0.150544 0.091743 0.000006 -0.000231 -0.174534
 30   2.111085 -0.561179 1.784320 -0.000008 -0.000682 0.000024
 31   2.121290 -0.561289 -1.853599 0.000000 0.000000 -0.000002
 32   -0.814395 -0.093824 3.127092 3.071965 -0.114691 1.239365
 33   14.298673 -0.408176 0.471578 0.000248 0.000063 -1.896136
 34   15.835795 0.581398 0.242756 -0.214735 0.106913 -0.097869
 35   -0.815868 -0.091229 -3.114430 0.066464 3.132818 -1.010216
 36   14.294526 -0.410349 -0.467541 0.000021 -0.000012 -2.607695
 37   15.834409 0.579420 -0.284600 -0.006092 -0.035255 0.214508
 38   1.139685 -3.453749 -2.823813 0.000000 0.000000 0.000001
 39   -4.457742 -1.054854 -0.746180 0.000000 0.000000 0.000000
 40   1.118101 -3.449769 3.237290 0.000000 0.000001 0.000000
 41   -4.433840 -1.059130 0.959566 -0.000001 0.000000 0.000000
 42   -0.657468 1.697302 -2.688614 0.000000 0.000002 0.000000
 43   -0.664068 1.698578 2.869377 0.000000 0.000002 0.000000
time 17
  0   -0.967547 0.175787 -20.574476 0.000000 0.000000 -1.572114
  1   -1.093036 0.000002 -0.326057 -1.570756 -1.570425 -0.000219
  2   2.262337 0.113614 0.064702 0.069482 0.005957 -0.100161
  3   2.380047 0.353302 0.047440 0.331522 -0.002785 -0.005673
  4   2.033756 0.190472 -0.000128 0.415206 0.056543 -0.141425
  5   2.451511 0.204909 -0.003447 -0.104670 -0.001781 -0.031217
  6   7.247600 -0.397300 -0.109469 0.000001 0.000033 0.418441
  7   -2.022252 -0.104661 3.136172 -0.298783 -1.361862 -2.901749
  8   1.168026 -0.537438 -0.063437 -0.489050 1.150704 -0.447314
  9   6.790376 -0.619176 0.015206 0.000674 -0.226801 -0.418317
 10   8.637599 0.544015 -0.090417 -1.015216 0.064206 -0.818986
 11   6.790465 -0.619039 0.017802 -0.010298 -0.169923 -0.306571
 12   -2.022474 -0.104699 -2.873818 0.298873 1.361800 -2.901888
 13   1.167898 -0.537463 0.063297 1.185758 -0.241097 -0.981723
 14   7.002743 -0.617765 -0.183752 0.047085 0.002238 -0.377133
 15   8.209042 0.615527 -0.255885 1.570090 -0.000063 -0.121965
 16   7.002735 -0.617911 -0.183641 0.047532 0.002236 -0.282577
 17   1.574674 0.609930 -0.000899 -0.761610 0.006658 -0.138057
 18   -0.602177 0.511412 -0.000006 0.000000 0.000000 0.000000
 19   3.673773 0.177020 1.119313 -0.000002 -0.000014 -0.174510
 20   3.673767 0.176993 -1.117566 0.000007 -0.000003 -0.174546
 21   3.942357 1.334540 1.627658 0.000002 -0.000011 -0.000026
 22   -0.246060 -0.011889 0.516521 -0.000011 0.000031 0.000025
 23   3.942374 1.334565 -1.631083 0.000019 0.000002 -0.000024
 24   -0.246150 -0.011872 -0.516511 -0.000005 -0.000006 0.000048
 25   4.941364 1.997338 1.629330 0.000018 0.261744 -0.000024
 26   4.941382 1.997366 -1.629410 -0.000001 -0.261756 -0.000024
 27   2.914462 1.619264 1.514501 -0.000019 -0.000022 -0.000050
 28   2.916892 1.618870 -1.501142 -0.000002 -0.000009 -0.000024
 29   8.824059 0.150544 0.091743 0.000006 -0.000231 -0.174534
 30   2.111085 -0.561179 1.784320 -0.000008 -0.000682 0.000024
 31   2.121290 -0.561289 -1.853599 0.000000 0.000000 -0.000002
 32   -0.814395 -0.093824 3.127092 3.071965 -0.114691 1.239365
 33   14.298673 -0.408176 0.471578 0.000248 0.000063 -1.896136
 34   15.835795 0.581398 0.242756 -0.214735 0.106913 -0.097869
 35   -0.815868 -0.091229 -3.114430 0.066464 3.132818 -1.010216
 36   14.294526 -0.410349 -0.467541 0.000021 -0.000012 -2.607695
 37   15.834409 0.579420 -0.284600 -0.006092 -0.035255 0.214508
 38   1.139685 -3.453749 -2.823813 0.000000 0.000000 0.000001
 39   -4.457742 -1.054854 -0.746180 0.000000 0.000000 0.000000
 40   1.118101 -3.449769 3.237290 0.000000 0.000001 0.000000
 41   -4.433840 -1.059130 0.959566 -0.000001 0.000000 0.000000
 42   -0.657468 1.697302 -2.688614 0.000000 0.000002 0.000000
 43   -0.664068 1.698578 2.869377 0.000000 0.000002 0.000000
time 18
  0   -0.967547 0.175787 -20.574476 0.000000 0.000000 -1.572114
  1   -1.093036 0.000002 -0.326057 -1.570756 -1.570425 -0.000219
  2   2.262337 0.113614 0.064702 0.069482 0.005957 -0.098950
  3   2.380047 0.353302 0.047440 0.331522 -0.002785 -0.004449
  4   2.033756 0.190472 -0.000128 0.415206 0.056543 -0.140228
  5   2.451511 0.204909 -0.003447 -0.104670 -0.001781 -0.030053
  6   7.247600 -0.397300 -0.109469 0.000001 0.000033 0.418441
  7   -2.022252 -0.104661 3.136172 -0.298783 -1.361862 -2.901749
  8   1.168026 -0.537438 -0.063437 -0.478735 1.152566 -0.437825
  9   6.790376 -0.619176 0.015206 0.000674 -0.226801 -0.418317
 10   8.637599 0.544015 -0.090417 -1.015216 0.064206 -0.818986
 11   6.790465 -0.619039 0.017802 -0.010298 -0.169923 -0.306571
 12   -2.022474 -0.104699 -2.873818 0.298873 1.361800 -2.901888
 13   1.167898 -0.537463 0.063297 1.188359 -0.237181 -0.982328
 14   7.002743 -0.617765 -0.183752 0.047085 0.002238 -0.377133
 15   8.209042 0.615527 -0.255885 1.570090 -0.000063 -0.121965
 16   7.002735 -0.617911 -0.183641 0.047532 0.002236 -0.282577
 17   1.574674 0.609930 -0.000899 -0.761610 0.006658 -0.142862
 18   -0.602177 0.511412 -0.000006 0.000000 0.000000 0.000000
 19   3.673773 0.177020 1.119313 -0.000002 -0.000014 -0.174510
 20   3.673767 0.176993 -1.117566 0.000007 -0.000003 -0.174546
 21   3.942357 1.334540 1.627658 0.000002 -0.000011 -0.000026
 22   -0.246060 -0.011889 0.516521 -0.000011 0.000031 0.000025
 23   3.942374 1.334565 -1.631083 0.000019 0.000002 -0.000024
 24   -0.246150 -0.011872 -0.516511 -0.000005 -0.000006 0.000048
 25   4.941364 1.997338 1.629330 0.000018 0.261744 -0.000024
 26   4.941382 1.997366 -1.629410 -0.000001 -0.261756 -0.000024
 27   2.914462 1.619264 1.514501 -0.000019 -0.000022 -0.000050
 28   2.916892 1.618870 -1.501142 -0.000002 -0.000009 -0.000024
 29   8.824059 0.150544 0.091743 0.000006 -0.000231 -0.174534
 30   2.111085 -0.561179 1.784320 -0.000008 -0.000682 0.000024
 31   2.121290 -0.561289 -1.853599 0.000000 0.000000 -0.000002
 32   -0.814395 -0.093824 3.127092 3.071965 -0.114691 1.239365
 33   14.298673 -0.408176 0.471578 0.000248 0.000063 -1.896136
 34   15.835795 0.581398 0.242756 -0.214735 0.106913 -0.097869
 35   -0.815868 -0.091229 -3.114430 0.066464 3.132818 -1.010216
 36   14.294526 -0.410349 -0.467541 0.000021 -0.000012 -2.607695
 37   15.834409 0.579420 -0.284600 -0.006092 -0.035255 0.214508
 38   1.139685 -3.453749 -2.823813 0.000000 0.000000 0.000001
 39   -4.457742 -1.054854 -0.746180 0.000000 0.000000 0.000000
 40   1.118101 -3.449769 3.237290 0.000000 0.000001 0.000000
 41   -4.433840 -1.059130 0.959566 -0.000001 0.000000 0.000000
 42   -0.657468 1.697302 -2.688614 0.000000 0.000002 0.000000
 43   -0.664068 1.698578 2.869377 0.000000 0.000002 0.000000
time 19
  0   -0.967547 0.175787 -20.574476 0.000000 0.000000 -1.572114
  1   -1.093036 0.000002 -0.326057 -1.570756 -1.570425 -0.000219
  2   2.262337 0.113614 0.064702 0.069482 0.005957 -0.097758
  3   2.380047 0.353302 0.047440 0.331522 -0.002785 -0.003306
  4   2.033756 0.190472 -0.000128 0.415206 0.056543 -0.139286
  5   2.451511 0.204909 -0.003447 -0.104670 -0.001781 -0.028790
  6   7.247600 -0.397300 -0.109469 0.000001 0.000033 0.418441
  7   -2.022252 -0.104661 3.136172 -0.298783 -1.361862 -2.901749
  8   1.168026 -0.537438 -0.063437 -0.468357 1.154679 -0.428336
  9   6.790376 -0.619176 0.015206 0.000674 -0.226801 -0.418317
 10   8.637599 0.544015 -0.090417 -1.015216 0.064206 -0.818986
 11   6.790465 -0.619039 0.017802 -0.010298 -0.169923 -0.306571
 12   -2.022474 -0.104699 -2.873818 0.298873 1.361800 -2.901888
 13   1.167898 -0.537463 0.063297 1.190890 -0.233316 -0.982994
 14   7.002743 -0.617765 -0.183752 0.047085 0.002238 -0.377133
 15   8.209042 0.615527 -0.255885 1.570090 -0.000063 -0.121965
 16   7.002735 -0.617911 -0.183641 0.047579 0.002236 -0.282577
 17   1.574674 0.609930 -0.000899 -0.761610 0.006658 -0.147482
 18   -0.602177 0.511412 -0.000006 0.000000 0.000000 0.000000
 19   3.673773 0.177020 1.119313 -0.000002 -0.000014 -0.174510
 20   3.673767 0.176993 -1.117566 0.000007 -0.000003 -0.174546
 21   3.942357 1.334540 1.627658 0.000002 -0.000011 -0.000026
 22   -0.246060 -0.011889 0.516521 -0.000011 0.000031 0.000025
 23   3.942374 1.334565 -1.631083 0.000019 0.000002 -0.000024
 24   -0.246150 -0.011872 -0.516511 -0.000005 -0.000006 0.000048
 25   4.941364 1.997338 1.629330 0.000018 0.261744 -0.000024
 26   4.941382 1.997366 -1.629410 -0.000001 -0.261756 -0.000024
 27   2.914462 1.619264 1.514501 -0.000019 -0.000022 -0.000050
 28   2.916892 1.618870 -1.501142 -0.000002 -0.000009 -0.000024
 29   8.824059 0.150544 0.091743 0.000006 -0.000231 -0.174534
 30   2.111085 -0.561179 1.784320 -0.000008 -0.000682 0.000024
 31   2.121290 -0.561289 -1.853599 0.000000 0.000000 -0.000002
 32   -0.814395 -0.093824 3.127092 3.071965 -0.114691 1.239365
 33   14.298673 -0.408176 0.471578 0.000248 0.000063 -1.896136
 34   15.835795 0.581398 0.242756 -0.214735 0.106913 -0.097869
 35   -0.815868 -0.091229 -3.114430 0.066464 3.132818 -1.010216
 36   14.294526 -0.410349 -0.467541 0.000021 -0.000012 -2.607695
 37   15.834409 0.579420 -0.284600 -0.006092 -0.035255 0.214508
 38   1.139685 -3.453749 -2.823813 0.000000 0.000000 0.000001
 39   -4.457742 -1.054854 -0.746180 0.000000 0.000000 0.000000
 40   1.118101 -3.449769 3.237290 0.000000 0.000001 0.000000
 41   -4.433840 -1.059130 0.959566 -0.000001 0.000000 0.000000
 42   -0.657468 1.697302 -2.688614 0.000000 0.000002 0.000000
 43   -0.664068 1.698578 2.869377 0.000000 0.000002 0.000000
time 20
  0   -0.967547 0.175787 -20.574476 0.000000 0.000000 -1.572114
  1   -1.093036 0.000002 -0.326057 -1.570756 -1.570425 -0.000219
  2   2.262337 0.113614 0.064702 0.069482 0.005957 -0.096637
  3   2.380047 0.353302 0.047440 0.331522 -0.002785 -0.002183
  4   2.033756 0.190472 -0.000128 0.415206 0.056543 -0.138271
  5   2.451511 0.204909 -0.003447 -0.104670 -0.001781 -0.027626
  6   7.247600 -0.397300 -0.109469 0.000001 0.000033 0.418441
  7   -2.022252 -0.104661 3.136172 -0.298783 -1.361862 -2.901749
  8   1.168026 -0.537438 -0.063437 -0.457726 1.156440 -0.418657
  9   6.790376 -0.619176 0.015206 0.000674 -0.226801 -0.418317
 10   8.637599 0.544015 -0.090417 -1.015216 0.064206 -0.818986
 11   6.790465 -0.619039 0.017802 -0.010298 -0.169923 -0.306571
 12   -2.022474 -0.104699 -2.873818 0.298873 1.361800 -2.901888
 13   1.167898 -0.537463 0.063297 1.193772 -0.229451 -0.983781
 14   7.002743 -0.617765 -0.183752 0.047085 0.002238 -0.377133
 15   8.209042 0.615527 -0.255885 1.570090 -0.000063 -0.121965
 16   7.002735 -0.617911 -0.183641 0.047532 0.002236 -0.282577
 17   1.574674 0.609930 -0.000899 -0.761610 0.006658 -0.152139
 18   -0.602177 0.511412 -0.000006 0.000000 0.000000 0.000000
 19   3.673773 0.177020 1.119313 -0.000002 -0.000014 -0.174510
 20   3.673767 0.176993 -1.117566 0.000007 -0.000003 -0.174546
 21   3.942357 1.334540 1.627658 0.000002 -0.000011 -0.000026
 22   -0.246060 -0.011889 0.516521 -0.000011 0.000031 0.000025
 23   3.942374 1.334565 -1.631083 0.000019 0.000002 -0.000024
 24   -0.246150 -0.011872 -0.516511 -0.000005 -0.000006 0.000048
 25   4.941364 1.997338 1.629330 0.000018 0.261744 -0.000024
 26   4.941382 1.997366 -1.629410 -0.000001 -0.261756 -0.000024
 27   2.914462 1.619264 1.514501 -0.000019 -0.000022 -0.000050
 28   2.916892 1.618870 -1.501142 -0.000002 -0.000009 -0.000024
 29   8.824059 0.150544 0.091743 0.000006 -0.000231 -0.174534
 30   2.111085 -0.561179 1.784320 -0.000008 -0.000682 0.000024
 31   2.121290 -0.561289 -1.853599 0.000000 0.000000 -0.000002
 32   -0.814395 -0.093824 3.127092 3.071965 -0.114691 1.239365
 33   14.298673 -0.408176 0.471578 0.000248 0.000063 -1.896136
 34   15.835795 0.581398 0.242756 -0.214735 0.106913 -0.097869
 35   -0.815868 -0.091229 -3.114430 0.066464 3.132818 -1.010216
 36   14.294526 -0.410349 -0.467541 0.000021 -0.000012 -2.607695
 37   15.834409 0.579420 -0.284600 -0.006092 -0.035255 0.214508
 38   1.139685 -3.453749 -2.823813 0.000000 0.000000 0.000001
 39   -4.457742 -1.054854 -0.746180 0.000000 0.000000 0.000000
 40   1.118101 -3.449769 3.237290 0.000000 0.000001 0.000000
 41   -4.433840 -1.059130 0.959566 -0.000001 0.000000 0.000000
 42   -0.657468 1.697302 -2.688614 0.000000 0.000002 0.000000
 43   -0.664068 1.698578 2.869377 0.000000 0.000002 0.000000
time 21
  0   -0.967547 0.175787 -20.574476 0.000000 0.000000 -1.572114
  1   -1.093036 0.000002 -0.326057 -1.570756 -1.570425 -0.000219
  2   2.262337 0.113614 0.064702 0.069482 0.005957 -0.095463
  3   2.380047 0.353302 0.047440 0.331522 -0.002785 -0.000980
  4   2.033756 0.190472 -0.000128 0.415206 0.056543 -0.137111
  5   2.451511 0.204909 -0.003447 -0.104670 -0.001781 -0.026561
  6   7.247600 -0.397300 -0.109469 0.000001 0.000033 0.418441
  7   -2.022252 -0.104661 3.136172 -0.298783 -1.361862 -2.901749
  8   1.168026 -0.537438 -0.063437 -0.447158 1.158352 -0.409105
  9   6.790376 -0.619176 0.015206 0.000674 -0.226801 -0.418317
 10   8.637599 0.544015 -0.090417 -1.015216 0.064206 -0.818986
 11   6.790465 -0.619039 0.017802 -0.010298 -0.169923 -0.306571
 12   -2.022474 -0.104699 -2.873818 0.298873 1.361800 -2.901792
 13   1.167898 -0.537463 0.063297 1.196303 -0.225586 -0.984144
 14   7.002743 -0.617765 -0.183752 0.047085 0.002238 -0.377133
 15   8.209042 0.615527 -0.255885 1.570090 -0.000063 -0.121965
 16   7.002735 -0.617911 -0.183641 0.047532 0.002236 -0.282577
 17   1.574674 0.609930 -0.000899 -0.761610 0.006658 -0.156834
 18   -0.602177 0.511412 -0.000006 0.000000 0.000000 0.000000
 19   3.673773 0.177020 1.119313 -0.000002 -0.000014 -0.174510
 20   3.673767 0.176993 -1.117566 0.000007 -0.000003 -0.174546
 21   3.942357 1.334540 1.627658 0.000002 -0.000011 -0.000026
 22   -0.246060 -0.011889 0.516521 -0.000011 0.000031 0.000025
 23   3.942374 1.334565 -1.631083 0.000019 0.000002 -0.000024
 24   -0.246150 -0.011872 -0.516511 -0.000005 -0.000006 0.000048
 25   4.941364 1.997338 1.629330 0.000018 0.261744 -0.000024
 26   4.941382 1.997366 -1.629410 -0.000001 -0.261756 -0.000024
 27   2.914462 1.619264 1.514501 -0.000019 -0.000022 -0.000050
 28   2.916892 1.618870 -1.501142 -0.000002 -0.000009 -0.000024
 29   8.824059 0.150544 0.091743 0.000006 -0.000231 -0.174534
 30   2.111085 -0.561179 1.784320 -0.000008 -0.000682 0.000024
 31   2.121290 -0.561289 -1.853599 0.000000 0.000000 -0.000002
 32   -0.814395 -0.093824 3.127092 3.071965 -0.114691 1.239365
 33   14.298673 -0.408176 0.471578 0.000248 0.000063 -1.896136
 34   15.835795 0.581398 0.242756 -0.214735 0.106913 -0.097869
 35   -0.815868 -0.091229 -3.114430 0.066464 3.132818 -1.010216
 36   14.294526 -0.410349 -0.467541 0.000021 -0.000012 -2.607695
 37   15.834409 0.579420 -0.284600 -0.006092 -0.035255 0.214508
 38   1.139685 -3.453749 -2.823813 0.000000 0.000000 0.000001
 39   -4.457742 -1.054854 -0.746180 0.000000 0.000000 0.000000
 40   1.118101 -3.449769 3.237290 0.000000 0.000001 0.000000
 41   -4.433840 -1.059130 0.959566 -0.000001 0.000000 0.000000
 42   -0.657468 1.697302 -2.688614 0.000000 0.000002 0.000000
 43   -0.664068 1.698578 2.869377 0.000000 0.000002 0.000000
time 22
  0   -0.967547 0.175787 -20.574476 0.000000 0.000000 -1.572114
  1   -1.093036 0.000002 -0.326057 -1.570756 -1.570425 -0.000219
  2   2.262337 0.113614 0.064702 0.069482 0.005957 -0.094342
  3   2.380047 0.353302 0.047440 0.331522 -0.002785 0.000184
  4   2.033756 0.190472 -0.000128 0.415206 0.056543 -0.135915
  5   2.451511 0.204909 -0.003447 -0.104670 -0.001781 -0.025397
  6   7.247600 -0.397300 -0.109469 0.000001 0.000033 0.418441
  7   -2.022252 -0.104661 3.136172 -0.298783 -1.361862 -2.901749
  8   1.168026 -0.537438 -0.063437 -0.436527 1.160113 -0.399173
  9   6.790376 -0.619176 0.015206 0.000674 -0.226801 -0.418317
 10   8.637599 0.544015 -0.090417 -1.015216 0.064206 -0.818986
 11   6.790465 -0.619039 0.017802 -0.010298 -0.169923 -0.306571
 12   -2.022474 -0.104699 -2.873818 0.298873 1.361800 -2.901888
 13   1.167898 -0.537463 0.063297 1.198904 -0.221671 -0.984689
 14   7.002743 -0.617765 -0.183752 0.047085 0.002238 -0.377133
 15   8.209042 0.615527 -0.255885 1.570090 -0.000063 -0.121965
 16   7.002735 -0.617911 -0.183641 0.047532 0.002236 -0.282577
 17   1.574674 0.609930 -0.000899 -0.761610 0.006658 -0.161454
 18   -0.602177 0.511412 -0.000006 0.000000 0.000000 0.000000
 19   3.673773 0.177020 1.119313 -0.000002 -0.000014 -0.174510
 20   3.673767 0.176993 -1.117566 0.000007 -0.000003 -0.174546
 21   3.942357 1.334540 1.627658 0.000002 -0.000011 -0.000026
 22   -0.246060 -0.011889 0.516521 -0.000011 0.000031 0.000025
 23   3.942374 1.334565 -1.631083 0.000019 0.000002 -0.000024
 24   -0.246150 -0.011872 -0.516511 -0.000005 -0.000006 0.000048
 25   4.941364 1.997338 1.629330 0.000018 0.261744 -0.000024
 26   4.941382 1.997366 -1.629410 -0.000001 -0.261756 -0.000024
 27   2.914462 1.619264 1.514501 -0.000019 -0.000022 -0.000050
 28   2.916892 1.618870 -1.501142 -0.000002 -0.000009 -0.000024
 29   8.824059 0.150544 0.091743 0.000006 -0.000231 -0.174534
 30   2.111085 -0.561179 1.784320 -0.000008 -0.000682 0.000024
 31   2.121290 -0.561289 -1.853599 0.000000 0.000000 -0.000002
 32   -0.814395 -0.093824 3.127092 3.071965 -0.114691 1.239365
 33   14.298673 -0.408176 0.471578 0.000248 0.000063 -1.896136
 34   15.835795 0.581398 0.242756 -0.214735 0.106913 -0.097869
 35   -0.815868 -0.091229 -3.114430 0.066464 3.132818 -1.010216
 36   14.294526 -0.410349 -0.467541 0.000021 -0.000012 -2.607695
 37   15.834409 0.579420 -0.284600 -0.006092 -0.035255 0.214508
 38   1.139685 -3.453749 -2.823813 0.000000 0.000000 0.000001
 39   -4.457742 -1.054854 -0.746180 0.000000 0.000000 0.000000
 40   1.118101 -3.449769 3.237290 0.000000 0.000001 0.000000
 41   -4.433840 -1.059130 0.959566 -0.000001 0.000000 0.000000
 42   -0.657468 1.697302 -2.688614 0.000000 0.000002 0.000000
 43   -0.664068 1.698578 2.869377 0.000000 0.000002 0.000000
time 23
  0   -0.967547 0.175787 -20.574476 0.000000 0.000000 -1.572114
  1   -1.093036 0.000002 -0.326057 -1.570756 -1.570425 -0.000219
  2   2.262337 0.113614 0.064702 0.069482 0.005957 -0.093204
  3   2.380047 0.353302 0.047440 0.331522 -0.002785 0.001387
  4   2.033756 0.190472 -0.000128 0.415206 0.056543 -0.134755
  5   2.451511 0.204909 -0.003447 -0.104670 -0.001781 -0.024233
  6   7.247600 -0.397300 -0.109469 0.000001 0.000033 0.418441
  7   -2.022252 -0.104661 3.136172 -0.298783 -1.361862 -2.901749
  8   1.168026 -0.537438 -0.063437 -0.425706 1.161874 -0.389431
  9   6.790376 -0.619176 0.015206 0.000674 -0.226801 -0.418317
 10   8.637599 0.544015 -0.090417 -1.015216 0.064206 -0.818986
 11   6.790465 -0.619039 0.017802 -0.010298 -0.169923 -0.306571
 12   -2.022474 -0.104699 -2.873818 0.298873 1.361800 -2.901888
 13   1.167898 -0.537463 0.063297 1.201504 -0.217806 -0.985355
 14   7.002743 -0.617765 -0.183752 0.047085 0.002238 -0.377133
 15   8.209042 0.615527 -0.255885 1.570090 -0.000063 -0.121965
 16   7.002735 -0.617911 -0.183641 0.047532 0.002236 -0.282577
 17   1.574674 0.609930 -0.000899 -0.761610 0.006658 -0.166222
 18   -0.602177 0.511412 -0.000006 0.000000 0.000000 0.000000
 19   3.673773 0.177020 1.119313 -0.000002 -0.000014 -0.174510
 20   3.673767 0.176993 -1.117566 0.000007 -0.000003 -0.174546
 21   3.942357 1.334540 1.627658 0.000002 -0.000011 -0.000026
 22   -0.246060 -0.011889 0.516521 -0.000011 0.000031 0.000025
 23   3.942374 1.334565 -1.631083 0.000019 0.000002 -0.000024
 24   -0.246150 -0.011872 -0.516511 -0.000005 -0.000006 0.000048
 25   4.941364 1.997338 1.629330 0.000018 0.261744 -0.000024
 26   4.941382 1.997366 -1.629410 -0.000001 -0.261756 -0.000024
 27   2.914462 1.619264 1.514501 -0.000019 -0.000022 -0.000050
 28   2.916892 1.618870 -1.501142 -0.000002 -0.000009 -0.000024
 29   8.824059 0.150544 0.091743 0.000006 -0.000231 -0.174534
 30   2.111085 -0.561179 1.784320 -0.000008 -0.000682 0.000024
 31   2.121290 -0.561289 -1.853599 0.000000 0.000000 -0.000002
 32   -0.814395 -0.093824 3.127092 3.071965 -0.114691 1.239365
 33   14.298673 -0.408176 0.471578 0.000248 0.000063 -1.896136
 34   15.835795 0.581398 0.242756 -0.214735 0.106913 -0.097869
 35   -0.815868 -0.091229 -3.114430 0.066464 3.132818 -1.010216
 36   14.294526 -0.410349 -0.467541 0.000021 -0.000012 -2.607695
 37   15.834409 0.579420 -0.284600 -0.006092 -0.035255 0.214508
 38   1.139685 -3.453749 -2.823813 0.000000 0.000000 0.000001
 39   -4.457742 -1.054854 -0.746180 0.000000 0.000000 0.000000
 40   1.118101 -3.449769 3.237290 0.000000 0.000001 0.000000
 41   -4.433840 -1.059130 0.959566 -0.000001 0.000000 0.000000
 42   -0.657468 1.697302 -2.688614 0.000000 0.000002 0.000000
 43   -0.664068 1.698578 2.869377 0.000000 0.000002 0.000000
time 24
  0   -0.967547 0.175787 -20.574476 0.000000 0.000000 -1.572114
  1   -1.093036 0.000002 -0.326057 -1.570756 -1.570425 -0.000219
  2   2.262337 0.113614 0.064702 0.069482 0.005957 -0.092029
  3   2.380047 0.353302 0.047440 0.331522 -0.002785 0.002489
  4   2.033756 0.190472 -0.000128 0.415206 0.056543 -0.133559
  5   2.451511 0.204909 -0.003447 -0.104670 -0.001781 -0.023094
  6   7.247600 -0.397300 -0.109469 0.000001 0.000033 0.418441
  7   -2.022252 -0.104661 3.136172 -0.298783 -1.361862 -2.901749
  8   1.168026 -0.537438 -0.063437 -0.414696 1.163635 -0.379436
  9   6.790376 -0.619176 0.015206 0.000674 -0.226801 -0.418317
 10   8.637599 0.544015 -0.090417 -1.015216 0.064206 -0.818986
 11   6.790465 -0.619039 0.017802 -0.010298 -0.169923 -0.306571
 12   -2.022474 -0.104699 -2.873818 0.298873 1.361800 -2.901792
 13   1.167898 -0.537463 0.063297 1.204316 -0.213890 -0.986021
 14   7.002743 -0.617765 -0.183752 0.047085 0.002238 -0.377133
 15   8.209042 0.615527 -0.255885 1.570090 -0.000063 -0.121965
 16   7.002735 -0.617911 -0.183641 0.047532 0.002236 -0.282577
 17   1.574674 0.609930 -0.000899 -0.761610 0.006658 -0.170842
 18   -0.602177 0.511412 -0.000006 0.000000 0.000000 0.000000
 19   3.673773 0.177020 1.119313 -0.000002 -0.000014 -0.174510
 20   3.673767 0.176993 -1.117566 0.000007 -0.000003 -0.174546
 21   3.942357 1.334540 1.627658 0.000002 -0.000011 -0.000026
 22   -0.246060 -0.011889 0.516521 -0.000011 0.000031 0.000025
 23   3.942374 1.334565 -1.631083 0.000019 0.000002 -0.000024
 24   -0.246150 -0.011872 -0.516511 -0.000005 -0.000006 0.000048
 25   4.941364 1.997338 1.629330 0.000018 0.261744 -0.000024
 26   4.941382 1.997366 -1.629410 -0.000001 -0.261756 -0.000024
 27   2.914462 1.619264 1.514501 -0.000019 -0.000022 -0.000050
 28   2.916892 1.618870 -1.501142 -0.000002 -0.000009 -0.000024
 29   8.824059 0.150544 0.091743 0.000006 -0.000231 -0.174534
 30   2.111085 -0.561179 1.784320 -0.000008 -0.000682 0.000024
 31   2.121290 -0.561289 -1.853599 0.000000 0.000000 -0.000002
 32   -0.814395 -0.093824 3.127092 3.071965 -0.114691 1.239365
 33   14.298673 -0.408176 0.471578 0.000248 0.000063 -1.896136
 34   15.835795 0.581398 0.242756 -0.214735 0.106913 -0.097869
 35   -0.815868 -0.091229 -3.114430 0.066464 3.132818 -1.010216
 36   14.294526 -0.410349 -0.467541 0.000021 -0.000012 -2.607695
 37   15.834409 0.579420 -0.284600 -0.006092 -0.035255 0.214508
 38   1.139685 -3.453749 -2.823813 0.000000 0.000000 0.000001
 39   -4.457742 -1.054854 -0.746180 0.000000 0.000000 0.000000
 40   1.118101 -3.449769 3.237290 0.000000 0.000001 0.000000
 41   -4.433840 -1.059130 0.959566 -0.000001 0.000000 0.000000
 42   -0.657468 1.697302 -2.688614 0.000000 0.000002 0.000000
 43   -0.664068 1.698578 2.869377 0.000000 0.000002 0.000000
time 25
  0   -0.967547 0.175787 -20.574476 0.000000 0.000000 -1.572114
  1   -1.093036 0.000002 -0.326057 -1.570756 -1.570425 -0.000219
  2   2.262337 0.113614 0.064702 0.069482 0.005957 -0.090801
  3   2.380047 0.353302 0.047440 0.331522 -0.002785 0.003693
  4   2.033756 0.190472 -0.000128 0.415206 0.056543 -0.132399
  5   2.451511 0.204909 -0.003447 -0.104670 -0.001781 -0.021831
  6   7.247600 -0.397300 -0.109469 0.000001 0.000033 0.418441
  7   -2.022252 -0.104661 3.136172 -0.298783 -1.361862 -2.901749
  8   1.168026 -0.537438 -0.063437 -0.403875 1.165396 -0.369314
  9   6.790376 -0.619176 0.015206 0.000674 -0.226801 -0.418317
 10   8.637599 0.544015 -0.090417 -1.015216 0.064206 -0.818986
 11   6.790465 -0.619039 0.017802 -0.010298 -0.169923 -0.306571
 12   -2.022474 -0.104699 -2.873818 0.298873 1.361800 -2.901888
 13   1.167898 -0.537463 0.063297 1.206706 -0.210025 -0.986505
 14   7.002743 -0.617765 -0.183752 0.047085 0.002238 -0.377133
 15   8.209042 0.615527 -0.255885 1.570090 -0.000063 -0.121965
 16   7.002735 -0.617911 -0.183641 0.047532 0.002236 -0.282577
 17   1.574674 0.609930 -0.000899 -0.761610 0.006658 -0.175351
 18   -0.602177 0.511412 -0.000006 0.000000 0.000000 0.000000
 19   3.673773 0.177020 1.119313 -0.000002 -0.000014 -0.174510
 20   3.673767 0.176993 -1.117566 0.000007 -0.000003 -0.174546
 21   3.942357 1.334540 1.627658 0.000002 -0.000011 -0.000026
 22   -0.246060 -0.011889 0.516521 -0.000011 0.000031 0.000025
 23   3.942374 1.334565 -1.631083 0.000019 0.000002 -0.000024
 24   -0.246150 -0.011872 -0.516511 -0.000005 -0.000006 0.000048
 25   4.941364 1.997338 1.629330 0.000018 0.261744 -0.000024
 26   4.941382 1.997366 -1.629410 -0.000001 -0.261756 -0.000024
 27   2.914462 1.619264 1.514501 -0.000019 -0.000022 -0.000050
 28   2.916892 1.618870 -1.501142 -0.000002 -0.000009 -0.000024
 29   8.824059 0.150544 0.091743 0.000006 -0.000231 -0.174534
 30   2.111085 -0.561179 1.784320 -0.000008 -0.000682 0.000024
 31   2.121290 -0.561289 -1.853599 0.000000 0.000000 -0.000002
 32   -0.814395 -0.093824 3.127092 3.071965 -0.114691 1.239365
 33   14.298673 -0.408176 0.471578 0.000248 0.000063 -1.896136
 34   15.835795 0.581398 0.242756 -0.214735 0.106913 -0.097869
 35   -0.815868 -0.091229 -3.114430 0.066464 3.132818 -1.010216
 36   14.294526 -0.410349 -0.467541 0.000021 -0.000012 -2.607695
 37   15.834409 0.579420 -0.284600 -0.006092 -0.035255 0.214508
 38   1.139685 -3.453749 -2.823813 0.000000 0.000000 0.000001
 39   -4.457742 -1.054854 -0.746180 0.000000 0.000000 0.000000
 40   1.118101 -3.449769 3.237290 0.000000 0.000001 0.000000
 41   -4.433840 -1.059130 0.959566 -0.000001 0.000000 0.000000
 42   -0.657468 1.697302 -2.688614 0.000000 0.000002 0.000000
 43   -0.664068 1.698578 2.869377 0.000000 0.000002 0.000000
time 26
  0   -0.967547 0.175787 -20.574476 0.000000 0.000000 -1.572114
  1   -1.093036 0.000002 -0.326057 -1.570756 -1.570425 -0.000219
  2   2.262337 0.113614 0.064702 0.069482 0.005957 -0.089662
  3   2.380047 0.353302 0.047440 0.331522 -0.002785 0.004856
  4   2.033756 0.190472 -0.000128 0.415206 0.056543 -0.131239
  5   2.451511 0.204909 -0.003447 -0.104670 -0.001781 -0.020667
  6   7.247600 -0.397300 -0.109469 0.000001 0.000033 0.418441
  7   -2.022252 -0.104661 3.136172 -0.298783 -1.361862 -2.901749
  8   1.168026 -0.537438 -0.063437 -0.392737 1.167157 -0.359066
  9   6.790376 -0.619176 0.015206 0.000674 -0.226801 -0.418317
 10   8.637599 0.544015 -0.090417 -1.015216 0.064206 -0.818986
 11   6.790465 -0.619039 0.017802 -0.010298 -0.169923 -0.306571
 12   -2.022474 -0.104699 -2.873818 0.298873 1.361800 -2.901888
 13   1.167898 -0.537463 0.063297 1.209307 -0.206109 -0.987050
 14   7.002743 -0.617765 -0.183752 0.047085 0.002238 -0.377133
 15   8.209042 0.615527 -0.255885 1.570090 -0.000063 -0.121965
 16   7.002735 -0.617911 -0.183641 0.047532 0.002236 -0.282577
 17   1.574674 0.609930 -0.000899 -0.761610 0.006658 -0.180119
 18   -0.602177 0.511412 -0.000006 0.000000 0.000000 0.000000
 19   3.673773 0.177020 1.119313 -0.000002 -0.000014 -0.174510
 20   3.673767 0.176993 -1.117566 0.000007 -0.000003 -0.174546
 21   3.942357 1.334540 1.627658 0.000002 -0.000011 -0.000026
 22   -0.246060 -0.011889 0.516521 -0.000011 0.000031 0.000025
 23   3.942374 1.334565 -1.631083 0.000019 0.000002 -0.000024
 24   -0.246150 -0.011872 -0.516511 -0.000005 -0.000006 0.000048
 25   4.941364 1.997338 1.629330 0.000018 0.261744 -0.000024
 26   4.941382 1.997366 -1.629410 -0.000001 -0.261756 -0.000024
 27   2.914462 1.619264 1.514501 -0.000019 -0.000022 -0.000050
 28   2.916892 1.618870 -1.501142 -0.000002 -0.000009 -0.000024
 29   8.824059 0.150544 0.091743 0.000006 -0.000231 -0.174534
 30   2.111085 -0.561179 1.784320 -0.000008 -0.000682 0.000024
 31   2.121290 -0.561289 -1.853599 0.000000 0.000000 -0.000002
 32   -0.814395 -0.093824 3.127092 3.071965 -0.114691 1.239365
 33   14.298673 -0.408176 0.471578 0.000248 0.000063 -1.896136
 34   15.835795 0.581398 0.242756 -0.214735 0.106913 -0.097869
 35   -0.815868 -0.091229 -3.114430 0.066464 3.132818 -1.010216
 36   14.294526 -0.410349 -0.467541 0.000021 -0.000012 -2.607695
 37   15.834409 0.579420 -0.284600 -0.006092 -0.035255 0.214508
 38   1.139685 -3.453749 -2.823813 0.000000 0.000000 0.000001
 39   -4.457742 -1.054854 -0.746180 0.000000 0.000000 0.000000
 40   1.118101 -3.449769 3.237290 0.000000 0.000001 0.000000
 41   -4.433840 -1.059130 0.959566 -0.000001 0.000000 0.000000
 42   -0.657468 1.697302 -2.688614 0.000000 0.000002 0.000000
 43   -0.664068 1.698578 2.869377 0.000000 0.000002 0.000000
time 27
  0   -0.967547 0.175787 -20.574476 0.000000 0.000000 -1.572114
  1   -1.093036 0.000002 -0.326057 -1.570756 -1.570425 -0.000219
  2   2.262337 0.113614 0.064702 0.069482 0.005957 -0.088506
  3   2.380047 0.353302 0.047440 0.331522 -0.002785 0.005999
  4   2.033756 0.190472 -0.000128 0.415206 0.056543 -0.130079
  5   2.451511 0.204909 -0.003447 -0.104670 -0.001781 -0.019503
  6   7.247600 -0.397300 -0.109469 0.000001 0.000033 0.418441
  7   -2.022252 -0.104661 3.136172 -0.298783 -1.361862 -2.901749
  8   1.168026 -0.537438 -0.063437 -0.381726 1.168616 -0.348881
  9   6.790376 -0.619176 0.015206 0.000674 -0.226801 -0.418317
 10   8.637599 0.544015 -0.090417 -1.015216 0.064206 -0.818986
 11   6.790465 -0.619039 0.017802 -0.010298 -0.169923 -0.306571
 12   -2.022474 -0.104699 -2.873818 0.298873 1.361800 -2.901888
 13   1.167898 -0.537463 0.063297 1.212119 -0.202244 -0.987534
 14   7.002743 -0.617765 -0.183752 0.047085 0.002238 -0.377133
 15   8.209042 0.615527 -0.255885 1.570090 -0.000063 -0.121965
 16   7.002735 -0.617911 -0.183641 0.047532 0.002236 -0.282577
 17   1.574674 0.609930 -0.000899 -0.761610 0.006658 -0.184813
 18   -0.602177 0.511412 -0.000006 0.000000 0.000000 0.000000
 19   3.673773 0.177020 1.119313 -0.000002 -0.000014 -0.174510
 20   3.673767 0.176993 -1.117566 0.000007 -0.000003 -0.174546
 21   3.942357 1.334540 1.627658 0.000002 -0.000011 -0.000026
 22   -0.246060 -0.011889 0.516521 -0.000011 0.000031 0.000025
 23   3.942374 1.334565 -1.631083 0.000019 0.000002 -0.000024
 24   -0.246150 -0.011872 -0.516511 -0.000005 -0.000006 0.000048
 25   4.941364 1.997338 1.629330 0.000018 0.261744 -0.000024
 26   4.941382 1.997366 -1.629410 -0.000001 -0.261756 -0.000024
 27   2.914462 1.619264 1.514501 -0.000019 -0.000022 -0.000050
 28   2.916892 1.618870 -1.501142 -0.000002 -0.000009 -0.000024
 29   8.824059 0.150544 0.091743 0.000006 -0.000231 -0.174534
 30   2.111085 -0.561179 1.784320 -0.000008 -0.000682 0.000024
 31   2.121290 -0.561289 -1.853599 0.000000 0.000000 -0.000002
 32   -0.814395 -0.093824 3.127092 3.071965 -0.114691 1.239365
 33   14.298673 -0.408176 0.471578 0.000248 0.000063 -1.896136
 34   15.835795 0.581398 0.242756 -0.214735 0.106913 -0.097869
 35   -0.815868 -0.091229 -3.114430 0.066464 3.132818 -1.010216
 36   14.294526 -0.410349 -0.467541 0.000021 -0.000012 -2.607695
 37   15.834409 0.579420 -0.284600 -0.006092 -0.035255 0.214508
 38   1.139685 -3.453749 -2.823813 0.000000 0.000000 0.000001
 39   -4.457742 -1.054854 -0.746180 0.000000 0.000000 0.000000
 40   1.118101 -3.449769 3.237290 0.000000 0.000001 0.000000
 41   -4.433840 -1.059130 0.959566 -0.000001 0.000000 0.000000
 42   -0.657468 1.697302 -2.688614 0.000000 0.000002 0.000000
 43   -0.664068 1.698578 2.869377 0.000000 0.000002 0.000000
time 28
  0   -0.967547 0.175787 -20.574476 0.000000 0.000000 -1.572114
  1   -1.093036 0.000002 -0.326057 -1.570756 -1.570425 -0.000219
  2   2.262337 0.113614 0.064702 0.069482 0.005957 -0.087367
  3   2.380047 0.353302 0.047440 0.331522 -0.002785 0.007162
  4   2.033756 0.190472 -0.000128 0.415206 0.056543 -0.128883
  5   2.451511 0.204909 -0.003447 -0.104670 -0.001781 -0.018339
  6   7.247600 -0.397300 -0.109469 0.000001 0.000033 0.418441
  7   -2.022252 -0.104661 3.136172 -0.298783 -1.361862 -2.901749
  8   1.168026 -0.537438 -0.063437 -0.370463 1.170226 -0.338443
  9   6.790376 -0.619176 0.015206 0.000674 -0.226801 -0.418317
 10   8.637599 0.544015 -0.090417 -1.015216 0.064206 -0.818986
 11   6.790465 -0.619039 0.017802 -0.010298 -0.169923 -0.306571
 12   -2.022474 -0.104699 -2.873818 0.298873 1.361800 -2.901888
 13   1.167898 -0.537463 0.063297 1.214720 -0.198328 -0.988200
 14   7.002743 -0.617765 -0.183752 0.047085 0.002238 -0.377133
 15   8.209042 0.615527 -0.255885 1.570090 -0.000063 -0.121965
 16   7.002735 -0.617911 -0.183641 0.047579 0.002236 -0.282577
 17   1.574674 0.609930 -0.000899 -0.761610 0.006658 -0.189396
 18   -0.602177 0.511412 -0.000006 0.000000 0.000000 0.000000
 19   3.673773 0.177020 1.119313 -0.000002 -0.000014 -0.174510
 20   3.673767 0.176993 -1.117566 0.000007 -0.000003 -0.174546
 21   3.942357 1.334540 1.627658 0.000002 -0.000011 -0.000026
 22   -0.246060 -0.011889 0.516521 -0.000011 0.000031 0.000025
 23   3.942374 1.334565 -1.631083 0.000019 0.000002 -0.000024
 24   -0.246150 -0.011872 -0.516511 -0.000005 -0.000006 0.000048
 25   4.941364 1.997338 1.629330 0.000018 0.261744 -0.000024
 26   4.941382 1.997366 -1.629410 -0.000001 -0.261756 -0.000024
 27   2.914462 1.619264 1.514501 -0.000019 -0.000022 -0.000050
 28   2.916892 1.618870 -1.501142 -0.000002 -0.000009 -0.000024
 29   8.824059 0.150544 0.091743 0.000006 -0.000231 -0.174534
 30   2.111085 -0.561179 1.784320 -0.000008 -0.000682 0.000024
 31   2.121290 -0.561289 -1.853599 0.000000 0.000000 -0.000002
 32   -0.814395 -0.093824 3.127092 3.071965 -0.114691 1.239365
 33   14.298673 -0.408176 0.471578 0.000248 0.000063 -1.896136
 34   15.835795 0.581398 0.242756 -0.214735 0.106913 -0.097869
 35   -0.815868 -0.091229 -3.114430 0.066464 3.132818 -1.010216
 36   14.294526 -0.410349 -0.467541 0.000021 -0.000012 -2.607695
 37   15.834409 0.579420 -0.284600 -0.006092 -0.035255 0.214508
 38   1.139685 -3.453749 -2.823813 0.000000 0.000000 0.000001
 39   -4.457742 -1.054854 -0.746180 0.000000 0.000000 0.000000
 40   1.118101 -3.449769 3.237290 0.000000 0.000001 0.000000
 41   -4.433840 -1.059130 0.959566 -0.000001 0.000000 0.000000
 42   -0.657468 1.697302 -2.688614 0.000000 0.000002 0.000000
 43   -0.664068 1.698578 2.869377 0.000000 0.000002 0.000000
time 29
  0   -0.967547 0.175787 -20.574476 0.000000 0.000000 -1.572114
  1   -1.093036 0.000002 -0.326057 -1.570756 -1.570425 -0.000219
  2   2.262337 0.113614 0.064702 0.069482 0.005957 -0.086156
  3   2.380047 0.353302 0.047440 0.331522 -0.002785 0.008366
  4   2.033756 0.190472 -0.000128 0.415206 0.056543 -0.127687
  5   2.451511 0.204909 -0.003447 -0.104670 -0.001781 -0.017472
  6   7.247600 -0.397300 -0.109469 0.000001 0.000033 0.418441
  7   -2.022252 -0.104661 3.136172 -0.298783 -1.361862 -2.901749
  8   1.168026 -0.537438 -0.063437 -0.359135 1.171635 -0.328005
  9   6.790376 -0.619176 0.015206 0.000674 -0.226801 -0.418317
 10   8.637599 0.544015 -0.090417 -1.015216 0.064206 -0.818986
 11   6.790465 -0.619039 0.017802 -0.010298 -0.169923 -0.306571
 12   -2.022474 -0.104699 -2.873818 0.298873 1.361800 -2.901888
 13   1.167898 -0.537463 0.063297 1.217321 -0.194463 -0.988623
 14   7.002743 -0.617765 -0.183752 0.047085 0.002238 -0.377133
 15   8.209042 0.615527 -0.255885 1.570090 -0.000063 -0.121965
 16   7.002735 -0.617911 -0.183641 0.047532 0.002236 -0.282577
 17   1.574674 0.609930 -0.000899 -0.761610 0.006658 -0.194053
 18   -0.602177 0.511412 -0.000006 0.000000 0.000000 0.000000
 19   3.673773 0.177020 1.119313 -0.000002 -0.000014 -0.174510
 20   3.673767 0.176993 -1.117566 0.000007 -0.000003 -0.174546
 21   3.942357 1.334540 1.627658 0.000002 -0.000011 -0.000026
 22   -0.246060 -0.011889 0.516521 -0.000011 0.000031 0.000025
 23   3.942374 1.334565 -1.631083 0.000019 0.000002 -0.000024
 24   -0.246150 -0.011872 -0.516511 -0.000005 -0.000006 0.000048
 25   4.941364 1.997338 1.629330 0.000018 0.261744 -0.000024
 26   4.941382 1.997366 -1.629410 -0.000001 -0.261756 -0.000024
 27   2.914462 1.619264 1.514501 -0.000019 -0.000022 -0.000050
 28   2.916892 1.618870 -1.501142 -0.000002 -0.000009 -0.000024
 29   8.824059 0.150544 0.091743 0.000006 -0.000231 -0.174534
 30   2.111085 -0.561179 1.784320 -0.000008 -0.000682 0.000024
 31   2.121290 -0.561289 -1.853599 0.000000 0.000000 -0.000002
 32   -0.814395 -0.093824 3.127092 3.071965 -0.114691 1.239365
 33   14.298673 -0.408176 0.471578 0.000248 0.000063 -1.896136
 34   15.835795 0.581398 0.242756 -0.214735 0.106913 -0.097869
 35   -0.815868 -0.091229 -3.114430 0.066464 3.132818 -1.010216
 36   14.294526 -0.410349 -0.467541 0.000021 -0.000012 -2.607695
 37   15.834409 0.579420 -0.284600 -0.006092 -0.035255 0.214508
 38   1.139685 -3.453749 -2.823813 0.000000 0.000000 0.000001
 39   -4.457742 -1.054854 -0.746180 0.000000 0.000000 0.000000
 40   1.118101 -3.449769 3.237290 0.000000 0.000001 0.000000
 41   -4.433840 -1.059130 0.959566 -0.000001 0.000000 0.000000
 42   -0.657468 1.697302 -2.688614 0.000000 0.000002 0.000000
 43   -0.664068 1.698578 2.869377 0.000000 0.000002 0.000000
end
