version 1
nodes
  0 "Bip01" -1
  1 "Bip01 Pelvis" 0
  2 "Bip01 Spine" 1
  3 "Bip01 Spine1" 2
  4 "Bip01 Spine2" 3
  5 "Bip01 Spine3" 4
  6 "Bip01 Neck" 5
  7 "Bip01 L Arm" 6
  8 "Bip01 L Arm1" 7
  9 "Bip01 L Arm2" 8
 10 "Bip01 L Hand" 9
 11 "Bip06 L elbow2-smooth" 8
 12 "Bip01 R Arm" 6
 13 "Bip01 R Arm1" 12
 14 "Bip01 R Arm2" 13
 15 "Bip01 R Hand" 14
 16 "Bip06 R elbow2-smooth" 13
 17 "Bip01 Head" 6
 18 "Bip06 Head_helper" 17
 19 "Bip06 Head_eyes_l" 18
 20 "Bip06 Head_eyes_r" 18
 21 "Bip06 Head_blink_l" 18
 22 "Bip06 Head_blink_smooth_l1" 21
 23 "Bip06 Head_blink_r" 18
 24 "Bip06 Head_blink_smooth_r1" 23
 25 "Bip06 Head_L_eyebrow" 18
 26 "Bip06 Head_R_eyebrow" 18
 27 "Bip06 Head_blink_l_lid" 18
 28 "Bip06 Head_blink_r_lid" 18
 29 "Bip06 bunny" 18
 30 "Bip06 bunnyL" 29
 31 "Bip06 bunnyR" 29
 32 "Bip01 L Leg" 1
 33 "Bip01 L Leg1" 32
 34 "Bip01 L Foot" 33
 35 "Bip01 R Leg" 1
 36 "Bip01 R Leg1" 35
 37 "Bip01 R Foot" 36
 38 "Bip03 HairR1" 17
 39 "Bip03 HairR2" 38
 40 "Bip03 HairL1" 17
 41 "Bip03 HairL2" 40
 42 "Bip03 swingR" 17
 43 "Bip03 swingL" 17
end
skeleton
time 0
  0   0.243428 0.070315 -2.808308 -0.040290 -0.076191 -1.457260
  1   -1.093036 0.000002 -0.326057 -1.570651 -1.570425 -0.000171
  2   2.262337 0.113614 0.064702 -0.000052 0.000049 0.166438
  3   2.380047 0.353302 0.047440 0.000000 -0.000040 0.156939
  4   2.033756 0.190472 -0.000128 -0.000010 0.000024 0.130645
  5   2.451511 0.204909 -0.003447 0.000000 -0.000005 0.148110
  6   7.247600 -0.397300 -0.109469 0.000001 0.000009 0.052298
  7   -2.022252 -0.104661 3.136172 -0.159310 -1.174485 -3.047319
  8   1.168026 -0.537438 -0.063437 -0.570049 0.941598 -0.642409
  9   6.790376 -0.619176 0.015206 0.007665 0.002652 -0.672341
 10   8.637599 0.544015 -0.090417 -1.577510 -0.000060 -0.039548
 11   6.790465 -0.619039 0.017802 0.004709 -0.009775 -0.485939
 12   -2.022474 -0.104699 -2.873818 0.298490 1.361712 -2.901984
 13   1.167898 -0.537463 0.063297 0.939299 -1.179770 -0.974943
 14   7.002743 -0.617765 -0.183752 -0.007969 -0.003100 -0.706082
 15   8.209042 0.615527 -0.255885 1.577928 0.000315 -0.039397
 16   7.002735 -0.617911 -0.183641 0.008506 0.002180 -0.512897
 17   1.574674 0.609930 -0.000899 0.000000 0.000008 -0.427906
 18   -0.602177 0.511412 -0.000006 0.000000 0.000000 0.000000
 19   3.673773 0.177020 1.119313 -0.000002 -0.000014 -0.174510
 20   3.673767 0.176993 -1.117566 0.000007 -0.000003 -0.174546
 21   3.942357 1.334540 1.627658 0.000002 -0.000011 -0.000026
 22   -0.246060 -0.011889 0.516521 -0.000011 0.000031 0.000025
 23   3.942374 1.334565 -1.631083 0.000019 0.000002 -0.000024
 24   -0.246150 -0.011872 -0.516511 -0.000005 -0.000006 0.000048
 25   4.941364 1.997338 1.629330 0.000018 -0.000001 -0.000024
 26   4.941382 1.997366 -1.629410 -0.000001 0.000005 -0.000024
 27   2.914462 1.619264 1.514501 -0.000019 -0.000022 -0.000050
 28   2.916892 1.618870 -1.501142 -0.000002 -0.000009 -0.000024
 29   8.824059 0.150544 0.091743 0.000006 -0.000231 -0.174534
 30   2.111085 -0.561179 1.784320 -0.000008 -0.000682 0.000024
 31   2.121290 -0.561289 -1.853599 0.000000 0.000000 -0.000002
 32   -0.814395 -0.093824 3.127092 0.078087 -3.092234 -0.296451
 33   14.298673 -0.408176 0.471578 -0.000076 -0.000041 -2.385387
 34   15.835795 0.581398 0.242756 0.282834 -0.060716 0.450503
 35   -0.815868 -0.091229 -3.114430 -0.030440 3.161674 -0.341052
 36   14.294526 -0.410349 -0.467541 0.000069 0.000048 -2.398131
 37   15.834409 0.579420 -0.284600 -0.187511 0.045217 0.463556
 38   1.049839 -3.418591 -2.823813 0.019449 0.026270 0.278286
 39   -4.457742 -1.054854 -0.746180 0.000000 0.000000 0.000000
 40   1.207947 -3.484926 3.237290 0.019449 0.026271 0.278286
 41   -4.433840 -1.059130 0.959566 -0.000001 0.000000 0.000000
 42   -0.657468 1.697302 -2.688614 0.000000 0.000002 0.000000
 43   -0.664068 1.698578 2.869377 0.000000 0.000002 0.000000
time 1
  0   0.243428 0.070315 -2.808308 -0.040290 -0.076191 -1.457260
  1   -1.093036 0.000002 -0.326057 -1.570651 -1.570425 -0.000171
  2   2.262337 0.113614 0.064702 -0.000052 0.000049 0.166438
  3   2.380047 0.353302 0.047440 0.000000 -0.000040 0.156939
  4   2.033756 0.190472 -0.000128 -0.000010 0.000024 0.120931
  5   2.451511 0.204909 -0.003447 0.000000 -0.000005 0.148110
  6   7.247600 -0.397300 -0.109469 0.000001 0.000009 0.052298
  7   -2.022252 -0.104661 3.136172 -0.159310 -1.174485 -3.047319
  8   1.168026 -0.537438 -0.063437 -0.557393 0.946579 -0.628492
  9   6.790376 -0.619176 0.015206 0.007665 0.002652 -0.672341
 10   8.637599 0.544015 -0.090417 -1.577510 -0.000060 -0.039548
 11   6.790465 -0.619039 0.017802 0.004709 -0.009775 -0.485939
 12   -2.022474 -0.104699 -2.873818 0.358178 1.395641 -2.841093
 13   1.167898 -0.537463 0.063297 0.996731 -1.213029 -1.025005
 14   7.002743 -0.617765 -0.183752 -0.007912 -0.003100 -0.710785
 15   8.209042 0.615527 -0.255885 1.577928 0.000315 -0.039397
 16   7.002735 -0.617911 -0.183641 0.008506 0.002180 -0.516264
 17   1.574674 0.609930 -0.000899 0.000000 0.000008 -0.408501
 18   -0.602177 0.511412 -0.000006 0.000000 0.000000 0.000000
 19   3.673773 0.177020 1.119313 -0.000002 -0.000014 -0.174510
 20   3.673767 0.176993 -1.117566 0.000007 -0.000003 -0.174546
 21   3.942357 1.334540 1.627658 0.000002 -0.000011 -0.000026
 22   -0.246060 -0.011889 0.516521 -0.000011 0.000031 0.000025
 23   3.942374 1.334565 -1.631083 0.000019 0.000002 -0.000024
 24   -0.246150 -0.011872 -0.516511 -0.000005 -0.000006 0.000048
 25   4.941364 1.997338 1.629330 0.000018 -0.000001 -0.000024
 26   4.941382 1.997366 -1.629410 -0.000001 0.000005 -0.000024
 27   2.914462 1.619264 1.514501 -0.000019 -0.000022 -0.000050
 28   2.916892 1.618870 -1.501142 -0.000002 -0.000009 -0.000024
 29   8.824059 0.150544 0.091743 0.000006 -0.000231 -0.174534
 30   2.111085 -0.561179 1.784320 -0.000008 -0.000682 0.000024
 31   2.121290 -0.561289 -1.853599 0.000000 0.000000 -0.000002
 32   -0.814395 -0.093824 3.127092 0.078087 -3.092234 -0.296451
 33   14.298673 -0.408176 0.471578 -0.000076 -0.000041 -2.385387
 34   15.835795 0.581398 0.242756 0.278464 -0.060301 0.450635
 35   -0.815868 -0.091229 -3.114430 -0.030440 3.161674 -0.341052
 36   14.294526 -0.410349 -0.467541 0.000069 0.000048 -2.398131
 37   15.834409 0.579420 -0.284600 -0.182999 0.044756 0.463962
 38   1.049839 -3.418591 -2.823813 0.019344 0.026186 0.277126
 39   -4.457742 -1.054854 -0.746180 -0.000180 -0.000300 -0.003057
 40   1.207947 -3.484926 3.237290 0.019344 0.026187 0.277125
 41   -4.433840 -1.059130 0.959566 -0.000169 -0.000300 -0.003057
 42   -0.653562 1.705115 -2.680801 0.000288 0.006641 -0.006315
 43   -0.656255 1.702484 2.857658 -0.000962 -0.006855 -0.004810
time 2
  0   0.243428 0.070315 -2.808308 -0.040290 -0.076191 -1.457260
  1   -1.093036 0.000002 -0.326057 -1.570651 -1.570425 -0.000171
  2   2.262337 0.113614 0.064702 -0.000052 0.000049 0.166438
  3   2.380047 0.353302 0.047440 0.000000 -0.000040 0.156939
  4   2.033756 0.190472 -0.000128 -0.000010 0.000024 0.109948
  5   2.451511 0.204909 -0.003447 0.000000 -0.000005 0.148110
  6   7.247600 -0.397300 -0.109469 0.000001 0.000009 0.052298
  7   -2.022252 -0.104661 3.136172 -0.159310 -1.174572 -3.047319
  8   1.168026 -0.537438 -0.063437 -0.542332 0.951661 -0.612044
  9   6.790376 -0.619176 0.015206 0.007665 0.002652 -0.672341
 10   8.637599 0.544015 -0.090417 -1.577510 -0.000060 -0.039548
 11   6.790465 -0.619039 0.017802 0.004709 -0.009775 -0.485939
 12   -2.022474 -0.104699 -2.873818 0.463757 1.433750 -2.734246
 13   1.167898 -0.537463 0.063297 1.075463 -1.249746 -1.095831
 14   7.002743 -0.617765 -0.183752 -0.007912 -0.003157 -0.716230
 15   8.209042 0.615527 -0.255885 1.577928 0.000315 -0.039397
 16   7.002735 -0.617911 -0.183641 0.008506 0.002180 -0.520017
 17   1.574674 0.609930 -0.000899 0.000000 0.000008 -0.386768
 18   -0.602177 0.511412 -0.000006 0.000000 0.000000 0.000000
 19   3.673773 0.177020 1.119313 -0.000002 -0.000014 -0.174510
 20   3.673767 0.176993 -1.117566 0.000007 -0.000003 -0.174546
 21   3.942357 1.334540 1.627658 0.000002 -0.000011 -0.000026
 22   -0.246060 -0.011889 0.516521 -0.000011 0.000031 0.000025
 23   3.942374 1.334565 -1.631083 0.000019 0.000002 -0.000024
 24   -0.246150 -0.011872 -0.516511 -0.000005 -0.000006 0.000048
 25   4.941364 1.997338 1.629330 0.000018 -0.000001 -0.000024
 26   4.941382 1.997366 -1.629410 -0.000001 0.000005 -0.000024
 27   2.914462 1.619264 1.514501 -0.000019 -0.000022 -0.000050
 28   2.916892 1.618870 -1.501142 -0.000002 -0.000009 -0.000024
 29   8.824059 0.150544 0.091743 0.000006 -0.000231 -0.174534
 30   2.111085 -0.561179 1.784320 -0.000008 -0.000682 0.000024
 31   2.121290 -0.561289 -1.853599 0.000000 0.000000 -0.000002
 32   -0.814395 -0.093824 3.127092 0.078087 -3.092234 -0.296451
 33   14.298673 -0.408176 0.471578 -0.000076 -0.000041 -2.385228
 34   15.835795 0.581398 0.242756 0.273426 -0.059764 0.451032
 35   -0.815868 -0.091229 -3.114430 -0.030440 3.161674 -0.341052
 36   14.294526 -0.410349 -0.467541 0.000069 0.000048 -2.398131
 37   15.834409 0.579420 -0.284600 -0.177994 0.044244 0.464063
 38   1.049839 -3.418591 -2.823813 0.019070 0.025933 0.273949
 39   -4.453836 -1.054854 -0.746180 -0.000659 -0.001127 -0.011331
 40   1.207947 -3.484926 3.237290 0.019070 0.025934 0.273948
 41   -4.437746 -1.059130 0.959566 -0.000660 -0.001127 -0.011331
 42   -0.641843 1.732459 -2.653457 0.001043 0.024166 -0.023044
 43   -0.628911 1.722016 2.818594 -0.003511 -0.024979 -0.017524
time 3
  0   0.243428 0.070315 -2.808308 -0.040290 -0.076191 -1.457260
  1   -1.093036 0.000002 -0.326057 -1.570651 -1.570425 -0.000171
  2   2.262337 0.113614 0.064702 -0.000052 0.000049 0.166438
  3   2.380047 0.353302 0.047440 0.000000 -0.000040 0.156939
  4   2.033756 0.190472 -0.000128 -0.000010 0.000024 0.098277
  5   2.451511 0.204909 -0.003447 0.000000 -0.000005 0.148110
  6   7.247600 -0.397300 -0.109469 0.000001 0.000009 0.052298
  7   -2.022252 -0.104661 3.136172 -0.159310 -1.174572 -3.047319
  8   1.168026 -0.537438 -0.063437 -0.526512 0.957447 -0.594521
  9   6.790376 -0.619176 0.015206 0.007665 0.002652 -0.672341
 10   8.637599 0.544015 -0.090417 -1.577510 -0.000060 -0.039548
 11   6.790465 -0.619039 0.017802 0.004709 -0.009775 -0.485939
 12   -2.022474 -0.104699 -2.873818 0.659012 1.470668 -2.537498
 13   1.167898 -0.537463 0.063297 1.177463 -1.285751 -1.190810
 14   7.002743 -0.617765 -0.183752 -0.007912 -0.003214 -0.722088
 15   8.209042 0.615527 -0.255885 1.577928 0.000315 -0.039397
 16   7.002735 -0.617911 -0.183641 0.008459 0.002180 -0.524046
 17   1.574674 0.609930 -0.000899 0.000000 0.000008 -0.363520
 18   -0.602177 0.511412 -0.000006 0.000000 0.000000 0.000000
 19   3.673773 0.177020 1.119313 -0.000002 -0.000014 -0.174510
 20   3.673767 0.176993 -1.117566 0.000007 -0.000003 -0.174546
 21   3.942357 1.334540 1.627658 0.000002 -0.000011 -0.000026
 22   -0.246060 -0.011889 0.516521 -0.000011 0.000031 0.000025
 23   3.942374 1.334565 -1.631083 0.000019 0.000002 -0.000024
 24   -0.246150 -0.011872 -0.516511 -0.000005 -0.000006 0.000048
 25   4.941364 1.997338 1.629330 0.000018 -0.000001 -0.000024
 26   4.941382 1.997366 -1.629410 -0.000001 0.000005 -0.000024
 27   2.914462 1.619264 1.514501 -0.000019 -0.000022 -0.000050
 28   2.916892 1.618870 -1.501142 -0.000002 -0.000009 -0.000024
 29   8.824059 0.150544 0.091743 0.000006 -0.000231 -0.174534
 30   2.111085 -0.561179 1.784320 -0.000008 -0.000682 0.000024
 31   2.121290 -0.561289 -1.853599 0.000000 0.000000 -0.000002
 32   -0.814395 -0.093824 3.127092 0.078087 -3.092234 -0.296451
 33   14.298673 -0.408176 0.471578 -0.000076 -0.000041 -2.385149
 34   15.835795 0.581398 0.242756 0.268158 -0.059203 0.451385
 35   -0.815868 -0.091229 -3.114430 -0.030440 3.161674 -0.341052
 36   14.294526 -0.410349 -0.467541 0.000069 0.000048 -2.398131
 37   15.834409 0.579420 -0.284600 -0.172675 0.043681 0.464520
 38   1.053745 -3.418591 -2.823813 0.018671 0.025571 0.269367
 39   -4.449929 -1.058760 -0.746180 -0.001354 -0.002313 -0.023279
 40   1.204041 -3.484926 3.237290 0.018671 0.025572 0.269366
 41   -4.441652 -1.055224 0.959566 -0.001355 -0.002313 -0.023279
 42   -0.626217 1.767617 -2.610487 0.002121 0.048927 -0.046674
 43   -0.593753 1.749361 2.759999 -0.007109 -0.050587 -0.035465
time 4
  0   0.243428 0.070315 -2.808308 -0.040290 -0.076191 -1.457260
  1   -1.093036 0.000002 -0.326057 -1.570651 -1.570425 -0.000171
  2   2.262337 0.113614 0.064702 -0.000052 0.000049 0.166438
  3   2.380047 0.353302 0.047440 0.000000 -0.000040 0.156939
  4   2.033756 0.190472 -0.000128 -0.000010 0.000024 0.087113
  5   2.451511 0.204909 -0.003447 0.000000 -0.000005 0.148110
  6   7.247600 -0.397300 -0.109469 0.000001 0.000009 0.052298
  7   -2.022252 -0.104661 3.136172 -0.159310 -1.174485 -3.047319
  8   1.168026 -0.537438 -0.063437 -0.510692 0.962680 -0.577504
  9   6.790376 -0.619176 0.015206 0.007665 0.002652 -0.672341
 10   8.637599 0.544015 -0.090417 -1.577510 -0.000060 -0.039548
 11   6.790465 -0.619039 0.017802 0.004709 -0.009775 -0.485939
 12   -2.022474 -0.104699 -2.873818 1.032372 1.499518 -2.163054
 13   1.167898 -0.537463 0.063297 1.303083 -1.317790 -1.310245
 14   7.002743 -0.617765 -0.183752 -0.007855 -0.003214 -0.727781
 15   8.209042 0.615527 -0.255885 1.577928 0.000315 -0.039397
 16   7.002735 -0.617911 -0.183641 0.008506 0.002236 -0.528130
 17   1.574674 0.609930 -0.000899 0.000000 0.000008 -0.340678
 18   -0.602177 0.511412 -0.000006 0.000000 0.000000 0.000000
 19   3.673773 0.177020 1.119313 -0.000002 -0.000014 -0.174510
 20   3.673767 0.176993 -1.117566 0.000007 -0.000003 -0.174546
 21   3.938451 1.334540 1.627658 0.000002 -0.000011 -0.000026
 22   -0.246060 -0.011889 0.516521 -0.000011 0.000031 0.000025
 23   3.938468 1.334565 -1.631083 0.000019 0.000002 -0.000024
 24   -0.246150 -0.011872 -0.516511 -0.000005 -0.000006 0.000048
 25   4.941364 1.997338 1.629330 0.000018 -0.000001 -0.000024
 26   4.941382 1.997366 -1.629410 -0.000001 0.000005 -0.000024
 27   2.914462 1.619264 1.514501 -0.000019 -0.000022 -0.000050
 28   2.916892 1.618870 -1.501142 -0.000002 -0.000009 -0.000024
 29   8.824059 0.150544 0.091743 0.000006 -0.000231 -0.174534
 30   2.111085 -0.561179 1.784320 -0.000008 -0.000682 0.000024
 31   2.121290 -0.561289 -1.853599 0.000000 0.000000 -0.000002
 32   -0.814395 -0.093824 3.127092 0.078087 -3.092234 -0.296451
 33   14.298673 -0.408176 0.471578 -0.000076 -0.000041 -2.385149
 34   15.835795 0.581398 0.242756 0.263052 -0.058666 0.451694
 35   -0.815868 -0.091229 -3.114430 -0.030440 3.161674 -0.341052
 36   14.294526 -0.410349 -0.467541 0.000069 0.000048 -2.398131
 37   15.834409 0.579420 -0.284600 -0.167513 0.043169 0.464570
 38   1.053745 -3.418591 -2.823813 0.018186 0.025150 0.263990
 39   -4.446023 -1.062667 -0.746180 -0.002181 -0.003727 -0.037442
 40   1.204041 -3.484926 3.237290 0.018186 0.025151 0.263989
 41   -4.445559 -1.051317 0.959566 -0.002182 -0.003727 -0.037442
 42   -0.606685 1.810587 -2.567516 0.003356 0.077323 -0.073775
 43   -0.550783 1.780612 2.697497 -0.011232 -0.079946 -0.056084
time 5
  0   0.243428 0.070315 -2.808308 -0.040290 -0.076191 -1.457260
  1   -1.093036 0.000002 -0.326057 -1.570651 -1.570425 -0.000171
  2   2.262337 0.113614 0.064702 -0.000052 0.000049 0.166438
  3   2.380047 0.353302 0.047440 0.000000 -0.000040 0.156939
  4   2.033756 0.190472 -0.000128 -0.000010 0.000024 0.076746
  5   2.451511 0.204909 -0.003447 0.000000 -0.000005 0.148110
  6   7.247600 -0.397300 -0.109469 0.000001 0.000009 0.052298
  7   -2.022252 -0.104661 3.136172 -0.159214 -1.174485 -3.047319
  8   1.168026 -0.537438 -0.063437 -0.496074 0.967007 -0.561499
  9   6.790376 -0.619176 0.015206 0.007665 0.002652 -0.672341
 10   8.637599 0.544015 -0.090417 -1.577510 -0.000060 -0.039548
 11   6.790465 -0.619039 0.017802 0.004709 -0.009775 -0.485939
 12   -2.022474 -0.104699 -2.873818 1.601274 1.509589 -1.593203
 13   1.167898 -0.537463 0.063297 1.443956 -1.342657 -1.446448
 14   7.002743 -0.617765 -0.183752 -0.007855 -0.003270 -0.732896
 15   8.209042 0.615527 -0.255885 1.577928 0.000315 -0.039397
 16   7.002735 -0.617911 -0.183641 0.008506 0.002180 -0.531773
 17   1.574674 0.609930 -0.000899 0.000000 0.000008 -0.319610
 18   -0.602177 0.511412 -0.000006 0.000000 0.000000 0.000000
 19   3.673773 0.177020 1.119313 -0.000002 -0.000014 -0.174510
 20   3.673767 0.176993 -1.117566 0.000007 -0.000003 -0.174546
 21   3.938451 1.334540 1.627658 0.000002 -0.000011 -0.000026
 22   -0.246060 -0.011889 0.516521 -0.000011 0.000031 0.000025
 23   3.938468 1.334565 -1.631083 0.000019 0.000002 -0.000024
 24   -0.246150 -0.011872 -0.516511 -0.000005 -0.000006 0.000048
 25   4.941364 1.997338 1.629330 0.000018 -0.000001 -0.000024
 26   4.941382 1.997366 -1.629410 -0.000001 0.000005 -0.000024
 27   2.914462 1.623171 1.514501 -0.000019 -0.000022 -0.000050
 28   2.916892 1.618870 -1.501142 -0.000002 -0.000009 -0.000024
 29   8.824059 0.150544 0.091743 0.000006 -0.000231 -0.174534
 30   2.111085 -0.561179 1.784320 -0.000008 -0.000682 0.000024
 31   2.121290 -0.561289 -1.853599 0.000000 0.000000 -0.000002
 32   -0.814395 -0.093824 3.127092 0.078087 -3.092234 -0.296451
 33   14.298673 -0.408176 0.471578 -0.000076 -0.000041 -2.385149
 34   15.835795 0.581398 0.242756 0.258382 -0.058178 0.451914
 35   -0.815868 -0.091229 -3.114430 -0.030440 3.161674 -0.341052
 36   14.294526 -0.410349 -0.467541 0.000069 0.000048 -2.398131
 37   15.834409 0.579420 -0.284600 -0.162824 0.042683 0.464925
 38   1.053745 -3.418591 -2.823813 0.017681 0.024704 0.258247
 39   -4.442117 -1.066573 -0.746180 -0.003044 -0.005213 -0.052335
 40   1.204041 -3.484926 3.237290 0.017681 0.024705 0.258247
 41   -4.449465 -1.047411 0.959566 -0.003045 -0.005213 -0.052335
 42   -0.587153 1.853557 -2.520640 0.004578 0.105718 -0.100876
 43   -0.511720 1.811863 2.634995 -0.015368 -0.109304 -0.076702
time 6
  0   0.243428 0.070315 -2.808308 -0.040290 -0.076191 -1.457260
  1   -1.093036 0.000002 -0.326057 -1.570651 -1.570425 -0.000171
  2   2.262337 0.113614 0.064702 -0.000052 0.000049 0.166438
  3   2.380047 0.353302 0.047440 0.000000 -0.000040 0.156939
  4   2.033756 0.190472 -0.000128 -0.000010 0.000024 0.068482
  5   2.451511 0.204909 -0.003447 0.000000 -0.000005 0.148110
  6   7.247600 -0.397300 -0.109469 0.000001 0.000009 0.052298
  7   -2.022252 -0.104661 3.136172 -0.159310 -1.174572 -3.047319
  8   1.168026 -0.537438 -0.063437 -0.484304 0.970730 -0.548594
  9   6.790376 -0.619176 0.015206 0.007665 0.002652 -0.672341
 10   8.637599 0.544015 -0.090417 -1.577510 -0.000060 -0.039548
 11   6.790465 -0.619039 0.017802 0.004709 -0.009775 -0.485939
 12   -2.022474 -0.104699 -2.873818 2.065651 1.500998 -1.127518
 13   1.167898 -0.537463 0.063297 1.580823 -1.359338 -1.579685
 14   7.002743 -0.617765 -0.183752 -0.007855 -0.003270 -0.736609
 15   8.209042 0.615527 -0.255885 1.577928 0.000315 -0.039397
 16   7.002735 -0.617911 -0.183641 0.008506 0.002180 -0.534312
 17   1.574674 0.609930 -0.000899 0.000000 0.000008 -0.301721
 18   -0.602177 0.511412 -0.000006 0.000000 0.000000 0.000000
 19   3.673773 0.177020 1.119313 -0.000002 -0.000014 -0.174510
 20   3.673767 0.176993 -1.117566 0.000007 -0.000003 -0.174546
 21   3.942357 1.334540 1.627658 0.000002 -0.000011 -0.000026
 22   -0.246060 -0.011889 0.516521 -0.000011 0.000031 0.000025
 23   3.942374 1.334565 -1.631083 0.000019 0.000002 -0.000024
 24   -0.246150 -0.011872 -0.516511 -0.000005 -0.000006 0.000048
 25   4.941364 1.997338 1.629330 0.000018 -0.000001 -0.000024
 26   4.941382 1.997366 -1.629410 -0.000001 0.000005 -0.000024
 27   2.914462 1.623171 1.514501 -0.000019 -0.000022 -0.000050
 28   2.916892 1.618870 -1.501142 -0.000002 -0.000009 -0.000024
 29   8.824059 0.150544 0.091743 0.000006 -0.000231 -0.174534
 30   2.111085 -0.561179 1.784320 -0.000008 -0.000682 0.000024
 31   2.121290 -0.561289 -1.853599 0.000000 0.000000 -0.000002
 32   -0.814395 -0.093824 3.127092 0.078087 -3.092234 -0.296451
 33   14.298673 -0.408176 0.471578 -0.000076 -0.000041 -2.385149
 34   15.835795 0.581398 0.242756 0.254587 -0.057812 0.452267
 35   -0.815868 -0.091229 -3.114430 -0.030440 3.161674 -0.341052
 36   14.294526 -0.410349 -0.467541 0.000069 0.000048 -2.398131
 37   15.834409 0.579420 -0.284600 -0.159041 0.042299 0.465077
 38   1.057651 -3.422498 -2.823813 0.017218 0.024270 0.252871
 39   -4.434304 -1.070480 -0.746180 -0.003871 -0.006615 -0.066498
 40   1.200135 -3.481020 3.237290 0.017218 0.024271 0.252870
 41   -4.457278 -1.043504 0.959566 -0.003872 -0.006615 -0.066498
 42   -0.571528 1.888714 -2.481576 0.005657 0.130480 -0.124505
 43   -0.476562 1.839207 2.580306 -0.018966 -0.134913 -0.094686
time 7
  0   0.243428 0.070315 -2.808308 -0.040290 -0.076191 -1.457260
  1   -1.093036 0.000002 -0.326057 -1.570651 -1.570425 -0.000171
  2   2.262337 0.113614 0.064702 -0.000052 0.000049 0.166438
  3   2.380047 0.353302 0.047440 0.000000 -0.000040 0.156939
  4   2.033756 0.190472 -0.000128 -0.000010 0.000024 0.062863
  5   2.451511 0.204909 -0.003447 0.000000 -0.000005 0.148110
  6   7.247600 -0.397300 -0.109469 0.000001 0.000009 0.052298
  7   -2.022252 -0.104661 3.136172 -0.159310 -1.174485 -3.047319
  8   1.168026 -0.537438 -0.063437 -0.476014 0.972944 -0.539358
  9   6.790376 -0.619176 0.015206 0.007665 0.002652 -0.672341
 10   8.637599 0.544015 -0.090417 -1.577510 -0.000060 -0.039548
 11   6.790465 -0.619039 0.017802 0.004709 -0.009775 -0.485939
 12   -2.022474 -0.104699 -2.873818 2.293672 1.488924 -0.899463
 13   1.167898 -0.537463 0.063297 -1.457382 -1.773141 1.460492
 14   7.002743 -0.617765 -0.183752 -0.007798 -0.003270 -0.739579
 15   8.209042 0.615527 -0.255885 1.577928 0.000315 -0.039397
 16   7.002735 -0.617911 -0.183641 0.008506 0.002236 -0.536409
 17   1.574674 0.609930 -0.000899 0.000000 0.000008 -0.288452
 18   -0.602177 0.511412 -0.000006 0.000000 0.000000 0.000000
 19   3.673773 0.177020 1.119313 -0.000002 -0.000014 -0.174510
 20   3.673767 0.176993 -1.117566 0.000007 -0.000003 -0.174546
 21   3.422810 1.264226 1.572969 0.000002 -0.000011 -0.000026
 22   -0.238247 -0.382994 0.496989 0.000099 -0.028720 0.445010
 23   3.430640 1.260344 -1.623270 0.000019 0.000002 -0.000024
 24   -0.160210 -0.285318 -0.532136 0.000091 -0.028745 0.445076
 25   4.531195 1.993432 1.637143 -0.032209 0.220350 0.007203
 26   4.531213 1.993460 -1.621597 0.035761 -0.204352 -0.020865
 27   3.109780 1.474729 1.502782 -0.000019 -0.000022 -0.000050
 28   3.112210 1.474335 -1.512861 -0.000002 -0.000009 -0.000024
 29   8.824059 0.150544 0.091743 0.000006 -0.000231 -0.174534
 30   2.111085 -0.502583 1.803852 -0.011114 -0.015532 0.048657
 31   2.090039 -0.514413 -1.877037 0.005240 0.018571 0.032914
 32   -0.814395 -0.093824 3.127092 0.078087 -3.092234 -0.296451
 33   14.298673 -0.408176 0.471578 -0.000076 -0.000041 -2.385149
 34   15.835795 0.581398 0.242756 0.252011 -0.057519 0.452311
 35   -0.815868 -0.091229 -3.114430 -0.030440 3.161674 -0.341052
 36   14.294526 -0.410349 -0.467541 0.000069 0.000048 -2.398131
 37   15.834409 0.579420 -0.284600 -0.156479 0.042043 0.465077
 38   1.057651 -3.422498 -2.823813 0.016818 0.023920 0.248289
 39   -4.430398 -1.074386 -0.746180 -0.004566 -0.007814 -0.078446
 40   1.200135 -3.481020 3.237290 0.016818 0.023909 0.248288
 41   -4.461185 -1.039598 0.959566 -0.004567 -0.007814 -0.078446
 42   -0.559809 1.916059 -2.454232 0.006424 0.148005 -0.141234
 43   -0.449218 1.858739 2.537335 -0.021515 -0.153036 -0.107358
time 8
  0   0.243428 0.070315 -2.808308 -0.040290 -0.076191 -1.457260
  1   -1.093036 0.000002 -0.326057 -1.570651 -1.570425 -0.000171
  2   2.262337 0.113614 0.064702 -0.000052 0.000049 0.166438
  3   2.380047 0.353302 0.047440 0.000000 -0.000040 0.156939
  4   2.033756 0.190472 -0.000128 -0.000010 0.000024 0.060834
  5   2.451511 0.204909 -0.003447 0.000000 -0.000005 0.148110
  6   7.247600 -0.397300 -0.109469 0.000001 0.000009 0.052298
  7   -2.022252 -0.104661 3.136172 -0.159310 -1.174572 -3.047319
  8   1.168026 -0.537438 -0.063437 -0.473103 0.974051 -0.536448
  9   6.790376 -0.619176 0.015206 0.007665 0.002652 -0.672341
 10   8.637599 0.544015 -0.090417 -1.577510 -0.000060 -0.039548
 11   6.790465 -0.619039 0.017802 0.004709 -0.009775 -0.485939
 12   -2.022474 -0.104699 -2.873818 2.359875 1.483845 -0.832732
 13   1.167898 -0.537463 0.063297 -1.418016 -1.770649 1.421568
 14   7.002743 -0.617765 -0.183752 -0.007798 -0.003384 -0.740734
 15   8.209042 0.615527 -0.255885 1.577928 0.000315 -0.039397
 16   7.002735 -0.617911 -0.183641 0.008506 0.002180 -0.537182
 17   1.574674 0.609930 -0.000899 0.000000 0.000008 -0.281392
 18   -0.602177 0.511412 -0.000006 0.000000 0.000000 0.000000
 19   3.673773 0.177020 1.119313 -0.000002 -0.000014 -0.174510
 20   3.673767 0.176993 -1.117566 0.000007 -0.000003 -0.174546
 21   2.899356 1.190005 1.518280 0.000002 -0.000011 -0.000026
 22   -0.226528 -0.758005 0.473551 0.000194 -0.057471 0.890061
 23   2.914999 1.182217 -1.611551 0.000019 0.000002 -0.000024
 24   -0.074270 -0.562670 -0.551668 0.000187 -0.057496 0.890104
 25   4.117120 1.989525 1.648862 -0.064423 0.440701 0.014429
 26   4.117138 1.989553 -1.609878 0.071535 -0.408734 -0.041706
 27   3.305099 1.322380 1.487156 -0.000019 -0.000022 -0.000050
 28   3.307528 1.321986 -1.528487 -0.000002 -0.000009 -0.000024
 29   8.824059 0.150544 0.091743 0.000006 -0.000231 -0.174534
 30   2.114991 -0.393205 1.839009 -0.031752 -0.043169 0.139019
 31   2.027537 -0.424566 -1.920007 0.015000 0.053124 0.094050
 32   -0.814395 -0.093824 3.127092 0.078087 -3.092234 -0.296451
 33   14.298673 -0.408176 0.471578 -0.000076 -0.000041 -2.384990
 34   15.835795 0.581398 0.242756 0.251113 -0.057397 0.452311
 35   -0.815868 -0.091229 -3.114430 -0.030440 3.161674 -0.341052
 36   14.294526 -0.410349 -0.467541 0.000069 0.000048 -2.398131
 37   15.834409 0.579420 -0.284600 -0.155534 0.041915 0.465331
 38   1.061558 -3.422498 -2.823813 0.016545 0.023667 0.245173
 39   -4.426491 -1.074386 -0.746180 -0.005046 -0.008629 -0.086720
 40   1.196228 -3.481020 3.237290 0.016545 0.023668 0.245172
 41   -4.465091 -1.039598 0.959566 -0.005047 -0.008629 -0.086720
 42   -0.555902 1.923871 -2.442513 0.006711 0.154644 -0.147549
 43   -0.437499 1.866552 2.525616 -0.022477 -0.159909 -0.112209
time 9
  0   0.243428 0.070315 -2.808308 -0.040290 -0.076191 -1.457260
  1   -1.093036 0.000002 -0.326057 -1.570651 -1.570425 -0.000171
  2   2.262337 0.113614 0.064702 -0.000052 0.000049 0.166438
  3   2.380047 0.353302 0.047440 0.000000 -0.000040 0.156939
  4   2.033756 0.190472 -0.000128 -0.000010 0.000024 0.062863
  5   2.451511 0.204909 -0.003447 0.000000 -0.000005 0.148110
  6   7.247600 -0.397300 -0.109469 0.000001 0.000009 0.052298
  7   -2.022252 -0.104661 3.136172 -0.159310 -1.174485 -3.047319
  8   1.168026 -0.537438 -0.063437 -0.476014 0.972944 -0.539358
  9   6.790376 -0.619176 0.015206 0.007665 0.002652 -0.672341
 10   8.637599 0.544015 -0.090417 -1.577510 -0.000060 -0.039548
 11   6.790465 -0.619039 0.017802 0.004709 -0.009775 -0.485939
 12   -2.022474 -0.104699 -2.873818 2.293672 1.488924 -0.899463
 13   1.167898 -0.537463 0.063297 -1.457382 -1.773141 1.460492
 14   7.002743 -0.617765 -0.183752 -0.007798 -0.003270 -0.739579
 15   8.209042 0.615527 -0.255885 1.577928 0.000315 -0.039397
 16   7.002735 -0.617911 -0.183641 0.008506 0.002236 -0.536409
 17   1.574674 0.609930 -0.000899 0.000000 0.000008 -0.281614
 18   -0.602177 0.511412 -0.000006 0.000000 0.000000 0.000000
 19   3.673773 0.177020 1.119313 -0.000002 -0.000014 -0.174510
 20   3.673767 0.176993 -1.117566 0.000007 -0.000003 -0.174546
 21   3.422810 1.264226 1.572969 0.000002 -0.000011 -0.000026
 22   -0.238247 -0.382994 0.496989 0.000099 -0.028720 0.445010
 23   3.430640 1.260344 -1.623270 0.000019 0.000002 -0.000024
 24   -0.160210 -0.285318 -0.532136 0.000091 -0.028745 0.445076
 25   4.531195 1.993432 1.637143 -0.032209 0.220350 0.007203
 26   4.531213 1.993460 -1.621597 0.035761 -0.204352 -0.020865
 27   3.109780 1.474729 1.502782 -0.000019 -0.000022 -0.000050
 28   3.112210 1.474335 -1.512861 -0.000002 -0.000009 -0.000024
 29   8.824059 0.150544 0.091743 0.000006 -0.000231 -0.174534
 30   2.118898 -0.334610 1.858541 -0.042872 -0.058019 0.187673
 31   1.992380 -0.377690 -1.943445 0.020240 0.071721 0.126966
 32   -0.814395 -0.093824 3.127092 0.078087 -3.092234 -0.296451
 33   14.298673 -0.408176 0.471578 -0.000076 -0.000041 -2.385149
 34   15.835795 0.581398 0.242756 0.252011 -0.057519 0.452311
 35   -0.815868 -0.091229 -3.114430 -0.030440 3.161674 -0.341052
 36   14.294526 -0.410349 -0.467541 0.000069 0.000048 -2.398131
 37   15.834409 0.579420 -0.284600 -0.156479 0.042043 0.465077
 38   1.061558 -3.422498 -2.823813 0.016439 0.023571 0.243951
 39   -4.426491 -1.074386 -0.746180 -0.005225 -0.008941 -0.089805
 40   1.196228 -3.481020 3.237290 0.016439 0.023572 0.243950
 41   -4.465091 -1.039598 0.959566 -0.005226 -0.008941 -0.089805
 42   -0.559809 1.916059 -2.450325 0.006472 0.149339 -0.142489
 43   -0.445311 1.862646 2.537335 -0.021715 -0.154417 -0.108362
time 10
  0   0.243428 0.070315 -2.808308 -0.040290 -0.076191 -1.457260
  1   -1.093036 0.000002 -0.326057 -1.570651 -1.570425 -0.000171
  2   2.262337 0.113614 0.064702 -0.000052 0.000049 0.166438
  3   2.380047 0.353302 0.047440 0.000000 -0.000040 0.156939
  4   2.033756 0.190472 -0.000128 -0.000010 0.000024 0.068482
  5   2.451511 0.204909 -0.003447 0.000000 -0.000005 0.148110
  6   7.247600 -0.397300 -0.109469 0.000001 0.000009 0.052298
  7   -2.022252 -0.104661 3.136172 -0.159310 -1.174572 -3.047319
  8   1.168026 -0.537438 -0.063437 -0.484304 0.970730 -0.548594
  9   6.790376 -0.619176 0.015206 0.007665 0.002652 -0.672341
 10   8.637599 0.544015 -0.090417 -1.577510 -0.000060 -0.039548
 11   6.790465 -0.619039 0.017802 0.004709 -0.009775 -0.485939
 12   -2.022474 -0.104699 -2.873818 2.065651 1.500998 -1.127518
 13   1.167898 -0.537463 0.063297 1.580823 -1.359338 -1.579685
 14   7.002743 -0.617765 -0.183752 -0.007855 -0.003270 -0.736609
 15   8.209042 0.615527 -0.255885 1.577928 0.000315 -0.039397
 16   7.002735 -0.617911 -0.183641 0.008506 0.002180 -0.534312
 17   1.574674 0.609930 -0.000899 0.000000 0.000008 -0.290263
 18   -0.602177 0.511412 -0.000006 0.000000 0.000000 0.000000
 19   3.677679 0.177020 1.119313 -0.000002 -0.000014 -0.174510
 20   3.677673 0.176993 -1.117566 0.000007 -0.000003 -0.174546
 21   3.942357 1.334540 1.627658 0.000002 -0.000011 -0.000026
 22   -0.246060 -0.011889 0.516521 -0.000011 0.000031 0.000025
 23   3.942374 1.334565 -1.631083 0.000019 0.000002 -0.000024
 24   -0.246150 -0.011872 -0.516511 -0.000005 -0.000006 0.000048
 25   4.941364 1.997338 1.629330 0.000018 -0.000001 -0.000024
 26   4.941382 1.997366 -1.629410 -0.000001 0.000005 -0.000024
 27   2.914462 1.619264 1.514501 -0.000019 -0.000022 -0.000050
 28   2.916892 1.618870 -1.501142 -0.000002 -0.000009 -0.000024
 29   8.824059 0.150544 0.091743 0.000006 -0.000231 -0.174534
 30   2.114991 -0.393205 1.839009 -0.031752 -0.043169 0.139019
 31   2.027537 -0.424566 -1.920007 0.015000 0.053124 0.094050
 32   -0.814395 -0.093824 3.127092 0.078087 -3.092234 -0.296451
 33   14.298673 -0.408176 0.471578 -0.000076 -0.000041 -2.385149
 34   15.835795 0.581398 0.242756 0.254587 -0.057812 0.452267
 35   -0.815868 -0.091229 -3.114430 -0.030440 3.161674 -0.341052
 36   14.294526 -0.410349 -0.467541 0.000069 0.000048 -2.398131
 37   15.834409 0.579420 -0.284600 -0.159041 0.042299 0.465077
 38   1.061558 -3.422498 -2.823813 0.016566 0.023691 0.245479
 39   -4.426491 -1.074386 -0.746180 -0.004998 -0.008557 -0.085935
 40   1.196228 -3.481020 3.237290 0.016566 0.023692 0.245478
 41   -4.465091 -1.039598 0.959566 -0.004999 -0.008557 -0.085935
 42   -0.567622 1.896527 -2.473763 0.005860 0.135126 -0.128938
 43   -0.468750 1.847020 2.568586 -0.019641 -0.139714 -0.098032
time 11
  0   0.243428 0.070315 -2.808308 -0.040290 -0.076191 -1.457260
  1   -1.093036 0.000002 -0.326057 -1.570651 -1.570425 -0.000171
  2   2.262337 0.113614 0.064702 -0.000052 0.000049 0.166438
  3   2.380047 0.353302 0.047440 0.000000 -0.000040 0.156939
  4   2.033756 0.190472 -0.000128 -0.000010 0.000024 0.076746
  5   2.451511 0.204909 -0.003447 0.000000 -0.000005 0.148110
  6   7.247600 -0.397300 -0.109469 0.000001 0.000009 0.052298
  7   -2.022252 -0.104661 3.136172 -0.159214 -1.174485 -3.047319
  8   1.168026 -0.537438 -0.063437 -0.496074 0.967007 -0.561499
  9   6.790376 -0.619176 0.015206 0.007665 0.002652 -0.672341
 10   8.637599 0.544015 -0.090417 -1.577510 -0.000060 -0.039548
 11   6.790465 -0.619039 0.017802 0.004709 -0.009775 -0.485939
 12   -2.022474 -0.104699 -2.873818 1.601274 1.509589 -1.593203
 13   1.167898 -0.537463 0.063297 1.443956 -1.342657 -1.446448
 14   7.002743 -0.617765 -0.183752 -0.007855 -0.003270 -0.732896
 15   8.209042 0.615527 -0.255885 1.577928 0.000315 -0.039397
 16   7.002735 -0.617911 -0.183641 0.008506 0.002180 -0.531773
 17   1.574674 0.609930 -0.000899 0.000000 0.000008 -0.306415
 18   -0.602177 0.511412 -0.000006 0.000000 0.000000 0.000000
 19   3.673773 0.177020 1.119313 -0.000002 -0.000014 -0.174510
 20   3.673767 0.176993 -1.117566 0.000007 -0.000003 -0.174546
 21   3.942357 1.334540 1.627658 0.000002 -0.000011 -0.000026
 22   -0.246060 -0.011889 0.516521 -0.000011 0.000031 0.000025
 23   3.942374 1.334565 -1.631083 0.000019 0.000002 -0.000024
 24   -0.246150 -0.011872 -0.516511 -0.000005 -0.000006 0.000048
 25   4.941364 1.997338 1.629330 0.000018 -0.000001 -0.000024
 26   4.941382 1.997366 -1.629410 -0.000001 0.000005 -0.000024
 27   2.914462 1.619264 1.514501 -0.000019 -0.000022 -0.000050
 28   2.916892 1.618870 -1.501142 -0.000002 -0.000009 -0.000024
 29   8.824059 0.150544 0.091743 0.000006 -0.000231 -0.174534
 30   2.111085 -0.502583 1.803852 -0.011114 -0.015532 0.048657
 31   2.090039 -0.514413 -1.877037 0.005240 0.018571 0.032914
 32   -0.814395 -0.093824 3.127092 0.078087 -3.092234 -0.296451
 33   14.298673 -0.408176 0.471578 -0.000076 -0.000041 -2.385149
 34   15.835795 0.581398 0.242756 0.258382 -0.058178 0.451914
 35   -0.815868 -0.091229 -3.114430 -0.030440 3.161674 -0.341052
 36   14.294526 -0.410349 -0.467541 0.000069 0.000048 -2.398131
 37   15.834409 0.579420 -0.284600 -0.162824 0.042683 0.464925
 38   1.057651 -3.422498 -2.823813 0.016902 0.023993 0.249328
 39   -4.430398 -1.074386 -0.746180 -0.004410 -0.007538 -0.075754
 40   1.200135 -3.481020 3.237290 0.016902 0.023994 0.249327
 41   -4.461185 -1.039598 0.959566 -0.004411 -0.007538 -0.075754
 42   -0.583247 1.865276 -2.508921 0.004962 0.114550 -0.109282
 43   -0.500000 1.823582 2.615463 -0.016655 -0.118437 -0.083101
time 12
  0   0.243428 0.070315 -2.808308 -0.040290 -0.076191 -1.457260
  1   -1.093036 0.000002 -0.326057 -1.570651 -1.570425 -0.000171
  2   2.262337 0.113614 0.064702 -0.000052 0.000049 0.166438
  3   2.380047 0.353302 0.047440 0.000000 -0.000040 0.156939
  4   2.033756 0.190472 -0.000128 -0.000010 0.000024 0.087113
  5   2.451511 0.204909 -0.003447 0.000000 -0.000005 0.148110
  6   7.247600 -0.397300 -0.109469 0.000001 0.000009 0.052298
  7   -2.022252 -0.104661 3.136172 -0.159310 -1.174485 -3.047319
  8   1.168026 -0.537438 -0.063437 -0.510692 0.962680 -0.577504
  9   6.790376 -0.619176 0.015206 0.007665 0.002652 -0.672341
 10   8.637599 0.544015 -0.090417 -1.577510 -0.000060 -0.039548
 11   6.790465 -0.619039 0.017802 0.004709 -0.009775 -0.485939
 12   -2.022474 -0.104699 -2.873818 1.032372 1.499518 -2.163054
 13   1.167898 -0.537463 0.063297 1.303083 -1.317790 -1.310245
 14   7.002743 -0.617765 -0.183752 -0.007855 -0.003214 -0.727781
 15   8.209042 0.615527 -0.255885 1.577928 0.000315 -0.039397
 16   7.002735 -0.617911 -0.183641 0.008506 0.002236 -0.528130
 17   1.574674 0.609930 -0.000899 0.000000 0.000008 -0.328407
 18   -0.602177 0.511412 -0.000006 0.000000 0.000000 0.000000
 19   3.673773 0.177020 1.119313 -0.000002 -0.000014 -0.174510
 20   3.673767 0.176993 -1.117566 0.000007 -0.000003 -0.174546
 21   3.942357 1.334540 1.627658 0.000002 -0.000011 -0.000026
 22   -0.246060 -0.011889 0.516521 -0.000011 0.000031 0.000025
 23   3.942374 1.334565 -1.631083 0.000019 0.000002 -0.000024
 24   -0.246150 -0.011872 -0.516511 -0.000005 -0.000006 0.000048
 25   4.941364 1.997338 1.629330 0.000018 -0.000001 -0.000024
 26   4.941382 1.997366 -1.629410 -0.000001 0.000005 -0.000024
 27   2.914462 1.619264 1.514501 -0.000019 -0.000022 -0.000050
 28   2.916892 1.618870 -1.501142 -0.000002 -0.000009 -0.000024
 29   8.824059 0.150544 0.091743 0.000006 -0.000231 -0.174534
 30   2.111085 -0.561179 1.784320 -0.000008 -0.000682 0.000024
 31   2.121290 -0.561289 -1.853599 0.000000 0.000000 -0.000002
 32   -0.814395 -0.093824 3.127092 0.078087 -3.092234 -0.296451
 33   14.298673 -0.408176 0.471578 -0.000076 -0.000041 -2.385149
 34   15.835795 0.581398 0.242756 0.263052 -0.058666 0.451694
 35   -0.815868 -0.091229 -3.114430 -0.030440 3.161674 -0.341052
 36   14.294526 -0.410349 -0.467541 0.000069 0.000048 -2.398131
 37   15.834409 0.579420 -0.284600 -0.167513 0.043169 0.464570
 38   1.057651 -3.422498 -2.823813 0.017387 0.024426 0.254826
 39   -4.438210 -1.070480 -0.746180 -0.003571 -0.006112 -0.061366
 40   1.200135 -3.481020 3.237290 0.017387 0.024428 0.254825
 41   -4.453372 -1.043504 0.959566 -0.003572 -0.006112 -0.061366
 42   -0.598872 1.830119 -2.547985 0.003907 0.090156 -0.086029
 43   -0.535158 1.796237 2.670152 -0.013106 -0.093221 -0.065410
time 13
  0   0.243428 0.070315 -2.808308 -0.040290 -0.076191 -1.457260
  1   -1.093036 0.000002 -0.326057 -1.570651 -1.570425 -0.000171
  2   2.262337 0.113614 0.064702 -0.000052 0.000049 0.166438
  3   2.380047 0.353302 0.047440 0.000000 -0.000040 0.156939
  4   2.033756 0.190472 -0.000128 -0.000010 0.000024 0.098277
  5   2.451511 0.204909 -0.003447 0.000000 -0.000005 0.148110
  6   7.247600 -0.397300 -0.109469 0.000001 0.000009 0.052298
  7   -2.022252 -0.104661 3.136172 -0.159310 -1.174572 -3.047319
  8   1.168026 -0.537438 -0.063437 -0.526512 0.957447 -0.594521
  9   6.790376 -0.619176 0.015206 0.007665 0.002652 -0.672341
 10   8.637599 0.544015 -0.090417 -1.577510 -0.000060 -0.039548
 11   6.790465 -0.619039 0.017802 0.004709 -0.009775 -0.485939
 12   -2.022474 -0.104699 -2.873818 0.659012 1.470668 -2.537498
 13   1.167898 -0.537463 0.063297 1.177463 -1.285751 -1.190810
 14   7.002743 -0.617765 -0.183752 -0.007912 -0.003214 -0.722088
 15   8.209042 0.615527 -0.255885 1.577928 0.000315 -0.039397
 16   7.002735 -0.617911 -0.183641 0.008459 0.002180 -0.524046
 17   1.574674 0.609930 -0.000899 0.000000 0.000008 -0.353651
 18   -0.602177 0.511412 -0.000006 0.000000 0.000000 0.000000
 19   3.677679 0.177020 1.119313 -0.000002 -0.000014 -0.174510
 20   3.673767 0.176993 -1.117566 0.000007 -0.000003 -0.174546
 21   3.942357 1.334540 1.627658 0.000002 -0.000011 -0.000026
 22   -0.246060 -0.011889 0.516521 -0.000011 0.000031 0.000025
 23   3.942374 1.334565 -1.631083 0.000019 0.000002 -0.000024
 24   -0.246150 -0.011872 -0.516511 -0.000005 -0.000006 0.000048
 25   4.941364 1.997338 1.629330 0.000018 -0.000001 -0.000024
 26   4.941382 1.997366 -1.629410 -0.000001 0.000005 -0.000024
 27   2.914462 1.619264 1.514501 -0.000019 -0.000022 -0.000050
 28   2.916892 1.618870 -1.501142 -0.000002 -0.000009 -0.000024
 29   8.824059 0.150544 0.091743 0.000006 -0.000231 -0.174534
 30   2.111085 -0.561179 1.784320 -0.000008 -0.000682 0.000024
 31   2.121290 -0.561289 -1.853599 0.000000 0.000000 -0.000002
 32   -0.814395 -0.093824 3.127092 0.078087 -3.092234 -0.296451
 33   14.298673 -0.408176 0.471578 -0.000076 -0.000041 -2.385149
 34   15.835795 0.581398 0.242756 0.268158 -0.059203 0.451385
 35   -0.815868 -0.091229 -3.114430 -0.030440 3.161674 -0.341052
 36   14.294526 -0.410349 -0.467541 0.000069 0.000048 -2.398131
 37   15.834409 0.579420 -0.284600 -0.172675 0.043681 0.464520
 38   1.053745 -3.418591 -2.823813 0.017934 0.024921 0.261119
 39   -4.442117 -1.062667 -0.746180 -0.002613 -0.004470 -0.044903
 40   1.204041 -3.484926 3.237290 0.017934 0.024922 0.261118
 41   -4.449465 -1.051317 0.959566 -0.002614 -0.004470 -0.044903
 42   -0.614498 1.791055 -2.587048 0.002792 0.064490 -0.061521
 43   -0.570315 1.768893 2.724841 -0.009371 -0.066671 -0.046757
time 14
  0   0.243428 0.070315 -2.808308 -0.040290 -0.076191 -1.457260
  1   -1.093036 0.000002 -0.326057 -1.570651 -1.570425 -0.000171
  2   2.262337 0.113614 0.064702 -0.000052 0.000049 0.166438
  3   2.380047 0.353302 0.047440 0.000000 -0.000040 0.156939
  4   2.033756 0.190472 -0.000128 -0.000010 0.000024 0.109948
  5   2.451511 0.204909 -0.003447 0.000000 -0.000005 0.148110
  6   7.247600 -0.397300 -0.109469 0.000001 0.000009 0.052298
  7   -2.022252 -0.104661 3.136172 -0.159310 -1.174572 -3.047319
  8   1.168026 -0.537438 -0.063437 -0.542332 0.951661 -0.612044
  9   6.790376 -0.619176 0.015206 0.007665 0.002652 -0.672341
 10   8.637599 0.544015 -0.090417 -1.577510 -0.000060 -0.039548
 11   6.790465 -0.619039 0.017802 0.004709 -0.009775 -0.485939
 12   -2.022474 -0.104699 -2.873818 0.463757 1.433750 -2.734246
 13   1.167898 -0.537463 0.063297 1.075463 -1.249746 -1.095831
 14   7.002743 -0.617765 -0.183752 -0.007912 -0.003157 -0.716230
 15   8.209042 0.615527 -0.255885 1.577928 0.000315 -0.039397
 16   7.002735 -0.617911 -0.183641 0.008506 0.002180 -0.520017
 17   1.574674 0.609930 -0.000899 0.000000 0.000008 -0.380115
 18   -0.602177 0.511412 -0.000006 0.000000 0.000000 0.000000
 19   3.673773 0.177020 1.119313 -0.000002 -0.000014 -0.174510
 20   3.673767 0.176993 -1.117566 0.000007 -0.000003 -0.174546
 21   3.942357 1.334540 1.627658 0.000002 -0.000011 -0.000026
 22   -0.246060 -0.011889 0.516521 -0.000011 0.000031 0.000025
 23   3.942374 1.334565 -1.631083 0.000019 0.000002 -0.000024
 24   -0.246150 -0.011872 -0.516511 -0.000005 -0.000006 0.000048
 25   4.941364 1.997338 1.629330 0.000018 -0.000001 -0.000024
 26   4.941382 1.997366 -1.629410 -0.000001 0.000005 -0.000024
 27   2.914462 1.619264 1.514501 -0.000019 -0.000022 -0.000050
 28   2.916892 1.618870 -1.501142 -0.000002 -0.000009 -0.000024
 29   8.824059 0.150544 0.091743 0.000006 -0.000231 -0.174534
 30   2.111085 -0.561179 1.784320 -0.000008 -0.000682 0.000024
 31   2.121290 -0.561289 -1.853599 0.000000 0.000000 -0.000002
 32   -0.814395 -0.093824 3.127092 0.078087 -3.092234 -0.296451
 33   14.298673 -0.408176 0.471578 -0.000076 -0.000041 -2.385228
 34   15.835795 0.581398 0.242756 0.273426 -0.059764 0.451032
 35   -0.815868 -0.091229 -3.114430 -0.030440 3.161674 -0.341052
 36   14.294526 -0.410349 -0.467541 0.000069 0.000048 -2.398131
 37   15.834409 0.579420 -0.284600 -0.177994 0.044244 0.464063
 38   1.053745 -3.418591 -2.823813 0.018481 0.025415 0.267412
 39   -4.449929 -1.058760 -0.746180 -0.001654 -0.002828 -0.028411
 40   1.204041 -3.484926 3.237290 0.018481 0.025416 0.267411
 41   -4.441652 -1.055224 0.959566 -0.001655 -0.002828 -0.028411
 42   -0.634030 1.755898 -2.626112 0.001738 0.040081 -0.038226
 43   -0.605472 1.741548 2.779531 -0.005822 -0.041455 -0.029067
time 15
  0   0.243428 0.070315 -2.808308 -0.040290 -0.076191 -1.457260
  1   -1.093036 0.000002 -0.326057 -1.570651 -1.570425 -0.000171
  2   2.262337 0.113614 0.064702 -0.000052 0.000049 0.166438
  3   2.380047 0.353302 0.047440 0.000000 -0.000040 0.156939
  4   2.033756 0.190472 -0.000128 -0.000010 0.000024 0.120931
  5   2.451511 0.204909 -0.003447 0.000000 -0.000005 0.148110
  6   7.247600 -0.397300 -0.109469 0.000001 0.000009 0.052298
  7   -2.022252 -0.104661 3.136172 -0.159310 -1.174485 -3.047319
  8   1.168026 -0.537438 -0.063437 -0.557393 0.946579 -0.628492
  9   6.790376 -0.619176 0.015206 0.007665 0.002652 -0.672341
 10   8.637599 0.544015 -0.090417 -1.577510 -0.000060 -0.039548
 11   6.790465 -0.619039 0.017802 0.004709 -0.009775 -0.485939
 12   -2.022474 -0.104699 -2.873818 0.358178 1.395641 -2.841093
 13   1.167898 -0.537463 0.063297 0.996731 -1.213029 -1.025005
 14   7.002743 -0.617765 -0.183752 -0.007912 -0.003100 -0.710785
 15   8.209042 0.615527 -0.255885 1.577928 0.000315 -0.039397
 16   7.002735 -0.617911 -0.183641 0.008506 0.002180 -0.516264
 17   1.574674 0.609930 -0.000899 0.000000 0.000008 -0.405581
 18   -0.602177 0.511412 -0.000006 0.000000 0.000000 0.000000
 19   3.673773 0.177020 1.119313 -0.000002 -0.000014 -0.174510
 20   3.673767 0.176993 -1.117566 0.000007 -0.000003 -0.174546
 21   3.942357 1.334540 1.627658 0.000002 -0.000011 -0.000026
 22   -0.246060 -0.011889 0.516521 -0.000011 0.000031 0.000025
 23   3.938468 1.334565 -1.631083 0.000019 0.000002 -0.000024
 24   -0.246150 -0.011872 -0.516511 -0.000005 -0.000006 0.000048
 25   4.941364 1.997338 1.629330 0.000018 -0.000001 -0.000024
 26   4.941382 1.997366 -1.629410 -0.000001 0.000005 -0.000024
 27   2.914462 1.619264 1.514501 -0.000019 -0.000022 -0.000050
 28   2.916892 1.618870 -1.501142 -0.000002 -0.000009 -0.000024
 29   8.824059 0.150544 0.091743 0.000006 -0.000231 -0.174534
 30   2.111085 -0.561179 1.784320 -0.000008 -0.000682 0.000024
 31   2.121290 -0.561289 -1.853599 0.000000 0.000000 -0.000002
 32   -0.814395 -0.093824 3.127092 0.078087 -3.092234 -0.296451
 33   14.298673 -0.408176 0.471578 -0.000076 -0.000041 -2.385387
 34   15.835795 0.581398 0.242756 0.278464 -0.060301 0.450635
 35   -0.815868 -0.091229 -3.114430 -0.030440 3.161674 -0.341052
 36   14.294526 -0.410349 -0.467541 0.000069 0.000048 -2.398131
 37   15.834409 0.579420 -0.284600 -0.182999 0.044756 0.463962
 38   1.049839 -3.418591 -2.823813 0.018965 0.025848 0.272910
 39   -4.453836 -1.054854 -0.746180 -0.000815 -0.001390 -0.014023
 40   1.207947 -3.484926 3.237290 0.018965 0.025850 0.272909
 41   -4.437746 -1.059130 0.959566 -0.000816 -0.001390 -0.014023
 42   -0.645749 1.724647 -2.661269 0.000839 0.019505 -0.018611
 43   -0.636723 1.718110 2.826407 -0.002836 -0.020177 -0.014136
time 16
  0   0.243428 0.070315 -2.808308 -0.040290 -0.076191 -1.457260
  1   -1.093036 0.000002 -0.326057 -1.570651 -1.570425 -0.000171
  2   2.262337 0.113614 0.064702 -0.000052 0.000049 0.166438
  3   2.380047 0.353302 0.047440 0.000000 -0.000040 0.156939
  4   2.033756 0.190472 -0.000128 -0.000010 0.000024 0.130645
  5   2.451511 0.204909 -0.003447 0.000000 -0.000005 0.148110
  6   7.247600 -0.397300 -0.109469 0.000001 0.000009 0.052298
  7   -2.022252 -0.104661 3.136172 -0.159310 -1.174485 -3.047319
  8   1.168026 -0.537438 -0.063437 -0.570049 0.941598 -0.642409
  9   6.790376 -0.619176 0.015206 0.007665 0.002652 -0.672341
 10   8.637599 0.544015 -0.090417 -1.577510 -0.000060 -0.039548
 11   6.790465 -0.619039 0.017802 0.004709 -0.009775 -0.485939
 12   -2.022474 -0.104699 -2.873818 0.298490 1.361712 -2.901984
 13   1.167898 -0.537463 0.063297 0.939299 -1.179770 -0.974943
 14   7.002743 -0.617765 -0.183752 -0.007969 -0.003100 -0.706082
 15   8.209042 0.615527 -0.255885 1.577928 0.000315 -0.039397
 16   7.002735 -0.617911 -0.183641 0.008506 0.002180 -0.512897
 17   1.574674 0.609930 -0.000899 0.000000 0.000008 -0.427906
 18   -0.602177 0.511412 -0.000006 0.000000 0.000000 0.000000
 19   3.673773 0.177020 1.119313 -0.000002 -0.000014 -0.174510
 20   3.673767 0.176993 -1.117566 0.000007 -0.000003 -0.174546
 21   3.942357 1.334540 1.627658 0.000002 -0.000011 -0.000026
 22   -0.246060 -0.011889 0.516521 -0.000011 0.000031 0.000025
 23   3.942374 1.334565 -1.631083 0.000019 0.000002 -0.000024
 24   -0.246150 -0.011872 -0.516511 -0.000005 -0.000006 0.000048
 25   4.941364 1.997338 1.629330 0.000018 -0.000001 -0.000024
 26   4.941382 1.997366 -1.629410 -0.000001 0.000005 -0.000024
 27   2.914462 1.619264 1.514501 -0.000019 -0.000022 -0.000050
 28   2.916892 1.618870 -1.501142 -0.000002 -0.000009 -0.000024
 29   8.824059 0.150544 0.091743 0.000006 -0.000231 -0.174534
 30   2.111085 -0.561179 1.784320 -0.000008 -0.000682 0.000024
 31   2.121290 -0.561289 -1.853599 0.000000 0.000000 -0.000002
 32   -0.814395 -0.093824 3.127092 0.078087 -3.092234 -0.296451
 33   14.298673 -0.408176 0.471578 -0.000076 -0.000041 -2.385387
 34   15.835795 0.581398 0.242756 0.282834 -0.060716 0.450503
 35   -0.815868 -0.091229 -3.114430 -0.030440 3.161674 -0.341052
 36   14.294526 -0.410349 -0.467541 0.000069 0.000048 -2.398131
 37   15.834409 0.579420 -0.284600 -0.187511 0.045217 0.463556
 38   1.049839 -3.418591 -2.823813 0.019302 0.026162 0.276820
 39   -4.457742 -1.054854 -0.746180 -0.000216 -0.000384 -0.003842
 40   1.207947 -3.484926 3.237290 0.019302 0.026163 0.276819
 41   -4.433840 -1.059130 0.959566 -0.000217 -0.000384 -0.003842
 42   -0.657468 1.705115 -2.680801 0.000228 0.005292 -0.005061
 43   -0.660162 1.702484 2.857658 -0.000762 -0.005474 -0.003848
time 17
  0   0.243428 0.070315 -2.808308 -0.040290 -0.076191 -1.457260
  1   -1.093036 0.000002 -0.326057 -1.570651 -1.570425 -0.000171
  2   2.262337 0.113614 0.064702 -0.000052 0.000049 0.166438
  3   2.380047 0.353302 0.047440 0.000000 -0.000040 0.156939
  4   2.033756 0.190472 -0.000128 -0.000010 0.000024 0.130645
  5   2.451511 0.204909 -0.003447 0.000000 -0.000005 0.148110
  6   7.247600 -0.397300 -0.109469 0.000001 0.000009 0.052298
  7   -2.022252 -0.104661 3.136172 -0.159310 -1.174485 -3.047319
  8   1.168026 -0.537438 -0.063437 -0.570049 0.941598 -0.642409
  9   6.790376 -0.619176 0.015206 0.007665 0.002652 -0.672341
 10   8.637599 0.544015 -0.090417 -1.577510 -0.000060 -0.039548
 11   6.790465 -0.619039 0.017802 0.004709 -0.009775 -0.485939
 12   -2.022474 -0.104699 -2.873818 0.298490 1.361712 -2.901984
 13   1.167898 -0.537463 0.063297 0.939299 -1.179770 -0.974943
 14   7.002743 -0.617765 -0.183752 -0.007969 -0.003100 -0.706082
 15   8.209042 0.615527 -0.255885 1.577928 0.000315 -0.039397
 16   7.002735 -0.617911 -0.183641 0.008506 0.002180 -0.512897
 17   1.574674 0.609930 -0.000899 0.000000 0.000008 -0.427906
 18   -0.602177 0.511412 -0.000006 0.000000 0.000000 0.000000
 19   3.673773 0.177020 1.119313 -0.000002 -0.000014 -0.174510
 20   3.673767 0.176993 -1.117566 0.000007 -0.000003 -0.174546
 21   3.942357 1.334540 1.627658 0.000002 -0.000011 -0.000026
 22   -0.246060 -0.011889 0.516521 -0.000011 0.000031 0.000025
 23   3.942374 1.334565 -1.631083 0.000019 0.000002 -0.000024
 24   -0.246150 -0.011872 -0.516511 -0.000005 -0.000006 0.000048
 25   4.941364 1.997338 1.629330 0.000018 -0.000001 -0.000024
 26   4.941382 1.997366 -1.629410 -0.000001 0.000005 -0.000024
 27   2.914462 1.619264 1.514501 -0.000019 -0.000022 -0.000050
 28   2.916892 1.618870 -1.501142 -0.000002 -0.000009 -0.000024
 29   8.824059 0.150544 0.091743 0.000006 -0.000231 -0.174534
 30   2.111085 -0.561179 1.784320 -0.000008 -0.000682 0.000024
 31   2.121290 -0.561289 -1.853599 0.000000 0.000000 -0.000002
 32   -0.814395 -0.093824 3.127092 0.078087 -3.092234 -0.296451
 33   14.298673 -0.408176 0.471578 -0.000076 -0.000041 -2.385387
 34   15.835795 0.581398 0.242756 0.282834 -0.060716 0.450503
 35   -0.815868 -0.091229 -3.114430 -0.030440 3.161674 -0.341052
 36   14.294526 -0.410349 -0.467541 0.000069 0.000048 -2.398131
 37   15.834409 0.579420 -0.284600 -0.187511 0.045217 0.463556
 38   1.049839 -3.418591 -2.823813 0.019449 0.026270 0.278286
 39   -4.457742 -1.054854 -0.746180 0.000000 0.000000 0.000000
 40   1.207947 -3.484926 3.237290 0.019449 0.026271 0.278286
 41   -4.433840 -1.059130 0.959566 -0.000001 0.000000 0.000000
 42   -0.657468 1.697302 -2.688614 0.000000 0.000002 0.000000
 43   -0.664068 1.698578 2.869377 0.000000 0.000002 0.000000
end
