version 1
nodes
  0 "Bip01" -1
  1 "Bip01 Pelvis" 0
  2 "Bip01 Spine" 1
  3 "Bip01 Spine1" 2
  4 "Bip01 Spine2" 3
  5 "Bip01 Spine3" 4
  6 "Bip01 Neck" 5
  7 "Bip01 L Arm" 6
  8 "Bip01 L Arm1" 7
  9 "Bip01 L Arm2" 8
 10 "Bip01 L Hand" 9
 11 "Bip06 L elbow2-smooth" 8
 12 "Bip01 R Arm" 6
 13 "Bip01 R Arm1" 12
 14 "Bip01 R Arm2" 13
 15 "Bip01 R Hand" 14
 16 "Bip06 R elbow2-smooth" 13
 17 "Bip01 Head" 6
 18 "Bip06 Head_helper" 17
 19 "Bip06 Head_eyes_l" 18
 20 "Bip06 Head_eyes_r" 18
 21 "Bip06 Head_blink_l" 18
 22 "Bip06 Head_blink_smooth_l1" 21
 23 "Bip06 Head_blink_r" 18
 24 "Bip06 Head_blink_smooth_r1" 23
 25 "Bip06 Head_L_eyebrow" 18
 26 "Bip06 Head_R_eyebrow" 18
 27 "Bip06 Head_blink_l_lid" 18
 28 "Bip06 Head_blink_r_lid" 18
 29 "Bip06 bunny" 18
 30 "Bip06 bunnyL" 29
 31 "Bip06 bunnyR" 29
 32 "Bip01 L Leg" 1
 33 "Bip01 L Leg1" 32
 34 "Bip01 L Foot" 33
 35 "Bip01 R Leg" 1
 36 "Bip01 R Leg1" 35
 37 "Bip01 R Foot" 36
 38 "Bip03 HairR1" 17
 39 "Bip03 HairR2" 38
 40 "Bip03 HairL1" 17
 41 "Bip03 HairL2" 40
 42 "Bip03 swingR" 17
 43 "Bip03 swingL" 17
end
skeleton
time 0
  0   -0.967547 0.175787 -20.574476 0.000000 0.000000 -1.572114
  1   -1.093036 0.000002 -0.326057 -1.570756 -1.570425 -0.000171
  2   2.262337 0.113614 0.064702 -0.000052 0.000049 -0.260865
  3   2.380047 0.353302 0.047440 -0.261678 -0.001922 -0.008489
  4   2.033756 0.190472 -0.000128 -0.000010 0.000048 -0.035003
  5   2.451511 0.204909 -0.003447 0.000000 -0.000005 -0.017472
  6   7.247600 -0.397300 -0.109469 0.000001 0.000033 -0.209377
  7   -2.022252 -0.104661 3.136172 0.897045 -1.256499 -3.804848
  8   1.168026 -0.537438 -0.063437 -0.469939 1.049673 -1.049616
  9   6.790376 -0.619176 0.015206 -0.000158 -0.000285 -2.133240
 10   8.637599 0.544015 -0.090417 -1.068495 -0.402905 -0.134898
 11   6.790465 -0.619039 0.017802 0.005381 -0.011935 -1.508573
 12   -2.022474 -0.104699 -2.873818 -1.159215 1.101687 -4.048100
 13   1.167898 -0.537463 0.063297 -0.331306 -1.036259 0.471233
 14   7.002743 -0.617765 -0.183752 0.000229 0.000250 -2.415017
 15   8.209042 0.615527 -0.255885 1.510483 0.765006 -0.200505
 16   7.002735 -0.617911 -0.183641 0.011990 0.013965 -1.709200
 17   1.574674 0.609930 -0.000899 0.260992 0.017876 0.201984
 18   -0.602177 0.511412 -0.000006 0.000000 0.000000 0.000000
 19   3.673773 0.177020 1.119313 -0.000002 -0.000014 -0.174510
 20   3.673767 0.176993 -1.117566 0.000007 -0.000003 -0.174546
 21   3.942357 1.334540 1.627658 0.000002 -0.000011 -0.000026
 22   -0.246060 -0.011889 0.516521 -0.000011 0.000031 0.000025
 23   3.942374 1.334565 -1.631083 0.000019 0.000002 -0.000024
 24   -0.246150 -0.011872 -0.516511 -0.000005 -0.000006 0.000048
 25   4.941364 1.997338 1.629330 0.000018 -0.000001 -0.000024
 26   4.941382 1.997366 -1.629410 -0.000001 0.000005 -0.000024
 27   2.914462 1.619264 1.514501 -0.000019 -0.000022 -0.000050
 28   2.916892 1.618870 -1.501142 -0.000002 -0.000009 -0.000024
 29   8.824059 0.150544 0.091743 0.000006 -0.000231 -0.174534
 30   2.111085 -0.561179 1.784320 -0.000008 -0.000682 0.000024
 31   2.121290 -0.561289 -1.853599 0.000000 0.000000 -0.000002
 32   -0.814395 -0.093824 3.127092 3.071965 -0.114691 1.239365
 33   14.298673 -0.408176 0.471578 0.000248 0.000063 -1.896136
 34   15.835795 0.581398 0.242756 -0.214735 0.106913 -0.097869
 35   -0.815868 -0.091229 -3.114430 0.066464 3.132818 -1.010216
 36   14.294526 -0.410349 -0.467541 0.000021 -0.000012 -2.607695
 37   15.834409 0.579420 -0.284600 -0.006092 -0.035255 0.214508
 38   1.139685 -3.453749 -2.823813 0.000000 0.000000 0.000001
 39   -4.457742 -1.054854 -0.746180 0.000000 0.000000 0.000000
 40   1.118101 -3.449769 3.237290 0.000000 0.000001 0.000000
 41   -4.433840 -1.059130 0.959566 -0.000001 0.000000 0.000000
 42   -0.657468 1.697302 -2.688614 0.000000 0.000002 0.000000
 43   -0.664068 1.698578 2.869377 0.000000 0.000002 0.000000
time 1
  0   -0.967547 0.175787 -20.574476 0.000000 0.000000 -1.572114
  1   -1.093036 0.000002 -0.326057 -1.570756 -1.570425 -0.000171
  2   2.262337 0.113614 0.064702 -0.000052 0.000049 -0.260865
  3   2.380047 0.353302 0.047440 -0.261678 -0.001922 -0.008489
  4   2.033756 0.190472 -0.000128 -0.000010 0.000048 -0.032611
  5   2.451511 0.204909 -0.003447 0.000000 -0.000005 -0.017472
  6   7.247600 -0.397300 -0.109469 0.000001 0.000033 -0.209377
  7   -2.022252 -0.104661 3.136172 0.885063 -1.253529 -3.792170
  8   1.168026 -0.537438 -0.063437 -0.462725 1.045044 -1.043860
  9   6.790376 -0.619176 0.015206 -0.000158 -0.000285 -2.133240
 10   8.637599 0.544015 -0.090417 -1.068495 -0.402905 -0.134898
 11   6.790465 -0.619039 0.017802 0.005381 -0.011935 -1.508573
 12   -2.022474 -0.104699 -2.873818 -1.150400 1.099859 -4.038048
 13   1.167898 -0.537463 0.063297 -0.322167 -1.031987 0.463061
 14   7.002743 -0.617765 -0.183752 0.000229 0.000250 -2.415017
 15   8.209042 0.615527 -0.255885 1.510483 0.765006 -0.200505
 16   7.002735 -0.617911 -0.183641 0.011990 0.013965 -1.709200
 17   1.574674 0.609930 -0.000899 0.260992 0.017876 0.199693
 18   -0.602177 0.511412 -0.000006 0.000000 0.000000 0.000000
 19   3.673773 0.177020 1.119313 -0.000002 -0.000014 -0.174510
 20   3.673767 0.176993 -1.117566 0.000007 -0.000003 -0.174546
 21   3.942357 1.334540 1.627658 0.000002 -0.000011 -0.000026
 22   -0.246060 -0.011889 0.516521 -0.000011 0.000031 0.000025
 23   3.942374 1.334565 -1.631083 0.000019 0.000002 -0.000024
 24   -0.246150 -0.011872 -0.516511 -0.000005 -0.000006 0.000048
 25   4.941364 1.997338 1.629330 0.000018 -0.000001 -0.000024
 26   4.941382 1.997366 -1.629410 -0.000001 0.000005 -0.000024
 27   2.914462 1.619264 1.514501 -0.000019 -0.000022 -0.000050
 28   2.916892 1.618870 -1.501142 -0.000002 -0.000009 -0.000024
 29   8.824059 0.150544 0.091743 0.000006 -0.000231 -0.174534
 30   2.111085 -0.561179 1.784320 -0.000008 -0.000682 0.000024
 31   2.121290 -0.561289 -1.853599 0.000000 0.000000 -0.000002
 32   -0.814395 -0.093824 3.127092 3.071965 -0.114691 1.239365
 33   14.298673 -0.408176 0.471578 0.000248 0.000063 -1.896136
 34   15.835795 0.581398 0.242756 -0.214735 0.106913 -0.097869
 35   -0.815868 -0.091229 -3.114430 0.066464 3.132818 -1.010216
 36   14.294526 -0.410349 -0.467541 0.000021 -0.000012 -2.607695
 37   15.834409 0.579420 -0.284600 -0.006092 -0.035255 0.214508
 38   1.139685 -3.453749 -2.823813 0.000000 0.000000 0.000001
 39   -4.457742 -1.054854 -0.746180 0.000000 0.000000 0.000000
 40   1.118101 -3.449769 3.237290 0.000000 0.000001 0.000000
 41   -4.433840 -1.059130 0.959566 -0.000001 0.000000 0.000000
 42   -0.657468 1.697302 -2.688614 0.000000 0.000002 0.000000
 43   -0.664068 1.698578 2.869377 0.000000 0.000002 0.000000
time 2
  0   -0.967547 0.175787 -20.574476 0.000000 0.000000 -1.572114
  1   -1.093036 0.000002 -0.326057 -1.570756 -1.570425 -0.000171
  2   2.262337 0.113614 0.064702 -0.000052 0.000049 -0.260865
  3   2.380047 0.353302 0.047440 -0.261678 -0.001922 -0.008489
  4   2.033756 0.190472 -0.000128 -0.000010 0.000048 -0.029965
  5   2.451511 0.204909 -0.003447 0.000000 -0.000005 -0.017472
  6   7.247600 -0.397300 -0.109469 0.000001 0.000033 -0.209377
  7   -2.022252 -0.104661 3.136172 0.872505 -1.250041 -3.779115
  8   1.168026 -0.537438 -0.063437 -0.454815 1.039711 -1.037724
  9   6.790376 -0.619176 0.015206 -0.000158 -0.000285 -2.133240
 10   8.637599 0.544015 -0.090417 -1.068495 -0.402905 -0.134898
 11   6.790465 -0.619039 0.017802 0.005381 -0.011935 -1.508573
 12   -2.022474 -0.104699 -2.873818 -1.140341 1.097450 -4.026942
 13   1.167898 -0.537463 0.063297 -0.312537 -1.027054 0.453920
 14   7.002743 -0.617765 -0.183752 0.000229 0.000250 -2.415017
 15   8.209042 0.615527 -0.255885 1.510483 0.765006 -0.200505
 16   7.002735 -0.617911 -0.183641 0.011990 0.013965 -1.709200
 17   1.574674 0.609930 -0.000899 0.260992 0.017876 0.196994
 18   -0.602177 0.511412 -0.000006 0.000000 0.000000 0.000000
 19   3.673773 0.177020 1.119313 -0.000002 -0.000014 -0.174510
 20   3.673767 0.176993 -1.117566 0.000007 -0.000003 -0.174546
 21   3.942357 1.334540 1.627658 0.000002 -0.000011 -0.000026
 22   -0.246060 -0.011889 0.516521 -0.000011 0.000031 0.000025
 23   3.942374 1.334565 -1.631083 0.000019 0.000002 -0.000024
 24   -0.246150 -0.011872 -0.516511 -0.000005 -0.000006 0.000048
 25   4.941364 1.997338 1.629330 0.000018 -0.000001 -0.000024
 26   4.941382 1.997366 -1.629410 -0.000001 0.000005 -0.000024
 27   2.914462 1.619264 1.514501 -0.000019 -0.000022 -0.000050
 28   2.916892 1.618870 -1.501142 -0.000002 -0.000009 -0.000024
 29   8.824059 0.150544 0.091743 0.000006 -0.000231 -0.174534
 30   2.111085 -0.561179 1.784320 -0.000008 -0.000682 0.000024
 31   2.121290 -0.561289 -1.853599 0.000000 0.000000 -0.000002
 32   -0.814395 -0.093824 3.127092 3.071965 -0.114691 1.239365
 33   14.298673 -0.408176 0.471578 0.000248 0.000063 -1.896136
 34   15.835795 0.581398 0.242756 -0.214735 0.106913 -0.097869
 35   -0.815868 -0.091229 -3.114430 0.066464 3.132818 -1.010216
 36   14.294526 -0.410349 -0.467541 0.000021 -0.000012 -2.607695
 37   15.834409 0.579420 -0.284600 -0.006092 -0.035255 0.214508
 38   1.139685 -3.453749 -2.823813 0.000000 0.000000 0.000001
 39   -4.457742 -1.054854 -0.746180 0.000000 0.000000 0.000000
 40   1.118101 -3.449769 3.237290 0.000000 0.000001 0.000000
 41   -4.433840 -1.059130 0.959566 -0.000001 0.000000 0.000000
 42   -0.657468 1.697302 -2.688614 0.000000 0.000002 0.000000
 43   -0.664068 1.698578 2.869377 0.000000 0.000002 0.000000
time 3
  0   -0.967547 0.175787 -20.574476 0.000000 0.000000 -1.572114
  1   -1.093036 0.000002 -0.326057 -1.570756 -1.570425 -0.000171
  2   2.262337 0.113614 0.064702 -0.000052 0.000049 -0.260865
  3   2.380047 0.353302 0.047440 -0.261678 -0.001922 -0.008489
  4   2.033756 0.190472 -0.000128 -0.000010 0.000048 -0.027174
  5   2.451511 0.204909 -0.003447 0.000000 -0.000005 -0.017472
  6   7.247600 -0.397300 -0.109469 0.000001 0.000033 -0.209377
  7   -2.022252 -0.104661 3.136172 0.859181 -1.246179 -3.765404
  8   1.168026 -0.537438 -0.063437 -0.446462 1.034277 -1.031208
  9   6.790376 -0.619176 0.015206 -0.000158 -0.000285 -2.133240
 10   8.637599 0.544015 -0.090417 -1.068495 -0.402905 -0.134898
 11   6.790465 -0.619039 0.017802 0.005381 -0.011935 -1.508573
 12   -2.022474 -0.104699 -2.873818 -1.130281 1.095012 -4.015836
 13   1.167898 -0.537463 0.063297 -0.301922 -1.022070 0.444658
 14   7.002743 -0.617765 -0.183752 0.000229 0.000250 -2.415017
 15   8.209042 0.615527 -0.255885 1.510483 0.765006 -0.200505
 16   7.002735 -0.617911 -0.183641 0.011990 0.013965 -1.709200
 17   1.574674 0.609930 -0.000899 0.260992 0.017876 0.194037
 18   -0.602177 0.511412 -0.000006 0.000000 0.000000 0.000000
 19   3.673773 0.177020 1.119313 -0.000002 -0.000014 -0.174510
 20   3.673767 0.176993 -1.117566 0.000007 -0.000003 -0.174546
 21   3.942357 1.334540 1.627658 0.000002 -0.000011 -0.000026
 22   -0.246060 -0.011889 0.516521 -0.000011 0.000031 0.000025
 23   3.942374 1.334565 -1.631083 0.000019 0.000002 -0.000024
 24   -0.246150 -0.011872 -0.516511 -0.000005 -0.000006 0.000048
 25   4.941364 1.997338 1.629330 0.000018 -0.000001 -0.000024
 26   4.941382 1.997366 -1.629410 -0.000001 0.000005 -0.000024
 27   2.914462 1.619264 1.514501 -0.000019 -0.000022 -0.000050
 28   2.916892 1.618870 -1.501142 -0.000002 -0.000009 -0.000024
 29   8.824059 0.150544 0.091743 0.000006 -0.000231 -0.174534
 30   2.111085 -0.561179 1.784320 -0.000008 -0.000682 0.000024
 31   2.121290 -0.561289 -1.853599 0.000000 0.000000 -0.000002
 32   -0.814395 -0.093824 3.127092 3.071965 -0.114691 1.239365
 33   14.298673 -0.408176 0.471578 0.000248 0.000063 -1.896136
 34   15.835795 0.581398 0.242756 -0.214735 0.106913 -0.097869
 35   -0.815868 -0.091229 -3.114430 0.066464 3.132818 -1.010216
 36   14.294526 -0.410349 -0.467541 0.000021 -0.000012 -2.607695
 37   15.834409 0.579420 -0.284600 -0.006092 -0.035255 0.214508
 38   1.139685 -3.453749 -2.823813 0.000000 0.000000 0.000001
 39   -4.457742 -1.054854 -0.746180 0.000000 0.000000 0.000000
 40   1.118101 -3.449769 3.237290 0.000000 0.000001 0.000000
 41   -4.433840 -1.059130 0.959566 -0.000001 0.000000 0.000000
 42   -0.657468 1.697302 -2.688614 0.000000 0.000002 0.000000
 43   -0.664068 1.698578 2.869377 0.000000 0.000002 0.000000
time 4
  0   -0.967547 0.175787 -20.574476 0.000000 0.000000 -1.572114
  1   -1.093036 0.000002 -0.326057 -1.570756 -1.570425 -0.000171
  2   2.262337 0.113614 0.064702 -0.000052 0.000049 -0.260865
  3   2.380047 0.353302 0.047440 -0.261678 -0.001922 -0.008489
  4   2.033756 0.190472 -0.000128 -0.000010 0.000048 -0.024093
  5   2.451511 0.204909 -0.003447 0.000000 -0.000005 -0.017472
  6   7.247600 -0.397300 -0.109469 0.000001 0.000033 -0.209377
  7   -2.022252 -0.104661 3.136172 0.845665 -1.242287 -3.751316
  8   1.168026 -0.537438 -0.063437 -0.438109 1.028189 -1.024629
  9   6.790376 -0.619176 0.015206 -0.000158 -0.000285 -2.133240
 10   8.637599 0.544015 -0.090417 -1.068495 -0.402905 -0.134898
 11   6.790465 -0.619039 0.017802 0.005381 -0.011935 -1.508573
 12   -2.022474 -0.104699 -2.873818 -1.119742 1.092574 -4.003868
 13   1.167898 -0.537463 0.063297 -0.291518 -1.016476 0.434912
 14   7.002743 -0.617765 -0.183752 0.000229 0.000250 -2.415017
 15   8.209042 0.615527 -0.255885 1.510483 0.765006 -0.200505
 16   7.002735 -0.617911 -0.183641 0.011990 0.013965 -1.709200
 17   1.574674 0.609930 -0.000899 0.260992 0.017876 0.190896
 18   -0.602177 0.511412 -0.000006 0.000000 0.000000 0.000000
 19   3.673773 0.177020 1.119313 -0.000002 -0.000014 -0.174510
 20   3.673767 0.176993 -1.117566 0.000007 -0.000003 -0.174546
 21   3.942357 1.334540 1.627658 0.000002 -0.000011 -0.000026
 22   -0.246060 -0.011889 0.516521 -0.000011 0.000031 0.000025
 23   3.942374 1.334565 -1.631083 0.000019 0.000002 -0.000024
 24   -0.246150 -0.011872 -0.516511 -0.000005 -0.000006 0.000048
 25   4.941364 1.997338 1.629330 0.000018 -0.000001 -0.000024
 26   4.941382 1.997366 -1.629410 -0.000001 0.000005 -0.000024
 27   2.914462 1.619264 1.514501 -0.000019 -0.000022 -0.000050
 28   2.916892 1.618870 -1.501142 -0.000002 -0.000009 -0.000024
 29   8.824059 0.150544 0.091743 0.000006 -0.000231 -0.174534
 30   2.111085 -0.561179 1.784320 -0.000008 -0.000682 0.000024
 31   2.121290 -0.561289 -1.853599 0.000000 0.000000 -0.000002
 32   -0.814395 -0.093824 3.127092 3.071965 -0.114691 1.239365
 33   14.298673 -0.408176 0.471578 0.000248 0.000063 -1.896136
 34   15.835795 0.581398 0.242756 -0.214735 0.106913 -0.097869
 35   -0.815868 -0.091229 -3.114430 0.066464 3.132818 -1.010216
 36   14.294526 -0.410349 -0.467541 0.000021 -0.000012 -2.607695
 37   15.834409 0.579420 -0.284600 -0.006092 -0.035255 0.214508
 38   1.139685 -3.453749 -2.823813 0.000000 0.000000 0.000001
 39   -4.457742 -1.054854 -0.746180 0.000000 0.000000 0.000000
 40   1.118101 -3.449769 3.237290 0.000000 0.000001 0.000000
 41   -4.433840 -1.059130 0.959566 -0.000001 0.000000 0.000000
 42   -0.657468 1.697302 -2.688614 0.000000 0.000002 0.000000
 43   -0.664068 1.698578 2.869377 0.000000 0.000002 0.000000
time 5
  0   -0.967547 0.175787 -20.574476 0.000000 0.000000 -1.572114
  1   -1.093036 0.000002 -0.326057 -1.570756 -1.570425 -0.000171
  2   2.262337 0.113614 0.064702 -0.000052 0.000049 -0.260865
  3   2.380047 0.353302 0.047440 -0.261678 -0.001922 -0.008489
  4   2.033756 0.190472 -0.000128 -0.000010 0.000048 -0.020867
  5   2.451511 0.204909 -0.003447 0.000000 -0.000005 -0.017472
  6   7.247600 -0.397300 -0.109469 0.000001 0.000033 -0.209377
  7   -2.022252 -0.104661 3.136172 0.832341 -1.238136 -3.737041
  8   1.168026 -0.537438 -0.063437 -0.429820 1.021950 -1.018049
  9   6.790376 -0.619176 0.015206 -0.000158 -0.000285 -2.133240
 10   8.637599 0.544015 -0.090417 -1.068495 -0.402905 -0.134898
 11   6.790465 -0.619039 0.017802 0.005381 -0.011935 -1.508573
 12   -2.022474 -0.104699 -2.873818 -1.109012 1.089903 -3.991900
 13   1.167898 -0.537463 0.063297 -0.280693 -1.010831 0.425408
 14   7.002743 -0.617765 -0.183752 0.000229 0.000250 -2.415017
 15   8.209042 0.615527 -0.255885 1.510483 0.765006 -0.200505
 16   7.002735 -0.617911 -0.183641 0.011990 0.013965 -1.709200
 17   1.574674 0.609930 -0.000899 0.260992 0.017876 0.187902
 18   -0.602177 0.511412 -0.000006 0.000000 0.000000 0.000000
 19   3.673773 0.177020 1.119313 -0.000002 -0.000014 -0.174510
 20   3.673767 0.176993 -1.117566 0.000007 -0.000003 -0.174546
 21   3.942357 1.334540 1.627658 0.000002 -0.000011 -0.000026
 22   -0.246060 -0.011889 0.516521 -0.000011 0.000031 0.000025
 23   3.942374 1.334565 -1.631083 0.000019 0.000002 -0.000024
 24   -0.246150 -0.011872 -0.516511 -0.000005 -0.000006 0.000048
 25   4.941364 1.997338 1.629330 0.000018 -0.000001 -0.000024
 26   4.941382 1.997366 -1.629410 -0.000001 0.000005 -0.000024
 27   2.914462 1.619264 1.514501 -0.000019 -0.000022 -0.000050
 28   2.916892 1.618870 -1.501142 -0.000002 -0.000009 -0.000024
 29   8.824059 0.150544 0.091743 0.000006 -0.000231 -0.174534
 30   2.111085 -0.561179 1.784320 -0.000008 -0.000682 0.000024
 31   2.121290 -0.561289 -1.853599 0.000000 0.000000 -0.000002
 32   -0.814395 -0.093824 3.127092 3.071965 -0.114691 1.239365
 33   14.298673 -0.408176 0.471578 0.000248 0.000063 -1.896136
 34   15.835795 0.581398 0.242756 -0.214735 0.106913 -0.097869
 35   -0.815868 -0.091229 -3.114430 0.066464 3.132818 -1.010216
 36   14.294526 -0.410349 -0.467541 0.000021 -0.000012 -2.607695
 37   15.834409 0.579420 -0.284600 -0.006092 -0.035255 0.214508
 38   1.139685 -3.453749 -2.823813 0.000000 0.000000 0.000001
 39   -4.457742 -1.054854 -0.746180 0.000000 0.000000 0.000000
 40   1.118101 -3.449769 3.237290 0.000000 0.000001 0.000000
 41   -4.433840 -1.059130 0.959566 -0.000001 0.000000 0.000000
 42   -0.657468 1.697302 -2.688614 0.000000 0.000002 0.000000
 43   -0.664068 1.698578 2.869377 0.000000 0.000002 0.000000
time 6
  0   -0.967547 0.175787 -20.574476 0.000000 0.000000 -1.572114
  1   -1.093036 0.000002 -0.326057 -1.570756 -1.570425 -0.000171
  2   2.262337 0.113614 0.064702 -0.000052 0.000049 -0.260865
  3   2.380047 0.353302 0.047440 -0.261678 -0.001922 -0.008489
  4   2.033756 0.190472 -0.000128 -0.000010 0.000048 -0.017786
  5   2.451511 0.204909 -0.003447 0.000000 -0.000005 -0.017472
  6   7.247600 -0.397300 -0.109469 0.000001 0.000033 -0.209377
  7   -2.022252 -0.104661 3.136172 0.819304 -1.234042 -3.723329
  8   1.168026 -0.537438 -0.063437 -0.421467 1.015912 -1.011534
  9   6.790376 -0.619176 0.015206 -0.000158 -0.000285 -2.133240
 10   8.637599 0.544015 -0.090417 -1.068495 -0.402905 -0.134898
 11   6.790465 -0.619039 0.017802 0.005381 -0.011935 -1.508573
 12   -2.022474 -0.104699 -2.873818 -1.098377 1.086885 -3.979837
 13   1.167898 -0.537463 0.063297 -0.270500 -1.005085 0.415965
 14   7.002743 -0.617765 -0.183752 0.000229 0.000250 -2.415017
 15   8.209042 0.615527 -0.255885 1.510483 0.765006 -0.200505
 16   7.002735 -0.617911 -0.183641 0.011990 0.013965 -1.709200
 17   1.574674 0.609930 -0.000899 0.260992 0.017876 0.184649
 18   -0.602177 0.511412 -0.000006 0.000000 0.000000 0.000000
 19   3.673773 0.177020 1.119313 -0.000002 -0.000014 -0.174510
 20   3.673767 0.176993 -1.117566 0.000007 -0.000003 -0.174546
 21   3.942357 1.334540 1.627658 0.000002 -0.000011 -0.000026
 22   -0.246060 -0.011889 0.516521 -0.000011 0.000031 0.000025
 23   3.942374 1.334565 -1.631083 0.000019 0.000002 -0.000024
 24   -0.246150 -0.011872 -0.516511 -0.000005 -0.000006 0.000048
 25   4.941364 1.997338 1.629330 0.000018 -0.000001 -0.000024
 26   4.941382 1.997366 -1.629410 -0.000001 0.000005 -0.000024
 27   2.914462 1.619264 1.514501 -0.000019 -0.000022 -0.000050
 28   2.916892 1.618870 -1.501142 -0.000002 -0.000009 -0.000024
 29   8.824059 0.150544 0.091743 0.000006 -0.000231 -0.174534
 30   2.111085 -0.561179 1.784320 -0.000008 -0.000682 0.000024
 31   2.121290 -0.561289 -1.853599 0.000000 0.000000 -0.000002
 32   -0.814395 -0.093824 3.127092 3.071965 -0.114691 1.239365
 33   14.298673 -0.408176 0.471578 0.000248 0.000063 -1.896136
 34   15.835795 0.581398 0.242756 -0.214735 0.106913 -0.097869
 35   -0.815868 -0.091229 -3.114430 0.066464 3.132818 -1.010216
 36   14.294526 -0.410349 -0.467541 0.000021 -0.000012 -2.607695
 37   15.834409 0.579420 -0.284600 -0.006092 -0.035255 0.214508
 38   1.139685 -3.453749 -2.823813 0.000000 0.000000 0.000001
 39   -4.457742 -1.054854 -0.746180 0.000000 0.000000 0.000000
 40   1.118101 -3.449769 3.237290 0.000000 0.000001 0.000000
 41   -4.433840 -1.059130 0.959566 -0.000001 0.000000 0.000000
 42   -0.657468 1.697302 -2.688614 0.000000 0.000002 0.000000
 43   -0.664068 1.698578 2.869377 0.000000 0.000002 0.000000
time 7
  0   -0.967547 0.175787 -20.574476 0.000000 0.000000 -1.572114
  1   -1.093036 0.000002 -0.326057 -1.570756 -1.570425 -0.000171
  2   2.262337 0.113614 0.064702 -0.000052 0.000049 -0.260865
  3   2.380047 0.353302 0.047440 -0.261678 -0.001922 -0.008489
  4   2.033756 0.190472 -0.000128 -0.000010 0.000048 -0.014814
  5   2.451511 0.204909 -0.003447 0.000000 -0.000005 -0.017472
  6   7.247600 -0.397300 -0.109469 0.000001 0.000033 -0.209377
  7   -2.022252 -0.104661 3.136172 0.806843 -1.229833 -3.710181
  8   1.168026 -0.537438 -0.063437 -0.413493 1.009824 -1.005651
  9   6.790376 -0.619176 0.015206 -0.000158 -0.000285 -2.133240
 10   8.637599 0.544015 -0.090417 -1.068495 -0.402905 -0.134898
 11   6.790465 -0.619039 0.017802 0.005381 -0.011935 -1.508573
 12   -2.022474 -0.104699 -2.873818 -1.088317 1.084099 -3.968348
 13   1.167898 -0.537463 0.063297 -0.260377 -0.999491 0.406824
 14   7.002743 -0.617765 -0.183752 0.000229 0.000250 -2.415017
 15   8.209042 0.615527 -0.255885 1.510483 0.765006 -0.200505
 16   7.002735 -0.617911 -0.183641 0.011990 0.013965 -1.709200
 17   1.574674 0.609930 -0.000899 0.260992 0.017876 0.181803
 18   -0.602177 0.511412 -0.000006 0.000000 0.000000 0.000000
 19   3.673773 0.177020 1.119313 -0.000002 -0.000014 -0.174510
 20   3.673767 0.176993 -1.117566 0.000007 -0.000003 -0.174546
 21   3.942357 1.334540 1.627658 0.000002 -0.000011 -0.000026
 22   -0.246060 -0.011889 0.516521 -0.000011 0.000031 0.000025
 23   3.942374 1.334565 -1.631083 0.000019 0.000002 -0.000024
 24   -0.246150 -0.011872 -0.516511 -0.000005 -0.000006 0.000048
 25   4.941364 1.997338 1.629330 0.000018 -0.000001 -0.000024
 26   4.941382 1.997366 -1.629410 -0.000001 0.000005 -0.000024
 27   2.914462 1.619264 1.514501 -0.000019 -0.000022 -0.000050
 28   2.916892 1.618870 -1.501142 -0.000002 -0.000009 -0.000024
 29   8.824059 0.150544 0.091743 0.000006 -0.000231 -0.174534
 30   2.111085 -0.561179 1.784320 -0.000008 -0.000682 0.000024
 31   2.121290 -0.561289 -1.853599 0.000000 0.000000 -0.000002
 32   -0.814395 -0.093824 3.127092 3.071965 -0.114691 1.239365
 33   14.298673 -0.408176 0.471578 0.000248 0.000063 -1.896136
 34   15.835795 0.581398 0.242756 -0.214735 0.106913 -0.097869
 35   -0.815868 -0.091229 -3.114430 0.066464 3.132818 -1.010216
 36   14.294526 -0.410349 -0.467541 0.000021 -0.000012 -2.607695
 37   15.834409 0.579420 -0.284600 -0.006092 -0.035255 0.214508
 38   1.139685 -3.453749 -2.823813 0.000000 0.000000 0.000001
 39   -4.457742 -1.054854 -0.746180 0.000000 0.000000 0.000000
 40   1.118101 -3.449769 3.237290 0.000000 0.000001 0.000000
 41   -4.433840 -1.059130 0.959566 -0.000001 0.000000 0.000000
 42   -0.657468 1.697302 -2.688614 0.000000 0.000002 0.000000
 43   -0.664068 1.698578 2.869377 0.000000 0.000002 0.000000
time 8
  0   -0.967547 0.175787 -20.574476 0.000000 0.000000 -1.572114
  1   -1.093036 0.000002 -0.326057 -1.570756 -1.570425 -0.000171
  2   2.262337 0.113614 0.064702 -0.000052 0.000049 -0.260865
  3   2.380047 0.353302 0.047440 -0.261678 -0.001922 -0.008489
  4   2.033756 0.190472 -0.000128 -0.000010 0.000048 -0.011914
  5   2.451511 0.204909 -0.003447 0.000000 -0.000005 -0.017472
  6   7.247600 -0.397300 -0.109469 0.000001 0.000033 -0.209377
  7   -2.022252 -0.104661 3.136172 0.795244 -1.225798 -3.697596
  8   1.168026 -0.537438 -0.063437 -0.405900 1.003887 -0.999831
  9   6.790376 -0.619176 0.015206 -0.000158 -0.000285 -2.133240
 10   8.637599 0.544015 -0.090417 -1.068495 -0.402905 -0.134898
 11   6.790465 -0.619039 0.017802 0.005381 -0.011935 -1.508573
 12   -2.022474 -0.104699 -2.873818 -1.078641 1.081603 -3.957242
 13   1.167898 -0.537463 0.063297 -0.251027 -0.994100 0.398349
 14   7.002743 -0.617765 -0.183752 0.000229 0.000250 -2.415017
 15   8.209042 0.615527 -0.255885 1.510483 0.765006 -0.200505
 16   7.002735 -0.617911 -0.183641 0.011990 0.013965 -1.709200
 17   1.574674 0.609930 -0.000899 0.260992 0.017876 0.178736
 18   -0.602177 0.511412 -0.000006 0.000000 0.000000 0.000000
 19   3.673773 0.177020 1.119313 -0.000002 -0.000014 -0.174510
 20   3.673767 0.176993 -1.117566 0.000007 -0.000003 -0.174546
 21   3.942357 1.334540 1.627658 0.000002 -0.000011 -0.000026
 22   -0.246060 -0.011889 0.516521 -0.000011 0.000031 0.000025
 23   3.942374 1.334565 -1.631083 0.000019 0.000002 -0.000024
 24   -0.246150 -0.011872 -0.516511 -0.000005 -0.000006 0.000048
 25   4.941364 1.997338 1.629330 0.000018 -0.000001 -0.000024
 26   4.941382 1.997366 -1.629410 -0.000001 0.000005 -0.000024
 27   2.914462 1.619264 1.514501 -0.000019 -0.000022 -0.000050
 28   2.916892 1.618870 -1.501142 -0.000002 -0.000009 -0.000024
 29   8.824059 0.150544 0.091743 0.000006 -0.000231 -0.174534
 30   2.111085 -0.561179 1.784320 -0.000008 -0.000682 0.000024
 31   2.121290 -0.561289 -1.853599 0.000000 0.000000 -0.000002
 32   -0.814395 -0.093824 3.127092 3.071965 -0.114691 1.239365
 33   14.298673 -0.408176 0.471578 0.000248 0.000063 -1.896136
 34   15.835795 0.581398 0.242756 -0.214735 0.106913 -0.097869
 35   -0.815868 -0.091229 -3.114430 0.066464 3.132818 -1.010216
 36   14.294526 -0.410349 -0.467541 0.000021 -0.000012 -2.607695
 37   15.834409 0.579420 -0.284600 -0.006092 -0.035255 0.214508
 38   1.139685 -3.453749 -2.823813 0.000000 0.000000 0.000001
 39   -4.457742 -1.054854 -0.746180 0.000000 0.000000 0.000000
 40   1.118101 -3.449769 3.237290 0.000000 0.000001 0.000000
 41   -4.433840 -1.059130 0.959566 -0.000001 0.000000 0.000000
 42   -0.657468 1.697302 -2.688614 0.000000 0.000002 0.000000
 43   -0.664068 1.698578 2.869377 0.000000 0.000002 0.000000
time 9
  0   -0.967547 0.175787 -20.574476 0.000000 0.000000 -1.572114
  1   -1.093036 0.000002 -0.326057 -1.570756 -1.570425 -0.000171
  2   2.262337 0.113614 0.064702 -0.000052 0.000049 -0.260865
  3   2.380047 0.353302 0.047440 -0.261678 -0.001922 -0.008489
  4   2.033756 0.190472 -0.000128 -0.000010 0.000048 -0.009232
  5   2.451511 0.204909 -0.003447 0.000000 -0.000005 -0.017472
  6   7.247600 -0.397300 -0.109469 0.000001 0.000033 -0.209377
  7   -2.022252 -0.104661 3.136172 0.784604 -1.221964 -3.686232
  8   1.168026 -0.537438 -0.063437 -0.399065 0.998755 -0.994706
  9   6.790376 -0.619176 0.015206 -0.000158 -0.000285 -2.133240
 10   8.637599 0.544015 -0.090417 -1.068495 -0.402905 -0.134898
 11   6.790465 -0.619039 0.017802 0.005381 -0.011935 -1.508573
 12   -2.022474 -0.104699 -2.873818 -1.069635 1.078816 -3.947189
 13   1.167898 -0.537463 0.063297 -0.242311 -0.988964 0.390419
 14   7.002743 -0.617765 -0.183752 0.000229 0.000250 -2.415017
 15   8.209042 0.615527 -0.255885 1.510483 0.765006 -0.200505
 16   7.002735 -0.617911 -0.183641 0.011990 0.013965 -1.709200
 17   1.574674 0.609930 -0.000899 0.260992 0.017876 0.176185
 18   -0.602177 0.511412 -0.000006 0.000000 0.000000 0.000000
 19   3.673773 0.177020 1.119313 -0.000002 -0.000014 -0.174510
 20   3.673767 0.176993 -1.117566 0.000007 -0.000003 -0.174546
 21   3.942357 1.334540 1.627658 0.000002 -0.000011 -0.000026
 22   -0.246060 -0.011889 0.516521 -0.000011 0.000031 0.000025
 23   3.942374 1.334565 -1.631083 0.000019 0.000002 -0.000024
 24   -0.246150 -0.011872 -0.516511 -0.000005 -0.000006 0.000048
 25   4.941364 1.997338 1.629330 0.000018 -0.000001 -0.000024
 26   4.941382 1.997366 -1.629410 -0.000001 0.000005 -0.000024
 27   2.914462 1.619264 1.514501 -0.000019 -0.000022 -0.000050
 28   2.916892 1.618870 -1.501142 -0.000002 -0.000009 -0.000024
 29   8.824059 0.150544 0.091743 0.000006 -0.000231 -0.174534
 30   2.111085 -0.561179 1.784320 -0.000008 -0.000682 0.000024
 31   2.121290 -0.561289 -1.853599 0.000000 0.000000 -0.000002
 32   -0.814395 -0.093824 3.127092 3.071965 -0.114691 1.239365
 33   14.298673 -0.408176 0.471578 0.000248 0.000063 -1.896136
 34   15.835795 0.581398 0.242756 -0.214735 0.106913 -0.097869
 35   -0.815868 -0.091229 -3.114430 0.066464 3.132818 -1.010216
 36   14.294526 -0.410349 -0.467541 0.000021 -0.000012 -2.607695
 37   15.834409 0.579420 -0.284600 -0.006092 -0.035255 0.214508
 38   1.139685 -3.453749 -2.823813 0.000000 0.000000 0.000001
 39   -4.457742 -1.054854 -0.746180 0.000000 0.000000 0.000000
 40   1.118101 -3.449769 3.237290 0.000000 0.000001 0.000000
 41   -4.433840 -1.059130 0.959566 -0.000001 0.000000 0.000000
 42   -0.657468 1.697302 -2.688614 0.000000 0.000002 0.000000
 43   -0.664068 1.698578 2.869377 0.000000 0.000002 0.000000
time 10
  0   -0.967547 0.175787 -20.574476 0.000000 0.000000 -1.572114
  1   -1.093036 0.000002 -0.326057 -1.570756 -1.570425 -0.000171
  2   2.262337 0.113614 0.064702 -0.000052 0.000049 -0.260865
  3   2.380047 0.353302 0.047440 -0.261678 -0.001922 -0.008489
  4   2.033756 0.190472 -0.000128 -0.000010 0.000048 -0.006731
  5   2.451511 0.204909 -0.003447 0.000000 -0.000005 -0.017472
  6   7.247600 -0.397300 -0.109469 0.000001 0.000033 -0.209377
  7   -2.022252 -0.104661 3.136172 0.774922 -1.218389 -3.676183
  8   1.168026 -0.537438 -0.063437 -0.392611 0.993623 -0.989899
  9   6.790376 -0.619176 0.015206 -0.000158 -0.000285 -2.133240
 10   8.637599 0.544015 -0.090417 -1.068495 -0.402905 -0.134898
 11   6.790465 -0.619039 0.017802 0.005381 -0.011935 -1.508573
 12   -2.022474 -0.104699 -2.873818 -1.061396 1.076407 -3.938190
 13   1.167898 -0.537463 0.063297 -0.234719 -0.984031 0.383639
 14   7.002743 -0.617765 -0.183752 0.000229 0.000250 -2.415017
 15   8.209042 0.615527 -0.255885 1.510483 0.765006 -0.200505
 16   7.002735 -0.617911 -0.183641 0.011990 0.013965 -1.709200
 17   1.574674 0.609930 -0.000899 0.260992 0.017876 0.173635
 18   -0.602177 0.511412 -0.000006 0.000000 0.000000 0.000000
 19   3.673773 0.177020 1.119313 -0.000002 -0.000014 -0.174510
 20   3.673767 0.176993 -1.117566 0.000007 -0.000003 -0.174546
 21   3.942357 1.334540 1.627658 0.000002 -0.000011 -0.000026
 22   -0.246060 -0.011889 0.516521 -0.000011 0.000031 0.000025
 23   3.942374 1.334565 -1.631083 0.000019 0.000002 -0.000024
 24   -0.246150 -0.011872 -0.516511 -0.000005 -0.000006 0.000048
 25   4.941364 1.997338 1.629330 0.000018 -0.000001 -0.000024
 26   4.941382 1.997366 -1.629410 -0.000001 0.000005 -0.000024
 27   2.914462 1.619264 1.514501 -0.000019 -0.000022 -0.000050
 28   2.916892 1.618870 -1.501142 -0.000002 -0.000009 -0.000024
 29   8.824059 0.150544 0.091743 0.000006 -0.000231 -0.174534
 30   2.111085 -0.561179 1.784320 -0.000008 -0.000682 0.000024
 31   2.121290 -0.561289 -1.853599 0.000000 0.000000 -0.000002
 32   -0.814395 -0.093824 3.127092 3.071965 -0.114691 1.239365
 33   14.298673 -0.408176 0.471578 0.000248 0.000063 -1.896136
 34   15.835795 0.581398 0.242756 -0.214735 0.106913 -0.097869
 35   -0.815868 -0.091229 -3.114430 0.066464 3.132818 -1.010216
 36   14.294526 -0.410349 -0.467541 0.000021 -0.000012 -2.607695
 37   15.834409 0.579420 -0.284600 -0.006092 -0.035255 0.214508
 38   1.139685 -3.453749 -2.823813 0.000000 0.000000 0.000001
 39   -4.457742 -1.054854 -0.746180 0.000000 0.000000 0.000000
 40   1.118101 -3.449769 3.237290 0.000000 0.000001 0.000000
 41   -4.433840 -1.059130 0.959566 -0.000001 0.000000 0.000000
 42   -0.657468 1.697302 -2.688614 0.000000 0.000002 0.000000
 43   -0.664068 1.698578 2.869377 0.000000 0.000002 0.000000
time 11
  0   -0.967547 0.175787 -20.574476 0.000000 0.000000 -1.572114
  1   -1.093036 0.000002 -0.326057 -1.570756 -1.570425 -0.000171
  2   2.262337 0.113614 0.064702 -0.000052 0.000049 -0.260865
  3   2.380047 0.353302 0.047440 -0.261678 -0.001922 -0.008489
  4   2.033756 0.190472 -0.000128 -0.000010 0.000048 -0.004592
  5   2.451511 0.204909 -0.003447 0.000000 -0.000005 -0.017472
  6   7.247600 -0.397300 -0.109469 0.000001 0.000033 -0.209377
  7   -2.022252 -0.104661 3.136172 0.766774 -1.215333 -3.667543
  8   1.168026 -0.537438 -0.063437 -0.387422 0.989145 -0.986230
  9   6.790376 -0.619176 0.015206 -0.000158 -0.000285 -2.133240
 10   8.637599 0.544015 -0.090417 -1.068495 -0.402905 -0.134898
 11   6.790465 -0.619039 0.017802 0.005381 -0.011935 -1.508573
 12   -2.022474 -0.104699 -2.873818 -1.054689 1.074550 -3.930243
 13   1.167898 -0.537463 0.063297 -0.227900 -0.980065 0.377404
 14   7.002743 -0.617765 -0.183752 0.000229 0.000250 -2.415017
 15   8.209042 0.615527 -0.255885 1.510483 0.765006 -0.200505
 16   7.002735 -0.617911 -0.183641 0.011990 0.013965 -1.709200
 17   1.574674 0.609930 -0.000899 0.260992 0.017876 0.171491
 18   -0.602177 0.511412 -0.000006 0.000000 0.000000 0.000000
 19   3.673773 0.177020 1.119313 -0.000002 -0.000014 -0.174510
 20   3.673767 0.176993 -1.117566 0.000007 -0.000003 -0.174546
 21   3.942357 1.334540 1.627658 0.000002 -0.000011 -0.000026
 22   -0.246060 -0.011889 0.516521 -0.000011 0.000031 0.000025
 23   3.942374 1.334565 -1.631083 0.000019 0.000002 -0.000024
 24   -0.246150 -0.011872 -0.516511 -0.000005 -0.000006 0.000048
 25   4.941364 1.997338 1.629330 0.000018 -0.000001 -0.000024
 26   4.941382 1.997366 -1.629410 -0.000001 0.000005 -0.000024
 27   2.914462 1.619264 1.514501 -0.000019 -0.000022 -0.000050
 28   2.916892 1.618870 -1.501142 -0.000002 -0.000009 -0.000024
 29   8.824059 0.150544 0.091743 0.000006 -0.000231 -0.174534
 30   2.111085 -0.561179 1.784320 -0.000008 -0.000682 0.000024
 31   2.121290 -0.561289 -1.853599 0.000000 0.000000 -0.000002
 32   -0.814395 -0.093824 3.127092 3.071965 -0.114691 1.239365
 33   14.298673 -0.408176 0.471578 0.000248 0.000063 -1.896136
 34   15.835795 0.581398 0.242756 -0.214735 0.106913 -0.097869
 35   -0.815868 -0.091229 -3.114430 0.066464 3.132818 -1.010216
 36   14.294526 -0.410349 -0.467541 0.000021 -0.000012 -2.607695
 37   15.834409 0.579420 -0.284600 -0.006092 -0.035255 0.214508
 38   1.139685 -3.453749 -2.823813 0.000000 0.000000 0.000001
 39   -4.457742 -1.054854 -0.746180 0.000000 0.000000 0.000000
 40   1.118101 -3.449769 3.237290 0.000000 0.000001 0.000000
 41   -4.433840 -1.059130 0.959566 -0.000001 0.000000 0.000000
 42   -0.657468 1.697302 -2.688614 0.000000 0.000002 0.000000
 43   -0.664068 1.698578 2.869377 0.000000 0.000002 0.000000
time 12
  0   -0.967547 0.175787 -20.574476 0.000000 0.000000 -1.572114
  1   -1.093036 0.000002 -0.326057 -1.570756 -1.570425 -0.000171
  2   2.262337 0.113614 0.064702 -0.000052 0.000049 -0.260865
  3   2.380047 0.353302 0.047440 -0.261678 -0.001922 -0.008489
  4   2.033756 0.190472 -0.000128 -0.000010 0.000048 -0.002780
  5   2.451511 0.204909 -0.003447 0.000000 -0.000005 -0.017472
  6   7.247600 -0.397300 -0.109469 0.000001 0.000033 -0.209377
  7   -2.022252 -0.104661 3.136172 0.760064 -1.212825 -3.660311
  8   1.168026 -0.537438 -0.063437 -0.383055 0.985774 -0.982813
  9   6.790376 -0.619176 0.015206 -0.000158 -0.000285 -2.133240
 10   8.637599 0.544015 -0.090417 -1.068495 -0.402905 -0.134898
 11   6.790465 -0.619039 0.017802 0.005381 -0.011935 -1.508573
 12   -2.022474 -0.104699 -2.873818 -1.048845 1.072489 -3.923733
 13   1.167898 -0.537463 0.063297 -0.222768 -0.976759 0.372501
 14   7.002743 -0.617765 -0.183752 0.000229 0.000250 -2.415017
 15   8.209042 0.615527 -0.255885 1.510483 0.765006 -0.200505
 16   7.002735 -0.617911 -0.183641 0.011990 0.013965 -1.709200
 17   1.574674 0.609930 -0.000899 0.260992 0.017876 0.169606
 18   -0.602177 0.511412 -0.000006 0.000000 0.000000 0.000000
 19   3.673773 0.177020 1.119313 -0.000002 -0.000014 -0.174510
 20   3.673767 0.176993 -1.117566 0.000007 -0.000003 -0.174546
 21   3.942357 1.334540 1.627658 0.000002 -0.000011 -0.000026
 22   -0.246060 -0.011889 0.516521 -0.000011 0.000031 0.000025
 23   3.942374 1.334565 -1.631083 0.000019 0.000002 -0.000024
 24   -0.246150 -0.011872 -0.516511 -0.000005 -0.000006 0.000048
 25   4.941364 1.997338 1.629330 0.000018 -0.000001 -0.000024
 26   4.941382 1.997366 -1.629410 -0.000001 0.000005 -0.000024
 27   2.914462 1.619264 1.514501 -0.000019 -0.000022 -0.000050
 28   2.916892 1.618870 -1.501142 -0.000002 -0.000009 -0.000024
 29   8.824059 0.150544 0.091743 0.000006 -0.000231 -0.174534
 30   2.111085 -0.561179 1.784320 -0.000008 -0.000682 0.000024
 31   2.121290 -0.561289 -1.853599 0.000000 0.000000 -0.000002
 32   -0.814395 -0.093824 3.127092 3.071965 -0.114691 1.239365
 33   14.298673 -0.408176 0.471578 0.000248 0.000063 -1.896136
 34   15.835795 0.581398 0.242756 -0.214735 0.106913 -0.097869
 35   -0.815868 -0.091229 -3.114430 0.066464 3.132818 -1.010216
 36   14.294526 -0.410349 -0.467541 0.000021 -0.000012 -2.607695
 37   15.834409 0.579420 -0.284600 -0.006092 -0.035255 0.214508
 38   1.139685 -3.453749 -2.823813 0.000000 0.000000 0.000001
 39   -4.457742 -1.054854 -0.746180 0.000000 0.000000 0.000000
 40   1.118101 -3.449769 3.237290 0.000000 0.000001 0.000000
 41   -4.433840 -1.059130 0.959566 -0.000001 0.000000 0.000000
 42   -0.657468 1.697302 -2.688614 0.000000 0.000002 0.000000
 43   -0.664068 1.698578 2.869377 0.000000 0.000002 0.000000
time 13
  0   -0.967547 0.175787 -20.574476 0.000000 0.000000 -1.572114
  1   -1.093036 0.000002 -0.326057 -1.570756 -1.570425 -0.000171
  2   2.262337 0.113614 0.064702 -0.000052 0.000049 -0.260865
  3   2.380047 0.353302 0.047440 -0.261678 -0.001922 -0.008489
  4   2.033756 0.190472 -0.000128 -0.000010 0.000048 -0.001439
  5   2.451511 0.204909 -0.003447 0.000000 -0.000005 -0.017472
  6   7.247600 -0.397300 -0.109469 0.000001 0.000033 -0.209377
  7   -2.022252 -0.104661 3.136172 0.755175 -1.210779 -3.655146
  8   1.168026 -0.537438 -0.063437 -0.379701 0.982906 -0.980410
  9   6.790376 -0.619176 0.015206 -0.000158 -0.000285 -2.133240
 10   8.637599 0.544015 -0.090417 -1.068495 -0.402905 -0.134898
 11   6.790465 -0.619039 0.017802 0.005381 -0.011935 -1.508573
 12   -2.022474 -0.104699 -2.873818 -1.044725 1.071212 -3.918946
 13   1.167898 -0.537463 0.063297 -0.218480 -0.974013 0.368808
 14   7.002743 -0.617765 -0.183752 0.000229 0.000250 -2.415017
 15   8.209042 0.615527 -0.255885 1.510483 0.765006 -0.200505
 16   7.002735 -0.617911 -0.183641 0.011990 0.013965 -1.709200
 17   1.574674 0.609930 -0.000899 0.260992 0.017876 0.168350
 18   -0.602177 0.511412 -0.000006 0.000000 0.000000 0.000000
 19   3.673773 0.177020 1.119313 -0.000002 -0.000014 -0.174510
 20   3.673767 0.176993 -1.117566 0.000007 -0.000003 -0.174546
 21   3.942357 1.334540 1.627658 0.000002 -0.000011 -0.000026
 22   -0.246060 -0.011889 0.516521 -0.000011 0.000031 0.000025
 23   3.942374 1.334565 -1.631083 0.000019 0.000002 -0.000024
 24   -0.246150 -0.011872 -0.516511 -0.000005 -0.000006 0.000048
 25   4.941364 1.997338 1.629330 0.000018 -0.000001 -0.000024
 26   4.941382 1.997366 -1.629410 -0.000001 0.000005 -0.000024
 27   2.914462 1.619264 1.514501 -0.000019 -0.000022 -0.000050
 28   2.916892 1.618870 -1.501142 -0.000002 -0.000009 -0.000024
 29   8.824059 0.150544 0.091743 0.000006 -0.000231 -0.174534
 30   2.111085 -0.561179 1.784320 -0.000008 -0.000682 0.000024
 31   2.121290 -0.561289 -1.853599 0.000000 0.000000 -0.000002
 32   -0.814395 -0.093824 3.127092 3.071965 -0.114691 1.239365
 33   14.298673 -0.408176 0.471578 0.000248 0.000063 -1.896136
 34   15.835795 0.581398 0.242756 -0.214735 0.106913 -0.097869
 35   -0.815868 -0.091229 -3.114430 0.066464 3.132818 -1.010216
 36   14.294526 -0.410349 -0.467541 0.000021 -0.000012 -2.607695
 37   15.834409 0.579420 -0.284600 -0.006092 -0.035255 0.214508
 38   1.139685 -3.453749 -2.823813 0.000000 0.000000 0.000001
 39   -4.457742 -1.054854 -0.746180 0.000000 0.000000 0.000000
 40   1.118101 -3.449769 3.237290 0.000000 0.000001 0.000000
 41   -4.433840 -1.059130 0.959566 -0.000001 0.000000 0.000000
 42   -0.657468 1.697302 -2.688614 0.000000 0.000002 0.000000
 43   -0.664068 1.698578 2.869377 0.000000 0.000002 0.000000
time 14
  0   -0.967547 0.175787 -20.574476 0.000000 0.000000 -1.572114
  1   -1.093036 0.000002 -0.326057 -1.570756 -1.570425 -0.000171
  2   2.262337 0.113614 0.064702 -0.000052 0.000049 -0.260865
  3   2.380047 0.353302 0.047440 -0.261678 -0.001922 -0.008489
  4   2.033756 0.190472 -0.000128 -0.000010 0.000048 -0.000569
  5   2.451511 0.204909 -0.003447 0.000000 -0.000005 -0.017472
  6   7.247600 -0.397300 -0.109469 0.000001 0.000033 -0.209377
  7   -2.022252 -0.104661 3.136172 0.752204 -1.209481 -3.651671
  8   1.168026 -0.537438 -0.063437 -0.377676 0.981296 -0.978955
  9   6.790376 -0.619176 0.015206 -0.000158 -0.000285 -2.133240
 10   8.637599 0.544015 -0.090417 -1.068495 -0.402905 -0.134898
 11   6.790465 -0.619039 0.017802 0.005381 -0.011935 -1.508573
 12   -2.022474 -0.104699 -2.873818 -1.041851 1.070486 -3.915786
 13   1.167898 -0.537463 0.063297 -0.215668 -0.972284 0.366387
 14   7.002743 -0.617765 -0.183752 0.000229 0.000250 -2.415017
 15   8.209042 0.615527 -0.255885 1.510483 0.765006 -0.200505
 16   7.002735 -0.617911 -0.183641 0.011990 0.013965 -1.709200
 17   1.574674 0.609930 -0.000899 0.260992 0.017876 0.167499
 18   -0.602177 0.511412 -0.000006 0.000000 0.000000 0.000000
 19   3.673773 0.177020 1.119313 -0.000002 -0.000014 -0.174510
 20   3.673767 0.176993 -1.117566 0.000007 -0.000003 -0.174546
 21   3.942357 1.334540 1.627658 0.000002 -0.000011 -0.000026
 22   -0.246060 -0.011889 0.516521 -0.000011 0.000031 0.000025
 23   3.942374 1.334565 -1.631083 0.000019 0.000002 -0.000024
 24   -0.246150 -0.011872 -0.516511 -0.000005 -0.000006 0.000048
 25   4.941364 1.997338 1.629330 0.000018 -0.000001 -0.000024
 26   4.941382 1.997366 -1.629410 -0.000001 0.000005 -0.000024
 27   2.914462 1.619264 1.514501 -0.000019 -0.000022 -0.000050
 28   2.916892 1.618870 -1.501142 -0.000002 -0.000009 -0.000024
 29   8.824059 0.150544 0.091743 0.000006 -0.000231 -0.174534
 30   2.111085 -0.561179 1.784320 -0.000008 -0.000682 0.000024
 31   2.121290 -0.561289 -1.853599 0.000000 0.000000 -0.000002
 32   -0.814395 -0.093824 3.127092 3.071965 -0.114691 1.239365
 33   14.298673 -0.408176 0.471578 0.000248 0.000063 -1.896136
 34   15.835795 0.581398 0.242756 -0.214735 0.106913 -0.097869
 35   -0.815868 -0.091229 -3.114430 0.066464 3.132818 -1.010216
 36   14.294526 -0.410349 -0.467541 0.000021 -0.000012 -2.607695
 37   15.834409 0.579420 -0.284600 -0.006092 -0.035255 0.214508
 38   1.139685 -3.453749 -2.823813 0.000000 0.000000 0.000001
 39   -4.457742 -1.054854 -0.746180 0.000000 0.000000 0.000000
 40   1.118101 -3.449769 3.237290 0.000000 0.000001 0.000000
 41   -4.433840 -1.059130 0.959566 -0.000001 0.000000 0.000000
 42   -0.657468 1.697302 -2.688614 0.000000 0.000002 0.000000
 43   -0.664068 1.698578 2.869377 0.000000 0.000002 0.000000
time 15
  0   -0.967547 0.175787 -20.574476 0.000000 0.000000 -1.572114
  1   -1.093036 0.000002 -0.326057 -1.570756 -1.570425 -0.000171
  2   2.262337 0.113614 0.064702 -0.000052 0.000049 -0.260865
  3   2.380047 0.353302 0.047440 -0.261678 -0.001922 -0.008489
  4   2.033756 0.190472 -0.000128 -0.000010 0.000048 -0.000279
  5   2.451511 0.204909 -0.003447 0.000000 -0.000005 -0.017472
  6   7.247600 -0.397300 -0.109469 0.000001 0.000033 -0.209377
  7   -2.022252 -0.104661 3.136172 0.751149 -1.209107 -3.650544
  8   1.168026 -0.537438 -0.063437 -0.376791 0.980642 -0.978385
  9   6.790376 -0.619176 0.015206 -0.000158 -0.000285 -2.133240
 10   8.637599 0.544015 -0.090417 -1.068495 -0.402905 -0.134898
 11   6.790465 -0.619039 0.017802 0.005381 -0.011935 -1.508573
 12   -2.022474 -0.104699 -2.873818 -1.041084 1.070167 -3.914637
 13   1.167898 -0.537463 0.063297 -0.214895 -0.971724 0.365600
 14   7.002743 -0.617765 -0.183752 0.000229 0.000250 -2.415017
 15   8.209042 0.615527 -0.255885 1.510483 0.765006 -0.200505
 16   7.002735 -0.617911 -0.183641 0.011990 0.013965 -1.709200
 17   1.574674 0.609930 -0.000899 0.260992 0.017876 0.167056
 18   -0.602177 0.511412 -0.000006 0.000000 0.000000 0.000000
 19   3.673773 0.177020 1.119313 -0.000002 -0.000014 -0.174510
 20   3.673767 0.176993 -1.117566 0.000007 -0.000003 -0.174546
 21   3.942357 1.334540 1.627658 0.000002 -0.000011 -0.000026
 22   -0.246060 -0.011889 0.516521 -0.000011 0.000031 0.000025
 23   3.942374 1.334565 -1.631083 0.000019 0.000002 -0.000024
 24   -0.246150 -0.011872 -0.516511 -0.000005 -0.000006 0.000048
 25   4.941364 1.997338 1.629330 0.000018 -0.000001 -0.000024
 26   4.941382 1.997366 -1.629410 -0.000001 0.000005 -0.000024
 27   2.914462 1.619264 1.514501 -0.000019 -0.000022 -0.000050
 28   2.916892 1.618870 -1.501142 -0.000002 -0.000009 -0.000024
 29   8.824059 0.150544 0.091743 0.000006 -0.000231 -0.174534
 30   2.111085 -0.561179 1.784320 -0.000008 -0.000682 0.000024
 31   2.121290 -0.561289 -1.853599 0.000000 0.000000 -0.000002
 32   -0.814395 -0.093824 3.127092 3.071965 -0.114691 1.239365
 33   14.298673 -0.408176 0.471578 0.000248 0.000063 -1.896136
 34   15.835795 0.581398 0.242756 -0.214735 0.106913 -0.097869
 35   -0.815868 -0.091229 -3.114430 0.066464 3.132818 -1.010216
 36   14.294526 -0.410349 -0.467541 0.000021 -0.000012 -2.607695
 37   15.834409 0.579420 -0.284600 -0.006092 -0.035255 0.214508
 38   1.139685 -3.453749 -2.823813 0.000000 0.000000 0.000001
 39   -4.457742 -1.054854 -0.746180 0.000000 0.000000 0.000000
 40   1.118101 -3.449769 3.237290 0.000000 0.000001 0.000000
 41   -4.433840 -1.059130 0.959566 -0.000001 0.000000 0.000000
 42   -0.657468 1.697302 -2.688614 0.000000 0.000002 0.000000
 43   -0.664068 1.698578 2.869377 0.000000 0.000002 0.000000
time 16
  0   -0.967547 0.175787 -20.574476 0.000000 0.000000 -1.572114
  1   -1.093036 0.000002 -0.326057 -1.570756 -1.570425 -0.000171
  2   2.262337 0.113614 0.064702 -0.000052 0.000049 -0.260865
  3   2.380047 0.353302 0.047440 -0.261678 -0.001922 -0.008489
  4   2.033756 0.190472 -0.000128 -0.000010 0.000048 -0.000569
  5   2.451511 0.204909 -0.003447 0.000000 -0.000005 -0.017472
  6   7.247600 -0.397300 -0.109469 0.000001 0.000033 -0.209377
  7   -2.022252 -0.104661 3.136172 0.752204 -1.209481 -3.651671
  8   1.168026 -0.537438 -0.063437 -0.377676 0.981296 -0.978955
  9   6.790376 -0.619176 0.015206 -0.000158 -0.000285 -2.133240
 10   8.637599 0.544015 -0.090417 -1.068495 -0.402905 -0.134898
 11   6.790465 -0.619039 0.017802 0.005381 -0.011935 -1.508573
 12   -2.022474 -0.104699 -2.873818 -1.041851 1.070486 -3.915786
 13   1.167898 -0.537463 0.063297 -0.215668 -0.972284 0.366387
 14   7.002743 -0.617765 -0.183752 0.000229 0.000250 -2.415017
 15   8.209042 0.615527 -0.255885 1.510483 0.765006 -0.200505
 16   7.002735 -0.617911 -0.183641 0.011990 0.013965 -1.709200
 17   1.574674 0.609930 -0.000899 0.260992 0.017876 0.167499
 18   -0.602177 0.511412 -0.000006 0.000000 0.000000 0.000000
 19   3.673773 0.177020 1.119313 -0.000002 -0.000014 -0.174510
 20   3.673767 0.176993 -1.117566 0.000007 -0.000003 -0.174546
 21   3.942357 1.334540 1.627658 0.000002 -0.000011 -0.000026
 22   -0.246060 -0.011889 0.516521 -0.000011 0.000031 0.000025
 23   3.942374 1.334565 -1.631083 0.000019 0.000002 -0.000024
 24   -0.246150 -0.011872 -0.516511 -0.000005 -0.000006 0.000048
 25   4.941364 1.997338 1.629330 0.000018 -0.000001 -0.000024
 26   4.941382 1.997366 -1.629410 -0.000001 0.000005 -0.000024
 27   2.914462 1.619264 1.514501 -0.000019 -0.000022 -0.000050
 28   2.916892 1.618870 -1.501142 -0.000002 -0.000009 -0.000024
 29   8.824059 0.150544 0.091743 0.000006 -0.000231 -0.174534
 30   2.111085 -0.561179 1.784320 -0.000008 -0.000682 0.000024
 31   2.121290 -0.561289 -1.853599 0.000000 0.000000 -0.000002
 32   -0.814395 -0.093824 3.127092 3.071965 -0.114691 1.239365
 33   14.298673 -0.408176 0.471578 0.000248 0.000063 -1.896136
 34   15.835795 0.581398 0.242756 -0.214735 0.106913 -0.097869
 35   -0.815868 -0.091229 -3.114430 0.066464 3.132818 -1.010216
 36   14.294526 -0.410349 -0.467541 0.000021 -0.000012 -2.607695
 37   15.834409 0.579420 -0.284600 -0.006092 -0.035255 0.214508
 38   1.139685 -3.453749 -2.823813 0.000000 0.000000 0.000001
 39   -4.457742 -1.054854 -0.746180 0.000000 0.000000 0.000000
 40   1.118101 -3.449769 3.237290 0.000000 0.000001 0.000000
 41   -4.433840 -1.059130 0.959566 -0.000001 0.000000 0.000000
 42   -0.657468 1.697302 -2.688614 0.000000 0.000002 0.000000
 43   -0.664068 1.698578 2.869377 0.000000 0.000002 0.000000
time 17
  0   -0.967547 0.175787 -20.574476 0.000000 0.000000 -1.572114
  1   -1.093036 0.000002 -0.326057 -1.570756 -1.570425 -0.000171
  2   2.262337 0.113614 0.064702 -0.000052 0.000049 -0.260865
  3   2.380047 0.353302 0.047440 -0.261678 -0.001922 -0.008489
  4   2.033756 0.190472 -0.000128 -0.000010 0.000048 -0.001439
  5   2.451511 0.204909 -0.003447 0.000000 -0.000005 -0.017472
  6   7.247600 -0.397300 -0.109469 0.000001 0.000033 -0.209377
  7   -2.022252 -0.104661 3.136172 0.755175 -1.210779 -3.655146
  8   1.168026 -0.537438 -0.063437 -0.379701 0.982906 -0.980410
  9   6.790376 -0.619176 0.015206 -0.000158 -0.000285 -2.133240
 10   8.637599 0.544015 -0.090417 -1.068495 -0.402905 -0.134898
 11   6.790465 -0.619039 0.017802 0.005381 -0.011935 -1.508573
 12   -2.022474 -0.104699 -2.873818 -1.044725 1.071212 -3.918946
 13   1.167898 -0.537463 0.063297 -0.218480 -0.974013 0.368808
 14   7.002743 -0.617765 -0.183752 0.000229 0.000250 -2.415017
 15   8.209042 0.615527 -0.255885 1.510483 0.765006 -0.200505
 16   7.002735 -0.617911 -0.183641 0.011990 0.013965 -1.709200
 17   1.574674 0.609930 -0.000899 0.260992 0.017876 0.168350
 18   -0.602177 0.511412 -0.000006 0.000000 0.000000 0.000000
 19   3.673773 0.177020 1.119313 -0.000002 -0.000014 -0.174510
 20   3.673767 0.176993 -1.117566 0.000007 -0.000003 -0.174546
 21   3.942357 1.334540 1.627658 0.000002 -0.000011 -0.000026
 22   -0.246060 -0.011889 0.516521 -0.000011 0.000031 0.000025
 23   3.942374 1.334565 -1.631083 0.000019 0.000002 -0.000024
 24   -0.246150 -0.011872 -0.516511 -0.000005 -0.000006 0.000048
 25   4.941364 1.997338 1.629330 0.000018 -0.000001 -0.000024
 26   4.941382 1.997366 -1.629410 -0.000001 0.000005 -0.000024
 27   2.914462 1.619264 1.514501 -0.000019 -0.000022 -0.000050
 28   2.916892 1.618870 -1.501142 -0.000002 -0.000009 -0.000024
 29   8.824059 0.150544 0.091743 0.000006 -0.000231 -0.174534
 30   2.111085 -0.561179 1.784320 -0.000008 -0.000682 0.000024
 31   2.121290 -0.561289 -1.853599 0.000000 0.000000 -0.000002
 32   -0.814395 -0.093824 3.127092 3.071965 -0.114691 1.239365
 33   14.298673 -0.408176 0.471578 0.000248 0.000063 -1.896136
 34   15.835795 0.581398 0.242756 -0.214735 0.106913 -0.097869
 35   -0.815868 -0.091229 -3.114430 0.066464 3.132818 -1.010216
 36   14.294526 -0.410349 -0.467541 0.000021 -0.000012 -2.607695
 37   15.834409 0.579420 -0.284600 -0.006092 -0.035255 0.214508
 38   1.139685 -3.453749 -2.823813 0.000000 0.000000 0.000001
 39   -4.457742 -1.054854 -0.746180 0.000000 0.000000 0.000000
 40   1.118101 -3.449769 3.237290 0.000000 0.000001 0.000000
 41   -4.433840 -1.059130 0.959566 -0.000001 0.000000 0.000000
 42   -0.657468 1.697302 -2.688614 0.000000 0.000002 0.000000
 43   -0.664068 1.698578 2.869377 0.000000 0.000002 0.000000
time 18
  0   -0.967547 0.175787 -20.574476 0.000000 0.000000 -1.572114
  1   -1.093036 0.000002 -0.326057 -1.570756 -1.570425 -0.000171
  2   2.262337 0.113614 0.064702 -0.000052 0.000049 -0.260865
  3   2.380047 0.353302 0.047440 -0.261678 -0.001922 -0.008489
  4   2.033756 0.190472 -0.000128 -0.000010 0.000048 -0.002780
  5   2.451511 0.204909 -0.003447 0.000000 -0.000005 -0.017472
  6   7.247600 -0.397300 -0.109469 0.000001 0.000033 -0.209377
  7   -2.022252 -0.104661 3.136172 0.760064 -1.212825 -3.660311
  8   1.168026 -0.537438 -0.063437 -0.383055 0.985774 -0.982813
  9   6.790376 -0.619176 0.015206 -0.000158 -0.000285 -2.133240
 10   8.637599 0.544015 -0.090417 -1.068495 -0.402905 -0.134898
 11   6.790465 -0.619039 0.017802 0.005381 -0.011935 -1.508573
 12   -2.022474 -0.104699 -2.873818 -1.048845 1.072489 -3.923733
 13   1.167898 -0.537463 0.063297 -0.222768 -0.976759 0.372501
 14   7.002743 -0.617765 -0.183752 0.000229 0.000250 -2.415017
 15   8.209042 0.615527 -0.255885 1.510483 0.765006 -0.200505
 16   7.002735 -0.617911 -0.183641 0.011990 0.013965 -1.709200
 17   1.574674 0.609930 -0.000899 0.260992 0.017876 0.169606
 18   -0.602177 0.511412 -0.000006 0.000000 0.000000 0.000000
 19   3.673773 0.177020 1.119313 -0.000002 -0.000014 -0.174510
 20   3.673767 0.176993 -1.117566 0.000007 -0.000003 -0.174546
 21   3.942357 1.334540 1.627658 0.000002 -0.000011 -0.000026
 22   -0.246060 -0.011889 0.516521 -0.000011 0.000031 0.000025
 23   3.942374 1.334565 -1.631083 0.000019 0.000002 -0.000024
 24   -0.246150 -0.011872 -0.516511 -0.000005 -0.000006 0.000048
 25   4.941364 1.997338 1.629330 0.000018 -0.000001 -0.000024
 26   4.941382 1.997366 -1.629410 -0.000001 0.000005 -0.000024
 27   2.914462 1.619264 1.514501 -0.000019 -0.000022 -0.000050
 28   2.916892 1.618870 -1.501142 -0.000002 -0.000009 -0.000024
 29   8.824059 0.150544 0.091743 0.000006 -0.000231 -0.174534
 30   2.111085 -0.561179 1.784320 -0.000008 -0.000682 0.000024
 31   2.121290 -0.561289 -1.853599 0.000000 0.000000 -0.000002
 32   -0.814395 -0.093824 3.127092 3.071965 -0.114691 1.239365
 33   14.298673 -0.408176 0.471578 0.000248 0.000063 -1.896136
 34   15.835795 0.581398 0.242756 -0.214735 0.106913 -0.097869
 35   -0.815868 -0.091229 -3.114430 0.066464 3.132818 -1.010216
 36   14.294526 -0.410349 -0.467541 0.000021 -0.000012 -2.607695
 37   15.834409 0.579420 -0.284600 -0.006092 -0.035255 0.214508
 38   1.139685 -3.453749 -2.823813 0.000000 0.000000 0.000001
 39   -4.457742 -1.054854 -0.746180 0.000000 0.000000 0.000000
 40   1.118101 -3.449769 3.237290 0.000000 0.000001 0.000000
 41   -4.433840 -1.059130 0.959566 -0.000001 0.000000 0.000000
 42   -0.657468 1.697302 -2.688614 0.000000 0.000002 0.000000
 43   -0.664068 1.698578 2.869377 0.000000 0.000002 0.000000
time 19
  0   -0.967547 0.175787 -20.574476 0.000000 0.000000 -1.572114
  1   -1.093036 0.000002 -0.326057 -1.570756 -1.570425 -0.000171
  2   2.262337 0.113614 0.064702 -0.000052 0.000049 -0.260865
  3   2.380047 0.353302 0.047440 -0.261678 -0.001922 -0.008489
  4   2.033756 0.190472 -0.000128 -0.000010 0.000048 -0.004592
  5   2.451511 0.204909 -0.003447 0.000000 -0.000005 -0.017472
  6   7.247600 -0.397300 -0.109469 0.000001 0.000033 -0.209377
  7   -2.022252 -0.104661 3.136172 0.766774 -1.215333 -3.667543
  8   1.168026 -0.537438 -0.063437 -0.387422 0.989145 -0.986230
  9   6.790376 -0.619176 0.015206 -0.000158 -0.000285 -2.133240
 10   8.637599 0.544015 -0.090417 -1.068495 -0.402905 -0.134898
 11   6.790465 -0.619039 0.017802 0.005381 -0.011935 -1.508573
 12   -2.022474 -0.104699 -2.873818 -1.054689 1.074550 -3.930243
 13   1.167898 -0.537463 0.063297 -0.227900 -0.980065 0.377404
 14   7.002743 -0.617765 -0.183752 0.000229 0.000250 -2.415017
 15   8.209042 0.615527 -0.255885 1.510483 0.765006 -0.200505
 16   7.002735 -0.617911 -0.183641 0.011990 0.013965 -1.709200
 17   1.574674 0.609930 -0.000899 0.260992 0.017876 0.171491
 18   -0.602177 0.511412 -0.000006 0.000000 0.000000 0.000000
 19   3.673773 0.177020 1.119313 -0.000002 -0.000014 -0.174510
 20   3.673767 0.176993 -1.117566 0.000007 -0.000003 -0.174546
 21   3.942357 1.334540 1.627658 0.000002 -0.000011 -0.000026
 22   -0.246060 -0.011889 0.516521 -0.000011 0.000031 0.000025
 23   3.942374 1.334565 -1.631083 0.000019 0.000002 -0.000024
 24   -0.246150 -0.011872 -0.516511 -0.000005 -0.000006 0.000048
 25   4.941364 1.997338 1.629330 0.000018 -0.000001 -0.000024
 26   4.941382 1.997366 -1.629410 -0.000001 0.000005 -0.000024
 27   2.914462 1.619264 1.514501 -0.000019 -0.000022 -0.000050
 28   2.916892 1.618870 -1.501142 -0.000002 -0.000009 -0.000024
 29   8.824059 0.150544 0.091743 0.000006 -0.000231 -0.174534
 30   2.111085 -0.561179 1.784320 -0.000008 -0.000682 0.000024
 31   2.121290 -0.561289 -1.853599 0.000000 0.000000 -0.000002
 32   -0.814395 -0.093824 3.127092 3.071965 -0.114691 1.239365
 33   14.298673 -0.408176 0.471578 0.000248 0.000063 -1.896136
 34   15.835795 0.581398 0.242756 -0.214735 0.106913 -0.097869
 35   -0.815868 -0.091229 -3.114430 0.066464 3.132818 -1.010216
 36   14.294526 -0.410349 -0.467541 0.000021 -0.000012 -2.607695
 37   15.834409 0.579420 -0.284600 -0.006092 -0.035255 0.214508
 38   1.139685 -3.453749 -2.823813 0.000000 0.000000 0.000001
 39   -4.457742 -1.054854 -0.746180 0.000000 0.000000 0.000000
 40   1.118101 -3.449769 3.237290 0.000000 0.000001 0.000000
 41   -4.433840 -1.059130 0.959566 -0.000001 0.000000 0.000000
 42   -0.657468 1.697302 -2.688614 0.000000 0.000002 0.000000
 43   -0.664068 1.698578 2.869377 0.000000 0.000002 0.000000
time 20
  0   -0.967547 0.175787 -20.574476 0.000000 0.000000 -1.572114
  1   -1.093036 0.000002 -0.326057 -1.570756 -1.570425 -0.000171
  2   2.262337 0.113614 0.064702 -0.000052 0.000049 -0.260865
  3   2.380047 0.353302 0.047440 -0.261678 -0.001922 -0.008489
  4   2.033756 0.190472 -0.000128 -0.000010 0.000048 -0.006731
  5   2.451511 0.204909 -0.003447 0.000000 -0.000005 -0.017472
  6   7.247600 -0.397300 -0.109469 0.000001 0.000033 -0.209377
  7   -2.022252 -0.104661 3.136172 0.774922 -1.218389 -3.676183
  8   1.168026 -0.537438 -0.063437 -0.392611 0.993623 -0.989899
  9   6.790376 -0.619176 0.015206 -0.000158 -0.000285 -2.133240
 10   8.637599 0.544015 -0.090417 -1.068495 -0.402905 -0.134898
 11   6.790465 -0.619039 0.017802 0.005381 -0.011935 -1.508573
 12   -2.022474 -0.104699 -2.873818 -1.061396 1.076407 -3.938190
 13   1.167898 -0.537463 0.063297 -0.234719 -0.984031 0.383639
 14   7.002743 -0.617765 -0.183752 0.000229 0.000250 -2.415017
 15   8.209042 0.615527 -0.255885 1.510483 0.765006 -0.200505
 16   7.002735 -0.617911 -0.183641 0.011990 0.013965 -1.709200
 17   1.574674 0.609930 -0.000899 0.260992 0.017876 0.173635
 18   -0.602177 0.511412 -0.000006 0.000000 0.000000 0.000000
 19   3.673773 0.177020 1.119313 -0.000002 -0.000014 -0.174510
 20   3.673767 0.176993 -1.117566 0.000007 -0.000003 -0.174546
 21   3.942357 1.334540 1.627658 0.000002 -0.000011 -0.000026
 22   -0.246060 -0.011889 0.516521 -0.000011 0.000031 0.000025
 23   3.942374 1.334565 -1.631083 0.000019 0.000002 -0.000024
 24   -0.246150 -0.011872 -0.516511 -0.000005 -0.000006 0.000048
 25   4.941364 1.997338 1.629330 0.000018 -0.000001 -0.000024
 26   4.941382 1.997366 -1.629410 -0.000001 0.000005 -0.000024
 27   2.914462 1.619264 1.514501 -0.000019 -0.000022 -0.000050
 28   2.916892 1.618870 -1.501142 -0.000002 -0.000009 -0.000024
 29   8.824059 0.150544 0.091743 0.000006 -0.000231 -0.174534
 30   2.111085 -0.561179 1.784320 -0.000008 -0.000682 0.000024
 31   2.121290 -0.561289 -1.853599 0.000000 0.000000 -0.000002
 32   -0.814395 -0.093824 3.127092 3.071965 -0.114691 1.239365
 33   14.298673 -0.408176 0.471578 0.000248 0.000063 -1.896136
 34   15.835795 0.581398 0.242756 -0.214735 0.106913 -0.097869
 35   -0.815868 -0.091229 -3.114430 0.066464 3.132818 -1.010216
 36   14.294526 -0.410349 -0.467541 0.000021 -0.000012 -2.607695
 37   15.834409 0.579420 -0.284600 -0.006092 -0.035255 0.214508
 38   1.139685 -3.453749 -2.823813 0.000000 0.000000 0.000001
 39   -4.457742 -1.054854 -0.746180 0.000000 0.000000 0.000000
 40   1.118101 -3.449769 3.237290 0.000000 0.000001 0.000000
 41   -4.433840 -1.059130 0.959566 -0.000001 0.000000 0.000000
 42   -0.657468 1.697302 -2.688614 0.000000 0.000002 0.000000
 43   -0.664068 1.698578 2.869377 0.000000 0.000002 0.000000
time 21
  0   -0.967547 0.175787 -20.574476 0.000000 0.000000 -1.572114
  1   -1.093036 0.000002 -0.326057 -1.570756 -1.570425 -0.000171
  2   2.262337 0.113614 0.064702 -0.000052 0.000049 -0.260865
  3   2.380047 0.353302 0.047440 -0.261678 -0.001922 -0.008489
  4   2.033756 0.190472 -0.000128 -0.000010 0.000048 -0.009232
  5   2.451511 0.204909 -0.003447 0.000000 -0.000005 -0.017472
  6   7.247600 -0.397300 -0.109469 0.000001 0.000033 -0.209377
  7   -2.022252 -0.104661 3.136172 0.784604 -1.221964 -3.686232
  8   1.168026 -0.537438 -0.063437 -0.399065 0.998755 -0.994706
  9   6.790376 -0.619176 0.015206 -0.000158 -0.000285 -2.133240
 10   8.637599 0.544015 -0.090417 -1.068495 -0.402905 -0.134898
 11   6.790465 -0.619039 0.017802 0.005381 -0.011935 -1.508573
 12   -2.022474 -0.104699 -2.873818 -1.069635 1.078816 -3.947189
 13   1.167898 -0.537463 0.063297 -0.242311 -0.988964 0.390419
 14   7.002743 -0.617765 -0.183752 0.000229 0.000250 -2.415017
 15   8.209042 0.615527 -0.255885 1.510483 0.765006 -0.200505
 16   7.002735 -0.617911 -0.183641 0.011990 0.013965 -1.709200
 17   1.574674 0.609930 -0.000899 0.260992 0.017876 0.176185
 18   -0.602177 0.511412 -0.000006 0.000000 0.000000 0.000000
 19   3.673773 0.177020 1.119313 -0.000002 -0.000014 -0.174510
 20   3.673767 0.176993 -1.117566 0.000007 -0.000003 -0.174546
 21   3.942357 1.334540 1.627658 0.000002 -0.000011 -0.000026
 22   -0.246060 -0.011889 0.516521 -0.000011 0.000031 0.000025
 23   3.942374 1.334565 -1.631083 0.000019 0.000002 -0.000024
 24   -0.246150 -0.011872 -0.516511 -0.000005 -0.000006 0.000048
 25   4.941364 1.997338 1.629330 0.000018 -0.000001 -0.000024
 26   4.941382 1.997366 -1.629410 -0.000001 0.000005 -0.000024
 27   2.914462 1.619264 1.514501 -0.000019 -0.000022 -0.000050
 28   2.916892 1.618870 -1.501142 -0.000002 -0.000009 -0.000024
 29   8.824059 0.150544 0.091743 0.000006 -0.000231 -0.174534
 30   2.111085 -0.561179 1.784320 -0.000008 -0.000682 0.000024
 31   2.121290 -0.561289 -1.853599 0.000000 0.000000 -0.000002
 32   -0.814395 -0.093824 3.127092 3.071965 -0.114691 1.239365
 33   14.298673 -0.408176 0.471578 0.000248 0.000063 -1.896136
 34   15.835795 0.581398 0.242756 -0.214735 0.106913 -0.097869
 35   -0.815868 -0.091229 -3.114430 0.066464 3.132818 -1.010216
 36   14.294526 -0.410349 -0.467541 0.000021 -0.000012 -2.607695
 37   15.834409 0.579420 -0.284600 -0.006092 -0.035255 0.214508
 38   1.139685 -3.453749 -2.823813 0.000000 0.000000 0.000001
 39   -4.457742 -1.054854 -0.746180 0.000000 0.000000 0.000000
 40   1.118101 -3.449769 3.237290 0.000000 0.000001 0.000000
 41   -4.433840 -1.059130 0.959566 -0.000001 0.000000 0.000000
 42   -0.657468 1.697302 -2.688614 0.000000 0.000002 0.000000
 43   -0.664068 1.698578 2.869377 0.000000 0.000002 0.000000
time 22
  0   -0.967547 0.175787 -20.574476 0.000000 0.000000 -1.572114
  1   -1.093036 0.000002 -0.326057 -1.570756 -1.570425 -0.000171
  2   2.262337 0.113614 0.064702 -0.000052 0.000049 -0.260865
  3   2.380047 0.353302 0.047440 -0.261678 -0.001922 -0.008489
  4   2.033756 0.190472 -0.000128 -0.000010 0.000048 -0.011914
  5   2.451511 0.204909 -0.003447 0.000000 -0.000005 -0.017472
  6   7.247600 -0.397300 -0.109469 0.000001 0.000033 -0.209377
  7   -2.022252 -0.104661 3.136172 0.795244 -1.225798 -3.697596
  8   1.168026 -0.537438 -0.063437 -0.405900 1.003887 -0.999831
  9   6.790376 -0.619176 0.015206 -0.000158 -0.000285 -2.133240
 10   8.637599 0.544015 -0.090417 -1.068495 -0.402905 -0.134898
 11   6.790465 -0.619039 0.017802 0.005381 -0.011935 -1.508573
 12   -2.022474 -0.104699 -2.873818 -1.078641 1.081603 -3.957242
 13   1.167898 -0.537463 0.063297 -0.251027 -0.994100 0.398349
 14   7.002743 -0.617765 -0.183752 0.000229 0.000250 -2.415017
 15   8.209042 0.615527 -0.255885 1.510483 0.765006 -0.200505
 16   7.002735 -0.617911 -0.183641 0.011990 0.013965 -1.709200
 17   1.574674 0.609930 -0.000899 0.260992 0.017876 0.178736
 18   -0.602177 0.511412 -0.000006 0.000000 0.000000 0.000000
 19   3.673773 0.177020 1.119313 -0.000002 -0.000014 -0.174510
 20   3.673767 0.176993 -1.117566 0.000007 -0.000003 -0.174546
 21   3.942357 1.334540 1.627658 0.000002 -0.000011 -0.000026
 22   -0.246060 -0.011889 0.516521 -0.000011 0.000031 0.000025
 23   3.942374 1.334565 -1.631083 0.000019 0.000002 -0.000024
 24   -0.246150 -0.011872 -0.516511 -0.000005 -0.000006 0.000048
 25   4.941364 1.997338 1.629330 0.000018 -0.000001 -0.000024
 26   4.941382 1.997366 -1.629410 -0.000001 0.000005 -0.000024
 27   2.914462 1.619264 1.514501 -0.000019 -0.000022 -0.000050
 28   2.916892 1.618870 -1.501142 -0.000002 -0.000009 -0.000024
 29   8.824059 0.150544 0.091743 0.000006 -0.000231 -0.174534
 30   2.111085 -0.561179 1.784320 -0.000008 -0.000682 0.000024
 31   2.121290 -0.561289 -1.853599 0.000000 0.000000 -0.000002
 32   -0.814395 -0.093824 3.127092 3.071965 -0.114691 1.239365
 33   14.298673 -0.408176 0.471578 0.000248 0.000063 -1.896136
 34   15.835795 0.581398 0.242756 -0.214735 0.106913 -0.097869
 35   -0.815868 -0.091229 -3.114430 0.066464 3.132818 -1.010216
 36   14.294526 -0.410349 -0.467541 0.000021 -0.000012 -2.607695
 37   15.834409 0.579420 -0.284600 -0.006092 -0.035255 0.214508
 38   1.139685 -3.453749 -2.823813 0.000000 0.000000 0.000001
 39   -4.457742 -1.054854 -0.746180 0.000000 0.000000 0.000000
 40   1.118101 -3.449769 3.237290 0.000000 0.000001 0.000000
 41   -4.433840 -1.059130 0.959566 -0.000001 0.000000 0.000000
 42   -0.657468 1.697302 -2.688614 0.000000 0.000002 0.000000
 43   -0.664068 1.698578 2.869377 0.000000 0.000002 0.000000
time 23
  0   -0.967547 0.175787 -20.574476 0.000000 0.000000 -1.572114
  1   -1.093036 0.000002 -0.326057 -1.570756 -1.570425 -0.000171
  2   2.262337 0.113614 0.064702 -0.000052 0.000049 -0.260865
  3   2.380047 0.353302 0.047440 -0.261678 -0.001922 -0.008489
  4   2.033756 0.190472 -0.000128 -0.000010 0.000048 -0.014814
  5   2.451511 0.204909 -0.003447 0.000000 -0.000005 -0.017472
  6   7.247600 -0.397300 -0.109469 0.000001 0.000033 -0.209377
  7   -2.022252 -0.104661 3.136172 0.806843 -1.229833 -3.710181
  8   1.168026 -0.537438 -0.063437 -0.413493 1.009824 -1.005651
  9   6.790376 -0.619176 0.015206 -0.000158 -0.000285 -2.133240
 10   8.637599 0.544015 -0.090417 -1.068495 -0.402905 -0.134898
 11   6.790465 -0.619039 0.017802 0.005381 -0.011935 -1.508573
 12   -2.022474 -0.104699 -2.873818 -1.088317 1.084099 -3.968348
 13   1.167898 -0.537463 0.063297 -0.260377 -0.999491 0.406824
 14   7.002743 -0.617765 -0.183752 0.000229 0.000250 -2.415017
 15   8.209042 0.615527 -0.255885 1.510483 0.765006 -0.200505
 16   7.002735 -0.617911 -0.183641 0.011990 0.013965 -1.709200
 17   1.574674 0.609930 -0.000899 0.260992 0.017876 0.181803
 18   -0.602177 0.511412 -0.000006 0.000000 0.000000 0.000000
 19   3.673773 0.177020 1.119313 -0.000002 -0.000014 -0.174510
 20   3.673767 0.176993 -1.117566 0.000007 -0.000003 -0.174546
 21   3.942357 1.334540 1.627658 0.000002 -0.000011 -0.000026
 22   -0.246060 -0.011889 0.516521 -0.000011 0.000031 0.000025
 23   3.942374 1.334565 -1.631083 0.000019 0.000002 -0.000024
 24   -0.246150 -0.011872 -0.516511 -0.000005 -0.000006 0.000048
 25   4.941364 1.997338 1.629330 0.000018 -0.000001 -0.000024
 26   4.941382 1.997366 -1.629410 -0.000001 0.000005 -0.000024
 27   2.914462 1.619264 1.514501 -0.000019 -0.000022 -0.000050
 28   2.916892 1.618870 -1.501142 -0.000002 -0.000009 -0.000024
 29   8.824059 0.150544 0.091743 0.000006 -0.000231 -0.174534
 30   2.111085 -0.561179 1.784320 -0.000008 -0.000682 0.000024
 31   2.121290 -0.561289 -1.853599 0.000000 0.000000 -0.000002
 32   -0.814395 -0.093824 3.127092 3.071965 -0.114691 1.239365
 33   14.298673 -0.408176 0.471578 0.000248 0.000063 -1.896136
 34   15.835795 0.581398 0.242756 -0.214735 0.106913 -0.097869
 35   -0.815868 -0.091229 -3.114430 0.066464 3.132818 -1.010216
 36   14.294526 -0.410349 -0.467541 0.000021 -0.000012 -2.607695
 37   15.834409 0.579420 -0.284600 -0.006092 -0.035255 0.214508
 38   1.139685 -3.453749 -2.823813 0.000000 0.000000 0.000001
 39   -4.457742 -1.054854 -0.746180 0.000000 0.000000 0.000000
 40   1.118101 -3.449769 3.237290 0.000000 0.000001 0.000000
 41   -4.433840 -1.059130 0.959566 -0.000001 0.000000 0.000000
 42   -0.657468 1.697302 -2.688614 0.000000 0.000002 0.000000
 43   -0.664068 1.698578 2.869377 0.000000 0.000002 0.000000
time 24
  0   -0.967547 0.175787 -20.574476 0.000000 0.000000 -1.572114
  1   -1.093036 0.000002 -0.326057 -1.570756 -1.570425 -0.000171
  2   2.262337 0.113614 0.064702 -0.000052 0.000049 -0.260865
  3   2.380047 0.353302 0.047440 -0.261678 -0.001922 -0.008489
  4   2.033756 0.190472 -0.000128 -0.000010 0.000048 -0.017786
  5   2.451511 0.204909 -0.003447 0.000000 -0.000005 -0.017472
  6   7.247600 -0.397300 -0.109469 0.000001 0.000033 -0.209377
  7   -2.022252 -0.104661 3.136172 0.819304 -1.234042 -3.723329
  8   1.168026 -0.537438 -0.063437 -0.421467 1.015912 -1.011534
  9   6.790376 -0.619176 0.015206 -0.000158 -0.000285 -2.133240
 10   8.637599 0.544015 -0.090417 -1.068495 -0.402905 -0.134898
 11   6.790465 -0.619039 0.017802 0.005381 -0.011935 -1.508573
 12   -2.022474 -0.104699 -2.873818 -1.098377 1.086885 -3.979837
 13   1.167898 -0.537463 0.063297 -0.270500 -1.005085 0.415965
 14   7.002743 -0.617765 -0.183752 0.000229 0.000250 -2.415017
 15   8.209042 0.615527 -0.255885 1.510483 0.765006 -0.200505
 16   7.002735 -0.617911 -0.183641 0.011990 0.013965 -1.709200
 17   1.574674 0.609930 -0.000899 0.260992 0.017876 0.184649
 18   -0.602177 0.511412 -0.000006 0.000000 0.000000 0.000000
 19   3.673773 0.177020 1.119313 -0.000002 -0.000014 -0.174510
 20   3.673767 0.176993 -1.117566 0.000007 -0.000003 -0.174546
 21   3.942357 1.334540 1.627658 0.000002 -0.000011 -0.000026
 22   -0.246060 -0.011889 0.516521 -0.000011 0.000031 0.000025
 23   3.942374 1.334565 -1.631083 0.000019 0.000002 -0.000024
 24   -0.246150 -0.011872 -0.516511 -0.000005 -0.000006 0.000048
 25   4.941364 1.997338 1.629330 0.000018 -0.000001 -0.000024
 26   4.941382 1.997366 -1.629410 -0.000001 0.000005 -0.000024
 27   2.914462 1.619264 1.514501 -0.000019 -0.000022 -0.000050
 28   2.916892 1.618870 -1.501142 -0.000002 -0.000009 -0.000024
 29   8.824059 0.150544 0.091743 0.000006 -0.000231 -0.174534
 30   2.111085 -0.561179 1.784320 -0.000008 -0.000682 0.000024
 31   2.121290 -0.561289 -1.853599 0.000000 0.000000 -0.000002
 32   -0.814395 -0.093824 3.127092 3.071965 -0.114691 1.239365
 33   14.298673 -0.408176 0.471578 0.000248 0.000063 -1.896136
 34   15.835795 0.581398 0.242756 -0.214735 0.106913 -0.097869
 35   -0.815868 -0.091229 -3.114430 0.066464 3.132818 -1.010216
 36   14.294526 -0.410349 -0.467541 0.000021 -0.000012 -2.607695
 37   15.834409 0.579420 -0.284600 -0.006092 -0.035255 0.214508
 38   1.139685 -3.453749 -2.823813 0.000000 0.000000 0.000001
 39   -4.457742 -1.054854 -0.746180 0.000000 0.000000 0.000000
 40   1.118101 -3.449769 3.237290 0.000000 0.000001 0.000000
 41   -4.433840 -1.059130 0.959566 -0.000001 0.000000 0.000000
 42   -0.657468 1.697302 -2.688614 0.000000 0.000002 0.000000
 43   -0.664068 1.698578 2.869377 0.000000 0.000002 0.000000
time 25
  0   -0.967547 0.175787 -20.574476 0.000000 0.000000 -1.572114
  1   -1.093036 0.000002 -0.326057 -1.570756 -1.570425 -0.000171
  2   2.262337 0.113614 0.064702 -0.000052 0.000049 -0.260865
  3   2.380047 0.353302 0.047440 -0.261678 -0.001922 -0.008489
  4   2.033756 0.190472 -0.000128 -0.000010 0.000048 -0.020867
  5   2.451511 0.204909 -0.003447 0.000000 -0.000005 -0.017472
  6   7.247600 -0.397300 -0.109469 0.000001 0.000033 -0.209377
  7   -2.022252 -0.104661 3.136172 0.832341 -1.238136 -3.737041
  8   1.168026 -0.537438 -0.063437 -0.429820 1.021950 -1.018049
  9   6.790376 -0.619176 0.015206 -0.000158 -0.000285 -2.133240
 10   8.637599 0.544015 -0.090417 -1.068495 -0.402905 -0.134898
 11   6.790465 -0.619039 0.017802 0.005381 -0.011935 -1.508573
 12   -2.022474 -0.104699 -2.873818 -1.109012 1.089903 -3.991900
 13   1.167898 -0.537463 0.063297 -0.280693 -1.010831 0.425408
 14   7.002743 -0.617765 -0.183752 0.000229 0.000250 -2.415017
 15   8.209042 0.615527 -0.255885 1.510483 0.765006 -0.200505
 16   7.002735 -0.617911 -0.183641 0.011990 0.013965 -1.709200
 17   1.574674 0.609930 -0.000899 0.260992 0.017876 0.187902
 18   -0.602177 0.511412 -0.000006 0.000000 0.000000 0.000000
 19   3.673773 0.177020 1.119313 -0.000002 -0.000014 -0.174510
 20   3.673767 0.176993 -1.117566 0.000007 -0.000003 -0.174546
 21   3.942357 1.334540 1.627658 0.000002 -0.000011 -0.000026
 22   -0.246060 -0.011889 0.516521 -0.000011 0.000031 0.000025
 23   3.942374 1.334565 -1.631083 0.000019 0.000002 -0.000024
 24   -0.246150 -0.011872 -0.516511 -0.000005 -0.000006 0.000048
 25   4.941364 1.997338 1.629330 0.000018 -0.000001 -0.000024
 26   4.941382 1.997366 -1.629410 -0.000001 0.000005 -0.000024
 27   2.914462 1.619264 1.514501 -0.000019 -0.000022 -0.000050
 28   2.916892 1.618870 -1.501142 -0.000002 -0.000009 -0.000024
 29   8.824059 0.150544 0.091743 0.000006 -0.000231 -0.174534
 30   2.111085 -0.561179 1.784320 -0.000008 -0.000682 0.000024
 31   2.121290 -0.561289 -1.853599 0.000000 0.000000 -0.000002
 32   -0.814395 -0.093824 3.127092 3.071965 -0.114691 1.239365
 33   14.298673 -0.408176 0.471578 0.000248 0.000063 -1.896136
 34   15.835795 0.581398 0.242756 -0.214735 0.106913 -0.097869
 35   -0.815868 -0.091229 -3.114430 0.066464 3.132818 -1.010216
 36   14.294526 -0.410349 -0.467541 0.000021 -0.000012 -2.607695
 37   15.834409 0.579420 -0.284600 -0.006092 -0.035255 0.214508
 38   1.139685 -3.453749 -2.823813 0.000000 0.000000 0.000001
 39   -4.457742 -1.054854 -0.746180 0.000000 0.000000 0.000000
 40   1.118101 -3.449769 3.237290 0.000000 0.000001 0.000000
 41   -4.433840 -1.059130 0.959566 -0.000001 0.000000 0.000000
 42   -0.657468 1.697302 -2.688614 0.000000 0.000002 0.000000
 43   -0.664068 1.698578 2.869377 0.000000 0.000002 0.000000
time 26
  0   -0.967547 0.175787 -20.574476 0.000000 0.000000 -1.572114
  1   -1.093036 0.000002 -0.326057 -1.570756 -1.570425 -0.000171
  2   2.262337 0.113614 0.064702 -0.000052 0.000049 -0.260865
  3   2.380047 0.353302 0.047440 -0.261678 -0.001922 -0.008489
  4   2.033756 0.190472 -0.000128 -0.000010 0.000048 -0.024093
  5   2.451511 0.204909 -0.003447 0.000000 -0.000005 -0.017472
  6   7.247600 -0.397300 -0.109469 0.000001 0.000033 -0.209377
  7   -2.022252 -0.104661 3.136172 0.845665 -1.242287 -3.751316
  8   1.168026 -0.537438 -0.063437 -0.438109 1.028189 -1.024629
  9   6.790376 -0.619176 0.015206 -0.000158 -0.000285 -2.133240
 10   8.637599 0.544015 -0.090417 -1.068495 -0.402905 -0.134898
 11   6.790465 -0.619039 0.017802 0.005381 -0.011935 -1.508573
 12   -2.022474 -0.104699 -2.873818 -1.119742 1.092574 -4.003868
 13   1.167898 -0.537463 0.063297 -0.291518 -1.016476 0.434912
 14   7.002743 -0.617765 -0.183752 0.000229 0.000250 -2.415017
 15   8.209042 0.615527 -0.255885 1.510483 0.765006 -0.200505
 16   7.002735 -0.617911 -0.183641 0.011990 0.013965 -1.709200
 17   1.574674 0.609930 -0.000899 0.260992 0.017876 0.190896
 18   -0.602177 0.511412 -0.000006 0.000000 0.000000 0.000000
 19   3.673773 0.177020 1.119313 -0.000002 -0.000014 -0.174510
 20   3.673767 0.176993 -1.117566 0.000007 -0.000003 -0.174546
 21   3.942357 1.334540 1.627658 0.000002 -0.000011 -0.000026
 22   -0.246060 -0.011889 0.516521 -0.000011 0.000031 0.000025
 23   3.942374 1.334565 -1.631083 0.000019 0.000002 -0.000024
 24   -0.246150 -0.011872 -0.516511 -0.000005 -0.000006 0.000048
 25   4.941364 1.997338 1.629330 0.000018 -0.000001 -0.000024
 26   4.941382 1.997366 -1.629410 -0.000001 0.000005 -0.000024
 27   2.914462 1.619264 1.514501 -0.000019 -0.000022 -0.000050
 28   2.916892 1.618870 -1.501142 -0.000002 -0.000009 -0.000024
 29   8.824059 0.150544 0.091743 0.000006 -0.000231 -0.174534
 30   2.111085 -0.561179 1.784320 -0.000008 -0.000682 0.000024
 31   2.121290 -0.561289 -1.853599 0.000000 0.000000 -0.000002
 32   -0.814395 -0.093824 3.127092 3.071965 -0.114691 1.239365
 33   14.298673 -0.408176 0.471578 0.000248 0.000063 -1.896136
 34   15.835795 0.581398 0.242756 -0.214735 0.106913 -0.097869
 35   -0.815868 -0.091229 -3.114430 0.066464 3.132818 -1.010216
 36   14.294526 -0.410349 -0.467541 0.000021 -0.000012 -2.607695
 37   15.834409 0.579420 -0.284600 -0.006092 -0.035255 0.214508
 38   1.139685 -3.453749 -2.823813 0.000000 0.000000 0.000001
 39   -4.457742 -1.054854 -0.746180 0.000000 0.000000 0.000000
 40   1.118101 -3.449769 3.237290 0.000000 0.000001 0.000000
 41   -4.433840 -1.059130 0.959566 -0.000001 0.000000 0.000000
 42   -0.657468 1.697302 -2.688614 0.000000 0.000002 0.000000
 43   -0.664068 1.698578 2.869377 0.000000 0.000002 0.000000
time 27
  0   -0.967547 0.175787 -20.574476 0.000000 0.000000 -1.572114
  1   -1.093036 0.000002 -0.326057 -1.570756 -1.570425 -0.000171
  2   2.262337 0.113614 0.064702 -0.000052 0.000049 -0.260865
  3   2.380047 0.353302 0.047440 -0.261678 -0.001922 -0.008489
  4   2.033756 0.190472 -0.000128 -0.000010 0.000048 -0.027174
  5   2.451511 0.204909 -0.003447 0.000000 -0.000005 -0.017472
  6   7.247600 -0.397300 -0.109469 0.000001 0.000033 -0.209377
  7   -2.022252 -0.104661 3.136172 0.859181 -1.246179 -3.765404
  8   1.168026 -0.537438 -0.063437 -0.446462 1.034277 -1.031208
  9   6.790376 -0.619176 0.015206 -0.000158 -0.000285 -2.133240
 10   8.637599 0.544015 -0.090417 -1.068495 -0.402905 -0.134898
 11   6.790465 -0.619039 0.017802 0.005381 -0.011935 -1.508573
 12   -2.022474 -0.104699 -2.873818 -1.130281 1.095012 -4.015836
 13   1.167898 -0.537463 0.063297 -0.301922 -1.022070 0.444658
 14   7.002743 -0.617765 -0.183752 0.000229 0.000250 -2.415017
 15   8.209042 0.615527 -0.255885 1.510483 0.765006 -0.200505
 16   7.002735 -0.617911 -0.183641 0.011990 0.013965 -1.709200
 17   1.574674 0.609930 -0.000899 0.260992 0.017876 0.194037
 18   -0.602177 0.511412 -0.000006 0.000000 0.000000 0.000000
 19   3.673773 0.177020 1.119313 -0.000002 -0.000014 -0.174510
 20   3.673767 0.176993 -1.117566 0.000007 -0.000003 -0.174546
 21   3.942357 1.334540 1.627658 0.000002 -0.000011 -0.000026
 22   -0.246060 -0.011889 0.516521 -0.000011 0.000031 0.000025
 23   3.942374 1.334565 -1.631083 0.000019 0.000002 -0.000024
 24   -0.246150 -0.011872 -0.516511 -0.000005 -0.000006 0.000048
 25   4.941364 1.997338 1.629330 0.000018 -0.000001 -0.000024
 26   4.941382 1.997366 -1.629410 -0.000001 0.000005 -0.000024
 27   2.914462 1.619264 1.514501 -0.000019 -0.000022 -0.000050
 28   2.916892 1.618870 -1.501142 -0.000002 -0.000009 -0.000024
 29   8.824059 0.150544 0.091743 0.000006 -0.000231 -0.174534
 30   2.111085 -0.561179 1.784320 -0.000008 -0.000682 0.000024
 31   2.121290 -0.561289 -1.853599 0.000000 0.000000 -0.000002
 32   -0.814395 -0.093824 3.127092 3.071965 -0.114691 1.239365
 33   14.298673 -0.408176 0.471578 0.000248 0.000063 -1.896136
 34   15.835795 0.581398 0.242756 -0.214735 0.106913 -0.097869
 35   -0.815868 -0.091229 -3.114430 0.066464 3.132818 -1.010216
 36   14.294526 -0.410349 -0.467541 0.000021 -0.000012 -2.607695
 37   15.834409 0.579420 -0.284600 -0.006092 -0.035255 0.214508
 38   1.139685 -3.453749 -2.823813 0.000000 0.000000 0.000001
 39   -4.457742 -1.054854 -0.746180 0.000000 0.000000 0.000000
 40   1.118101 -3.449769 3.237290 0.000000 0.000001 0.000000
 41   -4.433840 -1.059130 0.959566 -0.000001 0.000000 0.000000
 42   -0.657468 1.697302 -2.688614 0.000000 0.000002 0.000000
 43   -0.664068 1.698578 2.869377 0.000000 0.000002 0.000000
time 28
  0   -0.967547 0.175787 -20.574476 0.000000 0.000000 -1.572114
  1   -1.093036 0.000002 -0.326057 -1.570756 -1.570425 -0.000171
  2   2.262337 0.113614 0.064702 -0.000052 0.000049 -0.260865
  3   2.380047 0.353302 0.047440 -0.261678 -0.001922 -0.008489
  4   2.033756 0.190472 -0.000128 -0.000010 0.000048 -0.029965
  5   2.451511 0.204909 -0.003447 0.000000 -0.000005 -0.017472
  6   7.247600 -0.397300 -0.109469 0.000001 0.000033 -0.209377
  7   -2.022252 -0.104661 3.136172 0.872505 -1.250041 -3.779115
  8   1.168026 -0.537438 -0.063437 -0.454815 1.039711 -1.037724
  9   6.790376 -0.619176 0.015206 -0.000158 -0.000285 -2.133240
 10   8.637599 0.544015 -0.090417 -1.068495 -0.402905 -0.134898
 11   6.790465 -0.619039 0.017802 0.005381 -0.011935 -1.508573
 12   -2.022474 -0.104699 -2.873818 -1.140341 1.097450 -4.026942
 13   1.167898 -0.537463 0.063297 -0.312537 -1.027054 0.453920
 14   7.002743 -0.617765 -0.183752 0.000229 0.000250 -2.415017
 15   8.209042 0.615527 -0.255885 1.510483 0.765006 -0.200505
 16   7.002735 -0.617911 -0.183641 0.011990 0.013965 -1.709200
 17   1.574674 0.609930 -0.000899 0.260992 0.017876 0.196994
 18   -0.602177 0.511412 -0.000006 0.000000 0.000000 0.000000
 19   3.673773 0.177020 1.119313 -0.000002 -0.000014 -0.174510
 20   3.673767 0.176993 -1.117566 0.000007 -0.000003 -0.174546
 21   3.942357 1.334540 1.627658 0.000002 -0.000011 -0.000026
 22   -0.246060 -0.011889 0.516521 -0.000011 0.000031 0.000025
 23   3.942374 1.334565 -1.631083 0.000019 0.000002 -0.000024
 24   -0.246150 -0.011872 -0.516511 -0.000005 -0.000006 0.000048
 25   4.941364 1.997338 1.629330 0.000018 -0.000001 -0.000024
 26   4.941382 1.997366 -1.629410 -0.000001 0.000005 -0.000024
 27   2.914462 1.619264 1.514501 -0.000019 -0.000022 -0.000050
 28   2.916892 1.618870 -1.501142 -0.000002 -0.000009 -0.000024
 29   8.824059 0.150544 0.091743 0.000006 -0.000231 -0.174534
 30   2.111085 -0.561179 1.784320 -0.000008 -0.000682 0.000024
 31   2.121290 -0.561289 -1.853599 0.000000 0.000000 -0.000002
 32   -0.814395 -0.093824 3.127092 3.071965 -0.114691 1.239365
 33   14.298673 -0.408176 0.471578 0.000248 0.000063 -1.896136
 34   15.835795 0.581398 0.242756 -0.214735 0.106913 -0.097869
 35   -0.815868 -0.091229 -3.114430 0.066464 3.132818 -1.010216
 36   14.294526 -0.410349 -0.467541 0.000021 -0.000012 -2.607695
 37   15.834409 0.579420 -0.284600 -0.006092 -0.035255 0.214508
 38   1.139685 -3.453749 -2.823813 0.000000 0.000000 0.000001
 39   -4.457742 -1.054854 -0.746180 0.000000 0.000000 0.000000
 40   1.118101 -3.449769 3.237290 0.000000 0.000001 0.000000
 41   -4.433840 -1.059130 0.959566 -0.000001 0.000000 0.000000
 42   -0.657468 1.697302 -2.688614 0.000000 0.000002 0.000000
 43   -0.664068 1.698578 2.869377 0.000000 0.000002 0.000000
time 29
  0   -0.967547 0.175787 -20.574476 0.000000 0.000000 -1.572114
  1   -1.093036 0.000002 -0.326057 -1.570756 -1.570425 -0.000171
  2   2.262337 0.113614 0.064702 -0.000052 0.000049 -0.260865
  3   2.380047 0.353302 0.047440 -0.261678 -0.001922 -0.008489
  4   2.033756 0.190472 -0.000128 -0.000010 0.000048 -0.032611
  5   2.451511 0.204909 -0.003447 0.000000 -0.000005 -0.017472
  6   7.247600 -0.397300 -0.109469 0.000001 0.000033 -0.209377
  7   -2.022252 -0.104661 3.136172 0.885063 -1.253529 -3.792170
  8   1.168026 -0.537438 -0.063437 -0.462725 1.045044 -1.043860
  9   6.790376 -0.619176 0.015206 -0.000158 -0.000285 -2.133240
 10   8.637599 0.544015 -0.090417 -1.068495 -0.402905 -0.134898
 11   6.790465 -0.619039 0.017802 0.005381 -0.011935 -1.508573
 12   -2.022474 -0.104699 -2.873818 -1.150400 1.099859 -4.038048
 13   1.167898 -0.537463 0.063297 -0.322167 -1.031987 0.463061
 14   7.002743 -0.617765 -0.183752 0.000229 0.000250 -2.415017
 15   8.209042 0.615527 -0.255885 1.510483 0.765006 -0.200505
 16   7.002735 -0.617911 -0.183641 0.011990 0.013965 -1.709200
 17   1.574674 0.609930 -0.000899 0.260992 0.017876 0.199693
 18   -0.602177 0.511412 -0.000006 0.000000 0.000000 0.000000
 19   3.673773 0.177020 1.119313 -0.000002 -0.000014 -0.174510
 20   3.673767 0.176993 -1.117566 0.000007 -0.000003 -0.174546
 21   3.942357 1.334540 1.627658 0.000002 -0.000011 -0.000026
 22   -0.246060 -0.011889 0.516521 -0.000011 0.000031 0.000025
 23   3.942374 1.334565 -1.631083 0.000019 0.000002 -0.000024
 24   -0.246150 -0.011872 -0.516511 -0.000005 -0.000006 0.000048
 25   4.941364 1.997338 1.629330 0.000018 -0.000001 -0.000024
 26   4.941382 1.997366 -1.629410 -0.000001 0.000005 -0.000024
 27   2.914462 1.619264 1.514501 -0.000019 -0.000022 -0.000050
 28   2.916892 1.618870 -1.501142 -0.000002 -0.000009 -0.000024
 29   8.824059 0.150544 0.091743 0.000006 -0.000231 -0.174534
 30   2.111085 -0.561179 1.784320 -0.000008 -0.000682 0.000024
 31   2.121290 -0.561289 -1.853599 0.000000 0.000000 -0.000002
 32   -0.814395 -0.093824 3.127092 3.071965 -0.114691 1.239365
 33   14.298673 -0.408176 0.471578 0.000248 0.000063 -1.896136
 34   15.835795 0.581398 0.242756 -0.214735 0.106913 -0.097869
 35   -0.815868 -0.091229 -3.114430 0.066464 3.132818 -1.010216
 36   14.294526 -0.410349 -0.467541 0.000021 -0.000012 -2.607695
 37   15.834409 0.579420 -0.284600 -0.006092 -0.035255 0.214508
 38   1.139685 -3.453749 -2.823813 0.000000 0.000000 0.000001
 39   -4.457742 -1.054854 -0.746180 0.000000 0.000000 0.000000
 40   1.118101 -3.449769 3.237290 0.000000 0.000001 0.000000
 41   -4.433840 -1.059130 0.959566 -0.000001 0.000000 0.000000
 42   -0.657468 1.697302 -2.688614 0.000000 0.000002 0.000000
 43   -0.664068 1.698578 2.869377 0.000000 0.000002 0.000000
time 30
  0   -0.967547 0.175787 -20.574476 0.000000 0.000000 -1.572114
  1   -1.093036 0.000002 -0.326057 -1.570756 -1.570425 -0.000171
  2   2.262337 0.113614 0.064702 -0.000052 0.000049 -0.260865
  3   2.380047 0.353302 0.047440 -0.261678 -0.001922 -0.008489
  4   2.033756 0.190472 -0.000128 -0.000010 0.000048 -0.035003
  5   2.451511 0.204909 -0.003447 0.000000 -0.000005 -0.017472
  6   7.247600 -0.397300 -0.109469 0.000001 0.000033 -0.209377
  7   -2.022252 -0.104661 3.136172 0.897045 -1.256499 -3.804848
  8   1.168026 -0.537438 -0.063437 -0.469939 1.049673 -1.049616
  9   6.790376 -0.619176 0.015206 -0.000158 -0.000285 -2.133240
 10   8.637599 0.544015 -0.090417 -1.068495 -0.402905 -0.134898
 11   6.790465 -0.619039 0.017802 0.005381 -0.011935 -1.508573
 12   -2.022474 -0.104699 -2.873818 -1.159215 1.101687 -4.048100
 13   1.167898 -0.537463 0.063297 -0.331306 -1.036259 0.471233
 14   7.002743 -0.617765 -0.183752 0.000229 0.000250 -2.415017
 15   8.209042 0.615527 -0.255885 1.510483 0.765006 -0.200505
 16   7.002735 -0.617911 -0.183641 0.011990 0.013965 -1.709200
 17   1.574674 0.609930 -0.000899 0.260992 0.017876 0.201984
 18   -0.602177 0.511412 -0.000006 0.000000 0.000000 0.000000
 19   3.673773 0.177020 1.119313 -0.000002 -0.000014 -0.174510
 20   3.673767 0.176993 -1.117566 0.000007 -0.000003 -0.174546
 21   3.942357 1.334540 1.627658 0.000002 -0.000011 -0.000026
 22   -0.246060 -0.011889 0.516521 -0.000011 0.000031 0.000025
 23   3.942374 1.334565 -1.631083 0.000019 0.000002 -0.000024
 24   -0.246150 -0.011872 -0.516511 -0.000005 -0.000006 0.000048
 25   4.941364 1.997338 1.629330 0.000018 -0.000001 -0.000024
 26   4.941382 1.997366 -1.629410 -0.000001 0.000005 -0.000024
 27   2.914462 1.619264 1.514501 -0.000019 -0.000022 -0.000050
 28   2.916892 1.618870 -1.501142 -0.000002 -0.000009 -0.000024
 29   8.824059 0.150544 0.091743 0.000006 -0.000231 -0.174534
 30   2.111085 -0.561179 1.784320 -0.000008 -0.000682 0.000024
 31   2.121290 -0.561289 -1.853599 0.000000 0.000000 -0.000002
 32   -0.814395 -0.093824 3.127092 3.071965 -0.114691 1.239365
 33   14.298673 -0.408176 0.471578 0.000248 0.000063 -1.896136
 34   15.835795 0.581398 0.242756 -0.214735 0.106913 -0.097869
 35   -0.815868 -0.091229 -3.114430 0.066464 3.132818 -1.010216
 36   14.294526 -0.410349 -0.467541 0.000021 -0.000012 -2.607695
 37   15.834409 0.579420 -0.284600 -0.006092 -0.035255 0.214508
 38   1.139685 -3.453749 -2.823813 0.000000 0.000000 0.000001
 39   -4.457742 -1.054854 -0.746180 0.000000 0.000000 0.000000
 40   1.118101 -3.449769 3.237290 0.000000 0.000001 0.000000
 41   -4.433840 -1.059130 0.959566 -0.000001 0.000000 0.000000
 42   -0.657468 1.697302 -2.688614 0.000000 0.000002 0.000000
 43   -0.664068 1.698578 2.869377 0.000000 0.000002 0.000000
end
