version 1
nodes
  0 "Bip01" -1
  1 "Bip01 Pelvis" 0
  2 "Bip01 Spine" 1
  3 "Bip01 Spine1" 2
  4 "Bip01 Spine2" 3
  5 "Bip01 Spine3" 4
  6 "Bip01 Neck" 5
  7 "Bip01 L Arm" 6
  8 "Bip01 L Arm1" 7
  9 "Bip01 L Arm2" 8
 10 "Bip01 L Hand" 9
 11 "Bip06 L elbow2-smooth" 8
 12 "Bip01 R Arm" 6
 13 "Bip01 R Arm1" 12
 14 "Bip01 R Arm2" 13
 15 "Bip01 R Hand" 14
 16 "Bip06 R elbow2-smooth" 13
 17 "Bip01 Head" 6
 18 "Bip06 Head_helper" 17
 19 "Bip06 Head_eyes_l" 18
 20 "Bip06 Head_eyes_r" 18
 21 "Bip06 Head_blink_l" 18
 22 "Bip06 Head_blink_smooth_l1" 21
 23 "Bip06 Head_blink_r" 18
 24 "Bip06 Head_blink_smooth_r1" 23
 25 "Bip06 Head_L_eyebrow" 18
 26 "Bip06 Head_R_eyebrow" 18
 27 "Bip06 Head_blink_l_lid" 18
 28 "Bip06 Head_blink_r_lid" 18
 29 "Bip06 bunny" 18
 30 "Bip06 bunnyL" 29
 31 "Bip06 bunnyR" 29
 32 "Bip01 L Leg" 1
 33 "Bip01 L Leg1" 32
 34 "Bip01 L Foot" 33
 35 "Bip01 R Leg" 1
 36 "Bip01 R Leg1" 35
 37 "Bip01 R Foot" 36
 38 "Bip03 HairR1" 17
 39 "Bip03 HairR2" 38
 40 "Bip03 HairL1" 17
 41 "Bip03 HairL2" 40
 42 "Bip03 swingR" 17
 43 "Bip03 swingL" 17
end
skeleton
time 0
  0   -0.967547 0.175787 -20.574476 0.000000 0.000000 -1.572114
  1   -1.093036 0.000002 -0.326057 -1.570756 -1.570425 -0.000219
  2   2.262337 0.113614 0.064702 -0.127873 -0.007574 -0.059755
  3   2.380047 0.353302 0.047440 0.129744 0.037376 -0.077704
  4   2.033756 0.190472 -0.000128 -0.127079 -0.016527 -0.129898
  5   2.451511 0.204909 -0.003447 -0.128171 0.000073 -0.000136
  6   7.247600 -0.397300 -0.109469 0.000001 0.000033 0.087015
  7   -2.022252 -0.104661 3.136172 1.356684 -0.807630 -4.507906
  8   1.168026 -0.537438 -0.063437 -1.113249 0.328216 -0.703076
  9   6.790376 -0.619176 0.015206 -0.000158 -0.000151 -0.989833
 10   8.637599 0.544015 -0.090417 -2.723498 0.011061 0.444507
 11   6.790465 -0.619039 0.017802 0.000271 -0.011538 -0.708103
 12   -2.022474 -0.104699 -2.873818 -1.480072 0.418725 -4.580134
 13   1.167898 -0.537463 0.063297 1.273136 0.098408 -0.668274
 14   7.002743 -0.617765 -0.183752 0.000229 0.000250 -0.579106
 15   8.209042 0.615527 -0.255885 1.714615 0.156401 0.167475
 16   7.002735 -0.617911 -0.183641 0.014532 0.003308 -0.424036
 17   1.574674 0.609930 -0.000899 0.254980 -0.004560 -0.075261
 18   -0.602177 0.511412 -0.000006 0.000000 0.000000 0.000000
 19   3.673773 0.177020 1.119313 -0.000002 -0.000014 -0.174510
 20   3.673767 0.176993 -1.117566 0.000007 -0.000003 -0.174546
 21   3.942357 1.334540 1.627658 0.000002 -0.000011 -0.000026
 22   -0.246060 -0.011889 0.516521 -0.000011 0.000031 0.000025
 23   3.942374 1.334565 -1.631083 0.000019 0.000002 -0.000024
 24   -0.246150 -0.011872 -0.516511 -0.000005 -0.000006 0.000048
 25   4.941364 1.997338 1.629330 0.000018 -0.000001 -0.000024
 26   4.941382 1.997366 -1.629410 -0.000001 0.000005 -0.000024
 27   2.914462 1.619264 1.514501 -0.000019 -0.000022 -0.000050
 28   2.916892 1.618870 -1.501142 -0.000002 -0.000009 -0.000024
 29   8.824059 0.150544 0.091743 0.000006 -0.000231 -0.174534
 30   2.111085 -0.561179 1.784320 -0.000008 -0.000682 0.000024
 31   2.121290 -0.561289 -1.853599 0.000000 0.000000 -0.000002
 32   -0.814395 -0.093824 3.127092 3.071965 -0.114691 1.239365
 33   14.298673 -0.408176 0.471578 0.000248 0.000063 -1.896136
 34   15.835795 0.581398 0.242756 -0.214735 0.106913 -0.097869
 35   -0.815868 -0.091229 -3.114430 0.066464 3.132818 -1.010216
 36   14.294526 -0.410349 -0.467541 0.000021 -0.000012 -2.607695
 37   15.834409 0.579420 -0.284600 -0.006092 -0.035255 0.214508
 38   1.139685 -3.453749 -2.823813 0.000000 0.000000 0.000001
 39   -4.457742 -1.054854 -0.746180 0.000000 0.000000 0.000000
 40   1.118101 -3.449769 3.237290 0.000000 0.000001 0.000000
 41   -4.433840 -1.059130 0.959566 -0.000001 0.000000 0.000000
 42   -0.657468 1.697302 -2.688614 0.000000 0.000002 0.000000
 43   -0.664068 1.698578 2.869377 0.000000 0.000002 0.000000
time 1
  0   -0.967547 0.175787 -20.574476 0.000000 0.000000 -1.572114
  1   -1.093036 0.000002 -0.326057 -1.570756 -1.570425 -0.000219
  2   2.262337 0.113614 0.064702 -0.181001 -0.010833 -0.059285
  3   2.380047 0.353302 0.047440 0.073490 0.037016 -0.186221
  4   2.033756 0.190472 -0.000128 -0.179899 -0.023346 -0.128738
  5   2.451511 0.204909 -0.003447 -0.181336 0.000113 -0.000235
  6   7.247600 -0.397300 -0.109469 0.000001 0.000033 0.087015
  7   -2.022252 -0.104661 3.136172 1.356684 -0.807630 -4.507906
  8   1.168026 -0.537438 -0.063437 -1.018075 0.561524 -0.348565
  9   6.790376 -0.619176 0.015206 -0.000158 -0.000151 -1.652814
 10   8.637599 0.544015 -0.090417 -2.369741 0.027885 0.466500
 11   6.790465 -0.619039 0.017802 0.003074 -0.011850 -1.172155
 12   -2.022474 -0.104699 -2.873818 -1.480072 0.418725 -4.580134
 13   1.167898 -0.537463 0.063297 1.276862 -0.137710 -0.932387
 14   7.002743 -0.617765 -0.183752 0.000229 0.000250 -1.014157
 15   8.209042 0.615527 -0.255885 1.723963 0.175543 0.037218
 16   7.002735 -0.617911 -0.183641 0.014202 0.005620 -0.728535
 17   1.574674 0.609930 -0.000899 0.463084 -0.022712 0.060239
 18   -0.602177 0.511412 -0.000006 0.000000 0.000000 0.000000
 19   3.673773 0.177020 1.119313 -0.000002 -0.000014 -0.174510
 20   3.673767 0.176993 -1.117566 0.000007 -0.000003 -0.174546
 21   3.942357 1.334540 1.627658 0.000002 -0.000011 -0.000026
 22   -0.246060 -0.011889 0.516521 -0.000011 0.000031 0.000025
 23   3.942374 1.334565 -1.631083 0.000019 0.000002 -0.000024
 24   -0.246150 -0.011872 -0.516511 -0.000005 -0.000006 0.000048
 25   4.941364 1.997338 1.629330 0.000018 -0.000001 -0.000024
 26   4.941382 1.997366 -1.629410 -0.000001 0.000005 -0.000024
 27   2.914462 1.619264 1.514501 -0.000019 -0.000022 -0.000050
 28   2.916892 1.618870 -1.501142 -0.000002 -0.000009 -0.000024
 29   8.824059 0.150544 0.091743 0.000006 -0.000231 -0.174534
 30   2.111085 -0.561179 1.784320 -0.000008 -0.000682 0.000024
 31   2.121290 -0.561289 -1.853599 0.000000 0.000000 -0.000002
 32   -0.814395 -0.093824 3.127092 3.071965 -0.114691 1.239365
 33   14.298673 -0.408176 0.471578 0.000248 0.000063 -1.896136
 34   15.835795 0.581398 0.242756 -0.214735 0.106913 -0.097869
 35   -0.815868 -0.091229 -3.114430 0.066464 3.132818 -1.010216
 36   14.294526 -0.410349 -0.467541 0.000021 -0.000012 -2.607695
 37   15.834409 0.579420 -0.284600 -0.006092 -0.035255 0.214508
 38   1.139685 -3.453749 -2.823813 0.000000 0.000000 0.000001
 39   -4.457742 -1.054854 -0.746180 0.000000 0.000000 0.000000
 40   1.118101 -3.449769 3.237290 0.000000 0.000001 0.000000
 41   -4.433840 -1.059130 0.959566 -0.000001 0.000000 0.000000
 42   -0.657468 1.697302 -2.688614 0.000000 0.000002 0.000000
 43   -0.664068 1.698578 2.869377 0.000000 0.000002 0.000000
time 2
  0   -0.967547 0.175787 -20.574476 0.000000 0.000000 -1.572114
  1   -1.093036 0.000002 -0.326057 -1.570756 -1.570425 -0.000219
  2   2.262337 0.113614 0.064702 -0.234180 -0.013985 -0.058562
  3   2.380047 0.353302 0.047440 0.017626 0.030700 -0.294595
  4   2.033756 0.190472 -0.000128 -0.232626 -0.029949 -0.127397
  5   2.451511 0.204909 -0.003447 -0.234518 0.000152 -0.000235
  6   7.247600 -0.397300 -0.109469 0.000001 0.000033 0.087015
  7   -2.022252 -0.104661 3.136172 1.356684 -0.807630 -4.507906
  8   1.168026 -0.537438 -0.063437 -0.923850 0.737322 -0.017713
  9   6.790376 -0.619176 0.015206 -0.000158 -0.000285 -2.207953
 10   8.637599 0.544015 -0.090417 -2.015544 0.167680 0.529295
 11   6.790465 -0.619039 0.017802 0.005731 -0.011935 -1.560827
 12   -2.022474 -0.104699 -2.873818 -1.480072 0.418725 -4.580134
 13   1.167898 -0.537463 0.063297 1.324734 -0.366911 -1.208607
 14   7.002743 -0.617765 -0.183752 0.000229 0.000250 -1.449456
 15   8.209042 0.615527 -0.255885 1.730937 0.196122 -0.092979
 16   7.002735 -0.617911 -0.183641 0.013732 0.007988 -1.033254
 17   1.574674 0.609930 -0.000899 0.664688 -0.081075 0.188789
 18   -0.602177 0.511412 -0.000006 0.000000 0.000000 0.000000
 19   3.673773 0.177020 1.119313 -0.000002 -0.000014 -0.174510
 20   3.673767 0.176993 -1.117566 0.000007 -0.000003 -0.174546
 21   3.942357 1.334540 1.627658 0.000002 -0.000011 -0.000026
 22   -0.246060 -0.011889 0.516521 -0.000011 0.000031 0.000025
 23   3.942374 1.334565 -1.631083 0.000019 0.000002 -0.000024
 24   -0.246150 -0.011872 -0.516511 -0.000005 -0.000006 0.000048
 25   4.941364 1.997338 1.629330 0.000018 -0.000001 -0.000024
 26   4.941382 1.997366 -1.629410 -0.000001 0.000005 -0.000024
 27   2.914462 1.619264 1.514501 -0.000019 -0.000022 -0.000050
 28   2.916892 1.618870 -1.501142 -0.000002 -0.000009 -0.000024
 29   8.824059 0.150544 0.091743 0.000006 -0.000231 -0.174534
 30   2.111085 -0.561179 1.784320 -0.000008 -0.000682 0.000024
 31   2.121290 -0.561289 -1.853599 0.000000 0.000000 -0.000002
 32   -0.814395 -0.093824 3.127092 3.071965 -0.114691 1.239365
 33   14.298673 -0.408176 0.471578 0.000248 0.000063 -1.896136
 34   15.835795 0.581398 0.242756 -0.214735 0.106913 -0.097869
 35   -0.815868 -0.091229 -3.114430 0.066464 3.132818 -1.010216
 36   14.294526 -0.410349 -0.467541 0.000021 -0.000012 -2.607695
 37   15.834409 0.579420 -0.284600 -0.006092 -0.035255 0.214508
 38   1.139685 -3.453749 -2.823813 0.000000 0.000000 0.000001
 39   -4.457742 -1.054854 -0.746180 0.000000 0.000000 0.000000
 40   1.118101 -3.449769 3.237290 0.000000 0.000001 0.000000
 41   -4.433840 -1.059130 0.959566 -0.000001 0.000000 0.000000
 42   -0.657468 1.697302 -2.688614 0.000000 0.000002 0.000000
 43   -0.664068 1.698578 2.869377 0.000000 0.000002 0.000000
time 3
  0   -0.967547 0.175787 -20.574476 0.000000 0.000000 -1.572114
  1   -1.093036 0.000002 -0.326057 -1.570756 -1.570425 -0.000219
  2   2.262337 0.113614 0.064702 -0.258293 -0.015304 -0.058273
  3   2.380047 0.353302 0.047440 -0.007185 0.025979 -0.343711
  4   2.033756 0.190472 -0.000128 -0.256620 -0.032993 -0.126672
  5   2.451511 0.204909 -0.003447 -0.258687 0.000165 -0.000235
  6   7.247600 -0.397300 -0.109469 0.000001 0.000033 0.087015
  7   -2.022252 -0.104661 3.136172 1.356684 -0.807630 -4.507906
  8   1.168026 -0.537438 -0.063437 -0.949795 0.788491 0.075470
  9   6.790376 -0.619176 0.015206 -0.000158 -0.000285 -2.523407
 10   8.637599 0.544015 -0.090417 -1.711016 0.335491 0.633036
 11   6.790465 -0.619039 0.017802 0.007483 -0.011935 -1.781721
 12   -2.022474 -0.104699 -2.873818 -1.480072 0.418725 -4.580134
 13   1.167898 -0.537463 0.063297 1.369021 -0.501777 -1.374654
 14   7.002743 -0.617765 -0.183752 0.000286 0.000250 -1.811077
 15   8.209042 0.615527 -0.255885 1.734676 0.215794 -0.210427
 16   7.002735 -0.617911 -0.183641 0.013261 0.010074 -1.286424
 17   1.574674 0.609930 -0.000899 0.751983 -0.126728 0.249849
 18   -0.602177 0.511412 -0.000006 0.000000 0.000000 0.000000
 19   3.673773 0.177020 1.119313 -0.000002 -0.000014 -0.174510
 20   3.673767 0.176993 -1.117566 0.000007 -0.000003 -0.174546
 21   3.942357 1.334540 1.627658 0.000002 -0.000011 -0.000026
 22   -0.246060 -0.011889 0.516521 -0.000011 0.000031 0.000025
 23   3.942374 1.334565 -1.631083 0.000019 0.000002 -0.000024
 24   -0.246150 -0.011872 -0.516511 -0.000005 -0.000006 0.000048
 25   4.941364 1.997338 1.629330 0.000018 -0.000001 -0.000024
 26   4.941382 1.997366 -1.629410 -0.000001 0.000005 -0.000024
 27   2.914462 1.619264 1.514501 -0.000019 -0.000022 -0.000050
 28   2.916892 1.618870 -1.501142 -0.000002 -0.000009 -0.000024
 29   8.824059 0.150544 0.091743 0.000006 -0.000231 -0.174534
 30   2.111085 -0.561179 1.784320 -0.000008 -0.000682 0.000024
 31   2.121290 -0.561289 -1.853599 0.000000 0.000000 -0.000002
 32   -0.814395 -0.093824 3.127092 3.071965 -0.114691 1.239365
 33   14.298673 -0.408176 0.471578 0.000248 0.000063 -1.896136
 34   15.835795 0.581398 0.242756 -0.214735 0.106913 -0.097869
 35   -0.815868 -0.091229 -3.114430 0.066464 3.132818 -1.010216
 36   14.294526 -0.410349 -0.467541 0.000021 -0.000012 -2.607695
 37   15.834409 0.579420 -0.284600 -0.006092 -0.035255 0.214508
 38   1.139685 -3.453749 -2.823813 0.000000 0.000000 0.000001
 39   -4.457742 -1.054854 -0.746180 0.000000 0.000000 0.000000
 40   1.118101 -3.449769 3.237290 0.000000 0.000001 0.000000
 41   -4.433840 -1.059130 0.959566 -0.000001 0.000000 0.000000
 42   -0.657468 1.697302 -2.688614 0.000000 0.000002 0.000000
 43   -0.664068 1.698578 2.869377 0.000000 0.000002 0.000000
time 4
  0   -0.967547 0.175787 -20.574476 0.000000 0.000000 -1.572114
  1   -1.093036 0.000002 -0.326057 -1.570756 -1.570425 -0.000219
  2   2.262337 0.113614 0.064702 -0.255274 -0.015136 -0.058273
  3   2.380047 0.353302 0.047440 -0.004005 0.026650 -0.337508
  4   2.033756 0.190472 -0.000128 -0.253614 -0.032754 -0.126817
  5   2.451511 0.204909 -0.003447 -0.255606 0.000165 -0.000235
  6   7.247600 -0.397300 -0.109469 0.000001 0.000033 0.087015
  7   -2.022252 -0.104661 3.136172 1.356684 -0.807630 -4.507906
  8   1.168026 -0.537438 -0.063437 -0.943214 0.784869 0.066930
  9   6.790376 -0.619176 0.015206 -0.000158 -0.000285 -2.483787
 10   8.637599 0.544015 -0.090417 -1.748443 0.311558 0.610610
 11   6.790465 -0.619039 0.017802 0.007220 -0.011935 -1.753980
 12   -2.022474 -0.104699 -2.873818 -1.480072 0.418725 -4.580134
 13   1.167898 -0.537463 0.063297 1.363116 -0.488810 -1.355888
 14   7.002743 -0.617765 -0.183752 0.000286 0.000250 -1.782530
 15   8.209042 0.615527 -0.255885 1.735539 0.223738 -0.257094
 16   7.002735 -0.617911 -0.183641 0.013308 0.009905 -1.266444
 17   1.574674 0.609930 -0.000899 0.740040 -0.128976 0.251734
 18   -0.602177 0.511412 -0.000006 0.000000 0.000000 0.000000
 19   3.673773 0.177020 1.119313 -0.000002 -0.000014 -0.174510
 20   3.673767 0.176993 -1.117566 0.000007 -0.000003 -0.174546
 21   3.942357 1.334540 1.627658 0.000002 -0.000011 -0.000026
 22   -0.246060 -0.011889 0.516521 -0.000011 0.000031 0.000025
 23   3.942374 1.334565 -1.631083 0.000019 0.000002 -0.000024
 24   -0.246150 -0.011872 -0.516511 -0.000005 -0.000006 0.000048
 25   4.941364 1.997338 1.629330 0.000018 -0.000001 -0.000024
 26   4.941382 1.997366 -1.629410 -0.000001 0.000005 -0.000024
 27   2.914462 1.619264 1.514501 -0.000019 -0.000022 -0.000050
 28   2.916892 1.618870 -1.501142 -0.000002 -0.000009 -0.000024
 29   8.824059 0.150544 0.091743 0.000006 -0.000231 -0.174534
 30   2.111085 -0.561179 1.784320 -0.000008 -0.000682 0.000024
 31   2.121290 -0.561289 -1.853599 0.000000 0.000000 -0.000002
 32   -0.814395 -0.093824 3.127092 3.071965 -0.114691 1.239365
 33   14.298673 -0.408176 0.471578 0.000248 0.000063 -1.896136
 34   15.835795 0.581398 0.242756 -0.214735 0.106913 -0.097869
 35   -0.815868 -0.091229 -3.114430 0.066464 3.132818 -1.010216
 36   14.294526 -0.410349 -0.467541 0.000021 -0.000012 -2.607695
 37   15.834409 0.579420 -0.284600 -0.006092 -0.035255 0.214508
 38   1.139685 -3.453749 -2.823813 0.000000 0.000000 0.000001
 39   -4.457742 -1.054854 -0.746180 0.000000 0.000000 0.000000
 40   1.118101 -3.449769 3.237290 0.000000 0.000001 0.000000
 41   -4.433840 -1.059130 0.959566 -0.000001 0.000000 0.000000
 42   -0.657468 1.697302 -2.688614 0.000000 0.000002 0.000000
 43   -0.664068 1.698578 2.869377 0.000000 0.000002 0.000000
time 5
  0   -0.967547 0.175787 -20.574476 0.000000 0.000000 -1.572114
  1   -1.093036 0.000002 -0.326057 -1.570756 -1.570425 -0.000219
  2   2.262337 0.113614 0.064702 -0.246880 -0.014632 -0.058418
  3   2.380047 0.353302 0.047440 0.004350 0.028304 -0.320469
  4   2.033756 0.190472 -0.000128 -0.245241 -0.031543 -0.126962
  5   2.451511 0.204909 -0.003447 -0.247253 0.000152 -0.000235
  6   7.247600 -0.397300 -0.109469 0.000001 0.000033 0.087015
  7   -2.022252 -0.104661 3.136172 1.356684 -0.807630 -4.507906
  8   1.168026 -0.537438 -0.063437 -0.931760 0.770278 0.037071
  9   6.790376 -0.619176 0.015206 -0.000158 -0.000285 -2.376396
 10   8.637599 0.544015 -0.090417 -1.851215 0.250811 0.565467
 11   6.790465 -0.619039 0.017802 0.006636 -0.011935 -1.678772
 12   -2.022474 -0.104699 -2.873818 -1.480072 0.418725 -4.580134
 13   1.167898 -0.537463 0.063297 1.346174 -0.442125 -1.296867
 14   7.002743 -0.617765 -0.183752 0.000286 0.000250 -1.655472
 15   8.209042 0.615527 -0.255885 1.734029 0.210724 -0.180599
 16   7.002735 -0.617911 -0.183641 0.013449 0.009172 -1.177473
 17   1.574674 0.609930 -0.000899 0.709493 -0.115794 0.235286
 18   -0.602177 0.511412 -0.000006 0.000000 0.000000 0.000000
 19   3.673773 0.177020 1.119313 -0.000002 -0.000014 -0.174510
 20   3.673767 0.176993 -1.117566 0.000007 -0.000003 -0.174546
 21   3.942357 1.334540 1.627658 0.000002 -0.000011 -0.000026
 22   -0.246060 -0.011889 0.516521 -0.000011 0.000031 0.000025
 23   3.942374 1.334565 -1.631083 0.000019 0.000002 -0.000024
 24   -0.246150 -0.011872 -0.516511 -0.000005 -0.000006 0.000048
 25   4.941364 1.997338 1.629330 0.000018 -0.000001 -0.000024
 26   4.941382 1.997366 -1.629410 -0.000001 0.000005 -0.000024
 27   2.914462 1.619264 1.514501 -0.000019 -0.000022 -0.000050
 28   2.916892 1.618870 -1.501142 -0.000002 -0.000009 -0.000024
 29   8.824059 0.150544 0.091743 0.000006 -0.000231 -0.174534
 30   2.111085 -0.561179 1.784320 -0.000008 -0.000682 0.000024
 31   2.121290 -0.561289 -1.853599 0.000000 0.000000 -0.000002
 32   -0.814395 -0.093824 3.127092 3.071965 -0.114691 1.239365
 33   14.298673 -0.408176 0.471578 0.000248 0.000063 -1.896136
 34   15.835795 0.581398 0.242756 -0.214735 0.106913 -0.097869
 35   -0.815868 -0.091229 -3.114430 0.066464 3.132818 -1.010216
 36   14.294526 -0.410349 -0.467541 0.000021 -0.000012 -2.607695
 37   15.834409 0.579420 -0.284600 -0.006092 -0.035255 0.214508
 38   1.139685 -3.453749 -2.823813 0.000000 0.000000 0.000001
 39   -4.457742 -1.054854 -0.746180 0.000000 0.000000 0.000000
 40   1.118101 -3.449769 3.237290 0.000000 0.000001 0.000000
 41   -4.433840 -1.059130 0.959566 -0.000001 0.000000 0.000000
 42   -0.657468 1.697302 -2.688614 0.000000 0.000002 0.000000
 43   -0.664068 1.698578 2.869377 0.000000 0.000002 0.000000
time 6
  0   -0.967547 0.175787 -20.574476 0.000000 0.000000 -1.572114
  1   -1.093036 0.000002 -0.326057 -1.570756 -1.570425 -0.000219
  2   2.262337 0.113614 0.064702 -0.234180 -0.013985 -0.058562
  3   2.380047 0.353302 0.047440 0.017626 0.030700 -0.294595
  4   2.033756 0.190472 -0.000128 -0.232626 -0.029949 -0.127397
  5   2.451511 0.204909 -0.003447 -0.234518 0.000152 -0.000235
  6   7.247600 -0.397300 -0.109469 0.000001 0.000033 0.087015
  7   -2.022252 -0.104661 3.136172 1.356684 -0.807630 -4.507906
  8   1.168026 -0.537438 -0.063437 -0.933089 0.742253 -0.024039
  9   6.790376 -0.619176 0.015206 -0.000158 -0.000285 -2.245913
 10   8.637599 0.544015 -0.090417 -1.973097 0.180069 0.533708
 11   6.790465 -0.619039 0.017802 0.005964 -0.011935 -1.587472
 12   -2.022474 -0.104699 -2.873818 -1.480072 0.418725 -4.580134
 13   1.167898 -0.537463 0.063297 1.325929 -0.382625 -1.220048
 14   7.002743 -0.617765 -0.183752 0.000286 0.000250 -1.519998
 15   8.209042 0.615527 -0.255885 1.730578 0.195214 -0.087206
 16   7.002735 -0.617911 -0.183641 0.013637 0.008383 -1.082652
 17   1.574674 0.609930 -0.000899 0.663022 -0.095488 0.206937
 18   -0.602177 0.511412 -0.000006 0.000000 0.000000 0.000000
 19   3.673773 0.177020 1.119313 -0.000002 -0.000014 -0.174510
 20   3.673767 0.176993 -1.117566 0.000007 -0.000003 -0.174546
 21   3.942357 1.334540 1.627658 0.000002 -0.000011 -0.000026
 22   -0.246060 -0.011889 0.516521 -0.000011 0.000031 0.000025
 23   3.942374 1.334565 -1.631083 0.000019 0.000002 -0.000024
 24   -0.246150 -0.011872 -0.516511 -0.000005 -0.000006 0.000048
 25   4.941364 1.997338 1.629330 0.000018 -0.000001 -0.000024
 26   4.941382 1.997366 -1.629410 -0.000001 0.000005 -0.000024
 27   2.914462 1.619264 1.514501 -0.000019 -0.000022 -0.000050
 28   2.916892 1.618870 -1.501142 -0.000002 -0.000009 -0.000024
 29   8.824059 0.150544 0.091743 0.000006 -0.000231 -0.174534
 30   2.111085 -0.561179 1.784320 -0.000008 -0.000682 0.000024
 31   2.121290 -0.561289 -1.853599 0.000000 0.000000 -0.000002
 32   -0.814395 -0.093824 3.127092 3.071965 -0.114691 1.239365
 33   14.298673 -0.408176 0.471578 0.000248 0.000063 -1.896136
 34   15.835795 0.581398 0.242756 -0.214735 0.106913 -0.097869
 35   -0.815868 -0.091229 -3.114430 0.066464 3.132818 -1.010216
 36   14.294526 -0.410349 -0.467541 0.000021 -0.000012 -2.607695
 37   15.834409 0.579420 -0.284600 -0.006092 -0.035255 0.214508
 38   1.139685 -3.453749 -2.823813 0.000000 0.000000 0.000001
 39   -4.457742 -1.054854 -0.746180 0.000000 0.000000 0.000000
 40   1.118101 -3.449769 3.237290 0.000000 0.000001 0.000000
 41   -4.433840 -1.059130 0.959566 -0.000001 0.000000 0.000000
 42   -0.657468 1.697302 -2.688614 0.000000 0.000002 0.000000
 43   -0.664068 1.698578 2.869377 0.000000 0.000002 0.000000
time 7
  0   -0.967547 0.175787 -20.574476 0.000000 0.000000 -1.572114
  1   -1.093036 0.000002 -0.326057 -1.570756 -1.570425 -0.000219
  2   2.262337 0.113614 0.064702 -0.218169 -0.012955 -0.058869
  3   2.380047 0.353302 0.047440 0.034217 0.033229 -0.262191
  4   2.033756 0.190472 -0.000128 -0.216821 -0.028080 -0.127868
  5   2.451511 0.204909 -0.003447 -0.218548 0.000139 -0.000235
  6   7.247600 -0.397300 -0.109469 0.000001 0.000033 0.087015
  7   -2.022252 -0.104661 3.136172 1.356684 -0.807630 -4.507906
  8   1.168026 -0.537438 -0.063437 -0.945998 0.700643 -0.115134
  9   6.790376 -0.619176 0.015206 -0.000158 -0.000285 -2.111355
 10   8.637599 0.544015 -0.090417 -2.116379 0.099331 0.533346
 11   6.790465 -0.619039 0.017802 0.005264 -0.011935 -1.493289
 12   -2.022474 -0.104699 -2.873818 -1.480072 0.418725 -4.580134
 13   1.167898 -0.537463 0.063297 1.305894 -0.312548 -1.132333
 14   7.002743 -0.617765 -0.183752 0.000229 0.000250 -1.377759
 15   8.209042 0.615527 -0.255885 1.725760 0.179704 0.010397
 16   7.002735 -0.617911 -0.183641 0.013826 0.007593 -0.983084
 17   1.574674 0.609930 -0.000899 0.604162 -0.071845 0.169163
 18   -0.602177 0.511412 -0.000006 0.000000 0.000000 0.000000
 19   3.673773 0.177020 1.119313 -0.000002 -0.000014 -0.174510
 20   3.673767 0.176993 -1.117566 0.000007 -0.000003 -0.174546
 21   3.942357 1.334540 1.627658 0.000002 -0.000011 -0.000026
 22   -0.246060 -0.011889 0.516521 -0.000011 0.000031 0.000025
 23   3.942374 1.334565 -1.631083 0.000019 0.000002 -0.000024
 24   -0.246150 -0.011872 -0.516511 -0.000005 -0.000006 0.000048
 25   4.941364 1.997338 1.629330 0.000018 -0.000001 -0.000024
 26   4.941382 1.997366 -1.629410 -0.000001 0.000005 -0.000024
 27   2.914462 1.619264 1.514501 -0.000019 -0.000022 -0.000050
 28   2.916892 1.618870 -1.501142 -0.000002 -0.000009 -0.000024
 29   8.824059 0.150544 0.091743 0.000006 -0.000231 -0.174534
 30   2.111085 -0.561179 1.784320 -0.000008 -0.000682 0.000024
 31   2.121290 -0.561289 -1.853599 0.000000 0.000000 -0.000002
 32   -0.814395 -0.093824 3.127092 3.071965 -0.114691 1.239365
 33   14.298673 -0.408176 0.471578 0.000248 0.000063 -1.896136
 34   15.835795 0.581398 0.242756 -0.214735 0.106913 -0.097869
 35   -0.815868 -0.091229 -3.114430 0.066464 3.132818 -1.010216
 36   14.294526 -0.410349 -0.467541 0.000021 -0.000012 -2.607695
 37   15.834409 0.579420 -0.284600 -0.006092 -0.035255 0.214508
 38   1.139685 -3.453749 -2.823813 0.000000 0.000000 0.000001
 39   -4.457742 -1.054854 -0.746180 0.000000 0.000000 0.000000
 40   1.118101 -3.449769 3.237290 0.000000 0.000001 0.000000
 41   -4.433840 -1.059130 0.959566 -0.000001 0.000000 0.000000
 42   -0.657468 1.697302 -2.688614 0.000000 0.000002 0.000000
 43   -0.664068 1.698578 2.869377 0.000000 0.000002 0.000000
time 8
  0   -0.967547 0.175787 -20.574476 0.000000 0.000000 -1.572114
  1   -1.093036 0.000002 -0.326057 -1.570756 -1.570425 -0.000219
  2   2.262337 0.113614 0.064702 -0.200209 -0.011996 -0.059158
  3   2.380047 0.353302 0.047440 0.053299 0.035434 -0.225318
  4   2.033756 0.190472 -0.000128 -0.198876 -0.025779 -0.128267
  5   2.451511 0.204909 -0.003447 -0.200524 0.000126 -0.000235
  6   7.247600 -0.397300 -0.109469 0.000001 0.000033 0.087015
  7   -2.022252 -0.104661 3.136172 1.356684 -0.807630 -4.507906
  8   1.168026 -0.537438 -0.063437 -0.963274 0.647360 -0.224258
  9   6.790376 -0.619176 0.015206 -0.000158 -0.000151 -1.953779
 10   8.637599 0.544015 -0.090417 -2.282733 0.015074 0.553675
 11   6.790465 -0.619039 0.017802 0.004505 -0.011935 -1.382842
 12   -2.022474 -0.104699 -2.873818 -1.480072 0.418725 -4.580134
 13   1.167898 -0.537463 0.063297 1.288672 -0.234740 -1.038020
 14   7.002743 -0.617765 -0.183752 0.000229 0.000250 -1.230487
 15   8.209042 0.615527 -0.255885 1.719864 0.166085 0.099580
 16   7.002735 -0.617911 -0.183641 0.014014 0.006804 -0.880039
 17   1.574674 0.609930 -0.000899 0.536040 -0.048722 0.123959
 18   -0.602177 0.511412 -0.000006 0.000000 0.000000 0.000000
 19   3.673773 0.177020 1.119313 -0.000002 -0.000014 -0.174510
 20   3.673767 0.176993 -1.117566 0.000007 -0.000003 -0.174546
 21   3.942357 1.334540 1.627658 0.000002 -0.000011 -0.000026
 22   -0.246060 -0.011889 0.516521 -0.000011 0.000031 0.000025
 23   3.942374 1.334565 -1.631083 0.000019 0.000002 -0.000024
 24   -0.246150 -0.011872 -0.516511 -0.000005 -0.000006 0.000048
 25   4.941364 1.997338 1.629330 0.000018 -0.000001 -0.000024
 26   4.941382 1.997366 -1.629410 -0.000001 0.000005 -0.000024
 27   2.914462 1.619264 1.514501 -0.000019 -0.000022 -0.000050
 28   2.916892 1.618870 -1.501142 -0.000002 -0.000009 -0.000024
 29   8.824059 0.150544 0.091743 0.000006 -0.000231 -0.174534
 30   2.111085 -0.561179 1.784320 -0.000008 -0.000682 0.000024
 31   2.121290 -0.561289 -1.853599 0.000000 0.000000 -0.000002
 32   -0.814395 -0.093824 3.127092 3.071965 -0.114691 1.239365
 33   14.298673 -0.408176 0.471578 0.000248 0.000063 -1.896136
 34   15.835795 0.581398 0.242756 -0.214735 0.106913 -0.097869
 35   -0.815868 -0.091229 -3.114430 0.066464 3.132818 -1.010216
 36   14.294526 -0.410349 -0.467541 0.000021 -0.000012 -2.607695
 37   15.834409 0.579420 -0.284600 -0.006092 -0.035255 0.214508
 38   1.139685 -3.453749 -2.823813 0.000000 0.000000 0.000001
 39   -4.457742 -1.054854 -0.746180 0.000000 0.000000 0.000000
 40   1.118101 -3.449769 3.237290 0.000000 0.000001 0.000000
 41   -4.433840 -1.059130 0.959566 -0.000001 0.000000 0.000000
 42   -0.657468 1.697302 -2.688614 0.000000 0.000002 0.000000
 43   -0.664068 1.698578 2.869377 0.000000 0.000002 0.000000
time 9
  0   -0.967547 0.175787 -20.574476 0.000000 0.000000 -1.572114
  1   -1.093036 0.000002 -0.326057 -1.570756 -1.570425 -0.000219
  2   2.262337 0.113614 0.064702 -0.181001 -0.010833 -0.059285
  3   2.380047 0.353302 0.047440 0.073490 0.037016 -0.186221
  4   2.033756 0.190472 -0.000128 -0.179899 -0.023346 -0.128738
  5   2.451511 0.204909 -0.003447 -0.181336 0.000113 -0.000235
  6   7.247600 -0.397300 -0.109469 0.000001 0.000033 0.087015
  7   -2.022252 -0.104661 3.136172 1.356684 -0.807630 -4.507906
  8   1.168026 -0.537438 -0.063437 -0.989978 0.583108 -0.343504
  9   6.790376 -0.619176 0.015206 -0.000158 -0.000151 -1.763902
 10   8.637599 0.544015 -0.090417 -2.431827 -0.034833 0.566046
 11   6.790465 -0.619039 0.017802 0.003600 -0.011850 -1.249959
 12   -2.022474 -0.104699 -2.873818 -1.480072 0.418725 -4.580134
 13   1.167898 -0.537463 0.063297 1.276230 -0.152763 -0.941770
 14   7.002743 -0.617765 -0.183752 0.000229 0.000250 -1.081234
 15   8.209042 0.615527 -0.255885 1.714615 0.156401 0.167475
 16   7.002735 -0.617911 -0.183641 0.014155 0.005958 -0.775504
 17   1.574674 0.609930 -0.000899 0.462799 -0.029126 0.073064
 18   -0.602177 0.511412 -0.000006 0.000000 0.000000 0.000000
 19   3.673773 0.177020 1.119313 -0.000002 -0.000014 -0.174510
 20   3.673767 0.176993 -1.117566 0.000007 -0.000003 -0.174546
 21   3.942357 1.334540 1.627658 0.000002 -0.000011 -0.000026
 22   -0.246060 -0.011889 0.516521 -0.000011 0.000031 0.000025
 23   3.942374 1.334565 -1.631083 0.000019 0.000002 -0.000024
 24   -0.246150 -0.011872 -0.516511 -0.000005 -0.000006 0.000048
 25   4.941364 1.997338 1.629330 0.000018 -0.000001 -0.000024
 26   4.941382 1.997366 -1.629410 -0.000001 0.000005 -0.000024
 27   2.914462 1.619264 1.514501 -0.000019 -0.000022 -0.000050
 28   2.916892 1.618870 -1.501142 -0.000002 -0.000009 -0.000024
 29   8.824059 0.150544 0.091743 0.000006 -0.000231 -0.174534
 30   2.111085 -0.561179 1.784320 -0.000008 -0.000682 0.000024
 31   2.121290 -0.561289 -1.853599 0.000000 0.000000 -0.000002
 32   -0.814395 -0.093824 3.127092 3.071965 -0.114691 1.239365
 33   14.298673 -0.408176 0.471578 0.000248 0.000063 -1.896136
 34   15.835795 0.581398 0.242756 -0.214735 0.106913 -0.097869
 35   -0.815868 -0.091229 -3.114430 0.066464 3.132818 -1.010216
 36   14.294526 -0.410349 -0.467541 0.000021 -0.000012 -2.607695
 37   15.834409 0.579420 -0.284600 -0.006092 -0.035255 0.214508
 38   1.139685 -3.453749 -2.823813 0.000000 0.000000 0.000001
 39   -4.457742 -1.054854 -0.746180 0.000000 0.000000 0.000000
 40   1.118101 -3.449769 3.237290 0.000000 0.000001 0.000000
 41   -4.433840 -1.059130 0.959566 -0.000001 0.000000 0.000000
 42   -0.657468 1.697302 -2.688614 0.000000 0.000002 0.000000
 43   -0.664068 1.698578 2.869377 0.000000 0.000002 0.000000
time 10
  0   -0.967547 0.175787 -20.574476 0.000000 0.000000 -1.572114
  1   -1.093036 0.000002 -0.326057 -1.570756 -1.570425 -0.000219
  2   2.262337 0.113614 0.064702 -0.161933 -0.009695 -0.059484
  3   2.380047 0.353302 0.047440 0.093711 0.037807 -0.147083
  4   2.033756 0.190472 -0.000128 -0.160829 -0.020757 -0.129318
  5   2.451511 0.204909 -0.003447 -0.162234 0.000099 -0.000235
  6   7.247600 -0.397300 -0.109469 0.000001 0.000033 0.087015
  7   -2.022252 -0.104661 3.136172 1.356684 -0.807630 -4.507906
  8   1.168026 -0.537438 -0.063437 -1.030984 0.504065 -0.468696
  9   6.790376 -0.619176 0.015206 -0.000158 -0.000151 -1.527463
 10   8.637599 0.544015 -0.090417 -2.541291 -0.034833 0.542534
 11   6.790465 -0.619039 0.017802 0.002549 -0.011793 -1.084432
 12   -2.022474 -0.104699 -2.873818 -1.480072 0.418725 -4.580134
 13   1.167898 -0.537463 0.063297 1.269551 -0.067378 -0.846125
 14   7.002743 -0.617765 -0.183752 0.000229 0.000250 -0.921091
 15   8.209042 0.615527 -0.255885 1.712602 0.153147 0.191230
 16   7.002735 -0.617911 -0.183641 0.014296 0.005112 -0.663408
 17   1.574674 0.609930 -0.000899 0.388422 -0.015068 0.020616
 18   -0.602177 0.511412 -0.000006 0.000000 0.000000 0.000000
 19   3.673773 0.177020 1.119313 -0.000002 -0.000014 -0.174510
 20   3.673767 0.176993 -1.117566 0.000007 -0.000003 -0.174546
 21   3.942357 1.334540 1.627658 0.000002 -0.000011 -0.000026
 22   -0.246060 -0.011889 0.516521 -0.000011 0.000031 0.000025
 23   3.942374 1.334565 -1.631083 0.000019 0.000002 -0.000024
 24   -0.246150 -0.011872 -0.516511 -0.000005 -0.000006 0.000048
 25   4.941364 1.997338 1.629330 0.000018 -0.000001 -0.000024
 26   4.941382 1.997366 -1.629410 -0.000001 0.000005 -0.000024
 27   2.914462 1.619264 1.514501 -0.000019 -0.000022 -0.000050
 28   2.916892 1.618870 -1.501142 -0.000002 -0.000009 -0.000024
 29   8.824059 0.150544 0.091743 0.000006 -0.000231 -0.174534
 30   2.111085 -0.561179 1.784320 -0.000008 -0.000682 0.000024
 31   2.121290 -0.561289 -1.853599 0.000000 0.000000 -0.000002
 32   -0.814395 -0.093824 3.127092 3.071965 -0.114691 1.239365
 33   14.298673 -0.408176 0.471578 0.000248 0.000063 -1.896136
 34   15.835795 0.581398 0.242756 -0.214735 0.106913 -0.097869
 35   -0.815868 -0.091229 -3.114430 0.066464 3.132818 -1.010216
 36   14.294526 -0.410349 -0.467541 0.000021 -0.000012 -2.607695
 37   15.834409 0.579420 -0.284600 -0.006092 -0.035255 0.214508
 38   1.139685 -3.453749 -2.823813 0.000000 0.000000 0.000001
 39   -4.457742 -1.054854 -0.746180 0.000000 0.000000 0.000000
 40   1.118101 -3.449769 3.237290 0.000000 0.000001 0.000000
 41   -4.433840 -1.059130 0.959566 -0.000001 0.000000 0.000000
 42   -0.657468 1.697302 -2.688614 0.000000 0.000002 0.000000
 43   -0.664068 1.698578 2.869377 0.000000 0.000002 0.000000
time 11
  0   -0.967547 0.175787 -20.574476 0.000000 0.000000 -1.572114
  1   -1.093036 0.000002 -0.326057 -1.570756 -1.570425 -0.000219
  2   2.262337 0.113614 0.064702 -0.143884 -0.008628 -0.059664
  3   2.380047 0.353302 0.047440 0.112853 0.037819 -0.110170
  4   2.033756 0.190472 -0.000128 -0.142903 -0.018432 -0.129499
  5   2.451511 0.204909 -0.003447 -0.144124 0.000086 -0.000235
  6   7.247600 -0.397300 -0.109469 0.000001 0.000033 0.087015
  7   -2.022252 -0.104661 3.136172 1.356684 -0.807630 -4.507906
  8   1.168026 -0.537438 -0.063437 -1.076356 0.414958 -0.592370
  9   6.790376 -0.619176 0.015206 -0.000158 -0.000151 -1.258723
 10   8.637599 0.544015 -0.090417 -2.631646 -0.009422 0.494859
 11   6.790465 -0.619039 0.017802 0.001381 -0.011680 -0.896296
 12   -2.022474 -0.104699 -2.873818 -1.480072 0.418725 -4.580134
 13   1.167898 -0.537463 0.063297 1.268708 0.017956 -0.753325
 14   7.002743 -0.617765 -0.183752 0.000229 0.000250 -0.750140
 15   8.209042 0.615527 -0.255885 1.713465 0.154736 0.179443
 16   7.002735 -0.617911 -0.183641 0.014438 0.004266 -0.543750
 17   1.574674 0.609930 -0.000899 0.317578 -0.007116 -0.030168
 18   -0.602177 0.511412 -0.000006 0.000000 0.000000 0.000000
 19   3.673773 0.177020 1.119313 -0.000002 -0.000014 -0.174510
 20   3.673767 0.176993 -1.117566 0.000007 -0.000003 -0.174546
 21   3.942357 1.334540 1.627658 0.000002 -0.000011 -0.000026
 22   -0.246060 -0.011889 0.516521 -0.000011 0.000031 0.000025
 23   3.942374 1.334565 -1.631083 0.000019 0.000002 -0.000024
 24   -0.246150 -0.011872 -0.516511 -0.000005 -0.000006 0.000048
 25   4.941364 1.997338 1.629330 0.000018 -0.000001 -0.000024
 26   4.941382 1.997366 -1.629410 -0.000001 0.000005 -0.000024
 27   2.914462 1.619264 1.514501 -0.000019 -0.000022 -0.000050
 28   2.916892 1.618870 -1.501142 -0.000002 -0.000009 -0.000024
 29   8.824059 0.150544 0.091743 0.000006 -0.000231 -0.174534
 30   2.111085 -0.561179 1.784320 -0.000008 -0.000682 0.000024
 31   2.121290 -0.561289 -1.853599 0.000000 0.000000 -0.000002
 32   -0.814395 -0.093824 3.127092 3.071965 -0.114691 1.239365
 33   14.298673 -0.408176 0.471578 0.000248 0.000063 -1.896136
 34   15.835795 0.581398 0.242756 -0.214735 0.106913 -0.097869
 35   -0.815868 -0.091229 -3.114430 0.066464 3.132818 -1.010216
 36   14.294526 -0.410349 -0.467541 0.000021 -0.000012 -2.607695
 37   15.834409 0.579420 -0.284600 -0.006092 -0.035255 0.214508
 38   1.139685 -3.453749 -2.823813 0.000000 0.000000 0.000001
 39   -4.457742 -1.054854 -0.746180 0.000000 0.000000 0.000000
 40   1.118101 -3.449769 3.237290 0.000000 0.000001 0.000000
 41   -4.433840 -1.059130 0.959566 -0.000001 0.000000 0.000000
 42   -0.657468 1.697302 -2.688614 0.000000 0.000002 0.000000
 43   -0.664068 1.698578 2.869377 0.000000 0.000002 0.000000
time 12
  0   -0.967547 0.175787 -20.574476 0.000000 0.000000 -1.572114
  1   -1.093036 0.000002 -0.326057 -1.570756 -1.570425 -0.000219
  2   2.262337 0.113614 0.064702 -0.127873 -0.007574 -0.059755
  3   2.380047 0.353302 0.047440 0.129744 0.037376 -0.077704
  4   2.033756 0.190472 -0.000128 -0.127079 -0.016527 -0.129898
  5   2.451511 0.204909 -0.003447 -0.128171 0.000073 -0.000136
  6   7.247600 -0.397300 -0.109469 0.000001 0.000033 0.087015
  7   -2.022252 -0.104661 3.136172 1.356684 -0.807630 -4.507906
  8   1.168026 -0.537438 -0.063437 -1.113249 0.328216 -0.703076
  9   6.790376 -0.619176 0.015206 -0.000158 -0.000151 -0.989833
 10   8.637599 0.544015 -0.090417 -2.723498 0.011061 0.444507
 11   6.790465 -0.619039 0.017802 0.000271 -0.011538 -0.708103
 12   -2.022474 -0.104699 -2.873818 -1.480072 0.418725 -4.580134
 13   1.167898 -0.537463 0.063297 1.273136 0.098408 -0.668274
 14   7.002743 -0.617765 -0.183752 0.000229 0.000250 -0.579106
 15   8.209042 0.615527 -0.255885 1.714615 0.156401 0.167475
 16   7.002735 -0.617911 -0.183641 0.014532 0.003308 -0.424036
 17   1.574674 0.609930 -0.000899 0.254980 -0.004560 -0.075261
 18   -0.602177 0.511412 -0.000006 0.000000 0.000000 0.000000
 19   3.673773 0.177020 1.119313 -0.000002 -0.000014 -0.174510
 20   3.673767 0.176993 -1.117566 0.000007 -0.000003 -0.174546
 21   3.942357 1.334540 1.627658 0.000002 -0.000011 -0.000026
 22   -0.246060 -0.011889 0.516521 -0.000011 0.000031 0.000025
 23   3.942374 1.334565 -1.631083 0.000019 0.000002 -0.000024
 24   -0.246150 -0.011872 -0.516511 -0.000005 -0.000006 0.000048
 25   4.941364 1.997338 1.629330 0.000018 -0.000001 -0.000024
 26   4.941382 1.997366 -1.629410 -0.000001 0.000005 -0.000024
 27   2.914462 1.619264 1.514501 -0.000019 -0.000022 -0.000050
 28   2.916892 1.618870 -1.501142 -0.000002 -0.000009 -0.000024
 29   8.824059 0.150544 0.091743 0.000006 -0.000231 -0.174534
 30   2.111085 -0.561179 1.784320 -0.000008 -0.000682 0.000024
 31   2.121290 -0.561289 -1.853599 0.000000 0.000000 -0.000002
 32   -0.814395 -0.093824 3.127092 3.071965 -0.114691 1.239365
 33   14.298673 -0.408176 0.471578 0.000248 0.000063 -1.896136
 34   15.835795 0.581398 0.242756 -0.214735 0.106913 -0.097869
 35   -0.815868 -0.091229 -3.114430 0.066464 3.132818 -1.010216
 36   14.294526 -0.410349 -0.467541 0.000021 -0.000012 -2.607695
 37   15.834409 0.579420 -0.284600 -0.006092 -0.035255 0.214508
 38   1.139685 -3.453749 -2.823813 0.000000 0.000000 0.000001
 39   -4.457742 -1.054854 -0.746180 0.000000 0.000000 0.000000
 40   1.118101 -3.449769 3.237290 0.000000 0.000001 0.000000
 41   -4.433840 -1.059130 0.959566 -0.000001 0.000000 0.000000
 42   -0.657468 1.697302 -2.688614 0.000000 0.000002 0.000000
 43   -0.664068 1.698578 2.869377 0.000000 0.000002 0.000000
end
