version 1
nodes
  0 "Bip01" -1
  1 "Bip01 Pelvis" 0
  2 "Bip01 Spine" 1
  3 "Bip01 Spine1" 2
  4 "Bip01 Spine2" 3
  5 "Bip01 Spine3" 4
  6 "Bip01 Neck" 5
  7 "Bip01 L Arm" 6
  8 "Bip01 L Arm1" 7
  9 "Bip01 L Arm2" 8
 10 "Bip01 L Hand" 9
 11 "Bip06 L elbow2-smooth" 8
 12 "Bip01 R Arm" 6
 13 "Bip01 R Arm1" 12
 14 "Bip01 R Arm2" 13
 15 "Bip01 R Hand" 14
 16 "Bip06 R elbow2-smooth" 13
 17 "Bip01 Head" 6
 18 "Bip06 Head_helper" 17
 19 "Bip06 Head_eyes_l" 18
 20 "Bip06 Head_eyes_r" 18
 21 "Bip06 Head_blink_l" 18
 22 "Bip06 Head_blink_smooth_l1" 21
 23 "Bip06 Head_blink_r" 18
 24 "Bip06 Head_blink_smooth_r1" 23
 25 "Bip06 Head_L_eyebrow" 18
 26 "Bip06 Head_R_eyebrow" 18
 27 "Bip06 Head_blink_l_lid" 18
 28 "Bip06 Head_blink_r_lid" 18
 29 "Bip06 bunny" 18
 30 "Bip06 bunnyL" 29
 31 "Bip06 bunnyR" 29
 32 "Bip01 L Leg" 1
 33 "Bip01 L Leg1" 32
 34 "Bip01 L Foot" 33
 35 "Bip01 R Leg" 1
 36 "Bip01 R Leg1" 35
 37 "Bip01 R Foot" 36
 38 "Bip03 HairR1" 17
 39 "Bip03 HairR2" 38
 40 "Bip03 HairL1" 17
 41 "Bip03 HairL2" 40
 42 "Bip03 swingR" 17
 43 "Bip03 swingL" 17
end
skeleton
time 0
  0   -0.967547 0.175787 -20.574476 0.000000 0.000000 -1.572114
  1   -1.093036 0.000002 -0.326057 -1.570808 -1.570425 -0.000219
  2   2.262337 0.113614 0.064702 -0.000052 0.000049 0.192424
  3   2.380047 0.353302 0.047440 0.000000 -0.000040 0.060910
  4   2.033756 0.190472 -0.000128 -0.171747 0.030057 0.171351
  5   2.451511 0.204909 -0.003447 -0.138715 0.014434 0.103433
  6   7.247600 -0.397300 -0.109469 0.000001 0.000009 0.052298
  7   -2.022252 -0.104661 3.136172 0.914587 -1.249868 -4.083968
  8   1.168026 -0.537438 -0.063437 -0.126263 0.377071 -0.992809
  9   6.790376 -0.619176 0.015206 0.660106 -0.445108 -1.100468
 10   8.637599 0.544015 -0.090417 -1.995906 -0.171602 -0.530260
 11   6.790465 -0.619039 0.017802 0.406187 -0.399200 -0.743862
 12   -2.022474 -0.104699 -2.873818 0.839033 1.276005 -2.481872
 13   1.167898 -0.537463 0.063297 0.060877 -1.207588 -0.727598
 14   7.002743 -0.617765 -0.183752 -0.096101 0.335734 -1.855465
 15   8.209042 0.615527 -0.255885 1.475250 -0.366558 -0.333769
 16   7.002735 -0.617911 -0.183641 0.013826 0.271884 -1.297683
 17   1.574674 0.609930 -0.000899 0.005971 -0.087678 0.416765
 18   -0.602177 0.511412 -0.000006 0.000000 0.000000 0.000000
 19   3.673773 0.177020 1.119313 -0.000002 -0.000014 -0.174510
 20   3.673767 0.176993 -1.117566 0.000007 -0.000003 -0.174546
 21   3.942357 1.334540 1.627658 0.000002 -0.000011 -0.000026
 22   -0.246060 -0.011889 0.516521 -0.000011 0.000031 0.000025
 23   3.942374 1.334565 -1.631083 0.000019 0.000002 -0.000024
 24   -0.246150 -0.011872 -0.516511 -0.000005 -0.000006 0.000048
 25   4.941364 1.997338 1.629330 0.000018 -0.000001 -0.000024
 26   4.941382 1.997366 -1.629410 -0.000001 0.000005 -0.000024
 27   2.914462 1.619264 1.514501 -0.000019 -0.000022 -0.000050
 28   2.916892 1.618870 -1.501142 -0.000002 -0.000009 -0.000024
 29   8.824059 0.150544 0.091743 0.000006 -0.000231 -0.174534
 30   2.111085 -0.561179 1.784320 -0.000008 -0.000682 0.000024
 31   2.121290 -0.561289 -1.853599 0.000000 0.000000 -0.000002
 32   -0.814395 -0.093824 3.127092 3.071685 -0.114787 1.239365
 33   14.298673 -0.408176 0.471578 0.000020 -0.000002 -1.896136
 34   15.835795 0.581398 0.242756 -0.214735 0.106913 -0.097869
 35   -0.815868 -0.091229 -3.114430 0.066464 3.132818 -1.010216
 36   14.294526 -0.410349 -0.467541 0.000009 -0.000036 -2.607695
 37   15.834409 0.579420 -0.284600 -0.006131 -0.035383 0.214508
 38   1.139685 -3.453749 -2.823813 0.000000 0.000000 0.000001
 39   -4.457742 -1.054854 -0.746180 0.000000 0.000000 0.000000
 40   1.118101 -3.449769 3.237290 0.000000 0.000001 0.000000
 41   -4.433840 -1.059130 0.959566 -0.000001 0.000000 0.000000
 42   -0.657468 1.697302 -2.688614 0.000000 0.000002 0.000000
 43   -0.664068 1.698578 2.869377 0.000000 0.000002 0.000000
time 1
  0   -0.967547 0.175787 -20.574476 0.000000 0.000000 -1.572114
  1   -1.093036 0.000002 -0.326057 -1.570808 -1.570425 -0.000219
  2   2.262337 0.113614 0.064702 -0.000052 0.000049 0.192424
  3   2.380047 0.353302 0.047440 0.027347 -0.001646 0.060910
  4   2.033756 0.190472 -0.000128 -0.095524 0.016779 0.173272
  5   2.451511 0.204909 -0.003447 -0.138715 0.014434 0.103433
  6   7.247600 -0.397300 -0.109469 0.000001 0.000009 0.052298
  7   -2.022252 -0.104661 3.136172 0.914587 -1.249868 -4.083686
  8   1.168026 -0.537438 -0.063437 -0.014383 0.491536 -0.847246
  9   6.790376 -0.619176 0.015206 0.661770 -0.396655 -1.209971
 10   8.637599 0.544015 -0.090417 -1.995994 -0.171602 -0.530260
 11   6.790465 -0.619039 0.017802 0.412260 -0.374101 -0.826798
 12   -2.022474 -0.104699 -2.873818 0.839033 1.276005 -2.482159
 13   1.167898 -0.537463 0.063297 0.060877 -1.207588 -0.687766
 14   7.002743 -0.617765 -0.183752 -0.120752 0.380197 -1.911156
 15   8.209042 0.615527 -0.255885 1.434769 -0.253447 -0.321501
 16   7.002735 -0.617911 -0.183641 0.008977 0.310341 -1.330081
 17   1.574674 0.609930 -0.000899 0.078521 -0.108481 0.453578
 18   -0.602177 0.511412 -0.000006 0.000000 0.000000 0.000000
 19   3.673773 0.177020 1.119313 -0.000002 -0.000014 -0.174510
 20   3.673767 0.176993 -1.117566 0.000007 -0.000003 -0.174546
 21   3.942357 1.334540 1.627658 0.000002 -0.000011 -0.000026
 22   -0.246060 -0.011889 0.516521 -0.000011 0.000031 0.000025
 23   3.942374 1.334565 -1.631083 0.000019 0.000002 -0.000024
 24   -0.246150 -0.011872 -0.516511 -0.000005 -0.000006 0.000048
 25   4.941364 1.997338 1.629330 0.000018 -0.000001 -0.000024
 26   4.941382 1.997366 -1.629410 -0.000001 0.000005 -0.000024
 27   2.914462 1.619264 1.514501 -0.000019 -0.000022 -0.000050
 28   2.916892 1.618870 -1.501142 -0.000002 -0.000009 -0.000024
 29   8.824059 0.150544 0.091743 0.000006 -0.000231 -0.174534
 30   2.111085 -0.561179 1.784320 -0.000008 -0.000682 0.000024
 31   2.121290 -0.561289 -1.853599 0.000000 0.000000 -0.000002
 32   -0.814395 -0.093824 3.127092 3.071685 -0.114787 1.239365
 33   14.298673 -0.408176 0.471578 0.000020 -0.000002 -1.896136
 34   15.835795 0.581398 0.242756 -0.214735 0.106913 -0.097869
 35   -0.815868 -0.091229 -3.114430 0.066464 3.132818 -1.010216
 36   14.294526 -0.410349 -0.467541 0.000009 -0.000036 -2.607695
 37   15.834409 0.579420 -0.284600 -0.006131 -0.035383 0.214508
 38   1.139685 -3.453749 -2.823813 0.000000 0.000000 0.000001
 39   -4.457742 -1.054854 -0.746180 0.000000 0.000000 0.000000
 40   1.118101 -3.449769 3.237290 0.000000 0.000001 0.000000
 41   -4.433840 -1.059130 0.959566 -0.000001 0.000000 0.000000
 42   -0.657468 1.697302 -2.688614 0.000000 0.000002 0.000000
 43   -0.664068 1.698578 2.869377 0.000000 0.000002 0.000000
time 2
  0   -0.967547 0.175787 -20.574476 0.000000 0.000000 -1.572114
  1   -1.093036 0.000002 -0.326057 -1.570808 -1.570425 -0.000219
  2   2.262337 0.113614 0.064702 -0.000052 0.000049 0.192424
  3   2.380047 0.353302 0.047440 0.054724 -0.003324 0.060808
  4   2.033756 0.190472 -0.000128 -0.019393 0.003464 0.173960
  5   2.451511 0.204909 -0.003447 -0.138715 0.014434 0.103433
  6   7.247600 -0.397300 -0.109469 0.000001 0.000009 0.052298
  7   -2.022252 -0.104661 3.136172 0.914587 -1.249868 -4.083968
  8   1.168026 -0.537438 -0.063437 0.123252 0.588593 -0.677392
  9   6.790376 -0.619176 0.015206 0.657665 -0.348268 -1.316984
 10   8.637599 0.544015 -0.090417 -1.995994 -0.171602 -0.530260
 11   6.790465 -0.619039 0.017802 0.415384 -0.348262 -0.908177
 12   -2.022474 -0.104699 -2.873818 0.839033 1.276005 -2.481872
 13   1.167898 -0.537463 0.063297 0.060877 -1.207588 -0.647692
 14   7.002743 -0.617765 -0.183752 -0.148535 0.423296 -1.968662
 15   8.209042 0.615527 -0.255885 1.396589 -0.139730 -0.313924
 16   7.002735 -0.617911 -0.183641 0.002763 0.348798 -1.362479
 17   1.574674 0.609930 -0.000899 0.150502 -0.131627 0.488765
 18   -0.602177 0.511412 -0.000006 0.000000 0.000000 0.000000
 19   3.673773 0.177020 1.119313 -0.000002 -0.000014 -0.174510
 20   3.673767 0.176993 -1.117566 0.000007 -0.000003 -0.174546
 21   3.942357 1.334540 1.627658 0.000002 -0.000011 -0.000026
 22   -0.246060 -0.011889 0.516521 -0.000011 0.000031 0.000025
 23   3.942374 1.334565 -1.631083 0.000019 0.000002 -0.000024
 24   -0.246150 -0.011872 -0.516511 -0.000005 -0.000006 0.000048
 25   4.941364 1.997338 1.629330 0.000018 -0.000001 -0.000024
 26   4.941382 1.997366 -1.629410 -0.000001 0.000005 -0.000024
 27   2.914462 1.619264 1.514501 -0.000019 -0.000022 -0.000050
 28   2.916892 1.618870 -1.501142 -0.000002 -0.000009 -0.000024
 29   8.824059 0.150544 0.091743 0.000006 -0.000231 -0.174534
 30   2.111085 -0.561179 1.784320 -0.000008 -0.000682 0.000024
 31   2.121290 -0.561289 -1.853599 0.000000 0.000000 -0.000002
 32   -0.814395 -0.093824 3.127092 3.071685 -0.114787 1.239365
 33   14.298673 -0.408176 0.471578 0.000020 -0.000002 -1.896136
 34   15.835795 0.581398 0.242756 -0.214735 0.106913 -0.097869
 35   -0.815868 -0.091229 -3.114430 0.066464 3.132818 -1.010216
 36   14.294526 -0.410349 -0.467541 0.000009 -0.000036 -2.607695
 37   15.834409 0.579420 -0.284600 -0.006131 -0.035383 0.214508
 38   1.139685 -3.453749 -2.823813 0.000000 0.000000 0.000001
 39   -4.457742 -1.054854 -0.746180 0.000000 0.000000 0.000000
 40   1.118101 -3.449769 3.237290 0.000000 0.000001 0.000000
 41   -4.433840 -1.059130 0.959566 -0.000001 0.000000 0.000000
 42   -0.657468 1.697302 -2.688614 0.000000 0.000002 0.000000
 43   -0.664068 1.698578 2.869377 0.000000 0.000002 0.000000
time 3
  0   -0.967547 0.175787 -20.574476 0.000000 0.000000 -1.572114
  1   -1.093036 0.000002 -0.326057 -1.570808 -1.570425 -0.000219
  2   2.262337 0.113614 0.064702 -0.000052 0.000049 0.192424
  3   2.380047 0.353302 0.047440 0.082056 -0.004990 0.060645
  4   2.033756 0.190472 -0.000128 0.056516 -0.009659 0.173852
  5   2.451511 0.204909 -0.003447 -0.138715 0.014434 0.103433
  6   7.247600 -0.397300 -0.109469 0.000001 0.000009 0.052298
  7   -2.022252 -0.104661 3.136172 0.914587 -1.249868 -4.083968
  8   1.168026 -0.537438 -0.063437 0.288983 0.662857 -0.481791
  9   6.790376 -0.619176 0.015206 0.648288 -0.300549 -1.422639
 10   8.637599 0.544015 -0.090417 -1.995994 -0.171602 -0.530260
 11   6.790465 -0.619039 0.017802 0.415530 -0.321827 -0.988807
 12   -2.022474 -0.104699 -2.873818 0.839033 1.276005 -2.481872
 13   1.167898 -0.537463 0.063297 0.060877 -1.207588 -0.607860
 14   7.002743 -0.617765 -0.183752 -0.179621 0.464749 -2.029056
 15   8.209042 0.615527 -0.255885 1.359631 -0.025787 -0.310857
 16   7.002735 -0.617911 -0.183641 -0.004769 0.387367 -1.395650
 17   1.574674 0.609930 -0.000899 0.221833 -0.157306 0.522362
 18   -0.602177 0.511412 -0.000006 0.000000 0.000000 0.000000
 19   3.673773 0.177020 1.119313 -0.000002 -0.000014 -0.174510
 20   3.673767 0.176993 -1.117566 0.000007 -0.000003 -0.174546
 21   3.942357 1.334540 1.627658 0.000002 -0.000011 -0.000026
 22   -0.246060 -0.011889 0.516521 -0.000011 0.000031 0.000025
 23   3.942374 1.334565 -1.631083 0.000019 0.000002 -0.000024
 24   -0.246150 -0.011872 -0.516511 -0.000005 -0.000006 0.000048
 25   4.941364 1.997338 1.629330 0.000018 -0.000001 -0.000024
 26   4.941382 1.997366 -1.629410 -0.000001 0.000005 -0.000024
 27   2.914462 1.619264 1.514501 -0.000019 -0.000022 -0.000050
 28   2.916892 1.618870 -1.501142 -0.000002 -0.000009 -0.000024
 29   8.824059 0.150544 0.091743 0.000006 -0.000231 -0.174534
 30   2.111085 -0.561179 1.784320 -0.000008 -0.000682 0.000024
 31   2.121290 -0.561289 -1.853599 0.000000 0.000000 -0.000002
 32   -0.814395 -0.093824 3.127092 3.071685 -0.114787 1.239365
 33   14.298673 -0.408176 0.471578 0.000020 -0.000002 -1.896136
 34   15.835795 0.581398 0.242756 -0.214735 0.106913 -0.097869
 35   -0.815868 -0.091229 -3.114430 0.066464 3.132818 -1.010216
 36   14.294526 -0.410349 -0.467541 0.000009 -0.000036 -2.607695
 37   15.834409 0.579420 -0.284600 -0.006131 -0.035383 0.214508
 38   1.139685 -3.453749 -2.823813 0.000000 0.000000 0.000001
 39   -4.457742 -1.054854 -0.746180 0.000000 0.000000 0.000000
 40   1.118101 -3.449769 3.237290 0.000000 0.000001 0.000000
 41   -4.433840 -1.059130 0.959566 -0.000001 0.000000 0.000000
 42   -0.657468 1.697302 -2.688614 0.000000 0.000002 0.000000
 43   -0.664068 1.698578 2.869377 0.000000 0.000002 0.000000
time 4
  0   -0.967547 0.175787 -20.574476 0.000000 0.000000 -1.572114
  1   -1.093036 0.000002 -0.326057 -1.570808 -1.570425 -0.000219
  2   2.262337 0.113614 0.064702 -0.000052 0.000049 0.192424
  3   2.380047 0.353302 0.047440 0.109357 -0.006584 0.060543
  4   2.033756 0.190472 -0.000128 0.132647 -0.023010 0.172656
  5   2.451511 0.204909 -0.003447 -0.138715 0.014434 0.103433
  6   7.247600 -0.397300 -0.109469 0.000001 0.000009 0.052298
  7   -2.022252 -0.104661 3.136172 0.914587 -1.249868 -4.083968
  8   1.168026 -0.537438 -0.063437 0.478192 0.707385 -0.263100
  9   6.790376 -0.619176 0.015206 0.633975 -0.253898 -1.527463
 10   8.637599 0.544015 -0.090417 -1.995994 -0.171602 -0.530260
 11   6.790465 -0.619039 0.017802 0.412756 -0.295022 -1.068341
 12   -2.022474 -0.104699 -2.873818 0.839033 1.276005 -2.481872
 13   1.167898 -0.537463 0.063297 0.060877 -1.207588 -0.568089
 14   7.002743 -0.617765 -0.183752 -0.214179 0.504441 -2.092255
 15   8.209042 0.615527 -0.255885 1.323104 0.087702 -0.311999
 16   7.002735 -0.617911 -0.183641 -0.013714 0.426050 -1.429428
 17   1.574674 0.609930 -0.000899 0.292433 -0.185351 0.554260
 18   -0.602177 0.511412 -0.000006 0.000000 0.000000 0.000000
 19   3.673773 0.177020 1.119313 -0.000002 -0.000014 -0.174510
 20   3.673767 0.176993 -1.117566 0.000007 -0.000003 -0.174546
 21   3.942357 1.334540 1.627658 0.000002 -0.000011 -0.000026
 22   -0.246060 -0.011889 0.516521 -0.000011 0.000031 0.000025
 23   3.942374 1.334565 -1.631083 0.000019 0.000002 -0.000024
 24   -0.246150 -0.011872 -0.516511 -0.000005 -0.000006 0.000048
 25   4.941364 1.997338 1.629330 0.000018 -0.000001 -0.000024
 26   4.941382 1.997366 -1.629410 -0.000001 0.000005 -0.000024
 27   2.914462 1.619264 1.514501 -0.000019 -0.000022 -0.000050
 28   2.916892 1.618870 -1.501142 -0.000002 -0.000009 -0.000024
 29   8.824059 0.150544 0.091743 0.000006 -0.000231 -0.174534
 30   2.111085 -0.561179 1.784320 -0.000008 -0.000682 0.000024
 31   2.121290 -0.561289 -1.853599 0.000000 0.000000 -0.000002
 32   -0.814395 -0.093824 3.127092 3.071685 -0.114787 1.239365
 33   14.298673 -0.408176 0.471578 0.000020 -0.000002 -1.896136
 34   15.835795 0.581398 0.242756 -0.214735 0.106913 -0.097869
 35   -0.815868 -0.091229 -3.114430 0.066464 3.132818 -1.010216
 36   14.294526 -0.410349 -0.467541 0.000009 -0.000036 -2.607695
 37   15.834409 0.579420 -0.284600 -0.006131 -0.035383 0.214508
 38   1.139685 -3.453749 -2.823813 0.000000 0.000000 0.000001
 39   -4.457742 -1.054854 -0.746180 0.000000 0.000000 0.000000
 40   1.118101 -3.449769 3.237290 0.000000 0.000001 0.000000
 41   -4.433840 -1.059130 0.959566 -0.000001 0.000000 0.000000
 42   -0.657468 1.697302 -2.688614 0.000000 0.000002 0.000000
 43   -0.664068 1.698578 2.869377 0.000000 0.000002 0.000000
time 5
  0   -0.967547 0.175787 -20.574476 0.000000 0.000000 -1.572114
  1   -1.093036 0.000002 -0.326057 -1.570808 -1.570425 -0.000219
  2   2.262337 0.113614 0.064702 -0.000052 0.000049 0.192424
  3   2.380047 0.353302 0.047440 0.136779 -0.008202 0.060298
  4   2.033756 0.190472 -0.000128 0.208871 -0.036229 0.170191
  5   2.451511 0.204909 -0.003447 -0.138715 0.014434 0.103433
  6   7.247600 -0.397300 -0.109469 0.000001 0.000009 0.052298
  7   -2.022252 -0.104661 3.136172 0.914587 -1.249868 -4.083968
  8   1.168026 -0.537438 -0.063437 0.680942 0.718404 -0.032705
  9   6.790376 -0.619176 0.015206 0.614834 -0.209182 -1.632061
 10   8.637599 0.544015 -0.090417 -1.995994 -0.171602 -0.530260
 11   6.790465 -0.619039 0.017802 0.407063 -0.268274 -1.147182
 12   -2.022474 -0.104699 -2.873818 0.839033 1.276005 -2.481872
 13   1.167898 -0.537463 0.063297 0.060877 -1.207588 -0.528136
 14   7.002743 -0.617765 -0.183752 -0.252380 0.542033 -2.158177
 15   8.209042 0.615527 -0.255885 1.285571 0.201418 -0.317412
 16   7.002735 -0.617911 -0.183641 -0.024400 0.464506 -1.463758
 17   1.574674 0.609930 -0.000899 0.362708 -0.215526 0.584013
 18   -0.602177 0.511412 -0.000006 0.000000 0.000000 0.000000
 19   3.673773 0.177020 1.119313 -0.000002 -0.000014 -0.174510
 20   3.673767 0.176993 -1.117566 0.000007 -0.000003 -0.174546
 21   3.942357 1.334540 1.627658 0.000002 -0.000011 -0.000026
 22   -0.246060 -0.011889 0.516521 -0.000011 0.000031 0.000025
 23   3.942374 1.334565 -1.631083 0.000019 0.000002 -0.000024
 24   -0.246150 -0.011872 -0.516511 -0.000005 -0.000006 0.000048
 25   4.941364 1.997338 1.629330 0.000018 -0.000001 -0.000024
 26   4.941382 1.997366 -1.629410 -0.000001 0.000005 -0.000024
 27   2.914462 1.619264 1.514501 -0.000019 -0.000022 -0.000050
 28   2.916892 1.618870 -1.501142 -0.000002 -0.000009 -0.000024
 29   8.824059 0.150544 0.091743 0.000006 -0.000231 -0.174534
 30   2.111085 -0.561179 1.784320 -0.000008 -0.000682 0.000024
 31   2.121290 -0.561289 -1.853599 0.000000 0.000000 -0.000002
 32   -0.814395 -0.093824 3.127092 3.071685 -0.114787 1.239365
 33   14.298673 -0.408176 0.471578 0.000020 -0.000002 -1.896136
 34   15.835795 0.581398 0.242756 -0.214735 0.106913 -0.097869
 35   -0.815868 -0.091229 -3.114430 0.066464 3.132818 -1.010216
 36   14.294526 -0.410349 -0.467541 0.000009 -0.000036 -2.607695
 37   15.834409 0.579420 -0.284600 -0.006131 -0.035383 0.214508
 38   1.139685 -3.453749 -2.823813 0.000000 0.000000 0.000001
 39   -4.457742 -1.054854 -0.746180 0.000000 0.000000 0.000000
 40   1.118101 -3.449769 3.237290 0.000000 0.000001 0.000000
 41   -4.433840 -1.059130 0.959566 -0.000001 0.000000 0.000000
 42   -0.657468 1.697302 -2.688614 0.000000 0.000002 0.000000
 43   -0.664068 1.698578 2.869377 0.000000 0.000002 0.000000
time 6
  0   -0.967547 0.175787 -20.574476 0.000000 0.000000 -1.572114
  1   -1.093036 0.000002 -0.326057 -1.570808 -1.570425 -0.000219
  2   2.262337 0.113614 0.064702 -0.000052 0.000049 0.192424
  3   2.380047 0.353302 0.047440 0.164141 -0.009831 0.060053
  4   2.033756 0.190472 -0.000128 0.285112 -0.049316 0.167073
  5   2.451511 0.204909 -0.003447 -0.138715 0.014434 0.103433
  6   7.247600 -0.397300 -0.109469 0.000001 0.000009 0.052298
  7   -2.022252 -0.104661 3.136172 0.914587 -1.249868 -4.083686
  8   1.168026 -0.537438 -0.063437 0.880086 0.694353 0.194779
  9   6.790376 -0.619176 0.015206 0.591200 -0.166601 -1.736130
 10   8.637599 0.544015 -0.090417 -1.995994 -0.171602 -0.530260
 11   6.790465 -0.619039 0.017802 0.398567 -0.241725 -1.225159
 12   -2.022474 -0.104699 -2.873818 0.839033 1.276005 -2.481872
 13   1.167898 -0.537463 0.063297 0.060877 -1.207588 -0.488304
 14   7.002743 -0.617765 -0.183752 -0.294283 0.577466 -2.227234
 15   8.209042 0.615527 -0.255885 1.246240 0.314983 -0.327515
 16   7.002735 -0.617911 -0.183641 -0.036593 0.503019 -1.498971
 17   1.574674 0.609930 -0.000899 0.432455 -0.247618 0.611845
 18   -0.602177 0.511412 -0.000006 0.000000 0.000000 0.000000
 19   3.673773 0.177020 1.119313 -0.000002 -0.000014 -0.174510
 20   3.673767 0.176993 -1.117566 0.000007 -0.000003 -0.174546
 21   3.942357 1.334540 1.627658 0.000002 -0.000011 -0.000026
 22   -0.246060 -0.011889 0.516521 -0.000011 0.000031 0.000025
 23   3.942374 1.334565 -1.631083 0.000019 0.000002 -0.000024
 24   -0.246150 -0.011872 -0.516511 -0.000005 -0.000006 0.000048
 25   4.941364 1.997338 1.629330 0.000018 -0.000001 -0.000024
 26   4.941382 1.997366 -1.629410 -0.000001 0.000005 -0.000024
 27   2.914462 1.619264 1.514501 -0.000019 -0.000022 -0.000050
 28   2.916892 1.618870 -1.501142 -0.000002 -0.000009 -0.000024
 29   8.824059 0.150544 0.091743 0.000006 -0.000231 -0.174534
 30   2.111085 -0.561179 1.784320 -0.000008 -0.000682 0.000024
 31   2.121290 -0.561289 -1.853599 0.000000 0.000000 -0.000002
 32   -0.814395 -0.093824 3.127092 3.071685 -0.114787 1.239365
 33   14.298673 -0.408176 0.471578 0.000020 -0.000002 -1.896136
 34   15.835795 0.581398 0.242756 -0.214735 0.106913 -0.097869
 35   -0.815868 -0.091229 -3.114430 0.066464 3.132818 -1.010216
 36   14.294526 -0.410349 -0.467541 0.000009 -0.000036 -2.607695
 37   15.834409 0.579420 -0.284600 -0.006131 -0.035383 0.214508
 38   1.139685 -3.453749 -2.823813 0.000000 0.000000 0.000001
 39   -4.457742 -1.054854 -0.746180 0.000000 0.000000 0.000000
 40   1.118101 -3.449769 3.237290 0.000000 0.000001 0.000000
 41   -4.433840 -1.059130 0.959566 -0.000001 0.000000 0.000000
 42   -0.657468 1.697302 -2.688614 0.000000 0.000002 0.000000
 43   -0.664068 1.698578 2.869377 0.000000 0.000002 0.000000
time 7
  0   -0.967547 0.175787 -20.574476 0.000000 0.000000 -1.572114
  1   -1.093036 0.000002 -0.326057 -1.570808 -1.570425 -0.000219
  2   2.262337 0.113614 0.064702 -0.000052 0.000049 0.192424
  3   2.380047 0.353302 0.047440 0.191533 -0.011473 0.059747
  4   2.033756 0.190472 -0.000128 0.361501 -0.061948 0.162833
  5   2.451511 0.204909 -0.003447 -0.138715 0.014434 0.103433
  6   7.247600 -0.397300 -0.109469 0.000001 0.000009 0.052298
  7   -2.022252 -0.104661 3.136172 0.914587 -1.249868 -4.083968
  8   1.168026 -0.537438 -0.063437 1.061574 0.637750 0.405183
  9   6.790376 -0.619176 0.015206 0.563516 -0.126691 -1.840728
 10   8.637599 0.544015 -0.090417 -1.995994 -0.171602 -0.530260
 11   6.790465 -0.619039 0.017802 0.387151 -0.215602 -1.302443
 12   -2.022474 -0.104699 -2.873818 0.839033 1.276005 -2.481872
 13   1.167898 -0.537463 0.063297 0.060877 -1.207588 -0.448230
 14   7.002743 -0.617765 -0.183752 -0.340057 0.610231 -2.299757
 15   8.209042 0.615527 -0.255885 1.204105 0.427943 -0.342910
 16   7.002735 -0.617911 -0.183641 -0.050527 0.541420 -1.535122
 17   1.574674 0.609930 -0.000899 0.501918 -0.281533 0.637718
 18   -0.602177 0.511412 -0.000006 0.000000 0.000000 0.000000
 19   3.673773 0.177020 1.119313 -0.000002 -0.000014 -0.174510
 20   3.673767 0.176993 -1.117566 0.000007 -0.000003 -0.174546
 21   3.942357 1.334540 1.627658 0.000002 -0.000011 -0.000026
 22   -0.246060 -0.011889 0.516521 -0.000011 0.000031 0.000025
 23   3.942374 1.334565 -1.631083 0.000019 0.000002 -0.000024
 24   -0.246150 -0.011872 -0.516511 -0.000005 -0.000006 0.000048
 25   4.941364 1.997338 1.629330 0.000018 -0.000001 -0.000024
 26   4.941382 1.997366 -1.629410 -0.000001 0.000005 -0.000024
 27   2.914462 1.619264 1.514501 -0.000019 -0.000022 -0.000050
 28   2.916892 1.618870 -1.501142 -0.000002 -0.000009 -0.000024
 29   8.824059 0.150544 0.091743 0.000006 -0.000231 -0.174534
 30   2.111085 -0.561179 1.784320 -0.000008 -0.000682 0.000024
 31   2.121290 -0.561289 -1.853599 0.000000 0.000000 -0.000002
 32   -0.814395 -0.093824 3.127092 3.071685 -0.114787 1.239365
 33   14.298673 -0.408176 0.471578 0.000020 -0.000002 -1.896136
 34   15.835795 0.581398 0.242756 -0.214735 0.106913 -0.097869
 35   -0.815868 -0.091229 -3.114430 0.066464 3.132818 -1.010216
 36   14.294526 -0.410349 -0.467541 0.000009 -0.000036 -2.607695
 37   15.834409 0.579420 -0.284600 -0.006131 -0.035383 0.214508
 38   1.139685 -3.453749 -2.823813 0.000000 0.000000 0.000001
 39   -4.457742 -1.054854 -0.746180 0.000000 0.000000 0.000000
 40   1.118101 -3.449769 3.237290 0.000000 0.000001 0.000000
 41   -4.433840 -1.059130 0.959566 -0.000001 0.000000 0.000000
 42   -0.657468 1.697302 -2.688614 0.000000 0.000002 0.000000
 43   -0.664068 1.698578 2.869377 0.000000 0.000002 0.000000
time 8
  0   -0.967547 0.175787 -20.574476 0.000000 0.000000 -1.572114
  1   -1.093036 0.000002 -0.326057 -1.570808 -1.570425 -0.000219
  2   2.262337 0.113614 0.064702 -0.000052 0.000049 0.192424
  3   2.380047 0.353302 0.047440 0.164141 -0.009831 0.060053
  4   2.033756 0.190472 -0.000128 0.285112 -0.049316 0.167073
  5   2.451511 0.204909 -0.003447 -0.138715 0.014434 0.103433
  6   7.247600 -0.397300 -0.109469 0.000001 0.000009 0.052298
  7   -2.022252 -0.104661 3.136172 0.914587 -1.249868 -4.083686
  8   1.168026 -0.537438 -0.063437 0.880086 0.694353 0.194779
  9   6.790376 -0.619176 0.015206 0.591200 -0.166601 -1.736130
 10   8.637599 0.544015 -0.090417 -1.995994 -0.171602 -0.530260
 11   6.790465 -0.619039 0.017802 0.398567 -0.241725 -1.225159
 12   -2.022474 -0.104699 -2.873818 0.839033 1.276005 -2.481872
 13   1.167898 -0.537463 0.063297 0.060877 -1.207588 -0.488304
 14   7.002743 -0.617765 -0.183752 -0.294283 0.577466 -2.227234
 15   8.209042 0.615527 -0.255885 1.246240 0.314983 -0.327515
 16   7.002735 -0.617911 -0.183641 -0.036593 0.503019 -1.498971
 17   1.574674 0.609930 -0.000899 0.407351 -0.234696 0.618757
 18   -0.602177 0.511412 -0.000006 0.000000 0.000000 0.000000
 19   3.673773 0.177020 1.119313 -0.000002 -0.000014 -0.174510
 20   3.673767 0.176993 -1.117566 0.000007 -0.000003 -0.174546
 21   3.942357 1.334540 1.627658 0.000002 -0.000011 -0.000026
 22   -0.246060 -0.011889 0.516521 -0.000011 0.000031 0.000025
 23   3.942374 1.334565 -1.631083 0.000019 0.000002 -0.000024
 24   -0.246150 -0.011872 -0.516511 -0.000005 -0.000006 0.000048
 25   4.941364 1.997338 1.629330 0.000018 -0.000001 -0.000024
 26   4.941382 1.997366 -1.629410 -0.000001 0.000005 -0.000024
 27   2.914462 1.619264 1.514501 -0.000019 -0.000022 -0.000050
 28   2.916892 1.618870 -1.501142 -0.000002 -0.000009 -0.000024
 29   8.824059 0.150544 0.091743 0.000006 -0.000231 -0.174534
 30   2.111085 -0.561179 1.784320 -0.000008 -0.000682 0.000024
 31   2.121290 -0.561289 -1.853599 0.000000 0.000000 -0.000002
 32   -0.814395 -0.093824 3.127092 3.071685 -0.114787 1.239365
 33   14.298673 -0.408176 0.471578 0.000020 -0.000002 -1.896136
 34   15.835795 0.581398 0.242756 -0.214735 0.106913 -0.097869
 35   -0.815868 -0.091229 -3.114430 0.066464 3.132818 -1.010216
 36   14.294526 -0.410349 -0.467541 0.000009 -0.000036 -2.607695
 37   15.834409 0.579420 -0.284600 -0.006131 -0.035383 0.214508
 38   1.139685 -3.453749 -2.823813 0.000000 0.000000 0.000001
 39   -4.457742 -1.054854 -0.746180 0.000000 0.000000 0.000000
 40   1.118101 -3.449769 3.237290 0.000000 0.000001 0.000000
 41   -4.433840 -1.059130 0.959566 -0.000001 0.000000 0.000000
 42   -0.657468 1.697302 -2.688614 0.000000 0.000002 0.000000
 43   -0.664068 1.698578 2.869377 0.000000 0.000002 0.000000
time 9
  0   -0.967547 0.175787 -20.574476 0.000000 0.000000 -1.572114
  1   -1.093036 0.000002 -0.326057 -1.570808 -1.570425 -0.000219
  2   2.262337 0.113614 0.064702 -0.000052 0.000049 0.192424
  3   2.380047 0.353302 0.047440 0.136779 -0.008202 0.060298
  4   2.033756 0.190472 -0.000128 0.208871 -0.036229 0.170191
  5   2.451511 0.204909 -0.003447 -0.138715 0.014434 0.103433
  6   7.247600 -0.397300 -0.109469 0.000001 0.000009 0.052298
  7   -2.022252 -0.104661 3.136172 0.914587 -1.249868 -4.083968
  8   1.168026 -0.537438 -0.063437 0.680942 0.718404 -0.032705
  9   6.790376 -0.619176 0.015206 0.614834 -0.209182 -1.632061
 10   8.637599 0.544015 -0.090417 -1.995994 -0.171602 -0.530260
 11   6.790465 -0.619039 0.017802 0.407063 -0.268274 -1.147182
 12   -2.022474 -0.104699 -2.873818 0.839033 1.276005 -2.481872
 13   1.167898 -0.537463 0.063297 0.060877 -1.207588 -0.528136
 14   7.002743 -0.617765 -0.183752 -0.252380 0.542033 -2.158177
 15   8.209042 0.615527 -0.255885 1.285571 0.201418 -0.317412
 16   7.002735 -0.617911 -0.183641 -0.024400 0.464506 -1.463758
 17   1.574674 0.609930 -0.000899 0.312866 -0.190108 0.595841
 18   -0.602177 0.511412 -0.000006 0.000000 0.000000 0.000000
 19   3.673773 0.177020 1.119313 -0.000002 -0.000014 -0.174510
 20   3.673767 0.176993 -1.117566 0.000007 -0.000003 -0.174546
 21   3.942357 1.334540 1.627658 0.000002 -0.000011 -0.000026
 22   -0.246060 -0.011889 0.516521 -0.000011 0.000031 0.000025
 23   3.942374 1.334565 -1.631083 0.000019 0.000002 -0.000024
 24   -0.246150 -0.011872 -0.516511 -0.000005 -0.000006 0.000048
 25   4.941364 1.997338 1.629330 0.000018 -0.000001 -0.000024
 26   4.941382 1.997366 -1.629410 -0.000001 0.000005 -0.000024
 27   2.914462 1.619264 1.514501 -0.000019 -0.000022 -0.000050
 28   2.916892 1.618870 -1.501142 -0.000002 -0.000009 -0.000024
 29   8.824059 0.150544 0.091743 0.000006 -0.000231 -0.174534
 30   2.111085 -0.561179 1.784320 -0.000008 -0.000682 0.000024
 31   2.121290 -0.561289 -1.853599 0.000000 0.000000 -0.000002
 32   -0.814395 -0.093824 3.127092 3.071685 -0.114787 1.239365
 33   14.298673 -0.408176 0.471578 0.000020 -0.000002 -1.896136
 34   15.835795 0.581398 0.242756 -0.214735 0.106913 -0.097869
 35   -0.815868 -0.091229 -3.114430 0.066464 3.132818 -1.010216
 36   14.294526 -0.410349 -0.467541 0.000009 -0.000036 -2.607695
 37   15.834409 0.579420 -0.284600 -0.006131 -0.035383 0.214508
 38   1.139685 -3.453749 -2.823813 0.000000 0.000000 0.000001
 39   -4.457742 -1.054854 -0.746180 0.000000 0.000000 0.000000
 40   1.118101 -3.449769 3.237290 0.000000 0.000001 0.000000
 41   -4.433840 -1.059130 0.959566 -0.000001 0.000000 0.000000
 42   -0.657468 1.697302 -2.688614 0.000000 0.000002 0.000000
 43   -0.664068 1.698578 2.869377 0.000000 0.000002 0.000000
time 10
  0   -0.967547 0.175787 -20.574476 0.000000 0.000000 -1.572114
  1   -1.093036 0.000002 -0.326057 -1.570808 -1.570425 -0.000219
  2   2.262337 0.113614 0.064702 -0.000052 0.000049 0.192424
  3   2.380047 0.353302 0.047440 0.109357 -0.006584 0.060543
  4   2.033756 0.190472 -0.000128 0.132647 -0.023010 0.172656
  5   2.451511 0.204909 -0.003447 -0.138715 0.014434 0.103433
  6   7.247600 -0.397300 -0.109469 0.000001 0.000009 0.052298
  7   -2.022252 -0.104661 3.136172 0.914587 -1.249868 -4.083968
  8   1.168026 -0.537438 -0.063437 0.478192 0.707385 -0.263100
  9   6.790376 -0.619176 0.015206 0.633975 -0.253898 -1.527463
 10   8.637599 0.544015 -0.090417 -1.995994 -0.171602 -0.530260
 11   6.790465 -0.619039 0.017802 0.412756 -0.295022 -1.068341
 12   -2.022474 -0.104699 -2.873818 0.839033 1.276005 -2.481872
 13   1.167898 -0.537463 0.063297 0.060877 -1.207588 -0.568089
 14   7.002743 -0.617765 -0.183752 -0.214179 0.504441 -2.092255
 15   8.209042 0.615527 -0.255885 1.323104 0.087702 -0.311999
 16   7.002735 -0.617911 -0.183641 -0.013714 0.426050 -1.429428
 17   1.574674 0.609930 -0.000899 0.218096 -0.147721 0.568822
 18   -0.602177 0.511412 -0.000006 0.000000 0.000000 0.000000
 19   3.673773 0.177020 1.119313 -0.000002 -0.000014 -0.174510
 20   3.673767 0.176993 -1.117566 0.000007 -0.000003 -0.174546
 21   3.942357 1.334540 1.627658 0.000002 -0.000011 -0.000026
 22   -0.246060 -0.011889 0.516521 -0.000011 0.000031 0.000025
 23   3.942374 1.334565 -1.631083 0.000019 0.000002 -0.000024
 24   -0.246150 -0.011872 -0.516511 -0.000005 -0.000006 0.000048
 25   4.941364 1.997338 1.629330 0.000018 -0.000001 -0.000024
 26   4.941382 1.997366 -1.629410 -0.000001 0.000005 -0.000024
 27   2.914462 1.619264 1.514501 -0.000019 -0.000022 -0.000050
 28   2.916892 1.618870 -1.501142 -0.000002 -0.000009 -0.000024
 29   8.824059 0.150544 0.091743 0.000006 -0.000231 -0.174534
 30   2.111085 -0.561179 1.784320 -0.000008 -0.000682 0.000024
 31   2.121290 -0.561289 -1.853599 0.000000 0.000000 -0.000002
 32   -0.814395 -0.093824 3.127092 3.071685 -0.114787 1.239365
 33   14.298673 -0.408176 0.471578 0.000020 -0.000002 -1.896136
 34   15.835795 0.581398 0.242756 -0.214735 0.106913 -0.097869
 35   -0.815868 -0.091229 -3.114430 0.066464 3.132818 -1.010216
 36   14.294526 -0.410349 -0.467541 0.000009 -0.000036 -2.607695
 37   15.834409 0.579420 -0.284600 -0.006131 -0.035383 0.214508
 38   1.139685 -3.453749 -2.823813 0.000000 0.000000 0.000001
 39   -4.457742 -1.054854 -0.746180 0.000000 0.000000 0.000000
 40   1.118101 -3.449769 3.237290 0.000000 0.000001 0.000000
 41   -4.433840 -1.059130 0.959566 -0.000001 0.000000 0.000000
 42   -0.657468 1.697302 -2.688614 0.000000 0.000002 0.000000
 43   -0.664068 1.698578 2.869377 0.000000 0.000002 0.000000
time 11
  0   -0.967547 0.175787 -20.574476 0.000000 0.000000 -1.572114
  1   -1.093036 0.000002 -0.326057 -1.570808 -1.570425 -0.000219
  2   2.262337 0.113614 0.064702 -0.000052 0.000049 0.192424
  3   2.380047 0.353302 0.047440 0.082056 -0.004990 0.060645
  4   2.033756 0.190472 -0.000128 0.056516 -0.009659 0.173852
  5   2.451511 0.204909 -0.003447 -0.138715 0.014434 0.103433
  6   7.247600 -0.397300 -0.109469 0.000001 0.000009 0.052298
  7   -2.022252 -0.104661 3.136172 0.914587 -1.249868 -4.083968
  8   1.168026 -0.537438 -0.063437 0.288983 0.662857 -0.481791
  9   6.790376 -0.619176 0.015206 0.648288 -0.300549 -1.422639
 10   8.637599 0.544015 -0.090417 -1.995994 -0.171602 -0.530260
 11   6.790465 -0.619039 0.017802 0.415530 -0.321827 -0.988807
 12   -2.022474 -0.104699 -2.873818 0.839033 1.276005 -2.481872
 13   1.167898 -0.537463 0.063297 0.060877 -1.207588 -0.607860
 14   7.002743 -0.617765 -0.183752 -0.179621 0.464749 -2.029056
 15   8.209042 0.615527 -0.255885 1.359631 -0.025787 -0.310857
 16   7.002735 -0.617911 -0.183641 -0.004769 0.387367 -1.395650
 17   1.574674 0.609930 -0.000899 0.122514 -0.108102 0.537923
 18   -0.602177 0.511412 -0.000006 0.000000 0.000000 0.000000
 19   3.673773 0.177020 1.119313 -0.000002 -0.000014 -0.174510
 20   3.673767 0.176993 -1.117566 0.000007 -0.000003 -0.174546
 21   3.942357 1.334540 1.627658 0.000002 -0.000011 -0.000026
 22   -0.246060 -0.011889 0.516521 -0.000011 0.000031 0.000025
 23   3.942374 1.334565 -1.631083 0.000019 0.000002 -0.000024
 24   -0.246150 -0.011872 -0.516511 -0.000005 -0.000006 0.000048
 25   4.941364 1.997338 1.629330 0.000018 -0.000001 -0.000024
 26   4.941382 1.997366 -1.629410 -0.000001 0.000005 -0.000024
 27   2.914462 1.619264 1.514501 -0.000019 -0.000022 -0.000050
 28   2.916892 1.618870 -1.501142 -0.000002 -0.000009 -0.000024
 29   8.824059 0.150544 0.091743 0.000006 -0.000231 -0.174534
 30   2.111085 -0.561179 1.784320 -0.000008 -0.000682 0.000024
 31   2.121290 -0.561289 -1.853599 0.000000 0.000000 -0.000002
 32   -0.814395 -0.093824 3.127092 3.071685 -0.114787 1.239365
 33   14.298673 -0.408176 0.471578 0.000020 -0.000002 -1.896136
 34   15.835795 0.581398 0.242756 -0.214735 0.106913 -0.097869
 35   -0.815868 -0.091229 -3.114430 0.066464 3.132818 -1.010216
 36   14.294526 -0.410349 -0.467541 0.000009 -0.000036 -2.607695
 37   15.834409 0.579420 -0.284600 -0.006131 -0.035383 0.214508
 38   1.139685 -3.453749 -2.823813 0.000000 0.000000 0.000001
 39   -4.457742 -1.054854 -0.746180 0.000000 0.000000 0.000000
 40   1.118101 -3.449769 3.237290 0.000000 0.000001 0.000000
 41   -4.433840 -1.059130 0.959566 -0.000001 0.000000 0.000000
 42   -0.657468 1.697302 -2.688614 0.000000 0.000002 0.000000
 43   -0.664068 1.698578 2.869377 0.000000 0.000002 0.000000
time 12
  0   -0.967547 0.175787 -20.574476 0.000000 0.000000 -1.572114
  1   -1.093036 0.000002 -0.326057 -1.570808 -1.570425 -0.000219
  2   2.262337 0.113614 0.064702 -0.000052 0.000049 0.192424
  3   2.380047 0.353302 0.047440 0.054724 -0.003324 0.060808
  4   2.033756 0.190472 -0.000128 -0.019393 0.003464 0.173960
  5   2.451511 0.204909 -0.003447 -0.138715 0.014434 0.103433
  6   7.247600 -0.397300 -0.109469 0.000001 0.000009 0.052298
  7   -2.022252 -0.104661 3.136172 0.914587 -1.249868 -4.083968
  8   1.168026 -0.537438 -0.063437 0.123252 0.588593 -0.677392
  9   6.790376 -0.619176 0.015206 0.657665 -0.348268 -1.316984
 10   8.637599 0.544015 -0.090417 -1.995994 -0.171602 -0.530260
 11   6.790465 -0.619039 0.017802 0.415384 -0.348262 -0.908177
 12   -2.022474 -0.104699 -2.873818 0.839033 1.276005 -2.481872
 13   1.167898 -0.537463 0.063297 0.060877 -1.207588 -0.647692
 14   7.002743 -0.617765 -0.183752 -0.148535 0.423296 -1.968662
 15   8.209042 0.615527 -0.255885 1.396589 -0.139730 -0.313924
 16   7.002735 -0.617911 -0.183641 0.002763 0.348798 -1.362479
 17   1.574674 0.609930 -0.000899 0.026282 -0.071490 0.503697
 18   -0.602177 0.511412 -0.000006 0.000000 0.000000 0.000000
 19   3.673773 0.177020 1.119313 -0.000002 -0.000014 -0.174510
 20   3.673767 0.176993 -1.117566 0.000007 -0.000003 -0.174546
 21   3.942357 1.334540 1.627658 0.000002 -0.000011 -0.000026
 22   -0.246060 -0.011889 0.516521 -0.000011 0.000031 0.000025
 23   3.942374 1.334565 -1.631083 0.000019 0.000002 -0.000024
 24   -0.246150 -0.011872 -0.516511 -0.000005 -0.000006 0.000048
 25   4.941364 1.997338 1.629330 0.000018 -0.000001 -0.000024
 26   4.941382 1.997366 -1.629410 -0.000001 0.000005 -0.000024
 27   2.914462 1.619264 1.514501 -0.000019 -0.000022 -0.000050
 28   2.916892 1.618870 -1.501142 -0.000002 -0.000009 -0.000024
 29   8.824059 0.150544 0.091743 0.000006 -0.000231 -0.174534
 30   2.111085 -0.561179 1.784320 -0.000008 -0.000682 0.000024
 31   2.121290 -0.561289 -1.853599 0.000000 0.000000 -0.000002
 32   -0.814395 -0.093824 3.127092 3.071685 -0.114787 1.239365
 33   14.298673 -0.408176 0.471578 0.000020 -0.000002 -1.896136
 34   15.835795 0.581398 0.242756 -0.214735 0.106913 -0.097869
 35   -0.815868 -0.091229 -3.114430 0.066464 3.132818 -1.010216
 36   14.294526 -0.410349 -0.467541 0.000009 -0.000036 -2.607695
 37   15.834409 0.579420 -0.284600 -0.006131 -0.035383 0.214508
 38   1.139685 -3.453749 -2.823813 0.000000 0.000000 0.000001
 39   -4.457742 -1.054854 -0.746180 0.000000 0.000000 0.000000
 40   1.118101 -3.449769 3.237290 0.000000 0.000001 0.000000
 41   -4.433840 -1.059130 0.959566 -0.000001 0.000000 0.000000
 42   -0.657468 1.697302 -2.688614 0.000000 0.000002 0.000000
 43   -0.664068 1.698578 2.869377 0.000000 0.000002 0.000000
time 13
  0   -0.967547 0.175787 -20.574476 0.000000 0.000000 -1.572114
  1   -1.093036 0.000002 -0.326057 -1.570808 -1.570425 -0.000219
  2   2.262337 0.113614 0.064702 -0.000052 0.000049 0.192424
  3   2.380047 0.353302 0.047440 0.027347 -0.001646 0.060910
  4   2.033756 0.190472 -0.000128 -0.095524 0.016779 0.173272
  5   2.451511 0.204909 -0.003447 -0.138715 0.014434 0.103433
  6   7.247600 -0.397300 -0.109469 0.000001 0.000009 0.052298
  7   -2.022252 -0.104661 3.136172 0.914587 -1.249868 -4.083686
  8   1.168026 -0.537438 -0.063437 -0.014383 0.491536 -0.847246
  9   6.790376 -0.619176 0.015206 0.661770 -0.396655 -1.209971
 10   8.637599 0.544015 -0.090417 -1.995994 -0.171602 -0.530260
 11   6.790465 -0.619039 0.017802 0.412260 -0.374101 -0.826798
 12   -2.022474 -0.104699 -2.873818 0.839033 1.276005 -2.482159
 13   1.167898 -0.537463 0.063297 0.060877 -1.207588 -0.687766
 14   7.002743 -0.617765 -0.183752 -0.120752 0.380197 -1.911156
 15   8.209042 0.615527 -0.255885 1.434769 -0.253447 -0.321501
 16   7.002735 -0.617911 -0.183641 0.008977 0.310341 -1.330081
 17   1.574674 0.609930 -0.000899 -0.070559 -0.038214 0.466034
 18   -0.602177 0.511412 -0.000006 0.000000 0.000000 0.000000
 19   3.673773 0.177020 1.119313 -0.000002 -0.000014 -0.174510
 20   3.673767 0.176993 -1.117566 0.000007 -0.000003 -0.174546
 21   3.942357 1.334540 1.627658 0.000002 -0.000011 -0.000026
 22   -0.246060 -0.011889 0.516521 -0.000011 0.000031 0.000025
 23   3.942374 1.334565 -1.631083 0.000019 0.000002 -0.000024
 24   -0.246150 -0.011872 -0.516511 -0.000005 -0.000006 0.000048
 25   4.941364 1.997338 1.629330 0.000018 -0.000001 -0.000024
 26   4.941382 1.997366 -1.629410 -0.000001 0.000005 -0.000024
 27   2.914462 1.619264 1.514501 -0.000019 -0.000022 -0.000050
 28   2.916892 1.618870 -1.501142 -0.000002 -0.000009 -0.000024
 29   8.824059 0.150544 0.091743 0.000006 -0.000231 -0.174534
 30   2.111085 -0.561179 1.784320 -0.000008 -0.000682 0.000024
 31   2.121290 -0.561289 -1.853599 0.000000 0.000000 -0.000002
 32   -0.814395 -0.093824 3.127092 3.071685 -0.114787 1.239365
 33   14.298673 -0.408176 0.471578 0.000020 -0.000002 -1.896136
 34   15.835795 0.581398 0.242756 -0.214735 0.106913 -0.097869
 35   -0.815868 -0.091229 -3.114430 0.066464 3.132818 -1.010216
 36   14.294526 -0.410349 -0.467541 0.000009 -0.000036 -2.607695
 37   15.834409 0.579420 -0.284600 -0.006131 -0.035383 0.214508
 38   1.139685 -3.453749 -2.823813 0.000000 0.000000 0.000001
 39   -4.457742 -1.054854 -0.746180 0.000000 0.000000 0.000000
 40   1.118101 -3.449769 3.237290 0.000000 0.000001 0.000000
 41   -4.433840 -1.059130 0.959566 -0.000001 0.000000 0.000000
 42   -0.657468 1.697302 -2.688614 0.000000 0.000002 0.000000
 43   -0.664068 1.698578 2.869377 0.000000 0.000002 0.000000
time 14
  0   -0.967547 0.175787 -20.574476 0.000000 0.000000 -1.572114
  1   -1.093036 0.000002 -0.326057 -1.570808 -1.570425 -0.000219
  2   2.262337 0.113614 0.064702 -0.000052 0.000049 0.192424
  3   2.380047 0.353302 0.047440 0.000000 -0.000040 0.060910
  4   2.033756 0.190472 -0.000128 -0.171747 0.030057 0.171351
  5   2.451511 0.204909 -0.003447 -0.138715 0.014434 0.103433
  6   7.247600 -0.397300 -0.109469 0.000001 0.000009 0.052298
  7   -2.022252 -0.104661 3.136172 0.914587 -1.249868 -4.083968
  8   1.168026 -0.537438 -0.063437 -0.126263 0.377071 -0.992809
  9   6.790376 -0.619176 0.015206 0.660106 -0.445108 -1.100468
 10   8.637599 0.544015 -0.090417 -1.995906 -0.171602 -0.530260
 11   6.790465 -0.619039 0.017802 0.406187 -0.399200 -0.743862
 12   -2.022474 -0.104699 -2.873818 0.839033 1.276005 -2.481872
 13   1.167898 -0.537463 0.063297 0.060877 -1.207588 -0.727598
 14   7.002743 -0.617765 -0.183752 -0.096101 0.335734 -1.855465
 15   8.209042 0.615527 -0.255885 1.475250 -0.366558 -0.333769
 16   7.002735 -0.617911 -0.183641 0.013826 0.271884 -1.297683
 17   1.574674 0.609930 -0.000899 -0.168985 -0.009104 0.425487
 18   -0.602177 0.511412 -0.000006 0.000000 0.000000 0.000000
 19   3.673773 0.177020 1.119313 -0.000002 -0.000014 -0.174510
 20   3.673767 0.176993 -1.117566 0.000007 -0.000003 -0.174546
 21   3.942357 1.334540 1.627658 0.000002 -0.000011 -0.000026
 22   -0.246060 -0.011889 0.516521 -0.000011 0.000031 0.000025
 23   3.942374 1.334565 -1.631083 0.000019 0.000002 -0.000024
 24   -0.246150 -0.011872 -0.516511 -0.000005 -0.000006 0.000048
 25   4.941364 1.997338 1.629330 0.000018 -0.000001 -0.000024
 26   4.941382 1.997366 -1.629410 -0.000001 0.000005 -0.000024
 27   2.914462 1.619264 1.514501 -0.000019 -0.000022 -0.000050
 28   2.916892 1.618870 -1.501142 -0.000002 -0.000009 -0.000024
 29   8.824059 0.150544 0.091743 0.000006 -0.000231 -0.174534
 30   2.111085 -0.561179 1.784320 -0.000008 -0.000682 0.000024
 31   2.121290 -0.561289 -1.853599 0.000000 0.000000 -0.000002
 32   -0.814395 -0.093824 3.127092 3.071685 -0.114787 1.239365
 33   14.298673 -0.408176 0.471578 0.000020 -0.000002 -1.896136
 34   15.835795 0.581398 0.242756 -0.214735 0.106913 -0.097869
 35   -0.815868 -0.091229 -3.114430 0.066464 3.132818 -1.010216
 36   14.294526 -0.410349 -0.467541 0.000009 -0.000036 -2.607695
 37   15.834409 0.579420 -0.284600 -0.006131 -0.035383 0.214508
 38   1.139685 -3.453749 -2.823813 0.000000 0.000000 0.000001
 39   -4.457742 -1.054854 -0.746180 0.000000 0.000000 0.000000
 40   1.118101 -3.449769 3.237290 0.000000 0.000001 0.000000
 41   -4.433840 -1.059130 0.959566 -0.000001 0.000000 0.000000
 42   -0.657468 1.697302 -2.688614 0.000000 0.000002 0.000000
 43   -0.664068 1.698578 2.869377 0.000000 0.000002 0.000000
time 15
  0   -0.967547 0.175787 -20.574476 0.000000 0.000000 -1.572114
  1   -1.093036 0.000002 -0.326057 -1.570808 -1.570425 -0.000219
  2   2.262337 0.113614 0.064702 -0.000052 0.000049 0.192424
  3   2.380047 0.353302 0.047440 0.000000 -0.000040 0.060910
  4   2.033756 0.190472 -0.000128 -0.171747 0.030057 0.171351
  5   2.451511 0.204909 -0.003447 -0.138715 0.014434 0.103433
  6   7.247600 -0.397300 -0.109469 0.000001 0.000009 0.052298
  7   -2.022252 -0.104661 3.136172 0.914587 -1.249868 -4.083968
  8   1.168026 -0.537438 -0.063437 -0.189164 0.283990 -1.012989
  9   6.790376 -0.619176 0.015206 0.660106 -0.445108 -1.193519
 10   8.637599 0.544015 -0.090417 -2.023206 -0.279651 -0.503999
 11   6.790465 -0.619039 0.017802 0.402625 -0.406477 -0.807938
 12   -2.022474 -0.104699 -2.873818 0.839033 1.276005 -2.481872
 13   1.167898 -0.537463 0.063297 0.060877 -1.207588 -0.727598
 14   7.002743 -0.617765 -0.183752 -0.096101 0.335734 -1.855465
 15   8.209042 0.615527 -0.255885 1.475250 -0.366558 -0.333769
 16   7.002735 -0.617911 -0.183641 0.013826 0.271884 -1.297683
 17   1.574674 0.609930 -0.000899 -0.168985 -0.009104 0.376071
 18   -0.602177 0.511412 -0.000006 0.000000 0.000000 0.000000
 19   3.673773 0.177020 1.119313 -0.000002 -0.000014 -0.174510
 20   3.673767 0.176993 -1.117566 0.000007 -0.000003 -0.174546
 21   3.942357 1.334540 1.627658 0.000002 -0.000011 -0.000026
 22   -0.246060 -0.011889 0.516521 -0.000011 0.000031 0.000025
 23   3.942374 1.334565 -1.631083 0.000019 0.000002 -0.000024
 24   -0.246150 -0.011872 -0.516511 -0.000005 -0.000006 0.000048
 25   4.941364 1.997338 1.629330 0.000018 -0.000001 -0.000024
 26   4.941382 1.997366 -1.629410 -0.000001 0.000005 -0.000024
 27   2.914462 1.619264 1.514501 -0.000019 -0.000022 -0.000050
 28   2.916892 1.618870 -1.501142 -0.000002 -0.000009 -0.000024
 29   8.824059 0.150544 0.091743 0.000006 -0.000231 -0.174534
 30   2.111085 -0.561179 1.784320 -0.000008 -0.000682 0.000024
 31   2.121290 -0.561289 -1.853599 0.000000 0.000000 -0.000002
 32   -0.814395 -0.093824 3.127092 3.071685 -0.114787 1.239365
 33   14.298673 -0.408176 0.471578 0.000020 -0.000002 -1.896136
 34   15.835795 0.581398 0.242756 -0.214735 0.106913 -0.097869
 35   -0.815868 -0.091229 -3.114430 0.066464 3.132818 -1.010216
 36   14.294526 -0.410349 -0.467541 0.000009 -0.000036 -2.607695
 37   15.834409 0.579420 -0.284600 -0.006131 -0.035383 0.214508
 38   1.139685 -3.453749 -2.823813 0.000000 0.000000 0.000001
 39   -4.457742 -1.054854 -0.746180 0.000000 0.000000 0.000000
 40   1.118101 -3.449769 3.237290 0.000000 0.000001 0.000000
 41   -4.433840 -1.059130 0.959566 -0.000001 0.000000 0.000000
 42   -0.657468 1.697302 -2.688614 0.000000 0.000002 0.000000
 43   -0.664068 1.698578 2.869377 0.000000 0.000002 0.000000
time 16
  0   -0.967547 0.175787 -20.574476 0.000000 0.000000 -1.572114
  1   -1.093036 0.000002 -0.326057 -1.570808 -1.570425 -0.000219
  2   2.262337 0.113614 0.064702 -0.000052 0.000049 0.192424
  3   2.380047 0.353302 0.047440 0.000000 -0.000040 0.060910
  4   2.033756 0.190472 -0.000128 -0.171747 0.030057 0.171351
  5   2.451511 0.204909 -0.003447 -0.138715 0.014434 0.103433
  6   7.247600 -0.397300 -0.109469 0.000001 0.000009 0.052298
  7   -2.022252 -0.104661 3.136172 0.914587 -1.249868 -4.083968
  8   1.168026 -0.537438 -0.063437 -0.248458 0.189701 -1.027032
  9   6.790376 -0.619176 0.015206 0.660106 -0.445108 -1.286646
 10   8.637599 0.544015 -0.090417 -2.054469 -0.387207 -0.473614
 11   6.790465 -0.619039 0.017802 0.399151 -0.413811 -0.872073
 12   -2.022474 -0.104699 -2.873818 0.839033 1.276005 -2.481872
 13   1.167898 -0.537463 0.063297 0.060877 -1.207588 -0.727598
 14   7.002743 -0.617765 -0.183752 -0.096101 0.335734 -1.855465
 15   8.209042 0.615527 -0.255885 1.475250 -0.366558 -0.333769
 16   7.002735 -0.617911 -0.183641 0.013826 0.271884 -1.297683
 17   1.574674 0.609930 -0.000899 -0.168985 -0.009104 0.326395
 18   -0.602177 0.511412 -0.000006 0.000000 0.000000 0.000000
 19   3.673773 0.177020 1.119313 -0.000002 -0.000014 -0.174510
 20   3.673767 0.176993 -1.117566 0.000007 -0.000003 -0.174546
 21   3.942357 1.334540 1.627658 0.000002 -0.000011 -0.000026
 22   -0.246060 -0.011889 0.516521 -0.000011 0.000031 0.000025
 23   3.942374 1.334565 -1.631083 0.000019 0.000002 -0.000024
 24   -0.246150 -0.011872 -0.516511 -0.000005 -0.000006 0.000048
 25   4.941364 1.997338 1.629330 0.000018 -0.000001 -0.000024
 26   4.941382 1.997366 -1.629410 -0.000001 0.000005 -0.000024
 27   2.914462 1.619264 1.514501 -0.000019 -0.000022 -0.000050
 28   2.916892 1.618870 -1.501142 -0.000002 -0.000009 -0.000024
 29   8.824059 0.150544 0.091743 0.000006 -0.000231 -0.174534
 30   2.111085 -0.561179 1.784320 -0.000008 -0.000682 0.000024
 31   2.121290 -0.561289 -1.853599 0.000000 0.000000 -0.000002
 32   -0.814395 -0.093824 3.127092 3.071685 -0.114787 1.239365
 33   14.298673 -0.408176 0.471578 0.000020 -0.000002 -1.896136
 34   15.835795 0.581398 0.242756 -0.214735 0.106913 -0.097869
 35   -0.815868 -0.091229 -3.114430 0.066464 3.132818 -1.010216
 36   14.294526 -0.410349 -0.467541 0.000009 -0.000036 -2.607695
 37   15.834409 0.579420 -0.284600 -0.006131 -0.035383 0.214508
 38   1.139685 -3.453749 -2.823813 0.000000 0.000000 0.000001
 39   -4.457742 -1.054854 -0.746180 0.000000 0.000000 0.000000
 40   1.118101 -3.449769 3.237290 0.000000 0.000001 0.000000
 41   -4.433840 -1.059130 0.959566 -0.000001 0.000000 0.000000
 42   -0.657468 1.697302 -2.688614 0.000000 0.000002 0.000000
 43   -0.664068 1.698578 2.869377 0.000000 0.000002 0.000000
time 17
  0   -0.967547 0.175787 -20.574476 0.000000 0.000000 -1.572114
  1   -1.093036 0.000002 -0.326057 -1.570808 -1.570425 -0.000219
  2   2.262337 0.113614 0.064702 -0.000052 0.000049 0.192424
  3   2.380047 0.353302 0.047440 0.000000 -0.000040 0.060910
  4   2.033756 0.190472 -0.000128 -0.171747 0.030057 0.171351
  5   2.451511 0.204909 -0.003447 -0.138715 0.014434 0.103433
  6   7.247600 -0.397300 -0.109469 0.000001 0.000009 0.052298
  7   -2.022252 -0.104661 3.136172 0.914587 -1.249868 -4.083968
  8   1.168026 -0.537438 -0.063437 -0.305727 0.094959 -1.035003
  9   6.790376 -0.619176 0.015206 0.660106 -0.445108 -1.379698
 10   8.637599 0.544015 -0.090417 -2.091016 -0.493849 -0.437225
 11   6.790465 -0.619039 0.017802 0.395647 -0.421287 -0.936323
 12   -2.022474 -0.104699 -2.873818 0.839033 1.276005 -2.481872
 13   1.167898 -0.537463 0.063297 0.060877 -1.207588 -0.727598
 14   7.002743 -0.617765 -0.183752 -0.096101 0.335734 -1.855465
 15   8.209042 0.615527 -0.255885 1.475250 -0.366558 -0.333769
 16   7.002735 -0.617911 -0.183641 0.013826 0.271884 -1.297683
 17   1.574674 0.609930 -0.000899 -0.168985 -0.009104 0.277015
 18   -0.602177 0.511412 -0.000006 0.000000 0.000000 0.000000
 19   3.673773 0.177020 1.119313 -0.000002 -0.000014 -0.174510
 20   3.673767 0.176993 -1.117566 0.000007 -0.000003 -0.174546
 21   3.942357 1.334540 1.627658 0.000002 -0.000011 -0.000026
 22   -0.246060 -0.011889 0.516521 -0.000011 0.000031 0.000025
 23   3.942374 1.334565 -1.631083 0.000019 0.000002 -0.000024
 24   -0.246150 -0.011872 -0.516511 -0.000005 -0.000006 0.000048
 25   4.941364 1.997338 1.629330 0.000018 -0.000001 -0.000024
 26   4.941382 1.997366 -1.629410 -0.000001 0.000005 -0.000024
 27   2.914462 1.619264 1.514501 -0.000019 -0.000022 -0.000050
 28   2.916892 1.618870 -1.501142 -0.000002 -0.000009 -0.000024
 29   8.824059 0.150544 0.091743 0.000006 -0.000231 -0.174534
 30   2.111085 -0.561179 1.784320 -0.000008 -0.000682 0.000024
 31   2.121290 -0.561289 -1.853599 0.000000 0.000000 -0.000002
 32   -0.814395 -0.093824 3.127092 3.071685 -0.114787 1.239365
 33   14.298673 -0.408176 0.471578 0.000020 -0.000002 -1.896136
 34   15.835795 0.581398 0.242756 -0.214735 0.106913 -0.097869
 35   -0.815868 -0.091229 -3.114430 0.066464 3.132818 -1.010216
 36   14.294526 -0.410349 -0.467541 0.000009 -0.000036 -2.607695
 37   15.834409 0.579420 -0.284600 -0.006131 -0.035383 0.214508
 38   1.139685 -3.453749 -2.823813 0.000000 0.000000 0.000001
 39   -4.457742 -1.054854 -0.746180 0.000000 0.000000 0.000000
 40   1.118101 -3.449769 3.237290 0.000000 0.000001 0.000000
 41   -4.433840 -1.059130 0.959566 -0.000001 0.000000 0.000000
 42   -0.657468 1.697302 -2.688614 0.000000 0.000002 0.000000
 43   -0.664068 1.698578 2.869377 0.000000 0.000002 0.000000
time 18
  0   -0.967547 0.175787 -20.574476 0.000000 0.000000 -1.572114
  1   -1.093036 0.000002 -0.326057 -1.570808 -1.570425 -0.000219
  2   2.262337 0.113614 0.064702 -0.000052 0.000049 0.192424
  3   2.380047 0.353302 0.047440 0.000000 -0.000040 0.060910
  4   2.033756 0.190472 -0.000128 -0.171747 0.030057 0.171351
  5   2.451511 0.204909 -0.003447 -0.138715 0.014434 0.103433
  6   7.247600 -0.397300 -0.109469 0.000001 0.000009 0.052298
  7   -2.022252 -0.104661 3.136172 0.914587 -1.249868 -4.083968
  8   1.168026 -0.537438 -0.063437 -0.362110 -0.000336 -1.037787
  9   6.790376 -0.619176 0.015206 0.199070 -0.379036 -1.236913
 10   8.637599 0.544015 -0.090417 -2.134784 -0.598519 -0.394831
 11   6.790465 -0.619039 0.017802 0.090458 -0.305369 -0.861922
 12   -2.022474 -0.104699 -2.873818 0.839033 1.276005 -2.481872
 13   1.167898 -0.537463 0.063297 0.060877 -1.207588 -0.727598
 14   7.002743 -0.617765 -0.183752 -0.096101 0.335734 -1.855465
 15   8.209042 0.615527 -0.255885 1.475250 -0.366558 -0.333769
 16   7.002735 -0.617911 -0.183641 0.013826 0.271884 -1.297683
 17   1.574674 0.609930 -0.000899 -0.168985 -0.009104 0.227561
 18   -0.602177 0.511412 -0.000006 0.000000 0.000000 0.000000
 19   3.673773 0.177020 1.119313 -0.000002 -0.000014 -0.174510
 20   3.673767 0.176993 -1.117566 0.000007 -0.000003 -0.174546
 21   3.942357 1.334540 1.627658 0.000002 -0.000011 -0.000026
 22   -0.246060 -0.011889 0.516521 -0.000011 0.000031 0.000025
 23   3.942374 1.334565 -1.631083 0.000019 0.000002 -0.000024
 24   -0.246150 -0.011872 -0.516511 -0.000005 -0.000006 0.000048
 25   4.941364 1.997338 1.629330 0.000018 -0.000001 -0.000024
 26   4.941382 1.997366 -1.629410 -0.000001 0.000005 -0.000024
 27   2.914462 1.619264 1.514501 -0.000019 -0.000022 -0.000050
 28   2.916892 1.618870 -1.501142 -0.000002 -0.000009 -0.000024
 29   8.824059 0.150544 0.091743 0.000006 -0.000231 -0.174534
 30   2.111085 -0.561179 1.784320 -0.000008 -0.000682 0.000024
 31   2.121290 -0.561289 -1.853599 0.000000 0.000000 -0.000002
 32   -0.814395 -0.093824 3.127092 3.071685 -0.114787 1.239365
 33   14.298673 -0.408176 0.471578 0.000020 -0.000002 -1.896136
 34   15.835795 0.581398 0.242756 -0.214735 0.106913 -0.097869
 35   -0.815868 -0.091229 -3.114430 0.066464 3.132818 -1.010216
 36   14.294526 -0.410349 -0.467541 0.000009 -0.000036 -2.607695
 37   15.834409 0.579420 -0.284600 -0.006131 -0.035383 0.214508
 38   1.139685 -3.453749 -2.823813 0.000000 0.000000 0.000001
 39   -4.457742 -1.054854 -0.746180 0.000000 0.000000 0.000000
 40   1.118101 -3.449769 3.237290 0.000000 0.000001 0.000000
 41   -4.433840 -1.059130 0.959566 -0.000001 0.000000 0.000000
 42   -0.657468 1.697302 -2.688614 0.000000 0.000002 0.000000
 43   -0.664068 1.698578 2.869377 0.000000 0.000002 0.000000
time 19
  0   -0.967547 0.175787 -20.574476 0.000000 0.000000 -1.572114
  1   -1.093036 0.000002 -0.326057 -1.570808 -1.570425 -0.000219
  2   2.262337 0.113614 0.064702 -0.000052 0.000049 0.192424
  3   2.380047 0.353302 0.047440 0.000000 -0.000040 0.060910
  4   2.033756 0.190472 -0.000128 -0.171747 0.030057 0.171351
  5   2.451511 0.204909 -0.003447 -0.138715 0.014434 0.103433
  6   7.247600 -0.397300 -0.109469 0.000001 0.000009 0.052298
  7   -2.022252 -0.104661 3.136172 0.914587 -1.249868 -4.083968
  8   1.168026 -0.537438 -0.063437 -0.418303 -0.095581 -1.034814
  9   6.790376 -0.619176 0.015206 -0.233616 -0.262841 -1.142428
 10   8.637599 0.544015 -0.090417 -2.187623 -0.702064 -0.342092
 11   6.790465 -0.619039 0.017802 -0.194847 -0.170605 -0.815782
 12   -2.022474 -0.104699 -2.873818 0.839033 1.276005 -2.481872
 13   1.167898 -0.537463 0.063297 0.060877 -1.207588 -0.727598
 14   7.002743 -0.617765 -0.183752 -0.096101 0.335734 -1.855465
 15   8.209042 0.615527 -0.255885 1.475250 -0.366558 -0.333769
 16   7.002735 -0.617911 -0.183641 0.013826 0.271884 -1.297683
 17   1.574674 0.609930 -0.000899 -0.168985 -0.009104 0.178218
 18   -0.602177 0.511412 -0.000006 0.000000 0.000000 0.000000
 19   3.673773 0.177020 1.119313 -0.000002 -0.000014 -0.174510
 20   3.673767 0.176993 -1.117566 0.000007 -0.000003 -0.174546
 21   3.942357 1.334540 1.627658 0.000002 -0.000011 -0.000026
 22   -0.246060 -0.011889 0.516521 -0.000011 0.000031 0.000025
 23   3.942374 1.334565 -1.631083 0.000019 0.000002 -0.000024
 24   -0.246150 -0.011872 -0.516511 -0.000005 -0.000006 0.000048
 25   4.941364 1.997338 1.629330 0.000018 -0.000001 -0.000024
 26   4.941382 1.997366 -1.629410 -0.000001 0.000005 -0.000024
 27   2.914462 1.619264 1.514501 -0.000019 -0.000022 -0.000050
 28   2.916892 1.618870 -1.501142 -0.000002 -0.000009 -0.000024
 29   8.824059 0.150544 0.091743 0.000006 -0.000231 -0.174534
 30   2.111085 -0.561179 1.784320 -0.000008 -0.000682 0.000024
 31   2.121290 -0.561289 -1.853599 0.000000 0.000000 -0.000002
 32   -0.814395 -0.093824 3.127092 3.071685 -0.114787 1.239365
 33   14.298673 -0.408176 0.471578 0.000020 -0.000002 -1.896136
 34   15.835795 0.581398 0.242756 -0.214735 0.106913 -0.097869
 35   -0.815868 -0.091229 -3.114430 0.066464 3.132818 -1.010216
 36   14.294526 -0.410349 -0.467541 0.000009 -0.000036 -2.607695
 37   15.834409 0.579420 -0.284600 -0.006131 -0.035383 0.214508
 38   1.139685 -3.453749 -2.823813 0.000000 0.000000 0.000001
 39   -4.457742 -1.054854 -0.746180 0.000000 0.000000 0.000000
 40   1.118101 -3.449769 3.237290 0.000000 0.000001 0.000000
 41   -4.433840 -1.059130 0.959566 -0.000001 0.000000 0.000000
 42   -0.657468 1.697302 -2.688614 0.000000 0.000002 0.000000
 43   -0.664068 1.698578 2.869377 0.000000 0.000002 0.000000
time 20
  0   -0.967547 0.175787 -20.574476 0.000000 0.000000 -1.572114
  1   -1.093036 0.000002 -0.326057 -1.570808 -1.570425 -0.000219
  2   2.262337 0.113614 0.064702 -0.000052 0.000049 0.192424
  3   2.380047 0.353302 0.047440 0.000000 -0.000040 0.060910
  4   2.033756 0.190472 -0.000128 -0.171747 0.030057 0.171351
  5   2.451511 0.204909 -0.003447 -0.138715 0.014434 0.103433
  6   7.247600 -0.397300 -0.109469 0.000001 0.000009 0.052298
  7   -2.022252 -0.104661 3.136172 0.914587 -1.249868 -4.083968
  8   1.168026 -0.537438 -0.063437 -0.475571 -0.190021 -1.026843
  9   6.790376 -0.619176 0.015206 -0.644055 -0.120484 -1.107864
 10   8.637599 0.544015 -0.090417 -2.253672 -0.802229 -0.277199
 11   6.790465 -0.619039 0.017802 -0.468416 -0.023704 -0.798710
 12   -2.022474 -0.104699 -2.873818 0.839033 1.276005 -2.481872
 13   1.167898 -0.537463 0.063297 0.060877 -1.207588 -0.727598
 14   7.002743 -0.617765 -0.183752 -0.096101 0.335734 -1.855465
 15   8.209042 0.615527 -0.255885 1.475250 -0.366558 -0.333769
 16   7.002735 -0.617911 -0.183641 0.013826 0.271884 -1.297683
 17   1.574674 0.609930 -0.000899 -0.168985 -0.009104 0.129356
 18   -0.602177 0.511412 -0.000006 0.000000 0.000000 0.000000
 19   3.673773 0.177020 1.119313 -0.000002 -0.000014 -0.174510
 20   3.673767 0.176993 -1.117566 0.000007 -0.000003 -0.174546
 21   3.942357 1.334540 1.627658 0.000002 -0.000011 -0.000026
 22   -0.246060 -0.011889 0.516521 -0.000011 0.000031 0.000025
 23   3.942374 1.334565 -1.631083 0.000019 0.000002 -0.000024
 24   -0.246150 -0.011872 -0.516511 -0.000005 -0.000006 0.000048
 25   4.941364 1.997338 1.629330 0.000018 -0.000001 -0.000024
 26   4.941382 1.997366 -1.629410 -0.000001 0.000005 -0.000024
 27   2.914462 1.619264 1.514501 -0.000019 -0.000022 -0.000050
 28   2.916892 1.618870 -1.501142 -0.000002 -0.000009 -0.000024
 29   8.824059 0.150544 0.091743 0.000006 -0.000231 -0.174534
 30   2.111085 -0.561179 1.784320 -0.000008 -0.000682 0.000024
 31   2.121290 -0.561289 -1.853599 0.000000 0.000000 -0.000002
 32   -0.814395 -0.093824 3.127092 3.071685 -0.114787 1.239365
 33   14.298673 -0.408176 0.471578 0.000020 -0.000002 -1.896136
 34   15.835795 0.581398 0.242756 -0.214735 0.106913 -0.097869
 35   -0.815868 -0.091229 -3.114430 0.066464 3.132818 -1.010216
 36   14.294526 -0.410349 -0.467541 0.000009 -0.000036 -2.607695
 37   15.834409 0.579420 -0.284600 -0.006131 -0.035383 0.214508
 38   1.139685 -3.453749 -2.823813 0.000000 0.000000 0.000001
 39   -4.457742 -1.054854 -0.746180 0.000000 0.000000 0.000000
 40   1.118101 -3.449769 3.237290 0.000000 0.000001 0.000000
 41   -4.433840 -1.059130 0.959566 -0.000001 0.000000 0.000000
 42   -0.657468 1.697302 -2.688614 0.000000 0.000002 0.000000
 43   -0.664068 1.698578 2.869377 0.000000 0.000002 0.000000
time 21
  0   -0.967547 0.175787 -20.574476 0.000000 0.000000 -1.572114
  1   -1.093036 0.000002 -0.326057 -1.570808 -1.570425 -0.000219
  2   2.262337 0.113614 0.064702 -0.000052 0.000049 0.192424
  3   2.380047 0.353302 0.047440 0.000000 -0.000040 0.060910
  4   2.033756 0.190472 -0.000128 -0.171747 0.030057 0.171351
  5   2.451511 0.204909 -0.003447 -0.138715 0.014434 0.103433
  6   7.247600 -0.397300 -0.109469 0.000001 0.000009 0.052298
  7   -2.022252 -0.104661 3.136172 0.914587 -1.249868 -4.083968
  8   1.168026 -0.537438 -0.063437 -0.424377 -0.105644 -1.034497
  9   6.790376 -0.619176 0.015206 -0.644055 -0.120484 -1.276835
 10   8.637599 0.544015 -0.090417 -1.974066 -1.004742 -0.543281
 11   6.790465 -0.619039 0.017802 -0.471978 -0.011850 -0.917521
 12   -2.022474 -0.104699 -2.873818 0.839033 1.276005 -2.481872
 13   1.167898 -0.537463 0.063297 0.060877 -1.207588 -0.727598
 14   7.002743 -0.617765 -0.183752 -0.096101 0.335734 -1.855465
 15   8.209042 0.615527 -0.255885 1.475250 -0.366558 -0.333769
 16   7.002735 -0.617911 -0.183641 0.013826 0.271884 -1.297683
 17   1.574674 0.609930 -0.000899 -0.168985 -0.009104 0.129356
 18   -0.602177 0.511412 -0.000006 0.000000 0.000000 0.000000
 19   3.673773 0.177020 1.119313 -0.000002 -0.000014 -0.174510
 20   3.673767 0.176993 -1.117566 0.000007 -0.000003 -0.174546
 21   3.942357 1.334540 1.627658 0.000002 -0.000011 -0.000026
 22   -0.246060 -0.011889 0.516521 -0.000011 0.000031 0.000025
 23   3.942374 1.334565 -1.631083 0.000019 0.000002 -0.000024
 24   -0.246150 -0.011872 -0.516511 -0.000005 -0.000006 0.000048
 25   4.941364 1.997338 1.629330 0.000018 -0.000001 -0.000024
 26   4.941382 1.997366 -1.629410 -0.000001 0.000005 -0.000024
 27   2.914462 1.619264 1.514501 -0.000019 -0.000022 -0.000050
 28   2.916892 1.618870 -1.501142 -0.000002 -0.000009 -0.000024
 29   8.824059 0.150544 0.091743 0.000006 -0.000231 -0.174534
 30   2.111085 -0.561179 1.784320 -0.000008 -0.000682 0.000024
 31   2.121290 -0.561289 -1.853599 0.000000 0.000000 -0.000002
 32   -0.814395 -0.093824 3.127092 3.071685 -0.114787 1.239365
 33   14.298673 -0.408176 0.471578 0.000020 -0.000002 -1.896136
 34   15.835795 0.581398 0.242756 -0.214735 0.106913 -0.097869
 35   -0.815868 -0.091229 -3.114430 0.066464 3.132818 -1.010216
 36   14.294526 -0.410349 -0.467541 0.000009 -0.000036 -2.607695
 37   15.834409 0.579420 -0.284600 -0.006131 -0.035383 0.214508
 38   1.139685 -3.453749 -2.823813 0.000000 0.000000 0.000001
 39   -4.457742 -1.054854 -0.746180 0.000000 0.000000 0.000000
 40   1.118101 -3.449769 3.237290 0.000000 0.000001 0.000000
 41   -4.433840 -1.059130 0.959566 -0.000001 0.000000 0.000000
 42   -0.657468 1.697302 -2.688614 0.000000 0.000002 0.000000
 43   -0.664068 1.698578 2.869377 0.000000 0.000002 0.000000
time 22
  0   -0.967547 0.175787 -20.574476 0.000000 0.000000 -1.572114
  1   -1.093036 0.000002 -0.326057 -1.570808 -1.570425 -0.000219
  2   2.262337 0.113614 0.064702 -0.000052 0.000049 0.192424
  3   2.380047 0.353302 0.047440 0.000000 -0.000040 0.060910
  4   2.033756 0.190472 -0.000128 -0.171747 0.030057 0.171351
  5   2.451511 0.204909 -0.003447 -0.138715 0.014434 0.103433
  6   7.247600 -0.397300 -0.109469 0.000001 0.000009 0.052298
  7   -2.022252 -0.104661 3.136172 0.914587 -1.249868 -4.083968
  8   1.168026 -0.537438 -0.063437 -0.373880 -0.020512 -1.037724
  9   6.790376 -0.619176 0.015206 -0.644055 -0.120484 -1.445430
 10   8.637599 0.544015 -0.090417 -1.485570 -1.132501 -1.019741
 11   6.790465 -0.619039 0.017802 -0.475861 0.000287 -1.036043
 12   -2.022474 -0.104699 -2.873818 0.839033 1.276005 -2.481872
 13   1.167898 -0.537463 0.063297 0.060877 -1.207588 -0.727598
 14   7.002743 -0.617765 -0.183752 -0.096101 0.335734 -1.855465
 15   8.209042 0.615527 -0.255885 1.475250 -0.366558 -0.333769
 16   7.002735 -0.617911 -0.183641 0.013826 0.271884 -1.297683
 17   1.574674 0.609930 -0.000899 -0.168985 -0.009104 0.129356
 18   -0.602177 0.511412 -0.000006 0.000000 0.000000 0.000000
 19   3.673773 0.177020 1.119313 -0.000002 -0.000014 -0.174510
 20   3.673767 0.176993 -1.117566 0.000007 -0.000003 -0.174546
 21   3.942357 1.334540 1.627658 0.000002 -0.000011 -0.000026
 22   -0.246060 -0.011889 0.516521 -0.000011 0.000031 0.000025
 23   3.942374 1.334565 -1.631083 0.000019 0.000002 -0.000024
 24   -0.246150 -0.011872 -0.516511 -0.000005 -0.000006 0.000048
 25   4.941364 1.997338 1.629330 0.000018 -0.000001 -0.000024
 26   4.941382 1.997366 -1.629410 -0.000001 0.000005 -0.000024
 27   2.914462 1.619264 1.514501 -0.000019 -0.000022 -0.000050
 28   2.916892 1.618870 -1.501142 -0.000002 -0.000009 -0.000024
 29   8.824059 0.150544 0.091743 0.000006 -0.000231 -0.174534
 30   2.111085 -0.561179 1.784320 -0.000008 -0.000682 0.000024
 31   2.121290 -0.561289 -1.853599 0.000000 0.000000 -0.000002
 32   -0.814395 -0.093824 3.127092 3.071685 -0.114787 1.239365
 33   14.298673 -0.408176 0.471578 0.000020 -0.000002 -1.896136
 34   15.835795 0.581398 0.242756 -0.214735 0.106913 -0.097869
 35   -0.815868 -0.091229 -3.114430 0.066464 3.132818 -1.010216
 36   14.294526 -0.410349 -0.467541 0.000009 -0.000036 -2.607695
 37   15.834409 0.579420 -0.284600 -0.006131 -0.035383 0.214508
 38   1.139685 -3.453749 -2.823813 0.000000 0.000000 0.000001
 39   -4.457742 -1.054854 -0.746180 0.000000 0.000000 0.000000
 40   1.118101 -3.449769 3.237290 0.000000 0.000001 0.000000
 41   -4.433840 -1.059130 0.959566 -0.000001 0.000000 0.000000
 42   -0.657468 1.697302 -2.688614 0.000000 0.000002 0.000000
 43   -0.664068 1.698578 2.869377 0.000000 0.000002 0.000000
time 23
  0   -0.967547 0.175787 -20.574476 0.000000 0.000000 -1.572114
  1   -1.093036 0.000002 -0.326057 -1.570808 -1.570425 -0.000219
  2   2.262337 0.113614 0.064702 -0.000052 0.000049 0.192424
  3   2.380047 0.353302 0.047440 0.000000 -0.000040 0.060910
  4   2.033756 0.190472 -0.000128 -0.171747 0.030057 0.171351
  5   2.451511 0.204909 -0.003447 -0.138715 0.014434 0.103433
  6   7.247600 -0.397300 -0.109469 0.000001 0.000009 0.052298
  7   -2.022252 -0.104661 3.136172 0.914587 -1.249868 -4.083968
  8   1.168026 -0.537438 -0.063437 -0.323572 0.064871 -1.036458
  9   6.790376 -0.619176 0.015206 -0.644055 -0.120484 -1.614024
 10   8.637599 0.544015 -0.090417 -0.863744 -1.117156 -1.629458
 11   6.790465 -0.619039 0.017802 -0.480153 0.012652 -1.154853
 12   -2.022474 -0.104699 -2.873818 0.839033 1.276005 -2.481872
 13   1.167898 -0.537463 0.063297 0.060877 -1.207588 -0.727598
 14   7.002743 -0.617765 -0.183752 -0.096101 0.335734 -1.855465
 15   8.209042 0.615527 -0.255885 1.475250 -0.366558 -0.333769
 16   7.002735 -0.617911 -0.183641 0.013826 0.271884 -1.297683
 17   1.574674 0.609930 -0.000899 -0.168985 -0.009104 0.129356
 18   -0.602177 0.511412 -0.000006 0.000000 0.000000 0.000000
 19   3.673773 0.177020 1.119313 -0.000002 -0.000014 -0.174510
 20   3.673767 0.176993 -1.117566 0.000007 -0.000003 -0.174546
 21   3.942357 1.334540 1.627658 0.000002 -0.000011 -0.000026
 22   -0.246060 -0.011889 0.516521 -0.000011 0.000031 0.000025
 23   3.942374 1.334565 -1.631083 0.000019 0.000002 -0.000024
 24   -0.246150 -0.011872 -0.516511 -0.000005 -0.000006 0.000048
 25   4.941364 1.997338 1.629330 0.000018 -0.000001 -0.000024
 26   4.941382 1.997366 -1.629410 -0.000001 0.000005 -0.000024
 27   2.914462 1.619264 1.514501 -0.000019 -0.000022 -0.000050
 28   2.916892 1.618870 -1.501142 -0.000002 -0.000009 -0.000024
 29   8.824059 0.150544 0.091743 0.000006 -0.000231 -0.174534
 30   2.111085 -0.561179 1.784320 -0.000008 -0.000682 0.000024
 31   2.121290 -0.561289 -1.853599 0.000000 0.000000 -0.000002
 32   -0.814395 -0.093824 3.127092 3.071685 -0.114787 1.239365
 33   14.298673 -0.408176 0.471578 0.000020 -0.000002 -1.896136
 34   15.835795 0.581398 0.242756 -0.214735 0.106913 -0.097869
 35   -0.815868 -0.091229 -3.114430 0.066464 3.132818 -1.010216
 36   14.294526 -0.410349 -0.467541 0.000009 -0.000036 -2.607695
 37   15.834409 0.579420 -0.284600 -0.006131 -0.035383 0.214508
 38   1.139685 -3.453749 -2.823813 0.000000 0.000000 0.000001
 39   -4.457742 -1.054854 -0.746180 0.000000 0.000000 0.000000
 40   1.118101 -3.449769 3.237290 0.000000 0.000001 0.000000
 41   -4.433840 -1.059130 0.959566 -0.000001 0.000000 0.000000
 42   -0.657468 1.697302 -2.688614 0.000000 0.000002 0.000000
 43   -0.664068 1.698578 2.869377 0.000000 0.000002 0.000000
time 24
  0   -0.967547 0.175787 -20.574476 0.000000 0.000000 -1.572114
  1   -1.093036 0.000002 -0.326057 -1.570808 -1.570425 -0.000219
  2   2.262337 0.113614 0.064702 -0.000052 0.000049 0.192424
  3   2.380047 0.353302 0.047440 0.000000 -0.000040 0.060910
  4   2.033756 0.190472 -0.000128 -0.171747 0.030057 0.171351
  5   2.451511 0.204909 -0.003447 -0.138715 0.014434 0.103433
  6   7.247600 -0.397300 -0.109469 0.000001 0.000009 0.052298
  7   -2.022252 -0.104661 3.136172 0.914587 -1.249868 -4.083968
  8   1.168026 -0.537438 -0.063437 -0.323572 0.064871 -1.036458
  9   6.790376 -0.619176 0.015206 -0.644055 -0.120484 -1.614024
 10   8.637599 0.544015 -0.090417 -0.863744 -1.117156 -1.629458
 11   6.790465 -0.619039 0.017802 -0.480153 0.012652 -1.154853
 12   -2.022474 -0.104699 -2.873818 0.839033 1.276005 -2.481872
 13   1.167898 -0.537463 0.063297 0.060877 -1.207588 -0.727598
 14   7.002743 -0.617765 -0.183752 -0.096101 0.335734 -1.855465
 15   8.209042 0.615527 -0.255885 1.475250 -0.366558 -0.333769
 16   7.002735 -0.617911 -0.183641 0.013826 0.271884 -1.297683
 17   1.574674 0.609930 -0.000899 -0.168985 -0.009104 0.129356
 18   -0.602177 0.511412 -0.000006 0.000000 0.000000 0.000000
 19   3.673773 0.177020 1.119313 -0.000002 -0.000014 -0.174510
 20   3.673767 0.176993 -1.117566 0.000007 -0.000003 -0.174546
 21   3.942357 1.334540 1.627658 0.000002 -0.000011 -0.000026
 22   -0.246060 -0.011889 0.516521 -0.000011 0.000031 0.000025
 23   3.942374 1.334565 -1.631083 0.000019 0.000002 -0.000024
 24   -0.246150 -0.011872 -0.516511 -0.000005 -0.000006 0.000048
 25   4.941364 1.997338 1.629330 0.000018 -0.000001 -0.000024
 26   4.941382 1.997366 -1.629410 -0.000001 0.000005 -0.000024
 27   2.914462 1.619264 1.514501 -0.000019 -0.000022 -0.000050
 28   2.916892 1.618870 -1.501142 -0.000002 -0.000009 -0.000024
 29   8.824059 0.150544 0.091743 0.000006 -0.000231 -0.174534
 30   2.111085 -0.561179 1.784320 -0.000008 -0.000682 0.000024
 31   2.121290 -0.561289 -1.853599 0.000000 0.000000 -0.000002
 32   -0.814395 -0.093824 3.127092 3.071685 -0.114787 1.239365
 33   14.298673 -0.408176 0.471578 0.000020 -0.000002 -1.896136
 34   15.835795 0.581398 0.242756 -0.214735 0.106913 -0.097869
 35   -0.815868 -0.091229 -3.114430 0.066464 3.132818 -1.010216
 36   14.294526 -0.410349 -0.467541 0.000009 -0.000036 -2.607695
 37   15.834409 0.579420 -0.284600 -0.006131 -0.035383 0.214508
 38   1.139685 -3.453749 -2.823813 0.000000 0.000000 0.000001
 39   -4.457742 -1.054854 -0.746180 0.000000 0.000000 0.000000
 40   1.118101 -3.449769 3.237290 0.000000 0.000001 0.000000
 41   -4.433840 -1.059130 0.959566 -0.000001 0.000000 0.000000
 42   -0.657468 1.697302 -2.688614 0.000000 0.000002 0.000000
 43   -0.664068 1.698578 2.869377 0.000000 0.000002 0.000000
time 25
  0   -0.967547 0.175787 -20.574476 0.000000 0.000000 -1.572114
  1   -1.093036 0.000002 -0.326057 -1.570808 -1.570425 -0.000219
  2   2.262337 0.113614 0.064702 -0.000052 0.000049 0.192424
  3   2.380047 0.353302 0.047440 0.000000 -0.000040 0.060910
  4   2.033756 0.190472 -0.000128 -0.171747 0.030057 0.171351
  5   2.451511 0.204909 -0.003447 -0.138715 0.014434 0.103433
  6   7.247600 -0.397300 -0.109469 0.000001 0.000009 0.052298
  7   -2.022252 -0.104661 3.136172 0.914587 -1.249868 -4.083968
  8   1.168026 -0.537438 -0.063437 -0.126263 0.377071 -0.992809
  9   6.790376 -0.619176 0.015206 0.660106 -0.445108 -1.100468
 10   8.637599 0.544015 -0.090417 -1.995906 -0.171602 -0.530260
 11   6.790465 -0.619039 0.017802 0.406187 -0.399200 -0.743862
 12   -2.022474 -0.104699 -2.873818 0.839033 1.276005 -2.481872
 13   1.167898 -0.537463 0.063297 0.060877 -1.207588 -0.727598
 14   7.002743 -0.617765 -0.183752 -0.096101 0.335734 -1.855465
 15   8.209042 0.615527 -0.255885 1.475250 -0.366558 -0.333769
 16   7.002735 -0.617911 -0.183641 0.013826 0.271884 -1.297683
 17   1.574674 0.609930 -0.000899 0.005971 -0.087678 0.416765
 18   -0.602177 0.511412 -0.000006 0.000000 0.000000 0.000000
 19   3.673773 0.177020 1.119313 -0.000002 -0.000014 -0.174510
 20   3.673767 0.176993 -1.117566 0.000007 -0.000003 -0.174546
 21   3.942357 1.334540 1.627658 0.000002 -0.000011 -0.000026
 22   -0.246060 -0.011889 0.516521 -0.000011 0.000031 0.000025
 23   3.942374 1.334565 -1.631083 0.000019 0.000002 -0.000024
 24   -0.246150 -0.011872 -0.516511 -0.000005 -0.000006 0.000048
 25   4.941364 1.997338 1.629330 0.000018 -0.000001 -0.000024
 26   4.941382 1.997366 -1.629410 -0.000001 0.000005 -0.000024
 27   2.914462 1.619264 1.514501 -0.000019 -0.000022 -0.000050
 28   2.916892 1.618870 -1.501142 -0.000002 -0.000009 -0.000024
 29   8.824059 0.150544 0.091743 0.000006 -0.000231 -0.174534
 30   2.111085 -0.561179 1.784320 -0.000008 -0.000682 0.000024
 31   2.121290 -0.561289 -1.853599 0.000000 0.000000 -0.000002
 32   -0.814395 -0.093824 3.127092 3.071685 -0.114787 1.239365
 33   14.298673 -0.408176 0.471578 0.000020 -0.000002 -1.896136
 34   15.835795 0.581398 0.242756 -0.214735 0.106913 -0.097869
 35   -0.815868 -0.091229 -3.114430 0.066464 3.132818 -1.010216
 36   14.294526 -0.410349 -0.467541 0.000009 -0.000036 -2.607695
 37   15.834409 0.579420 -0.284600 -0.006131 -0.035383 0.214508
 38   1.139685 -3.453749 -2.823813 0.000000 0.000000 0.000001
 39   -4.457742 -1.054854 -0.746180 0.000000 0.000000 0.000000
 40   1.118101 -3.449769 3.237290 0.000000 0.000001 0.000000
 41   -4.433840 -1.059130 0.959566 -0.000001 0.000000 0.000000
 42   -0.657468 1.697302 -2.688614 0.000000 0.000002 0.000000
 43   -0.664068 1.698578 2.869377 0.000000 0.000002 0.000000
end
