version 1
nodes
  0 "Bip01" -1
  1 "Bip01 Pelvis" 0
  2 "Bip01 Spine" 1
  3 "Bip01 Spine1" 2
  4 "Bip01 Spine2" 3
  5 "Bip01 Spine3" 4
  6 "Bip01 Neck" 5
  7 "Bip01 L Arm" 6
  8 "Bip01 L Arm1" 7
  9 "Bip01 L Arm2" 8
 10 "Bip01 L Hand" 9
 11 "Bip06 L elbow2-smooth" 8
 12 "Bip01 R Arm" 6
 13 "Bip01 R Arm1" 12
 14 "Bip01 R Arm2" 13
 15 "Bip01 R Hand" 14
 16 "Bip06 R elbow2-smooth" 13
 17 "Bip01 Head" 6
 18 "Bip06 Head_helper" 17
 19 "Bip06 Head_eyes_l" 18
 20 "Bip06 Head_eyes_r" 18
 21 "Bip06 Head_blink_l" 18
 22 "Bip06 Head_blink_smooth_l1" 21
 23 "Bip06 Head_blink_r" 18
 24 "Bip06 Head_blink_smooth_r1" 23
 25 "Bip06 Head_L_eyebrow" 18
 26 "Bip06 Head_R_eyebrow" 18
 27 "Bip06 Head_blink_l_lid" 18
 28 "Bip06 Head_blink_r_lid" 18
 29 "Bip06 bunny" 18
 30 "Bip06 bunnyL" 29
 31 "Bip06 bunnyR" 29
 32 "Bip01 L Leg" 1
 33 "Bip01 L Leg1" 32
 34 "Bip01 L Foot" 33
 35 "Bip01 R Leg" 1
 36 "Bip01 R Leg1" 35
 37 "Bip01 R Foot" 36
 38 "Bip03 HairR1" 17
 39 "Bip03 HairR2" 38
 40 "Bip03 HairL1" 17
 41 "Bip03 HairL2" 40
 42 "Bip03 swingR" 17
 43 "Bip03 swingL" 17
end
skeleton
time 0
  0   0.243428 0.429701 4.996617 -0.642486 1.558840 0.928499
  1   -1.093036 0.000002 -0.326057 -1.570756 -1.570425 -0.000171
  2   2.262337 0.113614 0.064702 -0.069357 -0.007178 -0.103504
  3   2.380047 0.353302 0.047440 0.000000 0.235301 -0.008632
  4   2.033756 0.190472 -0.000128 -0.080530 0.248249 0.041151
  5   2.451511 0.204909 -0.003447 0.000000 -0.000005 -0.017472
  6   7.247600 -0.397300 -0.109469 0.000001 0.000009 -0.505801
  7   -2.022252 -0.104661 3.136172 -0.299358 -1.361862 -2.344167
  8   1.168026 -0.537438 -0.063437 -1.165835 -0.770246 -0.313898
  9   6.790376 -0.619176 0.015206 -0.000269 -0.000285 -1.760355
 10   8.637599 0.544015 -0.090417 -1.570112 0.000292 -0.069354
 11   6.790465 -0.619039 0.017802 0.003512 -0.011879 -1.247537
 12   -2.022474 -0.104699 -2.873818 0.298298 1.361771 -2.344388
 13   1.167898 -0.537463 0.063297 -1.580822 -0.283459 -0.306034
 14   7.002743 -0.617765 -0.183752 0.000229 0.000250 -0.748902
 15   8.209042 0.615527 -0.255885 1.570090 -0.000063 -0.069646
 16   7.002735 -0.617911 -0.183641 0.014438 0.004266 -0.542811
 17   1.574674 0.609930 -0.000899 -0.903298 -0.472619 0.495233
 18   -0.602177 0.511412 -0.000006 0.000000 0.000000 0.000000
 19   3.665960 0.309837 1.146658 -0.000002 -0.000014 -0.174510
 20   3.665954 0.309810 -1.090221 0.000007 -0.000003 -0.174546
 21   2.887637 1.322821 1.549531 0.000002 -0.000011 -0.000026
 22   -0.226528 -0.758005 0.473551 0.000194 -0.057471 0.890061
 23   2.903280 1.315034 -1.584207 0.000019 0.000002 -0.000024
 24   -0.074270 -0.562670 -0.551668 0.000187 -0.057496 0.890104
 25   3.953053 2.094997 1.523858 0.102271 -0.029428 -0.168407
 26   3.902288 2.141901 -1.516125 -0.141155 -0.028485 -0.183628
 27   3.293379 1.455197 1.514501 -0.000019 -0.000022 -0.000050
 28   3.295809 1.454803 -1.501142 -0.000002 -0.000009 -0.000024
 29   8.824059 0.150544 0.091743 0.418083 -0.778078 1.149716
 30   2.111085 -0.561179 1.784320 -0.000008 -0.000682 0.000024
 31   2.121290 -0.561289 -1.853599 0.000000 0.000000 -0.000002
 32   -0.814395 -0.093824 3.127092 -0.775242 -3.115251 -0.052938
 33   14.298673 -0.408176 0.471578 -0.000088 -0.000041 -0.121826
 34   15.835795 0.581398 0.242756 -0.527225 0.078410 -0.180429
 35   -0.815868 -0.091229 -3.114430 1.493883 2.486552 -0.078722
 36   14.294526 -0.410349 -0.467541 0.000093 0.000048 -1.121210
 37   15.834409 0.579420 -0.284600 0.026456 -0.078767 -0.089805
 38   0.346692 -2.641224 -3.569930 0.689715 0.262293 -0.054373
 39   -4.457742 -1.054854 -0.746180 0.000000 0.000000 0.000000
 40   1.321232 -6.547520 0.952064 0.689715 0.262294 -0.054374
 41   -4.433840 -1.059130 0.959566 -0.000001 0.000000 0.000000
 42   -0.657468 1.697302 -2.688614 0.000000 0.000002 0.000000
 43   -0.664068 1.698578 2.869377 0.000000 0.000002 0.000000
time 1
  0   0.243428 0.429701 4.996617 -0.642486 1.558840 0.928499
  1   -1.093036 0.000002 -0.326057 -1.570756 -1.570425 -0.000171
  2   2.262337 0.113614 0.064702 -0.069357 -0.007178 -0.103504
  3   2.380047 0.353302 0.047440 0.000000 0.235301 -0.008632
  4   2.033756 0.190472 -0.000128 -0.080530 0.248249 0.041151
  5   2.451511 0.204909 -0.003447 0.000000 -0.000005 -0.017472
  6   7.247600 -0.397300 -0.109469 0.000001 0.000009 -0.505801
  7   -2.022252 -0.104661 3.136172 -0.299358 -1.361862 -2.344167
  8   1.168026 -0.537438 -0.063437 -1.165835 -0.770246 -0.313898
  9   6.790376 -0.619176 0.015206 -0.000269 -0.000285 -1.760355
 10   8.637599 0.544015 -0.090417 -1.570112 0.000292 -0.069354
 11   6.790465 -0.619039 0.017802 0.003512 -0.011879 -1.247537
 12   -2.022474 -0.104699 -2.873818 0.298298 1.361771 -2.344388
 13   1.167898 -0.537463 0.063297 -1.580822 -0.283459 -0.306034
 14   7.002743 -0.617765 -0.183752 0.000229 0.000250 -0.748902
 15   8.209042 0.615527 -0.255885 1.570090 -0.000063 -0.069646
 16   7.002735 -0.617911 -0.183641 0.014438 0.004266 -0.542811
 17   1.574674 0.609930 -0.000899 -0.903298 -0.472619 0.495233
 18   -0.602177 0.511412 -0.000006 0.000000 0.000000 0.000000
 19   3.665960 0.309837 1.146658 -0.000002 -0.000014 -0.174510
 20   3.665954 0.309810 -1.090221 0.000007 -0.000003 -0.174546
 21   2.887637 1.322821 1.549531 0.000002 -0.000011 -0.000026
 22   -0.226528 -0.758005 0.473551 0.000194 -0.057471 0.890061
 23   2.903280 1.315034 -1.584207 0.000019 0.000002 -0.000024
 24   -0.074270 -0.562670 -0.551668 0.000187 -0.057496 0.890104
 25   3.953053 2.094997 1.523858 0.102271 -0.029428 -0.168407
 26   3.902288 2.141901 -1.516125 -0.141155 -0.028485 -0.183628
 27   3.293379 1.455197 1.514501 -0.000019 -0.000022 -0.000050
 28   3.295809 1.454803 -1.501142 -0.000002 -0.000009 -0.000024
 29   8.824059 0.150544 0.091743 0.418083 -0.778078 1.149716
 30   2.111085 -0.561179 1.784320 -0.000008 -0.000682 0.000024
 31   2.121290 -0.561289 -1.853599 0.000000 0.000000 -0.000002
 32   -0.814395 -0.093824 3.127092 -0.775242 -3.115251 -0.052938
 33   14.298673 -0.408176 0.471578 -0.000088 -0.000041 -0.121826
 34   15.835795 0.581398 0.242756 -0.527225 0.078410 -0.180429
 35   -0.815868 -0.091229 -3.114430 1.493883 2.486552 -0.078722
 36   14.294526 -0.410349 -0.467541 0.000093 0.000048 -1.121210
 37   15.834409 0.579420 -0.284600 0.026456 -0.078767 -0.089805
 38   0.346692 -2.641224 -3.569930 0.689715 0.262293 -0.054373
 39   -4.457742 -1.054854 -0.746180 0.000000 0.000000 0.000000
 40   1.321232 -6.547520 0.952064 0.689715 0.262294 -0.054374
 41   -4.433840 -1.059130 0.959566 -0.000001 0.000000 0.000000
 42   -0.657468 1.697302 -2.688614 0.000000 0.000002 0.000000
 43   -0.664068 1.698578 2.869377 0.000000 0.000002 0.000000
end
