version 1
nodes
  0 "Bip01" -1
  1 "Bip01 Pelvis" 0
  2 "Bip01 Spine" 1
  3 "Bip01 Spine1" 2
  4 "Bip01 Spine2" 3
  5 "Bip01 Spine3" 4
  6 "Bip01 Neck" 5
  7 "Bip01 L Arm" 6
  8 "Bip01 L Arm1" 7
  9 "Bip01 L Arm2" 8
 10 "Bip01 L Hand" 9
 11 "Bip06 L elbow2-smooth" 8
 12 "Bip01 R Arm" 6
 13 "Bip01 R Arm1" 12
 14 "Bip01 R Arm2" 13
 15 "Bip01 R Hand" 14
 16 "Bip06 R elbow2-smooth" 13
 17 "Bip01 Head" 6
 18 "Bip06 Head_helper" 17
 19 "Bip06 Head_eyes_l" 18
 20 "Bip06 Head_eyes_r" 18
 21 "Bip06 Head_blink_l" 18
 22 "Bip06 Head_blink_smooth_l1" 21
 23 "Bip06 Head_blink_r" 18
 24 "Bip06 Head_blink_smooth_r1" 23
 25 "Bip06 Head_L_eyebrow" 18
 26 "Bip06 Head_R_eyebrow" 18
 27 "Bip06 Head_blink_l_lid" 18
 28 "Bip06 Head_blink_r_lid" 18
 29 "Bip06 bunny" 18
 30 "Bip06 bunnyL" 29
 31 "Bip06 bunnyR" 29
 32 "Bip01 L Leg" 1
 33 "Bip01 L Leg1" 32
 34 "Bip01 L Foot" 33
 35 "Bip01 R Leg" 1
 36 "Bip01 R Leg1" 35
 37 "Bip01 R Foot" 36
 38 "Bip03 HairR1" 17
 39 "Bip03 HairR2" 38
 40 "Bip03 HairL1" 17
 41 "Bip03 HairL2" 40
 42 "Bip03 swingR" 17
 43 "Bip03 swingL" 17
end
skeleton
time 0
  0   0.243428 0.429701 6.285719 -2.159783 -1.587823 0.588782
  1   -1.093036 0.000002 -0.326057 -1.570808 -1.570425 -0.000074
  2   2.262337 0.113614 0.064702 -0.069357 -0.007178 -0.103522
  3   2.380047 0.353302 0.047440 0.000000 0.095873 -0.008632
  4   2.033756 0.190472 -0.000128 -0.078852 0.135090 0.050286
  5   2.451511 0.204909 -0.003447 0.000000 -0.000005 -0.017472
  6   7.247600 -0.397300 -0.109469 0.000001 0.000009 -0.505801
  7   -2.022252 -0.104661 3.136172 -0.299358 -1.361862 -2.344167
  8   1.168026 -0.537438 -0.063437 1.196678 1.054151 1.022795
  9   6.790376 -0.619176 0.015206 -0.000269 -0.000285 -0.286702
 10   8.637599 0.544015 -0.090417 -1.570112 0.000292 -0.069354
 11   6.790465 -0.619039 0.017802 -0.002473 -0.010969 -0.215848
 12   -2.022474 -0.104699 -2.873818 0.298298 1.361771 -2.344388
 13   1.167898 -0.537463 0.063297 1.058030 -0.980675 0.241443
 14   7.002743 -0.617765 -0.183752 0.000229 0.000250 -0.713590
 15   8.209042 0.615527 -0.255885 1.570090 -0.000063 -0.069646
 16   7.002735 -0.617911 -0.183641 0.014485 0.004041 -0.518195
 17   1.574674 0.609930 -0.000899 -0.276347 0.056146 0.427705
 18   -0.602177 0.511412 -0.000006 0.000000 0.000000 0.000000
 19   3.665960 0.309837 1.146658 -0.000002 -0.000014 -0.174510
 20   3.665954 0.309810 -1.090221 0.000007 -0.000003 -0.174546
 21   2.887637 1.322821 1.549531 0.000002 -0.000011 -0.000026
 22   -0.226528 -0.758005 0.473551 0.000194 -0.057471 0.890061
 23   2.903280 1.315034 -1.584207 0.000019 0.000002 -0.000024
 24   -0.074270 -0.562670 -0.551668 0.000187 -0.057496 0.890104
 25   3.953053 2.094997 1.523858 0.102271 -0.029428 -0.168407
 26   3.902288 2.141901 -1.516125 -0.141155 -0.028485 -0.183628
 27   3.293379 1.455197 1.514501 -0.000019 -0.000022 -0.000050
 28   3.295809 1.454803 -1.501142 -0.000002 -0.000009 -0.000024
 29   8.824059 0.150544 0.091743 0.208822 0.358854 -0.566380
 30   2.173587 -0.553366 1.643691 -0.002123 0.152121 0.010167
 31   2.218949 -0.557383 -1.752033 0.000398 -0.201410 0.011279
 32   -0.814395 -0.093824 3.127092 -0.775708 -3.158230 -0.009620
 33   14.298673 -0.408176 0.471578 -0.000088 -0.000041 -0.121826
 34   15.835795 0.581398 0.242756 -0.527225 0.078190 -0.119788
 35   -0.815868 -0.091229 -3.114430 0.598863 2.861495 -0.077790
 36   14.294526 -0.410349 -0.467541 0.000093 0.000048 -0.283806
 37   15.834409 0.579420 -0.284600 0.166481 0.177801 -0.464746
 38   1.831112 -2.113864 -2.421457 0.493748 -0.208149 -0.080216
 39   -4.477274 -0.789221 -0.683678 0.010522 0.023250 -0.092806
 40   0.426674 -4.789654 2.834934 0.479603 -0.214692 -0.070259
 41   -4.293211 -0.891156 1.018162 0.001138 0.002265 -0.009227
 42   -0.563715 1.017594 -2.442513 0.206962 0.060273 0.200915
 43   -0.722664 0.257128 2.533429 0.058835 -0.168791 0.200413
time 1
  0   0.243428 0.429701 6.285719 -2.159783 -1.587823 0.588782
  1   -1.093036 0.000002 -0.326057 -1.570808 -1.570425 -0.000074
  2   2.262337 0.113614 0.064702 -0.069357 -0.007178 -0.103522
  3   2.380047 0.353302 0.047440 0.000000 0.095873 -0.008632
  4   2.033756 0.190472 -0.000128 -0.078852 0.135090 0.050286
  5   2.451511 0.204909 -0.003447 0.000000 -0.000005 -0.017472
  6   7.247600 -0.397300 -0.109469 0.000001 0.000009 -0.505801
  7   -2.022252 -0.104661 3.136172 -0.299358 -1.361862 -2.344167
  8   1.168026 -0.537438 -0.063437 1.196678 1.054151 1.022795
  9   6.790376 -0.619176 0.015206 -0.000269 -0.000285 -0.286702
 10   8.637599 0.544015 -0.090417 -1.570112 0.000292 -0.069354
 11   6.790465 -0.619039 0.017802 -0.002473 -0.010969 -0.215848
 12   -2.022474 -0.104699 -2.873818 0.298298 1.361771 -2.344388
 13   1.167898 -0.537463 0.063297 1.058030 -0.980675 0.241443
 14   7.002743 -0.617765 -0.183752 0.000229 0.000250 -0.713590
 15   8.209042 0.615527 -0.255885 1.570090 -0.000063 -0.069646
 16   7.002735 -0.617911 -0.183641 0.014485 0.004041 -0.518195
 17   1.574674 0.609930 -0.000899 -0.276347 0.056146 0.427705
 18   -0.602177 0.511412 -0.000006 0.000000 0.000000 0.000000
 19   3.665960 0.309837 1.146658 -0.000002 -0.000014 -0.174510
 20   3.665954 0.309810 -1.090221 0.000007 -0.000003 -0.174546
 21   2.887637 1.322821 1.549531 0.000002 -0.000011 -0.000026
 22   -0.226528 -0.758005 0.473551 0.000194 -0.057471 0.890061
 23   2.903280 1.315034 -1.584207 0.000019 0.000002 -0.000024
 24   -0.074270 -0.562670 -0.551668 0.000187 -0.057496 0.890104
 25   3.953053 2.094997 1.523858 0.102271 -0.029428 -0.168407
 26   3.902288 2.141901 -1.516125 -0.141155 -0.028485 -0.183628
 27   3.293379 1.455197 1.514501 -0.000019 -0.000022 -0.000050
 28   3.295809 1.454803 -1.501142 -0.000002 -0.000009 -0.000024
 29   8.824059 0.150544 0.091743 0.208822 0.358854 -0.566380
 30   2.173587 -0.553366 1.643691 -0.002123 0.152121 0.010167
 31   2.218949 -0.557383 -1.752033 0.000398 -0.201410 0.011279
 32   -0.814395 -0.093824 3.127092 -0.775708 -3.158230 -0.009620
 33   14.298673 -0.408176 0.471578 -0.000088 -0.000041 -0.121826
 34   15.835795 0.581398 0.242756 -0.527225 0.078190 -0.119788
 35   -0.815868 -0.091229 -3.114430 0.598863 2.861495 -0.077790
 36   14.294526 -0.410349 -0.467541 0.000093 0.000048 -0.283806
 37   15.834409 0.579420 -0.284600 0.166481 0.177801 -0.464746
 38   1.831112 -2.113864 -2.421457 0.493748 -0.208149 -0.080216
 39   -4.477274 -0.789221 -0.683678 0.010522 0.023250 -0.092806
 40   0.426674 -4.789654 2.834934 0.479603 -0.214692 -0.070259
 41   -4.293211 -0.891156 1.018162 0.001138 0.002265 -0.009227
 42   -0.563715 1.017594 -2.442513 0.206962 0.060273 0.200915
 43   -0.722664 0.257128 2.533429 0.058835 -0.168791 0.200413
time 2
  0   0.243428 0.429701 6.285719 -2.159783 -1.587823 0.588782
  1   -1.093036 0.000002 -0.326057 -1.570808 -1.570425 -0.000074
  2   2.262337 0.113614 0.064702 -0.069357 -0.007178 -0.103522
  3   2.380047 0.353302 0.047440 0.000000 0.095873 -0.008632
  4   2.033756 0.190472 -0.000128 -0.078852 0.135090 0.050286
  5   2.451511 0.204909 -0.003447 0.000000 -0.000005 -0.017472
  6   7.247600 -0.397300 -0.109469 0.000001 0.000009 -0.505801
  7   -2.022252 -0.104661 3.136172 -0.299358 -1.361862 -2.344167
  8   1.168026 -0.537438 -0.063437 1.196678 1.054151 1.022795
  9   6.790376 -0.619176 0.015206 -0.000269 -0.000285 -0.286702
 10   8.637599 0.544015 -0.090417 -1.570112 0.000292 -0.069354
 11   6.790465 -0.619039 0.017802 -0.002473 -0.010969 -0.215848
 12   -2.022474 -0.104699 -2.873818 0.298298 1.361771 -2.344388
 13   1.167898 -0.537463 0.063297 1.058030 -0.980675 0.241443
 14   7.002743 -0.617765 -0.183752 0.000229 0.000250 -0.713590
 15   8.209042 0.615527 -0.255885 1.570090 -0.000063 -0.069646
 16   7.002735 -0.617911 -0.183641 0.014485 0.004041 -0.518195
 17   1.574674 0.609930 -0.000899 -0.276347 0.056146 0.427705
 18   -0.602177 0.511412 -0.000006 0.000000 0.000000 0.000000
 19   3.665960 0.309837 1.146658 -0.000002 -0.000014 -0.174510
 20   3.665954 0.309810 -1.090221 0.000007 -0.000003 -0.174546
 21   2.887637 1.322821 1.549531 0.000002 -0.000011 -0.000026
 22   -0.226528 -0.758005 0.473551 0.000194 -0.057471 0.890061
 23   2.903280 1.315034 -1.584207 0.000019 0.000002 -0.000024
 24   -0.074270 -0.562670 -0.551668 0.000187 -0.057496 0.890104
 25   3.953053 2.094997 1.523858 0.102271 -0.029428 -0.168407
 26   3.902288 2.141901 -1.516125 -0.141155 -0.028485 -0.183628
 27   3.293379 1.455197 1.514501 -0.000019 -0.000022 -0.000050
 28   3.295809 1.454803 -1.501142 -0.000002 -0.000009 -0.000024
 29   8.824059 0.150544 0.091743 0.208822 0.358854 -0.566380
 30   2.173587 -0.553366 1.643691 -0.002123 0.152121 0.010167
 31   2.218949 -0.557383 -1.752033 0.000398 -0.201410 0.011279
 32   -0.814395 -0.093824 3.127092 -0.775708 -3.158230 -0.009620
 33   14.298673 -0.408176 0.471578 -0.000088 -0.000041 -0.121826
 34   15.835795 0.581398 0.242756 -0.527225 0.078190 -0.119788
 35   -0.815868 -0.091229 -3.114430 0.598863 2.861495 -0.077790
 36   14.294526 -0.410349 -0.467541 0.000093 0.000048 -0.283806
 37   15.834409 0.579420 -0.284600 0.166481 0.177801 -0.464746
 38   1.831112 -2.113864 -2.421457 0.493748 -0.208149 -0.080216
 39   -4.477274 -0.789221 -0.683678 0.010522 0.023250 -0.092806
 40   0.426674 -4.789654 2.834934 0.479603 -0.214692 -0.070259
 41   -4.293211 -0.891156 1.018162 0.001138 0.002265 -0.009227
 42   -0.563715 1.017594 -2.442513 0.206962 0.060273 0.200915
 43   -0.722664 0.257128 2.533429 0.058835 -0.168791 0.200413
end
