version 1
nodes
  0 "Bip01" -1
  1 "Bip01 Pelvis" 0
  2 "Bip01 Spine" 1
  3 "Bip01 Spine1" 2
  4 "Bip01 Spine2" 3
  5 "Bip01 Spine3" 4
  6 "Bip01 Neck" 5
  7 "Bip01 L Arm" 6
  8 "Bip01 L Arm1" 7
  9 "Bip01 L Arm2" 8
 10 "Bip01 L Hand" 9
 11 "Bip06 L elbow2-smooth" 8
 12 "Bip01 R Arm" 6
 13 "Bip01 R Arm1" 12
 14 "Bip01 R Arm2" 13
 15 "Bip01 R Hand" 14
 16 "Bip06 R elbow2-smooth" 13
 17 "Bip01 Head" 6
 18 "Bip06 Head_helper" 17
 19 "Bip06 Head_eyes_l" 18
 20 "Bip06 Head_eyes_r" 18
 21 "Bip06 Head_blink_l" 18
 22 "Bip06 Head_blink_smooth_l1" 21
 23 "Bip06 Head_blink_r" 18
 24 "Bip06 Head_blink_smooth_r1" 23
 25 "Bip06 Head_L_eyebrow" 18
 26 "Bip06 Head_R_eyebrow" 18
 27 "Bip06 Head_blink_l_lid" 18
 28 "Bip06 Head_blink_r_lid" 18
 29 "Bip06 bunny" 18
 30 "Bip06 bunnyL" 29
 31 "Bip06 bunnyR" 29
 32 "Bip01 L Leg" 1
 33 "Bip01 L Leg1" 32
 34 "Bip01 L Foot" 33
 35 "Bip01 R Leg" 1
 36 "Bip01 R Leg1" 35
 37 "Bip01 R Foot" 36
 38 "Bip03 HairR1" 17
 39 "Bip03 HairR2" 38
 40 "Bip03 HairL1" 17
 41 "Bip03 HairL2" 40
 42 "Bip03 swingR" 17
 43 "Bip03 swingL" 17
end
skeleton
time 0
  0   0.243428 0.429701 1.851990 0.000000 0.000000 -1.571164
  1   -1.093036 0.000002 -0.326057 -1.570704 -1.570425 -0.000026
  2   2.262337 0.113614 0.056889 -0.069370 -0.007214 -0.103468
  3   2.380047 0.353302 0.047440 0.000000 -0.000040 -0.008652
  4   2.033756 0.190472 -0.000128 -0.078280 0.004794 0.060507
  5   2.451511 0.204909 -0.003447 0.000000 -0.000005 -0.017472
  6   7.247600 -0.397300 -0.109469 0.000001 0.000009 0.052267
  7   -2.022252 -0.104661 3.136172 -0.330033 -1.513032 -2.604785
  8   1.168026 -0.537438 -0.063437 -0.493163 -1.192684 0.595471
  9   6.790376 -0.619176 0.015206 -0.089868 -0.937384 0.171083
 10   8.637599 0.544015 -0.090417 -1.570112 0.000221 -0.069499
 11   6.790465 -0.619039 0.017802 -0.010473 -0.035301 -0.050494
 12   -2.022474 -0.104699 -2.873818 -0.137049 1.649253 -3.387870
 13   1.167898 -0.537463 0.063297 -0.406453 1.142147 -0.643091
 14   7.002743 -0.617765 -0.183752 0.071623 0.777178 0.078957
 15   8.209042 0.615527 -0.255885 1.682978 0.000013 -0.069646
 16   7.002735 -0.617911 -0.183641 0.048662 0.002180 -0.062027
 17   1.574674 0.609930 -0.000899 0.163582 -0.016724 0.094982
 18   -0.602177 0.511412 -0.000006 0.000000 0.000000 0.000000
 19   3.646428 0.364526 1.119313 -0.000002 -0.000913 -0.174510
 20   3.646422 0.364499 -1.117566 0.000007 -0.000231 -0.174534
 21   3.805634 1.330634 1.627658 0.000026 -0.000011 -0.000026
 22   -0.246060 -0.011889 0.516521 -0.000027 0.000031 0.000025
 23   3.805651 1.330659 -1.631083 0.000031 0.000002 -0.000024
 24   -0.246150 -0.011872 -0.516511 -0.000029 -0.000006 0.000048
 25   4.941364 1.997338 1.629330 0.000018 -0.000001 -0.000024
 26   4.941382 1.997366 -1.629410 0.000011 0.000005 -0.000024
 27   2.930087 1.603639 1.514501 -0.000019 -0.000022 -0.000050
 28   2.932517 1.603245 -1.501142 -0.000002 -0.000009 -0.000024
 29   8.824059 0.150544 0.091743 0.024426 -0.110138 0.465863
 30   2.111085 -0.561179 1.784320 -0.000008 -0.000682 0.000024
 31   2.121290 -0.561289 -1.853599 0.000000 0.000000 -0.000002
 32   -0.802676 -0.093824 3.127092 0.029059 -3.178859 -0.032389
 33   14.298673 -0.408176 0.518454 0.000475 0.000722 -0.246164
 34   15.835795 0.581398 0.242756 0.003168 0.028284 0.188754
 35   -0.831494 -0.091229 -3.114430 -0.027536 3.137034 0.081065
 36   14.294526 -0.410349 -0.455822 -0.009879 0.070278 -0.001016
 37   15.834409 0.579420 -0.284600 0.263160 -0.000292 0.141447
 38   1.139685 -3.453749 -2.823813 0.000000 0.000000 0.000001
 39   -4.457742 -1.054854 -0.746180 0.000000 0.000000 0.000000
 40   1.118101 -3.449769 3.237290 0.000000 0.000001 0.000000
 41   -4.433840 -1.059130 0.959566 -0.000001 0.000000 0.000000
 42   -0.583247 1.685583 -2.411262 0.068276 0.106362 -0.010288
 43   -0.660162 1.663421 2.623276 -0.080100 -0.120587 0.020786
time 1
  0   0.243428 0.429701 1.851990 0.000000 0.000000 -1.550644
  1   -1.093036 0.000002 -0.326057 -1.570704 -1.570425 -0.000026
  2   2.262337 0.113614 0.056889 -0.069370 -0.007214 -0.103468
  3   2.380047 0.353302 0.047440 0.000000 -0.000040 -0.008652
  4   2.033756 0.190472 -0.000128 -0.078280 0.004650 0.058695
  5   2.451511 0.204909 -0.003447 0.000000 -0.000005 -0.017472
  6   7.247600 -0.397300 -0.109469 0.000001 0.000009 0.052267
  7   -2.022252 -0.104661 3.136172 -0.330033 -1.513032 -2.604785
  8   1.168026 -0.537438 -0.063437 -0.493163 -1.192684 0.595471
  9   6.790376 -0.619176 0.015206 -0.090479 -0.938318 0.171687
 10   8.637599 0.544015 -0.090417 -1.570464 -0.001398 -0.069571
 11   6.790465 -0.619039 0.017802 -0.010473 -0.035301 -0.050494
 12   -2.022474 -0.104699 -2.873818 -0.137049 1.649253 -3.387870
 13   1.167898 -0.537463 0.063297 -0.404906 1.143520 -0.641517
 14   7.002743 -0.617765 -0.183752 0.071566 0.777803 0.078792
 15   8.209042 0.615527 -0.255885 1.682978 0.001375 -0.069947
 16   7.002735 -0.617911 -0.183641 0.048662 0.002180 -0.062027
 17   1.574674 0.609930 -0.000899 0.163582 -0.016724 0.096830
 18   -0.602177 0.511412 -0.000006 0.000000 0.000000 0.000000
 19   3.646428 0.364526 1.119313 -0.000002 -0.000913 -0.174510
 20   3.646422 0.364499 -1.117566 0.000007 -0.000231 -0.174534
 21   3.805634 1.330634 1.627658 0.000026 -0.000011 -0.000026
 22   -0.246060 -0.011889 0.516521 -0.000027 0.000031 0.000025
 23   3.805651 1.330659 -1.631083 0.000031 0.000002 -0.000024
 24   -0.246150 -0.011872 -0.516511 -0.000029 -0.000006 0.000048
 25   4.941364 1.997338 1.629330 0.000018 -0.000001 -0.000024
 26   4.941382 1.997366 -1.629410 0.000011 0.000005 -0.000024
 27   2.930087 1.603639 1.514501 -0.000019 -0.000022 -0.000050
 28   2.932517 1.603245 -1.501142 -0.000002 -0.000009 -0.000024
 29   8.824059 0.150544 0.091743 0.024426 -0.110138 0.465863
 30   2.111085 -0.561179 1.784320 -0.000008 -0.000682 0.000024
 31   2.121290 -0.561289 -1.853599 0.000000 0.000000 -0.000002
 32   -0.802676 -0.093824 3.127092 0.029059 -3.178859 -0.032389
 33   14.298673 -0.408176 0.518454 -0.000304 -0.002303 -0.298884
 34   15.835795 0.581398 0.242756 0.002225 0.027211 0.157089
 35   -0.831494 -0.091229 -3.114430 -0.027536 3.137034 0.081065
 36   14.294526 -0.410349 -0.455822 -0.009879 0.070278 -0.001016
 37   15.834409 0.579420 -0.284600 0.263160 -0.000292 0.141447
 38   1.151404 -3.449842 -2.823813 0.000000 -0.005049 0.008921
 39   -4.457742 -1.054854 -0.746180 0.000000 0.000000 0.000000
 40   1.098569 -3.453675 3.237290 0.000000 -0.005048 0.008920
 41   -4.433840 -1.059130 0.959566 -0.000001 0.000000 0.000000
 42   -0.583247 1.681677 -2.383917 0.071524 0.113400 -0.007946
 43   -0.660162 1.659514 2.642807 -0.073503 -0.107061 0.024341
time 2
  0   0.243428 0.429701 1.851990 0.000000 0.000000 -1.491080
  1   -1.093036 0.000002 -0.326057 -1.570651 -1.570425 -0.000171
  2   2.262337 0.113614 0.056889 -0.069370 -0.007214 -0.103468
  3   2.380047 0.353302 0.047440 0.000000 -0.000040 -0.008652
  4   2.033756 0.190472 -0.000128 -0.078299 0.004231 0.054817
  5   2.451511 0.204909 -0.003447 0.000000 -0.000005 -0.017472
  6   7.247600 -0.397300 -0.109469 0.000001 0.000009 0.052267
  7   -2.022252 -0.104661 3.136172 -0.330033 -1.513032 -2.604785
  8   1.168026 -0.537438 -0.063437 -0.493163 -1.192684 0.595471
  9   6.790376 -0.619176 0.015206 -0.092309 -0.941055 0.173348
 10   8.637599 0.544015 -0.090417 -1.571257 -0.005903 -0.069933
 11   6.790465 -0.619039 0.017802 -0.010473 -0.035301 -0.050494
 12   -2.022474 -0.104699 -2.873818 -0.137049 1.649253 -3.387870
 13   1.167898 -0.537463 0.063297 -0.400407 1.147283 -0.636735
 14   7.002743 -0.617765 -0.183752 0.071509 0.779563 0.078544
 15   8.209042 0.615527 -0.255885 1.683050 0.005309 -0.070668
 16   7.002735 -0.617911 -0.183641 0.048662 0.002180 -0.062027
 17   1.574674 0.609930 -0.000899 0.163582 -0.016724 0.100674
 18   -0.602177 0.511412 -0.000006 0.000000 0.000000 0.000000
 19   3.646428 0.364526 1.119313 -0.000002 -0.000913 -0.174510
 20   3.646422 0.364499 -1.117566 0.000007 -0.000231 -0.174534
 21   3.805634 1.330634 1.627658 0.000026 -0.000011 -0.000026
 22   -0.246060 -0.011889 0.516521 -0.000027 0.000031 0.000025
 23   3.805651 1.330659 -1.631083 0.000031 0.000002 -0.000024
 24   -0.246150 -0.011872 -0.516511 -0.000029 -0.000006 0.000048
 25   4.941364 1.997338 1.629330 0.000018 -0.000001 -0.000024
 26   4.941382 1.997366 -1.629410 0.000011 0.000005 -0.000024
 27   2.930087 1.603639 1.514501 -0.000019 -0.000022 -0.000050
 28   2.932517 1.603245 -1.501142 -0.000002 -0.000009 -0.000024
 29   8.824059 0.150544 0.091743 0.024426 -0.110138 0.465863
 30   2.111085 -0.561179 1.784320 -0.000008 -0.000682 0.000024
 31   2.121290 -0.561289 -1.853599 0.000000 0.000000 -0.000002
 32   -0.802676 -0.093824 3.127092 0.029059 -3.178859 -0.032389
 33   14.298673 -0.408176 0.518454 -0.002281 -0.008778 -0.424730
 34   15.835795 0.581398 0.242756 -0.000029 0.024599 0.081585
 35   -0.831494 -0.091229 -3.114430 -0.027536 3.137034 0.081065
 36   14.294526 -0.410349 -0.455822 -0.009879 0.070278 -0.001016
 37   15.834409 0.579420 -0.284600 0.263160 -0.000292 0.141447
 38   1.182655 -3.430311 -2.819907 0.000000 -0.019209 0.034031
 39   -4.457742 -1.054854 -0.746180 0.000000 0.000000 0.000000
 40   1.043880 -3.469301 3.233384 0.000000 -0.019208 0.034030
 41   -4.433840 -1.059130 0.959566 -0.000001 0.000000 0.000000
 42   -0.579341 1.666051 -2.305790 0.080453 0.132841 -0.001631
 43   -0.656255 1.647795 2.697497 -0.055461 -0.070029 0.033918
time 3
  0   0.243428 0.429701 1.851990 0.000000 0.000000 -1.395226
  1   -1.093036 0.000002 -0.326057 -1.570599 -1.570425 -0.000171
  2   2.262337 0.113614 0.056889 -0.069370 -0.007214 -0.103468
  3   2.380047 0.353302 0.047440 0.000000 -0.000040 -0.008652
  4   2.033756 0.190472 -0.000128 -0.078299 0.004111 0.051627
  5   2.451511 0.204909 -0.003447 0.000000 -0.000005 -0.017472
  6   7.247600 -0.397300 -0.109469 0.000001 0.000009 0.052267
  7   -2.022252 -0.104661 3.136172 -0.330033 -1.513032 -2.604785
  8   1.168026 -0.537438 -0.063437 -0.493163 -1.192684 0.595471
  9   6.790376 -0.619176 0.015206 -0.095139 -0.945326 0.175913
 10   8.637599 0.544015 -0.090417 -1.572578 -0.012942 -0.070439
 11   6.790465 -0.619039 0.017802 -0.010473 -0.035301 -0.050494
 12   -2.022474 -0.104699 -2.873818 -0.137049 1.649253 -3.387870
 13   1.167898 -0.537463 0.063297 -0.392885 1.152928 -0.628805
 14   7.002743 -0.617765 -0.183752 0.071395 0.782289 0.078132
 15   8.209042 0.615527 -0.255885 1.683122 0.011362 -0.071751
 16   7.002735 -0.617911 -0.183641 0.048662 0.002180 -0.062027
 17   1.574674 0.609930 -0.000899 0.163582 -0.016724 0.103926
 18   -0.602177 0.511412 -0.000006 0.000000 0.000000 0.000000
 19   3.646428 0.364526 1.119313 -0.000002 -0.000913 -0.174510
 20   3.646422 0.364499 -1.117566 0.000007 -0.000231 -0.174534
 21   3.805634 1.330634 1.627658 0.000026 -0.000011 -0.000026
 22   -0.246060 -0.011889 0.516521 -0.000027 0.000031 0.000025
 23   3.805651 1.330659 -1.631083 0.000031 0.000002 -0.000024
 24   -0.246150 -0.011872 -0.516511 -0.000029 -0.000006 0.000048
 25   4.941364 1.997338 1.629330 0.000018 -0.000001 -0.000024
 26   4.941382 1.997366 -1.629410 0.000011 0.000005 -0.000024
 27   2.930087 1.603639 1.514501 -0.000019 -0.000022 -0.000050
 28   2.932517 1.603245 -1.501142 -0.000002 -0.000009 -0.000024
 29   8.824059 0.150544 0.091743 0.024426 -0.110138 0.465863
 30   2.111085 -0.561179 1.784320 -0.000008 -0.000682 0.000024
 31   2.121290 -0.561289 -1.853599 0.000000 0.000000 -0.000002
 32   -0.802676 -0.093824 3.127092 0.029059 -3.178859 -0.032389
 33   14.298673 -0.408176 0.518454 -0.004989 -0.015215 -0.575110
 34   15.835795 0.581398 0.242756 -0.002674 0.021329 -0.008473
 35   -0.831494 -0.091229 -3.114430 -0.027536 3.137034 0.081065
 36   14.294526 -0.410349 -0.455822 -0.009879 0.070278 -0.001016
 37   15.834409 0.579420 -0.284600 0.263160 -0.000292 0.141447
 38   1.237344 -3.399060 -2.812094 -0.000063 -0.040924 0.072459
 39   -4.457742 -1.054854 -0.746180 0.000000 0.000000 0.000000
 40   0.961846 -3.492739 3.221664 -0.000063 -0.040923 0.072458
 41   -4.433840 -1.059130 0.959566 -0.000001 0.000000 0.000000
 42   -0.579341 1.646519 -2.192505 0.093827 0.162111 0.007612
 43   -0.652349 1.628263 2.779531 -0.028574 -0.014764 0.048096
time 4
  0   0.243428 0.429701 1.851990 0.000000 0.000000 -1.265932
  1   -1.093036 0.000002 -0.326057 -1.570599 -1.570425 -0.000171
  2   2.262337 0.113614 0.056889 -0.069370 -0.007214 -0.103468
  3   2.380047 0.353302 0.047440 0.000000 -0.000040 -0.008652
  4   2.033756 0.190472 -0.000128 -0.078336 0.003691 0.047966
  5   2.451511 0.204909 -0.003447 0.000000 -0.000005 -0.017472
  6   7.247600 -0.397300 -0.109469 0.000001 0.000009 0.052267
  7   -2.022252 -0.104661 3.136172 -0.330033 -1.513032 -2.604785
  8   1.168026 -0.537438 -0.063437 -0.493163 -1.192684 0.595471
  9   6.790376 -0.619176 0.015206 -0.098801 -0.950799 0.179234
 10   8.637599 0.544015 -0.090417 -1.574163 -0.021952 -0.071163
 11   6.790465 -0.619039 0.017802 -0.010473 -0.035301 -0.050494
 12   -2.022474 -0.104699 -2.873818 -0.137049 1.649253 -3.387870
 13   1.167898 -0.537463 0.063297 -0.382060 1.159793 -0.617485
 14   7.002743 -0.617765 -0.183752 0.071224 0.785809 0.077554
 15   8.209042 0.615527 -0.255885 1.683194 0.019079 -0.073194
 16   7.002735 -0.617911 -0.183641 0.048662 0.002180 -0.062027
 17   1.574674 0.609930 -0.000899 0.163582 -0.016724 0.107401
 18   -0.602177 0.511412 -0.000006 0.000000 0.000000 0.000000
 19   3.646428 0.364526 1.119313 -0.000002 -0.000913 -0.174510
 20   3.646422 0.364499 -1.117566 0.000007 -0.000231 -0.174534
 21   3.805634 1.330634 1.627658 0.000026 -0.000011 -0.000026
 22   -0.246060 -0.011889 0.516521 -0.000027 0.000031 0.000025
 23   3.805651 1.330659 -1.631083 0.000031 0.000002 -0.000024
 24   -0.246150 -0.011872 -0.516511 -0.000029 -0.000006 0.000048
 25   4.941364 1.997338 1.629330 0.000018 -0.000001 -0.000024
 26   4.941382 1.997366 -1.629410 0.000011 0.000005 -0.000024
 27   2.930087 1.603639 1.514501 -0.000019 -0.000022 -0.000050
 28   2.932517 1.603245 -1.501142 -0.000002 -0.000009 -0.000024
 29   8.824059 0.150544 0.091743 0.024426 -0.110138 0.465863
 30   2.111085 -0.561179 1.784320 -0.000008 -0.000682 0.000024
 31   2.121290 -0.561289 -1.853599 0.000000 0.000000 -0.000002
 32   -0.802676 -0.093824 3.127092 0.029059 -3.178859 -0.032389
 33   14.298673 -0.408176 0.518454 -0.007698 -0.019570 -0.701115
 34   15.835795 0.581398 0.242756 -0.004905 0.018425 -0.083932
 35   -0.831494 -0.091229 -3.114430 -0.027536 3.137034 0.081065
 36   14.294526 -0.410349 -0.455822 -0.009879 0.070278 -0.001016
 37   15.834409 0.579420 -0.284600 0.263160 -0.000292 0.141447
 38   1.303753 -3.363903 -2.804281 -0.000147 -0.068676 0.121457
 39   -4.457742 -1.054854 -0.746180 0.000000 0.000000 0.000000
 40   0.860281 -3.527896 3.213852 -0.000147 -0.068675 0.121456
 41   -4.433840 -1.059130 0.959566 -0.000001 0.000000 0.000000
 42   -0.571528 1.619175 -2.059689 0.110414 0.198678 0.018904
 43   -0.644536 1.604825 2.877190 0.004535 0.053400 0.065285
time 5
  0   0.243428 0.429701 1.851990 0.000000 0.000000 -1.105859
  1   -1.093036 0.000002 -0.326057 -1.570651 -1.570425 -0.000026
  2   2.262337 0.113614 0.056889 -0.069370 -0.007214 -0.103468
  3   2.380047 0.353302 0.047440 0.000000 -0.000040 -0.008652
  4   2.033756 0.190472 -0.000128 -0.078336 0.003464 0.044377
  5   2.451511 0.204909 -0.003447 0.000000 -0.000005 -0.017472
  6   7.247600 -0.397300 -0.109469 0.000001 0.000009 0.052267
  7   -2.022252 -0.104661 3.136172 -0.330033 -1.513032 -2.604785
  8   1.168026 -0.537438 -0.063437 -0.493163 -1.192684 0.595471
  9   6.790376 -0.619176 0.015206 -0.103073 -0.957206 0.183158
 10   8.637599 0.544015 -0.090417 -1.576101 -0.032581 -0.071959
 11   6.790465 -0.619039 0.017802 -0.010473 -0.035301 -0.050494
 12   -2.022474 -0.104699 -2.873818 -0.137049 1.649253 -3.387870
 13   1.167898 -0.537463 0.063297 -0.368001 1.167167 -0.602714
 14   7.002743 -0.617765 -0.183752 0.071053 0.789955 0.076894
 15   8.209042 0.615527 -0.255885 1.683265 0.028234 -0.074818
 16   7.002735 -0.617911 -0.183641 0.048662 0.002180 -0.062027
 17   1.574674 0.609930 -0.000899 0.163582 -0.016724 0.111134
 18   -0.602177 0.511412 -0.000006 0.000000 0.000000 0.000000
 19   3.646428 0.364526 1.119313 -0.000002 -0.000913 -0.174510
 20   3.646422 0.364499 -1.117566 0.000007 -0.000231 -0.174534
 21   3.805634 1.330634 1.627658 0.000026 -0.000011 -0.000026
 22   -0.246060 -0.011889 0.516521 -0.000027 0.000031 0.000025
 23   3.805651 1.330659 -1.631083 0.000031 0.000002 -0.000024
 24   -0.246150 -0.011872 -0.516511 -0.000029 -0.000006 0.000048
 25   4.941364 1.997338 1.629330 0.000018 -0.000001 -0.000024
 26   4.941382 1.997366 -1.629410 0.000011 0.000005 -0.000024
 27   2.930087 1.603639 1.514501 -0.000019 -0.000022 -0.000050
 28   2.932517 1.603245 -1.501142 -0.000002 -0.000009 -0.000024
 29   8.824059 0.150544 0.091743 0.024426 -0.110138 0.465863
 30   2.111085 -0.561179 1.784320 -0.000008 -0.000682 0.000024
 31   2.121290 -0.561289 -1.853599 0.000000 0.000000 -0.000002
 32   -0.802676 -0.093824 3.127092 0.029059 -3.178859 -0.032389
 33   14.298673 -0.408176 0.518454 -0.008968 -0.021108 -0.753994
 34   15.835795 0.581398 0.242756 -0.005826 0.017156 -0.115554
 35   -0.831494 -0.091229 -3.114430 -0.027536 3.137034 0.081065
 36   14.294526 -0.410349 -0.455822 -0.009879 0.070278 -0.001016
 37   15.834409 0.579420 -0.284600 0.263160 -0.000292 0.141447
 38   1.385786 -3.317026 -2.792562 -0.000295 -0.100911 0.178214
 39   -4.457742 -1.054854 -0.746180 0.000000 0.000000 0.000000
 40   0.754809 -3.566960 3.198226 -0.000295 -0.100911 0.178213
 41   -4.433840 -1.059130 0.959566 -0.000001 0.000000 0.000000
 42   -0.563715 1.591830 -1.911246 0.128966 0.240014 0.031241
 43   -0.636723 1.581387 2.990474 0.041280 0.129190 0.083979
time 6
  0   0.243428 0.429701 1.851990 0.000000 0.000000 -0.917856
  1   -1.093036 0.000002 -0.326057 -1.570704 -1.570425 -0.000026
  2   2.262337 0.113614 0.056889 -0.069370 -0.007214 -0.103468
  3   2.380047 0.353302 0.047440 0.000000 -0.000040 -0.008652
  4   2.033756 0.190472 -0.000128 -0.078336 0.003224 0.040572
  5   2.451511 0.204909 -0.003447 0.000000 -0.000005 -0.017472
  6   7.247600 -0.397300 -0.109469 0.000001 0.000009 0.052267
  7   -2.022252 -0.104661 3.136172 -0.330033 -1.513032 -2.604785
  8   1.168026 -0.537438 -0.063437 -0.493163 -1.192684 0.595471
  9   6.790376 -0.619176 0.015206 -0.107788 -0.964280 0.187535
 10   8.637599 0.544015 -0.090417 -1.578214 -0.044265 -0.072827
 11   6.790465 -0.619039 0.017802 -0.010473 -0.035301 -0.050494
 12   -2.022474 -0.104699 -2.873818 -0.137049 1.649253 -3.387870
 13   1.167898 -0.537463 0.063297 -0.350708 1.174490 -0.584615
 14   7.002743 -0.617765 -0.183752 0.070883 0.794497 0.076152
 15   8.209042 0.615527 -0.255885 1.683265 0.038296 -0.076682
 16   7.002735 -0.617911 -0.183641 0.048662 0.002180 -0.062027
 17   1.574674 0.609930 -0.000899 0.163582 -0.016724 0.115089
 18   -0.602177 0.511412 -0.000006 0.000000 0.000000 0.000000
 19   3.646428 0.364526 1.119313 -0.000002 -0.000913 -0.174510
 20   3.646422 0.364499 -1.117566 0.000007 -0.000231 -0.174534
 21   3.805634 1.330634 1.627658 0.000026 -0.000011 -0.000026
 22   -0.246060 -0.011889 0.516521 -0.000027 0.000031 0.000025
 23   3.805651 1.330659 -1.631083 0.000031 0.000002 -0.000024
 24   -0.246150 -0.011872 -0.516511 -0.000029 -0.000006 0.000048
 25   4.941364 1.997338 1.629330 0.000018 -0.000001 -0.000024
 26   4.941382 1.997366 -1.629410 0.000011 0.000005 -0.000024
 27   2.930087 1.603639 1.514501 -0.000019 -0.000022 -0.000050
 28   2.932517 1.603245 -1.501142 -0.000002 -0.000009 -0.000024
 29   8.824059 0.150544 0.091743 0.027812 -0.100382 0.464951
 30   2.118898 -0.568992 1.749163 0.014122 0.051977 -0.001520
 31   2.140822 -0.561289 -1.837973 -0.010312 -0.028751 0.006075
 32   -0.802676 -0.093824 3.127092 0.029059 -3.178859 -0.032389
 33   14.298673 -0.408176 0.518454 -0.008908 -0.021044 -0.751612
 34   15.835795 0.581398 0.242756 -0.005780 0.017205 -0.114142
 35   -0.831494 -0.091229 -3.114430 -0.027536 3.137034 0.081065
 36   14.294526 -0.410349 -0.455822 -0.009879 0.070278 -0.001016
 37   15.834409 0.579420 -0.284600 0.263160 -0.000292 0.141447
 38   1.475633 -3.270150 -2.780843 -0.000526 -0.136111 0.240041
 39   -4.457742 -1.054854 -0.746180 0.000000 0.000000 0.000000
 40   0.645430 -3.613837 3.186507 -0.000526 -0.136123 0.240040
 41   -4.433840 -1.059130 0.959566 -0.000001 0.000000 0.000000
 42   -0.551996 1.564485 -1.762804 0.148261 0.283542 0.043537
 43   -0.621098 1.557949 3.107666 0.079050 0.207301 0.102674
time 7
  0   0.243428 0.429701 1.851990 0.000000 0.000000 -0.704774
  1   -1.093036 0.000002 -0.326057 -1.570704 -1.570425 -0.000026
  2   2.262337 0.113614 0.056889 -0.069370 -0.007214 -0.103468
  3   2.380047 0.353302 0.047440 0.000000 -0.000040 -0.008652
  4   2.033756 0.190472 -0.000128 -0.078372 0.002793 0.036657
  5   2.451511 0.204909 -0.003447 0.000000 -0.000005 -0.017472
  6   7.247600 -0.397300 -0.109469 0.000001 0.000009 0.052267
  7   -2.022252 -0.104661 3.136172 -0.330033 -1.513032 -2.604785
  8   1.168026 -0.537438 -0.063437 -0.493163 -1.192684 0.595471
  9   6.790376 -0.619176 0.015206 -0.112837 -0.971755 0.192139
 10   8.637599 0.544015 -0.090417 -1.580416 -0.056725 -0.073695
 11   6.790465 -0.619039 0.017802 -0.010473 -0.035301 -0.050494
 12   -2.022474 -0.104699 -2.873818 -0.137049 1.649253 -3.387870
 13   1.167898 -0.537463 0.063297 -0.330743 1.181203 -0.563730
 14   7.002743 -0.617765 -0.183752 0.070655 0.799267 0.075409
 15   8.209042 0.615527 -0.255885 1.683265 0.048964 -0.078606
 16   7.002735 -0.617911 -0.183641 0.048662 0.002180 -0.062027
 17   1.574674 0.609930 -0.000899 0.163582 -0.016724 0.118896
 18   -0.602177 0.511412 -0.000006 0.000000 0.000000 0.000000
 19   3.646428 0.364526 1.119313 -0.000002 -0.000913 -0.174510
 20   3.646422 0.364499 -1.117566 0.000007 -0.000231 -0.174534
 21   3.805634 1.330634 1.627658 0.000026 -0.000011 -0.000026
 22   -0.246060 -0.011889 0.516521 -0.000027 0.000031 0.000025
 23   3.805651 1.330659 -1.631083 0.000031 0.000002 -0.000024
 24   -0.246150 -0.011872 -0.516511 -0.000029 -0.000006 0.000048
 25   4.941364 1.997338 1.629330 0.000018 -0.000001 -0.000024
 26   4.941382 1.997366 -1.629410 0.000011 0.000005 -0.000024
 27   2.930087 1.603639 1.514501 -0.000019 -0.000022 -0.000050
 28   2.932517 1.603245 -1.501142 -0.000002 -0.000009 -0.000024
 29   8.824059 0.150544 0.091743 0.035834 -0.077095 0.462805
 30   2.146242 -0.600243 1.655410 0.051250 0.183216 -0.005251
 31   2.195511 -0.569102 -1.787191 -0.038105 -0.104072 0.022342
 32   -0.802676 -0.093824 3.127092 0.029059 -3.178859 -0.032389
 33   14.298673 -0.408176 0.518454 -0.008741 -0.020850 -0.744784
 34   15.835795 0.581398 0.242756 -0.005665 0.017376 -0.110041
 35   -0.831494 -0.091229 -3.114430 -0.027536 3.137034 0.081065
 36   14.294526 -0.410349 -0.455822 -0.009879 0.070278 -0.001016
 37   15.834409 0.579420 -0.284600 0.263160 -0.000292 0.141447
 38   1.573292 -3.219367 -2.765217 -0.000842 -0.172745 0.304129
 39   -4.457742 -1.054854 -0.746180 0.000000 0.000000 0.000000
 40   0.543865 -3.664619 3.170882 -0.000842 -0.172744 0.304128
 41   -4.433840 -1.059130 0.959566 -0.000001 0.000000 0.000000
 42   -0.536371 1.537141 -1.626081 0.167053 0.326734 0.054829
 43   -0.605472 1.534510 3.220950 0.115233 0.282432 0.119863
time 8
  0   0.243428 0.429701 1.851990 0.000000 0.000000 -0.469271
  1   -1.093036 0.000002 -0.326057 -1.570704 -1.570425 -0.000026
  2   2.262337 0.113614 0.056889 -0.069370 -0.007214 -0.103468
  3   2.380047 0.353302 0.047440 0.000000 -0.000040 -0.008652
  4   2.033756 0.190472 -0.000128 -0.078372 0.002625 0.032778
  5   2.451511 0.204909 -0.003447 0.000000 -0.000005 -0.017472
  6   7.247600 -0.397300 -0.109469 0.000001 0.000009 0.052267
  7   -2.022252 -0.104661 3.136172 -0.330033 -1.513032 -2.604785
  8   1.168026 -0.537438 -0.063437 -0.493163 -1.192684 0.595471
  9   6.790376 -0.619176 0.015206 -0.117941 -0.979364 0.196818
 10   8.637599 0.544015 -0.090417 -1.582705 -0.069324 -0.074635
 11   6.790465 -0.619039 0.017802 -0.010473 -0.035301 -0.050494
 12   -2.022474 -0.104699 -2.873818 -0.137049 1.649253 -3.387870
 13   1.167898 -0.537463 0.063297 -0.308952 1.186899 -0.541030
 14   7.002743 -0.617765 -0.183752 0.070484 0.804208 0.074584
 15   8.209042 0.615527 -0.255885 1.683194 0.059859 -0.080591
 16   7.002735 -0.617911 -0.183641 0.048662 0.002180 -0.062027
 17   1.574674 0.609930 -0.000899 0.163582 -0.016724 0.122924
 18   -0.602177 0.511412 -0.000006 0.000000 0.000000 0.000000
 19   3.646428 0.364526 1.119313 -0.000002 -0.000913 -0.174510
 20   3.646422 0.364499 -1.117566 0.000007 -0.000231 -0.174534
 21   3.805634 1.330634 1.627658 0.000026 -0.000011 -0.000026
 22   -0.246060 -0.011889 0.516521 -0.000027 0.000031 0.000025
 23   3.805651 1.330659 -1.631083 0.000031 0.000002 -0.000024
 24   -0.246150 -0.011872 -0.516511 -0.000029 -0.000006 0.000048
 25   4.941364 1.997338 1.629330 0.000018 -0.000001 -0.000024
 26   4.941382 1.997366 -1.629410 0.000011 0.000005 -0.000024
 27   2.930087 1.603639 1.514501 -0.000019 -0.000022 -0.000050
 28   2.932517 1.603245 -1.501142 -0.000002 -0.000009 -0.000024
 29   8.824059 0.150544 0.091743 0.045370 -0.049321 0.460230
 30   2.189212 -0.635400 1.526500 0.103416 0.352875 -0.009668
 31   2.269732 -0.580821 -1.712970 -0.078647 -0.209465 0.045760
 32   -0.802676 -0.093824 3.127092 0.029059 -3.178859 -0.032389
 33   14.298673 -0.408176 0.518454 -0.008477 -0.020540 -0.733827
 34   15.835795 0.581398 0.242756 -0.005481 0.017644 -0.103470
 35   -0.831494 -0.091229 -3.114430 -0.027536 3.137034 0.081065
 36   14.294526 -0.410349 -0.455822 -0.009879 0.070278 -0.001016
 37   15.834409 0.579420 -0.284600 0.263160 -0.000292 0.141447
 38   1.670951 -3.168584 -2.745686 -0.001263 -0.209270 0.367668
 39   -4.457742 -1.054854 -0.746180 0.000000 0.000000 0.000000
 40   0.461831 -3.715402 3.155256 -0.001242 -0.209270 0.367667
 41   -4.433840 -1.059130 0.959566 -0.000001 0.000000 0.000000
 42   -0.512932 1.517609 -1.516703 0.184119 0.367042 0.064114
 43   -0.585941 1.514979 3.318609 0.147205 0.349277 0.133999
time 9
  0   0.243428 0.429701 1.851990 0.000000 0.000000 -0.214294
  1   -1.093036 0.000002 -0.326057 -1.570599 -1.570425 -0.000171
  2   2.262337 0.113614 0.056889 -0.069370 -0.007214 -0.103468
  3   2.380047 0.353302 0.047440 0.000000 -0.000040 -0.008652
  4   2.033756 0.190472 -0.000128 -0.078372 0.002325 0.029045
  5   2.451511 0.204909 -0.003447 0.000000 -0.000005 -0.017472
  6   7.247600 -0.397300 -0.109469 0.000001 0.000009 0.052267
  7   -2.022252 -0.104661 3.136172 -0.330033 -1.513032 -2.604785
  8   1.168026 -0.537438 -0.063437 -0.493163 -1.192684 0.595471
  9   6.790376 -0.619176 0.015206 -0.122990 -0.986838 0.201497
 10   8.637599 0.544015 -0.090417 -1.584819 -0.081784 -0.075576
 11   6.790465 -0.619039 0.017802 -0.010473 -0.035301 -0.050494
 12   -2.022474 -0.104699 -2.873818 -0.137049 1.649253 -3.387870
 13   1.167898 -0.537463 0.063297 -0.286457 1.191323 -0.517663
 14   7.002743 -0.617765 -0.183752 0.070313 0.809034 0.073841
 15   8.209042 0.615527 -0.255885 1.683122 0.070527 -0.082515
 16   7.002735 -0.617911 -0.183641 0.048662 0.002180 -0.062027
 17   1.574674 0.609930 -0.000899 0.163582 -0.016724 0.126362
 18   -0.602177 0.511412 -0.000006 0.000000 0.000000 0.000000
 19   3.646428 0.364526 1.119313 -0.000002 -0.000913 -0.174510
 20   3.646422 0.364499 -1.117566 0.000007 -0.000231 -0.174534
 21   3.805634 1.330634 1.627658 0.000026 -0.000011 -0.000026
 22   -0.246060 -0.011889 0.516521 -0.000027 0.000031 0.000025
 23   3.805651 1.330659 -1.631083 0.000031 0.000002 -0.000024
 24   -0.246150 -0.011872 -0.516511 -0.000029 -0.000006 0.000048
 25   4.941364 1.997338 1.629330 0.000018 -0.000001 -0.000024
 26   4.941382 1.997366 -1.629410 0.000011 0.000005 -0.000024
 27   2.930087 1.603639 1.514501 -0.000019 -0.000022 -0.000050
 28   2.932517 1.603245 -1.501142 -0.000002 -0.000009 -0.000024
 29   8.824059 0.150544 0.091743 0.053391 -0.026034 0.458084
 30   2.232183 -0.666651 1.389777 0.162701 0.520703 -0.013399
 31   2.343953 -0.596446 -1.630936 -0.127233 -0.328430 0.073344
 32   -0.802676 -0.093824 3.127092 0.029059 -3.178859 -0.032389
 33   14.298673 -0.408176 0.518454 -0.008117 -0.020113 -0.719138
 34   15.835795 0.581398 0.242756 -0.005227 0.017986 -0.094693
 35   -0.831494 -0.091229 -3.114430 -0.027536 3.137034 0.081065
 36   14.294526 -0.410349 -0.455822 -0.009879 0.070278 -0.001016
 37   15.834409 0.579420 -0.284600 0.263160 -0.000292 0.141447
 38   1.772517 -3.117801 -2.726154 -0.001789 -0.244157 0.427968
 39   -4.457742 -1.054854 -0.746180 0.000000 0.000000 0.000000
 40   0.407142 -3.773998 3.135724 -0.001789 -0.244156 0.427967
 41   -4.433840 -1.059130 0.959566 -0.000001 0.000000 0.000000
 42   -0.485588 1.501984 -1.438576 0.198213 0.401923 0.070429
 43   -0.558596 1.503260 3.400643 0.172381 0.402534 0.143618
time 10
  0   0.243428 0.429701 1.851990 0.000000 0.000000 0.057453
  1   -1.093036 0.000002 -0.326057 -1.570599 -1.570425 -0.000171
  2   2.262337 0.113614 0.056889 -0.069370 -0.007214 -0.103468
  3   2.380047 0.353302 0.047440 0.000000 -0.000040 -0.008652
  4   2.033756 0.190472 -0.000128 -0.078372 0.001942 0.025638
  5   2.451511 0.204909 -0.003447 0.000000 -0.000005 -0.017472
  6   7.247600 -0.397300 -0.109469 0.000001 0.000009 0.052267
  7   -2.022252 -0.104661 3.136172 -0.330033 -1.513032 -2.604785
  8   1.168026 -0.537438 -0.063437 -0.493163 -1.192684 0.595471
  9   6.790376 -0.619176 0.015206 -0.127761 -0.993913 0.205874
 10   8.637599 0.544015 -0.090417 -1.586844 -0.093468 -0.076372
 11   6.790465 -0.619039 0.017802 -0.010473 -0.035301 -0.050494
 12   -2.022474 -0.104699 -2.873818 -0.137049 1.649253 -3.387870
 13   1.167898 -0.537463 0.063297 -0.264524 1.194476 -0.494902
 14   7.002743 -0.617765 -0.183752 0.070143 0.813577 0.073181
 15   8.209042 0.615527 -0.255885 1.682978 0.080590 -0.084319
 16   7.002735 -0.617911 -0.183641 0.048662 0.002180 -0.062027
 17   1.574674 0.609930 -0.000899 0.163582 -0.016724 0.129836
 18   -0.602177 0.511412 -0.000006 0.000000 0.000000 0.000000
 19   3.646428 0.364526 1.119313 -0.000002 -0.000913 -0.174510
 20   3.646422 0.364499 -1.117566 0.000007 -0.000231 -0.174534
 21   3.805634 1.330634 1.627658 0.000026 -0.000011 -0.000026
 22   -0.246060 -0.011889 0.516521 -0.000027 0.000031 0.000025
 23   3.805651 1.330659 -1.631083 0.000031 0.000002 -0.000024
 24   -0.246150 -0.011872 -0.516511 -0.000029 -0.000006 0.000048
 25   4.941364 1.997338 1.629330 0.000018 -0.000001 -0.000024
 26   4.941382 1.997366 -1.629410 0.000011 0.000005 -0.000024
 27   2.930087 1.603639 1.514501 -0.000019 -0.000022 -0.000050
 28   2.932517 1.603245 -1.501142 -0.000002 -0.000009 -0.000024
 29   8.824059 0.150544 0.091743 0.056778 -0.016278 0.457172
 30   2.275152 -0.686183 1.264773 0.221159 0.646566 -0.014943
 31   2.398642 -0.612072 -1.541089 -0.179128 -0.444494 0.102038
 32   -0.802676 -0.093824 3.127092 0.029059 -3.178859 -0.032389
 33   14.298673 -0.408176 0.518454 -0.007698 -0.019570 -0.701115
 34   15.835795 0.581398 0.242756 -0.004905 0.018425 -0.083932
 35   -0.831494 -0.091229 -3.114430 -0.027536 3.137034 0.081065
 36   14.294526 -0.410349 -0.455822 -0.009879 0.070278 -0.001016
 37   15.834409 0.579420 -0.284600 0.263160 -0.000292 0.141447
 38   1.870176 -3.074831 -2.706622 -0.002463 -0.275874 0.482220
 39   -4.457742 -1.054854 -0.746180 0.000000 0.000000 0.000000
 40   0.387610 -3.828687 3.120099 -0.002463 -0.275873 0.482219
 41   -4.433840 -1.059130 0.959566 -0.000001 0.000000 0.000000
 42   -0.454337 1.498077 -1.411231 0.208112 0.428831 0.072771
 43   -0.531251 1.499353 3.451426 0.188148 0.436914 0.147173
time 11
  0   0.243428 0.429701 1.851990 0.000000 0.000000 0.343210
  1   -1.093036 0.000002 -0.326057 -1.570599 -1.570425 -0.000171
  2   2.262337 0.113614 0.056889 -0.069370 -0.007214 -0.103468
  3   2.380047 0.353302 0.047440 0.000000 -0.000040 -0.008652
  4   2.033756 0.190472 -0.000128 -0.078409 0.001834 0.022629
  5   2.451511 0.204909 -0.003447 0.000000 -0.000005 -0.017472
  6   7.247600 -0.397300 -0.109469 0.000001 0.000009 0.052267
  7   -2.022252 -0.104661 3.136172 -0.330033 -1.513032 -2.604785
  8   1.168026 -0.537438 -0.063437 -0.493163 -1.192684 0.595471
  9   6.790376 -0.619176 0.015206 -0.132088 -1.000320 0.209798
 10   8.637599 0.544015 -0.090417 -1.588694 -0.104097 -0.077167
 11   6.790465 -0.619039 0.017802 -0.010473 -0.035301 -0.050494
 12   -2.022474 -0.104699 -2.873818 -0.137049 1.649253 -3.387870
 13   1.167898 -0.537463 0.063297 -0.244490 1.196460 -0.474078
 14   7.002743 -0.617765 -0.183752 0.069972 0.817666 0.072521
 15   8.209042 0.615527 -0.255885 1.682834 0.089745 -0.086003
 16   7.002735 -0.617911 -0.183641 0.048662 0.002180 -0.062027
 17   1.574674 0.609930 -0.000899 0.163582 -0.016724 0.132423
 18   -0.602177 0.511412 -0.000006 0.000000 0.000000 0.000000
 19   3.646428 0.364526 1.119313 -0.000002 -0.000913 -0.174510
 20   3.646422 0.364499 -1.117566 0.000007 -0.000231 -0.174534
 21   3.805634 1.330634 1.627658 0.000026 -0.000011 -0.000026
 22   -0.246060 -0.011889 0.516521 -0.000027 0.000031 0.000025
 23   3.805651 1.330659 -1.631083 0.000031 0.000002 -0.000024
 24   -0.246150 -0.011872 -0.516511 -0.000029 -0.000006 0.000048
 25   4.941364 1.997338 1.629330 0.000018 -0.000001 -0.000024
 26   4.941382 1.997366 -1.629410 0.000011 0.000005 -0.000024
 27   2.930087 1.603639 1.514501 -0.000019 -0.000022 -0.000050
 28   2.932517 1.603245 -1.501142 -0.000002 -0.000009 -0.000024
 29   8.824059 0.150544 0.091743 0.056778 -0.016278 0.457172
 30   2.314216 -0.693996 1.163207 0.272281 0.729216 -0.009561
 31   2.437706 -0.627697 -1.455149 -0.230257 -0.544215 0.129350
 32   -0.802676 -0.093824 3.127092 0.029059 -3.178859 -0.032389
 33   14.298673 -0.408176 0.518454 -0.007219 -0.018911 -0.680233
 34   15.835795 0.581398 0.242756 -0.004537 0.018913 -0.071407
 35   -0.831494 -0.091229 -3.114430 -0.027536 3.137034 0.081065
 36   14.294526 -0.410349 -0.455822 -0.009879 0.070278 -0.001016
 37   15.834409 0.579420 -0.284600 0.263160 -0.000292 0.141447
 38   1.963929 -3.035768 -2.687090 -0.003810 -0.303192 0.528224
 39   -4.457742 -1.054854 -0.746180 0.000000 0.000000 0.000000
 40   0.387610 -3.887282 3.108380 -0.003810 -0.303192 0.528223
 41   -4.433840 -1.059130 0.959566 -0.000001 0.000000 0.000000
 42   -0.411367 1.501984 -1.411231 0.214776 0.448764 0.067585
 43   -0.496094 1.518885 3.478770 0.197344 0.457846 0.135881
time 12
  0   0.243428 0.429701 1.851990 0.000000 0.000000 0.639987
  1   -1.093036 0.000002 -0.326057 -1.570599 -1.570425 -0.000171
  2   2.262337 0.113614 0.056889 -0.069370 -0.007214 -0.103468
  3   2.380047 0.353302 0.047440 0.000000 -0.000040 -0.008652
  4   2.033756 0.190472 -0.000128 -0.078409 0.001630 0.020128
  5   2.451511 0.204909 -0.003447 0.000000 -0.000005 -0.017472
  6   7.247600 -0.397300 -0.109469 0.000001 0.000009 0.052267
  7   -2.022252 -0.104661 3.136172 -0.330033 -1.513032 -2.604785
  8   1.168026 -0.537438 -0.063437 -0.493163 -1.192684 0.595471
  9   6.790376 -0.619176 0.015206 -0.135806 -1.005793 0.213194
 10   8.637599 0.544015 -0.090417 -1.590191 -0.113178 -0.077818
 11   6.790465 -0.619039 0.017802 -0.010473 -0.035301 -0.050494
 12   -2.022474 -0.104699 -2.873818 -0.137049 1.649253 -3.387870
 13   1.167898 -0.537463 0.063297 -0.227408 1.197477 -0.456462
 14   7.002743 -0.617765 -0.183752 0.069858 0.821186 0.071944
 15   8.209042 0.615527 -0.255885 1.682690 0.097462 -0.087386
 16   7.002735 -0.617911 -0.183641 0.048662 0.002180 -0.062027
 17   1.574674 0.609930 -0.000899 0.163582 -0.016724 0.134863
 18   -0.602177 0.511412 -0.000006 0.000000 0.000000 0.000000
 19   3.646428 0.364526 1.119313 -0.000002 -0.000913 -0.174510
 20   3.646422 0.364499 -1.117566 0.000007 -0.000231 -0.174534
 21   3.805634 1.330634 1.627658 0.000026 -0.000011 -0.000026
 22   -0.246060 -0.011889 0.516521 -0.000027 0.000031 0.000025
 23   3.805651 1.330659 -1.631083 0.000031 0.000002 -0.000024
 24   -0.246150 -0.011872 -0.516511 -0.000029 -0.000006 0.000048
 25   4.941364 1.997338 1.629330 0.000018 -0.000001 -0.000024
 26   4.941382 1.997366 -1.629410 0.000011 0.000005 -0.000024
 27   2.930087 1.603639 1.514501 -0.000019 -0.000022 -0.000050
 28   2.932517 1.603245 -1.501142 -0.000002 -0.000009 -0.000024
 29   8.824059 0.150544 0.091743 0.056778 -0.016278 0.457172
 30   2.345467 -0.701808 1.081174 0.315280 0.795388 0.005020
 31   2.468957 -0.643323 -1.377022 -0.279226 -0.626219 0.154605
 32   -0.802676 -0.093824 3.127092 0.029059 -3.178859 -0.032389
 33   14.298673 -0.408176 0.518454 -0.006691 -0.018136 -0.656731
 34   15.835795 0.581398 0.242756 -0.004123 0.019450 -0.057338
 35   -0.831494 -0.091229 -3.114430 -0.027536 3.137034 0.081065
 36   14.294526 -0.410349 -0.455822 -0.009879 0.070278 -0.001016
 37   15.834409 0.579420 -0.284600 0.263160 -0.000292 0.141447
 38   2.053775 -3.000610 -2.667558 -0.006231 -0.326161 0.566164
 39   -4.457742 -1.054854 -0.746180 0.000000 0.000000 0.000000
 40   0.387610 -3.941972 3.092754 -0.006231 -0.326160 0.566163
 41   -4.433840 -1.059130 0.959566 -0.000001 0.000000 0.000000
 42   -0.364490 1.509796 -1.411231 0.220121 0.464724 0.053491
 43   -0.457030 1.573574 3.506115 0.204703 0.474605 0.105351
time 13
  0   0.243428 0.429701 1.851990 0.000000 0.000000 0.945218
  1   -1.093036 0.000002 -0.326057 -1.570704 -1.570425 -0.000026
  2   2.262337 0.113614 0.056889 -0.069370 -0.007214 -0.103468
  3   2.380047 0.353302 0.047440 0.000000 -0.000040 -0.008652
  4   2.033756 0.190472 -0.000128 -0.078409 0.001354 0.018533
  5   2.451511 0.204909 -0.003447 0.000000 -0.000005 -0.017472
  6   7.247600 -0.397300 -0.109469 0.000001 0.000009 0.052267
  7   -2.022252 -0.104661 3.136172 -0.330033 -1.513032 -2.604785
  8   1.168026 -0.537438 -0.063437 -0.493163 -1.192684 0.595471
  9   6.790376 -0.619176 0.015206 -0.138635 -1.009997 0.215836
 10   8.637599 0.544015 -0.090417 -1.591424 -0.120146 -0.078325
 11   6.790465 -0.619039 0.017802 -0.010473 -0.035301 -0.050494
 12   -2.022474 -0.104699 -2.873818 -0.137049 1.649253 -3.387870
 13   1.167898 -0.537463 0.063297 -0.214263 1.197883 -0.442903
 14   7.002743 -0.617765 -0.183752 0.069744 0.823912 0.071531
 15   8.209042 0.615527 -0.255885 1.682546 0.103515 -0.088469
 16   7.002735 -0.617911 -0.183641 0.048662 0.002180 -0.062027
 17   1.574674 0.609930 -0.000899 0.163582 -0.016724 0.136785
 18   -0.602177 0.511412 -0.000006 0.000000 0.000000 0.000000
 19   3.646428 0.364526 1.119313 -0.000002 -0.000913 -0.174510
 20   3.646422 0.364499 -1.117566 0.000007 -0.000231 -0.174534
 21   3.805634 1.330634 1.627658 0.000026 -0.000011 -0.000026
 22   -0.246060 -0.011889 0.516521 -0.000027 0.000031 0.000025
 23   3.805651 1.330659 -1.631083 0.000031 0.000002 -0.000024
 24   -0.246150 -0.011872 -0.516511 -0.000029 -0.000006 0.000048
 25   4.941364 1.997338 1.629330 0.000018 -0.000001 -0.000024
 26   4.941382 1.997366 -1.629410 0.000011 0.000005 -0.000024
 27   2.930087 1.603639 1.514501 -0.000019 -0.000022 -0.000050
 28   2.932517 1.603245 -1.501142 -0.000002 -0.000009 -0.000024
 29   8.824059 0.150544 0.091743 0.056778 -0.016278 0.457172
 30   2.372812 -0.705715 1.018672 0.350808 0.846942 0.026549
 31   2.492395 -0.658948 -1.302801 -0.325268 -0.692216 0.177604
 32   -0.802676 -0.093824 3.127092 0.029059 -3.178859 -0.032389
 33   14.298673 -0.408176 0.518454 -0.006140 -0.017270 -0.631165
 34   15.835795 0.581398 0.242756 -0.003663 0.020060 -0.042035
 35   -0.831494 -0.091229 -3.114430 -0.027536 3.137034 0.081065
 36   14.294526 -0.410349 -0.455822 -0.009879 0.070278 -0.001016
 37   15.834409 0.579420 -0.284600 0.263160 -0.000292 0.141447
 38   2.131903 -2.973266 -2.644120 -0.009430 -0.345116 0.596772
 39   -4.457742 -1.054854 -0.746180 0.000000 0.000000 0.000000
 40   0.387610 -3.992754 3.081035 -0.009430 -0.345104 0.596771
 41   -4.433840 -1.059130 0.959566 -0.000001 0.000000 0.000000
 42   -0.313708 1.521515 -1.411231 0.224280 0.477159 0.032747
 43   -0.414060 1.655608 3.521740 0.210438 0.487660 0.060308
time 14
  0   0.243428 0.429701 1.851990 0.000000 0.000000 1.256055
  1   -1.093036 0.000002 -0.326057 -1.570599 -1.570425 -0.000171
  2   2.262337 0.113614 0.056889 -0.069370 -0.007214 -0.103468
  3   2.380047 0.353302 0.047440 0.000000 -0.000040 -0.008652
  4   2.033756 0.190472 -0.000128 -0.078409 0.001282 0.017373
  5   2.451511 0.204909 -0.003447 0.000000 -0.000005 -0.017472
  6   7.247600 -0.397300 -0.109469 0.000001 0.000009 0.052267
  7   -2.022252 -0.104661 3.136172 -0.330033 -1.513032 -2.604785
  8   1.168026 -0.537438 -0.063437 -0.493163 -1.192684 0.595471
  9   6.790376 -0.619176 0.015206 -0.140521 -1.012734 0.217571
 10   8.637599 0.544015 -0.090417 -1.592128 -0.124722 -0.078614
 11   6.790465 -0.619039 0.017802 -0.010473 -0.035301 -0.050494
 12   -2.022474 -0.104699 -2.873818 -0.137049 1.649253 -3.387870
 13   1.167898 -0.537463 0.063297 -0.205897 1.197985 -0.434246
 14   7.002743 -0.617765 -0.183752 0.069687 0.825672 0.071284
 15   8.209042 0.615527 -0.255885 1.682475 0.107449 -0.089191
 16   7.002735 -0.617911 -0.183641 0.048662 0.002180 -0.062027
 17   1.574674 0.609930 -0.000899 0.163582 -0.016724 0.137857
 18   -0.602177 0.511412 -0.000006 0.000000 0.000000 0.000000
 19   3.646428 0.364526 1.119313 -0.000002 -0.000913 -0.174510
 20   3.646422 0.364499 -1.117566 0.000007 -0.000231 -0.174534
 21   3.805634 1.330634 1.627658 0.000026 -0.000011 -0.000026
 22   -0.246060 -0.011889 0.516521 -0.000027 0.000031 0.000025
 23   3.805651 1.330659 -1.631083 0.000031 0.000002 -0.000024
 24   -0.246150 -0.011872 -0.516511 -0.000029 -0.000006 0.000048
 25   4.941364 1.997338 1.629330 0.000018 -0.000001 -0.000024
 26   4.941382 1.997366 -1.629410 0.000011 0.000005 -0.000024
 27   2.930087 1.603639 1.514501 -0.000019 -0.000022 -0.000050
 28   2.932517 1.603245 -1.501142 -0.000002 -0.000009 -0.000024
 29   8.824059 0.150544 0.091743 0.056778 -0.016278 0.457172
 30   2.392344 -0.709621 0.971795 0.379488 0.885681 0.052688
 31   2.511927 -0.674574 -1.240299 -0.367633 -0.743915 0.198147
 32   -0.802676 -0.093824 3.127092 0.029059 -3.178859 -0.032389
 33   14.298673 -0.408176 0.518454 -0.005565 -0.016287 -0.603773
 34   15.835795 0.581398 0.242756 -0.003180 0.020670 -0.025629
 35   -0.831494 -0.091229 -3.114430 -0.027536 3.137034 0.081065
 36   14.294526 -0.410349 -0.455822 -0.009879 0.070278 -0.001016
 37   15.834409 0.579420 -0.284600 0.263160 -0.000292 0.141447
 38   2.202218 -2.949827 -2.624588 -0.013114 -0.360408 0.620843
 39   -4.457742 -1.054854 -0.746180 0.000000 0.000000 0.000000
 40   0.391516 -4.043537 3.069316 -0.013114 -0.360408 0.620842
 41   -4.433840 -1.059130 0.959566 -0.000001 0.000000 0.000000
 42   -0.266831 1.533234 -1.411231 0.227408 0.486496 0.007570
 43   -0.374997 1.749361 3.537366 0.214761 0.497467 0.005604
time 15
  0   0.243428 0.429701 1.851990 0.000000 0.000000 1.569646
  1   -1.093036 0.000002 -0.326057 -1.570599 -1.570425 -0.000171
  2   2.262337 0.113614 0.056889 -0.069370 -0.007214 -0.103468
  3   2.380047 0.353302 0.047440 0.000000 -0.000040 -0.008652
  4   2.033756 0.190472 -0.000128 -0.078409 0.001258 0.016902
  5   2.451511 0.204909 -0.003447 0.000000 -0.000005 -0.017472
  6   7.247600 -0.397300 -0.109469 0.000001 0.000009 0.052267
  7   -2.022252 -0.104661 3.136172 -0.330033 -1.513032 -2.604785
  8   1.168026 -0.537438 -0.063437 -0.493163 -1.192684 0.595471
  9   6.790376 -0.619176 0.015206 -0.141187 -1.013735 0.218175
 10   8.637599 0.544015 -0.090417 -1.592393 -0.126341 -0.078759
 11   6.790465 -0.619039 0.017802 -0.010473 -0.035301 -0.050494
 12   -2.022474 -0.104699 -2.873818 -0.137049 1.649253 -3.387870
 13   1.167898 -0.537463 0.063297 -0.202945 1.197934 -0.431219
 14   7.002743 -0.617765 -0.183752 0.069687 0.826297 0.071201
 15   8.209042 0.615527 -0.255885 1.682403 0.108811 -0.089431
 16   7.002735 -0.617911 -0.183641 0.048662 0.002180 -0.062027
 17   1.574674 0.609930 -0.000899 0.163582 -0.016724 0.138115
 18   -0.602177 0.511412 -0.000006 0.000000 0.000000 0.000000
 19   3.646428 0.364526 1.119313 -0.000002 -0.000913 -0.174510
 20   3.646422 0.364499 -1.117566 0.000007 -0.000231 -0.174534
 21   3.805634 1.330634 1.627658 0.000026 -0.000011 -0.000026
 22   -0.246060 -0.011889 0.516521 -0.000027 0.000031 0.000025
 23   3.805651 1.330659 -1.631083 0.000031 0.000002 -0.000024
 24   -0.246150 -0.011872 -0.516511 -0.000029 -0.000006 0.000048
 25   4.941364 1.997338 1.629330 0.000018 -0.000001 -0.000024
 26   4.941382 1.997366 -1.629410 0.000011 0.000005 -0.000024
 27   2.930087 1.603639 1.514501 -0.000019 -0.000022 -0.000050
 28   2.932517 1.603245 -1.501142 -0.000002 -0.000009 -0.000024
 29   8.824059 0.150544 0.091743 0.056778 -0.016278 0.457172
 30   2.407969 -0.713527 0.936638 0.401998 0.913405 0.081122
 31   2.523646 -0.686293 -1.181703 -0.405555 -0.783000 0.216069
 32   -0.802676 -0.093824 3.127092 0.029059 -3.178859 -0.032389
 33   14.298673 -0.408176 0.518454 -0.004989 -0.015215 -0.575110
 34   15.835795 0.581398 0.242756 -0.002674 0.021329 -0.008473
 35   -0.831494 -0.091229 -3.114430 -0.027536 3.137034 0.081065
 36   14.294526 -0.410349 -0.455822 -0.009879 0.070278 -0.001016
 37   15.834409 0.579420 -0.284600 0.263160 -0.000292 0.141447
 38   2.268626 -2.930295 -2.605056 -0.016987 -0.372387 0.639110
 39   -4.457742 -1.054854 -0.746180 0.000000 0.000000 0.000000
 40   0.395423 -4.090414 3.057597 -0.016987 -0.372387 0.639110
 41   -4.433840 -1.059130 0.959566 -0.000001 0.000000 0.000000
 42   -0.216048 1.552766 -1.415138 0.229637 0.493197 -0.019824
 43   -0.335933 1.858739 3.549085 0.217847 0.504497 -0.053825
time 16
  0   0.243428 0.429701 1.851990 0.000000 0.000000 1.883238
  1   -1.093036 0.000002 -0.326057 -1.570599 -1.570425 -0.000171
  2   2.262337 0.113614 0.056889 -0.069370 -0.007214 -0.103468
  3   2.380047 0.353302 0.047440 0.000000 -0.000040 -0.008652
  4   2.033756 0.190472 -0.000128 -0.078409 0.001306 0.017591
  5   2.451511 0.204909 -0.003447 0.000000 -0.000005 -0.017472
  6   7.247600 -0.397300 -0.109469 0.000001 0.000009 0.052267
  7   -2.022252 -0.104661 3.136172 -0.330033 -1.513032 -2.604785
  8   1.168026 -0.537438 -0.063437 -0.493163 -1.192684 0.595471
  9   6.790376 -0.619176 0.015206 -0.140521 -1.012734 0.217571
 10   8.637599 0.544015 -0.090417 -1.592128 -0.124722 -0.078614
 11   6.790465 -0.619039 0.017802 -0.010473 -0.035301 -0.050494
 12   -2.022474 -0.104699 -2.873818 -0.137049 1.649253 -3.387870
 13   1.167898 -0.537463 0.063297 -0.205897 1.197985 -0.434246
 14   7.002743 -0.617765 -0.183752 0.069687 0.825672 0.071284
 15   8.209042 0.615527 -0.255885 1.682475 0.107449 -0.089191
 16   7.002735 -0.617911 -0.183641 0.048662 0.002180 -0.062027
 17   1.574674 0.609930 -0.000899 0.163582 -0.016724 0.137561
 18   -0.602177 0.511412 -0.000006 0.000000 0.000000 0.000000
 19   3.646428 0.364526 1.119313 -0.000002 -0.000913 -0.174510
 20   3.646422 0.364499 -1.117566 0.000007 -0.000231 -0.174534
 21   3.805634 1.330634 1.627658 0.000026 -0.000011 -0.000026
 22   -0.246060 -0.011889 0.516521 -0.000027 0.000031 0.000025
 23   3.805651 1.330659 -1.631083 0.000031 0.000002 -0.000024
 24   -0.246150 -0.011872 -0.516511 -0.000029 -0.000006 0.000048
 25   4.941364 1.997338 1.629330 0.000018 -0.000001 -0.000024
 26   4.941382 1.997366 -1.629410 0.000011 0.000005 -0.000024
 27   2.930087 1.603639 1.514501 -0.000019 -0.000022 -0.000050
 28   2.932517 1.603245 -1.501142 -0.000002 -0.000009 -0.000024
 29   8.824059 0.150544 0.091743 0.056778 -0.016278 0.457172
 30   2.423594 -0.717434 0.917106 0.418948 0.932033 0.109556
 31   2.535365 -0.698012 -1.134827 -0.438282 -0.811181 0.231153
 32   -0.802676 -0.093824 3.127092 0.029059 -3.178859 -0.032389
 33   14.298673 -0.408176 0.518454 -0.004414 -0.014051 -0.545415
 34   15.835795 0.581398 0.242756 -0.002145 0.022013 0.009345
 35   -0.831494 -0.091229 -3.114430 -0.027536 3.137034 0.081065
 36   14.294526 -0.410349 -0.455822 -0.009879 0.070278 -0.001016
 37   15.834409 0.579420 -0.284600 0.263160 -0.000292 0.141447
 38   2.319408 -2.918576 -2.589431 -0.020796 -0.381413 0.652429
 39   -4.457742 -1.054854 -0.746180 0.000000 0.000000 0.000000
 40   0.403235 -4.129478 3.049784 -0.020796 -0.381412 0.652428
 41   -4.433840 -1.059130 0.959566 -0.000001 0.000000 0.000000
 42   -0.173078 1.568392 -1.415138 0.231147 0.497674 -0.047217
 43   -0.296869 1.968117 3.556898 0.219908 0.509205 -0.113339
time 17
  0   0.243428 0.429701 1.851990 0.000000 0.000000 2.194074
  1   -1.093036 0.000002 -0.326057 -1.570704 -1.570425 -0.000026
  2   2.262337 0.113614 0.056889 -0.069370 -0.007214 -0.103468
  3   2.380047 0.353302 0.047440 0.000000 -0.000040 -0.008652
  4   2.033756 0.190472 -0.000128 -0.078409 0.001522 0.018787
  5   2.451511 0.204909 -0.003447 0.000000 -0.000005 -0.017472
  6   7.247600 -0.397300 -0.109469 0.000001 0.000009 0.052267
  7   -2.022252 -0.104661 3.136172 -0.330033 -1.513032 -2.604785
  8   1.168026 -0.537438 -0.063437 -0.493163 -1.192684 0.595471
  9   6.790376 -0.619176 0.015206 -0.138635 -1.009997 0.215836
 10   8.637599 0.544015 -0.090417 -1.591424 -0.120146 -0.078325
 11   6.790465 -0.619039 0.017802 -0.010473 -0.035301 -0.050494
 12   -2.022474 -0.104699 -2.873818 -0.137049 1.649253 -3.387870
 13   1.167898 -0.537463 0.063297 -0.214263 1.197883 -0.442903
 14   7.002743 -0.617765 -0.183752 0.069744 0.823912 0.071531
 15   8.209042 0.615527 -0.255885 1.682546 0.103515 -0.088469
 16   7.002735 -0.617911 -0.183641 0.048662 0.002180 -0.062027
 17   1.574674 0.609930 -0.000899 0.163582 -0.016724 0.136415
 18   -0.602177 0.511412 -0.000006 0.000000 0.000000 0.000000
 19   3.646428 0.364526 1.119313 -0.000002 -0.000913 -0.174510
 20   3.646422 0.364499 -1.117566 0.000007 -0.000231 -0.174534
 21   3.805634 1.330634 1.627658 0.000026 -0.000011 -0.000026
 22   -0.246060 -0.011889 0.516521 -0.000027 0.000031 0.000025
 23   3.805651 1.330659 -1.631083 0.000031 0.000002 -0.000024
 24   -0.246150 -0.011872 -0.516511 -0.000029 -0.000006 0.000048
 25   4.941364 1.997338 1.629330 0.000018 -0.000001 -0.000024
 26   4.941382 1.997366 -1.629410 0.000011 0.000005 -0.000024
 27   2.930087 1.603639 1.514501 -0.000019 -0.000022 -0.000050
 28   2.932517 1.603245 -1.501142 -0.000002 -0.000009 -0.000024
 29   8.824059 0.150544 0.091743 0.056778 -0.016278 0.457172
 30   2.431407 -0.717434 0.901481 0.431016 0.943309 0.135695
 31   2.539271 -0.705825 -1.095763 -0.465049 -0.830167 0.243217
 32   -0.802676 -0.093824 3.127092 0.029059 -3.178859 -0.032389
 33   14.298673 -0.408176 0.518454 -0.003851 -0.012811 -0.515164
 34   15.835795 0.581398 0.242756 -0.001616 0.022672 0.027471
 35   -0.831494 -0.091229 -3.114430 -0.027536 3.137034 0.081065
 36   14.294526 -0.410349 -0.455822 -0.009879 0.070278 -0.001016
 37   15.834409 0.579420 -0.284600 0.263160 -0.000292 0.141447
 38   2.362379 -2.906857 -2.573805 -0.024270 -0.387823 0.661410
 39   -4.457742 -1.054854 -0.746180 0.000000 0.000000 0.000000
 40   0.414955 -4.160728 3.045878 -0.024270 -0.387823 0.661409
 41   -4.433840 -1.059130 0.959566 -0.000001 0.000000 0.000000
 42   -0.134015 1.587924 -1.415138 0.232058 0.500403 -0.072436
 43   -0.269525 2.065777 3.560804 0.221170 0.512076 -0.168042
time 18
  0   0.243428 0.429701 1.851990 0.000000 0.000000 2.499306
  1   -1.093036 0.000002 -0.326057 -1.570599 -1.570425 -0.000171
  2   2.262337 0.113614 0.056889 -0.069370 -0.007214 -0.103468
  3   2.380047 0.353302 0.047440 0.000000 -0.000040 -0.008652
  4   2.033756 0.190472 -0.000128 -0.078409 0.001678 0.020672
  5   2.451511 0.204909 -0.003447 0.000000 -0.000005 -0.017472
  6   7.247600 -0.397300 -0.109469 0.000001 0.000009 0.052267
  7   -2.022252 -0.104661 3.136172 -0.330033 -1.513032 -2.604785
  8   1.168026 -0.537438 -0.063437 -0.493163 -1.192684 0.595471
  9   6.790376 -0.619176 0.015206 -0.135806 -1.005793 0.213194
 10   8.637599 0.544015 -0.090417 -1.590191 -0.113178 -0.077818
 11   6.790465 -0.619039 0.017802 -0.010473 -0.035301 -0.050494
 12   -2.022474 -0.104699 -2.873818 -0.137049 1.649253 -3.387870
 13   1.167898 -0.537463 0.063297 -0.227408 1.197477 -0.456462
 14   7.002743 -0.617765 -0.183752 0.069858 0.821186 0.071944
 15   8.209042 0.615527 -0.255885 1.682690 0.097462 -0.087386
 16   7.002735 -0.617911 -0.183641 0.048662 0.002180 -0.062027
 17   1.574674 0.609930 -0.000899 0.163582 -0.016724 0.134419
 18   -0.602177 0.511412 -0.000006 0.000000 0.000000 0.000000
 19   3.646428 0.364526 1.119313 -0.000002 -0.000913 -0.174510
 20   3.654235 0.317623 -1.117566 0.000007 -0.000183 -0.174534
 21   3.805634 1.330634 1.627658 0.008271 0.087369 -0.003674
 22   -0.246060 -0.011889 0.516521 -0.000027 0.000031 0.000025
 23   3.575175 1.295502 -1.627177 0.000031 0.000002 -0.000024
 24   -0.203180 -0.152501 -0.524324 0.000019 -0.014903 0.230806
 25   4.847611 2.083278 1.594173 0.010756 0.114354 -0.004267
 26   4.730438 1.997366 -1.625504 0.018551 -0.105959 -0.010822
 27   2.930087 1.603639 1.514501 -0.000019 -0.000022 -0.000050
 28   3.030176 1.532930 -1.505048 -0.000002 -0.000009 -0.000024
 29   8.824059 0.150544 0.091743 0.056778 -0.016278 0.457172
 30   2.435314 -0.717434 0.893668 0.438827 0.949092 0.157202
 31   2.543178 -0.713637 -1.064512 -0.485106 -0.841615 0.252078
 32   -0.802676 -0.093824 3.127092 0.029059 -3.178859 -0.032389
 33   14.298673 -0.408176 0.518454 -0.003312 -0.011505 -0.484676
 34   15.835795 0.581398 0.242756 -0.001064 0.023331 0.045729
 35   -0.831494 -0.091229 -3.114430 -0.027536 3.137034 0.081065
 36   14.294526 -0.410349 -0.455822 -0.009879 0.070278 -0.001016
 37   15.834409 0.579420 -0.284600 0.263160 -0.000292 0.141447
 38   2.393630 -2.899045 -2.562086 -0.027090 -0.391969 0.666908
 39   -4.457742 -1.054854 -0.746180 0.000000 0.000000 0.000000
 40   0.430580 -4.184166 3.038065 -0.027090 -0.391969 0.666908
 41   -4.433840 -1.059130 0.959566 -0.000001 0.000000 0.000000
 42   -0.102764 1.607455 -1.419044 0.232525 0.501798 -0.093180
 43   -0.242180 2.147810 3.560804 0.221820 0.513535 -0.213085
time 19
  0   0.243428 0.429701 1.851990 0.000000 0.000000 2.796178
  1   -1.093036 0.000002 -0.326057 -1.570704 -1.570425 -0.000026
  2   2.262337 0.113614 0.056889 -0.069370 -0.007214 -0.103468
  3   2.380047 0.353302 0.047440 0.000000 -0.000040 -0.008652
  4   2.033756 0.190472 -0.000128 -0.078409 0.001882 0.023209
  5   2.451511 0.204909 -0.003447 0.000000 -0.000005 -0.017472
  6   7.247600 -0.397300 -0.109469 0.000001 0.000009 0.052267
  7   -2.022252 -0.104661 3.136172 -0.330033 -1.513032 -2.604785
  8   1.168026 -0.537438 -0.063437 -0.493163 -1.192684 0.595471
  9   6.790376 -0.619176 0.015206 -0.132088 -1.000320 0.209798
 10   8.637599 0.544015 -0.090417 -1.588694 -0.104097 -0.077167
 11   6.790465 -0.619039 0.017802 -0.010473 -0.035301 -0.050494
 12   -2.022474 -0.104699 -2.873818 -0.137049 1.649253 -3.387870
 13   1.167898 -0.537463 0.063297 -0.244490 1.196460 -0.474078
 14   7.002743 -0.617765 -0.183752 0.069972 0.817666 0.072521
 15   8.209042 0.615527 -0.255885 1.682834 0.089745 -0.086003
 16   7.002735 -0.617911 -0.183641 0.048662 0.002180 -0.062027
 17   1.574674 0.609930 -0.000899 0.163582 -0.016724 0.131943
 18   -0.602177 0.511412 -0.000006 0.000000 0.000000 0.000000
 19   3.646428 0.364526 1.119313 -0.000002 -0.000913 -0.174510
 20   3.665954 0.227776 -1.117566 0.000007 -0.000063 -0.174534
 21   3.805634 1.330634 1.627658 0.023612 0.249664 -0.010453
 22   -0.246060 -0.011889 0.516521 -0.000027 0.000031 0.000025
 23   3.145474 1.221281 -1.619364 0.000019 0.000002 -0.000024
 24   -0.117240 -0.422041 -0.543856 0.000127 -0.042587 0.659346
 25   4.671824 2.251252 1.527764 0.030699 0.326722 -0.012164
 26   4.331988 1.993460 -1.613785 0.052983 -0.302757 -0.030896
 27   2.930087 1.603639 1.514501 -0.000019 -0.000022 -0.000050
 28   3.209869 1.396207 -1.520674 -0.000002 -0.000009 -0.000024
 29   8.824059 0.150544 0.091743 0.056778 -0.016278 0.457172
 30   2.439220 -0.717434 0.893668 0.443044 0.951242 0.171805
 31   2.543178 -0.717544 -1.048887 -0.497700 -0.847236 0.257519
 32   -0.802676 -0.093824 3.127092 0.029059 -3.178859 -0.032389
 33   14.298673 -0.408176 0.518454 -0.002784 -0.010161 -0.454425
 34   15.835795 0.581398 0.242756 -0.000558 0.023965 0.063856
 35   -0.831494 -0.091229 -3.114430 -0.027536 3.137034 0.081065
 36   14.294526 -0.410349 -0.455822 -0.009879 0.070278 -0.001016
 37   15.834409 0.579420 -0.284600 0.263160 -0.000292 0.141447
 38   2.417068 -2.895138 -2.554274 -0.028985 -0.394198 0.669597
 39   -4.457742 -1.054854 -0.746180 0.000000 0.000000 0.000000
 40   0.446205 -4.199792 3.034159 -0.028985 -0.394198 0.669596
 41   -4.433840 -1.059130 0.959566 -0.000001 0.000000 0.000000
 42   -0.083232 1.623081 -1.422950 0.232693 0.502319 -0.107274
 43   -0.226555 2.202500 3.560804 0.222057 0.514085 -0.243615
time 20
  0   0.243428 0.429701 1.851990 0.000000 0.000000 3.081839
  1   -1.093036 0.000002 -0.326057 -1.570599 -1.570425 -0.000171
  2   2.262337 0.113614 0.056889 -0.069370 -0.007214 -0.103468
  3   2.380047 0.353302 0.047440 0.000000 -0.000040 -0.008652
  4   2.033756 0.190472 -0.000128 -0.078372 0.001990 0.026218
  5   2.451511 0.204909 -0.003447 0.000000 -0.000005 -0.017472
  6   7.247600 -0.397300 -0.109469 0.000001 0.000009 0.052267
  7   -2.022252 -0.104661 3.136172 -0.330033 -1.513032 -2.604785
  8   1.168026 -0.537438 -0.063437 -0.493163 -1.192684 0.595471
  9   6.790376 -0.619176 0.015206 -0.127761 -0.993913 0.205874
 10   8.637599 0.544015 -0.090417 -1.586844 -0.093468 -0.076372
 11   6.790465 -0.619039 0.017802 -0.010473 -0.035301 -0.050494
 12   -2.022474 -0.104699 -2.873818 -0.137049 1.649253 -3.387870
 13   1.167898 -0.537463 0.063297 -0.264524 1.194476 -0.494902
 14   7.002743 -0.617765 -0.183752 0.070143 0.813577 0.073181
 15   8.209042 0.615527 -0.255885 1.682978 0.080590 -0.084319
 16   7.002735 -0.617911 -0.183641 0.048662 0.002180 -0.062027
 17   1.574674 0.609930 -0.000899 0.163582 -0.016724 0.129356
 18   -0.602177 0.511412 -0.000006 0.000000 0.000000 0.000000
 19   3.646428 0.364526 1.119313 -0.000002 -0.000913 -0.174510
 20   3.673767 0.176993 -1.117566 0.000007 -0.000003 -0.174546
 21   3.805634 1.330634 1.627658 0.031869 0.337056 -0.014101
 22   -0.246060 -0.011889 0.516521 -0.000027 0.000031 0.000025
 23   2.914999 1.182217 -1.611551 0.000019 0.000002 -0.000024
 24   -0.074270 -0.562670 -0.551668 0.000187 -0.057496 0.890104
 25   4.574165 2.341099 1.492607 0.041449 0.441078 -0.016419
 26   4.117138 1.989553 -1.609878 0.071535 -0.408734 -0.041706
 27   2.930087 1.603639 1.514501 -0.000019 -0.000022 -0.000050
 28   3.307528 1.321986 -1.528487 -0.000002 -0.000009 -0.000024
 29   8.824059 0.150544 0.091743 0.056778 -0.016278 0.457172
 30   2.439220 -0.717434 0.889761 0.444319 0.951533 0.177187
 31   2.543178 -0.717544 -1.041074 -0.502067 -0.848738 0.259393
 32   -0.802676 -0.093824 3.127092 0.029059 -3.178859 -0.032389
 33   14.298673 -0.408176 0.518454 -0.002281 -0.008778 -0.424730
 34   15.835795 0.581398 0.242756 -0.000029 0.024599 0.081585
 35   -0.831494 -0.091229 -3.114430 -0.027536 3.137034 0.081065
 36   14.294526 -0.410349 -0.455822 -0.009879 0.070278 -0.001016
 37   15.834409 0.579420 -0.284600 0.263160 -0.000292 0.141447
 38   2.420974 -2.895138 -2.554274 -0.029679 -0.394873 0.670391
 39   -4.457742 -1.054854 -0.746180 0.000000 0.000000 0.000000
 40   0.469644 -4.207604 3.034159 -0.029679 -0.394873 0.670390
 41   -4.433840 -1.059130 0.959566 -0.000001 0.000000 0.000000
 42   -0.075419 1.638706 -1.426857 0.232717 0.502396 -0.112460
 43   -0.222648 2.222032 3.560804 0.222082 0.514163 -0.254866
time 21
  0   0.243428 0.429701 1.851990 0.000000 0.000000 -2.929649
  1   -1.093036 0.000002 -0.326057 -1.570599 -1.570425 -0.000171
  2   2.262337 0.113614 0.056889 -0.069370 -0.007214 -0.103468
  3   2.380047 0.353302 0.047440 0.000000 -0.000040 -0.008652
  4   2.033756 0.190472 -0.000128 -0.078372 0.002361 0.029589
  5   2.451511 0.204909 -0.003447 0.000000 -0.000005 -0.017472
  6   7.247600 -0.397300 -0.109469 0.000001 0.000009 0.052267
  7   -2.022252 -0.104661 3.136172 -0.330033 -1.513032 -2.604785
  8   1.168026 -0.537438 -0.063437 -0.493163 -1.192684 0.595471
  9   6.790376 -0.619176 0.015206 -0.122990 -0.986838 0.201497
 10   8.637599 0.544015 -0.090417 -1.584819 -0.081784 -0.075576
 11   6.790465 -0.619039 0.017802 -0.010473 -0.035301 -0.050494
 12   -2.022474 -0.104699 -2.873818 -0.137049 1.649253 -3.387870
 13   1.167898 -0.537463 0.063297 -0.286457 1.191323 -0.517663
 14   7.002743 -0.617765 -0.183752 0.070313 0.809034 0.073841
 15   8.209042 0.615527 -0.255885 1.683122 0.070527 -0.082515
 16   7.002735 -0.617911 -0.183641 0.048662 0.002180 -0.062027
 17   1.574674 0.609930 -0.000899 0.163582 -0.016724 0.126029
 18   -0.602177 0.511412 -0.000006 0.000000 0.000000 0.000000
 19   3.646428 0.364526 1.119313 -0.000002 -0.000913 -0.174510
 20   3.677673 0.176993 -1.117566 0.000007 -0.000003 -0.174546
 21   3.805634 1.330634 1.627658 0.031869 0.337056 -0.014101
 22   -0.246060 -0.011889 0.516521 -0.000027 0.000031 0.000025
 23   2.914999 1.182217 -1.611551 0.000019 0.000002 -0.000024
 24   -0.074270 -0.562670 -0.551668 0.000187 -0.057496 0.890104
 25   4.574165 2.341099 1.492607 0.041449 0.441078 -0.016419
 26   4.117138 1.989553 -1.609878 0.071535 -0.408734 -0.041706
 27   2.930087 1.603639 1.514501 -0.000019 -0.000022 -0.000050
 28   3.307528 1.321986 -1.528487 -0.000002 -0.000009 -0.000024
 29   8.824059 0.150544 0.091743 0.053391 -0.026034 0.458084
 30   2.404063 -0.701808 0.983514 0.398119 0.852522 0.158789
 31   2.500208 -0.701918 -1.127014 -0.449850 -0.760466 0.232409
 32   -0.802676 -0.093824 3.127092 0.029059 -3.178859 -0.032389
 33   14.298673 -0.408176 0.518454 -0.001814 -0.007395 -0.396067
 34   15.835795 0.581398 0.242756 0.000500 0.025210 0.098785
 35   -0.831494 -0.091229 -3.114430 -0.027536 3.137034 0.081065
 36   14.294526 -0.410349 -0.455822 -0.009879 0.070278 -0.001016
 37   15.834409 0.579420 -0.284600 0.263160 -0.000292 0.141447
 38   2.385817 -2.910764 -2.562086 -0.028837 -0.383811 0.651574
 39   -4.457742 -1.054854 -0.746180 0.000000 0.000000 0.000000
 40   0.508707 -4.184166 3.041971 -0.028837 -0.383811 0.651573
 41   -4.433840 -1.059130 0.959566 -0.000001 0.000000 0.000000
 42   -0.091044 1.650426 -1.458108 0.228115 0.491295 -0.109575
 43   -0.234367 2.206406 3.537366 0.213624 0.496385 -0.247170
time 22
  0   0.243428 0.429701 1.851990 0.000000 0.000000 -2.674672
  1   -1.093036 0.000002 -0.326057 -1.570704 -1.570425 -0.000026
  2   2.262337 0.113614 0.056889 -0.069370 -0.007214 -0.103468
  3   2.380047 0.353302 0.047440 0.000000 -0.000040 -0.008652
  4   2.033756 0.190472 -0.000128 -0.078372 0.002661 0.033141
  5   2.451511 0.204909 -0.003447 0.000000 -0.000005 -0.017472
  6   7.247600 -0.397300 -0.109469 0.000001 0.000009 0.052267
  7   -2.022252 -0.104661 3.136172 -0.330033 -1.513032 -2.604785
  8   1.168026 -0.537438 -0.063437 -0.493163 -1.192684 0.595471
  9   6.790376 -0.619176 0.015206 -0.117941 -0.979364 0.196818
 10   8.637599 0.544015 -0.090417 -1.582705 -0.069324 -0.074635
 11   6.790465 -0.619039 0.017802 -0.010473 -0.035301 -0.050494
 12   -2.022474 -0.104699 -2.873818 -0.137049 1.649253 -3.387870
 13   1.167898 -0.537463 0.063297 -0.308952 1.186899 -0.541030
 14   7.002743 -0.617765 -0.183752 0.070484 0.804208 0.074584
 15   8.209042 0.615527 -0.255885 1.683194 0.059859 -0.080591
 16   7.002735 -0.617911 -0.183641 0.048662 0.002180 -0.062027
 17   1.574674 0.609930 -0.000899 0.163582 -0.016724 0.122296
 18   -0.602177 0.511412 -0.000006 0.000000 0.000000 0.000000
 19   3.646428 0.364526 1.119313 -0.000002 -0.000913 -0.174510
 20   3.677673 0.176993 -1.117566 0.000007 -0.000003 -0.174546
 21   3.805634 1.330634 1.627658 0.031869 0.337056 -0.014101
 22   -0.246060 -0.011889 0.516521 -0.000027 0.000031 0.000025
 23   2.914999 1.182217 -1.611551 0.000019 0.000002 -0.000024
 24   -0.074270 -0.562670 -0.551668 0.000187 -0.057496 0.890104
 25   4.574165 2.341099 1.492607 0.041449 0.441078 -0.016419
 26   4.117138 1.989553 -1.609878 0.071535 -0.408734 -0.041706
 27   2.930087 1.603639 1.514501 -0.000019 -0.000022 -0.000050
 28   3.307528 1.321986 -1.528487 -0.000002 -0.000009 -0.000024
 29   8.824059 0.150544 0.091743 0.045370 -0.049321 0.460230
 30   2.322029 -0.662745 1.206177 0.287956 0.616343 0.114874
 31   2.394736 -0.662855 -1.330145 -0.325329 -0.549965 0.168070
 32   -0.802676 -0.093824 3.127092 0.029059 -3.178859 -0.032389
 33   14.298673 -0.408176 0.518454 -0.001382 -0.006025 -0.368754
 34   15.835795 0.581398 0.242756 0.000983 0.025795 0.115191
 35   -0.831494 -0.091229 -3.114430 -0.027536 3.137034 0.081065
 36   14.294526 -0.410349 -0.455822 -0.009879 0.070278 -0.001016
 37   15.834409 0.579420 -0.284600 0.263160 -0.000292 0.141447
 38   2.288157 -2.953734 -2.581618 -0.026585 -0.353805 0.600621
 39   -4.457742 -1.054854 -0.746180 0.000000 0.000000 0.000000
 40   0.571209 -4.125571 3.057597 -0.026585 -0.353805 0.600620
 41   -4.433840 -1.059130 0.959566 -0.000001 0.000000 0.000000
 42   -0.130108 1.662145 -1.536235 0.215615 0.461198 -0.101838
 43   -0.265618 2.163436 3.463145 0.190660 0.448133 -0.226217
time 23
  0   0.243428 0.429701 1.851990 0.000000 0.000000 -2.439264
  1   -1.093036 0.000002 -0.326057 -1.570704 -1.570425 -0.000026
  2   2.262337 0.113614 0.056889 -0.069370 -0.007214 -0.103468
  3   2.380047 0.353302 0.047440 0.000000 -0.000040 -0.008652
  4   2.033756 0.190472 -0.000128 -0.078372 0.002828 0.036947
  5   2.451511 0.204909 -0.003447 0.000000 -0.000005 -0.017472
  6   7.247600 -0.397300 -0.109469 0.000001 0.000009 0.052267
  7   -2.022252 -0.104661 3.136172 -0.330033 -1.513032 -2.604785
  8   1.168026 -0.537438 -0.063437 -0.493163 -1.192684 0.595471
  9   6.790376 -0.619176 0.015206 -0.112837 -0.971755 0.192139
 10   8.637599 0.544015 -0.090417 -1.580416 -0.056725 -0.073695
 11   6.790465 -0.619039 0.017802 -0.010473 -0.035301 -0.050494
 12   -2.022474 -0.104699 -2.873818 -0.137049 1.649253 -3.387870
 13   1.167898 -0.537463 0.063297 -0.330743 1.181203 -0.563730
 14   7.002743 -0.617765 -0.183752 0.070655 0.799267 0.075409
 15   8.209042 0.615527 -0.255885 1.683265 0.048964 -0.078606
 16   7.002735 -0.617911 -0.183641 0.048662 0.002180 -0.062027
 17   1.574674 0.609930 -0.000899 0.163582 -0.016724 0.118415
 18   -0.602177 0.511412 -0.000006 0.000000 0.000000 0.000000
 19   3.646428 0.364526 1.119313 -0.000002 -0.000913 -0.174510
 20   3.673767 0.176993 -1.117566 0.000007 -0.000003 -0.174546
 21   3.805634 1.330634 1.627658 0.031869 0.337056 -0.014101
 22   -0.246060 -0.011889 0.516521 -0.000027 0.000031 0.000025
 23   2.914999 1.182217 -1.611551 0.000019 0.000002 -0.000024
 24   -0.074270 -0.562670 -0.551668 0.000187 -0.057496 0.890104
 25   4.574165 2.341099 1.492607 0.041449 0.441078 -0.016419
 26   4.117138 1.989553 -1.609878 0.071535 -0.408734 -0.041706
 27   2.930087 1.603639 1.514501 -0.000019 -0.000022 -0.000050
 28   3.307528 1.321986 -1.528487 -0.000002 -0.000009 -0.000024
 29   8.824059 0.150544 0.091743 0.035834 -0.077095 0.462805
 30   2.224370 -0.615868 1.471810 0.156422 0.334479 0.062424
 31   2.269732 -0.615978 -1.568434 -0.176722 -0.298747 0.091303
 32   -0.802676 -0.093824 3.127092 0.029059 -3.178859 -0.032389
 33   14.298673 -0.408176 0.518454 -0.000987 -0.004694 -0.343188
 34   15.835795 0.581398 0.242756 0.001443 0.026308 0.130495
 35   -0.831494 -0.091229 -3.114430 -0.027536 3.137034 0.081065
 36   14.294526 -0.410349 -0.455822 -0.009879 0.070278 -0.001016
 37   15.834409 0.579420 -0.284600 0.263160 -0.000292 0.141447
 38   2.143622 -3.016236 -2.612869 -0.023259 -0.309579 0.525536
 39   -4.457742 -1.054854 -0.746180 0.000000 0.000000 0.000000
 40   0.645430 -4.043537 3.081035 -0.023259 -0.309579 0.525535
 41   -4.433840 -1.059130 0.959566 -0.000001 0.000000 0.000000
 42   -0.184797 1.669957 -1.645613 0.197194 0.416842 -0.090378
 43   -0.316401 2.100934 3.357673 0.156813 0.377051 -0.195311
time 24
  0   0.243428 0.429701 1.851990 0.000000 0.000000 -2.226182
  1   -1.093036 0.000002 -0.326057 -1.570704 -1.570425 -0.000026
  2   2.262337 0.113614 0.056889 -0.069370 -0.007214 -0.103468
  3   2.380047 0.353302 0.047440 0.000000 -0.000040 -0.008652
  4   2.033756 0.190472 -0.000128 -0.078336 0.003260 0.041006
  5   2.451511 0.204909 -0.003447 0.000000 -0.000005 -0.017472
  6   7.247600 -0.397300 -0.109469 0.000001 0.000009 0.052267
  7   -2.022252 -0.104661 3.136172 -0.330033 -1.513032 -2.604785
  8   1.168026 -0.537438 -0.063437 -0.493163 -1.192684 0.595471
  9   6.790376 -0.619176 0.015206 -0.107788 -0.964280 0.187535
 10   8.637599 0.544015 -0.090417 -1.578214 -0.044265 -0.072827
 11   6.790465 -0.619039 0.017802 -0.010473 -0.035301 -0.050494
 12   -2.022474 -0.104699 -2.873818 -0.137049 1.649253 -3.387870
 13   1.167898 -0.537463 0.063297 -0.350708 1.174490 -0.584615
 14   7.002743 -0.617765 -0.183752 0.070883 0.794497 0.076152
 15   8.209042 0.615527 -0.255885 1.683265 0.038296 -0.076682
 16   7.002735 -0.617911 -0.183641 0.048662 0.002180 -0.062027
 17   1.574674 0.609930 -0.000899 0.163582 -0.016724 0.114608
 18   -0.602177 0.511412 -0.000006 0.000000 0.000000 0.000000
 19   3.646428 0.364526 1.119313 -0.000002 -0.000913 -0.174510
 20   3.673767 0.176993 -1.117566 0.000007 -0.000003 -0.174546
 21   3.805634 1.330634 1.627658 0.031869 0.337056 -0.014101
 22   -0.246060 -0.011889 0.516521 -0.000027 0.000031 0.000025
 23   2.914999 1.182217 -1.611551 0.000019 0.000002 -0.000024
 24   -0.074270 -0.562670 -0.551668 0.000187 -0.057496 0.890104
 25   4.574165 2.341099 1.492607 0.041449 0.441078 -0.016419
 26   4.117138 1.989553 -1.609878 0.071535 -0.408734 -0.041706
 27   2.930087 1.603639 1.514501 -0.000019 -0.000022 -0.000050
 28   3.307528 1.321986 -1.528487 -0.000002 -0.000009 -0.000024
 29   8.824059 0.150544 0.091743 0.027812 -0.100382 0.464951
 30   2.142336 -0.576804 1.694474 0.046205 0.098329 0.018465
 31   2.164260 -0.576914 -1.771565 -0.052202 -0.088246 0.026964
 32   -0.802676 -0.093824 3.127092 0.029059 -3.178859 -0.032389
 33   14.298673 -0.408176 0.518454 -0.000627 -0.003440 -0.319766
 34   15.835795 0.581398 0.242756 0.001857 0.026796 0.144563
 35   -0.831494 -0.091229 -3.114430 -0.027536 3.137034 0.081065
 36   14.294526 -0.410349 -0.455822 -0.009879 0.070278 -0.001016
 37   15.834409 0.579420 -0.284600 0.263160 -0.000292 0.141447
 38   1.971742 -3.090456 -2.648026 -0.019239 -0.255870 0.434383
 39   -4.457742 -1.054854 -0.746180 0.000000 0.000000 0.000000
 40   0.735277 -3.938065 3.108380 -0.019218 -0.255869 0.434382
 41   -4.433840 -1.059130 0.959566 -0.000001 0.000000 0.000000
 42   -0.255112 1.677770 -1.778430 0.174831 0.362979 -0.076493
 43   -0.374997 2.022807 3.228763 0.115708 0.290717 -0.157838
time 25
  0   0.243428 0.429701 1.851990 0.000000 0.000000 -2.038179
  1   -1.093036 0.000002 -0.326057 -1.570651 -1.570425 -0.000026
  2   2.262337 0.113614 0.056889 -0.069370 -0.007214 -0.103468
  3   2.380047 0.353302 0.047440 0.000000 -0.000040 -0.008652
  4   2.033756 0.190472 -0.000128 -0.078336 0.003464 0.044885
  5   2.451511 0.204909 -0.003447 0.000000 -0.000005 -0.017472
  6   7.247600 -0.397300 -0.109469 0.000001 0.000009 0.052267
  7   -2.022252 -0.104661 3.136172 -0.330033 -1.513032 -2.604785
  8   1.168026 -0.537438 -0.063437 -0.493163 -1.192684 0.595471
  9   6.790376 -0.619176 0.015206 -0.103073 -0.957206 0.183158
 10   8.637599 0.544015 -0.090417 -1.576101 -0.032581 -0.071959
 11   6.790465 -0.619039 0.017802 -0.010473 -0.035301 -0.050494
 12   -2.022474 -0.104699 -2.873818 -0.137049 1.649253 -3.387870
 13   1.167898 -0.537463 0.063297 -0.368001 1.167167 -0.602714
 14   7.002743 -0.617765 -0.183752 0.071053 0.789955 0.076894
 15   8.209042 0.615527 -0.255885 1.683265 0.028234 -0.074818
 16   7.002735 -0.617911 -0.183641 0.048662 0.002180 -0.062027
 17   1.574674 0.609930 -0.000899 0.163582 -0.016724 0.110616
 18   -0.602177 0.511412 -0.000006 0.000000 0.000000 0.000000
 19   3.646428 0.364526 1.119313 -0.000002 -0.000913 -0.174510
 20   3.677673 0.176993 -1.117566 0.000007 -0.000003 -0.174546
 21   3.805634 1.330634 1.627658 0.031869 0.337056 -0.014101
 22   -0.246060 -0.011889 0.516521 -0.000027 0.000031 0.000025
 23   2.914999 1.182217 -1.611551 0.000019 0.000002 -0.000024
 24   -0.074270 -0.562670 -0.551668 0.000187 -0.057496 0.890104
 25   4.574165 2.341099 1.492607 0.041449 0.441078 -0.016419
 26   4.117138 1.989553 -1.609878 0.071535 -0.408734 -0.041706
 27   2.930087 1.603639 1.514501 -0.000019 -0.000022 -0.000050
 28   3.307528 1.321986 -1.528487 -0.000002 -0.000009 -0.000024
 29   8.824059 0.150544 0.091743 0.024426 -0.110138 0.465863
 30   2.111085 -0.561179 1.784320 -0.000008 -0.000682 0.000024
 31   2.121290 -0.561289 -1.853599 0.000000 0.000000 -0.000002
 32   -0.802676 -0.093824 3.127092 0.029059 -3.178859 -0.032389
 33   14.298673 -0.408176 0.518454 -0.000304 -0.002303 -0.298884
 34   15.835795 0.581398 0.242756 0.002225 0.027211 0.157089
 35   -0.831494 -0.091229 -3.114430 -0.027536 3.137034 0.081065
 36   14.294526 -0.410349 -0.455822 -0.009879 0.070278 -0.001016
 37   15.834409 0.579420 -0.284600 0.263160 -0.000292 0.141447
 38   1.780330 -3.176397 -2.690996 -0.014840 -0.197424 0.335165
 39   -4.457742 -1.054854 -0.746180 0.000000 0.000000 0.000000
 40   0.825123 -3.828687 3.135724 -0.014840 -0.197436 0.335164
 41   -4.433840 -1.059130 0.959566 -0.000001 0.000000 0.000000
 42   -0.329333 1.681677 -1.922966 0.150491 0.304379 -0.061353
 43   -0.441405 1.940773 3.092040 0.070991 0.196772 -0.117019
time 26
  0   0.243428 0.429701 1.851990 0.000000 0.000000 -1.878106
  1   -1.093036 0.000002 -0.326057 -1.570599 -1.570425 -0.000171
  2   2.262337 0.113614 0.056889 -0.069370 -0.007214 -0.103468
  3   2.380047 0.353302 0.047440 0.000000 -0.000040 -0.008652
  4   2.033756 0.190472 -0.000128 -0.078299 0.003871 0.048763
  5   2.451511 0.204909 -0.003447 0.000000 -0.000005 -0.017472
  6   7.247600 -0.397300 -0.109469 0.000001 0.000009 0.052267
  7   -2.022252 -0.104661 3.136172 -0.330033 -1.513032 -2.604785
  8   1.168026 -0.537438 -0.063437 -0.493163 -1.192684 0.595471
  9   6.790376 -0.619176 0.015206 -0.098801 -0.950799 0.179234
 10   8.637599 0.544015 -0.090417 -1.574163 -0.021952 -0.071163
 11   6.790465 -0.619039 0.017802 -0.010473 -0.035301 -0.050494
 12   -2.022474 -0.104699 -2.873818 -0.137049 1.649253 -3.387870
 13   1.167898 -0.537463 0.063297 -0.382060 1.159793 -0.617485
 14   7.002743 -0.617765 -0.183752 0.071224 0.785809 0.077554
 15   8.209042 0.615527 -0.255885 1.683194 0.019079 -0.073194
 16   7.002735 -0.617911 -0.183641 0.048662 0.002180 -0.062027
 17   1.574674 0.609930 -0.000899 0.163582 -0.016724 0.106772
 18   -0.602177 0.511412 -0.000006 0.000000 0.000000 0.000000
 19   3.646428 0.364526 1.119313 -0.000002 -0.000913 -0.174510
 20   3.677673 0.176993 -1.117566 0.000007 -0.000003 -0.174546
 21   3.805634 1.330634 1.627658 0.031869 0.337056 -0.014101
 22   -0.246060 -0.011889 0.516521 -0.000027 0.000031 0.000025
 23   2.914999 1.182217 -1.611551 0.000019 0.000002 -0.000024
 24   -0.074270 -0.562670 -0.551668 0.000187 -0.057496 0.890104
 25   4.574165 2.341099 1.492607 0.041449 0.441078 -0.016419
 26   4.117138 1.989553 -1.609878 0.071535 -0.408734 -0.041706
 27   2.930087 1.603639 1.514501 -0.000019 -0.000022 -0.000050
 28   3.307528 1.321986 -1.528487 -0.000002 -0.000009 -0.000024
 29   8.824059 0.150544 0.091743 0.024426 -0.110138 0.465863
 30   2.111085 -0.561179 1.784320 -0.000008 -0.000682 0.000024
 31   2.121290 -0.561289 -1.853599 0.000000 0.000000 -0.000002
 32   -0.802676 -0.093824 3.127092 0.029059 -3.178859 -0.032389
 33   14.298673 -0.408176 0.518454 -0.000040 -0.001295 -0.280940
 34   15.835795 0.581398 0.242756 0.002547 0.027577 0.167850
 35   -0.831494 -0.091229 -3.114430 -0.027536 3.137034 0.081065
 36   14.294526 -0.410349 -0.455822 -0.009879 0.070278 -0.001016
 37   15.834409 0.579420 -0.284600 0.263160 -0.000292 0.141447
 38   1.588917 -3.258430 -2.730060 -0.010440 -0.138991 0.235948
 39   -4.457742 -1.054854 -0.746180 0.000000 0.000000 0.000000
 40   0.914970 -3.715402 3.166975 -0.010440 -0.138991 0.235947
 41   -4.433840 -1.059130 0.959566 -0.000001 0.000000 0.000000
 42   -0.403554 1.681677 -2.067501 0.126162 0.245764 -0.046256
 43   -0.503907 1.858739 2.951411 0.026263 0.102828 -0.076200
time 27
  0   0.243428 0.429701 1.851990 0.000000 0.000000 -1.748812
  1   -1.093036 0.000002 -0.326057 -1.570599 -1.570425 -0.000171
  2   2.262337 0.113614 0.056889 -0.069370 -0.007214 -0.103468
  3   2.380047 0.353302 0.047440 0.000000 -0.000040 -0.008652
  4   2.033756 0.190472 -0.000128 -0.078299 0.004171 0.052352
  5   2.451511 0.204909 -0.003447 0.000000 -0.000005 -0.017472
  6   7.247600 -0.397300 -0.109469 0.000001 0.000009 0.052267
  7   -2.022252 -0.104661 3.136172 -0.330033 -1.513032 -2.604785
  8   1.168026 -0.537438 -0.063437 -0.493163 -1.192684 0.595471
  9   6.790376 -0.619176 0.015206 -0.095139 -0.945326 0.175913
 10   8.637599 0.544015 -0.090417 -1.572578 -0.012942 -0.070439
 11   6.790465 -0.619039 0.017802 -0.010473 -0.035301 -0.050494
 12   -2.022474 -0.104699 -2.873818 -0.137049 1.649253 -3.387870
 13   1.167898 -0.537463 0.063297 -0.392885 1.152928 -0.628805
 14   7.002743 -0.617765 -0.183752 0.071395 0.782289 0.078132
 15   8.209042 0.615527 -0.255885 1.683122 0.011362 -0.071751
 16   7.002735 -0.617911 -0.183641 0.048662 0.002180 -0.062027
 17   1.574674 0.609930 -0.000899 0.163582 -0.016724 0.103002
 18   -0.602177 0.511412 -0.000006 0.000000 0.000000 0.000000
 19   3.646428 0.364526 1.119313 -0.000002 -0.000913 -0.174510
 20   3.673767 0.176993 -1.117566 0.000007 -0.000003 -0.174546
 21   3.805634 1.330634 1.627658 0.031869 0.337056 -0.014101
 22   -0.246060 -0.011889 0.516521 -0.000027 0.000031 0.000025
 23   2.914999 1.182217 -1.611551 0.000019 0.000002 -0.000024
 24   -0.074270 -0.562670 -0.551668 0.000187 -0.057496 0.890104
 25   4.574165 2.341099 1.492607 0.041449 0.441078 -0.016419
 26   4.117138 1.989553 -1.609878 0.071535 -0.408734 -0.041706
 27   2.930087 1.603639 1.514501 -0.000019 -0.000022 -0.000050
 28   3.307528 1.321986 -1.528487 -0.000002 -0.000009 -0.000024
 29   8.824059 0.150544 0.091743 0.024426 -0.110138 0.465863
 30   2.111085 -0.561179 1.784320 -0.000008 -0.000682 0.000024
 31   2.121290 -0.561289 -1.853599 0.000000 0.000000 -0.000002
 32   -0.802676 -0.093824 3.127092 0.029059 -3.178859 -0.032389
 33   14.298673 -0.408176 0.518454 0.000176 -0.000454 -0.266331
 34   15.835795 0.581398 0.242756 0.002800 0.027870 0.176626
 35   -0.831494 -0.091229 -3.114430 -0.027536 3.137034 0.081065
 36   14.294526 -0.410349 -0.455822 -0.009879 0.070278 -0.001016
 37   15.834409 0.579420 -0.284600 0.263160 -0.000292 0.141447
 38   1.417037 -3.332652 -2.765217 -0.006399 -0.085282 0.144795
 39   -4.457742 -1.054854 -0.746180 0.000000 0.000000 0.000000
 40   0.997004 -3.609930 3.194320 -0.006399 -0.085281 0.144794
 41   -4.433840 -1.059130 0.959566 -0.000001 0.000000 0.000000
 42   -0.473869 1.685583 -2.200318 0.103799 0.191901 -0.032371
 43   -0.566409 1.780612 2.826407 -0.014830 0.016509 -0.038728
time 28
  0   0.243428 0.429701 1.851990 0.000000 0.000000 -1.652958
  1   -1.093036 0.000002 -0.326057 -1.570651 -1.570425 -0.000171
  2   2.262337 0.113614 0.056889 -0.069370 -0.007214 -0.103468
  3   2.380047 0.353302 0.047440 0.000000 -0.000040 -0.008652
  4   2.033756 0.190472 -0.000128 -0.078299 0.004315 0.056013
  5   2.451511 0.204909 -0.003447 0.000000 -0.000005 -0.017472
  6   7.247600 -0.397300 -0.109469 0.000001 0.000009 0.052267
  7   -2.022252 -0.104661 3.136172 -0.330033 -1.513032 -2.604785
  8   1.168026 -0.537438 -0.063437 -0.493163 -1.192684 0.595471
  9   6.790376 -0.619176 0.015206 -0.092309 -0.941055 0.173348
 10   8.637599 0.544015 -0.090417 -1.571257 -0.005903 -0.069933
 11   6.790465 -0.619039 0.017802 -0.010473 -0.035301 -0.050494
 12   -2.022474 -0.104699 -2.873818 -0.137049 1.649253 -3.387870
 13   1.167898 -0.537463 0.063297 -0.400407 1.147283 -0.636735
 14   7.002743 -0.617765 -0.183752 0.071509 0.779563 0.078544
 15   8.209042 0.615527 -0.255885 1.683050 0.005309 -0.070668
 16   7.002735 -0.617911 -0.183641 0.048662 0.002180 -0.062027
 17   1.574674 0.609930 -0.000899 0.163582 -0.016724 0.099602
 18   -0.602177 0.511412 -0.000006 0.000000 0.000000 0.000000
 19   3.646428 0.364526 1.119313 -0.000002 -0.000913 -0.174510
 20   3.665954 0.227776 -1.117566 0.000007 -0.000063 -0.174534
 21   3.805634 1.330634 1.627658 0.023612 0.249664 -0.010453
 22   -0.246060 -0.011889 0.516521 -0.000027 0.000031 0.000025
 23   3.145474 1.221281 -1.619364 0.000019 0.000002 -0.000024
 24   -0.117240 -0.422041 -0.543856 0.000127 -0.042587 0.659346
 25   4.671824 2.251252 1.527764 0.030699 0.326722 -0.012164
 26   4.331988 1.993460 -1.613785 0.052983 -0.302757 -0.030896
 27   2.930087 1.603639 1.514501 -0.000019 -0.000022 -0.000050
 28   3.209869 1.396207 -1.520674 -0.000002 -0.000009 -0.000024
 29   8.824059 0.150544 0.091743 0.024426 -0.110138 0.465863
 30   2.111085 -0.561179 1.784320 -0.000008 -0.000682 0.000024
 31   2.121290 -0.561289 -1.853599 0.000000 0.000000 -0.000002
 32   -0.802676 -0.093824 3.127092 0.029059 -3.178859 -0.032389
 33   14.298673 -0.408176 0.518454 0.000344 0.000179 -0.255374
 34   15.835795 0.581398 0.242756 0.003007 0.028089 0.183197
 35   -0.831494 -0.091229 -3.114430 -0.027536 3.137034 0.081065
 36   14.294526 -0.410349 -0.455822 -0.009879 0.070278 -0.001016
 37   15.834409 0.579420 -0.284600 0.263160 -0.000292 0.141447
 38   1.272502 -3.399060 -2.796468 -0.003073 -0.041056 0.069710
 39   -4.457742 -1.054854 -0.746180 0.000000 0.000000 0.000000
 40   1.059505 -3.527896 3.217758 -0.003073 -0.041055 0.069709
 41   -4.433840 -1.059130 0.959566 -0.000001 0.000000 0.000000
 42   -0.528558 1.685583 -2.309696 0.085378 0.147545 -0.020911
 43   -0.613285 1.718110 2.720935 -0.048677 -0.054573 -0.007821
time 29
  0   0.243428 0.429701 1.851990 0.000000 0.000000 -1.593394
  1   -1.093036 0.000002 -0.326057 -1.570704 -1.570425 -0.000026
  2   2.262337 0.113614 0.056889 -0.069370 -0.007214 -0.103468
  3   2.380047 0.353302 0.047440 0.000000 -0.000040 -0.008652
  4   2.033756 0.190472 -0.000128 -0.078280 0.004674 0.059021
  5   2.451511 0.204909 -0.003447 0.000000 -0.000005 -0.017472
  6   7.247600 -0.397300 -0.109469 0.000001 0.000009 0.052267
  7   -2.022252 -0.104661 3.136172 -0.330033 -1.513032 -2.604785
  8   1.168026 -0.537438 -0.063437 -0.493163 -1.192684 0.595471
  9   6.790376 -0.619176 0.015206 -0.090479 -0.938318 0.171687
 10   8.637599 0.544015 -0.090417 -1.570464 -0.001398 -0.069571
 11   6.790465 -0.619039 0.017802 -0.010473 -0.035301 -0.050494
 12   -2.022474 -0.104699 -2.873818 -0.137049 1.649253 -3.387870
 13   1.167898 -0.537463 0.063297 -0.404906 1.143520 -0.641517
 14   7.002743 -0.617765 -0.183752 0.071566 0.777803 0.078792
 15   8.209042 0.615527 -0.255885 1.682978 0.001375 -0.069947
 16   7.002735 -0.617911 -0.183641 0.048662 0.002180 -0.062027
 17   1.574674 0.609930 -0.000899 0.163582 -0.016724 0.096608
 18   -0.602177 0.511412 -0.000006 0.000000 0.000000 0.000000
 19   3.646428 0.364526 1.119313 -0.000002 -0.000913 -0.174510
 20   3.654235 0.317623 -1.117566 0.000007 -0.000183 -0.174534
 21   3.805634 1.330634 1.627658 0.008271 0.087369 -0.003674
 22   -0.246060 -0.011889 0.516521 -0.000027 0.000031 0.000025
 23   3.575175 1.295502 -1.627177 0.000031 0.000002 -0.000024
 24   -0.203180 -0.152501 -0.524324 0.000019 -0.014903 0.230806
 25   4.847611 2.083278 1.594173 0.010756 0.114354 -0.004267
 26   4.730438 1.997366 -1.625504 0.018551 -0.105959 -0.010822
 27   2.930087 1.603639 1.514501 -0.000019 -0.000022 -0.000050
 28   3.030176 1.532930 -1.505048 -0.000002 -0.000009 -0.000024
 29   8.824059 0.150544 0.091743 0.024426 -0.110138 0.465863
 30   2.111085 -0.561179 1.784320 -0.000008 -0.000682 0.000024
 31   2.121290 -0.561289 -1.853599 0.000000 0.000000 -0.000002
 32   -0.802676 -0.093824 3.127092 0.029059 -3.178859 -0.032389
 33   14.298673 -0.408176 0.518454 0.000440 0.000580 -0.248546
 34   15.835795 0.581398 0.242756 0.003122 0.028236 0.187299
 35   -0.831494 -0.091229 -3.114430 -0.027536 3.137034 0.081065
 36   14.294526 -0.410349 -0.455822 -0.009879 0.070278 -0.001016
 37   15.834409 0.579420 -0.284600 0.263160 -0.000292 0.141447
 38   1.174842 -3.438123 -2.819907 -0.000821 -0.011050 0.018757
 39   -4.457742 -1.054854 -0.746180 0.000000 0.000000 0.000000
 40   1.102476 -3.469301 3.233384 -0.000821 -0.011049 0.018756
 41   -4.433840 -1.059130 0.959566 -0.000001 0.000000 0.000000
 42   -0.567622 1.685583 -2.383917 0.072878 0.117448 -0.013132
 43   -0.648443 1.679046 2.650620 -0.071641 -0.102824 0.013090
time 30
  0   0.243428 0.429701 1.851990 0.000000 0.000000 -1.571164
  1   -1.093036 0.000002 -0.326057 -1.570704 -1.570425 -0.000026
  2   2.262337 0.113614 0.056889 -0.069370 -0.007214 -0.103468
  3   2.380047 0.353302 0.047440 0.000000 -0.000040 -0.008652
  4   2.033756 0.190472 -0.000128 -0.078280 0.004794 0.060507
  5   2.451511 0.204909 -0.003447 0.000000 -0.000005 -0.017472
  6   7.247600 -0.397300 -0.109469 0.000001 0.000009 0.052267
  7   -2.022252 -0.104661 3.136172 -0.330033 -1.513032 -2.604785
  8   1.168026 -0.537438 -0.063437 -0.493163 -1.192684 0.595471
  9   6.790376 -0.619176 0.015206 -0.089868 -0.937384 0.171083
 10   8.637599 0.544015 -0.090417 -1.570112 0.000221 -0.069499
 11   6.790465 -0.619039 0.017802 -0.010473 -0.035301 -0.050494
 12   -2.022474 -0.104699 -2.873818 -0.137049 1.649253 -3.387870
 13   1.167898 -0.537463 0.063297 -0.406453 1.142147 -0.643091
 14   7.002743 -0.617765 -0.183752 0.071623 0.777178 0.078957
 15   8.209042 0.615527 -0.255885 1.682978 0.000013 -0.069646
 16   7.002735 -0.617911 -0.183641 0.048662 0.002180 -0.062027
 17   1.574674 0.609930 -0.000899 0.163582 -0.016724 0.094982
 18   -0.602177 0.511412 -0.000006 0.000000 0.000000 0.000000
 19   3.646428 0.364526 1.119313 -0.000002 -0.000913 -0.174510
 20   3.646422 0.364499 -1.117566 0.000007 -0.000231 -0.174534
 21   3.805634 1.330634 1.627658 0.000026 -0.000011 -0.000026
 22   -0.246060 -0.011889 0.516521 -0.000027 0.000031 0.000025
 23   3.805651 1.330659 -1.631083 0.000031 0.000002 -0.000024
 24   -0.246150 -0.011872 -0.516511 -0.000029 -0.000006 0.000048
 25   4.941364 1.997338 1.629330 0.000018 -0.000001 -0.000024
 26   4.941382 1.997366 -1.629410 0.000011 0.000005 -0.000024
 27   2.930087 1.603639 1.514501 -0.000019 -0.000022 -0.000050
 28   2.932517 1.603245 -1.501142 -0.000002 -0.000009 -0.000024
 29   8.824059 0.150544 0.091743 0.024426 -0.110138 0.465863
 30   2.111085 -0.561179 1.784320 -0.000008 -0.000682 0.000024
 31   2.121290 -0.561289 -1.853599 0.000000 0.000000 -0.000002
 32   -0.802676 -0.093824 3.127092 0.029059 -3.178859 -0.032389
 33   14.298673 -0.408176 0.518454 0.000475 0.000722 -0.246164
 34   15.835795 0.581398 0.242756 0.003168 0.028284 0.188754
 35   -0.831494 -0.091229 -3.114430 -0.027536 3.137034 0.081065
 36   14.294526 -0.410349 -0.455822 -0.009879 0.070278 -0.001016
 37   15.834409 0.579420 -0.284600 0.263160 -0.000292 0.141447
 38   1.139685 -3.453749 -2.823813 0.000000 0.000000 0.000001
 39   -4.457742 -1.054854 -0.746180 0.000000 0.000000 0.000000
 40   1.118101 -3.449769 3.237290 0.000000 0.000001 0.000000
 41   -4.433840 -1.059130 0.959566 -0.000001 0.000000 0.000000
 42   -0.583247 1.685583 -2.411262 0.068276 0.106362 -0.010288
 43   -0.660162 1.663421 2.623276 -0.080100 -0.120587 0.020786
end
