version 1
nodes
  0 "Bip01" -1
  1 "Bip01 Pelvis" 0
  2 "Bip01 Spine" 1
  3 "Bip01 Spine1" 2
  4 "Bip01 Spine2" 3
  5 "Bip01 Spine3" 4
  6 "Bip01 Neck" 5
  7 "Bip01 L Arm" 6
  8 "Bip01 L Arm1" 7
  9 "Bip01 L Arm2" 8
 10 "Bip01 L Hand" 9
 11 "Bip06 L elbow2-smooth" 8
 12 "Bip01 R Arm" 6
 13 "Bip01 R Arm1" 12
 14 "Bip01 R Arm2" 13
 15 "Bip01 R Hand" 14
 16 "Bip06 R elbow2-smooth" 13
 17 "Bip01 Head" 6
 18 "Bip06 Head_helper" 17
 19 "Bip06 Head_eyes_l" 18
 20 "Bip06 Head_eyes_r" 18
 21 "Bip06 Head_blink_l" 18
 22 "Bip06 Head_blink_smooth_l1" 21
 23 "Bip06 Head_blink_r" 18
 24 "Bip06 Head_blink_smooth_r1" 23
 25 "Bip06 Head_L_eyebrow" 18
 26 "Bip06 Head_R_eyebrow" 18
 27 "Bip06 Head_blink_l_lid" 18
 28 "Bip06 Head_blink_r_lid" 18
 29 "Bip06 bunny" 18
 30 "Bip06 bunnyL" 29
 31 "Bip06 bunnyR" 29
 32 "Bip01 L Leg" 1
 33 "Bip01 L Leg1" 32
 34 "Bip01 L Foot" 33
 35 "Bip01 R Leg" 1
 36 "Bip01 R Leg1" 35
 37 "Bip01 R Foot" 36
 38 "Bip03 HairR1" 17
 39 "Bip03 HairR2" 38
 40 "Bip03 HairL1" 17
 41 "Bip03 HairL2" 40
 42 "Bip03 swingR" 17
 43 "Bip03 swingL" 17
end
skeleton
time 0
  0   0.180926 0.281259 2.324661 0.000000 0.000000 -1.571829
  1   -1.093036 0.000002 -0.326057 -1.565882 -1.570749 -0.005784
  2   2.262337 0.113614 0.064702 -0.069701 0.000612 0.009457
  3   2.380047 0.353302 0.047440 0.000000 -0.000040 -0.069705
  4   2.033756 0.190472 -0.000128 -0.078354 0.000072 -0.000134
  5   2.451511 0.204909 -0.003447 0.000000 -0.000005 0.017373
  6   7.247600 -0.397300 -0.109469 0.000001 0.000009 0.470865
  7   -2.022252 -0.104661 3.136172 -0.000281 -1.370712 -3.613165
  8   1.168026 -0.537438 -0.063437 0.483634 1.160465 0.758240
  9   6.790376 -0.619176 0.015206 -0.000102 -0.000085 -0.287004
 10   8.637599 0.544015 -0.090417 -1.570376 0.000292 -0.069354
 11   6.790465 -0.619039 0.017802 -0.002356 -0.010884 -0.216079
 12   -2.022474 -0.104699 -2.873818 0.000434 1.370594 -3.612861
 13   1.167898 -0.537463 0.063297 -0.592457 -1.258849 0.836439
 14   7.002743 -0.617765 -0.183752 0.000059 0.000137 -1.289725
 15   8.209042 0.615527 -0.255885 1.570090 -0.000139 -0.069526
 16   7.002735 -0.617911 -0.183641 0.013826 0.007029 -0.921489
 17   1.574674 0.609930 -0.000899 0.158220 -0.045030 -0.152139
 18   -0.602177 0.511412 -0.000006 0.000000 0.000000 0.000000
 19   3.673773 0.177020 1.119313 -0.000002 -0.000014 -0.174510
 20   3.673767 0.176993 -1.117566 0.000007 -0.000003 -0.174546
 21   3.938451 1.334540 1.627658 0.000002 -0.000011 -0.000026
 22   -0.246060 -0.011889 0.516521 -0.000011 0.000031 0.000025
 23   3.942374 1.334565 -1.631083 0.000019 0.000002 -0.000024
 24   -0.246150 -0.011872 -0.516511 -0.000005 -0.000006 0.000048
 25   4.941364 1.997338 1.629330 0.000018 -0.000001 -0.000024
 26   4.941382 1.997366 -1.629410 -0.000001 0.000005 -0.000024
 27   2.914462 1.623171 1.514501 -0.000019 -0.000022 -0.000050
 28   2.916892 1.622777 -1.501142 -0.000002 -0.000009 -0.000024
 29   8.824059 0.150544 0.091743 0.000006 -0.000231 -0.174534
 30   2.111085 -0.561179 1.784320 -0.000008 -0.000682 0.000024
 31   2.121290 -0.561289 -1.853599 0.000000 0.000000 -0.000002
 32   -0.814395 -0.093824 3.127092 -0.055295 -3.106942 -0.209929
 33   14.298673 -0.408176 0.471578 -0.000064 -0.000054 -0.234254
 34   15.835795 0.581398 0.242756 -0.095398 -0.022475 0.023546
 35   -0.815868 -0.091229 -3.114430 0.257807 3.091595 0.080681
 36   14.294526 -0.410349 -0.467541 0.000057 0.000048 -0.127310
 37   15.834409 0.579420 -0.284600 -0.017992 0.068918 0.192504
 38   1.139685 -3.453749 -2.823813 0.000000 0.000000 0.000001
 39   -4.457742 -1.054854 -0.746180 0.000000 0.000000 0.000000
 40   1.118101 -3.449769 3.237290 0.000000 0.000001 0.000000
 41   -4.433840 -1.059130 0.959566 -0.000001 0.000000 0.000000
 42   -0.657468 1.697302 -2.688614 0.000000 0.000002 0.000000
 43   -0.664068 1.698578 2.869377 0.000000 0.000002 0.000000
time 1
  0   0.188739 3.289163 8.277967 0.566200 -0.235240 -2.740126
  1   -1.093036 0.000002 -0.326057 -1.376966 -1.570749 0.008006
  2   2.262337 0.113614 0.064702 -0.069701 0.000612 0.009457
  3   2.380047 0.353302 0.047440 0.000000 -0.000040 -0.069705
  4   2.033756 0.190472 -0.000128 -0.078354 0.000072 -0.000134
  5   2.451511 0.204909 -0.003447 0.000000 -0.000005 0.017373
  6   7.247600 -0.397300 -0.109469 0.000001 0.000009 0.470865
  7   -2.022252 -0.104661 3.136172 -0.000281 -1.370712 -3.613165
  8   1.168026 -0.537438 -0.063437 0.409406 0.583461 1.556649
  9   6.790376 -0.619176 0.015206 -0.000102 -0.000085 -0.287004
 10   8.637599 0.544015 -0.090417 -1.570376 0.000292 -0.069354
 11   6.790465 -0.619039 0.017802 -0.002356 -0.010884 -0.216021
 12   -2.022474 -0.104699 -2.873818 0.000434 1.370594 -3.612861
 13   1.167898 -0.537463 0.063297 -0.520543 -0.715011 1.060418
 14   7.002743 -0.617765 -0.183752 0.000059 0.000137 -0.216908
 15   8.209042 0.615527 -0.255885 1.570090 -0.000139 -0.069526
 16   7.002735 -0.617911 -0.183641 0.014626 0.001560 -0.170370
 17   1.574674 0.609930 -0.000899 0.141566 0.084404 -0.961919
 18   -0.602177 0.511412 -0.000006 0.000000 0.000000 0.000000
 19   3.673773 0.192646 1.119313 -0.000002 -0.000014 -0.174510
 20   3.673767 0.192619 -1.117566 0.000007 -0.000003 -0.174546
 21   3.829072 1.334540 1.619845 0.000002 -0.000011 -0.000026
 22   -0.246060 -0.086110 0.512615 0.000005 -0.005949 0.092568
 23   3.832995 1.334565 -1.627177 0.000019 0.000002 -0.000024
 24   -0.230525 -0.066561 -0.520417 0.000007 -0.005986 0.092596
 25   4.839798 2.005151 1.621517 0.010636 -0.003057 -0.017533
 26   4.835910 2.009085 -1.617691 -0.014670 -0.002951 -0.019115
 27   2.953525 1.603639 1.514501 -0.000019 -0.000022 -0.000050
 28   2.955955 1.603245 -1.501142 -0.000002 -0.000009 -0.000024
 29   8.824059 0.150544 0.091743 0.003036 -0.002534 -0.105382
 30   2.111085 -0.561179 1.784320 -0.000008 -0.000682 0.000024
 31   2.121290 -0.561289 -1.853599 0.000000 0.000000 -0.000002
 32   -0.814395 -0.093824 3.127092 -0.497293 -3.516669 0.347623
 33   14.298673 -0.408176 0.471578 -0.000064 -0.000054 -0.600756
 34   15.835795 0.581398 0.242756 -0.126520 0.446393 -0.480326
 35   -0.815868 -0.091229 -3.114430 0.257807 3.091595 0.080681
 36   14.294526 -0.410349 -0.467541 0.000057 0.000048 -0.554315
 37   15.834409 0.579420 -0.284600 -0.068430 0.019954 -0.408872
 38   1.155311 -3.481093 -2.823813 -0.006146 0.033356 0.119135
 39   -4.457742 -1.054854 -0.746180 0.000000 0.000000 0.000000
 40   1.102476 -3.422424 3.237290 -0.007704 0.009304 0.145833
 41   -4.433840 -1.059130 0.959566 -0.000001 0.000000 0.000000
 42   -0.591060 1.783242 -2.692520 -0.003116 -0.001010 -0.055666
 43   -0.593753 1.804050 2.865470 -0.003111 -0.001018 -0.055666
time 2
  0   0.188739 4.050905 11.090553 0.695820 0.049431 3.048970
  1   -1.093036 0.000002 -0.326057 -1.729278 -1.570749 0.074540
  2   2.262337 0.113614 0.064702 -0.069701 0.000612 0.009457
  3   2.380047 0.353302 0.047440 0.000000 -0.000040 -0.069705
  4   2.033756 0.190472 -0.000128 -0.078354 0.000072 -0.000134
  5   2.451511 0.204909 -0.003447 0.000000 -0.000005 0.017373
  6   7.247600 -0.397300 -0.109469 0.000001 0.000009 0.470865
  7   -2.022252 -0.104661 3.136172 -0.000281 -1.370712 -3.613165
  8   1.168026 -0.537438 -0.063437 0.408520 0.538127 1.634839
  9   6.790376 -0.619176 0.015206 -0.000102 -0.000085 -0.287004
 10   8.637599 0.544015 -0.090417 -1.570376 0.000292 -0.069354
 11   6.790465 -0.619039 0.017802 -0.002356 -0.010884 -0.216021
 12   -2.022474 -0.104699 -2.873818 0.000434 1.370594 -3.612861
 13   1.167898 -0.537463 0.063297 -0.301219 -0.778121 0.765674
 14   7.002743 -0.617765 -0.183752 0.000059 0.000137 -0.216908
 15   8.209042 0.615527 -0.255885 1.570090 -0.000139 -0.069526
 16   7.002735 -0.617911 -0.183641 0.014626 0.001560 -0.170370
 17   1.574674 0.609930 -0.000899 0.141566 0.084404 -0.961919
 18   -0.602177 0.511412 -0.000006 0.000000 0.000000 0.000000
 19   3.669866 0.223897 1.127126 -0.000002 -0.000014 -0.174510
 20   3.669860 0.223870 -1.109753 0.000007 -0.000003 -0.174546
 21   3.571252 1.330634 1.600313 0.000002 -0.000011 -0.000026
 22   -0.242154 -0.273616 0.500896 0.000068 -0.020211 0.313307
 23   3.579082 1.330659 -1.615458 0.000019 0.000002 -0.000024
 24   -0.187554 -0.203284 -0.528230 0.000055 -0.020236 0.313358
 25   4.593697 2.032495 1.594173 0.036008 -0.010353 -0.059288
 26   4.578090 2.048149 -1.590346 -0.049677 -0.010024 -0.064645
 27   3.047278 1.564575 1.514501 -0.000019 -0.000022 -0.000050
 28   3.049708 1.564181 -1.501142 -0.000002 -0.000009 -0.000024
 29   8.824059 0.150544 0.091743 0.024961 -0.011056 0.059533
 30   2.111085 -0.561179 1.784320 -0.000008 -0.000682 0.000024
 31   2.121290 -0.561289 -1.853599 0.000000 0.000000 -0.000002
 32   -0.814395 -0.093824 3.127092 -0.639623 -3.508838 0.311990
 33   14.298673 -0.408176 0.471578 -0.000064 -0.000054 -0.600756
 34   15.835795 0.581398 0.242756 -0.068554 0.565654 -0.484693
 35   -0.815868 -0.091229 -3.114430 0.355503 3.087379 0.002842
 36   14.294526 -0.410349 -0.467541 0.000057 0.000048 -0.599271
 37   15.834409 0.579420 -0.284600 -0.121449 -0.086369 -0.526197
 38   1.198281 -3.555315 -2.819907 -0.020818 0.112902 0.403225
 39   -4.457742 -1.054854 -0.746180 0.000000 0.000000 0.000000
 40   1.059505 -3.348203 3.233384 -0.026080 0.031525 0.493766
 41   -4.433840 -1.059130 0.959566 -0.000001 0.000000 0.000000
 42   -0.426992 1.994186 -2.700333 -0.010546 -0.003448 -0.188535
 43   -0.417967 2.057964 2.853751 -0.010545 -0.003450 -0.188535
time 3
  0   0.188739 4.343883 13.239057 0.655613 0.330456 2.668309
  1   -1.093036 0.000002 -0.326057 -1.502893 -1.570749 -0.025672
  2   2.262337 0.113614 0.064702 -0.069701 0.000612 0.009457
  3   2.380047 0.353302 0.047440 0.000000 -0.000040 -0.069705
  4   2.033756 0.190472 -0.000128 -0.078354 0.000072 -0.000134
  5   2.451511 0.204909 -0.003447 0.000000 -0.000005 0.017373
  6   7.247600 -0.397300 -0.109469 0.000001 0.000009 0.470865
  7   -2.022252 -0.104661 3.136172 -0.000281 -1.370712 -3.613165
  8   1.168026 -0.537438 -0.063437 0.429719 0.509146 1.699997
  9   6.790376 -0.619176 0.015206 -0.000102 -0.000085 -0.287004
 10   8.637599 0.544015 -0.090417 -1.570376 0.000292 -0.069354
 11   6.790465 -0.619039 0.017802 -0.002356 -0.010884 -0.216021
 12   -2.022474 -0.104699 -2.873818 0.000434 1.370594 -3.612861
 13   1.167898 -0.537463 0.063297 -0.025376 -0.810668 0.393446
 14   7.002743 -0.617765 -0.183752 0.000059 0.000137 -0.216908
 15   8.209042 0.615527 -0.255885 1.570090 -0.000139 -0.069526
 16   7.002735 -0.617911 -0.183641 0.014626 0.001560 -0.170370
 17   1.574674 0.609930 -0.000899 0.141566 0.084404 -0.961919
 18   -0.602177 0.511412 -0.000006 0.000000 0.000000 0.000000
 19   3.669866 0.262960 1.138845 -0.000002 -0.000014 -0.174510
 20   3.669860 0.262933 -1.098034 0.000007 -0.000003 -0.174546
 21   3.258742 1.326728 1.576875 0.000002 -0.000011 -0.000026
 22   -0.234341 -0.492372 0.489176 0.000131 -0.037229 0.576779
 23   3.270478 1.322846 -1.599832 0.000019 0.000002 -0.000024
 24   -0.132865 -0.367352 -0.539949 0.000115 -0.037254 0.576821
 25   4.300719 2.059840 1.559015 0.066281 -0.019062 -0.109132
 26   4.269486 2.091119 -1.555189 -0.091467 -0.018456 -0.118995
 27   3.160563 1.513793 1.514501 -0.000019 -0.000022 -0.000050
 28   3.162993 1.513399 -1.501142 -0.000002 -0.000009 -0.000024
 29   8.824059 0.150544 0.091743 0.084406 -0.028266 0.256421
 30   2.111085 -0.561179 1.784320 -0.000008 -0.000682 0.000024
 31   2.121290 -0.561289 -1.853599 0.000000 0.000000 -0.000002
 32   -0.814395 -0.093824 3.127092 -0.759024 -3.455831 0.246415
 33   14.298673 -0.408176 0.471578 -0.000064 -0.000054 -0.600756
 34   15.835795 0.581398 0.242756 -0.014866 0.652873 -0.535234
 35   -0.815868 -0.091229 -3.114430 0.466050 3.073326 -0.082008
 36   14.294526 -0.410349 -0.467541 0.000057 0.000048 -0.615029
 37   15.834409 0.579420 -0.284600 -0.167769 -0.204082 -0.606407
 38   1.249063 -3.641255 -2.812094 -0.038351 0.207836 0.742299
 39   -4.457742 -1.054854 -0.746180 0.000000 0.000000 0.000000
 40   1.008723 -3.262263 3.225571 -0.048013 0.058037 0.908964
 41   -4.433840 -1.059130 0.959566 -0.000001 0.000000 0.000000
 42   -0.231674 2.248100 -2.712052 -0.019427 -0.006361 -0.347084
 43   -0.210929 2.362661 2.842032 -0.019428 -0.006369 -0.347084
time 4
  0   0.188739 4.906400 14.563315 0.504775 0.560450 2.301233
  1   -1.093036 0.000002 -0.326057 -1.657590 -1.570749 0.041491
  2   2.262337 0.113614 0.064702 -0.069701 0.000612 0.009457
  3   2.380047 0.353302 0.047440 0.000000 -0.000040 -0.069705
  4   2.033756 0.190472 -0.000128 -0.078354 0.000072 -0.000134
  5   2.451511 0.204909 -0.003447 0.000000 -0.000005 0.017373
  6   7.247600 -0.397300 -0.109469 0.000001 0.000009 0.470865
  7   -2.022252 -0.104661 3.136172 -0.000281 -1.370712 -3.613165
  8   1.168026 -0.537438 -0.063437 0.451361 0.490933 1.744216
  9   6.790376 -0.619176 0.015206 -0.000102 -0.000085 -0.287004
 10   8.637599 0.544015 -0.090417 -1.570376 0.000292 -0.069354
 11   6.790465 -0.619039 0.017802 -0.002356 -0.010884 -0.216021
 12   -2.022474 -0.104699 -2.873818 0.000434 1.370594 -3.612861
 13   1.167898 -0.537463 0.063297 0.217357 -0.786766 0.063955
 14   7.002743 -0.617765 -0.183752 0.000059 0.000137 -0.216908
 15   8.209042 0.615527 -0.255885 1.570090 -0.000139 -0.069526
 16   7.002735 -0.617911 -0.183641 0.014626 0.001560 -0.170370
 17   1.574674 0.609930 -0.000899 0.141566 0.084404 -0.961919
 18   -0.602177 0.511412 -0.000006 0.000000 0.000000 0.000000
 19   3.665960 0.298118 1.142751 -0.000002 -0.000014 -0.174510
 20   3.665954 0.298091 -1.094128 0.000007 -0.000003 -0.174546
 21   2.997015 1.322821 1.557343 0.000002 -0.000011 -0.000026
 22   -0.230435 -0.679878 0.477457 0.000178 -0.051491 0.797518
 23   3.012658 1.318940 -1.588113 0.000019 0.000002 -0.000024
 24   -0.089895 -0.507981 -0.547762 0.000163 -0.051516 0.797556
 25   4.054618 2.087184 1.531671 0.091640 -0.026359 -0.150886
 26   4.011666 2.126276 -1.527844 -0.126474 -0.025516 -0.164536
 27   3.254316 1.474729 1.514501 -0.000019 -0.000022 -0.000050
 28   3.256746 1.474335 -1.501142 -0.000002 -0.000009 -0.000024
 29   8.824059 0.150544 0.091743 0.200266 -0.056538 0.421389
 30   2.111085 -0.561179 1.784320 -0.000008 -0.000682 0.000024
 31   2.121290 -0.561289 -1.853599 0.000000 0.000000 -0.000002
 32   -0.814395 -0.093824 3.127092 -0.843378 -3.398144 0.193933
 33   14.298673 -0.408176 0.471578 -0.000064 -0.000054 -0.600756
 34   15.835795 0.581398 0.242756 0.025136 0.715249 -0.586349
 35   -0.815868 -0.091229 -3.114430 0.553976 3.055338 -0.153767
 36   14.294526 -0.410349 -0.467541 0.000057 0.000048 -0.620822
 37   15.834409 0.579420 -0.284600 -0.201401 -0.298912 -0.662230
 38   1.288127 -3.711569 -2.808187 -0.053023 0.287382 1.026388
 39   -4.457742 -1.054854 -0.746180 0.000000 0.000000 0.000000
 40   0.969659 -3.191949 3.221664 -0.066410 0.080246 1.256836
 41   -4.433840 -1.059130 0.959566 -0.000001 0.000000 0.000000
 42   -0.063700 2.459044 -2.723771 -0.026869 -0.008814 -0.479912
 43   -0.035143 2.616575 2.830313 -0.026862 -0.008817 -0.479912
time 5
  0   0.188739 6.504105 14.938327 0.205163 0.739147 1.821964
  1   -1.093036 0.000002 -0.326057 -1.564730 -1.570749 -0.016333
  2   2.262337 0.113614 0.064702 -0.069701 0.000612 0.009457
  3   2.380047 0.353302 0.047440 0.000000 -0.000040 -0.069705
  4   2.033756 0.190472 -0.000128 -0.078354 0.000072 -0.000134
  5   2.451511 0.204909 -0.003447 0.000000 -0.000005 0.017373
  6   7.247600 -0.397300 -0.109469 0.000001 0.000009 0.470865
  7   -2.022252 -0.104661 3.136172 -0.000281 -1.370712 -3.613165
  8   1.168026 -0.537438 -0.063437 0.469143 0.479863 1.773063
  9   6.790376 -0.619176 0.015206 -0.000102 -0.000085 -0.287004
 10   8.637599 0.544015 -0.090417 -1.570376 0.000292 -0.069354
 11   6.790465 -0.619039 0.017802 -0.002356 -0.010884 -0.216021
 12   -2.022474 -0.104699 -2.873818 0.000434 1.370594 -3.612861
 13   1.167898 -0.537463 0.063297 0.398229 -0.729148 -0.192047
 14   7.002743 -0.617765 -0.183752 0.000059 0.000137 -0.216908
 15   8.209042 0.615527 -0.255885 1.570090 -0.000139 -0.069526
 16   7.002735 -0.617911 -0.183641 0.014626 0.001560 -0.170370
 17   1.574674 0.609930 -0.000899 0.141566 0.084404 -0.961919
 18   -0.602177 0.511412 -0.000006 0.000000 0.000000 0.000000
 19   3.665960 0.309837 1.146658 -0.000002 -0.000014 -0.174510
 20   3.665954 0.309810 -1.090221 0.000007 -0.000003 -0.174546
 21   2.887637 1.322821 1.549531 0.000002 -0.000011 -0.000026
 22   -0.226528 -0.758005 0.473551 0.000194 -0.057471 0.890061
 23   2.903280 1.315034 -1.584207 0.000019 0.000002 -0.000024
 24   -0.074270 -0.562670 -0.551668 0.000187 -0.057496 0.890104
 25   3.953053 2.094997 1.523858 0.102271 -0.029428 -0.168407
 26   3.902288 2.141901 -1.516125 -0.141155 -0.028485 -0.183628
 27   3.293379 1.455197 1.514501 -0.000019 -0.000022 -0.000050
 28   3.295809 1.454803 -1.501142 -0.000002 -0.000009 -0.000024
 29   8.824059 0.150544 0.091743 0.391257 -0.098316 0.490541
 30   2.111085 -0.561179 1.784320 -0.000008 -0.000682 0.000024
 31   2.121290 -0.561289 -1.853599 0.000000 0.000000 -0.000002
 32   -0.814395 -0.093824 3.127092 -0.907786 -3.340744 0.152437
 33   14.298673 -0.408176 0.471578 -0.000064 -0.000054 -0.600756
 34   15.835795 0.581398 0.242756 0.058444 0.764398 -0.633671
 35   -0.815868 -0.091229 -3.114430 0.617963 3.038286 -0.211941
 36   14.294526 -0.410349 -0.467541 0.000057 0.000048 -0.624298
 37   15.834409 0.579420 -0.284600 -0.224630 -0.369376 -0.704262
 38   1.307659 -3.742820 -2.804281 -0.059190 0.320750 1.145584
 39   -4.457742 -1.054854 -0.746180 0.000000 0.000000 0.000000
 40   0.950127 -3.160698 3.217758 -0.074114 0.089561 1.402730
 41   -4.433840 -1.059130 0.959566 -0.000001 0.000000 0.000000
 42   0.002708 2.544984 -2.727678 -0.029985 -0.009826 -0.535619
 43   0.035172 2.722047 2.826407 -0.029986 -0.009837 -0.535619
time 6
  0   0.188739 9.699514 14.039862 -0.263616 0.821383 1.185281
  1   -1.093036 0.000002 -0.326057 -1.547698 -1.570749 0.005103
  2   2.262337 0.113614 0.064702 -0.069701 0.000612 0.009457
  3   2.380047 0.353302 0.047440 0.000000 -0.000040 -0.069705
  4   2.033756 0.190472 -0.000128 -0.078354 0.000072 -0.000134
  5   2.451511 0.204909 -0.003447 0.000000 -0.000005 0.017373
  6   7.247600 -0.397300 -0.109469 0.000001 0.000009 0.470865
  7   -2.022252 -0.104661 3.136172 -0.000281 -1.370712 -3.613165
  8   1.168026 -0.537438 -0.063437 0.483634 0.473926 1.791598
  9   6.790376 -0.619176 0.015206 -0.000102 -0.000085 -0.287004
 10   8.637599 0.544015 -0.090417 -1.570376 0.000292 -0.069354
 11   6.790465 -0.619039 0.017802 -0.002356 -0.010884 -0.216021
 12   -2.022474 -0.104699 -2.873818 0.000434 1.370594 -3.612861
 13   1.167898 -0.537463 0.063297 0.533549 -0.653070 -0.398652
 14   7.002743 -0.617765 -0.183752 0.000059 0.000137 -0.216908
 15   8.209042 0.615527 -0.255885 1.570090 -0.000139 -0.069526
 16   7.002735 -0.617911 -0.183641 0.014626 0.001560 -0.170370
 17   1.574674 0.609930 -0.000899 0.141566 0.084404 -0.961919
 18   -0.602177 0.511412 -0.000006 0.000000 0.000000 0.000000
 19   3.665960 0.309837 1.146658 -0.000002 -0.000014 -0.174510
 20   3.665954 0.309810 -1.090221 0.000007 -0.000003 -0.174546
 21   2.887637 1.322821 1.549531 0.000002 -0.000011 -0.000026
 22   -0.226528 -0.758005 0.473551 0.000194 -0.057471 0.890061
 23   2.903280 1.315034 -1.584207 0.000019 0.000002 -0.000024
 24   -0.074270 -0.562670 -0.551668 0.000187 -0.057496 0.890104
 25   3.953053 2.094997 1.523858 0.102271 -0.029428 -0.168407
 26   3.902288 2.141901 -1.516125 -0.141155 -0.028485 -0.183628
 27   3.293379 1.455197 1.514501 -0.000019 -0.000022 -0.000050
 28   3.295809 1.454803 -1.501142 -0.000002 -0.000009 -0.000024
 29   8.824059 0.150544 0.091743 0.924749 -0.154718 0.449662
 30   2.111085 -0.561179 1.784320 -0.000008 -0.000682 0.000024
 31   2.121290 -0.561289 -1.853599 0.000000 0.000000 -0.000002
 32   -0.814395 -0.093824 3.127092 -0.959703 -3.282007 0.119764
 33   14.298673 -0.408176 0.471578 -0.000064 -0.000054 -0.600756
 34   15.835795 0.581398 0.242756 0.090578 0.805567 -0.677421
 35   -0.815868 -0.091229 -3.114430 0.661266 3.024139 -0.262063
 36   14.294526 -0.410349 -0.467541 0.000057 0.000048 -0.628701
 37   15.834409 0.579420 -0.284600 -0.238914 -0.419825 -0.739652
 38   1.295940 -3.676412 -2.804281 -0.033152 0.259654 1.123590
 39   -4.457742 -1.054854 -0.746180 0.000000 0.000000 0.000000
 40   0.961846 -3.227106 3.217758 0.000821 0.061845 1.382569
 41   -4.433840 -1.059130 0.959566 -0.000001 0.000000 0.000000
 42   0.002708 2.544984 -2.727678 -0.029985 -0.009826 -0.535619
 43   0.035172 2.722047 2.826407 -0.029986 -0.009837 -0.535619
time 7
  0   0.169207 13.969176 11.910891 -0.757493 0.715854 0.554582
  1   -1.093036 0.000002 -0.326057 -1.574477 -1.570749 -0.010333
  2   2.262337 0.113614 0.064702 -0.069701 0.000612 0.009457
  3   2.380047 0.353302 0.047440 0.000000 -0.000040 -0.069705
  4   2.033756 0.190472 -0.000128 -0.078354 0.000072 -0.000134
  5   2.451511 0.204909 -0.003447 0.000000 -0.000005 0.017373
  6   7.247600 -0.397300 -0.109469 0.000001 0.000009 0.470865
  7   -2.022252 -0.104661 3.136172 -0.000281 -1.370712 -3.613165
  8   1.168026 -0.537438 -0.063437 0.496037 0.472165 1.801783
  9   6.790376 -0.619176 0.015206 -0.000102 -0.000085 -0.287004
 10   8.637599 0.544015 -0.090417 -1.570376 0.000292 -0.069354
 11   6.790465 -0.619039 0.017802 -0.002356 -0.010884 -0.216021
 12   -2.022474 -0.104699 -2.873818 0.000434 1.370594 -3.612861
 13   1.167898 -0.537463 0.063297 0.643352 -0.557361 -0.585341
 14   7.002743 -0.617765 -0.183752 0.000059 0.000137 -0.216908
 15   8.209042 0.615527 -0.255885 1.570090 -0.000139 -0.069526
 16   7.002735 -0.617911 -0.183641 0.014626 0.001560 -0.170370
 17   1.574674 0.609930 -0.000899 0.141566 0.084404 -0.961919
 18   -0.602177 0.511412 -0.000006 0.000000 0.000000 0.000000
 19   3.665960 0.309837 1.146658 -0.000002 -0.000014 -0.174510
 20   3.665954 0.309810 -1.090221 0.000007 -0.000003 -0.174546
 21   2.887637 1.322821 1.549531 0.000002 -0.000011 -0.000026
 22   -0.226528 -0.758005 0.473551 0.000194 -0.057471 0.890061
 23   2.903280 1.315034 -1.584207 0.000019 0.000002 -0.000024
 24   -0.074270 -0.562670 -0.551668 0.000187 -0.057496 0.890104
 25   3.953053 2.094997 1.523858 0.102271 -0.029428 -0.168407
 26   3.902288 2.141901 -1.516125 -0.141155 -0.028485 -0.183628
 27   3.293379 1.455197 1.514501 -0.000019 -0.000022 -0.000050
 28   3.295809 1.454803 -1.501142 -0.000002 -0.000009 -0.000024
 29   8.824059 0.150544 0.091743 1.857157 -0.221232 0.349876
 30   2.111085 -0.561179 1.784320 -0.000008 -0.000682 0.000024
 31   2.121290 -0.561289 -1.853599 0.000000 0.000000 -0.000002
 32   -0.814395 -0.093824 3.127092 -0.983938 -3.238647 0.109461
 33   14.298673 -0.408176 0.471578 -0.000064 -0.000054 -0.600756
 34   15.835795 0.581398 0.242756 0.122552 0.823601 -0.695635
 35   -0.815868 -0.091229 -3.114430 0.679309 3.017206 -0.306159
 36   14.294526 -0.410349 -0.467541 0.000057 0.000048 -0.637044
 37   15.834409 0.579420 -0.284600 -0.241121 -0.446290 -0.771949
 38   1.260782 -3.520157 -2.808187 0.028879 0.113974 1.063961
 39   -4.457742 -1.054854 -0.746180 0.000000 0.000000 0.000000
 40   0.997004 -3.383361 3.221664 0.179570 -0.004229 1.324896
 41   -4.433840 -1.059130 0.959566 -0.000001 0.000000 0.000000
 42   0.002708 2.544984 -2.727678 -0.029985 -0.009826 -0.535619
 43   0.035172 2.722047 2.826407 -0.029986 -0.009837 -0.535619
time 8
  0   0.173114 18.426344 8.664698 -1.057683 0.417048 0.155682
  1   -1.093036 0.000002 -0.326057 -1.590093 -1.570749 -0.020639
  2   2.262337 0.113614 0.064702 -0.069701 0.000612 0.009457
  3   2.380047 0.353302 0.047440 0.000000 -0.000040 -0.069705
  4   2.033756 0.190472 -0.000128 -0.078354 0.000072 -0.000134
  5   2.451511 0.204909 -0.003447 0.000000 -0.000005 0.017373
  6   7.247600 -0.397300 -0.109469 0.000001 0.000009 0.470865
  7   -2.022252 -0.104661 3.136172 -0.000281 -1.370712 -3.613165
  8   1.168026 -0.537438 -0.063437 0.504516 0.478103 1.798620
  9   6.790376 -0.619176 0.015206 -0.000102 -0.000085 -0.287004
 10   8.637599 0.544015 -0.090417 -1.570376 0.000292 -0.069354
 11   6.790465 -0.619039 0.017802 -0.002356 -0.010884 -0.216021
 12   -2.022474 -0.104699 -2.873818 0.000434 1.370594 -3.612861
 13   1.167898 -0.537463 0.063297 0.735159 -0.433734 -0.769367
 14   7.002743 -0.617765 -0.183752 0.000059 0.000137 -0.216908
 15   8.209042 0.615527 -0.255885 1.570090 -0.000139 -0.069526
 16   7.002735 -0.617911 -0.183641 0.014626 0.001560 -0.170370
 17   1.574674 0.609930 -0.000899 0.141566 0.084404 -0.961919
 18   -0.602177 0.511412 -0.000006 0.000000 0.000000 0.000000
 19   3.665960 0.309837 1.146658 -0.000002 -0.000014 -0.174510
 20   3.665954 0.309810 -1.090221 0.000007 -0.000003 -0.174546
 21   2.887637 1.322821 1.549531 0.000002 -0.000011 -0.000026
 22   -0.226528 -0.758005 0.473551 0.000194 -0.057471 0.890061
 23   2.903280 1.315034 -1.584207 0.000019 0.000002 -0.000024
 24   -0.074270 -0.562670 -0.551668 0.000187 -0.057496 0.890104
 25   3.953053 2.094997 1.523858 0.102271 -0.029428 -0.168407
 26   3.902288 2.141901 -1.516125 -0.141155 -0.028485 -0.183628
 27   3.293379 1.455197 1.514501 -0.000019 -0.000022 -0.000050
 28   3.295809 1.454803 -1.501142 -0.000002 -0.000009 -0.000024
 29   8.824059 0.150544 0.091743 2.891166 -0.292066 0.225466
 30   2.111085 -0.561179 1.784320 -0.000008 -0.000682 0.000024
 31   2.121290 -0.561289 -1.853599 0.000000 0.000000 -0.000002
 32   -0.814395 -0.093824 3.127092 -0.884763 -3.276277 0.205432
 33   14.298673 -0.408176 0.471578 -0.000064 -0.000054 -0.600756
 34   15.835795 0.581398 0.242756 0.154848 0.722399 -0.586129
 35   -0.815868 -0.091229 -3.114430 0.660474 3.022828 -0.339628
 36   14.294526 -0.410349 -0.467541 0.000057 0.000048 -0.646081
 37   15.834409 0.579420 -0.284600 -0.231013 -0.435924 -0.795323
 38   1.213906 -3.336558 -2.808187 0.102951 -0.059879 0.976047
 39   -4.457742 -1.054854 -0.746180 0.000000 0.000000 0.000000
 40   1.043880 -3.566960 3.221664 0.392902 -0.083112 1.233804
 41   -4.433840 -1.059130 0.959566 -0.000001 0.000000 0.000000
 42   0.002708 2.544984 -2.727678 -0.029985 -0.009826 -0.535619
 43   0.035172 2.722047 2.826407 -0.029986 -0.009837 -0.535619
time 9
  0   0.173114 22.125675 4.887239 -1.171451 0.019826 -0.028761
  1   -1.093036 0.000002 -0.326057 -1.525846 -1.570749 -0.031043
  2   2.262337 0.113614 0.064702 -0.069701 0.000612 0.009457
  3   2.380047 0.353302 0.047440 0.000000 -0.000040 -0.069705
  4   2.033756 0.190472 -0.000128 -0.078354 0.000072 -0.000134
  5   2.451511 0.204909 -0.003447 0.000000 -0.000005 0.017373
  6   7.247600 -0.397300 -0.109469 0.000001 0.000009 0.470865
  7   -2.022252 -0.104661 3.136172 -0.000281 -1.370712 -3.613165
  8   1.168026 -0.537438 -0.063437 0.498758 0.501499 1.762246
  9   6.790376 -0.619176 0.015206 -0.000102 -0.000085 -0.287004
 10   8.637599 0.544015 -0.090417 -1.570376 0.000292 -0.069354
 11   6.790465 -0.619039 0.017802 -0.002356 -0.010884 -0.216021
 12   -2.022474 -0.104699 -2.873818 0.000434 1.370594 -3.612861
 13   1.167898 -0.537463 0.063297 0.802643 -0.285086 -0.947581
 14   7.002743 -0.617765 -0.183752 0.000059 0.000137 -0.216908
 15   8.209042 0.615527 -0.255885 1.570090 -0.000139 -0.069526
 16   7.002735 -0.617911 -0.183641 0.014626 0.001560 -0.170370
 17   1.574674 0.609930 -0.000899 0.141566 0.084404 -0.961919
 18   -0.602177 0.511412 -0.000006 0.000000 0.000000 0.000000
 19   3.665960 0.309837 1.146658 -0.000002 -0.000014 -0.174510
 20   3.665954 0.309810 -1.090221 0.000007 -0.000003 -0.174546
 21   2.887637 1.322821 1.549531 0.000002 -0.000011 -0.000026
 22   -0.226528 -0.758005 0.473551 0.000194 -0.057471 0.890061
 23   2.903280 1.315034 -1.584207 0.000019 0.000002 -0.000024
 24   -0.074270 -0.562670 -0.551668 0.000187 -0.057496 0.890104
 25   3.953053 2.094997 1.523858 0.102271 -0.029428 -0.168407
 26   3.902288 2.141901 -1.516125 -0.141155 -0.028485 -0.183628
 27   3.293379 1.455197 1.514501 -0.000019 -0.000022 -0.000050
 28   3.295809 1.454803 -1.501142 -0.000002 -0.000009 -0.000024
 29   8.824059 0.150544 0.091743 -2.553466 -0.361428 0.110767
 30   2.111085 -0.561179 1.784320 -0.000008 -0.000682 0.000024
 31   2.121290 -0.561289 -1.853599 0.000000 0.000000 -0.000002
 32   -0.814395 -0.093824 3.127092 -0.620608 -3.350009 0.408131
 33   14.298673 -0.408176 0.471578 -0.000064 -0.000054 -0.600756
 34   15.835795 0.581398 0.242756 0.118572 0.481486 -0.409365
 35   -0.815868 -0.091229 -3.114430 0.622979 3.037630 -0.363292
 36   14.294526 -0.410349 -0.467541 0.000057 0.000048 -0.650561
 37   15.834409 0.579420 -0.284600 -0.218286 -0.403827 -0.807694
 38   1.155311 -3.180303 -2.808187 0.165004 -0.205559 0.869131
 39   -4.457742 -1.054854 -0.746180 0.000000 0.000000 0.000000
 40   1.102476 -3.723215 3.221664 0.571651 -0.149197 1.113448
 41   -4.433840 -1.059130 0.959566 -0.000001 0.000000 0.000000
 42   0.002708 2.544984 -2.727678 -0.029985 -0.009826 -0.535619
 43   0.035172 2.722047 2.826407 -0.029986 -0.009837 -0.535619
time 10
  0   0.169208 25.336710 0.914461 -1.199687 -0.417404 -0.098585
  1   -1.093036 0.000002 -0.326057 -1.541305 -1.570749 0.000216
  2   2.262337 0.113614 0.064702 -0.069701 0.000612 0.009457
  3   2.380047 0.353302 0.047440 0.000000 -0.000040 -0.069705
  4   2.033756 0.190472 -0.000128 -0.078354 0.000072 -0.000134
  5   2.451511 0.204909 -0.003447 0.000000 -0.000005 0.017373
  6   7.247600 -0.397300 -0.109469 0.000001 0.000009 0.470865
  7   -2.022252 -0.104661 3.136172 -0.000281 -1.370712 -3.613165
  8   1.168026 -0.537438 -0.063437 0.443261 0.559914 1.638508
  9   6.790376 -0.619176 0.015206 -0.000102 -0.000085 -0.287004
 10   8.637599 0.544015 -0.090417 -1.570376 0.000292 -0.069354
 11   6.790465 -0.619039 0.017802 -0.002356 -0.010884 -0.216021
 12   -2.022474 -0.104699 -2.873818 0.000434 1.370594 -3.612861
 13   1.167898 -0.537463 0.063297 0.835120 -0.153119 -1.082271
 14   7.002743 -0.617765 -0.183752 0.000059 0.000137 -0.216908
 15   8.209042 0.615527 -0.255885 1.570090 -0.000139 -0.069526
 16   7.002735 -0.617911 -0.183641 0.014626 0.001560 -0.170370
 17   1.574674 0.609930 -0.000899 0.141566 0.084404 -0.961919
 18   -0.602177 0.511412 -0.000006 0.000000 0.000000 0.000000
 19   3.665960 0.309837 1.146658 -0.000002 -0.000014 -0.174510
 20   3.665954 0.309810 -1.090221 0.000007 -0.000003 -0.174546
 21   2.887637 1.322821 1.549531 0.000002 -0.000011 -0.000026
 22   -0.226528 -0.758005 0.473551 0.000194 -0.057471 0.890061
 23   2.903280 1.315034 -1.584207 0.000019 0.000002 -0.000024
 24   -0.074270 -0.562670 -0.551668 0.000187 -0.057496 0.890104
 25   3.953053 2.094997 1.523858 0.102271 -0.029428 -0.168407
 26   3.902288 2.141901 -1.516125 -0.141155 -0.028485 -0.183628
 27   3.293379 1.455197 1.514501 -0.000019 -0.000022 -0.000050
 28   3.295809 1.454803 -1.501142 -0.000002 -0.000009 -0.000024
 29   8.824059 0.150544 0.091743 -2.207935 -0.423480 0.040058
 30   2.111085 -0.561179 1.784320 -0.000008 -0.000682 0.000024
 31   2.121290 -0.561289 -1.853599 0.000000 0.000000 -0.000002
 32   -0.814395 -0.093824 3.127092 -0.469982 -3.339216 0.444732
 33   14.298673 -0.408176 0.471578 -0.000064 -0.000054 -0.600756
 34   15.835795 0.581398 0.242756 0.061319 0.345435 -0.407469
 35   -0.815868 -0.091229 -3.114430 0.574659 3.057305 -0.381314
 36   14.294526 -0.410349 -0.467541 0.000057 0.000048 -0.654115
 37   15.834409 0.579420 -0.284600 -0.204376 -0.360008 -0.812308
 38   1.096715 -3.113895 -2.808187 0.191020 -0.266643 0.752685
 39   -4.457742 -1.054854 -0.746180 0.000000 0.000000 0.000000
 40   1.161071 -3.789623 3.221664 0.646607 -0.176914 0.967859
 41   -4.433840 -1.059130 0.959566 -0.000001 0.000000 0.000000
 42   0.002708 2.544984 -2.727678 -0.029985 -0.009826 -0.535619
 43   0.035172 2.722047 2.826407 -0.029986 -0.009837 -0.535619
time 11
  0   0.169208 28.739159 -2.991908 -1.210915 -0.862012 -0.113880
  1   -1.093036 0.000002 -0.326057 -1.587525 -1.570749 -0.017010
  2   2.262337 0.113614 0.064702 -0.069701 0.000612 0.009457
  3   2.380047 0.353302 0.047440 0.000000 -0.000040 -0.069705
  4   2.033756 0.190472 -0.000128 -0.078354 0.000072 -0.000134
  5   2.451511 0.204909 -0.003447 0.000000 -0.000005 0.017373
  6   7.247600 -0.397300 -0.109469 0.000001 0.000009 0.470865
  7   -2.022252 -0.104661 3.136172 -0.000281 -1.370712 -3.613165
  8   1.168026 -0.537438 -0.063437 -0.484620 0.619133 0.317694
  9   6.790376 -0.619176 0.015206 -0.000102 -0.000085 -0.287004
 10   8.637599 0.544015 -0.090417 -1.570376 0.000292 -0.069354
 11   6.790465 -0.619039 0.017802 -0.002356 -0.010884 -0.216079
 12   -2.022474 -0.104699 -2.873818 0.000434 1.370594 -3.612861
 13   1.167898 -0.537463 0.063297 0.828512 -0.213941 -1.030635
 14   7.002743 -0.617765 -0.183752 0.000059 0.000137 -0.216908
 15   8.209042 0.615527 -0.255885 1.570090 -0.000139 -0.069526
 16   7.002735 -0.617911 -0.183641 0.014626 0.001560 -0.170370
 17   1.574674 0.609930 -0.000899 0.141566 0.084404 -0.961919
 18   -0.602177 0.511412 -0.000006 0.000000 0.000000 0.000000
 19   3.665960 0.309837 1.146658 -0.000002 -0.000014 -0.174510
 20   3.665954 0.309810 -1.090221 0.000007 -0.000003 -0.174546
 21   2.887637 1.322821 1.549531 0.000002 -0.000011 -0.000026
 22   -0.226528 -0.758005 0.473551 0.000194 -0.057471 0.890061
 23   2.903280 1.315034 -1.584207 0.000019 0.000002 -0.000024
 24   -0.074270 -0.562670 -0.551668 0.000187 -0.057496 0.890104
 25   3.953053 2.094997 1.523858 0.102271 -0.029428 -0.168407
 26   3.902288 2.141901 -1.516125 -0.141155 -0.028485 -0.183628
 27   3.293379 1.455197 1.514501 -0.000019 -0.000022 -0.000050
 28   3.295809 1.454803 -1.501142 -0.000002 -0.000009 -0.000024
 29   8.824059 0.150544 0.091743 -2.544108 -0.473496 0.015702
 30   2.111085 -0.561179 1.784320 -0.000008 -0.000682 0.000024
 31   2.121290 -0.561289 -1.853599 0.000000 0.000000 -0.000002
 32   -0.814395 -0.093824 3.127092 -0.472499 -3.282389 0.312844
 33   14.298673 -0.408176 0.471578 -0.000064 -0.000054 -0.629418
 34   15.835795 0.581398 0.242756 0.050232 0.362078 -0.472256
 35   -0.815868 -0.091229 -3.114430 0.515426 3.082601 -0.396268
 36   14.294526 -0.410349 -0.467541 0.000057 0.000048 -0.658286
 37   15.834409 0.579420 -0.284600 -0.188279 -0.304466 -0.809975
 38   1.038119 -3.188116 -2.804281 0.163320 -0.226189 0.635933
 39   -4.457742 -1.054854 -0.746180 0.000000 0.000000 0.000000
 40   1.219667 -3.715402 3.221664 0.571524 -0.145775 0.804065
 41   -4.433840 -1.059130 0.959566 -0.000001 0.000000 0.000000
 42   0.002708 2.544984 -2.727678 -0.029985 -0.009826 -0.535619
 43   0.035172 2.722047 2.826407 -0.029986 -0.009837 -0.535619
time 12
  0   0.169208 32.086918 -6.620925 -1.271432 -1.319689 -0.046906
  1   -1.093036 0.000002 -0.326057 -1.558389 -1.570749 0.018313
  2   2.262337 0.113614 0.064702 -0.069701 0.000612 0.009457
  3   2.380047 0.353302 0.047440 0.000000 -0.000040 -0.069705
  4   2.033756 0.190472 -0.000128 -0.078354 0.000072 -0.000134
  5   2.451511 0.204909 -0.003447 0.000000 -0.000005 0.017373
  6   7.247600 -0.397300 -0.109469 0.000001 0.000009 0.470865
  7   -2.022252 -0.104661 3.136172 -0.000281 -1.370712 -3.613165
  8   1.168026 -0.537438 -0.063437 -0.698572 0.002381 -0.678594
  9   6.790376 -0.619176 0.015206 -0.000102 -0.000085 -0.287004
 10   8.637599 0.544015 -0.090417 -1.570376 0.000292 -0.069354
 11   6.790465 -0.619039 0.017802 -0.002356 -0.010884 -0.216021
 12   -2.022474 -0.104699 -2.873818 0.000434 1.370594 -3.612861
 13   1.167898 -0.537463 0.063297 0.705283 -0.534070 -0.690127
 14   7.002743 -0.617765 -0.183752 0.000059 0.000137 -0.216908
 15   8.209042 0.615527 -0.255885 1.570090 -0.000139 -0.069526
 16   7.002735 -0.617911 -0.183641 0.014626 0.001560 -0.170370
 17   1.574674 0.609930 -0.000899 0.141566 0.084404 -0.961919
 18   -0.602177 0.511412 -0.000006 0.000000 0.000000 0.000000
 19   3.665960 0.309837 1.146658 -0.000002 -0.000014 -0.174510
 20   3.665954 0.309810 -1.090221 0.000007 -0.000003 -0.174546
 21   2.887637 1.322821 1.549531 0.000002 -0.000011 -0.000026
 22   -0.226528 -0.758005 0.473551 0.000194 -0.057471 0.890061
 23   2.903280 1.315034 -1.584207 0.000019 0.000002 -0.000024
 24   -0.074270 -0.562670 -0.551668 0.000187 -0.057496 0.890104
 25   3.953053 2.094997 1.523858 0.102271 -0.029428 -0.168407
 26   3.902288 2.141901 -1.516125 -0.141155 -0.028485 -0.183628
 27   3.293379 1.455197 1.514501 -0.000019 -0.000022 -0.000050
 28   3.295809 1.454803 -1.501142 -0.000002 -0.000009 -0.000024
 29   8.824059 0.150544 0.091743 2.920220 -0.511144 0.009211
 30   2.111085 -0.561179 1.784320 -0.000008 -0.000682 0.000024
 31   2.121290 -0.561289 -1.853599 0.000000 0.000000 -0.000002
 32   -0.814395 -0.093824 3.127092 -0.499343 -3.212669 0.149363
 33   14.298673 -0.408176 0.471578 -0.000064 -0.000054 -0.660781
 34   15.835795 0.581398 0.242756 0.048714 0.410422 -0.565180
 35   -0.815868 -0.091229 -3.114430 0.441053 3.114455 -0.408538
 36   14.294526 -0.410349 -0.467541 0.000057 0.000048 -0.664929
 37   15.834409 0.579420 -0.284600 -0.168321 -0.234054 -0.798213
 38   0.979524 -3.367809 -2.800375 0.096742 -0.129700 0.528529
 39   -4.457742 -1.054854 -0.746180 0.000000 0.000000 0.000000
 40   1.278262 -3.535709 3.217758 0.391955 -0.071543 0.640209
 41   -4.433840 -1.059130 0.959566 -0.000001 0.000000 0.000000
 42   0.002708 2.544984 -2.727678 -0.029985 -0.009826 -0.535619
 43   0.035172 2.722047 2.826407 -0.029986 -0.009837 -0.535619
time 13
  0   0.169208 35.110447 -10.285099 -1.014999 -1.816928 -0.278513
  1   -1.093036 0.000002 -0.326057 -1.546074 -1.570749 -0.014107
  2   2.262337 0.113614 0.064702 -0.069701 0.000612 0.009457
  3   2.380047 0.353302 0.047440 0.000000 -0.000040 -0.069705
  4   2.033756 0.190472 -0.000128 -0.078354 0.000072 -0.000134
  5   2.451511 0.204909 -0.003447 0.000000 -0.000005 0.017373
  6   7.247600 -0.397300 -0.109469 0.000001 0.000009 0.470865
  7   -2.022252 -0.104661 3.136172 -0.000281 -1.370712 -3.613165
  8   1.168026 -0.537438 -0.063437 -0.419188 0.239009 -0.600088
  9   6.790376 -0.619176 0.015206 -0.000102 -0.000085 -0.588572
 10   8.637599 0.544015 -0.090417 -1.570376 0.000292 -0.069354
 11   6.790465 -0.619039 0.017802 -0.001247 -0.011140 -0.427169
 12   -2.022474 -0.104699 -2.873818 0.000434 1.370594 -3.612861
 13   1.167898 -0.537463 0.063297 0.705283 -0.534070 -0.690127
 14   7.002743 -0.617765 -0.183752 0.000059 0.000137 -0.216908
 15   8.209042 0.615527 -0.255885 1.570090 -0.000139 -0.069526
 16   7.002735 -0.617911 -0.183641 0.014626 0.001560 -0.170370
 17   1.574674 0.609930 -0.000899 0.141566 0.084404 -0.961919
 18   -0.602177 0.511412 -0.000006 0.000000 0.000000 0.000000
 19   3.665960 0.309837 1.146658 -0.000002 -0.000014 -0.174510
 20   3.665954 0.309810 -1.090221 0.000007 -0.000003 -0.174546
 21   2.887637 1.322821 1.549531 0.000002 -0.000011 -0.000026
 22   -0.226528 -0.758005 0.473551 0.000194 -0.057471 0.890061
 23   2.903280 1.315034 -1.584207 0.000019 0.000002 -0.000024
 24   -0.074270 -0.562670 -0.551668 0.000187 -0.057496 0.890104
 25   3.953053 2.094997 1.523858 0.102271 -0.029428 -0.168407
 26   3.902288 2.141901 -1.516125 -0.141155 -0.028485 -0.183628
 27   3.293379 1.455197 1.514501 -0.000019 -0.000022 -0.000050
 28   3.295809 1.454803 -1.501142 -0.000002 -0.000009 -0.000024
 29   8.824059 0.150544 0.091743 1.903323 -0.537137 0.008728
 30   2.111085 -0.561179 1.784320 -0.000008 -0.000682 0.000024
 31   2.121290 -0.561289 -1.853599 0.000000 0.000000 -0.000002
 32   -0.814395 -0.093824 3.127092 -0.526001 -3.132538 -0.031763
 33   14.298673 -0.408176 0.471578 -0.000064 -0.000054 -0.694842
 34   15.835795 0.581398 0.242756 0.048576 0.471602 -0.669041
 35   -0.815868 -0.091229 -3.114430 0.353391 3.152774 -0.417741
 36   14.294526 -0.410349 -0.467541 0.000057 0.000048 -0.679991
 37   15.834409 0.579420 -0.284600 -0.143476 -0.151074 -0.771695
 38   0.932647 -3.574846 -2.796468 0.016081 -0.014533 0.439942
 39   -4.457742 -1.054854 -0.746180 0.000000 0.000000 0.000000
 40   1.325139 -3.328671 3.217758 0.176454 0.017041 0.497187
 41   -4.433840 -1.059130 0.959566 -0.000001 0.000000 0.000000
 42   0.002708 2.544984 -2.727678 -0.029985 -0.009826 -0.535619
 43   0.035172 2.722047 2.826407 -0.029986 -0.009837 -0.535619
time 14
  0   0.177021 37.587086 -14.410225 -1.090542 -2.296831 -0.181424
  1   -1.093036 0.000002 -0.326057 -1.604347 -1.570749 -0.055672
  2   2.262337 0.113614 0.064702 -0.069701 0.000612 0.009457
  3   2.380047 0.353302 0.047440 0.000000 -0.000040 -0.069705
  4   2.033756 0.190472 -0.000128 -0.078354 0.000072 -0.000134
  5   2.451511 0.204909 -0.003447 0.000000 -0.000005 0.017373
  6   7.247600 -0.397300 -0.109469 0.000001 0.000009 0.470865
  7   -2.022252 -0.104661 3.136172 -0.000281 -1.370712 -3.613165
  8   1.168026 -0.537438 -0.063437 -0.024065 0.509146 -0.245640
  9   6.790376 -0.619176 0.015206 -0.000102 -0.000085 -0.906667
 10   8.637599 0.544015 -0.090417 -1.570376 0.000292 -0.069354
 11   6.790465 -0.619039 0.017802 0.000008 -0.011395 -0.649852
 12   -2.022474 -0.104699 -2.873818 0.000434 1.370594 -3.612861
 13   1.167898 -0.537463 0.063297 0.705283 -0.534070 -0.690127
 14   7.002743 -0.617765 -0.183752 0.000059 0.000137 -0.216908
 15   8.209042 0.615527 -0.255885 1.570090 -0.000139 -0.069526
 16   7.002735 -0.617911 -0.183641 0.014626 0.001560 -0.170370
 17   1.574674 0.609930 -0.000899 0.141566 0.084404 -0.961919
 18   -0.602177 0.511412 -0.000006 0.000000 0.000000 0.000000
 19   3.665960 0.309837 1.146658 -0.000002 -0.000014 -0.174510
 20   3.665954 0.309810 -1.090221 0.000007 -0.000003 -0.174546
 21   2.887637 1.322821 1.549531 0.000002 -0.000011 -0.000026
 22   -0.226528 -0.758005 0.473551 0.000194 -0.057471 0.890061
 23   2.903280 1.315034 -1.584207 0.000019 0.000002 -0.000024
 24   -0.074270 -0.562670 -0.551668 0.000187 -0.057496 0.890104
 25   3.953053 2.094997 1.523858 0.102271 -0.029428 -0.168407
 26   3.902288 2.141901 -1.516125 -0.141155 -0.028485 -0.183628
 27   3.293379 1.455197 1.514501 -0.000019 -0.000022 -0.000050
 28   3.295809 1.454803 -1.501142 -0.000002 -0.000009 -0.000024
 29   8.824059 0.150544 0.091743 0.972787 -0.552187 0.002290
 30   2.111085 -0.561179 1.784320 -0.000008 -0.000682 0.000024
 31   2.121290 -0.561289 -1.853599 0.000000 0.000000 -0.000002
 32   -0.814395 -0.093824 3.127092 -0.544363 -3.035789 -0.257345
 33   14.298673 -0.408176 0.471578 -0.000064 -0.000054 -0.736685
 34   15.835795 0.581398 0.242756 0.045769 0.546351 -0.789706
 35   -0.815868 -0.091229 -3.114430 0.277258 3.185472 -0.427491
 36   14.294526 -0.410349 -0.467541 0.000057 0.000048 -0.716219
 37   15.834409 0.579420 -0.284600 -0.119676 -0.079407 -0.726520
 38   0.901397 -3.750633 -2.792562 -0.053780 0.081944 0.379825
 39   -4.457742 -1.054854 -0.746180 0.000000 0.000000 0.000000
 40   1.356390 -3.152885 3.213852 -0.006399 0.091284 0.396015
 41   -4.433840 -1.059130 0.959566 -0.000001 0.000000 0.000000
 42   0.002708 2.544984 -2.727678 -0.029985 -0.009826 -0.535619
 43   0.035172 2.722047 2.826407 -0.029986 -0.009837 -0.535619
time 15
  0   0.173115 39.243385 -18.058773 -1.105155 -2.697343 -0.154540
  1   -1.093036 0.000002 -0.326057 -1.608068 -1.570749 0.020587
  2   2.262337 0.113614 0.064702 -0.069701 0.000612 0.009457
  3   2.380047 0.353302 0.047440 0.000000 -0.000040 0.339976
  4   2.033756 0.190472 -0.000128 -0.063397 0.046045 0.626359
  5   2.451511 0.204909 -0.003447 0.433433 -0.047971 0.102591
  6   7.247600 -0.397300 -0.109469 0.000001 0.000009 0.470865
  7   -2.022252 -0.104661 3.136172 -0.000281 -1.370712 -3.613165
  8   1.168026 -0.537438 -0.063437 -0.599854 0.455864 -0.945806
  9   6.790376 -0.619176 0.015206 -0.000102 -0.000085 -1.260987
 10   8.637599 0.544015 -0.090417 -1.570376 0.000292 -0.069354
 11   6.790465 -0.619039 0.017802 0.001439 -0.011623 -0.897969
 12   -2.022474 -0.104699 -2.873818 0.000434 1.370594 -3.612861
 13   1.167898 -0.537463 0.063297 1.485642 0.346527 -0.703142
 14   7.002743 -0.617765 -0.183752 0.000059 0.000137 -0.216743
 15   8.209042 0.615527 -0.255885 1.570090 -0.000139 -0.069526
 16   7.002735 -0.617911 -0.183641 0.014626 0.001560 -0.170370
 17   1.574674 0.609930 -0.000899 -0.298080 -0.163222 -0.719122
 18   -0.602177 0.511412 -0.000006 0.000000 0.000000 0.000000
 19   3.665960 0.309837 1.146658 -0.000002 -0.000014 -0.174510
 20   3.665954 0.309810 -1.090221 0.000007 -0.000003 -0.174546
 21   2.887637 1.322821 1.549531 0.000002 -0.000011 -0.000026
 22   -0.226528 -0.758005 0.473551 0.000194 -0.057471 0.890061
 23   2.903280 1.315034 -1.584207 0.000019 0.000002 -0.000024
 24   -0.074270 -0.562670 -0.551668 0.000187 -0.057496 0.890104
 25   3.953053 2.094997 1.523858 0.102271 -0.029428 -0.168407
 26   3.902288 2.141901 -1.516125 -0.141155 -0.028485 -0.183628
 27   3.293379 1.455197 1.514501 -0.000019 -0.000022 -0.000050
 28   3.295809 1.454803 -1.501142 -0.000002 -0.000009 -0.000024
 29   8.824059 0.150544 0.091743 0.413003 -0.557053 -0.022066
 30   2.111085 -0.561179 1.784320 -0.000008 -0.000682 0.000024
 31   2.121290 -0.561289 -1.853599 0.000000 0.000000 -0.000002
 32   -0.814395 -0.093824 3.127092 -0.536813 -2.962248 -0.502964
 33   14.298673 -0.408176 0.471578 -0.000064 -0.000054 -0.782260
 34   15.835795 0.581398 0.242756 0.032359 0.602333 -0.872972
 35   -0.815868 -0.091229 -3.114430 0.268545 3.168326 -0.456468
 36   14.294526 -0.410349 -0.467541 0.000057 0.000048 -1.077644
 37   15.834409 0.579420 -0.284600 -0.105037 -0.068733 -0.391025
 38   0.889677 -3.824854 -2.792562 -0.088111 0.122410 0.357648
 39   -4.457742 -1.054854 -0.746180 0.000000 0.000000 0.000000
 40   1.368109 -3.078664 3.206039 -0.088111 0.122411 0.357647
 41   -4.433840 -1.059130 0.959566 -0.000001 0.000000 0.000000
 42   0.002708 2.544984 -2.727678 -0.029985 -0.009826 -0.535619
 43   0.035172 2.722047 2.826407 -0.029986 -0.009837 -0.535619
time 16
  0   0.173115 39.864498 -21.304966 -1.081130 -2.913201 -0.140955
  1   -1.093036 0.000002 -0.326057 -1.541410 -1.570749 -0.005349
  2   2.262337 0.113614 0.064702 0.106293 -0.060018 0.512025
  3   2.380047 0.353302 0.047440 0.194158 -0.237814 0.300022
  4   2.033756 0.190472 -0.000128 -0.077118 -0.013507 -0.173757
  5   2.451511 0.204909 -0.003447 0.433433 -0.047984 0.102591
  6   7.247600 -0.397300 -0.109469 0.000001 0.000009 0.470865
  7   -2.022252 -0.104661 3.136172 -0.000281 -1.370712 -3.613165
  8   1.168026 -0.537438 -0.063437 0.470535 0.397046 -0.367037
  9   6.790376 -0.619176 0.015206 -0.000102 -0.000085 -1.638551
 10   8.637599 0.544015 -0.090417 -1.570376 0.000292 -0.069354
 11   6.790465 -0.619039 0.017802 0.003074 -0.011793 -1.162235
 12   -2.022474 -0.104699 -2.873818 0.000434 1.370594 -3.612861
 13   1.167898 -0.537463 0.063297 1.714667 -0.290934 -0.423229
 14   7.002743 -0.617765 -0.183752 0.000059 0.000137 -0.564668
 15   8.209042 0.615527 -0.255885 1.570090 -0.000139 -0.069526
 16   7.002735 -0.617911 -0.183641 0.014485 0.003195 -0.413826
 17   1.574674 0.609930 -0.000899 -0.657132 0.329238 -0.618144
 18   -0.602177 0.511412 -0.000006 0.000000 0.000000 0.000000
 19   3.665960 0.309837 1.146658 -0.000002 -0.000014 -0.174510
 20   3.665954 0.309810 -1.090221 0.000007 -0.000003 -0.174546
 21   2.887637 1.322821 1.549531 0.000002 -0.000011 -0.000026
 22   -0.226528 -0.758005 0.473551 0.000194 -0.057471 0.890061
 23   2.903280 1.315034 -1.584207 0.000019 0.000002 -0.000024
 24   -0.074270 -0.562670 -0.551668 0.000187 -0.057496 0.890104
 25   3.953053 2.094997 1.523858 0.102271 -0.029428 -0.168407
 26   3.902288 2.141901 -1.516125 -0.141155 -0.028485 -0.183628
 27   3.293379 1.455197 1.514501 -0.000019 -0.000022 -0.000050
 28   3.295809 1.454803 -1.501142 -0.000002 -0.000009 -0.000024
 29   8.824059 0.150544 0.091743 0.185650 -0.501245 -0.159352
 30   2.111085 -0.561179 1.784320 -0.000008 -0.000682 0.000024
 31   2.121290 -0.561289 -1.853599 0.000000 0.000000 -0.000002
 32   -0.814395 -0.093824 3.127092 -0.552752 -3.265485 -0.735946
 33   14.298673 -0.408176 0.471578 -0.000064 -0.000054 -0.828390
 34   15.835795 0.581398 0.242756 -0.105634 0.582956 -0.366145
 35   -0.815868 -0.091229 -3.114430 0.155798 2.914898 -0.349104
 36   14.294526 -0.410349 -0.467541 0.000057 0.000048 -1.222554
 37   15.834409 0.579420 -0.284600 0.088657 0.087577 -0.196685
 38   0.979524 -3.817041 -2.831626 -0.094826 0.097176 0.375121
 39   -4.457742 -1.054854 -0.746180 0.000000 0.000000 0.000000
 40   1.309513 -3.129447 3.155256 -0.094826 0.097177 0.375120
 41   -4.433840 -1.059130 0.959566 -0.000001 0.000000 0.000000
 42   -0.001198 2.345759 -2.723771 -0.023801 0.003421 -0.446914
 43   -0.039049 2.522822 2.744373 -0.050851 -0.030863 -0.432276
time 17
  0   0.173115 39.864498 -21.484659 -1.081130 -2.913201 -0.140955
  1   -1.093036 0.000002 -0.326057 -1.550004 -1.570749 -0.018123
  2   2.262337 0.113614 0.064702 0.106255 -0.060018 0.512025
  3   2.380047 0.353302 0.047440 0.194158 -0.237814 0.300022
  4   2.033756 0.190472 -0.000128 -0.077118 -0.013507 -0.173757
  5   2.451511 0.204909 -0.003447 0.433433 -0.047984 0.102591
  6   7.247600 -0.397300 -0.109469 0.000001 0.000009 0.470865
  7   -2.022252 -0.104661 3.136172 -0.000281 -1.370712 -3.613165
  8   1.168026 -0.537438 -0.063437 0.470535 0.397046 -0.367037
  9   6.790376 -0.619176 0.015206 -0.000102 -0.000085 -1.638551
 10   8.637599 0.544015 -0.090417 -1.570376 0.000292 -0.069354
 11   6.790465 -0.619039 0.017802 0.003074 -0.011793 -1.162235
 12   -2.022474 -0.104699 -2.873818 0.000434 1.370594 -3.612861
 13   1.167898 -0.537463 0.063297 1.722259 -0.425546 -0.442600
 14   7.002743 -0.617765 -0.183752 0.000059 0.000137 -0.914903
 15   8.209042 0.615527 -0.255885 1.570090 -0.095848 -0.069526
 16   7.002735 -0.617911 -0.183641 0.014202 0.004999 -0.658992
 17   1.574674 0.609930 -0.000899 -0.683617 0.259160 -0.710288
 18   -0.602177 0.511412 -0.000006 0.000000 0.000000 0.000000
 19   3.665960 0.309837 1.146658 -0.000002 -0.000014 -0.174510
 20   3.665954 0.309810 -1.090221 0.000007 -0.000003 -0.174546
 21   2.887637 1.322821 1.549531 0.000002 -0.000011 -0.000026
 22   -0.226528 -0.758005 0.473551 0.000194 -0.057471 0.890061
 23   2.903280 1.315034 -1.584207 0.000019 0.000002 -0.000024
 24   -0.074270 -0.562670 -0.551668 0.000187 -0.057496 0.890104
 25   3.953053 2.094997 1.523858 0.102271 -0.029428 -0.168407
 26   3.902288 2.141901 -1.516125 -0.141155 -0.028485 -0.183628
 27   3.293379 1.455197 1.514501 -0.000019 -0.000022 -0.000050
 28   3.295809 1.454803 -1.501142 -0.000002 -0.000009 -0.000024
 29   8.824059 0.150544 0.091743 0.047776 -0.368146 -0.432635
 30   2.111085 -0.561179 1.784320 -0.000008 -0.000682 0.000024
 31   2.121290 -0.561289 -1.853599 0.000000 0.000000 -0.000002
 32   -0.814395 -0.093824 3.127092 -0.651088 -3.659071 -0.898857
 33   14.298673 -0.408176 0.471578 -0.000064 -0.000054 -0.855862
 34   15.835795 0.581398 0.242756 0.208766 0.173486 -0.464141
 35   -0.815868 -0.091229 -3.114430 0.065320 2.642169 -0.257954
 36   14.294526 -0.410349 -0.467541 0.000057 0.000048 -1.321890
 37   15.834409 0.579420 -0.284600 0.271277 0.252821 -0.087067
 38   1.186561 -3.797509 -2.933191 -0.098910 0.037007 0.416726
 39   -4.457742 -1.054854 -0.746180 0.000000 0.000000 0.000000
 40   1.164977 -3.254451 3.049784 -0.098910 0.037008 0.416726
 41   -4.433840 -1.059130 0.959566 -0.000001 0.000000 0.000000
 42   -0.012917 1.865276 -2.712052 -0.009048 0.035067 -0.235376
 43   -0.222648 2.042338 2.549055 -0.100627 -0.080981 -0.185942
time 18
  0   0.173115 39.864498 -20.808857 -1.081130 -2.913201 -0.140955
  1   -1.093036 0.000002 -0.326057 -1.602408 -1.570749 -0.000413
  2   2.262337 0.113614 0.064702 0.106293 -0.060018 0.512025
  3   2.380047 0.353302 0.047440 0.200428 -0.212587 0.170488
  4   2.033756 0.190472 -0.000128 -0.077155 -0.013507 -0.173757
  5   2.451511 0.204909 -0.003447 0.433433 -0.047984 0.102591
  6   7.247600 -0.397300 -0.109469 0.000001 0.000009 0.470865
  7   -2.022252 -0.104661 3.136172 -0.000281 -1.370712 -3.613165
  8   1.168026 -0.537438 -0.063437 0.840599 0.787888 0.139110
  9   6.790376 -0.619176 0.015206 -0.000102 -0.000085 -1.909026
 10   8.637599 0.544015 -0.090417 -1.570376 0.000292 -0.069354
 11   6.790465 -0.619039 0.017802 0.004359 -0.011850 -1.351524
 12   -2.022474 -0.104699 -2.873818 0.000434 1.370594 -3.612861
 13   1.167898 -0.537463 0.063297 1.620962 -0.639695 -0.404524
 14   7.002743 -0.617765 -0.183752 0.000059 0.000137 -1.230156
 15   8.209042 0.615527 -0.255885 1.570090 -0.191179 -0.069526
 16   7.002735 -0.617911 -0.183641 0.013920 0.006691 -0.879763
 17   1.574674 0.609930 -0.000899 -0.687151 0.237671 -0.678132
 18   -0.602177 0.511412 -0.000006 0.000000 0.000000 0.000000
 19   3.665960 0.309837 1.146658 -0.000002 -0.000014 -0.174510
 20   3.665954 0.309810 -1.090221 0.000007 -0.000003 -0.174546
 21   2.887637 1.322821 1.549531 0.000002 -0.000011 -0.000026
 22   -0.226528 -0.758005 0.473551 0.000194 -0.057471 0.890061
 23   2.903280 1.315034 -1.584207 0.000019 0.000002 -0.000024
 24   -0.074270 -0.562670 -0.551668 0.000187 -0.057496 0.890104
 25   3.953053 2.094997 1.523858 0.102271 -0.029428 -0.168407
 26   3.902288 2.141901 -1.516125 -0.141155 -0.028485 -0.183628
 27   3.293379 1.455197 1.514501 -0.000019 -0.000022 -0.000050
 28   3.295809 1.454803 -1.501142 -0.000002 -0.000009 -0.000024
 29   8.824059 0.150544 0.091743 -0.022899 -0.209292 -0.746315
 30   2.111085 -0.561179 1.784320 -0.000008 -0.000682 0.000024
 31   2.121290 -0.561289 -1.853599 0.000000 0.000000 -0.000002
 32   -0.814395 -0.093824 3.127092 -0.651088 -3.659071 -0.898857
 33   14.298673 -0.408176 0.471578 -0.000064 -0.000054 -0.855862
 34   15.835795 0.581398 0.242756 0.162530 0.130463 -0.433666
 35   -0.815868 -0.091229 -3.114430 0.068840 2.554945 -0.251162
 36   14.294526 -0.410349 -0.467541 0.000057 0.000048 -1.321890
 37   15.834409 0.579420 -0.284600 0.182045 0.265823 -0.110035
 38   1.444382 -3.774071 -3.054289 -0.100993 -0.034790 0.466335
 39   -4.457742 -1.054854 -0.746180 0.000000 0.000000 0.000000
 40   0.997004 -3.406799 2.928687 -0.100993 -0.034789 0.466334
 41   -4.433840 -1.059130 0.959566 -0.000001 0.000000 0.000000
 42   -0.024636 1.294946 -2.696427 0.008557 0.072846 0.017105
 43   -0.441405 1.475915 2.318579 -0.160024 -0.140813 0.108069
time 19
  0   0.173115 39.864498 -21.340124 -1.081130 -2.913201 -0.140955
  1   -1.093036 0.000002 -0.326057 -1.549899 -1.570749 -0.001381
  2   2.262337 0.113614 0.064702 0.106293 -0.060018 0.512025
  3   2.380047 0.353302 0.047440 0.197743 -0.225147 0.234521
  4   2.033756 0.190472 -0.000128 -0.077118 -0.013507 -0.173757
  5   2.451511 0.204909 -0.003447 0.435864 -0.011455 0.023961
  6   7.247600 -0.397300 -0.109469 0.000001 0.000009 0.470865
  7   -2.022252 -0.104661 3.136172 -0.000281 -1.370712 -3.613165
  8   1.168026 -0.537438 -0.063437 1.520231 1.005950 0.962571
  9   6.790376 -0.619176 0.015206 -0.000102 -0.000085 -2.179351
 10   8.637599 0.544015 -0.090417 -1.570376 0.000292 -0.069354
 11   6.790465 -0.619039 0.017802 0.005702 -0.011879 -1.540929
 12   -2.022474 -0.104699 -2.873818 0.000434 1.370594 -3.612861
 13   1.167898 -0.537463 0.063297 1.581807 -0.721367 -0.361302
 14   7.002743 -0.617765 -0.183752 0.000059 0.000137 -1.472970
 15   8.209042 0.615527 -0.255885 1.570090 -0.266233 -0.069526
 16   7.002735 -0.617911 -0.183641 0.013637 0.008101 -1.049647
 17   1.574674 0.609930 -0.000899 -0.709899 0.148589 -0.728658
 18   -0.602177 0.511412 -0.000006 0.000000 0.000000 0.000000
 19   3.665960 0.309837 1.146658 -0.000002 -0.000014 -0.174510
 20   3.665954 0.309810 -1.090221 0.000007 -0.000003 -0.174546
 21   2.887637 1.322821 1.549531 0.000002 -0.000011 -0.000026
 22   -0.226528 -0.758005 0.473551 0.000194 -0.057471 0.890061
 23   2.903280 1.315034 -1.584207 0.000019 0.000002 -0.000024
 24   -0.074270 -0.562670 -0.551668 0.000187 -0.057496 0.890104
 25   3.953053 2.094997 1.523858 0.102271 -0.029428 -0.168407
 26   3.902288 2.141901 -1.516125 -0.141155 -0.028485 -0.183628
 27   3.293379 1.455197 1.514501 -0.000019 -0.000022 -0.000050
 28   3.295809 1.454803 -1.501142 -0.000002 -0.000009 -0.000024
 29   8.824059 0.150544 0.091743 -0.048923 -0.076169 -1.004738
 30   2.111085 -0.561179 1.784320 -0.000008 -0.000682 0.000024
 31   2.121290 -0.561289 -1.853599 0.000000 0.000000 -0.000002
 32   -0.814395 -0.093824 3.127092 -0.651088 -3.659071 -0.898857
 33   14.298673 -0.408176 0.471578 -0.000064 -0.000054 -0.855862
 34   15.835795 0.581398 0.242756 0.042549 0.156257 -0.388196
 35   -0.815868 -0.091229 -3.114430 0.066992 2.598229 -0.254613
 36   14.294526 -0.410349 -0.467541 0.000057 0.000048 -1.321890
 37   15.834409 0.579420 -0.284600 0.226356 0.259655 -0.098576
 38   1.655326 -3.754539 -3.155854 -0.101772 -0.094958 0.507941
 39   -4.457742 -1.054854 -0.746180 0.000000 0.000000 0.000000
 40   0.856374 -3.527896 2.827121 -0.101772 -0.094958 0.507940
 41   -4.433840 -1.059130 0.959566 -0.000001 0.000000 0.000000
 42   -0.036355 0.814463 -2.688614 0.023298 0.104492 0.228643
 43   -0.621098 0.999338 2.123260 -0.209788 -0.190947 0.354445
time 20
  0   0.173115 39.864498 -21.847952 -1.081130 -2.913201 -0.140955
  1   -1.093036 0.000002 -0.326057 -1.509129 -1.570749 0.009507
  2   2.262337 0.113614 0.064702 0.106293 -0.060018 0.512025
  3   2.380047 0.353302 0.047440 0.194158 -0.237814 0.300022
  4   2.033756 0.190472 -0.000128 -0.077118 -0.013507 -0.173757
  5   2.451511 0.204909 -0.003447 0.435624 0.018051 -0.039439
  6   7.247600 -0.397300 -0.109469 0.000001 0.000009 0.470865
  7   -2.022252 -0.104661 3.136172 -0.000281 -1.370712 -3.613165
  8   1.168026 -0.537438 -0.063437 1.414742 1.009170 0.996352
  9   6.790376 -0.619176 0.015206 -0.000102 -0.000085 -2.179351
 10   8.637599 0.544015 -0.090417 -1.570376 0.418199 -0.069354
 11   6.790465 -0.619039 0.017802 0.005702 -0.011879 -1.540929
 12   -2.022474 -0.104699 -2.873818 0.000434 1.370594 -3.612861
 13   1.167898 -0.537463 0.063297 1.559453 -0.771764 -0.330974
 14   7.002743 -0.617765 -0.183752 0.000059 0.000137 -1.656132
 15   8.209042 0.615527 -0.255885 1.570090 -0.322448 -0.069526
 16   7.002735 -0.617911 -0.183641 0.013355 0.009116 -1.177915
 17   1.574674 0.609930 -0.000899 -0.720502 0.076097 -0.771348
 18   -0.602177 0.511412 -0.000006 0.000000 0.000000 0.000000
 19   3.665960 0.309837 1.146658 -0.000002 -0.000014 -0.174510
 20   3.665954 0.309810 -1.090221 0.000007 -0.000003 -0.174546
 21   2.887637 1.322821 1.549531 0.000002 -0.000011 -0.000026
 22   -0.226528 -0.758005 0.473551 0.000194 -0.057471 0.890061
 23   2.903280 1.315034 -1.584207 0.000019 0.000002 -0.000024
 24   -0.074270 -0.562670 -0.551668 0.000187 -0.057496 0.890104
 25   3.953053 2.094997 1.523858 0.102271 -0.029428 -0.168407
 26   3.902288 2.141901 -1.516125 -0.141155 -0.028485 -0.183628
 27   3.293379 1.455197 1.514501 -0.000019 -0.000022 -0.000050
 28   3.295809 1.454803 -1.501142 -0.000002 -0.000009 -0.000024
 29   8.824059 0.150544 0.091743 -0.052577 -0.020337 -1.112142
 30   2.111085 -0.561179 1.784320 -0.000008 -0.000682 0.000024
 31   2.121290 -0.561289 -1.853599 0.000000 0.000000 -0.000002
 32   -0.814395 -0.093824 3.127092 -0.651088 -3.659071 -0.898857
 33   14.298673 -0.408176 0.471578 -0.000064 -0.000054 -0.855862
 34   15.835795 0.581398 0.242756 -0.042768 0.179002 -0.358118
 35   -0.815868 -0.091229 -3.114430 0.065320 2.642169 -0.257954
 36   14.294526 -0.410349 -0.467541 0.000057 0.000048 -1.321890
 37   15.834409 0.579420 -0.284600 0.271277 0.252821 -0.087067
 38   1.745172 -3.742820 -3.198824 -0.101878 -0.120180 0.525414
 39   -4.457742 -1.054854 -0.746180 0.000000 0.000000 0.000000
 40   0.793872 -3.582586 2.784151 -0.101878 -0.120180 0.525413
 41   -4.433840 -1.059130 0.959566 -0.000001 0.000000 0.000000
 42   -0.044168 0.615238 -2.684708 0.029494 0.117770 0.317348
 43   -0.695319 0.800113 2.045133 -0.230666 -0.211973 0.457746
end
