version 1
nodes
  0 "Bip01" -1
  1 "Bip01 Pelvis" 0
  2 "Bip01 Spine" 1
  3 "Bip01 Spine1" 2
  4 "Bip01 Spine2" 3
  5 "Bip01 Spine3" 4
  6 "Bip01 Neck" 5
  7 "Bip01 L Arm" 6
  8 "Bip01 L Arm1" 7
  9 "Bip01 L Arm2" 8
 10 "Bip01 L Hand" 9
 11 "Bip06 L elbow2-smooth" 8
 12 "Bip01 R Arm" 6
 13 "Bip01 R Arm1" 12
 14 "Bip01 R Arm2" 13
 15 "Bip01 R Hand" 14
 16 "Bip06 R elbow2-smooth" 13
 17 "Bip01 Head" 6
 18 "Bip06 Head_helper" 17
 19 "Bip06 Head_eyes_l" 18
 20 "Bip06 Head_eyes_r" 18
 21 "Bip06 Head_blink_l" 18
 22 "Bip06 Head_blink_smooth_l1" 21
 23 "Bip06 Head_blink_r" 18
 24 "Bip06 Head_blink_smooth_r1" 23
 25 "Bip06 Head_L_eyebrow" 18
 26 "Bip06 Head_R_eyebrow" 18
 27 "Bip06 Head_blink_l_lid" 18
 28 "Bip06 Head_blink_r_lid" 18
 29 "Bip06 bunny" 18
 30 "Bip06 bunnyL" 29
 31 "Bip06 bunnyR" 29
 32 "Bip01 L Leg" 1
 33 "Bip01 L Leg1" 32
 34 "Bip01 L Foot" 33
 35 "Bip01 R Leg" 1
 36 "Bip01 R Leg1" 35
 37 "Bip01 R Foot" 36
 38 "Bip03 HairR1" 17
 39 "Bip03 HairR2" 38
 40 "Bip03 HairL1" 17
 41 "Bip03 HairL2" 40
 42 "Bip03 swingR" 17
 43 "Bip03 swingL" 17
end
skeleton
time 0
  0   0.243428 0.429701 1.851990 0.000000 0.000000 -1.571354
  1   -1.093036 0.000002 -0.326057 -1.570808 -1.570425 0.000119
  2   2.262337 0.113614 0.064702 -0.069357 -0.007178 -0.103522
  3   2.380047 0.353302 0.047440 0.000000 -0.000040 -0.008632
  4   2.033756 0.190472 -0.000128 -0.078243 0.004794 0.060544
  5   2.451511 0.204909 -0.003447 0.000000 -0.000005 -0.017472
  6   7.247600 -0.397300 -0.109469 0.000001 0.000009 0.052298
  7   -2.022252 -0.104661 3.136172 -0.299166 -1.361862 -2.901749
  8   1.168026 -0.537438 -0.063437 0.555710 1.136113 0.768931
  9   6.790376 -0.619176 0.015206 -0.000269 -0.000285 -0.286702
 10   8.637599 0.544015 -0.090417 -1.570112 0.000292 -0.069354
 11   6.790465 -0.619039 0.017802 -0.002473 -0.010969 -0.215790
 12   -2.022474 -0.104699 -2.873818 0.298777 1.361771 -2.901984
 13   1.167898 -0.537463 0.063297 -0.658605 -1.227116 0.844551
 14   7.002743 -0.617765 -0.183752 0.000229 0.000250 -1.289478
 15   8.209042 0.615527 -0.255885 1.570090 -0.000063 -0.069646
 16   7.002735 -0.617911 -0.183641 0.013967 0.007086 -0.921323
 17   1.574674 0.609930 -0.000899 0.156961 -0.049006 0.292465
 18   -0.602177 0.511412 -0.000006 0.000000 0.000000 0.000000
 19   3.673773 0.177020 1.119313 -0.000002 -0.000014 -0.174510
 20   3.673767 0.176993 -1.117566 0.000007 -0.000003 -0.174546
 21   3.938451 1.334540 1.627658 0.000002 -0.000011 -0.000026
 22   -0.246060 -0.011889 0.516521 -0.000011 0.000031 0.000025
 23   3.938468 1.334565 -1.631083 0.000019 0.000002 -0.000024
 24   -0.246150 -0.011872 -0.516511 -0.000005 -0.000006 0.000048
 25   4.941364 1.997338 1.629330 0.000018 -0.000001 -0.000024
 26   4.941382 1.997366 -1.629410 -0.000001 0.000005 -0.000024
 27   2.914462 1.623171 1.514501 -0.000019 -0.000022 -0.000050
 28   2.916892 1.618870 -1.501142 -0.000002 -0.000009 -0.000024
 29   8.824059 0.150544 0.091743 0.000006 -0.000231 -0.174534
 30   2.111085 -0.561179 1.784320 -0.000008 -0.000682 0.000024
 31   2.121290 -0.561289 -1.853599 0.000000 0.000000 -0.000002
 32   -0.814395 -0.093824 3.127092 -0.055388 -3.106560 -0.210100
 33   14.298673 -0.408176 0.471578 -0.000088 -0.000041 -0.234095
 34   15.835795 0.581398 0.242756 -0.095467 -0.022353 0.024340
 35   -0.815868 -0.091229 -3.114430 0.257807 3.091220 0.081065
 36   14.294526 -0.410349 -0.467541 0.000093 0.000048 -0.126924
 37   15.834409 0.579420 -0.284600 -0.017992 0.068995 0.192859
 38   1.139685 -3.453749 -2.823813 0.000000 0.000000 0.000001
 39   -4.457742 -1.054854 -0.746180 0.000000 0.000000 0.000000
 40   1.118101 -3.449769 3.237290 0.000000 0.000001 0.000000
 41   -4.433840 -1.059130 0.959566 -0.000001 0.000000 0.000000
 42   -0.657468 1.697302 -2.688614 0.000000 0.000002 0.000000
 43   -0.664068 1.698578 2.869377 0.000000 0.000002 0.000000
time 1
  0   0.255147 -0.367199 0.519918 0.000000 0.134245 -1.571354
  1   -1.093036 0.000002 -0.326057 -1.570808 -1.570425 -0.000026
  2   2.262337 0.113614 0.064702 -0.069357 -0.007178 -0.103522
  3   2.380047 0.353302 0.047440 0.000000 -0.000040 0.569906
  4   2.033756 0.190472 -0.000128 -0.074979 0.022855 0.294228
  5   2.451511 0.204909 -0.003447 0.000000 -0.000005 0.299055
  6   7.247600 -0.397300 -0.109469 0.000001 0.000009 0.052298
  7   -2.022252 -0.104661 3.136172 -0.299166 -1.361862 -2.901749
  8   1.168026 -0.537438 -0.063437 -1.242720 0.705121 -1.189612
  9   6.790376 -0.619176 0.015206 -0.000269 -0.000285 -0.502766
 10   8.637599 0.544015 -0.090417 -1.570112 0.000292 -0.069354
 11   6.790465 -0.619039 0.017802 -0.001627 -0.011140 -0.367072
 12   -2.022474 -0.104699 -2.873818 0.298777 1.361771 -2.901984
 13   1.167898 -0.537463 0.063297 1.530421 -0.699093 -1.337849
 14   7.002743 -0.617765 -0.183752 0.000229 0.000250 -1.289478
 15   8.209042 0.615527 -0.255885 1.570090 -0.000063 -0.069646
 16   7.002735 -0.617911 -0.183641 0.013967 0.007086 -0.921323
 17   1.574674 0.609930 -0.000899 0.086524 -0.136503 0.139742
 18   -0.602177 0.511412 -0.000006 0.000000 0.000000 0.000000
 19   3.673773 0.200458 1.123219 -0.000002 -0.000014 -0.174510
 20   3.673767 0.200431 -1.113660 0.000007 -0.000003 -0.174546
 21   3.778289 1.334540 1.615939 0.000002 -0.000011 -0.000026
 22   -0.246060 -0.125174 0.512615 0.000020 -0.008957 0.139070
 23   3.782213 1.334565 -1.623270 0.000019 0.000002 -0.000024
 24   -0.218805 -0.097812 -0.520417 0.000019 -0.008982 0.139101
 25   4.789015 2.012964 1.613705 0.015981 -0.004591 -0.026330
 26   4.781221 2.016898 -1.613785 -0.022053 -0.004436 -0.028703
 27   2.973057 1.599733 1.514501 -0.000019 -0.000022 -0.000050
 28   2.975487 1.599339 -1.501142 -0.000002 -0.000009 -0.000024
 29   8.824059 0.150544 0.091743 -0.004985 -0.013501 -1.041863
 30   2.111085 -0.561179 1.784320 -0.000008 -0.000682 0.000024
 31   2.121290 -0.561289 -1.853599 0.000000 0.000000 -0.000002
 32   -0.814395 -0.093824 3.127092 -0.045694 -3.112290 -0.551462
 33   14.298673 -0.408176 0.471578 -0.000088 -0.000041 -0.449264
 34   15.835795 0.581398 0.242756 -0.103495 -0.008126 0.032896
 35   -0.815868 -0.091229 -3.114430 0.208519 2.980480 -0.380437
 36   14.294526 -0.410349 -0.467541 0.000093 0.000048 -1.432040
 37   15.834409 0.579420 -0.284600 -0.071326 -0.000394 -0.291142
 38   1.116247 -3.430311 -2.823813 0.009619 0.002952 0.605325
 39   -4.469461 -1.043135 -0.746180 0.004123 0.002049 0.273707
 40   1.141539 -3.473207 3.237290 0.009619 0.002953 0.605324
 41   -4.422121 -1.070849 0.959566 0.004122 0.002049 0.273707
 42   -0.466056 1.955122 -2.692520 -0.003344 -0.003018 -0.267580
 43   -0.480469 1.979837 2.865470 -0.003336 -0.003011 -0.267580
time 2
  0   0.255147 -1.140660 -1.706712 0.000000 0.347081 -1.571354
  1   -1.093036 0.000002 -0.326057 -1.570808 -1.570425 -0.000219
  2   2.262337 0.113614 0.064702 -0.069357 -0.007178 -0.103522
  3   2.380047 0.353302 0.047440 0.000000 -0.000040 0.559683
  4   2.033756 0.190472 -0.000128 -0.074813 0.023358 0.301441
  5   2.451511 0.204909 -0.003447 0.000000 -0.000005 0.320601
  6   7.247600 -0.397300 -0.109469 0.000001 0.000009 0.052298
  7   -2.022252 -0.104661 3.136172 -0.299166 -1.361862 -2.901749
  8   1.168026 -0.537438 -0.063437 -0.939923 0.682228 -1.078780
  9   6.790376 -0.619176 0.015206 -0.000269 -0.000285 -0.844633
 10   8.637599 0.544015 -0.090417 -1.570112 0.000292 -0.069354
 11   6.790465 -0.619039 0.017802 -0.000342 -0.011452 -0.606538
 12   -2.022474 -0.104699 -2.873818 0.298777 1.361771 -2.901984
 13   1.167898 -0.537463 0.063297 1.504763 -0.674429 -1.094015
 14   7.002743 -0.617765 -0.183752 0.000229 0.000250 -1.289478
 15   8.209042 0.615527 -0.255885 1.570090 -0.000063 -0.069646
 16   7.002735 -0.617911 -0.183641 0.013967 0.007086 -0.921323
 17   1.574674 0.609930 -0.000899 0.062435 -0.149164 0.284666
 18   -0.602177 0.511412 -0.000006 0.000000 0.000000 0.000000
 19   3.669866 0.243429 1.131032 -0.000002 -0.000014 -0.174510
 20   3.669860 0.243402 -1.105847 0.000007 -0.000003 -0.174546
 21   3.414997 1.330634 1.588594 0.000002 -0.000011 -0.000026
 22   -0.238247 -0.382994 0.496989 0.000099 -0.028720 0.445010
 23   3.422827 1.326753 -1.607645 0.000019 0.000002 -0.000024
 24   -0.160210 -0.285318 -0.532136 0.000091 -0.028745 0.445076
 25   4.449162 2.044214 1.578547 0.051144 -0.014701 -0.084216
 26   4.421835 2.067681 -1.574721 -0.070578 -0.014240 -0.091826
 27   3.101967 1.541137 1.514501 -0.000019 -0.000022 -0.000050
 28   3.104397 1.540743 -1.501142 -0.000002 -0.000009 -0.000024
 29   8.824059 0.150544 0.091743 -0.004450 -0.015969 -1.251627
 30   2.111085 -0.561179 1.784320 -0.000008 -0.000682 0.000024
 31   2.121290 -0.561289 -1.853599 0.000000 0.000000 -0.000002
 32   -0.814395 -0.093824 3.127092 -0.036001 -3.106847 -0.895897
 33   14.298673 -0.408176 0.471578 -0.000088 -0.000041 -0.757567
 34   15.835795 0.581398 0.242756 -0.107911 -0.010859 0.208777
 35   -0.815868 -0.091229 -3.114430 0.229555 3.012428 -0.234674
 36   14.294526 -0.410349 -0.467541 0.000093 0.000048 -1.298562
 37   15.834409 0.579420 -0.284600 -0.068371 -0.020461 -0.561434
 38   1.108434 -3.430311 -2.823813 0.011598 0.003591 0.769119
 39   -4.469461 -1.043135 -0.746180 0.004123 0.002049 0.273707
 40   1.149352 -3.473207 3.237290 0.011598 0.003592 0.769119
 41   -4.422121 -1.070849 0.959566 0.004122 0.002049 0.273707
 42   -0.462150 1.951216 -2.692520 -0.007335 -0.006530 -0.266032
 43   -0.484375 1.975930 2.865470 -0.007334 -0.006526 -0.266032
time 3
  0   0.255147 -2.027406 -3.784901 0.000000 0.532979 -1.571354
  1   -1.093036 0.000002 -0.326057 -1.570808 -1.570425 -0.000026
  2   2.262337 0.113614 0.064702 -0.069357 -0.007178 -0.103522
  3   2.380047 0.353302 0.047440 0.000000 -0.000040 0.490855
  4   2.033756 0.190472 -0.000128 -0.075237 0.022088 0.284079
  5   2.451511 0.204909 -0.003447 0.000000 -0.000005 0.308441
  6   7.247600 -0.397300 -0.109469 0.000001 0.000009 0.052298
  7   -2.022252 -0.104661 3.136172 -0.299166 -1.361862 -2.901749
  8   1.168026 -0.537438 -0.063437 -0.597323 0.730882 -0.916010
  9   6.790376 -0.619176 0.015206 -0.000269 -0.000285 -1.143258
 10   8.637599 0.544015 -0.090417 -1.570112 0.000292 -0.069354
 11   6.790465 -0.619039 0.017802 0.000855 -0.011623 -0.815436
 12   -2.022474 -0.104699 -2.873818 0.298777 1.361771 -2.901888
 13   1.167898 -0.537463 0.063297 1.386243 -0.727317 -0.794186
 14   7.002743 -0.617765 -0.183752 0.000229 0.000250 -1.289478
 15   8.209042 0.615527 -0.255885 1.570090 -0.000063 -0.069646
 16   7.002735 -0.617911 -0.183641 0.013967 0.007086 -0.921323
 17   1.574674 0.609930 -0.000899 0.049721 -0.154915 0.436354
 18   -0.602177 0.511412 -0.000006 0.000000 0.000000 0.000000
 19   3.665960 0.290305 1.142751 -0.000002 -0.000014 -0.174510
 20   3.665954 0.290278 -1.094128 0.000007 -0.000003 -0.174546
 21   3.051705 1.322821 1.561250 0.000002 -0.000011 -0.000026
 22   -0.230435 -0.640814 0.481364 0.000162 -0.048483 0.751015
 23   3.067347 1.318940 -1.592019 0.000019 0.000002 -0.000024
 24   -0.101614 -0.476730 -0.547762 0.000163 -0.048508 0.751051
 25   4.109307 2.079372 1.539484 0.086295 -0.024824 -0.142089
 26   4.066355 2.118464 -1.535657 -0.119092 -0.024032 -0.154937
 27   3.234784 1.482542 1.514501 -0.000019 -0.000022 -0.000050
 28   3.237214 1.482148 -1.501142 -0.000002 -0.000009 -0.000024
 29   8.824059 0.150544 0.091743 -0.003292 -0.017251 -1.359352
 30   2.111085 -0.561179 1.784320 -0.000008 -0.000682 0.000024
 31   2.121290 -0.561289 -1.853599 0.000000 0.000000 -0.000002
 32   -0.814395 -0.093824 3.127092 -0.028078 -3.102358 -1.155804
 33   14.298673 -0.408176 0.471578 -0.000088 -0.000041 -0.997190
 34   15.835795 0.581398 0.242756 -0.111453 -0.015325 0.375882
 35   -0.815868 -0.091229 -3.114430 0.249006 3.056930 -0.051716
 36   14.294526 -0.410349 -0.467541 0.000093 0.000048 -1.038713
 37   15.834409 0.579420 -0.284600 -0.065081 -0.029137 -0.766068
 38   1.100621 -3.430311 -2.823813 0.012145 0.003928 0.853247
 39   -4.469461 -1.043135 -0.746180 0.004123 0.002049 0.273707
 40   1.157165 -3.473207 3.237290 0.012145 0.003929 0.853246
 41   -4.422121 -1.070849 0.959566 0.004122 0.002049 0.273707
 42   -0.458243 1.935591 -2.688614 -0.010894 -0.009657 -0.261683
 43   -0.484375 1.968117 2.869377 -0.010895 -0.009664 -0.261683
time 4
  0   0.255147 -3.214942 -7.581892 0.000000 0.662423 -1.571354
  1   -1.093036 0.000002 -0.326057 -1.570808 -1.570425 0.000119
  2   2.262337 0.113614 0.064702 -0.069357 -0.007178 -0.103522
  3   2.380047 0.353302 0.047440 0.000000 -0.000040 0.435923
  4   2.033756 0.190472 -0.000128 -0.075532 0.020937 0.269254
  5   2.451511 0.204909 -0.003447 0.000000 -0.000005 0.296306
  6   7.247600 -0.397300 -0.109469 0.000001 0.000009 0.052298
  7   -2.022252 -0.104661 3.136172 -0.299166 -1.361862 -2.901749
  8   1.168026 -0.537438 -0.063437 -0.340911 0.753624 -0.792842
  9   6.790376 -0.619176 0.015206 -0.000269 -0.000285 -1.350492
 10   8.637599 0.544015 -0.090417 -1.570112 0.000292 -0.069354
 11   6.790465 -0.619039 0.017802 0.001702 -0.011765 -0.960662
 12   -2.022474 -0.104699 -2.873818 0.298777 1.361771 -2.901888
 13   1.167898 -0.537463 0.063297 1.267232 -0.743591 -0.559069
 14   7.002743 -0.617765 -0.183752 0.000229 0.000250 -1.289478
 15   8.209042 0.615527 -0.255885 1.570090 -0.000063 -0.069646
 16   7.002735 -0.617911 -0.183641 0.013967 0.007086 -0.921323
 17   1.574674 0.609930 -0.000899 0.041678 -0.158016 0.544613
 18   -0.602177 0.511412 -0.000006 0.000000 0.000000 0.000000
 19   3.665960 0.309837 1.146658 -0.000002 -0.000014 -0.174510
 20   3.665954 0.309810 -1.090221 0.000007 -0.000003 -0.174546
 21   2.887637 1.322821 1.549531 0.000002 -0.000011 -0.000026
 22   -0.226528 -0.758005 0.473551 0.000194 -0.057471 0.890061
 23   2.903280 1.315034 -1.584207 0.000019 0.000002 -0.000024
 24   -0.074270 -0.562670 -0.551668 0.000187 -0.057496 0.890104
 25   3.953053 2.094997 1.523858 0.102271 -0.029428 -0.168407
 26   3.902288 2.141901 -1.516125 -0.141155 -0.028485 -0.183628
 27   3.293379 1.455197 1.514501 -0.000019 -0.000022 -0.000050
 28   3.295809 1.454803 -1.501142 -0.000002 -0.000009 -0.000024
 29   8.824059 0.150544 0.091743 -0.002133 -0.017702 -1.399052
 30   2.111085 -0.561179 1.784320 -0.000008 -0.000682 0.000024
 31   2.121290 -0.561289 -1.853599 0.000000 0.000000 -0.000002
 32   -0.814395 -0.093824 3.127092 -0.020528 -3.101785 -1.217337
 33   14.298673 -0.408176 0.471578 -0.000088 -0.000041 -1.609747
 34   15.835795 0.581398 0.242756 -0.092890 -0.068110 0.506690
 35   -0.815868 -0.091229 -3.114430 0.257807 3.091220 0.081065
 36   14.294526 -0.410349 -0.467541 0.000093 0.000048 -0.841972
 37   15.834409 0.579420 -0.284600 -0.062618 -0.034129 -0.904078
 38   1.100621 -3.430311 -2.823813 0.012440 0.004049 0.884221
 39   -4.469461 -1.043135 -0.746180 0.004123 0.002049 0.273707
 40   1.157165 -3.473207 3.237290 0.012440 0.004050 0.884221
 41   -4.422121 -1.070849 0.959566 0.004122 0.002049 0.273707
 42   -0.454337 1.916059 -2.684708 -0.014022 -0.012417 -0.254824
 43   -0.488281 1.952492 2.873283 -0.014031 -0.012410 -0.254824
time 5
  0   0.247334 -4.800928 -12.968775 -0.002477 0.845031 -1.574394
  1   -1.093036 0.000002 -0.326057 -1.570808 -1.570425 -0.000074
  2   2.262337 0.113614 0.064702 -0.069357 -0.007178 -0.103522
  3   2.380047 0.353302 0.047440 0.000000 -0.000040 0.334936
  4   2.033756 0.190472 -0.000128 -0.077229 0.013495 0.171931
  5   2.451511 0.204909 -0.003447 0.000000 -0.000005 0.224412
  6   7.247600 -0.397300 -0.109469 0.000001 0.000009 -0.115996
  7   -2.022252 -0.104661 3.136172 -0.299262 -1.361862 -2.734202
  8   1.168026 -0.537438 -0.063437 -0.074310 0.824718 -0.411572
  9   6.790376 -0.619176 0.015206 -0.000269 -0.000285 -1.350492
 10   8.637599 0.544015 -0.090417 -1.570112 0.000292 -0.069354
 11   6.790465 -0.619039 0.017802 0.001731 -0.011765 -0.960604
 12   -2.022474 -0.104699 -2.873818 0.534367 1.450671 -2.494414
 13   1.167898 -0.537463 0.063297 1.389055 -0.611115 -0.560401
 14   7.002743 -0.617765 -0.183752 0.000229 0.000250 -1.289478
 15   8.209042 0.615527 -0.255885 1.570090 -0.000063 -0.069646
 16   7.002735 -0.617911 -0.183641 0.013967 0.007086 -0.921323
 17   1.574674 0.609930 -0.000899 0.121458 -0.110871 0.361508
 18   -0.602177 0.511412 -0.000006 0.000000 0.000000 0.000000
 19   3.665960 0.309837 1.146658 -0.000002 -0.000014 -0.174510
 20   3.665954 0.309810 -1.090221 0.000007 -0.000003 -0.174546
 21   2.887637 1.322821 1.549531 0.000002 -0.000011 -0.000026
 22   -0.226528 -0.758005 0.473551 0.000194 -0.057471 0.890061
 23   2.903280 1.315034 -1.584207 0.000019 0.000002 -0.000024
 24   -0.074270 -0.562670 -0.551668 0.000187 -0.057496 0.890104
 25   3.953053 2.094997 1.523858 0.102271 -0.029428 -0.168407
 26   3.902288 2.141901 -1.516125 -0.141155 -0.028485 -0.183628
 27   3.293379 1.455197 1.514501 -0.000019 -0.000022 -0.000050
 28   3.295809 1.454803 -1.501142 -0.000002 -0.000009 -0.000024
 29   8.824059 0.150544 0.091743 -0.001598 -0.017773 -1.404738
 30   2.111085 -0.561179 1.784320 -0.000008 -0.000682 0.000024
 31   2.121290 -0.561289 -1.853599 0.000000 0.000000 -0.000002
 32   -0.814395 -0.093824 3.127092 -0.024349 -3.109903 -1.007066
 33   14.298673 -0.408176 0.471578 -0.000088 -0.000041 -1.715029
 34   15.835795 0.581398 0.242756 0.045953 -0.110353 -0.487118
 35   -0.815868 -0.091229 -3.114430 0.260712 3.108647 0.147291
 36   14.294526 -0.410349 -0.467541 0.000093 0.000048 -0.913886
 37   15.834409 0.579420 -0.284600 -0.059111 -0.039939 -0.858497
 38   1.100621 -3.430311 -2.823813 0.013724 0.004061 0.888620
 39   -4.469461 -1.043135 -0.746180 0.004123 0.002049 0.273707
 40   1.157165 -3.473207 3.237290 0.013724 0.004062 0.888620
 41   -4.422121 -1.070849 0.959566 0.004122 0.002049 0.273707
 42   -0.454337 1.884808 -2.676895 -0.016766 -0.014840 -0.245832
 43   -0.492188 1.929054 2.881096 -0.016767 -0.014826 -0.245832
time 6
  0   0.247334 -6.683798 -18.297062 -0.007183 1.035019 -1.580284
  1   -1.093036 0.000002 -0.326057 -1.570808 -1.570425 -0.000074
  2   2.262337 0.113614 0.064702 -0.069357 -0.007178 -0.103522
  3   2.380047 0.353302 0.047440 0.000000 -0.000040 0.225563
  4   2.033756 0.190472 -0.000128 -0.078243 0.004482 0.058224
  5   2.451511 0.204909 -0.003447 0.000000 -0.000005 0.141621
  6   7.247600 -0.397300 -0.109469 0.000001 0.000009 -0.319103
  7   -2.022252 -0.104661 3.136172 -0.299262 -1.361862 -2.530967
  8   1.168026 -0.537438 -0.063437 0.227221 0.773649 0.031504
  9   6.790376 -0.619176 0.015206 -0.000269 -0.000285 -1.320908
 10   8.637599 0.544015 -0.090417 -1.570112 0.000292 -0.069354
 11   6.790465 -0.619039 0.017802 0.001556 -0.011708 -0.939783
 12   -2.022474 -0.104699 -2.873818 1.720458 1.508748 -1.101860
 13   1.167898 -0.537463 0.063297 1.504552 -0.445176 -0.595753
 14   7.002743 -0.617765 -0.183752 0.000229 0.000250 -1.289478
 15   8.209042 0.615527 -0.255885 1.570090 -0.000063 -0.069646
 16   7.002735 -0.617911 -0.183641 0.013967 0.007086 -0.921323
 17   1.574674 0.609930 -0.000899 0.164720 -0.007021 0.127212
 18   -0.602177 0.511412 -0.000006 0.000000 0.000000 0.000000
 19   3.665960 0.309837 1.146658 -0.000002 -0.000014 -0.174510
 20   3.665954 0.309810 -1.090221 0.000007 -0.000003 -0.174546
 21   2.887637 1.322821 1.549531 0.000002 -0.000011 -0.000026
 22   -0.226528 -0.758005 0.473551 0.000194 -0.057471 0.890061
 23   2.903280 1.315034 -1.584207 0.000019 0.000002 -0.000024
 24   -0.074270 -0.562670 -0.551668 0.000187 -0.057496 0.890104
 25   3.953053 2.094997 1.523858 0.102271 -0.029428 -0.168407
 26   3.902288 2.141901 -1.516125 -0.141155 -0.028485 -0.183628
 27   3.293379 1.455197 1.514501 -0.000019 -0.000022 -0.000050
 28   3.295809 1.454803 -1.501142 -0.000002 -0.000009 -0.000024
 29   8.824059 0.150544 0.091743 -0.003470 -0.016349 -1.123086
 30   2.111085 -0.561179 1.784320 -0.000008 -0.000682 0.000024
 31   2.121290 -0.561289 -1.853599 0.000000 0.000000 -0.000002
 32   -0.814395 -0.093824 3.127092 -0.029942 -3.122701 -0.724391
 33   14.298673 -0.408176 0.471578 -0.000088 -0.000041 -1.613955
 34   15.835795 0.581398 0.242756 0.063389 -0.106546 -0.463744
 35   -0.815868 -0.091229 -3.114430 0.262472 3.128509 0.222720
 36   14.294526 -0.410349 -0.467541 0.000093 0.000048 -1.016698
 37   15.834409 0.579420 -0.284600 -0.054205 -0.046389 -0.791114
 38   1.120153 -3.414685 -2.823813 0.016418 0.000819 0.546674
 39   -4.469461 -1.043135 -0.746180 0.004123 0.002049 0.273707
 40   1.137633 -3.488833 3.237290 0.016418 0.000820 0.546674
 41   -4.422121 -1.070849 0.959566 0.004122 0.002049 0.273707
 42   -0.450430 1.853557 -2.669082 -0.019151 -0.016925 -0.235084
 43   -0.500000 1.905616 2.888909 -0.019153 -0.016929 -0.235084
time 7
  0   0.259053 -8.672140 -23.476908 -0.018081 1.227140 -1.591589
  1   -1.093036 0.000002 -0.326057 -1.570808 -1.570425 -0.000074
  2   2.262337 0.113614 0.064702 -0.069357 -0.007178 -0.103522
  3   2.380047 0.353302 0.047440 0.000000 -0.000040 0.118801
  4   2.033756 0.190472 -0.000128 -0.078317 -0.003475 -0.047581
  5   2.451511 0.204909 -0.003447 0.000000 -0.000005 0.062050
  6   7.247600 -0.397300 -0.109469 0.000001 0.000009 -0.502317
  7   -2.022252 -0.104661 3.136172 -0.299358 -1.361862 -2.347548
  8   1.168026 -0.537438 -0.063437 0.464840 0.598354 0.358750
  9   6.790376 -0.619176 0.015206 -0.000269 -0.000285 -1.279703
 10   8.637599 0.544015 -0.090417 -1.570112 0.000292 -0.069354
 11   6.790465 -0.619039 0.017802 0.001410 -0.011708 -0.911003
 12   -2.022474 -0.104699 -2.873818 2.674697 1.434214 0.039087
 13   1.167898 -0.537463 0.063297 1.612878 -0.269881 -0.658467
 14   7.002743 -0.617765 -0.183752 0.000229 0.000250 -1.289478
 15   8.209042 0.615527 -0.255885 1.570090 -0.000063 -0.069646
 16   7.002735 -0.617911 -0.183641 0.013967 0.007086 -0.921323
 17   1.574674 0.609930 -0.000899 0.138153 0.090368 -0.066760
 18   -0.602177 0.511412 -0.000006 0.000000 0.000000 0.000000
 19   3.665960 0.309837 1.146658 -0.000002 -0.000014 -0.174510
 20   3.665954 0.309810 -1.090221 0.000007 -0.000003 -0.174546
 21   2.887637 1.322821 1.549531 0.000002 -0.000011 -0.000026
 22   -0.226528 -0.758005 0.473551 0.000194 -0.057471 0.890061
 23   2.903280 1.315034 -1.584207 0.000019 0.000002 -0.000024
 24   -0.074270 -0.562670 -0.551668 0.000187 -0.057496 0.890104
 25   3.953053 2.094997 1.523858 0.102271 -0.029428 -0.168407
 26   3.902288 2.141901 -1.516125 -0.141155 -0.028485 -0.183628
 27   3.293379 1.455197 1.514501 -0.000019 -0.000022 -0.000050
 28   3.295809 1.454803 -1.501142 -0.000002 -0.000009 -0.000024
 29   8.824059 0.150544 0.091743 -0.008015 -0.012907 -0.451465
 30   2.111085 -0.561179 1.784320 -0.000008 -0.000682 0.000024
 31   2.121290 -0.561289 -1.853599 0.000000 0.000000 -0.000002
 32   -0.814395 -0.093824 3.127092 -0.032738 -3.136740 -0.433348
 33   14.298673 -0.408176 0.471578 -0.000088 -0.000041 -1.436341
 34   15.835795 0.581398 0.242756 0.055292 -0.112598 -0.286319
 35   -0.815868 -0.091229 -3.114430 0.262824 3.144717 0.284235
 36   14.294526 -0.410349 -0.467541 0.000093 0.000048 -1.133646
 37   15.834409 0.579420 -0.284600 -0.049043 -0.051764 -0.714504
 38   1.139685 -3.399060 -2.823813 0.018018 -0.002410 0.204729
 39   -4.469461 -1.043135 -0.746180 0.004123 0.002049 0.273707
 40   1.118101 -3.504458 3.237290 0.018018 -0.002409 0.204728
 41   -4.422121 -1.070849 0.959566 0.004122 0.002049 0.273707
 42   -0.450430 1.814493 -2.661269 -0.021189 -0.018719 -0.222913
 43   -0.507813 1.878271 2.896721 -0.021190 -0.018718 -0.222913
time 8
  0   0.259053 -10.621418 -28.629410 -0.052839 1.412682 -1.626168
  1   -1.093036 0.000002 -0.326057 -1.570808 -1.570425 -0.000026
  2   2.262337 0.113614 0.064702 -0.069357 -0.007178 -0.103522
  3   2.380047 0.353302 0.047440 0.000000 -0.000040 0.026221
  4   2.033756 0.190472 -0.000128 -0.077819 -0.009444 -0.121815
  5   2.451511 0.204909 -0.003447 0.000000 -0.000005 -0.000210
  6   7.247600 -0.397300 -0.109469 0.000001 0.000009 -0.610427
  7   -2.022252 -0.104661 3.136172 -0.299358 -1.361862 -2.239450
  8   1.168026 -0.537438 -0.063437 0.663793 0.387939 0.517913
  9   6.790376 -0.619176 0.015206 -0.000269 -0.000285 -1.244686
 10   8.637599 0.544015 -0.090417 -1.570112 0.000292 -0.069354
 11   6.790465 -0.619039 0.017802 0.001264 -0.011708 -0.886492
 12   -2.022474 -0.104699 -2.873818 2.866215 1.344037 -5.940615
 13   1.167898 -0.537463 0.063297 1.714175 -0.106841 -0.713675
 14   7.002743 -0.617765 -0.183752 0.000229 0.000250 -1.289478
 15   8.209042 0.615527 -0.255885 1.570090 -0.000063 -0.069646
 16   7.002735 -0.617911 -0.183641 0.013967 0.007086 -0.921323
 17   1.574674 0.609930 -0.000899 0.098385 0.132093 -0.123864
 18   -0.602177 0.511412 -0.000006 0.000000 0.000000 0.000000
 19   3.665960 0.309837 1.146658 -0.000002 -0.000014 -0.174510
 20   3.665954 0.309810 -1.090221 0.000007 -0.000003 -0.174546
 21   2.887637 1.322821 1.549531 0.000002 -0.000011 -0.000026
 22   -0.226528 -0.758005 0.473551 0.000194 -0.057471 0.890061
 23   2.903280 1.315034 -1.584207 0.000019 0.000002 -0.000024
 24   -0.074270 -0.562670 -0.551668 0.000187 -0.057496 0.890104
 25   3.953053 2.094997 1.523858 0.102271 -0.029428 -0.168407
 26   3.902288 2.141901 -1.516125 -0.141155 -0.028485 -0.183628
 27   3.293379 1.455197 1.514501 -0.000019 -0.000022 -0.000050
 28   3.295809 1.454803 -1.501142 -0.000002 -0.000009 -0.000024
 29   8.824059 0.150544 0.091743 -0.013362 -0.008658 0.350037
 30   2.111085 -0.561179 1.784320 -0.000008 -0.000682 0.000024
 31   2.121290 -0.561289 -1.853599 0.000000 0.000000 -0.000002
 32   -0.814395 -0.093824 3.127092 -0.032272 -3.148010 -0.101436
 33   14.298673 -0.408176 0.471578 -0.000088 -0.000041 -1.147173
 34   15.835795 0.581398 0.242756 0.055752 -0.112476 -0.249141
 35   -0.815868 -0.091229 -3.114430 0.262472 3.151650 0.309159
 36   14.294526 -0.410349 -0.467541 0.000093 0.000048 -1.249589
 37   15.834409 0.579420 -0.284600 -0.045418 -0.054938 -0.640580
 38   1.135779 -3.399060 -2.823813 0.017850 -0.002061 0.237109
 39   -4.469461 -1.043135 -0.746180 0.004123 0.002049 0.273707
 40   1.122007 -3.504458 3.237290 0.017850 -0.002060 0.237108
 41   -4.422121 -1.070849 0.959566 0.004122 0.002049 0.273707
 42   -0.446524 1.771523 -2.649550 -0.022915 -0.020237 -0.209697
 43   -0.511720 1.847020 2.908441 -0.022914 -0.020240 -0.209697
time 9
  0   0.259053 -10.621418 -34.246769 -0.718359 1.557951 -2.292966
  1   -1.093036 0.000002 -0.326057 -1.570808 -1.570425 0.000022
  2   2.262337 0.113614 0.064702 -0.069357 -0.007178 -0.103522
  3   2.380047 0.353302 0.047440 0.000000 -0.000040 0.026221
  4   2.033756 0.190472 -0.000128 -0.078354 0.001258 0.017047
  5   2.451511 0.204909 -0.003447 0.000000 -0.000005 0.052144
  6   7.247600 -0.397300 -0.109469 0.000001 0.000009 -0.556863
  7   -2.022252 -0.104661 3.136172 -0.299358 -1.361862 -2.293264
  8   1.168026 -0.537438 -0.063437 1.222623 0.408115 0.333762
  9   6.790376 -0.619176 0.015206 -0.000269 -0.000285 -1.219782
 10   8.637599 0.544015 -0.090417 -1.570112 0.000292 -0.069354
 11   6.790465 -0.619039 0.017802 0.001147 -0.011680 -0.869016
 12   -2.022474 -0.104699 -2.873818 2.866215 1.344066 -5.994134
 13   1.167898 -0.537463 0.063297 1.794875 -0.014947 -0.594603
 14   7.002743 -0.617765 -0.183752 0.000229 0.000250 -1.289478
 15   8.209042 0.615527 -0.255885 1.570090 -0.000063 -0.069646
 16   7.002735 -0.617911 -0.183641 0.013967 0.007086 -0.921323
 17   1.574674 0.609930 -0.000899 0.122514 0.109964 -0.170103
 18   -0.602177 0.511412 -0.000006 0.000000 0.000000 0.000000
 19   3.665960 0.309837 1.146658 -0.000002 -0.000014 -0.174510
 20   3.665954 0.309810 -1.090221 0.000007 -0.000003 -0.174546
 21   2.887637 1.322821 1.549531 0.000002 -0.000011 -0.000026
 22   -0.226528 -0.758005 0.473551 0.000194 -0.057471 0.890061
 23   2.903280 1.315034 -1.584207 0.000019 0.000002 -0.000024
 24   -0.074270 -0.562670 -0.551668 0.000187 -0.057496 0.890104
 25   3.953053 2.094997 1.523858 0.102271 -0.029428 -0.168407
 26   3.902288 2.141901 -1.516125 -0.141155 -0.028485 -0.183628
 27   3.293379 1.455197 1.514501 -0.000019 -0.000022 -0.000050
 28   3.295809 1.454803 -1.501142 -0.000002 -0.000009 -0.000024
 29   8.824059 0.150544 0.091743 -0.017908 -0.005026 1.021657
 30   2.111085 -0.561179 1.784320 -0.000008 -0.000682 0.000024
 31   2.121290 -0.561289 -1.853599 0.000000 0.000000 -0.000002
 32   -0.814395 -0.093824 3.127092 -0.029942 -3.154409 0.107582
 33   14.298673 -0.408176 0.471578 -0.000088 -0.000041 -0.869201
 34   15.835795 0.581398 0.242756 0.055292 -0.112598 -0.312472
 35   -0.815868 -0.091229 -3.114430 0.262824 3.142187 0.274868
 36   14.294526 -0.410349 -0.467541 0.000093 0.000048 -1.347844
 37   15.834409 0.579420 -0.284600 -0.045260 -0.055117 -0.581208
 38   1.127966 -3.402966 -2.823813 0.017387 -0.001169 0.321969
 39   -4.469461 -1.043135 -0.746180 0.004123 0.002049 0.273707
 40   1.129820 -3.500552 3.237290 0.017387 -0.001168 0.321968
 41   -4.422121 -1.070849 0.959566 0.004122 0.002049 0.273707
 42   -0.446524 1.728553 -2.637831 -0.024353 -0.021509 -0.195729
 43   -0.519532 1.815769 2.920160 -0.024351 -0.021511 -0.195729
time 10
  0   0.259053 -10.621418 -32.223267 1.404850 1.578577 -0.168790
  1   -1.093036 0.000002 -0.326057 -1.570808 -1.570425 0.000071
  2   2.262337 0.113614 0.064702 -0.069357 -0.007178 -0.103522
  3   2.380047 0.353302 0.047440 0.000000 -0.000040 0.108394
  4   2.033756 0.190472 -0.000128 -0.078188 0.004962 0.062465
  5   2.451511 0.204909 -0.003447 0.000000 -0.000005 0.110590
  6   7.247600 -0.397300 -0.109469 0.000001 0.000009 -0.402442
  7   -2.022252 -0.104661 3.136172 -0.299262 -1.361862 -2.447945
  8   1.168026 -0.537438 -0.063437 1.101821 0.431964 -0.019674
  9   6.790376 -0.619176 0.015206 -0.000269 -0.000285 -1.248762
 10   8.637599 0.544015 -0.090417 -1.570112 0.000292 -0.069354
 11   6.790465 -0.619039 0.017802 0.001264 -0.011708 -0.889433
 12   -2.022474 -0.104699 -2.873818 2.866215 1.344066 0.133583
 13   1.167898 -0.537463 0.063297 1.962110 -0.002894 -0.380976
 14   7.002743 -0.617765 -0.183752 0.000229 0.000250 -1.289478
 15   8.209042 0.615527 -0.255885 1.570090 -0.000063 -0.069646
 16   7.002735 -0.617911 -0.183641 0.013967 0.007086 -0.921323
 17   1.574674 0.609930 -0.000899 0.161754 0.032029 0.061237
 18   -0.602177 0.511412 -0.000006 0.000000 0.000000 0.000000
 19   3.665960 0.309837 1.146658 -0.000002 -0.000014 -0.174510
 20   3.665954 0.309810 -1.090221 0.000007 -0.000003 -0.174546
 21   2.887637 1.322821 1.549531 0.000002 -0.000011 -0.000026
 22   -0.226528 -0.758005 0.473551 0.000194 -0.057471 0.890061
 23   2.903280 1.315034 -1.584207 0.000019 0.000002 -0.000024
 24   -0.074270 -0.562670 -0.551668 0.000187 -0.057496 0.890104
 25   3.953053 2.094997 1.523858 0.102271 -0.029428 -0.168407
 26   3.902288 2.141901 -1.516125 -0.141155 -0.028485 -0.183628
 27   3.293379 1.455197 1.514501 -0.000019 -0.000022 -0.000050
 28   3.295809 1.454803 -1.501142 -0.000002 -0.000009 -0.000024
 29   8.824059 0.150544 0.091743 -0.019779 -0.003459 1.303256
 30   2.111085 -0.561179 1.784320 -0.000008 -0.000682 0.000024
 31   2.121290 -0.561289 -1.853599 0.000000 0.000000 -0.000002
 32   -0.814395 -0.093824 3.127092 -0.032831 -3.139606 -0.337605
 33   14.298673 -0.408176 0.471578 -0.000088 -0.000041 -0.869201
 34   15.835795 0.581398 0.242756 0.055292 -0.112598 -0.757335
 35   -0.815868 -0.091229 -3.114430 0.212480 2.985820 -0.354199
 36   14.294526 -0.410349 -0.467541 0.000093 0.000048 -1.347844
 37   15.834409 0.579420 -0.284600 -0.068706 -0.019309 -0.616750
 38   1.120153 -3.406873 -2.823813 0.016608 0.000000 0.441286
 39   -4.469461 -1.043135 -0.746180 0.004123 0.002049 0.273707
 40   1.137633 -3.496645 3.237290 0.016608 0.000001 0.441286
 41   -4.422121 -1.070849 0.959566 0.004122 0.002049 0.273707
 42   -0.446524 1.685583 -2.626112 -0.025527 -0.022552 -0.181425
 43   -0.527345 1.780612 2.931879 -0.025538 -0.022547 -0.181425
time 11
  0   0.259053 -10.621418 -28.871603 0.823376 1.582044 -0.750183
  1   -1.093036 0.000002 -0.326057 -1.570808 -1.570425 0.000022
  2   2.262337 0.113614 0.064702 -0.069357 -0.007178 -0.103522
  3   2.380047 0.353302 0.047440 0.000000 -0.000040 0.202892
  4   2.033756 0.190472 -0.000128 -0.078059 0.007011 0.089070
  5   2.451511 0.204909 -0.003447 0.000000 -0.000005 0.168046
  6   7.247600 -0.397300 -0.109469 0.000001 0.000009 -0.313908
  7   -2.022252 -0.104661 3.136172 -0.299262 -1.361862 -2.535850
  8   1.168026 -0.537438 -0.063437 0.879770 0.347738 -0.373173
  9   6.790376 -0.619176 0.015206 -0.000269 -0.000285 -1.282344
 10   8.637599 0.544015 -0.090417 -1.570112 0.000292 -0.069354
 11   6.790465 -0.619039 0.017802 0.001410 -0.011708 -0.912849
 12   -2.022474 -0.104699 -2.873818 2.866215 1.344066 0.045023
 13   1.167898 -0.537463 0.063297 2.145162 -0.007166 -0.268381
 14   7.002743 -0.617765 -0.183752 0.000229 0.000250 -1.289478
 15   8.209042 0.615527 -0.255885 1.570090 -0.000063 -0.069646
 16   7.002735 -0.617911 -0.183641 0.013967 0.007086 -0.921323
 17   1.574674 0.609930 -0.000899 0.163745 -0.020298 0.156042
 18   -0.602177 0.511412 -0.000006 0.000000 0.000000 0.000000
 19   3.665960 0.309837 1.146658 -0.000002 -0.000014 -0.174510
 20   3.665954 0.309810 -1.090221 0.000007 -0.000003 -0.174546
 21   2.887637 1.322821 1.549531 0.000002 -0.000011 -0.000026
 22   -0.226528 -0.758005 0.473551 0.000194 -0.057471 0.890061
 23   2.903280 1.315034 -1.584207 0.000019 0.000002 -0.000024
 24   -0.074270 -0.562670 -0.551668 0.000187 -0.057496 0.890104
 25   3.953053 2.094997 1.523858 0.102271 -0.029428 -0.168407
 26   3.902288 2.141901 -1.516125 -0.141155 -0.028485 -0.183628
 27   3.293379 1.455197 1.514501 -0.000019 -0.000022 -0.000050
 28   3.295809 1.454803 -1.501142 -0.000002 -0.000009 -0.000024
 29   8.824059 0.150544 0.091743 -0.016927 -0.004860 0.956368
 30   2.111085 -0.561179 1.784320 -0.000008 -0.000682 0.000024
 31   2.121290 -0.561289 -1.853599 0.000000 0.000000 -0.000002
 32   -0.814395 -0.093824 3.127092 -0.032552 -3.135021 -0.479398
 33   14.298673 -0.408176 0.471578 -0.000088 -0.000041 -0.614333
 34   15.835795 0.581398 0.242756 0.055292 -0.112598 -1.154479
 35   -0.815868 -0.091229 -3.114430 0.347934 2.963710 -0.515574
 36   14.294526 -0.410349 -0.467541 0.000093 0.000048 -0.990744
 37   15.834409 0.579420 -0.284600 -0.054382 -0.157472 -0.683677
 38   1.112340 -3.410779 -2.823813 0.015618 0.001169 0.573189
 39   -4.469461 -1.043135 -0.746180 0.004123 0.002049 0.273707
 40   1.145446 -3.492739 3.237290 0.015618 0.001170 0.573189
 41   -4.422121 -1.070849 0.959566 0.004122 0.002049 0.273707
 42   -0.446524 1.642613 -2.614393 -0.026474 -0.023380 -0.167122
 43   -0.535158 1.749361 2.939692 -0.026475 -0.023378 -0.167122
time 12
  0   0.259053 -10.621418 -27.062954 0.681042 1.583822 -0.892587
  1   -1.093036 0.000002 -0.326057 -1.570808 -1.570425 -0.000026
  2   2.262337 0.113614 0.064702 -0.069357 -0.007178 -0.103522
  3   2.380047 0.353302 0.047440 0.000000 -0.000040 0.244091
  4   2.033756 0.190472 -0.000128 -0.078022 0.007431 0.095377
  5   2.451511 0.204909 -0.003447 0.000000 -0.000005 0.191697
  6   7.247600 -0.397300 -0.109469 0.000001 0.000009 -0.493321
  7   -2.022252 -0.104661 3.136172 -0.299358 -1.361862 -2.356752
  8   1.168026 -0.537438 -0.063437 0.800859 0.299889 -0.579465
  9   6.790376 -0.619176 0.015206 -0.000269 -0.000285 -1.219782
 10   8.637599 0.544015 -0.090417 -1.570112 0.000292 -0.069354
 11   6.790465 -0.619039 0.017802 0.001147 -0.011680 -0.869016
 12   -2.022474 -0.104699 -2.873818 2.866215 1.344066 0.224729
 13   1.167898 -0.537463 0.063297 2.212717 0.172249 -0.479950
 14   7.002743 -0.617765 -0.183752 0.000229 0.000250 -1.289478
 15   8.209042 0.615527 -0.255885 1.570090 -0.000063 -0.069646
 16   7.002735 -0.617911 -0.183641 0.013967 0.007086 -0.921323
 17   1.574674 0.609930 -0.000899 0.159114 0.043082 -0.101873
 18   -0.602177 0.511412 -0.000006 0.000000 0.000000 0.000000
 19   3.665960 0.309837 1.146658 -0.000002 -0.000014 -0.174510
 20   3.665954 0.309810 -1.090221 0.000007 -0.000003 -0.174546
 21   2.887637 1.322821 1.549531 0.000002 -0.000011 -0.000026
 22   -0.226528 -0.758005 0.473551 0.000194 -0.057471 0.890061
 23   2.903280 1.315034 -1.584207 0.000019 0.000002 -0.000024
 24   -0.074270 -0.562670 -0.551668 0.000187 -0.057496 0.890104
 25   3.953053 2.094997 1.523858 0.102271 -0.029428 -0.168407
 26   3.902288 2.141901 -1.516125 -0.141155 -0.028485 -0.183628
 27   3.293379 1.455197 1.514501 -0.000019 -0.000022 -0.000050
 28   3.295809 1.454803 -1.501142 -0.000002 -0.000009 -0.000024
 29   8.824059 0.150544 0.091743 -0.010600 -0.008159 0.193116
 30   2.111085 -0.561179 1.784320 -0.000008 -0.000682 0.000024
 31   2.121290 -0.561289 -1.853599 0.000000 0.000000 -0.000002
 32   -0.814395 -0.093824 3.127092 -0.032365 -3.134448 -0.502907
 33   14.298673 -0.408176 0.471578 -0.000088 -0.000041 -0.415837
 34   15.835795 0.581398 0.242756 0.055292 -0.112598 -1.376844
 35   -0.815868 -0.091229 -3.114430 0.492630 2.959119 -0.518258
 36   14.294526 -0.410349 -0.467541 0.000093 0.000048 -0.719926
 37   15.834409 0.579420 -0.284600 -0.119774 -0.269810 -0.643470
 38   1.108434 -3.418591 -2.823813 0.014755 0.002073 0.681510
 39   -4.469461 -1.043135 -0.746180 0.004123 0.002049 0.273707
 40   1.149352 -3.484926 3.237290 0.014755 0.002074 0.681509
 41   -4.422121 -1.070849 0.959566 0.004122 0.002049 0.273707
 42   -0.442618 1.595736 -2.602674 -0.027217 -0.024024 -0.153195
 43   -0.542971 1.718110 2.951411 -0.027212 -0.024022 -0.153195
time 13
  0   0.259053 -10.621418 -28.320807 0.700691 1.583111 -0.873017
  1   -1.093036 0.000002 -0.326057 -1.570808 -1.570425 0.000022
  2   2.262337 0.113614 0.064702 -0.069357 -0.006783 -0.099366
  3   2.380047 0.353302 0.047440 0.000000 -0.000040 0.182364
  4   2.033756 0.190472 -0.000128 -0.078188 0.005225 0.067720
  5   2.451511 0.204909 -0.003447 0.000000 -0.000005 0.145039
  6   7.247600 -0.397300 -0.109469 0.000001 0.000009 -0.610427
  7   -2.022252 -0.104661 3.136172 -0.299358 -1.361862 -2.239450
  8   1.168026 -0.537438 -0.063437 0.935520 0.501650 -0.583134
  9   6.790376 -0.619176 0.015206 -0.000269 -0.000285 -0.957834
 10   8.637599 0.544015 -0.090417 -1.570112 0.000292 -0.069354
 11   6.790465 -0.619039 0.017802 0.000096 -0.011538 -0.685668
 12   -2.022474 -0.104699 -2.873818 2.866215 1.344037 -5.940615
 13   1.167898 -0.537463 0.063297 2.044076 0.257227 -0.780384
 14   7.002743 -0.617765 -0.183752 0.000229 0.000250 -1.289478
 15   8.209042 0.615527 -0.255885 1.570090 -0.000063 -0.069646
 16   7.002735 -0.617911 -0.183641 0.013967 0.007086 -0.921323
 17   1.574674 0.609930 -0.000899 0.128810 0.103219 -0.288784
 18   -0.602177 0.511412 -0.000006 0.000000 0.000000 0.000000
 19   3.665960 0.309837 1.146658 -0.000002 -0.000014 -0.174510
 20   3.665954 0.309810 -1.090221 0.000007 -0.000003 -0.174546
 21   2.887637 1.322821 1.549531 0.000002 -0.000011 -0.000026
 22   -0.226528 -0.758005 0.473551 0.000194 -0.057471 0.890061
 23   2.903280 1.315034 -1.584207 0.000019 0.000002 -0.000024
 24   -0.074270 -0.562670 -0.551668 0.000187 -0.057496 0.890104
 25   3.953053 2.094997 1.523858 0.102271 -0.029428 -0.168407
 26   3.902288 2.141901 -1.516125 -0.141155 -0.028485 -0.183628
 27   3.293379 1.455197 1.514501 -0.000019 -0.000022 -0.000050
 28   3.295809 1.454803 -1.501142 -0.000002 -0.000009 -0.000024
 29   8.824059 0.150544 0.091743 -0.004272 -0.012029 -0.570081
 30   2.111085 -0.561179 1.784320 -0.000008 -0.000682 0.000024
 31   2.121290 -0.561289 -1.853599 0.000000 0.000000 -0.000002
 32   -0.814395 -0.093824 3.127092 -0.032738 -3.137027 -0.417012
 33   14.298673 -0.408176 0.471578 -0.000088 -0.000041 -0.473560
 34   15.835795 0.581398 0.242756 0.056511 -0.111939 -1.244360
 35   -0.815868 -0.091229 -3.114430 0.556969 2.962398 -0.404484
 36   14.294526 -0.410349 -0.467541 0.000093 0.000048 -0.828686
 37   15.834409 0.579420 -0.284600 -0.135812 -0.243242 -0.332617
 38   1.104528 -3.418591 -2.823813 0.014377 0.002446 0.726414
 39   -4.469461 -1.043135 -0.746180 0.004123 0.002049 0.273707
 40   1.153258 -3.484926 3.237290 0.014377 0.002447 0.726414
 41   -4.422121 -1.070849 0.959566 0.004122 0.002049 0.273707
 42   -0.442618 1.556673 -2.590955 -0.027768 -0.024514 -0.139980
 43   -0.550783 1.690765 2.963130 -0.027762 -0.024508 -0.139980
time 14
  0   0.259053 -10.621418 -31.141205 0.849713 1.581333 -0.723583
  1   -1.093036 0.000002 -0.326057 -1.570808 -1.570425 -0.000026
  2   2.262337 0.113614 0.064702 -0.069408 -0.006579 -0.095282
  3   2.380047 0.353302 0.047440 0.000000 -0.000040 0.067338
  4   2.033756 0.190472 -0.000128 -0.078354 0.001558 0.019693
  5   2.451511 0.204909 -0.003447 0.000000 -0.000005 0.064477
  6   7.247600 -0.397300 -0.109469 0.000001 0.000009 -0.215649
  7   -2.022252 -0.104661 3.136172 -0.299262 -1.361862 -2.634463
  8   1.168026 -0.537438 -0.063437 1.241797 0.803435 -0.336988
  9   6.790376 -0.619176 0.015206 -0.000269 -0.000285 -0.600345
 10   8.637599 0.544015 -0.090417 -1.570112 0.000292 -0.069354
 11   6.790465 -0.619039 0.017802 -0.001276 -0.011225 -0.435416
 12   -2.022474 -0.104699 -2.873818 2.866215 1.344066 -0.053303
 13   1.167898 -0.537463 0.063297 1.809919 0.070947 -0.783532
 14   7.002743 -0.617765 -0.183752 0.000229 0.000250 -1.289478
 15   8.209042 0.615527 -0.255885 1.570090 -0.000063 -0.069646
 16   7.002735 -0.617911 -0.183641 0.013967 0.007086 -0.921323
 17   1.574674 0.609930 -0.000899 0.150502 0.067009 -0.240809
 18   -0.602177 0.511412 -0.000006 0.000000 0.000000 0.000000
 19   3.665960 0.309837 1.146658 -0.000002 -0.000014 -0.174510
 20   3.665954 0.309810 -1.090221 0.000007 -0.000003 -0.174546
 21   2.887637 1.322821 1.549531 0.000002 -0.000011 -0.000026
 22   -0.226528 -0.758005 0.473551 0.000194 -0.057471 0.890061
 23   2.903280 1.315034 -1.584207 0.000019 0.000002 -0.000024
 24   -0.074270 -0.562670 -0.551668 0.000187 -0.057496 0.890104
 25   3.953053 2.094997 1.523858 0.102271 -0.029428 -0.168407
 26   3.902288 2.141901 -1.516125 -0.141155 -0.028485 -0.183628
 27   3.293379 1.455197 1.514501 -0.000019 -0.000022 -0.000050
 28   3.295809 1.454803 -1.501142 -0.000002 -0.000009 -0.000024
 29   8.824059 0.150544 0.091743 -0.001420 -0.015352 -0.916970
 30   2.111085 -0.561179 1.784320 -0.000008 -0.000682 0.000024
 31   2.121290 -0.561289 -1.853599 0.000000 0.000000 -0.000002
 32   -0.814395 -0.093824 3.127092 -0.032831 -3.141516 -0.279488
 33   14.298673 -0.408176 0.471578 -0.000088 -0.000041 -0.614888
 34   15.835795 0.581398 0.242756 0.057823 -0.111329 -0.976481
 35   -0.815868 -0.091229 -3.114430 0.590326 2.979731 -0.235167
 36   14.294526 -0.410349 -0.467541 0.000093 0.000048 -1.060805
 37   15.834409 0.579420 -0.284600 -0.109588 -0.163590 0.052211
 38   1.120153 -3.418591 -2.823813 0.015008 0.000410 0.544414
 39   -4.469461 -1.043135 -0.746180 0.004123 0.002049 0.273707
 40   1.137633 -3.484926 3.237290 0.015008 0.000411 0.544413
 41   -4.422121 -1.070849 0.959566 0.004122 0.002049 0.273707
 42   -0.442618 1.517609 -2.583142 -0.028164 -0.024852 -0.127809
 43   -0.558596 1.663421 2.970942 -0.028162 -0.024853 -0.127809
time 15
  0   0.259053 -10.621418 -34.067074 1.182184 1.579555 -0.391182
  1   -1.093036 0.000002 -0.326057 -1.570808 -1.570425 0.000022
  2   2.262337 0.113614 0.064702 -0.069357 -0.007178 -0.103522
  3   2.380047 0.353302 0.047440 0.000000 -0.000040 -0.017324
  4   2.033756 0.190472 -0.000128 -0.078354 -0.000431 -0.009087
  5   2.451511 0.204909 -0.003447 0.000000 -0.000005 0.025967
  6   7.247600 -0.397300 -0.109469 0.000001 0.000009 0.182867
  7   -2.022252 -0.104661 3.136172 -0.299166 -1.361862 -3.032011
  8   1.168026 -0.537438 -0.063437 1.562692 0.948340 -0.023090
  9   6.790376 -0.619176 0.015206 -0.000269 -0.000285 -0.358396
 10   8.637599 0.544015 -0.090417 -1.570112 0.000292 -0.069354
 11   6.790465 -0.619039 0.017802 -0.002181 -0.011054 -0.266083
 12   -2.022474 -0.104699 -2.873818 2.865640 1.344066 -0.452448
 13   1.167898 -0.537463 0.063297 1.614987 -0.053495 -0.666821
 14   7.002743 -0.617765 -0.183752 0.000229 0.000250 -1.289478
 15   8.209042 0.615527 -0.255885 1.570090 -0.000063 -0.069646
 16   7.002735 -0.617911 -0.183641 0.013967 0.007086 -0.921323
 17   1.574674 0.609930 -0.000899 0.164029 0.007936 -0.155725
 18   -0.602177 0.511412 -0.000006 0.000000 0.000000 0.000000
 19   3.665960 0.309837 1.146658 -0.000002 -0.000014 -0.174510
 20   3.665954 0.309810 -1.090221 0.000007 -0.000003 -0.174546
 21   2.887637 1.322821 1.549531 0.000002 -0.000011 -0.000026
 22   -0.226528 -0.758005 0.473551 0.000194 -0.057471 0.890061
 23   2.903280 1.315034 -1.584207 0.000019 0.000002 -0.000024
 24   -0.074270 -0.562670 -0.551668 0.000187 -0.057496 0.890104
 25   3.953053 2.094997 1.523858 0.102271 -0.029428 -0.168407
 26   3.902288 2.141901 -1.516125 -0.141155 -0.028485 -0.183628
 27   3.293379 1.455197 1.514501 -0.000019 -0.000022 -0.000050
 28   3.295809 1.454803 -1.501142 -0.000002 -0.000009 -0.000024
 29   8.824059 0.150544 0.091743 -0.002579 -0.017560 -0.852431
 30   2.111085 -0.561179 1.784320 -0.000008 -0.000682 0.000024
 31   2.121290 -0.561289 -1.853599 0.000000 0.000000 -0.000002
 32   -0.814395 -0.093824 3.127092 -0.032738 -3.145241 -0.171677
 33   14.298673 -0.408176 0.471578 -0.000088 -0.000041 -0.677454
 34   15.835795 0.581398 0.242756 0.055292 -0.112598 -0.783399
 35   -0.815868 -0.091229 -3.114430 0.587950 2.983478 -0.121777
 36   14.294526 -0.410349 -0.467541 0.000093 0.000048 -1.166166
 37   15.834409 0.579420 -0.284600 -0.073671 -0.071267 0.236614
 38   1.143591 -3.410779 -2.823813 0.016481 -0.003844 0.152493
 39   -4.469461 -1.043135 -0.746180 0.004123 0.002049 0.273707
 40   1.114195 -3.492739 3.237290 0.016481 -0.003843 0.152492
 41   -4.422121 -1.070849 0.959566 0.004122 0.002049 0.273707
 42   -0.442618 1.482452 -2.571423 -0.028427 -0.025097 -0.117061
 43   -0.562502 1.636076 2.982662 -0.028424 -0.025089 -0.117061
time 16
  0   0.259053 -10.621418 -33.781910 1.694637 1.578665 0.121292
  1   -1.093036 0.000002 -0.326057 -1.570808 -1.570425 0.000022
  2   2.262337 0.113614 0.064702 -0.069051 -0.008916 -0.128225
  3   2.380047 0.353302 0.047440 0.000000 -0.000040 -0.044566
  4   2.033756 0.190472 -0.000128 -0.078354 -0.000288 -0.005426
  5   2.451511 0.204909 -0.003447 0.000000 -0.000005 0.054447
  6   7.247600 -0.397300 -0.109469 0.000001 0.000009 0.257210
  7   -2.022252 -0.104661 3.136172 -3.440048 -1.779626 0.034171
  8   1.168026 -0.537438 -0.063437 1.602116 0.972843 0.011450
  9   6.790376 -0.619176 0.015206 -0.000269 -0.000285 -0.302550
 10   8.637599 0.544015 -0.090417 -1.570112 0.000292 -0.069354
 11   6.790465 -0.619039 0.017802 -0.002415 -0.010969 -0.226864
 12   -2.022474 -0.104699 -2.873818 -0.274915 1.797507 -3.667625
 13   1.167898 -0.537463 0.063297 1.574286 -0.063004 -0.655259
 14   7.002743 -0.617765 -0.183752 0.000229 0.000250 -1.289478
 15   8.209042 0.615527 -0.255885 1.570090 -0.000063 -0.069646
 16   7.002735 -0.617911 -0.183641 0.013967 0.007086 -0.921323
 17   1.574674 0.609930 -0.000899 0.162445 -0.021316 -0.056300
 18   -0.602177 0.511412 -0.000006 0.000000 0.000000 0.000000
 19   3.665960 0.309837 1.146658 -0.000002 -0.000014 -0.174510
 20   3.665954 0.309810 -1.090221 0.000007 -0.000003 -0.174546
 21   2.887637 1.322821 1.549531 0.000002 -0.000011 -0.000026
 22   -0.226528 -0.758005 0.473551 0.000194 -0.057471 0.890061
 23   2.903280 1.315034 -1.584207 0.000019 0.000002 -0.000024
 24   -0.074270 -0.562670 -0.551668 0.000187 -0.057496 0.890104
 25   3.953053 2.094997 1.523858 0.102271 -0.029428 -0.168407
 26   3.902288 2.141901 -1.516125 -0.141155 -0.028485 -0.183628
 27   3.293379 1.455197 1.514501 -0.000019 -0.000022 -0.000050
 28   3.295809 1.454803 -1.501142 -0.000002 -0.000009 -0.000024
 29   8.824059 0.150544 0.091743 -0.005252 -0.018937 -0.698461
 30   2.111085 -0.561179 1.784320 -0.000008 -0.000682 0.000024
 31   2.121290 -0.561289 -1.853599 0.000000 0.000000 -0.000002
 32   -0.814395 -0.093824 3.127092 -0.032738 -3.145622 -0.154999
 33   14.298673 -0.408176 0.471578 -0.000088 -0.000041 -0.486581
 34   15.835795 0.581398 0.242756 0.040939 -0.118528 -0.833941
 35   -0.815868 -0.091229 -3.114430 0.551776 2.962305 -0.100687
 36   14.294526 -0.410349 -0.467541 0.000093 0.000048 -1.062427
 37   15.834409 0.579420 -0.284600 -0.043172 0.012941 0.137593
 38   1.170936 -3.410779 -2.823813 0.018123 -0.007520 -0.217923
 39   -4.469461 -1.043135 -0.746180 0.004123 0.002049 0.273707
 40   1.086850 -3.492739 3.237290 0.018123 -0.007519 -0.217924
 41   -4.422121 -1.070849 0.959566 0.004122 0.002049 0.273707
 42   -0.442618 1.455107 -2.567516 -0.028583 -0.025235 -0.108069
 43   -0.566409 1.616544 2.986568 -0.028586 -0.025230 -0.108069
time 17
  0   0.259053 -10.621418 -33.621750 2.129318 1.580533 0.556197
  1   -1.093036 0.000002 -0.326057 -1.570808 -1.570425 0.000071
  2   2.262337 0.113614 0.064702 -0.068771 -0.011241 -0.161729
  3   2.380047 0.353302 0.047440 0.000000 -0.000040 -0.050647
  4   2.033756 0.190472 -0.000128 -0.078354 0.000971 0.011755
  5   2.451511 0.204909 -0.003447 0.000000 -0.000005 0.112497
  6   7.247600 -0.397300 -0.109469 0.000001 0.000009 0.248974
  7   -2.022252 -0.104661 3.136172 -3.440048 -1.779626 0.042248
  8   1.168026 -0.537438 -0.063437 1.499285 0.956491 -0.090399
  9   6.790376 -0.619176 0.015206 -0.000269 -0.000285 -0.328360
 10   8.637599 0.544015 -0.090417 -1.570024 0.000292 -0.069354
 11   6.790465 -0.619039 0.017802 -0.002298 -0.010997 -0.244916
 12   -2.022474 -0.104699 -2.873818 -0.274915 1.797507 -3.659392
 13   1.167898 -0.537463 0.063297 1.597062 -0.038696 -0.667184
 14   7.002743 -0.617765 -0.183752 0.000229 0.000250 -1.289478
 15   8.209042 0.615527 -0.255885 1.570090 -0.000063 -0.069646
 16   7.002735 -0.617911 -0.183641 0.013967 0.007086 -0.921323
 17   1.574674 0.609930 -0.000899 0.157245 -0.044746 0.042756
 18   -0.602177 0.511412 -0.000006 0.000000 0.000000 0.000000
 19   3.665960 0.309837 1.146658 -0.000002 -0.000014 -0.174510
 20   3.665954 0.309810 -1.090221 0.000007 -0.000003 -0.174546
 21   2.887637 1.322821 1.549531 0.000002 -0.000011 -0.000026
 22   -0.226528 -0.758005 0.473551 0.000194 -0.057471 0.890061
 23   2.903280 1.315034 -1.584207 0.000019 0.000002 -0.000024
 24   -0.074270 -0.562670 -0.551668 0.000187 -0.057496 0.890104
 25   3.953053 2.094997 1.523858 0.102271 -0.029428 -0.168407
 26   3.902288 2.141901 -1.516125 -0.141155 -0.028485 -0.183628
 27   3.293379 1.455197 1.514501 -0.000019 -0.000022 -0.000050
 28   3.295809 1.454803 -1.501142 -0.000002 -0.000009 -0.000024
 29   8.824059 0.150544 0.091743 -0.008461 -0.019625 -0.514663
 30   2.111085 -0.561179 1.784320 -0.000008 -0.000682 0.000024
 31   2.121290 -0.561289 -1.853599 0.000000 0.000000 -0.000002
 32   -0.814395 -0.093824 3.127092 -0.032738 -3.145241 -0.171677
 33   14.298673 -0.408176 0.471578 -0.000088 -0.000041 -0.258550
 34   15.835795 0.581398 0.242756 0.025136 -0.122872 -0.947682
 35   -0.815868 -0.091229 -3.114430 0.491838 2.929045 -0.120243
 36   14.294526 -0.410349 -0.467541 0.000093 0.000048 -0.869703
 37   15.834409 0.579420 -0.284600 -0.012830 0.100375 -0.094672
 38   1.186561 -3.410779 -2.823813 0.019323 -0.009255 -0.416847
 39   -4.469461 -1.043135 -0.746180 0.004123 0.002049 0.273707
 40   1.071225 -3.492739 3.237290 0.019323 -0.009254 -0.416848
 41   -4.422121 -1.070849 0.959566 0.004122 0.002049 0.273707
 42   -0.442618 1.431669 -2.559704 -0.028667 -0.025312 -0.101210
 43   -0.570315 1.600919 2.994381 -0.028674 -0.025308 -0.101210
time 18
  0   0.259053 -10.621418 -33.461586 -0.786554 1.558929 -2.360700
  1   -1.093036 0.000002 -0.326057 -1.570808 -1.570425 0.000022
  2   2.262337 0.113614 0.064702 -0.068236 -0.013674 -0.198720
  3   2.380047 0.353302 0.047440 0.000000 -0.000040 -0.048239
  4   2.033756 0.190472 -0.000128 -0.078354 0.002685 0.034265
  5   2.451511 0.204909 -0.003447 0.000000 -0.000005 0.182410
  6   7.247600 -0.397300 -0.109469 0.000001 0.000009 0.207701
  7   -2.022252 -0.104661 3.136172 -3.440432 -1.779626 0.083665
  8   1.168026 -0.537438 -0.063437 1.353867 0.912265 -0.231280
  9   6.790376 -0.619176 0.015206 -0.000269 -0.000285 -0.386168
 10   8.637599 0.544015 -0.090417 -1.570024 0.000292 -0.069354
 11   6.790465 -0.619039 0.017802 -0.002064 -0.011054 -0.285404
 12   -2.022474 -0.104699 -2.873818 2.865640 1.344066 -0.477245
 13   1.167898 -0.537463 0.063297 1.639099 -0.001470 -0.667366
 14   7.002743 -0.617765 -0.183752 0.000229 0.000250 -1.289478
 15   8.209042 0.615527 -0.255885 1.570090 -0.000063 -0.069646
 16   7.002735 -0.617911 -0.183641 0.013967 0.007086 -0.921323
 17   1.574674 0.609930 -0.000899 0.149527 -0.064958 0.141627
 18   -0.602177 0.511412 -0.000006 0.000000 0.000000 0.000000
 19   3.665960 0.309837 1.146658 -0.000002 -0.000014 -0.174510
 20   3.665954 0.309810 -1.090221 0.000007 -0.000003 -0.174546
 21   2.887637 1.322821 1.549531 0.000002 -0.000011 -0.000026
 22   -0.226528 -0.758005 0.473551 0.000194 -0.057471 0.890061
 23   2.903280 1.315034 -1.584207 0.000019 0.000002 -0.000024
 24   -0.074270 -0.562670 -0.551668 0.000187 -0.057496 0.890104
 25   3.953053 2.094997 1.523858 0.102271 -0.029428 -0.168407
 26   3.902288 2.141901 -1.516125 -0.141155 -0.028485 -0.183628
 27   3.293379 1.455197 1.514501 -0.000019 -0.000022 -0.000050
 28   3.295809 1.454803 -1.501142 -0.000002 -0.000009 -0.000024
 29   8.824059 0.150544 0.091743 -0.011224 -0.019886 -0.360693
 30   2.111085 -0.561179 1.784320 -0.000008 -0.000682 0.000024
 31   2.121290 -0.561289 -1.853599 0.000000 0.000000 -0.000002
 32   -0.814395 -0.093824 3.127092 -0.032738 -3.145241 -0.171677
 33   14.298673 -0.408176 0.471578 -0.000088 -0.000041 -0.232507
 34   15.835795 0.581398 0.242756 0.023227 -0.123238 -0.957958
 35   -0.815868 -0.091229 -3.114430 0.420898 2.893724 -0.158588
 36   14.294526 -0.410349 -0.467541 0.000093 0.000048 -0.641292
 37   15.834409 0.579420 -0.284600 0.013670 0.190240 -0.379820
 38   1.190468 -3.418591 -2.823813 0.020039 -0.009894 -0.490160
 39   -4.469461 -1.043135 -0.746180 0.004123 0.002049 0.273707
 40   1.067318 -3.484926 3.237290 0.020039 -0.009893 -0.490161
 41   -4.422121 -1.070849 0.959566 0.004122 0.002049 0.273707
 42   -0.442618 1.419950 -2.555797 -0.028703 -0.025327 -0.096819
 43   -0.574221 1.593106 2.998287 -0.028699 -0.025340 -0.096819
time 19
  0   0.259053 -10.621418 -33.313145 -0.718359 1.557951 -2.292966
  1   -1.093036 0.000002 -0.326057 -1.570808 -1.570425 -0.000026
  2   2.262337 0.113614 0.064702 -0.067803 -0.016071 -0.233976
  3   2.380047 0.353302 0.047440 0.000000 -0.000040 -0.050075
  4   2.033756 0.190472 -0.000128 -0.078280 0.004231 0.054092
  5   2.451511 0.204909 -0.003447 0.000000 -0.000005 0.246280
  6   7.247600 -0.397300 -0.109469 0.000001 0.000009 0.182867
  7   -2.022252 -0.104661 3.136172 -0.299166 -1.361862 -3.032011
  8   1.168026 -0.537438 -0.063437 1.247429 0.869850 -0.333509
  9   6.790376 -0.619176 0.015206 -0.000269 -0.000285 -0.428355
 10   8.637599 0.544015 -0.090417 -1.570112 0.000292 -0.069354
 11   6.790465 -0.619039 0.017802 -0.001918 -0.011140 -0.315049
 12   -2.022474 -0.104699 -2.873818 2.865640 1.344066 -0.452448
 13   1.167898 -0.537463 0.063297 1.674598 0.031026 -0.670877
 14   7.002743 -0.617765 -0.183752 0.000229 0.000250 -1.289478
 15   8.209042 0.615527 -0.255885 1.570090 -0.000063 -0.069646
 16   7.002735 -0.617911 -0.183641 0.013967 0.007086 -0.921323
 17   1.574674 0.609930 -0.000899 0.138600 -0.084980 0.240645
 18   -0.602177 0.511412 -0.000006 0.000000 0.000000 0.000000
 19   3.665960 0.309837 1.146658 -0.000002 -0.000014 -0.174510
 20   3.665954 0.309810 -1.090221 0.000007 -0.000003 -0.174546
 21   2.887637 1.322821 1.549531 0.000002 -0.000011 -0.000026
 22   -0.226528 -0.758005 0.473551 0.000194 -0.057471 0.890061
 23   2.903280 1.315034 -1.584207 0.000019 0.000002 -0.000024
 24   -0.074270 -0.562670 -0.551668 0.000187 -0.057496 0.890104
 25   3.953053 2.094997 1.523858 0.102271 -0.029428 -0.168407
 26   3.902288 2.141901 -1.516125 -0.141155 -0.028485 -0.183628
 27   3.293379 1.455197 1.514501 -0.000019 -0.000022 -0.000050
 28   3.295809 1.454803 -1.501142 -0.000002 -0.000009 -0.000024
 29   8.824059 0.150544 0.091743 -0.012293 -0.019934 -0.296101
 30   2.111085 -0.561179 1.784320 -0.000008 -0.000682 0.000024
 31   2.121290 -0.561289 -1.853599 0.000000 0.000000 -0.000002
 32   -0.814395 -0.093824 3.127092 -0.032738 -3.145241 -0.171677
 33   14.298673 -0.408176 0.471578 -0.000088 -0.000041 -0.258550
 34   15.835795 0.581398 0.242756 0.025136 -0.122872 -0.947682
 35   -0.815868 -0.091229 -3.114430 0.353039 2.862338 -0.191235
 36   14.294526 -0.410349 -0.467541 0.000093 0.000048 -0.430493
 37   15.834409 0.579420 -0.284600 0.037234 0.280438 -0.636169
 38   1.190468 -3.422498 -2.823813 0.020270 -0.009990 -0.500607
 39   -4.469461 -1.043135 -0.746180 0.004123 0.002049 0.273707
 40   1.067318 -3.481020 3.237290 0.020270 -0.009989 -0.500608
 41   -4.422121 -1.070849 0.959566 0.004122 0.002049 0.273707
 42   -0.442618 1.412137 -2.555797 -0.028703 -0.025342 -0.095313
 43   -0.574221 1.589200 2.998287 -0.028699 -0.025340 -0.095313
end
