version 1
nodes
  0 "Bip01" -1
  1 "Bip01 Pelvis" 0
  2 "Bip01 Spine" 1
  3 "Bip01 Spine1" 2
  4 "Bip01 Spine2" 3
  5 "Bip01 Spine3" 4
  6 "Bip01 Neck" 5
  7 "Bip01 L Arm" 6
  8 "Bip01 L Arm1" 7
  9 "Bip01 L Arm2" 8
 10 "Bip01 L Hand" 9
 11 "Bip06 L elbow2-smooth" 8
 12 "Bip01 R Arm" 6
 13 "Bip01 R Arm1" 12
 14 "Bip01 R Arm2" 13
 15 "Bip01 R Hand" 14
 16 "Bip06 R elbow2-smooth" 13
 17 "Bip01 Head" 6
 18 "Bip06 Head_helper" 17
 19 "Bip06 Head_eyes_l" 18
 20 "Bip06 Head_eyes_r" 18
 21 "Bip06 Head_blink_l" 18
 22 "Bip06 Head_blink_smooth_l1" 21
 23 "Bip06 Head_blink_r" 18
 24 "Bip06 Head_blink_smooth_r1" 23
 25 "Bip06 Head_L_eyebrow" 18
 26 "Bip06 Head_R_eyebrow" 18
 27 "Bip06 Head_blink_l_lid" 18
 28 "Bip06 Head_blink_r_lid" 18
 29 "Bip06 bunny" 18
 30 "Bip06 bunnyL" 29
 31 "Bip06 bunnyR" 29
 32 "Bip01 L Leg" 1
 33 "Bip01 L Leg1" 32
 34 "Bip01 L Foot" 33
 35 "Bip01 R Leg" 1
 36 "Bip01 R Leg1" 35
 37 "Bip01 R Foot" 36
 38 "Bip03 HairR1" 17
 39 "Bip03 HairR2" 38
 40 "Bip03 HairL1" 17
 41 "Bip03 HairL2" 40
 42 "Bip03 swingR" 17
 43 "Bip03 swingL" 17
end
skeleton
time 0
  0   0.243428 0.429701 1.851990 0.000000 0.000000 -1.571354
  1   -1.093036 0.000002 -0.326057 -1.570704 -1.570425 -0.000026
  2   2.262337 0.113614 0.064702 -0.069357 -0.007178 -0.103522
  3   2.380047 0.353302 0.047440 0.000000 -0.000040 -0.008632
  4   2.033756 0.190472 -0.000128 -0.078243 0.004794 0.060544
  5   2.451511 0.204909 -0.003447 0.000000 -0.000005 -0.017472
  6   7.247600 -0.397300 -0.109469 0.000001 0.000009 0.052298
  7   -2.022252 -0.104661 3.136172 -0.299166 -1.361862 -2.901749
  8   1.168026 -0.537438 -0.063437 0.555710 1.136113 0.768931
  9   6.790376 -0.619176 0.015206 -0.000269 -0.000285 -0.286702
 10   8.637599 0.544015 -0.090417 -1.570112 0.000292 -0.069354
 11   6.790465 -0.619039 0.017802 -0.002473 -0.010969 -0.215790
 12   -2.022474 -0.104699 -2.873818 0.298777 1.361771 -2.901984
 13   1.167898 -0.537463 0.063297 -0.658605 -1.227116 0.844551
 14   7.002743 -0.617765 -0.183752 0.000229 0.000250 -1.289478
 15   8.209042 0.615527 -0.255885 1.570090 -0.000063 -0.069646
 16   7.002735 -0.617911 -0.183641 0.013967 0.007086 -0.921323
 17   1.574674 0.609930 -0.000899 0.156961 -0.049006 0.292465
 18   -0.602177 0.511412 -0.000006 0.000000 0.000000 0.000000
 19   3.673773 0.177020 1.119313 -0.000002 -0.000014 -0.174510
 20   3.673767 0.176993 -1.117566 0.000007 -0.000003 -0.174546
 21   3.942357 1.334540 1.627658 0.000002 -0.000011 -0.000026
 22   -0.246060 -0.011889 0.516521 -0.000011 0.000031 0.000025
 23   3.938468 1.334565 -1.631083 0.000019 0.000002 -0.000024
 24   -0.246150 -0.011872 -0.516511 -0.000005 -0.000006 0.000048
 25   4.941364 1.997338 1.629330 0.000018 -0.000001 -0.000024
 26   4.941382 1.997366 -1.629410 -0.000001 0.000005 -0.000024
 27   2.914462 1.619264 1.514501 -0.000019 -0.000022 -0.000050
 28   2.916892 1.618870 -1.501142 -0.000002 -0.000009 -0.000024
 29   8.824059 0.150544 0.091743 0.000006 -0.000231 -0.174534
 30   2.111085 -0.561179 1.784320 -0.000008 -0.000682 0.000024
 31   2.121290 -0.561289 -1.853599 0.000000 0.000000 -0.000002
 32   -0.814395 -0.093824 3.127092 -0.055388 -3.106560 -0.210100
 33   14.298673 -0.408176 0.471578 -0.000088 -0.000041 -0.234095
 34   15.835795 0.581398 0.242756 -0.095467 -0.022475 0.023458
 35   -0.815868 -0.091229 -3.114430 0.257719 3.091220 0.081065
 36   14.294526 -0.410349 -0.467541 0.000093 0.000048 -0.126924
 37   15.834409 0.579420 -0.284600 -0.017657 0.068918 0.192859
 38   1.139685 -3.453749 -2.823813 0.000000 0.000000 0.000001
 39   -4.457742 -1.054854 -0.746180 0.000000 0.000000 0.000000
 40   1.118101 -3.449769 3.237290 0.000000 0.000001 0.000000
 41   -4.433840 -1.059130 0.959566 -0.000001 0.000000 0.000000
 42   -0.657468 1.697302 -2.688614 0.000000 0.000002 0.000000
 43   -0.664068 1.698578 2.869377 0.000000 0.000002 0.000000
time 1
  0   0.243428 1.523484 -1.581708 0.000000 -0.235151 -1.571354
  1   -1.093036 0.000002 -0.326057 -1.570704 -1.570425 -0.000123
  2   2.262337 0.113614 0.064702 -0.069357 -0.007178 -0.103522
  3   2.380047 0.353302 0.047440 0.000000 -0.000040 -0.217870
  4   2.033756 0.190472 -0.000128 -0.074370 -0.024652 -0.321608
  5   2.451511 0.204909 -0.003447 0.000000 -0.000005 0.139516
  6   7.247600 -0.397300 -0.109469 0.000001 0.000009 -0.881035
  7   -2.022252 -0.104661 3.136172 -0.299358 -1.361862 -1.969065
  8   1.168026 -0.537438 -0.063437 0.795733 0.612442 0.944858
  9   6.790376 -0.619176 0.015206 -0.000269 -0.000285 -0.539292
 10   8.637599 0.544015 -0.090417 -1.570112 0.000292 -0.069354
 11   6.790465 -0.619039 0.017802 -0.001539 -0.011196 -0.392679
 12   -2.022474 -0.104699 -2.873818 0.298394 1.361858 -1.969561
 13   1.167898 -0.537463 0.063297 -0.790341 -0.646764 0.919614
 14   7.002743 -0.617765 -0.183752 0.000229 0.000250 -1.289478
 15   8.209042 0.615527 -0.255885 1.570090 -0.000063 -0.069646
 16   7.002735 -0.617911 -0.183641 0.013967 0.007086 -0.921323
 17   1.574674 0.609930 -0.000899 0.140103 0.081493 0.738843
 18   -0.602177 0.511412 -0.000006 0.000000 0.000000 0.000000
 19   3.673773 0.177020 1.119313 -0.000002 -0.000014 -0.174510
 20   3.673767 0.176993 -1.117566 0.000007 -0.000003 -0.174546
 21   3.942357 1.334540 1.627658 0.000002 -0.000011 -0.000026
 22   -0.246060 -0.011889 0.516521 -0.000011 0.000031 0.000025
 23   3.938468 1.334565 -1.631083 0.000019 0.000002 -0.000024
 24   -0.246150 -0.011872 -0.516511 -0.000005 -0.000006 0.000048
 25   4.941364 1.997338 1.629330 0.000018 -0.000001 -0.000024
 26   4.941382 1.997366 -1.629410 -0.000001 0.000005 -0.000024
 27   2.914462 1.619264 1.514501 -0.000019 -0.000022 -0.000050
 28   2.916892 1.618870 -1.501142 -0.000002 -0.000009 -0.000024
 29   8.824059 0.150544 0.091743 0.011503 0.000006 -0.814824
 30   2.111085 -0.561179 1.784320 -0.000008 0.000015 0.000067
 31   2.121290 -0.561289 -1.853599 0.000000 -0.000932 0.000034
 32   -0.814395 -0.093824 3.127092 -0.042898 -3.081728 -0.292238
 33   14.298673 -0.408176 0.471578 -0.000088 -0.000041 -0.874997
 34   15.835795 0.581398 0.242756 -0.089900 -0.029918 0.345627
 35   -0.815868 -0.091229 -3.114430 0.227354 3.008493 0.006403
 36   14.294526 -0.410349 -0.467541 0.000093 0.000048 -0.832085
 37   15.834409 0.579420 -0.284600 -0.016396 0.074805 0.578751
 38   1.139685 -3.504532 -2.823813 -0.004694 0.020872 1.408534
 39   -4.469461 -1.078292 -0.746180 -0.004782 0.006184 0.465321
 40   1.118101 -3.398986 3.237290 -0.004757 0.020861 1.408595
 41   -4.422121 -1.031785 0.959566 -0.004819 0.006064 0.465714
 42   -0.157453 2.525452 -2.688614 0.008593 -0.002804 -0.489949
 43   -0.199210 2.495477 2.869377 0.007896 -0.003874 -0.489949
time 2
  0   0.243428 2.527421 -3.659897 0.000000 -0.319965 -1.571354
  1   -1.093036 0.000002 -0.326057 -1.570704 -1.570425 -0.000123
  2   2.262337 0.113614 0.064702 -0.069344 -0.007214 -0.104028
  3   2.380047 0.353302 0.047440 0.000000 -0.000040 -0.220543
  4   2.033756 0.190472 -0.000128 -0.077856 -0.009108 -0.119314
  5   2.451511 0.204909 -0.003447 0.000000 -0.000005 -0.019453
  6   7.247600 -0.397300 -0.109469 0.000001 0.000009 -0.881035
  7   -2.022252 -0.104661 3.136172 -0.299358 -1.361862 -1.969065
  8   1.168026 -0.537438 -0.063437 0.768902 0.646052 0.920756
  9   6.790376 -0.619176 0.015206 -0.000269 -0.000285 -0.539292
 10   8.637599 0.544015 -0.090417 -1.570112 0.000292 -0.069354
 11   6.790465 -0.619039 0.017802 -0.001539 -0.011196 -0.392679
 12   -2.022474 -0.104699 -2.873818 0.298394 1.361858 -1.969561
 13   1.167898 -0.537463 0.063297 -0.761378 -0.679616 0.893463
 14   7.002743 -0.617765 -0.183752 0.000229 0.000250 -1.289478
 15   8.209042 0.615527 -0.255885 1.570090 -0.000063 -0.069646
 16   7.002735 -0.617911 -0.183641 0.013967 0.007086 -0.921323
 17   1.574674 0.609930 -0.000899 0.149202 0.062962 0.823853
 18   -0.602177 0.511412 -0.000006 0.000000 0.000000 0.000000
 19   3.673773 0.177020 1.119313 -0.000002 -0.000014 -0.174510
 20   3.673767 0.176993 -1.117566 0.000007 -0.000003 -0.174546
 21   3.942357 1.334540 1.627658 0.000002 -0.000011 -0.000026
 22   -0.246060 -0.011889 0.516521 -0.000011 0.000031 0.000025
 23   3.938468 1.334565 -1.631083 0.000019 0.000002 -0.000024
 24   -0.246150 -0.011872 -0.516511 -0.000005 -0.000006 0.000048
 25   4.941364 1.997338 1.629330 0.000018 -0.000001 -0.000024
 26   4.941382 1.997366 -1.629410 -0.000001 0.000005 -0.000024
 27   2.914462 1.623171 1.514501 -0.000019 -0.000022 -0.000050
 28   2.916892 1.622777 -1.501142 -0.000002 -0.000009 -0.000024
 29   8.824059 0.150544 0.091743 0.029862 0.002784 -0.776627
 30   2.111085 -0.561179 1.784320 -0.000035 0.002079 0.000196
 31   2.121290 -0.561289 -1.853599 0.000000 -0.003652 0.000198
 32   -0.814395 -0.093824 3.127092 -0.033670 -3.073896 -0.409726
 33   14.298673 -0.408176 0.471578 -0.000088 -0.000041 -1.169484
 34   15.835795 0.581398 0.242756 -0.086749 -0.027673 0.437802
 35   -0.815868 -0.091229 -3.114430 0.199806 2.968113 -0.109233
 36   14.294526 -0.410349 -0.467541 0.000093 0.000048 -1.176671
 37   15.834409 0.579420 -0.284600 -0.018524 0.071196 0.721376
 38   1.139685 -3.504532 -2.823813 -0.004694 0.019703 1.263191
 39   -4.465555 -1.078292 -0.746180 -0.004578 0.005729 0.433012
 40   1.118101 -3.398986 3.237290 -0.004757 0.019704 1.263251
 41   -4.422121 -1.035692 0.959566 -0.004495 0.005609 0.431441
 42   -0.176985 2.427793 -2.688614 0.009600 -0.002727 -0.441059
 43   -0.214836 2.401724 2.869377 0.009096 -0.003450 -0.441059
time 3
  0   0.243428 3.586047 -5.269321 0.000000 -0.379086 -1.571354
  1   -1.093036 0.000002 -0.326057 -1.570704 -1.570425 -0.000123
  2   2.262337 0.113614 0.064702 -0.069344 -0.007298 -0.104842
  3   2.380047 0.353302 0.047440 0.000000 -0.000040 -0.196893
  4   2.033756 0.190472 -0.000128 -0.077063 0.014346 0.183965
  5   2.451511 0.204909 -0.003447 0.000000 -0.000005 -0.241500
  6   7.247600 -0.397300 -0.109469 0.000001 0.000009 -0.881130
  7   -2.022252 -0.104661 3.136172 -0.299358 -1.361862 -1.969065
  8   1.168026 -0.537438 -0.063437 0.689485 0.728819 0.849082
  9   6.790376 -0.619176 0.015206 -0.000269 -0.000285 -0.539292
 10   8.637599 0.544015 -0.090417 -1.570112 0.000292 -0.069354
 11   6.790465 -0.619039 0.017802 -0.001539 -0.011196 -0.392679
 12   -2.022474 -0.104699 -2.873818 0.009057 1.370420 -2.253529
 13   1.167898 -0.537463 0.063297 -0.596885 -0.823382 0.769064
 14   7.002743 -0.617765 -0.183752 0.000229 0.000250 -1.293521
 15   8.209042 0.615527 -0.255885 1.570090 -0.000063 -0.069646
 16   7.002735 -0.617911 -0.183641 0.013967 0.007142 -0.924138
 17   1.574674 0.609930 -0.000899 0.160617 0.023344 0.981492
 18   -0.602177 0.511412 -0.000006 0.000000 0.000000 0.000000
 19   3.673773 0.177020 1.119313 -0.000002 -0.000014 -0.174510
 20   3.673767 0.176993 -1.117566 0.000007 -0.000003 -0.174546
 21   3.942357 1.334540 1.627658 0.000002 -0.000011 -0.000026
 22   -0.246060 -0.011889 0.516521 -0.000011 0.000031 0.000025
 23   3.938468 1.334565 -1.631083 0.000019 0.000002 -0.000024
 24   -0.246150 -0.011872 -0.516511 -0.000005 -0.000006 0.000048
 25   4.941364 1.997338 1.629330 0.000018 -0.000001 -0.000024
 26   4.941382 1.997366 -1.629410 -0.000001 0.000005 -0.000024
 27   2.914462 1.619264 1.514501 -0.000019 -0.000022 -0.000050
 28   2.916892 1.618870 -1.501142 -0.000002 -0.000009 -0.000024
 29   8.824059 0.150544 0.091743 0.049469 0.009620 -0.674159
 30   2.111085 -0.561179 1.780414 -0.000089 0.005363 0.000410
 31   2.125196 -0.561289 -1.849693 0.000015 -0.008004 0.000435
 32   -0.814395 -0.093824 3.127092 -0.025095 -3.070458 -0.542354
 33   14.298673 -0.408176 0.471578 -0.000088 -0.000041 -1.393704
 34   15.835795 0.581398 0.242756 -0.085162 -0.022915 0.470658
 35   -0.815868 -0.091229 -3.114430 0.170145 2.938508 -0.237741
 36   14.294526 -0.410349 -0.467541 0.000093 0.000048 -1.449729
 37   15.834409 0.579420 -0.284600 -0.020770 0.064004 0.807315
 38   1.139685 -3.500625 -2.823813 -0.004589 0.016473 0.899801
 39   -4.465555 -1.078292 -0.746180 -0.004039 0.004578 0.351564
 40   1.118101 -3.402893 3.237290 -0.004652 0.016486 0.899800
 41   -4.426027 -1.039598 0.959566 -0.003656 0.004482 0.345646
 42   -0.235580 2.173879 -2.688614 0.010175 -0.002436 -0.310029
 43   -0.257806 2.151717 2.869377 0.009770 -0.002289 -0.310029
time 4
  0   0.243428 4.621235 -6.726397 0.000000 -0.440341 -1.571354
  1   -1.093036 0.000002 -0.326057 -1.570704 -1.570425 -0.000171
  2   2.262337 0.113614 0.064702 -0.069344 -0.007310 -0.105040
  3   2.380047 0.353302 0.047440 0.000000 -0.000040 -0.154327
  4   2.033756 0.190472 -0.000128 -0.069741 0.035774 0.472201
  5   2.451511 0.204909 -0.003447 0.000000 -0.000005 -0.433209
  6   7.247600 -0.397300 -0.109469 0.000001 0.000009 -0.881067
  7   -2.022252 -0.104661 3.136172 -0.295236 -1.362035 -1.973479
  8   1.168026 -0.537438 -0.063437 0.387258 0.904617 0.505957
  9   6.790376 -0.619176 0.015206 -0.000269 -0.000285 -0.538311
 10   8.637599 0.544015 -0.090417 -1.570112 0.000292 -0.069354
 11   6.790465 -0.619039 0.017802 -0.001539 -0.011196 -0.392045
 12   -2.022474 -0.104699 -2.873818 -0.307681 1.361335 -2.564114
 13   1.167898 -0.537463 0.063297 -0.288636 -0.957383 0.506101
 14   7.002743 -0.617765 -0.183752 0.000229 0.000250 -1.303009
 15   8.209042 0.615527 -0.255885 1.570090 -0.000063 -0.069646
 16   7.002735 -0.617911 -0.183641 0.013967 0.007199 -0.930761
 17   1.574674 0.609930 -0.000899 0.162079 -0.016772 1.109747
 18   -0.602177 0.511412 -0.000006 0.000000 0.000000 0.000000
 19   3.673773 0.177020 1.119313 -0.000002 -0.000014 -0.174510
 20   3.673767 0.176993 -1.117566 0.000007 -0.000003 -0.174546
 21   3.942357 1.334540 1.627658 0.000002 -0.000011 -0.000026
 22   -0.246060 -0.011889 0.516521 -0.000011 0.000031 0.000025
 23   3.938468 1.334565 -1.631083 0.000019 0.000002 -0.000024
 24   -0.246150 -0.011872 -0.516511 -0.000005 -0.000006 0.000048
 25   4.941364 1.997338 1.629330 0.000018 -0.000001 -0.000024
 26   4.941382 1.997366 -1.629410 -0.000001 0.000005 -0.000024
 27   2.914462 1.623171 1.514501 -0.000019 -0.000022 -0.000050
 28   2.916892 1.618870 -1.501142 -0.000002 -0.000009 -0.000024
 29   8.824059 0.150544 0.091743 0.069255 0.019994 -0.525822
 30   2.114991 -0.561179 1.776507 -0.000144 0.009780 0.000710
 31   2.125196 -0.561289 -1.849693 0.000015 -0.013805 0.000762
 32   -0.814395 -0.093824 3.127092 -0.019130 -3.069790 -0.641456
 33   14.298673 -0.408176 0.471578 -0.000088 -0.000041 -1.536621
 34   15.835795 0.581398 0.242756 -0.084402 -0.016667 0.453634
 35   -0.815868 -0.091229 -3.114430 0.145061 2.919020 -0.338751
 36   14.294526 -0.410349 -0.467541 0.000093 0.000048 -1.641062
 37   15.834409 0.579420 -0.284600 -0.023942 0.053817 0.839207
 38   1.139685 -3.496719 -2.823813 -0.004357 0.011593 0.427357
 39   -4.461648 -1.074386 -0.746180 -0.003224 0.003092 0.244258
 40   1.118101 -3.406799 3.237290 -0.004399 0.011618 0.427356
 41   -4.429934 -1.047411 0.959566 -0.002554 0.003032 0.234021
 42   -0.317614 1.806680 -2.688614 0.010427 -0.001899 -0.120323
 43   -0.320307 1.784518 2.873283 0.010070 -0.000594 -0.120365
time 5
  0   0.243428 5.625172 -8.386603 0.000000 -0.502485 -1.571354
  1   -1.093036 0.000002 -0.326057 -1.570704 -1.570425 -0.000123
  2   2.262337 0.113614 0.064702 -0.069357 -0.007178 -0.103522
  3   2.380047 0.353302 0.047440 0.000000 -0.000040 -0.100701
  4   2.033756 0.190472 -0.000128 -0.063231 0.046237 0.629295
  5   2.451511 0.204909 -0.003447 0.000000 -0.000005 -0.501909
  6   7.247600 -0.397300 -0.109469 0.000001 0.000009 -0.881067
  7   -2.022252 -0.104661 3.136172 -0.289964 -1.362237 -1.978551
  8   1.168026 -0.537438 -0.063437 -0.114240 0.970378 -0.041499
  9   6.790376 -0.619176 0.015206 -0.000269 -0.000285 -0.536575
 10   8.637599 0.544015 -0.090417 -1.570112 0.000292 -0.069354
 11   6.790465 -0.619039 0.017802 -0.001539 -0.011196 -0.390776
 12   -2.022474 -0.104699 -2.873818 2.553405 1.809581 -5.977092
 13   1.167898 -0.537463 0.063297 0.149872 -1.004068 0.115894
 14   7.002743 -0.617765 -0.183752 0.000229 0.000250 -1.315880
 15   8.209042 0.615527 -0.255885 1.570090 -0.000063 -0.069646
 16   7.002735 -0.617911 -0.183641 0.013920 0.007255 -0.939703
 17   1.574674 0.609930 -0.000899 0.153549 -0.056508 1.238889
 18   -0.602177 0.511412 -0.000006 0.000000 0.000000 0.000000
 19   3.673773 0.177020 1.119313 -0.000002 -0.000014 -0.174510
 20   3.673767 0.176993 -1.117566 0.000007 -0.000003 -0.174546
 21   3.942357 1.334540 1.627658 0.000002 -0.000011 -0.000026
 22   -0.246060 -0.011889 0.516521 -0.000011 0.000031 0.000025
 23   3.938468 1.334565 -1.631083 0.000019 0.000002 -0.000024
 24   -0.246150 -0.011872 -0.516511 -0.000005 -0.000006 0.000048
 25   4.941364 1.997338 1.629330 0.000018 -0.000001 -0.000024
 26   4.941382 1.997366 -1.629410 -0.000001 0.000005 -0.000024
 27   2.914462 1.619264 1.514501 -0.000019 -0.000022 -0.000050
 28   2.916892 1.618870 -1.501142 -0.000002 -0.000009 -0.000024
 29   8.824059 0.150544 0.091743 0.088327 0.033429 -0.350017
 30   2.114991 -0.561179 1.772601 -0.000225 0.015185 0.001075
 31   2.129103 -0.561289 -1.845786 0.000031 -0.020928 0.001163
 32   -0.814395 -0.093824 3.127092 -0.015867 -3.070458 -0.711128
 33   14.298673 -0.408176 0.471578 -0.000088 -0.000041 -1.626897
 34   15.835795 0.581398 0.242756 -0.084655 -0.009834 0.412531
 35   -0.815868 -0.091229 -3.114430 0.124289 2.905061 -0.416755
 36   14.294526 -0.410349 -0.467541 0.000093 0.000048 -1.776857
 37   15.834409 0.579420 -0.284600 -0.027725 0.042171 0.837179
 38   1.139685 -3.488906 -2.823813 -0.003873 0.005447 -0.045026
 39   -4.457742 -1.070480 -0.746180 -0.002229 0.001594 0.134371
 40   1.118101 -3.414612 3.237290 -0.003915 0.005484 -0.044966
 41   -4.433840 -1.055224 0.959566 -0.001415 0.001570 0.122115
 42   -0.411367 1.376980 -2.688614 0.010499 -0.001087 0.104514
 43   -0.394529 1.358724 2.877190 0.010158 0.001383 0.104514
time 6
  0   0.243428 6.566607 -10.542919 0.000000 -0.572719 -1.571354
  1   -1.093036 0.000002 -0.326057 -1.570704 -1.570425 -0.000171
  2   2.262337 0.113614 0.064702 -0.069408 -0.006663 -0.097252
  3   2.380047 0.353302 0.047440 0.000000 -0.000040 -0.019793
  4   2.033756 0.190472 -0.000128 -0.067897 0.039154 0.520808
  5   2.451511 0.204909 -0.003447 0.000000 -0.000005 -0.312651
  6   7.247600 -0.397300 -0.109469 0.000001 0.000009 -0.881035
  7   -2.022252 -0.104661 3.136172 -0.284692 -1.362496 -1.983434
  8   1.168026 -0.537438 -0.063437 -0.628267 0.839409 -0.599392
  9   6.790376 -0.619176 0.015206 -0.000269 -0.000285 -0.534085
 10   8.637599 0.544015 -0.090417 -1.570112 0.000292 -0.069354
 11   6.790465 -0.619039 0.017802 -0.001539 -0.011196 -0.388988
 12   -2.022474 -0.104699 -2.873818 2.342246 1.853494 0.101319
 13   1.167898 -0.537463 0.063297 0.611297 -0.923514 -0.289871
 14   7.002743 -0.617765 -0.183752 0.000229 0.000250 -1.328255
 15   8.209042 0.615527 -0.255885 1.570090 -0.000063 -0.069646
 16   7.002735 -0.617911 -0.183641 0.013920 0.007368 -0.948533
 17   1.574674 0.609930 -0.000899 0.134010 -0.095275 1.376199
 18   -0.602177 0.511412 -0.000006 0.000000 0.000000 0.000000
 19   3.669866 0.243429 1.131032 -0.000002 -0.000014 -0.174510
 20   3.669860 0.243402 -1.105847 0.000007 -0.000003 -0.174546
 21   3.414997 1.330634 1.588594 0.000002 -0.000011 -0.000026
 22   -0.238247 -0.382994 0.496989 0.000099 -0.028720 0.445010
 23   3.422827 1.326753 -1.607645 0.000019 0.000002 -0.000024
 24   -0.160210 -0.285318 -0.532136 0.000091 -0.028745 0.445076
 25   4.449162 2.044214 1.578547 0.051144 -0.014701 -0.084216
 26   4.421835 2.067681 -1.574721 -0.070578 -0.014240 -0.091826
 27   3.101967 1.541137 1.514501 -0.000019 -0.000022 -0.000050
 28   3.104397 1.540743 -1.501142 -0.000002 -0.000009 -0.000024
 29   8.824059 0.150544 0.091743 0.105974 0.049405 -0.165038
 30   2.118898 -0.561179 1.764788 -0.000306 0.021492 0.001482
 31   2.133009 -0.561289 -1.841880 0.000046 -0.029217 0.001636
 32   -0.814395 -0.093824 3.127092 -0.015029 -3.071222 -0.751201
 33   14.298673 -0.408176 0.471578 -0.000088 -0.000041 -1.691050
 34   15.835795 0.581398 0.242756 -0.085116 -0.002635 0.366223
 35   -0.815868 -0.091229 -3.114430 0.106422 2.893912 -0.466821
 36   14.294526 -0.410349 -0.467541 0.000093 0.000048 -1.879901
 37   15.834409 0.579420 -0.284600 -0.031429 0.031677 0.823134
 38   1.147498 -3.485000 -2.823813 -0.003094 -0.001542 -0.408416
 39   -4.457742 -1.062667 -0.746180 -0.001127 0.000455 0.045211
 40   1.110288 -3.418518 3.237290 -0.003115 -0.001517 -0.408417
 41   -4.433840 -1.059130 0.959566 -0.000480 0.000443 0.035563
 42   -0.512932 0.916028 -2.684708 0.010510 0.000048 0.341145
 43   -0.476562 0.901679 2.881096 0.010158 0.003485 0.341145
time 7
  0   0.235615 7.406476 -13.468790 0.000000 -0.610414 -1.571354
  1   -1.093036 0.000002 -0.326057 -1.570704 -1.570425 -0.000123
  2   2.262337 0.113614 0.064702 -0.069459 -0.006040 -0.088740
  3   2.380047 0.353302 0.047440 0.000000 -0.000040 0.085397
  4   2.033756 0.190472 -0.000128 -0.075993 0.019175 0.247506
  5   2.451511 0.204909 -0.003447 0.000000 -0.000005 0.039959
  6   7.247600 -0.397300 -0.109469 0.000001 0.000009 -0.881067
  7   -2.022252 -0.104661 3.136172 -0.279324 -1.362813 -1.989163
  8   1.168026 -0.537438 -0.063437 -0.935367 0.556241 -0.947071
  9   6.790376 -0.619176 0.015206 -0.000269 -0.000285 -0.531670
 10   8.637599 0.544015 -0.090417 -1.570112 0.000292 -0.069354
 11   6.790465 -0.619039 0.017802 -0.001568 -0.011196 -0.387315
 12   -2.022474 -0.104699 -2.873818 2.192212 1.905534 -0.041623
 13   1.167898 -0.537463 0.063297 0.942322 -0.729148 -0.559069
 14   7.002743 -0.617765 -0.183752 0.000229 0.000250 -1.338073
 15   8.209042 0.615527 -0.255885 1.570090 -0.000063 -0.069646
 16   7.002735 -0.617911 -0.183641 0.013873 0.007368 -0.955377
 17   1.574674 0.609930 -0.000899 0.124017 -0.108836 1.339164
 18   -0.602177 0.511412 -0.000006 0.000000 0.000000 0.000000
 19   3.665960 0.309837 1.146658 -0.000002 -0.000014 -0.174510
 20   3.665954 0.309810 -1.090221 0.000007 -0.000003 -0.174546
 21   2.887637 1.322821 1.549531 0.000002 -0.000011 -0.000026
 22   -0.226528 -0.758005 0.473551 0.000194 -0.057471 0.890061
 23   2.903280 1.315034 -1.584207 0.000019 0.000002 -0.000024
 24   -0.074270 -0.562670 -0.551668 0.000187 -0.057496 0.890104
 25   3.953053 2.094997 1.523858 0.102271 -0.029428 -0.168407
 26   3.902288 2.141901 -1.516125 -0.141155 -0.028485 -0.183628
 27   3.293379 1.455197 1.514501 -0.000019 -0.000022 -0.000050
 28   3.295809 1.454803 -1.501142 -0.000002 -0.000009 -0.000024
 29   8.824059 0.150544 0.091743 0.121214 0.067446 0.010820
 30   2.122804 -0.561179 1.760882 -0.000401 0.028524 0.001954
 31   2.136915 -0.561289 -1.837973 0.000077 -0.038515 0.002145
 32   -0.814395 -0.093824 3.127092 0.002961 -3.019171 -0.972685
 33   14.298673 -0.408176 0.471578 -0.000088 -0.000041 -1.624753
 34   15.835795 0.581398 0.242756 -0.034142 0.002587 0.255526
 35   -0.815868 -0.091229 -3.114430 0.020168 2.887166 -0.681276
 36   14.294526 -0.410349 -0.467541 0.000093 0.000048 -1.909099
 37   15.834409 0.579420 -0.284600 -0.013500 0.045601 0.625904
 38   1.155311 -3.477187 -2.823813 -0.001915 -0.009002 -0.553759
 39   -4.457742 -1.054854 -0.746180 0.000000 0.000000 0.000000
 40   1.102476 -3.426331 3.237290 -0.001915 -0.009001 -0.553761
 41   -4.433840 -1.059130 0.959566 -0.000001 0.000000 0.000000
 42   -0.610592 0.482421 -2.680801 0.010570 0.001566 0.566024
 43   -0.550783 0.468072 2.888909 0.010245 0.005478 0.566024
time 8
  0   0.235615 8.121342 -18.078306 0.000000 -0.723411 -1.571354
  1   -1.093036 0.000002 -0.326057 -1.570704 -1.570425 -0.000171
  2   2.262337 0.113614 0.064702 -0.069459 -0.005800 -0.084638
  3   2.380047 0.353302 0.047440 0.000000 -0.000040 0.178773
  4   2.033756 0.190472 -0.000128 -0.078317 0.003464 0.044704
  5   2.451511 0.204909 -0.003447 0.000000 -0.000005 0.307302
  6   7.247600 -0.397300 -0.109469 0.000001 0.000009 -0.625220
  7   -2.022252 -0.104661 3.136172 -0.274052 -1.363159 -2.249593
  8   1.168026 -0.537438 -0.063437 -1.070218 0.257927 -1.124264
  9   6.790376 -0.619176 0.015206 -0.000269 -0.000285 -0.530236
 10   8.637599 0.544015 -0.090417 -1.570112 0.000292 -0.069354
 11   6.790465 -0.619039 0.017802 -0.001568 -0.011196 -0.386335
 12   -2.022474 -0.104699 -2.873818 2.087016 1.960331 -0.395673
 13   1.167898 -0.537463 0.063297 1.115673 -0.516373 -0.669787
 14   7.002743 -0.617765 -0.183752 0.000229 0.000250 -1.341869
 15   8.209042 0.615527 -0.255885 1.570090 -0.000063 -0.069646
 16   7.002735 -0.617911 -0.183641 0.013873 0.007368 -0.957971
 17   1.574674 0.609930 -0.000899 0.115365 -0.117971 1.044511
 18   -0.602177 0.511412 -0.000006 0.000000 0.000000 0.000000
 19   3.665960 0.309837 1.146658 -0.000002 -0.000014 -0.174510
 20   3.665954 0.309810 -1.090221 0.000007 -0.000003 -0.174546
 21   2.887637 1.322821 1.549531 0.000002 -0.000011 -0.000026
 22   -0.226528 -0.758005 0.473551 0.000194 -0.057471 0.890061
 23   2.903280 1.315034 -1.584207 0.000019 0.000002 -0.000024
 24   -0.074270 -0.562670 -0.551668 0.000187 -0.057496 0.890104
 25   3.953053 2.094997 1.523858 0.102271 -0.029428 -0.168407
 26   3.902288 2.141901 -1.516125 -0.141155 -0.028485 -0.183628
 27   3.293379 1.455197 1.514501 -0.000019 -0.000022 -0.000050
 28   3.295809 1.454803 -1.501142 -0.000002 -0.000009 -0.000024
 29   8.824059 0.150544 0.091743 0.133156 0.087006 0.159157
 30   2.126710 -0.561179 1.753069 -0.000510 0.036226 0.002469
 31   2.144728 -0.561289 -1.830161 0.000092 -0.048669 0.002709
 32   -0.814395 -0.093824 3.127092 0.040804 -2.960529 -1.242610
 33   14.298673 -0.408176 0.471578 -0.000088 -0.000041 -1.547419
 34   15.835795 0.581398 0.242756 0.029575 -0.003831 0.136845
 35   -0.815868 -0.091229 -3.114430 -0.077088 2.901407 -0.925201
 36   14.294526 -0.410349 -0.467541 0.000093 0.000048 -1.932813
 37   15.834409 0.579420 -0.284600 -0.001324 0.066922 0.394044
 38   1.167030 -3.469374 -2.823813 0.000147 -0.016570 -0.552354
 39   -4.457742 -1.043135 -0.746180 0.001079 0.000204 -0.014612
 40   1.090756 -3.434144 3.237290 0.000063 -0.016629 -0.552294
 41   -4.433840 -1.059130 0.959566 0.000179 0.000012 -0.001430
 42   -0.684813 0.115222 -2.676895 0.010834 0.003498 0.755730
 43   -0.617192 0.104779 2.892815 0.010545 0.007157 0.755730
time 9
  0   0.235615 8.683859 -24.160522 0.000000 -0.853744 -1.571354
  1   -1.093036 0.000002 -0.326057 -1.571594 -1.570749 0.001426
  2   2.262337 0.113614 0.064702 -0.069408 -0.006291 -0.090801
  3   2.380047 0.353302 0.047440 0.000000 -0.000040 0.239194
  4   2.033756 0.190472 -0.000128 -0.078354 0.002685 0.034410
  5   2.451511 0.204909 -0.003447 0.000000 -0.000005 0.349527
  6   7.247600 -0.397300 -0.109469 0.000001 0.000009 -0.323537
  7   -2.022252 -0.104661 3.136172 -0.269163 -1.363448 -2.556042
  8   1.168026 -0.537438 -0.063437 -1.115337 0.040368 -1.216814
  9   6.790376 -0.619176 0.015206 -0.000269 -0.000285 -0.530538
 10   8.637599 0.544015 -0.090417 -1.570112 0.000292 -0.069354
 11   6.790465 -0.619039 0.017802 -0.001568 -0.011196 -0.386566
 12   -2.022474 -0.104699 -2.873818 -1.128556 1.127896 -3.906787
 13   1.167898 -0.537463 0.063297 1.190749 -0.366301 -0.688129
 14   7.002743 -0.617765 -0.183752 0.000229 0.000250 -1.336918
 15   8.209042 0.615527 -0.255885 1.570090 -0.000063 -0.069646
 16   7.002735 -0.617911 -0.183641 0.013873 0.007368 -0.954494
 17   1.574674 0.609930 -0.000899 0.100457 -0.130633 0.801307
 18   -0.602177 0.511412 -0.000006 0.000000 0.000000 0.000000
 19   3.665960 0.309837 1.146658 -0.000002 -0.000014 -0.174510
 20   3.665954 0.309810 -1.090221 0.000007 -0.000003 -0.174546
 21   2.887637 1.322821 1.549531 0.000002 -0.000011 -0.000026
 22   -0.226528 -0.758005 0.473551 0.000194 -0.057471 0.890061
 23   2.903280 1.315034 -1.584207 0.000019 0.000002 -0.000024
 24   -0.074270 -0.562670 -0.551668 0.000187 -0.057496 0.890104
 25   3.953053 2.094997 1.523858 0.102271 -0.029428 -0.168407
 26   3.902288 2.141901 -1.516125 -0.141155 -0.028485 -0.183628
 27   3.293379 1.455197 1.514501 -0.000019 -0.000022 -0.000050
 28   3.295809 1.454803 -1.501142 -0.000002 -0.000009 -0.000024
 29   8.824059 0.150544 0.091743 0.140999 0.107611 0.261625
 30   2.126710 -0.561179 1.745256 -0.000632 0.044450 0.003026
 31   2.148634 -0.561289 -1.826254 0.000107 -0.059496 0.003328
 32   -0.814395 -0.093824 3.127092 0.091696 -2.915449 -1.511909
 33   14.298673 -0.408176 0.471578 -0.000088 -0.000041 -1.461113
 34   15.835795 0.581398 0.242756 0.089474 -0.021621 0.014858
 35   -0.815868 -0.091229 -3.114430 -0.167831 2.938976 -1.166771
 36   14.294526 -0.410349 -0.467541 0.000093 0.000048 -1.950270
 37   15.834409 0.579420 -0.284600 0.002360 0.091903 0.160206
 38   1.182655 -3.461562 -2.823813 0.003557 -0.024137 -0.548383
 39   -4.457742 -1.031416 -0.746180 0.002121 0.000791 -0.027626
 40   1.075131 -3.441956 3.237290 0.003136 -0.024293 -0.548018
 41   -4.429934 -1.055224 0.959566 0.000335 0.000072 -0.002749
 42   -0.743408 -0.138692 -2.669082 0.011397 0.005874 0.886760
 43   -0.664068 -0.145228 2.896721 0.011220 0.008318 0.886760
time 10
  0   0.235615 9.094028 -30.098204 0.000000 -0.973764 -1.571354
  1   -1.093036 0.000002 -0.326057 -1.570704 -1.570425 -0.000123
  2   2.262337 0.113614 0.064702 -0.069344 -0.007358 -0.106323
  3   2.380047 0.353302 0.047440 0.000000 -0.000040 0.275270
  4   2.033756 0.190472 -0.000128 -0.077063 0.014334 0.182696
  5   2.451511 0.204909 -0.003447 0.000000 -0.000005 0.204030
  6   7.247600 -0.397300 -0.109469 0.000001 0.000009 -0.018719
  7   -2.022252 -0.104661 3.136172 -0.264849 -1.363649 -2.865497
  8   1.168026 -0.537438 -0.063437 -1.122045 -0.075908 -1.265651
  9   6.790376 -0.619176 0.015206 -0.000269 -0.000285 -0.533330
 10   8.637599 0.544015 -0.090417 -1.570112 0.000292 -0.069354
 11   6.790465 -0.619039 0.017802 -0.001539 -0.011196 -0.388527
 12   -2.022474 -0.104699 -2.873818 -1.181921 1.079281 -4.259018
 13   1.167898 -0.537463 0.063297 1.218446 -0.290324 -0.666458
 14   7.002743 -0.617765 -0.183752 0.000229 0.000250 -1.320417
 15   8.209042 0.615527 -0.255885 1.570090 -0.000063 -0.069646
 16   7.002735 -0.617911 -0.183641 0.013920 0.007255 -0.943069
 17   1.574674 0.609930 -0.000899 0.084574 -0.141496 0.599537
 18   -0.602177 0.511412 -0.000006 0.000000 0.000000 0.000000
 19   3.665960 0.309837 1.146658 -0.000002 -0.000014 -0.174510
 20   3.665954 0.309810 -1.090221 0.000007 -0.000003 -0.174546
 21   2.887637 1.322821 1.549531 0.000002 -0.000011 -0.000026
 22   -0.226528 -0.758005 0.473551 0.000194 -0.057471 0.890061
 23   2.903280 1.315034 -1.584207 0.000019 0.000002 -0.000024
 24   -0.074270 -0.562670 -0.551668 0.000187 -0.057496 0.890104
 25   3.953053 2.094997 1.523858 0.102271 -0.029428 -0.168407
 26   3.902288 2.141901 -1.516125 -0.141155 -0.028485 -0.183628
 27   3.293379 1.455197 1.514501 -0.000019 -0.000022 -0.000050
 28   3.295809 1.454803 -1.501142 -0.000002 -0.000009 -0.000024
 29   8.824059 0.150544 0.091743 0.143851 0.128714 0.299822
 30   2.130617 -0.561179 1.737444 -0.000740 0.053081 0.003584
 31   2.152541 -0.561289 -1.818442 0.000138 -0.070892 0.003965
 32   -0.814395 -0.093824 3.127092 -3.005271 -0.249261 1.416165
 33   14.298673 -0.408176 0.471578 -0.000088 -0.000041 -1.366630
 34   15.835795 0.581398 0.242756 0.131017 -0.040388 -0.105322
 35   -0.815868 -0.091229 -3.114430 -0.239739 2.991067 -1.375802
 36   14.294526 -0.410349 -0.467541 0.000093 0.000048 -1.961934
 37   15.834409 0.579420 -0.284600 0.000016 0.115809 -0.040877
 38   1.206093 -3.453749 -2.823813 0.008083 -0.031657 -0.542151
 39   -4.457742 -1.015790 -0.742274 0.003104 0.001714 -0.039097
 40   1.051693 -3.449769 3.237290 0.007157 -0.031921 -0.541297
 41   -4.426027 -1.047411 0.963472 0.000478 0.000168 -0.003898
 42   -0.762940 -0.236351 -2.661269 0.012416 0.008757 0.935650
 43   -0.683600 -0.242887 2.896721 0.012419 0.008758 0.935650
time 11
  0   0.231709 9.371380 -33.934258 0.000000 -1.054400 -1.571354
  1   -1.093036 0.000002 -0.326057 -1.570704 -1.570425 -0.000123
  2   2.262337 0.113614 0.064702 -0.069166 -0.008604 -0.124214
  3   2.380047 0.353302 0.047440 0.000000 -0.000040 0.304797
  4   2.033756 0.190472 -0.000128 -0.062733 0.047016 0.640749
  5   2.451511 0.204909 -0.003447 0.000000 -0.000005 -0.258588
  6   7.247600 -0.397300 -0.109469 0.000001 0.000009 0.245553
  7   -2.022252 -0.104661 3.136172 -3.401896 -1.777465 0.008626
  8   1.168026 -0.537438 -0.063437 -1.122361 -0.114801 -1.280960
  9   6.790376 -0.619176 0.015206 -0.000269 -0.000285 -0.539292
 10   8.637599 0.544015 -0.090417 -1.570112 0.000292 -0.069354
 11   6.790465 -0.619039 0.017802 -0.001510 -0.011196 -0.392679
 12   -2.022474 -0.104699 -2.873818 -1.219286 1.038009 -4.556486
 13   1.167898 -0.537463 0.063297 1.231662 -0.259761 -0.634011
 14   7.002743 -0.617765 -0.183752 0.000229 0.000250 -1.289478
 15   8.209042 0.615527 -0.255885 1.570090 -0.000063 -0.069646
 16   7.002735 -0.617911 -0.183641 0.013967 0.007086 -0.921323
 17   1.574674 0.609930 -0.000899 0.075434 -0.146466 0.396288
 18   -0.602177 0.511412 -0.000006 0.000000 0.000000 0.000000
 19   3.665960 0.309837 1.146658 -0.000002 -0.000014 -0.174510
 20   3.665954 0.309810 -1.090221 0.000007 -0.000003 -0.174546
 21   2.887637 1.322821 1.549531 0.000002 -0.000011 -0.000026
 22   -0.226528 -0.758005 0.473551 0.000194 -0.057471 0.890061
 23   2.903280 1.315034 -1.584207 0.000019 0.000002 -0.000024
 24   -0.074270 -0.562670 -0.551668 0.000187 -0.057496 0.890104
 25   3.953053 2.094997 1.523858 0.102271 -0.029428 -0.168407
 26   3.902288 2.141901 -1.516125 -0.141155 -0.028485 -0.183628
 27   3.293379 1.455197 1.514501 -0.000019 -0.000022 -0.000050
 28   3.295809 1.454803 -1.501142 -0.000002 -0.000009 -0.000024
 29   8.824059 0.150544 0.091743 0.142603 0.149912 0.281797
 30   2.134523 -0.557273 1.729631 -0.000876 0.062032 0.004184
 31   2.160354 -0.561289 -1.814535 0.000153 -0.082651 0.004620
 32   -0.814395 -0.093824 3.127092 -2.989705 -0.251840 1.314217
 33   14.298673 -0.408176 0.471578 -0.000088 -0.000041 -1.265953
 34   15.835795 0.581398 0.242756 0.145301 -0.044146 -0.214829
 35   -0.815868 -0.091229 -3.114430 2.854675 0.100201 1.614949
 36   14.294526 -0.410349 -0.467541 0.000093 0.000048 -1.967187
 37   15.834409 0.579420 -0.284600 -0.002565 0.135543 -0.176809
 38   1.225625 -3.449842 -2.823813 0.013556 -0.039080 -0.533965
 39   -4.457742 -0.996258 -0.738367 0.004027 0.002924 -0.049138
 40   1.032161 -3.453675 3.237290 0.011956 -0.039465 -0.532500
 41   -4.418214 -1.039598 0.963472 0.000598 0.000276 -0.004880
 42   -0.762940 -0.220725 -2.649550 0.015999 0.012145 0.926282
 43   -0.691413 -0.235075 2.892815 0.014318 0.006498 0.926282
time 12
  0   0.231709 9.371380 -35.371803 0.000000 -1.087472 -1.571354
  1   -1.093036 0.000002 -0.326057 -1.570704 -1.570425 -0.000171
  2   2.262337 0.113614 0.064702 -0.068771 -0.011157 -0.160626
  3   2.380047 0.353302 0.047440 0.000000 -0.000040 0.285432
  4   2.033756 0.190472 -0.000128 -0.044936 0.064154 0.958019
  5   2.451511 0.204909 -0.003447 0.000000 -0.000005 -0.629971
  6   7.247600 -0.397300 -0.109469 0.000001 0.000009 0.427025
  7   -2.022252 -0.104661 3.136172 -0.259194 -1.363967 -3.315262
  8   1.168026 -0.537438 -0.063437 -1.086481 0.097475 -1.204921
  9   6.790376 -0.619176 0.015206 -0.000269 -0.000285 -0.553027
 10   8.637599 0.544015 -0.090417 -1.570112 0.000292 -0.069354
 11   6.790465 -0.619039 0.017802 -0.001422 -0.011225 -0.402253
 12   -2.022474 -0.104699 -2.873818 -1.238160 1.014644 -4.754191
 13   1.167898 -0.537463 0.063297 1.172332 -0.417511 -0.544541
 14   7.002743 -0.617765 -0.183752 0.000229 0.000250 -1.219678
 15   8.209042 0.615527 -0.255885 1.570090 -0.000063 -0.069646
 16   7.002735 -0.617911 -0.183641 0.014014 0.006747 -0.872533
 17   1.574674 0.609930 -0.000899 0.075962 -0.146466 0.295311
 18   -0.602177 0.511412 -0.000006 0.000000 0.000000 0.000000
 19   3.665960 0.309837 1.146658 -0.000002 -0.000014 -0.174510
 20   3.665954 0.309810 -1.090221 0.000007 -0.000003 -0.174546
 21   2.887637 1.322821 1.549531 0.000002 -0.000011 -0.000026
 22   -0.226528 -0.758005 0.473551 0.000194 -0.057471 0.890061
 23   2.903280 1.315034 -1.584207 0.000019 0.000002 -0.000024
 24   -0.074270 -0.562670 -0.551668 0.000187 -0.057496 0.890104
 25   3.953053 2.094997 1.523858 0.102271 -0.029428 -0.168407
 26   3.902288 2.141901 -1.516125 -0.141155 -0.028485 -0.183628
 27   3.293379 1.455197 1.514501 -0.000019 -0.000022 -0.000050
 28   3.295809 1.454803 -1.501142 -0.000002 -0.000009 -0.000024
 29   8.824059 0.150544 0.091743 0.139038 0.170920 0.231099
 30   2.138430 -0.557273 1.717912 -0.000998 0.071128 0.004784
 31   2.164260 -0.561289 -1.806723 0.000184 -0.094670 0.005293
 32   -0.814395 -0.093824 3.127092 0.088340 -2.924618 -1.661158
 33   14.298673 -0.408176 0.471578 -0.000088 -0.000041 -1.133596
 34   15.835795 0.581398 0.242756 0.097157 0.001733 -0.318161
 35   -0.815868 -0.091229 -3.114430 2.839184 0.076030 1.583233
 36   14.294526 -0.410349 -0.467541 0.000093 0.000048 -1.956836
 37   15.834409 0.579420 -0.284600 0.013729 0.148059 -0.141014
 38   1.252970 -3.442030 -2.819907 0.019828 -0.046334 -0.524129
 39   -4.461648 -0.976727 -0.734461 0.004890 0.004374 -0.057832
 40   1.004816 -3.461488 3.233384 0.017408 -0.046876 -0.521930
 41   -4.410401 -1.027879 0.967379 0.000706 0.000419 -0.005750
 42   -0.755127 -0.173849 -2.633925 0.023789 0.015978 0.899934
 43   -0.699225 -0.215543 2.877190 0.016929 0.000128 0.899934
time 13
  0   0.235615 9.152623 -35.973381 0.000000 -1.089428 -1.571354
  1   -1.093036 0.000002 -0.326057 -1.570704 -1.570425 -0.000171
  2   2.262337 0.113614 0.064702 -0.067803 -0.016119 -0.235006
  3   2.380047 0.353302 0.047440 0.000000 -0.000040 0.138880
  4   2.033756 0.190472 -0.000128 -0.067362 0.040017 0.534219
  5   2.451511 0.204909 -0.003447 0.000000 -0.000005 -0.377462
  6   7.247600 -0.397300 -0.109469 0.000001 0.000009 0.303521
  7   -2.022252 -0.104661 3.136172 -3.399884 -1.777378 -0.051199
  8   1.168026 -0.537438 -0.063437 -0.797606 0.671158 -0.857431
  9   6.790376 -0.619176 0.015206 -0.000269 -0.000285 -0.574837
 10   8.637599 0.544015 -0.090417 -1.570112 0.000292 -0.069354
 11   6.790465 -0.619039 0.017802 -0.001393 -0.011225 -0.417595
 12   -2.022474 -0.104699 -2.873818 -1.240459 1.011423 -4.632217
 13   1.167898 -0.537463 0.063297 0.779516 -0.855013 -0.151307
 14   7.002743 -0.617765 -0.183752 0.000229 0.000250 -1.105573
 15   8.209042 0.615527 -0.255885 1.570090 -0.000063 -0.069646
 16   7.002735 -0.617911 -0.183641 0.014155 0.006127 -0.792448
 17   1.574674 0.609930 -0.000899 0.119427 -0.113285 0.373040
 18   -0.602177 0.511412 -0.000006 0.000000 0.000000 0.000000
 19   3.665960 0.309837 1.146658 -0.000002 -0.000014 -0.174510
 20   3.665954 0.309810 -1.090221 0.000007 -0.000003 -0.174546
 21   2.887637 1.322821 1.549531 0.000002 -0.000011 -0.000026
 22   -0.226528 -0.758005 0.473551 0.000194 -0.057471 0.890061
 23   2.903280 1.315034 -1.584207 0.000019 0.000002 -0.000024
 24   -0.074270 -0.562670 -0.551668 0.000187 -0.057496 0.890104
 25   3.953053 2.094997 1.523858 0.102271 -0.029428 -0.168407
 26   3.902288 2.141901 -1.516125 -0.141155 -0.028485 -0.183628
 27   3.293379 1.455197 1.514501 -0.000019 -0.000022 -0.000050
 28   3.295809 1.454803 -1.501142 -0.000002 -0.000009 -0.000024
 29   8.824059 0.150544 0.091743 0.133602 0.191572 0.152719
 30   2.142336 -0.557273 1.710099 -0.001120 0.080282 0.005406
 31   2.172073 -0.561289 -1.802816 0.000215 -0.106740 0.005966
 32   -0.814395 -0.093824 3.127092 -0.009063 -3.017261 -1.292929
 33   14.298673 -0.408176 0.471578 -0.000088 -0.000041 -0.980834
 34   15.835795 0.581398 0.242756 -0.012864 0.063719 -0.410512
 35   -0.815868 -0.091229 -3.114430 2.844465 0.077247 1.647597
 36   14.294526 -0.410349 -0.467541 0.000093 0.000048 -1.929260
 37   15.834409 0.579420 -0.284600 0.048208 0.150286 0.017683
 38   1.280314 -3.430311 -2.819907 0.026711 -0.053384 -0.513009
 39   -4.461648 -0.957195 -0.730555 0.005705 0.006028 -0.065292
 40   0.977472 -3.473207 3.233384 0.023364 -0.054082 -0.510017
 41   -4.398683 -1.016160 0.971285 0.000802 0.000587 -0.006507
 42   -0.743408 -0.103534 -2.618299 0.035091 0.020149 0.859241
 43   -0.703132 -0.188198 2.861564 0.020128 -0.009695 0.859199
time 14
  0   0.235615 8.906522 -36.281986 0.000000 -1.078493 -1.571354
  1   -1.093036 0.000002 -0.326057 -1.570704 -1.570425 -0.000123
  2   2.262337 0.113614 0.064702 -0.065816 -0.022578 -0.329788
  3   2.380047 0.353302 0.047440 0.000000 -0.000040 -0.008632
  4   2.033756 0.190472 -0.000128 -0.078354 -0.002613 -0.035112
  5   2.451511 0.204909 -0.003447 0.000000 -0.000005 -0.000210
  6   7.247600 -0.397300 -0.109469 0.000001 0.000009 -0.002280
  7   -2.022252 -0.104661 3.136172 -0.259865 -1.363967 -2.886252
  8   1.168026 -0.537438 -0.063437 0.210072 0.944315 0.217616
  9   6.790376 -0.619176 0.015206 -0.000269 -0.000285 -0.600496
 10   8.637599 0.544015 -0.090417 -1.570112 0.000292 -0.069354
 11   6.790465 -0.619039 0.017802 -0.001276 -0.011225 -0.435474
 12   -2.022474 -0.104699 -2.873818 -1.233657 1.020333 -4.320484
 13   1.167898 -0.537463 0.063297 -0.234930 -0.982556 0.867312
 14   7.002743 -0.617765 -0.183752 0.000229 0.000250 -0.970924
 15   8.209042 0.615527 -0.255885 1.570090 -0.000063 -0.069646
 16   7.002735 -0.617911 -0.183641 0.014249 0.005394 -0.698345
 17   1.574674 0.609930 -0.000899 0.157245 -0.038072 0.481483
 18   -0.602177 0.511412 -0.000006 0.000000 0.000000 0.000000
 19   3.665960 0.309837 1.146658 -0.000002 -0.000014 -0.174510
 20   3.665954 0.309810 -1.090221 0.000007 -0.000003 -0.174546
 21   2.887637 1.322821 1.549531 0.000002 -0.000011 -0.000026
 22   -0.226528 -0.758005 0.473551 0.000194 -0.057471 0.890061
 23   2.903280 1.315034 -1.584207 0.000019 0.000002 -0.000024
 24   -0.074270 -0.562670 -0.551668 0.000187 -0.057496 0.890104
 25   3.953053 2.094997 1.523858 0.102271 -0.029428 -0.168407
 26   3.902288 2.141901 -1.516125 -0.141155 -0.028485 -0.183628
 27   3.293379 1.455197 1.514501 -0.000019 -0.000022 -0.000050
 28   3.295809 1.454803 -1.501142 -0.000002 -0.000009 -0.000024
 29   8.824059 0.150544 0.091743 0.126561 0.211678 0.051700
 30   2.146242 -0.557273 1.702286 -0.001256 0.089407 0.006007
 31   2.175979 -0.561289 -1.795003 0.000230 -0.118732 0.006639
 32   -0.814395 -0.093824 3.127092 -0.056227 -3.113150 -0.975475
 33   14.298673 -0.408176 0.471578 -0.000088 -0.000041 -0.864198
 34   15.835795 0.581398 0.242756 -0.109889 0.089025 -0.451395
 35   -0.815868 -0.091229 -3.114430 2.850098 0.078091 1.708017
 36   14.294526 -0.410349 -0.467541 0.000093 0.000048 -1.895736
 37   15.834409 0.579420 -0.284600 0.072974 0.150670 0.101088
 38   1.311565 -3.422498 -2.816000 0.034036 -0.060168 -0.500913
 39   -4.461648 -0.937663 -0.726648 0.006448 0.007814 -0.071631
 40   0.946221 -3.481020 3.229477 0.029658 -0.061047 -0.497065
 41   -4.386963 -1.004441 0.979098 0.000874 0.000755 -0.007124
 42   -0.727783 -0.013688 -2.602674 0.049281 0.024549 0.806754
 43   -0.707038 -0.153041 2.834219 0.023789 -0.022374 0.806670
time 15
  0   0.235615 8.715110 -33.590496 0.000000 -1.072892 -1.571354
  1   -1.093036 0.000002 -0.326057 -1.570704 -1.570425 -0.000219
  2   2.262337 0.113614 0.064702 -0.062211 -0.031471 -0.467614
  3   2.380047 0.353302 0.047440 0.000000 -0.000040 -0.034894
  4   2.033756 0.190472 -0.000128 -0.073817 -0.026426 -0.343792
  5   2.451511 0.204909 -0.003447 0.000000 -0.000005 0.162548
  6   7.247600 -0.397300 -0.109469 0.000001 0.000009 -0.331045
  7   -2.022252 -0.104661 3.136172 -0.261015 -1.363822 -2.556606
  8   1.168026 -0.537438 -0.063437 0.857052 0.578630 0.944921
  9   6.790376 -0.619176 0.015206 -0.000269 -0.000285 -0.624872
 10   8.637599 0.544015 -0.090417 -1.570112 0.000292 -0.069354
 11   6.790465 -0.619039 0.017802 -0.001218 -0.011282 -0.452661
 12   -2.022474 -0.104699 -2.873818 -1.223980 1.032088 -3.983475
 13   1.167898 -0.537463 0.063297 -0.783311 -0.685006 1.431617
 14   7.002743 -0.617765 -0.183752 0.000229 0.000250 -0.841309
 15   8.209042 0.615527 -0.255885 1.570090 -0.000063 -0.069646
 16   7.002735 -0.617911 -0.183641 0.014391 0.004717 -0.607608
 17   1.574674 0.609930 -0.000899 0.152168 0.044738 0.523175
 18   -0.602177 0.511412 -0.000006 0.000000 0.000000 0.000000
 19   3.665960 0.309837 1.146658 -0.000002 -0.000014 -0.174510
 20   3.665954 0.309810 -1.090221 0.000007 -0.000003 -0.174546
 21   2.887637 1.322821 1.549531 0.000002 -0.000011 -0.000026
 22   -0.226528 -0.758005 0.473551 0.000194 -0.057471 0.890061
 23   2.903280 1.315034 -1.584207 0.000019 0.000002 -0.000024
 24   -0.074270 -0.562670 -0.551668 0.000187 -0.057496 0.890104
 25   3.953053 2.094997 1.523858 0.102271 -0.029428 -0.168407
 26   3.902288 2.141901 -1.516125 -0.141155 -0.028485 -0.183628
 27   3.293379 1.455197 1.514501 -0.000019 -0.000022 -0.000050
 28   3.295809 1.454803 -1.501142 -0.000002 -0.000009 -0.000024
 29   8.824059 0.150544 0.091743 0.118362 0.231025 -0.066862
 30   2.150149 -0.557273 1.694474 -0.001378 0.098329 0.006607
 31   2.183792 -0.557383 -1.791097 0.000260 -0.130517 0.007313
 32   -0.814395 -0.093824 3.127092 -0.051287 -3.135785 -0.810685
 33   14.298673 -0.408176 0.471578 -0.000088 -0.000041 -0.844508
 34   15.835795 0.581398 0.242756 -0.128682 0.082290 -0.339815
 35   -0.815868 -0.091229 -3.114430 2.846402 0.068909 1.720451
 36   14.294526 -0.410349 -0.467541 0.000093 0.000048 -1.867156
 37   15.834409 0.579420 -0.284600 0.077131 0.161599 0.038623
 38   1.338910 -3.414685 -2.812094 0.041635 -0.066640 -0.488205
 39   -4.465555 -0.918131 -0.722742 0.007143 0.009696 -0.076876
 40   0.918876 -3.488833 3.225571 0.036183 -0.067687 -0.483380
 41   -4.375244 -0.988815 0.983004 0.000946 0.000947 -0.007657
 42   -0.712157 0.091784 -2.583142 0.065688 0.029087 0.745149
 43   -0.710944 -0.110071 2.806875 0.027799 -0.037265 0.745024
time 16
  0   0.235615 8.625263 -30.805256 0.000000 -1.090495 -1.571354
  1   -1.093036 0.000002 -0.326057 -1.571594 -1.570749 0.000845
  2   2.262337 0.113614 0.064702 -0.059447 -0.036241 -0.547487
  3   2.380047 0.353302 0.047440 0.000000 -0.000040 -0.008632
  4   2.033756 0.190472 -0.000128 -0.071069 -0.032982 -0.434735
  5   2.451511 0.204909 -0.003447 0.000000 -0.000005 0.165619
  6   7.247600 -0.397300 -0.109469 0.000001 0.000009 -0.531902
  7   -2.022252 -0.104661 3.136172 -0.261782 -1.363822 -2.355437
  8   1.168026 -0.537438 -0.063437 0.990763 0.283889 1.147924
  9   6.790376 -0.619176 0.015206 -0.000269 -0.000285 -0.643965
 10   8.637599 0.544015 -0.090417 -1.570112 0.000292 -0.069354
 11   6.790465 -0.619039 0.017802 -0.001130 -0.011310 -0.466042
 12   -2.022474 -0.104699 -2.873818 1.921462 2.103593 -0.637803
 13   1.167898 -0.537463 0.063297 -0.915468 -0.486318 1.579564
 14   7.002743 -0.617765 -0.183752 0.000229 0.000250 -0.740074
 15   8.209042 0.615527 -0.255885 1.570090 -0.000063 -0.069646
 16   7.002735 -0.617911 -0.183641 0.014438 0.004210 -0.536630
 17   1.574674 0.609930 -0.000899 0.133726 0.082771 0.574293
 18   -0.602177 0.511412 -0.000006 0.000000 0.000000 0.000000
 19   3.665960 0.309837 1.146658 -0.000002 -0.000014 -0.174510
 20   3.665954 0.309810 -1.090221 0.000007 -0.000003 -0.174546
 21   2.887637 1.322821 1.549531 0.000002 -0.000011 -0.000026
 22   -0.226528 -0.758005 0.473551 0.000194 -0.057471 0.890061
 23   2.903280 1.315034 -1.584207 0.000019 0.000002 -0.000024
 24   -0.074270 -0.562670 -0.551668 0.000187 -0.057496 0.890104
 25   3.953053 2.094997 1.523858 0.102271 -0.029428 -0.168407
 26   3.902288 2.141901 -1.516125 -0.141155 -0.028485 -0.183628
 27   3.293379 1.455197 1.514501 -0.000019 -0.000022 -0.000050
 28   3.295809 1.454803 -1.501142 -0.000002 -0.000009 -0.000024
 29   8.824059 0.150544 0.091743 0.109271 0.249445 -0.197978
 30   2.154055 -0.557273 1.686661 -0.001500 0.106960 0.007165
 31   2.187698 -0.557383 -1.783284 0.000276 -0.141888 0.007949
 32   -0.814395 -0.093824 3.127092 -0.036653 -3.125853 -0.722570
 33   14.298673 -0.408176 0.471578 -0.000088 -0.000041 -0.865151
 34   15.835795 0.581398 0.242756 -0.120102 0.066330 -0.198599
 35   -0.815868 -0.091229 -3.114430 2.841209 0.057573 1.722971
 36   14.294526 -0.410349 -0.467541 0.000093 0.000048 -1.839734
 37   15.834409 0.579420 -0.284600 0.070590 0.177519 -0.081895
 38   1.370161 -3.406873 -2.812094 0.049318 -0.072737 -0.475192
 39   -4.465555 -0.898599 -0.714929 0.007766 0.011625 -0.081195
 40   0.887625 -3.496645 3.225571 0.042772 -0.073966 -0.469389
 41   -4.363525 -0.977096 0.986911 0.000994 0.001127 -0.008077
 42   -0.692625 0.205069 -2.563610 0.083652 0.033672 0.677021
 43   -0.714851 -0.067101 2.771718 0.032010 -0.053725 0.676853
time 17
  0   0.235615 8.750267 -31.219332 0.000000 -1.151127 -1.571354
  1   -1.093036 0.000002 -0.326057 -1.570704 -1.570425 -0.000074
  2   2.262337 0.113614 0.064702 -0.062033 -0.031471 -0.469259
  3   2.380047 0.353302 0.047440 0.000000 -0.000040 0.042239
  4   2.033756 0.190472 -0.000128 -0.077063 -0.014202 -0.182855
  5   2.451511 0.204909 -0.003447 0.000000 -0.000005 -0.088524
  6   7.247600 -0.397300 -0.109469 0.000001 0.000009 -0.222111
  7   -2.022252 -0.104661 3.136172 -0.261590 -1.363822 -2.665173
  8   1.168026 -0.537438 -0.063437 0.859013 0.566656 0.944921
  9   6.790376 -0.619176 0.015206 -0.000269 -0.000285 -0.652795
 10   8.637599 0.544015 -0.090417 -1.570112 0.000292 -0.069354
 11   6.790465 -0.619039 0.017802 -0.001101 -0.011310 -0.472097
 12   -2.022474 -0.104699 -2.873818 -1.219286 1.037980 -4.088408
 13   1.167898 -0.537463 0.063297 -0.717022 -0.765916 1.313332
 14   7.002743 -0.617765 -0.183752 0.000229 0.000250 -0.727451
 15   8.209042 0.615527 -0.255885 1.570090 -0.000063 -0.069646
 16   7.002735 -0.617911 -0.183641 0.014438 0.004154 -0.527854
 17   1.574674 0.609930 -0.000899 0.159520 -0.014050 0.836938
 18   -0.602177 0.511412 -0.000006 0.000000 0.000000 0.000000
 19   3.665960 0.309837 1.146658 -0.000002 -0.000014 -0.174510
 20   3.665954 0.309810 -1.090221 0.000007 -0.000003 -0.174546
 21   2.887637 1.322821 1.549531 0.000002 -0.000011 -0.000026
 22   -0.226528 -0.758005 0.473551 0.000194 -0.057471 0.890061
 23   2.903280 1.315034 -1.584207 0.000019 0.000002 -0.000024
 24   -0.074270 -0.562670 -0.551668 0.000187 -0.057496 0.890104
 25   3.953053 2.094997 1.523858 0.102271 -0.029428 -0.168407
 26   3.902288 2.141901 -1.516125 -0.141155 -0.028485 -0.183628
 27   3.293379 1.455197 1.514501 -0.000019 -0.000022 -0.000050
 28   3.295809 1.454803 -1.501142 -0.000002 -0.000009 -0.000024
 29   8.824059 0.150544 0.091743 0.099557 0.266750 -0.336712
 30   2.157961 -0.553366 1.678848 -0.001608 0.115184 0.007722
 31   2.195511 -0.557383 -1.779378 0.000306 -0.152741 0.008550
 32   -0.814395 -0.093824 3.127092 -0.029756 -3.119836 -0.689099
 33   14.298673 -0.408176 0.471578 -0.000088 -0.000041 -0.873567
 34   15.835795 0.581398 0.242756 -0.117733 0.056275 -0.156437
 35   -0.815868 -0.091229 -3.114430 2.838216 0.049984 1.738582
 36   14.294526 -0.410349 -0.467541 0.000093 0.000048 -1.800108
 37   15.834409 0.579420 -0.284600 0.060738 0.193465 -0.214380
 38   1.397505 -3.402966 -2.808187 0.056938 -0.078425 -0.462118
 39   -4.469461 -0.879067 -0.711023 0.008341 0.013555 -0.084645
 40   0.860281 -3.500552 3.221664 0.049255 -0.079834 -0.455398
 41   -4.351806 -0.961471 0.990817 0.001042 0.001318 -0.008442
 42   -0.673093 0.330073 -2.540172 0.102516 0.038195 0.604961
 43   -0.718757 -0.016318 2.736560 0.036308 -0.071143 0.604752
time 18
  0   0.235615 8.996368 -32.328739 0.000000 -1.242787 -1.571354
  1   -1.093036 0.000002 -0.326057 -1.571542 -1.570749 0.000845
  2   2.262337 0.113614 0.064702 -0.065714 -0.022902 -0.334179
  3   2.380047 0.353302 0.047440 0.000000 -0.000040 0.107292
  4   2.033756 0.190472 -0.000128 -0.076860 0.015280 0.196760
  5   2.451511 0.204909 -0.003447 0.000000 -0.000005 -0.433407
  6   7.247600 -0.397300 -0.109469 0.000001 0.000009 0.060977
  7   -2.022252 -0.104661 3.136172 -0.261494 -1.363822 -2.947392
  8   1.168026 -0.537438 -0.063437 0.413899 0.884592 0.430677
  9   6.790376 -0.619176 0.015206 -0.000269 -0.000285 -0.643965
 10   8.637599 0.544015 -0.090417 -1.570112 0.000292 -0.069354
 11   6.790465 -0.619039 0.017802 -0.001130 -0.011310 -0.466042
 12   -2.022474 -0.104699 -2.873818 -1.219286 1.038009 -4.371610
 13   1.167898 -0.537463 0.063297 -0.122596 -0.999135 0.670937
 14   7.002743 -0.617765 -0.183752 0.000229 0.000250 -0.740074
 15   8.209042 0.615527 -0.255885 1.570090 -0.000063 -0.069646
 16   7.002735 -0.617911 -0.183641 0.014438 0.004210 -0.536630
 17   1.574674 0.609930 -0.000899 0.124789 -0.105428 1.021373
 18   -0.602177 0.511412 -0.000006 0.000000 0.000000 0.000000
 19   3.665960 0.309837 1.146658 -0.000002 -0.000014 -0.174510
 20   3.665954 0.309810 -1.090221 0.000007 -0.000003 -0.174546
 21   2.887637 1.322821 1.549531 0.000002 -0.000011 -0.000026
 22   -0.226528 -0.758005 0.473551 0.000194 -0.057471 0.890061
 23   2.903280 1.315034 -1.584207 0.000019 0.000002 -0.000024
 24   -0.074270 -0.562670 -0.551668 0.000187 -0.057496 0.890104
 25   3.953053 2.094997 1.523858 0.102271 -0.029428 -0.168407
 26   3.902288 2.141901 -1.516125 -0.141155 -0.028485 -0.183628
 27   3.293379 1.455197 1.514501 -0.000019 -0.000022 -0.000050
 28   3.295809 1.454803 -1.501142 -0.000002 -0.000009 -0.000024
 29   8.824059 0.150544 0.091743 0.089753 0.282750 -0.477914
 30   2.161868 -0.553366 1.671035 -0.001717 0.122886 0.008237
 31   2.199417 -0.557383 -1.771565 0.000322 -0.162868 0.009114
 32   -0.814395 -0.093824 3.127092 -0.024349 -3.110667 -0.684716
 33   14.298673 -0.408176 0.471578 -0.000088 -0.000041 -0.882142
 34   15.835795 0.581398 0.242756 -0.112535 0.046465 -0.143427
 35   -0.815868 -0.091229 -3.114430 2.841209 0.050265 1.789635
 36   14.294526 -0.410349 -0.467541 0.000093 0.000048 -1.735454
 37   15.834409 0.579420 -0.284600 0.057882 0.205802 -0.312640
 38   1.424850 -3.395154 -2.804281 0.064284 -0.083643 -0.449410
 39   -4.469461 -0.859536 -0.707116 0.008845 0.015436 -0.087337
 40   0.832936 -3.508365 3.217758 0.055549 -0.085209 -0.441713
 41   -4.340087 -0.945845 0.998630 0.001066 0.001498 -0.008694
 42   -0.657468 0.455077 -2.520640 0.121620 0.042549 0.531604
 43   -0.718757 0.034465 2.697497 0.040556 -0.088874 0.531312
time 19
  0   0.235615 9.242470 -33.856133 0.000000 -1.334269 -1.571354
  1   -1.093036 0.000002 -0.326057 -1.570704 -1.570425 -0.000123
  2   2.262337 0.113614 0.064702 -0.067803 -0.016071 -0.233976
  3   2.380047 0.353302 0.047440 0.000000 -0.000040 0.148144
  4   2.033756 0.190472 -0.000128 -0.071899 0.031292 0.408696
  5   2.451511 0.204909 -0.003447 0.000000 -0.000005 -0.601911
  6   7.247600 -0.397300 -0.109469 0.000001 0.000009 -0.293192
  7   -2.022252 -0.104661 3.136172 -0.261590 -1.363822 -2.594172
  8   1.168026 -0.537438 -0.063437 0.383714 0.885699 0.486030
  9   6.790376 -0.619176 0.015206 -0.000269 -0.000285 -0.609854
 10   8.637599 0.544015 -0.090417 -1.570112 0.000292 -0.069354
 11   6.790465 -0.619039 0.017802 -0.001276 -0.011282 -0.441991
 12   -2.022474 -0.104699 -2.873818 -1.219286 1.037980 -4.017272
 13   1.167898 -0.537463 0.063297 -0.130118 -1.020952 0.759802
 14   7.002743 -0.617765 -0.183752 0.000229 0.000250 -0.690571
 15   8.209042 0.615527 -0.255885 1.570090 -0.000063 -0.069646
 16   7.002735 -0.617911 -0.183641 0.014485 0.003928 -0.501969
 17   1.574674 0.609930 -0.000899 0.158627 -0.043965 0.828363
 18   -0.602177 0.511412 -0.000006 0.000000 0.000000 0.000000
 19   3.665960 0.309837 1.146658 -0.000002 -0.000014 -0.174510
 20   3.665954 0.309810 -1.090221 0.000007 -0.000003 -0.174546
 21   2.887637 1.322821 1.549531 0.000002 -0.000011 -0.000026
 22   -0.226528 -0.758005 0.473551 0.000194 -0.057471 0.890061
 23   2.903280 1.315034 -1.584207 0.000019 0.000002 -0.000024
 24   -0.074270 -0.562670 -0.551668 0.000187 -0.057496 0.890104
 25   3.953053 2.094997 1.523858 0.102271 -0.029428 -0.168407
 26   3.902288 2.141901 -1.516125 -0.141155 -0.028485 -0.183628
 27   3.293379 1.455197 1.514501 -0.000019 -0.000022 -0.000050
 28   3.295809 1.454803 -1.501142 -0.000002 -0.000009 -0.000024
 29   8.824059 0.150544 0.091743 0.080128 0.297230 -0.616648
 30   2.165774 -0.553366 1.667129 -0.001812 0.129947 0.008708
 31   2.203324 -0.557383 -1.767659 0.000337 -0.172167 0.009642
 32   -0.814395 -0.093824 3.127092 -0.019969 -3.102931 -0.670998
 33   14.298673 -0.408176 0.471578 -0.000088 -0.000041 -0.867613
 34   15.835795 0.581398 0.242756 -0.107842 0.038412 -0.143868
 35   -0.815868 -0.091229 -3.114430 -0.288235 3.082133 -1.250252
 36   14.294526 -0.410349 -0.467541 0.000093 0.000048 -1.635578
 37   15.834409 0.579420 -0.284600 0.067693 0.212892 -0.360959
 38   1.452195 -3.387341 -2.804281 0.071230 -0.088331 -0.437313
 39   -4.473368 -0.843910 -0.703210 0.009276 0.017222 -0.089356
 40   0.805591 -3.516177 3.217758 0.061442 -0.090053 -0.428761
 41   -4.328368 -0.934126 1.002536 0.001102 0.001678 -0.008891
 42   -0.637936 0.576174 -2.505014 0.140316 0.046658 0.459544
 43   -0.722664 0.081341 2.662339 0.044654 -0.106292 0.459210
time 20
  0   0.235615 9.242470 -33.867851 0.000000 -1.334269 -1.571354
  1   -1.093036 0.000002 -0.326057 -1.570704 -1.570425 -0.000171
  2   2.262337 0.113614 0.064702 -0.068032 -0.014501 -0.210827
  3   2.380047 0.353302 0.047440 0.000000 -0.000040 0.141655
  4   2.033756 0.190472 -0.000128 -0.075643 0.020566 0.264977
  5   2.451511 0.204909 -0.003447 0.000000 -0.000005 -0.404779
  6   7.247600 -0.397300 -0.109469 0.000001 0.000009 -0.680177
  7   -2.022252 -0.104661 3.136172 -0.261782 -1.363822 -2.206955
  8   1.168026 -0.537438 -0.063437 0.623863 0.768517 0.843009
  9   6.790376 -0.619176 0.015206 -0.000269 -0.000285 -0.565630
 10   8.637599 0.544015 -0.090417 -1.570112 0.000292 -0.069354
 11   6.790465 -0.619039 0.017802 -0.001422 -0.011225 -0.411193
 12   -2.022474 -0.104699 -2.873818 1.921462 2.103593 -0.489500
 13   1.167898 -0.537463 0.063297 -0.516958 -0.943602 1.248257
 14   7.002743 -0.617765 -0.183752 0.000229 0.000250 -0.626547
 15   8.209042 0.615527 -0.255885 1.570090 -0.000063 -0.069646
 16   7.002735 -0.617911 -0.183641 0.014532 0.003590 -0.457207
 17   1.574674 0.609930 -0.000899 0.160008 0.038561 0.649102
 18   -0.602177 0.511412 -0.000006 0.000000 0.000000 0.000000
 19   3.665960 0.309837 1.146658 -0.000002 -0.000014 -0.174510
 20   3.665954 0.309810 -1.090221 0.000007 -0.000003 -0.174546
 21   2.887637 1.322821 1.549531 0.000002 -0.000011 -0.000026
 22   -0.226528 -0.758005 0.473551 0.000194 -0.057471 0.890061
 23   2.903280 1.315034 -1.584207 0.000019 0.000002 -0.000024
 24   -0.074270 -0.562670 -0.551668 0.000187 -0.057496 0.890104
 25   3.953053 2.094997 1.523858 0.102271 -0.029428 -0.168407
 26   3.902288 2.141901 -1.516125 -0.141155 -0.028485 -0.183628
 27   3.293379 1.455197 1.514501 -0.000019 -0.000022 -0.000050
 28   3.295809 1.454803 -1.501142 -0.000002 -0.000009 -0.000024
 29   8.824059 0.150544 0.091743 0.071037 0.310001 -0.747818
 30   2.165774 -0.553366 1.659316 -0.001893 0.136225 0.009116
 31   2.207230 -0.557383 -1.763752 0.000352 -0.180455 0.010096
 32   -0.814395 -0.093824 3.127092 -0.019037 -3.098442 -0.632007
 33   14.298673 -0.408176 0.471578 -0.000088 -0.000041 -0.814972
 34   15.835795 0.581398 0.242756 -0.105128 0.033043 -0.157407
 35   -0.815868 -0.091229 -3.114430 -0.268167 3.066674 -1.113253
 36   14.294526 -0.410349 -0.467541 0.000093 0.000048 -1.509670
 37   15.834409 0.579420 -0.284600 0.084933 0.215247 -0.384941
 38   1.475633 -3.383434 -2.800375 0.077566 -0.092440 -0.426194
 39   -4.473368 -0.828285 -0.695397 0.009660 0.018864 -0.090815
 40   0.782153 -3.520084 3.213852 0.066852 -0.094319 -0.416848
 41   -4.320555 -0.922407 1.006442 0.001114 0.001834 -0.009031
 42   -0.618404 0.693365 -2.485483 0.157945 0.050399 0.391416
 43   -0.722664 0.128218 2.627182 0.048465 -0.122752 0.391039
time 21
  0   0.235615 9.242470 -34.492870 0.000000 -1.334269 -1.571354
  1   -1.093036 0.000002 -0.326057 -1.570704 -1.570425 -0.000123
  2   2.262337 0.113614 0.064702 -0.067994 -0.015292 -0.222429
  3   2.380047 0.353302 0.047440 0.000000 -0.000040 0.111006
  4   2.033756 0.190472 -0.000128 -0.078317 -0.003428 -0.046856
  5   2.451511 0.204909 -0.003447 0.000000 -0.000005 -0.031118
  6   7.247600 -0.397300 -0.109469 0.000001 0.000009 -0.581507
  7   -2.022252 -0.104661 3.136172 -0.261782 -1.363822 -2.305849
  8   1.168026 -0.537438 -0.063437 0.611270 0.784969 0.830863
  9   6.790376 -0.619176 0.015206 -0.000269 -0.000285 -0.565630
 10   8.637599 0.544015 -0.090417 -1.570112 0.000292 -0.069354
 11   6.790465 -0.619039 0.017802 -0.001422 -0.011225 -0.411193
 12   -2.022474 -0.104699 -2.873818 1.921462 2.103593 -0.588209
 13   1.167898 -0.537463 0.063297 -0.489472 -0.953213 1.222772
 14   7.002743 -0.617765 -0.183752 0.000229 0.000250 -0.626547
 15   8.209042 0.615527 -0.255885 1.570090 -0.000063 -0.069646
 16   7.002735 -0.617911 -0.183641 0.014532 0.003590 -0.457207
 17   1.574674 0.609930 -0.000899 0.162892 0.022208 0.612141
 18   -0.602177 0.511412 -0.000006 0.000000 0.000000 0.000000
 19   3.665960 0.309837 1.146658 -0.000002 -0.000014 -0.174510
 20   3.665954 0.309810 -1.090221 0.000007 -0.000003 -0.174546
 21   2.887637 1.322821 1.549531 0.000002 -0.000011 -0.000026
 22   -0.226528 -0.758005 0.473551 0.000194 -0.057471 0.890061
 23   2.903280 1.315034 -1.584207 0.000019 0.000002 -0.000024
 24   -0.074270 -0.562670 -0.551668 0.000187 -0.057496 0.890104
 25   3.953053 2.094997 1.523858 0.102271 -0.029428 -0.168407
 26   3.902288 2.141901 -1.516125 -0.141155 -0.028485 -0.183628
 27   3.293379 1.455197 1.514501 -0.000019 -0.000022 -0.000050
 28   3.295809 1.454803 -1.501142 -0.000002 -0.000009 -0.000024
 29   8.824059 0.150544 0.091743 0.062749 0.320897 -0.866380
 30   2.169681 -0.553366 1.655410 -0.001974 0.141630 0.009480
 31   2.211136 -0.557383 -1.759846 0.000368 -0.187604 0.010497
 32   -0.814395 -0.093824 3.127092 -0.019130 -3.095386 -0.583224
 33   14.298673 -0.408176 0.471578 -0.000088 -0.000041 -0.739226
 34   15.835795 0.581398 0.242756 -0.102989 0.029383 -0.184442
 35   -0.815868 -0.091229 -3.114430 -0.243259 3.051684 -0.961957
 36   14.294526 -0.410349 -0.467541 0.000093 0.000048 -1.373102
 37   15.834409 0.579420 -0.284600 0.104655 0.213532 -0.399391
 38   1.499071 -3.379528 -2.800375 0.083144 -0.095923 -0.416419
 39   -4.473368 -0.812659 -0.691491 0.009959 0.020314 -0.091768
 40   0.758715 -3.523990 3.213852 0.071588 -0.097922 -0.406279
 41   -4.308836 -0.910688 1.010349 0.001126 0.001977 -0.009143
 42   -0.598872 0.798837 -2.469857 0.173836 0.053696 0.329811
 43   -0.722664 0.171188 2.595931 0.051863 -0.137643 0.329393
time 22
  0   0.235615 9.242470 -34.965538 0.000000 -1.334269 -1.571354
  1   -1.093036 0.000002 -0.326057 -1.570704 -1.570425 -0.000171
  2   2.262337 0.113614 0.064702 -0.067803 -0.016071 -0.233976
  3   2.380047 0.353302 0.047440 0.000000 -0.000040 0.087070
  4   2.033756 0.190472 -0.000128 -0.075735 -0.020194 -0.260605
  5   2.451511 0.204909 -0.003447 0.000000 -0.000005 0.217948
  6   7.247600 -0.397300 -0.109469 0.000001 0.000009 -0.348593
  7   -2.022252 -0.104661 3.136172 -0.261590 -1.363822 -2.538480
  8   1.168026 -0.537438 -0.063437 0.615067 0.785875 0.833773
  9   6.790376 -0.619176 0.015206 -0.000269 -0.000285 -0.565630
 10   8.637599 0.544015 -0.090417 -1.570112 0.000292 -0.069354
 11   6.790465 -0.619039 0.017802 -0.001422 -0.011225 -0.411193
 12   -2.022474 -0.104699 -2.873818 -1.219381 1.037980 -3.961742
 13   1.167898 -0.537463 0.063297 -0.487364 -0.950416 1.221501
 14   7.002743 -0.617765 -0.183752 0.000229 0.000250 -0.626547
 15   8.209042 0.615527 -0.255885 1.570090 -0.000063 -0.069646
 16   7.002735 -0.617911 -0.183641 0.014532 0.003590 -0.457207
 17   1.574674 0.609930 -0.000899 0.163135 -0.017411 0.605488
 18   -0.602177 0.511412 -0.000006 0.000000 0.000000 0.000000
 19   3.665960 0.309837 1.146658 -0.000002 -0.000014 -0.174510
 20   3.665954 0.309810 -1.090221 0.000007 -0.000003 -0.174546
 21   2.887637 1.322821 1.549531 0.000002 -0.000011 -0.000026
 22   -0.226528 -0.758005 0.473551 0.000194 -0.057471 0.890061
 23   2.903280 1.315034 -1.584207 0.000019 0.000002 -0.000024
 24   -0.074270 -0.562670 -0.551668 0.000187 -0.057496 0.890104
 25   3.953053 2.094997 1.523858 0.102271 -0.029428 -0.168407
 26   3.902288 2.141901 -1.516125 -0.141155 -0.028485 -0.183628
 27   3.293379 1.455197 1.514501 -0.000019 -0.000022 -0.000050
 28   3.295809 1.454803 -1.501142 -0.000002 -0.000009 -0.000024
 29   8.824059 0.150544 0.091743 0.055797 0.329704 -0.967399
 30   2.173587 -0.553366 1.651503 -0.002028 0.146047 0.009781
 31   2.215043 -0.557383 -1.755940 0.000383 -0.193406 0.010824
 32   -0.814395 -0.093824 3.127092 -0.019689 -3.092616 -0.534613
 33   14.298673 -0.408176 0.471578 -0.000088 -0.000041 -0.663559
 34   15.835795 0.581398 0.242756 -0.101033 0.025600 -0.211653
 35   -0.815868 -0.091229 -3.114430 -0.217911 3.041940 -0.816906
 36   14.294526 -0.410349 -0.467541 0.000093 0.000048 -1.242174
 37   15.834409 0.579420 -0.284600 0.122229 0.210563 -0.418810
 38   1.514696 -3.375622 -2.800375 0.087796 -0.098718 -0.408171
 39   -4.477274 -0.804846 -0.691491 0.010211 0.021524 -0.092357
 40   0.743090 -3.527896 3.213852 0.075524 -0.100826 -0.397481
 41   -4.301023 -0.902875 1.014255 0.001138 0.002097 -0.009199
 42   -0.587153 0.888684 -2.458138 0.187343 0.056425 0.277324
 43   -0.722664 0.206345 2.572493 0.054724 -0.150322 0.276864
time 23
  0   0.235615 9.242470 -34.988979 0.000000 -1.334269 -1.571354
  1   -1.093036 0.000002 -0.326057 -1.570704 -1.570425 -0.000123
  2   2.262337 0.113614 0.064702 -0.067803 -0.016071 -0.233976
  3   2.380047 0.353302 0.047440 0.000000 -0.000040 0.082540
  4   2.033756 0.190472 -0.000128 -0.075827 -0.019751 -0.256074
  5   2.451511 0.204909 -0.003447 0.000000 -0.000005 0.201826
  6   7.247600 -0.397300 -0.109469 0.000001 0.000009 -0.348593
  7   -2.022252 -0.104661 3.136172 -0.261590 -1.363822 -2.538574
  8   1.168026 -0.537438 -0.063437 0.629305 0.773951 0.847184
  9   6.790376 -0.619176 0.015206 -0.000269 -0.000285 -0.565630
 10   8.637599 0.544015 -0.090417 -1.570112 0.000292 -0.069354
 11   6.790465 -0.619039 0.017802 -0.001422 -0.011225 -0.411193
 12   -2.022474 -0.104699 -2.873818 -1.219381 1.037980 -3.961742
 13   1.167898 -0.537463 0.063297 -0.507539 -0.939839 1.240327
 14   7.002743 -0.617765 -0.183752 0.000229 0.000250 -0.626547
 15   8.209042 0.615527 -0.255885 1.570090 -0.000063 -0.069646
 16   7.002735 -0.617911 -0.183641 0.014532 0.003590 -0.457207
 17   1.574674 0.609930 -0.000899 0.163135 -0.017766 0.621529
 18   -0.602177 0.511412 -0.000006 0.000000 0.000000 0.000000
 19   3.665960 0.309837 1.146658 -0.000002 -0.000014 -0.174510
 20   3.665954 0.309810 -1.090221 0.000007 -0.000003 -0.174546
 21   2.887637 1.322821 1.549531 0.000002 -0.000011 -0.000026
 22   -0.226528 -0.758005 0.473551 0.000194 -0.057471 0.890061
 23   2.903280 1.315034 -1.584207 0.000019 0.000002 -0.000024
 24   -0.074270 -0.562670 -0.551668 0.000187 -0.057496 0.890104
 25   3.953053 2.094997 1.523858 0.102271 -0.029428 -0.168407
 26   3.902288 2.141901 -1.516125 -0.141155 -0.028485 -0.183628
 27   3.293379 1.455197 1.514501 -0.000019 -0.000022 -0.000050
 28   3.295809 1.454803 -1.501142 -0.000002 -0.000009 -0.000024
 29   8.824059 0.150544 0.091743 0.050272 0.336231 -1.045725
 30   2.173587 -0.553366 1.647597 -0.002083 0.149331 0.009995
 31   2.215043 -0.557383 -1.755940 0.000398 -0.197757 0.011079
 32   -0.814395 -0.093824 3.127092 -0.019689 -3.092616 -0.534613
 33   14.298673 -0.408176 0.471578 -0.000088 -0.000041 -0.663559
 34   15.835795 0.581398 0.242756 -0.101033 0.025600 -0.211653
 35   -0.815868 -0.091229 -3.114430 -0.217911 3.041940 -0.816906
 36   14.294526 -0.410349 -0.467541 0.000093 0.000048 -1.242174
 37   15.834409 0.579420 -0.284600 0.122229 0.210563 -0.418810
 38   1.526416 -3.371715 -2.796468 0.091311 -0.100779 -0.401940
 39   -4.477274 -0.793127 -0.687584 0.010379 0.022447 -0.092666
 40   0.731370 -3.531803 3.209945 0.078513 -0.102971 -0.390761
 41   -4.297117 -0.895062 1.014255 0.001138 0.002181 -0.009227
 42   -0.575434 0.958998 -2.450325 0.197806 0.058495 0.236631
 43   -0.722664 0.233690 2.549055 0.056923 -0.160160 0.236129
time 24
  0   0.235615 9.242470 -34.863976 0.000000 -1.334269 -1.571354
  1   -1.093036 0.000002 -0.326057 -1.570704 -1.570425 -0.000123
  2   2.262337 0.113614 0.064702 -0.067803 -0.016071 -0.233976
  3   2.380047 0.353302 0.047440 0.000000 -0.000040 0.084805
  4   2.033756 0.190472 -0.000128 -0.077487 -0.011973 -0.154039
  5   2.451511 0.204909 -0.003447 0.000000 -0.000005 0.061530
  6   7.247600 -0.397300 -0.109469 0.000001 0.000009 -0.348593
  7   -2.022252 -0.104661 3.136172 -0.261590 -1.363822 -2.538480
  8   1.168026 -0.537438 -0.063437 0.658351 0.746227 0.874133
  9   6.790376 -0.619176 0.015206 -0.000269 -0.000285 -0.565630
 10   8.637599 0.544015 -0.090417 -1.570112 0.000292 -0.069354
 11   6.790465 -0.619039 0.017802 -0.001422 -0.011225 -0.411193
 12   -2.022474 -0.104699 -2.873818 -1.219381 1.037980 -3.961742
 13   1.167898 -0.537463 0.063297 -0.549998 -0.916039 1.280946
 14   7.002743 -0.617765 -0.183752 0.000229 0.000250 -0.626547
 15   8.209042 0.615527 -0.255885 1.570090 -0.000063 -0.069646
 16   7.002735 -0.617911 -0.183641 0.014532 0.003590 -0.457207
 17   1.574674 0.609930 -0.000899 0.163135 -0.017624 0.657122
 18   -0.602177 0.511412 -0.000006 0.000000 0.000000 0.000000
 19   3.665960 0.309837 1.146658 -0.000002 -0.000014 -0.174510
 20   3.665954 0.309810 -1.090221 0.000007 -0.000003 -0.174546
 21   2.887637 1.322821 1.549531 0.000002 -0.000011 -0.000026
 22   -0.226528 -0.758005 0.473551 0.000194 -0.057471 0.890061
 23   2.903280 1.315034 -1.584207 0.000019 0.000002 -0.000024
 24   -0.074270 -0.562670 -0.551668 0.000187 -0.057496 0.890104
 25   3.953053 2.094997 1.523858 0.102271 -0.029428 -0.168407
 26   3.902288 2.141901 -1.516125 -0.141155 -0.028485 -0.183628
 27   3.293379 1.455197 1.514501 -0.000019 -0.000022 -0.000050
 28   3.295809 1.454803 -1.501142 -0.000002 -0.000009 -0.000024
 29   8.824059 0.150544 0.091743 0.046796 0.340291 -1.096423
 30   2.173587 -0.553366 1.643691 -0.002110 0.151395 0.010124
 31   2.218949 -0.557383 -1.755940 0.000398 -0.200477 0.011225
 32   -0.814395 -0.093824 3.127092 -0.019689 -3.092616 -0.534613
 33   14.298673 -0.408176 0.471578 -0.000088 -0.000041 -0.663559
 34   15.835795 0.581398 0.242756 -0.101033 0.025600 -0.211653
 35   -0.815868 -0.091229 -3.114430 -0.217911 3.041940 -0.816906
 36   14.294526 -0.410349 -0.467541 0.000093 0.000048 -1.242174
 37   15.834409 0.579420 -0.284600 0.122229 0.210563 -0.418810
 38   1.538135 -3.371715 -2.796468 0.093563 -0.102056 -0.397968
 39   -4.477274 -0.789221 -0.683678 0.010487 0.023034 -0.092778
 40   0.719651 -3.531803 3.209945 0.080429 -0.104297 -0.386484
 41   -4.293211 -0.891156 1.018162 0.001138 0.002241 -0.009227
 42   -0.567622 1.001968 -2.442513 0.204565 0.059813 0.210283
 43   -0.722664 0.253221 2.537335 0.058335 -0.166531 0.209781
time 25
  0   0.235615 9.242470 -34.735065 0.000000 -1.334269 -1.571354
  1   -1.093036 0.000002 -0.326057 -1.570704 -1.570425 -0.000171
  2   2.262337 0.113614 0.064702 -0.067803 -0.016071 -0.233976
  3   2.380047 0.353302 0.047440 0.000000 -0.000040 0.087070
  4   2.033756 0.190472 -0.000128 -0.078280 -0.003991 -0.052330
  5   2.451511 0.204909 -0.003447 0.000000 -0.000005 -0.078395
  6   7.247600 -0.397300 -0.109469 0.000001 0.000009 -0.348593
  7   -2.022252 -0.104661 3.136172 -0.261590 -1.363822 -2.538480
  8   1.168026 -0.537438 -0.063437 0.685688 0.717951 0.899627
  9   6.790376 -0.619176 0.015206 -0.000269 -0.000285 -0.565630
 10   8.637599 0.544015 -0.090417 -1.570112 0.000292 -0.069354
 11   6.790465 -0.619039 0.017802 -0.001422 -0.011225 -0.411193
 12   -2.022474 -0.104699 -2.873818 -1.219381 1.037980 -3.961742
 13   1.167898 -0.537463 0.063297 -0.589996 -0.890967 1.318417
 14   7.002743 -0.617765 -0.183752 0.000229 0.000250 -0.626547
 15   8.209042 0.615527 -0.255885 1.570090 -0.000063 -0.069646
 16   7.002735 -0.617911 -0.183641 0.014532 0.003590 -0.457207
 17   1.574674 0.609930 -0.000899 0.163135 -0.017411 0.692642
 18   -0.602177 0.511412 -0.000006 0.000000 0.000000 0.000000
 19   3.665960 0.309837 1.146658 -0.000002 -0.000014 -0.174510
 20   3.665954 0.309810 -1.090221 0.000007 -0.000003 -0.174546
 21   2.887637 1.322821 1.549531 0.000002 -0.000011 -0.000026
 22   -0.226528 -0.758005 0.473551 0.000194 -0.057471 0.890061
 23   2.903280 1.315034 -1.584207 0.000019 0.000002 -0.000024
 24   -0.074270 -0.562670 -0.551668 0.000187 -0.057496 0.890104
 25   3.953053 2.094997 1.523858 0.102271 -0.029428 -0.168407
 26   3.902288 2.141901 -1.516125 -0.141155 -0.028485 -0.183628
 27   3.293379 1.455197 1.514501 -0.000019 -0.000022 -0.000050
 28   3.295809 1.454803 -1.501142 -0.000002 -0.000009 -0.000024
 29   8.824059 0.150544 0.091743 0.045548 0.341691 -1.114449
 30   2.173587 -0.553366 1.643691 -0.002123 0.152121 0.010167
 31   2.218949 -0.557383 -1.752033 0.000398 -0.201410 0.011279
 32   -0.814395 -0.093824 3.127092 -0.019689 -3.092616 -0.534613
 33   14.298673 -0.408176 0.471578 -0.000088 -0.000041 -0.663559
 34   15.835795 0.581398 0.242756 -0.101033 0.025600 -0.211653
 35   -0.815868 -0.091229 -3.114430 -0.217911 3.041940 -0.816906
 36   14.294526 -0.410349 -0.467541 0.000093 0.000048 -1.242174
 37   15.834409 0.579420 -0.284600 0.122229 0.210563 -0.418810
 38   1.538135 -3.371715 -2.796468 0.094342 -0.102490 -0.396563
 39   -4.477274 -0.789221 -0.683678 0.010522 0.023250 -0.092806
 40   0.719651 -3.531803 3.209945 0.081081 -0.104755 -0.384957
 41   -4.293211 -0.891156 1.018162 0.001138 0.002265 -0.009227
 42   -0.563715 1.017594 -2.442513 0.206962 0.060273 0.200915
 43   -0.722664 0.257128 2.533429 0.058835 -0.168791 0.200413
end
