version 1
nodes
  0 "Bip01" -1
  1 "Bip01 Pelvis" 0
  2 "Bip01 Spine" 1
  3 "Bip01 Spine1" 2
  4 "Bip01 Spine2" 3
  5 "Bip01 Spine3" 4
  6 "Bip01 Neck" 5
  7 "Bip01 L Arm" 6
  8 "Bip01 L Arm1" 7
  9 "Bip01 L Arm2" 8
 10 "Bip01 L Hand" 9
 11 "Bip06 L elbow2-smooth" 8
 12 "Bip01 R Arm" 6
 13 "Bip01 R Arm1" 12
 14 "Bip01 R Arm2" 13
 15 "Bip01 R Hand" 14
 16 "Bip06 R elbow2-smooth" 13
 17 "Bip01 Head" 6
 18 "Bip06 Head_helper" 17
 19 "Bip06 Head_eyes_l" 18
 20 "Bip06 Head_eyes_r" 18
 21 "Bip06 Head_blink_l" 18
 22 "Bip06 Head_blink_smooth_l1" 21
 23 "Bip06 Head_blink_r" 18
 24 "Bip06 Head_blink_smooth_r1" 23
 25 "Bip06 Head_L_eyebrow" 18
 26 "Bip06 Head_R_eyebrow" 18
 27 "Bip06 Head_blink_l_lid" 18
 28 "Bip06 Head_blink_r_lid" 18
 29 "Bip06 bunny" 18
 30 "Bip06 bunnyL" 29
 31 "Bip06 bunnyR" 29
 32 "Bip01 L Leg" 1
 33 "Bip01 L Leg1" 32
 34 "Bip01 L Foot" 33
 35 "Bip01 R Leg" 1
 36 "Bip01 R Leg1" 35
 37 "Bip01 R Foot" 36
 38 "Bip03 HairR1" 17
 39 "Bip03 HairR2" 38
 40 "Bip03 HairL1" 17
 41 "Bip03 HairL2" 40
 42 "Bip03 swingR" 17
 43 "Bip03 swingL" 17
end
skeleton
time 0
  0   0.255147 -0.093753 1.851990 0.000000 0.000000 -1.571354
  1   -1.093036 0.000002 -0.326057 -1.570651 -1.570425 0.000022
  2   2.262337 0.113614 0.064702 -0.069357 -0.007178 -0.103522
  3   2.380047 0.353302 0.047440 0.000000 -0.000040 -0.008632
  4   2.033756 0.190472 -0.000128 -0.078243 0.004794 0.060544
  5   2.451511 0.204909 -0.003447 0.000000 -0.000005 -0.017472
  6   7.247600 -0.397300 -0.109469 0.000001 0.000009 0.052298
  7   -2.022252 -0.104661 3.136172 -0.299166 -1.361862 -2.901749
  8   1.168026 -0.537438 -0.063437 0.555710 1.136113 0.768931
  9   6.790376 -0.619176 0.015206 -0.000269 -0.000285 -0.286702
 10   8.637599 0.544015 -0.090417 -1.570112 0.000292 -0.069354
 11   6.790465 -0.619039 0.017802 -0.002473 -0.010969 -0.215790
 12   -2.022474 -0.104699 -2.873818 0.298777 1.361771 -2.901888
 13   1.167898 -0.537463 0.063297 -0.658184 -1.227116 0.844127
 14   7.002743 -0.617765 -0.183752 0.000229 0.000250 -1.289478
 15   8.209042 0.615527 -0.255885 1.570090 -0.000063 -0.069646
 16   7.002735 -0.617911 -0.183641 0.013967 0.007086 -0.921323
 17   1.574674 0.609930 -0.000899 0.156961 -0.049006 0.292465
 18   -0.602177 0.511412 -0.000006 0.000000 0.000000 0.000000
 19   3.673773 0.177020 1.119313 -0.000002 -0.000014 -0.174510
 20   3.677673 0.176993 -1.117566 0.000007 -0.000003 -0.174546
 21   3.942357 1.338447 1.627658 0.000002 -0.000011 -0.000026
 22   -0.246060 -0.011889 0.516521 -0.000011 0.000031 0.000025
 23   3.942374 1.334565 -1.631083 0.000019 0.000002 -0.000024
 24   -0.246150 -0.011872 -0.516511 -0.000005 -0.000006 0.000048
 25   4.941364 1.997338 1.629330 0.000018 -0.000001 -0.000024
 26   4.941382 1.997366 -1.629410 -0.000001 0.000005 -0.000024
 27   2.914462 1.619264 1.514501 -0.000019 -0.000022 -0.000050
 28   2.916892 1.618870 -1.501142 -0.000002 -0.000009 -0.000024
 29   8.824059 0.150544 0.091743 0.000006 -0.000231 -0.174534
 30   2.111085 -0.561179 1.784320 -0.000008 -0.000682 0.000024
 31   2.121290 -0.561289 -1.853599 0.000000 0.000000 -0.000002
 32   -0.814395 -0.093824 3.127092 -0.055388 -3.106560 -0.210100
 33   14.298673 -0.408176 0.471578 -0.000076 -0.000041 -0.234095
 34   15.835795 0.581398 0.242756 -0.095467 -0.022353 0.023943
 35   -0.815868 -0.091229 -3.114430 0.257807 3.091220 0.081065
 36   14.294526 -0.410349 -0.467541 0.000093 0.000048 -0.126769
 37   15.834409 0.579420 -0.284600 -0.017992 0.068995 0.192706
 38   1.139685 -3.453749 -2.823813 0.000000 0.000000 0.000001
 39   -4.457742 -1.054854 -0.746180 0.000000 0.000000 0.000000
 40   1.118101 -3.449769 3.237290 0.000000 0.000001 0.000000
 41   -4.433840 -1.059130 0.959566 -0.000001 0.000000 0.000000
 42   -0.657468 1.697302 -2.688614 0.000000 0.000002 0.000000
 43   -0.664068 1.698578 2.869377 0.000000 0.000002 0.000000
time 1
  0   0.262960 3.234474 0.754300 0.000000 -0.092905 -1.571354
  1   -1.093036 0.000002 -0.326057 -1.570651 -1.570425 -0.000171
  2   2.262337 0.113614 0.064702 -0.068873 -0.009839 -0.143025
  3   2.380047 0.353302 0.047440 0.000000 -0.000040 -0.053605
  4   2.033756 0.190472 -0.000128 -0.073190 0.027996 0.363858
  5   2.451511 0.204909 -0.003447 0.000000 -0.000005 -0.716650
  6   7.247600 -0.397300 -0.109469 0.000001 0.000009 0.052298
  7   -2.022252 -0.104661 3.136172 -1.319095 -1.269875 -1.887170
  8   1.168026 -0.537438 -0.063437 1.151812 0.645247 1.126036
  9   6.790376 -0.619176 0.015206 -0.000269 -0.000285 -0.288136
 10   8.637599 0.544015 -0.090417 -1.570112 0.000292 -0.083606
 11   6.790465 -0.619039 0.017802 -0.002444 -0.010969 -0.216828
 12   -2.022474 -0.104699 -2.873818 1.318356 1.269736 -1.887224
 13   1.167898 -0.537463 0.063297 -1.294084 -0.642899 1.131425
 14   7.002743 -0.617765 -0.183752 0.000229 0.000250 -1.075706
 15   8.209042 0.615527 -0.255885 1.570090 -0.000063 -0.084680
 16   7.002735 -0.617911 -0.183641 0.014155 0.005958 -0.771696
 17   1.574674 0.609930 -0.000899 0.162770 0.016811 0.328908
 18   -0.602177 0.511412 -0.000006 0.000000 0.000000 0.000000
 19   3.673773 0.192646 1.119313 -0.000002 -0.000014 -0.174510
 20   3.673767 0.192619 -1.117566 0.000007 -0.000003 -0.174546
 21   3.829072 1.334540 1.619845 0.000002 -0.000011 -0.000026
 22   -0.246060 -0.086110 0.512615 0.000005 -0.005949 0.092568
 23   3.832995 1.334565 -1.627177 0.000019 0.000002 -0.000024
 24   -0.230525 -0.066561 -0.520417 0.000007 -0.005986 0.092596
 25   4.839798 2.005151 1.621517 0.010636 -0.003057 -0.017533
 26   4.835910 2.009085 -1.617691 -0.014670 -0.002951 -0.019115
 27   2.953525 1.603639 1.514501 -0.000019 -0.000022 -0.000050
 28   2.955955 1.603245 -1.501142 -0.000002 -0.000009 -0.000024
 29   8.824059 0.150544 0.091743 0.009542 -0.006783 -0.869438
 30   2.111085 -0.561179 1.784320 -0.000008 -0.000682 0.000024
 31   2.121290 -0.561289 -1.853599 0.000000 0.000000 -0.000002
 32   -0.814395 -0.093824 3.127092 0.061776 -3.093284 -0.343070
 33   14.298673 -0.408176 0.471578 -0.000076 -0.000041 -0.488328
 34   15.835795 0.581398 0.242756 -0.192055 -0.083607 0.059004
 35   -0.815868 -0.091229 -3.114430 0.065936 3.019267 -0.116409
 36   14.294526 -0.410349 -0.467541 0.000093 0.000048 -0.561190
 37   15.834409 0.579420 -0.284600 0.137893 0.134033 0.295023
 38   0.924835 -3.352183 -2.816000 0.058643 0.051817 0.417582
 39   -4.457742 -1.054854 -0.746180 0.000000 0.000000 0.000000
 40   1.332951 -3.551335 3.229477 0.058643 0.051819 0.417581
 41   -4.433840 -1.059130 0.959566 -0.000001 0.000000 0.000000
 42   -0.528558 2.291070 -2.696427 0.002421 -0.003724 -0.261724
 43   -0.554690 2.288440 2.861564 0.002424 -0.003717 -0.261724
time 2
  0   0.243428 5.656423 -0.069944 0.000000 -0.156649 -1.571354
  1   -1.093036 0.000002 -0.326057 -1.570651 -1.570425 -0.000171
  2   2.262337 0.113614 0.064702 -0.068771 -0.010690 -0.155747
  3   2.380047 0.353302 0.047440 0.000000 -0.000040 -0.060951
  4   2.033756 0.190472 -0.000128 -0.078354 0.000563 0.008348
  5   2.451511 0.204909 -0.003447 0.000000 -0.000005 -0.069628
  6   7.247600 -0.397300 -0.109469 0.000001 0.000009 0.052298
  7   -2.022252 -0.104661 3.136172 -1.649517 -1.047444 -1.533011
  8   1.168026 -0.537438 -0.063437 1.286853 0.866529 1.004386
  9   6.790376 -0.619176 0.015206 -0.000269 -0.000285 -0.289645
 10   8.637599 0.544015 -0.090417 -1.570112 0.000292 -0.097930
 11   6.790465 -0.619039 0.017802 -0.002444 -0.010969 -0.217924
 12   -2.022474 -0.104699 -2.873818 1.649178 1.047674 -1.532790
 13   1.167898 -0.537463 0.063297 -1.440862 -0.811787 0.889952
 14   7.002743 -0.617765 -0.183752 0.000229 0.000250 -0.862017
 15   8.209042 0.615527 -0.255885 1.570090 -0.000063 -0.099955
 16   7.002735 -0.617911 -0.183641 0.014344 0.004830 -0.621958
 17   1.574674 0.609930 -0.000899 0.154930 0.052051 -0.169881
 18   -0.602177 0.511412 -0.000006 0.000000 0.000000 0.000000
 19   3.669866 0.223897 1.127126 -0.000002 -0.000014 -0.174510
 20   3.669860 0.223870 -1.109753 0.000007 -0.000003 -0.174546
 21   3.571252 1.330634 1.600313 0.000002 -0.000011 -0.000026
 22   -0.242154 -0.273616 0.500896 0.000068 -0.020211 0.313307
 23   3.579082 1.330659 -1.615458 0.000019 0.000002 -0.000024
 24   -0.187554 -0.203284 -0.528230 0.000055 -0.020236 0.313358
 25   4.593697 2.032495 1.594173 0.036008 -0.010353 -0.059288
 26   4.578090 2.048149 -1.590346 -0.049677 -0.010024 -0.064645
 27   3.047278 1.564575 1.514501 -0.000019 -0.000022 -0.000050
 28   3.049708 1.564181 -1.501142 -0.000002 -0.000009 -0.000024
 29   8.824059 0.150544 0.091743 0.012572 -0.010225 -1.143150
 30   2.111085 -0.561179 1.784320 -0.000008 -0.000682 0.000024
 31   2.121290 -0.561289 -1.853599 0.000000 0.000000 -0.000002
 32   -0.814395 -0.093824 3.127092 0.155358 -3.092043 -0.405229
 33   14.298673 -0.408176 0.471578 -0.000076 -0.000041 -0.729301
 34   15.835795 0.581398 0.242756 -0.253379 -0.161186 0.130803
 35   -0.815868 -0.091229 -3.114430 -0.099180 3.001560 -0.256640
 36   14.294526 -0.410349 -0.467541 0.000093 0.000048 -0.852864
 37   15.834409 0.579420 -0.284600 0.250353 0.226304 0.369048
 38   0.924835 -3.356090 -2.816000 0.058559 0.050986 0.561520
 39   -4.457742 -1.054854 -0.746180 0.000000 0.000000 0.000000
 40   1.332951 -3.547428 3.229477 0.058559 0.050987 0.561520
 41   -4.433840 -1.059130 0.959566 -0.000001 0.000000 0.000000
 42   -0.528558 2.275445 -2.676895 0.008929 0.002946 -0.254280
 43   -0.539064 2.268908 2.838126 -0.003573 -0.018592 -0.250767
time 3
  0   0.169207 4.793115 0.098030 0.000000 -0.170518 -1.571354
  1   -1.093036 0.000002 -0.326057 -1.570651 -1.570425 -0.000171
  2   2.262337 0.113614 0.064702 -0.069408 -0.006591 -0.096131
  3   2.380047 0.353302 0.047440 0.000000 -0.000040 0.025935
  4   2.033756 0.190472 -0.000128 -0.069354 -0.036541 -0.484430
  5   2.451511 0.204909 -0.003447 0.000000 -0.000005 0.627767
  6   7.247600 -0.397300 -0.109469 0.000001 0.000009 0.052298
  7   -2.022252 -0.104661 3.136172 -1.739624 -0.842684 -1.399180
  8   1.168026 -0.537438 -0.063437 1.455115 1.197446 0.991987
  9   6.790376 -0.619176 0.015206 -0.000269 -0.000285 -0.290777
 10   8.637599 0.544015 -0.090417 -1.570112 0.000292 -0.069354
 11   6.790465 -0.619039 0.017802 -0.002473 -0.010969 -0.218674
 12   -2.022474 -0.104699 -2.873818 1.739237 0.842881 -1.399136
 13   1.167898 -0.537463 0.063297 -1.463287 -1.092402 0.622328
 14   7.002743 -0.617765 -0.183752 0.000229 0.000250 -0.653361
 15   8.209042 0.615527 -0.255885 1.570090 -0.000063 -0.106931
 16   7.002735 -0.617911 -0.183641 0.014485 0.003759 -0.475973
 17   1.574674 0.609930 -0.000899 0.162770 0.024787 -0.278324
 18   -0.602177 0.511412 -0.000006 0.000000 0.000000 0.000000
 19   3.669866 0.262960 1.138845 -0.000002 -0.000014 -0.174510
 20   3.669860 0.262933 -1.098034 0.000007 -0.000003 -0.174546
 21   3.258742 1.326728 1.576875 0.000002 -0.000011 -0.000026
 22   -0.234341 -0.492372 0.489176 0.000131 -0.037229 0.576779
 23   3.270478 1.322846 -1.599832 0.000019 0.000002 -0.000024
 24   -0.132865 -0.367352 -0.539949 0.000115 -0.037254 0.576821
 25   4.300719 2.059840 1.559015 0.066281 -0.019062 -0.109132
 26   4.269486 2.091119 -1.555189 -0.091467 -0.018456 -0.118995
 27   3.160563 1.513793 1.514501 -0.000019 -0.000022 -0.000050
 28   3.162993 1.513399 -1.501142 -0.000002 -0.000009 -0.000024
 29   8.824059 0.150544 0.091743 0.014177 -0.011981 -1.283708
 30   2.111085 -0.561179 1.784320 -0.000008 -0.000682 0.000024
 31   2.121290 -0.561289 -1.853599 0.000000 0.000000 -0.000002
 32   -0.814395 -0.093824 3.127092 0.170644 -3.082110 -0.228258
 33   14.298673 -0.408176 0.471578 -0.000076 -0.000041 -0.986948
 34   15.835795 0.581398 0.242756 -0.238842 -0.221048 0.327501
 35   -0.815868 -0.091229 -3.114430 -0.193971 3.026013 -0.261624
 36   14.294526 -0.410349 -0.467541 0.000093 0.000048 -0.861515
 37   15.834409 0.579420 -0.284600 0.342205 0.256353 0.369555
 38   0.928741 -3.367809 -2.816000 0.057948 0.048528 0.635445
 39   -4.457742 -1.054854 -0.746180 0.000000 0.000000 0.000000
 40   1.329045 -3.535709 3.229477 0.057948 0.048529 0.635444
 41   -4.433840 -1.059130 0.959566 -0.000001 0.000000 0.000000
 42   -0.536371 2.232475 -2.622206 0.018780 0.021667 -0.233494
 43   -0.523439 2.218125 2.802969 -0.020378 -0.044342 -0.220028
time 4
  0   0.094986 3.910275 0.973057 0.000000 -0.173985 -1.571354
  1   -1.093036 0.000002 -0.326057 -1.570651 -1.570425 -0.000171
  2   2.262337 0.113614 0.064702 -0.069599 -0.001641 -0.024227
  3   2.380047 0.353302 0.047440 0.000000 -0.000040 0.129432
  4   2.033756 0.190472 -0.000128 -0.077063 -0.014202 -0.182855
  5   2.451511 0.204909 -0.003447 0.000000 -0.000005 0.542475
  6   7.247600 -0.397300 -0.109469 0.000001 0.000009 0.052298
  7   -2.022252 -0.104661 3.136172 -1.739624 -0.842684 -1.399180
  8   1.168026 -0.537438 -0.063437 0.143944 1.622954 -0.278219
  9   6.790376 -0.619176 0.015206 -0.000269 -0.000285 -0.290777
 10   8.637599 0.544015 -0.090417 -1.570112 0.000292 0.182838
 11   6.790465 -0.619039 0.017802 -0.002473 -0.010969 -0.218674
 12   -2.022474 -0.104699 -2.873818 1.739237 0.842881 -1.399136
 13   1.167898 -0.537463 0.063297 -1.045305 -1.316874 0.173160
 14   7.002743 -0.617765 -0.183752 0.000229 0.000250 -0.472097
 15   8.209042 0.615527 -0.255885 1.570090 -0.000063 -0.069646
 16   7.002735 -0.617911 -0.183641 0.014579 0.002800 -0.349029
 17   1.574674 0.609930 -0.000899 0.162364 -0.028984 -0.260842
 18   -0.602177 0.511412 -0.000006 0.000000 0.000000 0.000000
 19   3.665960 0.298118 1.142751 -0.000002 -0.000014 -0.174510
 20   3.665954 0.298091 -1.094128 0.000007 -0.000003 -0.174546
 21   2.997015 1.322821 1.557343 0.000002 -0.000011 -0.000026
 22   -0.230435 -0.679878 0.477457 0.000178 -0.051491 0.797518
 23   3.012658 1.318940 -1.588113 0.000019 0.000002 -0.000024
 24   -0.089895 -0.507981 -0.547762 0.000163 -0.051516 0.797556
 25   4.054618 2.087184 1.531671 0.091640 -0.026359 -0.150886
 26   4.011666 2.126276 -1.527844 -0.126474 -0.025516 -0.164536
 27   3.254316 1.474729 1.514501 -0.000019 -0.000022 -0.000050
 28   3.256746 1.474335 -1.501142 -0.000002 -0.000009 -0.000024
 29   8.824059 0.150544 0.091743 0.014711 -0.012622 -1.335479
 30   2.111085 -0.561179 1.784320 -0.000008 -0.000682 0.000024
 31   2.121290 -0.561289 -1.853599 0.000000 0.000000 -0.000002
 32   -0.814395 -0.093824 3.127092 0.168780 -3.072368 -0.034723
 33   14.298673 -0.408176 0.471578 -0.000076 -0.000041 -1.115176
 34   15.835795 0.581398 0.242756 -0.223844 -0.246770 0.489181
 35   -0.815868 -0.091229 -3.114430 -0.268167 3.057867 -0.218569
 36   14.294526 -0.410349 -0.467541 0.000093 0.000048 -0.776315
 37   15.834409 0.579420 -0.284600 0.434176 0.254075 0.344001
 38   0.936554 -3.383434 -2.819907 0.056306 0.044467 0.662693
 39   -4.457742 -1.054854 -0.746180 0.000000 0.000000 0.000000
 40   1.321232 -3.520084 3.233384 0.056306 0.044468 0.662692
 41   -4.433840 -1.059130 0.959566 -0.000001 0.000000 0.000000
 42   -0.544183 2.169973 -2.536265 0.031352 0.050399 -0.201584
 43   -0.515626 2.143904 2.752186 -0.046191 -0.079051 -0.172852
time 5
  0   0.114518 5.375164 1.949649 0.000000 -0.171496 -1.571354
  1   -1.093036 0.000002 -0.326057 -1.570651 -1.570425 -0.000171
  2   2.262337 0.113614 0.064702 -0.069548 0.002494 0.035461
  3   2.380047 0.353302 0.047440 0.000000 -0.000040 0.235480
  4   2.033756 0.190472 -0.000128 -0.074776 0.023598 0.304196
  5   2.451511 0.204909 -0.003447 0.000000 -0.000005 0.226641
  6   7.247600 -0.397300 -0.109469 0.000001 0.000009 0.052298
  7   -2.022252 -0.104661 3.136172 -1.508223 -1.181836 -1.691260
  8   1.168026 -0.537438 -0.063437 -1.550959 1.176264 -1.636926
  9   6.790376 -0.619176 0.015206 -0.000269 -0.000285 -0.248138
 10   8.637599 0.544015 -0.090417 -1.570112 0.000292 0.204107
 11   6.790465 -0.619039 0.017802 -0.002619 -0.010912 -0.188914
 12   -2.022474 -0.104699 -2.873818 0.298777 1.361771 -2.901888
 13   1.167898 -0.537463 0.063297 -0.061298 -1.113354 -0.119284
 14   7.002743 -0.617765 -0.183752 0.000229 0.000250 -0.472097
 15   8.209042 0.615527 -0.255885 1.570090 -0.000063 0.261530
 16   7.002735 -0.617911 -0.183641 0.014579 0.002800 -0.349085
 17   1.574674 0.609930 -0.000899 0.144328 -0.077951 -0.206472
 18   -0.602177 0.511412 -0.000006 0.000000 0.000000 0.000000
 19   3.665960 0.309837 1.146658 -0.000002 -0.000014 -0.174510
 20   3.665954 0.309810 -1.090221 0.000007 -0.000003 -0.174546
 21   2.887637 1.322821 1.549531 0.000002 -0.000011 -0.000026
 22   -0.226528 -0.758005 0.473551 0.000194 -0.057471 0.890061
 23   2.903280 1.315034 -1.584207 0.000019 0.000002 -0.000024
 24   -0.074270 -0.562670 -0.551668 0.000187 -0.057496 0.890104
 25   3.953053 2.094997 1.523858 0.102271 -0.029428 -0.168407
 26   3.902288 2.141901 -1.516125 -0.141155 -0.028485 -0.183628
 27   3.293379 1.455197 1.514501 -0.000019 -0.000022 -0.000050
 28   3.295809 1.454803 -1.501142 -0.000002 -0.000009 -0.000024
 29   8.824059 0.150544 0.091743 0.014800 -0.012717 -1.342882
 30   2.111085 -0.561179 1.784320 -0.000008 -0.000682 0.000024
 31   2.121290 -0.561289 -1.853599 0.000000 0.000000 -0.000002
 32   -0.814395 -0.093824 3.127092 0.200751 -3.062913 0.032844
 33   14.298673 -0.408176 0.471578 -0.000076 -0.000041 -0.970036
 34   15.835795 0.581398 0.242756 -0.286549 -0.232420 0.539679
 35   -0.815868 -0.091229 -3.114430 -0.329249 3.087004 -0.163737
 36   14.294526 -0.410349 -0.467541 0.000093 0.000048 -0.664851
 37   15.834409 0.579420 -0.284600 0.516059 0.232575 0.306583
 38   0.948273 -3.395154 -2.819907 0.053128 0.038827 0.666603
 39   -4.457742 -1.054854 -0.746180 0.000000 0.000000 0.000000
 40   1.309513 -3.508365 3.233384 0.053128 0.038828 0.666602
 41   -4.433840 -1.059130 0.959566 -0.000001 0.000000 0.000000
 42   -0.555902 2.084033 -2.422981 0.046057 0.087151 -0.160723
 43   -0.511720 2.046245 2.689684 -0.079212 -0.120806 -0.112544
time 6
  0   0.157488 7.406476 2.426226 0.000000 -0.165628 -1.571354
  1   -1.093036 0.000002 -0.326057 -1.570651 -1.570425 -0.000171
  2   2.262337 0.113614 0.064702 -0.069599 0.001691 0.023498
  3   2.380047 0.353302 0.047440 0.000000 -0.000040 0.336610
  4   2.033756 0.190472 -0.000128 -0.046817 0.062763 0.928296
  5   2.451511 0.204909 -0.003447 0.000000 -0.000005 -0.457158
  6   7.247600 -0.397300 -0.109469 0.000001 0.000009 0.052298
  7   -2.022252 -0.104661 3.136172 -0.299166 -1.361862 -2.901749
  8   1.168026 -0.537438 -0.063437 -1.278980 0.967208 -1.086118
  9   6.790376 -0.619176 0.015206 -0.000269 -0.000285 -0.207386
 10   8.637599 0.544015 -0.090417 -1.570112 0.000292 0.182838
 11   6.790465 -0.619039 0.017802 -0.002765 -0.010912 -0.160307
 12   -2.022474 -0.104699 -2.873818 0.234395 1.359449 -2.964886
 13   1.167898 -0.537463 0.063297 0.576430 -1.005187 -0.832868
 14   7.002743 -0.617765 -0.183752 0.000229 0.000250 -0.392479
 15   8.209042 0.615527 -0.255885 1.570090 -0.000063 0.289314
 16   7.002735 -0.617911 -0.183641 0.014626 0.002406 -0.293340
 17   1.574674 0.609930 -0.000899 0.130476 -0.097831 -0.045950
 18   -0.602177 0.511412 -0.000006 0.000000 0.000000 0.000000
 19   3.665960 0.309837 1.146658 -0.000002 -0.000014 -0.174510
 20   3.665954 0.309810 -1.090221 0.000007 -0.000003 -0.174546
 21   2.887637 1.322821 1.549531 0.000002 -0.000011 -0.000026
 22   -0.226528 -0.758005 0.473551 0.000194 -0.057471 0.890061
 23   2.903280 1.315034 -1.584207 0.000019 0.000002 -0.000024
 24   -0.074270 -0.562670 -0.551668 0.000187 -0.057496 0.890104
 25   3.953053 2.094997 1.523858 0.102271 -0.029428 -0.168407
 26   3.902288 2.141901 -1.516125 -0.141155 -0.028485 -0.183628
 27   3.293379 1.455197 1.514501 -0.000019 -0.000022 -0.000050
 28   3.295809 1.454803 -1.501142 -0.000002 -0.000009 -0.000024
 29   8.824059 0.150544 0.091743 0.014800 -0.012717 -1.342882
 30   2.111085 -0.561179 1.784320 -0.000008 -0.000682 0.000024
 31   2.121290 -0.561289 -1.853599 0.000000 0.000000 -0.000002
 32   -0.814395 -0.093824 3.127092 0.239712 -3.051166 0.075763
 33   14.298673 -0.408176 0.471578 -0.000076 -0.000041 -0.715327
 34   15.835795 0.581398 0.242756 -0.372878 -0.171899 0.559525
 35   -0.815868 -0.091229 -3.114430 -0.381882 3.108647 -0.132294
 36   14.294526 -0.410349 -0.467541 0.000093 0.000048 -0.592937
 37   15.834409 0.579420 -0.284600 0.580465 0.216885 0.277581
 38   0.975618 -3.402966 -2.819907 0.047592 0.031585 0.581315
 39   -4.457742 -1.054854 -0.746180 0.000000 0.000000 0.000000
 40   1.282169 -3.500552 3.233384 0.047592 0.031586 0.581314
 41   -4.433840 -1.059130 0.959566 -0.000001 0.000000 0.000000
 42   -0.567622 1.986373 -2.294071 0.062260 0.129913 -0.113171
 43   -0.507813 1.932960 2.623276 -0.117632 -0.167692 -0.042324
time 7
  0   0.192645 9.668263 1.965275 0.000000 -0.159138 -1.571354
  1   -1.093036 0.000002 -0.326057 -1.570651 -1.570425 -0.000171
  2   2.262337 0.113614 0.064702 -0.069599 -0.001006 -0.015174
  3   2.380047 0.353302 0.047440 0.000000 -0.000040 0.286759
  4   2.033756 0.190472 -0.000128 -0.061516 0.048562 0.666303
  5   2.451511 0.204909 -0.003447 0.000000 -0.000005 -0.188824
  6   7.247600 -0.397300 -0.109469 0.000001 0.000009 0.052298
  7   -2.022252 -0.104661 3.136172 -0.299166 -1.361862 -2.901749
  8   1.168026 -0.537438 -0.063437 -1.135397 1.107132 -0.930118
  9   6.790376 -0.619176 0.015206 -0.000269 -0.000285 -0.215310
 10   8.637599 0.544015 -0.090417 -1.570112 0.000292 0.182838
 11   6.790465 -0.619039 0.017802 -0.002765 -0.010912 -0.165901
 12   -2.022474 -0.104699 -2.873818 0.298777 1.361771 -2.901888
 13   1.167898 -0.537463 0.063297 0.832730 -0.855013 -1.184151
 14   7.002743 -0.617765 -0.183752 0.000229 0.000250 -0.294463
 15   8.209042 0.615527 -0.255885 1.570090 -0.000063 0.261530
 16   7.002735 -0.617911 -0.183641 0.014673 0.002067 -0.224680
 17   1.574674 0.609930 -0.000899 0.130110 -0.099961 0.006091
 18   -0.602177 0.511412 -0.000006 0.000000 0.000000 0.000000
 19   3.665960 0.309837 1.146658 -0.000002 -0.000014 -0.174510
 20   3.665954 0.309810 -1.090221 0.000007 -0.000003 -0.174546
 21   2.887637 1.322821 1.549531 0.000002 -0.000011 -0.000026
 22   -0.226528 -0.758005 0.473551 0.000194 -0.057471 0.890061
 23   2.903280 1.315034 -1.584207 0.000019 0.000002 -0.000024
 24   -0.074270 -0.562670 -0.551668 0.000187 -0.057496 0.890104
 25   3.953053 2.094997 1.523858 0.102271 -0.029428 -0.168407
 26   3.902288 2.141901 -1.516125 -0.141155 -0.028485 -0.183628
 27   3.293379 1.455197 1.514501 -0.000019 -0.000022 -0.000050
 28   3.295809 1.454803 -1.501142 -0.000002 -0.000009 -0.000024
 29   8.824059 0.150544 0.091743 0.014800 -0.012717 -1.342882
 30   2.111085 -0.561179 1.784320 -0.000008 -0.000682 0.000024
 31   2.121290 -0.561289 -1.853599 0.000000 0.000000 -0.000002
 32   -0.814395 -0.093824 3.127092 0.278953 -3.043143 0.085326
 33   14.298673 -0.408176 0.471578 -0.000076 -0.000041 -0.506272
 34   15.835795 0.581398 0.242756 -0.435698 -0.112891 0.525963
 35   -0.815868 -0.091229 -3.114430 -0.395700 3.120170 -0.162203
 36   14.294526 -0.410349 -0.467541 0.000093 0.000048 -0.558100
 37   15.834409 0.579420 -0.284600 0.608305 0.168945 0.292133
 38   1.026400 -3.406873 -2.823813 0.040098 0.022462 0.378054
 39   -4.457742 -1.054854 -0.746180 0.000000 0.000000 0.000000
 40   1.231386 -3.496645 3.237290 0.040098 0.022463 0.378053
 41   -4.433840 -1.059130 0.959566 -0.000001 0.000000 0.000000
 42   -0.583247 1.880901 -2.149535 0.079362 0.176692 -0.061228
 43   -0.507813 1.807956 2.545148 -0.159662 -0.217795 0.034420
time 8
  0   0.243428 11.808954 0.351944 0.000000 -0.156649 -1.571354
  1   -1.093036 0.000002 -0.326057 -1.570651 -1.570425 -0.000171
  2   2.262337 0.113614 0.064702 -0.069548 -0.004026 -0.058219
  3   2.380047 0.353302 0.047440 0.000000 -0.000040 0.207218
  4   2.033756 0.190472 -0.000128 -0.074739 0.023658 0.304957
  5   2.451511 0.204909 -0.003447 0.000000 -0.000005 0.154821
  6   7.247600 -0.397300 -0.109469 0.000001 0.000009 0.052298
  7   -2.022252 -0.104661 3.136172 0.801475 -0.929021 -3.885898
  8   1.168026 -0.537438 -0.063437 -0.871327 0.954428 -0.150876
  9   6.790376 -0.619176 0.015206 -0.000269 -0.000285 -0.271080
 10   8.637599 0.544015 -0.090417 -1.570112 0.000292 0.182838
 11   6.790465 -0.619039 0.017802 -0.002561 -0.010969 -0.205005
 12   -2.022474 -0.104699 -2.873818 -0.801663 0.929082 -3.885724
 13   1.167898 -0.537463 0.063297 0.626622 -0.685566 -0.507009
 14   7.002743 -0.617765 -0.183752 0.000229 0.000250 -0.182668
 15   8.209042 0.615527 -0.255885 1.570090 -0.000063 0.261530
 16   7.002735 -0.617911 -0.183641 0.014720 0.001447 -0.146472
 17   1.574674 0.609930 -0.000899 0.136569 -0.092293 0.027972
 18   -0.602177 0.511412 -0.000006 0.000000 0.000000 0.000000
 19   3.665960 0.309837 1.146658 -0.000002 -0.000014 -0.174510
 20   3.665954 0.309810 -1.090221 0.000007 -0.000003 -0.174546
 21   2.887637 1.322821 1.549531 0.000002 -0.000011 -0.000026
 22   -0.226528 -0.758005 0.473551 0.000194 -0.057471 0.890061
 23   2.903280 1.315034 -1.584207 0.000019 0.000002 -0.000024
 24   -0.074270 -0.562670 -0.551668 0.000187 -0.057496 0.890104
 25   3.953053 2.094997 1.523858 0.102271 -0.029428 -0.168407
 26   3.902288 2.141901 -1.516125 -0.141155 -0.028485 -0.183628
 27   3.293379 1.455197 1.514501 -0.000019 -0.000022 -0.000050
 28   3.295809 1.454803 -1.501142 -0.000002 -0.000009 -0.000024
 29   8.824059 0.150544 0.091743 0.014800 -0.012717 -1.342882
 30   2.111085 -0.561179 1.784320 -0.000008 -0.000682 0.000024
 31   2.121290 -0.561289 -1.853599 0.000000 0.000000 -0.000002
 32   -0.814395 -0.093824 3.127092 0.311763 -3.044671 0.052482
 33   14.298673 -0.408176 0.471578 -0.000076 -0.000041 -0.499523
 34   15.835795 0.581398 0.242756 -0.458287 -0.146666 0.438551
 35   -0.815868 -0.091229 -3.114430 -0.390772 3.124761 -0.226128
 36   14.294526 -0.410349 -0.467541 0.000093 0.000048 -0.677828
 37   15.834409 0.579420 -0.284600 0.579500 0.237899 0.270128
 38   1.084996 -3.410779 -2.823813 0.031868 0.011135 0.135386
 39   -4.457742 -1.054854 -0.746180 0.000000 0.000000 0.000000
 40   1.172790 -3.492739 3.237290 0.031868 0.011136 0.135385
 41   -4.433840 -1.059130 0.959566 -0.000001 0.000000 0.000000
 42   -0.598872 1.767617 -2.001093 0.096752 0.225464 -0.006984
 43   -0.507813 1.682953 2.463115 -0.203479 -0.269184 0.114510
time 9
  0   0.243428 11.808954 -3.648178 0.000000 -0.156649 -1.571354
  1   -1.093036 0.000002 -0.326057 -1.570651 -1.570425 -0.000171
  2   2.262337 0.113614 0.064702 -0.069357 -0.007010 -0.101264
  3   2.380047 0.353302 0.047440 0.000000 -0.000040 0.128167
  4   2.033756 0.190472 -0.000128 -0.076602 0.016683 0.213542
  5   2.451511 0.204909 -0.003447 0.000000 -0.000005 0.105736
  6   7.247600 -0.397300 -0.109469 0.000001 0.000009 0.052298
  7   -2.022252 -0.104661 3.136172 0.900208 -1.072091 -4.030623
  8   1.168026 -0.537438 -0.063437 -0.057034 1.204591 0.653291
  9   6.790376 -0.619176 0.015206 -0.000269 -0.000285 -0.329341
 10   8.637599 0.544015 -0.090417 -1.575220 0.000292 0.182838
 11   6.790465 -0.619039 0.017802 -0.002298 -0.010997 -0.245608
 12   -2.022474 -0.104699 -2.873818 -0.900152 1.072083 -4.030867
 13   1.167898 -0.537463 0.063297 0.209273 -1.074298 -0.056570
 14   7.002743 -0.617765 -0.183752 0.000229 0.000250 -0.255108
 15   8.209042 0.615527 -0.255885 1.570090 -0.000063 0.261530
 16   7.002735 -0.617911 -0.183641 0.014673 0.001842 -0.197194
 17   1.574674 0.609930 -0.000899 0.146643 -0.075608 0.115310
 18   -0.602177 0.511412 -0.000006 0.000000 0.000000 0.000000
 19   3.665960 0.309837 1.146658 -0.000002 -0.000014 -0.174510
 20   3.665954 0.309810 -1.090221 0.000007 -0.000003 -0.174546
 21   2.887637 1.322821 1.549531 0.000002 -0.000011 -0.000026
 22   -0.226528 -0.758005 0.473551 0.000194 -0.057471 0.890061
 23   2.903280 1.315034 -1.584207 0.000019 0.000002 -0.000024
 24   -0.074270 -0.562670 -0.551668 0.000187 -0.057496 0.890104
 25   3.953053 2.094997 1.523858 0.102271 -0.029428 -0.168407
 26   3.902288 2.141901 -1.516125 -0.141155 -0.028485 -0.183628
 27   3.293379 1.455197 1.514501 -0.000019 -0.000022 -0.000050
 28   3.295809 1.454803 -1.501142 -0.000002 -0.000009 -0.000024
 29   8.824059 0.150544 0.091743 0.014800 -0.012717 -1.342882
 30   2.111085 -0.561179 1.784320 -0.000008 -0.000682 0.000024
 31   2.121290 -0.561289 -1.853599 0.000000 0.000000 -0.000002
 32   -0.814395 -0.093824 3.127092 0.327888 -3.072082 -0.035975
 33   14.298673 -0.408176 0.471578 -0.000076 -0.000041 -0.809176
 34   15.835795 0.581398 0.242756 -0.371567 -0.324935 0.257246
 35   -0.815868 -0.091229 -3.114430 -0.407934 3.129446 -0.282768
 36   14.294526 -0.410349 -0.467541 0.000093 0.000048 -1.035082
 37   15.834409 0.579420 -0.284600 0.407144 0.503296 0.103268
 38   1.143591 -3.410779 -2.823813 0.024122 -0.002735 -0.067875
 39   -4.457742 -1.054854 -0.746180 0.000000 0.000000 0.000000
 40   1.114195 -3.492739 3.237290 0.024122 -0.002734 -0.067876
 41   -4.433840 -1.059130 0.959566 -0.000001 0.000000 0.000000
 42   -0.614498 1.662145 -1.856557 0.113806 0.274251 0.047176
 43   -0.507813 1.554042 2.377174 -0.247308 -0.319946 0.194600
time 10
  0   0.243428 11.808954 -9.812428 0.000000 -0.156649 -1.571354
  1   -1.093036 0.000002 -0.326057 -1.570651 -1.570425 -0.000171
  2   2.262337 0.113614 0.064702 -0.068924 -0.009623 -0.138291
  3   2.380047 0.353302 0.047440 0.000000 -0.000040 0.060992
  4   2.033756 0.190472 -0.000128 -0.077727 0.010247 0.130174
  5   2.451511 0.204909 -0.003447 0.000000 -0.000005 0.052144
  6   7.247600 -0.397300 -0.109469 0.000001 0.000009 0.052298
  7   -2.022252 -0.104661 3.136172 1.159121 -1.333064 -4.342708
  8   1.168026 -0.537438 -0.063437 1.038603 1.033472 1.571958
  9   6.790376 -0.619176 0.015206 -0.000269 -0.000285 -0.388281
 10   8.637599 0.544015 -0.090417 -1.580240 0.000292 0.182838
 11   6.790465 -0.619039 0.017802 -0.002123 -0.011054 -0.287019
 12   -2.022474 -0.104699 -2.873818 -1.158352 1.333037 -4.342026
 13   1.167898 -0.537463 0.063297 -1.045797 -1.165582 1.045587
 14   7.002743 -0.617765 -0.183752 0.000229 0.000250 -0.361127
 15   8.209042 0.615527 -0.255885 1.570090 -0.000063 0.261530
 16   7.002735 -0.617911 -0.183641 0.014626 0.002236 -0.271373
 17   1.574674 0.609930 -0.000899 0.155986 -0.052414 0.156411
 18   -0.602177 0.511412 -0.000006 0.000000 0.000000 0.000000
 19   3.665960 0.309837 1.146658 -0.000002 -0.000014 -0.174510
 20   3.665954 0.309810 -1.090221 0.000007 -0.000003 -0.174546
 21   2.887637 1.322821 1.549531 0.000002 -0.000011 -0.000026
 22   -0.226528 -0.758005 0.473551 0.000194 -0.057471 0.890061
 23   2.903280 1.315034 -1.584207 0.000019 0.000002 -0.000024
 24   -0.074270 -0.562670 -0.551668 0.000187 -0.057496 0.890104
 25   3.953053 2.094997 1.523858 0.102271 -0.029428 -0.168407
 26   3.902288 2.141901 -1.516125 -0.141155 -0.028485 -0.183628
 27   3.293379 1.455197 1.514501 -0.000019 -0.000022 -0.000050
 28   3.295809 1.454803 -1.501142 -0.000002 -0.000009 -0.000024
 29   8.824059 0.150544 0.091743 0.014800 -0.012717 -1.342882
 30   2.111085 -0.561179 1.784320 -0.000008 -0.000682 0.000024
 31   2.121290 -0.561289 -1.853599 0.000000 0.000000 -0.000002
 32   -0.814395 -0.093824 3.127092 0.329566 -3.117925 -0.171051
 33   14.298673 -0.408176 0.471578 -0.000076 -0.000041 -1.327407
 34   15.835795 0.581398 0.242756 -0.078721 -0.477873 -0.080492
 35   -0.815868 -0.091229 -3.114430 -0.429850 3.134598 -0.339025
 36   14.294526 -0.410349 -0.467541 0.000093 0.000048 -1.483253
 37   15.834409 0.579420 -0.284600 -0.042009 0.654181 -0.273954
 38   1.202187 -3.410779 -2.823813 0.018081 -0.019510 -0.153102
 39   -4.457742 -1.054854 -0.746180 0.000000 0.000000 0.000000
 40   1.055599 -3.492739 3.237290 0.018081 -0.019509 -0.153103
 41   -4.433840 -1.059130 0.959566 -0.000001 0.000000 0.000000
 42   -0.630123 1.552766 -1.712022 0.129913 0.321030 0.099161
 43   -0.503907 1.429039 2.291234 -0.289338 -0.368150 0.271385
time 11
  0   0.243428 11.808954 -16.410286 0.000000 -0.156649 -1.571354
  1   -1.093036 0.000002 -0.326057 -1.570651 -1.570425 -0.000219
  2   2.262337 0.113614 0.064702 -0.068771 -0.010534 -0.153163
  3   2.380047 0.353302 0.047440 0.000000 -0.000040 0.020344
  4   2.033756 0.190472 -0.000128 -0.076860 -0.015268 -0.198296
  5   2.451511 0.204909 -0.003447 0.000000 -0.000005 0.364758
  6   7.247600 -0.397300 -0.109469 0.000001 0.000009 0.052298
  7   -2.022252 -0.104661 3.136172 2.409492 -1.490489 -5.604474
  8   1.168026 -0.537438 -0.063437 1.352032 0.865724 1.676401
  9   6.790376 -0.619176 0.015206 -0.000269 -0.000285 -0.459674
 10   8.637599 0.544015 -0.090417 -1.570112 0.000292 0.182838
 11   6.790465 -0.619039 0.017802 -0.001831 -0.011140 -0.336965
 12   -2.022474 -0.104699 -2.873818 -2.407293 1.490434 -5.603415
 13   1.167898 -0.537463 0.063297 -1.520789 -1.005848 1.325439
 14   7.002743 -0.617765 -0.183752 0.000229 0.000250 -0.452873
 15   8.209042 0.615527 -0.255885 1.570090 -0.000063 0.261530
 16   7.002735 -0.617911 -0.183641 0.014626 0.002744 -0.335562
 17   1.574674 0.609930 -0.000899 0.162282 -0.025481 0.036436
 18   -0.602177 0.511412 -0.000006 0.000000 0.000000 0.000000
 19   3.665960 0.309837 1.146658 -0.000002 -0.000014 -0.174510
 20   3.665954 0.309810 -1.090221 0.000007 -0.000003 -0.174546
 21   2.887637 1.322821 1.549531 0.000002 -0.000011 -0.000026
 22   -0.226528 -0.758005 0.473551 0.000194 -0.057471 0.890061
 23   2.903280 1.315034 -1.584207 0.000019 0.000002 -0.000024
 24   -0.074270 -0.562670 -0.551668 0.000187 -0.057496 0.890104
 25   3.953053 2.094997 1.523858 0.102271 -0.029428 -0.168407
 26   3.902288 2.141901 -1.516125 -0.141155 -0.028485 -0.183628
 27   3.293379 1.455197 1.514501 -0.000019 -0.000022 -0.000050
 28   3.295809 1.454803 -1.501142 -0.000002 -0.000009 -0.000024
 29   8.824059 0.150544 0.091743 0.014800 -0.012717 -1.342882
 30   2.111085 -0.561179 1.784320 -0.000008 -0.000682 0.000024
 31   2.121290 -0.561289 -1.853599 0.000000 0.000000 -0.000002
 32   -0.814395 -0.093824 3.127092 0.329566 -3.155364 -0.327246
 33   14.298673 -0.408176 0.471578 -0.000076 -0.000041 -1.878192
 34   15.835795 0.581398 0.242756 0.278924 -0.398414 -0.466214
 35   -0.815868 -0.091229 -3.114430 -0.447629 3.140407 -0.406402
 36   14.294526 -0.410349 -0.467541 0.000093 0.000048 -1.927097
 37   15.834409 0.579420 -0.284600 -0.485055 0.481361 -0.640377
 38   1.256876 -3.395154 -2.823813 0.014545 -0.038393 0.002934
 39   -4.457742 -1.054854 -0.746180 0.000000 0.000000 0.000000
 40   1.000910 -3.508365 3.237290 0.014545 -0.038392 0.002933
 41   -4.433840 -1.059130 0.959566 -0.000001 0.000000 0.000000
 42   -0.641843 1.455107 -1.583111 0.144474 0.363792 0.146671
 43   -0.503907 1.315754 2.201388 -0.327757 -0.411898 0.341563
time 12
  0   0.243428 11.808954 -21.543255 0.000000 -0.156649 -1.571354
  1   -1.093036 0.000002 -0.326057 -1.570651 -1.570425 -0.000171
  2   2.262337 0.113614 0.064702 -0.068682 -0.012020 -0.173095
  3   2.380047 0.353302 0.047440 0.000000 -0.000040 0.026221
  4   2.033756 0.190472 -0.000128 -0.071364 -0.032286 -0.426108
  5   2.451511 0.204909 -0.003447 0.000000 -0.000005 0.628089
  6   7.247600 -0.397300 -0.109469 0.000001 0.000009 0.052298
  7   -2.022252 -0.104661 3.136172 -0.299166 -1.361862 -2.901749
  8   1.168026 -0.537438 -0.063437 0.970007 0.793322 1.272800
  9   6.790376 -0.619176 0.015206 -0.000269 -0.000285 -0.596119
 10   8.637599 0.544015 -0.090417 -1.477204 0.000292 0.182838
 11   6.790465 -0.619039 0.017802 -0.001276 -0.011225 -0.432533
 12   -2.022474 -0.104699 -2.873818 0.298777 1.361771 -2.901984
 13   1.167898 -0.537463 0.063297 -1.086007 -0.821042 0.868099
 14   7.002743 -0.617765 -0.183752 0.000229 0.000250 -0.455018
 15   8.209042 0.615527 -0.255885 1.570090 -0.000063 0.261530
 16   7.002735 -0.617911 -0.183641 0.014626 0.002744 -0.337163
 17   1.574674 0.609930 -0.000899 0.164029 -0.001057 -0.138870
 18   -0.602177 0.511412 -0.000006 0.000000 0.000000 0.000000
 19   3.665960 0.309837 1.146658 -0.000002 -0.000014 -0.174510
 20   3.665954 0.309810 -1.090221 0.000007 -0.000003 -0.174546
 21   2.887637 1.322821 1.549531 0.000002 -0.000011 -0.000026
 22   -0.226528 -0.758005 0.473551 0.000194 -0.057471 0.890061
 23   2.903280 1.315034 -1.584207 0.000019 0.000002 -0.000024
 24   -0.074270 -0.562670 -0.551668 0.000187 -0.057496 0.890104
 25   3.953053 2.094997 1.523858 0.102271 -0.029428 -0.168407
 26   3.902288 2.141901 -1.516125 -0.141155 -0.028485 -0.183628
 27   3.293379 1.455197 1.514501 -0.000019 -0.000022 -0.000050
 28   3.295809 1.454803 -1.501142 -0.000002 -0.000009 -0.000024
 29   8.824059 0.150544 0.091743 0.014800 -0.012717 -1.342882
 30   2.111085 -0.561179 1.784320 -0.000008 -0.000682 0.000024
 31   2.121290 -0.561289 -1.853599 0.000000 0.000000 -0.000002
 32   -0.814395 -0.093824 3.127092 0.351190 -3.160044 -0.477577
 33   14.298673 -0.408176 0.471578 -0.000076 -0.000041 -2.283916
 34   15.835795 0.581398 0.242756 0.466878 -0.181221 -0.703045
 35   -0.815868 -0.091229 -3.114430 -0.452910 3.143967 -0.495744
 36   14.294526 -0.410349 -0.467541 0.000093 0.000048 -2.272687
 37   15.834409 0.579420 -0.284600 -0.643048 0.199557 -0.793852
 38   1.292033 -3.359996 -2.819907 0.012419 -0.054288 0.292766
 39   -4.457742 -1.054854 -0.746180 0.000000 0.000000 0.000000
 40   0.965753 -3.543522 3.233384 0.012419 -0.054287 0.292765
 41   -4.433840 -1.059130 0.959566 -0.000001 0.000000 0.000000
 42   -0.653562 1.373073 -1.469827 0.156854 0.400543 0.187532
 43   -0.496094 1.218095 2.115448 -0.360767 -0.449259 0.401913
time 13
  0   0.243428 11.808954 -24.363653 0.000000 -0.156649 -1.571354
  1   -1.093036 0.000002 -0.326057 -1.570651 -1.570425 -0.000171
  2   2.262337 0.113614 0.064702 -0.067943 -0.015603 -0.225971
  3   2.380047 0.353302 0.047440 0.000000 -0.000040 0.120515
  4   2.033756 0.190472 -0.000128 -0.076602 -0.016647 -0.215042
  5   2.451511 0.204909 -0.003447 0.000000 -0.000005 0.484424
  6   7.247600 -0.397300 -0.109469 0.000001 0.000009 0.052298
  7   -2.022252 -0.104661 3.136172 -0.389848 -1.328913 -2.815439
  8   1.168026 -0.537438 -0.063437 0.841738 0.897724 1.111233
  9   6.790376 -0.619176 0.015206 -0.000269 -0.000285 -0.665398
 10   8.637599 0.544015 -0.090417 -1.384295 0.000292 0.182838
 11   6.790465 -0.619039 0.017802 -0.001013 -0.011310 -0.480922
 12   -2.022474 -0.104699 -2.873818 0.389315 1.328770 -2.815434
 13   1.167898 -0.537463 0.063297 -0.848265 -0.929515 0.585462
 14   7.002743 -0.617765 -0.183752 0.000229 0.000250 -0.345946
 15   8.209042 0.615527 -0.255885 1.570090 -0.000063 0.261530
 16   7.002735 -0.617911 -0.183641 0.014626 0.002180 -0.260776
 17   1.574674 0.609930 -0.000899 0.163664 0.016030 -0.333470
 18   -0.602177 0.511412 -0.000006 0.000000 0.000000 0.000000
 19   3.665960 0.309837 1.146658 -0.000002 -0.000014 -0.174510
 20   3.665954 0.309810 -1.090221 0.000007 -0.000003 -0.174546
 21   2.887637 1.322821 1.549531 0.000002 -0.000011 -0.000026
 22   -0.226528 -0.758005 0.473551 0.000194 -0.057471 0.890061
 23   2.903280 1.315034 -1.584207 0.000019 0.000002 -0.000024
 24   -0.074270 -0.562670 -0.551668 0.000187 -0.057496 0.890104
 25   3.953053 2.094997 1.523858 0.102271 -0.029428 -0.168407
 26   3.902288 2.141901 -1.516125 -0.141155 -0.028485 -0.183628
 27   3.293379 1.455197 1.514501 -0.000019 -0.000022 -0.000050
 28   3.295809 1.454803 -1.501142 -0.000002 -0.000009 -0.000024
 29   8.824059 0.150544 0.091743 0.014800 -0.012717 -1.342882
 30   2.111085 -0.561179 1.784320 -0.000008 -0.000682 0.000024
 31   2.121290 -0.561289 -1.853599 0.000000 0.000000 -0.000002
 32   -0.814395 -0.093824 3.127092 0.441230 -3.103217 -0.645497
 33   14.298673 -0.408176 0.471578 -0.000076 -0.000041 -2.437154
 34   15.835795 0.581398 0.242756 0.580925 0.003490 -0.821901
 35   -0.815868 -0.091229 -3.114430 -0.431786 3.139845 -0.648629
 36   14.294526 -0.410349 -0.467541 0.000093 0.000048 -2.449344
 37   15.834409 0.579420 -0.284600 -0.644801 0.046292 -0.864936
 38   1.303753 -3.344371 -2.819907 0.010209 -0.060964 0.448862
 39   -4.457742 -1.054854 -0.746180 0.000000 0.000000 0.000000
 40   0.954033 -3.559147 3.233384 0.010209 -0.060963 0.448861
 41   -4.433840 -1.059130 0.959566 -0.000001 0.000000 0.000000
 42   -0.661374 1.306665 -1.383887 0.166466 0.429276 0.219484
 43   -0.488281 1.139967 2.033414 -0.386592 -0.478335 0.449089
time 14
  0   0.243428 11.808954 -25.684006 0.000000 -0.156649 -1.571354
  1   -1.093036 0.000002 -0.326057 -1.570651 -1.570425 -0.000219
  2   2.262337 0.113614 0.064702 -0.066542 -0.020265 -0.295037
  3   2.380047 0.353302 0.047440 0.000000 -0.000040 0.252926
  4   2.033756 0.190472 -0.000128 -0.076657 0.016287 0.208395
  5   2.451511 0.204909 -0.003447 0.000000 -0.000005 0.130675
  6   7.247600 -0.397300 -0.109469 0.000001 0.000009 0.052298
  7   -2.022252 -0.104661 3.136172 -0.512642 -1.327183 -2.695226
  8   1.168026 -0.537438 -0.063437 0.677968 1.041673 0.906206
  9   6.790376 -0.619176 0.015206 -0.000269 -0.000285 -0.725772
 10   8.637599 0.544015 -0.090417 -1.291211 0.000292 0.182838
 11   6.790465 -0.619039 0.017802 -0.000809 -0.011367 -0.523313
 12   -2.022474 -0.104699 -2.873818 0.511852 1.327203 -2.695087
 13   1.167898 -0.537463 0.063297 -0.474078 -1.042616 0.157542
 14   7.002743 -0.617765 -0.183752 0.000229 0.000250 -0.216165
 15   8.209042 0.615527 -0.255885 1.570090 -0.000063 0.261530
 16   7.002735 -0.617911 -0.183641 0.014673 0.001616 -0.169874
 17   1.574674 0.609930 -0.000899 0.163745 0.018397 -0.452263
 18   -0.602177 0.511412 -0.000006 0.000000 0.000000 0.000000
 19   3.665960 0.309837 1.146658 -0.000002 -0.000014 -0.174510
 20   3.665954 0.309810 -1.090221 0.000007 -0.000003 -0.174546
 21   2.887637 1.322821 1.549531 0.000002 -0.000011 -0.000026
 22   -0.226528 -0.758005 0.473551 0.000194 -0.057471 0.890061
 23   2.903280 1.315034 -1.584207 0.000019 0.000002 -0.000024
 24   -0.074270 -0.562670 -0.551668 0.000187 -0.057496 0.890104
 25   3.953053 2.094997 1.523858 0.102271 -0.029428 -0.168407
 26   3.902288 2.141901 -1.516125 -0.141155 -0.028485 -0.183628
 27   3.293379 1.455197 1.514501 -0.000019 -0.000022 -0.000050
 28   3.295809 1.454803 -1.501142 -0.000002 -0.000009 -0.000024
 29   8.824059 0.150544 0.091743 0.014800 -0.012717 -1.342882
 30   2.111085 -0.561179 1.784320 -0.000008 -0.000682 0.000024
 31   2.121290 -0.561289 -1.853599 0.000000 0.000000 -0.000002
 32   -0.814395 -0.093824 3.127092 0.582349 -3.027480 -0.831120
 33   14.298673 -0.408176 0.471578 -0.000076 -0.000041 -2.437948
 34   15.835795 0.581398 0.242756 0.699388 0.131146 -0.883997
 35   -0.815868 -0.091229 -3.114430 -0.396228 3.125136 -0.834161
 36   14.294526 -0.410349 -0.467541 0.000093 0.000048 -2.506968
 37   15.834409 0.579420 -0.284600 -0.599289 0.008948 -0.911430
 38   1.268595 -3.375622 -2.819907 0.004041 -0.044527 0.376404
 39   -4.457742 -1.054854 -0.746180 0.000000 0.000000 0.000000
 40   0.989191 -3.527896 3.233384 0.004041 -0.044526 0.376403
 41   -4.433840 -1.059130 0.959566 -0.000001 0.000000 0.000000
 42   -0.665281 1.263695 -1.329197 0.172674 0.447982 0.240270
 43   -0.476562 1.093091 1.951380 -0.403396 -0.497181 0.479786
time 15
  0   0.243428 11.808954 -26.258244 0.000000 -0.156649 -1.571354
  1   -1.093036 0.000002 -0.326057 -1.570651 -1.570425 -0.000219
  2   2.262337 0.113614 0.064702 -0.064504 -0.026281 -0.387904
  3   2.380047 0.353302 0.047440 0.000000 -0.000040 0.397724
  4   2.033756 0.190472 -0.000128 -0.047813 0.062008 0.912493
  5   2.451511 0.204909 -0.003447 0.000000 -0.000005 -0.573828
  6   7.247600 -0.397300 -0.109469 0.000001 0.000009 0.052298
  7   -2.022252 -0.104661 3.136172 -0.544850 -1.343153 -2.662074
  8   1.168026 -0.537438 -0.063437 0.546092 1.108742 0.773549
  9   6.790376 -0.619176 0.015206 -0.000269 -0.000285 -0.781542
 10   8.637599 0.544015 -0.090417 -1.197950 0.000292 0.182838
 11   6.790465 -0.619039 0.017802 -0.000546 -0.011395 -0.562243
 12   -2.022474 -0.104699 -2.873818 0.543852 1.343311 -2.661961
 13   1.167898 -0.537463 0.063297 -0.155143 -1.070077 -0.182785
 14   7.002743 -0.617765 -0.183752 0.000229 0.000250 -0.092572
 15   8.209042 0.615527 -0.255885 1.570090 -0.000063 0.261530
 16   7.002735 -0.617911 -0.183641 0.014720 0.000996 -0.083442
 17   1.574674 0.609930 -0.000899 0.160414 -0.034593 -0.236817
 18   -0.602177 0.511412 -0.000006 0.000000 0.000000 0.000000
 19   3.665960 0.309837 1.146658 -0.000002 -0.000014 -0.174510
 20   3.665954 0.309810 -1.090221 0.000007 -0.000003 -0.174546
 21   2.887637 1.322821 1.549531 0.000002 -0.000011 -0.000026
 22   -0.226528 -0.758005 0.473551 0.000194 -0.057471 0.890061
 23   2.903280 1.315034 -1.584207 0.000019 0.000002 -0.000024
 24   -0.074270 -0.562670 -0.551668 0.000187 -0.057496 0.890104
 25   3.953053 2.094997 1.523858 0.102271 -0.029428 -0.168407
 26   3.902288 2.141901 -1.516125 -0.141155 -0.028485 -0.183628
 27   3.293379 1.455197 1.514501 -0.000019 -0.000022 -0.000050
 28   3.295809 1.454803 -1.501142 -0.000002 -0.000009 -0.000024
 29   8.824059 0.150544 0.091743 0.014800 -0.012717 -1.342882
 30   2.111085 -0.561179 1.784320 -0.000008 -0.000682 0.000024
 31   2.121290 -0.561289 -1.853599 0.000000 0.000000 -0.000002
 32   -0.814395 -0.093824 3.127092 0.684879 -2.989945 -0.956463
 33   14.298673 -0.408176 0.471578 -0.000076 -0.000041 -2.419448
 34   15.835795 0.581398 0.242756 0.752892 0.207261 -0.904108
 35   -0.815868 -0.091229 -3.114430 -0.374049 3.111738 -0.955493
 36   14.294526 -0.410349 -0.467541 0.000093 0.000048 -2.528983
 37   15.834409 0.579420 -0.284600 -0.533759 -0.001290 -0.936730
 38   1.233438 -3.488906 -2.823813 -0.019070 -0.028078 0.211877
 39   -4.457742 -1.054854 -0.746180 0.000000 0.000000 0.000000
 40   1.024348 -3.414612 3.237290 -0.019070 -0.028077 0.211876
 41   -4.433840 -1.059130 0.959566 -0.000001 0.000000 0.000000
 42   -0.669187 1.248070 -1.305759 0.174891 0.454666 0.247672
 43   -0.457030 1.073559 1.881065 -0.409406 -0.503881 0.490744
time 16
  0   0.243428 11.808954 -26.656693 0.000000 -0.156649 -1.571354
  1   -1.093036 0.000002 -0.326057 -1.570651 -1.570425 -0.000171
  2   2.262337 0.113614 0.064702 -0.061549 -0.032705 -0.487926
  3   2.380047 0.353302 0.047440 0.000000 -0.000040 0.547215
  4   2.033756 0.190472 -0.000128 -0.060151 0.050144 0.693343
  5   2.451511 0.204909 -0.003447 0.000000 -0.000005 0.132433
  6   7.247600 -0.397300 -0.109469 0.000001 0.000009 0.052298
  7   -2.022252 -0.104661 3.136172 -0.299166 -1.361862 -2.901749
  8   1.168026 -0.537438 -0.063437 -0.898411 1.190855 -0.625645
  9   6.790376 -0.619176 0.015206 -0.000269 -0.000285 -0.836558
 10   8.637599 0.544015 -0.090417 -1.104954 0.000292 0.182838
 11   6.790465 -0.619039 0.017802 -0.000371 -0.011452 -0.600828
 12   -2.022474 -0.104699 -2.873818 0.298777 1.361771 -2.901888
 13   1.167898 -0.537463 0.063297 0.719202 -0.735861 -0.987050
 14   7.002743 -0.617765 -0.183752 0.000229 0.000250 -0.002724
 15   8.209042 0.615527 -0.255885 1.570090 -0.000063 0.261530
 16   7.002735 -0.617911 -0.183641 0.014767 0.000545 -0.020577
 17   1.574674 0.609930 -0.000899 0.116746 -0.127296 -0.246131
 18   -0.602177 0.511412 -0.000006 0.000000 0.000000 0.000000
 19   3.665960 0.309837 1.146658 -0.000002 -0.000014 -0.174510
 20   3.665954 0.309810 -1.090221 0.000007 -0.000003 -0.174546
 21   2.887637 1.322821 1.549531 0.000002 -0.000011 -0.000026
 22   -0.226528 -0.758005 0.473551 0.000194 -0.057471 0.890061
 23   2.903280 1.315034 -1.584207 0.000019 0.000002 -0.000024
 24   -0.074270 -0.562670 -0.551668 0.000187 -0.057496 0.890104
 25   3.953053 2.094997 1.523858 0.102271 -0.029428 -0.168407
 26   3.902288 2.141901 -1.516125 -0.141155 -0.028485 -0.183628
 27   3.293379 1.455197 1.514501 -0.000019 -0.000022 -0.000050
 28   3.295809 1.454803 -1.501142 -0.000002 -0.000009 -0.000024
 29   8.824059 0.150544 0.091743 0.026743 0.027899 -1.038751
 30   2.142336 -0.483052 1.780414 -0.019860 0.012802 0.022239
 31   2.121290 -0.561289 -1.849693 -0.019842 0.013495 0.022196
 32   -0.814395 -0.093824 3.127092 0.715079 -2.983355 -0.996991
 33   14.298673 -0.408176 0.471578 -0.000076 -0.000041 -2.430247
 34   15.835795 0.581398 0.242756 0.712200 0.259680 -0.890304
 35   -0.815868 -0.091229 -3.114430 -0.368592 3.107335 -0.992194
 36   14.294526 -0.410349 -0.467541 0.000093 0.000048 -2.549144
 37   15.834409 0.579420 -0.284600 -0.456683 -0.015265 -0.948747
 38   1.241251 -3.695944 -2.804281 -0.069378 -0.047419 0.024378
 39   -4.457742 -1.054854 -0.746180 0.000000 0.000000 0.000000
 40   1.016535 -3.207574 3.217758 -0.069378 -0.047418 0.024377
 41   -4.433840 -1.059130 0.959566 -0.000001 0.000000 0.000000
 42   -0.446524 1.388699 -1.547954 0.144414 0.377545 0.139101
 43   -0.304682 1.397788 1.814657 -0.379095 -0.481317 0.356912
time 17
  0   0.243428 11.808954 -26.711382 0.000000 -0.156649 -1.571354
  1   -1.093036 0.000002 -0.326057 -1.570651 -1.570425 -0.000171
  2   2.262337 0.113614 0.064702 -0.058734 -0.037355 -0.565125
  3   2.380047 0.353302 0.047440 0.000000 -0.000040 0.654344
  4   2.033756 0.190472 -0.000128 -0.071032 0.033054 0.434721
  5   2.451511 0.204909 -0.003447 0.000000 -0.000005 0.794017
  6   7.247600 -0.397300 -0.109469 0.000001 0.000009 0.052298
  7   -2.022252 -0.104661 3.136172 0.429642 -1.300748 -3.609878
  8   1.168026 -0.537438 -0.063437 -1.390607 0.839560 -0.953650
  9   6.790376 -0.619176 0.015206 -0.000269 -0.000285 -0.890970
 10   8.637599 0.544015 -0.090417 -1.012045 0.006838 0.182042
 11   6.790465 -0.619039 0.017802 -0.000138 -0.011452 -0.638836
 12   -2.022474 -0.104699 -2.873818 -0.429165 1.300936 -3.609989
 13   1.167898 -0.537463 0.063297 0.950828 -0.289663 -1.042560
 14   7.002743 -0.617765 -0.183752 0.000229 0.000250 0.026978
 15   8.209042 0.615527 -0.255885 1.570090 -0.034564 0.261530
 16   7.002735 -0.617911 -0.183641 0.014767 0.000376 0.000286
 17   1.574674 0.609930 -0.000899 0.031522 -0.178251 -0.071675
 18   -0.602177 0.511412 -0.000006 0.000000 0.000000 0.000000
 19   3.665960 0.309837 1.146658 -0.000002 -0.000014 -0.174510
 20   3.665954 0.309810 -1.090221 0.000007 -0.000003 -0.174546
 21   2.887637 1.322821 1.549531 0.000002 -0.000011 -0.000026
 22   -0.226528 -0.758005 0.473551 0.000194 -0.057471 0.890061
 23   2.903280 1.315034 -1.584207 0.000019 0.000002 -0.000024
 24   -0.074270 -0.562670 -0.551668 0.000187 -0.057496 0.890104
 25   3.953053 2.094997 1.523858 0.102271 -0.029428 -0.168407
 26   3.902288 2.141901 -1.516125 -0.141155 -0.028485 -0.183628
 27   3.293379 1.455197 1.514501 -0.000019 -0.000022 -0.000050
 28   3.295809 1.454803 -1.501142 -0.000002 -0.000009 -0.000024
 29   8.824059 0.150544 0.091743 0.055173 0.124892 -0.313590
 30   2.224370 -0.295546 1.768695 -0.067199 0.044973 0.075247
 31   2.125196 -0.561289 -1.841880 -0.067202 0.045664 0.075182
 32   -0.814395 -0.093824 3.127092 0.718714 -2.982687 -1.002569
 33   14.298673 -0.408176 0.471578 -0.000076 -0.000041 -2.431676
 34   15.835795 0.581398 0.242756 0.640478 0.288599 -0.860006
 35   -0.815868 -0.091229 -3.114430 -0.367536 3.107054 -0.996795
 36   14.294526 -0.410349 -0.467541 0.000093 0.000048 -2.552311
 37   15.834409 0.579420 -0.284600 -0.372121 -0.016980 -0.950369
 38   1.264689 -3.953764 -2.761311 -0.136145 -0.093549 -0.156156
 39   -4.457742 -1.054854 -0.746180 0.000000 0.000000 0.000000
 40   0.993097 -2.949754 3.174788 -0.136145 -0.093548 -0.156158
 41   -4.433840 -1.059130 0.959566 -0.000001 0.000000 0.000000
 42   0.088648 1.720740 -2.118284 0.071764 0.193649 -0.119779
 43   0.023453 2.163436 1.759968 -0.306842 -0.427480 0.037682
time 18
  0   0.243428 11.808954 -26.512157 0.000000 -0.156649 -1.571354
  1   -1.093036 0.000002 -0.326057 -1.570651 -1.570425 -0.000171
  2   2.262337 0.113614 0.064702 -0.057791 -0.038997 -0.592954
  3   2.380047 0.353302 0.047440 0.000000 -0.000040 0.641101
  4   2.033756 0.190472 -0.000128 -0.062032 0.047819 0.655284
  5   2.451511 0.204909 -0.003447 0.000000 -0.000005 0.430163
  6   7.247600 -0.397300 -0.109469 0.000001 0.000009 0.052298
  7   -2.022252 -0.104661 3.136172 0.889856 -1.092443 -4.025364
  8   1.168026 -0.537438 -0.063437 -1.197412 0.954227 -0.477616
  9   6.790376 -0.619176 0.015206 -0.000269 -0.000285 -0.941911
 10   8.637599 0.544015 -0.090417 -0.918696 0.013595 0.181753
 11   6.790465 -0.619039 0.017802 0.000067 -0.011538 -0.674594
 12   -2.022474 -0.104699 -2.873818 -0.889709 1.092632 -4.025410
 13   1.167898 -0.537463 0.063297 0.862676 -0.363402 -0.714280
 14   7.002743 -0.617765 -0.183752 0.000229 0.000250 0.014603
 15   8.209042 0.615527 -0.255885 1.570090 -0.069594 0.261530
 16   7.002735 -0.617911 -0.183641 0.014767 0.000488 -0.008490
 17   1.574674 0.609930 -0.000899 -0.026120 -0.162915 0.595508
 18   -0.602177 0.511412 -0.000006 0.000000 0.000000 0.000000
 19   3.665960 0.309837 1.146658 -0.000002 -0.000014 -0.174510
 20   3.665954 0.309810 -1.090221 0.000007 -0.000003 -0.174546
 21   2.887637 1.322821 1.549531 0.000002 -0.000011 -0.000026
 22   -0.226528 -0.758005 0.473551 0.000194 -0.057471 0.890061
 23   2.903280 1.315034 -1.584207 0.000019 0.000002 -0.000024
 24   -0.074270 -0.562670 -0.551668 0.000187 -0.057496 0.890104
 25   3.953053 2.094997 1.523858 0.102271 -0.029428 -0.168407
 26   3.902288 2.141901 -1.516125 -0.141155 -0.028485 -0.183628
 27   3.293379 1.455197 1.514501 -0.000019 -0.000022 -0.000050
 28   3.295809 1.454803 -1.501142 -0.000002 -0.000009 -0.000024
 29   8.824059 0.150544 0.091743 0.089040 0.240781 0.551808
 30   2.322029 -0.068976 1.753069 -0.123704 0.083392 0.138525
 31   2.133009 -0.565195 -1.826254 -0.123709 0.084076 0.138411
 32   -0.814395 -0.093824 3.127092 0.707342 -2.984788 -0.987030
 33   14.298673 -0.408176 0.471578 -0.000076 -0.000041 -2.427626
 34   15.835795 0.581398 0.242756 0.549756 0.306462 -0.822783
 35   -0.815868 -0.091229 -3.114430 -0.369736 3.108553 -0.982992
 36   14.294526 -0.410349 -0.467541 0.000093 0.000048 -2.544354
 37   15.834409 0.579420 -0.284600 -0.283540 -0.011835 -0.945907
 38   1.292033 -4.203772 -2.706622 -0.203481 -0.148596 -0.309870
 39   -4.457742 -1.054854 -0.746180 0.000000 0.000000 0.000000
 40   0.965753 -2.699746 3.120099 -0.203481 -0.148595 -0.309871
 41   -4.433840 -1.059130 0.959566 -0.000001 0.000000 0.000000
 42   0.725387 2.123096 -2.797992 -0.014933 -0.025833 -0.428805
 43   0.406277 3.085339 1.716998 -0.220608 -0.363239 -0.343278
time 19
  0   0.243428 11.808954 -26.234804 0.000000 -0.156649 -1.571354
  1   -1.093036 0.000002 -0.326057 -1.570651 -1.570425 -0.000123
  2   2.262337 0.113614 0.064702 -0.058734 -0.037355 -0.565125
  3   2.380047 0.353302 0.047440 0.000000 -0.000040 0.593250
  4   2.033756 0.190472 -0.000128 -0.048772 0.061373 0.897015
  5   2.451511 0.204909 -0.003447 0.000000 -0.000005 -0.052218
  6   7.247600 -0.397300 -0.109469 0.000001 0.000009 0.052298
  7   -2.022252 -0.104661 3.136172 1.065468 -0.888606 -4.145953
  8   1.168026 -0.537438 -0.063437 -0.849685 1.092742 0.138351
  9   6.790376 -0.619176 0.015206 -0.000269 -0.000285 -0.991493
 10   8.637599 0.544015 -0.090417 -0.825788 0.000292 0.182838
 11   6.790465 -0.619039 0.017802 0.000242 -0.011538 -0.709199
 12   -2.022474 -0.104699 -2.873818 -1.065324 0.888477 -4.145756
 13   1.167898 -0.537463 0.063297 0.759692 -0.502693 -0.382671
 14   7.002743 -0.617765 -0.183752 0.000229 0.000250 0.001154
 15   8.209042 0.615527 -0.255885 1.570090 -0.000063 0.261530
 16   7.002735 -0.617911 -0.183641 0.014767 0.000545 -0.017928
 17   1.574674 0.609930 -0.000899 0.195917 -0.028061 0.724909
 18   -0.602177 0.511412 -0.000006 0.000000 0.000000 0.000000
 19   3.665960 0.309837 1.146658 -0.000002 -0.000014 -0.174510
 20   3.665954 0.309810 -1.090221 0.000007 -0.000003 -0.174546
 21   2.887637 1.322821 1.549531 0.000002 -0.000011 -0.000026
 22   -0.226528 -0.758005 0.473551 0.000194 -0.057471 0.890061
 23   2.903280 1.315034 -1.584207 0.000019 0.000002 -0.000024
 24   -0.074270 -0.562670 -0.551668 0.000187 -0.057496 0.890104
 25   3.953053 2.094997 1.523858 0.102271 -0.029428 -0.168407
 26   3.902288 2.141901 -1.516125 -0.141155 -0.028485 -0.183628
 27   3.293379 1.455197 1.514501 -0.000019 -0.000022 -0.000050
 28   3.295809 1.454803 -1.501142 -0.000002 -0.000009 -0.000024
 29   8.824059 0.150544 0.091743 0.117560 0.337988 1.276915
 30   2.404063 0.122436 1.741350 -0.171056 0.115591 0.191533
 31   2.136915 -0.565195 -1.818442 -0.171053 0.116246 0.191378
 32   -0.814395 -0.093824 3.127092 0.692615 -2.987940 -0.966367
 33   14.298673 -0.408176 0.471578 -0.000076 -0.000041 -2.422307
 34   15.835795 0.581398 0.242756 0.452984 0.324301 -0.787016
 35   -0.815868 -0.091229 -3.114430 -0.372641 3.110895 -0.964641
 36   14.294526 -0.410349 -0.467541 0.000093 0.000048 -2.533926
 37   15.834409 0.579420 -0.284600 -0.193796 -0.004873 -0.939823
 38   1.315472 -4.395184 -2.659745 -0.255557 -0.194725 -0.416724
 39   -4.457742 -1.054854 -0.746180 0.000000 0.000000 0.000000
 40   0.942314 -2.508334 3.073222 -0.255557 -0.194725 -0.416726
 41   -4.433840 -1.059130 0.959566 -0.000001 0.000000 0.000000
 42   1.260559 2.459044 -3.372229 -0.087583 -0.209729 -0.687769
 43   0.726599 3.858800 1.689653 -0.148355 -0.309417 -0.662467
time 20
  0   0.243428 11.808954 -25.969172 0.000000 -0.156649 -1.571354
  1   -1.093036 0.000002 -0.326057 -1.570651 -1.570425 -0.000171
  2   2.262337 0.113614 0.064702 -0.064988 -0.024867 -0.364701
  3   2.380047 0.353302 0.047440 0.000000 -0.000040 0.593250
  4   2.033756 0.190472 -0.000128 -0.066827 0.040892 0.548029
  5   2.451511 0.204909 -0.003447 0.000000 -0.000005 0.471026
  6   7.247600 -0.397300 -0.109469 0.000001 0.000009 0.052298
  7   -2.022252 -0.104661 3.136172 1.065468 -0.888606 -4.145953
  8   1.168026 -0.537438 -0.063437 -1.263919 0.899032 -0.286886
  9   6.790376 -0.619176 0.015206 -0.000269 -0.000285 -1.035189
 10   8.637599 0.544015 -0.090417 -0.732880 -0.121906 0.182838
 11   6.790465 -0.619039 0.017802 0.000417 -0.011566 -0.739767
 12   -2.022474 -0.104699 -2.873818 -1.065324 0.888477 -4.145756
 13   1.167898 -0.537463 0.063297 0.932410 -0.195531 -0.577532
 14   7.002743 -0.617765 -0.183752 0.000229 0.000250 -0.002724
 15   8.209042 0.615527 -0.255885 1.570090 0.628062 0.261530
 16   7.002735 -0.617911 -0.183641 0.014767 0.000545 -0.020577
 17   1.574674 0.609930 -0.000899 0.413404 0.142057 0.540695
 18   -0.602177 0.511412 -0.000006 0.000000 0.000000 0.000000
 19   3.665960 0.309837 1.146658 -0.000002 -0.000014 -0.174510
 20   3.665954 0.309810 -1.090221 0.000007 -0.000003 -0.174546
 21   2.887637 1.322821 1.549531 0.000002 -0.000011 -0.000026
 22   -0.226528 -0.758005 0.473551 0.000194 -0.057471 0.890061
 23   2.903280 1.315034 -1.584207 0.000019 0.000002 -0.000024
 24   -0.074270 -0.562670 -0.551668 0.000187 -0.057496 0.890104
 25   3.953053 2.094997 1.523858 0.102271 -0.029428 -0.168407
 26   3.902288 2.141901 -1.516125 -0.141155 -0.028485 -0.183628
 27   3.293379 1.455197 1.514501 -0.000019 -0.000022 -0.000050
 28   3.295809 1.454803 -1.501142 -0.000002 -0.000009 -0.000024
 29   8.824059 0.150544 0.091743 0.129502 0.378770 1.581046
 30   2.435314 0.200563 1.733537 -0.190908 0.129076 0.213748
 31   2.140822 -0.565195 -1.810629 -0.190911 0.129740 0.213595
 32   -0.814395 -0.093824 3.127092 0.684879 -2.989945 -0.956463
 33   14.298673 -0.408176 0.471578 -0.000076 -0.000041 -2.419448
 34   15.835795 0.581398 0.242756 0.365620 0.351121 -0.758614
 35   -0.815868 -0.091229 -3.114430 -0.374049 3.111738 -0.955493
 36   14.294526 -0.410349 -0.467541 0.000093 0.000048 -2.528983
 37   15.834409 0.579420 -0.284600 -0.106081 -0.001290 -0.936730
 38   1.327191 -4.473311 -2.640213 -0.276437 -0.214066 -0.456741
 39   -4.457742 -1.054854 -0.746180 0.000000 0.000000 0.000000
 40   0.930595 -2.430207 3.053690 -0.276437 -0.214066 -0.456743
 41   -4.433840 -1.059130 0.959566 -0.000001 0.000000 0.000000
 42   1.487129 2.599673 -3.610517 -0.118060 -0.286850 -0.796340
 43   0.859416 4.179122 1.681841 -0.118057 -0.286853 -0.796340
end
