version 1
nodes
  0 "Bip01" -1
  1 "Bip01 Pelvis" 0
  2 "Bip01 Spine" 1
  3 "Bip01 Spine1" 2
  4 "Bip01 Spine2" 3
  5 "Bip01 Spine3" 4
  6 "Bip01 Neck" 5
  7 "Bip01 L Arm" 6
  8 "Bip01 L Arm1" 7
  9 "Bip01 L Arm2" 8
 10 "Bip01 L Hand" 9
 11 "Bip06 L elbow2-smooth" 8
 12 "Bip01 R Arm" 6
 13 "Bip01 R Arm1" 12
 14 "Bip01 R Arm2" 13
 15 "Bip01 R Hand" 14
 16 "Bip06 R elbow2-smooth" 13
 17 "Bip01 Head" 6
 18 "Bip06 Head_helper" 17
 19 "Bip06 Head_eyes_l" 18
 20 "Bip06 Head_eyes_r" 18
 21 "Bip06 Head_blink_l" 18
 22 "Bip06 Head_blink_smooth_l1" 21
 23 "Bip06 Head_blink_r" 18
 24 "Bip06 Head_blink_smooth_r1" 23
 25 "Bip06 Head_L_eyebrow" 18
 26 "Bip06 Head_R_eyebrow" 18
 27 "Bip06 Head_blink_l_lid" 18
 28 "Bip06 Head_blink_r_lid" 18
 29 "Bip06 bunny" 18
 30 "Bip06 bunnyL" 29
 31 "Bip06 bunnyR" 29
 32 "Bip01 L Leg" 1
 33 "Bip01 L Leg1" 32
 34 "Bip01 L Foot" 33
 35 "Bip01 R Leg" 1
 36 "Bip01 R Leg1" 35
 37 "Bip01 R Foot" 36
 38 "Bip03 HairR1" 17
 39 "Bip03 HairR2" 38
 40 "Bip03 HairL1" 17
 41 "Bip03 HairL2" 40
 42 "Bip03 swingR" 17
 43 "Bip03 swingL" 17
end
skeleton
time 0
  0   0.243428 0.429701 1.851990 0.000000 0.000000 -1.571354
  1   -1.093036 0.000002 -0.326057 -1.570966 -1.570425 0.000264
  2   2.262337 0.113614 0.064702 -0.069357 -0.007166 -0.103522
  3   2.380047 0.353302 0.047440 0.000000 -0.000076 -0.008632
  4   2.033756 0.190472 -0.000128 -0.078243 0.004854 0.060544
  5   2.451511 0.204909 -0.003447 0.000000 -0.000005 -0.017472
  6   7.247600 -0.397300 -0.109469 0.000001 -0.000027 0.052298
  7   -2.022252 -0.104661 3.136172 -0.299166 -1.361978 -2.901655
  8   1.168026 -0.537438 -0.063437 0.555520 1.136113 0.768931
  9   6.790376 -0.619176 0.015206 -0.000269 -0.000285 -0.286702
 10   8.637599 0.544015 -0.090417 -1.570024 0.000292 -0.069354
 11   6.790465 -0.619039 0.017802 -0.002444 -0.010969 -0.215790
 12   -2.022474 -0.104699 -2.873818 0.298873 1.361712 -2.901984
 13   1.167898 -0.537463 0.063297 -0.658605 -1.227116 0.844551
 14   7.002743 -0.617765 -0.183752 0.000229 0.000364 -1.289478
 15   8.209042 0.615527 -0.255885 1.570090 -0.000063 -0.069646
 16   7.002735 -0.617911 -0.183641 0.013967 0.007142 -0.921323
 17   1.574674 0.609930 -0.000899 0.156961 -0.048935 0.292465
 18   -0.602177 0.511412 -0.000006 0.000000 0.000000 0.000000
 19   3.677679 0.177020 1.119313 -0.000002 -0.000014 -0.174510
 20   3.673767 0.176993 -1.117566 0.000007 -0.000003 -0.174546
 21   3.942357 1.334540 1.627658 0.000002 -0.000011 -0.000026
 22   -0.246060 -0.011889 0.516521 -0.000011 0.000031 0.000025
 23   3.942374 1.334565 -1.631083 0.000019 0.000002 -0.000024
 24   -0.246150 -0.011872 -0.516511 -0.000005 -0.000006 0.000048
 25   4.941364 1.997338 1.629330 0.000018 -0.000001 -0.000024
 26   4.941382 1.997366 -1.629410 -0.000001 0.000005 -0.000024
 27   2.914462 1.623171 1.514501 -0.000019 -0.000022 -0.000050
 28   2.916892 1.618870 -1.501142 -0.000002 -0.000009 -0.000024
 29   8.824059 0.150544 0.091743 0.000006 -0.000231 -0.174534
 30   2.111085 -0.561179 1.784320 -0.000008 -0.000682 0.000024
 31   2.121290 -0.561289 -1.853599 0.000000 0.000000 -0.000002
 32   -0.814395 -0.093824 3.127092 -0.055388 -3.106560 -0.210100
 33   14.298673 -0.408176 0.471578 -0.000064 -0.000093 -0.234095
 34   15.835795 0.581398 0.242756 -0.095467 -0.022353 0.023458
 35   -0.815868 -0.091229 -3.114430 0.257807 3.090471 0.081065
 36   14.294526 -0.410349 -0.467541 0.000009 0.000707 -0.126924
 37   15.834409 0.579420 -0.284600 -0.017992 0.068816 0.191997
 38   1.139685 -3.453749 -2.823813 0.000000 0.000000 0.000001
 39   -4.457742 -1.054854 -0.746180 0.000000 0.000000 0.000000
 40   1.118101 -3.449769 3.237290 0.000000 0.000001 0.000000
 41   -4.433840 -1.059130 0.959566 -0.000001 0.000000 0.000000
 42   -0.657468 1.697302 -2.688614 0.000000 0.000002 0.000000
 43   -0.664068 1.698578 2.869377 0.000000 0.000002 0.000000
time 1
  0   0.255147 0.273446 -0.624648 0.000000 0.000000 -1.571354
  1   -1.093036 0.000002 -0.326057 -1.571018 -1.570425 0.000264
  2   2.262337 0.113614 0.064702 -0.067255 -0.017916 -0.260125
  3   2.380047 0.353302 0.047440 0.000000 -0.000076 -0.165550
  4   2.033756 0.190472 -0.000128 -0.077819 -0.009384 -0.121815
  5   2.451511 0.204909 -0.003447 0.000000 -0.000005 -0.252768
  6   7.247600 -0.397300 -0.109469 0.000037 -0.000003 -0.758766
  7   -2.022252 -0.104661 3.136172 -0.299454 -1.361862 -2.091156
  8   1.168026 -0.537438 -0.063437 0.958554 0.361021 1.083082
  9   6.790376 -0.619176 0.015206 -0.000269 -0.000285 -0.286702
 10   8.637599 0.544015 -0.090417 -1.570024 0.000292 -0.069354
 11   6.790465 -0.619039 0.017802 -0.002473 -0.010969 -0.215790
 12   -2.022474 -0.104699 -2.873818 0.298394 1.361800 -2.092110
 13   1.167898 -0.537463 0.063297 -0.951460 -0.395542 1.063142
 14   7.002743 -0.617765 -0.183752 0.000229 0.000364 -0.687601
 15   8.209042 0.615527 -0.255885 1.570090 -0.000063 -0.069646
 16   7.002735 -0.617911 -0.183641 0.014485 0.003984 -0.499927
 17   1.574674 0.609930 -0.000899 0.068163 0.145110 0.258830
 18   -0.602177 0.511412 -0.000006 0.000000 0.000000 0.000000
 19   3.673773 0.192646 1.119313 -0.000002 -0.000014 -0.174510
 20   3.673767 0.192619 -1.117566 0.000007 -0.000003 -0.174546
 21   3.829072 1.334540 1.619845 0.000002 -0.000011 -0.000026
 22   -0.246060 -0.086110 0.512615 0.000005 -0.005949 0.092568
 23   3.832995 1.334565 -1.627177 0.000019 0.000002 -0.000024
 24   -0.230525 -0.066561 -0.520417 0.000007 -0.005986 0.092596
 25   4.839798 2.005151 1.621517 0.010636 -0.003057 -0.017533
 26   4.835910 2.009085 -1.617691 -0.014670 -0.002951 -0.019115
 27   2.953525 1.603639 1.514501 -0.000019 -0.000022 -0.000050
 28   2.955955 1.603245 -1.501142 -0.000002 -0.000009 -0.000024
 29   8.824059 0.150544 0.091743 0.000808 -0.000231 -0.224534
 30   2.111085 -0.561179 1.784320 -0.000008 -0.000682 0.000024
 31   2.121290 -0.561289 -1.853599 0.000000 0.000000 -0.000002
 32   -0.814395 -0.093824 3.127092 -0.012978 -3.069981 -0.825485
 33   14.298673 -0.408176 0.471578 -0.000028 -0.000041 -1.441899
 34   15.835795 0.581398 0.242756 -0.040928 -0.094369 -0.160009
 35   -0.815868 -0.091229 -3.114430 0.241701 3.033321 -0.062179
 36   14.294526 -0.410349 -0.467541 -0.000315 0.000563 -0.641678
 37   15.834409 0.579420 -0.284600 -0.013303 0.088934 0.556138
 38   1.163123 -3.488906 -2.823813 -0.000863 0.001000 0.087183
 39   -4.457742 -1.054854 -0.746180 0.000000 0.000000 0.000000
 40   1.141539 -3.477114 3.237290 -0.000863 0.001001 0.087182
 41   -4.433840 -1.059130 0.959566 -0.000001 0.000000 0.000000
 42   -0.657468 1.626987 -2.692520 0.006651 -0.005702 0.062190
 43   -0.664068 1.573574 2.861564 0.006647 -0.005710 0.062190
time 2
  0   0.243428 0.421888 -0.773090 0.000000 0.000000 -1.571354
  1   -1.093036 0.000002 -0.326057 -1.571123 -1.570425 0.000071
  2   2.262337 0.113614 0.064702 -0.067994 -0.014764 -0.213628
  3   2.380047 0.353302 0.047440 0.000000 -0.000076 -0.073134
  4   2.033756 0.190472 -0.000128 -0.077653 -0.010606 -0.139141
  5   2.451511 0.204909 -0.003447 0.000000 -0.000005 -0.252768
  6   7.247600 -0.397300 -0.109469 0.000037 -0.000003 -0.738715
  7   -2.022252 -0.104661 3.136172 -0.299454 -1.361862 -2.111067
  8   1.168026 -0.537438 -0.063437 0.892615 0.462404 1.028425
  9   6.790376 -0.619176 0.015206 -0.000269 -0.000285 -0.286702
 10   8.637599 0.544015 -0.090417 -1.570024 0.000292 -0.069354
 11   6.790465 -0.619039 0.017802 -0.002473 -0.010969 -0.215790
 12   -2.022474 -0.104699 -2.873818 0.298394 1.361800 -2.111928
 13   1.167898 -0.537463 0.063297 -0.901549 -0.506507 1.021615
 14   7.002743 -0.617765 -0.183752 0.000229 0.000364 -0.687601
 15   8.209042 0.615527 -0.255885 1.570090 -0.000063 -0.069646
 16   7.002735 -0.617911 -0.183641 0.014485 0.003984 -0.499927
 17   1.574674 0.609930 -0.000899 0.059348 0.151429 0.117454
 18   -0.602177 0.511412 -0.000006 0.000000 0.000000 0.000000
 19   3.669866 0.223897 1.127126 -0.000002 -0.000014 -0.174510
 20   3.669860 0.223870 -1.109753 0.000007 -0.000003 -0.174546
 21   3.571252 1.330634 1.600313 0.000002 -0.000011 -0.000026
 22   -0.242154 -0.273616 0.500896 0.000068 -0.020211 0.313307
 23   3.579082 1.330659 -1.615458 0.000019 0.000002 -0.000024
 24   -0.187554 -0.203284 -0.528230 0.000055 -0.020236 0.313358
 25   4.593697 2.032495 1.594173 0.036008 -0.010353 -0.059288
 26   4.578090 2.048149 -1.590346 -0.049677 -0.010024 -0.064645
 27   3.047278 1.564575 1.514501 -0.000019 -0.000022 -0.000050
 28   3.049708 1.564181 -1.501142 -0.000002 -0.000009 -0.000024
 29   8.824059 0.150544 0.091743 0.002858 -0.000207 -0.343740
 30   2.111085 -0.561179 1.784320 -0.000008 -0.000682 0.000024
 31   2.121290 -0.561289 -1.853599 0.000000 0.000000 -0.000002
 32   -0.814395 -0.093824 3.127092 -0.017452 -3.071986 -0.787632
 33   14.298673 -0.408176 0.471578 -0.000028 -0.000041 -1.367265
 34   15.835795 0.581398 0.242756 -0.056592 -0.085120 -0.038462
 35   -0.815868 -0.091229 -3.114430 0.236684 3.024701 -0.119476
 36   14.294526 -0.410349 -0.467541 -0.000351 0.000539 -0.703396
 37   15.834409 0.579420 -0.284600 -0.014347 0.083866 0.559687
 38   1.221719 -3.578753 -2.823813 -0.003010 0.003386 0.295271
 39   -4.457742 -1.054854 -0.746180 0.000000 0.000000 0.000000
 40   1.200135 -3.551335 3.237290 -0.003010 0.003387 0.295270
 41   -4.433840 -1.059130 0.959566 -0.000001 0.000000 0.000000
 42   -0.649655 1.455107 -2.708146 0.022579 -0.019884 0.210534
 43   -0.660162 1.272784 2.842032 0.022577 -0.019895 0.210534
time 3
  0   0.243428 0.566424 -0.726214 0.000000 0.000000 -1.571354
  1   -1.093036 0.000002 -0.326057 -1.570966 -1.570425 0.000264
  2   2.262337 0.113614 0.064702 -0.068771 -0.010462 -0.152151
  3   2.380047 0.353302 0.047440 0.000000 -0.000076 0.035750
  4   2.033756 0.190472 -0.000128 -0.077561 -0.010966 -0.141715
  5   2.451511 0.204909 -0.003447 0.000000 -0.000005 -0.252768
  6   7.247600 -0.397300 -0.109469 0.000037 -0.000015 -0.649357
  7   -2.022252 -0.104661 3.136172 -0.299454 -1.361862 -2.200381
  8   1.168026 -0.537438 -0.063437 0.785608 0.596895 0.935622
  9   6.790376 -0.619176 0.015206 -0.000269 -0.000285 -0.286702
 10   8.637599 0.544015 -0.090417 -1.570024 0.000292 -0.069354
 11   6.790465 -0.619039 0.017802 -0.002473 -0.010969 -0.215790
 12   -2.022474 -0.104699 -2.873818 0.298394 1.361771 -2.201255
 13   1.167898 -0.537463 0.063297 -0.815788 -0.655663 0.946128
 14   7.002743 -0.617765 -0.183752 0.000229 0.000364 -0.687601
 15   8.209042 0.615527 -0.255885 1.570090 -0.000063 -0.069646
 16   7.002735 -0.617911 -0.183641 0.014485 0.003984 -0.499927
 17   1.574674 0.609930 -0.000899 0.067919 0.149796 -0.005885
 18   -0.602177 0.511412 -0.000006 0.000000 0.000000 0.000000
 19   3.669866 0.262960 1.138845 -0.000002 -0.000014 -0.174510
 20   3.669860 0.262933 -1.098034 0.000007 -0.000003 -0.174546
 21   3.258742 1.326728 1.576875 0.000002 -0.000011 -0.000026
 22   -0.234341 -0.492372 0.489176 0.000131 -0.037229 0.576779
 23   3.270478 1.322846 -1.599832 0.000019 0.000002 -0.000024
 24   -0.132865 -0.367352 -0.539949 0.000115 -0.037254 0.576821
 25   4.300719 2.059840 1.559015 0.066281 -0.019062 -0.109132
 26   4.269486 2.091119 -1.555189 -0.091467 -0.018456 -0.118995
 27   3.160563 1.513793 1.514501 -0.000019 -0.000022 -0.000050
 28   3.162993 1.513399 -1.501142 -0.000002 -0.000009 -0.000024
 29   8.824059 0.150544 0.091743 0.005264 -0.000112 -0.486068
 30   2.111085 -0.561179 1.784320 -0.000008 -0.000682 0.000024
 31   2.121290 -0.561289 -1.853599 0.000000 0.000000 -0.000002
 32   -0.814395 -0.093824 3.127092 -0.030594 -3.080200 -0.628819
 33   14.298673 -0.408176 0.471578 -0.000028 -0.000067 -1.054278
 34   15.835795 0.581398 0.242756 -0.083206 -0.056982 0.137286
 35   -0.815868 -0.091229 -3.114430 0.232635 3.019174 -0.173049
 36   14.294526 -0.410349 -0.467541 -0.000363 0.000527 -0.735839
 37   15.834409 0.579420 -0.284600 -0.015332 0.076648 0.539964
 38   1.295940 -3.688131 -2.819907 -0.005746 0.006230 0.543559
 39   -4.457742 -1.054854 -0.746180 0.000000 0.000000 0.000000
 40   1.274356 -3.641181 3.237290 -0.005746 0.006231 0.543558
 41   -4.433840 -1.059130 0.959566 -0.000001 0.000000 0.000000
 42   -0.622311 1.251976 -2.727678 0.041730 -0.038145 0.387610
 43   -0.652349 0.917304 2.814688 0.041730 -0.038144 0.387610
time 4
  0   0.243428 0.695334 -0.655899 0.000000 0.000000 -1.571354
  1   -1.093036 0.000002 -0.326057 -1.571070 -1.570425 0.000264
  2   2.262337 0.113614 0.064702 -0.069408 -0.006447 -0.093204
  3   2.380047 0.353302 0.047440 0.000000 -0.000076 0.139227
  4   2.033756 0.190472 -0.000128 -0.077561 -0.011122 -0.143781
  5   2.451511 0.204909 -0.003447 0.000000 -0.000005 -0.252768
  6   7.247600 -0.397300 -0.109469 0.000025 -0.000015 -0.559492
  7   -2.022252 -0.104661 3.136172 -0.299454 -1.361862 -2.290071
  8   1.168026 -0.537438 -0.063437 0.657908 0.715989 0.820678
  9   6.790376 -0.619176 0.015206 -0.000269 -0.000285 -0.286702
 10   8.637599 0.544015 -0.090417 -1.570024 0.000292 -0.069354
 11   6.790465 -0.619039 0.017802 -0.002473 -0.010969 -0.215790
 12   -2.022474 -0.104699 -2.873818 0.298490 1.361742 -2.290964
 13   1.167898 -0.537463 0.063297 -0.707813 -0.791699 0.847638
 14   7.002743 -0.617765 -0.183752 0.000229 0.000364 -0.687601
 15   8.209042 0.615527 -0.255885 1.570090 -0.000063 -0.069646
 16   7.002735 -0.617911 -0.183641 0.014485 0.003984 -0.499927
 17   1.574674 0.609930 -0.000899 0.076815 0.146175 -0.120870
 18   -0.602177 0.511412 -0.000006 0.000000 0.000000 0.000000
 19   3.665960 0.298118 1.142751 -0.000002 -0.000014 -0.174510
 20   3.665954 0.298091 -1.094128 0.000007 -0.000003 -0.174546
 21   2.997015 1.322821 1.557343 0.000002 -0.000011 -0.000026
 22   -0.230435 -0.679878 0.477457 0.000178 -0.051491 0.797518
 23   3.012658 1.318940 -1.588113 0.000019 0.000002 -0.000024
 24   -0.089895 -0.507981 -0.547762 0.000163 -0.051516 0.797556
 25   4.054618 2.087184 1.531671 0.091640 -0.026359 -0.150886
 26   4.011666 2.126276 -1.527844 -0.126474 -0.025516 -0.164536
 27   3.254316 1.474729 1.514501 -0.000019 -0.000022 -0.000050
 28   3.256746 1.474335 -1.501142 -0.000002 -0.000009 -0.000024
 29   8.824059 0.150544 0.091743 0.007314 0.000078 -0.605328
 30   2.111085 -0.561179 1.784320 -0.000008 -0.000682 0.000024
 31   2.121290 -0.561289 -1.853599 0.000000 0.000000 -0.000002
 32   -0.814395 -0.093824 3.127092 -0.041500 -3.089942 -0.491807
 33   14.298673 -0.408176 0.471578 -0.000040 -0.000080 -0.772573
 34   15.835795 0.581398 0.242756 -0.095766 -0.025623 0.279738
 35   -0.815868 -0.091229 -3.114430 0.228762 3.014958 -0.220870
 36   14.294526 -0.410349 -0.467541 -0.000387 0.000515 -0.756308
 37   15.834409 0.579420 -0.284600 -0.015864 0.069379 0.513041
 38   1.358442 -3.777977 -2.819907 -0.008356 0.008628 0.751585
 39   -4.457742 -1.054854 -0.746180 0.000000 0.000000 0.000000
 40   1.332951 -3.715402 3.241196 -0.008356 0.008629 0.751585
 41   -4.433840 -1.059130 0.959566 -0.000001 0.000000 0.000000
 42   -0.567622 1.080096 -2.747210 0.058065 -0.056022 0.535954
 43   -0.632817 0.616514 2.787343 0.058072 -0.056032 0.535954
time 5
  0   0.243428 0.843776 -0.573865 0.000000 0.000000 -1.571354
  1   -1.093036 0.000002 -0.326057 -1.571070 -1.570425 0.000264
  2   2.262337 0.113614 0.064702 -0.069548 -0.002684 -0.040039
  3   2.380047 0.353302 0.047440 0.000000 -0.000076 0.232215
  4   2.033756 0.190472 -0.000128 -0.077561 -0.011182 -0.145810
  5   2.451511 0.204909 -0.003447 0.000000 -0.000005 -0.252768
  6   7.247600 -0.397300 -0.109469 0.000025 -0.000015 -0.477831
  7   -2.022252 -0.104661 3.136172 -0.299358 -1.361891 -2.371778
  8   1.168026 -0.537438 -0.063437 0.514262 0.811233 0.688274
  9   6.790376 -0.619176 0.015206 -0.000269 -0.000285 -0.286702
 10   8.637599 0.544015 -0.090417 -1.570024 0.000292 -0.069354
 11   6.790465 -0.619039 0.017802 -0.002473 -0.010969 -0.215790
 12   -2.022474 -0.104699 -2.873818 0.298490 1.361742 -2.372631
 13   1.167898 -0.537463 0.063297 -0.578046 -0.905512 0.725842
 14   7.002743 -0.617765 -0.183752 0.000229 0.000364 -0.687601
 15   8.209042 0.615527 -0.255885 1.570090 -0.000063 -0.069646
 16   7.002735 -0.617911 -0.183641 0.014485 0.003984 -0.499927
 17   1.574674 0.609930 -0.000899 0.084168 0.141631 -0.224842
 18   -0.602177 0.511412 -0.000006 0.000000 0.000000 0.000000
 19   3.665960 0.309837 1.146658 -0.000002 -0.000014 -0.174510
 20   3.665954 0.309810 -1.090221 0.000007 -0.000003 -0.174546
 21   2.887637 1.322821 1.549531 0.000002 -0.000011 -0.000026
 22   -0.226528 -0.758005 0.473551 0.000194 -0.057471 0.890061
 23   2.903280 1.315034 -1.584207 0.000019 0.000002 -0.000024
 24   -0.074270 -0.562670 -0.551668 0.000187 -0.057496 0.890104
 25   3.953053 2.094997 1.523858 0.102271 -0.029428 -0.168407
 26   3.902288 2.141901 -1.516125 -0.141155 -0.028485 -0.183628
 27   3.293379 1.455197 1.514501 -0.000019 -0.000022 -0.000050
 28   3.295809 1.454803 -1.501142 -0.000002 -0.000009 -0.000024
 29   8.824059 0.150544 0.091743 0.008116 0.000386 -0.655328
 30   2.111085 -0.561179 1.784320 -0.000008 -0.000682 0.000024
 31   2.121290 -0.561289 -1.853599 0.000000 0.000000 -0.000002
 32   -0.814395 -0.093824 3.127092 -0.042339 -3.093189 -0.509396
 33   14.298673 -0.408176 0.471578 -0.000040 -0.000080 -0.739464
 34   15.835795 0.581398 0.242756 -0.096364 -0.021377 0.229284
 35   -0.815868 -0.091229 -3.114430 0.225682 3.012428 -0.260912
 36   14.294526 -0.410349 -0.467541 -0.000387 0.000515 -0.766505
 37   15.834409 0.579420 -0.284600 -0.015923 0.062545 0.483786
 38   1.381880 -3.817041 -2.819907 -0.010167 0.009628 0.838828
 39   -4.457742 -1.054854 -0.746180 0.000000 0.000000 0.000000
 40   1.360296 -3.742747 3.241196 -0.010167 0.009629 0.838828
 41   -4.433840 -1.059130 0.959566 -0.000001 0.000000 0.000000
 42   -0.481681 1.009781 -2.766741 0.065544 -0.069131 0.598186
 43   -0.601566 0.491510 2.767811 0.065544 -0.069134 0.598186
time 6
  0   0.243428 0.980499 -0.507457 0.000000 0.000000 -1.571354
  1   -1.093036 0.000002 -0.326057 -1.571018 -1.570425 0.000264
  2   2.262337 0.113614 0.064702 -0.069599 0.000288 0.003710
  3   2.380047 0.353302 0.047440 0.000000 -0.000076 0.310144
  4   2.033756 0.190472 -0.000128 -0.077561 -0.011170 -0.145013
  5   2.451511 0.204909 -0.003447 0.000000 -0.000005 -0.252768
  6   7.247600 -0.397300 -0.109469 0.000025 -0.000015 -0.410330
  7   -2.022252 -0.104661 3.136172 -0.299262 -1.361862 -2.439492
  8   1.168026 -0.537438 -0.063437 0.366375 0.879912 0.549290
  9   6.790376 -0.619176 0.015206 -0.000269 -0.000285 -0.286702
 10   8.637599 0.544015 -0.090417 -1.570024 0.000292 -0.069354
 11   6.790465 -0.619039 0.017802 -0.002473 -0.010969 -0.215790
 12   -2.022474 -0.104699 -2.873818 0.298777 1.361712 -2.440320
 13   1.167898 -0.537463 0.063297 -0.431970 -0.991964 0.586491
 14   7.002743 -0.617765 -0.183752 0.000229 0.000364 -0.687601
 15   8.209042 0.615527 -0.255885 1.570090 -0.000063 -0.069646
 16   7.002735 -0.617911 -0.183641 0.014485 0.003984 -0.499927
 17   1.574674 0.609930 -0.000899 0.090789 0.136235 -0.306415
 18   -0.602177 0.511412 -0.000006 0.000000 0.000000 0.000000
 19   3.665960 0.309837 1.146658 -0.000002 -0.000014 -0.174510
 20   3.665954 0.309810 -1.090221 0.000007 -0.000003 -0.174546
 21   2.887637 1.322821 1.549531 0.000002 -0.000011 -0.000026
 22   -0.226528 -0.758005 0.473551 0.000194 -0.057471 0.890061
 23   2.903280 1.315034 -1.584207 0.000019 0.000002 -0.000024
 24   -0.074270 -0.562670 -0.551668 0.000187 -0.057496 0.890104
 25   3.953053 2.094997 1.523858 0.102271 -0.029428 -0.168407
 26   3.902288 2.141901 -1.516125 -0.141155 -0.028485 -0.183628
 27   3.293379 1.455197 1.514501 -0.000019 -0.000022 -0.000050
 28   3.295809 1.454803 -1.501142 -0.000002 -0.000009 -0.000024
 29   8.824059 0.150544 0.091743 0.008027 0.002119 -0.553450
 30   2.111085 -0.561179 1.784320 -0.000008 -0.000682 0.000024
 31   2.121290 -0.561289 -1.853599 0.000000 0.000000 -0.000002
 32   -0.814395 -0.093824 3.127092 -0.042898 -3.095959 -0.520895
 33   14.298673 -0.408176 0.471578 -0.000040 -0.000080 -0.704132
 34   15.835795 0.581398 0.242756 -0.096985 -0.017936 0.182139
 35   -0.815868 -0.091229 -3.114430 0.222954 3.011023 -0.292464
 36   14.294526 -0.410349 -0.467541 -0.000387 0.000515 -0.769285
 37   15.834409 0.579420 -0.284600 -0.015549 0.056786 0.455393
 38   1.385786 -3.817041 -2.819907 -0.011114 0.009592 0.813107
 39   -4.457742 -1.054854 -0.746180 0.000000 0.000000 0.000000
 40   1.360296 -3.742747 3.241196 -0.011114 0.009593 0.813107
 41   -4.433840 -1.059130 0.959566 -0.000001 0.000000 0.000000
 42   -0.325427 1.181661 -2.778461 0.066275 -0.076660 0.498523
 43   -0.539064 0.698547 2.756092 0.066381 -0.075897 0.498523
time 7
  0   0.243428 1.152379 -0.495738 0.000000 0.000000 -1.571354
  1   -1.093036 0.000002 -0.326057 -1.571018 -1.570425 0.000264
  2   2.262337 0.113614 0.064702 -0.069599 0.001894 0.026714
  3   2.380047 0.353302 0.047440 0.000000 -0.000076 0.366198
  4   2.033756 0.190472 -0.000128 -0.077985 -0.008030 -0.104453
  5   2.451511 0.204909 -0.003447 0.000000 -0.000005 -0.252768
  6   7.247600 -0.397300 -0.109469 0.000013 -0.000015 -0.374948
  7   -2.022252 -0.104661 3.136172 -0.299262 -1.361891 -2.474899
  8   1.168026 -0.537438 -0.063437 0.197669 0.934554 0.389874
  9   6.790376 -0.619176 0.015206 -0.000269 -0.000285 -0.286702
 10   8.637599 0.544015 -0.090417 -1.570024 0.000292 -0.069354
 11   6.790465 -0.619039 0.017802 -0.002473 -0.010969 -0.215848
 12   -2.022474 -0.104699 -2.873818 0.298777 1.361712 -2.475553
 13   1.167898 -0.537463 0.063297 -0.244420 -1.059245 0.404342
 14   7.002743 -0.617765 -0.183752 0.000229 0.000364 -0.687601
 15   8.209042 0.615527 -0.255885 1.570090 -0.000063 -0.069646
 16   7.002735 -0.617911 -0.183641 0.014485 0.003984 -0.499927
 17   1.574674 0.609930 -0.000899 0.109515 0.120330 -0.273667
 18   -0.602177 0.511412 -0.000006 0.000000 0.000000 0.000000
 19   3.665960 0.309837 1.146658 -0.000002 -0.000014 -0.174510
 20   3.665954 0.309810 -1.090221 0.000007 -0.000003 -0.174546
 21   2.887637 1.322821 1.549531 0.000002 -0.000011 -0.000026
 22   -0.226528 -0.758005 0.473551 0.000194 -0.057471 0.890061
 23   2.903280 1.315034 -1.584207 0.000019 0.000002 -0.000024
 24   -0.074270 -0.562670 -0.551668 0.000187 -0.057496 0.890104
 25   3.953053 2.094997 1.523858 0.102271 -0.029428 -0.168407
 26   3.902288 2.141901 -1.516125 -0.141155 -0.028485 -0.183628
 27   3.293379 1.455197 1.514501 -0.000019 -0.000022 -0.000050
 28   3.295809 1.454803 -1.501142 -0.000002 -0.000009 -0.000024
 29   8.824059 0.150544 0.091743 0.007671 0.005751 -0.310425
 30   2.111085 -0.561179 1.784320 -0.000008 -0.000682 0.000024
 31   2.121290 -0.561289 -1.853599 0.000000 0.000000 -0.000002
 32   -0.814395 -0.093824 3.127092 -0.043551 -3.098442 -0.532051
 33   14.298673 -0.408176 0.471578 -0.000040 -0.000080 -0.678248
 34   15.835795 0.581398 0.242756 -0.097675 -0.014837 0.145798
 35   -0.815868 -0.091229 -3.114430 0.219961 3.009524 -0.320072
 36   14.294526 -0.410349 -0.467541 -0.000387 0.000515 -0.775620
 37   15.834409 0.579420 -0.284600 -0.014879 0.052230 0.434707
 38   1.385786 -3.817041 -2.819907 -0.011682 0.009387 0.751830
 39   -4.457742 -1.054854 -0.746180 0.000000 0.000000 0.000000
 40   1.356390 -3.742747 3.241196 -0.011682 0.009388 0.751829
 41   -4.433840 -1.059130 0.959566 -0.000001 0.000000 0.000000
 42   -0.094951 1.595736 -2.786273 0.066550 -0.081213 0.260846
 43   -0.437499 1.194656 2.748280 0.066893 -0.078926 0.260846
time 8
  0   0.243428 1.488327 -1.163727 0.000000 0.000000 -1.571354
  1   -1.093036 0.000002 -0.326057 -1.571070 -1.570425 0.000264
  2   2.262337 0.113614 0.064702 -0.069599 0.001894 0.026714
  3   2.380047 0.353302 0.047440 0.000000 -0.000076 0.400662
  4   2.033756 0.190472 -0.000128 -0.078354 -0.001306 -0.020867
  5   2.451511 0.204909 -0.003447 0.000000 -0.000005 -0.122849
  6   7.247600 -0.397300 -0.109469 0.000013 -0.000015 -0.374948
  7   -2.022252 -0.104661 3.136172 -0.299262 -1.361891 -2.474899
  8   1.168026 -0.537438 -0.063437 -0.218020 0.994428 -0.004301
  9   6.790376 -0.619176 0.015206 -0.000269 -0.000285 -0.286702
 10   8.637599 0.544015 -0.090417 -1.570024 0.000292 -0.069354
 11   6.790465 -0.619039 0.017802 -0.002473 -0.010969 -0.215790
 12   -2.022474 -0.104699 -2.873818 0.298777 1.361712 -2.475553
 13   1.167898 -0.537463 0.063297 0.270501 -1.115236 -0.102758
 14   7.002743 -0.617765 -0.183752 0.000229 0.000364 -0.687601
 15   8.209042 0.615527 -0.255885 1.570090 -0.000063 -0.069646
 16   7.002735 -0.617911 -0.183641 0.014485 0.003984 -0.499927
 17   1.574674 0.609930 -0.000899 0.132832 0.093066 -0.284608
 18   -0.602177 0.511412 -0.000006 0.000000 0.000000 0.000000
 19   3.665960 0.309837 1.146658 -0.000002 -0.000014 -0.174510
 20   3.665954 0.309810 -1.090221 0.000007 -0.000003 -0.174546
 21   2.887637 1.322821 1.549531 0.000002 -0.000011 -0.000026
 22   -0.226528 -0.758005 0.473551 0.000194 -0.057471 0.890061
 23   2.903280 1.315034 -1.584207 0.000019 0.000002 -0.000024
 24   -0.074270 -0.562670 -0.551668 0.000187 -0.057496 0.890104
 25   3.953053 2.094997 1.523858 0.102271 -0.029428 -0.168407
 26   3.902288 2.141901 -1.516125 -0.141155 -0.028485 -0.183628
 27   3.293379 1.455197 1.514501 -0.000019 -0.000022 -0.000050
 28   3.295809 1.454803 -1.501142 -0.000002 -0.000009 -0.000024
 29   8.824059 0.150544 0.091743 0.006690 0.010000 -0.020457
 30   2.111085 -0.561179 1.784320 -0.000008 -0.000682 0.000024
 31   2.121290 -0.561289 -1.853599 0.000000 0.000000 -0.000002
 32   -0.814395 -0.093824 3.127092 -0.041500 -3.099110 -0.596715
 33   14.298673 -0.408176 0.471578 -0.000040 -0.000080 -0.748595
 34   15.835795 0.581398 0.242756 -0.098572 -0.011469 0.151223
 35   -0.815868 -0.091229 -3.114430 0.210543 2.997906 -0.393091
 36   14.294526 -0.410349 -0.467541 -0.000435 0.000467 -0.869780
 37   15.834409 0.579420 -0.284600 -0.013894 0.048570 0.456052
 38   1.385786 -3.817041 -2.819907 -0.011977 0.008833 0.678700
 39   -4.457742 -1.054854 -0.746180 0.000000 0.000000 0.000000
 40   1.356390 -3.742747 3.241196 -0.011977 0.008834 0.678699
 41   -4.433840 -1.059130 0.959566 -0.000001 0.000000 0.000000
 42   0.139431 2.084033 -2.786273 0.066634 -0.083559 -0.022793
 43   -0.328120 1.784518 2.748280 0.067156 -0.080118 -0.022793
time 9
  0   0.243428 0.687521 -2.202821 0.000000 0.000000 -1.571354
  1   -1.093036 0.000002 -0.326057 -1.570966 -1.570425 0.000264
  2   2.262337 0.113614 0.064702 -0.069599 0.001894 0.026714
  3   2.380047 0.353302 0.047440 0.000000 -0.000076 0.431087
  4   2.033756 0.190472 -0.000128 -0.078188 0.004962 0.062030
  5   2.451511 0.204909 -0.003447 0.000000 -0.000005 0.010513
  6   7.247600 -0.397300 -0.109469 0.000013 -0.000015 -0.374948
  7   -2.022252 -0.104661 3.136172 -0.299262 -1.361862 -2.474899
  8   1.168026 -0.537438 -0.063437 -0.646935 0.956642 -0.409864
  9   6.790376 -0.619176 0.015206 -0.000269 -0.000285 -0.286702
 10   8.637599 0.544015 -0.090417 -1.570024 0.000292 -0.069354
 11   6.790465 -0.619039 0.017802 -0.002473 -0.010969 -0.215790
 12   -2.022474 -0.104699 -2.873818 0.298777 1.361712 -2.475553
 13   1.167898 -0.537463 0.063297 0.770026 -1.047142 -0.594845
 14   7.002743 -0.617765 -0.183752 0.000229 0.000364 -0.687601
 15   8.209042 0.615527 -0.255885 1.570090 -0.000063 -0.069646
 16   7.002735 -0.617911 -0.183641 0.014485 0.003984 -0.499927
 17   1.574674 0.609930 -0.000899 0.148918 0.063033 -0.307117
 18   -0.602177 0.511412 -0.000006 0.000000 0.000000 0.000000
 19   3.665960 0.309837 1.146658 -0.000002 -0.000014 -0.174510
 20   3.665954 0.309810 -1.090221 0.000007 -0.000003 -0.174546
 21   2.887637 1.322821 1.549531 0.000002 -0.000011 -0.000026
 22   -0.226528 -0.758005 0.473551 0.000194 -0.057471 0.890061
 23   2.903280 1.315034 -1.584207 0.000019 0.000002 -0.000024
 24   -0.074270 -0.562670 -0.551668 0.000187 -0.057496 0.890104
 25   3.953053 2.094997 1.523858 0.102271 -0.029428 -0.168407
 26   3.902288 2.141901 -1.516125 -0.141155 -0.028485 -0.183628
 27   3.293379 1.455197 1.514501 -0.000019 -0.000022 -0.000050
 28   3.295809 1.454803 -1.501142 -0.000002 -0.000009 -0.000024
 29   8.824059 0.150544 0.091743 0.004908 0.013513 0.222569
 30   2.111085 -0.561179 1.784320 -0.000008 -0.000682 0.000024
 31   2.121290 -0.561289 -1.853599 0.000000 0.000000 -0.000002
 32   -0.814395 -0.093824 3.127092 -0.039077 -3.097391 -0.668892
 33   14.298673 -0.408176 0.471578 -0.000040 -0.000067 -0.895481
 34   15.835795 0.581398 0.242756 -0.099124 -0.010249 0.226065
 35   -0.815868 -0.091229 -3.114430 0.199454 2.982167 -0.445623
 36   14.294526 -0.410349 -0.467541 -0.000483 0.000395 -0.994993
 37   15.834409 0.579420 -0.284600 -0.013027 0.054201 0.527897
 38   1.385786 -3.817041 -2.819907 -0.012082 0.007749 0.617361
 39   -4.457742 -1.054854 -0.746180 0.000000 0.000000 0.000000
 40   1.356390 -3.742747 3.241196 -0.012082 0.007750 0.617360
 41   -4.433840 -1.059130 0.959566 -0.000001 0.000000 0.000000
 42   0.326937 2.494201 -2.790179 0.066790 -0.084418 -0.260512
 43   -0.234367 2.280627 2.744373 0.067256 -0.081374 -0.260512
time 10
  0   0.255147 -0.136723 -3.234103 0.000000 0.000000 -1.571354
  1   -1.093036 0.000002 -0.326057 -1.571070 -1.570425 0.000071
  2   2.262337 0.113614 0.064702 -0.069599 0.001894 0.026714
  3   2.380047 0.353302 0.047440 0.000000 -0.000076 0.458655
  4   2.033756 0.190472 -0.000128 -0.077616 0.010750 0.137713
  5   2.451511 0.204909 -0.003447 0.000000 -0.000005 0.133424
  6   7.247600 -0.397300 -0.109469 0.000013 -0.000015 -0.374948
  7   -2.022252 -0.104661 3.136172 -0.299262 -1.361891 -2.474899
  8   1.168026 -0.537438 -0.063437 -0.961565 0.848265 -0.702696
  9   6.790376 -0.619176 0.015206 -0.000269 -0.000285 -0.286702
 10   8.637599 0.544015 -0.090417 -1.570024 0.000292 -0.069354
 11   6.790465 -0.619039 0.017802 -0.002473 -0.010969 -0.215790
 12   -2.022474 -0.104699 -2.873818 0.298777 1.361712 -2.475553
 13   1.167898 -0.537463 0.063297 1.080173 -0.906834 -0.898911
 14   7.002743 -0.617765 -0.183752 0.000229 0.000364 -0.687601
 15   8.209042 0.615527 -0.255885 1.570090 -0.000063 -0.069646
 16   7.002735 -0.617911 -0.183641 0.014485 0.003984 -0.499927
 17   1.574674 0.609930 -0.000899 0.157570 0.033449 -0.331031
 18   -0.602177 0.511412 -0.000006 0.000000 0.000000 0.000000
 19   3.665960 0.309837 1.146658 -0.000002 -0.000014 -0.174510
 20   3.665954 0.309810 -1.090221 0.000007 -0.000003 -0.174546
 21   2.887637 1.322821 1.549531 0.000002 -0.000011 -0.000026
 22   -0.226528 -0.758005 0.473551 0.000194 -0.057471 0.890061
 23   2.903280 1.315034 -1.584207 0.000019 0.000002 -0.000024
 24   -0.074270 -0.562670 -0.551668 0.000187 -0.057496 0.890104
 25   3.953053 2.094997 1.523858 0.102271 -0.029428 -0.168407
 26   3.902288 2.141901 -1.516125 -0.141155 -0.028485 -0.183628
 27   3.293379 1.455197 1.514501 -0.000019 -0.000022 -0.000050
 28   3.295809 1.454803 -1.501142 -0.000002 -0.000009 -0.000024
 29   8.824059 0.150544 0.091743 0.002056 0.014985 0.324447
 30   2.111085 -0.561179 1.784320 -0.000008 -0.000682 0.000024
 31   2.121290 -0.561289 -1.853599 0.000000 0.000000 -0.000002
 32   -0.814395 -0.093824 3.127092 -0.036467 -3.096054 -0.727806
 33   14.298673 -0.408176 0.471578 -0.000028 -0.000067 -1.024265
 34   15.835795 0.581398 0.242756 -0.099515 -0.009419 0.295615
 35   -0.815868 -0.091229 -3.114430 0.189068 2.968675 -0.486048
 36   14.294526 -0.410349 -0.467541 -0.000519 0.000335 -1.104756
 37   15.834409 0.579420 -0.284600 -0.012613 0.061035 0.595584
 38   1.385786 -3.817041 -2.819907 -0.012103 0.005965 0.591701
 39   -4.457742 -1.054854 -0.746180 0.000000 0.000000 0.000000
 40   1.356390 -3.742747 3.241196 -0.012103 0.005966 0.591700
 41   -4.433840 -1.059130 0.959566 -0.000001 0.000000 0.000000
 42   0.401158 2.669988 -2.790179 0.067270 -0.084540 -0.360174
 43   -0.171865 2.487665 2.736560 0.067268 -0.084543 -0.360174
time 11
  0   0.255147 -0.968780 -4.202882 0.000000 0.000000 -1.571354
  1   -1.093036 0.000002 -0.326057 -1.571070 -1.570425 0.000264
  2   2.262337 0.113614 0.064702 -0.069599 0.001894 0.026714
  3   2.380047 0.353302 0.047440 0.000000 -0.000076 0.482448
  4   2.033756 0.190472 -0.000128 -0.076731 0.015952 0.203103
  5   2.451511 0.204909 -0.003447 0.000000 -0.000005 0.240039
  6   7.247600 -0.397300 -0.109469 0.000013 -0.000015 -0.374948
  7   -2.022252 -0.104661 3.136172 -0.299262 -1.361891 -2.474899
  8   1.168026 -0.537438 -0.063437 -1.161785 0.717900 -0.882989
  9   6.790376 -0.619176 0.015206 -0.000269 -0.000285 -0.286702
 10   8.637599 0.544015 -0.090417 -1.570024 0.000292 -0.069354
 11   6.790465 -0.619039 0.017802 -0.002473 -0.010969 -0.215790
 12   -2.022474 -0.104699 -2.873818 0.298777 1.361712 -2.475553
 13   1.167898 -0.537463 0.063297 1.254297 -0.754575 -1.067803
 14   7.002743 -0.617765 -0.183752 0.000229 0.000364 -0.687601
 15   8.209042 0.615527 -0.255885 1.570090 -0.000063 -0.069646
 16   7.002735 -0.617911 -0.183641 0.014485 0.003984 -0.499927
 17   1.574674 0.609930 -0.000899 0.160495 0.006019 -0.346111
 18   -0.602177 0.511412 -0.000006 0.000000 0.000000 0.000000
 19   3.665960 0.309837 1.146658 -0.000002 -0.000014 -0.174510
 20   3.665954 0.309810 -1.090221 0.000007 -0.000003 -0.174546
 21   2.887637 1.322821 1.549531 0.000002 -0.000011 -0.000026
 22   -0.226528 -0.758005 0.473551 0.000194 -0.057471 0.890061
 23   2.903280 1.315034 -1.584207 0.000019 0.000002 -0.000024
 24   -0.074270 -0.562670 -0.551668 0.000187 -0.057496 0.890104
 25   3.953053 2.094997 1.523858 0.102271 -0.029428 -0.168407
 26   3.902288 2.141901 -1.516125 -0.141155 -0.028485 -0.183628
 27   3.293379 1.455197 1.514501 -0.000019 -0.000022 -0.000050
 28   3.295809 1.454803 -1.501142 -0.000002 -0.000009 -0.000024
 29   8.824059 0.150544 0.091743 -0.004718 0.013347 0.322677
 30   2.111085 -0.561179 1.784320 -0.000008 -0.000682 0.000024
 31   2.121290 -0.561289 -1.853599 0.000000 0.000000 -0.000002
 32   -0.814395 -0.093824 3.127092 -0.034416 -3.095099 -0.773800
 33   14.298673 -0.408176 0.471578 -0.000028 -0.000054 -1.135661
 34   15.835795 0.581398 0.242756 -0.099768 -0.008980 0.361548
 35   -0.815868 -0.091229 -3.114430 0.180090 2.956683 -0.514149
 36   14.294526 -0.410349 -0.467541 -0.000543 0.000276 -1.198222
 37   15.834409 0.579420 -0.284600 -0.012416 0.068534 0.659469
 38   1.346723 -3.758446 -2.812094 0.002757 -0.003410 0.647480
 39   -4.457742 -1.054854 -0.746180 0.000000 0.000000 0.000000
 40   1.395453 -3.801342 3.237290 0.002757 -0.003409 0.647480
 41   -4.433840 -1.059130 0.959566 -0.000001 0.000000 0.000000
 42   0.401158 2.666081 -2.786273 0.068264 -0.082946 -0.359672
 43   -0.140615 2.483758 2.717029 0.066756 -0.091149 -0.358794
time 12
  0   0.255147 -1.804743 -5.097441 0.000000 0.000000 -1.571354
  1   -1.093036 0.000002 -0.326057 -1.571018 -1.570425 0.000264
  2   2.262337 0.113614 0.064702 -0.069599 0.001894 0.026714
  3   2.380047 0.353302 0.047440 0.073220 -0.039194 0.488896
  4   2.033756 0.190472 -0.000128 -0.032100 0.007395 0.225467
  5   2.451511 0.204909 -0.003447 0.000000 -0.000005 0.275305
  6   7.247600 -0.397300 -0.109469 0.000013 -0.000015 -0.374948
  7   -2.022252 -0.104661 3.136172 -0.299262 -1.361891 -2.474899
  8   1.168026 -0.537438 -0.063437 -1.113691 0.627184 -0.952638
  9   6.790376 -0.619176 0.015206 -0.000269 -0.000285 -0.286702
 10   8.637599 0.544015 -0.090417 -1.570024 0.000292 -0.069354
 11   6.790465 -0.619039 0.017802 -0.002473 -0.010969 -0.215790
 12   -2.022474 -0.104699 -2.873818 0.298777 1.361712 -2.475553
 13   1.167898 -0.537463 0.063297 0.931497 -0.709925 -0.961141
 14   7.002743 -0.617765 -0.183752 0.000229 0.000364 -0.687601
 15   8.209042 0.615527 -0.255885 1.570090 -0.000063 -0.069646
 16   7.002735 -0.617911 -0.183641 0.014485 0.003984 -0.499927
 17   1.574674 0.609930 -0.000899 0.023845 0.011770 0.072066
 18   -0.602177 0.511412 -0.000006 0.000000 0.000000 0.000000
 19   3.665960 0.309837 1.146658 -0.000002 -0.000014 -0.174510
 20   3.665954 0.309810 -1.090221 0.000007 -0.000003 -0.174546
 21   2.887637 1.322821 1.549531 0.000002 -0.000011 -0.000026
 22   -0.226528 -0.758005 0.473551 0.000194 -0.057471 0.890061
 23   2.903280 1.315034 -1.584207 0.000019 0.000002 -0.000024
 24   -0.074270 -0.562670 -0.551668 0.000187 -0.057496 0.890104
 25   3.953053 2.094997 1.523858 0.102271 -0.029428 -0.168407
 26   3.902288 2.141901 -1.516125 -0.141155 -0.028485 -0.183628
 27   3.293379 1.455197 1.514501 -0.000019 -0.000022 -0.000050
 28   3.295809 1.454803 -1.501142 -0.000002 -0.000009 -0.000024
 29   8.824059 0.150544 0.091743 -0.017640 0.008623 0.317687
 30   2.111085 -0.561179 1.784320 -0.000008 -0.000682 0.000024
 31   2.121290 -0.561289 -1.853599 0.000000 0.000000 -0.000002
 32   -0.814395 -0.093824 3.127092 -0.014376 -3.092998 -0.805619
 33   14.298673 -0.408176 0.471578 -0.000028 -0.000054 -1.233320
 34   15.835795 0.581398 0.242756 -0.111661 -0.022841 0.427526
 35   -0.815868 -0.091229 -3.114430 0.201214 2.940475 -0.522859
 36   14.294526 -0.410349 -0.467541 -0.000555 0.000240 -1.276547
 37   15.834409 0.579420 -0.284600 -0.039369 0.068995 0.724621
 38   1.256876 -3.621723 -2.796468 0.040225 -0.023788 0.780605
 39   -4.457742 -1.054854 -0.746180 0.000000 0.000000 0.000000
 40   1.485300 -3.938065 3.221664 0.040225 -0.023787 0.780605
 41   -4.433840 -1.059130 0.959566 -0.000001 0.000000 0.000000
 42   0.401158 2.666081 -2.778461 0.069786 -0.078346 -0.358251
 43   -0.113270 2.475945 2.689684 0.065282 -0.101192 -0.354821
time 13
  0   0.255147 -2.578204 -5.870902 0.000000 0.000000 -1.571354
  1   -1.093036 0.000002 -0.326057 -1.571018 -1.570425 0.000313
  2   2.262337 0.113614 0.064702 -0.069599 0.001894 0.026714
  3   2.380047 0.353302 0.047440 0.139104 -0.075028 0.489753
  4   2.033756 0.190472 -0.000128 0.008898 -0.001953 0.238516
  5   2.451511 0.204909 -0.003447 0.000000 -0.000005 0.296207
  6   7.247600 -0.397300 -0.109469 0.000013 -0.000015 -0.374948
  7   -2.022252 -0.104661 3.136172 -0.299262 -1.361862 -2.474899
  8   1.168026 -0.537438 -0.063437 -1.049715 0.559109 -1.000590
  9   6.790376 -0.619176 0.015206 -0.000269 -0.000285 -0.286702
 10   8.637599 0.544015 -0.090417 -1.570024 0.000292 -0.069354
 11   6.790465 -0.619039 0.017802 -0.002473 -0.010969 -0.215790
 12   -2.022474 -0.104699 -2.873818 0.298777 1.361712 -2.475553
 13   1.167898 -0.537463 0.063297 0.640962 -0.674022 -0.872760
 14   7.002743 -0.617765 -0.183752 0.000229 0.000364 -0.687601
 15   8.209042 0.615527 -0.255885 1.570090 -0.000063 -0.069646
 16   7.002735 -0.617911 -0.183641 0.014485 0.003984 -0.499927
 17   1.574674 0.609930 -0.000899 -0.043749 0.114295 0.552301
 18   -0.602177 0.511412 -0.000006 0.000000 0.000000 0.000000
 19   3.665960 0.309837 1.146658 -0.000002 -0.000014 -0.174510
 20   3.665954 0.309810 -1.090221 0.000007 -0.000003 -0.174546
 21   2.887637 1.322821 1.549531 0.000002 -0.000011 -0.000026
 22   -0.226528 -0.758005 0.473551 0.000194 -0.057471 0.890061
 23   2.903280 1.315034 -1.584207 0.000019 0.000002 -0.000024
 24   -0.074270 -0.562670 -0.551668 0.000187 -0.057496 0.890104
 25   3.953053 2.094997 1.523858 0.102271 -0.029428 -0.168407
 26   3.902288 2.141901 -1.516125 -0.141155 -0.028485 -0.183628
 27   3.293379 1.455197 1.514501 -0.000019 -0.000022 -0.000050
 28   3.295809 1.454803 -1.501142 -0.000002 -0.000009 -0.000024
 29   8.824059 0.150544 0.091743 -0.036089 0.001170 0.309747
 30   2.111085 -0.561179 1.784320 -0.000008 -0.000682 0.000024
 31   2.121290 -0.561289 -1.853599 0.000000 0.000000 -0.000002
 32   -0.814395 -0.093824 3.127092 0.002588 -3.090133 -0.825769
 33   14.298673 -0.408176 0.471578 -0.000028 -0.000054 -1.314624
 34   15.835795 0.581398 0.242756 -0.120701 -0.036288 0.488608
 35   -0.815868 -0.091229 -3.114430 0.218993 2.927639 -0.521325
 36   14.294526 -0.410349 -0.467541 -0.000555 0.000204 -1.339579
 37   15.834409 0.579420 -0.284600 -0.061219 0.070684 0.784398
 38   1.143591 -3.461562 -2.776937 0.089522 -0.050154 0.939512
 39   -4.457742 -1.054854 -0.746180 0.000000 0.000000 0.000000
 40   1.598584 -4.098227 3.202133 0.089522 -0.050154 0.939511
 41   -4.433840 -1.059130 0.959566 -0.000001 0.000000 0.000000
 42   0.401158 2.662175 -2.766741 0.071764 -0.071094 -0.355992
 43   -0.089832 2.460320 2.654527 0.062945 -0.114279 -0.348548
time 14
  0   0.255147 -3.296976 -6.488108 0.000000 0.000000 -1.571354
  1   -1.093036 0.000002 -0.326057 -1.571070 -1.570425 0.000264
  2   2.262337 0.113614 0.064702 -0.069599 0.001894 0.026714
  3   2.380047 0.353302 0.047440 0.168851 -0.091231 0.489243
  4   2.033756 0.190472 -0.000128 0.042242 -0.010403 0.243808
  5   2.451511 0.204909 -0.003447 0.000000 -0.000005 0.305073
  6   7.247600 -0.397300 -0.109469 0.000013 -0.000015 -0.374948
  7   -2.022252 -0.104661 3.136172 -0.299262 -1.361891 -2.474899
  8   1.168026 -0.537438 -0.063437 -1.010418 0.526455 -1.029753
  9   6.790376 -0.619176 0.015206 -0.000269 -0.000285 -0.286702
 10   8.637599 0.544015 -0.090417 -1.570024 0.000292 -0.069354
 11   6.790465 -0.619039 0.017802 -0.002473 -0.010969 -0.215790
 12   -2.022474 -0.104699 -2.873818 0.298777 1.361712 -2.475553
 13   1.167898 -0.537463 0.063297 0.516538 -0.689838 -0.854963
 14   7.002743 -0.617765 -0.183752 0.000229 0.000364 -0.687601
 15   8.209042 0.615527 -0.255885 1.570090 -0.000063 -0.069646
 16   7.002735 -0.617911 -0.183641 0.014485 0.003984 -0.499927
 17   1.574674 0.609930 -0.000899 -0.029451 0.141560 0.816313
 18   -0.602177 0.511412 -0.000006 0.000000 0.000000 0.000000
 19   3.665960 0.309837 1.146658 -0.000002 -0.000014 -0.174510
 20   3.665954 0.309810 -1.090221 0.000007 -0.000003 -0.174546
 21   2.887637 1.322821 1.549531 0.000002 -0.000011 -0.000026
 22   -0.226528 -0.758005 0.473551 0.000194 -0.057471 0.890061
 23   2.903280 1.315034 -1.584207 0.000019 0.000002 -0.000024
 24   -0.074270 -0.562670 -0.551668 0.000187 -0.057496 0.890104
 25   3.953053 2.094997 1.523858 0.102271 -0.029428 -0.168407
 26   3.902288 2.141901 -1.516125 -0.141155 -0.028485 -0.183628
 27   3.293379 1.455197 1.514501 -0.000019 -0.000022 -0.000050
 28   3.295809 1.454803 -1.501142 -0.000002 -0.000009 -0.000024
 29   8.824059 0.150544 0.091743 -0.059439 -0.008682 0.299179
 30   2.111085 -0.561179 1.784320 -0.000008 -0.000682 0.000024
 31   2.121290 -0.561289 -1.853599 0.000000 0.000000 -0.000002
 32   -0.814395 -0.093824 3.127092 -0.012139 -3.069216 -0.837381
 33   14.298673 -0.408176 0.471578 -0.000028 -0.000041 -1.378778
 34   15.835795 0.581398 0.242756 -0.094961 -0.039192 0.540120
 35   -0.815868 -0.091229 -3.114430 0.181411 2.953779 -0.521928
 36   14.294526 -0.410349 -0.467541 -0.000567 0.000084 -1.517240
 37   15.834409 0.579420 -0.284600 -0.037103 0.059627 0.637616
 38   1.057651 -3.328745 -2.761311 0.139850 -0.077461 1.072637
 39   -4.457742 -1.054854 -0.746180 0.000000 0.000000 0.000000
 40   1.688431 -4.234949 3.186507 0.139850 -0.077460 1.072636
 41   -4.433840 -1.059130 0.959566 -0.000001 0.000000 0.000000
 42   0.401158 2.654362 -2.747210 0.074149 -0.061465 -0.352981
 43   -0.066393 2.440788 2.611557 0.059847 -0.130033 -0.340225
time 15
  0   0.255147 -3.371197 -10.062436 0.149930 0.205457 -1.330437
  1   -1.093036 0.000002 -0.326057 -1.569760 -1.570425 -0.000123
  2   2.262337 0.113614 0.064702 -0.069599 0.001894 0.026714
  3   2.380047 0.353302 0.047440 0.169631 -0.091518 0.489202
  4   2.033756 0.190472 -0.000128 0.061312 -0.015100 0.243518
  5   2.451511 0.204909 -0.003447 0.008867 -0.002681 0.305073
  6   7.247600 -0.397300 -0.109469 0.000013 -0.000015 -0.374948
  7   -2.022252 -0.104661 3.136172 -0.299262 -1.361862 -2.474899
  8   1.168026 -0.537438 -0.063437 -0.994218 0.523234 -1.047213
  9   6.790376 -0.619176 0.015206 -0.000269 -0.000285 -0.286702
 10   8.637599 0.544015 -0.090417 -1.570024 0.000292 -0.069354
 11   6.790465 -0.619039 0.017802 -0.002473 -0.010969 -0.215790
 12   -2.022474 -0.104699 -2.873818 -0.189551 1.366705 -2.953110
 13   1.167898 -0.537463 0.063297 0.492074 -0.563413 -0.694788
 14   7.002743 -0.617765 -0.183752 0.000229 0.000364 -0.726626
 15   8.209042 0.615527 -0.255885 1.570090 -0.000063 -0.069646
 16   7.002735 -0.617911 -0.183641 0.014438 0.004154 -0.527247
 17   1.574674 0.609930 -0.000899 -0.022870 0.050253 0.832724
 18   -0.602177 0.511412 -0.000006 0.000000 0.000000 0.000000
 19   3.665960 0.309837 1.146658 -0.000002 -0.000014 -0.174510
 20   3.665954 0.309810 -1.090221 0.000007 -0.000003 -0.174546
 21   2.887637 1.322821 1.549531 0.000002 -0.000011 -0.000026
 22   -0.226528 -0.758005 0.473551 0.000194 -0.057471 0.890061
 23   2.903280 1.315034 -1.584207 0.000019 0.000002 -0.000024
 24   -0.074270 -0.562670 -0.551668 0.000187 -0.057496 0.890104
 25   3.953053 2.094997 1.523858 0.102271 -0.029428 -0.168407
 26   3.902288 2.141901 -1.516125 -0.141155 -0.028485 -0.183628
 27   3.293379 1.455197 1.514501 -0.000019 -0.000022 -0.000050
 28   3.295809 1.454803 -1.501142 -0.000002 -0.000009 -0.000024
 29   8.824059 0.150544 0.091743 -0.086889 -0.020669 0.286410
 30   2.111085 -0.561179 1.784320 -0.000008 -0.000682 0.000024
 31   2.121290 -0.561289 -1.853599 0.000000 0.000000 -0.000002
 32   -0.814395 -0.093824 3.127092 -0.112525 -3.158612 -1.185916
 33   14.298673 -0.408176 0.471578 -0.000028 -0.000028 -1.569333
 34   15.835795 0.581398 0.242756 0.101666 -0.043658 0.588412
 35   -0.815868 -0.091229 -3.114430 0.057134 2.931387 -0.816139
 36   14.294526 -0.410349 -0.467541 -0.000555 -0.000144 -1.873258
 37   15.834409 0.579420 -0.284600 0.227656 0.161804 0.641216
 38   1.018588 -3.270150 -2.753498 0.180496 -0.100707 1.128477
 39   -4.457742 -1.054854 -0.746180 0.000000 0.000000 0.000000
 40   1.727495 -4.293545 3.178694 0.180496 -0.100706 1.128477
 41   -4.433840 -1.059130 0.959566 -0.000001 0.000000 0.000000
 42   0.401158 2.650456 -2.727678 0.076869 -0.049782 -0.349342
 43   -0.042955 2.417350 2.560774 0.056098 -0.148047 -0.330146
time 16
  0   0.255147 -3.414167 -13.648483 0.324298 0.346992 -1.086289
  1   -1.093036 0.000002 -0.326057 -1.570494 -1.570425 -0.001236
  2   2.262337 0.113614 0.064702 -0.069599 0.000959 0.026714
  3   2.380047 0.353302 0.047440 0.168671 -0.091147 0.489243
  4   2.033756 0.190472 -0.000128 0.075826 -0.017977 0.243228
  5   2.451511 0.204909 -0.003447 0.016535 -0.005044 0.304974
  6   7.247600 -0.397300 -0.109469 0.000013 -0.000015 -0.374948
  7   -2.022252 -0.104661 3.136172 -0.307698 -1.361343 -2.465883
  8   1.168026 -0.537438 -0.063437 -0.982068 0.520216 -1.060118
  9   6.790376 -0.619176 0.015206 -0.000269 -0.000285 -0.286702
 10   8.637599 0.544015 -0.090417 -1.568175 -0.005973 -0.068703
 11   6.790465 -0.619039 0.017802 -0.002473 -0.010969 -0.215790
 12   -2.022474 -0.104699 -2.873818 2.472448 1.823686 -0.278965
 13   1.167898 -0.537463 0.063297 0.500018 -0.418529 -0.518329
 14   7.002743 -0.617765 -0.183752 0.000229 0.000364 -0.772829
 15   8.209042 0.615527 -0.255885 1.570090 -0.000063 -0.069646
 16   7.002735 -0.617911 -0.183641 0.014438 0.004379 -0.559535
 17   1.574674 0.609930 -0.000899 -0.010399 -0.090021 0.767562
 18   -0.602177 0.511412 -0.000006 0.000000 0.000000 0.000000
 19   3.665960 0.309837 1.146658 -0.000002 -0.000014 -0.174510
 20   3.665954 0.309810 -1.090221 0.000007 -0.000003 -0.174546
 21   2.887637 1.322821 1.549531 0.000002 -0.000011 -0.000026
 22   -0.226528 -0.758005 0.473551 0.000194 -0.057471 0.890061
 23   2.903280 1.315034 -1.584207 0.000019 0.000002 -0.000024
 24   -0.074270 -0.562670 -0.551668 0.000187 -0.057496 0.890104
 25   3.953053 2.094997 1.523858 0.102271 -0.029428 -0.168407
 26   3.902288 2.141901 -1.516125 -0.141155 -0.028485 -0.183628
 27   3.293379 1.455197 1.514501 -0.000019 -0.000022 -0.000050
 28   3.295809 1.454803 -1.501142 -0.000002 -0.000009 -0.000024
 29   8.824059 0.150544 0.091743 -0.117815 -0.034437 0.271764
 30   2.111085 -0.561179 1.784320 -0.000008 -0.000682 0.000024
 31   2.121290 -0.561289 -1.853599 0.000000 0.000000 -0.000002
 32   -0.814395 -0.093824 3.127092 -2.769732 -6.204156 1.656604
 33   14.298673 -0.408176 0.471578 -0.000028 -0.000041 -1.553136
 34   15.835795 0.581398 0.242756 -0.154813 0.466697 0.162116
 35   -0.815868 -0.091229 -3.114430 0.152454 3.363199 -1.137245
 36   14.294526 -0.410349 -0.467541 -0.000543 -0.000168 -1.887239
 37   15.834409 0.579420 -0.284600 -0.351788 0.238641 0.206649
 38   1.026400 -3.274056 -2.753498 0.210722 -0.119036 1.110149
 39   -4.457742 -1.054854 -0.746180 0.000000 0.000000 0.000000
 40   1.715775 -4.281826 3.178694 0.210722 -0.119035 1.110148
 41   -4.433840 -1.059130 0.959566 -0.000001 0.000000 0.000000
 42   0.397252 2.642643 -2.704239 0.079877 -0.036382 -0.345160
 43   -0.027330 2.390005 2.509991 0.051788 -0.167959 -0.318561
time 17
  0   0.255147 -3.414167 -17.160309 0.540854 0.441230 -0.803572
  1   -1.093036 0.000002 -0.326057 -1.570913 -1.570425 0.000361
  2   2.262337 0.113614 0.064702 -0.069599 -0.001246 0.026895
  3   2.380047 0.353302 0.047440 0.167591 -0.090560 0.489345
  4   2.033756 0.190472 -0.000128 0.090893 -0.019619 0.243228
  5   2.451511 0.204909 -0.003447 0.024546 -0.007564 0.304974
  6   7.247600 -0.397300 -0.109469 0.000013 -0.000015 -0.374948
  7   -2.022252 -0.104661 3.136172 -0.329745 -1.359988 -2.444564
  8   1.168026 -0.537438 -0.063437 -0.968083 0.515385 -1.072327
  9   6.790376 -0.619176 0.015206 -0.000269 -0.000285 -0.286702
 10   8.637599 0.544015 -0.090417 -1.562362 -0.020896 -0.066677
 11   6.790465 -0.619039 0.017802 -0.002473 -0.010969 -0.215790
 12   -2.022474 -0.104699 -2.873818 2.197482 1.903415 -0.542828
 13   1.167898 -0.537463 0.063297 0.508524 -0.350434 -0.389814
 14   7.002743 -0.617765 -0.183752 0.000229 0.000364 -0.821672
 15   8.209042 0.615527 -0.255885 1.570090 -0.000063 -0.069646
 16   7.002735 -0.617911 -0.183641 0.014391 0.004661 -0.593865
 17   1.574674 0.609930 -0.000899 0.015680 -0.248612 0.645073
 18   -0.602177 0.511412 -0.000006 0.000000 0.000000 0.000000
 19   3.665960 0.309837 1.146658 -0.000002 -0.000014 -0.174510
 20   3.665954 0.309810 -1.090221 0.000007 -0.000003 -0.174546
 21   2.887637 1.322821 1.549531 0.000002 -0.000011 -0.000026
 22   -0.226528 -0.758005 0.473551 0.000194 -0.057471 0.890061
 23   2.903280 1.315034 -1.584207 0.000019 0.000002 -0.000024
 24   -0.074270 -0.562670 -0.551668 0.000187 -0.057496 0.890104
 25   3.953053 2.094997 1.523858 0.102271 -0.029428 -0.168407
 26   3.902288 2.141901 -1.516125 -0.141155 -0.028485 -0.183628
 27   3.293379 1.455197 1.514501 -0.000019 -0.000022 -0.000050
 28   3.295809 1.454803 -1.501142 -0.000002 -0.000009 -0.000024
 29   8.824059 0.150544 0.091743 -0.151504 -0.049654 0.255563
 30   2.111085 -0.561179 1.784320 -0.000008 -0.000682 0.000024
 31   2.121290 -0.561289 -1.853599 0.000000 0.000000 -0.000002
 32   -0.814395 -0.093824 3.127092 -2.760783 0.021694 1.746825
 33   14.298673 -0.408176 0.471578 -0.000028 -0.000041 -1.493349
 34   15.835795 0.581398 0.242756 -0.201900 0.451884 0.086304
 35   -0.815868 -0.091229 -3.114430 0.130098 3.452110 -1.072608
 36   14.294526 -0.410349 -0.467541 -0.000555 -0.000108 -1.808914
 37   15.834409 0.579420 -0.284600 -0.355906 0.204676 0.136377
 38   1.042026 -3.285775 -2.757405 0.237160 -0.135075 1.058463
 39   -4.457742 -1.054854 -0.746180 0.000000 0.000000 0.000000
 40   1.680618 -4.250575 3.182601 0.237160 -0.135074 1.058463
 41   -4.433840 -1.059130 0.959566 -0.000001 0.000000 0.000000
 42   0.397252 2.630924 -2.680801 0.083125 -0.021555 -0.340518
 43   -0.011704 2.358754 2.451396 0.047028 -0.189378 -0.305722
time 18
  0   0.255147 -3.414167 -20.453379 0.761621 0.472880 -0.527886
  1   -1.093036 0.000002 -0.326057 -1.530877 -1.570749 -0.062204
  2   2.262337 0.113614 0.064702 -0.069599 -0.004206 0.027040
  3   2.380047 0.353302 0.047440 0.166466 -0.089841 0.489447
  4   2.033756 0.190472 -0.000128 0.106109 -0.020661 0.243228
  5   2.451511 0.204909 -0.003447 0.032659 -0.010280 0.304875
  6   7.247600 -0.397300 -0.109469 0.000013 -0.000015 -0.374948
  7   -2.022252 -0.104661 3.136172 -0.356585 -1.357884 -2.418455
  8   1.168026 -0.537438 -0.063437 -0.953655 0.509650 -1.084093
  9   6.790376 -0.619176 0.015206 -0.000269 -0.000285 -0.286702
 10   8.637599 0.544015 -0.090417 -1.555670 -0.039972 -0.064145
 11   6.790465 -0.619039 0.017802 -0.002473 -0.010969 -0.215790
 12   -2.022474 -0.104699 -2.873818 2.055496 1.980909 -0.674855
 13   1.167898 -0.537463 0.063297 0.483358 -0.484487 -0.406582
 14   7.002743 -0.617765 -0.183752 0.000229 0.000364 -0.875383
 15   8.209042 0.615527 -0.255885 1.570090 -0.000063 -0.069646
 16   7.002735 -0.617911 -0.183641 0.014344 0.004943 -0.631396
 17   1.574674 0.609930 -0.000899 0.063857 -0.400861 0.486880
 18   -0.602177 0.511412 -0.000006 0.000000 0.000000 0.000000
 19   3.665960 0.309837 1.146658 -0.000002 -0.000014 -0.174510
 20   3.665954 0.309810 -1.090221 0.000007 -0.000003 -0.174546
 21   2.887637 1.322821 1.549531 0.000002 -0.000011 -0.000026
 22   -0.226528 -0.758005 0.473551 0.000194 -0.057471 0.890061
 23   2.903280 1.315034 -1.584207 0.000019 0.000002 -0.000024
 24   -0.074270 -0.562670 -0.551668 0.000187 -0.057496 0.890104
 25   3.953053 2.094997 1.523858 0.102271 -0.029428 -0.168407
 26   3.902288 2.141901 -1.516125 -0.141155 -0.028485 -0.183628
 27   3.293379 1.455197 1.514501 -0.000019 -0.000022 -0.000050
 28   3.295809 1.454803 -1.501142 -0.000002 -0.000009 -0.000024
 29   8.824059 0.150544 0.091743 -0.187420 -0.066009 0.238127
 30   2.111085 -0.561179 1.784320 -0.000008 -0.000682 0.000024
 31   2.121290 -0.561289 -1.853599 0.000000 0.000000 -0.000002
 32   -0.814395 -0.093824 3.127092 -2.778027 -0.044684 1.859816
 33   14.298673 -0.408176 0.471578 -0.000028 -0.000041 -1.429434
 34   15.835795 0.581398 0.242756 -0.239210 0.410324 0.032896
 35   -0.815868 -0.091229 -3.114430 0.091724 3.529966 -0.981293
 36   14.294526 -0.410349 -0.467541 -0.000567 -0.000048 -1.722091
 37   15.834409 0.579420 -0.284600 -0.331337 0.161778 0.076599
 38   1.073277 -3.297494 -2.757405 0.260103 -0.148981 0.978185
 39   -4.457742 -1.054854 -0.746180 0.000000 0.000000 0.000000
 40   1.629835 -4.203698 3.182601 0.260103 -0.148981 0.978184
 41   -4.433840 -1.059130 0.959566 -0.000001 0.000000 0.000000
 42   0.397252 2.623111 -2.649550 0.086529 -0.005640 -0.335541
 43   0.003921 2.327503 2.388894 0.041905 -0.211911 -0.291962
time 19
  0   0.255147 -3.414167 -23.523785 0.937392 0.459011 -0.315278
  1   -1.093036 0.000002 -0.326057 -1.572276 -1.570425 -0.006413
  2   2.262337 0.113614 0.064702 -0.069599 -0.006675 0.027274
  3   2.380047 0.353302 0.047440 0.165236 -0.089145 0.489590
  4   2.033756 0.190472 -0.000128 0.121029 -0.022052 0.243228
  5   2.451511 0.204909 -0.003447 0.040653 -0.012773 0.304751
  6   7.247600 -0.397300 -0.109469 0.000013 -0.000015 -0.374948
  7   -2.022252 -0.104661 3.136172 -0.380070 -1.355981 -2.395351
  8   1.168026 -0.537438 -0.063437 -0.940303 0.504517 -1.096050
  9   6.790376 -0.619176 0.015206 -0.000269 -0.000285 -0.286702
 10   8.637599 0.544015 -0.090417 -1.549505 -0.057077 -0.061830
 11   6.790465 -0.619039 0.017802 -0.002473 -0.010969 -0.215790
 12   -2.022474 -0.104699 -2.873818 -1.175406 1.085956 -3.897213
 13   1.167898 -0.537463 0.063297 0.527434 -0.672242 -0.492178
 14   7.002743 -0.617765 -0.183752 0.000229 0.000364 -0.932064
 15   8.209042 0.615527 -0.255885 1.570090 -0.000063 -0.069646
 16   7.002735 -0.617911 -0.183641 0.014296 0.005225 -0.671024
 17   1.574674 0.609930 -0.000899 0.128160 -0.524095 0.320185
 18   -0.602177 0.511412 -0.000006 0.000000 0.000000 0.000000
 19   3.665960 0.309837 1.146658 -0.000002 -0.000014 -0.174510
 20   3.665954 0.309810 -1.090221 0.000007 -0.000003 -0.174546
 21   2.887637 1.322821 1.549531 0.000002 -0.000011 -0.000026
 22   -0.226528 -0.758005 0.473551 0.000194 -0.057471 0.890061
 23   2.903280 1.315034 -1.584207 0.000019 0.000002 -0.000024
 24   -0.074270 -0.562670 -0.551668 0.000187 -0.057496 0.890104
 25   3.953053 2.094997 1.523858 0.102271 -0.029428 -0.168407
 26   3.902288 2.141901 -1.516125 -0.141155 -0.028485 -0.183628
 27   3.293379 1.455197 1.514501 -0.000019 -0.000022 -0.000050
 28   3.295809 1.454803 -1.501142 -0.000002 -0.000009 -0.000024
 29   8.824059 0.150544 0.091743 -0.224852 -0.083172 0.219833
 30   2.111085 -0.561179 1.784320 -0.000008 -0.000682 0.000024
 31   2.121290 -0.561289 -1.853599 0.000000 0.000000 -0.000002
 32   -0.814395 -0.093824 3.127092 0.320990 -3.028817 -1.150453
 33   14.298673 -0.408176 0.471578 -0.000028 -0.000041 -1.362819
 34   15.835795 0.581398 0.242756 -0.261407 0.348583 -0.000314
 35   -0.815868 -0.091229 -3.114430 0.036891 3.593018 -0.867027
 36   14.294526 -0.410349 -0.467541 -0.000567 0.000012 -1.629862
 37   15.834409 0.579420 -0.284600 -0.283618 0.114350 0.024325
 38   1.108434 -3.317026 -2.761311 0.279763 -0.160899 0.874019
 39   -4.457742 -1.054854 -0.746180 0.000000 0.000000 0.000000
 40   1.559521 -4.145103 3.182601 0.279763 -0.160899 0.874018
 41   -4.433840 -1.059130 0.959566 -0.000001 0.000000 0.000000
 42   0.397252 2.611392 -2.622206 0.090052 0.011057 -0.330355
 43   0.015640 2.292346 2.326392 0.036533 -0.235181 -0.277533
time 20
  0   0.255147 -3.433699 -26.309025 1.011036 0.441408 -0.225884
  1   -1.093036 0.000002 -0.326057 -1.572119 -1.570425 0.005442
  2   2.262337 0.113614 0.064702 -0.069599 -0.008173 0.027347
  3   2.380047 0.353302 0.047440 0.164036 -0.088522 0.489692
  4   2.033756 0.190472 -0.000128 0.135229 -0.024293 0.243083
  5   2.451511 0.204909 -0.003447 0.048270 -0.015110 0.304751
  6   7.247600 -0.397300 -0.109469 0.000013 -0.000015 -0.374948
  7   -2.022252 -0.104661 3.136172 -0.393874 -1.354915 -2.381828
  8   1.168026 -0.537438 -0.063437 -0.928406 0.500845 -1.108638
  9   6.790376 -0.619176 0.015206 -0.000269 -0.000285 -0.286702
 10   8.637599 0.544015 -0.090417 -1.546247 -0.066720 -0.060528
 11   6.790465 -0.619039 0.017802 -0.002473 -0.010969 -0.215790
 12   -2.022474 -0.104699 -2.873818 -1.243046 1.007766 -3.956093
 13   1.167898 -0.537463 0.063297 0.675829 -0.768357 -0.568331
 14   7.002743 -0.617765 -0.183752 0.000229 0.000364 -0.988416
 15   8.209042 0.615527 -0.255885 1.570090 -0.000063 -0.069646
 16   7.002735 -0.617911 -0.183641 0.014249 0.005507 -0.710487
 17   1.574674 0.609930 -0.000899 0.184259 -0.602527 0.186239
 18   -0.602177 0.511412 -0.000006 0.000000 0.000000 0.000000
 19   3.665960 0.309837 1.146658 -0.000002 -0.000014 -0.174510
 20   3.665954 0.309810 -1.090221 0.000007 -0.000003 -0.174546
 21   2.887637 1.322821 1.549531 0.000002 -0.000011 -0.000026
 22   -0.226528 -0.758005 0.473551 0.000194 -0.057471 0.890061
 23   2.903280 1.315034 -1.584207 0.000019 0.000002 -0.000024
 24   -0.074270 -0.562670 -0.551668 0.000187 -0.057496 0.890104
 25   3.953053 2.094997 1.523858 0.102271 -0.029428 -0.168407
 26   3.902288 2.141901 -1.516125 -0.141155 -0.028485 -0.183628
 27   3.293379 1.455197 1.514501 -0.000019 -0.000022 -0.000050
 28   3.295809 1.454803 -1.501142 -0.000002 -0.000009 -0.000024
 29   8.824059 0.150544 0.091743 -0.263086 -0.100809 0.201056
 30   2.111085 -0.561179 1.784320 -0.000008 -0.000682 0.000024
 31   2.121290 -0.561289 -1.853599 0.000000 0.000000 -0.000002
 32   -0.814395 -0.093824 3.127092 0.255930 -2.965686 -1.004676
 33   14.298673 -0.408176 0.471578 -0.000028 -0.000054 -1.295648
 34   15.835795 0.581398 0.242756 -0.266445 0.273517 -0.016632
 35   -0.815868 -0.091229 -3.114430 -0.032024 3.640238 -0.735944
 36   14.294526 -0.410349 -0.467541 -0.000567 0.000072 -1.535470
 37   15.834409 0.579420 -0.284600 -0.218699 0.066666 -0.024754
 38   1.151404 -3.336558 -2.761311 0.296392 -0.170998 0.750730
 39   -4.457742 -1.054854 -0.746180 0.000000 0.000000 0.000000
 40   1.477487 -4.074788 3.186507 0.296392 -0.170997 0.750729
 41   -4.433840 -1.059130 0.959566 -0.000001 0.000000 0.000000
 42   0.393345 2.603580 -2.590955 0.093624 0.028229 -0.324960
 43   0.023453 2.261095 2.263890 0.031010 -0.258797 -0.262686
time 21
  0   0.255147 -3.476669 -28.855978 1.015742 0.440341 -0.231679
  1   -1.093036 0.000002 -0.326057 -1.571804 -1.570425 0.002781
  2   2.262337 0.113614 0.064702 -0.069599 -0.007849 0.027329
  3   2.380047 0.353302 0.047440 0.162956 -0.088055 0.489753
  4   2.033756 0.190472 -0.000128 0.148231 -0.027888 0.242612
  5   2.451511 0.204909 -0.003447 0.055219 -0.017408 0.304627
  6   7.247600 -0.397300 -0.109469 0.000013 -0.000015 -0.374948
  7   -2.022252 -0.104661 3.136172 -0.390040 -1.355145 -2.385396
  8   1.168026 -0.537438 -0.063437 -0.918914 0.500341 -1.122050
  9   6.790376 -0.619176 0.015206 -0.000269 -0.000285 -0.286702
 10   8.637599 0.544015 -0.090417 -1.546863 -0.064045 -0.060962
 11   6.790465 -0.619039 0.017802 -0.002473 -0.010969 -0.215790
 12   -2.022474 -0.104699 -2.873818 -1.295835 0.928705 -3.999081
 13   1.167898 -0.537463 0.063297 0.885523 -0.831620 -0.682681
 14   7.002743 -0.617765 -0.183752 0.000229 0.000364 -1.046004
 15   8.209042 0.615527 -0.255885 1.570090 -0.000063 -0.069646
 16   7.002735 -0.617911 -0.183641 0.014202 0.005845 -0.750833
 17   1.574674 0.609930 -0.000899 0.194780 -0.627945 0.139742
 18   -0.602177 0.511412 -0.000006 0.000000 0.000000 0.000000
 19   3.665960 0.309837 1.146658 -0.000002 -0.000014 -0.174510
 20   3.665954 0.309810 -1.090221 0.000007 -0.000003 -0.174546
 21   2.887637 1.322821 1.549531 0.000002 -0.000011 -0.000026
 22   -0.226528 -0.758005 0.473551 0.000194 -0.057471 0.890061
 23   2.903280 1.315034 -1.584207 0.000019 0.000002 -0.000024
 24   -0.074270 -0.562670 -0.551668 0.000187 -0.057496 0.890104
 25   3.953053 2.094997 1.523858 0.102271 -0.029428 -0.168407
 26   3.902288 2.141901 -1.516125 -0.141155 -0.028485 -0.183628
 27   3.293379 1.455197 1.514501 -0.000019 -0.000022 -0.000050
 28   3.295809 1.454803 -1.501142 -0.000002 -0.000009 -0.000024
 29   8.824059 0.150544 0.091743 -0.301498 -0.118612 0.182065
 30   2.111085 -0.561179 1.784320 -0.000008 -0.000682 0.000024
 31   2.121290 -0.561289 -1.853599 0.000000 0.000000 -0.000002
 32   -0.814395 -0.093824 3.127092 0.173813 -2.914876 -0.849791
 33   14.298673 -0.408176 0.471578 -0.000028 -0.000054 -1.228715
 34   15.835795 0.581398 0.242756 -0.254829 0.192131 -0.023423
 35   -0.815868 -0.091229 -3.114430 -0.109213 3.670218 -0.595604
 36   14.294526 -0.410349 -0.467541 -0.000567 0.000132 -1.441927
 37   15.834409 0.579420 -0.284600 -0.142964 0.022616 -0.071856
 38   1.202187 -3.363903 -2.765217 0.310263 -0.179409 0.613206
 39   -4.457742 -1.054854 -0.746180 0.000000 0.000000 0.000000
 40   1.387640 -3.992754 3.186507 0.310284 -0.179408 0.613206
 41   -4.433840 -1.059130 0.959566 -0.000001 0.000000 0.000000
 42   0.393345 2.591861 -2.559704 0.097183 0.045570 -0.319565
 43   0.031266 2.225938 2.201388 0.025438 -0.282381 -0.247672
time 22
  0   0.255147 -3.574328 -30.840414 1.039602 0.442386 -0.252199
  1   -1.093036 0.000002 -0.326057 -1.571699 -1.570425 0.005539
  2   2.262337 0.113614 0.064702 -0.069599 -0.004721 0.027076
  3   2.380047 0.353302 0.047440 0.161936 -0.087504 0.489896
  4   2.033756 0.190472 -0.000128 0.159740 -0.033593 0.241742
  5   2.451511 0.204909 -0.003447 0.061381 -0.019223 0.304429
  6   7.247600 -0.397300 -0.109469 0.000013 -0.000015 -0.374948
  7   -2.022252 -0.104661 3.136172 -0.361378 -1.357538 -2.413571
  8   1.168026 -0.537438 -0.063437 -0.913092 0.504517 -1.136346
  9   6.790376 -0.619176 0.015206 -0.000269 -0.000285 -0.286702
 10   8.637599 0.544015 -0.090417 -1.554349 -0.043421 -0.063856
 11   6.790465 -0.619039 0.017802 -0.002473 -0.010969 -0.215790
 12   -2.022474 -0.104699 -2.873818 -1.337416 0.850398 -4.031442
 13   1.167898 -0.537463 0.063297 1.099926 -0.843978 -0.788072
 14   7.002743 -0.617765 -0.183752 0.000229 0.000250 -1.101201
 15   8.209042 0.615527 -0.255885 1.570090 -0.000063 -0.069646
 16   7.002735 -0.617911 -0.183641 0.014155 0.006127 -0.789523
 17   1.574674 0.609930 -0.000899 -0.060323 -0.193090 0.483258
 18   -0.602177 0.511412 -0.000006 0.000000 0.000000 0.000000
 19   3.665960 0.309837 1.146658 -0.000002 -0.000014 -0.174510
 20   3.665954 0.309810 -1.090221 0.000007 -0.000003 -0.174546
 21   2.887637 1.322821 1.549531 0.000002 -0.000011 -0.000026
 22   -0.226528 -0.758005 0.473551 0.000194 -0.057471 0.890061
 23   2.903280 1.315034 -1.584207 0.000019 0.000002 -0.000024
 24   -0.074270 -0.562670 -0.551668 0.000187 -0.057496 0.890104
 25   3.953053 2.094997 1.523858 0.102271 -0.029428 -0.168407
 26   3.902288 2.141901 -1.516125 -0.141155 -0.028485 -0.183628
 27   3.293379 1.455197 1.514501 -0.000019 -0.000022 -0.000050
 28   3.295809 1.454803 -1.501142 -0.000002 -0.000009 -0.000024
 29   8.824059 0.150544 0.091743 -0.339376 -0.136274 0.163288
 30   2.111085 -0.561179 1.784320 -0.000008 -0.000682 0.000024
 31   2.121290 -0.561289 -1.853599 0.000000 0.000000 -0.000002
 32   -0.814395 -0.093824 3.127092 0.081723 -2.879061 -0.693425
 33   14.298673 -0.408176 0.471578 -0.000028 -0.000054 -1.163688
 34   15.835795 0.581398 0.242756 -0.229388 0.111330 -0.028142
 35   -0.815868 -0.091229 -3.114430 -0.189218 3.684459 -0.455483
 36   14.294526 -0.410349 -0.467541 -0.000555 0.000192 -1.353019
 37   15.834409 0.579420 -0.284600 -0.063209 -0.014881 -0.117894
 38   1.252970 -3.387341 -2.769124 0.321630 -0.186302 0.466091
 39   -4.457742 -1.054854 -0.746180 0.000000 0.000000 0.000000
 40   1.289981 -3.906814 3.186507 0.321630 -0.186301 0.466090
 41   -4.433840 -1.059130 0.959566 -0.000001 0.000000 0.000000
 42   0.393345 2.584048 -2.528453 0.100695 0.062757 -0.314212
 43   0.039078 2.190781 2.138886 0.019916 -0.305541 -0.232825
time 23
  0   0.247334 -3.890744 -30.426338 1.132400 0.443275 -0.266258
  1   -1.093036 0.000002 -0.326057 -1.570913 -1.570425 0.014103
  2   2.262337 0.113614 0.064702 -0.069599 0.001894 0.026714
  3   2.380047 0.353302 0.047440 0.161201 -0.086976 0.489957
  4   2.033756 0.190472 -0.000128 0.169274 -0.042018 0.240292
  5   2.451511 0.204909 -0.003447 0.066499 -0.020920 0.304330
  6   7.247600 -0.397300 -0.109469 0.000013 -0.000015 -0.374948
  7   -2.022252 -0.104661 3.136172 -0.299262 -1.361891 -2.474899
  8   1.168026 -0.537438 -0.063437 -0.911510 0.514731 -1.151972
  9   6.790376 -0.619176 0.015206 -0.000269 -0.000285 -0.286702
 10   8.637599 0.544015 -0.090417 -1.570024 0.000292 -0.069354
 11   6.790465 -0.619039 0.017802 -0.002473 -0.010969 -0.215790
 12   -2.022474 -0.104699 -2.873818 -1.370565 0.774529 -4.055472
 13   1.167898 -0.537463 0.063297 1.246705 -0.814533 -0.820458
 14   7.002743 -0.617765 -0.183752 0.000229 0.000364 -1.150044
 15   8.209042 0.615527 -0.255885 1.570090 -0.000063 -0.069646
 16   7.002735 -0.617911 -0.183641 0.014108 0.006409 -0.823632
 17   1.574674 0.609930 -0.000899 -0.156270 0.288341 0.788814
 18   -0.602177 0.511412 -0.000006 0.000000 0.000000 0.000000
 19   3.665960 0.309837 1.146658 -0.000002 -0.000014 -0.174510
 20   3.665954 0.309810 -1.090221 0.000007 -0.000003 -0.174546
 21   2.887637 1.322821 1.549531 0.000002 -0.000011 -0.000026
 22   -0.226528 -0.758005 0.473551 0.000194 -0.057471 0.890061
 23   2.903280 1.315034 -1.584207 0.000019 0.000002 -0.000024
 24   -0.074270 -0.562670 -0.551668 0.000187 -0.057496 0.890104
 25   3.953053 2.094997 1.523858 0.102271 -0.029428 -0.168407
 26   3.902288 2.141901 -1.516125 -0.141155 -0.028485 -0.183628
 27   3.293379 1.455197 1.514501 -0.000019 -0.000022 -0.000050
 28   3.295809 1.454803 -1.501142 -0.000002 -0.000009 -0.000024
 29   8.824059 0.150544 0.091743 -0.376094 -0.153436 0.144994
 30   2.111085 -0.561179 1.784320 -0.000008 -0.000682 0.000024
 31   2.121290 -0.561289 -1.853599 0.000000 0.000000 -0.000002
 32   -0.814395 -0.093824 3.127092 -0.011393 -2.859195 -0.544802
 33   14.298673 -0.408176 0.471578 -0.000028 -0.000067 -1.102552
 34   15.835795 0.581398 0.242756 -0.194884 0.037680 -0.037228
 35   -0.815868 -0.091229 -3.114430 -0.265703 3.686426 -0.324400
 36   14.294526 -0.410349 -0.467541 -0.000555 0.000240 -1.270986
 37   15.834409 0.579420 -0.284600 0.013000 -0.043752 -0.162664
 38   1.307659 -3.414685 -2.769124 0.330723 -0.191821 0.314210
 39   -4.457742 -1.054854 -0.746180 0.000000 0.000000 0.000000
 40   1.188416 -3.816968 3.190413 0.330723 -0.191820 0.314209
 41   -4.433840 -1.059130 0.959566 -0.000001 0.000000 0.000000
 42   0.389439 2.572329 -2.497202 0.104074 0.079469 -0.308984
 43   0.042985 2.155623 2.080290 0.014543 -0.327917 -0.218396
time 24
  0   0.247334 -4.375134 -27.977045 1.244930 0.451632 -0.294283
  1   -1.093036 0.000002 -0.326057 -1.572119 -1.570425 -0.005591
  2   2.262337 0.113614 0.064702 -0.069548 0.015545 0.025702
  3   2.380047 0.353302 0.047440 0.160766 -0.086773 0.489998
  4   2.033756 0.190472 -0.000128 0.174660 -0.055692 0.237936
  5   2.451511 0.204909 -0.003447 0.069272 -0.021860 0.304330
  6   7.247600 -0.397300 -0.109469 0.000013 -0.000015 -0.374948
  7   -2.022252 -0.104661 3.136172 -0.163431 -1.368175 -2.608166
  8   1.168026 -0.537438 -0.063437 -0.919863 0.537021 -1.170001
  9   6.790376 -0.619176 0.015206 -0.000269 -0.000285 -0.286702
 10   8.637599 0.544015 -0.090417 -1.603929 0.089617 -0.084112
 11   6.790465 -0.619039 0.017802 -0.002473 -0.010969 -0.215790
 12   -2.022474 -0.104699 -2.873818 -1.397104 0.704843 -4.073376
 13   1.167898 -0.537463 0.063297 1.157218 -0.707586 -0.556587
 14   7.002743 -0.617765 -0.183752 0.000229 0.000364 -1.182963
 15   8.209042 0.615527 -0.255885 1.570090 -0.000063 -0.069646
 16   7.002735 -0.617911 -0.183641 0.014061 0.006578 -0.846813
 17   1.574674 0.609930 -0.000899 -0.159805 0.047791 0.905981
 18   -0.602177 0.511412 -0.000006 0.000000 0.000000 0.000000
 19   3.665960 0.309837 1.146658 -0.000002 -0.000014 -0.174510
 20   3.665954 0.309810 -1.090221 0.000007 -0.000003 -0.174546
 21   2.887637 1.322821 1.549531 0.000002 -0.000011 -0.000026
 22   -0.226528 -0.758005 0.473551 0.000194 -0.057471 0.890061
 23   2.903280 1.315034 -1.584207 0.000019 0.000002 -0.000024
 24   -0.074270 -0.562670 -0.551668 0.000187 -0.057496 0.890104
 25   3.953053 2.094997 1.523858 0.102271 -0.029428 -0.168407
 26   3.902288 2.141901 -1.516125 -0.141155 -0.028485 -0.183628
 27   3.293379 1.455197 1.514501 -0.000019 -0.000022 -0.000050
 28   3.295809 1.454803 -1.501142 -0.000002 -0.000009 -0.000024
 29   8.824059 0.150544 0.091743 -0.411031 -0.169768 0.127558
 30   2.111085 -0.561179 1.784320 -0.000008 -0.000682 0.000024
 31   2.121290 -0.561289 -1.853599 0.000000 0.000000 -0.000002
 32   -0.814395 -0.093824 3.127092 -0.095095 -2.851937 -0.413369
 33   14.298673 -0.408176 0.471578 -0.000028 -0.000067 -1.046735
 34   15.835795 0.581398 0.242756 -0.157804 -0.022719 -0.055089
 35   -0.815868 -0.091229 -3.114430 -0.334266 3.680992 -0.210243
 36   14.294526 -0.410349 -0.467541 -0.000543 0.000276 -1.199767
 37   15.834409 0.579420 -0.284600 0.078608 -0.063896 -0.206014
 38   1.362348 -3.442030 -2.773030 0.337817 -0.196111 0.162329
 39   -4.457742 -1.054854 -0.746180 0.000000 0.000000 0.000000
 40   1.094663 -3.731028 3.190413 0.337817 -0.196110 0.162328
 41   -4.433840 -1.059130 0.959566 -0.000001 0.000000 0.000000
 42   0.389439 2.564516 -2.465951 0.107274 0.095384 -0.304007
 43   0.046891 2.124372 2.021695 0.009421 -0.349085 -0.204637
time 25
  0   0.247334 -4.730613 -26.719194 1.312217 0.459011 -0.315278
  1   -1.093036 0.000002 -0.326057 -1.570442 -1.570425 -0.001526
  2   2.262337 0.113614 0.064702 -0.069599 0.036913 0.024184
  3   2.380047 0.353302 0.047440 0.160736 -0.086761 0.489998
  4   2.033756 0.190472 -0.000128 0.175563 -0.075599 0.234529
  5   2.451511 0.204909 -0.003447 0.069700 -0.021978 0.304231
  6   7.247600 -0.397300 -0.109469 0.000025 -0.000027 -0.374948
  7   -2.022252 -0.104661 3.136172 0.060493 -1.370395 -2.827742
  8   1.168026 -0.537438 -0.063437 -0.940746 0.572241 -1.191763
  9   6.790376 -0.619176 0.015206 -0.000269 -0.000285 -0.286702
 10   8.637599 0.544015 -0.090417 -1.660026 0.229835 -0.114063
 11   6.790465 -0.619039 0.017802 -0.002473 -0.010969 -0.215790
 12   -2.022474 -0.104699 -2.873818 -1.415594 0.649814 -4.085057
 13   1.167898 -0.537463 0.063297 1.088187 -0.596825 -0.337209
 14   7.002743 -0.617765 -0.183752 0.000229 0.000364 -1.198639
 15   8.209042 0.615527 -0.255885 1.570090 -0.000063 -0.069646
 16   7.002735 -0.617911 -0.183641 0.014061 0.006635 -0.857686
 17   1.574674 0.609930 -0.000899 -0.185721 -0.406612 0.978055
 18   -0.602177 0.511412 -0.000006 0.000000 0.000000 0.000000
 19   3.665960 0.309837 1.146658 -0.000002 -0.000014 -0.174510
 20   3.665954 0.309810 -1.090221 0.000007 -0.000003 -0.174546
 21   2.887637 1.322821 1.549531 0.000002 -0.000011 -0.000026
 22   -0.226528 -0.758005 0.473551 0.000194 -0.057471 0.890061
 23   2.903280 1.315034 -1.584207 0.000019 0.000002 -0.000024
 24   -0.074270 -0.562670 -0.551668 0.000187 -0.057496 0.890104
 25   3.953053 2.094997 1.523858 0.102271 -0.029428 -0.168407
 26   3.902288 2.141901 -1.516125 -0.141155 -0.028485 -0.183628
 27   3.293379 1.455197 1.514501 -0.000019 -0.000022 -0.000050
 28   3.295809 1.454803 -1.501142 -0.000002 -0.000009 -0.000024
 29   8.824059 0.150544 0.091743 -0.443472 -0.185008 0.111357
 30   2.111085 -0.561179 1.784320 -0.000008 -0.000682 0.000024
 31   2.121290 -0.561289 -1.853599 0.000000 0.000000 -0.000002
 32   -0.814395 -0.093824 3.127092 -0.161553 -2.850600 -0.307892
 33   14.298673 -0.408176 0.471578 -0.000028 -0.000067 -0.997905
 34   15.835795 0.581398 0.242756 -0.126382 -0.065279 -0.082212
 35   -0.815868 -0.091229 -3.114430 -0.392268 3.674434 -0.119750
 36   14.294526 -0.410349 -0.467541 -0.000531 0.000311 -1.141911
 37   15.834409 0.579420 -0.284600 0.125717 -0.075619 -0.247234
 38   1.417037 -3.465468 -2.776937 0.343142 -0.199340 0.015214
 39   -4.457742 -1.054854 -0.746180 0.000000 0.000000 0.000000
 40   0.997004 -3.645087 3.194320 0.343142 -0.199340 0.015213
 41   -4.433840 -1.059130 0.959566 -0.000001 0.000000 0.000000
 42   0.389439 2.556703 -2.442513 0.110234 0.110211 -0.299406
 43   0.050798 2.093121 1.970912 0.004660 -0.368684 -0.191839
time 26
  0   0.247334 -4.800928 -28.133301 1.298842 0.460700 -0.319458
  1   -1.093036 0.000002 -0.326057 -1.570651 -1.570425 -0.015413
  2   2.262337 0.113614 0.064702 -0.069650 0.063016 0.022395
  3   2.380047 0.353302 0.047440 0.160901 -0.086832 0.489998
  4   2.033756 0.190472 -0.000128 0.173867 -0.098789 0.230433
  5   2.451511 0.204909 -0.003447 0.068553 -0.021468 0.304330
  6   7.247600 -0.397300 -0.109469 0.000013 -0.000015 -0.374948
  7   -2.022252 -0.104661 3.136172 -2.818984 -1.781097 0.058308
  8   1.168026 -0.537438 -0.063437 -0.972323 0.614203 -1.218522
  9   6.790376 -0.619176 0.015206 -0.000269 -0.000285 -0.286702
 10   8.637599 0.544015 -0.090417 -1.738140 0.395956 -0.162389
 11   6.790465 -0.619039 0.017802 -0.002473 -0.010969 -0.215790
 12   -2.022474 -0.104699 -2.873818 -1.427091 0.612663 -4.092046
 13   1.167898 -0.537463 0.063297 1.197287 -0.603944 -0.427769
 14   7.002743 -0.617765 -0.183752 0.000229 0.000364 -1.201445
 15   8.209042 0.615527 -0.255885 1.570090 -0.000063 -0.069646
 16   7.002735 -0.617911 -0.183641 0.014061 0.006691 -0.859673
 17   1.574674 0.609930 -0.000899 -0.207860 -0.634974 1.012724
 18   -0.602177 0.511412 -0.000006 0.000000 0.000000 0.000000
 19   3.665960 0.309837 1.146658 -0.000002 -0.000014 -0.174510
 20   3.665954 0.309810 -1.090221 0.000007 -0.000003 -0.174546
 21   2.887637 1.322821 1.549531 0.000002 -0.000011 -0.000026
 22   -0.226528 -0.758005 0.473551 0.000194 -0.057471 0.890061
 23   2.903280 1.315034 -1.584207 0.000019 0.000002 -0.000024
 24   -0.074270 -0.562670 -0.551668 0.000187 -0.057496 0.890104
 25   3.953053 2.094997 1.523858 0.102271 -0.029428 -0.168407
 26   3.902288 2.141901 -1.516125 -0.141155 -0.028485 -0.183628
 27   3.293379 1.455197 1.514501 -0.000019 -0.000022 -0.000050
 28   3.295809 1.454803 -1.501142 -0.000002 -0.000009 -0.000024
 29   8.824059 0.150544 0.091743 -0.472704 -0.198752 0.096711
 30   2.111085 -0.561179 1.784320 -0.000008 -0.000682 0.000024
 31   2.121290 -0.561289 -1.853599 0.000000 0.000000 -0.000002
 32   -0.814395 -0.093824 3.127092 -0.202938 -2.850600 -0.252222
 33   14.298673 -0.408176 0.471578 -0.000028 -0.000067 -0.963684
 34   15.835795 0.581398 0.242756 -0.106462 -0.080654 -0.110614
 35   -0.815868 -0.091229 -3.114430 -0.428178 3.664597 -0.074723
 36   14.294526 -0.410349 -0.467541 -0.000519 0.000335 -1.113640
 37   15.834409 0.579420 -0.284600 0.142148 -0.074672 -0.270202
 38   1.467820 -3.488906 -2.780843 0.346952 -0.201654 -0.122310
 39   -4.457742 -1.054854 -0.746180 0.000000 0.000000 0.000000
 40   0.903251 -3.563054 3.194320 0.346952 -0.201654 -0.122311
 41   -4.433840 -1.059130 0.959566 -0.000001 0.000000 0.000000
 42   0.389439 2.548891 -2.415168 0.112907 0.123611 -0.295224
 43   0.054704 2.065777 1.924036 0.000350 -0.386321 -0.180254
time 27
  0   0.247334 -4.750145 -30.688065 1.240389 0.459544 -0.317368
  1   -1.093036 0.000002 -0.326057 -1.571542 -1.570425 0.005877
  2   2.262337 0.113614 0.064702 -0.069790 0.089981 0.020444
  3   2.380047 0.353302 0.047440 0.161111 -0.086952 0.489998
  4   2.033756 0.190472 -0.000128 0.171690 -0.122830 0.226337
  5   2.451511 0.204909 -0.003447 0.067218 -0.021181 0.304330
  6   7.247600 -0.397300 -0.109469 0.000013 -0.000015 -0.374948
  7   -2.022252 -0.104661 3.136172 -2.585954 -1.804735 -0.168876
  8   1.168026 -0.537438 -0.063437 -1.010924 0.656618 -1.249393
  9   6.790376 -0.619176 0.015206 -0.000269 -0.000285 -0.286702
 10   8.637599 0.544015 -0.090417 -1.837389 0.564471 -0.234444
 11   6.790465 -0.619039 0.017802 -0.002473 -0.010969 -0.215790
 12   -2.022474 -0.104699 -2.873818 -1.436001 0.584016 -4.096737
 13   1.167898 -0.537463 0.063297 1.369021 -0.620014 -0.628200
 14   7.002743 -0.617765 -0.183752 0.000229 0.000364 -1.197649
 15   8.209042 0.615527 -0.255885 1.570090 -0.000063 -0.069646
 16   7.002735 -0.617911 -0.183641 0.014061 0.006635 -0.856913
 17   1.574674 0.609930 -0.000899 -0.172966 -0.222484 0.928379
 18   -0.602177 0.511412 -0.000006 0.000000 0.000000 0.000000
 19   3.665960 0.309837 1.146658 -0.000002 -0.000014 -0.174510
 20   3.665954 0.309810 -1.090221 0.000007 -0.000003 -0.174546
 21   2.887637 1.322821 1.549531 0.000002 -0.000011 -0.000026
 22   -0.226528 -0.758005 0.473551 0.000194 -0.057471 0.890061
 23   2.903280 1.315034 -1.584207 0.000019 0.000002 -0.000024
 24   -0.074270 -0.562670 -0.551668 0.000187 -0.057496 0.890104
 25   3.953053 2.094997 1.523858 0.102271 -0.029428 -0.168407
 26   3.902288 2.141901 -1.516125 -0.141155 -0.028485 -0.183628
 27   3.293379 1.455197 1.514501 -0.000019 -0.000022 -0.000050
 28   3.295809 1.454803 -1.501142 -0.000002 -0.000009 -0.000024
 29   8.824059 0.150544 0.091743 -0.498104 -0.210740 0.083889
 30   2.111085 -0.561179 1.784320 -0.000008 -0.000682 0.000024
 31   2.121290 -0.561289 -1.853599 0.000000 0.000000 -0.000002
 32   -0.814395 -0.093824 3.127092 -0.220741 -2.849454 -0.249490
 33   14.298673 -0.408176 0.471578 -0.000028 -0.000067 -0.946137
 34   15.835795 0.581398 0.242756 -0.096916 -0.070404 -0.132180
 35   -0.815868 -0.091229 -3.114430 -0.437859 3.648670 -0.080091
 36   14.294526 -0.410349 -0.467541 -0.000519 0.000323 -1.118429
 37   15.834409 0.579420 -0.284600 0.129165 -0.060825 -0.266096
 38   1.510790 -3.508438 -2.780843 0.349520 -0.203209 -0.245538
 39   -4.457742 -1.054854 -0.746180 0.000000 0.000000 0.000000
 40   0.825123 -3.492739 3.198226 0.349520 -0.203208 -0.245539
 41   -4.433840 -1.059130 0.959566 -0.000001 0.000000 0.000000
 42   0.385533 2.541078 -2.395636 0.115220 0.135279 -0.291586
 43   0.054704 2.042338 1.881065 -0.003386 -0.401620 -0.170133
time 28
  0   0.247334 -4.687643 -33.242832 1.181771 0.459011 -0.315278
  1   -1.093036 0.000002 -0.326057 -1.569813 -1.570425 0.003313
  2   2.262337 0.113614 0.064702 -0.070083 0.114825 0.018709
  3   2.380047 0.353302 0.047440 0.161201 -0.086988 0.489957
  4   2.033756 0.190472 -0.000128 0.170860 -0.145049 0.222459
  5   2.451511 0.204909 -0.003447 0.066499 -0.020920 0.304330
  6   7.247600 -0.397300 -0.109469 0.000013 -0.000015 -0.374948
  7   -2.022252 -0.104661 3.136172 -2.415710 -1.835177 -0.333699
  8   1.168026 -0.537438 -0.063437 -1.050854 0.694404 -1.282162
  9   6.790376 -0.619176 0.015206 -0.000269 -0.000285 -0.286702
 10   8.637599 0.544015 -0.090417 -1.953899 0.711868 -0.327840
 11   6.790465 -0.619039 0.017802 -0.002473 -0.010969 -0.215790
 12   -2.022474 -0.104699 -2.873818 -1.444145 0.555399 -4.101333
 13   1.167898 -0.537463 0.063297 1.540754 -0.600130 -0.827238
 14   7.002743 -0.617765 -0.183752 0.000229 0.000364 -1.193607
 15   8.209042 0.615527 -0.255885 1.570090 -0.000063 -0.069646
 16   7.002735 -0.617911 -0.183641 0.014061 0.006635 -0.854099
 17   1.574674 0.609930 -0.000899 -0.198679 0.444519 0.798461
 18   -0.602177 0.511412 -0.000006 0.000000 0.000000 0.000000
 19   3.665960 0.309837 1.146658 -0.000002 -0.000014 -0.174510
 20   3.665954 0.309810 -1.090221 0.000007 -0.000003 -0.174546
 21   2.887637 1.322821 1.549531 0.000002 -0.000011 -0.000026
 22   -0.226528 -0.758005 0.473551 0.000194 -0.057471 0.890061
 23   2.903280 1.315034 -1.584207 0.000019 0.000002 -0.000024
 24   -0.074270 -0.562670 -0.551668 0.000187 -0.057496 0.890104
 25   3.953053 2.094997 1.523858 0.102271 -0.029428 -0.168407
 26   3.902288 2.141901 -1.516125 -0.141155 -0.028485 -0.183628
 27   3.293379 1.455197 1.514501 -0.000019 -0.000022 -0.000050
 28   3.295809 1.454803 -1.501142 -0.000002 -0.000009 -0.000024
 29   8.824059 0.150544 0.091743 -0.519048 -0.220638 0.073374
 30   2.111085 -0.561179 1.784320 -0.000008 -0.000682 0.000024
 31   2.121290 -0.561289 -1.853599 0.000000 0.000000 -0.000002
 32   -0.814395 -0.093824 3.127092 -0.225495 -2.846971 -0.276528
 33   14.298673 -0.408176 0.471578 -0.000028 -0.000067 -0.938118
 34   15.835795 0.581398 0.242756 -0.093442 -0.045781 -0.149116
 35   -0.815868 -0.091229 -3.114430 -0.433459 3.629370 -0.113615
 36   14.294526 -0.410349 -0.467541 -0.000531 0.000311 -1.142065
 37   15.834409 0.579420 -0.284600 0.099453 -0.039555 -0.247032
 38   1.549854 -3.527970 -2.784749 0.351056 -0.204149 -0.349704
 39   -4.457742 -1.054854 -0.746180 0.000000 0.000000 0.000000
 40   0.754809 -3.434144 3.198226 0.351056 -0.204148 -0.349705
 41   -4.433840 -1.059130 0.959566 -0.000001 0.000000 0.000000
 42   0.385533 2.537171 -2.376104 0.117113 0.144908 -0.288574
 43   0.054704 2.022807 1.849815 -0.006484 -0.414189 -0.161853
time 29
  0   0.247334 -4.687643 -33.242832 1.181771 0.459011 -0.315278
  1   -1.093036 0.000002 -0.326057 -1.569813 -1.570425 0.003313
  2   2.262337 0.113614 0.064702 -0.070083 0.114825 0.018709
  3   2.380047 0.353302 0.047440 0.161201 -0.086988 0.489957
  4   2.033756 0.190472 -0.000128 0.170860 -0.145049 0.222459
  5   2.451511 0.204909 -0.003447 0.066499 -0.020920 0.304330
  6   7.247600 -0.397300 -0.109469 0.000013 -0.000015 -0.374948
  7   -2.022252 -0.104661 3.136172 -2.415710 -1.835177 -0.333699
  8   1.168026 -0.537438 -0.063437 -1.050854 0.694404 -1.282162
  9   6.790376 -0.619176 0.015206 -0.000269 -0.000285 -0.286702
 10   8.637599 0.544015 -0.090417 -1.953899 0.711868 -0.327840
 11   6.790465 -0.619039 0.017802 -0.002473 -0.010969 -0.215790
 12   -2.022474 -0.104699 -2.873818 -1.444145 0.555399 -4.101333
 13   1.167898 -0.537463 0.063297 1.540754 -0.600130 -0.827238
 14   7.002743 -0.617765 -0.183752 0.000229 0.000364 -1.193607
 15   8.209042 0.615527 -0.255885 1.570090 -0.000063 -0.069646
 16   7.002735 -0.617911 -0.183641 0.014061 0.006635 -0.854099
 17   1.574674 0.609930 -0.000899 -0.198679 0.444519 0.798461
 18   -0.602177 0.511412 -0.000006 0.000000 0.000000 0.000000
 19   3.665960 0.309837 1.146658 -0.000002 -0.000014 -0.174510
 20   3.665954 0.309810 -1.090221 0.000007 -0.000003 -0.174546
 21   2.887637 1.322821 1.549531 0.000002 -0.000011 -0.000026
 22   -0.226528 -0.758005 0.473551 0.000194 -0.057471 0.890061
 23   2.903280 1.315034 -1.584207 0.000019 0.000002 -0.000024
 24   -0.074270 -0.562670 -0.551668 0.000187 -0.057496 0.890104
 25   3.953053 2.094997 1.523858 0.102271 -0.029428 -0.168407
 26   3.902288 2.141901 -1.516125 -0.141155 -0.028485 -0.183628
 27   3.293379 1.455197 1.514501 -0.000019 -0.000022 -0.000050
 28   3.295809 1.454803 -1.501142 -0.000002 -0.000009 -0.000024
 29   8.824059 0.150544 0.091743 -0.534823 -0.228092 0.065434
 30   2.111085 -0.561179 1.784320 -0.000008 -0.000682 0.000024
 31   2.121290 -0.561289 -1.853599 0.000000 0.000000 -0.000002
 32   -0.814395 -0.093824 3.127092 -0.226893 -2.844105 -0.311592
 33   14.298673 -0.408176 0.471578 -0.000028 -0.000067 -0.932560
 34   15.835795 0.581398 0.242756 -0.090981 -0.017692 -0.165213
 35   -0.815868 -0.091229 -3.114430 -0.426681 3.609320 -0.153384
 36   14.294526 -0.410349 -0.467541 -0.000531 0.000299 -1.170723
 37   15.834409 0.579420 -0.284600 0.065822 -0.016340 -0.225281
 38   1.577198 -3.543595 -2.784749 0.351856 -0.204631 -0.430043
 39   -4.457742 -1.054854 -0.746180 0.000000 0.000000 0.000000
 40   0.700119 -3.387267 3.198226 0.351856 -0.204630 -0.430044
 41   -4.433840 -1.059130 0.959566 -0.000001 0.000000 0.000000
 42   0.385533 2.529359 -2.364385 0.118552 0.152175 -0.286316
 43   0.058610 2.007181 1.822470 -0.008808 -0.423635 -0.155537
time 30
  0   0.247334 -4.687643 -33.242832 1.181771 0.459011 -0.315278
  1   -1.093036 0.000002 -0.326057 -1.569813 -1.570425 0.003313
  2   2.262337 0.113614 0.064702 -0.070083 0.114825 0.018709
  3   2.380047 0.353302 0.047440 0.161201 -0.086988 0.489957
  4   2.033756 0.190472 -0.000128 0.170860 -0.145049 0.222459
  5   2.451511 0.204909 -0.003447 0.066499 -0.020920 0.304330
  6   7.247600 -0.397300 -0.109469 0.000013 -0.000015 -0.374948
  7   -2.022252 -0.104661 3.136172 -2.415710 -1.835177 -0.333699
  8   1.168026 -0.537438 -0.063437 -1.050854 0.694404 -1.282162
  9   6.790376 -0.619176 0.015206 -0.000269 -0.000285 -0.286702
 10   8.637599 0.544015 -0.090417 -1.953899 0.711868 -0.327840
 11   6.790465 -0.619039 0.017802 -0.002473 -0.010969 -0.215790
 12   -2.022474 -0.104699 -2.873818 -1.444145 0.555399 -4.101333
 13   1.167898 -0.537463 0.063297 1.540754 -0.600130 -0.827238
 14   7.002743 -0.617765 -0.183752 0.000229 0.000364 -1.193607
 15   8.209042 0.615527 -0.255885 1.570090 -0.000063 -0.069646
 16   7.002735 -0.617911 -0.183641 0.014061 0.006635 -0.854099
 17   1.574674 0.609930 -0.000899 -0.198679 0.444519 0.798461
 18   -0.602177 0.511412 -0.000006 0.000000 0.000000 0.000000
 19   3.665960 0.309837 1.146658 -0.000002 -0.000014 -0.174510
 20   3.665954 0.309810 -1.090221 0.000007 -0.000003 -0.174546
 21   2.887637 1.322821 1.549531 0.000002 -0.000011 -0.000026
 22   -0.226528 -0.758005 0.473551 0.000194 -0.057471 0.890061
 23   2.903280 1.315034 -1.584207 0.000019 0.000002 -0.000024
 24   -0.074270 -0.562670 -0.551668 0.000187 -0.057496 0.890104
 25   3.953053 2.094997 1.523858 0.102271 -0.029428 -0.168407
 26   3.902288 2.141901 -1.516125 -0.141155 -0.028485 -0.183628
 27   3.293379 1.455197 1.514501 -0.000019 -0.000022 -0.000050
 28   3.295809 1.454803 -1.501142 -0.000002 -0.000009 -0.000024
 29   8.824059 0.150544 0.091743 -0.544805 -0.232816 0.060391
 30   2.111085 -0.561179 1.784320 -0.000008 -0.000682 0.000024
 31   2.121290 -0.561289 -1.853599 0.000000 0.000000 -0.000002
 32   -0.814395 -0.093824 3.127092 -0.234536 -2.841527 -0.331173
 33   14.298673 -0.408176 0.471578 -0.000028 -0.000067 -0.922238
 34   15.835795 0.581398 0.242756 -0.085576 0.003124 -0.183119
 35   -0.815868 -0.091229 -3.114430 -0.427386 3.590957 -0.179293
 36   14.294526 -0.410349 -0.467541 -0.000543 0.000287 -1.189725
 37   15.834409 0.579420 -0.284600 0.040563 0.003471 -0.211337
 38   1.596730 -3.551408 -2.784749 0.352151 -0.204811 -0.481729
 39   -4.457742 -1.054854 -0.746180 0.000000 0.000000 0.000000
 40   0.668869 -3.359922 3.198226 0.352151 -0.204811 -0.481730
 41   -4.433840 -1.059130 0.959566 -0.000001 0.000000 0.000000
 42   0.385533 2.529359 -2.356573 0.119450 0.156775 -0.284894
 43   0.058610 1.999368 1.806844 -0.010295 -0.429598 -0.151564
time 31
  0   0.247334 -4.687643 -33.242832 1.181771 0.459011 -0.315278
  1   -1.093036 0.000002 -0.326057 -1.569813 -1.570425 0.003313
  2   2.262337 0.113614 0.064702 -0.070083 0.114825 0.018709
  3   2.380047 0.353302 0.047440 0.161201 -0.086988 0.489957
  4   2.033756 0.190472 -0.000128 0.170860 -0.145049 0.222459
  5   2.451511 0.204909 -0.003447 0.066499 -0.020920 0.304330
  6   7.247600 -0.397300 -0.109469 0.000013 -0.000015 -0.374948
  7   -2.022252 -0.104661 3.136172 -2.415710 -1.835177 -0.333699
  8   1.168026 -0.537438 -0.063437 -1.050854 0.694404 -1.282162
  9   6.790376 -0.619176 0.015206 -0.000269 -0.000285 -0.286702
 10   8.637599 0.544015 -0.090417 -1.953899 0.711868 -0.327840
 11   6.790465 -0.619039 0.017802 -0.002473 -0.010969 -0.215790
 12   -2.022474 -0.104699 -2.873818 -1.444145 0.555399 -4.101333
 13   1.167898 -0.537463 0.063297 1.540754 -0.600130 -0.827238
 14   7.002743 -0.617765 -0.183752 0.000229 0.000364 -1.193607
 15   8.209042 0.615527 -0.255885 1.570090 -0.000063 -0.069646
 16   7.002735 -0.617911 -0.183641 0.014061 0.006635 -0.854099
 17   1.574674 0.609930 -0.000899 -0.198679 0.444519 0.798461
 18   -0.602177 0.511412 -0.000006 0.000000 0.000000 0.000000
 19   3.665960 0.309837 1.146658 -0.000002 -0.000014 -0.174510
 20   3.665954 0.309810 -1.090221 0.000007 -0.000003 -0.174546
 21   2.887637 1.322821 1.549531 0.000002 -0.000011 -0.000026
 22   -0.226528 -0.758005 0.473551 0.000194 -0.057471 0.890061
 23   2.903280 1.315034 -1.584207 0.000019 0.000002 -0.000024
 24   -0.074270 -0.562670 -0.551668 0.000187 -0.057496 0.890104
 25   3.953053 2.094997 1.523858 0.102271 -0.029428 -0.168407
 26   3.902288 2.141901 -1.516125 -0.141155 -0.028485 -0.183628
 27   3.293379 1.455197 1.514501 -0.000019 -0.000022 -0.000050
 28   3.295809 1.454803 -1.501142 -0.000002 -0.000009 -0.000024
 29   8.824059 0.150544 0.091743 -0.548281 -0.234454 0.058674
 30   2.111085 -0.561179 1.784320 -0.000008 -0.000682 0.000024
 31   2.121290 -0.561289 -1.853599 0.000000 0.000000 -0.000002
 32   -0.814395 -0.093824 3.127092 -0.234536 -2.841527 -0.331173
 33   14.298673 -0.408176 0.471578 -0.000028 -0.000067 -0.922238
 34   15.835795 0.581398 0.242756 -0.085576 0.003124 -0.183119
 35   -0.815868 -0.091229 -3.114430 -0.427386 3.590957 -0.179293
 36   14.294526 -0.410349 -0.467541 -0.000543 0.000287 -1.189725
 37   15.834409 0.579420 -0.284600 0.040563 0.003471 -0.211337
 38   1.604543 -3.555315 -2.784749 0.352193 -0.204836 -0.499996
 39   -4.457742 -1.054854 -0.746180 0.000000 0.000000 0.000000
 40   0.653243 -3.348203 3.198226 0.352193 -0.204835 -0.499997
 41   -4.433840 -1.059130 0.959566 -0.000001 0.000000 0.000000
 42   0.385533 2.529359 -2.352666 0.119762 0.158369 -0.284392
 43   0.058610 1.995462 1.802938 -0.010807 -0.431653 -0.150184
end
