version 1
nodes
  0 "Bip01" -1
  1 "Bip01 Pelvis" 0
  2 "Bip01 Spine" 1
  3 "Bip01 Spine1" 2
  4 "Bip01 Spine2" 3
  5 "Bip01 Spine3" 4
  6 "Bip01 Neck" 5
  7 "Bip01 L Arm" 6
  8 "Bip01 L Arm1" 7
  9 "Bip01 L Arm2" 8
 10 "Bip01 L Hand" 9
 11 "Bip06 L elbow2-smooth" 8
 12 "Bip01 R Arm" 6
 13 "Bip01 R Arm1" 12
 14 "Bip01 R Arm2" 13
 15 "Bip01 R Hand" 14
 16 "Bip06 R elbow2-smooth" 13
 17 "Bip01 Head" 6
 18 "Bip06 Head_helper" 17
 19 "Bip06 Head_eyes_l" 18
 20 "Bip06 Head_eyes_r" 18
 21 "Bip06 Head_blink_l" 18
 22 "Bip06 Head_blink_smooth_l1" 21
 23 "Bip06 Head_blink_r" 18
 24 "Bip06 Head_blink_smooth_r1" 23
 25 "Bip06 Head_L_eyebrow" 18
 26 "Bip06 Head_R_eyebrow" 18
 27 "Bip06 Head_blink_l_lid" 18
 28 "Bip06 Head_blink_r_lid" 18
 29 "Bip06 bunny" 18
 30 "Bip06 bunnyL" 29
 31 "Bip06 bunnyR" 29
 32 "Bip01 L Leg" 1
 33 "Bip01 L Leg1" 32
 34 "Bip01 L Foot" 33
 35 "Bip01 R Leg" 1
 36 "Bip01 R Leg1" 35
 37 "Bip01 R Foot" 36
 38 "Bip03 HairR1" 17
 39 "Bip03 HairR2" 38
 40 "Bip03 HairL1" 17
 41 "Bip03 HairL2" 40
 42 "Bip03 swingR" 17
 43 "Bip03 swingL" 17
end
skeleton
time 0
  0   0.001233 -0.019532 2.285597 0.000000 0.000000 -1.571829
  1   -1.093036 0.000002 -0.326057 -1.570808 -1.570425 -0.000123
  2   2.262337 0.113614 0.064702 -0.000052 0.000049 0.131363
  3   2.380047 0.353302 0.047440 -0.265923 0.048701 0.176508
  4   2.033756 0.190472 -0.000128 -0.262005 0.067066 0.243808
  5   2.451511 0.204909 -0.003447 -0.139451 -0.002133 -0.017422
  6   7.247600 -0.397300 -0.109469 0.000001 0.000009 0.052298
  7   -2.022252 -0.104661 3.136172 1.070165 -1.170882 -4.229632
  8   1.168026 -0.537438 -0.063437 -0.512337 0.257273 -0.637095
  9   6.790376 -0.619176 0.015206 -0.000158 -0.000285 -1.110807
 10   8.637599 0.544015 -0.090417 -4.300299 0.240956 0.178642
 11   6.790465 -0.619039 0.017802 0.000768 -0.011623 -0.792770
 12   -2.022474 -0.104699 -2.873818 0.298873 1.361683 -2.901984
 13   1.167898 -0.537463 0.063297 0.714422 -0.857302 -1.281854
 14   7.002743 -0.617765 -0.183752 0.000229 0.000250 -1.945478
 15   8.209042 0.615527 -0.255885 1.831745 -0.254128 1.079277
 16   7.002735 -0.617911 -0.183641 0.012978 0.010920 -1.380527
 17   1.574674 0.609930 -0.000899 0.701247 -0.325340 0.125844
 18   -0.602177 0.511412 -0.000006 0.000000 0.000000 0.000000
 19   3.673773 0.177020 1.119313 -0.000002 -0.000014 -0.174510
 20   3.673767 0.176993 -1.117566 0.000007 -0.000003 -0.174546
 21   3.942357 1.334540 1.627658 0.000002 -0.000011 -0.000026
 22   -0.246060 -0.011889 0.516521 -0.000011 0.000031 0.000025
 23   3.942374 1.334565 -1.631083 0.000019 0.000002 -0.000024
 24   -0.246150 -0.011872 -0.516511 -0.000005 -0.000006 0.000048
 25   4.941364 1.997338 1.629330 0.000018 -0.000001 -0.000024
 26   4.941382 1.997366 -1.629410 -0.000001 0.000005 -0.000024
 27   2.914462 1.619264 1.514501 -0.000019 -0.000022 -0.000050
 28   2.916892 1.618870 -1.501142 -0.000002 -0.000009 -0.000024
 29   8.824059 0.150544 0.091743 0.000006 -0.000231 -0.174534
 30   2.111085 -0.561179 1.784320 -0.000008 -0.000682 0.000024
 31   2.121290 -0.561289 -1.853599 0.000000 0.000000 -0.000002
 32   -0.814395 -0.093824 3.127092 0.338887 -3.077717 -0.167408
 33   14.298673 -0.408176 0.471578 0.013215 -0.091859 -0.496506
 34   15.835795 0.581398 0.242756 -0.532539 -0.064474 0.362915
 35   -0.815868 -0.091229 -3.114430 -0.002012 2.881638 -0.314978
 36   14.294526 -0.410349 -0.467541 -0.021444 0.095337 -0.575480
 37   15.834409 0.579420 -0.284600 -0.051545 0.043118 0.201427
 38   1.139685 -3.453749 -2.823813 0.000000 0.000000 0.000001
 39   -4.457742 -1.054854 -0.746180 0.000000 0.000000 0.000000
 40   1.118101 -3.449769 3.237290 0.000000 0.000001 0.000000
 41   -4.433840 -1.059130 0.959566 -0.000001 0.000000 0.000000
 42   -0.657468 1.697302 -2.688614 0.000000 0.000002 0.000000
 43   -0.664068 1.698578 2.869377 0.000000 0.000002 0.000000
time 1
  0   0.001233 -0.019532 2.285597 0.000000 0.000000 -1.571829
  1   -1.093036 0.000002 -0.326057 -1.570808 -1.570425 -0.000123
  2   2.262337 0.113614 0.064702 -0.052518 0.006832 0.131254
  3   2.380047 0.353302 0.047440 -0.320061 0.062603 0.066950
  4   2.033756 0.190472 -0.000128 -0.313755 0.079758 0.240002
  5   2.451511 0.204909 -0.003447 -0.192599 -0.003151 -0.017323
  6   7.247600 -0.397300 -0.109469 0.000001 0.000009 0.052298
  7   -2.022252 -0.104661 3.136172 1.070165 -1.170882 -4.229632
  8   1.168026 -0.537438 -0.063437 -0.668577 0.136770 -0.591864
  9   6.790376 -0.619176 0.015206 -0.000158 -0.000285 -1.589120
 10   8.637599 0.544015 -0.090417 -4.070978 0.178520 0.480752
 11   6.790465 -0.619039 0.017802 0.002782 -0.011850 -1.127630
 12   -2.022474 -0.104699 -2.873818 0.298873 1.361683 -2.901984
 13   1.167898 -0.537463 0.063297 0.771221 -0.702958 -1.418239
 14   7.002743 -0.617765 -0.183752 0.000229 0.000250 -1.846472
 15   8.209042 0.615527 -0.255885 2.024948 -0.253068 0.952327
 16   7.002735 -0.617911 -0.183641 0.013120 0.010300 -1.311205
 17   1.574674 0.609930 -0.000899 0.861620 -0.501801 0.136859
 18   -0.602177 0.511412 -0.000006 0.000000 0.000000 0.000000
 19   3.673773 0.177020 1.119313 -0.000002 -0.000014 -0.174510
 20   3.673767 0.176993 -1.117566 0.000007 -0.000003 -0.174546
 21   3.942357 1.334540 1.627658 0.000002 -0.000011 -0.000026
 22   -0.246060 -0.011889 0.516521 -0.000011 0.000031 0.000025
 23   3.942374 1.334565 -1.631083 0.000019 0.000002 -0.000024
 24   -0.246150 -0.011872 -0.516511 -0.000005 -0.000006 0.000048
 25   4.941364 1.997338 1.629330 0.000018 -0.000001 -0.000024
 26   4.941382 1.997366 -1.629410 -0.000001 0.000005 -0.000024
 27   2.914462 1.619264 1.514501 -0.000019 -0.000022 -0.000050
 28   2.916892 1.618870 -1.501142 -0.000002 -0.000009 -0.000024
 29   8.824059 0.150544 0.091743 0.000006 -0.000231 -0.174534
 30   2.111085 -0.561179 1.784320 -0.000008 -0.000682 0.000024
 31   2.121290 -0.561289 -1.853599 0.000000 0.000000 -0.000002
 32   -0.814395 -0.093824 3.127092 0.338887 -3.077717 -0.167408
 33   14.298673 -0.408176 0.471578 0.013215 -0.091859 -0.496506
 34   15.835795 0.581398 0.242756 -0.532539 -0.064474 0.362915
 35   -0.815868 -0.091229 -3.114430 -0.002012 2.881638 -0.314978
 36   14.294526 -0.410349 -0.467541 -0.021444 0.095337 -0.575480
 37   15.834409 0.579420 -0.284600 -0.051545 0.043118 0.201427
 38   1.139685 -3.453749 -2.823813 0.000000 0.000000 0.000001
 39   -4.457742 -1.054854 -0.746180 0.000000 0.000000 0.000000
 40   1.118101 -3.449769 3.237290 0.000000 0.000001 0.000000
 41   -4.433840 -1.059130 0.959566 -0.000001 0.000000 0.000000
 42   -0.657468 1.697302 -2.688614 0.000000 0.000002 0.000000
 43   -0.664068 1.698578 2.869377 0.000000 0.000002 0.000000
time 2
  0   0.001233 -0.019532 2.285597 0.000000 0.000000 -1.571829
  1   -1.093036 0.000002 -0.326057 -1.570808 -1.570425 -0.000123
  2   2.262337 0.113614 0.064702 -0.105315 0.013771 0.130658
  3   2.380047 0.353302 0.047440 -0.375415 0.070453 -0.043056
  4   2.033756 0.190472 -0.000128 -0.365597 0.092317 0.235544
  5   2.451511 0.204909 -0.003447 -0.245764 -0.004013 -0.017125
  6   7.247600 -0.397300 -0.109469 0.000001 0.000009 0.052298
  7   -2.022252 -0.104661 3.136172 1.070165 -1.170882 -4.229632
  8   1.168026 -0.537438 -0.063437 -0.981815 0.057928 -0.484258
  9   6.790376 -0.619176 0.015206 -0.000158 -0.000285 -1.869179
 10   8.637599 0.544015 -0.090417 -3.784415 0.069274 0.887978
 11   6.790465 -0.619039 0.017802 0.004067 -0.011879 -1.323667
 12   -2.022474 -0.104699 -2.873818 0.298873 1.361683 -2.901984
 13   1.167898 -0.537463 0.063297 0.803276 -0.433378 -1.669761
 14   7.002743 -0.617765 -0.183752 0.000229 0.000250 -1.747383
 15   8.209042 0.615527 -0.255885 2.217504 -0.250723 0.826159
 16   7.002735 -0.617911 -0.183641 0.013308 0.009680 -1.241828
 17   1.574674 0.609930 -0.000899 1.038770 -0.684604 0.102522
 18   -0.602177 0.511412 -0.000006 0.000000 0.000000 0.000000
 19   3.673773 0.177020 1.119313 -0.000002 -0.000014 -0.174510
 20   3.673767 0.176993 -1.117566 0.000007 -0.000003 -0.174546
 21   3.942357 1.334540 1.627658 0.000002 -0.000011 -0.000026
 22   -0.246060 -0.011889 0.516521 -0.000011 0.000031 0.000025
 23   3.942374 1.334565 -1.631083 0.000019 0.000002 -0.000024
 24   -0.246150 -0.011872 -0.516511 -0.000005 -0.000006 0.000048
 25   4.941364 1.997338 1.629330 0.000018 -0.000001 -0.000024
 26   4.941382 1.997366 -1.629410 -0.000001 0.000005 -0.000024
 27   2.914462 1.619264 1.514501 -0.000019 -0.000022 -0.000050
 28   2.916892 1.618870 -1.501142 -0.000002 -0.000009 -0.000024
 29   8.824059 0.150544 0.091743 0.000006 -0.000231 -0.174534
 30   2.111085 -0.561179 1.784320 -0.000008 -0.000682 0.000024
 31   2.121290 -0.561289 -1.853599 0.000000 0.000000 -0.000002
 32   -0.814395 -0.093824 3.127092 0.338887 -3.077717 -0.167408
 33   14.298673 -0.408176 0.471578 0.013215 -0.091859 -0.496506
 34   15.835795 0.581398 0.242756 -0.532539 -0.064474 0.362915
 35   -0.815868 -0.091229 -3.114430 -0.002012 2.881638 -0.314978
 36   14.294526 -0.410349 -0.467541 -0.021444 0.095337 -0.575480
 37   15.834409 0.579420 -0.284600 -0.051545 0.043118 0.201427
 38   1.139685 -3.453749 -2.823813 0.000000 0.000000 0.000001
 39   -4.457742 -1.054854 -0.746180 0.000000 0.000000 0.000000
 40   1.118101 -3.449769 3.237290 0.000000 0.000001 0.000000
 41   -4.433840 -1.059130 0.959566 -0.000001 0.000000 0.000000
 42   -0.657468 1.697302 -2.688614 0.000000 0.000002 0.000000
 43   -0.664068 1.698578 2.869377 0.000000 0.000002 0.000000
time 3
  0   0.001233 -0.019532 2.285597 0.000000 0.000000 -1.571829
  1   -1.093036 0.000002 -0.326057 -1.570808 -1.570425 -0.000123
  2   2.262337 0.113614 0.064702 -0.129363 0.016911 0.130315
  3   2.380047 0.353302 0.047440 -0.400902 0.071987 -0.093192
  4   2.033756 0.190472 -0.000128 -0.389222 0.098094 0.233369
  5   2.451511 0.204909 -0.003447 -0.269933 -0.004261 -0.017001
  6   7.247600 -0.397300 -0.109469 0.000001 0.000009 0.052298
  7   -2.022252 -0.104661 3.136172 1.070165 -1.170882 -4.229632
  8   1.168026 -0.537438 -0.063437 -1.112616 0.076846 -0.395757
  9   6.790376 -0.619176 0.015206 -0.000158 -0.000285 -2.088639
 10   8.637599 0.544015 -0.090417 -3.636994 -0.207994 1.268219
 11   6.790465 -0.619039 0.017802 0.005147 -0.011935 -1.477371
 12   -2.022474 -0.104699 -2.873818 0.298873 1.361683 -2.901984
 13   1.167898 -0.537463 0.063297 0.814383 -0.277458 -1.794523
 14   7.002743 -0.617765 -0.183752 0.000229 0.000250 -1.866603
 15   8.209042 0.615527 -0.255885 2.312416 -0.245502 0.708170
 16   7.002735 -0.617911 -0.183641 0.013120 0.010413 -1.325390
 17   1.574674 0.609930 -0.000899 1.126594 -0.775461 0.073064
 18   -0.602177 0.511412 -0.000006 0.000000 0.000000 0.000000
 19   3.673773 0.177020 1.119313 -0.000002 -0.000014 -0.174510
 20   3.673767 0.176993 -1.117566 0.000007 -0.000003 -0.174546
 21   3.942357 1.334540 1.627658 0.000002 -0.000011 -0.000026
 22   -0.246060 -0.011889 0.516521 -0.000011 0.000031 0.000025
 23   3.942374 1.334565 -1.631083 0.000019 0.000002 -0.000024
 24   -0.246150 -0.011872 -0.516511 -0.000005 -0.000006 0.000048
 25   4.941364 1.997338 1.629330 0.000018 -0.000001 -0.000024
 26   4.941382 1.997366 -1.629410 -0.000001 0.000005 -0.000024
 27   2.914462 1.619264 1.514501 -0.000019 -0.000022 -0.000050
 28   2.916892 1.618870 -1.501142 -0.000002 -0.000009 -0.000024
 29   8.824059 0.150544 0.091743 0.000006 -0.000231 -0.174534
 30   2.111085 -0.561179 1.784320 -0.000008 -0.000682 0.000024
 31   2.121290 -0.561289 -1.853599 0.000000 0.000000 -0.000002
 32   -0.814395 -0.093824 3.127092 0.338887 -3.077717 -0.167408
 33   14.298673 -0.408176 0.471578 0.013215 -0.091859 -0.496506
 34   15.835795 0.581398 0.242756 -0.532539 -0.064474 0.362915
 35   -0.815868 -0.091229 -3.114430 -0.002012 2.881638 -0.314978
 36   14.294526 -0.410349 -0.467541 -0.021444 0.095337 -0.575480
 37   15.834409 0.579420 -0.284600 -0.051545 0.043118 0.201427
 38   1.139685 -3.453749 -2.823813 0.000000 0.000000 0.000001
 39   -4.457742 -1.054854 -0.746180 0.000000 0.000000 0.000000
 40   1.118101 -3.449769 3.237290 0.000000 0.000001 0.000000
 41   -4.433840 -1.059130 0.959566 -0.000001 0.000000 0.000000
 42   -0.657468 1.697302 -2.688614 0.000000 0.000002 0.000000
 43   -0.664068 1.698578 2.869377 0.000000 0.000002 0.000000
time 4
  0   0.001233 -0.019532 2.285597 0.000000 0.000000 -1.571829
  1   -1.093036 0.000002 -0.326057 -1.570808 -1.570425 -0.000123
  2   2.262337 0.113614 0.064702 -0.126319 0.016599 0.130333
  3   2.380047 0.353302 0.047440 -0.397692 0.071867 -0.086866
  4   2.033756 0.190472 -0.000128 -0.386253 0.097387 0.233514
  5   2.451511 0.204909 -0.003447 -0.266886 -0.004235 -0.017001
  6   7.247600 -0.397300 -0.109469 0.000001 0.000009 0.052298
  7   -2.022252 -0.104661 3.136172 1.070165 -1.170882 -4.229632
  8   1.168026 -0.537438 -0.063437 -1.110591 0.089827 -0.401830
  9   6.790376 -0.619176 0.015206 -0.000158 -0.000285 -2.077621
 10   8.637599 0.544015 -0.090417 -3.608197 -0.226929 1.238413
 11   6.790465 -0.619039 0.017802 0.005118 -0.011935 -1.469585
 12   -2.022474 -0.104699 -2.873818 0.298873 1.361683 -2.901984
 13   1.167898 -0.537463 0.063297 0.810868 -0.293782 -1.774607
 14   7.002743 -0.617765 -0.183752 0.000229 0.000250 -1.868583
 15   8.209042 0.615527 -0.255885 2.308461 -0.242098 0.658797
 16   7.002735 -0.617911 -0.183641 0.013120 0.010469 -1.326659
 17   1.574674 0.609930 -0.000899 1.108436 -0.774467 0.086961
 18   -0.602177 0.511412 -0.000006 0.000000 0.000000 0.000000
 19   3.673773 0.177020 1.119313 -0.000002 -0.000014 -0.174510
 20   3.673767 0.176993 -1.117566 0.000007 -0.000003 -0.174546
 21   3.942357 1.334540 1.627658 0.000002 -0.000011 -0.000026
 22   -0.246060 -0.011889 0.516521 -0.000011 0.000031 0.000025
 23   3.942374 1.334565 -1.631083 0.000019 0.000002 -0.000024
 24   -0.246150 -0.011872 -0.516511 -0.000005 -0.000006 0.000048
 25   4.941364 1.997338 1.629330 0.000018 -0.000001 -0.000024
 26   4.941382 1.997366 -1.629410 -0.000001 0.000005 -0.000024
 27   2.914462 1.619264 1.514501 -0.000019 -0.000022 -0.000050
 28   2.916892 1.618870 -1.501142 -0.000002 -0.000009 -0.000024
 29   8.824059 0.150544 0.091743 0.000006 -0.000231 -0.174534
 30   2.111085 -0.561179 1.784320 -0.000008 -0.000682 0.000024
 31   2.121290 -0.561289 -1.853599 0.000000 0.000000 -0.000002
 32   -0.814395 -0.093824 3.127092 0.338887 -3.077717 -0.167408
 33   14.298673 -0.408176 0.471578 0.013215 -0.091859 -0.496506
 34   15.835795 0.581398 0.242756 -0.532539 -0.064474 0.362915
 35   -0.815868 -0.091229 -3.114430 -0.002012 2.881638 -0.314978
 36   14.294526 -0.410349 -0.467541 -0.021444 0.095337 -0.575480
 37   15.834409 0.579420 -0.284600 -0.051545 0.043118 0.201427
 38   1.139685 -3.453749 -2.823813 0.000000 0.000000 0.000001
 39   -4.457742 -1.054854 -0.746180 0.000000 0.000000 0.000000
 40   1.118101 -3.449769 3.237290 0.000000 0.000001 0.000000
 41   -4.433840 -1.059130 0.959566 -0.000001 0.000000 0.000000
 42   -0.657468 1.697302 -2.688614 0.000000 0.000002 0.000000
 43   -0.664068 1.698578 2.869377 0.000000 0.000002 0.000000
time 5
  0   0.001233 -0.019532 2.285597 0.000000 0.000000 -1.571829
  1   -1.093036 0.000002 -0.326057 -1.570808 -1.570425 -0.000123
  2   2.262337 0.113614 0.064702 -0.117874 0.015545 0.130477
  3   2.380047 0.353302 0.047440 -0.388811 0.071556 -0.069399
  4   2.033756 0.190472 -0.000128 -0.378046 0.095314 0.234420
  5   2.451511 0.204909 -0.003447 -0.258396 -0.004222 -0.017125
  6   7.247600 -0.397300 -0.109469 0.000001 0.000009 0.052298
  7   -2.022252 -0.104661 3.136172 1.070165 -1.170882 -4.229632
  8   1.168026 -0.537438 -0.063437 -1.081229 0.106330 -0.446302
  9   6.790376 -0.619176 0.015206 -0.000158 -0.000285 -2.010681
 10   8.637599 0.544015 -0.090417 -3.649940 -0.103816 1.100453
 11   6.790465 -0.619039 0.017802 0.004767 -0.011935 -1.422753
 12   -2.022474 -0.104699 -2.873818 0.298873 1.361683 -2.901984
 13   1.167898 -0.537463 0.063297 0.805385 -0.348502 -1.729448
 14   7.002743 -0.617765 -0.183752 0.000229 0.000250 -1.826093
 15   8.209042 0.615527 -0.255885 2.270928 -0.246637 0.736795
 16   7.002735 -0.617911 -0.183641 0.013167 0.010187 -1.296910
 17   1.574674 0.609930 -0.000899 1.074395 -0.747202 0.102781
 18   -0.602177 0.511412 -0.000006 0.000000 0.000000 0.000000
 19   3.673773 0.177020 1.119313 -0.000002 -0.000014 -0.174510
 20   3.673767 0.176993 -1.117566 0.000007 -0.000003 -0.174546
 21   3.942357 1.334540 1.627658 0.000002 -0.000011 -0.000026
 22   -0.246060 -0.011889 0.516521 -0.000011 0.000031 0.000025
 23   3.942374 1.334565 -1.631083 0.000019 0.000002 -0.000024
 24   -0.246150 -0.011872 -0.516511 -0.000005 -0.000006 0.000048
 25   4.941364 1.997338 1.629330 0.000018 -0.000001 -0.000024
 26   4.941382 1.997366 -1.629410 -0.000001 0.000005 -0.000024
 27   2.914462 1.619264 1.514501 -0.000019 -0.000022 -0.000050
 28   2.916892 1.618870 -1.501142 -0.000002 -0.000009 -0.000024
 29   8.824059 0.150544 0.091743 0.000006 -0.000231 -0.174534
 30   2.111085 -0.561179 1.784320 -0.000008 -0.000682 0.000024
 31   2.121290 -0.561289 -1.853599 0.000000 0.000000 -0.000002
 32   -0.814395 -0.093824 3.127092 0.338887 -3.077717 -0.167408
 33   14.298673 -0.408176 0.471578 0.013215 -0.091859 -0.496506
 34   15.835795 0.581398 0.242756 -0.532539 -0.064474 0.362915
 35   -0.815868 -0.091229 -3.114430 -0.002012 2.881638 -0.314978
 36   14.294526 -0.410349 -0.467541 -0.021444 0.095337 -0.575480
 37   15.834409 0.579420 -0.284600 -0.051545 0.043118 0.201427
 38   1.139685 -3.453749 -2.823813 0.000000 0.000000 0.000001
 39   -4.457742 -1.054854 -0.746180 0.000000 0.000000 0.000000
 40   1.118101 -3.449769 3.237290 0.000000 0.000001 0.000000
 41   -4.433840 -1.059130 0.959566 -0.000001 0.000000 0.000000
 42   -0.657468 1.697302 -2.688614 0.000000 0.000002 0.000000
 43   -0.664068 1.698578 2.869377 0.000000 0.000002 0.000000
time 6
  0   0.001233 -0.019532 2.285597 0.000000 0.000000 -1.571829
  1   -1.093036 0.000002 -0.326057 -1.570808 -1.570425 -0.000123
  2   2.262337 0.113614 0.064702 -0.105315 0.013771 0.130658
  3   2.380047 0.353302 0.047440 -0.375415 0.070453 -0.043056
  4   2.033756 0.190472 -0.000128 -0.365597 0.092317 0.235544
  5   2.451511 0.204909 -0.003447 -0.245764 -0.004013 -0.017125
  6   7.247600 -0.397300 -0.109469 0.000001 0.000009 0.052298
  7   -2.022252 -0.104661 3.136172 1.070165 -1.170882 -4.229632
  8   1.168026 -0.537438 -0.063437 -1.010734 0.135261 -0.505324
  9   6.790376 -0.619176 0.015206 -0.000158 -0.000285 -1.940421
 10   8.637599 0.544015 -0.090417 -3.741087 0.018734 0.939631
 11   6.790465 -0.619039 0.017802 0.004417 -0.011935 -1.373556
 12   -2.022474 -0.104699 -2.873818 0.298873 1.361683 -2.901984
 13   1.167898 -0.537463 0.063297 0.795543 -0.423156 -1.655717
 14   7.002743 -0.617765 -0.183752 0.000229 0.000250 -1.818090
 15   8.209042 0.615527 -0.255885 2.216785 -0.251026 0.832293
 16   7.002735 -0.617911 -0.183641 0.013214 0.010187 -1.291391
 17   1.574674 0.609930 -0.000899 1.027112 -0.703135 0.120448
 18   -0.602177 0.511412 -0.000006 0.000000 0.000000 0.000000
 19   3.673773 0.177020 1.119313 -0.000002 -0.000014 -0.174510
 20   3.673767 0.176993 -1.117566 0.000007 -0.000003 -0.174546
 21   3.942357 1.334540 1.627658 0.000002 -0.000011 -0.000026
 22   -0.246060 -0.011889 0.516521 -0.000011 0.000031 0.000025
 23   3.942374 1.334565 -1.631083 0.000019 0.000002 -0.000024
 24   -0.246150 -0.011872 -0.516511 -0.000005 -0.000006 0.000048
 25   4.941364 1.997338 1.629330 0.000018 -0.000001 -0.000024
 26   4.941382 1.997366 -1.629410 -0.000001 0.000005 -0.000024
 27   2.914462 1.619264 1.514501 -0.000019 -0.000022 -0.000050
 28   2.916892 1.618870 -1.501142 -0.000002 -0.000009 -0.000024
 29   8.824059 0.150544 0.091743 0.000006 -0.000231 -0.174534
 30   2.111085 -0.561179 1.784320 -0.000008 -0.000682 0.000024
 31   2.121290 -0.561289 -1.853599 0.000000 0.000000 -0.000002
 32   -0.814395 -0.093824 3.127092 0.338887 -3.077717 -0.167408
 33   14.298673 -0.408176 0.471578 0.013215 -0.091859 -0.496506
 34   15.835795 0.581398 0.242756 -0.532539 -0.064474 0.362915
 35   -0.815868 -0.091229 -3.114430 -0.002012 2.881638 -0.314978
 36   14.294526 -0.410349 -0.467541 -0.021444 0.095337 -0.575480
 37   15.834409 0.579420 -0.284600 -0.051545 0.043118 0.201427
 38   1.139685 -3.453749 -2.823813 0.000000 0.000000 0.000001
 39   -4.457742 -1.054854 -0.746180 0.000000 0.000000 0.000000
 40   1.118101 -3.449769 3.237290 0.000000 0.000001 0.000000
 41   -4.433840 -1.059130 0.959566 -0.000001 0.000000 0.000000
 42   -0.657468 1.697302 -2.688614 0.000000 0.000002 0.000000
 43   -0.664068 1.698578 2.869377 0.000000 0.000002 0.000000
time 7
  0   0.001233 -0.019532 2.285597 0.000000 0.000000 -1.571829
  1   -1.093036 0.000002 -0.326057 -1.570808 -1.570425 -0.000123
  2   2.262337 0.113614 0.064702 -0.089571 0.011782 0.130857
  3   2.380047 0.353302 0.047440 -0.358779 0.068752 -0.009897
  4   2.033756 0.190472 -0.000128 -0.350087 0.088686 0.236885
  5   2.451511 0.204909 -0.003447 -0.229828 -0.003608 -0.017224
  6   7.247600 -0.397300 -0.109469 0.000001 0.000009 0.052298
  7   -2.022252 -0.104661 3.136172 1.070165 -1.170882 -4.229632
  8   1.168026 -0.537438 -0.063437 -0.907840 0.174355 -0.560297
  9   6.790376 -0.619176 0.015206 -0.000158 -0.000285 -1.875443
 10   8.637599 0.544015 -0.090417 -3.859358 0.116999 0.792772
 11   6.790465 -0.619039 0.017802 0.004096 -0.011935 -1.328108
 12   -2.022474 -0.104699 -2.873818 0.298873 1.361683 -2.901984
 13   1.167898 -0.537463 0.063297 0.783523 -0.511796 -1.567760
 14   7.002743 -0.617765 -0.183752 0.000229 0.000250 -1.836241
 15   8.209042 0.615527 -0.255885 2.150994 -0.253825 0.931941
 16   7.002735 -0.617911 -0.183641 0.013167 0.010244 -1.303975
 17   1.574674 0.609930 -0.000899 0.972273 -0.646192 0.135787
 18   -0.602177 0.511412 -0.000006 0.000000 0.000000 0.000000
 19   3.673773 0.177020 1.119313 -0.000002 -0.000014 -0.174510
 20   3.673767 0.176993 -1.117566 0.000007 -0.000003 -0.174546
 21   3.942357 1.334540 1.627658 0.000002 -0.000011 -0.000026
 22   -0.246060 -0.011889 0.516521 -0.000011 0.000031 0.000025
 23   3.942374 1.334565 -1.631083 0.000019 0.000002 -0.000024
 24   -0.246150 -0.011872 -0.516511 -0.000005 -0.000006 0.000048
 25   4.941364 1.997338 1.629330 0.000018 -0.000001 -0.000024
 26   4.941382 1.997366 -1.629410 -0.000001 0.000005 -0.000024
 27   2.914462 1.619264 1.514501 -0.000019 -0.000022 -0.000050
 28   2.916892 1.618870 -1.501142 -0.000002 -0.000009 -0.000024
 29   8.824059 0.150544 0.091743 0.000006 -0.000231 -0.174534
 30   2.111085 -0.561179 1.784320 -0.000008 -0.000682 0.000024
 31   2.121290 -0.561289 -1.853599 0.000000 0.000000 -0.000002
 32   -0.814395 -0.093824 3.127092 0.338887 -3.077717 -0.167408
 33   14.298673 -0.408176 0.471578 0.013215 -0.091859 -0.496506
 34   15.835795 0.581398 0.242756 -0.532539 -0.064474 0.362915
 35   -0.815868 -0.091229 -3.114430 -0.002012 2.881638 -0.314978
 36   14.294526 -0.410349 -0.467541 -0.021444 0.095337 -0.575480
 37   15.834409 0.579420 -0.284600 -0.051545 0.043118 0.201427
 38   1.139685 -3.453749 -2.823813 0.000000 0.000000 0.000001
 39   -4.457742 -1.054854 -0.746180 0.000000 0.000000 0.000000
 40   1.118101 -3.449769 3.237290 0.000000 0.000001 0.000000
 41   -4.433840 -1.059130 0.959566 -0.000001 0.000000 0.000000
 42   -0.657468 1.697302 -2.688614 0.000000 0.000002 0.000000
 43   -0.664068 1.698578 2.869377 0.000000 0.000002 0.000000
time 8
  0   0.001233 -0.019532 2.285597 0.000000 0.000000 -1.571829
  1   -1.093036 0.000002 -0.326057 -1.570808 -1.570425 -0.000123
  2   2.262337 0.113614 0.064702 -0.071637 0.009445 0.131092
  3   2.380047 0.353302 0.047440 -0.339998 0.066271 0.027343
  4   2.033756 0.190472 -0.000128 -0.332419 0.084348 0.238516
  5   2.451511 0.204909 -0.003447 -0.211770 -0.003465 -0.017224
  6   7.247600 -0.397300 -0.109469 0.000001 0.000009 0.052298
  7   -2.022252 -0.104661 3.136172 1.070165 -1.170882 -4.229632
  8   1.168026 -0.537438 -0.063437 -0.783557 0.219336 -0.595470
  9   6.790376 -0.619176 0.015206 -0.000158 -0.000285 -1.801485
 10   8.637599 0.544015 -0.090417 -3.992688 0.187460 0.655463
 11   6.790465 -0.619039 0.017802 0.003775 -0.011879 -1.276259
 12   -2.022474 -0.104699 -2.873818 0.298873 1.361683 -2.901984
 13   1.167898 -0.537463 0.063297 0.770307 -0.606589 -1.479379
 14   7.002743 -0.617765 -0.183752 0.000229 0.000250 -1.870481
 15   8.209042 0.615527 -0.255885 2.079235 -0.255111 1.022267
 16   7.002735 -0.617911 -0.183641 0.013120 0.010469 -1.328039
 17   1.574674 0.609930 -0.000899 0.914103 -0.580824 0.145655
 18   -0.602177 0.511412 -0.000006 0.000000 0.000000 0.000000
 19   3.673773 0.177020 1.119313 -0.000002 -0.000014 -0.174510
 20   3.673767 0.176993 -1.117566 0.000007 -0.000003 -0.174546
 21   3.942357 1.334540 1.627658 0.000002 -0.000011 -0.000026
 22   -0.246060 -0.011889 0.516521 -0.000011 0.000031 0.000025
 23   3.942374 1.334565 -1.631083 0.000019 0.000002 -0.000024
 24   -0.246150 -0.011872 -0.516511 -0.000005 -0.000006 0.000048
 25   4.941364 1.997338 1.629330 0.000018 -0.000001 -0.000024
 26   4.941382 1.997366 -1.629410 -0.000001 0.000005 -0.000024
 27   2.914462 1.619264 1.514501 -0.000019 -0.000022 -0.000050
 28   2.916892 1.618870 -1.501142 -0.000002 -0.000009 -0.000024
 29   8.824059 0.150544 0.091743 0.000006 -0.000231 -0.174534
 30   2.111085 -0.561179 1.784320 -0.000008 -0.000682 0.000024
 31   2.121290 -0.561289 -1.853599 0.000000 0.000000 -0.000002
 32   -0.814395 -0.093824 3.127092 0.338887 -3.077717 -0.167408
 33   14.298673 -0.408176 0.471578 0.013215 -0.091859 -0.496506
 34   15.835795 0.581398 0.242756 -0.532539 -0.064474 0.362915
 35   -0.815868 -0.091229 -3.114430 -0.002012 2.881638 -0.314978
 36   14.294526 -0.410349 -0.467541 -0.021444 0.095337 -0.575480
 37   15.834409 0.579420 -0.284600 -0.051545 0.043118 0.201427
 38   1.139685 -3.453749 -2.823813 0.000000 0.000000 0.000001
 39   -4.457742 -1.054854 -0.746180 0.000000 0.000000 0.000000
 40   1.118101 -3.449769 3.237290 0.000000 0.000001 0.000000
 41   -4.433840 -1.059130 0.959566 -0.000001 0.000000 0.000000
 42   -0.657468 1.697302 -2.688614 0.000000 0.000002 0.000000
 43   -0.664068 1.698578 2.869377 0.000000 0.000002 0.000000
time 9
  0   0.001233 -0.019532 2.285597 0.000000 0.000000 -1.571829
  1   -1.093036 0.000002 -0.326057 -1.570808 -1.570425 -0.000123
  2   2.262337 0.113614 0.064702 -0.052518 0.006832 0.131254
  3   2.380047 0.353302 0.047440 -0.320061 0.062603 0.066950
  4   2.033756 0.190472 -0.000128 -0.313755 0.079758 0.240002
  5   2.451511 0.204909 -0.003447 -0.192599 -0.003151 -0.017323
  6   7.247600 -0.397300 -0.109469 0.000001 0.000009 0.052298
  7   -2.022252 -0.104661 3.136172 1.070165 -1.170882 -4.229632
  8   1.168026 -0.537438 -0.063437 -0.651428 0.266380 -0.600151
  9   6.790376 -0.619176 0.015206 -0.000158 -0.000285 -1.713792
 10   8.637599 0.544015 -0.090417 -4.111928 0.225119 0.537542
 11   6.790465 -0.619039 0.017802 0.003337 -0.011850 -1.214835
 12   -2.022474 -0.104699 -2.873818 0.298873 1.361683 -2.901984
 13   1.167898 -0.537463 0.063297 0.757091 -0.697618 -1.401289
 14   7.002743 -0.617765 -0.183752 0.000229 0.000250 -1.913301
 15   8.209042 0.615527 -0.255885 2.006829 -0.255338 1.090042
 16   7.002735 -0.617911 -0.183641 0.013025 0.010751 -1.358009
 17   1.574674 0.609930 -0.000899 0.855690 -0.511670 0.148871
 18   -0.602177 0.511412 -0.000006 0.000000 0.000000 0.000000
 19   3.673773 0.177020 1.119313 -0.000002 -0.000014 -0.174510
 20   3.673767 0.176993 -1.117566 0.000007 -0.000003 -0.174546
 21   3.942357 1.334540 1.627658 0.000002 -0.000011 -0.000026
 22   -0.246060 -0.011889 0.516521 -0.000011 0.000031 0.000025
 23   3.942374 1.334565 -1.631083 0.000019 0.000002 -0.000024
 24   -0.246150 -0.011872 -0.516511 -0.000005 -0.000006 0.000048
 25   4.941364 1.997338 1.629330 0.000018 -0.000001 -0.000024
 26   4.941382 1.997366 -1.629410 -0.000001 0.000005 -0.000024
 27   2.914462 1.619264 1.514501 -0.000019 -0.000022 -0.000050
 28   2.916892 1.618870 -1.501142 -0.000002 -0.000009 -0.000024
 29   8.824059 0.150544 0.091743 0.000006 -0.000231 -0.174534
 30   2.111085 -0.561179 1.784320 -0.000008 -0.000682 0.000024
 31   2.121290 -0.561289 -1.853599 0.000000 0.000000 -0.000002
 32   -0.814395 -0.093824 3.127092 0.338887 -3.077717 -0.167408
 33   14.298673 -0.408176 0.471578 0.013215 -0.091859 -0.496506
 34   15.835795 0.581398 0.242756 -0.532539 -0.064474 0.362915
 35   -0.815868 -0.091229 -3.114430 -0.002012 2.881638 -0.314978
 36   14.294526 -0.410349 -0.467541 -0.021444 0.095337 -0.575480
 37   15.834409 0.579420 -0.284600 -0.051545 0.043118 0.201427
 38   1.139685 -3.453749 -2.823813 0.000000 0.000000 0.000001
 39   -4.457742 -1.054854 -0.746180 0.000000 0.000000 0.000000
 40   1.118101 -3.449769 3.237290 0.000000 0.000001 0.000000
 41   -4.433840 -1.059130 0.959566 -0.000001 0.000000 0.000000
 42   -0.657468 1.697302 -2.688614 0.000000 0.000002 0.000000
 43   -0.664068 1.698578 2.869377 0.000000 0.000002 0.000000
time 10
  0   0.001233 -0.019532 2.285597 0.000000 0.000000 -1.571829
  1   -1.093036 0.000002 -0.326057 -1.570808 -1.570425 -0.000123
  2   2.262337 0.113614 0.064702 -0.033679 0.004303 0.131308
  3   2.380047 0.353302 0.047440 -0.300365 0.058421 0.106476
  4   2.033756 0.190472 -0.000128 -0.295091 0.075143 0.241452
  5   2.451511 0.204909 -0.003447 -0.173428 -0.002721 -0.017323
  6   7.247600 -0.397300 -0.109469 0.000001 0.000009 0.052298
  7   -2.022252 -0.104661 3.136172 1.070165 -1.170882 -4.229632
  8   1.168026 -0.537438 -0.063437 -0.536637 0.310053 -0.591105
  9   6.790376 -0.619176 0.015206 -0.000158 -0.000285 -1.590252
 10   8.637599 0.544015 -0.090417 -4.207302 0.242223 0.428519
 11   6.790465 -0.619039 0.017802 0.002782 -0.011850 -1.128438
 12   -2.022474 -0.104699 -2.873818 0.298873 1.361683 -2.901984
 13   1.167898 -0.537463 0.063297 0.745352 -0.775070 -1.342631
 14   7.002743 -0.617765 -0.183752 0.000229 0.000250 -1.945891
 15   8.209042 0.615527 -0.255885 1.940678 -0.254733 1.111270
 16   7.002735 -0.617911 -0.183641 0.012978 0.010920 -1.380803
 17   1.574674 0.609930 -0.000899 0.799266 -0.443320 0.145619
 18   -0.602177 0.511412 -0.000006 0.000000 0.000000 0.000000
 19   3.673773 0.177020 1.119313 -0.000002 -0.000014 -0.174510
 20   3.673767 0.176993 -1.117566 0.000007 -0.000003 -0.174546
 21   3.942357 1.334540 1.627658 0.000002 -0.000011 -0.000026
 22   -0.246060 -0.011889 0.516521 -0.000011 0.000031 0.000025
 23   3.942374 1.334565 -1.631083 0.000019 0.000002 -0.000024
 24   -0.246150 -0.011872 -0.516511 -0.000005 -0.000006 0.000048
 25   4.941364 1.997338 1.629330 0.000018 -0.000001 -0.000024
 26   4.941382 1.997366 -1.629410 -0.000001 0.000005 -0.000024
 27   2.914462 1.619264 1.514501 -0.000019 -0.000022 -0.000050
 28   2.916892 1.618870 -1.501142 -0.000002 -0.000009 -0.000024
 29   8.824059 0.150544 0.091743 0.000006 -0.000231 -0.174534
 30   2.111085 -0.561179 1.784320 -0.000008 -0.000682 0.000024
 31   2.121290 -0.561289 -1.853599 0.000000 0.000000 -0.000002
 32   -0.814395 -0.093824 3.127092 0.338887 -3.077717 -0.167408
 33   14.298673 -0.408176 0.471578 0.013215 -0.091859 -0.496506
 34   15.835795 0.581398 0.242756 -0.532539 -0.064474 0.362915
 35   -0.815868 -0.091229 -3.114430 -0.002012 2.881638 -0.314978
 36   14.294526 -0.410349 -0.467541 -0.021444 0.095337 -0.575480
 37   15.834409 0.579420 -0.284600 -0.051545 0.043118 0.201427
 38   1.139685 -3.453749 -2.823813 0.000000 0.000000 0.000001
 39   -4.457742 -1.054854 -0.746180 0.000000 0.000000 0.000000
 40   1.118101 -3.449769 3.237290 0.000000 0.000001 0.000000
 41   -4.433840 -1.059130 0.959566 -0.000001 0.000000 0.000000
 42   -0.657468 1.697302 -2.688614 0.000000 0.000002 0.000000
 43   -0.664068 1.698578 2.869377 0.000000 0.000002 0.000000
time 11
  0   0.001233 -0.019532 2.285597 0.000000 0.000000 -1.571829
  1   -1.093036 0.000002 -0.326057 -1.570808 -1.570425 -0.000123
  2   2.262337 0.113614 0.064702 -0.015694 0.001990 0.131363
  3   2.380047 0.353302 0.047440 -0.281989 0.053615 0.143757
  4   2.033756 0.190472 -0.000128 -0.277534 0.070925 0.242757
  5   2.451511 0.204909 -0.003447 -0.155387 -0.002538 -0.017422
  6   7.247600 -0.397300 -0.109469 0.000001 0.000009 0.052298
  7   -2.022252 -0.104661 3.136172 1.070165 -1.170882 -4.229632
  8   1.168026 -0.537438 -0.063437 -0.460447 0.353977 -0.599392
  9   6.790376 -0.619176 0.015206 -0.000158 -0.000151 -1.394414
 10   8.637599 0.544015 -0.090417 -4.258820 0.237859 0.307994
 11   6.790465 -0.619039 0.017802 0.001965 -0.011765 -0.991287
 12   -2.022474 -0.104699 -2.873818 0.298873 1.361683 -2.901984
 13   1.167898 -0.537463 0.063297 0.733331 -0.829942 -1.304918
 14   7.002743 -0.617765 -0.183752 0.000229 0.000250 -1.956699
 15   8.209042 0.615527 -0.255885 1.882652 -0.254355 1.095093
 16   7.002735 -0.617911 -0.183641 0.012931 0.010977 -1.388420
 17   1.574674 0.609930 -0.000899 0.747027 -0.379940 0.137044
 18   -0.602177 0.511412 -0.000006 0.000000 0.000000 0.000000
 19   3.673773 0.177020 1.119313 -0.000002 -0.000014 -0.174510
 20   3.673767 0.176993 -1.117566 0.000007 -0.000003 -0.174546
 21   3.942357 1.334540 1.627658 0.000002 -0.000011 -0.000026
 22   -0.246060 -0.011889 0.516521 -0.000011 0.000031 0.000025
 23   3.942374 1.334565 -1.631083 0.000019 0.000002 -0.000024
 24   -0.246150 -0.011872 -0.516511 -0.000005 -0.000006 0.000048
 25   4.941364 1.997338 1.629330 0.000018 -0.000001 -0.000024
 26   4.941382 1.997366 -1.629410 -0.000001 0.000005 -0.000024
 27   2.914462 1.619264 1.514501 -0.000019 -0.000022 -0.000050
 28   2.916892 1.618870 -1.501142 -0.000002 -0.000009 -0.000024
 29   8.824059 0.150544 0.091743 0.000006 -0.000231 -0.174534
 30   2.111085 -0.561179 1.784320 -0.000008 -0.000682 0.000024
 31   2.121290 -0.561289 -1.853599 0.000000 0.000000 -0.000002
 32   -0.814395 -0.093824 3.127092 0.338887 -3.077717 -0.167408
 33   14.298673 -0.408176 0.471578 0.013215 -0.091859 -0.496506
 34   15.835795 0.581398 0.242756 -0.532539 -0.064474 0.362915
 35   -0.815868 -0.091229 -3.114430 -0.002012 2.881638 -0.314978
 36   14.294526 -0.410349 -0.467541 -0.021444 0.095337 -0.575480
 37   15.834409 0.579420 -0.284600 -0.051545 0.043118 0.201427
 38   1.139685 -3.453749 -2.823813 0.000000 0.000000 0.000001
 39   -4.457742 -1.054854 -0.746180 0.000000 0.000000 0.000000
 40   1.118101 -3.449769 3.237290 0.000000 0.000001 0.000000
 41   -4.433840 -1.059130 0.959566 -0.000001 0.000000 0.000000
 42   -0.657468 1.697302 -2.688614 0.000000 0.000002 0.000000
 43   -0.664068 1.698578 2.869377 0.000000 0.000002 0.000000
time 12
  0   0.001233 -0.019532 2.285597 0.000000 0.000000 -1.571829
  1   -1.093036 0.000002 -0.326057 -1.570808 -1.570425 -0.000123
  2   2.262337 0.113614 0.064702 -0.000052 0.000049 0.131363
  3   2.380047 0.353302 0.047440 -0.265923 0.048701 0.176508
  4   2.033756 0.190472 -0.000128 -0.262005 0.067066 0.243808
  5   2.451511 0.204909 -0.003447 -0.139451 -0.002133 -0.017422
  6   7.247600 -0.397300 -0.109469 0.000001 0.000009 0.052298
  7   -2.022252 -0.104661 3.136172 1.070165 -1.170882 -4.229632
  8   1.168026 -0.537438 -0.063437 -0.430263 0.407612 -0.627353
  9   6.790376 -0.619176 0.015206 -0.000158 -0.000285 -1.164087
 10   8.637599 0.544015 -0.090417 -4.300299 0.240956 0.178642
 11   6.790465 -0.619039 0.017802 0.000972 -0.011623 -0.830086
 12   -2.022474 -0.104699 -2.873818 0.298873 1.361683 -2.901984
 13   1.167898 -0.537463 0.063297 0.714422 -0.857302 -1.281854
 14   7.002743 -0.617765 -0.183752 0.000229 0.000250 -1.945478
 15   8.209042 0.615527 -0.255885 1.831745 -0.254128 1.079277
 16   7.002735 -0.617911 -0.183641 0.012978 0.010920 -1.380527
 17   1.574674 0.609930 -0.000899 0.701247 -0.325340 0.125844
 18   -0.602177 0.511412 -0.000006 0.000000 0.000000 0.000000
 19   3.673773 0.177020 1.119313 -0.000002 -0.000014 -0.174510
 20   3.673767 0.176993 -1.117566 0.000007 -0.000003 -0.174546
 21   3.942357 1.334540 1.627658 0.000002 -0.000011 -0.000026
 22   -0.246060 -0.011889 0.516521 -0.000011 0.000031 0.000025
 23   3.942374 1.334565 -1.631083 0.000019 0.000002 -0.000024
 24   -0.246150 -0.011872 -0.516511 -0.000005 -0.000006 0.000048
 25   4.941364 1.997338 1.629330 0.000018 -0.000001 -0.000024
 26   4.941382 1.997366 -1.629410 -0.000001 0.000005 -0.000024
 27   2.914462 1.619264 1.514501 -0.000019 -0.000022 -0.000050
 28   2.916892 1.618870 -1.501142 -0.000002 -0.000009 -0.000024
 29   8.824059 0.150544 0.091743 0.000006 -0.000231 -0.174534
 30   2.111085 -0.561179 1.784320 -0.000008 -0.000682 0.000024
 31   2.121290 -0.561289 -1.853599 0.000000 0.000000 -0.000002
 32   -0.814395 -0.093824 3.127092 0.338887 -3.077717 -0.167408
 33   14.298673 -0.408176 0.471578 0.013215 -0.091859 -0.496506
 34   15.835795 0.581398 0.242756 -0.532539 -0.064474 0.362915
 35   -0.815868 -0.091229 -3.114430 -0.002012 2.881638 -0.314978
 36   14.294526 -0.410349 -0.467541 -0.021444 0.095337 -0.575480
 37   15.834409 0.579420 -0.284600 -0.051545 0.043118 0.201427
 38   1.139685 -3.453749 -2.823813 0.000000 0.000000 0.000001
 39   -4.457742 -1.054854 -0.746180 0.000000 0.000000 0.000000
 40   1.118101 -3.449769 3.237290 0.000000 0.000001 0.000000
 41   -4.433840 -1.059130 0.959566 -0.000001 0.000000 0.000000
 42   -0.657468 1.697302 -2.688614 0.000000 0.000002 0.000000
 43   -0.664068 1.698578 2.869377 0.000000 0.000002 0.000000
end
