version 1
nodes
  0 "Bip01" -1
  1 "Bip01 Pelvis" 0
  2 "Bip01 Spine" 1
  3 "Bip01 Spine1" 2
  4 "Bip01 Spine2" 3
  5 "Bip01 Spine3" 4
  6 "Bip01 Neck" 5
  7 "Bip01 L Arm" 6
  8 "Bip01 L Arm1" 7
  9 "Bip01 L Arm2" 8
 10 "Bip01 L Hand" 9
 11 "Bip06 L elbow2-smooth" 8
 12 "Bip01 R Arm" 6
 13 "Bip01 R Arm1" 12
 14 "Bip01 R Arm2" 13
 15 "Bip01 R Hand" 14
 16 "Bip06 R elbow2-smooth" 13
 17 "Bip01 Head" 6
 18 "Bip06 Head_helper" 17
 19 "Bip06 Head_eyes_l" 18
 20 "Bip06 Head_eyes_r" 18
 21 "Bip06 Head_blink_l" 18
 22 "Bip06 Head_blink_smooth_l1" 21
 23 "Bip06 Head_blink_r" 18
 24 "Bip06 Head_blink_smooth_r1" 23
 25 "Bip06 Head_L_eyebrow" 18
 26 "Bip06 Head_R_eyebrow" 18
 27 "Bip06 Head_blink_l_lid" 18
 28 "Bip06 Head_blink_r_lid" 18
 29 "Bip06 bunny" 18
 30 "Bip06 bunnyL" 29
 31 "Bip06 bunnyR" 29
 32 "Bip01 L Leg" 1
 33 "Bip01 L Leg1" 32
 34 "Bip01 L Foot" 33
 35 "Bip01 R Leg" 1
 36 "Bip01 R Leg1" 35
 37 "Bip01 R Foot" 36
 38 "Bip03 HairR1" 17
 39 "Bip03 HairR2" 38
 40 "Bip03 HairL1" 17
 41 "Bip03 HairL2" 40
 42 "Bip03 swingR" 17
 43 "Bip03 swingL" 17
end
skeleton
time 0
  0   -0.756603 -0.917997 1.293379 0.000000 0.000000 -1.571069
  1   -1.093036 0.000002 -0.326057 -1.569027 -1.622749 -0.001768
  2   2.262337 0.113614 0.064702 -0.056543 -0.089632 -0.031546
  3   2.380047 0.353302 0.047440 -0.136734 -0.011797 -0.024732
  4   2.033756 0.190472 -0.000128 -0.181042 -0.008485 -0.326755
  5   2.451511 0.204909 -0.003447 -0.452775 0.085091 -0.389498
  6   7.247600 -0.397300 -0.109469 0.056796 0.015841 0.258572
  7   -2.022252 -0.104661 3.136172 1.039298 -1.365783 -4.434464
  8   1.168026 -0.537438 -0.063437 -1.100466 0.841523 -0.892604
  9   6.790376 -0.619176 0.015206 0.117459 -0.065423 -1.328833
 10   8.637599 0.544015 -0.090417 -3.347173 0.249685 0.718692
 11   6.790465 -0.619039 0.017802 0.076444 -0.074414 -0.944859
 12   -2.022474 -0.104699 -2.873818 -0.202006 1.687361 -3.578490
 13   1.167898 -0.537463 0.063297 0.163861 -0.905868 -1.206791
 14   7.002743 -0.617765 -0.183752 -0.076687 0.005531 -2.031201
 15   8.209042 0.615527 -0.255885 2.523882 0.154888 0.944931
 16   7.002735 -0.617911 -0.183641 -0.042195 0.032517 -1.440632
 17   1.574674 0.609930 -0.000899 0.504396 0.018326 0.495972
 18   -0.602177 0.511412 -0.000006 0.000000 0.000000 0.000000
 19   3.673773 0.177020 1.119313 -0.000002 -0.000014 -0.174510
 20   3.673767 0.176993 -1.117566 0.000007 -0.000003 -0.174546
 21   3.942357 1.334540 1.627658 0.000002 -0.000011 -0.000026
 22   -0.246060 -0.011889 0.516521 -0.000011 0.000031 0.000025
 23   3.942374 1.334565 -1.631083 0.000019 0.000002 -0.000024
 24   -0.246150 -0.011872 -0.516511 -0.000005 -0.000006 0.000048
 25   4.941364 1.997338 1.629330 0.000018 -0.000001 -0.000024
 26   4.941382 1.997366 -1.629410 -0.000001 0.000005 -0.000024
 27   2.914462 1.619264 1.514501 -0.000019 -0.000022 -0.000050
 28   2.916892 1.618870 -1.501142 -0.000002 -0.000009 -0.000024
 29   8.824059 0.150544 0.091743 0.000006 -0.000231 -0.174534
 30   2.111085 -0.561179 1.784320 -0.000008 -0.000682 0.000024
 31   2.121290 -0.561289 -1.853599 0.000000 0.000000 -0.000002
 32   -0.814395 -0.093824 3.127092 0.308687 -2.963967 -0.295198
 33   14.298673 -0.408176 0.471578 0.010842 -0.088873 -0.467446
 34   15.835795 0.581398 0.242756 -0.305894 -0.201989 0.256011
 35   -0.815868 -0.091229 -3.114430 -0.040474 2.853438 0.069178
 36   14.294526 -0.410349 -0.467541 -0.007038 0.076845 -0.395888
 37   15.834409 0.579420 -0.284600 0.275375 0.101015 0.399520
 38   1.139685 -3.453749 -2.823813 0.000000 0.000000 0.000001
 39   -4.457742 -1.054854 -0.746180 0.000000 0.000000 0.000000
 40   1.118101 -3.449769 3.237290 0.000000 0.000001 0.000000
 41   -4.433840 -1.059130 0.959566 -0.000001 0.000000 0.000000
 42   -0.657468 1.697302 -2.688614 0.000000 0.000002 0.000000
 43   -0.664068 1.698578 2.869377 0.000000 0.000002 0.000000
time 1
  0   -0.756603 -0.917997 1.293379 0.000000 0.000000 -1.571069
  1   -1.093036 0.000002 -0.326057 -1.569027 -1.622749 -0.001768
  2   2.262337 0.113614 0.064702 -0.056543 -0.089632 -0.031546
  3   2.380047 0.353302 0.047440 -0.136734 -0.011797 -0.024732
  4   2.033756 0.190472 -0.000128 -0.181042 -0.008485 -0.326755
  5   2.451511 0.204909 -0.003447 -0.477680 0.104322 -0.473329
  6   7.247600 -0.397300 -0.109469 0.056796 0.015841 0.258572
  7   -2.022252 -0.104661 3.136172 1.039298 -1.365783 -4.434464
  8   1.168026 -0.537438 -0.063437 -1.120273 0.925246 -0.886594
  9   6.790376 -0.619176 0.015206 0.226809 -0.005624 -1.563159
 10   8.637599 0.544015 -0.090417 -3.347173 0.249685 0.718692
 11   6.790465 -0.619039 0.017802 0.164675 -0.053124 -1.111020
 12   -2.022474 -0.104699 -2.873818 -0.202006 1.687361 -3.578490
 13   1.167898 -0.537463 0.063297 0.039648 -0.945738 -1.128883
 14   7.002743 -0.617765 -0.183752 -0.262230 0.111151 -2.194397
 15   8.209042 0.615527 -0.255885 2.523882 0.154888 0.944931
 16   7.002735 -0.617911 -0.183641 -0.153388 0.158037 -1.551404
 17   1.574674 0.609930 -0.000899 0.478682 -0.028274 0.565200
 18   -0.602177 0.511412 -0.000006 0.000000 0.000000 0.000000
 19   3.673773 0.177020 1.119313 -0.000002 -0.000014 -0.174510
 20   3.673767 0.176993 -1.117566 0.000007 -0.000003 -0.174546
 21   3.942357 1.334540 1.627658 0.000002 -0.000011 -0.000026
 22   -0.246060 -0.011889 0.516521 -0.000011 0.000031 0.000025
 23   3.942374 1.334565 -1.631083 0.000019 0.000002 -0.000024
 24   -0.246150 -0.011872 -0.516511 -0.000005 -0.000006 0.000048
 25   4.941364 1.997338 1.629330 0.000018 -0.000001 -0.000024
 26   4.941382 1.997366 -1.629410 -0.000001 0.000005 -0.000024
 27   2.914462 1.619264 1.514501 -0.000019 -0.000022 -0.000050
 28   2.916892 1.618870 -1.501142 -0.000002 -0.000009 -0.000024
 29   8.824059 0.150544 0.091743 0.000006 -0.000231 -0.174534
 30   2.111085 -0.561179 1.784320 -0.000008 -0.000682 0.000024
 31   2.121290 -0.561289 -1.853599 0.000000 0.000000 -0.000002
 32   -0.814395 -0.093824 3.127092 0.308687 -2.963967 -0.295198
 33   14.298673 -0.408176 0.471578 0.010842 -0.088873 -0.467446
 34   15.835795 0.581398 0.242756 -0.305894 -0.201989 0.256011
 35   -0.815868 -0.091229 -3.114430 -0.040474 2.853438 0.069178
 36   14.294526 -0.410349 -0.467541 -0.007038 0.076845 -0.395888
 37   15.834409 0.579420 -0.284600 0.275375 0.101015 0.399520
 38   1.139685 -3.453749 -2.823813 0.000000 0.000000 0.000001
 39   -4.457742 -1.054854 -0.746180 0.000000 0.000000 0.000000
 40   1.118101 -3.449769 3.237290 0.000000 0.000001 0.000000
 41   -4.433840 -1.059130 0.959566 -0.000001 0.000000 0.000000
 42   -0.657468 1.697302 -2.688614 0.000000 0.000002 0.000000
 43   -0.664068 1.698578 2.869377 0.000000 0.000002 0.000000
time 2
  0   -0.756603 -0.917997 1.293379 0.000000 0.000000 -1.571069
  1   -1.093036 0.000002 -0.326057 -1.569027 -1.622749 -0.001768
  2   2.262337 0.113614 0.064702 -0.056543 -0.089632 -0.031546
  3   2.380047 0.353302 0.047440 -0.136734 -0.011797 -0.024732
  4   2.033756 0.190472 -0.000128 -0.181042 -0.008485 -0.326755
  5   2.451511 0.204909 -0.003447 -0.475472 0.102586 -0.465825
  6   7.247600 -0.397300 -0.109469 0.056796 0.015841 0.258572
  7   -2.022252 -0.104661 3.136172 1.039298 -1.365783 -4.434464
  8   1.168026 -0.537438 -0.063437 -1.118248 0.917900 -0.886847
  9   6.790376 -0.619176 0.015206 0.217267 -0.010897 -1.542330
 10   8.637599 0.544015 -0.090417 -3.347173 0.249685 0.718692
 11   6.790465 -0.619039 0.017802 0.156705 -0.054829 -1.096198
 12   -2.022474 -0.104699 -2.873818 -0.202006 1.687361 -3.578490
 13   1.167898 -0.537463 0.063297 0.050895 -0.942229 -1.136026
 14   7.002743 -0.617765 -0.183752 -0.245776 0.101838 -2.179876
 15   8.209042 0.615527 -0.255885 2.523882 0.154888 0.944931
 16   7.002735 -0.617911 -0.183641 -0.143644 0.146534 -1.541745
 17   1.574674 0.609930 -0.000899 0.480917 -0.024085 0.559028
 18   -0.602177 0.511412 -0.000006 0.000000 0.000000 0.000000
 19   3.673773 0.177020 1.119313 -0.000002 -0.000014 -0.174510
 20   3.673767 0.176993 -1.117566 0.000007 -0.000003 -0.174546
 21   3.942357 1.334540 1.627658 0.000002 -0.000011 -0.000026
 22   -0.246060 -0.011889 0.516521 -0.000011 0.000031 0.000025
 23   3.942374 1.334565 -1.631083 0.000019 0.000002 -0.000024
 24   -0.246150 -0.011872 -0.516511 -0.000005 -0.000006 0.000048
 25   4.941364 1.997338 1.629330 0.000018 -0.000001 -0.000024
 26   4.941382 1.997366 -1.629410 -0.000001 0.000005 -0.000024
 27   2.914462 1.619264 1.514501 -0.000019 -0.000022 -0.000050
 28   2.916892 1.618870 -1.501142 -0.000002 -0.000009 -0.000024
 29   8.824059 0.150544 0.091743 0.000006 -0.000231 -0.174534
 30   2.111085 -0.561179 1.784320 -0.000008 -0.000682 0.000024
 31   2.121290 -0.561289 -1.853599 0.000000 0.000000 -0.000002
 32   -0.814395 -0.093824 3.127092 0.308687 -2.963967 -0.295198
 33   14.298673 -0.408176 0.471578 0.010842 -0.088873 -0.467446
 34   15.835795 0.581398 0.242756 -0.305894 -0.201989 0.256011
 35   -0.815868 -0.091229 -3.114430 -0.040474 2.853438 0.069178
 36   14.294526 -0.410349 -0.467541 -0.007038 0.076845 -0.395888
 37   15.834409 0.579420 -0.284600 0.275375 0.101015 0.399520
 38   1.139685 -3.453749 -2.823813 0.000000 0.000000 0.000001
 39   -4.457742 -1.054854 -0.746180 0.000000 0.000000 0.000000
 40   1.118101 -3.449769 3.237290 0.000000 0.000001 0.000000
 41   -4.433840 -1.059130 0.959566 -0.000001 0.000000 0.000000
 42   -0.657468 1.697302 -2.688614 0.000000 0.000002 0.000000
 43   -0.664068 1.698578 2.869377 0.000000 0.000002 0.000000
time 3
  0   -0.756603 -0.917997 1.293379 0.000000 0.000000 -1.571069
  1   -1.093036 0.000002 -0.326057 -1.569027 -1.622749 -0.001768
  2   2.262337 0.113614 0.064702 -0.056543 -0.089632 -0.031546
  3   2.380047 0.353302 0.047440 -0.136734 -0.011797 -0.024732
  4   2.033756 0.190472 -0.000128 -0.181042 -0.008485 -0.326755
  5   2.451511 0.204909 -0.003447 -0.469259 0.097768 -0.444899
  6   7.247600 -0.397300 -0.109469 0.056796 0.015841 0.258572
  7   -2.022252 -0.104661 3.136172 1.039298 -1.365783 -4.434464
  8   1.168026 -0.537438 -0.063437 -1.113059 0.896919 -0.888049
  9   6.790376 -0.619176 0.015206 0.189971 -0.025980 -1.483692
 10   8.637599 0.544015 -0.090417 -3.347173 0.249685 0.718692
 11   6.790465 -0.619039 0.017802 0.134340 -0.059832 -1.054614
 12   -2.022474 -0.104699 -2.873818 -0.202006 1.687361 -3.578490
 13   1.167898 -0.537463 0.063297 0.082317 -0.932312 -1.155760
 14   7.002743 -0.617765 -0.183752 -0.199319 0.075433 -2.138623
 15   8.209042 0.615527 -0.255885 2.523882 0.154888 0.944931
 16   7.002735 -0.617911 -0.183641 -0.116010 0.114562 -1.514425
 17   1.574674 0.609930 -0.000899 0.487416 -0.012441 0.541693
 18   -0.602177 0.511412 -0.000006 0.000000 0.000000 0.000000
 19   3.673773 0.177020 1.119313 -0.000002 -0.000014 -0.174510
 20   3.673767 0.176993 -1.117566 0.000007 -0.000003 -0.174546
 21   3.942357 1.334540 1.627658 0.000002 -0.000011 -0.000026
 22   -0.246060 -0.011889 0.516521 -0.000011 0.000031 0.000025
 23   3.942374 1.334565 -1.631083 0.000019 0.000002 -0.000024
 24   -0.246150 -0.011872 -0.516511 -0.000005 -0.000006 0.000048
 25   4.941364 1.997338 1.629330 0.000018 -0.000001 -0.000024
 26   4.941382 1.997366 -1.629410 -0.000001 0.000005 -0.000024
 27   2.914462 1.619264 1.514501 -0.000019 -0.000022 -0.000050
 28   2.916892 1.618870 -1.501142 -0.000002 -0.000009 -0.000024
 29   8.824059 0.150544 0.091743 0.000006 -0.000231 -0.174534
 30   2.111085 -0.561179 1.784320 -0.000008 -0.000682 0.000024
 31   2.121290 -0.561289 -1.853599 0.000000 0.000000 -0.000002
 32   -0.814395 -0.093824 3.127092 0.308687 -2.963967 -0.295198
 33   14.298673 -0.408176 0.471578 0.010842 -0.088873 -0.467446
 34   15.835795 0.581398 0.242756 -0.305894 -0.201989 0.256011
 35   -0.815868 -0.091229 -3.114430 -0.040474 2.853438 0.069178
 36   14.294526 -0.410349 -0.467541 -0.007038 0.076845 -0.395888
 37   15.834409 0.579420 -0.284600 0.275375 0.101015 0.399520
 38   1.139685 -3.453749 -2.823813 0.000000 0.000000 0.000001
 39   -4.457742 -1.054854 -0.746180 0.000000 0.000000 0.000000
 40   1.118101 -3.449769 3.237290 0.000000 0.000001 0.000000
 41   -4.433840 -1.059130 0.959566 -0.000001 0.000000 0.000000
 42   -0.657468 1.697302 -2.688614 0.000000 0.000002 0.000000
 43   -0.664068 1.698578 2.869377 0.000000 0.000002 0.000000
time 4
  0   -0.756603 -0.917997 1.293379 0.000000 0.000000 -1.571069
  1   -1.093036 0.000002 -0.326057 -1.569027 -1.622749 -0.001768
  2   2.262337 0.113614 0.064702 -0.056543 -0.089632 -0.031546
  3   2.380047 0.353302 0.047440 -0.136734 -0.011797 -0.024732
  4   2.033756 0.190472 -0.000128 -0.181042 -0.008485 -0.326755
  5   2.451511 0.204909 -0.003447 -0.461248 0.091593 -0.417979
  6   7.247600 -0.397300 -0.109469 0.056796 0.015841 0.258572
  7   -2.022252 -0.104661 3.136172 1.039298 -1.365783 -4.434464
  8   1.168026 -0.537438 -0.063437 -1.106731 0.870051 -0.890010
  9   6.790376 -0.619176 0.015206 0.154852 -0.045134 -1.408451
 10   8.637599 0.544015 -0.090417 -3.347173 0.249685 0.718692
 11   6.790465 -0.619039 0.017802 0.105962 -0.066682 -1.001207
 12   -2.022474 -0.104699 -2.873818 -0.202006 1.687361 -3.578490
 13   1.167898 -0.537463 0.063297 0.122105 -0.919548 -1.180761
 14   7.002743 -0.617765 -0.183752 -0.139711 0.041476 -2.086315
 15   8.209042 0.615527 -0.255885 2.523882 0.154888 0.944931
 16   7.002735 -0.617911 -0.183641 -0.080232 0.074188 -1.478770
 17   1.574674 0.609930 -0.000899 0.495662 0.002493 0.519368
 18   -0.602177 0.511412 -0.000006 0.000000 0.000000 0.000000
 19   3.673773 0.177020 1.119313 -0.000002 -0.000014 -0.174510
 20   3.673767 0.176993 -1.117566 0.000007 -0.000003 -0.174546
 21   3.942357 1.334540 1.627658 0.000002 -0.000011 -0.000026
 22   -0.246060 -0.011889 0.516521 -0.000011 0.000031 0.000025
 23   3.942374 1.334565 -1.631083 0.000019 0.000002 -0.000024
 24   -0.246150 -0.011872 -0.516511 -0.000005 -0.000006 0.000048
 25   4.941364 1.997338 1.629330 0.000018 -0.000001 -0.000024
 26   4.941382 1.997366 -1.629410 -0.000001 0.000005 -0.000024
 27   2.914462 1.619264 1.514501 -0.000019 -0.000022 -0.000050
 28   2.916892 1.618870 -1.501142 -0.000002 -0.000009 -0.000024
 29   8.824059 0.150544 0.091743 0.000006 -0.000231 -0.174534
 30   2.111085 -0.561179 1.784320 -0.000008 -0.000682 0.000024
 31   2.121290 -0.561289 -1.853599 0.000000 0.000000 -0.000002
 32   -0.814395 -0.093824 3.127092 0.308687 -2.963967 -0.295198
 33   14.298673 -0.408176 0.471578 0.010842 -0.088873 -0.467446
 34   15.835795 0.581398 0.242756 -0.305894 -0.201989 0.256011
 35   -0.815868 -0.091229 -3.114430 -0.040474 2.853438 0.069178
 36   14.294526 -0.410349 -0.467541 -0.007038 0.076845 -0.395888
 37   15.834409 0.579420 -0.284600 0.275375 0.101015 0.399520
 38   1.139685 -3.453749 -2.823813 0.000000 0.000000 0.000001
 39   -4.457742 -1.054854 -0.746180 0.000000 0.000000 0.000000
 40   1.118101 -3.449769 3.237290 0.000000 0.000001 0.000000
 41   -4.433840 -1.059130 0.959566 -0.000001 0.000000 0.000000
 42   -0.657468 1.697302 -2.688614 0.000000 0.000002 0.000000
 43   -0.664068 1.698578 2.869377 0.000000 0.000002 0.000000
time 5
  0   -0.756603 -0.917997 1.293379 0.000000 0.000000 -1.571069
  1   -1.093036 0.000002 -0.326057 -1.569027 -1.622749 -0.001768
  2   2.262337 0.113614 0.064702 -0.056543 -0.089632 -0.031546
  3   2.380047 0.353302 0.047440 -0.136734 -0.011797 -0.024732
  4   2.033756 0.190472 -0.000128 -0.181042 -0.008485 -0.326755
  5   2.451511 0.204909 -0.003447 -0.454966 0.086762 -0.397002
  6   7.247600 -0.397300 -0.109469 0.056796 0.015841 0.258572
  7   -2.022252 -0.104661 3.136172 1.039298 -1.365783 -4.434464
  8   1.168026 -0.537438 -0.063437 -1.102048 0.849070 -0.891908
  9   6.790376 -0.619176 0.015206 0.127279 -0.060151 -1.349661
 10   8.637599 0.544015 -0.090417 -3.347173 0.249685 0.718692
 11   6.790465 -0.619039 0.017802 0.084152 -0.072339 -0.959681
 12   -2.022474 -0.104699 -2.873818 -0.202006 1.687361 -3.578490
 13   1.167898 -0.537463 0.063297 0.153036 -0.909377 -1.200011
 14   7.002743 -0.617765 -0.183752 -0.093254 0.015014 -2.045557
 15   8.209042 0.615527 -0.255885 2.523882 0.154888 0.944931
 16   7.002735 -0.617911 -0.183641 -0.052175 0.043343 -1.450677
 17   1.574674 0.609930 -0.000899 0.502121 0.014184 0.502108
 18   -0.602177 0.511412 -0.000006 0.000000 0.000000 0.000000
 19   3.673773 0.177020 1.119313 -0.000002 -0.000014 -0.174510
 20   3.673767 0.176993 -1.117566 0.000007 -0.000003 -0.174546
 21   3.942357 1.334540 1.627658 0.000002 -0.000011 -0.000026
 22   -0.246060 -0.011889 0.516521 -0.000011 0.000031 0.000025
 23   3.942374 1.334565 -1.631083 0.000019 0.000002 -0.000024
 24   -0.246150 -0.011872 -0.516511 -0.000005 -0.000006 0.000048
 25   4.941364 1.997338 1.629330 0.000018 -0.000001 -0.000024
 26   4.941382 1.997366 -1.629410 -0.000001 0.000005 -0.000024
 27   2.914462 1.619264 1.514501 -0.000019 -0.000022 -0.000050
 28   2.916892 1.618870 -1.501142 -0.000002 -0.000009 -0.000024
 29   8.824059 0.150544 0.091743 0.000006 -0.000231 -0.174534
 30   2.111085 -0.561179 1.784320 -0.000008 -0.000682 0.000024
 31   2.121290 -0.561289 -1.853599 0.000000 0.000000 -0.000002
 32   -0.814395 -0.093824 3.127092 0.308687 -2.963967 -0.295198
 33   14.298673 -0.408176 0.471578 0.010842 -0.088873 -0.467446
 34   15.835795 0.581398 0.242756 -0.305894 -0.201989 0.256011
 35   -0.815868 -0.091229 -3.114430 -0.040474 2.853438 0.069178
 36   14.294526 -0.410349 -0.467541 -0.007038 0.076845 -0.395888
 37   15.834409 0.579420 -0.284600 0.275375 0.101015 0.399520
 38   1.139685 -3.453749 -2.823813 0.000000 0.000000 0.000001
 39   -4.457742 -1.054854 -0.746180 0.000000 0.000000 0.000000
 40   1.118101 -3.449769 3.237290 0.000000 0.000001 0.000000
 41   -4.433840 -1.059130 0.959566 -0.000001 0.000000 0.000000
 42   -0.657468 1.697302 -2.688614 0.000000 0.000002 0.000000
 43   -0.664068 1.698578 2.869377 0.000000 0.000002 0.000000
time 6
  0   -0.756603 -0.917997 1.293379 0.000000 0.000000 -1.571069
  1   -1.093036 0.000002 -0.326057 -1.569027 -1.622749 -0.001768
  2   2.262337 0.113614 0.064702 -0.056543 -0.089632 -0.031546
  3   2.380047 0.353302 0.047440 -0.136734 -0.011797 -0.024732
  4   2.033756 0.190472 -0.000128 -0.181042 -0.008485 -0.326755
  5   2.451511 0.204909 -0.003447 -0.452775 0.085091 -0.389498
  6   7.247600 -0.397300 -0.109469 0.056796 0.015841 0.258572
  7   -2.022252 -0.104661 3.136172 1.039298 -1.365783 -4.434464
  8   1.168026 -0.537438 -0.063437 -1.100466 0.841523 -0.892604
  9   6.790376 -0.619176 0.015206 0.117459 -0.065423 -1.328833
 10   8.637599 0.544015 -0.090417 -3.347173 0.249685 0.718692
 11   6.790465 -0.619039 0.017802 0.076444 -0.074414 -0.944859
 12   -2.022474 -0.104699 -2.873818 -0.202006 1.687361 -3.578490
 13   1.167898 -0.537463 0.063297 0.163861 -0.905868 -1.206791
 14   7.002743 -0.617765 -0.183752 -0.076687 0.005531 -2.031201
 15   8.209042 0.615527 -0.255885 2.523882 0.154888 0.944931
 16   7.002735 -0.617911 -0.183641 -0.042195 0.032517 -1.440632
 17   1.574674 0.609930 -0.000899 0.504396 0.018326 0.495972
 18   -0.602177 0.511412 -0.000006 0.000000 0.000000 0.000000
 19   3.673773 0.177020 1.119313 -0.000002 -0.000014 -0.174510
 20   3.673767 0.176993 -1.117566 0.000007 -0.000003 -0.174546
 21   3.942357 1.334540 1.627658 0.000002 -0.000011 -0.000026
 22   -0.246060 -0.011889 0.516521 -0.000011 0.000031 0.000025
 23   3.942374 1.334565 -1.631083 0.000019 0.000002 -0.000024
 24   -0.246150 -0.011872 -0.516511 -0.000005 -0.000006 0.000048
 25   4.941364 1.997338 1.629330 0.000018 -0.000001 -0.000024
 26   4.941382 1.997366 -1.629410 -0.000001 0.000005 -0.000024
 27   2.914462 1.619264 1.514501 -0.000019 -0.000022 -0.000050
 28   2.916892 1.618870 -1.501142 -0.000002 -0.000009 -0.000024
 29   8.824059 0.150544 0.091743 0.000006 -0.000231 -0.174534
 30   2.111085 -0.561179 1.784320 -0.000008 -0.000682 0.000024
 31   2.121290 -0.561289 -1.853599 0.000000 0.000000 -0.000002
 32   -0.814395 -0.093824 3.127092 0.308687 -2.963967 -0.295198
 33   14.298673 -0.408176 0.471578 0.010842 -0.088873 -0.467446
 34   15.835795 0.581398 0.242756 -0.305894 -0.201989 0.256011
 35   -0.815868 -0.091229 -3.114430 -0.040474 2.853438 0.069178
 36   14.294526 -0.410349 -0.467541 -0.007038 0.076845 -0.395888
 37   15.834409 0.579420 -0.284600 0.275375 0.101015 0.399520
 38   1.139685 -3.453749 -2.823813 0.000000 0.000000 0.000001
 39   -4.457742 -1.054854 -0.746180 0.000000 0.000000 0.000000
 40   1.118101 -3.449769 3.237290 0.000000 0.000001 0.000000
 41   -4.433840 -1.059130 0.959566 -0.000001 0.000000 0.000000
 42   -0.657468 1.697302 -2.688614 0.000000 0.000002 0.000000
 43   -0.664068 1.698578 2.869377 0.000000 0.000002 0.000000
end
