version 1
nodes
  0 "Bip01" -1
  1 "Bip01 Pelvis" 0
  2 "Bip01 Spine" 1
  3 "Bip01 Spine1" 2
  4 "Bip01 Spine2" 3
  5 "Bip01 Spine3" 4
  6 "Bip01 Neck" 5
  7 "Bip01 L Arm" 6
  8 "Bip01 L Arm1" 7
  9 "Bip01 L Arm2" 8
 10 "Bip01 L Hand" 9
 11 "Bip06 L elbow2-smooth" 8
 12 "Bip01 R Arm" 6
 13 "Bip01 R Arm1" 12
 14 "Bip01 R Arm2" 13
 15 "Bip01 R Hand" 14
 16 "Bip06 R elbow2-smooth" 13
 17 "Bip01 Head" 6
 18 "Bip06 Head_helper" 17
 19 "Bip06 Head_eyes_l" 18
 20 "Bip06 Head_eyes_r" 18
 21 "Bip06 Head_blink_l" 18
 22 "Bip06 Head_blink_smooth_l1" 21
 23 "Bip06 Head_blink_r" 18
 24 "Bip06 Head_blink_smooth_r1" 23
 25 "Bip06 Head_L_eyebrow" 18
 26 "Bip06 Head_R_eyebrow" 18
 27 "Bip06 Head_blink_l_lid" 18
 28 "Bip06 Head_blink_r_lid" 18
 29 "Bip06 bunny" 18
 30 "Bip06 bunnyL" 29
 31 "Bip06 bunnyR" 29
 32 "Bip01 L Leg" 1
 33 "Bip01 L Leg1" 32
 34 "Bip01 L Foot" 33
 35 "Bip01 R Leg" 1
 36 "Bip01 R Leg1" 35
 37 "Bip01 R Foot" 36
 38 "Bip03 HairR1" 17
 39 "Bip03 HairR2" 38
 40 "Bip03 HairL1" 17
 41 "Bip03 HairL2" 40
 42 "Bip03 swingR" 17
 43 "Bip03 swingL" 17
end
skeleton
time 0
  0   -0.010486 -0.546892 -0.601210 0.000000 0.000000 -1.571354
  1   -1.093036 0.000002 -0.326057 -1.570808 -1.570749 0.000022
  2   2.262337 0.113614 0.064702 0.000292 0.000073 -0.265979
  3   2.380047 0.353302 0.047440 0.000000 -0.000028 -0.223012
  4   2.033756 0.190472 -0.000128 -0.177077 0.016982 -0.144506
  5   2.451511 0.204909 -0.003447 -0.148763 -0.036273 -0.111011
  6   7.247600 -0.397300 -0.109469 -0.005248 -0.005264 0.494432
  7   -2.022252 -0.104661 3.136172 1.238970 -1.024584 -4.799517
  8   1.168026 -0.537438 -0.063437 -1.055347 0.370832 -1.121607
  9   6.790376 -0.619176 0.015206 0.058040 -0.114945 -0.504879
 10   8.637599 0.544015 -0.090417 -3.988549 0.202875 -0.503999
 11   6.790465 -0.619039 0.017802 0.033672 -0.094425 -0.367591
 12   -2.022474 -0.104699 -2.873818 -1.163622 1.764390 -4.903164
 13   1.167898 -0.537463 0.063297 0.415733 -0.779545 -0.944373
 14   7.002743 -0.617765 -0.183752 0.374732 -0.307807 -1.793751
 15   8.209042 0.615527 -0.255885 2.264097 0.409936 0.553437
 16   7.002735 -0.617911 -0.183641 0.220866 -0.283426 -1.252811
 17   1.574674 0.609930 -0.000899 0.254777 0.315535 -0.043807
 18   -0.602177 0.511412 -0.000006 0.000000 0.000000 0.000000
 19   3.646428 0.364526 1.119313 -0.000002 -0.000014 -0.174510
 20   3.646422 0.364499 -1.117566 0.000007 -0.000003 -0.174546
 21   3.805634 1.330634 1.627658 0.000002 -0.000011 -0.000026
 22   -0.246060 -0.011889 0.516521 -0.000011 0.000031 0.000025
 23   3.805651 1.330659 -1.631083 0.000019 0.000002 -0.000024
 24   -0.246150 -0.011872 -0.516511 -0.000005 -0.000006 0.000048
 25   4.941364 1.997338 1.629330 0.000018 -0.000001 -0.000024
 26   4.941382 1.997366 -1.629410 -0.000001 0.000005 -0.000024
 27   2.930087 1.603639 1.514501 -0.000019 -0.000022 -0.000050
 28   2.932517 1.603245 -1.501142 -0.000002 -0.000009 -0.000024
 29   8.824059 0.150544 0.091743 0.000006 -0.000231 -0.174534
 30   2.111085 -0.561179 1.784320 -0.000008 -0.000682 0.000024
 31   2.121290 -0.561289 -1.853599 0.000000 0.000000 -0.000002
 32   -0.814395 -0.093824 3.127092 0.564266 -3.064250 -0.563643
 33   14.298673 -0.408176 0.471578 -0.006284 -0.010019 -0.413614
 34   15.835795 0.581398 0.242756 -0.007436 -0.212263 -0.117891
 35   -0.815868 -0.091229 -3.114430 -0.120039 3.021422 -0.057358
 36   14.294526 -0.410349 -0.467541 0.000668 0.012859 -0.799565
 37   15.834409 0.579420 -0.284600 -0.169247 -0.012731 0.676454
 38   1.139685 -3.453749 -2.823813 0.000000 0.000000 0.000001
 39   -4.457742 -1.054854 -0.746180 0.000000 0.000000 0.000000
 40   1.118101 -3.449769 3.237290 0.000000 0.000001 0.000000
 41   -4.433840 -1.059130 0.959566 -0.000001 0.000000 0.000000
 42   -0.657468 1.697302 -2.688614 0.000000 0.000002 0.000000
 43   -0.664068 1.698578 2.869377 0.000000 0.000002 0.000000
time 1
  0   -0.010486 -0.546892 -0.601210 0.000000 0.000000 -1.571354
  1   -1.093036 0.000002 -0.326057 -1.570808 -1.570749 0.000022
  2   2.262337 0.113614 0.064702 0.000292 0.000073 -0.265979
  3   2.380047 0.353302 0.047440 -0.000390 0.001590 -0.217482
  4   2.033756 0.190472 -0.000128 -0.175233 0.015221 -0.158932
  5   2.451511 0.204909 -0.003447 -0.147924 -0.039263 -0.128025
  6   7.247600 -0.397300 -0.109469 -0.005248 -0.005264 0.494432
  7   -2.022252 -0.104661 3.136172 1.238970 -1.024584 -4.799517
  8   1.168026 -0.537438 -0.063437 -1.053955 0.391612 -1.131033
  9   6.790376 -0.619176 0.015206 0.058151 -0.111808 -0.482087
 10   8.637599 0.544015 -0.090417 -3.988549 0.202875 -0.503999
 11   6.790465 -0.619039 0.017802 0.034110 -0.092038 -0.351730
 12   -2.022474 -0.104699 -2.873818 -1.167358 1.765667 -4.907281
 13   1.167898 -0.537463 0.063297 0.389090 -0.790631 -0.927181
 14   7.002743 -0.617765 -0.183752 0.375073 -0.307920 -1.785913
 15   8.209042 0.615527 -0.255885 2.266470 0.410844 0.553918
 16   7.002735 -0.617911 -0.183641 0.221337 -0.283144 -1.247347
 17   1.574674 0.609930 -0.000899 0.252056 0.314683 -0.017527
 18   -0.602177 0.511412 -0.000006 0.000000 0.000000 0.000000
 19   3.646428 0.364526 1.119313 -0.000002 -0.000014 -0.174510
 20   3.646422 0.364499 -1.117566 0.000007 -0.000003 -0.174546
 21   3.805634 1.330634 1.627658 0.000002 -0.000011 -0.000026
 22   -0.246060 -0.011889 0.516521 -0.000011 0.000031 0.000025
 23   3.805651 1.330659 -1.631083 0.000019 0.000002 -0.000024
 24   -0.246150 -0.011872 -0.516511 -0.000005 -0.000006 0.000048
 25   4.941364 1.997338 1.629330 0.000018 -0.000001 -0.000024
 26   4.941382 1.997366 -1.629410 -0.000001 0.000005 -0.000024
 27   2.930087 1.603639 1.514501 -0.000019 -0.000022 -0.000050
 28   2.932517 1.603245 -1.501142 -0.000002 -0.000009 -0.000024
 29   8.824059 0.150544 0.091743 0.000986 -0.000492 -0.171530
 30   2.111085 -0.561179 1.784320 -0.000022 0.001236 0.000153
 31   2.121290 -0.561289 -1.853599 0.000000 -0.002564 0.000125
 32   -0.814395 -0.093824 3.127092 0.564266 -3.064250 -0.563643
 33   14.298673 -0.408176 0.471578 -0.006284 -0.010019 -0.413614
 34   15.835795 0.581398 0.242756 -0.007436 -0.212263 -0.117891
 35   -0.815868 -0.091229 -3.114430 -0.120039 3.021422 -0.057358
 36   14.294526 -0.410349 -0.467541 0.000668 0.012859 -0.799565
 37   15.834409 0.579420 -0.284600 -0.169247 -0.012731 0.676454
 38   1.139685 -3.453749 -2.823813 0.000084 -0.000072 0.000184
 39   -4.457742 -1.054854 -0.746180 0.000132 0.000288 -0.001178
 40   1.118101 -3.449769 3.237290 -0.000042 -0.000083 0.000367
 41   -4.433840 -1.059130 0.959566 0.000011 0.000024 -0.000112
 42   -0.657468 1.697302 -2.688614 0.000863 0.001351 -0.000125
 43   -0.664068 1.698578 2.869377 -0.001012 -0.001520 0.000251
time 2
  0   -0.010486 -0.546892 -0.601210 0.000000 0.000000 -1.571354
  1   -1.093036 0.000002 -0.326057 -1.570808 -1.570749 0.000022
  2   2.262337 0.113614 0.064702 0.000292 0.000073 -0.265979
  3   2.380047 0.353302 0.047440 -0.000885 0.003328 -0.211585
  4   2.033756 0.190472 -0.000128 -0.173204 0.013423 -0.174482
  5   2.451511 0.204909 -0.003447 -0.146914 -0.042357 -0.145633
  6   7.247600 -0.397300 -0.109469 -0.005248 -0.005264 0.494432
  7   -2.022252 -0.104661 3.136172 1.238970 -1.024584 -4.799517
  8   1.168026 -0.537438 -0.063437 -1.053259 0.415461 -1.141913
  9   6.790376 -0.619176 0.015206 0.058429 -0.109005 -0.461636
 10   8.637599 0.544015 -0.090417 -3.988549 0.202875 -0.503999
 11   6.790465 -0.619039 0.017802 0.034548 -0.089934 -0.337542
 12   -2.022474 -0.104699 -2.873818 -1.163622 1.764390 -4.903164
 13   1.167898 -0.537463 0.063297 0.355348 -0.802531 -0.900667
 14   7.002743 -0.617765 -0.183752 0.375301 -0.307920 -1.782200
 15   8.209042 0.615527 -0.255885 2.273013 0.412887 0.555000
 16   7.002735 -0.617911 -0.183641 0.221525 -0.283031 -1.244753
 17   1.574674 0.609930 -0.000899 0.249293 0.313760 0.010082
 18   -0.602177 0.511412 -0.000006 0.000000 0.000000 0.000000
 19   3.646428 0.364526 1.119313 -0.000002 -0.000014 -0.174510
 20   3.646422 0.364499 -1.117566 0.000007 -0.000003 -0.174546
 21   3.805634 1.330634 1.627658 0.000002 -0.000011 -0.000026
 22   -0.246060 -0.011889 0.516521 -0.000011 0.000031 0.000025
 23   3.805651 1.330659 -1.631083 0.000019 0.000002 -0.000024
 24   -0.246150 -0.011872 -0.516511 -0.000005 -0.000006 0.000048
 25   4.941364 1.997338 1.629330 0.000018 -0.000001 -0.000024
 26   4.941382 1.997366 -1.629410 -0.000001 0.000005 -0.000024
 27   2.930087 1.603639 1.514501 -0.000019 -0.000022 -0.000050
 28   2.932517 1.603245 -1.501142 -0.000002 -0.000009 -0.000024
 29   8.824059 0.150544 0.091743 0.003927 -0.001323 -0.163000
 30   2.111085 -0.561179 1.780414 -0.000103 0.006729 0.000517
 31   2.125196 -0.561289 -1.849693 0.000015 -0.009765 0.000544
 32   -0.814395 -0.093824 3.127092 0.564266 -3.064250 -0.563643
 33   14.298673 -0.408176 0.471578 -0.006284 -0.010019 -0.413614
 34   15.835795 0.581398 0.242756 -0.007436 -0.212263 -0.117891
 35   -0.815868 -0.091229 -3.114430 -0.120039 3.021422 -0.057358
 36   14.294526 -0.410349 -0.467541 0.000668 0.012859 -0.799565
 37   15.834409 0.579420 -0.284600 -0.169247 -0.012731 0.676454
 38   1.139685 -3.453749 -2.823813 0.000400 -0.000289 0.000856
 39   -4.457742 -1.043135 -0.746180 0.000503 0.001127 -0.004487
 40   1.118101 -3.449769 3.237290 -0.000189 -0.000348 0.001466
 41   -4.429934 -1.051317 0.959566 0.000047 0.000108 -0.000449
 42   -0.657468 1.697302 -2.676895 0.003308 0.005169 -0.000460
 43   -0.664068 1.698578 2.857658 -0.003886 -0.005851 0.001004
time 3
  0   -0.010486 -0.546892 -0.601210 0.000000 0.000000 -1.571354
  1   -1.093036 0.000002 -0.326057 -1.570808 -1.570749 0.000022
  2   2.262337 0.113614 0.064702 0.000292 0.000073 -0.265979
  3   2.380047 0.353302 0.047440 -0.001365 0.005041 -0.205647
  4   2.033756 0.190472 -0.000128 -0.171249 0.011625 -0.189452
  5   2.451511 0.204909 -0.003447 -0.146024 -0.045347 -0.162845
  6   7.247600 -0.397300 -0.109469 -0.002947 -0.001921 0.536276
  7   -2.022252 -0.104661 3.136172 1.231685 -1.022681 -4.835487
  8   1.168026 -0.537438 -0.063437 -1.053069 0.441524 -1.150011
  9   6.790376 -0.619176 0.015206 0.058540 -0.107336 -0.449184
 10   8.637599 0.544015 -0.090417 -3.988549 0.202875 -0.503999
 11   6.790465 -0.619039 0.017802 0.034752 -0.088655 -0.328775
 12   -2.022474 -0.104699 -2.873818 -1.132676 1.755451 -4.913983
 13   1.167898 -0.537463 0.063297 0.314647 -0.811532 -0.859624
 14   7.002743 -0.617765 -0.183752 0.375130 -0.307920 -1.783933
 15   8.209042 0.615527 -0.255885 2.282432 0.415989 0.556624
 16   7.002735 -0.617911 -0.183641 0.221431 -0.283088 -1.246023
 17   1.574674 0.609930 -0.000899 0.244581 0.312269 -0.013979
 18   -0.602177 0.511412 -0.000006 0.000000 0.000000 0.000000
 19   3.646428 0.364526 1.119313 -0.000002 -0.000014 -0.174510
 20   3.646422 0.364499 -1.117566 0.000007 -0.000003 -0.174546
 21   3.805634 1.330634 1.627658 0.000002 -0.000011 -0.000026
 22   -0.246060 -0.011889 0.516521 -0.000011 0.000031 0.000025
 23   3.805651 1.330659 -1.631083 0.000019 0.000002 -0.000024
 24   -0.246150 -0.011872 -0.516511 -0.000005 -0.000006 0.000048
 25   4.941364 1.997338 1.629330 0.000018 -0.000001 -0.000024
 26   4.941382 1.997366 -1.629410 -0.000001 0.000005 -0.000024
 27   2.930087 1.603639 1.514501 -0.000019 -0.000022 -0.000050
 28   2.932517 1.603245 -1.501142 -0.000002 -0.000009 -0.000024
 29   8.824059 0.150544 0.091743 0.008473 -0.002629 -0.149802
 30   2.114991 -0.561179 1.772601 -0.000225 0.015185 0.001075
 31   2.129103 -0.561289 -1.845786 0.000031 -0.020928 0.001163
 32   -0.814395 -0.093824 3.127092 0.564266 -3.064250 -0.563643
 33   14.298673 -0.408176 0.471578 -0.006284 -0.010019 -0.413614
 34   15.835795 0.581398 0.242756 -0.007436 -0.212263 -0.117891
 35   -0.815868 -0.091229 -3.114430 -0.120039 3.021422 -0.057358
 36   14.294526 -0.410349 -0.467541 0.000668 0.012859 -0.799565
 37   15.834409 0.579420 -0.284600 -0.169247 -0.012731 0.676454
 38   1.143591 -3.453749 -2.823813 0.000842 -0.000627 0.001956
 39   -4.457742 -1.027509 -0.742274 0.001091 0.002409 -0.009648
 40   1.114195 -3.449769 3.237290 -0.000400 -0.000758 0.003116
 41   -4.422121 -1.043504 0.963472 0.000107 0.000228 -0.000954
 42   -0.649655 1.697302 -2.661269 0.007095 0.011057 -0.001046
 43   -0.664068 1.698578 2.845939 -0.008321 -0.012535 0.002133
time 4
  0   -0.010486 -0.546892 -0.601210 0.000000 0.000000 -1.571354
  1   -1.093036 0.000002 -0.326057 -1.570808 -1.570749 0.000022
  2   2.262337 0.113614 0.064702 0.000292 0.000073 -0.265979
  3   2.380047 0.353302 0.047440 -0.001815 0.006707 -0.200158
  4   2.033756 0.190472 -0.000128 -0.169534 0.010211 -0.202247
  5   2.451511 0.204909 -0.003447 -0.145014 -0.047984 -0.178868
  6   7.247600 -0.397300 -0.109469 -0.000478 0.001267 0.578246
  7   -2.022252 -0.104661 3.136172 1.224304 -1.020836 -4.871081
  8   1.168026 -0.537438 -0.063437 -1.053069 0.465926 -1.155831
  9   6.790376 -0.619176 0.015206 0.058540 -0.106469 -0.443373
 10   8.637599 0.544015 -0.090417 -3.988549 0.202875 -0.503999
 11   6.790465 -0.619039 0.017802 0.034869 -0.088030 -0.324738
 12   -2.022474 -0.104699 -2.873818 -1.095024 1.745235 -4.917621
 13   1.167898 -0.537463 0.063297 0.275070 -0.818449 -0.817855
 14   7.002743 -0.617765 -0.183752 0.375016 -0.307920 -1.788553
 15   8.209042 0.615527 -0.255885 2.292930 0.419393 0.558488
 16   7.002735 -0.617911 -0.183641 0.221196 -0.283200 -1.249224
 17   1.574674 0.609930 -0.000899 0.240113 0.310920 -0.041182
 18   -0.602177 0.511412 -0.000006 0.000000 0.000000 0.000000
 19   3.646428 0.364526 1.119313 -0.000002 -0.000014 -0.174510
 20   3.646422 0.364499 -1.117566 0.000007 -0.000003 -0.174546
 21   3.805634 1.330634 1.627658 0.000002 -0.000011 -0.000026
 22   -0.246060 -0.011889 0.516521 -0.000011 0.000031 0.000025
 23   3.805651 1.330659 -1.631083 0.000019 0.000002 -0.000024
 24   -0.246150 -0.011872 -0.516511 -0.000005 -0.000006 0.000048
 25   4.941364 1.997338 1.629330 0.000018 -0.000001 -0.000024
 26   4.941382 1.997366 -1.629410 -0.000001 0.000005 -0.000024
 27   2.930087 1.603639 1.514501 -0.000019 -0.000022 -0.000050
 28   2.932517 1.603245 -1.501142 -0.000002 -0.000009 -0.000024
 29   8.824059 0.150544 0.091743 0.014266 -0.004409 -0.132796
 30   2.118898 -0.561179 1.760882 -0.000374 0.026112 0.001804
 31   2.136915 -0.561289 -1.837973 0.000061 -0.035330 0.001963
 32   -0.814395 -0.093824 3.127092 0.564266 -3.064250 -0.563643
 33   14.298673 -0.408176 0.471578 -0.006284 -0.010019 -0.413614
 34   15.835795 0.581398 0.242756 -0.007436 -0.212263 -0.117891
 35   -0.815868 -0.091229 -3.114430 -0.120039 3.021422 -0.057358
 36   14.294526 -0.410349 -0.467541 0.000668 0.012859 -0.799565
 37   15.834409 0.579420 -0.284600 -0.169247 -0.012731 0.676454
 38   1.147498 -3.453749 -2.823813 0.001431 -0.001073 0.003300
 39   -4.457742 -1.007978 -0.738367 0.001846 0.004075 -0.016267
 40   1.110288 -3.449769 3.237290 -0.000674 -0.001288 0.005315
 41   -4.410401 -1.031785 0.967379 0.000191 0.000395 -0.001599
 42   -0.645749 1.697302 -2.641737 0.011973 0.018646 -0.001798
 43   -0.664068 1.694672 2.826407 -0.014043 -0.021150 0.003639
time 5
  0   -0.010486 -0.546892 -0.601210 0.000000 0.000000 -1.571354
  1   -1.093036 0.000002 -0.326057 -1.570808 -1.570749 0.000022
  2   2.262337 0.113614 0.064702 0.000292 0.000073 -0.265979
  3   2.380047 0.353302 0.047440 -0.002190 0.008086 -0.195383
  4   2.033756 0.190472 -0.000128 -0.168317 0.009132 -0.211236
  5   2.451511 0.204909 -0.003447 -0.144244 -0.050138 -0.192712
  6   7.247600 -0.397300 -0.109469 0.001990 0.004479 0.620185
  7   -2.022252 -0.104661 3.136172 1.216923 -1.019164 -4.906675
  8   1.168026 -0.537438 -0.063437 -1.052879 0.489624 -1.158045
  9   6.790376 -0.619176 0.015206 0.058540 -0.107203 -0.448655
 10   8.637599 0.544015 -0.090417 -3.988549 0.202875 -0.503999
 11   6.790465 -0.619039 0.017802 0.034810 -0.088598 -0.328487
 12   -2.022474 -0.104699 -2.873818 -1.052102 1.734728 -4.916185
 13   1.167898 -0.537463 0.063297 0.237532 -0.822873 -0.776631
 14   7.002743 -0.617765 -0.183752 0.374675 -0.307807 -1.797216
 15   8.209042 0.615527 -0.255885 2.303715 0.422949 0.560353
 16   7.002735 -0.617911 -0.183641 0.220678 -0.283539 -1.255240
 17   1.574674 0.609930 -0.000899 0.236416 0.309642 -0.073671
 18   -0.602177 0.511412 -0.000006 0.000000 0.000000 0.000000
 19   3.646428 0.364526 1.119313 -0.000002 -0.000014 -0.174510
 20   3.646422 0.364499 -1.117566 0.000007 -0.000003 -0.174546
 21   3.805634 1.330634 1.627658 0.000002 -0.000011 -0.000026
 22   -0.246060 -0.011889 0.516521 -0.000011 0.000031 0.000025
 23   3.805651 1.330659 -1.631083 0.000019 0.000002 -0.000024
 24   -0.246150 -0.011872 -0.516511 -0.000005 -0.000006 0.000048
 25   4.941364 1.997338 1.629330 0.000018 -0.000001 -0.000024
 26   4.941382 1.997366 -1.629410 -0.000001 0.000005 -0.000024
 27   2.930087 1.603639 1.514501 -0.000019 -0.000022 -0.000050
 28   2.932517 1.603245 -1.501142 -0.000002 -0.000009 -0.000024
 29   8.824059 0.150544 0.091743 0.021039 -0.006617 -0.112785
 30   2.126710 -0.561179 1.749163 -0.000550 0.038928 0.002640
 31   2.144728 -0.561289 -1.830161 0.000092 -0.052217 0.002909
 32   -0.814395 -0.093824 3.127092 0.564266 -3.064250 -0.563643
 33   14.298673 -0.408176 0.471578 -0.006284 -0.010019 -0.413614
 34   15.835795 0.581398 0.242756 -0.007436 -0.212263 -0.117891
 35   -0.815868 -0.091229 -3.114430 -0.120039 3.021422 -0.057358
 36   14.294526 -0.410349 -0.467541 0.000668 0.012859 -0.799565
 37   15.834409 0.579420 -0.284600 -0.169247 -0.012731 0.676454
 38   1.151404 -3.457655 -2.823813 0.002126 -0.001579 0.004827
 39   -4.461648 -0.988446 -0.730555 0.002721 0.006028 -0.024036
 40   1.106382 -3.445863 3.237290 -0.001010 -0.001915 0.007881
 41   -4.398683 -1.016160 0.971285 0.000287 0.000587 -0.002384
 42   -0.637936 1.697302 -2.618299 0.017701 0.027570 -0.002635
 43   -0.664068 1.690765 2.806875 -0.020765 -0.031255 0.005395
time 6
  0   -0.010486 -0.546892 -0.601210 0.000000 0.000000 -1.571354
  1   -1.093036 0.000002 -0.326057 -1.570808 -1.570749 0.000022
  2   2.262337 0.113614 0.064702 0.000292 0.000073 -0.265979
  3   2.380047 0.353302 0.047440 -0.002490 0.009164 -0.191873
  4   2.033756 0.190472 -0.000128 -0.167616 0.008545 -0.216637
  5   2.451511 0.204909 -0.003447 -0.143405 -0.051796 -0.205912
  6   7.247600 -0.397300 -0.109469 0.004759 0.007535 0.662124
  7   -2.022252 -0.104661 3.136172 1.209542 -1.017607 -4.941988
  8   1.168026 -0.537438 -0.063437 -1.052879 0.510404 -1.159437
  9   6.790376 -0.619176 0.015206 0.058484 -0.108070 -0.454995
 10   8.637599 0.544015 -0.090417 -3.988549 0.202875 -0.503999
 11   6.790465 -0.619039 0.017802 0.034694 -0.089280 -0.332870
 12   -2.022474 -0.104699 -2.873818 -1.006690 1.724947 -4.912451
 13   1.167898 -0.537463 0.063297 0.205336 -0.825873 -0.740855
 14   7.002743 -0.617765 -0.183752 0.374390 -0.307693 -1.803734
 15   8.209042 0.615527 -0.255885 2.312847 0.425976 0.561856
 16   7.002735 -0.617911 -0.183641 0.220301 -0.283708 -1.259766
 17   1.574674 0.609930 -0.000899 0.233410 0.308293 -0.109154
 18   -0.602177 0.511412 -0.000006 0.000000 0.000000 0.000000
 19   3.646428 0.364526 1.119313 -0.000002 -0.000014 -0.174510
 20   3.646422 0.364499 -1.117566 0.000007 -0.000003 -0.174546
 21   3.805634 1.330634 1.627658 0.000002 -0.000011 -0.000026
 22   -0.246060 -0.011889 0.516521 -0.000011 0.000031 0.000025
 23   3.805651 1.330659 -1.631083 0.000019 0.000002 -0.000024
 24   -0.246150 -0.011872 -0.516511 -0.000005 -0.000006 0.000048
 25   4.941364 1.997338 1.629330 0.000018 -0.000001 -0.000024
 26   4.941382 1.997366 -1.629410 -0.000001 0.000005 -0.000024
 27   2.930087 1.603639 1.514501 -0.000019 -0.000022 -0.000050
 28   2.932517 1.603245 -1.501142 -0.000002 -0.000009 -0.000024
 29   8.824059 0.150544 0.091743 0.028525 -0.009228 -0.090682
 30   2.130617 -0.561179 1.737444 -0.000740 0.053081 0.003584
 31   2.152541 -0.561289 -1.818442 0.000138 -0.070892 0.003965
 32   -0.814395 -0.093824 3.127092 0.564266 -3.064250 -0.563643
 33   14.298673 -0.408176 0.471578 -0.006284 -0.010019 -0.413614
 34   15.835795 0.581398 0.242756 -0.007436 -0.212263 -0.117891
 35   -0.815868 -0.091229 -3.114430 -0.120039 3.021422 -0.057358
 36   14.294526 -0.410349 -0.467541 0.000668 0.012859 -0.799565
 37   15.834409 0.579420 -0.284600 -0.169247 -0.012731 0.676454
 38   1.155311 -3.457655 -2.823813 0.002884 -0.002157 0.006599
 39   -4.461648 -0.961101 -0.726648 0.003703 0.008173 -0.032646
 40   1.102476 -3.445863 3.237290 -0.001368 -0.002602 0.010692
 41   -4.386963 -1.000534 0.979098 0.000394 0.000791 -0.003253
 42   -0.634030 1.693396 -2.590955 0.024029 0.037428 -0.003597
 43   -0.664068 1.686859 2.783437 -0.028187 -0.042443 0.007319
time 7
  0   -0.010486 -0.546892 -0.601210 0.000000 0.000000 -1.571354
  1   -1.093036 0.000002 -0.326057 -1.570808 -1.570749 0.000022
  2   2.262337 0.113614 0.064702 0.000292 0.000073 -0.265979
  3   2.380047 0.353302 0.047440 -0.002685 0.009895 -0.189445
  4   2.033756 0.190472 -0.000128 -0.167247 0.008245 -0.219174
  5   2.451511 0.204909 -0.003447 -0.142669 -0.052971 -0.218171
  6   7.247600 -0.397300 -0.109469 0.007563 0.010496 0.704095
  7   -2.022252 -0.104661 3.136172 1.202065 -1.016137 -4.977207
  8   1.168026 -0.537438 -0.063437 -1.052626 0.526958 -1.159247
  9   6.790376 -0.619176 0.015206 0.058429 -0.109138 -0.462089
 10   8.637599 0.544015 -0.090417 -3.988549 0.202875 -0.503999
 11   6.790465 -0.619039 0.017802 0.034548 -0.090020 -0.337888
 12   -2.022474 -0.104699 -2.873818 -0.963481 1.716298 -4.910536
 13   1.167898 -0.537463 0.063297 0.178905 -0.827043 -0.710648
 14   7.002743 -0.617765 -0.183752 0.374049 -0.307579 -1.810582
 15   8.209042 0.615527 -0.255885 2.319462 0.428094 0.563059
 16   7.002735 -0.617911 -0.183641 0.219878 -0.283933 -1.264622
 17   1.574674 0.609930 -0.000899 0.230851 0.306873 -0.147482
 18   -0.602177 0.511412 -0.000006 0.000000 0.000000 0.000000
 19   3.646428 0.364526 1.119313 -0.000002 -0.000014 -0.174510
 20   3.646422 0.364499 -1.117566 0.000007 -0.000003 -0.174546
 21   3.805634 1.330634 1.627658 0.000002 -0.000011 -0.000026
 22   -0.246060 -0.011889 0.516521 -0.000011 0.000031 0.000025
 23   3.805651 1.330659 -1.631083 0.000019 0.000002 -0.000024
 24   -0.246150 -0.011872 -0.516511 -0.000005 -0.000006 0.000048
 25   4.941364 1.997338 1.629330 0.000018 -0.000001 -0.000024
 26   4.941382 1.997366 -1.629410 -0.000001 0.000005 -0.000024
 27   2.930087 1.603639 1.514501 -0.000019 -0.000022 -0.000050
 28   2.932517 1.603245 -1.501142 -0.000002 -0.000009 -0.000024
 29   8.824059 0.150544 0.091743 0.036368 -0.012147 -0.067345
 30   2.138430 -0.557273 1.721818 -0.000957 0.068076 0.004591
 31   2.164260 -0.561289 -1.810629 0.000184 -0.090655 0.005075
 32   -0.814395 -0.093824 3.127092 0.564266 -3.064250 -0.563643
 33   14.298673 -0.408176 0.471578 -0.006284 -0.010019 -0.413614
 34   15.835795 0.581398 0.242756 -0.007436 -0.212263 -0.117891
 35   -0.815868 -0.091229 -3.114430 -0.120039 3.021422 -0.057358
 36   14.294526 -0.410349 -0.467541 0.000668 0.012859 -0.799565
 37   15.834409 0.579420 -0.284600 -0.169247 -0.012731 0.676454
 38   1.159217 -3.461562 -2.823813 0.003684 -0.002748 0.008432
 39   -4.465555 -0.933757 -0.718835 0.004734 0.010463 -0.041761
 40   1.098569 -3.441956 3.237290 -0.001747 -0.003325 0.013685
 41   -4.371338 -0.984909 0.983004 0.000502 0.001019 -0.004151
 42   -0.626217 1.693396 -2.563610 0.030728 0.047869 -0.004600
 43   -0.664068 1.682953 2.759999 -0.036045 -0.054275 0.009326
time 8
  0   -0.010486 -0.546892 -0.601210 0.000000 0.000000 -1.571354
  1   -1.093036 0.000002 -0.326057 -1.570808 -1.570749 0.000022
  2   2.262337 0.113614 0.064702 0.000292 0.000073 -0.265979
  3   2.380047 0.353302 0.047440 -0.002805 0.010339 -0.187935
  4   2.033756 0.190472 -0.000128 -0.167247 0.008245 -0.219174
  5   2.451511 0.204909 -0.003447 -0.142224 -0.053337 -0.225328
  6   7.247600 -0.397300 -0.109469 0.007563 0.010496 0.704095
  7   -2.022252 -0.104661 3.136172 1.202065 -1.016137 -4.977207
  8   1.168026 -0.537438 -0.063437 -1.052183 0.536216 -1.157792
  9   6.790376 -0.619176 0.015206 0.058262 -0.110006 -0.469183
 10   8.637599 0.544015 -0.090417 -3.988549 0.202875 -0.503999
 11   6.790465 -0.619039 0.017802 0.034402 -0.090759 -0.342733
 12   -2.022474 -0.104699 -2.873818 -0.941062 1.712467 -4.887654
 13   1.167898 -0.537463 0.063297 0.167868 -0.827399 -0.698299
 14   7.002743 -0.617765 -0.183752 0.373935 -0.307579 -1.813800
 15   8.209042 0.615527 -0.255885 2.321835 0.428851 0.563540
 16   7.002735 -0.617911 -0.183641 0.219689 -0.284102 -1.266830
 17   1.574674 0.609930 -0.000899 0.230851 0.303536 -0.132550
 18   -0.602177 0.511412 -0.000006 0.000000 0.000000 0.000000
 19   3.646428 0.364526 1.119313 -0.000002 -0.000014 -0.174510
 20   3.646422 0.364499 -1.117566 0.000007 -0.000003 -0.174546
 21   3.805634 1.330634 1.627658 0.000002 -0.000011 -0.000026
 22   -0.246060 -0.011889 0.516521 -0.000011 0.000031 0.000025
 23   3.805651 1.330659 -1.631083 0.000019 0.000002 -0.000024
 24   -0.246150 -0.011872 -0.516511 -0.000005 -0.000006 0.000048
 25   4.941364 1.997338 1.629330 0.000018 -0.000001 -0.000024
 26   4.941382 1.997366 -1.629410 -0.000001 0.000005 -0.000024
 27   2.930087 1.603639 1.514501 -0.000019 -0.000022 -0.000050
 28   2.932517 1.603245 -1.501142 -0.000002 -0.000009 -0.000024
 29   8.824059 0.150544 0.091743 0.044211 -0.015328 -0.043579
 30   2.146242 -0.557273 1.710099 -0.001161 0.083334 0.005599
 31   2.172073 -0.561289 -1.798910 0.000215 -0.110755 0.006203
 32   -0.814395 -0.093824 3.127092 0.564266 -3.064250 -0.563643
 33   14.298673 -0.408176 0.471578 -0.006284 -0.010019 -0.413614
 34   15.835795 0.581398 0.242756 -0.007436 -0.212263 -0.117891
 35   -0.815868 -0.091229 -3.114430 -0.120039 3.021422 -0.057358
 36   14.294526 -0.410349 -0.467541 0.000668 0.012859 -0.799565
 37   15.834409 0.579420 -0.284600 -0.169247 -0.012731 0.676454
 38   1.163123 -3.465468 -2.823813 0.004505 -0.003362 0.010326
 39   -4.469461 -0.910318 -0.714929 0.005789 0.012776 -0.051017
 40   1.094663 -3.438050 3.237290 -0.002147 -0.004060 0.016740
 41   -4.355712 -0.965377 0.990817 0.000622 0.001246 -0.005076
 42   -0.618404 1.693396 -2.536265 0.037548 0.058479 -0.005646
 43   -0.664068 1.679046 2.736560 -0.044042 -0.066310 0.011418
time 9
  0   -0.010486 -0.546892 -0.601210 0.000000 0.000000 -1.571354
  1   -1.093036 0.000002 -0.326057 -1.570808 -1.570749 0.000022
  2   2.262337 0.113614 0.064702 0.000292 0.000073 -0.265979
  3   2.380047 0.353302 0.047440 -0.002820 0.010411 -0.187690
  4   2.033756 0.190472 -0.000128 -0.167616 0.008545 -0.216637
  5   2.451511 0.204909 -0.003447 -0.142378 -0.052671 -0.223124
  6   7.247600 -0.397300 -0.109469 0.007563 0.010496 0.704095
  7   -2.022252 -0.104661 3.136172 1.202065 -1.016137 -4.977207
  8   1.168026 -0.537438 -0.063437 -1.050854 0.533499 -1.153427
  9   6.790376 -0.619176 0.015206 0.058151 -0.111341 -0.478390
 10   8.637599 0.544015 -0.090417 -3.988549 0.202875 -0.503999
 11   6.790465 -0.619039 0.017802 0.034197 -0.091668 -0.349250
 12   -2.022474 -0.104699 -2.873818 -0.926595 1.710261 -4.872814
 13   1.167898 -0.537463 0.063297 0.173492 -0.824551 -0.699873
 14   7.002743 -0.617765 -0.183752 0.373821 -0.307579 -1.816770
 15   8.209042 0.615527 -0.255885 2.320828 0.428472 0.563359
 16   7.002735 -0.617911 -0.183641 0.219548 -0.284159 -1.268928
 17   1.574674 0.609930 -0.000899 0.231623 0.300341 -0.128447
 18   -0.602177 0.511412 -0.000006 0.000000 0.000000 0.000000
 19   3.646428 0.364526 1.119313 -0.000002 -0.000014 -0.174510
 20   3.646422 0.364499 -1.117566 0.000007 -0.000003 -0.174546
 21   3.805634 1.330634 1.627658 0.000002 -0.000011 -0.000026
 22   -0.246060 -0.011889 0.516521 -0.000011 0.000031 0.000025
 23   3.805651 1.330659 -1.631083 0.000019 0.000002 -0.000024
 24   -0.246150 -0.011872 -0.516511 -0.000005 -0.000006 0.000048
 25   4.941364 1.997338 1.629330 0.000018 -0.000001 -0.000024
 26   4.941382 1.997366 -1.629410 -0.000001 0.000005 -0.000024
 27   2.930087 1.603639 1.514501 -0.000019 -0.000022 -0.000050
 28   2.932517 1.603245 -1.501142 -0.000002 -0.000009 -0.000024
 29   8.824059 0.150544 0.091743 0.051965 -0.018628 -0.020242
 30   2.150149 -0.557273 1.694474 -0.001378 0.098329 0.006607
 31   2.183792 -0.557383 -1.791097 0.000260 -0.130517 0.007313
 32   -0.814395 -0.093824 3.127092 0.564266 -3.064250 -0.563643
 33   14.298673 -0.408176 0.471578 -0.006284 -0.010019 -0.413614
 34   15.835795 0.581398 0.242756 -0.007436 -0.212263 -0.117891
 35   -0.815868 -0.091229 -3.114430 -0.120039 3.021422 -0.057358
 36   14.294526 -0.410349 -0.467541 0.000668 0.012859 -0.799565
 37   15.834409 0.579420 -0.284600 -0.169247 -0.012731 0.676454
 38   1.167030 -3.465468 -2.823813 0.005325 -0.003965 0.012159
 39   -4.469461 -0.882974 -0.707116 0.006819 0.015065 -0.060132
 40   1.090756 -3.438050 3.237290 -0.002526 -0.004783 0.019734
 41   -4.343993 -0.949752 0.994723 0.000730 0.001462 -0.005974
 42   -0.610592 1.689489 -2.508921 0.044235 0.068921 -0.006650
 43   -0.660162 1.675140 2.709216 -0.051900 -0.078141 0.013467
time 10
  0   -0.010486 -0.546892 -0.601210 0.000000 0.000000 -1.571354
  1   -1.093036 0.000002 -0.326057 -1.570808 -1.570749 0.000022
  2   2.262337 0.113614 0.064702 0.000292 0.000073 -0.265979
  3   2.380047 0.353302 0.047440 -0.002715 0.010075 -0.188935
  4   2.033756 0.190472 -0.000128 -0.168317 0.009132 -0.211236
  5   2.451511 0.204909 -0.003447 -0.143251 -0.050804 -0.210667
  6   7.247600 -0.397300 -0.109469 0.007563 0.010496 0.704095
  7   -2.022252 -0.104661 3.136172 1.202065 -1.016137 -4.977207
  8   1.168026 -0.537438 -0.063437 -1.048576 0.520065 -1.145329
  9   6.790376 -0.619176 0.015206 0.058096 -0.113476 -0.493709
 10   8.637599 0.544015 -0.090417 -3.988549 0.202875 -0.503999
 11   6.790465 -0.619039 0.017802 0.033905 -0.093288 -0.359862
 12   -2.022474 -0.104699 -2.873818 -0.917110 1.708810 -4.863144
 13   1.167898 -0.537463 0.063297 0.194018 -0.817838 -0.712888
 14   7.002743 -0.617765 -0.183752 0.373650 -0.307523 -1.821225
 15   8.209042 0.615527 -0.255885 2.317521 0.427489 0.562698
 16   7.002735 -0.617911 -0.183641 0.219266 -0.284272 -1.271963
 17   1.574674 0.609930 -0.000899 0.233410 0.297359 -0.136246
 18   -0.602177 0.511412 -0.000006 0.000000 0.000000 0.000000
 19   3.646428 0.364526 1.119313 -0.000002 -0.000014 -0.174510
 20   3.646422 0.364499 -1.117566 0.000007 -0.000003 -0.174546
 21   3.805634 1.330634 1.627658 0.000002 -0.000011 -0.000026
 22   -0.246060 -0.011889 0.516521 -0.000011 0.000031 0.000025
 23   3.805651 1.330659 -1.631083 0.000019 0.000002 -0.000024
 24   -0.246150 -0.011872 -0.516511 -0.000005 -0.000006 0.000048
 25   4.941364 1.997338 1.629330 0.000018 -0.000001 -0.000024
 26   4.941382 1.997366 -1.629410 -0.000001 0.000005 -0.000024
 27   2.930087 1.603639 1.514501 -0.000019 -0.000022 -0.000050
 28   2.932517 1.603245 -1.501142 -0.000002 -0.000009 -0.000024
 29   8.824059 0.150544 0.091743 0.059095 -0.021928 0.001754
 30   2.157961 -0.553366 1.682754 -0.001567 0.112511 0.007551
 31   2.191605 -0.557383 -1.779378 0.000291 -0.149192 0.008350
 32   -0.814395 -0.093824 3.127092 0.564266 -3.064250 -0.563643
 33   14.298673 -0.408176 0.471578 -0.006284 -0.010019 -0.413614
 34   15.835795 0.581398 0.242756 -0.007436 -0.212263 -0.117891
 35   -0.815868 -0.091229 -3.114430 -0.120039 3.021422 -0.057358
 36   14.294526 -0.410349 -0.467541 0.000668 0.012859 -0.799565
 37   15.834409 0.579420 -0.284600 -0.169247 -0.012731 0.676454
 38   1.170936 -3.469374 -2.823813 0.006083 -0.004531 0.013931
 39   -4.473368 -0.855629 -0.703210 0.007790 0.017222 -0.068742
 40   1.086850 -3.434144 3.237290 -0.002884 -0.005470 0.022544
 41   -4.328368 -0.934126 1.002536 0.000838 0.001678 -0.006843
 42   -0.602779 1.689489 -2.481576 0.050575 0.078779 -0.007612
 43   -0.660162 1.675140 2.685778 -0.059334 -0.089329 0.015391
time 11
  0   -0.010486 -0.546892 -0.601210 0.000000 0.000000 -1.571354
  1   -1.093036 0.000002 -0.326057 -1.570808 -1.570749 0.000022
  2   2.262337 0.113614 0.064702 0.000292 0.000073 -0.265979
  3   2.380047 0.353302 0.047440 -0.002490 0.009164 -0.191873
  4   2.033756 0.190472 -0.000128 -0.169700 0.010307 -0.201087
  5   2.451511 0.204909 -0.003447 -0.144415 -0.047984 -0.191449
  6   7.247600 -0.397300 -0.109469 0.007563 0.010496 0.704095
  7   -2.022252 -0.104661 3.136172 1.202065 -1.016137 -4.977207
  8   1.168026 -0.537438 -0.063437 -1.046361 0.498077 -1.133437
  9   6.790376 -0.619176 0.015206 0.057874 -0.116346 -0.516350
 10   8.637599 0.544015 -0.090417 -3.988549 0.202875 -0.503999
 11   6.790465 -0.619039 0.017802 0.033409 -0.095477 -0.375607
 12   -2.022474 -0.104699 -2.873818 -0.913086 1.708113 -4.859123
 13   1.167898 -0.537463 0.063297 0.226284 -0.808227 -0.735891
 14   7.002743 -0.617765 -0.183752 0.373365 -0.307523 -1.827083
 15   8.209042 0.615527 -0.255885 2.312847 0.425976 0.561856
 16   7.002735 -0.617911 -0.183641 0.218936 -0.284497 -1.275937
 17   1.574674 0.609930 -0.000899 0.236335 0.294803 -0.154135
 18   -0.602177 0.511412 -0.000006 0.000000 0.000000 0.000000
 19   3.646428 0.364526 1.119313 -0.000002 -0.000014 -0.174510
 20   3.646422 0.364499 -1.117566 0.000007 -0.000003 -0.174546
 21   3.805634 1.330634 1.627658 0.000002 -0.000011 -0.000026
 22   -0.246060 -0.011889 0.516521 -0.000011 0.000031 0.000025
 23   3.805651 1.330659 -1.631083 0.000019 0.000002 -0.000024
 24   -0.246150 -0.011872 -0.516511 -0.000005 -0.000006 0.000048
 25   4.941364 1.997338 1.629330 0.000018 -0.000001 -0.000024
 26   4.941382 1.997366 -1.629410 -0.000001 0.000005 -0.000024
 27   2.930087 1.603639 1.514501 -0.000019 -0.000022 -0.000050
 28   2.932517 1.603245 -1.501142 -0.000002 -0.000009 -0.000024
 29   8.824059 0.150544 0.091743 0.065601 -0.025013 0.021603
 30   2.161868 -0.553366 1.671035 -0.001744 0.125327 0.008387
 31   2.199417 -0.557383 -1.771565 0.000337 -0.166080 0.009296
 32   -0.814395 -0.093824 3.127092 0.564266 -3.064250 -0.563643
 33   14.298673 -0.408176 0.471578 -0.006284 -0.010019 -0.413614
 34   15.835795 0.581398 0.242756 -0.007436 -0.212263 -0.117891
 35   -0.815868 -0.091229 -3.114430 -0.120039 3.021422 -0.057358
 36   14.294526 -0.410349 -0.467541 0.000668 0.012859 -0.799565
 37   15.834409 0.579420 -0.284600 -0.169247 -0.012731 0.676454
 38   1.178749 -3.469374 -2.823813 0.006778 -0.005049 0.015519
 39   -4.473368 -0.836097 -0.695397 0.008677 0.019163 -0.076511
 40   1.079037 -3.434144 3.237290 -0.003221 -0.006097 0.025110
 41   -4.316648 -0.918501 1.006442 0.000934 0.001870 -0.007629
 42   -0.594966 1.689489 -2.458138 0.056304 0.087703 -0.008490
 43   -0.660162 1.671233 2.666246 -0.066044 -0.099435 0.017147
time 12
  0   -0.010486 -0.546892 -0.601210 0.000000 0.000000 -1.571354
  1   -1.093036 0.000002 -0.326057 -1.570808 -1.570749 0.000022
  2   2.262337 0.113614 0.064702 0.000292 0.000073 -0.265979
  3   2.380047 0.353302 0.047440 -0.001755 0.006468 -0.200872
  4   2.033756 0.190472 -0.000128 -0.171692 0.012057 -0.186262
  5   2.451511 0.204909 -0.003447 -0.145750 -0.044707 -0.168764
  6   7.247600 -0.397300 -0.109469 0.007563 0.010496 0.704095
  7   -2.022252 -0.104661 3.136172 1.202065 -1.016137 -4.977207
  8   1.168026 -0.537438 -0.063437 -1.046108 0.470606 -1.124643
  9   6.790376 -0.619176 0.015206 0.057763 -0.117948 -0.528651
 10   8.637599 0.544015 -0.090417 -3.988549 0.202875 -0.503999
 11   6.790465 -0.619039 0.017802 0.033175 -0.096728 -0.384143
 12   -2.022474 -0.104699 -2.873818 -0.915577 1.708577 -4.861613
 13   1.167898 -0.537463 0.063297 0.264174 -0.797903 -0.764282
 14   7.002743 -0.617765 -0.183752 0.373365 -0.307409 -1.829063
 15   8.209042 0.615527 -0.255885 2.306951 0.424084 0.560834
 16   7.002735 -0.617911 -0.183641 0.218842 -0.284554 -1.277372
 17   1.574674 0.609930 -0.000899 0.240113 0.292601 -0.173947
 18   -0.602177 0.511412 -0.000006 0.000000 0.000000 0.000000
 19   3.646428 0.364526 1.119313 -0.000002 -0.000014 -0.174510
 20   3.646422 0.364499 -1.117566 0.000007 -0.000003 -0.174546
 21   3.805634 1.330634 1.627658 0.000002 -0.000011 -0.000026
 22   -0.246060 -0.011889 0.516521 -0.000011 0.000031 0.000025
 23   3.805651 1.330659 -1.631083 0.000019 0.000002 -0.000024
 24   -0.246150 -0.011872 -0.516511 -0.000005 -0.000006 0.000048
 25   4.941364 1.997338 1.629330 0.000018 -0.000001 -0.000024
 26   4.941382 1.997366 -1.629410 -0.000001 0.000005 -0.000024
 27   2.930087 1.603639 1.514501 -0.000019 -0.000022 -0.000050
 28   2.932517 1.603245 -1.501142 -0.000002 -0.000009 -0.000024
 29   8.824059 0.150544 0.091743 0.070948 -0.027767 0.038503
 30   2.165774 -0.553366 1.659316 -0.001893 0.136225 0.009116
 31   2.207230 -0.557383 -1.763752 0.000352 -0.180455 0.010096
 32   -0.814395 -0.093824 3.127092 0.564266 -3.064250 -0.563643
 33   14.298673 -0.408176 0.471578 -0.006284 -0.010019 -0.413614
 34   15.835795 0.581398 0.242756 -0.007436 -0.212263 -0.117891
 35   -0.815868 -0.091229 -3.114430 -0.120039 3.021422 -0.057358
 36   14.294526 -0.410349 -0.467541 0.000668 0.012859 -0.799565
 37   15.834409 0.579420 -0.284600 -0.169247 -0.012731 0.676454
 38   1.178749 -3.469374 -2.823813 0.007367 -0.005483 0.016863
 39   -4.473368 -0.816566 -0.691491 0.009432 0.020829 -0.083158
 40   1.079037 -3.434144 3.237290 -0.003494 -0.006627 0.027309
 41   -4.308836 -0.906782 1.010349 0.001018 0.002025 -0.008274
 42   -0.591060 1.689489 -2.438606 0.061169 0.095292 -0.009201
 43   -0.660162 1.667327 2.650620 -0.071766 -0.108049 0.018611
time 13
  0   -0.010486 -0.546892 -0.601210 0.000000 0.000000 -1.571354
  1   -1.093036 0.000002 -0.326057 -1.570808 -1.570749 0.000022
  2   2.262337 0.113614 0.064702 0.000292 0.000073 -0.265979
  3   2.380047 0.353302 0.047440 -0.000675 0.002549 -0.214258
  4   2.033756 0.190472 -0.000128 -0.173776 0.013974 -0.169661
  5   2.451511 0.204909 -0.003447 -0.147017 -0.041352 -0.145633
  6   7.247600 -0.397300 -0.109469 0.004759 0.007535 0.662124
  7   -2.022252 -0.104661 3.136172 1.209542 -1.017607 -4.941988
  8   1.168026 -0.537438 -0.063437 -1.047943 0.442178 -1.121797
  9   6.790376 -0.619176 0.015206 0.057763 -0.117814 -0.527670
 10   8.637599 0.544015 -0.090417 -3.988549 0.202875 -0.503999
 11   6.790465 -0.619039 0.017802 0.033205 -0.096586 -0.383451
 12   -2.022474 -0.104699 -2.873818 -0.939625 1.712699 -4.843613
 13   1.167898 -0.537463 0.063297 0.303329 -0.788851 -0.798121
 14   7.002743 -0.617765 -0.183752 0.373422 -0.307523 -1.826258
 15   8.209042 0.615527 -0.255885 2.300264 0.421814 0.559691
 16   7.002735 -0.617911 -0.183641 0.218983 -0.284497 -1.275440
 17   1.574674 0.609930 -0.000899 0.244622 0.297785 -0.158608
 18   -0.602177 0.511412 -0.000006 0.000000 0.000000 0.000000
 19   3.646428 0.364526 1.119313 -0.000002 -0.000014 -0.174510
 20   3.646422 0.364499 -1.117566 0.000007 -0.000003 -0.174546
 21   3.805634 1.330634 1.627658 0.000002 -0.000011 -0.000026
 22   -0.246060 -0.011889 0.516521 -0.000011 0.000031 0.000025
 23   3.805651 1.330659 -1.631083 0.000019 0.000002 -0.000024
 24   -0.246150 -0.011872 -0.516511 -0.000005 -0.000006 0.000048
 25   4.941364 1.997338 1.629330 0.000018 -0.000001 -0.000024
 26   4.941382 1.997366 -1.629410 -0.000001 0.000005 -0.000024
 27   2.930087 1.603639 1.514501 -0.000019 -0.000022 -0.000050
 28   2.932517 1.603245 -1.501142 -0.000002 -0.000009 -0.000024
 29   8.824059 0.150544 0.091743 0.075137 -0.029951 0.051593
 30   2.169681 -0.553366 1.651503 -0.002015 0.144681 0.009673
 31   2.215043 -0.557383 -1.759846 0.000383 -0.191619 0.010733
 32   -0.814395 -0.093824 3.127092 0.564266 -3.064250 -0.563643
 33   14.298673 -0.408176 0.471578 -0.006284 -0.010019 -0.413614
 34   15.835795 0.581398 0.242756 -0.007436 -0.212263 -0.117891
 35   -0.815868 -0.091229 -3.114430 -0.120039 3.021422 -0.057358
 36   14.294526 -0.410349 -0.467541 0.000668 0.012859 -0.799565
 37   15.834409 0.579420 -0.284600 -0.169247 -0.012731 0.676454
 38   1.182655 -3.473281 -2.823813 0.007809 -0.005820 0.017902
 39   -4.477274 -0.800940 -0.687584 0.010007 0.022112 -0.088291
 40   1.075131 -3.430237 3.237290 -0.003726 -0.007037 0.028959
 41   -4.301023 -0.898969 1.014255 0.001078 0.002157 -0.008779
 42   -0.587153 1.685583 -2.422981 0.064956 0.101195 -0.009786
 43   -0.660162 1.667327 2.634995 -0.076214 -0.114734 0.019782
time 14
  0   -0.010486 -0.546892 -0.601210 0.000000 0.000000 -1.571354
  1   -1.093036 0.000002 -0.326057 -1.570808 -1.570749 0.000022
  2   2.262337 0.113614 0.064702 0.000292 0.000073 -0.265979
  3   2.380047 0.353302 0.047440 0.000000 -0.000028 -0.223012
  4   2.033756 0.190472 -0.000128 -0.175749 0.015760 -0.154763
  5   2.451511 0.204909 -0.003447 -0.148061 -0.038401 -0.125350
  6   7.247600 -0.397300 -0.109469 0.001990 0.004479 0.620185
  7   -2.022252 -0.104661 3.136172 1.216923 -1.019164 -4.906675
  8   1.168026 -0.537438 -0.063437 -1.050095 0.414354 -1.116419
  9   6.790376 -0.619176 0.015206 0.057763 -0.118549 -0.533179
 10   8.637599 0.544015 -0.090417 -3.988549 0.202875 -0.503999
 11   6.790465 -0.619039 0.017802 0.033059 -0.097154 -0.387315
 12   -2.022474 -0.104699 -2.873818 -0.970187 1.718184 -4.832412
 13   1.167898 -0.537463 0.063297 0.342203 -0.779698 -0.832989
 14   7.002743 -0.617765 -0.183752 0.373422 -0.307523 -1.825763
 15   8.209042 0.615527 -0.255885 2.292930 0.419393 0.558488
 16   7.002735 -0.617911 -0.183641 0.219030 -0.284441 -1.275109
 17   1.574674 0.609930 -0.000899 0.248887 0.302897 -0.143786
 18   -0.602177 0.511412 -0.000006 0.000000 0.000000 0.000000
 19   3.658147 0.270773 1.119313 -0.000002 -0.000014 -0.174510
 20   3.658141 0.270746 -1.117566 0.000007 -0.000003 -0.174546
 21   3.352495 1.260319 1.572969 0.000002 -0.000011 -0.000026
 22   -0.238247 -0.382994 0.496989 0.000099 -0.028720 0.445010
 23   3.360325 1.256438 -1.623270 0.000019 0.000002 -0.000024
 24   -0.160210 -0.285318 -0.532136 0.000091 -0.028745 0.445076
 25   4.531195 1.993432 1.637143 -0.032209 0.220350 0.007203
 26   4.531213 1.993460 -1.621597 0.035761 -0.204352 -0.020865
 27   3.117593 1.463010 1.502782 -0.000019 -0.000022 -0.000050
 28   3.120023 1.462616 -1.512861 -0.000002 -0.000009 -0.000024
 29   8.824059 0.150544 0.091743 0.077811 -0.031399 0.060069
 30   2.173587 -0.553366 1.647597 -0.002096 0.150174 0.010038
 31   2.218949 -0.557383 -1.755940 0.000398 -0.198845 0.011134
 32   -0.814395 -0.093824 3.127092 0.564266 -3.064250 -0.563643
 33   14.298673 -0.408176 0.471578 -0.006284 -0.010019 -0.413614
 34   15.835795 0.581398 0.242756 -0.007436 -0.212263 -0.117891
 35   -0.815868 -0.091229 -3.114430 -0.120039 3.021422 -0.057358
 36   14.294526 -0.410349 -0.467541 0.000668 0.012859 -0.799565
 37   15.834409 0.579420 -0.284600 -0.169247 -0.012731 0.676454
 38   1.182655 -3.473281 -2.823813 0.008104 -0.006049 0.018574
 39   -4.477274 -0.789221 -0.687584 0.010391 0.022950 -0.091628
 40   1.075131 -3.430237 3.237290 -0.003852 -0.007302 0.030059
 41   -4.293211 -0.891156 1.018162 0.001126 0.002241 -0.009115
 42   -0.583247 1.685583 -2.415168 0.067401 0.104998 -0.010163
 43   -0.660162 1.663421 2.627182 -0.079075 -0.119049 0.020535
time 15
  0   -0.010486 -0.546892 -0.601210 0.000000 0.000000 -1.571354
  1   -1.093036 0.000002 -0.326057 -1.570808 -1.570749 0.000022
  2   2.262337 0.113614 0.064702 0.000292 0.000073 -0.265979
  3   2.380047 0.353302 0.047440 0.000120 -0.000651 -0.225379
  4   2.033756 0.190472 -0.000128 -0.177077 0.016982 -0.144506
  5   2.451511 0.204909 -0.003447 -0.148763 -0.036273 -0.111011
  6   7.247600 -0.397300 -0.109469 -0.000478 0.001267 0.578246
  7   -2.022252 -0.104661 3.136172 1.224304 -1.020836 -4.871081
  8   1.168026 -0.537438 -0.063437 -1.052183 0.392266 -1.111106
  9   6.790376 -0.619176 0.015206 0.057707 -0.119683 -0.542386
 10   8.637599 0.544015 -0.090417 -3.988549 0.202875 -0.503999
 11   6.790465 -0.619039 0.017802 0.032913 -0.098035 -0.393833
 12   -2.022474 -0.104699 -2.873818 -1.017228 1.727240 -4.838060
 13   1.167898 -0.537463 0.063297 0.376367 -0.773646 -0.869794
 14   7.002743 -0.617765 -0.183752 0.373593 -0.307523 -1.822958
 15   8.209042 0.615527 -0.255885 2.285740 0.417124 0.557285
 16   7.002735 -0.617911 -0.183641 0.219171 -0.284328 -1.273122
 17   1.574674 0.609930 -0.000899 0.252218 0.307654 -0.124567
 18   -0.602177 0.511412 -0.000006 0.000000 0.000000 0.000000
 19   3.673773 0.177020 1.119313 -0.000002 -0.000014 -0.174510
 20   3.673767 0.176993 -1.117566 0.000007 -0.000003 -0.174546
 21   2.899356 1.190005 1.518280 0.000002 -0.000011 -0.000026
 22   -0.226528 -0.758005 0.473551 0.000194 -0.057471 0.890061
 23   2.914999 1.182217 -1.611551 0.000019 0.000002 -0.000024
 24   -0.074270 -0.562670 -0.551668 0.000187 -0.057496 0.890104
 25   4.117120 1.989525 1.648862 -0.064423 0.440701 0.014429
 26   4.117138 1.989553 -1.609878 0.071535 -0.408734 -0.041706
 27   3.305099 1.322380 1.487156 -0.000019 -0.000022 -0.000050
 28   3.307528 1.321986 -1.528487 -0.000002 -0.000009 -0.000024
 29   8.824059 0.150544 0.091743 0.078791 -0.031921 0.063073
 30   2.173587 -0.553366 1.643691 -0.002123 0.152121 0.010167
 31   2.218949 -0.557383 -1.752033 0.000398 -0.201410 0.011279
 32   -0.814395 -0.093824 3.127092 0.564266 -3.064250 -0.563643
 33   14.298673 -0.408176 0.471578 -0.006284 -0.010019 -0.413614
 34   15.835795 0.581398 0.242756 -0.007436 -0.212263 -0.117891
 35   -0.815868 -0.091229 -3.114430 -0.120039 3.021422 -0.057358
 36   14.294526 -0.410349 -0.467541 0.000668 0.012859 -0.799565
 37   15.834409 0.579420 -0.284600 -0.169247 -0.012731 0.676454
 38   1.186561 -3.473281 -2.823813 0.008209 -0.006122 0.018818
 39   -4.477274 -0.789221 -0.683678 0.010522 0.023250 -0.092806
 40   1.071225 -3.430237 3.237290 -0.003915 -0.007386 0.030425
 41   -4.293211 -0.891156 1.018162 0.001138 0.002265 -0.009227
 42   -0.583247 1.685583 -2.411262 0.068276 0.106362 -0.010288
 43   -0.660162 1.663421 2.623276 -0.080100 -0.120587 0.020786
time 16
  0   -0.010486 -0.546892 -0.601210 0.000000 0.000000 -1.571354
  1   -1.093036 0.000002 -0.326057 -1.570808 -1.570749 0.000022
  2   2.262337 0.113614 0.064702 0.000292 0.000073 -0.265979
  3   2.380047 0.353302 0.047440 0.000180 -0.000891 -0.226032
  4   2.033756 0.190472 -0.000128 -0.177612 0.017534 -0.140265
  5   2.451511 0.204909 -0.003447 -0.149088 -0.035294 -0.104473
  6   7.247600 -0.397300 -0.109469 -0.002947 -0.001921 0.536276
  7   -2.022252 -0.104661 3.136172 1.231685 -1.022681 -4.835487
  8   1.168026 -0.537438 -0.063437 -1.053765 0.379587 -1.111359
  9   6.790376 -0.619176 0.015206 0.057763 -0.119349 -0.539443
 10   8.637599 0.544015 -0.090417 -3.988549 0.202875 -0.503999
 11   6.790465 -0.619039 0.017802 0.032942 -0.097751 -0.391699
 12   -2.022474 -0.104699 -2.873818 -1.077587 1.740504 -4.857209
 13   1.167898 -0.537463 0.063297 0.398510 -0.773188 -0.902483
 14   7.002743 -0.617765 -0.183752 0.373878 -0.307579 -1.815945
 15   8.209042 0.615527 -0.255885 2.278981 0.414854 0.556083
 16   7.002735 -0.617911 -0.183641 0.219595 -0.284159 -1.268210
 17   1.574674 0.609930 -0.000899 0.254209 0.311914 -0.093261
 18   -0.602177 0.511412 -0.000006 0.000000 0.000000 0.000000
 19   3.658147 0.270773 1.119313 -0.000002 -0.000014 -0.174510
 20   3.658141 0.270746 -1.117566 0.000007 -0.000003 -0.174546
 21   3.352495 1.260319 1.572969 0.000002 -0.000011 -0.000026
 22   -0.238247 -0.382994 0.496989 0.000099 -0.028720 0.445010
 23   3.360325 1.256438 -1.623270 0.000019 0.000002 -0.000024
 24   -0.160210 -0.285318 -0.532136 0.000091 -0.028745 0.445076
 25   4.531195 1.993432 1.637143 -0.032209 0.220350 0.007203
 26   4.531213 1.993460 -1.621597 0.035761 -0.204352 -0.020865
 27   3.117593 1.463010 1.502782 -0.000019 -0.000022 -0.000050
 28   3.120023 1.462616 -1.512861 -0.000002 -0.000009 -0.000024
 29   8.824059 0.150544 0.091743 0.077811 -0.031399 0.060069
 30   2.173587 -0.553366 1.647597 -0.002096 0.150174 0.010038
 31   2.218949 -0.557383 -1.755940 0.000398 -0.198845 0.011134
 32   -0.814395 -0.093824 3.127092 0.564266 -3.064250 -0.563643
 33   14.298673 -0.408176 0.471578 -0.006284 -0.010019 -0.413614
 34   15.835795 0.581398 0.242756 -0.007436 -0.212263 -0.117891
 35   -0.815868 -0.091229 -3.114430 -0.120039 3.021422 -0.057358
 36   14.294526 -0.410349 -0.467541 0.000668 0.012859 -0.799565
 37   15.834409 0.579420 -0.284600 -0.169247 -0.012731 0.676454
 38   1.182655 -3.473281 -2.823813 0.008104 -0.006049 0.018574
 39   -4.477274 -0.789221 -0.687584 0.010391 0.022950 -0.091628
 40   1.075131 -3.430237 3.237290 -0.003852 -0.007302 0.030059
 41   -4.293211 -0.891156 1.018162 0.001126 0.002241 -0.009115
 42   -0.583247 1.685583 -2.415168 0.067401 0.104998 -0.010163
 43   -0.660162 1.663421 2.627182 -0.079075 -0.119049 0.020535
time 17
  0   -0.010486 -0.546892 -0.601210 0.000000 0.000000 -1.571354
  1   -1.093036 0.000002 -0.326057 -1.570808 -1.570749 0.000022
  2   2.262337 0.113614 0.064702 0.000292 0.000073 -0.265979
  3   2.380047 0.353302 0.047440 0.000135 -0.000735 -0.225583
  4   2.033756 0.190472 -0.000128 -0.177667 0.017581 -0.139685
  5   2.451511 0.204909 -0.003447 -0.149105 -0.035177 -0.103631
  6   7.247600 -0.397300 -0.109469 -0.005248 -0.005264 0.494432
  7   -2.022252 -0.104661 3.136172 1.238970 -1.024584 -4.799517
  8   1.168026 -0.537438 -0.063437 -1.055094 0.371587 -1.115660
  9   6.790376 -0.619176 0.015206 0.057763 -0.117547 -0.525557
 10   8.637599 0.544015 -0.090417 -3.988549 0.202875 -0.503999
 11   6.790465 -0.619039 0.017802 0.033234 -0.096415 -0.382009
 12   -2.022474 -0.104699 -2.873818 -1.133251 1.755161 -4.872335
 13   1.167898 -0.537463 0.063297 0.412640 -0.775527 -0.930692
 14   7.002743 -0.617765 -0.183752 0.374333 -0.307693 -1.805219
 15   8.209042 0.615527 -0.255885 2.273013 0.412887 0.555000
 16   7.002735 -0.617911 -0.183641 0.220160 -0.283821 -1.260814
 17   1.574674 0.609930 -0.000899 0.255671 0.315890 -0.053380
 18   -0.602177 0.511412 -0.000006 0.000000 0.000000 0.000000
 19   3.646428 0.364526 1.119313 -0.000002 -0.000014 -0.174510
 20   3.646422 0.364499 -1.117566 0.000007 -0.000003 -0.174546
 21   3.805634 1.330634 1.627658 0.000002 -0.000011 -0.000026
 22   -0.246060 -0.011889 0.516521 -0.000011 0.000031 0.000025
 23   3.805651 1.330659 -1.631083 0.000019 0.000002 -0.000024
 24   -0.246150 -0.011872 -0.516511 -0.000005 -0.000006 0.000048
 25   4.941364 1.997338 1.629330 0.000018 -0.000001 -0.000024
 26   4.941382 1.997366 -1.629410 -0.000001 0.000005 -0.000024
 27   2.930087 1.603639 1.514501 -0.000019 -0.000022 -0.000050
 28   2.932517 1.603245 -1.501142 -0.000002 -0.000009 -0.000024
 29   8.824059 0.150544 0.091743 0.075137 -0.029951 0.051593
 30   2.169681 -0.553366 1.651503 -0.002015 0.144681 0.009673
 31   2.215043 -0.557383 -1.759846 0.000383 -0.191619 0.010733
 32   -0.814395 -0.093824 3.127092 0.564266 -3.064250 -0.563643
 33   14.298673 -0.408176 0.471578 -0.006284 -0.010019 -0.413614
 34   15.835795 0.581398 0.242756 -0.007436 -0.212263 -0.117891
 35   -0.815868 -0.091229 -3.114430 -0.120039 3.021422 -0.057358
 36   14.294526 -0.410349 -0.467541 0.000668 0.012859 -0.799565
 37   15.834409 0.579420 -0.284600 -0.169247 -0.012731 0.676454
 38   1.182655 -3.473281 -2.823813 0.007809 -0.005820 0.017902
 39   -4.477274 -0.800940 -0.687584 0.010007 0.022112 -0.088291
 40   1.075131 -3.430237 3.237290 -0.003726 -0.007037 0.028959
 41   -4.301023 -0.898969 1.014255 0.001078 0.002157 -0.008779
 42   -0.587153 1.685583 -2.422981 0.064956 0.101195 -0.009786
 43   -0.660162 1.667327 2.634995 -0.076214 -0.114734 0.019782
time 18
  0   -0.010486 -0.546892 -0.601210 0.000000 0.000000 -1.571354
  1   -1.093036 0.000002 -0.326057 -1.570808 -1.570749 0.000022
  2   2.262337 0.113614 0.064702 0.000292 0.000073 -0.265979
  3   2.380047 0.353302 0.047440 0.000045 -0.000424 -0.224522
  4   2.033756 0.190472 -0.000128 -0.177483 0.017378 -0.141388
  5   2.451511 0.204909 -0.003447 -0.148968 -0.035516 -0.106058
  6   7.247600 -0.397300 -0.109469 -0.005248 -0.005264 0.494432
  7   -2.022252 -0.104661 3.136172 1.238970 -1.024584 -4.799517
  8   1.168026 -0.537438 -0.063437 -1.055600 0.368568 -1.119646
  9   6.790376 -0.619176 0.015206 0.057985 -0.115879 -0.512501
 10   8.637599 0.544015 -0.090417 -3.988549 0.202875 -0.503999
 11   6.790465 -0.619039 0.017802 0.033526 -0.095136 -0.372954
 12   -2.022474 -0.104699 -2.873818 -1.163622 1.764390 -4.903164
 13   1.167898 -0.537463 0.063297 0.417350 -0.778324 -0.944978
 14   7.002743 -0.617765 -0.183752 0.374675 -0.307807 -1.797381
 15   8.209042 0.615527 -0.255885 2.268411 0.411373 0.554158
 16   7.002735 -0.617911 -0.183641 0.220678 -0.283539 -1.255295
 17   1.574674 0.609930 -0.000899 0.255468 0.315748 -0.050423
 18   -0.602177 0.511412 -0.000006 0.000000 0.000000 0.000000
 19   3.646428 0.364526 1.119313 -0.000002 -0.000014 -0.174510
 20   3.646422 0.364499 -1.117566 0.000007 -0.000003 -0.174546
 21   3.805634 1.330634 1.627658 0.000002 -0.000011 -0.000026
 22   -0.246060 -0.011889 0.516521 -0.000011 0.000031 0.000025
 23   3.805651 1.330659 -1.631083 0.000019 0.000002 -0.000024
 24   -0.246150 -0.011872 -0.516511 -0.000005 -0.000006 0.000048
 25   4.941364 1.997338 1.629330 0.000018 -0.000001 -0.000024
 26   4.941382 1.997366 -1.629410 -0.000001 0.000005 -0.000024
 27   2.930087 1.603639 1.514501 -0.000019 -0.000022 -0.000050
 28   2.932517 1.603245 -1.501142 -0.000002 -0.000009 -0.000024
 29   8.824059 0.150544 0.091743 0.070948 -0.027767 0.038503
 30   2.165774 -0.553366 1.659316 -0.001893 0.136225 0.009116
 31   2.207230 -0.557383 -1.763752 0.000352 -0.180455 0.010096
 32   -0.814395 -0.093824 3.127092 0.564266 -3.064250 -0.563643
 33   14.298673 -0.408176 0.471578 -0.006284 -0.010019 -0.413614
 34   15.835795 0.581398 0.242756 -0.007436 -0.212263 -0.117891
 35   -0.815868 -0.091229 -3.114430 -0.120039 3.021422 -0.057358
 36   14.294526 -0.410349 -0.467541 0.000668 0.012859 -0.799565
 37   15.834409 0.579420 -0.284600 -0.169247 -0.012731 0.676454
 38   1.178749 -3.469374 -2.823813 0.007367 -0.005483 0.016863
 39   -4.473368 -0.816566 -0.691491 0.009432 0.020829 -0.083158
 40   1.079037 -3.434144 3.237290 -0.003494 -0.006627 0.027309
 41   -4.308836 -0.906782 1.010349 0.001018 0.002025 -0.008274
 42   -0.591060 1.689489 -2.438606 0.061169 0.095292 -0.009201
 43   -0.660162 1.667327 2.650620 -0.071766 -0.108049 0.018611
time 19
  0   -0.010486 -0.546892 -0.601210 0.000000 0.000000 -1.571354
  1   -1.093036 0.000002 -0.326057 -1.570808 -1.570749 0.000022
  2   2.262337 0.113614 0.064702 0.000292 0.000073 -0.265979
  3   2.380047 0.353302 0.047440 0.000000 -0.000136 -0.223461
  4   2.033756 0.190472 -0.000128 -0.177206 0.017090 -0.143491
  5   2.451511 0.204909 -0.003447 -0.148814 -0.036038 -0.109401
  6   7.247600 -0.397300 -0.109469 -0.005248 -0.005264 0.494432
  7   -2.022252 -0.104661 3.136172 1.238970 -1.024584 -4.799517
  8   1.168026 -0.537438 -0.063437 -1.055600 0.369826 -1.121291
  9   6.790376 -0.619176 0.015206 0.058040 -0.115145 -0.506841
 10   8.637599 0.544015 -0.090417 -3.988549 0.202875 -0.503999
 11   6.790465 -0.619039 0.017802 0.033613 -0.094596 -0.368917
 12   -2.022474 -0.104699 -2.873818 -1.168795 1.766132 -4.908430
 13   1.167898 -0.537463 0.063297 0.416928 -0.779647 -0.946855
 14   7.002743 -0.617765 -0.183752 0.374732 -0.307807 -1.794246
 15   8.209042 0.615527 -0.255885 2.265104 0.410314 0.553617
 16   7.002735 -0.617911 -0.183641 0.220819 -0.283426 -1.253253
 17   1.574674 0.609930 -0.000899 0.254980 0.315535 -0.045987
 18   -0.602177 0.511412 -0.000006 0.000000 0.000000 0.000000
 19   3.646428 0.364526 1.119313 -0.000002 -0.000014 -0.174510
 20   3.646422 0.364499 -1.117566 0.000007 -0.000003 -0.174546
 21   3.805634 1.330634 1.627658 0.000002 -0.000011 -0.000026
 22   -0.246060 -0.011889 0.516521 -0.000011 0.000031 0.000025
 23   3.805651 1.330659 -1.631083 0.000019 0.000002 -0.000024
 24   -0.246150 -0.011872 -0.516511 -0.000005 -0.000006 0.000048
 25   4.941364 1.997338 1.629330 0.000018 -0.000001 -0.000024
 26   4.941382 1.997366 -1.629410 -0.000001 0.000005 -0.000024
 27   2.930087 1.603639 1.514501 -0.000019 -0.000022 -0.000050
 28   2.932517 1.603245 -1.501142 -0.000002 -0.000009 -0.000024
 29   8.824059 0.150544 0.091743 0.065601 -0.025013 0.021603
 30   2.161868 -0.553366 1.671035 -0.001744 0.125327 0.008387
 31   2.199417 -0.557383 -1.771565 0.000337 -0.166080 0.009296
 32   -0.814395 -0.093824 3.127092 0.564266 -3.064250 -0.563643
 33   14.298673 -0.408176 0.471578 -0.006284 -0.010019 -0.413614
 34   15.835795 0.581398 0.242756 -0.007436 -0.212263 -0.117891
 35   -0.815868 -0.091229 -3.114430 -0.120039 3.021422 -0.057358
 36   14.294526 -0.410349 -0.467541 0.000668 0.012859 -0.799565
 37   15.834409 0.579420 -0.284600 -0.169247 -0.012731 0.676454
 38   1.178749 -3.469374 -2.823813 0.006778 -0.005049 0.015519
 39   -4.473368 -0.836097 -0.695397 0.008677 0.019163 -0.076511
 40   1.079037 -3.434144 3.237290 -0.003221 -0.006097 0.025110
 41   -4.316648 -0.918501 1.006442 0.000934 0.001870 -0.007629
 42   -0.594966 1.689489 -2.458138 0.056304 0.087703 -0.008490
 43   -0.660162 1.671233 2.666246 -0.066044 -0.099435 0.017147
time 20
  0   -0.010486 -0.546892 -0.601210 0.000000 0.000000 -1.571354
  1   -1.093036 0.000002 -0.326057 -1.570808 -1.570749 0.000022
  2   2.262337 0.113614 0.064702 0.000292 0.000073 -0.265979
  3   2.380047 0.353302 0.047440 0.000000 -0.000028 -0.223012
  4   2.033756 0.190472 -0.000128 -0.177077 0.016982 -0.144506
  5   2.451511 0.204909 -0.003447 -0.148763 -0.036273 -0.111011
  6   7.247600 -0.397300 -0.109469 -0.005248 -0.005264 0.494432
  7   -2.022252 -0.104661 3.136172 1.238970 -1.024584 -4.799517
  8   1.168026 -0.537438 -0.063437 -1.055347 0.370832 -1.121607
  9   6.790376 -0.619176 0.015206 0.058040 -0.114945 -0.504879
 10   8.637599 0.544015 -0.090417 -3.988549 0.202875 -0.503999
 11   6.790465 -0.619039 0.017802 0.033672 -0.094425 -0.367591
 12   -2.022474 -0.104699 -2.873818 -1.163622 1.764390 -4.903164
 13   1.167898 -0.537463 0.063297 0.415733 -0.779545 -0.944373
 14   7.002743 -0.617765 -0.183752 0.374732 -0.307807 -1.793751
 15   8.209042 0.615527 -0.255885 2.264097 0.409936 0.553437
 16   7.002735 -0.617911 -0.183641 0.220866 -0.283426 -1.252811
 17   1.574674 0.609930 -0.000899 0.254777 0.315535 -0.043807
 18   -0.602177 0.511412 -0.000006 0.000000 0.000000 0.000000
 19   3.646428 0.364526 1.119313 -0.000002 -0.000014 -0.174510
 20   3.646422 0.364499 -1.117566 0.000007 -0.000003 -0.174546
 21   3.805634 1.330634 1.627658 0.000002 -0.000011 -0.000026
 22   -0.246060 -0.011889 0.516521 -0.000011 0.000031 0.000025
 23   3.805651 1.330659 -1.631083 0.000019 0.000002 -0.000024
 24   -0.246150 -0.011872 -0.516511 -0.000005 -0.000006 0.000048
 25   4.941364 1.997338 1.629330 0.000018 -0.000001 -0.000024
 26   4.941382 1.997366 -1.629410 -0.000001 0.000005 -0.000024
 27   2.930087 1.603639 1.514501 -0.000019 -0.000022 -0.000050
 28   2.932517 1.603245 -1.501142 -0.000002 -0.000009 -0.000024
 29   8.824059 0.150544 0.091743 0.059095 -0.021928 0.001754
 30   2.157961 -0.553366 1.682754 -0.001567 0.112511 0.007529
 31   2.191605 -0.557383 -1.779378 0.000291 -0.149192 0.008350
 32   -0.814395 -0.093824 3.127092 0.564266 -3.064250 -0.563643
 33   14.298673 -0.408176 0.471578 -0.006284 -0.010019 -0.413614
 34   15.835795 0.581398 0.242756 -0.007436 -0.212263 -0.117891
 35   -0.815868 -0.091229 -3.114430 -0.120039 3.021422 -0.057358
 36   14.294526 -0.410349 -0.467541 0.000668 0.012859 -0.799565
 37   15.834409 0.579420 -0.284600 -0.169247 -0.012731 0.676454
 38   1.170936 -3.469374 -2.823813 0.006083 -0.004531 0.013931
 39   -4.473368 -0.855629 -0.703210 0.007790 0.017222 -0.068742
 40   1.086850 -3.434144 3.237290 -0.002884 -0.005470 0.022544
 41   -4.328368 -0.934126 1.002536 0.000838 0.001678 -0.006843
 42   -0.602779 1.689489 -2.481576 0.050575 0.078779 -0.007612
 43   -0.660162 1.675140 2.685778 -0.059334 -0.089329 0.015391
time 21
  0   -0.010486 -0.546892 -0.601210 0.000000 0.000000 -1.571354
  1   -1.093036 0.000002 -0.326057 -1.570808 -1.570749 0.000022
  2   2.262337 0.113614 0.064702 0.000292 0.000073 -0.265979
  3   2.380047 0.353302 0.047440 0.000000 -0.000028 -0.223012
  4   2.033756 0.190472 -0.000128 -0.177077 0.016982 -0.144506
  5   2.451511 0.204909 -0.003447 -0.148763 -0.036273 -0.111011
  6   7.247600 -0.397300 -0.109469 -0.005248 -0.005264 0.494432
  7   -2.022252 -0.104661 3.136172 1.238970 -1.024584 -4.799517
  8   1.168026 -0.537438 -0.063437 -1.055347 0.370832 -1.121607
  9   6.790376 -0.619176 0.015206 0.058040 -0.114945 -0.504879
 10   8.637599 0.544015 -0.090417 -3.988549 0.202875 -0.503999
 11   6.790465 -0.619039 0.017802 0.033672 -0.094425 -0.367591
 12   -2.022474 -0.104699 -2.873818 -1.163622 1.764390 -4.903164
 13   1.167898 -0.537463 0.063297 0.415733 -0.779545 -0.944373
 14   7.002743 -0.617765 -0.183752 0.374732 -0.307807 -1.793751
 15   8.209042 0.615527 -0.255885 2.264097 0.409936 0.553437
 16   7.002735 -0.617911 -0.183641 0.220866 -0.283426 -1.252811
 17   1.574674 0.609930 -0.000899 0.254777 0.315535 -0.043807
 18   -0.602177 0.511412 -0.000006 0.000000 0.000000 0.000000
 19   3.646428 0.364526 1.119313 -0.000002 -0.000014 -0.174510
 20   3.646422 0.364499 -1.117566 0.000007 -0.000003 -0.174546
 21   3.805634 1.330634 1.627658 0.000002 -0.000011 -0.000026
 22   -0.246060 -0.011889 0.516521 -0.000011 0.000031 0.000025
 23   3.805651 1.330659 -1.631083 0.000019 0.000002 -0.000024
 24   -0.246150 -0.011872 -0.516511 -0.000005 -0.000006 0.000048
 25   4.941364 1.997338 1.629330 0.000018 -0.000001 -0.000024
 26   4.941382 1.997366 -1.629410 -0.000001 0.000005 -0.000024
 27   2.930087 1.603639 1.514501 -0.000019 -0.000022 -0.000050
 28   2.932517 1.603245 -1.501142 -0.000002 -0.000009 -0.000024
 29   8.824059 0.150544 0.091743 0.051965 -0.018628 -0.020242
 30   2.150149 -0.557273 1.694474 -0.001378 0.098329 0.006607
 31   2.183792 -0.557383 -1.791097 0.000260 -0.130517 0.007313
 32   -0.814395 -0.093824 3.127092 0.564266 -3.064250 -0.563643
 33   14.298673 -0.408176 0.471578 -0.006284 -0.010019 -0.413614
 34   15.835795 0.581398 0.242756 -0.007436 -0.212263 -0.117891
 35   -0.815868 -0.091229 -3.114430 -0.120039 3.021422 -0.057358
 36   14.294526 -0.410349 -0.467541 0.000668 0.012859 -0.799565
 37   15.834409 0.579420 -0.284600 -0.169247 -0.012731 0.676454
 38   1.167030 -3.465468 -2.823813 0.005325 -0.003965 0.012159
 39   -4.469461 -0.882974 -0.707116 0.006819 0.015065 -0.060132
 40   1.090756 -3.438050 3.237290 -0.002526 -0.004783 0.019734
 41   -4.343993 -0.949752 0.994723 0.000730 0.001462 -0.005974
 42   -0.610592 1.689489 -2.508921 0.044235 0.068921 -0.006650
 43   -0.660162 1.675140 2.709216 -0.051900 -0.078141 0.013467
time 22
  0   -0.010486 -0.546892 -0.601210 0.000000 0.000000 -1.571354
  1   -1.093036 0.000002 -0.326057 -1.570808 -1.570749 0.000022
  2   2.262337 0.113614 0.064702 0.000292 0.000073 -0.265979
  3   2.380047 0.353302 0.047440 0.000000 -0.000028 -0.223012
  4   2.033756 0.190472 -0.000128 -0.177077 0.016982 -0.144506
  5   2.451511 0.204909 -0.003447 -0.148763 -0.036273 -0.111011
  6   7.247600 -0.397300 -0.109469 -0.005248 -0.005264 0.494432
  7   -2.022252 -0.104661 3.136172 1.238970 -1.024584 -4.799517
  8   1.168026 -0.537438 -0.063437 -1.055347 0.370832 -1.121607
  9   6.790376 -0.619176 0.015206 0.058040 -0.114945 -0.504879
 10   8.637599 0.544015 -0.090417 -3.988549 0.202875 -0.503999
 11   6.790465 -0.619039 0.017802 0.033672 -0.094425 -0.367591
 12   -2.022474 -0.104699 -2.873818 -1.163622 1.764390 -4.903164
 13   1.167898 -0.537463 0.063297 0.415733 -0.779545 -0.944373
 14   7.002743 -0.617765 -0.183752 0.374732 -0.307807 -1.793751
 15   8.209042 0.615527 -0.255885 2.264097 0.409936 0.553437
 16   7.002735 -0.617911 -0.183641 0.220866 -0.283426 -1.252811
 17   1.574674 0.609930 -0.000899 0.254777 0.315535 -0.043807
 18   -0.602177 0.511412 -0.000006 0.000000 0.000000 0.000000
 19   3.646428 0.364526 1.119313 -0.000002 -0.000014 -0.174510
 20   3.646422 0.364499 -1.117566 0.000007 -0.000003 -0.174546
 21   3.805634 1.330634 1.627658 0.000002 -0.000011 -0.000026
 22   -0.246060 -0.011889 0.516521 -0.000011 0.000031 0.000025
 23   3.805651 1.330659 -1.631083 0.000019 0.000002 -0.000024
 24   -0.246150 -0.011872 -0.516511 -0.000005 -0.000006 0.000048
 25   4.941364 1.997338 1.629330 0.000018 -0.000001 -0.000024
 26   4.941382 1.997366 -1.629410 -0.000001 0.000005 -0.000024
 27   2.930087 1.603639 1.514501 -0.000019 -0.000022 -0.000050
 28   2.932517 1.603245 -1.501142 -0.000002 -0.000009 -0.000024
 29   8.824059 0.150544 0.091743 0.044211 -0.015328 -0.043579
 30   2.146242 -0.557273 1.710099 -0.001161 0.083334 0.005599
 31   2.172073 -0.561289 -1.798910 0.000215 -0.110755 0.006203
 32   -0.814395 -0.093824 3.127092 0.564266 -3.064250 -0.563643
 33   14.298673 -0.408176 0.471578 -0.006284 -0.010019 -0.413614
 34   15.835795 0.581398 0.242756 -0.007436 -0.212263 -0.117891
 35   -0.815868 -0.091229 -3.114430 -0.120039 3.021422 -0.057358
 36   14.294526 -0.410349 -0.467541 0.000668 0.012859 -0.799565
 37   15.834409 0.579420 -0.284600 -0.169247 -0.012731 0.676454
 38   1.163123 -3.465468 -2.823813 0.004505 -0.003362 0.010326
 39   -4.469461 -0.910318 -0.714929 0.005789 0.012776 -0.051017
 40   1.094663 -3.438050 3.237290 -0.002147 -0.004060 0.016740
 41   -4.355712 -0.965377 0.990817 0.000622 0.001246 -0.005076
 42   -0.618404 1.693396 -2.536265 0.037548 0.058479 -0.005646
 43   -0.664068 1.679046 2.736560 -0.044042 -0.066310 0.011418
time 23
  0   -0.010486 -0.546892 -0.601210 0.000000 0.000000 -1.571354
  1   -1.093036 0.000002 -0.326057 -1.570808 -1.570749 0.000022
  2   2.262337 0.113614 0.064702 0.000292 0.000073 -0.265979
  3   2.380047 0.353302 0.047440 0.000000 -0.000028 -0.223012
  4   2.033756 0.190472 -0.000128 -0.177077 0.016982 -0.144506
  5   2.451511 0.204909 -0.003447 -0.148763 -0.036273 -0.111011
  6   7.247600 -0.397300 -0.109469 -0.005248 -0.005264 0.494432
  7   -2.022252 -0.104661 3.136172 1.238970 -1.024584 -4.799517
  8   1.168026 -0.537438 -0.063437 -1.055347 0.370832 -1.121607
  9   6.790376 -0.619176 0.015206 0.058040 -0.114945 -0.504879
 10   8.637599 0.544015 -0.090417 -3.988549 0.202875 -0.503999
 11   6.790465 -0.619039 0.017802 0.033672 -0.094425 -0.367591
 12   -2.022474 -0.104699 -2.873818 -1.163622 1.764390 -4.903164
 13   1.167898 -0.537463 0.063297 0.415733 -0.779545 -0.944373
 14   7.002743 -0.617765 -0.183752 0.374732 -0.307807 -1.793751
 15   8.209042 0.615527 -0.255885 2.264097 0.409936 0.553437
 16   7.002735 -0.617911 -0.183641 0.220866 -0.283426 -1.252811
 17   1.574674 0.609930 -0.000899 0.254777 0.315535 -0.043807
 18   -0.602177 0.511412 -0.000006 0.000000 0.000000 0.000000
 19   3.646428 0.364526 1.119313 -0.000002 -0.000014 -0.174510
 20   3.646422 0.364499 -1.117566 0.000007 -0.000003 -0.174546
 21   3.805634 1.330634 1.627658 0.000002 -0.000011 -0.000026
 22   -0.246060 -0.011889 0.516521 -0.000011 0.000031 0.000025
 23   3.805651 1.330659 -1.631083 0.000019 0.000002 -0.000024
 24   -0.246150 -0.011872 -0.516511 -0.000005 -0.000006 0.000048
 25   4.941364 1.997338 1.629330 0.000018 -0.000001 -0.000024
 26   4.941382 1.997366 -1.629410 -0.000001 0.000005 -0.000024
 27   2.930087 1.603639 1.514501 -0.000019 -0.000022 -0.000050
 28   2.932517 1.603245 -1.501142 -0.000002 -0.000009 -0.000024
 29   8.824059 0.150544 0.091743 0.036368 -0.012147 -0.067345
 30   2.138430 -0.557273 1.721818 -0.000957 0.068076 0.004591
 31   2.164260 -0.561289 -1.810629 0.000184 -0.090655 0.005075
 32   -0.814395 -0.093824 3.127092 0.564266 -3.064250 -0.563643
 33   14.298673 -0.408176 0.471578 -0.006284 -0.010019 -0.413614
 34   15.835795 0.581398 0.242756 -0.007436 -0.212263 -0.117891
 35   -0.815868 -0.091229 -3.114430 -0.120039 3.021422 -0.057358
 36   14.294526 -0.410349 -0.467541 0.000668 0.012859 -0.799565
 37   15.834409 0.579420 -0.284600 -0.169247 -0.012731 0.676454
 38   1.159217 -3.461562 -2.823813 0.003684 -0.002748 0.008432
 39   -4.465555 -0.933757 -0.718835 0.004734 0.010463 -0.041761
 40   1.098569 -3.441956 3.237290 -0.001747 -0.003325 0.013685
 41   -4.371338 -0.984909 0.983004 0.000502 0.001019 -0.004151
 42   -0.626217 1.693396 -2.563610 0.030728 0.047869 -0.004600
 43   -0.664068 1.682953 2.759999 -0.036045 -0.054275 0.009326
time 24
  0   -0.010486 -0.546892 -0.601210 0.000000 0.000000 -1.571354
  1   -1.093036 0.000002 -0.326057 -1.570808 -1.570749 0.000022
  2   2.262337 0.113614 0.064702 0.000292 0.000073 -0.265979
  3   2.380047 0.353302 0.047440 0.000000 -0.000028 -0.223012
  4   2.033756 0.190472 -0.000128 -0.177077 0.016982 -0.144506
  5   2.451511 0.204909 -0.003447 -0.148763 -0.036273 -0.111011
  6   7.247600 -0.397300 -0.109469 -0.005248 -0.005264 0.494432
  7   -2.022252 -0.104661 3.136172 1.238970 -1.024584 -4.799517
  8   1.168026 -0.537438 -0.063437 -1.055347 0.370832 -1.121607
  9   6.790376 -0.619176 0.015206 0.058040 -0.114945 -0.504879
 10   8.637599 0.544015 -0.090417 -3.988549 0.202875 -0.503999
 11   6.790465 -0.619039 0.017802 0.033672 -0.094425 -0.367591
 12   -2.022474 -0.104699 -2.873818 -1.163622 1.764390 -4.903164
 13   1.167898 -0.537463 0.063297 0.415733 -0.779545 -0.944373
 14   7.002743 -0.617765 -0.183752 0.374732 -0.307807 -1.793751
 15   8.209042 0.615527 -0.255885 2.264097 0.409936 0.553437
 16   7.002735 -0.617911 -0.183641 0.220866 -0.283426 -1.252811
 17   1.574674 0.609930 -0.000899 0.254777 0.315535 -0.043807
 18   -0.602177 0.511412 -0.000006 0.000000 0.000000 0.000000
 19   3.646428 0.364526 1.119313 -0.000002 -0.000014 -0.174510
 20   3.646422 0.364499 -1.117566 0.000007 -0.000003 -0.174546
 21   3.805634 1.330634 1.627658 0.000002 -0.000011 -0.000026
 22   -0.246060 -0.011889 0.516521 -0.000011 0.000031 0.000025
 23   3.805651 1.330659 -1.631083 0.000019 0.000002 -0.000024
 24   -0.246150 -0.011872 -0.516511 -0.000005 -0.000006 0.000048
 25   4.941364 1.997338 1.629330 0.000018 -0.000001 -0.000024
 26   4.941382 1.997366 -1.629410 -0.000001 0.000005 -0.000024
 27   2.930087 1.603639 1.514501 -0.000019 -0.000022 -0.000050
 28   2.932517 1.603245 -1.501142 -0.000002 -0.000009 -0.000024
 29   8.824059 0.150544 0.091743 0.028525 -0.009228 -0.090682
 30   2.130617 -0.561179 1.737444 -0.000740 0.053081 0.003584
 31   2.152541 -0.561289 -1.818442 0.000138 -0.070892 0.003965
 32   -0.814395 -0.093824 3.127092 0.564266 -3.064250 -0.563643
 33   14.298673 -0.408176 0.471578 -0.006284 -0.010019 -0.413614
 34   15.835795 0.581398 0.242756 -0.007436 -0.212263 -0.117891
 35   -0.815868 -0.091229 -3.114430 -0.120039 3.021422 -0.057358
 36   14.294526 -0.410349 -0.467541 0.000668 0.012859 -0.799565
 37   15.834409 0.579420 -0.284600 -0.169247 -0.012731 0.676454
 38   1.155311 -3.457655 -2.823813 0.002884 -0.002157 0.006599
 39   -4.461648 -0.961101 -0.726648 0.003703 0.008173 -0.032646
 40   1.102476 -3.445863 3.237290 -0.001368 -0.002602 0.010692
 41   -4.386963 -1.000534 0.979098 0.000394 0.000791 -0.003253
 42   -0.634030 1.693396 -2.590955 0.024029 0.037428 -0.003597
 43   -0.664068 1.686859 2.783437 -0.028187 -0.042443 0.007319
time 25
  0   -0.010486 -0.546892 -0.601210 0.000000 0.000000 -1.571354
  1   -1.093036 0.000002 -0.326057 -1.570808 -1.570749 0.000022
  2   2.262337 0.113614 0.064702 0.000292 0.000073 -0.265979
  3   2.380047 0.353302 0.047440 0.000000 -0.000028 -0.223012
  4   2.033756 0.190472 -0.000128 -0.177077 0.016982 -0.144506
  5   2.451511 0.204909 -0.003447 -0.148763 -0.036273 -0.111011
  6   7.247600 -0.397300 -0.109469 -0.005248 -0.005264 0.494432
  7   -2.022252 -0.104661 3.136172 1.238970 -1.024584 -4.799517
  8   1.168026 -0.537438 -0.063437 -1.055347 0.370832 -1.121607
  9   6.790376 -0.619176 0.015206 0.058040 -0.114945 -0.504879
 10   8.637599 0.544015 -0.090417 -3.988549 0.202875 -0.503999
 11   6.790465 -0.619039 0.017802 0.033672 -0.094425 -0.367591
 12   -2.022474 -0.104699 -2.873818 -1.163622 1.764390 -4.903164
 13   1.167898 -0.537463 0.063297 0.415733 -0.779545 -0.944373
 14   7.002743 -0.617765 -0.183752 0.374732 -0.307807 -1.793751
 15   8.209042 0.615527 -0.255885 2.264097 0.409936 0.553437
 16   7.002735 -0.617911 -0.183641 0.220866 -0.283426 -1.252811
 17   1.574674 0.609930 -0.000899 0.254777 0.315535 -0.043807
 18   -0.602177 0.511412 -0.000006 0.000000 0.000000 0.000000
 19   3.646428 0.364526 1.119313 -0.000002 -0.000014 -0.174510
 20   3.646422 0.364499 -1.117566 0.000007 -0.000003 -0.174546
 21   3.805634 1.330634 1.627658 0.000002 -0.000011 -0.000026
 22   -0.246060 -0.011889 0.516521 -0.000011 0.000031 0.000025
 23   3.805651 1.330659 -1.631083 0.000019 0.000002 -0.000024
 24   -0.246150 -0.011872 -0.516511 -0.000005 -0.000006 0.000048
 25   4.941364 1.997338 1.629330 0.000018 -0.000001 -0.000024
 26   4.941382 1.997366 -1.629410 -0.000001 0.000005 -0.000024
 27   2.930087 1.603639 1.514501 -0.000019 -0.000022 -0.000050
 28   2.932517 1.603245 -1.501142 -0.000002 -0.000009 -0.000024
 29   8.824059 0.150544 0.091743 0.021039 -0.006617 -0.112785
 30   2.126710 -0.561179 1.749163 -0.000550 0.038928 0.002640
 31   2.144728 -0.561289 -1.830161 0.000092 -0.052217 0.002909
 32   -0.814395 -0.093824 3.127092 0.564266 -3.064250 -0.563643
 33   14.298673 -0.408176 0.471578 -0.006284 -0.010019 -0.413614
 34   15.835795 0.581398 0.242756 -0.007436 -0.212263 -0.117891
 35   -0.815868 -0.091229 -3.114430 -0.120039 3.021422 -0.057358
 36   14.294526 -0.410349 -0.467541 0.000668 0.012859 -0.799565
 37   15.834409 0.579420 -0.284600 -0.169247 -0.012731 0.676454
 38   1.151404 -3.457655 -2.823813 0.002126 -0.001579 0.004827
 39   -4.461648 -0.988446 -0.730555 0.002721 0.006028 -0.024036
 40   1.106382 -3.445863 3.237290 -0.001010 -0.001915 0.007881
 41   -4.398683 -1.016160 0.971285 0.000287 0.000587 -0.002384
 42   -0.637936 1.697302 -2.618299 0.017701 0.027570 -0.002635
 43   -0.664068 1.690765 2.806875 -0.020765 -0.031255 0.005395
time 26
  0   -0.010486 -0.546892 -0.601210 0.000000 0.000000 -1.571354
  1   -1.093036 0.000002 -0.326057 -1.570808 -1.570749 0.000022
  2   2.262337 0.113614 0.064702 0.000292 0.000073 -0.265979
  3   2.380047 0.353302 0.047440 0.000000 -0.000028 -0.223012
  4   2.033756 0.190472 -0.000128 -0.177077 0.016982 -0.144506
  5   2.451511 0.204909 -0.003447 -0.148763 -0.036273 -0.111011
  6   7.247600 -0.397300 -0.109469 -0.005248 -0.005264 0.494432
  7   -2.022252 -0.104661 3.136172 1.238970 -1.024584 -4.799517
  8   1.168026 -0.537438 -0.063437 -1.055347 0.370832 -1.121607
  9   6.790376 -0.619176 0.015206 0.058040 -0.114945 -0.504879
 10   8.637599 0.544015 -0.090417 -3.988549 0.202875 -0.503999
 11   6.790465 -0.619039 0.017802 0.033672 -0.094425 -0.367591
 12   -2.022474 -0.104699 -2.873818 -1.163622 1.764390 -4.903164
 13   1.167898 -0.537463 0.063297 0.415733 -0.779545 -0.944373
 14   7.002743 -0.617765 -0.183752 0.374732 -0.307807 -1.793751
 15   8.209042 0.615527 -0.255885 2.264097 0.409936 0.553437
 16   7.002735 -0.617911 -0.183641 0.220866 -0.283426 -1.252811
 17   1.574674 0.609930 -0.000899 0.254777 0.315535 -0.043807
 18   -0.602177 0.511412 -0.000006 0.000000 0.000000 0.000000
 19   3.646428 0.364526 1.119313 -0.000002 -0.000014 -0.174510
 20   3.646422 0.364499 -1.117566 0.000007 -0.000003 -0.174546
 21   3.805634 1.330634 1.627658 0.000002 -0.000011 -0.000026
 22   -0.246060 -0.011889 0.516521 -0.000011 0.000031 0.000025
 23   3.805651 1.330659 -1.631083 0.000019 0.000002 -0.000024
 24   -0.246150 -0.011872 -0.516511 -0.000005 -0.000006 0.000048
 25   4.941364 1.997338 1.629330 0.000018 -0.000001 -0.000024
 26   4.941382 1.997366 -1.629410 -0.000001 0.000005 -0.000024
 27   2.930087 1.603639 1.514501 -0.000019 -0.000022 -0.000050
 28   2.932517 1.603245 -1.501142 -0.000002 -0.000009 -0.000024
 29   8.824059 0.150544 0.091743 0.014266 -0.004409 -0.132796
 30   2.118898 -0.561179 1.760882 -0.000374 0.026112 0.001804
 31   2.136915 -0.561289 -1.837973 0.000061 -0.035330 0.001963
 32   -0.814395 -0.093824 3.127092 0.564266 -3.064250 -0.563643
 33   14.298673 -0.408176 0.471578 -0.006284 -0.010019 -0.413614
 34   15.835795 0.581398 0.242756 -0.007436 -0.212263 -0.117891
 35   -0.815868 -0.091229 -3.114430 -0.120039 3.021422 -0.057358
 36   14.294526 -0.410349 -0.467541 0.000668 0.012859 -0.799565
 37   15.834409 0.579420 -0.284600 -0.169247 -0.012731 0.676454
 38   1.147498 -3.453749 -2.823813 0.001431 -0.001073 0.003300
 39   -4.457742 -1.007978 -0.738367 0.001846 0.004075 -0.016267
 40   1.110288 -3.449769 3.237290 -0.000674 -0.001288 0.005315
 41   -4.410401 -1.031785 0.967379 0.000191 0.000395 -0.001599
 42   -0.645749 1.697302 -2.641737 0.011973 0.018646 -0.001798
 43   -0.664068 1.694672 2.826407 -0.014043 -0.021150 0.003639
time 27
  0   -0.010486 -0.546892 -0.601210 0.000000 0.000000 -1.571354
  1   -1.093036 0.000002 -0.326057 -1.570808 -1.570749 0.000022
  2   2.262337 0.113614 0.064702 0.000292 0.000073 -0.265979
  3   2.380047 0.353302 0.047440 0.000000 -0.000028 -0.223012
  4   2.033756 0.190472 -0.000128 -0.177077 0.016982 -0.144506
  5   2.451511 0.204909 -0.003447 -0.148763 -0.036273 -0.111011
  6   7.247600 -0.397300 -0.109469 -0.005248 -0.005264 0.494432
  7   -2.022252 -0.104661 3.136172 1.238970 -1.024584 -4.799517
  8   1.168026 -0.537438 -0.063437 -1.055347 0.370832 -1.121607
  9   6.790376 -0.619176 0.015206 0.058040 -0.114945 -0.504879
 10   8.637599 0.544015 -0.090417 -3.988549 0.202875 -0.503999
 11   6.790465 -0.619039 0.017802 0.033672 -0.094425 -0.367591
 12   -2.022474 -0.104699 -2.873818 -1.163622 1.764390 -4.903164
 13   1.167898 -0.537463 0.063297 0.415733 -0.779545 -0.944373
 14   7.002743 -0.617765 -0.183752 0.374732 -0.307807 -1.793751
 15   8.209042 0.615527 -0.255885 2.264097 0.409936 0.553437
 16   7.002735 -0.617911 -0.183641 0.220866 -0.283426 -1.252811
 17   1.574674 0.609930 -0.000899 0.254777 0.315535 -0.043807
 18   -0.602177 0.511412 -0.000006 0.000000 0.000000 0.000000
 19   3.646428 0.364526 1.119313 -0.000002 -0.000014 -0.174510
 20   3.646422 0.364499 -1.117566 0.000007 -0.000003 -0.174546
 21   3.805634 1.330634 1.627658 0.000002 -0.000011 -0.000026
 22   -0.246060 -0.011889 0.516521 -0.000011 0.000031 0.000025
 23   3.805651 1.330659 -1.631083 0.000019 0.000002 -0.000024
 24   -0.246150 -0.011872 -0.516511 -0.000005 -0.000006 0.000048
 25   4.941364 1.997338 1.629330 0.000018 -0.000001 -0.000024
 26   4.941382 1.997366 -1.629410 -0.000001 0.000005 -0.000024
 27   2.930087 1.603639 1.514501 -0.000019 -0.000022 -0.000050
 28   2.932517 1.603245 -1.501142 -0.000002 -0.000009 -0.000024
 29   8.824059 0.150544 0.091743 0.008473 -0.002629 -0.149802
 30   2.114991 -0.561179 1.772601 -0.000225 0.015185 0.001075
 31   2.129103 -0.561289 -1.845786 0.000031 -0.020928 0.001163
 32   -0.814395 -0.093824 3.127092 0.564266 -3.064250 -0.563643
 33   14.298673 -0.408176 0.471578 -0.006284 -0.010019 -0.413614
 34   15.835795 0.581398 0.242756 -0.007436 -0.212263 -0.117891
 35   -0.815868 -0.091229 -3.114430 -0.120039 3.021422 -0.057358
 36   14.294526 -0.410349 -0.467541 0.000668 0.012859 -0.799565
 37   15.834409 0.579420 -0.284600 -0.169247 -0.012731 0.676454
 38   1.143591 -3.453749 -2.823813 0.000842 -0.000627 0.001956
 39   -4.457742 -1.027509 -0.742274 0.001091 0.002409 -0.009648
 40   1.114195 -3.449769 3.237290 -0.000400 -0.000758 0.003116
 41   -4.422121 -1.043504 0.963472 0.000107 0.000228 -0.000954
 42   -0.649655 1.697302 -2.661269 0.007095 0.011057 -0.001046
 43   -0.664068 1.698578 2.845939 -0.008321 -0.012535 0.002133
time 28
  0   -0.010486 -0.546892 -0.601210 0.000000 0.000000 -1.571354
  1   -1.093036 0.000002 -0.326057 -1.570808 -1.570749 0.000022
  2   2.262337 0.113614 0.064702 0.000292 0.000073 -0.265979
  3   2.380047 0.353302 0.047440 0.000000 -0.000028 -0.223012
  4   2.033756 0.190472 -0.000128 -0.177077 0.016982 -0.144506
  5   2.451511 0.204909 -0.003447 -0.148763 -0.036273 -0.111011
  6   7.247600 -0.397300 -0.109469 -0.005248 -0.005264 0.494432
  7   -2.022252 -0.104661 3.136172 1.238970 -1.024584 -4.799517
  8   1.168026 -0.537438 -0.063437 -1.055347 0.370832 -1.121607
  9   6.790376 -0.619176 0.015206 0.058040 -0.114945 -0.504879
 10   8.637599 0.544015 -0.090417 -3.988549 0.202875 -0.503999
 11   6.790465 -0.619039 0.017802 0.033672 -0.094425 -0.367591
 12   -2.022474 -0.104699 -2.873818 -1.163622 1.764390 -4.903164
 13   1.167898 -0.537463 0.063297 0.415733 -0.779545 -0.944373
 14   7.002743 -0.617765 -0.183752 0.374732 -0.307807 -1.793751
 15   8.209042 0.615527 -0.255885 2.264097 0.409936 0.553437
 16   7.002735 -0.617911 -0.183641 0.220866 -0.283426 -1.252811
 17   1.574674 0.609930 -0.000899 0.254777 0.315535 -0.043807
 18   -0.602177 0.511412 -0.000006 0.000000 0.000000 0.000000
 19   3.646428 0.364526 1.119313 -0.000002 -0.000014 -0.174510
 20   3.646422 0.364499 -1.117566 0.000007 -0.000003 -0.174546
 21   3.805634 1.330634 1.627658 0.000002 -0.000011 -0.000026
 22   -0.246060 -0.011889 0.516521 -0.000011 0.000031 0.000025
 23   3.805651 1.330659 -1.631083 0.000019 0.000002 -0.000024
 24   -0.246150 -0.011872 -0.516511 -0.000005 -0.000006 0.000048
 25   4.941364 1.997338 1.629330 0.000018 -0.000001 -0.000024
 26   4.941382 1.997366 -1.629410 -0.000001 0.000005 -0.000024
 27   2.930087 1.603639 1.514501 -0.000019 -0.000022 -0.000050
 28   2.932517 1.603245 -1.501142 -0.000002 -0.000009 -0.000024
 29   8.824059 0.150544 0.091743 0.003927 -0.001323 -0.163000
 30   2.111085 -0.561179 1.780414 -0.000103 0.006729 0.000517
 31   2.125196 -0.561289 -1.849693 0.000015 -0.009765 0.000544
 32   -0.814395 -0.093824 3.127092 0.564266 -3.064250 -0.563643
 33   14.298673 -0.408176 0.471578 -0.006284 -0.010019 -0.413614
 34   15.835795 0.581398 0.242756 -0.007436 -0.212263 -0.117891
 35   -0.815868 -0.091229 -3.114430 -0.120039 3.021422 -0.057358
 36   14.294526 -0.410349 -0.467541 0.000668 0.012859 -0.799565
 37   15.834409 0.579420 -0.284600 -0.169247 -0.012731 0.676454
 38   1.139685 -3.453749 -2.823813 0.000400 -0.000289 0.000856
 39   -4.457742 -1.043135 -0.746180 0.000503 0.001127 -0.004487
 40   1.118101 -3.449769 3.237290 -0.000189 -0.000348 0.001466
 41   -4.429934 -1.051317 0.959566 0.000047 0.000108 -0.000449
 42   -0.657468 1.697302 -2.676895 0.003308 0.005169 -0.000460
 43   -0.664068 1.698578 2.857658 -0.003886 -0.005851 0.001004
time 29
  0   -0.010486 -0.546892 -0.601210 0.000000 0.000000 -1.571354
  1   -1.093036 0.000002 -0.326057 -1.570808 -1.570749 0.000022
  2   2.262337 0.113614 0.064702 0.000292 0.000073 -0.265979
  3   2.380047 0.353302 0.047440 0.000000 -0.000028 -0.223012
  4   2.033756 0.190472 -0.000128 -0.177077 0.016982 -0.144506
  5   2.451511 0.204909 -0.003447 -0.148763 -0.036273 -0.111011
  6   7.247600 -0.397300 -0.109469 -0.005248 -0.005264 0.494432
  7   -2.022252 -0.104661 3.136172 1.238970 -1.024584 -4.799517
  8   1.168026 -0.537438 -0.063437 -1.055347 0.370832 -1.121607
  9   6.790376 -0.619176 0.015206 0.058040 -0.114945 -0.504879
 10   8.637599 0.544015 -0.090417 -3.988549 0.202875 -0.503999
 11   6.790465 -0.619039 0.017802 0.033672 -0.094425 -0.367591
 12   -2.022474 -0.104699 -2.873818 -1.163622 1.764390 -4.903164
 13   1.167898 -0.537463 0.063297 0.415733 -0.779545 -0.944373
 14   7.002743 -0.617765 -0.183752 0.374732 -0.307807 -1.793751
 15   8.209042 0.615527 -0.255885 2.264097 0.409936 0.553437
 16   7.002735 -0.617911 -0.183641 0.220866 -0.283426 -1.252811
 17   1.574674 0.609930 -0.000899 0.254777 0.315535 -0.043807
 18   -0.602177 0.511412 -0.000006 0.000000 0.000000 0.000000
 19   3.646428 0.364526 1.119313 -0.000002 -0.000014 -0.174510
 20   3.646422 0.364499 -1.117566 0.000007 -0.000003 -0.174546
 21   3.805634 1.330634 1.627658 0.000002 -0.000011 -0.000026
 22   -0.246060 -0.011889 0.516521 -0.000011 0.000031 0.000025
 23   3.805651 1.330659 -1.631083 0.000019 0.000002 -0.000024
 24   -0.246150 -0.011872 -0.516511 -0.000005 -0.000006 0.000048
 25   4.941364 1.997338 1.629330 0.000018 -0.000001 -0.000024
 26   4.941382 1.997366 -1.629410 -0.000001 0.000005 -0.000024
 27   2.930087 1.603639 1.514501 -0.000019 -0.000022 -0.000050
 28   2.932517 1.603245 -1.501142 -0.000002 -0.000009 -0.000024
 29   8.824059 0.150544 0.091743 0.000986 -0.000492 -0.171530
 30   2.111085 -0.561179 1.784320 -0.000022 0.001236 0.000153
 31   2.121290 -0.561289 -1.853599 0.000000 -0.002564 0.000125
 32   -0.814395 -0.093824 3.127092 0.564266 -3.064250 -0.563643
 33   14.298673 -0.408176 0.471578 -0.006284 -0.010019 -0.413614
 34   15.835795 0.581398 0.242756 -0.007436 -0.212263 -0.117891
 35   -0.815868 -0.091229 -3.114430 -0.120039 3.021422 -0.057358
 36   14.294526 -0.410349 -0.467541 0.000668 0.012859 -0.799565
 37   15.834409 0.579420 -0.284600 -0.169247 -0.012731 0.676454
 38   1.139685 -3.453749 -2.823813 0.000084 -0.000072 0.000184
 39   -4.457742 -1.054854 -0.746180 0.000132 0.000288 -0.001178
 40   1.118101 -3.449769 3.237290 -0.000042 -0.000083 0.000367
 41   -4.433840 -1.059130 0.959566 0.000011 0.000024 -0.000112
 42   -0.657468 1.697302 -2.688614 0.000863 0.001351 -0.000125
 43   -0.664068 1.698578 2.869377 -0.001012 -0.001520 0.000251
time 30
  0   -0.010486 -0.546892 -0.601210 0.000000 0.000000 -1.571354
  1   -1.093036 0.000002 -0.326057 -1.570808 -1.570749 0.000022
  2   2.262337 0.113614 0.064702 0.000292 0.000073 -0.265979
  3   2.380047 0.353302 0.047440 0.000000 -0.000028 -0.223012
  4   2.033756 0.190472 -0.000128 -0.177077 0.016982 -0.144506
  5   2.451511 0.204909 -0.003447 -0.148763 -0.036273 -0.111011
  6   7.247600 -0.397300 -0.109469 -0.005248 -0.005264 0.494432
  7   -2.022252 -0.104661 3.136172 1.238970 -1.024584 -4.799517
  8   1.168026 -0.537438 -0.063437 -1.055347 0.370832 -1.121607
  9   6.790376 -0.619176 0.015206 0.058040 -0.114945 -0.504879
 10   8.637599 0.544015 -0.090417 -3.988549 0.202875 -0.503999
 11   6.790465 -0.619039 0.017802 0.033672 -0.094425 -0.367591
 12   -2.022474 -0.104699 -2.873818 -1.163622 1.764390 -4.903164
 13   1.167898 -0.537463 0.063297 0.415733 -0.779545 -0.944373
 14   7.002743 -0.617765 -0.183752 0.374732 -0.307807 -1.793751
 15   8.209042 0.615527 -0.255885 2.264097 0.409936 0.553437
 16   7.002735 -0.617911 -0.183641 0.220866 -0.283426 -1.252811
 17   1.574674 0.609930 -0.000899 0.254777 0.315535 -0.043807
 18   -0.602177 0.511412 -0.000006 0.000000 0.000000 0.000000
 19   3.646428 0.364526 1.119313 -0.000002 -0.000014 -0.174510
 20   3.646422 0.364499 -1.117566 0.000007 -0.000003 -0.174546
 21   3.805634 1.330634 1.627658 0.000002 -0.000011 -0.000026
 22   -0.246060 -0.011889 0.516521 -0.000011 0.000031 0.000025
 23   3.805651 1.330659 -1.631083 0.000019 0.000002 -0.000024
 24   -0.246150 -0.011872 -0.516511 -0.000005 -0.000006 0.000048
 25   4.941364 1.997338 1.629330 0.000018 -0.000001 -0.000024
 26   4.941382 1.997366 -1.629410 -0.000001 0.000005 -0.000024
 27   2.930087 1.603639 1.514501 -0.000019 -0.000022 -0.000050
 28   2.932517 1.603245 -1.501142 -0.000002 -0.000009 -0.000024
 29   8.824059 0.150544 0.091743 0.000006 -0.000231 -0.174534
 30   2.111085 -0.561179 1.784320 -0.000008 -0.000682 0.000024
 31   2.121290 -0.561289 -1.853599 0.000000 0.000000 -0.000002
 32   -0.814395 -0.093824 3.127092 0.564266 -3.064250 -0.563643
 33   14.298673 -0.408176 0.471578 -0.006284 -0.010019 -0.413614
 34   15.835795 0.581398 0.242756 -0.007436 -0.212263 -0.117891
 35   -0.815868 -0.091229 -3.114430 -0.120039 3.021422 -0.057358
 36   14.294526 -0.410349 -0.467541 0.000668 0.012859 -0.799565
 37   15.834409 0.579420 -0.284600 -0.169247 -0.012731 0.676454
 38   1.139685 -3.453749 -2.823813 0.000000 0.000000 0.000001
 39   -4.457742 -1.054854 -0.746180 0.000000 0.000000 0.000000
 40   1.118101 -3.449769 3.237290 0.000000 0.000001 0.000000
 41   -4.433840 -1.059130 0.959566 -0.000001 0.000000 0.000000
 42   -0.657468 1.697302 -2.688614 0.000000 0.000002 0.000000
 43   -0.664068 1.698578 2.869377 0.000000 0.000002 0.000000
end
