version 1
nodes
  0 "Bip01" -1
  1 "Bip01 Pelvis" 0
  2 "Bip01 Spine" 1
  3 "Bip01 Spine1" 2
  4 "Bip01 Spine2" 3
  5 "Bip01 Spine3" 4
  6 "Bip01 Neck" 5
  7 "Bip01 L Arm" 6
  8 "Bip01 L Arm1" 7
  9 "Bip01 L Arm2" 8
 10 "Bip01 L Hand" 9
 11 "Bip06 L elbow2-smooth" 8
 12 "Bip01 R Arm" 6
 13 "Bip01 R Arm1" 12
 14 "Bip01 R Arm2" 13
 15 "Bip01 R Hand" 14
 16 "Bip06 R elbow2-smooth" 13
 17 "Bip01 Head" 6
 18 "Bip06 Head_helper" 17
 19 "Bip06 Head_eyes_l" 18
 20 "Bip06 Head_eyes_r" 18
 21 "Bip06 Head_blink_l" 18
 22 "Bip06 Head_blink_smooth_l1" 21
 23 "Bip06 Head_blink_r" 18
 24 "Bip06 Head_blink_smooth_r1" 23
 25 "Bip06 Head_L_eyebrow" 18
 26 "Bip06 Head_R_eyebrow" 18
 27 "Bip06 Head_blink_l_lid" 18
 28 "Bip06 Head_blink_r_lid" 18
 29 "Bip06 bunny" 18
 30 "Bip06 bunnyL" 29
 31 "Bip06 bunnyR" 29
 32 "Bip01 L Leg" 1
 33 "Bip01 L Leg1" 32
 34 "Bip01 L Foot" 33
 35 "Bip01 R Leg" 1
 36 "Bip01 R Leg1" 35
 37 "Bip01 R Foot" 36
 38 "Bip03 HairR1" 17
 39 "Bip03 HairR2" 38
 40 "Bip03 HairL1" 17
 41 "Bip03 HairL2" 40
 42 "Bip03 swingR" 17
 43 "Bip03 swingL" 17
end
skeleton
time 0
  0   0.001233 0.187506 0.867585 0.000000 0.000000 -1.571354
  1   -1.093036 0.000002 -0.326057 -1.570808 -1.570425 0.000022
  2   2.262337 0.113614 0.064702 -0.241645 -0.000287 -0.000284
  3   2.380047 0.353302 0.047440 0.018526 0.016199 -0.019243
  4   2.033756 0.190472 -0.000128 -0.235337 -0.054542 -0.238856
  5   2.451511 0.204909 -0.003447 -0.239431 -0.036091 -0.109451
  6   7.247600 -0.397300 -0.109469 0.000001 0.000009 0.087015
  7   -2.022252 -0.104661 3.136172 -0.298783 -1.361862 -2.935559
  8   1.168026 -0.537438 -0.063437 0.636962 0.931032 0.320857
  9   6.790376 -0.619176 0.015206 0.004724 0.003720 -1.892952
 10   8.637599 0.544015 -0.090417 -1.944564 -0.086781 -0.069571
 11   6.790465 -0.619039 0.017802 0.008651 -0.010088 -1.340393
 12   -2.022474 -0.104699 -2.873818 0.298394 1.361712 -2.936451
 13   1.167898 -0.537463 0.063297 -0.321746 -1.331368 -0.279459
 14   7.002743 -0.617765 -0.183752 0.000229 0.000250 -1.849772
 15   8.209042 0.615527 -0.255885 2.158112 -0.134813 0.133438
 16   7.002735 -0.617911 -0.183641 0.013120 0.010356 -1.313523
 17   1.574674 0.609930 -0.000899 0.696494 0.026468 0.270916
 18   -0.602177 0.511412 -0.000006 0.000000 0.000000 0.000000
 19   3.673773 0.177020 1.119313 -0.000002 -0.000014 -0.174510
 20   3.673767 0.176993 -1.117566 0.000007 -0.000003 -0.174546
 21   3.942357 1.334540 1.627658 0.000002 -0.000011 -0.000026
 22   -0.246060 -0.011889 0.516521 -0.000011 0.000031 0.000025
 23   3.942374 1.334565 -1.631083 0.000019 0.000002 -0.000024
 24   -0.246150 -0.011872 -0.516511 -0.000005 -0.000006 0.000048
 25   4.941364 1.997338 1.629330 0.000018 -0.000001 -0.000024
 26   4.941382 1.997366 -1.629410 -0.000001 0.000005 -0.000024
 27   2.914462 1.619264 1.514501 -0.000019 -0.000022 -0.000050
 28   2.916892 1.618870 -1.501142 -0.000002 -0.000009 -0.000024
 29   8.824059 0.150544 0.091743 0.000006 -0.000231 -0.174534
 30   2.111085 -0.561179 1.784320 -0.000008 -0.000682 0.000024
 31   2.121290 -0.561289 -1.853599 0.000000 0.000000 -0.000002
 32   -0.814395 -0.093824 3.127092 -0.129583 -2.975428 -0.324172
 33   14.298673 -0.408176 0.471578 -0.000076 -0.000041 -0.436322
 34   15.835795 0.581398 0.242756 0.162139 -0.013958 0.022620
 35   -0.815868 -0.091229 -3.114430 0.096037 3.002497 -0.031284
 36   14.294526 -0.410349 -0.467541 0.000069 0.000048 -0.399441
 37   15.834409 0.579420 -0.284600 -0.088763 0.039970 0.278088
 38   1.139685 -3.453749 -2.823813 0.000000 0.000000 0.000001
 39   -4.457742 -1.054854 -0.746180 0.000000 0.000000 0.000000
 40   1.118101 -3.449769 3.237290 0.000000 0.000001 0.000000
 41   -4.433840 -1.059130 0.959566 -0.000001 0.000000 0.000000
 42   -0.657468 1.697302 -2.688614 0.000000 0.000002 0.000000
 43   -0.664068 1.698578 2.869377 0.000000 0.000002 0.000000
time 1
  0   0.001233 0.187506 0.867585 0.000000 0.000000 -1.571259
  1   -1.093036 0.000002 -0.326057 -1.570808 -1.570425 0.000022
  2   2.262337 0.113614 0.064702 -0.239938 -0.003091 0.001271
  3   2.380047 0.353302 0.047440 0.011566 0.015864 -0.011305
  4   2.033756 0.190472 -0.000128 -0.239450 -0.052421 -0.233709
  5   2.451511 0.204909 -0.003447 -0.239739 -0.029014 -0.106677
  6   7.247600 -0.397300 -0.109469 0.000001 0.000009 0.089454
  7   -2.022252 -0.104661 3.136172 -0.034502 -1.392621 -3.194768
  8   1.168026 -0.537438 -0.063437 0.513312 0.961925 0.160239
  9   6.790376 -0.619176 0.015206 0.005723 0.016934 -1.855444
 10   8.637599 0.544015 -0.090417 -1.931618 -0.119090 -0.058647
 11   6.790465 -0.619039 0.017802 0.011775 -0.000679 -1.314151
 12   -2.022474 -0.104699 -2.873818 0.285364 1.396715 -2.935302
 13   1.167898 -0.537463 0.063297 -0.069452 -1.271258 -0.488062
 14   7.002743 -0.617765 -0.183752 0.003987 -0.020192 -1.853980
 15   8.209042 0.615527 -0.255885 2.177023 -0.094335 0.081479
 16   7.002735 -0.617911 -0.183641 0.011754 -0.005094 -1.316559
 17   1.574674 0.609930 -0.000899 0.702953 0.016622 0.265816
 18   -0.602177 0.511412 -0.000006 0.000000 0.000000 0.000000
 19   3.673773 0.177020 1.119313 -0.000002 -0.000014 -0.174510
 20   3.673767 0.176993 -1.117566 0.000007 -0.000003 -0.174546
 21   3.942357 1.334540 1.627658 0.000002 -0.000011 -0.000026
 22   -0.246060 -0.011889 0.516521 -0.000011 0.000031 0.000025
 23   3.942374 1.334565 -1.631083 0.000019 0.000002 -0.000024
 24   -0.246150 -0.011872 -0.516511 -0.000005 -0.000006 0.000048
 25   4.941364 1.997338 1.629330 0.000018 -0.000001 -0.000024
 26   4.941382 1.997366 -1.629410 -0.000001 0.000005 -0.000024
 27   2.914462 1.619264 1.514501 -0.000019 -0.000022 -0.000050
 28   2.916892 1.618870 -1.501142 -0.000002 -0.000009 -0.000024
 29   8.824059 0.150544 0.091743 0.000006 -0.000231 -0.174534
 30   2.111085 -0.561179 1.784320 -0.000008 -0.000682 0.000024
 31   2.121290 -0.561289 -1.853599 0.000000 0.000000 -0.000002
 32   -0.814395 -0.093824 3.127092 -0.113551 -2.976574 -0.324058
 33   14.298673 -0.408176 0.471578 -0.000076 -0.000041 -0.410835
 34   15.835795 0.581398 0.242756 0.123495 -0.036263 -0.003710
 35   -0.815868 -0.091229 -3.114430 0.128690 2.997531 -0.031777
 36   14.294526 -0.410349 -0.467541 0.000069 0.000048 -0.399441
 37   15.834409 0.579420 -0.284600 0.133755 0.105494 0.255780
 38   1.139685 -3.453749 -2.823813 0.000000 0.000000 0.000001
 39   -4.457742 -1.054854 -0.746180 0.000000 0.000000 0.000000
 40   1.118101 -3.449769 3.237290 0.000000 0.000001 0.000000
 41   -4.433840 -1.059130 0.959566 -0.000001 0.000000 0.000000
 42   -0.657468 1.697302 -2.688614 0.000000 0.000002 0.000000
 43   -0.664068 1.698578 2.869377 0.000000 0.000002 0.000000
time 2
  0   0.001233 0.187506 0.867585 0.000000 0.000000 -1.571259
  1   -1.093036 0.000002 -0.326057 -1.570808 -1.570425 0.000022
  2   2.262337 0.113614 0.064702 -0.234805 -0.011576 0.005861
  3   2.380047 0.353302 0.047440 -0.009421 0.015120 0.012447
  4   2.033756 0.190472 -0.000128 -0.251659 -0.045973 -0.218159
  5   2.451511 0.204909 -0.003447 -0.240509 -0.007930 -0.098257
  6   7.247600 -0.397300 -0.109469 0.000001 0.000009 0.096676
  7   -2.022252 -0.104661 3.136172 0.863207 -1.387749 -4.079084
  8   1.168026 -0.537438 -0.063437 0.142426 0.980994 -0.307825
  9   6.790376 -0.619176 0.015206 0.010550 0.051439 -1.757261
 10   8.637599 0.544015 -0.090417 -1.899034 -0.204333 -0.031590
 11   6.790465 -0.619039 0.017802 0.021030 0.023340 -1.245057
 12   -2.022474 -0.104699 -2.873818 0.225772 1.488924 -2.957227
 13   1.167898 -0.537463 0.063297 0.288918 -1.074095 -0.727598
 14   7.002743 -0.617765 -0.183752 0.014235 -0.073910 -1.865448
 15   8.209042 0.615527 -0.255885 2.216857 0.016506 -0.051304
 16   7.002735 -0.617911 -0.183641 0.008412 -0.046032 -1.324065
 17   1.574674 0.609930 -0.000899 0.722736 -0.012417 0.249996
 18   -0.602177 0.511412 -0.000006 0.000000 0.000000 0.000000
 19   3.673773 0.177020 1.119313 -0.000002 -0.000014 -0.174510
 20   3.673767 0.176993 -1.117566 0.000007 -0.000003 -0.174546
 21   3.942357 1.334540 1.627658 0.000002 -0.000011 -0.000026
 22   -0.246060 -0.011889 0.516521 -0.000011 0.000031 0.000025
 23   3.942374 1.334565 -1.631083 0.000019 0.000002 -0.000024
 24   -0.246150 -0.011872 -0.516511 -0.000005 -0.000006 0.000048
 25   4.941364 1.997338 1.629330 0.000018 -0.000001 -0.000024
 26   4.941382 1.997366 -1.629410 -0.000001 0.000005 -0.000024
 27   2.914462 1.619264 1.514501 -0.000019 -0.000022 -0.000050
 28   2.916892 1.618870 -1.501142 -0.000002 -0.000009 -0.000024
 29   8.824059 0.150544 0.091743 0.000006 -0.000231 -0.174534
 30   2.111085 -0.561179 1.784320 -0.000008 -0.000682 0.000024
 31   2.121290 -0.561289 -1.853599 0.000000 0.000000 -0.000002
 32   -0.814395 -0.093824 3.127092 -0.066387 -2.980012 -0.324001
 33   14.298673 -0.408176 0.471578 -0.000076 -0.000041 -0.343903
 34   15.835795 0.581398 0.242756 0.042526 -0.087243 -0.057162
 35   -0.815868 -0.091229 -3.114430 0.214504 2.984602 -0.032435
 36   14.294526 -0.410349 -0.467541 0.000069 0.000048 -0.399441
 37   15.834409 0.579420 -0.284600 0.356982 0.174294 0.248377
 38   1.139685 -3.453749 -2.823813 0.000000 0.000000 0.000001
 39   -4.457742 -1.054854 -0.746180 0.000000 0.000000 0.000000
 40   1.118101 -3.449769 3.237290 0.000000 0.000001 0.000000
 41   -4.433840 -1.059130 0.959566 -0.000001 0.000000 0.000000
 42   -0.657468 1.697302 -2.688614 0.000000 0.000002 0.000000
 43   -0.664068 1.698578 2.869377 0.000000 0.000002 0.000000
time 3
  0   0.001233 0.187506 0.867585 0.000000 0.000000 -1.571259
  1   -1.093036 0.000002 -0.326057 -1.570808 -1.570425 0.000022
  2   2.262337 0.113614 0.064702 -0.226856 -0.024963 0.013017
  3   2.380047 0.353302 0.047440 -0.042528 0.015001 0.049789
  4   2.033756 0.190472 -0.000128 -0.270581 -0.035438 -0.194055
  5   2.451511 0.204909 -0.003447 -0.241399 0.025218 -0.085057
  6   7.247600 -0.397300 -0.109469 0.000001 0.000021 0.108111
  7   -2.022252 -0.104661 3.136172 1.371542 -1.281924 -4.573554
  8   1.168026 -0.537438 -0.063437 -0.191632 0.906177 -0.740589
  9   6.790376 -0.619176 0.015206 0.018705 0.085209 -1.658550
 10   8.637599 0.544015 -0.090417 -1.868124 -0.290421 -0.007138
 11   6.790465 -0.619039 0.017802 0.031862 0.046251 -1.175616
 12   -2.022474 -0.104699 -2.873818 -2.331223 1.558350 -5.474068
 13   1.167898 -0.537463 0.063297 0.478156 -0.860251 -0.791583
 14   7.002743 -0.617765 -0.183752 0.025223 -0.127402 -1.877659
 15   8.209042 0.615527 -0.255885 2.241879 0.131736 -0.180780
 16   7.002735 -0.617911 -0.183641 0.005305 -0.086970 -1.331185
 17   1.574674 0.609930 -0.000899 0.754948 -0.057786 0.223717
 18   -0.602177 0.511412 -0.000006 0.000000 0.000000 0.000000
 19   3.673773 0.177020 1.119313 -0.000002 -0.000014 -0.174510
 20   3.673767 0.176993 -1.117566 0.000007 -0.000003 -0.174546
 21   3.942357 1.334540 1.627658 0.000002 -0.000011 -0.000026
 22   -0.246060 -0.011889 0.516521 -0.000011 0.000031 0.000025
 23   3.942374 1.334565 -1.631083 0.000019 0.000002 -0.000024
 24   -0.246150 -0.011872 -0.516511 -0.000005 -0.000006 0.000048
 25   4.941364 1.997338 1.629330 0.000018 -0.000001 -0.000024
 26   4.941382 1.997366 -1.629410 -0.000001 0.000005 -0.000024
 27   2.914462 1.619264 1.514501 -0.000019 -0.000022 -0.000050
 28   2.916892 1.618870 -1.501142 -0.000002 -0.000009 -0.000024
 29   8.824059 0.150544 0.091743 0.000006 -0.000231 -0.174534
 30   2.111085 -0.561179 1.784320 -0.000008 -0.000682 0.000024
 31   2.121290 -0.561289 -1.853599 0.000000 0.000000 -0.000002
 32   -0.814395 -0.093824 3.127092 0.001469 -2.985075 -0.323489
 33   14.298673 -0.408176 0.471578 -0.000076 -0.000041 -0.277129
 34   15.835795 0.581398 0.242756 0.005561 -0.112525 -0.080669
 35   -0.815868 -0.091229 -3.114430 0.300406 2.971861 -0.031887
 36   14.294526 -0.410349 -0.467541 0.000069 0.000048 -0.399441
 37   15.834409 0.579420 -0.284600 0.356982 0.174294 0.248377
 38   1.139685 -3.453749 -2.823813 0.000000 0.000000 0.000001
 39   -4.457742 -1.054854 -0.746180 0.000000 0.000000 0.000000
 40   1.118101 -3.449769 3.237290 0.000000 0.000001 0.000000
 41   -4.433840 -1.059130 0.959566 -0.000001 0.000000 0.000000
 42   -0.657468 1.697302 -2.688614 0.000000 0.000002 0.000000
 43   -0.664068 1.698578 2.869377 0.000000 0.000002 0.000000
time 4
  0   0.001233 0.187506 0.867585 0.000000 0.000000 -1.571164
  1   -1.093036 0.000002 -0.326057 -1.570808 -1.570425 0.000022
  2   2.262337 0.113614 0.064702 -0.217290 -0.041322 0.021600
  3   2.380047 0.353302 0.047440 -0.082791 0.016511 0.095355
  4   2.033756 0.190472 -0.000128 -0.293247 -0.022088 -0.165058
  5   2.451511 0.204909 -0.003447 -0.241981 0.065586 -0.069009
  6   7.247600 -0.397300 -0.109469 0.000001 0.000021 0.122017
  7   -2.022252 -0.104661 3.136172 1.473151 -1.231650 -4.670100
  8   1.168026 -0.537438 -0.063437 -0.290413 0.858831 -0.877105
  9   6.790376 -0.619176 0.015206 0.022644 0.097890 -1.620665
 10   8.637599 0.544015 -0.090417 -1.856499 -0.323504 0.001688
 11   6.790465 -0.619039 0.017802 0.036329 0.054665 -1.148970
 12   -2.022474 -0.104699 -2.873818 -2.729876 1.524450 -5.860575
 13   1.167898 -0.537463 0.063297 0.533268 -0.778986 -0.797092
 14   7.002743 -0.617765 -0.183752 0.029607 -0.147787 -1.882444
 15   8.209042 0.615527 -0.255885 2.247559 0.176072 -0.229611
 16   7.002735 -0.617911 -0.183641 0.004222 -0.102702 -1.333779
 17   1.574674 0.609930 -0.000899 0.795976 -0.112007 0.189713
 18   -0.602177 0.511412 -0.000006 0.000000 0.000000 0.000000
 19   3.673773 0.177020 1.119313 -0.000002 -0.000014 -0.174510
 20   3.673767 0.176993 -1.117566 0.000007 -0.000003 -0.174546
 21   3.942357 1.334540 1.627658 0.000002 -0.000011 -0.000026
 22   -0.246060 -0.011889 0.516521 -0.000011 0.000031 0.000025
 23   3.942374 1.334565 -1.631083 0.000019 0.000002 -0.000024
 24   -0.246150 -0.011872 -0.516511 -0.000005 -0.000006 0.000048
 25   4.941364 1.997338 1.629330 0.000018 -0.000001 -0.000024
 26   4.941382 1.997366 -1.629410 -0.000001 0.000005 -0.000024
 27   2.914462 1.619264 1.514501 -0.000019 -0.000022 -0.000050
 28   2.916892 1.618870 -1.501142 -0.000002 -0.000009 -0.000024
 29   8.824059 0.150544 0.091743 0.000006 -0.000231 -0.174534
 30   2.111085 -0.561179 1.784320 -0.000008 -0.000682 0.000024
 31   2.121290 -0.561289 -1.853599 0.000000 0.000000 -0.000002
 32   -0.814395 -0.093824 3.127092 0.069233 -2.989945 -0.322635
 33   14.298673 -0.408176 0.471578 -0.000076 -0.000041 -0.251563
 34   15.835795 0.581398 0.242756 0.005561 -0.112525 -0.080669
 35   -0.815868 -0.091229 -3.114430 0.333236 2.966802 -0.031503
 36   14.294526 -0.410349 -0.467541 0.000069 0.000048 -0.399441
 37   15.834409 0.579420 -0.284600 0.356982 0.174294 0.248377
 38   1.139685 -3.453749 -2.823813 0.000000 0.000000 0.000001
 39   -4.457742 -1.054854 -0.746180 0.000000 0.000000 0.000000
 40   1.118101 -3.449769 3.237290 0.000000 0.000001 0.000000
 41   -4.433840 -1.059130 0.959566 -0.000001 0.000000 0.000000
 42   -0.657468 1.697302 -2.688614 0.000000 0.000002 0.000000
 43   -0.664068 1.698578 2.869377 0.000000 0.000002 0.000000
time 5
  0   0.001233 0.187506 0.867585 0.000000 0.000000 -1.571069
  1   -1.093036 0.000002 -0.326057 -1.570808 -1.570425 0.000022
  2   2.262337 0.113614 0.064702 -0.207877 -0.057729 0.029949
  3   2.380047 0.353302 0.047440 -0.122783 0.019806 0.140696
  4   2.033756 0.190472 -0.000128 -0.315378 -0.008149 -0.136640
  5   2.451511 0.204909 -0.003447 -0.241827 0.105837 -0.052961
  6   7.247600 -0.397300 -0.109469 0.000001 0.000021 0.135828
  7   -2.022252 -0.104661 3.136172 1.473151 -1.231650 -4.670100
  8   1.168026 -0.537438 -0.063437 -0.290413 0.858831 -0.877105
  9   6.790376 -0.619176 0.015206 0.022644 0.097890 -1.620665
 10   8.637599 0.544015 -0.090417 -1.856499 -0.323504 0.001688
 11   6.790465 -0.619039 0.017802 0.036329 0.054665 -1.148970
 12   -2.022474 -0.104699 -2.873818 -2.729876 1.524450 -5.860575
 13   1.167898 -0.537463 0.063297 0.533268 -0.778986 -0.797092
 14   7.002743 -0.617765 -0.183752 0.029607 -0.147787 -1.882444
 15   8.209042 0.615527 -0.255885 2.247559 0.176072 -0.229611
 16   7.002735 -0.617911 -0.183641 0.004222 -0.102702 -1.333779
 17   1.574674 0.609930 -0.000899 0.839197 -0.164761 0.153233
 18   -0.602177 0.511412 -0.000006 0.000000 0.000000 0.000000
 19   3.673773 0.177020 1.119313 -0.000002 -0.000014 -0.174510
 20   3.673767 0.176993 -1.117566 0.000007 -0.000003 -0.174546
 21   3.942357 1.334540 1.627658 0.000002 -0.000011 -0.000026
 22   -0.246060 -0.011889 0.516521 -0.000011 0.000031 0.000025
 23   3.942374 1.334565 -1.631083 0.000019 0.000002 -0.000024
 24   -0.246150 -0.011872 -0.516511 -0.000005 -0.000006 0.000048
 25   4.941364 1.997338 1.629330 0.000018 -0.000001 -0.000024
 26   4.941382 1.997366 -1.629410 -0.000001 0.000005 -0.000024
 27   2.914462 1.619264 1.514501 -0.000019 -0.000022 -0.000050
 28   2.916892 1.618870 -1.501142 -0.000002 -0.000009 -0.000024
 29   8.824059 0.150544 0.091743 0.000006 -0.000231 -0.174534
 30   2.111085 -0.561179 1.784320 -0.000008 -0.000682 0.000024
 31   2.121290 -0.561289 -1.853599 0.000000 0.000000 -0.000002
 32   -0.814395 -0.093824 3.127092 0.116303 -2.993192 -0.321895
 33   14.298673 -0.408176 0.471578 -0.000076 -0.000041 -0.251563
 34   15.835795 0.581398 0.242756 0.005561 -0.112525 -0.080669
 35   -0.815868 -0.091229 -3.114430 0.333236 2.966802 -0.031503
 36   14.294526 -0.410349 -0.467541 0.000069 0.000048 -0.399441
 37   15.834409 0.579420 -0.284600 0.356982 0.174294 0.248377
 38   1.139685 -3.453749 -2.823813 0.000000 0.000000 0.000001
 39   -4.457742 -1.054854 -0.746180 0.000000 0.000000 0.000000
 40   1.118101 -3.449769 3.237290 0.000000 0.000001 0.000000
 41   -4.433840 -1.059130 0.959566 -0.000001 0.000000 0.000000
 42   -0.657468 1.697302 -2.688614 0.000000 0.000002 0.000000
 43   -0.664068 1.698578 2.869377 0.000000 0.000002 0.000000
time 6
  0   0.001233 0.187506 0.867585 0.000000 0.000000 -1.571069
  1   -1.093036 0.000002 -0.326057 -1.570808 -1.570425 0.000022
  2   2.262337 0.113614 0.064702 -0.200260 -0.071248 0.036744
  3   2.380047 0.353302 0.047440 -0.155410 0.023869 0.177630
  4   2.033756 0.190472 -0.000128 -0.333120 0.003619 -0.113478
  5   2.451511 0.204909 -0.003447 -0.241245 0.138776 -0.039761
  6   7.247600 -0.397300 -0.109469 0.000001 0.000021 0.147231
  7   -2.022252 -0.104661 3.136172 1.473151 -1.231650 -4.670100
  8   1.168026 -0.537438 -0.063437 -0.290413 0.858831 -0.877105
  9   6.790376 -0.619176 0.015206 0.022644 0.097890 -1.620665
 10   8.637599 0.544015 -0.090417 -1.856499 -0.323504 0.001688
 11   6.790465 -0.619039 0.017802 0.036329 0.054665 -1.148970
 12   -2.022474 -0.104699 -2.873818 -2.729876 1.524450 -5.860575
 13   1.167898 -0.537463 0.063297 0.533268 -0.778986 -0.797092
 14   7.002743 -0.617765 -0.183752 0.029607 -0.147787 -1.882444
 15   8.209042 0.615527 -0.255885 2.247559 0.176072 -0.229611
 16   7.002735 -0.617911 -0.183641 0.004222 -0.102702 -1.333779
 17   1.574674 0.609930 -0.000899 0.876406 -0.206793 0.121298
 18   -0.602177 0.511412 -0.000006 0.000000 0.000000 0.000000
 19   3.673773 0.177020 1.119313 -0.000002 -0.000014 -0.174510
 20   3.673767 0.176993 -1.117566 0.000007 -0.000003 -0.174546
 21   3.942357 1.334540 1.627658 0.000002 -0.000011 -0.000026
 22   -0.246060 -0.011889 0.516521 -0.000011 0.000031 0.000025
 23   3.942374 1.334565 -1.631083 0.000019 0.000002 -0.000024
 24   -0.246150 -0.011872 -0.516511 -0.000005 -0.000006 0.000048
 25   4.941364 1.997338 1.629330 0.000018 -0.000001 -0.000024
 26   4.941382 1.997366 -1.629410 -0.000001 0.000005 -0.000024
 27   2.914462 1.619264 1.514501 -0.000019 -0.000022 -0.000050
 28   2.916892 1.618870 -1.501142 -0.000002 -0.000009 -0.000024
 29   8.824059 0.150544 0.091743 0.000006 -0.000231 -0.174534
 30   2.111085 -0.561179 1.784320 -0.000008 -0.000682 0.000024
 31   2.121290 -0.561289 -1.853599 0.000000 0.000000 -0.000002
 32   -0.814395 -0.093824 3.127092 0.132428 -2.994339 -0.321553
 33   14.298673 -0.408176 0.471578 -0.000076 -0.000041 -0.251563
 34   15.835795 0.581398 0.242756 0.005561 -0.112525 -0.080669
 35   -0.815868 -0.091229 -3.114430 0.333236 2.966802 -0.031503
 36   14.294526 -0.410349 -0.467541 0.000069 0.000048 -0.399441
 37   15.834409 0.579420 -0.284600 0.356982 0.174294 0.248377
 38   1.139685 -3.453749 -2.823813 0.000000 0.000000 0.000001
 39   -4.457742 -1.054854 -0.746180 0.000000 0.000000 0.000000
 40   1.118101 -3.449769 3.237290 0.000000 0.000001 0.000000
 41   -4.433840 -1.059130 0.959566 -0.000001 0.000000 0.000000
 42   -0.657468 1.697302 -2.688614 0.000000 0.000002 0.000000
 43   -0.664068 1.698578 2.869377 0.000000 0.000002 0.000000
time 7
  0   0.001233 0.187506 0.867585 0.000000 0.000000 -1.571069
  1   -1.093036 0.000002 -0.326057 -1.570808 -1.570425 0.000022
  2   2.262337 0.113614 0.064702 -0.195497 -0.079841 0.040954
  3   2.380047 0.353302 0.047440 -0.176037 0.027069 0.200974
  4   2.033756 0.190472 -0.000128 -0.344259 0.011326 -0.099016
  5   2.451511 0.204909 -0.003447 -0.240663 0.159612 -0.031316
  6   7.247600 -0.397300 -0.109469 0.000001 0.000021 0.154485
  7   -2.022252 -0.104661 3.136172 1.473151 -1.231650 -4.670100
  8   1.168026 -0.537438 -0.063437 -0.290413 0.858831 -0.877105
  9   6.790376 -0.619176 0.015206 0.022644 0.097890 -1.620665
 10   8.637599 0.544015 -0.090417 -1.856499 -0.323504 0.001688
 11   6.790465 -0.619039 0.017802 0.036329 0.054665 -1.148970
 12   -2.022474 -0.104699 -2.873818 -2.729876 1.524450 -5.860575
 13   1.167898 -0.537463 0.063297 0.533268 -0.778986 -0.797092
 14   7.002743 -0.617765 -0.183752 0.029607 -0.147787 -1.882444
 15   8.209042 0.615527 -0.255885 2.247559 0.176072 -0.229611
 16   7.002735 -0.617911 -0.183641 0.004222 -0.102702 -1.333779
 17   1.574674 0.609930 -0.000899 0.900860 -0.232756 0.100009
 18   -0.602177 0.511412 -0.000006 0.000000 0.000000 0.000000
 19   3.673773 0.177020 1.119313 -0.000002 -0.000014 -0.174510
 20   3.673767 0.176993 -1.117566 0.000007 -0.000003 -0.174546
 21   3.942357 1.334540 1.627658 0.000002 -0.000011 -0.000026
 22   -0.246060 -0.011889 0.516521 -0.000011 0.000031 0.000025
 23   3.942374 1.334565 -1.631083 0.000019 0.000002 -0.000024
 24   -0.246150 -0.011872 -0.516511 -0.000005 -0.000006 0.000048
 25   4.941364 1.997338 1.629330 0.000018 -0.000001 -0.000024
 26   4.941382 1.997366 -1.629410 -0.000001 0.000005 -0.000024
 27   2.914462 1.619264 1.514501 -0.000019 -0.000022 -0.000050
 28   2.916892 1.618870 -1.501142 -0.000002 -0.000009 -0.000024
 29   8.824059 0.150544 0.091743 0.000006 -0.000231 -0.174534
 30   2.111085 -0.561179 1.784320 -0.000008 -0.000682 0.000024
 31   2.121290 -0.561289 -1.853599 0.000000 0.000000 -0.000002
 32   -0.814395 -0.093824 3.127092 0.132428 -2.994339 -0.321553
 33   14.298673 -0.408176 0.471578 -0.000076 -0.000041 -0.251563
 34   15.835795 0.581398 0.242756 0.005561 -0.112525 -0.080669
 35   -0.815868 -0.091229 -3.114430 0.333236 2.966802 -0.031503
 36   14.294526 -0.410349 -0.467541 0.000069 0.000048 -0.399441
 37   15.834409 0.579420 -0.284600 0.356982 0.174294 0.248377
 38   1.139685 -3.453749 -2.823813 0.000000 0.000000 0.000001
 39   -4.457742 -1.054854 -0.746180 0.000000 0.000000 0.000000
 40   1.118101 -3.449769 3.237290 0.000000 0.000001 0.000000
 41   -4.433840 -1.059130 0.959566 -0.000001 0.000000 0.000000
 42   -0.657468 1.697302 -2.688614 0.000000 0.000002 0.000000
 43   -0.664068 1.698578 2.869377 0.000000 0.000002 0.000000
time 8
  0   0.001233 0.187506 0.867585 0.000000 0.000000 -1.571069
  1   -1.093036 0.000002 -0.326057 -1.570808 -1.570425 0.000022
  2   2.262337 0.113614 0.064702 -0.193904 -0.082717 0.042400
  3   2.380047 0.353302 0.047440 -0.182832 0.028268 0.208708
  4   2.033756 0.190472 -0.000128 -0.347911 0.013926 -0.094195
  5   2.451511 0.204909 -0.003447 -0.240372 0.166584 -0.028567
  6   7.247600 -0.397300 -0.109469 0.000001 0.000021 0.156829
  7   -2.022252 -0.104661 3.136172 1.473151 -1.231650 -4.670100
  8   1.168026 -0.537438 -0.063437 -0.290413 0.858831 -0.877105
  9   6.790376 -0.619176 0.015206 0.022644 0.097890 -1.620665
 10   8.637599 0.544015 -0.090417 -1.856499 -0.323504 0.001688
 11   6.790465 -0.619039 0.017802 0.036329 0.054665 -1.148970
 12   -2.022474 -0.104699 -2.873818 -2.729876 1.524450 -5.860575
 13   1.167898 -0.537463 0.063297 0.533268 -0.778986 -0.797092
 14   7.002743 -0.617765 -0.183752 0.029607 -0.147787 -1.882444
 15   8.209042 0.615527 -0.255885 2.247559 0.176072 -0.229611
 16   7.002735 -0.617911 -0.183641 0.004222 -0.102702 -1.333779
 17   1.574674 0.609930 -0.000899 0.909188 -0.241347 0.092764
 18   -0.602177 0.511412 -0.000006 0.000000 0.000000 0.000000
 19   3.673773 0.177020 1.119313 -0.000002 -0.000014 -0.174510
 20   3.673767 0.176993 -1.117566 0.000007 -0.000003 -0.174546
 21   3.942357 1.334540 1.627658 0.000002 -0.000011 -0.000026
 22   -0.246060 -0.011889 0.516521 -0.000011 0.000031 0.000025
 23   3.942374 1.334565 -1.631083 0.000019 0.000002 -0.000024
 24   -0.246150 -0.011872 -0.516511 -0.000005 -0.000006 0.000048
 25   4.941364 1.997338 1.629330 0.000018 -0.000001 -0.000024
 26   4.941382 1.997366 -1.629410 -0.000001 0.000005 -0.000024
 27   2.914462 1.619264 1.514501 -0.000019 -0.000022 -0.000050
 28   2.916892 1.618870 -1.501142 -0.000002 -0.000009 -0.000024
 29   8.824059 0.150544 0.091743 0.000006 -0.000231 -0.174534
 30   2.111085 -0.561179 1.784320 -0.000008 -0.000682 0.000024
 31   2.121290 -0.561289 -1.853599 0.000000 0.000000 -0.000002
 32   -0.814395 -0.093824 3.127092 0.132428 -2.994339 -0.321553
 33   14.298673 -0.408176 0.471578 -0.000076 -0.000041 -0.251563
 34   15.835795 0.581398 0.242756 0.005561 -0.112525 -0.080669
 35   -0.815868 -0.091229 -3.114430 0.333236 2.966802 -0.031503
 36   14.294526 -0.410349 -0.467541 0.000069 0.000048 -0.399441
 37   15.834409 0.579420 -0.284600 0.356982 0.174294 0.248377
 38   1.139685 -3.453749 -2.823813 0.000000 0.000000 0.000001
 39   -4.457742 -1.054854 -0.746180 0.000000 0.000000 0.000000
 40   1.118101 -3.449769 3.237290 0.000000 0.000001 0.000000
 41   -4.433840 -1.059130 0.959566 -0.000001 0.000000 0.000000
 42   -0.657468 1.697302 -2.688614 0.000000 0.000002 0.000000
 43   -0.664068 1.698578 2.869377 0.000000 0.000002 0.000000
end
