version 1
nodes
  0 "Bip01" -1
  1 "Bip01 Pelvis" 0
  2 "Bip01 Spine" 1
  3 "Bip01 Spine1" 2
  4 "Bip01 Spine2" 3
  5 "Bip01 Spine3" 4
  6 "Bip01 Neck" 5
  7 "Bip01 L Arm" 6
  8 "Bip01 L Arm1" 7
  9 "Bip01 L Arm2" 8
 10 "Bip01 L Hand" 9
 11 "Bip06 L elbow2-smooth" 8
 12 "Bip01 R Arm" 6
 13 "Bip01 R Arm1" 12
 14 "Bip01 R Arm2" 13
 15 "Bip01 R Hand" 14
 16 "Bip06 R elbow2-smooth" 13
 17 "Bip01 Head" 6
 18 "Bip06 Head_helper" 17
 19 "Bip06 Head_eyes_l" 18
 20 "Bip06 Head_eyes_r" 18
 21 "Bip06 Head_blink_l" 18
 22 "Bip06 Head_blink_smooth_l1" 21
 23 "Bip06 Head_blink_r" 18
 24 "Bip06 Head_blink_smooth_r1" 23
 25 "Bip06 Head_L_eyebrow" 18
 26 "Bip06 Head_R_eyebrow" 18
 27 "Bip06 Head_blink_l_lid" 18
 28 "Bip06 Head_blink_r_lid" 18
 29 "Bip06 bunny" 18
 30 "Bip06 bunnyL" 29
 31 "Bip06 bunnyR" 29
 32 "Bip01 L Leg" 1
 33 "Bip01 L Leg1" 32
 34 "Bip01 L Foot" 33
 35 "Bip01 R Leg" 1
 36 "Bip01 R Leg1" 35
 37 "Bip01 R Foot" 36
 38 "Bip03 HairR1" 17
 39 "Bip03 HairR2" 38
 40 "Bip03 HairL1" 17
 41 "Bip03 HairL2" 40
 42 "Bip03 swingR" 17
 43 "Bip03 swingL" 17
end
skeleton
time 0
  0   0.001233 -0.019532 2.289504 0.000000 0.000000 -1.571829
  1   -1.093036 0.000002 -0.326057 -1.570756 -1.570425 -0.000123
  2   2.262337 0.113614 0.064702 -0.000052 0.000049 0.131363
  3   2.380047 0.353302 0.047440 -0.265923 0.048701 0.176508
  4   2.033756 0.190472 -0.000128 -0.261987 0.067090 0.243808
  5   2.451511 0.204909 -0.003447 -0.139451 -0.002133 -0.017422
  6   7.247600 -0.397300 -0.109469 0.000001 0.000033 0.052298
  7   -2.022252 -0.104661 3.136172 1.070260 -1.170882 -4.229632
  8   1.168026 -0.537438 -0.063437 -0.423871 0.283990 -0.656010
  9   6.790376 -0.619176 0.015206 -0.000158 -0.000151 -1.110807
 10   8.637599 0.544015 -0.090417 -4.300299 0.240956 0.178642
 11   6.790465 -0.619039 0.017802 0.000768 -0.011623 -0.792770
 12   -2.022474 -0.104699 -2.873818 0.298873 1.361800 -2.901888
 13   1.167898 -0.537463 0.063297 0.714422 -0.857302 -1.281854
 14   7.002743 -0.617765 -0.183752 0.000286 0.000250 -1.945478
 15   8.209042 0.615527 -0.255885 1.831745 -0.254128 1.079277
 16   7.002735 -0.617911 -0.183641 0.012978 0.010920 -1.380527
 17   1.574674 0.609930 -0.000899 0.701247 -0.325340 0.125844
 18   -0.602177 0.511412 -0.000006 0.000000 0.000000 0.000000
 19   3.646428 0.364526 1.119313 -0.000002 -0.000014 -0.174510
 20   3.646422 0.364499 -1.117566 0.000007 -0.000003 -0.174546
 21   3.805634 1.330634 1.627658 0.000002 -0.000011 -0.000026
 22   -0.246060 -0.011889 0.516521 -0.000011 0.000031 0.000025
 23   3.805651 1.330659 -1.631083 0.000019 0.000002 -0.000024
 24   -0.246150 -0.011872 -0.516511 -0.000005 -0.000006 0.000048
 25   4.941364 1.997338 1.629330 0.000018 -0.000001 -0.000024
 26   4.941382 1.997366 -1.629410 -0.000001 0.000005 -0.000024
 27   2.930087 1.603639 1.514501 -0.000019 -0.000022 -0.000050
 28   2.932517 1.603245 -1.501142 -0.000002 -0.000009 -0.000024
 29   8.824059 0.150544 0.091743 0.000006 -0.000231 -0.174534
 30   2.111085 -0.561179 1.784320 -0.000008 -0.000682 0.000024
 31   2.121290 -0.561289 -1.853599 0.000000 0.000000 -0.000002
 32   -0.814395 -0.093824 3.127092 0.338887 -3.077717 -0.167408
 33   14.298673 -0.408176 0.471578 0.013215 -0.091859 -0.496506
 34   15.835795 0.581398 0.242756 -0.532539 -0.064474 0.362915
 35   -0.815868 -0.091229 -3.114430 -0.002012 2.881638 -0.314978
 36   14.294526 -0.410349 -0.467541 -0.021444 0.095337 -0.575480
 37   15.834409 0.579420 -0.284600 -0.051545 0.043118 0.201427
 38   1.139685 -3.453749 -2.823813 0.000000 0.000000 0.000001
 39   -4.457742 -1.054854 -0.746180 0.000000 0.000000 0.000000
 40   1.118101 -3.449769 3.237290 0.000000 0.000001 0.000000
 41   -4.433840 -1.059130 0.959566 -0.000001 0.000000 0.000000
 42   -0.657468 1.697302 -2.688614 0.000000 0.000002 0.000000
 43   -0.664068 1.698578 2.869377 0.000000 0.000002 0.000000
time 1
  0   0.001233 -0.019532 2.289504 0.000000 0.000000 -1.571829
  1   -1.093036 0.000002 -0.326057 -1.570756 -1.570425 -0.000123
  2   2.262337 0.113614 0.064702 -0.000052 0.000049 0.131363
  3   2.380047 0.353302 0.047440 -0.265833 0.049301 0.178324
  4   2.033756 0.190472 -0.000128 -0.261987 0.067090 0.243808
  5   2.451511 0.204909 -0.003447 -0.139451 -0.001271 -0.011404
  6   7.247600 -0.397300 -0.109469 0.000001 0.000033 0.052298
  7   -2.022252 -0.104661 3.136172 1.057511 -1.167855 -4.215639
  8   1.168026 -0.537438 -0.063437 -0.423492 0.271864 -0.657212
  9   6.790376 -0.619176 0.015206 -0.000158 -0.000151 -1.110807
 10   8.637599 0.544015 -0.090417 -4.300299 0.240956 0.178642
 11   6.790465 -0.619039 0.017802 0.000768 -0.011623 -0.792770
 12   -2.022474 -0.104699 -2.873818 0.289867 1.355356 -2.910888
 13   1.167898 -0.537463 0.063297 0.709712 -0.848504 -1.279554
 14   7.002743 -0.617765 -0.183752 0.000286 0.000250 -1.945478
 15   8.209042 0.615527 -0.255885 1.831601 -0.252161 1.079758
 16   7.002735 -0.617911 -0.183641 0.012978 0.010920 -1.380527
 17   1.574674 0.609930 -0.000899 0.701450 -0.324630 0.117787
 18   -0.602177 0.511412 -0.000006 0.000000 0.000000 0.000000
 19   3.646428 0.364526 1.119313 -0.000002 -0.000014 -0.174510
 20   3.646422 0.364499 -1.117566 0.000007 -0.000003 -0.174546
 21   3.805634 1.330634 1.627658 0.000002 -0.000011 -0.000026
 22   -0.246060 -0.011889 0.516521 -0.000011 0.000031 0.000025
 23   3.805651 1.330659 -1.631083 0.000019 0.000002 -0.000024
 24   -0.246150 -0.011872 -0.516511 -0.000005 -0.000006 0.000048
 25   4.941364 1.997338 1.629330 0.000018 -0.000001 -0.000024
 26   4.941382 1.997366 -1.629410 -0.000001 0.000005 -0.000024
 27   2.930087 1.603639 1.514501 -0.000019 -0.000022 -0.000050
 28   2.932517 1.603245 -1.501142 -0.000002 -0.000009 -0.000024
 29   8.824059 0.150544 0.091743 0.000986 -0.000492 -0.171530
 30   2.111085 -0.561179 1.784320 -0.000022 0.001236 0.000153
 31   2.121290 -0.561289 -1.853599 0.000000 -0.002564 0.000125
 32   -0.814395 -0.093824 3.127092 0.338887 -3.077717 -0.167693
 33   14.298673 -0.408176 0.471578 0.013323 -0.092001 -0.496982
 34   15.835795 0.581398 0.242756 -0.532539 -0.064474 0.362915
 35   -0.815868 -0.091229 -3.114430 -0.002012 2.881638 -0.315361
 36   14.294526 -0.410349 -0.467541 -0.021540 0.095265 -0.575866
 37   15.834409 0.579420 -0.284600 -0.051545 0.043118 0.201427
 38   1.139685 -3.453749 -2.823813 0.000084 -0.000072 0.000184
 39   -4.457742 -1.054854 -0.746180 0.000132 0.000288 -0.001178
 40   1.118101 -3.449769 3.237290 -0.000042 -0.000083 0.000367
 41   -4.433840 -1.059130 0.959566 0.000011 0.000024 -0.000112
 42   -0.657468 1.697302 -2.688614 0.000863 0.001351 -0.000125
 43   -0.664068 1.698578 2.869377 -0.001012 -0.001520 0.000251
time 2
  0   0.001233 -0.019532 2.277784 0.000000 0.000000 -1.571829
  1   -1.093036 0.000002 -0.326057 -1.570756 -1.570425 -0.000123
  2   2.262337 0.113614 0.064702 -0.000052 0.000049 0.131363
  3   2.380047 0.353302 0.047440 -0.265728 0.049852 0.180242
  4   2.033756 0.190472 -0.000128 -0.261987 0.067090 0.243808
  5   2.451511 0.204909 -0.003447 -0.139451 -0.000358 -0.004569
  6   7.247600 -0.397300 -0.109469 0.000001 0.000033 0.052298
  7   -2.022252 -0.104661 3.136172 1.043804 -1.164511 -4.200518
  8   1.168026 -0.537438 -0.063437 -0.423238 0.258883 -0.658667
  9   6.790376 -0.619176 0.015206 -0.000158 -0.000151 -1.110807
 10   8.637599 0.544015 -0.090417 -4.300299 0.240956 0.178642
 11   6.790465 -0.619039 0.017802 0.000768 -0.011623 -0.792770
 12   -2.022474 -0.104699 -2.873818 0.280287 1.348245 -2.920845
 13   1.167898 -0.537463 0.063297 0.704369 -0.838638 -1.277859
 14   7.002743 -0.617765 -0.183752 0.000286 0.000250 -1.945478
 15   8.209042 0.615527 -0.255885 1.831313 -0.250269 1.080239
 16   7.002735 -0.617911 -0.183641 0.012978 0.010920 -1.380527
 17   1.574674 0.609930 -0.000899 0.701775 -0.323849 0.109286
 18   -0.602177 0.511412 -0.000006 0.000000 0.000000 0.000000
 19   3.646428 0.364526 1.119313 -0.000002 -0.000014 -0.174510
 20   3.646422 0.364499 -1.117566 0.000007 -0.000003 -0.174546
 21   3.805634 1.330634 1.627658 0.000002 -0.000011 -0.000026
 22   -0.246060 -0.011889 0.516521 -0.000011 0.000031 0.000025
 23   3.805651 1.330659 -1.631083 0.000019 0.000002 -0.000024
 24   -0.246150 -0.011872 -0.516511 -0.000005 -0.000006 0.000048
 25   4.941364 1.997338 1.629330 0.000018 -0.000001 -0.000024
 26   4.941382 1.997366 -1.629410 -0.000001 0.000005 -0.000024
 27   2.930087 1.603639 1.514501 -0.000019 -0.000022 -0.000050
 28   2.932517 1.603245 -1.501142 -0.000002 -0.000009 -0.000024
 29   8.824059 0.150544 0.091743 0.003927 -0.001323 -0.163000
 30   2.111085 -0.561179 1.780414 -0.000103 0.006729 0.000517
 31   2.125196 -0.561289 -1.849693 0.000015 -0.009765 0.000544
 32   -0.814395 -0.093824 3.127092 0.338887 -3.077717 -0.168604
 33   14.298673 -0.408176 0.471578 0.013682 -0.092389 -0.498491
 34   15.835795 0.581398 0.242756 -0.532539 -0.064474 0.362915
 35   -0.815868 -0.091229 -3.114430 -0.002012 2.881638 -0.316512
 36   14.294526 -0.410349 -0.467541 -0.021875 0.095050 -0.577411
 37   15.834409 0.579420 -0.284600 -0.051545 0.043118 0.201427
 38   1.139685 -3.453749 -2.823813 0.000400 -0.000289 0.000856
 39   -4.457742 -1.043135 -0.746180 0.000503 0.001127 -0.004487
 40   1.118101 -3.449769 3.237290 -0.000189 -0.000348 0.001466
 41   -4.429934 -1.051317 0.959566 0.000047 0.000108 -0.000449
 42   -0.657468 1.697302 -2.676895 0.003308 0.005169 -0.000460
 43   -0.664068 1.698578 2.857658 -0.003886 -0.005851 0.001004
time 3
  0   0.001233 -0.019532 2.266065 0.000000 0.000000 -1.571829
  1   -1.093036 0.000002 -0.326057 -1.570756 -1.570425 -0.000123
  2   2.262337 0.113614 0.064702 -0.000052 0.000049 0.131363
  3   2.380047 0.353302 0.047440 -0.265608 0.050295 0.182364
  4   2.033756 0.190472 -0.000128 -0.261987 0.067090 0.243808
  5   2.451511 0.204909 -0.003447 -0.139451 0.000361 0.002613
  6   7.247600 -0.397300 -0.109469 0.000001 0.000033 0.052298
  7   -2.022252 -0.104661 3.136172 1.029329 -1.160850 -4.185116
  8   1.168026 -0.537438 -0.063437 -0.422795 0.244946 -0.660375
  9   6.790376 -0.619176 0.015206 -0.000158 -0.000151 -1.110807
 10   8.637599 0.544015 -0.090417 -4.300299 0.240956 0.178642
 11   6.790465 -0.619039 0.017802 0.000768 -0.011623 -0.792770
 12   -2.022474 -0.104699 -2.873818 0.270898 1.340554 -2.930132
 13   1.167898 -0.537463 0.063297 0.698675 -0.828060 -1.275740
 14   7.002743 -0.617765 -0.183752 0.000286 0.000250 -1.945478
 15   8.209042 0.615527 -0.255885 1.830954 -0.248151 1.080781
 16   7.002735 -0.617911 -0.183641 0.012978 0.010920 -1.380527
 17   1.574674 0.609930 -0.000899 0.701978 -0.323068 0.099787
 18   -0.602177 0.511412 -0.000006 0.000000 0.000000 0.000000
 19   3.646428 0.364526 1.119313 -0.000002 -0.000014 -0.174510
 20   3.646422 0.364499 -1.117566 0.000007 -0.000003 -0.174546
 21   3.805634 1.330634 1.627658 0.000002 -0.000011 -0.000026
 22   -0.246060 -0.011889 0.516521 -0.000011 0.000031 0.000025
 23   3.805651 1.330659 -1.631083 0.000019 0.000002 -0.000024
 24   -0.246150 -0.011872 -0.516511 -0.000005 -0.000006 0.000048
 25   4.941364 1.997338 1.629330 0.000018 -0.000001 -0.000024
 26   4.941382 1.997366 -1.629410 -0.000001 0.000005 -0.000024
 27   2.930087 1.603639 1.514501 -0.000019 -0.000022 -0.000050
 28   2.932517 1.603245 -1.501142 -0.000002 -0.000009 -0.000024
 29   8.824059 0.150544 0.091743 0.008473 -0.002629 -0.149802
 30   2.114991 -0.561179 1.772601 -0.000225 0.015185 0.001075
 31   2.129103 -0.561289 -1.845786 0.000031 -0.020928 0.001163
 32   -0.814395 -0.093824 3.127092 0.338887 -3.077717 -0.170368
 33   14.298673 -0.408176 0.471578 0.014258 -0.093035 -0.500952
 34   15.835795 0.581398 0.242756 -0.532539 -0.064474 0.362915
 35   -0.815868 -0.091229 -3.114430 -0.002012 2.881638 -0.318045
 36   14.294526 -0.410349 -0.467541 -0.022427 0.094666 -0.579960
 37   15.834409 0.579420 -0.284600 -0.051545 0.043118 0.201427
 38   1.143591 -3.453749 -2.823813 0.000842 -0.000627 0.001956
 39   -4.457742 -1.027509 -0.742274 0.001091 0.002409 -0.009648
 40   1.114195 -3.449769 3.237290 -0.000400 -0.000758 0.003116
 41   -4.422121 -1.043504 0.963472 0.000107 0.000228 -0.000954
 42   -0.649655 1.697302 -2.661269 0.007095 0.011057 -0.001046
 43   -0.664068 1.698578 2.845939 -0.008321 -0.012535 0.002133
time 4
  0   0.001233 -0.019532 2.242627 0.000000 0.000000 -1.571829
  1   -1.093036 0.000002 -0.326057 -1.570756 -1.570425 -0.000123
  2   2.262337 0.113614 0.064702 -0.000052 0.000049 0.131363
  3   2.380047 0.353302 0.047440 -0.265533 0.050894 0.184527
  4   2.033756 0.190472 -0.000128 -0.261987 0.067090 0.243808
  5   2.451511 0.204909 -0.003447 -0.139451 0.001379 0.010117
  6   7.247600 -0.397300 -0.109469 0.000001 0.000033 0.052298
  7   -2.022252 -0.104661 3.136172 1.014567 -1.156929 -4.168869
  8   1.168026 -0.537438 -0.063437 -0.422352 0.230405 -0.661830
  9   6.790376 -0.619176 0.015206 -0.000158 -0.000151 -1.110807
 10   8.637599 0.544015 -0.090417 -4.300299 0.240956 0.178642
 11   6.790465 -0.619039 0.017802 0.000768 -0.011623 -0.792770
 12   -2.022474 -0.104699 -2.873818 0.261796 1.332631 -2.939419
 13   1.167898 -0.537463 0.063297 0.693262 -0.817076 -1.273803
 14   7.002743 -0.617765 -0.183752 0.000286 0.000250 -1.945478
 15   8.209042 0.615527 -0.255885 1.830738 -0.246032 1.081382
 16   7.002735 -0.617911 -0.183641 0.012978 0.010920 -1.380527
 17   1.574674 0.609930 -0.000899 0.702263 -0.322216 0.089955
 18   -0.602177 0.511412 -0.000006 0.000000 0.000000 0.000000
 19   3.646428 0.364526 1.119313 -0.000002 -0.000014 -0.174510
 20   3.646422 0.364499 -1.117566 0.000007 -0.000003 -0.174546
 21   3.805634 1.330634 1.627658 0.000002 -0.000011 -0.000026
 22   -0.246060 -0.011889 0.516521 -0.000011 0.000031 0.000025
 23   3.805651 1.330659 -1.631083 0.000019 0.000002 -0.000024
 24   -0.246150 -0.011872 -0.516511 -0.000005 -0.000006 0.000048
 25   4.941364 1.997338 1.629330 0.000018 -0.000001 -0.000024
 26   4.941382 1.997366 -1.629410 -0.000001 0.000005 -0.000024
 27   2.930087 1.603639 1.514501 -0.000019 -0.000022 -0.000050
 28   2.932517 1.603245 -1.501142 -0.000002 -0.000009 -0.000024
 29   8.824059 0.150544 0.091743 0.014266 -0.004409 -0.132796
 30   2.118898 -0.561179 1.760882 -0.000374 0.026112 0.001804
 31   2.136915 -0.561289 -1.837973 0.000061 -0.035330 0.001963
 32   -0.814395 -0.093824 3.127092 0.338887 -3.077717 -0.172873
 33   14.298673 -0.408176 0.471578 0.015049 -0.093979 -0.504446
 34   15.835795 0.581398 0.242756 -0.532539 -0.064474 0.362915
 35   -0.815868 -0.091229 -3.114430 -0.002012 2.881638 -0.320456
 36   14.294526 -0.410349 -0.467541 -0.023194 0.094175 -0.583513
 37   15.834409 0.579420 -0.284600 -0.051545 0.043118 0.201427
 38   1.147498 -3.453749 -2.823813 0.001431 -0.001073 0.003300
 39   -4.457742 -1.007978 -0.738367 0.001846 0.004075 -0.016267
 40   1.110288 -3.449769 3.237290 -0.000674 -0.001288 0.005315
 41   -4.410401 -1.031785 0.967379 0.000191 0.000395 -0.001599
 42   -0.645749 1.697302 -2.641737 0.011973 0.018646 -0.001798
 43   -0.664068 1.694672 2.826407 -0.014043 -0.021150 0.003639
time 5
  0   0.001233 -0.019532 2.215282 0.000000 0.000000 -1.571829
  1   -1.093036 0.000002 -0.326057 -1.570756 -1.570425 -0.000123
  2   2.262337 0.113614 0.064702 -0.000052 0.000049 0.131363
  3   2.380047 0.353302 0.047440 -0.265443 0.051626 0.186792
  4   2.033756 0.190472 -0.000128 -0.261987 0.067090 0.243808
  5   2.451511 0.204909 -0.003447 -0.139451 0.002593 0.017720
  6   7.247600 -0.397300 -0.109469 0.000001 0.000033 0.052298
  7   -2.022252 -0.104661 3.136172 0.999805 -1.152865 -4.152621
  8   1.168026 -0.537438 -0.063437 -0.421910 0.215814 -0.663791
  9   6.790376 -0.619176 0.015206 -0.000158 -0.000151 -1.110807
 10   8.637599 0.544015 -0.090417 -4.300299 0.240956 0.178642
 11   6.790465 -0.619039 0.017802 0.000768 -0.011623 -0.792770
 12   -2.022474 -0.104699 -2.873818 0.253269 1.324475 -2.948610
 13   1.167898 -0.537463 0.063297 0.687639 -0.806091 -1.272108
 14   7.002743 -0.617765 -0.183752 0.000286 0.000250 -1.945478
 15   8.209042 0.615527 -0.255885 1.830307 -0.243611 1.081923
 16   7.002735 -0.617911 -0.183641 0.012978 0.010920 -1.380527
 17   1.574674 0.609930 -0.000899 0.702588 -0.321364 0.080013
 18   -0.602177 0.511412 -0.000006 0.000000 0.000000 0.000000
 19   3.646428 0.364526 1.119313 -0.000002 -0.000014 -0.174510
 20   3.646422 0.364499 -1.117566 0.000007 -0.000003 -0.174546
 21   3.805634 1.330634 1.627658 0.000002 -0.000011 -0.000026
 22   -0.246060 -0.011889 0.516521 -0.000011 0.000031 0.000025
 23   3.805651 1.330659 -1.631083 0.000019 0.000002 -0.000024
 24   -0.246150 -0.011872 -0.516511 -0.000005 -0.000006 0.000048
 25   4.941364 1.997338 1.629330 0.000018 -0.000001 -0.000024
 26   4.941382 1.997366 -1.629410 -0.000001 0.000005 -0.000024
 27   2.930087 1.603639 1.514501 -0.000019 -0.000022 -0.000050
 28   2.932517 1.603245 -1.501142 -0.000002 -0.000009 -0.000024
 29   8.824059 0.150544 0.091743 0.021039 -0.006617 -0.112785
 30   2.126710 -0.561179 1.749163 -0.000550 0.038928 0.002640
 31   2.144728 -0.561289 -1.830161 0.000092 -0.052217 0.002909
 32   -0.814395 -0.093824 3.127092 0.338887 -3.077717 -0.175719
 33   14.298673 -0.408176 0.471578 0.016031 -0.095103 -0.508654
 34   15.835795 0.581398 0.242756 -0.532539 -0.064474 0.362915
 35   -0.815868 -0.091229 -3.114430 -0.002012 2.881638 -0.323414
 36   14.294526 -0.410349 -0.467541 -0.024140 0.093540 -0.587839
 37   15.834409 0.579420 -0.284600 -0.051545 0.043118 0.201427
 38   1.151404 -3.457655 -2.823813 0.002126 -0.001579 0.004827
 39   -4.461648 -0.988446 -0.730555 0.002721 0.006028 -0.024036
 40   1.106382 -3.445863 3.237290 -0.001010 -0.001915 0.007881
 41   -4.398683 -1.016160 0.971285 0.000287 0.000587 -0.002384
 42   -0.637936 1.697302 -2.618299 0.017701 0.027570 -0.002635
 43   -0.664068 1.690765 2.806875 -0.020765 -0.031255 0.005395
time 6
  0   0.001233 -0.019532 2.187938 0.000000 0.000000 -1.571829
  1   -1.093036 0.000002 -0.326057 -1.570756 -1.570425 -0.000123
  2   2.262337 0.113614 0.064702 -0.000052 0.000049 0.131363
  3   2.380047 0.353302 0.047440 -0.265338 0.052237 0.188996
  4   2.033756 0.190472 -0.000128 -0.261987 0.067090 0.243808
  5   2.451511 0.204909 -0.003447 -0.139434 0.003520 0.025323
  6   7.247600 -0.397300 -0.109469 0.000001 0.000033 0.052298
  7   -2.022252 -0.104661 3.136172 0.985234 -1.148512 -4.136749
  8   1.168026 -0.537438 -0.063437 -0.421467 0.200971 -0.665752
  9   6.790376 -0.619176 0.015206 -0.000158 -0.000151 -1.110807
 10   8.637599 0.544015 -0.090417 -4.300299 0.240956 0.178642
 11   6.790465 -0.619039 0.017802 0.000768 -0.011623 -0.792770
 12   -2.022474 -0.104699 -2.873818 0.245221 1.316290 -2.956844
 13   1.167898 -0.537463 0.063297 0.681945 -0.794852 -1.270776
 14   7.002743 -0.617765 -0.183752 0.000286 0.000250 -1.945478
 15   8.209042 0.615527 -0.255885 1.830091 -0.241493 1.082404
 16   7.002735 -0.617911 -0.183641 0.012978 0.010920 -1.380527
 17   1.574674 0.609930 -0.000899 0.702872 -0.320441 0.070107
 18   -0.602177 0.511412 -0.000006 0.000000 0.000000 0.000000
 19   3.646428 0.364526 1.119313 -0.000002 -0.000014 -0.174510
 20   3.646422 0.364499 -1.117566 0.000007 -0.000003 -0.174546
 21   3.805634 1.330634 1.627658 0.000002 -0.000011 -0.000026
 22   -0.246060 -0.011889 0.516521 -0.000011 0.000031 0.000025
 23   3.805651 1.330659 -1.631083 0.000019 0.000002 -0.000024
 24   -0.246150 -0.011872 -0.516511 -0.000005 -0.000006 0.000048
 25   4.941364 1.997338 1.629330 0.000018 -0.000001 -0.000024
 26   4.941382 1.997366 -1.629410 -0.000001 0.000005 -0.000024
 27   2.930087 1.603639 1.514501 -0.000019 -0.000022 -0.000050
 28   2.932517 1.603245 -1.501142 -0.000002 -0.000009 -0.000024
 29   8.824059 0.150544 0.091743 0.028525 -0.009228 -0.090682
 30   2.130617 -0.561179 1.737444 -0.000754 0.053081 0.003584
 31   2.152541 -0.561289 -1.818442 0.000138 -0.070892 0.003965
 32   -0.814395 -0.093824 3.127092 0.338887 -3.077717 -0.179191
 33   14.298673 -0.408176 0.471578 0.017146 -0.096421 -0.513656
 34   15.835795 0.581398 0.242756 -0.532539 -0.064474 0.362915
 35   -0.815868 -0.091229 -3.114430 -0.002012 2.881638 -0.326865
 36   14.294526 -0.410349 -0.467541 -0.025243 0.092785 -0.592937
 37   15.834409 0.579420 -0.284600 -0.051545 0.043118 0.201427
 38   1.155311 -3.457655 -2.823813 0.002884 -0.002157 0.006599
 39   -4.461648 -0.961101 -0.726648 0.003703 0.008173 -0.032646
 40   1.102476 -3.445863 3.237290 -0.001368 -0.002602 0.010692
 41   -4.386963 -1.000534 0.979098 0.000394 0.000791 -0.003253
 42   -0.634030 1.693396 -2.590955 0.024029 0.037428 -0.003597
 43   -0.664068 1.686859 2.783437 -0.028187 -0.042443 0.007319
time 7
  0   0.001233 -0.019532 2.160593 0.000000 0.000000 -1.571829
  1   -1.093036 0.000002 -0.326057 -1.570756 -1.570425 -0.000123
  2   2.262337 0.113614 0.064702 -0.000052 0.000049 0.131363
  3   2.380047 0.353302 0.047440 -0.265218 0.052704 0.191261
  4   2.033756 0.190472 -0.000128 -0.261987 0.067090 0.243808
  5   2.451511 0.204909 -0.003447 -0.139400 0.004721 0.032827
  6   7.247600 -0.397300 -0.109469 0.000001 0.000033 0.052298
  7   -2.022252 -0.104661 3.136172 0.971143 -1.144303 -4.121440
  8   1.168026 -0.537438 -0.063437 -0.420770 0.186531 -0.667460
  9   6.790376 -0.619176 0.015206 -0.000158 -0.000151 -1.110807
 10   8.637599 0.544015 -0.090417 -4.300299 0.240956 0.178642
 11   6.790465 -0.619039 0.017802 0.000768 -0.011623 -0.792770
 12   -2.022474 -0.104699 -2.873818 0.237461 1.308018 -2.964599
 13   1.167898 -0.537463 0.063297 0.676532 -0.784274 -1.269384
 14   7.002743 -0.617765 -0.183752 0.000286 0.000250 -1.945478
 15   8.209042 0.615527 -0.255885 1.829588 -0.239223 1.082825
 16   7.002735 -0.617911 -0.183641 0.012978 0.010920 -1.380527
 17   1.574674 0.609930 -0.000899 0.703156 -0.319589 0.060386
 18   -0.602177 0.511412 -0.000006 0.000000 0.000000 0.000000
 19   3.646428 0.364526 1.119313 -0.000002 -0.000014 -0.174510
 20   3.646422 0.364499 -1.117566 0.000007 -0.000003 -0.174546
 21   3.805634 1.330634 1.627658 0.000002 -0.000011 -0.000026
 22   -0.246060 -0.011889 0.516521 -0.000011 0.000031 0.000025
 23   3.805651 1.330659 -1.631083 0.000019 0.000002 -0.000024
 24   -0.246150 -0.011872 -0.516511 -0.000005 -0.000006 0.000048
 25   4.941364 1.997338 1.629330 0.000018 -0.000001 -0.000024
 26   4.941382 1.997366 -1.629410 -0.000001 0.000005 -0.000024
 27   2.930087 1.603639 1.514501 -0.000019 -0.000022 -0.000050
 28   2.932517 1.603245 -1.501142 -0.000002 -0.000009 -0.000024
 29   8.824059 0.150544 0.091743 0.036368 -0.012147 -0.067345
 30   2.138430 -0.557273 1.721818 -0.000957 0.068076 0.004591
 31   2.164260 -0.561289 -1.810629 0.000184 -0.090655 0.005075
 32   -0.814395 -0.093824 3.127092 0.338887 -3.077717 -0.182834
 33   14.298673 -0.408176 0.471578 0.018392 -0.097830 -0.519055
 34   15.835795 0.581398 0.242756 -0.532539 -0.064474 0.362915
 35   -0.815868 -0.091229 -3.114430 -0.002012 2.881638 -0.330535
 36   14.294526 -0.410349 -0.467541 -0.026429 0.091994 -0.598422
 37   15.834409 0.579420 -0.284600 -0.051545 0.043118 0.201427
 38   1.159217 -3.461562 -2.823813 0.003684 -0.002748 0.008432
 39   -4.465555 -0.933757 -0.718835 0.004734 0.010463 -0.041761
 40   1.098569 -3.441956 3.237290 -0.001747 -0.003325 0.013685
 41   -4.371338 -0.984909 0.983004 0.000502 0.001019 -0.004151
 42   -0.626217 1.693396 -2.563610 0.030728 0.047869 -0.004600
 43   -0.664068 1.682953 2.759999 -0.036045 -0.054275 0.009326
time 8
  0   0.001233 -0.019532 2.125436 0.000000 0.000000 -1.571829
  1   -1.093036 0.000002 -0.326057 -1.570756 -1.570425 -0.000123
  2   2.262337 0.113614 0.064702 -0.000052 0.000049 0.131363
  3   2.380047 0.353302 0.047440 -0.265098 0.053267 0.193363
  4   2.033756 0.190472 -0.000128 -0.261987 0.067090 0.243808
  5   2.451511 0.204909 -0.003447 -0.139297 0.005726 0.040009
  6   7.247600 -0.397300 -0.109469 0.000001 0.000033 0.052298
  7   -2.022252 -0.104661 3.136172 0.958298 -1.140210 -4.107071
  8   1.168026 -0.537438 -0.063437 -0.420328 0.172745 -0.669358
  9   6.790376 -0.619176 0.015206 -0.000158 -0.000151 -1.110807
 10   8.637599 0.544015 -0.090417 -4.300299 0.240956 0.178642
 11   6.790465 -0.619039 0.017802 0.000768 -0.011623 -0.792770
 12   -2.022474 -0.104699 -2.873818 0.230754 1.300182 -2.971684
 13   1.167898 -0.537463 0.063297 0.671330 -0.773595 -1.268355
 14   7.002743 -0.617765 -0.183752 0.000286 0.000250 -1.945478
 15   8.209042 0.615527 -0.255885 1.829372 -0.237104 1.083427
 16   7.002735 -0.617911 -0.183641 0.012978 0.010920 -1.380527
 17   1.574674 0.609930 -0.000899 0.703522 -0.318808 0.051146
 18   -0.602177 0.511412 -0.000006 0.000000 0.000000 0.000000
 19   3.646428 0.364526 1.119313 -0.000002 -0.000014 -0.174510
 20   3.646422 0.364499 -1.117566 0.000007 -0.000003 -0.174546
 21   3.805634 1.330634 1.627658 0.000002 -0.000011 -0.000026
 22   -0.246060 -0.011889 0.516521 -0.000011 0.000031 0.000025
 23   3.805651 1.330659 -1.631083 0.000019 0.000002 -0.000024
 24   -0.246150 -0.011872 -0.516511 -0.000005 -0.000006 0.000048
 25   4.941364 1.997338 1.629330 0.000018 -0.000001 -0.000024
 26   4.941382 1.997366 -1.629410 -0.000001 0.000005 -0.000024
 27   2.930087 1.603639 1.514501 -0.000019 -0.000022 -0.000050
 28   2.932517 1.603245 -1.501142 -0.000002 -0.000009 -0.000024
 29   8.824059 0.150544 0.091743 0.044211 -0.015328 -0.043579
 30   2.146242 -0.557273 1.710099 -0.001161 0.083334 0.005599
 31   2.172073 -0.561289 -1.798910 0.000215 -0.110755 0.006203
 32   -0.814395 -0.093824 3.127092 0.338887 -3.077717 -0.186762
 33   14.298673 -0.408176 0.471578 0.019663 -0.099291 -0.524454
 34   15.835795 0.581398 0.242756 -0.532539 -0.064474 0.362915
 35   -0.815868 -0.091229 -3.114430 -0.002012 2.881638 -0.334369
 36   14.294526 -0.410349 -0.467541 -0.027664 0.091179 -0.604060
 37   15.834409 0.579420 -0.284600 -0.051545 0.043118 0.201427
 38   1.163123 -3.465468 -2.823813 0.004505 -0.003362 0.010326
 39   -4.469461 -0.910318 -0.714929 0.005789 0.012776 -0.051017
 40   1.094663 -3.438050 3.237290 -0.002147 -0.004060 0.016740
 41   -4.355712 -0.965377 0.990817 0.000622 0.001246 -0.005076
 42   -0.618404 1.693396 -2.536265 0.037548 0.058479 -0.005646
 43   -0.664068 1.679046 2.736560 -0.044042 -0.066310 0.011418
time 9
  0   0.001233 -0.019532 2.098091 0.000000 0.000000 -1.571829
  1   -1.093036 0.000002 -0.326057 -1.570756 -1.570425 -0.000123
  2   2.262337 0.113614 0.064702 -0.000052 0.000049 0.131363
  3   2.380047 0.353302 0.047440 -0.265008 0.053939 0.195281
  4   2.033756 0.190472 -0.000128 -0.261987 0.067090 0.243808
  5   2.451511 0.204909 -0.003447 -0.139297 0.006575 0.046819
  6   7.247600 -0.397300 -0.109469 0.000001 0.000033 0.052298
  7   -2.022252 -0.104661 3.136172 0.946316 -1.136231 -4.094017
  8   1.168026 -0.537438 -0.063437 -0.419821 0.159613 -0.671066
  9   6.790376 -0.619176 0.015206 -0.000158 -0.000151 -1.110807
 10   8.637599 0.544015 -0.090417 -4.300299 0.240956 0.178642
 11   6.790465 -0.619039 0.017802 0.000768 -0.011623 -0.792770
 12   -2.022474 -0.104699 -2.873818 0.224910 1.293013 -2.978194
 13   1.167898 -0.537463 0.063297 0.666620 -0.764136 -1.267568
 14   7.002743 -0.617765 -0.183752 0.000286 0.000250 -1.945478
 15   8.209042 0.615527 -0.255885 1.829156 -0.235137 1.083848
 16   7.002735 -0.617911 -0.183641 0.012978 0.010920 -1.380527
 17   1.574674 0.609930 -0.000899 0.703806 -0.318027 0.042349
 18   -0.602177 0.511412 -0.000006 0.000000 0.000000 0.000000
 19   3.646428 0.364526 1.119313 -0.000002 -0.000014 -0.174510
 20   3.646422 0.364499 -1.117566 0.000007 -0.000003 -0.174546
 21   3.805634 1.330634 1.627658 0.000002 -0.000011 -0.000026
 22   -0.246060 -0.011889 0.516521 -0.000011 0.000031 0.000025
 23   3.805651 1.330659 -1.631083 0.000019 0.000002 -0.000024
 24   -0.246150 -0.011872 -0.516511 -0.000005 -0.000006 0.000048
 25   4.941364 1.997338 1.629330 0.000018 -0.000001 -0.000024
 26   4.941382 1.997366 -1.629410 -0.000001 0.000005 -0.000024
 27   2.930087 1.603639 1.514501 -0.000019 -0.000022 -0.000050
 28   2.932517 1.603245 -1.501142 -0.000002 -0.000009 -0.000024
 29   8.824059 0.150544 0.091743 0.051965 -0.018628 -0.020242
 30   2.150149 -0.557273 1.694474 -0.001378 0.098329 0.006607
 31   2.183792 -0.557383 -1.791097 0.000260 -0.130517 0.007313
 32   -0.814395 -0.093824 3.127092 0.338887 -3.077717 -0.190405
 33   14.298673 -0.408176 0.471578 0.020885 -0.100712 -0.529774
 34   15.835795 0.581398 0.242756 -0.532539 -0.064474 0.362915
 35   -0.815868 -0.091229 -3.114430 -0.002012 2.881638 -0.337984
 36   14.294526 -0.410349 -0.467541 -0.028838 0.090376 -0.609622
 37   15.834409 0.579420 -0.284600 -0.051545 0.043118 0.201427
 38   1.167030 -3.465468 -2.823813 0.005325 -0.003965 0.012159
 39   -4.469461 -0.882974 -0.707116 0.006819 0.015065 -0.060132
 40   1.090756 -3.438050 3.237290 -0.002526 -0.004783 0.019734
 41   -4.343993 -0.949752 0.994723 0.000730 0.001462 -0.005974
 42   -0.610592 1.689489 -2.508921 0.044235 0.068921 -0.006650
 43   -0.660162 1.675140 2.709216 -0.051900 -0.078141 0.013467
time 10
  0   0.001233 -0.019532 2.066840 0.000000 0.000000 -1.571829
  1   -1.093036 0.000002 -0.326057 -1.570756 -1.570425 -0.000123
  2   2.262337 0.113614 0.064702 -0.000052 0.000049 0.131363
  3   2.380047 0.353302 0.047440 -0.264903 0.054430 0.197097
  4   2.033756 0.190472 -0.000128 -0.261987 0.067090 0.243808
  5   2.451511 0.204909 -0.003447 -0.139280 0.007398 0.052887
  6   7.247600 -0.397300 -0.109469 0.000001 0.000033 0.052298
  7   -2.022252 -0.104661 3.136172 0.935580 -1.132686 -4.082183
  8   1.168026 -0.537438 -0.063437 -0.419188 0.147789 -0.672711
  9   6.790376 -0.619176 0.015206 -0.000158 -0.000151 -1.110807
 10   8.637599 0.544015 -0.090417 -4.300299 0.240956 0.178642
 11   6.790465 -0.619039 0.017802 0.000768 -0.011623 -0.792770
 12   -2.022474 -0.104699 -2.873818 0.219737 1.286395 -2.983172
 13   1.167898 -0.537463 0.063297 0.662332 -0.755237 -1.266660
 14   7.002743 -0.617765 -0.183752 0.000286 0.000250 -1.945478
 15   8.209042 0.615527 -0.255885 1.828725 -0.233397 1.084329
 16   7.002735 -0.617911 -0.183641 0.012978 0.010920 -1.380527
 17   1.574674 0.609930 -0.000899 0.704009 -0.317317 0.034477
 18   -0.602177 0.511412 -0.000006 0.000000 0.000000 0.000000
 19   3.646428 0.364526 1.119313 -0.000002 -0.000014 -0.174510
 20   3.646422 0.364499 -1.117566 0.000007 -0.000003 -0.174546
 21   3.805634 1.330634 1.627658 0.000002 -0.000011 -0.000026
 22   -0.246060 -0.011889 0.516521 -0.000011 0.000031 0.000025
 23   3.805651 1.330659 -1.631083 0.000019 0.000002 -0.000024
 24   -0.246150 -0.011872 -0.516511 -0.000005 -0.000006 0.000048
 25   4.941364 1.997338 1.629330 0.000018 -0.000001 -0.000024
 26   4.941382 1.997366 -1.629410 -0.000001 0.000005 -0.000024
 27   2.930087 1.603639 1.514501 -0.000019 -0.000022 -0.000050
 28   2.932517 1.603245 -1.501142 -0.000002 -0.000009 -0.000024
 29   8.824059 0.150544 0.091743 0.059095 -0.021928 0.001754
 30   2.157961 -0.553366 1.682754 -0.001567 0.112511 0.007529
 31   2.191605 -0.557383 -1.779378 0.000291 -0.149192 0.008350
 32   -0.814395 -0.093824 3.127092 0.338887 -3.077717 -0.193763
 33   14.298673 -0.408176 0.471578 0.022036 -0.102031 -0.534776
 34   15.835795 0.581398 0.242756 -0.532539 -0.064474 0.362915
 35   -0.815868 -0.091229 -3.114430 -0.002012 2.881638 -0.341435
 36   14.294526 -0.410349 -0.467541 -0.029941 0.089633 -0.614566
 37   15.834409 0.579420 -0.284600 -0.051545 0.043118 0.201427
 38   1.170936 -3.469374 -2.823813 0.006083 -0.004531 0.013931
 39   -4.473368 -0.855629 -0.703210 0.007790 0.017222 -0.068742
 40   1.086850 -3.434144 3.237290 -0.002884 -0.005470 0.022544
 41   -4.328368 -0.934126 1.002536 0.000838 0.001678 -0.006843
 42   -0.602779 1.689489 -2.481576 0.050575 0.078779 -0.007612
 43   -0.660162 1.675140 2.685778 -0.059334 -0.089329 0.015391
time 11
  0   0.001233 -0.019532 2.035589 0.000000 0.000000 -1.571829
  1   -1.093036 0.000002 -0.326057 -1.570756 -1.570425 -0.000123
  2   2.262337 0.113614 0.064702 -0.000052 0.000049 0.131363
  3   2.380047 0.353302 0.047440 -0.264813 0.054754 0.198648
  4   2.033756 0.190472 -0.000128 -0.261987 0.067090 0.243808
  5   2.451511 0.204909 -0.003447 -0.139246 0.008155 0.058261
  6   7.247600 -0.397300 -0.109469 0.000001 0.000033 0.052298
  7   -2.022252 -0.104661 3.136172 0.926569 -1.129428 -4.071477
  8   1.168026 -0.537438 -0.063437 -0.418746 0.137374 -0.674419
  9   6.790376 -0.619176 0.015206 -0.000158 -0.000151 -1.110807
 10   8.637599 0.544015 -0.090417 -4.300299 0.240956 0.178642
 11   6.790465 -0.619039 0.017802 0.000768 -0.011623 -0.792770
 12   -2.022474 -0.104699 -2.873818 0.215234 1.280445 -2.987864
 13   1.167898 -0.537463 0.063297 0.658606 -0.747557 -1.266236
 14   7.002743 -0.617765 -0.183752 0.000286 0.000250 -1.945478
 15   8.209042 0.615527 -0.255885 1.828653 -0.231657 1.084690
 16   7.002735 -0.617911 -0.183641 0.012978 0.010920 -1.380527
 17   1.574674 0.609930 -0.000899 0.704253 -0.316607 0.027491
 18   -0.602177 0.511412 -0.000006 0.000000 0.000000 0.000000
 19   3.646428 0.364526 1.119313 -0.000002 -0.000014 -0.174510
 20   3.646422 0.364499 -1.117566 0.000007 -0.000003 -0.174546
 21   3.805634 1.330634 1.627658 0.000002 -0.000011 -0.000026
 22   -0.246060 -0.011889 0.516521 -0.000011 0.000031 0.000025
 23   3.805651 1.330659 -1.631083 0.000019 0.000002 -0.000024
 24   -0.246150 -0.011872 -0.516511 -0.000005 -0.000006 0.000048
 25   4.941364 1.997338 1.629330 0.000018 -0.000001 -0.000024
 26   4.941382 1.997366 -1.629410 -0.000001 0.000005 -0.000024
 27   2.930087 1.603639 1.514501 -0.000019 -0.000022 -0.000050
 28   2.932517 1.603245 -1.501142 -0.000002 -0.000009 -0.000024
 29   8.824059 0.150544 0.091743 0.065601 -0.025013 0.021603
 30   2.161868 -0.553366 1.671035 -0.001744 0.125327 0.008387
 31   2.199417 -0.557383 -1.771565 0.000337 -0.166080 0.009296
 32   -0.814395 -0.093824 3.127092 0.338887 -3.077717 -0.196723
 33   14.298673 -0.408176 0.471578 0.023018 -0.103181 -0.538984
 34   15.835795 0.581398 0.242756 -0.532539 -0.064474 0.362915
 35   -0.815868 -0.091229 -3.114430 -0.002012 2.881638 -0.344393
 36   14.294526 -0.410349 -0.467541 -0.030876 0.088985 -0.618891
 37   15.834409 0.579420 -0.284600 -0.051545 0.043118 0.201427
 38   1.178749 -3.469374 -2.823813 0.006778 -0.005049 0.015519
 39   -4.473368 -0.836097 -0.695397 0.008677 0.019163 -0.076511
 40   1.079037 -3.434144 3.237290 -0.003221 -0.006097 0.025110
 41   -4.316648 -0.918501 1.006442 0.000934 0.001870 -0.007629
 42   -0.594966 1.689489 -2.458138 0.056304 0.087703 -0.008490
 43   -0.660162 1.671233 2.666246 -0.066044 -0.099435 0.017147
time 12
  0   0.001233 -0.019532 2.012151 0.000000 0.000000 -1.571829
  1   -1.093036 0.000002 -0.326057 -1.570756 -1.570425 -0.000123
  2   2.262337 0.113614 0.064702 -0.000052 0.000049 0.131363
  3   2.380047 0.353302 0.047440 -0.264738 0.055197 0.199954
  4   2.033756 0.190472 -0.000128 -0.261987 0.067090 0.243808
  5   2.451511 0.204909 -0.003447 -0.139143 0.008912 0.062595
  6   7.247600 -0.397300 -0.109469 0.000001 0.000033 0.052298
  7   -2.022252 -0.104661 3.136172 0.918805 -1.126661 -4.063776
  8   1.168026 -0.537438 -0.063437 -0.418303 0.129022 -0.675431
  9   6.790376 -0.619176 0.015206 -0.000158 -0.000151 -1.110807
 10   8.637599 0.544015 -0.090417 -4.300299 0.240956 0.178642
 11   6.790465 -0.619039 0.017802 0.000768 -0.011623 -0.792770
 12   -2.022474 -0.104699 -2.873818 0.211785 1.275860 -2.991502
 13   1.167898 -0.537463 0.063297 0.655513 -0.741150 -1.265752
 14   7.002743 -0.617765 -0.183752 0.000286 0.000250 -1.945478
 15   8.209042 0.615527 -0.255885 1.828509 -0.230371 1.084990
 16   7.002735 -0.617911 -0.183641 0.012978 0.010920 -1.380527
 17   1.574674 0.609930 -0.000899 0.704416 -0.316181 0.021651
 18   -0.602177 0.511412 -0.000006 0.000000 0.000000 0.000000
 19   3.646428 0.364526 1.119313 -0.000002 -0.000014 -0.174510
 20   3.646422 0.364499 -1.117566 0.000007 -0.000003 -0.174546
 21   3.805634 1.330634 1.627658 0.000002 -0.000011 -0.000026
 22   -0.246060 -0.011889 0.516521 -0.000011 0.000031 0.000025
 23   3.805651 1.330659 -1.631083 0.000019 0.000002 -0.000024
 24   -0.246150 -0.011872 -0.516511 -0.000005 -0.000006 0.000048
 25   4.941364 1.997338 1.629330 0.000018 -0.000001 -0.000024
 26   4.941382 1.997366 -1.629410 -0.000001 0.000005 -0.000024
 27   2.930087 1.603639 1.514501 -0.000019 -0.000022 -0.000050
 28   2.932517 1.603245 -1.501142 -0.000002 -0.000009 -0.000024
 29   8.824059 0.150544 0.091743 0.070948 -0.027767 0.038503
 30   2.165774 -0.553366 1.659316 -0.001893 0.136225 0.009116
 31   2.207230 -0.557383 -1.763752 0.000352 -0.180455 0.010096
 32   -0.814395 -0.093824 3.127092 0.338887 -3.077717 -0.199114
 33   14.298673 -0.408176 0.471578 0.023809 -0.104086 -0.542398
 34   15.835795 0.581398 0.242756 -0.532539 -0.064474 0.362915
 35   -0.815868 -0.091229 -3.114430 -0.002012 2.881638 -0.346804
 36   14.294526 -0.410349 -0.467541 -0.031655 0.088470 -0.622444
 37   15.834409 0.579420 -0.284600 -0.051545 0.043118 0.201427
 38   1.178749 -3.469374 -2.823813 0.007367 -0.005483 0.016863
 39   -4.473368 -0.816566 -0.691491 0.009432 0.020829 -0.083158
 40   1.079037 -3.434144 3.237290 -0.003494 -0.006627 0.027309
 41   -4.308836 -0.906782 1.010349 0.001018 0.002025 -0.008274
 42   -0.591060 1.689489 -2.438606 0.061169 0.095292 -0.009201
 43   -0.660162 1.667327 2.650620 -0.071766 -0.108049 0.018611
time 13
  0   0.001233 -0.019532 2.000432 0.000000 0.000000 -1.571829
  1   -1.093036 0.000002 -0.326057 -1.570756 -1.570425 -0.000123
  2   2.262337 0.113614 0.064702 -0.000052 0.000049 0.131363
  3   2.380047 0.353302 0.047440 -0.264693 0.055461 0.200913
  4   2.033756 0.190472 -0.000128 -0.261987 0.067090 0.243808
  5   2.451511 0.204909 -0.003447 -0.139143 0.009369 0.065963
  6   7.247600 -0.397300 -0.109469 0.000001 0.000033 0.052298
  7   -2.022252 -0.104661 3.136172 0.913245 -1.124614 -4.057390
  8   1.168026 -0.537438 -0.063437 -0.417986 0.122481 -0.676443
  9   6.790376 -0.619176 0.015206 -0.000158 -0.000151 -1.110807
 10   8.637599 0.544015 -0.090417 -4.300299 0.240956 0.178642
 11   6.790465 -0.619039 0.017802 0.000768 -0.011623 -0.792770
 12   -2.022474 -0.104699 -2.873818 0.209294 1.272203 -2.994183
 13   1.167898 -0.537463 0.063297 0.652983 -0.736471 -1.265752
 14   7.002743 -0.617765 -0.183752 0.000286 0.000250 -1.945478
 15   8.209042 0.615527 -0.255885 1.828150 -0.229463 1.085291
 16   7.002735 -0.617911 -0.183641 0.012978 0.010920 -1.380527
 17   1.574674 0.609930 -0.000899 0.704537 -0.315826 0.017216
 18   -0.602177 0.511412 -0.000006 0.000000 0.000000 0.000000
 19   3.646428 0.364526 1.119313 -0.000002 -0.000014 -0.174510
 20   3.646422 0.364499 -1.117566 0.000007 -0.000003 -0.174546
 21   3.805634 1.330634 1.627658 0.000002 -0.000011 -0.000026
 22   -0.246060 -0.011889 0.516521 -0.000011 0.000031 0.000025
 23   3.805651 1.330659 -1.631083 0.000019 0.000002 -0.000024
 24   -0.246150 -0.011872 -0.516511 -0.000005 -0.000006 0.000048
 25   4.941364 1.997338 1.629330 0.000018 -0.000001 -0.000024
 26   4.941382 1.997366 -1.629410 -0.000001 0.000005 -0.000024
 27   2.930087 1.603639 1.514501 -0.000019 -0.000022 -0.000050
 28   2.932517 1.603245 -1.501142 -0.000002 -0.000009 -0.000024
 29   8.824059 0.150544 0.091743 0.075137 -0.029951 0.051593
 30   2.169681 -0.553366 1.651503 -0.002015 0.144681 0.009673
 31   2.215043 -0.557383 -1.759846 0.000383 -0.191619 0.010733
 32   -0.814395 -0.093824 3.127092 0.338887 -3.077717 -0.200822
 33   14.298673 -0.408176 0.471578 0.024373 -0.104745 -0.544939
 34   15.835795 0.581398 0.242756 -0.532539 -0.064474 0.362915
 35   -0.815868 -0.091229 -3.114430 -0.002012 2.881638 -0.348447
 36   14.294526 -0.410349 -0.467541 -0.032206 0.088099 -0.624994
 37   15.834409 0.579420 -0.284600 -0.051545 0.043118 0.201427
 38   1.182655 -3.473281 -2.823813 0.007809 -0.005820 0.017902
 39   -4.477274 -0.800940 -0.687584 0.010007 0.022112 -0.088291
 40   1.075131 -3.430237 3.237290 -0.003726 -0.007037 0.028959
 41   -4.301023 -0.898969 1.014255 0.001078 0.002157 -0.008779
 42   -0.587153 1.685583 -2.422981 0.064956 0.101195 -0.009786
 43   -0.660162 1.667327 2.634995 -0.076214 -0.114734 0.019782
time 14
  0   0.001233 -0.019532 1.988713 0.000000 0.000000 -1.571829
  1   -1.093036 0.000002 -0.326057 -1.570756 -1.570425 -0.000123
  2   2.262337 0.113614 0.064702 -0.000052 0.000049 0.131363
  3   2.380047 0.353302 0.047440 -0.264648 0.055533 0.201566
  4   2.033756 0.190472 -0.000128 -0.261987 0.067090 0.243808
  5   2.451511 0.204909 -0.003447 -0.139143 0.009669 0.068068
  6   7.247600 -0.397300 -0.109469 0.000001 0.000033 0.052298
  7   -2.022252 -0.104661 3.136172 0.909411 -1.123403 -4.053445
  8   1.168026 -0.537438 -0.063437 -0.417860 0.118305 -0.676886
  9   6.790376 -0.619176 0.015206 -0.000158 -0.000151 -1.110807
 10   8.637599 0.544015 -0.090417 -4.300299 0.240956 0.178642
 11   6.790465 -0.619039 0.017802 0.000768 -0.011623 -0.792770
 12   -2.022474 -0.104699 -2.873818 0.207856 1.269736 -2.995714
 13   1.167898 -0.537463 0.063297 0.651788 -0.733369 -1.265449
 14   7.002743 -0.617765 -0.183752 0.000286 0.000250 -1.945478
 15   8.209042 0.615527 -0.255885 1.828006 -0.228857 1.085291
 16   7.002735 -0.617911 -0.183641 0.012978 0.010920 -1.380527
 17   1.574674 0.609930 -0.000899 0.704537 -0.315542 0.014407
 18   -0.602177 0.511412 -0.000006 0.000000 0.000000 0.000000
 19   3.658147 0.270773 1.119313 -0.000002 -0.000014 -0.174510
 20   3.658141 0.270746 -1.117566 0.000007 -0.000003 -0.174546
 21   3.352495 1.260319 1.572969 0.000002 -0.000011 -0.000026
 22   -0.238247 -0.382994 0.496989 0.000099 -0.028720 0.445010
 23   3.360325 1.256438 -1.623270 0.000019 0.000002 -0.000024
 24   -0.160210 -0.285318 -0.532136 0.000091 -0.028745 0.445076
 25   4.531195 1.993432 1.637143 -0.032209 0.220350 0.007203
 26   4.531213 1.993460 -1.621597 0.035761 -0.204352 -0.020865
 27   3.117593 1.463010 1.502782 -0.000019 -0.000022 -0.000050
 28   3.120023 1.462616 -1.512861 -0.000002 -0.000009 -0.000024
 29   8.824059 0.150544 0.091743 0.077811 -0.031399 0.060069
 30   2.173587 -0.553366 1.647597 -0.002096 0.150174 0.010038
 31   2.218949 -0.557383 -1.755940 0.000398 -0.198845 0.011134
 32   -0.814395 -0.093824 3.127092 0.338887 -3.077717 -0.201903
 33   14.298673 -0.408176 0.471578 0.024708 -0.105146 -0.546527
 34   15.835795 0.581398 0.242756 -0.532539 -0.064474 0.362915
 35   -0.815868 -0.091229 -3.114430 -0.002012 2.881638 -0.349488
 36   14.294526 -0.410349 -0.467541 -0.032530 0.087883 -0.626538
 37   15.834409 0.579420 -0.284600 -0.051545 0.043118 0.201427
 38   1.182655 -3.473281 -2.823813 0.008104 -0.006049 0.018574
 39   -4.477274 -0.789221 -0.687584 0.010391 0.022950 -0.091628
 40   1.075131 -3.430237 3.237290 -0.003852 -0.007302 0.030059
 41   -4.293211 -0.891156 1.018162 0.001126 0.002241 -0.009115
 42   -0.583247 1.685583 -2.415168 0.067401 0.104998 -0.010163
 43   -0.660162 1.663421 2.627182 -0.079075 -0.119049 0.020535
time 15
  0   0.001233 -0.019532 1.988713 0.000000 0.000000 -1.571829
  1   -1.093036 0.000002 -0.326057 -1.570756 -1.570425 -0.000123
  2   2.262337 0.113614 0.064702 -0.000052 0.000049 0.131363
  3   2.380047 0.353302 0.047440 -0.264633 0.055556 0.201770
  4   2.033756 0.190472 -0.000128 -0.261987 0.067090 0.243808
  5   2.451511 0.204909 -0.003447 -0.139143 0.009695 0.068885
  6   7.247600 -0.397300 -0.109469 0.000001 0.000033 0.052298
  7   -2.022252 -0.104661 3.136172 0.908548 -1.122884 -4.051942
  8   1.168026 -0.537438 -0.063437 -0.417860 0.116896 -0.677329
  9   6.790376 -0.619176 0.015206 -0.000158 -0.000151 -1.110807
 10   8.637599 0.544015 -0.090417 -4.300299 0.240956 0.178642
 11   6.790465 -0.619039 0.017802 0.000768 -0.011623 -0.792770
 12   -2.022474 -0.104699 -2.873818 0.207282 1.268952 -2.996480
 13   1.167898 -0.537463 0.063297 0.651085 -0.732352 -1.265449
 14   7.002743 -0.617765 -0.183752 0.000286 0.000250 -1.945478
 15   8.209042 0.615527 -0.255885 1.828006 -0.228479 1.085291
 16   7.002735 -0.617911 -0.183641 0.012978 0.010920 -1.380527
 17   1.574674 0.609930 -0.000899 0.704537 -0.315471 0.013557
 18   -0.602177 0.511412 -0.000006 0.000000 0.000000 0.000000
 19   3.673773 0.177020 1.119313 -0.000002 -0.000014 -0.174510
 20   3.673767 0.176993 -1.117566 0.000007 -0.000003 -0.174546
 21   2.899356 1.190005 1.518280 0.000002 -0.000011 -0.000026
 22   -0.226528 -0.758005 0.473551 0.000194 -0.057471 0.890061
 23   2.914999 1.182217 -1.611551 0.000019 0.000002 -0.000024
 24   -0.074270 -0.562670 -0.551668 0.000187 -0.057496 0.890104
 25   4.117120 1.989525 1.648862 -0.064423 0.440701 0.014429
 26   4.117138 1.989553 -1.609878 0.071535 -0.408734 -0.041706
 27   3.305099 1.322380 1.487156 -0.000019 -0.000022 -0.000050
 28   3.307528 1.321986 -1.528487 -0.000002 -0.000009 -0.000024
 29   8.824059 0.150544 0.091743 0.078791 -0.031921 0.063073
 30   2.173587 -0.553366 1.643691 -0.002123 0.152121 0.010167
 31   2.218949 -0.557383 -1.752033 0.000398 -0.201410 0.011279
 32   -0.814395 -0.093824 3.127092 0.338887 -3.077717 -0.202188
 33   14.298673 -0.408176 0.471578 0.024828 -0.105262 -0.546924
 34   15.835795 0.581398 0.242756 -0.532539 -0.064474 0.362915
 35   -0.815868 -0.091229 -3.114430 -0.002012 2.881638 -0.349871
 36   14.294526 -0.410349 -0.467541 -0.032637 0.087811 -0.627079
 37   15.834409 0.579420 -0.284600 -0.051545 0.043118 0.201427
 38   1.186561 -3.473281 -2.823813 0.008209 -0.006122 0.018818
 39   -4.477274 -0.789221 -0.683678 0.010522 0.023250 -0.092806
 40   1.071225 -3.430237 3.237290 -0.003915 -0.007386 0.030425
 41   -4.293211 -0.891156 1.018162 0.001138 0.002265 -0.009227
 42   -0.583247 1.685583 -2.411262 0.068276 0.106362 -0.010288
 43   -0.660162 1.663421 2.623276 -0.080100 -0.120587 0.020786
time 16
  0   0.001233 -0.019532 1.988713 0.000000 0.000000 -1.571829
  1   -1.093036 0.000002 -0.326057 -1.570756 -1.570425 -0.000123
  2   2.262337 0.113614 0.064702 -0.000052 0.000049 0.131363
  3   2.380047 0.353302 0.047440 -0.264648 0.055533 0.201566
  4   2.033756 0.190472 -0.000128 -0.261987 0.067090 0.243808
  5   2.451511 0.204909 -0.003447 -0.139143 0.009669 0.068068
  6   7.247600 -0.397300 -0.109469 0.000001 0.000033 0.052298
  7   -2.022252 -0.104661 3.136172 0.909411 -1.123403 -4.053445
  8   1.168026 -0.537438 -0.063437 -0.417860 0.118305 -0.676886
  9   6.790376 -0.619176 0.015206 -0.000158 -0.000151 -1.110807
 10   8.637599 0.544015 -0.090417 -4.300299 0.240956 0.178642
 11   6.790465 -0.619039 0.017802 0.000768 -0.011623 -0.792770
 12   -2.022474 -0.104699 -2.873818 0.207856 1.269736 -2.995714
 13   1.167898 -0.537463 0.063297 0.651788 -0.733369 -1.265449
 14   7.002743 -0.617765 -0.183752 0.000286 0.000250 -1.945478
 15   8.209042 0.615527 -0.255885 1.828006 -0.228857 1.085291
 16   7.002735 -0.617911 -0.183641 0.012978 0.010920 -1.380527
 17   1.574674 0.609930 -0.000899 0.704537 -0.315542 0.014407
 18   -0.602177 0.511412 -0.000006 0.000000 0.000000 0.000000
 19   3.658147 0.270773 1.119313 -0.000002 -0.000014 -0.174510
 20   3.658141 0.270746 -1.117566 0.000007 -0.000003 -0.174546
 21   3.352495 1.260319 1.572969 0.000002 -0.000011 -0.000026
 22   -0.238247 -0.382994 0.496989 0.000099 -0.028720 0.445010
 23   3.360325 1.256438 -1.623270 0.000019 0.000002 -0.000024
 24   -0.160210 -0.285318 -0.532136 0.000091 -0.028745 0.445076
 25   4.531195 1.993432 1.637143 -0.032209 0.220350 0.007203
 26   4.531213 1.993460 -1.621597 0.035761 -0.204352 -0.020865
 27   3.117593 1.463010 1.502782 -0.000019 -0.000022 -0.000050
 28   3.120023 1.462616 -1.512861 -0.000002 -0.000009 -0.000024
 29   8.824059 0.150544 0.091743 0.077811 -0.031399 0.060069
 30   2.173587 -0.553366 1.647597 -0.002096 0.150174 0.010038
 31   2.218949 -0.557383 -1.755940 0.000398 -0.198845 0.011134
 32   -0.814395 -0.093824 3.127092 0.338887 -3.077717 -0.201903
 33   14.298673 -0.408176 0.471578 0.024708 -0.105146 -0.546527
 34   15.835795 0.581398 0.242756 -0.532539 -0.064474 0.362915
 35   -0.815868 -0.091229 -3.114430 -0.002012 2.881638 -0.349488
 36   14.294526 -0.410349 -0.467541 -0.032530 0.087883 -0.626538
 37   15.834409 0.579420 -0.284600 -0.051545 0.043118 0.201427
 38   1.182655 -3.473281 -2.823813 0.008104 -0.006049 0.018574
 39   -4.477274 -0.789221 -0.687584 0.010391 0.022950 -0.091628
 40   1.075131 -3.430237 3.237290 -0.003852 -0.007302 0.030059
 41   -4.293211 -0.891156 1.018162 0.001126 0.002241 -0.009115
 42   -0.583247 1.685583 -2.415168 0.067401 0.104998 -0.010163
 43   -0.660162 1.663421 2.627182 -0.079075 -0.119049 0.020535
time 17
  0   0.001233 -0.019532 2.000432 0.000000 0.000000 -1.571829
  1   -1.093036 0.000002 -0.326057 -1.570756 -1.570425 -0.000123
  2   2.262337 0.113614 0.064702 -0.000052 0.000049 0.131363
  3   2.380047 0.353302 0.047440 -0.264693 0.055461 0.200913
  4   2.033756 0.190472 -0.000128 -0.261987 0.067090 0.243808
  5   2.451511 0.204909 -0.003447 -0.139143 0.009369 0.065963
  6   7.247600 -0.397300 -0.109469 0.000001 0.000033 0.052298
  7   -2.022252 -0.104661 3.136172 0.913245 -1.124614 -4.057390
  8   1.168026 -0.537438 -0.063437 -0.417986 0.122481 -0.676443
  9   6.790376 -0.619176 0.015206 -0.000158 -0.000151 -1.110807
 10   8.637599 0.544015 -0.090417 -4.300299 0.240956 0.178642
 11   6.790465 -0.619039 0.017802 0.000768 -0.011623 -0.792770
 12   -2.022474 -0.104699 -2.873818 0.209294 1.272203 -2.994183
 13   1.167898 -0.537463 0.063297 0.652983 -0.736471 -1.265752
 14   7.002743 -0.617765 -0.183752 0.000286 0.000250 -1.945478
 15   8.209042 0.615527 -0.255885 1.828150 -0.229463 1.085291
 16   7.002735 -0.617911 -0.183641 0.012978 0.010920 -1.380527
 17   1.574674 0.609930 -0.000899 0.704537 -0.315826 0.017216
 18   -0.602177 0.511412 -0.000006 0.000000 0.000000 0.000000
 19   3.646428 0.364526 1.119313 -0.000002 -0.000014 -0.174510
 20   3.646422 0.364499 -1.117566 0.000007 -0.000003 -0.174546
 21   3.805634 1.330634 1.627658 0.000002 -0.000011 -0.000026
 22   -0.246060 -0.011889 0.516521 -0.000011 0.000031 0.000025
 23   3.805651 1.330659 -1.631083 0.000019 0.000002 -0.000024
 24   -0.246150 -0.011872 -0.516511 -0.000005 -0.000006 0.000048
 25   4.941364 1.997338 1.629330 0.000018 -0.000001 -0.000024
 26   4.941382 1.997366 -1.629410 -0.000001 0.000005 -0.000024
 27   2.930087 1.603639 1.514501 -0.000019 -0.000022 -0.000050
 28   2.932517 1.603245 -1.501142 -0.000002 -0.000009 -0.000024
 29   8.824059 0.150544 0.091743 0.075137 -0.029951 0.051593
 30   2.169681 -0.553366 1.651503 -0.002015 0.144681 0.009673
 31   2.215043 -0.557383 -1.759846 0.000383 -0.191619 0.010733
 32   -0.814395 -0.093824 3.127092 0.338887 -3.077717 -0.200822
 33   14.298673 -0.408176 0.471578 0.024373 -0.104745 -0.544939
 34   15.835795 0.581398 0.242756 -0.532539 -0.064474 0.362915
 35   -0.815868 -0.091229 -3.114430 -0.002012 2.881638 -0.348447
 36   14.294526 -0.410349 -0.467541 -0.032206 0.088099 -0.624994
 37   15.834409 0.579420 -0.284600 -0.051545 0.043118 0.201427
 38   1.182655 -3.473281 -2.823813 0.007809 -0.005820 0.017902
 39   -4.477274 -0.800940 -0.687584 0.010007 0.022112 -0.088291
 40   1.075131 -3.430237 3.237290 -0.003726 -0.007037 0.028959
 41   -4.301023 -0.898969 1.014255 0.001078 0.002157 -0.008779
 42   -0.587153 1.685583 -2.422981 0.064956 0.101195 -0.009786
 43   -0.660162 1.667327 2.634995 -0.076214 -0.114734 0.019782
time 18
  0   0.001233 -0.019532 2.012151 0.000000 0.000000 -1.571829
  1   -1.093036 0.000002 -0.326057 -1.570756 -1.570425 -0.000123
  2   2.262337 0.113614 0.064702 -0.000052 0.000049 0.131363
  3   2.380047 0.353302 0.047440 -0.264738 0.055197 0.199954
  4   2.033756 0.190472 -0.000128 -0.261987 0.067090 0.243808
  5   2.451511 0.204909 -0.003447 -0.139143 0.008912 0.062595
  6   7.247600 -0.397300 -0.109469 0.000001 0.000033 0.052298
  7   -2.022252 -0.104661 3.136172 0.918805 -1.126661 -4.063776
  8   1.168026 -0.537438 -0.063437 -0.418303 0.129022 -0.675431
  9   6.790376 -0.619176 0.015206 -0.000158 -0.000151 -1.110807
 10   8.637599 0.544015 -0.090417 -4.300299 0.240956 0.178642
 11   6.790465 -0.619039 0.017802 0.000768 -0.011623 -0.792770
 12   -2.022474 -0.104699 -2.873818 0.211785 1.275860 -2.991502
 13   1.167898 -0.537463 0.063297 0.655513 -0.741150 -1.265752
 14   7.002743 -0.617765 -0.183752 0.000286 0.000250 -1.945478
 15   8.209042 0.615527 -0.255885 1.828509 -0.230371 1.084990
 16   7.002735 -0.617911 -0.183641 0.012978 0.010920 -1.380527
 17   1.574674 0.609930 -0.000899 0.704416 -0.316181 0.021651
 18   -0.602177 0.511412 -0.000006 0.000000 0.000000 0.000000
 19   3.646428 0.364526 1.119313 -0.000002 -0.000014 -0.174510
 20   3.646422 0.364499 -1.117566 0.000007 -0.000003 -0.174546
 21   3.805634 1.330634 1.627658 0.000002 -0.000011 -0.000026
 22   -0.246060 -0.011889 0.516521 -0.000011 0.000031 0.000025
 23   3.805651 1.330659 -1.631083 0.000019 0.000002 -0.000024
 24   -0.246150 -0.011872 -0.516511 -0.000005 -0.000006 0.000048
 25   4.941364 1.997338 1.629330 0.000018 -0.000001 -0.000024
 26   4.941382 1.997366 -1.629410 -0.000001 0.000005 -0.000024
 27   2.930087 1.603639 1.514501 -0.000019 -0.000022 -0.000050
 28   2.932517 1.603245 -1.501142 -0.000002 -0.000009 -0.000024
 29   8.824059 0.150544 0.091743 0.070948 -0.027767 0.038503
 30   2.165774 -0.553366 1.659316 -0.001893 0.136225 0.009116
 31   2.207230 -0.557383 -1.763752 0.000352 -0.180455 0.010096
 32   -0.814395 -0.093824 3.127092 0.338887 -3.077717 -0.199114
 33   14.298673 -0.408176 0.471578 0.023809 -0.104086 -0.542398
 34   15.835795 0.581398 0.242756 -0.532539 -0.064474 0.362915
 35   -0.815868 -0.091229 -3.114430 -0.002012 2.881638 -0.346804
 36   14.294526 -0.410349 -0.467541 -0.031655 0.088470 -0.622444
 37   15.834409 0.579420 -0.284600 -0.051545 0.043118 0.201427
 38   1.178749 -3.469374 -2.823813 0.007367 -0.005483 0.016863
 39   -4.473368 -0.816566 -0.691491 0.009432 0.020829 -0.083158
 40   1.079037 -3.434144 3.237290 -0.003494 -0.006627 0.027309
 41   -4.308836 -0.906782 1.010349 0.001018 0.002025 -0.008274
 42   -0.591060 1.689489 -2.438606 0.061169 0.095292 -0.009201
 43   -0.660162 1.667327 2.650620 -0.071766 -0.108049 0.018611
time 19
  0   0.001233 -0.019532 2.035589 0.000000 0.000000 -1.571829
  1   -1.093036 0.000002 -0.326057 -1.570756 -1.570425 -0.000123
  2   2.262337 0.113614 0.064702 -0.000052 0.000049 0.131363
  3   2.380047 0.353302 0.047440 -0.264813 0.054754 0.198648
  4   2.033756 0.190472 -0.000128 -0.261987 0.067090 0.243808
  5   2.451511 0.204909 -0.003447 -0.139246 0.008155 0.058261
  6   7.247600 -0.397300 -0.109469 0.000001 0.000033 0.052298
  7   -2.022252 -0.104661 3.136172 0.926569 -1.129428 -4.071477
  8   1.168026 -0.537438 -0.063437 -0.418746 0.137374 -0.674419
  9   6.790376 -0.619176 0.015206 -0.000158 -0.000151 -1.110807
 10   8.637599 0.544015 -0.090417 -4.300299 0.240956 0.178642
 11   6.790465 -0.619039 0.017802 0.000768 -0.011623 -0.792770
 12   -2.022474 -0.104699 -2.873818 0.215234 1.280445 -2.987864
 13   1.167898 -0.537463 0.063297 0.658606 -0.747557 -1.266236
 14   7.002743 -0.617765 -0.183752 0.000286 0.000250 -1.945478
 15   8.209042 0.615527 -0.255885 1.828653 -0.231657 1.084690
 16   7.002735 -0.617911 -0.183641 0.012978 0.010920 -1.380527
 17   1.574674 0.609930 -0.000899 0.704253 -0.316607 0.027491
 18   -0.602177 0.511412 -0.000006 0.000000 0.000000 0.000000
 19   3.646428 0.364526 1.119313 -0.000002 -0.000014 -0.174510
 20   3.646422 0.364499 -1.117566 0.000007 -0.000003 -0.174546
 21   3.805634 1.330634 1.627658 0.000002 -0.000011 -0.000026
 22   -0.246060 -0.011889 0.516521 -0.000011 0.000031 0.000025
 23   3.805651 1.330659 -1.631083 0.000019 0.000002 -0.000024
 24   -0.246150 -0.011872 -0.516511 -0.000005 -0.000006 0.000048
 25   4.941364 1.997338 1.629330 0.000018 -0.000001 -0.000024
 26   4.941382 1.997366 -1.629410 -0.000001 0.000005 -0.000024
 27   2.930087 1.603639 1.514501 -0.000019 -0.000022 -0.000050
 28   2.932517 1.603245 -1.501142 -0.000002 -0.000009 -0.000024
 29   8.824059 0.150544 0.091743 0.065601 -0.025013 0.021603
 30   2.161868 -0.553366 1.671035 -0.001744 0.125327 0.008387
 31   2.199417 -0.557383 -1.771565 0.000337 -0.166080 0.009296
 32   -0.814395 -0.093824 3.127092 0.338887 -3.077717 -0.196723
 33   14.298673 -0.408176 0.471578 0.023018 -0.103181 -0.538984
 34   15.835795 0.581398 0.242756 -0.532539 -0.064474 0.362915
 35   -0.815868 -0.091229 -3.114430 -0.002012 2.881638 -0.344393
 36   14.294526 -0.410349 -0.467541 -0.030876 0.088985 -0.618891
 37   15.834409 0.579420 -0.284600 -0.051545 0.043118 0.201427
 38   1.178749 -3.469374 -2.823813 0.006778 -0.005049 0.015519
 39   -4.473368 -0.836097 -0.695397 0.008677 0.019163 -0.076511
 40   1.079037 -3.434144 3.237290 -0.003221 -0.006097 0.025110
 41   -4.316648 -0.918501 1.006442 0.000934 0.001870 -0.007629
 42   -0.594966 1.689489 -2.458138 0.056304 0.087703 -0.008490
 43   -0.660162 1.671233 2.666246 -0.066044 -0.099435 0.017147
time 20
  0   0.001233 -0.019532 2.066840 0.000000 0.000000 -1.571829
  1   -1.093036 0.000002 -0.326057 -1.570756 -1.570425 -0.000123
  2   2.262337 0.113614 0.064702 -0.000052 0.000049 0.131363
  3   2.380047 0.353302 0.047440 -0.264903 0.054430 0.197097
  4   2.033756 0.190472 -0.000128 -0.261987 0.067090 0.243808
  5   2.451511 0.204909 -0.003447 -0.139280 0.007398 0.052887
  6   7.247600 -0.397300 -0.109469 0.000001 0.000033 0.052298
  7   -2.022252 -0.104661 3.136172 0.935580 -1.132686 -4.082183
  8   1.168026 -0.537438 -0.063437 -0.419188 0.147789 -0.672711
  9   6.790376 -0.619176 0.015206 -0.000158 -0.000151 -1.110807
 10   8.637599 0.544015 -0.090417 -4.300299 0.240956 0.178642
 11   6.790465 -0.619039 0.017802 0.000768 -0.011623 -0.792770
 12   -2.022474 -0.104699 -2.873818 0.219737 1.286395 -2.983172
 13   1.167898 -0.537463 0.063297 0.662332 -0.755237 -1.266660
 14   7.002743 -0.617765 -0.183752 0.000286 0.000250 -1.945478
 15   8.209042 0.615527 -0.255885 1.828725 -0.233397 1.084329
 16   7.002735 -0.617911 -0.183641 0.012978 0.010920 -1.380527
 17   1.574674 0.609930 -0.000899 0.704009 -0.317317 0.034477
 18   -0.602177 0.511412 -0.000006 0.000000 0.000000 0.000000
 19   3.646428 0.364526 1.119313 -0.000002 -0.000014 -0.174510
 20   3.646422 0.364499 -1.117566 0.000007 -0.000003 -0.174546
 21   3.805634 1.330634 1.627658 0.000002 -0.000011 -0.000026
 22   -0.246060 -0.011889 0.516521 -0.000011 0.000031 0.000025
 23   3.805651 1.330659 -1.631083 0.000019 0.000002 -0.000024
 24   -0.246150 -0.011872 -0.516511 -0.000005 -0.000006 0.000048
 25   4.941364 1.997338 1.629330 0.000018 -0.000001 -0.000024
 26   4.941382 1.997366 -1.629410 -0.000001 0.000005 -0.000024
 27   2.930087 1.603639 1.514501 -0.000019 -0.000022 -0.000050
 28   2.932517 1.603245 -1.501142 -0.000002 -0.000009 -0.000024
 29   8.824059 0.150544 0.091743 0.059095 -0.021928 0.001754
 30   2.157961 -0.553366 1.682754 -0.001567 0.112511 0.007529
 31   2.191605 -0.557383 -1.779378 0.000291 -0.149192 0.008350
 32   -0.814395 -0.093824 3.127092 0.338887 -3.077717 -0.193763
 33   14.298673 -0.408176 0.471578 0.022036 -0.102031 -0.534776
 34   15.835795 0.581398 0.242756 -0.532539 -0.064474 0.362915
 35   -0.815868 -0.091229 -3.114430 -0.002012 2.881638 -0.341435
 36   14.294526 -0.410349 -0.467541 -0.029941 0.089633 -0.614566
 37   15.834409 0.579420 -0.284600 -0.051545 0.043118 0.201427
 38   1.170936 -3.469374 -2.823813 0.006083 -0.004531 0.013931
 39   -4.473368 -0.855629 -0.703210 0.007790 0.017222 -0.068742
 40   1.086850 -3.434144 3.237290 -0.002884 -0.005470 0.022544
 41   -4.328368 -0.934126 1.002536 0.000838 0.001678 -0.006843
 42   -0.602779 1.689489 -2.481576 0.050575 0.078779 -0.007612
 43   -0.660162 1.675140 2.685778 -0.059334 -0.089329 0.015391
time 21
  0   0.001233 -0.019532 2.098091 0.000000 0.000000 -1.571829
  1   -1.093036 0.000002 -0.326057 -1.570756 -1.570425 -0.000123
  2   2.262337 0.113614 0.064702 -0.000052 0.000049 0.131363
  3   2.380047 0.353302 0.047440 -0.265008 0.053939 0.195281
  4   2.033756 0.190472 -0.000128 -0.261987 0.067090 0.243808
  5   2.451511 0.204909 -0.003447 -0.139297 0.006575 0.046819
  6   7.247600 -0.397300 -0.109469 0.000001 0.000033 0.052298
  7   -2.022252 -0.104661 3.136172 0.946316 -1.136231 -4.094017
  8   1.168026 -0.537438 -0.063437 -0.419821 0.159613 -0.671066
  9   6.790376 -0.619176 0.015206 -0.000158 -0.000151 -1.110807
 10   8.637599 0.544015 -0.090417 -4.300299 0.240956 0.178642
 11   6.790465 -0.619039 0.017802 0.000768 -0.011623 -0.792770
 12   -2.022474 -0.104699 -2.873818 0.224910 1.292984 -2.978194
 13   1.167898 -0.537463 0.063297 0.666620 -0.764136 -1.267568
 14   7.002743 -0.617765 -0.183752 0.000286 0.000250 -1.945478
 15   8.209042 0.615527 -0.255885 1.829156 -0.235137 1.083848
 16   7.002735 -0.617911 -0.183641 0.012978 0.010920 -1.380527
 17   1.574674 0.609930 -0.000899 0.703806 -0.318027 0.042349
 18   -0.602177 0.511412 -0.000006 0.000000 0.000000 0.000000
 19   3.646428 0.364526 1.119313 -0.000002 -0.000014 -0.174510
 20   3.646422 0.364499 -1.117566 0.000007 -0.000003 -0.174546
 21   3.805634 1.330634 1.627658 0.000002 -0.000011 -0.000026
 22   -0.246060 -0.011889 0.516521 -0.000011 0.000031 0.000025
 23   3.805651 1.330659 -1.631083 0.000019 0.000002 -0.000024
 24   -0.246150 -0.011872 -0.516511 -0.000005 -0.000006 0.000048
 25   4.941364 1.997338 1.629330 0.000018 -0.000001 -0.000024
 26   4.941382 1.997366 -1.629410 -0.000001 0.000005 -0.000024
 27   2.930087 1.603639 1.514501 -0.000019 -0.000022 -0.000050
 28   2.932517 1.603245 -1.501142 -0.000002 -0.000009 -0.000024
 29   8.824059 0.150544 0.091743 0.051965 -0.018628 -0.020242
 30   2.150149 -0.557273 1.694474 -0.001378 0.098329 0.006607
 31   2.183792 -0.557383 -1.791097 0.000260 -0.130517 0.007313
 32   -0.814395 -0.093824 3.127092 0.338887 -3.077717 -0.190405
 33   14.298673 -0.408176 0.471578 0.020885 -0.100712 -0.529774
 34   15.835795 0.581398 0.242756 -0.532539 -0.064474 0.362915
 35   -0.815868 -0.091229 -3.114430 -0.002012 2.881638 -0.337984
 36   14.294526 -0.410349 -0.467541 -0.028838 0.090376 -0.609622
 37   15.834409 0.579420 -0.284600 -0.051545 0.043118 0.201427
 38   1.167030 -3.465468 -2.823813 0.005325 -0.003965 0.012159
 39   -4.469461 -0.882974 -0.707116 0.006819 0.015065 -0.060132
 40   1.090756 -3.438050 3.237290 -0.002526 -0.004783 0.019734
 41   -4.343993 -0.949752 0.994723 0.000730 0.001462 -0.005974
 42   -0.610592 1.689489 -2.508921 0.044235 0.068921 -0.006650
 43   -0.660162 1.675140 2.709216 -0.051900 -0.078141 0.013467
time 22
  0   0.001233 -0.019532 2.125436 0.000000 0.000000 -1.571829
  1   -1.093036 0.000002 -0.326057 -1.570756 -1.570425 -0.000123
  2   2.262337 0.113614 0.064702 -0.000052 0.000049 0.131363
  3   2.380047 0.353302 0.047440 -0.265098 0.053267 0.193363
  4   2.033756 0.190472 -0.000128 -0.261987 0.067090 0.243808
  5   2.451511 0.204909 -0.003447 -0.139297 0.005726 0.040009
  6   7.247600 -0.397300 -0.109469 0.000001 0.000033 0.052298
  7   -2.022252 -0.104661 3.136172 0.958298 -1.140210 -4.107071
  8   1.168026 -0.537438 -0.063437 -0.420328 0.172745 -0.669358
  9   6.790376 -0.619176 0.015206 -0.000158 -0.000151 -1.110807
 10   8.637599 0.544015 -0.090417 -4.300299 0.240956 0.178642
 11   6.790465 -0.619039 0.017802 0.000768 -0.011623 -0.792770
 12   -2.022474 -0.104699 -2.873818 0.230754 1.300182 -2.971684
 13   1.167898 -0.537463 0.063297 0.671330 -0.773595 -1.268355
 14   7.002743 -0.617765 -0.183752 0.000286 0.000250 -1.945478
 15   8.209042 0.615527 -0.255885 1.829372 -0.237104 1.083427
 16   7.002735 -0.617911 -0.183641 0.012978 0.010920 -1.380527
 17   1.574674 0.609930 -0.000899 0.703522 -0.318808 0.051146
 18   -0.602177 0.511412 -0.000006 0.000000 0.000000 0.000000
 19   3.646428 0.364526 1.119313 -0.000002 -0.000014 -0.174510
 20   3.646422 0.364499 -1.117566 0.000007 -0.000003 -0.174546
 21   3.805634 1.330634 1.627658 0.000002 -0.000011 -0.000026
 22   -0.246060 -0.011889 0.516521 -0.000011 0.000031 0.000025
 23   3.805651 1.330659 -1.631083 0.000019 0.000002 -0.000024
 24   -0.246150 -0.011872 -0.516511 -0.000005 -0.000006 0.000048
 25   4.941364 1.997338 1.629330 0.000018 -0.000001 -0.000024
 26   4.941382 1.997366 -1.629410 -0.000001 0.000005 -0.000024
 27   2.930087 1.603639 1.514501 -0.000019 -0.000022 -0.000050
 28   2.932517 1.603245 -1.501142 -0.000002 -0.000009 -0.000024
 29   8.824059 0.150544 0.091743 0.044211 -0.015328 -0.043579
 30   2.146242 -0.557273 1.710099 -0.001161 0.083334 0.005599
 31   2.172073 -0.561289 -1.798910 0.000215 -0.110755 0.006203
 32   -0.814395 -0.093824 3.127092 0.338887 -3.077717 -0.186762
 33   14.298673 -0.408176 0.471578 0.019663 -0.099291 -0.524454
 34   15.835795 0.581398 0.242756 -0.532539 -0.064474 0.362915
 35   -0.815868 -0.091229 -3.114430 -0.002012 2.881638 -0.334369
 36   14.294526 -0.410349 -0.467541 -0.027664 0.091179 -0.604060
 37   15.834409 0.579420 -0.284600 -0.051545 0.043118 0.201427
 38   1.163123 -3.465468 -2.823813 0.004505 -0.003362 0.010326
 39   -4.469461 -0.910318 -0.714929 0.005789 0.012776 -0.051017
 40   1.094663 -3.438050 3.237290 -0.002147 -0.004060 0.016740
 41   -4.355712 -0.965377 0.990817 0.000622 0.001246 -0.005076
 42   -0.618404 1.693396 -2.536265 0.037548 0.058479 -0.005646
 43   -0.664068 1.679046 2.736560 -0.044042 -0.066310 0.011418
time 23
  0   0.001233 -0.019532 2.160593 0.000000 0.000000 -1.571829
  1   -1.093036 0.000002 -0.326057 -1.570756 -1.570425 -0.000123
  2   2.262337 0.113614 0.064702 -0.000052 0.000049 0.131363
  3   2.380047 0.353302 0.047440 -0.265218 0.052704 0.191261
  4   2.033756 0.190472 -0.000128 -0.261987 0.067090 0.243808
  5   2.451511 0.204909 -0.003447 -0.139400 0.004721 0.032827
  6   7.247600 -0.397300 -0.109469 0.000001 0.000033 0.052298
  7   -2.022252 -0.104661 3.136172 0.971143 -1.144303 -4.121440
  8   1.168026 -0.537438 -0.063437 -0.420770 0.186531 -0.667460
  9   6.790376 -0.619176 0.015206 -0.000158 -0.000151 -1.110807
 10   8.637599 0.544015 -0.090417 -4.300299 0.240956 0.178642
 11   6.790465 -0.619039 0.017802 0.000768 -0.011623 -0.792770
 12   -2.022474 -0.104699 -2.873818 0.237461 1.308018 -2.964599
 13   1.167898 -0.537463 0.063297 0.676532 -0.784274 -1.269384
 14   7.002743 -0.617765 -0.183752 0.000286 0.000250 -1.945478
 15   8.209042 0.615527 -0.255885 1.829588 -0.239223 1.082825
 16   7.002735 -0.617911 -0.183641 0.012978 0.010920 -1.380527
 17   1.574674 0.609930 -0.000899 0.703156 -0.319589 0.060386
 18   -0.602177 0.511412 -0.000006 0.000000 0.000000 0.000000
 19   3.646428 0.364526 1.119313 -0.000002 -0.000014 -0.174510
 20   3.646422 0.364499 -1.117566 0.000007 -0.000003 -0.174546
 21   3.805634 1.330634 1.627658 0.000002 -0.000011 -0.000026
 22   -0.246060 -0.011889 0.516521 -0.000011 0.000031 0.000025
 23   3.805651 1.330659 -1.631083 0.000019 0.000002 -0.000024
 24   -0.246150 -0.011872 -0.516511 -0.000005 -0.000006 0.000048
 25   4.941364 1.997338 1.629330 0.000018 -0.000001 -0.000024
 26   4.941382 1.997366 -1.629410 -0.000001 0.000005 -0.000024
 27   2.930087 1.603639 1.514501 -0.000019 -0.000022 -0.000050
 28   2.932517 1.603245 -1.501142 -0.000002 -0.000009 -0.000024
 29   8.824059 0.150544 0.091743 0.036368 -0.012147 -0.067345
 30   2.138430 -0.557273 1.721818 -0.000957 0.068076 0.004591
 31   2.164260 -0.561289 -1.810629 0.000184 -0.090655 0.005075
 32   -0.814395 -0.093824 3.127092 0.338887 -3.077717 -0.182834
 33   14.298673 -0.408176 0.471578 0.018392 -0.097830 -0.519055
 34   15.835795 0.581398 0.242756 -0.532539 -0.064474 0.362915
 35   -0.815868 -0.091229 -3.114430 -0.002012 2.881638 -0.330535
 36   14.294526 -0.410349 -0.467541 -0.026429 0.091994 -0.598422
 37   15.834409 0.579420 -0.284600 -0.051545 0.043118 0.201427
 38   1.159217 -3.461562 -2.823813 0.003684 -0.002748 0.008432
 39   -4.465555 -0.933757 -0.718835 0.004734 0.010463 -0.041761
 40   1.098569 -3.441956 3.237290 -0.001747 -0.003325 0.013685
 41   -4.371338 -0.984909 0.983004 0.000502 0.001019 -0.004151
 42   -0.626217 1.693396 -2.563610 0.030728 0.047869 -0.004600
 43   -0.664068 1.682953 2.759999 -0.036045 -0.054275 0.009326
time 24
  0   0.001233 -0.019532 2.187938 0.000000 0.000000 -1.571829
  1   -1.093036 0.000002 -0.326057 -1.570756 -1.570425 -0.000123
  2   2.262337 0.113614 0.064702 -0.000052 0.000049 0.131363
  3   2.380047 0.353302 0.047440 -0.265338 0.052237 0.188996
  4   2.033756 0.190472 -0.000128 -0.261987 0.067090 0.243808
  5   2.451511 0.204909 -0.003447 -0.139434 0.003520 0.025323
  6   7.247600 -0.397300 -0.109469 0.000001 0.000033 0.052298
  7   -2.022252 -0.104661 3.136172 0.985234 -1.148512 -4.136749
  8   1.168026 -0.537438 -0.063437 -0.421467 0.200971 -0.665752
  9   6.790376 -0.619176 0.015206 -0.000158 -0.000151 -1.110807
 10   8.637599 0.544015 -0.090417 -4.300299 0.240956 0.178642
 11   6.790465 -0.619039 0.017802 0.000768 -0.011623 -0.792770
 12   -2.022474 -0.104699 -2.873818 0.244934 1.316290 -2.956844
 13   1.167898 -0.537463 0.063297 0.681945 -0.794852 -1.270776
 14   7.002743 -0.617765 -0.183752 0.000286 0.000250 -1.945478
 15   8.209042 0.615527 -0.255885 1.830091 -0.241493 1.082404
 16   7.002735 -0.617911 -0.183641 0.012978 0.010920 -1.380527
 17   1.574674 0.609930 -0.000899 0.702872 -0.320441 0.070107
 18   -0.602177 0.511412 -0.000006 0.000000 0.000000 0.000000
 19   3.646428 0.364526 1.119313 -0.000002 -0.000014 -0.174510
 20   3.646422 0.364499 -1.117566 0.000007 -0.000003 -0.174546
 21   3.805634 1.330634 1.627658 0.000002 -0.000011 -0.000026
 22   -0.246060 -0.011889 0.516521 -0.000011 0.000031 0.000025
 23   3.805651 1.330659 -1.631083 0.000019 0.000002 -0.000024
 24   -0.246150 -0.011872 -0.516511 -0.000005 -0.000006 0.000048
 25   4.941364 1.997338 1.629330 0.000018 -0.000001 -0.000024
 26   4.941382 1.997366 -1.629410 -0.000001 0.000005 -0.000024
 27   2.930087 1.603639 1.514501 -0.000019 -0.000022 -0.000050
 28   2.932517 1.603245 -1.501142 -0.000002 -0.000009 -0.000024
 29   8.824059 0.150544 0.091743 0.028525 -0.009228 -0.090682
 30   2.130617 -0.561179 1.737444 -0.000740 0.053081 0.003584
 31   2.152541 -0.561289 -1.818442 0.000138 -0.070892 0.003965
 32   -0.814395 -0.093824 3.127092 0.338887 -3.077717 -0.179191
 33   14.298673 -0.408176 0.471578 0.017146 -0.096421 -0.513656
 34   15.835795 0.581398 0.242756 -0.532539 -0.064474 0.362915
 35   -0.815868 -0.091229 -3.114430 -0.002012 2.881638 -0.326865
 36   14.294526 -0.410349 -0.467541 -0.025243 0.092785 -0.592937
 37   15.834409 0.579420 -0.284600 -0.051545 0.043118 0.201427
 38   1.155311 -3.457655 -2.823813 0.002884 -0.002157 0.006599
 39   -4.461648 -0.961101 -0.726648 0.003703 0.008173 -0.032646
 40   1.102476 -3.445863 3.237290 -0.001368 -0.002602 0.010692
 41   -4.386963 -1.000534 0.979098 0.000394 0.000791 -0.003253
 42   -0.634030 1.693396 -2.590955 0.024029 0.037428 -0.003597
 43   -0.664068 1.686859 2.783437 -0.028187 -0.042443 0.007319
time 25
  0   0.001233 -0.019532 2.215282 0.000000 0.000000 -1.571829
  1   -1.093036 0.000002 -0.326057 -1.570756 -1.570425 -0.000123
  2   2.262337 0.113614 0.064702 -0.000052 0.000049 0.131363
  3   2.380047 0.353302 0.047440 -0.265443 0.051626 0.186792
  4   2.033756 0.190472 -0.000128 -0.261987 0.067090 0.243808
  5   2.451511 0.204909 -0.003447 -0.139451 0.002606 0.017720
  6   7.247600 -0.397300 -0.109469 0.000001 0.000033 0.052298
  7   -2.022252 -0.104661 3.136172 0.999805 -1.152865 -4.152621
  8   1.168026 -0.537438 -0.063437 -0.421910 0.215814 -0.663791
  9   6.790376 -0.619176 0.015206 -0.000158 -0.000151 -1.110807
 10   8.637599 0.544015 -0.090417 -4.300299 0.240956 0.178642
 11   6.790465 -0.619039 0.017802 0.000768 -0.011623 -0.792770
 12   -2.022474 -0.104699 -2.873818 0.253269 1.324475 -2.948610
 13   1.167898 -0.537463 0.063297 0.687639 -0.806091 -1.272108
 14   7.002743 -0.617765 -0.183752 0.000286 0.000250 -1.945478
 15   8.209042 0.615527 -0.255885 1.830307 -0.243611 1.081923
 16   7.002735 -0.617911 -0.183641 0.012978 0.010920 -1.380527
 17   1.574674 0.609930 -0.000899 0.702588 -0.321364 0.080013
 18   -0.602177 0.511412 -0.000006 0.000000 0.000000 0.000000
 19   3.646428 0.364526 1.119313 -0.000002 -0.000014 -0.174510
 20   3.646422 0.364499 -1.117566 0.000007 -0.000003 -0.174546
 21   3.805634 1.330634 1.627658 0.000002 -0.000011 -0.000026
 22   -0.246060 -0.011889 0.516521 -0.000011 0.000031 0.000025
 23   3.805651 1.330659 -1.631083 0.000019 0.000002 -0.000024
 24   -0.246150 -0.011872 -0.516511 -0.000005 -0.000006 0.000048
 25   4.941364 1.997338 1.629330 0.000018 -0.000001 -0.000024
 26   4.941382 1.997366 -1.629410 -0.000001 0.000005 -0.000024
 27   2.930087 1.603639 1.514501 -0.000019 -0.000022 -0.000050
 28   2.932517 1.603245 -1.501142 -0.000002 -0.000009 -0.000024
 29   8.824059 0.150544 0.091743 0.021039 -0.006617 -0.112785
 30   2.126710 -0.561179 1.749163 -0.000550 0.038928 0.002640
 31   2.144728 -0.561289 -1.830161 0.000092 -0.052217 0.002909
 32   -0.814395 -0.093824 3.127092 0.338887 -3.077717 -0.175719
 33   14.298673 -0.408176 0.471578 0.016031 -0.095103 -0.508654
 34   15.835795 0.581398 0.242756 -0.532539 -0.064474 0.362915
 35   -0.815868 -0.091229 -3.114430 -0.002012 2.881638 -0.323414
 36   14.294526 -0.410349 -0.467541 -0.024140 0.093540 -0.587839
 37   15.834409 0.579420 -0.284600 -0.051545 0.043118 0.201427
 38   1.151404 -3.457655 -2.823813 0.002126 -0.001579 0.004827
 39   -4.461648 -0.988446 -0.730555 0.002721 0.006028 -0.024036
 40   1.106382 -3.445863 3.237290 -0.001010 -0.001915 0.007881
 41   -4.398683 -1.016160 0.971285 0.000287 0.000587 -0.002384
 42   -0.637936 1.697302 -2.618299 0.017701 0.027570 -0.002635
 43   -0.664068 1.690765 2.806875 -0.020765 -0.031255 0.005395
time 26
  0   0.001233 -0.019532 2.242627 0.000000 0.000000 -1.571829
  1   -1.093036 0.000002 -0.326057 -1.570756 -1.570425 -0.000123
  2   2.262337 0.113614 0.064702 -0.000052 0.000049 0.131363
  3   2.380047 0.353302 0.047440 -0.265533 0.050894 0.184527
  4   2.033756 0.190472 -0.000128 -0.261987 0.067090 0.243808
  5   2.451511 0.204909 -0.003447 -0.139451 0.001379 0.010117
  6   7.247600 -0.397300 -0.109469 0.000001 0.000033 0.052298
  7   -2.022252 -0.104661 3.136172 1.014567 -1.156929 -4.168869
  8   1.168026 -0.537438 -0.063437 -0.422352 0.230405 -0.661830
  9   6.790376 -0.619176 0.015206 -0.000158 -0.000151 -1.110807
 10   8.637599 0.544015 -0.090417 -4.300299 0.240956 0.178642
 11   6.790465 -0.619039 0.017802 0.000768 -0.011623 -0.792770
 12   -2.022474 -0.104699 -2.873818 0.261796 1.332631 -2.939419
 13   1.167898 -0.537463 0.063297 0.693262 -0.817076 -1.273803
 14   7.002743 -0.617765 -0.183752 0.000286 0.000250 -1.945478
 15   8.209042 0.615527 -0.255885 1.830738 -0.246032 1.081382
 16   7.002735 -0.617911 -0.183641 0.012978 0.010920 -1.380527
 17   1.574674 0.609930 -0.000899 0.702263 -0.322216 0.089955
 18   -0.602177 0.511412 -0.000006 0.000000 0.000000 0.000000
 19   3.646428 0.364526 1.119313 -0.000002 -0.000014 -0.174510
 20   3.646422 0.364499 -1.117566 0.000007 -0.000003 -0.174546
 21   3.805634 1.330634 1.627658 0.000002 -0.000011 -0.000026
 22   -0.246060 -0.011889 0.516521 -0.000011 0.000031 0.000025
 23   3.805651 1.330659 -1.631083 0.000019 0.000002 -0.000024
 24   -0.246150 -0.011872 -0.516511 -0.000005 -0.000006 0.000048
 25   4.941364 1.997338 1.629330 0.000018 -0.000001 -0.000024
 26   4.941382 1.997366 -1.629410 -0.000001 0.000005 -0.000024
 27   2.930087 1.603639 1.514501 -0.000019 -0.000022 -0.000050
 28   2.932517 1.603245 -1.501142 -0.000002 -0.000009 -0.000024
 29   8.824059 0.150544 0.091743 0.014266 -0.004409 -0.132796
 30   2.118898 -0.561179 1.760882 -0.000374 0.026112 0.001804
 31   2.136915 -0.561289 -1.837973 0.000061 -0.035330 0.001963
 32   -0.814395 -0.093824 3.127092 0.338887 -3.077717 -0.172873
 33   14.298673 -0.408176 0.471578 0.015049 -0.093979 -0.504446
 34   15.835795 0.581398 0.242756 -0.532539 -0.064474 0.362915
 35   -0.815868 -0.091229 -3.114430 -0.002012 2.881638 -0.320456
 36   14.294526 -0.410349 -0.467541 -0.023194 0.094175 -0.583513
 37   15.834409 0.579420 -0.284600 -0.051545 0.043118 0.201427
 38   1.147498 -3.453749 -2.823813 0.001431 -0.001073 0.003300
 39   -4.457742 -1.007978 -0.738367 0.001846 0.004075 -0.016267
 40   1.110288 -3.449769 3.237290 -0.000674 -0.001288 0.005315
 41   -4.410401 -1.031785 0.967379 0.000191 0.000395 -0.001599
 42   -0.645749 1.697302 -2.641737 0.011973 0.018646 -0.001798
 43   -0.664068 1.694672 2.826407 -0.014043 -0.021150 0.003639
time 27
  0   0.001233 -0.019532 2.266065 0.000000 0.000000 -1.571829
  1   -1.093036 0.000002 -0.326057 -1.570756 -1.570425 -0.000123
  2   2.262337 0.113614 0.064702 -0.000052 0.000049 0.131363
  3   2.380047 0.353302 0.047440 -0.265608 0.050295 0.182364
  4   2.033756 0.190472 -0.000128 -0.261987 0.067090 0.243808
  5   2.451511 0.204909 -0.003447 -0.139451 0.000361 0.002613
  6   7.247600 -0.397300 -0.109469 0.000001 0.000033 0.052298
  7   -2.022252 -0.104661 3.136172 1.029329 -1.160850 -4.185116
  8   1.168026 -0.537438 -0.063437 -0.422795 0.244946 -0.660375
  9   6.790376 -0.619176 0.015206 -0.000158 -0.000151 -1.110807
 10   8.637599 0.544015 -0.090417 -4.300299 0.240956 0.178642
 11   6.790465 -0.619039 0.017802 0.000768 -0.011623 -0.792770
 12   -2.022474 -0.104699 -2.873818 0.270898 1.340554 -2.930132
 13   1.167898 -0.537463 0.063297 0.698675 -0.828060 -1.275740
 14   7.002743 -0.617765 -0.183752 0.000286 0.000250 -1.945478
 15   8.209042 0.615527 -0.255885 1.830954 -0.248151 1.080781
 16   7.002735 -0.617911 -0.183641 0.012978 0.010920 -1.380527
 17   1.574674 0.609930 -0.000899 0.701978 -0.323068 0.099787
 18   -0.602177 0.511412 -0.000006 0.000000 0.000000 0.000000
 19   3.646428 0.364526 1.119313 -0.000002 -0.000014 -0.174510
 20   3.646422 0.364499 -1.117566 0.000007 -0.000003 -0.174546
 21   3.805634 1.330634 1.627658 0.000002 -0.000011 -0.000026
 22   -0.246060 -0.011889 0.516521 -0.000011 0.000031 0.000025
 23   3.805651 1.330659 -1.631083 0.000019 0.000002 -0.000024
 24   -0.246150 -0.011872 -0.516511 -0.000005 -0.000006 0.000048
 25   4.941364 1.997338 1.629330 0.000018 -0.000001 -0.000024
 26   4.941382 1.997366 -1.629410 -0.000001 0.000005 -0.000024
 27   2.930087 1.603639 1.514501 -0.000019 -0.000022 -0.000050
 28   2.932517 1.603245 -1.501142 -0.000002 -0.000009 -0.000024
 29   8.824059 0.150544 0.091743 0.008473 -0.002629 -0.149802
 30   2.114991 -0.561179 1.772601 -0.000225 0.015185 0.001075
 31   2.129103 -0.561289 -1.845786 0.000031 -0.020928 0.001163
 32   -0.814395 -0.093824 3.127092 0.338887 -3.077717 -0.170368
 33   14.298673 -0.408176 0.471578 0.014258 -0.093035 -0.500952
 34   15.835795 0.581398 0.242756 -0.532539 -0.064474 0.362915
 35   -0.815868 -0.091229 -3.114430 -0.002012 2.881638 -0.318045
 36   14.294526 -0.410349 -0.467541 -0.022427 0.094666 -0.579960
 37   15.834409 0.579420 -0.284600 -0.051545 0.043118 0.201427
 38   1.143591 -3.453749 -2.823813 0.000842 -0.000627 0.001956
 39   -4.457742 -1.027509 -0.742274 0.001091 0.002409 -0.009648
 40   1.114195 -3.449769 3.237290 -0.000400 -0.000758 0.003116
 41   -4.422121 -1.043504 0.963472 0.000107 0.000228 -0.000954
 42   -0.649655 1.697302 -2.661269 0.007095 0.011057 -0.001046
 43   -0.664068 1.698578 2.845939 -0.008321 -0.012535 0.002133
time 28
  0   0.001233 -0.019532 2.277784 0.000000 0.000000 -1.571829
  1   -1.093036 0.000002 -0.326057 -1.570756 -1.570425 -0.000123
  2   2.262337 0.113614 0.064702 -0.000052 0.000049 0.131363
  3   2.380047 0.353302 0.047440 -0.265728 0.049852 0.180242
  4   2.033756 0.190472 -0.000128 -0.261987 0.067090 0.243808
  5   2.451511 0.204909 -0.003447 -0.139451 -0.000358 -0.004569
  6   7.247600 -0.397300 -0.109469 0.000001 0.000033 0.052298
  7   -2.022252 -0.104661 3.136172 1.043804 -1.164511 -4.200518
  8   1.168026 -0.537438 -0.063437 -0.423238 0.258883 -0.658667
  9   6.790376 -0.619176 0.015206 -0.000158 -0.000151 -1.110807
 10   8.637599 0.544015 -0.090417 -4.300299 0.240956 0.178642
 11   6.790465 -0.619039 0.017802 0.000768 -0.011623 -0.792770
 12   -2.022474 -0.104699 -2.873818 0.280287 1.348245 -2.920845
 13   1.167898 -0.537463 0.063297 0.704369 -0.838638 -1.277859
 14   7.002743 -0.617765 -0.183752 0.000286 0.000250 -1.945478
 15   8.209042 0.615527 -0.255885 1.831313 -0.250269 1.080239
 16   7.002735 -0.617911 -0.183641 0.012978 0.010920 -1.380527
 17   1.574674 0.609930 -0.000899 0.701775 -0.323849 0.109286
 18   -0.602177 0.511412 -0.000006 0.000000 0.000000 0.000000
 19   3.646428 0.364526 1.119313 -0.000002 -0.000014 -0.174510
 20   3.646422 0.364499 -1.117566 0.000007 -0.000003 -0.174546
 21   3.805634 1.330634 1.627658 0.000002 -0.000011 -0.000026
 22   -0.246060 -0.011889 0.516521 -0.000011 0.000031 0.000025
 23   3.805651 1.330659 -1.631083 0.000019 0.000002 -0.000024
 24   -0.246150 -0.011872 -0.516511 -0.000005 -0.000006 0.000048
 25   4.941364 1.997338 1.629330 0.000018 -0.000001 -0.000024
 26   4.941382 1.997366 -1.629410 -0.000001 0.000005 -0.000024
 27   2.930087 1.603639 1.514501 -0.000019 -0.000022 -0.000050
 28   2.932517 1.603245 -1.501142 -0.000002 -0.000009 -0.000024
 29   8.824059 0.150544 0.091743 0.003927 -0.001323 -0.163000
 30   2.111085 -0.561179 1.780414 -0.000103 0.006729 0.000517
 31   2.125196 -0.561289 -1.849693 0.000015 -0.009765 0.000544
 32   -0.814395 -0.093824 3.127092 0.338887 -3.077717 -0.168604
 33   14.298673 -0.408176 0.471578 0.013682 -0.092389 -0.498491
 34   15.835795 0.581398 0.242756 -0.532539 -0.064474 0.362915
 35   -0.815868 -0.091229 -3.114430 -0.002012 2.881638 -0.316512
 36   14.294526 -0.410349 -0.467541 -0.021875 0.095050 -0.577411
 37   15.834409 0.579420 -0.284600 -0.051545 0.043118 0.201427
 38   1.139685 -3.453749 -2.823813 0.000400 -0.000289 0.000856
 39   -4.457742 -1.043135 -0.746180 0.000503 0.001127 -0.004487
 40   1.118101 -3.449769 3.237290 -0.000189 -0.000348 0.001466
 41   -4.429934 -1.051317 0.959566 0.000047 0.000108 -0.000449
 42   -0.657468 1.697302 -2.676895 0.003308 0.005169 -0.000460
 43   -0.664068 1.698578 2.857658 -0.003886 -0.005851 0.001004
time 29
  0   0.001233 -0.019532 2.289504 0.000000 0.000000 -1.571829
  1   -1.093036 0.000002 -0.326057 -1.570756 -1.570425 -0.000123
  2   2.262337 0.113614 0.064702 -0.000052 0.000049 0.131363
  3   2.380047 0.353302 0.047440 -0.265833 0.049301 0.178324
  4   2.033756 0.190472 -0.000128 -0.261987 0.067090 0.243808
  5   2.451511 0.204909 -0.003447 -0.139451 -0.001271 -0.011404
  6   7.247600 -0.397300 -0.109469 0.000001 0.000033 0.052298
  7   -2.022252 -0.104661 3.136172 1.057511 -1.167855 -4.215639
  8   1.168026 -0.537438 -0.063437 -0.423492 0.271864 -0.657212
  9   6.790376 -0.619176 0.015206 -0.000158 -0.000151 -1.110807
 10   8.637599 0.544015 -0.090417 -4.300299 0.240956 0.178642
 11   6.790465 -0.619039 0.017802 0.000768 -0.011623 -0.792770
 12   -2.022474 -0.104699 -2.873818 0.289867 1.355356 -2.910888
 13   1.167898 -0.537463 0.063297 0.709712 -0.848504 -1.279554
 14   7.002743 -0.617765 -0.183752 0.000286 0.000250 -1.945478
 15   8.209042 0.615527 -0.255885 1.831601 -0.252161 1.079758
 16   7.002735 -0.617911 -0.183641 0.012978 0.010920 -1.380527
 17   1.574674 0.609930 -0.000899 0.701450 -0.324630 0.117787
 18   -0.602177 0.511412 -0.000006 0.000000 0.000000 0.000000
 19   3.646428 0.364526 1.119313 -0.000002 -0.000014 -0.174510
 20   3.646422 0.364499 -1.117566 0.000007 -0.000003 -0.174546
 21   3.805634 1.330634 1.627658 0.000002 -0.000011 -0.000026
 22   -0.246060 -0.011889 0.516521 -0.000011 0.000031 0.000025
 23   3.805651 1.330659 -1.631083 0.000019 0.000002 -0.000024
 24   -0.246150 -0.011872 -0.516511 -0.000005 -0.000006 0.000048
 25   4.941364 1.997338 1.629330 0.000018 -0.000001 -0.000024
 26   4.941382 1.997366 -1.629410 -0.000001 0.000005 -0.000024
 27   2.930087 1.603639 1.514501 -0.000019 -0.000022 -0.000050
 28   2.932517 1.603245 -1.501142 -0.000002 -0.000009 -0.000024
 29   8.824059 0.150544 0.091743 0.000986 -0.000492 -0.171530
 30   2.111085 -0.561179 1.784320 -0.000022 0.001236 0.000153
 31   2.121290 -0.561289 -1.853599 0.000000 -0.002564 0.000125
 32   -0.814395 -0.093824 3.127092 0.338887 -3.077717 -0.167693
 33   14.298673 -0.408176 0.471578 0.013323 -0.092001 -0.496982
 34   15.835795 0.581398 0.242756 -0.532539 -0.064474 0.362915
 35   -0.815868 -0.091229 -3.114430 -0.002012 2.881638 -0.315361
 36   14.294526 -0.410349 -0.467541 -0.021540 0.095265 -0.575866
 37   15.834409 0.579420 -0.284600 -0.051545 0.043118 0.201427
 38   1.139685 -3.453749 -2.823813 0.000084 -0.000072 0.000184
 39   -4.457742 -1.054854 -0.746180 0.000132 0.000288 -0.001178
 40   1.118101 -3.449769 3.237290 -0.000042 -0.000083 0.000367
 41   -4.433840 -1.059130 0.959566 0.000011 0.000024 -0.000112
 42   -0.657468 1.697302 -2.688614 0.000863 0.001351 -0.000125
 43   -0.664068 1.698578 2.869377 -0.001012 -0.001520 0.000251
time 30
  0   0.001233 -0.019532 2.289504 0.000000 0.000000 -1.571829
  1   -1.093036 0.000002 -0.326057 -1.570756 -1.570425 -0.000123
  2   2.262337 0.113614 0.064702 -0.000052 0.000049 0.131363
  3   2.380047 0.353302 0.047440 -0.265923 0.048701 0.176508
  4   2.033756 0.190472 -0.000128 -0.261987 0.067090 0.243808
  5   2.451511 0.204909 -0.003447 -0.139451 -0.002133 -0.017422
  6   7.247600 -0.397300 -0.109469 0.000001 0.000033 0.052298
  7   -2.022252 -0.104661 3.136172 1.070260 -1.170882 -4.229632
  8   1.168026 -0.537438 -0.063437 -0.423871 0.283990 -0.656010
  9   6.790376 -0.619176 0.015206 -0.000158 -0.000151 -1.110807
 10   8.637599 0.544015 -0.090417 -4.300299 0.240956 0.178642
 11   6.790465 -0.619039 0.017802 0.000768 -0.011623 -0.792770
 12   -2.022474 -0.104699 -2.873818 0.298873 1.361800 -2.901888
 13   1.167898 -0.537463 0.063297 0.714422 -0.857302 -1.281854
 14   7.002743 -0.617765 -0.183752 0.000286 0.000250 -1.945478
 15   8.209042 0.615527 -0.255885 1.831745 -0.254128 1.079277
 16   7.002735 -0.617911 -0.183641 0.012978 0.010920 -1.380527
 17   1.574674 0.609930 -0.000899 0.701247 -0.325340 0.125844
 18   -0.602177 0.511412 -0.000006 0.000000 0.000000 0.000000
 19   3.646428 0.364526 1.119313 -0.000002 -0.000014 -0.174510
 20   3.646422 0.364499 -1.117566 0.000007 -0.000003 -0.174546
 21   3.805634 1.330634 1.627658 0.000002 -0.000011 -0.000026
 22   -0.246060 -0.011889 0.516521 -0.000011 0.000031 0.000025
 23   3.805651 1.330659 -1.631083 0.000019 0.000002 -0.000024
 24   -0.246150 -0.011872 -0.516511 -0.000005 -0.000006 0.000048
 25   4.941364 1.997338 1.629330 0.000018 -0.000001 -0.000024
 26   4.941382 1.997366 -1.629410 -0.000001 0.000005 -0.000024
 27   2.930087 1.603639 1.514501 -0.000019 -0.000022 -0.000050
 28   2.932517 1.603245 -1.501142 -0.000002 -0.000009 -0.000024
 29   8.824059 0.150544 0.091743 0.000006 -0.000231 -0.174534
 30   2.111085 -0.561179 1.784320 -0.000008 -0.000682 0.000024
 31   2.121290 -0.561289 -1.853599 0.000000 0.000000 -0.000002
 32   -0.814395 -0.093824 3.127092 0.338887 -3.077717 -0.167408
 33   14.298673 -0.408176 0.471578 0.013215 -0.091859 -0.496506
 34   15.835795 0.581398 0.242756 -0.532539 -0.064474 0.362915
 35   -0.815868 -0.091229 -3.114430 -0.002012 2.881638 -0.314978
 36   14.294526 -0.410349 -0.467541 -0.021444 0.095337 -0.575480
 37   15.834409 0.579420 -0.284600 -0.051545 0.043118 0.201427
 38   1.139685 -3.453749 -2.823813 0.000000 0.000000 0.000001
 39   -4.457742 -1.054854 -0.746180 0.000000 0.000000 0.000000
 40   1.118101 -3.449769 3.237290 0.000000 0.000001 0.000000
 41   -4.433840 -1.059130 0.959566 -0.000001 0.000000 0.000000
 42   -0.657468 1.697302 -2.688614 0.000000 0.000002 0.000000
 43   -0.664068 1.698578 2.869377 0.000000 0.000002 0.000000
end
