version 1
nodes
  0 "Bip01" -1
  1 "Bip01 Pelvis" 0
  2 "Bip01 Spine" 1
  3 "Bip01 Spine1" 2
  4 "Bip01 Spine2" 3
  5 "Bip01 Spine3" 4
  6 "Bip01 Neck" 5
  7 "Bip01 L Arm" 6
  8 "Bip01 L Arm1" 7
  9 "Bip01 L Arm2" 8
 10 "Bip01 L Hand" 9
 11 "Bip06 L elbow2-smooth" 8
 12 "Bip01 R Arm" 6
 13 "Bip01 R Arm1" 12
 14 "Bip01 R Arm2" 13
 15 "Bip01 R Hand" 14
 16 "Bip06 R elbow2-smooth" 13
 17 "Bip01 Head" 6
 18 "Bip06 Head_helper" 17
 19 "Bip06 Head_eyes_l" 18
 20 "Bip06 Head_eyes_r" 18
 21 "Bip06 Head_blink_l" 18
 22 "Bip06 Head_blink_smooth_l1" 21
 23 "Bip06 Head_blink_r" 18
 24 "Bip06 Head_blink_smooth_r1" 23
 25 "Bip06 Head_L_eyebrow" 18
 26 "Bip06 Head_R_eyebrow" 18
 27 "Bip06 Head_blink_l_lid" 18
 28 "Bip06 Head_blink_r_lid" 18
 29 "Bip06 bunny" 18
 30 "Bip06 bunnyL" 29
 31 "Bip06 bunnyR" 29
 32 "Bip01 L Leg" 1
 33 "Bip01 L Leg1" 32
 34 "Bip01 L Foot" 33
 35 "Bip01 R Leg" 1
 36 "Bip01 R Leg1" 35
 37 "Bip01 R Foot" 36
 38 "Bip03 HairR1" 17
 39 "Bip03 HairR2" 38
 40 "Bip03 HairL1" 17
 41 "Bip03 HairL2" 40
 42 "Bip03 swingR" 17
 43 "Bip03 swingL" 17
end
skeleton
time 0
  0   0.001233 0.187506 0.867585 0.000000 0.000000 -1.571354
  1   -1.093036 0.000002 -0.326057 -1.570808 -1.570425 0.000022
  2   2.262337 0.113614 0.064702 -0.241441 -0.007502 -0.059755
  3   2.380047 0.353302 0.047440 0.018016 0.016726 -0.079276
  4   2.033756 0.190472 -0.000128 -0.233161 -0.061421 -0.298519
  5   2.451511 0.204909 -0.003447 -0.237822 -0.043141 -0.169086
  6   7.247600 -0.397300 -0.109469 0.000001 0.000033 0.087015
  7   -2.022252 -0.104661 3.136172 -0.298783 -1.361862 -2.935559
  8   1.168026 -0.537438 -0.063437 0.636962 0.931032 0.320857
  9   6.790376 -0.619176 0.015206 0.004724 0.003720 -1.892952
 10   8.637599 0.544015 -0.090417 -1.944564 -0.086781 -0.069571
 11   6.790465 -0.619039 0.017802 0.008592 -0.010088 -1.340393
 12   -2.022474 -0.104699 -2.873818 0.298873 1.361771 -2.936355
 13   1.167898 -0.537463 0.063297 -0.321746 -1.331368 -0.279459
 14   7.002743 -0.617765 -0.183752 0.000286 0.000250 -1.849772
 15   8.209042 0.615527 -0.255885 2.158112 -0.134813 0.133438
 16   7.002735 -0.617911 -0.183641 0.013167 0.010356 -1.313523
 17   1.574674 0.609930 -0.000899 0.696494 0.026420 0.270916
 18   -0.602177 0.511412 -0.000006 0.000000 0.000000 0.000000
 19   3.673773 0.177020 1.119313 -0.000002 -0.000014 -0.174510
 20   3.673767 0.176993 -1.117566 0.000007 -0.000003 -0.174546
 21   3.942357 1.334540 1.627658 0.000002 -0.000011 -0.000026
 22   -0.246060 -0.011889 0.516521 -0.000011 0.000031 0.000025
 23   3.942374 1.334565 -1.631083 0.000019 0.000002 -0.000024
 24   -0.246150 -0.011872 -0.516511 -0.000005 -0.000006 0.000048
 25   4.941364 1.997338 1.629330 0.000018 -0.000001 -0.000024
 26   4.941382 1.997366 -1.629410 -0.000001 0.000005 -0.000024
 27   2.914462 1.619264 1.514501 -0.000019 -0.000022 -0.000050
 28   2.916892 1.618870 -1.501142 -0.000002 -0.000009 -0.000024
 29   8.824059 0.150544 0.091743 0.000006 -0.000231 -0.174534
 30   2.111085 -0.561179 1.784320 -0.000008 -0.000682 0.000024
 31   2.121290 -0.561289 -1.853599 0.000000 0.000000 -0.000002
 32   -0.814395 -0.093824 3.127092 -0.129210 -2.975333 -0.324172
 33   14.298673 -0.408176 0.471578 0.000032 -0.000248 -0.436322
 34   15.835795 0.581398 0.242756 0.161863 -0.014056 0.022620
 35   -0.815868 -0.091229 -3.114430 0.096037 3.002497 -0.031284
 36   14.294526 -0.410349 -0.467541 0.000081 0.000036 -0.399441
 37   15.834409 0.579420 -0.284600 -0.088743 0.040098 0.278088
 38   1.139685 -3.453749 -2.823813 0.000000 0.000000 0.000001
 39   -4.457742 -1.054854 -0.746180 0.000000 0.000000 0.000000
 40   1.118101 -3.449769 3.237290 0.000000 0.000001 0.000000
 41   -4.433840 -1.059130 0.959566 -0.000001 0.000000 0.000000
 42   -0.657468 1.697302 -2.688614 0.000000 0.000002 0.000000
 43   -0.664068 1.698578 2.869377 0.000000 0.000002 0.000000
time 1
  0   0.001233 0.187506 0.867585 0.000000 0.000000 -1.571354
  1   -1.093036 0.000002 -0.326057 -1.570808 -1.570425 0.000022
  2   2.262337 0.113614 0.064702 -0.240829 -0.017545 -0.100559
  3   2.380047 0.353302 0.047440 -0.053359 0.001314 -0.120719
  4   2.033756 0.190472 -0.000128 -0.295829 -0.045937 -0.260315
  5   2.451511 0.204909 -0.003447 -0.300127 -0.026625 -0.131294
  6   7.247600 -0.397300 -0.109469 0.000001 0.000033 0.087015
  7   -2.022252 -0.104661 3.136172 -0.448801 -1.349582 -2.790364
  8   1.168026 -0.537438 -0.063437 -0.498732 0.895007 -0.581616
  9   6.790376 -0.619176 0.015206 0.004558 0.003986 -2.021171
 10   8.637599 0.544015 -0.090417 -1.934172 0.174297 -0.014517
 11   6.790465 -0.619039 0.017802 0.009147 -0.009946 -1.430135
 12   -2.022474 -0.104699 -2.873818 0.298873 1.361771 -2.936355
 13   1.167898 -0.537463 0.063297 0.804049 -0.897731 -1.508133
 14   7.002743 -0.617765 -0.183752 0.000286 0.000250 -1.626760
 15   8.209042 0.615527 -0.255885 2.171486 -0.012547 -0.046974
 16   7.002735 -0.617911 -0.183641 0.013496 0.009003 -1.157328
 17   1.574674 0.609930 -0.000899 0.846793 -0.042545 0.279824
 18   -0.602177 0.511412 -0.000006 0.000000 0.000000 0.000000
 19   3.673773 0.177020 1.119313 -0.000002 -0.000014 -0.174510
 20   3.673767 0.176993 -1.117566 0.000007 -0.000003 -0.174546
 21   3.942357 1.334540 1.627658 0.000002 -0.000011 -0.000026
 22   -0.246060 -0.011889 0.516521 -0.000011 0.000031 0.000025
 23   3.942374 1.334565 -1.631083 0.000019 0.000002 -0.000024
 24   -0.246150 -0.011872 -0.516511 -0.000005 -0.000006 0.000048
 25   4.941364 1.997338 1.629330 0.000018 -0.000001 -0.000024
 26   4.941382 1.997366 -1.629410 -0.000001 0.000005 -0.000024
 27   2.914462 1.619264 1.514501 -0.000019 -0.000022 -0.000050
 28   2.916892 1.618870 -1.501142 -0.000002 -0.000009 -0.000024
 29   8.824059 0.150544 0.091743 0.000006 -0.000231 -0.174534
 30   2.111085 -0.561179 1.784320 -0.000008 -0.000682 0.000024
 31   2.121290 -0.561289 -1.853599 0.000000 0.000000 -0.000002
 32   -0.814395 -0.093824 3.127092 -0.129210 -2.975333 -0.324172
 33   14.298673 -0.408176 0.471578 0.000032 -0.000248 -0.436322
 34   15.835795 0.581398 0.242756 0.161863 -0.014056 0.022620
 35   -0.815868 -0.091229 -3.114430 0.096037 3.002497 -0.031284
 36   14.294526 -0.410349 -0.467541 0.000081 0.000036 -0.399441
 37   15.834409 0.579420 -0.284600 -0.088743 0.040098 0.278088
 38   1.139685 -3.453749 -2.823813 0.000000 0.000000 0.000001
 39   -4.457742 -1.054854 -0.746180 0.000000 0.000000 0.000000
 40   1.118101 -3.449769 3.237290 0.000000 0.000001 0.000000
 41   -4.433840 -1.059130 0.959566 -0.000001 0.000000 0.000000
 42   -0.657468 1.697302 -2.688614 0.000000 0.000002 0.000000
 43   -0.664068 1.698578 2.869377 0.000000 0.000002 0.000000
time 2
  0   0.001233 0.187506 0.867585 0.000000 0.000000 -1.571354
  1   -1.093036 0.000002 -0.326057 -1.570808 -1.570425 0.000022
  2   2.262337 0.113614 0.064702 -0.239900 -0.027576 -0.141381
  3   2.380047 0.353302 0.047440 -0.124208 -0.016699 -0.161081
  4   2.033756 0.190472 -0.000128 -0.357888 -0.028056 -0.223125
  5   2.451511 0.204909 -0.003447 -0.361799 -0.007499 -0.094517
  6   7.247600 -0.397300 -0.109469 0.000001 0.000033 0.087015
  7   -2.022252 -0.104661 3.136172 -0.298783 -1.361862 -2.935559
  8   1.168026 -0.537438 -0.063437 -1.051993 0.520517 -0.883937
  9   6.790376 -0.619176 0.015206 0.005168 0.003252 -1.692963
 10   8.637599 0.544015 -0.090417 -1.959711 0.391310 -0.035352
 11   6.790465 -0.619039 0.017802 0.007804 -0.010372 -1.200301
 12   -2.022474 -0.104699 -2.873818 0.298873 1.361800 -2.936355
 13   1.167898 -0.537463 0.063297 0.999332 -0.403323 -1.809717
 14   7.002743 -0.617765 -0.183752 0.000229 0.000250 -1.405150
 15   8.209042 0.615527 -0.255885 2.165374 0.092090 -0.200084
 16   7.002735 -0.617911 -0.183641 0.013779 0.007762 -1.002346
 17   1.574674 0.609930 -0.000899 0.993437 -0.130278 0.271286
 18   -0.602177 0.511412 -0.000006 0.000000 0.000000 0.000000
 19   3.673773 0.177020 1.119313 -0.000002 -0.000014 -0.174510
 20   3.673767 0.176993 -1.117566 0.000007 -0.000003 -0.174546
 21   3.942357 1.334540 1.627658 0.000002 -0.000011 -0.000026
 22   -0.246060 -0.011889 0.516521 -0.000011 0.000031 0.000025
 23   3.942374 1.334565 -1.631083 0.000019 0.000002 -0.000024
 24   -0.246150 -0.011872 -0.516511 -0.000005 -0.000006 0.000048
 25   4.941364 1.997338 1.629330 0.000018 -0.000001 -0.000024
 26   4.941382 1.997366 -1.629410 -0.000001 0.000005 -0.000024
 27   2.914462 1.619264 1.514501 -0.000019 -0.000022 -0.000050
 28   2.916892 1.618870 -1.501142 -0.000002 -0.000009 -0.000024
 29   8.824059 0.150544 0.091743 0.000006 -0.000231 -0.174534
 30   2.111085 -0.561179 1.784320 -0.000008 -0.000682 0.000024
 31   2.121290 -0.561289 -1.853599 0.000000 0.000000 -0.000002
 32   -0.814395 -0.093824 3.127092 -0.129210 -2.975333 -0.324172
 33   14.298673 -0.408176 0.471578 0.000032 -0.000248 -0.436322
 34   15.835795 0.581398 0.242756 0.161863 -0.014056 0.022620
 35   -0.815868 -0.091229 -3.114430 0.096037 3.002497 -0.031284
 36   14.294526 -0.410349 -0.467541 0.000081 0.000036 -0.399441
 37   15.834409 0.579420 -0.284600 -0.088743 0.040098 0.278088
 38   1.139685 -3.453749 -2.823813 0.000000 0.000000 0.000001
 39   -4.457742 -1.054854 -0.746180 0.000000 0.000000 0.000000
 40   1.118101 -3.449769 3.237290 0.000000 0.000001 0.000000
 41   -4.433840 -1.059130 0.959566 -0.000001 0.000000 0.000000
 42   -0.657468 1.697302 -2.688614 0.000000 0.000002 0.000000
 43   -0.664068 1.698578 2.869377 0.000000 0.000002 0.000000
time 3
  0   0.001233 0.187506 0.867585 0.000000 0.000000 -1.571354
  1   -1.093036 0.000002 -0.326057 -1.570808 -1.570425 0.000022
  2   2.262337 0.113614 0.064702 -0.239658 -0.030476 -0.153000
  3   2.380047 0.353302 0.047440 -0.124448 -0.020234 -0.173039
  4   2.033756 0.190472 -0.000128 -0.357888 0.007191 -0.178614
  5   2.451511 0.204909 -0.003447 -0.360875 0.027581 -0.050113
  6   7.247600 -0.397300 -0.109469 0.000001 0.000033 0.087015
  7   -2.022252 -0.104661 3.136172 0.765049 -1.296857 -3.975213
  8   1.168026 -0.537438 -0.063437 -1.145711 0.676945 -0.734010
  9   6.790376 -0.619176 0.015206 0.005501 0.002852 -1.544217
 10   8.637599 0.544015 -0.090417 -2.141125 0.453324 -0.328419
 11   6.790465 -0.619039 0.017802 0.007191 -0.010571 -1.096198
 12   -2.022474 -0.104699 -2.873818 0.298873 1.361800 -2.936355
 13   1.167898 -0.537463 0.063297 0.933113 -0.227671 -1.831449
 14   7.002743 -0.617765 -0.183752 0.000229 0.000250 -1.194927
 15   8.209042 0.615527 -0.255885 2.164871 0.095873 -0.205857
 16   7.002735 -0.617911 -0.183641 0.014061 0.006578 -0.855092
 17   1.574674 0.609930 -0.000899 0.971582 -0.184925 0.200838
 18   -0.602177 0.511412 -0.000006 0.000000 0.000000 0.000000
 19   3.673773 0.177020 1.119313 -0.000002 -0.000014 -0.174510
 20   3.673767 0.176993 -1.117566 0.000007 -0.000003 -0.174546
 21   3.942357 1.334540 1.627658 0.000002 -0.000011 -0.000026
 22   -0.246060 -0.011889 0.516521 -0.000011 0.000031 0.000025
 23   3.942374 1.334565 -1.631083 0.000019 0.000002 -0.000024
 24   -0.246150 -0.011872 -0.516511 -0.000005 -0.000006 0.000048
 25   4.941364 1.997338 1.629330 0.000018 -0.000001 -0.000024
 26   4.941382 1.997366 -1.629410 -0.000001 0.000005 -0.000024
 27   2.914462 1.619264 1.514501 -0.000019 -0.000022 -0.000050
 28   2.916892 1.618870 -1.501142 -0.000002 -0.000009 -0.000024
 29   8.824059 0.150544 0.091743 0.000006 -0.000231 -0.174534
 30   2.111085 -0.561179 1.784320 -0.000008 -0.000682 0.000024
 31   2.121290 -0.561289 -1.853599 0.000000 0.000000 -0.000002
 32   -0.814395 -0.093824 3.127092 -0.129210 -2.975333 -0.324172
 33   14.298673 -0.408176 0.471578 0.000032 -0.000248 -0.436322
 34   15.835795 0.581398 0.242756 0.161863 -0.014056 0.022620
 35   -0.815868 -0.091229 -3.114430 0.096037 3.002497 -0.031284
 36   14.294526 -0.410349 -0.467541 0.000081 0.000036 -0.399441
 37   15.834409 0.579420 -0.284600 -0.088743 0.040098 0.278088
 38   1.139685 -3.453749 -2.823813 0.000000 0.000000 0.000001
 39   -4.457742 -1.054854 -0.746180 0.000000 0.000000 0.000000
 40   1.118101 -3.449769 3.237290 0.000000 0.000001 0.000000
 41   -4.433840 -1.059130 0.959566 -0.000001 0.000000 0.000000
 42   -0.657468 1.697302 -2.688614 0.000000 0.000002 0.000000
 43   -0.664068 1.698578 2.869377 0.000000 0.000002 0.000000
time 4
  0   0.001233 0.187506 0.867585 0.000000 0.000000 -1.571354
  1   -1.093036 0.000002 -0.326057 -1.570808 -1.570425 0.000022
  2   2.262337 0.113614 0.064702 -0.240384 -0.023741 -0.125786
  3   2.380047 0.353302 0.047440 -0.025907 -0.002006 -0.147634
  4   2.033756 0.190472 -0.000128 -0.268202 0.067689 -0.110071
  5   2.451511 0.204909 -0.003447 -0.269385 0.086684 0.019107
  6   7.247600 -0.397300 -0.109469 0.000001 0.000033 0.087015
  7   -2.022252 -0.104661 3.136172 1.212705 -1.046060 -4.391638
  8   1.168026 -0.537438 -0.063437 -1.180959 0.752819 -0.726735
  9   6.790376 -0.619176 0.015206 0.005889 0.002185 -1.314418
 10   8.637599 0.544015 -0.090417 -2.380485 0.375684 -0.670969
 11   6.790465 -0.619039 0.017802 0.006315 -0.010827 -0.935342
 12   -2.022474 -0.104699 -2.873818 0.298873 1.361800 -2.936355
 13   1.167898 -0.537463 0.063297 0.746336 -0.177173 -1.602749
 14   7.002743 -0.617765 -0.183752 0.000229 0.000250 -0.583644
 15   8.209042 0.615527 -0.255885 2.133450 -0.219778 0.269108
 16   7.002735 -0.617911 -0.183641 0.014532 0.003364 -0.427182
 17   1.574674 0.609930 -0.000899 0.707990 -0.203953 0.054066
 18   -0.602177 0.511412 -0.000006 0.000000 0.000000 0.000000
 19   3.673773 0.177020 1.119313 -0.000002 -0.000014 -0.174510
 20   3.673767 0.176993 -1.117566 0.000007 -0.000003 -0.174546
 21   3.942357 1.334540 1.627658 0.000002 -0.000011 -0.000026
 22   -0.246060 -0.011889 0.516521 -0.000011 0.000031 0.000025
 23   3.942374 1.334565 -1.631083 0.000019 0.000002 -0.000024
 24   -0.246150 -0.011872 -0.516511 -0.000005 -0.000006 0.000048
 25   4.941364 1.997338 1.629330 0.000018 -0.000001 -0.000024
 26   4.941382 1.997366 -1.629410 -0.000001 0.000005 -0.000024
 27   2.914462 1.619264 1.514501 -0.000019 -0.000022 -0.000050
 28   2.916892 1.618870 -1.501142 -0.000002 -0.000009 -0.000024
 29   8.824059 0.150544 0.091743 0.000006 -0.000231 -0.174534
 30   2.111085 -0.561179 1.784320 -0.000008 -0.000682 0.000024
 31   2.121290 -0.561289 -1.853599 0.000000 0.000000 -0.000002
 32   -0.814395 -0.093824 3.127092 -0.129210 -2.975333 -0.324172
 33   14.298673 -0.408176 0.471578 0.000032 -0.000248 -0.436322
 34   15.835795 0.581398 0.242756 0.161863 -0.014056 0.022620
 35   -0.815868 -0.091229 -3.114430 0.096037 3.002497 -0.031284
 36   14.294526 -0.410349 -0.467541 0.000081 0.000036 -0.399441
 37   15.834409 0.579420 -0.284600 -0.088743 0.040098 0.278088
 38   1.139685 -3.453749 -2.823813 0.000000 0.000000 0.000001
 39   -4.457742 -1.054854 -0.746180 0.000000 0.000000 0.000000
 40   1.118101 -3.449769 3.237290 0.000000 0.000001 0.000000
 41   -4.433840 -1.059130 0.959566 -0.000001 0.000000 0.000000
 42   -0.657468 1.697302 -2.688614 0.000000 0.000002 0.000000
 43   -0.664068 1.698578 2.869377 0.000000 0.000002 0.000000
time 5
  0   0.001233 0.187506 0.867585 0.000000 0.000000 -1.571354
  1   -1.093036 0.000002 -0.326057 -1.570808 -1.570425 0.000022
  2   2.262337 0.113614 0.064702 -0.241262 -0.012212 -0.078964
  3   2.380047 0.353302 0.047440 0.126473 0.021305 -0.100048
  4   2.033756 0.190472 -0.000128 -0.124497 0.134527 -0.014959
  5   2.451511 0.204909 -0.003447 -0.123618 0.151166 0.115023
  6   7.247600 -0.397300 -0.109469 0.000001 0.000033 0.087015
  7   -2.022252 -0.104661 3.136172 1.357930 -0.804574 -4.508752
  8   1.168026 -0.537438 -0.063437 -0.833676 0.640769 -0.531324
  9   6.790376 -0.619176 0.015206 0.006111 0.001918 -1.227404
 10   8.637599 0.544015 -0.090417 -2.659122 0.209421 -0.914335
 11   6.790465 -0.619039 0.017802 0.005994 -0.010912 -0.874495
 12   -2.022474 -0.104699 -2.873818 0.298873 1.361800 -2.936355
 13   1.167898 -0.537463 0.063297 0.718991 -0.130488 -1.235545
 14   7.002743 -0.617765 -0.183752 0.000229 0.000250 -0.343966
 15   8.209042 0.615527 -0.255885 1.916590 -0.502442 0.860979
 16   7.002735 -0.617911 -0.183641 0.014626 0.002180 -0.259341
 17   1.574674 0.609930 -0.000899 0.315750 -0.257417 -0.135692
 18   -0.602177 0.511412 -0.000006 0.000000 0.000000 0.000000
 19   3.673773 0.177020 1.119313 -0.000002 -0.000014 -0.174510
 20   3.673767 0.176993 -1.117566 0.000007 -0.000003 -0.174546
 21   3.942357 1.334540 1.627658 0.000002 -0.000011 -0.000026
 22   -0.246060 -0.011889 0.516521 -0.000011 0.000031 0.000025
 23   3.942374 1.334565 -1.631083 0.000019 0.000002 -0.000024
 24   -0.246150 -0.011872 -0.516511 -0.000005 -0.000006 0.000048
 25   4.941364 1.997338 1.629330 0.000018 -0.000001 -0.000024
 26   4.941382 1.997366 -1.629410 -0.000001 0.000005 -0.000024
 27   2.914462 1.619264 1.514501 -0.000019 -0.000022 -0.000050
 28   2.916892 1.618870 -1.501142 -0.000002 -0.000009 -0.000024
 29   8.824059 0.150544 0.091743 0.000006 -0.000231 -0.174534
 30   2.111085 -0.561179 1.784320 -0.000008 -0.000682 0.000024
 31   2.121290 -0.561289 -1.853599 0.000000 0.000000 -0.000002
 32   -0.814395 -0.093824 3.127092 -0.129210 -2.975333 -0.324172
 33   14.298673 -0.408176 0.471578 0.000032 -0.000248 -0.436322
 34   15.835795 0.581398 0.242756 0.161863 -0.014056 0.022620
 35   -0.815868 -0.091229 -3.114430 0.096037 3.002497 -0.031284
 36   14.294526 -0.410349 -0.467541 0.000081 0.000036 -0.399441
 37   15.834409 0.579420 -0.284600 -0.088743 0.040098 0.278088
 38   1.139685 -3.453749 -2.823813 0.000000 0.000000 0.000001
 39   -4.457742 -1.054854 -0.746180 0.000000 0.000000 0.000000
 40   1.118101 -3.449769 3.237290 0.000000 0.000001 0.000000
 41   -4.433840 -1.059130 0.959566 -0.000001 0.000000 0.000000
 42   -0.657468 1.697302 -2.688614 0.000000 0.000002 0.000000
 43   -0.664068 1.698578 2.869377 0.000000 0.000002 0.000000
time 6
  0   0.001233 0.187506 0.867585 0.000000 0.000000 -1.571354
  1   -1.093036 0.000002 -0.326057 -1.570808 -1.570425 0.000022
  2   2.262337 0.113614 0.064702 -0.241454 0.000552 -0.026197
  3   2.380047 0.353302 0.047440 0.291980 0.038419 -0.042893
  4   2.033756 0.190472 -0.000128 0.036396 0.184755 0.087258
  5   2.451511 0.204909 -0.003447 0.039061 0.198531 0.217676
  6   7.247600 -0.397300 -0.109469 0.000001 0.000033 0.087015
  7   -2.022252 -0.104661 3.136172 1.410365 -0.664791 -4.543971
  8   1.168026 -0.537438 -0.063437 -0.575934 0.344367 -0.558842
  9   6.790376 -0.619176 0.015206 0.006611 0.000983 -0.898291
 10   8.637599 0.544015 -0.090417 -2.828647 0.031123 -0.982339
 11   6.790465 -0.619039 0.017802 0.004797 -0.011282 -0.643911
 12   -2.022474 -0.104699 -2.873818 0.298873 1.361771 -2.936355
 13   1.167898 -0.537463 0.063297 0.953429 0.028534 -1.422537
 14   7.002743 -0.617765 -0.183752 0.000229 0.000250 -0.289100
 15   8.209042 0.615527 -0.255885 1.931834 -0.507814 0.826941
 16   7.002735 -0.617911 -0.183641 0.014626 0.002011 -0.220982
 17   1.574674 0.609930 -0.000899 -0.092129 -0.363373 -0.303791
 18   -0.602177 0.511412 -0.000006 0.000000 0.000000 0.000000
 19   3.673773 0.177020 1.119313 -0.000002 -0.000014 -0.174510
 20   3.673767 0.176993 -1.117566 0.000007 -0.000003 -0.174546
 21   3.942357 1.334540 1.627658 0.000002 -0.000011 -0.000026
 22   -0.246060 -0.011889 0.516521 -0.000011 0.000031 0.000025
 23   3.942374 1.334565 -1.631083 0.000019 0.000002 -0.000024
 24   -0.246150 -0.011872 -0.516511 -0.000005 -0.000006 0.000048
 25   4.941364 1.997338 1.629330 0.000018 -0.000001 -0.000024
 26   4.941382 1.997366 -1.629410 -0.000001 0.000005 -0.000024
 27   2.914462 1.619264 1.514501 -0.000019 -0.000022 -0.000050
 28   2.916892 1.618870 -1.501142 -0.000002 -0.000009 -0.000024
 29   8.824059 0.150544 0.091743 0.000006 -0.000231 -0.174534
 30   2.111085 -0.561179 1.784320 -0.000008 -0.000682 0.000024
 31   2.121290 -0.561289 -1.853599 0.000000 0.000000 -0.000002
 32   -0.814395 -0.093824 3.127092 -0.129210 -2.975333 -0.324172
 33   14.298673 -0.408176 0.471578 0.000032 -0.000248 -0.436322
 34   15.835795 0.581398 0.242756 0.161863 -0.014056 0.022620
 35   -0.815868 -0.091229 -3.114430 0.096037 3.002497 -0.031284
 36   14.294526 -0.410349 -0.467541 0.000081 0.000036 -0.399441
 37   15.834409 0.579420 -0.284600 -0.088743 0.040098 0.278088
 38   1.139685 -3.453749 -2.823813 0.000000 0.000000 0.000001
 39   -4.457742 -1.054854 -0.746180 0.000000 0.000000 0.000000
 40   1.118101 -3.449769 3.237290 0.000000 0.000001 0.000000
 41   -4.433840 -1.059130 0.959566 -0.000001 0.000000 0.000000
 42   -0.657468 1.697302 -2.688614 0.000000 0.000002 0.000000
 43   -0.664068 1.698578 2.869377 0.000000 0.000002 0.000000
time 7
  0   0.001233 0.187506 0.867585 0.000000 0.000000 -1.571354
  1   -1.093036 0.000002 -0.326057 -1.570808 -1.570425 0.000022
  2   2.262337 0.113614 0.064702 -0.241313 0.011650 0.018366
  3   2.380047 0.353302 0.047440 0.427604 0.045286 0.007428
  4   2.033756 0.190472 -0.000128 0.170621 0.209659 0.167653
  5   2.451511 0.204909 -0.003447 0.174250 0.220961 0.298114
  6   7.247600 -0.397300 -0.109469 0.000001 0.000033 0.087015
  7   -2.022252 -0.104661 3.136172 1.345852 -0.831729 -4.500018
  8   1.168026 -0.537438 -0.063437 -0.482342 0.276845 -0.510258
  9   6.790376 -0.619176 0.015206 0.006167 0.001851 -1.204990
 10   8.637599 0.544015 -0.090417 -2.748948 -0.005832 -0.744182
 11   6.790465 -0.619039 0.017802 0.005877 -0.010912 -0.858750
 12   -2.022474 -0.104699 -2.873818 0.298873 1.361771 -2.936355
 13   1.167898 -0.537463 0.063297 0.961162 0.170469 -1.668974
 14   7.002743 -0.617765 -0.183752 0.000229 0.000250 -0.347266
 15   8.209042 0.615527 -0.255885 2.000142 -0.463553 0.676478
 16   7.002735 -0.617911 -0.183641 0.014626 0.002180 -0.261714
 17   1.574674 0.609930 -0.000899 -0.419619 -0.472927 -0.396711
 18   -0.602177 0.511412 -0.000006 0.000000 0.000000 0.000000
 19   3.673773 0.177020 1.119313 -0.000002 -0.000014 -0.174510
 20   3.673767 0.176993 -1.117566 0.000007 -0.000003 -0.174546
 21   3.942357 1.334540 1.627658 0.000002 -0.000011 -0.000026
 22   -0.246060 -0.011889 0.516521 -0.000011 0.000031 0.000025
 23   3.942374 1.334565 -1.631083 0.000019 0.000002 -0.000024
 24   -0.246150 -0.011872 -0.516511 -0.000005 -0.000006 0.000048
 25   4.941364 1.997338 1.629330 0.000018 -0.000001 -0.000024
 26   4.941382 1.997366 -1.629410 -0.000001 0.000005 -0.000024
 27   2.914462 1.619264 1.514501 -0.000019 -0.000022 -0.000050
 28   2.916892 1.618870 -1.501142 -0.000002 -0.000009 -0.000024
 29   8.824059 0.150544 0.091743 0.000006 -0.000231 -0.174534
 30   2.111085 -0.561179 1.784320 -0.000008 -0.000682 0.000024
 31   2.121290 -0.561289 -1.853599 0.000000 0.000000 -0.000002
 32   -0.814395 -0.093824 3.127092 -0.129210 -2.975333 -0.324172
 33   14.298673 -0.408176 0.471578 0.000032 -0.000248 -0.436322
 34   15.835795 0.581398 0.242756 0.161863 -0.014056 0.022620
 35   -0.815868 -0.091229 -3.114430 0.096037 3.002497 -0.031284
 36   14.294526 -0.410349 -0.467541 0.000081 0.000036 -0.399441
 37   15.834409 0.579420 -0.284600 -0.088743 0.040098 0.278088
 38   1.139685 -3.453749 -2.823813 0.000000 0.000000 0.000001
 39   -4.457742 -1.054854 -0.746180 0.000000 0.000000 0.000000
 40   1.118101 -3.449769 3.237290 0.000000 0.000001 0.000000
 41   -4.433840 -1.059130 0.959566 -0.000001 0.000000 0.000000
 42   -0.657468 1.697302 -2.688614 0.000000 0.000002 0.000000
 43   -0.664068 1.698578 2.869377 0.000000 0.000002 0.000000
time 8
  0   0.001233 0.187506 0.867585 0.000000 0.000000 -1.571354
  1   -1.093036 0.000002 -0.326057 -1.570808 -1.570425 0.000022
  2   2.262337 0.113614 0.064702 -0.240829 0.017318 0.041623
  3   2.380047 0.353302 0.047440 0.490503 0.046029 0.033383
  4   2.033756 0.190472 -0.000128 0.230872 0.213338 0.193969
  5   2.451511 0.204909 -0.003447 0.234655 0.223428 0.324291
  6   7.247600 -0.397300 -0.109469 0.000001 0.000033 0.087015
  7   -2.022252 -0.104661 3.136172 1.256417 -0.989501 -4.429204
  8   1.168026 -0.537438 -0.063437 -0.572327 0.250732 -0.536258
  9   6.790376 -0.619176 0.015206 0.006278 0.001651 -1.123863
 10   8.637599 0.544015 -0.090417 -2.611039 -0.028005 -0.526859
 11   6.790465 -0.619039 0.017802 0.005585 -0.011054 -0.801883
 12   -2.022474 -0.104699 -2.873818 0.298873 1.361771 -2.936355
 13   1.167898 -0.537463 0.063297 0.930583 -0.050698 -1.656201
 14   7.002743 -0.617765 -0.183752 0.000229 0.000250 -0.631002
 15   8.209042 0.615527 -0.255885 2.026818 -0.422546 0.612552
 16   7.002735 -0.617911 -0.183641 0.014485 0.003590 -0.460408
 17   1.574674 0.609930 -0.000899 -0.574915 -0.505564 -0.395417
 18   -0.602177 0.511412 -0.000006 0.000000 0.000000 0.000000
 19   3.673773 0.177020 1.119313 -0.000002 -0.000014 -0.174510
 20   3.673767 0.176993 -1.117566 0.000007 -0.000003 -0.174546
 21   3.942357 1.334540 1.627658 0.000002 -0.000011 -0.000026
 22   -0.246060 -0.011889 0.516521 -0.000011 0.000031 0.000025
 23   3.942374 1.334565 -1.631083 0.000019 0.000002 -0.000024
 24   -0.246150 -0.011872 -0.516511 -0.000005 -0.000006 0.000048
 25   4.941364 1.997338 1.629330 0.000018 -0.000001 -0.000024
 26   4.941382 1.997366 -1.629410 -0.000001 0.000005 -0.000024
 27   2.914462 1.619264 1.514501 -0.000019 -0.000022 -0.000050
 28   2.916892 1.618870 -1.501142 -0.000002 -0.000009 -0.000024
 29   8.824059 0.150544 0.091743 0.000006 -0.000231 -0.174534
 30   2.111085 -0.561179 1.784320 -0.000008 -0.000682 0.000024
 31   2.121290 -0.561289 -1.853599 0.000000 0.000000 -0.000002
 32   -0.814395 -0.093824 3.127092 -0.129210 -2.975333 -0.324172
 33   14.298673 -0.408176 0.471578 0.000032 -0.000248 -0.436322
 34   15.835795 0.581398 0.242756 0.161863 -0.014056 0.022620
 35   -0.815868 -0.091229 -3.114430 0.096037 3.002497 -0.031284
 36   14.294526 -0.410349 -0.467541 0.000081 0.000036 -0.399441
 37   15.834409 0.579420 -0.284600 -0.088743 0.040098 0.278088
 38   1.139685 -3.453749 -2.823813 0.000000 0.000000 0.000001
 39   -4.457742 -1.054854 -0.746180 0.000000 0.000000 0.000000
 40   1.118101 -3.449769 3.237290 0.000000 0.000001 0.000000
 41   -4.433840 -1.059130 0.959566 -0.000001 0.000000 0.000000
 42   -0.657468 1.697302 -2.688614 0.000000 0.000002 0.000000
 43   -0.664068 1.698578 2.869377 0.000000 0.000002 0.000000
time 9
  0   0.001233 0.187506 0.867585 0.000000 0.000000 -1.571354
  1   -1.093036 0.000002 -0.326057 -1.570808 -1.570425 0.000022
  2   2.262337 0.113614 0.064702 -0.240829 0.017690 0.043430
  3   2.380047 0.353302 0.047440 0.481397 0.045873 0.035240
  4   2.033756 0.190472 -0.000128 0.216709 0.203439 0.164899
  5   2.451511 0.204909 -0.003447 0.220157 0.213976 0.295241
  6   7.247600 -0.397300 -0.109469 0.000001 0.000033 0.087015
  7   -2.022252 -0.104661 3.136172 1.387550 -0.730661 -4.529413
  8   1.168026 -0.537438 -0.063437 -0.618079 0.152418 -0.371275
  9   6.790376 -0.619176 0.015206 0.006666 0.000783 -0.850293
 10   8.637599 0.544015 -0.090417 -2.564012 -0.042928 -0.715461
 11   6.790465 -0.619039 0.017802 0.004621 -0.011310 -0.610402
 12   -2.022474 -0.104699 -2.873818 0.298873 1.361771 -2.936355
 13   1.167898 -0.537463 0.063297 0.958279 -0.351045 -1.574903
 14   7.002743 -0.617765 -0.183752 0.000229 0.000250 -0.934457
 15   8.209042 0.615527 -0.255885 2.049611 -0.378512 0.551753
 16   7.002735 -0.617911 -0.183641 0.014296 0.005169 -0.672790
 17   1.574674 0.609930 -0.000899 -0.555741 -0.459011 -0.332694
 18   -0.602177 0.511412 -0.000006 0.000000 0.000000 0.000000
 19   3.673773 0.177020 1.119313 -0.000002 -0.000014 -0.174510
 20   3.673767 0.176993 -1.117566 0.000007 -0.000003 -0.174546
 21   3.942357 1.334540 1.627658 0.000002 -0.000011 -0.000026
 22   -0.246060 -0.011889 0.516521 -0.000011 0.000031 0.000025
 23   3.942374 1.334565 -1.631083 0.000019 0.000002 -0.000024
 24   -0.246150 -0.011872 -0.516511 -0.000005 -0.000006 0.000048
 25   4.941364 1.997338 1.629330 0.000018 -0.000001 -0.000024
 26   4.941382 1.997366 -1.629410 -0.000001 0.000005 -0.000024
 27   2.914462 1.619264 1.514501 -0.000019 -0.000022 -0.000050
 28   2.916892 1.618870 -1.501142 -0.000002 -0.000009 -0.000024
 29   8.824059 0.150544 0.091743 0.000006 -0.000231 -0.174534
 30   2.111085 -0.561179 1.784320 -0.000008 -0.000682 0.000024
 31   2.121290 -0.561289 -1.853599 0.000000 0.000000 -0.000002
 32   -0.814395 -0.093824 3.127092 -0.129210 -2.975333 -0.324172
 33   14.298673 -0.408176 0.471578 0.000032 -0.000248 -0.436322
 34   15.835795 0.581398 0.242756 0.161863 -0.014056 0.022620
 35   -0.815868 -0.091229 -3.114430 0.096037 3.002497 -0.031284
 36   14.294526 -0.410349 -0.467541 0.000081 0.000036 -0.399441
 37   15.834409 0.579420 -0.284600 -0.088743 0.040098 0.278088
 38   1.139685 -3.453749 -2.823813 0.000000 0.000000 0.000001
 39   -4.457742 -1.054854 -0.746180 0.000000 0.000000 0.000000
 40   1.118101 -3.449769 3.237290 0.000000 0.000001 0.000000
 41   -4.433840 -1.059130 0.959566 -0.000001 0.000000 0.000000
 42   -0.657468 1.697302 -2.688614 0.000000 0.000002 0.000000
 43   -0.664068 1.698578 2.869377 0.000000 0.000002 0.000000
time 10
  0   0.001233 0.187506 0.867585 0.000000 0.000000 -1.571354
  1   -1.093036 0.000002 -0.326057 -1.570808 -1.570425 0.000022
  2   2.262337 0.113614 0.064702 -0.240957 0.015772 0.035280
  3   2.380047 0.353302 0.047440 0.436469 0.045418 0.025874
  4   2.033756 0.190472 -0.000128 0.165789 0.183928 0.105671
  5   2.451511 0.204909 -0.003447 0.168601 0.195411 0.236002
  6   7.247600 -0.397300 -0.109469 0.000001 0.000033 0.087015
  7   -2.022252 -0.104661 3.136172 1.444298 -0.554700 -4.563411
  8   1.168026 -0.537438 -0.063437 -0.584730 0.165399 -0.221095
  9   6.790376 -0.619176 0.015206 0.006666 0.000583 -0.792183
 10   8.637599 0.544015 -0.090417 -2.525087 -0.033144 -0.896900
 11   6.790465 -0.619039 0.017802 0.004388 -0.011395 -0.569741
 12   -2.022474 -0.104699 -2.873818 0.298873 1.361771 -2.936355
 13   1.167898 -0.537463 0.063297 1.007838 -0.515661 -1.516971
 14   7.002743 -0.617765 -0.183752 0.000229 0.000250 -1.111514
 15   8.209042 0.615527 -0.255885 2.074345 -0.340077 0.480430
 16   7.002735 -0.617911 -0.183641 0.014155 0.006127 -0.796698
 17   1.574674 0.609930 -0.000899 -0.440620 -0.392767 -0.256813
 18   -0.602177 0.511412 -0.000006 0.000000 0.000000 0.000000
 19   3.673773 0.177020 1.119313 -0.000002 -0.000014 -0.174510
 20   3.673767 0.176993 -1.117566 0.000007 -0.000003 -0.174546
 21   3.942357 1.334540 1.627658 0.000002 -0.000011 -0.000026
 22   -0.246060 -0.011889 0.516521 -0.000011 0.000031 0.000025
 23   3.942374 1.334565 -1.631083 0.000019 0.000002 -0.000024
 24   -0.246150 -0.011872 -0.516511 -0.000005 -0.000006 0.000048
 25   4.941364 1.997338 1.629330 0.000018 -0.000001 -0.000024
 26   4.941382 1.997366 -1.629410 -0.000001 0.000005 -0.000024
 27   2.914462 1.619264 1.514501 -0.000019 -0.000022 -0.000050
 28   2.916892 1.618870 -1.501142 -0.000002 -0.000009 -0.000024
 29   8.824059 0.150544 0.091743 0.000006 -0.000231 -0.174534
 30   2.111085 -0.561179 1.784320 -0.000008 -0.000682 0.000024
 31   2.121290 -0.561289 -1.853599 0.000000 0.000000 -0.000002
 32   -0.814395 -0.093824 3.127092 -0.129210 -2.975333 -0.324172
 33   14.298673 -0.408176 0.471578 0.000032 -0.000248 -0.436322
 34   15.835795 0.581398 0.242756 0.161863 -0.014056 0.022620
 35   -0.815868 -0.091229 -3.114430 0.096037 3.002497 -0.031284
 36   14.294526 -0.410349 -0.467541 0.000081 0.000036 -0.399441
 37   15.834409 0.579420 -0.284600 -0.088743 0.040098 0.278088
 38   1.139685 -3.453749 -2.823813 0.000000 0.000000 0.000001
 39   -4.457742 -1.054854 -0.746180 0.000000 0.000000 0.000000
 40   1.118101 -3.449769 3.237290 0.000000 0.000001 0.000000
 41   -4.433840 -1.059130 0.959566 -0.000001 0.000000 0.000000
 42   -0.657468 1.697302 -2.688614 0.000000 0.000002 0.000000
 43   -0.664068 1.698578 2.869377 0.000000 0.000002 0.000000
time 11
  0   0.001233 0.187506 0.867585 0.000000 0.000000 -1.571354
  1   -1.093036 0.000002 -0.326057 -1.570808 -1.570425 0.000022
  2   2.262337 0.113614 0.064702 -0.241262 0.011973 0.019865
  3   2.380047 0.353302 0.047440 0.365650 0.043752 0.008183
  4   2.033756 0.190472 -0.000128 0.090193 0.152816 0.026906
  5   2.451511 0.204909 -0.003447 0.091986 0.165696 0.156976
  6   7.247600 -0.397300 -0.109469 0.000001 0.000033 0.087015
  7   -2.022252 -0.104661 3.136172 1.237437 -1.015445 -4.413051
  8   1.168026 -0.537438 -0.063437 -0.415835 0.351109 -0.511460
  9   6.790376 -0.619176 0.015206 0.006278 0.001384 -1.050433
 10   8.637599 0.544015 -0.090417 -2.459479 -0.024627 -0.690068
 11   6.790465 -0.619039 0.017802 0.005322 -0.011140 -0.750552
 12   -2.022474 -0.104699 -2.873818 0.298873 1.361771 -2.936355
 13   1.167898 -0.537463 0.063297 1.033778 -0.720503 -1.479803
 14   7.002743 -0.617765 -0.183752 0.000229 0.000250 -1.270832
 15   8.209042 0.615527 -0.255885 2.096995 -0.300961 0.409167
 16   7.002735 -0.617911 -0.183641 0.013967 0.006973 -0.908188
 17   1.574674 0.609930 -0.000899 -0.251528 -0.315329 -0.171692
 18   -0.602177 0.511412 -0.000006 0.000000 0.000000 0.000000
 19   3.673773 0.177020 1.119313 -0.000002 -0.000014 -0.174510
 20   3.673767 0.176993 -1.117566 0.000007 -0.000003 -0.174546
 21   3.942357 1.334540 1.627658 0.000002 -0.000011 -0.000026
 22   -0.246060 -0.011889 0.516521 -0.000011 0.000031 0.000025
 23   3.942374 1.334565 -1.631083 0.000019 0.000002 -0.000024
 24   -0.246150 -0.011872 -0.516511 -0.000005 -0.000006 0.000048
 25   4.941364 1.997338 1.629330 0.000018 -0.000001 -0.000024
 26   4.941382 1.997366 -1.629410 -0.000001 0.000005 -0.000024
 27   2.914462 1.619264 1.514501 -0.000019 -0.000022 -0.000050
 28   2.916892 1.618870 -1.501142 -0.000002 -0.000009 -0.000024
 29   8.824059 0.150544 0.091743 0.000006 -0.000231 -0.174534
 30   2.111085 -0.561179 1.784320 -0.000008 -0.000682 0.000024
 31   2.121290 -0.561289 -1.853599 0.000000 0.000000 -0.000002
 32   -0.814395 -0.093824 3.127092 -0.129210 -2.975333 -0.324172
 33   14.298673 -0.408176 0.471578 0.000032 -0.000248 -0.436322
 34   15.835795 0.581398 0.242756 0.161863 -0.014056 0.022620
 35   -0.815868 -0.091229 -3.114430 0.096037 3.002497 -0.031284
 36   14.294526 -0.410349 -0.467541 0.000081 0.000036 -0.399441
 37   15.834409 0.579420 -0.284600 -0.088743 0.040098 0.278088
 38   1.139685 -3.453749 -2.823813 0.000000 0.000000 0.000001
 39   -4.457742 -1.054854 -0.746180 0.000000 0.000000 0.000000
 40   1.118101 -3.449769 3.237290 0.000000 0.000001 0.000000
 41   -4.433840 -1.059130 0.959566 -0.000001 0.000000 0.000000
 42   -0.657468 1.697302 -2.688614 0.000000 0.000002 0.000000
 43   -0.664068 1.698578 2.869377 0.000000 0.000002 0.000000
time 12
  0   0.001233 0.187506 0.867585 0.000000 0.000000 -1.571354
  1   -1.093036 0.000002 -0.326057 -1.570808 -1.570425 0.000022
  2   2.262337 0.113614 0.064702 -0.241441 0.007096 -0.000031
  3   2.380047 0.353302 0.047440 0.278509 0.039917 -0.014427
  4   2.033756 0.190472 -0.000128 0.002111 0.109252 -0.061319
  5   2.451511 0.204909 -0.003447 0.002482 0.123801 0.068489
  6   7.247600 -0.397300 -0.109469 0.000001 0.000033 0.087015
  7   -2.022252 -0.104661 3.136172 -0.298783 -1.361862 -2.935559
  8   1.168026 -0.537438 -0.063437 -0.206946 0.585674 -0.891212
  9   6.790376 -0.619176 0.015206 0.006111 0.001918 -1.234498
 10   8.637599 0.544015 -0.090417 -2.382687 -0.035467 -0.389767
 11   6.790465 -0.619039 0.017802 0.006023 -0.010912 -0.879340
 12   -2.022474 -0.104699 -2.873818 0.298873 1.361771 -2.936355
 13   1.167898 -0.537463 0.063297 1.001652 -0.943297 -1.431920
 14   7.002743 -0.617765 -0.183752 0.000229 0.000250 -1.418599
 15   8.209042 0.615527 -0.255885 2.116840 -0.260937 0.338566
 16   7.002735 -0.617911 -0.183641 0.013779 0.007819 -1.011729
 17   1.574674 0.609930 -0.000899 -0.015233 -0.229277 -0.077996
 18   -0.602177 0.511412 -0.000006 0.000000 0.000000 0.000000
 19   3.673773 0.177020 1.119313 -0.000002 -0.000014 -0.174510
 20   3.673767 0.176993 -1.117566 0.000007 -0.000003 -0.174546
 21   3.942357 1.334540 1.627658 0.000002 -0.000011 -0.000026
 22   -0.246060 -0.011889 0.516521 -0.000011 0.000031 0.000025
 23   3.942374 1.334565 -1.631083 0.000019 0.000002 -0.000024
 24   -0.246150 -0.011872 -0.516511 -0.000005 -0.000006 0.000048
 25   4.941364 1.997338 1.629330 0.000018 -0.000001 -0.000024
 26   4.941382 1.997366 -1.629410 -0.000001 0.000005 -0.000024
 27   2.914462 1.619264 1.514501 -0.000019 -0.000022 -0.000050
 28   2.916892 1.618870 -1.501142 -0.000002 -0.000009 -0.000024
 29   8.824059 0.150544 0.091743 0.000006 -0.000231 -0.174534
 30   2.111085 -0.561179 1.784320 -0.000008 -0.000682 0.000024
 31   2.121290 -0.561289 -1.853599 0.000000 0.000000 -0.000002
 32   -0.814395 -0.093824 3.127092 -0.129210 -2.975333 -0.324172
 33   14.298673 -0.408176 0.471578 0.000032 -0.000248 -0.436322
 34   15.835795 0.581398 0.242756 0.161863 -0.014056 0.022620
 35   -0.815868 -0.091229 -3.114430 0.096037 3.002497 -0.031284
 36   14.294526 -0.410349 -0.467541 0.000081 0.000036 -0.399441
 37   15.834409 0.579420 -0.284600 -0.088743 0.040098 0.278088
 38   1.139685 -3.453749 -2.823813 0.000000 0.000000 0.000001
 39   -4.457742 -1.054854 -0.746180 0.000000 0.000000 0.000000
 40   1.118101 -3.449769 3.237290 0.000000 0.000001 0.000000
 41   -4.433840 -1.059130 0.959566 -0.000001 0.000000 0.000000
 42   -0.657468 1.697302 -2.688614 0.000000 0.000002 0.000000
 43   -0.664068 1.698578 2.869377 0.000000 0.000002 0.000000
time 13
  0   0.001233 0.187506 0.867585 0.000000 0.000000 -1.571354
  1   -1.093036 0.000002 -0.326057 -1.570808 -1.570425 0.000022
  2   2.262337 0.113614 0.064702 -0.241441 0.001774 -0.021643
  3   2.380047 0.353302 0.047440 0.184992 0.033565 -0.038709
  4   2.033756 0.190472 -0.000128 -0.087022 0.055429 -0.149363
  5   2.451511 0.204909 -0.003447 -0.088306 0.071252 -0.019701
  6   7.247600 -0.397300 -0.109469 0.000001 0.000033 0.087015
  7   -2.022252 -0.104661 3.136172 -0.298783 -1.361862 -2.935559
  8   1.168026 -0.537438 -0.063437 0.030040 0.734404 -0.549100
  9   6.790376 -0.619176 0.015206 0.005557 0.002718 -1.499238
 10   8.637599 0.544015 -0.090417 -2.282557 -0.061089 -0.232563
 11   6.790465 -0.619039 0.017802 0.007045 -0.010599 -1.064707
 12   -2.022474 -0.104699 -2.873818 0.298873 1.361800 -2.936355
 13   1.167898 -0.537463 0.063297 0.847141 -1.154953 -1.305826
 14   7.002743 -0.617765 -0.183752 0.000286 0.000250 -1.560426
 15   8.209042 0.615527 -0.255885 2.133809 -0.219930 0.268626
 16   7.002735 -0.617911 -0.183641 0.013637 0.008608 -1.110966
 17   1.574674 0.609930 -0.000899 0.239382 -0.137307 0.027380
 18   -0.602177 0.511412 -0.000006 0.000000 0.000000 0.000000
 19   3.673773 0.177020 1.119313 -0.000002 -0.000014 -0.174510
 20   3.673767 0.176993 -1.117566 0.000007 -0.000003 -0.174546
 21   3.942357 1.334540 1.627658 0.000002 -0.000011 -0.000026
 22   -0.246060 -0.011889 0.516521 -0.000011 0.000031 0.000025
 23   3.942374 1.334565 -1.631083 0.000019 0.000002 -0.000024
 24   -0.246150 -0.011872 -0.516511 -0.000005 -0.000006 0.000048
 25   4.941364 1.997338 1.629330 0.000018 -0.000001 -0.000024
 26   4.941382 1.997366 -1.629410 -0.000001 0.000005 -0.000024
 27   2.914462 1.619264 1.514501 -0.000019 -0.000022 -0.000050
 28   2.916892 1.618870 -1.501142 -0.000002 -0.000009 -0.000024
 29   8.824059 0.150544 0.091743 0.000006 -0.000231 -0.174534
 30   2.111085 -0.561179 1.784320 -0.000008 -0.000682 0.000024
 31   2.121290 -0.561289 -1.853599 0.000000 0.000000 -0.000002
 32   -0.814395 -0.093824 3.127092 -0.129210 -2.975333 -0.324172
 33   14.298673 -0.408176 0.471578 0.000032 -0.000248 -0.436322
 34   15.835795 0.581398 0.242756 0.161863 -0.014056 0.022620
 35   -0.815868 -0.091229 -3.114430 0.096037 3.002497 -0.031284
 36   14.294526 -0.410349 -0.467541 0.000081 0.000036 -0.399441
 37   15.834409 0.579420 -0.284600 -0.088743 0.040098 0.278088
 38   1.139685 -3.453749 -2.823813 0.000000 0.000000 0.000001
 39   -4.457742 -1.054854 -0.746180 0.000000 0.000000 0.000000
 40   1.118101 -3.449769 3.237290 0.000000 0.000001 0.000000
 41   -4.433840 -1.059130 0.959566 -0.000001 0.000000 0.000000
 42   -0.657468 1.697302 -2.688614 0.000000 0.000002 0.000000
 43   -0.664068 1.698578 2.869377 0.000000 0.000002 0.000000
time 14
  0   0.001233 0.187506 0.867585 0.000000 0.000000 -1.571354
  1   -1.093036 0.000002 -0.326057 -1.570808 -1.570425 0.000022
  2   2.262337 0.113614 0.064702 -0.241441 -0.003331 -0.042551
  3   2.380047 0.353302 0.047440 0.094911 0.025211 -0.061258
  4   2.033756 0.190472 -0.000128 -0.168040 -0.003895 -0.230338
  5   2.451511 0.204909 -0.003447 -0.171083 0.013273 -0.100956
  6   7.247600 -0.397300 -0.109469 0.000001 0.000033 0.087015
  7   -2.022252 -0.104661 3.136172 -0.298783 -1.361862 -2.935559
  8   1.168026 -0.537438 -0.063437 0.354858 0.838604 -0.073825
  9   6.790376 -0.619176 0.015206 0.005113 0.003319 -1.745639
 10   8.637599 0.544015 -0.090417 -2.119108 -0.070240 -0.144303
 11   6.790465 -0.619039 0.017802 0.007979 -0.010315 -1.237213
 12   -2.022474 -0.104699 -2.873818 0.298873 1.361771 -2.936355
 13   1.167898 -0.537463 0.063297 0.410742 -1.308738 -0.932266
 14   7.002743 -0.617765 -0.183752 0.000286 0.000250 -1.702005
 15   8.209042 0.615527 -0.255885 2.147470 -0.177939 0.200190
 16   7.002735 -0.617911 -0.183641 0.013402 0.009454 -1.210037
 17   1.574674 0.609930 -0.000899 0.485141 -0.047988 0.146025
 18   -0.602177 0.511412 -0.000006 0.000000 0.000000 0.000000
 19   3.673773 0.177020 1.119313 -0.000002 -0.000014 -0.174510
 20   3.673767 0.176993 -1.117566 0.000007 -0.000003 -0.174546
 21   3.942357 1.334540 1.627658 0.000002 -0.000011 -0.000026
 22   -0.246060 -0.011889 0.516521 -0.000011 0.000031 0.000025
 23   3.942374 1.334565 -1.631083 0.000019 0.000002 -0.000024
 24   -0.246150 -0.011872 -0.516511 -0.000005 -0.000006 0.000048
 25   4.941364 1.997338 1.629330 0.000018 -0.000001 -0.000024
 26   4.941382 1.997366 -1.629410 -0.000001 0.000005 -0.000024
 27   2.914462 1.619264 1.514501 -0.000019 -0.000022 -0.000050
 28   2.916892 1.618870 -1.501142 -0.000002 -0.000009 -0.000024
 29   8.824059 0.150544 0.091743 0.000006 -0.000231 -0.174534
 30   2.111085 -0.561179 1.784320 -0.000008 -0.000682 0.000024
 31   2.121290 -0.561289 -1.853599 0.000000 0.000000 -0.000002
 32   -0.814395 -0.093824 3.127092 -0.129210 -2.975333 -0.324172
 33   14.298673 -0.408176 0.471578 0.000032 -0.000248 -0.436322
 34   15.835795 0.581398 0.242756 0.161863 -0.014056 0.022620
 35   -0.815868 -0.091229 -3.114430 0.096037 3.002497 -0.031284
 36   14.294526 -0.410349 -0.467541 0.000081 0.000036 -0.399441
 37   15.834409 0.579420 -0.284600 -0.088743 0.040098 0.278088
 38   1.139685 -3.453749 -2.823813 0.000000 0.000000 0.000001
 39   -4.457742 -1.054854 -0.746180 0.000000 0.000000 0.000000
 40   1.118101 -3.449769 3.237290 0.000000 0.000001 0.000000
 41   -4.433840 -1.059130 0.959566 -0.000001 0.000000 0.000000
 42   -0.657468 1.697302 -2.688614 0.000000 0.000002 0.000000
 43   -0.664068 1.698578 2.869377 0.000000 0.000002 0.000000
time 15
  0   0.001233 0.187506 0.867585 0.000000 0.000000 -1.571354
  1   -1.093036 0.000002 -0.326057 -1.570808 -1.570425 0.000022
  2   2.262337 0.113614 0.064702 -0.241441 -0.007502 -0.059755
  3   2.380047 0.353302 0.047440 0.018016 0.016726 -0.079276
  4   2.033756 0.190472 -0.000128 -0.233161 -0.061421 -0.298519
  5   2.451511 0.204909 -0.003447 -0.237822 -0.043141 -0.169086
  6   7.247600 -0.397300 -0.109469 0.000001 0.000033 0.087015
  7   -2.022252 -0.104661 3.136172 -0.298783 -1.361862 -2.935559
  8   1.168026 -0.537438 -0.063437 0.636962 0.931032 0.320857
  9   6.790376 -0.619176 0.015206 0.004724 0.003720 -1.892952
 10   8.637599 0.544015 -0.090417 -1.944564 -0.086781 -0.069571
 11   6.790465 -0.619039 0.017802 0.008592 -0.010088 -1.340393
 12   -2.022474 -0.104699 -2.873818 0.298873 1.361771 -2.936355
 13   1.167898 -0.537463 0.063297 -0.321746 -1.331368 -0.279459
 14   7.002743 -0.617765 -0.183752 0.000286 0.000250 -1.849772
 15   8.209042 0.615527 -0.255885 2.158112 -0.134813 0.133438
 16   7.002735 -0.617911 -0.183641 0.013167 0.010356 -1.313523
 17   1.574674 0.609930 -0.000899 0.696494 0.026420 0.270916
 18   -0.602177 0.511412 -0.000006 0.000000 0.000000 0.000000
 19   3.673773 0.177020 1.119313 -0.000002 -0.000014 -0.174510
 20   3.673767 0.176993 -1.117566 0.000007 -0.000003 -0.174546
 21   3.942357 1.334540 1.627658 0.000002 -0.000011 -0.000026
 22   -0.246060 -0.011889 0.516521 -0.000011 0.000031 0.000025
 23   3.942374 1.334565 -1.631083 0.000019 0.000002 -0.000024
 24   -0.246150 -0.011872 -0.516511 -0.000005 -0.000006 0.000048
 25   4.941364 1.997338 1.629330 0.000018 -0.000001 -0.000024
 26   4.941382 1.997366 -1.629410 -0.000001 0.000005 -0.000024
 27   2.914462 1.619264 1.514501 -0.000019 -0.000022 -0.000050
 28   2.916892 1.618870 -1.501142 -0.000002 -0.000009 -0.000024
 29   8.824059 0.150544 0.091743 0.000006 -0.000231 -0.174534
 30   2.111085 -0.561179 1.784320 -0.000008 -0.000682 0.000024
 31   2.121290 -0.561289 -1.853599 0.000000 0.000000 -0.000002
 32   -0.814395 -0.093824 3.127092 -0.129210 -2.975333 -0.324172
 33   14.298673 -0.408176 0.471578 0.000032 -0.000248 -0.436322
 34   15.835795 0.581398 0.242756 0.161863 -0.014056 0.022620
 35   -0.815868 -0.091229 -3.114430 0.096037 3.002497 -0.031284
 36   14.294526 -0.410349 -0.467541 0.000081 0.000036 -0.399441
 37   15.834409 0.579420 -0.284600 -0.088743 0.040098 0.278088
 38   1.139685 -3.453749 -2.823813 0.000000 0.000000 0.000001
 39   -4.457742 -1.054854 -0.746180 0.000000 0.000000 0.000000
 40   1.118101 -3.449769 3.237290 0.000000 0.000001 0.000000
 41   -4.433840 -1.059130 0.959566 -0.000001 0.000000 0.000000
 42   -0.657468 1.697302 -2.688614 0.000000 0.000002 0.000000
 43   -0.664068 1.698578 2.869377 0.000000 0.000002 0.000000
end
