version 1
nodes
  0 "Bip01" -1
  1 "Bip01 Pelvis" 0
  2 "Bip01 Spine" 1
  3 "Bip01 Spine1" 2
  4 "Bip01 Spine2" 3
  5 "Bip01 Spine3" 4
  6 "Bip01 Neck" 5
  7 "Bip01 L Arm" 6
  8 "Bip01 L Arm1" 7
  9 "Bip01 L Arm2" 8
 10 "Bip01 L Hand" 9
 11 "Bip06 L elbow2-smooth" 8
 12 "Bip01 R Arm" 6
 13 "Bip01 R Arm1" 12
 14 "Bip01 R Arm2" 13
 15 "Bip01 R Hand" 14
 16 "Bip06 R elbow2-smooth" 13
 17 "Bip01 Head" 6
 18 "Bip06 Head_helper" 17
 19 "Bip06 Head_eyes_l" 18
 20 "Bip06 Head_eyes_r" 18
 21 "Bip06 Head_blink_l" 18
 22 "Bip06 Head_blink_smooth_l1" 21
 23 "Bip06 Head_blink_r" 18
 24 "Bip06 Head_blink_smooth_r1" 23
 25 "Bip06 Head_L_eyebrow" 18
 26 "Bip06 Head_R_eyebrow" 18
 27 "Bip06 Head_blink_l_lid" 18
 28 "Bip06 Head_blink_r_lid" 18
 29 "Bip06 bunny" 18
 30 "Bip06 bunnyL" 29
 31 "Bip06 bunnyR" 29
 32 "Bip01 L Leg" 1
 33 "Bip01 L Leg1" 32
 34 "Bip01 L Foot" 33
 35 "Bip01 R Leg" 1
 36 "Bip01 R Leg1" 35
 37 "Bip01 R Foot" 36
 38 "Bip03 HairR1" 17
 39 "Bip03 HairR2" 38
 40 "Bip03 HairL1" 17
 41 "Bip03 HairL2" 40
 42 "Bip03 swingR" 17
 43 "Bip03 swingL" 17
end
skeleton
time 0
  0   -0.010486 -0.546892 -0.601210 0.000000 0.000000 -1.571354
  1   -1.093036 0.000002 -0.326057 -0.214066 -1.569082 -1.356583
  2   2.262337 0.113614 0.064702 -0.278431 -0.058664 0.415166
  3   2.380047 0.353302 0.047440 -0.352419 0.067241 0.395255
  4   2.033756 0.190472 -0.000128 -0.243747 -0.007263 0.152103
  5   2.451511 0.204909 -0.003447 -0.458030 0.075078 0.142810
  6   7.247600 -0.397300 -0.109469 0.000001 0.000021 0.156829
  7   -2.022252 -0.104661 3.136172 0.805692 -0.995266 -3.940088
  8   1.168026 -0.537438 -0.063437 0.350302 0.993472 -0.542521
  9   6.790376 -0.619176 0.015206 0.044559 0.044097 -0.526689
 10   8.637599 0.544015 -0.090417 -3.044670 0.662313 -0.399244
 11   6.790465 -0.619039 0.017802 0.032154 0.017684 -0.384143
 12   -2.022474 -0.104699 -2.873818 -2.450406 1.732348 -5.756505
 13   1.167898 -0.537463 0.063297 -1.913816 -0.564837 1.744521
 14   7.002743 -0.617765 -0.183752 0.038260 -0.176236 -1.913961
 15   8.209042 0.615527 -0.255885 1.087191 -0.015195 0.420954
 16   7.002735 -0.617911 -0.183641 0.003799 -0.125201 -1.354366
 17   1.574674 0.609930 -0.000899 0.904963 -0.175837 0.289767
 18   -0.602177 0.511412 -0.000006 0.000000 0.000000 0.000000
 19   3.673773 0.177020 1.119313 -0.000002 -0.000014 -0.174510
 20   3.673767 0.176993 -1.117566 0.000007 -0.000003 -0.174546
 21   3.942357 1.334540 1.627658 0.000002 -0.000011 -0.000026
 22   -0.246060 -0.011889 0.516521 -0.000011 0.000031 0.000025
 23   3.942374 1.334565 -1.631083 0.000019 0.000002 -0.000024
 24   -0.246150 -0.011872 -0.516511 -0.000005 -0.000006 0.000048
 25   4.941364 1.997338 1.629330 0.000018 -0.000001 -0.000024
 26   4.941382 1.997366 -1.629410 -0.000001 0.000005 -0.000024
 27   2.914462 1.619264 1.514501 -0.000019 -0.000022 -0.000050
 28   2.916892 1.618870 -1.501142 -0.000002 -0.000009 -0.000024
 29   8.824059 0.150544 0.091743 0.000006 -0.000231 -0.174534
 30   2.111085 -0.561179 1.784320 -0.000008 -0.000682 0.000024
 31   2.121290 -0.561289 -1.853599 0.000000 0.000000 -0.000002
 32   -0.814395 -0.093824 3.127092 0.564173 -3.064346 -0.563643
 33   14.298673 -0.408176 0.471578 -0.006380 -0.009799 -0.413614
 34   15.835795 0.581398 0.242756 -0.007436 -0.212263 -0.117891
 35   -0.815868 -0.091229 -3.114430 -0.120039 3.021422 -0.057358
 36   14.294526 -0.410349 -0.467541 0.001651 0.012787 -0.721549
 37   15.834409 0.579420 -0.284600 -0.182289 -0.002288 0.569929
 38   1.139685 -3.453749 -2.823813 0.000000 0.000000 0.000001
 39   -4.457742 -1.054854 -0.746180 0.000000 0.000000 0.000000
 40   1.118101 -3.449769 3.237290 0.000000 0.000001 0.000000
 41   -4.433840 -1.059130 0.959566 -0.000001 0.000000 0.000000
 42   -0.657468 1.697302 -2.688614 0.000000 0.000002 0.000000
 43   -0.664068 1.698578 2.869377 0.000000 0.000002 0.000000
time 1
  0   -0.010486 -0.546892 -0.601210 0.000000 0.000000 -1.571354
  1   -1.093036 0.000002 -0.326057 -0.214066 -1.569082 -1.356583
  2   2.262337 0.113614 0.064702 -0.263324 -0.059215 0.413846
  3   2.380047 0.353302 0.047440 -0.338783 0.065060 0.395663
  4   2.033756 0.190472 -0.000128 -0.238196 -0.008101 0.153263
  5   2.451511 0.204909 -0.003447 -0.454538 0.085770 0.140383
  6   7.247600 -0.397300 -0.109469 0.000001 0.000021 0.156829
  7   -2.022252 -0.104661 3.136172 0.781345 -0.968169 -3.906278
  8   1.168026 -0.537438 -0.063437 0.320117 0.956139 -0.560487
  9   6.790376 -0.619176 0.015206 0.042562 0.037957 -0.464654
 10   8.637599 0.544015 -0.090417 -3.117940 0.693144 -0.436212
 11   6.790465 -0.619039 0.017802 0.029905 0.013818 -0.340772
 12   -2.022474 -0.104699 -2.873818 -2.463340 1.722770 -5.769813
 13   1.167898 -0.537463 0.063297 -1.925555 -0.624083 1.727995
 14   7.002743 -0.617765 -0.183752 0.035584 -0.174476 -1.883599
 15   8.209042 0.615527 -0.255885 1.123430 0.006217 0.431719
 16   7.002735 -0.617911 -0.183641 0.002998 -0.123227 -1.333393
 17   1.574674 0.609930 -0.000899 0.962361 -0.165045 0.260567
 18   -0.602177 0.511412 -0.000006 0.000000 0.000000 0.000000
 19   3.673773 0.177020 1.119313 -0.000002 -0.000014 -0.174510
 20   3.673767 0.176993 -1.117566 0.000007 -0.000003 -0.174546
 21   3.942357 1.334540 1.627658 0.000002 -0.000011 -0.000026
 22   -0.246060 -0.011889 0.516521 -0.000011 0.000031 0.000025
 23   3.942374 1.334565 -1.631083 0.000019 0.000002 -0.000024
 24   -0.246150 -0.011872 -0.516511 -0.000005 -0.000006 0.000048
 25   4.941364 1.997338 1.629330 0.000018 -0.000001 -0.000024
 26   4.941382 1.997366 -1.629410 -0.000001 0.000005 -0.000024
 27   2.914462 1.619264 1.514501 -0.000019 -0.000022 -0.000050
 28   2.916892 1.618870 -1.501142 -0.000002 -0.000009 -0.000024
 29   8.824059 0.150544 0.091743 0.000006 -0.000231 -0.174534
 30   2.111085 -0.561179 1.784320 -0.000008 -0.000682 0.000024
 31   2.121290 -0.561289 -1.853599 0.000000 0.000000 -0.000002
 32   -0.814395 -0.093824 3.127092 0.564173 -3.064346 -0.563643
 33   14.298673 -0.408176 0.471578 -0.006380 -0.009799 -0.413614
 34   15.835795 0.581398 0.242756 -0.007436 -0.212263 -0.117891
 35   -0.815868 -0.091229 -3.114430 -0.120039 3.021422 -0.057358
 36   14.294526 -0.410349 -0.467541 0.001651 0.012787 -0.721549
 37   15.834409 0.579420 -0.284600 -0.182289 -0.002288 0.569929
 38   1.139685 -3.453749 -2.823813 0.000000 0.000000 0.000001
 39   -4.457742 -1.054854 -0.746180 0.000000 0.000000 0.000000
 40   1.118101 -3.449769 3.237290 0.000000 0.000001 0.000000
 41   -4.433840 -1.059130 0.959566 -0.000001 0.000000 0.000000
 42   -0.657468 1.697302 -2.688614 0.000000 0.000002 0.000000
 43   -0.664068 1.698578 2.869377 0.000000 0.000002 0.000000
time 2
  0   -0.010486 -0.546892 -0.601210 0.000000 0.000000 -1.571354
  1   -1.093036 0.000002 -0.326057 -0.214066 -1.569082 -1.356583
  2   2.262337 0.113614 0.064702 -0.241938 -0.062547 0.411208
  3   2.380047 0.353302 0.047440 -0.320016 0.059140 0.395765
  4   2.033756 0.190472 -0.000128 -0.230044 -0.010127 0.150654
  5   2.451511 0.204909 -0.003447 -0.449934 0.102468 0.136594
  6   7.247600 -0.397300 -0.109469 0.000001 0.000021 0.156829
  7   -2.022252 -0.104661 3.136172 0.774730 -0.969466 -3.888152
  8   1.168026 -0.537438 -0.063437 0.242978 0.941900 -0.545937
  9   6.790376 -0.619176 0.015206 0.041507 0.035288 -0.437864
 10   8.637599 0.544015 -0.090417 -3.152637 0.772193 -0.419428
 11   6.790465 -0.619039 0.017802 0.028854 0.012141 -0.321970
 12   -2.022474 -0.104699 -2.873818 -2.442934 1.720564 -5.752292
 13   1.167898 -0.537463 0.063297 -1.927664 -0.714349 1.663767
 14   7.002743 -0.617765 -0.183752 0.031884 -0.171239 -1.836076
 15   8.209042 0.615527 -0.255885 1.194038 0.017339 0.441521
 16   7.002735 -0.617911 -0.183641 0.002057 -0.120013 -1.300553
 17   1.574674 0.609930 -0.000899 1.007776 -0.127556 0.235619
 18   -0.602177 0.511412 -0.000006 0.000000 0.000000 0.000000
 19   3.673773 0.177020 1.119313 -0.000002 -0.000014 -0.174510
 20   3.673767 0.176993 -1.117566 0.000007 -0.000003 -0.174546
 21   3.942357 1.334540 1.627658 0.000002 -0.000011 -0.000026
 22   -0.246060 -0.011889 0.516521 -0.000011 0.000031 0.000025
 23   3.942374 1.334565 -1.631083 0.000019 0.000002 -0.000024
 24   -0.246150 -0.011872 -0.516511 -0.000005 -0.000006 0.000048
 25   4.941364 1.997338 1.629330 0.000018 -0.000001 -0.000024
 26   4.941382 1.997366 -1.629410 -0.000001 0.000005 -0.000024
 27   2.914462 1.619264 1.514501 -0.000019 -0.000022 -0.000050
 28   2.916892 1.618870 -1.501142 -0.000002 -0.000009 -0.000024
 29   8.824059 0.150544 0.091743 0.000006 -0.000231 -0.174534
 30   2.111085 -0.561179 1.784320 -0.000008 -0.000682 0.000024
 31   2.121290 -0.561289 -1.853599 0.000000 0.000000 -0.000002
 32   -0.814395 -0.093824 3.127092 0.564173 -3.064346 -0.563643
 33   14.298673 -0.408176 0.471578 -0.006380 -0.009799 -0.413614
 34   15.835795 0.581398 0.242756 -0.007436 -0.212263 -0.117891
 35   -0.815868 -0.091229 -3.114430 -0.120039 3.021422 -0.057358
 36   14.294526 -0.410349 -0.467541 0.001651 0.012787 -0.721549
 37   15.834409 0.579420 -0.284600 -0.182289 -0.002288 0.569929
 38   1.139685 -3.453749 -2.823813 0.000000 0.000000 0.000001
 39   -4.457742 -1.054854 -0.746180 0.000000 0.000000 0.000000
 40   1.118101 -3.449769 3.237290 0.000000 0.000001 0.000000
 41   -4.433840 -1.059130 0.959566 -0.000001 0.000000 0.000000
 42   -0.657468 1.697302 -2.688614 0.000000 0.000002 0.000000
 43   -0.664068 1.698578 2.869377 0.000000 0.000002 0.000000
time 3
  0   -0.010486 -0.546892 -0.601210 0.000000 0.000000 -1.571354
  1   -1.093036 0.000002 -0.326057 -0.214066 -1.569082 -1.356583
  2   2.262337 0.113614 0.064702 -0.216564 -0.066370 0.406853
  3   2.380047 0.353302 0.047440 -0.297845 0.051026 0.394520
  4   2.033756 0.190472 -0.000128 -0.220122 -0.012883 0.145470
  5   2.451511 0.204909 -0.003447 -0.444525 0.119662 0.127084
  6   7.247600 -0.397300 -0.109469 0.000001 0.000021 0.156829
  7   -2.022252 -0.104661 3.136172 0.746452 -0.988492 -3.858287
  8   1.168026 -0.537438 -0.063437 0.196784 0.912265 -0.479387
  9   6.790376 -0.619176 0.015206 0.043727 0.041361 -0.499370
 10   8.637599 0.544015 -0.090417 -3.197551 0.843780 -0.338113
 11   6.790465 -0.619039 0.017802 0.031132 0.015921 -0.365111
 12   -2.022474 -0.104699 -2.873818 -2.423293 1.720884 -5.731899
 13   1.167898 -0.537463 0.063297 -1.898702 -0.842503 1.541669
 14   7.002743 -0.617765 -0.183752 0.028525 -0.168287 -1.793091
 15   8.209042 0.615527 -0.255885 1.301677 0.014085 0.470327
 16   7.002735 -0.617911 -0.183641 0.001115 -0.117137 -1.270694
 17   1.574674 0.609930 -0.000899 1.025243 -0.093216 0.215105
 18   -0.602177 0.511412 -0.000006 0.000000 0.000000 0.000000
 19   3.673773 0.177020 1.119313 -0.000002 -0.000014 -0.174510
 20   3.673767 0.176993 -1.117566 0.000007 -0.000003 -0.174546
 21   3.942357 1.334540 1.627658 0.000002 -0.000011 -0.000026
 22   -0.246060 -0.011889 0.516521 -0.000011 0.000031 0.000025
 23   3.942374 1.334565 -1.631083 0.000019 0.000002 -0.000024
 24   -0.246150 -0.011872 -0.516511 -0.000005 -0.000006 0.000048
 25   4.941364 1.997338 1.629330 0.000018 -0.000001 -0.000024
 26   4.941382 1.997366 -1.629410 -0.000001 0.000005 -0.000024
 27   2.914462 1.619264 1.514501 -0.000019 -0.000022 -0.000050
 28   2.916892 1.618870 -1.501142 -0.000002 -0.000009 -0.000024
 29   8.824059 0.150544 0.091743 0.000006 -0.000231 -0.174534
 30   2.111085 -0.561179 1.784320 -0.000008 -0.000682 0.000024
 31   2.121290 -0.561289 -1.853599 0.000000 0.000000 -0.000002
 32   -0.814395 -0.093824 3.127092 0.564173 -3.064346 -0.563643
 33   14.298673 -0.408176 0.471578 -0.006380 -0.009799 -0.413614
 34   15.835795 0.581398 0.242756 -0.007436 -0.212263 -0.117891
 35   -0.815868 -0.091229 -3.114430 -0.120039 3.021422 -0.057358
 36   14.294526 -0.410349 -0.467541 0.001651 0.012787 -0.721549
 37   15.834409 0.579420 -0.284600 -0.182289 -0.002288 0.569929
 38   1.139685 -3.453749 -2.823813 0.000000 0.000000 0.000001
 39   -4.457742 -1.054854 -0.746180 0.000000 0.000000 0.000000
 40   1.118101 -3.449769 3.237290 0.000000 0.000001 0.000000
 41   -4.433840 -1.059130 0.959566 -0.000001 0.000000 0.000000
 42   -0.657468 1.697302 -2.688614 0.000000 0.000002 0.000000
 43   -0.664068 1.698578 2.869377 0.000000 0.000002 0.000000
time 4
  0   -0.010486 -0.546892 -0.601210 0.000000 0.000000 -1.571354
  1   -1.093036 0.000002 -0.326057 -0.214066 -1.569082 -1.356583
  2   2.262337 0.113614 0.064702 -0.190019 -0.068216 0.399607
  3   2.380047 0.353302 0.047440 -0.274548 0.043140 0.390031
  4   2.033756 0.190472 -0.000128 -0.209831 -0.016119 0.136409
  5   2.451511 0.204909 -0.003447 -0.436360 0.120837 0.120323
  6   7.247600 -0.397300 -0.109469 0.000001 0.000021 0.156829
  7   -2.022252 -0.104661 3.136172 0.709739 -1.012591 -3.810390
  8   1.168026 -0.537438 -0.063437 0.160397 0.827133 -0.374881
  9   6.790376 -0.619176 0.015206 0.047666 0.057512 -0.655738
 10   8.637599 0.544015 -0.090417 -3.248804 0.851945 -0.246381
 11   6.790465 -0.619039 0.017802 0.036299 0.026183 -0.474578
 12   -2.022474 -0.104699 -2.873818 -2.651601 1.720216 -5.957752
 13   1.167898 -0.537463 0.063297 -1.764647 -0.983980 1.301346
 14   7.002743 -0.617765 -0.183752 0.025450 -0.165220 -1.751508
 15   8.209042 0.615527 -0.255885 1.441600 0.036556 0.439657
 16   7.002735 -0.617911 -0.183641 0.000456 -0.114261 -1.241773
 17   1.574674 0.609930 -0.000899 0.999652 -0.078874 0.219873
 18   -0.602177 0.511412 -0.000006 0.000000 0.000000 0.000000
 19   3.673773 0.177020 1.119313 -0.000002 -0.000014 -0.174510
 20   3.673767 0.176993 -1.117566 0.000007 -0.000003 -0.174546
 21   3.942357 1.334540 1.627658 0.000002 -0.000011 -0.000026
 22   -0.246060 -0.011889 0.516521 -0.000011 0.000031 0.000025
 23   3.942374 1.334565 -1.631083 0.000019 0.000002 -0.000024
 24   -0.246150 -0.011872 -0.516511 -0.000005 -0.000006 0.000048
 25   4.941364 1.997338 1.629330 0.000018 -0.000001 -0.000024
 26   4.941382 1.997366 -1.629410 -0.000001 0.000005 -0.000024
 27   2.914462 1.619264 1.514501 -0.000019 -0.000022 -0.000050
 28   2.916892 1.618870 -1.501142 -0.000002 -0.000009 -0.000024
 29   8.824059 0.150544 0.091743 0.000006 -0.000231 -0.174534
 30   2.111085 -0.561179 1.784320 -0.000008 -0.000682 0.000024
 31   2.121290 -0.561289 -1.853599 0.000000 0.000000 -0.000002
 32   -0.814395 -0.093824 3.127092 0.564173 -3.064346 -0.563643
 33   14.298673 -0.408176 0.471578 -0.006380 -0.009799 -0.413614
 34   15.835795 0.581398 0.242756 -0.007436 -0.212263 -0.117891
 35   -0.815868 -0.091229 -3.114430 -0.120039 3.021422 -0.057358
 36   14.294526 -0.410349 -0.467541 0.001651 0.012787 -0.721549
 37   15.834409 0.579420 -0.284600 -0.182289 -0.002288 0.569929
 38   1.139685 -3.453749 -2.823813 0.000000 0.000000 0.000001
 39   -4.457742 -1.054854 -0.746180 0.000000 0.000000 0.000000
 40   1.118101 -3.449769 3.237290 0.000000 0.000001 0.000000
 41   -4.433840 -1.059130 0.959566 -0.000001 0.000000 0.000000
 42   -0.657468 1.697302 -2.688614 0.000000 0.000002 0.000000
 43   -0.664068 1.698578 2.869377 0.000000 0.000002 0.000000
time 5
  0   -0.010486 -0.546892 -0.601210 0.000000 0.000000 -1.571354
  1   -1.093036 0.000002 -0.326057 -0.214066 -1.569082 -1.356583
  2   2.262337 0.113614 0.064702 -0.155628 -0.075490 0.391330
  3   2.380047 0.353302 0.047440 -0.243676 0.031300 0.386562
  4   2.033756 0.190472 -0.000128 -0.195538 -0.019619 0.127854
  5   2.451511 0.204909 -0.003447 -0.424789 0.121490 0.111779
  6   7.247600 -0.397300 -0.109469 0.000001 0.000021 0.156829
  7   -2.022252 -0.104661 3.136172 0.689609 -1.038161 -3.775547
  8   1.168026 -0.537438 -0.063437 0.090789 0.745271 -0.288657
  9   6.790376 -0.619176 0.015206 0.049164 0.076400 -0.830596
 10   8.637599 0.544015 -0.090417 -3.292661 0.801545 -0.201021
 11   6.790465 -0.619039 0.017802 0.040766 0.038406 -0.596964
 12   -2.022474 -0.104699 -2.873818 -2.833060 1.712205 0.153785
 13   1.167898 -0.537463 0.063297 -1.446064 -1.097793 0.866525
 14   7.002743 -0.617765 -0.183752 0.022091 -0.161700 -1.703820
 15   8.209042 0.615527 -0.255885 1.642784 0.065231 0.383850
 16   7.002735 -0.617911 -0.183641 -0.000344 -0.110991 -1.208767
 17   1.574674 0.609930 -0.000899 0.939573 -0.053976 0.242383
 18   -0.602177 0.511412 -0.000006 0.000000 0.000000 0.000000
 19   3.673773 0.177020 1.119313 -0.000002 -0.000014 -0.174510
 20   3.673767 0.176993 -1.117566 0.000007 -0.000003 -0.174546
 21   3.942357 1.334540 1.627658 0.000002 -0.000011 -0.000026
 22   -0.246060 -0.011889 0.516521 -0.000011 0.000031 0.000025
 23   3.942374 1.334565 -1.631083 0.000019 0.000002 -0.000024
 24   -0.246150 -0.011872 -0.516511 -0.000005 -0.000006 0.000048
 25   4.941364 1.997338 1.629330 0.000018 -0.000001 -0.000024
 26   4.941382 1.997366 -1.629410 -0.000001 0.000005 -0.000024
 27   2.914462 1.619264 1.514501 -0.000019 -0.000022 -0.000050
 28   2.916892 1.618870 -1.501142 -0.000002 -0.000009 -0.000024
 29   8.824059 0.150544 0.091743 0.000006 -0.000231 -0.174534
 30   2.111085 -0.561179 1.784320 -0.000008 -0.000682 0.000024
 31   2.121290 -0.561289 -1.853599 0.000000 0.000000 -0.000002
 32   -0.814395 -0.093824 3.127092 0.564173 -3.064346 -0.563643
 33   14.298673 -0.408176 0.471578 -0.006380 -0.009799 -0.413614
 34   15.835795 0.581398 0.242756 -0.007436 -0.212263 -0.117891
 35   -0.815868 -0.091229 -3.114430 -0.120039 3.021422 -0.057358
 36   14.294526 -0.410349 -0.467541 0.001651 0.012787 -0.721549
 37   15.834409 0.579420 -0.284600 -0.182289 -0.002288 0.569929
 38   1.139685 -3.453749 -2.823813 0.000000 0.000000 0.000001
 39   -4.457742 -1.054854 -0.746180 0.000000 0.000000 0.000000
 40   1.118101 -3.449769 3.237290 0.000000 0.000001 0.000000
 41   -4.433840 -1.059130 0.959566 -0.000001 0.000000 0.000000
 42   -0.657468 1.697302 -2.688614 0.000000 0.000002 0.000000
 43   -0.664068 1.698578 2.869377 0.000000 0.000002 0.000000
time 6
  0   -0.010486 -0.546892 -0.601210 0.000000 0.000000 -1.571354
  1   -1.093036 0.000002 -0.326057 -0.214066 -1.569082 -1.356583
  2   2.262337 0.113614 0.064702 -0.117390 -0.083064 0.387915
  3   2.380047 0.353302 0.047440 -0.209939 0.017481 0.383848
  4   2.033756 0.190472 -0.000128 -0.179567 -0.023142 0.115385
  5   2.451511 0.204909 -0.003447 -0.413013 0.130969 0.097415
  6   7.247600 -0.397300 -0.109469 0.000001 0.000021 0.156829
  7   -2.022252 -0.104661 3.136172 0.690184 -1.065143 -3.783436
  8   1.168026 -0.537438 -0.063437 0.014662 0.712014 -0.221285
  9   6.790376 -0.619176 0.015206 0.047999 0.092084 -0.973532
 10   8.637599 0.544015 -0.090417 -3.340392 0.687724 -0.225328
 11   6.790465 -0.619039 0.017802 0.043307 0.048894 -0.696857
 12   -2.022474 -0.104699 -2.873818 3.303478 1.701147 0.030853
 13   1.167898 -0.537463 0.063297 -0.994340 -1.109082 0.328008
 14   7.002743 -0.617765 -0.183752 0.019359 -0.158690 -1.664135
 15   8.209042 0.615527 -0.255885 1.839726 0.096479 0.324855
 16   7.002735 -0.617911 -0.183641 -0.000956 -0.108341 -1.181116
 17   1.574674 0.609930 -0.000899 0.860320 -0.047657 0.264153
 18   -0.602177 0.511412 -0.000006 0.000000 0.000000 0.000000
 19   3.673773 0.177020 1.119313 -0.000002 -0.000014 -0.174510
 20   3.673767 0.176993 -1.117566 0.000007 -0.000003 -0.174546
 21   3.942357 1.334540 1.627658 0.000002 -0.000011 -0.000026
 22   -0.246060 -0.011889 0.516521 -0.000011 0.000031 0.000025
 23   3.942374 1.334565 -1.631083 0.000019 0.000002 -0.000024
 24   -0.246150 -0.011872 -0.516511 -0.000005 -0.000006 0.000048
 25   4.941364 1.997338 1.629330 0.000018 -0.000001 -0.000024
 26   4.941382 1.997366 -1.629410 -0.000001 0.000005 -0.000024
 27   2.914462 1.619264 1.514501 -0.000019 -0.000022 -0.000050
 28   2.916892 1.618870 -1.501142 -0.000002 -0.000009 -0.000024
 29   8.824059 0.150544 0.091743 0.000006 -0.000231 -0.174534
 30   2.111085 -0.561179 1.784320 -0.000008 -0.000682 0.000024
 31   2.121290 -0.561289 -1.853599 0.000000 0.000000 -0.000002
 32   -0.814395 -0.093824 3.127092 0.564173 -3.064346 -0.563643
 33   14.298673 -0.408176 0.471578 -0.006380 -0.009799 -0.413614
 34   15.835795 0.581398 0.242756 -0.007436 -0.212263 -0.117891
 35   -0.815868 -0.091229 -3.114430 -0.120039 3.021422 -0.057358
 36   14.294526 -0.410349 -0.467541 0.001651 0.012787 -0.721549
 37   15.834409 0.579420 -0.284600 -0.182289 -0.002288 0.569929
 38   1.139685 -3.453749 -2.823813 0.000000 0.000000 0.000001
 39   -4.457742 -1.054854 -0.746180 0.000000 0.000000 0.000000
 40   1.118101 -3.449769 3.237290 0.000000 0.000001 0.000000
 41   -4.433840 -1.059130 0.959566 -0.000001 0.000000 0.000000
 42   -0.657468 1.697302 -2.688614 0.000000 0.000002 0.000000
 43   -0.664068 1.698578 2.869377 0.000000 0.000002 0.000000
time 7
  0   -0.010486 -0.546892 -0.601210 0.000000 0.000000 -1.571354
  1   -1.093036 0.000002 -0.326057 -0.214066 -1.569082 -1.356583
  2   2.262337 0.113614 0.064702 -0.081967 -0.079996 0.385710
  3   2.380047 0.353302 0.047440 -0.179742 0.009967 0.378359
  4   2.033756 0.190472 -0.000128 -0.165827 -0.024880 0.100234
  5   2.451511 0.204909 -0.003447 -0.399747 0.116229 0.088772
  6   7.247600 -0.397300 -0.109469 0.000001 0.000021 0.156829
  7   -2.022252 -0.104661 3.136172 0.673409 -1.110748 -3.803815
  8   1.168026 -0.537438 -0.063437 -0.072791 0.733800 -0.189971
  9   6.790376 -0.619176 0.015206 0.046556 0.099625 -1.043113
 10   8.637599 0.544015 -0.090417 -3.376234 0.558276 -0.322559
 11   6.790465 -0.619039 0.017802 0.044182 0.054096 -0.745476
 12   -2.022474 -0.104699 -2.873818 -0.219539 1.461990 -3.468580
 13   1.167898 -0.537463 0.063297 -0.667814 -1.058889 -0.046582
 14   7.002743 -0.617765 -0.183752 0.017537 -0.156248 -1.635258
 15   8.209042 0.615527 -0.255885 1.986336 0.161697 0.288953
 16   7.002735 -0.617911 -0.183641 -0.001239 -0.106254 -1.161081
 17   1.574674 0.609930 -0.000899 0.776925 -0.069715 0.304366
 18   -0.602177 0.511412 -0.000006 0.000000 0.000000 0.000000
 19   3.673773 0.177020 1.119313 -0.000002 -0.000014 -0.174510
 20   3.673767 0.176993 -1.117566 0.000007 -0.000003 -0.174546
 21   3.942357 1.334540 1.627658 0.000002 -0.000011 -0.000026
 22   -0.246060 -0.011889 0.516521 -0.000011 0.000031 0.000025
 23   3.942374 1.334565 -1.631083 0.000019 0.000002 -0.000024
 24   -0.246150 -0.011872 -0.516511 -0.000005 -0.000006 0.000048
 25   4.941364 1.997338 1.629330 0.000018 -0.000001 -0.000024
 26   4.941382 1.997366 -1.629410 -0.000001 0.000005 -0.000024
 27   2.914462 1.619264 1.514501 -0.000019 -0.000022 -0.000050
 28   2.916892 1.618870 -1.501142 -0.000002 -0.000009 -0.000024
 29   8.824059 0.150544 0.091743 0.000006 -0.000231 -0.174534
 30   2.111085 -0.561179 1.784320 -0.000008 -0.000682 0.000024
 31   2.121290 -0.561289 -1.853599 0.000000 0.000000 -0.000002
 32   -0.814395 -0.093824 3.127092 0.564173 -3.064346 -0.563643
 33   14.298673 -0.408176 0.471578 -0.006380 -0.009799 -0.413614
 34   15.835795 0.581398 0.242756 -0.007436 -0.212263 -0.117891
 35   -0.815868 -0.091229 -3.114430 -0.120039 3.021422 -0.057358
 36   14.294526 -0.410349 -0.467541 0.001651 0.012787 -0.721549
 37   15.834409 0.579420 -0.284600 -0.182289 -0.002288 0.569929
 38   1.139685 -3.453749 -2.823813 0.000000 0.000000 0.000001
 39   -4.457742 -1.054854 -0.746180 0.000000 0.000000 0.000000
 40   1.118101 -3.449769 3.237290 0.000000 0.000001 0.000000
 41   -4.433840 -1.059130 0.959566 -0.000001 0.000000 0.000000
 42   -0.657468 1.697302 -2.688614 0.000000 0.000002 0.000000
 43   -0.664068 1.698578 2.869377 0.000000 0.000002 0.000000
time 8
  0   -0.010486 -0.546892 -0.601210 0.000000 0.000000 -1.571354
  1   -1.093036 0.000002 -0.326057 -0.214066 -1.569082 -1.356583
  2   2.262337 0.113614 0.064702 -0.054798 -0.074999 0.385005
  3   2.380047 0.353302 0.047440 -0.157211 0.004718 0.371666
  4   2.033756 0.190472 -0.000128 -0.155499 -0.025227 0.084503
  5   2.451511 0.204909 -0.003447 -0.389203 0.097455 0.082110
  6   7.247600 -0.397300 -0.109469 0.000001 0.000021 0.156829
  7   -2.022252 -0.104661 3.136172 0.627493 -1.143092 -3.776955
  8   1.168026 -0.537438 -0.063437 -0.204731 0.753271 -0.215971
  9   6.790376 -0.619176 0.015206 0.046001 0.104164 -1.075111
 10   8.637599 0.544015 -0.090417 -3.369013 0.425379 -0.419428
 11   6.790465 -0.619039 0.017802 0.044708 0.057195 -0.767854
 12   -2.022474 -0.104699 -2.873818 -0.739580 1.466663 -3.980220
 13   1.167898 -0.537463 0.063297 -0.475062 -0.983980 -0.282607
 14   7.002743 -0.617765 -0.183752 0.015316 -0.153068 -1.597388
 15   8.209042 0.615527 -0.255885 2.129495 0.244922 0.252750
 16   7.002735 -0.617911 -0.183641 -0.001521 -0.103548 -1.134809
 17   1.574674 0.609930 -0.000899 0.712377 -0.080365 0.359327
 18   -0.602177 0.511412 -0.000006 0.000000 0.000000 0.000000
 19   3.673773 0.177020 1.119313 -0.000002 -0.000014 -0.174510
 20   3.673767 0.176993 -1.117566 0.000007 -0.000003 -0.174546
 21   3.942357 1.334540 1.627658 0.000002 -0.000011 -0.000026
 22   -0.246060 -0.011889 0.516521 -0.000011 0.000031 0.000025
 23   3.942374 1.334565 -1.631083 0.000019 0.000002 -0.000024
 24   -0.246150 -0.011872 -0.516511 -0.000005 -0.000006 0.000048
 25   4.941364 1.997338 1.629330 0.000018 -0.000001 -0.000024
 26   4.941382 1.997366 -1.629410 -0.000001 0.000005 -0.000024
 27   2.914462 1.619264 1.514501 -0.000019 -0.000022 -0.000050
 28   2.916892 1.618870 -1.501142 -0.000002 -0.000009 -0.000024
 29   8.824059 0.150544 0.091743 0.000006 -0.000231 -0.174534
 30   2.111085 -0.561179 1.784320 -0.000008 -0.000682 0.000024
 31   2.121290 -0.561289 -1.853599 0.000000 0.000000 -0.000002
 32   -0.814395 -0.093824 3.127092 0.564173 -3.064346 -0.563643
 33   14.298673 -0.408176 0.471578 -0.006380 -0.009799 -0.413614
 34   15.835795 0.581398 0.242756 -0.007436 -0.212263 -0.117891
 35   -0.815868 -0.091229 -3.114430 -0.120039 3.021422 -0.057358
 36   14.294526 -0.410349 -0.467541 0.001651 0.012787 -0.721549
 37   15.834409 0.579420 -0.284600 -0.182289 -0.002288 0.569929
 38   1.139685 -3.453749 -2.823813 0.000000 0.000000 0.000001
 39   -4.457742 -1.054854 -0.746180 0.000000 0.000000 0.000000
 40   1.118101 -3.449769 3.237290 0.000000 0.000001 0.000000
 41   -4.433840 -1.059130 0.959566 -0.000001 0.000000 0.000000
 42   -0.657468 1.697302 -2.688614 0.000000 0.000002 0.000000
 43   -0.664068 1.698578 2.869377 0.000000 0.000002 0.000000
time 9
  0   -0.010486 -0.546892 -0.601210 0.000000 0.000000 -1.571354
  1   -1.093036 0.000002 -0.326057 -0.214066 -1.569082 -1.356583
  2   2.262337 0.113614 0.064702 -0.033399 -0.071439 0.380596
  3   2.380047 0.353302 0.047440 -0.139539 0.000895 0.365585
  4   2.033756 0.190472 -0.000128 -0.147403 -0.025299 0.073484
  5   2.451511 0.204909 -0.003447 -0.380696 0.081801 0.077256
  6   7.247600 -0.397300 -0.109469 0.000001 0.000021 0.156829
  7   -2.022252 -0.104661 3.136172 0.615894 -1.163877 -3.782496
  8   1.168026 -0.537438 -0.063437 -0.349264 0.797196 -0.258482
  9   6.790376 -0.619176 0.015206 0.045668 0.106967 -1.090582
 10   8.637599 0.544015 -0.090417 -3.329560 0.305012 -0.460592
 11   6.790465 -0.619039 0.017802 0.045117 0.059156 -0.778467
 12   -2.022474 -0.104699 -2.873818 -1.392601 1.450642 -4.663045
 13   1.167898 -0.537463 0.063297 -0.383466 -0.982506 -0.375467
 14   7.002743 -0.617765 -0.183752 0.014918 -0.152387 -1.574369
 15   8.209042 0.615527 -0.255885 2.214987 0.278969 0.236573
 16   7.002735 -0.617911 -0.183641 -0.001239 -0.103040 -1.118858
 17   1.574674 0.609930 -0.000899 0.657010 -0.076105 0.415582
 18   -0.602177 0.511412 -0.000006 0.000000 0.000000 0.000000
 19   3.673773 0.177020 1.119313 -0.000002 -0.000014 -0.174510
 20   3.673767 0.176993 -1.117566 0.000007 -0.000003 -0.174546
 21   3.942357 1.334540 1.627658 0.000002 -0.000011 -0.000026
 22   -0.246060 -0.011889 0.516521 -0.000011 0.000031 0.000025
 23   3.942374 1.334565 -1.631083 0.000019 0.000002 -0.000024
 24   -0.246150 -0.011872 -0.516511 -0.000005 -0.000006 0.000048
 25   4.941364 1.997338 1.629330 0.000018 -0.000001 -0.000024
 26   4.941382 1.997366 -1.629410 -0.000001 0.000005 -0.000024
 27   2.914462 1.619264 1.514501 -0.000019 -0.000022 -0.000050
 28   2.916892 1.618870 -1.501142 -0.000002 -0.000009 -0.000024
 29   8.824059 0.150544 0.091743 0.000006 -0.000231 -0.174534
 30   2.111085 -0.561179 1.784320 -0.000008 -0.000682 0.000024
 31   2.121290 -0.561289 -1.853599 0.000000 0.000000 -0.000002
 32   -0.814395 -0.093824 3.127092 0.564173 -3.064346 -0.563643
 33   14.298673 -0.408176 0.471578 -0.006380 -0.009799 -0.413614
 34   15.835795 0.581398 0.242756 -0.007436 -0.212263 -0.117891
 35   -0.815868 -0.091229 -3.114430 -0.120039 3.021422 -0.057358
 36   14.294526 -0.410349 -0.467541 0.001651 0.012787 -0.721549
 37   15.834409 0.579420 -0.284600 -0.182289 -0.002288 0.569929
 38   1.139685 -3.453749 -2.823813 0.000000 0.000000 0.000001
 39   -4.457742 -1.054854 -0.746180 0.000000 0.000000 0.000000
 40   1.118101 -3.449769 3.237290 0.000000 0.000001 0.000000
 41   -4.433840 -1.059130 0.959566 -0.000001 0.000000 0.000000
 42   -0.657468 1.697302 -2.688614 0.000000 0.000002 0.000000
 43   -0.664068 1.698578 2.869377 0.000000 0.000002 0.000000
time 10
  0   -0.010486 -0.546892 -0.601210 0.000000 0.000000 -1.571354
  1   -1.093036 0.000002 -0.326057 -0.214066 -1.569082 -1.356583
  2   2.262337 0.113614 0.064702 -0.017439 -0.072446 0.374470
  3   2.380047 0.353302 0.047440 -0.126608 -0.002113 0.360464
  4   2.033756 0.190472 -0.000128 -0.141206 -0.025875 0.065546
  5   2.451511 0.204909 -0.003447 -0.375253 0.075913 0.071362
  6   7.247600 -0.397300 -0.109469 0.000001 0.000021 0.156829
  7   -2.022252 -0.104661 3.136172 0.597201 -1.173649 -3.790385
  8   1.168026 -0.537438 -0.063437 -0.443994 0.822001 -0.284735
  9   6.790376 -0.619176 0.015206 0.043782 0.110237 -1.140541
 10   8.637599 0.544015 -0.090417 -3.283150 0.163527 -0.445255
 11   6.790465 -0.619039 0.017802 0.044971 0.061458 -0.813302
 12   -2.022474 -0.104699 -2.873818 -1.806966 1.404174 -5.107859
 13   1.167898 -0.537463 0.063297 -0.332782 -1.006153 -0.404100
 14   7.002743 -0.617765 -0.183752 0.015658 -0.152955 -1.586910
 15   8.209042 0.615527 -0.255885 2.259064 0.307569 0.221599
 16   7.002735 -0.617911 -0.183641 -0.001097 -0.103548 -1.127468
 17   1.574674 0.609930 -0.000899 0.615211 -0.052177 0.444338
 18   -0.602177 0.511412 -0.000006 0.000000 0.000000 0.000000
 19   3.673773 0.177020 1.119313 -0.000002 -0.000014 -0.174510
 20   3.673767 0.176993 -1.117566 0.000007 -0.000003 -0.174546
 21   3.942357 1.334540 1.627658 0.000002 -0.000011 -0.000026
 22   -0.246060 -0.011889 0.516521 -0.000011 0.000031 0.000025
 23   3.942374 1.334565 -1.631083 0.000019 0.000002 -0.000024
 24   -0.246150 -0.011872 -0.516511 -0.000005 -0.000006 0.000048
 25   4.941364 1.997338 1.629330 0.000018 -0.000001 -0.000024
 26   4.941382 1.997366 -1.629410 -0.000001 0.000005 -0.000024
 27   2.914462 1.619264 1.514501 -0.000019 -0.000022 -0.000050
 28   2.916892 1.618870 -1.501142 -0.000002 -0.000009 -0.000024
 29   8.824059 0.150544 0.091743 0.000006 -0.000231 -0.174534
 30   2.111085 -0.561179 1.784320 -0.000008 -0.000682 0.000024
 31   2.121290 -0.561289 -1.853599 0.000000 0.000000 -0.000002
 32   -0.814395 -0.093824 3.127092 0.564173 -3.064346 -0.563643
 33   14.298673 -0.408176 0.471578 -0.006380 -0.009799 -0.413614
 34   15.835795 0.581398 0.242756 -0.007436 -0.212263 -0.117891
 35   -0.815868 -0.091229 -3.114430 -0.120039 3.021422 -0.057358
 36   14.294526 -0.410349 -0.467541 0.001651 0.012787 -0.721549
 37   15.834409 0.579420 -0.284600 -0.182289 -0.002288 0.569929
 38   1.139685 -3.453749 -2.823813 0.000000 0.000000 0.000001
 39   -4.457742 -1.054854 -0.746180 0.000000 0.000000 0.000000
 40   1.118101 -3.449769 3.237290 0.000000 0.000001 0.000000
 41   -4.433840 -1.059130 0.959566 -0.000001 0.000000 0.000000
 42   -0.657468 1.697302 -2.688614 0.000000 0.000002 0.000000
 43   -0.664068 1.698578 2.869377 0.000000 0.000002 0.000000
time 11
  0   -0.010486 -0.546892 -0.601210 0.000000 0.000000 -1.571354
  1   -1.093036 0.000002 -0.326057 -0.214066 -1.569082 -1.356583
  2   2.262337 0.113614 0.064702 -0.007007 -0.073453 0.369374
  3   2.380047 0.353302 0.047440 -0.118388 -0.004534 0.355566
  4   2.033756 0.190472 -0.000128 -0.137315 -0.026785 0.057789
  5   2.451511 0.204909 -0.003447 -0.372052 0.071278 0.065022
  6   7.247600 -0.397300 -0.109469 0.000001 0.000021 0.156829
  7   -2.022252 -0.104661 3.136172 0.559625 -1.181663 -3.772447
  8   1.168026 -0.537438 -0.063437 -0.514109 0.793322 -0.331358
  9   6.790376 -0.619176 0.015206 0.042839 0.111105 -1.161219
 10   8.637599 0.544015 -0.090417 -3.275136 0.075117 -0.376166
 11   6.790465 -0.619039 0.017802 0.044766 0.062112 -0.827779
 12   -2.022474 -0.104699 -2.873818 -1.995993 1.372074 -5.300011
 13   1.167898 -0.537463 0.063297 -0.259533 -1.012866 -0.470507
 14   7.002743 -0.617765 -0.183752 0.016626 -0.154204 -1.610754
 15   8.209042 0.615527 -0.255885 2.307670 0.355234 0.233867
 16   7.002735 -0.617911 -0.183641 -0.001050 -0.104619 -1.144081
 17   1.574674 0.609930 -0.000899 0.586004 -0.030096 0.456424
 18   -0.602177 0.511412 -0.000006 0.000000 0.000000 0.000000
 19   3.673773 0.177020 1.119313 -0.000002 -0.000014 -0.174510
 20   3.673767 0.176993 -1.117566 0.000007 -0.000003 -0.174546
 21   3.942357 1.334540 1.627658 0.000002 -0.000011 -0.000026
 22   -0.246060 -0.011889 0.516521 -0.000011 0.000031 0.000025
 23   3.942374 1.334565 -1.631083 0.000019 0.000002 -0.000024
 24   -0.246150 -0.011872 -0.516511 -0.000005 -0.000006 0.000048
 25   4.941364 1.997338 1.629330 0.000018 -0.000001 -0.000024
 26   4.941382 1.997366 -1.629410 -0.000001 0.000005 -0.000024
 27   2.914462 1.619264 1.514501 -0.000019 -0.000022 -0.000050
 28   2.916892 1.618870 -1.501142 -0.000002 -0.000009 -0.000024
 29   8.824059 0.150544 0.091743 0.000006 -0.000231 -0.174534
 30   2.111085 -0.561179 1.784320 -0.000008 -0.000682 0.000024
 31   2.121290 -0.561289 -1.853599 0.000000 0.000000 -0.000002
 32   -0.814395 -0.093824 3.127092 0.564173 -3.064346 -0.563643
 33   14.298673 -0.408176 0.471578 -0.006380 -0.009799 -0.413614
 34   15.835795 0.581398 0.242756 -0.007436 -0.212263 -0.117891
 35   -0.815868 -0.091229 -3.114430 -0.120039 3.021422 -0.057358
 36   14.294526 -0.410349 -0.467541 0.001651 0.012787 -0.721549
 37   15.834409 0.579420 -0.284600 -0.182289 -0.002288 0.569929
 38   1.139685 -3.453749 -2.823813 0.000000 0.000000 0.000001
 39   -4.457742 -1.054854 -0.746180 0.000000 0.000000 0.000000
 40   1.118101 -3.449769 3.237290 0.000000 0.000001 0.000000
 41   -4.433840 -1.059130 0.959566 -0.000001 0.000000 0.000000
 42   -0.657468 1.697302 -2.688614 0.000000 0.000002 0.000000
 43   -0.664068 1.698578 2.869377 0.000000 0.000002 0.000000
time 12
  0   -0.010486 -0.546892 -0.601210 0.000000 0.000000 -1.571354
  1   -1.093036 0.000002 -0.326057 -0.214066 -1.569082 -1.356583
  2   2.262337 0.113614 0.064702 -0.000218 -0.074280 0.363754
  3   2.380047 0.353302 0.047440 -0.112463 -0.006512 0.351138
  4   2.033756 0.190472 -0.000128 -0.134567 -0.027529 0.051156
  5   2.451511 0.204909 -0.003447 -0.369416 0.063902 0.059945
  6   7.247600 -0.397300 -0.109469 0.000001 0.000021 0.156829
  7   -2.022252 -0.104661 3.136172 0.549752 -1.189072 -3.773762
  8   1.168026 -0.537438 -0.063437 -0.561253 0.774252 -0.358813
  9   6.790376 -0.619176 0.015206 0.042173 0.110571 -1.167181
 10   8.637599 0.544015 -0.090417 -3.287201 0.011906 -0.291089
 11   6.790465 -0.619039 0.017802 0.044358 0.061856 -0.832047
 12   -2.022474 -0.104699 -2.873818 -2.090172 1.357417 -5.401018
 13   1.167898 -0.537463 0.063297 -0.200344 -1.019426 -0.537095
 14   7.002743 -0.617765 -0.183752 0.017024 -0.155453 -1.621480
 15   8.209042 0.615527 -0.255885 2.328810 0.383606 0.244151
 16   7.002735 -0.617911 -0.183641 -0.001192 -0.105578 -1.151588
 17   1.574674 0.609930 -0.000899 0.566953 -0.006950 0.475607
 18   -0.602177 0.511412 -0.000006 0.000000 0.000000 0.000000
 19   3.673773 0.177020 1.119313 -0.000002 -0.000014 -0.174510
 20   3.673767 0.176993 -1.117566 0.000007 -0.000003 -0.174546
 21   3.942357 1.334540 1.627658 0.000002 -0.000011 -0.000026
 22   -0.246060 -0.011889 0.516521 -0.000011 0.000031 0.000025
 23   3.942374 1.334565 -1.631083 0.000019 0.000002 -0.000024
 24   -0.246150 -0.011872 -0.516511 -0.000005 -0.000006 0.000048
 25   4.941364 1.997338 1.629330 0.000018 -0.000001 -0.000024
 26   4.941382 1.997366 -1.629410 -0.000001 0.000005 -0.000024
 27   2.914462 1.619264 1.514501 -0.000019 -0.000022 -0.000050
 28   2.916892 1.618870 -1.501142 -0.000002 -0.000009 -0.000024
 29   8.824059 0.150544 0.091743 0.000006 -0.000231 -0.174534
 30   2.111085 -0.561179 1.784320 -0.000008 -0.000682 0.000024
 31   2.121290 -0.561289 -1.853599 0.000000 0.000000 -0.000002
 32   -0.814395 -0.093824 3.127092 0.564173 -3.064346 -0.563643
 33   14.298673 -0.408176 0.471578 -0.006380 -0.009799 -0.413614
 34   15.835795 0.581398 0.242756 -0.007436 -0.212263 -0.117891
 35   -0.815868 -0.091229 -3.114430 -0.120039 3.021422 -0.057358
 36   14.294526 -0.410349 -0.467541 0.001651 0.012787 -0.721549
 37   15.834409 0.579420 -0.284600 -0.182289 -0.002288 0.569929
 38   1.139685 -3.453749 -2.823813 0.000000 0.000000 0.000001
 39   -4.457742 -1.054854 -0.746180 0.000000 0.000000 0.000000
 40   1.118101 -3.449769 3.237290 0.000000 0.000001 0.000000
 41   -4.433840 -1.059130 0.959566 -0.000001 0.000000 0.000000
 42   -0.657468 1.697302 -2.688614 0.000000 0.000002 0.000000
 43   -0.664068 1.698578 2.869377 0.000000 0.000002 0.000000
time 13
  0   -0.010486 -0.546892 -0.601210 0.000000 0.000000 -1.571354
  1   -1.093036 0.000002 -0.326057 -0.214066 -1.569082 -1.356583
  2   2.262337 0.113614 0.064702 0.004024 -0.074268 0.360212
  3   2.380047 0.353302 0.047440 -0.108637 -0.007938 0.348118
  4   2.033756 0.190472 -0.000128 -0.132538 -0.028068 0.046154
  5   2.451511 0.204909 -0.003447 -0.367670 0.057831 0.055735
  6   7.247600 -0.397300 -0.109469 0.000001 0.000021 0.156829
  7   -2.022252 -0.104661 3.136172 0.546397 -1.204235 -3.775922
  8   1.168026 -0.537438 -0.063437 -0.606372 0.785774 -0.402336
  9   6.790376 -0.619176 0.015206 0.042562 0.108435 -1.148767
 10   8.637599 0.544015 -0.090417 -3.317583 -0.004354 -0.224967
 11   6.790465 -0.619039 0.017802 0.044066 0.060350 -0.819185
 12   -2.022474 -0.104699 -2.873818 -2.113166 1.359710 -5.441421
 13   1.167898 -0.537463 0.063297 -0.188604 -1.030919 -0.564578
 14   7.002743 -0.617765 -0.183752 0.018106 -0.156475 -1.640951
 15   8.209042 0.615527 -0.255885 2.312847 0.403656 0.275723
 16   7.002735 -0.617911 -0.183641 -0.001003 -0.106536 -1.165055
 17   1.574674 0.609930 -0.000899 0.556269 0.014184 0.503217
 18   -0.602177 0.511412 -0.000006 0.000000 0.000000 0.000000
 19   3.673773 0.177020 1.119313 -0.000002 -0.000014 -0.174510
 20   3.673767 0.176993 -1.117566 0.000007 -0.000003 -0.174546
 21   3.942357 1.334540 1.627658 0.000002 -0.000011 -0.000026
 22   -0.246060 -0.011889 0.516521 -0.000011 0.000031 0.000025
 23   3.942374 1.334565 -1.631083 0.000019 0.000002 -0.000024
 24   -0.246150 -0.011872 -0.516511 -0.000005 -0.000006 0.000048
 25   4.941364 1.997338 1.629330 0.000018 -0.000001 -0.000024
 26   4.941382 1.997366 -1.629410 -0.000001 0.000005 -0.000024
 27   2.914462 1.619264 1.514501 -0.000019 -0.000022 -0.000050
 28   2.916892 1.618870 -1.501142 -0.000002 -0.000009 -0.000024
 29   8.824059 0.150544 0.091743 0.000006 -0.000231 -0.174534
 30   2.111085 -0.561179 1.784320 -0.000008 -0.000682 0.000024
 31   2.121290 -0.561289 -1.853599 0.000000 0.000000 -0.000002
 32   -0.814395 -0.093824 3.127092 0.564173 -3.064346 -0.563643
 33   14.298673 -0.408176 0.471578 -0.006380 -0.009799 -0.413614
 34   15.835795 0.581398 0.242756 -0.007436 -0.212263 -0.117891
 35   -0.815868 -0.091229 -3.114430 -0.120039 3.021422 -0.057358
 36   14.294526 -0.410349 -0.467541 0.001651 0.012787 -0.721549
 37   15.834409 0.579420 -0.284600 -0.182289 -0.002288 0.569929
 38   1.139685 -3.453749 -2.823813 0.000000 0.000000 0.000001
 39   -4.457742 -1.054854 -0.746180 0.000000 0.000000 0.000000
 40   1.118101 -3.449769 3.237290 0.000000 0.000001 0.000000
 41   -4.433840 -1.059130 0.959566 -0.000001 0.000000 0.000000
 42   -0.657468 1.697302 -2.688614 0.000000 0.000002 0.000000
 43   -0.664068 1.698578 2.869377 0.000000 0.000002 0.000000
time 14
  0   -0.010486 -0.546892 -0.601210 0.000000 0.000000 -1.571354
  1   -1.093036 0.000002 -0.326057 -0.214066 -1.569082 -1.356583
  2   2.262337 0.113614 0.064702 0.006699 -0.073141 0.358712
  3   2.380047 0.353302 0.047440 -0.106252 -0.008741 0.346119
  4   2.033756 0.190472 -0.000128 -0.131745 -0.028367 0.042348
  5   2.451511 0.204909 -0.003447 -0.366352 0.054385 0.052986
  6   7.247600 -0.397300 -0.109469 0.000001 0.000021 0.156829
  7   -2.022252 -0.104661 3.136172 0.554736 -1.219715 -3.782309
  8   1.168026 -0.537438 -0.063437 -0.659591 0.772190 -0.475022
  9   6.790376 -0.619176 0.015206 0.044115 0.104898 -1.106128
 10   8.637599 0.544015 -0.090417 -3.338983 0.007612 -0.163691
 11   6.790465 -0.619039 0.017802 0.044066 0.057792 -0.789367
 12   -2.022474 -0.104699 -2.873818 -2.100136 1.368272 -5.432517
 13   1.167898 -0.537463 0.063297 -0.183402 -1.032038 -0.581709
 14   7.002743 -0.617765 -0.183752 0.018789 -0.157611 -1.651099
 15   8.209042 0.615527 -0.255885 2.299833 0.444512 0.290516
 16   7.002735 -0.617911 -0.183641 -0.000909 -0.107495 -1.172009
 17   1.574674 0.609930 -0.000899 0.547942 0.023935 0.539290
 18   -0.602177 0.511412 -0.000006 0.000000 0.000000 0.000000
 19   3.673773 0.177020 1.119313 -0.000002 -0.000014 -0.174510
 20   3.673767 0.176993 -1.117566 0.000007 -0.000003 -0.174546
 21   3.942357 1.334540 1.627658 0.000002 -0.000011 -0.000026
 22   -0.246060 -0.011889 0.516521 -0.000011 0.000031 0.000025
 23   3.942374 1.334565 -1.631083 0.000019 0.000002 -0.000024
 24   -0.246150 -0.011872 -0.516511 -0.000005 -0.000006 0.000048
 25   4.941364 1.997338 1.629330 0.000018 -0.000001 -0.000024
 26   4.941382 1.997366 -1.629410 -0.000001 0.000005 -0.000024
 27   2.914462 1.619264 1.514501 -0.000019 -0.000022 -0.000050
 28   2.916892 1.618870 -1.501142 -0.000002 -0.000009 -0.000024
 29   8.824059 0.150544 0.091743 0.000006 -0.000231 -0.174534
 30   2.111085 -0.561179 1.784320 -0.000008 -0.000682 0.000024
 31   2.121290 -0.561289 -1.853599 0.000000 0.000000 -0.000002
 32   -0.814395 -0.093824 3.127092 0.564173 -3.064346 -0.563643
 33   14.298673 -0.408176 0.471578 -0.006380 -0.009799 -0.413614
 34   15.835795 0.581398 0.242756 -0.007436 -0.212263 -0.117891
 35   -0.815868 -0.091229 -3.114430 -0.120039 3.021422 -0.057358
 36   14.294526 -0.410349 -0.467541 0.001651 0.012787 -0.721549
 37   15.834409 0.579420 -0.284600 -0.182289 -0.002288 0.569929
 38   1.139685 -3.453749 -2.823813 0.000000 0.000000 0.000001
 39   -4.457742 -1.054854 -0.746180 0.000000 0.000000 0.000000
 40   1.118101 -3.449769 3.237290 0.000000 0.000001 0.000000
 41   -4.433840 -1.059130 0.959566 -0.000001 0.000000 0.000000
 42   -0.657468 1.697302 -2.688614 0.000000 0.000002 0.000000
 43   -0.664068 1.698578 2.869377 0.000000 0.000002 0.000000
time 15
  0   -0.010486 -0.546892 -0.601210 0.000000 0.000000 -1.571354
  1   -1.093036 0.000002 -0.326057 -0.214066 -1.569082 -1.356583
  2   2.262337 0.113614 0.064702 0.008100 -0.075814 0.358188
  3   2.380047 0.353302 0.047440 -0.104512 -0.009867 0.343792
  4   2.033756 0.190472 -0.000128 -0.131819 -0.028607 0.038614
  5   2.451511 0.204909 -0.003447 -0.365907 0.053693 0.051054
  6   7.247600 -0.397300 -0.109469 0.000001 0.000021 0.156829
  7   -2.022252 -0.104661 3.136172 0.569403 -1.233350 -3.783811
  8   1.168026 -0.537438 -0.063437 -0.709899 0.754278 -0.554857
  9   6.790376 -0.619176 0.015206 0.046334 0.101227 -1.057527
 10   8.637599 0.544015 -0.090417 -3.364081 0.030982 -0.088887
 11   6.790465 -0.619039 0.017802 0.044328 0.055205 -0.755570
 12   -2.022474 -0.104699 -2.873818 -2.024065 1.401069 -5.339744
 13   1.167898 -0.537463 0.063297 -0.159150 -1.024969 -0.607860
 14   7.002743 -0.617765 -0.183752 0.019757 -0.158860 -1.664795
 15   8.209042 0.615527 -0.255885 2.283511 0.443604 0.309881
 16   7.002735 -0.617911 -0.183641 -0.000721 -0.108510 -1.181668
 17   1.574674 0.609930 -0.000899 0.543920 0.038538 0.577989
 18   -0.602177 0.511412 -0.000006 0.000000 0.000000 0.000000
 19   3.673773 0.177020 1.119313 -0.000002 -0.000014 -0.174510
 20   3.673767 0.176993 -1.117566 0.000007 -0.000003 -0.174546
 21   3.942357 1.334540 1.627658 0.000002 -0.000011 -0.000026
 22   -0.246060 -0.011889 0.516521 -0.000011 0.000031 0.000025
 23   3.942374 1.334565 -1.631083 0.000019 0.000002 -0.000024
 24   -0.246150 -0.011872 -0.516511 -0.000005 -0.000006 0.000048
 25   4.941364 1.997338 1.629330 0.000018 -0.000001 -0.000024
 26   4.941382 1.997366 -1.629410 -0.000001 0.000005 -0.000024
 27   2.914462 1.619264 1.514501 -0.000019 -0.000022 -0.000050
 28   2.916892 1.618870 -1.501142 -0.000002 -0.000009 -0.000024
 29   8.824059 0.150544 0.091743 0.000006 -0.000231 -0.174534
 30   2.111085 -0.561179 1.784320 -0.000008 -0.000682 0.000024
 31   2.121290 -0.561289 -1.853599 0.000000 0.000000 -0.000002
 32   -0.814395 -0.093824 3.127092 0.564173 -3.064346 -0.563643
 33   14.298673 -0.408176 0.471578 -0.006380 -0.009799 -0.413614
 34   15.835795 0.581398 0.242756 -0.007436 -0.212263 -0.117891
 35   -0.815868 -0.091229 -3.114430 -0.120039 3.021422 -0.057358
 36   14.294526 -0.410349 -0.467541 0.001651 0.012787 -0.721549
 37   15.834409 0.579420 -0.284600 -0.182289 -0.002288 0.569929
 38   1.139685 -3.453749 -2.823813 0.000000 0.000000 0.000001
 39   -4.457742 -1.054854 -0.746180 0.000000 0.000000 0.000000
 40   1.118101 -3.449769 3.237290 0.000000 0.000001 0.000000
 41   -4.433840 -1.059130 0.959566 -0.000001 0.000000 0.000000
 42   -0.657468 1.697302 -2.688614 0.000000 0.000002 0.000000
 43   -0.664068 1.698578 2.869377 0.000000 0.000002 0.000000
time 16
  0   -0.010486 -0.546892 -0.601210 0.000000 0.000000 -1.571354
  1   -1.093036 0.000002 -0.326057 -0.214066 -1.569082 -1.356583
  2   2.262337 0.113614 0.064702 0.009603 -0.080536 0.357772
  3   2.380047 0.353302 0.047440 -0.104167 -0.012288 0.344098
  4   2.033756 0.190472 -0.000128 -0.132077 -0.028715 0.037019
  5   2.451511 0.204909 -0.003447 -0.366061 0.056238 0.050410
  6   7.247600 -0.397300 -0.109469 0.000001 0.000021 0.156829
  7   -2.022252 -0.104661 3.136172 0.590491 -1.242460 -3.773105
  8   1.168026 -0.537438 -0.063437 -0.759954 0.730278 -0.634818
  9   6.790376 -0.619176 0.015206 0.048664 0.097156 -1.011945
 10   8.637599 0.544015 -0.090417 -3.396137 0.062235 -0.017483
 11   6.790465 -0.619039 0.017802 0.044854 0.052277 -0.723733
 12   -2.022474 -0.104699 -2.873818 -1.859852 1.438945 -5.158985
 13   1.167898 -0.537463 0.063297 -0.144037 -1.015002 -0.625173
 14   7.002743 -0.617765 -0.183752 0.020896 -0.160223 -1.685504
 15   8.209042 0.615527 -0.255885 2.270712 0.423176 0.344279
 16   7.002735 -0.617911 -0.183641 -0.000580 -0.109750 -1.196018
 17   1.574674 0.609930 -0.000899 0.546276 0.064879 0.607188
 18   -0.602177 0.511412 -0.000006 0.000000 0.000000 0.000000
 19   3.673773 0.177020 1.119313 -0.000002 -0.000014 -0.174510
 20   3.673767 0.176993 -1.117566 0.000007 -0.000003 -0.174546
 21   3.942357 1.334540 1.627658 0.000002 -0.000011 -0.000026
 22   -0.246060 -0.011889 0.516521 -0.000011 0.000031 0.000025
 23   3.942374 1.334565 -1.631083 0.000019 0.000002 -0.000024
 24   -0.246150 -0.011872 -0.516511 -0.000005 -0.000006 0.000048
 25   4.941364 1.997338 1.629330 0.000018 -0.000001 -0.000024
 26   4.941382 1.997366 -1.629410 -0.000001 0.000005 -0.000024
 27   2.914462 1.619264 1.514501 -0.000019 -0.000022 -0.000050
 28   2.916892 1.618870 -1.501142 -0.000002 -0.000009 -0.000024
 29   8.824059 0.150544 0.091743 0.000006 -0.000231 -0.174534
 30   2.111085 -0.561179 1.784320 -0.000008 -0.000682 0.000024
 31   2.121290 -0.561289 -1.853599 0.000000 0.000000 -0.000002
 32   -0.814395 -0.093824 3.127092 0.564173 -3.064346 -0.563643
 33   14.298673 -0.408176 0.471578 -0.006380 -0.009799 -0.413614
 34   15.835795 0.581398 0.242756 -0.007436 -0.212263 -0.117891
 35   -0.815868 -0.091229 -3.114430 -0.120039 3.021422 -0.057358
 36   14.294526 -0.410349 -0.467541 0.001651 0.012787 -0.721549
 37   15.834409 0.579420 -0.284600 -0.182289 -0.002288 0.569929
 38   1.139685 -3.453749 -2.823813 0.000000 0.000000 0.000001
 39   -4.457742 -1.054854 -0.746180 0.000000 0.000000 0.000000
 40   1.118101 -3.449769 3.237290 0.000000 0.000001 0.000000
 41   -4.433840 -1.059130 0.959566 -0.000001 0.000000 0.000000
 42   -0.657468 1.697302 -2.688614 0.000000 0.000002 0.000000
 43   -0.664068 1.698578 2.869377 0.000000 0.000002 0.000000
time 17
  0   -0.010486 -0.546892 -0.601210 0.000000 0.000000 -1.571354
  1   -1.093036 0.000002 -0.326057 -0.214066 -1.569082 -1.356583
  2   2.262337 0.113614 0.064702 0.008393 -0.082142 0.357339
  3   2.380047 0.353302 0.047440 -0.105142 -0.012109 0.344649
  4   2.033756 0.190472 -0.000128 -0.132538 -0.028667 0.036766
  5   2.451511 0.204909 -0.003447 -0.366780 0.050416 0.051401
  6   7.247600 -0.397300 -0.109469 0.000001 0.000021 0.156829
  7   -2.022252 -0.104661 3.136172 0.574483 -1.245054 -3.740704
  8   1.168026 -0.537438 -0.063437 -0.779950 0.706429 -0.672521
  9   6.790376 -0.619176 0.015206 0.049829 0.094953 -0.990361
 10   8.637599 0.544015 -0.090417 -3.428192 0.099894 0.058912
 11   6.790465 -0.619039 0.017802 0.045146 0.050657 -0.708565
 12   -2.022474 -0.104699 -2.873818 -1.718345 1.460713 -5.012022
 13   1.167898 -0.537463 0.063297 -0.134406 -1.010882 -0.648479
 14   7.002743 -0.617765 -0.183752 0.021750 -0.161700 -1.701180
 15   8.209042 0.615527 -0.255885 2.265895 0.415005 0.371281
 16   7.002735 -0.617911 -0.183641 -0.000532 -0.110935 -1.206891
 17   1.574674 0.609930 -0.000899 0.556675 0.082132 0.617130
 18   -0.602177 0.511412 -0.000006 0.000000 0.000000 0.000000
 19   3.673773 0.177020 1.119313 -0.000002 -0.000014 -0.174510
 20   3.673767 0.176993 -1.117566 0.000007 -0.000003 -0.174546
 21   3.942357 1.334540 1.627658 0.000002 -0.000011 -0.000026
 22   -0.246060 -0.011889 0.516521 -0.000011 0.000031 0.000025
 23   3.942374 1.334565 -1.631083 0.000019 0.000002 -0.000024
 24   -0.246150 -0.011872 -0.516511 -0.000005 -0.000006 0.000048
 25   4.941364 1.997338 1.629330 0.000018 -0.000001 -0.000024
 26   4.941382 1.997366 -1.629410 -0.000001 0.000005 -0.000024
 27   2.914462 1.619264 1.514501 -0.000019 -0.000022 -0.000050
 28   2.916892 1.618870 -1.501142 -0.000002 -0.000009 -0.000024
 29   8.824059 0.150544 0.091743 0.000006 -0.000231 -0.174534
 30   2.111085 -0.561179 1.784320 -0.000008 -0.000682 0.000024
 31   2.121290 -0.561289 -1.853599 0.000000 0.000000 -0.000002
 32   -0.814395 -0.093824 3.127092 0.564173 -3.064346 -0.563643
 33   14.298673 -0.408176 0.471578 -0.006380 -0.009799 -0.413614
 34   15.835795 0.581398 0.242756 -0.007436 -0.212263 -0.117891
 35   -0.815868 -0.091229 -3.114430 -0.120039 3.021422 -0.057358
 36   14.294526 -0.410349 -0.467541 0.001651 0.012787 -0.721549
 37   15.834409 0.579420 -0.284600 -0.182289 -0.002288 0.569929
 38   1.139685 -3.453749 -2.823813 0.000000 0.000000 0.000001
 39   -4.457742 -1.054854 -0.746180 0.000000 0.000000 0.000000
 40   1.118101 -3.449769 3.237290 0.000000 0.000001 0.000000
 41   -4.433840 -1.059130 0.959566 -0.000001 0.000000 0.000000
 42   -0.657468 1.697302 -2.688614 0.000000 0.000002 0.000000
 43   -0.664068 1.698578 2.869377 0.000000 0.000002 0.000000
time 18
  0   -0.010486 -0.546892 -0.601210 0.000000 0.000000 -1.571354
  1   -1.093036 0.000002 -0.326057 -0.214066 -1.569082 -1.356583
  2   2.262337 0.113614 0.064702 0.006406 -0.082489 0.355279
  3   2.380047 0.353302 0.047440 -0.107062 -0.011773 0.345302
  4   2.033756 0.190472 -0.000128 -0.133147 -0.028308 0.041768
  5   2.451511 0.204909 -0.003447 -0.367379 0.056095 0.054571
  6   7.247600 -0.397300 -0.109469 0.000001 0.000021 0.156829
  7   -2.022252 -0.104661 3.136172 0.546109 -1.244824 -3.716285
  8   1.168026 -0.537438 -0.063437 -0.776407 0.706077 -0.668409
  9   6.790376 -0.619176 0.015206 0.049607 0.095354 -0.997304
 10   8.637599 0.544015 -0.090417 -3.478037 0.128402 0.128073
 11   6.790465 -0.619039 0.017802 0.045117 0.050913 -0.713525
 12   -2.022474 -0.104699 -2.873818 -1.912833 1.468491 -5.219780
 13   1.167898 -0.537463 0.063297 -0.113177 -1.029444 -0.679291
 14   7.002743 -0.617765 -0.183752 0.023002 -0.162608 -1.715206
 15   8.209042 0.615527 -0.255885 2.253168 0.400251 0.387638
 16   7.002735 -0.617911 -0.183641 -0.000062 -0.111893 -1.216605
 17   1.574674 0.609930 -0.000899 0.560331 0.074890 0.607594
 18   -0.602177 0.511412 -0.000006 0.000000 0.000000 0.000000
 19   3.673773 0.177020 1.119313 -0.000002 -0.000014 -0.174510
 20   3.673767 0.176993 -1.117566 0.000007 -0.000003 -0.174546
 21   3.942357 1.334540 1.627658 0.000002 -0.000011 -0.000026
 22   -0.246060 -0.011889 0.516521 -0.000011 0.000031 0.000025
 23   3.942374 1.334565 -1.631083 0.000019 0.000002 -0.000024
 24   -0.246150 -0.011872 -0.516511 -0.000005 -0.000006 0.000048
 25   4.941364 1.997338 1.629330 0.000018 -0.000001 -0.000024
 26   4.941382 1.997366 -1.629410 -0.000001 0.000005 -0.000024
 27   2.914462 1.619264 1.514501 -0.000019 -0.000022 -0.000050
 28   2.916892 1.618870 -1.501142 -0.000002 -0.000009 -0.000024
 29   8.824059 0.150544 0.091743 0.000006 -0.000231 -0.174534
 30   2.111085 -0.561179 1.784320 -0.000008 -0.000682 0.000024
 31   2.121290 -0.561289 -1.853599 0.000000 0.000000 -0.000002
 32   -0.814395 -0.093824 3.127092 0.564173 -3.064346 -0.563643
 33   14.298673 -0.408176 0.471578 -0.006380 -0.009799 -0.413614
 34   15.835795 0.581398 0.242756 -0.007436 -0.212263 -0.117891
 35   -0.815868 -0.091229 -3.114430 -0.120039 3.021422 -0.057358
 36   14.294526 -0.410349 -0.467541 0.001651 0.012787 -0.721549
 37   15.834409 0.579420 -0.284600 -0.182289 -0.002288 0.569929
 38   1.139685 -3.453749 -2.823813 0.000000 0.000000 0.000001
 39   -4.457742 -1.054854 -0.746180 0.000000 0.000000 0.000000
 40   1.118101 -3.449769 3.237290 0.000000 0.000001 0.000000
 41   -4.433840 -1.059130 0.959566 -0.000001 0.000000 0.000000
 42   -0.657468 1.697302 -2.688614 0.000000 0.000002 0.000000
 43   -0.664068 1.698578 2.869377 0.000000 0.000002 0.000000
time 19
  0   -0.010486 -0.546892 -0.601210 0.000000 0.000000 -1.571354
  1   -1.093036 0.000002 -0.326057 -0.214066 -1.569082 -1.356583
  2   2.262337 0.113614 0.064702 0.004317 -0.082214 0.355333
  3   2.380047 0.353302 0.047440 -0.108622 -0.011461 0.345874
  4   2.033756 0.190472 -0.000128 -0.133737 -0.027876 0.046878
  5   2.451511 0.204909 -0.003447 -0.368047 0.064920 0.056750
  6   7.247600 -0.397300 -0.109469 0.000001 0.000021 0.156829
  7   -2.022252 -0.104661 3.136172 0.522049 -1.241105 -3.695624
  8   1.168026 -0.537438 -0.063437 -0.764004 0.703209 -0.643864
  9   6.790376 -0.619176 0.015206 0.048831 0.096555 -1.020397
 10   8.637599 0.544015 -0.090417 -3.526385 0.153531 0.189566
 11   6.790465 -0.619039 0.017802 0.045117 0.051794 -0.729616
 12   -2.022474 -0.104699 -2.873818 -2.171033 1.462600 -5.494078
 13   1.167898 -0.537463 0.063297 -0.093353 -1.045514 -0.711980
 14   7.002743 -0.617765 -0.183752 0.023799 -0.162835 -1.723704
 15   8.209042 0.615527 -0.255885 2.246193 0.396922 0.392449
 16   7.002735 -0.617911 -0.183641 0.000268 -0.112175 -1.222621
 17   1.574674 0.609930 -0.000899 0.562281 0.057495 0.599130
 18   -0.602177 0.511412 -0.000006 0.000000 0.000000 0.000000
 19   3.673773 0.177020 1.119313 -0.000002 -0.000014 -0.174510
 20   3.673767 0.176993 -1.117566 0.000007 -0.000003 -0.174546
 21   3.942357 1.334540 1.627658 0.000002 -0.000011 -0.000026
 22   -0.246060 -0.011889 0.516521 -0.000011 0.000031 0.000025
 23   3.942374 1.334565 -1.631083 0.000019 0.000002 -0.000024
 24   -0.246150 -0.011872 -0.516511 -0.000005 -0.000006 0.000048
 25   4.941364 1.997338 1.629330 0.000018 -0.000001 -0.000024
 26   4.941382 1.997366 -1.629410 -0.000001 0.000005 -0.000024
 27   2.914462 1.619264 1.514501 -0.000019 -0.000022 -0.000050
 28   2.916892 1.618870 -1.501142 -0.000002 -0.000009 -0.000024
 29   8.824059 0.150544 0.091743 0.000006 -0.000231 -0.174534
 30   2.111085 -0.561179 1.784320 -0.000008 -0.000682 0.000024
 31   2.121290 -0.561289 -1.853599 0.000000 0.000000 -0.000002
 32   -0.814395 -0.093824 3.127092 0.564173 -3.064346 -0.563643
 33   14.298673 -0.408176 0.471578 -0.006380 -0.009799 -0.413614
 34   15.835795 0.581398 0.242756 -0.007436 -0.212263 -0.117891
 35   -0.815868 -0.091229 -3.114430 -0.120039 3.021422 -0.057358
 36   14.294526 -0.410349 -0.467541 0.001651 0.012787 -0.721549
 37   15.834409 0.579420 -0.284600 -0.182289 -0.002288 0.569929
 38   1.139685 -3.453749 -2.823813 0.000000 0.000000 0.000001
 39   -4.457742 -1.054854 -0.746180 0.000000 0.000000 0.000000
 40   1.118101 -3.449769 3.237290 0.000000 0.000001 0.000000
 41   -4.433840 -1.059130 0.959566 -0.000001 0.000000 0.000000
 42   -0.657468 1.697302 -2.688614 0.000000 0.000002 0.000000
 43   -0.664068 1.698578 2.869377 0.000000 0.000002 0.000000
time 20
  0   -0.010486 -0.546892 -0.601210 0.000000 0.000000 -1.571354
  1   -1.093036 0.000002 -0.326057 -0.214066 -1.569082 -1.356583
  2   2.262337 0.113614 0.064702 0.002521 -0.081854 0.355387
  3   2.380047 0.353302 0.047440 -0.110257 -0.011222 0.346057
  4   2.033756 0.190472 -0.000128 -0.134198 -0.027828 0.046878
  5   2.451511 0.204909 -0.003447 -0.369553 0.069242 0.055834
  6   7.247600 -0.397300 -0.109469 0.000001 0.000021 0.156829
  7   -2.022252 -0.104661 3.136172 0.514764 -1.234042 -3.685105
  8   1.168026 -0.537438 -0.063437 -0.767168 0.700441 -0.636336
  9   6.790376 -0.619176 0.015206 0.048720 0.097022 -1.027491
 10   8.637599 0.544015 -0.090417 -3.547080 0.185137 0.226968
 11   6.790465 -0.619039 0.017802 0.045117 0.052050 -0.734576
 12   -2.022474 -0.104699 -2.873818 -2.241739 1.458507 -5.568086
 13   1.167898 -0.537463 0.063297 -0.079645 -1.047549 -0.735104
 14   7.002743 -0.617765 -0.183752 0.024141 -0.162835 -1.729892
 15   8.209042 0.615527 -0.255885 2.242742 0.398738 0.404958
 16   7.002735 -0.617911 -0.183641 0.000409 -0.112288 -1.226926
 17   1.574674 0.609930 -0.000899 0.564028 0.044525 0.600904
 18   -0.602177 0.511412 -0.000006 0.000000 0.000000 0.000000
 19   3.673773 0.177020 1.119313 -0.000002 -0.000014 -0.174510
 20   3.673767 0.176993 -1.117566 0.000007 -0.000003 -0.174546
 21   3.942357 1.334540 1.627658 0.000002 -0.000011 -0.000026
 22   -0.246060 -0.011889 0.516521 -0.000011 0.000031 0.000025
 23   3.942374 1.334565 -1.631083 0.000019 0.000002 -0.000024
 24   -0.246150 -0.011872 -0.516511 -0.000005 -0.000006 0.000048
 25   4.941364 1.997338 1.629330 0.000018 -0.000001 -0.000024
 26   4.941382 1.997366 -1.629410 -0.000001 0.000005 -0.000024
 27   2.914462 1.619264 1.514501 -0.000019 -0.000022 -0.000050
 28   2.916892 1.618870 -1.501142 -0.000002 -0.000009 -0.000024
 29   8.824059 0.150544 0.091743 0.000006 -0.000231 -0.174534
 30   2.111085 -0.561179 1.784320 -0.000008 -0.000682 0.000024
 31   2.121290 -0.561289 -1.853599 0.000000 0.000000 -0.000002
 32   -0.814395 -0.093824 3.127092 0.564173 -3.064346 -0.563643
 33   14.298673 -0.408176 0.471578 -0.006380 -0.009799 -0.413614
 34   15.835795 0.581398 0.242756 -0.007436 -0.212263 -0.117891
 35   -0.815868 -0.091229 -3.114430 -0.120039 3.021422 -0.057358
 36   14.294526 -0.410349 -0.467541 0.001651 0.012787 -0.721549
 37   15.834409 0.579420 -0.284600 -0.182289 -0.002288 0.569929
 38   1.139685 -3.453749 -2.823813 0.000000 0.000000 0.000001
 39   -4.457742 -1.054854 -0.746180 0.000000 0.000000 0.000000
 40   1.118101 -3.449769 3.237290 0.000000 0.000001 0.000000
 41   -4.433840 -1.059130 0.959566 -0.000001 0.000000 0.000000
 42   -0.657468 1.697302 -2.688614 0.000000 0.000002 0.000000
 43   -0.664068 1.698578 2.869377 0.000000 0.000002 0.000000
time 21
  0   -0.010486 -0.546892 -0.601210 0.000000 0.000000 -1.571354
  1   -1.093036 0.000002 -0.326057 -0.214066 -1.569082 -1.356583
  2   2.262337 0.113614 0.064702 0.000776 -0.081530 0.355514
  3   2.380047 0.353302 0.047440 -0.112508 -0.010838 0.346057
  4   2.033756 0.190472 -0.000128 -0.134493 -0.027804 0.046878
  5   2.451511 0.204909 -0.003447 -0.370443 0.073485 0.054992
  6   7.247600 -0.397300 -0.109469 0.000001 0.000021 0.156829
  7   -2.022252 -0.104661 3.136172 0.514093 -1.224616 -3.679376
  8   1.168026 -0.537438 -0.063437 -0.787164 0.693146 -0.651392
  9   6.790376 -0.619176 0.015206 0.049108 0.096288 -1.014888
 10   8.637599 0.544015 -0.090417 -3.536424 0.217164 0.245416
 11   6.790465 -0.619039 0.017802 0.045117 0.051566 -0.725809
 12   -2.022474 -0.104699 -2.873818 -2.222002 1.455895 -5.544438
 13   1.167898 -0.537463 0.063297 -0.069241 -1.043226 -0.748119
 14   7.002743 -0.617765 -0.183752 0.024426 -0.162835 -1.734677
 15   8.209042 0.615527 -0.255885 2.245618 0.406153 0.423480
 16   7.002735 -0.617911 -0.183641 0.000456 -0.112344 -1.230182
 17   1.574674 0.609930 -0.000899 0.565612 0.033497 0.602050
 18   -0.602177 0.511412 -0.000006 0.000000 0.000000 0.000000
 19   3.673773 0.177020 1.119313 -0.000002 -0.000014 -0.174510
 20   3.673767 0.176993 -1.117566 0.000007 -0.000003 -0.174546
 21   3.942357 1.334540 1.627658 0.000002 -0.000011 -0.000026
 22   -0.246060 -0.011889 0.516521 -0.000011 0.000031 0.000025
 23   3.942374 1.334565 -1.631083 0.000019 0.000002 -0.000024
 24   -0.246150 -0.011872 -0.516511 -0.000005 -0.000006 0.000048
 25   4.941364 1.997338 1.629330 0.000018 -0.000001 -0.000024
 26   4.941382 1.997366 -1.629410 -0.000001 0.000005 -0.000024
 27   2.914462 1.619264 1.514501 -0.000019 -0.000022 -0.000050
 28   2.916892 1.618870 -1.501142 -0.000002 -0.000009 -0.000024
 29   8.824059 0.150544 0.091743 0.000006 -0.000231 -0.174534
 30   2.111085 -0.561179 1.784320 -0.000008 -0.000682 0.000024
 31   2.121290 -0.561289 -1.853599 0.000000 0.000000 -0.000002
 32   -0.814395 -0.093824 3.127092 0.564173 -3.064346 -0.563643
 33   14.298673 -0.408176 0.471578 -0.006380 -0.009799 -0.413614
 34   15.835795 0.581398 0.242756 -0.007436 -0.212263 -0.117891
 35   -0.815868 -0.091229 -3.114430 -0.120039 3.021422 -0.057358
 36   14.294526 -0.410349 -0.467541 0.001651 0.012787 -0.721549
 37   15.834409 0.579420 -0.284600 -0.182289 -0.002288 0.569929
 38   1.139685 -3.453749 -2.823813 0.000000 0.000000 0.000001
 39   -4.457742 -1.054854 -0.746180 0.000000 0.000000 0.000000
 40   1.118101 -3.449769 3.237290 0.000000 0.000001 0.000000
 41   -4.433840 -1.059130 0.959566 -0.000001 0.000000 0.000000
 42   -0.657468 1.697302 -2.688614 0.000000 0.000002 0.000000
 43   -0.664068 1.698578 2.869377 0.000000 0.000002 0.000000
time 22
  0   -0.010486 -0.546892 -0.601210 0.000000 0.000000 -1.571354
  1   -1.093036 0.000002 -0.326057 -0.214066 -1.569082 -1.356583
  2   2.262337 0.113614 0.064702 -0.001173 -0.081171 0.355568
  3   2.380047 0.353302 0.047440 -0.113723 -0.010646 0.346057
  4   2.033756 0.190472 -0.000128 -0.134604 -0.027792 0.046878
  5   2.451511 0.204909 -0.003447 -0.370306 0.078198 0.054150
  6   7.247600 -0.397300 -0.109469 0.000001 0.000021 0.156829
  7   -2.022252 -0.104661 3.136172 0.513134 -1.214065 -3.674493
  8   1.168026 -0.537438 -0.063437 -0.796467 0.690529 -0.651329
  9   6.790376 -0.619176 0.015206 0.048831 0.096622 -1.021831
 10   8.637599 0.544015 -0.090417 -3.528851 0.222444 0.261983
 11   6.790465 -0.619039 0.017802 0.045117 0.051822 -0.730654
 12   -2.022474 -0.104699 -2.873818 -2.198242 1.452499 -5.514471
 13   1.167898 -0.537463 0.063297 -0.058837 -1.038344 -0.755262
 14   7.002743 -0.617765 -0.183752 0.024426 -0.162835 -1.734677
 15   8.209042 0.615527 -0.255885 2.242311 0.401916 0.426006
 16   7.002735 -0.617911 -0.183641 0.000503 -0.112344 -1.230182
 17   1.574674 0.609930 -0.000899 0.568456 0.025994 0.602494
 18   -0.602177 0.511412 -0.000006 0.000000 0.000000 0.000000
 19   3.673773 0.177020 1.119313 -0.000002 -0.000014 -0.174510
 20   3.673767 0.176993 -1.117566 0.000007 -0.000003 -0.174546
 21   3.942357 1.334540 1.627658 0.000002 -0.000011 -0.000026
 22   -0.246060 -0.011889 0.516521 -0.000011 0.000031 0.000025
 23   3.942374 1.334565 -1.631083 0.000019 0.000002 -0.000024
 24   -0.246150 -0.011872 -0.516511 -0.000005 -0.000006 0.000048
 25   4.941364 1.997338 1.629330 0.000018 -0.000001 -0.000024
 26   4.941382 1.997366 -1.629410 -0.000001 0.000005 -0.000024
 27   2.914462 1.619264 1.514501 -0.000019 -0.000022 -0.000050
 28   2.916892 1.618870 -1.501142 -0.000002 -0.000009 -0.000024
 29   8.824059 0.150544 0.091743 0.000006 -0.000231 -0.174534
 30   2.111085 -0.561179 1.784320 -0.000008 -0.000682 0.000024
 31   2.121290 -0.561289 -1.853599 0.000000 0.000000 -0.000002
 32   -0.814395 -0.093824 3.127092 0.564173 -3.064346 -0.563643
 33   14.298673 -0.408176 0.471578 -0.006380 -0.009799 -0.413614
 34   15.835795 0.581398 0.242756 -0.007436 -0.212263 -0.117891
 35   -0.815868 -0.091229 -3.114430 -0.120039 3.021422 -0.057358
 36   14.294526 -0.410349 -0.467541 0.001651 0.012787 -0.721549
 37   15.834409 0.579420 -0.284600 -0.182289 -0.002288 0.569929
 38   1.139685 -3.453749 -2.823813 0.000000 0.000000 0.000001
 39   -4.457742 -1.054854 -0.746180 0.000000 0.000000 0.000000
 40   1.118101 -3.449769 3.237290 0.000000 0.000001 0.000000
 41   -4.433840 -1.059130 0.959566 -0.000001 0.000000 0.000000
 42   -0.657468 1.697302 -2.688614 0.000000 0.000002 0.000000
 43   -0.664068 1.698578 2.869377 0.000000 0.000002 0.000000
time 23
  0   -0.010486 -0.546892 -0.601210 0.000000 0.000000 -1.571354
  1   -1.093036 0.000002 -0.326057 -0.214066 -1.569082 -1.356583
  2   2.262337 0.113614 0.064702 -0.001173 -0.081171 0.355568
  3   2.380047 0.353302 0.047440 -0.113723 -0.010646 0.346057
  4   2.033756 0.190472 -0.000128 -0.134604 -0.027792 0.046878
  5   2.451511 0.204909 -0.003447 -0.370306 0.078198 0.054150
  6   7.247600 -0.397300 -0.109469 0.000001 0.000021 0.156829
  7   -2.022252 -0.104661 3.136172 0.513134 -1.214065 -3.674493
  8   1.168026 -0.537438 -0.063437 -0.796467 0.690529 -0.651329
  9   6.790376 -0.619176 0.015206 0.048831 0.096622 -1.021831
 10   8.637599 0.544015 -0.090417 -3.528851 0.222444 0.261983
 11   6.790465 -0.619039 0.017802 0.045117 0.051822 -0.730654
 12   -2.022474 -0.104699 -2.873818 -2.198242 1.452499 -5.514471
 13   1.167898 -0.537463 0.063297 -0.058837 -1.038344 -0.755262
 14   7.002743 -0.617765 -0.183752 0.024426 -0.162835 -1.734677
 15   8.209042 0.615527 -0.255885 2.242311 0.401916 0.426006
 16   7.002735 -0.617911 -0.183641 0.000503 -0.112344 -1.230182
 17   1.574674 0.609930 -0.000899 0.568456 0.025994 0.602494
 18   -0.602177 0.511412 -0.000006 0.000000 0.000000 0.000000
 19   3.673773 0.177020 1.119313 -0.000002 -0.000014 -0.174510
 20   3.673767 0.176993 -1.117566 0.000007 -0.000003 -0.174546
 21   3.942357 1.334540 1.627658 0.000002 -0.000011 -0.000026
 22   -0.246060 -0.011889 0.516521 -0.000011 0.000031 0.000025
 23   3.942374 1.334565 -1.631083 0.000019 0.000002 -0.000024
 24   -0.246150 -0.011872 -0.516511 -0.000005 -0.000006 0.000048
 25   4.941364 1.997338 1.629330 0.000018 -0.000001 -0.000024
 26   4.941382 1.997366 -1.629410 -0.000001 0.000005 -0.000024
 27   2.914462 1.619264 1.514501 -0.000019 -0.000022 -0.000050
 28   2.916892 1.618870 -1.501142 -0.000002 -0.000009 -0.000024
 29   8.824059 0.150544 0.091743 0.000006 -0.000231 -0.174534
 30   2.111085 -0.561179 1.784320 -0.000008 -0.000682 0.000024
 31   2.121290 -0.561289 -1.853599 0.000000 0.000000 -0.000002
 32   -0.814395 -0.093824 3.127092 0.564173 -3.064346 -0.563643
 33   14.298673 -0.408176 0.471578 -0.006380 -0.009799 -0.413614
 34   15.835795 0.581398 0.242756 -0.007436 -0.212263 -0.117891
 35   -0.815868 -0.091229 -3.114430 -0.120039 3.021422 -0.057358
 36   14.294526 -0.410349 -0.467541 0.001651 0.012787 -0.721549
 37   15.834409 0.579420 -0.284600 -0.182289 -0.002288 0.569929
 38   1.139685 -3.453749 -2.823813 0.000000 0.000000 0.000001
 39   -4.457742 -1.054854 -0.746180 0.000000 0.000000 0.000000
 40   1.118101 -3.449769 3.237290 0.000000 0.000001 0.000000
 41   -4.433840 -1.059130 0.959566 -0.000001 0.000000 0.000000
 42   -0.657468 1.697302 -2.688614 0.000000 0.000002 0.000000
 43   -0.664068 1.698578 2.869377 0.000000 0.000002 0.000000
end
