version 1
nodes
  0 "Bip01" -1
  1 "Bip01 Pelvis" 0
  2 "Bip01 Spine" 1
  3 "Bip01 Spine1" 2
  4 "Bip01 Spine2" 3
  5 "Bip01 Spine3" 4
  6 "Bip01 Neck" 5
  7 "Bip01 L Arm" 6
  8 "Bip01 L Arm1" 7
  9 "Bip01 L Arm2" 8
 10 "Bip01 L Hand" 9
 11 "Bip06 L elbow2-smooth" 8
 12 "Bip01 R Arm" 6
 13 "Bip01 R Arm1" 12
 14 "Bip01 R Arm2" 13
 15 "Bip01 R Hand" 14
 16 "Bip06 R elbow2-smooth" 13
 17 "Bip01 Head" 6
 18 "Bip06 Head_helper" 17
 19 "Bip06 Head_eyes_l" 18
 20 "Bip06 Head_eyes_r" 18
 21 "Bip06 Head_blink_l" 18
 22 "Bip06 Head_blink_smooth_l1" 21
 23 "Bip06 Head_blink_r" 18
 24 "Bip06 Head_blink_smooth_r1" 23
 25 "Bip06 Head_L_eyebrow" 18
 26 "Bip06 Head_R_eyebrow" 18
 27 "Bip06 Head_blink_l_lid" 18
 28 "Bip06 Head_blink_r_lid" 18
 29 "Bip06 bunny" 18
 30 "Bip06 bunnyL" 29
 31 "Bip06 bunnyR" 29
 32 "Bip01 L Leg" 1
 33 "Bip01 L Leg1" 32
 34 "Bip01 L Foot" 33
 35 "Bip01 R Leg" 1
 36 "Bip01 R Leg1" 35
 37 "Bip01 R Foot" 36
 38 "Bip03 HairR1" 17
 39 "Bip03 HairR2" 38
 40 "Bip03 HairL1" 17
 41 "Bip03 HairL2" 40
 42 "Bip03 swingR" 17
 43 "Bip03 swingL" 17
end
skeleton
time 0
  0   0.001233 -0.019532 2.285597 0.000000 0.000000 -1.571829
  1   -1.093036 0.000002 -0.326057 -0.214066 -1.569082 -1.356534
  2   2.262337 0.113614 0.064702 -0.013758 -0.103762 0.132104
  3   2.380047 0.353302 0.047440 -0.265878 0.048737 0.176508
  4   2.033756 0.190472 -0.000128 -0.261987 0.067078 0.243808
  5   2.451511 0.204909 -0.003447 -0.139451 -0.002094 -0.017422
  6   7.247600 -0.397300 -0.109469 0.000001 0.000009 0.052298
  7   -2.022252 -0.104661 3.136172 1.070356 -1.170911 -4.229632
  8   1.168026 -0.537438 -0.063437 -0.423681 0.283990 -0.656010
  9   6.790376 -0.619176 0.015206 -0.000102 -0.000285 -1.110505
 10   8.637599 0.544015 -0.090417 -4.300387 0.240816 0.178425
 11   6.790465 -0.619039 0.017802 0.000797 -0.011623 -0.792539
 12   -2.022474 -0.104699 -2.873818 0.298873 1.361712 -2.901984
 13   1.167898 -0.537463 0.063297 0.714281 -0.857302 -1.281854
 14   7.002743 -0.617765 -0.183752 0.000229 0.000250 -1.945066
 15   8.209042 0.615527 -0.255885 1.759123 -0.372837 1.075068
 16   7.002735 -0.617911 -0.183641 0.012978 0.010920 -1.380362
 17   1.574674 0.609930 -0.000899 0.701247 -0.325340 0.126103
 18   -0.602177 0.511412 -0.000006 0.000000 0.000000 0.000000
 19   3.673773 0.177020 1.119313 -0.000002 -0.000014 -0.174510
 20   3.673767 0.176993 -1.117566 0.000007 -0.000003 -0.174546
 21   3.942357 1.334540 1.627658 0.000002 -0.000011 -0.000026
 22   -0.246060 -0.011889 0.516521 -0.000011 0.000031 0.000025
 23   3.942374 1.334565 -1.631083 0.000019 0.000002 -0.000024
 24   -0.246150 -0.011872 -0.516511 -0.000005 -0.000006 0.000048
 25   4.941364 1.997338 1.629330 0.000018 -0.000001 -0.000024
 26   4.941382 1.997366 -1.629410 -0.000001 0.000005 -0.000024
 27   2.914462 1.619264 1.514501 -0.000019 -0.000022 -0.000050
 28   2.916892 1.618870 -1.501142 -0.000002 -0.000009 -0.000024
 29   8.824059 0.150544 0.091743 0.000006 -0.000231 -0.174534
 30   2.111085 -0.561179 1.784320 -0.000008 -0.000682 0.000024
 31   2.121290 -0.561289 -1.853599 0.000000 0.000000 -0.000002
 32   -0.814395 -0.093824 3.127092 0.338887 -3.077717 -0.167408
 33   14.298673 -0.408176 0.471578 0.013215 -0.091859 -0.496506
 34   15.835795 0.581398 0.242756 -0.532539 -0.064474 0.362915
 35   -0.815868 -0.091229 -3.114430 -0.002012 2.881638 -0.314978
 36   14.294526 -0.410349 -0.467541 -0.021444 0.095337 -0.575480
 37   15.834409 0.579420 -0.284600 -0.051545 0.043118 0.201427
 38   1.139685 -3.453749 -2.823813 0.000000 0.000000 0.000001
 39   -4.457742 -1.054854 -0.746180 0.000000 0.000000 0.000000
 40   1.118101 -3.449769 3.237290 0.000000 0.000001 0.000000
 41   -4.433840 -1.059130 0.959566 -0.000001 0.000000 0.000000
 42   -0.657468 1.697302 -2.688614 0.000000 0.000002 0.000000
 43   -0.664068 1.698578 2.869377 0.000000 0.000002 0.000000
time 1
  0   0.001233 -0.019532 2.285597 0.000000 0.000000 -1.571829
  1   -1.093036 0.000002 -0.326057 -0.213961 -1.569082 -1.356583
  2   2.262337 0.113614 0.064702 -0.013758 -0.103762 0.132104
  3   2.380047 0.353302 0.047440 -0.261633 0.047970 0.176671
  4   2.033756 0.190472 -0.000128 -0.253448 0.064921 0.244425
  5   2.451511 0.204909 -0.003447 -0.127812 -0.001924 -0.017472
  6   7.247600 -0.397300 -0.109469 0.000001 0.000009 0.052298
  7   -2.022252 -0.104661 3.136172 1.002489 -1.215247 -4.166521
  8   1.168026 -0.537438 -0.063437 -0.359009 0.399109 -0.607173
  9   6.790376 -0.619176 0.015206 -0.000102 -0.000285 -1.110505
 10   8.637599 0.544015 -0.090417 -4.146626 0.178309 0.205988
 11   6.790465 -0.619039 0.017802 0.000797 -0.011623 -0.792539
 12   -2.022474 -0.104699 -2.873818 0.298873 1.361712 -2.901984
 13   1.167898 -0.537463 0.063297 0.714281 -0.857302 -1.281854
 14   7.002743 -0.617765 -0.183752 0.000229 0.000250 -1.945066
 15   8.209042 0.615527 -0.255885 1.759123 -0.372837 1.075068
 16   7.002735 -0.617911 -0.183641 0.012978 0.010920 -1.380362
 17   1.574674 0.609930 -0.000899 0.701247 -0.325340 0.126103
 18   -0.602177 0.511412 -0.000006 0.000000 0.000000 0.000000
 19   3.673773 0.177020 1.119313 -0.000002 -0.000014 -0.174510
 20   3.673767 0.176993 -1.117566 0.000007 -0.000003 -0.174546
 21   3.942357 1.334540 1.627658 0.000002 -0.000011 -0.000026
 22   -0.246060 -0.011889 0.516521 -0.000011 0.000031 0.000025
 23   3.942374 1.334565 -1.631083 0.000019 0.000002 -0.000024
 24   -0.246150 -0.011872 -0.516511 -0.000005 -0.000006 0.000048
 25   4.941364 1.997338 1.629330 0.000018 -0.000001 -0.000024
 26   4.941382 1.997366 -1.629410 -0.000001 0.000005 -0.000024
 27   2.914462 1.619264 1.514501 -0.000019 -0.000022 -0.000050
 28   2.916892 1.618870 -1.501142 -0.000002 -0.000009 -0.000024
 29   8.824059 0.150544 0.091743 0.000006 -0.000231 -0.174534
 30   2.111085 -0.561179 1.784320 -0.000008 -0.000682 0.000024
 31   2.121290 -0.561289 -1.853599 0.000000 0.000000 -0.000002
 32   -0.814395 -0.093824 3.127092 0.338887 -3.077717 -0.167693
 33   14.298673 -0.408176 0.471578 0.013323 -0.092001 -0.496982
 34   15.835795 0.581398 0.242756 -0.532539 -0.064474 0.362915
 35   -0.815868 -0.091229 -3.114430 -0.002012 2.881638 -0.315361
 36   14.294526 -0.410349 -0.467541 -0.021540 0.095265 -0.575866
 37   15.834409 0.579420 -0.284600 -0.051545 0.043118 0.201427
 38   1.139685 -3.453749 -2.823813 0.000000 0.000000 0.000001
 39   -4.457742 -1.054854 -0.746180 0.000000 0.000000 0.000000
 40   1.118101 -3.449769 3.237290 0.000000 0.000001 0.000000
 41   -4.433840 -1.059130 0.959566 -0.000001 0.000000 0.000000
 42   -0.657468 1.697302 -2.688614 0.000000 0.000002 0.000000
 43   -0.664068 1.698578 2.869377 0.000000 0.000002 0.000000
time 2
  0   0.001233 -0.019532 2.285597 0.000000 0.000000 -1.571829
  1   -1.093036 0.000002 -0.326057 -0.213961 -1.569082 -1.356583
  2   2.262337 0.113614 0.064702 -0.013758 -0.103762 0.132104
  3   2.380047 0.353302 0.047440 -0.257222 0.047203 0.176875
  4   2.033756 0.190472 -0.000128 -0.244946 0.062787 0.245004
  5   2.451511 0.204909 -0.003447 -0.116155 -0.001768 -0.017472
  6   7.247600 -0.397300 -0.109469 0.000001 0.000009 0.052298
  7   -2.022252 -0.104661 3.136172 0.916696 -1.257681 -4.085565
  8   1.168026 -0.537438 -0.063437 -0.283895 0.511058 -0.547139
  9   6.790376 -0.619176 0.015206 -0.000102 -0.000285 -1.110505
 10   8.637599 0.544015 -0.090417 -3.996035 0.112212 0.223134
 11   6.790465 -0.619039 0.017802 0.000797 -0.011623 -0.792539
 12   -2.022474 -0.104699 -2.873818 0.298873 1.361712 -2.901984
 13   1.167898 -0.537463 0.063297 0.714281 -0.857302 -1.281854
 14   7.002743 -0.617765 -0.183752 0.000229 0.000250 -1.945066
 15   8.209042 0.615527 -0.255885 1.759123 -0.372837 1.075068
 16   7.002735 -0.617911 -0.183641 0.012978 0.010920 -1.380362
 17   1.574674 0.609930 -0.000899 0.701247 -0.325340 0.126103
 18   -0.602177 0.511412 -0.000006 0.000000 0.000000 0.000000
 19   3.673773 0.177020 1.119313 -0.000002 -0.000014 -0.174510
 20   3.673767 0.176993 -1.117566 0.000007 -0.000003 -0.174546
 21   3.942357 1.334540 1.627658 0.000002 -0.000011 -0.000026
 22   -0.246060 -0.011889 0.516521 -0.000011 0.000031 0.000025
 23   3.942374 1.334565 -1.631083 0.000019 0.000002 -0.000024
 24   -0.246150 -0.011872 -0.516511 -0.000005 -0.000006 0.000048
 25   4.941364 1.997338 1.629330 0.000018 -0.000001 -0.000024
 26   4.941382 1.997366 -1.629410 -0.000001 0.000005 -0.000024
 27   2.914462 1.619264 1.514501 -0.000019 -0.000022 -0.000050
 28   2.916892 1.618870 -1.501142 -0.000002 -0.000009 -0.000024
 29   8.824059 0.150544 0.091743 0.000006 -0.000231 -0.174534
 30   2.111085 -0.561179 1.784320 -0.000008 -0.000682 0.000024
 31   2.121290 -0.561289 -1.853599 0.000000 0.000000 -0.000002
 32   -0.814395 -0.093824 3.127092 0.338887 -3.077717 -0.167693
 33   14.298673 -0.408176 0.471578 0.013323 -0.092001 -0.496982
 34   15.835795 0.581398 0.242756 -0.532539 -0.064474 0.362915
 35   -0.815868 -0.091229 -3.114430 -0.002012 2.881638 -0.315361
 36   14.294526 -0.410349 -0.467541 -0.021540 0.095265 -0.575866
 37   15.834409 0.579420 -0.284600 -0.051545 0.043118 0.201427
 38   1.139685 -3.453749 -2.823813 0.000000 0.000000 0.000001
 39   -4.457742 -1.054854 -0.746180 0.000000 0.000000 0.000000
 40   1.118101 -3.449769 3.237290 0.000000 0.000001 0.000000
 41   -4.433840 -1.059130 0.959566 -0.000001 0.000000 0.000000
 42   -0.657468 1.697302 -2.688614 0.000000 0.000002 0.000000
 43   -0.664068 1.698578 2.869377 0.000000 0.000002 0.000000
time 3
  0   0.001233 -0.019532 2.285597 0.000000 0.000000 -1.571829
  1   -1.093036 0.000002 -0.326057 -0.213961 -1.569082 -1.356583
  2   2.262337 0.113614 0.064702 -0.013758 -0.103762 0.132104
  3   2.380047 0.353302 0.047440 -0.253022 0.046436 0.177079
  4   2.033756 0.190472 -0.000128 -0.236536 0.060726 0.245439
  5   2.451511 0.204909 -0.003447 -0.104550 -0.001572 -0.017472
  6   7.247600 -0.397300 -0.109469 0.000001 0.000009 0.052298
  7   -2.022252 -0.104661 3.136172 0.806076 -1.297520 -3.979627
  8   1.168026 -0.537438 -0.063437 -0.195682 0.618379 -0.472808
  9   6.790376 -0.619176 0.015206 -0.000102 -0.000285 -1.110505
 10   8.637599 0.544015 -0.090417 -3.847293 0.044778 0.229862
 11   6.790465 -0.619039 0.017802 0.000797 -0.011623 -0.792539
 12   -2.022474 -0.104699 -2.873818 0.298873 1.361712 -2.901984
 13   1.167898 -0.537463 0.063297 0.714281 -0.857302 -1.281854
 14   7.002743 -0.617765 -0.183752 0.000229 0.000250 -1.945066
 15   8.209042 0.615527 -0.255885 1.759123 -0.372837 1.075068
 16   7.002735 -0.617911 -0.183641 0.012978 0.010920 -1.380362
 17   1.574674 0.609930 -0.000899 0.701247 -0.325340 0.126103
 18   -0.602177 0.511412 -0.000006 0.000000 0.000000 0.000000
 19   3.673773 0.177020 1.119313 -0.000002 -0.000014 -0.174510
 20   3.673767 0.176993 -1.117566 0.000007 -0.000003 -0.174546
 21   3.942357 1.334540 1.627658 0.000002 -0.000011 -0.000026
 22   -0.246060 -0.011889 0.516521 -0.000011 0.000031 0.000025
 23   3.942374 1.334565 -1.631083 0.000019 0.000002 -0.000024
 24   -0.246150 -0.011872 -0.516511 -0.000005 -0.000006 0.000048
 25   4.941364 1.997338 1.629330 0.000018 -0.000001 -0.000024
 26   4.941382 1.997366 -1.629410 -0.000001 0.000005 -0.000024
 27   2.914462 1.619264 1.514501 -0.000019 -0.000022 -0.000050
 28   2.916892 1.618870 -1.501142 -0.000002 -0.000009 -0.000024
 29   8.824059 0.150544 0.091743 0.000006 -0.000231 -0.174534
 30   2.111085 -0.561179 1.784320 -0.000008 -0.000682 0.000024
 31   2.121290 -0.561289 -1.853599 0.000000 0.000000 -0.000002
 32   -0.814395 -0.093824 3.127092 0.338887 -3.077717 -0.167693
 33   14.298673 -0.408176 0.471578 0.013323 -0.092001 -0.496982
 34   15.835795 0.581398 0.242756 -0.532539 -0.064474 0.362915
 35   -0.815868 -0.091229 -3.114430 -0.002012 2.881638 -0.315361
 36   14.294526 -0.410349 -0.467541 -0.021540 0.095265 -0.575866
 37   15.834409 0.579420 -0.284600 -0.051545 0.043118 0.201427
 38   1.139685 -3.453749 -2.823813 0.000000 0.000000 0.000001
 39   -4.457742 -1.054854 -0.746180 0.000000 0.000000 0.000000
 40   1.118101 -3.449769 3.237290 0.000000 0.000001 0.000000
 41   -4.433840 -1.059130 0.959566 -0.000001 0.000000 0.000000
 42   -0.657468 1.697302 -2.688614 0.000000 0.000002 0.000000
 43   -0.664068 1.698578 2.869377 0.000000 0.000002 0.000000
time 4
  0   0.001233 -0.019532 2.285597 0.000000 0.000000 -1.571829
  1   -1.093036 0.000002 -0.326057 -0.213961 -1.569082 -1.356583
  2   2.262337 0.113614 0.064702 -0.013758 -0.103762 0.132104
  3   2.380047 0.353302 0.047440 -0.248687 0.045669 0.177324
  4   2.033756 0.190472 -0.000128 -0.228034 0.058605 0.245874
  5   2.451511 0.204909 -0.003447 -0.092859 -0.001298 -0.017472
  6   7.247600 -0.397300 -0.109469 0.000001 0.000009 0.052298
  7   -2.022252 -0.104661 3.136172 0.660947 -1.332891 -3.839410
  8   1.168026 -0.537438 -0.063437 -0.089497 0.719360 -0.379942
  9   6.790376 -0.619176 0.015206 -0.000102 -0.000285 -1.110505
 10   8.637599 0.544015 -0.090417 -3.698992 -0.022585 0.226606
 11   6.790465 -0.619039 0.017802 0.000797 -0.011623 -0.792539
 12   -2.022474 -0.104699 -2.873818 0.298873 1.361712 -2.901984
 13   1.167898 -0.537463 0.063297 0.714281 -0.857302 -1.281854
 14   7.002743 -0.617765 -0.183752 0.000229 0.000250 -1.945066
 15   8.209042 0.615527 -0.255885 1.759123 -0.372837 1.075068
 16   7.002735 -0.617911 -0.183641 0.012978 0.010920 -1.380362
 17   1.574674 0.609930 -0.000899 0.701247 -0.325340 0.126103
 18   -0.602177 0.511412 -0.000006 0.000000 0.000000 0.000000
 19   3.673773 0.177020 1.119313 -0.000002 -0.000014 -0.174510
 20   3.673767 0.176993 -1.117566 0.000007 -0.000003 -0.174546
 21   3.942357 1.334540 1.627658 0.000002 -0.000011 -0.000026
 22   -0.246060 -0.011889 0.516521 -0.000011 0.000031 0.000025
 23   3.942374 1.334565 -1.631083 0.000019 0.000002 -0.000024
 24   -0.246150 -0.011872 -0.516511 -0.000005 -0.000006 0.000048
 25   4.941364 1.997338 1.629330 0.000018 -0.000001 -0.000024
 26   4.941382 1.997366 -1.629410 -0.000001 0.000005 -0.000024
 27   2.914462 1.619264 1.514501 -0.000019 -0.000022 -0.000050
 28   2.916892 1.618870 -1.501142 -0.000002 -0.000009 -0.000024
 29   8.824059 0.150544 0.091743 0.000006 -0.000231 -0.174534
 30   2.111085 -0.561179 1.784320 -0.000008 -0.000682 0.000024
 31   2.121290 -0.561289 -1.853599 0.000000 0.000000 -0.000002
 32   -0.814395 -0.093824 3.127092 0.338887 -3.077717 -0.167693
 33   14.298673 -0.408176 0.471578 0.013323 -0.092001 -0.496982
 34   15.835795 0.581398 0.242756 -0.532539 -0.064474 0.362915
 35   -0.815868 -0.091229 -3.114430 -0.002012 2.881638 -0.315361
 36   14.294526 -0.410349 -0.467541 -0.021540 0.095265 -0.575866
 37   15.834409 0.579420 -0.284600 -0.051545 0.043118 0.201427
 38   1.139685 -3.453749 -2.823813 0.000000 0.000000 0.000001
 39   -4.457742 -1.054854 -0.746180 0.000000 0.000000 0.000000
 40   1.118101 -3.449769 3.237290 0.000000 0.000001 0.000000
 41   -4.433840 -1.059130 0.959566 -0.000001 0.000000 0.000000
 42   -0.657468 1.697302 -2.688614 0.000000 0.000002 0.000000
 43   -0.664068 1.698578 2.869377 0.000000 0.000002 0.000000
time 5
  0   0.001233 -0.019532 2.285597 0.000000 0.000000 -1.571829
  1   -1.093036 0.000002 -0.326057 -0.213961 -1.569082 -1.356583
  2   2.262337 0.113614 0.064702 -0.013758 -0.103762 0.132104
  3   2.380047 0.353302 0.047440 -0.244366 0.044902 0.177528
  4   2.033756 0.190472 -0.000128 -0.219569 0.056436 0.246454
  5   2.451511 0.204909 -0.003447 -0.081288 -0.001128 -0.017472
  6   7.247600 -0.397300 -0.109469 0.000001 0.000009 0.052298
  7   -2.022252 -0.104661 3.136172 0.472299 -1.361891 -3.655146
  8   1.168026 -0.537438 -0.063437 0.039595 0.811083 -0.262910
  9   6.790376 -0.619176 0.015206 -0.000102 -0.000285 -1.110505
 10   8.637599 0.544015 -0.090417 -3.550339 -0.089386 0.213512
 11   6.790465 -0.619039 0.017802 0.000797 -0.011623 -0.792539
 12   -2.022474 -0.104699 -2.873818 0.298873 1.361712 -2.901984
 13   1.167898 -0.537463 0.063297 0.714281 -0.857302 -1.281854
 14   7.002743 -0.617765 -0.183752 0.000229 0.000250 -1.945066
 15   8.209042 0.615527 -0.255885 1.759123 -0.372837 1.075068
 16   7.002735 -0.617911 -0.183641 0.012978 0.010920 -1.380362
 17   1.574674 0.609930 -0.000899 0.701247 -0.325340 0.126103
 18   -0.602177 0.511412 -0.000006 0.000000 0.000000 0.000000
 19   3.673773 0.177020 1.119313 -0.000002 -0.000014 -0.174510
 20   3.673767 0.176993 -1.117566 0.000007 -0.000003 -0.174546
 21   3.942357 1.334540 1.627658 0.000002 -0.000011 -0.000026
 22   -0.246060 -0.011889 0.516521 -0.000011 0.000031 0.000025
 23   3.942374 1.334565 -1.631083 0.000019 0.000002 -0.000024
 24   -0.246150 -0.011872 -0.516511 -0.000005 -0.000006 0.000048
 25   4.941364 1.997338 1.629330 0.000018 -0.000001 -0.000024
 26   4.941382 1.997366 -1.629410 -0.000001 0.000005 -0.000024
 27   2.914462 1.619264 1.514501 -0.000019 -0.000022 -0.000050
 28   2.916892 1.618870 -1.501142 -0.000002 -0.000009 -0.000024
 29   8.824059 0.150544 0.091743 0.000006 -0.000231 -0.174534
 30   2.111085 -0.561179 1.784320 -0.000008 -0.000682 0.000024
 31   2.121290 -0.561289 -1.853599 0.000000 0.000000 -0.000002
 32   -0.814395 -0.093824 3.127092 0.338887 -3.077717 -0.167693
 33   14.298673 -0.408176 0.471578 0.013323 -0.092001 -0.496982
 34   15.835795 0.581398 0.242756 -0.532539 -0.064474 0.362915
 35   -0.815868 -0.091229 -3.114430 -0.002012 2.881638 -0.315361
 36   14.294526 -0.410349 -0.467541 -0.021540 0.095265 -0.575866
 37   15.834409 0.579420 -0.284600 -0.051545 0.043118 0.201427
 38   1.139685 -3.453749 -2.823813 0.000000 0.000000 0.000001
 39   -4.457742 -1.054854 -0.746180 0.000000 0.000000 0.000000
 40   1.118101 -3.449769 3.237290 0.000000 0.000001 0.000000
 41   -4.433840 -1.059130 0.959566 -0.000001 0.000000 0.000000
 42   -0.657468 1.697302 -2.688614 0.000000 0.000002 0.000000
 43   -0.664068 1.698578 2.869377 0.000000 0.000002 0.000000
time 6
  0   0.001233 -0.019532 2.285597 0.000000 0.000000 -1.571829
  1   -1.093036 0.000002 -0.326057 -0.213961 -1.569082 -1.356583
  2   2.262337 0.113614 0.064702 -0.013758 -0.103762 0.132104
  3   2.380047 0.353302 0.047440 -0.240016 0.044123 0.177671
  4   2.033756 0.190472 -0.000128 -0.211085 0.054278 0.246998
  5   2.451511 0.204909 -0.003447 -0.069666 -0.000958 -0.017472
  6   7.247600 -0.397300 -0.109469 0.000001 0.000009 0.052298
  7   -2.022252 -0.104661 3.136172 0.234379 -1.381494 -3.421670
  8   1.168026 -0.537438 -0.063437 0.198112 0.889422 -0.116525
  9   6.790376 -0.619176 0.015206 -0.000102 -0.000285 -1.110505
 10   8.637599 0.544015 -0.090417 -3.399219 -0.153300 0.190434
 11   6.790465 -0.619039 0.017802 0.000797 -0.011623 -0.792539
 12   -2.022474 -0.104699 -2.873818 0.298873 1.361712 -2.901984
 13   1.167898 -0.537463 0.063297 0.714281 -0.857302 -1.281854
 14   7.002743 -0.617765 -0.183752 0.000229 0.000250 -1.945066
 15   8.209042 0.615527 -0.255885 1.759123 -0.372837 1.075068
 16   7.002735 -0.617911 -0.183641 0.012978 0.010920 -1.380362
 17   1.574674 0.609930 -0.000899 0.701247 -0.325340 0.126103
 18   -0.602177 0.511412 -0.000006 0.000000 0.000000 0.000000
 19   3.673773 0.177020 1.119313 -0.000002 -0.000014 -0.174510
 20   3.673767 0.176993 -1.117566 0.000007 -0.000003 -0.174546
 21   3.942357 1.334540 1.627658 0.000002 -0.000011 -0.000026
 22   -0.246060 -0.011889 0.516521 -0.000011 0.000031 0.000025
 23   3.942374 1.334565 -1.631083 0.000019 0.000002 -0.000024
 24   -0.246150 -0.011872 -0.516511 -0.000005 -0.000006 0.000048
 25   4.941364 1.997338 1.629330 0.000018 -0.000001 -0.000024
 26   4.941382 1.997366 -1.629410 -0.000001 0.000005 -0.000024
 27   2.914462 1.619264 1.514501 -0.000019 -0.000022 -0.000050
 28   2.916892 1.618870 -1.501142 -0.000002 -0.000009 -0.000024
 29   8.824059 0.150544 0.091743 0.000006 -0.000231 -0.174534
 30   2.111085 -0.561179 1.784320 -0.000008 -0.000682 0.000024
 31   2.121290 -0.561289 -1.853599 0.000000 0.000000 -0.000002
 32   -0.814395 -0.093824 3.127092 0.338887 -3.077717 -0.167693
 33   14.298673 -0.408176 0.471578 0.013323 -0.092001 -0.496982
 34   15.835795 0.581398 0.242756 -0.532539 -0.064474 0.362915
 35   -0.815868 -0.091229 -3.114430 -0.002012 2.881638 -0.315361
 36   14.294526 -0.410349 -0.467541 -0.021540 0.095265 -0.575866
 37   15.834409 0.579420 -0.284600 -0.051545 0.043118 0.201427
 38   1.139685 -3.453749 -2.823813 0.000000 0.000000 0.000001
 39   -4.457742 -1.054854 -0.746180 0.000000 0.000000 0.000000
 40   1.118101 -3.449769 3.237290 0.000000 0.000001 0.000000
 41   -4.433840 -1.059130 0.959566 -0.000001 0.000000 0.000000
 42   -0.657468 1.697302 -2.688614 0.000000 0.000002 0.000000
 43   -0.664068 1.698578 2.869377 0.000000 0.000002 0.000000
time 7
  0   0.001233 -0.019532 2.285597 0.000000 0.000000 -1.571829
  1   -1.093036 0.000002 -0.326057 -0.213961 -1.569082 -1.356583
  2   2.262337 0.113614 0.064702 -0.013758 -0.103762 0.132104
  3   2.380047 0.353302 0.047440 -0.235831 0.043356 0.177875
  4   2.033756 0.190472 -0.000128 -0.202620 0.052205 0.247361
  5   2.451511 0.204909 -0.003447 -0.057992 -0.000723 -0.017472
  6   7.247600 -0.397300 -0.109469 0.000001 0.000009 0.052298
  7   -2.022252 -0.104661 3.136172 -0.039871 -1.388902 -3.152224
  8   1.168026 -0.537438 -0.063437 0.389599 0.949900 0.062565
  9   6.790376 -0.619176 0.015206 -0.000102 -0.000285 -1.110505
 10   8.637599 0.544015 -0.090417 -3.245106 -0.213132 0.157228
 11   6.790465 -0.619039 0.017802 0.000797 -0.011623 -0.792539
 12   -2.022474 -0.104699 -2.873818 0.298873 1.361712 -2.901984
 13   1.167898 -0.537463 0.063297 0.714281 -0.857302 -1.281854
 14   7.002743 -0.617765 -0.183752 0.000229 0.000250 -1.945066
 15   8.209042 0.615527 -0.255885 1.759123 -0.372837 1.075068
 16   7.002735 -0.617911 -0.183641 0.012978 0.010920 -1.380362
 17   1.574674 0.609930 -0.000899 0.701247 -0.325340 0.126103
 18   -0.602177 0.511412 -0.000006 0.000000 0.000000 0.000000
 19   3.673773 0.177020 1.119313 -0.000002 -0.000014 -0.174510
 20   3.673767 0.176993 -1.117566 0.000007 -0.000003 -0.174546
 21   3.942357 1.334540 1.627658 0.000002 -0.000011 -0.000026
 22   -0.246060 -0.011889 0.516521 -0.000011 0.000031 0.000025
 23   3.942374 1.334565 -1.631083 0.000019 0.000002 -0.000024
 24   -0.246150 -0.011872 -0.516511 -0.000005 -0.000006 0.000048
 25   4.941364 1.997338 1.629330 0.000018 -0.000001 -0.000024
 26   4.941382 1.997366 -1.629410 -0.000001 0.000005 -0.000024
 27   2.914462 1.619264 1.514501 -0.000019 -0.000022 -0.000050
 28   2.916892 1.618870 -1.501142 -0.000002 -0.000009 -0.000024
 29   8.824059 0.150544 0.091743 0.000006 -0.000231 -0.174534
 30   2.111085 -0.561179 1.784320 -0.000008 -0.000682 0.000024
 31   2.121290 -0.561289 -1.853599 0.000000 0.000000 -0.000002
 32   -0.814395 -0.093824 3.127092 0.338887 -3.077717 -0.167693
 33   14.298673 -0.408176 0.471578 0.013323 -0.092001 -0.496982
 34   15.835795 0.581398 0.242756 -0.532539 -0.064474 0.362915
 35   -0.815868 -0.091229 -3.114430 -0.002012 2.881638 -0.315361
 36   14.294526 -0.410349 -0.467541 -0.021540 0.095265 -0.575866
 37   15.834409 0.579420 -0.284600 -0.051545 0.043118 0.201427
 38   1.139685 -3.453749 -2.823813 0.000000 0.000000 0.000001
 39   -4.457742 -1.054854 -0.746180 0.000000 0.000000 0.000000
 40   1.118101 -3.449769 3.237290 0.000000 0.000001 0.000000
 41   -4.433840 -1.059130 0.959566 -0.000001 0.000000 0.000000
 42   -0.657468 1.697302 -2.688614 0.000000 0.000002 0.000000
 43   -0.664068 1.698578 2.869377 0.000000 0.000002 0.000000
time 8
  0   0.001233 -0.019532 2.285597 0.000000 0.000000 -1.571829
  1   -1.093036 0.000002 -0.326057 -0.213961 -1.569082 -1.356583
  2   2.262337 0.113614 0.064702 -0.013758 -0.103762 0.132104
  3   2.380047 0.353302 0.047440 -0.231526 0.042577 0.178079
  4   2.033756 0.190472 -0.000128 -0.194155 0.050060 0.247796
  5   2.451511 0.204909 -0.003447 -0.046404 -0.000475 -0.017472
  6   7.247600 -0.397300 -0.109469 0.000001 0.000009 0.052298
  7   -2.022252 -0.104661 3.136172 -0.314408 -1.382618 -2.882214
  8   1.168026 -0.537438 -0.063437 0.611460 0.986931 0.272526
  9   6.790376 -0.619176 0.015206 -0.000102 -0.000285 -1.110505
 10   8.637599 0.544015 -0.090417 -3.086677 -0.267333 0.114617
 11   6.790465 -0.619039 0.017802 0.000797 -0.011623 -0.792539
 12   -2.022474 -0.104699 -2.873818 0.298873 1.361712 -2.901984
 13   1.167898 -0.537463 0.063297 0.714281 -0.857302 -1.281854
 14   7.002743 -0.617765 -0.183752 0.000229 0.000250 -1.945066
 15   8.209042 0.615527 -0.255885 1.759123 -0.372837 1.075068
 16   7.002735 -0.617911 -0.183641 0.012978 0.010920 -1.380362
 17   1.574674 0.609930 -0.000899 0.701247 -0.325340 0.126103
 18   -0.602177 0.511412 -0.000006 0.000000 0.000000 0.000000
 19   3.673773 0.177020 1.119313 -0.000002 -0.000014 -0.174510
 20   3.673767 0.176993 -1.117566 0.000007 -0.000003 -0.174546
 21   3.942357 1.334540 1.627658 0.000002 -0.000011 -0.000026
 22   -0.246060 -0.011889 0.516521 -0.000011 0.000031 0.000025
 23   3.942374 1.334565 -1.631083 0.000019 0.000002 -0.000024
 24   -0.246150 -0.011872 -0.516511 -0.000005 -0.000006 0.000048
 25   4.941364 1.997338 1.629330 0.000018 -0.000001 -0.000024
 26   4.941382 1.997366 -1.629410 -0.000001 0.000005 -0.000024
 27   2.914462 1.619264 1.514501 -0.000019 -0.000022 -0.000050
 28   2.916892 1.618870 -1.501142 -0.000002 -0.000009 -0.000024
 29   8.824059 0.150544 0.091743 0.000006 -0.000231 -0.174534
 30   2.111085 -0.561179 1.784320 -0.000008 -0.000682 0.000024
 31   2.121290 -0.561289 -1.853599 0.000000 0.000000 -0.000002
 32   -0.814395 -0.093824 3.127092 0.338887 -3.077717 -0.167693
 33   14.298673 -0.408176 0.471578 0.013323 -0.092001 -0.496982
 34   15.835795 0.581398 0.242756 -0.532539 -0.064474 0.362915
 35   -0.815868 -0.091229 -3.114430 -0.002012 2.881638 -0.315361
 36   14.294526 -0.410349 -0.467541 -0.021540 0.095265 -0.575866
 37   15.834409 0.579420 -0.284600 -0.051545 0.043118 0.201427
 38   1.139685 -3.453749 -2.823813 0.000000 0.000000 0.000001
 39   -4.457742 -1.054854 -0.746180 0.000000 0.000000 0.000000
 40   1.118101 -3.449769 3.237290 0.000000 0.000001 0.000000
 41   -4.433840 -1.059130 0.959566 -0.000001 0.000000 0.000000
 42   -0.657468 1.697302 -2.688614 0.000000 0.000002 0.000000
 43   -0.664068 1.698578 2.869377 0.000000 0.000002 0.000000
time 9
  0   0.001233 -0.019532 2.285597 0.000000 0.000000 -1.571829
  1   -1.093036 0.000002 -0.326057 -0.213961 -1.569082 -1.356583
  2   2.262337 0.113614 0.064702 -0.013758 -0.103762 0.132104
  3   2.380047 0.353302 0.047440 -0.227130 0.041810 0.178283
  4   2.033756 0.190472 -0.000128 -0.185690 0.047879 0.248230
  5   2.451511 0.204909 -0.003447 -0.034713 -0.000344 -0.017472
  6   7.247600 -0.397300 -0.109469 0.000001 0.000009 0.052298
  7   -2.022252 -0.104661 3.136172 -0.556257 -1.363678 -2.644981
  8   1.168026 -0.537438 -0.063437 0.850281 0.995686 0.499694
  9   6.790376 -0.619176 0.015206 -0.000102 -0.000285 -1.110505
 10   8.637599 0.544015 -0.090417 -2.923669 -0.313931 0.063181
 11   6.790465 -0.619039 0.017802 0.000797 -0.011623 -0.792539
 12   -2.022474 -0.104699 -2.873818 0.298873 1.361712 -2.901984
 13   1.167898 -0.537463 0.063297 0.714281 -0.857302 -1.281854
 14   7.002743 -0.617765 -0.183752 0.000229 0.000250 -1.945066
 15   8.209042 0.615527 -0.255885 1.759123 -0.372837 1.075068
 16   7.002735 -0.617911 -0.183641 0.012978 0.010920 -1.380362
 17   1.574674 0.609930 -0.000899 0.701247 -0.325340 0.126103
 18   -0.602177 0.511412 -0.000006 0.000000 0.000000 0.000000
 19   3.673773 0.177020 1.119313 -0.000002 -0.000014 -0.174510
 20   3.673767 0.176993 -1.117566 0.000007 -0.000003 -0.174546
 21   3.942357 1.334540 1.627658 0.000002 -0.000011 -0.000026
 22   -0.246060 -0.011889 0.516521 -0.000011 0.000031 0.000025
 23   3.942374 1.334565 -1.631083 0.000019 0.000002 -0.000024
 24   -0.246150 -0.011872 -0.516511 -0.000005 -0.000006 0.000048
 25   4.941364 1.997338 1.629330 0.000018 -0.000001 -0.000024
 26   4.941382 1.997366 -1.629410 -0.000001 0.000005 -0.000024
 27   2.914462 1.619264 1.514501 -0.000019 -0.000022 -0.000050
 28   2.916892 1.618870 -1.501142 -0.000002 -0.000009 -0.000024
 29   8.824059 0.150544 0.091743 0.000006 -0.000231 -0.174534
 30   2.111085 -0.561179 1.784320 -0.000008 -0.000682 0.000024
 31   2.121290 -0.561289 -1.853599 0.000000 0.000000 -0.000002
 32   -0.814395 -0.093824 3.127092 0.338887 -3.077717 -0.167693
 33   14.298673 -0.408176 0.471578 0.013323 -0.092001 -0.496982
 34   15.835795 0.581398 0.242756 -0.532539 -0.064474 0.362915
 35   -0.815868 -0.091229 -3.114430 -0.002012 2.881638 -0.315361
 36   14.294526 -0.410349 -0.467541 -0.021540 0.095265 -0.575866
 37   15.834409 0.579420 -0.284600 -0.051545 0.043118 0.201427
 38   1.139685 -3.453749 -2.823813 0.000000 0.000000 0.000001
 39   -4.457742 -1.054854 -0.746180 0.000000 0.000000 0.000000
 40   1.118101 -3.449769 3.237290 0.000000 0.000001 0.000000
 41   -4.433840 -1.059130 0.959566 -0.000001 0.000000 0.000000
 42   -0.657468 1.697302 -2.688614 0.000000 0.000002 0.000000
 43   -0.664068 1.698578 2.869377 0.000000 0.000002 0.000000
time 10
  0   0.001233 -0.019532 2.285597 0.000000 0.000000 -1.571829
  1   -1.093036 0.000002 -0.326057 -0.213961 -1.569082 -1.356583
  2   2.262337 0.113614 0.064702 -0.013758 -0.103762 0.132104
  3   2.380047 0.353302 0.047440 -0.222930 0.041031 0.178426
  4   2.033756 0.190472 -0.000128 -0.177243 0.045709 0.248629
  5   2.451511 0.204909 -0.003447 -0.023125 -0.000149 -0.017472
  6   7.247600 -0.397300 -0.109469 0.000001 0.000009 0.052298
  7   -2.022252 -0.104661 3.136172 -0.749124 -1.335456 -2.456773
  8   1.168026 -0.537438 -0.063437 1.084355 0.975057 0.721991
  9   6.790376 -0.619176 0.015206 -0.000102 -0.000285 -1.110505
 10   8.637599 0.544015 -0.090417 -2.755993 -0.351801 0.003352
 11   6.790465 -0.619039 0.017802 0.000797 -0.011623 -0.792539
 12   -2.022474 -0.104699 -2.873818 0.298873 1.361712 -2.901984
 13   1.167898 -0.537463 0.063297 0.714281 -0.857302 -1.281854
 14   7.002743 -0.617765 -0.183752 0.000229 0.000250 -1.945066
 15   8.209042 0.615527 -0.255885 1.759123 -0.372837 1.075068
 16   7.002735 -0.617911 -0.183641 0.012978 0.010920 -1.380362
 17   1.574674 0.609930 -0.000899 0.701247 -0.325340 0.126103
 18   -0.602177 0.511412 -0.000006 0.000000 0.000000 0.000000
 19   3.673773 0.177020 1.119313 -0.000002 -0.000014 -0.174510
 20   3.673767 0.176993 -1.117566 0.000007 -0.000003 -0.174546
 21   3.942357 1.334540 1.627658 0.000002 -0.000011 -0.000026
 22   -0.246060 -0.011889 0.516521 -0.000011 0.000031 0.000025
 23   3.942374 1.334565 -1.631083 0.000019 0.000002 -0.000024
 24   -0.246150 -0.011872 -0.516511 -0.000005 -0.000006 0.000048
 25   4.941364 1.997338 1.629330 0.000018 -0.000001 -0.000024
 26   4.941382 1.997366 -1.629410 -0.000001 0.000005 -0.000024
 27   2.914462 1.619264 1.514501 -0.000019 -0.000022 -0.000050
 28   2.916892 1.618870 -1.501142 -0.000002 -0.000009 -0.000024
 29   8.824059 0.150544 0.091743 0.000006 -0.000231 -0.174534
 30   2.111085 -0.561179 1.784320 -0.000008 -0.000682 0.000024
 31   2.121290 -0.561289 -1.853599 0.000000 0.000000 -0.000002
 32   -0.814395 -0.093824 3.127092 0.338887 -3.077717 -0.167693
 33   14.298673 -0.408176 0.471578 0.013323 -0.092001 -0.496982
 34   15.835795 0.581398 0.242756 -0.532539 -0.064474 0.362915
 35   -0.815868 -0.091229 -3.114430 -0.002012 2.881638 -0.315361
 36   14.294526 -0.410349 -0.467541 -0.021540 0.095265 -0.575866
 37   15.834409 0.579420 -0.284600 -0.051545 0.043118 0.201427
 38   1.139685 -3.453749 -2.823813 0.000000 0.000000 0.000001
 39   -4.457742 -1.054854 -0.746180 0.000000 0.000000 0.000000
 40   1.118101 -3.449769 3.237290 0.000000 0.000001 0.000000
 41   -4.433840 -1.059130 0.959566 -0.000001 0.000000 0.000000
 42   -0.657468 1.697302 -2.688614 0.000000 0.000002 0.000000
 43   -0.664068 1.698578 2.869377 0.000000 0.000002 0.000000
time 11
  0   0.001233 -0.019532 2.285597 0.000000 0.000000 -1.571829
  1   -1.093036 0.000002 -0.326057 -0.213961 -1.569082 -1.356583
  2   2.262337 0.113614 0.064702 -0.013758 -0.103762 0.132104
  3   2.380047 0.353302 0.047440 -0.218595 0.040264 0.178589
  4   2.033756 0.190472 -0.000128 -0.168741 0.043624 0.248955
  5   2.451511 0.204909 -0.003447 -0.011417 -0.000005 -0.017472
  6   7.247600 -0.397300 -0.109469 0.000001 0.000009 0.052298
  7   -2.022252 -0.104661 3.136172 -0.897128 -1.300431 -2.313456
  8   1.168026 -0.537438 -0.063437 1.294573 0.927661 0.920503
  9   6.790376 -0.619176 0.015206 -0.000102 -0.000285 -1.110505
 10   8.637599 0.544015 -0.090417 -2.584003 -0.379465 -0.062626
 11   6.790465 -0.619039 0.017802 0.000797 -0.011623 -0.792539
 12   -2.022474 -0.104699 -2.873818 0.298873 1.361712 -2.901984
 13   1.167898 -0.537463 0.063297 0.714281 -0.857302 -1.281854
 14   7.002743 -0.617765 -0.183752 0.000229 0.000250 -1.945066
 15   8.209042 0.615527 -0.255885 1.759123 -0.372837 1.075068
 16   7.002735 -0.617911 -0.183641 0.012978 0.010920 -1.380362
 17   1.574674 0.609930 -0.000899 0.701247 -0.325340 0.126103
 18   -0.602177 0.511412 -0.000006 0.000000 0.000000 0.000000
 19   3.673773 0.177020 1.119313 -0.000002 -0.000014 -0.174510
 20   3.673767 0.176993 -1.117566 0.000007 -0.000003 -0.174546
 21   3.942357 1.334540 1.627658 0.000002 -0.000011 -0.000026
 22   -0.246060 -0.011889 0.516521 -0.000011 0.000031 0.000025
 23   3.942374 1.334565 -1.631083 0.000019 0.000002 -0.000024
 24   -0.246150 -0.011872 -0.516511 -0.000005 -0.000006 0.000048
 25   4.941364 1.997338 1.629330 0.000018 -0.000001 -0.000024
 26   4.941382 1.997366 -1.629410 -0.000001 0.000005 -0.000024
 27   2.914462 1.619264 1.514501 -0.000019 -0.000022 -0.000050
 28   2.916892 1.618870 -1.501142 -0.000002 -0.000009 -0.000024
 29   8.824059 0.150544 0.091743 0.000006 -0.000231 -0.174534
 30   2.111085 -0.561179 1.784320 -0.000008 -0.000682 0.000024
 31   2.121290 -0.561289 -1.853599 0.000000 0.000000 -0.000002
 32   -0.814395 -0.093824 3.127092 0.338887 -3.077717 -0.167693
 33   14.298673 -0.408176 0.471578 0.013323 -0.092001 -0.496982
 34   15.835795 0.581398 0.242756 -0.532539 -0.064474 0.362915
 35   -0.815868 -0.091229 -3.114430 -0.002012 2.881638 -0.315361
 36   14.294526 -0.410349 -0.467541 -0.021540 0.095265 -0.575866
 37   15.834409 0.579420 -0.284600 -0.051545 0.043118 0.201427
 38   1.139685 -3.453749 -2.823813 0.000000 0.000000 0.000001
 39   -4.457742 -1.054854 -0.746180 0.000000 0.000000 0.000000
 40   1.118101 -3.449769 3.237290 0.000000 0.000001 0.000000
 41   -4.433840 -1.059130 0.959566 -0.000001 0.000000 0.000000
 42   -0.657468 1.697302 -2.688614 0.000000 0.000002 0.000000
 43   -0.664068 1.698578 2.869377 0.000000 0.000002 0.000000
time 12
  0   0.001233 -0.019532 2.285597 0.000000 0.000000 -1.571829
  1   -1.093036 0.000002 -0.326057 -0.213961 -1.569082 -1.356583
  2   2.262337 0.113614 0.064702 -0.013758 -0.103762 0.132104
  3   2.380047 0.353302 0.047440 -0.214289 0.039485 0.178773
  4   2.033756 0.190472 -0.000128 -0.160294 0.041467 0.249390
  5   2.451511 0.204909 -0.003447 0.000000 0.000191 -0.017472
  6   7.247600 -0.397300 -0.109469 0.000001 0.000009 0.052298
  7   -2.022252 -0.104661 3.136172 -1.010241 -1.260996 -2.205077
  8   1.168026 -0.537438 -0.063437 1.472454 0.858680 1.086435
  9   6.790376 -0.619176 0.015206 -0.000102 -0.000285 -1.110505
 10   8.637599 0.544015 -0.090417 -2.408754 -0.396288 -0.133813
 11   6.790465 -0.619039 0.017802 0.000797 -0.011623 -0.792539
 12   -2.022474 -0.104699 -2.873818 0.298873 1.361712 -2.901984
 13   1.167898 -0.537463 0.063297 0.714281 -0.857302 -1.281854
 14   7.002743 -0.617765 -0.183752 0.000229 0.000250 -1.945066
 15   8.209042 0.615527 -0.255885 1.759123 -0.372837 1.075068
 16   7.002735 -0.617911 -0.183641 0.012978 0.010920 -1.380362
 17   1.574674 0.609930 -0.000899 0.701247 -0.325340 0.126103
 18   -0.602177 0.511412 -0.000006 0.000000 0.000000 0.000000
 19   3.673773 0.177020 1.119313 -0.000002 -0.000014 -0.174510
 20   3.673767 0.176993 -1.117566 0.000007 -0.000003 -0.174546
 21   3.942357 1.334540 1.627658 0.000002 -0.000011 -0.000026
 22   -0.246060 -0.011889 0.516521 -0.000011 0.000031 0.000025
 23   3.942374 1.334565 -1.631083 0.000019 0.000002 -0.000024
 24   -0.246150 -0.011872 -0.516511 -0.000005 -0.000006 0.000048
 25   4.941364 1.997338 1.629330 0.000018 -0.000001 -0.000024
 26   4.941382 1.997366 -1.629410 -0.000001 0.000005 -0.000024
 27   2.914462 1.619264 1.514501 -0.000019 -0.000022 -0.000050
 28   2.916892 1.618870 -1.501142 -0.000002 -0.000009 -0.000024
 29   8.824059 0.150544 0.091743 0.000006 -0.000231 -0.174534
 30   2.111085 -0.561179 1.784320 -0.000008 -0.000682 0.000024
 31   2.121290 -0.561289 -1.853599 0.000000 0.000000 -0.000002
 32   -0.814395 -0.093824 3.127092 0.338887 -3.077717 -0.167693
 33   14.298673 -0.408176 0.471578 0.013323 -0.092001 -0.496982
 34   15.835795 0.581398 0.242756 -0.532539 -0.064474 0.362915
 35   -0.815868 -0.091229 -3.114430 -0.002012 2.881638 -0.315361
 36   14.294526 -0.410349 -0.467541 -0.021540 0.095265 -0.575866
 37   15.834409 0.579420 -0.284600 -0.051545 0.043118 0.201427
 38   1.139685 -3.453749 -2.823813 0.000000 0.000000 0.000001
 39   -4.457742 -1.054854 -0.746180 0.000000 0.000000 0.000000
 40   1.118101 -3.449769 3.237290 0.000000 0.000001 0.000000
 41   -4.433840 -1.059130 0.959566 -0.000001 0.000000 0.000000
 42   -0.657468 1.697302 -2.688614 0.000000 0.000002 0.000000
 43   -0.664068 1.698578 2.869377 0.000000 0.000002 0.000000
time 13
  0   0.001233 -0.019532 2.285597 0.000000 0.000000 -1.571829
  1   -1.093036 0.000002 -0.326057 -0.213961 -1.569082 -1.356583
  2   2.262337 0.113614 0.064702 -0.013758 -0.103762 0.132104
  3   2.380047 0.353302 0.047440 -0.218595 0.040264 0.178589
  4   2.033756 0.190472 -0.000128 -0.168741 0.043624 0.248955
  5   2.451511 0.204909 -0.003447 -0.011417 -0.000005 -0.017472
  6   7.247600 -0.397300 -0.109469 0.000001 0.000009 0.052298
  7   -2.022252 -0.104661 3.136172 -0.897128 -1.300431 -2.313456
  8   1.168026 -0.537438 -0.063437 1.294573 0.927661 0.920503
  9   6.790376 -0.619176 0.015206 -0.012030 -0.024912 -1.110354
 10   8.637599 0.544015 -0.090417 -2.584003 -0.379465 -0.062626
 11   6.790465 -0.619039 0.017802 -0.010473 -0.027740 -0.792424
 12   -2.022474 -0.104699 -2.873818 0.298873 1.361712 -2.901984
 13   1.167898 -0.537463 0.063297 0.714281 -0.857302 -1.281854
 14   7.002743 -0.617765 -0.183752 0.000229 0.000250 -1.945066
 15   8.209042 0.615527 -0.255885 1.759123 -0.372837 1.075068
 16   7.002735 -0.617911 -0.183641 0.012978 0.010920 -1.380362
 17   1.574674 0.609930 -0.000899 0.701247 -0.325340 0.126103
 18   -0.602177 0.511412 -0.000006 0.000000 0.000000 0.000000
 19   3.673773 0.177020 1.119313 -0.000002 -0.000014 -0.174510
 20   3.673767 0.176993 -1.117566 0.000007 -0.000003 -0.174546
 21   3.942357 1.334540 1.627658 0.000002 -0.000011 -0.000026
 22   -0.246060 -0.011889 0.516521 -0.000011 0.000031 0.000025
 23   3.942374 1.334565 -1.631083 0.000019 0.000002 -0.000024
 24   -0.246150 -0.011872 -0.516511 -0.000005 -0.000006 0.000048
 25   4.941364 1.997338 1.629330 0.000018 -0.000001 -0.000024
 26   4.941382 1.997366 -1.629410 -0.000001 0.000005 -0.000024
 27   2.914462 1.619264 1.514501 -0.000019 -0.000022 -0.000050
 28   2.916892 1.618870 -1.501142 -0.000002 -0.000009 -0.000024
 29   8.824059 0.150544 0.091743 0.000006 -0.000231 -0.174534
 30   2.111085 -0.561179 1.784320 -0.000008 -0.000682 0.000024
 31   2.121290 -0.561289 -1.853599 0.000000 0.000000 -0.000002
 32   -0.814395 -0.093824 3.127092 0.338887 -3.077717 -0.167693
 33   14.298673 -0.408176 0.471578 0.013323 -0.092001 -0.496982
 34   15.835795 0.581398 0.242756 -0.532539 -0.064474 0.362915
 35   -0.815868 -0.091229 -3.114430 -0.002012 2.881638 -0.315361
 36   14.294526 -0.410349 -0.467541 -0.021540 0.095265 -0.575866
 37   15.834409 0.579420 -0.284600 -0.051545 0.043118 0.201427
 38   1.139685 -3.453749 -2.823813 0.000000 0.000000 0.000001
 39   -4.457742 -1.054854 -0.746180 0.000000 0.000000 0.000000
 40   1.118101 -3.449769 3.237290 0.000000 0.000001 0.000000
 41   -4.433840 -1.059130 0.959566 -0.000001 0.000000 0.000000
 42   -0.657468 1.697302 -2.688614 0.000000 0.000002 0.000000
 43   -0.664068 1.698578 2.869377 0.000000 0.000002 0.000000
time 14
  0   0.001233 -0.019532 2.285597 0.000000 0.000000 -1.571829
  1   -1.093036 0.000002 -0.326057 -0.213961 -1.569082 -1.356583
  2   2.262337 0.113614 0.064702 -0.013758 -0.103762 0.132104
  3   2.380047 0.353302 0.047440 -0.222930 0.041031 0.178426
  4   2.033756 0.190472 -0.000128 -0.177243 0.045709 0.248629
  5   2.451511 0.204909 -0.003447 -0.023125 -0.000149 -0.017472
  6   7.247600 -0.397300 -0.109469 0.000001 0.000009 0.052298
  7   -2.022252 -0.104661 3.136172 -0.749124 -1.335456 -2.456773
  8   1.168026 -0.537438 -0.063437 1.084355 0.975057 0.721991
  9   6.790376 -0.619176 0.015206 -0.024402 -0.049272 -1.109977
 10   8.637599 0.544015 -0.090417 -2.755993 -0.351801 0.003352
 11   6.790465 -0.619039 0.017802 -0.021918 -0.043601 -0.792020
 12   -2.022474 -0.104699 -2.873818 0.298873 1.361712 -2.901984
 13   1.167898 -0.537463 0.063297 0.714281 -0.857302 -1.281854
 14   7.002743 -0.617765 -0.183752 0.000229 0.000250 -1.945066
 15   8.209042 0.615527 -0.255885 1.759123 -0.372837 1.075068
 16   7.002735 -0.617911 -0.183641 0.012978 0.010920 -1.380362
 17   1.574674 0.609930 -0.000899 0.701247 -0.325340 0.126103
 18   -0.602177 0.511412 -0.000006 0.000000 0.000000 0.000000
 19   3.673773 0.177020 1.119313 -0.000002 -0.000014 -0.174510
 20   3.673767 0.176993 -1.117566 0.000007 -0.000003 -0.174546
 21   3.942357 1.334540 1.627658 0.000002 -0.000011 -0.000026
 22   -0.246060 -0.011889 0.516521 -0.000011 0.000031 0.000025
 23   3.942374 1.334565 -1.631083 0.000019 0.000002 -0.000024
 24   -0.246150 -0.011872 -0.516511 -0.000005 -0.000006 0.000048
 25   4.941364 1.997338 1.629330 0.000018 -0.000001 -0.000024
 26   4.941382 1.997366 -1.629410 -0.000001 0.000005 -0.000024
 27   2.914462 1.619264 1.514501 -0.000019 -0.000022 -0.000050
 28   2.916892 1.618870 -1.501142 -0.000002 -0.000009 -0.000024
 29   8.824059 0.150544 0.091743 0.000006 -0.000231 -0.174534
 30   2.111085 -0.561179 1.784320 -0.000008 -0.000682 0.000024
 31   2.121290 -0.561289 -1.853599 0.000000 0.000000 -0.000002
 32   -0.814395 -0.093824 3.127092 0.338887 -3.077717 -0.167693
 33   14.298673 -0.408176 0.471578 0.013323 -0.092001 -0.496982
 34   15.835795 0.581398 0.242756 -0.532539 -0.064474 0.362915
 35   -0.815868 -0.091229 -3.114430 -0.002012 2.881638 -0.315361
 36   14.294526 -0.410349 -0.467541 -0.021540 0.095265 -0.575866
 37   15.834409 0.579420 -0.284600 -0.051545 0.043118 0.201427
 38   1.139685 -3.453749 -2.823813 0.000000 0.000000 0.000001
 39   -4.457742 -1.054854 -0.746180 0.000000 0.000000 0.000000
 40   1.118101 -3.449769 3.237290 0.000000 0.000001 0.000000
 41   -4.433840 -1.059130 0.959566 -0.000001 0.000000 0.000000
 42   -0.657468 1.697302 -2.688614 0.000000 0.000002 0.000000
 43   -0.664068 1.698578 2.869377 0.000000 0.000002 0.000000
time 15
  0   0.001233 -0.019532 2.285597 0.000000 0.000000 -1.571829
  1   -1.093036 0.000002 -0.326057 -0.213961 -1.569082 -1.356583
  2   2.262337 0.113614 0.064702 -0.013758 -0.103762 0.132104
  3   2.380047 0.353302 0.047440 -0.227130 0.041810 0.178283
  4   2.033756 0.190472 -0.000128 -0.185690 0.047879 0.248230
  5   2.451511 0.204909 -0.003447 -0.034713 -0.000344 -0.017472
  6   7.247600 -0.397300 -0.109469 0.000001 0.000009 0.052298
  7   -2.022252 -0.104661 3.136172 -0.556257 -1.363678 -2.644981
  8   1.168026 -0.537438 -0.063437 0.850281 0.995686 0.499694
  9   6.790376 -0.619176 0.015206 -0.036608 -0.074100 -1.109373
 10   8.637599 0.544015 -0.090417 -2.923669 -0.313931 0.063181
 11   6.790465 -0.619039 0.017802 -0.033480 -0.059775 -0.791443
 12   -2.022474 -0.104699 -2.873818 0.298873 1.361712 -2.901984
 13   1.167898 -0.537463 0.063297 0.714281 -0.857302 -1.281854
 14   7.002743 -0.617765 -0.183752 0.000229 0.000250 -1.945066
 15   8.209042 0.615527 -0.255885 1.759123 -0.372837 1.075068
 16   7.002735 -0.617911 -0.183641 0.012978 0.010920 -1.380362
 17   1.574674 0.609930 -0.000899 0.701247 -0.325340 0.126103
 18   -0.602177 0.511412 -0.000006 0.000000 0.000000 0.000000
 19   3.673773 0.177020 1.119313 -0.000002 -0.000014 -0.174510
 20   3.673767 0.176993 -1.117566 0.000007 -0.000003 -0.174546
 21   3.942357 1.334540 1.627658 0.000002 -0.000011 -0.000026
 22   -0.246060 -0.011889 0.516521 -0.000011 0.000031 0.000025
 23   3.942374 1.334565 -1.631083 0.000019 0.000002 -0.000024
 24   -0.246150 -0.011872 -0.516511 -0.000005 -0.000006 0.000048
 25   4.941364 1.997338 1.629330 0.000018 -0.000001 -0.000024
 26   4.941382 1.997366 -1.629410 -0.000001 0.000005 -0.000024
 27   2.914462 1.619264 1.514501 -0.000019 -0.000022 -0.000050
 28   2.916892 1.618870 -1.501142 -0.000002 -0.000009 -0.000024
 29   8.824059 0.150544 0.091743 0.000006 -0.000231 -0.174534
 30   2.111085 -0.561179 1.784320 -0.000008 -0.000682 0.000024
 31   2.121290 -0.561289 -1.853599 0.000000 0.000000 -0.000002
 32   -0.814395 -0.093824 3.127092 0.338887 -3.077717 -0.167693
 33   14.298673 -0.408176 0.471578 0.013323 -0.092001 -0.496982
 34   15.835795 0.581398 0.242756 -0.532539 -0.064474 0.362915
 35   -0.815868 -0.091229 -3.114430 -0.002012 2.881638 -0.315361
 36   14.294526 -0.410349 -0.467541 -0.021540 0.095265 -0.575866
 37   15.834409 0.579420 -0.284600 -0.051545 0.043118 0.201427
 38   1.139685 -3.453749 -2.823813 0.000000 0.000000 0.000001
 39   -4.457742 -1.054854 -0.746180 0.000000 0.000000 0.000000
 40   1.118101 -3.449769 3.237290 0.000000 0.000001 0.000000
 41   -4.433840 -1.059130 0.959566 -0.000001 0.000000 0.000000
 42   -0.657468 1.697302 -2.688614 0.000000 0.000002 0.000000
 43   -0.664068 1.698578 2.869377 0.000000 0.000002 0.000000
time 16
  0   0.001233 -0.019532 2.285597 0.000000 0.000000 -1.571829
  1   -1.093036 0.000002 -0.326057 -0.213961 -1.569082 -1.356583
  2   2.262337 0.113614 0.064702 -0.013758 -0.103762 0.132104
  3   2.380047 0.353302 0.047440 -0.231526 0.042577 0.178079
  4   2.033756 0.190472 -0.000128 -0.194155 0.050060 0.247796
  5   2.451511 0.204909 -0.003447 -0.046404 -0.000475 -0.017472
  6   7.247600 -0.397300 -0.109469 0.000001 0.000009 0.052298
  7   -2.022252 -0.104661 3.136172 -0.314408 -1.382618 -2.882214
  8   1.168026 -0.537438 -0.063437 0.611460 0.986931 0.272526
  9   6.790376 -0.619176 0.015206 -0.049035 -0.098927 -1.108015
 10   8.637599 0.544015 -0.090417 -3.086677 -0.267333 0.114617
 11   6.790465 -0.619039 0.017802 -0.045012 -0.075921 -0.790463
 12   -2.022474 -0.104699 -2.873818 0.298873 1.361712 -2.901984
 13   1.167898 -0.537463 0.063297 0.714281 -0.857302 -1.281854
 14   7.002743 -0.617765 -0.183752 0.000229 0.000250 -1.945066
 15   8.209042 0.615527 -0.255885 1.759123 -0.372837 1.075068
 16   7.002735 -0.617911 -0.183641 0.012978 0.010920 -1.380362
 17   1.574674 0.609930 -0.000899 0.701247 -0.325340 0.126103
 18   -0.602177 0.511412 -0.000006 0.000000 0.000000 0.000000
 19   3.673773 0.177020 1.119313 -0.000002 -0.000014 -0.174510
 20   3.673767 0.176993 -1.117566 0.000007 -0.000003 -0.174546
 21   3.942357 1.334540 1.627658 0.000002 -0.000011 -0.000026
 22   -0.246060 -0.011889 0.516521 -0.000011 0.000031 0.000025
 23   3.942374 1.334565 -1.631083 0.000019 0.000002 -0.000024
 24   -0.246150 -0.011872 -0.516511 -0.000005 -0.000006 0.000048
 25   4.941364 1.997338 1.629330 0.000018 -0.000001 -0.000024
 26   4.941382 1.997366 -1.629410 -0.000001 0.000005 -0.000024
 27   2.914462 1.619264 1.514501 -0.000019 -0.000022 -0.000050
 28   2.916892 1.618870 -1.501142 -0.000002 -0.000009 -0.000024
 29   8.824059 0.150544 0.091743 0.000006 -0.000231 -0.174534
 30   2.111085 -0.561179 1.784320 -0.000008 -0.000682 0.000024
 31   2.121290 -0.561289 -1.853599 0.000000 0.000000 -0.000002
 32   -0.814395 -0.093824 3.127092 0.338887 -3.077717 -0.167693
 33   14.298673 -0.408176 0.471578 0.013323 -0.092001 -0.496982
 34   15.835795 0.581398 0.242756 -0.532539 -0.064474 0.362915
 35   -0.815868 -0.091229 -3.114430 -0.002012 2.881638 -0.315361
 36   14.294526 -0.410349 -0.467541 -0.021540 0.095265 -0.575866
 37   15.834409 0.579420 -0.284600 -0.051545 0.043118 0.201427
 38   1.139685 -3.453749 -2.823813 0.000000 0.000000 0.000001
 39   -4.457742 -1.054854 -0.746180 0.000000 0.000000 0.000000
 40   1.118101 -3.449769 3.237290 0.000000 0.000001 0.000000
 41   -4.433840 -1.059130 0.959566 -0.000001 0.000000 0.000000
 42   -0.657468 1.697302 -2.688614 0.000000 0.000002 0.000000
 43   -0.664068 1.698578 2.869377 0.000000 0.000002 0.000000
time 17
  0   0.001233 -0.019532 2.285597 0.000000 0.000000 -1.571829
  1   -1.093036 0.000002 -0.326057 -0.213961 -1.569082 -1.356583
  2   2.262337 0.113614 0.064702 -0.013758 -0.103762 0.132104
  3   2.380047 0.353302 0.047440 -0.235831 0.043356 0.177875
  4   2.033756 0.190472 -0.000128 -0.202620 0.052205 0.247361
  5   2.451511 0.204909 -0.003447 -0.057992 -0.000723 -0.017472
  6   7.247600 -0.397300 -0.109469 0.000001 0.000009 0.052298
  7   -2.022252 -0.104661 3.136172 -0.039871 -1.388902 -3.152224
  8   1.168026 -0.537438 -0.063437 0.389599 0.949900 0.062565
  9   6.790376 -0.619176 0.015206 -0.061518 -0.123554 -1.106732
 10   8.637599 0.544015 -0.090417 -3.245106 -0.213132 0.157228
 11   6.790465 -0.619039 0.017802 -0.056632 -0.092009 -0.789425
 12   -2.022474 -0.104699 -2.873818 0.298873 1.361712 -2.901984
 13   1.167898 -0.537463 0.063297 0.714281 -0.857302 -1.281854
 14   7.002743 -0.617765 -0.183752 0.000229 0.000250 -1.945066
 15   8.209042 0.615527 -0.255885 1.759123 -0.372837 1.075068
 16   7.002735 -0.617911 -0.183641 0.012978 0.010920 -1.380362
 17   1.574674 0.609930 -0.000899 0.701247 -0.325340 0.126103
 18   -0.602177 0.511412 -0.000006 0.000000 0.000000 0.000000
 19   3.673773 0.177020 1.119313 -0.000002 -0.000014 -0.174510
 20   3.673767 0.176993 -1.117566 0.000007 -0.000003 -0.174546
 21   3.942357 1.334540 1.627658 0.000002 -0.000011 -0.000026
 22   -0.246060 -0.011889 0.516521 -0.000011 0.000031 0.000025
 23   3.942374 1.334565 -1.631083 0.000019 0.000002 -0.000024
 24   -0.246150 -0.011872 -0.516511 -0.000005 -0.000006 0.000048
 25   4.941364 1.997338 1.629330 0.000018 -0.000001 -0.000024
 26   4.941382 1.997366 -1.629410 -0.000001 0.000005 -0.000024
 27   2.914462 1.619264 1.514501 -0.000019 -0.000022 -0.000050
 28   2.916892 1.618870 -1.501142 -0.000002 -0.000009 -0.000024
 29   8.824059 0.150544 0.091743 0.000006 -0.000231 -0.174534
 30   2.111085 -0.561179 1.784320 -0.000008 -0.000682 0.000024
 31   2.121290 -0.561289 -1.853599 0.000000 0.000000 -0.000002
 32   -0.814395 -0.093824 3.127092 0.338887 -3.077717 -0.167693
 33   14.298673 -0.408176 0.471578 0.013323 -0.092001 -0.496982
 34   15.835795 0.581398 0.242756 -0.532539 -0.064474 0.362915
 35   -0.815868 -0.091229 -3.114430 -0.002012 2.881638 -0.315361
 36   14.294526 -0.410349 -0.467541 -0.021540 0.095265 -0.575866
 37   15.834409 0.579420 -0.284600 -0.051545 0.043118 0.201427
 38   1.139685 -3.453749 -2.823813 0.000000 0.000000 0.000001
 39   -4.457742 -1.054854 -0.746180 0.000000 0.000000 0.000000
 40   1.118101 -3.449769 3.237290 0.000000 0.000001 0.000000
 41   -4.433840 -1.059130 0.959566 -0.000001 0.000000 0.000000
 42   -0.657468 1.697302 -2.688614 0.000000 0.000002 0.000000
 43   -0.664068 1.698578 2.869377 0.000000 0.000002 0.000000
time 18
  0   0.001233 -0.019532 2.285597 0.000000 0.000000 -1.571829
  1   -1.093036 0.000002 -0.326057 -0.213961 -1.569082 -1.356583
  2   2.262337 0.113614 0.064702 -0.013758 -0.103762 0.132104
  3   2.380047 0.353302 0.047440 -0.240016 0.044123 0.177671
  4   2.033756 0.190472 -0.000128 -0.211085 0.054278 0.246998
  5   2.451511 0.204909 -0.003447 -0.069666 -0.000958 -0.017472
  6   7.247600 -0.397300 -0.109469 0.000001 0.000009 0.052298
  7   -2.022252 -0.104661 3.136172 0.234379 -1.381494 -3.421670
  8   1.168026 -0.537438 -0.063437 0.198112 0.889422 -0.116525
  9   6.790376 -0.619176 0.015206 -0.073946 -0.148315 -1.104845
 10   8.637599 0.544015 -0.090417 -3.399219 -0.153300 0.190434
 11   6.790465 -0.619039 0.017802 -0.068223 -0.108098 -0.787925
 12   -2.022474 -0.104699 -2.873818 0.298873 1.361712 -2.901984
 13   1.167898 -0.537463 0.063297 0.714281 -0.857302 -1.281854
 14   7.002743 -0.617765 -0.183752 0.000229 0.000250 -1.945066
 15   8.209042 0.615527 -0.255885 1.759123 -0.372837 1.075068
 16   7.002735 -0.617911 -0.183641 0.012978 0.010920 -1.380362
 17   1.574674 0.609930 -0.000899 0.701247 -0.325340 0.126103
 18   -0.602177 0.511412 -0.000006 0.000000 0.000000 0.000000
 19   3.673773 0.177020 1.119313 -0.000002 -0.000014 -0.174510
 20   3.673767 0.176993 -1.117566 0.000007 -0.000003 -0.174546
 21   3.942357 1.334540 1.627658 0.000002 -0.000011 -0.000026
 22   -0.246060 -0.011889 0.516521 -0.000011 0.000031 0.000025
 23   3.942374 1.334565 -1.631083 0.000019 0.000002 -0.000024
 24   -0.246150 -0.011872 -0.516511 -0.000005 -0.000006 0.000048
 25   4.941364 1.997338 1.629330 0.000018 -0.000001 -0.000024
 26   4.941382 1.997366 -1.629410 -0.000001 0.000005 -0.000024
 27   2.914462 1.619264 1.514501 -0.000019 -0.000022 -0.000050
 28   2.916892 1.618870 -1.501142 -0.000002 -0.000009 -0.000024
 29   8.824059 0.150544 0.091743 0.000006 -0.000231 -0.174534
 30   2.111085 -0.561179 1.784320 -0.000008 -0.000682 0.000024
 31   2.121290 -0.561289 -1.853599 0.000000 0.000000 -0.000002
 32   -0.814395 -0.093824 3.127092 0.338887 -3.077717 -0.167693
 33   14.298673 -0.408176 0.471578 0.013323 -0.092001 -0.496982
 34   15.835795 0.581398 0.242756 -0.532539 -0.064474 0.362915
 35   -0.815868 -0.091229 -3.114430 -0.002012 2.881638 -0.315361
 36   14.294526 -0.410349 -0.467541 -0.021540 0.095265 -0.575866
 37   15.834409 0.579420 -0.284600 -0.051545 0.043118 0.201427
 38   1.139685 -3.453749 -2.823813 0.000000 0.000000 0.000001
 39   -4.457742 -1.054854 -0.746180 0.000000 0.000000 0.000000
 40   1.118101 -3.449769 3.237290 0.000000 0.000001 0.000000
 41   -4.433840 -1.059130 0.959566 -0.000001 0.000000 0.000000
 42   -0.657468 1.697302 -2.688614 0.000000 0.000002 0.000000
 43   -0.664068 1.698578 2.869377 0.000000 0.000002 0.000000
time 19
  0   0.001233 -0.019532 2.285597 0.000000 0.000000 -1.571829
  1   -1.093036 0.000002 -0.326057 -0.213961 -1.569082 -1.356583
  2   2.262337 0.113614 0.064702 -0.013758 -0.103762 0.132104
  3   2.380047 0.353302 0.047440 -0.244366 0.044902 0.177528
  4   2.033756 0.190472 -0.000128 -0.219569 0.056436 0.246454
  5   2.451511 0.204909 -0.003447 -0.081288 -0.001128 -0.017472
  6   7.247600 -0.397300 -0.109469 0.000001 0.000009 0.052298
  7   -2.022252 -0.104661 3.136172 0.472299 -1.361891 -3.655146
  8   1.168026 -0.537438 -0.063437 0.039595 0.811083 -0.262910
  9   6.790376 -0.619176 0.015206 -0.086540 -0.172875 -1.103034
 10   8.637599 0.544015 -0.090417 -3.550339 -0.089386 0.213512
 11   6.790465 -0.619039 0.017802 -0.079873 -0.124187 -0.786368
 12   -2.022474 -0.104699 -2.873818 0.298873 1.361712 -2.901984
 13   1.167898 -0.537463 0.063297 0.714281 -0.857302 -1.281854
 14   7.002743 -0.617765 -0.183752 0.000229 0.000250 -1.945066
 15   8.209042 0.615527 -0.255885 1.759123 -0.372837 1.075068
 16   7.002735 -0.617911 -0.183641 0.012978 0.010920 -1.380362
 17   1.574674 0.609930 -0.000899 0.701247 -0.325340 0.126103
 18   -0.602177 0.511412 -0.000006 0.000000 0.000000 0.000000
 19   3.673773 0.177020 1.119313 -0.000002 -0.000014 -0.174510
 20   3.673767 0.176993 -1.117566 0.000007 -0.000003 -0.174546
 21   3.942357 1.334540 1.627658 0.000002 -0.000011 -0.000026
 22   -0.246060 -0.011889 0.516521 -0.000011 0.000031 0.000025
 23   3.942374 1.334565 -1.631083 0.000019 0.000002 -0.000024
 24   -0.246150 -0.011872 -0.516511 -0.000005 -0.000006 0.000048
 25   4.941364 1.997338 1.629330 0.000018 -0.000001 -0.000024
 26   4.941382 1.997366 -1.629410 -0.000001 0.000005 -0.000024
 27   2.914462 1.619264 1.514501 -0.000019 -0.000022 -0.000050
 28   2.916892 1.618870 -1.501142 -0.000002 -0.000009 -0.000024
 29   8.824059 0.150544 0.091743 0.000006 -0.000231 -0.174534
 30   2.111085 -0.561179 1.784320 -0.000008 -0.000682 0.000024
 31   2.121290 -0.561289 -1.853599 0.000000 0.000000 -0.000002
 32   -0.814395 -0.093824 3.127092 0.338887 -3.077717 -0.167693
 33   14.298673 -0.408176 0.471578 0.013323 -0.092001 -0.496982
 34   15.835795 0.581398 0.242756 -0.532539 -0.064474 0.362915
 35   -0.815868 -0.091229 -3.114430 -0.002012 2.881638 -0.315361
 36   14.294526 -0.410349 -0.467541 -0.021540 0.095265 -0.575866
 37   15.834409 0.579420 -0.284600 -0.051545 0.043118 0.201427
 38   1.139685 -3.453749 -2.823813 0.000000 0.000000 0.000001
 39   -4.457742 -1.054854 -0.746180 0.000000 0.000000 0.000000
 40   1.118101 -3.449769 3.237290 0.000000 0.000001 0.000000
 41   -4.433840 -1.059130 0.959566 -0.000001 0.000000 0.000000
 42   -0.657468 1.697302 -2.688614 0.000000 0.000002 0.000000
 43   -0.664068 1.698578 2.869377 0.000000 0.000002 0.000000
time 20
  0   0.001233 -0.019532 2.285597 0.000000 0.000000 -1.571829
  1   -1.093036 0.000002 -0.326057 -0.213961 -1.569082 -1.356583
  2   2.262337 0.113614 0.064702 -0.013758 -0.103762 0.132104
  3   2.380047 0.353302 0.047440 -0.248687 0.045669 0.177324
  4   2.033756 0.190472 -0.000128 -0.228034 0.058605 0.245874
  5   2.451511 0.204909 -0.003447 -0.092859 -0.001298 -0.017472
  6   7.247600 -0.397300 -0.109469 0.000001 0.000009 0.052298
  7   -2.022252 -0.104661 3.136172 0.660947 -1.332891 -3.839410
  8   1.168026 -0.537438 -0.063437 -0.089497 0.719360 -0.379942
  9   6.790376 -0.619176 0.015206 -0.099300 -0.197569 -1.100619
 10   8.637599 0.544015 -0.090417 -3.698992 -0.022585 0.226606
 11   6.790465 -0.619039 0.017802 -0.091609 -0.140218 -0.784638
 12   -2.022474 -0.104699 -2.873818 0.298873 1.361712 -2.901984
 13   1.167898 -0.537463 0.063297 0.714281 -0.857302 -1.281854
 14   7.002743 -0.617765 -0.183752 0.000229 0.000250 -1.945066
 15   8.209042 0.615527 -0.255885 1.759123 -0.372837 1.075068
 16   7.002735 -0.617911 -0.183641 0.012978 0.010920 -1.380362
 17   1.574674 0.609930 -0.000899 0.701247 -0.325340 0.126103
 18   -0.602177 0.511412 -0.000006 0.000000 0.000000 0.000000
 19   3.673773 0.177020 1.119313 -0.000002 -0.000014 -0.174510
 20   3.673767 0.176993 -1.117566 0.000007 -0.000003 -0.174546
 21   3.942357 1.334540 1.627658 0.000002 -0.000011 -0.000026
 22   -0.246060 -0.011889 0.516521 -0.000011 0.000031 0.000025
 23   3.942374 1.334565 -1.631083 0.000019 0.000002 -0.000024
 24   -0.246150 -0.011872 -0.516511 -0.000005 -0.000006 0.000048
 25   4.941364 1.997338 1.629330 0.000018 -0.000001 -0.000024
 26   4.941382 1.997366 -1.629410 -0.000001 0.000005 -0.000024
 27   2.914462 1.619264 1.514501 -0.000019 -0.000022 -0.000050
 28   2.916892 1.618870 -1.501142 -0.000002 -0.000009 -0.000024
 29   8.824059 0.150544 0.091743 0.000006 -0.000231 -0.174534
 30   2.111085 -0.561179 1.784320 -0.000008 -0.000682 0.000024
 31   2.121290 -0.561289 -1.853599 0.000000 0.000000 -0.000002
 32   -0.814395 -0.093824 3.127092 0.338887 -3.077717 -0.167693
 33   14.298673 -0.408176 0.471578 0.013323 -0.092001 -0.496982
 34   15.835795 0.581398 0.242756 -0.532539 -0.064474 0.362915
 35   -0.815868 -0.091229 -3.114430 -0.002012 2.881638 -0.315361
 36   14.294526 -0.410349 -0.467541 -0.021540 0.095265 -0.575866
 37   15.834409 0.579420 -0.284600 -0.051545 0.043118 0.201427
 38   1.139685 -3.453749 -2.823813 0.000000 0.000000 0.000001
 39   -4.457742 -1.054854 -0.746180 0.000000 0.000000 0.000000
 40   1.118101 -3.449769 3.237290 0.000000 0.000001 0.000000
 41   -4.433840 -1.059130 0.959566 -0.000001 0.000000 0.000000
 42   -0.657468 1.697302 -2.688614 0.000000 0.000002 0.000000
 43   -0.664068 1.698578 2.869377 0.000000 0.000002 0.000000
time 21
  0   0.001233 -0.019532 2.285597 0.000000 0.000000 -1.571829
  1   -1.093036 0.000002 -0.326057 -0.213961 -1.569082 -1.356583
  2   2.262337 0.113614 0.064702 -0.013758 -0.103762 0.132104
  3   2.380047 0.353302 0.047440 -0.253022 0.046436 0.177079
  4   2.033756 0.190472 -0.000128 -0.236536 0.060726 0.245439
  5   2.451511 0.204909 -0.003447 -0.104550 -0.001572 -0.017472
  6   7.247600 -0.397300 -0.109469 0.000001 0.000009 0.052298
  7   -2.022252 -0.104661 3.136172 0.806076 -1.297520 -3.979627
  8   1.168026 -0.537438 -0.063437 -0.195682 0.618379 -0.472808
  9   6.790376 -0.619176 0.015206 -0.112005 -0.222330 -1.098053
 10   8.637599 0.544015 -0.090417 -3.847293 0.044778 0.229862
 11   6.790465 -0.619039 0.017802 -0.103375 -0.156279 -0.782561
 12   -2.022474 -0.104699 -2.873818 0.298873 1.361712 -2.901984
 13   1.167898 -0.537463 0.063297 0.714281 -0.857302 -1.281854
 14   7.002743 -0.617765 -0.183752 0.000229 0.000250 -1.945066
 15   8.209042 0.615527 -0.255885 1.759123 -0.372837 1.075068
 16   7.002735 -0.617911 -0.183641 0.012978 0.010920 -1.380362
 17   1.574674 0.609930 -0.000899 0.701247 -0.325340 0.126103
 18   -0.602177 0.511412 -0.000006 0.000000 0.000000 0.000000
 19   3.673773 0.177020 1.119313 -0.000002 -0.000014 -0.174510
 20   3.673767 0.176993 -1.117566 0.000007 -0.000003 -0.174546
 21   3.942357 1.334540 1.627658 0.000002 -0.000011 -0.000026
 22   -0.246060 -0.011889 0.516521 -0.000011 0.000031 0.000025
 23   3.942374 1.334565 -1.631083 0.000019 0.000002 -0.000024
 24   -0.246150 -0.011872 -0.516511 -0.000005 -0.000006 0.000048
 25   4.941364 1.997338 1.629330 0.000018 -0.000001 -0.000024
 26   4.941382 1.997366 -1.629410 -0.000001 0.000005 -0.000024
 27   2.914462 1.619264 1.514501 -0.000019 -0.000022 -0.000050
 28   2.916892 1.618870 -1.501142 -0.000002 -0.000009 -0.000024
 29   8.824059 0.150544 0.091743 0.000006 -0.000231 -0.174534
 30   2.111085 -0.561179 1.784320 -0.000008 -0.000682 0.000024
 31   2.121290 -0.561289 -1.853599 0.000000 0.000000 -0.000002
 32   -0.814395 -0.093824 3.127092 0.338887 -3.077717 -0.167693
 33   14.298673 -0.408176 0.471578 0.013323 -0.092001 -0.496982
 34   15.835795 0.581398 0.242756 -0.532539 -0.064474 0.362915
 35   -0.815868 -0.091229 -3.114430 -0.002012 2.881638 -0.315361
 36   14.294526 -0.410349 -0.467541 -0.021540 0.095265 -0.575866
 37   15.834409 0.579420 -0.284600 -0.051545 0.043118 0.201427
 38   1.139685 -3.453749 -2.823813 0.000000 0.000000 0.000001
 39   -4.457742 -1.054854 -0.746180 0.000000 0.000000 0.000000
 40   1.118101 -3.449769 3.237290 0.000000 0.000001 0.000000
 41   -4.433840 -1.059130 0.959566 -0.000001 0.000000 0.000000
 42   -0.657468 1.697302 -2.688614 0.000000 0.000002 0.000000
 43   -0.664068 1.698578 2.869377 0.000000 0.000002 0.000000
time 22
  0   0.001233 -0.019532 2.285597 0.000000 0.000000 -1.571829
  1   -1.093036 0.000002 -0.326057 -0.213961 -1.569082 -1.356583
  2   2.262337 0.113614 0.064702 -0.013758 -0.103762 0.132104
  3   2.380047 0.353302 0.047440 -0.257222 0.047203 0.176875
  4   2.033756 0.190472 -0.000128 -0.244946 0.062787 0.245004
  5   2.451511 0.204909 -0.003447 -0.116155 -0.001768 -0.017472
  6   7.247600 -0.397300 -0.109469 0.000001 0.000009 0.052298
  7   -2.022252 -0.104661 3.136172 0.916696 -1.257681 -4.085565
  8   1.168026 -0.537438 -0.063437 -0.283895 0.511058 -0.547139
  9   6.790376 -0.619176 0.015206 -0.125098 -0.246823 -1.094959
 10   8.637599 0.544015 -0.090417 -3.996035 0.112212 0.223134
 11   6.790465 -0.619039 0.017802 -0.115229 -0.172225 -0.780254
 12   -2.022474 -0.104699 -2.873818 0.298873 1.361712 -2.901984
 13   1.167898 -0.537463 0.063297 0.714281 -0.857302 -1.281854
 14   7.002743 -0.617765 -0.183752 0.000229 0.000250 -1.945066
 15   8.209042 0.615527 -0.255885 1.759123 -0.372837 1.075068
 16   7.002735 -0.617911 -0.183641 0.012978 0.010920 -1.380362
 17   1.574674 0.609930 -0.000899 0.701247 -0.325340 0.126103
 18   -0.602177 0.511412 -0.000006 0.000000 0.000000 0.000000
 19   3.673773 0.177020 1.119313 -0.000002 -0.000014 -0.174510
 20   3.673767 0.176993 -1.117566 0.000007 -0.000003 -0.174546
 21   3.942357 1.334540 1.627658 0.000002 -0.000011 -0.000026
 22   -0.246060 -0.011889 0.516521 -0.000011 0.000031 0.000025
 23   3.942374 1.334565 -1.631083 0.000019 0.000002 -0.000024
 24   -0.246150 -0.011872 -0.516511 -0.000005 -0.000006 0.000048
 25   4.941364 1.997338 1.629330 0.000018 -0.000001 -0.000024
 26   4.941382 1.997366 -1.629410 -0.000001 0.000005 -0.000024
 27   2.914462 1.619264 1.514501 -0.000019 -0.000022 -0.000050
 28   2.916892 1.618870 -1.501142 -0.000002 -0.000009 -0.000024
 29   8.824059 0.150544 0.091743 0.000006 -0.000231 -0.174534
 30   2.111085 -0.561179 1.784320 -0.000008 -0.000682 0.000024
 31   2.121290 -0.561289 -1.853599 0.000000 0.000000 -0.000002
 32   -0.814395 -0.093824 3.127092 0.338887 -3.077717 -0.167693
 33   14.298673 -0.408176 0.471578 0.013323 -0.092001 -0.496982
 34   15.835795 0.581398 0.242756 -0.532539 -0.064474 0.362915
 35   -0.815868 -0.091229 -3.114430 -0.002012 2.881638 -0.315361
 36   14.294526 -0.410349 -0.467541 -0.021540 0.095265 -0.575866
 37   15.834409 0.579420 -0.284600 -0.051545 0.043118 0.201427
 38   1.139685 -3.453749 -2.823813 0.000000 0.000000 0.000001
 39   -4.457742 -1.054854 -0.746180 0.000000 0.000000 0.000000
 40   1.118101 -3.449769 3.237290 0.000000 0.000001 0.000000
 41   -4.433840 -1.059130 0.959566 -0.000001 0.000000 0.000000
 42   -0.657468 1.697302 -2.688614 0.000000 0.000002 0.000000
 43   -0.664068 1.698578 2.869377 0.000000 0.000002 0.000000
time 23
  0   0.001233 -0.019532 2.285597 0.000000 0.000000 -1.571829
  1   -1.093036 0.000002 -0.326057 -0.213961 -1.569082 -1.356583
  2   2.262337 0.113614 0.064702 -0.013758 -0.103762 0.132104
  3   2.380047 0.353302 0.047440 -0.261633 0.047970 0.176671
  4   2.033756 0.190472 -0.000128 -0.253448 0.064921 0.244425
  5   2.451511 0.204909 -0.003447 -0.127812 -0.001924 -0.017472
  6   7.247600 -0.397300 -0.109469 0.000001 0.000009 0.052298
  7   -2.022252 -0.104661 3.136172 1.002489 -1.215247 -4.166521
  8   1.168026 -0.537438 -0.063437 -0.359009 0.399109 -0.607173
  9   6.790376 -0.619176 0.015206 -0.138080 -0.271450 -1.091563
 10   8.637599 0.544015 -0.090417 -4.146626 0.178309 0.205988
 11   6.790465 -0.619039 0.017802 -0.127112 -0.188314 -0.777544
 12   -2.022474 -0.104699 -2.873818 0.298873 1.361712 -2.901984
 13   1.167898 -0.537463 0.063297 0.714281 -0.857302 -1.281854
 14   7.002743 -0.617765 -0.183752 0.000229 0.000250 -1.945066
 15   8.209042 0.615527 -0.255885 1.759123 -0.372837 1.075068
 16   7.002735 -0.617911 -0.183641 0.012978 0.010920 -1.380362
 17   1.574674 0.609930 -0.000899 0.701247 -0.325340 0.126103
 18   -0.602177 0.511412 -0.000006 0.000000 0.000000 0.000000
 19   3.673773 0.177020 1.119313 -0.000002 -0.000014 -0.174510
 20   3.673767 0.176993 -1.117566 0.000007 -0.000003 -0.174546
 21   3.942357 1.334540 1.627658 0.000002 -0.000011 -0.000026
 22   -0.246060 -0.011889 0.516521 -0.000011 0.000031 0.000025
 23   3.942374 1.334565 -1.631083 0.000019 0.000002 -0.000024
 24   -0.246150 -0.011872 -0.516511 -0.000005 -0.000006 0.000048
 25   4.941364 1.997338 1.629330 0.000018 -0.000001 -0.000024
 26   4.941382 1.997366 -1.629410 -0.000001 0.000005 -0.000024
 27   2.914462 1.619264 1.514501 -0.000019 -0.000022 -0.000050
 28   2.916892 1.618870 -1.501142 -0.000002 -0.000009 -0.000024
 29   8.824059 0.150544 0.091743 0.000006 -0.000231 -0.174534
 30   2.111085 -0.561179 1.784320 -0.000008 -0.000682 0.000024
 31   2.121290 -0.561289 -1.853599 0.000000 0.000000 -0.000002
 32   -0.814395 -0.093824 3.127092 0.338887 -3.077717 -0.167693
 33   14.298673 -0.408176 0.471578 0.013323 -0.092001 -0.496982
 34   15.835795 0.581398 0.242756 -0.532539 -0.064474 0.362915
 35   -0.815868 -0.091229 -3.114430 -0.002012 2.881638 -0.315361
 36   14.294526 -0.410349 -0.467541 -0.021540 0.095265 -0.575866
 37   15.834409 0.579420 -0.284600 -0.051545 0.043118 0.201427
 38   1.139685 -3.453749 -2.823813 0.000000 0.000000 0.000001
 39   -4.457742 -1.054854 -0.746180 0.000000 0.000000 0.000000
 40   1.118101 -3.449769 3.237290 0.000000 0.000001 0.000000
 41   -4.433840 -1.059130 0.959566 -0.000001 0.000000 0.000000
 42   -0.657468 1.697302 -2.688614 0.000000 0.000002 0.000000
 43   -0.664068 1.698578 2.869377 0.000000 0.000002 0.000000
time 24
  0   0.001233 -0.019532 2.285597 0.000000 0.000000 -1.571829
  1   -1.093036 0.000002 -0.326057 -0.213961 -1.569082 -1.356583
  2   2.262337 0.113614 0.064702 -0.013758 -0.103762 0.132104
  3   2.380047 0.353302 0.047440 -0.265878 0.048737 0.176508
  4   2.033756 0.190472 -0.000128 -0.261987 0.067078 0.243808
  5   2.451511 0.204909 -0.003447 -0.139451 -0.002094 -0.017422
  6   7.247600 -0.397300 -0.109469 0.000001 0.000009 0.052298
  7   -2.022252 -0.104661 3.136172 1.070356 -1.170911 -4.229632
  8   1.168026 -0.537438 -0.063437 -0.423681 0.283990 -0.656010
  9   6.790376 -0.619176 0.015206 -0.151395 -0.295877 -1.088016
 10   8.637599 0.544015 -0.090417 -4.300387 0.240816 0.178425
 11   6.790465 -0.619039 0.017802 -0.139141 -0.204175 -0.774891
 12   -2.022474 -0.104699 -2.873818 0.298873 1.361712 -2.901984
 13   1.167898 -0.537463 0.063297 0.714281 -0.857302 -1.281854
 14   7.002743 -0.617765 -0.183752 0.000229 0.000250 -1.945066
 15   8.209042 0.615527 -0.255885 1.759123 -0.372837 1.075068
 16   7.002735 -0.617911 -0.183641 0.012978 0.010920 -1.380362
 17   1.574674 0.609930 -0.000899 0.701247 -0.325340 0.126103
 18   -0.602177 0.511412 -0.000006 0.000000 0.000000 0.000000
 19   3.673773 0.177020 1.119313 -0.000002 -0.000014 -0.174510
 20   3.673767 0.176993 -1.117566 0.000007 -0.000003 -0.174546
 21   3.942357 1.334540 1.627658 0.000002 -0.000011 -0.000026
 22   -0.246060 -0.011889 0.516521 -0.000011 0.000031 0.000025
 23   3.942374 1.334565 -1.631083 0.000019 0.000002 -0.000024
 24   -0.246150 -0.011872 -0.516511 -0.000005 -0.000006 0.000048
 25   4.941364 1.997338 1.629330 0.000018 -0.000001 -0.000024
 26   4.941382 1.997366 -1.629410 -0.000001 0.000005 -0.000024
 27   2.914462 1.619264 1.514501 -0.000019 -0.000022 -0.000050
 28   2.916892 1.618870 -1.501142 -0.000002 -0.000009 -0.000024
 29   8.824059 0.150544 0.091743 0.000006 -0.000231 -0.174534
 30   2.111085 -0.561179 1.784320 -0.000008 -0.000682 0.000024
 31   2.121290 -0.561289 -1.853599 0.000000 0.000000 -0.000002
 32   -0.814395 -0.093824 3.127092 0.338887 -3.077717 -0.167693
 33   14.298673 -0.408176 0.471578 0.013323 -0.092001 -0.496982
 34   15.835795 0.581398 0.242756 -0.532539 -0.064474 0.362915
 35   -0.815868 -0.091229 -3.114430 -0.002012 2.881638 -0.315361
 36   14.294526 -0.410349 -0.467541 -0.021540 0.095265 -0.575866
 37   15.834409 0.579420 -0.284600 -0.051545 0.043118 0.201427
 38   1.139685 -3.453749 -2.823813 0.000000 0.000000 0.000001
 39   -4.457742 -1.054854 -0.746180 0.000000 0.000000 0.000000
 40   1.118101 -3.449769 3.237290 0.000000 0.000001 0.000000
 41   -4.433840 -1.059130 0.959566 -0.000001 0.000000 0.000000
 42   -0.657468 1.697302 -2.688614 0.000000 0.000002 0.000000
 43   -0.664068 1.698578 2.869377 0.000000 0.000002 0.000000
time 25
  0   0.001233 -0.019532 2.285597 0.000000 0.000000 -1.571829
  1   -1.093036 0.000002 -0.326057 -0.213961 -1.569082 -1.356583
  2   2.262337 0.113614 0.064702 -0.013758 -0.103762 0.132104
  3   2.380047 0.353302 0.047440 -0.265878 0.048737 0.176508
  4   2.033756 0.190472 -0.000128 -0.261987 0.067078 0.243808
  5   2.451511 0.204909 -0.003447 -0.139451 -0.002094 -0.017422
  6   7.247600 -0.397300 -0.109469 0.000001 0.000009 0.052298
  7   -2.022252 -0.104661 3.136172 1.070356 -1.170911 -4.229632
  8   1.168026 -0.537438 -0.063437 -0.423681 0.283990 -0.656010
  9   6.790376 -0.619176 0.015206 -0.119716 -0.237012 -1.096317
 10   8.637599 0.544015 -0.090417 -4.300387 0.240816 0.178425
 11   6.790465 -0.619039 0.017802 -0.110470 -0.165915 -0.781235
 12   -2.022474 -0.104699 -2.873818 0.298873 1.361712 -2.901984
 13   1.167898 -0.537463 0.063297 0.714281 -0.857302 -1.281854
 14   7.002743 -0.617765 -0.183752 0.000229 0.000250 -1.945066
 15   8.209042 0.615527 -0.255885 1.759123 -0.372837 1.075068
 16   7.002735 -0.617911 -0.183641 0.012978 0.010920 -1.380362
 17   1.574674 0.609930 -0.000899 0.701247 -0.325340 0.126103
 18   -0.602177 0.511412 -0.000006 0.000000 0.000000 0.000000
 19   3.673773 0.177020 1.119313 -0.000002 -0.000014 -0.174510
 20   3.673767 0.176993 -1.117566 0.000007 -0.000003 -0.174546
 21   3.942357 1.334540 1.627658 0.000002 -0.000011 -0.000026
 22   -0.246060 -0.011889 0.516521 -0.000011 0.000031 0.000025
 23   3.942374 1.334565 -1.631083 0.000019 0.000002 -0.000024
 24   -0.246150 -0.011872 -0.516511 -0.000005 -0.000006 0.000048
 25   4.941364 1.997338 1.629330 0.000018 -0.000001 -0.000024
 26   4.941382 1.997366 -1.629410 -0.000001 0.000005 -0.000024
 27   2.914462 1.619264 1.514501 -0.000019 -0.000022 -0.000050
 28   2.916892 1.618870 -1.501142 -0.000002 -0.000009 -0.000024
 29   8.824059 0.150544 0.091743 0.000006 -0.000231 -0.174534
 30   2.111085 -0.561179 1.784320 -0.000008 -0.000682 0.000024
 31   2.121290 -0.561289 -1.853599 0.000000 0.000000 -0.000002
 32   -0.814395 -0.093824 3.127092 0.338887 -3.077717 -0.167693
 33   14.298673 -0.408176 0.471578 0.013323 -0.092001 -0.496982
 34   15.835795 0.581398 0.242756 -0.532539 -0.064474 0.362915
 35   -0.815868 -0.091229 -3.114430 -0.002012 2.881638 -0.315361
 36   14.294526 -0.410349 -0.467541 -0.021540 0.095265 -0.575866
 37   15.834409 0.579420 -0.284600 -0.051545 0.043118 0.201427
 38   1.139685 -3.453749 -2.823813 0.000000 0.000000 0.000001
 39   -4.457742 -1.054854 -0.746180 0.000000 0.000000 0.000000
 40   1.118101 -3.449769 3.237290 0.000000 0.000001 0.000000
 41   -4.433840 -1.059130 0.959566 -0.000001 0.000000 0.000000
 42   -0.657468 1.697302 -2.688614 0.000000 0.000002 0.000000
 43   -0.664068 1.698578 2.869377 0.000000 0.000002 0.000000
time 26
  0   0.001233 -0.019532 2.285597 0.000000 0.000000 -1.571829
  1   -1.093036 0.000002 -0.326057 -0.213961 -1.569082 -1.356583
  2   2.262337 0.113614 0.064702 -0.013758 -0.103762 0.132104
  3   2.380047 0.353302 0.047440 -0.265878 0.048737 0.176508
  4   2.033756 0.190472 -0.000128 -0.261987 0.067078 0.243808
  5   2.451511 0.204909 -0.003447 -0.139451 -0.002094 -0.017422
  6   7.247600 -0.397300 -0.109469 0.000001 0.000009 0.052298
  7   -2.022252 -0.104661 3.136172 1.070356 -1.170911 -4.229632
  8   1.168026 -0.537438 -0.063437 -0.423681 0.283990 -0.656010
  9   6.790376 -0.619176 0.015206 -0.089092 -0.177814 -1.102732
 10   8.637599 0.544015 -0.090417 -4.300387 0.240816 0.178425
 11   6.790465 -0.619039 0.017802 -0.082237 -0.127313 -0.786253
 12   -2.022474 -0.104699 -2.873818 0.298873 1.361712 -2.901984
 13   1.167898 -0.537463 0.063297 0.714281 -0.857302 -1.281854
 14   7.002743 -0.617765 -0.183752 0.000229 0.000250 -1.945066
 15   8.209042 0.615527 -0.255885 1.759123 -0.372837 1.075068
 16   7.002735 -0.617911 -0.183641 0.012978 0.010920 -1.380362
 17   1.574674 0.609930 -0.000899 0.701247 -0.325340 0.126103
 18   -0.602177 0.511412 -0.000006 0.000000 0.000000 0.000000
 19   3.673773 0.177020 1.119313 -0.000002 -0.000014 -0.174510
 20   3.673767 0.176993 -1.117566 0.000007 -0.000003 -0.174546
 21   3.942357 1.334540 1.627658 0.000002 -0.000011 -0.000026
 22   -0.246060 -0.011889 0.516521 -0.000011 0.000031 0.000025
 23   3.942374 1.334565 -1.631083 0.000019 0.000002 -0.000024
 24   -0.246150 -0.011872 -0.516511 -0.000005 -0.000006 0.000048
 25   4.941364 1.997338 1.629330 0.000018 -0.000001 -0.000024
 26   4.941382 1.997366 -1.629410 -0.000001 0.000005 -0.000024
 27   2.914462 1.619264 1.514501 -0.000019 -0.000022 -0.000050
 28   2.916892 1.618870 -1.501142 -0.000002 -0.000009 -0.000024
 29   8.824059 0.150544 0.091743 0.000006 -0.000231 -0.174534
 30   2.111085 -0.561179 1.784320 -0.000008 -0.000682 0.000024
 31   2.121290 -0.561289 -1.853599 0.000000 0.000000 -0.000002
 32   -0.814395 -0.093824 3.127092 0.338887 -3.077717 -0.167693
 33   14.298673 -0.408176 0.471578 0.013323 -0.092001 -0.496982
 34   15.835795 0.581398 0.242756 -0.532539 -0.064474 0.362915
 35   -0.815868 -0.091229 -3.114430 -0.002012 2.881638 -0.315361
 36   14.294526 -0.410349 -0.467541 -0.021540 0.095265 -0.575866
 37   15.834409 0.579420 -0.284600 -0.051545 0.043118 0.201427
 38   1.139685 -3.453749 -2.823813 0.000000 0.000000 0.000001
 39   -4.457742 -1.054854 -0.746180 0.000000 0.000000 0.000000
 40   1.118101 -3.449769 3.237290 0.000000 0.000001 0.000000
 41   -4.433840 -1.059130 0.959566 -0.000001 0.000000 0.000000
 42   -0.657468 1.697302 -2.688614 0.000000 0.000002 0.000000
 43   -0.664068 1.698578 2.869377 0.000000 0.000002 0.000000
time 27
  0   0.001233 -0.019532 2.285597 0.000000 0.000000 -1.571829
  1   -1.093036 0.000002 -0.326057 -0.213961 -1.569082 -1.356583
  2   2.262337 0.113614 0.064702 -0.013758 -0.103762 0.132104
  3   2.380047 0.353302 0.047440 -0.265878 0.048737 0.176508
  4   2.033756 0.190472 -0.000128 -0.261987 0.067078 0.243808
  5   2.451511 0.204909 -0.003447 -0.139451 -0.002094 -0.017422
  6   7.247600 -0.397300 -0.109469 0.000001 0.000009 0.052298
  7   -2.022252 -0.104661 3.136172 1.070356 -1.170911 -4.229632
  8   1.168026 -0.537438 -0.063437 -0.423681 0.283990 -0.656010
  9   6.790376 -0.619176 0.015206 -0.058911 -0.118615 -1.107109
 10   8.637599 0.544015 -0.090417 -4.300387 0.240816 0.178425
 11   6.790465 -0.619039 0.017802 -0.054297 -0.088826 -0.789713
 12   -2.022474 -0.104699 -2.873818 0.298873 1.361712 -2.901984
 13   1.167898 -0.537463 0.063297 0.714281 -0.857302 -1.281854
 14   7.002743 -0.617765 -0.183752 0.000229 0.000250 -1.945066
 15   8.209042 0.615527 -0.255885 1.759123 -0.372837 1.075068
 16   7.002735 -0.617911 -0.183641 0.012978 0.010920 -1.380362
 17   1.574674 0.609930 -0.000899 0.701247 -0.325340 0.126103
 18   -0.602177 0.511412 -0.000006 0.000000 0.000000 0.000000
 19   3.673773 0.177020 1.119313 -0.000002 -0.000014 -0.174510
 20   3.673767 0.176993 -1.117566 0.000007 -0.000003 -0.174546
 21   3.942357 1.334540 1.627658 0.000002 -0.000011 -0.000026
 22   -0.246060 -0.011889 0.516521 -0.000011 0.000031 0.000025
 23   3.942374 1.334565 -1.631083 0.000019 0.000002 -0.000024
 24   -0.246150 -0.011872 -0.516511 -0.000005 -0.000006 0.000048
 25   4.941364 1.997338 1.629330 0.000018 -0.000001 -0.000024
 26   4.941382 1.997366 -1.629410 -0.000001 0.000005 -0.000024
 27   2.914462 1.619264 1.514501 -0.000019 -0.000022 -0.000050
 28   2.916892 1.618870 -1.501142 -0.000002 -0.000009 -0.000024
 29   8.824059 0.150544 0.091743 0.000006 -0.000231 -0.174534
 30   2.111085 -0.561179 1.784320 -0.000008 -0.000682 0.000024
 31   2.121290 -0.561289 -1.853599 0.000000 0.000000 -0.000002
 32   -0.814395 -0.093824 3.127092 0.338887 -3.077717 -0.167693
 33   14.298673 -0.408176 0.471578 0.013323 -0.092001 -0.496982
 34   15.835795 0.581398 0.242756 -0.532539 -0.064474 0.362915
 35   -0.815868 -0.091229 -3.114430 -0.002012 2.881638 -0.315361
 36   14.294526 -0.410349 -0.467541 -0.021540 0.095265 -0.575866
 37   15.834409 0.579420 -0.284600 -0.051545 0.043118 0.201427
 38   1.139685 -3.453749 -2.823813 0.000000 0.000000 0.000001
 39   -4.457742 -1.054854 -0.746180 0.000000 0.000000 0.000000
 40   1.118101 -3.449769 3.237290 0.000000 0.000001 0.000000
 41   -4.433840 -1.059130 0.959566 -0.000001 0.000000 0.000000
 42   -0.657468 1.697302 -2.688614 0.000000 0.000002 0.000000
 43   -0.664068 1.698578 2.869377 0.000000 0.000002 0.000000
time 28
  0   0.001233 -0.019532 2.285597 0.000000 0.000000 -1.571829
  1   -1.093036 0.000002 -0.326057 -0.213961 -1.569082 -1.356583
  2   2.262337 0.113614 0.064702 -0.013758 -0.103762 0.132104
  3   2.380047 0.353302 0.047440 -0.265878 0.048737 0.176508
  4   2.033756 0.190472 -0.000128 -0.261987 0.067078 0.243808
  5   2.451511 0.204909 -0.003447 -0.139451 -0.002094 -0.017422
  6   7.247600 -0.397300 -0.109469 0.000001 0.000009 0.052298
  7   -2.022252 -0.104661 3.136172 1.070356 -1.170911 -4.229632
  8   1.168026 -0.537438 -0.063437 -0.423681 0.283990 -0.656010
  9   6.790376 -0.619176 0.015206 -0.029229 -0.059350 -1.109524
 10   8.637599 0.544015 -0.090417 -4.300387 0.240816 0.178425
 11   6.790465 -0.619039 0.017802 -0.026531 -0.050167 -0.791732
 12   -2.022474 -0.104699 -2.873818 0.298873 1.361712 -2.901984
 13   1.167898 -0.537463 0.063297 0.714281 -0.857302 -1.281854
 14   7.002743 -0.617765 -0.183752 0.000229 0.000250 -1.945066
 15   8.209042 0.615527 -0.255885 1.759123 -0.372837 1.075068
 16   7.002735 -0.617911 -0.183641 0.012978 0.010920 -1.380362
 17   1.574674 0.609930 -0.000899 0.701247 -0.325340 0.126103
 18   -0.602177 0.511412 -0.000006 0.000000 0.000000 0.000000
 19   3.673773 0.177020 1.119313 -0.000002 -0.000014 -0.174510
 20   3.673767 0.176993 -1.117566 0.000007 -0.000003 -0.174546
 21   3.942357 1.334540 1.627658 0.000002 -0.000011 -0.000026
 22   -0.246060 -0.011889 0.516521 -0.000011 0.000031 0.000025
 23   3.942374 1.334565 -1.631083 0.000019 0.000002 -0.000024
 24   -0.246150 -0.011872 -0.516511 -0.000005 -0.000006 0.000048
 25   4.941364 1.997338 1.629330 0.000018 -0.000001 -0.000024
 26   4.941382 1.997366 -1.629410 -0.000001 0.000005 -0.000024
 27   2.914462 1.619264 1.514501 -0.000019 -0.000022 -0.000050
 28   2.916892 1.618870 -1.501142 -0.000002 -0.000009 -0.000024
 29   8.824059 0.150544 0.091743 0.000006 -0.000231 -0.174534
 30   2.111085 -0.561179 1.784320 -0.000008 -0.000682 0.000024
 31   2.121290 -0.561289 -1.853599 0.000000 0.000000 -0.000002
 32   -0.814395 -0.093824 3.127092 0.338887 -3.077717 -0.167693
 33   14.298673 -0.408176 0.471578 0.013323 -0.092001 -0.496982
 34   15.835795 0.581398 0.242756 -0.532539 -0.064474 0.362915
 35   -0.815868 -0.091229 -3.114430 -0.002012 2.881638 -0.315361
 36   14.294526 -0.410349 -0.467541 -0.021540 0.095265 -0.575866
 37   15.834409 0.579420 -0.284600 -0.051545 0.043118 0.201427
 38   1.139685 -3.453749 -2.823813 0.000000 0.000000 0.000001
 39   -4.457742 -1.054854 -0.746180 0.000000 0.000000 0.000000
 40   1.118101 -3.449769 3.237290 0.000000 0.000001 0.000000
 41   -4.433840 -1.059130 0.959566 -0.000001 0.000000 0.000000
 42   -0.657468 1.697302 -2.688614 0.000000 0.000002 0.000000
 43   -0.664068 1.698578 2.869377 0.000000 0.000002 0.000000
time 29
  0   0.001233 -0.019532 2.285597 0.000000 0.000000 -1.571829
  1   -1.093036 0.000002 -0.326057 -0.214066 -1.569082 -1.356534
  2   2.262337 0.113614 0.064702 -0.013758 -0.103762 0.132104
  3   2.380047 0.353302 0.047440 -0.265878 0.048737 0.176508
  4   2.033756 0.190472 -0.000128 -0.261987 0.067078 0.243808
  5   2.451511 0.204909 -0.003447 -0.139451 -0.002094 -0.017422
  6   7.247600 -0.397300 -0.109469 0.000001 0.000009 0.052298
  7   -2.022252 -0.104661 3.136172 1.070356 -1.170911 -4.229632
  8   1.168026 -0.537438 -0.063437 -0.423681 0.283990 -0.656010
  9   6.790376 -0.619176 0.015206 -0.000102 -0.000285 -1.110505
 10   8.637599 0.544015 -0.090417 -4.300387 0.240816 0.178425
 11   6.790465 -0.619039 0.017802 0.000797 -0.011623 -0.792539
 12   -2.022474 -0.104699 -2.873818 0.298873 1.361712 -2.901984
 13   1.167898 -0.537463 0.063297 0.714281 -0.857302 -1.281854
 14   7.002743 -0.617765 -0.183752 0.000229 0.000250 -1.945066
 15   8.209042 0.615527 -0.255885 1.759123 -0.372837 1.075068
 16   7.002735 -0.617911 -0.183641 0.012978 0.010920 -1.380362
 17   1.574674 0.609930 -0.000899 0.701247 -0.325340 0.126103
 18   -0.602177 0.511412 -0.000006 0.000000 0.000000 0.000000
 19   3.673773 0.177020 1.119313 -0.000002 -0.000014 -0.174510
 20   3.673767 0.176993 -1.117566 0.000007 -0.000003 -0.174546
 21   3.942357 1.334540 1.627658 0.000002 -0.000011 -0.000026
 22   -0.246060 -0.011889 0.516521 -0.000011 0.000031 0.000025
 23   3.942374 1.334565 -1.631083 0.000019 0.000002 -0.000024
 24   -0.246150 -0.011872 -0.516511 -0.000005 -0.000006 0.000048
 25   4.941364 1.997338 1.629330 0.000018 -0.000001 -0.000024
 26   4.941382 1.997366 -1.629410 -0.000001 0.000005 -0.000024
 27   2.914462 1.619264 1.514501 -0.000019 -0.000022 -0.000050
 28   2.916892 1.618870 -1.501142 -0.000002 -0.000009 -0.000024
 29   8.824059 0.150544 0.091743 0.000006 -0.000231 -0.174534
 30   2.111085 -0.561179 1.784320 -0.000008 -0.000682 0.000024
 31   2.121290 -0.561289 -1.853599 0.000000 0.000000 -0.000002
 32   -0.814395 -0.093824 3.127092 0.338887 -3.077717 -0.167408
 33   14.298673 -0.408176 0.471578 0.013215 -0.091859 -0.496506
 34   15.835795 0.581398 0.242756 -0.532539 -0.064474 0.362915
 35   -0.815868 -0.091229 -3.114430 -0.002012 2.881638 -0.314978
 36   14.294526 -0.410349 -0.467541 -0.021444 0.095337 -0.575480
 37   15.834409 0.579420 -0.284600 -0.051545 0.043118 0.201427
 38   1.139685 -3.453749 -2.823813 0.000000 0.000000 0.000001
 39   -4.457742 -1.054854 -0.746180 0.000000 0.000000 0.000000
 40   1.118101 -3.449769 3.237290 0.000000 0.000001 0.000000
 41   -4.433840 -1.059130 0.959566 -0.000001 0.000000 0.000000
 42   -0.657468 1.697302 -2.688614 0.000000 0.000002 0.000000
 43   -0.664068 1.698578 2.869377 0.000000 0.000002 0.000000
end
