version 1
nodes
  0 "Bip01" -1
  1 "Bip01 Pelvis" 0
  2 "Bip01 Spine" 1
  3 "Bip01 Spine1" 2
  4 "Bip01 Spine2" 3
  5 "Bip01 Spine3" 4
  6 "Bip01 Neck" 5
  7 "Bip01 L Arm" 6
  8 "Bip01 L Arm1" 7
  9 "Bip01 L Arm2" 8
 10 "Bip01 L Hand" 9
 11 "Bip06 L elbow2-smooth" 8
 12 "Bip01 R Arm" 6
 13 "Bip01 R Arm1" 12
 14 "Bip01 R Arm2" 13
 15 "Bip01 R Hand" 14
 16 "Bip06 R elbow2-smooth" 13
 17 "Bip01 Head" 6
 18 "Bip06 Head_helper" 17
 19 "Bip06 Head_eyes_l" 18
 20 "Bip06 Head_eyes_r" 18
 21 "Bip06 Head_blink_l" 18
 22 "Bip06 Head_blink_smooth_l1" 21
 23 "Bip06 Head_blink_r" 18
 24 "Bip06 Head_blink_smooth_r1" 23
 25 "Bip06 Head_L_eyebrow" 18
 26 "Bip06 Head_R_eyebrow" 18
 27 "Bip06 Head_blink_l_lid" 18
 28 "Bip06 Head_blink_r_lid" 18
 29 "Bip06 bunny" 18
 30 "Bip06 bunnyL" 29
 31 "Bip06 bunnyR" 29
 32 "Bip01 L Leg" 1
 33 "Bip01 L Leg1" 32
 34 "Bip01 L Foot" 33
 35 "Bip01 R Leg" 1
 36 "Bip01 R Leg1" 35
 37 "Bip01 R Foot" 36
 38 "Bip03 HairR1" 17
 39 "Bip03 HairR2" 38
 40 "Bip03 HairL1" 17
 41 "Bip03 HairL2" 40
 42 "Bip03 swingR" 17
 43 "Bip03 swingL" 17
end
skeleton
time 0
  0   0.001233 0.187506 0.867585 0.000000 0.000000 -1.571354
  1   -1.093036 0.000002 -0.326057 -1.570808 -1.570425 0.000071
  2   2.262337 0.113614 0.064702 -0.000052 0.000049 -0.260865
  3   2.380047 0.353302 0.047440 -0.261678 -0.001922 -0.008489
  4   2.033756 0.190472 -0.000128 -0.000010 0.000024 -0.035003
  5   2.451511 0.204909 -0.003447 0.000000 -0.000005 -0.017472
  6   7.247600 -0.397300 -0.109469 0.000001 0.000009 -0.209377
  7   -2.022252 -0.104661 3.136172 0.897141 -1.256499 -3.804848
  8   1.168026 -0.537438 -0.063437 -0.469939 1.049673 -1.049616
  9   6.790376 -0.619176 0.015206 -0.000158 -0.000285 -2.133240
 10   8.637599 0.544015 -0.090417 -1.068495 -0.402905 -0.134898
 11   6.790465 -0.619039 0.017802 0.005381 -0.011935 -1.508573
 12   -2.022474 -0.104699 -2.873818 -1.158927 1.101687 -4.048100
 13   1.167898 -0.537463 0.063297 -0.331306 -1.036259 0.471233
 14   7.002743 -0.617765 -0.183752 0.000229 0.000250 -2.415017
 15   8.209042 0.615527 -0.255885 1.510483 0.765006 -0.200505
 16   7.002735 -0.617911 -0.183641 0.011990 0.013965 -1.709200
 17   1.574674 0.609930 -0.000899 0.260992 0.017900 0.201984
 18   -0.602177 0.511412 -0.000006 0.000000 0.000000 0.000000
 19   3.673773 0.177020 1.119313 -0.000002 -0.000014 -0.174510
 20   3.673767 0.176993 -1.117566 0.000007 -0.000003 -0.174546
 21   3.942357 1.334540 1.627658 0.000002 -0.000011 -0.000026
 22   -0.246060 -0.011889 0.516521 -0.000011 0.000031 0.000025
 23   3.942374 1.334565 -1.631083 0.000019 0.000002 -0.000024
 24   -0.246150 -0.011872 -0.516511 -0.000005 -0.000006 0.000048
 25   4.941364 1.997338 1.629330 0.000018 -0.000001 -0.000024
 26   4.941382 1.997366 -1.629410 -0.000001 0.000005 -0.000024
 27   2.914462 1.619264 1.514501 -0.000019 -0.000022 -0.000050
 28   2.916892 1.618870 -1.501142 -0.000002 -0.000009 -0.000024
 29   8.824059 0.150544 0.091743 0.000006 -0.000231 -0.174534
 30   2.111085 -0.561179 1.784320 -0.000008 -0.000682 0.000024
 31   2.121290 -0.561289 -1.853599 0.000000 0.000000 -0.000002
 32   -0.814395 -0.093824 3.127092 -0.129583 -2.975428 -0.324172
 33   14.298673 -0.408176 0.471578 -0.000076 -0.000041 -0.436322
 34   15.835795 0.581398 0.242756 0.162139 -0.013958 0.022620
 35   -0.815868 -0.091229 -3.114430 0.096037 3.002497 -0.031284
 36   14.294526 -0.410349 -0.467541 0.000069 0.000048 -0.399441
 37   15.834409 0.579420 -0.284600 -0.088763 0.039970 0.278088
 38   1.139685 -3.453749 -2.823813 0.000000 0.000000 0.000001
 39   -4.457742 -1.054854 -0.746180 0.000000 0.000000 0.000000
 40   1.118101 -3.449769 3.237290 0.000000 0.000001 0.000000
 41   -4.433840 -1.059130 0.959566 -0.000001 0.000000 0.000000
 42   -0.657468 1.697302 -2.688614 0.000000 0.000002 0.000000
 43   -0.664068 1.698578 2.869377 0.000000 0.000002 0.000000
time 1
  0   0.001233 0.187506 0.824615 0.000000 0.000000 -1.571354
  1   -1.093036 0.000002 -0.326057 -1.570808 -1.570425 0.000071
  2   2.262337 0.113614 0.064702 -0.000052 0.000049 -0.260865
  3   2.380047 0.353302 0.047440 -0.261678 -0.001922 -0.008489
  4   2.033756 0.190472 -0.000128 -0.000010 0.000024 -0.032611
  5   2.451511 0.204909 -0.003447 0.000000 -0.000005 -0.017472
  6   7.247600 -0.397300 -0.109469 0.000001 0.000009 -0.209377
  7   -2.022252 -0.104661 3.136172 0.885063 -1.253529 -3.792076
  8   1.168026 -0.537438 -0.063437 -0.462725 1.045044 -1.043860
  9   6.790376 -0.619176 0.015206 -0.000158 -0.000285 -2.133240
 10   8.637599 0.544015 -0.090417 -1.068495 -0.402905 -0.134898
 11   6.790465 -0.619039 0.017802 0.005381 -0.011935 -1.508573
 12   -2.022474 -0.104699 -2.873818 -1.150305 1.099830 -4.038048
 13   1.167898 -0.537463 0.063297 -0.322167 -1.031987 0.463061
 14   7.002743 -0.617765 -0.183752 0.000229 0.000250 -2.415017
 15   8.209042 0.615527 -0.255885 1.510483 0.765006 -0.200505
 16   7.002735 -0.617911 -0.183641 0.011990 0.013965 -1.709200
 17   1.574674 0.609930 -0.000899 0.260992 0.017900 0.199693
 18   -0.602177 0.511412 -0.000006 0.000000 0.000000 0.000000
 19   3.673773 0.177020 1.119313 -0.000002 -0.000014 -0.174510
 20   3.673767 0.176993 -1.117566 0.000007 -0.000003 -0.174546
 21   3.942357 1.334540 1.627658 0.000002 -0.000011 -0.000026
 22   -0.246060 -0.011889 0.516521 -0.000011 0.000031 0.000025
 23   3.942374 1.334565 -1.631083 0.000019 0.000002 -0.000024
 24   -0.246150 -0.011872 -0.516511 -0.000005 -0.000006 0.000048
 25   4.941364 1.997338 1.629330 0.000018 -0.000001 -0.000024
 26   4.941382 1.997366 -1.629410 -0.000001 0.000005 -0.000024
 27   2.914462 1.619264 1.514501 -0.000019 -0.000022 -0.000050
 28   2.916892 1.618870 -1.501142 -0.000002 -0.000009 -0.000024
 29   8.824059 0.150544 0.091743 0.000006 -0.000231 -0.174534
 30   2.111085 -0.561179 1.784320 -0.000008 -0.000682 0.000024
 31   2.121290 -0.561289 -1.853599 0.000000 0.000000 -0.000002
 32   -0.814395 -0.093824 3.127092 -0.128184 -2.974187 -0.331344
 33   14.298673 -0.408176 0.471578 -0.000076 -0.000041 -0.450534
 34   15.835795 0.581398 0.242756 0.162047 -0.014178 0.029500
 35   -0.815868 -0.091229 -3.114430 0.095245 3.001748 -0.038570
 36   14.294526 -0.410349 -0.467541 0.000069 0.000048 -0.414812
 37   15.834409 0.579420 -0.284600 -0.088763 0.040226 0.286099
 38   1.139685 -3.453749 -2.823813 0.000000 0.000000 0.000001
 39   -4.457742 -1.054854 -0.746180 0.000000 0.000000 0.000000
 40   1.118101 -3.449769 3.237290 0.000000 0.000001 0.000000
 41   -4.433840 -1.059130 0.959566 -0.000001 0.000000 0.000000
 42   -0.657468 1.697302 -2.688614 0.000000 0.000002 0.000000
 43   -0.664068 1.698578 2.869377 0.000000 0.000002 0.000000
time 2
  0   0.001233 0.187506 0.766019 0.000000 0.000000 -1.571354
  1   -1.093036 0.000002 -0.326057 -1.570808 -1.570425 0.000071
  2   2.262337 0.113614 0.064702 -0.000052 0.000049 -0.260865
  3   2.380047 0.353302 0.047440 -0.261678 -0.001922 -0.008489
  4   2.033756 0.190472 -0.000128 -0.000010 0.000024 -0.029965
  5   2.451511 0.204909 -0.003447 0.000000 -0.000005 -0.017472
  6   7.247600 -0.397300 -0.109469 0.000001 0.000009 -0.209377
  7   -2.022252 -0.104661 3.136172 0.872505 -1.250041 -3.779022
  8   1.168026 -0.537438 -0.063437 -0.455005 1.039711 -1.037724
  9   6.790376 -0.619176 0.015206 -0.000158 -0.000285 -2.133240
 10   8.637599 0.544015 -0.090417 -1.068495 -0.402905 -0.134898
 11   6.790465 -0.619039 0.017802 0.005381 -0.011935 -1.508573
 12   -2.022474 -0.104699 -2.873818 -1.140341 1.097421 -4.026750
 13   1.167898 -0.537463 0.063297 -0.312537 -1.027054 0.453920
 14   7.002743 -0.617765 -0.183752 0.000229 0.000250 -2.415017
 15   8.209042 0.615527 -0.255885 1.510483 0.765006 -0.200505
 16   7.002735 -0.617911 -0.183641 0.011943 0.013965 -1.709200
 17   1.574674 0.609930 -0.000899 0.260992 0.017900 0.196994
 18   -0.602177 0.511412 -0.000006 0.000000 0.000000 0.000000
 19   3.673773 0.177020 1.119313 -0.000002 -0.000014 -0.174510
 20   3.673767 0.176993 -1.117566 0.000007 -0.000003 -0.174546
 21   3.942357 1.334540 1.627658 0.000002 -0.000011 -0.000026
 22   -0.246060 -0.011889 0.516521 -0.000011 0.000031 0.000025
 23   3.942374 1.334565 -1.631083 0.000019 0.000002 -0.000024
 24   -0.246150 -0.011872 -0.516511 -0.000005 -0.000006 0.000048
 25   4.941364 1.997338 1.629330 0.000018 -0.000001 -0.000024
 26   4.941382 1.997366 -1.629410 -0.000001 0.000005 -0.000024
 27   2.914462 1.619264 1.514501 -0.000019 -0.000022 -0.000050
 28   2.916892 1.618870 -1.501142 -0.000002 -0.000009 -0.000024
 29   8.824059 0.150544 0.091743 0.000006 -0.000231 -0.174534
 30   2.111085 -0.561179 1.784320 -0.000008 -0.000682 0.000024
 31   2.121290 -0.561289 -1.853599 0.000000 0.000000 -0.000002
 32   -0.814395 -0.093824 3.127092 -0.127066 -2.972945 -0.339142
 33   14.298673 -0.408176 0.471578 -0.000076 -0.000041 -0.465461
 34   15.835795 0.581398 0.242756 0.161978 -0.014422 0.036821
 35   -0.815868 -0.091229 -3.114430 0.093836 3.000904 -0.046238
 36   14.294526 -0.410349 -0.467541 0.000069 0.000048 -0.430647
 37   15.834409 0.579420 -0.284600 -0.088684 0.040456 0.294364
 38   1.139685 -3.453749 -2.823813 0.000000 0.000000 0.000001
 39   -4.457742 -1.054854 -0.746180 0.000000 0.000000 0.000000
 40   1.118101 -3.449769 3.237290 0.000000 0.000001 0.000000
 41   -4.433840 -1.059130 0.959566 -0.000001 0.000000 0.000000
 42   -0.657468 1.697302 -2.688614 0.000000 0.000002 0.000000
 43   -0.664068 1.698578 2.869377 0.000000 0.000002 0.000000
time 3
  0   0.001233 0.187506 0.699611 0.000000 0.000000 -1.571354
  1   -1.093036 0.000002 -0.326057 -1.570808 -1.570425 0.000022
  2   2.262337 0.113614 0.064702 -0.000052 0.000049 -0.260865
  3   2.380047 0.353302 0.047440 -0.261678 -0.001922 -0.008489
  4   2.033756 0.190472 -0.000128 -0.000010 0.000024 -0.027174
  5   2.451511 0.204909 -0.003447 0.000000 -0.000005 -0.017472
  6   7.247600 -0.397300 -0.109469 0.000001 0.000009 -0.209377
  7   -2.022252 -0.104661 3.136172 0.859469 -1.246179 -3.765497
  8   1.168026 -0.537438 -0.063437 -0.446462 1.034277 -1.031208
  9   6.790376 -0.619176 0.015206 -0.000158 -0.000285 -2.133240
 10   8.637599 0.544015 -0.090417 -1.068495 -0.402905 -0.134898
 11   6.790465 -0.619039 0.017802 0.005381 -0.011935 -1.508573
 12   -2.022474 -0.104699 -2.873818 -1.130185 1.095012 -4.015836
 13   1.167898 -0.537463 0.063297 -0.301922 -1.022070 0.444658
 14   7.002743 -0.617765 -0.183752 0.000229 0.000250 -2.415017
 15   8.209042 0.615527 -0.255885 1.510483 0.765006 -0.200505
 16   7.002735 -0.617911 -0.183641 0.011943 0.013965 -1.709200
 17   1.574674 0.609930 -0.000899 0.260992 0.017900 0.194037
 18   -0.602177 0.511412 -0.000006 0.000000 0.000000 0.000000
 19   3.673773 0.177020 1.119313 -0.000002 -0.000014 -0.174510
 20   3.673767 0.176993 -1.117566 0.000007 -0.000003 -0.174546
 21   3.942357 1.334540 1.627658 0.000002 -0.000011 -0.000026
 22   -0.246060 -0.011889 0.516521 -0.000011 0.000031 0.000025
 23   3.942374 1.334565 -1.631083 0.000019 0.000002 -0.000024
 24   -0.246150 -0.011872 -0.516511 -0.000005 -0.000006 0.000048
 25   4.941364 1.997338 1.629330 0.000018 -0.000001 -0.000024
 26   4.941382 1.997366 -1.629410 -0.000001 0.000005 -0.000024
 27   2.914462 1.619264 1.514501 -0.000019 -0.000022 -0.000050
 28   2.916892 1.618870 -1.501142 -0.000002 -0.000009 -0.000024
 29   8.824059 0.150544 0.091743 0.000006 -0.000231 -0.174534
 30   2.111085 -0.561179 1.784320 -0.000008 -0.000682 0.000024
 31   2.121290 -0.561289 -1.853599 0.000000 0.000000 -0.000002
 32   -0.814395 -0.093824 3.127092 -0.125575 -2.972085 -0.346884
 33   14.298673 -0.408176 0.471578 -0.000076 -0.000041 -0.480785
 34   15.835795 0.581398 0.242756 0.161932 -0.014666 0.044450
 35   -0.815868 -0.091229 -3.114430 0.092516 2.999593 -0.053907
 36   14.294526 -0.410349 -0.467541 0.000069 0.000048 -0.446946
 37   15.834409 0.579420 -0.284600 -0.088684 0.040712 0.302780
 38   1.139685 -3.453749 -2.823813 0.000000 0.000000 0.000001
 39   -4.457742 -1.054854 -0.746180 0.000000 0.000000 0.000000
 40   1.118101 -3.449769 3.237290 0.000000 0.000001 0.000000
 41   -4.433840 -1.059130 0.959566 -0.000001 0.000000 0.000000
 42   -0.657468 1.697302 -2.688614 0.000000 0.000002 0.000000
 43   -0.664068 1.698578 2.869377 0.000000 0.000002 0.000000
time 4
  0   0.001233 0.187506 0.637109 0.000000 0.000000 -1.571354
  1   -1.093036 0.000002 -0.326057 -1.570808 -1.570425 0.000022
  2   2.262337 0.113614 0.064702 -0.000052 0.000049 -0.260865
  3   2.380047 0.353302 0.047440 -0.261678 -0.001922 -0.008489
  4   2.033756 0.190472 -0.000128 -0.000010 0.000024 -0.024093
  5   2.451511 0.204909 -0.003447 0.000000 -0.000005 -0.017472
  6   7.247600 -0.397300 -0.109469 0.000001 0.000009 -0.209377
  7   -2.022252 -0.104661 3.136172 0.845665 -1.242258 -3.751222
  8   1.168026 -0.537438 -0.063437 -0.438109 1.028189 -1.024629
  9   6.790376 -0.619176 0.015206 -0.000158 -0.000285 -2.133240
 10   8.637599 0.544015 -0.090417 -1.068495 -0.402905 -0.134898
 11   6.790465 -0.619039 0.017802 0.005381 -0.011935 -1.508573
 12   -2.022474 -0.104699 -2.873818 -1.119550 1.092545 -4.003772
 13   1.167898 -0.537463 0.063297 -0.291518 -1.016476 0.434912
 14   7.002743 -0.617765 -0.183752 0.000229 0.000250 -2.415017
 15   8.209042 0.615527 -0.255885 1.510483 0.765006 -0.200505
 16   7.002735 -0.617911 -0.183641 0.011943 0.013965 -1.709200
 17   1.574674 0.609930 -0.000899 0.260992 0.017900 0.190896
 18   -0.602177 0.511412 -0.000006 0.000000 0.000000 0.000000
 19   3.673773 0.177020 1.119313 -0.000002 -0.000014 -0.174510
 20   3.673767 0.176993 -1.117566 0.000007 -0.000003 -0.174546
 21   3.942357 1.334540 1.627658 0.000002 -0.000011 -0.000026
 22   -0.246060 -0.011889 0.516521 -0.000011 0.000031 0.000025
 23   3.942374 1.334565 -1.631083 0.000019 0.000002 -0.000024
 24   -0.246150 -0.011872 -0.516511 -0.000005 -0.000006 0.000048
 25   4.941364 1.997338 1.629330 0.000018 -0.000001 -0.000024
 26   4.941382 1.997366 -1.629410 -0.000001 0.000005 -0.000024
 27   2.914462 1.619264 1.514501 -0.000019 -0.000022 -0.000050
 28   2.916892 1.618870 -1.501142 -0.000002 -0.000009 -0.000024
 29   8.824059 0.150544 0.091743 0.000006 -0.000231 -0.174534
 30   2.111085 -0.561179 1.784320 -0.000008 -0.000682 0.000024
 31   2.121290 -0.561289 -1.853599 0.000000 0.000000 -0.000002
 32   -0.814395 -0.093824 3.127092 -0.124176 -2.970939 -0.354284
 33   14.298673 -0.408176 0.471578 -0.000076 -0.000041 -0.495474
 34   15.835795 0.581398 0.242756 0.161863 -0.014910 0.051683
 35   -0.815868 -0.091229 -3.114430 0.091636 2.998749 -0.061576
 36   14.294526 -0.410349 -0.467541 0.000069 0.000048 -0.462781
 37   15.834409 0.579420 -0.284600 -0.088684 0.040968 0.311045
 38   1.139685 -3.453749 -2.823813 0.000000 0.000000 0.000001
 39   -4.457742 -1.054854 -0.746180 0.000000 0.000000 0.000000
 40   1.118101 -3.449769 3.237290 0.000000 0.000001 0.000000
 41   -4.433840 -1.059130 0.959566 -0.000001 0.000000 0.000000
 42   -0.657468 1.697302 -2.688614 0.000000 0.000002 0.000000
 43   -0.664068 1.698578 2.869377 0.000000 0.000002 0.000000
time 5
  0   0.001233 0.187506 0.562888 0.000000 0.000000 -1.571354
  1   -1.093036 0.000002 -0.326057 -1.570808 -1.570425 0.000022
  2   2.262337 0.113614 0.064702 -0.000052 0.000049 -0.260865
  3   2.380047 0.353302 0.047440 -0.261678 -0.001922 -0.008489
  4   2.033756 0.190472 -0.000128 -0.000010 0.000024 -0.020867
  5   2.451511 0.204909 -0.003447 0.000000 -0.000005 -0.017472
  6   7.247600 -0.397300 -0.109469 0.000001 0.000009 -0.209377
  7   -2.022252 -0.104661 3.136172 0.832341 -1.238107 -3.737041
  8   1.168026 -0.537438 -0.063437 -0.429820 1.021950 -1.018049
  9   6.790376 -0.619176 0.015206 -0.000158 -0.000285 -2.133240
 10   8.637599 0.544015 -0.090417 -1.068495 -0.402905 -0.134898
 11   6.790465 -0.619039 0.017802 0.005381 -0.011935 -1.508573
 12   -2.022474 -0.104699 -2.873818 -1.108820 1.089845 -3.991900
 13   1.167898 -0.537463 0.063297 -0.280693 -1.010831 0.425408
 14   7.002743 -0.617765 -0.183752 0.000229 0.000250 -2.415017
 15   8.209042 0.615527 -0.255885 1.510483 0.765006 -0.200505
 16   7.002735 -0.617911 -0.183641 0.011943 0.013965 -1.709200
 17   1.574674 0.609930 -0.000899 0.260992 0.017900 0.187902
 18   -0.602177 0.511412 -0.000006 0.000000 0.000000 0.000000
 19   3.673773 0.177020 1.119313 -0.000002 -0.000014 -0.174510
 20   3.673767 0.176993 -1.117566 0.000007 -0.000003 -0.174546
 21   3.942357 1.334540 1.627658 0.000002 -0.000011 -0.000026
 22   -0.246060 -0.011889 0.516521 -0.000011 0.000031 0.000025
 23   3.942374 1.334565 -1.631083 0.000019 0.000002 -0.000024
 24   -0.246150 -0.011872 -0.516511 -0.000005 -0.000006 0.000048
 25   4.941364 1.997338 1.629330 0.000018 -0.000001 -0.000024
 26   4.941382 1.997366 -1.629410 -0.000001 0.000005 -0.000024
 27   2.914462 1.619264 1.514501 -0.000019 -0.000022 -0.000050
 28   2.916892 1.618870 -1.501142 -0.000002 -0.000009 -0.000024
 29   8.824059 0.150544 0.091743 0.000006 -0.000231 -0.174534
 30   2.111085 -0.561179 1.784320 -0.000008 -0.000682 0.000024
 31   2.121290 -0.561289 -1.853599 0.000000 0.000000 -0.000002
 32   -0.814395 -0.093824 3.127092 -0.122592 -2.969602 -0.361627
 33   14.298673 -0.408176 0.471578 -0.000076 -0.000041 -0.509448
 34   15.835795 0.581398 0.242756 0.161748 -0.015105 0.058519
 35   -0.815868 -0.091229 -3.114430 0.090404 2.998000 -0.068588
 36   14.294526 -0.410349 -0.467541 0.000069 0.000048 -0.477535
 37   15.834409 0.579420 -0.284600 -0.088684 0.041224 0.318853
 38   1.139685 -3.453749 -2.823813 0.000000 0.000000 0.000001
 39   -4.457742 -1.054854 -0.746180 0.000000 0.000000 0.000000
 40   1.118101 -3.449769 3.237290 0.000000 0.000001 0.000000
 41   -4.433840 -1.059130 0.959566 -0.000001 0.000000 0.000000
 42   -0.657468 1.697302 -2.688614 0.000000 0.000002 0.000000
 43   -0.664068 1.698578 2.869377 0.000000 0.000002 0.000000
time 6
  0   0.001233 0.187506 0.508199 0.000000 0.000000 -1.571354
  1   -1.093036 0.000002 -0.326057 -1.570808 -1.570425 0.000022
  2   2.262337 0.113614 0.064702 -0.000052 0.000049 -0.260865
  3   2.380047 0.353302 0.047440 -0.261678 -0.001922 -0.008489
  4   2.033756 0.190472 -0.000128 -0.000010 0.000024 -0.017786
  5   2.451511 0.204909 -0.003447 0.000000 -0.000005 -0.017472
  6   7.247600 -0.397300 -0.109469 0.000001 0.000009 -0.209377
  7   -2.022252 -0.104661 3.136172 0.819400 -1.234013 -3.723329
  8   1.168026 -0.537438 -0.063437 -0.421467 1.015912 -1.011534
  9   6.790376 -0.619176 0.015206 -0.000158 -0.000285 -2.133240
 10   8.637599 0.544015 -0.090417 -1.068495 -0.402905 -0.134898
 11   6.790465 -0.619039 0.017802 0.005381 -0.011935 -1.508573
 12   -2.022474 -0.104699 -2.873818 -1.098281 1.086827 -3.979837
 13   1.167898 -0.537463 0.063297 -0.270500 -1.005085 0.415965
 14   7.002743 -0.617765 -0.183752 0.000229 0.000250 -2.415017
 15   8.209042 0.615527 -0.255885 1.510483 0.765006 -0.200505
 16   7.002735 -0.617911 -0.183641 0.011990 0.013965 -1.709200
 17   1.574674 0.609930 -0.000899 0.260992 0.017900 0.184797
 18   -0.602177 0.511412 -0.000006 0.000000 0.000000 0.000000
 19   3.673773 0.177020 1.119313 -0.000002 -0.000014 -0.174510
 20   3.673767 0.176993 -1.117566 0.000007 -0.000003 -0.174546
 21   3.942357 1.334540 1.627658 0.000002 -0.000011 -0.000026
 22   -0.246060 -0.011889 0.516521 -0.000011 0.000031 0.000025
 23   3.942374 1.334565 -1.631083 0.000019 0.000002 -0.000024
 24   -0.246150 -0.011872 -0.516511 -0.000005 -0.000006 0.000048
 25   4.941364 1.997338 1.629330 0.000018 -0.000001 -0.000024
 26   4.941382 1.997366 -1.629410 -0.000001 0.000005 -0.000024
 27   2.914462 1.619264 1.514501 -0.000019 -0.000022 -0.000050
 28   2.916892 1.618870 -1.501142 -0.000002 -0.000009 -0.000024
 29   8.824059 0.150544 0.091743 0.000006 -0.000231 -0.174534
 30   2.111085 -0.561179 1.784320 -0.000008 -0.000682 0.000024
 31   2.121290 -0.561289 -1.853599 0.000000 0.000000 -0.000002
 32   -0.814395 -0.093824 3.127092 -0.121287 -2.968838 -0.368229
 33   14.298673 -0.408176 0.471578 -0.000076 -0.000041 -0.522469
 34   15.835795 0.581398 0.242756 0.161748 -0.015325 0.064958
 35   -0.815868 -0.091229 -3.114430 0.089260 2.997157 -0.075490
 36   14.294526 -0.410349 -0.467541 0.000069 0.000048 -0.491361
 37   15.834409 0.579420 -0.284600 -0.088625 0.041403 0.326154
 38   1.139685 -3.453749 -2.823813 0.000000 0.000000 0.000001
 39   -4.457742 -1.054854 -0.746180 0.000000 0.000000 0.000000
 40   1.118101 -3.449769 3.237290 0.000000 0.000001 0.000000
 41   -4.433840 -1.059130 0.959566 -0.000001 0.000000 0.000000
 42   -0.657468 1.697302 -2.688614 0.000000 0.000002 0.000000
 43   -0.664068 1.698578 2.869377 0.000000 0.000002 0.000000
time 7
  0   0.001233 0.187506 0.437884 0.000000 0.000000 -1.571354
  1   -1.093036 0.000002 -0.326057 -1.570808 -1.570425 0.000022
  2   2.262337 0.113614 0.064702 -0.000052 0.000049 -0.260865
  3   2.380047 0.353302 0.047440 -0.261678 -0.001922 -0.008489
  4   2.033756 0.190472 -0.000128 -0.000010 0.000024 -0.014814
  5   2.451511 0.204909 -0.003447 0.000000 -0.000005 -0.017472
  6   7.247600 -0.397300 -0.109469 0.000001 0.000009 -0.209377
  7   -2.022252 -0.104661 3.136172 0.806843 -1.229718 -3.710181
  8   1.168026 -0.537438 -0.063437 -0.413493 1.009824 -1.005651
  9   6.790376 -0.619176 0.015206 -0.000158 -0.000285 -2.133240
 10   8.637599 0.544015 -0.090417 -1.068495 -0.402905 -0.134898
 11   6.790465 -0.619039 0.017802 0.005381 -0.011935 -1.508573
 12   -2.022474 -0.104699 -2.873818 -1.088222 1.084099 -3.968348
 13   1.167898 -0.537463 0.063297 -0.260377 -0.999491 0.406824
 14   7.002743 -0.617765 -0.183752 0.000229 0.000250 -2.415017
 15   8.209042 0.615527 -0.255885 1.510483 0.765006 -0.200505
 16   7.002735 -0.617911 -0.183641 0.011990 0.013965 -1.709200
 17   1.574674 0.609930 -0.000899 0.260992 0.017900 0.181803
 18   -0.602177 0.511412 -0.000006 0.000000 0.000000 0.000000
 19   3.673773 0.177020 1.119313 -0.000002 -0.000014 -0.174510
 20   3.673767 0.176993 -1.117566 0.000007 -0.000003 -0.174546
 21   3.942357 1.334540 1.627658 0.000002 -0.000011 -0.000026
 22   -0.246060 -0.011889 0.516521 -0.000011 0.000031 0.000025
 23   3.942374 1.334565 -1.631083 0.000019 0.000002 -0.000024
 24   -0.246150 -0.011872 -0.516511 -0.000005 -0.000006 0.000048
 25   4.941364 1.997338 1.629330 0.000018 -0.000001 -0.000024
 26   4.941382 1.997366 -1.629410 -0.000001 0.000005 -0.000024
 27   2.914462 1.619264 1.514501 -0.000019 -0.000022 -0.000050
 28   2.916892 1.618870 -1.501142 -0.000002 -0.000009 -0.000024
 29   8.824059 0.150544 0.091743 0.000006 -0.000231 -0.174534
 30   2.111085 -0.561179 1.784320 -0.000008 -0.000682 0.000024
 31   2.121290 -0.561289 -1.853599 0.000000 0.000000 -0.000002
 32   -0.814395 -0.093824 3.127092 -0.120448 -2.967883 -0.374206
 33   14.298673 -0.408176 0.471578 -0.000076 -0.000041 -0.533982
 34   15.835795 0.581398 0.242756 0.161748 -0.015471 0.069809
 35   -0.815868 -0.091229 -3.114430 0.088555 2.996407 -0.081241
 36   14.294526 -0.410349 -0.467541 0.000069 0.000048 -0.503566
 37   15.834409 0.579420 -0.284600 -0.088625 0.041659 0.332593
 38   1.139685 -3.453749 -2.823813 0.000000 0.000000 0.000001
 39   -4.457742 -1.054854 -0.746180 0.000000 0.000000 0.000000
 40   1.118101 -3.449769 3.237290 0.000000 0.000001 0.000000
 41   -4.433840 -1.059130 0.959566 -0.000001 0.000000 0.000000
 42   -0.657468 1.697302 -2.688614 0.000000 0.000002 0.000000
 43   -0.664068 1.698578 2.869377 0.000000 0.000002 0.000000
time 8
  0   0.001233 0.187506 0.371476 0.000000 0.000000 -1.571354
  1   -1.093036 0.000002 -0.326057 -1.570808 -1.570425 0.000022
  2   2.262337 0.113614 0.064702 -0.000052 0.000049 -0.260865
  3   2.380047 0.353302 0.047440 -0.261678 -0.001922 -0.008489
  4   2.033756 0.190472 -0.000128 -0.000010 0.000024 -0.011914
  5   2.451511 0.204909 -0.003447 0.000000 -0.000005 -0.017472
  6   7.247600 -0.397300 -0.109469 0.000001 0.000009 -0.209377
  7   -2.022252 -0.104661 3.136172 0.795340 -1.225798 -3.697596
  8   1.168026 -0.537438 -0.063437 -0.405900 1.003887 -0.999831
  9   6.790376 -0.619176 0.015206 -0.000158 -0.000285 -2.133240
 10   8.637599 0.544015 -0.090417 -1.068495 -0.402905 -0.134898
 11   6.790465 -0.619039 0.017802 0.005381 -0.011935 -1.508573
 12   -2.022474 -0.104699 -2.873818 -1.078353 1.081573 -3.957242
 13   1.167898 -0.537463 0.063297 -0.251027 -0.994100 0.398349
 14   7.002743 -0.617765 -0.183752 0.000229 0.000250 -2.415017
 15   8.209042 0.615527 -0.255885 1.510483 0.765006 -0.200505
 16   7.002735 -0.617911 -0.183641 0.011943 0.013965 -1.709200
 17   1.574674 0.609930 -0.000899 0.260992 0.017900 0.178736
 18   -0.602177 0.511412 -0.000006 0.000000 0.000000 0.000000
 19   3.673773 0.177020 1.119313 -0.000002 -0.000014 -0.174510
 20   3.673767 0.176993 -1.117566 0.000007 -0.000003 -0.174546
 21   3.942357 1.334540 1.627658 0.000002 -0.000011 -0.000026
 22   -0.246060 -0.011889 0.516521 -0.000011 0.000031 0.000025
 23   3.942374 1.334565 -1.631083 0.000019 0.000002 -0.000024
 24   -0.246150 -0.011872 -0.516511 -0.000005 -0.000006 0.000048
 25   4.941364 1.997338 1.629330 0.000018 -0.000001 -0.000024
 26   4.941382 1.997366 -1.629410 -0.000001 0.000005 -0.000024
 27   2.914462 1.619264 1.514501 -0.000019 -0.000022 -0.000050
 28   2.916892 1.618870 -1.501142 -0.000002 -0.000009 -0.000024
 29   8.824059 0.150544 0.091743 0.000006 -0.000231 -0.174534
 30   2.111085 -0.561179 1.784320 -0.000008 -0.000682 0.000024
 31   2.121290 -0.561289 -1.853599 0.000000 0.000000 -0.000002
 32   -0.814395 -0.093824 3.127092 -0.119236 -2.967119 -0.379443
 33   14.298673 -0.408176 0.471578 -0.000076 -0.000041 -0.544701
 34   15.835795 0.581398 0.242756 0.161863 -0.015642 0.075146
 35   -0.815868 -0.091229 -3.114430 0.087763 2.995564 -0.086774
 36   14.294526 -0.410349 -0.467541 0.000069 0.000048 -0.514921
 37   15.834409 0.579420 -0.284600 -0.088625 0.041864 0.338576
 38   1.139685 -3.453749 -2.823813 0.000000 0.000000 0.000001
 39   -4.457742 -1.054854 -0.746180 0.000000 0.000000 0.000000
 40   1.118101 -3.449769 3.237290 0.000000 0.000001 0.000000
 41   -4.433840 -1.059130 0.959566 -0.000001 0.000000 0.000000
 42   -0.657468 1.697302 -2.688614 0.000000 0.000002 0.000000
 43   -0.664068 1.698578 2.869377 0.000000 0.000002 0.000000
time 9
  0   0.001233 0.187506 0.308974 0.000000 0.000000 -1.571354
  1   -1.093036 0.000002 -0.326057 -1.570808 -1.570425 0.000022
  2   2.262337 0.113614 0.064702 -0.000052 0.000049 -0.260865
  3   2.380047 0.353302 0.047440 -0.261678 -0.001922 -0.008489
  4   2.033756 0.190472 -0.000128 -0.000010 0.000024 -0.009232
  5   2.451511 0.204909 -0.003447 0.000000 -0.000005 -0.017472
  6   7.247600 -0.397300 -0.109469 0.000001 0.000009 -0.209377
  7   -2.022252 -0.104661 3.136172 0.784508 -1.221935 -3.686138
  8   1.168026 -0.537438 -0.063437 -0.399065 0.998755 -0.994706
  9   6.790376 -0.619176 0.015206 -0.000158 -0.000285 -2.133240
 10   8.637599 0.544015 -0.090417 -1.068495 -0.402905 -0.134898
 11   6.790465 -0.619039 0.017802 0.005381 -0.011935 -1.508573
 12   -2.022474 -0.104699 -2.873818 -1.069635 1.078787 -3.947189
 13   1.167898 -0.537463 0.063297 -0.242311 -0.988964 0.390419
 14   7.002743 -0.617765 -0.183752 0.000229 0.000250 -2.415017
 15   8.209042 0.615527 -0.255885 1.510483 0.765006 -0.200505
 16   7.002735 -0.617911 -0.183641 0.011990 0.013965 -1.709200
 17   1.574674 0.609930 -0.000899 0.260992 0.017900 0.176185
 18   -0.602177 0.511412 -0.000006 0.000000 0.000000 0.000000
 19   3.673773 0.177020 1.119313 -0.000002 -0.000014 -0.174510
 20   3.673767 0.176993 -1.117566 0.000007 -0.000003 -0.174546
 21   3.942357 1.334540 1.627658 0.000002 -0.000011 -0.000026
 22   -0.246060 -0.011889 0.516521 -0.000011 0.000031 0.000025
 23   3.942374 1.334565 -1.631083 0.000019 0.000002 -0.000024
 24   -0.246150 -0.011872 -0.516511 -0.000005 -0.000006 0.000048
 25   4.941364 1.997338 1.629330 0.000018 -0.000001 -0.000024
 26   4.941382 1.997366 -1.629410 -0.000001 0.000005 -0.000024
 27   2.914462 1.619264 1.514501 -0.000019 -0.000022 -0.000050
 28   2.916892 1.618870 -1.501142 -0.000002 -0.000009 -0.000024
 29   8.824059 0.150544 0.091743 0.000006 -0.000231 -0.174534
 30   2.111085 -0.561179 1.784320 -0.000008 -0.000682 0.000024
 31   2.121290 -0.561289 -1.853599 0.000000 0.000000 -0.000002
 32   -0.814395 -0.093824 3.127092 -0.118491 -2.966355 -0.385192
 33   14.298673 -0.408176 0.471578 -0.000076 -0.000041 -0.555499
 34   15.835795 0.581398 0.242756 0.161932 -0.015813 0.080306
 35   -0.815868 -0.091229 -3.114430 0.087059 2.994908 -0.092142
 36   14.294526 -0.410349 -0.467541 0.000069 0.000048 -0.526353
 37   15.834409 0.579420 -0.284600 -0.088625 0.042043 0.344711
 38   1.139685 -3.453749 -2.823813 0.000000 0.000000 0.000001
 39   -4.457742 -1.054854 -0.746180 0.000000 0.000000 0.000000
 40   1.118101 -3.449769 3.237290 0.000000 0.000001 0.000000
 41   -4.433840 -1.059130 0.959566 -0.000001 0.000000 0.000000
 42   -0.657468 1.697302 -2.688614 0.000000 0.000002 0.000000
 43   -0.664068 1.698578 2.869377 0.000000 0.000002 0.000000
time 10
  0   0.001233 0.187506 0.266004 0.000000 0.000000 -1.571354
  1   -1.093036 0.000002 -0.326057 -1.570808 -1.570425 0.000022
  2   2.262337 0.113614 0.064702 -0.000052 0.000049 -0.260865
  3   2.380047 0.353302 0.047440 -0.261678 -0.001922 -0.008489
  4   2.033756 0.190472 -0.000128 -0.000010 0.000024 -0.006731
  5   2.451511 0.204909 -0.003447 0.000000 -0.000005 -0.017472
  6   7.247600 -0.397300 -0.109469 0.000001 0.000009 -0.209377
  7   -2.022252 -0.104661 3.136172 0.774730 -1.218389 -3.676371
  8   1.168026 -0.537438 -0.063437 -0.392611 0.993623 -0.989899
  9   6.790376 -0.619176 0.015206 -0.000158 -0.000285 -2.133240
 10   8.637599 0.544015 -0.090417 -1.068495 -0.402905 -0.134898
 11   6.790465 -0.619039 0.017802 0.005381 -0.011935 -1.508573
 12   -2.022474 -0.104699 -2.873818 -1.061396 1.076349 -3.938190
 13   1.167898 -0.537463 0.063297 -0.234719 -0.984031 0.383639
 14   7.002743 -0.617765 -0.183752 0.000229 0.000250 -2.415017
 15   8.209042 0.615527 -0.255885 1.510483 0.765006 -0.200505
 16   7.002735 -0.617911 -0.183641 0.011943 0.013965 -1.709200
 17   1.574674 0.609930 -0.000899 0.260992 0.017900 0.173635
 18   -0.602177 0.511412 -0.000006 0.000000 0.000000 0.000000
 19   3.673773 0.177020 1.119313 -0.000002 -0.000014 -0.174510
 20   3.673767 0.176993 -1.117566 0.000007 -0.000003 -0.174546
 21   3.942357 1.334540 1.627658 0.000002 -0.000011 -0.000026
 22   -0.246060 -0.011889 0.516521 -0.000011 0.000031 0.000025
 23   3.942374 1.334565 -1.631083 0.000019 0.000002 -0.000024
 24   -0.246150 -0.011872 -0.516511 -0.000005 -0.000006 0.000048
 25   4.941364 1.997338 1.629330 0.000018 -0.000001 -0.000024
 26   4.941382 1.997366 -1.629410 -0.000001 0.000005 -0.000024
 27   2.914462 1.619264 1.514501 -0.000019 -0.000022 -0.000050
 28   2.916892 1.618870 -1.501142 -0.000002 -0.000009 -0.000024
 29   8.824059 0.150544 0.091743 0.000006 -0.000231 -0.174534
 30   2.111085 -0.561179 1.784320 -0.000008 -0.000682 0.000024
 31   2.121290 -0.561289 -1.853599 0.000000 0.000000 -0.000002
 32   -0.814395 -0.093824 3.127092 -0.117372 -2.965304 -0.390486
 33   14.298673 -0.408176 0.471578 -0.000076 -0.000041 -0.565900
 34   15.835795 0.581398 0.242756 0.162047 -0.015984 0.085422
 35   -0.815868 -0.091229 -3.114430 0.086003 2.994346 -0.097346
 36   14.294526 -0.410349 -0.467541 0.000069 0.000048 -0.537167
 37   15.834409 0.579420 -0.284600 -0.088605 0.042248 0.350491
 38   1.139685 -3.453749 -2.823813 0.000000 0.000000 0.000001
 39   -4.457742 -1.054854 -0.746180 0.000000 0.000000 0.000000
 40   1.118101 -3.449769 3.237290 0.000000 0.000001 0.000000
 41   -4.433840 -1.059130 0.959566 -0.000001 0.000000 0.000000
 42   -0.657468 1.697302 -2.688614 0.000000 0.000002 0.000000
 43   -0.664068 1.698578 2.869377 0.000000 0.000002 0.000000
time 11
  0   0.001233 0.187506 0.223034 0.000000 0.000000 -1.571354
  1   -1.093036 0.000002 -0.326057 -1.570808 -1.570425 0.000022
  2   2.262337 0.113614 0.064702 -0.000052 0.000049 -0.260865
  3   2.380047 0.353302 0.047440 -0.261678 -0.001922 -0.008489
  4   2.033756 0.190472 -0.000128 -0.000010 0.000024 -0.004592
  5   2.451511 0.204909 -0.003447 0.000000 -0.000005 -0.017472
  6   7.247600 -0.397300 -0.109469 0.000001 0.000009 -0.209377
  7   -2.022252 -0.104661 3.136172 0.766774 -1.215333 -3.667543
  8   1.168026 -0.537438 -0.063437 -0.387422 0.989145 -0.986230
  9   6.790376 -0.619176 0.015206 -0.000158 -0.000285 -2.133240
 10   8.637599 0.544015 -0.090417 -1.068495 -0.402905 -0.134898
 11   6.790465 -0.619039 0.017802 0.005381 -0.011935 -1.508573
 12   -2.022474 -0.104699 -2.873818 -1.054689 1.074521 -3.930243
 13   1.167898 -0.537463 0.063297 -0.227900 -0.980065 0.377404
 14   7.002743 -0.617765 -0.183752 0.000229 0.000250 -2.415017
 15   8.209042 0.615527 -0.255885 1.510483 0.765006 -0.200505
 16   7.002735 -0.617911 -0.183641 0.011990 0.013965 -1.709200
 17   1.574674 0.609930 -0.000899 0.260992 0.017900 0.171491
 18   -0.602177 0.511412 -0.000006 0.000000 0.000000 0.000000
 19   3.673773 0.177020 1.119313 -0.000002 -0.000014 -0.174510
 20   3.673767 0.176993 -1.117566 0.000007 -0.000003 -0.174546
 21   3.942357 1.334540 1.627658 0.000002 -0.000011 -0.000026
 22   -0.246060 -0.011889 0.516521 -0.000011 0.000031 0.000025
 23   3.942374 1.334565 -1.631083 0.000019 0.000002 -0.000024
 24   -0.246150 -0.011872 -0.516511 -0.000005 -0.000006 0.000048
 25   4.941364 1.997338 1.629330 0.000018 -0.000001 -0.000024
 26   4.941382 1.997366 -1.629410 -0.000001 0.000005 -0.000024
 27   2.914462 1.619264 1.514501 -0.000019 -0.000022 -0.000050
 28   2.916892 1.618870 -1.501142 -0.000002 -0.000009 -0.000024
 29   8.824059 0.150544 0.091743 0.000006 -0.000231 -0.174534
 30   2.111085 -0.561179 1.784320 -0.000008 -0.000682 0.000024
 31   2.121290 -0.561289 -1.853599 0.000000 0.000000 -0.000002
 32   -0.814395 -0.093824 3.127092 -0.116533 -2.964540 -0.395381
 33   14.298673 -0.408176 0.471578 -0.000076 -0.000041 -0.575428
 34   15.835795 0.581398 0.242756 0.162231 -0.016106 0.089832
 35   -0.815868 -0.091229 -3.114430 0.085211 2.994159 -0.102112
 36   14.294526 -0.410349 -0.467541 0.000069 0.000048 -0.547054
 37   15.834409 0.579420 -0.284600 -0.088605 0.042478 0.355764
 38   1.139685 -3.453749 -2.823813 0.000000 0.000000 0.000001
 39   -4.457742 -1.054854 -0.746180 0.000000 0.000000 0.000000
 40   1.118101 -3.449769 3.237290 0.000000 0.000001 0.000000
 41   -4.433840 -1.059130 0.959566 -0.000001 0.000000 0.000000
 42   -0.657468 1.697302 -2.688614 0.000000 0.000002 0.000000
 43   -0.664068 1.698578 2.869377 0.000000 0.000002 0.000000
time 12
  0   0.001233 0.187506 0.172251 0.000000 0.000000 -1.571354
  1   -1.093036 0.000002 -0.326057 -1.570808 -1.570425 0.000022
  2   2.262337 0.113614 0.064702 -0.000052 0.000049 -0.260865
  3   2.380047 0.353302 0.047440 -0.261678 -0.001922 -0.008489
  4   2.033756 0.190472 -0.000128 -0.000010 0.000024 -0.002780
  5   2.451511 0.204909 -0.003447 0.000000 -0.000005 -0.017472
  6   7.247600 -0.397300 -0.109469 0.000001 0.000009 -0.209377
  7   -2.022252 -0.104661 3.136172 0.760256 -1.212797 -3.660311
  8   1.168026 -0.537438 -0.063437 -0.383055 0.985774 -0.982813
  9   6.790376 -0.619176 0.015206 -0.000158 -0.000285 -2.133240
 10   8.637599 0.544015 -0.090417 -1.068495 -0.402905 -0.134898
 11   6.790465 -0.619039 0.017802 0.005381 -0.011935 -1.508573
 12   -2.022474 -0.104699 -2.873818 -1.048845 1.072460 -3.923733
 13   1.167898 -0.537463 0.063297 -0.222768 -0.976759 0.372501
 14   7.002743 -0.617765 -0.183752 0.000229 0.000250 -2.415017
 15   8.209042 0.615527 -0.255885 1.510483 0.765006 -0.200505
 16   7.002735 -0.617911 -0.183641 0.011990 0.013965 -1.709200
 17   1.574674 0.609930 -0.000899 0.260992 0.017900 0.169606
 18   -0.602177 0.511412 -0.000006 0.000000 0.000000 0.000000
 19   3.673773 0.177020 1.119313 -0.000002 -0.000014 -0.174510
 20   3.673767 0.176993 -1.117566 0.000007 -0.000003 -0.174546
 21   3.942357 1.334540 1.627658 0.000002 -0.000011 -0.000026
 22   -0.246060 -0.011889 0.516521 -0.000011 0.000031 0.000025
 23   3.942374 1.334565 -1.631083 0.000019 0.000002 -0.000024
 24   -0.246150 -0.011872 -0.516511 -0.000005 -0.000006 0.000048
 25   4.941364 1.997338 1.629330 0.000018 -0.000001 -0.000024
 26   4.941382 1.997366 -1.629410 -0.000001 0.000005 -0.000024
 27   2.914462 1.619264 1.514501 -0.000019 -0.000022 -0.000050
 28   2.916892 1.618870 -1.501142 -0.000002 -0.000009 -0.000024
 29   8.824059 0.150544 0.091743 0.000006 -0.000231 -0.174534
 30   2.111085 -0.561179 1.784320 -0.000008 -0.000682 0.000024
 31   2.121290 -0.561289 -1.853599 0.000000 0.000000 -0.000002
 32   -0.814395 -0.093824 3.127092 -0.116067 -2.963967 -0.399594
 33   14.298673 -0.408176 0.471578 -0.000076 -0.000041 -0.583367
 34   15.835795 0.581398 0.242756 0.162369 -0.016179 0.093625
 35   -0.815868 -0.091229 -3.114430 0.084859 2.993409 -0.105946
 36   14.294526 -0.410349 -0.467541 0.000069 0.000048 -0.555551
 37   15.834409 0.579420 -0.284600 -0.088566 0.042632 0.360327
 38   1.139685 -3.453749 -2.823813 0.000000 0.000000 0.000001
 39   -4.457742 -1.054854 -0.746180 0.000000 0.000000 0.000000
 40   1.118101 -3.449769 3.237290 0.000000 0.000001 0.000000
 41   -4.433840 -1.059130 0.959566 -0.000001 0.000000 0.000000
 42   -0.657468 1.697302 -2.688614 0.000000 0.000002 0.000000
 43   -0.664068 1.698578 2.869377 0.000000 0.000002 0.000000
time 13
  0   0.001233 0.187506 0.148813 0.000000 0.000000 -1.571354
  1   -1.093036 0.000002 -0.326057 -1.570808 -1.570425 0.000022
  2   2.262337 0.113614 0.064702 -0.000052 0.000049 -0.260865
  3   2.380047 0.353302 0.047440 -0.261678 -0.001922 -0.008489
  4   2.033756 0.190472 -0.000128 -0.000010 0.000024 -0.001439
  5   2.451511 0.204909 -0.003447 0.000000 -0.000005 -0.017472
  6   7.247600 -0.397300 -0.109469 0.000001 0.000009 -0.209377
  7   -2.022252 -0.104661 3.136172 0.755271 -1.210692 -3.655146
  8   1.168026 -0.537438 -0.063437 -0.379701 0.982906 -0.980410
  9   6.790376 -0.619176 0.015206 -0.000158 -0.000285 -2.133240
 10   8.637599 0.544015 -0.090417 -1.068495 -0.402905 -0.134898
 11   6.790465 -0.619039 0.017802 0.005381 -0.011935 -1.508573
 12   -2.022474 -0.104699 -2.873818 -1.044725 1.071212 -3.918946
 13   1.167898 -0.537463 0.063297 -0.218480 -0.974013 0.368808
 14   7.002743 -0.617765 -0.183752 0.000229 0.000250 -2.415017
 15   8.209042 0.615527 -0.255885 1.510483 0.765006 -0.200505
 16   7.002735 -0.617911 -0.183641 0.011943 0.013965 -1.709200
 17   1.574674 0.609930 -0.000899 0.260992 0.017900 0.168350
 18   -0.602177 0.511412 -0.000006 0.000000 0.000000 0.000000
 19   3.673773 0.177020 1.119313 -0.000002 -0.000014 -0.174510
 20   3.673767 0.176993 -1.117566 0.000007 -0.000003 -0.174546
 21   3.942357 1.334540 1.627658 0.000002 -0.000011 -0.000026
 22   -0.246060 -0.011889 0.516521 -0.000011 0.000031 0.000025
 23   3.942374 1.334565 -1.631083 0.000019 0.000002 -0.000024
 24   -0.246150 -0.011872 -0.516511 -0.000005 -0.000006 0.000048
 25   4.941364 1.997338 1.629330 0.000018 -0.000001 -0.000024
 26   4.941382 1.997366 -1.629410 -0.000001 0.000005 -0.000024
 27   2.914462 1.619264 1.514501 -0.000019 -0.000022 -0.000050
 28   2.916892 1.618870 -1.501142 -0.000002 -0.000009 -0.000024
 29   8.824059 0.150544 0.091743 0.000006 -0.000231 -0.174534
 30   2.111085 -0.561179 1.784320 -0.000008 -0.000682 0.000024
 31   2.121290 -0.561289 -1.853599 0.000000 0.000000 -0.000002
 32   -0.814395 -0.093824 3.127092 -0.115694 -2.963585 -0.402724
 33   14.298673 -0.408176 0.471578 -0.000076 -0.000041 -0.589799
 34   15.835795 0.581398 0.242756 0.162530 -0.016252 0.096624
 35   -0.815868 -0.091229 -3.114430 0.084243 2.993128 -0.109014
 36   14.294526 -0.410349 -0.467541 0.000069 0.000048 -0.561653
 37   15.834409 0.579420 -0.284600 -0.088566 0.042760 0.363775
 38   1.139685 -3.453749 -2.823813 0.000000 0.000000 0.000001
 39   -4.457742 -1.054854 -0.746180 0.000000 0.000000 0.000000
 40   1.118101 -3.449769 3.237290 0.000000 0.000001 0.000000
 41   -4.433840 -1.059130 0.959566 -0.000001 0.000000 0.000000
 42   -0.657468 1.697302 -2.688614 0.000000 0.000002 0.000000
 43   -0.664068 1.698578 2.869377 0.000000 0.000002 0.000000
time 14
  0   0.001233 0.187506 0.129281 0.000000 0.000000 -1.571354
  1   -1.093036 0.000002 -0.326057 -1.570808 -1.570425 0.000022
  2   2.262337 0.113614 0.064702 -0.000052 0.000049 -0.260865
  3   2.380047 0.353302 0.047440 -0.261678 -0.001922 -0.008489
  4   2.033756 0.190472 -0.000128 -0.000010 0.000024 -0.000569
  5   2.451511 0.204909 -0.003447 0.000000 -0.000005 -0.017472
  6   7.247600 -0.397300 -0.109469 0.000001 0.000009 -0.209377
  7   -2.022252 -0.104661 3.136172 0.752204 -1.209453 -3.651671
  8   1.168026 -0.537438 -0.063437 -0.377676 0.981296 -0.978955
  9   6.790376 -0.619176 0.015206 -0.000158 -0.000285 -2.133240
 10   8.637599 0.544015 -0.090417 -1.068495 -0.402905 -0.134898
 11   6.790465 -0.619039 0.017802 0.005381 -0.011935 -1.508573
 12   -2.022474 -0.104699 -2.873818 -1.041851 1.070428 -3.915786
 13   1.167898 -0.537463 0.063297 -0.215668 -0.972284 0.366387
 14   7.002743 -0.617765 -0.183752 0.000229 0.000250 -2.415017
 15   8.209042 0.615527 -0.255885 1.510483 0.765006 -0.200505
 16   7.002735 -0.617911 -0.183641 0.011990 0.013965 -1.709200
 17   1.574674 0.609930 -0.000899 0.260992 0.017900 0.167499
 18   -0.602177 0.511412 -0.000006 0.000000 0.000000 0.000000
 19   3.673773 0.177020 1.119313 -0.000002 -0.000014 -0.174510
 20   3.673767 0.176993 -1.117566 0.000007 -0.000003 -0.174546
 21   3.942357 1.334540 1.627658 0.000002 -0.000011 -0.000026
 22   -0.246060 -0.011889 0.516521 -0.000011 0.000031 0.000025
 23   3.942374 1.334565 -1.631083 0.000019 0.000002 -0.000024
 24   -0.246150 -0.011872 -0.516511 -0.000005 -0.000006 0.000048
 25   4.941364 1.997338 1.629330 0.000018 -0.000001 -0.000024
 26   4.941382 1.997366 -1.629410 -0.000001 0.000005 -0.000024
 27   2.914462 1.619264 1.514501 -0.000019 -0.000022 -0.000050
 28   2.916892 1.618870 -1.501142 -0.000002 -0.000009 -0.000024
 29   8.824059 0.150544 0.091743 0.000006 -0.000231 -0.174534
 30   2.111085 -0.561179 1.784320 -0.000008 -0.000682 0.000024
 31   2.121290 -0.561289 -1.853599 0.000000 0.000000 -0.000002
 32   -0.814395 -0.093824 3.127092 -0.115322 -2.963203 -0.404546
 33   14.298673 -0.408176 0.471578 -0.000076 -0.000041 -0.593372
 34   15.835795 0.581398 0.242756 0.162622 -0.016301 0.098432
 35   -0.815868 -0.091229 -3.114430 0.083979 2.993034 -0.110931
 36   14.294526 -0.410349 -0.467541 0.000069 0.000048 -0.565747
 37   15.834409 0.579420 -0.284600 -0.088507 0.042862 0.365803
 38   1.139685 -3.453749 -2.823813 0.000000 0.000000 0.000001
 39   -4.457742 -1.054854 -0.746180 0.000000 0.000000 0.000000
 40   1.118101 -3.449769 3.237290 0.000000 0.000001 0.000000
 41   -4.433840 -1.059130 0.959566 -0.000001 0.000000 0.000000
 42   -0.657468 1.697302 -2.688614 0.000000 0.000002 0.000000
 43   -0.664068 1.698578 2.869377 0.000000 0.000002 0.000000
time 15
  0   0.001233 0.187506 0.129281 0.000000 0.000000 -1.571354
  1   -1.093036 0.000002 -0.326057 -1.570808 -1.570425 0.000022
  2   2.262337 0.113614 0.064702 -0.000052 0.000049 -0.260865
  3   2.380047 0.353302 0.047440 -0.261678 -0.001922 -0.008489
  4   2.033756 0.190472 -0.000128 -0.000010 0.000024 -0.000279
  5   2.451511 0.204909 -0.003447 0.000000 -0.000005 -0.017472
  6   7.247600 -0.397300 -0.109469 0.000001 0.000009 -0.209377
  7   -2.022252 -0.104661 3.136172 0.751149 -1.208991 -3.650450
  8   1.168026 -0.537438 -0.063437 -0.376791 0.980642 -0.978385
  9   6.790376 -0.619176 0.015206 -0.000158 -0.000285 -2.133240
 10   8.637599 0.544015 -0.090417 -1.068495 -0.402905 -0.134898
 11   6.790465 -0.619039 0.017802 0.005381 -0.011935 -1.508573
 12   -2.022474 -0.104699 -2.873818 -1.041084 1.070109 -3.914637
 13   1.167898 -0.537463 0.063297 -0.214895 -0.971826 0.365479
 14   7.002743 -0.617765 -0.183752 0.000229 0.000250 -2.415017
 15   8.209042 0.615527 -0.255885 1.510483 0.765006 -0.200505
 16   7.002735 -0.617911 -0.183641 0.011990 0.013965 -1.709200
 17   1.574674 0.609930 -0.000899 0.260992 0.017900 0.167056
 18   -0.602177 0.511412 -0.000006 0.000000 0.000000 0.000000
 19   3.673773 0.177020 1.119313 -0.000002 -0.000014 -0.174510
 20   3.673767 0.176993 -1.117566 0.000007 -0.000003 -0.174546
 21   3.942357 1.334540 1.627658 0.000002 -0.000011 -0.000026
 22   -0.246060 -0.011889 0.516521 -0.000011 0.000031 0.000025
 23   3.942374 1.334565 -1.631083 0.000019 0.000002 -0.000024
 24   -0.246150 -0.011872 -0.516511 -0.000005 -0.000006 0.000048
 25   4.941364 1.997338 1.629330 0.000018 -0.000001 -0.000024
 26   4.941382 1.997366 -1.629410 -0.000001 0.000005 -0.000024
 27   2.914462 1.619264 1.514501 -0.000019 -0.000022 -0.000050
 28   2.916892 1.618870 -1.501142 -0.000002 -0.000009 -0.000024
 29   8.824059 0.150544 0.091743 0.000006 -0.000231 -0.174534
 30   2.111085 -0.561179 1.784320 -0.000008 -0.000682 0.000024
 31   2.121290 -0.561289 -1.853599 0.000000 0.000000 -0.000002
 32   -0.814395 -0.093824 3.127092 -0.115228 -2.963108 -0.405172
 33   14.298673 -0.408176 0.471578 -0.000076 -0.000041 -0.594563
 34   15.835795 0.581398 0.242756 0.162691 -0.016301 0.098785
 35   -0.815868 -0.091229 -3.114430 0.083803 2.992753 -0.111314
 36   14.294526 -0.410349 -0.467541 0.000069 0.000048 -0.566597
 37   15.834409 0.579420 -0.284600 -0.088507 0.042862 0.366158
 38   1.139685 -3.453749 -2.823813 0.000000 0.000000 0.000001
 39   -4.457742 -1.054854 -0.746180 0.000000 0.000000 0.000000
 40   1.118101 -3.449769 3.237290 0.000000 0.000001 0.000000
 41   -4.433840 -1.059130 0.959566 -0.000001 0.000000 0.000000
 42   -0.657468 1.697302 -2.688614 0.000000 0.000002 0.000000
 43   -0.664068 1.698578 2.869377 0.000000 0.000002 0.000000
time 16
  0   0.001233 0.187506 0.129281 0.000000 0.000000 -1.571354
  1   -1.093036 0.000002 -0.326057 -1.570808 -1.570425 0.000022
  2   2.262337 0.113614 0.064702 -0.000052 0.000049 -0.260865
  3   2.380047 0.353302 0.047440 -0.261678 -0.001922 -0.008489
  4   2.033756 0.190472 -0.000128 -0.000010 0.000024 -0.000569
  5   2.451511 0.204909 -0.003447 0.000000 -0.000005 -0.017472
  6   7.247600 -0.397300 -0.109469 0.000001 0.000009 -0.209377
  7   -2.022252 -0.104661 3.136172 0.752204 -1.209453 -3.651671
  8   1.168026 -0.537438 -0.063437 -0.377676 0.981296 -0.978955
  9   6.790376 -0.619176 0.015206 -0.000158 -0.000285 -2.133240
 10   8.637599 0.544015 -0.090417 -1.068495 -0.402905 -0.134898
 11   6.790465 -0.619039 0.017802 0.005381 -0.011935 -1.508573
 12   -2.022474 -0.104699 -2.873818 -1.041851 1.070428 -3.915786
 13   1.167898 -0.537463 0.063297 -0.215668 -0.972284 0.366387
 14   7.002743 -0.617765 -0.183752 0.000229 0.000250 -2.415017
 15   8.209042 0.615527 -0.255885 1.510483 0.765006 -0.200505
 16   7.002735 -0.617911 -0.183641 0.011990 0.013965 -1.709200
 17   1.574674 0.609930 -0.000899 0.260992 0.017900 0.167499
 18   -0.602177 0.511412 -0.000006 0.000000 0.000000 0.000000
 19   3.673773 0.177020 1.119313 -0.000002 -0.000014 -0.174510
 20   3.673767 0.176993 -1.117566 0.000007 -0.000003 -0.174546
 21   3.942357 1.334540 1.627658 0.000002 -0.000011 -0.000026
 22   -0.246060 -0.011889 0.516521 -0.000011 0.000031 0.000025
 23   3.942374 1.334565 -1.631083 0.000019 0.000002 -0.000024
 24   -0.246150 -0.011872 -0.516511 -0.000005 -0.000006 0.000048
 25   4.941364 1.997338 1.629330 0.000018 -0.000001 -0.000024
 26   4.941382 1.997366 -1.629410 -0.000001 0.000005 -0.000024
 27   2.914462 1.619264 1.514501 -0.000019 -0.000022 -0.000050
 28   2.916892 1.618870 -1.501142 -0.000002 -0.000009 -0.000024
 29   8.824059 0.150544 0.091743 0.000006 -0.000231 -0.174534
 30   2.111085 -0.561179 1.784320 -0.000008 -0.000682 0.000024
 31   2.121290 -0.561289 -1.853599 0.000000 0.000000 -0.000002
 32   -0.814395 -0.093824 3.127092 -0.115601 -2.963203 -0.403977
 33   14.298673 -0.408176 0.471578 -0.000076 -0.000041 -0.592022
 34   15.835795 0.581398 0.242756 0.162622 -0.016301 0.097947
 35   -0.815868 -0.091229 -3.114430 0.083979 2.993034 -0.110274
 36   14.294526 -0.410349 -0.467541 0.000069 0.000048 -0.564434
 37   15.834409 0.579420 -0.284600 -0.088507 0.042862 0.365144
 38   1.139685 -3.453749 -2.823813 0.000000 0.000000 0.000001
 39   -4.457742 -1.054854 -0.746180 0.000000 0.000000 0.000000
 40   1.118101 -3.449769 3.237290 0.000000 0.000001 0.000000
 41   -4.433840 -1.059130 0.959566 -0.000001 0.000000 0.000000
 42   -0.657468 1.697302 -2.688614 0.000000 0.000002 0.000000
 43   -0.664068 1.698578 2.869377 0.000000 0.000002 0.000000
time 17
  0   0.001233 0.187506 0.148813 0.000000 0.000000 -1.571354
  1   -1.093036 0.000002 -0.326057 -1.570808 -1.570425 0.000022
  2   2.262337 0.113614 0.064702 -0.000052 0.000049 -0.260865
  3   2.380047 0.353302 0.047440 -0.261678 -0.001922 -0.008489
  4   2.033756 0.190472 -0.000128 -0.000010 0.000024 -0.001439
  5   2.451511 0.204909 -0.003447 0.000000 -0.000005 -0.017472
  6   7.247600 -0.397300 -0.109469 0.000001 0.000009 -0.209377
  7   -2.022252 -0.104661 3.136172 0.755271 -1.210692 -3.655146
  8   1.168026 -0.537438 -0.063437 -0.379701 0.982906 -0.980410
  9   6.790376 -0.619176 0.015206 -0.000158 -0.000285 -2.133240
 10   8.637599 0.544015 -0.090417 -1.068495 -0.402905 -0.134898
 11   6.790465 -0.619039 0.017802 0.005381 -0.011935 -1.508573
 12   -2.022474 -0.104699 -2.873818 -1.044725 1.071212 -3.918946
 13   1.167898 -0.537463 0.063297 -0.218480 -0.974013 0.368808
 14   7.002743 -0.617765 -0.183752 0.000229 0.000250 -2.415017
 15   8.209042 0.615527 -0.255885 1.510483 0.765006 -0.200505
 16   7.002735 -0.617911 -0.183641 0.011943 0.013965 -1.709200
 17   1.574674 0.609930 -0.000899 0.260992 0.017900 0.168350
 18   -0.602177 0.511412 -0.000006 0.000000 0.000000 0.000000
 19   3.673773 0.177020 1.119313 -0.000002 -0.000014 -0.174510
 20   3.673767 0.176993 -1.117566 0.000007 -0.000003 -0.174546
 21   3.942357 1.334540 1.627658 0.000002 -0.000011 -0.000026
 22   -0.246060 -0.011889 0.516521 -0.000011 0.000031 0.000025
 23   3.942374 1.334565 -1.631083 0.000019 0.000002 -0.000024
 24   -0.246150 -0.011872 -0.516511 -0.000005 -0.000006 0.000048
 25   4.941364 1.997338 1.629330 0.000018 -0.000001 -0.000024
 26   4.941382 1.997366 -1.629410 -0.000001 0.000005 -0.000024
 27   2.914462 1.619264 1.514501 -0.000019 -0.000022 -0.000050
 28   2.916892 1.618870 -1.501142 -0.000002 -0.000009 -0.000024
 29   8.824059 0.150544 0.091743 0.000006 -0.000231 -0.174534
 30   2.111085 -0.561179 1.784320 -0.000008 -0.000682 0.000024
 31   2.121290 -0.561289 -1.853599 0.000000 0.000000 -0.000002
 32   -0.814395 -0.093824 3.127092 -0.115788 -2.963776 -0.401814
 33   14.298673 -0.408176 0.471578 -0.000076 -0.000041 -0.587575
 34   15.835795 0.581398 0.242756 0.162530 -0.016179 0.095742
 35   -0.815868 -0.091229 -3.114430 0.084243 2.993315 -0.107973
 36   14.294526 -0.410349 -0.467541 0.000069 0.000048 -0.559645
 37   15.834409 0.579420 -0.284600 -0.088507 0.042734 0.362558
 38   1.139685 -3.453749 -2.823813 0.000000 0.000000 0.000001
 39   -4.457742 -1.054854 -0.746180 0.000000 0.000000 0.000000
 40   1.118101 -3.449769 3.237290 0.000000 0.000001 0.000000
 41   -4.433840 -1.059130 0.959566 -0.000001 0.000000 0.000000
 42   -0.657468 1.697302 -2.688614 0.000000 0.000002 0.000000
 43   -0.664068 1.698578 2.869377 0.000000 0.000002 0.000000
time 18
  0   0.001233 0.187506 0.172251 0.000000 0.000000 -1.571354
  1   -1.093036 0.000002 -0.326057 -1.570808 -1.570425 0.000022
  2   2.262337 0.113614 0.064702 -0.000052 0.000049 -0.260865
  3   2.380047 0.353302 0.047440 -0.261678 -0.001922 -0.008489
  4   2.033756 0.190472 -0.000128 -0.000010 0.000024 -0.002780
  5   2.451511 0.204909 -0.003447 0.000000 -0.000005 -0.017472
  6   7.247600 -0.397300 -0.109469 0.000001 0.000009 -0.209377
  7   -2.022252 -0.104661 3.136172 0.760256 -1.212797 -3.660311
  8   1.168026 -0.537438 -0.063437 -0.383055 0.985774 -0.982813
  9   6.790376 -0.619176 0.015206 -0.000158 -0.000285 -2.133240
 10   8.637599 0.544015 -0.090417 -1.068495 -0.402905 -0.134898
 11   6.790465 -0.619039 0.017802 0.005381 -0.011935 -1.508573
 12   -2.022474 -0.104699 -2.873818 -1.048845 1.072460 -3.923733
 13   1.167898 -0.537463 0.063297 -0.222768 -0.976759 0.372501
 14   7.002743 -0.617765 -0.183752 0.000229 0.000250 -2.415017
 15   8.209042 0.615527 -0.255885 1.510483 0.765006 -0.200505
 16   7.002735 -0.617911 -0.183641 0.011990 0.013965 -1.709200
 17   1.574674 0.609930 -0.000899 0.260992 0.017900 0.169606
 18   -0.602177 0.511412 -0.000006 0.000000 0.000000 0.000000
 19   3.673773 0.177020 1.119313 -0.000002 -0.000014 -0.174510
 20   3.673767 0.176993 -1.117566 0.000007 -0.000003 -0.174546
 21   3.942357 1.334540 1.627658 0.000002 -0.000011 -0.000026
 22   -0.246060 -0.011889 0.516521 -0.000011 0.000031 0.000025
 23   3.942374 1.334565 -1.631083 0.000019 0.000002 -0.000024
 24   -0.246150 -0.011872 -0.516511 -0.000005 -0.000006 0.000048
 25   4.941364 1.997338 1.629330 0.000018 -0.000001 -0.000024
 26   4.941382 1.997366 -1.629410 -0.000001 0.000005 -0.000024
 27   2.914462 1.619264 1.514501 -0.000019 -0.000022 -0.000050
 28   2.916892 1.618870 -1.501142 -0.000002 -0.000009 -0.000024
 29   8.824059 0.150544 0.091743 0.000006 -0.000231 -0.174534
 30   2.111085 -0.561179 1.784320 -0.000008 -0.000682 0.000024
 31   2.121290 -0.561289 -1.853599 0.000000 0.000000 -0.000002
 32   -0.814395 -0.093824 3.127092 -0.116347 -2.964254 -0.398512
 33   14.298673 -0.408176 0.471578 -0.000076 -0.000041 -0.581065
 34   15.835795 0.581398 0.242756 0.162438 -0.016130 0.092478
 35   -0.815868 -0.091229 -3.114430 0.084947 2.993878 -0.104796
 36   14.294526 -0.410349 -0.467541 0.000069 0.000048 -0.553002
 37   15.834409 0.579420 -0.284600 -0.088507 0.042606 0.359009
 38   1.139685 -3.453749 -2.823813 0.000000 0.000000 0.000001
 39   -4.457742 -1.054854 -0.746180 0.000000 0.000000 0.000000
 40   1.118101 -3.449769 3.237290 0.000000 0.000001 0.000000
 41   -4.433840 -1.059130 0.959566 -0.000001 0.000000 0.000000
 42   -0.657468 1.697302 -2.688614 0.000000 0.000002 0.000000
 43   -0.664068 1.698578 2.869377 0.000000 0.000002 0.000000
time 19
  0   0.001233 0.187506 0.223034 0.000000 0.000000 -1.571354
  1   -1.093036 0.000002 -0.326057 -1.570808 -1.570425 0.000022
  2   2.262337 0.113614 0.064702 -0.000052 0.000049 -0.260865
  3   2.380047 0.353302 0.047440 -0.261678 -0.001922 -0.008489
  4   2.033756 0.190472 -0.000128 -0.000010 0.000024 -0.004592
  5   2.451511 0.204909 -0.003447 0.000000 -0.000005 -0.017472
  6   7.247600 -0.397300 -0.109469 0.000001 0.000009 -0.209377
  7   -2.022252 -0.104661 3.136172 0.766774 -1.215333 -3.667543
  8   1.168026 -0.537438 -0.063437 -0.387422 0.989145 -0.986230
  9   6.790376 -0.619176 0.015206 -0.000158 -0.000285 -2.133240
 10   8.637599 0.544015 -0.090417 -1.068495 -0.402905 -0.134898
 11   6.790465 -0.619039 0.017802 0.005381 -0.011935 -1.508573
 12   -2.022474 -0.104699 -2.873818 -1.054689 1.074521 -3.930243
 13   1.167898 -0.537463 0.063297 -0.227900 -0.980065 0.377404
 14   7.002743 -0.617765 -0.183752 0.000229 0.000250 -2.415017
 15   8.209042 0.615527 -0.255885 1.510483 0.765006 -0.200505
 16   7.002735 -0.617911 -0.183641 0.011990 0.013965 -1.709200
 17   1.574674 0.609930 -0.000899 0.260992 0.017900 0.171491
 18   -0.602177 0.511412 -0.000006 0.000000 0.000000 0.000000
 19   3.673773 0.177020 1.119313 -0.000002 -0.000014 -0.174510
 20   3.673767 0.176993 -1.117566 0.000007 -0.000003 -0.174546
 21   3.942357 1.334540 1.627658 0.000002 -0.000011 -0.000026
 22   -0.246060 -0.011889 0.516521 -0.000011 0.000031 0.000025
 23   3.942374 1.334565 -1.631083 0.000019 0.000002 -0.000024
 24   -0.246150 -0.011872 -0.516511 -0.000005 -0.000006 0.000048
 25   4.941364 1.997338 1.629330 0.000018 -0.000001 -0.000024
 26   4.941382 1.997366 -1.629410 -0.000001 0.000005 -0.000024
 27   2.914462 1.619264 1.514501 -0.000019 -0.000022 -0.000050
 28   2.916892 1.618870 -1.501142 -0.000002 -0.000009 -0.000024
 29   8.824059 0.150544 0.091743 0.000006 -0.000231 -0.174534
 30   2.111085 -0.561179 1.784320 -0.000008 -0.000682 0.000024
 31   2.121290 -0.561289 -1.853599 0.000000 0.000000 -0.000002
 32   -0.814395 -0.093824 3.127092 -0.117093 -2.964922 -0.394129
 33   14.298673 -0.408176 0.471578 -0.000076 -0.000041 -0.572887
 34   15.835795 0.581398 0.242756 0.162300 -0.016057 0.088509
 35   -0.815868 -0.091229 -3.114430 0.085651 2.994159 -0.100797
 36   14.294526 -0.410349 -0.467541 0.000069 0.000048 -0.544505
 37   15.834409 0.579420 -0.284600 -0.088566 0.042427 0.354243
 38   1.139685 -3.453749 -2.823813 0.000000 0.000000 0.000001
 39   -4.457742 -1.054854 -0.746180 0.000000 0.000000 0.000000
 40   1.118101 -3.449769 3.237290 0.000000 0.000001 0.000000
 41   -4.433840 -1.059130 0.959566 -0.000001 0.000000 0.000000
 42   -0.657468 1.697302 -2.688614 0.000000 0.000002 0.000000
 43   -0.664068 1.698578 2.869377 0.000000 0.000002 0.000000
time 20
  0   0.001233 0.187506 0.266004 0.000000 0.000000 -1.571354
  1   -1.093036 0.000002 -0.326057 -1.570808 -1.570425 0.000022
  2   2.262337 0.113614 0.064702 -0.000052 0.000049 -0.260865
  3   2.380047 0.353302 0.047440 -0.261678 -0.001922 -0.008489
  4   2.033756 0.190472 -0.000128 -0.000010 0.000024 -0.006731
  5   2.451511 0.204909 -0.003447 0.000000 -0.000005 -0.017472
  6   7.247600 -0.397300 -0.109469 0.000001 0.000009 -0.209377
  7   -2.022252 -0.104661 3.136172 0.774730 -1.218389 -3.676371
  8   1.168026 -0.537438 -0.063437 -0.392611 0.993623 -0.989899
  9   6.790376 -0.619176 0.015206 -0.000158 -0.000285 -2.133240
 10   8.637599 0.544015 -0.090417 -1.068495 -0.402905 -0.134898
 11   6.790465 -0.619039 0.017802 0.005381 -0.011935 -1.508573
 12   -2.022474 -0.104699 -2.873818 -1.061396 1.076349 -3.938190
 13   1.167898 -0.537463 0.063297 -0.234719 -0.984031 0.383639
 14   7.002743 -0.617765 -0.183752 0.000229 0.000250 -2.415017
 15   8.209042 0.615527 -0.255885 1.510483 0.765006 -0.200505
 16   7.002735 -0.617911 -0.183641 0.011943 0.013965 -1.709200
 17   1.574674 0.609930 -0.000899 0.260992 0.017900 0.173635
 18   -0.602177 0.511412 -0.000006 0.000000 0.000000 0.000000
 19   3.673773 0.177020 1.119313 -0.000002 -0.000014 -0.174510
 20   3.673767 0.176993 -1.117566 0.000007 -0.000003 -0.174546
 21   3.942357 1.334540 1.627658 0.000002 -0.000011 -0.000026
 22   -0.246060 -0.011889 0.516521 -0.000011 0.000031 0.000025
 23   3.942374 1.334565 -1.631083 0.000019 0.000002 -0.000024
 24   -0.246150 -0.011872 -0.516511 -0.000005 -0.000006 0.000048
 25   4.941364 1.997338 1.629330 0.000018 -0.000001 -0.000024
 26   4.941382 1.997366 -1.629410 -0.000001 0.000005 -0.000024
 27   2.914462 1.619264 1.514501 -0.000019 -0.000022 -0.000050
 28   2.916892 1.618870 -1.501142 -0.000002 -0.000009 -0.000024
 29   8.824059 0.150544 0.091743 0.000006 -0.000231 -0.174534
 30   2.111085 -0.561179 1.784320 -0.000008 -0.000682 0.000024
 31   2.121290 -0.561289 -1.853599 0.000000 0.000000 -0.000002
 32   -0.814395 -0.093824 3.127092 -0.117652 -2.965686 -0.389234
 33   14.298673 -0.408176 0.471578 -0.000076 -0.000041 -0.563518
 34   15.835795 0.581398 0.242756 0.162139 -0.015935 0.084187
 35   -0.815868 -0.091229 -3.114430 0.086355 2.994815 -0.096086
 36   14.294526 -0.410349 -0.467541 0.000069 0.000048 -0.534541
 37   15.834409 0.579420 -0.284600 -0.088566 0.042248 0.349122
 38   1.139685 -3.453749 -2.823813 0.000000 0.000000 0.000001
 39   -4.457742 -1.054854 -0.746180 0.000000 0.000000 0.000000
 40   1.118101 -3.449769 3.237290 0.000000 0.000001 0.000000
 41   -4.433840 -1.059130 0.959566 -0.000001 0.000000 0.000000
 42   -0.657468 1.697302 -2.688614 0.000000 0.000002 0.000000
 43   -0.664068 1.698578 2.869377 0.000000 0.000002 0.000000
time 21
  0   0.001233 0.187506 0.308974 0.000000 0.000000 -1.571354
  1   -1.093036 0.000002 -0.326057 -1.570808 -1.570425 0.000022
  2   2.262337 0.113614 0.064702 -0.000052 0.000049 -0.260865
  3   2.380047 0.353302 0.047440 -0.261678 -0.001922 -0.008489
  4   2.033756 0.190472 -0.000128 -0.000010 0.000024 -0.009232
  5   2.451511 0.204909 -0.003447 0.000000 -0.000005 -0.017472
  6   7.247600 -0.397300 -0.109469 0.000001 0.000009 -0.209377
  7   -2.022252 -0.104661 3.136172 0.784508 -1.221935 -3.686138
  8   1.168026 -0.537438 -0.063437 -0.399065 0.998755 -0.994706
  9   6.790376 -0.619176 0.015206 -0.000158 -0.000285 -2.133240
 10   8.637599 0.544015 -0.090417 -1.068495 -0.402905 -0.134898
 11   6.790465 -0.619039 0.017802 0.005381 -0.011935 -1.508573
 12   -2.022474 -0.104699 -2.873818 -1.069635 1.078787 -3.947189
 13   1.167898 -0.537463 0.063297 -0.242311 -0.988964 0.390419
 14   7.002743 -0.617765 -0.183752 0.000229 0.000250 -2.415017
 15   8.209042 0.615527 -0.255885 1.510483 0.765006 -0.200505
 16   7.002735 -0.617911 -0.183641 0.011990 0.013965 -1.709200
 17   1.574674 0.609930 -0.000899 0.260992 0.017900 0.176185
 18   -0.602177 0.511412 -0.000006 0.000000 0.000000 0.000000
 19   3.673773 0.177020 1.119313 -0.000002 -0.000014 -0.174510
 20   3.673767 0.176993 -1.117566 0.000007 -0.000003 -0.174546
 21   3.942357 1.334540 1.627658 0.000002 -0.000011 -0.000026
 22   -0.246060 -0.011889 0.516521 -0.000011 0.000031 0.000025
 23   3.942374 1.334565 -1.631083 0.000019 0.000002 -0.000024
 24   -0.246150 -0.011872 -0.516511 -0.000005 -0.000006 0.000048
 25   4.941364 1.997338 1.629330 0.000018 -0.000001 -0.000024
 26   4.941382 1.997366 -1.629410 -0.000001 0.000005 -0.000024
 27   2.914462 1.619264 1.514501 -0.000019 -0.000022 -0.000050
 28   2.916892 1.618870 -1.501142 -0.000002 -0.000009 -0.000024
 29   8.824059 0.150544 0.091743 0.000006 -0.000231 -0.174534
 30   2.111085 -0.561179 1.784320 -0.000008 -0.000682 0.000024
 31   2.121290 -0.561289 -1.853599 0.000000 0.000000 -0.000002
 32   -0.814395 -0.093824 3.127092 -0.118584 -2.966450 -0.383940
 33   14.298673 -0.408176 0.471578 -0.000076 -0.000041 -0.553117
 34   15.835795 0.581398 0.242756 0.161978 -0.015764 0.079071
 35   -0.815868 -0.091229 -3.114430 0.087059 2.995095 -0.090828
 36   14.294526 -0.410349 -0.467541 0.000069 0.000048 -0.523649
 37   15.834409 0.579420 -0.284600 -0.088605 0.041992 0.343342
 38   1.139685 -3.453749 -2.823813 0.000000 0.000000 0.000001
 39   -4.457742 -1.054854 -0.746180 0.000000 0.000000 0.000000
 40   1.118101 -3.449769 3.237290 0.000000 0.000001 0.000000
 41   -4.433840 -1.059130 0.959566 -0.000001 0.000000 0.000000
 42   -0.657468 1.697302 -2.688614 0.000000 0.000002 0.000000
 43   -0.664068 1.698578 2.869377 0.000000 0.000002 0.000000
time 22
  0   0.001233 0.187506 0.371476 0.000000 0.000000 -1.571354
  1   -1.093036 0.000002 -0.326057 -1.570808 -1.570425 0.000022
  2   2.262337 0.113614 0.064702 -0.000052 0.000049 -0.260865
  3   2.380047 0.353302 0.047440 -0.261678 -0.001922 -0.008489
  4   2.033756 0.190472 -0.000128 -0.000010 0.000024 -0.011914
  5   2.451511 0.204909 -0.003447 0.000000 -0.000005 -0.017472
  6   7.247600 -0.397300 -0.109469 0.000001 0.000009 -0.209377
  7   -2.022252 -0.104661 3.136172 0.795340 -1.225798 -3.697596
  8   1.168026 -0.537438 -0.063437 -0.405900 1.003887 -0.999831
  9   6.790376 -0.619176 0.015206 -0.000158 -0.000285 -2.133240
 10   8.637599 0.544015 -0.090417 -1.068495 -0.402905 -0.134898
 11   6.790465 -0.619039 0.017802 0.005381 -0.011935 -1.508573
 12   -2.022474 -0.104699 -2.873818 -1.078353 1.081573 -3.957242
 13   1.167898 -0.537463 0.063297 -0.251027 -0.994100 0.398349
 14   7.002743 -0.617765 -0.183752 0.000229 0.000250 -2.415017
 15   8.209042 0.615527 -0.255885 1.510483 0.765006 -0.200505
 16   7.002735 -0.617911 -0.183641 0.011943 0.013965 -1.709200
 17   1.574674 0.609930 -0.000899 0.260992 0.017900 0.178736
 18   -0.602177 0.511412 -0.000006 0.000000 0.000000 0.000000
 19   3.673773 0.177020 1.119313 -0.000002 -0.000014 -0.174510
 20   3.673767 0.176993 -1.117566 0.000007 -0.000003 -0.174546
 21   3.942357 1.334540 1.627658 0.000002 -0.000011 -0.000026
 22   -0.246060 -0.011889 0.516521 -0.000011 0.000031 0.000025
 23   3.942374 1.334565 -1.631083 0.000019 0.000002 -0.000024
 24   -0.246150 -0.011872 -0.516511 -0.000005 -0.000006 0.000048
 25   4.941364 1.997338 1.629330 0.000018 -0.000001 -0.000024
 26   4.941382 1.997366 -1.629410 -0.000001 0.000005 -0.000024
 27   2.914462 1.619264 1.514501 -0.000019 -0.000022 -0.000050
 28   2.916892 1.618870 -1.501142 -0.000002 -0.000009 -0.000024
 29   8.824059 0.150544 0.091743 0.000006 -0.000231 -0.174534
 30   2.111085 -0.561179 1.784320 -0.000008 -0.000682 0.000024
 31   2.121290 -0.561289 -1.853599 0.000000 0.000000 -0.000002
 32   -0.814395 -0.093824 3.127092 -0.119516 -2.967406 -0.378191
 33   14.298673 -0.408176 0.471578 -0.000076 -0.000041 -0.542319
 34   15.835795 0.581398 0.242756 0.161863 -0.015593 0.073867
 35   -0.815868 -0.091229 -3.114430 0.087763 2.995751 -0.085459
 36   14.294526 -0.410349 -0.467541 0.000069 0.000048 -0.512449
 37   15.834409 0.579420 -0.284600 -0.088605 0.041787 0.337359
 38   1.139685 -3.453749 -2.823813 0.000000 0.000000 0.000001
 39   -4.457742 -1.054854 -0.746180 0.000000 0.000000 0.000000
 40   1.118101 -3.449769 3.237290 0.000000 0.000001 0.000000
 41   -4.433840 -1.059130 0.959566 -0.000001 0.000000 0.000000
 42   -0.657468 1.697302 -2.688614 0.000000 0.000002 0.000000
 43   -0.664068 1.698578 2.869377 0.000000 0.000002 0.000000
time 23
  0   0.001233 0.187506 0.437884 0.000000 0.000000 -1.571354
  1   -1.093036 0.000002 -0.326057 -1.570808 -1.570425 0.000022
  2   2.262337 0.113614 0.064702 -0.000052 0.000049 -0.260865
  3   2.380047 0.353302 0.047440 -0.261678 -0.001922 -0.008489
  4   2.033756 0.190472 -0.000128 -0.000010 0.000024 -0.014814
  5   2.451511 0.204909 -0.003447 0.000000 -0.000005 -0.017472
  6   7.247600 -0.397300 -0.109469 0.000001 0.000009 -0.209377
  7   -2.022252 -0.104661 3.136172 0.806843 -1.229718 -3.710181
  8   1.168026 -0.537438 -0.063437 -0.413493 1.009824 -1.005651
  9   6.790376 -0.619176 0.015206 -0.000158 -0.000285 -2.133240
 10   8.637599 0.544015 -0.090417 -1.068495 -0.402905 -0.134898
 11   6.790465 -0.619039 0.017802 0.005381 -0.011935 -1.508573
 12   -2.022474 -0.104699 -2.873818 -1.088222 1.084099 -3.968348
 13   1.167898 -0.537463 0.063297 -0.260377 -0.999491 0.406824
 14   7.002743 -0.617765 -0.183752 0.000229 0.000250 -2.415017
 15   8.209042 0.615527 -0.255885 1.510483 0.765006 -0.200505
 16   7.002735 -0.617911 -0.183641 0.011990 0.013965 -1.709200
 17   1.574674 0.609930 -0.000899 0.260992 0.017900 0.181803
 18   -0.602177 0.511412 -0.000006 0.000000 0.000000 0.000000
 19   3.673773 0.177020 1.119313 -0.000002 -0.000014 -0.174510
 20   3.673767 0.176993 -1.117566 0.000007 -0.000003 -0.174546
 21   3.942357 1.334540 1.627658 0.000002 -0.000011 -0.000026
 22   -0.246060 -0.011889 0.516521 -0.000011 0.000031 0.000025
 23   3.942374 1.334565 -1.631083 0.000019 0.000002 -0.000024
 24   -0.246150 -0.011872 -0.516511 -0.000005 -0.000006 0.000048
 25   4.941364 1.997338 1.629330 0.000018 -0.000001 -0.000024
 26   4.941382 1.997366 -1.629410 -0.000001 0.000005 -0.000024
 27   2.914462 1.619264 1.514501 -0.000019 -0.000022 -0.000050
 28   2.916892 1.618870 -1.501142 -0.000002 -0.000009 -0.000024
 29   8.824059 0.150544 0.091743 0.000006 -0.000231 -0.174534
 30   2.111085 -0.561179 1.784320 -0.000008 -0.000682 0.000024
 31   2.121290 -0.561289 -1.853599 0.000000 0.000000 -0.000002
 32   -0.814395 -0.093824 3.127092 -0.120541 -2.968265 -0.372840
 33   14.298673 -0.408176 0.471578 -0.000076 -0.000041 -0.531203
 34   15.835795 0.581398 0.242756 0.161748 -0.015447 0.068398
 35   -0.815868 -0.091229 -3.114430 0.088555 2.996501 -0.079982
 36   14.294526 -0.410349 -0.467541 0.000069 0.000048 -0.500708
 37   15.834409 0.579420 -0.284600 -0.088625 0.041608 0.331072
 38   1.139685 -3.453749 -2.823813 0.000000 0.000000 0.000001
 39   -4.457742 -1.054854 -0.746180 0.000000 0.000000 0.000000
 40   1.118101 -3.449769 3.237290 0.000000 0.000001 0.000000
 41   -4.433840 -1.059130 0.959566 -0.000001 0.000000 0.000000
 42   -0.657468 1.697302 -2.688614 0.000000 0.000002 0.000000
 43   -0.664068 1.698578 2.869377 0.000000 0.000002 0.000000
time 24
  0   0.001233 0.187506 0.508199 0.000000 0.000000 -1.571354
  1   -1.093036 0.000002 -0.326057 -1.570808 -1.570425 0.000022
  2   2.262337 0.113614 0.064702 -0.000052 0.000049 -0.260865
  3   2.380047 0.353302 0.047440 -0.261678 -0.001922 -0.008489
  4   2.033756 0.190472 -0.000128 -0.000010 0.000024 -0.017786
  5   2.451511 0.204909 -0.003447 0.000000 -0.000005 -0.017472
  6   7.247600 -0.397300 -0.109469 0.000001 0.000009 -0.209377
  7   -2.022252 -0.104661 3.136172 0.819400 -1.234013 -3.723329
  8   1.168026 -0.537438 -0.063437 -0.421467 1.015912 -1.011534
  9   6.790376 -0.619176 0.015206 -0.000158 -0.000285 -2.133240
 10   8.637599 0.544015 -0.090417 -1.068495 -0.402905 -0.134898
 11   6.790465 -0.619039 0.017802 0.005381 -0.011935 -1.508573
 12   -2.022474 -0.104699 -2.873818 -1.098281 1.086827 -3.979837
 13   1.167898 -0.537463 0.063297 -0.270500 -1.005085 0.415965
 14   7.002743 -0.617765 -0.183752 0.000229 0.000250 -2.415017
 15   8.209042 0.615527 -0.255885 1.510483 0.765006 -0.200505
 16   7.002735 -0.617911 -0.183641 0.011990 0.013965 -1.709200
 17   1.574674 0.609930 -0.000899 0.260992 0.017900 0.184797
 18   -0.602177 0.511412 -0.000006 0.000000 0.000000 0.000000
 19   3.673773 0.177020 1.119313 -0.000002 -0.000014 -0.174510
 20   3.673767 0.176993 -1.117566 0.000007 -0.000003 -0.174546
 21   3.942357 1.334540 1.627658 0.000002 -0.000011 -0.000026
 22   -0.246060 -0.011889 0.516521 -0.000011 0.000031 0.000025
 23   3.942374 1.334565 -1.631083 0.000019 0.000002 -0.000024
 24   -0.246150 -0.011872 -0.516511 -0.000005 -0.000006 0.000048
 25   4.941364 1.997338 1.629330 0.000018 -0.000001 -0.000024
 26   4.941382 1.997366 -1.629410 -0.000001 0.000005 -0.000024
 27   2.914462 1.619264 1.514501 -0.000019 -0.000022 -0.000050
 28   2.916892 1.618870 -1.501142 -0.000002 -0.000009 -0.000024
 29   8.824059 0.150544 0.091743 0.000006 -0.000231 -0.174534
 30   2.111085 -0.561179 1.784320 -0.000008 -0.000682 0.000024
 31   2.121290 -0.561289 -1.853599 0.000000 0.000000 -0.000002
 32   -0.814395 -0.093824 3.127092 -0.121567 -2.968934 -0.367205
 33   14.298673 -0.408176 0.471578 -0.000076 -0.000041 -0.520643
 34   15.835795 0.581398 0.242756 0.161679 -0.015276 0.063767
 35   -0.815868 -0.091229 -3.114430 0.089348 2.997157 -0.074723
 36   14.294526 -0.410349 -0.467541 0.000069 0.000048 -0.489585
 37   15.834409 0.579420 -0.284600 -0.088625 0.041352 0.325140
 38   1.139685 -3.453749 -2.823813 0.000000 0.000000 0.000001
 39   -4.457742 -1.054854 -0.746180 0.000000 0.000000 0.000000
 40   1.118101 -3.449769 3.237290 0.000000 0.000001 0.000000
 41   -4.433840 -1.059130 0.959566 -0.000001 0.000000 0.000000
 42   -0.657468 1.697302 -2.688614 0.000000 0.000002 0.000000
 43   -0.664068 1.698578 2.869377 0.000000 0.000002 0.000000
time 25
  0   0.001233 0.187506 0.562888 0.000000 0.000000 -1.571354
  1   -1.093036 0.000002 -0.326057 -1.570808 -1.570425 0.000022
  2   2.262337 0.113614 0.064702 -0.000052 0.000049 -0.260865
  3   2.380047 0.353302 0.047440 -0.261678 -0.001922 -0.008489
  4   2.033756 0.190472 -0.000128 -0.000010 0.000024 -0.020867
  5   2.451511 0.204909 -0.003447 0.000000 -0.000005 -0.017472
  6   7.247600 -0.397300 -0.109469 0.000001 0.000009 -0.209377
  7   -2.022252 -0.104661 3.136172 0.832341 -1.238107 -3.737041
  8   1.168026 -0.537438 -0.063437 -0.429820 1.021950 -1.018049
  9   6.790376 -0.619176 0.015206 -0.000158 -0.000285 -2.133240
 10   8.637599 0.544015 -0.090417 -1.068495 -0.402905 -0.134898
 11   6.790465 -0.619039 0.017802 0.005381 -0.011935 -1.508573
 12   -2.022474 -0.104699 -2.873818 -1.108820 1.089845 -3.991900
 13   1.167898 -0.537463 0.063297 -0.280693 -1.010831 0.425408
 14   7.002743 -0.617765 -0.183752 0.000229 0.000250 -2.415017
 15   8.209042 0.615527 -0.255885 1.510483 0.765006 -0.200505
 16   7.002735 -0.617911 -0.183641 0.011943 0.013965 -1.709200
 17   1.574674 0.609930 -0.000899 0.260992 0.017900 0.187902
 18   -0.602177 0.511412 -0.000006 0.000000 0.000000 0.000000
 19   3.673773 0.177020 1.119313 -0.000002 -0.000014 -0.174510
 20   3.673767 0.176993 -1.117566 0.000007 -0.000003 -0.174546
 21   3.942357 1.334540 1.627658 0.000002 -0.000011 -0.000026
 22   -0.246060 -0.011889 0.516521 -0.000011 0.000031 0.000025
 23   3.942374 1.334565 -1.631083 0.000019 0.000002 -0.000024
 24   -0.246150 -0.011872 -0.516511 -0.000005 -0.000006 0.000048
 25   4.941364 1.997338 1.629330 0.000018 -0.000001 -0.000024
 26   4.941382 1.997366 -1.629410 -0.000001 0.000005 -0.000024
 27   2.914462 1.619264 1.514501 -0.000019 -0.000022 -0.000050
 28   2.916892 1.618870 -1.501142 -0.000002 -0.000009 -0.000024
 29   8.824059 0.150544 0.091743 0.000006 -0.000231 -0.174534
 30   2.111085 -0.561179 1.784320 -0.000008 -0.000682 0.000024
 31   2.121290 -0.561289 -1.853599 0.000000 0.000000 -0.000002
 32   -0.814395 -0.093824 3.127092 -0.122592 -2.969984 -0.361171
 33   14.298673 -0.408176 0.471578 -0.000076 -0.000041 -0.509051
 34   15.835795 0.581398 0.242756 0.161679 -0.015105 0.058122
 35   -0.815868 -0.091229 -3.114430 0.090404 2.998000 -0.068478
 36   14.294526 -0.410349 -0.467541 0.000069 0.000048 -0.477303
 37   15.834409 0.579420 -0.284600 -0.088625 0.041173 0.318650
 38   1.139685 -3.453749 -2.823813 0.000000 0.000000 0.000001
 39   -4.457742 -1.054854 -0.746180 0.000000 0.000000 0.000000
 40   1.118101 -3.449769 3.237290 0.000000 0.000001 0.000000
 41   -4.433840 -1.059130 0.959566 -0.000001 0.000000 0.000000
 42   -0.657468 1.697302 -2.688614 0.000000 0.000002 0.000000
 43   -0.664068 1.698578 2.869377 0.000000 0.000002 0.000000
time 26
  0   0.001233 0.187506 0.637109 0.000000 0.000000 -1.571354
  1   -1.093036 0.000002 -0.326057 -1.570808 -1.570425 0.000022
  2   2.262337 0.113614 0.064702 -0.000052 0.000049 -0.260865
  3   2.380047 0.353302 0.047440 -0.261678 -0.001922 -0.008489
  4   2.033756 0.190472 -0.000128 -0.000010 0.000024 -0.024093
  5   2.451511 0.204909 -0.003447 0.000000 -0.000005 -0.017472
  6   7.247600 -0.397300 -0.109469 0.000001 0.000009 -0.209377
  7   -2.022252 -0.104661 3.136172 0.845665 -1.242258 -3.751222
  8   1.168026 -0.537438 -0.063437 -0.438109 1.028189 -1.024629
  9   6.790376 -0.619176 0.015206 -0.000158 -0.000285 -2.133240
 10   8.637599 0.544015 -0.090417 -1.068495 -0.402905 -0.134898
 11   6.790465 -0.619039 0.017802 0.005381 -0.011935 -1.508573
 12   -2.022474 -0.104699 -2.873818 -1.119550 1.092545 -4.003772
 13   1.167898 -0.537463 0.063297 -0.291518 -1.016476 0.434912
 14   7.002743 -0.617765 -0.183752 0.000229 0.000250 -2.415017
 15   8.209042 0.615527 -0.255885 1.510483 0.765006 -0.200505
 16   7.002735 -0.617911 -0.183641 0.011943 0.013965 -1.709200
 17   1.574674 0.609930 -0.000899 0.260992 0.017900 0.190896
 18   -0.602177 0.511412 -0.000006 0.000000 0.000000 0.000000
 19   3.673773 0.177020 1.119313 -0.000002 -0.000014 -0.174510
 20   3.673767 0.176993 -1.117566 0.000007 -0.000003 -0.174546
 21   3.942357 1.334540 1.627658 0.000002 -0.000011 -0.000026
 22   -0.246060 -0.011889 0.516521 -0.000011 0.000031 0.000025
 23   3.942374 1.334565 -1.631083 0.000019 0.000002 -0.000024
 24   -0.246150 -0.011872 -0.516511 -0.000005 -0.000006 0.000048
 25   4.941364 1.997338 1.629330 0.000018 -0.000001 -0.000024
 26   4.941382 1.997366 -1.629410 -0.000001 0.000005 -0.000024
 27   2.914462 1.619264 1.514501 -0.000019 -0.000022 -0.000050
 28   2.916892 1.618870 -1.501142 -0.000002 -0.000009 -0.000024
 29   8.824059 0.150544 0.091743 0.000006 -0.000231 -0.174534
 30   2.111085 -0.561179 1.784320 -0.000008 -0.000682 0.000024
 31   2.121290 -0.561289 -1.853599 0.000000 0.000000 -0.000002
 32   -0.814395 -0.093824 3.127092 -0.124083 -2.970939 -0.354284
 33   14.298673 -0.408176 0.471578 -0.000076 -0.000041 -0.495712
 34   15.835795 0.581398 0.242756 0.161748 -0.014910 0.051683
 35   -0.815868 -0.091229 -3.114430 0.091636 2.998749 -0.061686
 36   14.294526 -0.410349 -0.467541 0.000069 0.000048 -0.463013
 37   15.834409 0.579420 -0.284600 -0.088625 0.040968 0.311146
 38   1.139685 -3.453749 -2.823813 0.000000 0.000000 0.000001
 39   -4.457742 -1.054854 -0.746180 0.000000 0.000000 0.000000
 40   1.118101 -3.449769 3.237290 0.000000 0.000001 0.000000
 41   -4.433840 -1.059130 0.959566 -0.000001 0.000000 0.000000
 42   -0.657468 1.697302 -2.688614 0.000000 0.000002 0.000000
 43   -0.664068 1.698578 2.869377 0.000000 0.000002 0.000000
time 27
  0   0.001233 0.187506 0.699611 0.000000 0.000000 -1.571354
  1   -1.093036 0.000002 -0.326057 -1.570808 -1.570425 0.000022
  2   2.262337 0.113614 0.064702 -0.000052 0.000049 -0.260865
  3   2.380047 0.353302 0.047440 -0.261678 -0.001922 -0.008489
  4   2.033756 0.190472 -0.000128 -0.000010 0.000024 -0.027174
  5   2.451511 0.204909 -0.003447 0.000000 -0.000005 -0.017472
  6   7.247600 -0.397300 -0.109469 0.000001 0.000009 -0.209377
  7   -2.022252 -0.104661 3.136172 0.859469 -1.246179 -3.765497
  8   1.168026 -0.537438 -0.063437 -0.446462 1.034277 -1.031208
  9   6.790376 -0.619176 0.015206 -0.000158 -0.000285 -2.133240
 10   8.637599 0.544015 -0.090417 -1.068495 -0.402905 -0.134898
 11   6.790465 -0.619039 0.017802 0.005381 -0.011935 -1.508573
 12   -2.022474 -0.104699 -2.873818 -1.130185 1.095012 -4.015836
 13   1.167898 -0.537463 0.063297 -0.301922 -1.022070 0.444658
 14   7.002743 -0.617765 -0.183752 0.000229 0.000250 -2.415017
 15   8.209042 0.615527 -0.255885 1.510483 0.765006 -0.200505
 16   7.002735 -0.617911 -0.183641 0.011943 0.013965 -1.709200
 17   1.574674 0.609930 -0.000899 0.260992 0.017900 0.194037
 18   -0.602177 0.511412 -0.000006 0.000000 0.000000 0.000000
 19   3.673773 0.177020 1.119313 -0.000002 -0.000014 -0.174510
 20   3.673767 0.176993 -1.117566 0.000007 -0.000003 -0.174546
 21   3.942357 1.334540 1.627658 0.000002 -0.000011 -0.000026
 22   -0.246060 -0.011889 0.516521 -0.000011 0.000031 0.000025
 23   3.942374 1.334565 -1.631083 0.000019 0.000002 -0.000024
 24   -0.246150 -0.011872 -0.516511 -0.000005 -0.000006 0.000048
 25   4.941364 1.997338 1.629330 0.000018 -0.000001 -0.000024
 26   4.941382 1.997366 -1.629410 -0.000001 0.000005 -0.000024
 27   2.914462 1.619264 1.514501 -0.000019 -0.000022 -0.000050
 28   2.916892 1.618870 -1.501142 -0.000002 -0.000009 -0.000024
 29   8.824059 0.150544 0.091743 0.000006 -0.000231 -0.174534
 30   2.111085 -0.561179 1.784320 -0.000008 -0.000682 0.000024
 31   2.121290 -0.561289 -1.853599 0.000000 0.000000 -0.000002
 32   -0.814395 -0.093824 3.127092 -0.125481 -2.972085 -0.346998
 33   14.298673 -0.408176 0.471578 -0.000076 -0.000041 -0.481023
 34   15.835795 0.581398 0.242756 0.161863 -0.014666 0.044495
 35   -0.815868 -0.091229 -3.114430 0.092428 2.999593 -0.054126
 36   14.294526 -0.410349 -0.467541 0.000069 0.000048 -0.447255
 37   15.834409 0.579420 -0.284600 -0.088684 0.040712 0.303034
 38   1.139685 -3.453749 -2.823813 0.000000 0.000000 0.000001
 39   -4.457742 -1.054854 -0.746180 0.000000 0.000000 0.000000
 40   1.118101 -3.449769 3.237290 0.000000 0.000001 0.000000
 41   -4.433840 -1.059130 0.959566 -0.000001 0.000000 0.000000
 42   -0.657468 1.697302 -2.688614 0.000000 0.000002 0.000000
 43   -0.664068 1.698578 2.869377 0.000000 0.000002 0.000000
time 28
  0   0.001233 0.187506 0.766019 0.000000 0.000000 -1.571354
  1   -1.093036 0.000002 -0.326057 -1.570808 -1.570425 0.000071
  2   2.262337 0.113614 0.064702 -0.000052 0.000049 -0.260865
  3   2.380047 0.353302 0.047440 -0.261678 -0.001922 -0.008489
  4   2.033756 0.190472 -0.000128 -0.000010 0.000024 -0.029965
  5   2.451511 0.204909 -0.003447 0.000000 -0.000005 -0.017472
  6   7.247600 -0.397300 -0.109469 0.000001 0.000009 -0.209377
  7   -2.022252 -0.104661 3.136172 0.872505 -1.250041 -3.779022
  8   1.168026 -0.537438 -0.063437 -0.455005 1.039711 -1.037724
  9   6.790376 -0.619176 0.015206 -0.000158 -0.000285 -2.133240
 10   8.637599 0.544015 -0.090417 -1.068495 -0.402905 -0.134898
 11   6.790465 -0.619039 0.017802 0.005381 -0.011935 -1.508573
 12   -2.022474 -0.104699 -2.873818 -1.140341 1.097421 -4.026750
 13   1.167898 -0.537463 0.063297 -0.312537 -1.027054 0.453920
 14   7.002743 -0.617765 -0.183752 0.000229 0.000250 -2.415017
 15   8.209042 0.615527 -0.255885 1.510483 0.765006 -0.200505
 16   7.002735 -0.617911 -0.183641 0.011943 0.013965 -1.709200
 17   1.574674 0.609930 -0.000899 0.260992 0.017900 0.196994
 18   -0.602177 0.511412 -0.000006 0.000000 0.000000 0.000000
 19   3.673773 0.177020 1.119313 -0.000002 -0.000014 -0.174510
 20   3.673767 0.176993 -1.117566 0.000007 -0.000003 -0.174546
 21   3.942357 1.334540 1.627658 0.000002 -0.000011 -0.000026
 22   -0.246060 -0.011889 0.516521 -0.000011 0.000031 0.000025
 23   3.942374 1.334565 -1.631083 0.000019 0.000002 -0.000024
 24   -0.246150 -0.011872 -0.516511 -0.000005 -0.000006 0.000048
 25   4.941364 1.997338 1.629330 0.000018 -0.000001 -0.000024
 26   4.941382 1.997366 -1.629410 -0.000001 0.000005 -0.000024
 27   2.914462 1.619264 1.514501 -0.000019 -0.000022 -0.000050
 28   2.916892 1.618870 -1.501142 -0.000002 -0.000009 -0.000024
 29   8.824059 0.150544 0.091743 0.000006 -0.000231 -0.174534
 30   2.111085 -0.561179 1.784320 -0.000008 -0.000682 0.000024
 31   2.121290 -0.561289 -1.853599 0.000000 0.000000 -0.000002
 32   -0.814395 -0.093824 3.127092 -0.127066 -2.972945 -0.339484
 33   14.298673 -0.408176 0.471578 -0.000076 -0.000041 -0.466017
 34   15.835795 0.581398 0.242756 0.161978 -0.014422 0.037174
 35   -0.815868 -0.091229 -3.114430 0.093836 3.000904 -0.046348
 36   14.294526 -0.410349 -0.467541 0.000069 0.000048 -0.431343
 37   15.834409 0.579420 -0.284600 -0.088684 0.040456 0.294617
 38   1.139685 -3.453749 -2.823813 0.000000 0.000000 0.000001
 39   -4.457742 -1.054854 -0.746180 0.000000 0.000000 0.000000
 40   1.118101 -3.449769 3.237290 0.000000 0.000001 0.000000
 41   -4.433840 -1.059130 0.959566 -0.000001 0.000000 0.000000
 42   -0.657468 1.697302 -2.688614 0.000000 0.000002 0.000000
 43   -0.664068 1.698578 2.869377 0.000000 0.000002 0.000000
time 29
  0   0.001233 0.187506 0.824615 0.000000 0.000000 -1.571354
  1   -1.093036 0.000002 -0.326057 -1.570808 -1.570425 0.000071
  2   2.262337 0.113614 0.064702 -0.000052 0.000049 -0.260865
  3   2.380047 0.353302 0.047440 -0.261678 -0.001922 -0.008489
  4   2.033756 0.190472 -0.000128 -0.000010 0.000024 -0.032611
  5   2.451511 0.204909 -0.003447 0.000000 -0.000005 -0.017472
  6   7.247600 -0.397300 -0.109469 0.000001 0.000009 -0.209377
  7   -2.022252 -0.104661 3.136172 0.885063 -1.253529 -3.792076
  8   1.168026 -0.537438 -0.063437 -0.462725 1.045044 -1.043860
  9   6.790376 -0.619176 0.015206 -0.000158 -0.000285 -2.133240
 10   8.637599 0.544015 -0.090417 -1.068495 -0.402905 -0.134898
 11   6.790465 -0.619039 0.017802 0.005381 -0.011935 -1.508573
 12   -2.022474 -0.104699 -2.873818 -1.150305 1.099830 -4.038048
 13   1.167898 -0.537463 0.063297 -0.322167 -1.031987 0.463061
 14   7.002743 -0.617765 -0.183752 0.000229 0.000250 -2.415017
 15   8.209042 0.615527 -0.255885 1.510483 0.765006 -0.200505
 16   7.002735 -0.617911 -0.183641 0.011990 0.013965 -1.709200
 17   1.574674 0.609930 -0.000899 0.260992 0.017900 0.199693
 18   -0.602177 0.511412 -0.000006 0.000000 0.000000 0.000000
 19   3.673773 0.177020 1.119313 -0.000002 -0.000014 -0.174510
 20   3.673767 0.176993 -1.117566 0.000007 -0.000003 -0.174546
 21   3.942357 1.334540 1.627658 0.000002 -0.000011 -0.000026
 22   -0.246060 -0.011889 0.516521 -0.000011 0.000031 0.000025
 23   3.942374 1.334565 -1.631083 0.000019 0.000002 -0.000024
 24   -0.246150 -0.011872 -0.516511 -0.000005 -0.000006 0.000048
 25   4.941364 1.997338 1.629330 0.000018 -0.000001 -0.000024
 26   4.941382 1.997366 -1.629410 -0.000001 0.000005 -0.000024
 27   2.914462 1.619264 1.514501 -0.000019 -0.000022 -0.000050
 28   2.916892 1.618870 -1.501142 -0.000002 -0.000009 -0.000024
 29   8.824059 0.150544 0.091743 0.000006 -0.000231 -0.174534
 30   2.111085 -0.561179 1.784320 -0.000008 -0.000682 0.000024
 31   2.121290 -0.561289 -1.853599 0.000000 0.000000 -0.000002
 32   -0.814395 -0.093824 3.127092 -0.128184 -2.974187 -0.331572
 33   14.298673 -0.408176 0.471578 -0.000076 -0.000041 -0.450852
 34   15.835795 0.581398 0.242756 0.162047 -0.014178 0.029588
 35   -0.815868 -0.091229 -3.114430 0.095245 3.001748 -0.038679
 36   14.294526 -0.410349 -0.467541 0.000069 0.000048 -0.414890
 37   15.834409 0.579420 -0.284600 -0.088684 0.040226 0.286099
 38   1.139685 -3.453749 -2.823813 0.000000 0.000000 0.000001
 39   -4.457742 -1.054854 -0.746180 0.000000 0.000000 0.000000
 40   1.118101 -3.449769 3.237290 0.000000 0.000001 0.000000
 41   -4.433840 -1.059130 0.959566 -0.000001 0.000000 0.000000
 42   -0.657468 1.697302 -2.688614 0.000000 0.000002 0.000000
 43   -0.664068 1.698578 2.869377 0.000000 0.000002 0.000000
time 30
  0   0.001233 0.187506 0.867585 0.000000 0.000000 -1.571354
  1   -1.093036 0.000002 -0.326057 -1.570808 -1.570425 0.000071
  2   2.262337 0.113614 0.064702 -0.000052 0.000049 -0.260865
  3   2.380047 0.353302 0.047440 -0.261678 -0.001922 -0.008489
  4   2.033756 0.190472 -0.000128 -0.000010 0.000024 -0.035003
  5   2.451511 0.204909 -0.003447 0.000000 -0.000005 -0.017472
  6   7.247600 -0.397300 -0.109469 0.000001 0.000009 -0.209377
  7   -2.022252 -0.104661 3.136172 0.897141 -1.256499 -3.804848
  8   1.168026 -0.537438 -0.063437 -0.469939 1.049673 -1.049616
  9   6.790376 -0.619176 0.015206 -0.000158 -0.000285 -2.133240
 10   8.637599 0.544015 -0.090417 -1.068495 -0.402905 -0.134898
 11   6.790465 -0.619039 0.017802 0.005381 -0.011935 -1.508573
 12   -2.022474 -0.104699 -2.873818 -1.158927 1.101687 -4.048100
 13   1.167898 -0.537463 0.063297 -0.331306 -1.036259 0.471233
 14   7.002743 -0.617765 -0.183752 0.000229 0.000250 -2.415017
 15   8.209042 0.615527 -0.255885 1.510483 0.765006 -0.200505
 16   7.002735 -0.617911 -0.183641 0.011990 0.013965 -1.709200
 17   1.574674 0.609930 -0.000899 0.260992 0.017900 0.201984
 18   -0.602177 0.511412 -0.000006 0.000000 0.000000 0.000000
 19   3.673773 0.177020 1.119313 -0.000002 -0.000014 -0.174510
 20   3.673767 0.176993 -1.117566 0.000007 -0.000003 -0.174546
 21   3.942357 1.334540 1.627658 0.000002 -0.000011 -0.000026
 22   -0.246060 -0.011889 0.516521 -0.000011 0.000031 0.000025
 23   3.942374 1.334565 -1.631083 0.000019 0.000002 -0.000024
 24   -0.246150 -0.011872 -0.516511 -0.000005 -0.000006 0.000048
 25   4.941364 1.997338 1.629330 0.000018 -0.000001 -0.000024
 26   4.941382 1.997366 -1.629410 -0.000001 0.000005 -0.000024
 27   2.914462 1.619264 1.514501 -0.000019 -0.000022 -0.000050
 28   2.916892 1.618870 -1.501142 -0.000002 -0.000009 -0.000024
 29   8.824059 0.150544 0.091743 0.000006 -0.000231 -0.174534
 30   2.111085 -0.561179 1.784320 -0.000008 -0.000682 0.000024
 31   2.121290 -0.561289 -1.853599 0.000000 0.000000 -0.000002
 32   -0.814395 -0.093824 3.127092 -0.129583 -2.975428 -0.324172
 33   14.298673 -0.408176 0.471578 -0.000076 -0.000041 -0.436322
 34   15.835795 0.581398 0.242756 0.162139 -0.013958 0.022620
 35   -0.815868 -0.091229 -3.114430 0.096037 3.002497 -0.031284
 36   14.294526 -0.410349 -0.467541 0.000069 0.000048 -0.399441
 37   15.834409 0.579420 -0.284600 -0.088763 0.039970 0.278088
 38   1.139685 -3.453749 -2.823813 0.000000 0.000000 0.000001
 39   -4.457742 -1.054854 -0.746180 0.000000 0.000000 0.000000
 40   1.118101 -3.449769 3.237290 0.000000 0.000001 0.000000
 41   -4.433840 -1.059130 0.959566 -0.000001 0.000000 0.000000
 42   -0.657468 1.697302 -2.688614 0.000000 0.000002 0.000000
 43   -0.664068 1.698578 2.869377 0.000000 0.000002 0.000000
end
