version 1
nodes
  0 "Bip01" -1
  1 "Bip01 Pelvis" 0
  2 "Bip01 Spine" 1
  3 "Bip01 Spine1" 2
  4 "Bip01 Spine2" 3
  5 "Bip01 Spine3" 4
  6 "Bip01 Neck" 5
  7 "Bip01 L Arm" 6
  8 "Bip01 L Arm1" 7
  9 "Bip01 L Arm2" 8
 10 "Bip01 L Hand" 9
 11 "Bip06 L elbow2-smooth" 8
 12 "Bip01 R Arm" 6
 13 "Bip01 R Arm1" 12
 14 "Bip01 R Arm2" 13
 15 "Bip01 R Hand" 14
 16 "Bip06 R elbow2-smooth" 13
 17 "Bip01 Head" 6
 18 "Bip06 Head_helper" 17
 19 "Bip06 Head_eyes_l" 18
 20 "Bip06 Head_eyes_r" 18
 21 "Bip06 Head_blink_l" 18
 22 "Bip06 Head_blink_smooth_l1" 21
 23 "Bip06 Head_blink_r" 18
 24 "Bip06 Head_blink_smooth_r1" 23
 25 "Bip06 Head_L_eyebrow" 18
 26 "Bip06 Head_R_eyebrow" 18
 27 "Bip06 Head_blink_l_lid" 18
 28 "Bip06 Head_blink_r_lid" 18
 29 "Bip06 bunny" 18
 30 "Bip06 bunnyL" 29
 31 "Bip06 bunnyR" 29
 32 "Bip01 L Leg" 1
 33 "Bip01 L Leg1" 32
 34 "Bip01 L Foot" 33
 35 "Bip01 R Leg" 1
 36 "Bip01 R Leg1" 35
 37 "Bip01 R Foot" 36
 38 "Bip03 HairR1" 17
 39 "Bip03 HairR2" 38
 40 "Bip03 HairL1" 17
 41 "Bip03 HairL2" 40
 42 "Bip03 swingR" 17
 43 "Bip03 swingL" 17
end
skeleton
time 0
  0   0.009046 4.281381 1.527761 0.000000 0.000000 -1.571449
  1   -1.093036 0.000002 -0.326057 -1.570808 -1.570749 0.000022
  2   2.262337 0.113614 0.064702 0.000190 0.025240 0.010324
  3   2.380047 0.353302 0.047440 -0.073550 -0.036126 -0.007836
  4   2.033756 0.190472 -0.000128 -0.145909 -0.046236 -0.193149
  5   2.451511 0.204909 -0.003447 -0.171956 -0.069656 -0.070148
  6   7.247600 -0.397300 -0.109469 0.000061 0.095934 0.470865
  7   -2.022252 -0.104661 3.136172 1.299073 -1.381119 -4.925271
  8   1.168026 -0.537438 -0.063437 -1.451989 0.809523 -1.358011
  9   6.790376 -0.619176 0.015206 0.005945 0.002385 -1.321889
 10   8.637599 0.544015 -0.090417 -3.048809 0.301844 -0.161304
 11   6.790465 -0.619039 0.017802 0.006432 -0.010742 -0.940648
 12   -2.022474 -0.104699 -2.873818 -2.709564 1.886349 -0.072069
 13   1.167898 -0.537463 0.063297 -0.530244 -1.058787 -0.327887
 14   7.002743 -0.617765 -0.183752 0.000059 0.000137 -2.015030
 15   8.209042 0.615527 -0.255885 1.716269 0.502240 0.011780
 16   7.002735 -0.617911 -0.183641 0.012743 0.011258 -1.429152
 17   1.574674 0.609930 -0.000899 0.359174 0.202667 -0.430826
 18   -0.602177 0.511412 -0.000006 0.000000 0.000000 0.000000
 19   3.673773 0.177020 1.119313 -0.000002 -0.000014 -0.174510
 20   3.673767 0.176993 -1.117566 0.000007 -0.000003 -0.174546
 21   3.942357 1.334540 1.627658 0.000002 -0.000011 -0.000026
 22   -0.246060 -0.011889 0.516521 -0.000011 0.000031 0.000025
 23   3.942374 1.334565 -1.631083 0.000019 0.000002 -0.000024
 24   -0.246150 -0.011872 -0.516511 -0.000005 -0.000006 0.000048
 25   4.941364 1.997338 1.629330 0.000018 -0.000001 -0.000024
 26   4.941382 1.997366 -1.629410 -0.000001 0.000005 -0.000024
 27   2.914462 1.619264 1.514501 -0.000019 -0.000022 -0.000050
 28   2.916892 1.618870 -1.501142 -0.000002 -0.000009 -0.000024
 29   8.824059 0.150544 0.091743 0.000006 -0.000231 -0.174534
 30   2.111085 -0.561179 1.784320 -0.000008 -0.000682 0.000024
 31   2.121290 -0.561289 -1.853599 0.000000 0.000000 -0.000002
 32   -0.814395 -0.093824 3.127092 0.262921 -3.097582 -0.334816
 33   14.298673 -0.408176 0.471578 0.003687 -0.003117 -0.522469
 34   15.835795 0.581398 0.242756 -0.001271 0.032067 0.122292
 35   -0.815868 -0.091229 -3.114430 -0.132889 3.034913 -0.011455
 36   14.294526 -0.410349 -0.467541 -0.002676 0.001857 -0.384764
 37   15.834409 0.579420 -0.284600 -0.034128 0.026558 0.304555
 38   1.139685 -3.453749 -2.823813 0.000000 0.000000 0.000001
 39   -4.457742 -1.054854 -0.746180 0.000000 0.000000 0.000000
 40   1.118101 -3.449769 3.237290 0.000000 0.000001 0.000000
 41   -4.433840 -1.059130 0.959566 -0.000001 0.000000 0.000000
 42   -0.657468 1.697302 -2.688614 0.000000 0.000002 0.000000
 43   -0.664068 1.698578 2.869377 0.000000 0.000002 0.000000
time 1
  0   0.009046 4.281381 1.527761 0.000000 0.000000 -1.571449
  1   -1.093036 0.000002 -0.326057 -1.570808 -1.570749 0.000022
  2   2.262337 0.113614 0.064702 0.000190 0.025240 0.010324
  3   2.380047 0.353302 0.047440 -0.090036 -0.037612 -0.006530
  4   2.033756 0.190472 -0.000128 -0.162028 -0.049772 -0.190213
  5   2.451511 0.204909 -0.003447 -0.250129 -0.074474 -0.064155
  6   7.247600 -0.397300 -0.109469 0.000061 0.095934 0.470865
  7   -2.022252 -0.104661 3.136172 1.299073 -1.381119 -4.925271
  8   1.168026 -0.537438 -0.063437 -1.251263 1.190855 -1.231427
  9   6.790376 -0.619176 0.015206 0.004946 0.003720 -1.853029
 10   8.637599 0.544015 -0.090417 -2.951321 0.102710 0.187902
 11   6.790465 -0.619039 0.017802 0.008534 -0.010088 -1.312421
 12   -2.022474 -0.104699 -2.873818 -2.522357 1.918769 0.098734
 13   1.167898 -0.537463 0.063297 -1.075181 -0.861675 0.061776
 14   7.002743 -0.617765 -0.183752 0.000059 0.000137 -2.256936
 15   8.209042 0.615527 -0.255885 1.697287 0.493918 -0.038314
 16   7.002735 -0.617911 -0.183641 0.012272 0.012837 -1.598484
 17   1.574674 0.609930 -0.000899 0.403045 0.215022 -0.405766
 18   -0.602177 0.511412 -0.000006 0.000000 0.000000 0.000000
 19   3.673773 0.177020 1.119313 -0.000002 -0.000014 -0.174510
 20   3.673767 0.176993 -1.117566 0.000007 -0.000003 -0.174546
 21   3.942357 1.334540 1.627658 0.000002 -0.000011 -0.000026
 22   -0.246060 -0.011889 0.516521 -0.000011 0.000031 0.000025
 23   3.942374 1.334565 -1.631083 0.000019 0.000002 -0.000024
 24   -0.246150 -0.011872 -0.516511 -0.000005 -0.000006 0.000048
 25   4.941364 1.997338 1.629330 0.000018 -0.000001 -0.000024
 26   4.941382 1.997366 -1.629410 -0.000001 0.000005 -0.000024
 27   2.914462 1.619264 1.514501 -0.000019 -0.000022 -0.000050
 28   2.916892 1.618870 -1.501142 -0.000002 -0.000009 -0.000024
 29   8.824059 0.150544 0.091743 0.000006 -0.000231 -0.174534
 30   2.111085 -0.561179 1.784320 -0.000008 -0.000682 0.000024
 31   2.121290 -0.561289 -1.853599 0.000000 0.000000 -0.000002
 32   -0.814395 -0.093824 3.127092 0.262921 -3.097582 -0.334816
 33   14.298673 -0.408176 0.471578 0.003687 -0.003117 -0.522469
 34   15.835795 0.581398 0.242756 -0.001271 0.032067 0.122292
 35   -0.815868 -0.091229 -3.114430 -0.132889 3.034913 -0.011455
 36   14.294526 -0.410349 -0.467541 -0.002676 0.001857 -0.384764
 37   15.834409 0.579420 -0.284600 -0.034128 0.026558 0.304555
 38   1.139685 -3.453749 -2.823813 0.000000 0.000000 0.000001
 39   -4.457742 -1.054854 -0.746180 0.000000 0.000000 0.000000
 40   1.118101 -3.449769 3.237290 0.000000 0.000001 0.000000
 41   -4.433840 -1.059130 0.959566 -0.000001 0.000000 0.000000
 42   -0.657468 1.697302 -2.688614 0.000000 0.000002 0.000000
 43   -0.664068 1.698578 2.869377 0.000000 0.000002 0.000000
time 2
  0   0.009046 4.281381 1.527761 0.000000 0.000000 -1.571449
  1   -1.093036 0.000002 -0.326057 -1.570808 -1.570749 0.000022
  2   2.262337 0.113614 0.064702 0.000190 0.025240 0.010324
  3   2.380047 0.353302 0.047440 -0.100087 -0.038475 -0.005754
  4   2.033756 0.190472 -0.000128 -0.171618 -0.051785 -0.188328
  5   2.451511 0.204909 -0.003447 -0.297063 -0.077255 -0.060341
  6   7.247600 -0.397300 -0.109469 0.000061 0.095934 0.470865
  7   -2.022252 -0.104661 3.136172 1.299073 -1.381119 -4.925271
  8   1.168026 -0.537438 -0.063437 -1.165202 1.190855 -1.084093
  9   6.790376 -0.619176 0.015206 0.004724 0.003853 -1.937176
 10   8.637599 0.544015 -0.090417 -2.942427 0.118618 0.244114
 11   6.790465 -0.619039 0.017802 0.008884 -0.009974 -1.371364
 12   -2.022474 -0.104699 -2.873818 -2.527531 1.917637 0.093947
 13   1.167898 -0.537463 0.063297 -1.030684 -0.920565 -0.041981
 14   7.002743 -0.617765 -0.183752 0.000059 0.000137 -2.213868
 15   8.209042 0.615527 -0.255885 1.693116 0.495053 -0.046974
 16   7.002735 -0.617911 -0.183641 0.012366 0.012555 -1.568404
 17   1.574674 0.609930 -0.000899 0.475311 0.220986 -0.389762
 18   -0.602177 0.511412 -0.000006 0.000000 0.000000 0.000000
 19   3.673773 0.177020 1.119313 -0.000002 -0.000014 -0.174510
 20   3.673767 0.176993 -1.117566 0.000007 -0.000003 -0.174546
 21   3.942357 1.334540 1.627658 0.000002 -0.000011 -0.000026
 22   -0.246060 -0.011889 0.516521 -0.000011 0.000031 0.000025
 23   3.942374 1.334565 -1.631083 0.000019 0.000002 -0.000024
 24   -0.246150 -0.011872 -0.516511 -0.000005 -0.000006 0.000048
 25   4.941364 1.997338 1.629330 0.000018 -0.000001 -0.000024
 26   4.941382 1.997366 -1.629410 -0.000001 0.000005 -0.000024
 27   2.914462 1.619264 1.514501 -0.000019 -0.000022 -0.000050
 28   2.916892 1.618870 -1.501142 -0.000002 -0.000009 -0.000024
 29   8.824059 0.150544 0.091743 0.000006 -0.000231 -0.174534
 30   2.111085 -0.561179 1.784320 -0.000008 -0.000682 0.000024
 31   2.121290 -0.561289 -1.853599 0.000000 0.000000 -0.000002
 32   -0.814395 -0.093824 3.127092 0.262921 -3.097582 -0.334816
 33   14.298673 -0.408176 0.471578 0.003687 -0.003117 -0.522469
 34   15.835795 0.581398 0.242756 -0.001271 0.032067 0.122292
 35   -0.815868 -0.091229 -3.114430 -0.132889 3.034913 -0.011455
 36   14.294526 -0.410349 -0.467541 -0.002676 0.001857 -0.384764
 37   15.834409 0.579420 -0.284600 -0.034128 0.026558 0.304555
 38   1.139685 -3.453749 -2.823813 0.000000 0.000000 0.000001
 39   -4.457742 -1.054854 -0.746180 0.000000 0.000000 0.000000
 40   1.118101 -3.449769 3.237290 0.000000 0.000001 0.000000
 41   -4.433840 -1.059130 0.959566 -0.000001 0.000000 0.000000
 42   -0.657468 1.697302 -2.688614 0.000000 0.000002 0.000000
 43   -0.664068 1.698578 2.869377 0.000000 0.000002 0.000000
time 3
  0   0.009046 4.281381 1.527761 0.000000 0.000000 -1.571449
  1   -1.093036 0.000002 -0.326057 -1.570808 -1.570749 0.000022
  2   2.262337 0.113614 0.064702 0.000190 0.025240 0.010324
  3   2.380047 0.353302 0.047440 -0.097117 -0.038235 -0.005959
  4   2.033756 0.190472 -0.000128 -0.168778 -0.051198 -0.188908
  5   2.451511 0.204909 -0.003447 -0.283438 -0.076485 -0.061406
  6   7.247600 -0.397300 -0.109469 0.000061 0.095934 0.470865
  7   -2.022252 -0.104661 3.136172 1.299073 -1.381119 -4.925271
  8   1.168026 -0.537438 -0.063437 -1.266894 1.061799 -1.143685
  9   6.790376 -0.619176 0.015206 0.005113 0.003586 -1.809560
 10   8.637599 0.544015 -0.090417 -2.969991 0.202875 0.157879
 11   6.790465 -0.619039 0.017802 0.008359 -0.010173 -1.281968
 12   -2.022474 -0.104699 -2.873818 -2.567004 1.909539 0.058331
 13   1.167898 -0.537463 0.063297 -0.824505 -1.011391 -0.208149
 14   7.002743 -0.617765 -0.183752 0.000059 0.000137 -2.118492
 15   8.209042 0.615527 -0.255885 1.691678 0.498457 -0.047275
 16   7.002735 -0.617911 -0.183641 0.012555 0.011879 -1.501620
 17   1.574674 0.609930 -0.000899 0.468365 0.219424 -0.394530
 18   -0.602177 0.511412 -0.000006 0.000000 0.000000 0.000000
 19   3.673773 0.177020 1.119313 -0.000002 -0.000014 -0.174510
 20   3.673767 0.176993 -1.117566 0.000007 -0.000003 -0.174546
 21   3.942357 1.334540 1.627658 0.000002 -0.000011 -0.000026
 22   -0.246060 -0.011889 0.516521 -0.000011 0.000031 0.000025
 23   3.942374 1.334565 -1.631083 0.000019 0.000002 -0.000024
 24   -0.246150 -0.011872 -0.516511 -0.000005 -0.000006 0.000048
 25   4.941364 1.997338 1.629330 0.000018 -0.000001 -0.000024
 26   4.941382 1.997366 -1.629410 -0.000001 0.000005 -0.000024
 27   2.914462 1.619264 1.514501 -0.000019 -0.000022 -0.000050
 28   2.916892 1.618870 -1.501142 -0.000002 -0.000009 -0.000024
 29   8.824059 0.150544 0.091743 0.000006 -0.000231 -0.174534
 30   2.111085 -0.561179 1.784320 -0.000008 -0.000682 0.000024
 31   2.121290 -0.561289 -1.853599 0.000000 0.000000 -0.000002
 32   -0.814395 -0.093824 3.127092 0.262921 -3.097582 -0.334816
 33   14.298673 -0.408176 0.471578 0.003687 -0.003117 -0.522469
 34   15.835795 0.581398 0.242756 -0.001271 0.032067 0.122292
 35   -0.815868 -0.091229 -3.114430 -0.132889 3.034913 -0.011455
 36   14.294526 -0.410349 -0.467541 -0.002676 0.001857 -0.384764
 37   15.834409 0.579420 -0.284600 -0.034128 0.026558 0.304555
 38   1.139685 -3.453749 -2.823813 0.000000 0.000000 0.000001
 39   -4.457742 -1.054854 -0.746180 0.000000 0.000000 0.000000
 40   1.118101 -3.449769 3.237290 0.000000 0.000001 0.000000
 41   -4.433840 -1.059130 0.959566 -0.000001 0.000000 0.000000
 42   -0.657468 1.697302 -2.688614 0.000000 0.000002 0.000000
 43   -0.664068 1.698578 2.869377 0.000000 0.000002 0.000000
time 4
  0   0.009046 4.281381 1.527761 0.000000 0.000000 -1.571449
  1   -1.093036 0.000002 -0.326057 -1.570808 -1.570749 0.000022
  2   2.262337 0.113614 0.064702 0.000190 0.025240 0.010324
  3   2.380047 0.353302 0.047440 -0.090036 -0.037612 -0.006530
  4   2.033756 0.190472 -0.000128 -0.162028 -0.049772 -0.190213
  5   2.451511 0.204909 -0.003447 -0.250129 -0.074474 -0.064155
  6   7.247600 -0.397300 -0.109469 0.000061 0.095934 0.470865
  7   -2.022252 -0.104661 3.136172 1.299073 -1.381119 -4.925271
  8   1.168026 -0.537438 -0.063437 -1.367256 0.918202 -1.233578
  9   6.790376 -0.619176 0.015206 0.005501 0.003186 -1.617873
 10   8.637599 0.544015 -0.090417 -2.998172 0.274181 0.031928
 11   6.790465 -0.619039 0.017802 0.007599 -0.010429 -1.147701
 12   -2.022474 -0.104699 -2.873818 -2.612033 1.901151 0.017162
 13   1.167898 -0.537463 0.063297 -0.598994 -1.058787 -0.371048
 14   7.002743 -0.617765 -0.183752 0.000059 0.000137 -2.039122
 15   8.209042 0.615527 -0.255885 1.693476 0.501635 -0.040539
 16   7.002735 -0.617911 -0.183641 0.012696 0.011428 -1.446041
 17   1.574674 0.609930 -0.000899 0.437289 0.215022 -0.405766
 18   -0.602177 0.511412 -0.000006 0.000000 0.000000 0.000000
 19   3.673773 0.177020 1.119313 -0.000002 -0.000014 -0.174510
 20   3.673767 0.176993 -1.117566 0.000007 -0.000003 -0.174546
 21   3.942357 1.334540 1.627658 0.000002 -0.000011 -0.000026
 22   -0.246060 -0.011889 0.516521 -0.000011 0.000031 0.000025
 23   3.942374 1.334565 -1.631083 0.000019 0.000002 -0.000024
 24   -0.246150 -0.011872 -0.516511 -0.000005 -0.000006 0.000048
 25   4.941364 1.997338 1.629330 0.000018 -0.000001 -0.000024
 26   4.941382 1.997366 -1.629410 -0.000001 0.000005 -0.000024
 27   2.914462 1.619264 1.514501 -0.000019 -0.000022 -0.000050
 28   2.916892 1.618870 -1.501142 -0.000002 -0.000009 -0.000024
 29   8.824059 0.150544 0.091743 0.000006 -0.000231 -0.174534
 30   2.111085 -0.561179 1.784320 -0.000008 -0.000682 0.000024
 31   2.121290 -0.561289 -1.853599 0.000000 0.000000 -0.000002
 32   -0.814395 -0.093824 3.127092 0.262921 -3.097582 -0.334816
 33   14.298673 -0.408176 0.471578 0.003687 -0.003117 -0.522469
 34   15.835795 0.581398 0.242756 -0.001271 0.032067 0.122292
 35   -0.815868 -0.091229 -3.114430 -0.132889 3.034913 -0.011455
 36   14.294526 -0.410349 -0.467541 -0.002676 0.001857 -0.384764
 37   15.834409 0.579420 -0.284600 -0.034128 0.026558 0.304555
 38   1.139685 -3.453749 -2.823813 0.000000 0.000000 0.000001
 39   -4.457742 -1.054854 -0.746180 0.000000 0.000000 0.000000
 40   1.118101 -3.449769 3.237290 0.000000 0.000001 0.000000
 41   -4.433840 -1.059130 0.959566 -0.000001 0.000000 0.000000
 42   -0.657468 1.697302 -2.688614 0.000000 0.000002 0.000000
 43   -0.664068 1.698578 2.869377 0.000000 0.000002 0.000000
time 5
  0   0.009046 4.281381 1.527761 0.000000 0.000000 -1.571449
  1   -1.093036 0.000002 -0.326057 -1.570808 -1.570749 0.000022
  2   2.262337 0.113614 0.064702 0.000190 0.025240 0.010324
  3   2.380047 0.353302 0.047440 -0.081425 -0.036833 -0.007224
  4   2.033756 0.190472 -0.000128 -0.153526 -0.047890 -0.191808
  5   2.451511 0.204909 -0.003447 -0.209031 -0.072006 -0.067325
  6   7.247600 -0.397300 -0.109469 0.000061 0.095934 0.470865
  7   -2.022252 -0.104661 3.136172 1.299073 -1.381119 -4.925271
  8   1.168026 -0.537438 -0.063437 -1.420918 0.848114 -1.306707
  9   6.790376 -0.619176 0.015206 0.005779 0.002718 -1.456750
 10   8.637599 0.544015 -0.090417 -3.022830 0.296424 -0.074563
 11   6.790465 -0.619039 0.017802 0.006928 -0.010599 -1.035004
 12   -2.022474 -0.104699 -2.873818 -2.657541 1.893808 -0.024485
 13   1.167898 -0.537463 0.063297 -0.532986 -1.061076 -0.376799
 14   7.002743 -0.617765 -0.183752 0.000059 0.000137 -2.017753
 15   8.209042 0.615527 -0.255885 1.702967 0.502240 -0.018710
 16   7.002735 -0.617911 -0.183641 0.012743 0.011315 -1.431084
 17   1.574674 0.609930 -0.000899 0.396262 0.208844 -0.419109
 18   -0.602177 0.511412 -0.000006 0.000000 0.000000 0.000000
 19   3.673773 0.177020 1.119313 -0.000002 -0.000014 -0.174510
 20   3.673767 0.176993 -1.117566 0.000007 -0.000003 -0.174546
 21   3.942357 1.334540 1.627658 0.000002 -0.000011 -0.000026
 22   -0.246060 -0.011889 0.516521 -0.000011 0.000031 0.000025
 23   3.942374 1.334565 -1.631083 0.000019 0.000002 -0.000024
 24   -0.246150 -0.011872 -0.516511 -0.000005 -0.000006 0.000048
 25   4.941364 1.997338 1.629330 0.000018 -0.000001 -0.000024
 26   4.941382 1.997366 -1.629410 -0.000001 0.000005 -0.000024
 27   2.914462 1.619264 1.514501 -0.000019 -0.000022 -0.000050
 28   2.916892 1.618870 -1.501142 -0.000002 -0.000009 -0.000024
 29   8.824059 0.150544 0.091743 0.000006 -0.000231 -0.174534
 30   2.111085 -0.561179 1.784320 -0.000008 -0.000682 0.000024
 31   2.121290 -0.561289 -1.853599 0.000000 0.000000 -0.000002
 32   -0.814395 -0.093824 3.127092 0.262921 -3.097582 -0.334816
 33   14.298673 -0.408176 0.471578 0.003687 -0.003117 -0.522469
 34   15.835795 0.581398 0.242756 -0.001271 0.032067 0.122292
 35   -0.815868 -0.091229 -3.114430 -0.132889 3.034913 -0.011455
 36   14.294526 -0.410349 -0.467541 -0.002676 0.001857 -0.384764
 37   15.834409 0.579420 -0.284600 -0.034128 0.026558 0.304555
 38   1.139685 -3.453749 -2.823813 0.000000 0.000000 0.000001
 39   -4.457742 -1.054854 -0.746180 0.000000 0.000000 0.000000
 40   1.118101 -3.449769 3.237290 0.000000 0.000001 0.000000
 41   -4.433840 -1.059130 0.959566 -0.000001 0.000000 0.000000
 42   -0.657468 1.697302 -2.688614 0.000000 0.000002 0.000000
 43   -0.664068 1.698578 2.869377 0.000000 0.000002 0.000000
time 6
  0   0.009046 4.281381 1.527761 0.000000 0.000000 -1.571449
  1   -1.093036 0.000002 -0.326057 -1.570808 -1.570749 0.000022
  2   2.262337 0.113614 0.064702 0.000190 0.025240 0.010324
  3   2.380047 0.353302 0.047440 -0.073550 -0.036126 -0.007836
  4   2.033756 0.190472 -0.000128 -0.145909 -0.046236 -0.193149
  5   2.451511 0.204909 -0.003447 -0.171956 -0.069656 -0.070148
  6   7.247600 -0.397300 -0.109469 0.000061 0.095934 0.470865
  7   -2.022252 -0.104661 3.136172 1.299073 -1.381119 -4.925271
  8   1.168026 -0.537438 -0.063437 -1.451989 0.809523 -1.358011
  9   6.790376 -0.619176 0.015206 0.005945 0.002385 -1.321889
 10   8.637599 0.544015 -0.090417 -3.048809 0.301844 -0.161304
 11   6.790465 -0.619039 0.017802 0.006432 -0.010742 -0.940648
 12   -2.022474 -0.104699 -2.873818 -2.709564 1.886349 -0.072069
 13   1.167898 -0.537463 0.063297 -0.530244 -1.058787 -0.327887
 14   7.002743 -0.617765 -0.183752 0.000059 0.000137 -2.015030
 15   8.209042 0.615527 -0.255885 1.716269 0.502240 0.011780
 16   7.002735 -0.617911 -0.183641 0.012743 0.011258 -1.429152
 17   1.574674 0.609930 -0.000899 0.359174 0.202667 -0.430826
 18   -0.602177 0.511412 -0.000006 0.000000 0.000000 0.000000
 19   3.673773 0.177020 1.119313 -0.000002 -0.000014 -0.174510
 20   3.673767 0.176993 -1.117566 0.000007 -0.000003 -0.174546
 21   3.942357 1.334540 1.627658 0.000002 -0.000011 -0.000026
 22   -0.246060 -0.011889 0.516521 -0.000011 0.000031 0.000025
 23   3.942374 1.334565 -1.631083 0.000019 0.000002 -0.000024
 24   -0.246150 -0.011872 -0.516511 -0.000005 -0.000006 0.000048
 25   4.941364 1.997338 1.629330 0.000018 -0.000001 -0.000024
 26   4.941382 1.997366 -1.629410 -0.000001 0.000005 -0.000024
 27   2.914462 1.619264 1.514501 -0.000019 -0.000022 -0.000050
 28   2.916892 1.618870 -1.501142 -0.000002 -0.000009 -0.000024
 29   8.824059 0.150544 0.091743 0.000006 -0.000231 -0.174534
 30   2.111085 -0.561179 1.784320 -0.000008 -0.000682 0.000024
 31   2.121290 -0.561289 -1.853599 0.000000 0.000000 -0.000002
 32   -0.814395 -0.093824 3.127092 0.262921 -3.097582 -0.334816
 33   14.298673 -0.408176 0.471578 0.003687 -0.003117 -0.522469
 34   15.835795 0.581398 0.242756 -0.001271 0.032067 0.122292
 35   -0.815868 -0.091229 -3.114430 -0.132889 3.034913 -0.011455
 36   14.294526 -0.410349 -0.467541 -0.002676 0.001857 -0.384764
 37   15.834409 0.579420 -0.284600 -0.034128 0.026558 0.304555
 38   1.139685 -3.453749 -2.823813 0.000000 0.000000 0.000001
 39   -4.457742 -1.054854 -0.746180 0.000000 0.000000 0.000000
 40   1.118101 -3.449769 3.237290 0.000000 0.000001 0.000000
 41   -4.433840 -1.059130 0.959566 -0.000001 0.000000 0.000000
 42   -0.657468 1.697302 -2.688614 0.000000 0.000002 0.000000
 43   -0.664068 1.698578 2.869377 0.000000 0.000002 0.000000
end
