version 1
nodes
  0 "Bip01" -1
  1 "Bip01 Pelvis" 0
  2 "Bip01 Spine" 1
  3 "Bip01 Spine1" 2
  4 "Bip01 Spine2" 3
  5 "Bip01 Spine3" 4
  6 "Bip01 Neck" 5
  7 "Bip01 L Arm" 6
  8 "Bip01 L Arm1" 7
  9 "Bip01 L Arm2" 8
 10 "Bip01 L Hand" 9
 11 "Bip06 L elbow2-smooth" 8
 12 "Bip01 R Arm" 6
 13 "Bip01 R Arm1" 12
 14 "Bip01 R Arm2" 13
 15 "Bip01 R Hand" 14
 16 "Bip06 R elbow2-smooth" 13
 17 "Bip01 Head" 6
 18 "Bip06 Head_helper" 17
 19 "Bip06 Head_eyes_l" 18
 20 "Bip06 Head_eyes_r" 18
 21 "Bip06 Head_blink_l" 18
 22 "Bip06 Head_blink_smooth_l1" 21
 23 "Bip06 Head_blink_r" 18
 24 "Bip06 Head_blink_smooth_r1" 23
 25 "Bip06 Head_L_eyebrow" 18
 26 "Bip06 Head_R_eyebrow" 18
 27 "Bip06 Head_blink_l_lid" 18
 28 "Bip06 Head_blink_r_lid" 18
 29 "Bip06 bunny" 18
 30 "Bip06 bunnyL" 29
 31 "Bip06 bunnyR" 29
 32 "Bip01 L Leg" 1
 33 "Bip01 L Leg1" 32
 34 "Bip01 L Foot" 33
 35 "Bip01 R Leg" 1
 36 "Bip01 R Leg1" 35
 37 "Bip01 R Foot" 36
 38 "Bip03 HairR1" 17
 39 "Bip03 HairR2" 38
 40 "Bip03 HairL1" 17
 41 "Bip03 HairL2" 40
 42 "Bip03 swingR" 17
 43 "Bip03 swingL" 17
end
skeleton
time 0
  0   -0.010486 -0.546892 1.863709 0.000000 0.000000 -1.571354
  1   -1.093036 0.000002 -0.326057 -1.570808 -1.570749 0.000022
  2   2.262337 0.113614 0.064702 -0.010242 -0.042748 -0.077175
  3   2.380047 0.353302 0.047440 -0.017371 0.054178 0.044096
  4   2.033756 0.190472 -0.000128 0.003568 -0.053847 -0.126527
  5   2.451511 0.204909 -0.003447 -0.158930 -0.035020 -0.096672
  6   7.247600 -0.397300 -0.109469 -0.016634 0.002250 0.459335
  7   -2.022252 -0.104661 3.136172 1.822362 -1.010228 -5.463881
  8   1.168026 -0.537438 -0.063437 -1.320112 1.047711 -1.193977
  9   6.790376 -0.619176 0.015206 -0.000102 -0.000085 -1.591535
 10   8.637599 0.544015 -0.090417 -2.893198 0.080114 0.504987
 11   6.790465 -0.619039 0.017802 0.002899 -0.011765 -1.129303
 12   -2.022474 -0.104699 -2.873818 -2.302289 1.868006 -5.925009
 13   1.167898 -0.537463 0.063297 -1.514814 -0.587061 0.451559
 14   7.002743 -0.617765 -0.183752 0.000172 0.000137 -1.972870
 15   8.209042 0.615527 -0.255885 1.150177 0.742081 -1.135339
 16   7.002735 -0.617911 -0.183641 0.012837 0.010977 -1.399734
 17   1.574674 0.609930 -0.000899 0.179750 0.134294 -0.556234
 18   -0.602177 0.511412 -0.000006 0.000000 0.000000 0.000000
 19   3.673773 0.177020 1.119313 -0.000002 -0.000014 -0.174510
 20   3.673767 0.176993 -1.117566 0.000007 -0.000003 -0.174546
 21   3.942357 1.334540 1.627658 0.000002 -0.000011 -0.000026
 22   -0.246060 -0.011889 0.516521 -0.000011 0.000031 0.000025
 23   3.942374 1.334565 -1.631083 0.000019 0.000002 -0.000024
 24   -0.246150 -0.011872 -0.516511 -0.000005 -0.000006 0.000048
 25   4.941364 1.997338 1.629330 0.000018 -0.000001 -0.000024
 26   4.941382 1.997366 -1.629410 -0.000001 0.000005 -0.000024
 27   2.914462 1.619264 1.514501 -0.000019 -0.000022 -0.000050
 28   2.916892 1.618870 -1.501142 -0.000002 -0.000009 -0.000024
 29   8.824059 0.150544 0.091743 0.000006 -0.000231 -0.174534
 30   2.111085 -0.561179 1.784320 -0.000008 -0.000682 0.000024
 31   2.121290 -0.561289 -1.853599 0.000000 0.000000 -0.000002
 32   -0.814395 -0.093824 3.127092 0.262921 -3.097582 -0.334816
 33   14.298673 -0.408176 0.471578 0.003687 -0.003117 -0.522469
 34   15.835795 0.581398 0.242756 -0.001271 0.032067 0.122292
 35   -0.815868 -0.091229 -3.114430 -0.132889 3.034913 -0.011455
 36   14.294526 -0.410349 -0.467541 -0.002676 0.001869 -0.384764
 37   15.834409 0.579420 -0.284600 -0.034128 0.026558 0.304555
 38   1.139685 -3.453749 -2.823813 0.000000 0.000000 0.000001
 39   -4.457742 -1.054854 -0.746180 0.000000 0.000000 0.000000
 40   1.118101 -3.449769 3.237290 0.000000 0.000001 0.000000
 41   -4.433840 -1.059130 0.959566 -0.000001 0.000000 0.000000
 42   -0.657468 1.697302 -2.688614 0.000000 0.000002 0.000000
 43   -0.664068 1.698578 2.869377 0.000000 0.000002 0.000000
time 1
  0   -0.010486 -0.546892 1.863709 0.000000 0.000000 -1.571354
  1   -1.093036 0.000002 -0.326057 -1.570808 -1.570749 0.000022
  2   2.262337 0.113614 0.064702 -0.010242 -0.042748 -0.077175
  3   2.380047 0.353302 0.047440 -0.044253 0.051050 0.041280
  4   2.033756 0.190472 -0.000128 -0.029684 -0.018300 -0.126962
  5   2.451511 0.204909 -0.003447 -0.230547 -0.018113 -0.102269
  6   7.247600 -0.397300 -0.109469 -0.016634 0.002250 0.459335
  7   -2.022252 -0.104661 3.136172 1.822362 -1.010228 -5.463881
  8   1.168026 -0.537438 -0.063437 -1.437814 1.260691 -1.543617
  9   6.790376 -0.619176 0.015206 -0.000102 -0.000085 -1.914837
 10   8.637599 0.544015 -0.090417 -2.757491 -0.356940 0.766367
 11   6.790465 -0.619039 0.017802 0.004388 -0.011850 -1.355619
 12   -2.022474 -0.104699 -2.873818 1.102215 0.973111 -2.577422
 13   1.167898 -0.537463 0.063297 -1.637622 -0.223094 0.054451
 14   7.002743 -0.617765 -0.183752 0.000172 0.000137 -1.958679
 15   8.209042 0.615527 -0.255885 1.142843 0.692827 -1.412091
 16   7.002735 -0.617911 -0.183641 0.012837 0.010864 -1.389855
 17   1.574674 0.609930 -0.000899 0.215903 -0.006595 -0.430086
 18   -0.602177 0.511412 -0.000006 0.000000 0.000000 0.000000
 19   3.673773 0.177020 1.119313 -0.000002 -0.000014 -0.174510
 20   3.673767 0.176993 -1.117566 0.000007 -0.000003 -0.174546
 21   3.942357 1.334540 1.627658 0.000002 -0.000011 -0.000026
 22   -0.246060 -0.011889 0.516521 -0.000011 0.000031 0.000025
 23   3.942374 1.334565 -1.631083 0.000019 0.000002 -0.000024
 24   -0.246150 -0.011872 -0.516511 -0.000005 -0.000006 0.000048
 25   4.941364 1.997338 1.629330 0.000018 -0.000001 -0.000024
 26   4.941382 1.997366 -1.629410 -0.000001 0.000005 -0.000024
 27   2.914462 1.619264 1.514501 -0.000019 -0.000022 -0.000050
 28   2.916892 1.618870 -1.501142 -0.000002 -0.000009 -0.000024
 29   8.824059 0.150544 0.091743 0.000006 -0.000231 -0.174534
 30   2.111085 -0.561179 1.784320 -0.000008 -0.000682 0.000024
 31   2.121290 -0.561289 -1.853599 0.000000 0.000000 -0.000002
 32   -0.814395 -0.093824 3.127092 0.262921 -3.097582 -0.334816
 33   14.298673 -0.408176 0.471578 0.003687 -0.003117 -0.522469
 34   15.835795 0.581398 0.242756 -0.001271 0.032067 0.122292
 35   -0.815868 -0.091229 -3.114430 -0.132889 3.034913 -0.011455
 36   14.294526 -0.410349 -0.467541 -0.002676 0.001869 -0.384764
 37   15.834409 0.579420 -0.284600 -0.034128 0.026558 0.304555
 38   1.139685 -3.453749 -2.823813 0.000000 0.000000 0.000001
 39   -4.457742 -1.054854 -0.746180 0.000000 0.000000 0.000000
 40   1.118101 -3.449769 3.237290 0.000000 0.000001 0.000000
 41   -4.433840 -1.059130 0.959566 -0.000001 0.000000 0.000000
 42   -0.657468 1.697302 -2.688614 0.000000 0.000002 0.000000
 43   -0.664068 1.698578 2.869377 0.000000 0.000002 0.000000
time 2
  0   -0.010486 -0.546892 1.863709 0.000000 0.000000 -1.571354
  1   -1.093036 0.000002 -0.326057 -1.570808 -1.570749 0.000022
  2   2.262337 0.113614 0.064702 -0.010242 -0.042748 -0.077175
  3   2.380047 0.353302 0.047440 -0.060259 0.049205 0.039668
  4   2.033756 0.190472 -0.000128 -0.049694 0.002840 -0.127832
  5   2.451511 0.204909 -0.003447 -0.273459 -0.008139 -0.106231
  6   7.247600 -0.397300 -0.109469 -0.016634 0.002250 0.459335
  7   -2.022252 -0.104661 3.136172 1.822362 -1.010228 -5.463881
  8   1.168026 -0.537438 -0.063437 -1.436232 1.257471 -1.458785
  9   6.790376 -0.619176 0.015206 -0.000102 -0.000085 -1.986758
 10   8.637599 0.544015 -0.090417 -2.705796 -0.373129 0.864393
 11   6.790465 -0.619039 0.017802 0.004767 -0.011850 -1.405969
 12   -2.022474 -0.104699 -2.873818 -2.074651 2.064004 -5.729697
 13   1.167898 -0.537463 0.063297 -1.568099 -0.353231 0.035746
 14   7.002743 -0.617765 -0.183752 0.000172 0.000137 -1.947541
 15   8.209042 0.615527 -0.255885 1.212230 0.704478 -1.351533
 16   7.002735 -0.617911 -0.183641 0.012884 0.010807 -1.381907
 17   1.574674 0.609930 -0.000899 0.311322 -0.016062 -0.448937
 18   -0.602177 0.511412 -0.000006 0.000000 0.000000 0.000000
 19   3.673773 0.177020 1.119313 -0.000002 -0.000014 -0.174510
 20   3.673767 0.176993 -1.117566 0.000007 -0.000003 -0.174546
 21   3.942357 1.334540 1.627658 0.000002 -0.000011 -0.000026
 22   -0.246060 -0.011889 0.516521 -0.000011 0.000031 0.000025
 23   3.942374 1.334565 -1.631083 0.000019 0.000002 -0.000024
 24   -0.246150 -0.011872 -0.516511 -0.000005 -0.000006 0.000048
 25   4.941364 1.997338 1.629330 0.000018 -0.000001 -0.000024
 26   4.941382 1.997366 -1.629410 -0.000001 0.000005 -0.000024
 27   2.914462 1.619264 1.514501 -0.000019 -0.000022 -0.000050
 28   2.916892 1.618870 -1.501142 -0.000002 -0.000009 -0.000024
 29   8.824059 0.150544 0.091743 0.000006 -0.000231 -0.174534
 30   2.111085 -0.561179 1.784320 -0.000008 -0.000682 0.000024
 31   2.121290 -0.561289 -1.853599 0.000000 0.000000 -0.000002
 32   -0.814395 -0.093824 3.127092 0.262921 -3.097582 -0.334816
 33   14.298673 -0.408176 0.471578 0.003687 -0.003117 -0.522469
 34   15.835795 0.581398 0.242756 -0.001271 0.032067 0.122292
 35   -0.815868 -0.091229 -3.114430 -0.132889 3.034913 -0.011455
 36   14.294526 -0.410349 -0.467541 -0.002676 0.001869 -0.384764
 37   15.834409 0.579420 -0.284600 -0.034128 0.026558 0.304555
 38   1.139685 -3.453749 -2.823813 0.000000 0.000000 0.000001
 39   -4.457742 -1.054854 -0.746180 0.000000 0.000000 0.000000
 40   1.118101 -3.449769 3.237290 0.000000 0.000001 0.000000
 41   -4.433840 -1.059130 0.959566 -0.000001 0.000000 0.000000
 42   -0.657468 1.697302 -2.688614 0.000000 0.000002 0.000000
 43   -0.664068 1.698578 2.869377 0.000000 0.000002 0.000000
time 3
  0   -0.010486 -0.546892 1.863709 0.000000 0.000000 -1.571354
  1   -1.093036 0.000002 -0.326057 -1.570808 -1.570749 0.000022
  2   2.262337 0.113614 0.064702 -0.010242 -0.042748 -0.077175
  3   2.380047 0.353302 0.047440 -0.056794 0.049564 0.040015
  4   2.033756 0.190472 -0.000128 -0.045157 -0.001929 -0.127542
  5   2.451511 0.204909 -0.003447 -0.263497 -0.010776 -0.105117
  6   7.247600 -0.397300 -0.109469 -0.016634 0.002250 0.459335
  7   -2.022252 -0.104661 3.136172 1.822362 -1.010228 -5.463881
  8   1.168026 -0.537438 -0.063437 -1.370167 1.174352 -1.259325
  9   6.790376 -0.619176 0.015206 -0.000102 -0.000085 -1.943968
 10   8.637599 0.544015 -0.090417 -2.707470 -0.230448 0.897816
 11   6.790465 -0.619039 0.017802 0.004534 -0.011850 -1.376094
 12   -2.022474 -0.104699 -2.873818 -2.159728 1.923587 -5.790014
 13   1.167898 -0.537463 0.063297 -1.479736 -0.534121 0.141379
 14   7.002743 -0.617765 -0.183752 0.000172 0.000137 -1.938218
 15   8.209042 0.615527 -0.255885 1.290604 0.709396 -1.235227
 16   7.002735 -0.617911 -0.183641 0.012884 0.010751 -1.375394
 17   1.574674 0.609930 -0.000899 0.327611 0.028124 -0.483384
 18   -0.602177 0.511412 -0.000006 0.000000 0.000000 0.000000
 19   3.673773 0.177020 1.119313 -0.000002 -0.000014 -0.174510
 20   3.673767 0.176993 -1.117566 0.000007 -0.000003 -0.174546
 21   3.942357 1.334540 1.627658 0.000002 -0.000011 -0.000026
 22   -0.246060 -0.011889 0.516521 -0.000011 0.000031 0.000025
 23   3.942374 1.334565 -1.631083 0.000019 0.000002 -0.000024
 24   -0.246150 -0.011872 -0.516511 -0.000005 -0.000006 0.000048
 25   4.941364 1.997338 1.629330 0.000018 -0.000001 -0.000024
 26   4.941382 1.997366 -1.629410 -0.000001 0.000005 -0.000024
 27   2.914462 1.619264 1.514501 -0.000019 -0.000022 -0.000050
 28   2.916892 1.618870 -1.501142 -0.000002 -0.000009 -0.000024
 29   8.824059 0.150544 0.091743 0.000006 -0.000231 -0.174534
 30   2.111085 -0.561179 1.784320 -0.000008 -0.000682 0.000024
 31   2.121290 -0.561289 -1.853599 0.000000 0.000000 -0.000002
 32   -0.814395 -0.093824 3.127092 0.262921 -3.097582 -0.334816
 33   14.298673 -0.408176 0.471578 0.003687 -0.003117 -0.522469
 34   15.835795 0.581398 0.242756 -0.001271 0.032067 0.122292
 35   -0.815868 -0.091229 -3.114430 -0.132889 3.034913 -0.011455
 36   14.294526 -0.410349 -0.467541 -0.002676 0.001869 -0.384764
 37   15.834409 0.579420 -0.284600 -0.034128 0.026558 0.304555
 38   1.139685 -3.453749 -2.823813 0.000000 0.000000 0.000001
 39   -4.457742 -1.054854 -0.746180 0.000000 0.000000 0.000000
 40   1.118101 -3.449769 3.237290 0.000000 0.000001 0.000000
 41   -4.433840 -1.059130 0.959566 -0.000001 0.000000 0.000000
 42   -0.657468 1.697302 -2.688614 0.000000 0.000002 0.000000
 43   -0.664068 1.698578 2.869377 0.000000 0.000002 0.000000
time 4
  0   -0.010486 -0.546892 1.863709 0.000000 0.000000 -1.571354
  1   -1.093036 0.000002 -0.326057 -1.570808 -1.570749 0.000022
  2   2.262337 0.113614 0.064702 -0.010242 -0.042748 -0.077175
  3   2.380047 0.353302 0.047440 -0.047973 0.050667 0.040872
  4   2.033756 0.190472 -0.000128 -0.034018 -0.014070 -0.126998
  5   2.451511 0.204909 -0.003447 -0.239054 -0.017238 -0.102690
  6   7.247600 -0.397300 -0.109469 -0.016634 0.002250 0.459335
  7   -2.022252 -0.104661 3.136172 1.822362 -1.010228 -5.463881
  8   1.168026 -0.537438 -0.063437 -1.300685 1.172138 -1.144887
  9   6.790376 -0.619176 0.015206 -0.000102 -0.000085 -1.898234
 10   8.637599 0.544015 -0.090417 -2.752471 -0.169842 0.866347
 11   6.790465 -0.619039 0.017802 0.004330 -0.011850 -1.344084
 12   -2.022474 -0.104699 -2.873818 -2.208014 1.888003 -5.832810
 13   1.167898 -0.537463 0.063297 -1.472707 -0.580856 0.224433
 14   7.002743 -0.617765 -0.183752 0.000172 0.000137 -1.930215
 15   8.209042 0.615527 -0.255885 1.353375 0.684277 -1.160116
 16   7.002735 -0.617911 -0.183641 0.012931 0.010695 -1.369875
 17   1.574674 0.609930 -0.000899 0.316278 0.081280 -0.521011
 18   -0.602177 0.511412 -0.000006 0.000000 0.000000 0.000000
 19   3.673773 0.177020 1.119313 -0.000002 -0.000014 -0.174510
 20   3.673767 0.176993 -1.117566 0.000007 -0.000003 -0.174546
 21   3.942357 1.334540 1.627658 0.000002 -0.000011 -0.000026
 22   -0.246060 -0.011889 0.516521 -0.000011 0.000031 0.000025
 23   3.942374 1.334565 -1.631083 0.000019 0.000002 -0.000024
 24   -0.246150 -0.011872 -0.516511 -0.000005 -0.000006 0.000048
 25   4.941364 1.997338 1.629330 0.000018 -0.000001 -0.000024
 26   4.941382 1.997366 -1.629410 -0.000001 0.000005 -0.000024
 27   2.914462 1.619264 1.514501 -0.000019 -0.000022 -0.000050
 28   2.916892 1.618870 -1.501142 -0.000002 -0.000009 -0.000024
 29   8.824059 0.150544 0.091743 0.000006 -0.000231 -0.174534
 30   2.111085 -0.561179 1.784320 -0.000008 -0.000682 0.000024
 31   2.121290 -0.561289 -1.853599 0.000000 0.000000 -0.000002
 32   -0.814395 -0.093824 3.127092 0.262921 -3.097582 -0.334816
 33   14.298673 -0.408176 0.471578 0.003687 -0.003117 -0.522469
 34   15.835795 0.581398 0.242756 -0.001271 0.032067 0.122292
 35   -0.815868 -0.091229 -3.114430 -0.132889 3.034913 -0.011455
 36   14.294526 -0.410349 -0.467541 -0.002676 0.001869 -0.384764
 37   15.834409 0.579420 -0.284600 -0.034128 0.026558 0.304555
 38   1.139685 -3.453749 -2.823813 0.000000 0.000000 0.000001
 39   -4.457742 -1.054854 -0.746180 0.000000 0.000000 0.000000
 40   1.118101 -3.449769 3.237290 0.000000 0.000001 0.000000
 41   -4.433840 -1.059130 0.959566 -0.000001 0.000000 0.000000
 42   -0.657468 1.697302 -2.688614 0.000000 0.000002 0.000000
 43   -0.664068 1.698578 2.869377 0.000000 0.000002 0.000000
time 5
  0   -0.010486 -0.546892 1.863709 0.000000 0.000000 -1.571354
  1   -1.093036 0.000002 -0.326057 -1.570808 -1.570749 0.000022
  2   2.262337 0.113614 0.064702 -0.010242 -0.042748 -0.077175
  3   2.380047 0.353302 0.047440 -0.036692 0.051937 0.042035
  4   2.033756 0.190472 -0.000128 -0.019780 -0.029350 -0.126527
  5   2.451511 0.204909 -0.003447 -0.208004 -0.025059 -0.099941
  6   7.247600 -0.397300 -0.109469 -0.016634 0.002250 0.459335
  7   -2.022252 -0.104661 3.136172 1.822362 -1.010228 -5.463881
  8   1.168026 -0.537438 -0.063437 -1.197412 1.183358 -1.023174
  9   6.790376 -0.619176 0.015206 -0.000102 -0.000085 -1.842238
 10   8.637599 0.544015 -0.090417 -2.820017 -0.124933 0.813608
 11   6.790465 -0.619039 0.017802 0.004067 -0.011850 -1.304865
 12   -2.022474 -0.104699 -2.873818 -2.247774 1.874362 -5.871298
 13   1.167898 -0.537463 0.063297 -1.487961 -0.598249 0.315719
 14   7.002743 -0.617765 -0.183752 0.000172 0.000137 -1.922542
 15   8.209042 0.615527 -0.255885 1.410322 0.647885 -1.090477
 16   7.002735 -0.617911 -0.183641 0.012931 0.010638 -1.364521
 17   1.574674 0.609930 -0.000899 0.275819 0.117277 -0.546661
 18   -0.602177 0.511412 -0.000006 0.000000 0.000000 0.000000
 19   3.673773 0.177020 1.119313 -0.000002 -0.000014 -0.174510
 20   3.673767 0.176993 -1.117566 0.000007 -0.000003 -0.174546
 21   3.942357 1.334540 1.627658 0.000002 -0.000011 -0.000026
 22   -0.246060 -0.011889 0.516521 -0.000011 0.000031 0.000025
 23   3.942374 1.334565 -1.631083 0.000019 0.000002 -0.000024
 24   -0.246150 -0.011872 -0.516511 -0.000005 -0.000006 0.000048
 25   4.941364 1.997338 1.629330 0.000018 -0.000001 -0.000024
 26   4.941382 1.997366 -1.629410 -0.000001 0.000005 -0.000024
 27   2.914462 1.619264 1.514501 -0.000019 -0.000022 -0.000050
 28   2.916892 1.618870 -1.501142 -0.000002 -0.000009 -0.000024
 29   8.824059 0.150544 0.091743 0.000006 -0.000231 -0.174534
 30   2.111085 -0.561179 1.784320 -0.000008 -0.000682 0.000024
 31   2.121290 -0.561289 -1.853599 0.000000 0.000000 -0.000002
 32   -0.814395 -0.093824 3.127092 0.262921 -3.097582 -0.334816
 33   14.298673 -0.408176 0.471578 0.003687 -0.003117 -0.522469
 34   15.835795 0.581398 0.242756 -0.001271 0.032067 0.122292
 35   -0.815868 -0.091229 -3.114430 -0.132889 3.034913 -0.011455
 36   14.294526 -0.410349 -0.467541 -0.002676 0.001869 -0.384764
 37   15.834409 0.579420 -0.284600 -0.034128 0.026558 0.304555
 38   1.139685 -3.453749 -2.823813 0.000000 0.000000 0.000001
 39   -4.457742 -1.054854 -0.746180 0.000000 0.000000 0.000000
 40   1.118101 -3.449769 3.237290 0.000000 0.000001 0.000000
 41   -4.433840 -1.059130 0.959566 -0.000001 0.000000 0.000000
 42   -0.657468 1.697302 -2.688614 0.000000 0.000002 0.000000
 43   -0.664068 1.698578 2.869377 0.000000 0.000002 0.000000
time 6
  0   -0.010486 -0.546892 1.863709 0.000000 0.000000 -1.571354
  1   -1.093036 0.000002 -0.326057 -1.570808 -1.570749 0.000022
  2   2.262337 0.113614 0.064702 -0.010242 -0.042748 -0.077175
  3   2.380047 0.353302 0.047440 -0.025652 0.053219 0.043198
  4   2.033756 0.190472 -0.000128 -0.006059 -0.043935 -0.126382
  5   2.451511 0.204909 -0.003447 -0.178700 -0.031782 -0.097712
  6   7.247600 -0.397300 -0.109469 -0.016634 0.002250 0.459335
  7   -2.022252 -0.104661 3.136172 1.822362 -1.010228 -5.463881
  8   1.168026 -0.537438 -0.063437 -1.082811 1.193723 -0.908736
  9   6.790376 -0.619176 0.015206 -0.000102 -0.000085 -1.787901
 10   8.637599 0.544015 -0.090417 -2.890469 -0.095369 0.761954
 11   6.790465 -0.619039 0.017802 0.003804 -0.011850 -1.266742
 12   -2.022474 -0.104699 -2.873818 -2.277762 1.871518 -5.901169
 13   1.167898 -0.537463 0.063297 -1.509893 -0.600181 0.398531
 14   7.002743 -0.617765 -0.183752 0.000172 0.000137 -1.915859
 15   8.209042 0.615527 -0.255885 1.456196 0.610282 -1.033466
 16   7.002735 -0.617911 -0.183641 0.012931 0.010582 -1.359830
 17   1.574674 0.609930 -0.000899 0.223783 0.134294 -0.558415
 18   -0.602177 0.511412 -0.000006 0.000000 0.000000 0.000000
 19   3.673773 0.177020 1.119313 -0.000002 -0.000014 -0.174510
 20   3.673767 0.176993 -1.117566 0.000007 -0.000003 -0.174546
 21   3.942357 1.334540 1.627658 0.000002 -0.000011 -0.000026
 22   -0.246060 -0.011889 0.516521 -0.000011 0.000031 0.000025
 23   3.942374 1.334565 -1.631083 0.000019 0.000002 -0.000024
 24   -0.246150 -0.011872 -0.516511 -0.000005 -0.000006 0.000048
 25   4.941364 1.997338 1.629330 0.000018 -0.000001 -0.000024
 26   4.941382 1.997366 -1.629410 -0.000001 0.000005 -0.000024
 27   2.914462 1.619264 1.514501 -0.000019 -0.000022 -0.000050
 28   2.916892 1.618870 -1.501142 -0.000002 -0.000009 -0.000024
 29   8.824059 0.150544 0.091743 0.000006 -0.000231 -0.174534
 30   2.111085 -0.561179 1.784320 -0.000008 -0.000682 0.000024
 31   2.121290 -0.561289 -1.853599 0.000000 0.000000 -0.000002
 32   -0.814395 -0.093824 3.127092 0.262921 -3.097582 -0.334816
 33   14.298673 -0.408176 0.471578 0.003687 -0.003117 -0.522469
 34   15.835795 0.581398 0.242756 -0.001271 0.032067 0.122292
 35   -0.815868 -0.091229 -3.114430 -0.132889 3.034913 -0.011455
 36   14.294526 -0.410349 -0.467541 -0.002676 0.001869 -0.384764
 37   15.834409 0.579420 -0.284600 -0.034128 0.026558 0.304555
 38   1.139685 -3.453749 -2.823813 0.000000 0.000000 0.000001
 39   -4.457742 -1.054854 -0.746180 0.000000 0.000000 0.000000
 40   1.118101 -3.449769 3.237290 0.000000 0.000001 0.000000
 41   -4.433840 -1.059130 0.959566 -0.000001 0.000000 0.000000
 42   -0.657468 1.697302 -2.688614 0.000000 0.000002 0.000000
 43   -0.664068 1.698578 2.869377 0.000000 0.000002 0.000000
time 7
  0   -0.010486 -0.546892 1.863709 0.000000 0.000000 -1.571354
  1   -1.093036 0.000002 -0.326057 -1.570808 -1.570749 0.000022
  2   2.262337 0.113614 0.064702 -0.010242 -0.042748 -0.077175
  3   2.380047 0.353302 0.047440 -0.017371 0.054178 0.044096
  4   2.033756 0.190472 -0.000128 0.003568 -0.053847 -0.126527
  5   2.451511 0.204909 -0.003447 -0.158930 -0.035020 -0.096672
  6   7.247600 -0.397300 -0.109469 -0.016634 0.002250 0.459335
  7   -2.022252 -0.104661 3.136172 1.822362 -1.010228 -5.463881
  8   1.168026 -0.537438 -0.063437 -0.997192 1.198201 -0.828268
  9   6.790376 -0.619176 0.015206 -0.000102 -0.000085 -1.748356
 10   8.637599 0.544015 -0.090417 -2.941458 -0.077349 0.726071
 11   6.790465 -0.619039 0.017802 0.003629 -0.011850 -1.239116
 12   -2.022474 -0.104699 -2.873818 -2.302289 1.868006 -5.925009
 13   1.167898 -0.537463 0.063297 -1.523812 -0.601605 0.456947
 14   7.002743 -0.617765 -0.183752 0.000172 0.000137 -1.910826
 15   8.209042 0.615527 -0.255885 1.487977 0.581532 -0.993114
 16   7.002735 -0.617911 -0.183641 0.012931 0.010582 -1.356187
 17   1.574674 0.609930 -0.000899 0.187468 0.143264 -0.566953
 18   -0.602177 0.511412 -0.000006 0.000000 0.000000 0.000000
 19   3.673773 0.177020 1.119313 -0.000002 -0.000014 -0.174510
 20   3.673767 0.176993 -1.117566 0.000007 -0.000003 -0.174546
 21   3.942357 1.334540 1.627658 0.000002 -0.000011 -0.000026
 22   -0.246060 -0.011889 0.516521 -0.000011 0.000031 0.000025
 23   3.942374 1.334565 -1.631083 0.000019 0.000002 -0.000024
 24   -0.246150 -0.011872 -0.516511 -0.000005 -0.000006 0.000048
 25   4.941364 1.997338 1.629330 0.000018 -0.000001 -0.000024
 26   4.941382 1.997366 -1.629410 -0.000001 0.000005 -0.000024
 27   2.914462 1.619264 1.514501 -0.000019 -0.000022 -0.000050
 28   2.916892 1.618870 -1.501142 -0.000002 -0.000009 -0.000024
 29   8.824059 0.150544 0.091743 0.000006 -0.000231 -0.174534
 30   2.111085 -0.561179 1.784320 -0.000008 -0.000682 0.000024
 31   2.121290 -0.561289 -1.853599 0.000000 0.000000 -0.000002
 32   -0.814395 -0.093824 3.127092 0.262921 -3.097582 -0.334816
 33   14.298673 -0.408176 0.471578 0.003687 -0.003117 -0.522469
 34   15.835795 0.581398 0.242756 -0.001271 0.032067 0.122292
 35   -0.815868 -0.091229 -3.114430 -0.132889 3.034913 -0.011455
 36   14.294526 -0.410349 -0.467541 -0.002676 0.001869 -0.384764
 37   15.834409 0.579420 -0.284600 -0.034128 0.026558 0.304555
 38   1.139685 -3.453749 -2.823813 0.000000 0.000000 0.000001
 39   -4.457742 -1.054854 -0.746180 0.000000 0.000000 0.000000
 40   1.118101 -3.449769 3.237290 0.000000 0.000001 0.000000
 41   -4.433840 -1.059130 0.959566 -0.000001 0.000000 0.000000
 42   -0.657468 1.697302 -2.688614 0.000000 0.000002 0.000000
 43   -0.664068 1.698578 2.869377 0.000000 0.000002 0.000000
time 8
  0   -0.010486 -0.546892 1.863709 0.000000 0.000000 -1.571354
  1   -1.093036 0.000002 -0.326057 -1.570808 -1.570749 0.000022
  2   2.262337 0.113614 0.064702 -0.010242 -0.042748 -0.077175
  3   2.380047 0.353302 0.047440 -0.013876 0.054646 0.044443
  4   2.033756 0.190472 -0.000128 0.006279 -0.054686 -0.126962
  5   2.451511 0.204909 -0.003447 -0.157749 -0.029276 -0.097910
  6   7.247600 -0.397300 -0.109469 -0.016634 0.002250 0.459335
  7   -2.022252 -0.104661 3.136172 1.822362 -1.010228 -5.463881
  8   1.168026 -0.537438 -0.063437 -0.956313 1.213899 -0.786453
  9   6.790376 -0.619176 0.015206 -0.000102 -0.000085 -1.736885
 10   8.637599 0.544015 -0.090417 -2.962858 -0.074745 0.696265
 11   6.790465 -0.619039 0.017802 0.003541 -0.011793 -1.231099
 12   -2.022474 -0.104699 -2.873818 -2.312923 1.864697 -5.935157
 13   1.167898 -0.537463 0.063297 -1.520508 -0.599418 0.467722
 14   7.002743 -0.617765 -0.183752 0.000172 0.000137 -1.910991
 15   8.209042 0.615527 -0.255885 1.497396 0.571696 -0.969180
 16   7.002735 -0.617911 -0.183641 0.012931 0.010582 -1.356353
 17   1.574674 0.609930 -0.000899 0.182796 0.137915 -0.569503
 18   -0.602177 0.511412 -0.000006 0.000000 0.000000 0.000000
 19   3.673773 0.177020 1.119313 -0.000002 -0.000014 -0.174510
 20   3.673767 0.176993 -1.117566 0.000007 -0.000003 -0.174546
 21   3.942357 1.334540 1.627658 0.000002 -0.000011 -0.000026
 22   -0.246060 -0.011889 0.516521 -0.000011 0.000031 0.000025
 23   3.942374 1.334565 -1.631083 0.000019 0.000002 -0.000024
 24   -0.246150 -0.011872 -0.516511 -0.000005 -0.000006 0.000048
 25   4.941364 1.997338 1.629330 0.000018 -0.000001 -0.000024
 26   4.941382 1.997366 -1.629410 -0.000001 0.000005 -0.000024
 27   2.914462 1.619264 1.514501 -0.000019 -0.000022 -0.000050
 28   2.916892 1.618870 -1.501142 -0.000002 -0.000009 -0.000024
 29   8.824059 0.150544 0.091743 0.000006 -0.000231 -0.174534
 30   2.111085 -0.561179 1.784320 -0.000008 -0.000682 0.000024
 31   2.121290 -0.561289 -1.853599 0.000000 0.000000 -0.000002
 32   -0.814395 -0.093824 3.127092 0.262921 -3.097582 -0.334816
 33   14.298673 -0.408176 0.471578 0.003687 -0.003117 -0.522469
 34   15.835795 0.581398 0.242756 -0.001271 0.032067 0.122292
 35   -0.815868 -0.091229 -3.114430 -0.132889 3.034913 -0.011455
 36   14.294526 -0.410349 -0.467541 -0.002676 0.001869 -0.384764
 37   15.834409 0.579420 -0.284600 -0.034128 0.026558 0.304555
 38   1.139685 -3.453749 -2.823813 0.000000 0.000000 0.000001
 39   -4.457742 -1.054854 -0.746180 0.000000 0.000000 0.000000
 40   1.118101 -3.449769 3.237290 0.000000 0.000001 0.000000
 41   -4.433840 -1.059130 0.959566 -0.000001 0.000000 0.000000
 42   -0.657468 1.697302 -2.688614 0.000000 0.000002 0.000000
 43   -0.664068 1.698578 2.869377 0.000000 0.000002 0.000000
time 9
  0   -0.010486 -0.546892 1.863709 0.000000 0.000000 -1.571354
  1   -1.093036 0.000002 -0.326057 -1.570808 -1.570749 0.000022
  2   2.262337 0.113614 0.064702 -0.010242 -0.042748 -0.077175
  3   2.380047 0.353302 0.047440 -0.013321 0.054706 0.044504
  4   2.033756 0.190472 -0.000128 0.004306 -0.049760 -0.127687
  5   2.451511 0.204909 -0.003447 -0.168447 -0.018178 -0.100684
  6   7.247600 -0.397300 -0.109469 -0.016634 0.002250 0.459335
  7   -2.022252 -0.104661 3.136172 1.822362 -1.010228 -5.463881
  8   1.168026 -0.537438 -0.063437 -0.953402 1.242427 -0.786200
  9   6.790376 -0.619176 0.015206 -0.000102 -0.000085 -1.746922
 10   8.637599 0.544015 -0.090417 -2.959247 -0.086218 0.675430
 11   6.790465 -0.619039 0.017802 0.003629 -0.011850 -1.238135
 12   -2.022474 -0.104699 -2.873818 -2.307654 1.866293 -5.930083
 13   1.167898 -0.537463 0.063297 -1.508979 -0.586806 0.445203
 14   7.002743 -0.617765 -0.183752 0.000172 0.000137 -1.913961
 15   8.209042 0.615527 -0.255885 1.490853 0.576008 -0.965451
 16   7.002735 -0.617911 -0.183641 0.012931 0.010582 -1.358395
 17   1.574674 0.609930 -0.000899 0.197786 0.123573 -0.567951
 18   -0.602177 0.511412 -0.000006 0.000000 0.000000 0.000000
 19   3.673773 0.177020 1.119313 -0.000002 -0.000014 -0.174510
 20   3.673767 0.176993 -1.117566 0.000007 -0.000003 -0.174546
 21   3.942357 1.334540 1.627658 0.000002 -0.000011 -0.000026
 22   -0.246060 -0.011889 0.516521 -0.000011 0.000031 0.000025
 23   3.942374 1.334565 -1.631083 0.000019 0.000002 -0.000024
 24   -0.246150 -0.011872 -0.516511 -0.000005 -0.000006 0.000048
 25   4.941364 1.997338 1.629330 0.000018 -0.000001 -0.000024
 26   4.941382 1.997366 -1.629410 -0.000001 0.000005 -0.000024
 27   2.914462 1.619264 1.514501 -0.000019 -0.000022 -0.000050
 28   2.916892 1.618870 -1.501142 -0.000002 -0.000009 -0.000024
 29   8.824059 0.150544 0.091743 0.000006 -0.000231 -0.174534
 30   2.111085 -0.561179 1.784320 -0.000008 -0.000682 0.000024
 31   2.121290 -0.561289 -1.853599 0.000000 0.000000 -0.000002
 32   -0.814395 -0.093824 3.127092 0.262921 -3.097582 -0.334816
 33   14.298673 -0.408176 0.471578 0.003687 -0.003117 -0.522469
 34   15.835795 0.581398 0.242756 -0.001271 0.032067 0.122292
 35   -0.815868 -0.091229 -3.114430 -0.132889 3.034913 -0.011455
 36   14.294526 -0.410349 -0.467541 -0.002676 0.001869 -0.384764
 37   15.834409 0.579420 -0.284600 -0.034128 0.026558 0.304555
 38   1.139685 -3.453749 -2.823813 0.000000 0.000000 0.000001
 39   -4.457742 -1.054854 -0.746180 0.000000 0.000000 0.000000
 40   1.118101 -3.449769 3.237290 0.000000 0.000001 0.000000
 41   -4.433840 -1.059130 0.959566 -0.000001 0.000000 0.000000
 42   -0.657468 1.697302 -2.688614 0.000000 0.000002 0.000000
 43   -0.664068 1.698578 2.869377 0.000000 0.000002 0.000000
time 10
  0   -0.010486 -0.546892 1.863709 0.000000 0.000000 -1.571354
  1   -1.093036 0.000002 -0.326057 -1.570808 -1.570749 0.000022
  2   2.262337 0.113614 0.064702 -0.010242 -0.042748 -0.077175
  3   2.380047 0.353302 0.047440 -0.013621 0.054670 0.044504
  4   2.033756 0.190472 -0.000128 0.002609 -0.046416 -0.127977
  5   2.451511 0.204909 -0.003447 -0.175482 -0.012081 -0.102368
  6   7.247600 -0.397300 -0.109469 -0.016634 0.002250 0.459335
  7   -2.022252 -0.104661 3.136172 1.822362 -1.010228 -5.463881
  8   1.168026 -0.537438 -0.063437 -1.007254 1.259534 -0.861354
  9   6.790376 -0.619176 0.015206 -0.000102 -0.000085 -1.761487
 10   8.637599 0.544015 -0.090417 -2.933004 -0.101915 0.696410
 11   6.790465 -0.619039 0.017802 0.003658 -0.011850 -1.248286
 12   -2.022474 -0.104699 -2.873818 -2.302289 1.868006 -5.925009
 13   1.167898 -0.537463 0.063297 -1.504480 -0.574296 0.430614
 14   7.002743 -0.617765 -0.183752 0.000172 0.000137 -1.910826
 15   8.209042 0.615527 -0.255885 1.487977 0.581532 -0.993114
 16   7.002735 -0.617911 -0.183641 0.012931 0.010582 -1.356187
 17   1.574674 0.609930 -0.000899 0.207697 0.114911 -0.565918
 18   -0.602177 0.511412 -0.000006 0.000000 0.000000 0.000000
 19   3.673773 0.177020 1.119313 -0.000002 -0.000014 -0.174510
 20   3.673767 0.176993 -1.117566 0.000007 -0.000003 -0.174546
 21   3.942357 1.334540 1.627658 0.000002 -0.000011 -0.000026
 22   -0.246060 -0.011889 0.516521 -0.000011 0.000031 0.000025
 23   3.942374 1.334565 -1.631083 0.000019 0.000002 -0.000024
 24   -0.246150 -0.011872 -0.516511 -0.000005 -0.000006 0.000048
 25   4.941364 1.997338 1.629330 0.000018 -0.000001 -0.000024
 26   4.941382 1.997366 -1.629410 -0.000001 0.000005 -0.000024
 27   2.914462 1.619264 1.514501 -0.000019 -0.000022 -0.000050
 28   2.916892 1.618870 -1.501142 -0.000002 -0.000009 -0.000024
 29   8.824059 0.150544 0.091743 0.000006 -0.000231 -0.174534
 30   2.111085 -0.561179 1.784320 -0.000008 -0.000682 0.000024
 31   2.121290 -0.561289 -1.853599 0.000000 0.000000 -0.000002
 32   -0.814395 -0.093824 3.127092 0.262921 -3.097582 -0.334816
 33   14.298673 -0.408176 0.471578 0.003687 -0.003117 -0.522469
 34   15.835795 0.581398 0.242756 -0.001271 0.032067 0.122292
 35   -0.815868 -0.091229 -3.114430 -0.132889 3.034913 -0.011455
 36   14.294526 -0.410349 -0.467541 -0.002676 0.001869 -0.384764
 37   15.834409 0.579420 -0.284600 -0.034128 0.026558 0.304555
 38   1.139685 -3.453749 -2.823813 0.000000 0.000000 0.000001
 39   -4.457742 -1.054854 -0.746180 0.000000 0.000000 0.000000
 40   1.118101 -3.449769 3.237290 0.000000 0.000001 0.000000
 41   -4.433840 -1.059130 0.959566 -0.000001 0.000000 0.000000
 42   -0.657468 1.697302 -2.688614 0.000000 0.000002 0.000000
 43   -0.664068 1.698578 2.869377 0.000000 0.000002 0.000000
time 11
  0   -0.010486 -0.546892 1.863709 0.000000 0.000000 -1.571354
  1   -1.093036 0.000002 -0.326057 -1.570808 -1.570749 0.000022
  2   2.262337 0.113614 0.064702 -0.010242 -0.042748 -0.077175
  3   2.380047 0.353302 0.047440 -0.013756 0.054646 0.044443
  4   2.033756 0.190472 -0.000128 0.002683 -0.046752 -0.127977
  5   2.451511 0.204909 -0.003447 -0.174883 -0.012956 -0.102120
  6   7.247600 -0.397300 -0.109469 -0.016634 0.002250 0.459335
  7   -2.022252 -0.104661 3.136172 1.822362 -1.010228 -5.463881
  8   1.168026 -0.537438 -0.063437 -1.298217 1.289068 -1.303544
  9   6.790376 -0.619176 0.015206 -0.000102 -0.000085 -1.772732
 10   8.637599 0.544015 -0.090417 -2.850839 -0.154708 0.843631
 11   6.790465 -0.619039 0.017802 0.003746 -0.011850 -1.256245
 12   -2.022474 -0.104699 -2.873818 -2.302289 1.868006 -5.925009
 13   1.167898 -0.537463 0.063297 -1.516290 -0.549276 0.440663
 14   7.002743 -0.617765 -0.183752 0.000172 0.000137 -1.887312
 15   8.209042 0.615527 -0.255885 1.514366 0.583196 -1.115915
 16   7.002735 -0.617911 -0.183641 0.012978 0.010413 -1.339795
 17   1.574674 0.609930 -0.000899 0.205747 0.114721 -0.564440
 18   -0.602177 0.511412 -0.000006 0.000000 0.000000 0.000000
 19   3.673773 0.177020 1.119313 -0.000002 -0.000014 -0.174510
 20   3.673767 0.176993 -1.117566 0.000007 -0.000003 -0.174546
 21   3.942357 1.334540 1.627658 0.000002 -0.000011 -0.000026
 22   -0.246060 -0.011889 0.516521 -0.000011 0.000031 0.000025
 23   3.942374 1.334565 -1.631083 0.000019 0.000002 -0.000024
 24   -0.246150 -0.011872 -0.516511 -0.000005 -0.000006 0.000048
 25   4.941364 1.997338 1.629330 0.000018 -0.000001 -0.000024
 26   4.941382 1.997366 -1.629410 -0.000001 0.000005 -0.000024
 27   2.914462 1.619264 1.514501 -0.000019 -0.000022 -0.000050
 28   2.916892 1.618870 -1.501142 -0.000002 -0.000009 -0.000024
 29   8.824059 0.150544 0.091743 0.000006 -0.000231 -0.174534
 30   2.111085 -0.561179 1.784320 -0.000008 -0.000682 0.000024
 31   2.121290 -0.561289 -1.853599 0.000000 0.000000 -0.000002
 32   -0.814395 -0.093824 3.127092 0.262921 -3.097582 -0.334816
 33   14.298673 -0.408176 0.471578 0.003687 -0.003117 -0.522469
 34   15.835795 0.581398 0.242756 -0.001271 0.032067 0.122292
 35   -0.815868 -0.091229 -3.114430 -0.132889 3.034913 -0.011455
 36   14.294526 -0.410349 -0.467541 -0.002676 0.001869 -0.384764
 37   15.834409 0.579420 -0.284600 -0.034128 0.026558 0.304555
 38   1.139685 -3.453749 -2.823813 0.000000 0.000000 0.000001
 39   -4.457742 -1.054854 -0.746180 0.000000 0.000000 0.000000
 40   1.118101 -3.449769 3.237290 0.000000 0.000001 0.000000
 41   -4.433840 -1.059130 0.959566 -0.000001 0.000000 0.000000
 42   -0.657468 1.697302 -2.688614 0.000000 0.000002 0.000000
 43   -0.664068 1.698578 2.869377 0.000000 0.000002 0.000000
time 12
  0   -0.010486 -0.546892 1.863709 0.000000 0.000000 -1.571354
  1   -1.093036 0.000002 -0.326057 -1.570808 -1.570749 0.000022
  2   2.262337 0.113614 0.064702 -0.010242 -0.042748 -0.077175
  3   2.380047 0.353302 0.047440 -0.014161 0.054610 0.044443
  4   2.033756 0.190472 -0.000128 0.002775 -0.047507 -0.127832
  5   2.451511 0.204909 -0.003447 -0.173137 -0.015280 -0.101501
  6   7.247600 -0.397300 -0.109469 -0.016634 0.002250 0.459335
  7   -2.022252 -0.104661 3.136172 1.822362 -1.010228 -5.463881
  8   1.168026 -0.537438 -0.063437 1.484667 1.851431 1.308795
  9   6.790376 -0.619176 0.015206 -0.000102 -0.000085 -1.719754
 10   8.637599 0.544015 -0.090417 -2.811474 -0.197224 0.921328
 11   6.790465 -0.619039 0.017802 0.003483 -0.011793 -1.219160
 12   -2.022474 -0.104699 -2.873818 -2.302289 1.868006 -5.925009
 13   1.167898 -0.537463 0.063297 -1.525218 -0.532951 0.449259
 14   7.002743 -0.617765 -0.183752 0.000172 0.000137 -1.866933
 15   8.209042 0.615527 -0.255885 1.513287 0.593259 -1.228071
 16   7.002735 -0.617911 -0.183641 0.013025 0.010300 -1.325500
 17   1.574674 0.609930 -0.000899 0.202295 0.115928 -0.562740
 18   -0.602177 0.511412 -0.000006 0.000000 0.000000 0.000000
 19   3.673773 0.177020 1.119313 -0.000002 -0.000014 -0.174510
 20   3.673767 0.176993 -1.117566 0.000007 -0.000003 -0.174546
 21   3.942357 1.334540 1.627658 0.000002 -0.000011 -0.000026
 22   -0.246060 -0.011889 0.516521 -0.000011 0.000031 0.000025
 23   3.942374 1.334565 -1.631083 0.000019 0.000002 -0.000024
 24   -0.246150 -0.011872 -0.516511 -0.000005 -0.000006 0.000048
 25   4.941364 1.997338 1.629330 0.000018 -0.000001 -0.000024
 26   4.941382 1.997366 -1.629410 -0.000001 0.000005 -0.000024
 27   2.914462 1.619264 1.514501 -0.000019 -0.000022 -0.000050
 28   2.916892 1.618870 -1.501142 -0.000002 -0.000009 -0.000024
 29   8.824059 0.150544 0.091743 0.000006 -0.000231 -0.174534
 30   2.111085 -0.561179 1.784320 -0.000008 -0.000682 0.000024
 31   2.121290 -0.561289 -1.853599 0.000000 0.000000 -0.000002
 32   -0.814395 -0.093824 3.127092 0.262921 -3.097582 -0.334816
 33   14.298673 -0.408176 0.471578 0.003687 -0.003117 -0.522469
 34   15.835795 0.581398 0.242756 -0.001271 0.032067 0.122292
 35   -0.815868 -0.091229 -3.114430 -0.132889 3.034913 -0.011455
 36   14.294526 -0.410349 -0.467541 -0.002676 0.001869 -0.384764
 37   15.834409 0.579420 -0.284600 -0.034128 0.026558 0.304555
 38   1.139685 -3.453749 -2.823813 0.000000 0.000000 0.000001
 39   -4.457742 -1.054854 -0.746180 0.000000 0.000000 0.000000
 40   1.118101 -3.449769 3.237290 0.000000 0.000001 0.000000
 41   -4.433840 -1.059130 0.959566 -0.000001 0.000000 0.000000
 42   -0.657468 1.697302 -2.688614 0.000000 0.000002 0.000000
 43   -0.664068 1.698578 2.869377 0.000000 0.000002 0.000000
time 13
  0   -0.010486 -0.546892 1.863709 0.000000 0.000000 -1.571354
  1   -1.093036 0.000002 -0.326057 -1.570808 -1.570749 0.000022
  2   2.262337 0.113614 0.064702 -0.010242 -0.042748 -0.077175
  3   2.380047 0.353302 0.047440 -0.014746 0.054538 0.044362
  4   2.033756 0.190472 -0.000128 0.002941 -0.048549 -0.127542
  5   2.451511 0.204909 -0.003447 -0.170758 -0.018727 -0.100684
  6   7.247600 -0.397300 -0.109469 -0.016634 0.002250 0.459335
  7   -2.022252 -0.104661 3.136172 1.822362 -1.010228 -5.463881
  8   1.168026 -0.537438 -0.063437 -1.613038 1.298578 -1.779768
  9   6.790376 -0.619176 0.015206 -0.000102 -0.000085 -1.729489
 10   8.637599 0.544015 -0.090417 -2.788754 -0.166393 0.864827
 11   6.790465 -0.619039 0.017802 0.003512 -0.011793 -1.225851
 12   -2.022474 -0.104699 -2.873818 -2.302289 1.868006 -5.925009
 13   1.167898 -0.537463 0.063297 -1.521211 -0.549937 0.447806
 14   7.002743 -0.617765 -0.183752 0.000172 0.000137 -1.865943
 15   8.209042 0.615527 -0.255885 1.449581 0.606726 -1.234626
 16   7.002735 -0.617911 -0.183641 0.013025 0.010300 -1.324783
 17   1.574674 0.609930 -0.000899 0.197704 0.118342 -0.560559
 18   -0.602177 0.511412 -0.000006 0.000000 0.000000 0.000000
 19   3.673773 0.177020 1.119313 -0.000002 -0.000014 -0.174510
 20   3.673767 0.176993 -1.117566 0.000007 -0.000003 -0.174546
 21   3.942357 1.334540 1.627658 0.000002 -0.000011 -0.000026
 22   -0.246060 -0.011889 0.516521 -0.000011 0.000031 0.000025
 23   3.942374 1.334565 -1.631083 0.000019 0.000002 -0.000024
 24   -0.246150 -0.011872 -0.516511 -0.000005 -0.000006 0.000048
 25   4.941364 1.997338 1.629330 0.000018 -0.000001 -0.000024
 26   4.941382 1.997366 -1.629410 -0.000001 0.000005 -0.000024
 27   2.914462 1.619264 1.514501 -0.000019 -0.000022 -0.000050
 28   2.916892 1.618870 -1.501142 -0.000002 -0.000009 -0.000024
 29   8.824059 0.150544 0.091743 0.000006 -0.000231 -0.174534
 30   2.111085 -0.561179 1.784320 -0.000008 -0.000682 0.000024
 31   2.121290 -0.561289 -1.853599 0.000000 0.000000 -0.000002
 32   -0.814395 -0.093824 3.127092 0.262921 -3.097582 -0.334816
 33   14.298673 -0.408176 0.471578 0.003687 -0.003117 -0.522469
 34   15.835795 0.581398 0.242756 -0.001271 0.032067 0.122292
 35   -0.815868 -0.091229 -3.114430 -0.132889 3.034913 -0.011455
 36   14.294526 -0.410349 -0.467541 -0.002676 0.001869 -0.384764
 37   15.834409 0.579420 -0.284600 -0.034128 0.026558 0.304555
 38   1.139685 -3.453749 -2.823813 0.000000 0.000000 0.000001
 39   -4.457742 -1.054854 -0.746180 0.000000 0.000000 0.000000
 40   1.118101 -3.449769 3.237290 0.000000 0.000001 0.000000
 41   -4.433840 -1.059130 0.959566 -0.000001 0.000000 0.000000
 42   -0.657468 1.697302 -2.688614 0.000000 0.000002 0.000000
 43   -0.664068 1.698578 2.869377 0.000000 0.000002 0.000000
time 14
  0   -0.010486 -0.546892 1.863709 0.000000 0.000000 -1.571354
  1   -1.093036 0.000002 -0.326057 -1.570808 -1.570749 0.000022
  2   2.262337 0.113614 0.064702 -0.010242 -0.042748 -0.077175
  3   2.380047 0.353302 0.047440 -0.015346 0.054466 0.044300
  4   2.033756 0.190472 -0.000128 0.003070 -0.049916 -0.127252
  5   2.451511 0.204909 -0.003447 -0.167797 -0.022787 -0.099619
  6   7.247600 -0.397300 -0.109469 -0.016634 0.002250 0.459335
  7   -2.022252 -0.104661 3.136172 1.822362 -1.010228 -5.463881
  8   1.168026 -0.537438 -0.063437 -1.344602 1.240817 -1.372561
  9   6.790376 -0.619176 0.015206 -0.000102 -0.000085 -1.760657
 10   8.637599 0.544015 -0.090417 -2.786024 -0.112192 0.773674
 11   6.790465 -0.619039 0.017802 0.003658 -0.011850 -1.247710
 12   -2.022474 -0.104699 -2.873818 -2.302289 1.868006 -5.925009
 13   1.167898 -0.537463 0.063297 -1.512775 -0.577856 0.443508
 14   7.002743 -0.617765 -0.183752 0.000172 0.000137 -1.869326
 15   8.209042 0.615527 -0.255885 1.365527 0.622615 -1.214119
 16   7.002735 -0.617911 -0.183641 0.013025 0.010356 -1.327156
 17   1.574674 0.609930 -0.000899 0.192586 0.121608 -0.558785
 18   -0.602177 0.511412 -0.000006 0.000000 0.000000 0.000000
 19   3.673773 0.177020 1.119313 -0.000002 -0.000014 -0.174510
 20   3.673767 0.176993 -1.117566 0.000007 -0.000003 -0.174546
 21   3.942357 1.334540 1.627658 0.000002 -0.000011 -0.000026
 22   -0.246060 -0.011889 0.516521 -0.000011 0.000031 0.000025
 23   3.942374 1.334565 -1.631083 0.000019 0.000002 -0.000024
 24   -0.246150 -0.011872 -0.516511 -0.000005 -0.000006 0.000048
 25   4.941364 1.997338 1.629330 0.000018 -0.000001 -0.000024
 26   4.941382 1.997366 -1.629410 -0.000001 0.000005 -0.000024
 27   2.914462 1.619264 1.514501 -0.000019 -0.000022 -0.000050
 28   2.916892 1.618870 -1.501142 -0.000002 -0.000009 -0.000024
 29   8.824059 0.150544 0.091743 0.000006 -0.000231 -0.174534
 30   2.111085 -0.561179 1.784320 -0.000008 -0.000682 0.000024
 31   2.121290 -0.561289 -1.853599 0.000000 0.000000 -0.000002
 32   -0.814395 -0.093824 3.127092 0.262921 -3.097582 -0.334816
 33   14.298673 -0.408176 0.471578 0.003687 -0.003117 -0.522469
 34   15.835795 0.581398 0.242756 -0.001271 0.032067 0.122292
 35   -0.815868 -0.091229 -3.114430 -0.132889 3.034913 -0.011455
 36   14.294526 -0.410349 -0.467541 -0.002676 0.001869 -0.384764
 37   15.834409 0.579420 -0.284600 -0.034128 0.026558 0.304555
 38   1.139685 -3.453749 -2.823813 0.000000 0.000000 0.000001
 39   -4.457742 -1.054854 -0.746180 0.000000 0.000000 0.000000
 40   1.118101 -3.449769 3.237290 0.000000 0.000001 0.000000
 41   -4.433840 -1.059130 0.959566 -0.000001 0.000000 0.000000
 42   -0.657468 1.697302 -2.688614 0.000000 0.000002 0.000000
 43   -0.664068 1.698578 2.869377 0.000000 0.000002 0.000000
time 15
  0   -0.010486 -0.546892 1.863709 0.000000 0.000000 -1.571354
  1   -1.093036 0.000002 -0.326057 -1.570808 -1.570749 0.000022
  2   2.262337 0.113614 0.064702 -0.010242 -0.042748 -0.077175
  3   2.380047 0.353302 0.047440 -0.016066 0.054322 0.044198
  4   2.033756 0.190472 -0.000128 0.003273 -0.051306 -0.126998
  5   2.451511 0.204909 -0.003447 -0.164630 -0.027082 -0.098554
  6   7.247600 -0.397300 -0.109469 -0.016634 0.002250 0.459335
  7   -2.022252 -0.104661 3.136172 1.822362 -1.010228 -5.463881
  8   1.168026 -0.537438 -0.063437 -1.226078 1.152616 -1.117621
  9   6.790376 -0.619176 0.015206 -0.000102 -0.000085 -1.734621
 10   8.637599 0.544015 -0.090417 -2.830320 -0.053979 0.642296
 11   6.790465 -0.619039 0.017802 0.003541 -0.011793 -1.229542
 12   -2.022474 -0.104699 -2.873818 -2.302289 1.868006 -5.925009
 13   1.167898 -0.537463 0.063297 -1.503567 -0.606131 0.438726
 14   7.002743 -0.617765 -0.183752 0.000172 0.000137 -1.878319
 15   8.209042 0.615527 -0.255885 1.275360 0.644178 -1.183208
 16   7.002735 -0.617911 -0.183641 0.012978 0.010356 -1.333503
 17   1.574674 0.609930 -0.000899 0.187468 0.125561 -0.557269
 18   -0.602177 0.511412 -0.000006 0.000000 0.000000 0.000000
 19   3.673773 0.177020 1.119313 -0.000002 -0.000014 -0.174510
 20   3.673767 0.176993 -1.117566 0.000007 -0.000003 -0.174546
 21   3.942357 1.334540 1.627658 0.000002 -0.000011 -0.000026
 22   -0.246060 -0.011889 0.516521 -0.000011 0.000031 0.000025
 23   3.942374 1.334565 -1.631083 0.000019 0.000002 -0.000024
 24   -0.246150 -0.011872 -0.516511 -0.000005 -0.000006 0.000048
 25   4.941364 1.997338 1.629330 0.000018 -0.000001 -0.000024
 26   4.941382 1.997366 -1.629410 -0.000001 0.000005 -0.000024
 27   2.914462 1.619264 1.514501 -0.000019 -0.000022 -0.000050
 28   2.916892 1.618870 -1.501142 -0.000002 -0.000009 -0.000024
 29   8.824059 0.150544 0.091743 0.000006 -0.000231 -0.174534
 30   2.111085 -0.561179 1.784320 -0.000008 -0.000682 0.000024
 31   2.121290 -0.561289 -1.853599 0.000000 0.000000 -0.000002
 32   -0.814395 -0.093824 3.127092 0.262921 -3.097582 -0.334816
 33   14.298673 -0.408176 0.471578 0.003687 -0.003117 -0.522469
 34   15.835795 0.581398 0.242756 -0.001271 0.032067 0.122292
 35   -0.815868 -0.091229 -3.114430 -0.132889 3.034913 -0.011455
 36   14.294526 -0.410349 -0.467541 -0.002676 0.001869 -0.384764
 37   15.834409 0.579420 -0.284600 -0.034128 0.026558 0.304555
 38   1.139685 -3.453749 -2.823813 0.000000 0.000000 0.000001
 39   -4.457742 -1.054854 -0.746180 0.000000 0.000000 0.000000
 40   1.118101 -3.449769 3.237290 0.000000 0.000001 0.000000
 41   -4.433840 -1.059130 0.959566 -0.000001 0.000000 0.000000
 42   -0.657468 1.697302 -2.688614 0.000000 0.000002 0.000000
 43   -0.664068 1.698578 2.869377 0.000000 0.000002 0.000000
time 16
  0   -0.010486 -0.546892 1.863709 0.000000 0.000000 -1.571354
  1   -1.093036 0.000002 -0.326057 -1.570808 -1.570749 0.000022
  2   2.262337 0.113614 0.064702 -0.010242 -0.042748 -0.077175
  3   2.380047 0.353302 0.047440 -0.016756 0.054238 0.044137
  4   2.033756 0.190472 -0.000128 0.003439 -0.052612 -0.126672
  5   2.451511 0.204909 -0.003447 -0.161652 -0.031351 -0.097514
  6   7.247600 -0.397300 -0.109469 -0.016634 0.002250 0.459335
  7   -2.022252 -0.104661 3.136172 1.822362 -1.010228 -5.463881
  8   1.168026 -0.537438 -0.063437 -1.207790 1.126352 -1.062079
  9   6.790376 -0.619176 0.015206 -0.000102 -0.000085 -1.699000
 10   8.637599 0.544015 -0.090417 -2.870126 0.001629 0.533491
 11   6.790465 -0.619039 0.017802 0.003395 -0.011793 -1.204626
 12   -2.022474 -0.104699 -2.873818 -2.302289 1.868006 -5.925009
 13   1.167898 -0.537463 0.063297 -1.498154 -0.625201 0.436728
 14   7.002743 -0.617765 -0.183752 0.000172 0.000137 -1.894985
 15   8.209042 0.615527 -0.255885 1.193175 0.672626 -1.158612
 16   7.002735 -0.617911 -0.183641 0.012978 0.010469 -1.345149
 17   1.574674 0.609930 -0.000899 0.183040 0.129892 -0.556234
 18   -0.602177 0.511412 -0.000006 0.000000 0.000000 0.000000
 19   3.673773 0.177020 1.119313 -0.000002 -0.000014 -0.174510
 20   3.673767 0.176993 -1.117566 0.000007 -0.000003 -0.174546
 21   3.942357 1.334540 1.627658 0.000002 -0.000011 -0.000026
 22   -0.246060 -0.011889 0.516521 -0.000011 0.000031 0.000025
 23   3.942374 1.334565 -1.631083 0.000019 0.000002 -0.000024
 24   -0.246150 -0.011872 -0.516511 -0.000005 -0.000006 0.000048
 25   4.941364 1.997338 1.629330 0.000018 -0.000001 -0.000024
 26   4.941382 1.997366 -1.629410 -0.000001 0.000005 -0.000024
 27   2.914462 1.619264 1.514501 -0.000019 -0.000022 -0.000050
 28   2.916892 1.618870 -1.501142 -0.000002 -0.000009 -0.000024
 29   8.824059 0.150544 0.091743 0.000006 -0.000231 -0.174534
 30   2.111085 -0.561179 1.784320 -0.000008 -0.000682 0.000024
 31   2.121290 -0.561289 -1.853599 0.000000 0.000000 -0.000002
 32   -0.814395 -0.093824 3.127092 0.262921 -3.097582 -0.334816
 33   14.298673 -0.408176 0.471578 0.003687 -0.003117 -0.522469
 34   15.835795 0.581398 0.242756 -0.001271 0.032067 0.122292
 35   -0.815868 -0.091229 -3.114430 -0.132889 3.034913 -0.011455
 36   14.294526 -0.410349 -0.467541 -0.002676 0.001869 -0.384764
 37   15.834409 0.579420 -0.284600 -0.034128 0.026558 0.304555
 38   1.139685 -3.453749 -2.823813 0.000000 0.000000 0.000001
 39   -4.457742 -1.054854 -0.746180 0.000000 0.000000 0.000000
 40   1.118101 -3.449769 3.237290 0.000000 0.000001 0.000000
 41   -4.433840 -1.059130 0.959566 -0.000001 0.000000 0.000000
 42   -0.657468 1.697302 -2.688614 0.000000 0.000002 0.000000
 43   -0.664068 1.698578 2.869377 0.000000 0.000002 0.000000
end
