version 1
nodes
  0 "Bip01" -1
  1 "Bip01 Pelvis" 0
  2 "Bip01 Spine" 1
  3 "Bip01 Spine1" 2
  4 "Bip01 Spine2" 3
  5 "Bip01 Spine3" 4
  6 "Bip01 Neck" 5
  7 "Bip01 L Arm" 6
  8 "Bip01 L Arm1" 7
  9 "Bip01 L Arm2" 8
 10 "Bip01 L Hand" 9
 11 "Bip06 L elbow2-smooth" 8
 12 "Bip01 R Arm" 6
 13 "Bip01 R Arm1" 12
 14 "Bip01 R Arm2" 13
 15 "Bip01 R Hand" 14
 16 "Bip06 R elbow2-smooth" 13
 17 "Bip01 Head" 6
 18 "Bip06 Head_helper" 17
 19 "Bip06 Head_eyes_l" 18
 20 "Bip06 Head_eyes_r" 18
 21 "Bip06 Head_blink_l" 18
 22 "Bip06 Head_blink_smooth_l1" 21
 23 "Bip06 Head_blink_r" 18
 24 "Bip06 Head_blink_smooth_r1" 23
 25 "Bip06 Head_L_eyebrow" 18
 26 "Bip06 Head_R_eyebrow" 18
 27 "Bip06 Head_blink_l_lid" 18
 28 "Bip06 Head_blink_r_lid" 18
 29 "Bip06 bunny" 18
 30 "Bip06 bunnyL" 29
 31 "Bip06 bunnyR" 29
 32 "Bip01 L Leg" 1
 33 "Bip01 L Leg1" 32
 34 "Bip01 L Foot" 33
 35 "Bip01 R Leg" 1
 36 "Bip01 R Leg1" 35
 37 "Bip01 R Foot" 36
 38 "Bip03 HairR1" 17
 39 "Bip03 HairR2" 38
 40 "Bip03 HairL1" 17
 41 "Bip03 HairL2" 40
 42 "Bip03 swingR" 17
 43 "Bip03 swingL" 17
end
skeleton
time 0
  0   -0.756603 -0.917997 1.293379 0.000000 0.000000 -1.571069
  1   -1.093036 0.000002 -0.326057 -1.569027 -1.622749 -0.001768
  2   2.262337 0.113614 0.064702 -0.056530 -0.089644 0.317420
  3   2.380047 0.353302 0.047440 -0.109867 -0.036965 0.321571
  4   2.033756 0.190472 -0.000128 -0.137739 -0.069822 0.012045
  5   2.451511 0.204909 -0.003447 -0.370443 -0.026051 -0.029929
  6   7.247600 -0.397300 -0.109469 0.056796 0.015841 0.258572
  7   -2.022252 -0.104661 3.136172 1.039298 -1.365783 -4.434464
  8   1.168026 -0.537438 -0.063437 -1.100466 0.841523 -0.892604
  9   6.790376 -0.619176 0.015206 0.117459 -0.065423 -1.328833
 10   8.637599 0.544015 -0.090417 -3.347173 0.249685 0.718692
 11   6.790465 -0.619039 0.017802 0.076444 -0.074414 -0.944859
 12   -2.022474 -0.104699 -2.873818 -0.202006 1.687361 -3.578490
 13   1.167898 -0.537463 0.063297 0.163861 -0.905868 -1.206791
 14   7.002743 -0.617765 -0.183752 -0.100598 0.021147 -2.051910
 15   8.209042 0.615527 -0.255885 2.523882 0.154888 0.944931
 16   7.002735 -0.617911 -0.183641 -0.056223 0.049546 -1.454982
 17   1.574674 0.609930 -0.000899 0.504396 0.018326 0.495972
 18   -0.602177 0.511412 -0.000006 0.000000 0.000000 0.000000
 19   3.673773 0.177020 1.119313 -0.000002 -0.000014 -0.174510
 20   3.673767 0.176993 -1.117566 0.000007 -0.000003 -0.174546
 21   3.942357 1.334540 1.627658 0.000002 -0.000011 -0.000026
 22   -0.246060 -0.011889 0.516521 -0.000011 0.000031 0.000025
 23   3.942374 1.334565 -1.631083 0.000019 0.000002 -0.000024
 24   -0.246150 -0.011872 -0.516511 -0.000005 -0.000006 0.000048
 25   4.941364 1.997338 1.629330 0.000018 -0.000001 -0.000024
 26   4.941382 1.997366 -1.629410 -0.000001 0.000005 -0.000024
 27   2.914462 1.619264 1.514501 -0.000019 -0.000022 -0.000050
 28   2.916892 1.618870 -1.501142 -0.000002 -0.000009 -0.000024
 29   8.824059 0.150544 0.091743 0.000006 -0.000231 -0.174534
 30   2.111085 -0.561179 1.784320 -0.000008 -0.000682 0.000024
 31   2.121290 -0.561289 -1.853599 0.000000 0.000000 -0.000002
 32   -0.814395 -0.093824 3.127092 0.308687 -2.963967 -0.295198
 33   14.298673 -0.408176 0.471578 0.010842 -0.088873 -0.467446
 34   15.835795 0.581398 0.242756 -0.305894 -0.201989 0.256011
 35   -0.815868 -0.091229 -3.114430 -0.040474 2.853438 0.069178
 36   14.294526 -0.410349 -0.467541 -0.007038 0.076845 -0.395888
 37   15.834409 0.579420 -0.284600 0.275375 0.101015 0.399520
 38   1.139685 -3.453749 -2.823813 0.000000 0.000000 0.000001
 39   -4.457742 -1.054854 -0.746180 0.000000 0.000000 0.000000
 40   1.118101 -3.449769 3.237290 0.000000 0.000001 0.000000
 41   -4.433840 -1.059130 0.959566 -0.000001 0.000000 0.000000
 42   -0.657468 1.697302 -2.688614 0.000000 0.000002 0.000000
 43   -0.664068 1.698578 2.869377 0.000000 0.000002 0.000000
time 1
  0   -0.756603 -0.917997 1.293379 0.000000 0.000000 -1.571069
  1   -1.093036 0.000002 -0.326057 -1.569027 -1.622749 -0.001768
  2   2.262337 0.113614 0.064702 -0.056530 -0.089644 0.317420
  3   2.380047 0.353302 0.047440 -0.109867 -0.036965 0.321571
  4   2.033756 0.190472 -0.000128 -0.137739 -0.069822 0.012045
  5   2.451511 0.204909 -0.003447 -0.387235 0.000896 -0.111011
  6   7.247600 -0.397300 -0.109469 0.056796 0.015841 0.258572
  7   -2.022252 -0.104661 3.136172 1.039298 -1.365783 -4.434464
  8   1.168026 -0.537438 -0.063437 -1.121412 0.924944 -0.886784
  9   6.790376 -0.619176 0.015206 0.227142 -0.002621 -1.562027
 10   8.637599 0.544015 -0.090417 -3.347173 0.249685 0.718692
 11   6.790465 -0.619039 0.017802 0.165318 -0.051020 -1.110328
 12   -2.022474 -0.104699 -2.873818 -0.202006 1.687361 -3.578490
 13   1.167898 -0.537463 0.063297 0.039437 -0.944975 -1.129488
 14   7.002743 -0.617765 -0.183752 -0.287849 0.125517 -2.217004
 15   8.209042 0.615527 -0.255885 2.523882 0.154888 0.944931
 16   7.002735 -0.617911 -0.183641 -0.168500 0.175912 -1.566251
 17   1.574674 0.609930 -0.000899 0.478886 -0.029173 0.564609
 18   -0.602177 0.511412 -0.000006 0.000000 0.000000 0.000000
 19   3.673773 0.177020 1.119313 -0.000002 -0.000014 -0.174510
 20   3.673767 0.176993 -1.117566 0.000007 -0.000003 -0.174546
 21   3.942357 1.334540 1.627658 0.000002 -0.000011 -0.000026
 22   -0.246060 -0.011889 0.516521 -0.000011 0.000031 0.000025
 23   3.942374 1.334565 -1.631083 0.000019 0.000002 -0.000024
 24   -0.246150 -0.011872 -0.516511 -0.000005 -0.000006 0.000048
 25   4.941364 1.997338 1.629330 0.000018 -0.000001 -0.000024
 26   4.941382 1.997366 -1.629410 -0.000001 0.000005 -0.000024
 27   2.914462 1.619264 1.514501 -0.000019 -0.000022 -0.000050
 28   2.916892 1.618870 -1.501142 -0.000002 -0.000009 -0.000024
 29   8.824059 0.150544 0.091743 0.000006 -0.000231 -0.174534
 30   2.111085 -0.561179 1.784320 -0.000008 -0.000682 0.000024
 31   2.121290 -0.561289 -1.853599 0.000000 0.000000 -0.000002
 32   -0.814395 -0.093824 3.127092 0.308687 -2.963967 -0.295198
 33   14.298673 -0.408176 0.471578 0.010842 -0.088873 -0.467446
 34   15.835795 0.581398 0.242756 -0.305894 -0.201989 0.256011
 35   -0.815868 -0.091229 -3.114430 -0.040474 2.853438 0.069178
 36   14.294526 -0.410349 -0.467541 -0.007038 0.076845 -0.395888
 37   15.834409 0.579420 -0.284600 0.275375 0.101015 0.399520
 38   1.139685 -3.453749 -2.823813 0.000000 0.000000 0.000001
 39   -4.457742 -1.054854 -0.746180 0.000000 0.000000 0.000000
 40   1.118101 -3.449769 3.237290 0.000000 0.000001 0.000000
 41   -4.433840 -1.059130 0.959566 -0.000001 0.000000 0.000000
 42   -0.657468 1.697302 -2.688614 0.000000 0.000002 0.000000
 43   -0.664068 1.698578 2.869377 0.000000 0.000002 0.000000
time 2
  0   -0.756603 -0.917997 1.293379 0.000000 0.000000 -1.571069
  1   -1.093036 0.000002 -0.326057 -1.569027 -1.622749 -0.001768
  2   2.262337 0.113614 0.064702 -0.056530 -0.089644 0.317420
  3   2.380047 0.353302 0.047440 -0.109867 -0.036965 0.321571
  4   2.033756 0.190472 -0.000128 -0.137739 -0.069822 0.012045
  5   2.451511 0.204909 -0.003447 -0.385677 -0.001441 -0.103804
  6   7.247600 -0.397300 -0.109469 0.056796 0.015841 0.258572
  7   -2.022252 -0.104661 3.136172 1.039298 -1.365783 -4.434464
  8   1.168026 -0.537438 -0.063437 -1.119387 0.917598 -0.887100
  9   6.790376 -0.619176 0.015206 0.217378 -0.008294 -1.541349
 10   8.637599 0.544015 -0.090417 -3.347173 0.249685 0.718692
 11   6.790465 -0.619039 0.017802 0.157289 -0.052896 -1.095678
 12   -2.022474 -0.104699 -2.873818 -0.202006 1.687361 -3.578490
 13   1.167898 -0.537463 0.063297 0.050684 -0.941517 -1.136510
 14   7.002743 -0.617765 -0.183752 -0.271168 0.116261 -2.202235
 15   8.209042 0.615527 -0.255885 2.523882 0.154888 0.944931
 16   7.002735 -0.617911 -0.183641 -0.158661 0.164352 -1.556537
 17   1.574674 0.609930 -0.000899 0.481160 -0.024937 0.558473
 18   -0.602177 0.511412 -0.000006 0.000000 0.000000 0.000000
 19   3.673773 0.177020 1.119313 -0.000002 -0.000014 -0.174510
 20   3.673767 0.176993 -1.117566 0.000007 -0.000003 -0.174546
 21   3.942357 1.334540 1.627658 0.000002 -0.000011 -0.000026
 22   -0.246060 -0.011889 0.516521 -0.000011 0.000031 0.000025
 23   3.942374 1.334565 -1.631083 0.000019 0.000002 -0.000024
 24   -0.246150 -0.011872 -0.516511 -0.000005 -0.000006 0.000048
 25   4.941364 1.997338 1.629330 0.000018 -0.000001 -0.000024
 26   4.941382 1.997366 -1.629410 -0.000001 0.000005 -0.000024
 27   2.914462 1.619264 1.514501 -0.000019 -0.000022 -0.000050
 28   2.916892 1.618870 -1.501142 -0.000002 -0.000009 -0.000024
 29   8.824059 0.150544 0.091743 0.000006 -0.000231 -0.174534
 30   2.111085 -0.561179 1.784320 -0.000008 -0.000682 0.000024
 31   2.121290 -0.561289 -1.853599 0.000000 0.000000 -0.000002
 32   -0.814395 -0.093824 3.127092 0.308687 -2.963967 -0.295198
 33   14.298673 -0.408176 0.471578 0.010842 -0.088873 -0.467446
 34   15.835795 0.581398 0.242756 -0.305894 -0.201989 0.256011
 35   -0.815868 -0.091229 -3.114430 -0.040474 2.853438 0.069178
 36   14.294526 -0.410349 -0.467541 -0.007038 0.076845 -0.395888
 37   15.834409 0.579420 -0.284600 0.275375 0.101015 0.399520
 38   1.139685 -3.453749 -2.823813 0.000000 0.000000 0.000001
 39   -4.457742 -1.054854 -0.746180 0.000000 0.000000 0.000000
 40   1.118101 -3.449769 3.237290 0.000000 0.000001 0.000000
 41   -4.433840 -1.059130 0.959566 -0.000001 0.000000 0.000000
 42   -0.657468 1.697302 -2.688614 0.000000 0.000002 0.000000
 43   -0.664068 1.698578 2.869377 0.000000 0.000002 0.000000
time 3
  0   -0.756603 -0.917997 1.293379 0.000000 0.000000 -1.571069
  1   -1.093036 0.000002 -0.326057 -1.569027 -1.622749 -0.001768
  2   2.262337 0.113614 0.064702 -0.056530 -0.089644 0.317420
  3   2.380047 0.353302 0.047440 -0.109867 -0.036965 0.321571
  4   2.033756 0.190472 -0.000128 -0.137739 -0.069822 0.012045
  5   2.451511 0.204909 -0.003447 -0.381552 -0.008191 -0.083472
  6   7.247600 -0.397300 -0.109469 0.056796 0.015841 0.258572
  7   -2.022252 -0.104661 3.136172 1.039298 -1.365783 -4.434464
  8   1.168026 -0.537438 -0.063437 -1.113755 0.896768 -0.888302
  9   6.790376 -0.619176 0.015206 0.190026 -0.024044 -1.483088
 10   8.637599 0.544015 -0.090417 -3.347173 0.249685 0.718692
 11   6.790465 -0.619039 0.017802 0.134749 -0.058411 -1.054095
 12   -2.022474 -0.104699 -2.873818 -0.202006 1.687361 -3.578490
 13   1.167898 -0.537463 0.063297 0.082107 -0.931804 -1.156063
 14   7.002743 -0.617765 -0.183752 -0.224370 0.090197 -2.160817
 15   8.209042 0.615527 -0.255885 2.523882 0.154888 0.944931
 16   7.002735 -0.617911 -0.183641 -0.130745 0.132098 -1.529051
 17   1.574674 0.609930 -0.000899 0.487497 -0.013009 0.541360
 18   -0.602177 0.511412 -0.000006 0.000000 0.000000 0.000000
 19   3.673773 0.177020 1.119313 -0.000002 -0.000014 -0.174510
 20   3.673767 0.176993 -1.117566 0.000007 -0.000003 -0.174546
 21   3.942357 1.334540 1.627658 0.000002 -0.000011 -0.000026
 22   -0.246060 -0.011889 0.516521 -0.000011 0.000031 0.000025
 23   3.942374 1.334565 -1.631083 0.000019 0.000002 -0.000024
 24   -0.246150 -0.011872 -0.516511 -0.000005 -0.000006 0.000048
 25   4.941364 1.997338 1.629330 0.000018 -0.000001 -0.000024
 26   4.941382 1.997366 -1.629410 -0.000001 0.000005 -0.000024
 27   2.914462 1.619264 1.514501 -0.000019 -0.000022 -0.000050
 28   2.916892 1.618870 -1.501142 -0.000002 -0.000009 -0.000024
 29   8.824059 0.150544 0.091743 0.000006 -0.000231 -0.174534
 30   2.111085 -0.561179 1.784320 -0.000008 -0.000682 0.000024
 31   2.121290 -0.561289 -1.853599 0.000000 0.000000 -0.000002
 32   -0.814395 -0.093824 3.127092 0.308687 -2.963967 -0.295198
 33   14.298673 -0.408176 0.471578 0.010842 -0.088873 -0.467446
 34   15.835795 0.581398 0.242756 -0.305894 -0.201989 0.256011
 35   -0.815868 -0.091229 -3.114430 -0.040474 2.853438 0.069178
 36   14.294526 -0.410349 -0.467541 -0.007038 0.076845 -0.395888
 37   15.834409 0.579420 -0.284600 0.275375 0.101015 0.399520
 38   1.139685 -3.453749 -2.823813 0.000000 0.000000 0.000001
 39   -4.457742 -1.054854 -0.746180 0.000000 0.000000 0.000000
 40   1.118101 -3.449769 3.237290 0.000000 0.000001 0.000000
 41   -4.433840 -1.059130 0.959566 -0.000001 0.000000 0.000000
 42   -0.657468 1.697302 -2.688614 0.000000 0.000002 0.000000
 43   -0.664068 1.698578 2.869377 0.000000 0.000002 0.000000
time 4
  0   -0.756603 -0.917997 1.293379 0.000000 0.000000 -1.571069
  1   -1.093036 0.000002 -0.326057 -1.569027 -1.622749 -0.001768
  2   2.262337 0.113614 0.064702 -0.056530 -0.089644 0.317420
  3   2.380047 0.353302 0.047440 -0.109867 -0.036965 0.321571
  4   2.033756 0.190472 -0.000128 -0.137739 -0.069822 0.012045
  5   2.451511 0.204909 -0.003447 -0.376160 -0.016886 -0.057394
  6   7.247600 -0.397300 -0.109469 0.056796 0.015841 0.258572
  7   -2.022252 -0.104661 3.136172 1.039298 -1.365783 -4.434464
  8   1.168026 -0.537438 -0.063437 -1.106984 0.869850 -0.890200
  9   6.790376 -0.619176 0.015206 0.154908 -0.044200 -1.408073
 10   8.637599 0.544015 -0.090417 -3.347173 0.249685 0.718692
 11   6.790465 -0.619039 0.017802 0.106195 -0.065972 -1.000919
 12   -2.022474 -0.104699 -2.873818 -0.202006 1.687361 -3.578490
 13   1.167898 -0.537463 0.063297 0.122105 -0.919293 -1.180882
 14   7.002743 -0.617765 -0.183752 -0.164135 0.056694 -2.107766
 15   8.209042 0.615527 -0.255885 2.523882 0.154888 0.944931
 16   7.002735 -0.617911 -0.183641 -0.094638 0.091499 -1.493341
 17   1.574674 0.609930 -0.000899 0.495743 0.002209 0.519221
 18   -0.602177 0.511412 -0.000006 0.000000 0.000000 0.000000
 19   3.673773 0.177020 1.119313 -0.000002 -0.000014 -0.174510
 20   3.673767 0.176993 -1.117566 0.000007 -0.000003 -0.174546
 21   3.942357 1.334540 1.627658 0.000002 -0.000011 -0.000026
 22   -0.246060 -0.011889 0.516521 -0.000011 0.000031 0.000025
 23   3.942374 1.334565 -1.631083 0.000019 0.000002 -0.000024
 24   -0.246150 -0.011872 -0.516511 -0.000005 -0.000006 0.000048
 25   4.941364 1.997338 1.629330 0.000018 -0.000001 -0.000024
 26   4.941382 1.997366 -1.629410 -0.000001 0.000005 -0.000024
 27   2.914462 1.619264 1.514501 -0.000019 -0.000022 -0.000050
 28   2.916892 1.618870 -1.501142 -0.000002 -0.000009 -0.000024
 29   8.824059 0.150544 0.091743 0.000006 -0.000231 -0.174534
 30   2.111085 -0.561179 1.784320 -0.000008 -0.000682 0.000024
 31   2.121290 -0.561289 -1.853599 0.000000 0.000000 -0.000002
 32   -0.814395 -0.093824 3.127092 0.308687 -2.963967 -0.295198
 33   14.298673 -0.408176 0.471578 0.010842 -0.088873 -0.467446
 34   15.835795 0.581398 0.242756 -0.305894 -0.201989 0.256011
 35   -0.815868 -0.091229 -3.114430 -0.040474 2.853438 0.069178
 36   14.294526 -0.410349 -0.467541 -0.007038 0.076845 -0.395888
 37   15.834409 0.579420 -0.284600 0.275375 0.101015 0.399520
 38   1.139685 -3.453749 -2.823813 0.000000 0.000000 0.000001
 39   -4.457742 -1.054854 -0.746180 0.000000 0.000000 0.000000
 40   1.118101 -3.449769 3.237290 0.000000 0.000001 0.000000
 41   -4.433840 -1.059130 0.959566 -0.000001 0.000000 0.000000
 42   -0.657468 1.697302 -2.688614 0.000000 0.000002 0.000000
 43   -0.664068 1.698578 2.869377 0.000000 0.000002 0.000000
time 5
  0   -0.756603 -0.917997 1.293379 0.000000 0.000000 -1.571069
  1   -1.093036 0.000002 -0.326057 -1.569027 -1.622749 -0.001768
  2   2.262337 0.113614 0.064702 -0.056530 -0.089644 0.317420
  3   2.380047 0.353302 0.047440 -0.109867 -0.036965 0.321571
  4   2.033756 0.190472 -0.000128 -0.137739 -0.069822 0.012045
  5   2.451511 0.204909 -0.003447 -0.371915 -0.023675 -0.037111
  6   7.247600 -0.397300 -0.109469 0.056796 0.015841 0.258572
  7   -2.022252 -0.104661 3.136172 1.039298 -1.365783 -4.434464
  8   1.168026 -0.537438 -0.063437 -1.102238 0.849070 -0.891972
  9   6.790376 -0.619176 0.015206 0.127279 -0.059884 -1.349661
 10   8.637599 0.544015 -0.090417 -3.347173 0.249685 0.718692
 11   6.790465 -0.619039 0.017802 0.084210 -0.072168 -0.959623
 12   -2.022474 -0.104699 -2.873818 -0.202006 1.687361 -3.578490
 13   1.167898 -0.537463 0.063297 0.153036 -0.909377 -1.200011
 14   7.002743 -0.617765 -0.183752 -0.117166 0.030460 -2.066431
 15   8.209042 0.615527 -0.255885 2.523882 0.154888 0.944931
 16   7.002735 -0.617911 -0.183641 -0.066298 0.060485 -1.465138
 17   1.574674 0.609930 -0.000899 0.502121 0.014113 0.502071
 18   -0.602177 0.511412 -0.000006 0.000000 0.000000 0.000000
 19   3.673773 0.177020 1.119313 -0.000002 -0.000014 -0.174510
 20   3.673767 0.176993 -1.117566 0.000007 -0.000003 -0.174546
 21   3.942357 1.334540 1.627658 0.000002 -0.000011 -0.000026
 22   -0.246060 -0.011889 0.516521 -0.000011 0.000031 0.000025
 23   3.942374 1.334565 -1.631083 0.000019 0.000002 -0.000024
 24   -0.246150 -0.011872 -0.516511 -0.000005 -0.000006 0.000048
 25   4.941364 1.997338 1.629330 0.000018 -0.000001 -0.000024
 26   4.941382 1.997366 -1.629410 -0.000001 0.000005 -0.000024
 27   2.914462 1.619264 1.514501 -0.000019 -0.000022 -0.000050
 28   2.916892 1.618870 -1.501142 -0.000002 -0.000009 -0.000024
 29   8.824059 0.150544 0.091743 0.000006 -0.000231 -0.174534
 30   2.111085 -0.561179 1.784320 -0.000008 -0.000682 0.000024
 31   2.121290 -0.561289 -1.853599 0.000000 0.000000 -0.000002
 32   -0.814395 -0.093824 3.127092 0.308687 -2.963967 -0.295198
 33   14.298673 -0.408176 0.471578 0.010842 -0.088873 -0.467446
 34   15.835795 0.581398 0.242756 -0.305894 -0.201989 0.256011
 35   -0.815868 -0.091229 -3.114430 -0.040474 2.853438 0.069178
 36   14.294526 -0.410349 -0.467541 -0.007038 0.076845 -0.395888
 37   15.834409 0.579420 -0.284600 0.275375 0.101015 0.399520
 38   1.139685 -3.453749 -2.823813 0.000000 0.000000 0.000001
 39   -4.457742 -1.054854 -0.746180 0.000000 0.000000 0.000000
 40   1.118101 -3.449769 3.237290 0.000000 0.000001 0.000000
 41   -4.433840 -1.059130 0.959566 -0.000001 0.000000 0.000000
 42   -0.657468 1.697302 -2.688614 0.000000 0.000002 0.000000
 43   -0.664068 1.698578 2.869377 0.000000 0.000002 0.000000
time 6
  0   -0.756603 -0.917997 1.293379 0.000000 0.000000 -1.571069
  1   -1.093036 0.000002 -0.326057 -1.569027 -1.622749 -0.001768
  2   2.262337 0.113614 0.064702 -0.056530 -0.089644 0.317420
  3   2.380047 0.353302 0.047440 -0.109867 -0.036965 0.321571
  4   2.033756 0.190472 -0.000128 -0.137739 -0.069822 0.012045
  5   2.451511 0.204909 -0.003447 -0.370443 -0.026051 -0.029929
  6   7.247600 -0.397300 -0.109469 0.056796 0.015841 0.258572
  7   -2.022252 -0.104661 3.136172 1.039298 -1.365783 -4.434464
  8   1.168026 -0.537438 -0.063437 -1.100466 0.841523 -0.892604
  9   6.790376 -0.619176 0.015206 0.117459 -0.065423 -1.328833
 10   8.637599 0.544015 -0.090417 -3.347173 0.249685 0.718692
 11   6.790465 -0.619039 0.017802 0.076444 -0.074414 -0.944859
 12   -2.022474 -0.104699 -2.873818 -0.202006 1.687361 -3.578490
 13   1.167898 -0.537463 0.063297 0.163861 -0.905868 -1.206791
 14   7.002743 -0.617765 -0.183752 -0.100598 0.021147 -2.051910
 15   8.209042 0.615527 -0.255885 2.523882 0.154888 0.944931
 16   7.002735 -0.617911 -0.183641 -0.056223 0.049546 -1.454982
 17   1.574674 0.609930 -0.000899 0.504396 0.018326 0.495972
 18   -0.602177 0.511412 -0.000006 0.000000 0.000000 0.000000
 19   3.673773 0.177020 1.119313 -0.000002 -0.000014 -0.174510
 20   3.673767 0.176993 -1.117566 0.000007 -0.000003 -0.174546
 21   3.942357 1.334540 1.627658 0.000002 -0.000011 -0.000026
 22   -0.246060 -0.011889 0.516521 -0.000011 0.000031 0.000025
 23   3.942374 1.334565 -1.631083 0.000019 0.000002 -0.000024
 24   -0.246150 -0.011872 -0.516511 -0.000005 -0.000006 0.000048
 25   4.941364 1.997338 1.629330 0.000018 -0.000001 -0.000024
 26   4.941382 1.997366 -1.629410 -0.000001 0.000005 -0.000024
 27   2.914462 1.619264 1.514501 -0.000019 -0.000022 -0.000050
 28   2.916892 1.618870 -1.501142 -0.000002 -0.000009 -0.000024
 29   8.824059 0.150544 0.091743 0.000006 -0.000231 -0.174534
 30   2.111085 -0.561179 1.784320 -0.000008 -0.000682 0.000024
 31   2.121290 -0.561289 -1.853599 0.000000 0.000000 -0.000002
 32   -0.814395 -0.093824 3.127092 0.308687 -2.963967 -0.295198
 33   14.298673 -0.408176 0.471578 0.010842 -0.088873 -0.467446
 34   15.835795 0.581398 0.242756 -0.305894 -0.201989 0.256011
 35   -0.815868 -0.091229 -3.114430 -0.040474 2.853438 0.069178
 36   14.294526 -0.410349 -0.467541 -0.007038 0.076845 -0.395888
 37   15.834409 0.579420 -0.284600 0.275375 0.101015 0.399520
 38   1.139685 -3.453749 -2.823813 0.000000 0.000000 0.000001
 39   -4.457742 -1.054854 -0.746180 0.000000 0.000000 0.000000
 40   1.118101 -3.449769 3.237290 0.000000 0.000001 0.000000
 41   -4.433840 -1.059130 0.959566 -0.000001 0.000000 0.000000
 42   -0.657468 1.697302 -2.688614 0.000000 0.000002 0.000000
 43   -0.664068 1.698578 2.869377 0.000000 0.000002 0.000000
end
