version 1
nodes
  0 "Bip01" -1
  1 "Bip01 Pelvis" 0
  2 "Bip01 Spine" 1
  3 "Bip01 Spine1" 2
  4 "Bip01 Spine2" 3
  5 "Bip01 Spine3" 4
  6 "Bip01 Neck" 5
  7 "Bip01 L Arm" 6
  8 "Bip01 L Arm1" 7
  9 "Bip01 L Arm2" 8
 10 "Bip01 L Hand" 9
 11 "Bip06 L elbow2-smooth" 8
 12 "Bip01 R Arm" 6
 13 "Bip01 R Arm1" 12
 14 "Bip01 R Arm2" 13
 15 "Bip01 R Hand" 14
 16 "Bip06 R elbow2-smooth" 13
 17 "Bip01 Head" 6
 18 "Bip06 Head_helper" 17
 19 "Bip06 Head_eyes_l" 18
 20 "Bip06 Head_eyes_r" 18
 21 "Bip06 Head_blink_l" 18
 22 "Bip06 Head_blink_smooth_l1" 21
 23 "Bip06 Head_blink_r" 18
 24 "Bip06 Head_blink_smooth_r1" 23
 25 "Bip06 Head_L_eyebrow" 18
 26 "Bip06 Head_R_eyebrow" 18
 27 "Bip06 Head_blink_l_lid" 18
 28 "Bip06 Head_blink_r_lid" 18
 29 "Bip06 bunny" 18
 30 "Bip06 bunnyL" 29
 31 "Bip06 bunnyR" 29
 32 "Bip01 L Leg" 1
 33 "Bip01 L Leg1" 32
 34 "Bip01 L Foot" 33
 35 "Bip01 R Leg" 1
 36 "Bip01 R Leg1" 35
 37 "Bip01 R Foot" 36
 38 "Bip03 HairR1" 17
 39 "Bip03 HairR2" 38
 40 "Bip03 HairL1" 17
 41 "Bip03 HairL2" 40
 42 "Bip03 swingR" 17
 43 "Bip03 swingL" 17
end
skeleton
time 0
  0   0.001233 -0.019532 2.285597 0.000000 0.000000 -1.571829
  1   -1.093036 0.000002 -0.326057 -1.832567 -1.570379 0.261511
  2   2.262337 0.113614 0.064702 0.052337 -0.006830 -0.056412
  3   2.380047 0.353302 0.047440 -0.017401 -0.028156 -0.038771
  4   2.033756 0.190472 -0.000128 -0.008992 -0.031124 -0.323203
  5   2.451511 0.204909 -0.003447 -0.248280 0.070286 -0.327733
  6   7.247600 -0.397300 -0.109469 0.056796 0.015841 0.258572
  7   -2.022252 -0.104661 3.136172 1.362627 -1.221041 -4.817361
  8   1.168026 -0.537438 -0.063437 -1.262147 0.522278 -1.535140
  9   6.790376 -0.619176 0.015206 0.071466 -0.006358 -0.384055
 10   8.637599 0.544015 -0.090417 -3.259901 0.474089 0.415497
 11   6.790465 -0.619039 0.017802 0.047978 -0.017876 -0.284366
 12   -2.022474 -0.104699 -2.873818 -2.558381 1.445911 -5.925105
 13   1.167898 -0.537463 0.063297 1.564796 -0.219891 -1.617156
 14   7.002743 -0.617765 -0.183752 -0.021690 -0.074138 -0.131845
 15   8.209042 0.615527 -0.255885 1.599139 0.135973 0.101264
 16   7.002735 -0.617911 -0.183641 -0.001097 -0.050712 -0.111369
 17   1.574674 0.609930 -0.000899 -0.155702 -0.032108 0.497340
 18   -0.602177 0.511412 -0.000006 0.000000 0.000000 0.000000
 19   3.673773 0.177020 1.119313 -0.000002 -0.000014 -0.174510
 20   3.673767 0.176993 -1.117566 0.000007 -0.000003 -0.174546
 21   3.942357 1.334540 1.627658 0.000002 -0.000011 -0.000026
 22   -0.246060 -0.011889 0.516521 -0.000011 0.000031 0.000025
 23   3.942374 1.334565 -1.631083 0.000019 0.000002 -0.000024
 24   -0.246150 -0.011872 -0.516511 -0.000005 -0.000006 0.000048
 25   4.941364 1.997338 1.629330 0.000018 -0.000001 -0.000024
 26   4.941382 1.997366 -1.629410 -0.000001 0.000005 -0.000024
 27   2.914462 1.619264 1.514501 -0.000019 -0.000022 -0.000050
 28   2.916892 1.618870 -1.501142 -0.000002 -0.000009 -0.000024
 29   8.824059 0.150544 0.091743 0.000006 -0.000231 -0.174534
 30   2.111085 -0.561179 1.784320 -0.000008 -0.000682 0.000024
 31   2.121290 -0.561289 -1.853599 0.000000 0.000000 -0.000002
 32   -0.814395 -0.093824 3.127092 0.338887 -3.078099 -0.167408
 33   14.298673 -0.408176 0.471578 0.013071 -0.091587 -0.496506
 34   15.835795 0.581398 0.242756 -0.532539 -0.064474 0.362915
 35   -0.815868 -0.091229 -3.114430 -0.001923 2.881919 -0.314978
 36   14.294526 -0.410349 -0.467541 -0.021276 0.095122 -0.575480
 37   15.834409 0.579420 -0.284600 -0.051545 0.043118 0.201427
 38   1.139685 -3.453749 -2.823813 0.000000 0.000000 0.000001
 39   -4.457742 -1.054854 -0.746180 0.000000 0.000000 0.000000
 40   1.118101 -3.449769 3.237290 0.000000 0.000001 0.000000
 41   -4.433840 -1.059130 0.959566 -0.000001 0.000000 0.000000
 42   -0.657468 1.697302 -2.688614 0.000000 0.000002 0.000000
 43   -0.664068 1.698578 2.869377 0.000000 0.000002 0.000000
time 1
  0   0.001233 -0.019532 2.285597 0.000000 0.000000 -1.571829
  1   -1.093036 0.000002 -0.326057 -1.832567 -1.570379 0.261511
  2   2.262337 0.113614 0.064702 0.052337 -0.006830 -0.056412
  3   2.380047 0.353302 0.047440 -0.018376 -0.027437 -0.003857
  4   2.033756 0.190472 -0.000128 -0.007903 -0.031483 -0.358145
  5   2.451511 0.204909 -0.003447 -0.250471 0.061591 -0.361612
  6   7.247600 -0.397300 -0.109469 0.056796 0.015841 0.258572
  7   -2.022252 -0.104661 3.136172 1.425798 -1.248514 -4.871832
  8   1.168026 -0.537438 -0.063437 -1.106288 0.804189 -1.402230
  9   6.790376 -0.619176 0.015206 0.066362 0.027479 -0.863877
 10   8.637599 0.544015 -0.090417 -3.259901 0.474089 0.415497
 11   6.790465 -0.619039 0.017802 0.049029 0.002306 -0.620380
 12   -2.022474 -0.104699 -2.873818 -2.814665 1.436043 0.098063
 13   1.167898 -0.537463 0.063297 1.770553 -0.510016 -1.739497
 14   7.002743 -0.617765 -0.183752 -0.005692 -0.062440 -0.655176
 15   8.209042 0.615527 -0.255885 1.520549 0.143387 0.390585
 16   7.002735 -0.617911 -0.183641 0.006388 -0.039829 -0.477408
 17   1.574674 0.609930 -0.000899 -0.157408 -0.022641 0.557364
 18   -0.602177 0.511412 -0.000006 0.000000 0.000000 0.000000
 19   3.673773 0.177020 1.119313 -0.000002 -0.000014 -0.174510
 20   3.673767 0.176993 -1.117566 0.000007 -0.000003 -0.174546
 21   3.942357 1.334540 1.627658 0.000002 -0.000011 -0.000026
 22   -0.246060 -0.011889 0.516521 -0.000011 0.000031 0.000025
 23   3.942374 1.334565 -1.631083 0.000019 0.000002 -0.000024
 24   -0.246150 -0.011872 -0.516511 -0.000005 -0.000006 0.000048
 25   4.941364 1.997338 1.629330 0.000018 -0.000001 -0.000024
 26   4.941382 1.997366 -1.629410 -0.000001 0.000005 -0.000024
 27   2.914462 1.619264 1.514501 -0.000019 -0.000022 -0.000050
 28   2.916892 1.618870 -1.501142 -0.000002 -0.000009 -0.000024
 29   8.824059 0.150544 0.091743 0.000006 -0.000231 -0.174534
 30   2.111085 -0.561179 1.784320 -0.000008 -0.000682 0.000024
 31   2.121290 -0.561289 -1.853599 0.000000 0.000000 -0.000002
 32   -0.814395 -0.093824 3.127092 0.338887 -3.078099 -0.167408
 33   14.298673 -0.408176 0.471578 0.013071 -0.091587 -0.496506
 34   15.835795 0.581398 0.242756 -0.532539 -0.064474 0.362915
 35   -0.815868 -0.091229 -3.114430 -0.001923 2.881919 -0.314978
 36   14.294526 -0.410349 -0.467541 -0.021276 0.095122 -0.575480
 37   15.834409 0.579420 -0.284600 -0.051545 0.043118 0.201427
 38   1.139685 -3.453749 -2.823813 0.000000 0.000000 0.000001
 39   -4.457742 -1.054854 -0.746180 0.000000 0.000000 0.000000
 40   1.118101 -3.449769 3.237290 0.000000 0.000001 0.000000
 41   -4.433840 -1.059130 0.959566 -0.000001 0.000000 0.000000
 42   -0.657468 1.697302 -2.688614 0.000000 0.000002 0.000000
 43   -0.664068 1.698578 2.869377 0.000000 0.000002 0.000000
time 2
  0   0.001233 -0.019532 2.285597 0.000000 0.000000 -1.571829
  1   -1.093036 0.000002 -0.326057 -1.832567 -1.570379 0.261511
  2   2.262337 0.113614 0.064702 0.052337 -0.006830 -0.056412
  3   2.380047 0.353302 0.047440 -0.018301 -0.027497 -0.006407
  4   2.033756 0.190472 -0.000128 -0.007977 -0.031459 -0.355536
  5   2.451511 0.204909 -0.003447 -0.250334 0.062231 -0.359111
  6   7.247600 -0.397300 -0.109469 0.056796 0.015841 0.258572
  7   -2.022252 -0.104661 3.136172 1.416499 -1.244824 -4.863662
  8   1.168026 -0.537438 -0.063437 -1.134321 0.764844 -1.427218
  9   6.790376 -0.619176 0.015206 0.067971 0.023007 -0.797843
 10   8.637599 0.544015 -0.090417 -3.259901 0.474089 0.415497
 11   6.790465 -0.619039 0.017802 0.049379 -0.000480 -0.574182
 12   -2.022474 -0.104699 -2.873818 -2.781707 1.437842 0.131381
 13   1.167898 -0.537463 0.063297 1.736600 -0.469586 -1.716614
 14   7.002743 -0.617765 -0.183752 -0.007400 -0.064427 -0.585954
 15   8.209042 0.615527 -0.255885 1.531047 0.141042 0.351375
 16   7.002735 -0.617911 -0.183641 0.005587 -0.041521 -0.429004
 17   1.574674 0.609930 -0.000899 -0.157245 -0.023351 0.552892
 18   -0.602177 0.511412 -0.000006 0.000000 0.000000 0.000000
 19   3.673773 0.177020 1.119313 -0.000002 -0.000014 -0.174510
 20   3.673767 0.176993 -1.117566 0.000007 -0.000003 -0.174546
 21   3.942357 1.334540 1.627658 0.000002 -0.000011 -0.000026
 22   -0.246060 -0.011889 0.516521 -0.000011 0.000031 0.000025
 23   3.942374 1.334565 -1.631083 0.000019 0.000002 -0.000024
 24   -0.246150 -0.011872 -0.516511 -0.000005 -0.000006 0.000048
 25   4.941364 1.997338 1.629330 0.000018 -0.000001 -0.000024
 26   4.941382 1.997366 -1.629410 -0.000001 0.000005 -0.000024
 27   2.914462 1.619264 1.514501 -0.000019 -0.000022 -0.000050
 28   2.916892 1.618870 -1.501142 -0.000002 -0.000009 -0.000024
 29   8.824059 0.150544 0.091743 0.000006 -0.000231 -0.174534
 30   2.111085 -0.561179 1.784320 -0.000008 -0.000682 0.000024
 31   2.121290 -0.561289 -1.853599 0.000000 0.000000 -0.000002
 32   -0.814395 -0.093824 3.127092 0.338887 -3.078099 -0.167408
 33   14.298673 -0.408176 0.471578 0.013071 -0.091587 -0.496506
 34   15.835795 0.581398 0.242756 -0.532539 -0.064474 0.362915
 35   -0.815868 -0.091229 -3.114430 -0.001923 2.881919 -0.314978
 36   14.294526 -0.410349 -0.467541 -0.021276 0.095122 -0.575480
 37   15.834409 0.579420 -0.284600 -0.051545 0.043118 0.201427
 38   1.139685 -3.453749 -2.823813 0.000000 0.000000 0.000001
 39   -4.457742 -1.054854 -0.746180 0.000000 0.000000 0.000000
 40   1.118101 -3.449769 3.237290 0.000000 0.000001 0.000000
 41   -4.433840 -1.059130 0.959566 -0.000001 0.000000 0.000000
 42   -0.657468 1.697302 -2.688614 0.000000 0.000002 0.000000
 43   -0.664068 1.698578 2.869377 0.000000 0.000002 0.000000
time 3
  0   0.001233 -0.019532 2.285597 0.000000 0.000000 -1.571829
  1   -1.093036 0.000002 -0.326057 -1.832567 -1.570379 0.261511
  2   2.262337 0.113614 0.064702 0.052337 -0.006830 -0.056412
  3   2.380047 0.353302 0.047440 -0.018136 -0.027617 -0.012366
  4   2.033756 0.190472 -0.000128 -0.008180 -0.031424 -0.349519
  5   2.451511 0.204909 -0.003447 -0.250009 0.063693 -0.353291
  6   7.247600 -0.397300 -0.109469 0.056796 0.015841 0.258572
  7   -2.022252 -0.104661 3.136172 1.393014 -1.234878 -4.843470
  8   1.168026 -0.537438 -0.063437 -1.196272 0.661901 -1.480926
  9   6.790376 -0.619176 0.015206 0.071023 0.010861 -0.624042
 10   8.637599 0.544015 -0.090417 -3.259901 0.474089 0.415497
 11   6.790465 -0.619039 0.017802 0.049525 -0.007785 -0.452373
 12   -2.022474 -0.104699 -2.873818 -2.691553 1.442080 0.222910
 13   1.167898 -0.537463 0.063297 1.657235 -0.363758 -1.666855
 14   7.002743 -0.617765 -0.183752 -0.012751 -0.069197 -0.399327
 15   8.209042 0.615527 -0.255885 1.559161 0.136881 0.247518
 16   7.002735 -0.617911 -0.183641 0.003092 -0.045637 -0.298418
 17   1.574674 0.609930 -0.000899 -0.157083 -0.024984 0.542691
 18   -0.602177 0.511412 -0.000006 0.000000 0.000000 0.000000
 19   3.673773 0.177020 1.119313 -0.000002 -0.000014 -0.174510
 20   3.673767 0.176993 -1.117566 0.000007 -0.000003 -0.174546
 21   3.942357 1.334540 1.627658 0.000002 -0.000011 -0.000026
 22   -0.246060 -0.011889 0.516521 -0.000011 0.000031 0.000025
 23   3.942374 1.334565 -1.631083 0.000019 0.000002 -0.000024
 24   -0.246150 -0.011872 -0.516511 -0.000005 -0.000006 0.000048
 25   4.941364 1.997338 1.629330 0.000018 -0.000001 -0.000024
 26   4.941382 1.997366 -1.629410 -0.000001 0.000005 -0.000024
 27   2.914462 1.619264 1.514501 -0.000019 -0.000022 -0.000050
 28   2.916892 1.618870 -1.501142 -0.000002 -0.000009 -0.000024
 29   8.824059 0.150544 0.091743 0.000006 -0.000231 -0.174534
 30   2.111085 -0.561179 1.784320 -0.000008 -0.000682 0.000024
 31   2.121290 -0.561289 -1.853599 0.000000 0.000000 -0.000002
 32   -0.814395 -0.093824 3.127092 0.338887 -3.078099 -0.167408
 33   14.298673 -0.408176 0.471578 0.013071 -0.091587 -0.496506
 34   15.835795 0.581398 0.242756 -0.532539 -0.064474 0.362915
 35   -0.815868 -0.091229 -3.114430 -0.001923 2.881919 -0.314978
 36   14.294526 -0.410349 -0.467541 -0.021276 0.095122 -0.575480
 37   15.834409 0.579420 -0.284600 -0.051545 0.043118 0.201427
 38   1.139685 -3.453749 -2.823813 0.000000 0.000000 0.000001
 39   -4.457742 -1.054854 -0.746180 0.000000 0.000000 0.000000
 40   1.118101 -3.449769 3.237290 0.000000 0.000001 0.000000
 41   -4.433840 -1.059130 0.959566 -0.000001 0.000000 0.000000
 42   -0.657468 1.697302 -2.688614 0.000000 0.000002 0.000000
 43   -0.664068 1.698578 2.869377 0.000000 0.000002 0.000000
time 4
  0   0.001233 -0.019532 2.285597 0.000000 0.000000 -1.571829
  1   -1.093036 0.000002 -0.326057 -1.832567 -1.570379 0.261511
  2   2.262337 0.113614 0.064702 0.052337 -0.006830 -0.056412
  3   2.380047 0.353302 0.047440 -0.017926 -0.027748 -0.019753
  4   2.033756 0.190472 -0.000128 -0.008401 -0.031340 -0.342160
  5   2.451511 0.204909 -0.003447 -0.249547 0.065560 -0.346184
  6   7.247600 -0.397300 -0.109469 0.056796 0.015841 0.258572
  7   -2.022252 -0.104661 3.136172 1.370775 -1.224904 -4.824217
  8   1.168026 -0.537438 -0.063437 -1.245884 0.560517 -1.521982
  9   6.790376 -0.619176 0.015206 0.071799 -0.001620 -0.450165
 10   8.637599 0.544015 -0.090417 -3.259901 0.474089 0.415497
 11   6.790465 -0.619039 0.017802 0.048620 -0.015119 -0.330506
 12   -2.022474 -0.104699 -2.873818 -2.596033 1.445098 -5.963210
 13   1.167898 -0.537463 0.063297 1.588626 -0.259201 -1.629021
 14   7.002743 -0.617765 -0.183752 -0.019014 -0.073002 -0.206512
 15   8.209042 0.615527 -0.255885 1.588066 0.135594 0.141977
 16   7.002735 -0.617911 -0.183641 0.000127 -0.049415 -0.163637
 17   1.574674 0.609930 -0.000899 -0.156677 -0.026972 0.529939
 18   -0.602177 0.511412 -0.000006 0.000000 0.000000 0.000000
 19   3.673773 0.177020 1.119313 -0.000002 -0.000014 -0.174510
 20   3.673767 0.176993 -1.117566 0.000007 -0.000003 -0.174546
 21   3.942357 1.334540 1.627658 0.000002 -0.000011 -0.000026
 22   -0.246060 -0.011889 0.516521 -0.000011 0.000031 0.000025
 23   3.942374 1.334565 -1.631083 0.000019 0.000002 -0.000024
 24   -0.246150 -0.011872 -0.516511 -0.000005 -0.000006 0.000048
 25   4.941364 1.997338 1.629330 0.000018 -0.000001 -0.000024
 26   4.941382 1.997366 -1.629410 -0.000001 0.000005 -0.000024
 27   2.914462 1.619264 1.514501 -0.000019 -0.000022 -0.000050
 28   2.916892 1.618870 -1.501142 -0.000002 -0.000009 -0.000024
 29   8.824059 0.150544 0.091743 0.000006 -0.000231 -0.174534
 30   2.111085 -0.561179 1.784320 -0.000008 -0.000682 0.000024
 31   2.121290 -0.561289 -1.853599 0.000000 0.000000 -0.000002
 32   -0.814395 -0.093824 3.127092 0.338887 -3.078099 -0.167408
 33   14.298673 -0.408176 0.471578 0.013071 -0.091587 -0.496506
 34   15.835795 0.581398 0.242756 -0.532539 -0.064474 0.362915
 35   -0.815868 -0.091229 -3.114430 -0.001923 2.881919 -0.314978
 36   14.294526 -0.410349 -0.467541 -0.021276 0.095122 -0.575480
 37   15.834409 0.579420 -0.284600 -0.051545 0.043118 0.201427
 38   1.139685 -3.453749 -2.823813 0.000000 0.000000 0.000001
 39   -4.457742 -1.054854 -0.746180 0.000000 0.000000 0.000000
 40   1.118101 -3.449769 3.237290 0.000000 0.000001 0.000000
 41   -4.433840 -1.059130 0.959566 -0.000001 0.000000 0.000000
 42   -0.657468 1.697302 -2.688614 0.000000 0.000002 0.000000
 43   -0.664068 1.698578 2.869377 0.000000 0.000002 0.000000
time 5
  0   0.001233 -0.019532 2.285597 0.000000 0.000000 -1.571829
  1   -1.093036 0.000002 -0.326057 -1.832567 -1.570379 0.261511
  2   2.262337 0.113614 0.064702 0.052337 -0.006830 -0.056412
  3   2.380047 0.353302 0.047440 -0.017731 -0.027892 -0.027058
  4   2.033756 0.190472 -0.000128 -0.008641 -0.031256 -0.334947
  5   2.451511 0.204909 -0.003447 -0.249016 0.067349 -0.339051
  6   7.247600 -0.397300 -0.109469 0.056796 0.015841 0.258572
  7   -2.022252 -0.104661 3.136172 1.362627 -1.221041 -4.817361
  8   1.168026 -0.537438 -0.063437 -1.262147 0.522278 -1.535140
  9   6.790376 -0.619176 0.015206 0.071466 -0.006358 -0.384055
 10   8.637599 0.544015 -0.090417 -3.259901 0.474089 0.415497
 11   6.790465 -0.619039 0.017802 0.047978 -0.017876 -0.284366
 12   -2.022474 -0.104699 -2.873818 -2.558381 1.445911 -5.925105
 13   1.167898 -0.537463 0.063297 1.564796 -0.219891 -1.617156
 14   7.002743 -0.617765 -0.183752 -0.021690 -0.074138 -0.131845
 15   8.209042 0.615527 -0.255885 1.599139 0.135973 0.101264
 16   7.002735 -0.617911 -0.183641 -0.001097 -0.050712 -0.111369
 17   1.574674 0.609930 -0.000899 -0.156352 -0.028960 0.517410
 18   -0.602177 0.511412 -0.000006 0.000000 0.000000 0.000000
 19   3.673773 0.177020 1.119313 -0.000002 -0.000014 -0.174510
 20   3.673767 0.176993 -1.117566 0.000007 -0.000003 -0.174546
 21   3.942357 1.334540 1.627658 0.000002 -0.000011 -0.000026
 22   -0.246060 -0.011889 0.516521 -0.000011 0.000031 0.000025
 23   3.942374 1.334565 -1.631083 0.000019 0.000002 -0.000024
 24   -0.246150 -0.011872 -0.516511 -0.000005 -0.000006 0.000048
 25   4.941364 1.997338 1.629330 0.000018 -0.000001 -0.000024
 26   4.941382 1.997366 -1.629410 -0.000001 0.000005 -0.000024
 27   2.914462 1.619264 1.514501 -0.000019 -0.000022 -0.000050
 28   2.916892 1.618870 -1.501142 -0.000002 -0.000009 -0.000024
 29   8.824059 0.150544 0.091743 0.000006 -0.000231 -0.174534
 30   2.111085 -0.561179 1.784320 -0.000008 -0.000682 0.000024
 31   2.121290 -0.561289 -1.853599 0.000000 0.000000 -0.000002
 32   -0.814395 -0.093824 3.127092 0.338887 -3.078099 -0.167408
 33   14.298673 -0.408176 0.471578 0.013071 -0.091587 -0.496506
 34   15.835795 0.581398 0.242756 -0.532539 -0.064474 0.362915
 35   -0.815868 -0.091229 -3.114430 -0.001923 2.881919 -0.314978
 36   14.294526 -0.410349 -0.467541 -0.021276 0.095122 -0.575480
 37   15.834409 0.579420 -0.284600 -0.051545 0.043118 0.201427
 38   1.139685 -3.453749 -2.823813 0.000000 0.000000 0.000001
 39   -4.457742 -1.054854 -0.746180 0.000000 0.000000 0.000000
 40   1.118101 -3.449769 3.237290 0.000000 0.000001 0.000000
 41   -4.433840 -1.059130 0.959566 -0.000001 0.000000 0.000000
 42   -0.657468 1.697302 -2.688614 0.000000 0.000002 0.000000
 43   -0.664068 1.698578 2.869377 0.000000 0.000002 0.000000
time 6
  0   0.001233 -0.019532 2.285597 0.000000 0.000000 -1.571829
  1   -1.093036 0.000002 -0.326057 -1.832567 -1.570379 0.261511
  2   2.262337 0.113614 0.064702 0.052337 -0.006830 -0.056412
  3   2.380047 0.353302 0.047440 -0.017551 -0.028024 -0.033179
  4   2.033756 0.190472 -0.000128 -0.008807 -0.031184 -0.328785
  5   2.451511 0.204909 -0.003447 -0.248674 0.068876 -0.333132
  6   7.247600 -0.397300 -0.109469 0.056796 0.015841 0.258572
  7   -2.022252 -0.104661 3.136172 1.362627 -1.221041 -4.817361
  8   1.168026 -0.537438 -0.063437 -1.262147 0.522278 -1.535140
  9   6.790376 -0.619176 0.015206 0.071466 -0.006358 -0.384055
 10   8.637599 0.544015 -0.090417 -3.259901 0.474089 0.415497
 11   6.790465 -0.619039 0.017802 0.047978 -0.017876 -0.284366
 12   -2.022474 -0.104699 -2.873818 -2.558381 1.445911 -5.925105
 13   1.167898 -0.537463 0.063297 1.564796 -0.219891 -1.617156
 14   7.002743 -0.617765 -0.183752 -0.021690 -0.074138 -0.131845
 15   8.209042 0.615527 -0.255885 1.599139 0.135973 0.101264
 16   7.002735 -0.617911 -0.183641 -0.001097 -0.050712 -0.111369
 17   1.574674 0.609930 -0.000899 -0.156067 -0.030617 0.506950
 18   -0.602177 0.511412 -0.000006 0.000000 0.000000 0.000000
 19   3.673773 0.177020 1.119313 -0.000002 -0.000014 -0.174510
 20   3.673767 0.176993 -1.117566 0.000007 -0.000003 -0.174546
 21   3.942357 1.334540 1.627658 0.000002 -0.000011 -0.000026
 22   -0.246060 -0.011889 0.516521 -0.000011 0.000031 0.000025
 23   3.942374 1.334565 -1.631083 0.000019 0.000002 -0.000024
 24   -0.246150 -0.011872 -0.516511 -0.000005 -0.000006 0.000048
 25   4.941364 1.997338 1.629330 0.000018 -0.000001 -0.000024
 26   4.941382 1.997366 -1.629410 -0.000001 0.000005 -0.000024
 27   2.914462 1.619264 1.514501 -0.000019 -0.000022 -0.000050
 28   2.916892 1.618870 -1.501142 -0.000002 -0.000009 -0.000024
 29   8.824059 0.150544 0.091743 0.000006 -0.000231 -0.174534
 30   2.111085 -0.561179 1.784320 -0.000008 -0.000682 0.000024
 31   2.121290 -0.561289 -1.853599 0.000000 0.000000 -0.000002
 32   -0.814395 -0.093824 3.127092 0.338887 -3.078099 -0.167408
 33   14.298673 -0.408176 0.471578 0.013071 -0.091587 -0.496506
 34   15.835795 0.581398 0.242756 -0.532539 -0.064474 0.362915
 35   -0.815868 -0.091229 -3.114430 -0.001923 2.881919 -0.314978
 36   14.294526 -0.410349 -0.467541 -0.021276 0.095122 -0.575480
 37   15.834409 0.579420 -0.284600 -0.051545 0.043118 0.201427
 38   1.139685 -3.453749 -2.823813 0.000000 0.000000 0.000001
 39   -4.457742 -1.054854 -0.746180 0.000000 0.000000 0.000000
 40   1.118101 -3.449769 3.237290 0.000000 0.000001 0.000000
 41   -4.433840 -1.059130 0.959566 -0.000001 0.000000 0.000000
 42   -0.657468 1.697302 -2.688614 0.000000 0.000002 0.000000
 43   -0.664068 1.698578 2.869377 0.000000 0.000002 0.000000
time 7
  0   0.001233 -0.019532 2.285597 0.000000 0.000000 -1.571829
  1   -1.093036 0.000002 -0.326057 -1.832567 -1.570379 0.261511
  2   2.262337 0.113614 0.064702 0.052337 -0.006830 -0.056412
  3   2.380047 0.353302 0.047440 -0.017446 -0.028132 -0.037261
  4   2.033756 0.190472 -0.000128 -0.008973 -0.031136 -0.324689
  5   2.451511 0.204909 -0.003447 -0.248400 0.069895 -0.329120
  6   7.247600 -0.397300 -0.109469 0.056796 0.015841 0.258572
  7   -2.022252 -0.104661 3.136172 1.362627 -1.221041 -4.817361
  8   1.168026 -0.537438 -0.063437 -1.262147 0.522278 -1.535140
  9   6.790376 -0.619176 0.015206 0.071466 -0.006358 -0.384055
 10   8.637599 0.544015 -0.090417 -3.259901 0.474089 0.415497
 11   6.790465 -0.619039 0.017802 0.047978 -0.017876 -0.284366
 12   -2.022474 -0.104699 -2.873818 -2.558381 1.445911 -5.925105
 13   1.167898 -0.537463 0.063297 1.564796 -0.219891 -1.617156
 14   7.002743 -0.617765 -0.183752 -0.021690 -0.074138 -0.131845
 15   8.209042 0.615527 -0.255885 1.599139 0.135973 0.101264
 16   7.002735 -0.617911 -0.183641 -0.001097 -0.050712 -0.111369
 17   1.574674 0.609930 -0.000899 -0.155824 -0.031729 0.499890
 18   -0.602177 0.511412 -0.000006 0.000000 0.000000 0.000000
 19   3.673773 0.177020 1.119313 -0.000002 -0.000014 -0.174510
 20   3.673767 0.176993 -1.117566 0.000007 -0.000003 -0.174546
 21   3.942357 1.334540 1.627658 0.000002 -0.000011 -0.000026
 22   -0.246060 -0.011889 0.516521 -0.000011 0.000031 0.000025
 23   3.942374 1.334565 -1.631083 0.000019 0.000002 -0.000024
 24   -0.246150 -0.011872 -0.516511 -0.000005 -0.000006 0.000048
 25   4.941364 1.997338 1.629330 0.000018 -0.000001 -0.000024
 26   4.941382 1.997366 -1.629410 -0.000001 0.000005 -0.000024
 27   2.914462 1.619264 1.514501 -0.000019 -0.000022 -0.000050
 28   2.916892 1.618870 -1.501142 -0.000002 -0.000009 -0.000024
 29   8.824059 0.150544 0.091743 0.000006 -0.000231 -0.174534
 30   2.111085 -0.561179 1.784320 -0.000008 -0.000682 0.000024
 31   2.121290 -0.561289 -1.853599 0.000000 0.000000 -0.000002
 32   -0.814395 -0.093824 3.127092 0.338887 -3.078099 -0.167408
 33   14.298673 -0.408176 0.471578 0.013071 -0.091587 -0.496506
 34   15.835795 0.581398 0.242756 -0.532539 -0.064474 0.362915
 35   -0.815868 -0.091229 -3.114430 -0.001923 2.881919 -0.314978
 36   14.294526 -0.410349 -0.467541 -0.021276 0.095122 -0.575480
 37   15.834409 0.579420 -0.284600 -0.051545 0.043118 0.201427
 38   1.139685 -3.453749 -2.823813 0.000000 0.000000 0.000001
 39   -4.457742 -1.054854 -0.746180 0.000000 0.000000 0.000000
 40   1.118101 -3.449769 3.237290 0.000000 0.000001 0.000000
 41   -4.433840 -1.059130 0.959566 -0.000001 0.000000 0.000000
 42   -0.657468 1.697302 -2.688614 0.000000 0.000002 0.000000
 43   -0.664068 1.698578 2.869377 0.000000 0.000002 0.000000
time 8
  0   0.001233 -0.019532 2.285597 0.000000 0.000000 -1.571829
  1   -1.093036 0.000002 -0.326057 -1.832567 -1.570379 0.261511
  2   2.262337 0.113614 0.064702 0.052337 -0.006830 -0.056412
  3   2.380047 0.353302 0.047440 -0.017401 -0.028156 -0.038771
  4   2.033756 0.190472 -0.000128 -0.008992 -0.031124 -0.323203
  5   2.451511 0.204909 -0.003447 -0.248280 0.070286 -0.327733
  6   7.247600 -0.397300 -0.109469 0.056796 0.015841 0.258572
  7   -2.022252 -0.104661 3.136172 1.362627 -1.221041 -4.817361
  8   1.168026 -0.537438 -0.063437 -1.262147 0.522278 -1.535140
  9   6.790376 -0.619176 0.015206 0.071466 -0.006358 -0.384055
 10   8.637599 0.544015 -0.090417 -3.259901 0.474089 0.415497
 11   6.790465 -0.619039 0.017802 0.047978 -0.017876 -0.284366
 12   -2.022474 -0.104699 -2.873818 -2.558381 1.445911 -5.925105
 13   1.167898 -0.537463 0.063297 1.564796 -0.219891 -1.617156
 14   7.002743 -0.617765 -0.183752 -0.021690 -0.074138 -0.131845
 15   8.209042 0.615527 -0.255885 1.599139 0.135973 0.101264
 16   7.002735 -0.617911 -0.183641 -0.001097 -0.050712 -0.111369
 17   1.574674 0.609930 -0.000899 -0.155702 -0.032108 0.497340
 18   -0.602177 0.511412 -0.000006 0.000000 0.000000 0.000000
 19   3.673773 0.177020 1.119313 -0.000002 -0.000014 -0.174510
 20   3.673767 0.176993 -1.117566 0.000007 -0.000003 -0.174546
 21   3.942357 1.334540 1.627658 0.000002 -0.000011 -0.000026
 22   -0.246060 -0.011889 0.516521 -0.000011 0.000031 0.000025
 23   3.942374 1.334565 -1.631083 0.000019 0.000002 -0.000024
 24   -0.246150 -0.011872 -0.516511 -0.000005 -0.000006 0.000048
 25   4.941364 1.997338 1.629330 0.000018 -0.000001 -0.000024
 26   4.941382 1.997366 -1.629410 -0.000001 0.000005 -0.000024
 27   2.914462 1.619264 1.514501 -0.000019 -0.000022 -0.000050
 28   2.916892 1.618870 -1.501142 -0.000002 -0.000009 -0.000024
 29   8.824059 0.150544 0.091743 0.000006 -0.000231 -0.174534
 30   2.111085 -0.561179 1.784320 -0.000008 -0.000682 0.000024
 31   2.121290 -0.561289 -1.853599 0.000000 0.000000 -0.000002
 32   -0.814395 -0.093824 3.127092 0.338887 -3.078099 -0.167408
 33   14.298673 -0.408176 0.471578 0.013071 -0.091587 -0.496506
 34   15.835795 0.581398 0.242756 -0.532539 -0.064474 0.362915
 35   -0.815868 -0.091229 -3.114430 -0.001923 2.881919 -0.314978
 36   14.294526 -0.410349 -0.467541 -0.021276 0.095122 -0.575480
 37   15.834409 0.579420 -0.284600 -0.051545 0.043118 0.201427
 38   1.139685 -3.453749 -2.823813 0.000000 0.000000 0.000001
 39   -4.457742 -1.054854 -0.746180 0.000000 0.000000 0.000000
 40   1.118101 -3.449769 3.237290 0.000000 0.000001 0.000000
 41   -4.433840 -1.059130 0.959566 -0.000001 0.000000 0.000000
 42   -0.657468 1.697302 -2.688614 0.000000 0.000002 0.000000
 43   -0.664068 1.698578 2.869377 0.000000 0.000002 0.000000
end
