version 1
nodes
  0 "Bip01" -1
  1 "Bip01 Pelvis" 0
  2 "Bip01 Spine" 1
  3 "Bip01 Spine1" 2
  4 "Bip01 Spine2" 3
  5 "Bip01 Spine3" 4
  6 "Bip01 Neck" 5
  7 "Bip01 L Arm" 6
  8 "Bip01 L Arm1" 7
  9 "Bip01 L Arm2" 8
 10 "Bip01 L Hand" 9
 11 "Bip06 L elbow2-smooth" 8
 12 "Bip01 R Arm" 6
 13 "Bip01 R Arm1" 12
 14 "Bip01 R Arm2" 13
 15 "Bip01 R Hand" 14
 16 "Bip06 R elbow2-smooth" 13
 17 "Bip01 Head" 6
 18 "Bip06 Head_helper" 17
 19 "Bip06 Head_eyes_l" 18
 20 "Bip06 Head_eyes_r" 18
 21 "Bip06 Head_blink_l" 18
 22 "Bip06 Head_blink_smooth_l1" 21
 23 "Bip06 Head_blink_r" 18
 24 "Bip06 Head_blink_smooth_r1" 23
 25 "Bip06 Head_L_eyebrow" 18
 26 "Bip06 Head_R_eyebrow" 18
 27 "Bip06 Head_blink_l_lid" 18
 28 "Bip06 Head_blink_r_lid" 18
 29 "Bip06 bunny" 18
 30 "Bip06 bunnyL" 29
 31 "Bip06 bunnyR" 29
 32 "Bip01 L Leg" 1
 33 "Bip01 L Leg1" 32
 34 "Bip01 L Foot" 33
 35 "Bip01 R Leg" 1
 36 "Bip01 R Leg1" 35
 37 "Bip01 R Foot" 36
 38 "Bip03 HairR1" 17
 39 "Bip03 HairR2" 38
 40 "Bip03 HairL1" 17
 41 "Bip03 HairL2" 40
 42 "Bip03 swingR" 17
 43 "Bip03 swingL" 17
end
skeleton
time 0
  0   0.243428 0.429701 2.176219 0.000000 0.000000 -1.571354
  1   -1.093036 0.000002 -0.326057 -1.570756 -1.570425 0.000071
  2   2.262337 0.113614 0.064702 -0.000052 0.000049 -0.243264
  3   2.380047 0.353302 0.047440 -0.155830 0.017625 0.111822
  4   2.033756 0.190472 -0.000128 -0.287327 0.015065 0.049814
  5   2.451511 0.204909 -0.003447 -0.156739 0.005544 0.034263
  6   7.247600 -0.397300 -0.109469 -0.000143 -0.183080 -0.252900
  7   -2.022252 -0.104661 3.136172 -1.657186 -1.783172 -1.187587
  8   1.168026 -0.537438 -0.063437 -0.881958 0.933749 -0.864263
  9   6.790376 -0.619176 0.015206 -0.000158 -0.000285 -1.932950
 10   8.637599 0.544015 -0.090417 -1.656328 -0.275709 -0.099594
 11   6.790465 -0.619039 0.017802 0.004388 -0.011935 -1.368308
 12   -2.022474 -0.104699 -2.873818 0.039619 1.193548 -2.846550
 13   1.167898 -0.537463 0.063297 -0.784014 -0.773595 0.300767
 14   7.002743 -0.617765 -0.183752 0.000229 0.000250 -2.147204
 15   8.209042 0.615527 -0.255885 1.570090 -0.000063 -0.069706
 16   7.002735 -0.617911 -0.183641 0.012602 0.012161 -1.521766
 17   1.574674 0.609930 -0.000899 0.574468 0.322280 -0.062620
 18   -0.602177 0.511412 -0.000006 0.000000 0.000000 0.000000
 19   3.646428 0.364526 1.119313 -0.000002 -0.000014 -0.174510
 20   3.646422 0.364499 -1.117566 0.000007 -0.000003 -0.174546
 21   3.805634 1.330634 1.627658 0.000002 -0.000011 -0.000026
 22   -0.246060 -0.011889 0.516521 -0.000011 0.000031 0.000025
 23   3.805651 1.330659 -1.631083 0.000019 0.000002 -0.000024
 24   -0.246150 -0.011872 -0.516511 -0.000005 -0.000006 0.000048
 25   4.941364 1.997338 1.629330 0.000018 -0.000001 -0.000024
 26   4.941382 1.997366 -1.629410 -0.000001 0.000005 -0.000024
 27   2.930087 1.603639 1.514501 -0.000019 -0.000022 -0.000050
 28   2.932517 1.603245 -1.501142 -0.000002 -0.000009 -0.000024
 29   8.824059 0.150544 0.091743 0.000006 -0.000231 -0.174534
 30   2.111085 -0.561179 1.784320 -0.000008 -0.000682 0.000024
 31   2.121290 -0.561289 -1.853599 0.000000 0.000000 -0.000002
 32   -0.814395 -0.093824 3.127092 0.002215 -3.167016 -0.021517
 33   14.298673 -0.408176 0.471578 -0.000040 -0.000274 -0.121826
 34   15.835795 0.581398 0.242756 -0.002559 0.026015 0.099976
 35   -0.815868 -0.091229 -3.114430 -0.002364 3.158489 -0.024382
 36   14.294526 -0.410349 -0.467541 0.000081 0.000036 -0.127078
 37   15.834409 0.579420 -0.284600 0.002892 -0.017210 0.102761
 38   1.139685 -3.453749 -2.823813 0.000000 0.000000 0.000001
 39   -4.457742 -1.054854 -0.746180 0.000000 0.000000 0.000000
 40   1.118101 -3.449769 3.237290 0.000000 0.000001 0.000000
 41   -4.433840 -1.059130 0.959566 -0.000001 0.000000 0.000000
 42   -0.657468 1.697302 -2.688614 0.000000 0.000002 0.000000
 43   -0.664068 1.698578 2.869377 0.000000 0.000002 0.000000
time 1
  0   0.243428 0.429701 2.176219 0.000000 0.000000 -1.571354
  1   -1.093036 0.000002 -0.326057 -1.570756 -1.570425 0.000071
  2   2.262337 0.113614 0.064702 -0.000052 0.000049 -0.243264
  3   2.380047 0.353302 0.047440 -0.155830 0.017625 0.111822
  4   2.033756 0.190472 -0.000128 -0.287327 0.015065 0.049814
  5   2.451511 0.204909 -0.003447 -0.156722 0.005609 0.038622
  6   7.247600 -0.397300 -0.109469 -0.000155 -0.183080 -0.252900
  7   -2.022252 -0.104661 3.136172 -1.676837 -1.783691 -1.167113
  8   1.168026 -0.537438 -0.063437 -0.876073 0.927510 -0.859076
  9   6.790376 -0.619176 0.015206 -0.000158 -0.000151 -1.932950
 10   8.637599 0.544015 -0.090417 -1.658617 -0.354265 -0.092504
 11   6.790465 -0.619039 0.017802 0.004388 -0.011935 -1.368308
 12   -2.022474 -0.104699 -2.873818 0.039140 1.186176 -2.847028
 13   1.167898 -0.537463 0.063297 -0.775930 -0.768713 0.294048
 14   7.002743 -0.617765 -0.183752 0.000229 0.000250 -2.147204
 15   8.209042 0.615527 -0.255885 1.570090 -0.000063 -0.069706
 16   7.002735 -0.617911 -0.183641 0.012602 0.012161 -1.521766
 17   1.574674 0.609930 -0.000899 0.573452 0.322848 -0.067055
 18   -0.602177 0.511412 -0.000006 0.000000 0.000000 0.000000
 19   3.646428 0.364526 1.119313 -0.000002 -0.000014 -0.174510
 20   3.646422 0.364499 -1.117566 0.000007 -0.000003 -0.174546
 21   3.805634 1.330634 1.627658 0.000002 -0.000011 -0.000026
 22   -0.246060 -0.011889 0.516521 -0.000011 0.000031 0.000025
 23   3.805651 1.330659 -1.631083 0.000019 0.000002 -0.000024
 24   -0.246150 -0.011872 -0.516511 -0.000005 -0.000006 0.000048
 25   4.941364 1.997338 1.629330 0.000018 -0.000001 -0.000024
 26   4.941382 1.997366 -1.629410 -0.000001 0.000005 -0.000024
 27   2.930087 1.603639 1.514501 -0.000019 -0.000022 -0.000050
 28   2.932517 1.603245 -1.501142 -0.000002 -0.000009 -0.000024
 29   8.824059 0.150544 0.091743 0.000986 -0.000492 -0.171530
 30   2.111085 -0.561179 1.784320 -0.000022 0.001236 0.000153
 31   2.121290 -0.561289 -1.853599 0.000000 -0.002564 0.000125
 32   -0.814395 -0.093824 3.127092 0.002215 -3.167016 -0.021517
 33   14.298673 -0.408176 0.471578 -0.000040 -0.000274 -0.121826
 34   15.835795 0.581398 0.242756 -0.002559 0.026015 0.099976
 35   -0.815868 -0.091229 -3.114430 -0.002364 3.158489 -0.024382
 36   14.294526 -0.410349 -0.467541 0.000081 0.000036 -0.127078
 37   15.834409 0.579420 -0.284600 0.002892 -0.017210 0.102761
 38   1.139685 -3.453749 -2.823813 0.000084 -0.000072 0.000184
 39   -4.457742 -1.054854 -0.746180 0.000132 0.000288 -0.001178
 40   1.118101 -3.449769 3.237290 -0.000042 -0.000083 0.000367
 41   -4.433840 -1.059130 0.959566 0.000011 0.000024 -0.000112
 42   -0.657468 1.697302 -2.688614 0.000863 0.001351 -0.000125
 43   -0.664068 1.698578 2.869377 -0.001012 -0.001520 0.000251
time 2
  0   0.243428 0.433607 2.176219 0.000000 0.000000 -1.571354
  1   -1.093036 0.000002 -0.326057 -1.570756 -1.570425 0.000071
  2   2.262337 0.113614 0.064702 -0.000052 0.000049 -0.243264
  3   2.380047 0.353302 0.047440 -0.155830 0.017625 0.111822
  4   2.033756 0.190472 -0.000128 -0.287327 0.015065 0.049814
  5   2.451511 0.204909 -0.003447 -0.156722 0.005687 0.043451
  6   7.247600 -0.397300 -0.109469 -0.000155 -0.183080 -0.252900
  7   -2.022252 -0.104661 3.136172 -1.696871 -1.784181 -1.146733
  8   1.168026 -0.537438 -0.063437 -0.870441 0.920768 -0.853572
  9   6.790376 -0.619176 0.015206 -0.000158 -0.000285 -1.932950
 10   8.637599 0.544015 -0.090417 -1.661700 -0.432750 -0.084691
 11   6.790465 -0.619039 0.017802 0.004388 -0.011935 -1.368308
 12   -2.022474 -0.104699 -2.873818 0.038278 1.178020 -2.848082
 13   1.167898 -0.537463 0.063297 -0.766580 -0.763068 0.286844
 14   7.002743 -0.617765 -0.183752 0.000229 0.000250 -2.147204
 15   8.209042 0.615527 -0.255885 1.570090 -0.000063 -0.069706
 16   7.002735 -0.617911 -0.183641 0.012602 0.012161 -1.521766
 17   1.574674 0.609930 -0.000899 0.572274 0.323416 -0.072230
 18   -0.602177 0.511412 -0.000006 0.000000 0.000000 0.000000
 19   3.646428 0.364526 1.119313 -0.000002 -0.000014 -0.174510
 20   3.646422 0.364499 -1.117566 0.000007 -0.000003 -0.174546
 21   3.805634 1.330634 1.627658 0.000002 -0.000011 -0.000026
 22   -0.246060 -0.011889 0.516521 -0.000011 0.000031 0.000025
 23   3.805651 1.330659 -1.631083 0.000019 0.000002 -0.000024
 24   -0.246150 -0.011872 -0.516511 -0.000005 -0.000006 0.000048
 25   4.941364 1.997338 1.629330 0.000018 -0.000001 -0.000024
 26   4.941382 1.997366 -1.629410 -0.000001 0.000005 -0.000024
 27   2.930087 1.603639 1.514501 -0.000019 -0.000022 -0.000050
 28   2.932517 1.603245 -1.501142 -0.000002 -0.000009 -0.000024
 29   8.824059 0.150544 0.091743 0.003927 -0.001323 -0.163000
 30   2.111085 -0.561179 1.780414 -0.000103 0.006729 0.000517
 31   2.125196 -0.561289 -1.849693 0.000015 -0.009765 0.000544
 32   -0.814395 -0.093824 3.127092 0.002215 -3.167016 -0.021517
 33   14.298673 -0.408176 0.471578 -0.000040 -0.000274 -0.121826
 34   15.835795 0.581398 0.242756 -0.002559 0.026015 0.099976
 35   -0.815868 -0.091229 -3.114430 -0.002364 3.158489 -0.024382
 36   14.294526 -0.410349 -0.467541 0.000081 0.000036 -0.127078
 37   15.834409 0.579420 -0.284600 0.002892 -0.017210 0.102761
 38   1.139685 -3.453749 -2.823813 0.000400 -0.000289 0.000856
 39   -4.457742 -1.043135 -0.746180 0.000503 0.001127 -0.004487
 40   1.118101 -3.449769 3.237290 -0.000189 -0.000348 0.001466
 41   -4.429934 -1.051317 0.959566 0.000047 0.000108 -0.000449
 42   -0.657468 1.697302 -2.676895 0.003308 0.005169 -0.000460
 43   -0.664068 1.698578 2.857658 -0.003886 -0.005851 0.001004
time 3
  0   0.255147 0.433607 2.176219 0.000000 0.000000 -1.571354
  1   -1.093036 0.000002 -0.326057 -1.570756 -1.570425 -0.000026
  2   2.262337 0.113614 0.064702 -0.000052 0.000049 -0.243264
  3   2.380047 0.353302 0.047440 -0.155830 0.017625 0.111822
  4   2.033756 0.190472 -0.000128 -0.287327 0.015065 0.049814
  5   2.451511 0.204909 -0.003447 -0.156688 0.005766 0.048553
  6   7.247600 -0.397300 -0.109469 -0.000155 -0.183080 -0.252900
  7   -2.022252 -0.104661 3.136172 -1.724287 -1.785017 -1.118934
  8   1.168026 -0.537438 -0.063437 -0.862468 0.912768 -0.846487
  9   6.790376 -0.619176 0.015206 -0.000158 -0.000285 -1.932950
 10   8.637599 0.544015 -0.090417 -1.663549 -0.475547 -0.080495
 11   6.790465 -0.619039 0.017802 0.004388 -0.011935 -1.368308
 12   -2.022474 -0.104699 -2.873818 0.037320 1.169110 -2.848848
 13   1.167898 -0.537463 0.063297 -0.757090 -0.757067 0.279338
 14   7.002743 -0.617765 -0.183752 0.000229 0.000250 -2.147204
 15   8.209042 0.615527 -0.255885 1.570090 -0.000063 -0.069706
 16   7.002735 -0.617911 -0.183641 0.012602 0.012161 -1.521766
 17   1.574674 0.609930 -0.000899 0.571015 0.324102 -0.077589
 18   -0.602177 0.511412 -0.000006 0.000000 0.000000 0.000000
 19   3.646428 0.364526 1.119313 -0.000002 -0.000014 -0.174510
 20   3.646422 0.364499 -1.117566 0.000007 -0.000003 -0.174546
 21   3.805634 1.330634 1.627658 0.000002 -0.000011 -0.000026
 22   -0.246060 -0.011889 0.516521 -0.000011 0.000031 0.000025
 23   3.805651 1.330659 -1.631083 0.000019 0.000002 -0.000024
 24   -0.246150 -0.011872 -0.516511 -0.000005 -0.000006 0.000048
 25   4.941364 1.997338 1.629330 0.000018 -0.000001 -0.000024
 26   4.941382 1.997366 -1.629410 -0.000001 0.000005 -0.000024
 27   2.930087 1.603639 1.514501 -0.000019 -0.000022 -0.000050
 28   2.932517 1.603245 -1.501142 -0.000002 -0.000009 -0.000024
 29   8.824059 0.150544 0.091743 0.008473 -0.002629 -0.149802
 30   2.114991 -0.561179 1.772601 -0.000225 0.015185 0.001075
 31   2.129103 -0.561289 -1.845786 0.000031 -0.020928 0.001163
 32   -0.814395 -0.093824 3.127092 0.002215 -3.167016 -0.021517
 33   14.298673 -0.408176 0.471578 -0.000040 -0.000274 -0.121826
 34   15.835795 0.581398 0.242756 -0.002559 0.026015 0.099976
 35   -0.815868 -0.091229 -3.114430 -0.002364 3.158489 -0.024382
 36   14.294526 -0.410349 -0.467541 0.000081 0.000036 -0.127078
 37   15.834409 0.579420 -0.284600 0.002892 -0.017210 0.102761
 38   1.143591 -3.453749 -2.823813 0.000842 -0.000627 0.001956
 39   -4.457742 -1.027509 -0.742274 0.001091 0.002409 -0.009648
 40   1.114195 -3.449769 3.237290 -0.000400 -0.000758 0.003116
 41   -4.422121 -1.043504 0.963472 0.000107 0.000228 -0.000954
 42   -0.649655 1.697302 -2.661269 0.007095 0.011057 -0.001046
 43   -0.664068 1.698578 2.845939 -0.008321 -0.012535 0.002133
time 4
  0   0.255147 0.433607 2.176219 0.000000 0.000000 -1.571354
  1   -1.093036 0.000002 -0.326057 -1.570756 -1.570425 -0.000026
  2   2.262337 0.113614 0.064702 -0.000052 0.000049 -0.243264
  3   2.380047 0.353302 0.047440 -0.155830 0.017625 0.111822
  4   2.033756 0.190472 -0.000128 -0.287327 0.015065 0.049814
  5   2.451511 0.204909 -0.003447 -0.156585 0.005805 0.053902
  6   7.247600 -0.397300 -0.109469 -0.000143 -0.183080 -0.252900
  7   -2.022252 -0.104661 3.136172 -1.760521 -1.786372 -1.081837
  8   1.168026 -0.537438 -0.063437 -0.851900 0.903661 -0.837062
  9   6.790376 -0.619176 0.015206 -0.000158 -0.000285 -1.932950
 10   8.637599 0.544015 -0.090417 -1.663549 -0.477870 -0.080278
 11   6.790465 -0.619039 0.017802 0.004388 -0.011935 -1.368308
 12   -2.022474 -0.104699 -2.873818 0.036649 1.160228 -2.849613
 13   1.167898 -0.537463 0.063297 -0.747460 -0.750761 0.271408
 14   7.002743 -0.617765 -0.183752 0.000229 0.000250 -2.147204
 15   8.209042 0.615527 -0.255885 1.570090 -0.000063 -0.069706
 16   7.002735 -0.617911 -0.183641 0.012602 0.012161 -1.521766
 17   1.574674 0.609930 -0.000899 0.569715 0.324670 -0.083170
 18   -0.602177 0.511412 -0.000006 0.000000 0.000000 0.000000
 19   3.646428 0.364526 1.119313 -0.000002 -0.000014 -0.174510
 20   3.646422 0.364499 -1.117566 0.000007 -0.000003 -0.174546
 21   3.805634 1.330634 1.627658 0.000002 -0.000011 -0.000026
 22   -0.246060 -0.011889 0.516521 -0.000011 0.000031 0.000025
 23   3.805651 1.330659 -1.631083 0.000019 0.000002 -0.000024
 24   -0.246150 -0.011872 -0.516511 -0.000005 -0.000006 0.000048
 25   4.941364 1.997338 1.629330 0.000018 -0.000001 -0.000024
 26   4.941382 1.997366 -1.629410 -0.000001 0.000005 -0.000024
 27   2.930087 1.603639 1.514501 -0.000019 -0.000022 -0.000050
 28   2.932517 1.603245 -1.501142 -0.000002 -0.000009 -0.000024
 29   8.824059 0.150544 0.091743 0.014266 -0.004409 -0.132796
 30   2.118898 -0.561179 1.760882 -0.000374 0.026112 0.001804
 31   2.136915 -0.561289 -1.837973 0.000061 -0.035330 0.001963
 32   -0.814395 -0.093824 3.127092 0.002215 -3.167016 -0.021517
 33   14.298673 -0.408176 0.471578 -0.000040 -0.000274 -0.121826
 34   15.835795 0.581398 0.242756 -0.002559 0.026015 0.099976
 35   -0.815868 -0.091229 -3.114430 -0.002364 3.158489 -0.024382
 36   14.294526 -0.410349 -0.467541 0.000081 0.000036 -0.127078
 37   15.834409 0.579420 -0.284600 0.002892 -0.017210 0.102761
 38   1.147498 -3.453749 -2.823813 0.001431 -0.001073 0.003300
 39   -4.457742 -1.007978 -0.738367 0.001846 0.004075 -0.016267
 40   1.110288 -3.449769 3.237290 -0.000674 -0.001288 0.005315
 41   -4.410401 -1.031785 0.967379 0.000191 0.000395 -0.001599
 42   -0.645749 1.697302 -2.641737 0.011973 0.018646 -0.001798
 43   -0.664068 1.694672 2.826407 -0.014043 -0.021150 0.003639
time 5
  0   0.255147 0.433607 2.176219 0.000000 0.000000 -1.571354
  1   -1.093036 0.000002 -0.326057 -1.570756 -1.570425 -0.000026
  2   2.262337 0.113614 0.064702 -0.000052 0.000049 -0.243264
  3   2.380047 0.353302 0.047440 -0.155830 0.017625 0.111822
  4   2.033756 0.190472 -0.000128 -0.287327 0.015065 0.049814
  5   2.451511 0.204909 -0.003447 -0.156568 0.005818 0.059326
  6   7.247600 -0.397300 -0.109469 -0.000143 -0.183080 -0.252900
  7   -2.022252 -0.104661 3.136172 -1.800781 -1.788246 -1.040326
  8   1.168026 -0.537438 -0.063437 -0.840004 0.893749 -0.826117
  9   6.790376 -0.619176 0.015206 -0.000158 -0.000285 -1.932950
 10   8.637599 0.544015 -0.090417 -1.662756 -0.462244 -0.081942
 11   6.790465 -0.619039 0.017802 0.004388 -0.011935 -1.368308
 12   -2.022474 -0.104699 -2.873818 0.036074 1.150825 -2.850667
 13   1.167898 -0.537463 0.063297 -0.737829 -0.744354 0.263417
 14   7.002743 -0.617765 -0.183752 0.000229 0.000250 -2.147204
 15   8.209042 0.615527 -0.255885 1.570090 -0.000063 -0.069706
 16   7.002735 -0.617911 -0.183641 0.012602 0.012161 -1.521766
 17   1.574674 0.609930 -0.000899 0.568456 0.325309 -0.088788
 18   -0.602177 0.511412 -0.000006 0.000000 0.000000 0.000000
 19   3.646428 0.364526 1.119313 -0.000002 -0.000014 -0.174510
 20   3.646422 0.364499 -1.117566 0.000007 -0.000003 -0.174546
 21   3.805634 1.330634 1.627658 0.000002 -0.000011 -0.000026
 22   -0.246060 -0.011889 0.516521 -0.000011 0.000031 0.000025
 23   3.805651 1.330659 -1.631083 0.000019 0.000002 -0.000024
 24   -0.246150 -0.011872 -0.516511 -0.000005 -0.000006 0.000048
 25   4.941364 1.997338 1.629330 0.000018 -0.000001 -0.000024
 26   4.941382 1.997366 -1.629410 -0.000001 0.000005 -0.000024
 27   2.930087 1.603639 1.514501 -0.000019 -0.000022 -0.000050
 28   2.932517 1.603245 -1.501142 -0.000002 -0.000009 -0.000024
 29   8.824059 0.150544 0.091743 0.021039 -0.006617 -0.112785
 30   2.126710 -0.561179 1.749163 -0.000550 0.038928 0.002640
 31   2.144728 -0.561289 -1.830161 0.000092 -0.052217 0.002909
 32   -0.814395 -0.093824 3.127092 0.002215 -3.167016 -0.021517
 33   14.298673 -0.408176 0.471578 -0.000040 -0.000274 -0.121826
 34   15.835795 0.581398 0.242756 -0.002559 0.026015 0.099976
 35   -0.815868 -0.091229 -3.114430 -0.002364 3.158489 -0.024382
 36   14.294526 -0.410349 -0.467541 0.000081 0.000036 -0.127078
 37   15.834409 0.579420 -0.284600 0.002892 -0.017210 0.102761
 38   1.151404 -3.457655 -2.823813 0.002126 -0.001579 0.004827
 39   -4.461648 -0.988446 -0.730555 0.002721 0.006028 -0.024036
 40   1.106382 -3.445863 3.237290 -0.001010 -0.001915 0.007881
 41   -4.398683 -1.016160 0.971285 0.000287 0.000587 -0.002384
 42   -0.637936 1.697302 -2.618299 0.017701 0.027570 -0.002635
 43   -0.664068 1.690765 2.806875 -0.020765 -0.031255 0.005395
time 6
  0   0.255147 0.441420 2.176219 0.000000 0.000000 -1.571354
  1   -1.093036 0.000002 -0.326057 -1.570756 -1.570425 0.000071
  2   2.262337 0.113614 0.064702 -0.000052 0.000049 -0.243264
  3   2.380047 0.353302 0.047440 -0.155830 0.017625 0.111822
  4   2.033756 0.190472 -0.000128 -0.287327 0.015065 0.049814
  5   2.451511 0.204909 -0.003447 -0.156448 0.005857 0.064799
  6   7.247600 -0.397300 -0.109469 -0.000155 -0.183080 -0.252900
  7   -2.022252 -0.104661 3.136172 -1.842192 -1.790696 -0.998064
  8   1.168026 -0.537438 -0.063437 -0.828044 0.883485 -0.815363
  9   6.790376 -0.619176 0.015206 -0.000158 -0.000285 -1.932950
 10   8.637599 0.544015 -0.090417 -1.661700 -0.436481 -0.084257
 11   6.790465 -0.619039 0.017802 0.004388 -0.011935 -1.368308
 12   -2.022474 -0.104699 -2.873818 0.035212 1.141682 -2.851337
 13   1.167898 -0.537463 0.063297 -0.728128 -0.737641 0.255790
 14   7.002743 -0.617765 -0.183752 0.000229 0.000250 -2.147204
 15   8.209042 0.615527 -0.255885 1.570090 -0.000063 -0.069706
 16   7.002735 -0.617911 -0.183641 0.012602 0.012161 -1.521766
 17   1.574674 0.609930 -0.000899 0.567075 0.325948 -0.094406
 18   -0.602177 0.511412 -0.000006 0.000000 0.000000 0.000000
 19   3.646428 0.364526 1.119313 -0.000002 -0.000014 -0.174510
 20   3.646422 0.364499 -1.117566 0.000007 -0.000003 -0.174546
 21   3.805634 1.330634 1.627658 0.000002 -0.000011 -0.000026
 22   -0.246060 -0.011889 0.516521 -0.000011 0.000031 0.000025
 23   3.805651 1.330659 -1.631083 0.000019 0.000002 -0.000024
 24   -0.246150 -0.011872 -0.516511 -0.000005 -0.000006 0.000048
 25   4.941364 1.997338 1.629330 0.000018 -0.000001 -0.000024
 26   4.941382 1.997366 -1.629410 -0.000001 0.000005 -0.000024
 27   2.930087 1.603639 1.514501 -0.000019 -0.000022 -0.000050
 28   2.932517 1.603245 -1.501142 -0.000002 -0.000009 -0.000024
 29   8.824059 0.150544 0.091743 0.028525 -0.009228 -0.090682
 30   2.130617 -0.561179 1.737444 -0.000740 0.053081 0.003584
 31   2.152541 -0.561289 -1.818442 0.000138 -0.070892 0.003965
 32   -0.814395 -0.093824 3.127092 0.002215 -3.167016 -0.021517
 33   14.298673 -0.408176 0.471578 -0.000040 -0.000274 -0.121826
 34   15.835795 0.581398 0.242756 -0.002559 0.026015 0.099976
 35   -0.815868 -0.091229 -3.114430 -0.002364 3.158489 -0.024382
 36   14.294526 -0.410349 -0.467541 0.000081 0.000036 -0.127078
 37   15.834409 0.579420 -0.284600 0.002892 -0.017210 0.102761
 38   1.155311 -3.457655 -2.823813 0.002884 -0.002157 0.006599
 39   -4.461648 -0.961101 -0.726648 0.003703 0.008173 -0.032646
 40   1.102476 -3.445863 3.237290 -0.001368 -0.002602 0.010692
 41   -4.386963 -1.000534 0.979098 0.000394 0.000791 -0.003253
 42   -0.634030 1.693396 -2.590955 0.024029 0.037428 -0.003597
 43   -0.664068 1.686859 2.783437 -0.028187 -0.042443 0.007319
time 7
  0   0.255147 0.441420 2.176219 0.000000 0.000000 -1.571354
  1   -1.093036 0.000002 -0.326057 -1.570756 -1.570425 0.000071
  2   2.262337 0.113614 0.064702 -0.000052 0.000049 -0.243264
  3   2.380047 0.353302 0.047440 -0.155830 0.017625 0.111822
  4   2.033756 0.190472 -0.000128 -0.287327 0.015065 0.049814
  5   2.451511 0.204909 -0.003447 -0.156431 0.005935 0.070198
  6   7.247600 -0.397300 -0.109469 -0.000155 -0.183080 -0.252900
  7   -2.022252 -0.104661 3.136172 -1.881206 -1.793291 -0.958055
  8   1.168026 -0.537438 -0.063437 -0.816969 0.873724 -0.805431
  9   6.790376 -0.619176 0.015206 -0.000158 -0.000285 -1.932950
 10   8.637599 0.544015 -0.090417 -1.660819 -0.407973 -0.087440
 11   6.790465 -0.619039 0.017802 0.004388 -0.011935 -1.368308
 12   -2.022474 -0.104699 -2.873818 0.034637 1.132423 -2.852103
 13   1.167898 -0.537463 0.063297 -0.718920 -0.731233 0.248223
 14   7.002743 -0.617765 -0.183752 0.000229 0.000250 -2.147204
 15   8.209042 0.615527 -0.255885 1.570090 -0.000063 -0.069706
 16   7.002735 -0.617911 -0.183641 0.012602 0.012161 -1.521766
 17   1.574674 0.609930 -0.000899 0.565815 0.326563 -0.100061
 18   -0.602177 0.511412 -0.000006 0.000000 0.000000 0.000000
 19   3.646428 0.364526 1.119313 -0.000002 -0.000014 -0.174510
 20   3.646422 0.364499 -1.117566 0.000007 -0.000003 -0.174546
 21   3.805634 1.330634 1.627658 0.000002 -0.000011 -0.000026
 22   -0.246060 -0.011889 0.516521 -0.000011 0.000031 0.000025
 23   3.805651 1.330659 -1.631083 0.000019 0.000002 -0.000024
 24   -0.246150 -0.011872 -0.516511 -0.000005 -0.000006 0.000048
 25   4.941364 1.997338 1.629330 0.000018 -0.000001 -0.000024
 26   4.941382 1.997366 -1.629410 -0.000001 0.000005 -0.000024
 27   2.930087 1.603639 1.514501 -0.000019 -0.000022 -0.000050
 28   2.932517 1.603245 -1.501142 -0.000002 -0.000009 -0.000024
 29   8.824059 0.150544 0.091743 0.036368 -0.012147 -0.067345
 30   2.138430 -0.557273 1.721818 -0.000957 0.068076 0.004591
 31   2.164260 -0.561289 -1.810629 0.000184 -0.090655 0.005075
 32   -0.814395 -0.093824 3.127092 0.002215 -3.167016 -0.021517
 33   14.298673 -0.408176 0.471578 -0.000040 -0.000274 -0.121826
 34   15.835795 0.581398 0.242756 -0.002559 0.026015 0.099976
 35   -0.815868 -0.091229 -3.114430 -0.002364 3.158489 -0.024382
 36   14.294526 -0.410349 -0.467541 0.000081 0.000036 -0.127078
 37   15.834409 0.579420 -0.284600 0.002892 -0.017210 0.102761
 38   1.159217 -3.461562 -2.823813 0.003684 -0.002748 0.008432
 39   -4.465555 -0.933757 -0.718835 0.004734 0.010463 -0.041761
 40   1.098569 -3.441956 3.237290 -0.001747 -0.003325 0.013685
 41   -4.371338 -0.984909 0.983004 0.000502 0.001019 -0.004151
 42   -0.626217 1.693396 -2.563610 0.030728 0.047869 -0.004600
 43   -0.664068 1.682953 2.759999 -0.036045 -0.054275 0.009326
time 8
  0   0.274679 0.453139 2.176219 0.000000 0.000000 -1.571354
  1   -1.093036 0.000002 -0.326057 -1.570756 -1.570425 -0.000219
  2   2.262337 0.113614 0.064702 -0.000052 0.000049 -0.243264
  3   2.380047 0.353302 0.047440 -0.155830 0.017625 0.111822
  4   2.033756 0.190472 -0.000128 -0.287327 0.015065 0.049814
  5   2.451511 0.204909 -0.003447 -0.156414 0.006014 0.075250
  6   7.247600 -0.397300 -0.109469 -0.000155 -0.183080 -0.252900
  7   -2.022252 -0.104661 3.136172 -1.915140 -1.795827 -0.923494
  8   1.168026 -0.537438 -0.063437 -0.807224 0.864416 -0.796891
  9   6.790376 -0.619176 0.015206 -0.000158 -0.000285 -1.932950
 10   8.637599 0.544015 -0.090417 -1.659586 -0.384814 -0.089755
 11   6.790465 -0.619039 0.017802 0.004388 -0.011935 -1.368308
 12   -2.022474 -0.104699 -2.873818 0.034158 1.123745 -2.852869
 13   1.167898 -0.537463 0.063297 -0.709992 -0.724978 0.240959
 14   7.002743 -0.617765 -0.183752 0.000229 0.000250 -2.147204
 15   8.209042 0.615527 -0.255885 1.570090 -0.000063 -0.069706
 16   7.002735 -0.617911 -0.183641 0.012602 0.012161 -1.521766
 17   1.574674 0.609930 -0.000899 0.564515 0.327084 -0.105421
 18   -0.602177 0.511412 -0.000006 0.000000 0.000000 0.000000
 19   3.646428 0.364526 1.119313 -0.000002 -0.000014 -0.174510
 20   3.646422 0.364499 -1.117566 0.000007 -0.000003 -0.174546
 21   3.805634 1.330634 1.627658 0.000002 -0.000011 -0.000026
 22   -0.246060 -0.011889 0.516521 -0.000011 0.000031 0.000025
 23   3.805651 1.330659 -1.631083 0.000019 0.000002 -0.000024
 24   -0.246150 -0.011872 -0.516511 -0.000005 -0.000006 0.000048
 25   4.941364 1.997338 1.629330 0.000018 -0.000001 -0.000024
 26   4.941382 1.997366 -1.629410 -0.000001 0.000005 -0.000024
 27   2.930087 1.603639 1.514501 -0.000019 -0.000022 -0.000050
 28   2.932517 1.603245 -1.501142 -0.000002 -0.000009 -0.000024
 29   8.824059 0.150544 0.091743 0.044211 -0.015328 -0.043579
 30   2.146242 -0.557273 1.710099 -0.001161 0.083334 0.005599
 31   2.172073 -0.561289 -1.798910 0.000215 -0.110755 0.006203
 32   -0.814395 -0.093824 3.127092 0.002215 -3.167016 -0.021517
 33   14.298673 -0.408176 0.471578 -0.000040 -0.000274 -0.121826
 34   15.835795 0.581398 0.242756 -0.002559 0.026015 0.099976
 35   -0.815868 -0.091229 -3.114430 -0.002364 3.158489 -0.024382
 36   14.294526 -0.410349 -0.467541 0.000081 0.000036 -0.127078
 37   15.834409 0.579420 -0.284600 0.002892 -0.017210 0.102761
 38   1.163123 -3.465468 -2.823813 0.004505 -0.003362 0.010326
 39   -4.469461 -0.910318 -0.714929 0.005789 0.012776 -0.051017
 40   1.094663 -3.438050 3.237290 -0.002147 -0.004060 0.016740
 41   -4.355712 -0.965377 0.990817 0.000622 0.001246 -0.005076
 42   -0.618404 1.693396 -2.536265 0.037548 0.058479 -0.005646
 43   -0.664068 1.679046 2.736560 -0.044042 -0.066310 0.011418
time 9
  0   0.274679 0.464858 2.176219 0.000000 0.000000 -1.571354
  1   -1.093036 0.000002 -0.326057 -1.570756 -1.570425 0.000071
  2   2.262337 0.113614 0.064702 -0.000052 0.000049 -0.243264
  3   2.380047 0.353302 0.047440 -0.155830 0.017625 0.111822
  4   2.033756 0.190472 -0.000128 -0.287327 0.015065 0.049814
  5   2.451511 0.204909 -0.003447 -0.156294 0.006236 0.080104
  6   7.247600 -0.397300 -0.109469 -0.000155 -0.183080 -0.252900
  7   -2.022252 -0.104661 3.136172 -1.947923 -1.798681 -0.889966
  8   1.168026 -0.537438 -0.063437 -0.797606 0.855258 -0.788414
  9   6.790376 -0.619176 0.015206 -0.000158 -0.000285 -1.932950
 10   8.637599 0.544015 -0.090417 -1.659058 -0.366020 -0.091419
 11   6.790465 -0.619039 0.017802 0.004388 -0.011935 -1.368308
 12   -2.022474 -0.104699 -2.873818 0.033296 1.115793 -2.853252
 13   1.167898 -0.537463 0.063297 -0.701767 -0.719181 0.234542
 14   7.002743 -0.617765 -0.183752 0.000229 0.000250 -2.147204
 15   8.209042 0.615527 -0.255885 1.570090 -0.000063 -0.069706
 16   7.002735 -0.617911 -0.183641 0.012602 0.012161 -1.521766
 17   1.574674 0.609930 -0.000899 0.563337 0.327723 -0.110447
 18   -0.602177 0.511412 -0.000006 0.000000 0.000000 0.000000
 19   3.646428 0.364526 1.119313 -0.000002 -0.000014 -0.174510
 20   3.646422 0.364499 -1.117566 0.000007 -0.000003 -0.174546
 21   3.805634 1.330634 1.627658 0.000002 -0.000011 -0.000026
 22   -0.246060 -0.011889 0.516521 -0.000011 0.000031 0.000025
 23   3.805651 1.330659 -1.631083 0.000019 0.000002 -0.000024
 24   -0.246150 -0.011872 -0.516511 -0.000005 -0.000006 0.000048
 25   4.941364 1.997338 1.629330 0.000018 -0.000001 -0.000024
 26   4.941382 1.997366 -1.629410 -0.000001 0.000005 -0.000024
 27   2.930087 1.603639 1.514501 -0.000019 -0.000022 -0.000050
 28   2.932517 1.603245 -1.501142 -0.000002 -0.000009 -0.000024
 29   8.824059 0.150544 0.091743 0.051965 -0.018628 -0.020242
 30   2.150149 -0.557273 1.694474 -0.001378 0.098329 0.006607
 31   2.183792 -0.557383 -1.791097 0.000260 -0.130517 0.007313
 32   -0.814395 -0.093824 3.127092 0.002215 -3.167016 -0.021517
 33   14.298673 -0.408176 0.471578 -0.000040 -0.000274 -0.121826
 34   15.835795 0.581398 0.242756 -0.002559 0.026015 0.099976
 35   -0.815868 -0.091229 -3.114430 -0.002364 3.158489 -0.024382
 36   14.294526 -0.410349 -0.467541 0.000081 0.000036 -0.127078
 37   15.834409 0.579420 -0.284600 0.002892 -0.017210 0.102761
 38   1.167030 -3.465468 -2.823813 0.005325 -0.003965 0.012159
 39   -4.469461 -0.882974 -0.707116 0.006819 0.015065 -0.060132
 40   1.090756 -3.438050 3.237290 -0.002526 -0.004783 0.019734
 41   -4.343993 -0.949752 0.994723 0.000730 0.001462 -0.005974
 42   -0.610592 1.689489 -2.508921 0.044235 0.068921 -0.006650
 43   -0.660162 1.675140 2.709216 -0.051900 -0.078141 0.013467
time 10
  0   0.274679 0.464858 2.176219 0.000000 0.000000 -1.571354
  1   -1.093036 0.000002 -0.326057 -1.570756 -1.570425 0.000071
  2   2.262337 0.113614 0.064702 -0.000052 0.000049 -0.243264
  3   2.380047 0.353302 0.047440 -0.155830 0.017625 0.111822
  4   2.033756 0.190472 -0.000128 -0.287327 0.015065 0.049814
  5   2.451511 0.204909 -0.003447 -0.156294 0.006288 0.084537
  6   7.247600 -0.397300 -0.109469 -0.000155 -0.183080 -0.252900
  7   -2.022252 -0.104661 3.136172 -1.980994 -1.801881 -0.855780
  8   1.168026 -0.537438 -0.063437 -0.788114 0.846655 -0.779937
  9   6.790376 -0.619176 0.015206 -0.000158 -0.000285 -1.932950
 10   8.637599 0.544015 -0.090417 -1.658529 -0.346311 -0.093083
 11   6.790465 -0.619039 0.017802 0.004388 -0.011935 -1.368308
 12   -2.022474 -0.104699 -2.873818 0.033104 1.108363 -2.854017
 13   1.167898 -0.537463 0.063297 -0.694667 -0.713739 0.228307
 14   7.002743 -0.617765 -0.183752 0.000229 0.000250 -2.147204
 15   8.209042 0.615527 -0.255885 1.570090 -0.000063 -0.069706
 16   7.002735 -0.617911 -0.183641 0.012602 0.012161 -1.521766
 17   1.574674 0.609930 -0.000899 0.562281 0.328125 -0.115068
 18   -0.602177 0.511412 -0.000006 0.000000 0.000000 0.000000
 19   3.646428 0.364526 1.119313 -0.000002 -0.000014 -0.174510
 20   3.646422 0.364499 -1.117566 0.000007 -0.000003 -0.174546
 21   3.805634 1.330634 1.627658 0.000002 -0.000011 -0.000026
 22   -0.246060 -0.011889 0.516521 -0.000011 0.000031 0.000025
 23   3.805651 1.330659 -1.631083 0.000019 0.000002 -0.000024
 24   -0.246150 -0.011872 -0.516511 -0.000005 -0.000006 0.000048
 25   4.941364 1.997338 1.629330 0.000018 -0.000001 -0.000024
 26   4.941382 1.997366 -1.629410 -0.000001 0.000005 -0.000024
 27   2.930087 1.603639 1.514501 -0.000019 -0.000022 -0.000050
 28   2.932517 1.603245 -1.501142 -0.000002 -0.000009 -0.000024
 29   8.824059 0.150544 0.091743 0.059095 -0.021928 0.001754
 30   2.157961 -0.553366 1.682754 -0.001567 0.112511 0.007529
 31   2.191605 -0.557383 -1.779378 0.000291 -0.149192 0.008350
 32   -0.814395 -0.093824 3.127092 0.002215 -3.167016 -0.021517
 33   14.298673 -0.408176 0.471578 -0.000040 -0.000274 -0.121826
 34   15.835795 0.581398 0.242756 -0.002559 0.026015 0.099976
 35   -0.815868 -0.091229 -3.114430 -0.002364 3.158489 -0.024382
 36   14.294526 -0.410349 -0.467541 0.000081 0.000036 -0.127078
 37   15.834409 0.579420 -0.284600 0.002892 -0.017210 0.102761
 38   1.170936 -3.469374 -2.823813 0.006083 -0.004531 0.013931
 39   -4.473368 -0.855629 -0.703210 0.007790 0.017222 -0.068742
 40   1.086850 -3.434144 3.237290 -0.002884 -0.005470 0.022544
 41   -4.328368 -0.934126 1.002536 0.000838 0.001678 -0.006843
 42   -0.602779 1.689489 -2.481576 0.050575 0.078779 -0.007612
 43   -0.660162 1.675140 2.685778 -0.059334 -0.089329 0.015391
time 11
  0   0.274679 0.464858 2.176219 0.000000 0.000000 -1.571354
  1   -1.093036 0.000002 -0.326057 -1.570756 -1.570425 0.000071
  2   2.262337 0.113614 0.064702 -0.000052 0.000049 -0.243264
  3   2.380047 0.353302 0.047440 -0.155830 0.017625 0.111822
  4   2.033756 0.190472 -0.000128 -0.287327 0.015065 0.049814
  5   2.451511 0.204909 -0.003447 -0.156277 0.006340 0.088351
  6   7.247600 -0.397300 -0.109469 -0.000155 -0.183080 -0.252900
  7   -2.022252 -0.104661 3.136172 -2.009656 -1.805052 -0.826666
  8   1.168026 -0.537438 -0.063437 -0.779761 0.838957 -0.772662
  9   6.790376 -0.619176 0.015206 -0.000158 -0.000285 -1.932950
 10   8.637599 0.544015 -0.090417 -1.657825 -0.327305 -0.095181
 11   6.790465 -0.619039 0.017802 0.004388 -0.011935 -1.368308
 12   -2.022474 -0.104699 -2.873818 0.032625 1.101687 -2.854401
 13   1.167898 -0.537463 0.063297 -0.688059 -0.708959 0.223343
 14   7.002743 -0.617765 -0.183752 0.000229 0.000250 -2.147204
 15   8.209042 0.615527 -0.255885 1.570090 -0.000063 -0.069706
 16   7.002735 -0.617911 -0.183641 0.012602 0.012161 -1.521766
 17   1.574674 0.609930 -0.000899 0.561306 0.328575 -0.119096
 18   -0.602177 0.511412 -0.000006 0.000000 0.000000 0.000000
 19   3.646428 0.364526 1.119313 -0.000002 -0.000014 -0.174510
 20   3.646422 0.364499 -1.117566 0.000007 -0.000003 -0.174546
 21   3.805634 1.330634 1.627658 0.000002 -0.000011 -0.000026
 22   -0.246060 -0.011889 0.516521 -0.000011 0.000031 0.000025
 23   3.805651 1.330659 -1.631083 0.000019 0.000002 -0.000024
 24   -0.246150 -0.011872 -0.516511 -0.000005 -0.000006 0.000048
 25   4.941364 1.997338 1.629330 0.000018 -0.000001 -0.000024
 26   4.941382 1.997366 -1.629410 -0.000001 0.000005 -0.000024
 27   2.930087 1.603639 1.514501 -0.000019 -0.000022 -0.000050
 28   2.932517 1.603245 -1.501142 -0.000002 -0.000009 -0.000024
 29   8.824059 0.150544 0.091743 0.065601 -0.025013 0.021603
 30   2.161868 -0.553366 1.671035 -0.001744 0.125327 0.008387
 31   2.199417 -0.557383 -1.771565 0.000337 -0.166080 0.009296
 32   -0.814395 -0.093824 3.127092 0.002215 -3.167016 -0.021517
 33   14.298673 -0.408176 0.471578 -0.000040 -0.000274 -0.121826
 34   15.835795 0.581398 0.242756 -0.002559 0.026015 0.099976
 35   -0.815868 -0.091229 -3.114430 -0.002364 3.158489 -0.024382
 36   14.294526 -0.410349 -0.467541 0.000081 0.000036 -0.127078
 37   15.834409 0.579420 -0.284600 0.002892 -0.017210 0.102761
 38   1.174842 -3.469374 -2.823813 0.006778 -0.005049 0.015519
 39   -4.473368 -0.836097 -0.695397 0.008677 0.019163 -0.076511
 40   1.079037 -3.434144 3.237290 -0.003221 -0.006097 0.025110
 41   -4.316648 -0.918501 1.006442 0.000934 0.001870 -0.007629
 42   -0.594966 1.689489 -2.458138 0.056304 0.087703 -0.008490
 43   -0.660162 1.671233 2.666246 -0.066044 -0.099435 0.017147
time 12
  0   0.274679 0.464858 2.176219 0.000000 0.000000 -1.571354
  1   -1.093036 0.000002 -0.326057 -1.570756 -1.570425 0.000071
  2   2.262337 0.113614 0.064702 -0.000052 0.000049 -0.243264
  3   2.380047 0.353302 0.047440 -0.155830 0.017625 0.111822
  4   2.033756 0.190472 -0.000128 -0.287327 0.015065 0.049814
  5   2.451511 0.204909 -0.003447 -0.156243 0.006392 0.091521
  6   7.247600 -0.397300 -0.109469 -0.000143 -0.183080 -0.252900
  7   -2.022252 -0.104661 3.136172 -2.028540 -1.807243 -0.806756
  8   1.168026 -0.537438 -0.063437 -0.774129 0.833070 -0.767728
  9   6.790376 -0.619176 0.015206 -0.000158 -0.000285 -1.932950
 10   8.637599 0.544015 -0.090417 -1.657296 -0.309004 -0.096917
 11   6.790465 -0.619039 0.017802 0.004388 -0.011935 -1.368308
 12   -2.022474 -0.104699 -2.873818 0.032242 1.096579 -2.854688
 13   1.167898 -0.537463 0.063297 -0.682928 -0.704890 0.218924
 14   7.002743 -0.617765 -0.183752 0.000229 0.000250 -2.147204
 15   8.209042 0.615527 -0.255885 1.570090 -0.000063 -0.069706
 16   7.002735 -0.617911 -0.183641 0.012602 0.012161 -1.521766
 17   1.574674 0.609930 -0.000899 0.560494 0.328883 -0.122238
 18   -0.602177 0.511412 -0.000006 0.000000 0.000000 0.000000
 19   3.646428 0.364526 1.119313 -0.000002 -0.000014 -0.174510
 20   3.646422 0.364499 -1.117566 0.000007 -0.000003 -0.174546
 21   3.805634 1.330634 1.627658 0.000002 -0.000011 -0.000026
 22   -0.246060 -0.011889 0.516521 -0.000011 0.000031 0.000025
 23   3.805651 1.330659 -1.631083 0.000019 0.000002 -0.000024
 24   -0.246150 -0.011872 -0.516511 -0.000005 -0.000006 0.000048
 25   4.941364 1.997338 1.629330 0.000018 -0.000001 -0.000024
 26   4.941382 1.997366 -1.629410 -0.000001 0.000005 -0.000024
 27   2.930087 1.603639 1.514501 -0.000019 -0.000022 -0.000050
 28   2.932517 1.603245 -1.501142 -0.000002 -0.000009 -0.000024
 29   8.824059 0.150544 0.091743 0.070948 -0.027767 0.038503
 30   2.165774 -0.553366 1.659316 -0.001893 0.136225 0.009116
 31   2.207230 -0.557383 -1.763752 0.000352 -0.180455 0.010096
 32   -0.814395 -0.093824 3.127092 0.002215 -3.167016 -0.021517
 33   14.298673 -0.408176 0.471578 -0.000040 -0.000274 -0.121826
 34   15.835795 0.581398 0.242756 -0.002559 0.026015 0.099976
 35   -0.815868 -0.091229 -3.114430 -0.002364 3.158489 -0.024382
 36   14.294526 -0.410349 -0.467541 0.000081 0.000036 -0.127078
 37   15.834409 0.579420 -0.284600 0.002892 -0.017210 0.102761
 38   1.178749 -3.469374 -2.823813 0.007367 -0.005483 0.016863
 39   -4.473368 -0.816566 -0.691491 0.009432 0.020829 -0.083158
 40   1.079037 -3.434144 3.237290 -0.003494 -0.006627 0.027309
 41   -4.308836 -0.906782 1.010349 0.001018 0.002025 -0.008274
 42   -0.591060 1.689489 -2.438606 0.061169 0.095292 -0.009201
 43   -0.660162 1.667327 2.650620 -0.071766 -0.108049 0.018611
time 13
  0   0.274679 0.472671 2.176219 0.000000 0.000000 -1.571354
  1   -1.093036 0.000002 -0.326057 -1.570756 -1.570425 -0.000219
  2   2.262337 0.113614 0.064702 -0.000052 0.000049 -0.243264
  3   2.380047 0.353302 0.047440 -0.155830 0.017625 0.111822
  4   2.033756 0.190472 -0.000128 -0.287327 0.015065 0.049814
  5   2.451511 0.204909 -0.003447 -0.156140 0.006418 0.093824
  6   7.247600 -0.397300 -0.109469 -0.000143 -0.183080 -0.252900
  7   -2.022252 -0.104661 3.136172 -2.033908 -1.807935 -0.801684
  8   1.168026 -0.537438 -0.063437 -0.772990 0.829850 -0.766779
  9   6.790376 -0.619176 0.015206 -0.000158 -0.000285 -1.932950
 10   8.637599 0.544015 -0.090417 -1.656944 -0.293025 -0.098292
 11   6.790465 -0.619039 0.017802 0.004388 -0.011935 -1.368308
 12   -2.022474 -0.104699 -2.873818 0.032050 1.092487 -2.855071
 13   1.167898 -0.537463 0.063297 -0.679132 -0.701941 0.215837
 14   7.002743 -0.617765 -0.183752 0.000229 0.000250 -2.147204
 15   8.209042 0.615527 -0.255885 1.570090 -0.000063 -0.069706
 16   7.002735 -0.617911 -0.183641 0.012602 0.012161 -1.521766
 17   1.574674 0.609930 -0.000899 0.559925 0.329096 -0.124825
 18   -0.602177 0.511412 -0.000006 0.000000 0.000000 0.000000
 19   3.646428 0.364526 1.119313 -0.000002 -0.000014 -0.174510
 20   3.646422 0.364499 -1.117566 0.000007 -0.000003 -0.174546
 21   3.805634 1.330634 1.627658 0.000002 -0.000011 -0.000026
 22   -0.246060 -0.011889 0.516521 -0.000011 0.000031 0.000025
 23   3.805651 1.330659 -1.631083 0.000019 0.000002 -0.000024
 24   -0.246150 -0.011872 -0.516511 -0.000005 -0.000006 0.000048
 25   4.941364 1.997338 1.629330 0.000018 -0.000001 -0.000024
 26   4.941382 1.997366 -1.629410 -0.000001 0.000005 -0.000024
 27   2.930087 1.603639 1.514501 -0.000019 -0.000022 -0.000050
 28   2.932517 1.603245 -1.501142 -0.000002 -0.000009 -0.000024
 29   8.824059 0.150544 0.091743 0.075137 -0.029951 0.051593
 30   2.169681 -0.553366 1.651503 -0.002015 0.144681 0.009673
 31   2.215043 -0.557383 -1.759846 0.000383 -0.191619 0.010733
 32   -0.814395 -0.093824 3.127092 0.002215 -3.167016 -0.021517
 33   14.298673 -0.408176 0.471578 -0.000040 -0.000274 -0.121826
 34   15.835795 0.581398 0.242756 -0.002559 0.026015 0.099976
 35   -0.815868 -0.091229 -3.114430 -0.002364 3.158489 -0.024382
 36   14.294526 -0.410349 -0.467541 0.000081 0.000036 -0.127078
 37   15.834409 0.579420 -0.284600 0.002892 -0.017210 0.102761
 38   1.182655 -3.473281 -2.823813 0.007809 -0.005820 0.017902
 39   -4.477274 -0.800940 -0.687584 0.010007 0.022112 -0.088291
 40   1.075131 -3.430237 3.237290 -0.003726 -0.007037 0.028959
 41   -4.301023 -0.898969 1.014255 0.001078 0.002157 -0.008779
 42   -0.587153 1.685583 -2.422981 0.064956 0.101195 -0.009786
 43   -0.660162 1.667327 2.634995 -0.076214 -0.114734 0.019782
time 14
  0   0.274679 0.472671 2.176219 0.000000 0.000000 -1.571354
  1   -1.093036 0.000002 -0.326057 -1.570756 -1.570425 -0.000219
  2   2.262337 0.113614 0.064702 -0.000052 0.000049 -0.243264
  3   2.380047 0.353302 0.047440 -0.155830 0.017625 0.111822
  4   2.033756 0.190472 -0.000128 -0.287327 0.015065 0.049814
  5   2.451511 0.204909 -0.003447 -0.156140 0.006444 0.095409
  6   7.247600 -0.397300 -0.109469 -0.000143 -0.183080 -0.252900
  7   -2.022252 -0.104661 3.136172 -2.025185 -1.806782 -0.810419
  8   1.168026 -0.537438 -0.063437 -0.776154 0.829699 -0.769752
  9   6.790376 -0.619176 0.015206 -0.000158 -0.000285 -1.932950
 10   8.637599 0.544015 -0.090417 -1.656328 -0.279651 -0.099377
 11   6.790465 -0.619039 0.017802 0.004388 -0.011935 -1.368308
 12   -2.022474 -0.104699 -2.873818 0.032050 1.089932 -2.855071
 13   1.167898 -0.537463 0.063297 -0.676531 -0.700161 0.213718
 14   7.002743 -0.617765 -0.183752 0.000229 0.000250 -2.147204
 15   8.209042 0.615527 -0.255885 1.570090 -0.000063 -0.069706
 16   7.002735 -0.617911 -0.183641 0.012602 0.012161 -1.521766
 17   1.574674 0.609930 -0.000899 0.559519 0.329309 -0.126452
 18   -0.602177 0.511412 -0.000006 0.000000 0.000000 0.000000
 19   3.658147 0.270773 1.119313 -0.000002 -0.000014 -0.174510
 20   3.658141 0.270746 -1.117566 0.000007 -0.000003 -0.174546
 21   3.352495 1.260319 1.572969 0.000002 -0.000011 -0.000026
 22   -0.238247 -0.382994 0.496989 0.000099 -0.028720 0.445010
 23   3.360325 1.256438 -1.623270 0.000019 0.000002 -0.000024
 24   -0.160210 -0.285318 -0.532136 0.000091 -0.028745 0.445076
 25   4.531195 1.993432 1.637143 -0.032209 0.220350 0.007203
 26   4.531213 1.993460 -1.621597 0.035761 -0.204352 -0.020865
 27   3.117593 1.463010 1.502782 -0.000019 -0.000022 -0.000050
 28   3.120023 1.462616 -1.512861 -0.000002 -0.000009 -0.000024
 29   8.824059 0.150544 0.091743 0.077811 -0.031399 0.060069
 30   2.173587 -0.553366 1.647597 -0.002096 0.150174 0.010038
 31   2.218949 -0.557383 -1.755940 0.000398 -0.198845 0.011134
 32   -0.814395 -0.093824 3.127092 0.002215 -3.167016 -0.021517
 33   14.298673 -0.408176 0.471578 -0.000040 -0.000274 -0.121826
 34   15.835795 0.581398 0.242756 -0.002559 0.026015 0.099976
 35   -0.815868 -0.091229 -3.114430 -0.002364 3.158489 -0.024382
 36   14.294526 -0.410349 -0.467541 0.000081 0.000036 -0.127078
 37   15.834409 0.579420 -0.284600 0.002892 -0.017210 0.102761
 38   1.182655 -3.473281 -2.823813 0.008104 -0.006049 0.018574
 39   -4.477274 -0.789221 -0.687584 0.010391 0.022950 -0.091628
 40   1.075131 -3.430237 3.237290 -0.003852 -0.007302 0.030059
 41   -4.293211 -0.891156 1.018162 0.001126 0.002241 -0.009115
 42   -0.583247 1.685583 -2.415168 0.067401 0.104998 -0.010163
 43   -0.660162 1.663421 2.627182 -0.079075 -0.119049 0.020535
time 15
  0   0.274679 0.472671 2.176219 0.000000 0.000000 -1.571354
  1   -1.093036 0.000002 -0.326057 -1.570756 -1.570425 -0.000219
  2   2.262337 0.113614 0.064702 -0.000052 0.000049 -0.243264
  3   2.380047 0.353302 0.047440 -0.155830 0.017625 0.111822
  4   2.033756 0.190472 -0.000128 -0.287327 0.015065 0.049814
  5   2.451511 0.204909 -0.003447 -0.156140 0.006458 0.095954
  6   7.247600 -0.397300 -0.109469 -0.000143 -0.183080 -0.252900
  7   -2.022252 -0.104661 3.136172 -2.008410 -1.804908 -0.827981
  8   1.168026 -0.537438 -0.063437 -0.781785 0.831611 -0.775066
  9   6.790376 -0.619176 0.015206 -0.000158 -0.000285 -1.932950
 10   8.637599 0.544015 -0.090417 -1.655975 -0.267685 -0.100462
 11   6.790465 -0.619039 0.017802 0.004388 -0.011935 -1.368308
 12   -2.022474 -0.104699 -2.873818 0.032050 1.088975 -2.855166
 13   1.167898 -0.537463 0.063297 -0.675828 -0.699347 0.213113
 14   7.002743 -0.617765 -0.183752 0.000229 0.000250 -2.147204
 15   8.209042 0.615527 -0.255885 1.570090 -0.000063 -0.069706
 16   7.002735 -0.617911 -0.183641 0.012602 0.012161 -1.521766
 17   1.574674 0.609930 -0.000899 0.559438 0.329309 -0.126895
 18   -0.602177 0.511412 -0.000006 0.000000 0.000000 0.000000
 19   3.673773 0.177020 1.119313 -0.000002 -0.000014 -0.174510
 20   3.673767 0.176993 -1.117566 0.000007 -0.000003 -0.174546
 21   2.899356 1.190005 1.518280 0.000002 -0.000011 -0.000026
 22   -0.226528 -0.758005 0.473551 0.000194 -0.057471 0.890061
 23   2.914999 1.182217 -1.611551 0.000019 0.000002 -0.000024
 24   -0.074270 -0.562670 -0.551668 0.000187 -0.057496 0.890104
 25   4.117120 1.989525 1.648862 -0.064423 0.440701 0.014429
 26   4.117138 1.989553 -1.609878 0.071535 -0.408734 -0.041706
 27   3.305099 1.322380 1.487156 -0.000019 -0.000022 -0.000050
 28   3.307528 1.321986 -1.528487 -0.000002 -0.000009 -0.000024
 29   8.824059 0.150544 0.091743 0.078791 -0.031921 0.063073
 30   2.173587 -0.553366 1.643691 -0.002123 0.152121 0.010167
 31   2.218949 -0.557383 -1.752033 0.000398 -0.201410 0.011279
 32   -0.814395 -0.093824 3.127092 0.002215 -3.167016 -0.021517
 33   14.298673 -0.408176 0.471578 -0.000040 -0.000274 -0.121826
 34   15.835795 0.581398 0.242756 -0.002559 0.026015 0.099976
 35   -0.815868 -0.091229 -3.114430 -0.002364 3.158489 -0.024382
 36   14.294526 -0.410349 -0.467541 0.000081 0.000036 -0.127078
 37   15.834409 0.579420 -0.284600 0.002892 -0.017210 0.102761
 38   1.186561 -3.473281 -2.823813 0.008209 -0.006122 0.018818
 39   -4.477274 -0.789221 -0.683678 0.010522 0.023250 -0.092806
 40   1.071225 -3.430237 3.237290 -0.003915 -0.007386 0.030425
 41   -4.293211 -0.891156 1.018162 0.001138 0.002265 -0.009227
 42   -0.583247 1.685583 -2.411262 0.068276 0.106362 -0.010288
 43   -0.660162 1.663421 2.623276 -0.080100 -0.120587 0.020786
time 16
  0   0.274679 0.472671 2.176219 0.000000 0.000000 -1.571354
  1   -1.093036 0.000002 -0.326057 -1.570756 -1.570425 -0.000219
  2   2.262337 0.113614 0.064702 -0.000052 0.000049 -0.243264
  3   2.380047 0.353302 0.047440 -0.155830 0.017625 0.111822
  4   2.033756 0.190472 -0.000128 -0.287327 0.015065 0.049814
  5   2.451511 0.204909 -0.003447 -0.156140 0.006444 0.095409
  6   7.247600 -0.397300 -0.109469 -0.000143 -0.183080 -0.252900
  7   -2.022252 -0.104661 3.136172 -1.984637 -1.802371 -0.852211
  8   1.168026 -0.537438 -0.063437 -0.788999 0.835435 -0.781645
  9   6.790376 -0.619176 0.015206 -0.000158 -0.000285 -1.932950
 10   8.637599 0.544015 -0.090417 -1.655975 -0.256844 -0.101475
 11   6.790465 -0.619039 0.017802 0.004388 -0.011935 -1.368308
 12   -2.022474 -0.104699 -2.873818 0.032050 1.089932 -2.855071
 13   1.167898 -0.537463 0.063297 -0.676531 -0.700161 0.213718
 14   7.002743 -0.617765 -0.183752 0.000229 0.000250 -2.147204
 15   8.209042 0.615527 -0.255885 1.570090 -0.000063 -0.069706
 16   7.002735 -0.617911 -0.183641 0.012602 0.012161 -1.521766
 17   1.574674 0.609930 -0.000899 0.559519 0.329309 -0.126452
 18   -0.602177 0.511412 -0.000006 0.000000 0.000000 0.000000
 19   3.658147 0.270773 1.119313 -0.000002 -0.000014 -0.174510
 20   3.658141 0.270746 -1.117566 0.000007 -0.000003 -0.174546
 21   3.352495 1.260319 1.572969 0.000002 -0.000011 -0.000026
 22   -0.238247 -0.382994 0.496989 0.000099 -0.028720 0.445010
 23   3.360325 1.256438 -1.623270 0.000019 0.000002 -0.000024
 24   -0.160210 -0.285318 -0.532136 0.000091 -0.028745 0.445076
 25   4.531195 1.993432 1.637143 -0.032209 0.220350 0.007203
 26   4.531213 1.993460 -1.621597 0.035761 -0.204352 -0.020865
 27   3.117593 1.463010 1.502782 -0.000019 -0.000022 -0.000050
 28   3.120023 1.462616 -1.512861 -0.000002 -0.000009 -0.000024
 29   8.824059 0.150544 0.091743 0.077811 -0.031399 0.060069
 30   2.173587 -0.553366 1.647597 -0.002096 0.150174 0.010038
 31   2.218949 -0.557383 -1.755940 0.000398 -0.198845 0.011134
 32   -0.814395 -0.093824 3.127092 0.002215 -3.167016 -0.021517
 33   14.298673 -0.408176 0.471578 -0.000040 -0.000274 -0.121826
 34   15.835795 0.581398 0.242756 -0.002559 0.026015 0.099976
 35   -0.815868 -0.091229 -3.114430 -0.002364 3.158489 -0.024382
 36   14.294526 -0.410349 -0.467541 0.000081 0.000036 -0.127078
 37   15.834409 0.579420 -0.284600 0.002892 -0.017210 0.102761
 38   1.182655 -3.473281 -2.823813 0.008104 -0.006049 0.018574
 39   -4.477274 -0.789221 -0.687584 0.010391 0.022950 -0.091628
 40   1.075131 -3.430237 3.237290 -0.003852 -0.007302 0.030059
 41   -4.293211 -0.891156 1.018162 0.001126 0.002241 -0.009115
 42   -0.583247 1.685583 -2.415168 0.067401 0.104998 -0.010163
 43   -0.660162 1.663421 2.627182 -0.079075 -0.119049 0.020535
time 17
  0   0.274679 0.472671 2.176219 0.000000 0.000000 -1.571354
  1   -1.093036 0.000002 -0.326057 -1.570756 -1.570425 -0.000219
  2   2.262337 0.113614 0.064702 -0.000052 0.000049 -0.243264
  3   2.380047 0.353302 0.047440 -0.155830 0.017625 0.111822
  4   2.033756 0.190472 -0.000128 -0.287327 0.015065 0.049814
  5   2.451511 0.204909 -0.003447 -0.156140 0.006418 0.093824
  6   7.247600 -0.397300 -0.109469 -0.000143 -0.183080 -0.252900
  7   -2.022252 -0.104661 3.136172 -1.956263 -1.799517 -0.881044
  8   1.168026 -0.537438 -0.063437 -0.797606 0.840718 -0.789363
  9   6.790376 -0.619176 0.015206 -0.000158 -0.000285 -1.932950
 10   8.637599 0.544015 -0.090417 -1.655535 -0.246004 -0.102705
 11   6.790465 -0.619039 0.017802 0.004388 -0.011935 -1.368308
 12   -2.022474 -0.104699 -2.873818 0.032050 1.092487 -2.855071
 13   1.167898 -0.537463 0.063297 -0.679132 -0.701941 0.215837
 14   7.002743 -0.617765 -0.183752 0.000229 0.000250 -2.147204
 15   8.209042 0.615527 -0.255885 1.570090 -0.000063 -0.069706
 16   7.002735 -0.617911 -0.183641 0.012602 0.012161 -1.521766
 17   1.574674 0.609930 -0.000899 0.559925 0.329096 -0.124825
 18   -0.602177 0.511412 -0.000006 0.000000 0.000000 0.000000
 19   3.646428 0.364526 1.119313 -0.000002 -0.000014 -0.174510
 20   3.646422 0.364499 -1.117566 0.000007 -0.000003 -0.174546
 21   3.805634 1.330634 1.627658 0.000002 -0.000011 -0.000026
 22   -0.246060 -0.011889 0.516521 -0.000011 0.000031 0.000025
 23   3.805651 1.330659 -1.631083 0.000019 0.000002 -0.000024
 24   -0.246150 -0.011872 -0.516511 -0.000005 -0.000006 0.000048
 25   4.941364 1.997338 1.629330 0.000018 -0.000001 -0.000024
 26   4.941382 1.997366 -1.629410 -0.000001 0.000005 -0.000024
 27   2.930087 1.603639 1.514501 -0.000019 -0.000022 -0.000050
 28   2.932517 1.603245 -1.501142 -0.000002 -0.000009 -0.000024
 29   8.824059 0.150544 0.091743 0.075137 -0.029951 0.051593
 30   2.169681 -0.553366 1.651503 -0.002015 0.144681 0.009673
 31   2.215043 -0.557383 -1.759846 0.000383 -0.191619 0.010733
 32   -0.814395 -0.093824 3.127092 0.002215 -3.167016 -0.021517
 33   14.298673 -0.408176 0.471578 -0.000040 -0.000274 -0.121826
 34   15.835795 0.581398 0.242756 -0.002559 0.026015 0.099976
 35   -0.815868 -0.091229 -3.114430 -0.002364 3.158489 -0.024382
 36   14.294526 -0.410349 -0.467541 0.000081 0.000036 -0.127078
 37   15.834409 0.579420 -0.284600 0.002892 -0.017210 0.102761
 38   1.182655 -3.473281 -2.823813 0.007809 -0.005820 0.017902
 39   -4.477274 -0.800940 -0.687584 0.010007 0.022112 -0.088291
 40   1.075131 -3.430237 3.237290 -0.003726 -0.007037 0.028959
 41   -4.301023 -0.898969 1.014255 0.001078 0.002157 -0.008779
 42   -0.587153 1.685583 -2.422981 0.064956 0.101195 -0.009786
 43   -0.660162 1.667327 2.634995 -0.076214 -0.114734 0.019782
time 18
  0   0.274679 0.464858 2.176219 0.000000 0.000000 -1.571354
  1   -1.093036 0.000002 -0.326057 -1.570756 -1.570425 0.000071
  2   2.262337 0.113614 0.064702 -0.000052 0.000049 -0.243264
  3   2.380047 0.353302 0.047440 -0.155830 0.017625 0.111822
  4   2.033756 0.190472 -0.000128 -0.287327 0.015065 0.049814
  5   2.451511 0.204909 -0.003447 -0.156243 0.006392 0.091521
  6   7.247600 -0.397300 -0.109469 -0.000143 -0.183080 -0.252900
  7   -2.022252 -0.104661 3.136172 -1.925972 -1.796808 -0.912036
  8   1.168026 -0.537438 -0.063437 -0.806655 0.847108 -0.797397
  9   6.790376 -0.619176 0.015206 -0.000158 -0.000285 -1.932950
 10   8.637599 0.544015 -0.090417 -1.655447 -0.235164 -0.103573
 11   6.790465 -0.619039 0.017802 0.004388 -0.011935 -1.368308
 12   -2.022474 -0.104699 -2.873818 0.032242 1.096579 -2.854688
 13   1.167898 -0.537463 0.063297 -0.682928 -0.704890 0.218924
 14   7.002743 -0.617765 -0.183752 0.000229 0.000250 -2.147204
 15   8.209042 0.615527 -0.255885 1.570090 -0.000063 -0.069706
 16   7.002735 -0.617911 -0.183641 0.012602 0.012161 -1.521766
 17   1.574674 0.609930 -0.000899 0.560494 0.328883 -0.122238
 18   -0.602177 0.511412 -0.000006 0.000000 0.000000 0.000000
 19   3.646428 0.364526 1.119313 -0.000002 -0.000014 -0.174510
 20   3.646422 0.364499 -1.117566 0.000007 -0.000003 -0.174546
 21   3.805634 1.330634 1.627658 0.000002 -0.000011 -0.000026
 22   -0.246060 -0.011889 0.516521 -0.000011 0.000031 0.000025
 23   3.805651 1.330659 -1.631083 0.000019 0.000002 -0.000024
 24   -0.246150 -0.011872 -0.516511 -0.000005 -0.000006 0.000048
 25   4.941364 1.997338 1.629330 0.000018 -0.000001 -0.000024
 26   4.941382 1.997366 -1.629410 -0.000001 0.000005 -0.000024
 27   2.930087 1.603639 1.514501 -0.000019 -0.000022 -0.000050
 28   2.932517 1.603245 -1.501142 -0.000002 -0.000009 -0.000024
 29   8.824059 0.150544 0.091743 0.070948 -0.027767 0.038503
 30   2.165774 -0.553366 1.659316 -0.001893 0.136225 0.009116
 31   2.207230 -0.557383 -1.763752 0.000352 -0.180455 0.010096
 32   -0.814395 -0.093824 3.127092 0.002215 -3.167016 -0.021517
 33   14.298673 -0.408176 0.471578 -0.000040 -0.000274 -0.121826
 34   15.835795 0.581398 0.242756 -0.002559 0.026015 0.099976
 35   -0.815868 -0.091229 -3.114430 -0.002364 3.158489 -0.024382
 36   14.294526 -0.410349 -0.467541 0.000081 0.000036 -0.127078
 37   15.834409 0.579420 -0.284600 0.002892 -0.017210 0.102761
 38   1.178749 -3.469374 -2.823813 0.007367 -0.005483 0.016863
 39   -4.473368 -0.816566 -0.691491 0.009432 0.020829 -0.083158
 40   1.079037 -3.434144 3.237290 -0.003494 -0.006627 0.027309
 41   -4.308836 -0.906782 1.010349 0.001018 0.002025 -0.008274
 42   -0.591060 1.689489 -2.438606 0.061169 0.095292 -0.009201
 43   -0.660162 1.667327 2.650620 -0.071766 -0.108049 0.018611
time 19
  0   0.274679 0.464858 2.176219 0.000000 0.000000 -1.571354
  1   -1.093036 0.000002 -0.326057 -1.570756 -1.570425 0.000071
  2   2.262337 0.113614 0.064702 -0.000052 0.000049 -0.243264
  3   2.380047 0.353302 0.047440 -0.155830 0.017625 0.111822
  4   2.033756 0.190472 -0.000128 -0.287327 0.015065 0.049814
  5   2.451511 0.204909 -0.003447 -0.156277 0.006340 0.088351
  6   7.247600 -0.397300 -0.109469 -0.000155 -0.183080 -0.252900
  7   -2.022252 -0.104661 3.136172 -1.895872 -1.794415 -0.943029
  8   1.168026 -0.537438 -0.063437 -0.815198 0.853850 -0.805242
  9   6.790376 -0.619176 0.015206 -0.000158 -0.000285 -1.932950
 10   8.637599 0.544015 -0.090417 -1.655095 -0.223127 -0.104658
 11   6.790465 -0.619039 0.017802 0.004388 -0.011935 -1.368308
 12   -2.022474 -0.104699 -2.873818 0.032625 1.101687 -2.854401
 13   1.167898 -0.537463 0.063297 -0.688059 -0.708959 0.223343
 14   7.002743 -0.617765 -0.183752 0.000229 0.000250 -2.147204
 15   8.209042 0.615527 -0.255885 1.570090 -0.000063 -0.069706
 16   7.002735 -0.617911 -0.183641 0.012602 0.012161 -1.521766
 17   1.574674 0.609930 -0.000899 0.561306 0.328575 -0.119096
 18   -0.602177 0.511412 -0.000006 0.000000 0.000000 0.000000
 19   3.646428 0.364526 1.119313 -0.000002 -0.000014 -0.174510
 20   3.646422 0.364499 -1.117566 0.000007 -0.000003 -0.174546
 21   3.805634 1.330634 1.627658 0.000002 -0.000011 -0.000026
 22   -0.246060 -0.011889 0.516521 -0.000011 0.000031 0.000025
 23   3.805651 1.330659 -1.631083 0.000019 0.000002 -0.000024
 24   -0.246150 -0.011872 -0.516511 -0.000005 -0.000006 0.000048
 25   4.941364 1.997338 1.629330 0.000018 -0.000001 -0.000024
 26   4.941382 1.997366 -1.629410 -0.000001 0.000005 -0.000024
 27   2.930087 1.603639 1.514501 -0.000019 -0.000022 -0.000050
 28   2.932517 1.603245 -1.501142 -0.000002 -0.000009 -0.000024
 29   8.824059 0.150544 0.091743 0.065601 -0.025013 0.021603
 30   2.161868 -0.553366 1.671035 -0.001744 0.125327 0.008387
 31   2.199417 -0.557383 -1.771565 0.000337 -0.166080 0.009296
 32   -0.814395 -0.093824 3.127092 0.002215 -3.167016 -0.021517
 33   14.298673 -0.408176 0.471578 -0.000040 -0.000274 -0.121826
 34   15.835795 0.581398 0.242756 -0.002559 0.026015 0.099976
 35   -0.815868 -0.091229 -3.114430 -0.002364 3.158489 -0.024382
 36   14.294526 -0.410349 -0.467541 0.000081 0.000036 -0.127078
 37   15.834409 0.579420 -0.284600 0.002892 -0.017210 0.102761
 38   1.174842 -3.469374 -2.823813 0.006778 -0.005049 0.015519
 39   -4.473368 -0.836097 -0.695397 0.008677 0.019163 -0.076511
 40   1.079037 -3.434144 3.237290 -0.003221 -0.006097 0.025110
 41   -4.316648 -0.918501 1.006442 0.000934 0.001870 -0.007629
 42   -0.594966 1.689489 -2.458138 0.056304 0.087703 -0.008490
 43   -0.660162 1.671233 2.666246 -0.066044 -0.099435 0.017147
time 20
  0   0.274679 0.464858 2.176219 0.000000 0.000000 -1.571354
  1   -1.093036 0.000002 -0.326057 -1.570756 -1.570425 0.000071
  2   2.262337 0.113614 0.064702 -0.000052 0.000049 -0.243264
  3   2.380047 0.353302 0.047440 -0.155830 0.017625 0.111822
  4   2.033756 0.190472 -0.000128 -0.287327 0.015065 0.049814
  5   2.451511 0.204909 -0.003447 -0.156294 0.006288 0.084537
  6   7.247600 -0.397300 -0.109469 -0.000155 -0.183080 -0.252900
  7   -2.022252 -0.104661 3.136172 -1.869032 -1.792397 -0.970546
  8   1.168026 -0.537438 -0.063437 -0.822791 0.860894 -0.811757
  9   6.790376 -0.619176 0.015206 -0.000158 -0.000285 -1.932950
 10   8.637599 0.544015 -0.090417 -1.654742 -0.209472 -0.105888
 11   6.790465 -0.619039 0.017802 0.004388 -0.011935 -1.368308
 12   -2.022474 -0.104699 -2.873818 0.033104 1.108363 -2.854017
 13   1.167898 -0.537463 0.063297 -0.694667 -0.713739 0.228307
 14   7.002743 -0.617765 -0.183752 0.000229 0.000250 -2.147204
 15   8.209042 0.615527 -0.255885 1.570090 -0.000063 -0.069706
 16   7.002735 -0.617911 -0.183641 0.012602 0.012161 -1.521766
 17   1.574674 0.609930 -0.000899 0.562281 0.328125 -0.115068
 18   -0.602177 0.511412 -0.000006 0.000000 0.000000 0.000000
 19   3.646428 0.364526 1.119313 -0.000002 -0.000014 -0.174510
 20   3.646422 0.364499 -1.117566 0.000007 -0.000003 -0.174546
 21   3.805634 1.330634 1.627658 0.000002 -0.000011 -0.000026
 22   -0.246060 -0.011889 0.516521 -0.000011 0.000031 0.000025
 23   3.805651 1.330659 -1.631083 0.000019 0.000002 -0.000024
 24   -0.246150 -0.011872 -0.516511 -0.000005 -0.000006 0.000048
 25   4.941364 1.997338 1.629330 0.000018 -0.000001 -0.000024
 26   4.941382 1.997366 -1.629410 -0.000001 0.000005 -0.000024
 27   2.930087 1.603639 1.514501 -0.000019 -0.000022 -0.000050
 28   2.932517 1.603245 -1.501142 -0.000002 -0.000009 -0.000024
 29   8.824059 0.150544 0.091743 0.059095 -0.021928 0.001754
 30   2.157961 -0.553366 1.682754 -0.001567 0.112511 0.007529
 31   2.191605 -0.557383 -1.779378 0.000291 -0.149192 0.008350
 32   -0.814395 -0.093824 3.127092 0.002215 -3.167016 -0.021517
 33   14.298673 -0.408176 0.471578 -0.000040 -0.000274 -0.121826
 34   15.835795 0.581398 0.242756 -0.002559 0.026015 0.099976
 35   -0.815868 -0.091229 -3.114430 -0.002364 3.158489 -0.024382
 36   14.294526 -0.410349 -0.467541 0.000081 0.000036 -0.127078
 37   15.834409 0.579420 -0.284600 0.002892 -0.017210 0.102761
 38   1.170936 -3.469374 -2.823813 0.006083 -0.004531 0.013931
 39   -4.473368 -0.855629 -0.703210 0.007790 0.017222 -0.068742
 40   1.086850 -3.434144 3.237290 -0.002884 -0.005470 0.022544
 41   -4.328368 -0.934126 1.002536 0.000838 0.001678 -0.006843
 42   -0.602779 1.689489 -2.481576 0.050575 0.078779 -0.007612
 43   -0.660162 1.675140 2.685778 -0.059334 -0.089329 0.015391
time 21
  0   0.274679 0.464858 2.176219 0.000000 0.000000 -1.571354
  1   -1.093036 0.000002 -0.326057 -1.570756 -1.570425 0.000071
  2   2.262337 0.113614 0.064702 -0.000052 0.000049 -0.243264
  3   2.380047 0.353302 0.047440 -0.155830 0.017625 0.111822
  4   2.033756 0.190472 -0.000128 -0.287327 0.015065 0.049814
  5   2.451511 0.204909 -0.003447 -0.156294 0.006236 0.080104
  6   7.247600 -0.397300 -0.109469 -0.000155 -0.183080 -0.252900
  7   -2.022252 -0.104661 3.136172 -1.844301 -1.790783 -0.995340
  8   1.168026 -0.537438 -0.063437 -0.829626 0.868240 -0.817830
  9   6.790376 -0.619176 0.015206 -0.000158 -0.000285 -1.932950
 10   8.637599 0.544015 -0.090417 -1.654654 -0.189199 -0.107407
 11   6.790465 -0.619039 0.017802 0.004388 -0.011935 -1.368308
 12   -2.022474 -0.104699 -2.873818 0.033296 1.115793 -2.853252
 13   1.167898 -0.537463 0.063297 -0.701767 -0.719181 0.234542
 14   7.002743 -0.617765 -0.183752 0.000229 0.000250 -2.147204
 15   8.209042 0.615527 -0.255885 1.570090 -0.000063 -0.069706
 16   7.002735 -0.617911 -0.183641 0.012602 0.012161 -1.521766
 17   1.574674 0.609930 -0.000899 0.563337 0.327723 -0.110447
 18   -0.602177 0.511412 -0.000006 0.000000 0.000000 0.000000
 19   3.646428 0.364526 1.119313 -0.000002 -0.000014 -0.174510
 20   3.646422 0.364499 -1.117566 0.000007 -0.000003 -0.174546
 21   3.805634 1.330634 1.627658 0.000002 -0.000011 -0.000026
 22   -0.246060 -0.011889 0.516521 -0.000011 0.000031 0.000025
 23   3.805651 1.330659 -1.631083 0.000019 0.000002 -0.000024
 24   -0.246150 -0.011872 -0.516511 -0.000005 -0.000006 0.000048
 25   4.941364 1.997338 1.629330 0.000018 -0.000001 -0.000024
 26   4.941382 1.997366 -1.629410 -0.000001 0.000005 -0.000024
 27   2.930087 1.603639 1.514501 -0.000019 -0.000022 -0.000050
 28   2.932517 1.603245 -1.501142 -0.000002 -0.000009 -0.000024
 29   8.824059 0.150544 0.091743 0.051965 -0.018628 -0.020242
 30   2.150149 -0.557273 1.694474 -0.001378 0.098329 0.006607
 31   2.183792 -0.557383 -1.791097 0.000260 -0.130517 0.007313
 32   -0.814395 -0.093824 3.127092 0.002215 -3.167016 -0.021517
 33   14.298673 -0.408176 0.471578 -0.000040 -0.000274 -0.121826
 34   15.835795 0.581398 0.242756 -0.002559 0.026015 0.099976
 35   -0.815868 -0.091229 -3.114430 -0.002364 3.158489 -0.024382
 36   14.294526 -0.410349 -0.467541 0.000081 0.000036 -0.127078
 37   15.834409 0.579420 -0.284600 0.002892 -0.017210 0.102761
 38   1.167030 -3.465468 -2.823813 0.005325 -0.003965 0.012159
 39   -4.469461 -0.882974 -0.707116 0.006819 0.015065 -0.060132
 40   1.090756 -3.438050 3.237290 -0.002526 -0.004783 0.019734
 41   -4.343993 -0.949752 0.994723 0.000730 0.001462 -0.005974
 42   -0.610592 1.689489 -2.508921 0.044235 0.068921 -0.006650
 43   -0.660162 1.675140 2.709216 -0.051900 -0.078141 0.013467
time 22
  0   0.274679 0.453139 2.176219 0.000000 0.000000 -1.571354
  1   -1.093036 0.000002 -0.326057 -1.570756 -1.570425 -0.000219
  2   2.262337 0.113614 0.064702 -0.000052 0.000049 -0.243264
  3   2.380047 0.353302 0.047440 -0.155830 0.017625 0.111822
  4   2.033756 0.190472 -0.000128 -0.287327 0.015065 0.049814
  5   2.451511 0.204909 -0.003447 -0.156414 0.006014 0.075250
  6   7.247600 -0.397300 -0.109469 -0.000155 -0.183080 -0.252900
  7   -2.022252 -0.104661 3.136172 -1.819378 -1.789226 -1.021073
  8   1.168026 -0.537438 -0.063437 -0.836397 0.875787 -0.823903
  9   6.790376 -0.619176 0.015206 -0.000158 -0.000285 -1.932950
 10   8.637599 0.544015 -0.090417 -1.654214 -0.163577 -0.109722
 11   6.790465 -0.619039 0.017802 0.004388 -0.011935 -1.368308
 12   -2.022474 -0.104699 -2.873818 0.034158 1.123745 -2.852869
 13   1.167898 -0.537463 0.063297 -0.709992 -0.724978 0.240959
 14   7.002743 -0.617765 -0.183752 0.000229 0.000250 -2.147204
 15   8.209042 0.615527 -0.255885 1.570090 -0.000063 -0.069706
 16   7.002735 -0.617911 -0.183641 0.012602 0.012161 -1.521766
 17   1.574674 0.609930 -0.000899 0.564515 0.327084 -0.105421
 18   -0.602177 0.511412 -0.000006 0.000000 0.000000 0.000000
 19   3.646428 0.364526 1.119313 -0.000002 -0.000014 -0.174510
 20   3.646422 0.364499 -1.117566 0.000007 -0.000003 -0.174546
 21   3.805634 1.330634 1.627658 0.000002 -0.000011 -0.000026
 22   -0.246060 -0.011889 0.516521 -0.000011 0.000031 0.000025
 23   3.805651 1.330659 -1.631083 0.000019 0.000002 -0.000024
 24   -0.246150 -0.011872 -0.516511 -0.000005 -0.000006 0.000048
 25   4.941364 1.997338 1.629330 0.000018 -0.000001 -0.000024
 26   4.941382 1.997366 -1.629410 -0.000001 0.000005 -0.000024
 27   2.930087 1.603639 1.514501 -0.000019 -0.000022 -0.000050
 28   2.932517 1.603245 -1.501142 -0.000002 -0.000009 -0.000024
 29   8.824059 0.150544 0.091743 0.044211 -0.015328 -0.043579
 30   2.146242 -0.557273 1.710099 -0.001161 0.083334 0.005599
 31   2.172073 -0.561289 -1.798910 0.000215 -0.110755 0.006203
 32   -0.814395 -0.093824 3.127092 0.002215 -3.167016 -0.021517
 33   14.298673 -0.408176 0.471578 -0.000040 -0.000274 -0.121826
 34   15.835795 0.581398 0.242756 -0.002559 0.026015 0.099976
 35   -0.815868 -0.091229 -3.114430 -0.002364 3.158489 -0.024382
 36   14.294526 -0.410349 -0.467541 0.000081 0.000036 -0.127078
 37   15.834409 0.579420 -0.284600 0.002892 -0.017210 0.102761
 38   1.163123 -3.465468 -2.823813 0.004505 -0.003362 0.010326
 39   -4.469461 -0.910318 -0.714929 0.005789 0.012776 -0.051017
 40   1.094663 -3.438050 3.237290 -0.002147 -0.004060 0.016740
 41   -4.355712 -0.965377 0.990817 0.000622 0.001246 -0.005076
 42   -0.618404 1.693396 -2.536265 0.037548 0.058479 -0.005646
 43   -0.664068 1.679046 2.736560 -0.044042 -0.066310 0.011418
time 23
  0   0.255147 0.441420 2.176219 0.000000 0.000000 -1.571354
  1   -1.093036 0.000002 -0.326057 -1.570756 -1.570425 0.000071
  2   2.262337 0.113614 0.064702 -0.000052 0.000049 -0.243264
  3   2.380047 0.353302 0.047440 -0.155830 0.017625 0.111822
  4   2.033756 0.190472 -0.000128 -0.287327 0.015065 0.049814
  5   2.451511 0.204909 -0.003447 -0.156431 0.005935 0.070198
  6   7.247600 -0.397300 -0.109469 -0.000155 -0.183080 -0.252900
  7   -2.022252 -0.104661 3.136172 -1.794646 -1.787986 -1.046806
  8   1.168026 -0.537438 -0.063437 -0.843357 0.883787 -0.829976
  9   6.790376 -0.619176 0.015206 -0.000158 -0.000151 -1.932950
 10   8.637599 0.544015 -0.090417 -1.653774 -0.138166 -0.112182
 11   6.790465 -0.619039 0.017802 0.004388 -0.011935 -1.368308
 12   -2.022474 -0.104699 -2.873818 0.034637 1.132423 -2.852103
 13   1.167898 -0.537463 0.063297 -0.718920 -0.731233 0.248223
 14   7.002743 -0.617765 -0.183752 0.000229 0.000250 -2.147204
 15   8.209042 0.615527 -0.255885 1.570090 -0.000063 -0.069706
 16   7.002735 -0.617911 -0.183641 0.012602 0.012161 -1.521766
 17   1.574674 0.609930 -0.000899 0.565815 0.326563 -0.100061
 18   -0.602177 0.511412 -0.000006 0.000000 0.000000 0.000000
 19   3.646428 0.364526 1.119313 -0.000002 -0.000014 -0.174510
 20   3.646422 0.364499 -1.117566 0.000007 -0.000003 -0.174546
 21   3.805634 1.330634 1.627658 0.000002 -0.000011 -0.000026
 22   -0.246060 -0.011889 0.516521 -0.000011 0.000031 0.000025
 23   3.805651 1.330659 -1.631083 0.000019 0.000002 -0.000024
 24   -0.246150 -0.011872 -0.516511 -0.000005 -0.000006 0.000048
 25   4.941364 1.997338 1.629330 0.000018 -0.000001 -0.000024
 26   4.941382 1.997366 -1.629410 -0.000001 0.000005 -0.000024
 27   2.930087 1.603639 1.514501 -0.000019 -0.000022 -0.000050
 28   2.932517 1.603245 -1.501142 -0.000002 -0.000009 -0.000024
 29   8.824059 0.150544 0.091743 0.036368 -0.012147 -0.067345
 30   2.138430 -0.557273 1.721818 -0.000957 0.068076 0.004591
 31   2.164260 -0.561289 -1.810629 0.000184 -0.090655 0.005075
 32   -0.814395 -0.093824 3.127092 0.002215 -3.167016 -0.021517
 33   14.298673 -0.408176 0.471578 -0.000040 -0.000274 -0.121826
 34   15.835795 0.581398 0.242756 -0.002559 0.026015 0.099976
 35   -0.815868 -0.091229 -3.114430 -0.002364 3.158489 -0.024382
 36   14.294526 -0.410349 -0.467541 0.000081 0.000036 -0.127078
 37   15.834409 0.579420 -0.284600 0.002892 -0.017210 0.102761
 38   1.159217 -3.461562 -2.823813 0.003684 -0.002748 0.008432
 39   -4.465555 -0.933757 -0.718835 0.004734 0.010463 -0.041761
 40   1.098569 -3.441956 3.237290 -0.001747 -0.003325 0.013685
 41   -4.371338 -0.984909 0.983004 0.000502 0.001019 -0.004151
 42   -0.626217 1.693396 -2.563610 0.030728 0.047869 -0.004600
 43   -0.664068 1.682953 2.759999 -0.036045 -0.054275 0.009326
time 24
  0   0.255147 0.441420 2.176219 0.000000 0.000000 -1.571354
  1   -1.093036 0.000002 -0.326057 -1.570756 -1.570425 0.000071
  2   2.262337 0.113614 0.064702 -0.000052 0.000049 -0.243264
  3   2.380047 0.353302 0.047440 -0.155830 0.017625 0.111822
  4   2.033756 0.190472 -0.000128 -0.287327 0.015065 0.049814
  5   2.451511 0.204909 -0.003447 -0.156448 0.005857 0.064799
  6   7.247600 -0.397300 -0.109469 -0.000155 -0.183080 -0.252900
  7   -2.022252 -0.104661 3.136172 -1.770490 -1.786891 -1.071506
  8   1.168026 -0.537438 -0.063437 -0.849939 0.891636 -0.835796
  9   6.790376 -0.619176 0.015206 -0.000158 -0.000285 -1.932950
 10   8.637599 0.544015 -0.090417 -1.653686 -0.120780 -0.113629
 11   6.790465 -0.619039 0.017802 0.004388 -0.011935 -1.368308
 12   -2.022474 -0.104699 -2.873818 0.035212 1.141682 -2.851337
 13   1.167898 -0.537463 0.063297 -0.728128 -0.737641 0.255790
 14   7.002743 -0.617765 -0.183752 0.000229 0.000250 -2.147204
 15   8.209042 0.615527 -0.255885 1.570090 -0.000063 -0.069706
 16   7.002735 -0.617911 -0.183641 0.012602 0.012161 -1.521766
 17   1.574674 0.609930 -0.000899 0.567075 0.325948 -0.094406
 18   -0.602177 0.511412 -0.000006 0.000000 0.000000 0.000000
 19   3.646428 0.364526 1.119313 -0.000002 -0.000014 -0.174510
 20   3.646422 0.364499 -1.117566 0.000007 -0.000003 -0.174546
 21   3.805634 1.330634 1.627658 0.000002 -0.000011 -0.000026
 22   -0.246060 -0.011889 0.516521 -0.000011 0.000031 0.000025
 23   3.805651 1.330659 -1.631083 0.000019 0.000002 -0.000024
 24   -0.246150 -0.011872 -0.516511 -0.000005 -0.000006 0.000048
 25   4.941364 1.997338 1.629330 0.000018 -0.000001 -0.000024
 26   4.941382 1.997366 -1.629410 -0.000001 0.000005 -0.000024
 27   2.930087 1.603639 1.514501 -0.000019 -0.000022 -0.000050
 28   2.932517 1.603245 -1.501142 -0.000002 -0.000009 -0.000024
 29   8.824059 0.150544 0.091743 0.028525 -0.009228 -0.090682
 30   2.130617 -0.561179 1.737444 -0.000740 0.053081 0.003584
 31   2.152541 -0.561289 -1.818442 0.000138 -0.070892 0.003965
 32   -0.814395 -0.093824 3.127092 0.002215 -3.167016 -0.021517
 33   14.298673 -0.408176 0.471578 -0.000040 -0.000274 -0.121826
 34   15.835795 0.581398 0.242756 -0.002559 0.026015 0.099976
 35   -0.815868 -0.091229 -3.114430 -0.002364 3.158489 -0.024382
 36   14.294526 -0.410349 -0.467541 0.000081 0.000036 -0.127078
 37   15.834409 0.579420 -0.284600 0.002892 -0.017210 0.102761
 38   1.155311 -3.457655 -2.823813 0.002884 -0.002157 0.006599
 39   -4.461648 -0.961101 -0.726648 0.003703 0.008173 -0.032646
 40   1.102476 -3.445863 3.237290 -0.001368 -0.002602 0.010692
 41   -4.386963 -1.000534 0.979098 0.000394 0.000791 -0.003253
 42   -0.634030 1.693396 -2.590955 0.024029 0.037428 -0.003597
 43   -0.664068 1.686859 2.783437 -0.028187 -0.042443 0.007319
time 25
  0   0.255147 0.433607 2.176219 0.000000 0.000000 -1.571354
  1   -1.093036 0.000002 -0.326057 -1.570756 -1.570425 -0.000026
  2   2.262337 0.113614 0.064702 -0.000052 0.000049 -0.243264
  3   2.380047 0.353302 0.047440 -0.155830 0.017625 0.111822
  4   2.033756 0.190472 -0.000128 -0.287327 0.015065 0.049814
  5   2.451511 0.204909 -0.003447 -0.156568 0.005818 0.059326
  6   7.247600 -0.397300 -0.109469 -0.000143 -0.183080 -0.252900
  7   -2.022252 -0.104661 3.136172 -1.748443 -1.785882 -1.094422
  8   1.168026 -0.537438 -0.063437 -0.856203 0.899636 -0.841363
  9   6.790376 -0.619176 0.015206 -0.000158 -0.000285 -1.932950
 10   8.637599 0.544015 -0.090417 -1.653686 -0.117894 -0.113918
 11   6.790465 -0.619039 0.017802 0.004388 -0.011935 -1.368308
 12   -2.022474 -0.104699 -2.873818 0.036074 1.150825 -2.850667
 13   1.167898 -0.537463 0.063297 -0.737829 -0.744354 0.263417
 14   7.002743 -0.617765 -0.183752 0.000229 0.000250 -2.147204
 15   8.209042 0.615527 -0.255885 1.570090 -0.000063 -0.069706
 16   7.002735 -0.617911 -0.183641 0.012602 0.012161 -1.521766
 17   1.574674 0.609930 -0.000899 0.568456 0.325309 -0.088788
 18   -0.602177 0.511412 -0.000006 0.000000 0.000000 0.000000
 19   3.646428 0.364526 1.119313 -0.000002 -0.000014 -0.174510
 20   3.646422 0.364499 -1.117566 0.000007 -0.000003 -0.174546
 21   3.805634 1.330634 1.627658 0.000002 -0.000011 -0.000026
 22   -0.246060 -0.011889 0.516521 -0.000011 0.000031 0.000025
 23   3.805651 1.330659 -1.631083 0.000019 0.000002 -0.000024
 24   -0.246150 -0.011872 -0.516511 -0.000005 -0.000006 0.000048
 25   4.941364 1.997338 1.629330 0.000018 -0.000001 -0.000024
 26   4.941382 1.997366 -1.629410 -0.000001 0.000005 -0.000024
 27   2.930087 1.603639 1.514501 -0.000019 -0.000022 -0.000050
 28   2.932517 1.603245 -1.501142 -0.000002 -0.000009 -0.000024
 29   8.824059 0.150544 0.091743 0.021039 -0.006617 -0.112785
 30   2.126710 -0.561179 1.749163 -0.000550 0.038928 0.002640
 31   2.144728 -0.561289 -1.830161 0.000092 -0.052217 0.002909
 32   -0.814395 -0.093824 3.127092 0.002215 -3.167016 -0.021517
 33   14.298673 -0.408176 0.471578 -0.000040 -0.000274 -0.121826
 34   15.835795 0.581398 0.242756 -0.002559 0.026015 0.099976
 35   -0.815868 -0.091229 -3.114430 -0.002364 3.158489 -0.024382
 36   14.294526 -0.410349 -0.467541 0.000081 0.000036 -0.127078
 37   15.834409 0.579420 -0.284600 0.002892 -0.017210 0.102761
 38   1.151404 -3.457655 -2.823813 0.002126 -0.001579 0.004827
 39   -4.461648 -0.988446 -0.730555 0.002721 0.006028 -0.024036
 40   1.106382 -3.445863 3.237290 -0.001010 -0.001915 0.007881
 41   -4.398683 -1.016160 0.971285 0.000287 0.000587 -0.002384
 42   -0.637936 1.697302 -2.618299 0.017701 0.027570 -0.002635
 43   -0.664068 1.690765 2.806875 -0.020765 -0.031255 0.005395
time 26
  0   0.255147 0.433607 2.176219 0.000000 0.000000 -1.571354
  1   -1.093036 0.000002 -0.326057 -1.570756 -1.570425 -0.000026
  2   2.262337 0.113614 0.064702 -0.000052 0.000049 -0.243264
  3   2.380047 0.353302 0.047440 -0.155830 0.017625 0.111822
  4   2.033756 0.190472 -0.000128 -0.287327 0.015065 0.049814
  5   2.451511 0.204909 -0.003447 -0.156585 0.005805 0.053902
  6   7.247600 -0.397300 -0.109469 -0.000143 -0.183080 -0.252900
  7   -2.022252 -0.104661 3.136172 -1.728121 -1.785133 -1.114989
  8   1.168026 -0.537438 -0.063437 -0.861645 0.907032 -0.846044
  9   6.790376 -0.619176 0.015206 -0.000158 -0.000285 -1.932950
 10   8.637599 0.544015 -0.090417 -1.653686 -0.133520 -0.112399
 11   6.790465 -0.619039 0.017802 0.004388 -0.011935 -1.368308
 12   -2.022474 -0.104699 -2.873818 0.036649 1.160228 -2.849613
 13   1.167898 -0.537463 0.063297 -0.747460 -0.750761 0.271408
 14   7.002743 -0.617765 -0.183752 0.000229 0.000250 -2.147204
 15   8.209042 0.615527 -0.255885 1.570090 -0.000063 -0.069706
 16   7.002735 -0.617911 -0.183641 0.012602 0.012161 -1.521766
 17   1.574674 0.609930 -0.000899 0.569715 0.324670 -0.083170
 18   -0.602177 0.511412 -0.000006 0.000000 0.000000 0.000000
 19   3.646428 0.364526 1.119313 -0.000002 -0.000014 -0.174510
 20   3.646422 0.364499 -1.117566 0.000007 -0.000003 -0.174546
 21   3.805634 1.330634 1.627658 0.000002 -0.000011 -0.000026
 22   -0.246060 -0.011889 0.516521 -0.000011 0.000031 0.000025
 23   3.805651 1.330659 -1.631083 0.000019 0.000002 -0.000024
 24   -0.246150 -0.011872 -0.516511 -0.000005 -0.000006 0.000048
 25   4.941364 1.997338 1.629330 0.000018 -0.000001 -0.000024
 26   4.941382 1.997366 -1.629410 -0.000001 0.000005 -0.000024
 27   2.930087 1.603639 1.514501 -0.000019 -0.000022 -0.000050
 28   2.932517 1.603245 -1.501142 -0.000002 -0.000009 -0.000024
 29   8.824059 0.150544 0.091743 0.014266 -0.004409 -0.132796
 30   2.118898 -0.561179 1.760882 -0.000374 0.026112 0.001804
 31   2.136915 -0.561289 -1.837973 0.000061 -0.035330 0.001963
 32   -0.814395 -0.093824 3.127092 0.002215 -3.167016 -0.021517
 33   14.298673 -0.408176 0.471578 -0.000040 -0.000274 -0.121826
 34   15.835795 0.581398 0.242756 -0.002559 0.026015 0.099976
 35   -0.815868 -0.091229 -3.114430 -0.002364 3.158489 -0.024382
 36   14.294526 -0.410349 -0.467541 0.000081 0.000036 -0.127078
 37   15.834409 0.579420 -0.284600 0.002892 -0.017210 0.102761
 38   1.147498 -3.453749 -2.823813 0.001431 -0.001073 0.003300
 39   -4.457742 -1.007978 -0.738367 0.001846 0.004075 -0.016267
 40   1.110288 -3.449769 3.237290 -0.000674 -0.001288 0.005315
 41   -4.410401 -1.031785 0.967379 0.000191 0.000395 -0.001599
 42   -0.645749 1.697302 -2.641737 0.011973 0.018646 -0.001798
 43   -0.664068 1.694672 2.826407 -0.014043 -0.021150 0.003639
time 27
  0   0.255147 0.433607 2.176219 0.000000 0.000000 -1.571354
  1   -1.093036 0.000002 -0.326057 -1.570756 -1.570425 -0.000026
  2   2.262337 0.113614 0.064702 -0.000052 0.000049 -0.243264
  3   2.380047 0.353302 0.047440 -0.155830 0.017625 0.111822
  4   2.033756 0.190472 -0.000128 -0.287327 0.015065 0.049814
  5   2.451511 0.204909 -0.003447 -0.156688 0.005766 0.048553
  6   7.247600 -0.397300 -0.109469 -0.000155 -0.183080 -0.252900
  7   -2.022252 -0.104661 3.136172 -1.709620 -1.784556 -1.133773
  8   1.168026 -0.537438 -0.063437 -0.866834 0.914227 -0.850662
  9   6.790376 -0.619176 0.015206 -0.000158 -0.000285 -1.932950
 10   8.637599 0.544015 -0.090417 -1.654214 -0.163225 -0.109722
 11   6.790465 -0.619039 0.017802 0.004388 -0.011935 -1.368308
 12   -2.022474 -0.104699 -2.873818 0.037320 1.169110 -2.848848
 13   1.167898 -0.537463 0.063297 -0.757090 -0.757067 0.279338
 14   7.002743 -0.617765 -0.183752 0.000229 0.000250 -2.147204
 15   8.209042 0.615527 -0.255885 1.570090 -0.000063 -0.069706
 16   7.002735 -0.617911 -0.183641 0.012602 0.012161 -1.521766
 17   1.574674 0.609930 -0.000899 0.571015 0.324102 -0.077589
 18   -0.602177 0.511412 -0.000006 0.000000 0.000000 0.000000
 19   3.646428 0.364526 1.119313 -0.000002 -0.000014 -0.174510
 20   3.646422 0.364499 -1.117566 0.000007 -0.000003 -0.174546
 21   3.805634 1.330634 1.627658 0.000002 -0.000011 -0.000026
 22   -0.246060 -0.011889 0.516521 -0.000011 0.000031 0.000025
 23   3.805651 1.330659 -1.631083 0.000019 0.000002 -0.000024
 24   -0.246150 -0.011872 -0.516511 -0.000005 -0.000006 0.000048
 25   4.941364 1.997338 1.629330 0.000018 -0.000001 -0.000024
 26   4.941382 1.997366 -1.629410 -0.000001 0.000005 -0.000024
 27   2.930087 1.603639 1.514501 -0.000019 -0.000022 -0.000050
 28   2.932517 1.603245 -1.501142 -0.000002 -0.000009 -0.000024
 29   8.824059 0.150544 0.091743 0.008473 -0.002629 -0.149802
 30   2.114991 -0.561179 1.772601 -0.000225 0.015185 0.001075
 31   2.129103 -0.561289 -1.845786 0.000031 -0.020928 0.001163
 32   -0.814395 -0.093824 3.127092 0.002215 -3.167016 -0.021517
 33   14.298673 -0.408176 0.471578 -0.000040 -0.000274 -0.121826
 34   15.835795 0.581398 0.242756 -0.002559 0.026015 0.099976
 35   -0.815868 -0.091229 -3.114430 -0.002364 3.158489 -0.024382
 36   14.294526 -0.410349 -0.467541 0.000081 0.000036 -0.127078
 37   15.834409 0.579420 -0.284600 0.002892 -0.017210 0.102761
 38   1.143591 -3.453749 -2.823813 0.000842 -0.000627 0.001956
 39   -4.457742 -1.027509 -0.742274 0.001091 0.002409 -0.009648
 40   1.114195 -3.449769 3.237290 -0.000400 -0.000758 0.003116
 41   -4.422121 -1.043504 0.963472 0.000107 0.000228 -0.000954
 42   -0.649655 1.697302 -2.661269 0.007095 0.011057 -0.001046
 43   -0.664068 1.698578 2.845939 -0.008321 -0.012535 0.002133
time 28
  0   0.243428 0.433607 2.176219 0.000000 0.000000 -1.571354
  1   -1.093036 0.000002 -0.326057 -1.570756 -1.570425 0.000071
  2   2.262337 0.113614 0.064702 -0.000052 0.000049 -0.243264
  3   2.380047 0.353302 0.047440 -0.155830 0.017625 0.111822
  4   2.033756 0.190472 -0.000128 -0.287327 0.015065 0.049814
  5   2.451511 0.204909 -0.003447 -0.156722 0.005687 0.043451
  6   7.247600 -0.397300 -0.109469 -0.000155 -0.183080 -0.252900
  7   -2.022252 -0.104661 3.136172 -1.692174 -1.784095 -1.151805
  8   1.168026 -0.537438 -0.063437 -0.871644 0.921120 -0.855027
  9   6.790376 -0.619176 0.015206 -0.000158 -0.000285 -1.932950
 10   8.637599 0.544015 -0.090417 -1.654742 -0.200884 -0.106322
 11   6.790465 -0.619039 0.017802 0.004388 -0.011935 -1.368308
 12   -2.022474 -0.104699 -2.873818 0.038278 1.178020 -2.848082
 13   1.167898 -0.537463 0.063297 -0.766580 -0.763068 0.286844
 14   7.002743 -0.617765 -0.183752 0.000229 0.000250 -2.147204
 15   8.209042 0.615527 -0.255885 1.570090 -0.000063 -0.069706
 16   7.002735 -0.617911 -0.183641 0.012602 0.012161 -1.521766
 17   1.574674 0.609930 -0.000899 0.572274 0.323416 -0.072230
 18   -0.602177 0.511412 -0.000006 0.000000 0.000000 0.000000
 19   3.646428 0.364526 1.119313 -0.000002 -0.000014 -0.174510
 20   3.646422 0.364499 -1.117566 0.000007 -0.000003 -0.174546
 21   3.805634 1.330634 1.627658 0.000002 -0.000011 -0.000026
 22   -0.246060 -0.011889 0.516521 -0.000011 0.000031 0.000025
 23   3.805651 1.330659 -1.631083 0.000019 0.000002 -0.000024
 24   -0.246150 -0.011872 -0.516511 -0.000005 -0.000006 0.000048
 25   4.941364 1.997338 1.629330 0.000018 -0.000001 -0.000024
 26   4.941382 1.997366 -1.629410 -0.000001 0.000005 -0.000024
 27   2.930087 1.603639 1.514501 -0.000019 -0.000022 -0.000050
 28   2.932517 1.603245 -1.501142 -0.000002 -0.000009 -0.000024
 29   8.824059 0.150544 0.091743 0.003927 -0.001323 -0.163000
 30   2.111085 -0.561179 1.780414 -0.000103 0.006729 0.000517
 31   2.125196 -0.561289 -1.849693 0.000015 -0.009765 0.000544
 32   -0.814395 -0.093824 3.127092 0.002215 -3.167016 -0.021517
 33   14.298673 -0.408176 0.471578 -0.000040 -0.000274 -0.121826
 34   15.835795 0.581398 0.242756 -0.002559 0.026015 0.099976
 35   -0.815868 -0.091229 -3.114430 -0.002364 3.158489 -0.024382
 36   14.294526 -0.410349 -0.467541 0.000081 0.000036 -0.127078
 37   15.834409 0.579420 -0.284600 0.002892 -0.017210 0.102761
 38   1.139685 -3.453749 -2.823813 0.000400 -0.000289 0.000856
 39   -4.457742 -1.043135 -0.746180 0.000503 0.001127 -0.004487
 40   1.118101 -3.449769 3.237290 -0.000189 -0.000348 0.001466
 41   -4.429934 -1.051317 0.959566 0.000047 0.000108 -0.000449
 42   -0.657468 1.697302 -2.676895 0.003308 0.005169 -0.000460
 43   -0.664068 1.698578 2.857658 -0.003886 -0.005851 0.001004
time 29
  0   0.243428 0.429701 2.176219 0.000000 0.000000 -1.571354
  1   -1.093036 0.000002 -0.326057 -1.570756 -1.570425 0.000071
  2   2.262337 0.113614 0.064702 -0.000052 0.000049 -0.243264
  3   2.380047 0.353302 0.047440 -0.155830 0.017625 0.111822
  4   2.033756 0.190472 -0.000128 -0.287327 0.015065 0.049814
  5   2.451511 0.204909 -0.003447 -0.156722 0.005609 0.038622
  6   7.247600 -0.397300 -0.109469 -0.000155 -0.183080 -0.252900
  7   -2.022252 -0.104661 3.136172 -1.674824 -1.783691 -1.169273
  8   1.168026 -0.537438 -0.063437 -0.876769 0.927661 -0.859392
  9   6.790376 -0.619176 0.015206 -0.000158 -0.000285 -1.932950
 10   8.637599 0.544015 -0.090417 -1.655535 -0.240303 -0.103211
 11   6.790465 -0.619039 0.017802 0.004388 -0.011935 -1.368308
 12   -2.022474 -0.104699 -2.873818 0.039140 1.186176 -2.847028
 13   1.167898 -0.537463 0.063297 -0.775930 -0.768713 0.294048
 14   7.002743 -0.617765 -0.183752 0.000229 0.000250 -2.147204
 15   8.209042 0.615527 -0.255885 1.570090 -0.000063 -0.069706
 16   7.002735 -0.617911 -0.183641 0.012602 0.012161 -1.521766
 17   1.574674 0.609930 -0.000899 0.573452 0.322848 -0.067055
 18   -0.602177 0.511412 -0.000006 0.000000 0.000000 0.000000
 19   3.646428 0.364526 1.119313 -0.000002 -0.000014 -0.174510
 20   3.646422 0.364499 -1.117566 0.000007 -0.000003 -0.174546
 21   3.805634 1.330634 1.627658 0.000002 -0.000011 -0.000026
 22   -0.246060 -0.011889 0.516521 -0.000011 0.000031 0.000025
 23   3.805651 1.330659 -1.631083 0.000019 0.000002 -0.000024
 24   -0.246150 -0.011872 -0.516511 -0.000005 -0.000006 0.000048
 25   4.941364 1.997338 1.629330 0.000018 -0.000001 -0.000024
 26   4.941382 1.997366 -1.629410 -0.000001 0.000005 -0.000024
 27   2.930087 1.603639 1.514501 -0.000019 -0.000022 -0.000050
 28   2.932517 1.603245 -1.501142 -0.000002 -0.000009 -0.000024
 29   8.824059 0.150544 0.091743 0.000986 -0.000492 -0.171530
 30   2.111085 -0.561179 1.784320 -0.000022 0.001236 0.000153
 31   2.121290 -0.561289 -1.853599 0.000000 -0.002564 0.000125
 32   -0.814395 -0.093824 3.127092 0.002215 -3.167016 -0.021517
 33   14.298673 -0.408176 0.471578 -0.000040 -0.000274 -0.121826
 34   15.835795 0.581398 0.242756 -0.002559 0.026015 0.099976
 35   -0.815868 -0.091229 -3.114430 -0.002364 3.158489 -0.024382
 36   14.294526 -0.410349 -0.467541 0.000081 0.000036 -0.127078
 37   15.834409 0.579420 -0.284600 0.002892 -0.017210 0.102761
 38   1.139685 -3.453749 -2.823813 0.000084 -0.000072 0.000184
 39   -4.457742 -1.054854 -0.746180 0.000132 0.000288 -0.001178
 40   1.118101 -3.449769 3.237290 -0.000042 -0.000083 0.000367
 41   -4.433840 -1.059130 0.959566 0.000011 0.000024 -0.000112
 42   -0.657468 1.697302 -2.688614 0.000863 0.001351 -0.000125
 43   -0.664068 1.698578 2.869377 -0.001012 -0.001520 0.000251
time 30
  0   0.243428 0.429701 2.176219 0.000000 0.000000 -1.571354
  1   -1.093036 0.000002 -0.326057 -1.570756 -1.570425 0.000071
  2   2.262337 0.113614 0.064702 -0.000052 0.000049 -0.243264
  3   2.380047 0.353302 0.047440 -0.155830 0.017625 0.111822
  4   2.033756 0.190472 -0.000128 -0.287327 0.015065 0.049814
  5   2.451511 0.204909 -0.003447 -0.156739 0.005544 0.034263
  6   7.247600 -0.397300 -0.109469 -0.000143 -0.183080 -0.252900
  7   -2.022252 -0.104661 3.136172 -1.657186 -1.783172 -1.187587
  8   1.168026 -0.537438 -0.063437 -0.881958 0.933749 -0.864263
  9   6.790376 -0.619176 0.015206 -0.000158 -0.000285 -1.932950
 10   8.637599 0.544015 -0.090417 -1.656328 -0.275709 -0.099594
 11   6.790465 -0.619039 0.017802 0.004388 -0.011935 -1.368308
 12   -2.022474 -0.104699 -2.873818 0.039619 1.193548 -2.846550
 13   1.167898 -0.537463 0.063297 -0.784014 -0.773595 0.300767
 14   7.002743 -0.617765 -0.183752 0.000229 0.000250 -2.147204
 15   8.209042 0.615527 -0.255885 1.570090 -0.000063 -0.069706
 16   7.002735 -0.617911 -0.183641 0.012602 0.012161 -1.521766
 17   1.574674 0.609930 -0.000899 0.574468 0.322280 -0.062620
 18   -0.602177 0.511412 -0.000006 0.000000 0.000000 0.000000
 19   3.646428 0.364526 1.119313 -0.000002 -0.000014 -0.174510
 20   3.646422 0.364499 -1.117566 0.000007 -0.000003 -0.174546
 21   3.805634 1.330634 1.627658 0.000002 -0.000011 -0.000026
 22   -0.246060 -0.011889 0.516521 -0.000011 0.000031 0.000025
 23   3.805651 1.330659 -1.631083 0.000019 0.000002 -0.000024
 24   -0.246150 -0.011872 -0.516511 -0.000005 -0.000006 0.000048
 25   4.941364 1.997338 1.629330 0.000018 -0.000001 -0.000024
 26   4.941382 1.997366 -1.629410 -0.000001 0.000005 -0.000024
 27   2.930087 1.603639 1.514501 -0.000019 -0.000022 -0.000050
 28   2.932517 1.603245 -1.501142 -0.000002 -0.000009 -0.000024
 29   8.824059 0.150544 0.091743 0.000006 -0.000231 -0.174534
 30   2.111085 -0.561179 1.784320 -0.000008 -0.000682 0.000024
 31   2.121290 -0.561289 -1.853599 0.000000 0.000000 -0.000002
 32   -0.814395 -0.093824 3.127092 0.002215 -3.167016 -0.021517
 33   14.298673 -0.408176 0.471578 -0.000040 -0.000274 -0.121826
 34   15.835795 0.581398 0.242756 -0.002559 0.026015 0.099976
 35   -0.815868 -0.091229 -3.114430 -0.002364 3.158489 -0.024382
 36   14.294526 -0.410349 -0.467541 0.000081 0.000036 -0.127078
 37   15.834409 0.579420 -0.284600 0.002892 -0.017210 0.102761
 38   1.139685 -3.453749 -2.823813 0.000000 0.000000 0.000001
 39   -4.457742 -1.054854 -0.746180 0.000000 0.000000 0.000000
 40   1.118101 -3.449769 3.237290 0.000000 0.000001 0.000000
 41   -4.433840 -1.059130 0.959566 -0.000001 0.000000 0.000000
 42   -0.657468 1.697302 -2.688614 0.000000 0.000002 0.000000
 43   -0.664068 1.698578 2.869377 0.000000 0.000002 0.000000
end
