version 1
nodes
  0 "Bip01" -1
  1 "Bip01 Pelvis" 0
  2 "Bip01 Spine" 1
  3 "Bip01 Spine1" 2
  4 "Bip01 Spine2" 3
  5 "Bip01 Spine3" 4
  6 "Bip01 Neck" 5
  7 "Bip01 L Arm" 6
  8 "Bip01 L Arm1" 7
  9 "Bip01 L Arm2" 8
 10 "Bip01 L Hand" 9
 11 "Bip06 L elbow2-smooth" 8
 12 "Bip01 R Arm" 6
 13 "Bip01 R Arm1" 12
 14 "Bip01 R Arm2" 13
 15 "Bip01 R Hand" 14
 16 "Bip06 R elbow2-smooth" 13
 17 "Bip01 Head" 6
 18 "Bip06 Head_helper" 17
 19 "Bip06 Head_eyes_l" 18
 20 "Bip06 Head_eyes_r" 18
 21 "Bip06 Head_blink_l" 18
 22 "Bip06 Head_blink_smooth_l1" 21
 23 "Bip06 Head_blink_r" 18
 24 "Bip06 Head_blink_smooth_r1" 23
 25 "Bip06 Head_L_eyebrow" 18
 26 "Bip06 Head_R_eyebrow" 18
 27 "Bip06 Head_blink_l_lid" 18
 28 "Bip06 Head_blink_r_lid" 18
 29 "Bip06 bunny" 18
 30 "Bip06 bunnyL" 29
 31 "Bip06 bunnyR" 29
 32 "Bip01 L Leg" 1
 33 "Bip01 L Leg1" 32
 34 "Bip01 L Foot" 33
 35 "Bip01 R Leg" 1
 36 "Bip01 R Leg1" 35
 37 "Bip01 R Foot" 36
 38 "Bip03 HairR1" 17
 39 "Bip03 HairR2" 38
 40 "Bip03 HairL1" 17
 41 "Bip03 HairL2" 40
 42 "Bip03 swingR" 17
 43 "Bip03 swingL" 17
end
skeleton
time 0
  0   -0.756603 -0.917997 1.293379 0.000000 0.000000 -1.571069
  1   -1.093036 0.000002 -0.326057 -1.569027 -1.622749 -0.001768
  2   2.262337 0.113614 0.064702 -0.000014 0.000025 0.034286
  3   2.380047 0.353302 0.047440 0.000000 -0.000028 -0.245397
  4   2.033756 0.190472 -0.000128 -0.166860 0.050851 -0.248861
  5   2.451511 0.204909 -0.003447 -0.122009 0.088564 -0.280555
  6   7.247600 -0.397300 -0.109469 0.000001 -0.000003 0.470960
  7   -2.022252 -0.104661 3.136172 1.212801 -1.046089 -4.775944
  8   1.168026 -0.537438 -0.063437 -0.210553 0.685901 -0.751723
  9   6.790376 -0.619176 0.015206 -0.169981 -0.234209 -0.775354
 10   8.637599 0.544015 -0.090417 -3.909819 0.083071 -0.332832
 11   6.790465 -0.619039 0.017802 -0.137681 -0.163101 -0.558898
 12   -2.022474 -0.104699 -2.873818 -2.468801 1.824383 0.184805
 13   1.167898 -0.537463 0.063297 -0.810867 -0.994812 0.109235
 14   7.002743 -0.617765 -0.183752 0.000059 0.000137 -1.866933
 15   8.209042 0.615527 -0.255885 1.727486 0.375284 0.023026
 16   7.002735 -0.617911 -0.183641 0.012978 0.010300 -1.325500
 17   1.574674 0.609930 -0.000899 0.265501 -0.161802 -0.235524
 18   -0.602177 0.511412 -0.000006 0.000000 0.000000 0.000000
 19   3.673773 0.177020 1.119313 -0.000002 -0.000014 -0.174510
 20   3.673767 0.176993 -1.117566 0.000007 -0.000003 -0.174546
 21   3.942357 1.334540 1.627658 0.000002 -0.000011 -0.000026
 22   -0.246060 -0.011889 0.516521 -0.000011 0.000031 0.000025
 23   3.942374 1.334565 -1.631083 0.000019 0.000002 -0.000024
 24   -0.246150 -0.011872 -0.516511 -0.000005 -0.000006 0.000048
 25   4.941364 1.997338 1.629330 0.000018 -0.000001 -0.000024
 26   4.941382 1.997366 -1.629410 -0.000001 0.000005 -0.000024
 27   2.914462 1.619264 1.514501 -0.000019 -0.000022 -0.000050
 28   2.916892 1.618870 -1.501142 -0.000002 -0.000009 -0.000024
 29   8.824059 0.150544 0.091743 0.000006 -0.000231 -0.174534
 30   2.111085 -0.561179 1.784320 -0.000008 -0.000682 0.000024
 31   2.121290 -0.561289 -1.853599 0.000000 0.000000 -0.000002
 32   -0.814395 -0.093824 3.127092 0.308687 -2.963967 -0.295198
 33   14.298673 -0.408176 0.471578 0.010842 -0.088873 -0.467446
 34   15.835795 0.581398 0.242756 -0.305894 -0.201989 0.256011
 35   -0.815868 -0.091229 -3.114430 -0.040474 2.853438 0.069178
 36   14.294526 -0.410349 -0.467541 -0.007038 0.076845 -0.395888
 37   15.834409 0.579420 -0.284600 0.273779 0.212841 0.401598
 38   1.139685 -3.453749 -2.823813 0.000000 0.000000 0.000001
 39   -4.457742 -1.054854 -0.746180 0.000000 0.000000 0.000000
 40   1.118101 -3.449769 3.237290 0.000000 0.000001 0.000000
 41   -4.433840 -1.059130 0.959566 -0.000001 0.000000 0.000000
 42   -0.657468 1.697302 -2.688614 0.000000 0.000002 0.000000
 43   -0.664068 1.698578 2.869377 0.000000 0.000002 0.000000
time 1
  0   -0.756603 -0.917997 1.293379 0.000000 0.000000 -1.571069
  1   -1.093036 0.000002 -0.326057 -1.569027 -1.622749 -0.001768
  2   2.262337 0.113614 0.064702 -0.000014 0.000025 0.025811
  3   2.380047 0.353302 0.047440 0.000000 -0.000028 -0.274026
  4   2.033756 0.190472 -0.000128 -0.166860 0.050851 -0.284709
  5   2.451511 0.204909 -0.003447 -0.122009 0.094217 -0.312329
  6   7.247600 -0.397300 -0.109469 -0.056638 -0.018759 0.454552
  7   -2.022252 -0.104661 3.136172 1.212801 -1.046089 -4.775944
  8   1.168026 -0.537438 -0.063437 -0.231309 0.775309 -0.763110
  9   6.790376 -0.619176 0.015206 -0.065457 -0.289804 -0.798975
 10   8.637599 0.544015 -0.090417 -3.909819 0.083071 -0.332832
 11   6.790465 -0.619039 0.017802 -0.069595 -0.210088 -0.571875
 12   -2.022474 -0.104699 -2.873818 -2.468801 1.824383 0.184805
 13   1.167898 -0.537463 0.063297 -0.919686 -0.949552 0.220135
 14   7.002743 -0.617765 -0.183752 -0.020665 0.009279 -1.935330
 15   8.209042 0.615527 -0.255885 1.727486 0.375284 0.023026
 16   7.002735 -0.617911 -0.183641 -0.000250 0.021859 -1.373352
 17   1.574674 0.609930 -0.000899 0.316197 -0.131556 -0.226320
 18   -0.602177 0.511412 -0.000006 0.000000 0.000000 0.000000
 19   3.673773 0.177020 1.119313 -0.000002 -0.000014 -0.174510
 20   3.673767 0.176993 -1.117566 0.000007 -0.000003 -0.174546
 21   3.942357 1.334540 1.627658 0.000002 -0.000011 -0.000026
 22   -0.246060 -0.011889 0.516521 -0.000011 0.000031 0.000025
 23   3.942374 1.334565 -1.631083 0.000019 0.000002 -0.000024
 24   -0.246150 -0.011872 -0.516511 -0.000005 -0.000006 0.000048
 25   4.941364 1.997338 1.629330 0.000018 -0.000001 -0.000024
 26   4.941382 1.997366 -1.629410 -0.000001 0.000005 -0.000024
 27   2.914462 1.619264 1.514501 -0.000019 -0.000022 -0.000050
 28   2.916892 1.618870 -1.501142 -0.000002 -0.000009 -0.000024
 29   8.824059 0.150544 0.091743 0.000006 -0.000231 -0.174534
 30   2.111085 -0.561179 1.784320 -0.000008 -0.000682 0.000024
 31   2.121290 -0.561289 -1.853599 0.000000 0.000000 -0.000002
 32   -0.814395 -0.093824 3.127092 0.308687 -2.963967 -0.295198
 33   14.298673 -0.408176 0.471578 0.010842 -0.088873 -0.467446
 34   15.835795 0.581398 0.242756 -0.305894 -0.201989 0.256011
 35   -0.815868 -0.091229 -3.114430 -0.040474 2.853438 0.069178
 36   14.294526 -0.410349 -0.467541 -0.007038 0.076845 -0.395888
 37   15.834409 0.579420 -0.284600 0.273779 0.212841 0.401598
 38   1.139685 -3.453749 -2.823813 0.000000 0.000000 0.000001
 39   -4.457742 -1.054854 -0.746180 0.000000 0.000000 0.000000
 40   1.118101 -3.449769 3.237290 0.000000 0.000001 0.000000
 41   -4.433840 -1.059130 0.959566 -0.000001 0.000000 0.000000
 42   -0.657468 1.697302 -2.688614 0.000000 0.000002 0.000000
 43   -0.664068 1.698578 2.869377 0.000000 0.000002 0.000000
time 2
  0   -0.756603 -0.917997 1.293379 0.000000 0.000000 -1.571069
  1   -1.093036 0.000002 -0.326057 -1.569027 -1.622749 -0.001768
  2   2.262337 0.113614 0.064702 -0.000014 0.000025 0.028052
  3   2.380047 0.353302 0.047440 0.000000 -0.000028 -0.266619
  4   2.033756 0.190472 -0.000128 -0.166860 0.050851 -0.275466
  5   2.451511 0.204909 -0.003447 -0.122009 0.092768 -0.304107
  6   7.247600 -0.397300 -0.109469 -0.042005 -0.013881 0.458828
  7   -2.022252 -0.104661 3.136172 1.212801 -1.046089 -4.775944
  8   1.168026 -0.537438 -0.063437 -0.226120 0.752215 -0.760516
  9   6.790376 -0.619176 0.015206 -0.092476 -0.275455 -0.792787
 10   8.637599 0.544015 -0.090417 -3.909819 0.083071 -0.332832
 11   6.790465 -0.619039 0.017802 -0.087172 -0.197922 -0.568645
 12   -2.022474 -0.104699 -2.873818 -2.468801 1.824383 0.184805
 13   1.167898 -0.537463 0.063297 -0.891427 -0.961350 0.191381
 14   7.002743 -0.617765 -0.183752 -0.015313 0.006781 -1.917509
 15   8.209042 0.615527 -0.255885 1.727486 0.375284 0.023026
 16   7.002735 -0.617911 -0.183641 0.003139 0.018814 -1.360989
 17   1.574674 0.609930 -0.000899 0.303036 -0.139437 -0.228760
 18   -0.602177 0.511412 -0.000006 0.000000 0.000000 0.000000
 19   3.673773 0.177020 1.119313 -0.000002 -0.000014 -0.174510
 20   3.673767 0.176993 -1.117566 0.000007 -0.000003 -0.174546
 21   3.942357 1.334540 1.627658 0.000002 -0.000011 -0.000026
 22   -0.246060 -0.011889 0.516521 -0.000011 0.000031 0.000025
 23   3.942374 1.334565 -1.631083 0.000019 0.000002 -0.000024
 24   -0.246150 -0.011872 -0.516511 -0.000005 -0.000006 0.000048
 25   4.941364 1.997338 1.629330 0.000018 -0.000001 -0.000024
 26   4.941382 1.997366 -1.629410 -0.000001 0.000005 -0.000024
 27   2.914462 1.619264 1.514501 -0.000019 -0.000022 -0.000050
 28   2.916892 1.618870 -1.501142 -0.000002 -0.000009 -0.000024
 29   8.824059 0.150544 0.091743 0.000006 -0.000231 -0.174534
 30   2.111085 -0.561179 1.784320 -0.000008 -0.000682 0.000024
 31   2.121290 -0.561289 -1.853599 0.000000 0.000000 -0.000002
 32   -0.814395 -0.093824 3.127092 0.308687 -2.963967 -0.295198
 33   14.298673 -0.408176 0.471578 0.010842 -0.088873 -0.467446
 34   15.835795 0.581398 0.242756 -0.305894 -0.201989 0.256011
 35   -0.815868 -0.091229 -3.114430 -0.040474 2.853438 0.069178
 36   14.294526 -0.410349 -0.467541 -0.007038 0.076845 -0.395888
 37   15.834409 0.579420 -0.284600 0.273779 0.212841 0.401598
 38   1.139685 -3.453749 -2.823813 0.000000 0.000000 0.000001
 39   -4.457742 -1.054854 -0.746180 0.000000 0.000000 0.000000
 40   1.118101 -3.449769 3.237290 0.000000 0.000001 0.000000
 41   -4.433840 -1.059130 0.959566 -0.000001 0.000000 0.000000
 42   -0.657468 1.697302 -2.688614 0.000000 0.000002 0.000000
 43   -0.664068 1.698578 2.869377 0.000000 0.000002 0.000000
time 3
  0   -0.756603 -0.917997 1.293379 0.000000 0.000000 -1.571069
  1   -1.093036 0.000002 -0.326057 -1.569027 -1.622749 -0.001768
  2   2.262337 0.113614 0.064702 -0.000014 0.000025 0.032117
  3   2.380047 0.353302 0.047440 0.000000 -0.000028 -0.252845
  4   2.033756 0.190472 -0.000128 -0.166860 0.050851 -0.258212
  5   2.451511 0.204909 -0.003447 -0.122009 0.090013 -0.288802
  6   7.247600 -0.397300 -0.109469 -0.014632 -0.004833 0.466652
  7   -2.022252 -0.104661 3.136172 1.212801 -1.046089 -4.775944
  8   1.168026 -0.537438 -0.063437 -0.215995 0.709246 -0.754886
  9   6.790376 -0.619176 0.015206 -0.142741 -0.248692 -0.781542
 10   8.637599 0.544015 -0.090417 -3.909819 0.083071 -0.332832
 11   6.790465 -0.619039 0.017802 -0.119988 -0.175238 -0.562474
 12   -2.022474 -0.104699 -2.873818 -2.468801 1.824383 0.184805
 13   1.167898 -0.537463 0.063297 -0.838915 -0.982963 0.137868
 14   7.002743 -0.617765 -0.183752 -0.005293 0.002351 -1.884837
 15   8.209042 0.615527 -0.255885 1.727486 0.375284 0.023026
 16   7.002735 -0.617911 -0.183641 0.009542 0.013232 -1.338029
 17   1.574674 0.609930 -0.000899 0.278622 -0.153992 -0.233158
 18   -0.602177 0.511412 -0.000006 0.000000 0.000000 0.000000
 19   3.673773 0.177020 1.119313 -0.000002 -0.000014 -0.174510
 20   3.673767 0.176993 -1.117566 0.000007 -0.000003 -0.174546
 21   3.942357 1.334540 1.627658 0.000002 -0.000011 -0.000026
 22   -0.246060 -0.011889 0.516521 -0.000011 0.000031 0.000025
 23   3.942374 1.334565 -1.631083 0.000019 0.000002 -0.000024
 24   -0.246150 -0.011872 -0.516511 -0.000005 -0.000006 0.000048
 25   4.941364 1.997338 1.629330 0.000018 -0.000001 -0.000024
 26   4.941382 1.997366 -1.629410 -0.000001 0.000005 -0.000024
 27   2.914462 1.619264 1.514501 -0.000019 -0.000022 -0.000050
 28   2.916892 1.618870 -1.501142 -0.000002 -0.000009 -0.000024
 29   8.824059 0.150544 0.091743 0.000006 -0.000231 -0.174534
 30   2.111085 -0.561179 1.784320 -0.000008 -0.000682 0.000024
 31   2.121290 -0.561289 -1.853599 0.000000 0.000000 -0.000002
 32   -0.814395 -0.093824 3.127092 0.308687 -2.963967 -0.295198
 33   14.298673 -0.408176 0.471578 0.010842 -0.088873 -0.467446
 34   15.835795 0.581398 0.242756 -0.305894 -0.201989 0.256011
 35   -0.815868 -0.091229 -3.114430 -0.040474 2.853438 0.069178
 36   14.294526 -0.410349 -0.467541 -0.007038 0.076845 -0.395888
 37   15.834409 0.579420 -0.284600 0.273779 0.212841 0.401598
 38   1.139685 -3.453749 -2.823813 0.000000 0.000000 0.000001
 39   -4.457742 -1.054854 -0.746180 0.000000 0.000000 0.000000
 40   1.118101 -3.449769 3.237290 0.000000 0.000001 0.000000
 41   -4.433840 -1.059130 0.959566 -0.000001 0.000000 0.000000
 42   -0.657468 1.697302 -2.688614 0.000000 0.000002 0.000000
 43   -0.664068 1.698578 2.869377 0.000000 0.000002 0.000000
time 4
  0   -0.756603 -0.917997 1.293379 0.000000 0.000000 -1.571069
  1   -1.093036 0.000002 -0.326057 -1.569027 -1.622749 -0.001768
  2   2.262337 0.113614 0.064702 -0.000014 0.000025 0.034286
  3   2.380047 0.353302 0.047440 0.000000 -0.000028 -0.245397
  4   2.033756 0.190472 -0.000128 -0.166860 0.050851 -0.248861
  5   2.451511 0.204909 -0.003447 -0.122009 0.088564 -0.280555
  6   7.247600 -0.397300 -0.109469 0.000001 -0.000003 0.470960
  7   -2.022252 -0.104661 3.136172 1.212801 -1.046089 -4.775944
  8   1.168026 -0.537438 -0.063437 -0.210553 0.685901 -0.751723
  9   6.790376 -0.619176 0.015206 -0.169981 -0.234209 -0.775354
 10   8.637599 0.544015 -0.090417 -3.909819 0.083071 -0.332832
 11   6.790465 -0.619039 0.017802 -0.137681 -0.163101 -0.558898
 12   -2.022474 -0.104699 -2.873818 -2.468801 1.824383 0.184805
 13   1.167898 -0.537463 0.063297 -0.810867 -0.994812 0.109235
 14   7.002743 -0.617765 -0.183752 0.000059 0.000137 -1.866933
 15   8.209042 0.615527 -0.255885 1.727486 0.375284 0.023026
 16   7.002735 -0.617911 -0.183641 0.012978 0.010300 -1.325500
 17   1.574674 0.609930 -0.000899 0.265501 -0.161802 -0.235524
 18   -0.602177 0.511412 -0.000006 0.000000 0.000000 0.000000
 19   3.673773 0.177020 1.119313 -0.000002 -0.000014 -0.174510
 20   3.673767 0.176993 -1.117566 0.000007 -0.000003 -0.174546
 21   3.942357 1.334540 1.627658 0.000002 -0.000011 -0.000026
 22   -0.246060 -0.011889 0.516521 -0.000011 0.000031 0.000025
 23   3.942374 1.334565 -1.631083 0.000019 0.000002 -0.000024
 24   -0.246150 -0.011872 -0.516511 -0.000005 -0.000006 0.000048
 25   4.941364 1.997338 1.629330 0.000018 -0.000001 -0.000024
 26   4.941382 1.997366 -1.629410 -0.000001 0.000005 -0.000024
 27   2.914462 1.619264 1.514501 -0.000019 -0.000022 -0.000050
 28   2.916892 1.618870 -1.501142 -0.000002 -0.000009 -0.000024
 29   8.824059 0.150544 0.091743 0.000006 -0.000231 -0.174534
 30   2.111085 -0.561179 1.784320 -0.000008 -0.000682 0.000024
 31   2.121290 -0.561289 -1.853599 0.000000 0.000000 -0.000002
 32   -0.814395 -0.093824 3.127092 0.308687 -2.963967 -0.295198
 33   14.298673 -0.408176 0.471578 0.010842 -0.088873 -0.467446
 34   15.835795 0.581398 0.242756 -0.305894 -0.201989 0.256011
 35   -0.815868 -0.091229 -3.114430 -0.040474 2.853438 0.069178
 36   14.294526 -0.410349 -0.467541 -0.007038 0.076845 -0.395888
 37   15.834409 0.579420 -0.284600 0.273779 0.212841 0.401598
 38   1.139685 -3.453749 -2.823813 0.000000 0.000000 0.000001
 39   -4.457742 -1.054854 -0.746180 0.000000 0.000000 0.000000
 40   1.118101 -3.449769 3.237290 0.000000 0.000001 0.000000
 41   -4.433840 -1.059130 0.959566 -0.000001 0.000000 0.000000
 42   -0.657468 1.697302 -2.688614 0.000000 0.000002 0.000000
 43   -0.664068 1.698578 2.869377 0.000000 0.000002 0.000000
end
