version 1
nodes
  0 "Bip01" -1
  1 "Bip01 Pelvis" 0
  2 "Bip01 Spine" 1
  3 "Bip01 Spine1" 2
  4 "Bip01 Spine2" 3
  5 "Bip01 Spine3" 4
  6 "Bip01 Neck" 5
  7 "Bip01 L Arm" 6
  8 "Bip01 L Arm1" 7
  9 "Bip01 L Arm2" 8
 10 "Bip01 L Hand" 9
 11 "Bip06 L elbow2-smooth" 8
 12 "Bip01 R Arm" 6
 13 "Bip01 R Arm1" 12
 14 "Bip01 R Arm2" 13
 15 "Bip01 R Hand" 14
 16 "Bip06 R elbow2-smooth" 13
 17 "Bip01 Head" 6
 18 "Bip06 Head_helper" 17
 19 "Bip06 Head_eyes_l" 18
 20 "Bip06 Head_eyes_r" 18
 21 "Bip06 Head_blink_l" 18
 22 "Bip06 Head_blink_smooth_l1" 21
 23 "Bip06 Head_blink_r" 18
 24 "Bip06 Head_blink_smooth_r1" 23
 25 "Bip06 Head_L_eyebrow" 18
 26 "Bip06 Head_R_eyebrow" 18
 27 "Bip06 Head_blink_l_lid" 18
 28 "Bip06 Head_blink_r_lid" 18
 29 "Bip06 bunny" 18
 30 "Bip06 bunnyL" 29
 31 "Bip06 bunnyR" 29
 32 "Bip01 L Leg" 1
 33 "Bip01 L Leg1" 32
 34 "Bip01 L Foot" 33
 35 "Bip01 R Leg" 1
 36 "Bip01 R Leg1" 35
 37 "Bip01 R Foot" 36
 38 "Bip03 HairR1" 17
 39 "Bip03 HairR2" 38
 40 "Bip03 HairL1" 17
 41 "Bip03 HairL2" 40
 42 "Bip03 swingR" 17
 43 "Bip03 swingL" 17
end
skeleton
time 0
  0   -0.756603 -0.917997 1.297286 0.000000 0.000000 -1.571069
  1   -1.093036 0.000002 -0.326057 -1.569027 -1.622749 -0.001768
  2   2.262337 0.113614 0.064702 -0.000014 0.000025 0.034286
  3   2.380047 0.353302 0.047440 0.000000 -0.000028 -0.245397
  4   2.033756 0.190472 -0.000128 -0.166860 0.050851 -0.248861
  5   2.451511 0.204909 -0.003447 -0.122009 0.088564 -0.280555
  6   7.247600 -0.397300 -0.109469 0.000001 -0.000003 0.470960
  7   -2.022252 -0.104661 3.136172 1.212897 -1.046089 -4.775944
  8   1.168026 -0.537438 -0.063437 -0.375209 0.611939 -0.863947
  9   6.790376 -0.619176 0.015206 -0.169981 -0.234209 -0.775354
 10   8.637599 0.544015 -0.090417 -3.909819 0.083071 -0.332832
 11   6.790465 -0.619039 0.017802 -0.137681 -0.163101 -0.558898
 12   -2.022474 -0.104699 -2.873818 -2.468801 1.824383 0.184805
 13   1.167898 -0.537463 0.063297 -0.810867 -0.994812 0.109235
 14   7.002743 -0.617765 -0.183752 0.000059 0.000137 -1.866933
 15   8.209042 0.615527 -0.255885 1.727486 0.375284 0.023026
 16   7.002735 -0.617911 -0.183641 0.012978 0.010300 -1.325500
 17   1.574674 0.609930 -0.000899 0.265501 -0.161802 -0.235524
 18   -0.602177 0.511412 -0.000006 0.000000 0.000000 0.000000
 19   3.646428 0.364526 1.119313 -0.000002 -0.000014 -0.174510
 20   3.646422 0.364499 -1.117566 0.000007 -0.000003 -0.174546
 21   3.805634 1.330634 1.627658 0.000002 -0.000011 -0.000026
 22   -0.246060 -0.011889 0.516521 -0.000011 0.000031 0.000025
 23   3.805651 1.330659 -1.631083 0.000019 0.000002 -0.000024
 24   -0.246150 -0.011872 -0.516511 -0.000005 -0.000006 0.000048
 25   4.941364 1.997338 1.629330 0.000018 -0.000001 -0.000024
 26   4.941382 1.997366 -1.629410 -0.000001 0.000005 -0.000024
 27   2.930087 1.603639 1.514501 -0.000019 -0.000022 -0.000050
 28   2.932517 1.603245 -1.501142 -0.000002 -0.000009 -0.000024
 29   8.824059 0.150544 0.091743 0.000006 -0.000231 -0.174534
 30   2.111085 -0.561179 1.784320 -0.000008 -0.000682 0.000024
 31   2.121290 -0.561289 -1.853599 0.000000 0.000000 -0.000002
 32   -0.814395 -0.093824 3.127092 0.308687 -2.963967 -0.295198
 33   14.298673 -0.408176 0.471578 0.010842 -0.088873 -0.467446
 34   15.835795 0.581398 0.242756 -0.305894 -0.201989 0.256011
 35   -0.815868 -0.091229 -3.114430 -0.040474 2.853438 0.069178
 36   14.294526 -0.410349 -0.467541 -0.007038 0.076845 -0.395888
 37   15.834409 0.579420 -0.284600 0.273779 0.212841 0.401598
 38   1.139685 -3.453749 -2.823813 0.000000 0.000000 0.000001
 39   -4.457742 -1.054854 -0.746180 0.000000 0.000000 0.000000
 40   1.118101 -3.449769 3.237290 0.000000 0.000001 0.000000
 41   -4.433840 -1.059130 0.959566 -0.000001 0.000000 0.000000
 42   -0.657468 1.697302 -2.688614 0.000000 0.000002 0.000000
 43   -0.664068 1.698578 2.869377 0.000000 0.000002 0.000000
time 1
  0   -0.756603 -0.917997 1.297286 0.000000 0.000000 -1.571069
  1   -1.093036 0.000002 -0.326057 -1.569027 -1.622749 -0.001768
  2   2.262337 0.113614 0.064702 -0.000014 0.000025 0.034286
  3   2.380047 0.353302 0.047440 -0.000075 0.001662 -0.239765
  4   2.033756 0.190472 -0.000128 -0.165661 0.048837 -0.263396
  5   2.451511 0.204909 -0.003447 -0.122009 0.085496 -0.297668
  6   7.247600 -0.397300 -0.109469 0.000001 -0.000003 0.470960
  7   -2.022252 -0.104661 3.136172 1.212897 -1.046089 -4.775944
  8   1.168026 -0.537438 -0.063437 -0.384005 0.639964 -0.877611
  9   6.790376 -0.619176 0.015206 -0.169981 -0.234209 -0.750223
 10   8.637599 0.544015 -0.090417 -3.908410 0.081593 -0.348386
 11   6.790465 -0.619039 0.017802 -0.137097 -0.163499 -0.541365
 12   -2.022474 -0.104699 -2.873818 -2.472442 1.825689 0.180688
 13   1.167898 -0.537463 0.063297 -0.852272 -0.984997 0.150883
 14   7.002743 -0.617765 -0.183752 0.000059 0.000137 -1.866933
 15   8.209042 0.615527 -0.255885 1.727630 0.375133 0.023567
 16   7.002735 -0.617911 -0.183641 0.012978 0.010300 -1.325445
 17   1.574674 0.609930 -0.000899 0.262820 -0.162654 -0.209318
 18   -0.602177 0.511412 -0.000006 0.000000 0.000000 0.000000
 19   3.646428 0.364526 1.119313 -0.000002 -0.000014 -0.174510
 20   3.646422 0.364499 -1.117566 0.000007 -0.000003 -0.174546
 21   3.805634 1.330634 1.627658 0.000002 -0.000011 -0.000026
 22   -0.246060 -0.011889 0.516521 -0.000011 0.000031 0.000025
 23   3.805651 1.330659 -1.631083 0.000019 0.000002 -0.000024
 24   -0.246150 -0.011872 -0.516511 -0.000005 -0.000006 0.000048
 25   4.941364 1.997338 1.629330 0.000018 -0.000001 -0.000024
 26   4.941382 1.997366 -1.629410 -0.000001 0.000005 -0.000024
 27   2.930087 1.603639 1.514501 -0.000019 -0.000022 -0.000050
 28   2.932517 1.603245 -1.501142 -0.000002 -0.000009 -0.000024
 29   8.824059 0.150544 0.091743 0.000986 -0.000492 -0.171530
 30   2.111085 -0.561179 1.784320 -0.000022 0.001236 0.000153
 31   2.121290 -0.561289 -1.853599 0.000000 -0.002564 0.000125
 32   -0.814395 -0.093824 3.127092 0.308687 -2.963872 -0.294914
 33   14.298673 -0.408176 0.471578 0.010794 -0.088873 -0.466811
 34   15.835795 0.581398 0.242756 -0.305825 -0.202160 0.255481
 35   -0.815868 -0.091229 -3.114430 -0.040386 2.853438 0.069562
 36   14.294526 -0.410349 -0.467541 -0.006990 0.076857 -0.395347
 37   15.834409 0.579420 -0.284600 0.273779 0.212841 0.401598
 38   1.139685 -3.453749 -2.823813 0.000084 -0.000072 0.000184
 39   -4.457742 -1.054854 -0.746180 0.000132 0.000288 -0.001178
 40   1.118101 -3.449769 3.237290 -0.000042 -0.000083 0.000367
 41   -4.433840 -1.059130 0.959566 0.000011 0.000024 -0.000112
 42   -0.657468 1.697302 -2.688614 0.000863 0.001351 -0.000125
 43   -0.664068 1.698578 2.869377 -0.001012 -0.001520 0.000251
time 2
  0   -0.756603 -0.917997 1.309005 0.000000 0.000000 -1.571069
  1   -1.093036 0.000002 -0.326057 -1.569027 -1.622749 -0.001768
  2   2.262337 0.113614 0.064702 -0.000014 0.000025 0.034286
  3   2.380047 0.353302 0.047440 -0.000210 0.003447 -0.233725
  4   2.033756 0.190472 -0.000128 -0.164370 0.046788 -0.278837
  5   2.451511 0.204909 -0.003447 -0.121992 0.082271 -0.315499
  6   7.247600 -0.397300 -0.109469 0.000001 -0.000003 0.470960
  7   -2.022252 -0.104661 3.136172 1.212897 -1.046089 -4.775944
  8   1.168026 -0.537438 -0.063437 -0.395268 0.669448 -0.894375
  9   6.790376 -0.619176 0.015206 -0.169981 -0.234209 -0.722904
 10   8.637599 0.544015 -0.090417 -3.906737 0.079622 -0.364591
 11   6.790465 -0.619039 0.017802 -0.136484 -0.163897 -0.522332
 12   -2.022474 -0.104699 -2.873818 -2.468801 1.824383 0.184805
 13   1.167898 -0.537463 0.063297 -0.897121 -0.975894 0.196042
 14   7.002743 -0.617765 -0.183752 0.000059 0.000137 -1.866933
 15   8.209042 0.615527 -0.255885 1.727486 0.375284 0.023026
 16   7.002735 -0.617911 -0.183641 0.012978 0.010300 -1.325500
 17   1.574674 0.609930 -0.000899 0.260099 -0.163577 -0.181671
 18   -0.602177 0.511412 -0.000006 0.000000 0.000000 0.000000
 19   3.646428 0.364526 1.119313 -0.000002 -0.000014 -0.174510
 20   3.646422 0.364499 -1.117566 0.000007 -0.000003 -0.174546
 21   3.805634 1.330634 1.627658 0.000002 -0.000011 -0.000026
 22   -0.246060 -0.011889 0.516521 -0.000011 0.000031 0.000025
 23   3.805651 1.330659 -1.631083 0.000019 0.000002 -0.000024
 24   -0.246150 -0.011872 -0.516511 -0.000005 -0.000006 0.000048
 25   4.941364 1.997338 1.629330 0.000018 -0.000001 -0.000024
 26   4.941382 1.997366 -1.629410 -0.000001 0.000005 -0.000024
 27   2.930087 1.603639 1.514501 -0.000019 -0.000022 -0.000050
 28   2.932517 1.603245 -1.501142 -0.000002 -0.000009 -0.000024
 29   8.824059 0.150544 0.091743 0.003927 -0.001323 -0.163000
 30   2.111085 -0.561179 1.780414 -0.000103 0.006729 0.000517
 31   2.125196 -0.561289 -1.849693 0.000015 -0.009765 0.000544
 32   -0.814395 -0.093824 3.127092 0.308407 -2.963585 -0.294174
 33   14.298673 -0.408176 0.471578 0.010650 -0.088886 -0.465223
 34   15.835795 0.581398 0.242756 -0.305503 -0.202648 0.253894
 35   -0.815868 -0.091229 -3.114430 -0.040122 2.853344 0.070328
 36   14.294526 -0.410349 -0.467541 -0.006871 0.076857 -0.393725
 37   15.834409 0.579420 -0.284600 0.273779 0.212841 0.401598
 38   1.139685 -3.453749 -2.823813 0.000400 -0.000289 0.000856
 39   -4.457742 -1.043135 -0.746180 0.000503 0.001127 -0.004487
 40   1.118101 -3.449769 3.237290 -0.000189 -0.000348 0.001466
 41   -4.429934 -1.051317 0.959566 0.000047 0.000108 -0.000449
 42   -0.657468 1.697302 -2.676895 0.003308 0.005169 -0.000460
 43   -0.664068 1.698578 2.857658 -0.003886 -0.005851 0.001004
time 3
  0   -0.756603 -0.917997 1.328537 0.000000 0.000000 -1.571069
  1   -1.093036 0.000002 -0.326057 -1.569027 -1.622749 -0.001768
  2   2.262337 0.113614 0.064702 -0.000014 0.000025 0.034286
  3   2.380047 0.353302 0.047440 -0.000345 0.005245 -0.227644
  4   2.033756 0.190472 -0.000128 -0.163024 0.044763 -0.293843
  5   2.451511 0.204909 -0.003447 -0.121872 0.079125 -0.332984
  6   7.247600 -0.397300 -0.109469 0.002230 0.003329 0.512804
  7   -2.022252 -0.104661 3.136172 1.205516 -1.044128 -4.812008
  8   1.168026 -0.537438 -0.063437 -0.408810 0.698429 -0.913733
  9   6.790376 -0.619176 0.015206 -0.169981 -0.234209 -0.696868
 10   8.637599 0.544015 -0.090417 -3.905504 0.077299 -0.379711
 11   6.790465 -0.619039 0.017802 -0.135871 -0.164323 -0.504222
 12   -2.022474 -0.104699 -2.873818 -2.437856 1.815444 0.173986
 13   1.167898 -0.537463 0.063297 -0.944430 -0.970148 0.243683
 14   7.002743 -0.617765 -0.183752 0.000059 0.000137 -1.867263
 15   8.209042 0.615527 -0.255885 1.726695 0.376419 0.020680
 16   7.002735 -0.617911 -0.183641 0.012978 0.010300 -1.325721
 17   1.574674 0.609930 -0.000899 0.255387 -0.165045 -0.205770
 18   -0.602177 0.511412 -0.000006 0.000000 0.000000 0.000000
 19   3.646428 0.364526 1.119313 -0.000002 -0.000014 -0.174510
 20   3.646422 0.364499 -1.117566 0.000007 -0.000003 -0.174546
 21   3.805634 1.330634 1.627658 0.000002 -0.000011 -0.000026
 22   -0.246060 -0.011889 0.516521 -0.000011 0.000031 0.000025
 23   3.805651 1.330659 -1.631083 0.000019 0.000002 -0.000024
 24   -0.246150 -0.011872 -0.516511 -0.000005 -0.000006 0.000048
 25   4.941364 1.997338 1.629330 0.000018 -0.000001 -0.000024
 26   4.941382 1.997366 -1.629410 -0.000001 0.000005 -0.000024
 27   2.930087 1.603639 1.514501 -0.000019 -0.000022 -0.000050
 28   2.932517 1.603245 -1.501142 -0.000002 -0.000009 -0.000024
 29   8.824059 0.150544 0.091743 0.008473 -0.002629 -0.149802
 30   2.114991 -0.561179 1.772601 -0.000225 0.015185 0.001075
 31   2.129103 -0.561289 -1.845786 0.000031 -0.020928 0.001163
 32   -0.814395 -0.093824 3.127092 0.308314 -2.963203 -0.292808
 33   14.298673 -0.408176 0.471578 0.010423 -0.088912 -0.462603
 34   15.835795 0.581398 0.242756 -0.304928 -0.203429 0.251292
 35   -0.815868 -0.091229 -3.114430 -0.039858 2.853344 0.071753
 36   14.294526 -0.410349 -0.467541 -0.006679 0.076881 -0.391098
 37   15.834409 0.579420 -0.284600 0.273779 0.212841 0.401598
 38   1.143591 -3.453749 -2.823813 0.000842 -0.000627 0.001956
 39   -4.457742 -1.027509 -0.742274 0.001091 0.002409 -0.009648
 40   1.114195 -3.449769 3.237290 -0.000400 -0.000758 0.003116
 41   -4.422121 -1.043504 0.963472 0.000107 0.000228 -0.000954
 42   -0.649655 1.697302 -2.661269 0.007095 0.011057 -0.001046
 43   -0.664068 1.698578 2.845939 -0.008321 -0.012535 0.002133
time 4
  0   -0.756603 -0.917997 1.344162 0.000000 0.000000 -1.571069
  1   -1.093036 0.000002 -0.326057 -1.569027 -1.622749 -0.001768
  2   2.262337 0.113614 0.064702 -0.000014 0.000025 0.034286
  3   2.380047 0.353302 0.047440 -0.000450 0.006995 -0.222053
  4   2.033756 0.190472 -0.000128 -0.161862 0.043085 -0.306747
  5   2.451511 0.204909 -0.003447 -0.121718 0.076318 -0.349155
  6   7.247600 -0.397300 -0.109469 0.004759 0.006601 0.554775
  7   -2.022252 -0.104661 3.136172 1.198614 -1.042370 -4.847414
  8   1.168026 -0.537438 -0.063437 -0.422542 0.724492 -0.932268
  9   6.790376 -0.619176 0.015206 -0.169981 -0.234209 -0.674152
 10   8.637599 0.544015 -0.090417 -3.904095 0.075328 -0.392516
 11   6.790465 -0.619039 0.017802 -0.135316 -0.164636 -0.488362
 12   -2.022474 -0.104699 -2.873818 -2.400203 1.805198 0.170348
 13   1.167898 -0.537463 0.063297 -0.988506 -0.965571 0.287389
 14   7.002743 -0.617765 -0.183752 0.000059 0.000137 -1.867428
 15   8.209042 0.615527 -0.255885 1.725904 0.377705 0.017854
 16   7.002735 -0.617911 -0.183641 0.012978 0.010300 -1.325831
 17   1.574674 0.609930 -0.000899 0.250878 -0.166394 -0.233010
 18   -0.602177 0.511412 -0.000006 0.000000 0.000000 0.000000
 19   3.646428 0.364526 1.119313 -0.000002 -0.000014 -0.174510
 20   3.646422 0.364499 -1.117566 0.000007 -0.000003 -0.174546
 21   3.805634 1.330634 1.627658 0.000002 -0.000011 -0.000026
 22   -0.246060 -0.011889 0.516521 -0.000011 0.000031 0.000025
 23   3.805651 1.330659 -1.631083 0.000019 0.000002 -0.000024
 24   -0.246150 -0.011872 -0.516511 -0.000005 -0.000006 0.000048
 25   4.941364 1.997338 1.629330 0.000018 -0.000001 -0.000024
 26   4.941382 1.997366 -1.629410 -0.000001 0.000005 -0.000024
 27   2.930087 1.603639 1.514501 -0.000019 -0.000022 -0.000050
 28   2.932517 1.603245 -1.501142 -0.000002 -0.000009 -0.000024
 29   8.824059 0.150544 0.091743 0.014266 -0.004409 -0.132796
 30   2.118898 -0.561179 1.760882 -0.000374 0.026112 0.001804
 31   2.136915 -0.561289 -1.837973 0.000061 -0.035330 0.001963
 32   -0.814395 -0.093824 3.127092 0.307848 -2.962630 -0.291100
 33   14.298673 -0.408176 0.471578 0.010099 -0.088964 -0.458871
 34   15.835795 0.581398 0.242756 -0.304238 -0.204527 0.247763
 35   -0.815868 -0.091229 -3.114430 -0.039242 2.853251 0.073670
 36   14.294526 -0.410349 -0.467541 -0.006391 0.076905 -0.387391
 37   15.834409 0.579420 -0.284600 0.273779 0.212841 0.401598
 38   1.147498 -3.453749 -2.823813 0.001431 -0.001073 0.003300
 39   -4.457742 -1.007978 -0.738367 0.001846 0.004075 -0.016267
 40   1.110288 -3.449769 3.237290 -0.000674 -0.001288 0.005315
 41   -4.410401 -1.031785 0.967379 0.000191 0.000395 -0.001599
 42   -0.645749 1.697302 -2.641737 0.011973 0.018646 -0.001798
 43   -0.664068 1.694672 2.826407 -0.014043 -0.021150 0.003639
time 5
  0   -0.756603 -0.917997 1.363694 0.000000 0.000000 -1.571069
  1   -1.093036 0.000002 -0.326057 -1.569027 -1.622749 -0.001768
  2   2.262337 0.113614 0.064702 -0.000014 0.000025 0.034286
  3   2.380047 0.353302 0.047440 -0.000540 0.008397 -0.217176
  4   2.033756 0.190472 -0.000128 -0.161069 0.041838 -0.315881
  5   2.451511 0.204909 -0.003447 -0.121547 0.074020 -0.363197
  6   7.247600 -0.397300 -0.109469 0.007348 0.009800 0.596714
  7   -2.022252 -0.104661 3.136172 1.191233 -1.040583 -4.883008
  8   1.168026 -0.537438 -0.063437 -0.434312 0.745171 -0.947830
  9   6.790376 -0.619176 0.015206 -0.169981 -0.234209 -0.657625
 10   8.637599 0.544015 -0.090417 -3.902862 0.073146 -0.401776
 11   6.790465 -0.619039 0.017802 -0.134966 -0.164920 -0.476885
 12   -2.022474 -0.104699 -2.873818 -2.357186 1.794720 0.171784
 13   1.167898 -0.537463 0.063297 -1.025060 -0.962774 0.323407
 14   7.002743 -0.617765 -0.183752 0.000059 0.000137 -1.867758
 15   8.209042 0.615527 -0.255885 1.725041 0.379067 0.014606
 16   7.002735 -0.617911 -0.183641 0.012978 0.010300 -1.326107
 17   1.574674 0.609930 -0.000899 0.247262 -0.167672 -0.265462
 18   -0.602177 0.511412 -0.000006 0.000000 0.000000 0.000000
 19   3.646428 0.364526 1.119313 -0.000002 -0.000014 -0.174510
 20   3.646422 0.364499 -1.117566 0.000007 -0.000003 -0.174546
 21   3.805634 1.330634 1.627658 0.000002 -0.000011 -0.000026
 22   -0.246060 -0.011889 0.516521 -0.000011 0.000031 0.000025
 23   3.805651 1.330659 -1.631083 0.000019 0.000002 -0.000024
 24   -0.246150 -0.011872 -0.516511 -0.000005 -0.000006 0.000048
 25   4.941364 1.997338 1.629330 0.000018 -0.000001 -0.000024
 26   4.941382 1.997366 -1.629410 -0.000001 0.000005 -0.000024
 27   2.930087 1.603639 1.514501 -0.000019 -0.000022 -0.000050
 28   2.932517 1.603245 -1.501142 -0.000002 -0.000009 -0.000024
 29   8.824059 0.150544 0.091743 0.021039 -0.006617 -0.112785
 30   2.126710 -0.561179 1.749163 -0.000550 0.038928 0.002640
 31   2.144728 -0.561289 -1.830161 0.000092 -0.052217 0.002909
 32   -0.814395 -0.093824 3.127092 0.307475 -2.962057 -0.289108
 33   14.298673 -0.408176 0.471578 0.009716 -0.089003 -0.454504
 34   15.835795 0.581398 0.242756 -0.303364 -0.205796 0.243574
 35   -0.815868 -0.091229 -3.114430 -0.038538 2.853157 0.075806
 36   14.294526 -0.410349 -0.467541 -0.006056 0.076929 -0.383142
 37   15.834409 0.579420 -0.284600 0.273779 0.212841 0.401598
 38   1.151404 -3.457655 -2.823813 0.002126 -0.001579 0.004827
 39   -4.461648 -0.988446 -0.730555 0.002721 0.006028 -0.024036
 40   1.106382 -3.445863 3.237290 -0.001010 -0.001915 0.007881
 41   -4.398683 -1.016160 0.971285 0.000287 0.000587 -0.002384
 42   -0.637936 1.697302 -2.618299 0.017701 0.027570 -0.002635
 43   -0.664068 1.690765 2.806875 -0.020765 -0.031255 0.005395
time 6
  0   -0.756603 -0.917997 1.398851 0.000000 0.000000 -1.571069
  1   -1.093036 0.000002 -0.326057 -1.569027 -1.622749 -0.001768
  2   2.262337 0.113614 0.064702 -0.000014 0.000025 0.034286
  3   2.380047 0.353302 0.047440 -0.000615 0.009536 -0.213544
  4   2.033756 0.190472 -0.000128 -0.160571 0.041143 -0.321173
  5   2.451511 0.204909 -0.003447 -0.121273 0.072153 -0.376620
  6   7.247600 -0.397300 -0.109469 0.009996 0.012856 0.638589
  7   -2.022252 -0.104661 3.136172 1.183469 -1.039055 -4.918509
  8   1.168026 -0.537438 -0.063437 -0.444374 0.762429 -0.960483
  9   6.790376 -0.619176 0.015206 -0.169981 -0.234209 -0.645399
 10   8.637599 0.544015 -0.090417 -3.901893 0.071386 -0.408432
 11   6.790465 -0.619039 0.017802 -0.134703 -0.165090 -0.468291
 12   -2.022474 -0.104699 -2.873818 -2.311774 1.784939 0.175805
 13   1.167898 -0.537463 0.063297 -1.056834 -0.960892 0.354159
 14   7.002743 -0.617765 -0.183752 0.000059 0.000137 -1.868006
 15   8.209042 0.615527 -0.255885 1.723963 0.380202 0.011600
 16   7.002735 -0.617911 -0.183641 0.012978 0.010356 -1.326328
 17   1.574674 0.609930 -0.000899 0.244175 -0.169021 -0.300982
 18   -0.602177 0.511412 -0.000006 0.000000 0.000000 0.000000
 19   3.646428 0.364526 1.119313 -0.000002 -0.000014 -0.174510
 20   3.646422 0.364499 -1.117566 0.000007 -0.000003 -0.174546
 21   3.805634 1.330634 1.627658 0.000002 -0.000011 -0.000026
 22   -0.246060 -0.011889 0.516521 -0.000011 0.000031 0.000025
 23   3.805651 1.330659 -1.631083 0.000019 0.000002 -0.000024
 24   -0.246150 -0.011872 -0.516511 -0.000005 -0.000006 0.000048
 25   4.941364 1.997338 1.629330 0.000018 -0.000001 -0.000024
 26   4.941382 1.997366 -1.629410 -0.000001 0.000005 -0.000024
 27   2.930087 1.603639 1.514501 -0.000019 -0.000022 -0.000050
 28   2.932517 1.603245 -1.501142 -0.000002 -0.000009 -0.000024
 29   8.824059 0.150544 0.091743 0.028525 -0.009228 -0.090682
 30   2.130617 -0.561179 1.737444 -0.000740 0.053081 0.003584
 31   2.152541 -0.561289 -1.818442 0.000138 -0.070892 0.003965
 32   -0.814395 -0.093824 3.127092 0.307195 -2.961293 -0.286774
 33   14.298673 -0.408176 0.471578 0.009284 -0.089054 -0.449899
 34   15.835795 0.581398 0.242756 -0.302421 -0.207187 0.239031
 35   -0.815868 -0.091229 -3.114430 -0.037921 2.853063 0.078381
 36   14.294526 -0.410349 -0.467541 -0.005696 0.076953 -0.378430
 37   15.834409 0.579420 -0.284600 0.273779 0.212841 0.401598
 38   1.155311 -3.457655 -2.823813 0.002884 -0.002157 0.006599
 39   -4.461648 -0.961101 -0.726648 0.003703 0.008173 -0.032646
 40   1.102476 -3.445863 3.237290 -0.001368 -0.002602 0.010692
 41   -4.386963 -1.000534 0.979098 0.000394 0.000791 -0.003253
 42   -0.634030 1.693396 -2.590955 0.024029 0.037428 -0.003597
 43   -0.664068 1.686859 2.783437 -0.028187 -0.042443 0.007319
time 7
  0   -0.756603 -0.917997 1.422289 0.000000 0.000000 -1.571069
  1   -1.093036 0.000002 -0.326057 -1.569027 -1.622749 -0.001768
  2   2.262337 0.113614 0.064702 -0.000014 0.000025 0.034286
  3   2.380047 0.353302 0.047440 -0.000660 0.010291 -0.211034
  4   2.033756 0.190472 -0.000128 -0.160331 0.040820 -0.323819
  5   2.451511 0.204909 -0.003447 -0.120982 0.070848 -0.389077
  6   7.247600 -0.397300 -0.109469 0.012848 0.015829 0.680623
  7   -2.022252 -0.104661 3.136172 1.176088 -1.037642 -4.953728
  8   1.168026 -0.537438 -0.063437 -0.453044 0.777020 -0.971174
  9   6.790376 -0.619176 0.015206 -0.169981 -0.234209 -0.635664
 10   8.637599 0.544015 -0.090417 -3.900925 0.069626 -0.413713
 11   6.790465 -0.619039 0.017802 -0.134440 -0.165261 -0.461601
 12   -2.022474 -0.104699 -2.873818 -2.268660 1.776348 0.177624
 13   1.167898 -0.537463 0.063297 -1.083476 -0.958858 0.379402
 14   7.002743 -0.617765 -0.183752 0.000059 0.000137 -1.868418
 15   8.209042 0.615527 -0.255885 1.723172 0.381337 0.009074
 16   7.002735 -0.617911 -0.183641 0.012978 0.010356 -1.326604
 17   1.574674 0.609930 -0.000899 0.241616 -0.170441 -0.339347
 18   -0.602177 0.511412 -0.000006 0.000000 0.000000 0.000000
 19   3.646428 0.364526 1.119313 -0.000002 -0.000014 -0.174510
 20   3.646422 0.364499 -1.117566 0.000007 -0.000003 -0.174546
 21   3.805634 1.330634 1.627658 0.000002 -0.000011 -0.000026
 22   -0.246060 -0.011889 0.516521 -0.000011 0.000031 0.000025
 23   3.805651 1.330659 -1.631083 0.000019 0.000002 -0.000024
 24   -0.246150 -0.011872 -0.516511 -0.000005 -0.000006 0.000048
 25   4.941364 1.997338 1.629330 0.000018 -0.000001 -0.000024
 26   4.941382 1.997366 -1.629410 -0.000001 0.000005 -0.000024
 27   2.930087 1.603639 1.514501 -0.000019 -0.000022 -0.000050
 28   2.932517 1.603245 -1.501142 -0.000002 -0.000009 -0.000024
 29   8.824059 0.150544 0.091743 0.036368 -0.012147 -0.067345
 30   2.138430 -0.557273 1.721818 -0.000957 0.068076 0.004591
 31   2.164260 -0.561289 -1.810629 0.000184 -0.090655 0.005075
 32   -0.814395 -0.093824 3.127092 0.306823 -2.960624 -0.284497
 33   14.298673 -0.408176 0.471578 0.008877 -0.089080 -0.445135
 34   15.835795 0.581398 0.242756 -0.301455 -0.208578 0.234400
 35   -0.815868 -0.091229 -3.114430 -0.037217 2.852969 0.080791
 36   14.294526 -0.410349 -0.467541 -0.005324 0.076977 -0.373719
 37   15.834409 0.579420 -0.284600 0.273779 0.212841 0.401598
 38   1.159217 -3.461562 -2.823813 0.003684 -0.002748 0.008432
 39   -4.465555 -0.933757 -0.718835 0.004734 0.010463 -0.041761
 40   1.098569 -3.441956 3.237290 -0.001747 -0.003325 0.013685
 41   -4.371338 -0.984909 0.983004 0.000502 0.001019 -0.004151
 42   -0.626217 1.693396 -2.563610 0.030728 0.047869 -0.004600
 43   -0.664068 1.682953 2.759999 -0.036045 -0.054275 0.009326
time 8
  0   -0.756603 -0.917997 1.445728 0.000000 0.000000 -1.571069
  1   -1.093036 0.000002 -0.326057 -1.569027 -1.622749 -0.001768
  2   2.262337 0.113614 0.064702 -0.000014 0.000025 0.034286
  3   2.380047 0.353302 0.047440 -0.000705 0.010698 -0.209565
  4   2.033756 0.190472 -0.000128 -0.160331 0.040820 -0.323819
  5   2.451511 0.204909 -0.003447 -0.120794 0.070338 -0.396358
  6   7.247600 -0.397300 -0.109469 0.012848 0.015829 0.680623
  7   -2.022252 -0.104661 3.136172 1.176088 -1.037642 -4.953728
  8   1.168026 -0.537438 -0.063437 -0.457283 0.784215 -0.976487
  9   6.790376 -0.619176 0.015206 -0.169981 -0.234209 -0.632117
 10   8.637599 0.544015 -0.090417 -3.900132 0.068570 -0.415377
 11   6.790465 -0.619039 0.017802 -0.134382 -0.165289 -0.459121
 12   -2.022474 -0.104699 -2.873818 -2.246146 1.772488 0.200602
 13   1.167898 -0.537463 0.063297 -1.097535 -0.958909 0.392659
 14   7.002743 -0.617765 -0.183752 0.000059 0.000137 -1.868583
 15   8.209042 0.615527 -0.255885 1.722740 0.382093 0.007330
 16   7.002735 -0.617911 -0.183641 0.012978 0.010356 -1.326659
 17   1.574674 0.609930 -0.000899 0.241616 -0.173778 -0.324341
 18   -0.602177 0.511412 -0.000006 0.000000 0.000000 0.000000
 19   3.646428 0.364526 1.119313 -0.000002 -0.000014 -0.174510
 20   3.646422 0.364499 -1.117566 0.000007 -0.000003 -0.174546
 21   3.805634 1.330634 1.627658 0.000002 -0.000011 -0.000026
 22   -0.246060 -0.011889 0.516521 -0.000011 0.000031 0.000025
 23   3.805651 1.330659 -1.631083 0.000019 0.000002 -0.000024
 24   -0.246150 -0.011872 -0.516511 -0.000005 -0.000006 0.000048
 25   4.941364 1.997338 1.629330 0.000018 -0.000001 -0.000024
 26   4.941382 1.997366 -1.629410 -0.000001 0.000005 -0.000024
 27   2.930087 1.603639 1.514501 -0.000019 -0.000022 -0.000050
 28   2.932517 1.603245 -1.501142 -0.000002 -0.000009 -0.000024
 29   8.824059 0.150544 0.091743 0.044211 -0.015328 -0.043579
 30   2.146242 -0.557273 1.710099 -0.001161 0.083334 0.005599
 31   2.172073 -0.561289 -1.798910 0.000215 -0.110755 0.006203
 32   -0.814395 -0.093824 3.127092 0.306450 -2.959956 -0.282391
 33   14.298673 -0.408176 0.471578 0.008481 -0.089119 -0.440768
 34   15.835795 0.581398 0.242756 -0.300581 -0.209896 0.230167
 35   -0.815868 -0.091229 -3.114430 -0.036513 2.852876 0.082982
 36   14.294526 -0.410349 -0.467541 -0.005001 0.077001 -0.369316
 37   15.834409 0.579420 -0.284600 0.273779 0.212841 0.401598
 38   1.163123 -3.465468 -2.823813 0.004505 -0.003362 0.010326
 39   -4.469461 -0.910318 -0.714929 0.005789 0.012776 -0.051017
 40   1.094663 -3.438050 3.237290 -0.002147 -0.004060 0.016740
 41   -4.355712 -0.965377 0.990817 0.000622 0.001246 -0.005076
 42   -0.618404 1.693396 -2.536265 0.037548 0.058479 -0.005646
 43   -0.664068 1.679046 2.736560 -0.044042 -0.066310 0.011418
time 9
  0   -0.756603 -0.917997 1.473072 0.000000 0.000000 -1.571069
  1   -1.093036 0.000002 -0.326057 -1.569027 -1.622749 -0.001768
  2   2.262337 0.113614 0.064702 -0.000014 0.000025 0.034286
  3   2.380047 0.353302 0.047440 -0.000705 0.010770 -0.209279
  4   2.033756 0.190472 -0.000128 -0.160571 0.041143 -0.321173
  5   2.451511 0.204909 -0.003447 -0.120777 0.071043 -0.394154
  6   7.247600 -0.397300 -0.109469 0.012848 0.015829 0.680623
  7   -2.022252 -0.104661 3.136172 1.176088 -1.037642 -4.953728
  8   1.168026 -0.537438 -0.063437 -0.454372 0.779435 -0.973514
  9   6.790376 -0.619176 0.015206 -0.169981 -0.234209 -0.638456
 10   8.637599 0.544015 -0.090417 -3.900396 0.068218 -0.411398
 11   6.790465 -0.619039 0.017802 -0.134528 -0.165204 -0.463562
 12   -2.022474 -0.104699 -2.873818 -2.231679 1.770253 0.215155
 13   1.167898 -0.537463 0.063297 -1.093810 -0.963791 0.389027
 14   7.002743 -0.617765 -0.183752 0.000059 0.000137 -1.868831
 15   8.209042 0.615527 -0.255885 1.722237 0.382623 0.006187
 16   7.002735 -0.617911 -0.183641 0.012978 0.010356 -1.326880
 17   1.574674 0.609930 -0.000899 0.242510 -0.176973 -0.320127
 18   -0.602177 0.511412 -0.000006 0.000000 0.000000 0.000000
 19   3.646428 0.364526 1.119313 -0.000002 -0.000014 -0.174510
 20   3.646422 0.364499 -1.117566 0.000007 -0.000003 -0.174546
 21   3.805634 1.330634 1.627658 0.000002 -0.000011 -0.000026
 22   -0.246060 -0.011889 0.516521 -0.000011 0.000031 0.000025
 23   3.805651 1.330659 -1.631083 0.000019 0.000002 -0.000024
 24   -0.246150 -0.011872 -0.516511 -0.000005 -0.000006 0.000048
 25   4.941364 1.997338 1.629330 0.000018 -0.000001 -0.000024
 26   4.941382 1.997366 -1.629410 -0.000001 0.000005 -0.000024
 27   2.930087 1.603639 1.514501 -0.000019 -0.000022 -0.000050
 28   2.932517 1.603245 -1.501142 -0.000002 -0.000009 -0.000024
 29   8.824059 0.150544 0.091743 0.051965 -0.018628 -0.020242
 30   2.150149 -0.557273 1.694474 -0.001378 0.098329 0.006607
 31   2.183792 -0.557383 -1.791097 0.000260 -0.130517 0.007313
 32   -0.814395 -0.093824 3.127092 0.306077 -2.959383 -0.280683
 33   14.298673 -0.408176 0.471578 0.008170 -0.089158 -0.437116
 34   15.835795 0.581398 0.242756 -0.299891 -0.210945 0.226682
 35   -0.815868 -0.091229 -3.114430 -0.035985 2.852876 0.084899
 36   14.294526 -0.410349 -0.467541 -0.004713 0.077025 -0.365762
 37   15.834409 0.579420 -0.284600 0.273779 0.212841 0.401598
 38   1.167030 -3.465468 -2.823813 0.005325 -0.003965 0.012159
 39   -4.469461 -0.882974 -0.707116 0.006819 0.015065 -0.060132
 40   1.090756 -3.438050 3.237290 -0.002526 -0.004783 0.019734
 41   -4.343993 -0.949752 0.994723 0.000730 0.001462 -0.005974
 42   -0.610592 1.689489 -2.508921 0.044235 0.068921 -0.006650
 43   -0.660162 1.675140 2.709216 -0.051900 -0.078141 0.013467
time 10
  0   -0.756603 -0.917997 1.480885 0.000000 0.000000 -1.571069
  1   -1.093036 0.000002 -0.326057 -1.569027 -1.622749 -0.001768
  2   2.262337 0.113614 0.064702 -0.000014 0.000025 0.034286
  3   2.380047 0.353302 0.047440 -0.000660 0.010423 -0.210524
  4   2.033756 0.190472 -0.000128 -0.161069 0.041838 -0.315881
  5   2.451511 0.204909 -0.003447 -0.120982 0.073119 -0.381474
  6   7.247600 -0.397300 -0.109469 0.012848 0.015829 0.680623
  7   -2.022252 -0.104661 3.136172 1.176088 -1.037642 -4.953728
  8   1.168026 -0.537438 -0.063437 -0.444627 0.762076 -0.962570
  9   6.790376 -0.619176 0.015206 -0.169981 -0.234209 -0.655587
 10   8.637599 0.544015 -0.090417 -3.900925 0.069063 -0.401125
 11   6.790465 -0.619039 0.017802 -0.134907 -0.164948 -0.475443
 12   -2.022474 -0.104699 -2.873818 -2.222002 1.768744 0.225112
 13   1.167898 -0.537463 0.063297 -1.071666 -0.974064 0.367779
 14   7.002743 -0.617765 -0.183752 0.000059 0.000137 -1.868831
 15   8.209042 0.615527 -0.255885 1.722165 0.382850 0.005345
 16   7.002735 -0.617911 -0.183641 0.012978 0.010356 -1.326880
 17   1.574674 0.609930 -0.000899 0.244175 -0.179955 -0.327889
 18   -0.602177 0.511412 -0.000006 0.000000 0.000000 0.000000
 19   3.646428 0.364526 1.119313 -0.000002 -0.000014 -0.174510
 20   3.646422 0.364499 -1.117566 0.000007 -0.000003 -0.174546
 21   3.805634 1.330634 1.627658 0.000002 -0.000011 -0.000026
 22   -0.246060 -0.011889 0.516521 -0.000011 0.000031 0.000025
 23   3.805651 1.330659 -1.631083 0.000019 0.000002 -0.000024
 24   -0.246150 -0.011872 -0.516511 -0.000005 -0.000006 0.000048
 25   4.941364 1.997338 1.629330 0.000018 -0.000001 -0.000024
 26   4.941382 1.997366 -1.629410 -0.000001 0.000005 -0.000024
 27   2.930087 1.603639 1.514501 -0.000019 -0.000022 -0.000050
 28   2.932517 1.603245 -1.501142 -0.000002 -0.000009 -0.000024
 29   8.824059 0.150544 0.091743 0.059095 -0.021928 0.001754
 30   2.157961 -0.553366 1.682754 -0.001567 0.112511 0.007551
 31   2.191605 -0.557383 -1.779378 0.000291 -0.149192 0.008350
 32   -0.814395 -0.093824 3.127092 0.305891 -2.958905 -0.279431
 33   14.298673 -0.408176 0.471578 0.007930 -0.089183 -0.434575
 34   15.835795 0.581398 0.242756 -0.299316 -0.211775 0.224036
 35   -0.815868 -0.091229 -3.114430 -0.035809 2.852782 0.086323
 36   14.294526 -0.410349 -0.467541 -0.004510 0.077037 -0.363059
 37   15.834409 0.579420 -0.284600 0.273779 0.212841 0.401598
 38   1.170936 -3.469374 -2.823813 0.006083 -0.004531 0.013931
 39   -4.473368 -0.855629 -0.703210 0.007790 0.017222 -0.068742
 40   1.086850 -3.434144 3.237290 -0.002884 -0.005470 0.022544
 41   -4.328368 -0.934126 1.002536 0.000838 0.001678 -0.006843
 42   -0.602779 1.689489 -2.481576 0.050575 0.078779 -0.007612
 43   -0.660162 1.675140 2.685778 -0.059334 -0.089329 0.015391
time 11
  0   -0.756603 -0.917997 1.492604 0.000000 0.000000 -1.571069
  1   -1.093036 0.000002 -0.326057 -1.569027 -1.622749 -0.001768
  2   2.262337 0.113614 0.064702 -0.000014 0.000025 0.034286
  3   2.380047 0.353302 0.047440 -0.000615 0.009536 -0.213544
  4   2.033756 0.190472 -0.000128 -0.161991 0.043205 -0.305696
  5   2.451511 0.204909 -0.003447 -0.121273 0.076122 -0.361959
  6   7.247600 -0.397300 -0.109469 0.012848 0.015829 0.680623
  7   -2.022252 -0.104661 3.136172 1.176088 -1.037642 -4.953728
  8   1.168026 -0.537438 -0.063437 -0.429313 0.733800 -0.944667
  9   6.790376 -0.619176 0.015206 -0.169981 -0.234209 -0.682378
 10   8.637599 0.544015 -0.090417 -3.902598 0.070752 -0.384775
 11   6.790465 -0.619039 0.017802 -0.135550 -0.164550 -0.494072
 12   -2.022474 -0.104699 -2.873818 -2.218170 1.768193 0.229133
 13   1.167898 -0.537463 0.063297 -1.032582 -0.988557 0.330187
 14   7.002743 -0.617765 -0.183752 0.000059 0.000137 -1.868831
 15   8.209042 0.615527 -0.255885 1.722021 0.383001 0.005165
 16   7.002735 -0.617911 -0.183641 0.012978 0.010356 -1.326880
 17   1.574674 0.609930 -0.000899 0.247141 -0.182511 -0.345926
 18   -0.602177 0.511412 -0.000006 0.000000 0.000000 0.000000
 19   3.646428 0.364526 1.119313 -0.000002 -0.000014 -0.174510
 20   3.646422 0.364499 -1.117566 0.000007 -0.000003 -0.174546
 21   3.805634 1.330634 1.627658 0.000002 -0.000011 -0.000026
 22   -0.246060 -0.011889 0.516521 -0.000011 0.000031 0.000025
 23   3.805651 1.330659 -1.631083 0.000019 0.000002 -0.000024
 24   -0.246150 -0.011872 -0.516511 -0.000005 -0.000006 0.000048
 25   4.941364 1.997338 1.629330 0.000018 -0.000001 -0.000024
 26   4.941382 1.997366 -1.629410 -0.000001 0.000005 -0.000024
 27   2.930087 1.603639 1.514501 -0.000019 -0.000022 -0.000050
 28   2.932517 1.603245 -1.501142 -0.000002 -0.000009 -0.000024
 29   8.824059 0.150544 0.091743 0.065601 -0.025013 0.021603
 30   2.161868 -0.553366 1.671035 -0.001744 0.125327 0.008387
 31   2.199417 -0.557383 -1.771565 0.000337 -0.166080 0.009296
 32   -0.814395 -0.093824 3.127092 0.305704 -2.958714 -0.278577
 33   14.298673 -0.408176 0.471578 0.007774 -0.089209 -0.432908
 34   15.835795 0.581398 0.242756 -0.299040 -0.212263 0.222537
 35   -0.815868 -0.091229 -3.114430 -0.035369 2.852782 0.087200
 36   14.294526 -0.410349 -0.467541 -0.004402 0.077049 -0.361437
 37   15.834409 0.579420 -0.284600 0.273779 0.212841 0.401598
 38   1.178749 -3.469374 -2.823813 0.006778 -0.005049 0.015519
 39   -4.473368 -0.836097 -0.695397 0.008677 0.019163 -0.076511
 40   1.079037 -3.434144 3.237290 -0.003221 -0.006097 0.025110
 41   -4.316648 -0.918501 1.006442 0.000934 0.001870 -0.007629
 42   -0.594966 1.689489 -2.458138 0.056304 0.087703 -0.008490
 43   -0.660162 1.671233 2.666246 -0.066044 -0.099435 0.017147
time 12
  0   -0.756603 -0.917997 1.492604 0.000000 0.000000 -1.571069
  1   -1.093036 0.000002 -0.326057 -1.569027 -1.622749 -0.001768
  2   2.262337 0.113614 0.064702 -0.000014 0.000025 0.034286
  3   2.380047 0.353302 0.047440 -0.000450 0.006707 -0.222808
  4   2.033756 0.190472 -0.000128 -0.163356 0.045218 -0.290690
  5   2.451511 0.204909 -0.003447 -0.121581 0.079699 -0.338927
  6   7.247600 -0.397300 -0.109469 0.012848 0.015829 0.680623
  7   -2.022252 -0.104661 3.136172 1.176088 -1.037642 -4.953728
  8   1.168026 -0.537438 -0.063437 -0.412860 0.703058 -0.924045
  9   6.790376 -0.619176 0.015206 -0.169981 -0.234209 -0.712716
 10   8.637599 0.544015 -0.090417 -3.904183 0.072794 -0.366255
 11   6.790465 -0.619039 0.017802 -0.136221 -0.164067 -0.515181
 12   -2.022474 -0.104699 -2.873818 -2.220374 1.768599 0.226644
 13   1.167898 -0.537463 0.063297 -0.987803 -1.002644 0.286239
 14   7.002743 -0.617765 -0.183752 0.000059 0.000137 -1.868831
 15   8.209042 0.615527 -0.255885 1.722093 0.382850 0.005345
 16   7.002735 -0.617911 -0.183641 0.012978 0.010356 -1.326880
 17   1.574674 0.609930 -0.000899 0.250878 -0.184712 -0.365811
 18   -0.602177 0.511412 -0.000006 0.000000 0.000000 0.000000
 19   3.646428 0.364526 1.119313 -0.000002 -0.000014 -0.174510
 20   3.646422 0.364499 -1.117566 0.000007 -0.000003 -0.174546
 21   3.805634 1.330634 1.627658 0.000002 -0.000011 -0.000026
 22   -0.246060 -0.011889 0.516521 -0.000011 0.000031 0.000025
 23   3.805651 1.330659 -1.631083 0.000019 0.000002 -0.000024
 24   -0.246150 -0.011872 -0.516511 -0.000005 -0.000006 0.000048
 25   4.941364 1.997338 1.629330 0.000018 -0.000001 -0.000024
 26   4.941382 1.997366 -1.629410 -0.000001 0.000005 -0.000024
 27   2.930087 1.603639 1.514501 -0.000019 -0.000022 -0.000050
 28   2.932517 1.603245 -1.501142 -0.000002 -0.000009 -0.000024
 29   8.824059 0.150544 0.091743 0.070948 -0.027767 0.038503
 30   2.165774 -0.553366 1.659316 -0.001893 0.136225 0.009116
 31   2.207230 -0.557383 -1.763752 0.000352 -0.180455 0.010096
 32   -0.814395 -0.093824 3.127092 0.305704 -2.958619 -0.278236
 33   14.298673 -0.408176 0.471578 0.007726 -0.089209 -0.432352
 34   15.835795 0.581398 0.242756 -0.298925 -0.212385 0.221963
 35   -0.815868 -0.091229 -3.114430 -0.035281 2.852782 0.087474
 36   14.294526 -0.410349 -0.467541 -0.004354 0.077049 -0.360973
 37   15.834409 0.579420 -0.284600 0.273779 0.212841 0.401598
 38   1.178749 -3.469374 -2.823813 0.007367 -0.005483 0.016863
 39   -4.473368 -0.816566 -0.691491 0.009432 0.020829 -0.083158
 40   1.079037 -3.434144 3.237290 -0.003494 -0.006627 0.027309
 41   -4.308836 -0.906782 1.010349 0.001018 0.002025 -0.008274
 42   -0.591060 1.689489 -2.438606 0.061169 0.095292 -0.009201
 43   -0.660162 1.667327 2.650620 -0.071766 -0.108049 0.018611
time 13
  0   -0.756603 -0.917997 1.484791 0.000000 0.000000 -1.571069
  1   -1.093036 0.000002 -0.326057 -1.569027 -1.622749 -0.001768
  2   2.262337 0.113614 0.064702 -0.000014 0.000025 0.034286
  3   2.380047 0.353302 0.047440 -0.000150 0.002645 -0.236500
  4   2.033756 0.190472 -0.000128 -0.164739 0.047411 -0.274089
  5   2.451511 0.204909 -0.003447 -0.121821 0.083263 -0.315499
  6   7.247600 -0.397300 -0.109469 0.009996 0.012856 0.638589
  7   -2.022252 -0.104661 3.136172 1.183660 -1.039055 -4.918509
  8   1.168026 -0.537438 -0.063437 -0.398432 0.675033 -0.904307
  9   6.790376 -0.619176 0.015206 -0.169981 -0.234209 -0.740790
 10   8.637599 0.544015 -0.090417 -3.905768 0.074835 -0.349254
 11   6.790465 -0.619039 0.017802 -0.136893 -0.163669 -0.534790
 12   -2.022474 -0.104699 -2.873818 -2.244709 1.772720 -6.038175
 13   1.167898 -0.537463 0.063297 -0.944149 -1.013578 0.242896
 14   7.002743 -0.617765 -0.183752 0.000059 0.000137 -1.868831
 15   8.209042 0.615527 -0.255885 1.722237 0.382623 0.006007
 16   7.002735 -0.617911 -0.183641 0.012978 0.010356 -1.326880
 17   1.574674 0.609930 -0.000899 0.255468 -0.179529 -0.350472
 18   -0.602177 0.511412 -0.000006 0.000000 0.000000 0.000000
 19   3.646428 0.364526 1.119313 -0.000002 -0.000014 -0.174510
 20   3.646422 0.364499 -1.117566 0.000007 -0.000003 -0.174546
 21   3.805634 1.330634 1.627658 0.000002 -0.000011 -0.000026
 22   -0.246060 -0.011889 0.516521 -0.000011 0.000031 0.000025
 23   3.805651 1.330659 -1.631083 0.000019 0.000002 -0.000024
 24   -0.246150 -0.011872 -0.516511 -0.000005 -0.000006 0.000048
 25   4.941364 1.997338 1.629330 0.000018 -0.000001 -0.000024
 26   4.941382 1.997366 -1.629410 -0.000001 0.000005 -0.000024
 27   2.930087 1.603639 1.514501 -0.000019 -0.000022 -0.000050
 28   2.932517 1.603245 -1.501142 -0.000002 -0.000009 -0.000024
 29   8.824059 0.150544 0.091743 0.075137 -0.029951 0.051593
 30   2.169681 -0.553366 1.651503 -0.002015 0.144681 0.009673
 31   2.215043 -0.557383 -1.759846 0.000383 -0.191619 0.010733
 32   -0.814395 -0.093824 3.127092 0.305797 -2.958810 -0.278919
 33   14.298673 -0.408176 0.471578 0.007834 -0.089183 -0.433543
 34   15.835795 0.581398 0.242756 -0.299178 -0.212068 0.223154
 35   -0.815868 -0.091229 -3.114430 -0.035457 2.852782 0.086816
 36   14.294526 -0.410349 -0.467541 -0.004438 0.077037 -0.362055
 37   15.834409 0.579420 -0.284600 0.273779 0.212841 0.401598
 38   1.182655 -3.473281 -2.823813 0.007809 -0.005820 0.017902
 39   -4.477274 -0.800940 -0.687584 0.010007 0.022112 -0.088291
 40   1.075131 -3.430237 3.237290 -0.003726 -0.007037 0.028959
 41   -4.301023 -0.898969 1.014255 0.001078 0.002157 -0.008779
 42   -0.587153 1.685583 -2.422981 0.064956 0.101195 -0.009786
 43   -0.660162 1.667327 2.634995 -0.076214 -0.114734 0.019782
time 14
  0   -0.756603 -0.917997 1.473072 0.000000 0.000000 -1.571069
  1   -1.093036 0.000002 -0.326057 -1.569027 -1.622749 -0.001768
  2   2.262337 0.113614 0.064702 -0.000014 0.000025 0.034286
  3   2.380047 0.353302 0.047440 0.000000 -0.000028 -0.245397
  4   2.033756 0.190472 -0.000128 -0.165993 0.049437 -0.259010
  5   2.451511 0.204909 -0.003447 -0.121872 0.086397 -0.295018
  6   7.247600 -0.397300 -0.109469 0.007348 0.009800 0.596714
  7   -2.022252 -0.104661 3.136172 1.191233 -1.040583 -4.883008
  8   1.168026 -0.537438 -0.063437 -0.386726 0.645599 -0.887290
  9   6.790376 -0.619176 0.015206 -0.169981 -0.234209 -0.766147
 10   8.637599 0.544015 -0.090417 -3.907618 0.077088 -0.334134
 11   6.790465 -0.619039 0.017802 -0.137506 -0.163271 -0.552439
 12   -2.022474 -0.104699 -2.873818 -2.275271 1.778148 -6.027069
 13   1.167898 -0.537463 0.063297 -0.896136 -1.022121 0.195134
 14   7.002743 -0.617765 -0.183752 0.000059 0.000137 -1.868583
 15   8.209042 0.615527 -0.255885 1.722740 0.382093 0.007330
 16   7.002735 -0.617911 -0.183641 0.012978 0.010356 -1.326659
 17   1.574674 0.609930 -0.000899 0.259733 -0.174417 -0.335577
 18   -0.602177 0.511412 -0.000006 0.000000 0.000000 0.000000
 19   3.658147 0.270773 1.119313 -0.000002 -0.000014 -0.174510
 20   3.658141 0.270746 -1.117566 0.000007 -0.000003 -0.174546
 21   3.352495 1.260319 1.572969 0.000002 -0.000011 -0.000026
 22   -0.238247 -0.382994 0.496989 0.000099 -0.028720 0.445010
 23   3.360325 1.256438 -1.623270 0.000019 0.000002 -0.000024
 24   -0.160210 -0.285318 -0.532136 0.000091 -0.028745 0.445076
 25   4.531195 1.993432 1.637143 -0.032209 0.220350 0.007203
 26   4.531213 1.993460 -1.621597 0.035761 -0.204352 -0.020865
 27   3.117593 1.463010 1.502782 -0.000019 -0.000022 -0.000050
 28   3.120023 1.462616 -1.512861 -0.000002 -0.000009 -0.000024
 29   8.824059 0.150544 0.091743 0.077811 -0.031399 0.060069
 30   2.173587 -0.553366 1.647597 -0.002096 0.150174 0.010038
 31   2.218949 -0.557383 -1.755940 0.000398 -0.198845 0.011134
 32   -0.814395 -0.093824 3.127092 0.306077 -2.959383 -0.280683
 33   14.298673 -0.408176 0.471578 0.008170 -0.089158 -0.437116
 34   15.835795 0.581398 0.242756 -0.299891 -0.210945 0.226682
 35   -0.815868 -0.091229 -3.114430 -0.035985 2.852876 0.084899
 36   14.294526 -0.410349 -0.467541 -0.004713 0.077025 -0.365762
 37   15.834409 0.579420 -0.284600 0.273779 0.212841 0.401598
 38   1.182655 -3.473281 -2.823813 0.008104 -0.006049 0.018574
 39   -4.477274 -0.789221 -0.687584 0.010391 0.022950 -0.091628
 40   1.075131 -3.430237 3.237290 -0.003852 -0.007302 0.030059
 41   -4.293211 -0.891156 1.018162 0.001126 0.002241 -0.009115
 42   -0.583247 1.685583 -2.415168 0.067401 0.104998 -0.010163
 43   -0.660162 1.663421 2.627182 -0.079075 -0.119049 0.020535
time 15
  0   -0.756603 -0.917997 1.434009 0.000000 0.000000 -1.571069
  1   -1.093036 0.000002 -0.326057 -1.569027 -1.622749 -0.001768
  2   2.262337 0.113614 0.064702 -0.000014 0.000025 0.034286
  3   2.380047 0.353302 0.047440 0.000000 -0.000675 -0.247866
  4   2.033756 0.190472 -0.000128 -0.166860 0.050851 -0.248861
  5   2.451511 0.204909 -0.003447 -0.122009 0.088564 -0.280555
  6   7.247600 -0.397300 -0.109469 0.004759 0.006601 0.554775
  7   -2.022252 -0.104661 3.136172 1.198614 -1.042370 -4.847414
  8   1.168026 -0.537438 -0.063437 -0.379005 0.619938 -0.874132
  9   6.790376 -0.619176 0.015206 -0.169981 -0.234209 -0.783127
 10   8.637599 0.544015 -0.090417 -3.909027 0.079622 -0.324295
 11   6.790465 -0.619039 0.017802 -0.137856 -0.163015 -0.564377
 12   -2.022474 -0.104699 -2.873818 -2.322312 1.787203 -6.032718
 13   1.167898 -0.537463 0.063297 -0.849249 -1.024155 0.148825
 14   7.002743 -0.617765 -0.183752 0.000059 0.000137 -1.868171
 15   8.209042 0.615527 -0.255885 1.723531 0.380958 0.010096
 16   7.002735 -0.617911 -0.183641 0.012978 0.010356 -1.326494
 17   1.574674 0.609930 -0.000899 0.262942 -0.169660 -0.316209
 18   -0.602177 0.511412 -0.000006 0.000000 0.000000 0.000000
 19   3.673773 0.177020 1.119313 -0.000002 -0.000014 -0.174510
 20   3.677673 0.176993 -1.117566 0.000007 -0.000003 -0.174546
 21   2.899356 1.190005 1.518280 0.000002 -0.000011 -0.000026
 22   -0.226528 -0.758005 0.473551 0.000194 -0.057471 0.890061
 23   2.914999 1.182217 -1.611551 0.000019 0.000002 -0.000024
 24   -0.074270 -0.562670 -0.551668 0.000187 -0.057496 0.890104
 25   4.117120 1.989525 1.648862 -0.064423 0.440701 0.014429
 26   4.117138 1.989553 -1.609878 0.071535 -0.408734 -0.041706
 27   3.305099 1.322380 1.487156 -0.000019 -0.000022 -0.000050
 28   3.307528 1.321986 -1.528487 -0.000002 -0.000009 -0.000024
 29   8.824059 0.150544 0.091743 0.078791 -0.031921 0.063073
 30   2.173587 -0.553366 1.643691 -0.002123 0.152121 0.010167
 31   2.218949 -0.557383 -1.752033 0.000398 -0.201410 0.011279
 32   -0.814395 -0.093824 3.127092 0.306543 -2.960243 -0.283416
 33   14.298673 -0.408176 0.471578 0.008673 -0.089106 -0.442912
 34   15.835795 0.581398 0.242756 -0.301018 -0.209286 0.232195
 35   -0.815868 -0.091229 -3.114430 -0.036865 2.852969 0.081941
 36   14.294526 -0.410349 -0.467541 -0.005169 0.076989 -0.371478
 37   15.834409 0.579420 -0.284600 0.273779 0.212841 0.401598
 38   1.186561 -3.473281 -2.823813 0.008209 -0.006122 0.018818
 39   -4.477274 -0.789221 -0.683678 0.010522 0.023250 -0.092806
 40   1.071225 -3.430237 3.237290 -0.003915 -0.007386 0.030425
 41   -4.293211 -0.891156 1.018162 0.001138 0.002265 -0.009227
 42   -0.583247 1.685583 -2.411262 0.068276 0.106362 -0.010288
 43   -0.660162 1.663421 2.623276 -0.080100 -0.120587 0.020786
time 16
  0   -0.756603 -0.917997 1.398851 0.000000 0.000000 -1.571069
  1   -1.093036 0.000002 -0.326057 -1.569027 -1.622749 -0.001768
  2   2.262337 0.113614 0.064702 -0.000014 0.000025 0.034286
  3   2.380047 0.353302 0.047440 0.000000 -0.000927 -0.248560
  4   2.033756 0.190472 -0.000128 -0.167192 0.051438 -0.244584
  5   2.451511 0.204909 -0.003447 -0.122009 0.089635 -0.273992
  6   7.247600 -0.397300 -0.109469 0.002230 0.003329 0.512804
  7   -2.022252 -0.104661 3.136172 1.205516 -1.044128 -4.812008
  8   1.168026 -0.537438 -0.063437 -0.375209 0.606806 -0.866414
  9   6.790376 -0.619176 0.015206 -0.169981 -0.234209 -0.788334
 10   8.637599 0.544015 -0.090417 -3.909907 0.081381 -0.322342
 11   6.790465 -0.619039 0.017802 -0.138002 -0.162959 -0.567953
 12   -2.022474 -0.104699 -2.873818 -2.382767 1.800496 0.231048
 13   1.167898 -0.537463 0.063297 -0.819092 -1.017036 0.118497
 14   7.002743 -0.617765 -0.183752 0.000059 0.000137 -1.867923
 15   8.209042 0.615527 -0.255885 1.725041 0.379067 0.014606
 16   7.002735 -0.617911 -0.183641 0.012978 0.010300 -1.326218
 17   1.574674 0.609930 -0.000899 0.265014 -0.165400 -0.284977
 18   -0.602177 0.511412 -0.000006 0.000000 0.000000 0.000000
 19   3.658147 0.270773 1.119313 -0.000002 -0.000014 -0.174510
 20   3.662047 0.270746 -1.117566 0.000007 -0.000003 -0.174546
 21   3.352495 1.260319 1.572969 0.000002 -0.000011 -0.000026
 22   -0.238247 -0.382994 0.496989 0.000099 -0.028720 0.445010
 23   3.360325 1.256438 -1.623270 0.000019 0.000002 -0.000024
 24   -0.160210 -0.285318 -0.532136 0.000091 -0.028745 0.445076
 25   4.531195 1.993432 1.637143 -0.032209 0.220350 0.007203
 26   4.531213 1.993460 -1.621597 0.035761 -0.204352 -0.020865
 27   3.117593 1.463010 1.502782 -0.000019 -0.000022 -0.000050
 28   3.120023 1.462616 -1.512861 -0.000002 -0.000009 -0.000024
 29   8.824059 0.150544 0.091743 0.077811 -0.031399 0.060069
 30   2.173587 -0.553366 1.647597 -0.002096 0.150174 0.010038
 31   2.218949 -0.557383 -1.755940 0.000398 -0.198845 0.011134
 32   -0.814395 -0.093824 3.127092 0.307195 -2.961293 -0.286774
 33   14.298673 -0.408176 0.471578 0.009284 -0.089054 -0.449899
 34   15.835795 0.581398 0.242756 -0.302421 -0.207187 0.239031
 35   -0.815868 -0.091229 -3.114430 -0.037921 2.853063 0.078381
 36   14.294526 -0.410349 -0.467541 -0.005696 0.076953 -0.378430
 37   15.834409 0.579420 -0.284600 0.273779 0.212841 0.401598
 38   1.182655 -3.473281 -2.823813 0.008104 -0.006049 0.018574
 39   -4.477274 -0.789221 -0.687584 0.010391 0.022950 -0.091628
 40   1.075131 -3.430237 3.237290 -0.003852 -0.007302 0.030059
 41   -4.293211 -0.891156 1.018162 0.001126 0.002241 -0.009115
 42   -0.583247 1.685583 -2.415168 0.067401 0.104998 -0.010163
 43   -0.660162 1.663421 2.627182 -0.079075 -0.119049 0.020535
time 17
  0   -0.756603 -0.917997 1.355881 0.000000 0.000000 -1.571069
  1   -1.093036 0.000002 -0.326057 -1.569027 -1.622749 -0.001768
  2   2.262337 0.113614 0.064702 -0.000014 0.000025 0.034286
  3   2.380047 0.353302 0.047440 0.000000 -0.000759 -0.248070
  4   2.033756 0.190472 -0.000128 -0.167247 0.051510 -0.244112
  5   2.451511 0.204909 -0.003447 -0.122009 0.089765 -0.273076
  6   7.247600 -0.397300 -0.109469 0.000001 -0.000003 0.470960
  7   -2.022252 -0.104661 3.136172 1.212897 -1.046089 -4.775944
  8   1.168026 -0.537438 -0.063437 -0.373437 0.602681 -0.861796
  9   6.790376 -0.619176 0.015206 -0.169981 -0.234209 -0.786372
 10   8.637599 0.544015 -0.090417 -3.909907 0.082789 -0.324729
 11   6.790465 -0.619039 0.017802 -0.137973 -0.162959 -0.566627
 12   -2.022474 -0.104699 -2.873818 -2.438431 1.815124 0.215921
 13   1.167898 -0.537463 0.063297 -0.803767 -1.006458 0.102637
 14   7.002743 -0.617765 -0.183752 0.000059 0.000137 -1.867263
 15   8.209042 0.615527 -0.255885 1.726479 0.377024 0.019357
 16   7.002735 -0.617911 -0.183641 0.012978 0.010300 -1.325776
 17   1.574674 0.609930 -0.000899 0.266476 -0.161447 -0.245170
 18   -0.602177 0.511412 -0.000006 0.000000 0.000000 0.000000
 19   3.646428 0.364526 1.119313 -0.000002 -0.000014 -0.174510
 20   3.646422 0.364499 -1.117566 0.000007 -0.000003 -0.174546
 21   3.805634 1.330634 1.627658 0.000002 -0.000011 -0.000026
 22   -0.246060 -0.011889 0.516521 -0.000011 0.000031 0.000025
 23   3.805651 1.330659 -1.631083 0.000019 0.000002 -0.000024
 24   -0.246150 -0.011872 -0.516511 -0.000005 -0.000006 0.000048
 25   4.941364 1.997338 1.629330 0.000018 -0.000001 -0.000024
 26   4.941382 1.997366 -1.629410 -0.000001 0.000005 -0.000024
 27   2.930087 1.603639 1.514501 -0.000019 -0.000022 -0.000050
 28   2.932517 1.603245 -1.501142 -0.000002 -0.000009 -0.000024
 29   8.824059 0.150544 0.091743 0.075137 -0.029951 0.051593
 30   2.169681 -0.553366 1.651503 -0.002015 0.144681 0.009673
 31   2.215043 -0.557383 -1.759846 0.000383 -0.191619 0.010733
 32   -0.814395 -0.093824 3.127092 0.307662 -2.962344 -0.290132
 33   14.298673 -0.408176 0.471578 0.009907 -0.088990 -0.456886
 34   15.835795 0.581398 0.242756 -0.303801 -0.205113 0.245735
 35   -0.815868 -0.091229 -3.114430 -0.038978 2.853251 0.074656
 36   14.294526 -0.410349 -0.467541 -0.006223 0.076917 -0.385382
 37   15.834409 0.579420 -0.284600 0.273779 0.212841 0.401598
 38   1.182655 -3.473281 -2.823813 0.007809 -0.005820 0.017902
 39   -4.477274 -0.800940 -0.687584 0.010007 0.022112 -0.088291
 40   1.075131 -3.430237 3.237290 -0.003726 -0.007037 0.028959
 41   -4.301023 -0.898969 1.014255 0.001078 0.002157 -0.008779
 42   -0.587153 1.685583 -2.422981 0.064956 0.101195 -0.009786
 43   -0.660162 1.667327 2.634995 -0.076214 -0.114734 0.019782
time 18
  0   -0.756603 -0.917997 1.328537 0.000000 0.000000 -1.571069
  1   -1.093036 0.000002 -0.326057 -1.569027 -1.622749 -0.001768
  2   2.262337 0.113614 0.064702 -0.000014 0.000025 0.034286
  3   2.380047 0.353302 0.047440 0.000000 -0.000436 -0.247009
  4   2.033756 0.190472 -0.000128 -0.167155 0.051246 -0.245635
  5   2.451511 0.204909 -0.003447 -0.122009 0.089347 -0.275577
  6   7.247600 -0.397300 -0.109469 0.000001 -0.000003 0.470960
  7   -2.022252 -0.104661 3.136172 1.212897 -1.046089 -4.775944
  8   1.168026 -0.537438 -0.063437 -0.373437 0.604593 -0.860594
  9   6.790376 -0.619176 0.015206 -0.169981 -0.234209 -0.781391
 10   8.637599 0.544015 -0.090417 -3.909907 0.083563 -0.329070
 11   6.790465 -0.619039 0.017802 -0.137827 -0.163015 -0.563166
 12   -2.022474 -0.104699 -2.873818 -2.468801 1.824383 0.184805
 13   1.167898 -0.537463 0.063297 -0.799760 -0.996745 0.098339
 14   7.002743 -0.617765 -0.183752 0.000059 0.000137 -1.866933
 15   8.209042 0.615527 -0.255885 1.727486 0.375284 0.023026
 16   7.002735 -0.617911 -0.183641 0.012978 0.010300 -1.325500
 17   1.574674 0.609930 -0.000899 0.266273 -0.161589 -0.242214
 18   -0.602177 0.511412 -0.000006 0.000000 0.000000 0.000000
 19   3.646428 0.364526 1.119313 -0.000002 -0.000014 -0.174510
 20   3.646422 0.364499 -1.117566 0.000007 -0.000003 -0.174546
 21   3.805634 1.330634 1.627658 0.000002 -0.000011 -0.000026
 22   -0.246060 -0.011889 0.516521 -0.000011 0.000031 0.000025
 23   3.805651 1.330659 -1.631083 0.000019 0.000002 -0.000024
 24   -0.246150 -0.011872 -0.516511 -0.000005 -0.000006 0.000048
 25   4.941364 1.997338 1.629330 0.000018 -0.000001 -0.000024
 26   4.941382 1.997366 -1.629410 -0.000001 0.000005 -0.000024
 27   2.930087 1.603639 1.514501 -0.000019 -0.000022 -0.000050
 28   2.932517 1.603245 -1.501142 -0.000002 -0.000009 -0.000024
 29   8.824059 0.150544 0.091743 0.070948 -0.027767 0.038503
 30   2.165774 -0.553366 1.659316 -0.001893 0.136225 0.009116
 31   2.207230 -0.557383 -1.763752 0.000352 -0.180455 0.010096
 32   -0.814395 -0.093824 3.127092 0.308314 -2.963203 -0.292808
 33   14.298673 -0.408176 0.471578 0.010423 -0.088912 -0.462603
 34   15.835795 0.581398 0.242756 -0.304928 -0.203429 0.251292
 35   -0.815868 -0.091229 -3.114430 -0.039858 2.853344 0.071753
 36   14.294526 -0.410349 -0.467541 -0.006679 0.076881 -0.391098
 37   15.834409 0.579420 -0.284600 0.273779 0.212841 0.401598
 38   1.178749 -3.469374 -2.823813 0.007367 -0.005483 0.016863
 39   -4.473368 -0.816566 -0.691491 0.009432 0.020829 -0.083158
 40   1.079037 -3.434144 3.237290 -0.003494 -0.006627 0.027309
 41   -4.308836 -0.906782 1.010349 0.001018 0.002025 -0.008274
 42   -0.591060 1.689489 -2.438606 0.061169 0.095292 -0.009201
 43   -0.660162 1.667327 2.650620 -0.071766 -0.108049 0.018611
time 19
  0   -0.756603 -0.917997 1.305098 0.000000 0.000000 -1.571069
  1   -1.093036 0.000002 -0.326057 -1.569027 -1.622749 -0.001768
  2   2.262337 0.113614 0.064702 -0.000014 0.000025 0.034286
  3   2.380047 0.353302 0.047440 0.000000 -0.000136 -0.245907
  4   2.033756 0.190472 -0.000128 -0.166952 0.050971 -0.247846
  5   2.451511 0.204909 -0.003447 -0.122009 0.088864 -0.278871
  6   7.247600 -0.397300 -0.109469 0.000001 -0.000003 0.470960
  7   -2.022252 -0.104661 3.136172 1.212897 -1.046089 -4.775944
  8   1.168026 -0.537438 -0.063437 -0.374512 0.609071 -0.862049
  9   6.790376 -0.619176 0.015206 -0.169981 -0.234209 -0.777014
 10   8.637599 0.544015 -0.090417 -3.909907 0.083352 -0.331819
 11   6.790465 -0.619039 0.017802 -0.137710 -0.163101 -0.560052
 12   -2.022474 -0.104699 -2.873818 -2.473975 1.826124 0.179539
 13   1.167898 -0.537463 0.063297 -0.805454 -0.993897 0.103787
 14   7.002743 -0.617765 -0.183752 0.000059 0.000137 -1.866933
 15   8.209042 0.615527 -0.255885 1.727630 0.375057 0.023687
 16   7.002735 -0.617911 -0.183641 0.012978 0.010300 -1.325445
 17   1.574674 0.609930 -0.000899 0.265745 -0.161779 -0.237778
 18   -0.602177 0.511412 -0.000006 0.000000 0.000000 0.000000
 19   3.646428 0.364526 1.119313 -0.000002 -0.000014 -0.174510
 20   3.646422 0.364499 -1.117566 0.000007 -0.000003 -0.174546
 21   3.805634 1.330634 1.627658 0.000002 -0.000011 -0.000026
 22   -0.246060 -0.011889 0.516521 -0.000011 0.000031 0.000025
 23   3.805651 1.330659 -1.631083 0.000019 0.000002 -0.000024
 24   -0.246150 -0.011872 -0.516511 -0.000005 -0.000006 0.000048
 25   4.941364 1.997338 1.629330 0.000018 -0.000001 -0.000024
 26   4.941382 1.997366 -1.629410 -0.000001 0.000005 -0.000024
 27   2.930087 1.603639 1.514501 -0.000019 -0.000022 -0.000050
 28   2.932517 1.603245 -1.501142 -0.000002 -0.000009 -0.000024
 29   8.824059 0.150544 0.091743 0.065601 -0.025013 0.021603
 30   2.161868 -0.553366 1.671035 -0.001744 0.125327 0.008387
 31   2.199417 -0.557383 -1.771565 0.000337 -0.166080 0.009296
 32   -0.814395 -0.093824 3.127092 0.308594 -2.963776 -0.294629
 33   14.298673 -0.408176 0.471578 0.010734 -0.088886 -0.466176
 34   15.835795 0.581398 0.242756 -0.305687 -0.202355 0.254864
 35   -0.815868 -0.091229 -3.114430 -0.040298 2.853344 0.069945
 36   14.294526 -0.410349 -0.467541 -0.006942 0.076857 -0.394652
 37   15.834409 0.579420 -0.284600 0.273779 0.212841 0.401598
 38   1.178749 -3.469374 -2.823813 0.006778 -0.005049 0.015519
 39   -4.473368 -0.836097 -0.695397 0.008677 0.019163 -0.076511
 40   1.079037 -3.434144 3.237290 -0.003221 -0.006097 0.025110
 41   -4.316648 -0.918501 1.006442 0.000934 0.001870 -0.007629
 42   -0.594966 1.689489 -2.458138 0.056304 0.087703 -0.008490
 43   -0.660162 1.671233 2.666246 -0.066044 -0.099435 0.017147
time 20
  0   -0.756603 -0.917997 1.297286 0.000000 0.000000 -1.571069
  1   -1.093036 0.000002 -0.326057 -1.569027 -1.622749 -0.001768
  2   2.262337 0.113614 0.064702 -0.000014 0.000025 0.034286
  3   2.380047 0.353302 0.047440 0.000000 -0.000028 -0.245397
  4   2.033756 0.190472 -0.000128 -0.166860 0.050851 -0.248861
  5   2.451511 0.204909 -0.003447 -0.122009 0.088564 -0.280555
  6   7.247600 -0.397300 -0.109469 0.000001 -0.000003 0.470960
  7   -2.022252 -0.104661 3.136172 1.212897 -1.046089 -4.775944
  8   1.168026 -0.537438 -0.063437 -0.375209 0.611939 -0.863947
  9   6.790376 -0.619176 0.015206 -0.169981 -0.234209 -0.775354
 10   8.637599 0.544015 -0.090417 -3.909819 0.083071 -0.332832
 11   6.790465 -0.619039 0.017802 -0.137681 -0.163101 -0.558898
 12   -2.022474 -0.104699 -2.873818 -2.468801 1.824383 0.184805
 13   1.167898 -0.537463 0.063297 -0.810867 -0.994812 0.109235
 14   7.002743 -0.617765 -0.183752 0.000059 0.000137 -1.866933
 15   8.209042 0.615527 -0.255885 1.727486 0.375284 0.023026
 16   7.002735 -0.617911 -0.183641 0.012978 0.010300 -1.325500
 17   1.574674 0.609930 -0.000899 0.265501 -0.161802 -0.235524
 18   -0.602177 0.511412 -0.000006 0.000000 0.000000 0.000000
 19   3.646428 0.364526 1.119313 -0.000002 -0.000014 -0.174510
 20   3.646422 0.364499 -1.117566 0.000007 -0.000003 -0.174546
 21   3.805634 1.330634 1.627658 0.000002 -0.000011 -0.000026
 22   -0.246060 -0.011889 0.516521 -0.000011 0.000031 0.000025
 23   3.805651 1.330659 -1.631083 0.000019 0.000002 -0.000024
 24   -0.246150 -0.011872 -0.516511 -0.000005 -0.000006 0.000048
 25   4.941364 1.997338 1.629330 0.000018 -0.000001 -0.000024
 26   4.941382 1.997366 -1.629410 -0.000001 0.000005 -0.000024
 27   2.930087 1.603639 1.514501 -0.000019 -0.000022 -0.000050
 28   2.932517 1.603245 -1.501142 -0.000002 -0.000009 -0.000024
 29   8.824059 0.150544 0.091743 0.059095 -0.021928 0.001754
 30   2.157961 -0.553366 1.682754 -0.001567 0.112511 0.007529
 31   2.191605 -0.557383 -1.779378 0.000291 -0.149192 0.008350
 32   -0.814395 -0.093824 3.127092 0.308687 -2.963967 -0.295198
 33   14.298673 -0.408176 0.471578 0.010842 -0.088873 -0.467446
 34   15.835795 0.581398 0.242756 -0.305894 -0.201989 0.256011
 35   -0.815868 -0.091229 -3.114430 -0.040474 2.853438 0.069178
 36   14.294526 -0.410349 -0.467541 -0.007038 0.076845 -0.395888
 37   15.834409 0.579420 -0.284600 0.273779 0.212841 0.401598
 38   1.170936 -3.469374 -2.823813 0.006083 -0.004531 0.013931
 39   -4.473368 -0.855629 -0.703210 0.007790 0.017222 -0.068742
 40   1.086850 -3.434144 3.237290 -0.002884 -0.005470 0.022544
 41   -4.328368 -0.934126 1.002536 0.000838 0.001678 -0.006843
 42   -0.602779 1.689489 -2.481576 0.050575 0.078779 -0.007612
 43   -0.660162 1.675140 2.685778 -0.059334 -0.089329 0.015391
time 21
  0   -0.756603 -0.917997 1.297286 0.000000 0.000000 -1.571069
  1   -1.093036 0.000002 -0.326057 -1.569027 -1.622749 -0.001768
  2   2.262337 0.113614 0.064702 -0.000014 0.000025 0.034286
  3   2.380047 0.353302 0.047440 0.000000 -0.000028 -0.245397
  4   2.033756 0.190472 -0.000128 -0.166860 0.050851 -0.248861
  5   2.451511 0.204909 -0.003447 -0.122009 0.088564 -0.280555
  6   7.247600 -0.397300 -0.109469 0.000001 -0.000003 0.470960
  7   -2.022252 -0.104661 3.136172 1.212897 -1.046089 -4.775944
  8   1.168026 -0.537438 -0.063437 -0.375209 0.611939 -0.863947
  9   6.790376 -0.619176 0.015206 -0.169981 -0.234209 -0.775354
 10   8.637599 0.544015 -0.090417 -3.909819 0.083071 -0.332832
 11   6.790465 -0.619039 0.017802 -0.137681 -0.163101 -0.558898
 12   -2.022474 -0.104699 -2.873818 -2.468801 1.824383 0.184805
 13   1.167898 -0.537463 0.063297 -0.810867 -0.994812 0.109235
 14   7.002743 -0.617765 -0.183752 0.000059 0.000137 -1.866933
 15   8.209042 0.615527 -0.255885 1.727486 0.375284 0.023026
 16   7.002735 -0.617911 -0.183641 0.012978 0.010300 -1.325500
 17   1.574674 0.609930 -0.000899 0.265501 -0.161802 -0.235524
 18   -0.602177 0.511412 -0.000006 0.000000 0.000000 0.000000
 19   3.646428 0.364526 1.119313 -0.000002 -0.000014 -0.174510
 20   3.646422 0.364499 -1.117566 0.000007 -0.000003 -0.174546
 21   3.805634 1.330634 1.627658 0.000002 -0.000011 -0.000026
 22   -0.246060 -0.011889 0.516521 -0.000011 0.000031 0.000025
 23   3.805651 1.330659 -1.631083 0.000019 0.000002 -0.000024
 24   -0.246150 -0.011872 -0.516511 -0.000005 -0.000006 0.000048
 25   4.941364 1.997338 1.629330 0.000018 -0.000001 -0.000024
 26   4.941382 1.997366 -1.629410 -0.000001 0.000005 -0.000024
 27   2.930087 1.603639 1.514501 -0.000019 -0.000022 -0.000050
 28   2.932517 1.603245 -1.501142 -0.000002 -0.000009 -0.000024
 29   8.824059 0.150544 0.091743 0.051965 -0.018628 -0.020242
 30   2.150149 -0.557273 1.694474 -0.001378 0.098329 0.006607
 31   2.183792 -0.557383 -1.791097 0.000260 -0.130517 0.007313
 32   -0.814395 -0.093824 3.127092 0.308687 -2.963967 -0.295198
 33   14.298673 -0.408176 0.471578 0.010842 -0.088873 -0.467446
 34   15.835795 0.581398 0.242756 -0.305894 -0.201989 0.256011
 35   -0.815868 -0.091229 -3.114430 -0.040474 2.853438 0.069178
 36   14.294526 -0.410349 -0.467541 -0.007038 0.076845 -0.395888
 37   15.834409 0.579420 -0.284600 0.273779 0.212841 0.401598
 38   1.167030 -3.465468 -2.823813 0.005325 -0.003965 0.012159
 39   -4.469461 -0.882974 -0.707116 0.006819 0.015065 -0.060132
 40   1.090756 -3.438050 3.237290 -0.002526 -0.004783 0.019734
 41   -4.343993 -0.949752 0.994723 0.000730 0.001462 -0.005974
 42   -0.610592 1.689489 -2.508921 0.044235 0.068921 -0.006650
 43   -0.660162 1.675140 2.709216 -0.051900 -0.078141 0.013467
time 22
  0   -0.756603 -0.917997 1.297286 0.000000 0.000000 -1.571069
  1   -1.093036 0.000002 -0.326057 -1.569027 -1.622749 -0.001768
  2   2.262337 0.113614 0.064702 -0.000014 0.000025 0.034286
  3   2.380047 0.353302 0.047440 0.000000 -0.000028 -0.245397
  4   2.033756 0.190472 -0.000128 -0.166860 0.050851 -0.248861
  5   2.451511 0.204909 -0.003447 -0.122009 0.088564 -0.280555
  6   7.247600 -0.397300 -0.109469 0.000001 -0.000003 0.470960
  7   -2.022252 -0.104661 3.136172 1.212897 -1.046089 -4.775944
  8   1.168026 -0.537438 -0.063437 -0.375209 0.611939 -0.863947
  9   6.790376 -0.619176 0.015206 -0.169981 -0.234209 -0.775354
 10   8.637599 0.544015 -0.090417 -3.909819 0.083071 -0.332832
 11   6.790465 -0.619039 0.017802 -0.137681 -0.163101 -0.558898
 12   -2.022474 -0.104699 -2.873818 -2.468801 1.824383 0.184805
 13   1.167898 -0.537463 0.063297 -0.810867 -0.994812 0.109235
 14   7.002743 -0.617765 -0.183752 0.000059 0.000137 -1.866933
 15   8.209042 0.615527 -0.255885 1.727486 0.375284 0.023026
 16   7.002735 -0.617911 -0.183641 0.012978 0.010300 -1.325500
 17   1.574674 0.609930 -0.000899 0.265501 -0.161802 -0.235524
 18   -0.602177 0.511412 -0.000006 0.000000 0.000000 0.000000
 19   3.646428 0.364526 1.119313 -0.000002 -0.000014 -0.174510
 20   3.646422 0.364499 -1.117566 0.000007 -0.000003 -0.174546
 21   3.805634 1.330634 1.627658 0.000002 -0.000011 -0.000026
 22   -0.246060 -0.011889 0.516521 -0.000011 0.000031 0.000025
 23   3.805651 1.330659 -1.631083 0.000019 0.000002 -0.000024
 24   -0.246150 -0.011872 -0.516511 -0.000005 -0.000006 0.000048
 25   4.941364 1.997338 1.629330 0.000018 -0.000001 -0.000024
 26   4.941382 1.997366 -1.629410 -0.000001 0.000005 -0.000024
 27   2.930087 1.603639 1.514501 -0.000019 -0.000022 -0.000050
 28   2.932517 1.603245 -1.501142 -0.000002 -0.000009 -0.000024
 29   8.824059 0.150544 0.091743 0.044211 -0.015328 -0.043579
 30   2.146242 -0.557273 1.710099 -0.001161 0.083334 0.005599
 31   2.172073 -0.561289 -1.798910 0.000215 -0.110755 0.006203
 32   -0.814395 -0.093824 3.127092 0.308687 -2.963967 -0.295198
 33   14.298673 -0.408176 0.471578 0.010842 -0.088873 -0.467446
 34   15.835795 0.581398 0.242756 -0.305894 -0.201989 0.256011
 35   -0.815868 -0.091229 -3.114430 -0.040474 2.853438 0.069178
 36   14.294526 -0.410349 -0.467541 -0.007038 0.076845 -0.395888
 37   15.834409 0.579420 -0.284600 0.273779 0.212841 0.401598
 38   1.163123 -3.465468 -2.823813 0.004505 -0.003362 0.010326
 39   -4.469461 -0.910318 -0.714929 0.005789 0.012776 -0.051017
 40   1.094663 -3.438050 3.237290 -0.002147 -0.004060 0.016740
 41   -4.355712 -0.965377 0.990817 0.000622 0.001246 -0.005076
 42   -0.618404 1.693396 -2.536265 0.037548 0.058479 -0.005646
 43   -0.664068 1.679046 2.736560 -0.044042 -0.066310 0.011418
time 23
  0   -0.756603 -0.917997 1.297286 0.000000 0.000000 -1.571069
  1   -1.093036 0.000002 -0.326057 -1.569027 -1.622749 -0.001768
  2   2.262337 0.113614 0.064702 -0.000014 0.000025 0.034286
  3   2.380047 0.353302 0.047440 0.000000 -0.000028 -0.245397
  4   2.033756 0.190472 -0.000128 -0.166860 0.050851 -0.248861
  5   2.451511 0.204909 -0.003447 -0.122009 0.088564 -0.280555
  6   7.247600 -0.397300 -0.109469 0.000001 -0.000003 0.470960
  7   -2.022252 -0.104661 3.136172 1.212897 -1.046089 -4.775944
  8   1.168026 -0.537438 -0.063437 -0.375209 0.611939 -0.863947
  9   6.790376 -0.619176 0.015206 -0.169981 -0.234209 -0.775354
 10   8.637599 0.544015 -0.090417 -3.909819 0.083071 -0.332832
 11   6.790465 -0.619039 0.017802 -0.137681 -0.163101 -0.558898
 12   -2.022474 -0.104699 -2.873818 -2.468801 1.824383 0.184805
 13   1.167898 -0.537463 0.063297 -0.810867 -0.994812 0.109235
 14   7.002743 -0.617765 -0.183752 0.000059 0.000137 -1.866933
 15   8.209042 0.615527 -0.255885 1.727486 0.375284 0.023026
 16   7.002735 -0.617911 -0.183641 0.012978 0.010300 -1.325500
 17   1.574674 0.609930 -0.000899 0.265501 -0.161802 -0.235524
 18   -0.602177 0.511412 -0.000006 0.000000 0.000000 0.000000
 19   3.646428 0.364526 1.119313 -0.000002 -0.000014 -0.174510
 20   3.646422 0.364499 -1.117566 0.000007 -0.000003 -0.174546
 21   3.805634 1.330634 1.627658 0.000002 -0.000011 -0.000026
 22   -0.246060 -0.011889 0.516521 -0.000011 0.000031 0.000025
 23   3.805651 1.330659 -1.631083 0.000019 0.000002 -0.000024
 24   -0.246150 -0.011872 -0.516511 -0.000005 -0.000006 0.000048
 25   4.941364 1.997338 1.629330 0.000018 -0.000001 -0.000024
 26   4.941382 1.997366 -1.629410 -0.000001 0.000005 -0.000024
 27   2.930087 1.603639 1.514501 -0.000019 -0.000022 -0.000050
 28   2.932517 1.603245 -1.501142 -0.000002 -0.000009 -0.000024
 29   8.824059 0.150544 0.091743 0.036368 -0.012147 -0.067345
 30   2.138430 -0.557273 1.721818 -0.000957 0.068076 0.004591
 31   2.164260 -0.561289 -1.810629 0.000184 -0.090655 0.005075
 32   -0.814395 -0.093824 3.127092 0.308687 -2.963967 -0.295198
 33   14.298673 -0.408176 0.471578 0.010842 -0.088873 -0.467446
 34   15.835795 0.581398 0.242756 -0.305894 -0.201989 0.256011
 35   -0.815868 -0.091229 -3.114430 -0.040474 2.853438 0.069178
 36   14.294526 -0.410349 -0.467541 -0.007038 0.076845 -0.395888
 37   15.834409 0.579420 -0.284600 0.273779 0.212841 0.401598
 38   1.159217 -3.461562 -2.823813 0.003684 -0.002748 0.008432
 39   -4.465555 -0.933757 -0.718835 0.004734 0.010463 -0.041761
 40   1.098569 -3.441956 3.237290 -0.001747 -0.003325 0.013685
 41   -4.371338 -0.984909 0.983004 0.000502 0.001019 -0.004151
 42   -0.626217 1.693396 -2.563610 0.030728 0.047869 -0.004600
 43   -0.664068 1.682953 2.759999 -0.036045 -0.054275 0.009326
time 24
  0   -0.756603 -0.917997 1.297286 0.000000 0.000000 -1.571069
  1   -1.093036 0.000002 -0.326057 -1.569027 -1.622749 -0.001768
  2   2.262337 0.113614 0.064702 -0.000014 0.000025 0.034286
  3   2.380047 0.353302 0.047440 0.000000 -0.000028 -0.245397
  4   2.033756 0.190472 -0.000128 -0.166860 0.050851 -0.248861
  5   2.451511 0.204909 -0.003447 -0.122009 0.088564 -0.280555
  6   7.247600 -0.397300 -0.109469 0.000001 -0.000003 0.470960
  7   -2.022252 -0.104661 3.136172 1.212897 -1.046089 -4.775944
  8   1.168026 -0.537438 -0.063437 -0.375209 0.611939 -0.863947
  9   6.790376 -0.619176 0.015206 -0.169981 -0.234209 -0.775354
 10   8.637599 0.544015 -0.090417 -3.909819 0.083071 -0.332832
 11   6.790465 -0.619039 0.017802 -0.137681 -0.163101 -0.558898
 12   -2.022474 -0.104699 -2.873818 -2.468801 1.824383 0.184805
 13   1.167898 -0.537463 0.063297 -0.810867 -0.994812 0.109235
 14   7.002743 -0.617765 -0.183752 0.000059 0.000137 -1.866933
 15   8.209042 0.615527 -0.255885 1.727486 0.375284 0.023026
 16   7.002735 -0.617911 -0.183641 0.012978 0.010300 -1.325500
 17   1.574674 0.609930 -0.000899 0.265501 -0.161802 -0.235524
 18   -0.602177 0.511412 -0.000006 0.000000 0.000000 0.000000
 19   3.646428 0.364526 1.119313 -0.000002 -0.000014 -0.174510
 20   3.646422 0.364499 -1.117566 0.000007 -0.000003 -0.174546
 21   3.805634 1.330634 1.627658 0.000002 -0.000011 -0.000026
 22   -0.246060 -0.011889 0.516521 -0.000011 0.000031 0.000025
 23   3.805651 1.330659 -1.631083 0.000019 0.000002 -0.000024
 24   -0.246150 -0.011872 -0.516511 -0.000005 -0.000006 0.000048
 25   4.941364 1.997338 1.629330 0.000018 -0.000001 -0.000024
 26   4.941382 1.997366 -1.629410 -0.000001 0.000005 -0.000024
 27   2.930087 1.603639 1.514501 -0.000019 -0.000022 -0.000050
 28   2.932517 1.603245 -1.501142 -0.000002 -0.000009 -0.000024
 29   8.824059 0.150544 0.091743 0.028525 -0.009228 -0.090682
 30   2.130617 -0.561179 1.737444 -0.000740 0.053081 0.003584
 31   2.152541 -0.561289 -1.818442 0.000138 -0.070892 0.003965
 32   -0.814395 -0.093824 3.127092 0.308687 -2.963967 -0.295198
 33   14.298673 -0.408176 0.471578 0.010842 -0.088873 -0.467446
 34   15.835795 0.581398 0.242756 -0.305894 -0.201989 0.256011
 35   -0.815868 -0.091229 -3.114430 -0.040474 2.853438 0.069178
 36   14.294526 -0.410349 -0.467541 -0.007038 0.076845 -0.395888
 37   15.834409 0.579420 -0.284600 0.273779 0.212841 0.401598
 38   1.155311 -3.457655 -2.823813 0.002884 -0.002157 0.006599
 39   -4.461648 -0.961101 -0.726648 0.003703 0.008173 -0.032646
 40   1.102476 -3.445863 3.237290 -0.001368 -0.002602 0.010692
 41   -4.386963 -1.000534 0.979098 0.000394 0.000791 -0.003253
 42   -0.634030 1.693396 -2.590955 0.024029 0.037428 -0.003597
 43   -0.664068 1.686859 2.783437 -0.028187 -0.042443 0.007319
time 25
  0   -0.756603 -0.917997 1.297286 0.000000 0.000000 -1.571069
  1   -1.093036 0.000002 -0.326057 -1.569027 -1.622749 -0.001768
  2   2.262337 0.113614 0.064702 -0.000014 0.000025 0.034286
  3   2.380047 0.353302 0.047440 0.000000 -0.000028 -0.245397
  4   2.033756 0.190472 -0.000128 -0.166860 0.050851 -0.248861
  5   2.451511 0.204909 -0.003447 -0.122009 0.088564 -0.280555
  6   7.247600 -0.397300 -0.109469 0.000001 -0.000003 0.470960
  7   -2.022252 -0.104661 3.136172 1.212897 -1.046089 -4.775944
  8   1.168026 -0.537438 -0.063437 -0.375209 0.611939 -0.863947
  9   6.790376 -0.619176 0.015206 -0.169981 -0.234209 -0.775354
 10   8.637599 0.544015 -0.090417 -3.909819 0.083071 -0.332832
 11   6.790465 -0.619039 0.017802 -0.137681 -0.163101 -0.558898
 12   -2.022474 -0.104699 -2.873818 -2.468801 1.824383 0.184805
 13   1.167898 -0.537463 0.063297 -0.810867 -0.994812 0.109235
 14   7.002743 -0.617765 -0.183752 0.000059 0.000137 -1.866933
 15   8.209042 0.615527 -0.255885 1.727486 0.375284 0.023026
 16   7.002735 -0.617911 -0.183641 0.012978 0.010300 -1.325500
 17   1.574674 0.609930 -0.000899 0.265501 -0.161802 -0.235524
 18   -0.602177 0.511412 -0.000006 0.000000 0.000000 0.000000
 19   3.646428 0.364526 1.119313 -0.000002 -0.000014 -0.174510
 20   3.646422 0.364499 -1.117566 0.000007 -0.000003 -0.174546
 21   3.805634 1.330634 1.627658 0.000002 -0.000011 -0.000026
 22   -0.246060 -0.011889 0.516521 -0.000011 0.000031 0.000025
 23   3.805651 1.330659 -1.631083 0.000019 0.000002 -0.000024
 24   -0.246150 -0.011872 -0.516511 -0.000005 -0.000006 0.000048
 25   4.941364 1.997338 1.629330 0.000018 -0.000001 -0.000024
 26   4.941382 1.997366 -1.629410 -0.000001 0.000005 -0.000024
 27   2.930087 1.603639 1.514501 -0.000019 -0.000022 -0.000050
 28   2.932517 1.603245 -1.501142 -0.000002 -0.000009 -0.000024
 29   8.824059 0.150544 0.091743 0.021039 -0.006617 -0.112785
 30   2.126710 -0.561179 1.749163 -0.000550 0.038928 0.002640
 31   2.144728 -0.561289 -1.830161 0.000092 -0.052217 0.002909
 32   -0.814395 -0.093824 3.127092 0.308687 -2.963967 -0.295198
 33   14.298673 -0.408176 0.471578 0.010842 -0.088873 -0.467446
 34   15.835795 0.581398 0.242756 -0.305894 -0.201989 0.256011
 35   -0.815868 -0.091229 -3.114430 -0.040474 2.853438 0.069178
 36   14.294526 -0.410349 -0.467541 -0.007038 0.076845 -0.395888
 37   15.834409 0.579420 -0.284600 0.273779 0.212841 0.401598
 38   1.151404 -3.457655 -2.823813 0.002126 -0.001579 0.004827
 39   -4.461648 -0.988446 -0.730555 0.002721 0.006028 -0.024036
 40   1.106382 -3.445863 3.237290 -0.001010 -0.001915 0.007881
 41   -4.398683 -1.016160 0.971285 0.000287 0.000587 -0.002384
 42   -0.637936 1.697302 -2.618299 0.017701 0.027570 -0.002635
 43   -0.664068 1.690765 2.806875 -0.020765 -0.031255 0.005395
time 26
  0   -0.756603 -0.917997 1.297286 0.000000 0.000000 -1.571069
  1   -1.093036 0.000002 -0.326057 -1.569027 -1.622749 -0.001768
  2   2.262337 0.113614 0.064702 -0.000014 0.000025 0.034286
  3   2.380047 0.353302 0.047440 0.000000 -0.000028 -0.245397
  4   2.033756 0.190472 -0.000128 -0.166860 0.050851 -0.248861
  5   2.451511 0.204909 -0.003447 -0.122009 0.088564 -0.280555
  6   7.247600 -0.397300 -0.109469 0.000001 -0.000003 0.470960
  7   -2.022252 -0.104661 3.136172 1.212897 -1.046089 -4.775944
  8   1.168026 -0.537438 -0.063437 -0.375209 0.611939 -0.863947
  9   6.790376 -0.619176 0.015206 -0.169981 -0.234209 -0.775354
 10   8.637599 0.544015 -0.090417 -3.909819 0.083071 -0.332832
 11   6.790465 -0.619039 0.017802 -0.137681 -0.163101 -0.558898
 12   -2.022474 -0.104699 -2.873818 -2.468801 1.824383 0.184805
 13   1.167898 -0.537463 0.063297 -0.810867 -0.994812 0.109235
 14   7.002743 -0.617765 -0.183752 0.000059 0.000137 -1.866933
 15   8.209042 0.615527 -0.255885 1.727486 0.375284 0.023026
 16   7.002735 -0.617911 -0.183641 0.012978 0.010300 -1.325500
 17   1.574674 0.609930 -0.000899 0.265501 -0.161802 -0.235524
 18   -0.602177 0.511412 -0.000006 0.000000 0.000000 0.000000
 19   3.646428 0.364526 1.119313 -0.000002 -0.000014 -0.174510
 20   3.646422 0.364499 -1.117566 0.000007 -0.000003 -0.174546
 21   3.805634 1.330634 1.627658 0.000002 -0.000011 -0.000026
 22   -0.246060 -0.011889 0.516521 -0.000011 0.000031 0.000025
 23   3.805651 1.330659 -1.631083 0.000019 0.000002 -0.000024
 24   -0.246150 -0.011872 -0.516511 -0.000005 -0.000006 0.000048
 25   4.941364 1.997338 1.629330 0.000018 -0.000001 -0.000024
 26   4.941382 1.997366 -1.629410 -0.000001 0.000005 -0.000024
 27   2.930087 1.603639 1.514501 -0.000019 -0.000022 -0.000050
 28   2.932517 1.603245 -1.501142 -0.000002 -0.000009 -0.000024
 29   8.824059 0.150544 0.091743 0.014266 -0.004409 -0.132796
 30   2.118898 -0.561179 1.760882 -0.000374 0.026112 0.001804
 31   2.136915 -0.561289 -1.837973 0.000061 -0.035330 0.001963
 32   -0.814395 -0.093824 3.127092 0.308687 -2.963967 -0.295198
 33   14.298673 -0.408176 0.471578 0.010842 -0.088873 -0.467446
 34   15.835795 0.581398 0.242756 -0.305894 -0.201989 0.256011
 35   -0.815868 -0.091229 -3.114430 -0.040474 2.853438 0.069178
 36   14.294526 -0.410349 -0.467541 -0.007038 0.076845 -0.395888
 37   15.834409 0.579420 -0.284600 0.273779 0.212841 0.401598
 38   1.147498 -3.453749 -2.823813 0.001431 -0.001073 0.003300
 39   -4.457742 -1.007978 -0.738367 0.001846 0.004075 -0.016267
 40   1.110288 -3.449769 3.237290 -0.000674 -0.001288 0.005315
 41   -4.410401 -1.031785 0.967379 0.000191 0.000395 -0.001599
 42   -0.645749 1.697302 -2.641737 0.011973 0.018646 -0.001798
 43   -0.664068 1.694672 2.826407 -0.014043 -0.021150 0.003639
time 27
  0   -0.756603 -0.917997 1.297286 0.000000 0.000000 -1.571069
  1   -1.093036 0.000002 -0.326057 -1.569027 -1.622749 -0.001768
  2   2.262337 0.113614 0.064702 -0.000014 0.000025 0.034286
  3   2.380047 0.353302 0.047440 0.000000 -0.000028 -0.245397
  4   2.033756 0.190472 -0.000128 -0.166860 0.050851 -0.248861
  5   2.451511 0.204909 -0.003447 -0.122009 0.088564 -0.280555
  6   7.247600 -0.397300 -0.109469 0.000001 -0.000003 0.470960
  7   -2.022252 -0.104661 3.136172 1.212897 -1.046089 -4.775944
  8   1.168026 -0.537438 -0.063437 -0.375209 0.611939 -0.863947
  9   6.790376 -0.619176 0.015206 -0.169981 -0.234209 -0.775354
 10   8.637599 0.544015 -0.090417 -3.909819 0.083071 -0.332832
 11   6.790465 -0.619039 0.017802 -0.137681 -0.163101 -0.558898
 12   -2.022474 -0.104699 -2.873818 -2.468801 1.824383 0.184805
 13   1.167898 -0.537463 0.063297 -0.810867 -0.994812 0.109235
 14   7.002743 -0.617765 -0.183752 0.000059 0.000137 -1.866933
 15   8.209042 0.615527 -0.255885 1.727486 0.375284 0.023026
 16   7.002735 -0.617911 -0.183641 0.012978 0.010300 -1.325500
 17   1.574674 0.609930 -0.000899 0.265501 -0.161802 -0.235524
 18   -0.602177 0.511412 -0.000006 0.000000 0.000000 0.000000
 19   3.646428 0.364526 1.119313 -0.000002 -0.000014 -0.174510
 20   3.646422 0.364499 -1.117566 0.000007 -0.000003 -0.174546
 21   3.805634 1.330634 1.627658 0.000002 -0.000011 -0.000026
 22   -0.246060 -0.011889 0.516521 -0.000011 0.000031 0.000025
 23   3.805651 1.330659 -1.631083 0.000019 0.000002 -0.000024
 24   -0.246150 -0.011872 -0.516511 -0.000005 -0.000006 0.000048
 25   4.941364 1.997338 1.629330 0.000018 -0.000001 -0.000024
 26   4.941382 1.997366 -1.629410 -0.000001 0.000005 -0.000024
 27   2.930087 1.603639 1.514501 -0.000019 -0.000022 -0.000050
 28   2.932517 1.603245 -1.501142 -0.000002 -0.000009 -0.000024
 29   8.824059 0.150544 0.091743 0.008473 -0.002629 -0.149802
 30   2.114991 -0.561179 1.772601 -0.000225 0.015185 0.001075
 31   2.129103 -0.561289 -1.845786 0.000031 -0.020928 0.001163
 32   -0.814395 -0.093824 3.127092 0.308687 -2.963967 -0.295198
 33   14.298673 -0.408176 0.471578 0.010842 -0.088873 -0.467446
 34   15.835795 0.581398 0.242756 -0.305894 -0.201989 0.256011
 35   -0.815868 -0.091229 -3.114430 -0.040474 2.853438 0.069178
 36   14.294526 -0.410349 -0.467541 -0.007038 0.076845 -0.395888
 37   15.834409 0.579420 -0.284600 0.273779 0.212841 0.401598
 38   1.143591 -3.453749 -2.823813 0.000842 -0.000627 0.001956
 39   -4.457742 -1.027509 -0.742274 0.001091 0.002409 -0.009648
 40   1.114195 -3.449769 3.237290 -0.000400 -0.000758 0.003116
 41   -4.422121 -1.043504 0.963472 0.000107 0.000228 -0.000954
 42   -0.649655 1.697302 -2.661269 0.007095 0.011057 -0.001046
 43   -0.664068 1.698578 2.845939 -0.008321 -0.012535 0.002133
time 28
  0   -0.756603 -0.917997 1.297286 0.000000 0.000000 -1.571069
  1   -1.093036 0.000002 -0.326057 -1.569027 -1.622749 -0.001768
  2   2.262337 0.113614 0.064702 -0.000014 0.000025 0.034286
  3   2.380047 0.353302 0.047440 0.000000 -0.000028 -0.245397
  4   2.033756 0.190472 -0.000128 -0.166860 0.050851 -0.248861
  5   2.451511 0.204909 -0.003447 -0.122009 0.088564 -0.280555
  6   7.247600 -0.397300 -0.109469 0.000001 -0.000003 0.470960
  7   -2.022252 -0.104661 3.136172 1.212897 -1.046089 -4.775944
  8   1.168026 -0.537438 -0.063437 -0.375209 0.611939 -0.863947
  9   6.790376 -0.619176 0.015206 -0.169981 -0.234209 -0.775354
 10   8.637599 0.544015 -0.090417 -3.909819 0.083071 -0.332832
 11   6.790465 -0.619039 0.017802 -0.137681 -0.163101 -0.558898
 12   -2.022474 -0.104699 -2.873818 -2.468801 1.824383 0.184805
 13   1.167898 -0.537463 0.063297 -0.810867 -0.994812 0.109235
 14   7.002743 -0.617765 -0.183752 0.000059 0.000137 -1.866933
 15   8.209042 0.615527 -0.255885 1.727486 0.375284 0.023026
 16   7.002735 -0.617911 -0.183641 0.012978 0.010300 -1.325500
 17   1.574674 0.609930 -0.000899 0.265501 -0.161802 -0.235524
 18   -0.602177 0.511412 -0.000006 0.000000 0.000000 0.000000
 19   3.646428 0.364526 1.119313 -0.000002 -0.000014 -0.174510
 20   3.646422 0.364499 -1.117566 0.000007 -0.000003 -0.174546
 21   3.805634 1.330634 1.627658 0.000002 -0.000011 -0.000026
 22   -0.246060 -0.011889 0.516521 -0.000011 0.000031 0.000025
 23   3.805651 1.330659 -1.631083 0.000019 0.000002 -0.000024
 24   -0.246150 -0.011872 -0.516511 -0.000005 -0.000006 0.000048
 25   4.941364 1.997338 1.629330 0.000018 -0.000001 -0.000024
 26   4.941382 1.997366 -1.629410 -0.000001 0.000005 -0.000024
 27   2.930087 1.603639 1.514501 -0.000019 -0.000022 -0.000050
 28   2.932517 1.603245 -1.501142 -0.000002 -0.000009 -0.000024
 29   8.824059 0.150544 0.091743 0.003927 -0.001323 -0.163000
 30   2.111085 -0.561179 1.780414 -0.000103 0.006729 0.000517
 31   2.125196 -0.561289 -1.849693 0.000015 -0.009765 0.000544
 32   -0.814395 -0.093824 3.127092 0.308687 -2.963967 -0.295198
 33   14.298673 -0.408176 0.471578 0.010842 -0.088873 -0.467446
 34   15.835795 0.581398 0.242756 -0.305894 -0.201989 0.256011
 35   -0.815868 -0.091229 -3.114430 -0.040474 2.853438 0.069178
 36   14.294526 -0.410349 -0.467541 -0.007038 0.076845 -0.395888
 37   15.834409 0.579420 -0.284600 0.273779 0.212841 0.401598
 38   1.139685 -3.453749 -2.823813 0.000400 -0.000289 0.000856
 39   -4.457742 -1.043135 -0.746180 0.000503 0.001127 -0.004487
 40   1.118101 -3.449769 3.237290 -0.000189 -0.000348 0.001466
 41   -4.429934 -1.051317 0.959566 0.000047 0.000108 -0.000449
 42   -0.657468 1.697302 -2.676895 0.003308 0.005169 -0.000460
 43   -0.664068 1.698578 2.857658 -0.003886 -0.005851 0.001004
time 29
  0   -0.756603 -0.917997 1.297286 0.000000 0.000000 -1.571069
  1   -1.093036 0.000002 -0.326057 -1.569027 -1.622749 -0.001768
  2   2.262337 0.113614 0.064702 -0.000014 0.000025 0.034286
  3   2.380047 0.353302 0.047440 0.000000 -0.000028 -0.245397
  4   2.033756 0.190472 -0.000128 -0.166860 0.050851 -0.248861
  5   2.451511 0.204909 -0.003447 -0.122009 0.088564 -0.280555
  6   7.247600 -0.397300 -0.109469 0.000001 -0.000003 0.470960
  7   -2.022252 -0.104661 3.136172 1.212897 -1.046089 -4.775944
  8   1.168026 -0.537438 -0.063437 -0.375209 0.611939 -0.863947
  9   6.790376 -0.619176 0.015206 -0.169981 -0.234209 -0.775354
 10   8.637599 0.544015 -0.090417 -3.909819 0.083071 -0.332832
 11   6.790465 -0.619039 0.017802 -0.137681 -0.163101 -0.558898
 12   -2.022474 -0.104699 -2.873818 -2.468801 1.824383 0.184805
 13   1.167898 -0.537463 0.063297 -0.810867 -0.994812 0.109235
 14   7.002743 -0.617765 -0.183752 0.000059 0.000137 -1.866933
 15   8.209042 0.615527 -0.255885 1.727486 0.375284 0.023026
 16   7.002735 -0.617911 -0.183641 0.012978 0.010300 -1.325500
 17   1.574674 0.609930 -0.000899 0.265501 -0.161802 -0.235524
 18   -0.602177 0.511412 -0.000006 0.000000 0.000000 0.000000
 19   3.646428 0.364526 1.119313 -0.000002 -0.000014 -0.174510
 20   3.646422 0.364499 -1.117566 0.000007 -0.000003 -0.174546
 21   3.805634 1.330634 1.627658 0.000002 -0.000011 -0.000026
 22   -0.246060 -0.011889 0.516521 -0.000011 0.000031 0.000025
 23   3.805651 1.330659 -1.631083 0.000019 0.000002 -0.000024
 24   -0.246150 -0.011872 -0.516511 -0.000005 -0.000006 0.000048
 25   4.941364 1.997338 1.629330 0.000018 -0.000001 -0.000024
 26   4.941382 1.997366 -1.629410 -0.000001 0.000005 -0.000024
 27   2.930087 1.603639 1.514501 -0.000019 -0.000022 -0.000050
 28   2.932517 1.603245 -1.501142 -0.000002 -0.000009 -0.000024
 29   8.824059 0.150544 0.091743 0.000986 -0.000492 -0.171530
 30   2.111085 -0.561179 1.784320 -0.000022 0.001236 0.000153
 31   2.121290 -0.561289 -1.853599 0.000000 -0.002564 0.000125
 32   -0.814395 -0.093824 3.127092 0.308687 -2.963967 -0.295198
 33   14.298673 -0.408176 0.471578 0.010842 -0.088873 -0.467446
 34   15.835795 0.581398 0.242756 -0.305894 -0.201989 0.256011
 35   -0.815868 -0.091229 -3.114430 -0.040474 2.853438 0.069178
 36   14.294526 -0.410349 -0.467541 -0.007038 0.076845 -0.395888
 37   15.834409 0.579420 -0.284600 0.273779 0.212841 0.401598
 38   1.139685 -3.453749 -2.823813 0.000084 -0.000072 0.000184
 39   -4.457742 -1.054854 -0.746180 0.000132 0.000288 -0.001178
 40   1.118101 -3.449769 3.237290 -0.000042 -0.000083 0.000367
 41   -4.433840 -1.059130 0.959566 0.000011 0.000024 -0.000112
 42   -0.657468 1.697302 -2.688614 0.000863 0.001351 -0.000125
 43   -0.664068 1.698578 2.869377 -0.001012 -0.001520 0.000251
time 30
  0   -0.756603 -0.917997 1.297286 0.000000 0.000000 -1.571069
  1   -1.093036 0.000002 -0.326057 -1.569027 -1.622749 -0.001768
  2   2.262337 0.113614 0.064702 -0.000014 0.000025 0.034286
  3   2.380047 0.353302 0.047440 0.000000 -0.000028 -0.245397
  4   2.033756 0.190472 -0.000128 -0.166860 0.050851 -0.248861
  5   2.451511 0.204909 -0.003447 -0.122009 0.088564 -0.280555
  6   7.247600 -0.397300 -0.109469 0.000001 -0.000003 0.470960
  7   -2.022252 -0.104661 3.136172 1.212897 -1.046089 -4.775944
  8   1.168026 -0.537438 -0.063437 -0.375209 0.611939 -0.863947
  9   6.790376 -0.619176 0.015206 -0.169981 -0.234209 -0.775354
 10   8.637599 0.544015 -0.090417 -3.909819 0.083071 -0.332832
 11   6.790465 -0.619039 0.017802 -0.137681 -0.163101 -0.558898
 12   -2.022474 -0.104699 -2.873818 -2.468801 1.824383 0.184805
 13   1.167898 -0.537463 0.063297 -0.810867 -0.994812 0.109235
 14   7.002743 -0.617765 -0.183752 0.000059 0.000137 -1.866933
 15   8.209042 0.615527 -0.255885 1.727486 0.375284 0.023026
 16   7.002735 -0.617911 -0.183641 0.012978 0.010300 -1.325500
 17   1.574674 0.609930 -0.000899 0.265501 -0.161802 -0.235524
 18   -0.602177 0.511412 -0.000006 0.000000 0.000000 0.000000
 19   3.646428 0.364526 1.119313 -0.000002 -0.000014 -0.174510
 20   3.646422 0.364499 -1.117566 0.000007 -0.000003 -0.174546
 21   3.805634 1.330634 1.627658 0.000002 -0.000011 -0.000026
 22   -0.246060 -0.011889 0.516521 -0.000011 0.000031 0.000025
 23   3.805651 1.330659 -1.631083 0.000019 0.000002 -0.000024
 24   -0.246150 -0.011872 -0.516511 -0.000005 -0.000006 0.000048
 25   4.941364 1.997338 1.629330 0.000018 -0.000001 -0.000024
 26   4.941382 1.997366 -1.629410 -0.000001 0.000005 -0.000024
 27   2.930087 1.603639 1.514501 -0.000019 -0.000022 -0.000050
 28   2.932517 1.603245 -1.501142 -0.000002 -0.000009 -0.000024
 29   8.824059 0.150544 0.091743 0.000006 -0.000231 -0.174534
 30   2.111085 -0.561179 1.784320 -0.000008 -0.000682 0.000024
 31   2.121290 -0.561289 -1.853599 0.000000 0.000000 -0.000002
 32   -0.814395 -0.093824 3.127092 0.308687 -2.963967 -0.295198
 33   14.298673 -0.408176 0.471578 0.010842 -0.088873 -0.467446
 34   15.835795 0.581398 0.242756 -0.305894 -0.201989 0.256011
 35   -0.815868 -0.091229 -3.114430 -0.040474 2.853438 0.069178
 36   14.294526 -0.410349 -0.467541 -0.007038 0.076845 -0.395888
 37   15.834409 0.579420 -0.284600 0.273779 0.212841 0.401598
 38   1.139685 -3.453749 -2.823813 0.000000 0.000000 0.000001
 39   -4.457742 -1.054854 -0.746180 0.000000 0.000000 0.000000
 40   1.118101 -3.449769 3.237290 0.000000 0.000001 0.000000
 41   -4.433840 -1.059130 0.959566 -0.000001 0.000000 0.000000
 42   -0.657468 1.697302 -2.688614 0.000000 0.000002 0.000000
 43   -0.664068 1.698578 2.869377 0.000000 0.000002 0.000000
end
