version 1
nodes
  0 "Bip01" -1
  1 "Bip01 Pelvis" 0
  2 "Bip01 Spine" 1
  3 "Bip01 Spine1" 2
  4 "Bip01 Spine2" 3
  5 "Bip01 Spine3" 4
  6 "Bip01 Neck" 5
  7 "Bip01 L Arm" 6
  8 "Bip01 L Arm1" 7
  9 "Bip01 L Arm2" 8
 10 "Bip01 L Hand" 9
 11 "Bip06 L elbow2-smooth" 8
 12 "Bip01 R Arm" 6
 13 "Bip01 R Arm1" 12
 14 "Bip01 R Arm2" 13
 15 "Bip01 R Hand" 14
 16 "Bip06 R elbow2-smooth" 13
 17 "Bip01 Head" 6
 18 "Bip06 Head_helper" 17
 19 "Bip06 Head_eyes_l" 18
 20 "Bip06 Head_eyes_r" 18
 21 "Bip06 Head_blink_l" 18
 22 "Bip06 Head_blink_smooth_l1" 21
 23 "Bip06 Head_blink_r" 18
 24 "Bip06 Head_blink_smooth_r1" 23
 25 "Bip06 Head_L_eyebrow" 18
 26 "Bip06 Head_R_eyebrow" 18
 27 "Bip06 Head_blink_l_lid" 18
 28 "Bip06 Head_blink_r_lid" 18
 29 "Bip06 bunny" 18
 30 "Bip06 bunnyL" 29
 31 "Bip06 bunnyR" 29
 32 "Bip01 L Leg" 1
 33 "Bip01 L Leg1" 32
 34 "Bip01 L Foot" 33
 35 "Bip01 R Leg" 1
 36 "Bip01 R Leg1" 35
 37 "Bip01 R Foot" 36
 38 "Bip03 HairR1" 17
 39 "Bip03 HairR2" 38
 40 "Bip03 HairL1" 17
 41 "Bip03 HairL2" 40
 42 "Bip03 swingR" 17
 43 "Bip03 swingL" 17
end
skeleton
time 0
  0   -0.010486 -0.546892 -0.601210 0.000000 0.000000 -1.571354
  1   -1.093036 0.000002 -0.326057 -1.570808 -1.570749 0.000022
  2   2.262337 0.113614 0.064702 0.000292 0.000073 -0.265998
  3   2.380047 0.353302 0.047440 0.060904 0.005221 -0.153633
  4   2.033756 0.190472 -0.000128 -0.116899 0.024473 0.006644
  5   2.451511 0.204909 -0.003447 -0.065438 -0.059786 0.001053
  6   7.247600 -0.397300 -0.109469 0.023874 -0.048577 0.524556
  7   -2.022252 -0.104661 3.136172 1.238875 -1.024584 -4.799517
  8   1.168026 -0.537438 -0.063437 -0.844750 0.734756 -0.676443
  9   6.790376 -0.619176 0.015206 0.056210 -0.172341 -1.099185
 10   8.637599 0.544015 -0.090417 -3.988549 0.202875 -0.503999
 11   6.790465 -0.619039 0.017802 0.021059 -0.139764 -0.781754
 12   -2.022474 -0.104699 -2.873818 -1.163334 1.764390 -4.903164
 13   1.167898 -0.537463 0.063297 0.342133 -0.886746 -1.115868
 14   7.002743 -0.617765 -0.183752 0.376895 -0.308318 -1.742515
 15   8.209042 0.615527 -0.255885 2.234976 0.390037 0.543634
 16   7.002735 -0.617911 -0.183641 0.223832 -0.281734 -1.217212
 17   1.574674 0.609930 -0.000899 0.254777 0.315535 -0.043807
 18   -0.602177 0.511412 -0.000006 0.000000 0.000000 0.000000
 19   3.673773 0.177020 1.119313 -0.000002 -0.000014 -0.174510
 20   3.673767 0.176993 -1.117566 0.000007 -0.000003 -0.174546
 21   3.942357 1.334540 1.627658 0.000002 -0.000011 -0.000026
 22   -0.246060 -0.011889 0.516521 -0.000011 0.000031 0.000025
 23   3.942374 1.334565 -1.631083 0.000019 0.000002 -0.000024
 24   -0.246150 -0.011872 -0.516511 -0.000005 -0.000006 0.000048
 25   4.941364 1.997338 1.629330 0.000018 -0.000001 -0.000024
 26   4.941382 1.997366 -1.629410 -0.000001 0.000005 -0.000024
 27   2.914462 1.619264 1.514501 -0.000019 -0.000022 -0.000050
 28   2.916892 1.618870 -1.501142 -0.000002 -0.000009 -0.000024
 29   8.824059 0.150544 0.091743 0.000006 -0.000231 -0.174534
 30   2.111085 -0.561179 1.784320 -0.000008 -0.000682 0.000024
 31   2.121290 -0.561289 -1.853599 0.000000 0.000000 -0.000002
 32   -0.814395 -0.093824 3.127092 0.564266 -3.064250 -0.563643
 33   14.298673 -0.408176 0.471578 -0.006284 -0.010019 -0.413614
 34   15.835795 0.581398 0.242756 -0.007436 -0.212263 -0.117891
 35   -0.815868 -0.091229 -3.114430 -0.120039 3.021422 -0.057358
 36   14.294526 -0.410349 -0.467541 0.000668 0.012859 -0.799565
 37   15.834409 0.579420 -0.284600 -0.169247 -0.012731 0.676454
 38   1.139685 -3.453749 -2.823813 0.000000 0.000000 0.000001
 39   -4.457742 -1.054854 -0.746180 0.000000 0.000000 0.000000
 40   1.118101 -3.449769 3.237290 0.000000 0.000001 0.000000
 41   -4.433840 -1.059130 0.959566 -0.000001 0.000000 0.000000
 42   -0.657468 1.697302 -2.688614 0.000000 0.000002 0.000000
 43   -0.664068 1.698578 2.869377 0.000000 0.000002 0.000000
time 1
  0   -0.010486 -0.546892 -0.601210 0.000000 0.000000 -1.571354
  1   -1.093036 0.000002 -0.326057 -1.570808 -1.570749 0.000022
  2   2.262337 0.113614 0.064702 0.000292 0.000073 -0.265998
  3   2.380047 0.353302 0.047440 0.060454 0.005185 -0.154123
  4   2.033756 0.190472 -0.000128 -0.117360 0.024413 0.005557
  5   2.451511 0.204909 -0.003447 -0.066054 -0.059617 0.000285
  6   7.247600 -0.397300 -0.109469 0.023707 -0.048253 0.524366
  7   -2.022252 -0.104661 3.136172 1.238875 -1.024584 -4.799517
  8   1.168026 -0.537438 -0.063437 -0.844433 0.734554 -0.672774
  9   6.790376 -0.619176 0.015206 0.056210 -0.173075 -1.110354
 10   8.637599 0.544015 -0.090417 -3.988549 0.202875 -0.503999
 11   6.790465 -0.619039 0.017802 0.020884 -0.140361 -0.789482
 12   -2.022474 -0.104699 -2.873818 -1.163334 1.764390 -4.903164
 13   1.167898 -0.537463 0.063297 0.340305 -0.886340 -1.113870
 14   7.002743 -0.617765 -0.183752 0.376724 -0.308545 -1.748538
 15   8.209042 0.615527 -0.255885 2.234976 0.390037 0.543634
 16   7.002735 -0.617911 -0.183641 0.223455 -0.282073 -1.221296
 17   1.574674 0.609930 -0.000899 0.254777 0.315535 -0.043807
 18   -0.602177 0.511412 -0.000006 0.000000 0.000000 0.000000
 19   3.673773 0.177020 1.119313 -0.000002 -0.000014 -0.174510
 20   3.673767 0.176993 -1.117566 0.000007 -0.000003 -0.174546
 21   3.942357 1.334540 1.627658 0.000002 -0.000011 -0.000026
 22   -0.246060 -0.011889 0.516521 -0.000011 0.000031 0.000025
 23   3.942374 1.334565 -1.631083 0.000019 0.000002 -0.000024
 24   -0.246150 -0.011872 -0.516511 -0.000005 -0.000006 0.000048
 25   4.941364 1.997338 1.629330 0.000018 -0.000001 -0.000024
 26   4.941382 1.997366 -1.629410 -0.000001 0.000005 -0.000024
 27   2.914462 1.619264 1.514501 -0.000019 -0.000022 -0.000050
 28   2.916892 1.618870 -1.501142 -0.000002 -0.000009 -0.000024
 29   8.824059 0.150544 0.091743 0.000006 -0.000231 -0.174534
 30   2.111085 -0.561179 1.784320 -0.000008 -0.000682 0.000024
 31   2.121290 -0.561289 -1.853599 0.000000 0.000000 -0.000002
 32   -0.814395 -0.093824 3.127092 0.564266 -3.064250 -0.563643
 33   14.298673 -0.408176 0.471578 -0.006284 -0.010019 -0.413614
 34   15.835795 0.581398 0.242756 -0.007436 -0.212263 -0.117891
 35   -0.815868 -0.091229 -3.114430 -0.120039 3.021422 -0.057358
 36   14.294526 -0.410349 -0.467541 0.000668 0.012859 -0.799565
 37   15.834409 0.579420 -0.284600 -0.169247 -0.012731 0.676454
 38   1.139685 -3.453749 -2.823813 0.000000 0.000000 0.000001
 39   -4.457742 -1.054854 -0.746180 0.000000 0.000000 0.000000
 40   1.118101 -3.449769 3.237290 0.000000 0.000001 0.000000
 41   -4.433840 -1.059130 0.959566 -0.000001 0.000000 0.000000
 42   -0.657468 1.697302 -2.688614 0.000000 0.000002 0.000000
 43   -0.664068 1.698578 2.869377 0.000000 0.000002 0.000000
time 2
  0   -0.010486 -0.546892 -0.601210 0.000000 0.000000 -1.571354
  1   -1.093036 0.000002 -0.326057 -1.570808 -1.570749 0.000022
  2   2.262337 0.113614 0.064702 0.000292 0.000073 -0.265998
  3   2.380047 0.353302 0.047440 0.059239 0.005077 -0.155592
  4   2.033756 0.190472 -0.000128 -0.118614 0.024257 0.002367
  5   2.451511 0.204909 -0.003447 -0.067800 -0.059173 -0.002117
  6   7.247600 -0.397300 -0.109469 0.023047 -0.047330 0.523764
  7   -2.022252 -0.104661 3.136172 1.238875 -1.024584 -4.799517
  8   1.168026 -0.537438 -0.063437 -0.846332 0.729121 -0.669358
  9   6.790376 -0.619176 0.015206 0.056321 -0.174277 -1.132768
 10   8.637599 0.544015 -0.090417 -3.988549 0.202875 -0.503999
 11   6.790465 -0.619039 0.017802 0.020446 -0.141498 -0.805170
 12   -2.022474 -0.104699 -2.873818 -1.163334 1.764390 -4.903164
 13   1.167898 -0.537463 0.063297 0.337704 -0.883237 -1.107514
 14   7.002743 -0.617765 -0.183752 0.376155 -0.308885 -1.763884
 15   8.209042 0.615527 -0.255885 2.234976 0.390037 0.543634
 16   7.002735 -0.617911 -0.183641 0.222514 -0.283031 -1.232004
 17   1.574674 0.609930 -0.000899 0.254777 0.315535 -0.043807
 18   -0.602177 0.511412 -0.000006 0.000000 0.000000 0.000000
 19   3.673773 0.177020 1.119313 -0.000002 -0.000014 -0.174510
 20   3.673767 0.176993 -1.117566 0.000007 -0.000003 -0.174546
 21   3.942357 1.334540 1.627658 0.000002 -0.000011 -0.000026
 22   -0.246060 -0.011889 0.516521 -0.000011 0.000031 0.000025
 23   3.942374 1.334565 -1.631083 0.000019 0.000002 -0.000024
 24   -0.246150 -0.011872 -0.516511 -0.000005 -0.000006 0.000048
 25   4.941364 1.997338 1.629330 0.000018 -0.000001 -0.000024
 26   4.941382 1.997366 -1.629410 -0.000001 0.000005 -0.000024
 27   2.914462 1.619264 1.514501 -0.000019 -0.000022 -0.000050
 28   2.916892 1.618870 -1.501142 -0.000002 -0.000009 -0.000024
 29   8.824059 0.150544 0.091743 0.000006 -0.000231 -0.174534
 30   2.111085 -0.561179 1.784320 -0.000008 -0.000682 0.000024
 31   2.121290 -0.561289 -1.853599 0.000000 0.000000 -0.000002
 32   -0.814395 -0.093824 3.127092 0.564266 -3.064250 -0.563643
 33   14.298673 -0.408176 0.471578 -0.006284 -0.010019 -0.413614
 34   15.835795 0.581398 0.242756 -0.007436 -0.212263 -0.117891
 35   -0.815868 -0.091229 -3.114430 -0.120039 3.021422 -0.057358
 36   14.294526 -0.410349 -0.467541 0.000668 0.012859 -0.799565
 37   15.834409 0.579420 -0.284600 -0.169247 -0.012731 0.676454
 38   1.139685 -3.453749 -2.823813 0.000000 0.000000 0.000001
 39   -4.457742 -1.054854 -0.746180 0.000000 0.000000 0.000000
 40   1.118101 -3.449769 3.237290 0.000000 0.000001 0.000000
 41   -4.433840 -1.059130 0.959566 -0.000001 0.000000 0.000000
 42   -0.657468 1.697302 -2.688614 0.000000 0.000002 0.000000
 43   -0.664068 1.698578 2.869377 0.000000 0.000002 0.000000
time 3
  0   -0.010486 -0.546892 -0.601210 0.000000 0.000000 -1.571354
  1   -1.093036 0.000002 -0.326057 -1.570808 -1.570749 0.000022
  2   2.262337 0.113614 0.064702 0.000292 0.000073 -0.265998
  3   2.380047 0.353302 0.047440 0.057244 0.004922 -0.157898
  4   2.033756 0.190472 -0.000128 -0.120606 0.023981 -0.002635
  5   2.451511 0.204909 -0.003447 -0.070539 -0.058403 -0.005807
  6   7.247600 -0.397300 -0.109469 0.022137 -0.045916 0.522687
  7   -2.022252 -0.104661 3.136172 1.238875 -1.024584 -4.799517
  8   1.168026 -0.537438 -0.063437 -0.851710 0.717951 -0.667713
  9   6.790376 -0.619176 0.015206 0.056542 -0.175545 -1.161068
 10   8.637599 0.544015 -0.090417 -3.988549 0.202875 -0.503999
 11   6.790465 -0.619039 0.017802 0.019979 -0.142663 -0.824895
 12   -2.022474 -0.104699 -2.873818 -1.163334 1.764390 -4.903164
 13   1.167898 -0.537463 0.063297 0.337493 -0.877949 -1.101037
 14   7.002743 -0.617765 -0.183752 0.375358 -0.308829 -1.784263
 15   8.209042 0.615527 -0.255885 2.234976 0.390037 0.543634
 16   7.002735 -0.617911 -0.183641 0.221290 -0.283764 -1.246133
 17   1.574674 0.609930 -0.000899 0.254777 0.315535 -0.043807
 18   -0.602177 0.511412 -0.000006 0.000000 0.000000 0.000000
 19   3.673773 0.177020 1.119313 -0.000002 -0.000014 -0.174510
 20   3.673767 0.176993 -1.117566 0.000007 -0.000003 -0.174546
 21   3.942357 1.334540 1.627658 0.000002 -0.000011 -0.000026
 22   -0.246060 -0.011889 0.516521 -0.000011 0.000031 0.000025
 23   3.942374 1.334565 -1.631083 0.000019 0.000002 -0.000024
 24   -0.246150 -0.011872 -0.516511 -0.000005 -0.000006 0.000048
 25   4.941364 1.997338 1.629330 0.000018 -0.000001 -0.000024
 26   4.941382 1.997366 -1.629410 -0.000001 0.000005 -0.000024
 27   2.914462 1.619264 1.514501 -0.000019 -0.000022 -0.000050
 28   2.916892 1.618870 -1.501142 -0.000002 -0.000009 -0.000024
 29   8.824059 0.150544 0.091743 0.000006 -0.000231 -0.174534
 30   2.111085 -0.561179 1.784320 -0.000008 -0.000682 0.000024
 31   2.121290 -0.561289 -1.853599 0.000000 0.000000 -0.000002
 32   -0.814395 -0.093824 3.127092 0.564266 -3.064250 -0.563643
 33   14.298673 -0.408176 0.471578 -0.006284 -0.010019 -0.413614
 34   15.835795 0.581398 0.242756 -0.007436 -0.212263 -0.117891
 35   -0.815868 -0.091229 -3.114430 -0.120039 3.021422 -0.057358
 36   14.294526 -0.410349 -0.467541 0.000668 0.012859 -0.799565
 37   15.834409 0.579420 -0.284600 -0.169247 -0.012731 0.676454
 38   1.139685 -3.453749 -2.823813 0.000000 0.000000 0.000001
 39   -4.457742 -1.054854 -0.746180 0.000000 0.000000 0.000000
 40   1.118101 -3.449769 3.237290 0.000000 0.000001 0.000000
 41   -4.433840 -1.059130 0.959566 -0.000001 0.000000 0.000000
 42   -0.657468 1.697302 -2.688614 0.000000 0.000002 0.000000
 43   -0.664068 1.698578 2.869377 0.000000 0.000002 0.000000
time 4
  0   -0.010486 -0.546892 -0.601210 0.000000 0.000000 -1.571354
  1   -1.093036 0.000002 -0.326057 -1.570808 -1.570749 0.000022
  2   2.262337 0.113614 0.064702 0.000292 0.000073 -0.265998
  3   2.380047 0.353302 0.047440 0.054574 0.004694 -0.160918
  4   2.033756 0.190472 -0.000128 -0.123243 0.023682 -0.009232
  5   2.451511 0.204909 -0.003447 -0.074116 -0.057358 -0.010686
  6   7.247600 -0.397300 -0.109469 0.020818 -0.043998 0.521420
  7   -2.022252 -0.104661 3.136172 1.238875 -1.024584 -4.799517
  8   1.168026 -0.537438 -0.063437 -0.861899 0.699687 -0.671066
  9   6.790376 -0.619176 0.015206 0.056598 -0.176746 -1.189746
 10   8.637599 0.544015 -0.090417 -3.988549 0.202875 -0.503999
 11   6.790465 -0.619039 0.017802 0.019482 -0.143828 -0.844850
 12   -2.022474 -0.104699 -2.873818 -1.163334 1.764390 -4.903164
 13   1.167898 -0.537463 0.063297 0.339391 -0.870015 -1.092925
 14   7.002743 -0.617765 -0.183752 0.374276 -0.308545 -1.809427
 15   8.209042 0.615527 -0.255885 2.234976 0.390037 0.543634
 16   7.002735 -0.617911 -0.183641 0.219878 -0.284554 -1.263629
 17   1.574674 0.609930 -0.000899 0.254777 0.315535 -0.043807
 18   -0.602177 0.511412 -0.000006 0.000000 0.000000 0.000000
 19   3.673773 0.177020 1.119313 -0.000002 -0.000014 -0.174510
 20   3.673767 0.176993 -1.117566 0.000007 -0.000003 -0.174546
 21   3.942357 1.334540 1.627658 0.000002 -0.000011 -0.000026
 22   -0.246060 -0.011889 0.516521 -0.000011 0.000031 0.000025
 23   3.942374 1.334565 -1.631083 0.000019 0.000002 -0.000024
 24   -0.246150 -0.011872 -0.516511 -0.000005 -0.000006 0.000048
 25   4.941364 1.997338 1.629330 0.000018 -0.000001 -0.000024
 26   4.941382 1.997366 -1.629410 -0.000001 0.000005 -0.000024
 27   2.914462 1.619264 1.514501 -0.000019 -0.000022 -0.000050
 28   2.916892 1.618870 -1.501142 -0.000002 -0.000009 -0.000024
 29   8.824059 0.150544 0.091743 0.000006 -0.000231 -0.174534
 30   2.111085 -0.561179 1.784320 -0.000008 -0.000682 0.000024
 31   2.121290 -0.561289 -1.853599 0.000000 0.000000 -0.000002
 32   -0.814395 -0.093824 3.127092 0.564266 -3.064250 -0.563643
 33   14.298673 -0.408176 0.471578 -0.006284 -0.010019 -0.413614
 34   15.835795 0.581398 0.242756 -0.007436 -0.212263 -0.117891
 35   -0.815868 -0.091229 -3.114430 -0.120039 3.021422 -0.057358
 36   14.294526 -0.410349 -0.467541 0.000668 0.012859 -0.799565
 37   15.834409 0.579420 -0.284600 -0.169247 -0.012731 0.676454
 38   1.139685 -3.453749 -2.823813 0.000000 0.000000 0.000001
 39   -4.457742 -1.054854 -0.746180 0.000000 0.000000 0.000000
 40   1.118101 -3.449769 3.237290 0.000000 0.000001 0.000000
 41   -4.433840 -1.059130 0.959566 -0.000001 0.000000 0.000000
 42   -0.657468 1.697302 -2.688614 0.000000 0.000002 0.000000
 43   -0.664068 1.698578 2.869377 0.000000 0.000002 0.000000
time 5
  0   -0.010486 -0.546892 -0.601210 0.000000 0.000000 -1.571354
  1   -1.093036 0.000002 -0.326057 -1.570808 -1.570749 0.000022
  2   2.262337 0.113614 0.064702 0.000292 0.000073 -0.265998
  3   2.380047 0.353302 0.047440 0.051318 0.004394 -0.164550
  4   2.033756 0.190472 -0.000128 -0.126397 0.023262 -0.017170
  5   2.451511 0.204909 -0.003447 -0.078498 -0.056170 -0.016580
  6   7.247600 -0.397300 -0.109469 0.019284 -0.041721 0.519868
  7   -2.022252 -0.104661 3.136172 1.238875 -1.024584 -4.799517
  8   1.168026 -0.537438 -0.063437 -0.876516 0.675335 -0.679543
  9   6.790376 -0.619176 0.015206 0.056709 -0.178014 -1.216461
 10   8.637599 0.544015 -0.090417 -3.988549 0.202875 -0.503999
 11   6.790465 -0.619039 0.017802 0.018986 -0.144909 -0.863422
 12   -2.022474 -0.104699 -2.873818 -1.163334 1.764390 -4.903164
 13   1.167898 -0.537463 0.063297 0.345296 -0.859844 -1.086024
 14   7.002743 -0.617765 -0.183752 0.373195 -0.308261 -1.836241
 15   8.209042 0.615527 -0.255885 2.234976 0.390037 0.543634
 16   7.002735 -0.617911 -0.183641 0.218324 -0.285456 -1.282229
 17   1.574674 0.609930 -0.000899 0.254777 0.315535 -0.043807
 18   -0.602177 0.511412 -0.000006 0.000000 0.000000 0.000000
 19   3.673773 0.177020 1.119313 -0.000002 -0.000014 -0.174510
 20   3.673767 0.176993 -1.117566 0.000007 -0.000003 -0.174546
 21   3.942357 1.334540 1.627658 0.000002 -0.000011 -0.000026
 22   -0.246060 -0.011889 0.516521 -0.000011 0.000031 0.000025
 23   3.942374 1.334565 -1.631083 0.000019 0.000002 -0.000024
 24   -0.246150 -0.011872 -0.516511 -0.000005 -0.000006 0.000048
 25   4.941364 1.997338 1.629330 0.000018 -0.000001 -0.000024
 26   4.941382 1.997366 -1.629410 -0.000001 0.000005 -0.000024
 27   2.914462 1.619264 1.514501 -0.000019 -0.000022 -0.000050
 28   2.916892 1.618870 -1.501142 -0.000002 -0.000009 -0.000024
 29   8.824059 0.150544 0.091743 0.000006 -0.000231 -0.174534
 30   2.111085 -0.561179 1.784320 -0.000008 -0.000682 0.000024
 31   2.121290 -0.561289 -1.853599 0.000000 0.000000 -0.000002
 32   -0.814395 -0.093824 3.127092 0.564266 -3.064250 -0.563643
 33   14.298673 -0.408176 0.471578 -0.006284 -0.010019 -0.413614
 34   15.835795 0.581398 0.242756 -0.007436 -0.212263 -0.117891
 35   -0.815868 -0.091229 -3.114430 -0.120039 3.021422 -0.057358
 36   14.294526 -0.410349 -0.467541 0.000668 0.012859 -0.799565
 37   15.834409 0.579420 -0.284600 -0.169247 -0.012731 0.676454
 38   1.139685 -3.453749 -2.823813 0.000000 0.000000 0.000001
 39   -4.457742 -1.054854 -0.746180 0.000000 0.000000 0.000000
 40   1.118101 -3.449769 3.237290 0.000000 0.000001 0.000000
 41   -4.433840 -1.059130 0.959566 -0.000001 0.000000 0.000000
 42   -0.657468 1.697302 -2.688614 0.000000 0.000002 0.000000
 43   -0.664068 1.698578 2.869377 0.000000 0.000002 0.000000
time 6
  0   -0.010486 -0.546892 -0.601210 0.000000 0.000000 -1.571354
  1   -1.093036 0.000002 -0.326057 -1.570808 -1.570749 0.000022
  2   2.262337 0.113614 0.064702 0.000292 0.000073 -0.265998
  3   2.380047 0.353302 0.047440 0.047658 0.004107 -0.168713
  4   2.033756 0.190472 -0.000128 -0.130067 0.022831 -0.026304
  5   2.451511 0.204909 -0.003447 -0.083479 -0.054786 -0.023193
  6   7.247600 -0.397300 -0.109469 0.017522 -0.039121 0.518094
  7   -2.022252 -0.104661 3.136172 1.238875 -1.024584 -4.799517
  8   1.168026 -0.537438 -0.063437 -0.895690 0.643486 -0.695611
  9   6.790376 -0.619176 0.015206 0.056875 -0.178615 -1.233064
 10   8.637599 0.544015 -0.090417 -3.988549 0.202875 -0.503999
 11   6.790465 -0.619039 0.017802 0.018752 -0.145591 -0.874899
 12   -2.022474 -0.104699 -2.873818 -1.163334 1.764390 -4.903164
 13   1.167898 -0.537463 0.063297 0.356824 -0.847232 -1.080939
 14   7.002743 -0.617765 -0.183752 0.372113 -0.307409 -1.861323
 15   8.209042 0.615527 -0.255885 2.234976 0.390037 0.543634
 16   7.002735 -0.617911 -0.183641 0.216959 -0.285851 -1.299891
 17   1.574674 0.609930 -0.000899 0.254777 0.315535 -0.043807
 18   -0.602177 0.511412 -0.000006 0.000000 0.000000 0.000000
 19   3.673773 0.177020 1.119313 -0.000002 -0.000014 -0.174510
 20   3.673767 0.176993 -1.117566 0.000007 -0.000003 -0.174546
 21   3.942357 1.334540 1.627658 0.000002 -0.000011 -0.000026
 22   -0.246060 -0.011889 0.516521 -0.000011 0.000031 0.000025
 23   3.942374 1.334565 -1.631083 0.000019 0.000002 -0.000024
 24   -0.246150 -0.011872 -0.516511 -0.000005 -0.000006 0.000048
 25   4.941364 1.997338 1.629330 0.000018 -0.000001 -0.000024
 26   4.941382 1.997366 -1.629410 -0.000001 0.000005 -0.000024
 27   2.914462 1.619264 1.514501 -0.000019 -0.000022 -0.000050
 28   2.916892 1.618870 -1.501142 -0.000002 -0.000009 -0.000024
 29   8.824059 0.150544 0.091743 0.000006 -0.000231 -0.174534
 30   2.111085 -0.561179 1.784320 -0.000008 -0.000682 0.000024
 31   2.121290 -0.561289 -1.853599 0.000000 0.000000 -0.000002
 32   -0.814395 -0.093824 3.127092 0.564266 -3.064250 -0.563643
 33   14.298673 -0.408176 0.471578 -0.006284 -0.010019 -0.413614
 34   15.835795 0.581398 0.242756 -0.007436 -0.212263 -0.117891
 35   -0.815868 -0.091229 -3.114430 -0.120039 3.021422 -0.057358
 36   14.294526 -0.410349 -0.467541 0.000668 0.012859 -0.799565
 37   15.834409 0.579420 -0.284600 -0.169247 -0.012731 0.676454
 38   1.139685 -3.453749 -2.823813 0.000000 0.000000 0.000001
 39   -4.457742 -1.054854 -0.746180 0.000000 0.000000 0.000000
 40   1.118101 -3.449769 3.237290 0.000000 0.000001 0.000000
 41   -4.433840 -1.059130 0.959566 -0.000001 0.000000 0.000000
 42   -0.657468 1.697302 -2.688614 0.000000 0.000002 0.000000
 43   -0.664068 1.698578 2.869377 0.000000 0.000002 0.000000
time 7
  0   -0.010486 -0.546892 -0.601210 0.000000 0.000000 -1.571354
  1   -1.093036 0.000002 -0.326057 -1.570808 -1.570749 0.000022
  2   2.262337 0.113614 0.064702 0.000292 0.000073 -0.265998
  3   2.380047 0.353302 0.047440 0.043698 0.003723 -0.173243
  4   2.033756 0.190472 -0.000128 -0.134069 0.022315 -0.036272
  5   2.451511 0.204909 -0.003447 -0.089008 -0.053246 -0.030573
  6   7.247600 -0.397300 -0.109469 0.015641 -0.036220 0.516130
  7   -2.022252 -0.104661 3.136172 1.238875 -1.024584 -4.799517
  8   1.168026 -0.537438 -0.063437 -0.918028 0.606001 -0.717689
  9   6.790376 -0.619176 0.015206 0.056931 -0.178882 -1.240158
 10   8.637599 0.544015 -0.090417 -3.988549 0.202875 -0.503999
 11   6.790465 -0.619039 0.017802 0.018636 -0.145818 -0.879917
 12   -2.022474 -0.104699 -2.873818 -1.163334 1.764390 -4.903164
 13   1.167898 -0.537463 0.063297 0.372290 -0.833400 -1.076944
 14   7.002743 -0.617765 -0.183752 0.371088 -0.306444 -1.885002
 15   8.209042 0.615527 -0.255885 2.234976 0.390037 0.543634
 16   7.002735 -0.617911 -0.183641 0.215735 -0.286076 -1.316393
 17   1.574674 0.609930 -0.000899 0.254777 0.315535 -0.043807
 18   -0.602177 0.511412 -0.000006 0.000000 0.000000 0.000000
 19   3.673773 0.177020 1.119313 -0.000002 -0.000014 -0.174510
 20   3.673767 0.176993 -1.117566 0.000007 -0.000003 -0.174546
 21   3.942357 1.334540 1.627658 0.000002 -0.000011 -0.000026
 22   -0.246060 -0.011889 0.516521 -0.000011 0.000031 0.000025
 23   3.942374 1.334565 -1.631083 0.000019 0.000002 -0.000024
 24   -0.246150 -0.011872 -0.516511 -0.000005 -0.000006 0.000048
 25   4.941364 1.997338 1.629330 0.000018 -0.000001 -0.000024
 26   4.941382 1.997366 -1.629410 -0.000001 0.000005 -0.000024
 27   2.914462 1.619264 1.514501 -0.000019 -0.000022 -0.000050
 28   2.916892 1.618870 -1.501142 -0.000002 -0.000009 -0.000024
 29   8.824059 0.150544 0.091743 0.000006 -0.000231 -0.174534
 30   2.111085 -0.561179 1.784320 -0.000008 -0.000682 0.000024
 31   2.121290 -0.561289 -1.853599 0.000000 0.000000 -0.000002
 32   -0.814395 -0.093824 3.127092 0.564266 -3.064250 -0.563643
 33   14.298673 -0.408176 0.471578 -0.006284 -0.010019 -0.413614
 34   15.835795 0.581398 0.242756 -0.007436 -0.212263 -0.117891
 35   -0.815868 -0.091229 -3.114430 -0.120039 3.021422 -0.057358
 36   14.294526 -0.410349 -0.467541 0.000668 0.012859 -0.799565
 37   15.834409 0.579420 -0.284600 -0.169247 -0.012731 0.676454
 38   1.139685 -3.453749 -2.823813 0.000000 0.000000 0.000001
 39   -4.457742 -1.054854 -0.746180 0.000000 0.000000 0.000000
 40   1.118101 -3.449769 3.237290 0.000000 0.000001 0.000000
 41   -4.433840 -1.059130 0.959566 -0.000001 0.000000 0.000000
 42   -0.657468 1.697302 -2.688614 0.000000 0.000002 0.000000
 43   -0.664068 1.698578 2.869377 0.000000 0.000002 0.000000
time 8
  0   -0.010486 -0.546892 -0.601210 0.000000 0.000000 -1.571354
  1   -1.093036 0.000002 -0.326057 -1.570808 -1.570749 0.000022
  2   2.262337 0.113614 0.064702 0.000292 0.000073 -0.265998
  3   2.380047 0.353302 0.047440 0.039408 0.003376 -0.178140
  4   2.033756 0.190472 -0.000128 -0.138274 0.021788 -0.047001
  5   2.451511 0.204909 -0.003447 -0.094776 -0.051601 -0.038498
  6   7.247600 -0.397300 -0.109469 0.013580 -0.033140 0.514008
  7   -2.022252 -0.104661 3.136172 1.238875 -1.024584 -4.799517
  8   1.168026 -0.537438 -0.063437 -0.941632 0.563285 -0.745460
  9   6.790376 -0.619176 0.015206 0.056875 -0.178615 -1.232536
 10   8.637599 0.544015 -0.090417 -3.988549 0.202875 -0.503999
 11   6.790465 -0.619039 0.017802 0.018752 -0.145591 -0.874611
 12   -2.022474 -0.104699 -2.873818 -1.163334 1.764390 -4.903164
 13   1.167898 -0.537463 0.063297 0.392886 -0.817889 -1.075007
 14   7.002743 -0.617765 -0.183752 0.370234 -0.305535 -1.904143
 15   8.209042 0.615527 -0.255885 2.234976 0.390037 0.543634
 16   7.002735 -0.617911 -0.183641 0.214793 -0.286245 -1.329750
 17   1.574674 0.609930 -0.000899 0.254777 0.315535 -0.043807
 18   -0.602177 0.511412 -0.000006 0.000000 0.000000 0.000000
 19   3.673773 0.177020 1.119313 -0.000002 -0.000014 -0.174510
 20   3.673767 0.176993 -1.117566 0.000007 -0.000003 -0.174546
 21   3.942357 1.334540 1.627658 0.000002 -0.000011 -0.000026
 22   -0.246060 -0.011889 0.516521 -0.000011 0.000031 0.000025
 23   3.942374 1.334565 -1.631083 0.000019 0.000002 -0.000024
 24   -0.246150 -0.011872 -0.516511 -0.000005 -0.000006 0.000048
 25   4.941364 1.997338 1.629330 0.000018 -0.000001 -0.000024
 26   4.941382 1.997366 -1.629410 -0.000001 0.000005 -0.000024
 27   2.914462 1.619264 1.514501 -0.000019 -0.000022 -0.000050
 28   2.916892 1.618870 -1.501142 -0.000002 -0.000009 -0.000024
 29   8.824059 0.150544 0.091743 0.000006 -0.000231 -0.174534
 30   2.111085 -0.561179 1.784320 -0.000008 -0.000682 0.000024
 31   2.121290 -0.561289 -1.853599 0.000000 0.000000 -0.000002
 32   -0.814395 -0.093824 3.127092 0.564266 -3.064250 -0.563643
 33   14.298673 -0.408176 0.471578 -0.006284 -0.010019 -0.413614
 34   15.835795 0.581398 0.242756 -0.007436 -0.212263 -0.117891
 35   -0.815868 -0.091229 -3.114430 -0.120039 3.021422 -0.057358
 36   14.294526 -0.410349 -0.467541 0.000668 0.012859 -0.799565
 37   15.834409 0.579420 -0.284600 -0.169247 -0.012731 0.676454
 38   1.139685 -3.453749 -2.823813 0.000000 0.000000 0.000001
 39   -4.457742 -1.054854 -0.746180 0.000000 0.000000 0.000000
 40   1.118101 -3.449769 3.237290 0.000000 0.000001 0.000000
 41   -4.433840 -1.059130 0.959566 -0.000001 0.000000 0.000000
 42   -0.657468 1.697302 -2.688614 0.000000 0.000002 0.000000
 43   -0.664068 1.698578 2.869377 0.000000 0.000002 0.000000
time 9
  0   -0.010486 -0.546892 -0.601210 0.000000 0.000000 -1.571354
  1   -1.093036 0.000002 -0.326057 -1.570808 -1.570749 0.000022
  2   2.262337 0.113614 0.064702 0.000292 0.000073 -0.265998
  3   2.380047 0.353302 0.047440 0.034877 0.002968 -0.183262
  4   2.033756 0.190472 -0.000128 -0.142737 0.021249 -0.058020
  5   2.451511 0.204909 -0.003447 -0.100921 -0.049903 -0.046720
  6   7.247600 -0.397300 -0.109469 0.011374 -0.029941 0.511822
  7   -2.022252 -0.104661 3.136172 1.238875 -1.024584 -4.799517
  8   1.168026 -0.537438 -0.063437 -0.964729 0.516543 -0.778735
  9   6.790376 -0.619176 0.015206 0.056653 -0.177547 -1.207179
 10   8.637599 0.544015 -0.090417 -3.988549 0.202875 -0.503999
 11   6.790465 -0.619039 0.017802 0.019190 -0.144596 -0.856847
 12   -2.022474 -0.104699 -2.873818 -1.163334 1.764390 -4.903164
 13   1.167898 -0.537463 0.063297 0.417631 -0.801514 -1.074704
 14   7.002743 -0.617765 -0.183752 0.369722 -0.304967 -1.917179
 15   8.209042 0.615527 -0.255885 2.234976 0.390037 0.543634
 16   7.002735 -0.617911 -0.183641 0.214087 -0.286358 -1.338967
 17   1.574674 0.609930 -0.000899 0.254777 0.315535 -0.043807
 18   -0.602177 0.511412 -0.000006 0.000000 0.000000 0.000000
 19   3.673773 0.177020 1.119313 -0.000002 -0.000014 -0.174510
 20   3.673767 0.176993 -1.117566 0.000007 -0.000003 -0.174546
 21   3.942357 1.334540 1.627658 0.000002 -0.000011 -0.000026
 22   -0.246060 -0.011889 0.516521 -0.000011 0.000031 0.000025
 23   3.942374 1.334565 -1.631083 0.000019 0.000002 -0.000024
 24   -0.246150 -0.011872 -0.516511 -0.000005 -0.000006 0.000048
 25   4.941364 1.997338 1.629330 0.000018 -0.000001 -0.000024
 26   4.941382 1.997366 -1.629410 -0.000001 0.000005 -0.000024
 27   2.914462 1.619264 1.514501 -0.000019 -0.000022 -0.000050
 28   2.916892 1.618870 -1.501142 -0.000002 -0.000009 -0.000024
 29   8.824059 0.150544 0.091743 0.000006 -0.000231 -0.174534
 30   2.111085 -0.561179 1.784320 -0.000008 -0.000682 0.000024
 31   2.121290 -0.561289 -1.853599 0.000000 0.000000 -0.000002
 32   -0.814395 -0.093824 3.127092 0.564266 -3.064250 -0.563643
 33   14.298673 -0.408176 0.471578 -0.006284 -0.010019 -0.413614
 34   15.835795 0.581398 0.242756 -0.007436 -0.212263 -0.117891
 35   -0.815868 -0.091229 -3.114430 -0.120039 3.021422 -0.057358
 36   14.294526 -0.410349 -0.467541 0.000668 0.012859 -0.799565
 37   15.834409 0.579420 -0.284600 -0.169247 -0.012731 0.676454
 38   1.139685 -3.453749 -2.823813 0.000000 0.000000 0.000001
 39   -4.457742 -1.054854 -0.746180 0.000000 0.000000 0.000000
 40   1.118101 -3.449769 3.237290 0.000000 0.000001 0.000000
 41   -4.433840 -1.059130 0.959566 -0.000001 0.000000 0.000000
 42   -0.657468 1.697302 -2.688614 0.000000 0.000002 0.000000
 43   -0.664068 1.698578 2.869377 0.000000 0.000002 0.000000
time 10
  0   -0.010486 -0.546892 -0.601210 0.000000 0.000000 -1.571354
  1   -1.093036 0.000002 -0.326057 -1.570808 -1.570749 0.000022
  2   2.262337 0.113614 0.064702 0.000292 0.000073 -0.265998
  3   2.380047 0.353302 0.047440 0.030302 0.002597 -0.188445
  4   2.033756 0.190472 -0.000128 -0.147237 0.020662 -0.069366
  5   2.451511 0.204909 -0.003447 -0.107066 -0.048141 -0.055165
  6   7.247600 -0.397300 -0.109469 0.009181 -0.026693 0.509573
  7   -2.022252 -0.104661 3.136172 1.238875 -1.024584 -4.799517
  8   1.168026 -0.537438 -0.063437 -0.984979 0.468492 -0.814667
  9   6.790376 -0.619176 0.015206 0.056542 -0.175812 -1.165370
 10   8.637599 0.544015 -0.090417 -3.988549 0.202875 -0.503999
 11   6.790465 -0.619039 0.017802 0.019862 -0.142834 -0.827779
 12   -2.022474 -0.104699 -2.873818 -1.163334 1.764390 -4.903164
 13   1.167898 -0.537463 0.063297 0.444906 -0.784630 -1.075370
 14   7.002743 -0.617765 -0.183752 0.369437 -0.304683 -1.923532
 15   8.209042 0.615527 -0.255885 2.234976 0.390037 0.543634
 16   7.002735 -0.617911 -0.183641 0.213805 -0.286414 -1.343327
 17   1.574674 0.609930 -0.000899 0.254777 0.315535 -0.043807
 18   -0.602177 0.511412 -0.000006 0.000000 0.000000 0.000000
 19   3.673773 0.177020 1.119313 -0.000002 -0.000014 -0.174510
 20   3.673767 0.176993 -1.117566 0.000007 -0.000003 -0.174546
 21   3.942357 1.334540 1.627658 0.000002 -0.000011 -0.000026
 22   -0.246060 -0.011889 0.516521 -0.000011 0.000031 0.000025
 23   3.942374 1.334565 -1.631083 0.000019 0.000002 -0.000024
 24   -0.246150 -0.011872 -0.516511 -0.000005 -0.000006 0.000048
 25   4.941364 1.997338 1.629330 0.000018 -0.000001 -0.000024
 26   4.941382 1.997366 -1.629410 -0.000001 0.000005 -0.000024
 27   2.914462 1.619264 1.514501 -0.000019 -0.000022 -0.000050
 28   2.916892 1.618870 -1.501142 -0.000002 -0.000009 -0.000024
 29   8.824059 0.150544 0.091743 0.000006 -0.000231 -0.174534
 30   2.111085 -0.561179 1.784320 -0.000008 -0.000682 0.000024
 31   2.121290 -0.561289 -1.853599 0.000000 0.000000 -0.000002
 32   -0.814395 -0.093824 3.127092 0.564266 -3.064250 -0.563643
 33   14.298673 -0.408176 0.471578 -0.006284 -0.010019 -0.413614
 34   15.835795 0.581398 0.242756 -0.007436 -0.212263 -0.117891
 35   -0.815868 -0.091229 -3.114430 -0.120039 3.021422 -0.057358
 36   14.294526 -0.410349 -0.467541 0.000668 0.012859 -0.799565
 37   15.834409 0.579420 -0.284600 -0.169247 -0.012731 0.676454
 38   1.139685 -3.453749 -2.823813 0.000000 0.000000 0.000001
 39   -4.457742 -1.054854 -0.746180 0.000000 0.000000 0.000000
 40   1.118101 -3.449769 3.237290 0.000000 0.000001 0.000000
 41   -4.433840 -1.059130 0.959566 -0.000001 0.000000 0.000000
 42   -0.657468 1.697302 -2.688614 0.000000 0.000002 0.000000
 43   -0.664068 1.698578 2.869377 0.000000 0.000002 0.000000
time 11
  0   -0.010486 -0.546892 -0.601210 0.000000 0.000000 -1.571354
  1   -1.093036 0.000002 -0.326057 -1.570808 -1.570749 0.000022
  2   2.262337 0.113614 0.064702 0.000292 0.000073 -0.265998
  3   2.380047 0.353302 0.047440 0.025802 0.002177 -0.193628
  4   2.033756 0.190472 -0.000128 -0.151737 0.020110 -0.080675
  5   2.451511 0.204909 -0.003447 -0.113314 -0.046418 -0.063511
  6   7.247600 -0.397300 -0.109469 0.007036 -0.023409 0.507324
  7   -2.022252 -0.104661 3.136172 1.238875 -1.024584 -4.799517
  8   1.168026 -0.537438 -0.063437 -1.001622 0.421247 -0.852117
  9   6.790376 -0.619176 0.015206 0.056210 -0.172875 -1.107562
 10   8.637599 0.544015 -0.090417 -3.988549 0.202875 -0.503999
 11   6.790465 -0.619039 0.017802 0.020913 -0.140218 -0.787521
 12   -2.022474 -0.104699 -2.873818 -1.163334 1.764390 -4.903164
 13   1.167898 -0.537463 0.063297 0.472743 -0.768001 -1.076702
 14   7.002743 -0.617765 -0.183752 0.369437 -0.304740 -1.922789
 15   8.209042 0.615527 -0.255885 2.234976 0.390037 0.543634
 16   7.002735 -0.617911 -0.183641 0.213852 -0.286414 -1.342831
 17   1.574674 0.609930 -0.000899 0.254777 0.315535 -0.043807
 18   -0.602177 0.511412 -0.000006 0.000000 0.000000 0.000000
 19   3.673773 0.177020 1.119313 -0.000002 -0.000014 -0.174510
 20   3.673767 0.176993 -1.117566 0.000007 -0.000003 -0.174546
 21   3.942357 1.334540 1.627658 0.000002 -0.000011 -0.000026
 22   -0.246060 -0.011889 0.516521 -0.000011 0.000031 0.000025
 23   3.942374 1.334565 -1.631083 0.000019 0.000002 -0.000024
 24   -0.246150 -0.011872 -0.516511 -0.000005 -0.000006 0.000048
 25   4.941364 1.997338 1.629330 0.000018 -0.000001 -0.000024
 26   4.941382 1.997366 -1.629410 -0.000001 0.000005 -0.000024
 27   2.914462 1.619264 1.514501 -0.000019 -0.000022 -0.000050
 28   2.916892 1.618870 -1.501142 -0.000002 -0.000009 -0.000024
 29   8.824059 0.150544 0.091743 0.000006 -0.000231 -0.174534
 30   2.111085 -0.561179 1.784320 -0.000008 -0.000682 0.000024
 31   2.121290 -0.561289 -1.853599 0.000000 0.000000 -0.000002
 32   -0.814395 -0.093824 3.127092 0.564266 -3.064250 -0.563643
 33   14.298673 -0.408176 0.471578 -0.006284 -0.010019 -0.413614
 34   15.835795 0.581398 0.242756 -0.007436 -0.212263 -0.117891
 35   -0.815868 -0.091229 -3.114430 -0.120039 3.021422 -0.057358
 36   14.294526 -0.410349 -0.467541 0.000668 0.012859 -0.799565
 37   15.834409 0.579420 -0.284600 -0.169247 -0.012731 0.676454
 38   1.139685 -3.453749 -2.823813 0.000000 0.000000 0.000001
 39   -4.457742 -1.054854 -0.746180 0.000000 0.000000 0.000000
 40   1.118101 -3.449769 3.237290 0.000000 0.000001 0.000000
 41   -4.433840 -1.059130 0.959566 -0.000001 0.000000 0.000000
 42   -0.657468 1.697302 -2.688614 0.000000 0.000002 0.000000
 43   -0.664068 1.698578 2.869377 0.000000 0.000002 0.000000
time 12
  0   -0.010486 -0.546892 -0.601210 0.000000 0.000000 -1.571354
  1   -1.093036 0.000002 -0.326057 -1.570808 -1.570749 0.000022
  2   2.262337 0.113614 0.064702 0.000292 0.000073 -0.265998
  3   2.380047 0.353302 0.047440 0.021286 0.001818 -0.198648
  4   2.033756 0.190472 -0.000128 -0.156108 0.019595 -0.091730
  5   2.451511 0.204909 -0.003447 -0.119373 -0.044707 -0.071758
  6   7.247600 -0.397300 -0.109469 0.004891 -0.020185 0.505107
  7   -2.022252 -0.104661 3.136172 1.238875 -1.024584 -4.799517
  8   1.168026 -0.537438 -0.063437 -1.013202 0.379134 -0.886594
  9   6.790376 -0.619176 0.015206 0.056154 -0.169138 -1.042962
 10   8.637599 0.544015 -0.090417 -3.988549 0.202875 -0.503999
 11   6.790465 -0.619039 0.017802 0.022168 -0.136921 -0.742593
 12   -2.022474 -0.104699 -2.873818 -1.163334 1.764390 -4.903164
 13   1.167898 -0.537463 0.063297 0.497979 -0.753253 -1.078397
 14   7.002743 -0.617765 -0.183752 0.369779 -0.305024 -1.916189
 15   8.209042 0.615527 -0.255885 2.234976 0.390037 0.543634
 16   7.002735 -0.617911 -0.183641 0.214181 -0.286358 -1.338305
 17   1.574674 0.609930 -0.000899 0.254777 0.315535 -0.043807
 18   -0.602177 0.511412 -0.000006 0.000000 0.000000 0.000000
 19   3.673773 0.177020 1.119313 -0.000002 -0.000014 -0.174510
 20   3.673767 0.176993 -1.117566 0.000007 -0.000003 -0.174546
 21   3.942357 1.334540 1.627658 0.000002 -0.000011 -0.000026
 22   -0.246060 -0.011889 0.516521 -0.000011 0.000031 0.000025
 23   3.942374 1.334565 -1.631083 0.000019 0.000002 -0.000024
 24   -0.246150 -0.011872 -0.516511 -0.000005 -0.000006 0.000048
 25   4.941364 1.997338 1.629330 0.000018 -0.000001 -0.000024
 26   4.941382 1.997366 -1.629410 -0.000001 0.000005 -0.000024
 27   2.914462 1.619264 1.514501 -0.000019 -0.000022 -0.000050
 28   2.916892 1.618870 -1.501142 -0.000002 -0.000009 -0.000024
 29   8.824059 0.150544 0.091743 0.000006 -0.000231 -0.174534
 30   2.111085 -0.561179 1.784320 -0.000008 -0.000682 0.000024
 31   2.121290 -0.561289 -1.853599 0.000000 0.000000 -0.000002
 32   -0.814395 -0.093824 3.127092 0.564266 -3.064250 -0.563643
 33   14.298673 -0.408176 0.471578 -0.006284 -0.010019 -0.413614
 34   15.835795 0.581398 0.242756 -0.007436 -0.212263 -0.117891
 35   -0.815868 -0.091229 -3.114430 -0.120039 3.021422 -0.057358
 36   14.294526 -0.410349 -0.467541 0.000668 0.012859 -0.799565
 37   15.834409 0.579420 -0.284600 -0.169247 -0.012731 0.676454
 38   1.139685 -3.453749 -2.823813 0.000000 0.000000 0.000001
 39   -4.457742 -1.054854 -0.746180 0.000000 0.000000 0.000000
 40   1.118101 -3.449769 3.237290 0.000000 0.000001 0.000000
 41   -4.433840 -1.059130 0.959566 -0.000001 0.000000 0.000000
 42   -0.657468 1.697302 -2.688614 0.000000 0.000002 0.000000
 43   -0.664068 1.698578 2.869377 0.000000 0.000002 0.000000
time 13
  0   -0.010486 -0.546892 -0.601210 0.000000 0.000000 -1.571354
  1   -1.093036 0.000002 -0.326057 -1.570808 -1.570749 0.000022
  2   2.262337 0.113614 0.064702 0.000292 0.000073 -0.265998
  3   2.380047 0.353302 0.047440 0.017011 0.001410 -0.203545
  4   2.033756 0.190472 -0.000128 -0.160331 0.019068 -0.102314
  5   2.451511 0.204909 -0.003447 -0.125176 -0.043115 -0.079559
  6   7.247600 -0.397300 -0.109469 0.002769 -0.017129 0.503016
  7   -2.022252 -0.104661 3.136172 1.238875 -1.024584 -4.799517
  8   1.168026 -0.537438 -0.063437 -1.020353 0.343763 -0.918225
  9   6.790376 -0.619176 0.015206 0.056099 -0.164466 -0.976928
 10   8.637599 0.544015 -0.090417 -3.988549 0.202875 -0.503999
 11   6.790465 -0.619039 0.017802 0.023511 -0.132998 -0.696568
 12   -2.022474 -0.104699 -2.873818 -1.163334 1.764390 -4.903164
 13   1.167898 -0.537463 0.063297 0.517241 -0.741404 -1.077186
 14   7.002743 -0.617765 -0.183752 0.370120 -0.305422 -1.907691
 15   8.209042 0.615527 -0.255885 2.234976 0.390037 0.543634
 16   7.002735 -0.617911 -0.183641 0.214605 -0.286245 -1.332289
 17   1.574674 0.609930 -0.000899 0.254777 0.315535 -0.043807
 18   -0.602177 0.511412 -0.000006 0.000000 0.000000 0.000000
 19   3.673773 0.177020 1.119313 -0.000002 -0.000014 -0.174510
 20   3.673767 0.176993 -1.117566 0.000007 -0.000003 -0.174546
 21   3.942357 1.334540 1.627658 0.000002 -0.000011 -0.000026
 22   -0.246060 -0.011889 0.516521 -0.000011 0.000031 0.000025
 23   3.942374 1.334565 -1.631083 0.000019 0.000002 -0.000024
 24   -0.246150 -0.011872 -0.516511 -0.000005 -0.000006 0.000048
 25   4.941364 1.997338 1.629330 0.000018 -0.000001 -0.000024
 26   4.941382 1.997366 -1.629410 -0.000001 0.000005 -0.000024
 27   2.914462 1.619264 1.514501 -0.000019 -0.000022 -0.000050
 28   2.916892 1.618870 -1.501142 -0.000002 -0.000009 -0.000024
 29   8.824059 0.150544 0.091743 0.000006 -0.000231 -0.174534
 30   2.111085 -0.561179 1.784320 -0.000008 -0.000682 0.000024
 31   2.121290 -0.561289 -1.853599 0.000000 0.000000 -0.000002
 32   -0.814395 -0.093824 3.127092 0.564266 -3.064250 -0.563643
 33   14.298673 -0.408176 0.471578 -0.006284 -0.010019 -0.413614
 34   15.835795 0.581398 0.242756 -0.007436 -0.212263 -0.117891
 35   -0.815868 -0.091229 -3.114430 -0.120039 3.021422 -0.057358
 36   14.294526 -0.410349 -0.467541 0.000668 0.012859 -0.799565
 37   15.834409 0.579420 -0.284600 -0.169247 -0.012731 0.676454
 38   1.139685 -3.453749 -2.823813 0.000000 0.000000 0.000001
 39   -4.457742 -1.054854 -0.746180 0.000000 0.000000 0.000000
 40   1.118101 -3.449769 3.237290 0.000000 0.000001 0.000000
 41   -4.433840 -1.059130 0.959566 -0.000001 0.000000 0.000000
 42   -0.657468 1.697302 -2.688614 0.000000 0.000002 0.000000
 43   -0.664068 1.698578 2.869377 0.000000 0.000002 0.000000
time 14
  0   -0.010486 -0.546892 -0.601210 0.000000 0.000000 -1.571354
  1   -1.093036 0.000002 -0.326057 -1.570808 -1.570749 0.000022
  2   2.262337 0.113614 0.064702 0.000292 0.000073 -0.265998
  3   2.380047 0.353302 0.047440 0.013081 0.001087 -0.208075
  4   2.033756 0.190472 -0.000128 -0.164241 0.018564 -0.112246
  5   2.451511 0.204909 -0.003447 -0.130602 -0.041600 -0.086939
  6   7.247600 -0.397300 -0.109469 0.000888 -0.014253 0.501052
  7   -2.022252 -0.104661 3.136172 1.238875 -1.024584 -4.799517
  8   1.168026 -0.537438 -0.063437 -1.023327 0.313927 -0.949981
  9   6.790376 -0.619176 0.015206 0.056099 -0.158392 -0.900706
 10   8.637599 0.544015 -0.090417 -3.988549 0.202875 -0.503999
 11   6.790465 -0.619039 0.017802 0.025088 -0.128024 -0.643507
 12   -2.022474 -0.104699 -2.873818 -1.163334 1.764390 -4.903164
 13   1.167898 -0.537463 0.063297 0.531862 -0.731284 -1.073796
 14   7.002743 -0.617765 -0.183752 0.370746 -0.306046 -1.893500
 15   8.209042 0.615527 -0.255885 2.234976 0.390037 0.543634
 16   7.002735 -0.617911 -0.183641 0.215311 -0.286132 -1.322354
 17   1.574674 0.609930 -0.000899 0.254777 0.315535 -0.043807
 18   -0.602177 0.511412 -0.000006 0.000000 0.000000 0.000000
 19   3.673773 0.177020 1.119313 -0.000002 -0.000014 -0.174510
 20   3.673767 0.176993 -1.117566 0.000007 -0.000003 -0.174546
 21   3.942357 1.334540 1.627658 0.000002 -0.000011 -0.000026
 22   -0.246060 -0.011889 0.516521 -0.000011 0.000031 0.000025
 23   3.942374 1.334565 -1.631083 0.000019 0.000002 -0.000024
 24   -0.246150 -0.011872 -0.516511 -0.000005 -0.000006 0.000048
 25   4.941364 1.997338 1.629330 0.000018 -0.000001 -0.000024
 26   4.941382 1.997366 -1.629410 -0.000001 0.000005 -0.000024
 27   2.914462 1.619264 1.514501 -0.000019 -0.000022 -0.000050
 28   2.916892 1.618870 -1.501142 -0.000002 -0.000009 -0.000024
 29   8.824059 0.150544 0.091743 0.000006 -0.000231 -0.174534
 30   2.111085 -0.561179 1.784320 -0.000008 -0.000682 0.000024
 31   2.121290 -0.561289 -1.853599 0.000000 0.000000 -0.000002
 32   -0.814395 -0.093824 3.127092 0.564266 -3.064250 -0.563643
 33   14.298673 -0.408176 0.471578 -0.006284 -0.010019 -0.413614
 34   15.835795 0.581398 0.242756 -0.007436 -0.212263 -0.117891
 35   -0.815868 -0.091229 -3.114430 -0.120039 3.021422 -0.057358
 36   14.294526 -0.410349 -0.467541 0.000668 0.012859 -0.799565
 37   15.834409 0.579420 -0.284600 -0.169247 -0.012731 0.676454
 38   1.139685 -3.453749 -2.823813 0.000000 0.000000 0.000001
 39   -4.457742 -1.054854 -0.746180 0.000000 0.000000 0.000000
 40   1.118101 -3.449769 3.237290 0.000000 0.000001 0.000000
 41   -4.433840 -1.059130 0.959566 -0.000001 0.000000 0.000000
 42   -0.657468 1.697302 -2.688614 0.000000 0.000002 0.000000
 43   -0.664068 1.698578 2.869377 0.000000 0.000002 0.000000
time 15
  0   -0.010486 -0.546892 -0.601210 0.000000 0.000000 -1.571354
  1   -1.093036 0.000002 -0.326057 -1.570808 -1.570749 0.000022
  2   2.262337 0.113614 0.064702 0.000292 0.000073 -0.265998
  3   2.380047 0.353302 0.047440 0.009466 0.000787 -0.212197
  4   2.033756 0.190472 -0.000128 -0.167819 0.018157 -0.121235
  5   2.451511 0.204909 -0.003447 -0.135497 -0.040190 -0.093601
  6   7.247600 -0.397300 -0.109469 -0.000838 -0.011616 0.499215
  7   -2.022252 -0.104661 3.136172 1.238875 -1.024584 -4.799517
  8   1.168026 -0.537438 -0.063437 -1.022821 0.290732 -0.981548
  9   6.790376 -0.619176 0.015206 0.056210 -0.150784 -0.816559
 10   8.637599 0.544015 -0.090417 -3.988549 0.202875 -0.503999
 11   6.790465 -0.619039 0.017802 0.026957 -0.121969 -0.584967
 12   -2.022474 -0.104699 -2.873818 -1.163334 1.764390 -4.903164
 13   1.167898 -0.537463 0.063297 0.540368 -0.724622 -1.067803
 14   7.002743 -0.617765 -0.183752 0.371543 -0.306898 -1.874771
 15   8.209042 0.615527 -0.255885 2.234976 0.390037 0.543634
 16   7.002735 -0.617911 -0.183641 0.216300 -0.286020 -1.309218
 17   1.574674 0.609930 -0.000899 0.254777 0.315535 -0.043807
 18   -0.602177 0.511412 -0.000006 0.000000 0.000000 0.000000
 19   3.673773 0.177020 1.119313 -0.000002 -0.000014 -0.174510
 20   3.673767 0.176993 -1.117566 0.000007 -0.000003 -0.174546
 21   3.942357 1.334540 1.627658 0.000002 -0.000011 -0.000026
 22   -0.246060 -0.011889 0.516521 -0.000011 0.000031 0.000025
 23   3.942374 1.334565 -1.631083 0.000019 0.000002 -0.000024
 24   -0.246150 -0.011872 -0.516511 -0.000005 -0.000006 0.000048
 25   4.941364 1.997338 1.629330 0.000018 -0.000001 -0.000024
 26   4.941382 1.997366 -1.629410 -0.000001 0.000005 -0.000024
 27   2.914462 1.619264 1.514501 -0.000019 -0.000022 -0.000050
 28   2.916892 1.618870 -1.501142 -0.000002 -0.000009 -0.000024
 29   8.824059 0.150544 0.091743 0.000006 -0.000231 -0.174534
 30   2.111085 -0.561179 1.784320 -0.000008 -0.000682 0.000024
 31   2.121290 -0.561289 -1.853599 0.000000 0.000000 -0.000002
 32   -0.814395 -0.093824 3.127092 0.564266 -3.064250 -0.563643
 33   14.298673 -0.408176 0.471578 -0.006284 -0.010019 -0.413614
 34   15.835795 0.581398 0.242756 -0.007436 -0.212263 -0.117891
 35   -0.815868 -0.091229 -3.114430 -0.120039 3.021422 -0.057358
 36   14.294526 -0.410349 -0.467541 0.000668 0.012859 -0.799565
 37   15.834409 0.579420 -0.284600 -0.169247 -0.012731 0.676454
 38   1.139685 -3.453749 -2.823813 0.000000 0.000000 0.000001
 39   -4.457742 -1.054854 -0.746180 0.000000 0.000000 0.000000
 40   1.118101 -3.449769 3.237290 0.000000 0.000001 0.000000
 41   -4.433840 -1.059130 0.959566 -0.000001 0.000000 0.000000
 42   -0.657468 1.697302 -2.688614 0.000000 0.000002 0.000000
 43   -0.664068 1.698578 2.869377 0.000000 0.000002 0.000000
time 16
  0   -0.010486 -0.546892 -0.601210 0.000000 0.000000 -1.571354
  1   -1.093036 0.000002 -0.326057 -1.570808 -1.570749 0.000022
  2   2.262337 0.113614 0.064702 0.000292 0.000073 -0.265998
  3   2.380047 0.353302 0.047440 0.006225 0.000487 -0.215809
  4   2.033756 0.190472 -0.000128 -0.170917 0.017737 -0.129064
  5   2.451511 0.204909 -0.003447 -0.139742 -0.039002 -0.099495
  6   7.247600 -0.397300 -0.109469 -0.002372 -0.009351 0.497663
  7   -2.022252 -0.104661 3.136172 1.238875 -1.024584 -4.799517
  8   1.168026 -0.537438 -0.063437 -1.019277 0.279059 -1.008814
  9   6.790376 -0.619176 0.015206 0.056542 -0.143042 -0.740639
 10   8.637599 0.544015 -0.090417 -3.988549 0.202875 -0.503999
 11   6.790465 -0.619039 0.017802 0.028621 -0.115972 -0.531964
 12   -2.022474 -0.104699 -2.873818 -1.163334 1.764390 -4.903164
 13   1.167898 -0.537463 0.063297 0.539173 -0.722995 -1.057270
 14   7.002743 -0.617765 -0.183752 0.372284 -0.307693 -1.856950
 15   8.209042 0.615527 -0.255885 2.234976 0.390037 0.543634
 16   7.002735 -0.617911 -0.183641 0.217194 -0.285851 -1.296745
 17   1.574674 0.609930 -0.000899 0.254777 0.315535 -0.043807
 18   -0.602177 0.511412 -0.000006 0.000000 0.000000 0.000000
 19   3.673773 0.177020 1.119313 -0.000002 -0.000014 -0.174510
 20   3.673767 0.176993 -1.117566 0.000007 -0.000003 -0.174546
 21   3.942357 1.334540 1.627658 0.000002 -0.000011 -0.000026
 22   -0.246060 -0.011889 0.516521 -0.000011 0.000031 0.000025
 23   3.942374 1.334565 -1.631083 0.000019 0.000002 -0.000024
 24   -0.246150 -0.011872 -0.516511 -0.000005 -0.000006 0.000048
 25   4.941364 1.997338 1.629330 0.000018 -0.000001 -0.000024
 26   4.941382 1.997366 -1.629410 -0.000001 0.000005 -0.000024
 27   2.914462 1.619264 1.514501 -0.000019 -0.000022 -0.000050
 28   2.916892 1.618870 -1.501142 -0.000002 -0.000009 -0.000024
 29   8.824059 0.150544 0.091743 0.000006 -0.000231 -0.174534
 30   2.111085 -0.561179 1.784320 -0.000008 -0.000682 0.000024
 31   2.121290 -0.561289 -1.853599 0.000000 0.000000 -0.000002
 32   -0.814395 -0.093824 3.127092 0.564266 -3.064250 -0.563643
 33   14.298673 -0.408176 0.471578 -0.006284 -0.010019 -0.413614
 34   15.835795 0.581398 0.242756 -0.007436 -0.212263 -0.117891
 35   -0.815868 -0.091229 -3.114430 -0.120039 3.021422 -0.057358
 36   14.294526 -0.410349 -0.467541 0.000668 0.012859 -0.799565
 37   15.834409 0.579420 -0.284600 -0.169247 -0.012731 0.676454
 38   1.139685 -3.453749 -2.823813 0.000000 0.000000 0.000001
 39   -4.457742 -1.054854 -0.746180 0.000000 0.000000 0.000000
 40   1.118101 -3.449769 3.237290 0.000000 0.000001 0.000000
 41   -4.433840 -1.059130 0.959566 -0.000001 0.000000 0.000000
 42   -0.657468 1.697302 -2.688614 0.000000 0.000002 0.000000
 43   -0.664068 1.698578 2.869377 0.000000 0.000002 0.000000
time 17
  0   -0.010486 -0.546892 -0.601210 0.000000 0.000000 -1.571354
  1   -1.093036 0.000002 -0.326057 -1.570808 -1.570749 0.000022
  2   2.262337 0.113614 0.064702 0.000292 0.000073 -0.265998
  3   2.380047 0.353302 0.047440 0.003600 0.000296 -0.218788
  4   2.033756 0.190472 -0.000128 -0.173481 0.017450 -0.135625
  5   2.451511 0.204909 -0.003447 -0.143354 -0.037984 -0.104275
  6   7.247600 -0.397300 -0.109469 -0.003594 -0.007421 0.496396
  7   -2.022252 -0.104661 3.136172 1.238875 -1.024584 -4.799517
  8   1.168026 -0.537438 -0.063437 -1.010038 0.290581 -1.034750
  9   6.790376 -0.619176 0.015206 0.056875 -0.134967 -0.666681
 10   8.637599 0.544015 -0.090417 -3.988549 0.202875 -0.503999
 11   6.790465 -0.619039 0.017802 0.030227 -0.109661 -0.480518
 12   -2.022474 -0.104699 -2.873818 -1.163334 1.764390 -4.903164
 13   1.167898 -0.537463 0.063297 0.514429 -0.731182 -1.032330
 14   7.002743 -0.617765 -0.183752 0.373081 -0.308261 -1.837644
 15   8.209042 0.615527 -0.255885 2.234976 0.390037 0.543634
 16   7.002735 -0.617911 -0.183641 0.218230 -0.285512 -1.283333
 17   1.574674 0.609930 -0.000899 0.254777 0.315535 -0.043807
 18   -0.602177 0.511412 -0.000006 0.000000 0.000000 0.000000
 19   3.673773 0.177020 1.119313 -0.000002 -0.000014 -0.174510
 20   3.673767 0.176993 -1.117566 0.000007 -0.000003 -0.174546
 21   3.942357 1.334540 1.627658 0.000002 -0.000011 -0.000026
 22   -0.246060 -0.011889 0.516521 -0.000011 0.000031 0.000025
 23   3.942374 1.334565 -1.631083 0.000019 0.000002 -0.000024
 24   -0.246150 -0.011872 -0.516511 -0.000005 -0.000006 0.000048
 25   4.941364 1.997338 1.629330 0.000018 -0.000001 -0.000024
 26   4.941382 1.997366 -1.629410 -0.000001 0.000005 -0.000024
 27   2.914462 1.619264 1.514501 -0.000019 -0.000022 -0.000050
 28   2.916892 1.618870 -1.501142 -0.000002 -0.000009 -0.000024
 29   8.824059 0.150544 0.091743 0.000006 -0.000231 -0.174534
 30   2.111085 -0.561179 1.784320 -0.000008 -0.000682 0.000024
 31   2.121290 -0.561289 -1.853599 0.000000 0.000000 -0.000002
 32   -0.814395 -0.093824 3.127092 0.564266 -3.064250 -0.563643
 33   14.298673 -0.408176 0.471578 -0.006284 -0.010019 -0.413614
 34   15.835795 0.581398 0.242756 -0.007436 -0.212263 -0.117891
 35   -0.815868 -0.091229 -3.114430 -0.120039 3.021422 -0.057358
 36   14.294526 -0.410349 -0.467541 0.000668 0.012859 -0.799565
 37   15.834409 0.579420 -0.284600 -0.169247 -0.012731 0.676454
 38   1.139685 -3.453749 -2.823813 0.000000 0.000000 0.000001
 39   -4.457742 -1.054854 -0.746180 0.000000 0.000000 0.000000
 40   1.118101 -3.449769 3.237290 0.000000 0.000001 0.000000
 41   -4.433840 -1.059130 0.959566 -0.000001 0.000000 0.000000
 42   -0.657468 1.697302 -2.688614 0.000000 0.000002 0.000000
 43   -0.664068 1.698578 2.869377 0.000000 0.000002 0.000000
time 18
  0   -0.010486 -0.546892 -0.601210 0.000000 0.000000 -1.571354
  1   -1.093036 0.000002 -0.326057 -1.570808 -1.570749 0.000022
  2   2.262337 0.113614 0.064702 0.000292 0.000073 -0.265998
  3   2.380047 0.353302 0.047440 0.001620 0.000116 -0.221053
  4   2.033756 0.190472 -0.000128 -0.175417 0.017210 -0.140373
  5   2.451511 0.204909 -0.003447 -0.146041 -0.037239 -0.107965
  6   7.247600 -0.397300 -0.109469 -0.004565 -0.005995 0.495382
  7   -2.022252 -0.104661 3.136172 1.238875 -1.024584 -4.799517
  8   1.168026 -0.537438 -0.063437 -0.998774 0.322732 -1.059106
  9   6.790376 -0.619176 0.015206 0.057319 -0.126557 -0.595968
 10   8.637599 0.544015 -0.090417 -3.988549 0.202875 -0.503999
 11   6.790465 -0.619039 0.017802 0.031716 -0.103237 -0.431206
 12   -2.022474 -0.104699 -2.873818 -1.163334 1.764390 -4.903164
 13   1.167898 -0.537463 0.063297 0.470353 -0.748575 -0.996796
 14   7.002743 -0.617765 -0.183752 0.373992 -0.308431 -1.816935
 15   8.209042 0.615527 -0.255885 2.234976 0.390037 0.543634
 16   7.002735 -0.617911 -0.183641 0.219407 -0.284836 -1.268817
 17   1.574674 0.609930 -0.000899 0.254777 0.315535 -0.043807
 18   -0.602177 0.511412 -0.000006 0.000000 0.000000 0.000000
 19   3.673773 0.177020 1.119313 -0.000002 -0.000014 -0.174510
 20   3.673767 0.176993 -1.117566 0.000007 -0.000003 -0.174546
 21   3.942357 1.334540 1.627658 0.000002 -0.000011 -0.000026
 22   -0.246060 -0.011889 0.516521 -0.000011 0.000031 0.000025
 23   3.942374 1.334565 -1.631083 0.000019 0.000002 -0.000024
 24   -0.246150 -0.011872 -0.516511 -0.000005 -0.000006 0.000048
 25   4.941364 1.997338 1.629330 0.000018 -0.000001 -0.000024
 26   4.941382 1.997366 -1.629410 -0.000001 0.000005 -0.000024
 27   2.914462 1.619264 1.514501 -0.000019 -0.000022 -0.000050
 28   2.916892 1.618870 -1.501142 -0.000002 -0.000009 -0.000024
 29   8.824059 0.150544 0.091743 0.000006 -0.000231 -0.174534
 30   2.111085 -0.561179 1.784320 -0.000008 -0.000682 0.000024
 31   2.121290 -0.561289 -1.853599 0.000000 0.000000 -0.000002
 32   -0.814395 -0.093824 3.127092 0.564266 -3.064250 -0.563643
 33   14.298673 -0.408176 0.471578 -0.006284 -0.010019 -0.413614
 34   15.835795 0.581398 0.242756 -0.007436 -0.212263 -0.117891
 35   -0.815868 -0.091229 -3.114430 -0.120039 3.021422 -0.057358
 36   14.294526 -0.410349 -0.467541 0.000668 0.012859 -0.799565
 37   15.834409 0.579420 -0.284600 -0.169247 -0.012731 0.676454
 38   1.139685 -3.453749 -2.823813 0.000000 0.000000 0.000001
 39   -4.457742 -1.054854 -0.746180 0.000000 0.000000 0.000000
 40   1.118101 -3.449769 3.237290 0.000000 0.000001 0.000000
 41   -4.433840 -1.059130 0.959566 -0.000001 0.000000 0.000000
 42   -0.657468 1.697302 -2.688614 0.000000 0.000002 0.000000
 43   -0.664068 1.698578 2.869377 0.000000 0.000002 0.000000
time 19
  0   -0.010486 -0.546892 -0.601210 0.000000 0.000000 -1.571354
  1   -1.093036 0.000002 -0.326057 -1.570808 -1.570749 0.000022
  2   2.262337 0.113614 0.064702 0.000292 0.000073 -0.265998
  3   2.380047 0.353302 0.047440 0.000360 0.000008 -0.222502
  4   2.033756 0.190472 -0.000128 -0.176653 0.017042 -0.143491
  5   2.451511 0.204909 -0.003447 -0.147736 -0.036769 -0.110293
  6   7.247600 -0.397300 -0.109469 -0.005164 -0.005084 0.494717
  7   -2.022252 -0.104661 3.136172 1.238875 -1.024584 -4.799517
  8   1.168026 -0.537438 -0.063437 -0.992193 0.352669 -1.081500
  9   6.790376 -0.619176 0.015206 0.057763 -0.118749 -0.534462
 10   8.637599 0.544015 -0.090417 -3.988549 0.202875 -0.503999
 11   6.790465 -0.619039 0.017802 0.033059 -0.097296 -0.388296
 12   -2.022474 -0.104699 -2.873818 -1.163334 1.764390 -4.903164
 13   1.167898 -0.537463 0.063297 0.428175 -0.765102 -0.964289
 14   7.002743 -0.617765 -0.183752 0.374675 -0.308658 -1.799609
 15   8.209042 0.615527 -0.255885 2.234976 0.390037 0.543634
 16   7.002735 -0.617911 -0.183641 0.220395 -0.284272 -1.256730
 17   1.574674 0.609930 -0.000899 0.254777 0.315535 -0.043807
 18   -0.602177 0.511412 -0.000006 0.000000 0.000000 0.000000
 19   3.673773 0.177020 1.119313 -0.000002 -0.000014 -0.174510
 20   3.673767 0.176993 -1.117566 0.000007 -0.000003 -0.174546
 21   3.942357 1.334540 1.627658 0.000002 -0.000011 -0.000026
 22   -0.246060 -0.011889 0.516521 -0.000011 0.000031 0.000025
 23   3.942374 1.334565 -1.631083 0.000019 0.000002 -0.000024
 24   -0.246150 -0.011872 -0.516511 -0.000005 -0.000006 0.000048
 25   4.941364 1.997338 1.629330 0.000018 -0.000001 -0.000024
 26   4.941382 1.997366 -1.629410 -0.000001 0.000005 -0.000024
 27   2.914462 1.619264 1.514501 -0.000019 -0.000022 -0.000050
 28   2.916892 1.618870 -1.501142 -0.000002 -0.000009 -0.000024
 29   8.824059 0.150544 0.091743 0.000006 -0.000231 -0.174534
 30   2.111085 -0.561179 1.784320 -0.000008 -0.000682 0.000024
 31   2.121290 -0.561289 -1.853599 0.000000 0.000000 -0.000002
 32   -0.814395 -0.093824 3.127092 0.564266 -3.064250 -0.563643
 33   14.298673 -0.408176 0.471578 -0.006284 -0.010019 -0.413614
 34   15.835795 0.581398 0.242756 -0.007436 -0.212263 -0.117891
 35   -0.815868 -0.091229 -3.114430 -0.120039 3.021422 -0.057358
 36   14.294526 -0.410349 -0.467541 0.000668 0.012859 -0.799565
 37   15.834409 0.579420 -0.284600 -0.169247 -0.012731 0.676454
 38   1.139685 -3.453749 -2.823813 0.000000 0.000000 0.000001
 39   -4.457742 -1.054854 -0.746180 0.000000 0.000000 0.000000
 40   1.118101 -3.449769 3.237290 0.000000 0.000001 0.000000
 41   -4.433840 -1.059130 0.959566 -0.000001 0.000000 0.000000
 42   -0.657468 1.697302 -2.688614 0.000000 0.000002 0.000000
 43   -0.664068 1.698578 2.869377 0.000000 0.000002 0.000000
time 20
  0   -0.010486 -0.546892 -0.601210 0.000000 0.000000 -1.571354
  1   -1.093036 0.000002 -0.326057 -1.570808 -1.570749 0.000022
  2   2.262337 0.113614 0.064702 0.000292 0.000073 -0.265998
  3   2.380047 0.353302 0.047440 0.000000 -0.000028 -0.223012
  4   2.033756 0.190472 -0.000128 -0.177077 0.016982 -0.144506
  5   2.451511 0.204909 -0.003447 -0.148335 -0.036613 -0.111085
  6   7.247600 -0.397300 -0.109469 -0.005380 -0.004797 0.494527
  7   -2.022252 -0.104661 3.136172 1.238875 -1.024584 -4.799517
  8   1.168026 -0.537438 -0.063437 -0.990801 0.364744 -1.092570
  9   6.790376 -0.619176 0.015206 0.058040 -0.114945 -0.504879
 10   8.637599 0.544015 -0.090417 -3.988549 0.202875 -0.503999
 11   6.790465 -0.619039 0.017802 0.033672 -0.094425 -0.367648
 12   -2.022474 -0.104699 -2.873818 -1.163334 1.764390 -4.903164
 13   1.167898 -0.537463 0.063297 0.410039 -0.772222 -0.950608
 14   7.002743 -0.617765 -0.183752 0.375016 -0.308772 -1.791523
 15   8.209042 0.615527 -0.255885 2.234976 0.390037 0.543634
 16   7.002735 -0.617911 -0.183641 0.220866 -0.283990 -1.251100
 17   1.574674 0.609930 -0.000899 0.254777 0.315535 -0.043807
 18   -0.602177 0.511412 -0.000006 0.000000 0.000000 0.000000
 19   3.673773 0.177020 1.119313 -0.000002 -0.000014 -0.174510
 20   3.673767 0.176993 -1.117566 0.000007 -0.000003 -0.174546
 21   3.942357 1.334540 1.627658 0.000002 -0.000011 -0.000026
 22   -0.246060 -0.011889 0.516521 -0.000011 0.000031 0.000025
 23   3.942374 1.334565 -1.631083 0.000019 0.000002 -0.000024
 24   -0.246150 -0.011872 -0.516511 -0.000005 -0.000006 0.000048
 25   4.941364 1.997338 1.629330 0.000018 -0.000001 -0.000024
 26   4.941382 1.997366 -1.629410 -0.000001 0.000005 -0.000024
 27   2.914462 1.619264 1.514501 -0.000019 -0.000022 -0.000050
 28   2.916892 1.618870 -1.501142 -0.000002 -0.000009 -0.000024
 29   8.824059 0.150544 0.091743 0.000006 -0.000231 -0.174534
 30   2.111085 -0.561179 1.784320 -0.000008 -0.000682 0.000024
 31   2.121290 -0.561289 -1.853599 0.000000 0.000000 -0.000002
 32   -0.814395 -0.093824 3.127092 0.564266 -3.064250 -0.563643
 33   14.298673 -0.408176 0.471578 -0.006284 -0.010019 -0.413614
 34   15.835795 0.581398 0.242756 -0.007436 -0.212263 -0.117891
 35   -0.815868 -0.091229 -3.114430 -0.120039 3.021422 -0.057358
 36   14.294526 -0.410349 -0.467541 0.000668 0.012859 -0.799565
 37   15.834409 0.579420 -0.284600 -0.169247 -0.012731 0.676454
 38   1.139685 -3.453749 -2.823813 0.000000 0.000000 0.000001
 39   -4.457742 -1.054854 -0.746180 0.000000 0.000000 0.000000
 40   1.118101 -3.449769 3.237290 0.000000 0.000001 0.000000
 41   -4.433840 -1.059130 0.959566 -0.000001 0.000000 0.000000
 42   -0.657468 1.697302 -2.688614 0.000000 0.000002 0.000000
 43   -0.664068 1.698578 2.869377 0.000000 0.000002 0.000000
end
