version 1
nodes
  0 "Bip01" -1
  1 "Bip01 Pelvis" 0
  2 "Bip01 Spine" 1
  3 "Bip01 Spine1" 2
  4 "Bip01 Spine2" 3
  5 "Bip01 Spine3" 4
  6 "Bip01 Neck" 5
  7 "Bip01 L Arm" 6
  8 "Bip01 L Arm1" 7
  9 "Bip01 L Arm2" 8
 10 "Bip01 L Hand" 9
 11 "Bip06 L elbow2-smooth" 8
 12 "Bip01 R Arm" 6
 13 "Bip01 R Arm1" 12
 14 "Bip01 R Arm2" 13
 15 "Bip01 R Hand" 14
 16 "Bip06 R elbow2-smooth" 13
 17 "Bip01 Head" 6
 18 "Bip06 Head_helper" 17
 19 "Bip06 Head_eyes_l" 18
 20 "Bip06 Head_eyes_r" 18
 21 "Bip06 Head_blink_l" 18
 22 "Bip06 Head_blink_smooth_l1" 21
 23 "Bip06 Head_blink_r" 18
 24 "Bip06 Head_blink_smooth_r1" 23
 25 "Bip06 Head_L_eyebrow" 18
 26 "Bip06 Head_R_eyebrow" 18
 27 "Bip06 Head_blink_l_lid" 18
 28 "Bip06 Head_blink_r_lid" 18
 29 "Bip06 bunny" 18
 30 "Bip06 bunnyL" 29
 31 "Bip06 bunnyR" 29
 32 "Bip01 L Leg" 1
 33 "Bip01 L Leg1" 32
 34 "Bip01 L Foot" 33
 35 "Bip01 R Leg" 1
 36 "Bip01 R Leg1" 35
 37 "Bip01 R Foot" 36
 38 "Bip03 HairR1" 17
 39 "Bip03 HairR2" 38
 40 "Bip03 HairL1" 17
 41 "Bip03 HairL2" 40
 42 "Bip03 swingR" 17
 43 "Bip03 swingL" 17
end
skeleton
time 0
  0   0.009046 4.281381 1.527761 0.000000 0.000000 -1.571449
  1   -1.093036 0.000002 -0.326057 -1.570808 -1.570379 -0.000074
  2   2.262337 0.113614 0.064702 0.000241 0.025312 0.010360
  3   2.380047 0.353302 0.047440 -0.073610 -0.036138 -0.007877
  4   2.033756 0.190472 -0.000128 -0.145909 -0.046296 -0.193294
  5   2.451511 0.204909 -0.003447 -0.171956 -0.069735 -0.070148
  6   7.247600 -0.397300 -0.109469 0.000061 0.095970 0.470960
  7   -2.022252 -0.104661 3.136172 1.299457 -1.381176 -4.925553
  8   1.168026 -0.537438 -0.063437 -1.046994 0.365650 -1.073655
  9   6.790376 -0.619176 0.015206 -0.000047 -0.000085 -0.998889
 10   8.637599 0.544015 -0.090417 -3.048985 0.302126 -0.161376
 11   6.790465 -0.619039 0.017802 0.000388 -0.011452 -0.714447
 12   -2.022474 -0.104699 -2.873818 -2.709085 1.886349 -0.072069
 13   1.167898 -0.537463 0.063297 -0.530244 -1.058787 -0.328008
 14   7.002743 -0.617765 -0.183752 0.000059 0.000137 -2.015195
 15   8.209042 0.615527 -0.255885 1.716413 0.502467 0.011900
 16   7.002735 -0.617911 -0.183641 0.012743 0.011202 -1.429373
 17   1.574674 0.609930 -0.000899 0.359174 0.202667 -0.430974
 18   -0.602177 0.511412 -0.000006 0.000000 0.000000 0.000000
 19   3.646428 0.364526 1.119313 -0.000002 -0.000014 -0.174510
 20   3.646422 0.364499 -1.117566 0.000007 -0.000003 -0.174546
 21   3.805634 1.330634 1.627658 0.000002 -0.000011 -0.000026
 22   -0.246060 -0.011889 0.516521 -0.000011 0.000031 0.000025
 23   3.805651 1.330659 -1.631083 0.000019 0.000002 -0.000024
 24   -0.246150 -0.011872 -0.516511 -0.000005 -0.000006 0.000048
 25   4.941364 1.997338 1.629330 0.000018 -0.000001 -0.000024
 26   4.941382 1.997366 -1.629410 -0.000001 0.000005 -0.000024
 27   2.930087 1.603639 1.514501 -0.000019 -0.000022 -0.000050
 28   2.932517 1.603245 -1.501142 -0.000002 -0.000009 -0.000024
 29   8.824059 0.150544 0.091743 0.000006 -0.000231 -0.174534
 30   2.111085 -0.561179 1.784320 -0.000008 -0.000682 0.000024
 31   2.121290 -0.561289 -1.853599 0.000000 0.000000 -0.000002
 32   -0.814395 -0.093824 3.127092 0.262921 -3.097582 -0.334816
 33   14.298673 -0.408176 0.471578 0.003687 -0.003117 -0.522469
 34   15.835795 0.581398 0.242756 -0.001271 0.032067 0.122292
 35   -0.815868 -0.091229 -3.114430 -0.132889 3.034913 -0.011455
 36   14.294526 -0.410349 -0.467541 -0.002676 0.001857 -0.384764
 37   15.834409 0.579420 -0.284600 -0.034128 0.026558 0.304555
 38   1.139685 -3.453749 -2.823813 0.000000 0.000000 0.000001
 39   -4.457742 -1.054854 -0.746180 0.000000 0.000000 0.000000
 40   1.118101 -3.449769 3.237290 0.000000 0.000001 0.000000
 41   -4.433840 -1.059130 0.959566 -0.000001 0.000000 0.000000
 42   -0.657468 1.697302 -2.688614 0.000000 0.000002 0.000000
 43   -0.664068 1.698578 2.869377 0.000000 0.000002 0.000000
time 1
  0   0.009046 4.281381 1.527761 0.000000 0.000000 -1.571449
  1   -1.093036 0.000002 -0.326057 -1.570808 -1.570379 -0.000074
  2   2.262337 0.113614 0.064702 0.000241 0.025312 0.010360
  3   2.380047 0.353302 0.047440 -0.073730 -0.035658 -0.006326
  4   2.033756 0.190472 -0.000128 -0.145448 -0.046704 -0.197281
  5   2.451511 0.204909 -0.003447 -0.171819 -0.070557 -0.074878
  6   7.247600 -0.397300 -0.109469 0.000061 0.095970 0.470960
  7   -2.022252 -0.104661 3.136172 1.299457 -1.381176 -4.925553
  8   1.168026 -0.537438 -0.063437 -1.045665 0.372694 -1.073213
  9   6.790376 -0.619176 0.015206 -0.000047 -0.000085 -0.996172
 10   8.637599 0.544015 -0.090417 -3.048985 0.302126 -0.164270
 11   6.790465 -0.619039 0.017802 0.000388 -0.011452 -0.712544
 12   -2.022474 -0.104699 -2.873818 -2.710139 1.887162 -0.072930
 13   1.167898 -0.537463 0.063297 -0.543671 -1.058177 -0.313964
 14   7.002743 -0.617765 -0.183752 0.000059 0.000137 -2.015195
 15   8.209042 0.615527 -0.255885 1.716485 0.502467 0.012261
 16   7.002735 -0.617911 -0.183641 0.012743 0.011202 -1.429263
 17   1.574674 0.609930 -0.000899 0.358606 0.201673 -0.424099
 18   -0.602177 0.511412 -0.000006 0.000000 0.000000 0.000000
 19   3.646428 0.364526 1.119313 -0.000002 -0.000014 -0.174510
 20   3.646422 0.364499 -1.117566 0.000007 -0.000003 -0.174546
 21   3.805634 1.330634 1.627658 0.000002 -0.000011 -0.000026
 22   -0.246060 -0.011889 0.516521 -0.000011 0.000031 0.000025
 23   3.805651 1.330659 -1.631083 0.000019 0.000002 -0.000024
 24   -0.246150 -0.011872 -0.516511 -0.000005 -0.000006 0.000048
 25   4.941364 1.997338 1.629330 0.000018 -0.000001 -0.000024
 26   4.941382 1.997366 -1.629410 -0.000001 0.000005 -0.000024
 27   2.930087 1.603639 1.514501 -0.000019 -0.000022 -0.000050
 28   2.932517 1.603245 -1.501142 -0.000002 -0.000009 -0.000024
 29   8.824059 0.150544 0.091743 0.000986 -0.000492 -0.171530
 30   2.111085 -0.561179 1.784320 -0.000022 0.001236 0.000153
 31   2.121290 -0.561289 -1.853599 0.000000 -0.002564 0.000125
 32   -0.814395 -0.093824 3.127092 0.262921 -3.097582 -0.334816
 33   14.298673 -0.408176 0.471578 0.003687 -0.003117 -0.522469
 34   15.835795 0.581398 0.242756 -0.001271 0.032067 0.122292
 35   -0.815868 -0.091229 -3.114430 -0.132889 3.034913 -0.011455
 36   14.294526 -0.410349 -0.467541 -0.002676 0.001857 -0.384764
 37   15.834409 0.579420 -0.284600 -0.034128 0.026558 0.304555
 38   1.139685 -3.453749 -2.823813 0.000084 -0.000072 0.000184
 39   -4.457742 -1.054854 -0.746180 0.000132 0.000288 -0.001178
 40   1.118101 -3.449769 3.237290 -0.000042 -0.000083 0.000367
 41   -4.433840 -1.059130 0.959566 0.000011 0.000024 -0.000112
 42   -0.657468 1.697302 -2.688614 0.000863 0.001351 -0.000125
 43   -0.664068 1.698578 2.869377 -0.001012 -0.001520 0.000251
time 2
  0   0.009046 4.281381 1.527761 0.000000 0.000000 -1.571449
  1   -1.093036 0.000002 -0.326057 -1.570808 -1.570379 -0.000074
  2   2.262337 0.113614 0.064702 0.000241 0.025312 0.010360
  3   2.380047 0.353302 0.047440 -0.074075 -0.034496 -0.002204
  4   2.033756 0.190472 -0.000128 -0.144120 -0.047711 -0.208010
  5   2.451511 0.204909 -0.003447 -0.171340 -0.072751 -0.087335
  6   7.247600 -0.397300 -0.109469 0.000061 0.095970 0.470960
  7   -2.022252 -0.104661 3.136172 1.299457 -1.381176 -4.925553
  8   1.168026 -0.537438 -0.063437 -1.041995 0.391612 -1.072200
  9   6.790376 -0.619176 0.015206 -0.000047 -0.000085 -0.989380
 10   8.637599 0.544015 -0.090417 -3.048809 0.302126 -0.171360
 11   6.790465 -0.619039 0.017802 0.000359 -0.011452 -0.707815
 12   -2.022474 -0.104699 -2.873818 -2.711289 1.887916 -0.074079
 13   1.167898 -0.537463 0.063297 -0.579874 -1.057719 -0.276190
 14   7.002743 -0.617765 -0.183752 0.000059 0.000137 -2.015195
 15   8.209042 0.615527 -0.255885 1.716772 0.502467 0.012442
 16   7.002735 -0.617911 -0.183641 0.012743 0.011202 -1.429263
 17   1.574674 0.609930 -0.000899 0.357021 0.199046 -0.405655
 18   -0.602177 0.511412 -0.000006 0.000000 0.000000 0.000000
 19   3.646428 0.364526 1.119313 -0.000002 -0.000014 -0.174510
 20   3.646422 0.364499 -1.117566 0.000007 -0.000003 -0.174546
 21   3.805634 1.330634 1.627658 0.000002 -0.000011 -0.000026
 22   -0.246060 -0.011889 0.516521 -0.000011 0.000031 0.000025
 23   3.805651 1.330659 -1.631083 0.000019 0.000002 -0.000024
 24   -0.246150 -0.011872 -0.516511 -0.000005 -0.000006 0.000048
 25   4.941364 1.997338 1.629330 0.000018 -0.000001 -0.000024
 26   4.941382 1.997366 -1.629410 -0.000001 0.000005 -0.000024
 27   2.930087 1.603639 1.514501 -0.000019 -0.000022 -0.000050
 28   2.932517 1.603245 -1.501142 -0.000002 -0.000009 -0.000024
 29   8.824059 0.150544 0.091743 0.003927 -0.001323 -0.163000
 30   2.111085 -0.561179 1.780414 -0.000103 0.006729 0.000517
 31   2.125196 -0.561289 -1.849693 0.000015 -0.009765 0.000544
 32   -0.814395 -0.093824 3.127092 0.262921 -3.097582 -0.334816
 33   14.298673 -0.408176 0.471578 0.003687 -0.003117 -0.522469
 34   15.835795 0.581398 0.242756 -0.001271 0.032067 0.122292
 35   -0.815868 -0.091229 -3.114430 -0.132889 3.034913 -0.011455
 36   14.294526 -0.410349 -0.467541 -0.002676 0.001857 -0.384764
 37   15.834409 0.579420 -0.284600 -0.034128 0.026558 0.304555
 38   1.139685 -3.453749 -2.823813 0.000400 -0.000289 0.000856
 39   -4.457742 -1.043135 -0.746180 0.000503 0.001127 -0.004487
 40   1.118101 -3.449769 3.237290 -0.000189 -0.000348 0.001466
 41   -4.429934 -1.051317 0.959566 0.000047 0.000108 -0.000449
 42   -0.657468 1.697302 -2.676895 0.003308 0.005169 -0.000460
 43   -0.664068 1.698578 2.857658 -0.003886 -0.005851 0.001004
time 3
  0   0.009046 4.281381 1.527761 0.000000 0.000000 -1.571449
  1   -1.093036 0.000002 -0.326057 -1.570808 -1.570379 -0.000074
  2   2.262337 0.113614 0.064702 0.000241 0.025312 0.010360
  3   2.380047 0.353302 0.047440 -0.074555 -0.032746 0.003857
  4   2.033756 0.190472 -0.000128 -0.142073 -0.049149 -0.223705
  5   2.451511 0.204909 -0.003447 -0.170638 -0.075897 -0.105117
  6   7.247600 -0.397300 -0.109469 0.000061 0.095970 0.470960
  7   -2.022252 -0.104661 3.136172 1.299457 -1.381176 -4.925553
  8   1.168026 -0.537438 -0.063437 -1.036426 0.419134 -1.070745
  9   6.790376 -0.619176 0.015206 -0.000047 -0.000085 -0.980475
 10   8.637599 0.544015 -0.090417 -3.048809 0.301774 -0.180909
 11   6.790465 -0.619039 0.017802 0.000359 -0.011452 -0.701528
 12   -2.022474 -0.104699 -2.873818 -2.709085 1.886349 -0.072069
 13   1.167898 -0.537463 0.063297 -0.632666 -1.057821 -0.220922
 14   7.002743 -0.617765 -0.183752 0.000059 0.000137 -2.015195
 15   8.209042 0.615527 -0.255885 1.716413 0.502467 0.011900
 16   7.002735 -0.617911 -0.183641 0.012743 0.011202 -1.429373
 17   1.574674 0.609930 -0.000899 0.354868 0.195283 -0.379006
 18   -0.602177 0.511412 -0.000006 0.000000 0.000000 0.000000
 19   3.646428 0.364526 1.119313 -0.000002 -0.000014 -0.174510
 20   3.646422 0.364499 -1.117566 0.000007 -0.000003 -0.174546
 21   3.805634 1.330634 1.627658 0.000002 -0.000011 -0.000026
 22   -0.246060 -0.011889 0.516521 -0.000011 0.000031 0.000025
 23   3.805651 1.330659 -1.631083 0.000019 0.000002 -0.000024
 24   -0.246150 -0.011872 -0.516511 -0.000005 -0.000006 0.000048
 25   4.941364 1.997338 1.629330 0.000018 -0.000001 -0.000024
 26   4.941382 1.997366 -1.629410 -0.000001 0.000005 -0.000024
 27   2.930087 1.603639 1.514501 -0.000019 -0.000022 -0.000050
 28   2.932517 1.603245 -1.501142 -0.000002 -0.000009 -0.000024
 29   8.824059 0.150544 0.091743 0.008473 -0.002629 -0.149802
 30   2.114991 -0.561179 1.772601 -0.000225 0.015185 0.001075
 31   2.129103 -0.561289 -1.845786 0.000031 -0.020928 0.001163
 32   -0.814395 -0.093824 3.127092 0.262921 -3.097582 -0.334816
 33   14.298673 -0.408176 0.471578 0.003687 -0.003117 -0.522469
 34   15.835795 0.581398 0.242756 -0.001271 0.032067 0.122292
 35   -0.815868 -0.091229 -3.114430 -0.132889 3.034913 -0.011455
 36   14.294526 -0.410349 -0.467541 -0.002676 0.001857 -0.384764
 37   15.834409 0.579420 -0.284600 -0.034128 0.026558 0.304555
 38   1.143591 -3.453749 -2.823813 0.000842 -0.000627 0.001956
 39   -4.457742 -1.027509 -0.742274 0.001091 0.002409 -0.009648
 40   1.114195 -3.449769 3.237290 -0.000400 -0.000758 0.003116
 41   -4.422121 -1.043504 0.963472 0.000107 0.000228 -0.000954
 42   -0.649655 1.697302 -2.661269 0.007095 0.011057 -0.001046
 43   -0.664068 1.698578 2.845939 -0.008321 -0.012535 0.002133
time 4
  0   0.009046 4.281381 1.527761 0.000000 0.000000 -1.571449
  1   -1.093036 0.000002 -0.326057 -1.570808 -1.570379 -0.000074
  2   2.262337 0.113614 0.064702 0.000241 0.025312 0.010360
  3   2.380047 0.353302 0.047440 -0.074750 -0.031811 0.006958
  4   2.033756 0.190472 -0.000128 -0.141040 -0.049856 -0.231643
  5   2.451511 0.204909 -0.003447 -0.170296 -0.077490 -0.114156
  6   7.247600 -0.397300 -0.109469 0.000648 0.096904 0.482712
  7   -2.022252 -0.104661 3.136172 1.294951 -1.381840 -4.933160
  8   1.168026 -0.537438 -0.063437 -1.033452 0.433222 -1.070239
  9   6.790376 -0.619176 0.015206 -0.000047 -0.000085 -0.976626
 10   8.637599 0.544015 -0.090417 -3.048721 0.301211 -0.185467
 11   6.790465 -0.619039 0.017802 0.000330 -0.011452 -0.698817
 12   -2.022474 -0.104699 -2.873818 -2.708798 1.882692 -0.083079
 13   1.167898 -0.537463 0.063297 -0.659800 -1.059398 -0.192410
 14   7.002743 -0.617765 -0.183752 0.000059 0.000137 -2.015360
 15   8.209042 0.615527 -0.255885 1.716125 0.502619 0.010938
 16   7.002735 -0.617911 -0.183641 0.012743 0.011202 -1.429428
 17   1.574674 0.609930 -0.000899 0.354097 0.193437 -0.385770
 18   -0.602177 0.511412 -0.000006 0.000000 0.000000 0.000000
 19   3.646428 0.364526 1.119313 -0.000002 -0.000014 -0.174510
 20   3.646422 0.364499 -1.117566 0.000007 -0.000003 -0.174546
 21   3.805634 1.330634 1.627658 0.000002 -0.000011 -0.000026
 22   -0.246060 -0.011889 0.516521 -0.000011 0.000031 0.000025
 23   3.805651 1.330659 -1.631083 0.000019 0.000002 -0.000024
 24   -0.246150 -0.011872 -0.516511 -0.000005 -0.000006 0.000048
 25   4.941364 1.997338 1.629330 0.000018 -0.000001 -0.000024
 26   4.941382 1.997366 -1.629410 -0.000001 0.000005 -0.000024
 27   2.930087 1.603639 1.514501 -0.000019 -0.000022 -0.000050
 28   2.932517 1.603245 -1.501142 -0.000002 -0.000009 -0.000024
 29   8.824059 0.150544 0.091743 0.014266 -0.004409 -0.132796
 30   2.118898 -0.561179 1.760882 -0.000374 0.026112 0.001804
 31   2.136915 -0.561289 -1.837973 0.000061 -0.035330 0.001963
 32   -0.814395 -0.093824 3.127092 0.262921 -3.097582 -0.334816
 33   14.298673 -0.408176 0.471578 0.003687 -0.003117 -0.522469
 34   15.835795 0.581398 0.242756 -0.001271 0.032067 0.122292
 35   -0.815868 -0.091229 -3.114430 -0.132889 3.034913 -0.011455
 36   14.294526 -0.410349 -0.467541 -0.002676 0.001857 -0.384764
 37   15.834409 0.579420 -0.284600 -0.034128 0.026558 0.304555
 38   1.147498 -3.453749 -2.823813 0.001431 -0.001073 0.003300
 39   -4.457742 -1.007978 -0.738367 0.001846 0.004075 -0.016267
 40   1.110288 -3.449769 3.237290 -0.000674 -0.001288 0.005315
 41   -4.410401 -1.031785 0.967379 0.000191 0.000395 -0.001599
 42   -0.645749 1.697302 -2.641737 0.011973 0.018646 -0.001798
 43   -0.664068 1.694672 2.826407 -0.014043 -0.021150 0.003639
time 5
  0   0.009046 4.281381 1.527761 0.000000 0.000000 -1.571449
  1   -1.093036 0.000002 -0.326057 -1.570808 -1.570379 -0.000074
  2   2.262337 0.113614 0.064702 0.000241 0.025312 0.010360
  3   2.380047 0.353302 0.047440 -0.074960 -0.030936 0.009937
  4   2.033756 0.190472 -0.000128 -0.140081 -0.050491 -0.238820
  5   2.451511 0.204909 -0.003447 -0.169902 -0.078965 -0.122626
  6   7.247600 -0.397300 -0.109469 0.002386 0.099325 0.513089
  7   -2.022252 -0.104661 3.136172 1.283736 -1.383656 -4.952037
  8   1.168026 -0.537438 -0.063437 -1.030288 0.446706 -1.069797
  9   6.790376 -0.619176 0.015206 -0.000047 -0.000085 -0.973984
 10   8.637599 0.544015 -0.090417 -3.048633 0.300084 -0.188867
 11   6.790465 -0.619039 0.017802 0.000330 -0.011452 -0.697030
 12   -2.022474 -0.104699 -2.873818 -2.705924 1.876045 -0.109599
 13   1.167898 -0.537463 0.063297 -0.686372 -1.061330 -0.165109
 14   7.002743 -0.617765 -0.183752 0.000059 0.000137 -2.015525
 15   8.209042 0.615527 -0.255885 1.715406 0.503224 0.009254
 16   7.002735 -0.617911 -0.183641 0.012743 0.011202 -1.429483
 17   1.574674 0.609930 -0.000899 0.353650 0.191733 -0.404546
 18   -0.602177 0.511412 -0.000006 0.000000 0.000000 0.000000
 19   3.646428 0.364526 1.119313 -0.000002 -0.000014 -0.174510
 20   3.646422 0.364499 -1.117566 0.000007 -0.000003 -0.174546
 21   3.805634 1.330634 1.627658 0.000002 -0.000011 -0.000026
 22   -0.246060 -0.011889 0.516521 -0.000011 0.000031 0.000025
 23   3.805651 1.330659 -1.631083 0.000019 0.000002 -0.000024
 24   -0.246150 -0.011872 -0.516511 -0.000005 -0.000006 0.000048
 25   4.941364 1.997338 1.629330 0.000018 -0.000001 -0.000024
 26   4.941382 1.997366 -1.629410 -0.000001 0.000005 -0.000024
 27   2.930087 1.603639 1.514501 -0.000019 -0.000022 -0.000050
 28   2.932517 1.603245 -1.501142 -0.000002 -0.000009 -0.000024
 29   8.824059 0.150544 0.091743 0.021039 -0.006617 -0.112785
 30   2.126710 -0.561179 1.749163 -0.000550 0.038928 0.002640
 31   2.144728 -0.561289 -1.830161 0.000092 -0.052217 0.002909
 32   -0.814395 -0.093824 3.127092 0.262921 -3.097582 -0.334816
 33   14.298673 -0.408176 0.471578 0.003687 -0.003117 -0.522469
 34   15.835795 0.581398 0.242756 -0.001271 0.032067 0.122292
 35   -0.815868 -0.091229 -3.114430 -0.132889 3.034913 -0.011455
 36   14.294526 -0.410349 -0.467541 -0.002676 0.001857 -0.384764
 37   15.834409 0.579420 -0.284600 -0.034128 0.026558 0.304555
 38   1.151404 -3.457655 -2.823813 0.002126 -0.001579 0.004827
 39   -4.461648 -0.988446 -0.730555 0.002721 0.006028 -0.024036
 40   1.106382 -3.445863 3.237290 -0.001010 -0.001915 0.007881
 41   -4.398683 -1.016160 0.971285 0.000287 0.000587 -0.002384
 42   -0.637936 1.697302 -2.618299 0.017701 0.027570 -0.002635
 43   -0.664068 1.690765 2.806875 -0.020765 -0.031255 0.005395
time 6
  0   0.009046 4.281381 1.527761 0.000000 0.000000 -1.571449
  1   -1.093036 0.000002 -0.326057 -1.570808 -1.570379 -0.000074
  2   2.262337 0.113614 0.064702 0.000241 0.025312 0.010360
  3   2.380047 0.353302 0.047440 -0.075365 -0.029282 0.015610
  4   2.033756 0.190472 -0.000128 -0.138403 -0.051642 -0.251797
  5   2.451511 0.204909 -0.003447 -0.169183 -0.081759 -0.138971
  6   7.247600 -0.397300 -0.109469 0.004855 0.102597 0.555250
  7   -2.022252 -0.104661 3.136172 1.268399 -1.386221 -4.978615
  8   1.168026 -0.537438 -0.063437 -1.024403 0.471511 -1.068595
  9   6.790376 -0.619176 0.015206 -0.000047 -0.000085 -0.969456
 10   8.637599 0.544015 -0.090417 -3.048281 0.298113 -0.194944
 11   6.790465 -0.619039 0.017802 0.000271 -0.011395 -0.693857
 12   -2.022474 -0.104699 -2.873818 -2.700080 1.864146 -0.145119
 13   1.167898 -0.537463 0.063297 -0.736142 -1.065195 -0.113957
 14   7.002743 -0.617765 -0.183752 0.000059 0.000137 -2.015773
 15   8.209042 0.615527 -0.255885 1.714040 0.504132 0.006007
 16   7.002735 -0.617911 -0.183641 0.012743 0.011202 -1.429704
 17   1.574674 0.609930 -0.000899 0.352675 0.188609 -0.432785
 18   -0.602177 0.511412 -0.000006 0.000000 0.000000 0.000000
 19   3.646428 0.364526 1.119313 -0.000002 -0.000014 -0.174510
 20   3.646422 0.364499 -1.117566 0.000007 -0.000003 -0.174546
 21   3.805634 1.330634 1.627658 0.000002 -0.000011 -0.000026
 22   -0.246060 -0.011889 0.516521 -0.000011 0.000031 0.000025
 23   3.805651 1.330659 -1.631083 0.000019 0.000002 -0.000024
 24   -0.246150 -0.011872 -0.516511 -0.000005 -0.000006 0.000048
 25   4.941364 1.997338 1.629330 0.000018 -0.000001 -0.000024
 26   4.941382 1.997366 -1.629410 -0.000001 0.000005 -0.000024
 27   2.930087 1.603639 1.514501 -0.000019 -0.000022 -0.000050
 28   2.932517 1.603245 -1.501142 -0.000002 -0.000009 -0.000024
 29   8.824059 0.150544 0.091743 0.028525 -0.009228 -0.090682
 30   2.130617 -0.561179 1.737444 -0.000740 0.053081 0.003584
 31   2.152541 -0.561289 -1.818442 0.000138 -0.070892 0.003965
 32   -0.814395 -0.093824 3.127092 0.262921 -3.097582 -0.334816
 33   14.298673 -0.408176 0.471578 0.003687 -0.003117 -0.522469
 34   15.835795 0.581398 0.242756 -0.001271 0.032067 0.122292
 35   -0.815868 -0.091229 -3.114430 -0.132889 3.034913 -0.011455
 36   14.294526 -0.410349 -0.467541 -0.002676 0.001857 -0.384764
 37   15.834409 0.579420 -0.284600 -0.034128 0.026558 0.304555
 38   1.155311 -3.457655 -2.823813 0.002884 -0.002157 0.006599
 39   -4.461648 -0.961101 -0.726648 0.003703 0.008173 -0.032646
 40   1.102476 -3.445863 3.237290 -0.001368 -0.002602 0.010692
 41   -4.386963 -1.000534 0.979098 0.000394 0.000791 -0.003253
 42   -0.634030 1.693396 -2.590955 0.024029 0.037428 -0.003597
 43   -0.664068 1.686859 2.783437 -0.028187 -0.042443 0.007319
time 7
  0   0.009046 4.281381 1.527761 0.000000 0.000000 -1.571449
  1   -1.093036 0.000002 -0.326057 -1.570808 -1.570379 -0.000074
  2   2.262337 0.113614 0.064702 0.000241 0.025312 0.010360
  3   2.380047 0.353302 0.047440 -0.075575 -0.028479 0.018324
  4   2.033756 0.190472 -0.000128 -0.137665 -0.052145 -0.257524
  5   2.451511 0.204909 -0.003447 -0.168858 -0.082986 -0.146376
  6   7.247600 -0.397300 -0.109469 0.006065 0.104239 0.576283
  7   -2.022252 -0.104661 3.136172 1.260538 -1.387547 -4.992233
  8   1.168026 -0.537438 -0.063437 -1.021682 0.482580 -1.068278
  9   6.790376 -0.619176 0.015206 -0.000047 -0.000085 -0.968173
 10   8.637599 0.544015 -0.090417 -3.048193 0.297269 -0.197404
 11   6.790465 -0.619039 0.017802 0.000271 -0.011395 -0.692992
 12   -2.022474 -0.104699 -2.873818 0.443733 1.283551 -3.303809
 13   1.167898 -0.537463 0.063297 -0.758777 -1.067229 -0.090772
 14   7.002743 -0.617765 -0.183752 0.000059 0.000137 -2.015938
 15   8.209042 0.615527 -0.255885 1.713321 0.504662 0.004323
 16   7.002735 -0.617911 -0.183641 0.012743 0.011202 -1.429814
 17   1.574674 0.609930 -0.000899 0.352391 0.187260 -0.448197
 18   -0.602177 0.511412 -0.000006 0.000000 0.000000 0.000000
 19   3.646428 0.364526 1.119313 -0.000002 -0.000014 -0.174510
 20   3.646422 0.364499 -1.117566 0.000007 -0.000003 -0.174546
 21   3.805634 1.330634 1.627658 0.000002 -0.000011 -0.000026
 22   -0.246060 -0.011889 0.516521 -0.000011 0.000031 0.000025
 23   3.805651 1.330659 -1.631083 0.000019 0.000002 -0.000024
 24   -0.246150 -0.011872 -0.516511 -0.000005 -0.000006 0.000048
 25   4.941364 1.997338 1.629330 0.000018 -0.000001 -0.000024
 26   4.941382 1.997366 -1.629410 -0.000001 0.000005 -0.000024
 27   2.930087 1.603639 1.514501 -0.000019 -0.000022 -0.000050
 28   2.932517 1.603245 -1.501142 -0.000002 -0.000009 -0.000024
 29   8.824059 0.150544 0.091743 0.036368 -0.012147 -0.067345
 30   2.138430 -0.557273 1.721818 -0.000957 0.068076 0.004591
 31   2.164260 -0.561289 -1.810629 0.000184 -0.090655 0.005075
 32   -0.814395 -0.093824 3.127092 0.262921 -3.097582 -0.334816
 33   14.298673 -0.408176 0.471578 0.003687 -0.003117 -0.522469
 34   15.835795 0.581398 0.242756 -0.001271 0.032067 0.122292
 35   -0.815868 -0.091229 -3.114430 -0.132889 3.034913 -0.011455
 36   14.294526 -0.410349 -0.467541 -0.002676 0.001857 -0.384764
 37   15.834409 0.579420 -0.284600 -0.034128 0.026558 0.304555
 38   1.159217 -3.461562 -2.823813 0.003684 -0.002748 0.008432
 39   -4.465555 -0.933757 -0.718835 0.004734 0.010463 -0.041761
 40   1.098569 -3.441956 3.237290 -0.001747 -0.003325 0.013685
 41   -4.371338 -0.984909 0.983004 0.000502 0.001019 -0.004151
 42   -0.626217 1.693396 -2.563610 0.030728 0.047869 -0.004600
 43   -0.664068 1.682953 2.759999 -0.036045 -0.054275 0.009326
time 8
  0   0.009046 4.281381 1.527761 0.000000 0.000000 -1.571449
  1   -1.093036 0.000002 -0.326057 -1.570808 -1.570379 -0.000074
  2   2.262337 0.113614 0.064702 0.000241 0.025312 0.010360
  3   2.380047 0.353302 0.047440 -0.075725 -0.027868 0.020446
  4   2.033756 0.190472 -0.000128 -0.137204 -0.052421 -0.261040
  5   2.451511 0.204909 -0.003447 -0.168447 -0.083952 -0.153038
  6   7.247600 -0.397300 -0.109469 0.007395 0.105797 0.597410
  7   -2.022252 -0.104661 3.136172 1.252582 -1.388902 -5.005663
  8   1.168026 -0.537438 -0.063437 -1.019214 0.491536 -1.067835
  9   6.790376 -0.619176 0.015206 -0.000047 -0.000085 -0.967872
 10   8.637599 0.544015 -0.090417 -3.047840 0.296354 -0.198706
 11   6.790465 -0.619039 0.017802 0.000271 -0.011395 -0.692646
 12   -2.022474 -0.104699 -2.873818 0.447757 1.289791 -3.320277
 13   1.167898 -0.537463 0.063297 -0.777125 -1.069467 -0.072309
 14   7.002743 -0.617765 -0.183752 0.000059 0.000137 -2.016103
 15   8.209042 0.615527 -0.255885 1.712602 0.505267 0.002459
 16   7.002735 -0.617911 -0.183641 0.012743 0.011202 -1.429980
 17   1.574674 0.609930 -0.000899 0.352309 0.186337 -0.466123
 18   -0.602177 0.511412 -0.000006 0.000000 0.000000 0.000000
 19   3.646428 0.364526 1.119313 -0.000002 -0.000014 -0.174510
 20   3.646422 0.364499 -1.117566 0.000007 -0.000003 -0.174546
 21   3.805634 1.330634 1.627658 0.000002 -0.000011 -0.000026
 22   -0.246060 -0.011889 0.516521 -0.000011 0.000031 0.000025
 23   3.805651 1.330659 -1.631083 0.000019 0.000002 -0.000024
 24   -0.246150 -0.011872 -0.516511 -0.000005 -0.000006 0.000048
 25   4.941364 1.997338 1.629330 0.000018 -0.000001 -0.000024
 26   4.941382 1.997366 -1.629410 -0.000001 0.000005 -0.000024
 27   2.930087 1.603639 1.514501 -0.000019 -0.000022 -0.000050
 28   2.932517 1.603245 -1.501142 -0.000002 -0.000009 -0.000024
 29   8.824059 0.150544 0.091743 0.044211 -0.015328 -0.043579
 30   2.146242 -0.557273 1.710099 -0.001161 0.083334 0.005599
 31   2.172073 -0.561289 -1.798910 0.000215 -0.110755 0.006203
 32   -0.814395 -0.093824 3.127092 0.262921 -3.097582 -0.334816
 33   14.298673 -0.408176 0.471578 0.003687 -0.003117 -0.522469
 34   15.835795 0.581398 0.242756 -0.001271 0.032067 0.122292
 35   -0.815868 -0.091229 -3.114430 -0.132889 3.034913 -0.011455
 36   14.294526 -0.410349 -0.467541 -0.002676 0.001857 -0.384764
 37   15.834409 0.579420 -0.284600 -0.034128 0.026558 0.304555
 38   1.163123 -3.465468 -2.823813 0.004505 -0.003362 0.010326
 39   -4.469461 -0.910318 -0.714929 0.005789 0.012776 -0.051017
 40   1.094663 -3.438050 3.237290 -0.002147 -0.004060 0.016740
 41   -4.355712 -0.965377 0.990817 0.000622 0.001246 -0.005076
 42   -0.618404 1.693396 -2.536265 0.037548 0.058479 -0.005646
 43   -0.664068 1.679046 2.736560 -0.044042 -0.066310 0.011418
time 9
  0   0.009046 4.281381 1.527761 0.000000 0.000000 -1.571449
  1   -1.093036 0.000002 -0.326057 -1.570808 -1.570379 -0.000074
  2   2.262337 0.113614 0.064702 0.000241 0.025312 0.010360
  3   2.380047 0.353302 0.047440 -0.075995 -0.026826 0.024119
  4   2.033756 0.190472 -0.000128 -0.136448 -0.052900 -0.266477
  5   2.451511 0.204909 -0.003447 -0.167865 -0.085715 -0.166560
  6   7.247600 -0.397300 -0.109469 0.010212 0.108829 0.639634
  7   -2.022252 -0.104661 3.136172 1.237533 -1.391612 -5.032430
  8   1.168026 -0.537438 -0.063437 -1.014278 0.508845 -1.066887
  9   6.790376 -0.619176 0.015206 -0.000047 -0.000085 -0.967570
 10   8.637599 0.544015 -0.090417 -3.047752 0.294312 -0.201021
 11   6.790465 -0.619039 0.017802 0.000271 -0.011395 -0.692416
 12   -2.022474 -0.104699 -2.873818 0.454272 1.301807 -3.354935
 13   1.167898 -0.537463 0.063297 -0.812765 -1.073484 -0.036170
 14   7.002743 -0.617765 -0.183752 0.000059 0.000137 -2.016433
 15   8.209042 0.615527 -0.255885 1.711092 0.506250 -0.000909
 16   7.002735 -0.617911 -0.183641 0.012743 0.011202 -1.430201
 17   1.574674 0.609930 -0.000899 0.352391 0.184562 -0.502234
 18   -0.602177 0.511412 -0.000006 0.000000 0.000000 0.000000
 19   3.646428 0.364526 1.119313 -0.000002 -0.000014 -0.174510
 20   3.646422 0.364499 -1.117566 0.000007 -0.000003 -0.174546
 21   3.805634 1.330634 1.627658 0.000002 -0.000011 -0.000026
 22   -0.246060 -0.011889 0.516521 -0.000011 0.000031 0.000025
 23   3.805651 1.330659 -1.631083 0.000019 0.000002 -0.000024
 24   -0.246150 -0.011872 -0.516511 -0.000005 -0.000006 0.000048
 25   4.941364 1.997338 1.629330 0.000018 -0.000001 -0.000024
 26   4.941382 1.997366 -1.629410 -0.000001 0.000005 -0.000024
 27   2.930087 1.603639 1.514501 -0.000019 -0.000022 -0.000050
 28   2.932517 1.603245 -1.501142 -0.000002 -0.000009 -0.000024
 29   8.824059 0.150544 0.091743 0.051965 -0.018628 -0.020242
 30   2.150149 -0.557273 1.694474 -0.001378 0.098329 0.006607
 31   2.183792 -0.557383 -1.791097 0.000260 -0.130517 0.007313
 32   -0.814395 -0.093824 3.127092 0.262921 -3.097582 -0.334816
 33   14.298673 -0.408176 0.471578 0.003687 -0.003117 -0.522469
 34   15.835795 0.581398 0.242756 -0.001271 0.032067 0.122292
 35   -0.815868 -0.091229 -3.114430 -0.132889 3.034913 -0.011455
 36   14.294526 -0.410349 -0.467541 -0.002676 0.001857 -0.384764
 37   15.834409 0.579420 -0.284600 -0.034128 0.026558 0.304555
 38   1.167030 -3.465468 -2.823813 0.005325 -0.003965 0.012159
 39   -4.469461 -0.882974 -0.707116 0.006819 0.015065 -0.060132
 40   1.090756 -3.438050 3.237290 -0.002526 -0.004783 0.019734
 41   -4.343993 -0.949752 0.994723 0.000730 0.001462 -0.005974
 42   -0.610592 1.689489 -2.508921 0.044235 0.068921 -0.006650
 43   -0.660162 1.675140 2.709216 -0.051900 -0.078141 0.013467
time 10
  0   0.009046 4.281381 1.527761 0.000000 0.000000 -1.571449
  1   -1.093036 0.000002 -0.326057 -1.570808 -1.570379 -0.000074
  2   2.262337 0.113614 0.064702 0.000241 0.025312 0.010360
  3   2.380047 0.353302 0.047440 -0.076115 -0.026346 0.025670
  4   2.033756 0.190472 -0.000128 -0.136153 -0.053104 -0.268833
  5   2.451511 0.204909 -0.003447 -0.167557 -0.086524 -0.173717
  6   7.247600 -0.397300 -0.109469 0.012201 0.110974 0.669980
  7   -2.022252 -0.104661 3.136172 1.226509 -1.393630 -5.051964
  8   1.168026 -0.537438 -0.063437 -1.011873 0.517499 -1.066444
  9   6.790376 -0.619176 0.015206 -0.000047 -0.000085 -0.967570
 10   8.637599 0.544015 -0.090417 -3.047752 0.293327 -0.202323
 11   6.790465 -0.619039 0.017802 0.000271 -0.011395 -0.692416
 12   -2.022474 -0.104699 -2.873818 0.458296 1.308076 -3.380115
 13   1.167898 -0.537463 0.063297 -0.830902 -1.075163 -0.017949
 14   7.002743 -0.617765 -0.183752 0.000059 0.000137 -2.016598
 15   8.209042 0.615527 -0.255885 1.710373 0.506629 -0.002412
 16   7.002735 -0.617911 -0.183641 0.012743 0.011202 -1.430311
 17   1.574674 0.609930 -0.000899 0.352431 0.184065 -0.529733
 18   -0.602177 0.511412 -0.000006 0.000000 0.000000 0.000000
 19   3.646428 0.364526 1.119313 -0.000002 -0.000014 -0.174510
 20   3.646422 0.364499 -1.117566 0.000007 -0.000003 -0.174546
 21   3.805634 1.330634 1.627658 0.000002 -0.000011 -0.000026
 22   -0.246060 -0.011889 0.516521 -0.000011 0.000031 0.000025
 23   3.805651 1.330659 -1.631083 0.000019 0.000002 -0.000024
 24   -0.246150 -0.011872 -0.516511 -0.000005 -0.000006 0.000048
 25   4.941364 1.997338 1.629330 0.000018 -0.000001 -0.000024
 26   4.941382 1.997366 -1.629410 -0.000001 0.000005 -0.000024
 27   2.930087 1.603639 1.514501 -0.000019 -0.000022 -0.000050
 28   2.932517 1.603245 -1.501142 -0.000002 -0.000009 -0.000024
 29   8.824059 0.150544 0.091743 0.059095 -0.021928 0.001754
 30   2.157961 -0.553366 1.682754 -0.001567 0.112511 0.007529
 31   2.191605 -0.557383 -1.779378 0.000291 -0.149192 0.008350
 32   -0.814395 -0.093824 3.127092 0.262921 -3.097582 -0.334816
 33   14.298673 -0.408176 0.471578 0.003687 -0.003117 -0.522469
 34   15.835795 0.581398 0.242756 -0.001271 0.032067 0.122292
 35   -0.815868 -0.091229 -3.114430 -0.132889 3.034913 -0.011455
 36   14.294526 -0.410349 -0.467541 -0.002676 0.001857 -0.384764
 37   15.834409 0.579420 -0.284600 -0.034128 0.026558 0.304555
 38   1.170936 -3.469374 -2.823813 0.006083 -0.004531 0.013931
 39   -4.473368 -0.855629 -0.703210 0.007790 0.017222 -0.068742
 40   1.086850 -3.434144 3.237290 -0.002884 -0.005470 0.022544
 41   -4.328368 -0.934126 1.002536 0.000838 0.001678 -0.006843
 42   -0.602779 1.689489 -2.481576 0.050575 0.078779 -0.007612
 43   -0.660162 1.675140 2.685778 -0.059334 -0.089329 0.015391
time 11
  0   0.009046 4.281381 1.527761 0.000000 0.000000 -1.571449
  1   -1.093036 0.000002 -0.326057 -1.570808 -1.570379 -0.000074
  2   2.262337 0.113614 0.064702 0.000241 0.025312 0.010360
  3   2.380047 0.353302 0.047440 -0.076190 -0.026107 0.026486
  4   2.033756 0.190472 -0.000128 -0.136116 -0.053140 -0.269123
  5   2.451511 0.204909 -0.003447 -0.167283 -0.086929 -0.179091
  6   7.247600 -0.397300 -0.109469 0.013004 0.111789 0.681795
  7   -2.022252 -0.104661 3.136172 1.222387 -1.394466 -5.059665
  8   1.168026 -0.537438 -0.063437 -1.010228 0.523084 -1.066127
  9   6.790376 -0.619176 0.015206 -0.000047 -0.000085 -0.967721
 10   8.637599 0.544015 -0.090417 -3.047664 0.292412 -0.202902
 11   6.790465 -0.619039 0.017802 0.000271 -0.011395 -0.692646
 12   -2.022474 -0.104699 -2.873818 0.458679 1.312285 -3.391604
 13   1.167898 -0.537463 0.063297 -0.843133 -1.076586 -0.006084
 14   7.002743 -0.617765 -0.183752 0.000059 0.000137 -2.016763
 15   8.209042 0.615527 -0.255885 1.709870 0.507007 -0.003735
 16   7.002735 -0.617911 -0.183641 0.012743 0.011202 -1.430366
 17   1.574674 0.609930 -0.000899 0.352716 0.183213 -0.541080
 18   -0.602177 0.511412 -0.000006 0.000000 0.000000 0.000000
 19   3.646428 0.364526 1.119313 -0.000002 -0.000014 -0.174510
 20   3.646422 0.364499 -1.117566 0.000007 -0.000003 -0.174546
 21   3.805634 1.330634 1.627658 0.000002 -0.000011 -0.000026
 22   -0.246060 -0.011889 0.516521 -0.000011 0.000031 0.000025
 23   3.805651 1.330659 -1.631083 0.000019 0.000002 -0.000024
 24   -0.246150 -0.011872 -0.516511 -0.000005 -0.000006 0.000048
 25   4.941364 1.997338 1.629330 0.000018 -0.000001 -0.000024
 26   4.941382 1.997366 -1.629410 -0.000001 0.000005 -0.000024
 27   2.930087 1.603639 1.514501 -0.000019 -0.000022 -0.000050
 28   2.932517 1.603245 -1.501142 -0.000002 -0.000009 -0.000024
 29   8.824059 0.150544 0.091743 0.065601 -0.025013 0.021603
 30   2.161868 -0.553366 1.671035 -0.001744 0.125327 0.008387
 31   2.199417 -0.557383 -1.771565 0.000337 -0.166080 0.009296
 32   -0.814395 -0.093824 3.127092 0.262921 -3.097582 -0.334816
 33   14.298673 -0.408176 0.471578 0.003687 -0.003117 -0.522469
 34   15.835795 0.581398 0.242756 -0.001271 0.032067 0.122292
 35   -0.815868 -0.091229 -3.114430 -0.132889 3.034913 -0.011455
 36   14.294526 -0.410349 -0.467541 -0.002676 0.001857 -0.384764
 37   15.834409 0.579420 -0.284600 -0.034128 0.026558 0.304555
 38   1.178749 -3.469374 -2.823813 0.006778 -0.005049 0.015519
 39   -4.473368 -0.836097 -0.695397 0.008677 0.019163 -0.076511
 40   1.079037 -3.434144 3.237290 -0.003221 -0.006097 0.025110
 41   -4.316648 -0.918501 1.006442 0.000934 0.001870 -0.007629
 42   -0.594966 1.689489 -2.458138 0.056304 0.087703 -0.008490
 43   -0.660162 1.671233 2.666246 -0.066044 -0.099435 0.017147
time 12
  0   0.009046 4.281381 1.527761 0.000000 0.000000 -1.571449
  1   -1.093036 0.000002 -0.326057 -1.570808 -1.570379 -0.000074
  2   2.262337 0.113614 0.064702 0.000241 0.025312 0.010360
  3   2.380047 0.353302 0.047440 -0.076310 -0.025663 0.028037
  4   2.033756 0.190472 -0.000128 -0.136116 -0.053140 -0.269123
  5   2.451511 0.204909 -0.003447 -0.166975 -0.087425 -0.186372
  6   7.247600 -0.397300 -0.109469 0.013004 0.111789 0.681795
  7   -2.022252 -0.104661 3.136172 1.222387 -1.394466 -5.059665
  8   1.168026 -0.537438 -0.063437 -1.007760 0.530278 -1.065685
  9   6.790376 -0.619176 0.015206 -0.000047 -0.000085 -0.969004
 10   8.637599 0.544015 -0.090417 -3.047312 0.291356 -0.203119
 11   6.790465 -0.619039 0.017802 0.000271 -0.011395 -0.693569
 12   -2.022474 -0.104699 -2.873818 0.468643 1.317683 -3.380881
 13   1.167898 -0.537463 0.063297 -0.858458 -1.079383 0.008989
 14   7.002743 -0.617765 -0.183752 0.000059 0.000137 -2.016928
 15   8.209042 0.615527 -0.255885 1.709079 0.507537 -0.005720
 16   7.002735 -0.617911 -0.183641 0.012743 0.011202 -1.430532
 17   1.574674 0.609930 -0.000899 0.354259 0.179876 -0.525889
 18   -0.602177 0.511412 -0.000006 0.000000 0.000000 0.000000
 19   3.646428 0.364526 1.119313 -0.000002 -0.000014 -0.174510
 20   3.646422 0.364499 -1.117566 0.000007 -0.000003 -0.174546
 21   3.805634 1.330634 1.627658 0.000002 -0.000011 -0.000026
 22   -0.246060 -0.011889 0.516521 -0.000011 0.000031 0.000025
 23   3.805651 1.330659 -1.631083 0.000019 0.000002 -0.000024
 24   -0.246150 -0.011872 -0.516511 -0.000005 -0.000006 0.000048
 25   4.941364 1.997338 1.629330 0.000018 -0.000001 -0.000024
 26   4.941382 1.997366 -1.629410 -0.000001 0.000005 -0.000024
 27   2.930087 1.603639 1.514501 -0.000019 -0.000022 -0.000050
 28   2.932517 1.603245 -1.501142 -0.000002 -0.000009 -0.000024
 29   8.824059 0.150544 0.091743 0.070948 -0.027767 0.038503
 30   2.165774 -0.553366 1.659316 -0.001893 0.136225 0.009116
 31   2.207230 -0.557383 -1.763752 0.000352 -0.180455 0.010096
 32   -0.814395 -0.093824 3.127092 0.262921 -3.097582 -0.334816
 33   14.298673 -0.408176 0.471578 0.003687 -0.003117 -0.522469
 34   15.835795 0.581398 0.242756 -0.001271 0.032067 0.122292
 35   -0.815868 -0.091229 -3.114430 -0.132889 3.034913 -0.011455
 36   14.294526 -0.410349 -0.467541 -0.002676 0.001857 -0.384764
 37   15.834409 0.579420 -0.284600 -0.034128 0.026558 0.304555
 38   1.178749 -3.469374 -2.823813 0.007367 -0.005483 0.016863
 39   -4.473368 -0.816566 -0.691491 0.009432 0.020829 -0.083158
 40   1.079037 -3.434144 3.237290 -0.003494 -0.006627 0.027309
 41   -4.308836 -0.906782 1.010349 0.001018 0.002025 -0.008274
 42   -0.591060 1.689489 -2.438606 0.061169 0.095292 -0.009201
 43   -0.660162 1.667327 2.650620 -0.071766 -0.108049 0.018611
time 13
  0   0.009046 4.281381 1.527761 0.000000 0.000000 -1.571449
  1   -1.093036 0.000002 -0.326057 -1.570808 -1.570379 -0.000074
  2   2.262337 0.113614 0.064702 0.000241 0.025312 0.010360
  3   2.380047 0.353302 0.047440 -0.076325 -0.025567 0.028262
  4   2.033756 0.190472 -0.000128 -0.136153 -0.053104 -0.268833
  5   2.451511 0.204909 -0.003447 -0.166975 -0.087347 -0.186075
  6   7.247600 -0.397300 -0.109469 0.013004 0.111789 0.681795
  7   -2.022252 -0.104661 3.136172 1.222387 -1.394466 -5.059665
  8   1.168026 -0.537438 -0.063437 -1.008013 0.529826 -1.065874
  9   6.790376 -0.619176 0.015206 -0.000047 -0.000085 -0.969985
 10   8.637599 0.544015 -0.090417 -3.047312 0.290934 -0.202685
 11   6.790465 -0.619039 0.017802 0.000271 -0.011395 -0.694261
 12   -2.022474 -0.104699 -2.873818 0.472763 1.319831 -3.376764
 13   1.167898 -0.537463 0.063297 -0.857684 -1.081062 0.007960
 14   7.002743 -0.617765 -0.183752 0.000059 0.000137 -2.016928
 15   8.209042 0.615527 -0.255885 1.708863 0.507764 -0.006562
 16   7.002735 -0.617911 -0.183641 0.012743 0.011202 -1.430532
 17   1.574674 0.609930 -0.000899 0.355234 0.178527 -0.521861
 18   -0.602177 0.511412 -0.000006 0.000000 0.000000 0.000000
 19   3.646428 0.364526 1.119313 -0.000002 -0.000014 -0.174510
 20   3.646422 0.364499 -1.117566 0.000007 -0.000003 -0.174546
 21   3.805634 1.330634 1.627658 0.000002 -0.000011 -0.000026
 22   -0.246060 -0.011889 0.516521 -0.000011 0.000031 0.000025
 23   3.805651 1.330659 -1.631083 0.000019 0.000002 -0.000024
 24   -0.246150 -0.011872 -0.516511 -0.000005 -0.000006 0.000048
 25   4.941364 1.997338 1.629330 0.000018 -0.000001 -0.000024
 26   4.941382 1.997366 -1.629410 -0.000001 0.000005 -0.000024
 27   2.930087 1.603639 1.514501 -0.000019 -0.000022 -0.000050
 28   2.932517 1.603245 -1.501142 -0.000002 -0.000009 -0.000024
 29   8.824059 0.150544 0.091743 0.075137 -0.029951 0.051593
 30   2.169681 -0.553366 1.651503 -0.002015 0.144681 0.009673
 31   2.215043 -0.557383 -1.759846 0.000383 -0.191619 0.010733
 32   -0.814395 -0.093824 3.127092 0.262921 -3.097582 -0.334816
 33   14.298673 -0.408176 0.471578 0.003687 -0.003117 -0.522469
 34   15.835795 0.581398 0.242756 -0.001271 0.032067 0.122292
 35   -0.815868 -0.091229 -3.114430 -0.132889 3.034913 -0.011455
 36   14.294526 -0.410349 -0.467541 -0.002676 0.001857 -0.384764
 37   15.834409 0.579420 -0.284600 -0.034128 0.026558 0.304555
 38   1.182655 -3.473281 -2.823813 0.007809 -0.005820 0.017902
 39   -4.477274 -0.800940 -0.687584 0.010007 0.022112 -0.088291
 40   1.075131 -3.430237 3.237290 -0.003726 -0.007037 0.028959
 41   -4.301023 -0.898969 1.014255 0.001078 0.002157 -0.008779
 42   -0.587153 1.685583 -2.422981 0.064956 0.101195 -0.009786
 43   -0.660162 1.667327 2.634995 -0.076214 -0.114734 0.019782
time 14
  0   0.009046 4.281381 1.527761 0.000000 0.000000 -1.571449
  1   -1.093036 0.000002 -0.326057 -1.570808 -1.570379 -0.000074
  2   2.262337 0.113614 0.064702 0.000241 0.025312 0.010360
  3   2.380047 0.353302 0.047440 -0.076325 -0.025555 0.028262
  4   2.033756 0.190472 -0.000128 -0.136448 -0.052900 -0.266477
  5   2.451511 0.204909 -0.003447 -0.167129 -0.086707 -0.184168
  6   7.247600 -0.397300 -0.109469 0.013004 0.111789 0.681795
  7   -2.022252 -0.104661 3.136172 1.222387 -1.394466 -5.059665
  8   1.168026 -0.537438 -0.063437 -1.008519 0.526153 -1.066444
  9   6.790376 -0.619176 0.015206 -0.000047 -0.000085 -0.972551
 10   8.637599 0.544015 -0.090417 -3.047312 0.290652 -0.200225
 11   6.790465 -0.619039 0.017802 0.000330 -0.011452 -0.696049
 12   -2.022474 -0.104699 -2.873818 0.475254 1.321021 -3.374179
 13   1.167898 -0.537463 0.063297 -0.850936 -1.083350 0.000817
 14   7.002743 -0.617765 -0.183752 0.000059 0.000137 -2.016928
 15   8.209042 0.615527 -0.255885 1.708719 0.507915 -0.007103
 16   7.002735 -0.617911 -0.183641 0.012743 0.011202 -1.430587
 17   1.574674 0.609930 -0.000899 0.356656 0.177959 -0.521343
 18   -0.602177 0.511412 -0.000006 0.000000 0.000000 0.000000
 19   3.658147 0.270773 1.119313 -0.000002 -0.000014 -0.174510
 20   3.658141 0.270746 -1.117566 0.000007 -0.000003 -0.174546
 21   3.352495 1.260319 1.572969 0.000002 -0.000011 -0.000026
 22   -0.238247 -0.382994 0.496989 0.000099 -0.028720 0.445010
 23   3.360325 1.256438 -1.623270 0.000019 0.000002 -0.000024
 24   -0.160210 -0.285318 -0.532136 0.000091 -0.028745 0.445076
 25   4.531195 1.993432 1.637143 -0.032209 0.220350 0.007203
 26   4.531213 1.993460 -1.621597 0.035761 -0.204352 -0.020865
 27   3.117593 1.463010 1.502782 -0.000019 -0.000022 -0.000050
 28   3.120023 1.462616 -1.512861 -0.000002 -0.000009 -0.000024
 29   8.824059 0.150544 0.091743 0.077811 -0.031399 0.060069
 30   2.173587 -0.553366 1.647597 -0.002096 0.150174 0.010038
 31   2.218949 -0.557383 -1.755940 0.000398 -0.198845 0.011134
 32   -0.814395 -0.093824 3.127092 0.262921 -3.097582 -0.334816
 33   14.298673 -0.408176 0.471578 0.003687 -0.003117 -0.522469
 34   15.835795 0.581398 0.242756 -0.001271 0.032067 0.122292
 35   -0.815868 -0.091229 -3.114430 -0.132889 3.034913 -0.011455
 36   14.294526 -0.410349 -0.467541 -0.002676 0.001857 -0.384764
 37   15.834409 0.579420 -0.284600 -0.034128 0.026558 0.304555
 38   1.182655 -3.473281 -2.823813 0.008104 -0.006049 0.018574
 39   -4.477274 -0.789221 -0.687584 0.010391 0.022950 -0.091628
 40   1.075131 -3.430237 3.237290 -0.003852 -0.007302 0.030059
 41   -4.293211 -0.891156 1.018162 0.001126 0.002241 -0.009115
 42   -0.583247 1.685583 -2.415168 0.067401 0.104998 -0.010163
 43   -0.660162 1.663421 2.627182 -0.079075 -0.119049 0.020535
time 15
  0   0.009046 4.281381 1.527761 0.000000 0.000000 -1.571449
  1   -1.093036 0.000002 -0.326057 -1.570808 -1.570379 -0.000074
  2   2.262337 0.113614 0.064702 0.000241 0.025312 0.010360
  3   2.380047 0.353302 0.047440 -0.076220 -0.025975 0.027037
  4   2.033756 0.190472 -0.000128 -0.137204 -0.052421 -0.261040
  5   2.451511 0.204909 -0.003447 -0.167797 -0.084683 -0.171414
  6   7.247600 -0.397300 -0.109469 0.013004 0.111789 0.681795
  7   -2.022252 -0.104661 3.136172 1.222387 -1.394466 -5.059665
  8   1.168026 -0.537438 -0.063437 -1.012063 0.509951 -1.068278
  9   6.790376 -0.619176 0.015206 -0.000047 -0.000085 -0.979343
 10   8.637599 0.544015 -0.090417 -3.047312 0.290089 -0.194076
 11   6.790465 -0.619039 0.017802 0.000359 -0.011452 -0.700778
 12   -2.022474 -0.104699 -2.873818 -2.661469 1.818375 -0.228414
 13   1.167898 -0.537463 0.063297 -0.818811 -1.088995 -0.032477
 14   7.002743 -0.617765 -0.183752 0.000059 0.000137 -2.017093
 15   8.209042 0.615527 -0.255885 1.708144 0.508142 -0.007945
 16   7.002735 -0.617911 -0.183641 0.012696 0.011202 -1.430642
 17   1.574674 0.609930 -0.000899 0.359946 0.177391 -0.528181
 18   -0.602177 0.511412 -0.000006 0.000000 0.000000 0.000000
 19   3.673773 0.177020 1.119313 -0.000002 -0.000014 -0.174510
 20   3.673767 0.176993 -1.117566 0.000007 -0.000003 -0.174546
 21   2.899356 1.190005 1.518280 0.000002 -0.000011 -0.000026
 22   -0.226528 -0.758005 0.473551 0.000194 -0.057471 0.890061
 23   2.914999 1.182217 -1.611551 0.000019 0.000002 -0.000024
 24   -0.074270 -0.562670 -0.551668 0.000187 -0.057496 0.890104
 25   4.117120 1.989525 1.648862 -0.064423 0.440701 0.014429
 26   4.117138 1.989553 -1.609878 0.071535 -0.408734 -0.041706
 27   3.305099 1.322380 1.487156 -0.000019 -0.000022 -0.000050
 28   3.307528 1.321986 -1.528487 -0.000002 -0.000009 -0.000024
 29   8.824059 0.150544 0.091743 0.078791 -0.031921 0.063073
 30   2.173587 -0.553366 1.643691 -0.002123 0.152121 0.010167
 31   2.218949 -0.557383 -1.752033 0.000398 -0.201410 0.011279
 32   -0.814395 -0.093824 3.127092 0.262921 -3.097582 -0.334816
 33   14.298673 -0.408176 0.471578 0.003687 -0.003117 -0.522469
 34   15.835795 0.581398 0.242756 -0.001271 0.032067 0.122292
 35   -0.815868 -0.091229 -3.114430 -0.132889 3.034913 -0.011455
 36   14.294526 -0.410349 -0.467541 -0.002676 0.001857 -0.384764
 37   15.834409 0.579420 -0.284600 -0.034128 0.026558 0.304555
 38   1.186561 -3.473281 -2.823813 0.008209 -0.006122 0.018818
 39   -4.477274 -0.789221 -0.683678 0.010522 0.023250 -0.092806
 40   1.071225 -3.430237 3.237290 -0.003915 -0.007386 0.030425
 41   -4.293211 -0.891156 1.018162 0.001138 0.002265 -0.009227
 42   -0.583247 1.685583 -2.411262 0.068276 0.106362 -0.010288
 43   -0.660162 1.663421 2.623276 -0.080100 -0.120587 0.020786
time 16
  0   0.009046 4.281381 1.527761 0.000000 0.000000 -1.571449
  1   -1.093036 0.000002 -0.326057 -1.570808 -1.570379 -0.000074
  2   2.262337 0.113614 0.064702 0.000241 0.025312 0.010360
  3   2.380047 0.353302 0.047440 -0.076160 -0.026166 0.026282
  4   2.033756 0.190472 -0.000128 -0.137702 -0.052133 -0.257342
  5   2.451511 0.204909 -0.003447 -0.168156 -0.083469 -0.163142
  6   7.247600 -0.397300 -0.109469 0.013004 0.111789 0.681795
  7   -2.022252 -0.104661 3.136172 1.222387 -1.394466 -5.059665
  8   1.168026 -0.537438 -0.063437 -1.014531 0.498580 -1.069543
  9   6.790376 -0.619176 0.015206 -0.000047 -0.000085 -0.983569
 10   8.637599 0.544015 -0.090417 -3.047312 0.290089 -0.189880
 11   6.790465 -0.619039 0.017802 0.000359 -0.011452 -0.703720
 12   -2.022474 -0.104699 -2.873818 -2.660032 1.817649 -0.226786
 13   1.167898 -0.537463 0.063297 -0.795753 -1.092199 -0.056086
 14   7.002743 -0.617765 -0.183752 0.000059 0.000137 -2.017093
 15   8.209042 0.615527 -0.255885 1.708144 0.508218 -0.008186
 16   7.002735 -0.617911 -0.183641 0.012743 0.011202 -1.430642
 17   1.574674 0.609930 -0.000899 0.361937 0.177675 -0.534612
 18   -0.602177 0.511412 -0.000006 0.000000 0.000000 0.000000
 19   3.658147 0.270773 1.119313 -0.000002 -0.000014 -0.174510
 20   3.658141 0.270746 -1.117566 0.000007 -0.000003 -0.174546
 21   3.352495 1.260319 1.572969 0.000002 -0.000011 -0.000026
 22   -0.238247 -0.382994 0.496989 0.000099 -0.028720 0.445010
 23   3.360325 1.256438 -1.623270 0.000019 0.000002 -0.000024
 24   -0.160210 -0.285318 -0.532136 0.000091 -0.028745 0.445076
 25   4.531195 1.993432 1.637143 -0.032209 0.220350 0.007203
 26   4.531213 1.993460 -1.621597 0.035761 -0.204352 -0.020865
 27   3.117593 1.463010 1.502782 -0.000019 -0.000022 -0.000050
 28   3.120023 1.462616 -1.512861 -0.000002 -0.000009 -0.000024
 29   8.824059 0.150544 0.091743 0.077811 -0.031399 0.060069
 30   2.173587 -0.553366 1.647597 -0.002096 0.150174 0.010038
 31   2.218949 -0.557383 -1.755940 0.000398 -0.198845 0.011134
 32   -0.814395 -0.093824 3.127092 0.262921 -3.097582 -0.334816
 33   14.298673 -0.408176 0.471578 0.003687 -0.003117 -0.522469
 34   15.835795 0.581398 0.242756 -0.001271 0.032067 0.122292
 35   -0.815868 -0.091229 -3.114430 -0.132889 3.034913 -0.011455
 36   14.294526 -0.410349 -0.467541 -0.002676 0.001857 -0.384764
 37   15.834409 0.579420 -0.284600 -0.034128 0.026558 0.304555
 38   1.182655 -3.473281 -2.823813 0.008104 -0.006049 0.018574
 39   -4.477274 -0.789221 -0.687584 0.010391 0.022950 -0.091628
 40   1.075131 -3.430237 3.237290 -0.003852 -0.007302 0.030059
 41   -4.293211 -0.891156 1.018162 0.001126 0.002241 -0.009115
 42   -0.583247 1.685583 -2.415168 0.067401 0.104998 -0.010163
 43   -0.660162 1.663421 2.627182 -0.079075 -0.119049 0.020535
time 17
  0   0.009046 4.281381 1.527761 0.000000 0.000000 -1.571449
  1   -1.093036 0.000002 -0.326057 -1.570808 -1.570379 -0.000074
  2   2.262337 0.113614 0.064702 0.000241 0.025312 0.010360
  3   2.380047 0.353302 0.047440 -0.075995 -0.026826 0.024119
  4   2.033756 0.190472 -0.000128 -0.138532 -0.051558 -0.250782
  5   2.451511 0.204909 -0.003447 -0.168738 -0.081811 -0.151775
  6   7.247600 -0.397300 -0.109469 0.013004 0.111789 0.681795
  7   -2.022252 -0.104661 3.136172 1.222387 -1.394466 -5.059665
  8   1.168026 -0.537438 -0.063437 -1.017695 0.483536 -1.071062
  9   6.790376 -0.619176 0.015206 -0.000047 -0.000085 -0.988399
 10   8.637599 0.544015 -0.090417 -3.047312 0.290089 -0.184671
 11   6.790465 -0.619039 0.017802 0.000359 -0.011452 -0.707123
 12   -2.022474 -0.104699 -2.873818 -2.659841 1.817562 -0.226595
 13   1.167898 -0.537463 0.063297 -0.764753 -1.095250 -0.087685
 14   7.002743 -0.617765 -0.183752 0.000059 0.000137 -2.017093
 15   8.209042 0.615527 -0.255885 1.708144 0.508293 -0.008246
 16   7.002735 -0.617911 -0.183641 0.012743 0.011202 -1.430642
 17   1.574674 0.609930 -0.000899 0.364171 0.178527 -0.544481
 18   -0.602177 0.511412 -0.000006 0.000000 0.000000 0.000000
 19   3.646428 0.364526 1.119313 -0.000002 -0.000014 -0.174510
 20   3.646422 0.364499 -1.117566 0.000007 -0.000003 -0.174546
 21   3.805634 1.330634 1.627658 0.000002 -0.000011 -0.000026
 22   -0.246060 -0.011889 0.516521 -0.000011 0.000031 0.000025
 23   3.805651 1.330659 -1.631083 0.000019 0.000002 -0.000024
 24   -0.246150 -0.011872 -0.516511 -0.000005 -0.000006 0.000048
 25   4.941364 1.997338 1.629330 0.000018 -0.000001 -0.000024
 26   4.941382 1.997366 -1.629410 -0.000001 0.000005 -0.000024
 27   2.930087 1.603639 1.514501 -0.000019 -0.000022 -0.000050
 28   2.932517 1.603245 -1.501142 -0.000002 -0.000009 -0.000024
 29   8.824059 0.150544 0.091743 0.075137 -0.029951 0.051593
 30   2.169681 -0.553366 1.651503 -0.002015 0.144681 0.009673
 31   2.215043 -0.557383 -1.759846 0.000383 -0.191619 0.010733
 32   -0.814395 -0.093824 3.127092 0.262921 -3.097582 -0.334816
 33   14.298673 -0.408176 0.471578 0.003687 -0.003117 -0.522469
 34   15.835795 0.581398 0.242756 -0.001271 0.032067 0.122292
 35   -0.815868 -0.091229 -3.114430 -0.132889 3.034913 -0.011455
 36   14.294526 -0.410349 -0.467541 -0.002676 0.001857 -0.384764
 37   15.834409 0.579420 -0.284600 -0.034128 0.026558 0.304555
 38   1.182655 -3.473281 -2.823813 0.007809 -0.005820 0.017902
 39   -4.477274 -0.800940 -0.687584 0.010007 0.022112 -0.088291
 40   1.075131 -3.430237 3.237290 -0.003726 -0.007037 0.028959
 41   -4.301023 -0.898969 1.014255 0.001078 0.002157 -0.008779
 42   -0.587153 1.685583 -2.422981 0.064956 0.101195 -0.009786
 43   -0.660162 1.667327 2.634995 -0.076214 -0.114734 0.019782
time 18
  0   0.009046 4.281381 1.527761 0.000000 0.000000 -1.571449
  1   -1.093036 0.000002 -0.326057 -1.570808 -1.570379 -0.000074
  2   2.262337 0.113614 0.064702 0.000241 0.025312 0.010360
  3   2.380047 0.353302 0.047440 -0.075320 -0.029534 0.014814
  4   2.033756 0.190472 -0.000128 -0.140524 -0.050179 -0.235594
  5   2.451511 0.204909 -0.003447 -0.169731 -0.078378 -0.128718
  6   7.247600 -0.397300 -0.109469 0.013004 0.111789 0.681795
  7   -2.022252 -0.104661 3.136172 1.222387 -1.394466 -5.059665
  8   1.168026 -0.537438 -0.063437 -1.023770 0.454404 -1.073402
  9   6.790376 -0.619176 0.015206 -0.000047 -0.000085 -0.997304
 10   8.637599 0.544015 -0.090417 -3.047752 0.290441 -0.174977
 11   6.790465 -0.619039 0.017802 0.000388 -0.011452 -0.713294
 12   -2.022474 -0.104699 -2.873818 -2.660607 1.818027 -0.227744
 13   1.167898 -0.537463 0.063297 -0.704790 -1.099217 -0.149067
 14   7.002743 -0.617765 -0.183752 0.000059 0.000137 -2.017093
 15   8.209042 0.615527 -0.255885 1.708144 0.508293 -0.008005
 16   7.002735 -0.617911 -0.183641 0.012743 0.011202 -1.430642
 17   1.574674 0.609930 -0.000899 0.368802 0.180160 -0.562666
 18   -0.602177 0.511412 -0.000006 0.000000 0.000000 0.000000
 19   3.646428 0.364526 1.119313 -0.000002 -0.000014 -0.174510
 20   3.646422 0.364499 -1.117566 0.000007 -0.000003 -0.174546
 21   3.805634 1.330634 1.627658 0.000002 -0.000011 -0.000026
 22   -0.246060 -0.011889 0.516521 -0.000011 0.000031 0.000025
 23   3.805651 1.330659 -1.631083 0.000019 0.000002 -0.000024
 24   -0.246150 -0.011872 -0.516511 -0.000005 -0.000006 0.000048
 25   4.941364 1.997338 1.629330 0.000018 -0.000001 -0.000024
 26   4.941382 1.997366 -1.629410 -0.000001 0.000005 -0.000024
 27   2.930087 1.603639 1.514501 -0.000019 -0.000022 -0.000050
 28   2.932517 1.603245 -1.501142 -0.000002 -0.000009 -0.000024
 29   8.824059 0.150544 0.091743 0.070948 -0.027767 0.038503
 30   2.165774 -0.553366 1.659316 -0.001893 0.136225 0.009116
 31   2.207230 -0.557383 -1.763752 0.000352 -0.180455 0.010096
 32   -0.814395 -0.093824 3.127092 0.262921 -3.097582 -0.334816
 33   14.298673 -0.408176 0.471578 0.003687 -0.003117 -0.522469
 34   15.835795 0.581398 0.242756 -0.001271 0.032067 0.122292
 35   -0.815868 -0.091229 -3.114430 -0.132889 3.034913 -0.011455
 36   14.294526 -0.410349 -0.467541 -0.002676 0.001857 -0.384764
 37   15.834409 0.579420 -0.284600 -0.034128 0.026558 0.304555
 38   1.178749 -3.469374 -2.823813 0.007367 -0.005483 0.016863
 39   -4.473368 -0.816566 -0.691491 0.009432 0.020829 -0.083158
 40   1.079037 -3.434144 3.237290 -0.003494 -0.006627 0.027309
 41   -4.308836 -0.906782 1.010349 0.001018 0.002025 -0.008274
 42   -0.591060 1.689489 -2.438606 0.061169 0.095292 -0.009201
 43   -0.660162 1.667327 2.650620 -0.071766 -0.108049 0.018611
time 19
  0   0.009046 4.281381 1.527761 0.000000 0.000000 -1.571449
  1   -1.093036 0.000002 -0.326057 -1.570808 -1.570379 -0.000074
  2   2.262337 0.113614 0.064702 0.000241 0.025312 0.010360
  3   2.380047 0.353302 0.047440 -0.074810 -0.031560 0.007917
  4   2.033756 0.190472 -0.000128 -0.141612 -0.049412 -0.227112
  5   2.451511 0.204909 -0.003447 -0.170210 -0.076615 -0.116608
  6   7.247600 -0.397300 -0.109469 0.012201 0.110974 0.669980
  7   -2.022252 -0.104661 3.136172 1.226509 -1.393630 -5.051964
  8   1.168026 -0.537438 -0.063437 -1.026934 0.440920 -1.074415
  9   6.790376 -0.619176 0.015206 -0.000047 -0.000085 -1.001304
 10   8.637599 0.544015 -0.090417 -3.047752 0.290441 -0.170347
 11   6.790465 -0.619039 0.017802 0.000417 -0.011452 -0.716120
 12   -2.022474 -0.104699 -2.873818 -2.658595 1.819594 -0.214053
 13   1.167898 -0.537463 0.063297 -0.676531 -1.100539 -0.178003
 14   7.002743 -0.617765 -0.183752 0.000059 0.000137 -2.017093
 15   8.209042 0.615527 -0.255885 1.708216 0.508142 -0.007825
 16   7.002735 -0.617911 -0.183641 0.012743 0.011202 -1.430587
 17   1.574674 0.609930 -0.000899 0.368517 0.182503 -0.558046
 18   -0.602177 0.511412 -0.000006 0.000000 0.000000 0.000000
 19   3.646428 0.364526 1.119313 -0.000002 -0.000014 -0.174510
 20   3.646422 0.364499 -1.117566 0.000007 -0.000003 -0.174546
 21   3.805634 1.330634 1.627658 0.000002 -0.000011 -0.000026
 22   -0.246060 -0.011889 0.516521 -0.000011 0.000031 0.000025
 23   3.805651 1.330659 -1.631083 0.000019 0.000002 -0.000024
 24   -0.246150 -0.011872 -0.516511 -0.000005 -0.000006 0.000048
 25   4.941364 1.997338 1.629330 0.000018 -0.000001 -0.000024
 26   4.941382 1.997366 -1.629410 -0.000001 0.000005 -0.000024
 27   2.930087 1.603639 1.514501 -0.000019 -0.000022 -0.000050
 28   2.932517 1.603245 -1.501142 -0.000002 -0.000009 -0.000024
 29   8.824059 0.150544 0.091743 0.065601 -0.025013 0.021603
 30   2.161868 -0.553366 1.671035 -0.001744 0.125327 0.008387
 31   2.199417 -0.557383 -1.771565 0.000337 -0.166080 0.009296
 32   -0.814395 -0.093824 3.127092 0.262921 -3.097582 -0.334816
 33   14.298673 -0.408176 0.471578 0.003687 -0.003117 -0.522469
 34   15.835795 0.581398 0.242756 -0.001271 0.032067 0.122292
 35   -0.815868 -0.091229 -3.114430 -0.132889 3.034913 -0.011455
 36   14.294526 -0.410349 -0.467541 -0.002676 0.001857 -0.384764
 37   15.834409 0.579420 -0.284600 -0.034128 0.026558 0.304555
 38   1.178749 -3.469374 -2.823813 0.006778 -0.005049 0.015519
 39   -4.473368 -0.836097 -0.695397 0.008677 0.019163 -0.076511
 40   1.079037 -3.434144 3.237290 -0.003221 -0.006097 0.025110
 41   -4.316648 -0.918501 1.006442 0.000934 0.001870 -0.007629
 42   -0.594966 1.689489 -2.458138 0.056304 0.087703 -0.008490
 43   -0.660162 1.671233 2.666246 -0.066044 -0.099435 0.017147
time 20
  0   0.009046 4.281381 1.527761 0.000000 0.000000 -1.571449
  1   -1.093036 0.000002 -0.326057 -1.570808 -1.570379 -0.000074
  2   2.262337 0.113614 0.064702 0.000241 0.025312 0.010360
  3   2.380047 0.353302 0.047440 -0.074345 -0.033537 0.001081
  4   2.033756 0.190472 -0.000128 -0.142700 -0.048657 -0.218739
  5   2.451511 0.204909 -0.003447 -0.170638 -0.074970 -0.105216
  6   7.247600 -0.397300 -0.109469 0.010212 0.108829 0.639634
  7   -2.022252 -0.104661 3.136172 1.237533 -1.391612 -5.032430
  8   1.168026 -0.537438 -0.063437 -1.029655 0.427637 -1.075110
  9   6.790376 -0.619176 0.015206 -0.000047 -0.000085 -1.004549
 10   8.637599 0.544015 -0.090417 -3.047752 0.290934 -0.166368
 11   6.790465 -0.619039 0.017802 0.000417 -0.011452 -0.718369
 12   -2.022474 -0.104699 -2.873818 -2.655338 1.823135 -0.180735
 13   1.167898 -0.537463 0.063297 -0.648975 -1.100335 -0.206091
 14   7.002743 -0.617765 -0.183752 0.000059 0.000137 -2.016928
 15   8.209042 0.615527 -0.255885 1.708647 0.507915 -0.007284
 16   7.002735 -0.617911 -0.183641 0.012743 0.011202 -1.430587
 17   1.574674 0.609930 -0.000899 0.367827 0.186124 -0.546366
 18   -0.602177 0.511412 -0.000006 0.000000 0.000000 0.000000
 19   3.646428 0.364526 1.119313 -0.000002 -0.000014 -0.174510
 20   3.646422 0.364499 -1.117566 0.000007 -0.000003 -0.174546
 21   3.805634 1.330634 1.627658 0.000002 -0.000011 -0.000026
 22   -0.246060 -0.011889 0.516521 -0.000011 0.000031 0.000025
 23   3.805651 1.330659 -1.631083 0.000019 0.000002 -0.000024
 24   -0.246150 -0.011872 -0.516511 -0.000005 -0.000006 0.000048
 25   4.941364 1.997338 1.629330 0.000018 -0.000001 -0.000024
 26   4.941382 1.997366 -1.629410 -0.000001 0.000005 -0.000024
 27   2.930087 1.603639 1.514501 -0.000019 -0.000022 -0.000050
 28   2.932517 1.603245 -1.501142 -0.000002 -0.000009 -0.000024
 29   8.824059 0.150544 0.091743 0.059095 -0.021928 0.001754
 30   2.157961 -0.553366 1.682754 -0.001567 0.112511 0.007529
 31   2.191605 -0.557383 -1.779378 0.000291 -0.149192 0.008350
 32   -0.814395 -0.093824 3.127092 0.262921 -3.097582 -0.334816
 33   14.298673 -0.408176 0.471578 0.003687 -0.003117 -0.522469
 34   15.835795 0.581398 0.242756 -0.001271 0.032067 0.122292
 35   -0.815868 -0.091229 -3.114430 -0.132889 3.034913 -0.011455
 36   14.294526 -0.410349 -0.467541 -0.002676 0.001857 -0.384764
 37   15.834409 0.579420 -0.284600 -0.034128 0.026558 0.304555
 38   1.170936 -3.469374 -2.823813 0.006083 -0.004531 0.013931
 39   -4.473368 -0.855629 -0.703210 0.007790 0.017222 -0.068742
 40   1.086850 -3.434144 3.237290 -0.002884 -0.005470 0.022544
 41   -4.328368 -0.934126 1.002536 0.000838 0.001678 -0.006843
 42   -0.602779 1.689489 -2.481576 0.050575 0.078779 -0.007612
 43   -0.660162 1.675140 2.685778 -0.059334 -0.089329 0.015391
time 21
  0   0.009046 4.281381 1.527761 0.000000 0.000000 -1.571449
  1   -1.093036 0.000002 -0.326057 -1.570808 -1.570379 -0.000074
  2   2.262337 0.113614 0.064702 0.000241 0.025312 0.010360
  3   2.380047 0.353302 0.047440 -0.073610 -0.036138 -0.007877
  4   2.033756 0.190472 -0.000128 -0.144655 -0.047267 -0.203588
  5   2.451511 0.204909 -0.003447 -0.171374 -0.071915 -0.084611
  6   7.247600 -0.397300 -0.109469 0.007395 0.105797 0.597410
  7   -2.022252 -0.104661 3.136172 1.252582 -1.388902 -5.005663
  8   1.168026 -0.537438 -0.063437 -1.035667 0.399914 -1.076123
  9   6.790376 -0.619176 0.015206 -0.000047 -0.000085 -1.010963
 10   8.637599 0.544015 -0.090417 -3.048281 0.292130 -0.158193
 11   6.790465 -0.619039 0.017802 0.000476 -0.011452 -0.722983
 12   -2.022474 -0.104699 -2.873818 -2.653709 1.829985 -0.137747
 13   1.167898 -0.537463 0.063297 -0.591964 -1.098454 -0.264749
 14   7.002743 -0.617765 -0.183752 0.000059 0.000137 -2.016928
 15   8.209042 0.615527 -0.255885 1.709079 0.507537 -0.005720
 16   7.002735 -0.617911 -0.183641 0.012743 0.011202 -1.430532
 17   1.574674 0.609930 -0.000899 0.366811 0.192230 -0.530620
 18   -0.602177 0.511412 -0.000006 0.000000 0.000000 0.000000
 19   3.646428 0.364526 1.119313 -0.000002 -0.000014 -0.174510
 20   3.646422 0.364499 -1.117566 0.000007 -0.000003 -0.174546
 21   3.805634 1.330634 1.627658 0.000002 -0.000011 -0.000026
 22   -0.246060 -0.011889 0.516521 -0.000011 0.000031 0.000025
 23   3.805651 1.330659 -1.631083 0.000019 0.000002 -0.000024
 24   -0.246150 -0.011872 -0.516511 -0.000005 -0.000006 0.000048
 25   4.941364 1.997338 1.629330 0.000018 -0.000001 -0.000024
 26   4.941382 1.997366 -1.629410 -0.000001 0.000005 -0.000024
 27   2.930087 1.603639 1.514501 -0.000019 -0.000022 -0.000050
 28   2.932517 1.603245 -1.501142 -0.000002 -0.000009 -0.000024
 29   8.824059 0.150544 0.091743 0.051965 -0.018628 -0.020242
 30   2.150149 -0.557273 1.694474 -0.001378 0.098329 0.006607
 31   2.183792 -0.557383 -1.791097 0.000260 -0.130517 0.007313
 32   -0.814395 -0.093824 3.127092 0.262921 -3.097582 -0.334816
 33   14.298673 -0.408176 0.471578 0.003687 -0.003117 -0.522469
 34   15.835795 0.581398 0.242756 -0.001271 0.032067 0.122292
 35   -0.815868 -0.091229 -3.114430 -0.132889 3.034913 -0.011455
 36   14.294526 -0.410349 -0.467541 -0.002676 0.001857 -0.384764
 37   15.834409 0.579420 -0.284600 -0.034128 0.026558 0.304555
 38   1.167030 -3.465468 -2.823813 0.005325 -0.003965 0.012159
 39   -4.469461 -0.882974 -0.707116 0.006819 0.015065 -0.060132
 40   1.090756 -3.438050 3.237290 -0.002526 -0.004783 0.019734
 41   -4.343993 -0.949752 0.994723 0.000730 0.001462 -0.005974
 42   -0.610592 1.689489 -2.508921 0.044235 0.068921 -0.006650
 43   -0.660162 1.675140 2.709216 -0.051900 -0.078141 0.013467
time 22
  0   0.009046 4.281381 1.527761 0.000000 0.000000 -1.571449
  1   -1.093036 0.000002 -0.326057 -1.570808 -1.570379 -0.000074
  2   2.262337 0.113614 0.064702 0.000241 0.025312 0.010360
  3   2.380047 0.353302 0.047440 -0.073445 -0.036689 -0.009734
  4   2.033756 0.190472 -0.000128 -0.145485 -0.046656 -0.196846
  5   2.451511 0.204909 -0.003447 -0.171802 -0.070518 -0.075324
  6   7.247600 -0.397300 -0.109469 0.006065 0.104239 0.576283
  7   -2.022252 -0.104661 3.136172 1.260538 -1.387576 -4.992233
  8   1.168026 -0.537438 -0.063437 -1.039147 0.384417 -1.076882
  9   6.790376 -0.619176 0.015206 -0.000047 -0.000085 -1.013379
 10   8.637599 0.544015 -0.090417 -3.048633 0.292693 -0.154214
 11   6.790465 -0.619039 0.017802 0.000476 -0.011452 -0.724598
 12   -2.022474 -0.104699 -2.873818 -2.655434 1.834396 -0.118886
 13   1.167898 -0.537463 0.063297 -0.562721 -1.095962 -0.294532
 14   7.002743 -0.617765 -0.183752 0.000059 0.000137 -2.016763
 15   8.209042 0.615527 -0.255885 1.709582 0.507385 -0.004758
 16   7.002735 -0.617911 -0.183641 0.012743 0.011202 -1.430477
 17   1.574674 0.609930 -0.000899 0.366364 0.195354 -0.523191
 18   -0.602177 0.511412 -0.000006 0.000000 0.000000 0.000000
 19   3.646428 0.364526 1.119313 -0.000002 -0.000014 -0.174510
 20   3.646422 0.364499 -1.117566 0.000007 -0.000003 -0.174546
 21   3.805634 1.330634 1.627658 0.000002 -0.000011 -0.000026
 22   -0.246060 -0.011889 0.516521 -0.000011 0.000031 0.000025
 23   3.805651 1.330659 -1.631083 0.000019 0.000002 -0.000024
 24   -0.246150 -0.011872 -0.516511 -0.000005 -0.000006 0.000048
 25   4.941364 1.997338 1.629330 0.000018 -0.000001 -0.000024
 26   4.941382 1.997366 -1.629410 -0.000001 0.000005 -0.000024
 27   2.930087 1.603639 1.514501 -0.000019 -0.000022 -0.000050
 28   2.932517 1.603245 -1.501142 -0.000002 -0.000009 -0.000024
 29   8.824059 0.150544 0.091743 0.044211 -0.015328 -0.043579
 30   2.146242 -0.557273 1.710099 -0.001161 0.083334 0.005599
 31   2.172073 -0.561289 -1.798910 0.000215 -0.110755 0.006203
 32   -0.814395 -0.093824 3.127092 0.262921 -3.097582 -0.334816
 33   14.298673 -0.408176 0.471578 0.003687 -0.003117 -0.522469
 34   15.835795 0.581398 0.242756 -0.001271 0.032067 0.122292
 35   -0.815868 -0.091229 -3.114430 -0.132889 3.034913 -0.011455
 36   14.294526 -0.410349 -0.467541 -0.002676 0.001857 -0.384764
 37   15.834409 0.579420 -0.284600 -0.034128 0.026558 0.304555
 38   1.163123 -3.465468 -2.823813 0.004505 -0.003362 0.010326
 39   -4.469461 -0.910318 -0.714929 0.005789 0.012776 -0.051017
 40   1.094663 -3.438050 3.237290 -0.002147 -0.004060 0.016740
 41   -4.355712 -0.965377 0.990817 0.000622 0.001246 -0.005076
 42   -0.618404 1.693396 -2.536265 0.037548 0.058479 -0.005646
 43   -0.664068 1.679046 2.736560 -0.044042 -0.066310 0.011418
time 23
  0   0.009046 4.281381 1.527761 0.000000 0.000000 -1.571449
  1   -1.093036 0.000002 -0.326057 -1.570808 -1.570379 -0.000074
  2   2.262337 0.113614 0.064702 0.000241 0.025312 0.010360
  3   2.380047 0.353302 0.047440 -0.073400 -0.036857 -0.010346
  4   2.033756 0.190472 -0.000128 -0.145909 -0.046296 -0.193294
  5   2.451511 0.204909 -0.003447 -0.171956 -0.069735 -0.070148
  6   7.247600 -0.397300 -0.109469 0.004855 0.102597 0.555250
  7   -2.022252 -0.104661 3.136172 1.268399 -1.386221 -4.978615
  8   1.168026 -0.537438 -0.063437 -1.041552 0.375260 -1.077072
  9   6.790376 -0.619176 0.015206 -0.000047 -0.000085 -1.013756
 10   8.637599 0.544015 -0.090417 -3.048633 0.294031 -0.152767
 11   6.790465 -0.619039 0.017802 0.000476 -0.011452 -0.724887
 12   -2.022474 -0.104699 -2.873818 -2.661469 1.841536 -0.104621
 13   1.167898 -0.537463 0.063297 -0.543109 -1.091385 -0.314751
 14   7.002743 -0.617765 -0.183752 0.000059 0.000137 -2.016598
 15   8.209042 0.615527 -0.255885 1.710373 0.506780 -0.002593
 16   7.002735 -0.617911 -0.183641 0.012743 0.011202 -1.430311
 17   1.574674 0.609930 -0.000899 0.365471 0.197768 -0.510994
 18   -0.602177 0.511412 -0.000006 0.000000 0.000000 0.000000
 19   3.646428 0.364526 1.119313 -0.000002 -0.000014 -0.174510
 20   3.646422 0.364499 -1.117566 0.000007 -0.000003 -0.174546
 21   3.805634 1.330634 1.627658 0.000002 -0.000011 -0.000026
 22   -0.246060 -0.011889 0.516521 -0.000011 0.000031 0.000025
 23   3.805651 1.330659 -1.631083 0.000019 0.000002 -0.000024
 24   -0.246150 -0.011872 -0.516511 -0.000005 -0.000006 0.000048
 25   4.941364 1.997338 1.629330 0.000018 -0.000001 -0.000024
 26   4.941382 1.997366 -1.629410 -0.000001 0.000005 -0.000024
 27   2.930087 1.603639 1.514501 -0.000019 -0.000022 -0.000050
 28   2.932517 1.603245 -1.501142 -0.000002 -0.000009 -0.000024
 29   8.824059 0.150544 0.091743 0.036368 -0.012147 -0.067345
 30   2.138430 -0.557273 1.721818 -0.000957 0.068076 0.004591
 31   2.164260 -0.561289 -1.810629 0.000184 -0.090655 0.005075
 32   -0.814395 -0.093824 3.127092 0.262921 -3.097582 -0.334816
 33   14.298673 -0.408176 0.471578 0.003687 -0.003117 -0.522469
 34   15.835795 0.581398 0.242756 -0.001271 0.032067 0.122292
 35   -0.815868 -0.091229 -3.114430 -0.132889 3.034913 -0.011455
 36   14.294526 -0.410349 -0.467541 -0.002676 0.001857 -0.384764
 37   15.834409 0.579420 -0.284600 -0.034128 0.026558 0.304555
 38   1.159217 -3.461562 -2.823813 0.003684 -0.002748 0.008432
 39   -4.465555 -0.933757 -0.718835 0.004734 0.010463 -0.041761
 40   1.098569 -3.441956 3.237290 -0.001747 -0.003325 0.013685
 41   -4.371338 -0.984909 0.983004 0.000502 0.001019 -0.004151
 42   -0.626217 1.693396 -2.563610 0.030728 0.047869 -0.004600
 43   -0.664068 1.682953 2.759999 -0.036045 -0.054275 0.009326
time 24
  0   0.009046 4.281381 1.527761 0.000000 0.000000 -1.571449
  1   -1.093036 0.000002 -0.326057 -1.570808 -1.570379 -0.000074
  2   2.262337 0.113614 0.064702 0.000241 0.025312 0.010360
  3   2.380047 0.353302 0.047440 -0.073370 -0.037001 -0.010999
  4   2.033756 0.190472 -0.000128 -0.146444 -0.045937 -0.189053
  5   2.451511 0.204909 -0.003447 -0.172230 -0.068795 -0.063511
  6   7.247600 -0.397300 -0.109469 0.002386 0.099325 0.513089
  7   -2.022252 -0.104661 3.136172 1.283736 -1.383656 -4.952037
  8   1.168026 -0.537438 -0.063437 -1.043893 0.366304 -1.076629
  9   6.790376 -0.619176 0.015206 -0.000047 -0.000085 -1.011341
 10   8.637599 0.544015 -0.090417 -3.048809 0.296917 -0.152550
 11   6.790465 -0.619039 0.017802 0.000476 -0.011452 -0.723156
 12   -2.022474 -0.104699 -2.873818 -2.677469 1.858022 -0.080111
 13   1.167898 -0.537463 0.063297 -0.519559 -1.079739 -0.338904
 14   7.002743 -0.617765 -0.183752 0.000059 0.000137 -2.016103
 15   8.209042 0.615527 -0.255885 1.712602 0.505267 0.002459
 16   7.002735 -0.617911 -0.183641 0.012743 0.011202 -1.429980
 17   1.574674 0.609930 -0.000899 0.362993 0.201389 -0.479540
 18   -0.602177 0.511412 -0.000006 0.000000 0.000000 0.000000
 19   3.646428 0.364526 1.119313 -0.000002 -0.000014 -0.174510
 20   3.646422 0.364499 -1.117566 0.000007 -0.000003 -0.174546
 21   3.805634 1.330634 1.627658 0.000002 -0.000011 -0.000026
 22   -0.246060 -0.011889 0.516521 -0.000011 0.000031 0.000025
 23   3.805651 1.330659 -1.631083 0.000019 0.000002 -0.000024
 24   -0.246150 -0.011872 -0.516511 -0.000005 -0.000006 0.000048
 25   4.941364 1.997338 1.629330 0.000018 -0.000001 -0.000024
 26   4.941382 1.997366 -1.629410 -0.000001 0.000005 -0.000024
 27   2.930087 1.603639 1.514501 -0.000019 -0.000022 -0.000050
 28   2.932517 1.603245 -1.501142 -0.000002 -0.000009 -0.000024
 29   8.824059 0.150544 0.091743 0.028525 -0.009228 -0.090682
 30   2.130617 -0.561179 1.737444 -0.000740 0.053081 0.003584
 31   2.152541 -0.561289 -1.818442 0.000138 -0.070892 0.003965
 32   -0.814395 -0.093824 3.127092 0.262921 -3.097582 -0.334816
 33   14.298673 -0.408176 0.471578 0.003687 -0.003117 -0.522469
 34   15.835795 0.581398 0.242756 -0.001271 0.032067 0.122292
 35   -0.815868 -0.091229 -3.114430 -0.132889 3.034913 -0.011455
 36   14.294526 -0.410349 -0.467541 -0.002676 0.001857 -0.384764
 37   15.834409 0.579420 -0.284600 -0.034128 0.026558 0.304555
 38   1.155311 -3.457655 -2.823813 0.002884 -0.002157 0.006599
 39   -4.461648 -0.961101 -0.726648 0.003703 0.008173 -0.032646
 40   1.102476 -3.445863 3.237290 -0.001368 -0.002602 0.010692
 41   -4.386963 -1.000534 0.979098 0.000394 0.000791 -0.003253
 42   -0.634030 1.693396 -2.590955 0.024029 0.037428 -0.003597
 43   -0.664068 1.686859 2.783437 -0.028187 -0.042443 0.007319
time 25
  0   0.009046 4.281381 1.527761 0.000000 0.000000 -1.571449
  1   -1.093036 0.000002 -0.326057 -1.570808 -1.570379 -0.000074
  2   2.262337 0.113614 0.064702 0.000241 0.025312 0.010360
  3   2.380047 0.353302 0.047440 -0.073370 -0.037001 -0.010958
  4   2.033756 0.190472 -0.000128 -0.146536 -0.045889 -0.188582
  5   2.451511 0.204909 -0.003447 -0.172247 -0.068677 -0.062768
  6   7.247600 -0.397300 -0.109469 0.000648 0.096904 0.482712
  7   -2.022252 -0.104661 3.136172 1.294951 -1.381840 -4.933160
  8   1.168026 -0.537438 -0.063437 -1.045918 0.359763 -1.075680
  9   6.790376 -0.619176 0.015206 -0.000047 -0.000085 -1.009228
 10   8.637599 0.544015 -0.090417 -3.048809 0.298395 -0.153346
 11   6.790465 -0.619039 0.017802 0.000476 -0.011452 -0.721657
 12   -2.022474 -0.104699 -2.873818 -2.688966 1.867541 -0.062207
 13   1.167898 -0.537463 0.063297 -0.512811 -1.073230 -0.346471
 14   7.002743 -0.617765 -0.183752 0.000059 0.000137 -2.015938
 15   8.209042 0.615527 -0.255885 1.713752 0.504435 0.005345
 16   7.002735 -0.617911 -0.183641 0.012743 0.011202 -1.429759
 17   1.574674 0.609930 -0.000899 0.361043 0.203377 -0.454555
 18   -0.602177 0.511412 -0.000006 0.000000 0.000000 0.000000
 19   3.646428 0.364526 1.119313 -0.000002 -0.000014 -0.174510
 20   3.646422 0.364499 -1.117566 0.000007 -0.000003 -0.174546
 21   3.805634 1.330634 1.627658 0.000002 -0.000011 -0.000026
 22   -0.246060 -0.011889 0.516521 -0.000011 0.000031 0.000025
 23   3.805651 1.330659 -1.631083 0.000019 0.000002 -0.000024
 24   -0.246150 -0.011872 -0.516511 -0.000005 -0.000006 0.000048
 25   4.941364 1.997338 1.629330 0.000018 -0.000001 -0.000024
 26   4.941382 1.997366 -1.629410 -0.000001 0.000005 -0.000024
 27   2.930087 1.603639 1.514501 -0.000019 -0.000022 -0.000050
 28   2.932517 1.603245 -1.501142 -0.000002 -0.000009 -0.000024
 29   8.824059 0.150544 0.091743 0.021039 -0.006617 -0.112785
 30   2.126710 -0.561179 1.749163 -0.000550 0.038928 0.002640
 31   2.144728 -0.561289 -1.830161 0.000092 -0.052217 0.002909
 32   -0.814395 -0.093824 3.127092 0.262921 -3.097582 -0.334816
 33   14.298673 -0.408176 0.471578 0.003687 -0.003117 -0.522469
 34   15.835795 0.581398 0.242756 -0.001271 0.032067 0.122292
 35   -0.815868 -0.091229 -3.114430 -0.132889 3.034913 -0.011455
 36   14.294526 -0.410349 -0.467541 -0.002676 0.001857 -0.384764
 37   15.834409 0.579420 -0.284600 -0.034128 0.026558 0.304555
 38   1.151404 -3.457655 -2.823813 0.002126 -0.001579 0.004827
 39   -4.461648 -0.988446 -0.730555 0.002721 0.006028 -0.024036
 40   1.106382 -3.445863 3.237290 -0.001010 -0.001915 0.007881
 41   -4.398683 -1.016160 0.971285 0.000287 0.000587 -0.002384
 42   -0.637936 1.697302 -2.618299 0.017701 0.027570 -0.002635
 43   -0.664068 1.690765 2.806875 -0.020765 -0.031255 0.005395
time 26
  0   0.009046 4.281381 1.527761 0.000000 0.000000 -1.571449
  1   -1.093036 0.000002 -0.326057 -1.570808 -1.570379 -0.000074
  2   2.262337 0.113614 0.064702 0.000241 0.025312 0.010360
  3   2.380047 0.353302 0.047440 -0.073385 -0.036917 -0.010550
  4   2.033756 0.190472 -0.000128 -0.146536 -0.045889 -0.188473
  5   2.451511 0.204909 -0.003447 -0.172247 -0.068664 -0.062669
  6   7.247600 -0.397300 -0.109469 0.000061 0.095970 0.470960
  7   -2.022252 -0.104661 3.136172 1.299457 -1.381176 -4.925553
  8   1.168026 -0.537438 -0.063437 -1.047690 0.357700 -1.075174
  9   6.790376 -0.619176 0.015206 -0.000047 -0.000085 -1.006284
 10   8.637599 0.544015 -0.090417 -3.048985 0.299873 -0.155444
 11   6.790465 -0.619039 0.017802 0.000417 -0.011452 -0.719523
 12   -2.022474 -0.104699 -2.873818 -2.693086 1.875523 -0.055122
 13   1.167898 -0.537463 0.063297 -0.513514 -1.067433 -0.345442
 14   7.002743 -0.617765 -0.183752 0.000059 0.000137 -2.015690
 15   8.209042 0.615527 -0.255885 1.714831 0.503602 0.007871
 16   7.002735 -0.617911 -0.183641 0.012743 0.011202 -1.429649
 17   1.574674 0.609930 -0.000899 0.359865 0.203945 -0.440140
 18   -0.602177 0.511412 -0.000006 0.000000 0.000000 0.000000
 19   3.646428 0.364526 1.119313 -0.000002 -0.000014 -0.174510
 20   3.646422 0.364499 -1.117566 0.000007 -0.000003 -0.174546
 21   3.805634 1.330634 1.627658 0.000002 -0.000011 -0.000026
 22   -0.246060 -0.011889 0.516521 -0.000011 0.000031 0.000025
 23   3.805651 1.330659 -1.631083 0.000019 0.000002 -0.000024
 24   -0.246150 -0.011872 -0.516511 -0.000005 -0.000006 0.000048
 25   4.941364 1.997338 1.629330 0.000018 -0.000001 -0.000024
 26   4.941382 1.997366 -1.629410 -0.000001 0.000005 -0.000024
 27   2.930087 1.603639 1.514501 -0.000019 -0.000022 -0.000050
 28   2.932517 1.603245 -1.501142 -0.000002 -0.000009 -0.000024
 29   8.824059 0.150544 0.091743 0.014266 -0.004409 -0.132796
 30   2.118898 -0.561179 1.760882 -0.000374 0.026112 0.001804
 31   2.136915 -0.561289 -1.837973 0.000061 -0.035330 0.001963
 32   -0.814395 -0.093824 3.127092 0.262921 -3.097582 -0.334816
 33   14.298673 -0.408176 0.471578 0.003687 -0.003117 -0.522469
 34   15.835795 0.581398 0.242756 -0.001271 0.032067 0.122292
 35   -0.815868 -0.091229 -3.114430 -0.132889 3.034913 -0.011455
 36   14.294526 -0.410349 -0.467541 -0.002676 0.001857 -0.384764
 37   15.834409 0.579420 -0.284600 -0.034128 0.026558 0.304555
 38   1.147498 -3.453749 -2.823813 0.001431 -0.001073 0.003300
 39   -4.457742 -1.007978 -0.738367 0.001846 0.004075 -0.016267
 40   1.110288 -3.449769 3.237290 -0.000674 -0.001288 0.005315
 41   -4.410401 -1.031785 0.967379 0.000191 0.000395 -0.001599
 42   -0.645749 1.697302 -2.641737 0.011973 0.018646 -0.001798
 43   -0.664068 1.694672 2.826407 -0.014043 -0.021150 0.003639
time 27
  0   0.009046 4.281381 1.527761 0.000000 0.000000 -1.571449
  1   -1.093036 0.000002 -0.326057 -1.570808 -1.570379 -0.000074
  2   2.262337 0.113614 0.064702 0.000241 0.025312 0.010360
  3   2.380047 0.353302 0.047440 -0.073475 -0.036569 -0.009448
  4   2.033756 0.190472 -0.000128 -0.146370 -0.046045 -0.190068
  5   2.451511 0.204909 -0.003447 -0.172110 -0.068991 -0.065170
  6   7.247600 -0.397300 -0.109469 0.000061 0.095970 0.470960
  7   -2.022252 -0.104661 3.136172 1.299457 -1.381176 -4.925553
  8   1.168026 -0.537438 -0.063437 -1.048386 0.358807 -1.074098
  9   6.790376 -0.619176 0.015206 -0.000047 -0.000085 -1.001153
 10   8.637599 0.544015 -0.090417 -3.049073 0.302126 -0.159061
 11   6.790465 -0.619039 0.017802 0.000417 -0.011452 -0.716005
 12   -2.022474 -0.104699 -2.873818 -2.709085 1.886349 -0.072069
 13   1.167898 -0.537463 0.063297 -0.517521 -1.058431 -0.341386
 14   7.002743 -0.617765 -0.183752 0.000059 0.000137 -2.015195
 15   8.209042 0.615527 -0.255885 1.716413 0.502467 0.011900
 16   7.002735 -0.617911 -0.183641 0.012743 0.011202 -1.429373
 17   1.574674 0.609930 -0.000899 0.359581 0.203590 -0.437257
 18   -0.602177 0.511412 -0.000006 0.000000 0.000000 0.000000
 19   3.646428 0.364526 1.119313 -0.000002 -0.000014 -0.174510
 20   3.646422 0.364499 -1.117566 0.000007 -0.000003 -0.174546
 21   3.805634 1.330634 1.627658 0.000002 -0.000011 -0.000026
 22   -0.246060 -0.011889 0.516521 -0.000011 0.000031 0.000025
 23   3.805651 1.330659 -1.631083 0.000019 0.000002 -0.000024
 24   -0.246150 -0.011872 -0.516511 -0.000005 -0.000006 0.000048
 25   4.941364 1.997338 1.629330 0.000018 -0.000001 -0.000024
 26   4.941382 1.997366 -1.629410 -0.000001 0.000005 -0.000024
 27   2.930087 1.603639 1.514501 -0.000019 -0.000022 -0.000050
 28   2.932517 1.603245 -1.501142 -0.000002 -0.000009 -0.000024
 29   8.824059 0.150544 0.091743 0.008473 -0.002629 -0.149802
 30   2.114991 -0.561179 1.772601 -0.000225 0.015185 0.001075
 31   2.129103 -0.561289 -1.845786 0.000031 -0.020928 0.001163
 32   -0.814395 -0.093824 3.127092 0.262921 -3.097582 -0.334816
 33   14.298673 -0.408176 0.471578 0.003687 -0.003117 -0.522469
 34   15.835795 0.581398 0.242756 -0.001271 0.032067 0.122292
 35   -0.815868 -0.091229 -3.114430 -0.132889 3.034913 -0.011455
 36   14.294526 -0.410349 -0.467541 -0.002676 0.001857 -0.384764
 37   15.834409 0.579420 -0.284600 -0.034128 0.026558 0.304555
 38   1.143591 -3.453749 -2.823813 0.000842 -0.000627 0.001956
 39   -4.457742 -1.027509 -0.742274 0.001091 0.002409 -0.009648
 40   1.114195 -3.449769 3.237290 -0.000400 -0.000758 0.003116
 41   -4.422121 -1.043504 0.963472 0.000107 0.000228 -0.000954
 42   -0.649655 1.697302 -2.661269 0.007095 0.011057 -0.001046
 43   -0.664068 1.698578 2.845939 -0.008321 -0.012535 0.002133
time 28
  0   0.009046 4.281381 1.527761 0.000000 0.000000 -1.571449
  1   -1.093036 0.000002 -0.326057 -1.570808 -1.570379 -0.000074
  2   2.262337 0.113614 0.064702 0.000241 0.025312 0.010360
  3   2.380047 0.353302 0.047440 -0.073535 -0.036365 -0.008795
  4   2.033756 0.190472 -0.000128 -0.146241 -0.046153 -0.191264
  5   2.451511 0.204909 -0.003447 -0.172110 -0.069291 -0.066904
  6   7.247600 -0.397300 -0.109469 0.000061 0.095970 0.470960
  7   -2.022252 -0.104661 3.136172 1.299457 -1.381176 -4.925553
  8   1.168026 -0.537438 -0.063437 -1.048133 0.360719 -1.073719
  9   6.790376 -0.619176 0.015206 -0.000047 -0.000085 -0.999040
 10   8.637599 0.544015 -0.090417 -3.048985 0.302407 -0.160653
 11   6.790465 -0.619039 0.017802 0.000388 -0.011452 -0.714447
 12   -2.022474 -0.104699 -2.873818 -2.711576 1.888119 -0.074558
 13   1.167898 -0.537463 0.063297 -0.521035 -1.056753 -0.337754
 14   7.002743 -0.617765 -0.183752 0.000059 0.000137 -2.015195
 15   8.209042 0.615527 -0.255885 1.716772 0.502392 0.012622
 16   7.002735 -0.617911 -0.183641 0.012743 0.011202 -1.429263
 17   1.574674 0.609930 -0.000899 0.359499 0.203235 -0.435039
 18   -0.602177 0.511412 -0.000006 0.000000 0.000000 0.000000
 19   3.646428 0.364526 1.119313 -0.000002 -0.000014 -0.174510
 20   3.646422 0.364499 -1.117566 0.000007 -0.000003 -0.174546
 21   3.805634 1.330634 1.627658 0.000002 -0.000011 -0.000026
 22   -0.246060 -0.011889 0.516521 -0.000011 0.000031 0.000025
 23   3.805651 1.330659 -1.631083 0.000019 0.000002 -0.000024
 24   -0.246150 -0.011872 -0.516511 -0.000005 -0.000006 0.000048
 25   4.941364 1.997338 1.629330 0.000018 -0.000001 -0.000024
 26   4.941382 1.997366 -1.629410 -0.000001 0.000005 -0.000024
 27   2.930087 1.603639 1.514501 -0.000019 -0.000022 -0.000050
 28   2.932517 1.603245 -1.501142 -0.000002 -0.000009 -0.000024
 29   8.824059 0.150544 0.091743 0.003927 -0.001323 -0.163000
 30   2.111085 -0.561179 1.780414 -0.000103 0.006729 0.000517
 31   2.125196 -0.561289 -1.849693 0.000015 -0.009765 0.000544
 32   -0.814395 -0.093824 3.127092 0.262921 -3.097582 -0.334816
 33   14.298673 -0.408176 0.471578 0.003687 -0.003117 -0.522469
 34   15.835795 0.581398 0.242756 -0.001271 0.032067 0.122292
 35   -0.815868 -0.091229 -3.114430 -0.132889 3.034913 -0.011455
 36   14.294526 -0.410349 -0.467541 -0.002676 0.001857 -0.384764
 37   15.834409 0.579420 -0.284600 -0.034128 0.026558 0.304555
 38   1.139685 -3.453749 -2.823813 0.000400 -0.000289 0.000856
 39   -4.457742 -1.043135 -0.746180 0.000503 0.001127 -0.004487
 40   1.118101 -3.449769 3.237290 -0.000189 -0.000348 0.001466
 41   -4.429934 -1.051317 0.959566 0.000047 0.000108 -0.000449
 42   -0.657468 1.697302 -2.676895 0.003308 0.005169 -0.000460
 43   -0.664068 1.698578 2.857658 -0.003886 -0.005851 0.001004
time 29
  0   0.009046 4.281381 1.527761 0.000000 0.000000 -1.571449
  1   -1.093036 0.000002 -0.326057 -1.570808 -1.570379 -0.000074
  2   2.262337 0.113614 0.064702 0.000241 0.025312 0.010360
  3   2.380047 0.353302 0.047440 -0.073580 -0.036234 -0.008326
  4   2.033756 0.190472 -0.000128 -0.146112 -0.046224 -0.192279
  5   2.451511 0.204909 -0.003447 -0.172059 -0.069539 -0.068464
  6   7.247600 -0.397300 -0.109469 0.000061 0.095970 0.470960
  7   -2.022252 -0.104661 3.136172 1.299457 -1.381176 -4.925553
  8   1.168026 -0.537438 -0.063437 -1.047690 0.363084 -1.073719
  9   6.790376 -0.619176 0.015206 -0.000047 -0.000085 -0.998738
 10   8.637599 0.544015 -0.090417 -3.048985 0.302407 -0.161159
 11   6.790465 -0.619039 0.017802 0.000388 -0.011452 -0.714390
 12   -2.022474 -0.104699 -2.873818 -2.712055 1.888381 -0.074845
 13   1.167898 -0.537463 0.063297 -0.525675 -1.057007 -0.332790
 14   7.002743 -0.617765 -0.183752 0.000059 0.000137 -2.015195
 15   8.209042 0.615527 -0.255885 1.716844 0.502392 0.012622
 16   7.002735 -0.617911 -0.183641 0.012743 0.011202 -1.429263
 17   1.574674 0.609930 -0.000899 0.359377 0.202951 -0.433043
 18   -0.602177 0.511412 -0.000006 0.000000 0.000000 0.000000
 19   3.646428 0.364526 1.119313 -0.000002 -0.000014 -0.174510
 20   3.646422 0.364499 -1.117566 0.000007 -0.000003 -0.174546
 21   3.805634 1.330634 1.627658 0.000002 -0.000011 -0.000026
 22   -0.246060 -0.011889 0.516521 -0.000011 0.000031 0.000025
 23   3.805651 1.330659 -1.631083 0.000019 0.000002 -0.000024
 24   -0.246150 -0.011872 -0.516511 -0.000005 -0.000006 0.000048
 25   4.941364 1.997338 1.629330 0.000018 -0.000001 -0.000024
 26   4.941382 1.997366 -1.629410 -0.000001 0.000005 -0.000024
 27   2.930087 1.603639 1.514501 -0.000019 -0.000022 -0.000050
 28   2.932517 1.603245 -1.501142 -0.000002 -0.000009 -0.000024
 29   8.824059 0.150544 0.091743 0.000986 -0.000492 -0.171530
 30   2.111085 -0.561179 1.784320 -0.000022 0.001236 0.000153
 31   2.121290 -0.561289 -1.853599 0.000000 -0.002564 0.000125
 32   -0.814395 -0.093824 3.127092 0.262921 -3.097582 -0.334816
 33   14.298673 -0.408176 0.471578 0.003687 -0.003117 -0.522469
 34   15.835795 0.581398 0.242756 -0.001271 0.032067 0.122292
 35   -0.815868 -0.091229 -3.114430 -0.132889 3.034913 -0.011455
 36   14.294526 -0.410349 -0.467541 -0.002676 0.001857 -0.384764
 37   15.834409 0.579420 -0.284600 -0.034128 0.026558 0.304555
 38   1.139685 -3.453749 -2.823813 0.000084 -0.000072 0.000184
 39   -4.457742 -1.054854 -0.746180 0.000132 0.000288 -0.001178
 40   1.118101 -3.449769 3.237290 -0.000042 -0.000083 0.000367
 41   -4.433840 -1.059130 0.959566 0.000011 0.000024 -0.000112
 42   -0.657468 1.697302 -2.688614 0.000863 0.001351 -0.000125
 43   -0.664068 1.698578 2.869377 -0.001012 -0.001520 0.000251
time 30
  0   0.009046 4.281381 1.527761 0.000000 0.000000 -1.571449
  1   -1.093036 0.000002 -0.326057 -1.570808 -1.570379 -0.000074
  2   2.262337 0.113614 0.064702 0.000241 0.025312 0.010360
  3   2.380047 0.353302 0.047440 -0.073610 -0.036138 -0.007877
  4   2.033756 0.190472 -0.000128 -0.145909 -0.046296 -0.193294
  5   2.451511 0.204909 -0.003447 -0.171956 -0.069735 -0.070148
  6   7.247600 -0.397300 -0.109469 0.000061 0.095970 0.470960
  7   -2.022252 -0.104661 3.136172 1.299457 -1.381176 -4.925553
  8   1.168026 -0.537438 -0.063437 -1.046994 0.365650 -1.073655
  9   6.790376 -0.619176 0.015206 -0.000047 -0.000085 -0.998889
 10   8.637599 0.544015 -0.090417 -3.048985 0.302126 -0.161376
 11   6.790465 -0.619039 0.017802 0.000388 -0.011452 -0.714447
 12   -2.022474 -0.104699 -2.873818 -2.709085 1.886349 -0.072069
 13   1.167898 -0.537463 0.063297 -0.530244 -1.058787 -0.328008
 14   7.002743 -0.617765 -0.183752 0.000059 0.000137 -2.015195
 15   8.209042 0.615527 -0.255885 1.716413 0.502467 0.011900
 16   7.002735 -0.617911 -0.183641 0.012743 0.011202 -1.429373
 17   1.574674 0.609930 -0.000899 0.359174 0.202667 -0.430974
 18   -0.602177 0.511412 -0.000006 0.000000 0.000000 0.000000
 19   3.646428 0.364526 1.119313 -0.000002 -0.000014 -0.174510
 20   3.646422 0.364499 -1.117566 0.000007 -0.000003 -0.174546
 21   3.805634 1.330634 1.627658 0.000002 -0.000011 -0.000026
 22   -0.246060 -0.011889 0.516521 -0.000011 0.000031 0.000025
 23   3.805651 1.330659 -1.631083 0.000019 0.000002 -0.000024
 24   -0.246150 -0.011872 -0.516511 -0.000005 -0.000006 0.000048
 25   4.941364 1.997338 1.629330 0.000018 -0.000001 -0.000024
 26   4.941382 1.997366 -1.629410 -0.000001 0.000005 -0.000024
 27   2.930087 1.603639 1.514501 -0.000019 -0.000022 -0.000050
 28   2.932517 1.603245 -1.501142 -0.000002 -0.000009 -0.000024
 29   8.824059 0.150544 0.091743 0.000006 -0.000231 -0.174534
 30   2.111085 -0.561179 1.784320 -0.000008 -0.000682 0.000024
 31   2.121290 -0.561289 -1.853599 0.000000 0.000000 -0.000002
 32   -0.814395 -0.093824 3.127092 0.262921 -3.097582 -0.334816
 33   14.298673 -0.408176 0.471578 0.003687 -0.003117 -0.522469
 34   15.835795 0.581398 0.242756 -0.001271 0.032067 0.122292
 35   -0.815868 -0.091229 -3.114430 -0.132889 3.034913 -0.011455
 36   14.294526 -0.410349 -0.467541 -0.002676 0.001857 -0.384764
 37   15.834409 0.579420 -0.284600 -0.034128 0.026558 0.304555
 38   1.139685 -3.453749 -2.823813 0.000000 0.000000 0.000001
 39   -4.457742 -1.054854 -0.746180 0.000000 0.000000 0.000000
 40   1.118101 -3.449769 3.237290 0.000000 0.000001 0.000000
 41   -4.433840 -1.059130 0.959566 -0.000001 0.000000 0.000000
 42   -0.657468 1.697302 -2.688614 0.000000 0.000002 0.000000
 43   -0.664068 1.698578 2.869377 0.000000 0.000002 0.000000
end
