version 1
nodes
  0 "Bip01" -1
  1 "Bip01 Pelvis" 0
  2 "Bip01 Spine" 1
  3 "Bip01 Spine1" 2
  4 "Bip01 Spine2" 3
  5 "Bip01 Spine3" 4
  6 "Bip01 Neck" 5
  7 "Bip01 L Arm" 6
  8 "Bip01 L Arm1" 7
  9 "Bip01 L Arm2" 8
 10 "Bip01 L Hand" 9
 11 "Bip06 L elbow2-smooth" 8
 12 "Bip01 R Arm" 6
 13 "Bip01 R Arm1" 12
 14 "Bip01 R Arm2" 13
 15 "Bip01 R Hand" 14
 16 "Bip06 R elbow2-smooth" 13
 17 "Bip01 Head" 6
 18 "Bip06 Head_helper" 17
 19 "Bip06 Head_eyes_l" 18
 20 "Bip06 Head_eyes_r" 18
 21 "Bip06 Head_blink_l" 18
 22 "Bip06 Head_blink_smooth_l1" 21
 23 "Bip06 Head_blink_r" 18
 24 "Bip06 Head_blink_smooth_r1" 23
 25 "Bip06 Head_L_eyebrow" 18
 26 "Bip06 Head_R_eyebrow" 18
 27 "Bip06 Head_blink_l_lid" 18
 28 "Bip06 Head_blink_r_lid" 18
 29 "Bip06 bunny" 18
 30 "Bip06 bunnyL" 29
 31 "Bip06 bunnyR" 29
 32 "Bip01 L Leg" 1
 33 "Bip01 L Leg1" 32
 34 "Bip01 L Foot" 33
 35 "Bip01 R Leg" 1
 36 "Bip01 R Leg1" 35
 37 "Bip01 R Foot" 36
 38 "Bip03 HairR1" 17
 39 "Bip03 HairR2" 38
 40 "Bip03 HairL1" 17
 41 "Bip03 HairL2" 40
 42 "Bip03 swingR" 17
 43 "Bip03 swingL" 17
end
skeleton
time 0
  0   -0.010486 -0.546892 -0.601210 0.000000 0.000000 -1.571354
  1   -1.093036 0.000002 -0.326057 -0.214066 -1.569082 -1.356583
  2   2.262337 0.113614 0.064702 -0.325394 -0.120349 -0.019276
  3   2.380047 0.353302 0.047440 -0.422848 -0.011162 -0.029711
  4   2.033756 0.190472 -0.000128 -0.297249 -0.063914 -0.277496
  5   2.451511 0.204909 -0.003447 -0.516929 -0.029941 -0.272011
  6   7.247600 -0.397300 -0.109469 0.000001 0.000021 0.156829
  7   -2.022252 -0.104661 3.136172 0.805692 -0.995266 -3.940088
  8   1.168026 -0.537438 -0.063437 0.350302 0.993472 -0.542521
  9   6.790376 -0.619176 0.015206 0.044559 0.044097 -0.526689
 10   8.637599 0.544015 -0.090417 -3.044670 0.662313 -0.399244
 11   6.790465 -0.619039 0.017802 0.032154 0.017684 -0.384143
 12   -2.022474 -0.104699 -2.873818 -2.450406 1.732348 -5.756505
 13   1.167898 -0.537463 0.063297 -1.913816 -0.564837 1.744521
 14   7.002743 -0.617765 -0.183752 0.038260 -0.176236 -1.913961
 15   8.209042 0.615527 -0.255885 1.465112 -0.122102 0.424863
 16   7.002735 -0.617911 -0.183641 0.003799 -0.125201 -1.354366
 17   1.574674 0.609930 -0.000899 0.904963 -0.175837 0.289767
 18   -0.602177 0.511412 -0.000006 0.000000 0.000000 0.000000
 19   3.673773 0.177020 1.119313 -0.000002 -0.000014 -0.174510
 20   3.673767 0.176993 -1.117566 0.000007 -0.000003 -0.174546
 21   3.942357 1.334540 1.627658 0.000002 -0.000011 -0.000026
 22   -0.246060 -0.011889 0.516521 -0.000011 0.000031 0.000025
 23   3.942374 1.334565 -1.631083 0.000019 0.000002 -0.000024
 24   -0.246150 -0.011872 -0.516511 -0.000005 -0.000006 0.000048
 25   4.941364 1.997338 1.629330 0.000018 -0.000001 -0.000024
 26   4.941382 1.997366 -1.629410 -0.000001 0.000005 -0.000024
 27   2.914462 1.619264 1.514501 -0.000019 -0.000022 -0.000050
 28   2.916892 1.618870 -1.501142 -0.000002 -0.000009 -0.000024
 29   8.824059 0.150544 0.091743 0.000006 -0.000231 -0.174534
 30   2.111085 -0.561179 1.784320 -0.000008 -0.000682 0.000024
 31   2.121290 -0.561289 -1.853599 0.000000 0.000000 -0.000002
 32   -0.814395 -0.093824 3.127092 0.564173 -3.064346 -0.563643
 33   14.298673 -0.408176 0.471578 -0.006380 -0.009799 -0.413614
 34   15.835795 0.581398 0.242756 -0.007436 -0.212263 -0.117891
 35   -0.815868 -0.091229 -3.114430 -0.120039 3.021422 -0.057358
 36   14.294526 -0.410349 -0.467541 0.001651 0.012787 -0.721549
 37   15.834409 0.579420 -0.284600 -0.182289 -0.002288 0.569929
 38   1.139685 -3.453749 -2.823813 0.000000 0.000000 0.000001
 39   -4.457742 -1.054854 -0.746180 0.000000 0.000000 0.000000
 40   1.118101 -3.449769 3.237290 0.000000 0.000001 0.000000
 41   -4.433840 -1.059130 0.959566 -0.000001 0.000000 0.000000
 42   -0.657468 1.697302 -2.688614 0.000000 0.000002 0.000000
 43   -0.664068 1.698578 2.869377 0.000000 0.000002 0.000000
time 1
  0   -0.010486 -0.546892 -0.601210 0.000000 0.000000 -1.571354
  1   -1.093036 0.000002 -0.326057 -0.214066 -1.569082 -1.356583
  2   2.262337 0.113614 0.064702 -0.310160 -0.117616 -0.021101
  3   2.380047 0.353302 0.047440 -0.408942 -0.010467 -0.030057
  4   2.033756 0.190472 -0.000128 -0.291661 -0.063542 -0.276626
  5   2.451511 0.204909 -0.003447 -0.515611 -0.018975 -0.274760
  6   7.247600 -0.397300 -0.109469 0.000001 0.000021 0.156829
  7   -2.022252 -0.104661 3.136172 0.781345 -0.968169 -3.906278
  8   1.168026 -0.537438 -0.063437 0.320117 0.956139 -0.560487
  9   6.790376 -0.619176 0.015206 0.042562 0.037957 -0.464654
 10   8.637599 0.544015 -0.090417 -3.117940 0.693144 -0.436212
 11   6.790465 -0.619039 0.017802 0.029905 0.013818 -0.340772
 12   -2.022474 -0.104699 -2.873818 -2.463340 1.722770 -5.769813
 13   1.167898 -0.537463 0.063297 -1.925555 -0.624083 1.727995
 14   7.002743 -0.617765 -0.183752 0.035584 -0.174476 -1.883599
 15   8.209042 0.615527 -0.255885 1.500632 -0.102279 0.437913
 16   7.002735 -0.617911 -0.183641 0.002998 -0.123227 -1.333393
 17   1.574674 0.609930 -0.000899 0.962361 -0.165045 0.260567
 18   -0.602177 0.511412 -0.000006 0.000000 0.000000 0.000000
 19   3.673773 0.177020 1.119313 -0.000002 -0.000014 -0.174510
 20   3.673767 0.176993 -1.117566 0.000007 -0.000003 -0.174546
 21   3.942357 1.334540 1.627658 0.000002 -0.000011 -0.000026
 22   -0.246060 -0.011889 0.516521 -0.000011 0.000031 0.000025
 23   3.942374 1.334565 -1.631083 0.000019 0.000002 -0.000024
 24   -0.246150 -0.011872 -0.516511 -0.000005 -0.000006 0.000048
 25   4.941364 1.997338 1.629330 0.000018 -0.000001 -0.000024
 26   4.941382 1.997366 -1.629410 -0.000001 0.000005 -0.000024
 27   2.914462 1.619264 1.514501 -0.000019 -0.000022 -0.000050
 28   2.916892 1.618870 -1.501142 -0.000002 -0.000009 -0.000024
 29   8.824059 0.150544 0.091743 0.000006 -0.000231 -0.174534
 30   2.111085 -0.561179 1.784320 -0.000008 -0.000682 0.000024
 31   2.121290 -0.561289 -1.853599 0.000000 0.000000 -0.000002
 32   -0.814395 -0.093824 3.127092 0.564173 -3.064346 -0.563643
 33   14.298673 -0.408176 0.471578 -0.006380 -0.009799 -0.413614
 34   15.835795 0.581398 0.242756 -0.007436 -0.212263 -0.117891
 35   -0.815868 -0.091229 -3.114430 -0.120039 3.021422 -0.057358
 36   14.294526 -0.410349 -0.467541 0.001651 0.012787 -0.721549
 37   15.834409 0.579420 -0.284600 -0.182289 -0.002288 0.569929
 38   1.139685 -3.453749 -2.823813 0.000000 0.000000 0.000001
 39   -4.457742 -1.054854 -0.746180 0.000000 0.000000 0.000000
 40   1.118101 -3.449769 3.237290 0.000000 0.000001 0.000000
 41   -4.433840 -1.059130 0.959566 -0.000001 0.000000 0.000000
 42   -0.657468 1.697302 -2.688614 0.000000 0.000002 0.000000
 43   -0.664068 1.698578 2.869377 0.000000 0.000002 0.000000
time 2
  0   -0.010486 -0.546892 -0.601210 0.000000 0.000000 -1.571354
  1   -1.093036 0.000002 -0.326057 -0.214066 -1.569082 -1.356583
  2   2.262337 0.113614 0.064702 -0.288035 -0.116310 -0.024390
  3   2.380047 0.353302 0.047440 -0.389231 -0.012384 -0.030812
  4   2.033756 0.190472 -0.000128 -0.283159 -0.063866 -0.279417
  5   2.451511 0.204909 -0.003447 -0.514293 -0.001885 -0.279069
  6   7.247600 -0.397300 -0.109469 0.000001 0.000021 0.156829
  7   -2.022252 -0.104661 3.136172 0.774730 -0.969466 -3.888152
  8   1.168026 -0.537438 -0.063437 0.242978 0.941900 -0.545937
  9   6.790376 -0.619176 0.015206 0.041507 0.035288 -0.437864
 10   8.637599 0.544015 -0.090417 -3.152637 0.772193 -0.419428
 11   6.790465 -0.619039 0.017802 0.028884 0.012141 -0.321970
 12   -2.022474 -0.104699 -2.873818 -2.442934 1.720564 -5.752292
 13   1.167898 -0.537463 0.063297 -1.927664 -0.714349 1.663767
 14   7.002743 -0.617765 -0.183752 0.031884 -0.171239 -1.836076
 15   8.209042 0.615527 -0.255885 1.571528 -0.092443 0.446031
 16   7.002735 -0.617911 -0.183641 0.002057 -0.120013 -1.300553
 17   1.574674 0.609930 -0.000899 1.007776 -0.127556 0.235619
 18   -0.602177 0.511412 -0.000006 0.000000 0.000000 0.000000
 19   3.673773 0.177020 1.119313 -0.000002 -0.000014 -0.174510
 20   3.673767 0.176993 -1.117566 0.000007 -0.000003 -0.174546
 21   3.942357 1.334540 1.627658 0.000002 -0.000011 -0.000026
 22   -0.246060 -0.011889 0.516521 -0.000011 0.000031 0.000025
 23   3.942374 1.334565 -1.631083 0.000019 0.000002 -0.000024
 24   -0.246150 -0.011872 -0.516511 -0.000005 -0.000006 0.000048
 25   4.941364 1.997338 1.629330 0.000018 -0.000001 -0.000024
 26   4.941382 1.997366 -1.629410 -0.000001 0.000005 -0.000024
 27   2.914462 1.619264 1.514501 -0.000019 -0.000022 -0.000050
 28   2.916892 1.618870 -1.501142 -0.000002 -0.000009 -0.000024
 29   8.824059 0.150544 0.091743 0.000006 -0.000231 -0.174534
 30   2.111085 -0.561179 1.784320 -0.000008 -0.000682 0.000024
 31   2.121290 -0.561289 -1.853599 0.000000 0.000000 -0.000002
 32   -0.814395 -0.093824 3.127092 0.564173 -3.064346 -0.563643
 33   14.298673 -0.408176 0.471578 -0.006380 -0.009799 -0.413614
 34   15.835795 0.581398 0.242756 -0.007436 -0.212263 -0.117891
 35   -0.815868 -0.091229 -3.114430 -0.120039 3.021422 -0.057358
 36   14.294526 -0.410349 -0.467541 0.001651 0.012787 -0.721549
 37   15.834409 0.579420 -0.284600 -0.182289 -0.002288 0.569929
 38   1.139685 -3.453749 -2.823813 0.000000 0.000000 0.000001
 39   -4.457742 -1.054854 -0.746180 0.000000 0.000000 0.000000
 40   1.118101 -3.449769 3.237290 0.000000 0.000001 0.000000
 41   -4.433840 -1.059130 0.959566 -0.000001 0.000000 0.000000
 42   -0.657468 1.697302 -2.688614 0.000000 0.000002 0.000000
 43   -0.664068 1.698578 2.869377 0.000000 0.000002 0.000000
time 3
  0   -0.010486 -0.546892 -0.601210 0.000000 0.000000 -1.571354
  1   -1.093036 0.000002 -0.326057 -0.214066 -1.569082 -1.356583
  2   2.262337 0.113614 0.064702 -0.261783 -0.114620 -0.029504
  3   2.380047 0.353302 0.047440 -0.365560 -0.015764 -0.033037
  4   2.033756 0.190472 -0.000128 -0.272665 -0.064609 -0.285108
  5   2.451511 0.204909 -0.003447 -0.512102 0.015557 -0.289322
  6   7.247600 -0.397300 -0.109469 0.000001 0.000021 0.156829
  7   -2.022252 -0.104661 3.136172 0.746452 -0.988492 -3.858287
  8   1.168026 -0.537438 -0.063437 0.196784 0.912265 -0.479387
  9   6.790376 -0.619176 0.015206 0.043727 0.041361 -0.499370
 10   8.637599 0.544015 -0.090417 -3.197551 0.843780 -0.338113
 11   6.790465 -0.619039 0.017802 0.031132 0.015921 -0.365111
 12   -2.022474 -0.104699 -2.873818 -2.423293 1.720884 -5.731899
 13   1.167898 -0.537463 0.063297 -1.898702 -0.842503 1.541669
 14   7.002743 -0.617765 -0.183752 0.028525 -0.168287 -1.793091
 15   8.209042 0.615527 -0.255885 1.677369 -0.100161 0.468162
 16   7.002735 -0.617911 -0.183641 0.001115 -0.117137 -1.270694
 17   1.574674 0.609930 -0.000899 1.025243 -0.093216 0.215105
 18   -0.602177 0.511412 -0.000006 0.000000 0.000000 0.000000
 19   3.673773 0.177020 1.119313 -0.000002 -0.000014 -0.174510
 20   3.673767 0.176993 -1.117566 0.000007 -0.000003 -0.174546
 21   3.942357 1.334540 1.627658 0.000002 -0.000011 -0.000026
 22   -0.246060 -0.011889 0.516521 -0.000011 0.000031 0.000025
 23   3.942374 1.334565 -1.631083 0.000019 0.000002 -0.000024
 24   -0.246150 -0.011872 -0.516511 -0.000005 -0.000006 0.000048
 25   4.941364 1.997338 1.629330 0.000018 -0.000001 -0.000024
 26   4.941382 1.997366 -1.629410 -0.000001 0.000005 -0.000024
 27   2.914462 1.619264 1.514501 -0.000019 -0.000022 -0.000050
 28   2.916892 1.618870 -1.501142 -0.000002 -0.000009 -0.000024
 29   8.824059 0.150544 0.091743 0.000006 -0.000231 -0.174534
 30   2.111085 -0.561179 1.784320 -0.000008 -0.000682 0.000024
 31   2.121290 -0.561289 -1.853599 0.000000 0.000000 -0.000002
 32   -0.814395 -0.093824 3.127092 0.564173 -3.064346 -0.563643
 33   14.298673 -0.408176 0.471578 -0.006380 -0.009799 -0.413614
 34   15.835795 0.581398 0.242756 -0.007436 -0.212263 -0.117891
 35   -0.815868 -0.091229 -3.114430 -0.120039 3.021422 -0.057358
 36   14.294526 -0.410349 -0.467541 0.001651 0.012787 -0.721549
 37   15.834409 0.579420 -0.284600 -0.182289 -0.002288 0.569929
 38   1.139685 -3.453749 -2.823813 0.000000 0.000000 0.000001
 39   -4.457742 -1.054854 -0.746180 0.000000 0.000000 0.000000
 40   1.118101 -3.449769 3.237290 0.000000 0.000001 0.000000
 41   -4.433840 -1.059130 0.959566 -0.000001 0.000000 0.000000
 42   -0.657468 1.697302 -2.688614 0.000000 0.000002 0.000000
 43   -0.664068 1.698578 2.869377 0.000000 0.000002 0.000000
time 4
  0   -0.010486 -0.546892 -0.601210 0.000000 0.000000 -1.571354
  1   -1.093036 0.000002 -0.326057 -0.214066 -1.569082 -1.356583
  2   2.262337 0.113614 0.064702 -0.234754 -0.110761 -0.037473
  3   2.380047 0.353302 0.047440 -0.340778 -0.018796 -0.038607
  4   2.033756 0.190472 -0.000128 -0.261655 -0.065795 -0.294568
  5   2.451511 0.204909 -0.003447 -0.504194 0.018077 -0.296702
  6   7.247600 -0.397300 -0.109469 0.000001 0.000021 0.156829
  7   -2.022252 -0.104661 3.136172 0.709739 -1.012591 -3.810390
  8   1.168026 -0.537438 -0.063437 0.160397 0.827133 -0.374881
  9   6.790376 -0.619176 0.015206 0.047666 0.057512 -0.655738
 10   8.637599 0.544015 -0.090417 -3.248804 0.851945 -0.246381
 11   6.790465 -0.619039 0.017802 0.036299 0.026183 -0.474578
 12   -2.022474 -0.104699 -2.873818 -2.651601 1.720216 -5.957752
 13   1.167898 -0.537463 0.063297 -1.764647 -0.983980 1.301346
 14   7.002743 -0.617765 -0.183752 0.025450 -0.165220 -1.751508
 15   8.209042 0.615527 -0.255885 1.818802 -0.070880 0.434305
 16   7.002735 -0.617911 -0.183641 0.000456 -0.114261 -1.241773
 17   1.574674 0.609930 -0.000899 0.999652 -0.078874 0.219873
 18   -0.602177 0.511412 -0.000006 0.000000 0.000000 0.000000
 19   3.673773 0.177020 1.119313 -0.000002 -0.000014 -0.174510
 20   3.673767 0.176993 -1.117566 0.000007 -0.000003 -0.174546
 21   3.942357 1.334540 1.627658 0.000002 -0.000011 -0.000026
 22   -0.246060 -0.011889 0.516521 -0.000011 0.000031 0.000025
 23   3.942374 1.334565 -1.631083 0.000019 0.000002 -0.000024
 24   -0.246150 -0.011872 -0.516511 -0.000005 -0.000006 0.000048
 25   4.941364 1.997338 1.629330 0.000018 -0.000001 -0.000024
 26   4.941382 1.997366 -1.629410 -0.000001 0.000005 -0.000024
 27   2.914462 1.619264 1.514501 -0.000019 -0.000022 -0.000050
 28   2.916892 1.618870 -1.501142 -0.000002 -0.000009 -0.000024
 29   8.824059 0.150544 0.091743 0.000006 -0.000231 -0.174534
 30   2.111085 -0.561179 1.784320 -0.000008 -0.000682 0.000024
 31   2.121290 -0.561289 -1.853599 0.000000 0.000000 -0.000002
 32   -0.814395 -0.093824 3.127092 0.564173 -3.064346 -0.563643
 33   14.298673 -0.408176 0.471578 -0.006380 -0.009799 -0.413614
 34   15.835795 0.581398 0.242756 -0.007436 -0.212263 -0.117891
 35   -0.815868 -0.091229 -3.114430 -0.120039 3.021422 -0.057358
 36   14.294526 -0.410349 -0.467541 0.001651 0.012787 -0.721549
 37   15.834409 0.579420 -0.284600 -0.182289 -0.002288 0.569929
 38   1.139685 -3.453749 -2.823813 0.000000 0.000000 0.000001
 39   -4.457742 -1.054854 -0.746180 0.000000 0.000000 0.000000
 40   1.118101 -3.449769 3.237290 0.000000 0.000001 0.000000
 41   -4.433840 -1.059130 0.959566 -0.000001 0.000000 0.000000
 42   -0.657468 1.697302 -2.688614 0.000000 0.000002 0.000000
 43   -0.664068 1.698578 2.869377 0.000000 0.000002 0.000000
time 5
  0   -0.010486 -0.546892 -0.601210 0.000000 0.000000 -1.571354
  1   -1.093036 0.000002 -0.326057 -0.214066 -1.569082 -1.356583
  2   2.262337 0.113614 0.064702 -0.198706 -0.110593 -0.046491
  3   2.380047 0.353302 0.047440 -0.307656 -0.024045 -0.043341
  4   2.033756 0.190472 -0.000128 -0.246698 -0.066407 -0.303811
  5   2.451511 0.204909 -0.003447 -0.492709 0.020675 -0.306187
  6   7.247600 -0.397300 -0.109469 0.000001 0.000021 0.156829
  7   -2.022252 -0.104661 3.136172 0.689609 -1.038161 -3.775547
  8   1.168026 -0.537438 -0.063437 0.090789 0.745271 -0.288657
  9   6.790376 -0.619176 0.015206 0.049164 0.076400 -0.830596
 10   8.637599 0.544015 -0.090417 -3.292661 0.801545 -0.201021
 11   6.790465 -0.619039 0.017802 0.040766 0.038406 -0.596964
 12   -2.022474 -0.104699 -2.873818 -2.833060 1.712205 0.153785
 13   1.167898 -0.537463 0.063297 -1.446064 -1.097793 0.866525
 14   7.002743 -0.617765 -0.183752 0.022091 -0.161700 -1.703820
 15   8.209042 0.615527 -0.255885 2.019483 -0.030781 0.375490
 16   7.002735 -0.617911 -0.183641 -0.000344 -0.110991 -1.208767
 17   1.574674 0.609930 -0.000899 0.939573 -0.053976 0.242383
 18   -0.602177 0.511412 -0.000006 0.000000 0.000000 0.000000
 19   3.673773 0.177020 1.119313 -0.000002 -0.000014 -0.174510
 20   3.673767 0.176993 -1.117566 0.000007 -0.000003 -0.174546
 21   3.942357 1.334540 1.627658 0.000002 -0.000011 -0.000026
 22   -0.246060 -0.011889 0.516521 -0.000011 0.000031 0.000025
 23   3.942374 1.334565 -1.631083 0.000019 0.000002 -0.000024
 24   -0.246150 -0.011872 -0.516511 -0.000005 -0.000006 0.000048
 25   4.941364 1.997338 1.629330 0.000018 -0.000001 -0.000024
 26   4.941382 1.997366 -1.629410 -0.000001 0.000005 -0.000024
 27   2.914462 1.619264 1.514501 -0.000019 -0.000022 -0.000050
 28   2.916892 1.618870 -1.501142 -0.000002 -0.000009 -0.000024
 29   8.824059 0.150544 0.091743 0.000006 -0.000231 -0.174534
 30   2.111085 -0.561179 1.784320 -0.000008 -0.000682 0.000024
 31   2.121290 -0.561289 -1.853599 0.000000 0.000000 -0.000002
 32   -0.814395 -0.093824 3.127092 0.564173 -3.064346 -0.563643
 33   14.298673 -0.408176 0.471578 -0.006380 -0.009799 -0.413614
 34   15.835795 0.581398 0.242756 -0.007436 -0.212263 -0.117891
 35   -0.815868 -0.091229 -3.114430 -0.120039 3.021422 -0.057358
 36   14.294526 -0.410349 -0.467541 0.001651 0.012787 -0.721549
 37   15.834409 0.579420 -0.284600 -0.182289 -0.002288 0.569929
 38   1.139685 -3.453749 -2.823813 0.000000 0.000000 0.000001
 39   -4.457742 -1.054854 -0.746180 0.000000 0.000000 0.000000
 40   1.118101 -3.449769 3.237290 0.000000 0.000001 0.000000
 41   -4.433840 -1.059130 0.959566 -0.000001 0.000000 0.000000
 42   -0.657468 1.697302 -2.688614 0.000000 0.000002 0.000000
 43   -0.664068 1.698578 2.869377 0.000000 0.000002 0.000000
time 6
  0   -0.010486 -0.546892 -0.601210 0.000000 0.000000 -1.571354
  1   -1.093036 0.000002 -0.326057 -0.214066 -1.569082 -1.356583
  2   2.262337 0.113614 0.064702 -0.158927 -0.109742 -0.050593
  3   2.380047 0.353302 0.047440 -0.271263 -0.030601 -0.047280
  4   2.033756 0.190472 -0.000128 -0.230044 -0.066778 -0.317041
  5   2.451511 0.204909 -0.003447 -0.482610 0.031694 -0.321740
  6   7.247600 -0.397300 -0.109469 0.000001 0.000021 0.156829
  7   -2.022252 -0.104661 3.136172 0.690088 -1.065143 -3.783436
  8   1.168026 -0.537438 -0.063437 0.014662 0.712014 -0.221285
  9   6.790376 -0.619176 0.015206 0.047999 0.092084 -0.973532
 10   8.637599 0.544015 -0.090417 -3.340392 0.687724 -0.225328
 11   6.790465 -0.619039 0.017802 0.043307 0.048894 -0.696857
 12   -2.022474 -0.104699 -2.873818 3.303478 1.701147 0.030853
 13   1.167898 -0.537463 0.063297 -0.994340 -1.109082 0.328008
 14   7.002743 -0.617765 -0.183752 0.019359 -0.158690 -1.664135
 15   8.209042 0.615527 -0.255885 2.212830 0.011286 0.316315
 16   7.002735 -0.617911 -0.183641 -0.000956 -0.108341 -1.181116
 17   1.574674 0.609930 -0.000899 0.860320 -0.047657 0.264153
 18   -0.602177 0.511412 -0.000006 0.000000 0.000000 0.000000
 19   3.673773 0.177020 1.119313 -0.000002 -0.000014 -0.174510
 20   3.673767 0.176993 -1.117566 0.000007 -0.000003 -0.174546
 21   3.942357 1.334540 1.627658 0.000002 -0.000011 -0.000026
 22   -0.246060 -0.011889 0.516521 -0.000011 0.000031 0.000025
 23   3.942374 1.334565 -1.631083 0.000019 0.000002 -0.000024
 24   -0.246150 -0.011872 -0.516511 -0.000005 -0.000006 0.000048
 25   4.941364 1.997338 1.629330 0.000018 -0.000001 -0.000024
 26   4.941382 1.997366 -1.629410 -0.000001 0.000005 -0.000024
 27   2.914462 1.619264 1.514501 -0.000019 -0.000022 -0.000050
 28   2.916892 1.618870 -1.501142 -0.000002 -0.000009 -0.000024
 29   8.824059 0.150544 0.091743 0.000006 -0.000231 -0.174534
 30   2.111085 -0.561179 1.784320 -0.000008 -0.000682 0.000024
 31   2.121290 -0.561289 -1.853599 0.000000 0.000000 -0.000002
 32   -0.814395 -0.093824 3.127092 0.564173 -3.064346 -0.563643
 33   14.298673 -0.408176 0.471578 -0.006380 -0.009799 -0.413614
 34   15.835795 0.581398 0.242756 -0.007436 -0.212263 -0.117891
 35   -0.815868 -0.091229 -3.114430 -0.120039 3.021422 -0.057358
 36   14.294526 -0.410349 -0.467541 0.001651 0.012787 -0.721549
 37   15.834409 0.579420 -0.284600 -0.182289 -0.002288 0.569929
 38   1.139685 -3.453749 -2.823813 0.000000 0.000000 0.000001
 39   -4.457742 -1.054854 -0.746180 0.000000 0.000000 0.000000
 40   1.118101 -3.449769 3.237290 0.000000 0.000001 0.000000
 41   -4.433840 -1.059130 0.959566 -0.000001 0.000000 0.000000
 42   -0.657468 1.697302 -2.688614 0.000000 0.000002 0.000000
 43   -0.664068 1.698578 2.869377 0.000000 0.000002 0.000000
time 7
  0   -0.010486 -0.546892 -0.601210 0.000000 0.000000 -1.571354
  1   -1.093036 0.000002 -0.326057 -0.214066 -1.569082 -1.356583
  2   2.262337 0.113614 0.064702 -0.124332 -0.098944 -0.053376
  3   2.380047 0.353302 0.047440 -0.239701 -0.031691 -0.053973
  4   2.033756 0.190472 -0.000128 -0.215917 -0.065891 -0.332917
  5   2.451511 0.204909 -0.003447 -0.466520 0.019748 -0.331101
  6   7.247600 -0.397300 -0.109469 0.000001 0.000021 0.156829
  7   -2.022252 -0.104661 3.136172 0.673409 -1.110748 -3.803815
  8   1.168026 -0.537438 -0.063437 -0.072791 0.733800 -0.189971
  9   6.790376 -0.619176 0.015206 0.046556 0.099625 -1.043113
 10   8.637599 0.544015 -0.090417 -3.376234 0.558276 -0.322559
 11   6.790465 -0.619039 0.017802 0.044182 0.054096 -0.745476
 12   -2.022474 -0.104699 -2.873818 -0.219539 1.461990 -3.468388
 13   1.167898 -0.537463 0.063297 -0.667814 -1.058889 -0.046582
 14   7.002743 -0.617765 -0.183752 0.017537 -0.156248 -1.635258
 15   8.209042 0.615527 -0.255885 2.354120 0.079833 0.288351
 16   7.002735 -0.617911 -0.183641 -0.001239 -0.106254 -1.161081
 17   1.574674 0.609930 -0.000899 0.776925 -0.069715 0.304366
 18   -0.602177 0.511412 -0.000006 0.000000 0.000000 0.000000
 19   3.673773 0.177020 1.119313 -0.000002 -0.000014 -0.174510
 20   3.673767 0.176993 -1.117566 0.000007 -0.000003 -0.174546
 21   3.942357 1.334540 1.627658 0.000002 -0.000011 -0.000026
 22   -0.246060 -0.011889 0.516521 -0.000011 0.000031 0.000025
 23   3.942374 1.334565 -1.631083 0.000019 0.000002 -0.000024
 24   -0.246150 -0.011872 -0.516511 -0.000005 -0.000006 0.000048
 25   4.941364 1.997338 1.629330 0.000018 -0.000001 -0.000024
 26   4.941382 1.997366 -1.629410 -0.000001 0.000005 -0.000024
 27   2.914462 1.619264 1.514501 -0.000019 -0.000022 -0.000050
 28   2.916892 1.618870 -1.501142 -0.000002 -0.000009 -0.000024
 29   8.824059 0.150544 0.091743 0.000006 -0.000231 -0.174534
 30   2.111085 -0.561179 1.784320 -0.000008 -0.000682 0.000024
 31   2.121290 -0.561289 -1.853599 0.000000 0.000000 -0.000002
 32   -0.814395 -0.093824 3.127092 0.564173 -3.064346 -0.563643
 33   14.298673 -0.408176 0.471578 -0.006380 -0.009799 -0.413614
 34   15.835795 0.581398 0.242756 -0.007436 -0.212263 -0.117891
 35   -0.815868 -0.091229 -3.114430 -0.120039 3.021422 -0.057358
 36   14.294526 -0.410349 -0.467541 0.001651 0.012787 -0.721549
 37   15.834409 0.579420 -0.284600 -0.182289 -0.002288 0.569929
 38   1.139685 -3.453749 -2.823813 0.000000 0.000000 0.000001
 39   -4.457742 -1.054854 -0.746180 0.000000 0.000000 0.000000
 40   1.118101 -3.449769 3.237290 0.000000 0.000001 0.000000
 41   -4.433840 -1.059130 0.959566 -0.000001 0.000000 0.000000
 42   -0.657468 1.697302 -2.688614 0.000000 0.000002 0.000000
 43   -0.664068 1.698578 2.869377 0.000000 0.000002 0.000000
time 8
  0   -0.010486 -0.546892 -0.601210 0.000000 0.000000 -1.571354
  1   -1.093036 0.000002 -0.326057 -0.214066 -1.569082 -1.356583
  2   2.262337 0.113614 0.064702 -0.098373 -0.087954 -0.054370
  3   2.380047 0.353302 0.047440 -0.216195 -0.032267 -0.061502
  4   2.033756 0.190472 -0.000128 -0.205368 -0.064405 -0.349084
  5   2.451511 0.204909 -0.003447 -0.452176 0.003455 -0.338407
  6   7.247600 -0.397300 -0.109469 0.000001 0.000021 0.156829
  7   -2.022252 -0.104661 3.136172 0.627493 -1.143092 -3.776955
  8   1.168026 -0.537438 -0.063437 -0.204731 0.753271 -0.215971
  9   6.790376 -0.619176 0.015206 0.046001 0.104164 -1.075111
 10   8.637599 0.544015 -0.090417 -3.369013 0.425379 -0.419428
 11   6.790465 -0.619039 0.017802 0.044708 0.057195 -0.767854
 12   -2.022474 -0.104699 -2.873818 -0.739580 1.466663 -3.980220
 13   1.167898 -0.537463 0.063297 -0.475062 -0.983980 -0.282728
 14   7.002743 -0.617765 -0.183752 0.015316 -0.153068 -1.597388
 15   8.209042 0.615527 -0.255885 2.491813 0.163437 0.263815
 16   7.002735 -0.617911 -0.183641 -0.001521 -0.103548 -1.134809
 17   1.574674 0.609930 -0.000899 0.712377 -0.080365 0.359327
 18   -0.602177 0.511412 -0.000006 0.000000 0.000000 0.000000
 19   3.673773 0.177020 1.119313 -0.000002 -0.000014 -0.174510
 20   3.673767 0.176993 -1.117566 0.000007 -0.000003 -0.174546
 21   3.942357 1.334540 1.627658 0.000002 -0.000011 -0.000026
 22   -0.246060 -0.011889 0.516521 -0.000011 0.000031 0.000025
 23   3.942374 1.334565 -1.631083 0.000019 0.000002 -0.000024
 24   -0.246150 -0.011872 -0.516511 -0.000005 -0.000006 0.000048
 25   4.941364 1.997338 1.629330 0.000018 -0.000001 -0.000024
 26   4.941382 1.997366 -1.629410 -0.000001 0.000005 -0.000024
 27   2.914462 1.619264 1.514501 -0.000019 -0.000022 -0.000050
 28   2.916892 1.618870 -1.501142 -0.000002 -0.000009 -0.000024
 29   8.824059 0.150544 0.091743 0.000006 -0.000231 -0.174534
 30   2.111085 -0.561179 1.784320 -0.000008 -0.000682 0.000024
 31   2.121290 -0.561289 -1.853599 0.000000 0.000000 -0.000002
 32   -0.814395 -0.093824 3.127092 0.564173 -3.064346 -0.563643
 33   14.298673 -0.408176 0.471578 -0.006380 -0.009799 -0.413614
 34   15.835795 0.581398 0.242756 -0.007436 -0.212263 -0.117891
 35   -0.815868 -0.091229 -3.114430 -0.120039 3.021422 -0.057358
 36   14.294526 -0.410349 -0.467541 0.001651 0.012787 -0.721549
 37   15.834409 0.579420 -0.284600 -0.182289 -0.002288 0.569929
 38   1.139685 -3.453749 -2.823813 0.000000 0.000000 0.000001
 39   -4.457742 -1.054854 -0.746180 0.000000 0.000000 0.000000
 40   1.118101 -3.449769 3.237290 0.000000 0.000001 0.000000
 41   -4.433840 -1.059130 0.959566 -0.000001 0.000000 0.000000
 42   -0.657468 1.697302 -2.688614 0.000000 0.000002 0.000000
 43   -0.664068 1.698578 2.869377 0.000000 0.000002 0.000000
time 9
  0   -0.010486 -0.546892 -0.601210 0.000000 0.000000 -1.571354
  1   -1.093036 0.000002 -0.326057 -0.214066 -1.569082 -1.356583
  2   2.262337 0.113614 0.064702 -0.077853 -0.079829 -0.059122
  3   2.380047 0.353302 0.047440 -0.197833 -0.032410 -0.068399
  4   2.033756 0.190472 -0.000128 -0.197235 -0.063039 -0.360393
  5   2.451511 0.204909 -0.003447 -0.440708 -0.010110 -0.343658
  6   7.247600 -0.397300 -0.109469 0.000001 0.000021 0.156829
  7   -2.022252 -0.104661 3.136172 0.615894 -1.163877 -3.782496
  8   1.168026 -0.537438 -0.063437 -0.349264 0.797196 -0.258482
  9   6.790376 -0.619176 0.015206 0.045668 0.106967 -1.090582
 10   8.637599 0.544015 -0.090417 -3.329560 0.305012 -0.460592
 11   6.790465 -0.619039 0.017802 0.045117 0.059156 -0.778467
 12   -2.022474 -0.104699 -2.873818 -1.392601 1.450642 -4.663045
 13   1.167898 -0.537463 0.063297 -0.383466 -0.982506 -0.375467
 14   7.002743 -0.617765 -0.183752 0.014918 -0.152387 -1.574369
 15   8.209042 0.615527 -0.255885 2.573136 0.197257 0.251427
 16   7.002735 -0.617911 -0.183641 -0.001239 -0.103040 -1.118858
 17   1.574674 0.609930 -0.000899 0.657010 -0.076105 0.415582
 18   -0.602177 0.511412 -0.000006 0.000000 0.000000 0.000000
 19   3.673773 0.177020 1.119313 -0.000002 -0.000014 -0.174510
 20   3.673767 0.176993 -1.117566 0.000007 -0.000003 -0.174546
 21   3.942357 1.334540 1.627658 0.000002 -0.000011 -0.000026
 22   -0.246060 -0.011889 0.516521 -0.000011 0.000031 0.000025
 23   3.942374 1.334565 -1.631083 0.000019 0.000002 -0.000024
 24   -0.246150 -0.011872 -0.516511 -0.000005 -0.000006 0.000048
 25   4.941364 1.997338 1.629330 0.000018 -0.000001 -0.000024
 26   4.941382 1.997366 -1.629410 -0.000001 0.000005 -0.000024
 27   2.914462 1.619264 1.514501 -0.000019 -0.000022 -0.000050
 28   2.916892 1.618870 -1.501142 -0.000002 -0.000009 -0.000024
 29   8.824059 0.150544 0.091743 0.000006 -0.000231 -0.174534
 30   2.111085 -0.561179 1.784320 -0.000008 -0.000682 0.000024
 31   2.121290 -0.561289 -1.853599 0.000000 0.000000 -0.000002
 32   -0.814395 -0.093824 3.127092 0.564173 -3.064346 -0.563643
 33   14.298673 -0.408176 0.471578 -0.006380 -0.009799 -0.413614
 34   15.835795 0.581398 0.242756 -0.007436 -0.212263 -0.117891
 35   -0.815868 -0.091229 -3.114430 -0.120039 3.021422 -0.057358
 36   14.294526 -0.410349 -0.467541 0.001651 0.012787 -0.721549
 37   15.834409 0.579420 -0.284600 -0.182289 -0.002288 0.569929
 38   1.139685 -3.453749 -2.823813 0.000000 0.000000 0.000001
 39   -4.457742 -1.054854 -0.746180 0.000000 0.000000 0.000000
 40   1.118101 -3.449769 3.237290 0.000000 0.000001 0.000000
 41   -4.433840 -1.059130 0.959566 -0.000001 0.000000 0.000000
 42   -0.657468 1.697302 -2.688614 0.000000 0.000002 0.000000
 43   -0.664068 1.698578 2.869377 0.000000 0.000002 0.000000
time 10
  0   -0.010486 -0.546892 -0.601210 0.000000 0.000000 -1.571354
  1   -1.093036 0.000002 -0.326057 -0.214066 -1.569082 -1.356583
  2   2.262337 0.113614 0.064702 -0.061727 -0.077420 -0.065393
  3   2.380047 0.353302 0.047440 -0.184302 -0.032818 -0.074093
  4   2.033756 0.190472 -0.000128 -0.190946 -0.062440 -0.368621
  5   2.451511 0.204909 -0.003447 -0.433981 -0.014888 -0.350022
  6   7.247600 -0.397300 -0.109469 0.000001 0.000021 0.156829
  7   -2.022252 -0.104661 3.136172 0.597201 -1.173649 -3.790385
  8   1.168026 -0.537438 -0.063437 -0.443994 0.822001 -0.284735
  9   6.790376 -0.619176 0.015206 0.043782 0.110237 -1.140541
 10   8.637599 0.544015 -0.090417 -3.283150 0.163527 -0.445255
 11   6.790465 -0.619039 0.017802 0.044971 0.061458 -0.813302
 12   -2.022474 -0.104699 -2.873818 -1.806966 1.404174 -5.107859
 13   1.167898 -0.537463 0.063297 -0.332782 -1.006153 -0.404100
 14   7.002743 -0.617765 -0.183752 0.015658 -0.152955 -1.586910
 15   8.209042 0.615527 -0.255885 2.615990 0.225629 0.241144
 16   7.002735 -0.617911 -0.183641 -0.001097 -0.103548 -1.127468
 17   1.574674 0.609930 -0.000899 0.615211 -0.052177 0.444338
 18   -0.602177 0.511412 -0.000006 0.000000 0.000000 0.000000
 19   3.673773 0.177020 1.119313 -0.000002 -0.000014 -0.174510
 20   3.673767 0.176993 -1.117566 0.000007 -0.000003 -0.174546
 21   3.942357 1.334540 1.627658 0.000002 -0.000011 -0.000026
 22   -0.246060 -0.011889 0.516521 -0.000011 0.000031 0.000025
 23   3.942374 1.334565 -1.631083 0.000019 0.000002 -0.000024
 24   -0.246150 -0.011872 -0.516511 -0.000005 -0.000006 0.000048
 25   4.941364 1.997338 1.629330 0.000018 -0.000001 -0.000024
 26   4.941382 1.997366 -1.629410 -0.000001 0.000005 -0.000024
 27   2.914462 1.619264 1.514501 -0.000019 -0.000022 -0.000050
 28   2.916892 1.618870 -1.501142 -0.000002 -0.000009 -0.000024
 29   8.824059 0.150544 0.091743 0.000006 -0.000231 -0.174534
 30   2.111085 -0.561179 1.784320 -0.000008 -0.000682 0.000024
 31   2.121290 -0.561289 -1.853599 0.000000 0.000000 -0.000002
 32   -0.814395 -0.093824 3.127092 0.564173 -3.064346 -0.563643
 33   14.298673 -0.408176 0.471578 -0.006380 -0.009799 -0.413614
 34   15.835795 0.581398 0.242756 -0.007436 -0.212263 -0.117891
 35   -0.815868 -0.091229 -3.114430 -0.120039 3.021422 -0.057358
 36   14.294526 -0.410349 -0.467541 0.001651 0.012787 -0.721549
 37   15.834409 0.579420 -0.284600 -0.182289 -0.002288 0.569929
 38   1.139685 -3.453749 -2.823813 0.000000 0.000000 0.000001
 39   -4.457742 -1.054854 -0.746180 0.000000 0.000000 0.000000
 40   1.118101 -3.449769 3.237290 0.000000 0.000001 0.000000
 41   -4.433840 -1.059130 0.959566 -0.000001 0.000000 0.000000
 42   -0.657468 1.697302 -2.688614 0.000000 0.000002 0.000000
 43   -0.664068 1.698578 2.869377 0.000000 0.000002 0.000000
time 11
  0   -0.010486 -0.546892 -0.601210 0.000000 0.000000 -1.571354
  1   -1.093036 0.000002 -0.326057 -0.214066 -1.569082 -1.356583
  2   2.262337 0.113614 0.064702 -0.051117 -0.076173 -0.070507
  3   2.380047 0.353302 0.047440 -0.175617 -0.033561 -0.079276
  4   2.033756 0.190472 -0.000128 -0.186833 -0.062679 -0.376414
  5   2.451511 0.204909 -0.003447 -0.429633 -0.018896 -0.356560
  6   7.247600 -0.397300 -0.109469 0.000001 0.000021 0.156829
  7   -2.022252 -0.104661 3.136172 0.559625 -1.181663 -3.772447
  8   1.168026 -0.537438 -0.063437 -0.514109 0.793322 -0.331358
  9   6.790376 -0.619176 0.015206 0.042839 0.111105 -1.161219
 10   8.637599 0.544015 -0.090417 -3.275136 0.075117 -0.376166
 11   6.790465 -0.619039 0.017802 0.044708 0.062112 -0.827779
 12   -2.022474 -0.104699 -2.873818 -1.995993 1.372045 -5.300011
 13   1.167898 -0.537463 0.063297 -0.259533 -1.012866 -0.470507
 14   7.002743 -0.617765 -0.183752 0.016626 -0.154204 -1.610754
 15   8.209042 0.615527 -0.255885 2.662080 0.267091 0.258283
 16   7.002735 -0.617911 -0.183641 -0.001050 -0.104619 -1.144081
 17   1.574674 0.609930 -0.000899 0.586004 -0.030096 0.456424
 18   -0.602177 0.511412 -0.000006 0.000000 0.000000 0.000000
 19   3.673773 0.177020 1.119313 -0.000002 -0.000014 -0.174510
 20   3.673767 0.176993 -1.117566 0.000007 -0.000003 -0.174546
 21   3.942357 1.334540 1.627658 0.000002 -0.000011 -0.000026
 22   -0.246060 -0.011889 0.516521 -0.000011 0.000031 0.000025
 23   3.942374 1.334565 -1.631083 0.000019 0.000002 -0.000024
 24   -0.246150 -0.011872 -0.516511 -0.000005 -0.000006 0.000048
 25   4.941364 1.997338 1.629330 0.000018 -0.000001 -0.000024
 26   4.941382 1.997366 -1.629410 -0.000001 0.000005 -0.000024
 27   2.914462 1.619264 1.514501 -0.000019 -0.000022 -0.000050
 28   2.916892 1.618870 -1.501142 -0.000002 -0.000009 -0.000024
 29   8.824059 0.150544 0.091743 0.000006 -0.000231 -0.174534
 30   2.111085 -0.561179 1.784320 -0.000008 -0.000682 0.000024
 31   2.121290 -0.561289 -1.853599 0.000000 0.000000 -0.000002
 32   -0.814395 -0.093824 3.127092 0.564173 -3.064346 -0.563643
 33   14.298673 -0.408176 0.471578 -0.006380 -0.009799 -0.413614
 34   15.835795 0.581398 0.242756 -0.007436 -0.212263 -0.117891
 35   -0.815868 -0.091229 -3.114430 -0.120039 3.021422 -0.057358
 36   14.294526 -0.410349 -0.467541 0.001651 0.012787 -0.721549
 37   15.834409 0.579420 -0.284600 -0.182289 -0.002288 0.569929
 38   1.139685 -3.453749 -2.823813 0.000000 0.000000 0.000001
 39   -4.457742 -1.054854 -0.746180 0.000000 0.000000 0.000000
 40   1.118101 -3.449769 3.237290 0.000000 0.000001 0.000000
 41   -4.433840 -1.059130 0.959566 -0.000001 0.000000 0.000000
 42   -0.657468 1.697302 -2.688614 0.000000 0.000002 0.000000
 43   -0.664068 1.698578 2.869377 0.000000 0.000002 0.000000
time 12
  0   -0.010486 -0.546892 -0.601210 0.000000 0.000000 -1.571354
  1   -1.093036 0.000002 -0.326057 -0.214066 -1.569082 -1.356583
  2   2.262337 0.113614 0.064702 -0.044162 -0.075610 -0.076145
  3   2.380047 0.353302 0.047440 -0.169226 -0.034316 -0.083948
  4   2.033756 0.190472 -0.000128 -0.183827 -0.062967 -0.383083
  5   2.451511 0.204909 -0.003447 -0.425388 -0.025620 -0.361712
  6   7.247600 -0.397300 -0.109469 0.000001 0.000021 0.156829
  7   -2.022252 -0.104661 3.136172 0.549752 -1.189072 -3.773762
  8   1.168026 -0.537438 -0.063437 -0.561253 0.774252 -0.358813
  9   6.790376 -0.619176 0.015206 0.042173 0.110571 -1.167181
 10   8.637599 0.544015 -0.090417 -3.287201 0.011906 -0.291089
 11   6.790465 -0.619039 0.017802 0.044358 0.061856 -0.832047
 12   -2.022474 -0.104699 -2.873818 -2.090172 1.357417 -5.401018
 13   1.167898 -0.537463 0.063297 -0.200344 -1.019426 -0.537095
 14   7.002743 -0.617765 -0.183752 0.017024 -0.155453 -1.621480
 15   8.209042 0.615527 -0.255885 2.682428 0.291302 0.271573
 16   7.002735 -0.617911 -0.183641 -0.001192 -0.105578 -1.151588
 17   1.574674 0.609930 -0.000899 0.566953 -0.006950 0.475607
 18   -0.602177 0.511412 -0.000006 0.000000 0.000000 0.000000
 19   3.673773 0.177020 1.119313 -0.000002 -0.000014 -0.174510
 20   3.673767 0.176993 -1.117566 0.000007 -0.000003 -0.174546
 21   3.942357 1.334540 1.627658 0.000002 -0.000011 -0.000026
 22   -0.246060 -0.011889 0.516521 -0.000011 0.000031 0.000025
 23   3.942374 1.334565 -1.631083 0.000019 0.000002 -0.000024
 24   -0.246150 -0.011872 -0.516511 -0.000005 -0.000006 0.000048
 25   4.941364 1.997338 1.629330 0.000018 -0.000001 -0.000024
 26   4.941382 1.997366 -1.629410 -0.000001 0.000005 -0.000024
 27   2.914462 1.619264 1.514501 -0.000019 -0.000022 -0.000050
 28   2.916892 1.618870 -1.501142 -0.000002 -0.000009 -0.000024
 29   8.824059 0.150544 0.091743 0.000006 -0.000231 -0.174534
 30   2.111085 -0.561179 1.784320 -0.000008 -0.000682 0.000024
 31   2.121290 -0.561289 -1.853599 0.000000 0.000000 -0.000002
 32   -0.814395 -0.093824 3.127092 0.564173 -3.064346 -0.563643
 33   14.298673 -0.408176 0.471578 -0.006380 -0.009799 -0.413614
 34   15.835795 0.581398 0.242756 -0.007436 -0.212263 -0.117891
 35   -0.815868 -0.091229 -3.114430 -0.120039 3.021422 -0.057358
 36   14.294526 -0.410349 -0.467541 0.001651 0.012787 -0.721549
 37   15.834409 0.579420 -0.284600 -0.182289 -0.002288 0.569929
 38   1.139685 -3.453749 -2.823813 0.000000 0.000000 0.000001
 39   -4.457742 -1.054854 -0.746180 0.000000 0.000000 0.000000
 40   1.118101 -3.449769 3.237290 0.000000 0.000001 0.000000
 41   -4.433840 -1.059130 0.959566 -0.000001 0.000000 0.000000
 42   -0.657468 1.697302 -2.688614 0.000000 0.000002 0.000000
 43   -0.664068 1.698578 2.869377 0.000000 0.000002 0.000000
time 13
  0   -0.010486 -0.546892 -0.601210 0.000000 0.000000 -1.571354
  1   -1.093036 0.000002 -0.326057 -0.214066 -1.569082 -1.356583
  2   2.262337 0.113614 0.064702 -0.039857 -0.074723 -0.079705
  3   2.380047 0.353302 0.047440 -0.165161 -0.034975 -0.087111
  4   2.033756 0.190472 -0.000128 -0.181651 -0.063159 -0.388013
  5   2.451511 0.204909 -0.003447 -0.422307 -0.031234 -0.365946
  6   7.247600 -0.397300 -0.109469 0.000001 0.000021 0.156829
  7   -2.022252 -0.104661 3.136172 0.546397 -1.204235 -3.775922
  8   1.168026 -0.537438 -0.063437 -0.606372 0.785774 -0.402336
  9   6.790376 -0.619176 0.015206 0.042562 0.108435 -1.148767
 10   8.637599 0.544015 -0.090417 -3.317583 -0.004354 -0.224967
 11   6.790465 -0.619039 0.017802 0.044066 0.060350 -0.819185
 12   -2.022474 -0.104699 -2.873818 -2.113166 1.359710 -5.441421
 13   1.167898 -0.537463 0.063297 -0.188604 -1.030919 -0.564578
 14   7.002743 -0.617765 -0.183752 0.018106 -0.156475 -1.640951
 15   8.209042 0.615527 -0.255885 2.666969 0.305072 0.304107
 16   7.002735 -0.617911 -0.183641 -0.000956 -0.106536 -1.165055
 17   1.574674 0.609930 -0.000899 0.556269 0.014184 0.503217
 18   -0.602177 0.511412 -0.000006 0.000000 0.000000 0.000000
 19   3.673773 0.177020 1.119313 -0.000002 -0.000014 -0.174510
 20   3.673767 0.176993 -1.117566 0.000007 -0.000003 -0.174546
 21   3.942357 1.334540 1.627658 0.000002 -0.000011 -0.000026
 22   -0.246060 -0.011889 0.516521 -0.000011 0.000031 0.000025
 23   3.942374 1.334565 -1.631083 0.000019 0.000002 -0.000024
 24   -0.246150 -0.011872 -0.516511 -0.000005 -0.000006 0.000048
 25   4.941364 1.997338 1.629330 0.000018 -0.000001 -0.000024
 26   4.941382 1.997366 -1.629410 -0.000001 0.000005 -0.000024
 27   2.914462 1.619264 1.514501 -0.000019 -0.000022 -0.000050
 28   2.916892 1.618870 -1.501142 -0.000002 -0.000009 -0.000024
 29   8.824059 0.150544 0.091743 0.000006 -0.000231 -0.174534
 30   2.111085 -0.561179 1.784320 -0.000008 -0.000682 0.000024
 31   2.121290 -0.561289 -1.853599 0.000000 0.000000 -0.000002
 32   -0.814395 -0.093824 3.127092 0.564173 -3.064346 -0.563643
 33   14.298673 -0.408176 0.471578 -0.006380 -0.009799 -0.413614
 34   15.835795 0.581398 0.242756 -0.007436 -0.212263 -0.117891
 35   -0.815868 -0.091229 -3.114430 -0.120039 3.021422 -0.057358
 36   14.294526 -0.410349 -0.467541 0.001651 0.012787 -0.721549
 37   15.834409 0.579420 -0.284600 -0.182289 -0.002288 0.569929
 38   1.139685 -3.453749 -2.823813 0.000000 0.000000 0.000001
 39   -4.457742 -1.054854 -0.746180 0.000000 0.000000 0.000000
 40   1.118101 -3.449769 3.237290 0.000000 0.000001 0.000000
 41   -4.433840 -1.059130 0.959566 -0.000001 0.000000 0.000000
 42   -0.657468 1.697302 -2.688614 0.000000 0.000002 0.000000
 43   -0.664068 1.698578 2.869377 0.000000 0.000002 0.000000
time 14
  0   -0.010486 -0.546892 -0.601210 0.000000 0.000000 -1.571354
  1   -1.093036 0.000002 -0.326057 -0.214066 -1.569082 -1.356583
  2   2.262337 0.113614 0.064702 -0.037437 -0.073069 -0.081277
  3   2.380047 0.353302 0.047440 -0.162671 -0.035335 -0.089233
  4   2.033756 0.190472 -0.000128 -0.180747 -0.063374 -0.391855
  5   2.451511 0.204909 -0.003447 -0.420253 -0.034328 -0.368596
  6   7.247600 -0.397300 -0.109469 0.000001 0.000021 0.156829
  7   -2.022252 -0.104661 3.136172 0.554736 -1.219715 -3.782309
  8   1.168026 -0.537438 -0.063437 -0.659591 0.772190 -0.475022
  9   6.790376 -0.619176 0.015206 0.044115 0.104898 -1.106128
 10   8.637599 0.544015 -0.090417 -3.338983 0.007612 -0.163691
 11   6.790465 -0.619039 0.017802 0.044066 0.057792 -0.789367
 12   -2.022474 -0.104699 -2.873818 -2.100136 1.368272 -5.432517
 13   1.167898 -0.537463 0.063297 -0.183402 -1.032038 -0.581709
 14   7.002743 -0.617765 -0.183752 0.018789 -0.157611 -1.651099
 15   8.209042 0.615527 -0.255885 2.656903 0.340329 0.325396
 16   7.002735 -0.617911 -0.183641 -0.000909 -0.107495 -1.172009
 17   1.574674 0.609930 -0.000899 0.547942 0.023935 0.539290
 18   -0.602177 0.511412 -0.000006 0.000000 0.000000 0.000000
 19   3.673773 0.177020 1.119313 -0.000002 -0.000014 -0.174510
 20   3.673767 0.176993 -1.117566 0.000007 -0.000003 -0.174546
 21   3.942357 1.334540 1.627658 0.000002 -0.000011 -0.000026
 22   -0.246060 -0.011889 0.516521 -0.000011 0.000031 0.000025
 23   3.942374 1.334565 -1.631083 0.000019 0.000002 -0.000024
 24   -0.246150 -0.011872 -0.516511 -0.000005 -0.000006 0.000048
 25   4.941364 1.997338 1.629330 0.000018 -0.000001 -0.000024
 26   4.941382 1.997366 -1.629410 -0.000001 0.000005 -0.000024
 27   2.914462 1.619264 1.514501 -0.000019 -0.000022 -0.000050
 28   2.916892 1.618870 -1.501142 -0.000002 -0.000009 -0.000024
 29   8.824059 0.150544 0.091743 0.000006 -0.000231 -0.174534
 30   2.111085 -0.561179 1.784320 -0.000008 -0.000682 0.000024
 31   2.121290 -0.561289 -1.853599 0.000000 0.000000 -0.000002
 32   -0.814395 -0.093824 3.127092 0.564173 -3.064346 -0.563643
 33   14.298673 -0.408176 0.471578 -0.006380 -0.009799 -0.413614
 34   15.835795 0.581398 0.242756 -0.007436 -0.212263 -0.117891
 35   -0.815868 -0.091229 -3.114430 -0.120039 3.021422 -0.057358
 36   14.294526 -0.410349 -0.467541 0.001651 0.012787 -0.721549
 37   15.834409 0.579420 -0.284600 -0.182289 -0.002288 0.569929
 38   1.139685 -3.453749 -2.823813 0.000000 0.000000 0.000001
 39   -4.457742 -1.054854 -0.746180 0.000000 0.000000 0.000000
 40   1.118101 -3.449769 3.237290 0.000000 0.000001 0.000000
 41   -4.433840 -1.059130 0.959566 -0.000001 0.000000 0.000000
 42   -0.657468 1.697302 -2.688614 0.000000 0.000002 0.000000
 43   -0.664068 1.698578 2.869377 0.000000 0.000002 0.000000
time 15
  0   -0.010486 -0.546892 -0.601210 0.000000 0.000000 -1.571354
  1   -1.093036 0.000002 -0.326057 -0.214066 -1.569082 -1.356583
  2   2.262337 0.113614 0.064702 -0.035488 -0.075406 -0.081783
  3   2.380047 0.353302 0.047440 -0.160676 -0.036150 -0.091641
  4   2.033756 0.190472 -0.000128 -0.180692 -0.063734 -0.395625
  5   2.451511 0.204909 -0.003447 -0.419620 -0.034929 -0.370503
  6   7.247600 -0.397300 -0.109469 0.000001 0.000021 0.156829
  7   -2.022252 -0.104661 3.136172 0.569403 -1.233350 -3.783811
  8   1.168026 -0.537438 -0.063437 -0.709899 0.754278 -0.554857
  9   6.790376 -0.619176 0.015206 0.046334 0.101227 -1.057527
 10   8.637599 0.544015 -0.090417 -3.364081 0.030982 -0.088887
 11   6.790465 -0.619039 0.017802 0.044328 0.055205 -0.755570
 12   -2.022474 -0.104699 -2.873818 -2.024352 1.401069 -5.339839
 13   1.167898 -0.537463 0.063297 -0.159150 -1.024969 -0.607860
 14   7.002743 -0.617765 -0.183752 0.019757 -0.158860 -1.664795
 15   8.209042 0.615527 -0.255885 2.640437 0.336924 0.343437
 16   7.002735 -0.617911 -0.183641 -0.000721 -0.108510 -1.181668
 17   1.574674 0.609930 -0.000899 0.543920 0.038538 0.577989
 18   -0.602177 0.511412 -0.000006 0.000000 0.000000 0.000000
 19   3.673773 0.177020 1.119313 -0.000002 -0.000014 -0.174510
 20   3.673767 0.176993 -1.117566 0.000007 -0.000003 -0.174546
 21   3.942357 1.334540 1.627658 0.000002 -0.000011 -0.000026
 22   -0.246060 -0.011889 0.516521 -0.000011 0.000031 0.000025
 23   3.942374 1.334565 -1.631083 0.000019 0.000002 -0.000024
 24   -0.246150 -0.011872 -0.516511 -0.000005 -0.000006 0.000048
 25   4.941364 1.997338 1.629330 0.000018 -0.000001 -0.000024
 26   4.941382 1.997366 -1.629410 -0.000001 0.000005 -0.000024
 27   2.914462 1.619264 1.514501 -0.000019 -0.000022 -0.000050
 28   2.916892 1.618870 -1.501142 -0.000002 -0.000009 -0.000024
 29   8.824059 0.150544 0.091743 0.000006 -0.000231 -0.174534
 30   2.111085 -0.561179 1.784320 -0.000008 -0.000682 0.000024
 31   2.121290 -0.561289 -1.853599 0.000000 0.000000 -0.000002
 32   -0.814395 -0.093824 3.127092 0.564173 -3.064346 -0.563643
 33   14.298673 -0.408176 0.471578 -0.006380 -0.009799 -0.413614
 34   15.835795 0.581398 0.242756 -0.007436 -0.212263 -0.117891
 35   -0.815868 -0.091229 -3.114430 -0.120039 3.021422 -0.057358
 36   14.294526 -0.410349 -0.467541 0.001651 0.012787 -0.721549
 37   15.834409 0.579420 -0.284600 -0.182289 -0.002288 0.569929
 38   1.139685 -3.453749 -2.823813 0.000000 0.000000 0.000001
 39   -4.457742 -1.054854 -0.746180 0.000000 0.000000 0.000000
 40   1.118101 -3.449769 3.237290 0.000000 0.000001 0.000000
 41   -4.433840 -1.059130 0.959566 -0.000001 0.000000 0.000000
 42   -0.657468 1.697302 -2.688614 0.000000 0.000002 0.000000
 43   -0.664068 1.698578 2.869377 0.000000 0.000002 0.000000
time 16
  0   -0.010486 -0.546892 -0.601210 0.000000 0.000000 -1.571354
  1   -1.093036 0.000002 -0.326057 -0.214066 -1.569082 -1.356583
  2   2.262337 0.113614 0.064702 -0.032915 -0.079781 -0.082217
  3   2.380047 0.353302 0.047440 -0.159761 -0.038439 -0.091294
  4   2.033756 0.190472 -0.000128 -0.180913 -0.063902 -0.397147
  5   2.451511 0.204909 -0.003447 -0.420219 -0.032513 -0.371147
  6   7.247600 -0.397300 -0.109469 0.000001 0.000021 0.156829
  7   -2.022252 -0.104661 3.136172 0.590491 -1.242460 -3.773105
  8   1.168026 -0.537438 -0.063437 -0.759954 0.730278 -0.634818
  9   6.790376 -0.619176 0.015206 0.048664 0.097156 -1.011945
 10   8.637599 0.544015 -0.090417 -3.396137 0.062235 -0.017483
 11   6.790465 -0.619039 0.017802 0.044825 0.052277 -0.723733
 12   -2.022474 -0.104699 -2.873818 -1.859852 1.438945 -5.158985
 13   1.167898 -0.537463 0.063297 -0.144037 -1.015002 -0.625173
 14   7.002743 -0.617765 -0.183752 0.020896 -0.160223 -1.685504
 15   8.209042 0.615527 -0.255885 2.624618 0.313243 0.371521
 16   7.002735 -0.617911 -0.183641 -0.000580 -0.109750 -1.196018
 17   1.574674 0.609930 -0.000899 0.546276 0.064879 0.607188
 18   -0.602177 0.511412 -0.000006 0.000000 0.000000 0.000000
 19   3.673773 0.177020 1.119313 -0.000002 -0.000014 -0.174510
 20   3.673767 0.176993 -1.117566 0.000007 -0.000003 -0.174546
 21   3.942357 1.334540 1.627658 0.000002 -0.000011 -0.000026
 22   -0.246060 -0.011889 0.516521 -0.000011 0.000031 0.000025
 23   3.942374 1.334565 -1.631083 0.000019 0.000002 -0.000024
 24   -0.246150 -0.011872 -0.516511 -0.000005 -0.000006 0.000048
 25   4.941364 1.997338 1.629330 0.000018 -0.000001 -0.000024
 26   4.941382 1.997366 -1.629410 -0.000001 0.000005 -0.000024
 27   2.914462 1.619264 1.514501 -0.000019 -0.000022 -0.000050
 28   2.916892 1.618870 -1.501142 -0.000002 -0.000009 -0.000024
 29   8.824059 0.150544 0.091743 0.000006 -0.000231 -0.174534
 30   2.111085 -0.561179 1.784320 -0.000008 -0.000682 0.000024
 31   2.121290 -0.561289 -1.853599 0.000000 0.000000 -0.000002
 32   -0.814395 -0.093824 3.127092 0.564173 -3.064346 -0.563643
 33   14.298673 -0.408176 0.471578 -0.006380 -0.009799 -0.413614
 34   15.835795 0.581398 0.242756 -0.007436 -0.212263 -0.117891
 35   -0.815868 -0.091229 -3.114430 -0.120039 3.021422 -0.057358
 36   14.294526 -0.410349 -0.467541 0.001651 0.012787 -0.721549
 37   15.834409 0.579420 -0.284600 -0.182289 -0.002288 0.569929
 38   1.139685 -3.453749 -2.823813 0.000000 0.000000 0.000001
 39   -4.457742 -1.054854 -0.746180 0.000000 0.000000 0.000000
 40   1.118101 -3.449769 3.237290 0.000000 0.000001 0.000000
 41   -4.433840 -1.059130 0.959566 -0.000001 0.000000 0.000000
 42   -0.657468 1.697302 -2.688614 0.000000 0.000002 0.000000
 43   -0.664068 1.698578 2.869377 0.000000 0.000002 0.000000
time 17
  0   -0.010486 -0.546892 -0.601210 0.000000 0.000000 -1.571354
  1   -1.093036 0.000002 -0.326057 -0.214066 -1.569082 -1.356583
  2   2.262337 0.113614 0.064702 -0.033781 -0.081638 -0.082614
  3   2.380047 0.353302 0.047440 -0.160826 -0.038463 -0.090682
  4   2.033756 0.190472 -0.000128 -0.181356 -0.063986 -0.397401
  5   2.451511 0.204909 -0.003447 -0.419791 -0.038219 -0.369983
  6   7.247600 -0.397300 -0.109469 0.000001 0.000021 0.156829
  7   -2.022252 -0.104661 3.136172 0.574483 -1.245054 -3.740704
  8   1.168026 -0.537438 -0.063437 -0.779950 0.706429 -0.672521
  9   6.790376 -0.619176 0.015206 0.049829 0.094953 -0.990361
 10   8.637599 0.544015 -0.090417 -3.428192 0.099894 0.058912
 11   6.790465 -0.619039 0.017802 0.045117 0.050657 -0.708565
 12   -2.022474 -0.104699 -2.873818 -1.718345 1.460713 -5.012022
 13   1.167898 -0.537463 0.063297 -0.134406 -1.010882 -0.648479
 14   7.002743 -0.617765 -0.183752 0.021750 -0.161700 -1.701180
 15   8.209042 0.615527 -0.255885 2.617428 0.301894 0.394554
 16   7.002735 -0.617911 -0.183641 -0.000532 -0.110935 -1.206891
 17   1.574674 0.609930 -0.000899 0.556675 0.082132 0.617130
 18   -0.602177 0.511412 -0.000006 0.000000 0.000000 0.000000
 19   3.673773 0.177020 1.119313 -0.000002 -0.000014 -0.174510
 20   3.673767 0.176993 -1.117566 0.000007 -0.000003 -0.174546
 21   3.942357 1.334540 1.627658 0.000002 -0.000011 -0.000026
 22   -0.246060 -0.011889 0.516521 -0.000011 0.000031 0.000025
 23   3.942374 1.334565 -1.631083 0.000019 0.000002 -0.000024
 24   -0.246150 -0.011872 -0.516511 -0.000005 -0.000006 0.000048
 25   4.941364 1.997338 1.629330 0.000018 -0.000001 -0.000024
 26   4.941382 1.997366 -1.629410 -0.000001 0.000005 -0.000024
 27   2.914462 1.619264 1.514501 -0.000019 -0.000022 -0.000050
 28   2.916892 1.618870 -1.501142 -0.000002 -0.000009 -0.000024
 29   8.824059 0.150544 0.091743 0.000006 -0.000231 -0.174534
 30   2.111085 -0.561179 1.784320 -0.000008 -0.000682 0.000024
 31   2.121290 -0.561289 -1.853599 0.000000 0.000000 -0.000002
 32   -0.814395 -0.093824 3.127092 0.564173 -3.064346 -0.563643
 33   14.298673 -0.408176 0.471578 -0.006380 -0.009799 -0.413614
 34   15.835795 0.581398 0.242756 -0.007436 -0.212263 -0.117891
 35   -0.815868 -0.091229 -3.114430 -0.120039 3.021422 -0.057358
 36   14.294526 -0.410349 -0.467541 0.001651 0.012787 -0.721549
 37   15.834409 0.579420 -0.284600 -0.182289 -0.002288 0.569929
 38   1.139685 -3.453749 -2.823813 0.000000 0.000000 0.000001
 39   -4.457742 -1.054854 -0.746180 0.000000 0.000000 0.000000
 40   1.118101 -3.449769 3.237290 0.000000 0.000001 0.000000
 41   -4.433840 -1.059130 0.959566 -0.000001 0.000000 0.000000
 42   -0.657468 1.697302 -2.688614 0.000000 0.000002 0.000000
 43   -0.664068 1.698578 2.869377 0.000000 0.000002 0.000000
time 18
  0   -0.010486 -0.546892 -0.601210 0.000000 0.000000 -1.571354
  1   -1.093036 0.000002 -0.326057 -0.214066 -1.569082 -1.356583
  2   2.262337 0.113614 0.064702 -0.035666 -0.082489 -0.084765
  3   2.380047 0.353302 0.047440 -0.162806 -0.038511 -0.089927
  4   2.033756 0.190472 -0.000128 -0.182112 -0.063602 -0.392435
  5   2.451511 0.204909 -0.003447 -0.421691 -0.032866 -0.367011
  6   7.247600 -0.397300 -0.109469 0.000001 0.000021 0.156829
  7   -2.022252 -0.104661 3.136172 0.546109 -1.244824 -3.716285
  8   1.168026 -0.537438 -0.063437 -0.776407 0.706077 -0.668409
  9   6.790376 -0.619176 0.015206 0.049607 0.095354 -0.997304
 10   8.637599 0.544015 -0.090417 -3.478037 0.128402 0.128073
 11   6.790465 -0.619039 0.017802 0.045117 0.050913 -0.713525
 12   -2.022474 -0.104699 -2.873818 -1.912833 1.468491 -5.219780
 13   1.167898 -0.537463 0.063297 -0.113177 -1.029444 -0.679291
 14   7.002743 -0.617765 -0.183752 0.023002 -0.162608 -1.715206
 15   8.209042 0.615527 -0.255885 2.603479 0.286006 0.407604
 16   7.002735 -0.617911 -0.183641 -0.000062 -0.111893 -1.216605
 17   1.574674 0.609930 -0.000899 0.560331 0.074890 0.607594
 18   -0.602177 0.511412 -0.000006 0.000000 0.000000 0.000000
 19   3.673773 0.177020 1.119313 -0.000002 -0.000014 -0.174510
 20   3.673767 0.176993 -1.117566 0.000007 -0.000003 -0.174546
 21   3.942357 1.334540 1.627658 0.000002 -0.000011 -0.000026
 22   -0.246060 -0.011889 0.516521 -0.000011 0.000031 0.000025
 23   3.942374 1.334565 -1.631083 0.000019 0.000002 -0.000024
 24   -0.246150 -0.011872 -0.516511 -0.000005 -0.000006 0.000048
 25   4.941364 1.997338 1.629330 0.000018 -0.000001 -0.000024
 26   4.941382 1.997366 -1.629410 -0.000001 0.000005 -0.000024
 27   2.914462 1.619264 1.514501 -0.000019 -0.000022 -0.000050
 28   2.916892 1.618870 -1.501142 -0.000002 -0.000009 -0.000024
 29   8.824059 0.150544 0.091743 0.000006 -0.000231 -0.174534
 30   2.111085 -0.561179 1.784320 -0.000008 -0.000682 0.000024
 31   2.121290 -0.561289 -1.853599 0.000000 0.000000 -0.000002
 32   -0.814395 -0.093824 3.127092 0.564173 -3.064346 -0.563643
 33   14.298673 -0.408176 0.471578 -0.006380 -0.009799 -0.413614
 34   15.835795 0.581398 0.242756 -0.007436 -0.212263 -0.117891
 35   -0.815868 -0.091229 -3.114430 -0.120039 3.021422 -0.057358
 36   14.294526 -0.410349 -0.467541 0.001651 0.012787 -0.721549
 37   15.834409 0.579420 -0.284600 -0.182289 -0.002288 0.569929
 38   1.139685 -3.453749 -2.823813 0.000000 0.000000 0.000001
 39   -4.457742 -1.054854 -0.746180 0.000000 0.000000 0.000000
 40   1.118101 -3.449769 3.237290 0.000000 0.000001 0.000000
 41   -4.433840 -1.059130 0.959566 -0.000001 0.000000 0.000000
 42   -0.657468 1.697302 -2.688614 0.000000 0.000002 0.000000
 43   -0.664068 1.698578 2.869377 0.000000 0.000002 0.000000
time 19
  0   -0.010486 -0.546892 -0.601210 0.000000 0.000000 -1.571354
  1   -1.093036 0.000002 -0.326057 -0.214066 -1.569082 -1.356583
  2   2.262337 0.113614 0.064702 -0.037819 -0.082645 -0.084638
  3   2.380047 0.353302 0.047440 -0.164351 -0.038559 -0.089376
  4   2.033756 0.190472 -0.000128 -0.182905 -0.063243 -0.387288
  5   2.451511 0.204909 -0.003447 -0.424190 -0.024471 -0.365104
  6   7.247600 -0.397300 -0.109469 0.000001 0.000021 0.156829
  7   -2.022252 -0.104661 3.136172 0.522049 -1.241105 -3.695624
  8   1.168026 -0.537438 -0.063437 -0.764004 0.703209 -0.643864
  9   6.790376 -0.619176 0.015206 0.048831 0.096555 -1.020397
 10   8.637599 0.544015 -0.090417 -3.526385 0.153531 0.189566
 11   6.790465 -0.619039 0.017802 0.045117 0.051794 -0.729616
 12   -2.022474 -0.104699 -2.873818 -2.171033 1.462600 -5.494078
 13   1.167898 -0.537463 0.063297 -0.093353 -1.045514 -0.711980
 14   7.002743 -0.617765 -0.183752 0.023799 -0.162835 -1.723704
 15   8.209042 0.615527 -0.255885 2.596504 0.282223 0.411693
 16   7.002735 -0.617911 -0.183641 0.000268 -0.112175 -1.222621
 17   1.574674 0.609930 -0.000899 0.562281 0.057495 0.599130
 18   -0.602177 0.511412 -0.000006 0.000000 0.000000 0.000000
 19   3.673773 0.177020 1.119313 -0.000002 -0.000014 -0.174510
 20   3.673767 0.176993 -1.117566 0.000007 -0.000003 -0.174546
 21   3.942357 1.334540 1.627658 0.000002 -0.000011 -0.000026
 22   -0.246060 -0.011889 0.516521 -0.000011 0.000031 0.000025
 23   3.942374 1.334565 -1.631083 0.000019 0.000002 -0.000024
 24   -0.246150 -0.011872 -0.516511 -0.000005 -0.000006 0.000048
 25   4.941364 1.997338 1.629330 0.000018 -0.000001 -0.000024
 26   4.941382 1.997366 -1.629410 -0.000001 0.000005 -0.000024
 27   2.914462 1.619264 1.514501 -0.000019 -0.000022 -0.000050
 28   2.916892 1.618870 -1.501142 -0.000002 -0.000009 -0.000024
 29   8.824059 0.150544 0.091743 0.000006 -0.000231 -0.174534
 30   2.111085 -0.561179 1.784320 -0.000008 -0.000682 0.000024
 31   2.121290 -0.561289 -1.853599 0.000000 0.000000 -0.000002
 32   -0.814395 -0.093824 3.127092 0.564173 -3.064346 -0.563643
 33   14.298673 -0.408176 0.471578 -0.006380 -0.009799 -0.413614
 34   15.835795 0.581398 0.242756 -0.007436 -0.212263 -0.117891
 35   -0.815868 -0.091229 -3.114430 -0.120039 3.021422 -0.057358
 36   14.294526 -0.410349 -0.467541 0.001651 0.012787 -0.721549
 37   15.834409 0.579420 -0.284600 -0.182289 -0.002288 0.569929
 38   1.139685 -3.453749 -2.823813 0.000000 0.000000 0.000001
 39   -4.457742 -1.054854 -0.746180 0.000000 0.000000 0.000000
 40   1.118101 -3.449769 3.237290 0.000000 0.000001 0.000000
 41   -4.433840 -1.059130 0.959566 -0.000001 0.000000 0.000000
 42   -0.657468 1.697302 -2.688614 0.000000 0.000002 0.000000
 43   -0.664068 1.698578 2.869377 0.000000 0.000002 0.000000
time 20
  0   -0.010486 -0.546892 -0.601210 0.000000 0.000000 -1.571354
  1   -1.093036 0.000002 -0.326057 -0.214066 -1.569082 -1.356583
  2   2.262337 0.113614 0.064702 -0.039653 -0.082741 -0.084602
  3   2.380047 0.353302 0.047440 -0.166016 -0.038618 -0.089131
  4   2.033756 0.190472 -0.000128 -0.183329 -0.063303 -0.387288
  5   2.451511 0.204909 -0.003447 -0.426398 -0.020620 -0.365847
  6   7.247600 -0.397300 -0.109469 0.000001 0.000021 0.156829
  7   -2.022252 -0.104661 3.136172 0.514764 -1.234042 -3.685105
  8   1.168026 -0.537438 -0.063437 -0.767168 0.700441 -0.636336
  9   6.790376 -0.619176 0.015206 0.048720 0.097022 -1.027491
 10   8.637599 0.544015 -0.090417 -3.547080 0.185137 0.226968
 11   6.790465 -0.619039 0.017802 0.045117 0.052050 -0.734576
 12   -2.022474 -0.104699 -2.873818 -2.241739 1.458507 -5.568086
 13   1.167898 -0.537463 0.063297 -0.079645 -1.047549 -0.735104
 14   7.002743 -0.617765 -0.183752 0.024141 -0.162835 -1.729892
 15   8.209042 0.615527 -0.255885 2.592693 0.282147 0.423660
 16   7.002735 -0.617911 -0.183641 0.000409 -0.112288 -1.226926
 17   1.574674 0.609930 -0.000899 0.564028 0.044525 0.600904
 18   -0.602177 0.511412 -0.000006 0.000000 0.000000 0.000000
 19   3.673773 0.177020 1.119313 -0.000002 -0.000014 -0.174510
 20   3.673767 0.176993 -1.117566 0.000007 -0.000003 -0.174546
 21   3.942357 1.334540 1.627658 0.000002 -0.000011 -0.000026
 22   -0.246060 -0.011889 0.516521 -0.000011 0.000031 0.000025
 23   3.942374 1.334565 -1.631083 0.000019 0.000002 -0.000024
 24   -0.246150 -0.011872 -0.516511 -0.000005 -0.000006 0.000048
 25   4.941364 1.997338 1.629330 0.000018 -0.000001 -0.000024
 26   4.941382 1.997366 -1.629410 -0.000001 0.000005 -0.000024
 27   2.914462 1.619264 1.514501 -0.000019 -0.000022 -0.000050
 28   2.916892 1.618870 -1.501142 -0.000002 -0.000009 -0.000024
 29   8.824059 0.150544 0.091743 0.000006 -0.000231 -0.174534
 30   2.111085 -0.561179 1.784320 -0.000008 -0.000682 0.000024
 31   2.121290 -0.561289 -1.853599 0.000000 0.000000 -0.000002
 32   -0.814395 -0.093824 3.127092 0.564173 -3.064346 -0.563643
 33   14.298673 -0.408176 0.471578 -0.006380 -0.009799 -0.413614
 34   15.835795 0.581398 0.242756 -0.007436 -0.212263 -0.117891
 35   -0.815868 -0.091229 -3.114430 -0.120039 3.021422 -0.057358
 36   14.294526 -0.410349 -0.467541 0.001651 0.012787 -0.721549
 37   15.834409 0.579420 -0.284600 -0.182289 -0.002288 0.569929
 38   1.139685 -3.453749 -2.823813 0.000000 0.000000 0.000001
 39   -4.457742 -1.054854 -0.746180 0.000000 0.000000 0.000000
 40   1.118101 -3.449769 3.237290 0.000000 0.000001 0.000000
 41   -4.433840 -1.059130 0.959566 -0.000001 0.000000 0.000000
 42   -0.657468 1.697302 -2.688614 0.000000 0.000002 0.000000
 43   -0.664068 1.698578 2.869377 0.000000 0.000002 0.000000
time 21
  0   -0.010486 -0.546892 -0.601210 0.000000 0.000000 -1.571354
  1   -1.093036 0.000002 -0.326057 -0.214066 -1.569082 -1.356583
  2   2.262337 0.113614 0.064702 -0.041462 -0.082801 -0.084530
  3   2.380047 0.353302 0.047440 -0.168251 -0.038738 -0.089091
  4   2.033756 0.190472 -0.000128 -0.183624 -0.063314 -0.387288
  5   2.451511 0.204909 -0.003447 -0.428161 -0.016716 -0.366689
  6   7.247600 -0.397300 -0.109469 0.000001 0.000021 0.156829
  7   -2.022252 -0.104661 3.136172 0.514093 -1.224616 -3.679376
  8   1.168026 -0.537438 -0.063437 -0.787164 0.693146 -0.651392
  9   6.790376 -0.619176 0.015206 0.049108 0.096288 -1.014888
 10   8.637599 0.544015 -0.090417 -3.536424 0.217164 0.245416
 11   6.790465 -0.619039 0.017802 0.045117 0.051566 -0.725809
 12   -2.022474 -0.104699 -2.873818 -2.222002 1.455895 -5.544438
 13   1.167898 -0.537463 0.063297 -0.069241 -1.043226 -0.748119
 14   7.002743 -0.617765 -0.183752 0.024426 -0.162835 -1.734677
 15   8.209042 0.615527 -0.255885 2.593916 0.286384 0.441461
 16   7.002735 -0.617911 -0.183641 0.000503 -0.112344 -1.230182
 17   1.574674 0.609930 -0.000899 0.565612 0.033497 0.602050
 18   -0.602177 0.511412 -0.000006 0.000000 0.000000 0.000000
 19   3.673773 0.177020 1.119313 -0.000002 -0.000014 -0.174510
 20   3.673767 0.176993 -1.117566 0.000007 -0.000003 -0.174546
 21   3.942357 1.334540 1.627658 0.000002 -0.000011 -0.000026
 22   -0.246060 -0.011889 0.516521 -0.000011 0.000031 0.000025
 23   3.942374 1.334565 -1.631083 0.000019 0.000002 -0.000024
 24   -0.246150 -0.011872 -0.516511 -0.000005 -0.000006 0.000048
 25   4.941364 1.997338 1.629330 0.000018 -0.000001 -0.000024
 26   4.941382 1.997366 -1.629410 -0.000001 0.000005 -0.000024
 27   2.914462 1.619264 1.514501 -0.000019 -0.000022 -0.000050
 28   2.916892 1.618870 -1.501142 -0.000002 -0.000009 -0.000024
 29   8.824059 0.150544 0.091743 0.000006 -0.000231 -0.174534
 30   2.111085 -0.561179 1.784320 -0.000008 -0.000682 0.000024
 31   2.121290 -0.561289 -1.853599 0.000000 0.000000 -0.000002
 32   -0.814395 -0.093824 3.127092 0.564173 -3.064346 -0.563643
 33   14.298673 -0.408176 0.471578 -0.006380 -0.009799 -0.413614
 34   15.835795 0.581398 0.242756 -0.007436 -0.212263 -0.117891
 35   -0.815868 -0.091229 -3.114430 -0.120039 3.021422 -0.057358
 36   14.294526 -0.410349 -0.467541 0.001651 0.012787 -0.721549
 37   15.834409 0.579420 -0.284600 -0.182289 -0.002288 0.569929
 38   1.139685 -3.453749 -2.823813 0.000000 0.000000 0.000001
 39   -4.457742 -1.054854 -0.746180 0.000000 0.000000 0.000000
 40   1.118101 -3.449769 3.237290 0.000000 0.000001 0.000000
 41   -4.433840 -1.059130 0.959566 -0.000001 0.000000 0.000000
 42   -0.657468 1.697302 -2.688614 0.000000 0.000002 0.000000
 43   -0.664068 1.698578 2.869377 0.000000 0.000002 0.000000
time 22
  0   -0.010486 -0.546892 -0.601210 0.000000 0.000000 -1.571354
  1   -1.093036 0.000002 -0.326057 -0.214066 -1.569082 -1.356583
  2   2.262337 0.113614 0.064702 -0.043538 -0.082861 -0.084403
  3   2.380047 0.353302 0.047440 -0.169496 -0.038810 -0.089070
  4   2.033756 0.190472 -0.000128 -0.183735 -0.063326 -0.387288
  5   2.451511 0.204909 -0.003447 -0.428897 -0.012199 -0.367655
  6   7.247600 -0.397300 -0.109469 0.000001 0.000021 0.156829
  7   -2.022252 -0.104661 3.136172 0.513134 -1.214065 -3.674493
  8   1.168026 -0.537438 -0.063437 -0.796467 0.690529 -0.651329
  9   6.790376 -0.619176 0.015206 0.048831 0.096622 -1.021831
 10   8.637599 0.544015 -0.090417 -3.528851 0.222444 0.261983
 11   6.790465 -0.619039 0.017802 0.045117 0.051822 -0.730654
 12   -2.022474 -0.104699 -2.873818 -2.198242 1.452499 -5.514759
 13   1.167898 -0.537463 0.063297 -0.058837 -1.038344 -0.755262
 14   7.002743 -0.617765 -0.183752 0.024426 -0.162835 -1.734677
 15   8.209042 0.615527 -0.255885 2.590680 0.281844 0.443205
 16   7.002735 -0.617911 -0.183641 0.000456 -0.112344 -1.230182
 17   1.574674 0.609930 -0.000899 0.568456 0.025994 0.602494
 18   -0.602177 0.511412 -0.000006 0.000000 0.000000 0.000000
 19   3.673773 0.177020 1.119313 -0.000002 -0.000014 -0.174510
 20   3.673767 0.176993 -1.117566 0.000007 -0.000003 -0.174546
 21   3.942357 1.334540 1.627658 0.000002 -0.000011 -0.000026
 22   -0.246060 -0.011889 0.516521 -0.000011 0.000031 0.000025
 23   3.942374 1.334565 -1.631083 0.000019 0.000002 -0.000024
 24   -0.246150 -0.011872 -0.516511 -0.000005 -0.000006 0.000048
 25   4.941364 1.997338 1.629330 0.000018 -0.000001 -0.000024
 26   4.941382 1.997366 -1.629410 -0.000001 0.000005 -0.000024
 27   2.914462 1.619264 1.514501 -0.000019 -0.000022 -0.000050
 28   2.916892 1.618870 -1.501142 -0.000002 -0.000009 -0.000024
 29   8.824059 0.150544 0.091743 0.000006 -0.000231 -0.174534
 30   2.111085 -0.561179 1.784320 -0.000008 -0.000682 0.000024
 31   2.121290 -0.561289 -1.853599 0.000000 0.000000 -0.000002
 32   -0.814395 -0.093824 3.127092 0.564173 -3.064346 -0.563643
 33   14.298673 -0.408176 0.471578 -0.006380 -0.009799 -0.413614
 34   15.835795 0.581398 0.242756 -0.007436 -0.212263 -0.117891
 35   -0.815868 -0.091229 -3.114430 -0.120039 3.021422 -0.057358
 36   14.294526 -0.410349 -0.467541 0.001651 0.012787 -0.721549
 37   15.834409 0.579420 -0.284600 -0.182289 -0.002288 0.569929
 38   1.139685 -3.453749 -2.823813 0.000000 0.000000 0.000001
 39   -4.457742 -1.054854 -0.746180 0.000000 0.000000 0.000000
 40   1.118101 -3.449769 3.237290 0.000000 0.000001 0.000000
 41   -4.433840 -1.059130 0.959566 -0.000001 0.000000 0.000000
 42   -0.657468 1.697302 -2.688614 0.000000 0.000002 0.000000
 43   -0.664068 1.698578 2.869377 0.000000 0.000002 0.000000
time 23
  0   -0.010486 -0.546892 -0.601210 0.000000 0.000000 -1.571354
  1   -1.093036 0.000002 -0.326057 -0.214066 -1.569082 -1.356583
  2   2.262337 0.113614 0.064702 -0.043538 -0.082861 -0.084403
  3   2.380047 0.353302 0.047440 -0.169496 -0.038810 -0.089070
  4   2.033756 0.190472 -0.000128 -0.183735 -0.063326 -0.387288
  5   2.451511 0.204909 -0.003447 -0.428897 -0.012199 -0.367655
  6   7.247600 -0.397300 -0.109469 0.000001 0.000021 0.156829
  7   -2.022252 -0.104661 3.136172 0.513134 -1.214065 -3.674493
  8   1.168026 -0.537438 -0.063437 -0.796467 0.690529 -0.651329
  9   6.790376 -0.619176 0.015206 0.048831 0.096622 -1.021831
 10   8.637599 0.544015 -0.090417 -3.528851 0.222444 0.261983
 11   6.790465 -0.619039 0.017802 0.045117 0.051822 -0.730654
 12   -2.022474 -0.104699 -2.873818 -2.198242 1.452499 -5.514759
 13   1.167898 -0.537463 0.063297 -0.058837 -1.038344 -0.755262
 14   7.002743 -0.617765 -0.183752 0.024426 -0.162835 -1.734677
 15   8.209042 0.615527 -0.255885 2.590680 0.281844 0.443205
 16   7.002735 -0.617911 -0.183641 0.000456 -0.112344 -1.230182
 17   1.574674 0.609930 -0.000899 0.568456 0.025994 0.602494
 18   -0.602177 0.511412 -0.000006 0.000000 0.000000 0.000000
 19   3.673773 0.177020 1.119313 -0.000002 -0.000014 -0.174510
 20   3.673767 0.176993 -1.117566 0.000007 -0.000003 -0.174546
 21   3.942357 1.334540 1.627658 0.000002 -0.000011 -0.000026
 22   -0.246060 -0.011889 0.516521 -0.000011 0.000031 0.000025
 23   3.942374 1.334565 -1.631083 0.000019 0.000002 -0.000024
 24   -0.246150 -0.011872 -0.516511 -0.000005 -0.000006 0.000048
 25   4.941364 1.997338 1.629330 0.000018 -0.000001 -0.000024
 26   4.941382 1.997366 -1.629410 -0.000001 0.000005 -0.000024
 27   2.914462 1.619264 1.514501 -0.000019 -0.000022 -0.000050
 28   2.916892 1.618870 -1.501142 -0.000002 -0.000009 -0.000024
 29   8.824059 0.150544 0.091743 0.000006 -0.000231 -0.174534
 30   2.111085 -0.561179 1.784320 -0.000008 -0.000682 0.000024
 31   2.121290 -0.561289 -1.853599 0.000000 0.000000 -0.000002
 32   -0.814395 -0.093824 3.127092 0.564173 -3.064346 -0.563643
 33   14.298673 -0.408176 0.471578 -0.006380 -0.009799 -0.413614
 34   15.835795 0.581398 0.242756 -0.007436 -0.212263 -0.117891
 35   -0.815868 -0.091229 -3.114430 -0.120039 3.021422 -0.057358
 36   14.294526 -0.410349 -0.467541 0.001651 0.012787 -0.721549
 37   15.834409 0.579420 -0.284600 -0.182289 -0.002288 0.569929
 38   1.139685 -3.453749 -2.823813 0.000000 0.000000 0.000001
 39   -4.457742 -1.054854 -0.746180 0.000000 0.000000 0.000000
 40   1.118101 -3.449769 3.237290 0.000000 0.000001 0.000000
 41   -4.433840 -1.059130 0.959566 -0.000001 0.000000 0.000000
 42   -0.657468 1.697302 -2.688614 0.000000 0.000002 0.000000
 43   -0.664068 1.698578 2.869377 0.000000 0.000002 0.000000
end
