version 1
nodes
  0 "Bip01" -1
  1 "Bip01 Pelvis" 0
  2 "Bip01 Spine" 1
  3 "Bip01 Spine1" 2
  4 "Bip01 Spine2" 3
  5 "Bip01 Spine3" 4
  6 "Bip01 Neck" 5
  7 "Bip01 L Arm" 6
  8 "Bip01 L Arm1" 7
  9 "Bip01 L Arm2" 8
 10 "Bip01 L Hand" 9
 11 "Bip06 L elbow2-smooth" 8
 12 "Bip01 R Arm" 6
 13 "Bip01 R Arm1" 12
 14 "Bip01 R Arm2" 13
 15 "Bip01 R Hand" 14
 16 "Bip06 R elbow2-smooth" 13
 17 "Bip01 Head" 6
 18 "Bip06 Head_helper" 17
 19 "Bip06 Head_eyes_l" 18
 20 "Bip06 Head_eyes_r" 18
 21 "Bip06 Head_blink_l" 18
 22 "Bip06 Head_blink_smooth_l1" 21
 23 "Bip06 Head_blink_r" 18
 24 "Bip06 Head_blink_smooth_r1" 23
 25 "Bip06 Head_L_eyebrow" 18
 26 "Bip06 Head_R_eyebrow" 18
 27 "Bip06 Head_blink_l_lid" 18
 28 "Bip06 Head_blink_r_lid" 18
 29 "Bip06 bunny" 18
 30 "Bip06 bunnyL" 29
 31 "Bip06 bunnyR" 29
 32 "Bip01 L Leg" 1
 33 "Bip01 L Leg1" 32
 34 "Bip01 L Foot" 33
 35 "Bip01 R Leg" 1
 36 "Bip01 R Leg1" 35
 37 "Bip01 R Foot" 36
 38 "Bip03 HairR1" 17
 39 "Bip03 HairR2" 38
 40 "Bip03 HairL1" 17
 41 "Bip03 HairL2" 40
 42 "Bip03 swingR" 17
 43 "Bip03 swingL" 17
end
skeleton
time 0
  0   -0.010486 -0.546892 1.863709 0.000000 0.000000 -1.571354
  1   -1.093036 0.000002 -0.326057 -1.570808 -1.570749 0.000022
  2   2.262337 0.113614 0.064702 -0.010242 -0.042748 -0.077175
  3   2.380047 0.353302 0.047440 -0.017371 0.054178 0.044096
  4   2.033756 0.190472 -0.000128 0.003568 -0.053847 -0.126527
  5   2.451511 0.204909 -0.003447 -0.158930 -0.035020 -0.096672
  6   7.247600 -0.397300 -0.109469 -0.016634 0.002250 0.459335
  7   -2.022252 -0.104661 3.136172 1.822362 -1.010228 -5.463881
  8   1.168026 -0.537438 -0.063437 -1.487869 0.913875 -1.156337
  9   6.790376 -0.619176 0.015206 -0.000102 -0.000085 -1.591535
 10   8.637599 0.544015 -0.090417 -2.893198 0.080114 0.504987
 11   6.790465 -0.619039 0.017802 0.002899 -0.011765 -1.129303
 12   -2.022474 -0.104699 -2.873818 -2.302289 1.868006 -5.925009
 13   1.167898 -0.537463 0.063297 -1.514814 -0.587061 0.451559
 14   7.002743 -0.617765 -0.183752 0.000172 0.000137 -1.972870
 15   8.209042 0.615527 -0.255885 1.210792 0.636914 -1.114291
 16   7.002735 -0.617911 -0.183641 0.012837 0.010977 -1.399734
 17   1.574674 0.609930 -0.000899 0.179750 0.134294 -0.556234
 18   -0.602177 0.511412 -0.000006 0.000000 0.000000 0.000000
 19   3.673773 0.177020 1.119313 -0.000002 -0.000014 -0.174510
 20   3.673767 0.176993 -1.117566 0.000007 -0.000003 -0.174546
 21   3.942357 1.334540 1.627658 0.000002 -0.000011 -0.000026
 22   -0.246060 -0.011889 0.516521 -0.000011 0.000031 0.000025
 23   3.942374 1.334565 -1.631083 0.000019 0.000002 -0.000024
 24   -0.246150 -0.011872 -0.516511 -0.000005 -0.000006 0.000048
 25   4.941364 1.997338 1.629330 0.000018 -0.000001 -0.000024
 26   4.941382 1.997366 -1.629410 -0.000001 0.000005 -0.000024
 27   2.914462 1.619264 1.514501 -0.000019 -0.000022 -0.000050
 28   2.916892 1.618870 -1.501142 -0.000002 -0.000009 -0.000024
 29   8.824059 0.150544 0.091743 0.000006 -0.000231 -0.174534
 30   2.111085 -0.561179 1.784320 -0.000008 -0.000682 0.000024
 31   2.121290 -0.561289 -1.853599 0.000000 0.000000 -0.000002
 32   -0.814395 -0.093824 3.127092 0.262921 -3.097582 -0.334816
 33   14.298673 -0.408176 0.471578 0.003687 -0.003117 -0.522469
 34   15.835795 0.581398 0.242756 -0.001271 0.032067 0.122292
 35   -0.815868 -0.091229 -3.114430 -0.132889 3.034913 -0.011455
 36   14.294526 -0.410349 -0.467541 -0.002676 0.001869 -0.384764
 37   15.834409 0.579420 -0.284600 -0.034128 0.026558 0.304555
 38   1.139685 -3.453749 -2.823813 0.000000 0.000000 0.000001
 39   -4.457742 -1.054854 -0.746180 0.000000 0.000000 0.000000
 40   1.118101 -3.449769 3.237290 0.000000 0.000001 0.000000
 41   -4.433840 -1.059130 0.959566 -0.000001 0.000000 0.000000
 42   -0.657468 1.697302 -2.688614 0.000000 0.000002 0.000000
 43   -0.664068 1.698578 2.869377 0.000000 0.000002 0.000000
time 1
  0   -0.010486 -0.546892 1.863709 0.000000 0.000000 -1.571354
  1   -1.093036 0.000002 -0.326057 -1.570808 -1.570749 0.000022
  2   2.262337 0.113614 0.064702 -0.010217 -0.037823 -0.079452
  3   2.380047 0.353302 0.047440 -0.016711 0.049324 0.032281
  4   2.033756 0.190472 -0.000128 0.036101 -0.028092 -0.079334
  5   2.451511 0.204909 -0.003447 -0.093441 -0.019014 -0.047463
  6   7.247600 -0.397300 -0.109469 -0.016634 0.002250 0.459335
  7   -2.022252 -0.104661 3.136172 1.647613 -1.028100 -5.259144
  8   1.168026 -0.537438 -0.063437 -0.841332 0.909095 -0.947830
  9   6.790376 -0.619176 0.015206 -0.000102 -0.000085 -1.497276
 10   8.637599 0.544015 -0.090417 -2.476476 0.213997 0.556568
 11   6.790465 -0.619039 0.017802 0.002490 -0.011708 -1.063265
 12   -2.022474 -0.104699 -2.873818 -2.302289 1.868006 -5.925009
 13   1.167898 -0.537463 0.063297 -1.415696 -0.714705 0.467722
 14   7.002743 -0.617765 -0.183752 0.000172 0.000137 -1.943828
 15   8.209042 0.615527 -0.255885 1.592740 0.706370 -0.805486
 16   7.002735 -0.617911 -0.183641 0.012884 0.010751 -1.379313
 17   1.574674 0.609930 -0.000899 0.116137 0.071269 -0.325376
 18   -0.602177 0.511412 -0.000006 0.000000 0.000000 0.000000
 19   3.673773 0.177020 1.119313 -0.000002 -0.000014 -0.174510
 20   3.673767 0.176993 -1.117566 0.000007 -0.000003 -0.174546
 21   3.942357 1.334540 1.627658 0.000002 -0.000011 -0.000026
 22   -0.246060 -0.011889 0.516521 -0.000011 0.000031 0.000025
 23   3.942374 1.334565 -1.631083 0.000019 0.000002 -0.000024
 24   -0.246150 -0.011872 -0.516511 -0.000005 -0.000006 0.000048
 25   4.941364 1.997338 1.629330 0.000018 -0.000001 -0.000024
 26   4.941382 1.997366 -1.629410 -0.000001 0.000005 -0.000024
 27   2.914462 1.619264 1.514501 -0.000019 -0.000022 -0.000050
 28   2.916892 1.618870 -1.501142 -0.000002 -0.000009 -0.000024
 29   8.824059 0.150544 0.091743 0.000006 -0.000231 -0.174534
 30   2.111085 -0.561179 1.784320 -0.000008 -0.000682 0.000024
 31   2.121290 -0.561289 -1.853599 0.000000 0.000000 -0.000002
 32   -0.814395 -0.093824 3.127092 0.262921 -3.097582 -0.334816
 33   14.298673 -0.408176 0.471578 0.003687 -0.003117 -0.522469
 34   15.835795 0.581398 0.242756 -0.001271 0.032067 0.122292
 35   -0.815868 -0.091229 -3.114430 -0.132889 3.034913 -0.011455
 36   14.294526 -0.410349 -0.467541 -0.002676 0.001869 -0.384764
 37   15.834409 0.579420 -0.284600 -0.034128 0.026558 0.304555
 38   1.139685 -3.453749 -2.823813 0.000000 0.000000 0.000001
 39   -4.457742 -1.054854 -0.746180 0.000000 0.000000 0.000000
 40   1.118101 -3.449769 3.237290 0.000000 0.000001 0.000000
 41   -4.433840 -1.059130 0.959566 -0.000001 0.000000 0.000000
 42   -0.657468 1.697302 -2.688614 0.000000 0.000002 0.000000
 43   -0.664068 1.698578 2.869377 0.000000 0.000002 0.000000
time 2
  0   -0.010486 -0.546892 1.863709 0.000000 0.000000 -1.571354
  1   -1.093036 0.000002 -0.326057 -1.570808 -1.570749 0.000022
  2   2.262337 0.113614 0.064702 -0.010115 -0.028642 -0.083626
  3   2.380047 0.353302 0.047440 -0.015301 0.040264 0.010427
  4   2.033756 0.190472 -0.000128 0.099561 0.015412 0.010305
  5   2.451511 0.204909 -0.003447 0.029869 0.001901 0.045977
  6   7.247600 -0.397300 -0.109469 -0.016634 0.002250 0.459335
  7   -2.022252 -0.104661 3.136172 1.467112 -1.026717 -5.048489
  8   1.168026 -0.537438 -0.063437 -0.137780 0.686706 -0.773864
  9   6.790376 -0.619176 0.015206 -0.000102 -0.000085 -1.402791
 10   8.637599 0.544015 -0.090417 -2.039234 0.314866 0.662046
 11   6.790465 -0.619039 0.017802 0.002052 -0.011680 -0.997170
 12   -2.022474 -0.104699 -2.873818 -2.302289 1.868006 -5.925009
 13   1.167898 -0.537463 0.063297 -1.161013 -0.965571 0.390843
 14   7.002743 -0.617765 -0.183752 0.000172 0.000137 -1.883847
 15   8.209042 0.615527 -0.255885 2.358434 0.562238 -0.190402
 16   7.002735 -0.617911 -0.183641 0.012978 0.010413 -1.337422
 17   1.574674 0.609930 -0.000899 -0.067472 0.054797 -0.206509
 18   -0.602177 0.511412 -0.000006 0.000000 0.000000 0.000000
 19   3.673773 0.177020 1.119313 -0.000002 -0.000014 -0.174510
 20   3.673767 0.176993 -1.117566 0.000007 -0.000003 -0.174546
 21   3.942357 1.334540 1.627658 0.000002 -0.000011 -0.000026
 22   -0.246060 -0.011889 0.516521 -0.000011 0.000031 0.000025
 23   3.942374 1.334565 -1.631083 0.000019 0.000002 -0.000024
 24   -0.246150 -0.011872 -0.516511 -0.000005 -0.000006 0.000048
 25   4.941364 1.997338 1.629330 0.000018 -0.000001 -0.000024
 26   4.941382 1.997366 -1.629410 -0.000001 0.000005 -0.000024
 27   2.914462 1.619264 1.514501 -0.000019 -0.000022 -0.000050
 28   2.916892 1.618870 -1.501142 -0.000002 -0.000009 -0.000024
 29   8.824059 0.150544 0.091743 0.000006 -0.000231 -0.174534
 30   2.111085 -0.561179 1.784320 -0.000008 -0.000682 0.000024
 31   2.121290 -0.561289 -1.853599 0.000000 0.000000 -0.000002
 32   -0.814395 -0.093824 3.127092 0.262921 -3.097582 -0.334816
 33   14.298673 -0.408176 0.471578 0.003687 -0.003117 -0.522469
 34   15.835795 0.581398 0.242756 -0.001271 0.032067 0.122292
 35   -0.815868 -0.091229 -3.114430 -0.132889 3.034913 -0.011455
 36   14.294526 -0.410349 -0.467541 -0.002676 0.001869 -0.384764
 37   15.834409 0.579420 -0.284600 -0.034128 0.026558 0.304555
 38   1.139685 -3.453749 -2.823813 0.000000 0.000000 0.000001
 39   -4.457742 -1.054854 -0.746180 0.000000 0.000000 0.000000
 40   1.118101 -3.449769 3.237290 0.000000 0.000001 0.000000
 41   -4.433840 -1.059130 0.959566 -0.000001 0.000000 0.000000
 42   -0.657468 1.697302 -2.688614 0.000000 0.000002 0.000000
 43   -0.664068 1.698578 2.869377 0.000000 0.000002 0.000000
time 3
  0   -0.010486 -0.546892 1.863709 0.000000 0.000000 -1.571354
  1   -1.093036 0.000002 -0.326057 -1.570808 -1.570749 0.000022
  2   2.262337 0.113614 0.064702 -0.010115 -0.023741 -0.085885
  3   2.380047 0.353302 0.047440 -0.014506 0.035410 -0.001347
  4   2.033756 0.190472 -0.000128 0.135414 0.036457 0.059819
  5   2.451511 0.204909 -0.003447 0.096967 0.008311 0.097217
  6   7.247600 -0.397300 -0.109469 -0.016634 0.002250 0.459335
  7   -2.022252 -0.104661 3.136172 1.336075 -1.012937 -4.894466
  8   1.168026 -0.537438 -0.063437 0.440983 0.414002 -0.646774
  9   6.790376 -0.619176 0.015206 -0.000102 -0.000085 -1.334945
 10   8.637599 0.544015 -0.090417 -1.641269 0.359494 0.788432
 11   6.790465 -0.619039 0.017802 0.001819 -0.011623 -0.949703
 12   -2.022474 -0.104699 -2.873818 -2.302289 1.868006 -5.925009
 13   1.167898 -0.537463 0.063297 -0.937822 -1.076586 0.251189
 14   7.002743 -0.617765 -0.183752 0.000172 0.000137 -1.853815
 15   8.209042 0.615527 -0.255885 2.638280 0.382850 0.006368
 16   7.002735 -0.617911 -0.183641 0.013073 0.010244 -1.316283
 17   1.574674 0.609930 -0.000899 -0.184340 0.086818 -0.115696
 18   -0.602177 0.511412 -0.000006 0.000000 0.000000 0.000000
 19   3.673773 0.177020 1.119313 -0.000002 -0.000014 -0.174510
 20   3.673767 0.176993 -1.117566 0.000007 -0.000003 -0.174546
 21   3.942357 1.334540 1.627658 0.000002 -0.000011 -0.000026
 22   -0.246060 -0.011889 0.516521 -0.000011 0.000031 0.000025
 23   3.942374 1.334565 -1.631083 0.000019 0.000002 -0.000024
 24   -0.246150 -0.011872 -0.516511 -0.000005 -0.000006 0.000048
 25   4.941364 1.997338 1.629330 0.000018 -0.000001 -0.000024
 26   4.941382 1.997366 -1.629410 -0.000001 0.000005 -0.000024
 27   2.914462 1.619264 1.514501 -0.000019 -0.000022 -0.000050
 28   2.916892 1.618870 -1.501142 -0.000002 -0.000009 -0.000024
 29   8.824059 0.150544 0.091743 0.000006 -0.000231 -0.174534
 30   2.111085 -0.561179 1.784320 -0.000008 -0.000682 0.000024
 31   2.121290 -0.561289 -1.853599 0.000000 0.000000 -0.000002
 32   -0.814395 -0.093824 3.127092 0.262921 -3.097582 -0.334816
 33   14.298673 -0.408176 0.471578 0.003687 -0.003117 -0.522469
 34   15.835795 0.581398 0.242756 -0.001271 0.032067 0.122292
 35   -0.815868 -0.091229 -3.114430 -0.132889 3.034913 -0.011455
 36   14.294526 -0.410349 -0.467541 -0.002676 0.001869 -0.384764
 37   15.834409 0.579420 -0.284600 -0.034128 0.026558 0.304555
 38   1.139685 -3.453749 -2.823813 0.000000 0.000000 0.000001
 39   -4.457742 -1.054854 -0.746180 0.000000 0.000000 0.000000
 40   1.118101 -3.449769 3.237290 0.000000 0.000001 0.000000
 41   -4.433840 -1.059130 0.959566 -0.000001 0.000000 0.000000
 42   -0.657468 1.697302 -2.688614 0.000000 0.000002 0.000000
 43   -0.664068 1.698578 2.869377 0.000000 0.000002 0.000000
time 4
  0   -0.010486 -0.546892 1.863709 0.000000 0.000000 -1.571354
  1   -1.093036 0.000002 -0.326057 -1.570808 -1.570749 0.000022
  2   2.262337 0.113614 0.064702 -0.010115 -0.020840 -0.085849
  3   2.380047 0.353302 0.047440 -0.014251 0.020202 0.001938
  4   2.033756 0.190472 -0.000128 0.107731 0.033593 0.090991
  5   2.451511 0.204909 -0.003447 0.088614 0.032973 0.147243
  6   7.247600 -0.397300 -0.109469 -0.016634 0.002250 0.459335
  7   -2.022252 -0.104661 3.136172 1.435671 -1.024382 -5.011392
  8   1.168026 -0.537438 -0.063437 0.585515 0.179336 -0.672078
  9   6.790376 -0.619176 0.015206 -0.000102 -0.000085 -1.409054
 10   8.637599 0.544015 -0.090417 -1.552587 0.363365 0.833141
 11   6.790465 -0.619039 0.017802 0.002140 -0.011680 -1.001495
 12   -2.022474 -0.104699 -2.873818 -2.302289 1.868006 -5.925009
 13   1.167898 -0.537463 0.063297 -0.767002 -1.091283 0.039378
 14   7.002743 -0.617765 -0.183752 0.000172 0.000137 -1.850927
 15   8.209042 0.615527 -0.255885 2.661936 0.363027 0.021462
 16   7.002735 -0.617911 -0.183641 0.013073 0.010187 -1.314296
 17   1.574674 0.609930 -0.000899 -0.169919 0.075671 -0.097252
 18   -0.602177 0.511412 -0.000006 0.000000 0.000000 0.000000
 19   3.673773 0.177020 1.119313 -0.000002 -0.000014 -0.174510
 20   3.673767 0.176993 -1.117566 0.000007 -0.000003 -0.174546
 21   3.942357 1.334540 1.627658 0.000002 -0.000011 -0.000026
 22   -0.246060 -0.011889 0.516521 -0.000011 0.000031 0.000025
 23   3.942374 1.334565 -1.631083 0.000019 0.000002 -0.000024
 24   -0.246150 -0.011872 -0.516511 -0.000005 -0.000006 0.000048
 25   4.941364 1.997338 1.629330 0.000018 -0.000001 -0.000024
 26   4.941382 1.997366 -1.629410 -0.000001 0.000005 -0.000024
 27   2.914462 1.619264 1.514501 -0.000019 -0.000022 -0.000050
 28   2.916892 1.618870 -1.501142 -0.000002 -0.000009 -0.000024
 29   8.824059 0.150544 0.091743 0.000006 -0.000231 -0.174534
 30   2.111085 -0.561179 1.784320 -0.000008 -0.000682 0.000024
 31   2.121290 -0.561289 -1.853599 0.000000 0.000000 -0.000002
 32   -0.814395 -0.093824 3.127092 0.262921 -3.097582 -0.334816
 33   14.298673 -0.408176 0.471578 0.003687 -0.003117 -0.522469
 34   15.835795 0.581398 0.242756 -0.001271 0.032067 0.122292
 35   -0.815868 -0.091229 -3.114430 -0.132889 3.034913 -0.011455
 36   14.294526 -0.410349 -0.467541 -0.002676 0.001869 -0.384764
 37   15.834409 0.579420 -0.284600 -0.034128 0.026558 0.304555
 38   1.139685 -3.453749 -2.823813 0.000000 0.000000 0.000001
 39   -4.457742 -1.054854 -0.746180 0.000000 0.000000 0.000000
 40   1.118101 -3.449769 3.237290 0.000000 0.000001 0.000000
 41   -4.433840 -1.059130 0.959566 -0.000001 0.000000 0.000000
 42   -0.657468 1.697302 -2.688614 0.000000 0.000002 0.000000
 43   -0.664068 1.698578 2.869377 0.000000 0.000002 0.000000
time 5
  0   -0.010486 -0.546892 1.863709 0.000000 0.000000 -1.571354
  1   -1.093036 0.000002 -0.326057 -1.570808 -1.570749 0.000022
  2   2.262337 0.113614 0.064702 -0.010115 -0.019750 -0.085849
  3   2.380047 0.353302 0.047440 -0.014161 0.014329 0.003183
  4   2.033756 0.190472 -0.000128 0.097109 0.032682 0.102880
  5   2.451511 0.204909 -0.003447 0.086560 0.061787 0.168145
  6   7.247600 -0.397300 -0.109469 -0.016634 0.002250 0.459335
  7   -2.022252 -0.104661 3.136172 1.555206 -1.029830 -5.151515
  8   1.168026 -0.537438 -0.063437 0.380803 -0.137191 -0.610842
  9   6.790376 -0.619176 0.015206 -0.000102 -0.000085 -1.587988
 10   8.637599 0.544015 -0.090417 -1.760861 0.360198 0.804203
 11   6.790465 -0.619039 0.017802 0.002899 -0.011765 -1.126823
 12   -2.022474 -0.104699 -2.873818 -2.302289 1.868006 -5.925009
 13   1.167898 -0.537463 0.063297 -0.689255 -1.085130 -0.066982
 14   7.002743 -0.617765 -0.183752 0.000172 0.000137 -1.839954
 15   8.209042 0.615527 -0.255885 2.716510 0.302424 0.052493
 16   7.002735 -0.617911 -0.183641 0.013073 0.010187 -1.306569
 17   1.574674 0.609930 -0.000899 -0.186208 0.055365 -0.092928
 18   -0.602177 0.511412 -0.000006 0.000000 0.000000 0.000000
 19   3.673773 0.177020 1.119313 -0.000002 -0.000014 -0.174510
 20   3.673767 0.176993 -1.117566 0.000007 -0.000003 -0.174546
 21   3.942357 1.334540 1.627658 0.000002 -0.000011 -0.000026
 22   -0.246060 -0.011889 0.516521 -0.000011 0.000031 0.000025
 23   3.942374 1.334565 -1.631083 0.000019 0.000002 -0.000024
 24   -0.246150 -0.011872 -0.516511 -0.000005 -0.000006 0.000048
 25   4.941364 1.997338 1.629330 0.000018 -0.000001 -0.000024
 26   4.941382 1.997366 -1.629410 -0.000001 0.000005 -0.000024
 27   2.914462 1.619264 1.514501 -0.000019 -0.000022 -0.000050
 28   2.916892 1.618870 -1.501142 -0.000002 -0.000009 -0.000024
 29   8.824059 0.150544 0.091743 0.000006 -0.000231 -0.174534
 30   2.111085 -0.561179 1.784320 -0.000008 -0.000682 0.000024
 31   2.121290 -0.561289 -1.853599 0.000000 0.000000 -0.000002
 32   -0.814395 -0.093824 3.127092 0.262921 -3.097582 -0.334816
 33   14.298673 -0.408176 0.471578 0.003687 -0.003117 -0.522469
 34   15.835795 0.581398 0.242756 -0.001271 0.032067 0.122292
 35   -0.815868 -0.091229 -3.114430 -0.132889 3.034913 -0.011455
 36   14.294526 -0.410349 -0.467541 -0.002676 0.001869 -0.384764
 37   15.834409 0.579420 -0.284600 -0.034128 0.026558 0.304555
 38   1.139685 -3.453749 -2.823813 0.000000 0.000000 0.000001
 39   -4.457742 -1.054854 -0.746180 0.000000 0.000000 0.000000
 40   1.118101 -3.449769 3.237290 0.000000 0.000001 0.000000
 41   -4.433840 -1.059130 0.959566 -0.000001 0.000000 0.000000
 42   -0.657468 1.697302 -2.688614 0.000000 0.000002 0.000000
 43   -0.664068 1.698578 2.869377 0.000000 0.000002 0.000000
time 6
  0   -0.010486 -0.546892 1.863709 0.000000 0.000000 -1.571354
  1   -1.093036 0.000002 -0.326057 -1.570808 -1.570749 0.000022
  2   2.262337 0.113614 0.064702 -0.010217 -0.019103 -0.082036
  3   2.380047 0.353302 0.047440 -0.014131 0.011213 0.003857
  4   2.033756 0.190472 -0.000128 0.070809 0.023706 0.107991
  5   2.451511 0.204909 -0.003447 0.049211 0.042817 0.177754
  6   7.247600 -0.397300 -0.109469 -0.016634 0.002250 0.459335
  7   -2.022252 -0.104661 3.136172 1.362148 -1.016627 -4.925365
  8   1.168026 -0.537438 -0.063437 0.165143 -0.130801 -0.428336
  9   6.790376 -0.619176 0.015206 -0.000102 -0.000085 -1.552518
 10   8.637599 0.544015 -0.090417 -2.443451 0.214278 0.739527
 11   6.790465 -0.619039 0.017802 0.002753 -0.011765 -1.102023
 12   -2.022474 -0.104699 -2.873818 -2.302289 1.868006 -5.925009
 13   1.167898 -0.537463 0.063297 -0.678921 -1.116507 -0.148159
 14   7.002743 -0.617765 -0.183752 0.000172 0.000137 -1.836736
 15   8.209042 0.615527 -0.255885 2.730100 0.286384 0.060010
 16   7.002735 -0.617911 -0.183641 0.013073 0.010131 -1.304472
 17   1.574674 0.609930 -0.000899 -0.136894 0.059483 -0.107454
 18   -0.602177 0.511412 -0.000006 0.000000 0.000000 0.000000
 19   3.673773 0.177020 1.119313 -0.000002 -0.000014 -0.174510
 20   3.673767 0.176993 -1.117566 0.000007 -0.000003 -0.174546
 21   3.942357 1.334540 1.627658 0.000002 -0.000011 -0.000026
 22   -0.246060 -0.011889 0.516521 -0.000011 0.000031 0.000025
 23   3.942374 1.334565 -1.631083 0.000019 0.000002 -0.000024
 24   -0.246150 -0.011872 -0.516511 -0.000005 -0.000006 0.000048
 25   4.941364 1.997338 1.629330 0.000018 -0.000001 -0.000024
 26   4.941382 1.997366 -1.629410 -0.000001 0.000005 -0.000024
 27   2.914462 1.619264 1.514501 -0.000019 -0.000022 -0.000050
 28   2.916892 1.618870 -1.501142 -0.000002 -0.000009 -0.000024
 29   8.824059 0.150544 0.091743 0.000006 -0.000231 -0.174534
 30   2.111085 -0.561179 1.784320 -0.000008 -0.000682 0.000024
 31   2.121290 -0.561289 -1.853599 0.000000 0.000000 -0.000002
 32   -0.814395 -0.093824 3.127092 0.262921 -3.097582 -0.334816
 33   14.298673 -0.408176 0.471578 0.003687 -0.003117 -0.522469
 34   15.835795 0.581398 0.242756 -0.001271 0.032067 0.122292
 35   -0.815868 -0.091229 -3.114430 -0.132889 3.034913 -0.011455
 36   14.294526 -0.410349 -0.467541 -0.002676 0.001869 -0.384764
 37   15.834409 0.579420 -0.284600 -0.034128 0.026558 0.304555
 38   1.139685 -3.453749 -2.823813 0.000000 0.000000 0.000001
 39   -4.457742 -1.054854 -0.746180 0.000000 0.000000 0.000000
 40   1.118101 -3.449769 3.237290 0.000000 0.000001 0.000000
 41   -4.433840 -1.059130 0.959566 -0.000001 0.000000 0.000000
 42   -0.657468 1.697302 -2.688614 0.000000 0.000002 0.000000
 43   -0.664068 1.698578 2.869377 0.000000 0.000002 0.000000
time 7
  0   -0.010486 -0.546892 1.863709 0.000000 0.000000 -1.571354
  1   -1.093036 0.000002 -0.326057 -1.570808 -1.570749 0.000022
  2   2.262337 0.113614 0.064702 -0.010344 -0.017928 -0.074898
  3   2.380047 0.353302 0.047440 -0.014086 0.005497 0.005101
  4   2.033756 0.190472 -0.000128 0.021937 0.007335 0.117886
  5   2.451511 0.204909 -0.003447 -0.020352 0.008612 0.197492
  6   7.247600 -0.397300 -0.109469 -0.016634 0.002250 0.459335
  7   -2.022252 -0.104661 3.136172 1.212801 -0.988809 -4.748145
  8   1.168026 -0.537438 -0.063437 0.001184 -0.100361 -0.236088
  9   6.790376 -0.619176 0.015206 -0.000102 -0.000085 -1.494710
 10   8.637599 0.544015 -0.090417 -2.944188 0.128613 0.758192
 11   6.790465 -0.619039 0.017802 0.002461 -0.011708 -1.061650
 12   -2.022474 -0.104699 -2.873818 -2.302289 1.868006 -5.925009
 13   1.167898 -0.537463 0.063297 -0.625425 -1.190297 -0.343081
 14   7.002743 -0.617765 -0.183752 0.000172 0.000137 -1.786573
 15   8.209042 0.615527 -0.255885 2.590968 0.279575 0.071977
 16   7.002735 -0.617911 -0.183641 0.013167 0.009792 -1.269314
 17   1.574674 0.609930 -0.000899 -0.012146 0.064098 -0.147261
 18   -0.602177 0.511412 -0.000006 0.000000 0.000000 0.000000
 19   3.673773 0.177020 1.119313 -0.000002 -0.000014 -0.174510
 20   3.673767 0.176993 -1.117566 0.000007 -0.000003 -0.174546
 21   3.942357 1.334540 1.627658 0.000002 -0.000011 -0.000026
 22   -0.246060 -0.011889 0.516521 -0.000011 0.000031 0.000025
 23   3.942374 1.334565 -1.631083 0.000019 0.000002 -0.000024
 24   -0.246150 -0.011872 -0.516511 -0.000005 -0.000006 0.000048
 25   4.941364 1.997338 1.629330 0.000018 -0.000001 -0.000024
 26   4.941382 1.997366 -1.629410 -0.000001 0.000005 -0.000024
 27   2.914462 1.619264 1.514501 -0.000019 -0.000022 -0.000050
 28   2.916892 1.618870 -1.501142 -0.000002 -0.000009 -0.000024
 29   8.824059 0.150544 0.091743 0.000006 -0.000231 -0.174534
 30   2.111085 -0.561179 1.784320 -0.000008 -0.000682 0.000024
 31   2.121290 -0.561289 -1.853599 0.000000 0.000000 -0.000002
 32   -0.814395 -0.093824 3.127092 0.262921 -3.097582 -0.334816
 33   14.298673 -0.408176 0.471578 0.003687 -0.003117 -0.522469
 34   15.835795 0.581398 0.242756 -0.001271 0.032067 0.122292
 35   -0.815868 -0.091229 -3.114430 -0.132889 3.034913 -0.011455
 36   14.294526 -0.410349 -0.467541 -0.002676 0.001869 -0.384764
 37   15.834409 0.579420 -0.284600 -0.034128 0.026558 0.304555
 38   1.139685 -3.453749 -2.823813 0.000000 0.000000 0.000001
 39   -4.457742 -1.054854 -0.746180 0.000000 0.000000 0.000000
 40   1.118101 -3.449769 3.237290 0.000000 0.000001 0.000000
 41   -4.433840 -1.059130 0.959566 -0.000001 0.000000 0.000000
 42   -0.657468 1.697302 -2.688614 0.000000 0.000002 0.000000
 43   -0.664068 1.698578 2.869377 0.000000 0.000002 0.000000
time 8
  0   -0.010486 -0.546892 1.863709 0.000000 0.000000 -1.571354
  1   -1.093036 0.000002 -0.326057 -1.570808 -1.570749 0.000022
  2   2.262337 0.113614 0.064702 -0.010408 -0.017305 -0.071085
  3   2.380047 0.353302 0.047440 -0.014056 0.002405 0.005754
  4   2.033756 0.190472 -0.000128 -0.004307 -0.001162 0.123613
  5   2.451511 0.204909 -0.003447 -0.058146 -0.009131 0.209107
  6   7.247600 -0.397300 -0.109469 -0.016634 0.002250 0.459335
  7   -2.022252 -0.104661 3.136172 1.177334 -0.979555 -4.705788
  8   1.168026 -0.537438 -0.063437 -0.065577 -0.091405 -0.147966
  9   6.790376 -0.619176 0.015206 -0.000102 -0.000085 -1.478183
 10   8.637599 0.544015 -0.090417 -3.107636 0.130162 0.766367
 11   6.790465 -0.619039 0.017802 0.002432 -0.011708 -1.050000
 12   -2.022474 -0.104699 -2.873818 -2.302289 1.868006 -5.925009
 13   1.167898 -0.537463 0.063297 -0.561807 -1.238304 -0.490241
 14   7.002743 -0.617765 -0.183752 0.000172 0.000023 -1.736492
 15   8.209042 0.615527 -0.255885 2.452411 0.274278 0.084907
 16   7.002735 -0.617911 -0.183641 0.013261 0.009510 -1.234156
 17   1.574674 0.609930 -0.000899 0.073687 0.068997 -0.175610
 18   -0.602177 0.511412 -0.000006 0.000000 0.000000 0.000000
 19   3.673773 0.177020 1.119313 -0.000002 -0.000014 -0.174510
 20   3.673767 0.176993 -1.117566 0.000007 -0.000003 -0.174546
 21   3.942357 1.334540 1.627658 0.000002 -0.000011 -0.000026
 22   -0.246060 -0.011889 0.516521 -0.000011 0.000031 0.000025
 23   3.942374 1.334565 -1.631083 0.000019 0.000002 -0.000024
 24   -0.246150 -0.011872 -0.516511 -0.000005 -0.000006 0.000048
 25   4.941364 1.997338 1.629330 0.000018 -0.000001 -0.000024
 26   4.941382 1.997366 -1.629410 -0.000001 0.000005 -0.000024
 27   2.914462 1.619264 1.514501 -0.000019 -0.000022 -0.000050
 28   2.916892 1.618870 -1.501142 -0.000002 -0.000009 -0.000024
 29   8.824059 0.150544 0.091743 0.000006 -0.000231 -0.174534
 30   2.111085 -0.561179 1.784320 -0.000008 -0.000682 0.000024
 31   2.121290 -0.561289 -1.853599 0.000000 0.000000 -0.000002
 32   -0.814395 -0.093824 3.127092 0.262921 -3.097582 -0.334816
 33   14.298673 -0.408176 0.471578 0.003687 -0.003117 -0.522469
 34   15.835795 0.581398 0.242756 -0.001271 0.032067 0.122292
 35   -0.815868 -0.091229 -3.114430 -0.132889 3.034913 -0.011455
 36   14.294526 -0.410349 -0.467541 -0.002676 0.001869 -0.384764
 37   15.834409 0.579420 -0.284600 -0.034128 0.026558 0.304555
 38   1.139685 -3.453749 -2.823813 0.000000 0.000000 0.000001
 39   -4.457742 -1.054854 -0.746180 0.000000 0.000000 0.000000
 40   1.118101 -3.449769 3.237290 0.000000 0.000001 0.000000
 41   -4.433840 -1.059130 0.959566 -0.000001 0.000000 0.000000
 42   -0.657468 1.697302 -2.688614 0.000000 0.000002 0.000000
 43   -0.664068 1.698578 2.869377 0.000000 0.000002 0.000000
time 9
  0   -0.010486 -0.546892 1.863709 0.000000 0.000000 -1.571354
  1   -1.093036 0.000002 -0.326057 -1.570808 -1.570749 0.000022
  2   2.262337 0.113614 0.064702 -0.010408 -0.016981 -0.071085
  3   2.380047 0.353302 0.047440 -0.014011 0.000823 0.006101
  4   2.033756 0.190472 -0.000128 -0.024852 -0.000323 0.126839
  5   2.451511 0.204909 -0.003447 -0.081374 -0.007656 0.214035
  6   7.247600 -0.397300 -0.109469 -0.016634 0.002250 0.459335
  7   -2.022252 -0.104661 3.136172 1.152602 -0.972377 -4.676111
  8   1.168026 -0.537438 -0.063437 -0.246623 0.055563 -0.085528
  9   6.790376 -0.619176 0.015206 -0.000102 -0.000085 -1.420676
 10   8.637599 0.544015 -0.090417 -3.500670 0.316415 0.698580
 11   6.790465 -0.619039 0.017802 0.002140 -0.011680 -1.009685
 12   -2.022474 -0.104699 -2.873818 -2.302289 1.868006 -5.925009
 13   1.167898 -0.537463 0.063297 -0.402797 -1.253560 -0.696362
 14   7.002743 -0.617765 -0.183752 0.000172 0.000023 -1.705800
 15   8.209042 0.615527 -0.255885 2.471106 0.295236 0.106797
 16   7.002735 -0.617911 -0.183641 0.013308 0.009341 -1.212686
 17   1.574674 0.609930 -0.000899 0.142134 0.054465 -0.202628
 18   -0.602177 0.511412 -0.000006 0.000000 0.000000 0.000000
 19   3.673773 0.177020 1.119313 -0.000002 -0.000014 -0.174510
 20   3.673767 0.176993 -1.117566 0.000007 -0.000003 -0.174546
 21   3.942357 1.334540 1.627658 0.000002 -0.000011 -0.000026
 22   -0.246060 -0.011889 0.516521 -0.000011 0.000031 0.000025
 23   3.942374 1.334565 -1.631083 0.000019 0.000002 -0.000024
 24   -0.246150 -0.011872 -0.516511 -0.000005 -0.000006 0.000048
 25   4.941364 1.997338 1.629330 0.000018 -0.000001 -0.000024
 26   4.941382 1.997366 -1.629410 -0.000001 0.000005 -0.000024
 27   2.914462 1.619264 1.514501 -0.000019 -0.000022 -0.000050
 28   2.916892 1.618870 -1.501142 -0.000002 -0.000009 -0.000024
 29   8.824059 0.150544 0.091743 0.000006 -0.000231 -0.174534
 30   2.111085 -0.561179 1.784320 -0.000008 -0.000682 0.000024
 31   2.121290 -0.561289 -1.853599 0.000000 0.000000 -0.000002
 32   -0.814395 -0.093824 3.127092 0.262921 -3.097582 -0.334816
 33   14.298673 -0.408176 0.471578 0.003687 -0.003117 -0.522469
 34   15.835795 0.581398 0.242756 -0.001271 0.032067 0.122292
 35   -0.815868 -0.091229 -3.114430 -0.132889 3.034913 -0.011455
 36   14.294526 -0.410349 -0.467541 -0.002676 0.001869 -0.384764
 37   15.834409 0.579420 -0.284600 -0.034128 0.026558 0.304555
 38   1.139685 -3.453749 -2.823813 0.000000 0.000000 0.000001
 39   -4.457742 -1.054854 -0.746180 0.000000 0.000000 0.000000
 40   1.118101 -3.449769 3.237290 0.000000 0.000001 0.000000
 41   -4.433840 -1.059130 0.959566 -0.000001 0.000000 0.000000
 42   -0.657468 1.697302 -2.688614 0.000000 0.000002 0.000000
 43   -0.664068 1.698578 2.869377 0.000000 0.000002 0.000000
time 10
  0   -0.010486 -0.546892 1.863709 0.000000 0.000000 -1.571354
  1   -1.093036 0.000002 -0.326057 -1.570808 -1.570749 0.000022
  2   2.262337 0.113614 0.064702 -0.010408 -0.016706 -0.071085
  3   2.380047 0.353302 0.047440 -0.013996 -0.000663 0.006468
  4   2.033756 0.190472 -0.000128 -0.045360 0.000456 0.130065
  5   2.451511 0.204909 -0.003447 -0.104447 -0.006076 0.218815
  6   7.247600 -0.397300 -0.109469 -0.016634 0.002250 0.459335
  7   -2.022252 -0.104661 3.136172 1.163243 -0.975548 -4.688883
  8   1.168026 -0.537438 -0.063437 -0.380398 0.195990 -0.043460
  9   6.790376 -0.619176 0.015206 -0.000102 -0.000085 -1.417129
 10   8.637599 0.544015 -0.090417 -3.776313 0.458040 0.579068
 11   6.790465 -0.619039 0.017802 0.002140 -0.011680 -1.007205
 12   -2.022474 -0.104699 -2.873818 -2.302289 1.868006 -5.925009
 13   1.167898 -0.537463 0.063297 -0.327580 -1.232913 -0.796426
 14   7.002743 -0.617765 -0.183752 0.000172 0.000023 -1.679646
 15   8.209042 0.615527 -0.255885 2.446083 0.306585 0.063679
 16   7.002735 -0.617911 -0.183641 0.013308 0.009229 -1.194472
 17   1.574674 0.609930 -0.000899 0.211922 0.042608 -0.233860
 18   -0.602177 0.511412 -0.000006 0.000000 0.000000 0.000000
 19   3.673773 0.177020 1.119313 -0.000002 -0.000014 -0.174510
 20   3.673767 0.176993 -1.117566 0.000007 -0.000003 -0.174546
 21   3.942357 1.334540 1.627658 0.000002 -0.000011 -0.000026
 22   -0.246060 -0.011889 0.516521 -0.000011 0.000031 0.000025
 23   3.942374 1.334565 -1.631083 0.000019 0.000002 -0.000024
 24   -0.246150 -0.011872 -0.516511 -0.000005 -0.000006 0.000048
 25   4.941364 1.997338 1.629330 0.000018 -0.000001 -0.000024
 26   4.941382 1.997366 -1.629410 -0.000001 0.000005 -0.000024
 27   2.914462 1.619264 1.514501 -0.000019 -0.000022 -0.000050
 28   2.916892 1.618870 -1.501142 -0.000002 -0.000009 -0.000024
 29   8.824059 0.150544 0.091743 0.000006 -0.000231 -0.174534
 30   2.111085 -0.561179 1.784320 -0.000008 -0.000682 0.000024
 31   2.121290 -0.561289 -1.853599 0.000000 0.000000 -0.000002
 32   -0.814395 -0.093824 3.127092 0.262921 -3.097582 -0.334816
 33   14.298673 -0.408176 0.471578 0.003687 -0.003117 -0.522469
 34   15.835795 0.581398 0.242756 -0.001271 0.032067 0.122292
 35   -0.815868 -0.091229 -3.114430 -0.132889 3.034913 -0.011455
 36   14.294526 -0.410349 -0.467541 -0.002676 0.001869 -0.384764
 37   15.834409 0.579420 -0.284600 -0.034128 0.026558 0.304555
 38   1.139685 -3.453749 -2.823813 0.000000 0.000000 0.000001
 39   -4.457742 -1.054854 -0.746180 0.000000 0.000000 0.000000
 40   1.118101 -3.449769 3.237290 0.000000 0.000001 0.000000
 41   -4.433840 -1.059130 0.959566 -0.000001 0.000000 0.000000
 42   -0.657468 1.697302 -2.688614 0.000000 0.000002 0.000000
 43   -0.664068 1.698578 2.869377 0.000000 0.000002 0.000000
time 11
  0   -0.010486 -0.546892 1.863709 0.000000 0.000000 -1.571354
  1   -1.093036 0.000002 -0.326057 -1.570808 -1.570749 0.000022
  2   2.262337 0.113614 0.064702 -0.010357 -0.014836 -0.071790
  3   2.380047 0.353302 0.047440 -0.014056 -0.008693 0.013916
  4   2.033756 0.190472 -0.000128 -0.061534 -0.001618 0.129195
  5   2.451511 0.204909 -0.003447 -0.103557 -0.005958 0.213936
  6   7.247600 -0.397300 -0.109469 -0.016634 0.002250 0.459335
  7   -2.022252 -0.104661 3.136172 1.166981 -0.976557 -4.692922
  8   1.168026 -0.537438 -0.063437 -0.431338 0.236292 -0.014233
  9   6.790376 -0.619176 0.015206 -0.000102 -0.000085 -1.511917
 10   8.637599 0.544015 -0.090417 -3.818672 0.405670 0.600047
 11   6.790465 -0.619039 0.017802 0.002578 -0.011708 -1.073589
 12   -2.022474 -0.104699 -2.873818 -2.302289 1.868006 -5.925009
 13   1.167898 -0.537463 0.063297 -0.608695 -1.094131 -0.440784
 14   7.002743 -0.617765 -0.183752 0.000172 0.000023 -1.709348
 15   8.209042 0.615527 -0.255885 2.273444 0.230774 -0.193709
 16   7.002735 -0.617911 -0.183641 0.013308 0.009341 -1.215225
 17   1.574674 0.609930 -0.000899 0.248237 0.047649 -0.256813
 18   -0.602177 0.511412 -0.000006 0.000000 0.000000 0.000000
 19   3.673773 0.177020 1.119313 -0.000002 -0.000014 -0.174510
 20   3.673767 0.176993 -1.117566 0.000007 -0.000003 -0.174546
 21   3.942357 1.334540 1.627658 0.000002 -0.000011 -0.000026
 22   -0.246060 -0.011889 0.516521 -0.000011 0.000031 0.000025
 23   3.942374 1.334565 -1.631083 0.000019 0.000002 -0.000024
 24   -0.246150 -0.011872 -0.516511 -0.000005 -0.000006 0.000048
 25   4.941364 1.997338 1.629330 0.000018 -0.000001 -0.000024
 26   4.941382 1.997366 -1.629410 -0.000001 0.000005 -0.000024
 27   2.914462 1.619264 1.514501 -0.000019 -0.000022 -0.000050
 28   2.916892 1.618870 -1.501142 -0.000002 -0.000009 -0.000024
 29   8.824059 0.150544 0.091743 0.000006 -0.000231 -0.174534
 30   2.111085 -0.561179 1.784320 -0.000008 -0.000682 0.000024
 31   2.121290 -0.561289 -1.853599 0.000000 0.000000 -0.000002
 32   -0.814395 -0.093824 3.127092 0.262921 -3.097582 -0.334816
 33   14.298673 -0.408176 0.471578 0.003687 -0.003117 -0.522469
 34   15.835795 0.581398 0.242756 -0.001271 0.032067 0.122292
 35   -0.815868 -0.091229 -3.114430 -0.132889 3.034913 -0.011455
 36   14.294526 -0.410349 -0.467541 -0.002676 0.001869 -0.384764
 37   15.834409 0.579420 -0.284600 -0.034128 0.026558 0.304555
 38   1.139685 -3.453749 -2.823813 0.000000 0.000000 0.000001
 39   -4.457742 -1.054854 -0.746180 0.000000 0.000000 0.000000
 40   1.118101 -3.449769 3.237290 0.000000 0.000001 0.000000
 41   -4.433840 -1.059130 0.959566 -0.000001 0.000000 0.000000
 42   -0.657468 1.697302 -2.688614 0.000000 0.000002 0.000000
 43   -0.664068 1.698578 2.869377 0.000000 0.000002 0.000000
time 12
  0   -0.010486 -0.546892 1.863709 0.000000 0.000000 -1.571354
  1   -1.093036 0.000002 -0.326057 -1.570808 -1.570749 0.000022
  2   2.262337 0.113614 0.064702 -0.010306 -0.010486 -0.073416
  3   2.380047 0.353302 0.047440 -0.014401 -0.027605 0.031710
  4   2.033756 0.190472 -0.000128 -0.100780 -0.006819 0.127238
  5   2.451511 0.204909 -0.003447 -0.103232 -0.004770 0.202990
  6   7.247600 -0.397300 -0.109469 -0.016634 0.002250 0.459335
  7   -2.022252 -0.104661 3.136172 1.172637 -0.978229 -4.700247
  8   1.168026 -0.537438 -0.063437 -0.464750 0.248518 0.045548
  9   6.790376 -0.619176 0.015206 -0.000102 -0.000085 -1.637872
 10   8.637599 0.544015 -0.090417 -3.783006 0.308320 0.660961
 11   6.790465 -0.619039 0.017802 0.003132 -0.011793 -1.161716
 12   -2.022474 -0.104699 -2.873818 -2.302289 1.868006 -5.925009
 13   1.167898 -0.537463 0.063297 -0.766791 -0.925650 -0.232605
 14   7.002743 -0.617765 -0.183752 0.000172 0.000023 -1.750023
 15   8.209042 0.615527 -0.255885 2.127050 0.109416 -0.433717
 16   7.002735 -0.617911 -0.183641 0.013214 0.009623 -1.243760
 17   1.574674 0.609930 -0.000899 0.300030 0.053258 -0.270452
 18   -0.602177 0.511412 -0.000006 0.000000 0.000000 0.000000
 19   3.673773 0.177020 1.119313 -0.000002 -0.000014 -0.174510
 20   3.673767 0.176993 -1.117566 0.000007 -0.000003 -0.174546
 21   3.942357 1.334540 1.627658 0.000002 -0.000011 -0.000026
 22   -0.246060 -0.011889 0.516521 -0.000011 0.000031 0.000025
 23   3.942374 1.334565 -1.631083 0.000019 0.000002 -0.000024
 24   -0.246150 -0.011872 -0.516511 -0.000005 -0.000006 0.000048
 25   4.941364 1.997338 1.629330 0.000018 -0.000001 -0.000024
 26   4.941382 1.997366 -1.629410 -0.000001 0.000005 -0.000024
 27   2.914462 1.619264 1.514501 -0.000019 -0.000022 -0.000050
 28   2.916892 1.618870 -1.501142 -0.000002 -0.000009 -0.000024
 29   8.824059 0.150544 0.091743 0.000006 -0.000231 -0.174534
 30   2.111085 -0.561179 1.784320 -0.000008 -0.000682 0.000024
 31   2.121290 -0.561289 -1.853599 0.000000 0.000000 -0.000002
 32   -0.814395 -0.093824 3.127092 0.262921 -3.097582 -0.334816
 33   14.298673 -0.408176 0.471578 0.003687 -0.003117 -0.522469
 34   15.835795 0.581398 0.242756 -0.001271 0.032067 0.122292
 35   -0.815868 -0.091229 -3.114430 -0.132889 3.034913 -0.011455
 36   14.294526 -0.410349 -0.467541 -0.002676 0.001869 -0.384764
 37   15.834409 0.579420 -0.284600 -0.034128 0.026558 0.304555
 38   1.139685 -3.453749 -2.823813 0.000000 0.000000 0.000001
 39   -4.457742 -1.054854 -0.746180 0.000000 0.000000 0.000000
 40   1.118101 -3.449769 3.237290 0.000000 0.000001 0.000000
 41   -4.433840 -1.059130 0.959566 -0.000001 0.000000 0.000000
 42   -0.657468 1.697302 -2.688614 0.000000 0.000002 0.000000
 43   -0.664068 1.698578 2.869377 0.000000 0.000002 0.000000
time 13
  0   -0.010486 -0.546892 1.863709 0.000000 0.000000 -1.571354
  1   -1.093036 0.000002 -0.326057 -1.570808 -1.570749 0.000022
  2   2.262337 0.113614 0.064702 -0.010293 -0.005452 -0.075368
  3   2.380047 0.353302 0.047440 -0.015226 -0.049920 0.053013
  4   2.033756 0.190472 -0.000128 -0.149155 -0.013255 0.124592
  5   2.451511 0.204909 -0.003447 -0.106638 -0.001154 0.191796
  6   7.247600 -0.397300 -0.109469 -0.016634 0.002250 0.459335
  7   -2.022252 -0.104661 3.136172 1.180497 -0.980305 -4.709357
  8   1.168026 -0.537438 -0.063437 -0.477153 0.267889 0.113869
  9   6.790376 -0.619176 0.015206 -0.000102 -0.000085 -1.779524
 10   8.637599 0.544015 -0.090417 -3.724090 0.183729 0.731714
 11   6.790465 -0.619039 0.017802 0.003775 -0.011850 -1.260975
 12   -2.022474 -0.104699 -2.873818 -2.302289 1.868006 -5.925009
 13   1.167898 -0.537463 0.063297 -0.834416 -0.819974 -0.166501
 14   7.002743 -0.617765 -0.183752 0.000172 0.000137 -1.778570
 15   8.209042 0.615527 -0.255885 2.055219 0.024526 -0.571251
 16   7.002735 -0.617911 -0.183641 0.013167 0.009792 -1.263629
 17   1.574674 0.609930 -0.000899 0.361530 0.056430 -0.275996
 18   -0.602177 0.511412 -0.000006 0.000000 0.000000 0.000000
 19   3.673773 0.177020 1.119313 -0.000002 -0.000014 -0.174510
 20   3.673767 0.176993 -1.117566 0.000007 -0.000003 -0.174546
 21   3.942357 1.334540 1.627658 0.000002 -0.000011 -0.000026
 22   -0.246060 -0.011889 0.516521 -0.000011 0.000031 0.000025
 23   3.942374 1.334565 -1.631083 0.000019 0.000002 -0.000024
 24   -0.246150 -0.011872 -0.516511 -0.000005 -0.000006 0.000048
 25   4.941364 1.997338 1.629330 0.000018 -0.000001 -0.000024
 26   4.941382 1.997366 -1.629410 -0.000001 0.000005 -0.000024
 27   2.914462 1.619264 1.514501 -0.000019 -0.000022 -0.000050
 28   2.916892 1.618870 -1.501142 -0.000002 -0.000009 -0.000024
 29   8.824059 0.150544 0.091743 0.000006 -0.000231 -0.174534
 30   2.111085 -0.561179 1.784320 -0.000008 -0.000682 0.000024
 31   2.121290 -0.561289 -1.853599 0.000000 0.000000 -0.000002
 32   -0.814395 -0.093824 3.127092 0.262921 -3.097582 -0.334816
 33   14.298673 -0.408176 0.471578 0.003687 -0.003117 -0.522469
 34   15.835795 0.581398 0.242756 -0.001271 0.032067 0.122292
 35   -0.815868 -0.091229 -3.114430 -0.132889 3.034913 -0.011455
 36   14.294526 -0.410349 -0.467541 -0.002676 0.001869 -0.384764
 37   15.834409 0.579420 -0.284600 -0.034128 0.026558 0.304555
 38   1.139685 -3.453749 -2.823813 0.000000 0.000000 0.000001
 39   -4.457742 -1.054854 -0.746180 0.000000 0.000000 0.000000
 40   1.118101 -3.449769 3.237290 0.000000 0.000001 0.000000
 41   -4.433840 -1.059130 0.959566 -0.000001 0.000000 0.000000
 42   -0.657468 1.697302 -2.688614 0.000000 0.000002 0.000000
 43   -0.664068 1.698578 2.869377 0.000000 0.000002 0.000000
time 14
  0   -0.010486 -0.546892 1.863709 0.000000 0.000000 -1.571354
  1   -1.093036 0.000002 -0.326057 -1.570808 -1.570749 0.000022
  2   2.262337 0.113614 0.064702 -0.010217 -0.001593 -0.077067
  3   2.380047 0.353302 0.047440 -0.016336 -0.068101 0.070766
  4   2.033756 0.190472 -0.000128 -0.192790 -0.018804 0.121692
  5   2.451511 0.204909 -0.003447 -0.117319 0.005909 0.185877
  6   7.247600 -0.397300 -0.109469 -0.016634 0.002250 0.459335
  7   -2.022252 -0.104661 3.136172 1.188741 -0.982640 -4.719688
  8   1.168026 -0.537438 -0.063437 -0.467155 0.328669 0.167261
  9   6.790376 -0.619176 0.015206 -0.000102 -0.000085 -1.921026
 10   8.637599 0.544015 -0.090417 -3.686575 0.055689 0.795522
 11   6.790465 -0.619039 0.017802 0.004417 -0.011850 -1.360003
 12   -2.022474 -0.104699 -2.873818 -2.302289 1.868006 -5.925009
 13   1.167898 -0.537463 0.063297 -0.859793 -0.791343 -0.185267
 14   7.002743 -0.617765 -0.183752 0.000172 0.000137 -1.787893
 15   8.209042 0.615527 -0.255885 2.036237 -0.001425 -0.612385
 16   7.002735 -0.617911 -0.183641 0.013120 0.009849 -1.270197
 17   1.574674 0.609930 -0.000899 0.420188 0.054797 -0.283499
 18   -0.602177 0.511412 -0.000006 0.000000 0.000000 0.000000
 19   3.673773 0.177020 1.119313 -0.000002 -0.000014 -0.174510
 20   3.673767 0.176993 -1.117566 0.000007 -0.000003 -0.174546
 21   3.942357 1.334540 1.627658 0.000002 -0.000011 -0.000026
 22   -0.246060 -0.011889 0.516521 -0.000011 0.000031 0.000025
 23   3.942374 1.334565 -1.631083 0.000019 0.000002 -0.000024
 24   -0.246150 -0.011872 -0.516511 -0.000005 -0.000006 0.000048
 25   4.941364 1.997338 1.629330 0.000018 -0.000001 -0.000024
 26   4.941382 1.997366 -1.629410 -0.000001 0.000005 -0.000024
 27   2.914462 1.619264 1.514501 -0.000019 -0.000022 -0.000050
 28   2.916892 1.618870 -1.501142 -0.000002 -0.000009 -0.000024
 29   8.824059 0.150544 0.091743 0.000006 -0.000231 -0.174534
 30   2.111085 -0.561179 1.784320 -0.000008 -0.000682 0.000024
 31   2.121290 -0.561289 -1.853599 0.000000 0.000000 -0.000002
 32   -0.814395 -0.093824 3.127092 0.262921 -3.097582 -0.334816
 33   14.298673 -0.408176 0.471578 0.003687 -0.003117 -0.522469
 34   15.835795 0.581398 0.242756 -0.001271 0.032067 0.122292
 35   -0.815868 -0.091229 -3.114430 -0.132889 3.034913 -0.011455
 36   14.294526 -0.410349 -0.467541 -0.002676 0.001869 -0.384764
 37   15.834409 0.579420 -0.284600 -0.034128 0.026558 0.304555
 38   1.139685 -3.453749 -2.823813 0.000000 0.000000 0.000001
 39   -4.457742 -1.054854 -0.746180 0.000000 0.000000 0.000000
 40   1.118101 -3.449769 3.237290 0.000000 0.000001 0.000000
 41   -4.433840 -1.059130 0.959566 -0.000001 0.000000 0.000000
 42   -0.657468 1.697302 -2.688614 0.000000 0.000002 0.000000
 43   -0.664068 1.698578 2.869377 0.000000 0.000002 0.000000
time 15
  0   -0.010486 -0.546892 1.863709 0.000000 0.000000 -1.571354
  1   -1.093036 0.000002 -0.326057 -1.570808 -1.570749 0.000022
  2   2.262337 0.113614 0.064702 -0.010217 -0.003403 -0.077428
  3   2.380047 0.353302 0.047440 -0.016666 -0.069131 0.074439
  4   2.033756 0.190472 -0.000128 -0.228237 -0.021177 0.113899
  5   2.451511 0.204909 -0.003447 -0.180840 0.041773 0.211435
  6   7.247600 -0.397300 -0.109469 -0.016634 0.002250 0.459335
  7   -2.022252 -0.104661 3.136172 1.207433 -0.987483 -4.741664
  8   1.168026 -0.537438 -0.063437 -0.297437 0.674228 0.174093
  9   6.790376 -0.619176 0.015206 -0.000102 -0.000085 -2.096261
 10   8.637599 0.544015 -0.090417 -3.666496 -0.136195 0.890003
 11   6.790465 -0.619039 0.017802 0.005264 -0.011850 -1.482735
 12   -2.022474 -0.104699 -2.873818 -2.302289 1.868006 -5.925009
 13   1.167898 -0.537463 0.063297 -0.935010 -0.723046 -0.210631
 14   7.002743 -0.617765 -0.183752 0.000172 0.000137 -1.828073
 15   8.209042 0.615527 -0.255885 2.032714 0.027174 -0.659894
 16   7.002735 -0.617911 -0.183641 0.013120 0.010074 -1.298235
 17   1.574674 0.609930 -0.000899 0.511139 0.010942 -0.322493
 18   -0.602177 0.511412 -0.000006 0.000000 0.000000 0.000000
 19   3.673773 0.177020 1.119313 -0.000002 -0.000014 -0.174510
 20   3.673767 0.176993 -1.117566 0.000007 -0.000003 -0.174546
 21   3.942357 1.334540 1.627658 0.000002 -0.000011 -0.000026
 22   -0.246060 -0.011889 0.516521 -0.000011 0.000031 0.000025
 23   3.942374 1.334565 -1.631083 0.000019 0.000002 -0.000024
 24   -0.246150 -0.011872 -0.516511 -0.000005 -0.000006 0.000048
 25   4.941364 1.997338 1.629330 0.000018 -0.000001 -0.000024
 26   4.941382 1.997366 -1.629410 -0.000001 0.000005 -0.000024
 27   2.914462 1.619264 1.514501 -0.000019 -0.000022 -0.000050
 28   2.916892 1.618870 -1.501142 -0.000002 -0.000009 -0.000024
 29   8.824059 0.150544 0.091743 0.000006 -0.000231 -0.174534
 30   2.111085 -0.561179 1.784320 -0.000008 -0.000682 0.000024
 31   2.121290 -0.561289 -1.853599 0.000000 0.000000 -0.000002
 32   -0.814395 -0.093824 3.127092 0.262921 -3.097582 -0.334816
 33   14.298673 -0.408176 0.471578 0.003687 -0.003117 -0.522469
 34   15.835795 0.581398 0.242756 -0.001271 0.032067 0.122292
 35   -0.815868 -0.091229 -3.114430 -0.132889 3.034913 -0.011455
 36   14.294526 -0.410349 -0.467541 -0.002676 0.001869 -0.384764
 37   15.834409 0.579420 -0.284600 -0.034128 0.026558 0.304555
 38   1.139685 -3.453749 -2.823813 0.000000 0.000000 0.000001
 39   -4.457742 -1.054854 -0.746180 0.000000 0.000000 0.000000
 40   1.118101 -3.449769 3.237290 0.000000 0.000001 0.000000
 41   -4.433840 -1.059130 0.959566 -0.000001 0.000000 0.000000
 42   -0.657468 1.697302 -2.688614 0.000000 0.000002 0.000000
 43   -0.664068 1.698578 2.869377 0.000000 0.000002 0.000000
time 16
  0   -0.010486 -0.546892 1.863709 0.000000 0.000000 -1.571354
  1   -1.093036 0.000002 -0.326057 -1.570808 -1.570749 0.000022
  2   2.262337 0.113614 0.064702 -0.010217 -0.007130 -0.077428
  3   2.380047 0.353302 0.047440 -0.016621 -0.066363 0.073725
  4   2.033756 0.190472 -0.000128 -0.229878 -0.022327 0.108462
  5   2.451511 0.204909 -0.003447 -0.179128 0.034762 0.179116
  6   7.247600 -0.397300 -0.109469 -0.016634 0.002250 0.459335
  7   -2.022252 -0.104661 3.136172 1.219607 -0.990423 -4.756409
  8   1.168026 -0.537438 -0.063437 -0.343632 0.695863 0.248171
  9   6.790376 -0.619176 0.015206 -0.000102 -0.000085 -2.141919
 10   8.637599 0.544015 -0.090417 -3.656281 -0.158368 0.915830
 11   6.790465 -0.619039 0.017802 0.005527 -0.011879 -1.514629
 12   -2.022474 -0.104699 -2.873818 -2.302289 1.868006 -5.925009
 13   1.167898 -0.537463 0.063297 -0.944219 -0.730877 -0.203185
 14   7.002743 -0.617765 -0.183752 0.000172 0.000137 -1.828403
 15   8.209042 0.615527 -0.255885 2.052127 0.012799 -0.677875
 16   7.002735 -0.617911 -0.183641 0.013120 0.010074 -1.298566
 17   1.574674 0.609930 -0.000899 0.507727 0.025261 -0.314842
 18   -0.602177 0.511412 -0.000006 0.000000 0.000000 0.000000
 19   3.673773 0.177020 1.119313 -0.000002 -0.000014 -0.174510
 20   3.673767 0.176993 -1.117566 0.000007 -0.000003 -0.174546
 21   3.942357 1.334540 1.627658 0.000002 -0.000011 -0.000026
 22   -0.246060 -0.011889 0.516521 -0.000011 0.000031 0.000025
 23   3.942374 1.334565 -1.631083 0.000019 0.000002 -0.000024
 24   -0.246150 -0.011872 -0.516511 -0.000005 -0.000006 0.000048
 25   4.941364 1.997338 1.629330 0.000018 -0.000001 -0.000024
 26   4.941382 1.997366 -1.629410 -0.000001 0.000005 -0.000024
 27   2.914462 1.619264 1.514501 -0.000019 -0.000022 -0.000050
 28   2.916892 1.618870 -1.501142 -0.000002 -0.000009 -0.000024
 29   8.824059 0.150544 0.091743 0.000006 -0.000231 -0.174534
 30   2.111085 -0.561179 1.784320 -0.000008 -0.000682 0.000024
 31   2.121290 -0.561289 -1.853599 0.000000 0.000000 -0.000002
 32   -0.814395 -0.093824 3.127092 0.262921 -3.097582 -0.334816
 33   14.298673 -0.408176 0.471578 0.003687 -0.003117 -0.522469
 34   15.835795 0.581398 0.242756 -0.001271 0.032067 0.122292
 35   -0.815868 -0.091229 -3.114430 -0.132889 3.034913 -0.011455
 36   14.294526 -0.410349 -0.467541 -0.002676 0.001869 -0.384764
 37   15.834409 0.579420 -0.284600 -0.034128 0.026558 0.304555
 38   1.139685 -3.453749 -2.823813 0.000000 0.000000 0.000001
 39   -4.457742 -1.054854 -0.746180 0.000000 0.000000 0.000000
 40   1.118101 -3.449769 3.237290 0.000000 0.000001 0.000000
 41   -4.433840 -1.059130 0.959566 -0.000001 0.000000 0.000000
 42   -0.657468 1.697302 -2.688614 0.000000 0.000002 0.000000
 43   -0.664068 1.698578 2.869377 0.000000 0.000002 0.000000
time 17
  0   -0.010486 -0.546892 1.863709 0.000000 0.000000 -1.571354
  1   -1.093036 0.000002 -0.326057 -1.570808 -1.570749 0.000022
  2   2.262337 0.113614 0.064702 -0.010217 -0.011996 -0.077320
  3   2.380047 0.353302 0.047440 -0.016531 -0.056607 0.070807
  4   2.033756 0.190472 -0.000128 -0.212118 -0.026318 0.091426
  5   2.451511 0.204909 -0.003447 -0.167574 0.020074 0.133523
  6   7.247600 -0.397300 -0.109469 -0.016634 0.002250 0.459335
  7   -2.022252 -0.104661 3.136172 1.260347 -0.999504 -4.804776
  8   1.168026 -0.537438 -0.063437 -0.416467 0.689624 0.251144
  9   6.790376 -0.619176 0.015206 -0.000102 -0.000085 -2.118524
 10   8.637599 0.544015 -0.090417 -3.600359 -0.143305 0.893186
 11   6.790465 -0.619039 0.017802 0.005410 -0.011850 -1.498307
 12   -2.022474 -0.104699 -2.873818 -2.302289 1.868006 -5.925009
 13   1.167898 -0.537463 0.063297 -0.980984 -0.747456 -0.148341
 14   7.002743 -0.617765 -0.183752 0.000172 0.000137 -1.831786
 15   8.209042 0.615527 -0.255885 2.028112 0.042912 -0.693450
 16   7.002735 -0.617911 -0.183641 0.013073 0.010074 -1.300939
 17   1.574674 0.609930 -0.000899 0.473767 0.054442 -0.306637
 18   -0.602177 0.511412 -0.000006 0.000000 0.000000 0.000000
 19   3.673773 0.177020 1.119313 -0.000002 -0.000014 -0.174510
 20   3.673767 0.176993 -1.117566 0.000007 -0.000003 -0.174546
 21   3.942357 1.334540 1.627658 0.000002 -0.000011 -0.000026
 22   -0.246060 -0.011889 0.516521 -0.000011 0.000031 0.000025
 23   3.942374 1.334565 -1.631083 0.000019 0.000002 -0.000024
 24   -0.246150 -0.011872 -0.516511 -0.000005 -0.000006 0.000048
 25   4.941364 1.997338 1.629330 0.000018 -0.000001 -0.000024
 26   4.941382 1.997366 -1.629410 -0.000001 0.000005 -0.000024
 27   2.914462 1.619264 1.514501 -0.000019 -0.000022 -0.000050
 28   2.916892 1.618870 -1.501142 -0.000002 -0.000009 -0.000024
 29   8.824059 0.150544 0.091743 0.000006 -0.000231 -0.174534
 30   2.111085 -0.561179 1.784320 -0.000008 -0.000682 0.000024
 31   2.121290 -0.561289 -1.853599 0.000000 0.000000 -0.000002
 32   -0.814395 -0.093824 3.127092 0.262921 -3.097582 -0.334816
 33   14.298673 -0.408176 0.471578 0.003687 -0.003117 -0.522469
 34   15.835795 0.581398 0.242756 -0.001271 0.032067 0.122292
 35   -0.815868 -0.091229 -3.114430 -0.132889 3.034913 -0.011455
 36   14.294526 -0.410349 -0.467541 -0.002676 0.001869 -0.384764
 37   15.834409 0.579420 -0.284600 -0.034128 0.026558 0.304555
 38   1.139685 -3.453749 -2.823813 0.000000 0.000000 0.000001
 39   -4.457742 -1.054854 -0.746180 0.000000 0.000000 0.000000
 40   1.118101 -3.449769 3.237290 0.000000 0.000001 0.000000
 41   -4.433840 -1.059130 0.959566 -0.000001 0.000000 0.000000
 42   -0.657468 1.697302 -2.688614 0.000000 0.000002 0.000000
 43   -0.664068 1.698578 2.869377 0.000000 0.000002 0.000000
time 18
  0   -0.010486 -0.546892 1.863709 0.000000 0.000000 -1.571354
  1   -1.093036 0.000002 -0.326057 -1.570808 -1.570749 0.000022
  2   2.262337 0.113614 0.064702 -0.010217 -0.017760 -0.077229
  3   2.380047 0.353302 0.047440 -0.016471 -0.037360 0.066134
  4   2.033756 0.190472 -0.000128 -0.175860 -0.034456 0.054237
  5   2.451511 0.204909 -0.003447 -0.165657 0.009043 0.088772
  6   7.247600 -0.397300 -0.109469 -0.016634 0.002250 0.459335
  7   -2.022252 -0.104661 3.136172 1.352754 -1.015272 -4.914095
  8   1.168026 -0.537438 -0.063437 -0.479811 0.767561 0.108239
  9   6.790376 -0.619176 0.015206 -0.000102 -0.000085 -2.034378
 10   8.637599 0.544015 -0.090417 -3.472841 -0.127326 0.820119
 11   6.790465 -0.619039 0.017802 0.004972 -0.011850 -1.439363
 12   -2.022474 -0.104699 -2.873818 -2.302289 1.868006 -5.925009
 13   1.167898 -0.537463 0.063297 -1.084390 -0.742167 -0.033446
 14   7.002743 -0.617765 -0.183752 0.000172 0.000137 -1.855465
 15   8.209042 0.615527 -0.255885 1.921767 0.158141 -0.724481
 16   7.002735 -0.617911 -0.183641 0.013073 0.010244 -1.317442
 17   1.574674 0.609930 -0.000899 0.425996 0.083339 -0.319721
 18   -0.602177 0.511412 -0.000006 0.000000 0.000000 0.000000
 19   3.673773 0.177020 1.119313 -0.000002 -0.000014 -0.174510
 20   3.673767 0.176993 -1.117566 0.000007 -0.000003 -0.174546
 21   3.942357 1.334540 1.627658 0.000002 -0.000011 -0.000026
 22   -0.246060 -0.011889 0.516521 -0.000011 0.000031 0.000025
 23   3.942374 1.334565 -1.631083 0.000019 0.000002 -0.000024
 24   -0.246150 -0.011872 -0.516511 -0.000005 -0.000006 0.000048
 25   4.941364 1.997338 1.629330 0.000018 -0.000001 -0.000024
 26   4.941382 1.997366 -1.629410 -0.000001 0.000005 -0.000024
 27   2.914462 1.619264 1.514501 -0.000019 -0.000022 -0.000050
 28   2.916892 1.618870 -1.501142 -0.000002 -0.000009 -0.000024
 29   8.824059 0.150544 0.091743 0.000006 -0.000231 -0.174534
 30   2.111085 -0.561179 1.784320 -0.000008 -0.000682 0.000024
 31   2.121290 -0.561289 -1.853599 0.000000 0.000000 -0.000002
 32   -0.814395 -0.093824 3.127092 0.262921 -3.097582 -0.334816
 33   14.298673 -0.408176 0.471578 0.003687 -0.003117 -0.522469
 34   15.835795 0.581398 0.242756 -0.001271 0.032067 0.122292
 35   -0.815868 -0.091229 -3.114430 -0.132889 3.034913 -0.011455
 36   14.294526 -0.410349 -0.467541 -0.002676 0.001869 -0.384764
 37   15.834409 0.579420 -0.284600 -0.034128 0.026558 0.304555
 38   1.139685 -3.453749 -2.823813 0.000000 0.000000 0.000001
 39   -4.457742 -1.054854 -0.746180 0.000000 0.000000 0.000000
 40   1.118101 -3.449769 3.237290 0.000000 0.000001 0.000000
 41   -4.433840 -1.059130 0.959566 -0.000001 0.000000 0.000000
 42   -0.657468 1.697302 -2.688614 0.000000 0.000002 0.000000
 43   -0.664068 1.698578 2.869377 0.000000 0.000002 0.000000
time 19
  0   -0.010486 -0.546892 1.863709 0.000000 0.000000 -1.571354
  1   -1.093036 0.000002 -0.326057 -1.570808 -1.570749 0.000022
  2   2.262337 0.113614 0.064702 -0.010242 -0.023897 -0.077229
  3   2.380047 0.353302 0.047440 -0.016501 -0.015536 0.060890
  4   2.033756 0.190472 -0.000128 -0.133774 -0.041994 0.011610
  5   2.451511 0.204909 -0.003447 -0.164339 -0.001911 0.042857
  6   7.247600 -0.397300 -0.109469 -0.016634 0.002250 0.459335
  7   -2.022252 -0.104661 3.136172 1.463182 -1.026400 -5.043605
  8   1.168026 -0.537438 -0.063437 -0.604347 0.858831 -0.110073
  9   6.790376 -0.619176 0.015206 -0.000102 -0.000085 -1.931818
 10   8.637599 0.544015 -0.090417 -3.329208 -0.095932 0.736127
 11   6.790465 -0.619039 0.017802 0.004505 -0.011850 -1.367558
 12   -2.022474 -0.104699 -2.873818 -2.302289 1.868006 -5.925009
 13   1.167898 -0.537463 0.063297 -1.199887 -0.722435 0.094162
 14   7.002743 -0.617765 -0.183752 0.000172 0.000137 -1.882774
 15   8.209042 0.615527 -0.255885 1.786015 0.289183 -0.776199
 16   7.002735 -0.617911 -0.183641 0.012978 0.010413 -1.336649
 17   1.574674 0.609930 -0.000899 0.367908 0.113230 -0.363298
 18   -0.602177 0.511412 -0.000006 0.000000 0.000000 0.000000
 19   3.673773 0.177020 1.119313 -0.000002 -0.000014 -0.174510
 20   3.673767 0.176993 -1.117566 0.000007 -0.000003 -0.174546
 21   3.942357 1.334540 1.627658 0.000002 -0.000011 -0.000026
 22   -0.246060 -0.011889 0.516521 -0.000011 0.000031 0.000025
 23   3.942374 1.334565 -1.631083 0.000019 0.000002 -0.000024
 24   -0.246150 -0.011872 -0.516511 -0.000005 -0.000006 0.000048
 25   4.941364 1.997338 1.629330 0.000018 -0.000001 -0.000024
 26   4.941382 1.997366 -1.629410 -0.000001 0.000005 -0.000024
 27   2.914462 1.619264 1.514501 -0.000019 -0.000022 -0.000050
 28   2.916892 1.618870 -1.501142 -0.000002 -0.000009 -0.000024
 29   8.824059 0.150544 0.091743 0.000006 -0.000231 -0.174534
 30   2.111085 -0.561179 1.784320 -0.000008 -0.000682 0.000024
 31   2.121290 -0.561289 -1.853599 0.000000 0.000000 -0.000002
 32   -0.814395 -0.093824 3.127092 0.262921 -3.097582 -0.334816
 33   14.298673 -0.408176 0.471578 0.003687 -0.003117 -0.522469
 34   15.835795 0.581398 0.242756 -0.001271 0.032067 0.122292
 35   -0.815868 -0.091229 -3.114430 -0.132889 3.034913 -0.011455
 36   14.294526 -0.410349 -0.467541 -0.002676 0.001869 -0.384764
 37   15.834409 0.579420 -0.284600 -0.034128 0.026558 0.304555
 38   1.139685 -3.453749 -2.823813 0.000000 0.000000 0.000001
 39   -4.457742 -1.054854 -0.746180 0.000000 0.000000 0.000000
 40   1.118101 -3.449769 3.237290 0.000000 0.000001 0.000000
 41   -4.433840 -1.059130 0.959566 -0.000001 0.000000 0.000000
 42   -0.657468 1.697302 -2.688614 0.000000 0.000002 0.000000
 43   -0.664068 1.698578 2.869377 0.000000 0.000002 0.000000
time 20
  0   -0.010486 -0.546892 1.863709 0.000000 0.000000 -1.571354
  1   -1.093036 0.000002 -0.326057 -1.570808 -1.570749 0.000022
  2   2.262337 0.113614 0.064702 -0.010242 -0.030188 -0.077175
  3   2.380047 0.353302 0.047440 -0.016666 0.007618 0.055278
  4   2.033756 0.190472 -0.000128 -0.088165 -0.047998 -0.034242
  5   2.451511 0.204909 -0.003447 -0.163038 -0.012995 -0.003603
  6   7.247600 -0.397300 -0.109469 -0.016634 0.002250 0.459335
  7   -2.022252 -0.104661 3.136172 1.584634 -1.029830 -5.185513
  8   1.168026 -0.537438 -0.063437 -0.830005 0.937271 -0.420808
  9   6.790376 -0.619176 0.015206 -0.000102 -0.000085 -1.818314
 10   8.637599 0.544015 -0.090417 -3.179233 -0.048559 0.650833
 11   6.790465 -0.619039 0.017802 0.003921 -0.011850 -1.288140
 12   -2.022474 -0.104699 -2.873818 -2.302289 1.868006 -5.925009
 13   1.167898 -0.537463 0.063297 -1.315805 -0.688159 0.223222
 14   7.002743 -0.617765 -0.183752 0.000172 0.000137 -1.912971
 15   8.209042 0.615527 -0.255885 1.621141 0.422420 -0.856061
 16   7.002735 -0.617911 -0.183641 0.012931 0.010582 -1.357788
 17   1.574674 0.609930 -0.000899 0.303361 0.134388 -0.426243
 18   -0.602177 0.511412 -0.000006 0.000000 0.000000 0.000000
 19   3.673773 0.177020 1.119313 -0.000002 -0.000014 -0.174510
 20   3.673767 0.176993 -1.117566 0.000007 -0.000003 -0.174546
 21   3.942357 1.334540 1.627658 0.000002 -0.000011 -0.000026
 22   -0.246060 -0.011889 0.516521 -0.000011 0.000031 0.000025
 23   3.942374 1.334565 -1.631083 0.000019 0.000002 -0.000024
 24   -0.246150 -0.011872 -0.516511 -0.000005 -0.000006 0.000048
 25   4.941364 1.997338 1.629330 0.000018 -0.000001 -0.000024
 26   4.941382 1.997366 -1.629410 -0.000001 0.000005 -0.000024
 27   2.914462 1.619264 1.514501 -0.000019 -0.000022 -0.000050
 28   2.916892 1.618870 -1.501142 -0.000002 -0.000009 -0.000024
 29   8.824059 0.150544 0.091743 0.000006 -0.000231 -0.174534
 30   2.111085 -0.561179 1.784320 -0.000008 -0.000682 0.000024
 31   2.121290 -0.561289 -1.853599 0.000000 0.000000 -0.000002
 32   -0.814395 -0.093824 3.127092 0.262921 -3.097582 -0.334816
 33   14.298673 -0.408176 0.471578 0.003687 -0.003117 -0.522469
 34   15.835795 0.581398 0.242756 -0.001271 0.032067 0.122292
 35   -0.815868 -0.091229 -3.114430 -0.132889 3.034913 -0.011455
 36   14.294526 -0.410349 -0.467541 -0.002676 0.001869 -0.384764
 37   15.834409 0.579420 -0.284600 -0.034128 0.026558 0.304555
 38   1.139685 -3.453749 -2.823813 0.000000 0.000000 0.000001
 39   -4.457742 -1.054854 -0.746180 0.000000 0.000000 0.000000
 40   1.118101 -3.449769 3.237290 0.000000 0.000001 0.000000
 41   -4.433840 -1.059130 0.959566 -0.000001 0.000000 0.000000
 42   -0.657468 1.697302 -2.688614 0.000000 0.000002 0.000000
 43   -0.664068 1.698578 2.869377 0.000000 0.000002 0.000000
time 21
  0   -0.010486 -0.546892 1.863709 0.000000 0.000000 -1.571354
  1   -1.093036 0.000002 -0.326057 -1.570808 -1.570749 0.000022
  2   2.262337 0.113614 0.064702 -0.010242 -0.036480 -0.077175
  3   2.380047 0.353302 0.047440 -0.016966 0.031324 0.049585
  4   2.033756 0.190472 -0.000128 -0.041524 -0.052001 -0.081110
  5   2.451511 0.204909 -0.003447 -0.161412 -0.024106 -0.050212
  6   7.247600 -0.397300 -0.109469 -0.016634 0.002250 0.459335
  7   -2.022252 -0.104661 3.136172 1.707908 -1.024209 -5.329393
  8   1.168026 -0.537438 -0.063437 -1.154128 0.962076 -0.803027
  9   6.790376 -0.619176 0.015206 -0.000102 -0.000085 -1.702321
 10   8.637599 0.544015 -0.090417 -3.031724 0.011836 0.571544
 11   6.790465 -0.619039 0.017802 0.003395 -0.011793 -1.206876
 12   -2.022474 -0.104699 -2.873818 -2.302289 1.868006 -5.925009
 13   1.167898 -0.537463 0.063297 -1.422937 -0.641475 0.344473
 14   7.002743 -0.617765 -0.183752 0.000172 0.000137 -1.943498
 15   8.209042 0.615527 -0.255885 1.427651 0.542945 -0.969601
 16   7.002735 -0.617911 -0.183641 0.012884 0.010751 -1.379203
 17   1.574674 0.609930 -0.000899 0.238407 0.141489 -0.495507
 18   -0.602177 0.511412 -0.000006 0.000000 0.000000 0.000000
 19   3.673773 0.177020 1.119313 -0.000002 -0.000014 -0.174510
 20   3.673767 0.176993 -1.117566 0.000007 -0.000003 -0.174546
 21   3.942357 1.334540 1.627658 0.000002 -0.000011 -0.000026
 22   -0.246060 -0.011889 0.516521 -0.000011 0.000031 0.000025
 23   3.942374 1.334565 -1.631083 0.000019 0.000002 -0.000024
 24   -0.246150 -0.011872 -0.516511 -0.000005 -0.000006 0.000048
 25   4.941364 1.997338 1.629330 0.000018 -0.000001 -0.000024
 26   4.941382 1.997366 -1.629410 -0.000001 0.000005 -0.000024
 27   2.914462 1.619264 1.514501 -0.000019 -0.000022 -0.000050
 28   2.916892 1.618870 -1.501142 -0.000002 -0.000009 -0.000024
 29   8.824059 0.150544 0.091743 0.000006 -0.000231 -0.174534
 30   2.111085 -0.561179 1.784320 -0.000008 -0.000682 0.000024
 31   2.121290 -0.561289 -1.853599 0.000000 0.000000 -0.000002
 32   -0.814395 -0.093824 3.127092 0.262921 -3.097582 -0.334816
 33   14.298673 -0.408176 0.471578 0.003687 -0.003117 -0.522469
 34   15.835795 0.581398 0.242756 -0.001271 0.032067 0.122292
 35   -0.815868 -0.091229 -3.114430 -0.132889 3.034913 -0.011455
 36   14.294526 -0.410349 -0.467541 -0.002676 0.001869 -0.384764
 37   15.834409 0.579420 -0.284600 -0.034128 0.026558 0.304555
 38   1.139685 -3.453749 -2.823813 0.000000 0.000000 0.000001
 39   -4.457742 -1.054854 -0.746180 0.000000 0.000000 0.000000
 40   1.118101 -3.449769 3.237290 0.000000 0.000001 0.000000
 41   -4.433840 -1.059130 0.959566 -0.000001 0.000000 0.000000
 42   -0.657468 1.697302 -2.688614 0.000000 0.000002 0.000000
 43   -0.664068 1.698578 2.869377 0.000000 0.000002 0.000000
time 22
  0   -0.010486 -0.546892 1.863709 0.000000 0.000000 -1.571354
  1   -1.093036 0.000002 -0.326057 -1.570808 -1.570749 0.000022
  2   2.262337 0.113614 0.064702 -0.010242 -0.042748 -0.077175
  3   2.380047 0.353302 0.047440 -0.017371 0.054178 0.044096
  4   2.033756 0.190472 -0.000128 0.003568 -0.053847 -0.126527
  5   2.451511 0.204909 -0.003447 -0.158930 -0.035020 -0.096672
  6   7.247600 -0.397300 -0.109469 -0.016634 0.002250 0.459335
  7   -2.022252 -0.104661 3.136172 1.822362 -1.010228 -5.463881
  8   1.168026 -0.537438 -0.063437 -1.487869 0.913875 -1.156337
  9   6.790376 -0.619176 0.015206 -0.000102 -0.000085 -1.591535
 10   8.637599 0.544015 -0.090417 -2.893198 0.080114 0.504987
 11   6.790465 -0.619039 0.017802 0.002899 -0.011765 -1.129303
 12   -2.022474 -0.104699 -2.873818 -2.302289 1.868006 -5.925009
 13   1.167898 -0.537463 0.063297 -1.514814 -0.587061 0.451559
 14   7.002743 -0.617765 -0.183752 0.000172 0.000137 -1.972870
 15   8.209042 0.615527 -0.255885 1.210792 0.636914 -1.114291
 16   7.002735 -0.617911 -0.183641 0.012837 0.010977 -1.399734
 17   1.574674 0.609930 -0.000899 0.179750 0.134294 -0.556234
 18   -0.602177 0.511412 -0.000006 0.000000 0.000000 0.000000
 19   3.673773 0.177020 1.119313 -0.000002 -0.000014 -0.174510
 20   3.673767 0.176993 -1.117566 0.000007 -0.000003 -0.174546
 21   3.942357 1.334540 1.627658 0.000002 -0.000011 -0.000026
 22   -0.246060 -0.011889 0.516521 -0.000011 0.000031 0.000025
 23   3.942374 1.334565 -1.631083 0.000019 0.000002 -0.000024
 24   -0.246150 -0.011872 -0.516511 -0.000005 -0.000006 0.000048
 25   4.941364 1.997338 1.629330 0.000018 -0.000001 -0.000024
 26   4.941382 1.997366 -1.629410 -0.000001 0.000005 -0.000024
 27   2.914462 1.619264 1.514501 -0.000019 -0.000022 -0.000050
 28   2.916892 1.618870 -1.501142 -0.000002 -0.000009 -0.000024
 29   8.824059 0.150544 0.091743 0.000006 -0.000231 -0.174534
 30   2.111085 -0.561179 1.784320 -0.000008 -0.000682 0.000024
 31   2.121290 -0.561289 -1.853599 0.000000 0.000000 -0.000002
 32   -0.814395 -0.093824 3.127092 0.262921 -3.097582 -0.334816
 33   14.298673 -0.408176 0.471578 0.003687 -0.003117 -0.522469
 34   15.835795 0.581398 0.242756 -0.001271 0.032067 0.122292
 35   -0.815868 -0.091229 -3.114430 -0.132889 3.034913 -0.011455
 36   14.294526 -0.410349 -0.467541 -0.002676 0.001869 -0.384764
 37   15.834409 0.579420 -0.284600 -0.034128 0.026558 0.304555
 38   1.139685 -3.453749 -2.823813 0.000000 0.000000 0.000001
 39   -4.457742 -1.054854 -0.746180 0.000000 0.000000 0.000000
 40   1.118101 -3.449769 3.237290 0.000000 0.000001 0.000000
 41   -4.433840 -1.059130 0.959566 -0.000001 0.000000 0.000000
 42   -0.657468 1.697302 -2.688614 0.000000 0.000002 0.000000
 43   -0.664068 1.698578 2.869377 0.000000 0.000002 0.000000
end
