version 1
nodes
  0 "Bip01" -1
  1 "Bip01 Pelvis" 0
  2 "Bip01 Spine" 1
  3 "Bip01 Spine1" 2
  4 "Bip01 Spine2" 3
  5 "Bip01 Spine3" 4
  6 "Bip01 Neck" 5
  7 "Bip01 L Arm" 6
  8 "Bip01 L Arm1" 7
  9 "Bip01 L Arm2" 8
 10 "Bip01 L Hand" 9
 11 "Bip06 L elbow2-smooth" 8
 12 "Bip01 R Arm" 6
 13 "Bip01 R Arm1" 12
 14 "Bip01 R Arm2" 13
 15 "Bip01 R Hand" 14
 16 "Bip06 R elbow2-smooth" 13
 17 "Bip01 Head" 6
 18 "Bip06 Head_helper" 17
 19 "Bip06 Head_eyes_l" 18
 20 "Bip06 Head_eyes_r" 18
 21 "Bip06 Head_blink_l" 18
 22 "Bip06 Head_blink_smooth_l1" 21
 23 "Bip06 Head_blink_r" 18
 24 "Bip06 Head_blink_smooth_r1" 23
 25 "Bip06 Head_L_eyebrow" 18
 26 "Bip06 Head_R_eyebrow" 18
 27 "Bip06 Head_blink_l_lid" 18
 28 "Bip06 Head_blink_r_lid" 18
 29 "Bip06 bunny" 18
 30 "Bip06 bunnyL" 29
 31 "Bip06 bunnyR" 29
 32 "Bip01 L Leg" 1
 33 "Bip01 L Leg1" 32
 34 "Bip01 L Foot" 33
 35 "Bip01 R Leg" 1
 36 "Bip01 R Leg1" 35
 37 "Bip01 R Foot" 36
 38 "Bip03 HairR1" 17
 39 "Bip03 HairR2" 38
 40 "Bip03 HairL1" 17
 41 "Bip03 HairL2" 40
 42 "Bip03 swingR" 17
 43 "Bip03 swingL" 17
end
skeleton
time 0
  0   -0.010486 -0.546892 1.863709 0.000000 0.000000 -1.571354
  1   -1.093036 0.000002 -0.326057 -1.570808 -1.570749 0.000022
  2   2.262337 0.113614 0.064702 -0.005988 0.027002 0.052176
  3   2.380047 0.353302 0.047440 -0.013141 -0.052712 0.057543
  4   2.033756 0.190472 -0.000128 -0.046854 -0.011901 0.270559
  5   2.451511 0.204909 -0.003447 -0.083342 0.050168 0.398166
  6   7.247600 -0.397300 -0.109469 -0.016634 0.002250 0.459335
  7   -2.022252 -0.104661 3.136172 1.267440 -0.989530 -4.810599
  8   1.168026 -0.537438 -0.063437 -1.406933 0.598052 -0.995972
  9   6.790376 -0.619176 0.015206 -0.000047 -0.000085 -0.648418
 10   8.637599 0.544015 -0.090417 -2.712313 0.365195 0.639113
 11   6.790465 -0.619039 0.017802 -0.000984 -0.011196 -0.469041
 12   -2.022474 -0.104699 -2.873818 -2.105788 1.952640 -5.738984
 13   1.167898 -0.537463 0.063297 -1.056131 -0.804413 -0.018191
 14   7.002743 -0.617765 -0.183752 0.000172 0.000137 -1.969157
 15   8.209042 0.615527 -0.255885 1.827071 0.700998 0.099580
 16   7.002735 -0.617911 -0.183641 0.012837 0.010920 -1.397085
 17   1.574674 0.609930 -0.000899 0.161470 -0.006240 -0.384440
 18   -0.602177 0.511412 -0.000006 0.000000 0.000000 0.000000
 19   3.673773 0.177020 1.119313 -0.000002 -0.000014 -0.174510
 20   3.673767 0.176993 -1.117566 0.000007 -0.000003 -0.174546
 21   3.942357 1.334540 1.627658 0.000002 -0.000011 -0.000026
 22   -0.246060 -0.011889 0.516521 -0.000011 0.000031 0.000025
 23   3.942374 1.334565 -1.631083 0.000019 0.000002 -0.000024
 24   -0.246150 -0.011872 -0.516511 -0.000005 -0.000006 0.000048
 25   4.941364 1.997338 1.629330 0.000018 -0.000001 -0.000024
 26   4.941382 1.997366 -1.629410 -0.000001 0.000005 -0.000024
 27   2.914462 1.619264 1.514501 -0.000019 -0.000022 -0.000050
 28   2.916892 1.618870 -1.501142 -0.000002 -0.000009 -0.000024
 29   8.824059 0.150544 0.091743 0.000006 -0.000231 -0.174534
 30   2.111085 -0.561179 1.784320 -0.000008 -0.000682 0.000024
 31   2.121290 -0.561289 -1.853599 0.000000 0.000000 -0.000002
 32   -0.814395 -0.093824 3.127092 0.262921 -3.097582 -0.334816
 33   14.298673 -0.408176 0.471578 0.003687 -0.003117 -0.522469
 34   15.835795 0.581398 0.242756 -0.001271 0.032067 0.122292
 35   -0.815868 -0.091229 -3.114430 -0.132889 3.034913 -0.011455
 36   14.294526 -0.410349 -0.467541 -0.002676 0.001869 -0.384764
 37   15.834409 0.579420 -0.284600 -0.034128 0.026558 0.304555
 38   1.139685 -3.453749 -2.823813 0.000000 0.000000 0.000001
 39   -4.457742 -1.054854 -0.746180 0.000000 0.000000 0.000000
 40   1.118101 -3.449769 3.237290 0.000000 0.000001 0.000000
 41   -4.433840 -1.059130 0.959566 -0.000001 0.000000 0.000000
 42   -0.657468 1.697302 -2.688614 0.000000 0.000002 0.000000
 43   -0.664068 1.698578 2.869377 0.000000 0.000002 0.000000
time 1
  0   -0.010486 -0.546892 1.863709 0.000000 0.000000 -1.571354
  1   -1.093036 0.000002 -0.326057 -1.570808 -1.570749 0.000022
  2   2.262337 0.113614 0.064702 -0.005988 0.027002 0.052176
  3   2.380047 0.353302 0.047440 -0.040023 -0.055493 0.057584
  4   2.033756 0.190472 -0.000128 -0.080936 -0.006735 0.270269
  5   2.451511 0.204909 -0.003447 -0.113947 0.050194 0.398166
  6   7.247600 -0.397300 -0.109469 -0.016634 0.002250 0.459335
  7   -2.022252 -0.104661 3.136172 1.267440 -0.989530 -4.810599
  8   1.168026 -0.537438 -0.063437 -1.362067 0.896466 -0.985660
  9   6.790376 -0.619176 0.015206 -0.000102 -0.000085 -1.211707
 10   8.637599 0.544015 -0.090417 -2.691442 0.103554 0.905774
 11   6.790465 -0.619039 0.017802 0.001264 -0.011566 -0.863422
 12   -2.022474 -0.104699 -2.873818 1.194573 1.061344 -2.453341
 13   1.167898 -0.537463 0.063297 -1.237073 -0.606538 -0.023760
 14   7.002743 -0.617765 -0.183752 0.000172 0.000137 -1.954884
 15   8.209042 0.615527 -0.255885 1.728205 0.719156 -0.292034
 16   7.002735 -0.617911 -0.183641 0.012837 0.010807 -1.387040
 17   1.574674 0.609930 -0.000899 0.239788 -0.056295 -0.352173
 18   -0.602177 0.511412 -0.000006 0.000000 0.000000 0.000000
 19   3.673773 0.177020 1.119313 -0.000002 -0.000014 -0.174510
 20   3.673767 0.176993 -1.117566 0.000007 -0.000003 -0.174546
 21   3.942357 1.334540 1.627658 0.000002 -0.000011 -0.000026
 22   -0.246060 -0.011889 0.516521 -0.000011 0.000031 0.000025
 23   3.942374 1.334565 -1.631083 0.000019 0.000002 -0.000024
 24   -0.246150 -0.011872 -0.516511 -0.000005 -0.000006 0.000048
 25   4.941364 1.997338 1.629330 0.000018 -0.000001 -0.000024
 26   4.941382 1.997366 -1.629410 -0.000001 0.000005 -0.000024
 27   2.914462 1.619264 1.514501 -0.000019 -0.000022 -0.000050
 28   2.916892 1.618870 -1.501142 -0.000002 -0.000009 -0.000024
 29   8.824059 0.150544 0.091743 0.000006 -0.000231 -0.174534
 30   2.111085 -0.561179 1.784320 -0.000008 -0.000682 0.000024
 31   2.121290 -0.561289 -1.853599 0.000000 0.000000 -0.000002
 32   -0.814395 -0.093824 3.127092 0.262921 -3.097582 -0.334816
 33   14.298673 -0.408176 0.471578 0.003687 -0.003117 -0.522469
 34   15.835795 0.581398 0.242756 -0.001271 0.032067 0.122292
 35   -0.815868 -0.091229 -3.114430 -0.132889 3.034913 -0.011455
 36   14.294526 -0.410349 -0.467541 -0.002676 0.001869 -0.384764
 37   15.834409 0.579420 -0.284600 -0.034128 0.026558 0.304555
 38   1.139685 -3.453749 -2.823813 0.000000 0.000000 0.000001
 39   -4.457742 -1.054854 -0.746180 0.000000 0.000000 0.000000
 40   1.118101 -3.449769 3.237290 0.000000 0.000001 0.000000
 41   -4.433840 -1.059130 0.959566 -0.000001 0.000000 0.000000
 42   -0.657468 1.697302 -2.688614 0.000000 0.000002 0.000000
 43   -0.664068 1.698578 2.869377 0.000000 0.000002 0.000000
time 2
  0   -0.010486 -0.546892 1.863709 0.000000 0.000000 -1.571354
  1   -1.093036 0.000002 -0.326057 -1.570808 -1.570749 0.000022
  2   2.262337 0.113614 0.064702 -0.005988 0.027002 0.052176
  3   2.380047 0.353302 0.047440 -0.056119 -0.057123 0.057686
  4   2.033756 0.190472 -0.000128 -0.101352 -0.003679 0.269979
  5   2.451511 0.204909 -0.003447 -0.132399 0.050207 0.398166
  6   7.247600 -0.397300 -0.109469 -0.016634 0.002250 0.459335
  7   -2.022252 -0.104661 3.136172 1.267440 -0.989530 -4.810599
  8   1.168026 -0.537438 -0.063437 -1.382317 0.835284 -0.954157
  9   6.790376 -0.619176 0.015206 -0.000102 -0.000085 -1.416978
 10   8.637599 0.544015 -0.090417 -2.583386 0.007542 1.115790
 11   6.790465 -0.619039 0.017802 0.002140 -0.011680 -1.007090
 12   -2.022474 -0.104699 -2.873818 -1.968593 2.057300 -5.613851
 13   1.167898 -0.537463 0.063297 -1.138870 -0.670106 -0.156876
 14   7.002743 -0.617765 -0.183752 0.000172 0.000137 -1.941353
 15   8.209042 0.615527 -0.255885 1.739206 0.757667 -0.361252
 16   7.002735 -0.617911 -0.183641 0.012884 0.010751 -1.377602
 17   1.574674 0.609930 -0.000899 0.287274 -0.080720 -0.357421
 18   -0.602177 0.511412 -0.000006 0.000000 0.000000 0.000000
 19   3.673773 0.177020 1.119313 -0.000002 -0.000014 -0.174510
 20   3.673767 0.176993 -1.117566 0.000007 -0.000003 -0.174546
 21   3.942357 1.334540 1.627658 0.000002 -0.000011 -0.000026
 22   -0.246060 -0.011889 0.516521 -0.000011 0.000031 0.000025
 23   3.942374 1.334565 -1.631083 0.000019 0.000002 -0.000024
 24   -0.246150 -0.011872 -0.516511 -0.000005 -0.000006 0.000048
 25   4.941364 1.997338 1.629330 0.000018 -0.000001 -0.000024
 26   4.941382 1.997366 -1.629410 -0.000001 0.000005 -0.000024
 27   2.914462 1.619264 1.514501 -0.000019 -0.000022 -0.000050
 28   2.916892 1.618870 -1.501142 -0.000002 -0.000009 -0.000024
 29   8.824059 0.150544 0.091743 0.000006 -0.000231 -0.174534
 30   2.111085 -0.561179 1.784320 -0.000008 -0.000682 0.000024
 31   2.121290 -0.561289 -1.853599 0.000000 0.000000 -0.000002
 32   -0.814395 -0.093824 3.127092 0.262921 -3.097582 -0.334816
 33   14.298673 -0.408176 0.471578 0.003687 -0.003117 -0.522469
 34   15.835795 0.581398 0.242756 -0.001271 0.032067 0.122292
 35   -0.815868 -0.091229 -3.114430 -0.132889 3.034913 -0.011455
 36   14.294526 -0.410349 -0.467541 -0.002676 0.001869 -0.384764
 37   15.834409 0.579420 -0.284600 -0.034128 0.026558 0.304555
 38   1.139685 -3.453749 -2.823813 0.000000 0.000000 0.000001
 39   -4.457742 -1.054854 -0.746180 0.000000 0.000000 0.000000
 40   1.118101 -3.449769 3.237290 0.000000 0.000001 0.000000
 41   -4.433840 -1.059130 0.959566 -0.000001 0.000000 0.000000
 42   -0.657468 1.697302 -2.688614 0.000000 0.000002 0.000000
 43   -0.664068 1.698578 2.869377 0.000000 0.000002 0.000000
time 3
  0   -0.010486 -0.546892 1.863709 0.000000 0.000000 -1.571354
  1   -1.093036 0.000002 -0.326057 -1.570808 -1.570749 0.000022
  2   2.262337 0.113614 0.064702 -0.005988 0.027002 0.052176
  3   2.380047 0.353302 0.047440 -0.052594 -0.056703 0.057686
  4   2.033756 0.190472 -0.000128 -0.096852 -0.004506 0.270124
  5   2.451511 0.204909 -0.003447 -0.128171 0.049645 0.398290
  6   7.247600 -0.397300 -0.109469 -0.016634 0.002250 0.459335
  7   -2.022252 -0.104661 3.136172 1.267440 -0.989530 -4.810599
  8   1.168026 -0.537438 -0.063437 -1.422437 0.689272 -0.965354
  9   6.790376 -0.619176 0.015206 -0.000102 -0.000085 -1.402111
 10   8.637599 0.544015 -0.090417 -2.491094 -0.014279 1.230600
 11   6.790465 -0.619039 0.017802 0.002111 -0.011680 -0.996766
 12   -2.022474 -0.104699 -2.873818 -2.016113 2.014722 -5.656360
 13   1.167898 -0.537463 0.063297 -1.015359 -0.755745 -0.236903
 14   7.002743 -0.617765 -0.183752 0.000172 0.000137 -1.934835
 15   8.209042 0.615527 -0.255885 1.786446 0.778625 -0.336836
 16   7.002735 -0.617911 -0.183641 0.012884 0.010751 -1.373021
 17   1.574674 0.609930 -0.000899 0.276794 -0.074259 -0.357236
 18   -0.602177 0.511412 -0.000006 0.000000 0.000000 0.000000
 19   3.673773 0.177020 1.119313 -0.000002 -0.000014 -0.174510
 20   3.673767 0.176993 -1.117566 0.000007 -0.000003 -0.174546
 21   3.942357 1.334540 1.627658 0.000002 -0.000011 -0.000026
 22   -0.246060 -0.011889 0.516521 -0.000011 0.000031 0.000025
 23   3.942374 1.334565 -1.631083 0.000019 0.000002 -0.000024
 24   -0.246150 -0.011872 -0.516511 -0.000005 -0.000006 0.000048
 25   4.941364 1.997338 1.629330 0.000018 -0.000001 -0.000024
 26   4.941382 1.997366 -1.629410 -0.000001 0.000005 -0.000024
 27   2.914462 1.619264 1.514501 -0.000019 -0.000022 -0.000050
 28   2.916892 1.618870 -1.501142 -0.000002 -0.000009 -0.000024
 29   8.824059 0.150544 0.091743 0.000006 -0.000231 -0.174534
 30   2.111085 -0.561179 1.784320 -0.000008 -0.000682 0.000024
 31   2.121290 -0.561289 -1.853599 0.000000 0.000000 -0.000002
 32   -0.814395 -0.093824 3.127092 0.262921 -3.097582 -0.334816
 33   14.298673 -0.408176 0.471578 0.003687 -0.003117 -0.522469
 34   15.835795 0.581398 0.242756 -0.001271 0.032067 0.122292
 35   -0.815868 -0.091229 -3.114430 -0.132889 3.034913 -0.011455
 36   14.294526 -0.410349 -0.467541 -0.002676 0.001869 -0.384764
 37   15.834409 0.579420 -0.284600 -0.034128 0.026558 0.304555
 38   1.139685 -3.453749 -2.823813 0.000000 0.000000 0.000001
 39   -4.457742 -1.054854 -0.746180 0.000000 0.000000 0.000000
 40   1.118101 -3.449769 3.237290 0.000000 0.000001 0.000000
 41   -4.433840 -1.059130 0.959566 -0.000001 0.000000 0.000000
 42   -0.657468 1.697302 -2.688614 0.000000 0.000002 0.000000
 43   -0.664068 1.698578 2.869377 0.000000 0.000002 0.000000
time 4
  0   -0.010486 -0.546892 1.863709 0.000000 0.000000 -1.571354
  1   -1.093036 0.000002 -0.326057 -1.570808 -1.570749 0.000022
  2   2.262337 0.113614 0.064702 -0.005988 0.027002 0.052176
  3   2.380047 0.353302 0.047440 -0.043818 -0.055816 0.057625
  4   2.033756 0.190472 -0.000128 -0.085602 -0.006532 0.270269
  5   2.451511 0.204909 -0.003447 -0.117884 0.048562 0.398587
  6   7.247600 -0.397300 -0.109469 -0.016634 0.002250 0.459335
  7   -2.022252 -0.104661 3.136172 1.267440 -0.989530 -4.810599
  8   1.168026 -0.537438 -0.063437 -1.429461 0.638706 -0.971427
  9   6.790376 -0.619176 0.015206 -0.000102 -0.000085 -1.309890
 10   8.637599 0.544015 -0.090417 -2.482376 -0.004284 1.240656
 11   6.790465 -0.619039 0.017802 0.001702 -0.011623 -0.932112
 12   -2.022474 -0.104699 -2.873818 -2.037574 1.997772 -5.676082
 13   1.167898 -0.537463 0.063297 -0.996027 -0.780308 -0.213900
 14   7.002743 -0.617765 -0.183752 0.000172 0.000137 -1.938053
 15   8.209042 0.615527 -0.255885 1.848570 0.754641 -0.287944
 16   7.002735 -0.617911 -0.183641 0.012884 0.010751 -1.375339
 17   1.574674 0.609930 -0.000899 0.250878 -0.058994 -0.356017
 18   -0.602177 0.511412 -0.000006 0.000000 0.000000 0.000000
 19   3.673773 0.177020 1.119313 -0.000002 -0.000014 -0.174510
 20   3.673767 0.176993 -1.117566 0.000007 -0.000003 -0.174546
 21   3.942357 1.334540 1.627658 0.000002 -0.000011 -0.000026
 22   -0.246060 -0.011889 0.516521 -0.000011 0.000031 0.000025
 23   3.942374 1.334565 -1.631083 0.000019 0.000002 -0.000024
 24   -0.246150 -0.011872 -0.516511 -0.000005 -0.000006 0.000048
 25   4.941364 1.997338 1.629330 0.000018 -0.000001 -0.000024
 26   4.941382 1.997366 -1.629410 -0.000001 0.000005 -0.000024
 27   2.914462 1.619264 1.514501 -0.000019 -0.000022 -0.000050
 28   2.916892 1.618870 -1.501142 -0.000002 -0.000009 -0.000024
 29   8.824059 0.150544 0.091743 0.000006 -0.000231 -0.174534
 30   2.111085 -0.561179 1.784320 -0.000008 -0.000682 0.000024
 31   2.121290 -0.561289 -1.853599 0.000000 0.000000 -0.000002
 32   -0.814395 -0.093824 3.127092 0.262921 -3.097582 -0.334816
 33   14.298673 -0.408176 0.471578 0.003687 -0.003117 -0.522469
 34   15.835795 0.581398 0.242756 -0.001271 0.032067 0.122292
 35   -0.815868 -0.091229 -3.114430 -0.132889 3.034913 -0.011455
 36   14.294526 -0.410349 -0.467541 -0.002676 0.001869 -0.384764
 37   15.834409 0.579420 -0.284600 -0.034128 0.026558 0.304555
 38   1.139685 -3.453749 -2.823813 0.000000 0.000000 0.000001
 39   -4.457742 -1.054854 -0.746180 0.000000 0.000000 0.000000
 40   1.118101 -3.449769 3.237290 0.000000 0.000001 0.000000
 41   -4.433840 -1.059130 0.959566 -0.000001 0.000000 0.000000
 42   -0.657468 1.697302 -2.688614 0.000000 0.000002 0.000000
 43   -0.664068 1.698578 2.869377 0.000000 0.000002 0.000000
time 5
  0   -0.010486 -0.546892 1.863709 0.000000 0.000000 -1.571354
  1   -1.093036 0.000002 -0.326057 -1.570808 -1.570749 0.000022
  2   2.262337 0.113614 0.064702 -0.005988 0.027002 0.052176
  3   2.380047 0.353302 0.047440 -0.032432 -0.054738 0.057584
  4   2.033756 0.190472 -0.000128 -0.071161 -0.008880 0.270559
  5   2.451511 0.204909 -0.003447 -0.104721 0.047713 0.398785
  6   7.247600 -0.397300 -0.109469 -0.016634 0.002250 0.459335
  7   -2.022252 -0.104661 3.136172 1.267440 -0.989530 -4.810599
  8   1.168026 -0.537438 -0.063437 -1.427879 0.603486 -0.976740
  9   6.790376 -0.619176 0.015206 -0.000102 -0.000085 -1.185067
 10   8.637599 0.544015 -0.090417 -2.491183 0.019931 1.222208
 11   6.790465 -0.619039 0.017802 0.001147 -0.011566 -0.844735
 12   -2.022474 -0.104699 -2.873818 -2.057597 1.983376 -5.694752
 13   1.167898 -0.537463 0.063297 -0.998839 -0.797293 -0.162385
 14   7.002743 -0.617765 -0.183752 0.000172 0.000137 -1.944488
 15   8.209042 0.615527 -0.255885 1.915368 0.716357 -0.226785
 16   7.002735 -0.617911 -0.183641 0.012884 0.010751 -1.379865
 17   1.574674 0.609930 -0.000899 0.217487 -0.040060 -0.355240
 18   -0.602177 0.511412 -0.000006 0.000000 0.000000 0.000000
 19   3.673773 0.177020 1.119313 -0.000002 -0.000014 -0.174510
 20   3.673767 0.176993 -1.117566 0.000007 -0.000003 -0.174546
 21   3.942357 1.334540 1.627658 0.000002 -0.000011 -0.000026
 22   -0.246060 -0.011889 0.516521 -0.000011 0.000031 0.000025
 23   3.942374 1.334565 -1.631083 0.000019 0.000002 -0.000024
 24   -0.246150 -0.011872 -0.516511 -0.000005 -0.000006 0.000048
 25   4.941364 1.997338 1.629330 0.000018 -0.000001 -0.000024
 26   4.941382 1.997366 -1.629410 -0.000001 0.000005 -0.000024
 27   2.914462 1.619264 1.514501 -0.000019 -0.000022 -0.000050
 28   2.916892 1.618870 -1.501142 -0.000002 -0.000009 -0.000024
 29   8.824059 0.150544 0.091743 0.000006 -0.000231 -0.174534
 30   2.111085 -0.561179 1.784320 -0.000008 -0.000682 0.000024
 31   2.121290 -0.561289 -1.853599 0.000000 0.000000 -0.000002
 32   -0.814395 -0.093824 3.127092 0.262921 -3.097582 -0.334816
 33   14.298673 -0.408176 0.471578 0.003687 -0.003117 -0.522469
 34   15.835795 0.581398 0.242756 -0.001271 0.032067 0.122292
 35   -0.815868 -0.091229 -3.114430 -0.132889 3.034913 -0.011455
 36   14.294526 -0.410349 -0.467541 -0.002676 0.001869 -0.384764
 37   15.834409 0.579420 -0.284600 -0.034128 0.026558 0.304555
 38   1.139685 -3.453749 -2.823813 0.000000 0.000000 0.000001
 39   -4.457742 -1.054854 -0.746180 0.000000 0.000000 0.000000
 40   1.118101 -3.449769 3.237290 0.000000 0.000001 0.000000
 41   -4.433840 -1.059130 0.959566 -0.000001 0.000000 0.000000
 42   -0.657468 1.697302 -2.688614 0.000000 0.000002 0.000000
 43   -0.664068 1.698578 2.869377 0.000000 0.000002 0.000000
time 6
  0   -0.010486 -0.546892 1.863709 0.000000 0.000000 -1.571354
  1   -1.093036 0.000002 -0.326057 -1.570808 -1.570749 0.000022
  2   2.262337 0.113614 0.064702 -0.005988 0.027002 0.052176
  3   2.380047 0.353302 0.047440 -0.021301 -0.053551 0.057543
  4   2.033756 0.190472 -0.000128 -0.057071 -0.010966 0.270667
  5   2.451511 0.204909 -0.003447 -0.092123 0.047935 0.398686
  6   7.247600 -0.397300 -0.109469 -0.016634 0.002250 0.459335
  7   -2.022252 -0.104661 3.136172 1.267440 -0.989530 -4.810599
  8   1.168026 -0.537438 -0.063437 -1.420412 0.583410 -0.980410
  9   6.790376 -0.619176 0.015206 -0.000102 -0.000085 -1.058810
 10   8.637599 0.544015 -0.090417 -2.509852 0.049424 1.194066
 11   6.790465 -0.619039 0.017802 0.000651 -0.011452 -0.756319
 12   -2.022474 -0.104699 -2.873818 -2.075801 1.971157 -5.711219
 13   1.167898 -0.537463 0.063297 -1.016343 -0.806752 -0.099368
 14   7.002743 -0.617765 -0.183752 0.000172 0.000137 -1.952326
 15   8.209042 0.615527 -0.255885 1.977348 0.669448 -0.166407
 16   7.002735 -0.617911 -0.183641 0.012884 0.010807 -1.385274
 17   1.574674 0.609930 -0.000899 0.184909 -0.022878 -0.355462
 18   -0.602177 0.511412 -0.000006 0.000000 0.000000 0.000000
 19   3.673773 0.177020 1.119313 -0.000002 -0.000014 -0.174510
 20   3.673767 0.176993 -1.117566 0.000007 -0.000003 -0.174546
 21   3.942357 1.334540 1.627658 0.000002 -0.000011 -0.000026
 22   -0.246060 -0.011889 0.516521 -0.000011 0.000031 0.000025
 23   3.942374 1.334565 -1.631083 0.000019 0.000002 -0.000024
 24   -0.246150 -0.011872 -0.516511 -0.000005 -0.000006 0.000048
 25   4.941364 1.997338 1.629330 0.000018 -0.000001 -0.000024
 26   4.941382 1.997366 -1.629410 -0.000001 0.000005 -0.000024
 27   2.914462 1.619264 1.514501 -0.000019 -0.000022 -0.000050
 28   2.916892 1.618870 -1.501142 -0.000002 -0.000009 -0.000024
 29   8.824059 0.150544 0.091743 0.000006 -0.000231 -0.174534
 30   2.111085 -0.561179 1.784320 -0.000008 -0.000682 0.000024
 31   2.121290 -0.561289 -1.853599 0.000000 0.000000 -0.000002
 32   -0.814395 -0.093824 3.127092 0.262921 -3.097582 -0.334816
 33   14.298673 -0.408176 0.471578 0.003687 -0.003117 -0.522469
 34   15.835795 0.581398 0.242756 -0.001271 0.032067 0.122292
 35   -0.815868 -0.091229 -3.114430 -0.132889 3.034913 -0.011455
 36   14.294526 -0.410349 -0.467541 -0.002676 0.001869 -0.384764
 37   15.834409 0.579420 -0.284600 -0.034128 0.026558 0.304555
 38   1.139685 -3.453749 -2.823813 0.000000 0.000000 0.000001
 39   -4.457742 -1.054854 -0.746180 0.000000 0.000000 0.000000
 40   1.118101 -3.449769 3.237290 0.000000 0.000001 0.000000
 41   -4.433840 -1.059130 0.959566 -0.000001 0.000000 0.000000
 42   -0.657468 1.697302 -2.688614 0.000000 0.000002 0.000000
 43   -0.664068 1.698578 2.869377 0.000000 0.000002 0.000000
time 7
  0   -0.010486 -0.546892 1.863709 0.000000 0.000000 -1.571354
  1   -1.093036 0.000002 -0.326057 -1.570808 -1.570749 0.000022
  2   2.262337 0.113614 0.064702 -0.005988 0.027002 0.052176
  3   2.380047 0.353302 0.047440 -0.013141 -0.052712 0.057543
  4   2.033756 0.190472 -0.000128 -0.046854 -0.011901 0.270559
  5   2.451511 0.204909 -0.003447 -0.083342 0.050168 0.398166
  6   7.247600 -0.397300 -0.109469 -0.016634 0.002250 0.459335
  7   -2.022252 -0.104661 3.136172 1.267440 -0.989530 -4.810599
  8   1.168026 -0.537438 -0.063437 -1.409844 0.582807 -0.978449
  9   6.790376 -0.619176 0.015206 -0.000102 -0.000085 -0.967721
 10   8.637599 0.544015 -0.090417 -2.531516 0.074483 1.174171
 11   6.790465 -0.619039 0.017802 0.000271 -0.011395 -0.692646
 12   -2.022474 -0.104699 -2.873818 -2.091609 1.960999 -5.726059
 13   1.167898 -0.537463 0.063297 -1.038205 -0.807922 -0.043192
 14   7.002743 -0.617765 -0.183752 0.000172 0.000137 -1.960742
 15   8.209042 0.615527 -0.255885 2.028184 0.621480 -0.116553
 16   7.002735 -0.617911 -0.183641 0.012837 0.010864 -1.391235
 17   1.574674 0.609930 -0.000899 0.161104 -0.012772 -0.356756
 18   -0.602177 0.511412 -0.000006 0.000000 0.000000 0.000000
 19   3.673773 0.177020 1.119313 -0.000002 -0.000014 -0.174510
 20   3.673767 0.176993 -1.117566 0.000007 -0.000003 -0.174546
 21   3.942357 1.334540 1.627658 0.000002 -0.000011 -0.000026
 22   -0.246060 -0.011889 0.516521 -0.000011 0.000031 0.000025
 23   3.942374 1.334565 -1.631083 0.000019 0.000002 -0.000024
 24   -0.246150 -0.011872 -0.516511 -0.000005 -0.000006 0.000048
 25   4.941364 1.997338 1.629330 0.000018 -0.000001 -0.000024
 26   4.941382 1.997366 -1.629410 -0.000001 0.000005 -0.000024
 27   2.914462 1.619264 1.514501 -0.000019 -0.000022 -0.000050
 28   2.916892 1.618870 -1.501142 -0.000002 -0.000009 -0.000024
 29   8.824059 0.150544 0.091743 0.000006 -0.000231 -0.174534
 30   2.111085 -0.561179 1.784320 -0.000008 -0.000682 0.000024
 31   2.121290 -0.561289 -1.853599 0.000000 0.000000 -0.000002
 32   -0.814395 -0.093824 3.127092 0.262921 -3.097582 -0.334816
 33   14.298673 -0.408176 0.471578 0.003687 -0.003117 -0.522469
 34   15.835795 0.581398 0.242756 -0.001271 0.032067 0.122292
 35   -0.815868 -0.091229 -3.114430 -0.132889 3.034913 -0.011455
 36   14.294526 -0.410349 -0.467541 -0.002676 0.001869 -0.384764
 37   15.834409 0.579420 -0.284600 -0.034128 0.026558 0.304555
 38   1.139685 -3.453749 -2.823813 0.000000 0.000000 0.000001
 39   -4.457742 -1.054854 -0.746180 0.000000 0.000000 0.000000
 40   1.118101 -3.449769 3.237290 0.000000 0.000001 0.000000
 41   -4.433840 -1.059130 0.959566 -0.000001 0.000000 0.000000
 42   -0.657468 1.697302 -2.688614 0.000000 0.000002 0.000000
 43   -0.664068 1.698578 2.869377 0.000000 0.000002 0.000000
time 8
  0   -0.010486 -0.546892 1.863709 0.000000 0.000000 -1.571354
  1   -1.093036 0.000002 -0.326057 -1.570808 -1.570749 0.000022
  2   2.262337 0.113614 0.064702 -0.005988 0.027002 0.052176
  3   2.380047 0.353302 0.047440 -0.009556 -0.052413 0.057543
  4   2.033756 0.190472 -0.000128 -0.043184 -0.010091 0.270124
  5   2.451511 0.204909 -0.003447 -0.081836 0.058980 0.396185
  6   7.247600 -0.397300 -0.109469 -0.016634 0.002250 0.459335
  7   -2.022252 -0.104661 3.136172 1.267440 -0.989530 -4.810599
  8   1.168026 -0.537438 -0.063437 -1.403326 0.608567 -0.969719
  9   6.790376 -0.619176 0.015206 -0.000102 -0.000085 -0.942665
 10   8.637599 0.544015 -0.090417 -2.550978 0.085675 1.172652
 11   6.790465 -0.619039 0.017802 0.000184 -0.011395 -0.674998
 12   -2.022474 -0.104699 -2.873818 -2.105788 1.952640 -5.738984
 13   1.167898 -0.537463 0.063297 -1.052335 -0.797293 -0.012501
 14   7.002743 -0.617765 -0.183752 0.000172 0.000137 -1.969157
 15   8.209042 0.615527 -0.255885 2.063776 0.582061 -0.084139
 16   7.002735 -0.617911 -0.183641 0.012837 0.010920 -1.397085
 17   1.574674 0.609930 -0.000899 0.151680 -0.018476 -0.358160
 18   -0.602177 0.511412 -0.000006 0.000000 0.000000 0.000000
 19   3.673773 0.177020 1.119313 -0.000002 -0.000014 -0.174510
 20   3.673767 0.176993 -1.117566 0.000007 -0.000003 -0.174546
 21   3.942357 1.334540 1.627658 0.000002 -0.000011 -0.000026
 22   -0.246060 -0.011889 0.516521 -0.000011 0.000031 0.000025
 23   3.942374 1.334565 -1.631083 0.000019 0.000002 -0.000024
 24   -0.246150 -0.011872 -0.516511 -0.000005 -0.000006 0.000048
 25   4.941364 1.997338 1.629330 0.000018 -0.000001 -0.000024
 26   4.941382 1.997366 -1.629410 -0.000001 0.000005 -0.000024
 27   2.914462 1.619264 1.514501 -0.000019 -0.000022 -0.000050
 28   2.916892 1.618870 -1.501142 -0.000002 -0.000009 -0.000024
 29   8.824059 0.150544 0.091743 0.000006 -0.000231 -0.174534
 30   2.111085 -0.561179 1.784320 -0.000008 -0.000682 0.000024
 31   2.121290 -0.561289 -1.853599 0.000000 0.000000 -0.000002
 32   -0.814395 -0.093824 3.127092 0.262921 -3.097582 -0.334816
 33   14.298673 -0.408176 0.471578 0.003687 -0.003117 -0.522469
 34   15.835795 0.581398 0.242756 -0.001271 0.032067 0.122292
 35   -0.815868 -0.091229 -3.114430 -0.132889 3.034913 -0.011455
 36   14.294526 -0.410349 -0.467541 -0.002676 0.001869 -0.384764
 37   15.834409 0.579420 -0.284600 -0.034128 0.026558 0.304555
 38   1.139685 -3.453749 -2.823813 0.000000 0.000000 0.000001
 39   -4.457742 -1.054854 -0.746180 0.000000 0.000000 0.000000
 40   1.118101 -3.449769 3.237290 0.000000 0.000001 0.000000
 41   -4.433840 -1.059130 0.959566 -0.000001 0.000000 0.000000
 42   -0.657468 1.697302 -2.688614 0.000000 0.000002 0.000000
 43   -0.664068 1.698578 2.869377 0.000000 0.000002 0.000000
time 9
  0   -0.010486 -0.546892 1.863709 0.000000 0.000000 -1.571354
  1   -1.093036 0.000002 -0.326057 -1.570808 -1.570749 0.000022
  2   2.262337 0.113614 0.064702 -0.005988 0.027002 0.052176
  3   2.380047 0.353302 0.047440 -0.009016 -0.052365 0.057543
  4   2.033756 0.190472 -0.000128 -0.043811 -0.006567 0.269399
  5   2.451511 0.204909 -0.003447 -0.084814 0.071722 0.393337
  6   7.247600 -0.397300 -0.109469 -0.016634 0.002250 0.459335
  7   -2.022252 -0.104661 3.136172 1.267440 -0.989530 -4.810599
  8   1.168026 -0.537438 -0.063437 -1.400985 0.651033 -0.962886
  9   6.790376 -0.619176 0.015206 -0.000102 -0.000085 -0.988701
 10   8.637599 0.544015 -0.090417 -2.562691 0.076454 1.196815
 11   6.790465 -0.619039 0.017802 0.000359 -0.011452 -0.707411
 12   -2.022474 -0.104699 -2.873818 -2.111537 1.949302 -5.744633
 13   1.167898 -0.537463 0.063297 -1.060630 -0.775731 -0.001665
 14   7.002743 -0.617765 -0.183752 0.000172 0.000137 -1.980543
 15   8.209042 0.615527 -0.255885 2.078660 0.559590 -0.080110
 16   7.002735 -0.617911 -0.183641 0.012790 0.011033 -1.405033
 17   1.574674 0.609930 -0.000899 0.151680 -0.033954 -0.359454
 18   -0.602177 0.511412 -0.000006 0.000000 0.000000 0.000000
 19   3.673773 0.177020 1.119313 -0.000002 -0.000014 -0.174510
 20   3.673767 0.176993 -1.117566 0.000007 -0.000003 -0.174546
 21   3.942357 1.334540 1.627658 0.000002 -0.000011 -0.000026
 22   -0.246060 -0.011889 0.516521 -0.000011 0.000031 0.000025
 23   3.942374 1.334565 -1.631083 0.000019 0.000002 -0.000024
 24   -0.246150 -0.011872 -0.516511 -0.000005 -0.000006 0.000048
 25   4.941364 1.997338 1.629330 0.000018 -0.000001 -0.000024
 26   4.941382 1.997366 -1.629410 -0.000001 0.000005 -0.000024
 27   2.914462 1.619264 1.514501 -0.000019 -0.000022 -0.000050
 28   2.916892 1.618870 -1.501142 -0.000002 -0.000009 -0.000024
 29   8.824059 0.150544 0.091743 0.000006 -0.000231 -0.174534
 30   2.111085 -0.561179 1.784320 -0.000008 -0.000682 0.000024
 31   2.121290 -0.561289 -1.853599 0.000000 0.000000 -0.000002
 32   -0.814395 -0.093824 3.127092 0.262921 -3.097582 -0.334816
 33   14.298673 -0.408176 0.471578 0.003687 -0.003117 -0.522469
 34   15.835795 0.581398 0.242756 -0.001271 0.032067 0.122292
 35   -0.815868 -0.091229 -3.114430 -0.132889 3.034913 -0.011455
 36   14.294526 -0.410349 -0.467541 -0.002676 0.001869 -0.384764
 37   15.834409 0.579420 -0.284600 -0.034128 0.026558 0.304555
 38   1.139685 -3.453749 -2.823813 0.000000 0.000000 0.000001
 39   -4.457742 -1.054854 -0.746180 0.000000 0.000000 0.000000
 40   1.118101 -3.449769 3.237290 0.000000 0.000001 0.000000
 41   -4.433840 -1.059130 0.959566 -0.000001 0.000000 0.000000
 42   -0.657468 1.697302 -2.688614 0.000000 0.000002 0.000000
 43   -0.664068 1.698578 2.869377 0.000000 0.000002 0.000000
time 10
  0   -0.010486 -0.546892 1.863709 0.000000 0.000000 -1.571354
  1   -1.093036 0.000002 -0.326057 -1.570808 -1.570749 0.000022
  2   2.262337 0.113614 0.064702 -0.005988 0.027002 0.052176
  3   2.380047 0.353302 0.047440 -0.009346 -0.052389 0.057543
  4   2.033756 0.190472 -0.000128 -0.044825 -0.004734 0.269073
  5   2.451511 0.204909 -0.003447 -0.087142 0.078159 0.391851
  6   7.247600 -0.397300 -0.109469 -0.016634 0.002250 0.459335
  7   -2.022252 -0.104661 3.136172 1.267440 -0.989530 -4.810599
  8   1.168026 -0.537438 -0.063437 -1.390037 0.696970 -0.957066
  9   6.790376 -0.619176 0.015206 -0.000102 -0.000085 -1.077224
 10   8.637599 0.544015 -0.090417 -2.570441 0.059701 1.237762
 11   6.790465 -0.619039 0.017802 0.000709 -0.011481 -0.769239
 12   -2.022474 -0.104699 -2.873818 -2.108567 1.950869 -5.741665
 13   1.167898 -0.537463 0.063297 -1.069979 -0.758135 0.005115
 14   7.002743 -0.617765 -0.183752 0.000172 0.000137 -1.993084
 15   8.209042 0.615527 -0.255885 2.073626 0.550890 -0.096828
 16   7.002735 -0.617911 -0.183641 0.012790 0.011089 -1.413753
 17   1.574674 0.609930 -0.000899 0.153630 -0.042403 -0.362041
 18   -0.602177 0.511412 -0.000006 0.000000 0.000000 0.000000
 19   3.673773 0.177020 1.119313 -0.000002 -0.000014 -0.174510
 20   3.673767 0.176993 -1.117566 0.000007 -0.000003 -0.174546
 21   3.942357 1.334540 1.627658 0.000002 -0.000011 -0.000026
 22   -0.246060 -0.011889 0.516521 -0.000011 0.000031 0.000025
 23   3.942374 1.334565 -1.631083 0.000019 0.000002 -0.000024
 24   -0.246150 -0.011872 -0.516511 -0.000005 -0.000006 0.000048
 25   4.941364 1.997338 1.629330 0.000018 -0.000001 -0.000024
 26   4.941382 1.997366 -1.629410 -0.000001 0.000005 -0.000024
 27   2.914462 1.619264 1.514501 -0.000019 -0.000022 -0.000050
 28   2.916892 1.618870 -1.501142 -0.000002 -0.000009 -0.000024
 29   8.824059 0.150544 0.091743 0.000006 -0.000231 -0.174534
 30   2.111085 -0.561179 1.784320 -0.000008 -0.000682 0.000024
 31   2.121290 -0.561289 -1.853599 0.000000 0.000000 -0.000002
 32   -0.814395 -0.093824 3.127092 0.262921 -3.097582 -0.334816
 33   14.298673 -0.408176 0.471578 0.003687 -0.003117 -0.522469
 34   15.835795 0.581398 0.242756 -0.001271 0.032067 0.122292
 35   -0.815868 -0.091229 -3.114430 -0.132889 3.034913 -0.011455
 36   14.294526 -0.410349 -0.467541 -0.002676 0.001869 -0.384764
 37   15.834409 0.579420 -0.284600 -0.034128 0.026558 0.304555
 38   1.139685 -3.453749 -2.823813 0.000000 0.000000 0.000001
 39   -4.457742 -1.054854 -0.746180 0.000000 0.000000 0.000000
 40   1.118101 -3.449769 3.237290 0.000000 0.000001 0.000000
 41   -4.433840 -1.059130 0.959566 -0.000001 0.000000 0.000000
 42   -0.657468 1.697302 -2.688614 0.000000 0.000002 0.000000
 43   -0.664068 1.698578 2.869377 0.000000 0.000002 0.000000
time 11
  0   -0.010486 -0.546892 1.863709 0.000000 0.000000 -1.571354
  1   -1.093036 0.000002 -0.326057 -1.570808 -1.570749 0.000022
  2   2.262337 0.113614 0.064702 -0.005988 0.027002 0.052176
  3   2.380047 0.353302 0.047440 -0.009511 -0.052413 0.057543
  4   2.033756 0.190472 -0.000128 -0.044991 -0.005045 0.269109
  5   2.451511 0.204909 -0.003447 -0.086868 0.076723 0.392099
  6   7.247600 -0.397300 -0.109469 -0.016634 0.002250 0.459335
  7   -2.022252 -0.104661 3.136172 1.267440 -0.989530 -4.810599
  8   1.168026 -0.537438 -0.063437 -1.311063 0.861196 -0.949285
  9   6.790376 -0.619176 0.015206 -0.000102 -0.000085 -1.307475
 10   8.637599 0.544015 -0.090417 -2.583562 0.065966 1.286233
 11   6.790465 -0.619039 0.017802 0.001702 -0.011623 -0.930382
 12   -2.022474 -0.104699 -2.873818 -2.105788 1.952640 -5.738984
 13   1.167898 -0.537463 0.063297 -1.075673 -0.755287 0.009413
 14   7.002743 -0.617765 -0.183752 0.000059 0.000137 -1.998694
 15   8.209042 0.615527 -0.255885 2.053997 0.545972 -0.112524
 16   7.002735 -0.617911 -0.183641 0.012790 0.011146 -1.417782
 17   1.574674 0.609930 -0.000899 0.154158 -0.039989 -0.365442
 18   -0.602177 0.511412 -0.000006 0.000000 0.000000 0.000000
 19   3.673773 0.177020 1.119313 -0.000002 -0.000014 -0.174510
 20   3.673767 0.176993 -1.117566 0.000007 -0.000003 -0.174546
 21   3.942357 1.334540 1.627658 0.000002 -0.000011 -0.000026
 22   -0.246060 -0.011889 0.516521 -0.000011 0.000031 0.000025
 23   3.942374 1.334565 -1.631083 0.000019 0.000002 -0.000024
 24   -0.246150 -0.011872 -0.516511 -0.000005 -0.000006 0.000048
 25   4.941364 1.997338 1.629330 0.000018 -0.000001 -0.000024
 26   4.941382 1.997366 -1.629410 -0.000001 0.000005 -0.000024
 27   2.914462 1.619264 1.514501 -0.000019 -0.000022 -0.000050
 28   2.916892 1.618870 -1.501142 -0.000002 -0.000009 -0.000024
 29   8.824059 0.150544 0.091743 0.000006 -0.000231 -0.174534
 30   2.111085 -0.561179 1.784320 -0.000008 -0.000682 0.000024
 31   2.121290 -0.561289 -1.853599 0.000000 0.000000 -0.000002
 32   -0.814395 -0.093824 3.127092 0.262921 -3.097582 -0.334816
 33   14.298673 -0.408176 0.471578 0.003687 -0.003117 -0.522469
 34   15.835795 0.581398 0.242756 -0.001271 0.032067 0.122292
 35   -0.815868 -0.091229 -3.114430 -0.132889 3.034913 -0.011455
 36   14.294526 -0.410349 -0.467541 -0.002676 0.001869 -0.384764
 37   15.834409 0.579420 -0.284600 -0.034128 0.026558 0.304555
 38   1.139685 -3.453749 -2.823813 0.000000 0.000000 0.000001
 39   -4.457742 -1.054854 -0.746180 0.000000 0.000000 0.000000
 40   1.118101 -3.449769 3.237290 0.000000 0.000001 0.000000
 41   -4.433840 -1.059130 0.959566 -0.000001 0.000000 0.000000
 42   -0.657468 1.697302 -2.688614 0.000000 0.000002 0.000000
 43   -0.664068 1.698578 2.869377 0.000000 0.000002 0.000000
time 12
  0   -0.010486 -0.546892 1.863709 0.000000 0.000000 -1.571354
  1   -1.093036 0.000002 -0.326057 -1.570808 -1.570749 0.000022
  2   2.262337 0.113614 0.064702 -0.005988 0.027002 0.052176
  3   2.380047 0.353302 0.047440 -0.010051 -0.052461 0.057543
  4   2.033756 0.190472 -0.000128 -0.045268 -0.006016 0.269254
  5   2.451511 0.204909 -0.003447 -0.086406 0.072976 0.393015
  6   7.247600 -0.397300 -0.109469 -0.016634 0.002250 0.459335
  7   -2.022252 -0.104661 3.136172 1.267440 -0.989530 -4.810599
  8   1.168026 -0.537438 -0.063437 -1.223356 1.008466 -0.922020
  9   6.790376 -0.619176 0.015206 -0.000102 -0.000085 -1.463995
 10   8.637599 0.544015 -0.090417 -2.597565 0.062798 1.247818
 11   6.790465 -0.619039 0.017802 0.002344 -0.011708 -1.040022
 12   -2.022474 -0.104699 -2.873818 -2.105788 1.952640 -5.738984
 13   1.167898 -0.537463 0.063297 -1.064777 -0.767899 -0.003360
 14   7.002743 -0.617765 -0.183752 0.000059 0.000137 -1.986071
 15   8.209042 0.615527 -0.255885 2.001580 0.537044 -0.131708
 16   7.002735 -0.617911 -0.183641 0.012790 0.011033 -1.408896
 17   1.574674 0.609930 -0.000899 0.155296 -0.035019 -0.369138
 18   -0.602177 0.511412 -0.000006 0.000000 0.000000 0.000000
 19   3.673773 0.177020 1.119313 -0.000002 -0.000014 -0.174510
 20   3.673767 0.176993 -1.117566 0.000007 -0.000003 -0.174546
 21   3.942357 1.334540 1.627658 0.000002 -0.000011 -0.000026
 22   -0.246060 -0.011889 0.516521 -0.000011 0.000031 0.000025
 23   3.942374 1.334565 -1.631083 0.000019 0.000002 -0.000024
 24   -0.246150 -0.011872 -0.516511 -0.000005 -0.000006 0.000048
 25   4.941364 1.997338 1.629330 0.000018 -0.000001 -0.000024
 26   4.941382 1.997366 -1.629410 -0.000001 0.000005 -0.000024
 27   2.914462 1.619264 1.514501 -0.000019 -0.000022 -0.000050
 28   2.916892 1.618870 -1.501142 -0.000002 -0.000009 -0.000024
 29   8.824059 0.150544 0.091743 0.000006 -0.000231 -0.174534
 30   2.111085 -0.561179 1.784320 -0.000008 -0.000682 0.000024
 31   2.121290 -0.561289 -1.853599 0.000000 0.000000 -0.000002
 32   -0.814395 -0.093824 3.127092 0.262921 -3.097582 -0.334816
 33   14.298673 -0.408176 0.471578 0.003687 -0.003117 -0.522469
 34   15.835795 0.581398 0.242756 -0.001271 0.032067 0.122292
 35   -0.815868 -0.091229 -3.114430 -0.132889 3.034913 -0.011455
 36   14.294526 -0.410349 -0.467541 -0.002676 0.001869 -0.384764
 37   15.834409 0.579420 -0.284600 -0.034128 0.026558 0.304555
 38   1.139685 -3.453749 -2.823813 0.000000 0.000000 0.000001
 39   -4.457742 -1.054854 -0.746180 0.000000 0.000000 0.000000
 40   1.118101 -3.449769 3.237290 0.000000 0.000001 0.000000
 41   -4.433840 -1.059130 0.959566 -0.000001 0.000000 0.000000
 42   -0.657468 1.697302 -2.688614 0.000000 0.000002 0.000000
 43   -0.664068 1.698578 2.869377 0.000000 0.000002 0.000000
time 13
  0   -0.010486 -0.546892 1.863709 0.000000 0.000000 -1.571354
  1   -1.093036 0.000002 -0.326057 -1.570808 -1.570749 0.000022
  2   2.262337 0.113614 0.064702 -0.005988 0.027002 0.052176
  3   2.380047 0.353302 0.047440 -0.010771 -0.052497 0.057543
  4   2.033756 0.190472 -0.000128 -0.045618 -0.007370 0.269689
  5   2.451511 0.204909 -0.003447 -0.085687 0.067714 0.394179
  6   7.247600 -0.397300 -0.109469 -0.016634 0.002250 0.459335
  7   -2.022252 -0.104661 3.136172 1.267440 -0.989530 -4.810599
  8   1.168026 -0.537438 -0.063437 -1.258098 0.881372 -0.866414
  9   6.790376 -0.619176 0.015206 -0.000102 -0.000085 -1.355472
 10   8.637599 0.544015 -0.090417 -2.619581 0.112705 1.181912
 11   6.790465 -0.619039 0.017802 0.001877 -0.011623 -0.964180
 12   -2.022474 -0.104699 -2.873818 -2.105788 1.952640 -5.739080
 13   1.167898 -0.537463 0.063297 -1.050015 -0.784478 -0.020431
 14   7.002743 -0.617765 -0.183752 0.000172 0.000137 -1.969157
 15   8.209042 0.615527 -0.255885 1.937442 0.548998 -0.125513
 16   7.002735 -0.617911 -0.183641 0.012837 0.010920 -1.397085
 17   1.574674 0.609930 -0.000899 0.156799 -0.028203 -0.373277
 18   -0.602177 0.511412 -0.000006 0.000000 0.000000 0.000000
 19   3.673773 0.177020 1.119313 -0.000002 -0.000014 -0.174510
 20   3.673767 0.176993 -1.117566 0.000007 -0.000003 -0.174546
 21   3.942357 1.334540 1.627658 0.000002 -0.000011 -0.000026
 22   -0.246060 -0.011889 0.516521 -0.000011 0.000031 0.000025
 23   3.942374 1.334565 -1.631083 0.000019 0.000002 -0.000024
 24   -0.246150 -0.011872 -0.516511 -0.000005 -0.000006 0.000048
 25   4.941364 1.997338 1.629330 0.000018 -0.000001 -0.000024
 26   4.941382 1.997366 -1.629410 -0.000001 0.000005 -0.000024
 27   2.914462 1.619264 1.514501 -0.000019 -0.000022 -0.000050
 28   2.916892 1.618870 -1.501142 -0.000002 -0.000009 -0.000024
 29   8.824059 0.150544 0.091743 0.000006 -0.000231 -0.174534
 30   2.111085 -0.561179 1.784320 -0.000008 -0.000682 0.000024
 31   2.121290 -0.561289 -1.853599 0.000000 0.000000 -0.000002
 32   -0.814395 -0.093824 3.127092 0.262921 -3.097582 -0.334816
 33   14.298673 -0.408176 0.471578 0.003687 -0.003117 -0.522469
 34   15.835795 0.581398 0.242756 -0.001271 0.032067 0.122292
 35   -0.815868 -0.091229 -3.114430 -0.132889 3.034913 -0.011455
 36   14.294526 -0.410349 -0.467541 -0.002676 0.001869 -0.384764
 37   15.834409 0.579420 -0.284600 -0.034128 0.026558 0.304555
 38   1.139685 -3.453749 -2.823813 0.000000 0.000000 0.000001
 39   -4.457742 -1.054854 -0.746180 0.000000 0.000000 0.000000
 40   1.118101 -3.449769 3.237290 0.000000 0.000001 0.000000
 41   -4.433840 -1.059130 0.959566 -0.000001 0.000000 0.000000
 42   -0.657468 1.697302 -2.688614 0.000000 0.000002 0.000000
 43   -0.664068 1.698578 2.869377 0.000000 0.000002 0.000000
time 14
  0   -0.010486 -0.546892 1.863709 0.000000 0.000000 -1.571354
  1   -1.093036 0.000002 -0.326057 -1.570808 -1.570749 0.000022
  2   2.262337 0.113614 0.064702 -0.005988 0.027002 0.052176
  3   2.380047 0.353302 0.047440 -0.011611 -0.052557 0.057543
  4   2.033756 0.190472 -0.000128 -0.046061 -0.008928 0.269979
  5   2.451511 0.204909 -0.003447 -0.084900 0.061630 0.395615
  6   7.247600 -0.397300 -0.109469 -0.016634 0.002250 0.459335
  7   -2.022252 -0.104661 3.136172 1.267440 -0.989530 -4.810599
  8   1.168026 -0.537438 -0.063437 -1.363839 0.691485 -0.918604
  9   6.790376 -0.619176 0.015206 -0.000102 -0.000085 -1.004700
 10   8.637599 0.544015 -0.090417 -2.631470 0.208295 0.987234
 11   6.790465 -0.619039 0.017802 0.000417 -0.011452 -0.718600
 12   -2.022474 -0.104699 -2.873818 -2.105788 1.952640 -5.738984
 13   1.167898 -0.537463 0.063297 -1.049523 -0.793072 -0.022610
 14   7.002743 -0.617765 -0.183752 0.000172 0.000137 -1.966682
 15   8.209042 0.615527 -0.255885 1.900125 0.617848 -0.043366
 16   7.002735 -0.617911 -0.183641 0.012837 0.010920 -1.395374
 17   1.574674 0.609930 -0.000899 0.158464 -0.020535 -0.377232
 18   -0.602177 0.511412 -0.000006 0.000000 0.000000 0.000000
 19   3.673773 0.177020 1.119313 -0.000002 -0.000014 -0.174510
 20   3.673767 0.176993 -1.117566 0.000007 -0.000003 -0.174546
 21   3.942357 1.334540 1.627658 0.000002 -0.000011 -0.000026
 22   -0.246060 -0.011889 0.516521 -0.000011 0.000031 0.000025
 23   3.942374 1.334565 -1.631083 0.000019 0.000002 -0.000024
 24   -0.246150 -0.011872 -0.516511 -0.000005 -0.000006 0.000048
 25   4.941364 1.997338 1.629330 0.000018 -0.000001 -0.000024
 26   4.941382 1.997366 -1.629410 -0.000001 0.000005 -0.000024
 27   2.914462 1.619264 1.514501 -0.000019 -0.000022 -0.000050
 28   2.916892 1.618870 -1.501142 -0.000002 -0.000009 -0.000024
 29   8.824059 0.150544 0.091743 0.000006 -0.000231 -0.174534
 30   2.111085 -0.561179 1.784320 -0.000008 -0.000682 0.000024
 31   2.121290 -0.561289 -1.853599 0.000000 0.000000 -0.000002
 32   -0.814395 -0.093824 3.127092 0.262921 -3.097582 -0.334816
 33   14.298673 -0.408176 0.471578 0.003687 -0.003117 -0.522469
 34   15.835795 0.581398 0.242756 -0.001271 0.032067 0.122292
 35   -0.815868 -0.091229 -3.114430 -0.132889 3.034913 -0.011455
 36   14.294526 -0.410349 -0.467541 -0.002676 0.001869 -0.384764
 37   15.834409 0.579420 -0.284600 -0.034128 0.026558 0.304555
 38   1.139685 -3.453749 -2.823813 0.000000 0.000000 0.000001
 39   -4.457742 -1.054854 -0.746180 0.000000 0.000000 0.000000
 40   1.118101 -3.449769 3.237290 0.000000 0.000001 0.000000
 41   -4.433840 -1.059130 0.959566 -0.000001 0.000000 0.000000
 42   -0.657468 1.697302 -2.688614 0.000000 0.000002 0.000000
 43   -0.664068 1.698578 2.869377 0.000000 0.000002 0.000000
time 15
  0   -0.010486 -0.546892 1.863709 0.000000 0.000000 -1.571354
  1   -1.093036 0.000002 -0.326057 -1.570808 -1.570749 0.000022
  2   2.262337 0.113614 0.064702 -0.005988 0.027002 0.052176
  3   2.380047 0.353302 0.047440 -0.012451 -0.052640 0.057543
  4   2.033756 0.190472 -0.000128 -0.046448 -0.010486 0.270269
  5   2.451511 0.204909 -0.003447 -0.084078 0.055520 0.396928
  6   7.247600 -0.397300 -0.109469 -0.016634 0.002250 0.459335
  7   -2.022252 -0.104661 3.136172 1.267440 -0.989530 -4.810599
  8   1.168026 -0.537438 -0.063437 -1.414780 0.600064 -1.001792
  9   6.790376 -0.619176 0.015206 -0.000047 -0.000085 -0.714980
 10   8.637599 0.544015 -0.090417 -2.655159 0.313740 0.753345
 11   6.790465 -0.619039 0.017802 -0.000692 -0.011225 -0.515642
 12   -2.022474 -0.104699 -2.873818 -2.105788 1.952640 -5.738984
 13   1.167898 -0.537463 0.063297 -1.052827 -0.799124 -0.020249
 14   7.002743 -0.617765 -0.183752 0.000172 0.000137 -1.967837
 15   8.209042 0.615527 -0.255885 1.873449 0.694945 0.057063
 16   7.002735 -0.617911 -0.183641 0.012837 0.010920 -1.396147
 17   1.574674 0.609930 -0.000899 0.160008 -0.012914 -0.381002
 18   -0.602177 0.511412 -0.000006 0.000000 0.000000 0.000000
 19   3.673773 0.177020 1.119313 -0.000002 -0.000014 -0.174510
 20   3.673767 0.176993 -1.117566 0.000007 -0.000003 -0.174546
 21   3.942357 1.334540 1.627658 0.000002 -0.000011 -0.000026
 22   -0.246060 -0.011889 0.516521 -0.000011 0.000031 0.000025
 23   3.942374 1.334565 -1.631083 0.000019 0.000002 -0.000024
 24   -0.246150 -0.011872 -0.516511 -0.000005 -0.000006 0.000048
 25   4.941364 1.997338 1.629330 0.000018 -0.000001 -0.000024
 26   4.941382 1.997366 -1.629410 -0.000001 0.000005 -0.000024
 27   2.914462 1.619264 1.514501 -0.000019 -0.000022 -0.000050
 28   2.916892 1.618870 -1.501142 -0.000002 -0.000009 -0.000024
 29   8.824059 0.150544 0.091743 0.000006 -0.000231 -0.174534
 30   2.111085 -0.561179 1.784320 -0.000008 -0.000682 0.000024
 31   2.121290 -0.561289 -1.853599 0.000000 0.000000 -0.000002
 32   -0.814395 -0.093824 3.127092 0.262921 -3.097582 -0.334816
 33   14.298673 -0.408176 0.471578 0.003687 -0.003117 -0.522469
 34   15.835795 0.581398 0.242756 -0.001271 0.032067 0.122292
 35   -0.815868 -0.091229 -3.114430 -0.132889 3.034913 -0.011455
 36   14.294526 -0.410349 -0.467541 -0.002676 0.001869 -0.384764
 37   15.834409 0.579420 -0.284600 -0.034128 0.026558 0.304555
 38   1.139685 -3.453749 -2.823813 0.000000 0.000000 0.000001
 39   -4.457742 -1.054854 -0.746180 0.000000 0.000000 0.000000
 40   1.118101 -3.449769 3.237290 0.000000 0.000001 0.000000
 41   -4.433840 -1.059130 0.959566 -0.000001 0.000000 0.000000
 42   -0.657468 1.697302 -2.688614 0.000000 0.000002 0.000000
 43   -0.664068 1.698578 2.869377 0.000000 0.000002 0.000000
time 16
  0   -0.010486 -0.546892 1.863709 0.000000 0.000000 -1.571354
  1   -1.093036 0.000002 -0.326057 -1.570808 -1.570749 0.000022
  2   2.262337 0.113614 0.064702 -0.005988 0.027002 0.052176
  3   2.380047 0.353302 0.047440 -0.013141 -0.052712 0.057543
  4   2.033756 0.190472 -0.000128 -0.046854 -0.011901 0.270559
  5   2.451511 0.204909 -0.003447 -0.083342 0.050168 0.398166
  6   7.247600 -0.397300 -0.109469 -0.016634 0.002250 0.459335
  7   -2.022252 -0.104661 3.136172 1.267440 -0.989530 -4.810599
  8   1.168026 -0.537438 -0.063437 -1.407376 0.598203 -0.996161
  9   6.790376 -0.619176 0.015206 -0.000047 -0.000085 -0.648418
 10   8.637599 0.544015 -0.090417 -2.711785 0.365125 0.639330
 11   6.790465 -0.619039 0.017802 -0.000984 -0.011196 -0.469041
 12   -2.022474 -0.104699 -2.873818 -2.105788 1.952640 -5.738984
 13   1.167898 -0.537463 0.063297 -1.056131 -0.804413 -0.018191
 14   7.002743 -0.617765 -0.183752 0.000172 0.000137 -1.969157
 15   8.209042 0.615527 -0.255885 1.827071 0.700998 0.099580
 16   7.002735 -0.617911 -0.183641 0.012837 0.010920 -1.397085
 17   1.574674 0.609930 -0.000899 0.161470 -0.006240 -0.384440
 18   -0.602177 0.511412 -0.000006 0.000000 0.000000 0.000000
 19   3.673773 0.177020 1.119313 -0.000002 -0.000014 -0.174510
 20   3.673767 0.176993 -1.117566 0.000007 -0.000003 -0.174546
 21   3.942357 1.334540 1.627658 0.000002 -0.000011 -0.000026
 22   -0.246060 -0.011889 0.516521 -0.000011 0.000031 0.000025
 23   3.942374 1.334565 -1.631083 0.000019 0.000002 -0.000024
 24   -0.246150 -0.011872 -0.516511 -0.000005 -0.000006 0.000048
 25   4.941364 1.997338 1.629330 0.000018 -0.000001 -0.000024
 26   4.941382 1.997366 -1.629410 -0.000001 0.000005 -0.000024
 27   2.914462 1.619264 1.514501 -0.000019 -0.000022 -0.000050
 28   2.916892 1.618870 -1.501142 -0.000002 -0.000009 -0.000024
 29   8.824059 0.150544 0.091743 0.000006 -0.000231 -0.174534
 30   2.111085 -0.561179 1.784320 -0.000008 -0.000682 0.000024
 31   2.121290 -0.561289 -1.853599 0.000000 0.000000 -0.000002
 32   -0.814395 -0.093824 3.127092 0.262921 -3.097582 -0.334816
 33   14.298673 -0.408176 0.471578 0.003687 -0.003117 -0.522469
 34   15.835795 0.581398 0.242756 -0.001271 0.032067 0.122292
 35   -0.815868 -0.091229 -3.114430 -0.132889 3.034913 -0.011455
 36   14.294526 -0.410349 -0.467541 -0.002676 0.001869 -0.384764
 37   15.834409 0.579420 -0.284600 -0.034128 0.026558 0.304555
 38   1.139685 -3.453749 -2.823813 0.000000 0.000000 0.000001
 39   -4.457742 -1.054854 -0.746180 0.000000 0.000000 0.000000
 40   1.118101 -3.449769 3.237290 0.000000 0.000001 0.000000
 41   -4.433840 -1.059130 0.959566 -0.000001 0.000000 0.000000
 42   -0.657468 1.697302 -2.688614 0.000000 0.000002 0.000000
 43   -0.664068 1.698578 2.869377 0.000000 0.000002 0.000000
end
