version 1
nodes
  0 "Bip01" -1
  1 "Bip01 Pelvis" 0
  2 "Bip01 Spine" 1
  3 "Bip01 Spine1" 2
  4 "Bip01 Spine2" 3
  5 "Bip01 Spine3" 4
  6 "Bip01 Neck" 5
  7 "Bip01 L Arm" 6
  8 "Bip01 L Arm1" 7
  9 "Bip01 L Arm2" 8
 10 "Bip01 L Hand" 9
 11 "Bip06 L elbow2-smooth" 8
 12 "Bip01 R Arm" 6
 13 "Bip01 R Arm1" 12
 14 "Bip01 R Arm2" 13
 15 "Bip01 R Hand" 14
 16 "Bip06 R elbow2-smooth" 13
 17 "Bip01 Head" 6
 18 "Bip06 Head_helper" 17
 19 "Bip06 Head_eyes_l" 18
 20 "Bip06 Head_eyes_r" 18
 21 "Bip06 Head_blink_l" 18
 22 "Bip06 Head_blink_smooth_l1" 21
 23 "Bip06 Head_blink_r" 18
 24 "Bip06 Head_blink_smooth_r1" 23
 25 "Bip06 Head_L_eyebrow" 18
 26 "Bip06 Head_R_eyebrow" 18
 27 "Bip06 Head_blink_l_lid" 18
 28 "Bip06 Head_blink_r_lid" 18
 29 "Bip06 bunny" 18
 30 "Bip06 bunnyL" 29
 31 "Bip06 bunnyR" 29
 32 "Bip01 L Leg" 1
 33 "Bip01 L Leg1" 32
 34 "Bip01 L Foot" 33
 35 "Bip01 R Leg" 1
 36 "Bip01 R Leg1" 35
 37 "Bip01 R Foot" 36
 38 "Bip03 HairR1" 17
 39 "Bip03 HairR2" 38
 40 "Bip03 HairL1" 17
 41 "Bip03 HairL2" 40
 42 "Bip03 swingR" 17
 43 "Bip03 swingL" 17
end
skeleton
time 0
  0   -0.010486 -0.546892 1.863709 0.000000 0.000000 -1.571354
  1   -1.093036 0.000002 -0.326057 -1.570808 -1.570749 0.000022
  2   2.262337 0.113614 0.064702 -0.005988 0.027002 0.052176
  3   2.380047 0.353302 0.047440 -0.013141 -0.052712 0.057543
  4   2.033756 0.190472 -0.000128 -0.046854 -0.011901 0.270559
  5   2.451511 0.204909 -0.003447 -0.083342 0.050168 0.398166
  6   7.247600 -0.397300 -0.109469 -0.016634 0.002250 0.459335
  7   -2.022252 -0.104661 3.136172 1.267440 -0.989530 -4.810599
  8   1.168026 -0.537438 -0.063437 -1.410287 0.568064 -1.019062
  9   6.790376 -0.619176 0.015206 -0.000047 -0.000085 -0.648418
 10   8.637599 0.544015 -0.090417 -2.712313 0.365195 0.639113
 11   6.790465 -0.619039 0.017802 -0.000984 -0.011196 -0.469041
 12   -2.022474 -0.104699 -2.873818 -2.105788 1.952640 -5.738984
 13   1.167898 -0.537463 0.063297 -1.056131 -0.804413 -0.018191
 14   7.002743 -0.617765 -0.183752 0.000172 0.000137 -1.969157
 15   8.209042 0.615527 -0.255885 1.827071 0.700998 0.099580
 16   7.002735 -0.617911 -0.183641 0.012837 0.010920 -1.397085
 17   1.574674 0.609930 -0.000899 0.161470 -0.006240 -0.384440
 18   -0.602177 0.511412 -0.000006 0.000000 0.000000 0.000000
 19   3.673773 0.177020 1.119313 -0.000002 -0.000014 -0.174510
 20   3.673767 0.176993 -1.117566 0.000007 -0.000003 -0.174546
 21   3.942357 1.334540 1.627658 0.000002 -0.000011 -0.000026
 22   -0.246060 -0.011889 0.516521 -0.000011 0.000031 0.000025
 23   3.942374 1.334565 -1.631083 0.000019 0.000002 -0.000024
 24   -0.246150 -0.011872 -0.516511 -0.000005 -0.000006 0.000048
 25   4.941364 1.997338 1.629330 0.000018 -0.000001 -0.000024
 26   4.941382 1.997366 -1.629410 -0.000001 0.000005 -0.000024
 27   2.914462 1.619264 1.514501 -0.000019 -0.000022 -0.000050
 28   2.916892 1.618870 -1.501142 -0.000002 -0.000009 -0.000024
 29   8.824059 0.150544 0.091743 0.000006 -0.000231 -0.174534
 30   2.111085 -0.561179 1.784320 -0.000008 -0.000682 0.000024
 31   2.121290 -0.561289 -1.853599 0.000000 0.000000 -0.000002
 32   -0.814395 -0.093824 3.127092 0.262921 -3.097582 -0.334816
 33   14.298673 -0.408176 0.471578 0.003687 -0.003117 -0.522469
 34   15.835795 0.581398 0.242756 -0.001271 0.032067 0.122292
 35   -0.815868 -0.091229 -3.114430 -0.132889 3.034913 -0.011455
 36   14.294526 -0.410349 -0.467541 -0.002676 0.001869 -0.384764
 37   15.834409 0.579420 -0.284600 -0.034128 0.026558 0.304555
 38   1.139685 -3.453749 -2.823813 0.000000 0.000000 0.000001
 39   -4.457742 -1.054854 -0.746180 0.000000 0.000000 0.000000
 40   1.118101 -3.449769 3.237290 0.000000 0.000001 0.000000
 41   -4.433840 -1.059130 0.959566 -0.000001 0.000000 0.000000
 42   -0.657468 1.697302 -2.688614 0.000000 0.000002 0.000000
 43   -0.664068 1.698578 2.869377 0.000000 0.000002 0.000000
time 1
  0   -0.010486 -0.546892 1.863709 0.000000 0.000000 -1.571354
  1   -1.093036 0.000002 -0.326057 -1.570808 -1.570749 0.000022
  2   2.262337 0.113614 0.064702 -0.007478 0.016456 0.021130
  3   2.380047 0.353302 0.047440 -0.012946 -0.033837 0.042729
  4   2.033756 0.190472 -0.000128 -0.000010 -0.003907 0.229962
  5   2.451511 0.204909 -0.003447 -0.034953 0.033195 0.339497
  6   7.247600 -0.397300 -0.109469 -0.016634 0.002250 0.459335
  7   -2.022252 -0.104661 3.136172 1.256129 -0.990567 -4.798202
  8   1.168026 -0.537438 -0.063437 -0.761093 0.605700 -0.742044
  9   6.790376 -0.619176 0.015206 -0.000102 -0.000085 -0.831275
 10   8.637599 0.544015 -0.090417 -2.324564 0.380540 0.710083
 11   6.790465 -0.619039 0.017802 -0.000254 -0.011310 -0.597079
 12   -2.022474 -0.104699 -2.873818 -2.144686 1.931336 -5.775366
 13   1.167898 -0.537463 0.063297 -1.012758 -0.893815 0.026908
 14   7.002743 -0.617765 -0.183752 0.000172 0.000137 -1.940858
 15   8.209042 0.615527 -0.255885 2.035374 0.641605 0.098558
 16   7.002735 -0.617911 -0.183641 0.012884 0.010751 -1.377271
 17   1.574674 0.609930 -0.000899 0.083558 0.015462 -0.293183
 18   -0.602177 0.511412 -0.000006 0.000000 0.000000 0.000000
 19   3.673773 0.177020 1.119313 -0.000002 -0.000014 -0.174510
 20   3.673767 0.176993 -1.117566 0.000007 -0.000003 -0.174546
 21   3.942357 1.334540 1.627658 0.000002 -0.000011 -0.000026
 22   -0.246060 -0.011889 0.516521 -0.000011 0.000031 0.000025
 23   3.942374 1.334565 -1.631083 0.000019 0.000002 -0.000024
 24   -0.246150 -0.011872 -0.516511 -0.000005 -0.000006 0.000048
 25   4.941364 1.997338 1.629330 0.000018 -0.000001 -0.000024
 26   4.941382 1.997366 -1.629410 -0.000001 0.000005 -0.000024
 27   2.914462 1.619264 1.514501 -0.000019 -0.000022 -0.000050
 28   2.916892 1.618870 -1.501142 -0.000002 -0.000009 -0.000024
 29   8.824059 0.150544 0.091743 0.000006 -0.000231 -0.174534
 30   2.111085 -0.561179 1.784320 -0.000008 -0.000682 0.000024
 31   2.121290 -0.561289 -1.853599 0.000000 0.000000 -0.000002
 32   -0.814395 -0.093824 3.127092 0.262921 -3.097582 -0.334816
 33   14.298673 -0.408176 0.471578 0.003687 -0.003117 -0.522469
 34   15.835795 0.581398 0.242756 -0.001271 0.032067 0.122292
 35   -0.815868 -0.091229 -3.114430 -0.132889 3.034913 -0.011455
 36   14.294526 -0.410349 -0.467541 -0.002676 0.001869 -0.384764
 37   15.834409 0.579420 -0.284600 -0.034128 0.026558 0.304555
 38   1.139685 -3.453749 -2.823813 0.000000 0.000000 0.000001
 39   -4.457742 -1.054854 -0.746180 0.000000 0.000000 0.000000
 40   1.118101 -3.449769 3.237290 0.000000 0.000001 0.000000
 41   -4.433840 -1.059130 0.959566 -0.000001 0.000000 0.000000
 42   -0.657468 1.697302 -2.688614 0.000000 0.000002 0.000000
 43   -0.664068 1.698578 2.869377 0.000000 0.000002 0.000000
time 2
  0   -0.010486 -0.546892 1.863709 0.000000 0.000000 -1.571354
  1   -1.093036 0.000002 -0.326057 -1.570808 -1.570749 0.000022
  2   2.262337 0.113614 0.064702 -0.009338 -0.003127 -0.036425
  3   2.380047 0.353302 0.047440 -0.013321 0.001230 0.015324
  4   2.033756 0.190472 -0.000128 0.086117 0.015868 0.155511
  5   2.451511 0.204909 -0.003447 0.057205 0.009460 0.228746
  6   7.247600 -0.397300 -0.109469 -0.016634 0.002250 0.459335
  7   -2.022252 -0.104661 3.136172 1.244914 -0.991548 -4.785617
  8   1.168026 -0.537438 -0.063437 -0.070133 0.577020 -0.612993
  9   6.790376 -0.619176 0.015206 -0.000102 -0.000085 -1.013756
 10   8.637599 0.544015 -0.090417 -1.936374 0.369912 0.782138
 11   6.790465 -0.619039 0.017802 0.000476 -0.011452 -0.724887
 12   -2.022474 -0.104699 -2.873818 -2.239631 1.889513 -5.865266
 13   1.167898 -0.537463 0.063297 -0.805173 -1.060262 0.009655
 14   7.002743 -0.617765 -0.183752 0.000172 0.000137 -1.882774
 15   8.209042 0.615527 -0.255885 2.442344 0.526679 0.054237
 16   7.002735 -0.617911 -0.183641 0.012978 0.010413 -1.336594
 17   1.574674 0.609930 -0.000899 -0.078156 0.082416 -0.094332
 18   -0.602177 0.511412 -0.000006 0.000000 0.000000 0.000000
 19   3.673773 0.177020 1.119313 -0.000002 -0.000014 -0.174510
 20   3.673767 0.176993 -1.117566 0.000007 -0.000003 -0.174546
 21   3.942357 1.334540 1.627658 0.000002 -0.000011 -0.000026
 22   -0.246060 -0.011889 0.516521 -0.000011 0.000031 0.000025
 23   3.942374 1.334565 -1.631083 0.000019 0.000002 -0.000024
 24   -0.246150 -0.011872 -0.516511 -0.000005 -0.000006 0.000048
 25   4.941364 1.997338 1.629330 0.000018 -0.000001 -0.000024
 26   4.941382 1.997366 -1.629410 -0.000001 0.000005 -0.000024
 27   2.914462 1.619264 1.514501 -0.000019 -0.000022 -0.000050
 28   2.916892 1.618870 -1.501142 -0.000002 -0.000009 -0.000024
 29   8.824059 0.150544 0.091743 0.000006 -0.000231 -0.174534
 30   2.111085 -0.561179 1.784320 -0.000008 -0.000682 0.000024
 31   2.121290 -0.561289 -1.853599 0.000000 0.000000 -0.000002
 32   -0.814395 -0.093824 3.127092 0.262921 -3.097582 -0.334816
 33   14.298673 -0.408176 0.471578 0.003687 -0.003117 -0.522469
 34   15.835795 0.581398 0.242756 -0.001271 0.032067 0.122292
 35   -0.815868 -0.091229 -3.114430 -0.132889 3.034913 -0.011455
 36   14.294526 -0.410349 -0.467541 -0.002676 0.001869 -0.384764
 37   15.834409 0.579420 -0.284600 -0.034128 0.026558 0.304555
 38   1.139685 -3.453749 -2.823813 0.000000 0.000000 0.000001
 39   -4.457742 -1.054854 -0.746180 0.000000 0.000000 0.000000
 40   1.118101 -3.449769 3.237290 0.000000 0.000001 0.000000
 41   -4.433840 -1.059130 0.959566 -0.000001 0.000000 0.000000
 42   -0.657468 1.697302 -2.688614 0.000000 0.000002 0.000000
 43   -0.664068 1.698578 2.869377 0.000000 0.000002 0.000000
time 3
  0   -0.010486 -0.546892 1.863709 0.000000 0.000000 -1.571354
  1   -1.093036 0.000002 -0.326057 -1.570808 -1.570749 0.000022
  2   2.262337 0.113614 0.064702 -0.009873 -0.013770 -0.067471
  3   2.380047 0.353302 0.047440 -0.013936 0.020214 0.000530
  4   2.033756 0.190472 -0.000128 0.131817 0.029159 0.116255
  5   2.451511 0.204909 -0.003447 0.107768 0.000948 0.168368
  6   7.247600 -0.397300 -0.109469 -0.016634 0.002250 0.459335
  7   -2.022252 -0.104661 3.136172 1.261305 -0.998091 -4.805809
  8   1.168026 -0.537438 -0.063437 0.444590 0.345222 -0.685363
  9   6.790376 -0.619176 0.015206 -0.000102 -0.000085 -1.200613
 10   8.637599 0.544015 -0.090417 -1.605162 0.344641 0.835022
 11   6.790465 -0.619039 0.017802 0.001235 -0.011566 -0.855693
 12   -2.022474 -0.104699 -2.873818 -2.296253 1.869834 -5.919169
 13   1.167898 -0.537463 0.063297 -0.661698 -1.121440 -0.021339
 14   7.002743 -0.617765 -0.183752 0.000172 0.000137 -1.853650
 15   8.209042 0.615527 -0.255885 2.639502 0.477424 0.014967
 16   7.002735 -0.617911 -0.183641 0.013073 0.010244 -1.316283
 17   1.574674 0.609930 -0.000899 -0.179831 0.125442 -0.064209
 18   -0.602177 0.511412 -0.000006 0.000000 0.000000 0.000000
 19   3.673773 0.177020 1.119313 -0.000002 -0.000014 -0.174510
 20   3.673767 0.176993 -1.117566 0.000007 -0.000003 -0.174546
 21   3.942357 1.334540 1.627658 0.000002 -0.000011 -0.000026
 22   -0.246060 -0.011889 0.516521 -0.000011 0.000031 0.000025
 23   3.942374 1.334565 -1.631083 0.000019 0.000002 -0.000024
 24   -0.246150 -0.011872 -0.516511 -0.000005 -0.000006 0.000048
 25   4.941364 1.997338 1.629330 0.000018 -0.000001 -0.000024
 26   4.941382 1.997366 -1.629410 -0.000001 0.000005 -0.000024
 27   2.914462 1.619264 1.514501 -0.000019 -0.000022 -0.000050
 28   2.916892 1.618870 -1.501142 -0.000002 -0.000009 -0.000024
 29   8.824059 0.150544 0.091743 0.000006 -0.000231 -0.174534
 30   2.111085 -0.561179 1.784320 -0.000008 -0.000682 0.000024
 31   2.121290 -0.561289 -1.853599 0.000000 0.000000 -0.000002
 32   -0.814395 -0.093824 3.127092 0.262921 -3.097582 -0.334816
 33   14.298673 -0.408176 0.471578 0.003687 -0.003117 -0.522469
 34   15.835795 0.581398 0.242756 -0.001271 0.032067 0.122292
 35   -0.815868 -0.091229 -3.114430 -0.132889 3.034913 -0.011455
 36   14.294526 -0.410349 -0.467541 -0.002676 0.001869 -0.384764
 37   15.834409 0.579420 -0.284600 -0.034128 0.026558 0.304555
 38   1.139685 -3.453749 -2.823813 0.000000 0.000000 0.000001
 39   -4.457742 -1.054854 -0.746180 0.000000 0.000000 0.000000
 40   1.118101 -3.449769 3.237290 0.000000 0.000001 0.000000
 41   -4.433840 -1.059130 0.959566 -0.000001 0.000000 0.000000
 42   -0.657468 1.697302 -2.688614 0.000000 0.000002 0.000000
 43   -0.664068 1.698578 2.869377 0.000000 0.000002 0.000000
time 4
  0   -0.010486 -0.546892 1.863709 0.000000 0.000000 -1.571354
  1   -1.093036 0.000002 -0.326057 -1.570808 -1.570749 0.000022
  2   2.262337 0.113614 0.064702 -0.010115 -0.020840 -0.085849
  3   2.380047 0.353302 0.047440 -0.014251 0.020202 0.001938
  4   2.033756 0.190472 -0.000128 0.107731 0.033593 0.090991
  5   2.451511 0.204909 -0.003447 0.088614 0.032973 0.147243
  6   7.247600 -0.397300 -0.109469 -0.016634 0.002250 0.459335
  7   -2.022252 -0.104661 3.136172 1.435671 -1.024382 -5.011392
  8   1.168026 -0.537438 -0.063437 0.587161 0.255814 -0.873183
  9   6.790376 -0.619176 0.015206 -0.000102 -0.000085 -1.409054
 10   8.637599 0.544015 -0.090417 -1.552587 0.363224 0.833141
 11   6.790465 -0.619039 0.017802 0.002111 -0.011680 -1.001495
 12   -2.022474 -0.104699 -2.873818 -2.302289 1.868006 -5.925009
 13   1.167898 -0.537463 0.063297 -0.767002 -1.091283 0.039378
 14   7.002743 -0.617765 -0.183752 0.000172 0.000137 -1.850927
 15   8.209042 0.615527 -0.255885 2.658628 0.473036 0.010698
 16   7.002735 -0.617911 -0.183641 0.013073 0.010187 -1.314296
 17   1.574674 0.609930 -0.000899 -0.169919 0.075671 -0.097252
 18   -0.602177 0.511412 -0.000006 0.000000 0.000000 0.000000
 19   3.673773 0.177020 1.119313 -0.000002 -0.000014 -0.174510
 20   3.673767 0.176993 -1.117566 0.000007 -0.000003 -0.174546
 21   3.942357 1.334540 1.627658 0.000002 -0.000011 -0.000026
 22   -0.246060 -0.011889 0.516521 -0.000011 0.000031 0.000025
 23   3.942374 1.334565 -1.631083 0.000019 0.000002 -0.000024
 24   -0.246150 -0.011872 -0.516511 -0.000005 -0.000006 0.000048
 25   4.941364 1.997338 1.629330 0.000018 -0.000001 -0.000024
 26   4.941382 1.997366 -1.629410 -0.000001 0.000005 -0.000024
 27   2.914462 1.619264 1.514501 -0.000019 -0.000022 -0.000050
 28   2.916892 1.618870 -1.501142 -0.000002 -0.000009 -0.000024
 29   8.824059 0.150544 0.091743 0.000006 -0.000231 -0.174534
 30   2.111085 -0.561179 1.784320 -0.000008 -0.000682 0.000024
 31   2.121290 -0.561289 -1.853599 0.000000 0.000000 -0.000002
 32   -0.814395 -0.093824 3.127092 0.262921 -3.097582 -0.334816
 33   14.298673 -0.408176 0.471578 0.003687 -0.003117 -0.522469
 34   15.835795 0.581398 0.242756 -0.001271 0.032067 0.122292
 35   -0.815868 -0.091229 -3.114430 -0.132889 3.034913 -0.011455
 36   14.294526 -0.410349 -0.467541 -0.002676 0.001869 -0.384764
 37   15.834409 0.579420 -0.284600 -0.034128 0.026558 0.304555
 38   1.139685 -3.453749 -2.823813 0.000000 0.000000 0.000001
 39   -4.457742 -1.054854 -0.746180 0.000000 0.000000 0.000000
 40   1.118101 -3.449769 3.237290 0.000000 0.000001 0.000000
 41   -4.433840 -1.059130 0.959566 -0.000001 0.000000 0.000000
 42   -0.657468 1.697302 -2.688614 0.000000 0.000002 0.000000
 43   -0.664068 1.698578 2.869377 0.000000 0.000002 0.000000
time 5
  0   -0.010486 -0.546892 1.863709 0.000000 0.000000 -1.571354
  1   -1.093036 0.000002 -0.326057 -1.570808 -1.570749 0.000022
  2   2.262337 0.113614 0.064702 -0.010115 -0.023549 -0.092879
  3   2.380047 0.353302 0.047440 -0.014386 0.020154 0.002489
  4   2.033756 0.190472 -0.000128 0.098436 0.035127 0.081277
  5   2.451511 0.204909 -0.003447 0.080826 0.064372 0.140804
  6   7.247600 -0.397300 -0.109469 -0.016634 0.002250 0.459335
  7   -2.022252 -0.104661 3.136172 1.587126 -1.030436 -5.188612
  8   1.168026 -0.537438 -0.063437 0.436047 -0.032990 -0.880711
  9   6.790376 -0.619176 0.015206 -0.000102 -0.000085 -1.639532
 10   8.637599 0.544015 -0.090417 -1.775215 0.364632 0.785900
 11   6.790465 -0.619039 0.017802 0.003132 -0.011793 -1.162927
 12   -2.022474 -0.104699 -2.873818 -2.322312 1.861795 -5.944444
 13   1.167898 -0.537463 0.063297 -0.701556 -1.080045 -0.033930
 14   7.002743 -0.617765 -0.183752 0.000172 0.000137 -1.840284
 15   8.209042 0.615527 -0.255885 2.717229 0.481964 0.012081
 16   7.002735 -0.617911 -0.183641 0.013073 0.010187 -1.306845
 17   1.574674 0.609930 -0.000899 -0.184949 0.035224 -0.128780
 18   -0.602177 0.511412 -0.000006 0.000000 0.000000 0.000000
 19   3.673773 0.177020 1.119313 -0.000002 -0.000014 -0.174510
 20   3.673767 0.176993 -1.117566 0.000007 -0.000003 -0.174546
 21   3.942357 1.334540 1.627658 0.000002 -0.000011 -0.000026
 22   -0.246060 -0.011889 0.516521 -0.000011 0.000031 0.000025
 23   3.942374 1.334565 -1.631083 0.000019 0.000002 -0.000024
 24   -0.246150 -0.011872 -0.516511 -0.000005 -0.000006 0.000048
 25   4.941364 1.997338 1.629330 0.000018 -0.000001 -0.000024
 26   4.941382 1.997366 -1.629410 -0.000001 0.000005 -0.000024
 27   2.914462 1.619264 1.514501 -0.000019 -0.000022 -0.000050
 28   2.916892 1.618870 -1.501142 -0.000002 -0.000009 -0.000024
 29   8.824059 0.150544 0.091743 0.000006 -0.000231 -0.174534
 30   2.111085 -0.561179 1.784320 -0.000008 -0.000682 0.000024
 31   2.121290 -0.561289 -1.853599 0.000000 0.000000 -0.000002
 32   -0.814395 -0.093824 3.127092 0.262921 -3.097582 -0.334816
 33   14.298673 -0.408176 0.471578 0.003687 -0.003117 -0.522469
 34   15.835795 0.581398 0.242756 -0.001271 0.032067 0.122292
 35   -0.815868 -0.091229 -3.114430 -0.132889 3.034913 -0.011455
 36   14.294526 -0.410349 -0.467541 -0.002676 0.001869 -0.384764
 37   15.834409 0.579420 -0.284600 -0.034128 0.026558 0.304555
 38   1.139685 -3.453749 -2.823813 0.000000 0.000000 0.000001
 39   -4.457742 -1.054854 -0.746180 0.000000 0.000000 0.000000
 40   1.118101 -3.449769 3.237290 0.000000 0.000001 0.000000
 41   -4.433840 -1.059130 0.959566 -0.000001 0.000000 0.000000
 42   -0.657468 1.697302 -2.688614 0.000000 0.000002 0.000000
 43   -0.664068 1.698578 2.869377 0.000000 0.000002 0.000000
time 6
  0   -0.010486 -0.546892 1.863709 0.000000 0.000000 -1.571354
  1   -1.093036 0.000002 -0.326057 -1.570808 -1.570749 0.000022
  2   2.262337 0.113614 0.064702 -0.010242 -0.024951 -0.092806
  3   2.380047 0.353302 0.047440 -0.014461 0.020166 0.002734
  4   2.033756 0.190472 -0.000128 0.073355 0.026258 0.074680
  5   2.451511 0.204909 -0.003447 0.041594 0.044567 0.135851
  6   7.247600 -0.397300 -0.109469 -0.016634 0.002250 0.459335
  7   -2.022252 -0.104661 3.136172 1.426085 -1.024785 -5.000498
  8   1.168026 -0.537438 -0.063437 0.256773 -0.071430 -0.734769
  9   6.790376 -0.619176 0.015206 -0.000102 -0.000085 -1.661191
 10   8.637599 0.544015 -0.090417 -2.465379 0.195132 0.705670
 11   6.790465 -0.619039 0.017802 0.003191 -0.011793 -1.178096
 12   -2.022474 -0.104699 -2.873818 -2.327869 1.860256 -5.949519
 13   1.167898 -0.537463 0.063297 -0.730940 -1.111574 -0.069101
 14   7.002743 -0.617765 -0.183752 0.000172 0.000137 -1.837231
 15   8.209042 0.615527 -0.255885 2.732616 0.484460 0.012622
 16   7.002735 -0.617911 -0.183641 0.013073 0.010131 -1.304748
 17   1.574674 0.609930 -0.000899 -0.135107 0.034869 -0.157462
 18   -0.602177 0.511412 -0.000006 0.000000 0.000000 0.000000
 19   3.673773 0.177020 1.119313 -0.000002 -0.000014 -0.174510
 20   3.673767 0.176993 -1.117566 0.000007 -0.000003 -0.174546
 21   3.942357 1.334540 1.627658 0.000002 -0.000011 -0.000026
 22   -0.246060 -0.011889 0.516521 -0.000011 0.000031 0.000025
 23   3.942374 1.334565 -1.631083 0.000019 0.000002 -0.000024
 24   -0.246150 -0.011872 -0.516511 -0.000005 -0.000006 0.000048
 25   4.941364 1.997338 1.629330 0.000018 -0.000001 -0.000024
 26   4.941382 1.997366 -1.629410 -0.000001 0.000005 -0.000024
 27   2.914462 1.619264 1.514501 -0.000019 -0.000022 -0.000050
 28   2.916892 1.618870 -1.501142 -0.000002 -0.000009 -0.000024
 29   8.824059 0.150544 0.091743 0.000006 -0.000231 -0.174534
 30   2.111085 -0.561179 1.784320 -0.000008 -0.000682 0.000024
 31   2.121290 -0.561289 -1.853599 0.000000 0.000000 -0.000002
 32   -0.814395 -0.093824 3.127092 0.262921 -3.097582 -0.334816
 33   14.298673 -0.408176 0.471578 0.003687 -0.003117 -0.522469
 34   15.835795 0.581398 0.242756 -0.001271 0.032067 0.122292
 35   -0.815868 -0.091229 -3.114430 -0.132889 3.034913 -0.011455
 36   14.294526 -0.410349 -0.467541 -0.002676 0.001869 -0.384764
 37   15.834409 0.579420 -0.284600 -0.034128 0.026558 0.304555
 38   1.139685 -3.453749 -2.823813 0.000000 0.000000 0.000001
 39   -4.457742 -1.054854 -0.746180 0.000000 0.000000 0.000000
 40   1.118101 -3.449769 3.237290 0.000000 0.000001 0.000000
 41   -4.433840 -1.059130 0.959566 -0.000001 0.000000 0.000000
 42   -0.657468 1.697302 -2.688614 0.000000 0.000002 0.000000
 43   -0.664068 1.698578 2.869377 0.000000 0.000002 0.000000
time 7
  0   -0.010486 -0.546892 1.863709 0.000000 0.000000 -1.571354
  1   -1.093036 0.000002 -0.326057 -1.570808 -1.570749 0.000022
  2   2.262337 0.113614 0.064702 -0.010446 -0.027564 -0.092644
  3   2.380047 0.353302 0.047440 -0.014596 0.020154 0.003285
  4   2.033756 0.190472 -0.000128 0.026898 0.009492 0.063190
  5   2.451511 0.204909 -0.003447 -0.030759 0.007254 0.128570
  6   7.247600 -0.397300 -0.109469 -0.016634 0.002250 0.459335
  7   -2.022252 -0.104661 3.136172 1.290926 -1.007201 -4.841497
  8   1.168026 -0.537438 -0.063437 0.132680 -0.034902 -0.543280
  9   6.790376 -0.619176 0.015206 -0.000102 -0.000085 -1.639985
 10   8.637599 0.544015 -0.090417 -2.969022 0.087928 0.728169
 11   6.790465 -0.619039 0.017802 0.003132 -0.011793 -1.163158
 12   -2.022474 -0.104699 -2.873818 -2.336300 1.857818 -5.957752
 13   1.167898 -0.537463 0.063297 -0.787037 -1.191772 -0.141561
 14   7.002743 -0.617765 -0.183752 0.000172 0.000137 -1.787068
 15   8.209042 0.615527 -0.255885 2.587948 0.497701 -0.006802
 16   7.002735 -0.617911 -0.183641 0.013120 0.009849 -1.269645
 17   1.574674 0.609930 -0.000899 -0.010805 0.046513 -0.172357
 18   -0.602177 0.511412 -0.000006 0.000000 0.000000 0.000000
 19   3.673773 0.177020 1.119313 -0.000002 -0.000014 -0.174510
 20   3.673767 0.176993 -1.117566 0.000007 -0.000003 -0.174546
 21   3.942357 1.334540 1.627658 0.000002 -0.000011 -0.000026
 22   -0.246060 -0.011889 0.516521 -0.000011 0.000031 0.000025
 23   3.942374 1.334565 -1.631083 0.000019 0.000002 -0.000024
 24   -0.246150 -0.011872 -0.516511 -0.000005 -0.000006 0.000048
 25   4.941364 1.997338 1.629330 0.000018 -0.000001 -0.000024
 26   4.941382 1.997366 -1.629410 -0.000001 0.000005 -0.000024
 27   2.914462 1.619264 1.514501 -0.000019 -0.000022 -0.000050
 28   2.916892 1.618870 -1.501142 -0.000002 -0.000009 -0.000024
 29   8.824059 0.150544 0.091743 0.000006 -0.000231 -0.174534
 30   2.111085 -0.561179 1.784320 -0.000008 -0.000682 0.000024
 31   2.121290 -0.561289 -1.853599 0.000000 0.000000 -0.000002
 32   -0.814395 -0.093824 3.127092 0.262921 -3.097582 -0.334816
 33   14.298673 -0.408176 0.471578 0.003687 -0.003117 -0.522469
 34   15.835795 0.581398 0.242756 -0.001271 0.032067 0.122292
 35   -0.815868 -0.091229 -3.114430 -0.132889 3.034913 -0.011455
 36   14.294526 -0.410349 -0.467541 -0.002676 0.001869 -0.384764
 37   15.834409 0.579420 -0.284600 -0.034128 0.026558 0.304555
 38   1.139685 -3.453749 -2.823813 0.000000 0.000000 0.000001
 39   -4.457742 -1.054854 -0.746180 0.000000 0.000000 0.000000
 40   1.118101 -3.449769 3.237290 0.000000 0.000001 0.000000
 41   -4.433840 -1.059130 0.959566 -0.000001 0.000000 0.000000
 42   -0.657468 1.697302 -2.688614 0.000000 0.000002 0.000000
 43   -0.664068 1.698578 2.869377 0.000000 0.000002 0.000000
time 8
  0   -0.010486 -0.546892 1.863709 0.000000 0.000000 -1.571354
  1   -1.093036 0.000002 -0.326057 -1.570808 -1.570749 0.000022
  2   2.262337 0.113614 0.064702 -0.010548 -0.028942 -0.092553
  3   2.380047 0.353302 0.047440 -0.014686 0.020118 0.003591
  4   2.033756 0.190472 -0.000128 0.001945 0.000216 0.057318
  5   2.451511 0.204909 -0.003447 -0.069700 -0.012930 0.125895
  6   7.247600 -0.397300 -0.109469 -0.016634 0.002250 0.459335
  7   -2.022252 -0.104661 3.136172 1.259005 -1.001147 -4.803743
  8   1.168026 -0.537438 -0.063437 0.087878 -0.015229 -0.448010
  9   6.790376 -0.619176 0.015206 -0.000102 -0.000085 -1.634702
 10   8.637599 0.544015 -0.090417 -3.134056 0.083071 0.740540
 11   6.790465 -0.619039 0.017802 0.003074 -0.011793 -1.159582
 12   -2.022474 -0.104699 -2.873818 -2.345306 1.855293 -5.966369
 13   1.167898 -0.537463 0.063297 -0.783030 -1.250763 -0.215474
 14   7.002743 -0.617765 -0.183752 0.000172 0.000023 -1.736905
 15   8.209042 0.615527 -0.255885 2.442344 0.508293 -0.028091
 16   7.002735 -0.617911 -0.183641 0.013261 0.009510 -1.234598
 17   1.574674 0.609930 -0.000899 0.074784 0.060051 -0.205363
 18   -0.602177 0.511412 -0.000006 0.000000 0.000000 0.000000
 19   3.673773 0.177020 1.119313 -0.000002 -0.000014 -0.174510
 20   3.673767 0.176993 -1.117566 0.000007 -0.000003 -0.174546
 21   3.942357 1.334540 1.627658 0.000002 -0.000011 -0.000026
 22   -0.246060 -0.011889 0.516521 -0.000011 0.000031 0.000025
 23   3.942374 1.334565 -1.631083 0.000019 0.000002 -0.000024
 24   -0.246150 -0.011872 -0.516511 -0.000005 -0.000006 0.000048
 25   4.941364 1.997338 1.629330 0.000018 -0.000001 -0.000024
 26   4.941382 1.997366 -1.629410 -0.000001 0.000005 -0.000024
 27   2.914462 1.619264 1.514501 -0.000019 -0.000022 -0.000050
 28   2.916892 1.618870 -1.501142 -0.000002 -0.000009 -0.000024
 29   8.824059 0.150544 0.091743 0.000006 -0.000231 -0.174534
 30   2.111085 -0.561179 1.784320 -0.000008 -0.000682 0.000024
 31   2.121290 -0.561289 -1.853599 0.000000 0.000000 -0.000002
 32   -0.814395 -0.093824 3.127092 0.262921 -3.097582 -0.334816
 33   14.298673 -0.408176 0.471578 0.003687 -0.003117 -0.522469
 34   15.835795 0.581398 0.242756 -0.001271 0.032067 0.122292
 35   -0.815868 -0.091229 -3.114430 -0.132889 3.034913 -0.011455
 36   14.294526 -0.410349 -0.467541 -0.002676 0.001869 -0.384764
 37   15.834409 0.579420 -0.284600 -0.034128 0.026558 0.304555
 38   1.139685 -3.453749 -2.823813 0.000000 0.000000 0.000001
 39   -4.457742 -1.054854 -0.746180 0.000000 0.000000 0.000000
 40   1.118101 -3.449769 3.237290 0.000000 0.000001 0.000000
 41   -4.433840 -1.059130 0.959566 -0.000001 0.000000 0.000000
 42   -0.657468 1.697302 -2.688614 0.000000 0.000002 0.000000
 43   -0.664068 1.698578 2.869377 0.000000 0.000002 0.000000
time 9
  0   -0.010486 -0.546892 1.863709 0.000000 0.000000 -1.571354
  1   -1.093036 0.000002 -0.326057 -1.570808 -1.570749 0.000022
  2   2.262337 0.113614 0.064702 -0.010548 -0.029673 -0.094505
  3   2.380047 0.353302 0.047440 -0.014716 0.020118 0.003734
  4   2.033756 0.190472 -0.000128 -0.017899 -0.000168 0.054527
  5   2.451511 0.204909 -0.003447 -0.093886 -0.013974 0.123493
  6   7.247600 -0.397300 -0.109469 -0.016634 0.002250 0.459335
  7   -2.022252 -0.104661 3.136172 1.243955 -0.998235 -4.785993
  8   1.168026 -0.537438 -0.063437 -0.091269 0.097223 -0.347932
  9   6.790376 -0.619176 0.015206 -0.000102 -0.000085 -1.598704
 10   8.637599 0.544015 -0.090417 -3.530172 0.256442 0.690550
 11   6.790465 -0.619039 0.017802 0.002928 -0.011765 -1.134378
 12   -2.022474 -0.104699 -2.873818 -2.349330 1.854190 -5.970773
 13   1.167898 -0.537463 0.063297 -0.648975 -1.285039 -0.387695
 14   7.002743 -0.617765 -0.183752 0.000172 0.000023 -1.706378
 15   8.209042 0.615527 -0.255885 2.458594 0.542189 -0.015041
 16   7.002735 -0.617911 -0.183641 0.013308 0.009341 -1.213183
 17   1.574674 0.609930 -0.000899 0.145018 0.058418 -0.243988
 18   -0.602177 0.511412 -0.000006 0.000000 0.000000 0.000000
 19   3.673773 0.177020 1.119313 -0.000002 -0.000014 -0.174510
 20   3.673767 0.176993 -1.117566 0.000007 -0.000003 -0.174546
 21   3.942357 1.334540 1.627658 0.000002 -0.000011 -0.000026
 22   -0.246060 -0.011889 0.516521 -0.000011 0.000031 0.000025
 23   3.942374 1.334565 -1.631083 0.000019 0.000002 -0.000024
 24   -0.246150 -0.011872 -0.516511 -0.000005 -0.000006 0.000048
 25   4.941364 1.997338 1.629330 0.000018 -0.000001 -0.000024
 26   4.941382 1.997366 -1.629410 -0.000001 0.000005 -0.000024
 27   2.914462 1.619264 1.514501 -0.000019 -0.000022 -0.000050
 28   2.916892 1.618870 -1.501142 -0.000002 -0.000009 -0.000024
 29   8.824059 0.150544 0.091743 0.000006 -0.000231 -0.174534
 30   2.111085 -0.561179 1.784320 -0.000008 -0.000682 0.000024
 31   2.121290 -0.561289 -1.853599 0.000000 0.000000 -0.000002
 32   -0.814395 -0.093824 3.127092 0.262921 -3.097582 -0.334816
 33   14.298673 -0.408176 0.471578 0.003687 -0.003117 -0.522469
 34   15.835795 0.581398 0.242756 -0.001271 0.032067 0.122292
 35   -0.815868 -0.091229 -3.114430 -0.132889 3.034913 -0.011455
 36   14.294526 -0.410349 -0.467541 -0.002676 0.001869 -0.384764
 37   15.834409 0.579420 -0.284600 -0.034128 0.026558 0.304555
 38   1.139685 -3.453749 -2.823813 0.000000 0.000000 0.000001
 39   -4.457742 -1.054854 -0.746180 0.000000 0.000000 0.000000
 40   1.118101 -3.449769 3.237290 0.000000 0.000001 0.000000
 41   -4.433840 -1.059130 0.959566 -0.000001 0.000000 0.000000
 42   -0.657468 1.697302 -2.688614 0.000000 0.000002 0.000000
 43   -0.664068 1.698578 2.869377 0.000000 0.000002 0.000000
time 10
  0   -0.010486 -0.546892 1.863709 0.000000 0.000000 -1.571354
  1   -1.093036 0.000002 -0.326057 -1.570808 -1.570749 0.000022
  2   2.262337 0.113614 0.064702 -0.010548 -0.030404 -0.096384
  3   2.380047 0.353302 0.047440 -0.014761 0.020118 0.003857
  4   2.033756 0.190472 -0.000128 -0.037817 -0.000611 0.051881
  5   2.451511 0.204909 -0.003447 -0.118055 -0.015071 0.121165
  6   7.247600 -0.397300 -0.109469 -0.016634 0.002250 0.459335
  7   -2.022252 -0.104661 3.136172 1.259005 -1.001464 -4.803743
  8   1.168026 -0.537438 -0.063437 -0.222703 0.226078 -0.265567
  9   6.790376 -0.619176 0.015206 -0.000102 -0.000085 -1.601572
 10   8.637599 0.544015 -0.090417 -3.799650 0.395604 0.589774
 11   6.790465 -0.619039 0.017802 0.002928 -0.011793 -1.136282
 12   -2.022474 -0.104699 -2.873818 -2.353258 1.853146 -5.974316
 13   1.167898 -0.537463 0.063297 -0.570243 -1.275275 -0.487275
 14   7.002743 -0.617765 -0.183752 0.000172 0.000023 -1.680471
 15   8.209042 0.615527 -0.255885 2.428755 0.561331 -0.071390
 16   7.002735 -0.617911 -0.183641 0.013308 0.009229 -1.194914
 17   1.574674 0.609930 -0.000899 0.216512 0.059767 -0.273187
 18   -0.602177 0.511412 -0.000006 0.000000 0.000000 0.000000
 19   3.673773 0.177020 1.119313 -0.000002 -0.000014 -0.174510
 20   3.673767 0.176993 -1.117566 0.000007 -0.000003 -0.174546
 21   3.942357 1.334540 1.627658 0.000002 -0.000011 -0.000026
 22   -0.246060 -0.011889 0.516521 -0.000011 0.000031 0.000025
 23   3.942374 1.334565 -1.631083 0.000019 0.000002 -0.000024
 24   -0.246150 -0.011872 -0.516511 -0.000005 -0.000006 0.000048
 25   4.941364 1.997338 1.629330 0.000018 -0.000001 -0.000024
 26   4.941382 1.997366 -1.629410 -0.000001 0.000005 -0.000024
 27   2.914462 1.619264 1.514501 -0.000019 -0.000022 -0.000050
 28   2.916892 1.618870 -1.501142 -0.000002 -0.000009 -0.000024
 29   8.824059 0.150544 0.091743 0.000006 -0.000231 -0.174534
 30   2.111085 -0.561179 1.784320 -0.000008 -0.000682 0.000024
 31   2.121290 -0.561289 -1.853599 0.000000 0.000000 -0.000002
 32   -0.814395 -0.093824 3.127092 0.262921 -3.097582 -0.334816
 33   14.298673 -0.408176 0.471578 0.003687 -0.003117 -0.522469
 34   15.835795 0.581398 0.242756 -0.001271 0.032067 0.122292
 35   -0.815868 -0.091229 -3.114430 -0.132889 3.034913 -0.011455
 36   14.294526 -0.410349 -0.467541 -0.002676 0.001869 -0.384764
 37   15.834409 0.579420 -0.284600 -0.034128 0.026558 0.304555
 38   1.139685 -3.453749 -2.823813 0.000000 0.000000 0.000001
 39   -4.457742 -1.054854 -0.746180 0.000000 0.000000 0.000000
 40   1.118101 -3.449769 3.237290 0.000000 0.000001 0.000000
 41   -4.433840 -1.059130 0.959566 -0.000001 0.000000 0.000000
 42   -0.657468 1.697302 -2.688614 0.000000 0.000002 0.000000
 43   -0.664068 1.698578 2.869377 0.000000 0.000002 0.000000
time 11
  0   -0.010486 -0.546892 1.863709 0.000000 0.000000 -1.571354
  1   -1.093036 0.000002 -0.326057 -1.570808 -1.570749 0.000022
  2   2.262337 0.113614 0.064702 -0.010548 -0.028199 -0.096421
  3   2.380047 0.353302 0.047440 -0.014761 0.011681 0.011447
  4   2.033756 0.190472 -0.000128 -0.053991 -0.003955 0.053077
  5   2.451511 0.204909 -0.003447 -0.116874 -0.014653 0.118713
  6   7.247600 -0.397300 -0.109469 -0.016634 0.002250 0.459335
  7   -2.022252 -0.104661 3.136172 1.259005 -1.001349 -4.803743
  8   1.168026 -0.537438 -0.063437 -0.272821 0.258229 -0.218438
  9   6.790376 -0.619176 0.015206 -0.000102 -0.000085 -1.689567
 10   8.637599 0.544015 -0.090417 -3.840776 0.346260 0.612852
 11   6.790465 -0.619039 0.017802 0.003337 -0.011793 -1.197994
 12   -2.022474 -0.104699 -2.873818 -2.349522 1.854103 -5.970869
 13   1.167898 -0.537463 0.063297 -0.792239 -1.100590 -0.219227
 14   7.002743 -0.617765 -0.183752 0.000172 0.000023 -1.710008
 15   8.209042 0.615527 -0.255885 2.256691 0.457450 -0.339001
 16   7.002735 -0.617911 -0.183641 0.013308 0.009341 -1.215722
 17   1.574674 0.609930 -0.000899 0.251528 0.072050 -0.295179
 18   -0.602177 0.511412 -0.000006 0.000000 0.000000 0.000000
 19   3.673773 0.177020 1.119313 -0.000002 -0.000014 -0.174510
 20   3.673767 0.176993 -1.117566 0.000007 -0.000003 -0.174546
 21   3.942357 1.334540 1.627658 0.000002 -0.000011 -0.000026
 22   -0.246060 -0.011889 0.516521 -0.000011 0.000031 0.000025
 23   3.942374 1.334565 -1.631083 0.000019 0.000002 -0.000024
 24   -0.246150 -0.011872 -0.516511 -0.000005 -0.000006 0.000048
 25   4.941364 1.997338 1.629330 0.000018 -0.000001 -0.000024
 26   4.941382 1.997366 -1.629410 -0.000001 0.000005 -0.000024
 27   2.914462 1.619264 1.514501 -0.000019 -0.000022 -0.000050
 28   2.916892 1.618870 -1.501142 -0.000002 -0.000009 -0.000024
 29   8.824059 0.150544 0.091743 0.000006 -0.000231 -0.174534
 30   2.111085 -0.561179 1.784320 -0.000008 -0.000682 0.000024
 31   2.121290 -0.561289 -1.853599 0.000000 0.000000 -0.000002
 32   -0.814395 -0.093824 3.127092 0.262921 -3.097582 -0.334816
 33   14.298673 -0.408176 0.471578 0.003687 -0.003117 -0.522469
 34   15.835795 0.581398 0.242756 -0.001271 0.032067 0.122292
 35   -0.815868 -0.091229 -3.114430 -0.132889 3.034913 -0.011455
 36   14.294526 -0.410349 -0.467541 -0.002676 0.001869 -0.384764
 37   15.834409 0.579420 -0.284600 -0.034128 0.026558 0.304555
 38   1.139685 -3.453749 -2.823813 0.000000 0.000000 0.000001
 39   -4.457742 -1.054854 -0.746180 0.000000 0.000000 0.000000
 40   1.118101 -3.449769 3.237290 0.000000 0.000001 0.000000
 41   -4.433840 -1.059130 0.959566 -0.000001 0.000000 0.000000
 42   -0.657468 1.697302 -2.688614 0.000000 0.000002 0.000000
 43   -0.664068 1.698578 2.869377 0.000000 0.000002 0.000000
time 12
  0   -0.010486 -0.546892 1.863709 0.000000 0.000000 -1.571354
  1   -1.093036 0.000002 -0.326057 -1.570808 -1.570749 0.000022
  2   2.262337 0.113614 0.064702 -0.010599 -0.022950 -0.096421
  3   2.380047 0.353302 0.047440 -0.014941 -0.008477 0.029363
  4   2.033756 0.190472 -0.000128 -0.093329 -0.011745 0.056158
  5   2.451511 0.204909 -0.003447 -0.115710 -0.012891 0.114008
  6   7.247600 -0.397300 -0.109469 -0.016634 0.002250 0.459335
  7   -2.022252 -0.104661 3.136172 1.259005 -1.001291 -4.803743
  8   1.168026 -0.537438 -0.063437 -0.303259 0.258531 -0.143980
  9   6.790376 -0.619176 0.015206 -0.000102 -0.000085 -1.803900
 10   8.637599 0.544015 -0.090417 -3.805374 0.252219 0.671017
 11   6.790465 -0.619039 0.017802 0.003892 -0.011850 -1.278046
 12   -2.022474 -0.104699 -2.873818 -2.344252 1.855584 -5.965508
 13   1.167898 -0.537463 0.063297 -0.899651 -0.910801 -0.090954
 14   7.002743 -0.617765 -0.183752 0.000172 0.000023 -1.750683
 15   8.209042 0.615527 -0.255885 2.125612 0.306585 -0.573717
 16   7.002735 -0.617911 -0.183641 0.013214 0.009623 -1.244146
 17   1.574674 0.609930 -0.000899 0.301776 0.087244 -0.309039
 18   -0.602177 0.511412 -0.000006 0.000000 0.000000 0.000000
 19   3.673773 0.177020 1.119313 -0.000002 -0.000014 -0.174510
 20   3.673767 0.176993 -1.117566 0.000007 -0.000003 -0.174546
 21   3.942357 1.334540 1.627658 0.000002 -0.000011 -0.000026
 22   -0.246060 -0.011889 0.516521 -0.000011 0.000031 0.000025
 23   3.942374 1.334565 -1.631083 0.000019 0.000002 -0.000024
 24   -0.246150 -0.011872 -0.516511 -0.000005 -0.000006 0.000048
 25   4.941364 1.997338 1.629330 0.000018 -0.000001 -0.000024
 26   4.941382 1.997366 -1.629410 -0.000001 0.000005 -0.000024
 27   2.914462 1.619264 1.514501 -0.000019 -0.000022 -0.000050
 28   2.916892 1.618870 -1.501142 -0.000002 -0.000009 -0.000024
 29   8.824059 0.150544 0.091743 0.000006 -0.000231 -0.174534
 30   2.111085 -0.561179 1.784320 -0.000008 -0.000682 0.000024
 31   2.121290 -0.561289 -1.853599 0.000000 0.000000 -0.000002
 32   -0.814395 -0.093824 3.127092 0.262921 -3.097582 -0.334816
 33   14.298673 -0.408176 0.471578 0.003687 -0.003117 -0.522469
 34   15.835795 0.581398 0.242756 -0.001271 0.032067 0.122292
 35   -0.815868 -0.091229 -3.114430 -0.132889 3.034913 -0.011455
 36   14.294526 -0.410349 -0.467541 -0.002676 0.001869 -0.384764
 37   15.834409 0.579420 -0.284600 -0.034128 0.026558 0.304555
 38   1.139685 -3.453749 -2.823813 0.000000 0.000000 0.000001
 39   -4.457742 -1.054854 -0.746180 0.000000 0.000000 0.000000
 40   1.118101 -3.449769 3.237290 0.000000 0.000001 0.000000
 41   -4.433840 -1.059130 0.959566 -0.000001 0.000000 0.000000
 42   -0.657468 1.697302 -2.688614 0.000000 0.000002 0.000000
 43   -0.664068 1.698578 2.869377 0.000000 0.000002 0.000000
time 13
  0   -0.010486 -0.546892 1.863709 0.000000 0.000000 -1.571354
  1   -1.093036 0.000002 -0.326057 -1.570808 -1.570749 0.000022
  2   2.262337 0.113614 0.064702 -0.010650 -0.016718 -0.096168
  3   2.380047 0.353302 0.047440 -0.015706 -0.032674 0.050850
  4   2.033756 0.190472 -0.000128 -0.141907 -0.020817 0.060725
  5   2.451511 0.204909 -0.003447 -0.118209 -0.008857 0.111432
  6   7.247600 -0.397300 -0.109469 -0.016634 0.002250 0.459335
  7   -2.022252 -0.104661 3.136172 1.259005 -1.001118 -4.803743
  8   1.168026 -0.537438 -0.063437 -0.318383 0.266581 -0.064589
  9   6.790376 -0.619176 0.015206 -0.000102 -0.000085 -1.930535
 10   8.637599 0.544015 -0.090417 -3.745930 0.132414 0.738008
 11   6.790465 -0.619039 0.017802 0.004475 -0.011850 -1.366635
 12   -2.022474 -0.104699 -2.873818 -2.340324 1.856658 -5.961678
 13   1.167898 -0.537463 0.063297 -0.939439 -0.801921 -0.068132
 14   7.002743 -0.617765 -0.183752 0.000172 0.000023 -1.779065
 15   8.209042 0.615527 -0.255885 2.066005 0.205050 -0.702350
 16   7.002735 -0.617911 -0.183641 0.013167 0.009792 -1.263960
 17   1.574674 0.609930 -0.000899 0.361815 0.102509 -0.322234
 18   -0.602177 0.511412 -0.000006 0.000000 0.000000 0.000000
 19   3.673773 0.177020 1.119313 -0.000002 -0.000014 -0.174510
 20   3.673767 0.176993 -1.117566 0.000007 -0.000003 -0.174546
 21   3.942357 1.334540 1.627658 0.000002 -0.000011 -0.000026
 22   -0.246060 -0.011889 0.516521 -0.000011 0.000031 0.000025
 23   3.942374 1.334565 -1.631083 0.000019 0.000002 -0.000024
 24   -0.246150 -0.011872 -0.516511 -0.000005 -0.000006 0.000048
 25   4.941364 1.997338 1.629330 0.000018 -0.000001 -0.000024
 26   4.941382 1.997366 -1.629410 -0.000001 0.000005 -0.000024
 27   2.914462 1.619264 1.514501 -0.000019 -0.000022 -0.000050
 28   2.916892 1.618870 -1.501142 -0.000002 -0.000009 -0.000024
 29   8.824059 0.150544 0.091743 0.000006 -0.000231 -0.174534
 30   2.111085 -0.561179 1.784320 -0.000008 -0.000682 0.000024
 31   2.121290 -0.561289 -1.853599 0.000000 0.000000 -0.000002
 32   -0.814395 -0.093824 3.127092 0.262921 -3.097582 -0.334816
 33   14.298673 -0.408176 0.471578 0.003687 -0.003117 -0.522469
 34   15.835795 0.581398 0.242756 -0.001271 0.032067 0.122292
 35   -0.815868 -0.091229 -3.114430 -0.132889 3.034913 -0.011455
 36   14.294526 -0.410349 -0.467541 -0.002676 0.001869 -0.384764
 37   15.834409 0.579420 -0.284600 -0.034128 0.026558 0.304555
 38   1.139685 -3.453749 -2.823813 0.000000 0.000000 0.000001
 39   -4.457742 -1.054854 -0.746180 0.000000 0.000000 0.000000
 40   1.118101 -3.449769 3.237290 0.000000 0.000001 0.000000
 41   -4.433840 -1.059130 0.959566 -0.000001 0.000000 0.000000
 42   -0.657468 1.697302 -2.688614 0.000000 0.000002 0.000000
 43   -0.664068 1.698578 2.869377 0.000000 0.000002 0.000000
time 14
  0   -0.010486 -0.546892 1.863709 0.000000 0.000000 -1.571354
  1   -1.093036 0.000002 -0.326057 -1.570808 -1.570749 0.000022
  2   2.262337 0.113614 0.064702 -0.010650 -0.011528 -0.095445
  3   2.380047 0.353302 0.047440 -0.016741 -0.052880 0.068848
  4   2.033756 0.190472 -0.000128 -0.185948 -0.028308 0.065691
  5   2.451511 0.204909 -0.003447 -0.128137 -0.001506 0.114949
  6   7.247600 -0.397300 -0.109469 -0.016634 0.002250 0.459335
  7   -2.022252 -0.104661 3.136172 1.259101 -1.000974 -4.803837
  8   1.168026 -0.537438 -0.063437 -0.321294 0.321323 -0.002910
  9   6.790376 -0.619176 0.015206 -0.000102 -0.000085 -2.055056
 10   8.637599 0.544015 -0.090417 -3.706477 0.010146 0.799139
 11   6.790465 -0.619039 0.017802 0.005089 -0.011850 -1.453782
 12   -2.022474 -0.104699 -2.873818 -2.338791 1.857035 -5.960242
 13   1.167898 -0.537463 0.063297 -0.941618 -0.780613 -0.109901
 14   7.002743 -0.617765 -0.183752 0.000172 0.000137 -1.788388
 15   8.209042 0.615527 -0.255885 2.050617 0.174408 -0.739816
 16   7.002735 -0.617911 -0.183641 0.013120 0.009849 -1.270473
 17   1.574674 0.609930 -0.000899 0.420106 0.109089 -0.331216
 18   -0.602177 0.511412 -0.000006 0.000000 0.000000 0.000000
 19   3.673773 0.177020 1.119313 -0.000002 -0.000014 -0.174510
 20   3.673767 0.176993 -1.117566 0.000007 -0.000003 -0.174546
 21   3.942357 1.334540 1.627658 0.000002 -0.000011 -0.000026
 22   -0.246060 -0.011889 0.516521 -0.000011 0.000031 0.000025
 23   3.942374 1.334565 -1.631083 0.000019 0.000002 -0.000024
 24   -0.246150 -0.011872 -0.516511 -0.000005 -0.000006 0.000048
 25   4.941364 1.997338 1.629330 0.000018 -0.000001 -0.000024
 26   4.941382 1.997366 -1.629410 -0.000001 0.000005 -0.000024
 27   2.914462 1.619264 1.514501 -0.000019 -0.000022 -0.000050
 28   2.916892 1.618870 -1.501142 -0.000002 -0.000009 -0.000024
 29   8.824059 0.150544 0.091743 0.000006 -0.000231 -0.174534
 30   2.111085 -0.561179 1.784320 -0.000008 -0.000682 0.000024
 31   2.121290 -0.561289 -1.853599 0.000000 0.000000 -0.000002
 32   -0.814395 -0.093824 3.127092 0.262921 -3.097582 -0.334816
 33   14.298673 -0.408176 0.471578 0.003687 -0.003117 -0.522469
 34   15.835795 0.581398 0.242756 -0.001271 0.032067 0.122292
 35   -0.815868 -0.091229 -3.114430 -0.132889 3.034913 -0.011455
 36   14.294526 -0.410349 -0.467541 -0.002676 0.001869 -0.384764
 37   15.834409 0.579420 -0.284600 -0.034128 0.026558 0.304555
 38   1.139685 -3.453749 -2.823813 0.000000 0.000000 0.000001
 39   -4.457742 -1.054854 -0.746180 0.000000 0.000000 0.000000
 40   1.118101 -3.449769 3.237290 0.000000 0.000001 0.000000
 41   -4.433840 -1.059130 0.959566 -0.000001 0.000000 0.000000
 42   -0.657468 1.697302 -2.688614 0.000000 0.000002 0.000000
 43   -0.664068 1.698578 2.869377 0.000000 0.000002 0.000000
time 15
  0   -0.010486 -0.546892 1.863709 0.000000 0.000000 -1.571354
  1   -1.093036 0.000002 -0.326057 -1.570808 -1.570749 0.000022
  2   2.262337 0.113614 0.064702 -0.010548 -0.010725 -0.090999
  3   2.380047 0.353302 0.047440 -0.016966 -0.057938 0.073031
  4   2.033756 0.190472 -0.000128 -0.223165 -0.029818 0.072904
  5   2.451511 0.204909 -0.003447 -0.190562 0.032882 0.159576
  6   7.247600 -0.397300 -0.109469 -0.016634 0.002250 0.459335
  7   -2.022252 -0.104661 3.136172 1.259676 -1.000599 -4.804494
  8   1.168026 -0.537438 -0.063437 -0.232701 0.684592 -0.023090
  9   6.790376 -0.619176 0.015206 -0.000102 -0.000085 -2.195048
 10   8.637599 0.544015 -0.090417 -3.681907 -0.169983 0.892391
 11   6.790465 -0.619039 0.017802 0.005819 -0.011879 -1.551829
 12   -2.022474 -0.104699 -2.873818 -2.328827 1.859966 -5.950859
 13   1.167898 -0.537463 0.063297 -0.992513 -0.718520 -0.161174
 14   7.002743 -0.617765 -0.183752 0.000172 0.000137 -1.828238
 15   8.209042 0.615527 -0.255885 2.040767 0.185227 -0.757136
 16   7.002735 -0.617911 -0.183641 0.013120 0.010074 -1.298456
 17   1.574674 0.609930 -0.000899 0.515770 0.070275 -0.370912
 18   -0.602177 0.511412 -0.000006 0.000000 0.000000 0.000000
 19   3.673773 0.177020 1.119313 -0.000002 -0.000014 -0.174510
 20   3.673767 0.176993 -1.117566 0.000007 -0.000003 -0.174546
 21   3.942357 1.334540 1.627658 0.000002 -0.000011 -0.000026
 22   -0.246060 -0.011889 0.516521 -0.000011 0.000031 0.000025
 23   3.942374 1.334565 -1.631083 0.000019 0.000002 -0.000024
 24   -0.246150 -0.011872 -0.516511 -0.000005 -0.000006 0.000048
 25   4.941364 1.997338 1.629330 0.000018 -0.000001 -0.000024
 26   4.941382 1.997366 -1.629410 -0.000001 0.000005 -0.000024
 27   2.914462 1.619264 1.514501 -0.000019 -0.000022 -0.000050
 28   2.916892 1.618870 -1.501142 -0.000002 -0.000009 -0.000024
 29   8.824059 0.150544 0.091743 0.000006 -0.000231 -0.174534
 30   2.111085 -0.561179 1.784320 -0.000008 -0.000682 0.000024
 31   2.121290 -0.561289 -1.853599 0.000000 0.000000 -0.000002
 32   -0.814395 -0.093824 3.127092 0.262921 -3.097582 -0.334816
 33   14.298673 -0.408176 0.471578 0.003687 -0.003117 -0.522469
 34   15.835795 0.581398 0.242756 -0.001271 0.032067 0.122292
 35   -0.815868 -0.091229 -3.114430 -0.132889 3.034913 -0.011455
 36   14.294526 -0.410349 -0.467541 -0.002676 0.001869 -0.384764
 37   15.834409 0.579420 -0.284600 -0.034128 0.026558 0.304555
 38   1.139685 -3.453749 -2.823813 0.000000 0.000000 0.000001
 39   -4.457742 -1.054854 -0.746180 0.000000 0.000000 0.000000
 40   1.118101 -3.449769 3.237290 0.000000 0.000001 0.000000
 41   -4.433840 -1.059130 0.959566 -0.000001 0.000000 0.000000
 42   -0.657468 1.697302 -2.688614 0.000000 0.000002 0.000000
 43   -0.664068 1.698578 2.869377 0.000000 0.000002 0.000000
time 16
  0   -0.010486 -0.546892 1.863709 0.000000 0.000000 -1.571354
  1   -1.093036 0.000002 -0.326057 -1.570808 -1.570749 0.000022
  2   2.262337 0.113614 0.064702 -0.010408 -0.012763 -0.087747
  3   2.380047 0.353302 0.047440 -0.016876 -0.057818 0.072664
  4   2.033756 0.190472 -0.000128 -0.225987 -0.029087 0.077290
  5   2.451511 0.204909 -0.003447 -0.186026 0.027229 0.139615
  6   7.247600 -0.397300 -0.109469 -0.016634 0.002250 0.459335
  7   -2.022252 -0.104661 3.136172 1.259676 -1.000282 -4.804682
  8   1.168026 -0.537438 -0.063437 -0.303955 0.690429 0.054341
  9   6.790376 -0.619176 0.015206 -0.000102 -0.000085 -2.217311
 10   8.637599 0.544015 -0.090417 -3.670459 -0.182864 0.917566
 11   6.790465 -0.619039 0.017802 0.005906 -0.011879 -1.567459
 12   -2.022474 -0.104699 -2.873818 -2.322312 1.861737 -5.944444
 13   1.167898 -0.537463 0.063297 -0.988717 -0.729402 -0.163293
 14   7.002743 -0.617765 -0.183752 0.000172 0.000137 -1.828568
 15   8.209042 0.615527 -0.255885 2.045800 0.152845 -0.758819
 16   7.002735 -0.617911 -0.183641 0.013120 0.010074 -1.298732
 17   1.574674 0.609930 -0.000899 0.510327 0.059980 -0.330476
 18   -0.602177 0.511412 -0.000006 0.000000 0.000000 0.000000
 19   3.673773 0.177020 1.119313 -0.000002 -0.000014 -0.174510
 20   3.673767 0.176993 -1.117566 0.000007 -0.000003 -0.174546
 21   3.942357 1.334540 1.627658 0.000002 -0.000011 -0.000026
 22   -0.246060 -0.011889 0.516521 -0.000011 0.000031 0.000025
 23   3.942374 1.334565 -1.631083 0.000019 0.000002 -0.000024
 24   -0.246150 -0.011872 -0.516511 -0.000005 -0.000006 0.000048
 25   4.941364 1.997338 1.629330 0.000018 -0.000001 -0.000024
 26   4.941382 1.997366 -1.629410 -0.000001 0.000005 -0.000024
 27   2.914462 1.619264 1.514501 -0.000019 -0.000022 -0.000050
 28   2.916892 1.618870 -1.501142 -0.000002 -0.000009 -0.000024
 29   8.824059 0.150544 0.091743 0.000006 -0.000231 -0.174534
 30   2.111085 -0.561179 1.784320 -0.000008 -0.000682 0.000024
 31   2.121290 -0.561289 -1.853599 0.000000 0.000000 -0.000002
 32   -0.814395 -0.093824 3.127092 0.262921 -3.097582 -0.334816
 33   14.298673 -0.408176 0.471578 0.003687 -0.003117 -0.522469
 34   15.835795 0.581398 0.242756 -0.001271 0.032067 0.122292
 35   -0.815868 -0.091229 -3.114430 -0.132889 3.034913 -0.011455
 36   14.294526 -0.410349 -0.467541 -0.002676 0.001869 -0.384764
 37   15.834409 0.579420 -0.284600 -0.034128 0.026558 0.304555
 38   1.139685 -3.453749 -2.823813 0.000000 0.000000 0.000001
 39   -4.457742 -1.054854 -0.746180 0.000000 0.000000 0.000000
 40   1.118101 -3.449769 3.237290 0.000000 0.000001 0.000000
 41   -4.433840 -1.059130 0.959566 -0.000001 0.000000 0.000000
 42   -0.657468 1.697302 -2.688614 0.000000 0.000002 0.000000
 43   -0.664068 1.698578 2.869377 0.000000 0.000002 0.000000
time 17
  0   -0.010486 -0.546892 1.863709 0.000000 0.000000 -1.571354
  1   -1.093036 0.000002 -0.326057 -1.570808 -1.570749 0.000022
  2   2.262337 0.113614 0.064702 -0.010217 -0.011996 -0.077320
  3   2.380047 0.353302 0.047440 -0.016531 -0.056607 0.070807
  4   2.033756 0.190472 -0.000128 -0.212118 -0.026318 0.091426
  5   2.451511 0.204909 -0.003447 -0.167574 0.020074 0.133523
  6   7.247600 -0.397300 -0.109469 -0.016634 0.002250 0.459335
  7   -2.022252 -0.104661 3.136172 1.260347 -0.999504 -4.804776
  8   1.168026 -0.537438 -0.063437 -0.441969 0.661901 0.059402
  9   6.790376 -0.619176 0.015206 -0.000102 -0.000085 -2.118524
 10   8.637599 0.544015 -0.090417 -3.600359 -0.143305 0.893186
 11   6.790465 -0.619039 0.017802 0.005410 -0.011850 -1.498307
 12   -2.022474 -0.104699 -2.873818 -2.302289 1.868006 -5.925009
 13   1.167898 -0.537463 0.063297 -0.980984 -0.747456 -0.148341
 14   7.002743 -0.617765 -0.183752 0.000172 0.000137 -1.831786
 15   8.209042 0.615527 -0.255885 2.024589 0.152845 -0.704215
 16   7.002735 -0.617911 -0.183641 0.013073 0.010074 -1.300939
 17   1.574674 0.609930 -0.000899 0.473767 0.054442 -0.306637
 18   -0.602177 0.511412 -0.000006 0.000000 0.000000 0.000000
 19   3.673773 0.177020 1.119313 -0.000002 -0.000014 -0.174510
 20   3.673767 0.176993 -1.117566 0.000007 -0.000003 -0.174546
 21   3.942357 1.334540 1.627658 0.000002 -0.000011 -0.000026
 22   -0.246060 -0.011889 0.516521 -0.000011 0.000031 0.000025
 23   3.942374 1.334565 -1.631083 0.000019 0.000002 -0.000024
 24   -0.246150 -0.011872 -0.516511 -0.000005 -0.000006 0.000048
 25   4.941364 1.997338 1.629330 0.000018 -0.000001 -0.000024
 26   4.941382 1.997366 -1.629410 -0.000001 0.000005 -0.000024
 27   2.914462 1.619264 1.514501 -0.000019 -0.000022 -0.000050
 28   2.916892 1.618870 -1.501142 -0.000002 -0.000009 -0.000024
 29   8.824059 0.150544 0.091743 0.000006 -0.000231 -0.174534
 30   2.111085 -0.561179 1.784320 -0.000008 -0.000682 0.000024
 31   2.121290 -0.561289 -1.853599 0.000000 0.000000 -0.000002
 32   -0.814395 -0.093824 3.127092 0.262921 -3.097582 -0.334816
 33   14.298673 -0.408176 0.471578 0.003687 -0.003117 -0.522469
 34   15.835795 0.581398 0.242756 -0.001271 0.032067 0.122292
 35   -0.815868 -0.091229 -3.114430 -0.132889 3.034913 -0.011455
 36   14.294526 -0.410349 -0.467541 -0.002676 0.001869 -0.384764
 37   15.834409 0.579420 -0.284600 -0.034128 0.026558 0.304555
 38   1.139685 -3.453749 -2.823813 0.000000 0.000000 0.000001
 39   -4.457742 -1.054854 -0.746180 0.000000 0.000000 0.000000
 40   1.118101 -3.449769 3.237290 0.000000 0.000001 0.000000
 41   -4.433840 -1.059130 0.959566 -0.000001 0.000000 0.000000
 42   -0.657468 1.697302 -2.688614 0.000000 0.000002 0.000000
 43   -0.664068 1.698578 2.869377 0.000000 0.000002 0.000000
time 18
  0   -0.010486 -0.546892 1.863709 0.000000 0.000000 -1.571354
  1   -1.093036 0.000002 -0.326057 -1.570808 -1.570749 0.000022
  2   2.262337 0.113614 0.064702 -0.009873 -0.005668 -0.054876
  3   2.380047 0.353302 0.047440 -0.015931 -0.055852 0.068460
  4   2.033756 0.190472 -0.000128 -0.184325 -0.021668 0.122236
  5   2.451511 0.204909 -0.003447 -0.152340 0.025336 0.174163
  6   7.247600 -0.397300 -0.109469 -0.016634 0.002250 0.459335
  7   -2.022252 -0.104661 3.136172 1.261497 -0.997774 -4.805997
  8   1.168026 -0.537438 -0.063437 -0.638139 0.694706 -0.101533
  9   6.790376 -0.619176 0.015206 -0.000102 -0.000085 -1.871293
 10   8.637599 0.544015 -0.090417 -3.439201 -0.076223 0.822434
 11   6.790465 -0.619039 0.017802 0.004213 -0.011850 -1.325167
 12   -2.022474 -0.104699 -2.873818 -2.260804 1.881647 -5.885468
 13   1.167898 -0.537463 0.063297 -0.988506 -0.751778 -0.125943
 14   7.002743 -0.617765 -0.183752 0.000172 0.000137 -1.854805
 15   8.209042 0.615527 -0.255885 1.962393 0.226764 -0.567703
 16   7.002735 -0.617911 -0.183641 0.013073 0.010244 -1.316945
 17   1.574674 0.609930 -0.000899 0.423640 0.042372 -0.335318
 18   -0.602177 0.511412 -0.000006 0.000000 0.000000 0.000000
 19   3.673773 0.177020 1.119313 -0.000002 -0.000014 -0.174510
 20   3.673767 0.176993 -1.117566 0.000007 -0.000003 -0.174546
 21   3.942357 1.334540 1.627658 0.000002 -0.000011 -0.000026
 22   -0.246060 -0.011889 0.516521 -0.000011 0.000031 0.000025
 23   3.942374 1.334565 -1.631083 0.000019 0.000002 -0.000024
 24   -0.246150 -0.011872 -0.516511 -0.000005 -0.000006 0.000048
 25   4.941364 1.997338 1.629330 0.000018 -0.000001 -0.000024
 26   4.941382 1.997366 -1.629410 -0.000001 0.000005 -0.000024
 27   2.914462 1.619264 1.514501 -0.000019 -0.000022 -0.000050
 28   2.916892 1.618870 -1.501142 -0.000002 -0.000009 -0.000024
 29   8.824059 0.150544 0.091743 0.000006 -0.000231 -0.174534
 30   2.111085 -0.561179 1.784320 -0.000008 -0.000682 0.000024
 31   2.121290 -0.561289 -1.853599 0.000000 0.000000 -0.000002
 32   -0.814395 -0.093824 3.127092 0.262921 -3.097582 -0.334816
 33   14.298673 -0.408176 0.471578 0.003687 -0.003117 -0.522469
 34   15.835795 0.581398 0.242756 -0.001271 0.032067 0.122292
 35   -0.815868 -0.091229 -3.114430 -0.132889 3.034913 -0.011455
 36   14.294526 -0.410349 -0.467541 -0.002676 0.001869 -0.384764
 37   15.834409 0.579420 -0.284600 -0.034128 0.026558 0.304555
 38   1.139685 -3.453749 -2.823813 0.000000 0.000000 0.000001
 39   -4.457742 -1.054854 -0.746180 0.000000 0.000000 0.000000
 40   1.118101 -3.449769 3.237290 0.000000 0.000001 0.000000
 41   -4.433840 -1.059130 0.959566 -0.000001 0.000000 0.000000
 42   -0.657468 1.697302 -2.688614 0.000000 0.000002 0.000000
 43   -0.664068 1.698578 2.869377 0.000000 0.000002 0.000000
time 19
  0   -0.010486 -0.546892 1.863709 0.000000 0.000000 -1.571354
  1   -1.093036 0.000002 -0.326057 -1.570808 -1.570749 0.000022
  2   2.262337 0.113614 0.064702 -0.009236 0.001930 -0.029414
  3   2.380047 0.353302 0.047440 -0.015226 -0.055073 0.065828
  4   2.033756 0.190472 -0.000128 -0.151995 -0.017473 0.157396
  5   2.451511 0.204909 -0.003447 -0.136028 0.032125 0.225477
  6   7.247600 -0.397300 -0.109469 -0.016634 0.002250 0.459335
  7   -2.022252 -0.104661 3.136172 1.262935 -0.995814 -4.807030
  8   1.168026 -0.537438 -0.063437 -0.854874 0.707385 -0.318516
  9   6.790376 -0.619176 0.015206 -0.000102 -0.000085 -1.583007
 10   8.637599 0.544015 -0.090417 -3.261398 0.014159 0.752260
 11   6.790465 -0.619039 0.017802 0.002870 -0.011765 -1.123362
 12   -2.022474 -0.104699 -2.873818 -2.218170 1.897813 -5.845065
 13   1.167898 -0.537463 0.063297 -1.000316 -0.758440 -0.100155
 14   7.002743 -0.617765 -0.183752 0.000172 0.000137 -1.881454
 15   8.209042 0.615527 -0.255885 1.902641 0.327391 -0.413270
 16   7.002735 -0.617911 -0.183641 0.012978 0.010356 -1.335711
 17   1.574674 0.609930 -0.000899 0.363561 0.023793 -0.355166
 18   -0.602177 0.511412 -0.000006 0.000000 0.000000 0.000000
 19   3.673773 0.177020 1.119313 -0.000002 -0.000014 -0.174510
 20   3.673767 0.176993 -1.117566 0.000007 -0.000003 -0.174546
 21   3.942357 1.334540 1.627658 0.000002 -0.000011 -0.000026
 22   -0.246060 -0.011889 0.516521 -0.000011 0.000031 0.000025
 23   3.942374 1.334565 -1.631083 0.000019 0.000002 -0.000024
 24   -0.246150 -0.011872 -0.516511 -0.000005 -0.000006 0.000048
 25   4.941364 1.997338 1.629330 0.000018 -0.000001 -0.000024
 26   4.941382 1.997366 -1.629410 -0.000001 0.000005 -0.000024
 27   2.914462 1.619264 1.514501 -0.000019 -0.000022 -0.000050
 28   2.916892 1.618870 -1.501142 -0.000002 -0.000009 -0.000024
 29   8.824059 0.150544 0.091743 0.000006 -0.000231 -0.174534
 30   2.111085 -0.561179 1.784320 -0.000008 -0.000682 0.000024
 31   2.121290 -0.561289 -1.853599 0.000000 0.000000 -0.000002
 32   -0.814395 -0.093824 3.127092 0.262921 -3.097582 -0.334816
 33   14.298673 -0.408176 0.471578 0.003687 -0.003117 -0.522469
 34   15.835795 0.581398 0.242756 -0.001271 0.032067 0.122292
 35   -0.815868 -0.091229 -3.114430 -0.132889 3.034913 -0.011455
 36   14.294526 -0.410349 -0.467541 -0.002676 0.001869 -0.384764
 37   15.834409 0.579420 -0.284600 -0.034128 0.026558 0.304555
 38   1.139685 -3.453749 -2.823813 0.000000 0.000000 0.000001
 39   -4.457742 -1.054854 -0.746180 0.000000 0.000000 0.000000
 40   1.118101 -3.449769 3.237290 0.000000 0.000001 0.000000
 41   -4.433840 -1.059130 0.959566 -0.000001 0.000000 0.000000
 42   -0.657468 1.697302 -2.688614 0.000000 0.000002 0.000000
 43   -0.664068 1.698578 2.869377 0.000000 0.000002 0.000000
time 20
  0   -0.010486 -0.546892 1.863709 0.000000 0.000000 -1.571354
  1   -1.093036 0.000002 -0.326057 -1.570808 -1.570749 0.000022
  2   2.262337 0.113614 0.064702 -0.008370 0.010284 -0.002308
  3   2.380047 0.353302 0.047440 -0.014596 -0.054294 0.063012
  4   2.033756 0.190472 -0.000128 -0.116991 -0.014310 0.195020
  5   2.451511 0.204909 -0.003447 -0.118894 0.039149 0.282908
  6   7.247600 -0.397300 -0.109469 -0.016634 0.002250 0.459335
  7   -2.022252 -0.104661 3.136172 1.264373 -0.993738 -4.808251
  8   1.168026 -0.537438 -0.063437 -1.069332 0.688165 -0.563460
  9   6.790376 -0.619176 0.015206 -0.000102 -0.000085 -1.271477
 10   8.637599 0.544015 -0.090417 -3.077166 0.123475 0.693516
 11   6.790465 -0.619039 0.017802 0.001527 -0.011623 -0.905294
 12   -2.022474 -0.104699 -2.873818 -2.177069 1.915576 -5.805907
 13   1.167898 -0.537463 0.063297 -1.015851 -0.769120 -0.072733
 14   7.002743 -0.617765 -0.183752 0.000172 0.000137 -1.910661
 15   8.209042 0.615527 -0.255885 1.855832 0.447387 -0.248133
 16   7.002735 -0.617911 -0.183641 0.012931 0.010582 -1.356132
 17   1.574674 0.609930 -0.000899 0.297186 0.006303 -0.367696
 18   -0.602177 0.511412 -0.000006 0.000000 0.000000 0.000000
 19   3.673773 0.177020 1.119313 -0.000002 -0.000014 -0.174510
 20   3.673767 0.176993 -1.117566 0.000007 -0.000003 -0.174546
 21   3.942357 1.334540 1.627658 0.000002 -0.000011 -0.000026
 22   -0.246060 -0.011889 0.516521 -0.000011 0.000031 0.000025
 23   3.942374 1.334565 -1.631083 0.000019 0.000002 -0.000024
 24   -0.246150 -0.011872 -0.516511 -0.000005 -0.000006 0.000048
 25   4.941364 1.997338 1.629330 0.000018 -0.000001 -0.000024
 26   4.941382 1.997366 -1.629410 -0.000001 0.000005 -0.000024
 27   2.914462 1.619264 1.514501 -0.000019 -0.000022 -0.000050
 28   2.916892 1.618870 -1.501142 -0.000002 -0.000009 -0.000024
 29   8.824059 0.150544 0.091743 0.000006 -0.000231 -0.174534
 30   2.111085 -0.561179 1.784320 -0.000008 -0.000682 0.000024
 31   2.121290 -0.561289 -1.853599 0.000000 0.000000 -0.000002
 32   -0.814395 -0.093824 3.127092 0.262921 -3.097582 -0.334816
 33   14.298673 -0.408176 0.471578 0.003687 -0.003117 -0.522469
 34   15.835795 0.581398 0.242756 -0.001271 0.032067 0.122292
 35   -0.815868 -0.091229 -3.114430 -0.132889 3.034913 -0.011455
 36   14.294526 -0.410349 -0.467541 -0.002676 0.001869 -0.384764
 37   15.834409 0.579420 -0.284600 -0.034128 0.026558 0.304555
 38   1.139685 -3.453749 -2.823813 0.000000 0.000000 0.000001
 39   -4.457742 -1.054854 -0.746180 0.000000 0.000000 0.000000
 40   1.118101 -3.449769 3.237290 0.000000 0.000001 0.000000
 41   -4.433840 -1.059130 0.959566 -0.000001 0.000000 0.000000
 42   -0.657468 1.697302 -2.688614 0.000000 0.000002 0.000000
 43   -0.664068 1.698578 2.869377 0.000000 0.000002 0.000000
time 21
  0   -0.010486 -0.546892 1.863709 0.000000 0.000000 -1.571354
  1   -1.093036 0.000002 -0.326057 -1.570808 -1.570749 0.000022
  2   2.262337 0.113614 0.064702 -0.007300 0.018852 0.025359
  3   2.380047 0.353302 0.047440 -0.013876 -0.053503 0.060257
  4   2.033756 0.190472 -0.000128 -0.081323 -0.012440 0.233369
  5   2.451511 0.204909 -0.003447 -0.101195 0.045455 0.341998
  6   7.247600 -0.397300 -0.109469 -0.016634 0.002250 0.459335
  7   -2.022252 -0.104661 3.136172 1.265715 -0.991576 -4.809660
  8   1.168026 -0.537438 -0.063437 -1.258034 0.637901 -0.804482
  9   6.790376 -0.619176 0.015206 -0.000102 -0.000085 -0.954136
 10   8.637599 0.544015 -0.090417 -2.892846 0.244265 0.654450
 11   6.790465 -0.619039 0.017802 0.000213 -0.011395 -0.683072
 12   -2.022474 -0.104699 -2.873818 -2.139129 1.934180 -5.770100
 13   1.167898 -0.537463 0.063297 -1.034690 -0.784681 -0.044887
 14   7.002743 -0.617765 -0.183752 0.000172 0.000137 -1.940528
 15   8.209042 0.615527 -0.255885 1.829085 0.576008 -0.076261
 16   7.002735 -0.617911 -0.183641 0.012884 0.010751 -1.377050
 17   1.574674 0.609930 -0.000899 0.228089 -0.004465 -0.375902
 18   -0.602177 0.511412 -0.000006 0.000000 0.000000 0.000000
 19   3.673773 0.177020 1.119313 -0.000002 -0.000014 -0.174510
 20   3.673767 0.176993 -1.117566 0.000007 -0.000003 -0.174546
 21   3.942357 1.334540 1.627658 0.000002 -0.000011 -0.000026
 22   -0.246060 -0.011889 0.516521 -0.000011 0.000031 0.000025
 23   3.942374 1.334565 -1.631083 0.000019 0.000002 -0.000024
 24   -0.246150 -0.011872 -0.516511 -0.000005 -0.000006 0.000048
 25   4.941364 1.997338 1.629330 0.000018 -0.000001 -0.000024
 26   4.941382 1.997366 -1.629410 -0.000001 0.000005 -0.000024
 27   2.914462 1.619264 1.514501 -0.000019 -0.000022 -0.000050
 28   2.916892 1.618870 -1.501142 -0.000002 -0.000009 -0.000024
 29   8.824059 0.150544 0.091743 0.000006 -0.000231 -0.174534
 30   2.111085 -0.561179 1.784320 -0.000008 -0.000682 0.000024
 31   2.121290 -0.561289 -1.853599 0.000000 0.000000 -0.000002
 32   -0.814395 -0.093824 3.127092 0.262921 -3.097582 -0.334816
 33   14.298673 -0.408176 0.471578 0.003687 -0.003117 -0.522469
 34   15.835795 0.581398 0.242756 -0.001271 0.032067 0.122292
 35   -0.815868 -0.091229 -3.114430 -0.132889 3.034913 -0.011455
 36   14.294526 -0.410349 -0.467541 -0.002676 0.001869 -0.384764
 37   15.834409 0.579420 -0.284600 -0.034128 0.026558 0.304555
 38   1.139685 -3.453749 -2.823813 0.000000 0.000000 0.000001
 39   -4.457742 -1.054854 -0.746180 0.000000 0.000000 0.000000
 40   1.118101 -3.449769 3.237290 0.000000 0.000001 0.000000
 41   -4.433840 -1.059130 0.959566 -0.000001 0.000000 0.000000
 42   -0.657468 1.697302 -2.688614 0.000000 0.000002 0.000000
 43   -0.664068 1.698578 2.869377 0.000000 0.000002 0.000000
time 22
  0   -0.010486 -0.546892 1.863709 0.000000 0.000000 -1.571354
  1   -1.093036 0.000002 -0.326057 -1.570808 -1.570749 0.000022
  2   2.262337 0.113614 0.064702 -0.005988 0.027002 0.052176
  3   2.380047 0.353302 0.047440 -0.013141 -0.052712 0.057543
  4   2.033756 0.190472 -0.000128 -0.046854 -0.011901 0.270559
  5   2.451511 0.204909 -0.003447 -0.083342 0.050168 0.398166
  6   7.247600 -0.397300 -0.109469 -0.016634 0.002250 0.459335
  7   -2.022252 -0.104661 3.136172 1.267440 -0.989530 -4.810599
  8   1.168026 -0.537438 -0.063437 -1.410287 0.568064 -1.019062
  9   6.790376 -0.619176 0.015206 -0.000047 -0.000085 -0.648418
 10   8.637599 0.544015 -0.090417 -2.712313 0.365195 0.639113
 11   6.790465 -0.619039 0.017802 -0.000984 -0.011196 -0.469041
 12   -2.022474 -0.104699 -2.873818 -2.105788 1.952640 -5.738984
 13   1.167898 -0.537463 0.063297 -1.056131 -0.804413 -0.018191
 14   7.002743 -0.617765 -0.183752 0.000172 0.000137 -1.969157
 15   8.209042 0.615527 -0.255885 1.827071 0.700998 0.099580
 16   7.002735 -0.617911 -0.183641 0.012837 0.010920 -1.397085
 17   1.574674 0.609930 -0.000899 0.161470 -0.006240 -0.384440
 18   -0.602177 0.511412 -0.000006 0.000000 0.000000 0.000000
 19   3.673773 0.177020 1.119313 -0.000002 -0.000014 -0.174510
 20   3.673767 0.176993 -1.117566 0.000007 -0.000003 -0.174546
 21   3.942357 1.334540 1.627658 0.000002 -0.000011 -0.000026
 22   -0.246060 -0.011889 0.516521 -0.000011 0.000031 0.000025
 23   3.942374 1.334565 -1.631083 0.000019 0.000002 -0.000024
 24   -0.246150 -0.011872 -0.516511 -0.000005 -0.000006 0.000048
 25   4.941364 1.997338 1.629330 0.000018 -0.000001 -0.000024
 26   4.941382 1.997366 -1.629410 -0.000001 0.000005 -0.000024
 27   2.914462 1.619264 1.514501 -0.000019 -0.000022 -0.000050
 28   2.916892 1.618870 -1.501142 -0.000002 -0.000009 -0.000024
 29   8.824059 0.150544 0.091743 0.000006 -0.000231 -0.174534
 30   2.111085 -0.561179 1.784320 -0.000008 -0.000682 0.000024
 31   2.121290 -0.561289 -1.853599 0.000000 0.000000 -0.000002
 32   -0.814395 -0.093824 3.127092 0.262921 -3.097582 -0.334816
 33   14.298673 -0.408176 0.471578 0.003687 -0.003117 -0.522469
 34   15.835795 0.581398 0.242756 -0.001271 0.032067 0.122292
 35   -0.815868 -0.091229 -3.114430 -0.132889 3.034913 -0.011455
 36   14.294526 -0.410349 -0.467541 -0.002676 0.001869 -0.384764
 37   15.834409 0.579420 -0.284600 -0.034128 0.026558 0.304555
 38   1.139685 -3.453749 -2.823813 0.000000 0.000000 0.000001
 39   -4.457742 -1.054854 -0.746180 0.000000 0.000000 0.000000
 40   1.118101 -3.449769 3.237290 0.000000 0.000001 0.000000
 41   -4.433840 -1.059130 0.959566 -0.000001 0.000000 0.000000
 42   -0.657468 1.697302 -2.688614 0.000000 0.000002 0.000000
 43   -0.664068 1.698578 2.869377 0.000000 0.000002 0.000000
end
