version 1
nodes
  0 "Bip01" -1
  1 "Bip01 Pelvis" 0
  2 "Bip01 Spine" 1
  3 "Bip01 Spine1" 2
  4 "Bip01 Spine2" 3
  5 "Bip01 Spine3" 4
  6 "Bip01 Neck" 5
  7 "Bip01 L Arm" 6
  8 "Bip01 L Arm1" 7
  9 "Bip01 L Arm2" 8
 10 "Bip01 L Hand" 9
 11 "Bip06 L elbow2-smooth" 8
 12 "Bip01 R Arm" 6
 13 "Bip01 R Arm1" 12
 14 "Bip01 R Arm2" 13
 15 "Bip01 R Hand" 14
 16 "Bip06 R elbow2-smooth" 13
 17 "Bip01 Head" 6
 18 "Bip06 Head_helper" 17
 19 "Bip06 Head_eyes_l" 18
 20 "Bip06 Head_eyes_r" 18
 21 "Bip06 Head_blink_l" 18
 22 "Bip06 Head_blink_smooth_l1" 21
 23 "Bip06 Head_blink_r" 18
 24 "Bip06 Head_blink_smooth_r1" 23
 25 "Bip06 Head_L_eyebrow" 18
 26 "Bip06 Head_R_eyebrow" 18
 27 "Bip06 Head_blink_l_lid" 18
 28 "Bip06 Head_blink_r_lid" 18
 29 "Bip06 bunny" 18
 30 "Bip06 bunnyL" 29
 31 "Bip06 bunnyR" 29
 32 "Bip01 L Leg" 1
 33 "Bip01 L Leg1" 32
 34 "Bip01 L Foot" 33
 35 "Bip01 R Leg" 1
 36 "Bip01 R Leg1" 35
 37 "Bip01 R Foot" 36
 38 "Bip03 HairR1" 17
 39 "Bip03 HairR2" 38
 40 "Bip03 HairL1" 17
 41 "Bip03 HairL2" 40
 42 "Bip03 swingR" 17
 43 "Bip03 swingL" 17
end
skeleton
time 0
  0   0.009046 4.281381 1.527761 0.000000 0.000000 -1.571449
  1   -1.093036 0.000002 -0.326057 -1.570599 -1.570379 -0.000219
  2   2.262337 0.113614 0.064702 -0.001428 0.008570 -0.060279
  3   2.380047 0.353302 0.047440 -0.207614 -0.084867 0.084642
  4   2.033756 0.190472 -0.000128 -0.187626 0.061721 0.118611
  5   2.451511 0.204909 -0.003447 -0.260296 -0.009771 0.164579
  6   7.247600 -0.397300 -0.109469 -0.004182 0.368140 0.385593
  7   -2.022252 -0.104661 3.136172 0.120212 -0.908323 -3.674774
  8   1.168026 -0.537438 -0.063437 -1.248163 0.873422 -0.691499
  9   6.790376 -0.619176 0.015206 -0.000047 -0.000085 -0.718829
 10   8.637599 0.544015 -0.090417 -3.082538 0.529909 0.296853
 11   6.790465 -0.619039 0.017802 -0.000692 -0.011225 -0.518295
 12   -2.022474 -0.104699 -2.873818 -2.821755 1.332776 -0.075515
 13   1.167898 -0.537463 0.063297 -0.116480 -1.041446 -0.918827
 14   7.002743 -0.617765 -0.183752 0.000059 0.000137 -1.849772
 15   8.209042 0.615527 -0.255885 2.042277 0.106693 0.933986
 16   7.002735 -0.617911 -0.183641 0.013025 0.010187 -1.313523
 17   1.574674 0.609930 -0.000899 0.487172 -0.600562 0.155968
 18   -0.602177 0.511412 -0.000006 0.000000 0.000000 0.000000
 19   3.646428 0.364526 1.119313 -0.000002 -0.000014 -0.174510
 20   3.646422 0.364499 -1.117566 0.000007 -0.000003 -0.174546
 21   3.805634 1.330634 1.627658 0.000002 -0.000011 -0.000026
 22   -0.246060 -0.011889 0.516521 -0.000011 0.000031 0.000025
 23   3.805651 1.330659 -1.631083 0.000019 0.000002 -0.000024
 24   -0.246150 -0.011872 -0.516511 -0.000005 -0.000006 0.000048
 25   4.941364 1.997338 1.629330 0.000018 -0.000001 -0.000024
 26   4.941382 1.997366 -1.629410 -0.000001 0.000005 -0.000024
 27   2.930087 1.603639 1.514501 -0.000019 -0.000022 -0.000050
 28   2.932517 1.603245 -1.501142 -0.000002 -0.000009 -0.000024
 29   8.824059 0.150544 0.091743 0.000006 -0.000231 -0.174534
 30   2.111085 -0.561179 1.784320 -0.000008 -0.000682 0.000024
 31   2.121290 -0.561289 -1.853599 0.000000 0.000000 -0.000002
 32   -0.814395 -0.093824 3.127092 0.262921 -3.097582 -0.334816
 33   14.298673 -0.408176 0.471578 0.003687 -0.003117 -0.522469
 34   15.835795 0.581398 0.242756 -0.001271 0.032067 0.122292
 35   -0.815868 -0.091229 -3.114430 -0.132889 3.034913 -0.011455
 36   14.294526 -0.410349 -0.467541 -0.002676 0.001857 -0.384764
 37   15.834409 0.579420 -0.284600 -0.034128 0.026558 0.304555
 38   1.139685 -3.453749 -2.823813 0.000000 0.000000 0.000001
 39   -4.457742 -1.054854 -0.746180 0.000000 0.000000 0.000000
 40   1.118101 -3.449769 3.237290 0.000000 0.000001 0.000000
 41   -4.433840 -1.059130 0.959566 -0.000001 0.000000 0.000000
 42   -0.657468 1.697302 -2.688614 0.000000 0.000002 0.000000
 43   -0.664068 1.698578 2.869377 0.000000 0.000002 0.000000
time 1
  0   0.009046 4.281381 1.527761 0.000000 0.000000 -1.571449
  1   -1.093036 0.000002 -0.326057 -1.570599 -1.570379 -0.000219
  2   2.262337 0.113614 0.064702 -0.001428 0.008570 -0.060279
  3   2.380047 0.353302 0.047440 -0.207704 -0.084400 0.086213
  4   2.033756 0.190472 -0.000128 -0.187276 0.061181 0.114805
  5   2.451511 0.204909 -0.003447 -0.260399 -0.010606 0.159923
  6   7.247600 -0.397300 -0.109469 -0.004182 0.368140 0.385593
  7   -2.022252 -0.104661 3.136172 0.120212 -0.908323 -3.674774
  8   1.168026 -0.537438 -0.063437 -1.243416 0.878504 -0.686628
  9   6.790376 -0.619176 0.015206 -0.000047 -0.000085 -0.714678
 10   8.637599 0.544015 -0.090417 -3.082450 0.529768 0.293742
 11   6.790465 -0.619039 0.017802 -0.000692 -0.011225 -0.515469
 12   -2.022474 -0.104699 -2.873818 -2.820701 1.333501 -0.074366
 13   1.167898 -0.537463 0.063297 -0.127798 -1.045463 -0.908052
 14   7.002743 -0.617765 -0.183752 0.000059 0.000137 -1.849772
 15   8.209042 0.615527 -0.255885 2.042277 0.106693 0.934226
 16   7.002735 -0.617911 -0.183641 0.013025 0.010187 -1.313523
 17   1.574674 0.609930 -0.000899 0.483110 -0.600823 0.164580
 18   -0.602177 0.511412 -0.000006 0.000000 0.000000 0.000000
 19   3.646428 0.364526 1.119313 -0.000002 -0.000014 -0.174510
 20   3.646422 0.364499 -1.117566 0.000007 -0.000003 -0.174546
 21   3.805634 1.330634 1.627658 0.000002 -0.000011 -0.000026
 22   -0.246060 -0.011889 0.516521 -0.000011 0.000031 0.000025
 23   3.805651 1.330659 -1.631083 0.000019 0.000002 -0.000024
 24   -0.246150 -0.011872 -0.516511 -0.000005 -0.000006 0.000048
 25   4.941364 1.997338 1.629330 0.000018 -0.000001 -0.000024
 26   4.941382 1.997366 -1.629410 -0.000001 0.000005 -0.000024
 27   2.930087 1.603639 1.514501 -0.000019 -0.000022 -0.000050
 28   2.932517 1.603245 -1.501142 -0.000002 -0.000009 -0.000024
 29   8.824059 0.150544 0.091743 0.000986 -0.000492 -0.171530
 30   2.111085 -0.561179 1.784320 -0.000022 0.001236 0.000153
 31   2.121290 -0.561289 -1.853599 0.000000 -0.002564 0.000125
 32   -0.814395 -0.093824 3.127092 0.262921 -3.097582 -0.334816
 33   14.298673 -0.408176 0.471578 0.003687 -0.003117 -0.522469
 34   15.835795 0.581398 0.242756 -0.001271 0.032067 0.122292
 35   -0.815868 -0.091229 -3.114430 -0.132889 3.034913 -0.011455
 36   14.294526 -0.410349 -0.467541 -0.002676 0.001857 -0.384764
 37   15.834409 0.579420 -0.284600 -0.034128 0.026558 0.304555
 38   1.139685 -3.453749 -2.823813 0.000084 -0.000072 0.000184
 39   -4.457742 -1.054854 -0.746180 0.000132 0.000288 -0.001178
 40   1.118101 -3.449769 3.237290 -0.000042 -0.000083 0.000367
 41   -4.433840 -1.059130 0.959566 0.000011 0.000024 -0.000112
 42   -0.657468 1.697302 -2.688614 0.000863 0.001351 -0.000125
 43   -0.664068 1.698578 2.869377 -0.001012 -0.001520 0.000251
time 2
  0   0.009046 4.281381 1.527761 0.000000 0.000000 -1.571449
  1   -1.093036 0.000002 -0.326057 -1.570599 -1.570379 -0.000219
  2   2.262337 0.113614 0.064702 -0.001428 0.008570 -0.060279
  3   2.380047 0.353302 0.047440 -0.207929 -0.083141 0.090335
  4   2.033756 0.190472 -0.000128 -0.186243 0.059803 0.104221
  5   2.451511 0.204909 -0.003447 -0.260433 -0.012839 0.147466
  6   7.247600 -0.397300 -0.109469 -0.004182 0.368140 0.385593
  7   -2.022252 -0.104661 3.136172 0.120212 -0.908323 -3.674774
  8   1.168026 -0.537438 -0.063437 -1.230571 0.892290 -0.673533
  9   6.790376 -0.619176 0.015206 -0.000047 -0.000085 -0.703358
 10   8.637599 0.544015 -0.090417 -3.082186 0.528853 0.285133
 11   6.790465 -0.619039 0.017802 -0.000780 -0.011225 -0.507510
 12   -2.022474 -0.104699 -2.873818 -2.819743 1.334285 -0.073313
 13   1.167898 -0.537463 0.063297 -0.157463 -1.056753 -0.878935
 14   7.002743 -0.617765 -0.183752 0.000059 0.000137 -1.849772
 15   8.209042 0.615527 -0.255885 2.042277 0.106617 0.934467
 16   7.002735 -0.617911 -0.183641 0.013025 0.010187 -1.313468
 17   1.574674 0.609930 -0.000899 0.472224 -0.601201 0.187163
 18   -0.602177 0.511412 -0.000006 0.000000 0.000000 0.000000
 19   3.646428 0.364526 1.119313 -0.000002 -0.000014 -0.174510
 20   3.646422 0.364499 -1.117566 0.000007 -0.000003 -0.174546
 21   3.805634 1.330634 1.627658 0.000002 -0.000011 -0.000026
 22   -0.246060 -0.011889 0.516521 -0.000011 0.000031 0.000025
 23   3.805651 1.330659 -1.631083 0.000019 0.000002 -0.000024
 24   -0.246150 -0.011872 -0.516511 -0.000005 -0.000006 0.000048
 25   4.941364 1.997338 1.629330 0.000018 -0.000001 -0.000024
 26   4.941382 1.997366 -1.629410 -0.000001 0.000005 -0.000024
 27   2.930087 1.603639 1.514501 -0.000019 -0.000022 -0.000050
 28   2.932517 1.603245 -1.501142 -0.000002 -0.000009 -0.000024
 29   8.824059 0.150544 0.091743 0.003927 -0.001323 -0.163000
 30   2.111085 -0.561179 1.780414 -0.000103 0.006729 0.000517
 31   2.125196 -0.561289 -1.849693 0.000015 -0.009765 0.000544
 32   -0.814395 -0.093824 3.127092 0.262921 -3.097582 -0.334816
 33   14.298673 -0.408176 0.471578 0.003687 -0.003117 -0.522469
 34   15.835795 0.581398 0.242756 -0.001271 0.032067 0.122292
 35   -0.815868 -0.091229 -3.114430 -0.132889 3.034913 -0.011455
 36   14.294526 -0.410349 -0.467541 -0.002676 0.001857 -0.384764
 37   15.834409 0.579420 -0.284600 -0.034128 0.026558 0.304555
 38   1.139685 -3.453749 -2.823813 0.000400 -0.000289 0.000856
 39   -4.457742 -1.043135 -0.746180 0.000503 0.001127 -0.004487
 40   1.118101 -3.449769 3.237290 -0.000189 -0.000348 0.001466
 41   -4.429934 -1.051317 0.959566 0.000047 0.000108 -0.000449
 42   -0.657468 1.697302 -2.676895 0.003308 0.005169 -0.000460
 43   -0.664068 1.698578 2.857658 -0.003886 -0.005851 0.001004
time 3
  0   0.009046 4.281381 1.527761 0.000000 0.000000 -1.571449
  1   -1.093036 0.000002 -0.326057 -1.570599 -1.570379 -0.000219
  2   2.262337 0.113614 0.064702 -0.001428 0.008570 -0.060279
  3   2.380047 0.353302 0.047440 -0.208244 -0.081344 0.096416
  4   2.033756 0.190472 -0.000128 -0.184823 0.057874 0.088635
  5   2.451511 0.204909 -0.003447 -0.260450 -0.016063 0.129709
  6   7.247600 -0.397300 -0.109469 -0.004182 0.368140 0.385593
  7   -2.022252 -0.104661 3.136172 0.120212 -0.908323 -3.674774
  8   1.168026 -0.537438 -0.063437 -1.211839 0.911661 -0.654555
  9   6.790376 -0.619176 0.015206 -0.000047 -0.000085 -0.686378
 10   8.637599 0.544015 -0.090417 -3.082186 0.527445 0.272255
 11   6.790465 -0.619039 0.017802 -0.000838 -0.011225 -0.495629
 12   -2.022474 -0.104699 -2.873818 -2.821755 1.332776 -0.075515
 13   1.167898 -0.537463 0.063297 -0.200766 -1.074095 -0.836076
 14   7.002743 -0.617765 -0.183752 0.000059 0.000137 -1.849772
 15   8.209042 0.615527 -0.255885 2.042277 0.106693 0.933986
 16   7.002735 -0.617911 -0.183641 0.013025 0.010187 -1.313523
 17   1.574674 0.609930 -0.000899 0.456584 -0.601533 0.220206
 18   -0.602177 0.511412 -0.000006 0.000000 0.000000 0.000000
 19   3.646428 0.364526 1.119313 -0.000002 -0.000014 -0.174510
 20   3.646422 0.364499 -1.117566 0.000007 -0.000003 -0.174546
 21   3.805634 1.330634 1.627658 0.000002 -0.000011 -0.000026
 22   -0.246060 -0.011889 0.516521 -0.000011 0.000031 0.000025
 23   3.805651 1.330659 -1.631083 0.000019 0.000002 -0.000024
 24   -0.246150 -0.011872 -0.516511 -0.000005 -0.000006 0.000048
 25   4.941364 1.997338 1.629330 0.000018 -0.000001 -0.000024
 26   4.941382 1.997366 -1.629410 -0.000001 0.000005 -0.000024
 27   2.930087 1.603639 1.514501 -0.000019 -0.000022 -0.000050
 28   2.932517 1.603245 -1.501142 -0.000002 -0.000009 -0.000024
 29   8.824059 0.150544 0.091743 0.008473 -0.002629 -0.149802
 30   2.114991 -0.561179 1.772601 -0.000225 0.015185 0.001075
 31   2.129103 -0.561289 -1.845786 0.000031 -0.020928 0.001163
 32   -0.814395 -0.093824 3.127092 0.262921 -3.097582 -0.334816
 33   14.298673 -0.408176 0.471578 0.003687 -0.003117 -0.522469
 34   15.835795 0.581398 0.242756 -0.001271 0.032067 0.122292
 35   -0.815868 -0.091229 -3.114430 -0.132889 3.034913 -0.011455
 36   14.294526 -0.410349 -0.467541 -0.002676 0.001857 -0.384764
 37   15.834409 0.579420 -0.284600 -0.034128 0.026558 0.304555
 38   1.143591 -3.453749 -2.823813 0.000842 -0.000627 0.001956
 39   -4.457742 -1.027509 -0.742274 0.001091 0.002409 -0.009648
 40   1.114195 -3.449769 3.237290 -0.000400 -0.000758 0.003116
 41   -4.422121 -1.043504 0.963472 0.000107 0.000228 -0.000954
 42   -0.649655 1.697302 -2.661269 0.007095 0.011057 -0.001046
 43   -0.664068 1.698578 2.845939 -0.008321 -0.012535 0.002133
time 4
  0   0.009046 4.281381 1.527761 0.000000 0.000000 -1.571449
  1   -1.093036 0.000002 -0.326057 -1.570599 -1.570379 -0.000219
  2   2.262337 0.113614 0.064702 -0.001428 0.008570 -0.060279
  3   2.380047 0.353302 0.047440 -0.208394 -0.080457 0.099538
  4   2.033756 0.190472 -0.000128 -0.184067 0.056867 0.080842
  5   2.451511 0.204909 -0.003447 -0.260450 -0.017682 0.120744
  6   7.247600 -0.397300 -0.109469 -0.003534 0.369134 0.397535
  7   -2.022252 -0.104661 3.136172 0.114173 -0.909332 -3.681536
  8   1.168026 -0.537438 -0.063437 -1.202411 0.921774 -0.645319
  9   6.790376 -0.619176 0.015206 -0.000047 -0.000085 -0.677850
 10   8.637599 0.544015 -0.090417 -3.082450 0.526530 0.265744
 11   6.790465 -0.619039 0.017802 -0.000838 -0.011225 -0.489688
 12   -2.022474 -0.104699 -2.873818 -2.807671 1.329322 -0.073600
 13   1.167898 -0.537463 0.063297 -0.222276 -1.083604 -0.814344
 14   7.002743 -0.617765 -0.183752 0.000059 0.000137 -1.849937
 15   8.209042 0.615527 -0.255885 2.042277 0.107222 0.933264
 16   7.002735 -0.617911 -0.183641 0.013025 0.010187 -1.313634
 17   1.574674 0.609930 -0.000899 0.457762 -0.602101 0.213183
 18   -0.602177 0.511412 -0.000006 0.000000 0.000000 0.000000
 19   3.646428 0.364526 1.119313 -0.000002 -0.000014 -0.174510
 20   3.646422 0.364499 -1.117566 0.000007 -0.000003 -0.174546
 21   3.805634 1.330634 1.627658 0.000002 -0.000011 -0.000026
 22   -0.246060 -0.011889 0.516521 -0.000011 0.000031 0.000025
 23   3.805651 1.330659 -1.631083 0.000019 0.000002 -0.000024
 24   -0.246150 -0.011872 -0.516511 -0.000005 -0.000006 0.000048
 25   4.941364 1.997338 1.629330 0.000018 -0.000001 -0.000024
 26   4.941382 1.997366 -1.629410 -0.000001 0.000005 -0.000024
 27   2.930087 1.603639 1.514501 -0.000019 -0.000022 -0.000050
 28   2.932517 1.603245 -1.501142 -0.000002 -0.000009 -0.000024
 29   8.824059 0.150544 0.091743 0.014266 -0.004409 -0.132796
 30   2.118898 -0.561179 1.760882 -0.000374 0.026112 0.001804
 31   2.136915 -0.561289 -1.837973 0.000061 -0.035330 0.001963
 32   -0.814395 -0.093824 3.127092 0.262921 -3.097582 -0.334816
 33   14.298673 -0.408176 0.471578 0.003687 -0.003117 -0.522469
 34   15.835795 0.581398 0.242756 -0.001271 0.032067 0.122292
 35   -0.815868 -0.091229 -3.114430 -0.132889 3.034913 -0.011455
 36   14.294526 -0.410349 -0.467541 -0.002676 0.001857 -0.384764
 37   15.834409 0.579420 -0.284600 -0.034128 0.026558 0.304555
 38   1.147498 -3.453749 -2.823813 0.001431 -0.001073 0.003300
 39   -4.457742 -1.007978 -0.738367 0.001846 0.004075 -0.016267
 40   1.110288 -3.449769 3.237290 -0.000674 -0.001288 0.005315
 41   -4.410401 -1.031785 0.967379 0.000191 0.000395 -0.001599
 42   -0.645749 1.697302 -2.641737 0.011973 0.018646 -0.001798
 43   -0.664068 1.694672 2.826407 -0.014043 -0.021150 0.003639
time 5
  0   0.009046 4.281381 1.527761 0.000000 0.000000 -1.571449
  1   -1.093036 0.000002 -0.326057 -1.570599 -1.570379 -0.000219
  2   2.262337 0.113614 0.064702 -0.001428 0.008570 -0.060279
  3   2.380047 0.353302 0.047440 -0.208514 -0.079594 0.102517
  4   2.033756 0.190472 -0.000128 -0.183366 0.055920 0.073737
  5   2.451511 0.204909 -0.003447 -0.260433 -0.019210 0.112200
  6   7.247600 -0.397300 -0.109469 -0.001941 0.371699 0.428229
  7   -2.022252 -0.104661 3.136172 0.098740 -0.912215 -3.698066
  8   1.168026 -0.537438 -0.063437 -1.193615 0.931334 -0.637095
  9   6.790376 -0.619176 0.015206 -0.000047 -0.000085 -0.670379
 10   8.637599 0.544015 -0.090417 -3.082626 0.525193 0.259740
 11   6.790465 -0.619039 0.017802 -0.000867 -0.011225 -0.484440
 12   -2.022474 -0.104699 -2.873818 -2.776150 1.322966 -0.071781
 13   1.167898 -0.537463 0.063297 -0.241819 -1.093826 -0.794731
 14   7.002743 -0.617765 -0.183752 0.000059 0.000137 -1.849937
 15   8.209042 0.615527 -0.255885 2.042277 0.108130 0.931941
 16   7.002735 -0.617911 -0.183641 0.013025 0.010187 -1.313689
 17   1.574674 0.609930 -0.000899 0.461703 -0.602953 0.193409
 18   -0.602177 0.511412 -0.000006 0.000000 0.000000 0.000000
 19   3.646428 0.364526 1.119313 -0.000002 -0.000014 -0.174510
 20   3.646422 0.364499 -1.117566 0.000007 -0.000003 -0.174546
 21   3.805634 1.330634 1.627658 0.000002 -0.000011 -0.000026
 22   -0.246060 -0.011889 0.516521 -0.000011 0.000031 0.000025
 23   3.805651 1.330659 -1.631083 0.000019 0.000002 -0.000024
 24   -0.246150 -0.011872 -0.516511 -0.000005 -0.000006 0.000048
 25   4.941364 1.997338 1.629330 0.000018 -0.000001 -0.000024
 26   4.941382 1.997366 -1.629410 -0.000001 0.000005 -0.000024
 27   2.930087 1.603639 1.514501 -0.000019 -0.000022 -0.000050
 28   2.932517 1.603245 -1.501142 -0.000002 -0.000009 -0.000024
 29   8.824059 0.150544 0.091743 0.021039 -0.006617 -0.112785
 30   2.126710 -0.561179 1.749163 -0.000550 0.038928 0.002640
 31   2.144728 -0.561289 -1.830161 0.000092 -0.052217 0.002909
 32   -0.814395 -0.093824 3.127092 0.262921 -3.097582 -0.334816
 33   14.298673 -0.408176 0.471578 0.003687 -0.003117 -0.522469
 34   15.835795 0.581398 0.242756 -0.001271 0.032067 0.122292
 35   -0.815868 -0.091229 -3.114430 -0.132889 3.034913 -0.011455
 36   14.294526 -0.410349 -0.467541 -0.002676 0.001857 -0.384764
 37   15.834409 0.579420 -0.284600 -0.034128 0.026558 0.304555
 38   1.151404 -3.457655 -2.823813 0.002126 -0.001579 0.004827
 39   -4.461648 -0.988446 -0.730555 0.002721 0.006028 -0.024036
 40   1.106382 -3.445863 3.237290 -0.001010 -0.001915 0.007881
 41   -4.398683 -1.016160 0.971285 0.000287 0.000587 -0.002384
 42   -0.637936 1.697302 -2.618299 0.017701 0.027570 -0.002635
 43   -0.664068 1.690765 2.806875 -0.020765 -0.031255 0.005395
time 6
  0   0.009046 4.281381 1.527761 0.000000 0.000000 -1.571449
  1   -1.093036 0.000002 -0.326057 -1.570599 -1.570379 -0.000219
  2   2.262337 0.113614 0.064702 -0.001428 0.008570 -0.060279
  3   2.380047 0.353302 0.047440 -0.208769 -0.077916 0.108149
  4   2.033756 0.190472 -0.000128 -0.182075 0.054314 0.060870
  5   2.451511 0.204909 -0.003447 -0.260433 -0.022095 0.096028
  6   7.247600 -0.397300 -0.109469 0.000301 0.375211 0.470960
  7   -2.022252 -0.104661 3.136172 0.077268 -0.916453 -3.720699
  8   1.168026 -0.537438 -0.063437 -1.177099 0.948944 -0.621280
  9   6.790376 -0.619176 0.015206 -0.000047 -0.000085 -0.657021
 10   8.637599 0.544015 -0.090417 -3.083419 0.522659 0.248816
 11   6.790465 -0.619039 0.017802 -0.000955 -0.011196 -0.475154
 12   -2.022474 -0.104699 -2.873818 -2.736582 1.311675 -0.073983
 13   1.167898 -0.537463 0.063297 -0.279498 -1.112592 -0.756836
 14   7.002743 -0.617765 -0.183752 0.000059 0.000137 -1.850267
 15   8.209042 0.615527 -0.255885 2.042277 0.109568 0.929295
 16   7.002735 -0.617911 -0.183641 0.013025 0.010187 -1.313910
 17   1.574674 0.609930 -0.000899 0.468608 -0.604160 0.163397
 18   -0.602177 0.511412 -0.000006 0.000000 0.000000 0.000000
 19   3.646428 0.364526 1.119313 -0.000002 -0.000014 -0.174510
 20   3.646422 0.364499 -1.117566 0.000007 -0.000003 -0.174546
 21   3.805634 1.330634 1.627658 0.000002 -0.000011 -0.000026
 22   -0.246060 -0.011889 0.516521 -0.000011 0.000031 0.000025
 23   3.805651 1.330659 -1.631083 0.000019 0.000002 -0.000024
 24   -0.246150 -0.011872 -0.516511 -0.000005 -0.000006 0.000048
 25   4.941364 1.997338 1.629330 0.000018 -0.000001 -0.000024
 26   4.941382 1.997366 -1.629410 -0.000001 0.000005 -0.000024
 27   2.930087 1.603639 1.514501 -0.000019 -0.000022 -0.000050
 28   2.932517 1.603245 -1.501142 -0.000002 -0.000009 -0.000024
 29   8.824059 0.150544 0.091743 0.028525 -0.009228 -0.090682
 30   2.130617 -0.561179 1.737444 -0.000740 0.053081 0.003584
 31   2.152541 -0.561289 -1.818442 0.000138 -0.070892 0.003965
 32   -0.814395 -0.093824 3.127092 0.262921 -3.097582 -0.334816
 33   14.298673 -0.408176 0.471578 0.003687 -0.003117 -0.522469
 34   15.835795 0.581398 0.242756 -0.001271 0.032067 0.122292
 35   -0.815868 -0.091229 -3.114430 -0.132889 3.034913 -0.011455
 36   14.294526 -0.410349 -0.467541 -0.002676 0.001857 -0.384764
 37   15.834409 0.579420 -0.284600 -0.034128 0.026558 0.304555
 38   1.155311 -3.457655 -2.823813 0.002884 -0.002157 0.006599
 39   -4.461648 -0.961101 -0.726648 0.003703 0.008173 -0.032646
 40   1.102476 -3.445863 3.237290 -0.001368 -0.002602 0.010692
 41   -4.386963 -1.000534 0.979098 0.000394 0.000791 -0.003253
 42   -0.634030 1.693396 -2.590955 0.024029 0.037428 -0.003597
 43   -0.664068 1.686859 2.783437 -0.028187 -0.042443 0.007319
time 7
  0   0.009046 4.281381 1.527761 0.000000 0.000000 -1.571449
  1   -1.093036 0.000002 -0.326057 -1.570599 -1.570379 -0.000219
  2   2.262337 0.113614 0.064702 -0.001428 0.008570 -0.060279
  3   2.380047 0.353302 0.047440 -0.208874 -0.077113 0.110904
  4   2.033756 0.190472 -0.000128 -0.181485 0.053631 0.055252
  5   2.451511 0.204909 -0.003447 -0.260416 -0.023401 0.088623
  6   7.247600 -0.397300 -0.109469 0.001439 0.376900 0.492373
  7   -2.022252 -0.104661 3.136172 0.066628 -0.918586 -3.732063
  8   1.168026 -0.537438 -0.063437 -1.169885 0.956944 -0.614448
  9   6.790376 -0.619176 0.015206 -0.000047 -0.000085 -0.651663
 10   8.637599 0.544015 -0.090417 -3.083595 0.521462 0.244186
 11   6.790465 -0.619039 0.017802 -0.000984 -0.011196 -0.471405
 12   -2.022474 -0.104699 -2.873818 -2.717612 1.305696 -0.076185
 13   1.167898 -0.537463 0.063297 -0.296509 -1.121186 -0.739705
 14   7.002743 -0.617765 -0.183752 0.000059 0.000137 -1.850432
 15   8.209042 0.615527 -0.255885 2.042277 0.110400 0.927912
 16   7.002735 -0.617911 -0.183641 0.013025 0.010187 -1.314020
 17   1.574674 0.609930 -0.000899 0.472874 -0.604586 0.146506
 18   -0.602177 0.511412 -0.000006 0.000000 0.000000 0.000000
 19   3.646428 0.364526 1.119313 -0.000002 -0.000014 -0.174510
 20   3.646422 0.364499 -1.117566 0.000007 -0.000003 -0.174546
 21   3.805634 1.330634 1.627658 0.000002 -0.000011 -0.000026
 22   -0.246060 -0.011889 0.516521 -0.000011 0.000031 0.000025
 23   3.805651 1.330659 -1.631083 0.000019 0.000002 -0.000024
 24   -0.246150 -0.011872 -0.516511 -0.000005 -0.000006 0.000048
 25   4.941364 1.997338 1.629330 0.000018 -0.000001 -0.000024
 26   4.941382 1.997366 -1.629410 -0.000001 0.000005 -0.000024
 27   2.930087 1.603639 1.514501 -0.000019 -0.000022 -0.000050
 28   2.932517 1.603245 -1.501142 -0.000002 -0.000009 -0.000024
 29   8.824059 0.150544 0.091743 0.036368 -0.012147 -0.067345
 30   2.138430 -0.557273 1.721818 -0.000957 0.068076 0.004591
 31   2.164260 -0.561289 -1.810629 0.000184 -0.090655 0.005075
 32   -0.814395 -0.093824 3.127092 0.262921 -3.097582 -0.334816
 33   14.298673 -0.408176 0.471578 0.003687 -0.003117 -0.522469
 34   15.835795 0.581398 0.242756 -0.001271 0.032067 0.122292
 35   -0.815868 -0.091229 -3.114430 -0.132889 3.034913 -0.011455
 36   14.294526 -0.410349 -0.467541 -0.002676 0.001857 -0.384764
 37   15.834409 0.579420 -0.284600 -0.034128 0.026558 0.304555
 38   1.159217 -3.461562 -2.823813 0.003684 -0.002748 0.008432
 39   -4.465555 -0.933757 -0.718835 0.004734 0.010463 -0.041761
 40   1.098569 -3.441956 3.237290 -0.001747 -0.003325 0.013685
 41   -4.371338 -0.984909 0.983004 0.000502 0.001019 -0.004151
 42   -0.626217 1.693396 -2.563610 0.030728 0.047869 -0.004600
 43   -0.664068 1.682953 2.759999 -0.036045 -0.054275 0.009326
time 8
  0   0.009046 4.281381 1.527761 0.000000 0.000000 -1.571449
  1   -1.093036 0.000002 -0.326057 -1.570599 -1.570379 -0.000219
  2   2.262337 0.113614 0.064702 -0.001428 0.008570 -0.060279
  3   2.380047 0.353302 0.047440 -0.208949 -0.076478 0.113026
  4   2.033756 0.190472 -0.000128 -0.181153 0.053236 0.051736
  5   2.451511 0.204909 -0.003447 -0.260296 -0.024406 0.082011
  6   7.247600 -0.397300 -0.109469 0.002722 0.378566 0.513786
  7   -2.022252 -0.104661 3.136172 0.055892 -0.920978 -3.743521
  8   1.168026 -0.537438 -0.063437 -1.164063 0.963535 -0.609071
  9   6.790376 -0.619176 0.015206 -0.000047 -0.000085 -0.648418
 10   8.637599 0.544015 -0.090417 -3.083947 0.520336 0.241003
 11   6.790465 -0.619039 0.017802 -0.000984 -0.011196 -0.469041
 12   -2.022474 -0.104699 -2.873818 -2.700655 1.299804 -0.080302
 13   1.167898 -0.537463 0.063297 -0.309444 -1.128560 -0.726690
 14   7.002743 -0.617765 -0.183752 0.000059 0.000137 -1.850597
 15   8.209042 0.615527 -0.255885 2.042277 0.111156 0.926408
 16   7.002735 -0.617911 -0.183641 0.013025 0.010187 -1.314075
 17   1.574674 0.609930 -0.000899 0.478886 -0.604799 0.126510
 18   -0.602177 0.511412 -0.000006 0.000000 0.000000 0.000000
 19   3.646428 0.364526 1.119313 -0.000002 -0.000014 -0.174510
 20   3.646422 0.364499 -1.117566 0.000007 -0.000003 -0.174546
 21   3.805634 1.330634 1.627658 0.000002 -0.000011 -0.000026
 22   -0.246060 -0.011889 0.516521 -0.000011 0.000031 0.000025
 23   3.805651 1.330659 -1.631083 0.000019 0.000002 -0.000024
 24   -0.246150 -0.011872 -0.516511 -0.000005 -0.000006 0.000048
 25   4.941364 1.997338 1.629330 0.000018 -0.000001 -0.000024
 26   4.941382 1.997366 -1.629410 -0.000001 0.000005 -0.000024
 27   2.930087 1.603639 1.514501 -0.000019 -0.000022 -0.000050
 28   2.932517 1.603245 -1.501142 -0.000002 -0.000009 -0.000024
 29   8.824059 0.150544 0.091743 0.044211 -0.015328 -0.043579
 30   2.146242 -0.557273 1.710099 -0.001161 0.083334 0.005599
 31   2.172073 -0.561289 -1.798910 0.000215 -0.110755 0.006203
 32   -0.814395 -0.093824 3.127092 0.262921 -3.097582 -0.334816
 33   14.298673 -0.408176 0.471578 0.003687 -0.003117 -0.522469
 34   15.835795 0.581398 0.242756 -0.001271 0.032067 0.122292
 35   -0.815868 -0.091229 -3.114430 -0.132889 3.034913 -0.011455
 36   14.294526 -0.410349 -0.467541 -0.002676 0.001857 -0.384764
 37   15.834409 0.579420 -0.284600 -0.034128 0.026558 0.304555
 38   1.163123 -3.465468 -2.823813 0.004505 -0.003362 0.010326
 39   -4.469461 -0.910318 -0.714929 0.005789 0.012776 -0.051017
 40   1.094663 -3.438050 3.237290 -0.002147 -0.004060 0.016740
 41   -4.355712 -0.965377 0.990817 0.000622 0.001246 -0.005076
 42   -0.618404 1.693396 -2.536265 0.037548 0.058479 -0.005646
 43   -0.664068 1.679046 2.736560 -0.044042 -0.066310 0.011418
time 9
  0   0.009046 4.281381 1.527761 0.000000 0.000000 -1.571449
  1   -1.093036 0.000002 -0.326057 -1.570599 -1.570379 -0.000219
  2   2.262337 0.113614 0.064702 -0.001428 0.008570 -0.060279
  3   2.380047 0.353302 0.047440 -0.209129 -0.075351 0.116699
  4   2.033756 0.190472 -0.000128 -0.180618 0.052553 0.046444
  5   2.451511 0.204909 -0.003447 -0.260142 -0.026194 0.068489
  6   7.247600 -0.397300 -0.109469 0.005394 0.381874 0.556738
  7   -2.022252 -0.104661 3.136172 0.034899 -0.925821 -3.766531
  8   1.168026 -0.537438 -0.063437 -1.152546 0.976516 -0.597937
  9   6.790376 -0.619176 0.015206 -0.000047 -0.000085 -0.642305
 10   8.637599 0.544015 -0.090417 -3.084387 0.518294 0.234709
 11   6.790465 -0.619039 0.017802 -0.000984 -0.011196 -0.464773
 12   -2.022474 -0.104699 -2.873818 -2.666547 1.288456 -0.088440
 13   1.167898 -0.537463 0.063297 -0.335383 -1.142647 -0.701023
 14   7.002743 -0.617765 -0.183752 0.000059 0.000137 -1.850927
 15   8.209042 0.615527 -0.255885 2.042277 0.112670 0.923702
 16   7.002735 -0.617911 -0.183641 0.013025 0.010187 -1.314296
 17   1.574674 0.609930 -0.000899 0.491234 -0.605225 0.086000
 18   -0.602177 0.511412 -0.000006 0.000000 0.000000 0.000000
 19   3.646428 0.364526 1.119313 -0.000002 -0.000014 -0.174510
 20   3.646422 0.364499 -1.117566 0.000007 -0.000003 -0.174546
 21   3.805634 1.330634 1.627658 0.000002 -0.000011 -0.000026
 22   -0.246060 -0.011889 0.516521 -0.000011 0.000031 0.000025
 23   3.805651 1.330659 -1.631083 0.000019 0.000002 -0.000024
 24   -0.246150 -0.011872 -0.516511 -0.000005 -0.000006 0.000048
 25   4.941364 1.997338 1.629330 0.000018 -0.000001 -0.000024
 26   4.941382 1.997366 -1.629410 -0.000001 0.000005 -0.000024
 27   2.930087 1.603639 1.514501 -0.000019 -0.000022 -0.000050
 28   2.932517 1.603245 -1.501142 -0.000002 -0.000009 -0.000024
 29   8.824059 0.150544 0.091743 0.051965 -0.018628 -0.020242
 30   2.150149 -0.557273 1.694474 -0.001378 0.098329 0.006607
 31   2.183792 -0.557383 -1.791097 0.000260 -0.130517 0.007313
 32   -0.814395 -0.093824 3.127092 0.262921 -3.097582 -0.334816
 33   14.298673 -0.408176 0.471578 0.003687 -0.003117 -0.522469
 34   15.835795 0.581398 0.242756 -0.001271 0.032067 0.122292
 35   -0.815868 -0.091229 -3.114430 -0.132889 3.034913 -0.011455
 36   14.294526 -0.410349 -0.467541 -0.002676 0.001857 -0.384764
 37   15.834409 0.579420 -0.284600 -0.034128 0.026558 0.304555
 38   1.167030 -3.465468 -2.823813 0.005325 -0.003965 0.012159
 39   -4.469461 -0.882974 -0.707116 0.006819 0.015065 -0.060132
 40   1.090756 -3.438050 3.237290 -0.002526 -0.004783 0.019734
 41   -4.343993 -0.949752 0.994723 0.000730 0.001462 -0.005974
 42   -0.610592 1.689489 -2.508921 0.044235 0.068921 -0.006650
 43   -0.660162 1.675140 2.709216 -0.051900 -0.078141 0.013467
time 10
  0   0.009046 4.281381 1.527761 0.000000 0.000000 -1.571449
  1   -1.093036 0.000002 -0.326057 -1.570599 -1.570379 -0.000219
  2   2.262337 0.113614 0.064702 -0.001428 0.008570 -0.060279
  3   2.380047 0.353302 0.047440 -0.209204 -0.074896 0.118250
  4   2.033756 0.190472 -0.000128 -0.180360 0.052301 0.044087
  5   2.451511 0.204909 -0.003447 -0.260005 -0.027069 0.061332
  6   7.247600 -0.397300 -0.109469 0.007384 0.384139 0.587623
  7   -2.022252 -0.104661 3.136172 0.019657 -0.929396 -3.783154
  8   1.168026 -0.537438 -0.063437 -1.146724 0.983208 -0.592117
  9   6.790376 -0.619176 0.015206 -0.000047 -0.000085 -0.639211
 10   8.637599 0.544015 -0.090417 -3.084916 0.517168 0.231743
 11   6.790465 -0.619039 0.017802 -0.000984 -0.011196 -0.462639
 12   -2.022474 -0.104699 -2.873818 -2.641062 1.282709 -0.092366
 13   1.167898 -0.537463 0.063297 -0.349442 -1.149359 -0.687221
 14   7.002743 -0.617765 -0.183752 0.000059 0.000137 -1.851092
 15   8.209042 0.615527 -0.255885 2.042277 0.113502 0.922499
 16   7.002735 -0.617911 -0.183641 0.013025 0.010187 -1.314462
 17   1.574674 0.609930 -0.000899 0.501146 -0.605225 0.054953
 18   -0.602177 0.511412 -0.000006 0.000000 0.000000 0.000000
 19   3.646428 0.364526 1.119313 -0.000002 -0.000014 -0.174510
 20   3.646422 0.364499 -1.117566 0.000007 -0.000003 -0.174546
 21   3.805634 1.330634 1.627658 0.000002 -0.000011 -0.000026
 22   -0.246060 -0.011889 0.516521 -0.000011 0.000031 0.000025
 23   3.805651 1.330659 -1.631083 0.000019 0.000002 -0.000024
 24   -0.246150 -0.011872 -0.516511 -0.000005 -0.000006 0.000048
 25   4.941364 1.997338 1.629330 0.000018 -0.000001 -0.000024
 26   4.941382 1.997366 -1.629410 -0.000001 0.000005 -0.000024
 27   2.930087 1.603639 1.514501 -0.000019 -0.000022 -0.000050
 28   2.932517 1.603245 -1.501142 -0.000002 -0.000009 -0.000024
 29   8.824059 0.150544 0.091743 0.059095 -0.021928 0.001754
 30   2.157961 -0.553366 1.682754 -0.001567 0.112511 0.007529
 31   2.191605 -0.557383 -1.779378 0.000291 -0.149192 0.008350
 32   -0.814395 -0.093824 3.127092 0.262921 -3.097582 -0.334816
 33   14.298673 -0.408176 0.471578 0.003687 -0.003117 -0.522469
 34   15.835795 0.581398 0.242756 -0.001271 0.032067 0.122292
 35   -0.815868 -0.091229 -3.114430 -0.132889 3.034913 -0.011455
 36   14.294526 -0.410349 -0.467541 -0.002676 0.001857 -0.384764
 37   15.834409 0.579420 -0.284600 -0.034128 0.026558 0.304555
 38   1.170936 -3.469374 -2.823813 0.006083 -0.004531 0.013931
 39   -4.473368 -0.855629 -0.703210 0.007790 0.017222 -0.068742
 40   1.086850 -3.434144 3.237290 -0.002884 -0.005470 0.022544
 41   -4.328368 -0.934126 1.002536 0.000838 0.001678 -0.006843
 42   -0.602779 1.689489 -2.481576 0.050575 0.078779 -0.007612
 43   -0.660162 1.675140 2.685778 -0.059334 -0.089329 0.015391
time 11
  0   0.009046 4.281381 1.527761 0.000000 0.000000 -1.571449
  1   -1.093036 0.000002 -0.326057 -1.570599 -1.570379 -0.000219
  2   2.262337 0.113614 0.064702 -0.001428 0.008570 -0.060279
  3   2.380047 0.353302 0.047440 -0.209264 -0.074608 0.119168
  4   2.033756 0.190472 -0.000128 -0.180323 0.052253 0.043761
  5   2.451511 0.204909 -0.003447 -0.259851 -0.027591 0.056032
  6   7.247600 -0.397300 -0.109469 0.008174 0.385038 0.599659
  7   -2.022252 -0.104661 3.136172 0.013618 -0.930895 -3.789540
  8   1.168026 -0.537438 -0.063437 -1.143054 0.987887 -0.588448
  9   6.790376 -0.619176 0.015206 -0.000047 -0.000085 -0.637777
 10   8.637599 0.544015 -0.090417 -3.085004 0.516324 0.229862
 11   6.790465 -0.619039 0.017802 -0.000984 -0.011196 -0.461658
 12   -2.022474 -0.104699 -2.873818 -2.632536 1.278820 -0.096674
 13   1.167898 -0.537463 0.063297 -0.358440 -1.154038 -0.678504
 14   7.002743 -0.617765 -0.183752 0.000059 0.000137 -1.851257
 15   8.209042 0.615527 -0.255885 2.042277 0.114183 0.921417
 16   7.002735 -0.617911 -0.183641 0.013025 0.010187 -1.314517
 17   1.574674 0.609930 -0.000899 0.505289 -0.605225 0.042017
 18   -0.602177 0.511412 -0.000006 0.000000 0.000000 0.000000
 19   3.646428 0.364526 1.119313 -0.000002 -0.000014 -0.174510
 20   3.646422 0.364499 -1.117566 0.000007 -0.000003 -0.174546
 21   3.805634 1.330634 1.627658 0.000002 -0.000011 -0.000026
 22   -0.246060 -0.011889 0.516521 -0.000011 0.000031 0.000025
 23   3.805651 1.330659 -1.631083 0.000019 0.000002 -0.000024
 24   -0.246150 -0.011872 -0.516511 -0.000005 -0.000006 0.000048
 25   4.941364 1.997338 1.629330 0.000018 -0.000001 -0.000024
 26   4.941382 1.997366 -1.629410 -0.000001 0.000005 -0.000024
 27   2.930087 1.603639 1.514501 -0.000019 -0.000022 -0.000050
 28   2.932517 1.603245 -1.501142 -0.000002 -0.000009 -0.000024
 29   8.824059 0.150544 0.091743 0.065601 -0.025013 0.021603
 30   2.161868 -0.553366 1.671035 -0.001744 0.125327 0.008387
 31   2.199417 -0.557383 -1.771565 0.000337 -0.166080 0.009296
 32   -0.814395 -0.093824 3.127092 0.262921 -3.097582 -0.334816
 33   14.298673 -0.408176 0.471578 0.003687 -0.003117 -0.522469
 34   15.835795 0.581398 0.242756 -0.001271 0.032067 0.122292
 35   -0.815868 -0.091229 -3.114430 -0.132889 3.034913 -0.011455
 36   14.294526 -0.410349 -0.467541 -0.002676 0.001857 -0.384764
 37   15.834409 0.579420 -0.284600 -0.034128 0.026558 0.304555
 38   1.178749 -3.469374 -2.823813 0.006778 -0.005049 0.015519
 39   -4.473368 -0.836097 -0.695397 0.008677 0.019163 -0.076511
 40   1.079037 -3.434144 3.237290 -0.003221 -0.006097 0.025110
 41   -4.316648 -0.918501 1.006442 0.000934 0.001870 -0.007629
 42   -0.594966 1.689489 -2.458138 0.056304 0.087703 -0.008490
 43   -0.660162 1.671233 2.666246 -0.066044 -0.099435 0.017147
time 12
  0   0.009046 4.281381 1.527761 0.000000 0.000000 -1.571449
  1   -1.093036 0.000002 -0.326057 -1.570599 -1.570379 -0.000219
  2   2.262337 0.113614 0.064702 -0.001428 0.008570 -0.060279
  3   2.380047 0.353302 0.047440 -0.209294 -0.074201 0.120719
  4   2.033756 0.190472 -0.000128 -0.180323 0.052253 0.043761
  5   2.451511 0.204909 -0.003447 -0.259680 -0.028127 0.048751
  6   7.247600 -0.397300 -0.109469 0.008174 0.385038 0.599659
  7   -2.022252 -0.104661 3.136172 0.013618 -0.930895 -3.789540
  8   1.168026 -0.537438 -0.063437 -1.138561 0.993623 -0.584083
  9   6.790376 -0.619176 0.015206 -0.000047 -0.000085 -0.636796
 10   8.637599 0.544015 -0.090417 -3.085356 0.515197 0.227764
 11   6.790465 -0.619039 0.017802 -0.001013 -0.011196 -0.460909
 12   -2.022474 -0.104699 -2.873818 -2.641925 1.273596 -0.106535
 13   1.167898 -0.537463 0.063297 -0.368282 -1.160649 -0.669061
 14   7.002743 -0.617765 -0.183752 0.000059 0.000137 -1.851422
 15   8.209042 0.615527 -0.255885 2.042277 0.114939 0.919853
 16   7.002735 -0.617911 -0.183641 0.013025 0.010187 -1.314572
 17   1.574674 0.609930 -0.000899 0.496718 -0.610976 0.059278
 18   -0.602177 0.511412 -0.000006 0.000000 0.000000 0.000000
 19   3.646428 0.364526 1.119313 -0.000002 -0.000014 -0.174510
 20   3.646422 0.364499 -1.117566 0.000007 -0.000003 -0.174546
 21   3.805634 1.330634 1.627658 0.000002 -0.000011 -0.000026
 22   -0.246060 -0.011889 0.516521 -0.000011 0.000031 0.000025
 23   3.805651 1.330659 -1.631083 0.000019 0.000002 -0.000024
 24   -0.246150 -0.011872 -0.516511 -0.000005 -0.000006 0.000048
 25   4.941364 1.997338 1.629330 0.000018 -0.000001 -0.000024
 26   4.941382 1.997366 -1.629410 -0.000001 0.000005 -0.000024
 27   2.930087 1.603639 1.514501 -0.000019 -0.000022 -0.000050
 28   2.932517 1.603245 -1.501142 -0.000002 -0.000009 -0.000024
 29   8.824059 0.150544 0.091743 0.070948 -0.027767 0.038503
 30   2.165774 -0.553366 1.659316 -0.001893 0.136225 0.009116
 31   2.207230 -0.557383 -1.763752 0.000352 -0.180455 0.010096
 32   -0.814395 -0.093824 3.127092 0.262921 -3.097582 -0.334816
 33   14.298673 -0.408176 0.471578 0.003687 -0.003117 -0.522469
 34   15.835795 0.581398 0.242756 -0.001271 0.032067 0.122292
 35   -0.815868 -0.091229 -3.114430 -0.132889 3.034913 -0.011455
 36   14.294526 -0.410349 -0.467541 -0.002676 0.001857 -0.384764
 37   15.834409 0.579420 -0.284600 -0.034128 0.026558 0.304555
 38   1.178749 -3.469374 -2.823813 0.007367 -0.005483 0.016863
 39   -4.473368 -0.816566 -0.691491 0.009432 0.020829 -0.083158
 40   1.079037 -3.434144 3.237290 -0.003494 -0.006627 0.027309
 41   -4.308836 -0.906782 1.010349 0.001018 0.002025 -0.008274
 42   -0.591060 1.689489 -2.438606 0.061169 0.095292 -0.009201
 43   -0.660162 1.667327 2.650620 -0.071766 -0.108049 0.018611
time 13
  0   0.009046 4.281381 1.527761 0.000000 0.000000 -1.571449
  1   -1.093036 0.000002 -0.326057 -1.570599 -1.570379 -0.000219
  2   2.262337 0.113614 0.064702 -0.001428 0.008570 -0.060279
  3   2.380047 0.353302 0.047440 -0.209324 -0.074129 0.120923
  4   2.033756 0.190472 -0.000128 -0.180360 0.052301 0.044087
  5   2.451511 0.204909 -0.003447 -0.259646 -0.028048 0.049048
  6   7.247600 -0.397300 -0.109469 0.008174 0.385038 0.599659
  7   -2.022252 -0.104661 3.136172 0.013618 -0.930895 -3.789540
  8   1.168026 -0.537438 -0.063437 -1.139257 0.993321 -0.584779
  9   6.790376 -0.619176 0.015206 -0.000047 -0.000085 -0.637324
 10   8.637599 0.544015 -0.090417 -3.085356 0.514916 0.228198
 11   6.790465 -0.619039 0.017802 -0.000984 -0.011196 -0.461370
 12   -2.022474 -0.104699 -2.873818 -2.645470 1.271535 -0.110652
 13   1.167898 -0.537463 0.063297 -0.365048 -1.162073 -0.672148
 14   7.002743 -0.617765 -0.183752 0.000059 0.000137 -1.851422
 15   8.209042 0.615527 -0.255885 2.042277 0.115318 0.919192
 16   7.002735 -0.617911 -0.183641 0.013025 0.010187 -1.314627
 17   1.574674 0.609930 -0.000899 0.494687 -0.613603 0.062826
 18   -0.602177 0.511412 -0.000006 0.000000 0.000000 0.000000
 19   3.646428 0.364526 1.119313 -0.000002 -0.000014 -0.174510
 20   3.646422 0.364499 -1.117566 0.000007 -0.000003 -0.174546
 21   3.805634 1.330634 1.627658 0.000002 -0.000011 -0.000026
 22   -0.246060 -0.011889 0.516521 -0.000011 0.000031 0.000025
 23   3.805651 1.330659 -1.631083 0.000019 0.000002 -0.000024
 24   -0.246150 -0.011872 -0.516511 -0.000005 -0.000006 0.000048
 25   4.941364 1.997338 1.629330 0.000018 -0.000001 -0.000024
 26   4.941382 1.997366 -1.629410 -0.000001 0.000005 -0.000024
 27   2.930087 1.603639 1.514501 -0.000019 -0.000022 -0.000050
 28   2.932517 1.603245 -1.501142 -0.000002 -0.000009 -0.000024
 29   8.824059 0.150544 0.091743 0.075137 -0.029951 0.051593
 30   2.169681 -0.553366 1.651503 -0.002015 0.144681 0.009673
 31   2.215043 -0.557383 -1.759846 0.000383 -0.191619 0.010733
 32   -0.814395 -0.093824 3.127092 0.262921 -3.097582 -0.334816
 33   14.298673 -0.408176 0.471578 0.003687 -0.003117 -0.522469
 34   15.835795 0.581398 0.242756 -0.001271 0.032067 0.122292
 35   -0.815868 -0.091229 -3.114430 -0.132889 3.034913 -0.011455
 36   14.294526 -0.410349 -0.467541 -0.002676 0.001857 -0.384764
 37   15.834409 0.579420 -0.284600 -0.034128 0.026558 0.304555
 38   1.182655 -3.473281 -2.823813 0.007809 -0.005820 0.017902
 39   -4.477274 -0.800940 -0.687584 0.010007 0.022112 -0.088291
 40   1.075131 -3.430237 3.237290 -0.003726 -0.007037 0.028959
 41   -4.301023 -0.898969 1.014255 0.001078 0.002157 -0.008779
 42   -0.587153 1.685583 -2.422981 0.064956 0.101195 -0.009786
 43   -0.660162 1.667327 2.634995 -0.076214 -0.114734 0.019782
time 14
  0   0.009046 4.281381 1.527761 0.000000 0.000000 -1.571449
  1   -1.093036 0.000002 -0.326057 -1.570599 -1.570379 -0.000219
  2   2.262337 0.113614 0.064702 -0.001428 0.008570 -0.060279
  3   2.380047 0.353302 0.047440 -0.209324 -0.074129 0.120964
  4   2.033756 0.190472 -0.000128 -0.180618 0.052553 0.046444
  5   2.451511 0.204909 -0.003447 -0.259646 -0.027409 0.050955
  6   7.247600 -0.397300 -0.109469 0.008174 0.385038 0.599659
  7   -2.022252 -0.104661 3.136172 0.013618 -0.930895 -3.789540
  8   1.168026 -0.537438 -0.063437 -1.143307 0.991208 -0.589460
  9   6.790376 -0.619176 0.015206 -0.000047 -0.000085 -0.641852
 10   8.637599 0.544015 -0.090417 -3.085708 0.514845 0.230947
 11   6.790465 -0.619039 0.017802 -0.000984 -0.011196 -0.464542
 12   -2.022474 -0.104699 -2.873818 -2.647577 1.270345 -0.112567
 13   1.167898 -0.537463 0.063297 -0.354715 -1.161056 -0.681773
 14   7.002743 -0.617765 -0.183752 0.000059 0.000137 -1.851587
 15   8.209042 0.615527 -0.255885 2.042349 0.115620 0.918831
 16   7.002735 -0.617911 -0.183641 0.013025 0.010244 -1.314682
 17   1.574674 0.609930 -0.000899 0.494403 -0.615733 0.063269
 18   -0.602177 0.511412 -0.000006 0.000000 0.000000 0.000000
 19   3.658147 0.270773 1.119313 -0.000002 -0.000014 -0.174510
 20   3.658141 0.270746 -1.117566 0.000007 -0.000003 -0.174546
 21   3.352495 1.260319 1.572969 0.000002 -0.000011 -0.000026
 22   -0.238247 -0.382994 0.496989 0.000099 -0.028720 0.445010
 23   3.360325 1.256438 -1.623270 0.000019 0.000002 -0.000024
 24   -0.160210 -0.285318 -0.532136 0.000091 -0.028745 0.445076
 25   4.531195 1.993432 1.637143 -0.032209 0.220350 0.007203
 26   4.531213 1.993460 -1.621597 0.035761 -0.204352 -0.020865
 27   3.117593 1.463010 1.502782 -0.000019 -0.000022 -0.000050
 28   3.120023 1.462616 -1.512861 -0.000002 -0.000009 -0.000024
 29   8.824059 0.150544 0.091743 0.077811 -0.031399 0.060069
 30   2.173587 -0.553366 1.647597 -0.002096 0.150174 0.010038
 31   2.218949 -0.557383 -1.755940 0.000398 -0.198845 0.011134
 32   -0.814395 -0.093824 3.127092 0.262921 -3.097582 -0.334816
 33   14.298673 -0.408176 0.471578 0.003687 -0.003117 -0.522469
 34   15.835795 0.581398 0.242756 -0.001271 0.032067 0.122292
 35   -0.815868 -0.091229 -3.114430 -0.132889 3.034913 -0.011455
 36   14.294526 -0.410349 -0.467541 -0.002676 0.001857 -0.384764
 37   15.834409 0.579420 -0.284600 -0.034128 0.026558 0.304555
 38   1.182655 -3.473281 -2.823813 0.008104 -0.006049 0.018574
 39   -4.477274 -0.789221 -0.687584 0.010391 0.022950 -0.091628
 40   1.075131 -3.430237 3.237290 -0.003852 -0.007302 0.030059
 41   -4.293211 -0.891156 1.018162 0.001126 0.002241 -0.009115
 42   -0.583247 1.685583 -2.415168 0.067401 0.104998 -0.010163
 43   -0.660162 1.663421 2.627182 -0.079075 -0.119049 0.020535
time 15
  0   0.009046 4.281381 1.527761 0.000000 0.000000 -1.571449
  1   -1.093036 0.000002 -0.326057 -1.570599 -1.570379 -0.000219
  2   2.262337 0.113614 0.064702 -0.001428 0.008570 -0.060279
  3   2.380047 0.353302 0.047440 -0.209264 -0.074452 0.119719
  4   2.033756 0.190472 -0.000128 -0.181153 0.053236 0.051736
  5   2.451511 0.204909 -0.003447 -0.259800 -0.025281 0.063709
  6   7.247600 -0.397300 -0.109469 0.008174 0.385038 0.599659
  7   -2.022252 -0.104661 3.136172 0.013618 -0.930895 -3.789540
  8   1.168026 -0.537438 -0.063437 -1.157735 0.980038 -0.605465
  9   6.790376 -0.619176 0.015206 -0.000047 -0.000085 -0.652946
 10   8.637599 0.544015 -0.090417 -3.086149 0.515197 0.239339
 11   6.790465 -0.619039 0.017802 -0.000955 -0.011196 -0.472155
 12   -2.022474 -0.104699 -2.873818 -2.651505 1.268197 -0.116301
 13   1.167898 -0.537463 0.063297 -0.316262 -1.154648 -0.718578
 14   7.002743 -0.617765 -0.183752 0.000059 0.000137 -1.851587
 15   8.209042 0.615527 -0.255885 2.042349 0.115923 0.918169
 16   7.002735 -0.617911 -0.183641 0.013025 0.010187 -1.314793
 17   1.574674 0.609930 -0.000899 0.498668 -0.619709 0.053068
 18   -0.602177 0.511412 -0.000006 0.000000 0.000000 0.000000
 19   3.673773 0.180927 1.119313 -0.000002 -0.000014 -0.174510
 20   3.673767 0.176993 -1.117566 0.000007 -0.000003 -0.174546
 21   2.899356 1.190005 1.518280 0.000002 -0.000011 -0.000026
 22   -0.226528 -0.758005 0.473551 0.000194 -0.057471 0.890061
 23   2.914999 1.182217 -1.611551 0.000019 0.000002 -0.000024
 24   -0.074270 -0.562670 -0.551668 0.000187 -0.057496 0.890104
 25   4.117120 1.989525 1.648862 -0.064423 0.440701 0.014429
 26   4.117138 1.989553 -1.609878 0.071535 -0.408734 -0.041706
 27   3.305099 1.322380 1.487156 -0.000019 -0.000022 -0.000050
 28   3.307528 1.321986 -1.528487 -0.000002 -0.000009 -0.000024
 29   8.824059 0.150544 0.091743 0.078791 -0.031921 0.063073
 30   2.173587 -0.553366 1.643691 -0.002123 0.152121 0.010167
 31   2.218949 -0.557383 -1.752033 0.000398 -0.201410 0.011279
 32   -0.814395 -0.093824 3.127092 0.262921 -3.097582 -0.334816
 33   14.298673 -0.408176 0.471578 0.003687 -0.003117 -0.522469
 34   15.835795 0.581398 0.242756 -0.001271 0.032067 0.122292
 35   -0.815868 -0.091229 -3.114430 -0.132889 3.034913 -0.011455
 36   14.294526 -0.410349 -0.467541 -0.002676 0.001857 -0.384764
 37   15.834409 0.579420 -0.284600 -0.034128 0.026558 0.304555
 38   1.186561 -3.473281 -2.823813 0.008209 -0.006122 0.018818
 39   -4.477274 -0.789221 -0.683678 0.010522 0.023250 -0.092806
 40   1.071225 -3.430237 3.237290 -0.003915 -0.007386 0.030425
 41   -4.293211 -0.891156 1.018162 0.001138 0.002265 -0.009227
 42   -0.583247 1.685583 -2.411262 0.068276 0.106362 -0.010288
 43   -0.660162 1.663421 2.623276 -0.080100 -0.120587 0.020786
time 16
  0   0.009046 4.281381 1.527761 0.000000 0.000000 -1.571449
  1   -1.093036 0.000002 -0.326057 -1.570599 -1.570379 -0.000219
  2   2.262337 0.113614 0.064702 -0.001428 0.008570 -0.060279
  3   2.380047 0.353302 0.047440 -0.209219 -0.074680 0.118903
  4   2.033756 0.190472 -0.000128 -0.181540 0.053679 0.055433
  5   2.451511 0.204909 -0.003447 -0.259851 -0.023962 0.071882
  6   7.247600 -0.397300 -0.109469 0.008174 0.385038 0.599659
  7   -2.022252 -0.104661 3.136172 0.013618 -0.930895 -3.789540
  8   1.168026 -0.537438 -0.063437 -1.167163 0.971988 -0.615460
  9   6.790376 -0.619176 0.015206 -0.000047 -0.000085 -0.660870
 10   8.637599 0.544015 -0.090417 -3.086237 0.515690 0.245416
 11   6.790465 -0.619039 0.017802 -0.000926 -0.011196 -0.477750
 12   -2.022474 -0.104699 -2.873818 -2.652847 1.267385 -0.117737
 13   1.167898 -0.537463 0.063297 -0.290815 -1.149614 -0.742792
 14   7.002743 -0.617765 -0.183752 0.000059 0.000137 -1.851587
 15   8.209042 0.615527 -0.255885 2.042349 0.116074 0.917989
 16   7.002735 -0.617911 -0.183641 0.013025 0.010244 -1.314793
 17   1.574674 0.609930 -0.000899 0.502812 -0.621342 0.043976
 18   -0.602177 0.511412 -0.000006 0.000000 0.000000 0.000000
 19   3.662054 0.270773 1.119313 -0.000002 -0.000014 -0.174510
 20   3.658141 0.270746 -1.117566 0.000007 -0.000003 -0.174546
 21   3.352495 1.260319 1.572969 0.000002 -0.000011 -0.000026
 22   -0.238247 -0.382994 0.496989 0.000099 -0.028720 0.445010
 23   3.360325 1.256438 -1.623270 0.000019 0.000002 -0.000024
 24   -0.160210 -0.285318 -0.532136 0.000091 -0.028745 0.445076
 25   4.531195 1.993432 1.637143 -0.032209 0.220350 0.007203
 26   4.531213 1.993460 -1.621597 0.035761 -0.204352 -0.020865
 27   3.117593 1.463010 1.502782 -0.000019 -0.000022 -0.000050
 28   3.120023 1.462616 -1.512861 -0.000002 -0.000009 -0.000024
 29   8.824059 0.150544 0.091743 0.077811 -0.031399 0.060069
 30   2.173587 -0.553366 1.647597 -0.002096 0.150174 0.010038
 31   2.218949 -0.557383 -1.755940 0.000398 -0.198845 0.011134
 32   -0.814395 -0.093824 3.127092 0.262921 -3.097582 -0.334816
 33   14.298673 -0.408176 0.471578 0.003687 -0.003117 -0.522469
 34   15.835795 0.581398 0.242756 -0.001271 0.032067 0.122292
 35   -0.815868 -0.091229 -3.114430 -0.132889 3.034913 -0.011455
 36   14.294526 -0.410349 -0.467541 -0.002676 0.001857 -0.384764
 37   15.834409 0.579420 -0.284600 -0.034128 0.026558 0.304555
 38   1.182655 -3.473281 -2.823813 0.008104 -0.006049 0.018574
 39   -4.477274 -0.789221 -0.687584 0.010391 0.022950 -0.091628
 40   1.075131 -3.430237 3.237290 -0.003852 -0.007302 0.030059
 41   -4.293211 -0.891156 1.018162 0.001126 0.002241 -0.009115
 42   -0.583247 1.685583 -2.415168 0.067401 0.104998 -0.010163
 43   -0.660162 1.663421 2.627182 -0.079075 -0.119049 0.020535
time 17
  0   0.009046 4.281381 1.527761 0.000000 0.000000 -1.571449
  1   -1.093036 0.000002 -0.326057 -1.570599 -1.570379 -0.000219
  2   2.262337 0.113614 0.064702 -0.001428 0.008570 -0.060279
  3   2.380047 0.353302 0.047440 -0.209129 -0.075351 0.116699
  4   2.033756 0.190472 -0.000128 -0.182167 0.054470 0.061993
  5   2.451511 0.204909 -0.003447 -0.260005 -0.022213 0.083175
  6   7.247600 -0.397300 -0.109469 0.008174 0.385038 0.599659
  7   -2.022252 -0.104661 3.136172 0.013618 -0.930895 -3.789540
  8   1.168026 -0.537438 -0.063437 -1.178934 0.961271 -0.628049
  9   6.790376 -0.619176 0.015206 -0.000047 -0.000085 -0.670379
 10   8.637599 0.544015 -0.090417 -3.086237 0.516324 0.252723
 11   6.790465 -0.619039 0.017802 -0.000867 -0.011225 -0.484440
 12   -2.022474 -0.104699 -2.873818 -2.653038 1.267327 -0.118024
 13   1.167898 -0.537463 0.063297 -0.259252 -1.141935 -0.772878
 14   7.002743 -0.617765 -0.183752 0.000059 0.000137 -1.851587
 15   8.209042 0.615527 -0.255885 2.042349 0.116150 0.917809
 16   7.002735 -0.617911 -0.183641 0.013025 0.010187 -1.314793
 17   1.574674 0.609930 -0.000899 0.509067 -0.622975 0.030670
 18   -0.602177 0.511412 -0.000006 0.000000 0.000000 0.000000
 19   3.646428 0.364526 1.119313 -0.000002 -0.000014 -0.174510
 20   3.646422 0.364499 -1.117566 0.000007 -0.000003 -0.174546
 21   3.805634 1.330634 1.627658 0.000002 -0.000011 -0.000026
 22   -0.246060 -0.011889 0.516521 -0.000011 0.000031 0.000025
 23   3.805651 1.330659 -1.631083 0.000019 0.000002 -0.000024
 24   -0.246150 -0.011872 -0.516511 -0.000005 -0.000006 0.000048
 25   4.941364 1.997338 1.629330 0.000018 -0.000001 -0.000024
 26   4.941382 1.997366 -1.629410 -0.000001 0.000005 -0.000024
 27   2.930087 1.603639 1.514501 -0.000019 -0.000022 -0.000050
 28   2.932517 1.603245 -1.501142 -0.000002 -0.000009 -0.000024
 29   8.824059 0.150544 0.091743 0.075137 -0.029951 0.051593
 30   2.169681 -0.553366 1.651503 -0.002015 0.144681 0.009673
 31   2.215043 -0.557383 -1.759846 0.000383 -0.191619 0.010733
 32   -0.814395 -0.093824 3.127092 0.262921 -3.097582 -0.334816
 33   14.298673 -0.408176 0.471578 0.003687 -0.003117 -0.522469
 34   15.835795 0.581398 0.242756 -0.001271 0.032067 0.122292
 35   -0.815868 -0.091229 -3.114430 -0.132889 3.034913 -0.011455
 36   14.294526 -0.410349 -0.467541 -0.002676 0.001857 -0.384764
 37   15.834409 0.579420 -0.284600 -0.034128 0.026558 0.304555
 38   1.182655 -3.473281 -2.823813 0.007809 -0.005820 0.017902
 39   -4.477274 -0.800940 -0.687584 0.010007 0.022112 -0.088291
 40   1.075131 -3.430237 3.237290 -0.003726 -0.007037 0.028959
 41   -4.301023 -0.898969 1.014255 0.001078 0.002157 -0.008779
 42   -0.587153 1.685583 -2.422981 0.064956 0.101195 -0.009786
 43   -0.660162 1.667327 2.634995 -0.076214 -0.114734 0.019782
time 18
  0   0.009046 4.281381 1.527761 0.000000 0.000000 -1.571449
  1   -1.093036 0.000002 -0.326057 -1.570599 -1.570379 -0.000219
  2   2.262337 0.113614 0.064702 -0.001428 0.008570 -0.060279
  3   2.380047 0.353302 0.047440 -0.208724 -0.078144 0.107394
  4   2.033756 0.190472 -0.000128 -0.183661 0.056352 0.076891
  5   2.451511 0.204909 -0.003447 -0.260228 -0.018727 0.106281
  6   7.247600 -0.397300 -0.109469 0.008174 0.385038 0.599659
  7   -2.022252 -0.104661 3.136172 0.013618 -0.930895 -3.789540
  8   1.168026 -0.537438 -0.063437 -1.201715 0.940592 -0.651582
  9   6.790376 -0.619176 0.015206 -0.000047 -0.000085 -0.686529
 10   8.637599 0.544015 -0.090417 -3.086501 0.517731 0.265166
 11   6.790465 -0.619039 0.017802 -0.000838 -0.011225 -0.495802
 12   -2.022474 -0.104699 -2.873818 -2.652080 1.267791 -0.117067
 13   1.167898 -0.537463 0.063297 -0.203929 -1.125305 -0.826330
 14   7.002743 -0.617765 -0.183752 0.000059 0.000137 -1.851587
 15   8.209042 0.615527 -0.255885 2.042349 0.115923 0.917989
 16   7.002735 -0.617911 -0.183641 0.013025 0.010244 -1.314793
 17   1.574674 0.609930 -0.000899 0.520847 -0.626667 0.005462
 18   -0.602177 0.511412 -0.000006 0.000000 0.000000 0.000000
 19   3.646428 0.364526 1.119313 -0.000002 -0.000014 -0.174510
 20   3.646422 0.364499 -1.117566 0.000007 -0.000003 -0.174546
 21   3.805634 1.330634 1.627658 0.000002 -0.000011 -0.000026
 22   -0.246060 -0.011889 0.516521 -0.000011 0.000031 0.000025
 23   3.805651 1.330659 -1.631083 0.000019 0.000002 -0.000024
 24   -0.246150 -0.011872 -0.516511 -0.000005 -0.000006 0.000048
 25   4.941364 1.997338 1.629330 0.000018 -0.000001 -0.000024
 26   4.941382 1.997366 -1.629410 -0.000001 0.000005 -0.000024
 27   2.930087 1.603639 1.514501 -0.000019 -0.000022 -0.000050
 28   2.932517 1.603245 -1.501142 -0.000002 -0.000009 -0.000024
 29   8.824059 0.150544 0.091743 0.070948 -0.027767 0.038503
 30   2.165774 -0.553366 1.659316 -0.001893 0.136225 0.009116
 31   2.207230 -0.557383 -1.763752 0.000352 -0.180455 0.010096
 32   -0.814395 -0.093824 3.127092 0.262921 -3.097582 -0.334816
 33   14.298673 -0.408176 0.471578 0.003687 -0.003117 -0.522469
 34   15.835795 0.581398 0.242756 -0.001271 0.032067 0.122292
 35   -0.815868 -0.091229 -3.114430 -0.132889 3.034913 -0.011455
 36   14.294526 -0.410349 -0.467541 -0.002676 0.001857 -0.384764
 37   15.834409 0.579420 -0.284600 -0.034128 0.026558 0.304555
 38   1.178749 -3.469374 -2.823813 0.007367 -0.005483 0.016863
 39   -4.473368 -0.816566 -0.691491 0.009432 0.020829 -0.083158
 40   1.079037 -3.434144 3.237290 -0.003494 -0.006627 0.027309
 41   -4.308836 -0.906782 1.010349 0.001018 0.002025 -0.008274
 42   -0.591060 1.689489 -2.438606 0.061169 0.095292 -0.009201
 43   -0.660162 1.667327 2.650620 -0.071766 -0.108049 0.018611
time 19
  0   0.009046 4.281381 1.527761 0.000000 0.000000 -1.571449
  1   -1.093036 0.000002 -0.326057 -1.570599 -1.570379 -0.000219
  2   2.262337 0.113614 0.064702 -0.001428 0.008570 -0.060279
  3   2.380047 0.353302 0.047440 -0.208439 -0.080145 0.100497
  4   2.033756 0.190472 -0.000128 -0.184454 0.057394 0.085264
  5   2.451511 0.204909 -0.003447 -0.260296 -0.016847 0.118317
  6   7.247600 -0.397300 -0.109469 0.007384 0.384139 0.587623
  7   -2.022252 -0.104661 3.136172 0.019657 -0.929396 -3.783154
  8   1.168026 -0.537438 -0.063437 -1.212789 0.930881 -0.662842
  9   6.790376 -0.619176 0.015206 -0.000047 -0.000085 -0.693019
 10   8.637599 0.544015 -0.090417 -3.086589 0.518224 0.270157
 11   6.790465 -0.619039 0.017802 -0.000809 -0.011225 -0.500301
 12   -2.022474 -0.104699 -2.873818 -2.664056 1.269039 -0.117067
 13   1.167898 -0.537463 0.063297 -0.180099 -1.116558 -0.849515
 14   7.002743 -0.617765 -0.183752 0.000059 0.000137 -1.851587
 15   8.209042 0.615527 -0.255885 2.042349 0.115847 0.918169
 16   7.002735 -0.617911 -0.183641 0.013025 0.010244 -1.314793
 17   1.574674 0.609930 -0.000899 0.520482 -0.625673 0.010415
 18   -0.602177 0.511412 -0.000006 0.000000 0.000000 0.000000
 19   3.646428 0.364526 1.119313 -0.000002 -0.000014 -0.174510
 20   3.646422 0.364499 -1.117566 0.000007 -0.000003 -0.174546
 21   3.805634 1.330634 1.627658 0.000002 -0.000011 -0.000026
 22   -0.246060 -0.011889 0.516521 -0.000011 0.000031 0.000025
 23   3.805651 1.330659 -1.631083 0.000019 0.000002 -0.000024
 24   -0.246150 -0.011872 -0.516511 -0.000005 -0.000006 0.000048
 25   4.941364 1.997338 1.629330 0.000018 -0.000001 -0.000024
 26   4.941382 1.997366 -1.629410 -0.000001 0.000005 -0.000024
 27   2.930087 1.603639 1.514501 -0.000019 -0.000022 -0.000050
 28   2.932517 1.603245 -1.501142 -0.000002 -0.000009 -0.000024
 29   8.824059 0.150544 0.091743 0.065601 -0.025013 0.021603
 30   2.161868 -0.553366 1.671035 -0.001744 0.125327 0.008387
 31   2.199417 -0.557383 -1.771565 0.000337 -0.166080 0.009296
 32   -0.814395 -0.093824 3.127092 0.262921 -3.097582 -0.334816
 33   14.298673 -0.408176 0.471578 0.003687 -0.003117 -0.522469
 34   15.835795 0.581398 0.242756 -0.001271 0.032067 0.122292
 35   -0.815868 -0.091229 -3.114430 -0.132889 3.034913 -0.011455
 36   14.294526 -0.410349 -0.467541 -0.002676 0.001857 -0.384764
 37   15.834409 0.579420 -0.284600 -0.034128 0.026558 0.304555
 38   1.178749 -3.469374 -2.823813 0.006778 -0.005049 0.015519
 39   -4.473368 -0.836097 -0.695397 0.008677 0.019163 -0.076511
 40   1.079037 -3.434144 3.237290 -0.003221 -0.006097 0.025110
 41   -4.316648 -0.918501 1.006442 0.000934 0.001870 -0.007629
 42   -0.594966 1.689489 -2.458138 0.056304 0.087703 -0.008490
 43   -0.660162 1.671233 2.666246 -0.066044 -0.099435 0.017147
time 20
  0   0.009046 4.281381 1.527761 0.000000 0.000000 -1.571449
  1   -1.093036 0.000002 -0.326057 -1.570599 -1.570379 -0.000219
  2   2.262337 0.113614 0.064702 -0.001428 0.008570 -0.060279
  3   2.380047 0.353302 0.047440 -0.208079 -0.082158 0.093661
  4   2.033756 0.190472 -0.000128 -0.185247 0.058485 0.093492
  5   2.451511 0.204909 -0.003447 -0.260296 -0.015136 0.129635
  6   7.247600 -0.397300 -0.109469 0.005394 0.381874 0.556738
  7   -2.022252 -0.104661 3.136172 0.034899 -0.925821 -3.766531
  8   1.168026 -0.537438 -0.063437 -1.222850 0.921271 -0.672964
  9   6.790376 -0.619176 0.015206 -0.000047 -0.000085 -0.698679
 10   8.637599 0.544015 -0.090417 -3.086501 0.518928 0.274570
 11   6.790465 -0.619039 0.017802 -0.000780 -0.011225 -0.504280
 12   -2.022474 -0.104699 -2.873818 -2.694523 1.271825 -0.117354
 13   1.167898 -0.537463 0.063297 -0.159572 -1.107303 -0.869673
 14   7.002743 -0.617765 -0.183752 0.000059 0.000137 -1.851587
 15   8.209042 0.615527 -0.255885 2.042349 0.115620 0.918651
 16   7.002735 -0.617911 -0.183641 0.013025 0.010244 -1.314682
 17   1.574674 0.609930 -0.000899 0.519873 -0.622407 0.022834
 18   -0.602177 0.511412 -0.000006 0.000000 0.000000 0.000000
 19   3.646428 0.364526 1.119313 -0.000002 -0.000014 -0.174510
 20   3.646422 0.364499 -1.117566 0.000007 -0.000003 -0.174546
 21   3.805634 1.330634 1.627658 0.000002 -0.000011 -0.000026
 22   -0.246060 -0.011889 0.516521 -0.000011 0.000031 0.000025
 23   3.805651 1.330659 -1.631083 0.000019 0.000002 -0.000024
 24   -0.246150 -0.011872 -0.516511 -0.000005 -0.000006 0.000048
 25   4.941364 1.997338 1.629330 0.000018 -0.000001 -0.000024
 26   4.941382 1.997366 -1.629410 -0.000001 0.000005 -0.000024
 27   2.930087 1.603639 1.514501 -0.000019 -0.000022 -0.000050
 28   2.932517 1.603245 -1.501142 -0.000002 -0.000009 -0.000024
 29   8.824059 0.150544 0.091743 0.059095 -0.021928 0.001754
 30   2.157961 -0.553366 1.682754 -0.001567 0.112511 0.007529
 31   2.191605 -0.557383 -1.779378 0.000291 -0.149192 0.008350
 32   -0.814395 -0.093824 3.127092 0.262921 -3.097582 -0.334816
 33   14.298673 -0.408176 0.471578 0.003687 -0.003117 -0.522469
 34   15.835795 0.581398 0.242756 -0.001271 0.032067 0.122292
 35   -0.815868 -0.091229 -3.114430 -0.132889 3.034913 -0.011455
 36   14.294526 -0.410349 -0.467541 -0.002676 0.001857 -0.384764
 37   15.834409 0.579420 -0.284600 -0.034128 0.026558 0.304555
 38   1.170936 -3.469374 -2.823813 0.006083 -0.004531 0.013931
 39   -4.473368 -0.855629 -0.703210 0.007790 0.017222 -0.068742
 40   1.086850 -3.434144 3.237290 -0.002884 -0.005470 0.022544
 41   -4.328368 -0.934126 1.002536 0.000838 0.001678 -0.006843
 42   -0.602779 1.689489 -2.481576 0.050575 0.078779 -0.007612
 43   -0.660162 1.675140 2.685778 -0.059334 -0.089329 0.015391
time 21
  0   0.009046 4.281381 1.527761 0.000000 0.000000 -1.571449
  1   -1.093036 0.000002 -0.326057 -1.570599 -1.570379 -0.000219
  2   2.262337 0.113614 0.064702 -0.001428 0.008570 -0.060279
  3   2.380047 0.353302 0.047440 -0.207614 -0.084867 0.084642
  4   2.033756 0.190472 -0.000128 -0.186704 0.060354 0.108462
  5   2.451511 0.204909 -0.003447 -0.260382 -0.012016 0.150190
  6   7.247600 -0.397300 -0.109469 0.002722 0.378566 0.513786
  7   -2.022252 -0.104661 3.136172 0.055892 -0.920978 -3.743521
  8   1.168026 -0.537438 -0.063437 -1.241138 0.900592 -0.691246
  9   6.790376 -0.619176 0.015206 -0.000047 -0.000085 -0.711886
 10   8.637599 0.544015 -0.090417 -3.086237 0.520617 0.285494
 11   6.790465 -0.619039 0.017802 -0.000721 -0.011225 -0.513508
 12   -2.022474 -0.104699 -2.873818 -2.735145 1.277485 -0.116205
 13   1.167898 -0.537463 0.063297 -0.117886 -1.087876 -0.909989
 14   7.002743 -0.617765 -0.183752 0.000059 0.000137 -1.851422
 15   8.209042 0.615527 -0.255885 2.042277 0.114939 0.919853
 16   7.002735 -0.617911 -0.183641 0.013025 0.010187 -1.314572
 17   1.574674 0.609930 -0.000899 0.519385 -0.617082 0.039540
 18   -0.602177 0.511412 -0.000006 0.000000 0.000000 0.000000
 19   3.646428 0.364526 1.119313 -0.000002 -0.000014 -0.174510
 20   3.646422 0.364499 -1.117566 0.000007 -0.000003 -0.174546
 21   3.805634 1.330634 1.627658 0.000002 -0.000011 -0.000026
 22   -0.246060 -0.011889 0.516521 -0.000011 0.000031 0.000025
 23   3.805651 1.330659 -1.631083 0.000019 0.000002 -0.000024
 24   -0.246150 -0.011872 -0.516511 -0.000005 -0.000006 0.000048
 25   4.941364 1.997338 1.629330 0.000018 -0.000001 -0.000024
 26   4.941382 1.997366 -1.629410 -0.000001 0.000005 -0.000024
 27   2.930087 1.603639 1.514501 -0.000019 -0.000022 -0.000050
 28   2.932517 1.603245 -1.501142 -0.000002 -0.000009 -0.000024
 29   8.824059 0.150544 0.091743 0.051965 -0.018628 -0.020242
 30   2.150149 -0.557273 1.694474 -0.001378 0.098329 0.006607
 31   2.183792 -0.557383 -1.791097 0.000260 -0.130517 0.007313
 32   -0.814395 -0.093824 3.127092 0.262921 -3.097582 -0.334816
 33   14.298673 -0.408176 0.471578 0.003687 -0.003117 -0.522469
 34   15.835795 0.581398 0.242756 -0.001271 0.032067 0.122292
 35   -0.815868 -0.091229 -3.114430 -0.132889 3.034913 -0.011455
 36   14.294526 -0.410349 -0.467541 -0.002676 0.001857 -0.384764
 37   15.834409 0.579420 -0.284600 -0.034128 0.026558 0.304555
 38   1.167030 -3.465468 -2.823813 0.005325 -0.003965 0.012159
 39   -4.469461 -0.882974 -0.707116 0.006819 0.015065 -0.060132
 40   1.090756 -3.438050 3.237290 -0.002526 -0.004783 0.019734
 41   -4.343993 -0.949752 0.994723 0.000730 0.001462 -0.005974
 42   -0.610592 1.689489 -2.508921 0.044235 0.068921 -0.006650
 43   -0.660162 1.675140 2.709216 -0.051900 -0.078141 0.013467
time 22
  0   0.009046 4.281381 1.527761 0.000000 0.000000 -1.571449
  1   -1.093036 0.000002 -0.326057 -1.570599 -1.570379 -0.000219
  2   2.262337 0.113614 0.064702 -0.001428 0.008570 -0.060279
  3   2.380047 0.353302 0.047440 -0.207524 -0.085394 0.082785
  4   2.033756 0.190472 -0.000128 -0.187331 0.061229 0.115095
  5   2.451511 0.204909 -0.003447 -0.260382 -0.010567 0.159403
  6   7.247600 -0.397300 -0.109469 0.001439 0.376900 0.492373
  7   -2.022252 -0.104661 3.136172 0.066628 -0.918586 -3.732063
  8   1.168026 -0.537438 -0.063437 -1.249302 0.889422 -0.699280
  9   6.790376 -0.619176 0.015206 -0.000047 -0.000085 -0.718829
 10   8.637599 0.544015 -0.090417 -3.086237 0.521955 0.291644
 11   6.790465 -0.619039 0.017802 -0.000692 -0.011225 -0.518410
 12   -2.022474 -0.104699 -2.873818 -2.754115 1.281345 -0.114386
 13   1.167898 -0.537463 0.063297 -0.098555 -1.077502 -0.929239
 14   7.002743 -0.617765 -0.183752 0.000059 0.000137 -1.851257
 15   8.209042 0.615527 -0.255885 2.042277 0.114561 0.920695
 16   7.002735 -0.617911 -0.183641 0.013025 0.010187 -1.314572
 17   1.574674 0.609930 -0.000899 0.518816 -0.614029 0.047561
 18   -0.602177 0.511412 -0.000006 0.000000 0.000000 0.000000
 19   3.646428 0.364526 1.119313 -0.000002 -0.000014 -0.174510
 20   3.646422 0.364499 -1.117566 0.000007 -0.000003 -0.174546
 21   3.805634 1.330634 1.627658 0.000002 -0.000011 -0.000026
 22   -0.246060 -0.011889 0.516521 -0.000011 0.000031 0.000025
 23   3.805651 1.330659 -1.631083 0.000019 0.000002 -0.000024
 24   -0.246150 -0.011872 -0.516511 -0.000005 -0.000006 0.000048
 25   4.941364 1.997338 1.629330 0.000018 -0.000001 -0.000024
 26   4.941382 1.997366 -1.629410 -0.000001 0.000005 -0.000024
 27   2.930087 1.603639 1.514501 -0.000019 -0.000022 -0.000050
 28   2.932517 1.603245 -1.501142 -0.000002 -0.000009 -0.000024
 29   8.824059 0.150544 0.091743 0.044211 -0.015328 -0.043579
 30   2.146242 -0.557273 1.710099 -0.001161 0.083334 0.005599
 31   2.172073 -0.561289 -1.798910 0.000215 -0.110755 0.006203
 32   -0.814395 -0.093824 3.127092 0.262921 -3.097582 -0.334816
 33   14.298673 -0.408176 0.471578 0.003687 -0.003117 -0.522469
 34   15.835795 0.581398 0.242756 -0.001271 0.032067 0.122292
 35   -0.815868 -0.091229 -3.114430 -0.132889 3.034913 -0.011455
 36   14.294526 -0.410349 -0.467541 -0.002676 0.001857 -0.384764
 37   15.834409 0.579420 -0.284600 -0.034128 0.026558 0.304555
 38   1.163123 -3.465468 -2.823813 0.004505 -0.003362 0.010326
 39   -4.469461 -0.910318 -0.714929 0.005789 0.012776 -0.051017
 40   1.094663 -3.438050 3.237290 -0.002147 -0.004060 0.016740
 41   -4.355712 -0.965377 0.990817 0.000622 0.001246 -0.005076
 42   -0.618404 1.693396 -2.536265 0.037548 0.058479 -0.005646
 43   -0.664068 1.679046 2.736560 -0.044042 -0.066310 0.011418
time 23
  0   0.009046 4.281381 1.527761 0.000000 0.000000 -1.571449
  1   -1.093036 0.000002 -0.326057 -1.570599 -1.570379 -0.000219
  2   2.262337 0.113614 0.064702 -0.001428 0.008570 -0.060279
  3   2.380047 0.353302 0.047440 -0.207494 -0.085574 0.082193
  4   2.033756 0.190472 -0.000128 -0.187626 0.061721 0.118611
  5   2.451511 0.204909 -0.003447 -0.260296 -0.009771 0.164579
  6   7.247600 -0.397300 -0.109469 0.000301 0.375211 0.470960
  7   -2.022252 -0.104661 3.136172 0.077268 -0.916453 -3.720699
  8   1.168026 -0.537438 -0.063437 -1.253351 0.881422 -0.702886
  9   6.790376 -0.619176 0.015206 -0.000047 -0.000085 -0.723206
 10   8.637599 0.544015 -0.090417 -3.085796 0.523363 0.295767
 11   6.790465 -0.619039 0.017802 -0.000663 -0.011225 -0.521410
 12   -2.022474 -0.104699 -2.873818 -2.770689 1.288195 -0.109503
 13   1.167898 -0.537463 0.063297 -0.089557 -1.068145 -0.938743
 14   7.002743 -0.617765 -0.183752 0.000059 0.000137 -1.851092
 15   8.209042 0.615527 -0.255885 2.042277 0.113578 0.922379
 16   7.002735 -0.617911 -0.183641 0.013025 0.010187 -1.314462
 17   1.574674 0.609930 -0.000899 0.516663 -0.610976 0.061495
 18   -0.602177 0.511412 -0.000006 0.000000 0.000000 0.000000
 19   3.646428 0.364526 1.119313 -0.000002 -0.000014 -0.174510
 20   3.646422 0.364499 -1.117566 0.000007 -0.000003 -0.174546
 21   3.805634 1.330634 1.627658 0.000002 -0.000011 -0.000026
 22   -0.246060 -0.011889 0.516521 -0.000011 0.000031 0.000025
 23   3.805651 1.330659 -1.631083 0.000019 0.000002 -0.000024
 24   -0.246150 -0.011872 -0.516511 -0.000005 -0.000006 0.000048
 25   4.941364 1.997338 1.629330 0.000018 -0.000001 -0.000024
 26   4.941382 1.997366 -1.629410 -0.000001 0.000005 -0.000024
 27   2.930087 1.603639 1.514501 -0.000019 -0.000022 -0.000050
 28   2.932517 1.603245 -1.501142 -0.000002 -0.000009 -0.000024
 29   8.824059 0.150544 0.091743 0.036368 -0.012147 -0.067345
 30   2.138430 -0.557273 1.721818 -0.000957 0.068076 0.004591
 31   2.164260 -0.561289 -1.810629 0.000184 -0.090655 0.005075
 32   -0.814395 -0.093824 3.127092 0.262921 -3.097582 -0.334816
 33   14.298673 -0.408176 0.471578 0.003687 -0.003117 -0.522469
 34   15.835795 0.581398 0.242756 -0.001271 0.032067 0.122292
 35   -0.815868 -0.091229 -3.114430 -0.132889 3.034913 -0.011455
 36   14.294526 -0.410349 -0.467541 -0.002676 0.001857 -0.384764
 37   15.834409 0.579420 -0.284600 -0.034128 0.026558 0.304555
 38   1.159217 -3.461562 -2.823813 0.003684 -0.002748 0.008432
 39   -4.465555 -0.933757 -0.718835 0.004734 0.010463 -0.041761
 40   1.098569 -3.441956 3.237290 -0.001747 -0.003325 0.013685
 41   -4.371338 -0.984909 0.983004 0.000502 0.001019 -0.004151
 42   -0.626217 1.693396 -2.563610 0.030728 0.047869 -0.004600
 43   -0.664068 1.682953 2.759999 -0.036045 -0.054275 0.009326
time 24
  0   0.009046 4.281381 1.527761 0.000000 0.000000 -1.571449
  1   -1.093036 0.000002 -0.326057 -1.570599 -1.570379 -0.000219
  2   2.262337 0.113614 0.064702 -0.001428 0.008570 -0.060279
  3   2.380047 0.353302 0.047440 -0.207464 -0.085802 0.081520
  4   2.033756 0.190472 -0.000128 -0.187995 0.062284 0.122888
  5   2.451511 0.204909 -0.003447 -0.260296 -0.008778 0.171216
  6   7.247600 -0.397300 -0.109469 -0.001941 0.371699 0.428229
  7   -2.022252 -0.104661 3.136172 0.098740 -0.912215 -3.698066
  8   1.168026 -0.537438 -0.063437 -1.257401 0.871158 -0.705353
  9   6.790376 -0.619176 0.015206 -0.000047 -0.000085 -0.726300
 10   8.637599 0.544015 -0.090417 -3.084739 0.526037 0.300180
 11   6.790465 -0.619039 0.017802 -0.000663 -0.011225 -0.523659
 12   -2.022474 -0.104699 -2.873818 -2.802689 1.304100 -0.098876
 13   1.167898 -0.537463 0.063297 -0.085058 -1.052786 -0.944978
 14   7.002743 -0.617765 -0.183752 0.000059 0.000137 -1.850597
 15   8.209042 0.615527 -0.255885 2.042277 0.111156 0.926408
 16   7.002735 -0.617911 -0.183641 0.013025 0.010187 -1.314075
 17   1.574674 0.609930 -0.000899 0.506955 -0.605509 0.098124
 18   -0.602177 0.511412 -0.000006 0.000000 0.000000 0.000000
 19   3.646428 0.364526 1.119313 -0.000002 -0.000014 -0.174510
 20   3.646422 0.364499 -1.117566 0.000007 -0.000003 -0.174546
 21   3.805634 1.330634 1.627658 0.000002 -0.000011 -0.000026
 22   -0.246060 -0.011889 0.516521 -0.000011 0.000031 0.000025
 23   3.805651 1.330659 -1.631083 0.000019 0.000002 -0.000024
 24   -0.246150 -0.011872 -0.516511 -0.000005 -0.000006 0.000048
 25   4.941364 1.997338 1.629330 0.000018 -0.000001 -0.000024
 26   4.941382 1.997366 -1.629410 -0.000001 0.000005 -0.000024
 27   2.930087 1.603639 1.514501 -0.000019 -0.000022 -0.000050
 28   2.932517 1.603245 -1.501142 -0.000002 -0.000009 -0.000024
 29   8.824059 0.150544 0.091743 0.028525 -0.009228 -0.090682
 30   2.130617 -0.561179 1.737444 -0.000740 0.053081 0.003584
 31   2.152541 -0.561289 -1.818442 0.000138 -0.070892 0.003965
 32   -0.814395 -0.093824 3.127092 0.262921 -3.097582 -0.334816
 33   14.298673 -0.408176 0.471578 0.003687 -0.003117 -0.522469
 34   15.835795 0.581398 0.242756 -0.001271 0.032067 0.122292
 35   -0.815868 -0.091229 -3.114430 -0.132889 3.034913 -0.011455
 36   14.294526 -0.410349 -0.467541 -0.002676 0.001857 -0.384764
 37   15.834409 0.579420 -0.284600 -0.034128 0.026558 0.304555
 38   1.155311 -3.457655 -2.823813 0.002884 -0.002157 0.006599
 39   -4.461648 -0.961101 -0.726648 0.003703 0.008173 -0.032646
 40   1.102476 -3.445863 3.237290 -0.001368 -0.002602 0.010692
 41   -4.386963 -1.000534 0.979098 0.000394 0.000791 -0.003253
 42   -0.634030 1.693396 -2.590955 0.024029 0.037428 -0.003597
 43   -0.664068 1.686859 2.783437 -0.028187 -0.042443 0.007319
time 25
  0   0.009046 4.281381 1.527761 0.000000 0.000000 -1.571449
  1   -1.093036 0.000002 -0.326057 -1.570599 -1.570379 -0.000219
  2   2.262337 0.113614 0.064702 -0.001428 0.008570 -0.060279
  3   2.380047 0.353302 0.047440 -0.207464 -0.085778 0.081581
  4   2.033756 0.190472 -0.000128 -0.188032 0.062356 0.123323
  5   2.451511 0.204909 -0.003447 -0.260296 -0.008674 0.171959
  6   7.247600 -0.397300 -0.109469 -0.003534 0.369134 0.397535
  7   -2.022252 -0.104661 3.136172 0.114173 -0.909332 -3.681536
  8   1.168026 -0.537438 -0.063437 -1.256958 0.868139 -0.703139
  9   6.790376 -0.619176 0.015206 -0.000047 -0.000085 -0.726149
 10   8.637599 0.544015 -0.090417 -3.083947 0.527445 0.300831
 11   6.790465 -0.619039 0.017802 -0.000663 -0.011225 -0.523486
 12   -2.022474 -0.104699 -2.873818 -2.828174 1.313330 -0.095142
 13   1.167898 -0.537463 0.063297 -0.088362 -1.046481 -0.943344
 14   7.002743 -0.617765 -0.183752 0.000059 0.000137 -1.850432
 15   8.209042 0.615527 -0.255885 2.042277 0.109870 0.928633
 16   7.002735 -0.617911 -0.183641 0.013025 0.010187 -1.313965
 17   1.574674 0.609930 -0.000899 0.498384 -0.601746 0.127360
 18   -0.602177 0.511412 -0.000006 0.000000 0.000000 0.000000
 19   3.646428 0.364526 1.119313 -0.000002 -0.000014 -0.174510
 20   3.646422 0.364499 -1.117566 0.000007 -0.000003 -0.174546
 21   3.805634 1.330634 1.627658 0.000002 -0.000011 -0.000026
 22   -0.246060 -0.011889 0.516521 -0.000011 0.000031 0.000025
 23   3.805651 1.330659 -1.631083 0.000019 0.000002 -0.000024
 24   -0.246150 -0.011872 -0.516511 -0.000005 -0.000006 0.000048
 25   4.941364 1.997338 1.629330 0.000018 -0.000001 -0.000024
 26   4.941382 1.997366 -1.629410 -0.000001 0.000005 -0.000024
 27   2.930087 1.603639 1.514501 -0.000019 -0.000022 -0.000050
 28   2.932517 1.603245 -1.501142 -0.000002 -0.000009 -0.000024
 29   8.824059 0.150544 0.091743 0.021039 -0.006617 -0.112785
 30   2.126710 -0.561179 1.749163 -0.000550 0.038928 0.002640
 31   2.144728 -0.561289 -1.830161 0.000092 -0.052217 0.002909
 32   -0.814395 -0.093824 3.127092 0.262921 -3.097582 -0.334816
 33   14.298673 -0.408176 0.471578 0.003687 -0.003117 -0.522469
 34   15.835795 0.581398 0.242756 -0.001271 0.032067 0.122292
 35   -0.815868 -0.091229 -3.114430 -0.132889 3.034913 -0.011455
 36   14.294526 -0.410349 -0.467541 -0.002676 0.001857 -0.384764
 37   15.834409 0.579420 -0.284600 -0.034128 0.026558 0.304555
 38   1.151404 -3.457655 -2.823813 0.002126 -0.001579 0.004827
 39   -4.461648 -0.988446 -0.730555 0.002721 0.006028 -0.024036
 40   1.106382 -3.445863 3.237290 -0.001010 -0.001915 0.007881
 41   -4.398683 -1.016160 0.971285 0.000287 0.000587 -0.002384
 42   -0.637936 1.697302 -2.618299 0.017701 0.027570 -0.002635
 43   -0.664068 1.690765 2.806875 -0.020765 -0.031255 0.005395
time 26
  0   0.009046 4.281381 1.527761 0.000000 0.000000 -1.571449
  1   -1.093036 0.000002 -0.326057 -1.570599 -1.570379 -0.000219
  2   2.262337 0.113614 0.064702 -0.001428 0.008570 -0.060279
  3   2.380047 0.353302 0.047440 -0.207464 -0.085658 0.081989
  4   2.033756 0.190472 -0.000128 -0.188032 0.062356 0.123468
  5   2.451511 0.204909 -0.003447 -0.260296 -0.008648 0.172058
  6   7.247600 -0.397300 -0.109469 -0.004182 0.368140 0.385593
  7   -2.022252 -0.104661 3.136172 0.120212 -0.908323 -3.674774
  8   1.168026 -0.537438 -0.063437 -1.256262 0.867485 -0.701874
  9   6.790376 -0.619176 0.015206 -0.000047 -0.000085 -0.725319
 10   8.637599 0.544015 -0.090417 -3.083595 0.528501 0.301048
 11   6.790465 -0.619039 0.017802 -0.000663 -0.011225 -0.522851
 12   -2.022474 -0.104699 -2.873818 -2.836605 1.321282 -0.090642
 13   1.167898 -0.537463 0.063297 -0.093775 -1.042260 -0.938864
 14   7.002743 -0.617765 -0.183752 0.000059 0.000137 -1.850267
 15   8.209042 0.615527 -0.255885 2.042277 0.108735 0.930618
 16   7.002735 -0.617911 -0.183641 0.013025 0.010187 -1.313799
 17   1.574674 0.609930 -0.000899 0.492494 -0.600278 0.144547
 18   -0.602177 0.511412 -0.000006 0.000000 0.000000 0.000000
 19   3.646428 0.364526 1.119313 -0.000002 -0.000014 -0.174510
 20   3.646422 0.364499 -1.117566 0.000007 -0.000003 -0.174546
 21   3.805634 1.330634 1.627658 0.000002 -0.000011 -0.000026
 22   -0.246060 -0.011889 0.516521 -0.000011 0.000031 0.000025
 23   3.805651 1.330659 -1.631083 0.000019 0.000002 -0.000024
 24   -0.246150 -0.011872 -0.516511 -0.000005 -0.000006 0.000048
 25   4.941364 1.997338 1.629330 0.000018 -0.000001 -0.000024
 26   4.941382 1.997366 -1.629410 -0.000001 0.000005 -0.000024
 27   2.930087 1.603639 1.514501 -0.000019 -0.000022 -0.000050
 28   2.932517 1.603245 -1.501142 -0.000002 -0.000009 -0.000024
 29   8.824059 0.150544 0.091743 0.014266 -0.004409 -0.132796
 30   2.118898 -0.561179 1.760882 -0.000374 0.026112 0.001804
 31   2.136915 -0.561289 -1.837973 0.000061 -0.035330 0.001963
 32   -0.814395 -0.093824 3.127092 0.262921 -3.097582 -0.334816
 33   14.298673 -0.408176 0.471578 0.003687 -0.003117 -0.522469
 34   15.835795 0.581398 0.242756 -0.001271 0.032067 0.122292
 35   -0.815868 -0.091229 -3.114430 -0.132889 3.034913 -0.011455
 36   14.294526 -0.410349 -0.467541 -0.002676 0.001857 -0.384764
 37   15.834409 0.579420 -0.284600 -0.034128 0.026558 0.304555
 38   1.147498 -3.453749 -2.823813 0.001431 -0.001073 0.003300
 39   -4.457742 -1.007978 -0.738367 0.001846 0.004075 -0.016267
 40   1.110288 -3.449769 3.237290 -0.000674 -0.001288 0.005315
 41   -4.410401 -1.031785 0.967379 0.000191 0.000395 -0.001599
 42   -0.645749 1.697302 -2.641737 0.011973 0.018646 -0.001798
 43   -0.664068 1.694672 2.826407 -0.014043 -0.021150 0.003639
time 27
  0   0.009046 4.281381 1.527761 0.000000 0.000000 -1.571449
  1   -1.093036 0.000002 -0.326057 -1.570599 -1.570379 -0.000219
  2   2.262337 0.113614 0.064702 -0.001428 0.008570 -0.060279
  3   2.380047 0.353302 0.047440 -0.207539 -0.085286 0.083091
  4   2.033756 0.190472 -0.000128 -0.187958 0.062092 0.121837
  5   2.451511 0.204909 -0.003447 -0.260296 -0.008987 0.169532
  6   7.247600 -0.397300 -0.109469 -0.004182 0.368140 0.385593
  7   -2.022252 -0.104661 3.136172 0.120212 -0.908323 -3.674774
  8   1.168026 -0.537438 -0.063437 -1.252466 0.868139 -0.696117
  9   6.790376 -0.619176 0.015206 -0.000047 -0.000085 -0.722225
 10   8.637599 0.544015 -0.090417 -3.082538 0.530050 0.299602
 11   6.790465 -0.619039 0.017802 -0.000663 -0.011225 -0.520717
 12   -2.022474 -0.104699 -2.873818 -2.821755 1.332776 -0.075515
 13   1.167898 -0.537463 0.063297 -0.107061 -1.037022 -0.928331
 14   7.002743 -0.617765 -0.183752 0.000059 0.000137 -1.849772
 15   8.209042 0.615527 -0.255885 2.042277 0.106693 0.933986
 16   7.002735 -0.617911 -0.183641 0.013025 0.010187 -1.313523
 17   1.574674 0.609930 -0.000899 0.490869 -0.600349 0.148058
 18   -0.602177 0.511412 -0.000006 0.000000 0.000000 0.000000
 19   3.646428 0.364526 1.119313 -0.000002 -0.000014 -0.174510
 20   3.646422 0.364499 -1.117566 0.000007 -0.000003 -0.174546
 21   3.805634 1.330634 1.627658 0.000002 -0.000011 -0.000026
 22   -0.246060 -0.011889 0.516521 -0.000011 0.000031 0.000025
 23   3.805651 1.330659 -1.631083 0.000019 0.000002 -0.000024
 24   -0.246150 -0.011872 -0.516511 -0.000005 -0.000006 0.000048
 25   4.941364 1.997338 1.629330 0.000018 -0.000001 -0.000024
 26   4.941382 1.997366 -1.629410 -0.000001 0.000005 -0.000024
 27   2.930087 1.603639 1.514501 -0.000019 -0.000022 -0.000050
 28   2.932517 1.603245 -1.501142 -0.000002 -0.000009 -0.000024
 29   8.824059 0.150544 0.091743 0.008473 -0.002629 -0.149802
 30   2.114991 -0.561179 1.772601 -0.000225 0.015185 0.001075
 31   2.129103 -0.561289 -1.845786 0.000031 -0.020928 0.001163
 32   -0.814395 -0.093824 3.127092 0.262921 -3.097582 -0.334816
 33   14.298673 -0.408176 0.471578 0.003687 -0.003117 -0.522469
 34   15.835795 0.581398 0.242756 -0.001271 0.032067 0.122292
 35   -0.815868 -0.091229 -3.114430 -0.132889 3.034913 -0.011455
 36   14.294526 -0.410349 -0.467541 -0.002676 0.001857 -0.384764
 37   15.834409 0.579420 -0.284600 -0.034128 0.026558 0.304555
 38   1.143591 -3.453749 -2.823813 0.000842 -0.000627 0.001956
 39   -4.457742 -1.027509 -0.742274 0.001091 0.002409 -0.009648
 40   1.114195 -3.449769 3.237290 -0.000400 -0.000758 0.003116
 41   -4.422121 -1.043504 0.963472 0.000107 0.000228 -0.000954
 42   -0.649655 1.697302 -2.661269 0.007095 0.011057 -0.001046
 43   -0.664068 1.698578 2.845939 -0.008321 -0.012535 0.002133
time 28
  0   0.009046 4.281381 1.527761 0.000000 0.000000 -1.571449
  1   -1.093036 0.000002 -0.326057 -1.570599 -1.570379 -0.000219
  2   2.262337 0.113614 0.064702 -0.001428 0.008570 -0.060279
  3   2.380047 0.353302 0.047440 -0.207554 -0.085131 0.083703
  4   2.033756 0.190472 -0.000128 -0.187829 0.061936 0.120677
  5   2.451511 0.204909 -0.003447 -0.260296 -0.009274 0.167724
  6   7.247600 -0.397300 -0.109469 -0.004182 0.368140 0.385593
  7   -2.022252 -0.104661 3.136172 0.120212 -0.908323 -3.674774
  8   1.168026 -0.537438 -0.063437 -1.250441 0.869397 -0.693650
  9   6.790376 -0.619176 0.015206 -0.000047 -0.000085 -0.720640
 10   8.637599 0.544015 -0.090417 -3.082186 0.530331 0.298589
 11   6.790465 -0.619039 0.017802 -0.000663 -0.011225 -0.519622
 12   -2.022474 -0.104699 -2.873818 -2.819360 1.334575 -0.072834
 13   1.167898 -0.537463 0.063297 -0.111700 -1.037683 -0.924457
 14   7.002743 -0.617765 -0.183752 0.000059 0.000137 -1.849772
 15   8.209042 0.615527 -0.255885 2.042277 0.106466 0.934527
 16   7.002735 -0.617911 -0.183641 0.013025 0.010187 -1.313468
 17   1.574674 0.609930 -0.000899 0.489569 -0.600420 0.150830
 18   -0.602177 0.511412 -0.000006 0.000000 0.000000 0.000000
 19   3.646428 0.364526 1.119313 -0.000002 -0.000014 -0.174510
 20   3.646422 0.364499 -1.117566 0.000007 -0.000003 -0.174546
 21   3.805634 1.330634 1.627658 0.000002 -0.000011 -0.000026
 22   -0.246060 -0.011889 0.516521 -0.000011 0.000031 0.000025
 23   3.805651 1.330659 -1.631083 0.000019 0.000002 -0.000024
 24   -0.246150 -0.011872 -0.516511 -0.000005 -0.000006 0.000048
 25   4.941364 1.997338 1.629330 0.000018 -0.000001 -0.000024
 26   4.941382 1.997366 -1.629410 -0.000001 0.000005 -0.000024
 27   2.930087 1.603639 1.514501 -0.000019 -0.000022 -0.000050
 28   2.932517 1.603245 -1.501142 -0.000002 -0.000009 -0.000024
 29   8.824059 0.150544 0.091743 0.003927 -0.001323 -0.163000
 30   2.111085 -0.561179 1.780414 -0.000103 0.006729 0.000517
 31   2.125196 -0.561289 -1.849693 0.000015 -0.009765 0.000544
 32   -0.814395 -0.093824 3.127092 0.262921 -3.097582 -0.334816
 33   14.298673 -0.408176 0.471578 0.003687 -0.003117 -0.522469
 34   15.835795 0.581398 0.242756 -0.001271 0.032067 0.122292
 35   -0.815868 -0.091229 -3.114430 -0.132889 3.034913 -0.011455
 36   14.294526 -0.410349 -0.467541 -0.002676 0.001857 -0.384764
 37   15.834409 0.579420 -0.284600 -0.034128 0.026558 0.304555
 38   1.139685 -3.453749 -2.823813 0.000400 -0.000289 0.000856
 39   -4.457742 -1.043135 -0.746180 0.000503 0.001127 -0.004487
 40   1.118101 -3.449769 3.237290 -0.000189 -0.000348 0.001466
 41   -4.429934 -1.051317 0.959566 0.000047 0.000108 -0.000449
 42   -0.657468 1.697302 -2.676895 0.003308 0.005169 -0.000460
 43   -0.664068 1.698578 2.857658 -0.003886 -0.005851 0.001004
time 29
  0   0.009046 4.281381 1.527761 0.000000 0.000000 -1.571449
  1   -1.093036 0.000002 -0.326057 -1.570599 -1.570379 -0.000219
  2   2.262337 0.113614 0.064702 -0.001428 0.008570 -0.060279
  3   2.380047 0.353302 0.047440 -0.207569 -0.085011 0.084152
  4   2.033756 0.190472 -0.000128 -0.187737 0.061841 0.119735
  5   2.451511 0.204909 -0.003447 -0.260296 -0.009549 0.166238
  6   7.247600 -0.397300 -0.109469 -0.004182 0.368140 0.385593
  7   -2.022252 -0.104661 3.136172 0.120212 -0.908323 -3.674774
  8   1.168026 -0.537438 -0.063437 -1.249302 0.871158 -0.692448
  9   6.790376 -0.619176 0.015206 -0.000047 -0.000085 -0.719810
 10   8.637599 0.544015 -0.090417 -3.082186 0.530331 0.297721
 11   6.790465 -0.619039 0.017802 -0.000663 -0.011225 -0.518987
 12   -2.022474 -0.104699 -2.873818 -2.819168 1.334894 -0.072547
 13   1.167898 -0.537463 0.063297 -0.115004 -1.038751 -0.920825
 14   7.002743 -0.617765 -0.183752 0.000059 0.000137 -1.849772
 15   8.209042 0.615527 -0.255885 2.042277 0.106314 0.934647
 16   7.002735 -0.617911 -0.183641 0.013025 0.010187 -1.313468
 17   1.574674 0.609930 -0.000899 0.488391 -0.600491 0.153417
 18   -0.602177 0.511412 -0.000006 0.000000 0.000000 0.000000
 19   3.646428 0.364526 1.119313 -0.000002 -0.000014 -0.174510
 20   3.646422 0.364499 -1.117566 0.000007 -0.000003 -0.174546
 21   3.805634 1.330634 1.627658 0.000002 -0.000011 -0.000026
 22   -0.246060 -0.011889 0.516521 -0.000011 0.000031 0.000025
 23   3.805651 1.330659 -1.631083 0.000019 0.000002 -0.000024
 24   -0.246150 -0.011872 -0.516511 -0.000005 -0.000006 0.000048
 25   4.941364 1.997338 1.629330 0.000018 -0.000001 -0.000024
 26   4.941382 1.997366 -1.629410 -0.000001 0.000005 -0.000024
 27   2.930087 1.603639 1.514501 -0.000019 -0.000022 -0.000050
 28   2.932517 1.603245 -1.501142 -0.000002 -0.000009 -0.000024
 29   8.824059 0.150544 0.091743 0.000986 -0.000492 -0.171530
 30   2.111085 -0.561179 1.784320 -0.000022 0.001236 0.000153
 31   2.121290 -0.561289 -1.853599 0.000000 -0.002564 0.000125
 32   -0.814395 -0.093824 3.127092 0.262921 -3.097582 -0.334816
 33   14.298673 -0.408176 0.471578 0.003687 -0.003117 -0.522469
 34   15.835795 0.581398 0.242756 -0.001271 0.032067 0.122292
 35   -0.815868 -0.091229 -3.114430 -0.132889 3.034913 -0.011455
 36   14.294526 -0.410349 -0.467541 -0.002676 0.001857 -0.384764
 37   15.834409 0.579420 -0.284600 -0.034128 0.026558 0.304555
 38   1.139685 -3.453749 -2.823813 0.000084 -0.000072 0.000184
 39   -4.457742 -1.054854 -0.746180 0.000132 0.000288 -0.001178
 40   1.118101 -3.449769 3.237290 -0.000042 -0.000083 0.000367
 41   -4.433840 -1.059130 0.959566 0.000011 0.000024 -0.000112
 42   -0.657468 1.697302 -2.688614 0.000863 0.001351 -0.000125
 43   -0.664068 1.698578 2.869377 -0.001012 -0.001520 0.000251
time 30
  0   0.009046 4.281381 1.527761 0.000000 0.000000 -1.571449
  1   -1.093036 0.000002 -0.326057 -1.570599 -1.570379 -0.000219
  2   2.262337 0.113614 0.064702 -0.001428 0.008570 -0.060279
  3   2.380047 0.353302 0.047440 -0.207614 -0.084867 0.084642
  4   2.033756 0.190472 -0.000128 -0.187626 0.061721 0.118611
  5   2.451511 0.204909 -0.003447 -0.260296 -0.009771 0.164579
  6   7.247600 -0.397300 -0.109469 -0.004182 0.368140 0.385593
  7   -2.022252 -0.104661 3.136172 0.120212 -0.908323 -3.674774
  8   1.168026 -0.537438 -0.063437 -1.248163 0.873422 -0.691499
  9   6.790376 -0.619176 0.015206 -0.000047 -0.000085 -0.718829
 10   8.637599 0.544015 -0.090417 -3.082538 0.529909 0.296853
 11   6.790465 -0.619039 0.017802 -0.000692 -0.011225 -0.518295
 12   -2.022474 -0.104699 -2.873818 -2.821755 1.332776 -0.075515
 13   1.167898 -0.537463 0.063297 -0.116480 -1.041446 -0.918827
 14   7.002743 -0.617765 -0.183752 0.000059 0.000137 -1.849772
 15   8.209042 0.615527 -0.255885 2.042277 0.106693 0.933986
 16   7.002735 -0.617911 -0.183641 0.013025 0.010187 -1.313523
 17   1.574674 0.609930 -0.000899 0.487172 -0.600562 0.155968
 18   -0.602177 0.511412 -0.000006 0.000000 0.000000 0.000000
 19   3.646428 0.364526 1.119313 -0.000002 -0.000014 -0.174510
 20   3.646422 0.364499 -1.117566 0.000007 -0.000003 -0.174546
 21   3.805634 1.330634 1.627658 0.000002 -0.000011 -0.000026
 22   -0.246060 -0.011889 0.516521 -0.000011 0.000031 0.000025
 23   3.805651 1.330659 -1.631083 0.000019 0.000002 -0.000024
 24   -0.246150 -0.011872 -0.516511 -0.000005 -0.000006 0.000048
 25   4.941364 1.997338 1.629330 0.000018 -0.000001 -0.000024
 26   4.941382 1.997366 -1.629410 -0.000001 0.000005 -0.000024
 27   2.930087 1.603639 1.514501 -0.000019 -0.000022 -0.000050
 28   2.932517 1.603245 -1.501142 -0.000002 -0.000009 -0.000024
 29   8.824059 0.150544 0.091743 0.000006 -0.000231 -0.174534
 30   2.111085 -0.561179 1.784320 -0.000008 -0.000682 0.000024
 31   2.121290 -0.561289 -1.853599 0.000000 0.000000 -0.000002
 32   -0.814395 -0.093824 3.127092 0.262921 -3.097582 -0.334816
 33   14.298673 -0.408176 0.471578 0.003687 -0.003117 -0.522469
 34   15.835795 0.581398 0.242756 -0.001271 0.032067 0.122292
 35   -0.815868 -0.091229 -3.114430 -0.132889 3.034913 -0.011455
 36   14.294526 -0.410349 -0.467541 -0.002676 0.001857 -0.384764
 37   15.834409 0.579420 -0.284600 -0.034128 0.026558 0.304555
 38   1.139685 -3.453749 -2.823813 0.000000 0.000000 0.000001
 39   -4.457742 -1.054854 -0.746180 0.000000 0.000000 0.000000
 40   1.118101 -3.449769 3.237290 0.000000 0.000001 0.000000
 41   -4.433840 -1.059130 0.959566 -0.000001 0.000000 0.000000
 42   -0.657468 1.697302 -2.688614 0.000000 0.000002 0.000000
 43   -0.664068 1.698578 2.869377 0.000000 0.000002 0.000000
end
