version 1
nodes
  0 "Bip01" -1
  1 "Bip01 Pelvis" 0
  2 "Bip01 Spine" 1
  3 "Bip01 Spine1" 2
  4 "Bip01 Spine2" 3
  5 "Bip01 Spine3" 4
  6 "Bip01 Neck" 5
  7 "Bip01 L Arm" 6
  8 "Bip01 L Arm1" 7
  9 "Bip01 L Arm2" 8
 10 "Bip01 L Hand" 9
 11 "Bip06 L elbow2-smooth" 8
 12 "Bip01 R Arm" 6
 13 "Bip01 R Arm1" 12
 14 "Bip01 R Arm2" 13
 15 "Bip01 R Hand" 14
 16 "Bip06 R elbow2-smooth" 13
 17 "Bip01 Head" 6
 18 "Bip06 Head_helper" 17
 19 "Bip06 Head_eyes_l" 18
 20 "Bip06 Head_eyes_r" 18
 21 "Bip06 Head_blink_l" 18
 22 "Bip06 Head_blink_smooth_l1" 21
 23 "Bip06 Head_blink_r" 18
 24 "Bip06 Head_blink_smooth_r1" 23
 25 "Bip06 Head_L_eyebrow" 18
 26 "Bip06 Head_R_eyebrow" 18
 27 "Bip06 Head_blink_l_lid" 18
 28 "Bip06 Head_blink_r_lid" 18
 29 "Bip06 bunny" 18
 30 "Bip06 bunnyL" 29
 31 "Bip06 bunnyR" 29
 32 "Bip01 L Leg" 1
 33 "Bip01 L Leg1" 32
 34 "Bip01 L Foot" 33
 35 "Bip01 R Leg" 1
 36 "Bip01 R Leg1" 35
 37 "Bip01 R Foot" 36
 38 "Bip03 HairR1" 17
 39 "Bip03 HairR2" 38
 40 "Bip03 HairL1" 17
 41 "Bip03 HairL2" 40
 42 "Bip03 swingR" 17
 43 "Bip03 swingL" 17
end
skeleton
time 0
  0   0.009046 4.281381 1.527761 0.000000 0.000000 -1.571449
  1   -1.093036 0.000002 -0.326057 -1.570808 -1.570749 0.000022
  2   2.262337 0.113614 0.064702 -0.001377 0.008558 -0.060170
  3   2.380047 0.353302 0.047440 -0.207569 -0.084855 0.084601
  4   2.033756 0.190472 -0.000128 -0.187571 0.061697 0.118466
  5   2.451511 0.204909 -0.003447 -0.260296 -0.009705 0.164529
  6   7.247600 -0.397300 -0.109469 -0.004182 0.368068 0.385561
  7   -2.022252 -0.104661 3.136172 0.120116 -0.908352 -3.674680
  8   1.168026 -0.537438 -0.063437 -0.991307 0.910655 -0.538915
  9   6.790376 -0.619176 0.015206 0.004946 0.000983 -0.986965
 10   8.637599 0.544015 -0.090417 -3.082186 0.529698 0.296635
 11   6.790465 -0.619039 0.017802 0.004038 -0.011196 -0.706142
 12   -2.022474 -0.104699 -2.873818 -2.821659 1.332863 -0.075420
 13   1.167898 -0.537463 0.063297 -0.116410 -1.041446 -0.918585
 14   7.002743 -0.617765 -0.183752 0.000059 0.000137 -1.849442
 15   8.209042 0.615527 -0.255885 2.042133 0.106693 0.933805
 16   7.002735 -0.617911 -0.183641 0.013073 0.010244 -1.313247
 17   1.574674 0.609930 -0.000899 0.487091 -0.600468 0.156042
 18   -0.602177 0.511412 -0.000006 0.000000 0.000000 0.000000
 19   3.673773 0.177020 1.119313 -0.000002 -0.000014 -0.174510
 20   3.673767 0.176993 -1.117566 0.000007 -0.000003 -0.174546
 21   3.942357 1.334540 1.627658 0.000002 -0.000011 -0.000026
 22   -0.246060 -0.011889 0.516521 -0.000011 0.000031 0.000025
 23   3.942374 1.334565 -1.631083 0.000019 0.000002 -0.000024
 24   -0.246150 -0.011872 -0.516511 -0.000005 -0.000006 0.000048
 25   4.941364 1.997338 1.629330 0.000018 -0.000001 -0.000024
 26   4.941382 1.997366 -1.629410 -0.000001 0.000005 -0.000024
 27   2.914462 1.619264 1.514501 -0.000019 -0.000022 -0.000050
 28   2.916892 1.618870 -1.501142 -0.000002 -0.000009 -0.000024
 29   8.824059 0.150544 0.091743 0.000006 -0.000231 -0.174534
 30   2.111085 -0.561179 1.784320 -0.000008 -0.000682 0.000024
 31   2.121290 -0.561289 -1.853599 0.000000 0.000000 -0.000002
 32   -0.814395 -0.093824 3.127092 0.262921 -3.097582 -0.334816
 33   14.298673 -0.408176 0.471578 0.003687 -0.003117 -0.522469
 34   15.835795 0.581398 0.242756 -0.001271 0.032067 0.122292
 35   -0.815868 -0.091229 -3.114430 -0.132889 3.034913 -0.011455
 36   14.294526 -0.410349 -0.467541 -0.002676 0.001857 -0.384764
 37   15.834409 0.579420 -0.284600 -0.034128 0.026558 0.304555
 38   1.139685 -3.453749 -2.823813 0.000000 0.000000 0.000001
 39   -4.457742 -1.054854 -0.746180 0.000000 0.000000 0.000000
 40   1.118101 -3.449769 3.237290 0.000000 0.000001 0.000000
 41   -4.433840 -1.059130 0.959566 -0.000001 0.000000 0.000000
 42   -0.657468 1.697302 -2.688614 0.000000 0.000002 0.000000
 43   -0.664068 1.698578 2.869377 0.000000 0.000002 0.000000
time 1
  0   0.009046 4.281381 1.527761 0.000000 0.000000 -1.571449
  1   -1.093036 0.000002 -0.326057 -1.570808 -1.570749 0.000022
  2   2.262337 0.113614 0.064702 -0.001377 0.008558 -0.060170
  3   2.380047 0.353302 0.047440 -0.224190 -0.084771 0.086764
  4   2.033756 0.190472 -0.000128 -0.203911 0.063315 0.119771
  5   2.451511 0.204909 -0.003447 -0.337339 0.003429 0.165099
  6   7.247600 -0.397300 -0.109469 -0.004182 0.368068 0.385561
  7   -2.022252 -0.104661 3.136172 0.120116 -0.908352 -3.674680
  8   1.168026 -0.537438 -0.063437 -0.654655 1.149849 -0.148851
  9   6.790376 -0.619176 0.015206 0.004281 0.002318 -1.553952
 10   8.637599 0.544015 -0.090417 -2.993328 0.352314 0.603086
 11   6.790465 -0.619039 0.017802 0.006256 -0.010742 -1.103061
 12   -2.022474 -0.104699 -2.873818 0.040577 1.796346 -3.511376
 13   1.167898 -0.537463 0.063297 -0.478787 -0.969843 -0.635464
 14   7.002743 -0.617765 -0.183752 0.000059 0.000137 -2.122122
 15   8.209042 0.615527 -0.255885 2.026026 0.131585 0.898925
 16   7.002735 -0.617911 -0.183641 0.012555 0.011935 -1.504214
 17   1.574674 0.609930 -0.000899 0.534537 -0.620632 0.164801
 18   -0.602177 0.511412 -0.000006 0.000000 0.000000 0.000000
 19   3.673773 0.177020 1.119313 -0.000002 -0.000014 -0.174510
 20   3.673767 0.176993 -1.117566 0.000007 -0.000003 -0.174546
 21   3.942357 1.334540 1.627658 0.000002 -0.000011 -0.000026
 22   -0.246060 -0.011889 0.516521 -0.000011 0.000031 0.000025
 23   3.942374 1.334565 -1.631083 0.000019 0.000002 -0.000024
 24   -0.246150 -0.011872 -0.516511 -0.000005 -0.000006 0.000048
 25   4.941364 1.997338 1.629330 0.000018 -0.000001 -0.000024
 26   4.941382 1.997366 -1.629410 -0.000001 0.000005 -0.000024
 27   2.914462 1.619264 1.514501 -0.000019 -0.000022 -0.000050
 28   2.916892 1.618870 -1.501142 -0.000002 -0.000009 -0.000024
 29   8.824059 0.150544 0.091743 0.000006 -0.000231 -0.174534
 30   2.111085 -0.561179 1.784320 -0.000008 -0.000682 0.000024
 31   2.121290 -0.561289 -1.853599 0.000000 0.000000 -0.000002
 32   -0.814395 -0.093824 3.127092 0.262921 -3.097582 -0.334816
 33   14.298673 -0.408176 0.471578 0.003687 -0.003117 -0.522469
 34   15.835795 0.581398 0.242756 -0.001271 0.032067 0.122292
 35   -0.815868 -0.091229 -3.114430 -0.132889 3.034913 -0.011455
 36   14.294526 -0.410349 -0.467541 -0.002676 0.001857 -0.384764
 37   15.834409 0.579420 -0.284600 -0.034128 0.026558 0.304555
 38   1.139685 -3.453749 -2.823813 0.000000 0.000000 0.000001
 39   -4.457742 -1.054854 -0.746180 0.000000 0.000000 0.000000
 40   1.118101 -3.449769 3.237290 0.000000 0.000001 0.000000
 41   -4.433840 -1.059130 0.959566 -0.000001 0.000000 0.000000
 42   -0.657468 1.697302 -2.688614 0.000000 0.000002 0.000000
 43   -0.664068 1.698578 2.869377 0.000000 0.000002 0.000000
time 2
  0   0.009046 4.281381 1.527761 0.000000 0.000000 -1.571449
  1   -1.093036 0.000002 -0.326057 -1.570808 -1.570749 0.000022
  2   2.262337 0.113614 0.064702 -0.001377 0.008558 -0.060170
  3   2.380047 0.353302 0.047440 -0.234241 -0.084627 0.088029
  4   2.033756 0.190472 -0.000128 -0.213833 0.064237 0.120532
  5   2.451511 0.204909 -0.003447 -0.383486 0.011275 0.164950
  6   7.247600 -0.397300 -0.109469 -0.004182 0.368068 0.385561
  7   -2.022252 -0.104661 3.136172 0.120116 -0.908352 -3.674680
  8   1.168026 -0.537438 -0.063437 -0.569543 1.161220 0.024925
  9   6.790376 -0.619176 0.015206 0.004170 0.002451 -1.655531
 10   8.637599 0.544015 -0.090417 -2.970431 0.357523 0.628189
 11   6.790465 -0.619039 0.017802 0.006665 -0.010685 -1.174059
 12   -2.022474 -0.104699 -2.873818 0.049583 1.796491 -3.501993
 13   1.167898 -0.537463 0.063297 -0.430986 -0.976250 -0.753506
 14   7.002743 -0.617765 -0.183752 0.000059 0.000137 -2.082107
 15   8.209042 0.615527 -0.255885 2.021856 0.141950 0.869939
 16   7.002735 -0.617911 -0.183641 0.012602 0.011710 -1.476121
 17   1.574674 0.609930 -0.000899 0.599369 -0.667563 0.139668
 18   -0.602177 0.511412 -0.000006 0.000000 0.000000 0.000000
 19   3.673773 0.177020 1.119313 -0.000002 -0.000014 -0.174510
 20   3.673767 0.176993 -1.117566 0.000007 -0.000003 -0.174546
 21   3.942357 1.334540 1.627658 0.000002 -0.000011 -0.000026
 22   -0.246060 -0.011889 0.516521 -0.000011 0.000031 0.000025
 23   3.942374 1.334565 -1.631083 0.000019 0.000002 -0.000024
 24   -0.246150 -0.011872 -0.516511 -0.000005 -0.000006 0.000048
 25   4.941364 1.997338 1.629330 0.000018 -0.000001 -0.000024
 26   4.941382 1.997366 -1.629410 -0.000001 0.000005 -0.000024
 27   2.914462 1.619264 1.514501 -0.000019 -0.000022 -0.000050
 28   2.916892 1.618870 -1.501142 -0.000002 -0.000009 -0.000024
 29   8.824059 0.150544 0.091743 0.000006 -0.000231 -0.174534
 30   2.111085 -0.561179 1.784320 -0.000008 -0.000682 0.000024
 31   2.121290 -0.561289 -1.853599 0.000000 0.000000 -0.000002
 32   -0.814395 -0.093824 3.127092 0.262921 -3.097582 -0.334816
 33   14.298673 -0.408176 0.471578 0.003687 -0.003117 -0.522469
 34   15.835795 0.581398 0.242756 -0.001271 0.032067 0.122292
 35   -0.815868 -0.091229 -3.114430 -0.132889 3.034913 -0.011455
 36   14.294526 -0.410349 -0.467541 -0.002676 0.001857 -0.384764
 37   15.834409 0.579420 -0.284600 -0.034128 0.026558 0.304555
 38   1.139685 -3.453749 -2.823813 0.000000 0.000000 0.000001
 39   -4.457742 -1.054854 -0.746180 0.000000 0.000000 0.000000
 40   1.118101 -3.449769 3.237290 0.000000 0.000001 0.000000
 41   -4.433840 -1.059130 0.959566 -0.000001 0.000000 0.000000
 42   -0.657468 1.697302 -2.688614 0.000000 0.000002 0.000000
 43   -0.664068 1.698578 2.869377 0.000000 0.000002 0.000000
time 3
  0   0.009046 4.281381 1.527761 0.000000 0.000000 -1.571449
  1   -1.093036 0.000002 -0.326057 -1.570808 -1.570749 0.000022
  2   2.262337 0.113614 0.064702 -0.001377 0.008558 -0.060170
  3   2.380047 0.353302 0.047440 -0.231331 -0.084723 0.087621
  4   2.033756 0.190472 -0.000128 -0.210993 0.064010 0.120387
  5   2.451511 0.204909 -0.003447 -0.370135 0.008951 0.165074
  6   7.247600 -0.397300 -0.109469 -0.004182 0.368068 0.385561
  7   -2.022252 -0.104661 3.136172 0.120116 -0.908352 -3.674680
  8   1.168026 -0.537438 -0.063437 -0.710532 1.090478 -0.099825
  9   6.790376 -0.619176 0.015206 0.004281 0.002318 -1.566027
 10   8.637599 0.544015 -0.090417 -2.971224 0.411653 0.593970
 11   6.790465 -0.619039 0.017802 0.006315 -0.010742 -1.111481
 12   -2.022474 -0.104699 -2.873818 3.256054 1.343921 -0.291890
 13   1.167898 -0.537463 0.063297 -0.293697 -1.005237 -0.880327
 14   7.002743 -0.617765 -0.183752 0.000059 0.000137 -1.983678
 15   8.209042 0.615527 -0.255885 2.020131 0.148911 0.843298
 16   7.002735 -0.617911 -0.183641 0.012790 0.011089 -1.407185
 17   1.574674 0.609930 -0.000899 0.591610 -0.664226 0.137968
 18   -0.602177 0.511412 -0.000006 0.000000 0.000000 0.000000
 19   3.673773 0.177020 1.119313 -0.000002 -0.000014 -0.174510
 20   3.673767 0.176993 -1.117566 0.000007 -0.000003 -0.174546
 21   3.942357 1.334540 1.627658 0.000002 -0.000011 -0.000026
 22   -0.246060 -0.011889 0.516521 -0.000011 0.000031 0.000025
 23   3.942374 1.334565 -1.631083 0.000019 0.000002 -0.000024
 24   -0.246150 -0.011872 -0.516511 -0.000005 -0.000006 0.000048
 25   4.941364 1.997338 1.629330 0.000018 -0.000001 -0.000024
 26   4.941382 1.997366 -1.629410 -0.000001 0.000005 -0.000024
 27   2.914462 1.619264 1.514501 -0.000019 -0.000022 -0.000050
 28   2.916892 1.618870 -1.501142 -0.000002 -0.000009 -0.000024
 29   8.824059 0.150544 0.091743 0.000006 -0.000231 -0.174534
 30   2.111085 -0.561179 1.784320 -0.000008 -0.000682 0.000024
 31   2.121290 -0.561289 -1.853599 0.000000 0.000000 -0.000002
 32   -0.814395 -0.093824 3.127092 0.262921 -3.097582 -0.334816
 33   14.298673 -0.408176 0.471578 0.003687 -0.003117 -0.522469
 34   15.835795 0.581398 0.242756 -0.001271 0.032067 0.122292
 35   -0.815868 -0.091229 -3.114430 -0.132889 3.034913 -0.011455
 36   14.294526 -0.410349 -0.467541 -0.002676 0.001857 -0.384764
 37   15.834409 0.579420 -0.284600 -0.034128 0.026558 0.304555
 38   1.139685 -3.453749 -2.823813 0.000000 0.000000 0.000001
 39   -4.457742 -1.054854 -0.746180 0.000000 0.000000 0.000000
 40   1.118101 -3.449769 3.237290 0.000000 0.000001 0.000000
 41   -4.433840 -1.059130 0.959566 -0.000001 0.000000 0.000000
 42   -0.657468 1.697302 -2.688614 0.000000 0.000002 0.000000
 43   -0.664068 1.698578 2.869377 0.000000 0.000002 0.000000
time 4
  0   0.009046 4.281381 1.527761 0.000000 0.000000 -1.571449
  1   -1.093036 0.000002 -0.326057 -1.570808 -1.570749 0.000022
  2   2.262337 0.113614 0.064702 -0.001377 0.008558 -0.060170
  3   2.380047 0.353302 0.047440 -0.224190 -0.084771 0.086764
  4   2.033756 0.190472 -0.000128 -0.203911 0.063315 0.119771
  5   2.451511 0.204909 -0.003447 -0.337339 0.003429 0.165099
  6   7.247600 -0.397300 -0.109469 -0.004182 0.368068 0.385561
  7   -2.022252 -0.104661 3.136172 0.120116 -0.908352 -3.674680
  8   1.168026 -0.537438 -0.063437 -0.845382 1.007258 -0.259747
  9   6.790376 -0.619176 0.015206 0.004392 0.001918 -1.409432
 10   8.637599 0.544015 -0.090417 -2.983025 0.463460 0.530597
 11   6.790465 -0.619039 0.017802 0.005673 -0.010912 -1.001841
 12   -2.022474 -0.104699 -2.873818 3.326568 1.341338 -0.217787
 13   1.167898 -0.537463 0.063297 -0.164985 -1.023545 -0.970100
 14   7.002743 -0.617765 -0.183752 0.000059 0.000137 -1.899110
 15   8.209042 0.615527 -0.255885 2.021712 0.148911 0.835420
 16   7.002735 -0.617911 -0.183641 0.012978 0.010582 -1.348019
 17   1.574674 0.609930 -0.000899 0.561388 -0.646618 0.142920
 18   -0.602177 0.511412 -0.000006 0.000000 0.000000 0.000000
 19   3.673773 0.177020 1.119313 -0.000002 -0.000014 -0.174510
 20   3.673767 0.176993 -1.117566 0.000007 -0.000003 -0.174546
 21   3.942357 1.334540 1.627658 0.000002 -0.000011 -0.000026
 22   -0.246060 -0.011889 0.516521 -0.000011 0.000031 0.000025
 23   3.942374 1.334565 -1.631083 0.000019 0.000002 -0.000024
 24   -0.246150 -0.011872 -0.516511 -0.000005 -0.000006 0.000048
 25   4.941364 1.997338 1.629330 0.000018 -0.000001 -0.000024
 26   4.941382 1.997366 -1.629410 -0.000001 0.000005 -0.000024
 27   2.914462 1.619264 1.514501 -0.000019 -0.000022 -0.000050
 28   2.916892 1.618870 -1.501142 -0.000002 -0.000009 -0.000024
 29   8.824059 0.150544 0.091743 0.000006 -0.000231 -0.174534
 30   2.111085 -0.561179 1.784320 -0.000008 -0.000682 0.000024
 31   2.121290 -0.561289 -1.853599 0.000000 0.000000 -0.000002
 32   -0.814395 -0.093824 3.127092 0.262921 -3.097582 -0.334816
 33   14.298673 -0.408176 0.471578 0.003687 -0.003117 -0.522469
 34   15.835795 0.581398 0.242756 -0.001271 0.032067 0.122292
 35   -0.815868 -0.091229 -3.114430 -0.132889 3.034913 -0.011455
 36   14.294526 -0.410349 -0.467541 -0.002676 0.001857 -0.384764
 37   15.834409 0.579420 -0.284600 -0.034128 0.026558 0.304555
 38   1.139685 -3.453749 -2.823813 0.000000 0.000000 0.000001
 39   -4.457742 -1.054854 -0.746180 0.000000 0.000000 0.000000
 40   1.118101 -3.449769 3.237290 0.000000 0.000001 0.000000
 41   -4.433840 -1.059130 0.959566 -0.000001 0.000000 0.000000
 42   -0.657468 1.697302 -2.688614 0.000000 0.000002 0.000000
 43   -0.664068 1.698578 2.869377 0.000000 0.000002 0.000000
time 5
  0   0.009046 4.281381 1.527761 0.000000 0.000000 -1.571449
  1   -1.093036 0.000002 -0.326057 -1.570808 -1.570749 0.000022
  2   2.262337 0.113614 0.064702 -0.001377 0.008558 -0.060170
  3   2.380047 0.353302 0.047440 -0.215459 -0.084807 0.085601
  4   2.033756 0.190472 -0.000128 -0.195372 0.062464 0.119046
  5   2.451511 0.204909 -0.003447 -0.296892 -0.003465 0.164950
  6   7.247600 -0.397300 -0.109469 -0.004182 0.368068 0.385561
  7   -2.022252 -0.104661 3.136172 0.120116 -0.908352 -3.674680
  8   1.168026 -0.537438 -0.063437 -0.924356 0.953925 -0.403095
  9   6.790376 -0.619176 0.015206 0.004724 0.001517 -1.213367
 10   8.637599 0.544015 -0.090417 -3.024063 0.497740 0.428302
 11   6.790465 -0.619039 0.017802 0.004913 -0.011054 -0.864575
 12   -2.022474 -0.104699 -2.873818 3.391621 1.337797 -0.148853
 13   1.167898 -0.537463 0.063297 -0.124424 -1.032699 -0.957509
 14   7.002743 -0.617765 -0.183752 0.000059 0.000137 -1.866438
 15   8.209042 0.615527 -0.255885 2.030700 0.132114 0.874209
 16   7.002735 -0.617911 -0.183641 0.013025 0.010356 -1.325169
 17   1.574674 0.609930 -0.000899 0.522350 -0.622478 0.149906
 18   -0.602177 0.511412 -0.000006 0.000000 0.000000 0.000000
 19   3.673773 0.177020 1.119313 -0.000002 -0.000014 -0.174510
 20   3.673767 0.176993 -1.117566 0.000007 -0.000003 -0.174546
 21   3.942357 1.334540 1.627658 0.000002 -0.000011 -0.000026
 22   -0.246060 -0.011889 0.516521 -0.000011 0.000031 0.000025
 23   3.942374 1.334565 -1.631083 0.000019 0.000002 -0.000024
 24   -0.246150 -0.011872 -0.516511 -0.000005 -0.000006 0.000048
 25   4.941364 1.997338 1.629330 0.000018 -0.000001 -0.000024
 26   4.941382 1.997366 -1.629410 -0.000001 0.000005 -0.000024
 27   2.914462 1.619264 1.514501 -0.000019 -0.000022 -0.000050
 28   2.916892 1.618870 -1.501142 -0.000002 -0.000009 -0.000024
 29   8.824059 0.150544 0.091743 0.000006 -0.000231 -0.174534
 30   2.111085 -0.561179 1.784320 -0.000008 -0.000682 0.000024
 31   2.121290 -0.561289 -1.853599 0.000000 0.000000 -0.000002
 32   -0.814395 -0.093824 3.127092 0.262921 -3.097582 -0.334816
 33   14.298673 -0.408176 0.471578 0.003687 -0.003117 -0.522469
 34   15.835795 0.581398 0.242756 -0.001271 0.032067 0.122292
 35   -0.815868 -0.091229 -3.114430 -0.132889 3.034913 -0.011455
 36   14.294526 -0.410349 -0.467541 -0.002676 0.001857 -0.384764
 37   15.834409 0.579420 -0.284600 -0.034128 0.026558 0.304555
 38   1.139685 -3.453749 -2.823813 0.000000 0.000000 0.000001
 39   -4.457742 -1.054854 -0.746180 0.000000 0.000000 0.000000
 40   1.118101 -3.449769 3.237290 0.000000 0.000001 0.000000
 41   -4.433840 -1.059130 0.959566 -0.000001 0.000000 0.000000
 42   -0.657468 1.697302 -2.688614 0.000000 0.000002 0.000000
 43   -0.664068 1.698578 2.869377 0.000000 0.000002 0.000000
time 6
  0   0.009046 4.281381 1.527761 0.000000 0.000000 -1.571449
  1   -1.093036 0.000002 -0.326057 -1.570808 -1.570749 0.000022
  2   2.262337 0.113614 0.064702 -0.001377 0.008558 -0.060170
  3   2.380047 0.353302 0.047440 -0.207569 -0.084855 0.084601
  4   2.033756 0.190472 -0.000128 -0.187571 0.061697 0.118466
  5   2.451511 0.204909 -0.003447 -0.260296 -0.009705 0.164529
  6   7.247600 -0.397300 -0.109469 -0.004182 0.368068 0.385561
  7   -2.022252 -0.104661 3.136172 0.120116 -0.908352 -3.674680
  8   1.168026 -0.537438 -0.063437 -0.991307 0.910655 -0.538915
  9   6.790376 -0.619176 0.015206 0.004946 0.000983 -0.986965
 10   8.637599 0.544015 -0.090417 -3.082186 0.529698 0.296635
 11   6.790465 -0.619039 0.017802 0.004038 -0.011196 -0.706142
 12   -2.022474 -0.104699 -2.873818 -2.821659 1.332863 -0.075420
 13   1.167898 -0.537463 0.063297 -0.116410 -1.041446 -0.918585
 14   7.002743 -0.617765 -0.183752 0.000059 0.000137 -1.849442
 15   8.209042 0.615527 -0.255885 2.042133 0.106693 0.933805
 16   7.002735 -0.617911 -0.183641 0.013073 0.010244 -1.313247
 17   1.574674 0.609930 -0.000899 0.487091 -0.600468 0.156042
 18   -0.602177 0.511412 -0.000006 0.000000 0.000000 0.000000
 19   3.673773 0.177020 1.119313 -0.000002 -0.000014 -0.174510
 20   3.673767 0.176993 -1.117566 0.000007 -0.000003 -0.174546
 21   3.942357 1.334540 1.627658 0.000002 -0.000011 -0.000026
 22   -0.246060 -0.011889 0.516521 -0.000011 0.000031 0.000025
 23   3.942374 1.334565 -1.631083 0.000019 0.000002 -0.000024
 24   -0.246150 -0.011872 -0.516511 -0.000005 -0.000006 0.000048
 25   4.941364 1.997338 1.629330 0.000018 -0.000001 -0.000024
 26   4.941382 1.997366 -1.629410 -0.000001 0.000005 -0.000024
 27   2.914462 1.619264 1.514501 -0.000019 -0.000022 -0.000050
 28   2.916892 1.618870 -1.501142 -0.000002 -0.000009 -0.000024
 29   8.824059 0.150544 0.091743 0.000006 -0.000231 -0.174534
 30   2.111085 -0.561179 1.784320 -0.000008 -0.000682 0.000024
 31   2.121290 -0.561289 -1.853599 0.000000 0.000000 -0.000002
 32   -0.814395 -0.093824 3.127092 0.262921 -3.097582 -0.334816
 33   14.298673 -0.408176 0.471578 0.003687 -0.003117 -0.522469
 34   15.835795 0.581398 0.242756 -0.001271 0.032067 0.122292
 35   -0.815868 -0.091229 -3.114430 -0.132889 3.034913 -0.011455
 36   14.294526 -0.410349 -0.467541 -0.002676 0.001857 -0.384764
 37   15.834409 0.579420 -0.284600 -0.034128 0.026558 0.304555
 38   1.139685 -3.453749 -2.823813 0.000000 0.000000 0.000001
 39   -4.457742 -1.054854 -0.746180 0.000000 0.000000 0.000000
 40   1.118101 -3.449769 3.237290 0.000000 0.000001 0.000000
 41   -4.433840 -1.059130 0.959566 -0.000001 0.000000 0.000000
 42   -0.657468 1.697302 -2.688614 0.000000 0.000002 0.000000
 43   -0.664068 1.698578 2.869377 0.000000 0.000002 0.000000
end
