version 1
nodes
  0 "Bip01" -1
  1 "Bip01 Pelvis" 0
  2 "Bip01 Spine" 1
  3 "Bip01 Spine1" 2
  4 "Bip01 Spine2" 3
  5 "Bip01 Spine3" 4
  6 "Bip01 Neck" 5
  7 "Bip01 L Arm" 6
  8 "Bip01 L Arm1" 7
  9 "Bip01 L Arm2" 8
 10 "Bip01 L Hand" 9
 11 "Bip06 L elbow2-smooth" 8
 12 "Bip01 R Arm" 6
 13 "Bip01 R Arm1" 12
 14 "Bip01 R Arm2" 13
 15 "Bip01 R Hand" 14
 16 "Bip06 R elbow2-smooth" 13
 17 "Bip01 Head" 6
 18 "Bip06 Head_helper" 17
 19 "Bip06 Head_eyes_l" 18
 20 "Bip06 Head_eyes_r" 18
 21 "Bip06 Head_blink_l" 18
 22 "Bip06 Head_blink_smooth_l1" 21
 23 "Bip06 Head_blink_r" 18
 24 "Bip06 Head_blink_smooth_r1" 23
 25 "Bip06 Head_L_eyebrow" 18
 26 "Bip06 Head_R_eyebrow" 18
 27 "Bip06 Head_blink_l_lid" 18
 28 "Bip06 Head_blink_r_lid" 18
 29 "Bip06 bunny" 18
 30 "Bip06 bunnyL" 29
 31 "Bip06 bunnyR" 29
 32 "Bip01 L Leg" 1
 33 "Bip01 L Leg1" 32
 34 "Bip01 L Foot" 33
 35 "Bip01 R Leg" 1
 36 "Bip01 R Leg1" 35
 37 "Bip01 R Foot" 36
 38 "Bip03 HairR1" 17
 39 "Bip03 HairR2" 38
 40 "Bip03 HairL1" 17
 41 "Bip03 HairL2" 40
 42 "Bip03 swingR" 17
 43 "Bip03 swingL" 17
end
skeleton
time 0
  0   0.001233 0.187506 0.867585 0.000000 0.000000 -1.571354
  1   -1.093036 0.000002 -0.326057 -1.570808 -1.570425 -0.000074
  2   2.262337 0.113614 0.064702 -0.241645 -0.000287 -0.000284
  3   2.380047 0.353302 0.047440 0.020851 0.012891 0.146226
  4   2.033756 0.190472 -0.000128 -0.224419 -0.019463 0.386658
  5   2.451511 0.204909 -0.003447 -0.217076 -0.002590 0.515975
  6   7.247600 -0.397300 -0.109469 0.000001 0.000009 0.087015
  7   -2.022252 -0.104661 3.136172 1.219511 -1.038017 -4.397555
  8   1.168026 -0.537438 -0.063437 -0.445830 -0.061317 -0.126331
  9   6.790376 -0.619176 0.015206 0.005390 0.003052 -1.616741
 10   8.637599 0.544015 -0.090417 -2.304133 -0.089034 -0.069354
 11   6.790465 -0.619039 0.017802 0.007483 -0.010486 -1.146951
 12   -2.022474 -0.104699 -2.873818 -1.356481 0.807704 -4.507658
 13   1.167898 -0.537463 0.063297 1.152438 -0.300139 -0.994072
 14   7.002743 -0.617765 -0.183752 0.000229 0.000250 -1.534354
 15   8.209042 0.615527 -0.255885 2.158112 -0.134813 0.133438
 16   7.002735 -0.617911 -0.183641 0.013637 0.008495 -1.092697
 17   1.574674 0.609930 -0.000899 0.576093 -0.236755 -0.159717
 18   -0.602177 0.511412 -0.000006 0.000000 0.000000 0.000000
 19   3.673773 0.177020 1.119313 -0.000002 -0.000014 -0.174510
 20   3.673767 0.176993 -1.117566 0.000007 -0.000003 -0.174546
 21   3.942357 1.334540 1.627658 0.000002 -0.000011 -0.000026
 22   -0.246060 -0.011889 0.516521 -0.000011 0.000031 0.000025
 23   3.942374 1.334565 -1.631083 0.000019 0.000002 -0.000024
 24   -0.246150 -0.011872 -0.516511 -0.000005 -0.000006 0.000048
 25   4.941364 1.997338 1.629330 0.000018 -0.000001 -0.000024
 26   4.941382 1.997366 -1.629410 -0.000001 0.000005 -0.000024
 27   2.914462 1.619264 1.514501 -0.000019 -0.000022 -0.000050
 28   2.916892 1.618870 -1.501142 -0.000002 -0.000009 -0.000024
 29   8.824059 0.150544 0.091743 0.000006 -0.000231 -0.174534
 30   2.111085 -0.561179 1.784320 -0.000008 -0.000682 0.000024
 31   2.121290 -0.561289 -1.853599 0.000000 0.000000 -0.000002
 32   -0.814395 -0.093824 3.127092 -0.129583 -2.975428 -0.324172
 33   14.298673 -0.408176 0.471578 -0.000076 -0.000041 -0.436322
 34   15.835795 0.581398 0.242756 0.162139 -0.013958 0.022620
 35   -0.815868 -0.091229 -3.114430 0.096037 3.002497 -0.031284
 36   14.294526 -0.410349 -0.467541 0.000069 0.000048 -0.399441
 37   15.834409 0.579420 -0.284600 -0.088763 0.039970 0.278088
 38   1.139685 -3.453749 -2.823813 0.000000 0.000000 0.000001
 39   -4.457742 -1.054854 -0.746180 0.000000 0.000000 0.000000
 40   1.118101 -3.449769 3.237290 0.000000 0.000001 0.000000
 41   -4.433840 -1.059130 0.959566 -0.000001 0.000000 0.000000
 42   -0.657468 1.697302 -2.688614 0.000000 0.000002 0.000000
 43   -0.664068 1.698578 2.869377 0.000000 0.000002 0.000000
time 1
  0   0.001233 0.187506 0.867585 0.000000 0.000000 -1.571259
  1   -1.093036 0.000002 -0.326057 -1.570808 -1.570425 -0.000074
  2   2.262337 0.113614 0.064702 -0.239938 -0.003091 0.001271
  3   2.380047 0.353302 0.047440 0.013816 0.013239 0.148450
  4   2.033756 0.190472 -0.000128 -0.228329 -0.017342 0.370165
  5   2.451511 0.204909 -0.003447 -0.216340 0.003233 0.497426
  6   7.247600 -0.397300 -0.109469 0.000001 0.000009 0.089454
  7   -2.022252 -0.104661 3.136172 1.242325 -1.066152 -4.423288
  8   1.168026 -0.537438 -0.063437 -0.386726 0.050934 -0.227358
  9   6.790376 -0.619176 0.015206 0.007831 0.016133 -1.617269
 10   8.637599 0.544015 -0.090417 -2.242575 -0.119020 -0.053583
 11   6.790465 -0.619039 0.017802 0.011483 -0.001447 -1.147355
 12   -2.022474 -0.104699 -2.873818 -1.367595 0.910332 -4.515892
 13   1.167898 -0.537463 0.063297 1.082071 -0.369861 -0.988987
 14   7.002743 -0.617765 -0.183752 0.001140 -0.020590 -1.581877
 15   8.209042 0.615527 -0.255885 2.177023 -0.094335 0.081479
 16   7.002735 -0.617911 -0.183641 0.010766 -0.006222 -1.126089
 17   1.574674 0.609930 -0.000899 0.583729 -0.241063 -0.134842
 18   -0.602177 0.511412 -0.000006 0.000000 0.000000 0.000000
 19   3.673773 0.177020 1.119313 -0.000002 -0.000014 -0.174510
 20   3.673767 0.176993 -1.117566 0.000007 -0.000003 -0.174546
 21   3.942357 1.334540 1.627658 0.000002 -0.000011 -0.000026
 22   -0.246060 -0.011889 0.516521 -0.000011 0.000031 0.000025
 23   3.942374 1.334565 -1.631083 0.000019 0.000002 -0.000024
 24   -0.246150 -0.011872 -0.516511 -0.000005 -0.000006 0.000048
 25   4.941364 1.997338 1.629330 0.000018 -0.000001 -0.000024
 26   4.941382 1.997366 -1.629410 -0.000001 0.000005 -0.000024
 27   2.914462 1.619264 1.514501 -0.000019 -0.000022 -0.000050
 28   2.916892 1.618870 -1.501142 -0.000002 -0.000009 -0.000024
 29   8.824059 0.150544 0.091743 0.000006 -0.000231 -0.174534
 30   2.111085 -0.561179 1.784320 -0.000008 -0.000682 0.000024
 31   2.121290 -0.561289 -1.853599 0.000000 0.000000 -0.000002
 32   -0.814395 -0.093824 3.127092 -0.113551 -2.976574 -0.324058
 33   14.298673 -0.408176 0.471578 -0.000076 -0.000041 -0.410835
 34   15.835795 0.581398 0.242756 0.123495 -0.036263 -0.003710
 35   -0.815868 -0.091229 -3.114430 0.128690 2.997531 -0.031777
 36   14.294526 -0.410349 -0.467541 0.000069 0.000048 -0.399441
 37   15.834409 0.579420 -0.284600 0.133755 0.105494 0.255780
 38   1.139685 -3.453749 -2.823813 0.000000 0.000000 0.000001
 39   -4.457742 -1.054854 -0.746180 0.000000 0.000000 0.000000
 40   1.118101 -3.449769 3.237290 0.000000 0.000001 0.000000
 41   -4.433840 -1.059130 0.959566 -0.000001 0.000000 0.000000
 42   -0.657468 1.697302 -2.688614 0.000000 0.000002 0.000000
 43   -0.664068 1.698578 2.869377 0.000000 0.000002 0.000000
time 2
  0   0.001233 0.187506 0.867585 0.000000 0.000000 -1.571259
  1   -1.093036 0.000002 -0.326057 -1.570808 -1.570425 -0.000074
  2   2.262337 0.113614 0.064702 -0.234805 -0.011576 0.005861
  3   2.380047 0.353302 0.047440 -0.007290 0.014282 0.155082
  4   2.033756 0.190472 -0.000128 -0.240243 -0.011361 0.320688
  5   2.451511 0.204909 -0.003447 -0.214731 0.020884 0.441877
  6   7.247600 -0.397300 -0.109469 0.000001 0.000021 0.096676
  7   -2.022252 -0.104661 3.136172 1.317286 -1.138249 -4.504901
  8   1.168026 -0.537438 -0.063437 -0.279402 0.384568 -0.484638
  9   6.790376 -0.619176 0.015206 0.014045 0.050504 -1.618854
 10   8.637599 0.544015 -0.090417 -2.080800 -0.202292 -0.021028
 11   6.790465 -0.619039 0.017802 0.021906 0.022089 -1.148336
 12   -2.022474 -0.104699 -2.873818 -1.421630 1.183767 -4.562518
 13   1.167898 -0.537463 0.063297 0.879618 -0.551767 -0.946673
 14   7.002743 -0.617765 -0.183752 0.008371 -0.075046 -1.707203
 15   8.209042 0.615527 -0.255885 2.216857 0.016506 -0.051304
 16   7.002735 -0.617911 -0.183641 0.005587 -0.046145 -1.213459
 17   1.574674 0.609930 -0.000899 0.605827 -0.255145 -0.060033
 18   -0.602177 0.511412 -0.000006 0.000000 0.000000 0.000000
 19   3.673773 0.177020 1.119313 -0.000002 -0.000014 -0.174510
 20   3.673767 0.176993 -1.117566 0.000007 -0.000003 -0.174546
 21   3.942357 1.334540 1.627658 0.000002 -0.000011 -0.000026
 22   -0.246060 -0.011889 0.516521 -0.000011 0.000031 0.000025
 23   3.942374 1.334565 -1.631083 0.000019 0.000002 -0.000024
 24   -0.246150 -0.011872 -0.516511 -0.000005 -0.000006 0.000048
 25   4.941364 1.997338 1.629330 0.000018 -0.000001 -0.000024
 26   4.941382 1.997366 -1.629410 -0.000001 0.000005 -0.000024
 27   2.914462 1.619264 1.514501 -0.000019 -0.000022 -0.000050
 28   2.916892 1.618870 -1.501142 -0.000002 -0.000009 -0.000024
 29   8.824059 0.150544 0.091743 0.000006 -0.000231 -0.174534
 30   2.111085 -0.561179 1.784320 -0.000008 -0.000682 0.000024
 31   2.121290 -0.561289 -1.853599 0.000000 0.000000 -0.000002
 32   -0.814395 -0.093824 3.127092 -0.066387 -2.980012 -0.324001
 33   14.298673 -0.408176 0.471578 -0.000076 -0.000041 -0.343903
 34   15.835795 0.581398 0.242756 0.042526 -0.087243 -0.057162
 35   -0.815868 -0.091229 -3.114430 0.214504 2.984602 -0.032435
 36   14.294526 -0.410349 -0.467541 0.000069 0.000048 -0.399441
 37   15.834409 0.579420 -0.284600 0.356982 0.174294 0.248377
 38   1.139685 -3.453749 -2.823813 0.000000 0.000000 0.000001
 39   -4.457742 -1.054854 -0.746180 0.000000 0.000000 0.000000
 40   1.118101 -3.449769 3.237290 0.000000 0.000001 0.000000
 41   -4.433840 -1.059130 0.959566 -0.000001 0.000000 0.000000
 42   -0.657468 1.697302 -2.688614 0.000000 0.000002 0.000000
 43   -0.664068 1.698578 2.869377 0.000000 0.000002 0.000000
time 3
  0   0.001233 0.187506 0.867585 0.000000 0.000000 -1.571259
  1   -1.093036 0.000002 -0.326057 -1.570808 -1.570425 -0.000026
  2   2.262337 0.113614 0.064702 -0.226856 -0.024963 0.013017
  3   2.380047 0.353302 0.047440 -0.040698 0.016175 0.165407
  4   2.033756 0.190472 -0.000128 -0.259700 -0.003176 0.242358
  5   2.451511 0.204909 -0.003447 -0.214303 0.049071 0.353737
  6   7.247600 -0.397300 -0.109469 0.000001 0.000021 0.108111
  7   -2.022252 -0.104661 3.136172 1.421867 -1.206801 -4.616380
  8   1.168026 -0.537438 -0.063437 -0.262443 0.733448 -0.756151
  9   6.790376 -0.619176 0.015206 0.020314 0.084742 -1.620288
 10   8.637599 0.544015 -0.090417 -1.918673 -0.289646 -0.001929
 11   6.790465 -0.619039 0.017802 0.032329 0.045682 -1.148912
 12   -2.022474 -0.104699 -2.873818 -1.703303 1.451716 -4.836720
 13   1.167898 -0.537463 0.063297 0.638853 -0.721317 -0.851089
 14   7.002743 -0.617765 -0.183752 0.022490 -0.128140 -1.833766
 15   8.209042 0.615527 -0.255885 2.241879 0.131736 -0.180780
 16   7.002735 -0.617911 -0.183641 0.003940 -0.086970 -1.300553
 17   1.574674 0.609930 -0.000899 0.638893 -0.280681 0.058982
 18   -0.602177 0.511412 -0.000006 0.000000 0.000000 0.000000
 19   3.673773 0.177020 1.119313 -0.000002 -0.000014 -0.174510
 20   3.673767 0.176993 -1.117566 0.000007 -0.000003 -0.174546
 21   3.942357 1.334540 1.627658 0.000002 -0.000011 -0.000026
 22   -0.246060 -0.011889 0.516521 -0.000011 0.000031 0.000025
 23   3.942374 1.334565 -1.631083 0.000019 0.000002 -0.000024
 24   -0.246150 -0.011872 -0.516511 -0.000005 -0.000006 0.000048
 25   4.941364 1.997338 1.629330 0.000018 -0.000001 -0.000024
 26   4.941382 1.997366 -1.629410 -0.000001 0.000005 -0.000024
 27   2.914462 1.619264 1.514501 -0.000019 -0.000022 -0.000050
 28   2.916892 1.618870 -1.501142 -0.000002 -0.000009 -0.000024
 29   8.824059 0.150544 0.091743 0.000006 -0.000231 -0.174534
 30   2.111085 -0.561179 1.784320 -0.000008 -0.000682 0.000024
 31   2.121290 -0.561289 -1.853599 0.000000 0.000000 -0.000002
 32   -0.814395 -0.093824 3.127092 0.001469 -2.985075 -0.323489
 33   14.298673 -0.408176 0.471578 -0.000076 -0.000041 -0.277129
 34   15.835795 0.581398 0.242756 0.005561 -0.112525 -0.080669
 35   -0.815868 -0.091229 -3.114430 0.300406 2.971861 -0.031887
 36   14.294526 -0.410349 -0.467541 0.000069 0.000048 -0.399441
 37   15.834409 0.579420 -0.284600 0.356982 0.174294 0.248377
 38   1.139685 -3.453749 -2.823813 0.000000 0.000000 0.000001
 39   -4.457742 -1.054854 -0.746180 0.000000 0.000000 0.000000
 40   1.118101 -3.449769 3.237290 0.000000 0.000001 0.000000
 41   -4.433840 -1.059130 0.959566 -0.000001 0.000000 0.000000
 42   -0.657468 1.697302 -2.688614 0.000000 0.000002 0.000000
 43   -0.664068 1.698578 2.869377 0.000000 0.000002 0.000000
time 4
  0   0.001233 0.187506 0.867585 0.000000 0.000000 -1.571164
  1   -1.093036 0.000002 -0.326057 -1.570808 -1.570425 -0.000026
  2   2.262337 0.113614 0.064702 -0.217290 -0.041322 0.021600
  3   2.380047 0.353302 0.047440 -0.081215 0.018979 0.177936
  4   2.033756 0.190472 -0.000128 -0.284210 0.004686 0.146485
  5   2.451511 0.204909 -0.003447 -0.217076 0.083459 0.245438
  6   7.247600 -0.397300 -0.109469 0.000001 0.000021 0.122017
  7   -2.022252 -0.104661 3.136172 1.473151 -1.231650 -4.670100
  8   1.168026 -0.537438 -0.063437 -0.290413 0.858831 -0.877105
  9   6.790376 -0.619176 0.015206 0.022644 0.097890 -1.620665
 10   8.637599 0.544015 -0.090417 -1.856499 -0.323504 0.001688
 11   6.790465 -0.619039 0.017802 0.036329 0.054665 -1.148970
 12   -2.022474 -0.104699 -2.873818 -2.729876 1.524450 -5.860575
 13   1.167898 -0.537463 0.063297 0.533268 -0.778986 -0.797092
 14   7.002743 -0.617765 -0.183752 0.029607 -0.147787 -1.882444
 15   8.209042 0.615527 -0.255885 2.247559 0.176072 -0.229611
 16   7.002735 -0.617911 -0.183641 0.004222 -0.102702 -1.333779
 17   1.574674 0.609930 -0.000899 0.675006 -0.316891 0.204682
 18   -0.602177 0.511412 -0.000006 0.000000 0.000000 0.000000
 19   3.673773 0.177020 1.119313 -0.000002 -0.000014 -0.174510
 20   3.673767 0.176993 -1.117566 0.000007 -0.000003 -0.174546
 21   3.942357 1.334540 1.627658 0.000002 -0.000011 -0.000026
 22   -0.246060 -0.011889 0.516521 -0.000011 0.000031 0.000025
 23   3.942374 1.334565 -1.631083 0.000019 0.000002 -0.000024
 24   -0.246150 -0.011872 -0.516511 -0.000005 -0.000006 0.000048
 25   4.941364 1.997338 1.629330 0.000018 -0.000001 -0.000024
 26   4.941382 1.997366 -1.629410 -0.000001 0.000005 -0.000024
 27   2.914462 1.619264 1.514501 -0.000019 -0.000022 -0.000050
 28   2.916892 1.618870 -1.501142 -0.000002 -0.000009 -0.000024
 29   8.824059 0.150544 0.091743 0.000006 -0.000231 -0.174534
 30   2.111085 -0.561179 1.784320 -0.000008 -0.000682 0.000024
 31   2.121290 -0.561289 -1.853599 0.000000 0.000000 -0.000002
 32   -0.814395 -0.093824 3.127092 0.069233 -2.989945 -0.322635
 33   14.298673 -0.408176 0.471578 -0.000076 -0.000041 -0.251563
 34   15.835795 0.581398 0.242756 0.005561 -0.112525 -0.080669
 35   -0.815868 -0.091229 -3.114430 0.333236 2.966802 -0.031503
 36   14.294526 -0.410349 -0.467541 0.000069 0.000048 -0.399441
 37   15.834409 0.579420 -0.284600 0.356982 0.174294 0.248377
 38   1.139685 -3.453749 -2.823813 0.000000 0.000000 0.000001
 39   -4.457742 -1.054854 -0.746180 0.000000 0.000000 0.000000
 40   1.118101 -3.449769 3.237290 0.000000 0.000001 0.000000
 41   -4.433840 -1.059130 0.959566 -0.000001 0.000000 0.000000
 42   -0.657468 1.697302 -2.688614 0.000000 0.000002 0.000000
 43   -0.664068 1.698578 2.869377 0.000000 0.000002 0.000000
time 5
  0   0.001233 0.187506 0.867585 0.000000 0.000000 -1.571069
  1   -1.093036 0.000002 -0.326057 -1.570808 -1.570425 -0.000026
  2   2.262337 0.113614 0.064702 -0.207877 -0.057729 0.029949
  3   2.380047 0.353302 0.047440 -0.121688 0.022287 0.190302
  4   2.033756 0.190472 -0.000128 -0.309366 0.010247 0.050431
  5   2.451511 0.204909 -0.003447 -0.223632 0.117365 0.136569
  6   7.247600 -0.397300 -0.109469 0.000001 0.000021 0.135828
  7   -2.022252 -0.104661 3.136172 1.473151 -1.231650 -4.670100
  8   1.168026 -0.537438 -0.063437 -0.290413 0.858831 -0.877105
  9   6.790376 -0.619176 0.015206 0.022644 0.097890 -1.620665
 10   8.637599 0.544015 -0.090417 -1.856499 -0.323504 0.001688
 11   6.790465 -0.619039 0.017802 0.036329 0.054665 -1.148970
 12   -2.022474 -0.104699 -2.873818 -2.729876 1.524450 -5.860575
 13   1.167898 -0.537463 0.063297 0.533268 -0.778986 -0.797092
 14   7.002743 -0.617765 -0.183752 0.029607 -0.147787 -1.882444
 15   8.209042 0.615527 -0.255885 2.247559 0.176072 -0.229611
 16   7.002735 -0.617911 -0.183641 0.004222 -0.102702 -1.333779
 17   1.574674 0.609930 -0.000899 0.705390 -0.357433 0.350050
 18   -0.602177 0.511412 -0.000006 0.000000 0.000000 0.000000
 19   3.673773 0.177020 1.119313 -0.000002 -0.000014 -0.174510
 20   3.673767 0.176993 -1.117566 0.000007 -0.000003 -0.174546
 21   3.942357 1.334540 1.627658 0.000002 -0.000011 -0.000026
 22   -0.246060 -0.011889 0.516521 -0.000011 0.000031 0.000025
 23   3.942374 1.334565 -1.631083 0.000019 0.000002 -0.000024
 24   -0.246150 -0.011872 -0.516511 -0.000005 -0.000006 0.000048
 25   4.941364 1.997338 1.629330 0.000018 -0.000001 -0.000024
 26   4.941382 1.997366 -1.629410 -0.000001 0.000005 -0.000024
 27   2.914462 1.619264 1.514501 -0.000019 -0.000022 -0.000050
 28   2.916892 1.618870 -1.501142 -0.000002 -0.000009 -0.000024
 29   8.824059 0.150544 0.091743 0.000006 -0.000231 -0.174534
 30   2.111085 -0.561179 1.784320 -0.000008 -0.000682 0.000024
 31   2.121290 -0.561289 -1.853599 0.000000 0.000000 -0.000002
 32   -0.814395 -0.093824 3.127092 0.116303 -2.993192 -0.321895
 33   14.298673 -0.408176 0.471578 -0.000076 -0.000041 -0.251563
 34   15.835795 0.581398 0.242756 0.005561 -0.112525 -0.080669
 35   -0.815868 -0.091229 -3.114430 0.333236 2.966802 -0.031503
 36   14.294526 -0.410349 -0.467541 0.000069 0.000048 -0.399441
 37   15.834409 0.579420 -0.284600 0.356982 0.174294 0.248377
 38   1.139685 -3.453749 -2.823813 0.000000 0.000000 0.000001
 39   -4.457742 -1.054854 -0.746180 0.000000 0.000000 0.000000
 40   1.118101 -3.449769 3.237290 0.000000 0.000001 0.000000
 41   -4.433840 -1.059130 0.959566 -0.000001 0.000000 0.000000
 42   -0.657468 1.697302 -2.688614 0.000000 0.000002 0.000000
 43   -0.664068 1.698578 2.869377 0.000000 0.000002 0.000000
time 6
  0   0.001233 0.187506 0.867585 0.000000 0.000000 -1.571069
  1   -1.093036 0.000002 -0.326057 -1.570808 -1.570425 -0.000026
  2   2.262337 0.113614 0.064702 -0.200260 -0.071248 0.036744
  3   2.380047 0.353302 0.047440 -0.154825 0.025367 0.200321
  4   2.033756 0.190472 -0.000128 -0.330243 0.012931 -0.028044
  5   2.451511 0.204909 -0.003447 -0.231728 0.144429 0.047067
  6   7.247600 -0.397300 -0.109469 0.000001 0.000021 0.147231
  7   -2.022252 -0.104661 3.136172 1.473151 -1.231650 -4.670100
  8   1.168026 -0.537438 -0.063437 -0.290413 0.858831 -0.877105
  9   6.790376 -0.619176 0.015206 0.022644 0.097890 -1.620665
 10   8.637599 0.544015 -0.090417 -1.856499 -0.323504 0.001688
 11   6.790465 -0.619039 0.017802 0.036329 0.054665 -1.148970
 12   -2.022474 -0.104699 -2.873818 -2.729876 1.524450 -5.860575
 13   1.167898 -0.537463 0.063297 0.533268 -0.778986 -0.797092
 14   7.002743 -0.617765 -0.183752 0.029607 -0.147787 -1.882444
 15   8.209042 0.615527 -0.255885 2.247559 0.176072 -0.229611
 16   7.002735 -0.617911 -0.183641 0.004222 -0.102702 -1.333779
 17   1.574674 0.609930 -0.000899 0.725498 -0.392980 0.468214
 18   -0.602177 0.511412 -0.000006 0.000000 0.000000 0.000000
 19   3.673773 0.177020 1.119313 -0.000002 -0.000014 -0.174510
 20   3.673767 0.176993 -1.117566 0.000007 -0.000003 -0.174546
 21   3.942357 1.334540 1.627658 0.000002 -0.000011 -0.000026
 22   -0.246060 -0.011889 0.516521 -0.000011 0.000031 0.000025
 23   3.942374 1.334565 -1.631083 0.000019 0.000002 -0.000024
 24   -0.246150 -0.011872 -0.516511 -0.000005 -0.000006 0.000048
 25   4.941364 1.997338 1.629330 0.000018 -0.000001 -0.000024
 26   4.941382 1.997366 -1.629410 -0.000001 0.000005 -0.000024
 27   2.914462 1.619264 1.514501 -0.000019 -0.000022 -0.000050
 28   2.916892 1.618870 -1.501142 -0.000002 -0.000009 -0.000024
 29   8.824059 0.150544 0.091743 0.000006 -0.000231 -0.174534
 30   2.111085 -0.561179 1.784320 -0.000008 -0.000682 0.000024
 31   2.121290 -0.561289 -1.853599 0.000000 0.000000 -0.000002
 32   -0.814395 -0.093824 3.127092 0.132428 -2.994339 -0.321553
 33   14.298673 -0.408176 0.471578 -0.000076 -0.000041 -0.251563
 34   15.835795 0.581398 0.242756 0.005561 -0.112525 -0.080669
 35   -0.815868 -0.091229 -3.114430 0.333236 2.966802 -0.031503
 36   14.294526 -0.410349 -0.467541 0.000069 0.000048 -0.399441
 37   15.834409 0.579420 -0.284600 0.356982 0.174294 0.248377
 38   1.139685 -3.453749 -2.823813 0.000000 0.000000 0.000001
 39   -4.457742 -1.054854 -0.746180 0.000000 0.000000 0.000000
 40   1.118101 -3.449769 3.237290 0.000000 0.000001 0.000000
 41   -4.433840 -1.059130 0.959566 -0.000001 0.000000 0.000000
 42   -0.657468 1.697302 -2.688614 0.000000 0.000002 0.000000
 43   -0.664068 1.698578 2.869377 0.000000 0.000002 0.000000
time 7
  0   0.001233 0.187506 0.867585 0.000000 0.000000 -1.571069
  1   -1.093036 0.000002 -0.326057 -1.570808 -1.570425 -0.000074
  2   2.262337 0.113614 0.064702 -0.195497 -0.079841 0.040954
  3   2.380047 0.353302 0.047440 -0.175872 0.027525 0.206647
  4   2.033756 0.190472 -0.000128 -0.343503 0.013794 -0.077594
  5   2.451511 0.204909 -0.003447 -0.238027 0.161114 -0.009646
  6   7.247600 -0.397300 -0.109469 0.000001 0.000021 0.154485
  7   -2.022252 -0.104661 3.136172 1.473151 -1.231650 -4.670100
  8   1.168026 -0.537438 -0.063437 -0.290413 0.858831 -0.877105
  9   6.790376 -0.619176 0.015206 0.022644 0.097890 -1.620665
 10   8.637599 0.544015 -0.090417 -1.856499 -0.323504 0.001688
 11   6.790465 -0.619039 0.017802 0.036329 0.054665 -1.148970
 12   -2.022474 -0.104699 -2.873818 -2.729876 1.524450 -5.860575
 13   1.167898 -0.537463 0.063297 0.533268 -0.778986 -0.797092
 14   7.002743 -0.617765 -0.183752 0.029607 -0.147787 -1.882444
 15   8.209042 0.615527 -0.255885 2.247559 0.176072 -0.229611
 16   7.002735 -0.617911 -0.183641 0.004222 -0.102702 -1.333779
 17   1.574674 0.609930 -0.000899 0.735816 -0.416127 0.542395
 18   -0.602177 0.511412 -0.000006 0.000000 0.000000 0.000000
 19   3.673773 0.177020 1.119313 -0.000002 -0.000014 -0.174510
 20   3.673767 0.176993 -1.117566 0.000007 -0.000003 -0.174546
 21   3.942357 1.334540 1.627658 0.000002 -0.000011 -0.000026
 22   -0.246060 -0.011889 0.516521 -0.000011 0.000031 0.000025
 23   3.942374 1.334565 -1.631083 0.000019 0.000002 -0.000024
 24   -0.246150 -0.011872 -0.516511 -0.000005 -0.000006 0.000048
 25   4.941364 1.997338 1.629330 0.000018 -0.000001 -0.000024
 26   4.941382 1.997366 -1.629410 -0.000001 0.000005 -0.000024
 27   2.914462 1.619264 1.514501 -0.000019 -0.000022 -0.000050
 28   2.916892 1.618870 -1.501142 -0.000002 -0.000009 -0.000024
 29   8.824059 0.150544 0.091743 0.000006 -0.000231 -0.174534
 30   2.111085 -0.561179 1.784320 -0.000008 -0.000682 0.000024
 31   2.121290 -0.561289 -1.853599 0.000000 0.000000 -0.000002
 32   -0.814395 -0.093824 3.127092 0.132428 -2.994339 -0.321553
 33   14.298673 -0.408176 0.471578 -0.000076 -0.000041 -0.251563
 34   15.835795 0.581398 0.242756 0.005561 -0.112525 -0.080669
 35   -0.815868 -0.091229 -3.114430 0.333236 2.966802 -0.031503
 36   14.294526 -0.410349 -0.467541 0.000069 0.000048 -0.399441
 37   15.834409 0.579420 -0.284600 0.356982 0.174294 0.248377
 38   1.139685 -3.453749 -2.823813 0.000000 0.000000 0.000001
 39   -4.457742 -1.054854 -0.746180 0.000000 0.000000 0.000000
 40   1.118101 -3.449769 3.237290 0.000000 0.000001 0.000000
 41   -4.433840 -1.059130 0.959566 -0.000001 0.000000 0.000000
 42   -0.657468 1.697302 -2.688614 0.000000 0.000002 0.000000
 43   -0.664068 1.698578 2.869377 0.000000 0.000002 0.000000
time 8
  0   0.001233 0.187506 0.867585 0.000000 0.000000 -1.571069
  1   -1.093036 0.000002 -0.326057 -1.570808 -1.570425 -0.000074
  2   2.262337 0.113614 0.064702 -0.193904 -0.082717 0.042400
  3   2.380047 0.353302 0.047440 -0.182832 0.028268 0.208708
  4   2.033756 0.190472 -0.000128 -0.347911 0.013926 -0.094195
  5   2.451511 0.204909 -0.003447 -0.240372 0.166584 -0.028567
  6   7.247600 -0.397300 -0.109469 0.000001 0.000021 0.156829
  7   -2.022252 -0.104661 3.136172 1.473151 -1.231650 -4.670100
  8   1.168026 -0.537438 -0.063437 -0.290413 0.858831 -0.877105
  9   6.790376 -0.619176 0.015206 0.022644 0.097890 -1.620665
 10   8.637599 0.544015 -0.090417 -1.856499 -0.323504 0.001688
 11   6.790465 -0.619039 0.017802 0.036329 0.054665 -1.148970
 12   -2.022474 -0.104699 -2.873818 -2.729876 1.524450 -5.860575
 13   1.167898 -0.537463 0.063297 0.533268 -0.778986 -0.797092
 14   7.002743 -0.617765 -0.183752 0.029607 -0.147787 -1.882444
 15   8.209042 0.615527 -0.255885 2.247559 0.176072 -0.229611
 16   7.002735 -0.617911 -0.183641 0.004222 -0.102702 -1.333779
 17   1.574674 0.609930 -0.000899 0.738822 -0.423866 0.567048
 18   -0.602177 0.511412 -0.000006 0.000000 0.000000 0.000000
 19   3.673773 0.177020 1.119313 -0.000002 -0.000014 -0.174510
 20   3.673767 0.176993 -1.117566 0.000007 -0.000003 -0.174546
 21   3.942357 1.334540 1.627658 0.000002 -0.000011 -0.000026
 22   -0.246060 -0.011889 0.516521 -0.000011 0.000031 0.000025
 23   3.942374 1.334565 -1.631083 0.000019 0.000002 -0.000024
 24   -0.246150 -0.011872 -0.516511 -0.000005 -0.000006 0.000048
 25   4.941364 1.997338 1.629330 0.000018 -0.000001 -0.000024
 26   4.941382 1.997366 -1.629410 -0.000001 0.000005 -0.000024
 27   2.914462 1.619264 1.514501 -0.000019 -0.000022 -0.000050
 28   2.916892 1.618870 -1.501142 -0.000002 -0.000009 -0.000024
 29   8.824059 0.150544 0.091743 0.000006 -0.000231 -0.174534
 30   2.111085 -0.561179 1.784320 -0.000008 -0.000682 0.000024
 31   2.121290 -0.561289 -1.853599 0.000000 0.000000 -0.000002
 32   -0.814395 -0.093824 3.127092 0.132428 -2.994339 -0.321553
 33   14.298673 -0.408176 0.471578 -0.000076 -0.000041 -0.251563
 34   15.835795 0.581398 0.242756 0.005561 -0.112525 -0.080669
 35   -0.815868 -0.091229 -3.114430 0.333236 2.966802 -0.031503
 36   14.294526 -0.410349 -0.467541 0.000069 0.000048 -0.399441
 37   15.834409 0.579420 -0.284600 0.356982 0.174294 0.248377
 38   1.139685 -3.453749 -2.823813 0.000000 0.000000 0.000001
 39   -4.457742 -1.054854 -0.746180 0.000000 0.000000 0.000000
 40   1.118101 -3.449769 3.237290 0.000000 0.000001 0.000000
 41   -4.433840 -1.059130 0.959566 -0.000001 0.000000 0.000000
 42   -0.657468 1.697302 -2.688614 0.000000 0.000002 0.000000
 43   -0.664068 1.698578 2.869377 0.000000 0.000002 0.000000
end
