version 1
nodes
  0 "Bip01" -1
  1 "Bip01 Pelvis" 0
  2 "Bip01 Spine" 1
  3 "Bip01 Spine1" 2
  4 "Bip01 Spine2" 3
  5 "Bip01 Spine3" 4
  6 "Bip01 Neck" 5
  7 "Bip01 L Arm" 6
  8 "Bip01 L Arm1" 7
  9 "Bip01 L Arm2" 8
 10 "Bip01 L Hand" 9
 11 "Bip06 L elbow2-smooth" 8
 12 "Bip01 R Arm" 6
 13 "Bip01 R Arm1" 12
 14 "Bip01 R Arm2" 13
 15 "Bip01 R Hand" 14
 16 "Bip06 R elbow2-smooth" 13
 17 "Bip01 Head" 6
 18 "Bip06 Head_helper" 17
 19 "Bip06 Head_eyes_l" 18
 20 "Bip06 Head_eyes_r" 18
 21 "Bip06 Head_blink_l" 18
 22 "Bip06 Head_blink_smooth_l1" 21
 23 "Bip06 Head_blink_r" 18
 24 "Bip06 Head_blink_smooth_r1" 23
 25 "Bip06 Head_L_eyebrow" 18
 26 "Bip06 Head_R_eyebrow" 18
 27 "Bip06 Head_blink_l_lid" 18
 28 "Bip06 Head_blink_r_lid" 18
 29 "Bip06 bunny" 18
 30 "Bip06 bunnyL" 29
 31 "Bip06 bunnyR" 29
 32 "Bip01 L Leg" 1
 33 "Bip01 L Leg1" 32
 34 "Bip01 L Foot" 33
 35 "Bip01 R Leg" 1
 36 "Bip01 R Leg1" 35
 37 "Bip01 R Foot" 36
 38 "Bip03 HairR1" 17
 39 "Bip03 HairR2" 38
 40 "Bip03 HairL1" 17
 41 "Bip03 HairL2" 40
 42 "Bip03 swingR" 17
 43 "Bip03 swingL" 17
end
skeleton
time 0
  0   0.001233 -0.019532 2.285597 0.000000 0.000000 -1.571829
  1   -1.093036 0.000002 -0.326057 -1.570756 -1.570425 -0.000074
  2   2.262337 0.113614 0.064702 0.137462 0.030981 0.021329
  3   2.380047 0.353302 0.047440 -0.139299 -0.008741 -0.042648
  4   2.033756 0.190472 -0.000128 0.001521 -0.005057 -0.000714
  5   2.451511 0.204909 -0.003447 0.000000 -0.000005 -0.017472
  6   7.247600 -0.397300 -0.109469 0.000001 0.000009 0.418441
  7   -2.022252 -0.104661 3.136172 -0.298783 -1.361862 -2.901749
  8   1.168026 -0.537438 -0.063437 -1.439839 0.226380 -1.634522
  9   6.790376 -0.619176 0.015206 -1.099210 0.448610 -0.631136
 10   8.637599 0.544015 -0.090417 -1.488652 -0.125355 -0.473976
 11   6.790465 -0.619039 0.017802 -0.727504 0.374079 -0.393314
 12   -2.022474 -0.104699 -2.873818 0.298873 1.361683 -2.901984
 13   1.167898 -0.537463 0.063297 1.593617 0.015261 -1.887020
 14   7.002743 -0.617765 -0.183752 0.125196 -0.054831 -0.173840
 15   8.209042 0.615527 -0.255885 1.254365 0.102683 -0.226785
 16   7.002735 -0.617911 -0.183641 0.101528 -0.038645 -0.139738
 17   1.574674 0.609930 -0.000899 -0.086442 -0.008181 -0.334320
 18   -0.602177 0.511412 -0.000006 0.000000 0.000000 0.000000
 19   3.673773 0.177020 1.119313 -0.000002 -0.000014 -0.174510
 20   3.673767 0.176993 -1.117566 0.000007 -0.000003 -0.174546
 21   3.942357 1.334540 1.627658 0.000002 -0.000011 -0.000026
 22   -0.246060 -0.011889 0.516521 -0.000011 0.000031 0.000025
 23   3.942374 1.334565 -1.631083 0.000019 0.000002 -0.000024
 24   -0.246150 -0.011872 -0.516511 -0.000005 -0.000006 0.000048
 25   4.941364 1.997338 1.629330 0.000018 -0.000001 -0.000024
 26   4.941382 1.997366 -1.629410 -0.000001 0.000005 -0.000024
 27   2.914462 1.619264 1.514501 -0.000019 -0.000022 -0.000050
 28   2.916892 1.618870 -1.501142 -0.000002 -0.000009 -0.000024
 29   8.824059 0.150544 0.091743 0.000006 -0.000231 -0.174534
 30   2.111085 -0.561179 1.784320 -0.000008 -0.000682 0.000024
 31   2.121290 -0.561289 -1.853599 0.000000 0.000000 -0.000002
 32   -0.814395 -0.093824 3.127092 0.338887 -3.077717 -0.167408
 33   14.298673 -0.408176 0.471578 0.013215 -0.091859 -0.496506
 34   15.835795 0.581398 0.242756 -0.532539 -0.064474 0.362915
 35   -0.815868 -0.091229 -3.114430 -0.002012 2.881638 -0.314978
 36   14.294526 -0.410349 -0.467541 -0.021444 0.095337 -0.575480
 37   15.834409 0.579420 -0.284600 -0.051545 0.043118 0.201427
 38   1.139685 -3.453749 -2.823813 0.000000 0.000000 0.000001
 39   -4.457742 -1.054854 -0.746180 0.000000 0.000000 0.000000
 40   1.118101 -3.449769 3.237290 0.000000 0.000001 0.000000
 41   -4.433840 -1.059130 0.959566 -0.000001 0.000000 0.000000
 42   -0.657468 1.697302 -2.688614 0.000000 0.000002 0.000000
 43   -0.664068 1.698578 2.869377 0.000000 0.000002 0.000000
time 1
  0   0.001233 -0.019532 2.285597 0.000000 0.000000 -1.571829
  1   -1.093036 0.000002 -0.326057 -1.570756 -1.570425 -0.000074
  2   2.262337 0.113614 0.064702 0.138774 0.031005 0.027582
  3   2.380047 0.353302 0.047440 -0.125708 -0.007267 -0.032833
  4   2.033756 0.190472 -0.000128 0.007773 -0.005045 -0.000714
  5   2.451511 0.204909 -0.003447 0.000000 -0.000005 -0.017472
  6   7.247600 -0.397300 -0.109469 0.000001 0.000009 0.418441
  7   -2.022252 -0.104661 3.136172 -0.298783 -1.361862 -2.901749
  8   1.168026 -0.537438 -0.063437 -1.448192 0.340895 -1.628133
  9   6.790376 -0.619176 0.015206 -1.124176 0.394016 -0.699811
 10   8.637599 0.544015 -0.090417 -1.426831 -0.097621 -0.430931
 11   6.790465 -0.619039 0.017802 -0.749810 0.346023 -0.449662
 12   -2.022474 -0.104699 -2.873818 0.298873 1.361712 -2.901984
 13   1.167898 -0.537463 0.063297 1.581034 0.031026 -1.842648
 14   7.002743 -0.617765 -0.183752 0.125196 -0.054831 -0.183988
 15   8.209042 0.615527 -0.255885 1.282694 0.086945 -0.232678
 16   7.002735 -0.617911 -0.183641 0.101481 -0.038701 -0.146858
 17   1.574674 0.609930 -0.000899 -0.039728 0.000079 -0.313253
 18   -0.602177 0.511412 -0.000006 0.000000 0.000000 0.000000
 19   3.673773 0.177020 1.119313 -0.000002 -0.000014 -0.174510
 20   3.673767 0.176993 -1.117566 0.000007 -0.000003 -0.174546
 21   3.942357 1.334540 1.627658 0.000002 -0.000011 -0.000026
 22   -0.246060 -0.011889 0.516521 -0.000011 0.000031 0.000025
 23   3.942374 1.334565 -1.631083 0.000019 0.000002 -0.000024
 24   -0.246150 -0.011872 -0.516511 -0.000005 -0.000006 0.000048
 25   4.941364 1.997338 1.629330 0.000018 -0.000001 -0.000024
 26   4.941382 1.997366 -1.629410 -0.000001 0.000005 -0.000024
 27   2.914462 1.619264 1.514501 -0.000019 -0.000022 -0.000050
 28   2.916892 1.618870 -1.501142 -0.000002 -0.000009 -0.000024
 29   8.824059 0.150544 0.091743 0.000006 -0.000231 -0.174534
 30   2.111085 -0.561179 1.784320 -0.000008 -0.000682 0.000024
 31   2.121290 -0.561289 -1.853599 0.000000 0.000000 -0.000002
 32   -0.814395 -0.093824 3.127092 0.338887 -3.077717 -0.167408
 33   14.298673 -0.408176 0.471578 0.013215 -0.091859 -0.496506
 34   15.835795 0.581398 0.242756 -0.532539 -0.064474 0.362915
 35   -0.815868 -0.091229 -3.114430 -0.002012 2.881638 -0.314978
 36   14.294526 -0.410349 -0.467541 -0.021444 0.095337 -0.575480
 37   15.834409 0.579420 -0.284600 -0.051545 0.043118 0.201427
 38   1.139685 -3.453749 -2.823813 0.000000 0.000000 0.000001
 39   -4.457742 -1.054854 -0.746180 0.000000 0.000000 0.000000
 40   1.118101 -3.449769 3.237290 0.000000 0.000001 0.000000
 41   -4.433840 -1.059130 0.959566 -0.000001 0.000000 0.000000
 42   -0.657468 1.697302 -2.688614 0.000000 0.000002 0.000000
 43   -0.664068 1.698578 2.869377 0.000000 0.000002 0.000000
time 2
  0   0.001233 -0.019532 2.285597 0.000000 0.000000 -1.571829
  1   -1.093036 0.000002 -0.326057 -1.570756 -1.570425 -0.000074
  2   2.262337 0.113614 0.064702 0.140022 0.031077 0.033798
  3   2.380047 0.353302 0.047440 -0.112058 -0.005889 -0.022977
  4   2.033756 0.190472 -0.000128 0.013988 -0.005045 -0.000714
  5   2.451511 0.204909 -0.003447 0.000000 -0.000005 -0.017472
  6   7.247600 -0.397300 -0.109469 0.000001 0.000009 0.418441
  7   -2.022252 -0.104661 3.136172 -0.298783 -1.361862 -2.901749
  8   1.168026 -0.537438 -0.063437 -1.456102 0.455059 -1.622376
  9   6.790376 -0.619176 0.015206 -1.144481 0.338088 -0.765845
 10   8.637599 0.544015 -0.090417 -1.364128 -0.072844 -0.386873
 11   6.790465 -0.619039 0.017802 -0.769693 0.316688 -0.504857
 12   -2.022474 -0.104699 -2.873818 0.298873 1.361712 -2.901984
 13   1.167898 -0.537463 0.063297 1.569013 0.047299 -1.798579
 14   7.002743 -0.617765 -0.183752 0.125196 -0.054831 -0.193889
 15   8.209042 0.615527 -0.255885 1.311312 0.071284 -0.239053
 16   7.002735 -0.617911 -0.183641 0.101434 -0.038758 -0.153923
 17   1.574674 0.609930 -0.000899 0.006865 0.007534 -0.291704
 18   -0.602177 0.511412 -0.000006 0.000000 0.000000 0.000000
 19   3.673773 0.177020 1.119313 -0.000002 -0.000014 -0.174510
 20   3.673767 0.176993 -1.117566 0.000007 -0.000003 -0.174546
 21   3.942357 1.334540 1.627658 0.000002 -0.000011 -0.000026
 22   -0.246060 -0.011889 0.516521 -0.000011 0.000031 0.000025
 23   3.942374 1.334565 -1.631083 0.000019 0.000002 -0.000024
 24   -0.246150 -0.011872 -0.516511 -0.000005 -0.000006 0.000048
 25   4.941364 1.997338 1.629330 0.000018 -0.000001 -0.000024
 26   4.941382 1.997366 -1.629410 -0.000001 0.000005 -0.000024
 27   2.914462 1.619264 1.514501 -0.000019 -0.000022 -0.000050
 28   2.916892 1.618870 -1.501142 -0.000002 -0.000009 -0.000024
 29   8.824059 0.150544 0.091743 0.000006 -0.000231 -0.174534
 30   2.111085 -0.561179 1.784320 -0.000008 -0.000682 0.000024
 31   2.121290 -0.561289 -1.853599 0.000000 0.000000 -0.000002
 32   -0.814395 -0.093824 3.127092 0.338887 -3.077717 -0.167408
 33   14.298673 -0.408176 0.471578 0.013215 -0.091859 -0.496506
 34   15.835795 0.581398 0.242756 -0.532539 -0.064474 0.362915
 35   -0.815868 -0.091229 -3.114430 -0.002012 2.881638 -0.314978
 36   14.294526 -0.410349 -0.467541 -0.021444 0.095337 -0.575480
 37   15.834409 0.579420 -0.284600 -0.051545 0.043118 0.201427
 38   1.139685 -3.453749 -2.823813 0.000000 0.000000 0.000001
 39   -4.457742 -1.054854 -0.746180 0.000000 0.000000 0.000000
 40   1.118101 -3.449769 3.237290 0.000000 0.000001 0.000000
 41   -4.433840 -1.059130 0.959566 -0.000001 0.000000 0.000000
 42   -0.657468 1.697302 -2.688614 0.000000 0.000002 0.000000
 43   -0.664068 1.698578 2.869377 0.000000 0.000002 0.000000
time 3
  0   0.001233 -0.019532 2.285597 0.000000 0.000000 -1.571829
  1   -1.093036 0.000002 -0.326057 -1.570756 -1.570425 -0.000074
  2   2.262337 0.113614 0.064702 0.141245 0.031077 0.040105
  3   2.380047 0.353302 0.047440 -0.098392 -0.004702 -0.013060
  4   2.033756 0.190472 -0.000128 0.020221 -0.005045 -0.000750
  5   2.451511 0.204909 -0.003447 0.000000 -0.000005 -0.017472
  6   7.247600 -0.397300 -0.109469 0.000001 0.000009 0.418441
  7   -2.022252 -0.104661 3.136172 -0.298783 -1.361862 -2.901749
  8   1.168026 -0.537438 -0.063437 -1.463949 0.570027 -1.617442
  9   6.790376 -0.619176 0.015206 -1.160404 0.281025 -0.829313
 10   8.637599 0.544015 -0.090417 -1.300634 -0.050601 -0.341079
 11   6.790465 -0.619039 0.017802 -0.787239 0.286103 -0.558725
 12   -2.022474 -0.104699 -2.873818 0.298873 1.361712 -2.901984
 13   1.167898 -0.537463 0.063297 1.557696 0.064285 -1.754691
 14   7.002743 -0.617765 -0.183752 0.125196 -0.054831 -0.203872
 15   8.209042 0.615527 -0.255885 1.340001 0.055925 -0.245788
 16   7.002735 -0.617911 -0.183641 0.101340 -0.038871 -0.160822
 17   1.574674 0.609930 -0.000899 0.053945 0.013924 -0.269934
 18   -0.602177 0.511412 -0.000006 0.000000 0.000000 0.000000
 19   3.673773 0.177020 1.119313 -0.000002 -0.000014 -0.174510
 20   3.673767 0.176993 -1.117566 0.000007 -0.000003 -0.174546
 21   3.942357 1.334540 1.627658 0.000002 -0.000011 -0.000026
 22   -0.246060 -0.011889 0.516521 -0.000011 0.000031 0.000025
 23   3.942374 1.334565 -1.631083 0.000019 0.000002 -0.000024
 24   -0.246150 -0.011872 -0.516511 -0.000005 -0.000006 0.000048
 25   4.941364 1.997338 1.629330 0.000018 -0.000001 -0.000024
 26   4.941382 1.997366 -1.629410 -0.000001 0.000005 -0.000024
 27   2.914462 1.619264 1.514501 -0.000019 -0.000022 -0.000050
 28   2.916892 1.618870 -1.501142 -0.000002 -0.000009 -0.000024
 29   8.824059 0.150544 0.091743 0.000006 -0.000231 -0.174534
 30   2.111085 -0.561179 1.784320 -0.000008 -0.000682 0.000024
 31   2.121290 -0.561289 -1.853599 0.000000 0.000000 -0.000002
 32   -0.814395 -0.093824 3.127092 0.338887 -3.077717 -0.167408
 33   14.298673 -0.408176 0.471578 0.013215 -0.091859 -0.496506
 34   15.835795 0.581398 0.242756 -0.532539 -0.064474 0.362915
 35   -0.815868 -0.091229 -3.114430 -0.002012 2.881638 -0.314978
 36   14.294526 -0.410349 -0.467541 -0.021444 0.095337 -0.575480
 37   15.834409 0.579420 -0.284600 -0.051545 0.043118 0.201427
 38   1.139685 -3.453749 -2.823813 0.000000 0.000000 0.000001
 39   -4.457742 -1.054854 -0.746180 0.000000 0.000000 0.000000
 40   1.118101 -3.449769 3.237290 0.000000 0.000001 0.000000
 41   -4.433840 -1.059130 0.959566 -0.000001 0.000000 0.000000
 42   -0.657468 1.697302 -2.688614 0.000000 0.000002 0.000000
 43   -0.664068 1.698578 2.869377 0.000000 0.000002 0.000000
time 4
  0   0.001233 -0.019532 2.285597 0.000000 0.000000 -1.571829
  1   -1.093036 0.000002 -0.326057 -1.570756 -1.570425 -0.000074
  2   2.262337 0.113614 0.064702 0.142506 0.031077 0.046357
  3   2.380047 0.353302 0.047440 -0.084756 -0.003599 -0.003245
  4   2.033756 0.190472 -0.000128 0.026437 -0.005033 -0.000859
  5   2.451511 0.204909 -0.003447 0.000000 -0.000005 -0.017472
  6   7.247600 -0.397300 -0.109469 0.000001 0.000009 0.418441
  7   -2.022252 -0.104661 3.136172 -0.298783 -1.361862 -2.901749
  8   1.168026 -0.537438 -0.063437 -1.471606 0.684643 -1.613267
  9   6.790376 -0.619176 0.015206 -1.172554 0.223228 -0.890970
 10   8.637599 0.544015 -0.090417 -1.235818 -0.031525 -0.294055
 11   6.790465 -0.619039 0.017802 -0.802451 0.254551 -0.611382
 12   -2.022474 -0.104699 -2.873818 0.298873 1.361683 -2.901984
 13   1.167898 -0.537463 0.063297 1.547151 0.081524 -1.710743
 14   7.002743 -0.617765 -0.183752 0.125196 -0.054831 -0.213690
 15   8.209042 0.615527 -0.255885 1.368762 0.040642 -0.252884
 16   7.002735 -0.617911 -0.183641 0.101293 -0.038983 -0.167666
 17   1.574674 0.609930 -0.000899 0.101228 0.019320 -0.247795
 18   -0.602177 0.511412 -0.000006 0.000000 0.000000 0.000000
 19   3.673773 0.177020 1.119313 -0.000002 -0.000014 -0.174510
 20   3.673767 0.176993 -1.117566 0.000007 -0.000003 -0.174546
 21   3.942357 1.334540 1.627658 0.000002 -0.000011 -0.000026
 22   -0.246060 -0.011889 0.516521 -0.000011 0.000031 0.000025
 23   3.942374 1.334565 -1.631083 0.000019 0.000002 -0.000024
 24   -0.246150 -0.011872 -0.516511 -0.000005 -0.000006 0.000048
 25   4.941364 1.997338 1.629330 0.000018 -0.000001 -0.000024
 26   4.941382 1.997366 -1.629410 -0.000001 0.000005 -0.000024
 27   2.914462 1.619264 1.514501 -0.000019 -0.000022 -0.000050
 28   2.916892 1.618870 -1.501142 -0.000002 -0.000009 -0.000024
 29   8.824059 0.150544 0.091743 0.000006 -0.000231 -0.174534
 30   2.111085 -0.561179 1.784320 -0.000008 -0.000682 0.000024
 31   2.121290 -0.561289 -1.853599 0.000000 0.000000 -0.000002
 32   -0.814395 -0.093824 3.127092 0.338887 -3.077717 -0.167408
 33   14.298673 -0.408176 0.471578 0.013215 -0.091859 -0.496506
 34   15.835795 0.581398 0.242756 -0.532539 -0.064474 0.362915
 35   -0.815868 -0.091229 -3.114430 -0.002012 2.881638 -0.314978
 36   14.294526 -0.410349 -0.467541 -0.021444 0.095337 -0.575480
 37   15.834409 0.579420 -0.284600 -0.051545 0.043118 0.201427
 38   1.139685 -3.453749 -2.823813 0.000000 0.000000 0.000001
 39   -4.457742 -1.054854 -0.746180 0.000000 0.000000 0.000000
 40   1.118101 -3.449769 3.237290 0.000000 0.000001 0.000000
 41   -4.433840 -1.059130 0.959566 -0.000001 0.000000 0.000000
 42   -0.657468 1.697302 -2.688614 0.000000 0.000002 0.000000
 43   -0.664068 1.698578 2.869377 0.000000 0.000002 0.000000
time 5
  0   0.001233 -0.019532 2.285597 0.000000 0.000000 -1.571829
  1   -1.093036 0.000002 -0.326057 -1.570756 -1.570425 -0.000074
  2   2.262337 0.113614 0.064702 0.143716 0.031077 0.052682
  3   2.380047 0.353302 0.047440 -0.071015 -0.002701 0.006673
  4   2.033756 0.190472 -0.000128 0.032689 -0.005033 -0.000859
  5   2.451511 0.204909 -0.003447 0.000000 -0.000005 -0.017472
  6   7.247600 -0.397300 -0.109469 0.000001 0.000009 0.418441
  7   -2.022252 -0.104661 3.136172 -0.298783 -1.361862 -2.901749
  8   1.168026 -0.537438 -0.063437 -1.479516 0.799410 -1.609724
  9   6.790376 -0.619176 0.015206 -1.180820 0.164630 -0.951269
 10   8.637599 0.544015 -0.090417 -1.170650 -0.015476 -0.245730
 11   6.790465 -0.619039 0.017802 -0.815414 0.221947 -0.663232
 12   -2.022474 -0.104699 -2.873818 0.298873 1.361712 -2.901984
 13   1.167898 -0.537463 0.063297 1.537310 0.099323 -1.667037
 14   7.002743 -0.617765 -0.183752 0.125196 -0.054831 -0.223673
 15   8.209042 0.615527 -0.255885 1.397595 0.025661 -0.260642
 16   7.002735 -0.617911 -0.183641 0.101246 -0.039040 -0.174675
 17   1.574674 0.609930 -0.000899 0.148552 0.023722 -0.225433
 18   -0.602177 0.511412 -0.000006 0.000000 0.000000 0.000000
 19   3.673773 0.177020 1.119313 -0.000002 -0.000014 -0.174510
 20   3.673767 0.176993 -1.117566 0.000007 -0.000003 -0.174546
 21   3.942357 1.334540 1.627658 0.000002 -0.000011 -0.000026
 22   -0.246060 -0.011889 0.516521 -0.000011 0.000031 0.000025
 23   3.942374 1.334565 -1.631083 0.000019 0.000002 -0.000024
 24   -0.246150 -0.011872 -0.516511 -0.000005 -0.000006 0.000048
 25   4.941364 1.997338 1.629330 0.000018 -0.000001 -0.000024
 26   4.941382 1.997366 -1.629410 -0.000001 0.000005 -0.000024
 27   2.914462 1.619264 1.514501 -0.000019 -0.000022 -0.000050
 28   2.916892 1.618870 -1.501142 -0.000002 -0.000009 -0.000024
 29   8.824059 0.150544 0.091743 0.000006 -0.000231 -0.174534
 30   2.111085 -0.561179 1.784320 -0.000008 -0.000682 0.000024
 31   2.121290 -0.561289 -1.853599 0.000000 0.000000 -0.000002
 32   -0.814395 -0.093824 3.127092 0.338887 -3.077717 -0.167408
 33   14.298673 -0.408176 0.471578 0.013215 -0.091859 -0.496506
 34   15.835795 0.581398 0.242756 -0.532539 -0.064474 0.362915
 35   -0.815868 -0.091229 -3.114430 -0.002012 2.881638 -0.314978
 36   14.294526 -0.410349 -0.467541 -0.021444 0.095337 -0.575480
 37   15.834409 0.579420 -0.284600 -0.051545 0.043118 0.201427
 38   1.139685 -3.453749 -2.823813 0.000000 0.000000 0.000001
 39   -4.457742 -1.054854 -0.746180 0.000000 0.000000 0.000000
 40   1.118101 -3.449769 3.237290 0.000000 0.000001 0.000000
 41   -4.433840 -1.059130 0.959566 -0.000001 0.000000 0.000000
 42   -0.657468 1.697302 -2.688614 0.000000 0.000002 0.000000
 43   -0.664068 1.698578 2.869377 0.000000 0.000002 0.000000
time 6
  0   0.001233 -0.019532 2.285597 0.000000 0.000000 -1.571829
  1   -1.093036 0.000002 -0.326057 -1.570756 -1.570425 -0.000074
  2   2.262337 0.113614 0.064702 0.144977 0.031017 0.058862
  3   2.380047 0.353302 0.047440 -0.057364 -0.001922 0.016569
  4   2.033756 0.190472 -0.000128 0.038941 -0.005033 -0.000859
  5   2.451511 0.204909 -0.003447 0.000000 -0.000005 -0.017472
  6   7.247600 -0.397300 -0.109469 0.000001 0.000009 0.418441
  7   -2.022252 -0.104661 3.136172 -0.298783 -1.361862 -2.901749
  8   1.168026 -0.537438 -0.063437 -1.488059 0.914378 -1.607320
  9   6.790376 -0.619176 0.015206 -1.185536 0.105699 -1.010360
 10   8.637599 0.544015 -0.090417 -1.104513 -0.002594 -0.196608
 11   6.790465 -0.619039 0.017802 -0.826158 0.188576 -0.713928
 12   -2.022474 -0.104699 -2.873818 0.298873 1.361712 -2.901984
 13   1.167898 -0.537463 0.063297 1.528312 0.117580 -1.623452
 14   7.002743 -0.617765 -0.183752 0.125196 -0.054831 -0.233904
 15   8.209042 0.615527 -0.255885 1.426500 0.010908 -0.268700
 16   7.002735 -0.617911 -0.183641 0.101152 -0.039096 -0.181795
 17   1.574674 0.609930 -0.000899 0.195917 0.026988 -0.202924
 18   -0.602177 0.511412 -0.000006 0.000000 0.000000 0.000000
 19   3.673773 0.177020 1.119313 -0.000002 -0.000014 -0.174510
 20   3.673767 0.176993 -1.117566 0.000007 -0.000003 -0.174546
 21   3.942357 1.334540 1.627658 0.000002 -0.000011 -0.000026
 22   -0.246060 -0.011889 0.516521 -0.000011 0.000031 0.000025
 23   3.942374 1.334565 -1.631083 0.000019 0.000002 -0.000024
 24   -0.246150 -0.011872 -0.516511 -0.000005 -0.000006 0.000048
 25   4.941364 1.997338 1.629330 0.000018 -0.000001 -0.000024
 26   4.941382 1.997366 -1.629410 -0.000001 0.000005 -0.000024
 27   2.914462 1.619264 1.514501 -0.000019 -0.000022 -0.000050
 28   2.916892 1.618870 -1.501142 -0.000002 -0.000009 -0.000024
 29   8.824059 0.150544 0.091743 0.000006 -0.000231 -0.174534
 30   2.111085 -0.561179 1.784320 -0.000008 -0.000682 0.000024
 31   2.121290 -0.561289 -1.853599 0.000000 0.000000 -0.000002
 32   -0.814395 -0.093824 3.127092 0.338887 -3.077717 -0.167408
 33   14.298673 -0.408176 0.471578 0.013215 -0.091859 -0.496506
 34   15.835795 0.581398 0.242756 -0.532539 -0.064474 0.362915
 35   -0.815868 -0.091229 -3.114430 -0.002012 2.881638 -0.314978
 36   14.294526 -0.410349 -0.467541 -0.021444 0.095337 -0.575480
 37   15.834409 0.579420 -0.284600 -0.051545 0.043118 0.201427
 38   1.139685 -3.453749 -2.823813 0.000000 0.000000 0.000001
 39   -4.457742 -1.054854 -0.746180 0.000000 0.000000 0.000000
 40   1.118101 -3.449769 3.237290 0.000000 0.000001 0.000000
 41   -4.433840 -1.059130 0.959566 -0.000001 0.000000 0.000000
 42   -0.657468 1.697302 -2.688614 0.000000 0.000002 0.000000
 43   -0.664068 1.698578 2.869377 0.000000 0.000002 0.000000
time 7
  0   0.001233 -0.019532 2.285597 0.000000 0.000000 -1.571829
  1   -1.093036 0.000002 -0.326057 -1.570756 -1.570425 -0.000074
  2   2.262337 0.113614 0.064702 0.146276 0.030993 0.065241
  3   2.380047 0.353302 0.047440 -0.043608 -0.001227 0.026343
  4   2.033756 0.190472 -0.000128 0.045156 -0.005021 -0.000895
  5   2.451511 0.204909 -0.003447 0.000000 -0.000005 -0.017472
  6   7.247600 -0.397300 -0.109469 0.000001 0.000009 0.418441
  7   -2.022252 -0.104661 3.136172 -0.298783 -1.361862 -2.901749
  8   1.168026 -0.537438 -0.063437 -1.497298 1.028994 -1.606308
  9   6.790376 -0.619176 0.015206 -1.186701 0.046700 -1.069149
 10   8.637599 0.544015 -0.090417 -1.038024 0.006768 -0.146618
 11   6.790465 -0.619039 0.017802 -0.834537 0.154579 -0.764163
 12   -2.022474 -0.104699 -2.873818 0.298873 1.361712 -2.901984
 13   1.167898 -0.537463 0.063297 1.520087 0.135990 -1.579685
 14   7.002743 -0.617765 -0.183752 0.125196 -0.054831 -0.243887
 15   8.209042 0.615527 -0.255885 1.455405 -0.003468 -0.277300
 16   7.002735 -0.617911 -0.183641 0.101152 -0.039152 -0.188805
 17   1.574674 0.609930 -0.000899 0.243485 0.029237 -0.180267
 18   -0.602177 0.511412 -0.000006 0.000000 0.000000 0.000000
 19   3.673773 0.177020 1.119313 -0.000002 -0.000014 -0.174510
 20   3.673767 0.176993 -1.117566 0.000007 -0.000003 -0.174546
 21   3.942357 1.334540 1.627658 0.000002 -0.000011 -0.000026
 22   -0.246060 -0.011889 0.516521 -0.000011 0.000031 0.000025
 23   3.942374 1.334565 -1.631083 0.000019 0.000002 -0.000024
 24   -0.246150 -0.011872 -0.516511 -0.000005 -0.000006 0.000048
 25   4.941364 1.997338 1.629330 0.000018 -0.000001 -0.000024
 26   4.941382 1.997366 -1.629410 -0.000001 0.000005 -0.000024
 27   2.914462 1.619264 1.514501 -0.000019 -0.000022 -0.000050
 28   2.916892 1.618870 -1.501142 -0.000002 -0.000009 -0.000024
 29   8.824059 0.150544 0.091743 0.000006 -0.000231 -0.174534
 30   2.111085 -0.561179 1.784320 -0.000008 -0.000682 0.000024
 31   2.121290 -0.561289 -1.853599 0.000000 0.000000 -0.000002
 32   -0.814395 -0.093824 3.127092 0.338887 -3.077717 -0.167408
 33   14.298673 -0.408176 0.471578 0.013215 -0.091859 -0.496506
 34   15.835795 0.581398 0.242756 -0.532539 -0.064474 0.362915
 35   -0.815868 -0.091229 -3.114430 -0.002012 2.881638 -0.314978
 36   14.294526 -0.410349 -0.467541 -0.021444 0.095337 -0.575480
 37   15.834409 0.579420 -0.284600 -0.051545 0.043118 0.201427
 38   1.139685 -3.453749 -2.823813 0.000000 0.000000 0.000001
 39   -4.457742 -1.054854 -0.746180 0.000000 0.000000 0.000000
 40   1.118101 -3.449769 3.237290 0.000000 0.000001 0.000000
 41   -4.433840 -1.059130 0.959566 -0.000001 0.000000 0.000000
 42   -0.657468 1.697302 -2.688614 0.000000 0.000002 0.000000
 43   -0.664068 1.698578 2.869377 0.000000 0.000002 0.000000
time 8
  0   0.001233 -0.019532 2.285597 0.000000 0.000000 -1.571829
  1   -1.093036 0.000002 -0.326057 -1.570756 -1.570425 -0.000074
  2   2.262337 0.113614 0.064702 0.147448 0.030957 0.071440
  3   2.380047 0.353302 0.047440 -0.029822 -0.000663 0.036261
  4   2.033756 0.190472 -0.000128 0.051408 -0.005021 -0.001004
  5   2.451511 0.204909 -0.003447 0.000000 -0.000005 -0.017472
  6   7.247600 -0.397300 -0.109469 0.000001 0.000009 0.418441
  7   -2.022252 -0.104661 3.136172 -0.298783 -1.361862 -2.901749
  8   1.168026 -0.537438 -0.063437 -1.508625 1.144012 -1.607510
  9   6.790376 -0.619176 0.015206 -1.184482 -0.012298 -1.127787
 10   8.637599 0.544015 -0.090417 -0.970919 0.013032 -0.096700
 11   6.790465 -0.619039 0.017802 -0.840756 0.119986 -0.813533
 12   -2.022474 -0.104699 -2.873818 0.298873 1.361712 -2.901984
 13   1.167898 -0.537463 0.063297 1.512565 0.155060 -1.536403
 14   7.002743 -0.617765 -0.183752 0.125196 -0.054831 -0.253870
 15   8.209042 0.615527 -0.255885 1.484454 -0.017843 -0.286140
 16   7.002735 -0.617911 -0.183641 0.101058 -0.039265 -0.195814
 17   1.574674 0.609930 -0.000899 0.291012 0.030373 -0.157573
 18   -0.602177 0.511412 -0.000006 0.000000 0.000000 0.000000
 19   3.673773 0.177020 1.119313 -0.000002 -0.000014 -0.174510
 20   3.673767 0.176993 -1.117566 0.000007 -0.000003 -0.174546
 21   3.942357 1.334540 1.627658 0.000002 -0.000011 -0.000026
 22   -0.246060 -0.011889 0.516521 -0.000011 0.000031 0.000025
 23   3.942374 1.334565 -1.631083 0.000019 0.000002 -0.000024
 24   -0.246150 -0.011872 -0.516511 -0.000005 -0.000006 0.000048
 25   4.941364 1.997338 1.629330 0.000018 -0.000001 -0.000024
 26   4.941382 1.997366 -1.629410 -0.000001 0.000005 -0.000024
 27   2.914462 1.619264 1.514501 -0.000019 -0.000022 -0.000050
 28   2.916892 1.618870 -1.501142 -0.000002 -0.000009 -0.000024
 29   8.824059 0.150544 0.091743 0.000006 -0.000231 -0.174534
 30   2.111085 -0.561179 1.784320 -0.000008 -0.000682 0.000024
 31   2.121290 -0.561289 -1.853599 0.000000 0.000000 -0.000002
 32   -0.814395 -0.093824 3.127092 0.338887 -3.077717 -0.167408
 33   14.298673 -0.408176 0.471578 0.013215 -0.091859 -0.496506
 34   15.835795 0.581398 0.242756 -0.532539 -0.064474 0.362915
 35   -0.815868 -0.091229 -3.114430 -0.002012 2.881638 -0.314978
 36   14.294526 -0.410349 -0.467541 -0.021444 0.095337 -0.575480
 37   15.834409 0.579420 -0.284600 -0.051545 0.043118 0.201427
 38   1.139685 -3.453749 -2.823813 0.000000 0.000000 0.000001
 39   -4.457742 -1.054854 -0.746180 0.000000 0.000000 0.000000
 40   1.118101 -3.449769 3.237290 0.000000 0.000001 0.000000
 41   -4.433840 -1.059130 0.959566 -0.000001 0.000000 0.000000
 42   -0.657468 1.697302 -2.688614 0.000000 0.000002 0.000000
 43   -0.664068 1.698578 2.869377 0.000000 0.000002 0.000000
time 9
  0   0.001233 -0.019532 2.285597 0.000000 0.000000 -1.571829
  1   -1.093036 0.000002 -0.326057 -1.570756 -1.570425 -0.000074
  2   2.262337 0.113614 0.064702 0.148760 0.030921 0.077746
  3   2.380047 0.353302 0.047440 -0.016141 -0.000340 0.046218
  4   2.033756 0.190472 -0.000128 0.057605 -0.005021 -0.001004
  5   2.451511 0.204909 -0.003447 0.000000 -0.000005 -0.017472
  6   7.247600 -0.397300 -0.109469 0.000001 0.000009 0.418441
  7   -2.022252 -0.104661 3.136172 -0.298783 -1.361862 -2.901749
  8   1.168026 -0.537438 -0.063437 -1.524572 1.259031 -1.613583
  9   6.790376 -0.619176 0.015206 -1.178712 -0.070496 -1.186576
 10   8.637599 0.544015 -0.090417 -0.903549 0.015848 -0.045842
 11   6.790465 -0.619039 0.017802 -0.844639 0.085307 -0.862557
 12   -2.022474 -0.104699 -2.873818 0.298873 1.361712 -2.901984
 13   1.167898 -0.537463 0.063297 1.505958 0.174080 -1.493060
 14   7.002743 -0.617765 -0.183752 0.125196 -0.054831 -0.263771
 15   8.209042 0.615527 -0.255885 1.513862 -0.031764 -0.295522
 16   7.002735 -0.617911 -0.183641 0.101011 -0.039378 -0.202824
 17   1.574674 0.609930 -0.000899 0.338579 0.030396 -0.134768
 18   -0.602177 0.511412 -0.000006 0.000000 0.000000 0.000000
 19   3.673773 0.177020 1.119313 -0.000002 -0.000014 -0.174510
 20   3.673767 0.176993 -1.117566 0.000007 -0.000003 -0.174546
 21   3.942357 1.334540 1.627658 0.000002 -0.000011 -0.000026
 22   -0.246060 -0.011889 0.516521 -0.000011 0.000031 0.000025
 23   3.942374 1.334565 -1.631083 0.000019 0.000002 -0.000024
 24   -0.246150 -0.011872 -0.516511 -0.000005 -0.000006 0.000048
 25   4.941364 1.997338 1.629330 0.000018 -0.000001 -0.000024
 26   4.941382 1.997366 -1.629410 -0.000001 0.000005 -0.000024
 27   2.914462 1.619264 1.514501 -0.000019 -0.000022 -0.000050
 28   2.916892 1.618870 -1.501142 -0.000002 -0.000009 -0.000024
 29   8.824059 0.150544 0.091743 0.000006 -0.000231 -0.174534
 30   2.111085 -0.561179 1.784320 -0.000008 -0.000682 0.000024
 31   2.121290 -0.561289 -1.853599 0.000000 0.000000 -0.000002
 32   -0.814395 -0.093824 3.127092 0.338887 -3.077717 -0.167408
 33   14.298673 -0.408176 0.471578 0.013215 -0.091859 -0.496506
 34   15.835795 0.581398 0.242756 -0.532539 -0.064474 0.362915
 35   -0.815868 -0.091229 -3.114430 -0.002012 2.881638 -0.314978
 36   14.294526 -0.410349 -0.467541 -0.021444 0.095337 -0.575480
 37   15.834409 0.579420 -0.284600 -0.051545 0.043118 0.201427
 38   1.139685 -3.453749 -2.823813 0.000000 0.000000 0.000001
 39   -4.457742 -1.054854 -0.746180 0.000000 0.000000 0.000000
 40   1.118101 -3.449769 3.237290 0.000000 0.000001 0.000000
 41   -4.433840 -1.059130 0.959566 -0.000001 0.000000 0.000000
 42   -0.657468 1.697302 -2.688614 0.000000 0.000002 0.000000
 43   -0.664068 1.698578 2.869377 0.000000 0.000002 0.000000
time 10
  0   0.001233 -0.019532 2.285597 0.000000 0.000000 -1.571829
  1   -1.093036 0.000002 -0.326057 -1.570756 -1.570425 -0.000074
  2   2.262337 0.113614 0.064702 0.149970 0.030873 0.083963
  3   2.380047 0.353302 0.047440 -0.002370 -0.000124 0.056136
  4   2.033756 0.190472 -0.000128 0.063857 -0.005009 -0.001004
  5   2.451511 0.204909 -0.003447 0.000000 -0.000005 -0.017472
  6   7.247600 -0.397300 -0.109469 0.000001 0.000009 0.418441
  7   -2.022252 -0.104661 3.136172 -0.298783 -1.361862 -2.901749
  8   1.168026 -0.537438 -0.063437 -1.552795 1.373546 -1.632055
  9   6.790376 -0.619176 0.015206 -1.169447 -0.128960 -1.246271
 10   8.637599 0.544015 -0.090417 -0.836532 0.015003 0.004365
 11   6.790465 -0.619039 0.017802 -0.846420 0.050003 -0.911350
 12   -2.022474 -0.104699 -2.873818 0.298873 1.361683 -2.901984
 13   1.167898 -0.537463 0.063297 1.500264 0.193303 -1.449354
 14   7.002743 -0.617765 -0.183752 0.125196 -0.054831 -0.273589
 15   8.209042 0.615527 -0.255885 1.543271 -0.045383 -0.305264
 16   7.002735 -0.617911 -0.183641 0.100963 -0.039434 -0.209557
 17   1.574674 0.609930 -0.000899 0.386066 0.029402 -0.112037
 18   -0.602177 0.511412 -0.000006 0.000000 0.000000 0.000000
 19   3.673773 0.177020 1.119313 -0.000002 -0.000014 -0.174510
 20   3.673767 0.176993 -1.117566 0.000007 -0.000003 -0.174546
 21   3.942357 1.334540 1.627658 0.000002 -0.000011 -0.000026
 22   -0.246060 -0.011889 0.516521 -0.000011 0.000031 0.000025
 23   3.942374 1.334565 -1.631083 0.000019 0.000002 -0.000024
 24   -0.246150 -0.011872 -0.516511 -0.000005 -0.000006 0.000048
 25   4.941364 1.997338 1.629330 0.000018 -0.000001 -0.000024
 26   4.941382 1.997366 -1.629410 -0.000001 0.000005 -0.000024
 27   2.914462 1.619264 1.514501 -0.000019 -0.000022 -0.000050
 28   2.916892 1.618870 -1.501142 -0.000002 -0.000009 -0.000024
 29   8.824059 0.150544 0.091743 0.000006 -0.000231 -0.174534
 30   2.111085 -0.561179 1.784320 -0.000008 -0.000682 0.000024
 31   2.121290 -0.561289 -1.853599 0.000000 0.000000 -0.000002
 32   -0.814395 -0.093824 3.127092 0.338887 -3.077717 -0.167408
 33   14.298673 -0.408176 0.471578 0.013215 -0.091859 -0.496506
 34   15.835795 0.581398 0.242756 -0.532539 -0.064474 0.362915
 35   -0.815868 -0.091229 -3.114430 -0.002012 2.881638 -0.314978
 36   14.294526 -0.410349 -0.467541 -0.021444 0.095337 -0.575480
 37   15.834409 0.579420 -0.284600 -0.051545 0.043118 0.201427
 38   1.139685 -3.453749 -2.823813 0.000000 0.000000 0.000001
 39   -4.457742 -1.054854 -0.746180 0.000000 0.000000 0.000000
 40   1.118101 -3.449769 3.237290 0.000000 0.000001 0.000000
 41   -4.433840 -1.059130 0.959566 -0.000001 0.000000 0.000000
 42   -0.657468 1.697302 -2.688614 0.000000 0.000002 0.000000
 43   -0.664068 1.698578 2.869377 0.000000 0.000002 0.000000
time 11
  0   0.001233 -0.019532 2.285597 0.000000 0.000000 -1.571829
  1   -1.093036 0.000002 -0.326057 -1.570756 -1.570425 -0.000074
  2   2.262337 0.113614 0.064702 0.151193 0.030789 0.090306
  3   2.380047 0.353302 0.047440 0.011116 -0.000040 0.066093
  4   2.033756 0.190472 -0.000128 0.070072 -0.005009 -0.001004
  5   2.451511 0.204909 -0.003447 0.000000 -0.000005 -0.017472
  6   7.247600 -0.397300 -0.109469 0.000001 0.000009 0.418441
  7   -2.022252 -0.104661 3.136172 -0.298783 -1.361862 -2.901749
  8   1.168026 -0.537438 -0.063437 1.495235 1.653193 1.425384
  9   6.790376 -0.619176 0.015206 -1.156576 -0.186690 -1.306871
 10   8.637599 0.544015 -0.090417 -0.769074 0.011061 0.055006
 11   6.790465 -0.619039 0.017802 -0.845924 0.014500 -0.959796
 12   -2.022474 -0.104699 -2.873818 0.298873 1.361712 -2.901984
 13   1.167898 -0.537463 0.063297 1.495273 0.213085 -1.405587
 14   7.002743 -0.617765 -0.183752 0.125196 -0.054831 -0.283737
 15   8.209042 0.615527 -0.255885 1.572751 -0.058926 -0.315427
 16   7.002735 -0.617911 -0.183641 0.100869 -0.039547 -0.216677
 17   1.574674 0.609930 -0.000899 0.433552 0.027272 -0.089380
 18   -0.602177 0.511412 -0.000006 0.000000 0.000000 0.000000
 19   3.673773 0.177020 1.119313 -0.000002 -0.000014 -0.174510
 20   3.673767 0.176993 -1.117566 0.000007 -0.000003 -0.174546
 21   3.942357 1.334540 1.627658 0.000002 -0.000011 -0.000026
 22   -0.246060 -0.011889 0.516521 -0.000011 0.000031 0.000025
 23   3.942374 1.334565 -1.631083 0.000019 0.000002 -0.000024
 24   -0.246150 -0.011872 -0.516511 -0.000005 -0.000006 0.000048
 25   4.941364 1.997338 1.629330 0.000018 -0.000001 -0.000024
 26   4.941382 1.997366 -1.629410 -0.000001 0.000005 -0.000024
 27   2.914462 1.619264 1.514501 -0.000019 -0.000022 -0.000050
 28   2.916892 1.618870 -1.501142 -0.000002 -0.000009 -0.000024
 29   8.824059 0.150544 0.091743 0.000006 -0.000231 -0.174534
 30   2.111085 -0.561179 1.784320 -0.000008 -0.000682 0.000024
 31   2.121290 -0.561289 -1.853599 0.000000 0.000000 -0.000002
 32   -0.814395 -0.093824 3.127092 0.338887 -3.077717 -0.167408
 33   14.298673 -0.408176 0.471578 0.013215 -0.091859 -0.496506
 34   15.835795 0.581398 0.242756 -0.532539 -0.064474 0.362915
 35   -0.815868 -0.091229 -3.114430 -0.002012 2.881638 -0.314978
 36   14.294526 -0.410349 -0.467541 -0.021444 0.095337 -0.575480
 37   15.834409 0.579420 -0.284600 -0.051545 0.043118 0.201427
 38   1.139685 -3.453749 -2.823813 0.000000 0.000000 0.000001
 39   -4.457742 -1.054854 -0.746180 0.000000 0.000000 0.000000
 40   1.118101 -3.449769 3.237290 0.000000 0.000001 0.000000
 41   -4.433840 -1.059130 0.959566 -0.000001 0.000000 0.000000
 42   -0.657468 1.697302 -2.688614 0.000000 0.000002 0.000000
 43   -0.664068 1.698578 2.869377 0.000000 0.000002 0.000000
time 12
  0   0.001233 -0.019532 2.285597 0.000000 0.000000 -1.571829
  1   -1.093036 0.000002 -0.326057 -1.570756 -1.570425 -0.000074
  2   2.262337 0.113614 0.064702 0.152505 0.030729 0.096558
  3   2.380047 0.353302 0.047440 0.024887 -0.000052 0.075990
  4   2.033756 0.190472 -0.000128 0.076324 -0.004997 -0.001149
  5   2.451511 0.204909 -0.003447 0.000000 -0.000005 -0.017472
  6   7.247600 -0.397300 -0.109469 0.000001 0.000009 0.418441
  7   -2.022252 -0.104661 3.136172 -0.298783 -1.361862 -2.901749
  8   1.168026 -0.537438 -0.063437 -1.141725 1.606350 -1.202264
  9   6.790376 -0.619176 0.015206 -1.139876 -0.243486 -1.369057
 10   8.637599 0.544015 -0.090417 -0.702233 0.003670 0.105357
 11   6.790465 -0.619039 0.017802 -0.843180 -0.021003 -1.008416
 12   -2.022474 -0.104699 -2.873818 0.298873 1.361712 -2.901984
 13   1.167898 -0.537463 0.063297 1.491055 0.233020 -1.362184
 14   7.002743 -0.617765 -0.183752 0.125196 -0.054831 -0.293638
 15   8.209042 0.615527 -0.255885 1.602519 -0.072015 -0.325891
 16   7.002735 -0.617911 -0.183641 0.100822 -0.039604 -0.223742
 17   1.574674 0.609930 -0.000899 0.480917 0.024125 -0.066796
 18   -0.602177 0.511412 -0.000006 0.000000 0.000000 0.000000
 19   3.673773 0.177020 1.119313 -0.000002 -0.000014 -0.174510
 20   3.673767 0.176993 -1.117566 0.000007 -0.000003 -0.174546
 21   3.942357 1.334540 1.627658 0.000002 -0.000011 -0.000026
 22   -0.246060 -0.011889 0.516521 -0.000011 0.000031 0.000025
 23   3.942374 1.334565 -1.631083 0.000019 0.000002 -0.000024
 24   -0.246150 -0.011872 -0.516511 -0.000005 -0.000006 0.000048
 25   4.941364 1.997338 1.629330 0.000018 -0.000001 -0.000024
 26   4.941382 1.997366 -1.629410 -0.000001 0.000005 -0.000024
 27   2.914462 1.619264 1.514501 -0.000019 -0.000022 -0.000050
 28   2.916892 1.618870 -1.501142 -0.000002 -0.000009 -0.000024
 29   8.824059 0.150544 0.091743 0.000006 -0.000231 -0.174534
 30   2.111085 -0.561179 1.784320 -0.000008 -0.000682 0.000024
 31   2.121290 -0.561289 -1.853599 0.000000 0.000000 -0.000002
 32   -0.814395 -0.093824 3.127092 0.338887 -3.077717 -0.167408
 33   14.298673 -0.408176 0.471578 0.013215 -0.091859 -0.496506
 34   15.835795 0.581398 0.242756 -0.532539 -0.064474 0.362915
 35   -0.815868 -0.091229 -3.114430 -0.002012 2.881638 -0.314978
 36   14.294526 -0.410349 -0.467541 -0.021444 0.095337 -0.575480
 37   15.834409 0.579420 -0.284600 -0.051545 0.043118 0.201427
 38   1.139685 -3.453749 -2.823813 0.000000 0.000000 0.000001
 39   -4.457742 -1.054854 -0.746180 0.000000 0.000000 0.000000
 40   1.118101 -3.449769 3.237290 0.000000 0.000001 0.000000
 41   -4.433840 -1.059130 0.959566 -0.000001 0.000000 0.000000
 42   -0.657468 1.697302 -2.688614 0.000000 0.000002 0.000000
 43   -0.664068 1.698578 2.869377 0.000000 0.000002 0.000000
time 13
  0   0.001233 -0.019532 2.285597 0.000000 0.000000 -1.571829
  1   -1.093036 0.000002 -0.326057 -1.570756 -1.570425 -0.000074
  2   2.262337 0.113614 0.064702 0.153715 0.030657 0.102829
  3   2.380047 0.353302 0.047440 0.038613 -0.000172 0.085968
  4   2.033756 0.190472 -0.000128 0.082557 -0.004997 -0.001149
  5   2.451511 0.204909 -0.003447 0.000000 -0.000005 -0.017472
  6   7.247600 -0.397300 -0.109469 0.000001 0.000009 0.418441
  7   -2.022252 -0.104661 3.136172 -0.298783 -1.361862 -2.901749
  8   1.168026 -0.537438 -0.063437 -1.420475 1.719356 -1.471374
  9   6.790376 -0.619176 0.015206 -1.119460 -0.299014 -1.433128
 10   8.637599 0.544015 -0.090417 -0.635656 -0.006818 0.154696
 11   6.790465 -0.619039 0.017802 -0.838245 -0.056307 -1.056921
 12   -2.022474 -0.104699 -2.873818 0.298873 1.361712 -2.901984
 13   1.167898 -0.537463 0.063297 1.488032 0.252955 -1.318296
 14   7.002743 -0.617765 -0.183752 0.125196 -0.054831 -0.303786
 15   8.209042 0.615527 -0.255885 1.631927 -0.084877 -0.336836
 16   7.002735 -0.617911 -0.183641 0.100775 -0.039716 -0.230696
 17   1.574674 0.609930 -0.000899 0.528322 0.019817 -0.044361
 18   -0.602177 0.511412 -0.000006 0.000000 0.000000 0.000000
 19   3.673773 0.177020 1.119313 -0.000002 -0.000014 -0.174510
 20   3.673767 0.176993 -1.117566 0.000007 -0.000003 -0.174546
 21   3.942357 1.334540 1.627658 0.000002 -0.000011 -0.000026
 22   -0.246060 -0.011889 0.516521 -0.000011 0.000031 0.000025
 23   3.942374 1.334565 -1.631083 0.000019 0.000002 -0.000024
 24   -0.246150 -0.011872 -0.516511 -0.000005 -0.000006 0.000048
 25   4.941364 1.997338 1.629330 0.000018 -0.000001 -0.000024
 26   4.941382 1.997366 -1.629410 -0.000001 0.000005 -0.000024
 27   2.914462 1.619264 1.514501 -0.000019 -0.000022 -0.000050
 28   2.916892 1.618870 -1.501142 -0.000002 -0.000009 -0.000024
 29   8.824059 0.150544 0.091743 0.000006 -0.000231 -0.174534
 30   2.111085 -0.561179 1.784320 -0.000008 -0.000682 0.000024
 31   2.121290 -0.561289 -1.853599 0.000000 0.000000 -0.000002
 32   -0.814395 -0.093824 3.127092 0.338887 -3.077717 -0.167408
 33   14.298673 -0.408176 0.471578 0.013215 -0.091859 -0.496506
 34   15.835795 0.581398 0.242756 -0.532539 -0.064474 0.362915
 35   -0.815868 -0.091229 -3.114430 -0.002012 2.881638 -0.314978
 36   14.294526 -0.410349 -0.467541 -0.021444 0.095337 -0.575480
 37   15.834409 0.579420 -0.284600 -0.051545 0.043118 0.201427
 38   1.139685 -3.453749 -2.823813 0.000000 0.000000 0.000001
 39   -4.457742 -1.054854 -0.746180 0.000000 0.000000 0.000000
 40   1.118101 -3.449769 3.237290 0.000000 0.000001 0.000000
 41   -4.433840 -1.059130 0.959566 -0.000001 0.000000 0.000000
 42   -0.657468 1.697302 -2.688614 0.000000 0.000002 0.000000
 43   -0.664068 1.698578 2.869377 0.000000 0.000002 0.000000
time 14
  0   0.001233 -0.019532 2.285597 0.000000 0.000000 -1.571829
  1   -1.093036 0.000002 -0.326057 -1.570756 -1.570425 -0.000074
  2   2.262337 0.113614 0.064702 0.154976 0.030621 0.109063
  3   2.380047 0.353302 0.047440 0.052294 -0.000400 0.095865
  4   2.033756 0.190472 -0.000128 0.088773 -0.004985 -0.001185
  5   2.451511 0.204909 -0.003447 0.000000 -0.000005 -0.017472
  6   7.247600 -0.397300 -0.109469 0.000001 0.000009 0.418441
  7   -2.022252 -0.104661 3.136172 -0.298783 -1.361862 -2.901749
  8   1.168026 -0.537438 -0.063437 1.679192 1.306930 1.637812
  9   6.790376 -0.619176 0.015206 -1.094827 -0.353407 -1.499691
 10   8.637599 0.544015 -0.090417 -0.570048 -0.020896 0.203673
 11   6.790465 -0.619039 0.017802 -0.831005 -0.091668 -1.105829
 12   -2.022474 -0.104699 -2.873818 0.298873 1.361712 -2.901984
 13   1.167898 -0.537463 0.063297 1.485712 0.273093 -1.274348
 14   7.002743 -0.617765 -0.183752 0.125196 -0.054831 -0.313604
 15   8.209042 0.615527 -0.255885 1.662054 -0.097361 -0.348262
 16   7.002735 -0.617911 -0.183641 0.100728 -0.039773 -0.237595
 17   1.574674 0.609930 -0.000899 0.575605 0.014563 -0.022332
 18   -0.602177 0.511412 -0.000006 0.000000 0.000000 0.000000
 19   3.673773 0.177020 1.119313 -0.000002 -0.000014 -0.174510
 20   3.673767 0.176993 -1.117566 0.000007 -0.000003 -0.174546
 21   3.942357 1.334540 1.627658 0.000002 -0.000011 -0.000026
 22   -0.246060 -0.011889 0.516521 -0.000011 0.000031 0.000025
 23   3.942374 1.334565 -1.631083 0.000019 0.000002 -0.000024
 24   -0.246150 -0.011872 -0.516511 -0.000005 -0.000006 0.000048
 25   4.941364 1.997338 1.629330 0.000018 -0.000001 -0.000024
 26   4.941382 1.997366 -1.629410 -0.000001 0.000005 -0.000024
 27   2.914462 1.619264 1.514501 -0.000019 -0.000022 -0.000050
 28   2.916892 1.618870 -1.501142 -0.000002 -0.000009 -0.000024
 29   8.824059 0.150544 0.091743 0.000006 -0.000231 -0.174534
 30   2.111085 -0.561179 1.784320 -0.000008 -0.000682 0.000024
 31   2.121290 -0.561289 -1.853599 0.000000 0.000000 -0.000002
 32   -0.814395 -0.093824 3.127092 0.338887 -3.077717 -0.167408
 33   14.298673 -0.408176 0.471578 0.013215 -0.091859 -0.496506
 34   15.835795 0.581398 0.242756 -0.532539 -0.064474 0.362915
 35   -0.815868 -0.091229 -3.114430 -0.002012 2.881638 -0.314978
 36   14.294526 -0.410349 -0.467541 -0.021444 0.095337 -0.575480
 37   15.834409 0.579420 -0.284600 -0.051545 0.043118 0.201427
 38   1.139685 -3.453749 -2.823813 0.000000 0.000000 0.000001
 39   -4.457742 -1.054854 -0.746180 0.000000 0.000000 0.000000
 40   1.118101 -3.449769 3.237290 0.000000 0.000001 0.000000
 41   -4.433840 -1.059130 0.959566 -0.000001 0.000000 0.000000
 42   -0.657468 1.697302 -2.688614 0.000000 0.000002 0.000000
 43   -0.664068 1.698578 2.869377 0.000000 0.000002 0.000000
time 15
  0   0.001233 -0.019532 2.285597 0.000000 0.000000 -1.571829
  1   -1.093036 0.000002 -0.326057 -1.570756 -1.570425 -0.000074
  2   2.262337 0.113614 0.064702 0.153766 0.030657 0.103226
  3   2.380047 0.353302 0.047440 0.039483 -0.000196 0.086662
  4   2.033756 0.190472 -0.000128 0.082982 -0.004997 -0.001149
  5   2.451511 0.204909 -0.003447 0.000000 -0.000005 -0.017472
  6   7.247600 -0.397300 -0.109469 0.000001 0.000009 0.418441
  7   -2.022252 -0.104661 3.136172 -0.298783 -1.361862 -2.901749
  8   1.168026 -0.537438 -0.063437 -1.383772 1.712463 -1.438668
  9   6.790376 -0.619176 0.015206 -1.104258 -0.328380 -1.410186
 10   8.637599 0.544015 -0.090417 -0.567406 -0.008648 0.184574
 11   6.790465 -0.619039 0.017802 -0.829311 -0.082885 -1.041695
 12   -2.022474 -0.104699 -2.873818 0.298873 1.361712 -2.901984
 13   1.167898 -0.537463 0.063297 1.489649 0.254786 -1.300983
 14   7.002743 -0.617765 -0.183752 0.125196 -0.054831 -0.304281
 15   8.209042 0.615527 -0.255885 1.636313 -0.093427 -0.339001
 16   7.002735 -0.617911 -0.183641 0.100775 -0.039716 -0.231027
 17   1.574674 0.609930 -0.000899 0.531450 0.019533 -0.042994
 18   -0.602177 0.511412 -0.000006 0.000000 0.000000 0.000000
 19   3.673773 0.177020 1.119313 -0.000002 -0.000014 -0.174510
 20   3.673767 0.176993 -1.117566 0.000007 -0.000003 -0.174546
 21   3.942357 1.334540 1.627658 0.000002 -0.000011 -0.000026
 22   -0.246060 -0.011889 0.516521 -0.000011 0.000031 0.000025
 23   3.942374 1.334565 -1.631083 0.000019 0.000002 -0.000024
 24   -0.246150 -0.011872 -0.516511 -0.000005 -0.000006 0.000048
 25   4.941364 1.997338 1.629330 0.000018 -0.000001 -0.000024
 26   4.941382 1.997366 -1.629410 -0.000001 0.000005 -0.000024
 27   2.914462 1.619264 1.514501 -0.000019 -0.000022 -0.000050
 28   2.916892 1.618870 -1.501142 -0.000002 -0.000009 -0.000024
 29   8.824059 0.150544 0.091743 0.000006 -0.000231 -0.174534
 30   2.111085 -0.561179 1.784320 -0.000008 -0.000682 0.000024
 31   2.121290 -0.561289 -1.853599 0.000000 0.000000 -0.000002
 32   -0.814395 -0.093824 3.127092 0.338887 -3.077717 -0.167408
 33   14.298673 -0.408176 0.471578 0.013215 -0.091859 -0.496506
 34   15.835795 0.581398 0.242756 -0.532539 -0.064474 0.362915
 35   -0.815868 -0.091229 -3.114430 -0.002012 2.881638 -0.314978
 36   14.294526 -0.410349 -0.467541 -0.021444 0.095337 -0.575480
 37   15.834409 0.579420 -0.284600 -0.051545 0.043118 0.201427
 38   1.139685 -3.453749 -2.823813 0.000000 0.000000 0.000001
 39   -4.457742 -1.054854 -0.746180 0.000000 0.000000 0.000000
 40   1.118101 -3.449769 3.237290 0.000000 0.000001 0.000000
 41   -4.433840 -1.059130 0.959566 -0.000001 0.000000 0.000000
 42   -0.657468 1.697302 -2.688614 0.000000 0.000002 0.000000
 43   -0.664068 1.698578 2.869377 0.000000 0.000002 0.000000
time 16
  0   0.001233 -0.019532 2.285597 0.000000 0.000000 -1.571829
  1   -1.093036 0.000002 -0.326057 -1.570756 -1.570425 -0.000074
  2   2.262337 0.113614 0.064702 0.152683 0.030717 0.097444
  3   2.380047 0.353302 0.047440 0.026717 -0.000064 0.077357
  4   2.033756 0.190472 -0.000128 0.077154 -0.004997 -0.001149
  5   2.451511 0.204909 -0.003447 0.000000 -0.000005 -0.017472
  6   7.247600 -0.397300 -0.109469 0.000001 0.000009 0.418441
  7   -2.022252 -0.104661 3.136172 -0.298783 -1.361862 -2.901749
  8   1.168026 -0.537438 -0.063437 -0.643328 1.598803 -0.711869
  9   6.790376 -0.619176 0.015206 -1.111304 -0.302551 -1.321738
 10   8.637599 0.544015 -0.090417 -0.565380 0.003670 0.165620
 11   6.790465 -0.619039 0.017802 -0.826508 -0.074016 -0.977849
 12   -2.022474 -0.104699 -2.873818 0.298873 1.361712 -2.901984
 13   1.167898 -0.537463 0.063297 1.494148 0.236631 -1.327679
 14   7.002743 -0.617765 -0.183752 0.125196 -0.054831 -0.294958
 15   8.209042 0.615527 -0.255885 1.610500 -0.089266 -0.330101
 16   7.002735 -0.617911 -0.183641 0.100822 -0.039660 -0.224515
 17   1.574674 0.609930 -0.000899 0.487335 0.023580 -0.063803
 18   -0.602177 0.511412 -0.000006 0.000000 0.000000 0.000000
 19   3.673773 0.177020 1.119313 -0.000002 -0.000014 -0.174510
 20   3.673767 0.176993 -1.117566 0.000007 -0.000003 -0.174546
 21   3.942357 1.334540 1.627658 0.000002 -0.000011 -0.000026
 22   -0.246060 -0.011889 0.516521 -0.000011 0.000031 0.000025
 23   3.942374 1.334565 -1.631083 0.000019 0.000002 -0.000024
 24   -0.246150 -0.011872 -0.516511 -0.000005 -0.000006 0.000048
 25   4.941364 1.997338 1.629330 0.000018 -0.000001 -0.000024
 26   4.941382 1.997366 -1.629410 -0.000001 0.000005 -0.000024
 27   2.914462 1.619264 1.514501 -0.000019 -0.000022 -0.000050
 28   2.916892 1.618870 -1.501142 -0.000002 -0.000009 -0.000024
 29   8.824059 0.150544 0.091743 0.000006 -0.000231 -0.174534
 30   2.111085 -0.561179 1.784320 -0.000008 -0.000682 0.000024
 31   2.121290 -0.561289 -1.853599 0.000000 0.000000 -0.000002
 32   -0.814395 -0.093824 3.127092 0.338887 -3.077717 -0.167408
 33   14.298673 -0.408176 0.471578 0.013215 -0.091859 -0.496506
 34   15.835795 0.581398 0.242756 -0.532539 -0.064474 0.362915
 35   -0.815868 -0.091229 -3.114430 -0.002012 2.881638 -0.314978
 36   14.294526 -0.410349 -0.467541 -0.021444 0.095337 -0.575480
 37   15.834409 0.579420 -0.284600 -0.051545 0.043118 0.201427
 38   1.139685 -3.453749 -2.823813 0.000000 0.000000 0.000001
 39   -4.457742 -1.054854 -0.746180 0.000000 0.000000 0.000000
 40   1.118101 -3.449769 3.237290 0.000000 0.000001 0.000000
 41   -4.433840 -1.059130 0.959566 -0.000001 0.000000 0.000000
 42   -0.657468 1.697302 -2.688614 0.000000 0.000002 0.000000
 43   -0.664068 1.698578 2.869377 0.000000 0.000002 0.000000
time 17
  0   0.001233 -0.019532 2.285597 0.000000 0.000000 -1.571829
  1   -1.093036 0.000002 -0.326057 -1.570756 -1.570425 -0.000074
  2   2.262337 0.113614 0.064702 0.151473 0.030777 0.091553
  3   2.380047 0.353302 0.047440 0.013861 -0.000028 0.068093
  4   2.033756 0.190472 -0.000128 0.071326 -0.005009 -0.001149
  5   2.451511 0.204909 -0.003447 0.000000 -0.000005 -0.017472
  6   7.247600 -0.397300 -0.109469 0.000001 0.000009 0.418441
  7   -2.022252 -0.104661 3.136172 -0.298783 -1.361862 -2.901749
  8   1.168026 -0.537438 -0.063437 1.414046 1.677847 1.332138
  9   6.790376 -0.619176 0.015206 -1.115909 -0.276389 -1.234045
 10   8.637599 0.544015 -0.090417 -0.562914 0.015989 0.146521
 11   6.790465 -0.619039 0.017802 -0.822684 -0.065233 -0.914118
 12   -2.022474 -0.104699 -2.873818 0.298873 1.361683 -2.901984
 13   1.167898 -0.537463 0.063297 1.499069 0.218526 -1.354193
 14   7.002743 -0.617765 -0.183752 0.125196 -0.054831 -0.285717
 15   8.209042 0.615527 -0.255885 1.585406 -0.084877 -0.321140
 16   7.002735 -0.617911 -0.183641 0.100869 -0.039547 -0.218112
 17   1.574674 0.609930 -0.000899 0.443057 0.026752 -0.084797
 18   -0.602177 0.511412 -0.000006 0.000000 0.000000 0.000000
 19   3.673773 0.177020 1.119313 -0.000002 -0.000014 -0.174510
 20   3.673767 0.176993 -1.117566 0.000007 -0.000003 -0.174546
 21   3.942357 1.334540 1.627658 0.000002 -0.000011 -0.000026
 22   -0.246060 -0.011889 0.516521 -0.000011 0.000031 0.000025
 23   3.942374 1.334565 -1.631083 0.000019 0.000002 -0.000024
 24   -0.246150 -0.011872 -0.516511 -0.000005 -0.000006 0.000048
 25   4.941364 1.997338 1.629330 0.000018 -0.000001 -0.000024
 26   4.941382 1.997366 -1.629410 -0.000001 0.000005 -0.000024
 27   2.914462 1.619264 1.514501 -0.000019 -0.000022 -0.000050
 28   2.916892 1.618870 -1.501142 -0.000002 -0.000009 -0.000024
 29   8.824059 0.150544 0.091743 0.000006 -0.000231 -0.174534
 30   2.111085 -0.561179 1.784320 -0.000008 -0.000682 0.000024
 31   2.121290 -0.561289 -1.853599 0.000000 0.000000 -0.000002
 32   -0.814395 -0.093824 3.127092 0.338887 -3.077717 -0.167408
 33   14.298673 -0.408176 0.471578 0.013215 -0.091859 -0.496506
 34   15.835795 0.581398 0.242756 -0.532539 -0.064474 0.362915
 35   -0.815868 -0.091229 -3.114430 -0.002012 2.881638 -0.314978
 36   14.294526 -0.410349 -0.467541 -0.021444 0.095337 -0.575480
 37   15.834409 0.579420 -0.284600 -0.051545 0.043118 0.201427
 38   1.139685 -3.453749 -2.823813 0.000000 0.000000 0.000001
 39   -4.457742 -1.054854 -0.746180 0.000000 0.000000 0.000000
 40   1.118101 -3.449769 3.237290 0.000000 0.000001 0.000000
 41   -4.433840 -1.059130 0.959566 -0.000001 0.000000 0.000000
 42   -0.657468 1.697302 -2.688614 0.000000 0.000002 0.000000
 43   -0.664068 1.698578 2.869377 0.000000 0.000002 0.000000
time 18
  0   0.001233 -0.019532 2.285597 0.000000 0.000000 -1.571829
  1   -1.093036 0.000002 -0.326057 -1.570756 -1.570425 -0.000074
  2   2.262337 0.113614 0.064702 0.150314 0.030861 0.085716
  3   2.380047 0.353302 0.047440 0.000975 -0.000076 0.058788
  4   2.033756 0.190472 -0.000128 0.065516 -0.005009 -0.001004
  5   2.451511 0.204909 -0.003447 0.000000 -0.000005 -0.017472
  6   7.247600 -0.397300 -0.109469 0.000001 0.000009 0.418441
  7   -2.022252 -0.104661 3.136172 -0.298783 -1.361862 -2.901749
  8   1.168026 -0.537438 -0.063437 -1.611266 1.341999 -1.706576
  9   6.790376 -0.619176 0.015206 -1.118017 -0.249893 -1.147333
 10   8.637599 0.544015 -0.090417 -0.561065 0.028237 0.127856
 11   6.790465 -0.619039 0.017802 -0.817750 -0.056478 -0.850560
 12   -2.022474 -0.104699 -2.873818 0.298873 1.361712 -2.901984
 13   1.167898 -0.537463 0.063297 1.504481 0.200575 -1.380889
 14   7.002743 -0.617765 -0.183752 0.125196 -0.054831 -0.276394
 15   8.209042 0.615527 -0.255885 1.559808 -0.080338 -0.312540
 16   7.002735 -0.617911 -0.183641 0.100916 -0.039434 -0.211599
 17   1.574674 0.609930 -0.000899 0.398740 0.028953 -0.106012
 18   -0.602177 0.511412 -0.000006 0.000000 0.000000 0.000000
 19   3.673773 0.177020 1.119313 -0.000002 -0.000014 -0.174510
 20   3.673767 0.176993 -1.117566 0.000007 -0.000003 -0.174546
 21   3.942357 1.334540 1.627658 0.000002 -0.000011 -0.000026
 22   -0.246060 -0.011889 0.516521 -0.000011 0.000031 0.000025
 23   3.942374 1.334565 -1.631083 0.000019 0.000002 -0.000024
 24   -0.246150 -0.011872 -0.516511 -0.000005 -0.000006 0.000048
 25   4.941364 1.997338 1.629330 0.000018 -0.000001 -0.000024
 26   4.941382 1.997366 -1.629410 -0.000001 0.000005 -0.000024
 27   2.914462 1.619264 1.514501 -0.000019 -0.000022 -0.000050
 28   2.916892 1.618870 -1.501142 -0.000002 -0.000009 -0.000024
 29   8.824059 0.150544 0.091743 0.000006 -0.000231 -0.174534
 30   2.111085 -0.561179 1.784320 -0.000008 -0.000682 0.000024
 31   2.121290 -0.561289 -1.853599 0.000000 0.000000 -0.000002
 32   -0.814395 -0.093824 3.127092 0.338887 -3.077717 -0.167408
 33   14.298673 -0.408176 0.471578 0.013215 -0.091859 -0.496506
 34   15.835795 0.581398 0.242756 -0.532539 -0.064474 0.362915
 35   -0.815868 -0.091229 -3.114430 -0.002012 2.881638 -0.314978
 36   14.294526 -0.410349 -0.467541 -0.021444 0.095337 -0.575480
 37   15.834409 0.579420 -0.284600 -0.051545 0.043118 0.201427
 38   1.139685 -3.453749 -2.823813 0.000000 0.000000 0.000001
 39   -4.457742 -1.054854 -0.746180 0.000000 0.000000 0.000000
 40   1.118101 -3.449769 3.237290 0.000000 0.000001 0.000000
 41   -4.433840 -1.059130 0.959566 -0.000001 0.000000 0.000000
 42   -0.657468 1.697302 -2.688614 0.000000 0.000002 0.000000
 43   -0.664068 1.698578 2.869377 0.000000 0.000002 0.000000
time 19
  0   0.001233 -0.019532 2.285597 0.000000 0.000000 -1.571829
  1   -1.093036 0.000002 -0.326057 -1.570756 -1.570425 -0.000074
  2   2.262337 0.113614 0.064702 0.149104 0.030909 0.079861
  3   2.380047 0.353302 0.047440 -0.011596 -0.000256 0.049483
  4   2.033756 0.190472 -0.000128 0.059689 -0.005009 -0.001004
  5   2.451511 0.204909 -0.003447 0.000000 -0.000005 -0.017472
  6   7.247600 -0.397300 -0.109469 0.000001 0.000009 0.418441
  7   -2.022252 -0.104661 3.136172 -0.298783 -1.361862 -2.901749
  8   1.168026 -0.537438 -0.063437 -1.571019 1.219987 -1.679943
  9   6.790376 -0.619176 0.015206 -1.117906 -0.223397 -1.061074
 10   8.637599 0.544015 -0.090417 -0.559656 0.040766 0.108757
 11   6.790465 -0.619039 0.017802 -0.811823 -0.047922 -0.787175
 12   -2.022474 -0.104699 -2.873818 0.298873 1.361712 -2.901984
 13   1.167898 -0.537463 0.063297 1.510175 0.182725 -1.407464
 14   7.002743 -0.617765 -0.183752 0.125196 -0.054831 -0.267071
 15   8.209042 0.615527 -0.255885 1.534426 -0.075571 -0.303941
 16   7.002735 -0.617911 -0.183641 0.100963 -0.039378 -0.205142
 17   1.574674 0.609930 -0.000899 0.354381 0.030183 -0.127080
 18   -0.602177 0.511412 -0.000006 0.000000 0.000000 0.000000
 19   3.673773 0.177020 1.119313 -0.000002 -0.000014 -0.174510
 20   3.673767 0.176993 -1.117566 0.000007 -0.000003 -0.174546
 21   3.942357 1.334540 1.627658 0.000002 -0.000011 -0.000026
 22   -0.246060 -0.011889 0.516521 -0.000011 0.000031 0.000025
 23   3.942374 1.334565 -1.631083 0.000019 0.000002 -0.000024
 24   -0.246150 -0.011872 -0.516511 -0.000005 -0.000006 0.000048
 25   4.941364 1.997338 1.629330 0.000018 -0.000001 -0.000024
 26   4.941382 1.997366 -1.629410 -0.000001 0.000005 -0.000024
 27   2.914462 1.619264 1.514501 -0.000019 -0.000022 -0.000050
 28   2.916892 1.618870 -1.501142 -0.000002 -0.000009 -0.000024
 29   8.824059 0.150544 0.091743 0.000006 -0.000231 -0.174534
 30   2.111085 -0.561179 1.784320 -0.000008 -0.000682 0.000024
 31   2.121290 -0.561289 -1.853599 0.000000 0.000000 -0.000002
 32   -0.814395 -0.093824 3.127092 0.338887 -3.077717 -0.167408
 33   14.298673 -0.408176 0.471578 0.013215 -0.091859 -0.496506
 34   15.835795 0.581398 0.242756 -0.532539 -0.064474 0.362915
 35   -0.815868 -0.091229 -3.114430 -0.002012 2.881638 -0.314978
 36   14.294526 -0.410349 -0.467541 -0.021444 0.095337 -0.575480
 37   15.834409 0.579420 -0.284600 -0.051545 0.043118 0.201427
 38   1.139685 -3.453749 -2.823813 0.000000 0.000000 0.000001
 39   -4.457742 -1.054854 -0.746180 0.000000 0.000000 0.000000
 40   1.118101 -3.449769 3.237290 0.000000 0.000001 0.000000
 41   -4.433840 -1.059130 0.959566 -0.000001 0.000000 0.000000
 42   -0.657468 1.697302 -2.688614 0.000000 0.000002 0.000000
 43   -0.664068 1.698578 2.869377 0.000000 0.000002 0.000000
time 20
  0   0.001233 -0.019532 2.285597 0.000000 0.000000 -1.571829
  1   -1.093036 0.000002 -0.326057 -1.570756 -1.570425 -0.000074
  2   2.262337 0.113614 0.064702 0.148034 0.030945 0.073970
  3   2.380047 0.353302 0.047440 -0.024407 -0.000495 0.040219
  4   2.033756 0.190472 -0.000128 0.053861 -0.005021 -0.001004
  5   2.451511 0.204909 -0.003447 0.000000 -0.000005 -0.017472
  6   7.247600 -0.397300 -0.109469 0.000001 0.000009 0.418441
  7   -2.022252 -0.104661 3.136172 -0.298783 -1.361862 -2.901749
  8   1.168026 -0.537438 -0.063437 -1.547795 1.097975 -1.670707
  9   6.790376 -0.619176 0.015206 -1.115299 -0.196968 -0.975343
 10   8.637599 0.544015 -0.090417 -0.557983 0.053084 0.089803
 11   6.790465 -0.619039 0.017802 -0.804845 -0.039678 -0.723791
 12   -2.022474 -0.104699 -2.873818 0.298873 1.361712 -2.901984
 13   1.167898 -0.537463 0.063297 1.516572 0.165027 -1.434099
 14   7.002743 -0.617765 -0.183752 0.125196 -0.054831 -0.257748
 15   8.209042 0.615527 -0.255885 1.508685 -0.070502 -0.295522
 16   7.002735 -0.617911 -0.183641 0.101011 -0.039322 -0.198574
 17   1.574674 0.609930 -0.000899 0.310022 0.030515 -0.148480
 18   -0.602177 0.511412 -0.000006 0.000000 0.000000 0.000000
 19   3.673773 0.177020 1.119313 -0.000002 -0.000014 -0.174510
 20   3.673767 0.176993 -1.117566 0.000007 -0.000003 -0.174546
 21   3.942357 1.334540 1.627658 0.000002 -0.000011 -0.000026
 22   -0.246060 -0.011889 0.516521 -0.000011 0.000031 0.000025
 23   3.942374 1.334565 -1.631083 0.000019 0.000002 -0.000024
 24   -0.246150 -0.011872 -0.516511 -0.000005 -0.000006 0.000048
 25   4.941364 1.997338 1.629330 0.000018 -0.000001 -0.000024
 26   4.941382 1.997366 -1.629410 -0.000001 0.000005 -0.000024
 27   2.914462 1.619264 1.514501 -0.000019 -0.000022 -0.000050
 28   2.916892 1.618870 -1.501142 -0.000002 -0.000009 -0.000024
 29   8.824059 0.150544 0.091743 0.000006 -0.000231 -0.174534
 30   2.111085 -0.561179 1.784320 -0.000008 -0.000682 0.000024
 31   2.121290 -0.561289 -1.853599 0.000000 0.000000 -0.000002
 32   -0.814395 -0.093824 3.127092 0.338887 -3.077717 -0.167408
 33   14.298673 -0.408176 0.471578 0.013215 -0.091859 -0.496506
 34   15.835795 0.581398 0.242756 -0.532539 -0.064474 0.362915
 35   -0.815868 -0.091229 -3.114430 -0.002012 2.881638 -0.314978
 36   14.294526 -0.410349 -0.467541 -0.021444 0.095337 -0.575480
 37   15.834409 0.579420 -0.284600 -0.051545 0.043118 0.201427
 38   1.139685 -3.453749 -2.823813 0.000000 0.000000 0.000001
 39   -4.457742 -1.054854 -0.746180 0.000000 0.000000 0.000000
 40   1.118101 -3.449769 3.237290 0.000000 0.000001 0.000000
 41   -4.433840 -1.059130 0.959566 -0.000001 0.000000 0.000000
 42   -0.657468 1.697302 -2.688614 0.000000 0.000002 0.000000
 43   -0.664068 1.698578 2.869377 0.000000 0.000002 0.000000
time 21
  0   0.001233 -0.019532 2.285597 0.000000 0.000000 -1.571829
  1   -1.093036 0.000002 -0.326057 -1.570756 -1.570425 -0.000074
  2   2.262337 0.113614 0.064702 0.146824 0.030969 0.068115
  3   2.380047 0.353302 0.047440 -0.037187 -0.000999 0.030975
  4   2.033756 0.190472 -0.000128 0.048070 -0.005021 -0.000895
  5   2.451511 0.204909 -0.003447 0.000000 -0.000005 -0.017472
  6   7.247600 -0.397300 -0.109469 0.000001 0.000009 0.418441
  7   -2.022252 -0.104661 3.136172 -0.298783 -1.361862 -2.901749
  8   1.168026 -0.537438 -0.063437 -1.530900 0.975661 -1.668240
  9   6.790376 -0.619176 0.015206 -1.110528 -0.170873 -0.889914
 10   8.637599 0.544015 -0.090417 -0.556926 0.065332 0.070921
 11   6.790465 -0.619039 0.017802 -0.796903 -0.031975 -0.660406
 12   -2.022474 -0.104699 -2.873818 0.298873 1.361712 -2.901984
 13   1.167898 -0.537463 0.063297 1.523391 0.147635 -1.460795
 14   7.002743 -0.617765 -0.183752 0.125196 -0.054831 -0.248425
 15   8.209042 0.615527 -0.255885 1.483447 -0.065206 -0.287102
 16   7.002735 -0.617911 -0.183641 0.101105 -0.039265 -0.192061
 17   1.574674 0.609930 -0.000899 0.265664 0.029899 -0.169733
 18   -0.602177 0.511412 -0.000006 0.000000 0.000000 0.000000
 19   3.673773 0.177020 1.119313 -0.000002 -0.000014 -0.174510
 20   3.673767 0.176993 -1.117566 0.000007 -0.000003 -0.174546
 21   3.942357 1.334540 1.627658 0.000002 -0.000011 -0.000026
 22   -0.246060 -0.011889 0.516521 -0.000011 0.000031 0.000025
 23   3.942374 1.334565 -1.631083 0.000019 0.000002 -0.000024
 24   -0.246150 -0.011872 -0.516511 -0.000005 -0.000006 0.000048
 25   4.941364 1.997338 1.629330 0.000018 -0.000001 -0.000024
 26   4.941382 1.997366 -1.629410 -0.000001 0.000005 -0.000024
 27   2.914462 1.619264 1.514501 -0.000019 -0.000022 -0.000050
 28   2.916892 1.618870 -1.501142 -0.000002 -0.000009 -0.000024
 29   8.824059 0.150544 0.091743 0.000006 -0.000231 -0.174534
 30   2.111085 -0.561179 1.784320 -0.000008 -0.000682 0.000024
 31   2.121290 -0.561289 -1.853599 0.000000 0.000000 -0.000002
 32   -0.814395 -0.093824 3.127092 0.338887 -3.077717 -0.167408
 33   14.298673 -0.408176 0.471578 0.013215 -0.091859 -0.496506
 34   15.835795 0.581398 0.242756 -0.532539 -0.064474 0.362915
 35   -0.815868 -0.091229 -3.114430 -0.002012 2.881638 -0.314978
 36   14.294526 -0.410349 -0.467541 -0.021444 0.095337 -0.575480
 37   15.834409 0.579420 -0.284600 -0.051545 0.043118 0.201427
 38   1.139685 -3.453749 -2.823813 0.000000 0.000000 0.000001
 39   -4.457742 -1.054854 -0.746180 0.000000 0.000000 0.000000
 40   1.118101 -3.449769 3.237290 0.000000 0.000001 0.000000
 41   -4.433840 -1.059130 0.959566 -0.000001 0.000000 0.000000
 42   -0.657468 1.697302 -2.688614 0.000000 0.000002 0.000000
 43   -0.664068 1.698578 2.869377 0.000000 0.000002 0.000000
time 22
  0   0.001233 -0.019532 2.285597 0.000000 0.000000 -1.571829
  1   -1.093036 0.000002 -0.326057 -1.570756 -1.570425 -0.000074
  2   2.262337 0.113614 0.064702 0.145690 0.031005 0.062224
  3   2.380047 0.353302 0.047440 -0.049938 -0.001514 0.021854
  4   2.033756 0.190472 -0.000128 0.042242 -0.005033 -0.000859
  5   2.451511 0.204909 -0.003447 0.000000 -0.000005 -0.017472
  6   7.247600 -0.397300 -0.109469 0.000001 0.000009 0.418441
  7   -2.022252 -0.104661 3.136172 -0.298783 -1.361862 -2.901749
  8   1.168026 -0.537438 -0.063437 -1.516978 0.853246 -1.669252
  9   6.790376 -0.619176 0.015206 -1.103537 -0.145178 -0.804635
 10   8.637599 0.544015 -0.090417 -0.556133 0.078143 0.052040
 11   6.790465 -0.619039 0.017802 -0.787999 -0.024414 -0.597194
 12   -2.022474 -0.104699 -2.873818 0.298873 1.361712 -2.901984
 13   1.167898 -0.537463 0.063297 1.530702 0.130345 -1.487733
 14   7.002743 -0.617765 -0.183752 0.125196 -0.054831 -0.239184
 15   8.209042 0.615527 -0.255885 1.457922 -0.059758 -0.278803
 16   7.002735 -0.617911 -0.183641 0.101152 -0.039152 -0.185548
 17   1.574674 0.609930 -0.000899 0.221305 0.028337 -0.190838
 18   -0.602177 0.511412 -0.000006 0.000000 0.000000 0.000000
 19   3.673773 0.177020 1.119313 -0.000002 -0.000014 -0.174510
 20   3.673767 0.176993 -1.117566 0.000007 -0.000003 -0.174546
 21   3.942357 1.334540 1.627658 0.000002 -0.000011 -0.000026
 22   -0.246060 -0.011889 0.516521 -0.000011 0.000031 0.000025
 23   3.942374 1.334565 -1.631083 0.000019 0.000002 -0.000024
 24   -0.246150 -0.011872 -0.516511 -0.000005 -0.000006 0.000048
 25   4.941364 1.997338 1.629330 0.000018 -0.000001 -0.000024
 26   4.941382 1.997366 -1.629410 -0.000001 0.000005 -0.000024
 27   2.914462 1.619264 1.514501 -0.000019 -0.000022 -0.000050
 28   2.916892 1.618870 -1.501142 -0.000002 -0.000009 -0.000024
 29   8.824059 0.150544 0.091743 0.000006 -0.000231 -0.174534
 30   2.111085 -0.561179 1.784320 -0.000008 -0.000682 0.000024
 31   2.121290 -0.561289 -1.853599 0.000000 0.000000 -0.000002
 32   -0.814395 -0.093824 3.127092 0.338887 -3.077717 -0.167408
 33   14.298673 -0.408176 0.471578 0.013215 -0.091859 -0.496506
 34   15.835795 0.581398 0.242756 -0.532539 -0.064474 0.362915
 35   -0.815868 -0.091229 -3.114430 -0.002012 2.881638 -0.314978
 36   14.294526 -0.410349 -0.467541 -0.021444 0.095337 -0.575480
 37   15.834409 0.579420 -0.284600 -0.051545 0.043118 0.201427
 38   1.139685 -3.453749 -2.823813 0.000000 0.000000 0.000001
 39   -4.457742 -1.054854 -0.746180 0.000000 0.000000 0.000000
 40   1.118101 -3.449769 3.237290 0.000000 0.000001 0.000000
 41   -4.433840 -1.059130 0.959566 -0.000001 0.000000 0.000000
 42   -0.657468 1.697302 -2.688614 0.000000 0.000002 0.000000
 43   -0.664068 1.698578 2.869377 0.000000 0.000002 0.000000
time 23
  0   0.001233 -0.019532 2.285597 0.000000 0.000000 -1.571829
  1   -1.093036 0.000002 -0.326057 -1.570756 -1.570425 -0.000074
  2   2.262337 0.113614 0.064702 0.144480 0.031017 0.056441
  3   2.380047 0.353302 0.047440 -0.062719 -0.002161 0.012590
  4   2.033756 0.190472 -0.000128 0.036433 -0.005033 -0.000859
  5   2.451511 0.204909 -0.003447 0.000000 -0.000005 -0.017472
  6   7.247600 -0.397300 -0.109469 0.000001 0.000009 0.418441
  7   -2.022252 -0.104661 3.136172 -0.298783 -1.361862 -2.901749
  8   1.168026 -0.537438 -0.063437 -1.504322 0.731183 -1.672415
  9   6.790376 -0.619176 0.015206 -1.094383 -0.120150 -0.719810
 10   8.637599 0.544015 -0.090417 -0.555517 0.090462 0.033302
 11   6.790465 -0.619039 0.017802 -0.778101 -0.017393 -0.534329
 12   -2.022474 -0.104699 -2.873818 0.298873 1.361712 -2.901984
 13   1.167898 -0.537463 0.063297 1.538435 0.113258 -1.514489
 14   7.002743 -0.617765 -0.183752 0.125196 -0.054831 -0.230026
 15   8.209042 0.615527 -0.255885 1.432612 -0.054084 -0.270745
 16   7.002735 -0.617911 -0.183641 0.101199 -0.039096 -0.179091
 17   1.574674 0.609930 -0.000899 0.177028 0.025829 -0.212016
 18   -0.602177 0.511412 -0.000006 0.000000 0.000000 0.000000
 19   3.673773 0.177020 1.119313 -0.000002 -0.000014 -0.174510
 20   3.673767 0.176993 -1.117566 0.000007 -0.000003 -0.174546
 21   3.942357 1.334540 1.627658 0.000002 -0.000011 -0.000026
 22   -0.246060 -0.011889 0.516521 -0.000011 0.000031 0.000025
 23   3.942374 1.334565 -1.631083 0.000019 0.000002 -0.000024
 24   -0.246150 -0.011872 -0.516511 -0.000005 -0.000006 0.000048
 25   4.941364 1.997338 1.629330 0.000018 -0.000001 -0.000024
 26   4.941382 1.997366 -1.629410 -0.000001 0.000005 -0.000024
 27   2.914462 1.619264 1.514501 -0.000019 -0.000022 -0.000050
 28   2.916892 1.618870 -1.501142 -0.000002 -0.000009 -0.000024
 29   8.824059 0.150544 0.091743 0.000006 -0.000231 -0.174534
 30   2.111085 -0.561179 1.784320 -0.000008 -0.000682 0.000024
 31   2.121290 -0.561289 -1.853599 0.000000 0.000000 -0.000002
 32   -0.814395 -0.093824 3.127092 0.338887 -3.077717 -0.167408
 33   14.298673 -0.408176 0.471578 0.013215 -0.091859 -0.496506
 34   15.835795 0.581398 0.242756 -0.532539 -0.064474 0.362915
 35   -0.815868 -0.091229 -3.114430 -0.002012 2.881638 -0.314978
 36   14.294526 -0.410349 -0.467541 -0.021444 0.095337 -0.575480
 37   15.834409 0.579420 -0.284600 -0.051545 0.043118 0.201427
 38   1.139685 -3.453749 -2.823813 0.000000 0.000000 0.000001
 39   -4.457742 -1.054854 -0.746180 0.000000 0.000000 0.000000
 40   1.118101 -3.449769 3.237290 0.000000 0.000001 0.000000
 41   -4.433840 -1.059130 0.959566 -0.000001 0.000000 0.000000
 42   -0.657468 1.697302 -2.688614 0.000000 0.000002 0.000000
 43   -0.664068 1.698578 2.869377 0.000000 0.000002 0.000000
time 24
  0   0.001233 -0.019532 2.285597 0.000000 0.000000 -1.571829
  1   -1.093036 0.000002 -0.326057 -1.570756 -1.570425 -0.000074
  2   2.262337 0.113614 0.064702 0.143372 0.031077 0.050604
  3   2.380047 0.353302 0.047440 -0.075545 -0.002952 0.003387
  4   2.033756 0.190472 -0.000128 0.030605 -0.005033 -0.000859
  5   2.451511 0.204909 -0.003447 0.000000 -0.000005 -0.017472
  6   7.247600 -0.397300 -0.109469 0.000001 0.000009 0.418441
  7   -2.022252 -0.104661 3.136172 -0.298783 -1.361862 -2.901749
  8   1.168026 -0.537438 -0.063437 -1.492615 0.608920 -1.677096
  9   6.790376 -0.619176 0.015206 -1.083176 -0.096124 -0.634909
 10   8.637599 0.544015 -0.090417 -0.554901 0.103273 0.014203
 11   6.790465 -0.619039 0.017802 -0.767386 -0.010997 -0.471232
 12   -2.022474 -0.104699 -2.873818 0.298873 1.361712 -2.901984
 13   1.167898 -0.537463 0.063297 1.546448 0.096120 -1.541306
 14   7.002743 -0.617765 -0.183752 0.125196 -0.054831 -0.220373
 15   8.209042 0.615527 -0.255885 1.407374 -0.048182 -0.262867
 16   7.002735 -0.617911 -0.183641 0.101246 -0.038983 -0.172357
 17   1.574674 0.609930 -0.000899 0.132751 0.022373 -0.232973
 18   -0.602177 0.511412 -0.000006 0.000000 0.000000 0.000000
 19   3.673773 0.177020 1.119313 -0.000002 -0.000014 -0.174510
 20   3.673767 0.176993 -1.117566 0.000007 -0.000003 -0.174546
 21   3.942357 1.334540 1.627658 0.000002 -0.000011 -0.000026
 22   -0.246060 -0.011889 0.516521 -0.000011 0.000031 0.000025
 23   3.942374 1.334565 -1.631083 0.000019 0.000002 -0.000024
 24   -0.246150 -0.011872 -0.516511 -0.000005 -0.000006 0.000048
 25   4.941364 1.997338 1.629330 0.000018 -0.000001 -0.000024
 26   4.941382 1.997366 -1.629410 -0.000001 0.000005 -0.000024
 27   2.914462 1.619264 1.514501 -0.000019 -0.000022 -0.000050
 28   2.916892 1.618870 -1.501142 -0.000002 -0.000009 -0.000024
 29   8.824059 0.150544 0.091743 0.000006 -0.000231 -0.174534
 30   2.111085 -0.561179 1.784320 -0.000008 -0.000682 0.000024
 31   2.121290 -0.561289 -1.853599 0.000000 0.000000 -0.000002
 32   -0.814395 -0.093824 3.127092 0.338887 -3.077717 -0.167408
 33   14.298673 -0.408176 0.471578 0.013215 -0.091859 -0.496506
 34   15.835795 0.581398 0.242756 -0.532539 -0.064474 0.362915
 35   -0.815868 -0.091229 -3.114430 -0.002012 2.881638 -0.314978
 36   14.294526 -0.410349 -0.467541 -0.021444 0.095337 -0.575480
 37   15.834409 0.579420 -0.284600 -0.051545 0.043118 0.201427
 38   1.139685 -3.453749 -2.823813 0.000000 0.000000 0.000001
 39   -4.457742 -1.054854 -0.746180 0.000000 0.000000 0.000000
 40   1.118101 -3.449769 3.237290 0.000000 0.000001 0.000000
 41   -4.433840 -1.059130 0.959566 -0.000001 0.000000 0.000000
 42   -0.657468 1.697302 -2.688614 0.000000 0.000002 0.000000
 43   -0.664068 1.698578 2.869377 0.000000 0.000002 0.000000
time 25
  0   0.001233 -0.019532 2.285597 0.000000 0.000000 -1.571829
  1   -1.093036 0.000002 -0.326057 -1.570756 -1.570425 -0.000074
  2   2.262337 0.113614 0.064702 0.142162 0.031089 0.044713
  3   2.380047 0.353302 0.047440 -0.088401 -0.003899 -0.005856
  4   2.033756 0.190472 -0.000128 0.024777 -0.005033 -0.000859
  5   2.451511 0.204909 -0.003447 0.000000 -0.000005 -0.017472
  6   7.247600 -0.397300 -0.109469 0.000001 0.000009 0.418441
  7   -2.022252 -0.104661 3.136172 -0.298783 -1.361862 -2.901749
  8   1.168026 -0.537438 -0.063437 -1.481035 0.486606 -1.683169
  9   6.790376 -0.619176 0.015206 -1.069916 -0.072898 -0.549631
 10   8.637599 0.544015 -0.090417 -0.554724 0.115591 -0.004606
 11   6.790465 -0.619039 0.017802 -0.755766 -0.005199 -0.408136
 12   -2.022474 -0.104699 -2.873818 0.298873 1.361712 -2.901984
 13   1.167898 -0.537463 0.063297 1.554954 0.079439 -1.568244
 14   7.002743 -0.617765 -0.183752 0.125196 -0.054831 -0.211050
 15   8.209042 0.615527 -0.255885 1.382280 -0.042130 -0.255109
 16   7.002735 -0.617911 -0.183641 0.101340 -0.038927 -0.165955
 17   1.574674 0.609930 -0.000899 0.088595 0.018042 -0.253708
 18   -0.602177 0.511412 -0.000006 0.000000 0.000000 0.000000
 19   3.673773 0.177020 1.119313 -0.000002 -0.000014 -0.174510
 20   3.673767 0.176993 -1.117566 0.000007 -0.000003 -0.174546
 21   3.942357 1.334540 1.627658 0.000002 -0.000011 -0.000026
 22   -0.246060 -0.011889 0.516521 -0.000011 0.000031 0.000025
 23   3.942374 1.334565 -1.631083 0.000019 0.000002 -0.000024
 24   -0.246150 -0.011872 -0.516511 -0.000005 -0.000006 0.000048
 25   4.941364 1.997338 1.629330 0.000018 -0.000001 -0.000024
 26   4.941382 1.997366 -1.629410 -0.000001 0.000005 -0.000024
 27   2.914462 1.619264 1.514501 -0.000019 -0.000022 -0.000050
 28   2.916892 1.618870 -1.501142 -0.000002 -0.000009 -0.000024
 29   8.824059 0.150544 0.091743 0.000006 -0.000231 -0.174534
 30   2.111085 -0.561179 1.784320 -0.000008 -0.000682 0.000024
 31   2.121290 -0.561289 -1.853599 0.000000 0.000000 -0.000002
 32   -0.814395 -0.093824 3.127092 0.338887 -3.077717 -0.167408
 33   14.298673 -0.408176 0.471578 0.013215 -0.091859 -0.496506
 34   15.835795 0.581398 0.242756 -0.532539 -0.064474 0.362915
 35   -0.815868 -0.091229 -3.114430 -0.002012 2.881638 -0.314978
 36   14.294526 -0.410349 -0.467541 -0.021444 0.095337 -0.575480
 37   15.834409 0.579420 -0.284600 -0.051545 0.043118 0.201427
 38   1.139685 -3.453749 -2.823813 0.000000 0.000000 0.000001
 39   -4.457742 -1.054854 -0.746180 0.000000 0.000000 0.000000
 40   1.118101 -3.449769 3.237290 0.000000 0.000001 0.000000
 41   -4.433840 -1.059130 0.959566 -0.000001 0.000000 0.000000
 42   -0.657468 1.697302 -2.688614 0.000000 0.000002 0.000000
 43   -0.664068 1.698578 2.869377 0.000000 0.000002 0.000000
time 26
  0   0.001233 -0.019532 2.285597 0.000000 0.000000 -1.571829
  1   -1.093036 0.000002 -0.326057 -1.570756 -1.570425 -0.000074
  2   2.262337 0.113614 0.064702 0.141003 0.031077 0.038858
  3   2.380047 0.353302 0.047440 -0.101122 -0.004954 -0.015080
  4   2.033756 0.190472 -0.000128 0.018949 -0.005045 -0.000750
  5   2.451511 0.204909 -0.003447 0.000000 -0.000005 -0.017472
  6   7.247600 -0.397300 -0.109469 0.000001 0.000009 0.418441
  7   -2.022252 -0.104661 3.136172 -0.298783 -1.361862 -2.901749
  8   1.168026 -0.537438 -0.063437 -1.469138 0.365046 -1.690571
  9   6.790376 -0.619176 0.015206 -1.054715 -0.051141 -0.464353
 10   8.637599 0.544015 -0.090417 -0.554724 0.128121 -0.023199
 11   6.790465 -0.619039 0.017802 -0.743416 -0.000196 -0.345213
 12   -2.022474 -0.104699 -2.873818 0.298873 1.361712 -2.901984
 13   1.167898 -0.537463 0.063297 1.563882 0.063115 -1.595303
 14   7.002743 -0.617765 -0.183752 0.125196 -0.054831 -0.201892
 15   8.209042 0.615527 -0.255885 1.357042 -0.035926 -0.247532
 16   7.002735 -0.617911 -0.183641 0.101340 -0.038871 -0.159387
 17   1.574674 0.609930 -0.000899 0.044562 0.012717 -0.274370
 18   -0.602177 0.511412 -0.000006 0.000000 0.000000 0.000000
 19   3.673773 0.177020 1.119313 -0.000002 -0.000014 -0.174510
 20   3.673767 0.176993 -1.117566 0.000007 -0.000003 -0.174546
 21   3.942357 1.334540 1.627658 0.000002 -0.000011 -0.000026
 22   -0.246060 -0.011889 0.516521 -0.000011 0.000031 0.000025
 23   3.942374 1.334565 -1.631083 0.000019 0.000002 -0.000024
 24   -0.246150 -0.011872 -0.516511 -0.000005 -0.000006 0.000048
 25   4.941364 1.997338 1.629330 0.000018 -0.000001 -0.000024
 26   4.941382 1.997366 -1.629410 -0.000001 0.000005 -0.000024
 27   2.914462 1.619264 1.514501 -0.000019 -0.000022 -0.000050
 28   2.916892 1.618870 -1.501142 -0.000002 -0.000009 -0.000024
 29   8.824059 0.150544 0.091743 0.000006 -0.000231 -0.174534
 30   2.111085 -0.561179 1.784320 -0.000008 -0.000682 0.000024
 31   2.121290 -0.561289 -1.853599 0.000000 0.000000 -0.000002
 32   -0.814395 -0.093824 3.127092 0.338887 -3.077717 -0.167408
 33   14.298673 -0.408176 0.471578 0.013215 -0.091859 -0.496506
 34   15.835795 0.581398 0.242756 -0.532539 -0.064474 0.362915
 35   -0.815868 -0.091229 -3.114430 -0.002012 2.881638 -0.314978
 36   14.294526 -0.410349 -0.467541 -0.021444 0.095337 -0.575480
 37   15.834409 0.579420 -0.284600 -0.051545 0.043118 0.201427
 38   1.139685 -3.453749 -2.823813 0.000000 0.000000 0.000001
 39   -4.457742 -1.054854 -0.746180 0.000000 0.000000 0.000000
 40   1.118101 -3.449769 3.237290 0.000000 0.000001 0.000000
 41   -4.433840 -1.059130 0.959566 -0.000001 0.000000 0.000000
 42   -0.657468 1.697302 -2.688614 0.000000 0.000002 0.000000
 43   -0.664068 1.698578 2.869377 0.000000 0.000002 0.000000
time 27
  0   0.001233 -0.019532 2.285597 0.000000 0.000000 -1.571829
  1   -1.093036 0.000002 -0.326057 -1.570756 -1.570425 -0.000074
  2   2.262337 0.113614 0.064702 0.139831 0.031077 0.032967
  3   2.380047 0.353302 0.047440 -0.113933 -0.006044 -0.024283
  4   2.033756 0.190472 -0.000128 0.013140 -0.005045 -0.000714
  5   2.451511 0.204909 -0.003447 0.000000 -0.000005 -0.017472
  6   7.247600 -0.397300 -0.109469 0.000001 0.000009 0.418441
  7   -2.022252 -0.104661 3.136172 -0.298783 -1.361862 -2.901749
  8   1.168026 -0.537438 -0.063437 -1.456735 0.243034 -1.698921
  9   6.790376 -0.619176 0.015206 -1.037849 -0.031052 -0.378622
 10   8.637599 0.544015 -0.090417 -0.554901 0.141002 -0.042297
 11   6.790465 -0.619039 0.017802 -0.730336 0.003841 -0.282232
 12   -2.022474 -0.104699 -2.873818 0.298873 1.361683 -2.901984
 13   1.167898 -0.537463 0.063297 1.573512 0.046841 -1.622665
 14   7.002743 -0.617765 -0.183752 0.125196 -0.054831 -0.192651
 15   8.209042 0.615527 -0.255885 1.331876 -0.029419 -0.239895
 16   7.002735 -0.617911 -0.183641 0.101434 -0.038758 -0.153040
 17   1.574674 0.609930 -0.000899 0.000569 0.006611 -0.294624
 18   -0.602177 0.511412 -0.000006 0.000000 0.000000 0.000000
 19   3.673773 0.177020 1.119313 -0.000002 -0.000014 -0.174510
 20   3.673767 0.176993 -1.117566 0.000007 -0.000003 -0.174546
 21   3.942357 1.334540 1.627658 0.000002 -0.000011 -0.000026
 22   -0.246060 -0.011889 0.516521 -0.000011 0.000031 0.000025
 23   3.942374 1.334565 -1.631083 0.000019 0.000002 -0.000024
 24   -0.246150 -0.011872 -0.516511 -0.000005 -0.000006 0.000048
 25   4.941364 1.997338 1.629330 0.000018 -0.000001 -0.000024
 26   4.941382 1.997366 -1.629410 -0.000001 0.000005 -0.000024
 27   2.914462 1.619264 1.514501 -0.000019 -0.000022 -0.000050
 28   2.916892 1.618870 -1.501142 -0.000002 -0.000009 -0.000024
 29   8.824059 0.150544 0.091743 0.000006 -0.000231 -0.174534
 30   2.111085 -0.561179 1.784320 -0.000008 -0.000682 0.000024
 31   2.121290 -0.561289 -1.853599 0.000000 0.000000 -0.000002
 32   -0.814395 -0.093824 3.127092 0.338887 -3.077717 -0.167408
 33   14.298673 -0.408176 0.471578 0.013215 -0.091859 -0.496506
 34   15.835795 0.581398 0.242756 -0.532539 -0.064474 0.362915
 35   -0.815868 -0.091229 -3.114430 -0.002012 2.881638 -0.314978
 36   14.294526 -0.410349 -0.467541 -0.021444 0.095337 -0.575480
 37   15.834409 0.579420 -0.284600 -0.051545 0.043118 0.201427
 38   1.139685 -3.453749 -2.823813 0.000000 0.000000 0.000001
 39   -4.457742 -1.054854 -0.746180 0.000000 0.000000 0.000000
 40   1.118101 -3.449769 3.237290 0.000000 0.000001 0.000000
 41   -4.433840 -1.059130 0.959566 -0.000001 0.000000 0.000000
 42   -0.657468 1.697302 -2.688614 0.000000 0.000002 0.000000
 43   -0.664068 1.698578 2.869377 0.000000 0.000002 0.000000
time 28
  0   0.001233 -0.019532 2.285597 0.000000 0.000000 -1.571829
  1   -1.093036 0.000002 -0.326057 -1.570756 -1.570425 -0.000074
  2   2.262337 0.113614 0.064702 0.137462 0.030981 0.021329
  3   2.380047 0.353302 0.047440 -0.139299 -0.008741 -0.042648
  4   2.033756 0.190472 -0.000128 0.001521 -0.005057 -0.000714
  5   2.451511 0.204909 -0.003447 0.000000 -0.000005 -0.017472
  6   7.247600 -0.397300 -0.109469 0.000001 0.000009 0.418441
  7   -2.022252 -0.104661 3.136172 -0.298783 -1.361862 -2.901749
  8   1.168026 -0.537438 -0.063437 -1.439839 0.226380 -1.634522
  9   6.790376 -0.619176 0.015206 -1.099210 0.448610 -0.631136
 10   8.637599 0.544015 -0.090417 -1.488652 -0.125355 -0.473976
 11   6.790465 -0.619039 0.017802 -0.727504 0.374079 -0.393314
 12   -2.022474 -0.104699 -2.873818 0.298873 1.361683 -2.901984
 13   1.167898 -0.537463 0.063297 1.593617 0.015261 -1.887020
 14   7.002743 -0.617765 -0.183752 0.125196 -0.054831 -0.173840
 15   8.209042 0.615527 -0.255885 1.254365 0.102683 -0.226785
 16   7.002735 -0.617911 -0.183641 0.101528 -0.038645 -0.139738
 17   1.574674 0.609930 -0.000899 -0.086442 -0.008181 -0.334320
 18   -0.602177 0.511412 -0.000006 0.000000 0.000000 0.000000
 19   3.673773 0.177020 1.119313 -0.000002 -0.000014 -0.174510
 20   3.673767 0.176993 -1.117566 0.000007 -0.000003 -0.174546
 21   3.942357 1.334540 1.627658 0.000002 -0.000011 -0.000026
 22   -0.246060 -0.011889 0.516521 -0.000011 0.000031 0.000025
 23   3.942374 1.334565 -1.631083 0.000019 0.000002 -0.000024
 24   -0.246150 -0.011872 -0.516511 -0.000005 -0.000006 0.000048
 25   4.941364 1.997338 1.629330 0.000018 -0.000001 -0.000024
 26   4.941382 1.997366 -1.629410 -0.000001 0.000005 -0.000024
 27   2.914462 1.619264 1.514501 -0.000019 -0.000022 -0.000050
 28   2.916892 1.618870 -1.501142 -0.000002 -0.000009 -0.000024
 29   8.824059 0.150544 0.091743 0.000006 -0.000231 -0.174534
 30   2.111085 -0.561179 1.784320 -0.000008 -0.000682 0.000024
 31   2.121290 -0.561289 -1.853599 0.000000 0.000000 -0.000002
 32   -0.814395 -0.093824 3.127092 0.338887 -3.077717 -0.167408
 33   14.298673 -0.408176 0.471578 0.013215 -0.091859 -0.496506
 34   15.835795 0.581398 0.242756 -0.532539 -0.064474 0.362915
 35   -0.815868 -0.091229 -3.114430 -0.002012 2.881638 -0.314978
 36   14.294526 -0.410349 -0.467541 -0.021444 0.095337 -0.575480
 37   15.834409 0.579420 -0.284600 -0.051545 0.043118 0.201427
 38   1.139685 -3.453749 -2.823813 0.000000 0.000000 0.000001
 39   -4.457742 -1.054854 -0.746180 0.000000 0.000000 0.000000
 40   1.118101 -3.449769 3.237290 0.000000 0.000001 0.000000
 41   -4.433840 -1.059130 0.959566 -0.000001 0.000000 0.000000
 42   -0.657468 1.697302 -2.688614 0.000000 0.000002 0.000000
 43   -0.664068 1.698578 2.869377 0.000000 0.000002 0.000000
end
