version 1
nodes
  0 "Bip01" -1
  1 "Bip01 Pelvis" 0
  2 "Bip01 Spine" 1
  3 "Bip01 Spine1" 2
  4 "Bip01 Spine2" 3
  5 "Bip01 Spine3" 4
  6 "Bip01 Neck" 5
  7 "Bip01 L Arm" 6
  8 "Bip01 L Arm1" 7
  9 "Bip01 L Arm2" 8
 10 "Bip01 L Hand" 9
 11 "Bip06 L elbow2-smooth" 8
 12 "Bip01 R Arm" 6
 13 "Bip01 R Arm1" 12
 14 "Bip01 R Arm2" 13
 15 "Bip01 R Hand" 14
 16 "Bip06 R elbow2-smooth" 13
 17 "Bip01 Head" 6
 18 "Bip06 Head_helper" 17
 19 "Bip06 Head_eyes_l" 18
 20 "Bip06 Head_eyes_r" 18
 21 "Bip06 Head_blink_l" 18
 22 "Bip06 Head_blink_smooth_l1" 21
 23 "Bip06 Head_blink_r" 18
 24 "Bip06 Head_blink_smooth_r1" 23
 25 "Bip06 Head_L_eyebrow" 18
 26 "Bip06 Head_R_eyebrow" 18
 27 "Bip06 Head_blink_l_lid" 18
 28 "Bip06 Head_blink_r_lid" 18
 29 "Bip06 bunny" 18
 30 "Bip06 bunnyL" 29
 31 "Bip06 bunnyR" 29
 32 "Bip01 L Leg" 1
 33 "Bip01 L Leg1" 32
 34 "Bip01 L Foot" 33
 35 "Bip01 R Leg" 1
 36 "Bip01 R Leg1" 35
 37 "Bip01 R Foot" 36
 38 "Bip03 HairR1" 17
 39 "Bip03 HairR2" 38
 40 "Bip03 HairL1" 17
 41 "Bip03 HairL2" 40
 42 "Bip03 swingR" 17
 43 "Bip03 swingL" 17
end
skeleton
time 0
  0   0.243428 0.429701 2.719204 0.000000 0.000000 -1.571354
  1   -1.093036 0.000002 -0.326057 -1.570808 -1.570425 -0.000026
  2   2.262337 0.113614 0.064702 -0.000052 0.000049 -0.260865
  3   2.380047 0.353302 0.047440 -0.261678 -0.001922 -0.008489
  4   2.033756 0.190472 -0.000128 -0.000010 0.000024 -0.035003
  5   2.451511 0.204909 -0.003447 0.000000 -0.000005 -0.017472
  6   7.247600 -0.397300 -0.109469 0.000001 0.000009 -0.209377
  7   -2.022252 -0.104661 3.136172 0.897141 -1.256499 -3.804848
  8   1.168026 -0.537438 -0.063437 -1.025605 0.790957 -1.063724
  9   6.790376 -0.619176 0.015206 -0.000158 -0.000285 -2.133240
 10   8.637599 0.544015 -0.090417 -1.068495 -0.402905 -0.134898
 11   6.790465 -0.619039 0.017802 0.005381 -0.011935 -1.508573
 12   -2.022474 -0.104699 -2.873818 -1.158927 1.101658 -4.048005
 13   1.167898 -0.537463 0.063297 -0.331306 -1.036259 0.471233
 14   7.002743 -0.617765 -0.183752 0.000229 0.000250 -2.415017
 15   8.209042 0.615527 -0.255885 1.510699 0.765006 -0.200505
 16   7.002735 -0.617911 -0.183641 0.011943 0.013965 -1.709200
 17   1.574674 0.609930 -0.000899 0.260992 0.017900 0.201984
 18   -0.602177 0.511412 -0.000006 0.000000 0.000000 0.000000
 19   3.673773 0.177020 1.119313 -0.000002 -0.000014 -0.174510
 20   3.673767 0.176993 -1.117566 0.000007 -0.000003 -0.174546
 21   3.942357 1.334540 1.627658 0.000002 -0.000011 -0.000026
 22   -0.246060 -0.011889 0.516521 -0.000011 0.000031 0.000025
 23   3.942374 1.334565 -1.631083 0.000019 0.000002 -0.000024
 24   -0.246150 -0.011872 -0.516511 -0.000005 -0.000006 0.000048
 25   4.941364 1.997338 1.629330 0.000018 -0.000001 -0.000024
 26   4.941382 1.997366 -1.629410 -0.000001 0.000005 -0.000024
 27   2.914462 1.619264 1.514501 -0.000019 -0.000022 -0.000050
 28   2.916892 1.618870 -1.501142 -0.000002 -0.000009 -0.000024
 29   8.824059 0.150544 0.091743 0.000006 -0.000231 -0.174534
 30   2.111085 -0.561179 1.784320 -0.000008 -0.000682 0.000024
 31   2.121290 -0.561289 -1.853599 0.000000 0.000000 -0.000002
 32   -0.814395 -0.093824 3.127092 0.003147 -3.123656 -0.091474
 33   14.298673 -0.408176 0.471578 -0.000076 -0.000041 -0.242988
 34   15.835795 0.581398 0.242756 -0.001570 -0.017448 0.152281
 35   -0.815868 -0.091229 -3.114430 0.355239 3.115486 -0.017097
 36   14.294526 -0.410349 -0.467541 0.000069 0.000048 -0.266349
 37   15.834409 0.579420 -0.284600 0.202556 0.017804 0.241380
 38   1.139685 -3.453749 -2.823813 0.000000 0.000000 0.000001
 39   -4.457742 -1.054854 -0.746180 0.000000 0.000000 0.000000
 40   1.118101 -3.449769 3.237290 0.000000 0.000001 0.000000
 41   -4.433840 -1.059130 0.959566 -0.000001 0.000000 0.000000
 42   -0.657468 1.697302 -2.688614 0.000000 0.000002 0.000000
 43   -0.664068 1.698578 2.869377 0.000000 0.000002 0.000000
time 1
  0   0.286398 0.644551 2.719204 0.000000 0.000000 -1.571354
  1   -1.093036 0.000002 -0.326057 -1.570808 -1.570425 -0.000171
  2   2.262337 0.113614 0.064702 -0.000052 0.000049 -0.260865
  3   2.380047 0.353302 0.047440 -0.212444 0.003064 0.022201
  4   2.033756 0.190472 -0.000128 0.028355 -0.001570 0.006173
  5   2.451511 0.204909 -0.003447 0.000000 -0.000005 -0.017472
  6   7.247600 -0.397300 -0.109469 0.000001 0.000009 -0.209377
  7   -2.022252 -0.104661 3.136172 1.121544 -1.133983 -4.014470
  8   1.168026 -0.537438 -0.063437 -1.162860 0.600064 -0.838263
  9   6.790376 -0.619176 0.015206 -0.000158 -0.000285 -1.908574
 10   8.637599 0.544015 -0.090417 -1.175934 -0.402905 -0.134898
 11   6.790465 -0.619039 0.017802 0.004271 -0.011935 -1.351236
 12   -2.022474 -0.104699 -2.873818 -1.158927 1.101658 -4.048005
 13   1.167898 -0.537463 0.063297 0.619522 -0.862031 -0.522930
 14   7.002743 -0.617765 -0.183752 0.000229 0.000250 -1.927162
 15   8.209042 0.615527 -0.255885 1.694770 0.610661 0.079735
 16   7.002735 -0.617911 -0.183641 0.012978 0.010807 -1.367667
 17   1.574674 0.609930 -0.000899 0.183365 0.015131 0.129097
 18   -0.602177 0.511412 -0.000006 0.000000 0.000000 0.000000
 19   3.673773 0.177020 1.119313 -0.000002 -0.000014 -0.174510
 20   3.673767 0.176993 -1.117566 0.000007 -0.000003 -0.174546
 21   3.942357 1.334540 1.627658 0.000002 -0.000011 -0.000026
 22   -0.246060 -0.011889 0.516521 -0.000011 0.000031 0.000025
 23   3.942374 1.334565 -1.631083 0.000019 0.000002 -0.000024
 24   -0.246150 -0.011872 -0.516511 -0.000005 -0.000006 0.000048
 25   4.941364 1.997338 1.629330 0.000018 -0.000001 -0.000024
 26   4.941382 1.997366 -1.629410 -0.000001 0.000005 -0.000024
 27   2.914462 1.619264 1.514501 -0.000019 -0.000022 -0.000050
 28   2.916892 1.618870 -1.501142 -0.000002 -0.000009 -0.000024
 29   8.824059 0.150544 0.091743 0.000006 -0.000231 -0.174534
 30   2.111085 -0.561179 1.784320 -0.000008 -0.000682 0.000024
 31   2.121290 -0.561289 -1.853599 0.000000 0.000000 -0.000002
 32   -0.814395 -0.093824 3.127092 0.003147 -3.123656 -0.091474
 33   14.298673 -0.408176 0.471578 -0.000076 -0.000041 -0.242988
 34   15.835795 0.581398 0.242756 -0.001570 -0.017448 0.152281
 35   -0.815868 -0.091229 -3.114430 0.355239 3.115486 -0.017097
 36   14.294526 -0.410349 -0.467541 0.000069 0.000048 -0.266349
 37   15.834409 0.579420 -0.284600 0.202556 0.017804 0.241380
 38   1.139685 -3.453749 -2.823813 0.000000 0.000000 0.000001
 39   -4.457742 -1.054854 -0.746180 0.000000 0.000000 0.000000
 40   1.118101 -3.449769 3.237290 0.000000 0.000001 0.000000
 41   -4.433840 -1.059130 0.959566 -0.000001 0.000000 0.000000
 42   -0.657468 1.697302 -2.688614 0.000000 0.000002 0.000000
 43   -0.664068 1.698578 2.869377 0.000000 0.000002 0.000000
time 2
  0   0.317649 0.894559 2.719204 0.000000 0.000000 -1.571354
  1   -1.093036 0.000002 -0.326057 -1.570808 -1.570425 0.000071
  2   2.262337 0.113614 0.064702 -0.000052 0.000049 -0.260865
  3   2.380047 0.353302 0.047440 -0.157946 0.007007 0.056176
  4   2.033756 0.190472 -0.000128 0.059689 -0.004710 0.051736
  5   2.451511 0.204909 -0.003447 0.000000 -0.000005 -0.017472
  6   7.247600 -0.397300 -0.109469 0.000001 0.000009 -0.209377
  7   -2.022252 -0.104661 3.136172 1.265044 -0.977278 -4.139942
  8   1.168026 -0.537438 -0.063437 -1.425664 0.309298 -0.781835
  9   6.790376 -0.619176 0.015206 -0.000158 -0.000285 -1.527463
 10   8.637599 0.544015 -0.090417 -1.300722 -0.402905 -0.134898
 11   6.790465 -0.619039 0.017802 0.002549 -0.011793 -1.084432
 12   -2.022474 -0.104699 -2.873818 -1.158927 1.101658 -4.048005
 13   1.167898 -0.537463 0.063297 0.959053 -0.316006 -0.943949
 14   7.002743 -0.617765 -0.183752 0.000229 0.000250 -1.398962
 15   8.209042 0.615527 -0.255885 1.816861 0.410163 0.316015
 16   7.002735 -0.617911 -0.183641 0.013779 0.007706 -0.997986
 17   1.574674 0.609930 -0.000899 0.097857 0.006895 0.047894
 18   -0.602177 0.511412 -0.000006 0.000000 0.000000 0.000000
 19   3.673773 0.177020 1.119313 -0.000002 -0.000014 -0.174510
 20   3.673767 0.176993 -1.117566 0.000007 -0.000003 -0.174546
 21   3.942357 1.334540 1.627658 0.000002 -0.000011 -0.000026
 22   -0.246060 -0.011889 0.516521 -0.000011 0.000031 0.000025
 23   3.942374 1.334565 -1.631083 0.000019 0.000002 -0.000024
 24   -0.246150 -0.011872 -0.516511 -0.000005 -0.000006 0.000048
 25   4.941364 1.997338 1.629330 0.000018 -0.000001 -0.000024
 26   4.941382 1.997366 -1.629410 -0.000001 0.000005 -0.000024
 27   2.914462 1.619264 1.514501 -0.000019 -0.000022 -0.000050
 28   2.916892 1.618870 -1.501142 -0.000002 -0.000009 -0.000024
 29   8.824059 0.150544 0.091743 0.000006 -0.000231 -0.174534
 30   2.111085 -0.561179 1.784320 -0.000008 -0.000682 0.000024
 31   2.121290 -0.561289 -1.853599 0.000000 0.000000 -0.000002
 32   -0.814395 -0.093824 3.127092 0.003147 -3.123656 -0.091474
 33   14.298673 -0.408176 0.471578 -0.000076 -0.000041 -0.242988
 34   15.835795 0.581398 0.242756 -0.001570 -0.017448 0.152281
 35   -0.815868 -0.091229 -3.114430 0.355239 3.115486 -0.017097
 36   14.294526 -0.410349 -0.467541 0.000069 0.000048 -0.266349
 37   15.834409 0.579420 -0.284600 0.202556 0.017804 0.241380
 38   1.139685 -3.453749 -2.823813 0.000000 0.000000 0.000001
 39   -4.457742 -1.054854 -0.746180 0.000000 0.000000 0.000000
 40   1.118101 -3.449769 3.237290 0.000000 0.000001 0.000000
 41   -4.433840 -1.059130 0.959566 -0.000001 0.000000 0.000000
 42   -0.657468 1.697302 -2.688614 0.000000 0.000002 0.000000
 43   -0.664068 1.698578 2.869377 0.000000 0.000002 0.000000
time 3
  0   0.329368 1.089877 2.719204 0.000000 0.000000 -1.571354
  1   -1.093036 0.000002 -0.326057 -1.570808 -1.570425 0.000168
  2   2.262337 0.113614 0.064702 -0.000052 0.000049 -0.260865
  3   2.380047 0.353302 0.047440 -0.113768 0.008817 0.083887
  4   2.033756 0.190472 -0.000128 0.084936 -0.008161 0.088744
  5   2.451511 0.204909 -0.003447 0.000000 -0.000005 -0.017472
  6   7.247600 -0.397300 -0.109469 0.000001 0.000009 -0.209377
  7   -2.022252 -0.104661 3.136172 1.347194 -0.829193 -4.204463
  8   1.168026 -0.537438 -0.063437 -1.677457 -0.198222 -0.764122
  9   6.790376 -0.619176 0.015206 -0.000158 -0.000285 -0.891499
 10   8.637599 0.544015 -0.090417 -1.401820 -0.402905 -0.134898
 11   6.790465 -0.619039 0.017802 -0.000079 -0.011452 -0.639239
 12   -2.022474 -0.104699 -2.873818 -1.158927 1.101687 -4.048005
 13   1.167898 -0.537463 0.063297 1.010861 0.195794 -1.121861
 14   7.002743 -0.617765 -0.183752 0.000229 0.000250 -0.950958
 15   8.209042 0.615527 -0.255885 1.874455 0.225478 0.483497
 16   7.002735 -0.617911 -0.183641 0.014249 0.005281 -0.684215
 17   1.574674 0.609930 -0.000899 0.029126 -0.003495 -0.017010
 18   -0.602177 0.511412 -0.000006 0.000000 0.000000 0.000000
 19   3.673773 0.177020 1.119313 -0.000002 -0.000014 -0.174510
 20   3.673767 0.176993 -1.117566 0.000007 -0.000003 -0.174546
 21   3.942357 1.334540 1.627658 0.000002 -0.000011 -0.000026
 22   -0.246060 -0.011889 0.516521 -0.000011 0.000031 0.000025
 23   3.942374 1.334565 -1.631083 0.000019 0.000002 -0.000024
 24   -0.246150 -0.011872 -0.516511 -0.000005 -0.000006 0.000048
 25   4.941364 1.997338 1.629330 0.000018 -0.000001 -0.000024
 26   4.941382 1.997366 -1.629410 -0.000001 0.000005 -0.000024
 27   2.914462 1.619264 1.514501 -0.000019 -0.000022 -0.000050
 28   2.916892 1.618870 -1.501142 -0.000002 -0.000009 -0.000024
 29   8.824059 0.150544 0.091743 0.000006 -0.000231 -0.174534
 30   2.111085 -0.561179 1.784320 -0.000008 -0.000682 0.000024
 31   2.121290 -0.561289 -1.853599 0.000000 0.000000 -0.000002
 32   -0.814395 -0.093824 3.127092 0.003147 -3.123656 -0.091474
 33   14.298673 -0.408176 0.471578 -0.000076 -0.000041 -0.242988
 34   15.835795 0.581398 0.242756 -0.001570 -0.017448 0.152281
 35   -0.815868 -0.091229 -3.114430 0.355239 3.115486 -0.017097
 36   14.294526 -0.410349 -0.467541 0.000069 0.000048 -0.266349
 37   15.834409 0.579420 -0.284600 0.202556 0.017804 0.241380
 38   1.139685 -3.453749 -2.823813 0.000000 0.000000 0.000001
 39   -4.457742 -1.054854 -0.746180 0.000000 0.000000 0.000000
 40   1.118101 -3.449769 3.237290 0.000000 0.000001 0.000000
 41   -4.433840 -1.059130 0.959566 -0.000001 0.000000 0.000000
 42   -0.657468 1.697302 -2.688614 0.000000 0.000002 0.000000
 43   -0.664068 1.698578 2.869377 0.000000 0.000002 0.000000
time 4
  0   0.329368 1.171911 2.719204 0.000000 0.000000 -1.571354
  1   -1.093036 0.000002 -0.326057 -1.570808 -1.570425 0.000361
  2   2.262337 0.113614 0.064702 -0.000052 0.000049 -0.260865
  3   2.380047 0.353302 0.047440 -0.095481 0.009080 0.095355
  4   2.033756 0.190472 -0.000128 0.095357 -0.009911 0.103931
  5   2.451511 0.204909 -0.003447 0.000000 -0.000005 -0.017472
  6   7.247600 -0.397300 -0.109469 0.000001 0.000009 -0.209377
  7   -2.022252 -0.104661 3.136172 1.363490 -0.791314 -4.216296
  8   1.168026 -0.537438 -0.063437 -1.724221 -0.448737 -0.769499
  9   6.790376 -0.619176 0.015206 -0.000158 -0.000285 -0.595666
 10   8.637599 0.544015 -0.090417 -1.443563 -0.402905 -0.134898
 11   6.790465 -0.619039 0.017802 -0.001276 -0.011225 -0.432244
 12   -2.022474 -0.104699 -2.873818 -1.158927 1.101658 -4.048005
 13   1.167898 -0.537463 0.063297 1.004042 0.459730 -1.194805
 14   7.002743 -0.617765 -0.183752 0.000229 0.000250 -0.703112
 15   8.209042 0.615527 -0.255885 1.891712 0.120084 0.568952
 16   7.002735 -0.617911 -0.183641 0.014438 0.003984 -0.510855
 17   1.574674 0.609930 -0.000899 0.001016 -0.009009 -0.043511
 18   -0.602177 0.511412 -0.000006 0.000000 0.000000 0.000000
 19   3.673773 0.177020 1.119313 -0.000002 -0.000014 -0.174510
 20   3.673767 0.176993 -1.117566 0.000007 -0.000003 -0.174546
 21   3.942357 1.334540 1.627658 0.000002 -0.000011 -0.000026
 22   -0.246060 -0.011889 0.516521 -0.000011 0.000031 0.000025
 23   3.942374 1.334565 -1.631083 0.000019 0.000002 -0.000024
 24   -0.246150 -0.011872 -0.516511 -0.000005 -0.000006 0.000048
 25   4.941364 1.997338 1.629330 0.000018 -0.000001 -0.000024
 26   4.941382 1.997366 -1.629410 -0.000001 0.000005 -0.000024
 27   2.914462 1.619264 1.514501 -0.000019 -0.000022 -0.000050
 28   2.916892 1.618870 -1.501142 -0.000002 -0.000009 -0.000024
 29   8.824059 0.150544 0.091743 0.000006 -0.000231 -0.174534
 30   2.111085 -0.561179 1.784320 -0.000008 -0.000682 0.000024
 31   2.121290 -0.561289 -1.853599 0.000000 0.000000 -0.000002
 32   -0.814395 -0.093824 3.127092 0.003147 -3.123656 -0.091474
 33   14.298673 -0.408176 0.471578 -0.000076 -0.000041 -0.242988
 34   15.835795 0.581398 0.242756 -0.001570 -0.017448 0.152281
 35   -0.815868 -0.091229 -3.114430 0.355239 3.115486 -0.017097
 36   14.294526 -0.410349 -0.467541 0.000069 0.000048 -0.266349
 37   15.834409 0.579420 -0.284600 0.202556 0.017804 0.241380
 38   1.139685 -3.453749 -2.823813 0.000000 0.000000 0.000001
 39   -4.457742 -1.054854 -0.746180 0.000000 0.000000 0.000000
 40   1.118101 -3.449769 3.237290 0.000000 0.000001 0.000000
 41   -4.433840 -1.059130 0.959566 -0.000001 0.000000 0.000000
 42   -0.657468 1.697302 -2.688614 0.000000 0.000002 0.000000
 43   -0.664068 1.698578 2.869377 0.000000 0.000002 0.000000
time 5
  0   0.329368 1.140660 2.719204 0.000000 0.000000 -1.571354
  1   -1.093036 0.000002 -0.326057 -1.570808 -1.570425 -0.000752
  2   2.262337 0.113614 0.064702 -0.000052 0.000049 -0.260865
  3   2.380047 0.353302 0.047440 -0.100372 0.008996 0.092294
  4   2.033756 0.190472 -0.000128 0.092572 -0.009564 0.099799
  5   2.451511 0.204909 -0.003447 0.000000 -0.000005 -0.017472
  6   7.247600 -0.397300 -0.109469 0.000001 0.000009 -0.209377
  7   -2.022252 -0.104661 3.136172 1.288433 -0.940812 -4.159195
  8   1.168026 -0.537438 -0.063437 -1.535899 -0.247480 -0.779178
  9   6.790376 -0.619176 0.015206 -0.000158 -0.000285 -0.790900
 10   8.637599 0.544015 -0.090417 -1.399002 -0.402905 -0.134898
 11   6.790465 -0.619039 0.017802 -0.000517 -0.011395 -0.568876
 12   -2.022474 -0.104699 -2.873818 -1.158927 1.101658 -4.048005
 13   1.167898 -0.537463 0.063297 1.073073 0.387160 -1.077973
 14   7.002743 -0.617765 -0.183752 0.000229 0.000250 -0.734629
 15   8.209042 0.615527 -0.255885 1.889986 0.133703 0.558308
 16   7.002735 -0.617911 -0.183641 0.014438 0.004154 -0.532877
 17   1.574674 0.609930 -0.000899 0.008530 -0.007471 -0.036267
 18   -0.602177 0.511412 -0.000006 0.000000 0.000000 0.000000
 19   3.673773 0.177020 1.119313 -0.000002 -0.000014 -0.174510
 20   3.673767 0.176993 -1.117566 0.000007 -0.000003 -0.174546
 21   3.942357 1.334540 1.627658 0.000002 -0.000011 -0.000026
 22   -0.246060 -0.011889 0.516521 -0.000011 0.000031 0.000025
 23   3.942374 1.334565 -1.631083 0.000019 0.000002 -0.000024
 24   -0.246150 -0.011872 -0.516511 -0.000005 -0.000006 0.000048
 25   4.941364 1.997338 1.629330 0.000018 -0.000001 -0.000024
 26   4.941382 1.997366 -1.629410 -0.000001 0.000005 -0.000024
 27   2.914462 1.619264 1.514501 -0.000019 -0.000022 -0.000050
 28   2.916892 1.618870 -1.501142 -0.000002 -0.000009 -0.000024
 29   8.824059 0.150544 0.091743 0.000006 -0.000231 -0.174534
 30   2.111085 -0.561179 1.784320 -0.000008 -0.000682 0.000024
 31   2.121290 -0.561289 -1.853599 0.000000 0.000000 -0.000002
 32   -0.814395 -0.093824 3.127092 0.003147 -3.123656 -0.091474
 33   14.298673 -0.408176 0.471578 -0.000076 -0.000041 -0.242988
 34   15.835795 0.581398 0.242756 -0.001570 -0.017448 0.152281
 35   -0.815868 -0.091229 -3.114430 0.355239 3.115486 -0.017097
 36   14.294526 -0.410349 -0.467541 0.000069 0.000048 -0.266349
 37   15.834409 0.579420 -0.284600 0.202556 0.017804 0.241380
 38   1.139685 -3.453749 -2.823813 0.000000 0.000000 0.000001
 39   -4.457742 -1.054854 -0.746180 0.000000 0.000000 0.000000
 40   1.118101 -3.449769 3.237290 0.000000 0.000001 0.000000
 41   -4.433840 -1.059130 0.959566 -0.000001 0.000000 0.000000
 42   -0.657468 1.697302 -2.688614 0.000000 0.000002 0.000000
 43   -0.664068 1.698578 2.869377 0.000000 0.000002 0.000000
time 6
  0   0.329368 1.089877 2.719204 0.000000 0.000000 -1.571354
  1   -1.093036 0.000002 -0.326057 -1.570808 -1.570425 0.000168
  2   2.262337 0.113614 0.064702 -0.000052 0.000049 -0.260865
  3   2.380047 0.353302 0.047440 -0.113768 0.008817 0.083887
  4   2.033756 0.190472 -0.000128 0.084936 -0.008161 0.088744
  5   2.451511 0.204909 -0.003447 0.000000 -0.000005 -0.017472
  6   7.247600 -0.397300 -0.109469 0.000001 0.000009 -0.209377
  7   -2.022252 -0.104661 3.136172 1.143113 -1.115879 -4.034004
  8   1.168026 -0.537438 -0.063437 -1.273854 0.002431 -0.719903
  9   6.790376 -0.619176 0.015206 -0.000158 -0.000285 -1.075790
 10   8.637599 0.544015 -0.090417 -1.338502 -0.402905 -0.134898
 11   6.790465 -0.619039 0.017802 0.000651 -0.011566 -0.768316
 12   -2.022474 -0.104699 -2.873818 -1.158927 1.101687 -4.048005
 13   1.167898 -0.537463 0.063297 1.131279 0.070235 -0.854418
 14   7.002743 -0.617765 -0.183752 0.000229 0.000250 -0.965974
 15   8.209042 0.615527 -0.255885 1.873017 0.231682 0.478265
 16   7.002735 -0.617911 -0.183641 0.014249 0.005394 -0.694812
 17   1.574674 0.609930 -0.000899 0.029126 -0.003495 -0.017010
 18   -0.602177 0.511412 -0.000006 0.000000 0.000000 0.000000
 19   3.673773 0.177020 1.119313 -0.000002 -0.000014 -0.174510
 20   3.673767 0.176993 -1.117566 0.000007 -0.000003 -0.174546
 21   3.942357 1.334540 1.627658 0.000002 -0.000011 -0.000026
 22   -0.246060 -0.011889 0.516521 -0.000011 0.000031 0.000025
 23   3.942374 1.334565 -1.631083 0.000019 0.000002 -0.000024
 24   -0.246150 -0.011872 -0.516511 -0.000005 -0.000006 0.000048
 25   4.941364 1.997338 1.629330 0.000018 -0.000001 -0.000024
 26   4.941382 1.997366 -1.629410 -0.000001 0.000005 -0.000024
 27   2.914462 1.619264 1.514501 -0.000019 -0.000022 -0.000050
 28   2.916892 1.618870 -1.501142 -0.000002 -0.000009 -0.000024
 29   8.824059 0.150544 0.091743 0.000006 -0.000231 -0.174534
 30   2.111085 -0.561179 1.784320 -0.000008 -0.000682 0.000024
 31   2.121290 -0.561289 -1.853599 0.000000 0.000000 -0.000002
 32   -0.814395 -0.093824 3.127092 0.003147 -3.123656 -0.091474
 33   14.298673 -0.408176 0.471578 -0.000076 -0.000041 -0.242988
 34   15.835795 0.581398 0.242756 -0.001570 -0.017448 0.152281
 35   -0.815868 -0.091229 -3.114430 0.355239 3.115486 -0.017097
 36   14.294526 -0.410349 -0.467541 0.000069 0.000048 -0.266349
 37   15.834409 0.579420 -0.284600 0.202556 0.017804 0.241380
 38   1.139685 -3.453749 -2.823813 0.000000 0.000000 0.000001
 39   -4.457742 -1.054854 -0.746180 0.000000 0.000000 0.000000
 40   1.118101 -3.449769 3.237290 0.000000 0.000001 0.000000
 41   -4.433840 -1.059130 0.959566 -0.000001 0.000000 0.000000
 42   -0.657468 1.697302 -2.688614 0.000000 0.000002 0.000000
 43   -0.664068 1.698578 2.869377 0.000000 0.000002 0.000000
time 7
  0   0.329368 0.992218 2.719204 0.000000 0.000000 -1.571354
  1   -1.093036 0.000002 -0.326057 -1.570808 -1.570425 -0.000316
  2   2.262337 0.113614 0.064702 -0.000052 0.000049 -0.260865
  3   2.380047 0.353302 0.047440 -0.133614 0.008086 0.071460
  4   2.033756 0.190472 -0.000128 0.073650 -0.006543 0.072179
  5   2.451511 0.204909 -0.003447 0.000000 -0.000005 -0.017472
  6   7.247600 -0.397300 -0.109469 0.000001 0.000009 -0.209377
  7   -2.022252 -0.104661 3.136172 0.972389 -1.225135 -3.876788
  8   1.168026 -0.537438 -0.063437 -1.047690 0.174204 -0.658224
  9   6.790376 -0.619176 0.015206 -0.000158 -0.000285 -1.326719
 10   8.637599 0.544015 -0.090417 -1.282668 -0.402905 -0.134898
 11   6.790465 -0.619039 0.017802 0.001673 -0.011708 -0.943936
 12   -2.022474 -0.104699 -2.873818 -1.158927 1.101658 -4.048005
 13   1.167898 -0.537463 0.063297 1.070472 -0.331211 -0.618030
 14   7.002743 -0.617765 -0.183752 0.000229 0.000250 -1.277845
 15   8.209042 0.615527 -0.255885 1.836059 0.361135 0.363643
 16   7.002735 -0.617911 -0.183641 0.013967 0.007086 -0.913045
 17   1.574674 0.609930 -0.000899 0.059876 0.001428 0.012004
 18   -0.602177 0.511412 -0.000006 0.000000 0.000000 0.000000
 19   3.673773 0.177020 1.119313 -0.000002 -0.000014 -0.174510
 20   3.673767 0.176993 -1.117566 0.000007 -0.000003 -0.174546
 21   3.942357 1.334540 1.627658 0.000002 -0.000011 -0.000026
 22   -0.246060 -0.011889 0.516521 -0.000011 0.000031 0.000025
 23   3.942374 1.334565 -1.631083 0.000019 0.000002 -0.000024
 24   -0.246150 -0.011872 -0.516511 -0.000005 -0.000006 0.000048
 25   4.941364 1.997338 1.629330 0.000018 -0.000001 -0.000024
 26   4.941382 1.997366 -1.629410 -0.000001 0.000005 -0.000024
 27   2.914462 1.619264 1.514501 -0.000019 -0.000022 -0.000050
 28   2.916892 1.618870 -1.501142 -0.000002 -0.000009 -0.000024
 29   8.824059 0.150544 0.091743 0.000006 -0.000231 -0.174534
 30   2.111085 -0.561179 1.784320 -0.000008 -0.000682 0.000024
 31   2.121290 -0.561289 -1.853599 0.000000 0.000000 -0.000002
 32   -0.814395 -0.093824 3.127092 0.003147 -3.123656 -0.091474
 33   14.298673 -0.408176 0.471578 -0.000076 -0.000041 -0.242988
 34   15.835795 0.581398 0.242756 -0.001570 -0.017448 0.152281
 35   -0.815868 -0.091229 -3.114430 0.355239 3.115486 -0.017097
 36   14.294526 -0.410349 -0.467541 0.000069 0.000048 -0.266349
 37   15.834409 0.579420 -0.284600 0.202556 0.017804 0.241380
 38   1.139685 -3.453749 -2.823813 0.000000 0.000000 0.000001
 39   -4.457742 -1.054854 -0.746180 0.000000 0.000000 0.000000
 40   1.118101 -3.449769 3.237290 0.000000 0.000001 0.000000
 41   -4.433840 -1.059130 0.959566 -0.000001 0.000000 0.000000
 42   -0.657468 1.697302 -2.688614 0.000000 0.000002 0.000000
 43   -0.664068 1.698578 2.869377 0.000000 0.000002 0.000000
time 8
  0   0.317649 0.894559 2.719204 0.000000 0.000000 -1.571354
  1   -1.093036 0.000002 -0.326057 -1.570808 -1.570425 0.000071
  2   2.262337 0.113614 0.064702 -0.000052 0.000049 -0.260865
  3   2.380047 0.353302 0.047440 -0.157946 0.007007 0.056176
  4   2.033756 0.190472 -0.000128 0.059689 -0.004710 0.051736
  5   2.451511 0.204909 -0.003447 0.000000 -0.000005 -0.017472
  6   7.247600 -0.397300 -0.109469 0.000001 0.000009 -0.209377
  7   -2.022252 -0.104661 3.136172 0.888322 -1.259670 -3.796772
  8   1.168026 -0.537438 -0.063437 -0.937392 0.295361 -0.669358
  9   6.790376 -0.619176 0.015206 -0.000158 -0.000285 -1.507766
 10   8.637599 0.544015 -0.090417 -1.237227 -0.402905 -0.134898
 11   6.790465 -0.619039 0.017802 0.002432 -0.011793 -1.070648
 12   -2.022474 -0.104699 -2.873818 -1.158927 1.101658 -4.048005
 13   1.167898 -0.537463 0.063297 0.896137 -0.634304 -0.392780
 14   7.002743 -0.617765 -0.183752 0.000229 0.000250 -1.550855
 15   8.209042 0.615527 -0.255885 1.788675 0.470312 0.253472
 16   7.002735 -0.617911 -0.183641 0.013590 0.008552 -1.104232
 17   1.574674 0.609930 -0.000899 0.097857 0.006895 0.047894
 18   -0.602177 0.511412 -0.000006 0.000000 0.000000 0.000000
 19   3.673773 0.177020 1.119313 -0.000002 -0.000014 -0.174510
 20   3.673767 0.176993 -1.117566 0.000007 -0.000003 -0.174546
 21   3.942357 1.334540 1.627658 0.000002 -0.000011 -0.000026
 22   -0.246060 -0.011889 0.516521 -0.000011 0.000031 0.000025
 23   3.942374 1.334565 -1.631083 0.000019 0.000002 -0.000024
 24   -0.246150 -0.011872 -0.516511 -0.000005 -0.000006 0.000048
 25   4.941364 1.997338 1.629330 0.000018 -0.000001 -0.000024
 26   4.941382 1.997366 -1.629410 -0.000001 0.000005 -0.000024
 27   2.914462 1.619264 1.514501 -0.000019 -0.000022 -0.000050
 28   2.916892 1.618870 -1.501142 -0.000002 -0.000009 -0.000024
 29   8.824059 0.150544 0.091743 0.000006 -0.000231 -0.174534
 30   2.111085 -0.561179 1.784320 -0.000008 -0.000682 0.000024
 31   2.121290 -0.561289 -1.853599 0.000000 0.000000 -0.000002
 32   -0.814395 -0.093824 3.127092 0.003147 -3.123656 -0.091474
 33   14.298673 -0.408176 0.471578 -0.000076 -0.000041 -0.242988
 34   15.835795 0.581398 0.242756 -0.001570 -0.017448 0.152281
 35   -0.815868 -0.091229 -3.114430 0.355239 3.115486 -0.017097
 36   14.294526 -0.410349 -0.467541 0.000069 0.000048 -0.266349
 37   15.834409 0.579420 -0.284600 0.202556 0.017804 0.241380
 38   1.139685 -3.453749 -2.823813 0.000000 0.000000 0.000001
 39   -4.457742 -1.054854 -0.746180 0.000000 0.000000 0.000000
 40   1.118101 -3.449769 3.237290 0.000000 0.000001 0.000000
 41   -4.433840 -1.059130 0.959566 -0.000001 0.000000 0.000000
 42   -0.657468 1.697302 -2.688614 0.000000 0.000002 0.000000
 43   -0.664068 1.698578 2.869377 0.000000 0.000002 0.000000
time 9
  0   0.317649 0.769555 2.719204 0.000000 0.000000 -1.571354
  1   -1.093036 0.000002 -0.326057 -1.570808 -1.570425 -0.000074
  2   2.262337 0.113614 0.064702 -0.000052 0.000049 -0.260865
  3   2.380047 0.353302 0.047440 -0.184917 0.005149 0.039281
  4   2.033756 0.190472 -0.000128 0.044197 -0.002840 0.029407
  5   2.451511 0.204909 -0.003447 0.000000 -0.000005 -0.017472
  6   7.247600 -0.397300 -0.109469 0.000001 0.000009 -0.209377
  7   -2.022252 -0.104661 3.136172 0.861098 -1.269240 -3.771039
  8   1.168026 -0.537438 -0.063437 -0.888919 0.421851 -0.720156
  9   6.790376 -0.619176 0.015206 -0.000158 -0.000285 -1.671681
 10   8.637599 0.544015 -0.090417 -1.193987 -0.402905 -0.134898
 11   6.790465 -0.619039 0.017802 0.003191 -0.011850 -1.185421
 12   -2.022474 -0.104699 -2.873818 -1.158927 1.101658 -4.048005
 13   1.167898 -0.537463 0.063297 0.674423 -0.809397 -0.220498
 14   7.002743 -0.617765 -0.183752 0.000229 0.000250 -1.765699
 15   8.209042 0.615527 -0.255885 1.739422 0.552176 0.158034
 16   7.002735 -0.617911 -0.183641 0.013308 0.009849 -1.254633
 17   1.574674 0.609930 -0.000899 0.139941 0.011652 0.087959
 18   -0.602177 0.511412 -0.000006 0.000000 0.000000 0.000000
 19   3.673773 0.177020 1.119313 -0.000002 -0.000014 -0.174510
 20   3.673767 0.176993 -1.117566 0.000007 -0.000003 -0.174546
 21   3.942357 1.334540 1.627658 0.000002 -0.000011 -0.000026
 22   -0.246060 -0.011889 0.516521 -0.000011 0.000031 0.000025
 23   3.942374 1.334565 -1.631083 0.000019 0.000002 -0.000024
 24   -0.246150 -0.011872 -0.516511 -0.000005 -0.000006 0.000048
 25   4.941364 1.997338 1.629330 0.000018 -0.000001 -0.000024
 26   4.941382 1.997366 -1.629410 -0.000001 0.000005 -0.000024
 27   2.914462 1.619264 1.514501 -0.000019 -0.000022 -0.000050
 28   2.916892 1.618870 -1.501142 -0.000002 -0.000009 -0.000024
 29   8.824059 0.150544 0.091743 0.000006 -0.000231 -0.174534
 30   2.111085 -0.561179 1.784320 -0.000008 -0.000682 0.000024
 31   2.121290 -0.561289 -1.853599 0.000000 0.000000 -0.000002
 32   -0.814395 -0.093824 3.127092 0.003147 -3.123656 -0.091474
 33   14.298673 -0.408176 0.471578 -0.000076 -0.000041 -0.242988
 34   15.835795 0.581398 0.242756 -0.001570 -0.017448 0.152281
 35   -0.815868 -0.091229 -3.114430 0.355239 3.115486 -0.017097
 36   14.294526 -0.410349 -0.467541 0.000069 0.000048 -0.266349
 37   15.834409 0.579420 -0.284600 0.202556 0.017804 0.241380
 38   1.139685 -3.453749 -2.823813 0.000000 0.000000 0.000001
 39   -4.457742 -1.054854 -0.746180 0.000000 0.000000 0.000000
 40   1.118101 -3.449769 3.237290 0.000000 0.000001 0.000000
 41   -4.433840 -1.059130 0.959566 -0.000001 0.000000 0.000000
 42   -0.657468 1.697302 -2.688614 0.000000 0.000002 0.000000
 43   -0.664068 1.698578 2.869377 0.000000 0.000002 0.000000
time 10
  0   0.286398 0.644551 2.719204 0.000000 0.000000 -1.571354
  1   -1.093036 0.000002 -0.326057 -1.570808 -1.570425 -0.000171
  2   2.262337 0.113614 0.064702 -0.000052 0.000049 -0.260865
  3   2.380047 0.353302 0.047440 -0.212444 0.003064 0.022201
  4   2.033756 0.190472 -0.000128 0.028355 -0.001570 0.006173
  5   2.451511 0.204909 -0.003447 0.000000 -0.000005 -0.017472
  6   7.247600 -0.397300 -0.109469 0.000001 0.000009 -0.209377
  7   -2.022252 -0.104661 3.136172 0.873177 -1.265003 -3.782590
  8   1.168026 -0.537438 -0.063437 -0.899487 0.549851 -0.809353
  9   6.790376 -0.619176 0.015206 -0.000158 -0.000285 -1.825559
 10   8.637599 0.544015 -0.090417 -1.151980 -0.402905 -0.134898
 11   6.790465 -0.619039 0.017802 0.003892 -0.011879 -1.293215
 12   -2.022474 -0.104699 -2.873818 -1.158927 1.101658 -4.048005
 13   1.167898 -0.537463 0.063297 0.396893 -0.933126 -0.044342
 14   7.002743 -0.617765 -0.183752 0.000229 0.000250 -1.981698
 15   8.209042 0.615527 -0.255885 1.677873 0.629954 0.051711
 16   7.002735 -0.617911 -0.183641 0.012931 0.011146 -1.405861
 17   1.574674 0.609930 -0.000899 0.183365 0.015131 0.129097
 18   -0.602177 0.511412 -0.000006 0.000000 0.000000 0.000000
 19   3.673773 0.177020 1.119313 -0.000002 -0.000014 -0.174510
 20   3.673767 0.176993 -1.117566 0.000007 -0.000003 -0.174546
 21   3.942357 1.334540 1.627658 0.000002 -0.000011 -0.000026
 22   -0.246060 -0.011889 0.516521 -0.000011 0.000031 0.000025
 23   3.942374 1.334565 -1.631083 0.000019 0.000002 -0.000024
 24   -0.246150 -0.011872 -0.516511 -0.000005 -0.000006 0.000048
 25   4.941364 1.997338 1.629330 0.000018 -0.000001 -0.000024
 26   4.941382 1.997366 -1.629410 -0.000001 0.000005 -0.000024
 27   2.914462 1.619264 1.514501 -0.000019 -0.000022 -0.000050
 28   2.916892 1.618870 -1.501142 -0.000002 -0.000009 -0.000024
 29   8.824059 0.150544 0.091743 0.000006 -0.000231 -0.174534
 30   2.111085 -0.561179 1.784320 -0.000008 -0.000682 0.000024
 31   2.121290 -0.561289 -1.853599 0.000000 0.000000 -0.000002
 32   -0.814395 -0.093824 3.127092 0.003147 -3.123656 -0.091474
 33   14.298673 -0.408176 0.471578 -0.000076 -0.000041 -0.242988
 34   15.835795 0.581398 0.242756 -0.001570 -0.017448 0.152281
 35   -0.815868 -0.091229 -3.114430 0.355239 3.115486 -0.017097
 36   14.294526 -0.410349 -0.467541 0.000069 0.000048 -0.266349
 37   15.834409 0.579420 -0.284600 0.202556 0.017804 0.241380
 38   1.139685 -3.453749 -2.823813 0.000000 0.000000 0.000001
 39   -4.457742 -1.054854 -0.746180 0.000000 0.000000 0.000000
 40   1.118101 -3.449769 3.237290 0.000000 0.000001 0.000000
 41   -4.433840 -1.059130 0.959566 -0.000001 0.000000 0.000000
 42   -0.657468 1.697302 -2.688614 0.000000 0.000002 0.000000
 43   -0.664068 1.698578 2.869377 0.000000 0.000002 0.000000
time 11
  0   0.274679 0.527360 2.719204 0.000000 0.000000 -1.571354
  1   -1.093036 0.000002 -0.326057 -1.570808 -1.570425 0.000022
  2   2.262337 0.113614 0.064702 -0.000052 0.000049 -0.260865
  3   2.380047 0.353302 0.047440 -0.238636 0.000367 0.005815
  4   2.033756 0.190472 -0.000128 0.013232 -0.000431 -0.015865
  5   2.451511 0.204909 -0.003447 0.000000 -0.000005 -0.017472
  6   7.247600 -0.397300 -0.109469 0.000001 0.000009 -0.209377
  7   -2.022252 -0.104661 3.136172 0.895032 -1.257306 -3.803064
  8   1.168026 -0.537438 -0.063437 -0.955427 0.672769 -0.930560
  9   6.790376 -0.619176 0.015206 -0.000158 -0.000285 -1.977023
 10   8.637599 0.544015 -0.090417 -1.110766 -0.402905 -0.134898
 11   6.790465 -0.619039 0.017802 0.004621 -0.011935 -1.399221
 12   -2.022474 -0.104699 -2.873818 -1.158927 1.101658 -4.048005
 13   1.167898 -0.537463 0.063297 0.060877 -1.013984 0.176005
 14   7.002743 -0.617765 -0.183752 0.000229 0.000250 -2.198357
 15   8.209042 0.615527 -0.255885 1.602375 0.701452 -0.067000
 16   7.002735 -0.617911 -0.183641 0.012461 0.012499 -1.557475
 17   1.574674 0.609930 -0.000899 0.224758 0.017190 0.167499
 18   -0.602177 0.511412 -0.000006 0.000000 0.000000 0.000000
 19   3.673773 0.177020 1.119313 -0.000002 -0.000014 -0.174510
 20   3.673767 0.176993 -1.117566 0.000007 -0.000003 -0.174546
 21   3.942357 1.334540 1.627658 0.000002 -0.000011 -0.000026
 22   -0.246060 -0.011889 0.516521 -0.000011 0.000031 0.000025
 23   3.942374 1.334565 -1.631083 0.000019 0.000002 -0.000024
 24   -0.246150 -0.011872 -0.516511 -0.000005 -0.000006 0.000048
 25   4.941364 1.997338 1.629330 0.000018 -0.000001 -0.000024
 26   4.941382 1.997366 -1.629410 -0.000001 0.000005 -0.000024
 27   2.914462 1.619264 1.514501 -0.000019 -0.000022 -0.000050
 28   2.916892 1.618870 -1.501142 -0.000002 -0.000009 -0.000024
 29   8.824059 0.150544 0.091743 0.000006 -0.000231 -0.174534
 30   2.111085 -0.561179 1.784320 -0.000008 -0.000682 0.000024
 31   2.121290 -0.561289 -1.853599 0.000000 0.000000 -0.000002
 32   -0.814395 -0.093824 3.127092 0.003147 -3.123656 -0.091474
 33   14.298673 -0.408176 0.471578 -0.000076 -0.000041 -0.242988
 34   15.835795 0.581398 0.242756 -0.001570 -0.017448 0.152281
 35   -0.815868 -0.091229 -3.114430 0.355239 3.115486 -0.017097
 36   14.294526 -0.410349 -0.467541 0.000069 0.000048 -0.266349
 37   15.834409 0.579420 -0.284600 0.202556 0.017804 0.241380
 38   1.139685 -3.453749 -2.823813 0.000000 0.000000 0.000001
 39   -4.457742 -1.054854 -0.746180 0.000000 0.000000 0.000000
 40   1.118101 -3.449769 3.237290 0.000000 0.000001 0.000000
 41   -4.433840 -1.059130 0.959566 -0.000001 0.000000 0.000000
 42   -0.657468 1.697302 -2.688614 0.000000 0.000002 0.000000
 43   -0.664068 1.698578 2.869377 0.000000 0.000002 0.000000
time 12
  0   0.243428 0.429701 2.719204 0.000000 0.000000 -1.571354
  1   -1.093036 0.000002 -0.326057 -1.570808 -1.570425 -0.000026
  2   2.262337 0.113614 0.064702 -0.000052 0.000049 -0.260865
  3   2.380047 0.353302 0.047440 -0.261678 -0.001922 -0.008489
  4   2.033756 0.190472 -0.000128 -0.000010 0.000024 -0.035003
  5   2.451511 0.204909 -0.003447 0.000000 -0.000005 -0.017472
  6   7.247600 -0.397300 -0.109469 0.000001 0.000009 -0.209377
  7   -2.022252 -0.104661 3.136172 0.897141 -1.256499 -3.804848
  8   1.168026 -0.537438 -0.063437 -1.025605 0.790756 -1.063724
  9   6.790376 -0.619176 0.015206 -0.000158 -0.000285 -2.133240
 10   8.637599 0.544015 -0.090417 -1.068495 -0.402905 -0.134898
 11   6.790465 -0.619039 0.017802 0.005381 -0.011935 -1.508573
 12   -2.022474 -0.104699 -2.873818 -1.158927 1.101658 -4.048005
 13   1.167898 -0.537463 0.063297 -0.331306 -1.036259 0.471233
 14   7.002743 -0.617765 -0.183752 0.000229 0.000250 -2.415017
 15   8.209042 0.615527 -0.255885 1.510699 0.765006 -0.200505
 16   7.002735 -0.617911 -0.183641 0.011943 0.013965 -1.709200
 17   1.574674 0.609930 -0.000899 0.260992 0.017900 0.201984
 18   -0.602177 0.511412 -0.000006 0.000000 0.000000 0.000000
 19   3.673773 0.177020 1.119313 -0.000002 -0.000014 -0.174510
 20   3.673767 0.176993 -1.117566 0.000007 -0.000003 -0.174546
 21   3.942357 1.334540 1.627658 0.000002 -0.000011 -0.000026
 22   -0.246060 -0.011889 0.516521 -0.000011 0.000031 0.000025
 23   3.942374 1.334565 -1.631083 0.000019 0.000002 -0.000024
 24   -0.246150 -0.011872 -0.516511 -0.000005 -0.000006 0.000048
 25   4.941364 1.997338 1.629330 0.000018 -0.000001 -0.000024
 26   4.941382 1.997366 -1.629410 -0.000001 0.000005 -0.000024
 27   2.914462 1.619264 1.514501 -0.000019 -0.000022 -0.000050
 28   2.916892 1.618870 -1.501142 -0.000002 -0.000009 -0.000024
 29   8.824059 0.150544 0.091743 0.000006 -0.000231 -0.174534
 30   2.111085 -0.561179 1.784320 -0.000008 -0.000682 0.000024
 31   2.121290 -0.561289 -1.853599 0.000000 0.000000 -0.000002
 32   -0.814395 -0.093824 3.127092 0.003147 -3.123656 -0.091474
 33   14.298673 -0.408176 0.471578 -0.000076 -0.000041 -0.242988
 34   15.835795 0.581398 0.242756 -0.001570 -0.017448 0.152281
 35   -0.815868 -0.091229 -3.114430 0.355239 3.115486 -0.017097
 36   14.294526 -0.410349 -0.467541 0.000069 0.000048 -0.266349
 37   15.834409 0.579420 -0.284600 0.202556 0.017804 0.241380
 38   1.139685 -3.453749 -2.823813 0.000000 0.000000 0.000001
 39   -4.457742 -1.054854 -0.746180 0.000000 0.000000 0.000000
 40   1.118101 -3.449769 3.237290 0.000000 0.000001 0.000000
 41   -4.433840 -1.059130 0.959566 -0.000001 0.000000 0.000000
 42   -0.657468 1.697302 -2.688614 0.000000 0.000002 0.000000
 43   -0.664068 1.698578 2.869377 0.000000 0.000002 0.000000
end
