version 1
nodes
  0 "Bip01" -1
  1 "Bip01 Pelvis" 0
  2 "Bip01 Spine" 1
  3 "Bip01 Spine1" 2
  4 "Bip01 Spine2" 3
  5 "Bip01 Spine3" 4
  6 "Bip01 Neck" 5
  7 "Bip01 L Arm" 6
  8 "Bip01 L Arm1" 7
  9 "Bip01 L Arm2" 8
 10 "Bip01 L Hand" 9
 11 "Bip06 L elbow2-smooth" 8
 12 "Bip01 R Arm" 6
 13 "Bip01 R Arm1" 12
 14 "Bip01 R Arm2" 13
 15 "Bip01 R Hand" 14
 16 "Bip06 R elbow2-smooth" 13
 17 "Bip01 Head" 6
 18 "Bip06 Head_helper" 17
 19 "Bip06 Head_eyes_l" 18
 20 "Bip06 Head_eyes_r" 18
 21 "Bip06 Head_blink_l" 18
 22 "Bip06 Head_blink_smooth_l1" 21
 23 "Bip06 Head_blink_r" 18
 24 "Bip06 Head_blink_smooth_r1" 23
 25 "Bip06 Head_L_eyebrow" 18
 26 "Bip06 Head_R_eyebrow" 18
 27 "Bip06 Head_blink_l_lid" 18
 28 "Bip06 Head_blink_r_lid" 18
 29 "Bip06 bunny" 18
 30 "Bip06 bunnyL" 29
 31 "Bip06 bunnyR" 29
 32 "Bip01 L Leg" 1
 33 "Bip01 L Leg1" 32
 34 "Bip01 L Foot" 33
 35 "Bip01 R Leg" 1
 36 "Bip01 R Leg1" 35
 37 "Bip01 R Foot" 36
 38 "Bip03 HairR1" 17
 39 "Bip03 HairR2" 38
 40 "Bip03 HairL1" 17
 41 "Bip03 HairL2" 40
 42 "Bip03 swingR" 17
 43 "Bip03 swingL" 17
end
skeleton
time 0
  0   -0.010486 -0.546892 1.863709 0.000000 0.000000 -1.571354
  1   -1.093036 0.000002 -0.326057 -1.570808 -1.570425 -0.000026
  2   2.262337 0.113614 0.064702 -0.000052 0.000049 0.192424
  3   2.380047 0.353302 0.047440 0.000000 -0.000040 0.060951
  4   2.033756 0.190472 -0.000128 -0.171747 0.030093 0.171532
  5   2.451511 0.204909 -0.003447 -0.138715 0.014461 0.103433
  6   7.247600 -0.397300 -0.109469 0.000001 0.000009 0.052298
  7   -2.022252 -0.104661 3.136172 0.914683 -1.249868 -4.083968
  8   1.168026 -0.537438 -0.063437 0.147615 0.654706 -0.666448
  9   6.790376 -0.619176 0.015206 -0.000158 -0.000285 -0.901309
 10   8.637599 0.544015 -0.090417 -4.170843 0.082719 -0.332470
 11   6.790465 -0.619039 0.017802 -0.000079 -0.011452 -0.646160
 12   -2.022474 -0.104699 -2.873818 0.839608 1.276005 -2.377323
 13   1.167898 -0.537463 0.063297 -1.142595 -1.002288 0.309908
 14   7.002743 -0.617765 -0.183752 0.000229 0.000250 -1.839294
 15   8.209042 0.615527 -0.255885 1.567142 0.432709 0.065062
 16   7.002735 -0.617911 -0.183641 0.013167 0.010300 -1.306238
 17   1.574674 0.609930 -0.000899 0.249415 -0.190321 0.382982
 18   -0.602177 0.511412 -0.000006 0.000000 0.000000 0.000000
 19   3.673773 0.177020 1.119313 -0.000002 -0.000014 -0.174510
 20   3.673767 0.176993 -1.117566 0.000007 -0.000003 -0.174546
 21   3.942357 1.334540 1.627658 0.000002 -0.000011 -0.000026
 22   -0.246060 -0.011889 0.516521 -0.000011 0.000031 0.000025
 23   3.942374 1.334565 -1.631083 0.000019 0.000002 -0.000024
 24   -0.246150 -0.011872 -0.516511 -0.000005 -0.000006 0.000048
 25   4.941364 1.997338 1.629330 0.000018 -0.000001 -0.000024
 26   4.941382 1.997366 -1.629410 -0.000001 0.000005 -0.000024
 27   2.914462 1.619264 1.514501 -0.000019 -0.000022 -0.000050
 28   2.916892 1.618870 -1.501142 -0.000002 -0.000009 -0.000024
 29   8.824059 0.150544 0.091743 0.000006 -0.000231 -0.174534
 30   2.111085 -0.561179 1.784320 -0.000008 -0.000682 0.000024
 31   2.121290 -0.561289 -1.853599 0.000000 0.000000 -0.000002
 32   -0.814395 -0.093824 3.127092 0.262921 -3.097582 -0.334816
 33   14.298673 -0.408176 0.471578 0.003687 -0.003117 -0.522469
 34   15.835795 0.581398 0.242756 -0.001271 0.032067 0.122292
 35   -0.815868 -0.091229 -3.114430 -0.132889 3.034913 -0.011455
 36   14.294526 -0.410349 -0.467541 -0.002676 0.001857 -0.384764
 37   15.834409 0.579420 -0.284600 -0.034128 0.026558 0.304555
 38   1.139685 -3.453749 -2.823813 0.000000 0.000000 0.000001
 39   -4.457742 -1.054854 -0.746180 0.000000 0.000000 0.000000
 40   1.118101 -3.449769 3.237290 0.000000 0.000001 0.000000
 41   -4.433840 -1.059130 0.959566 -0.000001 0.000000 0.000000
 42   -0.657468 1.697302 -2.688614 0.000000 0.000002 0.000000
 43   -0.664068 1.698578 2.869377 0.000000 0.000002 0.000000
time 1
  0   -0.010486 -0.546892 1.863709 0.000000 0.000000 -1.571354
  1   -1.093036 0.000002 -0.326057 -1.570808 -1.570425 -0.000026
  2   2.262337 0.113614 0.064702 -0.000052 0.000049 0.157583
  3   2.380047 0.353302 0.047440 0.000000 -0.000040 0.060951
  4   2.033756 0.190472 -0.000128 -0.243212 0.021225 0.084358
  5   2.451511 0.204909 -0.003447 -0.139297 0.007358 0.051599
  6   7.247600 -0.397300 -0.109469 0.000001 0.000009 0.052298
  7   -2.022252 -0.104661 3.136172 0.914683 -1.249868 -4.083968
  8   1.168026 -0.537438 -0.063437 0.140401 0.869095 -0.702443
  9   6.790376 -0.619176 0.015206 -0.000158 -0.000285 -0.886669
 10   8.637599 0.544015 -0.090417 -4.170843 0.082719 -0.332470
 11   6.790465 -0.619039 0.017802 -0.000108 -0.011452 -0.635894
 12   -2.022474 -0.104699 -2.873818 1.219387 1.038183 -2.026336
 13   1.167898 -0.537463 0.063297 -1.342658 -0.221620 0.211902
 14   7.002743 -0.617765 -0.183752 0.000229 0.000250 -2.348847
 15   8.209042 0.615527 -0.255885 1.993526 0.427943 0.104452
 16   7.002735 -0.617911 -0.183641 0.012131 0.013458 -1.662838
 17   1.574674 0.609930 -0.000899 0.288371 -0.255997 0.544613
 18   -0.602177 0.511412 -0.000006 0.000000 0.000000 0.000000
 19   3.673773 0.177020 1.119313 -0.000002 -0.000014 -0.174510
 20   3.673767 0.176993 -1.117566 0.000007 -0.000003 -0.174546
 21   3.942357 1.334540 1.627658 0.000002 -0.000011 -0.000026
 22   -0.246060 -0.011889 0.516521 -0.000011 0.000031 0.000025
 23   3.942374 1.334565 -1.631083 0.000019 0.000002 -0.000024
 24   -0.246150 -0.011872 -0.516511 -0.000005 -0.000006 0.000048
 25   4.941364 1.997338 1.629330 0.000018 -0.000001 -0.000024
 26   4.941382 1.997366 -1.629410 -0.000001 0.000005 -0.000024
 27   2.914462 1.619264 1.514501 -0.000019 -0.000022 -0.000050
 28   2.916892 1.618870 -1.501142 -0.000002 -0.000009 -0.000024
 29   8.824059 0.150544 0.091743 0.000006 -0.000231 -0.174534
 30   2.111085 -0.561179 1.784320 -0.000008 -0.000682 0.000024
 31   2.121290 -0.561289 -1.853599 0.000000 0.000000 -0.000002
 32   -0.814395 -0.093824 3.127092 0.262921 -3.097582 -0.334816
 33   14.298673 -0.408176 0.471578 0.003687 -0.003117 -0.522469
 34   15.835795 0.581398 0.242756 -0.001271 0.032067 0.122292
 35   -0.815868 -0.091229 -3.114430 -0.132889 3.034913 -0.011455
 36   14.294526 -0.410349 -0.467541 -0.002676 0.001857 -0.384764
 37   15.834409 0.579420 -0.284600 -0.034128 0.026558 0.304555
 38   1.139685 -3.453749 -2.823813 0.000000 0.000000 0.000001
 39   -4.457742 -1.054854 -0.746180 0.000000 0.000000 0.000000
 40   1.118101 -3.449769 3.237290 0.000000 0.000001 0.000000
 41   -4.433840 -1.059130 0.959566 -0.000001 0.000000 0.000000
 42   -0.657468 1.697302 -2.688614 0.000000 0.000002 0.000000
 43   -0.664068 1.698578 2.869377 0.000000 0.000002 0.000000
time 2
  0   -0.010486 -0.546892 1.863709 0.000000 0.000000 -1.571354
  1   -1.093036 0.000002 -0.326057 -1.570808 -1.570425 -0.000026
  2   2.262337 0.113614 0.064702 -0.000052 0.000049 0.150120
  3   2.380047 0.353302 0.047440 0.000000 -0.000040 0.060951
  4   2.033756 0.190472 -0.000128 -0.171286 0.015928 0.095848
  5   2.451511 0.204909 -0.003447 -0.088426 0.005883 0.075473
  6   7.247600 -0.397300 -0.109469 0.000001 0.000009 0.052298
  7   -2.022252 -0.104661 3.136172 0.914683 -1.249868 -4.083968
  8   1.168026 -0.537438 -0.063437 0.046809 0.723033 -0.815426
  9   6.790376 -0.619176 0.015206 -0.000158 -0.000285 -1.303626
 10   8.637599 0.544015 -0.090417 -4.170843 0.082719 -0.332470
 11   6.790465 -0.619039 0.017802 0.001556 -0.011708 -0.927729
 12   -2.022474 -0.104699 -2.873818 1.179915 1.081515 -2.060515
 13   1.167898 -0.537463 0.063297 -1.194193 -0.548564 0.250039
 14   7.002743 -0.617765 -0.183752 0.000229 0.000250 -2.238538
 15   8.209042 0.615527 -0.255885 1.821247 0.489757 -0.183786
 16   7.002735 -0.617911 -0.183641 0.012413 0.012781 -1.585624
 17   1.574674 0.609930 -0.000899 0.193358 -0.175269 0.539143
 18   -0.602177 0.511412 -0.000006 0.000000 0.000000 0.000000
 19   3.673773 0.177020 1.119313 -0.000002 -0.000014 -0.174510
 20   3.673767 0.176993 -1.117566 0.000007 -0.000003 -0.174546
 21   3.942357 1.334540 1.627658 0.000002 -0.000011 -0.000026
 22   -0.246060 -0.011889 0.516521 -0.000011 0.000031 0.000025
 23   3.942374 1.334565 -1.631083 0.000019 0.000002 -0.000024
 24   -0.246150 -0.011872 -0.516511 -0.000005 -0.000006 0.000048
 25   4.941364 1.997338 1.629330 0.000018 -0.000001 -0.000024
 26   4.941382 1.997366 -1.629410 -0.000001 0.000005 -0.000024
 27   2.914462 1.619264 1.514501 -0.000019 -0.000022 -0.000050
 28   2.916892 1.618870 -1.501142 -0.000002 -0.000009 -0.000024
 29   8.824059 0.150544 0.091743 0.000006 -0.000231 -0.174534
 30   2.111085 -0.561179 1.784320 -0.000008 -0.000682 0.000024
 31   2.121290 -0.561289 -1.853599 0.000000 0.000000 -0.000002
 32   -0.814395 -0.093824 3.127092 0.262921 -3.097582 -0.334816
 33   14.298673 -0.408176 0.471578 0.003687 -0.003117 -0.522469
 34   15.835795 0.581398 0.242756 -0.001271 0.032067 0.122292
 35   -0.815868 -0.091229 -3.114430 -0.132889 3.034913 -0.011455
 36   14.294526 -0.410349 -0.467541 -0.002676 0.001857 -0.384764
 37   15.834409 0.579420 -0.284600 -0.034128 0.026558 0.304555
 38   1.139685 -3.453749 -2.823813 0.000000 0.000000 0.000001
 39   -4.457742 -1.054854 -0.746180 0.000000 0.000000 0.000000
 40   1.118101 -3.449769 3.237290 0.000000 0.000001 0.000000
 41   -4.433840 -1.059130 0.959566 -0.000001 0.000000 0.000000
 42   -0.657468 1.697302 -2.688614 0.000000 0.000002 0.000000
 43   -0.664068 1.698578 2.869377 0.000000 0.000002 0.000000
time 3
  0   -0.010486 -0.546892 1.863709 0.000000 0.000000 -1.571354
  1   -1.093036 0.000002 -0.326057 -1.570808 -1.570425 -0.000026
  2   2.262337 0.113614 0.064702 -0.000052 0.000049 0.152849
  3   2.380047 0.353302 0.047440 0.000000 -0.000040 0.060951
  4   2.033756 0.190472 -0.000128 -0.103731 0.012931 0.123903
  5   2.451511 0.204909 -0.003447 -0.052001 0.005478 0.104275
  6   7.247600 -0.397300 -0.109469 0.000001 0.000009 0.052298
  7   -2.022252 -0.104661 3.136172 0.914683 -1.249868 -4.083968
  8   1.168026 -0.537438 -0.063437 -0.122656 0.514128 -0.943719
  9   6.790376 -0.619176 0.015206 -0.000158 -0.000285 -1.195783
 10   8.637599 0.544015 -0.090417 -4.170843 0.082719 -0.332470
 11   6.790465 -0.619039 0.017802 0.001118 -0.011623 -0.852175
 12   -2.022474 -0.104699 -2.873818 1.075102 1.168007 -2.155586
 13   1.167898 -0.537463 0.063297 -0.920881 -0.937499 0.166138
 14   7.002743 -0.617765 -0.183752 0.000229 0.000250 -2.043247
 15   8.209042 0.615527 -0.255885 1.590079 0.485520 -0.408640
 16   7.002735 -0.617911 -0.183641 0.012790 0.011484 -1.448966
 17   1.574674 0.609930 -0.000899 0.116055 -0.105144 0.491722
 18   -0.602177 0.511412 -0.000006 0.000000 0.000000 0.000000
 19   3.673773 0.177020 1.119313 -0.000002 -0.000014 -0.174510
 20   3.673767 0.176993 -1.117566 0.000007 -0.000003 -0.174546
 21   3.942357 1.334540 1.627658 0.000002 -0.000011 -0.000026
 22   -0.246060 -0.011889 0.516521 -0.000011 0.000031 0.000025
 23   3.942374 1.334565 -1.631083 0.000019 0.000002 -0.000024
 24   -0.246150 -0.011872 -0.516511 -0.000005 -0.000006 0.000048
 25   4.941364 1.997338 1.629330 0.000018 -0.000001 -0.000024
 26   4.941382 1.997366 -1.629410 -0.000001 0.000005 -0.000024
 27   2.914462 1.619264 1.514501 -0.000019 -0.000022 -0.000050
 28   2.916892 1.618870 -1.501142 -0.000002 -0.000009 -0.000024
 29   8.824059 0.150544 0.091743 0.000006 -0.000231 -0.174534
 30   2.111085 -0.561179 1.784320 -0.000008 -0.000682 0.000024
 31   2.121290 -0.561289 -1.853599 0.000000 0.000000 -0.000002
 32   -0.814395 -0.093824 3.127092 0.262921 -3.097582 -0.334816
 33   14.298673 -0.408176 0.471578 0.003687 -0.003117 -0.522469
 34   15.835795 0.581398 0.242756 -0.001271 0.032067 0.122292
 35   -0.815868 -0.091229 -3.114430 -0.132889 3.034913 -0.011455
 36   14.294526 -0.410349 -0.467541 -0.002676 0.001857 -0.384764
 37   15.834409 0.579420 -0.284600 -0.034128 0.026558 0.304555
 38   1.139685 -3.453749 -2.823813 0.000000 0.000000 0.000001
 39   -4.457742 -1.054854 -0.746180 0.000000 0.000000 0.000000
 40   1.118101 -3.449769 3.237290 0.000000 0.000001 0.000000
 41   -4.433840 -1.059130 0.959566 -0.000001 0.000000 0.000000
 42   -0.657468 1.697302 -2.688614 0.000000 0.000002 0.000000
 43   -0.664068 1.698578 2.869377 0.000000 0.000002 0.000000
time 4
  0   -0.010486 -0.546892 1.863709 0.000000 0.000000 -1.571354
  1   -1.093036 0.000002 -0.326057 -1.570808 -1.570425 -0.000026
  2   2.262337 0.113614 0.064702 -0.000052 0.000049 0.163294
  3   2.380047 0.353302 0.047440 0.000000 -0.000040 0.060951
  4   2.033756 0.190472 -0.000128 -0.110038 0.016407 0.140504
  5   2.451511 0.204909 -0.003447 -0.067954 0.007515 0.108832
  6   7.247600 -0.397300 -0.109469 0.000001 0.000009 0.052298
  7   -2.022252 -0.104661 3.136172 0.914683 -1.249868 -4.083968
  8   1.168026 -0.537438 -0.063437 -0.061907 0.537826 -0.890453
  9   6.790376 -0.619176 0.015206 -0.000158 -0.000285 -1.096619
 10   8.637599 0.544015 -0.090417 -4.170843 0.082719 -0.332470
 11   6.790465 -0.619039 0.017802 0.000680 -0.011623 -0.782850
 12   -2.022474 -0.104699 -2.873818 0.989546 1.216999 -2.234956
 13   1.167898 -0.537463 0.063297 -0.919897 -1.018561 0.179758
 14   7.002743 -0.617765 -0.183752 0.000229 0.000250 -1.946881
 15   8.209042 0.615527 -0.255885 1.548591 0.464032 -0.292334
 16   7.002735 -0.617911 -0.183641 0.012978 0.010920 -1.381521
 17   1.574674 0.609930 -0.000899 0.135066 -0.117900 0.457754
 18   -0.602177 0.511412 -0.000006 0.000000 0.000000 0.000000
 19   3.673773 0.177020 1.119313 -0.000002 -0.000014 -0.174510
 20   3.673767 0.176993 -1.117566 0.000007 -0.000003 -0.174546
 21   3.942357 1.334540 1.627658 0.000002 -0.000011 -0.000026
 22   -0.246060 -0.011889 0.516521 -0.000011 0.000031 0.000025
 23   3.942374 1.334565 -1.631083 0.000019 0.000002 -0.000024
 24   -0.246150 -0.011872 -0.516511 -0.000005 -0.000006 0.000048
 25   4.941364 1.997338 1.629330 0.000018 -0.000001 -0.000024
 26   4.941382 1.997366 -1.629410 -0.000001 0.000005 -0.000024
 27   2.914462 1.619264 1.514501 -0.000019 -0.000022 -0.000050
 28   2.916892 1.618870 -1.501142 -0.000002 -0.000009 -0.000024
 29   8.824059 0.150544 0.091743 0.000006 -0.000231 -0.174534
 30   2.111085 -0.561179 1.784320 -0.000008 -0.000682 0.000024
 31   2.121290 -0.561289 -1.853599 0.000000 0.000000 -0.000002
 32   -0.814395 -0.093824 3.127092 0.262921 -3.097582 -0.334816
 33   14.298673 -0.408176 0.471578 0.003687 -0.003117 -0.522469
 34   15.835795 0.581398 0.242756 -0.001271 0.032067 0.122292
 35   -0.815868 -0.091229 -3.114430 -0.132889 3.034913 -0.011455
 36   14.294526 -0.410349 -0.467541 -0.002676 0.001857 -0.384764
 37   15.834409 0.579420 -0.284600 -0.034128 0.026558 0.304555
 38   1.139685 -3.453749 -2.823813 0.000000 0.000000 0.000001
 39   -4.457742 -1.054854 -0.746180 0.000000 0.000000 0.000000
 40   1.118101 -3.449769 3.237290 0.000000 0.000001 0.000000
 41   -4.433840 -1.059130 0.959566 -0.000001 0.000000 0.000000
 42   -0.657468 1.697302 -2.688614 0.000000 0.000002 0.000000
 43   -0.664068 1.698578 2.869377 0.000000 0.000002 0.000000
time 5
  0   -0.010486 -0.546892 1.863709 0.000000 0.000000 -1.571354
  1   -1.093036 0.000002 -0.326057 -1.570808 -1.570425 -0.000026
  2   2.262337 0.113614 0.064702 -0.000052 0.000049 0.177841
  3   2.380047 0.353302 0.047440 0.000000 -0.000040 0.060951
  4   2.033756 0.190472 -0.000128 -0.140911 0.022963 0.156236
  5   2.451511 0.204909 -0.003447 -0.103352 0.011184 0.106182
  6   7.247600 -0.397300 -0.109469 0.000001 0.000009 0.052298
  7   -2.022252 -0.104661 3.136172 0.914683 -1.249868 -4.083968
  8   1.168026 -0.537438 -0.063437 0.039342 0.598303 -0.783986
  9   6.790376 -0.619176 0.015206 -0.000158 -0.000285 -0.998889
 10   8.637599 0.544015 -0.090417 -4.170843 0.082719 -0.332470
 11   6.790465 -0.619039 0.017802 0.000330 -0.011538 -0.714447
 12   -2.022474 -0.104699 -2.873818 0.894122 1.257604 -2.325431
 13   1.167898 -0.537463 0.063297 -1.065550 -1.017341 0.286844
 14   7.002743 -0.617765 -0.183752 0.000229 0.000250 -1.872791
 15   8.209042 0.615527 -0.255885 1.556716 0.443983 -0.066158
 16   7.002735 -0.617911 -0.183641 0.013120 0.010469 -1.329695
 17   1.574674 0.609930 -0.000899 0.191002 -0.155815 0.421459
 18   -0.602177 0.511412 -0.000006 0.000000 0.000000 0.000000
 19   3.673773 0.177020 1.119313 -0.000002 -0.000014 -0.174510
 20   3.673767 0.176993 -1.117566 0.000007 -0.000003 -0.174546
 21   3.942357 1.334540 1.627658 0.000002 -0.000011 -0.000026
 22   -0.246060 -0.011889 0.516521 -0.000011 0.000031 0.000025
 23   3.942374 1.334565 -1.631083 0.000019 0.000002 -0.000024
 24   -0.246150 -0.011872 -0.516511 -0.000005 -0.000006 0.000048
 25   4.941364 1.997338 1.629330 0.000018 -0.000001 -0.000024
 26   4.941382 1.997366 -1.629410 -0.000001 0.000005 -0.000024
 27   2.914462 1.619264 1.514501 -0.000019 -0.000022 -0.000050
 28   2.916892 1.618870 -1.501142 -0.000002 -0.000009 -0.000024
 29   8.824059 0.150544 0.091743 0.000006 -0.000231 -0.174534
 30   2.111085 -0.561179 1.784320 -0.000008 -0.000682 0.000024
 31   2.121290 -0.561289 -1.853599 0.000000 0.000000 -0.000002
 32   -0.814395 -0.093824 3.127092 0.262921 -3.097582 -0.334816
 33   14.298673 -0.408176 0.471578 0.003687 -0.003117 -0.522469
 34   15.835795 0.581398 0.242756 -0.001271 0.032067 0.122292
 35   -0.815868 -0.091229 -3.114430 -0.132889 3.034913 -0.011455
 36   14.294526 -0.410349 -0.467541 -0.002676 0.001857 -0.384764
 37   15.834409 0.579420 -0.284600 -0.034128 0.026558 0.304555
 38   1.139685 -3.453749 -2.823813 0.000000 0.000000 0.000001
 39   -4.457742 -1.054854 -0.746180 0.000000 0.000000 0.000000
 40   1.118101 -3.449769 3.237290 0.000000 0.000001 0.000000
 41   -4.433840 -1.059130 0.959566 -0.000001 0.000000 0.000000
 42   -0.657468 1.697302 -2.688614 0.000000 0.000002 0.000000
 43   -0.664068 1.698578 2.869377 0.000000 0.000002 0.000000
time 6
  0   -0.010486 -0.546892 1.863709 0.000000 0.000000 -1.571354
  1   -1.093036 0.000002 -0.326057 -1.570808 -1.570425 -0.000026
  2   2.262337 0.113614 0.064702 -0.000052 0.000049 0.192424
  3   2.380047 0.353302 0.047440 0.000000 -0.000040 0.060951
  4   2.033756 0.190472 -0.000128 -0.171747 0.030093 0.171532
  5   2.451511 0.204909 -0.003447 -0.138715 0.014461 0.103433
  6   7.247600 -0.397300 -0.109469 0.000001 0.000009 0.052298
  7   -2.022252 -0.104661 3.136172 0.914683 -1.249868 -4.083968
  8   1.168026 -0.537438 -0.063437 0.147615 0.654706 -0.666448
  9   6.790376 -0.619176 0.015206 -0.000158 -0.000285 -0.901309
 10   8.637599 0.544015 -0.090417 -4.170843 0.082719 -0.332470
 11   6.790465 -0.619039 0.017802 -0.000079 -0.011452 -0.646160
 12   -2.022474 -0.104699 -2.873818 0.839608 1.276005 -2.377323
 13   1.167898 -0.537463 0.063297 -1.142595 -1.002288 0.309908
 14   7.002743 -0.617765 -0.183752 0.000229 0.000250 -1.839294
 15   8.209042 0.615527 -0.255885 1.567142 0.432709 0.065062
 16   7.002735 -0.617911 -0.183641 0.013167 0.010300 -1.306238
 17   1.574674 0.609930 -0.000899 0.249415 -0.190321 0.382982
 18   -0.602177 0.511412 -0.000006 0.000000 0.000000 0.000000
 19   3.673773 0.177020 1.119313 -0.000002 -0.000014 -0.174510
 20   3.673767 0.176993 -1.117566 0.000007 -0.000003 -0.174546
 21   3.942357 1.334540 1.627658 0.000002 -0.000011 -0.000026
 22   -0.246060 -0.011889 0.516521 -0.000011 0.000031 0.000025
 23   3.942374 1.334565 -1.631083 0.000019 0.000002 -0.000024
 24   -0.246150 -0.011872 -0.516511 -0.000005 -0.000006 0.000048
 25   4.941364 1.997338 1.629330 0.000018 -0.000001 -0.000024
 26   4.941382 1.997366 -1.629410 -0.000001 0.000005 -0.000024
 27   2.914462 1.619264 1.514501 -0.000019 -0.000022 -0.000050
 28   2.916892 1.618870 -1.501142 -0.000002 -0.000009 -0.000024
 29   8.824059 0.150544 0.091743 0.000006 -0.000231 -0.174534
 30   2.111085 -0.561179 1.784320 -0.000008 -0.000682 0.000024
 31   2.121290 -0.561289 -1.853599 0.000000 0.000000 -0.000002
 32   -0.814395 -0.093824 3.127092 0.262921 -3.097582 -0.334816
 33   14.298673 -0.408176 0.471578 0.003687 -0.003117 -0.522469
 34   15.835795 0.581398 0.242756 -0.001271 0.032067 0.122292
 35   -0.815868 -0.091229 -3.114430 -0.132889 3.034913 -0.011455
 36   14.294526 -0.410349 -0.467541 -0.002676 0.001857 -0.384764
 37   15.834409 0.579420 -0.284600 -0.034128 0.026558 0.304555
 38   1.139685 -3.453749 -2.823813 0.000000 0.000000 0.000001
 39   -4.457742 -1.054854 -0.746180 0.000000 0.000000 0.000000
 40   1.118101 -3.449769 3.237290 0.000000 0.000001 0.000000
 41   -4.433840 -1.059130 0.959566 -0.000001 0.000000 0.000000
 42   -0.657468 1.697302 -2.688614 0.000000 0.000002 0.000000
 43   -0.664068 1.698578 2.869377 0.000000 0.000002 0.000000
end
