version 1
nodes
  0 "Bip01" -1
  1 "Bip01 Pelvis" 0
  2 "Bip01 Spine" 1
  3 "Bip01 Spine1" 2
  4 "Bip01 Spine2" 3
  5 "Bip01 Spine3" 4
  6 "Bip01 Neck" 5
  7 "Bip01 L Arm" 6
  8 "Bip01 L Arm1" 7
  9 "Bip01 L Arm2" 8
 10 "Bip01 L Hand" 9
 11 "Bip06 L elbow2-smooth" 8
 12 "Bip01 R Arm" 6
 13 "Bip01 R Arm1" 12
 14 "Bip01 R Arm2" 13
 15 "Bip01 R Hand" 14
 16 "Bip06 R elbow2-smooth" 13
 17 "Bip01 Head" 6
 18 "Bip06 Head_helper" 17
 19 "Bip06 Head_eyes_l" 18
 20 "Bip06 Head_eyes_r" 18
 21 "Bip06 Head_blink_l" 18
 22 "Bip06 Head_blink_smooth_l1" 21
 23 "Bip06 Head_blink_r" 18
 24 "Bip06 Head_blink_smooth_r1" 23
 25 "Bip06 Head_L_eyebrow" 18
 26 "Bip06 Head_R_eyebrow" 18
 27 "Bip06 Head_blink_l_lid" 18
 28 "Bip06 Head_blink_r_lid" 18
 29 "Bip06 bunny" 18
 30 "Bip06 bunnyL" 29
 31 "Bip06 bunnyR" 29
 32 "Bip01 L Leg" 1
 33 "Bip01 L Leg1" 32
 34 "Bip01 L Foot" 33
 35 "Bip01 R Leg" 1
 36 "Bip01 R Leg1" 35
 37 "Bip01 R Foot" 36
 38 "Bip03 HairR1" 17
 39 "Bip03 HairR2" 38
 40 "Bip03 HairL1" 17
 41 "Bip03 HairL2" 40
 42 "Bip03 swingR" 17
 43 "Bip03 swingL" 17
end
skeleton
time 0
  0   0.001233 -0.019532 2.285597 0.000000 0.000000 -1.571829
  1   -1.093036 0.000002 -0.326057 -1.570756 -1.570425 -0.000268
  2   2.262337 0.113614 0.064702 -0.000052 0.000049 -0.051460
  3   2.380047 0.353302 0.047440 -0.151510 0.040540 0.258477
  4   2.033756 0.190472 -0.000128 -0.059893 0.011122 0.182551
  5   2.451511 0.204909 -0.003447 -0.086560 0.009761 0.112720
  6   7.247600 -0.397300 -0.109469 0.000001 0.000009 -0.122046
  7   -2.022252 -0.104661 3.136172 1.439314 -0.571852 -4.352005
  8   1.168026 -0.537438 -0.063437 -0.561253 0.500040 -0.464711
  9   6.790376 -0.619176 0.015206 -0.000158 -0.000285 -0.002944
 10   8.637599 0.544015 -0.090417 -1.014423 -0.577965 -0.036799
 11   6.790465 -0.619039 0.017802 -0.003495 -0.010685 -0.017216
 12   -2.022474 -0.104699 -2.873818 0.298873 1.361683 -2.728310
 13   1.167898 -0.537463 0.063297 -0.806790 -0.990286 0.588852
 14   7.002743 -0.617765 -0.183752 0.000229 0.000250 -1.630803
 15   8.209042 0.615527 -0.255885 1.570090 -0.000063 -0.069706
 16   7.002735 -0.617911 -0.183641 0.013496 0.009059 -1.160198
 17   1.574674 0.609930 -0.000899 0.207007 -0.217585 0.538699
 18   -0.602177 0.511412 -0.000006 0.000000 0.000000 0.000000
 19   3.673773 0.177020 1.119313 -0.000002 -0.000014 -0.174510
 20   3.673767 0.176993 -1.117566 0.000007 -0.000003 -0.174546
 21   3.942357 1.334540 1.627658 0.000002 -0.000011 -0.000026
 22   -0.246060 -0.011889 0.516521 -0.000011 0.000031 0.000025
 23   3.942374 1.334565 -1.631083 0.000019 0.000002 -0.000024
 24   -0.246150 -0.011872 -0.516511 -0.000005 -0.000006 0.000048
 25   4.941364 1.997338 1.629330 0.000018 -0.000001 -0.000024
 26   4.941382 1.997366 -1.629410 -0.000001 0.000005 -0.000024
 27   2.914462 1.619264 1.514501 -0.000019 -0.000022 -0.000050
 28   2.916892 1.618870 -1.501142 -0.000002 -0.000009 -0.000024
 29   8.824059 0.150544 0.091743 0.000006 -0.000231 -0.174534
 30   2.111085 -0.561179 1.784320 -0.000008 -0.000682 0.000024
 31   2.121290 -0.561289 -1.853599 0.000000 0.000000 -0.000002
 32   -0.814395 -0.093824 3.127092 0.338887 -3.077717 -0.167408
 33   14.298673 -0.408176 0.471578 0.013215 -0.091859 -0.496506
 34   15.835795 0.581398 0.242756 -0.532539 -0.064474 0.362915
 35   -0.815868 -0.091229 -3.114430 -0.002012 2.881638 -0.314978
 36   14.294526 -0.410349 -0.467541 -0.021444 0.095337 -0.575480
 37   15.834409 0.579420 -0.284600 -0.051545 0.043118 0.201427
 38   1.139685 -3.453749 -2.823813 0.000000 0.000000 0.000001
 39   -4.457742 -1.054854 -0.746180 0.000000 0.000000 0.000000
 40   1.118101 -3.449769 3.237290 0.000000 0.000001 0.000000
 41   -4.433840 -1.059130 0.959566 -0.000001 0.000000 0.000000
 42   -0.657468 1.697302 -2.688614 0.000000 0.000002 0.000000
 43   -0.664068 1.698578 2.869377 0.000000 0.000002 0.000000
time 1
  0   0.001233 -0.019532 2.285597 0.000000 0.000000 -1.571829
  1   -1.093036 0.000002 -0.326057 -1.570756 -1.570425 -0.000123
  2   2.262337 0.113614 0.064702 -0.000052 0.000049 -0.051460
  3   2.380047 0.353302 0.047440 -0.151510 0.040540 0.258477
  4   2.033756 0.190472 -0.000128 -0.059893 0.011122 0.182551
  5   2.451511 0.204909 -0.003447 -0.086543 0.010426 0.118936
  6   7.247600 -0.397300 -0.109469 0.000001 0.000009 -0.122046
  7   -2.022252 -0.104661 3.136172 1.436246 -0.571189 -4.346088
  8   1.168026 -0.537438 -0.063437 -0.559608 0.489474 -0.464331
  9   6.790376 -0.619176 0.015206 -0.000158 -0.000285 -0.002944
 10   8.637599 0.544015 -0.090417 -1.014423 -0.577965 -0.036799
 11   6.790465 -0.619039 0.017802 -0.003495 -0.010685 -0.017216
 12   -2.022474 -0.104699 -2.873818 0.289867 1.355298 -2.737597
 13   1.167898 -0.537463 0.063297 -0.791254 -0.988201 0.574687
 14   7.002743 -0.617765 -0.183752 0.000229 0.000250 -1.630803
 15   8.209042 0.615527 -0.255885 1.570090 -0.000063 -0.069706
 16   7.002735 -0.617911 -0.183641 0.013496 0.009059 -1.160198
 17   1.574674 0.609930 -0.000899 0.207007 -0.217585 0.532564
 18   -0.602177 0.511412 -0.000006 0.000000 0.000000 0.000000
 19   3.673773 0.177020 1.119313 -0.000002 -0.000014 -0.174510
 20   3.673767 0.176993 -1.117566 0.000007 -0.000003 -0.174546
 21   3.942357 1.334540 1.627658 0.000002 -0.000011 -0.000026
 22   -0.246060 -0.011889 0.516521 -0.000011 0.000031 0.000025
 23   3.942374 1.334565 -1.631083 0.000019 0.000002 -0.000024
 24   -0.246150 -0.011872 -0.516511 -0.000005 -0.000006 0.000048
 25   4.941364 1.997338 1.629330 0.000018 -0.000001 -0.000024
 26   4.941382 1.997366 -1.629410 -0.000001 0.000005 -0.000024
 27   2.914462 1.619264 1.514501 -0.000019 -0.000022 -0.000050
 28   2.916892 1.618870 -1.501142 -0.000002 -0.000009 -0.000024
 29   8.824059 0.150544 0.091743 0.000006 -0.000231 -0.174534
 30   2.111085 -0.561179 1.784320 -0.000008 -0.000682 0.000024
 31   2.121290 -0.561289 -1.853599 0.000000 0.000000 -0.000002
 32   -0.814395 -0.093824 3.127092 0.338887 -3.077717 -0.167408
 33   14.298673 -0.408176 0.471578 0.013215 -0.091859 -0.496506
 34   15.835795 0.581398 0.242756 -0.532539 -0.064474 0.362915
 35   -0.815868 -0.091229 -3.114430 -0.002012 2.881638 -0.314978
 36   14.294526 -0.410349 -0.467541 -0.021444 0.095337 -0.575480
 37   15.834409 0.579420 -0.284600 -0.051545 0.043118 0.201427
 38   1.139685 -3.453749 -2.823813 0.000000 0.000000 0.000001
 39   -4.457742 -1.054854 -0.746180 0.000000 0.000000 0.000000
 40   1.118101 -3.449769 3.237290 0.000000 0.000001 0.000000
 41   -4.433840 -1.059130 0.959566 -0.000001 0.000000 0.000000
 42   -0.657468 1.697302 -2.688614 0.000000 0.000002 0.000000
 43   -0.664068 1.698578 2.869377 0.000000 0.000002 0.000000
time 2
  0   0.001233 -0.019532 2.285597 0.000000 0.000000 -1.571829
  1   -1.093036 0.000002 -0.326057 -1.570756 -1.570425 -0.000123
  2   2.262337 0.113614 0.064702 -0.000052 0.000049 -0.051460
  3   2.380047 0.353302 0.047440 -0.151510 0.040540 0.258477
  4   2.033756 0.190472 -0.000128 -0.059893 0.011122 0.182551
  5   2.451511 0.204909 -0.003447 -0.086423 0.011014 0.125697
  6   7.247600 -0.397300 -0.109469 0.000001 0.000009 -0.122046
  7   -2.022252 -0.104661 3.136172 1.432891 -0.570497 -4.339514
  8   1.168026 -0.537438 -0.063437 -0.557646 0.477952 -0.464268
  9   6.790376 -0.619176 0.015206 -0.000158 -0.000285 -0.002944
 10   8.637599 0.544015 -0.090417 -1.014423 -0.577965 -0.036799
 11   6.790465 -0.619039 0.017802 -0.003495 -0.010685 -0.017216
 12   -2.022474 -0.104699 -2.873818 0.280287 1.348129 -2.747266
 13   1.167898 -0.537463 0.063297 -0.774102 -0.985760 0.558948
 14   7.002743 -0.617765 -0.183752 0.000229 0.000250 -1.630803
 15   8.209042 0.615527 -0.255885 1.570090 -0.000063 -0.069706
 16   7.002735 -0.617911 -0.183641 0.013496 0.009059 -1.160198
 17   1.574674 0.609930 -0.000899 0.207007 -0.217585 0.525615
 18   -0.602177 0.511412 -0.000006 0.000000 0.000000 0.000000
 19   3.673773 0.177020 1.119313 -0.000002 -0.000014 -0.174510
 20   3.673767 0.176993 -1.117566 0.000007 -0.000003 -0.174546
 21   3.942357 1.334540 1.627658 0.000002 -0.000011 -0.000026
 22   -0.246060 -0.011889 0.516521 -0.000011 0.000031 0.000025
 23   3.942374 1.334565 -1.631083 0.000019 0.000002 -0.000024
 24   -0.246150 -0.011872 -0.516511 -0.000005 -0.000006 0.000048
 25   4.941364 1.997338 1.629330 0.000018 -0.000001 -0.000024
 26   4.941382 1.997366 -1.629410 -0.000001 0.000005 -0.000024
 27   2.914462 1.619264 1.514501 -0.000019 -0.000022 -0.000050
 28   2.916892 1.618870 -1.501142 -0.000002 -0.000009 -0.000024
 29   8.824059 0.150544 0.091743 0.000006 -0.000231 -0.174534
 30   2.111085 -0.561179 1.784320 -0.000008 -0.000682 0.000024
 31   2.121290 -0.561289 -1.853599 0.000000 0.000000 -0.000002
 32   -0.814395 -0.093824 3.127092 0.338887 -3.077717 -0.167408
 33   14.298673 -0.408176 0.471578 0.013215 -0.091859 -0.496506
 34   15.835795 0.581398 0.242756 -0.532539 -0.064474 0.362915
 35   -0.815868 -0.091229 -3.114430 -0.002012 2.881638 -0.314978
 36   14.294526 -0.410349 -0.467541 -0.021444 0.095337 -0.575480
 37   15.834409 0.579420 -0.284600 -0.051545 0.043118 0.201427
 38   1.139685 -3.453749 -2.823813 0.000000 0.000000 0.000001
 39   -4.457742 -1.054854 -0.746180 0.000000 0.000000 0.000000
 40   1.118101 -3.449769 3.237290 0.000000 0.000001 0.000000
 41   -4.433840 -1.059130 0.959566 -0.000001 0.000000 0.000000
 42   -0.657468 1.697302 -2.688614 0.000000 0.000002 0.000000
 43   -0.664068 1.698578 2.869377 0.000000 0.000002 0.000000
time 3
  0   0.001233 -0.019532 2.285597 0.000000 0.000000 -1.571829
  1   -1.093036 0.000002 -0.326057 -1.570756 -1.570425 -0.000123
  2   2.262337 0.113614 0.064702 -0.000052 0.000049 -0.051460
  3   2.380047 0.353302 0.047440 -0.151510 0.040540 0.258477
  4   2.033756 0.190472 -0.000128 -0.059893 0.011122 0.182551
  5   2.451511 0.204909 -0.003447 -0.086389 0.011614 0.132904
  6   7.247600 -0.397300 -0.109469 0.000001 0.000009 -0.122046
  7   -2.022252 -0.104661 3.136172 1.428961 -0.569661 -4.332752
  8   1.168026 -0.537438 -0.063437 -0.555811 0.465625 -0.464268
  9   6.790376 -0.619176 0.015206 -0.000158 -0.000285 -0.002944
 10   8.637599 0.544015 -0.090417 -1.014423 -0.577965 -0.036799
 11   6.790465 -0.619039 0.017802 -0.003495 -0.010685 -0.017216
 12   -2.022474 -0.104699 -2.873818 0.270802 1.340409 -2.756936
 13   1.167898 -0.537463 0.063297 -0.756036 -0.983217 0.542301
 14   7.002743 -0.617765 -0.183752 0.000229 0.000250 -1.630803
 15   8.209042 0.615527 -0.255885 1.570090 -0.000063 -0.069706
 16   7.002735 -0.617911 -0.183641 0.013496 0.009059 -1.160198
 17   1.574674 0.609930 -0.000899 0.207007 -0.217585 0.518371
 18   -0.602177 0.511412 -0.000006 0.000000 0.000000 0.000000
 19   3.673773 0.177020 1.119313 -0.000002 -0.000014 -0.174510
 20   3.673767 0.176993 -1.117566 0.000007 -0.000003 -0.174546
 21   3.942357 1.334540 1.627658 0.000002 -0.000011 -0.000026
 22   -0.246060 -0.011889 0.516521 -0.000011 0.000031 0.000025
 23   3.942374 1.334565 -1.631083 0.000019 0.000002 -0.000024
 24   -0.246150 -0.011872 -0.516511 -0.000005 -0.000006 0.000048
 25   4.941364 1.997338 1.629330 0.000018 -0.000001 -0.000024
 26   4.941382 1.997366 -1.629410 -0.000001 0.000005 -0.000024
 27   2.914462 1.619264 1.514501 -0.000019 -0.000022 -0.000050
 28   2.916892 1.618870 -1.501142 -0.000002 -0.000009 -0.000024
 29   8.824059 0.150544 0.091743 0.000006 -0.000231 -0.174534
 30   2.111085 -0.561179 1.784320 -0.000008 -0.000682 0.000024
 31   2.121290 -0.561289 -1.853599 0.000000 0.000000 -0.000002
 32   -0.814395 -0.093824 3.127092 0.338887 -3.077717 -0.167408
 33   14.298673 -0.408176 0.471578 0.013215 -0.091859 -0.496506
 34   15.835795 0.581398 0.242756 -0.532539 -0.064474 0.362915
 35   -0.815868 -0.091229 -3.114430 -0.002012 2.881638 -0.314978
 36   14.294526 -0.410349 -0.467541 -0.021444 0.095337 -0.575480
 37   15.834409 0.579420 -0.284600 -0.051545 0.043118 0.201427
 38   1.139685 -3.453749 -2.823813 0.000000 0.000000 0.000001
 39   -4.457742 -1.054854 -0.746180 0.000000 0.000000 0.000000
 40   1.118101 -3.449769 3.237290 0.000000 0.000001 0.000000
 41   -4.433840 -1.059130 0.959566 -0.000001 0.000000 0.000000
 42   -0.657468 1.697302 -2.688614 0.000000 0.000002 0.000000
 43   -0.664068 1.698578 2.869377 0.000000 0.000002 0.000000
time 4
  0   0.001233 -0.019532 2.285597 0.000000 0.000000 -1.571829
  1   -1.093036 0.000002 -0.326057 -1.570756 -1.570425 -0.000171
  2   2.262337 0.113614 0.064702 -0.000052 0.000049 -0.051460
  3   2.380047 0.353302 0.047440 -0.151510 0.040540 0.258477
  4   2.033756 0.190472 -0.000128 -0.059893 0.011122 0.182551
  5   2.451511 0.204909 -0.003447 -0.086269 0.012150 0.140457
  6   7.247600 -0.397300 -0.109469 0.000001 0.000009 -0.122046
  7   -2.022252 -0.104661 3.136172 1.425127 -0.568825 -4.325803
  8   1.168026 -0.537438 -0.063437 -0.553596 0.452794 -0.464268
  9   6.790376 -0.619176 0.015206 -0.000158 -0.000285 -0.002944
 10   8.637599 0.544015 -0.090417 -1.014423 -0.577965 -0.036799
 11   6.790465 -0.619039 0.017802 -0.003495 -0.010685 -0.017216
 12   -2.022474 -0.104699 -2.873818 0.261796 1.332514 -2.766223
 13   1.167898 -0.537463 0.063297 -0.737337 -0.980065 0.525109
 14   7.002743 -0.617765 -0.183752 0.000229 0.000250 -1.630803
 15   8.209042 0.615527 -0.255885 1.570090 -0.000063 -0.069706
 16   7.002735 -0.617911 -0.183641 0.013496 0.009059 -1.160198
 17   1.574674 0.609930 -0.000899 0.207007 -0.217585 0.510830
 18   -0.602177 0.511412 -0.000006 0.000000 0.000000 0.000000
 19   3.673773 0.177020 1.119313 -0.000002 -0.000014 -0.174510
 20   3.673767 0.176993 -1.117566 0.000007 -0.000003 -0.174546
 21   3.942357 1.334540 1.627658 0.000002 -0.000011 -0.000026
 22   -0.246060 -0.011889 0.516521 -0.000011 0.000031 0.000025
 23   3.942374 1.334565 -1.631083 0.000019 0.000002 -0.000024
 24   -0.246150 -0.011872 -0.516511 -0.000005 -0.000006 0.000048
 25   4.941364 1.997338 1.629330 0.000018 -0.000001 -0.000024
 26   4.941382 1.997366 -1.629410 -0.000001 0.000005 -0.000024
 27   2.914462 1.619264 1.514501 -0.000019 -0.000022 -0.000050
 28   2.916892 1.618870 -1.501142 -0.000002 -0.000009 -0.000024
 29   8.824059 0.150544 0.091743 0.000006 -0.000231 -0.174534
 30   2.111085 -0.561179 1.784320 -0.000008 -0.000682 0.000024
 31   2.121290 -0.561289 -1.853599 0.000000 0.000000 -0.000002
 32   -0.814395 -0.093824 3.127092 0.338887 -3.077717 -0.167408
 33   14.298673 -0.408176 0.471578 0.013215 -0.091859 -0.496506
 34   15.835795 0.581398 0.242756 -0.532539 -0.064474 0.362915
 35   -0.815868 -0.091229 -3.114430 -0.002012 2.881638 -0.314978
 36   14.294526 -0.410349 -0.467541 -0.021444 0.095337 -0.575480
 37   15.834409 0.579420 -0.284600 -0.051545 0.043118 0.201427
 38   1.139685 -3.453749 -2.823813 0.000000 0.000000 0.000001
 39   -4.457742 -1.054854 -0.746180 0.000000 0.000000 0.000000
 40   1.118101 -3.449769 3.237290 0.000000 0.000001 0.000000
 41   -4.433840 -1.059130 0.959566 -0.000001 0.000000 0.000000
 42   -0.657468 1.697302 -2.688614 0.000000 0.000002 0.000000
 43   -0.664068 1.698578 2.869377 0.000000 0.000002 0.000000
time 5
  0   0.001233 -0.019532 2.285597 0.000000 0.000000 -1.571829
  1   -1.093036 0.000002 -0.326057 -1.570756 -1.570425 -0.000123
  2   2.262337 0.113614 0.064702 -0.000052 0.000049 -0.051460
  3   2.380047 0.353302 0.047440 -0.151510 0.040540 0.258477
  4   2.033756 0.190472 -0.000128 -0.059893 0.011122 0.182551
  5   2.451511 0.204909 -0.003447 -0.086132 0.012829 0.148110
  6   7.247600 -0.397300 -0.109469 0.000001 0.000009 -0.122046
  7   -2.022252 -0.104661 3.136172 1.421101 -0.567874 -4.318289
  8   1.168026 -0.537438 -0.063437 -0.551508 0.439813 -0.464268
  9   6.790376 -0.619176 0.015206 -0.000158 -0.000285 -0.002944
 10   8.637599 0.544015 -0.090417 -1.014423 -0.577965 -0.036799
 11   6.790465 -0.619039 0.017802 -0.003495 -0.010685 -0.017216
 12   -2.022474 -0.104699 -2.873818 0.253269 1.324388 -2.775414
 13   1.167898 -0.537463 0.063297 -0.718920 -0.976861 0.507796
 14   7.002743 -0.617765 -0.183752 0.000229 0.000250 -1.630803
 15   8.209042 0.615527 -0.255885 1.570090 -0.000063 -0.069706
 16   7.002735 -0.617911 -0.183641 0.013496 0.009059 -1.160198
 17   1.574674 0.609930 -0.000899 0.207007 -0.217585 0.503143
 18   -0.602177 0.511412 -0.000006 0.000000 0.000000 0.000000
 19   3.673773 0.177020 1.119313 -0.000002 -0.000014 -0.174510
 20   3.673767 0.176993 -1.117566 0.000007 -0.000003 -0.174546
 21   3.942357 1.334540 1.627658 0.000002 -0.000011 -0.000026
 22   -0.246060 -0.011889 0.516521 -0.000011 0.000031 0.000025
 23   3.942374 1.334565 -1.631083 0.000019 0.000002 -0.000024
 24   -0.246150 -0.011872 -0.516511 -0.000005 -0.000006 0.000048
 25   4.941364 1.997338 1.629330 0.000018 -0.000001 -0.000024
 26   4.941382 1.997366 -1.629410 -0.000001 0.000005 -0.000024
 27   2.914462 1.619264 1.514501 -0.000019 -0.000022 -0.000050
 28   2.916892 1.618870 -1.501142 -0.000002 -0.000009 -0.000024
 29   8.824059 0.150544 0.091743 0.000006 -0.000231 -0.174534
 30   2.111085 -0.561179 1.784320 -0.000008 -0.000682 0.000024
 31   2.121290 -0.561289 -1.853599 0.000000 0.000000 -0.000002
 32   -0.814395 -0.093824 3.127092 0.338887 -3.077717 -0.167408
 33   14.298673 -0.408176 0.471578 0.013215 -0.091859 -0.496506
 34   15.835795 0.581398 0.242756 -0.532539 -0.064474 0.362915
 35   -0.815868 -0.091229 -3.114430 -0.002012 2.881638 -0.314978
 36   14.294526 -0.410349 -0.467541 -0.021444 0.095337 -0.575480
 37   15.834409 0.579420 -0.284600 -0.051545 0.043118 0.201427
 38   1.139685 -3.453749 -2.823813 0.000000 0.000000 0.000001
 39   -4.457742 -1.054854 -0.746180 0.000000 0.000000 0.000000
 40   1.118101 -3.449769 3.237290 0.000000 0.000001 0.000000
 41   -4.433840 -1.059130 0.959566 -0.000001 0.000000 0.000000
 42   -0.657468 1.697302 -2.688614 0.000000 0.000002 0.000000
 43   -0.664068 1.698578 2.869377 0.000000 0.000002 0.000000
time 6
  0   0.001233 -0.019532 2.285597 0.000000 0.000000 -1.571829
  1   -1.093036 0.000002 -0.326057 -1.570756 -1.570425 -0.000123
  2   2.262337 0.113614 0.064702 -0.000052 0.000049 -0.051460
  3   2.380047 0.353302 0.047440 -0.151510 0.040540 0.258477
  4   2.033756 0.190472 -0.000128 -0.059893 0.011122 0.182551
  5   2.451511 0.204909 -0.003447 -0.086098 0.013586 0.155812
  6   7.247600 -0.397300 -0.109469 0.000001 0.000009 -0.122046
  7   -2.022252 -0.104661 3.136172 1.417170 -0.566951 -4.311152
  8   1.168026 -0.537438 -0.063437 -0.549293 0.426832 -0.464268
  9   6.790376 -0.619176 0.015206 -0.000158 -0.000285 -0.002944
 10   8.637599 0.544015 -0.090417 -1.014423 -0.577965 -0.036799
 11   6.790465 -0.619039 0.017802 -0.003495 -0.010685 -0.017216
 12   -2.022474 -0.104699 -2.873818 0.245221 1.316174 -2.783552
 13   1.167898 -0.537463 0.063297 -0.700080 -0.973403 0.490362
 14   7.002743 -0.617765 -0.183752 0.000229 0.000250 -1.630803
 15   8.209042 0.615527 -0.255885 1.570090 -0.000063 -0.069706
 16   7.002735 -0.617911 -0.183641 0.013496 0.009059 -1.160198
 17   1.574674 0.609930 -0.000899 0.207007 -0.217585 0.495381
 18   -0.602177 0.511412 -0.000006 0.000000 0.000000 0.000000
 19   3.673773 0.177020 1.119313 -0.000002 -0.000014 -0.174510
 20   3.673767 0.176993 -1.117566 0.000007 -0.000003 -0.174546
 21   3.942357 1.334540 1.627658 0.000002 -0.000011 -0.000026
 22   -0.246060 -0.011889 0.516521 -0.000011 0.000031 0.000025
 23   3.942374 1.334565 -1.631083 0.000019 0.000002 -0.000024
 24   -0.246150 -0.011872 -0.516511 -0.000005 -0.000006 0.000048
 25   4.941364 1.997338 1.629330 0.000018 -0.000001 -0.000024
 26   4.941382 1.997366 -1.629410 -0.000001 0.000005 -0.000024
 27   2.914462 1.619264 1.514501 -0.000019 -0.000022 -0.000050
 28   2.916892 1.618870 -1.501142 -0.000002 -0.000009 -0.000024
 29   8.824059 0.150544 0.091743 0.000006 -0.000231 -0.174534
 30   2.111085 -0.561179 1.784320 -0.000008 -0.000682 0.000024
 31   2.121290 -0.561289 -1.853599 0.000000 0.000000 -0.000002
 32   -0.814395 -0.093824 3.127092 0.338887 -3.077717 -0.167408
 33   14.298673 -0.408176 0.471578 0.013215 -0.091859 -0.496506
 34   15.835795 0.581398 0.242756 -0.532539 -0.064474 0.362915
 35   -0.815868 -0.091229 -3.114430 -0.002012 2.881638 -0.314978
 36   14.294526 -0.410349 -0.467541 -0.021444 0.095337 -0.575480
 37   15.834409 0.579420 -0.284600 -0.051545 0.043118 0.201427
 38   1.139685 -3.453749 -2.823813 0.000000 0.000000 0.000001
 39   -4.457742 -1.054854 -0.746180 0.000000 0.000000 0.000000
 40   1.118101 -3.449769 3.237290 0.000000 0.000001 0.000000
 41   -4.433840 -1.059130 0.959566 -0.000001 0.000000 0.000000
 42   -0.657468 1.697302 -2.688614 0.000000 0.000002 0.000000
 43   -0.664068 1.698578 2.869377 0.000000 0.000002 0.000000
time 7
  0   0.001233 -0.019532 2.285597 0.000000 0.000000 -1.571829
  1   -1.093036 0.000002 -0.326057 -1.570756 -1.570425 -0.000123
  2   2.262337 0.113614 0.064702 -0.000052 0.000049 -0.051460
  3   2.380047 0.353302 0.047440 -0.151510 0.040540 0.258477
  4   2.033756 0.190472 -0.000128 -0.059893 0.011122 0.182551
  5   2.451511 0.204909 -0.003447 -0.085978 0.014278 0.163365
  6   7.247600 -0.397300 -0.109469 0.000001 0.000009 -0.122046
  7   -2.022252 -0.104661 3.136172 1.413624 -0.566000 -4.303920
  8   1.168026 -0.537438 -0.063437 -0.547268 0.413851 -0.464331
  9   6.790376 -0.619176 0.015206 -0.000158 -0.000285 -0.002944
 10   8.637599 0.544015 -0.090417 -1.014423 -0.577965 -0.036799
 11   6.790465 -0.619039 0.017802 -0.003495 -0.010685 -0.017216
 12   -2.022474 -0.104699 -2.873818 0.237461 1.307902 -2.791594
 13   1.167898 -0.537463 0.063297 -0.682155 -0.969843 0.473836
 14   7.002743 -0.617765 -0.183752 0.000229 0.000250 -1.630803
 15   8.209042 0.615527 -0.255885 1.570090 -0.000063 -0.069706
 16   7.002735 -0.617911 -0.183641 0.013496 0.009059 -1.160198
 17   1.574674 0.609930 -0.000899 0.207007 -0.217585 0.487730
 18   -0.602177 0.511412 -0.000006 0.000000 0.000000 0.000000
 19   3.673773 0.177020 1.119313 -0.000002 -0.000014 -0.174510
 20   3.673767 0.176993 -1.117566 0.000007 -0.000003 -0.174546
 21   3.942357 1.334540 1.627658 0.000002 -0.000011 -0.000026
 22   -0.246060 -0.011889 0.516521 -0.000011 0.000031 0.000025
 23   3.942374 1.334565 -1.631083 0.000019 0.000002 -0.000024
 24   -0.246150 -0.011872 -0.516511 -0.000005 -0.000006 0.000048
 25   4.941364 1.997338 1.629330 0.000018 -0.000001 -0.000024
 26   4.941382 1.997366 -1.629410 -0.000001 0.000005 -0.000024
 27   2.914462 1.619264 1.514501 -0.000019 -0.000022 -0.000050
 28   2.916892 1.618870 -1.501142 -0.000002 -0.000009 -0.000024
 29   8.824059 0.150544 0.091743 0.000006 -0.000231 -0.174534
 30   2.111085 -0.561179 1.784320 -0.000008 -0.000682 0.000024
 31   2.121290 -0.561289 -1.853599 0.000000 0.000000 -0.000002
 32   -0.814395 -0.093824 3.127092 0.338887 -3.077717 -0.167408
 33   14.298673 -0.408176 0.471578 0.013215 -0.091859 -0.496506
 34   15.835795 0.581398 0.242756 -0.532539 -0.064474 0.362915
 35   -0.815868 -0.091229 -3.114430 -0.002012 2.881638 -0.314978
 36   14.294526 -0.410349 -0.467541 -0.021444 0.095337 -0.575480
 37   15.834409 0.579420 -0.284600 -0.051545 0.043118 0.201427
 38   1.139685 -3.453749 -2.823813 0.000000 0.000000 0.000001
 39   -4.457742 -1.054854 -0.746180 0.000000 0.000000 0.000000
 40   1.118101 -3.449769 3.237290 0.000000 0.000001 0.000000
 41   -4.433840 -1.059130 0.959566 -0.000001 0.000000 0.000000
 42   -0.657468 1.697302 -2.688614 0.000000 0.000002 0.000000
 43   -0.664068 1.698578 2.869377 0.000000 0.000002 0.000000
time 8
  0   0.001233 -0.019532 2.285597 0.000000 0.000000 -1.571829
  1   -1.093036 0.000002 -0.326057 -1.570756 -1.570425 -0.000074
  2   2.262337 0.113614 0.064702 -0.000052 0.000049 -0.051460
  3   2.380047 0.353302 0.047440 -0.151510 0.040540 0.258477
  4   2.033756 0.190472 -0.000128 -0.059893 0.011122 0.182551
  5   2.451511 0.204909 -0.003447 -0.085824 0.014891 0.170572
  6   7.247600 -0.397300 -0.109469 0.000001 0.000009 -0.122046
  7   -2.022252 -0.104661 3.136172 1.409789 -0.565164 -4.297158
  8   1.168026 -0.537438 -0.063437 -0.545180 0.401524 -0.464711
  9   6.790376 -0.619176 0.015206 -0.000158 -0.000285 -0.002944
 10   8.637599 0.544015 -0.090417 -1.014423 -0.577965 -0.036799
 11   6.790465 -0.619039 0.017802 -0.003495 -0.010685 -0.017216
 12   -2.022474 -0.104699 -2.873818 0.230754 1.300124 -2.798392
 13   1.167898 -0.537463 0.063297 -0.665002 -0.966232 0.457673
 14   7.002743 -0.617765 -0.183752 0.000229 0.000250 -1.630803
 15   8.209042 0.615527 -0.255885 1.570090 -0.000063 -0.069706
 16   7.002735 -0.617911 -0.183641 0.013496 0.009059 -1.160198
 17   1.574674 0.609930 -0.000899 0.207007 -0.217585 0.480596
 18   -0.602177 0.511412 -0.000006 0.000000 0.000000 0.000000
 19   3.673773 0.177020 1.119313 -0.000002 -0.000014 -0.174510
 20   3.673767 0.176993 -1.117566 0.000007 -0.000003 -0.174546
 21   3.942357 1.334540 1.627658 0.000002 -0.000011 -0.000026
 22   -0.246060 -0.011889 0.516521 -0.000011 0.000031 0.000025
 23   3.942374 1.334565 -1.631083 0.000019 0.000002 -0.000024
 24   -0.246150 -0.011872 -0.516511 -0.000005 -0.000006 0.000048
 25   4.941364 1.997338 1.629330 0.000018 -0.000001 -0.000024
 26   4.941382 1.997366 -1.629410 -0.000001 0.000005 -0.000024
 27   2.914462 1.619264 1.514501 -0.000019 -0.000022 -0.000050
 28   2.916892 1.618870 -1.501142 -0.000002 -0.000009 -0.000024
 29   8.824059 0.150544 0.091743 0.000006 -0.000231 -0.174534
 30   2.111085 -0.561179 1.784320 -0.000008 -0.000682 0.000024
 31   2.121290 -0.561289 -1.853599 0.000000 0.000000 -0.000002
 32   -0.814395 -0.093824 3.127092 0.338887 -3.077717 -0.167408
 33   14.298673 -0.408176 0.471578 0.013215 -0.091859 -0.496506
 34   15.835795 0.581398 0.242756 -0.532539 -0.064474 0.362915
 35   -0.815868 -0.091229 -3.114430 -0.002012 2.881638 -0.314978
 36   14.294526 -0.410349 -0.467541 -0.021444 0.095337 -0.575480
 37   15.834409 0.579420 -0.284600 -0.051545 0.043118 0.201427
 38   1.139685 -3.453749 -2.823813 0.000000 0.000000 0.000001
 39   -4.457742 -1.054854 -0.746180 0.000000 0.000000 0.000000
 40   1.118101 -3.449769 3.237290 0.000000 0.000001 0.000000
 41   -4.433840 -1.059130 0.959566 -0.000001 0.000000 0.000000
 42   -0.657468 1.697302 -2.688614 0.000000 0.000002 0.000000
 43   -0.664068 1.698578 2.869377 0.000000 0.000002 0.000000
time 9
  0   0.001233 -0.019532 2.285597 0.000000 0.000000 -1.571829
  1   -1.093036 0.000002 -0.326057 -1.570756 -1.570425 -0.000074
  2   2.262337 0.113614 0.064702 -0.000052 0.000049 -0.051460
  3   2.380047 0.353302 0.047440 -0.151510 0.040540 0.258477
  4   2.033756 0.190472 -0.000128 -0.059893 0.011122 0.182551
  5   2.451511 0.204909 -0.003447 -0.085790 0.015335 0.177432
  6   7.247600 -0.397300 -0.109469 0.000001 0.000009 -0.122046
  7   -2.022252 -0.104661 3.136172 1.406434 -0.564270 -4.290960
  8   1.168026 -0.537438 -0.063437 -0.543471 0.390002 -0.464774
  9   6.790376 -0.619176 0.015206 -0.000158 -0.000285 -0.002944
 10   8.637599 0.544015 -0.090417 -1.014423 -0.577965 -0.036799
 11   6.790465 -0.619039 0.017802 -0.003495 -0.010685 -0.017216
 12   -2.022474 -0.104699 -2.873818 0.224910 1.292897 -2.804711
 13   1.167898 -0.537463 0.063297 -0.649186 -0.962723 0.443145
 14   7.002743 -0.617765 -0.183752 0.000229 0.000250 -1.630803
 15   8.209042 0.615527 -0.255885 1.570090 -0.000063 -0.069706
 16   7.002735 -0.617911 -0.183641 0.013496 0.009059 -1.160198
 17   1.574674 0.609930 -0.000899 0.207007 -0.217585 0.473759
 18   -0.602177 0.511412 -0.000006 0.000000 0.000000 0.000000
 19   3.673773 0.177020 1.119313 -0.000002 -0.000014 -0.174510
 20   3.673767 0.176993 -1.117566 0.000007 -0.000003 -0.174546
 21   3.942357 1.334540 1.627658 0.000002 -0.000011 -0.000026
 22   -0.246060 -0.011889 0.516521 -0.000011 0.000031 0.000025
 23   3.942374 1.334565 -1.631083 0.000019 0.000002 -0.000024
 24   -0.246150 -0.011872 -0.516511 -0.000005 -0.000006 0.000048
 25   4.941364 1.997338 1.629330 0.000018 -0.000001 -0.000024
 26   4.941382 1.997366 -1.629410 -0.000001 0.000005 -0.000024
 27   2.914462 1.619264 1.514501 -0.000019 -0.000022 -0.000050
 28   2.916892 1.618870 -1.501142 -0.000002 -0.000009 -0.000024
 29   8.824059 0.150544 0.091743 0.000006 -0.000231 -0.174534
 30   2.111085 -0.561179 1.784320 -0.000008 -0.000682 0.000024
 31   2.121290 -0.561289 -1.853599 0.000000 0.000000 -0.000002
 32   -0.814395 -0.093824 3.127092 0.338887 -3.077717 -0.167408
 33   14.298673 -0.408176 0.471578 0.013215 -0.091859 -0.496506
 34   15.835795 0.581398 0.242756 -0.532539 -0.064474 0.362915
 35   -0.815868 -0.091229 -3.114430 -0.002012 2.881638 -0.314978
 36   14.294526 -0.410349 -0.467541 -0.021444 0.095337 -0.575480
 37   15.834409 0.579420 -0.284600 -0.051545 0.043118 0.201427
 38   1.139685 -3.453749 -2.823813 0.000000 0.000000 0.000001
 39   -4.457742 -1.054854 -0.746180 0.000000 0.000000 0.000000
 40   1.118101 -3.449769 3.237290 0.000000 0.000001 0.000000
 41   -4.433840 -1.059130 0.959566 -0.000001 0.000000 0.000000
 42   -0.657468 1.697302 -2.688614 0.000000 0.000002 0.000000
 43   -0.664068 1.698578 2.869377 0.000000 0.000002 0.000000
time 10
  0   0.001233 -0.019532 2.285597 0.000000 0.000000 -1.571829
  1   -1.093036 0.000002 -0.326057 -1.570756 -1.570425 -0.000026
  2   2.262337 0.113614 0.064702 -0.000052 0.000049 -0.051460
  3   2.380047 0.353302 0.047440 -0.151510 0.040540 0.258477
  4   2.033756 0.190472 -0.000128 -0.059893 0.011122 0.182551
  5   2.451511 0.204909 -0.003447 -0.085687 0.015923 0.183574
  6   7.247600 -0.397300 -0.109469 0.000001 0.000009 -0.122046
  7   -2.022252 -0.104661 3.136172 1.403559 -0.563434 -4.284949
  8   1.168026 -0.537438 -0.063437 -0.541446 0.379738 -0.465027
  9   6.790376 -0.619176 0.015206 -0.000158 -0.000285 -0.002944
 10   8.637599 0.544015 -0.090417 -1.014423 -0.577965 -0.036799
 11   6.790465 -0.619039 0.017802 -0.003495 -0.010685 -0.017216
 12   -2.022474 -0.104699 -2.873818 0.219737 1.286279 -2.810168
 13   1.167898 -0.537463 0.063297 -0.635267 -0.959570 0.429888
 14   7.002743 -0.617765 -0.183752 0.000229 0.000250 -1.630803
 15   8.209042 0.615527 -0.255885 1.570090 -0.000063 -0.069706
 16   7.002735 -0.617911 -0.183641 0.013496 0.009059 -1.160198
 17   1.574674 0.609930 -0.000899 0.207007 -0.217585 0.467660
 18   -0.602177 0.511412 -0.000006 0.000000 0.000000 0.000000
 19   3.673773 0.177020 1.119313 -0.000002 -0.000014 -0.174510
 20   3.673767 0.176993 -1.117566 0.000007 -0.000003 -0.174546
 21   3.942357 1.334540 1.627658 0.000002 -0.000011 -0.000026
 22   -0.246060 -0.011889 0.516521 -0.000011 0.000031 0.000025
 23   3.942374 1.334565 -1.631083 0.000019 0.000002 -0.000024
 24   -0.246150 -0.011872 -0.516511 -0.000005 -0.000006 0.000048
 25   4.941364 1.997338 1.629330 0.000018 -0.000001 -0.000024
 26   4.941382 1.997366 -1.629410 -0.000001 0.000005 -0.000024
 27   2.914462 1.619264 1.514501 -0.000019 -0.000022 -0.000050
 28   2.916892 1.618870 -1.501142 -0.000002 -0.000009 -0.000024
 29   8.824059 0.150544 0.091743 0.000006 -0.000231 -0.174534
 30   2.111085 -0.561179 1.784320 -0.000008 -0.000682 0.000024
 31   2.121290 -0.561289 -1.853599 0.000000 0.000000 -0.000002
 32   -0.814395 -0.093824 3.127092 0.338887 -3.077717 -0.167408
 33   14.298673 -0.408176 0.471578 0.013215 -0.091859 -0.496506
 34   15.835795 0.581398 0.242756 -0.532539 -0.064474 0.362915
 35   -0.815868 -0.091229 -3.114430 -0.002012 2.881638 -0.314978
 36   14.294526 -0.410349 -0.467541 -0.021444 0.095337 -0.575480
 37   15.834409 0.579420 -0.284600 -0.051545 0.043118 0.201427
 38   1.139685 -3.453749 -2.823813 0.000000 0.000000 0.000001
 39   -4.457742 -1.054854 -0.746180 0.000000 0.000000 0.000000
 40   1.118101 -3.449769 3.237290 0.000000 0.000001 0.000000
 41   -4.433840 -1.059130 0.959566 -0.000001 0.000000 0.000000
 42   -0.657468 1.697302 -2.688614 0.000000 0.000002 0.000000
 43   -0.664068 1.698578 2.869377 0.000000 0.000002 0.000000
time 11
  0   0.001233 -0.019532 2.285597 0.000000 0.000000 -1.571829
  1   -1.093036 0.000002 -0.326057 -1.570756 -1.570425 -0.000074
  2   2.262337 0.113614 0.064702 -0.000052 0.000049 -0.051460
  3   2.380047 0.353302 0.047440 -0.151510 0.040540 0.258477
  4   2.033756 0.190472 -0.000128 -0.059893 0.011122 0.182551
  5   2.451511 0.204909 -0.003447 -0.085533 0.016484 0.188948
  6   7.247600 -0.397300 -0.109469 0.000001 0.000009 -0.122046
  7   -2.022252 -0.104661 3.136172 1.400874 -0.562742 -4.279972
  8   1.168026 -0.537438 -0.063437 -0.539991 0.370631 -0.465280
  9   6.790376 -0.619176 0.015206 -0.000158 -0.000285 -0.002944
 10   8.637599 0.544015 -0.090417 -1.014423 -0.577965 -0.036799
 11   6.790465 -0.619039 0.017802 -0.003495 -0.010685 -0.017216
 12   -2.022474 -0.104699 -2.873818 0.215234 1.280329 -2.814668
 13   1.167898 -0.537463 0.063297 -0.622825 -0.956366 0.418265
 14   7.002743 -0.617765 -0.183752 0.000229 0.000250 -1.630803
 15   8.209042 0.615527 -0.255885 1.570090 -0.000063 -0.069706
 16   7.002735 -0.617911 -0.183641 0.013496 0.009059 -1.160198
 17   1.574674 0.609930 -0.000899 0.207007 -0.217585 0.462042
 18   -0.602177 0.511412 -0.000006 0.000000 0.000000 0.000000
 19   3.673773 0.177020 1.119313 -0.000002 -0.000014 -0.174510
 20   3.673767 0.176993 -1.117566 0.000007 -0.000003 -0.174546
 21   3.942357 1.334540 1.627658 0.000002 -0.000011 -0.000026
 22   -0.246060 -0.011889 0.516521 -0.000011 0.000031 0.000025
 23   3.942374 1.334565 -1.631083 0.000019 0.000002 -0.000024
 24   -0.246150 -0.011872 -0.516511 -0.000005 -0.000006 0.000048
 25   4.941364 1.997338 1.629330 0.000018 -0.000001 -0.000024
 26   4.941382 1.997366 -1.629410 -0.000001 0.000005 -0.000024
 27   2.914462 1.619264 1.514501 -0.000019 -0.000022 -0.000050
 28   2.916892 1.618870 -1.501142 -0.000002 -0.000009 -0.000024
 29   8.824059 0.150544 0.091743 0.000006 -0.000231 -0.174534
 30   2.111085 -0.561179 1.784320 -0.000008 -0.000682 0.000024
 31   2.121290 -0.561289 -1.853599 0.000000 0.000000 -0.000002
 32   -0.814395 -0.093824 3.127092 0.338887 -3.077717 -0.167408
 33   14.298673 -0.408176 0.471578 0.013215 -0.091859 -0.496506
 34   15.835795 0.581398 0.242756 -0.532539 -0.064474 0.362915
 35   -0.815868 -0.091229 -3.114430 -0.002012 2.881638 -0.314978
 36   14.294526 -0.410349 -0.467541 -0.021444 0.095337 -0.575480
 37   15.834409 0.579420 -0.284600 -0.051545 0.043118 0.201427
 38   1.139685 -3.453749 -2.823813 0.000000 0.000000 0.000001
 39   -4.457742 -1.054854 -0.746180 0.000000 0.000000 0.000000
 40   1.118101 -3.449769 3.237290 0.000000 0.000001 0.000000
 41   -4.433840 -1.059130 0.959566 -0.000001 0.000000 0.000000
 42   -0.657468 1.697302 -2.688614 0.000000 0.000002 0.000000
 43   -0.664068 1.698578 2.869377 0.000000 0.000002 0.000000
time 12
  0   0.001233 -0.019532 2.285597 0.000000 0.000000 -1.571829
  1   -1.093036 0.000002 -0.326057 -1.570756 -1.570425 -0.000074
  2   2.262337 0.113614 0.064702 -0.000052 0.000049 -0.051460
  3   2.380047 0.353302 0.047440 -0.151510 0.040540 0.258477
  4   2.033756 0.190472 -0.000128 -0.059893 0.011122 0.182551
  5   2.451511 0.204909 -0.003447 -0.085533 0.016719 0.193381
  6   7.247600 -0.397300 -0.109469 0.000001 0.000009 -0.122046
  7   -2.022252 -0.104661 3.136172 1.398382 -0.562224 -4.275933
  8   1.168026 -0.537438 -0.063437 -0.538915 0.363084 -0.465533
  9   6.790376 -0.619176 0.015206 -0.000158 -0.000285 -0.002944
 10   8.637599 0.544015 -0.090417 -1.014423 -0.577965 -0.036799
 11   6.790465 -0.619039 0.017802 -0.003495 -0.010685 -0.017216
 12   -2.022474 -0.104699 -2.873818 0.211785 1.275715 -2.818019
 13   1.167898 -0.537463 0.063297 -0.612913 -0.953925 0.408882
 14   7.002743 -0.617765 -0.183752 0.000229 0.000250 -1.630803
 15   8.209042 0.615527 -0.255885 1.570090 -0.000063 -0.069706
 16   7.002735 -0.617911 -0.183641 0.013496 0.009059 -1.160198
 17   1.574674 0.609930 -0.000899 0.207007 -0.217585 0.457754
 18   -0.602177 0.511412 -0.000006 0.000000 0.000000 0.000000
 19   3.673773 0.177020 1.119313 -0.000002 -0.000014 -0.174510
 20   3.673767 0.176993 -1.117566 0.000007 -0.000003 -0.174546
 21   3.942357 1.334540 1.627658 0.000002 -0.000011 -0.000026
 22   -0.246060 -0.011889 0.516521 -0.000011 0.000031 0.000025
 23   3.942374 1.334565 -1.631083 0.000019 0.000002 -0.000024
 24   -0.246150 -0.011872 -0.516511 -0.000005 -0.000006 0.000048
 25   4.941364 1.997338 1.629330 0.000018 -0.000001 -0.000024
 26   4.941382 1.997366 -1.629410 -0.000001 0.000005 -0.000024
 27   2.914462 1.619264 1.514501 -0.000019 -0.000022 -0.000050
 28   2.916892 1.618870 -1.501142 -0.000002 -0.000009 -0.000024
 29   8.824059 0.150544 0.091743 0.000006 -0.000231 -0.174534
 30   2.111085 -0.561179 1.784320 -0.000008 -0.000682 0.000024
 31   2.121290 -0.561289 -1.853599 0.000000 0.000000 -0.000002
 32   -0.814395 -0.093824 3.127092 0.338887 -3.077717 -0.167408
 33   14.298673 -0.408176 0.471578 0.013215 -0.091859 -0.496506
 34   15.835795 0.581398 0.242756 -0.532539 -0.064474 0.362915
 35   -0.815868 -0.091229 -3.114430 -0.002012 2.881638 -0.314978
 36   14.294526 -0.410349 -0.467541 -0.021444 0.095337 -0.575480
 37   15.834409 0.579420 -0.284600 -0.051545 0.043118 0.201427
 38   1.139685 -3.453749 -2.823813 0.000000 0.000000 0.000001
 39   -4.457742 -1.054854 -0.746180 0.000000 0.000000 0.000000
 40   1.118101 -3.449769 3.237290 0.000000 0.000001 0.000000
 41   -4.433840 -1.059130 0.959566 -0.000001 0.000000 0.000000
 42   -0.657468 1.697302 -2.688614 0.000000 0.000002 0.000000
 43   -0.664068 1.698578 2.869377 0.000000 0.000002 0.000000
time 13
  0   0.001233 -0.019532 2.285597 0.000000 0.000000 -1.571829
  1   -1.093036 0.000002 -0.326057 -1.570756 -1.570425 -0.000074
  2   2.262337 0.113614 0.064702 -0.000052 0.000049 -0.051460
  3   2.380047 0.353302 0.047440 -0.151510 0.040540 0.258477
  4   2.033756 0.190472 -0.000128 -0.059893 0.011122 0.182551
  5   2.451511 0.204909 -0.003447 -0.085396 0.017150 0.196774
  6   7.247600 -0.397300 -0.109469 0.000001 0.000009 -0.122046
  7   -2.022252 -0.104661 3.136172 1.396944 -0.561589 -4.272834
  8   1.168026 -0.537438 -0.063437 -0.538029 0.357197 -0.465723
  9   6.790376 -0.619176 0.015206 -0.000158 -0.000285 -0.002944
 10   8.637599 0.544015 -0.090417 -1.014423 -0.577965 -0.036799
 11   6.790465 -0.619039 0.017802 -0.003495 -0.010685 -0.017216
 12   -2.022474 -0.104699 -2.873818 0.209294 1.272087 -2.820700
 13   1.167898 -0.537463 0.063297 -0.605391 -0.951840 0.401981
 14   7.002743 -0.617765 -0.183752 0.000229 0.000250 -1.630803
 15   8.209042 0.615527 -0.255885 1.570090 -0.000063 -0.069706
 16   7.002735 -0.617911 -0.183641 0.013496 0.009059 -1.160198
 17   1.574674 0.609930 -0.000899 0.207007 -0.217585 0.454280
 18   -0.602177 0.511412 -0.000006 0.000000 0.000000 0.000000
 19   3.673773 0.177020 1.119313 -0.000002 -0.000014 -0.174510
 20   3.673767 0.176993 -1.117566 0.000007 -0.000003 -0.174546
 21   3.942357 1.334540 1.627658 0.000002 -0.000011 -0.000026
 22   -0.246060 -0.011889 0.516521 -0.000011 0.000031 0.000025
 23   3.942374 1.334565 -1.631083 0.000019 0.000002 -0.000024
 24   -0.246150 -0.011872 -0.516511 -0.000005 -0.000006 0.000048
 25   4.941364 1.997338 1.629330 0.000018 -0.000001 -0.000024
 26   4.941382 1.997366 -1.629410 -0.000001 0.000005 -0.000024
 27   2.914462 1.619264 1.514501 -0.000019 -0.000022 -0.000050
 28   2.916892 1.618870 -1.501142 -0.000002 -0.000009 -0.000024
 29   8.824059 0.150544 0.091743 0.000006 -0.000231 -0.174534
 30   2.111085 -0.561179 1.784320 -0.000008 -0.000682 0.000024
 31   2.121290 -0.561289 -1.853599 0.000000 0.000000 -0.000002
 32   -0.814395 -0.093824 3.127092 0.338887 -3.077717 -0.167408
 33   14.298673 -0.408176 0.471578 0.013215 -0.091859 -0.496506
 34   15.835795 0.581398 0.242756 -0.532539 -0.064474 0.362915
 35   -0.815868 -0.091229 -3.114430 -0.002012 2.881638 -0.314978
 36   14.294526 -0.410349 -0.467541 -0.021444 0.095337 -0.575480
 37   15.834409 0.579420 -0.284600 -0.051545 0.043118 0.201427
 38   1.139685 -3.453749 -2.823813 0.000000 0.000000 0.000001
 39   -4.457742 -1.054854 -0.746180 0.000000 0.000000 0.000000
 40   1.118101 -3.449769 3.237290 0.000000 0.000001 0.000000
 41   -4.433840 -1.059130 0.959566 -0.000001 0.000000 0.000000
 42   -0.657468 1.697302 -2.688614 0.000000 0.000002 0.000000
 43   -0.664068 1.698578 2.869377 0.000000 0.000002 0.000000
time 14
  0   0.001233 -0.019532 2.285597 0.000000 0.000000 -1.571829
  1   -1.093036 0.000002 -0.326057 -1.570756 -1.570425 -0.000074
  2   2.262337 0.113614 0.064702 -0.000052 0.000049 -0.051460
  3   2.380047 0.353302 0.047440 -0.151510 0.040540 0.258477
  4   2.033756 0.190472 -0.000128 -0.059893 0.011122 0.182551
  5   2.451511 0.204909 -0.003447 -0.085396 0.017333 0.198879
  6   7.247600 -0.397300 -0.109469 0.000001 0.000009 -0.122046
  7   -2.022252 -0.104661 3.136172 1.395698 -0.561416 -4.270486
  8   1.168026 -0.537438 -0.063437 -0.537143 0.353474 -0.465786
  9   6.790376 -0.619176 0.015206 -0.000158 -0.000285 -0.002944
 10   8.637599 0.544015 -0.090417 -1.014423 -0.577965 -0.036799
 11   6.790465 -0.619039 0.017802 -0.003495 -0.010685 -0.017216
 12   -2.022474 -0.104699 -2.873818 0.207856 1.269620 -2.822423
 13   1.167898 -0.537463 0.063297 -0.600681 -0.950671 0.397441
 14   7.002743 -0.617765 -0.183752 0.000229 0.000250 -1.630803
 15   8.209042 0.615527 -0.255885 1.570090 -0.000063 -0.069706
 16   7.002735 -0.617911 -0.183641 0.013496 0.009059 -1.160198
 17   1.574674 0.609930 -0.000899 0.207007 -0.217585 0.452136
 18   -0.602177 0.511412 -0.000006 0.000000 0.000000 0.000000
 19   3.673773 0.177020 1.119313 -0.000002 -0.000014 -0.174510
 20   3.673767 0.176993 -1.117566 0.000007 -0.000003 -0.174546
 21   3.942357 1.334540 1.627658 0.000002 -0.000011 -0.000026
 22   -0.246060 -0.011889 0.516521 -0.000011 0.000031 0.000025
 23   3.942374 1.334565 -1.631083 0.000019 0.000002 -0.000024
 24   -0.246150 -0.011872 -0.516511 -0.000005 -0.000006 0.000048
 25   4.941364 1.997338 1.629330 0.000018 -0.000001 -0.000024
 26   4.941382 1.997366 -1.629410 -0.000001 0.000005 -0.000024
 27   2.914462 1.619264 1.514501 -0.000019 -0.000022 -0.000050
 28   2.916892 1.618870 -1.501142 -0.000002 -0.000009 -0.000024
 29   8.824059 0.150544 0.091743 0.000006 -0.000231 -0.174534
 30   2.111085 -0.561179 1.784320 -0.000008 -0.000682 0.000024
 31   2.121290 -0.561289 -1.853599 0.000000 0.000000 -0.000002
 32   -0.814395 -0.093824 3.127092 0.338887 -3.077717 -0.167408
 33   14.298673 -0.408176 0.471578 0.013215 -0.091859 -0.496506
 34   15.835795 0.581398 0.242756 -0.532539 -0.064474 0.362915
 35   -0.815868 -0.091229 -3.114430 -0.002012 2.881638 -0.314978
 36   14.294526 -0.410349 -0.467541 -0.021444 0.095337 -0.575480
 37   15.834409 0.579420 -0.284600 -0.051545 0.043118 0.201427
 38   1.139685 -3.453749 -2.823813 0.000000 0.000000 0.000001
 39   -4.457742 -1.054854 -0.746180 0.000000 0.000000 0.000000
 40   1.118101 -3.449769 3.237290 0.000000 0.000001 0.000000
 41   -4.433840 -1.059130 0.959566 -0.000001 0.000000 0.000000
 42   -0.657468 1.697302 -2.688614 0.000000 0.000002 0.000000
 43   -0.664068 1.698578 2.869377 0.000000 0.000002 0.000000
time 15
  0   0.001233 -0.019532 2.285597 0.000000 0.000000 -1.571829
  1   -1.093036 0.000002 -0.326057 -1.570756 -1.570425 -0.000074
  2   2.262337 0.113614 0.064702 -0.000052 0.000049 -0.051460
  3   2.380047 0.353302 0.047440 -0.151510 0.040540 0.258477
  4   2.033756 0.190472 -0.000128 -0.059893 0.011122 0.182551
  5   2.451511 0.204909 -0.003447 -0.085396 0.017385 0.199696
  6   7.247600 -0.397300 -0.109469 0.000001 0.000009 -0.122046
  7   -2.022252 -0.104661 3.136172 1.395507 -0.561243 -4.270298
  8   1.168026 -0.537438 -0.063437 -0.537143 0.352367 -0.465786
  9   6.790376 -0.619176 0.015206 -0.000158 -0.000285 -0.002944
 10   8.637599 0.544015 -0.090417 -1.014423 -0.577965 -0.036799
 11   6.790465 -0.619039 0.017802 -0.003495 -0.010685 -0.017216
 12   -2.022474 -0.104699 -2.873818 0.207282 1.268836 -2.823189
 13   1.167898 -0.537463 0.063297 -0.598994 -0.950264 0.395746
 14   7.002743 -0.617765 -0.183752 0.000229 0.000250 -1.630803
 15   8.209042 0.615527 -0.255885 1.570090 -0.000063 -0.069706
 16   7.002735 -0.617911 -0.183641 0.013496 0.009059 -1.160198
 17   1.574674 0.609930 -0.000899 0.207007 -0.217585 0.451323
 18   -0.602177 0.511412 -0.000006 0.000000 0.000000 0.000000
 19   3.673773 0.177020 1.119313 -0.000002 -0.000014 -0.174510
 20   3.673767 0.176993 -1.117566 0.000007 -0.000003 -0.174546
 21   3.942357 1.334540 1.627658 0.000002 -0.000011 -0.000026
 22   -0.246060 -0.011889 0.516521 -0.000011 0.000031 0.000025
 23   3.942374 1.334565 -1.631083 0.000019 0.000002 -0.000024
 24   -0.246150 -0.011872 -0.516511 -0.000005 -0.000006 0.000048
 25   4.941364 1.997338 1.629330 0.000018 -0.000001 -0.000024
 26   4.941382 1.997366 -1.629410 -0.000001 0.000005 -0.000024
 27   2.914462 1.619264 1.514501 -0.000019 -0.000022 -0.000050
 28   2.916892 1.618870 -1.501142 -0.000002 -0.000009 -0.000024
 29   8.824059 0.150544 0.091743 0.000006 -0.000231 -0.174534
 30   2.111085 -0.561179 1.784320 -0.000008 -0.000682 0.000024
 31   2.121290 -0.561289 -1.853599 0.000000 0.000000 -0.000002
 32   -0.814395 -0.093824 3.127092 0.338887 -3.077717 -0.167408
 33   14.298673 -0.408176 0.471578 0.013215 -0.091859 -0.496506
 34   15.835795 0.581398 0.242756 -0.532539 -0.064474 0.362915
 35   -0.815868 -0.091229 -3.114430 -0.002012 2.881638 -0.314978
 36   14.294526 -0.410349 -0.467541 -0.021444 0.095337 -0.575480
 37   15.834409 0.579420 -0.284600 -0.051545 0.043118 0.201427
 38   1.139685 -3.453749 -2.823813 0.000000 0.000000 0.000001
 39   -4.457742 -1.054854 -0.746180 0.000000 0.000000 0.000000
 40   1.118101 -3.449769 3.237290 0.000000 0.000001 0.000000
 41   -4.433840 -1.059130 0.959566 -0.000001 0.000000 0.000000
 42   -0.657468 1.697302 -2.688614 0.000000 0.000002 0.000000
 43   -0.664068 1.698578 2.869377 0.000000 0.000002 0.000000
time 16
  0   0.001233 -0.019532 2.285597 0.000000 0.000000 -1.571829
  1   -1.093036 0.000002 -0.326057 -1.570756 -1.570425 -0.000074
  2   2.262337 0.113614 0.064702 -0.000052 0.000049 -0.051460
  3   2.380047 0.353302 0.047440 -0.151510 0.040540 0.258477
  4   2.033756 0.190472 -0.000128 -0.059893 0.011122 0.182551
  5   2.451511 0.204909 -0.003447 -0.085396 0.017333 0.198879
  6   7.247600 -0.397300 -0.109469 0.000001 0.000009 -0.122046
  7   -2.022252 -0.104661 3.136172 1.395698 -0.561416 -4.270486
  8   1.168026 -0.537438 -0.063437 -0.537143 0.353474 -0.465786
  9   6.790376 -0.619176 0.015206 -0.000158 -0.000285 -0.002944
 10   8.637599 0.544015 -0.090417 -1.014423 -0.577965 -0.036799
 11   6.790465 -0.619039 0.017802 -0.003495 -0.010685 -0.017216
 12   -2.022474 -0.104699 -2.873818 0.207856 1.269620 -2.822423
 13   1.167898 -0.537463 0.063297 -0.600681 -0.950671 0.397441
 14   7.002743 -0.617765 -0.183752 0.000229 0.000250 -1.630803
 15   8.209042 0.615527 -0.255885 1.570090 -0.000063 -0.069706
 16   7.002735 -0.617911 -0.183641 0.013496 0.009059 -1.160198
 17   1.574674 0.609930 -0.000899 0.207007 -0.217585 0.452136
 18   -0.602177 0.511412 -0.000006 0.000000 0.000000 0.000000
 19   3.673773 0.177020 1.119313 -0.000002 -0.000014 -0.174510
 20   3.673767 0.176993 -1.117566 0.000007 -0.000003 -0.174546
 21   3.942357 1.334540 1.627658 0.000002 -0.000011 -0.000026
 22   -0.246060 -0.011889 0.516521 -0.000011 0.000031 0.000025
 23   3.942374 1.334565 -1.631083 0.000019 0.000002 -0.000024
 24   -0.246150 -0.011872 -0.516511 -0.000005 -0.000006 0.000048
 25   4.941364 1.997338 1.629330 0.000018 -0.000001 -0.000024
 26   4.941382 1.997366 -1.629410 -0.000001 0.000005 -0.000024
 27   2.914462 1.619264 1.514501 -0.000019 -0.000022 -0.000050
 28   2.916892 1.618870 -1.501142 -0.000002 -0.000009 -0.000024
 29   8.824059 0.150544 0.091743 0.000006 -0.000231 -0.174534
 30   2.111085 -0.561179 1.784320 -0.000008 -0.000682 0.000024
 31   2.121290 -0.561289 -1.853599 0.000000 0.000000 -0.000002
 32   -0.814395 -0.093824 3.127092 0.338887 -3.077717 -0.167408
 33   14.298673 -0.408176 0.471578 0.013215 -0.091859 -0.496506
 34   15.835795 0.581398 0.242756 -0.532539 -0.064474 0.362915
 35   -0.815868 -0.091229 -3.114430 -0.002012 2.881638 -0.314978
 36   14.294526 -0.410349 -0.467541 -0.021444 0.095337 -0.575480
 37   15.834409 0.579420 -0.284600 -0.051545 0.043118 0.201427
 38   1.139685 -3.453749 -2.823813 0.000000 0.000000 0.000001
 39   -4.457742 -1.054854 -0.746180 0.000000 0.000000 0.000000
 40   1.118101 -3.449769 3.237290 0.000000 0.000001 0.000000
 41   -4.433840 -1.059130 0.959566 -0.000001 0.000000 0.000000
 42   -0.657468 1.697302 -2.688614 0.000000 0.000002 0.000000
 43   -0.664068 1.698578 2.869377 0.000000 0.000002 0.000000
time 17
  0   0.001233 -0.019532 2.285597 0.000000 0.000000 -1.571829
  1   -1.093036 0.000002 -0.326057 -1.570756 -1.570425 -0.000074
  2   2.262337 0.113614 0.064702 -0.000052 0.000049 -0.051460
  3   2.380047 0.353302 0.047440 -0.151510 0.040540 0.258477
  4   2.033756 0.190472 -0.000128 -0.059893 0.011122 0.182551
  5   2.451511 0.204909 -0.003447 -0.085396 0.017150 0.196774
  6   7.247600 -0.397300 -0.109469 0.000001 0.000009 -0.122046
  7   -2.022252 -0.104661 3.136172 1.396944 -0.561589 -4.272834
  8   1.168026 -0.537438 -0.063437 -0.538029 0.357197 -0.465723
  9   6.790376 -0.619176 0.015206 -0.000158 -0.000285 -0.002944
 10   8.637599 0.544015 -0.090417 -1.014423 -0.577965 -0.036799
 11   6.790465 -0.619039 0.017802 -0.003495 -0.010685 -0.017216
 12   -2.022474 -0.104699 -2.873818 0.209294 1.272087 -2.820700
 13   1.167898 -0.537463 0.063297 -0.605391 -0.951840 0.401981
 14   7.002743 -0.617765 -0.183752 0.000229 0.000250 -1.630803
 15   8.209042 0.615527 -0.255885 1.570090 -0.000063 -0.069706
 16   7.002735 -0.617911 -0.183641 0.013496 0.009059 -1.160198
 17   1.574674 0.609930 -0.000899 0.207007 -0.217585 0.454280
 18   -0.602177 0.511412 -0.000006 0.000000 0.000000 0.000000
 19   3.673773 0.177020 1.119313 -0.000002 -0.000014 -0.174510
 20   3.673767 0.176993 -1.117566 0.000007 -0.000003 -0.174546
 21   3.942357 1.334540 1.627658 0.000002 -0.000011 -0.000026
 22   -0.246060 -0.011889 0.516521 -0.000011 0.000031 0.000025
 23   3.942374 1.334565 -1.631083 0.000019 0.000002 -0.000024
 24   -0.246150 -0.011872 -0.516511 -0.000005 -0.000006 0.000048
 25   4.941364 1.997338 1.629330 0.000018 -0.000001 -0.000024
 26   4.941382 1.997366 -1.629410 -0.000001 0.000005 -0.000024
 27   2.914462 1.619264 1.514501 -0.000019 -0.000022 -0.000050
 28   2.916892 1.618870 -1.501142 -0.000002 -0.000009 -0.000024
 29   8.824059 0.150544 0.091743 0.000006 -0.000231 -0.174534
 30   2.111085 -0.561179 1.784320 -0.000008 -0.000682 0.000024
 31   2.121290 -0.561289 -1.853599 0.000000 0.000000 -0.000002
 32   -0.814395 -0.093824 3.127092 0.338887 -3.077717 -0.167408
 33   14.298673 -0.408176 0.471578 0.013215 -0.091859 -0.496506
 34   15.835795 0.581398 0.242756 -0.532539 -0.064474 0.362915
 35   -0.815868 -0.091229 -3.114430 -0.002012 2.881638 -0.314978
 36   14.294526 -0.410349 -0.467541 -0.021444 0.095337 -0.575480
 37   15.834409 0.579420 -0.284600 -0.051545 0.043118 0.201427
 38   1.139685 -3.453749 -2.823813 0.000000 0.000000 0.000001
 39   -4.457742 -1.054854 -0.746180 0.000000 0.000000 0.000000
 40   1.118101 -3.449769 3.237290 0.000000 0.000001 0.000000
 41   -4.433840 -1.059130 0.959566 -0.000001 0.000000 0.000000
 42   -0.657468 1.697302 -2.688614 0.000000 0.000002 0.000000
 43   -0.664068 1.698578 2.869377 0.000000 0.000002 0.000000
time 18
  0   0.001233 -0.019532 2.285597 0.000000 0.000000 -1.571829
  1   -1.093036 0.000002 -0.326057 -1.570756 -1.570425 -0.000074
  2   2.262337 0.113614 0.064702 -0.000052 0.000049 -0.051460
  3   2.380047 0.353302 0.047440 -0.151510 0.040540 0.258477
  4   2.033756 0.190472 -0.000128 -0.059893 0.011122 0.182551
  5   2.451511 0.204909 -0.003447 -0.085533 0.016719 0.193381
  6   7.247600 -0.397300 -0.109469 0.000001 0.000009 -0.122046
  7   -2.022252 -0.104661 3.136172 1.398382 -0.562224 -4.275933
  8   1.168026 -0.537438 -0.063437 -0.538915 0.363084 -0.465533
  9   6.790376 -0.619176 0.015206 -0.000158 -0.000285 -0.002944
 10   8.637599 0.544015 -0.090417 -1.014423 -0.577965 -0.036799
 11   6.790465 -0.619039 0.017802 -0.003495 -0.010685 -0.017216
 12   -2.022474 -0.104699 -2.873818 0.211785 1.275715 -2.818019
 13   1.167898 -0.537463 0.063297 -0.612913 -0.953925 0.408882
 14   7.002743 -0.617765 -0.183752 0.000229 0.000250 -1.630803
 15   8.209042 0.615527 -0.255885 1.570090 -0.000063 -0.069706
 16   7.002735 -0.617911 -0.183641 0.013496 0.009059 -1.160198
 17   1.574674 0.609930 -0.000899 0.207007 -0.217585 0.457754
 18   -0.602177 0.511412 -0.000006 0.000000 0.000000 0.000000
 19   3.673773 0.177020 1.119313 -0.000002 -0.000014 -0.174510
 20   3.673767 0.176993 -1.117566 0.000007 -0.000003 -0.174546
 21   3.942357 1.334540 1.627658 0.000002 -0.000011 -0.000026
 22   -0.246060 -0.011889 0.516521 -0.000011 0.000031 0.000025
 23   3.942374 1.334565 -1.631083 0.000019 0.000002 -0.000024
 24   -0.246150 -0.011872 -0.516511 -0.000005 -0.000006 0.000048
 25   4.941364 1.997338 1.629330 0.000018 -0.000001 -0.000024
 26   4.941382 1.997366 -1.629410 -0.000001 0.000005 -0.000024
 27   2.914462 1.619264 1.514501 -0.000019 -0.000022 -0.000050
 28   2.916892 1.618870 -1.501142 -0.000002 -0.000009 -0.000024
 29   8.824059 0.150544 0.091743 0.000006 -0.000231 -0.174534
 30   2.111085 -0.561179 1.784320 -0.000008 -0.000682 0.000024
 31   2.121290 -0.561289 -1.853599 0.000000 0.000000 -0.000002
 32   -0.814395 -0.093824 3.127092 0.338887 -3.077717 -0.167408
 33   14.298673 -0.408176 0.471578 0.013215 -0.091859 -0.496506
 34   15.835795 0.581398 0.242756 -0.532539 -0.064474 0.362915
 35   -0.815868 -0.091229 -3.114430 -0.002012 2.881638 -0.314978
 36   14.294526 -0.410349 -0.467541 -0.021444 0.095337 -0.575480
 37   15.834409 0.579420 -0.284600 -0.051545 0.043118 0.201427
 38   1.139685 -3.453749 -2.823813 0.000000 0.000000 0.000001
 39   -4.457742 -1.054854 -0.746180 0.000000 0.000000 0.000000
 40   1.118101 -3.449769 3.237290 0.000000 0.000001 0.000000
 41   -4.433840 -1.059130 0.959566 -0.000001 0.000000 0.000000
 42   -0.657468 1.697302 -2.688614 0.000000 0.000002 0.000000
 43   -0.664068 1.698578 2.869377 0.000000 0.000002 0.000000
time 19
  0   0.001233 -0.019532 2.285597 0.000000 0.000000 -1.571829
  1   -1.093036 0.000002 -0.326057 -1.570756 -1.570425 -0.000074
  2   2.262337 0.113614 0.064702 -0.000052 0.000049 -0.051460
  3   2.380047 0.353302 0.047440 -0.151510 0.040540 0.258477
  4   2.033756 0.190472 -0.000128 -0.059893 0.011122 0.182551
  5   2.451511 0.204909 -0.003447 -0.085533 0.016484 0.188948
  6   7.247600 -0.397300 -0.109469 0.000001 0.000009 -0.122046
  7   -2.022252 -0.104661 3.136172 1.400874 -0.562742 -4.279972
  8   1.168026 -0.537438 -0.063437 -0.539991 0.370631 -0.465280
  9   6.790376 -0.619176 0.015206 -0.000158 -0.000285 -0.002944
 10   8.637599 0.544015 -0.090417 -1.014423 -0.577965 -0.036799
 11   6.790465 -0.619039 0.017802 -0.003495 -0.010685 -0.017216
 12   -2.022474 -0.104699 -2.873818 0.215234 1.280329 -2.814668
 13   1.167898 -0.537463 0.063297 -0.622825 -0.956366 0.418265
 14   7.002743 -0.617765 -0.183752 0.000229 0.000250 -1.630803
 15   8.209042 0.615527 -0.255885 1.570090 -0.000063 -0.069706
 16   7.002735 -0.617911 -0.183641 0.013496 0.009059 -1.160198
 17   1.574674 0.609930 -0.000899 0.207007 -0.217585 0.462042
 18   -0.602177 0.511412 -0.000006 0.000000 0.000000 0.000000
 19   3.673773 0.177020 1.119313 -0.000002 -0.000014 -0.174510
 20   3.673767 0.176993 -1.117566 0.000007 -0.000003 -0.174546
 21   3.942357 1.334540 1.627658 0.000002 -0.000011 -0.000026
 22   -0.246060 -0.011889 0.516521 -0.000011 0.000031 0.000025
 23   3.942374 1.334565 -1.631083 0.000019 0.000002 -0.000024
 24   -0.246150 -0.011872 -0.516511 -0.000005 -0.000006 0.000048
 25   4.941364 1.997338 1.629330 0.000018 -0.000001 -0.000024
 26   4.941382 1.997366 -1.629410 -0.000001 0.000005 -0.000024
 27   2.914462 1.619264 1.514501 -0.000019 -0.000022 -0.000050
 28   2.916892 1.618870 -1.501142 -0.000002 -0.000009 -0.000024
 29   8.824059 0.150544 0.091743 0.000006 -0.000231 -0.174534
 30   2.111085 -0.561179 1.784320 -0.000008 -0.000682 0.000024
 31   2.121290 -0.561289 -1.853599 0.000000 0.000000 -0.000002
 32   -0.814395 -0.093824 3.127092 0.338887 -3.077717 -0.167408
 33   14.298673 -0.408176 0.471578 0.013215 -0.091859 -0.496506
 34   15.835795 0.581398 0.242756 -0.532539 -0.064474 0.362915
 35   -0.815868 -0.091229 -3.114430 -0.002012 2.881638 -0.314978
 36   14.294526 -0.410349 -0.467541 -0.021444 0.095337 -0.575480
 37   15.834409 0.579420 -0.284600 -0.051545 0.043118 0.201427
 38   1.139685 -3.453749 -2.823813 0.000000 0.000000 0.000001
 39   -4.457742 -1.054854 -0.746180 0.000000 0.000000 0.000000
 40   1.118101 -3.449769 3.237290 0.000000 0.000001 0.000000
 41   -4.433840 -1.059130 0.959566 -0.000001 0.000000 0.000000
 42   -0.657468 1.697302 -2.688614 0.000000 0.000002 0.000000
 43   -0.664068 1.698578 2.869377 0.000000 0.000002 0.000000
time 20
  0   0.001233 -0.019532 2.285597 0.000000 0.000000 -1.571829
  1   -1.093036 0.000002 -0.326057 -1.570756 -1.570425 -0.000026
  2   2.262337 0.113614 0.064702 -0.000052 0.000049 -0.051460
  3   2.380047 0.353302 0.047440 -0.151510 0.040540 0.258477
  4   2.033756 0.190472 -0.000128 -0.059893 0.011122 0.182551
  5   2.451511 0.204909 -0.003447 -0.085687 0.015923 0.183574
  6   7.247600 -0.397300 -0.109469 0.000001 0.000009 -0.122046
  7   -2.022252 -0.104661 3.136172 1.403559 -0.563434 -4.284949
  8   1.168026 -0.537438 -0.063437 -0.541446 0.379738 -0.465027
  9   6.790376 -0.619176 0.015206 -0.000158 -0.000285 -0.002944
 10   8.637599 0.544015 -0.090417 -1.014423 -0.577965 -0.036799
 11   6.790465 -0.619039 0.017802 -0.003495 -0.010685 -0.017216
 12   -2.022474 -0.104699 -2.873818 0.219737 1.286279 -2.810168
 13   1.167898 -0.537463 0.063297 -0.635267 -0.959570 0.429888
 14   7.002743 -0.617765 -0.183752 0.000229 0.000250 -1.630803
 15   8.209042 0.615527 -0.255885 1.570090 -0.000063 -0.069706
 16   7.002735 -0.617911 -0.183641 0.013496 0.009059 -1.160198
 17   1.574674 0.609930 -0.000899 0.207007 -0.217585 0.467660
 18   -0.602177 0.511412 -0.000006 0.000000 0.000000 0.000000
 19   3.673773 0.177020 1.119313 -0.000002 -0.000014 -0.174510
 20   3.673767 0.176993 -1.117566 0.000007 -0.000003 -0.174546
 21   3.942357 1.334540 1.627658 0.000002 -0.000011 -0.000026
 22   -0.246060 -0.011889 0.516521 -0.000011 0.000031 0.000025
 23   3.942374 1.334565 -1.631083 0.000019 0.000002 -0.000024
 24   -0.246150 -0.011872 -0.516511 -0.000005 -0.000006 0.000048
 25   4.941364 1.997338 1.629330 0.000018 -0.000001 -0.000024
 26   4.941382 1.997366 -1.629410 -0.000001 0.000005 -0.000024
 27   2.914462 1.619264 1.514501 -0.000019 -0.000022 -0.000050
 28   2.916892 1.618870 -1.501142 -0.000002 -0.000009 -0.000024
 29   8.824059 0.150544 0.091743 0.000006 -0.000231 -0.174534
 30   2.111085 -0.561179 1.784320 -0.000008 -0.000682 0.000024
 31   2.121290 -0.561289 -1.853599 0.000000 0.000000 -0.000002
 32   -0.814395 -0.093824 3.127092 0.338887 -3.077717 -0.167408
 33   14.298673 -0.408176 0.471578 0.013215 -0.091859 -0.496506
 34   15.835795 0.581398 0.242756 -0.532539 -0.064474 0.362915
 35   -0.815868 -0.091229 -3.114430 -0.002012 2.881638 -0.314978
 36   14.294526 -0.410349 -0.467541 -0.021444 0.095337 -0.575480
 37   15.834409 0.579420 -0.284600 -0.051545 0.043118 0.201427
 38   1.139685 -3.453749 -2.823813 0.000000 0.000000 0.000001
 39   -4.457742 -1.054854 -0.746180 0.000000 0.000000 0.000000
 40   1.118101 -3.449769 3.237290 0.000000 0.000001 0.000000
 41   -4.433840 -1.059130 0.959566 -0.000001 0.000000 0.000000
 42   -0.657468 1.697302 -2.688614 0.000000 0.000002 0.000000
 43   -0.664068 1.698578 2.869377 0.000000 0.000002 0.000000
time 21
  0   0.001233 -0.019532 2.285597 0.000000 0.000000 -1.571829
  1   -1.093036 0.000002 -0.326057 -1.570756 -1.570425 -0.000074
  2   2.262337 0.113614 0.064702 -0.000052 0.000049 -0.051460
  3   2.380047 0.353302 0.047440 -0.151510 0.040540 0.258477
  4   2.033756 0.190472 -0.000128 -0.059893 0.011122 0.182551
  5   2.451511 0.204909 -0.003447 -0.085790 0.015335 0.177432
  6   7.247600 -0.397300 -0.109469 0.000001 0.000009 -0.122046
  7   -2.022252 -0.104661 3.136172 1.406434 -0.564270 -4.290960
  8   1.168026 -0.537438 -0.063437 -0.543471 0.390002 -0.464774
  9   6.790376 -0.619176 0.015206 -0.000158 -0.000285 -0.002944
 10   8.637599 0.544015 -0.090417 -1.014423 -0.577965 -0.036799
 11   6.790465 -0.619039 0.017802 -0.003495 -0.010685 -0.017216
 12   -2.022474 -0.104699 -2.873818 0.224910 1.292897 -2.804711
 13   1.167898 -0.537463 0.063297 -0.649186 -0.962723 0.443145
 14   7.002743 -0.617765 -0.183752 0.000229 0.000250 -1.630803
 15   8.209042 0.615527 -0.255885 1.570090 -0.000063 -0.069706
 16   7.002735 -0.617911 -0.183641 0.013496 0.009059 -1.160198
 17   1.574674 0.609930 -0.000899 0.207007 -0.217585 0.473759
 18   -0.602177 0.511412 -0.000006 0.000000 0.000000 0.000000
 19   3.673773 0.177020 1.119313 -0.000002 -0.000014 -0.174510
 20   3.673767 0.176993 -1.117566 0.000007 -0.000003 -0.174546
 21   3.942357 1.334540 1.627658 0.000002 -0.000011 -0.000026
 22   -0.246060 -0.011889 0.516521 -0.000011 0.000031 0.000025
 23   3.942374 1.334565 -1.631083 0.000019 0.000002 -0.000024
 24   -0.246150 -0.011872 -0.516511 -0.000005 -0.000006 0.000048
 25   4.941364 1.997338 1.629330 0.000018 -0.000001 -0.000024
 26   4.941382 1.997366 -1.629410 -0.000001 0.000005 -0.000024
 27   2.914462 1.619264 1.514501 -0.000019 -0.000022 -0.000050
 28   2.916892 1.618870 -1.501142 -0.000002 -0.000009 -0.000024
 29   8.824059 0.150544 0.091743 0.000006 -0.000231 -0.174534
 30   2.111085 -0.561179 1.784320 -0.000008 -0.000682 0.000024
 31   2.121290 -0.561289 -1.853599 0.000000 0.000000 -0.000002
 32   -0.814395 -0.093824 3.127092 0.338887 -3.077717 -0.167408
 33   14.298673 -0.408176 0.471578 0.013215 -0.091859 -0.496506
 34   15.835795 0.581398 0.242756 -0.532539 -0.064474 0.362915
 35   -0.815868 -0.091229 -3.114430 -0.002012 2.881638 -0.314978
 36   14.294526 -0.410349 -0.467541 -0.021444 0.095337 -0.575480
 37   15.834409 0.579420 -0.284600 -0.051545 0.043118 0.201427
 38   1.139685 -3.453749 -2.823813 0.000000 0.000000 0.000001
 39   -4.457742 -1.054854 -0.746180 0.000000 0.000000 0.000000
 40   1.118101 -3.449769 3.237290 0.000000 0.000001 0.000000
 41   -4.433840 -1.059130 0.959566 -0.000001 0.000000 0.000000
 42   -0.657468 1.697302 -2.688614 0.000000 0.000002 0.000000
 43   -0.664068 1.698578 2.869377 0.000000 0.000002 0.000000
time 22
  0   0.001233 -0.019532 2.285597 0.000000 0.000000 -1.571829
  1   -1.093036 0.000002 -0.326057 -1.570756 -1.570425 -0.000074
  2   2.262337 0.113614 0.064702 -0.000052 0.000049 -0.051460
  3   2.380047 0.353302 0.047440 -0.151510 0.040540 0.258477
  4   2.033756 0.190472 -0.000128 -0.059893 0.011122 0.182551
  5   2.451511 0.204909 -0.003447 -0.085824 0.014891 0.170572
  6   7.247600 -0.397300 -0.109469 0.000001 0.000009 -0.122046
  7   -2.022252 -0.104661 3.136172 1.409789 -0.565164 -4.297158
  8   1.168026 -0.537438 -0.063437 -0.545180 0.401524 -0.464711
  9   6.790376 -0.619176 0.015206 -0.000158 -0.000285 -0.002944
 10   8.637599 0.544015 -0.090417 -1.014423 -0.577965 -0.036799
 11   6.790465 -0.619039 0.017802 -0.003495 -0.010685 -0.017216
 12   -2.022474 -0.104699 -2.873818 0.230754 1.300124 -2.798392
 13   1.167898 -0.537463 0.063297 -0.665002 -0.966232 0.457673
 14   7.002743 -0.617765 -0.183752 0.000229 0.000250 -1.630803
 15   8.209042 0.615527 -0.255885 1.570090 -0.000063 -0.069706
 16   7.002735 -0.617911 -0.183641 0.013496 0.009059 -1.160198
 17   1.574674 0.609930 -0.000899 0.207007 -0.217585 0.480596
 18   -0.602177 0.511412 -0.000006 0.000000 0.000000 0.000000
 19   3.673773 0.177020 1.119313 -0.000002 -0.000014 -0.174510
 20   3.673767 0.176993 -1.117566 0.000007 -0.000003 -0.174546
 21   3.942357 1.334540 1.627658 0.000002 -0.000011 -0.000026
 22   -0.246060 -0.011889 0.516521 -0.000011 0.000031 0.000025
 23   3.942374 1.334565 -1.631083 0.000019 0.000002 -0.000024
 24   -0.246150 -0.011872 -0.516511 -0.000005 -0.000006 0.000048
 25   4.941364 1.997338 1.629330 0.000018 -0.000001 -0.000024
 26   4.941382 1.997366 -1.629410 -0.000001 0.000005 -0.000024
 27   2.914462 1.619264 1.514501 -0.000019 -0.000022 -0.000050
 28   2.916892 1.618870 -1.501142 -0.000002 -0.000009 -0.000024
 29   8.824059 0.150544 0.091743 0.000006 -0.000231 -0.174534
 30   2.111085 -0.561179 1.784320 -0.000008 -0.000682 0.000024
 31   2.121290 -0.561289 -1.853599 0.000000 0.000000 -0.000002
 32   -0.814395 -0.093824 3.127092 0.338887 -3.077717 -0.167408
 33   14.298673 -0.408176 0.471578 0.013215 -0.091859 -0.496506
 34   15.835795 0.581398 0.242756 -0.532539 -0.064474 0.362915
 35   -0.815868 -0.091229 -3.114430 -0.002012 2.881638 -0.314978
 36   14.294526 -0.410349 -0.467541 -0.021444 0.095337 -0.575480
 37   15.834409 0.579420 -0.284600 -0.051545 0.043118 0.201427
 38   1.139685 -3.453749 -2.823813 0.000000 0.000000 0.000001
 39   -4.457742 -1.054854 -0.746180 0.000000 0.000000 0.000000
 40   1.118101 -3.449769 3.237290 0.000000 0.000001 0.000000
 41   -4.433840 -1.059130 0.959566 -0.000001 0.000000 0.000000
 42   -0.657468 1.697302 -2.688614 0.000000 0.000002 0.000000
 43   -0.664068 1.698578 2.869377 0.000000 0.000002 0.000000
time 23
  0   0.001233 -0.019532 2.285597 0.000000 0.000000 -1.571829
  1   -1.093036 0.000002 -0.326057 -1.570756 -1.570425 -0.000123
  2   2.262337 0.113614 0.064702 -0.000052 0.000049 -0.051460
  3   2.380047 0.353302 0.047440 -0.151510 0.040540 0.258477
  4   2.033756 0.190472 -0.000128 -0.059893 0.011122 0.182551
  5   2.451511 0.204909 -0.003447 -0.085978 0.014278 0.163365
  6   7.247600 -0.397300 -0.109469 0.000001 0.000009 -0.122046
  7   -2.022252 -0.104661 3.136172 1.413624 -0.566000 -4.303920
  8   1.168026 -0.537438 -0.063437 -0.547268 0.413851 -0.464331
  9   6.790376 -0.619176 0.015206 -0.000158 -0.000285 -0.002944
 10   8.637599 0.544015 -0.090417 -1.014423 -0.577965 -0.036799
 11   6.790465 -0.619039 0.017802 -0.003495 -0.010685 -0.017216
 12   -2.022474 -0.104699 -2.873818 0.237461 1.307902 -2.791594
 13   1.167898 -0.537463 0.063297 -0.682155 -0.969843 0.473836
 14   7.002743 -0.617765 -0.183752 0.000229 0.000250 -1.630803
 15   8.209042 0.615527 -0.255885 1.570090 -0.000063 -0.069706
 16   7.002735 -0.617911 -0.183641 0.013496 0.009059 -1.160198
 17   1.574674 0.609930 -0.000899 0.207007 -0.217585 0.487730
 18   -0.602177 0.511412 -0.000006 0.000000 0.000000 0.000000
 19   3.673773 0.177020 1.119313 -0.000002 -0.000014 -0.174510
 20   3.673767 0.176993 -1.117566 0.000007 -0.000003 -0.174546
 21   3.942357 1.334540 1.627658 0.000002 -0.000011 -0.000026
 22   -0.246060 -0.011889 0.516521 -0.000011 0.000031 0.000025
 23   3.942374 1.334565 -1.631083 0.000019 0.000002 -0.000024
 24   -0.246150 -0.011872 -0.516511 -0.000005 -0.000006 0.000048
 25   4.941364 1.997338 1.629330 0.000018 -0.000001 -0.000024
 26   4.941382 1.997366 -1.629410 -0.000001 0.000005 -0.000024
 27   2.914462 1.619264 1.514501 -0.000019 -0.000022 -0.000050
 28   2.916892 1.618870 -1.501142 -0.000002 -0.000009 -0.000024
 29   8.824059 0.150544 0.091743 0.000006 -0.000231 -0.174534
 30   2.111085 -0.561179 1.784320 -0.000008 -0.000682 0.000024
 31   2.121290 -0.561289 -1.853599 0.000000 0.000000 -0.000002
 32   -0.814395 -0.093824 3.127092 0.338887 -3.077717 -0.167408
 33   14.298673 -0.408176 0.471578 0.013215 -0.091859 -0.496506
 34   15.835795 0.581398 0.242756 -0.532539 -0.064474 0.362915
 35   -0.815868 -0.091229 -3.114430 -0.002012 2.881638 -0.314978
 36   14.294526 -0.410349 -0.467541 -0.021444 0.095337 -0.575480
 37   15.834409 0.579420 -0.284600 -0.051545 0.043118 0.201427
 38   1.139685 -3.453749 -2.823813 0.000000 0.000000 0.000001
 39   -4.457742 -1.054854 -0.746180 0.000000 0.000000 0.000000
 40   1.118101 -3.449769 3.237290 0.000000 0.000001 0.000000
 41   -4.433840 -1.059130 0.959566 -0.000001 0.000000 0.000000
 42   -0.657468 1.697302 -2.688614 0.000000 0.000002 0.000000
 43   -0.664068 1.698578 2.869377 0.000000 0.000002 0.000000
time 24
  0   0.001233 -0.019532 2.285597 0.000000 0.000000 -1.571829
  1   -1.093036 0.000002 -0.326057 -1.570756 -1.570425 -0.000123
  2   2.262337 0.113614 0.064702 -0.000052 0.000049 -0.051460
  3   2.380047 0.353302 0.047440 -0.151510 0.040540 0.258477
  4   2.033756 0.190472 -0.000128 -0.059893 0.011122 0.182551
  5   2.451511 0.204909 -0.003447 -0.086098 0.013586 0.155812
  6   7.247600 -0.397300 -0.109469 0.000001 0.000009 -0.122046
  7   -2.022252 -0.104661 3.136172 1.417170 -0.566951 -4.311152
  8   1.168026 -0.537438 -0.063437 -0.549293 0.426832 -0.464268
  9   6.790376 -0.619176 0.015206 -0.000158 -0.000285 -0.002944
 10   8.637599 0.544015 -0.090417 -1.014423 -0.577965 -0.036799
 11   6.790465 -0.619039 0.017802 -0.003495 -0.010685 -0.017216
 12   -2.022474 -0.104699 -2.873818 0.245221 1.316174 -2.783552
 13   1.167898 -0.537463 0.063297 -0.700080 -0.973403 0.490362
 14   7.002743 -0.617765 -0.183752 0.000229 0.000250 -1.630803
 15   8.209042 0.615527 -0.255885 1.570090 -0.000063 -0.069706
 16   7.002735 -0.617911 -0.183641 0.013496 0.009059 -1.160198
 17   1.574674 0.609930 -0.000899 0.207007 -0.217585 0.495381
 18   -0.602177 0.511412 -0.000006 0.000000 0.000000 0.000000
 19   3.673773 0.177020 1.119313 -0.000002 -0.000014 -0.174510
 20   3.673767 0.176993 -1.117566 0.000007 -0.000003 -0.174546
 21   3.942357 1.334540 1.627658 0.000002 -0.000011 -0.000026
 22   -0.246060 -0.011889 0.516521 -0.000011 0.000031 0.000025
 23   3.942374 1.334565 -1.631083 0.000019 0.000002 -0.000024
 24   -0.246150 -0.011872 -0.516511 -0.000005 -0.000006 0.000048
 25   4.941364 1.997338 1.629330 0.000018 -0.000001 -0.000024
 26   4.941382 1.997366 -1.629410 -0.000001 0.000005 -0.000024
 27   2.914462 1.619264 1.514501 -0.000019 -0.000022 -0.000050
 28   2.916892 1.618870 -1.501142 -0.000002 -0.000009 -0.000024
 29   8.824059 0.150544 0.091743 0.000006 -0.000231 -0.174534
 30   2.111085 -0.561179 1.784320 -0.000008 -0.000682 0.000024
 31   2.121290 -0.561289 -1.853599 0.000000 0.000000 -0.000002
 32   -0.814395 -0.093824 3.127092 0.338887 -3.077717 -0.167408
 33   14.298673 -0.408176 0.471578 0.013215 -0.091859 -0.496506
 34   15.835795 0.581398 0.242756 -0.532539 -0.064474 0.362915
 35   -0.815868 -0.091229 -3.114430 -0.002012 2.881638 -0.314978
 36   14.294526 -0.410349 -0.467541 -0.021444 0.095337 -0.575480
 37   15.834409 0.579420 -0.284600 -0.051545 0.043118 0.201427
 38   1.139685 -3.453749 -2.823813 0.000000 0.000000 0.000001
 39   -4.457742 -1.054854 -0.746180 0.000000 0.000000 0.000000
 40   1.118101 -3.449769 3.237290 0.000000 0.000001 0.000000
 41   -4.433840 -1.059130 0.959566 -0.000001 0.000000 0.000000
 42   -0.657468 1.697302 -2.688614 0.000000 0.000002 0.000000
 43   -0.664068 1.698578 2.869377 0.000000 0.000002 0.000000
time 25
  0   0.001233 -0.019532 2.285597 0.000000 0.000000 -1.571829
  1   -1.093036 0.000002 -0.326057 -1.570756 -1.570425 -0.000123
  2   2.262337 0.113614 0.064702 -0.000052 0.000049 -0.051460
  3   2.380047 0.353302 0.047440 -0.151510 0.040540 0.258477
  4   2.033756 0.190472 -0.000128 -0.059893 0.011122 0.182551
  5   2.451511 0.204909 -0.003447 -0.086132 0.012829 0.148110
  6   7.247600 -0.397300 -0.109469 0.000001 0.000009 -0.122046
  7   -2.022252 -0.104661 3.136172 1.421101 -0.567874 -4.318289
  8   1.168026 -0.537438 -0.063437 -0.551508 0.439813 -0.464268
  9   6.790376 -0.619176 0.015206 -0.000158 -0.000285 -0.002944
 10   8.637599 0.544015 -0.090417 -1.014423 -0.577965 -0.036799
 11   6.790465 -0.619039 0.017802 -0.003495 -0.010685 -0.017216
 12   -2.022474 -0.104699 -2.873818 0.253269 1.324388 -2.775414
 13   1.167898 -0.537463 0.063297 -0.718920 -0.976861 0.507796
 14   7.002743 -0.617765 -0.183752 0.000229 0.000250 -1.630803
 15   8.209042 0.615527 -0.255885 1.570090 -0.000063 -0.069706
 16   7.002735 -0.617911 -0.183641 0.013496 0.009059 -1.160198
 17   1.574674 0.609930 -0.000899 0.207007 -0.217585 0.503143
 18   -0.602177 0.511412 -0.000006 0.000000 0.000000 0.000000
 19   3.673773 0.177020 1.119313 -0.000002 -0.000014 -0.174510
 20   3.673767 0.176993 -1.117566 0.000007 -0.000003 -0.174546
 21   3.942357 1.334540 1.627658 0.000002 -0.000011 -0.000026
 22   -0.246060 -0.011889 0.516521 -0.000011 0.000031 0.000025
 23   3.942374 1.334565 -1.631083 0.000019 0.000002 -0.000024
 24   -0.246150 -0.011872 -0.516511 -0.000005 -0.000006 0.000048
 25   4.941364 1.997338 1.629330 0.000018 -0.000001 -0.000024
 26   4.941382 1.997366 -1.629410 -0.000001 0.000005 -0.000024
 27   2.914462 1.619264 1.514501 -0.000019 -0.000022 -0.000050
 28   2.916892 1.618870 -1.501142 -0.000002 -0.000009 -0.000024
 29   8.824059 0.150544 0.091743 0.000006 -0.000231 -0.174534
 30   2.111085 -0.561179 1.784320 -0.000008 -0.000682 0.000024
 31   2.121290 -0.561289 -1.853599 0.000000 0.000000 -0.000002
 32   -0.814395 -0.093824 3.127092 0.338887 -3.077717 -0.167408
 33   14.298673 -0.408176 0.471578 0.013215 -0.091859 -0.496506
 34   15.835795 0.581398 0.242756 -0.532539 -0.064474 0.362915
 35   -0.815868 -0.091229 -3.114430 -0.002012 2.881638 -0.314978
 36   14.294526 -0.410349 -0.467541 -0.021444 0.095337 -0.575480
 37   15.834409 0.579420 -0.284600 -0.051545 0.043118 0.201427
 38   1.139685 -3.453749 -2.823813 0.000000 0.000000 0.000001
 39   -4.457742 -1.054854 -0.746180 0.000000 0.000000 0.000000
 40   1.118101 -3.449769 3.237290 0.000000 0.000001 0.000000
 41   -4.433840 -1.059130 0.959566 -0.000001 0.000000 0.000000
 42   -0.657468 1.697302 -2.688614 0.000000 0.000002 0.000000
 43   -0.664068 1.698578 2.869377 0.000000 0.000002 0.000000
time 26
  0   0.001233 -0.019532 2.285597 0.000000 0.000000 -1.571829
  1   -1.093036 0.000002 -0.326057 -1.570756 -1.570425 -0.000171
  2   2.262337 0.113614 0.064702 -0.000052 0.000049 -0.051460
  3   2.380047 0.353302 0.047440 -0.151510 0.040540 0.258477
  4   2.033756 0.190472 -0.000128 -0.059893 0.011122 0.182551
  5   2.451511 0.204909 -0.003447 -0.086269 0.012150 0.140457
  6   7.247600 -0.397300 -0.109469 0.000001 0.000009 -0.122046
  7   -2.022252 -0.104661 3.136172 1.425127 -0.568825 -4.325803
  8   1.168026 -0.537438 -0.063437 -0.553596 0.452794 -0.464268
  9   6.790376 -0.619176 0.015206 -0.000158 -0.000285 -0.002944
 10   8.637599 0.544015 -0.090417 -1.014423 -0.577965 -0.036799
 11   6.790465 -0.619039 0.017802 -0.003495 -0.010685 -0.017216
 12   -2.022474 -0.104699 -2.873818 0.261796 1.332514 -2.766223
 13   1.167898 -0.537463 0.063297 -0.737337 -0.980065 0.525109
 14   7.002743 -0.617765 -0.183752 0.000229 0.000250 -1.630803
 15   8.209042 0.615527 -0.255885 1.570090 -0.000063 -0.069706
 16   7.002735 -0.617911 -0.183641 0.013496 0.009059 -1.160198
 17   1.574674 0.609930 -0.000899 0.207007 -0.217585 0.510830
 18   -0.602177 0.511412 -0.000006 0.000000 0.000000 0.000000
 19   3.673773 0.177020 1.119313 -0.000002 -0.000014 -0.174510
 20   3.673767 0.176993 -1.117566 0.000007 -0.000003 -0.174546
 21   3.942357 1.334540 1.627658 0.000002 -0.000011 -0.000026
 22   -0.246060 -0.011889 0.516521 -0.000011 0.000031 0.000025
 23   3.942374 1.334565 -1.631083 0.000019 0.000002 -0.000024
 24   -0.246150 -0.011872 -0.516511 -0.000005 -0.000006 0.000048
 25   4.941364 1.997338 1.629330 0.000018 -0.000001 -0.000024
 26   4.941382 1.997366 -1.629410 -0.000001 0.000005 -0.000024
 27   2.914462 1.619264 1.514501 -0.000019 -0.000022 -0.000050
 28   2.916892 1.618870 -1.501142 -0.000002 -0.000009 -0.000024
 29   8.824059 0.150544 0.091743 0.000006 -0.000231 -0.174534
 30   2.111085 -0.561179 1.784320 -0.000008 -0.000682 0.000024
 31   2.121290 -0.561289 -1.853599 0.000000 0.000000 -0.000002
 32   -0.814395 -0.093824 3.127092 0.338887 -3.077717 -0.167408
 33   14.298673 -0.408176 0.471578 0.013215 -0.091859 -0.496506
 34   15.835795 0.581398 0.242756 -0.532539 -0.064474 0.362915
 35   -0.815868 -0.091229 -3.114430 -0.002012 2.881638 -0.314978
 36   14.294526 -0.410349 -0.467541 -0.021444 0.095337 -0.575480
 37   15.834409 0.579420 -0.284600 -0.051545 0.043118 0.201427
 38   1.139685 -3.453749 -2.823813 0.000000 0.000000 0.000001
 39   -4.457742 -1.054854 -0.746180 0.000000 0.000000 0.000000
 40   1.118101 -3.449769 3.237290 0.000000 0.000001 0.000000
 41   -4.433840 -1.059130 0.959566 -0.000001 0.000000 0.000000
 42   -0.657468 1.697302 -2.688614 0.000000 0.000002 0.000000
 43   -0.664068 1.698578 2.869377 0.000000 0.000002 0.000000
time 27
  0   0.001233 -0.019532 2.285597 0.000000 0.000000 -1.571829
  1   -1.093036 0.000002 -0.326057 -1.570756 -1.570425 -0.000123
  2   2.262337 0.113614 0.064702 -0.000052 0.000049 -0.051460
  3   2.380047 0.353302 0.047440 -0.151510 0.040540 0.258477
  4   2.033756 0.190472 -0.000128 -0.059893 0.011122 0.182551
  5   2.451511 0.204909 -0.003447 -0.086389 0.011614 0.132904
  6   7.247600 -0.397300 -0.109469 0.000001 0.000009 -0.122046
  7   -2.022252 -0.104661 3.136172 1.428961 -0.569661 -4.332752
  8   1.168026 -0.537438 -0.063437 -0.555811 0.465625 -0.464268
  9   6.790376 -0.619176 0.015206 -0.000158 -0.000285 -0.002944
 10   8.637599 0.544015 -0.090417 -1.014423 -0.577965 -0.036799
 11   6.790465 -0.619039 0.017802 -0.003495 -0.010685 -0.017216
 12   -2.022474 -0.104699 -2.873818 0.270802 1.340409 -2.756936
 13   1.167898 -0.537463 0.063297 -0.756036 -0.983217 0.542301
 14   7.002743 -0.617765 -0.183752 0.000229 0.000250 -1.630803
 15   8.209042 0.615527 -0.255885 1.570090 -0.000063 -0.069706
 16   7.002735 -0.617911 -0.183641 0.013496 0.009059 -1.160198
 17   1.574674 0.609930 -0.000899 0.207007 -0.217585 0.518371
 18   -0.602177 0.511412 -0.000006 0.000000 0.000000 0.000000
 19   3.673773 0.177020 1.119313 -0.000002 -0.000014 -0.174510
 20   3.673767 0.176993 -1.117566 0.000007 -0.000003 -0.174546
 21   3.942357 1.334540 1.627658 0.000002 -0.000011 -0.000026
 22   -0.246060 -0.011889 0.516521 -0.000011 0.000031 0.000025
 23   3.942374 1.334565 -1.631083 0.000019 0.000002 -0.000024
 24   -0.246150 -0.011872 -0.516511 -0.000005 -0.000006 0.000048
 25   4.941364 1.997338 1.629330 0.000018 -0.000001 -0.000024
 26   4.941382 1.997366 -1.629410 -0.000001 0.000005 -0.000024
 27   2.914462 1.619264 1.514501 -0.000019 -0.000022 -0.000050
 28   2.916892 1.618870 -1.501142 -0.000002 -0.000009 -0.000024
 29   8.824059 0.150544 0.091743 0.000006 -0.000231 -0.174534
 30   2.111085 -0.561179 1.784320 -0.000008 -0.000682 0.000024
 31   2.121290 -0.561289 -1.853599 0.000000 0.000000 -0.000002
 32   -0.814395 -0.093824 3.127092 0.338887 -3.077717 -0.167408
 33   14.298673 -0.408176 0.471578 0.013215 -0.091859 -0.496506
 34   15.835795 0.581398 0.242756 -0.532539 -0.064474 0.362915
 35   -0.815868 -0.091229 -3.114430 -0.002012 2.881638 -0.314978
 36   14.294526 -0.410349 -0.467541 -0.021444 0.095337 -0.575480
 37   15.834409 0.579420 -0.284600 -0.051545 0.043118 0.201427
 38   1.139685 -3.453749 -2.823813 0.000000 0.000000 0.000001
 39   -4.457742 -1.054854 -0.746180 0.000000 0.000000 0.000000
 40   1.118101 -3.449769 3.237290 0.000000 0.000001 0.000000
 41   -4.433840 -1.059130 0.959566 -0.000001 0.000000 0.000000
 42   -0.657468 1.697302 -2.688614 0.000000 0.000002 0.000000
 43   -0.664068 1.698578 2.869377 0.000000 0.000002 0.000000
time 28
  0   0.001233 -0.019532 2.285597 0.000000 0.000000 -1.571829
  1   -1.093036 0.000002 -0.326057 -1.570756 -1.570425 -0.000123
  2   2.262337 0.113614 0.064702 -0.000052 0.000049 -0.051460
  3   2.380047 0.353302 0.047440 -0.151510 0.040540 0.258477
  4   2.033756 0.190472 -0.000128 -0.059893 0.011122 0.182551
  5   2.451511 0.204909 -0.003447 -0.086423 0.011014 0.125697
  6   7.247600 -0.397300 -0.109469 0.000001 0.000009 -0.122046
  7   -2.022252 -0.104661 3.136172 1.432891 -0.570497 -4.339514
  8   1.168026 -0.537438 -0.063437 -0.557646 0.477952 -0.464268
  9   6.790376 -0.619176 0.015206 -0.000158 -0.000285 -0.002944
 10   8.637599 0.544015 -0.090417 -1.014423 -0.577965 -0.036799
 11   6.790465 -0.619039 0.017802 -0.003495 -0.010685 -0.017216
 12   -2.022474 -0.104699 -2.873818 0.280287 1.348129 -2.747266
 13   1.167898 -0.537463 0.063297 -0.774102 -0.985760 0.558948
 14   7.002743 -0.617765 -0.183752 0.000229 0.000250 -1.630803
 15   8.209042 0.615527 -0.255885 1.570090 -0.000063 -0.069706
 16   7.002735 -0.617911 -0.183641 0.013496 0.009059 -1.160198
 17   1.574674 0.609930 -0.000899 0.207007 -0.217585 0.525615
 18   -0.602177 0.511412 -0.000006 0.000000 0.000000 0.000000
 19   3.673773 0.177020 1.119313 -0.000002 -0.000014 -0.174510
 20   3.673767 0.176993 -1.117566 0.000007 -0.000003 -0.174546
 21   3.942357 1.334540 1.627658 0.000002 -0.000011 -0.000026
 22   -0.246060 -0.011889 0.516521 -0.000011 0.000031 0.000025
 23   3.942374 1.334565 -1.631083 0.000019 0.000002 -0.000024
 24   -0.246150 -0.011872 -0.516511 -0.000005 -0.000006 0.000048
 25   4.941364 1.997338 1.629330 0.000018 -0.000001 -0.000024
 26   4.941382 1.997366 -1.629410 -0.000001 0.000005 -0.000024
 27   2.914462 1.619264 1.514501 -0.000019 -0.000022 -0.000050
 28   2.916892 1.618870 -1.501142 -0.000002 -0.000009 -0.000024
 29   8.824059 0.150544 0.091743 0.000006 -0.000231 -0.174534
 30   2.111085 -0.561179 1.784320 -0.000008 -0.000682 0.000024
 31   2.121290 -0.561289 -1.853599 0.000000 0.000000 -0.000002
 32   -0.814395 -0.093824 3.127092 0.338887 -3.077717 -0.167408
 33   14.298673 -0.408176 0.471578 0.013215 -0.091859 -0.496506
 34   15.835795 0.581398 0.242756 -0.532539 -0.064474 0.362915
 35   -0.815868 -0.091229 -3.114430 -0.002012 2.881638 -0.314978
 36   14.294526 -0.410349 -0.467541 -0.021444 0.095337 -0.575480
 37   15.834409 0.579420 -0.284600 -0.051545 0.043118 0.201427
 38   1.139685 -3.453749 -2.823813 0.000000 0.000000 0.000001
 39   -4.457742 -1.054854 -0.746180 0.000000 0.000000 0.000000
 40   1.118101 -3.449769 3.237290 0.000000 0.000001 0.000000
 41   -4.433840 -1.059130 0.959566 -0.000001 0.000000 0.000000
 42   -0.657468 1.697302 -2.688614 0.000000 0.000002 0.000000
 43   -0.664068 1.698578 2.869377 0.000000 0.000002 0.000000
time 29
  0   0.001233 -0.019532 2.285597 0.000000 0.000000 -1.571829
  1   -1.093036 0.000002 -0.326057 -1.570756 -1.570425 -0.000123
  2   2.262337 0.113614 0.064702 -0.000052 0.000049 -0.051460
  3   2.380047 0.353302 0.047440 -0.151510 0.040540 0.258477
  4   2.033756 0.190472 -0.000128 -0.059893 0.011122 0.182551
  5   2.451511 0.204909 -0.003447 -0.086543 0.010426 0.118936
  6   7.247600 -0.397300 -0.109469 0.000001 0.000009 -0.122046
  7   -2.022252 -0.104661 3.136172 1.436246 -0.571189 -4.346088
  8   1.168026 -0.537438 -0.063437 -0.559608 0.489474 -0.464331
  9   6.790376 -0.619176 0.015206 -0.000158 -0.000285 -0.002944
 10   8.637599 0.544015 -0.090417 -1.014423 -0.577965 -0.036799
 11   6.790465 -0.619039 0.017802 -0.003495 -0.010685 -0.017216
 12   -2.022474 -0.104699 -2.873818 0.289867 1.355298 -2.737597
 13   1.167898 -0.537463 0.063297 -0.791254 -0.988201 0.574687
 14   7.002743 -0.617765 -0.183752 0.000229 0.000250 -1.630803
 15   8.209042 0.615527 -0.255885 1.570090 -0.000063 -0.069706
 16   7.002735 -0.617911 -0.183641 0.013496 0.009059 -1.160198
 17   1.574674 0.609930 -0.000899 0.207007 -0.217585 0.532564
 18   -0.602177 0.511412 -0.000006 0.000000 0.000000 0.000000
 19   3.673773 0.177020 1.119313 -0.000002 -0.000014 -0.174510
 20   3.673767 0.176993 -1.117566 0.000007 -0.000003 -0.174546
 21   3.942357 1.334540 1.627658 0.000002 -0.000011 -0.000026
 22   -0.246060 -0.011889 0.516521 -0.000011 0.000031 0.000025
 23   3.942374 1.334565 -1.631083 0.000019 0.000002 -0.000024
 24   -0.246150 -0.011872 -0.516511 -0.000005 -0.000006 0.000048
 25   4.941364 1.997338 1.629330 0.000018 -0.000001 -0.000024
 26   4.941382 1.997366 -1.629410 -0.000001 0.000005 -0.000024
 27   2.914462 1.619264 1.514501 -0.000019 -0.000022 -0.000050
 28   2.916892 1.618870 -1.501142 -0.000002 -0.000009 -0.000024
 29   8.824059 0.150544 0.091743 0.000006 -0.000231 -0.174534
 30   2.111085 -0.561179 1.784320 -0.000008 -0.000682 0.000024
 31   2.121290 -0.561289 -1.853599 0.000000 0.000000 -0.000002
 32   -0.814395 -0.093824 3.127092 0.338887 -3.077717 -0.167408
 33   14.298673 -0.408176 0.471578 0.013215 -0.091859 -0.496506
 34   15.835795 0.581398 0.242756 -0.532539 -0.064474 0.362915
 35   -0.815868 -0.091229 -3.114430 -0.002012 2.881638 -0.314978
 36   14.294526 -0.410349 -0.467541 -0.021444 0.095337 -0.575480
 37   15.834409 0.579420 -0.284600 -0.051545 0.043118 0.201427
 38   1.139685 -3.453749 -2.823813 0.000000 0.000000 0.000001
 39   -4.457742 -1.054854 -0.746180 0.000000 0.000000 0.000000
 40   1.118101 -3.449769 3.237290 0.000000 0.000001 0.000000
 41   -4.433840 -1.059130 0.959566 -0.000001 0.000000 0.000000
 42   -0.657468 1.697302 -2.688614 0.000000 0.000002 0.000000
 43   -0.664068 1.698578 2.869377 0.000000 0.000002 0.000000
time 30
  0   0.001233 -0.019532 2.285597 0.000000 0.000000 -1.571829
  1   -1.093036 0.000002 -0.326057 -1.570756 -1.570425 -0.000268
  2   2.262337 0.113614 0.064702 -0.000052 0.000049 -0.051460
  3   2.380047 0.353302 0.047440 -0.151510 0.040540 0.258477
  4   2.033756 0.190472 -0.000128 -0.059893 0.011122 0.182551
  5   2.451511 0.204909 -0.003447 -0.086560 0.009761 0.112720
  6   7.247600 -0.397300 -0.109469 0.000001 0.000009 -0.122046
  7   -2.022252 -0.104661 3.136172 1.439314 -0.571852 -4.352005
  8   1.168026 -0.537438 -0.063437 -0.561253 0.500040 -0.464711
  9   6.790376 -0.619176 0.015206 -0.000158 -0.000285 -0.002944
 10   8.637599 0.544015 -0.090417 -1.014423 -0.577965 -0.036799
 11   6.790465 -0.619039 0.017802 -0.003495 -0.010685 -0.017216
 12   -2.022474 -0.104699 -2.873818 0.298873 1.361683 -2.728310
 13   1.167898 -0.537463 0.063297 -0.806790 -0.990286 0.588852
 14   7.002743 -0.617765 -0.183752 0.000229 0.000250 -1.630803
 15   8.209042 0.615527 -0.255885 1.570090 -0.000063 -0.069706
 16   7.002735 -0.617911 -0.183641 0.013496 0.009059 -1.160198
 17   1.574674 0.609930 -0.000899 0.207007 -0.217585 0.538699
 18   -0.602177 0.511412 -0.000006 0.000000 0.000000 0.000000
 19   3.673773 0.177020 1.119313 -0.000002 -0.000014 -0.174510
 20   3.673767 0.176993 -1.117566 0.000007 -0.000003 -0.174546
 21   3.942357 1.334540 1.627658 0.000002 -0.000011 -0.000026
 22   -0.246060 -0.011889 0.516521 -0.000011 0.000031 0.000025
 23   3.942374 1.334565 -1.631083 0.000019 0.000002 -0.000024
 24   -0.246150 -0.011872 -0.516511 -0.000005 -0.000006 0.000048
 25   4.941364 1.997338 1.629330 0.000018 -0.000001 -0.000024
 26   4.941382 1.997366 -1.629410 -0.000001 0.000005 -0.000024
 27   2.914462 1.619264 1.514501 -0.000019 -0.000022 -0.000050
 28   2.916892 1.618870 -1.501142 -0.000002 -0.000009 -0.000024
 29   8.824059 0.150544 0.091743 0.000006 -0.000231 -0.174534
 30   2.111085 -0.561179 1.784320 -0.000008 -0.000682 0.000024
 31   2.121290 -0.561289 -1.853599 0.000000 0.000000 -0.000002
 32   -0.814395 -0.093824 3.127092 0.338887 -3.077717 -0.167408
 33   14.298673 -0.408176 0.471578 0.013215 -0.091859 -0.496506
 34   15.835795 0.581398 0.242756 -0.532539 -0.064474 0.362915
 35   -0.815868 -0.091229 -3.114430 -0.002012 2.881638 -0.314978
 36   14.294526 -0.410349 -0.467541 -0.021444 0.095337 -0.575480
 37   15.834409 0.579420 -0.284600 -0.051545 0.043118 0.201427
 38   1.139685 -3.453749 -2.823813 0.000000 0.000000 0.000001
 39   -4.457742 -1.054854 -0.746180 0.000000 0.000000 0.000000
 40   1.118101 -3.449769 3.237290 0.000000 0.000001 0.000000
 41   -4.433840 -1.059130 0.959566 -0.000001 0.000000 0.000000
 42   -0.657468 1.697302 -2.688614 0.000000 0.000002 0.000000
 43   -0.664068 1.698578 2.869377 0.000000 0.000002 0.000000
end
