version 1
nodes
  0 "Bip01" -1
  1 "Bip01 Pelvis" 0
  2 "Bip01 Spine" 1
  3 "Bip01 Spine1" 2
  4 "Bip01 Spine2" 3
  5 "Bip01 Spine3" 4
  6 "Bip01 Neck" 5
  7 "Bip01 L Arm" 6
  8 "Bip01 L Arm1" 7
  9 "Bip01 L Arm2" 8
 10 "Bip01 L Hand" 9
 11 "Bip06 L elbow2-smooth" 8
 12 "Bip01 R Arm" 6
 13 "Bip01 R Arm1" 12
 14 "Bip01 R Arm2" 13
 15 "Bip01 R Hand" 14
 16 "Bip06 R elbow2-smooth" 13
 17 "Bip01 Head" 6
 18 "Bip06 Head_helper" 17
 19 "Bip06 Head_eyes_l" 18
 20 "Bip06 Head_eyes_r" 18
 21 "Bip06 Head_blink_l" 18
 22 "Bip06 Head_blink_smooth_l1" 21
 23 "Bip06 Head_blink_r" 18
 24 "Bip06 Head_blink_smooth_r1" 23
 25 "Bip06 Head_L_eyebrow" 18
 26 "Bip06 Head_R_eyebrow" 18
 27 "Bip06 Head_blink_l_lid" 18
 28 "Bip06 Head_blink_r_lid" 18
 29 "Bip06 bunny" 18
 30 "Bip06 bunnyL" 29
 31 "Bip06 bunnyR" 29
 32 "Bip01 L Leg" 1
 33 "Bip01 L Leg1" 32
 34 "Bip01 L Foot" 33
 35 "Bip01 R Leg" 1
 36 "Bip01 R Leg1" 35
 37 "Bip01 R Foot" 36
 38 "Bip03 HairR1" 17
 39 "Bip03 HairR2" 38
 40 "Bip03 HairL1" 17
 41 "Bip03 HairL2" 40
 42 "Bip03 swingR" 17
 43 "Bip03 swingL" 17
end
skeleton
time 0
  0   -0.010486 -0.546892 -0.601210 0.000000 0.000000 -1.571354
  1   -1.093036 0.000002 -0.326057 -1.570808 -1.570749 0.000022
  2   2.262337 0.113614 0.064702 -0.000014 0.000025 0.131507
  3   2.380047 0.353302 0.047440 0.000000 -0.000028 0.174447
  4   2.033756 0.190472 -0.000128 -0.166860 0.050863 0.254791
  5   2.451511 0.204909 -0.003447 -0.151399 -0.005945 0.287960
  6   7.247600 -0.397300 -0.109469 -0.005248 -0.005288 0.494432
  7   -2.022252 -0.104661 3.136172 1.238970 -1.024584 -4.799517
  8   1.168026 -0.537438 -0.063437 -0.999217 0.315889 -1.091938
  9   6.790376 -0.619176 0.015206 0.065086 -0.098326 -0.512803
 10   8.637599 0.544015 -0.090417 -3.988549 0.202875 -0.503999
 11   6.790465 -0.619039 0.017802 0.039336 -0.083112 -0.373358
 12   -2.022474 -0.104699 -2.873818 -1.163239 1.764390 -4.903356
 13   1.167898 -0.537463 0.063297 0.234298 -0.683888 -0.862893
 14   7.002743 -0.617765 -0.183752 0.370917 -0.275382 -1.775187
 15   8.209042 0.615527 -0.255885 2.142869 0.455861 0.524451
 16   7.002735 -0.617911 -0.183641 0.225715 -0.258671 -1.243594
 17   1.574674 0.609930 -0.000899 0.254777 0.315535 -0.043807
 18   -0.602177 0.511412 -0.000006 0.000000 0.000000 0.000000
 19   3.673773 0.177020 1.119313 -0.000002 -0.000014 -0.174510
 20   3.673767 0.176993 -1.117566 0.000007 -0.000003 -0.174546
 21   3.942357 1.334540 1.627658 0.000002 -0.000011 -0.000026
 22   -0.246060 -0.011889 0.516521 -0.000011 0.000031 0.000025
 23   3.942374 1.334565 -1.631083 0.000019 0.000002 -0.000024
 24   -0.246150 -0.011872 -0.516511 -0.000005 -0.000006 0.000048
 25   4.941364 1.997338 1.629330 0.000018 -0.000001 -0.000024
 26   4.941382 1.997366 -1.629410 -0.000001 0.000005 -0.000024
 27   2.914462 1.619264 1.514501 -0.000019 -0.000022 -0.000050
 28   2.916892 1.618870 -1.501142 -0.000002 -0.000009 -0.000024
 29   8.824059 0.150544 0.091743 0.000006 -0.000231 -0.174534
 30   2.111085 -0.561179 1.784320 -0.000008 -0.000682 0.000024
 31   2.121290 -0.561289 -1.853599 0.000000 0.000000 -0.000002
 32   -0.814395 -0.093824 3.127092 0.564173 -3.064441 -0.563643
 33   14.298673 -0.408176 0.471578 -0.006392 -0.009747 -0.413773
 34   15.835795 0.581398 0.242756 -0.007436 -0.212263 -0.117891
 35   -0.815868 -0.091229 -3.114430 -0.120039 3.021516 -0.057358
 36   14.294526 -0.410349 -0.467541 0.000716 0.012811 -0.799565
 37   15.834409 0.579420 -0.284600 -0.169306 -0.012782 0.676454
 38   1.139685 -3.453749 -2.823813 0.000000 0.000000 0.000001
 39   -4.457742 -1.054854 -0.746180 0.000000 0.000000 0.000000
 40   1.118101 -3.449769 3.237290 0.000000 0.000001 0.000000
 41   -4.433840 -1.059130 0.959566 -0.000001 0.000000 0.000000
 42   -0.657468 1.697302 -2.688614 0.000000 0.000002 0.000000
 43   -0.664068 1.698578 2.869377 0.000000 0.000002 0.000000
time 1
  0   -0.010486 -0.546892 -0.601210 0.000000 0.000000 -1.571354
  1   -1.093036 0.000002 -0.326057 -1.570808 -1.570749 0.000022
  2   2.262337 0.113614 0.064702 -0.000014 0.000025 0.131507
  3   2.380047 0.353302 0.047440 -0.000075 0.001662 0.180099
  4   2.033756 0.190472 -0.000128 -0.165661 0.048849 0.240292
  5   2.451511 0.204909 -0.003447 -0.151416 -0.009013 0.270847
  6   7.247600 -0.397300 -0.109469 -0.005248 -0.005288 0.494432
  7   -2.022252 -0.104661 3.136172 1.238970 -1.024584 -4.799517
  8   1.168026 -0.537438 -0.063437 -0.999217 0.315889 -1.091938
  9   6.790376 -0.619176 0.015206 0.065086 -0.098326 -0.512803
 10   8.637599 0.544015 -0.090417 -3.428809 0.321201 -0.579381
 11   6.790465 -0.619039 0.017802 0.039336 -0.083112 -0.373358
 12   -2.022474 -0.104699 -2.873818 -1.163239 1.764390 -4.903356
 13   1.167898 -0.537463 0.063297 0.234298 -0.683888 -0.862893
 14   7.002743 -0.617765 -0.183752 0.370917 -0.275382 -1.775187
 15   8.209042 0.615527 -0.255885 2.142869 0.455861 0.524451
 16   7.002735 -0.617911 -0.183641 0.225715 -0.258671 -1.243594
 17   1.574674 0.609930 -0.000899 0.254777 0.315535 -0.043807
 18   -0.602177 0.511412 -0.000006 0.000000 0.000000 0.000000
 19   3.673773 0.177020 1.119313 -0.000002 -0.000014 -0.174510
 20   3.673767 0.176993 -1.117566 0.000007 -0.000003 -0.174546
 21   3.942357 1.334540 1.627658 0.000002 -0.000011 -0.000026
 22   -0.246060 -0.011889 0.516521 -0.000011 0.000031 0.000025
 23   3.942374 1.334565 -1.631083 0.000019 0.000002 -0.000024
 24   -0.246150 -0.011872 -0.516511 -0.000005 -0.000006 0.000048
 25   4.941364 1.997338 1.629330 0.000018 -0.000001 -0.000024
 26   4.941382 1.997366 -1.629410 -0.000001 0.000005 -0.000024
 27   2.914462 1.619264 1.514501 -0.000019 -0.000022 -0.000050
 28   2.916892 1.618870 -1.501142 -0.000002 -0.000009 -0.000024
 29   8.824059 0.150544 0.091743 0.000006 -0.000231 -0.174534
 30   2.111085 -0.561179 1.784320 -0.000008 -0.000682 0.000024
 31   2.121290 -0.561289 -1.853599 0.000000 0.000000 -0.000002
 32   -0.814395 -0.093824 3.127092 0.564173 -3.064441 -0.563643
 33   14.298673 -0.408176 0.471578 -0.006392 -0.009747 -0.413773
 34   15.835795 0.581398 0.242756 -0.007436 -0.212263 -0.117891
 35   -0.815868 -0.091229 -3.114430 -0.120039 3.021516 -0.057358
 36   14.294526 -0.410349 -0.467541 0.000716 0.012811 -0.799565
 37   15.834409 0.579420 -0.284600 -0.169306 -0.012782 0.676454
 38   1.139685 -3.453749 -2.823813 0.000000 0.000000 0.000001
 39   -4.457742 -1.054854 -0.746180 0.000000 0.000000 0.000000
 40   1.118101 -3.449769 3.237290 0.000000 0.000001 0.000000
 41   -4.433840 -1.059130 0.959566 -0.000001 0.000000 0.000000
 42   -0.657468 1.697302 -2.688614 0.000000 0.000002 0.000000
 43   -0.664068 1.698578 2.869377 0.000000 0.000002 0.000000
time 2
  0   -0.010486 -0.546892 -0.601210 0.000000 0.000000 -1.571354
  1   -1.093036 0.000002 -0.326057 -1.570808 -1.570749 0.000022
  2   2.262337 0.113614 0.064702 -0.000014 0.000025 0.131507
  3   2.380047 0.353302 0.047440 -0.000210 0.003447 0.186180
  4   2.033756 0.190472 -0.000128 -0.164333 0.046800 0.224706
  5   2.451511 0.204909 -0.003447 -0.151313 -0.012238 0.253041
  6   7.247600 -0.397300 -0.109469 -0.005248 -0.005288 0.494432
  7   -2.022252 -0.104661 3.136172 1.238970 -1.024584 -4.799517
  8   1.168026 -0.537438 -0.063437 -0.999217 0.315889 -1.091938
  9   6.790376 -0.619176 0.015206 0.065086 -0.098326 -0.512803
 10   8.637599 0.544015 -0.090417 -2.850751 0.439528 -0.654764
 11   6.790465 -0.619039 0.017802 0.039336 -0.083112 -0.373358
 12   -2.022474 -0.104699 -2.873818 -1.163239 1.764390 -4.903356
 13   1.167898 -0.537463 0.063297 0.234298 -0.683888 -0.862893
 14   7.002743 -0.617765 -0.183752 0.370917 -0.275382 -1.775187
 15   8.209042 0.615527 -0.255885 2.142869 0.455861 0.524451
 16   7.002735 -0.617911 -0.183641 0.225715 -0.258671 -1.243594
 17   1.574674 0.609930 -0.000899 0.254777 0.315535 -0.043807
 18   -0.602177 0.511412 -0.000006 0.000000 0.000000 0.000000
 19   3.673773 0.177020 1.119313 -0.000002 -0.000014 -0.174510
 20   3.673767 0.176993 -1.117566 0.000007 -0.000003 -0.174546
 21   3.942357 1.334540 1.627658 0.000002 -0.000011 -0.000026
 22   -0.246060 -0.011889 0.516521 -0.000011 0.000031 0.000025
 23   3.942374 1.334565 -1.631083 0.000019 0.000002 -0.000024
 24   -0.246150 -0.011872 -0.516511 -0.000005 -0.000006 0.000048
 25   4.941364 1.997338 1.629330 0.000018 -0.000001 -0.000024
 26   4.941382 1.997366 -1.629410 -0.000001 0.000005 -0.000024
 27   2.914462 1.619264 1.514501 -0.000019 -0.000022 -0.000050
 28   2.916892 1.618870 -1.501142 -0.000002 -0.000009 -0.000024
 29   8.824059 0.150544 0.091743 0.000006 -0.000231 -0.174534
 30   2.111085 -0.561179 1.784320 -0.000008 -0.000682 0.000024
 31   2.121290 -0.561289 -1.853599 0.000000 0.000000 -0.000002
 32   -0.814395 -0.093824 3.127092 0.564173 -3.064441 -0.563643
 33   14.298673 -0.408176 0.471578 -0.006392 -0.009747 -0.413773
 34   15.835795 0.581398 0.242756 -0.007436 -0.212263 -0.117891
 35   -0.815868 -0.091229 -3.114430 -0.120039 3.021516 -0.057358
 36   14.294526 -0.410349 -0.467541 0.000716 0.012811 -0.799565
 37   15.834409 0.579420 -0.284600 -0.169306 -0.012782 0.676454
 38   1.139685 -3.453749 -2.823813 0.000000 0.000000 0.000001
 39   -4.457742 -1.054854 -0.746180 0.000000 0.000000 0.000000
 40   1.118101 -3.449769 3.237290 0.000000 0.000001 0.000000
 41   -4.433840 -1.059130 0.959566 -0.000001 0.000000 0.000000
 42   -0.657468 1.697302 -2.688614 0.000000 0.000002 0.000000
 43   -0.664068 1.698578 2.869377 0.000000 0.000002 0.000000
time 3
  0   -0.010486 -0.546892 -0.601210 0.000000 0.000000 -1.571354
  1   -1.093036 0.000002 -0.326057 -1.570808 -1.570749 0.000022
  2   2.262337 0.113614 0.064702 -0.000014 0.000025 0.131507
  3   2.380047 0.353302 0.047440 -0.000345 0.005245 0.192220
  4   2.033756 0.190472 -0.000128 -0.163024 0.044775 0.209736
  5   2.451511 0.204909 -0.003447 -0.151279 -0.015384 0.235606
  6   7.247600 -0.397300 -0.109469 -0.002947 -0.001933 0.536276
  7   -2.022252 -0.104661 3.136172 1.238970 -1.024584 -4.799517
  8   1.168026 -0.537438 -0.063437 -0.994661 0.346128 -1.095101
  9   6.790376 -0.619176 0.015206 0.065142 -0.096524 -0.500200
 10   8.637599 0.544015 -0.090417 -2.815525 0.434741 -0.642538
 11   6.790465 -0.619039 0.017802 0.039569 -0.081776 -0.364534
 12   -2.022474 -0.104699 -2.873818 -1.163239 1.764390 -4.903356
 13   1.167898 -0.537463 0.063297 0.234298 -0.683888 -0.862893
 14   7.002743 -0.617765 -0.183752 0.370917 -0.275382 -1.775187
 15   8.209042 0.615527 -0.255885 2.142869 0.455861 0.524451
 16   7.002735 -0.617911 -0.183641 0.225715 -0.258671 -1.243594
 17   1.574674 0.609930 -0.000899 0.254777 0.315535 -0.043807
 18   -0.602177 0.511412 -0.000006 0.000000 0.000000 0.000000
 19   3.673773 0.177020 1.119313 -0.000002 -0.000014 -0.174510
 20   3.673767 0.176993 -1.117566 0.000007 -0.000003 -0.174546
 21   3.942357 1.334540 1.627658 0.000002 -0.000011 -0.000026
 22   -0.246060 -0.011889 0.516521 -0.000011 0.000031 0.000025
 23   3.942374 1.334565 -1.631083 0.000019 0.000002 -0.000024
 24   -0.246150 -0.011872 -0.516511 -0.000005 -0.000006 0.000048
 25   4.941364 1.997338 1.629330 0.000018 -0.000001 -0.000024
 26   4.941382 1.997366 -1.629410 -0.000001 0.000005 -0.000024
 27   2.914462 1.619264 1.514501 -0.000019 -0.000022 -0.000050
 28   2.916892 1.618870 -1.501142 -0.000002 -0.000009 -0.000024
 29   8.824059 0.150544 0.091743 0.000006 -0.000231 -0.174534
 30   2.111085 -0.561179 1.784320 -0.000008 -0.000682 0.000024
 31   2.121290 -0.561289 -1.853599 0.000000 0.000000 -0.000002
 32   -0.814395 -0.093824 3.127092 0.564173 -3.064441 -0.563643
 33   14.298673 -0.408176 0.471578 -0.006392 -0.009747 -0.413773
 34   15.835795 0.581398 0.242756 -0.007436 -0.212263 -0.117891
 35   -0.815868 -0.091229 -3.114430 -0.120039 3.021516 -0.057358
 36   14.294526 -0.410349 -0.467541 0.000716 0.012811 -0.799565
 37   15.834409 0.579420 -0.284600 -0.169306 -0.012782 0.676454
 38   1.139685 -3.453749 -2.823813 0.000000 0.000000 0.000001
 39   -4.457742 -1.054854 -0.746180 0.000000 0.000000 0.000000
 40   1.118101 -3.449769 3.237290 0.000000 0.000001 0.000000
 41   -4.433840 -1.059130 0.959566 -0.000001 0.000000 0.000000
 42   -0.657468 1.697302 -2.688614 0.000000 0.000002 0.000000
 43   -0.664068 1.698578 2.869377 0.000000 0.000002 0.000000
time 4
  0   -0.010486 -0.546892 -0.601210 0.000000 0.000000 -1.571354
  1   -1.093036 0.000002 -0.326057 -1.570808 -1.570749 0.000022
  2   2.262337 0.113614 0.064702 -0.000014 0.000025 0.131507
  3   2.380047 0.353302 0.047440 -0.000450 0.006995 0.197852
  4   2.033756 0.190472 -0.000128 -0.161862 0.043097 0.196941
  5   2.451511 0.204909 -0.003447 -0.151142 -0.018244 0.219434
  6   7.247600 -0.397300 -0.109469 -0.000478 0.001255 0.578246
  7   -2.022252 -0.104661 3.136172 1.238970 -1.024584 -4.799517
  8   1.168026 -0.537438 -0.063437 -0.988776 0.400266 -1.120595
  9   6.790376 -0.619176 0.015206 0.065475 -0.087715 -0.438165
 10   8.637599 0.544015 -0.090417 -2.783822 0.421648 -0.609621
 11   6.790465 -0.619039 0.017802 0.040504 -0.075125 -0.321220
 12   -2.022474 -0.104699 -2.873818 -1.163239 1.764390 -4.903356
 13   1.167898 -0.537463 0.063297 0.235212 -0.680989 -0.856779
 14   7.002743 -0.617765 -0.183752 0.370291 -0.275780 -1.786078
 15   8.209042 0.615527 -0.255885 2.142869 0.455861 0.524451
 16   7.002735 -0.617911 -0.183641 0.224962 -0.259292 -1.251211
 17   1.574674 0.609930 -0.000899 0.254777 0.315535 -0.043807
 18   -0.602177 0.511412 -0.000006 0.000000 0.000000 0.000000
 19   3.673773 0.177020 1.119313 -0.000002 -0.000014 -0.174510
 20   3.673767 0.176993 -1.117566 0.000007 -0.000003 -0.174546
 21   3.942357 1.334540 1.627658 0.000002 -0.000011 -0.000026
 22   -0.246060 -0.011889 0.516521 -0.000011 0.000031 0.000025
 23   3.942374 1.334565 -1.631083 0.000019 0.000002 -0.000024
 24   -0.246150 -0.011872 -0.516511 -0.000005 -0.000006 0.000048
 25   4.941364 1.997338 1.629330 0.000018 -0.000001 -0.000024
 26   4.941382 1.997366 -1.629410 -0.000001 0.000005 -0.000024
 27   2.914462 1.619264 1.514501 -0.000019 -0.000022 -0.000050
 28   2.916892 1.618870 -1.501142 -0.000002 -0.000009 -0.000024
 29   8.824059 0.150544 0.091743 0.000006 -0.000231 -0.174534
 30   2.111085 -0.561179 1.784320 -0.000008 -0.000682 0.000024
 31   2.121290 -0.561289 -1.853599 0.000000 0.000000 -0.000002
 32   -0.814395 -0.093824 3.127092 0.564173 -3.064441 -0.563643
 33   14.298673 -0.408176 0.471578 -0.006392 -0.009747 -0.413773
 34   15.835795 0.581398 0.242756 -0.007436 -0.212263 -0.117891
 35   -0.815868 -0.091229 -3.114430 -0.120039 3.021516 -0.057358
 36   14.294526 -0.410349 -0.467541 0.000716 0.012811 -0.799565
 37   15.834409 0.579420 -0.284600 -0.169306 -0.012782 0.676454
 38   1.139685 -3.453749 -2.823813 0.000000 0.000000 0.000001
 39   -4.457742 -1.054854 -0.746180 0.000000 0.000000 0.000000
 40   1.118101 -3.449769 3.237290 0.000000 0.000001 0.000000
 41   -4.433840 -1.059130 0.959566 -0.000001 0.000000 0.000000
 42   -0.657468 1.697302 -2.688614 0.000000 0.000002 0.000000
 43   -0.664068 1.698578 2.869377 0.000000 0.000002 0.000000
time 5
  0   -0.010486 -0.546892 -0.601210 0.000000 0.000000 -1.571354
  1   -1.093036 0.000002 -0.326057 -1.570808 -1.570749 0.000022
  2   2.262337 0.113614 0.064702 -0.000014 0.000025 0.131507
  3   2.380047 0.353302 0.047440 -0.000540 0.008397 0.202729
  4   2.033756 0.190472 -0.000128 -0.161069 0.041850 0.187807
  5   2.451511 0.204909 -0.003447 -0.150971 -0.020541 0.205318
  6   7.247600 -0.397300 -0.109469 0.001990 0.004455 0.620185
  7   -2.022252 -0.104661 3.136172 1.238970 -1.024584 -4.799517
  8   1.168026 -0.537438 -0.063437 -0.996243 0.427486 -1.189359
  9   6.790376 -0.619176 0.015206 0.066307 -0.063955 -0.279155
 10   8.637599 0.544015 -0.090417 -2.755377 0.403065 -0.561946
 11   6.790465 -0.619039 0.017802 0.042577 -0.057188 -0.210311
 12   -2.022474 -0.104699 -2.873818 -1.163239 1.764390 -4.903356
 13   1.167898 -0.537463 0.063297 0.343538 -0.646509 -0.945765
 14   7.002743 -0.617765 -0.183752 0.373195 -0.272316 -1.727829
 15   8.209042 0.615527 -0.255885 2.142869 0.455861 0.524451
 16   7.002735 -0.617911 -0.183641 0.229246 -0.254612 -1.211086
 17   1.574674 0.609930 -0.000899 0.254777 0.315535 -0.043807
 18   -0.602177 0.511412 -0.000006 0.000000 0.000000 0.000000
 19   3.673773 0.177020 1.119313 -0.000002 -0.000014 -0.174510
 20   3.673767 0.176993 -1.117566 0.000007 -0.000003 -0.174546
 21   3.942357 1.334540 1.627658 0.000002 -0.000011 -0.000026
 22   -0.246060 -0.011889 0.516521 -0.000011 0.000031 0.000025
 23   3.942374 1.334565 -1.631083 0.000019 0.000002 -0.000024
 24   -0.246150 -0.011872 -0.516511 -0.000005 -0.000006 0.000048
 25   4.941364 1.997338 1.629330 0.000018 -0.000001 -0.000024
 26   4.941382 1.997366 -1.629410 -0.000001 0.000005 -0.000024
 27   2.914462 1.619264 1.514501 -0.000019 -0.000022 -0.000050
 28   2.916892 1.618870 -1.501142 -0.000002 -0.000009 -0.000024
 29   8.824059 0.150544 0.091743 0.000006 -0.000231 -0.174534
 30   2.111085 -0.561179 1.784320 -0.000008 -0.000682 0.000024
 31   2.121290 -0.561289 -1.853599 0.000000 0.000000 -0.000002
 32   -0.814395 -0.093824 3.127092 0.564173 -3.064441 -0.563643
 33   14.298673 -0.408176 0.471578 -0.006392 -0.009747 -0.413773
 34   15.835795 0.581398 0.242756 -0.007436 -0.212263 -0.117891
 35   -0.815868 -0.091229 -3.114430 -0.120039 3.021516 -0.057358
 36   14.294526 -0.410349 -0.467541 0.000716 0.012811 -0.799565
 37   15.834409 0.579420 -0.284600 -0.169306 -0.012782 0.676454
 38   1.139685 -3.453749 -2.823813 0.000000 0.000000 0.000001
 39   -4.457742 -1.054854 -0.746180 0.000000 0.000000 0.000000
 40   1.118101 -3.449769 3.237290 0.000000 0.000001 0.000000
 41   -4.433840 -1.059130 0.959566 -0.000001 0.000000 0.000000
 42   -0.657468 1.697302 -2.688614 0.000000 0.000002 0.000000
 43   -0.664068 1.698578 2.869377 0.000000 0.000002 0.000000
time 6
  0   -0.010486 -0.546892 -0.601210 0.000000 0.000000 -1.571354
  1   -1.093036 0.000002 -0.326057 -1.570808 -1.570749 0.000022
  2   2.262337 0.113614 0.064702 -0.000014 0.000025 0.131507
  3   2.380047 0.353302 0.047440 -0.000615 0.009536 0.206361
  4   2.033756 0.190472 -0.000128 -0.160571 0.041155 0.182406
  5   2.451511 0.204909 -0.003447 -0.150714 -0.022356 0.191895
  6   7.247600 -0.397300 -0.109469 0.004747 0.007523 0.662124
  7   -2.022252 -0.104661 3.136172 1.238970 -1.024584 -4.799517
  8   1.168026 -0.537438 -0.063437 -0.930431 0.760366 -0.908482
  9   6.790376 -0.619176 0.015206 0.064088 -0.132030 -0.786523
 10   8.637599 0.544015 -0.090417 -2.730983 0.380822 -0.505735
 11   6.790465 -0.619039 0.017802 0.034314 -0.109178 -0.564147
 12   -2.022474 -0.104699 -2.873818 -1.163239 1.764390 -4.903356
 13   1.167898 -0.537463 0.063297 0.536150 -0.560057 -1.101945
 14   7.002743 -0.617765 -0.183752 0.378546 -0.259823 -1.601101
 15   8.209042 0.615527 -0.255885 2.142869 0.455861 0.524451
 16   7.002735 -0.617911 -0.183641 0.238708 -0.240909 -1.124046
 17   1.574674 0.609930 -0.000899 0.254777 0.315535 -0.043807
 18   -0.602177 0.511412 -0.000006 0.000000 0.000000 0.000000
 19   3.673773 0.177020 1.119313 -0.000002 -0.000014 -0.174510
 20   3.673767 0.176993 -1.117566 0.000007 -0.000003 -0.174546
 21   3.942357 1.334540 1.627658 0.000002 -0.000011 -0.000026
 22   -0.246060 -0.011889 0.516521 -0.000011 0.000031 0.000025
 23   3.942374 1.334565 -1.631083 0.000019 0.000002 -0.000024
 24   -0.246150 -0.011872 -0.516511 -0.000005 -0.000006 0.000048
 25   4.941364 1.997338 1.629330 0.000018 -0.000001 -0.000024
 26   4.941382 1.997366 -1.629410 -0.000001 0.000005 -0.000024
 27   2.914462 1.619264 1.514501 -0.000019 -0.000022 -0.000050
 28   2.916892 1.618870 -1.501142 -0.000002 -0.000009 -0.000024
 29   8.824059 0.150544 0.091743 0.000006 -0.000231 -0.174534
 30   2.111085 -0.561179 1.784320 -0.000008 -0.000682 0.000024
 31   2.121290 -0.561289 -1.853599 0.000000 0.000000 -0.000002
 32   -0.814395 -0.093824 3.127092 0.564173 -3.064441 -0.563643
 33   14.298673 -0.408176 0.471578 -0.006392 -0.009747 -0.413773
 34   15.835795 0.581398 0.242756 -0.007436 -0.212263 -0.117891
 35   -0.815868 -0.091229 -3.114430 -0.120039 3.021516 -0.057358
 36   14.294526 -0.410349 -0.467541 0.000716 0.012811 -0.799565
 37   15.834409 0.579420 -0.284600 -0.169306 -0.012782 0.676454
 38   1.139685 -3.453749 -2.823813 0.000000 0.000000 0.000001
 39   -4.457742 -1.054854 -0.746180 0.000000 0.000000 0.000000
 40   1.118101 -3.449769 3.237290 0.000000 0.000001 0.000000
 41   -4.433840 -1.059130 0.959566 -0.000001 0.000000 0.000000
 42   -0.657468 1.697302 -2.688614 0.000000 0.000002 0.000000
 43   -0.664068 1.698578 2.869377 0.000000 0.000002 0.000000
time 7
  0   -0.010486 -0.546892 -0.601210 0.000000 0.000000 -1.571354
  1   -1.093036 0.000002 -0.326057 -1.570808 -1.570749 0.000022
  2   2.262337 0.113614 0.064702 -0.000014 0.000025 0.131507
  3   2.380047 0.353302 0.047440 -0.000660 0.010291 0.208810
  4   2.033756 0.190472 -0.000128 -0.160331 0.040832 0.179760
  5   2.451511 0.204909 -0.003447 -0.150389 -0.023701 0.179438
  6   7.247600 -0.397300 -0.109469 0.007551 0.010484 0.704095
  7   -2.022252 -0.104661 3.136172 1.238970 -1.024584 -4.799517
  8   1.168026 -0.537438 -0.063437 -0.711481 1.088063 -0.490774
  9   6.790376 -0.619176 0.015206 0.063977 -0.165267 -1.200311
 10   8.637599 0.544015 -0.090417 -2.710200 0.357523 -0.446268
 11   6.790465 -0.619039 0.017802 0.026052 -0.136608 -0.852463
 12   -2.022474 -0.104699 -2.873818 -1.163239 1.764390 -4.903356
 13   1.167898 -0.537463 0.063297 0.650663 -0.482809 -1.143835
 14   7.002743 -0.617765 -0.183752 0.379115 -0.257552 -1.584600
 15   8.209042 0.615527 -0.255885 2.142869 0.455861 0.524451
 16   7.002735 -0.617911 -0.183641 0.239932 -0.238710 -1.112677
 17   1.574674 0.609930 -0.000899 0.254777 0.315535 -0.043807
 18   -0.602177 0.511412 -0.000006 0.000000 0.000000 0.000000
 19   3.673773 0.177020 1.119313 -0.000002 -0.000014 -0.174510
 20   3.673767 0.176993 -1.117566 0.000007 -0.000003 -0.174546
 21   3.942357 1.334540 1.627658 0.000002 -0.000011 -0.000026
 22   -0.246060 -0.011889 0.516521 -0.000011 0.000031 0.000025
 23   3.942374 1.334565 -1.631083 0.000019 0.000002 -0.000024
 24   -0.246150 -0.011872 -0.516511 -0.000005 -0.000006 0.000048
 25   4.941364 1.997338 1.629330 0.000018 -0.000001 -0.000024
 26   4.941382 1.997366 -1.629410 -0.000001 0.000005 -0.000024
 27   2.914462 1.619264 1.514501 -0.000019 -0.000022 -0.000050
 28   2.916892 1.618870 -1.501142 -0.000002 -0.000009 -0.000024
 29   8.824059 0.150544 0.091743 0.000006 -0.000231 -0.174534
 30   2.111085 -0.561179 1.784320 -0.000008 -0.000682 0.000024
 31   2.121290 -0.561289 -1.853599 0.000000 0.000000 -0.000002
 32   -0.814395 -0.093824 3.127092 0.564173 -3.064441 -0.563643
 33   14.298673 -0.408176 0.471578 -0.006392 -0.009747 -0.413773
 34   15.835795 0.581398 0.242756 -0.007436 -0.212263 -0.117891
 35   -0.815868 -0.091229 -3.114430 -0.120039 3.021516 -0.057358
 36   14.294526 -0.410349 -0.467541 0.000716 0.012811 -0.799565
 37   15.834409 0.579420 -0.284600 -0.169306 -0.012782 0.676454
 38   1.139685 -3.453749 -2.823813 0.000000 0.000000 0.000001
 39   -4.457742 -1.054854 -0.746180 0.000000 0.000000 0.000000
 40   1.118101 -3.449769 3.237290 0.000000 0.000001 0.000000
 41   -4.433840 -1.059130 0.959566 -0.000001 0.000000 0.000000
 42   -0.657468 1.697302 -2.688614 0.000000 0.000002 0.000000
 43   -0.664068 1.698578 2.869377 0.000000 0.000002 0.000000
time 8
  0   -0.010486 -0.546892 -0.601210 0.000000 0.000000 -1.571354
  1   -1.093036 0.000002 -0.326057 -1.570808 -1.570749 0.000022
  2   2.262337 0.113614 0.064702 -0.000014 0.000025 0.131507
  3   2.380047 0.353302 0.047440 -0.000705 0.010698 0.210320
  4   2.033756 0.190472 -0.000128 -0.160331 0.040832 0.179760
  5   2.451511 0.204909 -0.003447 -0.150132 -0.024210 0.172157
  6   7.247600 -0.397300 -0.109469 0.007551 0.010484 0.704095
  7   -2.022252 -0.104661 3.136172 1.238970 -1.024584 -4.799517
  8   1.168026 -0.537438 -0.063437 -0.102343 1.361219 0.172891
  9   6.790376 -0.619176 0.015206 0.065031 -0.173075 -1.484522
 10   8.637599 0.544015 -0.090417 -2.693908 0.335209 -0.389984
 11   6.790465 -0.619039 0.017802 0.021584 -0.145562 -1.050577
 12   -2.022474 -0.104699 -2.873818 -1.163239 1.764390 -4.903356
 13   1.167898 -0.537463 0.063297 0.685952 -0.450669 -1.055091
 14   7.002743 -0.617765 -0.183752 0.374105 -0.270953 -1.707533
 15   8.209042 0.615527 -0.255885 2.142869 0.455861 0.524451
 16   7.002735 -0.617911 -0.183641 0.230705 -0.252920 -1.197067
 17   1.574674 0.609930 -0.000899 0.257702 0.309784 -0.021039
 18   -0.602177 0.511412 -0.000006 0.000000 0.000000 0.000000
 19   3.673773 0.177020 1.119313 -0.000002 -0.000014 -0.174510
 20   3.673767 0.176993 -1.117566 0.000007 -0.000003 -0.174546
 21   3.942357 1.334540 1.627658 0.000002 -0.000011 -0.000026
 22   -0.246060 -0.011889 0.516521 -0.000011 0.000031 0.000025
 23   3.942374 1.334565 -1.631083 0.000019 0.000002 -0.000024
 24   -0.246150 -0.011872 -0.516511 -0.000005 -0.000006 0.000048
 25   4.941364 1.997338 1.629330 0.000018 -0.000001 -0.000024
 26   4.941382 1.997366 -1.629410 -0.000001 0.000005 -0.000024
 27   2.914462 1.619264 1.514501 -0.000019 -0.000022 -0.000050
 28   2.916892 1.618870 -1.501142 -0.000002 -0.000009 -0.000024
 29   8.824059 0.150544 0.091743 0.000006 -0.000231 -0.174534
 30   2.111085 -0.561179 1.784320 -0.000008 -0.000682 0.000024
 31   2.121290 -0.561289 -1.853599 0.000000 0.000000 -0.000002
 32   -0.814395 -0.093824 3.127092 0.564173 -3.064441 -0.563643
 33   14.298673 -0.408176 0.471578 -0.006392 -0.009747 -0.413773
 34   15.835795 0.581398 0.242756 -0.007436 -0.212263 -0.117891
 35   -0.815868 -0.091229 -3.114430 -0.120039 3.021516 -0.057358
 36   14.294526 -0.410349 -0.467541 0.000716 0.012811 -0.799565
 37   15.834409 0.579420 -0.284600 -0.169306 -0.012782 0.676454
 38   1.139685 -3.453749 -2.823813 0.000000 0.000000 0.000001
 39   -4.457742 -1.054854 -0.746180 0.000000 0.000000 0.000000
 40   1.118101 -3.449769 3.237290 0.000000 0.000001 0.000000
 41   -4.433840 -1.059130 0.959566 -0.000001 0.000000 0.000000
 42   -0.657468 1.697302 -2.688614 0.000000 0.000002 0.000000
 43   -0.664068 1.698578 2.869377 0.000000 0.000002 0.000000
time 9
  0   -0.010486 -0.546892 -0.601210 0.000000 0.000000 -1.571354
  1   -1.093036 0.000002 -0.326057 -1.570808 -1.570749 0.000022
  2   2.262337 0.113614 0.064702 -0.000014 0.000025 0.131507
  3   2.380047 0.353302 0.047440 -0.000705 0.010770 0.210585
  4   2.033756 0.190472 -0.000128 -0.160571 0.041155 0.182406
  5   2.451511 0.204909 -0.003447 -0.150132 -0.023505 0.174386
  6   7.247600 -0.397300 -0.109469 0.007551 0.010484 0.704095
  7   -2.022252 -0.104661 3.136172 1.238970 -1.024584 -4.799517
  8   1.168026 -0.537438 -0.063437 -1.532925 1.809318 -1.165257
  9   6.790376 -0.619176 0.015206 0.065142 -0.173075 -1.515539
 10   8.637599 0.544015 -0.090417 -2.681931 0.316626 -0.342309
 11   6.790465 -0.619039 0.017802 0.021205 -0.145960 -1.072320
 12   -2.022474 -0.104699 -2.873818 -1.163239 1.764390 -4.903356
 13   1.167898 -0.537463 0.063297 0.716390 -0.422088 -0.935777
 14   7.002743 -0.617765 -0.183752 0.367957 -0.277200 -1.830301
 15   8.209042 0.615527 -0.255885 2.142869 0.455861 0.524451
 16   7.002735 -0.617911 -0.183641 0.221808 -0.261942 -1.281898
 17   1.574674 0.609930 -0.000899 0.264770 0.295300 0.033146
 18   -0.602177 0.511412 -0.000006 0.000000 0.000000 0.000000
 19   3.673773 0.177020 1.119313 -0.000002 -0.000014 -0.174510
 20   3.673767 0.176993 -1.117566 0.000007 -0.000003 -0.174546
 21   3.942357 1.334540 1.627658 0.000002 -0.000011 -0.000026
 22   -0.246060 -0.011889 0.516521 -0.000011 0.000031 0.000025
 23   3.942374 1.334565 -1.631083 0.000019 0.000002 -0.000024
 24   -0.246150 -0.011872 -0.516511 -0.000005 -0.000006 0.000048
 25   4.941364 1.997338 1.629330 0.000018 -0.000001 -0.000024
 26   4.941382 1.997366 -1.629410 -0.000001 0.000005 -0.000024
 27   2.914462 1.619264 1.514501 -0.000019 -0.000022 -0.000050
 28   2.916892 1.618870 -1.501142 -0.000002 -0.000009 -0.000024
 29   8.824059 0.150544 0.091743 0.000006 -0.000231 -0.174534
 30   2.111085 -0.561179 1.784320 -0.000008 -0.000682 0.000024
 31   2.121290 -0.561289 -1.853599 0.000000 0.000000 -0.000002
 32   -0.814395 -0.093824 3.127092 0.564173 -3.064441 -0.563643
 33   14.298673 -0.408176 0.471578 -0.006392 -0.009747 -0.413773
 34   15.835795 0.581398 0.242756 -0.007436 -0.212263 -0.117891
 35   -0.815868 -0.091229 -3.114430 -0.120039 3.021516 -0.057358
 36   14.294526 -0.410349 -0.467541 0.000716 0.012811 -0.799565
 37   15.834409 0.579420 -0.284600 -0.169306 -0.012782 0.676454
 38   1.139685 -3.453749 -2.823813 0.000000 0.000000 0.000001
 39   -4.457742 -1.054854 -0.746180 0.000000 0.000000 0.000000
 40   1.118101 -3.449769 3.237290 0.000000 0.000001 0.000000
 41   -4.433840 -1.059130 0.959566 -0.000001 0.000000 0.000000
 42   -0.657468 1.697302 -2.688614 0.000000 0.000002 0.000000
 43   -0.664068 1.698578 2.869377 0.000000 0.000002 0.000000
time 10
  0   -0.010486 -0.546892 -0.601210 0.000000 0.000000 -1.571354
  1   -1.093036 0.000002 -0.326057 -1.570808 -1.570749 0.000022
  2   2.262337 0.113614 0.064702 -0.000014 0.000025 0.131507
  3   2.380047 0.353302 0.047440 -0.000660 0.010423 0.209361
  4   2.033756 0.190472 -0.000128 -0.161069 0.041850 0.187807
  5   2.451511 0.204909 -0.003447 -0.150389 -0.021416 0.187041
  6   7.247600 -0.397300 -0.109469 0.007551 0.010484 0.704095
  7   -2.022252 -0.104661 3.136172 1.238970 -1.024584 -4.799517
  8   1.168026 -0.537438 -0.063437 -1.235696 1.952764 -0.709465
  9   6.790376 -0.619176 0.015206 0.064254 -0.168203 -1.268383
 10   8.637599 0.544015 -0.090417 -2.674445 0.303533 -0.309610
 11   6.790465 -0.619039 0.017802 0.024796 -0.139508 -0.899930
 12   -2.022474 -0.104699 -2.873818 -1.163239 1.764390 -4.903356
 13   1.167898 -0.537463 0.063297 0.729324 -0.398848 -0.819550
 14   7.002743 -0.617765 -0.183752 0.363288 -0.277597 -1.913136
 15   8.209042 0.615527 -0.255885 2.142869 0.455861 0.524451
 16   7.002735 -0.617911 -0.183641 0.216159 -0.265212 -1.339409
 17   1.574674 0.609930 -0.000899 0.273423 0.276271 0.097939
 18   -0.602177 0.511412 -0.000006 0.000000 0.000000 0.000000
 19   3.673773 0.177020 1.119313 -0.000002 -0.000014 -0.174510
 20   3.673767 0.176993 -1.117566 0.000007 -0.000003 -0.174546
 21   3.942357 1.334540 1.627658 0.000002 -0.000011 -0.000026
 22   -0.246060 -0.011889 0.516521 -0.000011 0.000031 0.000025
 23   3.942374 1.334565 -1.631083 0.000019 0.000002 -0.000024
 24   -0.246150 -0.011872 -0.516511 -0.000005 -0.000006 0.000048
 25   4.941364 1.997338 1.629330 0.000018 -0.000001 -0.000024
 26   4.941382 1.997366 -1.629410 -0.000001 0.000005 -0.000024
 27   2.914462 1.619264 1.514501 -0.000019 -0.000022 -0.000050
 28   2.916892 1.618870 -1.501142 -0.000002 -0.000009 -0.000024
 29   8.824059 0.150544 0.091743 0.000006 -0.000231 -0.174534
 30   2.111085 -0.561179 1.784320 -0.000008 -0.000682 0.000024
 31   2.121290 -0.561289 -1.853599 0.000000 0.000000 -0.000002
 32   -0.814395 -0.093824 3.127092 0.564173 -3.064441 -0.563643
 33   14.298673 -0.408176 0.471578 -0.006392 -0.009747 -0.413773
 34   15.835795 0.581398 0.242756 -0.007436 -0.212263 -0.117891
 35   -0.815868 -0.091229 -3.114430 -0.120039 3.021516 -0.057358
 36   14.294526 -0.410349 -0.467541 0.000716 0.012811 -0.799565
 37   15.834409 0.579420 -0.284600 -0.169306 -0.012782 0.676454
 38   1.139685 -3.453749 -2.823813 0.000000 0.000000 0.000001
 39   -4.457742 -1.054854 -0.746180 0.000000 0.000000 0.000000
 40   1.118101 -3.449769 3.237290 0.000000 0.000001 0.000000
 41   -4.433840 -1.059130 0.959566 -0.000001 0.000000 0.000000
 42   -0.657468 1.697302 -2.688614 0.000000 0.000002 0.000000
 43   -0.664068 1.698578 2.869377 0.000000 0.000002 0.000000
time 11
  0   -0.010486 -0.546892 -0.601210 0.000000 0.000000 -1.571354
  1   -1.093036 0.000002 -0.326057 -1.570808 -1.570749 0.000022
  2   2.262337 0.113614 0.064702 -0.000014 0.000025 0.131507
  3   2.380047 0.353302 0.047440 -0.000615 0.009536 0.206361
  4   2.033756 0.190472 -0.000128 -0.161991 0.043217 0.197956
  5   2.451511 0.204909 -0.003447 -0.150714 -0.018387 0.206581
  6   7.247600 -0.397300 -0.109469 0.007551 0.010484 0.704095
  7   -2.022252 -0.104661 3.136172 1.238970 -1.024584 -4.799517
  8   1.168026 -0.537438 -0.063437 -1.247213 1.968814 -0.632920
  9   6.790376 -0.619176 0.015206 0.063921 -0.157458 -1.070885
 10   8.637599 0.544015 -0.090417 -2.672068 0.298747 -0.297166
 11   6.790465 -0.619039 0.017802 0.028562 -0.129815 -0.762260
 12   -2.022474 -0.104699 -2.873818 -1.163239 1.764390 -4.903356
 13   1.167898 -0.537463 0.063297 0.722927 -0.378709 -0.728627
 14   7.002743 -0.617765 -0.183752 0.361239 -0.276689 -1.947871
 15   8.209042 0.615527 -0.255885 2.142869 0.455861 0.524451
 16   7.002735 -0.617911 -0.183641 0.213946 -0.265776 -1.363804
 17   1.574674 0.609930 -0.000899 0.280572 0.256912 0.152198
 18   -0.602177 0.511412 -0.000006 0.000000 0.000000 0.000000
 19   3.673773 0.177020 1.119313 -0.000002 -0.000014 -0.174510
 20   3.673767 0.176993 -1.117566 0.000007 -0.000003 -0.174546
 21   3.942357 1.334540 1.627658 0.000002 -0.000011 -0.000026
 22   -0.246060 -0.011889 0.516521 -0.000011 0.000031 0.000025
 23   3.942374 1.334565 -1.631083 0.000019 0.000002 -0.000024
 24   -0.246150 -0.011872 -0.516511 -0.000005 -0.000006 0.000048
 25   4.941364 1.997338 1.629330 0.000018 -0.000001 -0.000024
 26   4.941382 1.997366 -1.629410 -0.000001 0.000005 -0.000024
 27   2.914462 1.619264 1.514501 -0.000019 -0.000022 -0.000050
 28   2.916892 1.618870 -1.501142 -0.000002 -0.000009 -0.000024
 29   8.824059 0.150544 0.091743 0.000006 -0.000231 -0.174534
 30   2.111085 -0.561179 1.784320 -0.000008 -0.000682 0.000024
 31   2.121290 -0.561289 -1.853599 0.000000 0.000000 -0.000002
 32   -0.814395 -0.093824 3.127092 0.564173 -3.064441 -0.563643
 33   14.298673 -0.408176 0.471578 -0.006392 -0.009747 -0.413773
 34   15.835795 0.581398 0.242756 -0.007436 -0.212263 -0.117891
 35   -0.815868 -0.091229 -3.114430 -0.120039 3.021516 -0.057358
 36   14.294526 -0.410349 -0.467541 0.000716 0.012811 -0.799565
 37   15.834409 0.579420 -0.284600 -0.169306 -0.012782 0.676454
 38   1.139685 -3.453749 -2.823813 0.000000 0.000000 0.000001
 39   -4.457742 -1.054854 -0.746180 0.000000 0.000000 0.000000
 40   1.118101 -3.449769 3.237290 0.000000 0.000001 0.000000
 41   -4.433840 -1.059130 0.959566 -0.000001 0.000000 0.000000
 42   -0.657468 1.697302 -2.688614 0.000000 0.000002 0.000000
 43   -0.664068 1.698578 2.869377 0.000000 0.000002 0.000000
time 12
  0   -0.010486 -0.546892 -0.601210 0.000000 0.000000 -1.571354
  1   -1.093036 0.000002 -0.326057 -1.570808 -1.570749 0.000022
  2   2.262337 0.113614 0.064702 -0.000014 0.000025 0.131507
  3   2.380047 0.353302 0.047440 -0.000450 0.006707 0.197097
  4   2.033756 0.190472 -0.000128 -0.163356 0.045230 0.212962
  5   2.451511 0.204909 -0.003447 -0.151005 -0.014862 0.229588
  6   7.247600 -0.397300 -0.109469 0.007551 0.010484 0.704095
  7   -2.022252 -0.104661 3.136172 1.238970 -1.024584 -4.799517
  8   1.168026 -0.537438 -0.063437 -1.410477 1.967808 -0.799358
  9   6.790376 -0.619176 0.015206 0.064032 -0.165734 -1.210122
 10   8.637599 0.544015 -0.090417 -2.673829 0.304941 -0.312503
 11   6.790465 -0.619039 0.017802 0.025876 -0.137092 -0.859384
 12   -2.022474 -0.104699 -2.873818 -1.163239 1.764390 -4.903356
 13   1.167898 -0.537463 0.063297 0.710485 -0.362792 -0.673480
 14   7.002743 -0.617765 -0.183752 0.361011 -0.276518 -1.951831
 15   8.209042 0.615527 -0.255885 2.142869 0.455861 0.524451
 16   7.002735 -0.617911 -0.183641 0.213711 -0.265833 -1.366508
 17   1.574674 0.609930 -0.000899 0.283537 0.241363 0.174744
 18   -0.602177 0.511412 -0.000006 0.000000 0.000000 0.000000
 19   3.673773 0.177020 1.119313 -0.000002 -0.000014 -0.174510
 20   3.673767 0.176993 -1.117566 0.000007 -0.000003 -0.174546
 21   3.942357 1.334540 1.627658 0.000002 -0.000011 -0.000026
 22   -0.246060 -0.011889 0.516521 -0.000011 0.000031 0.000025
 23   3.942374 1.334565 -1.631083 0.000019 0.000002 -0.000024
 24   -0.246150 -0.011872 -0.516511 -0.000005 -0.000006 0.000048
 25   4.941364 1.997338 1.629330 0.000018 -0.000001 -0.000024
 26   4.941382 1.997366 -1.629410 -0.000001 0.000005 -0.000024
 27   2.914462 1.619264 1.514501 -0.000019 -0.000022 -0.000050
 28   2.916892 1.618870 -1.501142 -0.000002 -0.000009 -0.000024
 29   8.824059 0.150544 0.091743 0.000006 -0.000231 -0.174534
 30   2.111085 -0.561179 1.784320 -0.000008 -0.000682 0.000024
 31   2.121290 -0.561289 -1.853599 0.000000 0.000000 -0.000002
 32   -0.814395 -0.093824 3.127092 0.564173 -3.064441 -0.563643
 33   14.298673 -0.408176 0.471578 -0.006392 -0.009747 -0.413773
 34   15.835795 0.581398 0.242756 -0.007436 -0.212263 -0.117891
 35   -0.815868 -0.091229 -3.114430 -0.120039 3.021516 -0.057358
 36   14.294526 -0.410349 -0.467541 0.000716 0.012811 -0.799565
 37   15.834409 0.579420 -0.284600 -0.169306 -0.012782 0.676454
 38   1.139685 -3.453749 -2.823813 0.000000 0.000000 0.000001
 39   -4.457742 -1.054854 -0.746180 0.000000 0.000000 0.000000
 40   1.118101 -3.449769 3.237290 0.000000 0.000001 0.000000
 41   -4.433840 -1.059130 0.959566 -0.000001 0.000000 0.000000
 42   -0.657468 1.697302 -2.688614 0.000000 0.000002 0.000000
 43   -0.664068 1.698578 2.869377 0.000000 0.000002 0.000000
time 13
  0   -0.010486 -0.546892 -0.601210 0.000000 0.000000 -1.571354
  1   -1.093036 0.000002 -0.326057 -1.570808 -1.570749 0.000022
  2   2.262337 0.113614 0.064702 -0.000014 0.000025 0.131507
  3   2.380047 0.353302 0.047440 -0.000150 0.002645 0.183405
  4   2.033756 0.190472 -0.000128 -0.164739 0.047423 0.229563
  5   2.451511 0.204909 -0.003447 -0.151159 -0.011259 0.253041
  6   7.247600 -0.397300 -0.109469 0.004747 0.007523 0.662124
  7   -2.022252 -0.104661 3.136172 1.238970 -1.024584 -4.799517
  8   1.168026 -0.537438 -0.063437 1.426956 1.198855 2.010037
  9   6.790376 -0.619176 0.015206 0.064809 -0.172808 -1.459919
 10   8.637599 0.544015 -0.090417 -2.679465 0.320709 -0.353016
 11   6.790465 -0.619039 0.017802 0.021789 -0.145022 -1.033447
 12   -2.022474 -0.104699 -2.873818 -1.163239 1.764390 -4.903356
 13   1.167898 -0.537463 0.063297 0.636744 -0.363351 -0.626868
 14   7.002743 -0.617765 -0.183752 0.362605 -0.277483 -1.925347
 15   8.209042 0.615527 -0.255885 2.142869 0.455861 0.524451
 16   7.002735 -0.617911 -0.183641 0.215358 -0.265607 -1.348019
 17   1.574674 0.609930 -0.000899 0.254006 0.228370 0.171454
 18   -0.602177 0.511412 -0.000006 0.000000 0.000000 0.000000
 19   3.673773 0.177020 1.119313 -0.000002 -0.000014 -0.174510
 20   3.673767 0.176993 -1.117566 0.000007 -0.000003 -0.174546
 21   3.942357 1.334540 1.627658 0.000002 -0.000011 -0.000026
 22   -0.246060 -0.011889 0.516521 -0.000011 0.000031 0.000025
 23   3.942374 1.334565 -1.631083 0.000019 0.000002 -0.000024
 24   -0.246150 -0.011872 -0.516511 -0.000005 -0.000006 0.000048
 25   4.941364 1.997338 1.629330 0.000018 -0.000001 -0.000024
 26   4.941382 1.997366 -1.629410 -0.000001 0.000005 -0.000024
 27   2.914462 1.619264 1.514501 -0.000019 -0.000022 -0.000050
 28   2.916892 1.618870 -1.501142 -0.000002 -0.000009 -0.000024
 29   8.824059 0.150544 0.091743 0.000006 -0.000231 -0.174534
 30   2.111085 -0.561179 1.784320 -0.000008 -0.000682 0.000024
 31   2.121290 -0.561289 -1.853599 0.000000 0.000000 -0.000002
 32   -0.814395 -0.093824 3.127092 0.564173 -3.064441 -0.563643
 33   14.298673 -0.408176 0.471578 -0.006392 -0.009747 -0.413773
 34   15.835795 0.581398 0.242756 -0.007436 -0.212263 -0.117891
 35   -0.815868 -0.091229 -3.114430 -0.120039 3.021516 -0.057358
 36   14.294526 -0.410349 -0.467541 0.000716 0.012811 -0.799565
 37   15.834409 0.579420 -0.284600 -0.169306 -0.012782 0.676454
 38   1.139685 -3.453749 -2.823813 0.000000 0.000000 0.000001
 39   -4.457742 -1.054854 -0.746180 0.000000 0.000000 0.000000
 40   1.118101 -3.449769 3.237290 0.000000 0.000001 0.000000
 41   -4.433840 -1.059130 0.959566 -0.000001 0.000000 0.000000
 42   -0.657468 1.697302 -2.688614 0.000000 0.000002 0.000000
 43   -0.664068 1.698578 2.869377 0.000000 0.000002 0.000000
time 14
  0   -0.010486 -0.546892 -0.601210 0.000000 0.000000 -1.571354
  1   -1.093036 0.000002 -0.326057 -1.570808 -1.570749 0.000022
  2   2.262337 0.113614 0.064702 -0.000014 0.000025 0.131507
  3   2.380047 0.353302 0.047440 0.000000 -0.000028 0.174447
  4   2.033756 0.190472 -0.000128 -0.165993 0.049437 0.244570
  5   2.451511 0.204909 -0.003447 -0.151313 -0.008165 0.273522
  6   7.247600 -0.397300 -0.109469 0.001990 0.004455 0.620185
  7   -2.022252 -0.104661 3.136172 1.238970 -1.024584 -4.799517
  8   1.168026 -0.537438 -0.063437 0.945012 1.240465 1.513379
  9   6.790376 -0.619176 0.015206 0.065641 -0.172074 -1.621722
 10   8.637599 0.544015 -0.090417 -2.690385 0.343234 -0.410385
 11   6.790465 -0.619039 0.017802 0.020183 -0.146614 -1.146375
 12   -2.022474 -0.104699 -2.873818 -1.163239 1.764390 -4.903356
 13   1.167898 -0.537463 0.063297 0.518717 -0.381557 -0.590668
 14   7.002743 -0.617765 -0.183752 0.365907 -0.277711 -1.868418
 15   8.209042 0.615527 -0.255885 2.142869 0.455861 0.524451
 16   7.002735 -0.617911 -0.183641 0.219171 -0.263690 -1.308280
 17   1.574674 0.609930 -0.000899 0.180237 0.214809 0.162658
 18   -0.602177 0.511412 -0.000006 0.000000 0.000000 0.000000
 19   3.673773 0.177020 1.119313 -0.000002 -0.000014 -0.174510
 20   3.673767 0.176993 -1.117566 0.000007 -0.000003 -0.174546
 21   3.942357 1.334540 1.627658 0.000002 -0.000011 -0.000026
 22   -0.246060 -0.011889 0.516521 -0.000011 0.000031 0.000025
 23   3.942374 1.334565 -1.631083 0.000019 0.000002 -0.000024
 24   -0.246150 -0.011872 -0.516511 -0.000005 -0.000006 0.000048
 25   4.941364 1.997338 1.629330 0.000018 -0.000001 -0.000024
 26   4.941382 1.997366 -1.629410 -0.000001 0.000005 -0.000024
 27   2.914462 1.619264 1.514501 -0.000019 -0.000022 -0.000050
 28   2.916892 1.618870 -1.501142 -0.000002 -0.000009 -0.000024
 29   8.824059 0.150544 0.091743 0.000006 -0.000231 -0.174534
 30   2.111085 -0.561179 1.784320 -0.000008 -0.000682 0.000024
 31   2.121290 -0.561289 -1.853599 0.000000 0.000000 -0.000002
 32   -0.814395 -0.093824 3.127092 0.564173 -3.064441 -0.563643
 33   14.298673 -0.408176 0.471578 -0.006392 -0.009747 -0.413773
 34   15.835795 0.581398 0.242756 -0.007436 -0.212263 -0.117891
 35   -0.815868 -0.091229 -3.114430 -0.120039 3.021516 -0.057358
 36   14.294526 -0.410349 -0.467541 0.000716 0.012811 -0.799565
 37   15.834409 0.579420 -0.284600 -0.169306 -0.012782 0.676454
 38   1.139685 -3.453749 -2.823813 0.000000 0.000000 0.000001
 39   -4.457742 -1.054854 -0.746180 0.000000 0.000000 0.000000
 40   1.118101 -3.449769 3.237290 0.000000 0.000001 0.000000
 41   -4.433840 -1.059130 0.959566 -0.000001 0.000000 0.000000
 42   -0.657468 1.697302 -2.688614 0.000000 0.000002 0.000000
 43   -0.664068 1.698578 2.869377 0.000000 0.000002 0.000000
time 15
  0   -0.010486 -0.546892 -0.601210 0.000000 0.000000 -1.571354
  1   -1.093036 0.000002 -0.326057 -1.570808 -1.570749 0.000022
  2   2.262337 0.113614 0.064702 -0.000014 0.000025 0.131507
  3   2.380047 0.353302 0.047440 0.000000 -0.000675 0.171998
  4   2.033756 0.190472 -0.000128 -0.166860 0.050863 0.254791
  5   2.451511 0.204909 -0.003447 -0.151399 -0.005945 0.287960
  6   7.247600 -0.397300 -0.109469 -0.000478 0.001255 0.578246
  7   -2.022252 -0.104661 3.136172 1.238970 -1.024584 -4.799517
  8   1.168026 -0.537438 -0.063437 0.224943 1.284842 0.674799
  9   6.790376 -0.619176 0.015206 0.066029 -0.170272 -1.700132
 10   8.637599 0.544015 -0.090417 -2.706941 0.369208 -0.476074
 11   6.790465 -0.619039 0.017802 0.019716 -0.146358 -1.201223
 12   -2.022474 -0.104699 -2.873818 -1.163239 1.764390 -4.903356
 13   1.167898 -0.537463 0.063297 0.444695 -0.405764 -0.591637
 14   7.002743 -0.617765 -0.183752 0.369038 -0.276575 -1.810417
 15   8.209042 0.615527 -0.255885 2.142869 0.455861 0.524451
 16   7.002735 -0.617911 -0.183641 0.223220 -0.260758 -1.267989
 17   1.574674 0.609930 -0.000899 0.084289 0.201957 0.149019
 18   -0.602177 0.511412 -0.000006 0.000000 0.000000 0.000000
 19   3.673773 0.177020 1.119313 -0.000002 -0.000014 -0.174510
 20   3.673767 0.176993 -1.117566 0.000007 -0.000003 -0.174546
 21   3.942357 1.334540 1.627658 0.000002 -0.000011 -0.000026
 22   -0.246060 -0.011889 0.516521 -0.000011 0.000031 0.000025
 23   3.942374 1.334565 -1.631083 0.000019 0.000002 -0.000024
 24   -0.246150 -0.011872 -0.516511 -0.000005 -0.000006 0.000048
 25   4.941364 1.997338 1.629330 0.000018 -0.000001 -0.000024
 26   4.941382 1.997366 -1.629410 -0.000001 0.000005 -0.000024
 27   2.914462 1.619264 1.514501 -0.000019 -0.000022 -0.000050
 28   2.916892 1.618870 -1.501142 -0.000002 -0.000009 -0.000024
 29   8.824059 0.150544 0.091743 0.000006 -0.000231 -0.174534
 30   2.111085 -0.561179 1.784320 -0.000008 -0.000682 0.000024
 31   2.121290 -0.561289 -1.853599 0.000000 0.000000 -0.000002
 32   -0.814395 -0.093824 3.127092 0.564173 -3.064441 -0.563643
 33   14.298673 -0.408176 0.471578 -0.006392 -0.009747 -0.413773
 34   15.835795 0.581398 0.242756 -0.007436 -0.212263 -0.117891
 35   -0.815868 -0.091229 -3.114430 -0.120039 3.021516 -0.057358
 36   14.294526 -0.410349 -0.467541 0.000716 0.012811 -0.799565
 37   15.834409 0.579420 -0.284600 -0.169306 -0.012782 0.676454
 38   1.139685 -3.453749 -2.823813 0.000000 0.000000 0.000001
 39   -4.457742 -1.054854 -0.746180 0.000000 0.000000 0.000000
 40   1.118101 -3.449769 3.237290 0.000000 0.000001 0.000000
 41   -4.433840 -1.059130 0.959566 -0.000001 0.000000 0.000000
 42   -0.657468 1.697302 -2.688614 0.000000 0.000002 0.000000
 43   -0.664068 1.698578 2.869377 0.000000 0.000002 0.000000
time 16
  0   -0.010486 -0.546892 -0.601210 0.000000 0.000000 -1.571354
  1   -1.093036 0.000002 -0.326057 -1.570808 -1.570749 0.000022
  2   2.262337 0.113614 0.064702 -0.000014 0.000025 0.131507
  3   2.380047 0.353302 0.047440 0.000000 -0.000927 0.171325
  4   2.033756 0.190472 -0.000128 -0.167192 0.051450 0.259105
  5   2.451511 0.204909 -0.003447 -0.151416 -0.004927 0.294622
  6   7.247600 -0.397300 -0.109469 -0.002947 -0.001933 0.536276
  7   -2.022252 -0.104661 3.136172 1.238970 -1.024584 -4.799517
  8   1.168026 -0.537438 -0.063437 -0.679145 1.079308 -0.496341
  9   6.790376 -0.619176 0.015206 0.064809 -0.172875 -1.462410
 10   8.637599 0.544015 -0.090417 -2.730367 0.395041 -0.541618
 11   6.790465 -0.619039 0.017802 0.021876 -0.145108 -1.035293
 12   -2.022474 -0.104699 -2.873818 -1.163239 1.764390 -4.903356
 13   1.167898 -0.537463 0.063297 0.384170 -0.473960 -0.636735
 14   7.002743 -0.617765 -0.183752 0.367444 -0.277483 -1.839129
 15   8.209042 0.615527 -0.255885 2.142869 0.455861 0.524451
 16   7.002735 -0.617911 -0.183641 0.221196 -0.262449 -1.287914
 17   1.574674 0.609930 -0.000899 -0.011374 0.191165 0.132165
 18   -0.602177 0.511412 -0.000006 0.000000 0.000000 0.000000
 19   3.673773 0.177020 1.119313 -0.000002 -0.000014 -0.174510
 20   3.673767 0.176993 -1.117566 0.000007 -0.000003 -0.174546
 21   3.942357 1.334540 1.627658 0.000002 -0.000011 -0.000026
 22   -0.246060 -0.011889 0.516521 -0.000011 0.000031 0.000025
 23   3.942374 1.334565 -1.631083 0.000019 0.000002 -0.000024
 24   -0.246150 -0.011872 -0.516511 -0.000005 -0.000006 0.000048
 25   4.941364 1.997338 1.629330 0.000018 -0.000001 -0.000024
 26   4.941382 1.997366 -1.629410 -0.000001 0.000005 -0.000024
 27   2.914462 1.619264 1.514501 -0.000019 -0.000022 -0.000050
 28   2.916892 1.618870 -1.501142 -0.000002 -0.000009 -0.000024
 29   8.824059 0.150544 0.091743 0.000006 -0.000231 -0.174534
 30   2.111085 -0.561179 1.784320 -0.000008 -0.000682 0.000024
 31   2.121290 -0.561289 -1.853599 0.000000 0.000000 -0.000002
 32   -0.814395 -0.093824 3.127092 0.564173 -3.064441 -0.563643
 33   14.298673 -0.408176 0.471578 -0.006392 -0.009747 -0.413773
 34   15.835795 0.581398 0.242756 -0.007436 -0.212263 -0.117891
 35   -0.815868 -0.091229 -3.114430 -0.120039 3.021516 -0.057358
 36   14.294526 -0.410349 -0.467541 0.000716 0.012811 -0.799565
 37   15.834409 0.579420 -0.284600 -0.169306 -0.012782 0.676454
 38   1.139685 -3.453749 -2.823813 0.000000 0.000000 0.000001
 39   -4.457742 -1.054854 -0.746180 0.000000 0.000000 0.000000
 40   1.118101 -3.449769 3.237290 0.000000 0.000001 0.000000
 41   -4.433840 -1.059130 0.959566 -0.000001 0.000000 0.000000
 42   -0.657468 1.697302 -2.688614 0.000000 0.000002 0.000000
 43   -0.664068 1.698578 2.869377 0.000000 0.000002 0.000000
time 17
  0   -0.010486 -0.546892 -0.601210 0.000000 0.000000 -1.571354
  1   -1.093036 0.000002 -0.326057 -1.570808 -1.570749 0.000022
  2   2.262337 0.113614 0.064702 -0.000014 0.000025 0.131507
  3   2.380047 0.353302 0.047440 0.000000 -0.000759 0.171794
  4   2.033756 0.190472 -0.000128 -0.167247 0.051522 0.259540
  5   2.451511 0.204909 -0.003447 -0.151416 -0.004796 0.295365
  6   7.247600 -0.397300 -0.109469 -0.005248 -0.005288 0.494432
  7   -2.022252 -0.104661 3.136172 1.238970 -1.024584 -4.799517
  8   1.168026 -0.537438 -0.063437 -0.942138 0.673423 -1.035003
  9   6.790376 -0.619176 0.015206 0.063977 -0.136168 -0.826219
 10   8.637599 0.544015 -0.090417 -2.761453 0.417425 -0.598914
 11   6.790465 -0.619039 0.017802 0.033526 -0.112447 -0.592004
 12   -2.022474 -0.104699 -2.873818 -1.163239 1.764390 -4.903356
 13   1.167898 -0.537463 0.063297 0.297213 -0.579229 -0.719365
 14   7.002743 -0.617765 -0.183752 0.364256 -0.277654 -1.896965
 15   8.209042 0.615527 -0.255885 2.142869 0.455861 0.524451
 16   7.002735 -0.617911 -0.183641 0.217241 -0.264649 -1.328149
 17   1.574674 0.609930 -0.000899 -0.085142 0.183710 0.113278
 18   -0.602177 0.511412 -0.000006 0.000000 0.000000 0.000000
 19   3.673773 0.177020 1.119313 -0.000002 -0.000014 -0.174510
 20   3.673767 0.176993 -1.117566 0.000007 -0.000003 -0.174546
 21   3.942357 1.334540 1.627658 0.000002 -0.000011 -0.000026
 22   -0.246060 -0.011889 0.516521 -0.000011 0.000031 0.000025
 23   3.942374 1.334565 -1.631083 0.000019 0.000002 -0.000024
 24   -0.246150 -0.011872 -0.516511 -0.000005 -0.000006 0.000048
 25   4.941364 1.997338 1.629330 0.000018 -0.000001 -0.000024
 26   4.941382 1.997366 -1.629410 -0.000001 0.000005 -0.000024
 27   2.914462 1.619264 1.514501 -0.000019 -0.000022 -0.000050
 28   2.916892 1.618870 -1.501142 -0.000002 -0.000009 -0.000024
 29   8.824059 0.150544 0.091743 0.000006 -0.000231 -0.174534
 30   2.111085 -0.561179 1.784320 -0.000008 -0.000682 0.000024
 31   2.121290 -0.561289 -1.853599 0.000000 0.000000 -0.000002
 32   -0.814395 -0.093824 3.127092 0.564173 -3.064441 -0.563643
 33   14.298673 -0.408176 0.471578 -0.006392 -0.009747 -0.413773
 34   15.835795 0.581398 0.242756 -0.007436 -0.212263 -0.117891
 35   -0.815868 -0.091229 -3.114430 -0.120039 3.021516 -0.057358
 36   14.294526 -0.410349 -0.467541 0.000716 0.012811 -0.799565
 37   15.834409 0.579420 -0.284600 -0.169306 -0.012782 0.676454
 38   1.139685 -3.453749 -2.823813 0.000000 0.000000 0.000001
 39   -4.457742 -1.054854 -0.746180 0.000000 0.000000 0.000000
 40   1.118101 -3.449769 3.237290 0.000000 0.000001 0.000000
 41   -4.433840 -1.059130 0.959566 -0.000001 0.000000 0.000000
 42   -0.657468 1.697302 -2.688614 0.000000 0.000002 0.000000
 43   -0.664068 1.698578 2.869377 0.000000 0.000002 0.000000
time 18
  0   -0.010486 -0.546892 -0.601210 0.000000 0.000000 -1.571354
  1   -1.093036 0.000002 -0.326057 -1.570808 -1.570749 0.000022
  2   2.262337 0.113614 0.064702 -0.000014 0.000025 0.131507
  3   2.380047 0.353302 0.047440 0.000000 -0.000436 0.172896
  4   2.033756 0.190472 -0.000128 -0.167118 0.051258 0.257945
  5   2.451511 0.204909 -0.003447 -0.151416 -0.005162 0.292938
  6   7.247600 -0.397300 -0.109469 -0.005248 -0.005288 0.494432
  7   -2.022252 -0.104661 3.136172 1.238970 -1.024584 -4.799517
  8   1.168026 -0.537438 -0.063437 -1.001622 0.278254 -1.334921
  9   6.790376 -0.619176 0.015206 0.067916 -0.022710 -0.020528
 10   8.637599 0.544015 -0.090417 -2.801259 0.433544 -0.639427
 11   6.790465 -0.619039 0.017802 0.044358 -0.026205 -0.029616
 12   -2.022474 -0.104699 -2.873818 -1.163239 1.764390 -4.903356
 13   1.167898 -0.537463 0.063297 0.249552 -0.639695 -0.784985
 14   7.002743 -0.617765 -0.183752 0.364370 -0.277654 -1.894820
 15   8.209042 0.615527 -0.255885 2.142869 0.455861 0.524451
 16   7.002735 -0.617911 -0.183641 0.217383 -0.264592 -1.326604
 17   1.574674 0.609930 -0.000899 -0.114715 0.180941 0.093393
 18   -0.602177 0.511412 -0.000006 0.000000 0.000000 0.000000
 19   3.673773 0.177020 1.119313 -0.000002 -0.000014 -0.174510
 20   3.673767 0.176993 -1.117566 0.000007 -0.000003 -0.174546
 21   3.942357 1.334540 1.627658 0.000002 -0.000011 -0.000026
 22   -0.246060 -0.011889 0.516521 -0.000011 0.000031 0.000025
 23   3.942374 1.334565 -1.631083 0.000019 0.000002 -0.000024
 24   -0.246150 -0.011872 -0.516511 -0.000005 -0.000006 0.000048
 25   4.941364 1.997338 1.629330 0.000018 -0.000001 -0.000024
 26   4.941382 1.997366 -1.629410 -0.000001 0.000005 -0.000024
 27   2.914462 1.619264 1.514501 -0.000019 -0.000022 -0.000050
 28   2.916892 1.618870 -1.501142 -0.000002 -0.000009 -0.000024
 29   8.824059 0.150544 0.091743 0.000006 -0.000231 -0.174534
 30   2.111085 -0.561179 1.784320 -0.000008 -0.000682 0.000024
 31   2.121290 -0.561289 -1.853599 0.000000 0.000000 -0.000002
 32   -0.814395 -0.093824 3.127092 0.564173 -3.064441 -0.563643
 33   14.298673 -0.408176 0.471578 -0.006392 -0.009747 -0.413773
 34   15.835795 0.581398 0.242756 -0.007436 -0.212263 -0.117891
 35   -0.815868 -0.091229 -3.114430 -0.120039 3.021516 -0.057358
 36   14.294526 -0.410349 -0.467541 0.000716 0.012811 -0.799565
 37   15.834409 0.579420 -0.284600 -0.169306 -0.012782 0.676454
 38   1.139685 -3.453749 -2.823813 0.000000 0.000000 0.000001
 39   -4.457742 -1.054854 -0.746180 0.000000 0.000000 0.000000
 40   1.118101 -3.449769 3.237290 0.000000 0.000001 0.000000
 41   -4.433840 -1.059130 0.959566 -0.000001 0.000000 0.000000
 42   -0.657468 1.697302 -2.688614 0.000000 0.000002 0.000000
 43   -0.664068 1.698578 2.869377 0.000000 0.000002 0.000000
time 19
  0   -0.010486 -0.546892 -0.601210 0.000000 0.000000 -1.571354
  1   -1.093036 0.000002 -0.326057 -1.570808 -1.570749 0.000022
  2   2.262337 0.113614 0.064702 -0.000014 0.000025 0.131507
  3   2.380047 0.353302 0.047440 0.000000 -0.000136 0.173957
  4   2.033756 0.190472 -0.000128 -0.166952 0.050983 0.255842
  5   2.451511 0.204909 -0.003447 -0.151399 -0.005697 0.289644
  6   7.247600 -0.397300 -0.109469 -0.005248 -0.005288 0.494432
  7   -2.022252 -0.104661 3.136172 1.238970 -1.024584 -4.799517
  8   1.168026 -0.537438 -0.063437 -0.998964 0.182506 -1.336123
  9   6.790376 -0.619176 0.015206 0.068692 -0.003021 0.099389
 10   8.637599 0.544015 -0.090417 -2.850751 0.439528 -0.654764
 11   6.790465 -0.619039 0.017802 0.044474 -0.011395 0.054244
 12   -2.022474 -0.104699 -2.873818 -1.163239 1.764390 -4.903356
 13   1.167898 -0.537463 0.063297 0.243718 -0.653222 -0.809017
 14   7.002743 -0.617765 -0.183752 0.366476 -0.277767 -1.857280
 15   8.209042 0.615527 -0.255885 2.142869 0.455861 0.524451
 16   7.002735 -0.617911 -0.183641 0.219925 -0.263352 -1.300553
 17   1.574674 0.609930 -0.000899 -0.076246 0.194928 0.066374
 18   -0.602177 0.511412 -0.000006 0.000000 0.000000 0.000000
 19   3.673773 0.177020 1.119313 -0.000002 -0.000014 -0.174510
 20   3.673767 0.176993 -1.117566 0.000007 -0.000003 -0.174546
 21   3.942357 1.334540 1.627658 0.000002 -0.000011 -0.000026
 22   -0.246060 -0.011889 0.516521 -0.000011 0.000031 0.000025
 23   3.942374 1.334565 -1.631083 0.000019 0.000002 -0.000024
 24   -0.246150 -0.011872 -0.516511 -0.000005 -0.000006 0.000048
 25   4.941364 1.997338 1.629330 0.000018 -0.000001 -0.000024
 26   4.941382 1.997366 -1.629410 -0.000001 0.000005 -0.000024
 27   2.914462 1.619264 1.514501 -0.000019 -0.000022 -0.000050
 28   2.916892 1.618870 -1.501142 -0.000002 -0.000009 -0.000024
 29   8.824059 0.150544 0.091743 0.000006 -0.000231 -0.174534
 30   2.111085 -0.561179 1.784320 -0.000008 -0.000682 0.000024
 31   2.121290 -0.561289 -1.853599 0.000000 0.000000 -0.000002
 32   -0.814395 -0.093824 3.127092 0.564173 -3.064441 -0.563643
 33   14.298673 -0.408176 0.471578 -0.006392 -0.009747 -0.413773
 34   15.835795 0.581398 0.242756 -0.007436 -0.212263 -0.117891
 35   -0.815868 -0.091229 -3.114430 -0.120039 3.021516 -0.057358
 36   14.294526 -0.410349 -0.467541 0.000716 0.012811 -0.799565
 37   15.834409 0.579420 -0.284600 -0.169306 -0.012782 0.676454
 38   1.139685 -3.453749 -2.823813 0.000000 0.000000 0.000001
 39   -4.457742 -1.054854 -0.746180 0.000000 0.000000 0.000000
 40   1.118101 -3.449769 3.237290 0.000000 0.000001 0.000000
 41   -4.433840 -1.059130 0.959566 -0.000001 0.000000 0.000000
 42   -0.657468 1.697302 -2.688614 0.000000 0.000002 0.000000
 43   -0.664068 1.698578 2.869377 0.000000 0.000002 0.000000
time 20
  0   -0.010486 -0.546892 -0.601210 0.000000 0.000000 -1.571354
  1   -1.093036 0.000002 -0.326057 -1.570808 -1.570749 0.000022
  2   2.262337 0.113614 0.064702 -0.000014 0.000025 0.131507
  3   2.380047 0.353302 0.047440 0.000000 -0.000028 0.174447
  4   2.033756 0.190472 -0.000128 -0.166860 0.050863 0.254791
  5   2.451511 0.204909 -0.003447 -0.151399 -0.005945 0.287960
  6   7.247600 -0.397300 -0.109469 -0.005248 -0.005288 0.494432
  7   -2.022252 -0.104661 3.136172 1.238970 -1.024584 -4.799517
  8   1.168026 -0.537438 -0.063437 -0.998774 0.230053 -1.242055
  9   6.790376 -0.619176 0.015206 0.067416 -0.037125 -0.109882
 10   8.637599 0.544015 -0.090417 -3.059201 0.402502 -0.631252
 11   6.790465 -0.619039 0.017802 0.043949 -0.037035 -0.092020
 12   -2.022474 -0.104699 -2.873818 -1.163239 1.764390 -4.903356
 13   1.167898 -0.537463 0.063297 0.239500 -0.665529 -0.830144
 14   7.002743 -0.617765 -0.183752 0.368298 -0.276972 -1.824608
 15   8.209042 0.615527 -0.255885 2.142869 0.455861 0.524451
 16   7.002735 -0.617911 -0.183641 0.222231 -0.261604 -1.277924
 17   1.574674 0.609930 -0.000899 0.015233 0.228346 0.030707
 18   -0.602177 0.511412 -0.000006 0.000000 0.000000 0.000000
 19   3.673773 0.177020 1.119313 -0.000002 -0.000014 -0.174510
 20   3.673767 0.176993 -1.117566 0.000007 -0.000003 -0.174546
 21   3.942357 1.334540 1.627658 0.000002 -0.000011 -0.000026
 22   -0.246060 -0.011889 0.516521 -0.000011 0.000031 0.000025
 23   3.942374 1.334565 -1.631083 0.000019 0.000002 -0.000024
 24   -0.246150 -0.011872 -0.516511 -0.000005 -0.000006 0.000048
 25   4.941364 1.997338 1.629330 0.000018 -0.000001 -0.000024
 26   4.941382 1.997366 -1.629410 -0.000001 0.000005 -0.000024
 27   2.914462 1.619264 1.514501 -0.000019 -0.000022 -0.000050
 28   2.916892 1.618870 -1.501142 -0.000002 -0.000009 -0.000024
 29   8.824059 0.150544 0.091743 0.000006 -0.000231 -0.174534
 30   2.111085 -0.561179 1.784320 -0.000008 -0.000682 0.000024
 31   2.121290 -0.561289 -1.853599 0.000000 0.000000 -0.000002
 32   -0.814395 -0.093824 3.127092 0.564173 -3.064441 -0.563643
 33   14.298673 -0.408176 0.471578 -0.006392 -0.009747 -0.413773
 34   15.835795 0.581398 0.242756 -0.007436 -0.212263 -0.117891
 35   -0.815868 -0.091229 -3.114430 -0.120039 3.021516 -0.057358
 36   14.294526 -0.410349 -0.467541 0.000716 0.012811 -0.799565
 37   15.834409 0.579420 -0.284600 -0.169306 -0.012782 0.676454
 38   1.139685 -3.453749 -2.823813 0.000000 0.000000 0.000001
 39   -4.457742 -1.054854 -0.746180 0.000000 0.000000 0.000000
 40   1.118101 -3.449769 3.237290 0.000000 0.000001 0.000000
 41   -4.433840 -1.059130 0.959566 -0.000001 0.000000 0.000000
 42   -0.657468 1.697302 -2.688614 0.000000 0.000002 0.000000
 43   -0.664068 1.698578 2.869377 0.000000 0.000002 0.000000
time 21
  0   -0.010486 -0.546892 -0.601210 0.000000 0.000000 -1.571354
  1   -1.093036 0.000002 -0.326057 -1.570808 -1.570749 0.000022
  2   2.262337 0.113614 0.064702 -0.000014 0.000025 0.131507
  3   2.380047 0.353302 0.047440 0.000000 -0.000028 0.174447
  4   2.033756 0.190472 -0.000128 -0.166860 0.050863 0.254791
  5   2.451511 0.204909 -0.003447 -0.151399 -0.005945 0.287960
  6   7.247600 -0.397300 -0.109469 -0.005248 -0.005288 0.494432
  7   -2.022252 -0.104661 3.136172 1.238970 -1.024584 -4.799517
  8   1.168026 -0.537438 -0.063437 -0.998711 0.276644 -1.163106
  9   6.790376 -0.619176 0.015206 0.066029 -0.068293 -0.307833
 10   8.637599 0.544015 -0.090417 -3.446950 0.321201 -0.579381
 11   6.790465 -0.619039 0.017802 0.042255 -0.060543 -0.230382
 12   -2.022474 -0.104699 -2.873818 -1.163239 1.764390 -4.903356
 13   1.167898 -0.537463 0.063297 0.236407 -0.675446 -0.847275
 14   7.002743 -0.617765 -0.183752 0.369665 -0.276121 -1.798536
 15   8.209042 0.615527 -0.255885 2.142869 0.455861 0.524451
 16   7.002735 -0.617911 -0.183641 0.224067 -0.260025 -1.259876
 17   1.574674 0.609930 -0.000899 0.124626 0.268177 -0.005035
 18   -0.602177 0.511412 -0.000006 0.000000 0.000000 0.000000
 19   3.673773 0.177020 1.119313 -0.000002 -0.000014 -0.174510
 20   3.673767 0.176993 -1.117566 0.000007 -0.000003 -0.174546
 21   3.942357 1.334540 1.627658 0.000002 -0.000011 -0.000026
 22   -0.246060 -0.011889 0.516521 -0.000011 0.000031 0.000025
 23   3.942374 1.334565 -1.631083 0.000019 0.000002 -0.000024
 24   -0.246150 -0.011872 -0.516511 -0.000005 -0.000006 0.000048
 25   4.941364 1.997338 1.629330 0.000018 -0.000001 -0.000024
 26   4.941382 1.997366 -1.629410 -0.000001 0.000005 -0.000024
 27   2.914462 1.619264 1.514501 -0.000019 -0.000022 -0.000050
 28   2.916892 1.618870 -1.501142 -0.000002 -0.000009 -0.000024
 29   8.824059 0.150544 0.091743 0.000006 -0.000231 -0.174534
 30   2.111085 -0.561179 1.784320 -0.000008 -0.000682 0.000024
 31   2.121290 -0.561289 -1.853599 0.000000 0.000000 -0.000002
 32   -0.814395 -0.093824 3.127092 0.564173 -3.064441 -0.563643
 33   14.298673 -0.408176 0.471578 -0.006392 -0.009747 -0.413773
 34   15.835795 0.581398 0.242756 -0.007436 -0.212263 -0.117891
 35   -0.815868 -0.091229 -3.114430 -0.120039 3.021516 -0.057358
 36   14.294526 -0.410349 -0.467541 0.000716 0.012811 -0.799565
 37   15.834409 0.579420 -0.284600 -0.169306 -0.012782 0.676454
 38   1.139685 -3.453749 -2.823813 0.000000 0.000000 0.000001
 39   -4.457742 -1.054854 -0.746180 0.000000 0.000000 0.000000
 40   1.118101 -3.449769 3.237290 0.000000 0.000001 0.000000
 41   -4.433840 -1.059130 0.959566 -0.000001 0.000000 0.000000
 42   -0.657468 1.697302 -2.688614 0.000000 0.000002 0.000000
 43   -0.664068 1.698578 2.869377 0.000000 0.000002 0.000000
time 22
  0   -0.010486 -0.546892 -0.601210 0.000000 0.000000 -1.571354
  1   -1.093036 0.000002 -0.326057 -1.570808 -1.570749 0.000022
  2   2.262337 0.113614 0.064702 -0.000014 0.000025 0.131507
  3   2.380047 0.353302 0.047440 0.000000 -0.000028 0.174447
  4   2.033756 0.190472 -0.000128 -0.166860 0.050863 0.254791
  5   2.451511 0.204909 -0.003447 -0.151399 -0.005945 0.287960
  6   7.247600 -0.397300 -0.109469 -0.005248 -0.005288 0.494432
  7   -2.022252 -0.104661 3.136172 1.238970 -1.024584 -4.799517
  8   1.168026 -0.537438 -0.063437 -0.998964 0.306279 -1.110600
  9   6.790376 -0.619176 0.015206 0.065253 -0.090184 -0.455598
 10   8.637599 0.544015 -0.090417 -3.820962 0.239900 -0.527510
 11   6.790465 -0.619039 0.017802 0.040241 -0.076972 -0.333505
 12   -2.022474 -0.104699 -2.873818 -1.163239 1.764390 -4.903356
 13   1.167898 -0.537463 0.063297 0.235001 -0.681803 -0.858716
 14   7.002743 -0.617765 -0.183752 0.370519 -0.275610 -1.781375
 15   8.209042 0.615527 -0.255885 2.142869 0.455861 0.524451
 16   7.002735 -0.617911 -0.183641 0.225291 -0.259010 -1.247899
 17   1.574674 0.609930 -0.000899 0.216350 0.301548 -0.032645
 18   -0.602177 0.511412 -0.000006 0.000000 0.000000 0.000000
 19   3.673773 0.177020 1.119313 -0.000002 -0.000014 -0.174510
 20   3.673767 0.176993 -1.117566 0.000007 -0.000003 -0.174546
 21   3.942357 1.334540 1.627658 0.000002 -0.000011 -0.000026
 22   -0.246060 -0.011889 0.516521 -0.000011 0.000031 0.000025
 23   3.942374 1.334565 -1.631083 0.000019 0.000002 -0.000024
 24   -0.246150 -0.011872 -0.516511 -0.000005 -0.000006 0.000048
 25   4.941364 1.997338 1.629330 0.000018 -0.000001 -0.000024
 26   4.941382 1.997366 -1.629410 -0.000001 0.000005 -0.000024
 27   2.914462 1.619264 1.514501 -0.000019 -0.000022 -0.000050
 28   2.916892 1.618870 -1.501142 -0.000002 -0.000009 -0.000024
 29   8.824059 0.150544 0.091743 0.000006 -0.000231 -0.174534
 30   2.111085 -0.561179 1.784320 -0.000008 -0.000682 0.000024
 31   2.121290 -0.561289 -1.853599 0.000000 0.000000 -0.000002
 32   -0.814395 -0.093824 3.127092 0.564173 -3.064441 -0.563643
 33   14.298673 -0.408176 0.471578 -0.006392 -0.009747 -0.413773
 34   15.835795 0.581398 0.242756 -0.007436 -0.212263 -0.117891
 35   -0.815868 -0.091229 -3.114430 -0.120039 3.021516 -0.057358
 36   14.294526 -0.410349 -0.467541 0.000716 0.012811 -0.799565
 37   15.834409 0.579420 -0.284600 -0.169306 -0.012782 0.676454
 38   1.139685 -3.453749 -2.823813 0.000000 0.000000 0.000001
 39   -4.457742 -1.054854 -0.746180 0.000000 0.000000 0.000000
 40   1.118101 -3.449769 3.237290 0.000000 0.000001 0.000000
 41   -4.433840 -1.059130 0.959566 -0.000001 0.000000 0.000000
 42   -0.657468 1.697302 -2.688614 0.000000 0.000002 0.000000
 43   -0.664068 1.698578 2.869377 0.000000 0.000002 0.000000
time 23
  0   -0.010486 -0.546892 -0.601210 0.000000 0.000000 -1.571354
  1   -1.093036 0.000002 -0.326057 -1.570808 -1.570749 0.000022
  2   2.262337 0.113614 0.064702 -0.000014 0.000025 0.131507
  3   2.380047 0.353302 0.047440 0.000000 -0.000028 0.174447
  4   2.033756 0.190472 -0.000128 -0.166860 0.050863 0.254791
  5   2.451511 0.204909 -0.003447 -0.151399 -0.005945 0.287960
  6   7.247600 -0.397300 -0.109469 -0.005248 -0.005288 0.494432
  7   -2.022252 -0.104661 3.136172 1.238970 -1.024584 -4.799517
  8   1.168026 -0.537438 -0.063437 -0.999217 0.315889 -1.091938
  9   6.790376 -0.619176 0.015206 0.065086 -0.098326 -0.512803
 10   8.637599 0.544015 -0.090417 -3.988549 0.202875 -0.503999
 11   6.790465 -0.619039 0.017802 0.039336 -0.083112 -0.373358
 12   -2.022474 -0.104699 -2.873818 -1.163239 1.764390 -4.903356
 13   1.167898 -0.537463 0.063297 0.234298 -0.683888 -0.862893
 14   7.002743 -0.617765 -0.183752 0.370917 -0.275382 -1.775187
 15   8.209042 0.615527 -0.255885 2.142869 0.455861 0.524451
 16   7.002735 -0.617911 -0.183641 0.225715 -0.258671 -1.243594
 17   1.574674 0.609930 -0.000899 0.254777 0.315535 -0.043807
 18   -0.602177 0.511412 -0.000006 0.000000 0.000000 0.000000
 19   3.673773 0.177020 1.119313 -0.000002 -0.000014 -0.174510
 20   3.673767 0.176993 -1.117566 0.000007 -0.000003 -0.174546
 21   3.942357 1.334540 1.627658 0.000002 -0.000011 -0.000026
 22   -0.246060 -0.011889 0.516521 -0.000011 0.000031 0.000025
 23   3.942374 1.334565 -1.631083 0.000019 0.000002 -0.000024
 24   -0.246150 -0.011872 -0.516511 -0.000005 -0.000006 0.000048
 25   4.941364 1.997338 1.629330 0.000018 -0.000001 -0.000024
 26   4.941382 1.997366 -1.629410 -0.000001 0.000005 -0.000024
 27   2.914462 1.619264 1.514501 -0.000019 -0.000022 -0.000050
 28   2.916892 1.618870 -1.501142 -0.000002 -0.000009 -0.000024
 29   8.824059 0.150544 0.091743 0.000006 -0.000231 -0.174534
 30   2.111085 -0.561179 1.784320 -0.000008 -0.000682 0.000024
 31   2.121290 -0.561289 -1.853599 0.000000 0.000000 -0.000002
 32   -0.814395 -0.093824 3.127092 0.564173 -3.064441 -0.563643
 33   14.298673 -0.408176 0.471578 -0.006392 -0.009747 -0.413773
 34   15.835795 0.581398 0.242756 -0.007436 -0.212263 -0.117891
 35   -0.815868 -0.091229 -3.114430 -0.120039 3.021516 -0.057358
 36   14.294526 -0.410349 -0.467541 0.000716 0.012811 -0.799565
 37   15.834409 0.579420 -0.284600 -0.169306 -0.012782 0.676454
 38   1.139685 -3.453749 -2.823813 0.000000 0.000000 0.000001
 39   -4.457742 -1.054854 -0.746180 0.000000 0.000000 0.000000
 40   1.118101 -3.449769 3.237290 0.000000 0.000001 0.000000
 41   -4.433840 -1.059130 0.959566 -0.000001 0.000000 0.000000
 42   -0.657468 1.697302 -2.688614 0.000000 0.000002 0.000000
 43   -0.664068 1.698578 2.869377 0.000000 0.000002 0.000000
end
