version 1
nodes
  0 "Bip01" -1
  1 "Bip01 Pelvis" 0
  2 "Bip01 Spine" 1
  3 "Bip01 Spine1" 2
  4 "Bip01 Spine2" 3
  5 "Bip01 Spine3" 4
  6 "Bip01 Neck" 5
  7 "Bip01 L Arm" 6
  8 "Bip01 L Arm1" 7
  9 "Bip01 L Arm2" 8
 10 "Bip01 L Hand" 9
 11 "Bip06 L elbow2-smooth" 8
 12 "Bip01 R Arm" 6
 13 "Bip01 R Arm1" 12
 14 "Bip01 R Arm2" 13
 15 "Bip01 R Hand" 14
 16 "Bip06 R elbow2-smooth" 13
 17 "Bip01 Head" 6
 18 "Bip06 Head_helper" 17
 19 "Bip06 Head_eyes_l" 18
 20 "Bip06 Head_eyes_r" 18
 21 "Bip06 Head_blink_l" 18
 22 "Bip06 Head_blink_smooth_l1" 21
 23 "Bip06 Head_blink_r" 18
 24 "Bip06 Head_blink_smooth_r1" 23
 25 "Bip06 Head_L_eyebrow" 18
 26 "Bip06 Head_R_eyebrow" 18
 27 "Bip06 Head_blink_l_lid" 18
 28 "Bip06 Head_blink_r_lid" 18
 29 "Bip06 bunny" 18
 30 "Bip06 bunnyL" 29
 31 "Bip06 bunnyR" 29
 32 "Bip01 L Leg" 1
 33 "Bip01 L Leg1" 32
 34 "Bip01 L Foot" 33
 35 "Bip01 R Leg" 1
 36 "Bip01 R Leg1" 35
 37 "Bip01 R Foot" 36
 38 "Bip03 HairR1" 17
 39 "Bip03 HairR2" 38
 40 "Bip03 HairL1" 17
 41 "Bip03 HairL2" 40
 42 "Bip03 swingR" 17
 43 "Bip03 swingL" 17
end
skeleton
time 0
  0   0.001233 0.187506 0.867585 0.000000 0.000000 -1.571354
  1   -1.093036 0.000002 -0.326057 -1.570808 -1.570425 -0.000074
  2   2.262337 0.113614 0.064702 -0.241441 -0.007502 -0.059755
  3   2.380047 0.353302 0.047440 0.020476 0.013527 0.086315
  4   2.033756 0.190472 -0.000128 -0.225415 -0.026114 0.329061
  5   2.451511 0.204909 -0.003447 -0.218548 -0.008922 0.458445
  6   7.247600 -0.397300 -0.109469 0.000001 0.000009 0.087015
  7   -2.022252 -0.104661 3.136172 1.219607 -1.038017 -4.397555
  8   1.168026 -0.537438 -0.063437 -0.445830 -0.061317 -0.126331
  9   6.790376 -0.619176 0.015206 0.005390 0.003052 -1.616741
 10   8.637599 0.544015 -0.090417 -2.304133 -0.089034 -0.069354
 11   6.790465 -0.619039 0.017802 0.007512 -0.010486 -1.146951
 12   -2.022474 -0.104699 -2.873818 -1.356481 0.807704 -4.507658
 13   1.167898 -0.537463 0.063297 1.152438 -0.300139 -0.994072
 14   7.002743 -0.617765 -0.183752 0.000229 0.000250 -1.534354
 15   8.209042 0.615527 -0.255885 2.158112 -0.134813 0.133438
 16   7.002735 -0.617911 -0.183641 0.013637 0.008495 -1.092697
 17   1.574674 0.609930 -0.000899 0.576093 -0.236755 -0.159717
 18   -0.602177 0.511412 -0.000006 0.000000 0.000000 0.000000
 19   3.646428 0.364526 1.119313 -0.000002 -0.000014 -0.174510
 20   3.646422 0.364499 -1.117566 0.000007 -0.000003 -0.174546
 21   3.805634 1.330634 1.627658 0.000002 -0.000011 -0.000026
 22   -0.246060 -0.011889 0.516521 -0.000011 0.000031 0.000025
 23   3.805651 1.330659 -1.631083 0.000019 0.000002 -0.000024
 24   -0.246150 -0.011872 -0.516511 -0.000005 -0.000006 0.000048
 25   4.941364 1.997338 1.629330 0.000018 -0.000001 -0.000024
 26   4.941382 1.997366 -1.629410 -0.000001 0.000005 -0.000024
 27   2.930087 1.603639 1.514501 -0.000019 -0.000022 -0.000050
 28   2.932517 1.603245 -1.501142 -0.000002 -0.000009 -0.000024
 29   8.824059 0.150544 0.091743 0.000006 -0.000231 -0.174534
 30   2.111085 -0.561179 1.784320 -0.000008 -0.000682 0.000024
 31   2.121290 -0.561289 -1.853599 0.000000 0.000000 -0.000002
 32   -0.814395 -0.093824 3.127092 -0.129583 -2.975428 -0.324172
 33   14.298673 -0.408176 0.471578 -0.000076 -0.000041 -0.436322
 34   15.835795 0.581398 0.242756 0.162139 -0.013958 0.022620
 35   -0.815868 -0.091229 -3.114430 0.096037 3.002497 -0.031284
 36   14.294526 -0.410349 -0.467541 0.000069 0.000048 -0.399441
 37   15.834409 0.579420 -0.284600 -0.088763 0.039970 0.278088
 38   1.139685 -3.453749 -2.823813 0.000000 0.000000 0.000001
 39   -4.457742 -1.054854 -0.746180 0.000000 0.000000 0.000000
 40   1.118101 -3.449769 3.237290 0.000000 0.000001 0.000000
 41   -4.433840 -1.059130 0.959566 -0.000001 0.000000 0.000000
 42   -0.657468 1.697302 -2.688614 0.000000 0.000002 0.000000
 43   -0.664068 1.698578 2.869377 0.000000 0.000002 0.000000
time 1
  0   0.001233 0.187506 0.824615 0.000000 0.000000 -1.571354
  1   -1.093036 0.000002 -0.326057 -1.570808 -1.570425 -0.000074
  2   2.262337 0.113614 0.064702 -0.241441 -0.007502 -0.059755
  3   2.380047 0.353302 0.047440 0.020476 0.013527 0.086315
  4   2.033756 0.190472 -0.000128 -0.225120 -0.025431 0.331961
  5   2.451511 0.204909 -0.003447 -0.217966 -0.007864 0.463819
  6   7.247600 -0.397300 -0.109469 0.000001 0.000009 0.087015
  7   -2.022252 -0.104661 3.136172 1.208871 -1.035653 -4.385439
  8   1.168026 -0.537438 -0.063437 -0.449879 -0.080839 -0.126521
  9   6.790376 -0.619176 0.015206 0.005390 0.003052 -1.619005
 10   8.637599 0.544015 -0.090417 -2.304133 -0.089034 -0.069354
 11   6.790465 -0.619039 0.017802 0.007512 -0.010457 -1.148624
 12   -2.022474 -0.104699 -2.873818 -1.349583 0.806311 -4.498371
 13   1.167898 -0.537463 0.063297 1.146603 -0.281730 -0.993285
 14   7.002743 -0.617765 -0.183752 0.000229 0.000250 -1.534849
 15   8.209042 0.615527 -0.255885 2.158112 -0.134813 0.133438
 16   7.002735 -0.617911 -0.183641 0.013637 0.008495 -1.092973
 17   1.574674 0.609930 -0.000899 0.575077 -0.235974 -0.168070
 18   -0.602177 0.511412 -0.000006 0.000000 0.000000 0.000000
 19   3.646428 0.364526 1.119313 -0.000002 -0.000014 -0.174510
 20   3.646422 0.364499 -1.117566 0.000007 -0.000003 -0.174546
 21   3.805634 1.330634 1.627658 0.000002 -0.000011 -0.000026
 22   -0.246060 -0.011889 0.516521 -0.000011 0.000031 0.000025
 23   3.805651 1.330659 -1.631083 0.000019 0.000002 -0.000024
 24   -0.246150 -0.011872 -0.516511 -0.000005 -0.000006 0.000048
 25   4.941364 1.997338 1.629330 0.000018 -0.000001 -0.000024
 26   4.941382 1.997366 -1.629410 -0.000001 0.000005 -0.000024
 27   2.930087 1.603639 1.514501 -0.000019 -0.000022 -0.000050
 28   2.932517 1.603245 -1.501142 -0.000002 -0.000009 -0.000024
 29   8.824059 0.150544 0.091743 0.000986 -0.000492 -0.171530
 30   2.111085 -0.561179 1.784320 -0.000022 0.001236 0.000153
 31   2.121290 -0.561289 -1.853599 0.000000 -0.002564 0.000125
 32   -0.814395 -0.093824 3.127092 -0.128184 -2.974187 -0.331344
 33   14.298673 -0.408176 0.471578 -0.000076 -0.000041 -0.450534
 34   15.835795 0.581398 0.242756 0.162047 -0.014178 0.029500
 35   -0.815868 -0.091229 -3.114430 0.095245 3.001748 -0.038570
 36   14.294526 -0.410349 -0.467541 0.000069 0.000048 -0.414812
 37   15.834409 0.579420 -0.284600 -0.088763 0.040226 0.286099
 38   1.139685 -3.453749 -2.823813 0.000084 -0.000072 0.000184
 39   -4.457742 -1.054854 -0.746180 0.000132 0.000288 -0.001178
 40   1.118101 -3.449769 3.237290 -0.000042 -0.000083 0.000367
 41   -4.433840 -1.059130 0.959566 0.000011 0.000024 -0.000112
 42   -0.657468 1.697302 -2.688614 0.000863 0.001351 -0.000125
 43   -0.664068 1.698578 2.869377 -0.001012 -0.001520 0.000251
time 2
  0   0.001233 0.187506 0.766019 0.000000 0.000000 -1.571354
  1   -1.093036 0.000002 -0.326057 -1.570808 -1.570425 -0.000074
  2   2.262337 0.113614 0.064702 -0.241441 -0.007502 -0.059755
  3   2.380047 0.353302 0.047440 0.020476 0.013527 0.086315
  4   2.033756 0.190472 -0.000128 -0.224825 -0.024676 0.335332
  5   2.451511 0.204909 -0.003447 -0.217350 -0.006546 0.469837
  6   7.247600 -0.397300 -0.109469 0.000001 0.000009 0.087015
  7   -2.022252 -0.104661 3.136172 1.198806 -1.033347 -4.373512
  8   1.168026 -0.537438 -0.063437 -0.453170 -0.097694 -0.126837
  9   6.790376 -0.619176 0.015206 0.005390 0.003052 -1.619835
 10   8.637599 0.544015 -0.090417 -2.304133 -0.089034 -0.069354
 11   6.790465 -0.619039 0.017802 0.007512 -0.010457 -1.149201
 12   -2.022474 -0.104699 -2.873818 -1.343452 0.804946 -4.489467
 13   1.167898 -0.537463 0.063297 1.140487 -0.266473 -0.992377
 14   7.002743 -0.617765 -0.183752 0.000229 0.000250 -1.534849
 15   8.209042 0.615527 -0.255885 2.158112 -0.134813 0.133438
 16   7.002735 -0.617911 -0.183641 0.013637 0.008495 -1.093083
 17   1.574674 0.609930 -0.000899 0.573940 -0.235193 -0.177051
 18   -0.602177 0.511412 -0.000006 0.000000 0.000000 0.000000
 19   3.646428 0.364526 1.119313 -0.000002 -0.000014 -0.174510
 20   3.646422 0.364499 -1.117566 0.000007 -0.000003 -0.174546
 21   3.805634 1.330634 1.627658 0.000002 -0.000011 -0.000026
 22   -0.246060 -0.011889 0.516521 -0.000011 0.000031 0.000025
 23   3.805651 1.330659 -1.631083 0.000019 0.000002 -0.000024
 24   -0.246150 -0.011872 -0.516511 -0.000005 -0.000006 0.000048
 25   4.941364 1.997338 1.629330 0.000018 -0.000001 -0.000024
 26   4.941382 1.997366 -1.629410 -0.000001 0.000005 -0.000024
 27   2.930087 1.603639 1.514501 -0.000019 -0.000022 -0.000050
 28   2.932517 1.603245 -1.501142 -0.000002 -0.000009 -0.000024
 29   8.824059 0.150544 0.091743 0.003927 -0.001323 -0.163000
 30   2.111085 -0.561179 1.780414 -0.000103 0.006729 0.000517
 31   2.125196 -0.561289 -1.849693 0.000015 -0.009765 0.000544
 32   -0.814395 -0.093824 3.127092 -0.127066 -2.972945 -0.339142
 33   14.298673 -0.408176 0.471578 -0.000076 -0.000041 -0.465461
 34   15.835795 0.581398 0.242756 0.161978 -0.014422 0.036821
 35   -0.815868 -0.091229 -3.114430 0.093836 3.000904 -0.046238
 36   14.294526 -0.410349 -0.467541 0.000069 0.000048 -0.430647
 37   15.834409 0.579420 -0.284600 -0.088684 0.040456 0.294364
 38   1.139685 -3.453749 -2.823813 0.000400 -0.000289 0.000856
 39   -4.457742 -1.043135 -0.746180 0.000503 0.001127 -0.004487
 40   1.118101 -3.449769 3.237290 -0.000189 -0.000348 0.001466
 41   -4.429934 -1.051317 0.959566 0.000047 0.000108 -0.000449
 42   -0.657468 1.697302 -2.676895 0.003308 0.005169 -0.000460
 43   -0.664068 1.698578 2.857658 -0.003886 -0.005851 0.001004
time 3
  0   0.001233 0.187506 0.703518 0.000000 0.000000 -1.571354
  1   -1.093036 0.000002 -0.326057 -1.570808 -1.570425 -0.000074
  2   2.262337 0.113614 0.064702 -0.241441 -0.007502 -0.059755
  3   2.380047 0.353302 0.047440 0.020476 0.013527 0.086315
  4   2.033756 0.190472 -0.000128 -0.224493 -0.023873 0.338920
  5   2.451511 0.204909 -0.003447 -0.216631 -0.005018 0.476103
  6   7.247600 -0.397300 -0.109469 0.000001 0.000009 0.087015
  7   -2.022252 -0.104661 3.136172 1.189987 -1.031300 -4.363369
  8   1.168026 -0.537438 -0.063437 -0.454815 -0.109971 -0.127533
  9   6.790376 -0.619176 0.015206 0.005390 0.003052 -1.617722
 10   8.637599 0.544015 -0.090417 -2.304133 -0.089034 -0.069354
 11   6.790465 -0.619039 0.017802 0.007512 -0.010457 -1.147701
 12   -2.022474 -0.104699 -2.873818 -1.337512 0.803466 -4.481425
 13   1.167898 -0.537463 0.063297 1.134090 -0.257370 -0.990440
 14   7.002743 -0.617765 -0.183752 0.000229 0.000250 -1.534024
 15   8.209042 0.615527 -0.255885 2.158112 -0.134813 0.133438
 16   7.002735 -0.617911 -0.183641 0.013637 0.008495 -1.092366
 17   1.574674 0.609930 -0.000899 0.572680 -0.234341 -0.186846
 18   -0.602177 0.511412 -0.000006 0.000000 0.000000 0.000000
 19   3.646428 0.364526 1.119313 -0.000002 -0.000014 -0.174510
 20   3.646422 0.364499 -1.117566 0.000007 -0.000003 -0.174546
 21   3.805634 1.330634 1.627658 0.000002 -0.000011 -0.000026
 22   -0.246060 -0.011889 0.516521 -0.000011 0.000031 0.000025
 23   3.805651 1.330659 -1.631083 0.000019 0.000002 -0.000024
 24   -0.246150 -0.011872 -0.516511 -0.000005 -0.000006 0.000048
 25   4.941364 1.997338 1.629330 0.000018 -0.000001 -0.000024
 26   4.941382 1.997366 -1.629410 -0.000001 0.000005 -0.000024
 27   2.930087 1.603639 1.514501 -0.000019 -0.000022 -0.000050
 28   2.932517 1.603245 -1.501142 -0.000002 -0.000009 -0.000024
 29   8.824059 0.150544 0.091743 0.008473 -0.002629 -0.149802
 30   2.114991 -0.561179 1.772601 -0.000225 0.015185 0.001075
 31   2.129103 -0.561289 -1.845786 0.000031 -0.020928 0.001163
 32   -0.814395 -0.093824 3.127092 -0.125575 -2.972085 -0.346884
 33   14.298673 -0.408176 0.471578 -0.000076 -0.000041 -0.480785
 34   15.835795 0.581398 0.242756 0.161932 -0.014666 0.044450
 35   -0.815868 -0.091229 -3.114430 0.092516 2.999593 -0.053907
 36   14.294526 -0.410349 -0.467541 0.000069 0.000048 -0.446946
 37   15.834409 0.579420 -0.284600 -0.088684 0.040712 0.302780
 38   1.143591 -3.453749 -2.823813 0.000842 -0.000627 0.001956
 39   -4.457742 -1.027509 -0.742274 0.001091 0.002409 -0.009648
 40   1.114195 -3.449769 3.237290 -0.000400 -0.000758 0.003116
 41   -4.422121 -1.043504 0.963472 0.000107 0.000228 -0.000954
 42   -0.649655 1.697302 -2.661269 0.007095 0.011057 -0.001046
 43   -0.664068 1.698578 2.845939 -0.008321 -0.012535 0.002133
time 4
  0   0.001233 0.187506 0.633203 0.000000 0.000000 -1.571354
  1   -1.093036 0.000002 -0.326057 -1.570808 -1.570425 -0.000074
  2   2.262337 0.113614 0.064702 -0.241441 -0.007502 -0.059755
  3   2.380047 0.353302 0.047440 0.020476 0.013527 0.086315
  4   2.033756 0.190472 -0.000128 -0.224161 -0.023034 0.342581
  5   2.451511 0.204909 -0.003447 -0.215895 -0.003543 0.482641
  6   7.247600 -0.397300 -0.109469 0.000001 0.000009 0.087015
  7   -2.022252 -0.104661 3.136172 1.180785 -1.028965 -4.352381
  8   1.168026 -0.537438 -0.063437 -0.456397 -0.122600 -0.127786
  9   6.790376 -0.619176 0.015206 0.005390 0.002985 -1.615911
 10   8.637599 0.544015 -0.090417 -2.304133 -0.089034 -0.069354
 11   6.790465 -0.619039 0.017802 0.007483 -0.010486 -1.146432
 12   -2.022474 -0.104699 -2.873818 -1.331476 0.802247 -4.472904
 13   1.167898 -0.537463 0.063297 1.127483 -0.247962 -0.988200
 14   7.002743 -0.617765 -0.183752 0.000229 0.000250 -1.533199
 15   8.209042 0.615527 -0.255885 2.158112 -0.134813 0.133438
 16   7.002735 -0.617911 -0.183641 0.013637 0.008495 -1.091924
 17   1.574674 0.609930 -0.000899 0.571380 -0.233489 -0.196788
 18   -0.602177 0.511412 -0.000006 0.000000 0.000000 0.000000
 19   3.646428 0.364526 1.119313 -0.000002 -0.000014 -0.174510
 20   3.646422 0.364499 -1.117566 0.000007 -0.000003 -0.174546
 21   3.805634 1.330634 1.627658 0.000002 -0.000011 -0.000026
 22   -0.246060 -0.011889 0.516521 -0.000011 0.000031 0.000025
 23   3.805651 1.330659 -1.631083 0.000019 0.000002 -0.000024
 24   -0.246150 -0.011872 -0.516511 -0.000005 -0.000006 0.000048
 25   4.941364 1.997338 1.629330 0.000018 -0.000001 -0.000024
 26   4.941382 1.997366 -1.629410 -0.000001 0.000005 -0.000024
 27   2.930087 1.603639 1.514501 -0.000019 -0.000022 -0.000050
 28   2.932517 1.603245 -1.501142 -0.000002 -0.000009 -0.000024
 29   8.824059 0.150544 0.091743 0.014266 -0.004409 -0.132796
 30   2.118898 -0.561179 1.760882 -0.000374 0.026112 0.001804
 31   2.136915 -0.561289 -1.837973 0.000061 -0.035330 0.001963
 32   -0.814395 -0.093824 3.127092 -0.124176 -2.970939 -0.354284
 33   14.298673 -0.408176 0.471578 -0.000076 -0.000041 -0.495474
 34   15.835795 0.581398 0.242756 0.161863 -0.014910 0.051683
 35   -0.815868 -0.091229 -3.114430 0.091636 2.998749 -0.061576
 36   14.294526 -0.410349 -0.467541 0.000069 0.000048 -0.462781
 37   15.834409 0.579420 -0.284600 -0.088684 0.040968 0.311045
 38   1.147498 -3.453749 -2.823813 0.001431 -0.001073 0.003300
 39   -4.457742 -1.007978 -0.738367 0.001846 0.004075 -0.016267
 40   1.110288 -3.449769 3.237290 -0.000674 -0.001288 0.005315
 41   -4.410401 -1.031785 0.967379 0.000191 0.000395 -0.001599
 42   -0.645749 1.697302 -2.641737 0.011973 0.018646 -0.001798
 43   -0.664068 1.694672 2.826407 -0.014043 -0.021150 0.003639
time 5
  0   0.001233 0.187506 0.566795 0.000000 0.000000 -1.571354
  1   -1.093036 0.000002 -0.326057 -1.570808 -1.570425 -0.000074
  2   2.262337 0.113614 0.064702 -0.241441 -0.007502 -0.059755
  3   2.380047 0.353302 0.047440 0.020476 0.013527 0.086315
  4   2.033756 0.190472 -0.000128 -0.223792 -0.022183 0.346242
  5   2.451511 0.204909 -0.003447 -0.215142 -0.002068 0.489501
  6   7.247600 -0.397300 -0.109469 0.000001 0.000009 0.087015
  7   -2.022252 -0.104661 3.136172 1.171391 -1.026746 -4.341674
  8   1.168026 -0.537438 -0.063437 -0.458233 -0.134826 -0.128545
  9   6.790376 -0.619176 0.015206 0.005446 0.002985 -1.613496
 10   8.637599 0.544015 -0.090417 -2.304133 -0.089034 -0.069354
 11   6.790465 -0.619039 0.017802 0.007483 -0.010486 -1.144644
 12   -2.022474 -0.104699 -2.873818 -1.325536 0.800680 -4.464670
 13   1.167898 -0.537463 0.063297 1.120664 -0.238300 -0.986505
 14   7.002743 -0.617765 -0.183752 0.000229 0.000250 -1.532374
 15   8.209042 0.615527 -0.255885 2.158112 -0.134813 0.133438
 16   7.002735 -0.617911 -0.183641 0.013637 0.008495 -1.091207
 17   1.574674 0.609930 -0.000899 0.570040 -0.232637 -0.207285
 18   -0.602177 0.511412 -0.000006 0.000000 0.000000 0.000000
 19   3.646428 0.364526 1.119313 -0.000002 -0.000014 -0.174510
 20   3.646422 0.364499 -1.117566 0.000007 -0.000003 -0.174546
 21   3.805634 1.330634 1.627658 0.000002 -0.000011 -0.000026
 22   -0.246060 -0.011889 0.516521 -0.000011 0.000031 0.000025
 23   3.805651 1.330659 -1.631083 0.000019 0.000002 -0.000024
 24   -0.246150 -0.011872 -0.516511 -0.000005 -0.000006 0.000048
 25   4.941364 1.997338 1.629330 0.000018 -0.000001 -0.000024
 26   4.941382 1.997366 -1.629410 -0.000001 0.000005 -0.000024
 27   2.930087 1.603639 1.514501 -0.000019 -0.000022 -0.000050
 28   2.932517 1.603245 -1.501142 -0.000002 -0.000009 -0.000024
 29   8.824059 0.150544 0.091743 0.021039 -0.006617 -0.112785
 30   2.126710 -0.561179 1.749163 -0.000550 0.038928 0.002640
 31   2.144728 -0.561289 -1.830161 0.000092 -0.052217 0.002909
 32   -0.814395 -0.093824 3.127092 -0.122592 -2.969602 -0.361627
 33   14.298673 -0.408176 0.471578 -0.000076 -0.000041 -0.509448
 34   15.835795 0.581398 0.242756 0.161748 -0.015105 0.058519
 35   -0.815868 -0.091229 -3.114430 0.090404 2.998000 -0.068588
 36   14.294526 -0.410349 -0.467541 0.000069 0.000048 -0.477535
 37   15.834409 0.579420 -0.284600 -0.088684 0.041224 0.318853
 38   1.151404 -3.457655 -2.823813 0.002126 -0.001579 0.004827
 39   -4.461648 -0.988446 -0.730555 0.002721 0.006028 -0.024036
 40   1.106382 -3.445863 3.237290 -0.001010 -0.001915 0.007881
 41   -4.398683 -1.016160 0.971285 0.000287 0.000587 -0.002384
 42   -0.637936 1.697302 -2.618299 0.017701 0.027570 -0.002635
 43   -0.664068 1.690765 2.806875 -0.020765 -0.031255 0.005395
time 6
  0   0.001233 0.187506 0.508199 0.000000 0.000000 -1.571354
  1   -1.093036 0.000002 -0.326057 -1.570808 -1.570425 -0.000074
  2   2.262337 0.113614 0.064702 -0.241441 -0.007502 -0.059755
  3   2.380047 0.353302 0.047440 0.020476 0.013527 0.086315
  4   2.033756 0.190472 -0.000128 -0.223460 -0.021320 0.350048
  5   2.451511 0.204909 -0.003447 -0.214303 -0.000710 0.496262
  6   7.247600 -0.397300 -0.109469 0.000001 0.000009 0.087015
  7   -2.022252 -0.104661 3.136172 1.162380 -1.024382 -4.331250
  8   1.168026 -0.537438 -0.063437 -0.459751 -0.146952 -0.128924
  9   6.790376 -0.619176 0.015206 0.005446 0.002985 -1.611081
 10   8.637599 0.544015 -0.090417 -2.304133 -0.089034 -0.069354
 11   6.790465 -0.619039 0.017802 0.007483 -0.010486 -1.143030
 12   -2.022474 -0.104699 -2.873818 -1.319500 0.799113 -4.456245
 13   1.167898 -0.537463 0.063297 1.114126 -0.228739 -0.984689
 14   7.002743 -0.617765 -0.183752 0.000229 0.000250 -1.531384
 15   8.209042 0.615527 -0.255885 2.158112 -0.134813 0.133438
 16   7.002735 -0.617911 -0.183641 0.013637 0.008495 -1.090600
 17   1.574674 0.609930 -0.000899 0.568659 -0.231785 -0.217450
 18   -0.602177 0.511412 -0.000006 0.000000 0.000000 0.000000
 19   3.646428 0.364526 1.119313 -0.000002 -0.000014 -0.174510
 20   3.646422 0.364499 -1.117566 0.000007 -0.000003 -0.174546
 21   3.805634 1.330634 1.627658 0.000002 -0.000011 -0.000026
 22   -0.246060 -0.011889 0.516521 -0.000011 0.000031 0.000025
 23   3.805651 1.330659 -1.631083 0.000019 0.000002 -0.000024
 24   -0.246150 -0.011872 -0.516511 -0.000005 -0.000006 0.000048
 25   4.941364 1.997338 1.629330 0.000018 -0.000001 -0.000024
 26   4.941382 1.997366 -1.629410 -0.000001 0.000005 -0.000024
 27   2.930087 1.603639 1.514501 -0.000019 -0.000022 -0.000050
 28   2.932517 1.603245 -1.501142 -0.000002 -0.000009 -0.000024
 29   8.824059 0.150544 0.091743 0.028525 -0.009228 -0.090682
 30   2.130617 -0.561179 1.737444 -0.000740 0.053081 0.003584
 31   2.152541 -0.561289 -1.818442 0.000138 -0.070892 0.003965
 32   -0.814395 -0.093824 3.127092 -0.121287 -2.968838 -0.368229
 33   14.298673 -0.408176 0.471578 -0.000076 -0.000041 -0.522469
 34   15.835795 0.581398 0.242756 0.161748 -0.015325 0.064958
 35   -0.815868 -0.091229 -3.114430 0.089260 2.997157 -0.075490
 36   14.294526 -0.410349 -0.467541 0.000069 0.000048 -0.491361
 37   15.834409 0.579420 -0.284600 -0.088625 0.041403 0.326154
 38   1.155311 -3.457655 -2.823813 0.002884 -0.002157 0.006599
 39   -4.461648 -0.961101 -0.726648 0.003703 0.008173 -0.032646
 40   1.102476 -3.445863 3.237290 -0.001368 -0.002602 0.010692
 41   -4.386963 -1.000534 0.979098 0.000394 0.000791 -0.003253
 42   -0.634030 1.693396 -2.590955 0.024029 0.037428 -0.003597
 43   -0.664068 1.686859 2.783437 -0.028187 -0.042443 0.007319
time 7
  0   0.001233 0.187506 0.441791 0.000000 0.000000 -1.571354
  1   -1.093036 0.000002 -0.326057 -1.570808 -1.570425 -0.000074
  2   2.262337 0.113614 0.064702 -0.241441 -0.007502 -0.059755
  3   2.380047 0.353302 0.047440 0.020476 0.013527 0.086315
  4   2.033756 0.190472 -0.000128 -0.223073 -0.020541 0.353745
  5   2.451511 0.204909 -0.003447 -0.213567 0.000478 0.502800
  6   7.247600 -0.397300 -0.109469 0.000001 0.000009 0.087015
  7   -2.022252 -0.104661 3.136172 1.153273 -1.021989 -4.320449
  8   1.168026 -0.537438 -0.063437 -0.460890 -0.158826 -0.129684
  9   6.790376 -0.619176 0.015206 0.005446 0.002985 -1.608666
 10   8.637599 0.544015 -0.090417 -2.304133 -0.089034 -0.069354
 11   6.790465 -0.619039 0.017802 0.007454 -0.010486 -1.141357
 12   -2.022474 -0.104699 -2.873818 -1.313560 0.797778 -4.447628
 13   1.167898 -0.537463 0.063297 1.107448 -0.219586 -0.982873
 14   7.002743 -0.617765 -0.183752 0.000229 0.000250 -1.530229
 15   8.209042 0.615527 -0.255885 2.158112 -0.134813 0.133438
 16   7.002735 -0.617911 -0.183641 0.013637 0.008495 -1.089772
 17   1.574674 0.609930 -0.000899 0.567400 -0.230933 -0.227540
 18   -0.602177 0.511412 -0.000006 0.000000 0.000000 0.000000
 19   3.646428 0.364526 1.119313 -0.000002 -0.000014 -0.174510
 20   3.646422 0.364499 -1.117566 0.000007 -0.000003 -0.174546
 21   3.805634 1.330634 1.627658 0.000002 -0.000011 -0.000026
 22   -0.246060 -0.011889 0.516521 -0.000011 0.000031 0.000025
 23   3.805651 1.330659 -1.631083 0.000019 0.000002 -0.000024
 24   -0.246150 -0.011872 -0.516511 -0.000005 -0.000006 0.000048
 25   4.941364 1.997338 1.629330 0.000018 -0.000001 -0.000024
 26   4.941382 1.997366 -1.629410 -0.000001 0.000005 -0.000024
 27   2.930087 1.603639 1.514501 -0.000019 -0.000022 -0.000050
 28   2.932517 1.603245 -1.501142 -0.000002 -0.000009 -0.000024
 29   8.824059 0.150544 0.091743 0.036368 -0.012147 -0.067345
 30   2.138430 -0.557273 1.721818 -0.000957 0.068076 0.004591
 31   2.164260 -0.561289 -1.810629 0.000184 -0.090655 0.005075
 32   -0.814395 -0.093824 3.127092 -0.120448 -2.967883 -0.374206
 33   14.298673 -0.408176 0.471578 -0.000076 -0.000041 -0.533982
 34   15.835795 0.581398 0.242756 0.161748 -0.015471 0.069809
 35   -0.815868 -0.091229 -3.114430 0.088555 2.996407 -0.081241
 36   14.294526 -0.410349 -0.467541 0.000069 0.000048 -0.503566
 37   15.834409 0.579420 -0.284600 -0.088625 0.041659 0.332593
 38   1.159217 -3.461562 -2.823813 0.003684 -0.002748 0.008432
 39   -4.465555 -0.933757 -0.718835 0.004734 0.010463 -0.041761
 40   1.098569 -3.441956 3.237290 -0.001747 -0.003325 0.013685
 41   -4.371338 -0.984909 0.983004 0.000502 0.001019 -0.004151
 42   -0.626217 1.693396 -2.563610 0.030728 0.047869 -0.004600
 43   -0.664068 1.682953 2.759999 -0.036045 -0.054275 0.009326
time 8
  0   0.001233 0.187506 0.371476 0.000000 0.000000 -1.571354
  1   -1.093036 0.000002 -0.326057 -1.570808 -1.570425 -0.000074
  2   2.262337 0.113614 0.064702 -0.241441 -0.007502 -0.059755
  3   2.380047 0.353302 0.047440 0.020476 0.013527 0.086315
  4   2.033756 0.190472 -0.000128 -0.222741 -0.019762 0.357261
  5   2.451511 0.204909 -0.003447 -0.212831 0.001914 0.509140
  6   7.247600 -0.397300 -0.109469 0.000001 0.000009 0.087015
  7   -2.022252 -0.104661 3.136172 1.144550 -1.019481 -4.310025
  8   1.168026 -0.537438 -0.063437 -0.462219 -0.170197 -0.130000
  9   6.790376 -0.619176 0.015206 0.005446 0.002985 -1.606100
 10   8.637599 0.544015 -0.090417 -2.304133 -0.089034 -0.069354
 11   6.790465 -0.619039 0.017802 0.007454 -0.010486 -1.139511
 12   -2.022474 -0.104699 -2.873818 -1.307524 0.796152 -4.439490
 13   1.167898 -0.537463 0.063297 1.100911 -0.211042 -0.981178
 14   7.002743 -0.617765 -0.183752 0.000229 0.000250 -1.529404
 15   8.209042 0.615527 -0.255885 2.158112 -0.134813 0.133438
 16   7.002735 -0.617911 -0.183641 0.013637 0.008495 -1.089220
 17   1.574674 0.609930 -0.000899 0.566100 -0.230081 -0.237187
 18   -0.602177 0.511412 -0.000006 0.000000 0.000000 0.000000
 19   3.646428 0.364526 1.119313 -0.000002 -0.000014 -0.174510
 20   3.646422 0.364499 -1.117566 0.000007 -0.000003 -0.174546
 21   3.805634 1.330634 1.627658 0.000002 -0.000011 -0.000026
 22   -0.246060 -0.011889 0.516521 -0.000011 0.000031 0.000025
 23   3.805651 1.330659 -1.631083 0.000019 0.000002 -0.000024
 24   -0.246150 -0.011872 -0.516511 -0.000005 -0.000006 0.000048
 25   4.941364 1.997338 1.629330 0.000018 -0.000001 -0.000024
 26   4.941382 1.997366 -1.629410 -0.000001 0.000005 -0.000024
 27   2.930087 1.603639 1.514501 -0.000019 -0.000022 -0.000050
 28   2.932517 1.603245 -1.501142 -0.000002 -0.000009 -0.000024
 29   8.824059 0.150544 0.091743 0.044211 -0.015328 -0.043579
 30   2.146242 -0.557273 1.710099 -0.001161 0.083334 0.005599
 31   2.172073 -0.561289 -1.798910 0.000215 -0.110755 0.006203
 32   -0.814395 -0.093824 3.127092 -0.119236 -2.967119 -0.379443
 33   14.298673 -0.408176 0.471578 -0.000076 -0.000041 -0.544701
 34   15.835795 0.581398 0.242756 0.161863 -0.015642 0.075146
 35   -0.815868 -0.091229 -3.114430 0.087763 2.995564 -0.086774
 36   14.294526 -0.410349 -0.467541 0.000069 0.000048 -0.514921
 37   15.834409 0.579420 -0.284600 -0.088625 0.041864 0.338576
 38   1.163123 -3.465468 -2.823813 0.004505 -0.003362 0.010326
 39   -4.469461 -0.910318 -0.714929 0.005789 0.012776 -0.051017
 40   1.094663 -3.438050 3.237290 -0.002147 -0.004060 0.016740
 41   -4.355712 -0.965377 0.990817 0.000622 0.001246 -0.005076
 42   -0.618404 1.693396 -2.536265 0.037548 0.058479 -0.005646
 43   -0.664068 1.679046 2.736560 -0.044042 -0.066310 0.011418
time 9
  0   0.001233 0.187506 0.312881 0.000000 0.000000 -1.571354
  1   -1.093036 0.000002 -0.326057 -1.570808 -1.570425 -0.000074
  2   2.262337 0.113614 0.064702 -0.241441 -0.007502 -0.059755
  3   2.380047 0.353302 0.047440 0.020476 0.013527 0.086315
  4   2.033756 0.190472 -0.000128 -0.222446 -0.018984 0.360451
  5   2.451511 0.204909 -0.003447 -0.212095 0.003285 0.515158
  6   7.247600 -0.397300 -0.109469 0.000001 0.000009 0.087015
  7   -2.022252 -0.104661 3.136172 1.135731 -1.017089 -4.300069
  8   1.168026 -0.537438 -0.063437 -0.462725 -0.180914 -0.130443
  9   6.790376 -0.619176 0.015206 0.005446 0.002985 -1.603685
 10   8.637599 0.544015 -0.090417 -2.304133 -0.089034 -0.069354
 11   6.790465 -0.619039 0.017802 0.007454 -0.010486 -1.137839
 12   -2.022474 -0.104699 -2.873818 -1.301680 0.794759 -4.431639
 13   1.167898 -0.537463 0.063297 1.094584 -0.202956 -0.979362
 14   7.002743 -0.617765 -0.183752 0.000229 0.000250 -1.528496
 15   8.209042 0.615527 -0.255885 2.158112 -0.134813 0.133438
 16   7.002735 -0.617911 -0.183641 0.013637 0.008439 -1.088613
 17   1.574674 0.609930 -0.000899 0.564922 -0.229442 -0.246316
 18   -0.602177 0.511412 -0.000006 0.000000 0.000000 0.000000
 19   3.646428 0.364526 1.119313 -0.000002 -0.000014 -0.174510
 20   3.646422 0.364499 -1.117566 0.000007 -0.000003 -0.174546
 21   3.805634 1.330634 1.627658 0.000002 -0.000011 -0.000026
 22   -0.246060 -0.011889 0.516521 -0.000011 0.000031 0.000025
 23   3.805651 1.330659 -1.631083 0.000019 0.000002 -0.000024
 24   -0.246150 -0.011872 -0.516511 -0.000005 -0.000006 0.000048
 25   4.941364 1.997338 1.629330 0.000018 -0.000001 -0.000024
 26   4.941382 1.997366 -1.629410 -0.000001 0.000005 -0.000024
 27   2.930087 1.603639 1.514501 -0.000019 -0.000022 -0.000050
 28   2.932517 1.603245 -1.501142 -0.000002 -0.000009 -0.000024
 29   8.824059 0.150544 0.091743 0.051965 -0.018628 -0.020242
 30   2.150149 -0.557273 1.694474 -0.001378 0.098329 0.006607
 31   2.183792 -0.557383 -1.791097 0.000260 -0.130517 0.007313
 32   -0.814395 -0.093824 3.127092 -0.118491 -2.966355 -0.385192
 33   14.298673 -0.408176 0.471578 -0.000076 -0.000041 -0.555499
 34   15.835795 0.581398 0.242756 0.161932 -0.015813 0.080306
 35   -0.815868 -0.091229 -3.114430 0.087059 2.994908 -0.092142
 36   14.294526 -0.410349 -0.467541 0.000069 0.000048 -0.526353
 37   15.834409 0.579420 -0.284600 -0.088625 0.042043 0.344711
 38   1.167030 -3.465468 -2.823813 0.005325 -0.003965 0.012159
 39   -4.469461 -0.882974 -0.707116 0.006819 0.015065 -0.060132
 40   1.090756 -3.438050 3.237290 -0.002526 -0.004783 0.019734
 41   -4.343993 -0.949752 0.994723 0.000730 0.001462 -0.005974
 42   -0.610592 1.689489 -2.508921 0.044235 0.068921 -0.006650
 43   -0.660162 1.675140 2.709216 -0.051900 -0.078141 0.013467
time 10
  0   0.001233 0.187506 0.266004 0.000000 0.000000 -1.571354
  1   -1.093036 0.000002 -0.326057 -1.570808 -1.570425 -0.000074
  2   2.262337 0.113614 0.064702 -0.241441 -0.007502 -0.059755
  3   2.380047 0.353302 0.047440 0.020476 0.013527 0.086315
  4   2.033756 0.190472 -0.000128 -0.222114 -0.018264 0.363460
  5   2.451511 0.204909 -0.003447 -0.211479 0.004303 0.520532
  6   7.247600 -0.397300 -0.109469 0.000001 0.000009 0.087015
  7   -2.022252 -0.104661 3.136172 1.127200 -1.014494 -4.289645
  8   1.168026 -0.537438 -0.063437 -0.463168 -0.190826 -0.130885
  9   6.790376 -0.619176 0.015206 0.005446 0.002985 -1.600968
 10   8.637599 0.544015 -0.090417 -2.304133 -0.089034 -0.069354
 11   6.790465 -0.619039 0.017802 0.007395 -0.010486 -1.135993
 12   -2.022474 -0.104699 -2.873818 -1.296027 0.792960 -4.423597
 13   1.167898 -0.537463 0.063297 1.088187 -0.195887 -0.977909
 14   7.002743 -0.617765 -0.183752 0.000229 0.000250 -1.527176
 15   8.209042 0.615527 -0.255885 2.158112 -0.134813 0.133438
 16   7.002735 -0.617911 -0.183641 0.013637 0.008439 -1.087730
 17   1.574674 0.609930 -0.000899 0.563865 -0.228661 -0.254522
 18   -0.602177 0.511412 -0.000006 0.000000 0.000000 0.000000
 19   3.646428 0.364526 1.119313 -0.000002 -0.000014 -0.174510
 20   3.646422 0.364499 -1.117566 0.000007 -0.000003 -0.174546
 21   3.805634 1.330634 1.627658 0.000002 -0.000011 -0.000026
 22   -0.246060 -0.011889 0.516521 -0.000011 0.000031 0.000025
 23   3.805651 1.330659 -1.631083 0.000019 0.000002 -0.000024
 24   -0.246150 -0.011872 -0.516511 -0.000005 -0.000006 0.000048
 25   4.941364 1.997338 1.629330 0.000018 -0.000001 -0.000024
 26   4.941382 1.997366 -1.629410 -0.000001 0.000005 -0.000024
 27   2.930087 1.603639 1.514501 -0.000019 -0.000022 -0.000050
 28   2.932517 1.603245 -1.501142 -0.000002 -0.000009 -0.000024
 29   8.824059 0.150544 0.091743 0.059095 -0.021928 0.001754
 30   2.157961 -0.553366 1.682754 -0.001567 0.112511 0.007529
 31   2.191605 -0.557383 -1.779378 0.000291 -0.149192 0.008350
 32   -0.814395 -0.093824 3.127092 -0.117372 -2.965304 -0.390486
 33   14.298673 -0.408176 0.471578 -0.000076 -0.000041 -0.565900
 34   15.835795 0.581398 0.242756 0.162047 -0.015984 0.085422
 35   -0.815868 -0.091229 -3.114430 0.086003 2.994346 -0.097346
 36   14.294526 -0.410349 -0.467541 0.000069 0.000048 -0.537167
 37   15.834409 0.579420 -0.284600 -0.088605 0.042248 0.350491
 38   1.170936 -3.469374 -2.823813 0.006083 -0.004531 0.013931
 39   -4.473368 -0.855629 -0.703210 0.007790 0.017222 -0.068742
 40   1.086850 -3.434144 3.237290 -0.002884 -0.005470 0.022544
 41   -4.328368 -0.934126 1.002536 0.000838 0.001678 -0.006843
 42   -0.602779 1.689489 -2.481576 0.050575 0.078779 -0.007612
 43   -0.660162 1.675140 2.685778 -0.059334 -0.089329 0.015391
time 11
  0   0.001233 0.187506 0.223034 0.000000 0.000000 -1.571354
  1   -1.093036 0.000002 -0.326057 -1.570808 -1.570425 -0.000074
  2   2.262337 0.113614 0.064702 -0.241441 -0.007502 -0.059755
  3   2.380047 0.353302 0.047440 0.020476 0.013527 0.086315
  4   2.033756 0.190472 -0.000128 -0.221874 -0.017677 0.366069
  5   2.451511 0.204909 -0.003447 -0.210914 0.005452 0.525287
  6   7.247600 -0.397300 -0.109469 0.000001 0.000009 0.087015
  7   -2.022252 -0.104661 3.136172 1.119052 -1.012073 -4.280253
  8   1.168026 -0.537438 -0.063437 -0.462725 -0.199983 -0.130885
  9   6.790376 -0.619176 0.015206 0.005446 0.002985 -1.598327
 10   8.637599 0.544015 -0.090417 -2.304133 -0.089034 -0.069354
 11   6.790465 -0.619039 0.017802 0.007395 -0.010486 -1.134090
 12   -2.022474 -0.104699 -2.873818 -1.290470 0.791566 -4.415650
 13   1.167898 -0.537463 0.063297 1.082282 -0.189581 -0.976214
 14   7.002743 -0.617765 -0.183752 0.000229 0.000250 -1.526516
 15   8.209042 0.615527 -0.255885 2.158112 -0.134813 0.133438
 16   7.002735 -0.617911 -0.183641 0.013637 0.008439 -1.087178
 17   1.574674 0.609930 -0.000899 0.562972 -0.228164 -0.261729
 18   -0.602177 0.511412 -0.000006 0.000000 0.000000 0.000000
 19   3.646428 0.364526 1.119313 -0.000002 -0.000014 -0.174510
 20   3.646422 0.364499 -1.117566 0.000007 -0.000003 -0.174546
 21   3.805634 1.330634 1.627658 0.000002 -0.000011 -0.000026
 22   -0.246060 -0.011889 0.516521 -0.000011 0.000031 0.000025
 23   3.805651 1.330659 -1.631083 0.000019 0.000002 -0.000024
 24   -0.246150 -0.011872 -0.516511 -0.000005 -0.000006 0.000048
 25   4.941364 1.997338 1.629330 0.000018 -0.000001 -0.000024
 26   4.941382 1.997366 -1.629410 -0.000001 0.000005 -0.000024
 27   2.930087 1.603639 1.514501 -0.000019 -0.000022 -0.000050
 28   2.932517 1.603245 -1.501142 -0.000002 -0.000009 -0.000024
 29   8.824059 0.150544 0.091743 0.065601 -0.025013 0.021603
 30   2.161868 -0.553366 1.671035 -0.001744 0.125327 0.008387
 31   2.199417 -0.557383 -1.771565 0.000337 -0.166080 0.009296
 32   -0.814395 -0.093824 3.127092 -0.116533 -2.964540 -0.395381
 33   14.298673 -0.408176 0.471578 -0.000076 -0.000041 -0.575428
 34   15.835795 0.581398 0.242756 0.162231 -0.016106 0.089832
 35   -0.815868 -0.091229 -3.114430 0.085211 2.994159 -0.102112
 36   14.294526 -0.410349 -0.467541 0.000069 0.000048 -0.547054
 37   15.834409 0.579420 -0.284600 -0.088605 0.042478 0.355764
 38   1.178749 -3.469374 -2.823813 0.006778 -0.005049 0.015519
 39   -4.473368 -0.836097 -0.695397 0.008677 0.019163 -0.076511
 40   1.079037 -3.434144 3.237290 -0.003221 -0.006097 0.025110
 41   -4.316648 -0.918501 1.006442 0.000934 0.001870 -0.007629
 42   -0.594966 1.689489 -2.458138 0.056304 0.087703 -0.008490
 43   -0.660162 1.671233 2.666246 -0.066044 -0.099435 0.017147
time 12
  0   0.001233 0.187506 0.176158 0.000000 0.000000 -1.571354
  1   -1.093036 0.000002 -0.326057 -1.570808 -1.570425 -0.000074
  2   2.262337 0.113614 0.064702 -0.241441 -0.007502 -0.059755
  3   2.380047 0.353302 0.047440 0.020476 0.013527 0.086315
  4   2.033756 0.190472 -0.000128 -0.221653 -0.017318 0.368280
  5   2.451511 0.204909 -0.003447 -0.210435 0.006288 0.529200
  6   7.247600 -0.397300 -0.109469 0.000001 0.000009 0.087015
  7   -2.022252 -0.104661 3.136172 1.111000 -1.009593 -4.270486
  8   1.168026 -0.537438 -0.063437 -0.461839 -0.207631 -0.131139
  9   6.790376 -0.619176 0.015206 0.005446 0.002985 -1.595912
 10   8.637599 0.544015 -0.090417 -2.304133 -0.089034 -0.069354
 11   6.790465 -0.619039 0.017802 0.007395 -0.010486 -1.132360
 12   -2.022474 -0.104699 -2.873818 -1.285009 0.790057 -4.407991
 13   1.167898 -0.537463 0.063297 1.076447 -0.184903 -0.974519
 14   7.002743 -0.617765 -0.183752 0.000229 0.000250 -1.525526
 15   8.209042 0.615527 -0.255885 2.158112 -0.134813 0.133438
 16   7.002735 -0.617911 -0.183641 0.013637 0.008439 -1.086571
 17   1.574674 0.609930 -0.000899 0.562241 -0.227667 -0.267791
 18   -0.602177 0.511412 -0.000006 0.000000 0.000000 0.000000
 19   3.646428 0.364526 1.119313 -0.000002 -0.000014 -0.174510
 20   3.646422 0.364499 -1.117566 0.000007 -0.000003 -0.174546
 21   3.805634 1.330634 1.627658 0.000002 -0.000011 -0.000026
 22   -0.246060 -0.011889 0.516521 -0.000011 0.000031 0.000025
 23   3.805651 1.330659 -1.631083 0.000019 0.000002 -0.000024
 24   -0.246150 -0.011872 -0.516511 -0.000005 -0.000006 0.000048
 25   4.941364 1.997338 1.629330 0.000018 -0.000001 -0.000024
 26   4.941382 1.997366 -1.629410 -0.000001 0.000005 -0.000024
 27   2.930087 1.603639 1.514501 -0.000019 -0.000022 -0.000050
 28   2.932517 1.603245 -1.501142 -0.000002 -0.000009 -0.000024
 29   8.824059 0.150544 0.091743 0.070948 -0.027767 0.038503
 30   2.165774 -0.553366 1.659316 -0.001893 0.136225 0.009116
 31   2.207230 -0.557383 -1.763752 0.000352 -0.180455 0.010096
 32   -0.814395 -0.093824 3.127092 -0.116067 -2.963967 -0.399594
 33   14.298673 -0.408176 0.471578 -0.000076 -0.000041 -0.583367
 34   15.835795 0.581398 0.242756 0.162369 -0.016179 0.093625
 35   -0.815868 -0.091229 -3.114430 0.084859 2.993409 -0.105946
 36   14.294526 -0.410349 -0.467541 0.000069 0.000048 -0.555551
 37   15.834409 0.579420 -0.284600 -0.088566 0.042632 0.360327
 38   1.178749 -3.469374 -2.823813 0.007367 -0.005483 0.016863
 39   -4.473368 -0.816566 -0.691491 0.009432 0.020829 -0.083158
 40   1.079037 -3.434144 3.237290 -0.003494 -0.006627 0.027309
 41   -4.308836 -0.906782 1.010349 0.001018 0.002025 -0.008274
 42   -0.591060 1.689489 -2.438606 0.061169 0.095292 -0.009201
 43   -0.660162 1.667327 2.650620 -0.071766 -0.108049 0.018611
time 13
  0   0.001233 0.187506 0.148813 0.000000 0.000000 -1.571354
  1   -1.093036 0.000002 -0.326057 -1.570808 -1.570425 -0.000074
  2   2.262337 0.113614 0.064702 -0.241441 -0.007502 -0.059755
  3   2.380047 0.353302 0.047440 0.020476 0.013527 0.086315
  4   2.033756 0.190472 -0.000128 -0.221487 -0.016814 0.369912
  5   2.451511 0.204909 -0.003447 -0.210041 0.006784 0.532147
  6   7.247600 -0.397300 -0.109469 0.000001 0.000009 0.087015
  7   -2.022252 -0.104661 3.136172 1.103427 -1.007201 -4.261940
  8   1.168026 -0.537438 -0.063437 -0.460258 -0.213920 -0.130696
  9   6.790376 -0.619176 0.015206 0.005501 0.002985 -1.593346
 10   8.637599 0.544015 -0.090417 -2.304133 -0.089034 -0.069354
 11   6.790465 -0.619039 0.017802 0.007366 -0.010486 -1.130572
 12   -2.022474 -0.104699 -2.873818 -1.279836 0.788374 -4.400619
 13   1.167898 -0.537463 0.063297 1.070753 -0.181699 -0.972824
 14   7.002743 -0.617765 -0.183752 0.000229 0.000250 -1.524701
 15   8.209042 0.615527 -0.255885 2.158112 -0.134813 0.133438
 16   7.002735 -0.617911 -0.183641 0.013637 0.008439 -1.085963
 17   1.574674 0.609930 -0.000899 0.561591 -0.227383 -0.272337
 18   -0.602177 0.511412 -0.000006 0.000000 0.000000 0.000000
 19   3.646428 0.364526 1.119313 -0.000002 -0.000014 -0.174510
 20   3.646422 0.364499 -1.117566 0.000007 -0.000003 -0.174546
 21   3.805634 1.330634 1.627658 0.000002 -0.000011 -0.000026
 22   -0.246060 -0.011889 0.516521 -0.000011 0.000031 0.000025
 23   3.805651 1.330659 -1.631083 0.000019 0.000002 -0.000024
 24   -0.246150 -0.011872 -0.516511 -0.000005 -0.000006 0.000048
 25   4.941364 1.997338 1.629330 0.000018 -0.000001 -0.000024
 26   4.941382 1.997366 -1.629410 -0.000001 0.000005 -0.000024
 27   2.930087 1.603639 1.514501 -0.000019 -0.000022 -0.000050
 28   2.932517 1.603245 -1.501142 -0.000002 -0.000009 -0.000024
 29   8.824059 0.150544 0.091743 0.075137 -0.029951 0.051593
 30   2.169681 -0.553366 1.651503 -0.002015 0.144681 0.009673
 31   2.215043 -0.557383 -1.759846 0.000383 -0.191619 0.010733
 32   -0.814395 -0.093824 3.127092 -0.115694 -2.963585 -0.402724
 33   14.298673 -0.408176 0.471578 -0.000076 -0.000041 -0.589799
 34   15.835795 0.581398 0.242756 0.162530 -0.016252 0.096624
 35   -0.815868 -0.091229 -3.114430 0.084243 2.993128 -0.109014
 36   14.294526 -0.410349 -0.467541 0.000069 0.000048 -0.561653
 37   15.834409 0.579420 -0.284600 -0.088566 0.042760 0.363775
 38   1.182655 -3.473281 -2.823813 0.007809 -0.005820 0.017902
 39   -4.477274 -0.800940 -0.687584 0.010007 0.022112 -0.088291
 40   1.075131 -3.430237 3.237290 -0.003726 -0.007037 0.028959
 41   -4.301023 -0.898969 1.014255 0.001078 0.002157 -0.008779
 42   -0.587153 1.685583 -2.422981 0.064956 0.101195 -0.009786
 43   -0.660162 1.667327 2.634995 -0.076214 -0.114734 0.019782
time 14
  0   0.001233 0.187506 0.129281 0.000000 0.000000 -1.571354
  1   -1.093036 0.000002 -0.326057 -1.570808 -1.570425 -0.000074
  2   2.262337 0.113614 0.064702 -0.241441 -0.007502 -0.059755
  3   2.380047 0.353302 0.047440 0.020476 0.013527 0.086315
  4   2.033756 0.190472 -0.000128 -0.221413 -0.016658 0.371035
  5   2.451511 0.204909 -0.003447 -0.209767 0.007319 0.534054
  6   7.247600 -0.397300 -0.109469 0.000001 0.000009 0.087015
  7   -2.022252 -0.104661 3.136172 1.096142 -1.004837 -4.253205
  8   1.168026 -0.537438 -0.063437 -0.457726 -0.218650 -0.130443
  9   6.790376 -0.619176 0.015206 0.005501 0.002985 -1.591082
 10   8.637599 0.544015 -0.090417 -2.304133 -0.089034 -0.069354
 11   6.790465 -0.619039 0.017802 0.007366 -0.010486 -1.129015
 12   -2.022474 -0.104699 -2.873818 -1.274950 0.787068 -4.393630
 13   1.167898 -0.537463 0.063297 1.065552 -0.180122 -0.970887
 14   7.002743 -0.617765 -0.183752 0.000229 0.000250 -1.523711
 15   8.209042 0.615527 -0.255885 2.158112 -0.134813 0.133438
 16   7.002735 -0.617911 -0.183641 0.013637 0.008439 -1.085356
 17   1.574674 0.609930 -0.000899 0.561266 -0.227170 -0.275109
 18   -0.602177 0.511412 -0.000006 0.000000 0.000000 0.000000
 19   3.658147 0.270773 1.119313 -0.000002 -0.000014 -0.174510
 20   3.658141 0.270746 -1.117566 0.000007 -0.000003 -0.174546
 21   3.352495 1.260319 1.572969 0.000002 -0.000011 -0.000026
 22   -0.238247 -0.382994 0.496989 0.000099 -0.028720 0.445010
 23   3.360325 1.256438 -1.623270 0.000019 0.000002 -0.000024
 24   -0.160210 -0.285318 -0.532136 0.000091 -0.028745 0.445076
 25   4.531195 1.993432 1.637143 -0.032209 0.220350 0.007203
 26   4.531213 1.993460 -1.621597 0.035761 -0.204352 -0.020865
 27   3.117593 1.463010 1.502782 -0.000019 -0.000022 -0.000050
 28   3.120023 1.462616 -1.512861 -0.000002 -0.000009 -0.000024
 29   8.824059 0.150544 0.091743 0.077811 -0.031399 0.060069
 30   2.173587 -0.553366 1.647597 -0.002096 0.150174 0.010038
 31   2.218949 -0.557383 -1.755940 0.000398 -0.198845 0.011134
 32   -0.814395 -0.093824 3.127092 -0.115322 -2.963203 -0.404546
 33   14.298673 -0.408176 0.471578 -0.000076 -0.000041 -0.593372
 34   15.835795 0.581398 0.242756 0.162622 -0.016301 0.098432
 35   -0.815868 -0.091229 -3.114430 0.083979 2.993034 -0.110931
 36   14.294526 -0.410349 -0.467541 0.000069 0.000048 -0.565747
 37   15.834409 0.579420 -0.284600 -0.088507 0.042862 0.365803
 38   1.182655 -3.473281 -2.823813 0.008104 -0.006049 0.018574
 39   -4.477274 -0.789221 -0.687584 0.010391 0.022950 -0.091628
 40   1.075131 -3.430237 3.237290 -0.003852 -0.007302 0.030059
 41   -4.293211 -0.891156 1.018162 0.001126 0.002241 -0.009115
 42   -0.583247 1.685583 -2.415168 0.067401 0.104998 -0.010163
 43   -0.660162 1.663421 2.627182 -0.079075 -0.119049 0.020535
time 15
  0   0.001233 0.187506 0.129281 0.000000 0.000000 -1.571354
  1   -1.093036 0.000002 -0.326057 -1.570808 -1.570425 -0.000074
  2   2.262337 0.113614 0.064702 -0.241441 -0.007502 -0.059755
  3   2.380047 0.353302 0.047440 0.020476 0.013527 0.086315
  4   2.033756 0.190472 -0.000128 -0.221376 -0.016623 0.371325
  5   2.451511 0.204909 -0.003447 -0.209750 0.007358 0.534673
  6   7.247600 -0.397300 -0.109469 0.000001 0.000009 0.087015
  7   -2.022252 -0.104661 3.136172 1.089528 -1.002646 -4.244471
  8   1.168026 -0.537438 -0.063437 -0.454372 -0.221920 -0.130000
  9   6.790376 -0.619176 0.015206 0.005501 0.002919 -1.588818
 10   8.637599 0.544015 -0.090417 -2.304133 -0.089034 -0.069354
 11   6.790465 -0.619039 0.017802 0.007366 -0.010486 -1.127400
 12   -2.022474 -0.104699 -2.873818 -1.270351 0.785471 -4.387120
 13   1.167898 -0.537463 0.063297 1.060631 -0.180580 -0.968829
 14   7.002743 -0.617765 -0.183752 0.000229 0.000250 -1.522721
 15   8.209042 0.615527 -0.255885 2.158112 -0.134813 0.133438
 16   7.002735 -0.617911 -0.183641 0.013637 0.008439 -1.084584
 17   1.574674 0.609930 -0.000899 0.561103 -0.227099 -0.276181
 18   -0.602177 0.511412 -0.000006 0.000000 0.000000 0.000000
 19   3.673773 0.177020 1.119313 -0.000002 -0.000014 -0.174510
 20   3.673767 0.176993 -1.117566 0.000007 -0.000003 -0.174546
 21   2.899356 1.190005 1.518280 0.000002 -0.000011 -0.000026
 22   -0.226528 -0.758005 0.473551 0.000194 -0.057471 0.890061
 23   2.914999 1.182217 -1.611551 0.000019 0.000002 -0.000024
 24   -0.074270 -0.562670 -0.551668 0.000187 -0.057496 0.890104
 25   4.117120 1.989525 1.648862 -0.064423 0.440701 0.014429
 26   4.117138 1.989553 -1.609878 0.071535 -0.408734 -0.041706
 27   3.305099 1.322380 1.487156 -0.000019 -0.000022 -0.000050
 28   3.307528 1.321986 -1.528487 -0.000002 -0.000009 -0.000024
 29   8.824059 0.150544 0.091743 0.078791 -0.031921 0.063073
 30   2.173587 -0.553366 1.643691 -0.002123 0.152121 0.010167
 31   2.218949 -0.557383 -1.752033 0.000398 -0.201410 0.011279
 32   -0.814395 -0.093824 3.127092 -0.115228 -2.963108 -0.405172
 33   14.298673 -0.408176 0.471578 -0.000076 -0.000041 -0.594563
 34   15.835795 0.581398 0.242756 0.162691 -0.016301 0.098785
 35   -0.815868 -0.091229 -3.114430 0.083803 2.992753 -0.111314
 36   14.294526 -0.410349 -0.467541 0.000069 0.000048 -0.566597
 37   15.834409 0.579420 -0.284600 -0.088507 0.042862 0.366158
 38   1.186561 -3.473281 -2.823813 0.008209 -0.006122 0.018818
 39   -4.477274 -0.789221 -0.683678 0.010522 0.023250 -0.092806
 40   1.071225 -3.430237 3.237290 -0.003915 -0.007386 0.030425
 41   -4.293211 -0.891156 1.018162 0.001138 0.002265 -0.009227
 42   -0.583247 1.685583 -2.411262 0.068276 0.106362 -0.010288
 43   -0.660162 1.663421 2.623276 -0.080100 -0.120587 0.020786
time 16
  0   0.001233 0.187506 0.129281 0.000000 0.000000 -1.571354
  1   -1.093036 0.000002 -0.326057 -1.570808 -1.570425 -0.000074
  2   2.262337 0.113614 0.064702 -0.241441 -0.007502 -0.059755
  3   2.380047 0.353302 0.047440 0.020476 0.013527 0.086315
  4   2.033756 0.190472 -0.000128 -0.221413 -0.016658 0.371035
  5   2.451511 0.204909 -0.003447 -0.209767 0.007319 0.534054
  6   7.247600 -0.397300 -0.109469 0.000001 0.000009 0.087015
  7   -2.022252 -0.104661 3.136172 1.087611 -1.002127 -4.243062
  8   1.168026 -0.537438 -0.063437 -0.451651 -0.220109 -0.129684
  9   6.790376 -0.619176 0.015206 0.005501 0.002919 -1.587082
 10   8.637599 0.544015 -0.090417 -2.304133 -0.089034 -0.069354
 11   6.790465 -0.619039 0.017802 0.007337 -0.010486 -1.126189
 12   -2.022474 -0.104699 -2.873818 -1.269009 0.785094 -4.385396
 13   1.167898 -0.537463 0.063297 1.059225 -0.183936 -0.967497
 14   7.002743 -0.617765 -0.183752 0.000229 0.000250 -1.522226
 15   8.209042 0.615527 -0.255885 2.158112 -0.134813 0.133438
 16   7.002735 -0.617911 -0.183641 0.013637 0.008439 -1.084252
 17   1.574674 0.609930 -0.000899 0.561266 -0.227170 -0.275109
 18   -0.602177 0.511412 -0.000006 0.000000 0.000000 0.000000
 19   3.658147 0.270773 1.119313 -0.000002 -0.000014 -0.174510
 20   3.658141 0.270746 -1.117566 0.000007 -0.000003 -0.174546
 21   3.352495 1.260319 1.572969 0.000002 -0.000011 -0.000026
 22   -0.238247 -0.382994 0.496989 0.000099 -0.028720 0.445010
 23   3.360325 1.256438 -1.623270 0.000019 0.000002 -0.000024
 24   -0.160210 -0.285318 -0.532136 0.000091 -0.028745 0.445076
 25   4.531195 1.993432 1.637143 -0.032209 0.220350 0.007203
 26   4.531213 1.993460 -1.621597 0.035761 -0.204352 -0.020865
 27   3.117593 1.463010 1.502782 -0.000019 -0.000022 -0.000050
 28   3.120023 1.462616 -1.512861 -0.000002 -0.000009 -0.000024
 29   8.824059 0.150544 0.091743 0.077811 -0.031399 0.060069
 30   2.173587 -0.553366 1.647597 -0.002096 0.150174 0.010038
 31   2.218949 -0.557383 -1.755940 0.000398 -0.198845 0.011134
 32   -0.814395 -0.093824 3.127092 -0.115601 -2.963203 -0.403977
 33   14.298673 -0.408176 0.471578 -0.000076 -0.000041 -0.592022
 34   15.835795 0.581398 0.242756 0.162622 -0.016301 0.097947
 35   -0.815868 -0.091229 -3.114430 0.083979 2.993034 -0.110274
 36   14.294526 -0.410349 -0.467541 0.000069 0.000048 -0.564434
 37   15.834409 0.579420 -0.284600 -0.088507 0.042862 0.365144
 38   1.182655 -3.473281 -2.823813 0.008104 -0.006049 0.018574
 39   -4.477274 -0.789221 -0.687584 0.010391 0.022950 -0.091628
 40   1.075131 -3.430237 3.237290 -0.003852 -0.007302 0.030059
 41   -4.293211 -0.891156 1.018162 0.001126 0.002241 -0.009115
 42   -0.583247 1.685583 -2.415168 0.067401 0.104998 -0.010163
 43   -0.660162 1.663421 2.627182 -0.079075 -0.119049 0.020535
time 17
  0   0.001233 0.187506 0.148813 0.000000 0.000000 -1.571354
  1   -1.093036 0.000002 -0.326057 -1.570808 -1.570425 -0.000074
  2   2.262337 0.113614 0.064702 -0.241441 -0.007502 -0.059755
  3   2.380047 0.353302 0.047440 0.020476 0.013527 0.086315
  4   2.033756 0.190472 -0.000128 -0.221487 -0.016814 0.369912
  5   2.451511 0.204909 -0.003447 -0.210041 0.006784 0.532147
  6   7.247600 -0.397300 -0.109469 0.000001 0.000009 0.087015
  7   -2.022252 -0.104661 3.136172 1.092979 -1.003972 -4.249918
  8   1.168026 -0.537438 -0.063437 -0.451904 -0.213920 -0.129494
  9   6.790376 -0.619176 0.015206 0.005501 0.002919 -1.587384
 10   8.637599 0.544015 -0.090417 -2.304133 -0.089034 -0.069354
 11   6.790465 -0.619039 0.017802 0.007366 -0.010486 -1.126477
 12   -2.022474 -0.104699 -2.873818 -1.272938 0.786458 -4.390949
 13   1.167898 -0.537463 0.063297 1.062950 -0.188564 -0.967921
 14   7.002743 -0.617765 -0.183752 0.000229 0.000250 -1.522391
 15   8.209042 0.615527 -0.255885 2.158112 -0.134813 0.133438
 16   7.002735 -0.617911 -0.183641 0.013637 0.008439 -1.084363
 17   1.574674 0.609930 -0.000899 0.561591 -0.227383 -0.272337
 18   -0.602177 0.511412 -0.000006 0.000000 0.000000 0.000000
 19   3.646428 0.364526 1.119313 -0.000002 -0.000014 -0.174510
 20   3.646422 0.364499 -1.117566 0.000007 -0.000003 -0.174546
 21   3.805634 1.330634 1.627658 0.000002 -0.000011 -0.000026
 22   -0.246060 -0.011889 0.516521 -0.000011 0.000031 0.000025
 23   3.805651 1.330659 -1.631083 0.000019 0.000002 -0.000024
 24   -0.246150 -0.011872 -0.516511 -0.000005 -0.000006 0.000048
 25   4.941364 1.997338 1.629330 0.000018 -0.000001 -0.000024
 26   4.941382 1.997366 -1.629410 -0.000001 0.000005 -0.000024
 27   2.930087 1.603639 1.514501 -0.000019 -0.000022 -0.000050
 28   2.932517 1.603245 -1.501142 -0.000002 -0.000009 -0.000024
 29   8.824059 0.150544 0.091743 0.075137 -0.029951 0.051593
 30   2.169681 -0.553366 1.651503 -0.002015 0.144681 0.009673
 31   2.215043 -0.557383 -1.759846 0.000383 -0.191619 0.010733
 32   -0.814395 -0.093824 3.127092 -0.115788 -2.963776 -0.401814
 33   14.298673 -0.408176 0.471578 -0.000076 -0.000041 -0.587575
 34   15.835795 0.581398 0.242756 0.162530 -0.016179 0.095742
 35   -0.815868 -0.091229 -3.114430 0.084243 2.993315 -0.107973
 36   14.294526 -0.410349 -0.467541 0.000069 0.000048 -0.559645
 37   15.834409 0.579420 -0.284600 -0.088507 0.042734 0.362558
 38   1.182655 -3.473281 -2.823813 0.007809 -0.005820 0.017902
 39   -4.477274 -0.800940 -0.687584 0.010007 0.022112 -0.088291
 40   1.075131 -3.430237 3.237290 -0.003726 -0.007037 0.028959
 41   -4.301023 -0.898969 1.014255 0.001078 0.002157 -0.008779
 42   -0.587153 1.685583 -2.422981 0.064956 0.101195 -0.009786
 43   -0.660162 1.667327 2.634995 -0.076214 -0.114734 0.019782
time 18
  0   0.001233 0.187506 0.176158 0.000000 0.000000 -1.571354
  1   -1.093036 0.000002 -0.326057 -1.570808 -1.570425 -0.000074
  2   2.262337 0.113614 0.064702 -0.241441 -0.007502 -0.059755
  3   2.380047 0.353302 0.047440 0.020476 0.013527 0.086315
  4   2.033756 0.190472 -0.000128 -0.221653 -0.017318 0.368280
  5   2.451511 0.204909 -0.003447 -0.210435 0.006288 0.529200
  6   7.247600 -0.397300 -0.109469 0.000001 0.000009 0.087015
  7   -2.022252 -0.104661 3.136172 1.101702 -1.006682 -4.259967
  8   1.168026 -0.537438 -0.063437 -0.453233 -0.205870 -0.129747
  9   6.790376 -0.619176 0.015206 0.005501 0.002919 -1.589497
 10   8.637599 0.544015 -0.090417 -2.304133 -0.089034 -0.069354
 11   6.790465 -0.619039 0.017802 0.007366 -0.010486 -1.127861
 12   -2.022474 -0.104699 -2.873818 -1.278494 0.788113 -4.399087
 13   1.167898 -0.537463 0.063297 1.068855 -0.193395 -0.969616
 14   7.002743 -0.617765 -0.183752 0.000229 0.000250 -1.523051
 15   8.209042 0.615527 -0.255885 2.158112 -0.134813 0.133438
 16   7.002735 -0.617911 -0.183641 0.013637 0.008439 -1.084804
 17   1.574674 0.609930 -0.000899 0.562241 -0.227667 -0.267791
 18   -0.602177 0.511412 -0.000006 0.000000 0.000000 0.000000
 19   3.646428 0.364526 1.119313 -0.000002 -0.000014 -0.174510
 20   3.646422 0.364499 -1.117566 0.000007 -0.000003 -0.174546
 21   3.805634 1.330634 1.627658 0.000002 -0.000011 -0.000026
 22   -0.246060 -0.011889 0.516521 -0.000011 0.000031 0.000025
 23   3.805651 1.330659 -1.631083 0.000019 0.000002 -0.000024
 24   -0.246150 -0.011872 -0.516511 -0.000005 -0.000006 0.000048
 25   4.941364 1.997338 1.629330 0.000018 -0.000001 -0.000024
 26   4.941382 1.997366 -1.629410 -0.000001 0.000005 -0.000024
 27   2.930087 1.603639 1.514501 -0.000019 -0.000022 -0.000050
 28   2.932517 1.603245 -1.501142 -0.000002 -0.000009 -0.000024
 29   8.824059 0.150544 0.091743 0.070948 -0.027767 0.038503
 30   2.165774 -0.553366 1.659316 -0.001893 0.136225 0.009116
 31   2.207230 -0.557383 -1.763752 0.000352 -0.180455 0.010096
 32   -0.814395 -0.093824 3.127092 -0.116347 -2.964254 -0.398512
 33   14.298673 -0.408176 0.471578 -0.000076 -0.000041 -0.581065
 34   15.835795 0.581398 0.242756 0.162438 -0.016130 0.092478
 35   -0.815868 -0.091229 -3.114430 0.084947 2.993878 -0.104796
 36   14.294526 -0.410349 -0.467541 0.000069 0.000048 -0.553002
 37   15.834409 0.579420 -0.284600 -0.088507 0.042606 0.359009
 38   1.178749 -3.469374 -2.823813 0.007367 -0.005483 0.016863
 39   -4.473368 -0.816566 -0.691491 0.009432 0.020829 -0.083158
 40   1.079037 -3.434144 3.237290 -0.003494 -0.006627 0.027309
 41   -4.308836 -0.906782 1.010349 0.001018 0.002025 -0.008274
 42   -0.591060 1.689489 -2.438606 0.061169 0.095292 -0.009201
 43   -0.660162 1.667327 2.650620 -0.071766 -0.108049 0.018611
time 19
  0   0.001233 0.187506 0.223034 0.000000 0.000000 -1.571354
  1   -1.093036 0.000002 -0.326057 -1.570808 -1.570425 -0.000074
  2   2.262337 0.113614 0.064702 -0.241441 -0.007502 -0.059755
  3   2.380047 0.353302 0.047440 0.020476 0.013527 0.086315
  4   2.033756 0.190472 -0.000128 -0.221874 -0.017677 0.366069
  5   2.451511 0.204909 -0.003447 -0.210914 0.005452 0.525287
  6   7.247600 -0.397300 -0.109469 0.000001 0.000009 0.087015
  7   -2.022252 -0.104661 3.136172 1.110233 -1.009420 -4.270110
  8   1.168026 -0.537438 -0.063437 -0.454119 -0.196562 -0.129937
  9   6.790376 -0.619176 0.015206 0.005501 0.002985 -1.591535
 10   8.637599 0.544015 -0.090417 -2.304133 -0.089034 -0.069354
 11   6.790465 -0.619039 0.017802 0.007366 -0.010486 -1.129303
 12   -2.022474 -0.104699 -2.873818 -1.284530 0.789738 -4.407130
 13   1.167898 -0.537463 0.063297 1.074971 -0.199447 -0.971129
 14   7.002743 -0.617765 -0.183752 0.000229 0.000250 -1.523876
 15   8.209042 0.615527 -0.255885 2.158112 -0.134813 0.133438
 16   7.002735 -0.617911 -0.183641 0.013637 0.008439 -1.085412
 17   1.574674 0.609930 -0.000899 0.562972 -0.228164 -0.261729
 18   -0.602177 0.511412 -0.000006 0.000000 0.000000 0.000000
 19   3.646428 0.364526 1.119313 -0.000002 -0.000014 -0.174510
 20   3.646422 0.364499 -1.117566 0.000007 -0.000003 -0.174546
 21   3.805634 1.330634 1.627658 0.000002 -0.000011 -0.000026
 22   -0.246060 -0.011889 0.516521 -0.000011 0.000031 0.000025
 23   3.805651 1.330659 -1.631083 0.000019 0.000002 -0.000024
 24   -0.246150 -0.011872 -0.516511 -0.000005 -0.000006 0.000048
 25   4.941364 1.997338 1.629330 0.000018 -0.000001 -0.000024
 26   4.941382 1.997366 -1.629410 -0.000001 0.000005 -0.000024
 27   2.930087 1.603639 1.514501 -0.000019 -0.000022 -0.000050
 28   2.932517 1.603245 -1.501142 -0.000002 -0.000009 -0.000024
 29   8.824059 0.150544 0.091743 0.065601 -0.025013 0.021603
 30   2.161868 -0.553366 1.671035 -0.001744 0.125327 0.008387
 31   2.199417 -0.557383 -1.771565 0.000337 -0.166080 0.009296
 32   -0.814395 -0.093824 3.127092 -0.117093 -2.964922 -0.394129
 33   14.298673 -0.408176 0.471578 -0.000076 -0.000041 -0.572887
 34   15.835795 0.581398 0.242756 0.162300 -0.016057 0.088509
 35   -0.815868 -0.091229 -3.114430 0.085651 2.994159 -0.100797
 36   14.294526 -0.410349 -0.467541 0.000069 0.000048 -0.544505
 37   15.834409 0.579420 -0.284600 -0.088566 0.042427 0.354243
 38   1.178749 -3.469374 -2.823813 0.006778 -0.005049 0.015519
 39   -4.473368 -0.836097 -0.695397 0.008677 0.019163 -0.076511
 40   1.079037 -3.434144 3.237290 -0.003221 -0.006097 0.025110
 41   -4.316648 -0.918501 1.006442 0.000934 0.001870 -0.007629
 42   -0.594966 1.689489 -2.458138 0.056304 0.087703 -0.008490
 43   -0.660162 1.671233 2.666246 -0.066044 -0.099435 0.017147
time 20
  0   0.001233 0.187506 0.266004 0.000000 0.000000 -1.571354
  1   -1.093036 0.000002 -0.326057 -1.570808 -1.570425 -0.000074
  2   2.262337 0.113614 0.064702 -0.241441 -0.007502 -0.059755
  3   2.380047 0.353302 0.047440 0.020476 0.013527 0.086315
  4   2.033756 0.190472 -0.000128 -0.222114 -0.018264 0.363460
  5   2.451511 0.204909 -0.003447 -0.211479 0.004303 0.520532
  6   7.247600 -0.397300 -0.109469 0.000001 0.000009 0.087015
  7   -2.022252 -0.104661 3.136172 1.119340 -1.012130 -4.280441
  8   1.168026 -0.537438 -0.063437 -0.454119 -0.186197 -0.129494
  9   6.790376 -0.619176 0.015206 0.005501 0.002985 -1.593497
 10   8.637599 0.544015 -0.090417 -2.304133 -0.089034 -0.069354
 11   6.790465 -0.619039 0.017802 0.007366 -0.010486 -1.130803
 12   -2.022474 -0.104699 -2.873818 -1.290470 0.791566 -4.415746
 13   1.167898 -0.537463 0.063297 1.081298 -0.206567 -0.973006
 14   7.002743 -0.617765 -0.183752 0.000229 0.000250 -1.524701
 15   8.209042 0.615527 -0.255885 2.158112 -0.134813 0.133438
 16   7.002735 -0.617911 -0.183641 0.013637 0.008439 -1.085963
 17   1.574674 0.609930 -0.000899 0.563865 -0.228661 -0.254522
 18   -0.602177 0.511412 -0.000006 0.000000 0.000000 0.000000
 19   3.646428 0.364526 1.119313 -0.000002 -0.000014 -0.174510
 20   3.646422 0.364499 -1.117566 0.000007 -0.000003 -0.174546
 21   3.805634 1.330634 1.627658 0.000002 -0.000011 -0.000026
 22   -0.246060 -0.011889 0.516521 -0.000011 0.000031 0.000025
 23   3.805651 1.330659 -1.631083 0.000019 0.000002 -0.000024
 24   -0.246150 -0.011872 -0.516511 -0.000005 -0.000006 0.000048
 25   4.941364 1.997338 1.629330 0.000018 -0.000001 -0.000024
 26   4.941382 1.997366 -1.629410 -0.000001 0.000005 -0.000024
 27   2.930087 1.603639 1.514501 -0.000019 -0.000022 -0.000050
 28   2.932517 1.603245 -1.501142 -0.000002 -0.000009 -0.000024
 29   8.824059 0.150544 0.091743 0.059095 -0.021928 0.001754
 30   2.157961 -0.553366 1.682754 -0.001567 0.112511 0.007529
 31   2.191605 -0.557383 -1.779378 0.000291 -0.149192 0.008350
 32   -0.814395 -0.093824 3.127092 -0.117652 -2.965686 -0.389234
 33   14.298673 -0.408176 0.471578 -0.000076 -0.000041 -0.563518
 34   15.835795 0.581398 0.242756 0.162139 -0.015935 0.084187
 35   -0.815868 -0.091229 -3.114430 0.086355 2.994815 -0.096086
 36   14.294526 -0.410349 -0.467541 0.000069 0.000048 -0.534541
 37   15.834409 0.579420 -0.284600 -0.088566 0.042248 0.349122
 38   1.170936 -3.469374 -2.823813 0.006083 -0.004531 0.013931
 39   -4.473368 -0.855629 -0.703210 0.007790 0.017222 -0.068742
 40   1.086850 -3.434144 3.237290 -0.002884 -0.005470 0.022544
 41   -4.328368 -0.934126 1.002536 0.000838 0.001678 -0.006843
 42   -0.602779 1.689489 -2.481576 0.050575 0.078779 -0.007612
 43   -0.660162 1.675140 2.685778 -0.059334 -0.089329 0.015391
time 21
  0   0.001233 0.187506 0.312881 0.000000 0.000000 -1.571354
  1   -1.093036 0.000002 -0.326057 -1.570808 -1.570425 -0.000074
  2   2.262337 0.113614 0.064702 -0.241441 -0.007502 -0.059755
  3   2.380047 0.353302 0.047440 0.020476 0.013527 0.086315
  4   2.033756 0.190472 -0.000128 -0.222446 -0.018984 0.360451
  5   2.451511 0.204909 -0.003447 -0.212095 0.003285 0.515158
  6   7.247600 -0.397300 -0.109469 0.000001 0.000009 0.087015
  7   -2.022252 -0.104661 3.136172 1.128446 -1.014926 -4.290960
  8   1.168026 -0.537438 -0.063437 -0.453676 -0.174826 -0.129494
  9   6.790376 -0.619176 0.015206 0.005446 0.002985 -1.595761
 10   8.637599 0.544015 -0.090417 -2.304133 -0.089034 -0.069354
 11   6.790465 -0.619039 0.017802 0.007395 -0.010486 -1.132244
 12   -2.022474 -0.104699 -2.873818 -1.296794 0.793192 -4.424554
 13   1.167898 -0.537463 0.063297 1.087906 -0.214907 -0.974519
 14   7.002743 -0.617765 -0.183752 0.000229 0.000250 -1.525526
 15   8.209042 0.615527 -0.255885 2.158112 -0.134813 0.133438
 16   7.002735 -0.617911 -0.183641 0.013637 0.008439 -1.086571
 17   1.574674 0.609930 -0.000899 0.564922 -0.229442 -0.246316
 18   -0.602177 0.511412 -0.000006 0.000000 0.000000 0.000000
 19   3.646428 0.364526 1.119313 -0.000002 -0.000014 -0.174510
 20   3.646422 0.364499 -1.117566 0.000007 -0.000003 -0.174546
 21   3.805634 1.330634 1.627658 0.000002 -0.000011 -0.000026
 22   -0.246060 -0.011889 0.516521 -0.000011 0.000031 0.000025
 23   3.805651 1.330659 -1.631083 0.000019 0.000002 -0.000024
 24   -0.246150 -0.011872 -0.516511 -0.000005 -0.000006 0.000048
 25   4.941364 1.997338 1.629330 0.000018 -0.000001 -0.000024
 26   4.941382 1.997366 -1.629410 -0.000001 0.000005 -0.000024
 27   2.930087 1.603639 1.514501 -0.000019 -0.000022 -0.000050
 28   2.932517 1.603245 -1.501142 -0.000002 -0.000009 -0.000024
 29   8.824059 0.150544 0.091743 0.051965 -0.018628 -0.020242
 30   2.150149 -0.557273 1.694474 -0.001378 0.098329 0.006607
 31   2.183792 -0.557383 -1.791097 0.000260 -0.130517 0.007313
 32   -0.814395 -0.093824 3.127092 -0.118584 -2.966450 -0.383940
 33   14.298673 -0.408176 0.471578 -0.000076 -0.000041 -0.553117
 34   15.835795 0.581398 0.242756 0.161978 -0.015764 0.079071
 35   -0.815868 -0.091229 -3.114430 0.087059 2.995095 -0.090828
 36   14.294526 -0.410349 -0.467541 0.000069 0.000048 -0.523649
 37   15.834409 0.579420 -0.284600 -0.088605 0.041992 0.343342
 38   1.167030 -3.465468 -2.823813 0.005325 -0.003965 0.012159
 39   -4.469461 -0.882974 -0.707116 0.006819 0.015065 -0.060132
 40   1.090756 -3.438050 3.237290 -0.002526 -0.004783 0.019734
 41   -4.343993 -0.949752 0.994723 0.000730 0.001462 -0.005974
 42   -0.610592 1.689489 -2.508921 0.044235 0.068921 -0.006650
 43   -0.660162 1.675140 2.709216 -0.051900 -0.078141 0.013467
time 22
  0   0.001233 0.187506 0.371476 0.000000 0.000000 -1.571354
  1   -1.093036 0.000002 -0.326057 -1.570808 -1.570425 -0.000074
  2   2.262337 0.113614 0.064702 -0.241441 -0.007502 -0.059755
  3   2.380047 0.353302 0.047440 0.020476 0.013527 0.086315
  4   2.033756 0.190472 -0.000128 -0.222741 -0.019762 0.357261
  5   2.451511 0.204909 -0.003447 -0.212831 0.001914 0.509140
  6   7.247600 -0.397300 -0.109469 0.000001 0.000009 0.087015
  7   -2.022252 -0.104661 3.136172 1.137840 -1.017665 -4.302605
  8   1.168026 -0.537438 -0.063437 -0.453233 -0.162851 -0.129241
  9   6.790376 -0.619176 0.015206 0.005446 0.002985 -1.598025
 10   8.637599 0.544015 -0.090417 -2.304133 -0.089034 -0.069354
 11   6.790465 -0.619039 0.017802 0.007395 -0.010486 -1.133975
 12   -2.022474 -0.104699 -2.873818 -1.303308 0.795165 -4.433554
 13   1.167898 -0.537463 0.063297 1.094935 -0.223806 -0.976335
 14   7.002743 -0.617765 -0.183752 0.000229 0.000250 -1.526681
 15   8.209042 0.615527 -0.255885 2.158112 -0.134813 0.133438
 16   7.002735 -0.617911 -0.183641 0.013637 0.008439 -1.087343
 17   1.574674 0.609930 -0.000899 0.566100 -0.230081 -0.237187
 18   -0.602177 0.511412 -0.000006 0.000000 0.000000 0.000000
 19   3.646428 0.364526 1.119313 -0.000002 -0.000014 -0.174510
 20   3.646422 0.364499 -1.117566 0.000007 -0.000003 -0.174546
 21   3.805634 1.330634 1.627658 0.000002 -0.000011 -0.000026
 22   -0.246060 -0.011889 0.516521 -0.000011 0.000031 0.000025
 23   3.805651 1.330659 -1.631083 0.000019 0.000002 -0.000024
 24   -0.246150 -0.011872 -0.516511 -0.000005 -0.000006 0.000048
 25   4.941364 1.997338 1.629330 0.000018 -0.000001 -0.000024
 26   4.941382 1.997366 -1.629410 -0.000001 0.000005 -0.000024
 27   2.930087 1.603639 1.514501 -0.000019 -0.000022 -0.000050
 28   2.932517 1.603245 -1.501142 -0.000002 -0.000009 -0.000024
 29   8.824059 0.150544 0.091743 0.044211 -0.015328 -0.043579
 30   2.146242 -0.557273 1.710099 -0.001161 0.083334 0.005599
 31   2.172073 -0.561289 -1.798910 0.000215 -0.110755 0.006203
 32   -0.814395 -0.093824 3.127092 -0.119516 -2.967406 -0.378191
 33   14.298673 -0.408176 0.471578 -0.000076 -0.000041 -0.542319
 34   15.835795 0.581398 0.242756 0.161863 -0.015593 0.073867
 35   -0.815868 -0.091229 -3.114430 0.087763 2.995751 -0.085459
 36   14.294526 -0.410349 -0.467541 0.000069 0.000048 -0.512449
 37   15.834409 0.579420 -0.284600 -0.088605 0.041787 0.337359
 38   1.163123 -3.465468 -2.823813 0.004505 -0.003362 0.010326
 39   -4.469461 -0.910318 -0.714929 0.005789 0.012776 -0.051017
 40   1.094663 -3.438050 3.237290 -0.002147 -0.004060 0.016740
 41   -4.355712 -0.965377 0.990817 0.000622 0.001246 -0.005076
 42   -0.618404 1.693396 -2.536265 0.037548 0.058479 -0.005646
 43   -0.664068 1.679046 2.736560 -0.044042 -0.066310 0.011418
time 23
  0   0.001233 0.187506 0.441791 0.000000 0.000000 -1.571354
  1   -1.093036 0.000002 -0.326057 -1.570808 -1.570425 -0.000074
  2   2.262337 0.113614 0.064702 -0.241441 -0.007502 -0.059755
  3   2.380047 0.353302 0.047440 0.020476 0.013527 0.086315
  4   2.033756 0.190472 -0.000128 -0.223073 -0.020541 0.353745
  5   2.451511 0.204909 -0.003447 -0.213567 0.000478 0.502800
  6   7.247600 -0.397300 -0.109469 0.000001 0.000009 0.087015
  7   -2.022252 -0.104661 3.136172 1.147905 -1.020346 -4.313969
  8   1.168026 -0.537438 -0.063437 -0.452347 -0.150172 -0.128735
  9   6.790376 -0.619176 0.015206 0.005446 0.002985 -1.600289
 10   8.637599 0.544015 -0.090417 -2.304133 -0.089034 -0.069354
 11   6.790465 -0.619039 0.017802 0.007395 -0.010486 -1.135417
 12   -2.022474 -0.104699 -2.873818 -1.309536 0.796617 -4.442458
 13   1.167898 -0.537463 0.063297 1.101614 -0.233469 -0.978030
 14   7.002743 -0.617765 -0.183752 0.000229 0.000250 -1.527671
 15   8.209042 0.615527 -0.255885 2.158112 -0.134813 0.133438
 16   7.002735 -0.617911 -0.183641 0.013637 0.008439 -1.088006
 17   1.574674 0.609930 -0.000899 0.567400 -0.230933 -0.227540
 18   -0.602177 0.511412 -0.000006 0.000000 0.000000 0.000000
 19   3.646428 0.364526 1.119313 -0.000002 -0.000014 -0.174510
 20   3.646422 0.364499 -1.117566 0.000007 -0.000003 -0.174546
 21   3.805634 1.330634 1.627658 0.000002 -0.000011 -0.000026
 22   -0.246060 -0.011889 0.516521 -0.000011 0.000031 0.000025
 23   3.805651 1.330659 -1.631083 0.000019 0.000002 -0.000024
 24   -0.246150 -0.011872 -0.516511 -0.000005 -0.000006 0.000048
 25   4.941364 1.997338 1.629330 0.000018 -0.000001 -0.000024
 26   4.941382 1.997366 -1.629410 -0.000001 0.000005 -0.000024
 27   2.930087 1.603639 1.514501 -0.000019 -0.000022 -0.000050
 28   2.932517 1.603245 -1.501142 -0.000002 -0.000009 -0.000024
 29   8.824059 0.150544 0.091743 0.036368 -0.012147 -0.067345
 30   2.138430 -0.557273 1.721818 -0.000957 0.068076 0.004591
 31   2.164260 -0.561289 -1.810629 0.000184 -0.090655 0.005075
 32   -0.814395 -0.093824 3.127092 -0.120541 -2.968265 -0.372840
 33   14.298673 -0.408176 0.471578 -0.000076 -0.000041 -0.531203
 34   15.835795 0.581398 0.242756 0.161748 -0.015447 0.068398
 35   -0.815868 -0.091229 -3.114430 0.088555 2.996501 -0.079982
 36   14.294526 -0.410349 -0.467541 0.000069 0.000048 -0.500708
 37   15.834409 0.579420 -0.284600 -0.088625 0.041608 0.331072
 38   1.159217 -3.461562 -2.823813 0.003684 -0.002748 0.008432
 39   -4.465555 -0.933757 -0.718835 0.004734 0.010463 -0.041761
 40   1.098569 -3.441956 3.237290 -0.001747 -0.003325 0.013685
 41   -4.371338 -0.984909 0.983004 0.000502 0.001019 -0.004151
 42   -0.626217 1.693396 -2.563610 0.030728 0.047869 -0.004600
 43   -0.664068 1.682953 2.759999 -0.036045 -0.054275 0.009326
time 24
  0   0.001233 0.187506 0.508199 0.000000 0.000000 -1.571354
  1   -1.093036 0.000002 -0.326057 -1.570808 -1.570425 -0.000074
  2   2.262337 0.113614 0.064702 -0.241441 -0.007502 -0.059755
  3   2.380047 0.353302 0.047440 0.020476 0.013527 0.086315
  4   2.033756 0.190472 -0.000128 -0.223460 -0.021320 0.350048
  5   2.451511 0.204909 -0.003447 -0.214303 -0.000710 0.496262
  6   7.247600 -0.397300 -0.109469 0.000001 0.000009 0.087015
  7   -2.022252 -0.104661 3.136172 1.157395 -1.023056 -4.325803
  8   1.168026 -0.537438 -0.063437 -0.451145 -0.137342 -0.128292
  9   6.790376 -0.619176 0.015206 0.005446 0.002985 -1.602402
 10   8.637599 0.544015 -0.090417 -2.304133 -0.089034 -0.069354
 11   6.790465 -0.619039 0.017802 0.007454 -0.010486 -1.136974
 12   -2.022474 -0.104699 -2.873818 -1.316338 0.798619 -4.451745
 13   1.167898 -0.537463 0.063297 1.108924 -0.243538 -0.980028
 14   7.002743 -0.617765 -0.183752 0.000229 0.000250 -1.528496
 15   8.209042 0.615527 -0.255885 2.158112 -0.134813 0.133438
 16   7.002735 -0.617911 -0.183641 0.013637 0.008439 -1.088613
 17   1.574674 0.609930 -0.000899 0.568659 -0.231785 -0.217450
 18   -0.602177 0.511412 -0.000006 0.000000 0.000000 0.000000
 19   3.646428 0.364526 1.119313 -0.000002 -0.000014 -0.174510
 20   3.646422 0.364499 -1.117566 0.000007 -0.000003 -0.174546
 21   3.805634 1.330634 1.627658 0.000002 -0.000011 -0.000026
 22   -0.246060 -0.011889 0.516521 -0.000011 0.000031 0.000025
 23   3.805651 1.330659 -1.631083 0.000019 0.000002 -0.000024
 24   -0.246150 -0.011872 -0.516511 -0.000005 -0.000006 0.000048
 25   4.941364 1.997338 1.629330 0.000018 -0.000001 -0.000024
 26   4.941382 1.997366 -1.629410 -0.000001 0.000005 -0.000024
 27   2.930087 1.603639 1.514501 -0.000019 -0.000022 -0.000050
 28   2.932517 1.603245 -1.501142 -0.000002 -0.000009 -0.000024
 29   8.824059 0.150544 0.091743 0.028525 -0.009228 -0.090682
 30   2.130617 -0.561179 1.737444 -0.000740 0.053081 0.003584
 31   2.152541 -0.561289 -1.818442 0.000138 -0.070892 0.003965
 32   -0.814395 -0.093824 3.127092 -0.121567 -2.968934 -0.367205
 33   14.298673 -0.408176 0.471578 -0.000076 -0.000041 -0.520643
 34   15.835795 0.581398 0.242756 0.161679 -0.015276 0.063767
 35   -0.815868 -0.091229 -3.114430 0.089348 2.997157 -0.074723
 36   14.294526 -0.410349 -0.467541 0.000069 0.000048 -0.489585
 37   15.834409 0.579420 -0.284600 -0.088625 0.041352 0.325140
 38   1.155311 -3.457655 -2.823813 0.002884 -0.002157 0.006599
 39   -4.461648 -0.961101 -0.726648 0.003703 0.008173 -0.032646
 40   1.102476 -3.445863 3.237290 -0.001368 -0.002602 0.010692
 41   -4.386963 -1.000534 0.979098 0.000394 0.000791 -0.003253
 42   -0.634030 1.693396 -2.590955 0.024029 0.037428 -0.003597
 43   -0.664068 1.686859 2.783437 -0.028187 -0.042443 0.007319
time 25
  0   0.001233 0.187506 0.566795 0.000000 0.000000 -1.571354
  1   -1.093036 0.000002 -0.326057 -1.570808 -1.570425 -0.000074
  2   2.262337 0.113614 0.064702 -0.241441 -0.007502 -0.059755
  3   2.380047 0.353302 0.047440 0.020476 0.013527 0.086315
  4   2.033756 0.190472 -0.000128 -0.223792 -0.022183 0.346242
  5   2.451511 0.204909 -0.003447 -0.215142 -0.002068 0.489501
  6   7.247600 -0.397300 -0.109469 0.000001 0.000009 0.087015
  7   -2.022252 -0.104661 3.136172 1.167844 -1.025737 -4.337448
  8   1.168026 -0.537438 -0.063437 -0.449879 -0.124109 -0.128039
  9   6.790376 -0.619176 0.015206 0.005446 0.002985 -1.604968
 10   8.637599 0.544015 -0.090417 -2.304133 -0.089034 -0.069354
 11   6.790465 -0.619039 0.017802 0.007454 -0.010486 -1.138819
 12   -2.022474 -0.104699 -2.873818 -1.322949 0.800012 -4.461128
 13   1.167898 -0.537463 0.063297 1.116165 -0.253760 -0.982207
 14   7.002743 -0.617765 -0.183752 0.000229 0.000250 -1.529404
 15   8.209042 0.615527 -0.255885 2.158112 -0.134813 0.133438
 16   7.002735 -0.617911 -0.183641 0.013637 0.008495 -1.089220
 17   1.574674 0.609930 -0.000899 0.570040 -0.232637 -0.207285
 18   -0.602177 0.511412 -0.000006 0.000000 0.000000 0.000000
 19   3.646428 0.364526 1.119313 -0.000002 -0.000014 -0.174510
 20   3.646422 0.364499 -1.117566 0.000007 -0.000003 -0.174546
 21   3.805634 1.330634 1.627658 0.000002 -0.000011 -0.000026
 22   -0.246060 -0.011889 0.516521 -0.000011 0.000031 0.000025
 23   3.805651 1.330659 -1.631083 0.000019 0.000002 -0.000024
 24   -0.246150 -0.011872 -0.516511 -0.000005 -0.000006 0.000048
 25   4.941364 1.997338 1.629330 0.000018 -0.000001 -0.000024
 26   4.941382 1.997366 -1.629410 -0.000001 0.000005 -0.000024
 27   2.930087 1.603639 1.514501 -0.000019 -0.000022 -0.000050
 28   2.932517 1.603245 -1.501142 -0.000002 -0.000009 -0.000024
 29   8.824059 0.150544 0.091743 0.021039 -0.006617 -0.112785
 30   2.126710 -0.561179 1.749163 -0.000550 0.038928 0.002640
 31   2.144728 -0.561289 -1.830161 0.000092 -0.052217 0.002909
 32   -0.814395 -0.093824 3.127092 -0.122592 -2.969984 -0.361171
 33   14.298673 -0.408176 0.471578 -0.000076 -0.000041 -0.509051
 34   15.835795 0.581398 0.242756 0.161679 -0.015105 0.058122
 35   -0.815868 -0.091229 -3.114430 0.090404 2.998000 -0.068478
 36   14.294526 -0.410349 -0.467541 0.000069 0.000048 -0.477303
 37   15.834409 0.579420 -0.284600 -0.088625 0.041173 0.318650
 38   1.151404 -3.457655 -2.823813 0.002126 -0.001579 0.004827
 39   -4.461648 -0.988446 -0.730555 0.002721 0.006028 -0.024036
 40   1.106382 -3.445863 3.237290 -0.001010 -0.001915 0.007881
 41   -4.398683 -1.016160 0.971285 0.000287 0.000587 -0.002384
 42   -0.637936 1.697302 -2.618299 0.017701 0.027570 -0.002635
 43   -0.664068 1.690765 2.806875 -0.020765 -0.031255 0.005395
time 26
  0   0.001233 0.187506 0.633203 0.000000 0.000000 -1.571354
  1   -1.093036 0.000002 -0.326057 -1.570808 -1.570425 -0.000074
  2   2.262337 0.113614 0.064702 -0.241441 -0.007502 -0.059755
  3   2.380047 0.353302 0.047440 0.020476 0.013527 0.086315
  4   2.033756 0.190472 -0.000128 -0.224161 -0.023034 0.342581
  5   2.451511 0.204909 -0.003447 -0.215895 -0.003543 0.482641
  6   7.247600 -0.397300 -0.109469 0.000001 0.000009 0.087015
  7   -2.022252 -0.104661 3.136172 1.178005 -1.028302 -4.349282
  8   1.168026 -0.537438 -0.063437 -0.448740 -0.110776 -0.127533
  9   6.790376 -0.619176 0.015206 0.005446 0.002985 -1.607383
 10   8.637599 0.544015 -0.090417 -2.304133 -0.089034 -0.069354
 11   6.790465 -0.619039 0.017802 0.007454 -0.010486 -1.140434
 12   -2.022474 -0.104699 -2.873818 -1.329847 0.801870 -4.470319
 13   1.167898 -0.537463 0.063297 1.123265 -0.263778 -0.984144
 14   7.002743 -0.617765 -0.183752 0.000229 0.000250 -1.530559
 15   8.209042 0.615527 -0.255885 2.158112 -0.134813 0.133438
 16   7.002735 -0.617911 -0.183641 0.013637 0.008495 -1.089993
 17   1.574674 0.609930 -0.000899 0.571380 -0.233489 -0.196788
 18   -0.602177 0.511412 -0.000006 0.000000 0.000000 0.000000
 19   3.646428 0.364526 1.119313 -0.000002 -0.000014 -0.174510
 20   3.646422 0.364499 -1.117566 0.000007 -0.000003 -0.174546
 21   3.805634 1.330634 1.627658 0.000002 -0.000011 -0.000026
 22   -0.246060 -0.011889 0.516521 -0.000011 0.000031 0.000025
 23   3.805651 1.330659 -1.631083 0.000019 0.000002 -0.000024
 24   -0.246150 -0.011872 -0.516511 -0.000005 -0.000006 0.000048
 25   4.941364 1.997338 1.629330 0.000018 -0.000001 -0.000024
 26   4.941382 1.997366 -1.629410 -0.000001 0.000005 -0.000024
 27   2.930087 1.603639 1.514501 -0.000019 -0.000022 -0.000050
 28   2.932517 1.603245 -1.501142 -0.000002 -0.000009 -0.000024
 29   8.824059 0.150544 0.091743 0.014266 -0.004409 -0.132796
 30   2.118898 -0.561179 1.760882 -0.000374 0.026112 0.001804
 31   2.136915 -0.561289 -1.837973 0.000061 -0.035330 0.001963
 32   -0.814395 -0.093824 3.127092 -0.124083 -2.970939 -0.354284
 33   14.298673 -0.408176 0.471578 -0.000076 -0.000041 -0.495712
 34   15.835795 0.581398 0.242756 0.161748 -0.014910 0.051683
 35   -0.815868 -0.091229 -3.114430 0.091636 2.998749 -0.061686
 36   14.294526 -0.410349 -0.467541 0.000069 0.000048 -0.463013
 37   15.834409 0.579420 -0.284600 -0.088625 0.040968 0.311146
 38   1.147498 -3.453749 -2.823813 0.001431 -0.001073 0.003300
 39   -4.457742 -1.007978 -0.738367 0.001846 0.004075 -0.016267
 40   1.110288 -3.449769 3.237290 -0.000674 -0.001288 0.005315
 41   -4.410401 -1.031785 0.967379 0.000191 0.000395 -0.001599
 42   -0.645749 1.697302 -2.641737 0.011973 0.018646 -0.001798
 43   -0.664068 1.694672 2.826407 -0.014043 -0.021150 0.003639
time 27
  0   0.001233 0.187506 0.703518 0.000000 0.000000 -1.571354
  1   -1.093036 0.000002 -0.326057 -1.570808 -1.570425 -0.000074
  2   2.262337 0.113614 0.064702 -0.241441 -0.007502 -0.059755
  3   2.380047 0.353302 0.047440 0.020476 0.013527 0.086315
  4   2.033756 0.190472 -0.000128 -0.224493 -0.023873 0.338920
  5   2.451511 0.204909 -0.003447 -0.216631 -0.005018 0.476103
  6   7.247600 -0.397300 -0.109469 0.000001 0.000009 0.087015
  7   -2.022252 -0.104661 3.136172 1.188070 -1.030839 -4.361491
  8   1.168026 -0.537438 -0.063437 -0.447601 -0.097795 -0.127027
  9   6.790376 -0.619176 0.015206 0.005446 0.002985 -1.609798
 10   8.637599 0.544015 -0.090417 -2.304133 -0.089034 -0.069354
 11   6.790465 -0.619039 0.017802 0.007483 -0.010486 -1.142049
 12   -2.022474 -0.104699 -2.873818 -1.336458 0.803263 -4.479893
 13   1.167898 -0.537463 0.063297 1.130857 -0.273898 -0.986505
 14   7.002743 -0.617765 -0.183752 0.000229 0.000250 -1.531549
 15   8.209042 0.615527 -0.255885 2.158112 -0.134813 0.133438
 16   7.002735 -0.617911 -0.183641 0.013637 0.008495 -1.090655
 17   1.574674 0.609930 -0.000899 0.572680 -0.234341 -0.186846
 18   -0.602177 0.511412 -0.000006 0.000000 0.000000 0.000000
 19   3.646428 0.364526 1.119313 -0.000002 -0.000014 -0.174510
 20   3.646422 0.364499 -1.117566 0.000007 -0.000003 -0.174546
 21   3.805634 1.330634 1.627658 0.000002 -0.000011 -0.000026
 22   -0.246060 -0.011889 0.516521 -0.000011 0.000031 0.000025
 23   3.805651 1.330659 -1.631083 0.000019 0.000002 -0.000024
 24   -0.246150 -0.011872 -0.516511 -0.000005 -0.000006 0.000048
 25   4.941364 1.997338 1.629330 0.000018 -0.000001 -0.000024
 26   4.941382 1.997366 -1.629410 -0.000001 0.000005 -0.000024
 27   2.930087 1.603639 1.514501 -0.000019 -0.000022 -0.000050
 28   2.932517 1.603245 -1.501142 -0.000002 -0.000009 -0.000024
 29   8.824059 0.150544 0.091743 0.008473 -0.002629 -0.149802
 30   2.114991 -0.561179 1.772601 -0.000225 0.015185 0.001075
 31   2.129103 -0.561289 -1.845786 0.000031 -0.020928 0.001163
 32   -0.814395 -0.093824 3.127092 -0.125481 -2.972085 -0.346998
 33   14.298673 -0.408176 0.471578 -0.000076 -0.000041 -0.481023
 34   15.835795 0.581398 0.242756 0.161863 -0.014666 0.044495
 35   -0.815868 -0.091229 -3.114430 0.092428 2.999593 -0.054126
 36   14.294526 -0.410349 -0.467541 0.000069 0.000048 -0.447255
 37   15.834409 0.579420 -0.284600 -0.088684 0.040712 0.303034
 38   1.143591 -3.453749 -2.823813 0.000842 -0.000627 0.001956
 39   -4.457742 -1.027509 -0.742274 0.001091 0.002409 -0.009648
 40   1.114195 -3.449769 3.237290 -0.000400 -0.000758 0.003116
 41   -4.422121 -1.043504 0.963472 0.000107 0.000228 -0.000954
 42   -0.649655 1.697302 -2.661269 0.007095 0.011057 -0.001046
 43   -0.664068 1.698578 2.845939 -0.008321 -0.012535 0.002133
time 28
  0   0.001233 0.187506 0.766019 0.000000 0.000000 -1.571354
  1   -1.093036 0.000002 -0.326057 -1.570808 -1.570425 -0.000074
  2   2.262337 0.113614 0.064702 -0.241441 -0.007502 -0.059755
  3   2.380047 0.353302 0.047440 0.020476 0.013527 0.086315
  4   2.033756 0.190472 -0.000128 -0.224825 -0.024676 0.335332
  5   2.451511 0.204909 -0.003447 -0.217350 -0.006546 0.469837
  6   7.247600 -0.397300 -0.109469 0.000001 0.000009 0.087015
  7   -2.022252 -0.104661 3.136172 1.198710 -1.033347 -4.373512
  8   1.168026 -0.537438 -0.063437 -0.446652 -0.084864 -0.126837
  9   6.790376 -0.619176 0.015206 0.005446 0.002985 -1.611911
 10   8.637599 0.544015 -0.090417 -2.304133 -0.089034 -0.069354
 11   6.790465 -0.619039 0.017802 0.007483 -0.010486 -1.143606
 12   -2.022474 -0.104699 -2.873818 -1.343068 0.804946 -4.489180
 13   1.167898 -0.537463 0.063297 1.137886 -0.283255 -0.989108
 14   7.002743 -0.617765 -0.183752 0.000229 0.000250 -1.532704
 15   8.209042 0.615527 -0.255885 2.158112 -0.134813 0.133438
 16   7.002735 -0.617911 -0.183641 0.013637 0.008495 -1.091483
 17   1.574674 0.609930 -0.000899 0.573940 -0.235193 -0.177051
 18   -0.602177 0.511412 -0.000006 0.000000 0.000000 0.000000
 19   3.646428 0.364526 1.119313 -0.000002 -0.000014 -0.174510
 20   3.646422 0.364499 -1.117566 0.000007 -0.000003 -0.174546
 21   3.805634 1.330634 1.627658 0.000002 -0.000011 -0.000026
 22   -0.246060 -0.011889 0.516521 -0.000011 0.000031 0.000025
 23   3.805651 1.330659 -1.631083 0.000019 0.000002 -0.000024
 24   -0.246150 -0.011872 -0.516511 -0.000005 -0.000006 0.000048
 25   4.941364 1.997338 1.629330 0.000018 -0.000001 -0.000024
 26   4.941382 1.997366 -1.629410 -0.000001 0.000005 -0.000024
 27   2.930087 1.603639 1.514501 -0.000019 -0.000022 -0.000050
 28   2.932517 1.603245 -1.501142 -0.000002 -0.000009 -0.000024
 29   8.824059 0.150544 0.091743 0.003927 -0.001323 -0.163000
 30   2.111085 -0.561179 1.780414 -0.000103 0.006729 0.000517
 31   2.125196 -0.561289 -1.849693 0.000015 -0.009765 0.000544
 32   -0.814395 -0.093824 3.127092 -0.127066 -2.972945 -0.339484
 33   14.298673 -0.408176 0.471578 -0.000076 -0.000041 -0.466017
 34   15.835795 0.581398 0.242756 0.161978 -0.014422 0.037174
 35   -0.815868 -0.091229 -3.114430 0.093836 3.000904 -0.046348
 36   14.294526 -0.410349 -0.467541 0.000069 0.000048 -0.431343
 37   15.834409 0.579420 -0.284600 -0.088684 0.040456 0.294617
 38   1.139685 -3.453749 -2.823813 0.000400 -0.000289 0.000856
 39   -4.457742 -1.043135 -0.746180 0.000503 0.001127 -0.004487
 40   1.118101 -3.449769 3.237290 -0.000189 -0.000348 0.001466
 41   -4.429934 -1.051317 0.959566 0.000047 0.000108 -0.000449
 42   -0.657468 1.697302 -2.676895 0.003308 0.005169 -0.000460
 43   -0.664068 1.698578 2.857658 -0.003886 -0.005851 0.001004
time 29
  0   0.001233 0.187506 0.824615 0.000000 0.000000 -1.571354
  1   -1.093036 0.000002 -0.326057 -1.570808 -1.570425 -0.000074
  2   2.262337 0.113614 0.064702 -0.241441 -0.007502 -0.059755
  3   2.380047 0.353302 0.047440 0.020476 0.013527 0.086315
  4   2.033756 0.190472 -0.000128 -0.225120 -0.025431 0.331961
  5   2.451511 0.204909 -0.003447 -0.217966 -0.007864 0.463819
  6   7.247600 -0.397300 -0.109469 0.000001 0.000009 0.087015
  7   -2.022252 -0.104661 3.136172 1.208967 -1.035797 -4.385533
  8   1.168026 -0.537438 -0.063437 -0.445956 -0.072839 -0.126521
  9   6.790376 -0.619176 0.015206 0.005446 0.002985 -1.614326
 10   8.637599 0.544015 -0.090417 -2.304133 -0.089034 -0.069354
 11   6.790465 -0.619039 0.017802 0.007483 -0.010486 -1.145394
 12   -2.022474 -0.104699 -2.873818 -1.349871 0.806427 -4.498371
 13   1.167898 -0.537463 0.063297 1.145408 -0.292002 -0.991469
 14   7.002743 -0.617765 -0.183752 0.000229 0.000250 -1.533199
 15   8.209042 0.615527 -0.255885 2.158112 -0.134813 0.133438
 16   7.002735 -0.617911 -0.183641 0.013637 0.008495 -1.091924
 17   1.574674 0.609930 -0.000899 0.575077 -0.235974 -0.168070
 18   -0.602177 0.511412 -0.000006 0.000000 0.000000 0.000000
 19   3.646428 0.364526 1.119313 -0.000002 -0.000014 -0.174510
 20   3.646422 0.364499 -1.117566 0.000007 -0.000003 -0.174546
 21   3.805634 1.330634 1.627658 0.000002 -0.000011 -0.000026
 22   -0.246060 -0.011889 0.516521 -0.000011 0.000031 0.000025
 23   3.805651 1.330659 -1.631083 0.000019 0.000002 -0.000024
 24   -0.246150 -0.011872 -0.516511 -0.000005 -0.000006 0.000048
 25   4.941364 1.997338 1.629330 0.000018 -0.000001 -0.000024
 26   4.941382 1.997366 -1.629410 -0.000001 0.000005 -0.000024
 27   2.930087 1.603639 1.514501 -0.000019 -0.000022 -0.000050
 28   2.932517 1.603245 -1.501142 -0.000002 -0.000009 -0.000024
 29   8.824059 0.150544 0.091743 0.000986 -0.000492 -0.171530
 30   2.111085 -0.561179 1.784320 -0.000022 0.001236 0.000153
 31   2.121290 -0.561289 -1.853599 0.000000 -0.002564 0.000125
 32   -0.814395 -0.093824 3.127092 -0.128184 -2.974187 -0.331572
 33   14.298673 -0.408176 0.471578 -0.000076 -0.000041 -0.450852
 34   15.835795 0.581398 0.242756 0.162047 -0.014178 0.029588
 35   -0.815868 -0.091229 -3.114430 0.095245 3.001748 -0.038679
 36   14.294526 -0.410349 -0.467541 0.000069 0.000048 -0.414890
 37   15.834409 0.579420 -0.284600 -0.088684 0.040226 0.286099
 38   1.139685 -3.453749 -2.823813 0.000084 -0.000072 0.000184
 39   -4.457742 -1.054854 -0.746180 0.000132 0.000288 -0.001178
 40   1.118101 -3.449769 3.237290 -0.000042 -0.000083 0.000367
 41   -4.433840 -1.059130 0.959566 0.000011 0.000024 -0.000112
 42   -0.657468 1.697302 -2.688614 0.000863 0.001351 -0.000125
 43   -0.664068 1.698578 2.869377 -0.001012 -0.001520 0.000251
time 30
  0   0.001233 0.187506 0.867585 0.000000 0.000000 -1.571354
  1   -1.093036 0.000002 -0.326057 -1.570808 -1.570425 -0.000074
  2   2.262337 0.113614 0.064702 -0.241441 -0.007502 -0.059755
  3   2.380047 0.353302 0.047440 0.020476 0.013527 0.086315
  4   2.033756 0.190472 -0.000128 -0.225415 -0.026114 0.329061
  5   2.451511 0.204909 -0.003447 -0.218548 -0.008922 0.458445
  6   7.247600 -0.397300 -0.109469 0.000001 0.000009 0.087015
  7   -2.022252 -0.104661 3.136172 1.219607 -1.038017 -4.397555
  8   1.168026 -0.537438 -0.063437 -0.445830 -0.061317 -0.126331
  9   6.790376 -0.619176 0.015206 0.005390 0.003052 -1.616741
 10   8.637599 0.544015 -0.090417 -2.304133 -0.089034 -0.069354
 11   6.790465 -0.619039 0.017802 0.007512 -0.010486 -1.146951
 12   -2.022474 -0.104699 -2.873818 -1.356481 0.807704 -4.507658
 13   1.167898 -0.537463 0.063297 1.152438 -0.300139 -0.994072
 14   7.002743 -0.617765 -0.183752 0.000229 0.000250 -1.534354
 15   8.209042 0.615527 -0.255885 2.158112 -0.134813 0.133438
 16   7.002735 -0.617911 -0.183641 0.013637 0.008495 -1.092697
 17   1.574674 0.609930 -0.000899 0.576093 -0.236755 -0.159717
 18   -0.602177 0.511412 -0.000006 0.000000 0.000000 0.000000
 19   3.646428 0.364526 1.119313 -0.000002 -0.000014 -0.174510
 20   3.646422 0.364499 -1.117566 0.000007 -0.000003 -0.174546
 21   3.805634 1.330634 1.627658 0.000002 -0.000011 -0.000026
 22   -0.246060 -0.011889 0.516521 -0.000011 0.000031 0.000025
 23   3.805651 1.330659 -1.631083 0.000019 0.000002 -0.000024
 24   -0.246150 -0.011872 -0.516511 -0.000005 -0.000006 0.000048
 25   4.941364 1.997338 1.629330 0.000018 -0.000001 -0.000024
 26   4.941382 1.997366 -1.629410 -0.000001 0.000005 -0.000024
 27   2.930087 1.603639 1.514501 -0.000019 -0.000022 -0.000050
 28   2.932517 1.603245 -1.501142 -0.000002 -0.000009 -0.000024
 29   8.824059 0.150544 0.091743 0.000006 -0.000231 -0.174534
 30   2.111085 -0.561179 1.784320 -0.000008 -0.000682 0.000024
 31   2.121290 -0.561289 -1.853599 0.000000 0.000000 -0.000002
 32   -0.814395 -0.093824 3.127092 -0.129583 -2.975428 -0.324172
 33   14.298673 -0.408176 0.471578 -0.000076 -0.000041 -0.436322
 34   15.835795 0.581398 0.242756 0.162139 -0.013958 0.022620
 35   -0.815868 -0.091229 -3.114430 0.096037 3.002497 -0.031284
 36   14.294526 -0.410349 -0.467541 0.000069 0.000048 -0.399441
 37   15.834409 0.579420 -0.284600 -0.088763 0.039970 0.278088
 38   1.139685 -3.453749 -2.823813 0.000000 0.000000 0.000001
 39   -4.457742 -1.054854 -0.746180 0.000000 0.000000 0.000000
 40   1.118101 -3.449769 3.237290 0.000000 0.000001 0.000000
 41   -4.433840 -1.059130 0.959566 -0.000001 0.000000 0.000000
 42   -0.657468 1.697302 -2.688614 0.000000 0.000002 0.000000
 43   -0.664068 1.698578 2.869377 0.000000 0.000002 0.000000
end
