version 1
nodes
  0 "Bip01" -1
  1 "Bip01 Pelvis" 0
  2 "Bip01 Spine" 1
  3 "Bip01 Spine1" 2
  4 "Bip01 Spine2" 3
  5 "Bip01 Spine3" 4
  6 "Bip01 Neck" 5
  7 "Bip01 L Arm" 6
  8 "Bip01 L Arm1" 7
  9 "Bip01 L Arm2" 8
 10 "Bip01 L Hand" 9
 11 "Bip06 L elbow2-smooth" 8
 12 "Bip01 R Arm" 6
 13 "Bip01 R Arm1" 12
 14 "Bip01 R Arm2" 13
 15 "Bip01 R Hand" 14
 16 "Bip06 R elbow2-smooth" 13
 17 "Bip01 Head" 6
 18 "Bip06 Head_helper" 17
 19 "Bip06 Head_eyes_l" 18
 20 "Bip06 Head_eyes_r" 18
 21 "Bip06 Head_blink_l" 18
 22 "Bip06 Head_blink_smooth_l1" 21
 23 "Bip06 Head_blink_r" 18
 24 "Bip06 Head_blink_smooth_r1" 23
 25 "Bip06 Head_L_eyebrow" 18
 26 "Bip06 Head_R_eyebrow" 18
 27 "Bip06 Head_blink_l_lid" 18
 28 "Bip06 Head_blink_r_lid" 18
 29 "Bip06 bunny" 18
 30 "Bip06 bunnyL" 29
 31 "Bip06 bunnyR" 29
 32 "Bip01 L Leg" 1
 33 "Bip01 L Leg1" 32
 34 "Bip01 L Foot" 33
 35 "Bip01 R Leg" 1
 36 "Bip01 R Leg1" 35
 37 "Bip01 R Foot" 36
 38 "Bip03 HairR1" 17
 39 "Bip03 HairR2" 38
 40 "Bip03 HairL1" 17
 41 "Bip03 HairL2" 40
 42 "Bip03 swingR" 17
 43 "Bip03 swingL" 17
end
skeleton
time 0
  0   -0.393310 -0.082034 0.797270 0.000000 0.000000 -1.571069
  1   -1.093036 0.000002 -0.326057 -0.214066 -1.569082 -1.356583
  2   2.262337 0.113614 0.064702 -0.114040 0.012333 0.114033
  3   2.380047 0.353302 0.047440 0.116873 0.020933 0.105721
  4   2.033756 0.190472 -0.000128 0.079643 0.003655 -0.091730
  5   2.451511 0.204909 -0.003447 0.059618 0.003781 0.031242
  6   7.247600 -0.397300 -0.109469 -0.096930 -0.020413 0.156544
  7   -2.022252 -0.104661 3.136172 -0.456373 -1.260477 -2.755051
  8   1.168026 -0.537438 -0.063437 0.881858 0.867787 0.405120
  9   6.790376 -0.619176 0.015206 0.030966 0.051439 -1.304155
 10   8.637599 0.544015 -0.090417 -1.334539 -0.026949 -0.150452
 11   6.790465 -0.619039 0.017802 0.030811 0.020867 -0.928306
 12   -2.022474 -0.104699 -2.873818 -0.357597 1.210817 -3.553023
 13   1.167898 -0.537463 0.063297 0.000352 -0.877186 0.129938
 14   7.002743 -0.617765 -0.183752 0.072818 -0.053127 -1.181396
 15   8.209042 0.615527 -0.255885 1.606761 0.201418 -0.025325
 16   7.002735 -0.617911 -0.183641 0.059113 -0.039942 -0.845323
 17   1.574674 0.609930 -0.000899 -0.012755 0.013829 0.166502
 18   -0.602177 0.511412 -0.000006 0.000000 0.000000 0.000000
 19   3.677679 0.177020 1.119313 -0.000002 -0.000014 -0.174510
 20   3.673767 0.176993 -1.117566 0.000007 -0.000003 -0.174546
 21   3.938451 1.334540 1.627658 0.000002 -0.000011 -0.000026
 22   -0.246060 -0.011889 0.516521 -0.000011 0.000031 0.000025
 23   3.942374 1.334565 -1.631083 0.000019 0.000002 -0.000024
 24   -0.246150 -0.011872 -0.516511 -0.000005 -0.000006 0.000048
 25   4.941364 1.997338 1.629330 0.000018 -0.000001 -0.000024
 26   4.941382 1.997366 -1.629410 -0.000001 0.000005 -0.000024
 27   2.914462 1.623171 1.514501 -0.000019 -0.000022 -0.000050
 28   2.916892 1.618870 -1.501142 -0.000002 -0.000009 -0.000024
 29   8.824059 0.150544 0.091743 0.000006 -0.000231 -0.174534
 30   2.111085 -0.561179 1.784320 -0.000008 -0.000682 0.000024
 31   2.121290 -0.561289 -1.853599 0.000000 0.000000 -0.000002
 32   -0.814395 -0.093824 3.127092 -0.008784 -3.102262 -0.936654
 33   14.298673 -0.408176 0.471578 0.085410 0.052266 -1.972278
 34   15.835795 0.581398 0.242756 0.132167 0.070308 -0.281335
 35   -0.815868 -0.091229 -3.114430 -0.014158 3.159520 0.053073
 36   14.294526 -0.410349 -0.467541 -0.024212 0.018540 -0.570382
 37   15.834409 0.579420 -0.284600 0.038810 -0.116469 0.423705
 38   1.139685 -3.453749 -2.823813 0.000000 0.000000 0.000001
 39   -4.457742 -1.054854 -0.746180 0.000000 0.000000 0.000000
 40   1.118101 -3.449769 3.237290 0.000000 0.000001 0.000000
 41   -4.433840 -1.059130 0.959566 -0.000001 0.000000 0.000000
 42   -0.657468 1.697302 -2.688614 0.000000 0.000002 0.000000
 43   -0.664068 1.698578 2.869377 0.000000 0.000002 0.000000
time 1
  0   -0.260494 -8.208603 1.398851 0.000000 0.000000 -1.571069
  1   -1.093036 0.000002 -0.326057 -0.214119 -1.569082 -1.356583
  2   2.262337 0.113614 0.064702 -0.136216 0.012297 0.095402
  3   2.380047 0.353302 0.047440 0.135804 0.017230 0.112679
  4   2.033756 0.190472 -0.000128 0.114279 0.005261 -0.079768
  5   2.451511 0.204909 -0.003447 0.085550 0.005465 0.031440
  6   7.247600 -0.397300 -0.109469 -0.112978 -0.018699 0.156354
  7   -2.022252 -0.104661 3.136172 -0.509287 -1.226288 -2.701425
  8   1.168026 -0.537438 -0.063437 0.843953 0.791712 0.471986
  9   6.790376 -0.619176 0.015206 0.027249 0.047635 -1.263780
 10   8.637599 0.544015 -0.090417 -1.334979 -0.034622 -0.137864
 11   6.790465 -0.619039 0.017802 0.027132 0.018707 -0.899988
 12   -2.022474 -0.104699 -2.873818 -0.414123 1.180545 -3.608457
 13   1.167898 -0.537463 0.063297 0.008085 -0.838333 0.064258
 14   7.002743 -0.617765 -0.183752 0.070086 -0.059033 -1.273637
 15   8.209042 0.615527 -0.255885 1.605179 0.204899 -0.030617
 16   7.002735 -0.617911 -0.183641 0.055865 -0.044171 -0.909733
 17   1.574674 0.609930 -0.000899 -0.050411 0.025568 0.166465
 18   -0.602177 0.511412 -0.000006 0.000000 0.000000 0.000000
 19   3.677679 0.177020 1.119313 -0.000002 -0.000014 -0.174510
 20   3.677673 0.176993 -1.117566 0.000007 -0.000003 -0.174546
 21   3.938451 1.334540 1.627658 0.000002 -0.000011 -0.000026
 22   -0.246060 -0.011889 0.516521 -0.000011 0.000031 0.000025
 23   3.942374 1.334565 -1.631083 0.000019 0.000002 -0.000024
 24   -0.246150 -0.011872 -0.516511 -0.000005 -0.000006 0.000048
 25   4.941364 1.997338 1.629330 0.000018 -0.000001 -0.000024
 26   4.941382 1.997366 -1.629410 -0.000001 0.000005 -0.000024
 27   2.914462 1.619264 1.514501 -0.000019 -0.000022 -0.000050
 28   2.920798 1.618870 -1.501142 -0.000002 -0.000009 -0.000024
 29   8.824059 0.150544 0.091743 0.000897 0.003258 -0.174534
 30   2.111085 -0.561179 1.780414 0.004399 0.015650 0.000453
 31   2.109571 -0.561289 -1.857505 0.002436 0.009117 0.000125
 32   -0.814395 -0.093824 3.127092 -0.005055 -3.096054 -1.004106
 33   14.298673 -0.408176 0.471578 0.081156 0.028536 -1.642220
 34   15.835795 0.581398 0.242756 0.121839 0.089855 -0.025629
 35   -0.815868 -0.091229 -3.114430 -0.063534 3.159613 0.378069
 36   14.294526 -0.410349 -0.467541 -0.002053 0.019127 -0.274383
 37   15.834409 0.579420 -0.284600 0.070924 -0.057139 0.134298
 38   1.147498 -3.457655 -2.823813 -0.003199 -0.006435 0.003544
 39   -4.457742 -1.054854 -0.746180 -0.001654 -0.003164 0.000000
 40   1.110288 -3.445863 3.237290 -0.003157 -0.006555 0.004826
 41   -4.433840 -1.059130 0.959566 -0.001523 -0.002217 -0.003730
 42   -0.653562 1.697302 -2.657363 0.005657 0.012099 0.000418
 43   -0.664068 1.698578 2.881096 0.004560 0.009778 0.000209
time 2
  0   -0.022206 -16.331264 2.266065 0.000000 0.000000 -1.571069
  1   -1.093036 0.000002 -0.326057 -0.214066 -1.569082 -1.356583
  2   2.262337 0.113614 0.064702 -0.141986 0.012525 0.092366
  3   2.380047 0.353302 0.047440 0.141204 0.011933 0.109047
  4   2.033756 0.190472 -0.000128 0.133533 0.006160 -0.085206
  5   2.451511 0.204909 -0.003447 0.100031 0.006392 0.031539
  6   7.247600 -0.397300 -0.109469 -0.117939 -0.013881 0.156354
  7   -2.022252 -0.104661 3.136172 -0.556832 -1.224270 -2.653152
  8   1.168026 -0.537438 -0.063437 0.790987 0.762278 0.520127
  9   6.790376 -0.619176 0.015206 0.015931 0.039359 -1.195708
 10   8.637599 0.544015 -0.090417 -1.343081 -0.047996 -0.045408
 11   6.790465 -0.619039 0.017802 0.017409 0.014472 -0.852175
 12   -2.022474 -0.104699 -2.873818 -0.463368 1.189107 -3.659583
 13   1.167898 -0.537463 0.063297 -0.033882 -0.846368 0.032719
 14   7.002743 -0.617765 -0.183752 0.061318 -0.067607 -1.365383
 15   8.209042 0.615527 -0.255885 1.601296 0.206714 -0.040179
 16   7.002735 -0.617911 -0.183641 0.047862 -0.049302 -0.973812
 17   1.574674 0.609930 -0.000899 -0.081933 0.027840 0.165651
 18   -0.602177 0.511412 -0.000006 0.000000 0.000000 0.000000
 19   3.673773 0.177020 1.119313 -0.000002 -0.000014 -0.174510
 20   3.673767 0.176993 -1.117566 0.000007 -0.000003 -0.174546
 21   3.938451 1.334540 1.627658 0.000002 -0.000011 -0.000026
 22   -0.246060 -0.011889 0.516521 -0.000011 0.000031 0.000025
 23   3.938468 1.334565 -1.631083 0.000019 0.000002 -0.000024
 24   -0.246150 -0.011872 -0.516511 -0.000005 -0.000006 0.000048
 25   4.941364 1.997338 1.629330 0.000018 -0.000001 -0.000024
 26   4.941382 1.997366 -1.629410 -0.000001 0.000005 -0.000024
 27   2.914462 1.619264 1.514501 -0.000019 -0.000022 -0.000050
 28   2.916892 1.618870 -1.501142 -0.000002 -0.000009 -0.000024
 29   8.824059 0.150544 0.091743 0.003214 0.012018 -0.174534
 30   2.122804 -0.561179 1.764788 0.015437 0.056539 0.001589
 31   2.078320 -0.553476 -1.877037 0.008519 0.031936 0.000453
 32   -0.814395 -0.093824 3.127092 -0.001327 -3.100352 -0.865843
 33   14.298673 -0.408176 0.471578 0.057990 -0.003983 -1.090801
 34   15.835795 0.581398 0.242756 0.119585 0.026796 0.160970
 35   -0.815868 -0.091229 -3.114430 -0.071191 3.160738 0.448240
 36   14.294526 -0.410349 -0.467541 -0.015356 0.019774 -0.457683
 37   15.834409 0.579420 -0.284600 0.080914 0.004904 -0.033576
 38   1.174842 -3.465468 -2.823813 -0.011240 -0.022547 0.012525
 39   -4.457742 -1.054854 -0.746180 -0.005801 -0.011110 0.000000
 40   1.086850 -3.438050 3.237290 -0.011093 -0.022967 0.017045
 41   -4.433840 -1.059130 0.959566 -0.005346 -0.007778 -0.013098
 42   -0.637936 1.689489 -2.579236 0.019823 0.042335 0.001506
 43   -0.664068 1.698578 2.908441 0.015967 0.034225 0.000795
time 3
  0   0.235614 -24.457834 2.684047 0.000000 0.000000 -1.571069
  1   -1.093036 0.000002 -0.326057 -0.214066 -1.569082 -1.356583
  2   2.262337 0.113614 0.064702 -0.127287 0.012537 0.100353
  3   2.380047 0.353302 0.047440 0.135234 0.005245 0.098681
  4   2.033756 0.190472 -0.000128 0.139397 0.006460 -0.101372
  5   2.451511 0.204909 -0.003447 0.104413 0.006640 0.031539
  6   7.247600 -0.397300 -0.109469 -0.116417 -0.006499 0.156354
  7   -2.022252 -0.104661 3.136172 -0.615114 -1.246323 -2.594454
  8   1.168026 -0.537438 -0.063437 0.757828 0.770278 0.549290
  9   6.790376 -0.619176 0.015206 0.004225 0.030015 -1.108090
 10   8.637599 0.544015 -0.090417 -1.352944 -0.085655 0.030626
 11   6.790465 -0.619039 0.017802 0.007337 0.009327 -0.790809
 12   -2.022474 -0.104699 -2.873818 -0.525355 1.227041 -3.724783
 13   1.167898 -0.537463 0.063297 -0.082457 -0.897375 0.026121
 14   7.002743 -0.617765 -0.183752 0.051981 -0.076182 -1.449291
 15   8.209042 0.615527 -0.255885 1.568868 0.193852 -0.154319
 16   7.002735 -0.617911 -0.183641 0.039294 -0.054321 -1.032537
 17   1.574674 0.609930 -0.000899 -0.102447 0.029876 0.164949
 18   -0.602177 0.511412 -0.000006 0.000000 0.000000 0.000000
 19   3.677679 0.177020 1.119313 -0.000002 -0.000014 -0.174510
 20   3.673767 0.176993 -1.117566 0.000007 -0.000003 -0.174546
 21   3.938451 1.334540 1.627658 0.000002 -0.000011 -0.000026
 22   -0.246060 -0.011889 0.516521 -0.000011 0.000031 0.000025
 23   3.942374 1.334565 -1.631083 0.000019 0.000002 -0.000024
 24   -0.246150 -0.011872 -0.516511 -0.000005 -0.000006 0.000048
 25   4.941364 1.997338 1.629330 0.000018 -0.000001 -0.000024
 26   4.941382 1.997366 -1.629410 -0.000001 0.000005 -0.000024
 27   2.914462 1.623171 1.514501 -0.000019 -0.000022 -0.000050
 28   2.916892 1.618870 -1.501142 -0.000002 -0.000009 -0.000024
 29   8.824059 0.150544 0.091743 0.006245 0.023412 -0.174480
 30   2.134523 -0.565085 1.741350 0.029797 0.109692 0.003047
 31   2.039256 -0.541757 -1.900475 0.016440 0.061594 0.000871
 32   -0.814395 -0.093824 3.127092 -0.011393 -3.117352 -0.752738
 33   14.298673 -0.408176 0.471578 0.031408 -0.017541 -0.680233
 34   15.835795 0.581398 0.242756 0.058950 -0.020010 0.141212
 35   -0.815868 -0.091229 -3.114430 -0.068726 3.162237 0.419591
 36   14.294526 -0.410349 -0.467541 -0.034099 0.016491 -0.719000
 37   15.834409 0.579420 -0.284600 0.063103 0.084992 -0.264473
 38   1.206093 -3.481093 -2.823813 -0.021702 -0.043478 0.024256
 39   -4.457742 -1.054854 -0.746180 -0.011194 -0.021428 0.000056
 40   1.055599 -3.426331 3.237290 -0.021386 -0.044297 0.032869
 41   -4.433840 -1.059130 0.959566 -0.010320 -0.014993 -0.025242
 42   -0.618404 1.681677 -2.477670 0.038231 0.081662 0.002928
 43   -0.664068 1.698578 2.947504 0.030810 0.066016 0.001631
time 4
  0   0.442651 -32.588310 2.574668 0.000000 0.000000 -1.571069
  1   -1.093036 0.000002 -0.326057 -0.214066 -1.569082 -1.356679
  2   2.262337 0.113614 0.064702 -0.098220 0.011842 0.118207
  3   2.380047 0.353302 0.047440 0.116783 -0.001778 0.085356
  4   2.033756 0.190472 -0.000128 0.134104 0.006196 -0.122576
  5   2.451511 0.204909 -0.003447 0.100442 0.006418 0.031539
  6   7.247600 -0.397300 -0.109469 -0.108915 0.002442 0.156354
  7   -2.022252 -0.104661 3.136172 -0.664193 -1.278148 -2.545148
  8   1.168026 -0.537438 -0.063437 0.752006 0.806001 0.570419
  9   6.790376 -0.619176 0.015206 -0.000324 0.023875 -1.032623
 10   8.637599 0.544015 -0.090417 -1.361398 -0.162029 0.048929
 11   6.790465 -0.619039 0.017802 0.002899 0.005518 -0.738094
 12   -2.022474 -0.104699 -2.873818 -0.589833 1.276759 -3.792663
 13   1.167898 -0.537463 0.063297 -0.150434 -0.954993 0.060565
 14   7.002743 -0.617765 -0.183752 0.048736 -0.081576 -1.515213
 15   8.209042 0.615527 -0.255885 1.559592 0.138621 -0.225101
 16   7.002735 -0.617911 -0.183641 0.035528 -0.057761 -1.078568
 17   1.574674 0.609930 -0.000899 -0.110653 0.032952 0.164247
 18   -0.602177 0.511412 -0.000006 0.000000 0.000000 0.000000
 19   3.673773 0.177020 1.119313 -0.000002 -0.000014 -0.174510
 20   3.673767 0.176993 -1.117566 0.000007 -0.000003 -0.174546
 21   3.938451 1.334540 1.627658 0.000002 -0.000011 -0.000026
 22   -0.246060 -0.011889 0.516521 -0.000011 0.000031 0.000025
 23   3.938468 1.334565 -1.631083 0.000019 0.000002 -0.000024
 24   -0.246150 -0.011872 -0.516511 -0.000005 -0.000006 0.000048
 25   4.941364 1.997338 1.629330 0.000018 -0.000001 -0.000024
 26   4.941382 1.997366 -1.629410 -0.000001 0.000005 -0.000024
 27   2.914462 1.619264 1.514501 -0.000019 -0.000022 -0.000050
 28   2.916892 1.618870 -1.501142 -0.000002 -0.000009 -0.000024
 29   8.824059 0.150544 0.091743 0.009275 0.034806 -0.174427
 30   2.146242 -0.568992 1.721818 0.044144 0.162816 0.004506
 31   1.996286 -0.530038 -1.927820 0.024362 0.091251 0.001290
 32   -0.814395 -0.093824 3.127092 -0.016800 -3.142566 -0.591136
 33   14.298673 -0.408176 0.471578 0.005389 -0.019777 -0.322306
 34   15.835795 0.581398 0.242756 0.006297 -0.017521 0.074528
 35   -0.815868 -0.091229 -3.114430 -0.058869 3.155397 0.345970
 36   14.294526 -0.410349 -0.467541 -0.052388 0.007838 -0.996692
 37   15.834409 0.579420 -0.284600 0.026299 0.139382 -0.416934
 38   1.241251 -3.492813 -2.823813 -0.032142 -0.064422 0.035986
 39   -4.457742 -1.054854 -0.746180 -0.016575 -0.031747 0.000196
 40   1.024348 -3.410705 3.237290 -0.031679 -0.065639 0.048692
 41   -4.433840 -1.059130 0.959566 -0.015281 -0.022219 -0.037414
 42   -0.594966 1.669957 -2.376104 0.056651 0.120974 0.004350
 43   -0.664068 1.698578 2.986568 0.045641 0.097807 0.002468
time 5
  0   0.591093 -40.714882 1.949649 0.000000 0.000000 -1.571069
  1   -1.093036 0.000002 -0.326057 -0.214066 -1.569082 -1.356679
  2   2.262337 0.113614 0.064702 -0.059549 0.008426 0.136513
  3   2.380047 0.353302 0.047440 0.083346 -0.007902 0.075235
  4   2.033756 0.190472 -0.000128 0.116363 0.005369 -0.139032
  5   2.451511 0.204909 -0.003447 0.087142 0.005570 0.031440
  6   7.247600 -0.397300 -0.109469 -0.094761 0.011071 0.156544
  7   -2.022252 -0.104661 3.136172 -0.637928 -1.302911 -2.571820
  8   1.168026 -0.537438 -0.063437 0.723783 0.857372 0.568395
  9   6.790376 -0.619176 0.015206 -0.000491 0.020605 -0.983191
 10   8.637599 0.544015 -0.090417 -1.368532 -0.215455 0.059419
 11   6.790465 -0.619039 0.017802 0.002140 0.003187 -0.703431
 12   -2.022474 -0.104699 -2.873818 -0.594911 1.316580 -3.799748
 13   1.167898 -0.537463 0.063297 -0.266071 -0.982251 0.139200
 14   7.002743 -0.617765 -0.183752 0.049134 -0.083905 -1.554733
 15   8.209042 0.615527 -0.255885 1.576633 0.048964 -0.236707
 16   7.002735 -0.617911 -0.183641 0.035010 -0.059565 -1.106274
 17   1.574674 0.609930 -0.000899 -0.105169 0.035792 0.163914
 18   -0.602177 0.511412 -0.000006 0.000000 0.000000 0.000000
 19   3.677679 0.180927 1.119313 -0.000002 -0.000014 -0.174510
 20   3.677673 0.180900 -1.117566 0.000007 -0.000003 -0.174546
 21   3.942357 1.338447 1.627658 0.000002 -0.000011 -0.000026
 22   -0.246060 -0.011889 0.516521 -0.000011 0.000031 0.000025
 23   3.942374 1.334565 -1.631083 0.000019 0.000002 -0.000024
 24   -0.246150 -0.011872 -0.516511 -0.000005 -0.000006 0.000048
 25   4.941364 1.997338 1.629330 0.000018 -0.000001 -0.000024
 26   4.941382 1.997366 -1.629410 -0.000001 0.000005 -0.000024
 27   2.914462 1.623171 1.514501 -0.000019 -0.000022 -0.000050
 28   2.920798 1.622777 -1.501142 -0.000002 -0.000009 -0.000024
 29   8.824059 0.150544 0.091743 0.011592 0.043566 -0.174373
 30   2.154055 -0.572898 1.706193 0.055196 0.203704 0.005642
 31   1.965035 -0.522225 -1.943445 0.030460 0.114070 0.001617
 32   -0.814395 -0.093824 3.127092 -0.025934 -3.158039 -0.583224
 33   14.298673 -0.408176 0.471578 0.011010 -0.020087 -0.399084
 34   15.835795 0.581398 0.242756 -0.004514 0.045001 0.159867
 35   -0.815868 -0.091229 -3.114430 -0.049275 3.154554 0.241016
 36   14.294526 -0.410349 -0.467541 -0.069742 -0.008234 -1.320808
 37   15.834409 0.579420 -0.284600 -0.007156 0.113633 -0.418303
 38   1.268595 -3.504532 -2.823813 -0.040183 -0.080534 0.045028
 39   -4.457742 -1.054854 -0.746180 -0.020721 -0.039681 0.000365
 40   1.000910 -3.402893 3.237290 -0.039614 -0.082052 0.060911
 41   -4.433840 -1.059130 0.959566 -0.019104 -0.027780 -0.046782
 42   -0.579341 1.662145 -2.297977 0.070805 0.151225 0.005437
 43   -0.664068 1.698578 3.017819 0.057048 0.122254 0.003220
time 6
  0   0.716096 -48.841450 1.168375 0.000000 0.000000 -1.571069
  1   -1.093036 0.000002 -0.326057 -0.214066 -1.569082 -1.356776
  2   2.262337 0.113614 0.064702 -0.015388 0.002230 0.150825
  3   2.380047 0.353302 0.047440 0.034562 -0.013762 0.071868
  4   2.033756 0.190472 -0.000128 0.083645 0.003847 -0.144759
  5   2.451511 0.204909 -0.003447 0.062665 0.003990 0.031242
  6   7.247600 -0.397300 -0.109469 -0.070408 0.018274 0.156734
  7   -2.022252 -0.104661 3.136172 -0.497113 -1.319717 -2.712601
  8   1.168026 -0.537438 -0.063437 0.627280 0.921925 0.516964
  9   6.790376 -0.619176 0.015206 -0.001989 0.018736 -0.960325
 10   8.637599 0.544015 -0.090417 -1.371614 -0.232771 0.064627
 11   6.790465 -0.619039 0.017802 0.000768 0.002050 -0.687340
 12   -2.022474 -0.104699 -2.873818 -0.481859 1.345923 -3.687731
 13   1.167898 -0.537463 0.063297 -0.423956 -0.984184 0.234845
 14   7.002743 -0.617765 -0.183752 0.046743 -0.084700 -1.552258
 15   8.209042 0.615527 -0.255885 1.587707 -0.001728 -0.240556
 16   7.002735 -0.617911 -0.183641 0.033127 -0.059791 -1.104563
 17   1.574674 0.609930 -0.000899 -0.085386 0.032455 0.164432
 18   -0.602177 0.511412 -0.000006 0.000000 0.000000 0.000000
 19   3.673773 0.177020 1.119313 -0.000002 -0.000014 -0.174510
 20   3.673767 0.176993 -1.117566 0.000007 -0.000003 -0.174546
 21   3.938451 1.334540 1.627658 0.000002 -0.000011 -0.000026
 22   -0.246060 -0.011889 0.516521 -0.000011 0.000031 0.000025
 23   3.938468 1.334565 -1.631083 0.000019 0.000002 -0.000024
 24   -0.246150 -0.011872 -0.516511 -0.000005 -0.000006 0.000048
 25   4.941364 1.997338 1.629330 0.000018 -0.000001 -0.000024
 26   4.941382 1.997366 -1.629410 -0.000001 0.000005 -0.000024
 27   2.914462 1.623171 1.514501 -0.000019 -0.000022 -0.000050
 28   2.916892 1.622777 -1.501142 -0.000002 -0.000009 -0.000024
 29   8.824059 0.150544 0.091743 0.012572 0.047055 -0.174373
 30   2.157961 -0.572898 1.698380 0.059603 0.220066 0.006092
 31   1.953316 -0.518319 -1.951258 0.032896 0.123213 0.001745
 32   -0.814395 -0.093824 3.127092 -0.035069 -3.162336 -0.630185
 33   14.298673 -0.408176 0.471578 0.034512 -0.016611 -0.725093
 34   15.835795 0.581398 0.242756 -0.005780 0.106303 0.250366
 35   -0.815868 -0.091229 -3.114430 -0.028504 3.147621 0.017030
 36   14.294526 -0.410349 -0.467541 -0.081978 -0.035139 -1.699999
 37   15.834409 0.579420 -0.284600 -0.028119 0.051539 -0.344075
 38   1.276408 -3.508438 -2.819907 -0.043403 -0.086969 0.048815
 39   -4.457742 -1.054854 -0.746180 -0.022387 -0.042857 0.000645
 40   0.989191 -3.398986 3.237290 -0.042772 -0.088607 0.065738
 41   -4.433840 -1.059130 0.959566 -0.020638 -0.029997 -0.050512
 42   -0.575434 1.662145 -2.266726 0.076474 0.163322 0.005855
 43   -0.664068 1.698578 3.029538 0.061621 0.132030 0.003764
time 7
  0   0.907508 -56.968021 0.785551 0.000000 0.000000 -1.571069
  1   -1.093036 0.000002 -0.326057 -0.214014 -1.569082 -1.356825
  2   2.262337 0.113614 0.064702 0.030085 -0.005656 0.151747
  3   2.380047 0.353302 0.047440 -0.022982 -0.019012 0.078316
  4   2.033756 0.190472 -0.000128 0.035732 0.001642 -0.135045
  5   2.451511 0.204909 -0.003447 0.026788 0.001705 0.031118
  6   7.247600 -0.397300 -0.109469 -0.030548 0.023223 0.156829
  7   -2.022252 -0.104661 3.136172 -0.227560 -1.319083 -2.980732
  8   1.168026 -0.537438 -0.063437 0.441616 0.971535 0.380385
  9   6.790376 -0.619176 0.015206 -0.011642 0.017068 -0.968551
 10   8.637599 0.544015 -0.090417 -1.372495 -0.234531 0.061951
 11   6.790465 -0.619039 0.017802 -0.006327 0.001822 -0.693050
 12   -2.022474 -0.104699 -2.873818 -0.203827 1.356894 -3.410178
 13   1.167898 -0.537463 0.063297 -0.593089 -0.963384 0.326131
 14   7.002743 -0.617765 -0.183752 0.033421 -0.087993 -1.522886
 15   8.209042 0.615527 -0.255885 1.590726 -0.013152 -0.232979
 16   7.002735 -0.617911 -0.183641 0.023288 -0.059903 -1.083977
 17   1.574674 0.609930 -0.000899 -0.046430 0.020149 0.165134
 18   -0.602177 0.511412 -0.000006 0.000000 0.000000 0.000000
 19   3.673773 0.177020 1.119313 -0.000002 -0.000014 -0.174510
 20   3.673767 0.176993 -1.117566 0.000007 -0.000003 -0.174546
 21   3.942357 1.334540 1.627658 0.000002 -0.000011 -0.000026
 22   -0.246060 -0.011889 0.516521 -0.000011 0.000031 0.000025
 23   3.942374 1.334565 -1.631083 0.000019 0.000002 -0.000024
 24   -0.246150 -0.011872 -0.516511 -0.000005 -0.000006 0.000048
 25   4.941364 1.997338 1.629330 0.000018 -0.000001 -0.000024
 26   4.941382 1.997366 -1.629410 -0.000001 0.000005 -0.000024
 27   2.914462 1.619264 1.514501 -0.000019 -0.000022 -0.000050
 28   2.916892 1.618870 -1.501142 -0.000002 -0.000009 -0.000024
 29   8.824059 0.150544 0.091743 0.009899 0.037536 -0.174480
 30   2.146242 -0.568992 1.714005 0.052158 0.192952 0.005599
 31   1.965035 -0.522225 -1.931726 0.027625 0.103942 0.001545
 32   -0.814395 -0.093824 3.127092 -0.073005 -3.146769 -0.524765
 33   14.298673 -0.408176 0.471578 0.045526 -0.012074 -0.887780
 34   15.835795 0.581398 0.242756 0.023135 0.137418 0.312903
 35   -0.815868 -0.091229 -3.114430 -0.024191 3.133755 -0.349378
 36   14.294526 -0.410349 -0.467541 -0.085322 -0.055009 -2.012683
 37   15.834409 0.579420 -0.284600 -0.071169 -0.010504 -0.301131
 38   1.249063 -3.496719 -2.819907 -0.035762 -0.073834 0.048938
 39   -4.457742 -1.054854 -0.746180 -0.019954 -0.040712 0.007685
 40   1.020442 -3.410705 3.233384 -0.035636 -0.074231 0.057612
 41   -4.433840 -1.059130 0.959566 -0.018038 -0.023993 -0.050512
 42   -0.579341 1.662145 -2.309696 0.066203 0.141565 0.005646
 43   -0.664068 1.698578 2.986568 0.050451 0.108508 0.004015
time 8
  0   1.055950 -65.090675 0.723049 0.000000 0.000000 -1.571069
  1   -1.093036 0.000002 -0.326057 -0.213961 -1.569082 -1.356873
  2   2.262337 0.113614 0.064702 0.073418 -0.012032 0.136242
  3   2.380047 0.353302 0.047440 -0.076115 -0.020941 0.092355
  4   2.033756 0.190472 -0.000128 -0.021016 -0.000947 -0.112717
  5   2.451511 0.204909 -0.003447 -0.015748 -0.000997 0.031118
  6   7.247600 -0.397300 -0.109469 0.016755 0.025117 0.156829
  7   -2.022252 -0.104661 3.136172 0.060589 -1.285095 -3.266050
  8   1.168026 -0.537438 -0.063437 0.235954 0.970730 0.198385
  9   6.790376 -0.619176 0.015206 -0.024347 0.016534 -1.013379
 10   8.637599 0.544015 -0.090417 -1.372142 -0.231152 0.055584
 11   6.790465 -0.619039 0.017802 -0.014911 0.002846 -0.724483
 12   -2.022474 -0.104699 -2.873818 0.121726 1.328596 -3.085041
 13   1.167898 -0.537463 0.063297 -0.724824 -0.901850 0.404645
 14   7.002743 -0.617765 -0.183752 0.016455 -0.091854 -1.487161
 15   8.209042 0.615527 -0.255885 1.591517 -0.011942 -0.220530
 16   7.002735 -0.617911 -0.183641 0.011001 -0.060072 -1.059140
 17   1.574674 0.609930 -0.000899 0.006296 0.001333 0.166280
 18   -0.602177 0.511412 -0.000006 0.000000 0.000000 0.000000
 19   3.673773 0.177020 1.119313 -0.000002 -0.000014 -0.174510
 20   3.673767 0.180900 -1.117566 0.000007 -0.000003 -0.174546
 21   3.938451 1.334540 1.627658 0.000002 -0.000011 -0.000026
 22   -0.246060 -0.011889 0.516521 -0.000011 0.000031 0.000025
 23   3.938468 1.338472 -1.631083 0.000019 0.000002 -0.000024
 24   -0.246150 -0.011872 -0.516511 -0.000005 -0.000006 0.000048
 25   4.941364 1.997338 1.629330 0.000018 -0.000001 -0.000024
 26   4.941382 1.997366 -1.629410 -0.000001 0.000005 -0.000024
 27   2.914462 1.623171 1.514501 -0.000019 -0.000022 -0.000050
 28   2.916892 1.618870 -1.501142 -0.000002 -0.000009 -0.000024
 29   8.824059 0.150544 0.091743 0.003393 0.013703 -0.174641
 30   2.114991 -0.561179 1.753069 0.033553 0.125152 0.004334
 31   1.996286 -0.530038 -1.877037 0.014449 0.055766 0.001053
 32   -0.814395 -0.093824 3.127092 -0.012698 -3.176185 -0.257687
 33   14.298673 -0.408176 0.471578 0.038670 -0.015163 -0.785753
 34   15.835795 0.581398 0.242756 -0.018799 0.152182 0.475157
 35   -0.815868 -0.091229 -3.114430 -0.047691 3.134880 -0.706693
 36   14.294526 -0.410349 -0.467541 -0.084722 -0.062500 -2.114337
 37   15.834409 0.579420 -0.284600 -0.134630 -0.014497 -0.300522
 38   1.174842 -3.461562 -2.816000 -0.016650 -0.040984 0.049060
 39   -4.457742 -1.054854 -0.746180 -0.013878 -0.035175 0.024709
 40   1.090756 -3.445863 3.233384 -0.017744 -0.038272 0.037329
 41   -4.433840 -1.059130 0.959566 -0.011554 -0.008964 -0.050456
 42   -0.594966 1.669957 -2.426887 0.040496 0.087151 0.005019
 43   -0.660162 1.698578 2.869377 0.022552 0.049681 0.004224
time 9
  0   1.052043 -73.217247 0.965244 0.000000 0.000000 -1.571069
  1   -1.093036 0.000002 -0.326057 -0.213909 -1.569082 -1.356921
  2   2.262337 0.113614 0.064702 0.110140 -0.014920 0.112876
  3   2.380047 0.353302 0.047440 -0.114263 -0.018676 0.106333
  4   2.033756 0.190472 -0.000128 -0.073743 -0.003404 -0.090208
  5   2.451511 0.204909 -0.003447 -0.055219 -0.003504 0.031242
  6   7.247600 -0.397300 -0.109469 0.061578 0.023451 0.156829
  7   -2.022252 -0.104661 3.136172 0.258631 -1.233033 -3.459894
  8   1.168026 -0.537438 -0.063437 0.114899 0.932642 0.055796
  9   6.790376 -0.619176 0.015206 -0.029950 0.019003 -1.086129
 10   8.637599 0.544015 -0.090417 -1.371526 -0.231434 0.050737
 11   6.790465 -0.619039 0.017802 -0.018181 0.005404 -0.775237
 12   -2.022474 -0.104699 -2.873818 0.335184 1.273944 -2.872208
 13   1.167898 -0.537463 0.063297 -0.777336 -0.810109 0.462637
 14   7.002743 -0.617765 -0.183752 0.008541 -0.092082 -1.445331
 15   8.209042 0.615527 -0.255885 1.591014 -0.006267 -0.211390
 16   7.002735 -0.617911 -0.183641 0.005776 -0.059058 -1.029943
 17   1.574674 0.609930 -0.000899 0.059348 -0.015423 0.166612
 18   -0.602177 0.511412 -0.000006 0.000000 0.000000 0.000000
 19   3.673773 0.180927 1.119313 -0.000002 -0.000014 -0.174510
 20   3.673767 0.176993 -1.117566 0.000007 -0.000003 -0.174546
 21   3.942357 1.338447 1.627658 0.000002 -0.000011 -0.000026
 22   -0.246060 -0.011889 0.516521 -0.000011 0.000031 0.000025
 23   3.938468 1.338472 -1.631083 0.000019 0.000002 -0.000024
 24   -0.246150 -0.011872 -0.516511 -0.000005 -0.000006 0.000048
 25   4.941364 1.997338 1.629330 0.000018 -0.000001 -0.000024
 26   4.941382 1.997366 -1.629410 -0.000001 0.000005 -0.000024
 27   2.914462 1.623171 1.514501 -0.000019 -0.000022 -0.000050
 28   2.920798 1.622777 -1.501142 -0.000002 -0.000009 -0.000024
 29   8.824059 0.150544 0.091743 -0.004985 -0.017227 -0.174963
 30   2.079834 -0.557273 1.803852 0.009362 0.037010 0.002704
 31   2.039256 -0.541757 -1.810629 -0.002666 -0.006838 0.000398
 32   -0.814395 -0.093824 3.127092 0.014053 -3.177522 0.075478
 33   14.298673 -0.408176 0.471578 0.020046 -0.019596 -0.520802
 34   15.835795 0.581398 0.242756 -0.022341 0.126949 0.398594
 35   -0.815868 -0.091229 -3.114430 -0.054468 3.132537 -0.981567
 36   14.294526 -0.410349 -0.467541 -0.085310 -0.052121 -1.971821
 37   15.834409 0.579420 -0.284600 -0.118750 -0.003184 -0.322121
 38   1.081089 -3.422498 -2.816000 0.008188 0.001699 0.049121
 39   -4.457742 -1.054854 -0.746180 -0.005968 -0.027660 0.046754
 40   1.180603 -3.484926 3.229477 0.005473 0.008461 0.010997
 41   -4.433840 -1.059130 0.959566 -0.003117 0.010570 -0.050288
 42   -0.614498 1.681677 -2.575329 0.007095 0.016423 0.004140
 43   -0.652349 1.698578 2.724841 -0.013694 -0.026768 0.004350
time 10
  0   0.907507 -81.343819 1.480885 0.000000 0.000000 -1.571069
  1   -1.093036 0.000002 -0.326057 -0.213857 -1.569082 -1.356970
  2   2.262337 0.113614 0.064702 0.134736 -0.015196 0.094209
  3   2.380047 0.353302 0.047440 -0.135069 -0.014338 0.112679
  4   2.033756 0.190472 -0.000128 -0.111864 -0.005129 -0.079768
  5   2.451511 0.204909 -0.003447 -0.083787 -0.005319 0.031415
  6   7.247600 -0.397300 -0.109469 0.091575 0.019951 0.156639
  7   -2.022252 -0.104661 3.136172 0.366855 -1.199190 -3.565550
  8   1.168026 -0.537438 -0.063437 0.096168 0.907837 -0.028593
  9   6.790376 -0.619176 0.015206 -0.025567 0.025010 -1.167332
 10   8.637599 0.544015 -0.090417 -1.369941 -0.235868 0.046758
 11   6.790465 -0.619039 0.017802 -0.013947 0.009355 -0.832162
 12   -2.022474 -0.104699 -2.873818 0.443733 1.233601 -2.764691
 13   1.167898 -0.537463 0.063297 -0.758285 -0.742930 0.522990
 14   7.002743 -0.617765 -0.183752 0.013552 -0.086687 -1.392610
 15   8.209042 0.615527 -0.255885 1.590655 0.000921 -0.200986
 16   7.002735 -0.617911 -0.183641 0.010766 -0.056125 -0.993129
 17   1.574674 0.609930 -0.000899 0.094160 -0.024582 0.166391
 18   -0.602177 0.511412 -0.000006 0.000000 0.000000 0.000000
 19   3.677679 0.180927 1.119313 -0.000002 -0.000014 -0.174510
 20   3.677673 0.176993 -1.117566 0.000007 -0.000003 -0.174546
 21   3.942357 1.334540 1.627658 0.000002 -0.000011 -0.000026
 22   -0.246060 -0.011889 0.516521 -0.000011 0.000031 0.000025
 23   3.942374 1.334565 -1.631083 0.000019 0.000002 -0.000024
 24   -0.246150 -0.011872 -0.516511 -0.000005 -0.000006 0.000048
 25   4.941364 1.997338 1.629330 0.000018 -0.000001 -0.000024
 26   4.941382 1.997366 -1.629410 -0.000001 0.000005 -0.000024
 27   2.914462 1.623171 1.514501 -0.000019 -0.000022 -0.000050
 28   2.920798 1.622777 -1.501142 -0.000002 -0.000009 -0.000024
 29   8.824059 0.150544 0.091743 -0.013452 -0.048182 -0.175285
 30   2.040770 -0.545554 1.854635 -0.014816 -0.051074 0.001075
 31   2.078320 -0.557383 -1.740314 -0.019811 -0.069468 -0.000239
 32   -0.814395 -0.093824 3.127092 0.072774 -3.177045 0.404090
 33   14.298673 -0.408176 0.471578 -0.002197 -0.018678 -0.216707
 34   15.835795 0.581398 0.242756 -0.061837 0.065524 0.105753
 35   -0.815868 -0.091229 -3.114430 -0.054028 3.106304 -0.985676
 36   14.294526 -0.410349 -0.467541 -0.078598 -0.022591 -1.555244
 37   15.834409 0.579420 -0.284600 -0.103993 -0.029496 -0.092695
 38   0.983430 -3.375622 -2.812094 0.033026 0.044394 0.049182
 39   -4.457742 -1.054854 -0.746180 0.001918 -0.019559 0.068714
 40   1.274356 -3.527896 3.229477 0.028711 0.055217 -0.015335
 41   -4.433840 -1.059130 0.959566 0.005296 0.030105 -0.050007
 42   -0.637936 1.693396 -2.719865 -0.026294 -0.054305 0.003137
 43   -0.644536 1.694672 2.576399 -0.049964 -0.103232 0.004391
time 11
  0   0.680937 -89.470390 2.277784 0.000000 0.000000 -1.571069
  1   -1.093036 0.000002 -0.326057 -0.213804 -1.569082 -1.357018
  2   2.262337 0.113614 0.064702 0.141334 -0.015903 0.093504
  3   2.380047 0.353302 0.047440 -0.140994 -0.008501 0.107843
  4   2.033756 0.190472 -0.000128 -0.133036 -0.006112 -0.087417
  5   2.451511 0.204909 -0.003447 -0.099689 -0.006363 0.031539
  6   7.247600 -0.397300 -0.109469 0.102266 0.016727 0.156544
  7   -2.022252 -0.104661 3.136172 0.427820 -1.204725 -3.627065
  8   1.168026 -0.537438 -0.063437 0.134959 0.924139 -0.076924
  9   6.790376 -0.619176 0.015206 -0.017024 0.032485 -1.244686
 10   8.637599 0.544015 -0.090417 -1.365890 -0.237980 0.036268
 11   6.790465 -0.619039 0.017802 -0.006590 0.013761 -0.886261
 12   -2.022474 -0.104699 -2.873818 0.507828 1.231976 -2.700545
 13   1.167898 -0.537463 0.063297 -0.702681 -0.734793 0.590910
 14   7.002743 -0.617765 -0.183752 0.024824 -0.077261 -1.314394
 15   8.209042 0.615527 -0.255885 1.595975 0.017490 -0.113005
 16   7.002735 -0.617911 -0.183641 0.020934 -0.051107 -0.938378
 17   1.574674 0.609930 -0.000899 0.112643 -0.029386 0.165541
 18   -0.602177 0.511412 -0.000006 0.000000 0.000000 0.000000
 19   3.673773 0.177020 1.119313 -0.000002 -0.000014 -0.174510
 20   3.677673 0.176993 -1.117566 0.000007 -0.000003 -0.174546
 21   3.942357 1.334540 1.627658 0.000002 -0.000011 -0.000026
 22   -0.246060 -0.011889 0.516521 -0.000011 0.000031 0.000025
 23   3.942374 1.334565 -1.631083 0.000019 0.000002 -0.000024
 24   -0.246150 -0.011872 -0.516511 -0.000005 -0.000006 0.000048
 25   4.941364 1.997338 1.629330 0.000018 -0.000001 -0.000024
 26   4.941382 1.997366 -1.629410 -0.000001 0.000005 -0.000024
 27   2.914462 1.623171 1.514501 -0.000019 -0.000022 -0.000050
 28   2.916892 1.622777 -1.501142 -0.000002 -0.000009 -0.000024
 29   8.824059 0.150544 0.091743 -0.020047 -0.072015 -0.175500
 30   2.009519 -0.537741 1.893698 -0.033434 -0.118873 -0.000148
 31   2.109571 -0.561289 -1.685625 -0.032988 -0.117644 -0.000730
 32   -0.814395 -0.093824 3.127092 0.080418 -3.180292 0.453327
 33   14.298673 -0.408176 0.471578 0.014210 -0.020049 -0.442118
 34   15.835795 0.581398 0.242756 -0.079204 0.003002 -0.039433
 35   -0.815868 -0.091229 -3.114430 -0.045403 3.095249 -0.844404
 36   14.294526 -0.410349 -0.467541 -0.053586 0.007131 -1.018011
 37   15.834409 0.579420 -0.284600 -0.084862 0.017369 0.111685
 38   0.913116 -3.340464 -2.812094 0.052139 0.077244 0.049182
 39   -4.457742 -1.054854 -0.746180 0.008006 -0.012248 0.085570
 40   1.348577 -3.563054 3.225571 0.046582 0.091176 -0.035618
 41   -4.433840 -1.059130 0.959566 0.011792 0.045134 -0.049502
 42   -0.653562 1.697302 -2.837056 -0.052001 -0.108719 0.002175
 43   -0.636723 1.694672 2.459208 -0.077863 -0.162043 0.004433
time 12
  0   0.438742 -97.596954 2.801238 0.000000 0.000000 -1.571069
  1   -1.093036 0.000002 -0.326057 -0.213699 -1.569082 -1.357018
  2   2.262337 0.113614 0.064702 0.126151 -0.016214 0.103714
  3   2.380047 0.353302 0.047440 -0.134244 -0.001886 0.097436
  4   2.033756 0.190472 -0.000128 -0.139491 -0.006436 -0.104779
  5   2.451511 0.204909 -0.003447 -0.104430 -0.006650 0.031539
  6   7.247600 -0.397300 -0.109469 0.102925 0.012605 0.156544
  7   -2.022252 -0.104661 3.136172 0.478050 -1.237415 -3.679282
  8   1.168026 -0.537438 -0.063437 0.199441 0.960164 -0.102735
  9   6.790376 -0.619176 0.015206 -0.010033 0.039359 -1.314267
 10   8.637599 0.544015 -0.090417 -1.330047 -0.229955 -0.082810
 11   6.790465 -0.619039 0.017802 0.000067 0.017769 -0.934996
 12   -2.022474 -0.104699 -2.873818 0.562438 1.255079 -2.646068
 13   1.167898 -0.537463 0.063297 -0.646233 -0.764492 0.639096
 14   7.002743 -0.617765 -0.183752 0.034901 -0.067210 -1.215966
 15   8.209042 0.615527 -0.255885 1.602087 0.057817 -0.037533
 16   7.002735 -0.617911 -0.183641 0.030302 -0.045355 -0.869497
 17   1.574674 0.609930 -0.000899 0.129217 -0.033670 0.164653
 18   -0.602177 0.511412 -0.000006 0.000000 0.000000 0.000000
 19   3.677679 0.177020 1.119313 -0.000002 -0.000014 -0.174510
 20   3.673767 0.176993 -1.117566 0.000007 -0.000003 -0.174546
 21   3.938451 1.334540 1.627658 0.000002 -0.000011 -0.000026
 22   -0.246060 -0.011889 0.516521 -0.000011 0.000031 0.000025
 23   3.942374 1.334565 -1.631083 0.000019 0.000002 -0.000024
 24   -0.246150 -0.011872 -0.516511 -0.000005 -0.000006 0.000048
 25   4.941364 1.997338 1.629330 0.000018 -0.000001 -0.000024
 26   4.941382 1.997366 -1.629410 -0.000001 0.000005 -0.000024
 27   2.914462 1.619264 1.514501 -0.000019 -0.000022 -0.000050
 28   2.920798 1.618870 -1.501142 -0.000002 -0.000009 -0.000024
 29   8.824059 0.150544 0.091743 -0.022631 -0.081534 -0.175607
 30   1.997800 -0.533834 1.909324 -0.040865 -0.145987 -0.000641
 31   2.121290 -0.565195 -1.662187 -0.038259 -0.136915 -0.000930
 32   -0.814395 -0.093824 3.127092 0.063547 -3.180005 0.396690
 33   14.298673 -0.408176 0.471578 0.035566 -0.016262 -0.739623
 34   15.835795 0.581398 0.242756 -0.055902 -0.074040 -0.262019
 35   -0.815868 -0.091229 -3.114430 -0.022783 3.104431 -0.743011
 36   14.294526 -0.410349 -0.467541 -0.028275 0.018109 -0.638820
 37   15.834409 0.579420 -0.284600 -0.023883 0.049133 0.110975
 38   0.881865 -3.328745 -2.812094 0.059800 0.090379 0.049182
 39   -4.457742 -1.054854 -0.746180 0.010439 -0.007119 0.092329
 40   1.375921 -3.574773 3.225571 0.053738 0.105552 -0.043744
 41   -4.433840 -1.059130 0.959566 0.014381 0.051138 -0.048745
 42   -0.657468 1.697302 -2.883932 -0.062272 -0.130476 0.001338
 43   -0.632817 1.694672 2.412332 -0.089020 -0.185581 0.004433
time 13
  0   0.235610 -105.723526 2.730923 0.000000 0.000000 -1.571069
  1   -1.093036 0.000002 -0.326057 -0.213595 -1.569082 -1.357067
  2   2.262337 0.113614 0.064702 0.095492 -0.014812 0.119002
  3   2.380047 0.353302 0.047440 -0.113333 0.004502 0.085948
  4   2.033756 0.190472 -0.000128 -0.133442 -0.006124 -0.124062
  5   2.451511 0.204909 -0.003447 -0.099980 -0.006389 0.031539
  6   7.247600 -0.397300 -0.109469 0.095015 0.007068 0.156544
  7   -2.022252 -0.104661 3.136172 0.516872 -1.285585 -3.721075
  8   1.168026 -0.537438 -0.063437 0.277972 0.993321 -0.104696
  9   6.790376 -0.619176 0.015206 -0.007037 0.043830 -1.369660
 10   8.637599 0.544015 -0.090417 -1.314460 -0.176388 -0.160074
 11   6.790465 -0.619039 0.017802 0.003220 0.020697 -0.973696
 12   -2.022474 -0.104699 -2.873818 0.600474 1.291242 -2.608250
 13   1.167898 -0.537463 0.063297 -0.623035 -0.808634 0.663673
 14   7.002743 -0.617765 -0.183752 0.039285 -0.060282 -1.129747
 15   8.209042 0.615527 -0.255885 1.604100 0.132946 -0.021596
 16   7.002735 -0.617911 -0.183641 0.034822 -0.040957 -0.809227
 17   1.574674 0.609930 -0.000899 0.138600 -0.036084 0.163656
 18   -0.602177 0.511412 -0.000006 0.000000 0.000000 0.000000
 19   3.673773 0.180927 1.119313 -0.000002 -0.000014 -0.174510
 20   3.673767 0.180900 -1.117566 0.000007 -0.000003 -0.174546
 21   3.942357 1.338447 1.627658 0.000002 -0.000011 -0.000026
 22   -0.246060 -0.011889 0.516521 -0.000011 0.000031 0.000025
 23   3.938468 1.334565 -1.631083 0.000019 0.000002 -0.000024
 24   -0.246150 -0.011872 -0.516511 -0.000005 -0.000006 0.000048
 25   4.941364 1.997338 1.629330 0.000018 -0.000001 -0.000024
 26   4.941382 1.997366 -1.629410 -0.000001 0.000005 -0.000024
 27   2.914462 1.623171 1.514501 -0.000019 -0.000022 -0.000050
 28   2.916892 1.622777 -1.501142 -0.000002 -0.000009 -0.000024
 29   8.824059 0.150544 0.091743 -0.020938 -0.075504 -0.175500
 30   2.005613 -0.537741 1.901511 -0.037841 -0.135235 -0.000598
 31   2.121290 -0.565195 -1.677812 -0.035424 -0.126787 -0.000857
 32   -0.814395 -0.093824 3.127092 0.024865 -3.159376 0.299922
 33   14.298673 -0.408176 0.471578 0.055425 -0.005922 -1.046020
 34   15.835795 0.581398 0.242756 -0.004192 -0.104350 -0.414702
 35   -0.815868 -0.091229 -3.114430 -0.003420 3.124855 -0.606614
 36   14.294526 -0.410349 -0.467541 -0.006331 0.019691 -0.336719
 37   15.834409 0.579420 -0.284600 0.030889 0.056837 0.077258
 38   0.901397 -3.336558 -2.812094 0.055359 0.083679 0.045516
 39   -4.457742 -1.054854 -0.746180 0.009660 -0.004123 0.085486
 40   1.356390 -3.566960 3.225571 0.049739 0.097731 -0.040506
 41   -4.433840 -1.059130 0.959566 0.013314 0.047351 -0.044510
 42   -0.657468 1.697302 -2.868307 -0.057658 -0.120817 0.000753
 43   -0.636723 1.694672 2.447489 -0.082436 -0.171835 0.004099
time 14
  0   0.087168 -113.850098 2.098091 0.000000 0.000000 -1.571069
  1   -1.093036 0.000002 -0.326057 -0.213542 -1.569082 -1.357067
  2   2.262337 0.113614 0.064702 0.054872 -0.010857 0.134959
  3   2.380047 0.353302 0.047440 -0.076250 0.009715 0.076847
  4   2.033756 0.190472 -0.000128 -0.113155 -0.005201 -0.139576
  5   2.451511 0.204909 -0.003447 -0.084780 -0.005397 0.031415
  6   7.247600 -0.397300 -0.109469 0.078224 0.000033 0.156734
  7   -2.022252 -0.104661 3.136172 0.497988 -1.329374 -3.704170
  8   1.168026 -0.537438 -0.063437 0.380993 1.019585 -0.066044
  9   6.790376 -0.619176 0.015206 -0.006261 0.045499 -1.390188
 10   8.637599 0.544015 -0.090417 -1.324675 -0.083895 -0.174543
 11   6.790465 -0.619039 0.017802 0.004271 0.021720 -0.988115
 12   -2.022474 -0.104699 -2.873818 0.561864 1.322008 -2.647121
 13   1.167898 -0.537463 0.063297 -0.595760 -0.859793 0.656530
 14   7.002743 -0.617765 -0.183752 0.040082 -0.056421 -1.071994
 15   8.209042 0.615527 -0.255885 1.605610 0.185984 -0.013838
 16   7.002735 -0.617911 -0.183641 0.036187 -0.038307 -0.768881
 17   1.574674 0.609930 -0.000899 0.136569 -0.035445 0.163027
 18   -0.602177 0.511412 -0.000006 0.000000 0.000000 0.000000
 19   3.673773 0.177020 1.119313 -0.000002 -0.000014 -0.174510
 20   3.673767 0.176993 -1.117566 0.000007 -0.000003 -0.174546
 21   3.938451 1.334540 1.627658 0.000002 -0.000011 -0.000026
 22   -0.246060 -0.011889 0.516521 -0.000011 0.000031 0.000025
 23   3.938468 1.334565 -1.631083 0.000019 0.000002 -0.000024
 24   -0.246150 -0.011872 -0.516511 -0.000005 -0.000006 0.000048
 25   4.941364 1.997338 1.629330 0.000018 -0.000001 -0.000024
 26   4.941382 1.997366 -1.629410 -0.000001 0.000005 -0.000024
 27   2.914462 1.619264 1.514501 -0.000019 -0.000022 -0.000050
 28   2.916892 1.618870 -1.501142 -0.000002 -0.000009 -0.000024
 29   8.824059 0.150544 0.091743 -0.016749 -0.060454 -0.175339
 30   2.029051 -0.541647 1.878073 -0.030274 -0.108324 -0.000469
 31   2.121290 -0.565195 -1.712970 -0.028330 -0.101430 -0.000693
 32   -0.814395 -0.093824 3.127092 -0.012325 -3.131583 0.202756
 33   14.298673 -0.408176 0.471578 0.071568 0.010389 -1.360198
 34   15.835795 0.581398 0.242756 0.050186 -0.036873 -0.426124
 35   -0.815868 -0.091229 -3.114430 0.011895 3.141531 -0.583169
 36   14.294526 -0.410349 -0.467541 -0.010490 0.019906 -0.393647
 37   15.834409 0.579420 -0.284600 0.052976 0.039714 0.162742
 38   0.948273 -3.359996 -2.816000 0.044287 0.066941 0.036413
 39   -4.457742 -1.054854 -0.746180 0.007730 -0.002109 0.068378
 40   1.309513 -3.543522 3.229477 0.039804 0.078185 -0.032380
 41   -4.433840 -1.059130 0.959566 0.010653 0.037883 -0.035311
 42   -0.657468 1.697302 -2.833149 -0.046129 -0.096653 0.000376
 43   -0.640630 1.694672 2.533429 -0.065944 -0.137455 0.003262
time 15
  0   -0.045649 -121.980568 1.144937 0.000000 0.000000 -1.571069
  1   -1.093036 0.000002 -0.326057 -0.213542 -1.569082 -1.357115
  2   2.262337 0.113614 0.064702 0.009310 -0.004374 0.149036
  3   2.380047 0.353302 0.047440 -0.024962 0.015240 0.073133
  4   2.033756 0.190472 -0.000128 -0.076786 -0.003523 -0.146282
  5   2.451511 0.204909 -0.003447 -0.057564 -0.003648 0.031242
  6   7.247600 -0.397300 -0.109469 0.050372 -0.008153 0.156829
  7   -2.022252 -0.104661 3.136172 0.354106 -1.358979 -3.561042
  8   1.168026 -0.537438 -0.063437 0.531411 1.035686 0.021129
  9   6.790376 -0.619176 0.015206 -0.003819 0.045632 -1.380679
 10   8.637599 0.544015 -0.090417 -1.331985 -0.031384 -0.179607
 11   6.790465 -0.619039 0.017802 0.005964 0.021493 -0.981425
 12   -2.022474 -0.104699 -2.873818 0.390273 1.336462 -2.818115
 13   1.167898 -0.537463 0.063297 -0.499384 -0.919700 0.594482
 14   7.002743 -0.617765 -0.183752 0.041562 -0.054263 -1.045344
 15   8.209042 0.615527 -0.255885 1.607336 0.203461 -0.009809
 16   7.002735 -0.617911 -0.183641 0.037740 -0.037010 -0.750281
 17   1.574674 0.609930 -0.000899 0.116421 -0.030167 0.163508
 18   -0.602177 0.511412 -0.000006 0.000000 0.000000 0.000000
 19   3.677679 0.180927 1.119313 -0.000002 -0.000014 -0.174510
 20   3.677673 0.180900 -1.117566 0.000007 -0.000003 -0.174546
 21   3.942357 1.338447 1.627658 0.000002 -0.000011 -0.000026
 22   -0.246060 -0.011889 0.516521 -0.000011 0.000031 0.000025
 23   3.942374 1.338472 -1.631083 0.000019 0.000002 -0.000024
 24   -0.246150 -0.011872 -0.516511 -0.000005 -0.000006 0.000048
 25   4.941364 1.997338 1.629330 0.000018 -0.000001 -0.000024
 26   4.941382 1.997366 -1.629410 -0.000001 0.000005 -0.000024
 27   2.918368 1.623171 1.514501 -0.000019 -0.000022 -0.000050
 28   2.920798 1.622777 -1.501142 -0.000002 -0.000009 -0.000024
 29   8.824059 0.150544 0.091743 -0.011313 -0.040870 -0.175070
 30   2.056396 -0.549460 1.846822 -0.020430 -0.073335 -0.000298
 31   2.121290 -0.561289 -1.759846 -0.019122 -0.068457 -0.000457
 32   -0.814395 -0.093824 3.127092 -0.032272 -3.111622 0.003757
 33   14.298673 -0.408176 0.471578 0.082810 0.033926 -1.717569
 34   15.835795 0.581398 0.242756 0.072406 0.045001 -0.352429
 35   -0.815868 -0.091229 -3.114430 0.023161 3.146310 -0.636906
 36   14.294526 -0.410349 -0.467541 -0.035010 0.016299 -0.733599
 37   15.834409 0.579420 -0.284600 0.032801 -0.042652 0.260596
 38   1.010775 -3.391247 -2.819907 0.029890 0.045190 0.024561
 39   -4.457742 -1.054854 -0.746180 0.005213 -0.000887 0.046165
 40   1.247011 -3.512271 3.233384 0.026859 0.052771 -0.021872
 41   -4.433840 -1.059130 0.959566 0.007190 0.025563 -0.023699
 42   -0.657468 1.697302 -2.786273 -0.031136 -0.065237 0.000167
 43   -0.648443 1.698578 2.642807 -0.044504 -0.092781 0.002217
time 16
  0   -0.221436 -130.103226 0.605858 0.000000 0.000000 -1.571069
  1   -1.093036 0.000002 -0.326057 -0.213542 -1.569082 -1.357115
  2   2.262337 0.113614 0.064702 -0.036647 0.003452 0.150500
  3   2.380047 0.353302 0.047440 0.031757 0.020753 0.078704
  4   2.033756 0.190472 -0.000128 -0.026272 -0.001162 -0.137401
  5   2.451511 0.204909 -0.003447 -0.019736 -0.001219 0.031118
  6   7.247600 -0.397300 -0.109469 0.002913 -0.014996 0.156829
  7   -2.022252 -0.104661 3.136172 0.031640 -1.359008 -3.240035
  8   1.168026 -0.537438 -0.063437 0.708912 1.024365 0.156633
  9   6.790376 -0.619176 0.015206 0.005723 0.047167 -1.356755
 10   8.637599 0.544015 -0.090417 -1.334098 -0.018643 -0.174398
 11   6.790465 -0.619039 0.017802 0.012709 0.021208 -0.964814
 12   -2.022474 -0.104699 -2.873818 0.080625 1.321166 -3.125444
 13   1.167898 -0.537463 0.063297 -0.310639 -0.955247 0.443266
 14   7.002743 -0.617765 -0.183752 0.050102 -0.052730 -1.055493
 15   8.209042 0.615527 -0.255885 1.607767 0.206714 -0.011493
 16   7.002735 -0.617911 -0.183641 0.043907 -0.036784 -0.757235
 17   1.574674 0.609930 -0.000899 0.077790 -0.020038 0.164690
 18   -0.602177 0.511412 -0.000006 0.000000 0.000000 0.000000
 19   3.677679 0.180927 1.119313 -0.000002 -0.000014 -0.174510
 20   3.677673 0.180900 -1.117566 0.000007 -0.000003 -0.174546
 21   3.942357 1.338447 1.627658 0.000002 -0.000011 -0.000026
 22   -0.246060 -0.011889 0.516521 -0.000011 0.000031 0.000025
 23   3.942374 1.338472 -1.631083 0.000019 0.000002 -0.000024
 24   -0.246150 -0.011872 -0.516511 -0.000005 -0.000006 0.000048
 25   4.941364 1.997338 1.629330 0.000018 -0.000001 -0.000024
 26   4.941382 1.997366 -1.629410 -0.000001 0.000005 -0.000024
 27   2.914462 1.623171 1.514501 -0.000019 -0.000022 -0.000050
 28   2.916892 1.618870 -1.501142 -0.000002 -0.000009 -0.000024
 29   8.824059 0.150544 0.091743 -0.005787 -0.021310 -0.174802
 30   2.083740 -0.557273 1.815571 -0.010599 -0.038345 -0.000148
 31   2.121290 -0.561289 -1.806723 -0.009913 -0.035485 -0.000239
 32   -0.814395 -0.093824 3.127092 -0.034975 -3.096436 -0.344891
 33   14.298673 -0.408176 0.471578 0.085434 0.053959 -1.995542
 34   15.835795 0.581398 0.242756 0.107623 0.098567 -0.326849
 35   -0.815868 -0.091229 -3.114430 0.019464 3.153149 -0.552384
 36   14.294526 -0.410349 -0.467541 -0.047810 0.010726 -0.925319
 37   15.834409 0.579420 -0.284600 0.042277 -0.117057 0.320526
 38   1.073277 -3.422498 -2.823813 0.015492 0.023426 0.012709
 39   -4.457742 -1.054854 -0.746180 0.002697 -0.000264 0.023924
 40   1.184509 -3.481020 3.237290 0.013913 0.027368 -0.011302
 41   -4.433840 -1.059130 0.959566 0.003726 0.013255 -0.012228
 42   -0.657468 1.697302 -2.739397 -0.016143 -0.033821 0.000042
 43   -0.656255 1.698578 2.752186 -0.023077 -0.048108 0.001129
time 17
  0   -0.373785 -138.229797 0.508199 0.000000 0.000000 -1.571069
  1   -1.093036 0.000002 -0.326057 -0.213490 -1.569082 -1.357212
  2   2.262337 0.113614 0.064702 -0.078948 0.009672 0.137236
  3   2.380047 0.353302 0.047440 0.081470 0.023090 0.091539
  4   2.033756 0.190472 -0.000128 0.029646 0.001330 -0.115798
  5   2.451511 0.204909 -0.003447 0.022115 0.001392 0.031118
  6   7.247600 -0.397300 -0.109469 -0.054361 -0.019849 0.156829
  7   -2.022252 -0.104661 3.136172 -0.293798 -1.318247 -2.916493
  8   1.168026 -0.537438 -0.063437 0.844396 0.964441 0.303144
  9   6.790376 -0.619176 0.015206 0.021091 0.050237 -1.331851
 10   8.637599 0.544015 -0.090417 -1.334539 -0.020051 -0.161955
 11   6.790465 -0.619039 0.017802 0.023833 0.021265 -0.947569
 12   -2.022474 -0.104699 -2.873818 -0.205647 1.269271 -3.406061
 13   1.167898 -0.537463 0.063297 -0.108467 -0.933736 0.259301
 14   7.002743 -0.617765 -0.183752 0.063880 -0.051651 -1.102686
 15   8.209042 0.615527 -0.255885 1.607624 0.203158 -0.018229
 16   7.002735 -0.617911 -0.183641 0.053417 -0.037630 -0.790185
 17   1.574674 0.609930 -0.000899 0.032741 -0.004773 0.165651
 18   -0.602177 0.511412 -0.000006 0.000000 0.000000 0.000000
 19   3.677679 0.180927 1.119313 -0.000002 -0.000014 -0.174510
 20   3.677673 0.180900 -1.117566 0.000007 -0.000003 -0.174546
 21   3.938451 1.338447 1.627658 0.000002 -0.000011 -0.000026
 22   -0.246060 -0.011889 0.516521 -0.000011 0.000031 0.000025
 23   3.938468 1.338472 -1.631083 0.000019 0.000002 -0.000024
 24   -0.246150 -0.011872 -0.516511 -0.000005 -0.000006 0.000048
 25   4.941364 1.997338 1.629330 0.000018 -0.000001 -0.000024
 26   4.941382 1.997366 -1.629410 -0.000001 0.000005 -0.000024
 27   2.914462 1.619264 1.514501 -0.000019 -0.000022 -0.000050
 28   2.916892 1.618870 -1.501142 -0.000002 -0.000009 -0.000024
 29   8.824059 0.150544 0.091743 -0.001598 -0.006237 -0.174588
 30   2.103272 -0.561179 1.792133 -0.003032 -0.011435 -0.000019
 31   2.121290 -0.561289 -1.841880 -0.002819 -0.010127 -0.000057
 32   -0.814395 -0.093824 3.127092 -0.007013 -3.103790 -0.654491
 33   14.298673 -0.408176 0.471578 0.085314 0.057449 -2.043022
 34   15.835795 0.581398 0.242756 0.166165 0.081875 -0.330245
 35   -0.815868 -0.091229 -3.114430 -0.022959 3.173948 -0.287370
 36   14.294526 -0.410349 -0.467541 -0.041877 0.013722 -0.835638
 37   15.834409 0.579420 -0.284600 0.069664 -0.142985 0.492051
 38   1.124060 -3.445936 -2.823813 0.004420 0.006688 0.003606
 39   -4.457742 -1.054854 -0.746180 0.000767 -0.000024 0.006815
 40   1.133726 -3.457582 3.237290 0.003978 0.007810 -0.003238
 41   -4.433840 -1.059130 0.959566 0.001054 0.003787 -0.003478
 42   -0.657468 1.697302 -2.700333 -0.004602 -0.009657 0.000000
 43   -0.664068 1.698578 2.838126 -0.006584 -0.013744 0.000293
time 18
  0   -0.393317 -146.356369 0.797270 0.000000 0.000000 -1.571069
  1   -1.093036 0.000002 -0.326057 -0.214066 -1.569082 -1.356583
  2   2.262337 0.113614 0.064702 -0.114040 0.012333 0.114033
  3   2.380047 0.353302 0.047440 0.116873 0.020933 0.105721
  4   2.033756 0.190472 -0.000128 0.079643 0.003655 -0.091730
  5   2.451511 0.204909 -0.003447 0.059618 0.003781 0.031242
  6   7.247600 -0.397300 -0.109469 -0.096930 -0.020413 0.156544
  7   -2.022252 -0.104661 3.136172 -0.456373 -1.260477 -2.755051
  8   1.168026 -0.537438 -0.063437 0.881858 0.867787 0.405120
  9   6.790376 -0.619176 0.015206 0.030966 0.051439 -1.304155
 10   8.637599 0.544015 -0.090417 -1.334539 -0.026949 -0.150452
 11   6.790465 -0.619039 0.017802 0.030811 0.020867 -0.928306
 12   -2.022474 -0.104699 -2.873818 -0.357597 1.210817 -3.553023
 13   1.167898 -0.537463 0.063297 0.000352 -0.877186 0.129938
 14   7.002743 -0.617765 -0.183752 0.072818 -0.053127 -1.181396
 15   8.209042 0.615527 -0.255885 1.606761 0.201418 -0.025325
 16   7.002735 -0.617911 -0.183641 0.059113 -0.039942 -0.845323
 17   1.574674 0.609930 -0.000899 -0.012755 0.013829 0.166502
 18   -0.602177 0.511412 -0.000006 0.000000 0.000000 0.000000
 19   3.673773 0.177020 1.119313 -0.000002 -0.000014 -0.174510
 20   3.673767 0.176993 -1.117566 0.000007 -0.000003 -0.174546
 21   3.938451 1.334540 1.627658 0.000002 -0.000011 -0.000026
 22   -0.246060 -0.011889 0.516521 -0.000011 0.000031 0.000025
 23   3.938468 1.334565 -1.631083 0.000019 0.000002 -0.000024
 24   -0.246150 -0.011872 -0.516511 -0.000005 -0.000006 0.000048
 25   4.941364 1.997338 1.629330 0.000018 -0.000001 -0.000024
 26   4.941382 1.997366 -1.629410 -0.000001 0.000005 -0.000024
 27   2.914462 1.623171 1.514501 -0.000019 -0.000022 -0.000050
 28   2.916892 1.618870 -1.501142 -0.000002 -0.000009 -0.000024
 29   8.824059 0.150544 0.091743 0.000006 -0.000231 -0.174534
 30   2.111085 -0.561179 1.784320 -0.000008 -0.000682 0.000024
 31   2.121290 -0.561289 -1.853599 0.000000 0.000000 -0.000002
 32   -0.814395 -0.093824 3.127092 -0.008784 -3.102262 -0.936654
 33   14.298673 -0.408176 0.471578 0.085410 0.052266 -1.972278
 34   15.835795 0.581398 0.242756 0.132167 0.070308 -0.281335
 35   -0.815868 -0.091229 -3.114430 -0.014158 3.159520 0.053073
 36   14.294526 -0.410349 -0.467541 -0.024212 0.018540 -0.570382
 37   15.834409 0.579420 -0.284600 0.038810 -0.116469 0.423705
 38   1.139685 -3.453749 -2.823813 0.000000 0.000000 0.000001
 39   -4.457742 -1.054854 -0.746180 0.000000 0.000000 0.000000
 40   1.118101 -3.449769 3.237290 0.000000 0.000001 0.000000
 41   -4.433840 -1.059130 0.959566 -0.000001 0.000000 0.000000
 42   -0.657468 1.697302 -2.688614 0.000000 0.000002 0.000000
 43   -0.664068 1.698578 2.869377 0.000000 0.000002 0.000000
end
