version 1
nodes
  0 "Bip01" -1
  1 "Bip01 Pelvis" 0
  2 "Bip01 Spine" 1
  3 "Bip01 Spine1" 2
  4 "Bip01 Spine2" 3
  5 "Bip01 Spine3" 4
  6 "Bip01 Neck" 5
  7 "Bip01 L Arm" 6
  8 "Bip01 L Arm1" 7
  9 "Bip01 L Arm2" 8
 10 "Bip01 L Hand" 9
 11 "Bip06 L elbow2-smooth" 8
 12 "Bip01 R Arm" 6
 13 "Bip01 R Arm1" 12
 14 "Bip01 R Arm2" 13
 15 "Bip01 R Hand" 14
 16 "Bip06 R elbow2-smooth" 13
 17 "Bip01 Head" 6
 18 "Bip06 Head_helper" 17
 19 "Bip06 Head_eyes_l" 18
 20 "Bip06 Head_eyes_r" 18
 21 "Bip06 Head_blink_l" 18
 22 "Bip06 Head_blink_smooth_l1" 21
 23 "Bip06 Head_blink_r" 18
 24 "Bip06 Head_blink_smooth_r1" 23
 25 "Bip06 Head_L_eyebrow" 18
 26 "Bip06 Head_R_eyebrow" 18
 27 "Bip06 Head_blink_l_lid" 18
 28 "Bip06 Head_blink_r_lid" 18
 29 "Bip06 bunny" 18
 30 "Bip06 bunnyL" 29
 31 "Bip06 bunnyR" 29
 32 "Bip01 L Leg" 1
 33 "Bip01 L Leg1" 32
 34 "Bip01 L Foot" 33
 35 "Bip01 R Leg" 1
 36 "Bip01 R Leg1" 35
 37 "Bip01 R Foot" 36
 38 "Bip03 HairR1" 17
 39 "Bip03 HairR2" 38
 40 "Bip03 HairL1" 17
 41 "Bip03 HairL2" 40
 42 "Bip03 swingR" 17
 43 "Bip03 swingL" 17
end
skeleton
time 0
  0   -0.072988 -0.292978 2.414507 0.000000 0.000000 -1.571069
  1   -1.093036 0.000002 -0.326057 -0.214119 -1.569082 -1.356583
  2   2.262337 0.113614 0.064702 -0.042672 -0.030368 -0.017288
  3   2.380047 0.353302 0.047440 0.035522 0.026841 0.026221
  4   2.033756 0.190472 -0.000128 0.024519 0.017006 -0.091259
  5   2.451511 0.204909 -0.003447 -0.000103 0.008037 0.034833
  6   7.247600 -0.397300 -0.109469 -0.004158 -0.046299 0.156861
  7   -2.022252 -0.104661 3.136172 -0.375373 -1.376651 -2.823986
  8   1.168026 -0.537438 -0.063437 0.397256 1.149899 0.173650
  9   6.790376 -0.619176 0.015206 -0.003930 -0.027248 -0.201273
 10   8.637599 0.544015 -0.090417 -1.534270 0.129528 0.029757
 11   6.790465 -0.619039 0.017802 -0.005743 -0.029730 -0.156039
 12   -2.022474 -0.104699 -2.873818 -0.002823 1.241670 -3.209217
 13   1.167898 -0.537463 0.063297 0.035360 -1.133798 -0.288600
 14   7.002743 -0.617765 -0.183752 0.040082 -0.008665 -0.271609
 15   8.209042 0.615527 -0.255885 1.526445 -0.011639 0.038421
 16   7.002735 -0.617911 -0.183641 0.042354 -0.005207 -0.208674
 17   1.574674 0.609930 -0.000899 -0.019823 0.031722 0.159109
 18   -0.602177 0.511412 -0.000006 0.000000 0.000000 0.000000
 19   3.677679 0.177020 1.119313 -0.000002 -0.000014 -0.174510
 20   3.673767 0.176993 -1.117566 0.000007 -0.000003 -0.174546
 21   3.942357 1.334540 1.627658 0.000002 -0.000011 -0.000026
 22   -0.246060 -0.011889 0.516521 -0.000011 0.000031 0.000025
 23   3.942374 1.334565 -1.631083 0.000019 0.000002 -0.000024
 24   -0.246150 -0.011872 -0.516511 -0.000005 -0.000006 0.000048
 25   4.941364 1.997338 1.629330 0.000018 -0.000001 -0.000024
 26   4.941382 1.997366 -1.629410 -0.000001 0.000005 -0.000024
 27   2.914462 1.619264 1.514501 -0.000019 -0.000022 -0.000050
 28   2.920798 1.618870 -1.501142 -0.000002 -0.000009 -0.000024
 29   8.824059 0.150544 0.091743 0.000006 -0.000231 -0.174534
 30   2.111085 -0.561179 1.784320 -0.000008 -0.000682 0.000024
 31   2.121290 -0.561289 -1.853599 0.000000 0.000000 -0.000002
 32   -0.814395 -0.093824 3.127092 0.028220 -3.108948 -0.482757
 33   14.298673 -0.408176 0.471578 0.060087 -0.002238 -1.128118
 34   15.835795 0.581398 0.242756 -0.005066 -0.145153 0.045333
 35   -0.815868 -0.091229 -3.114430 -0.046547 3.180881 0.029793
 36   14.294526 -0.410349 -0.467541 0.000752 0.018468 -0.228345
 37   15.834409 0.579420 -0.284600 0.092636 -0.099141 0.139267
 38   1.139685 -3.453749 -2.823813 0.000000 0.000000 0.000001
 39   -4.457742 -1.054854 -0.746180 0.000000 0.000000 0.000000
 40   1.118101 -3.449769 3.237290 0.000000 0.000001 0.000000
 41   -4.433840 -1.059130 0.959566 -0.000001 0.000000 0.000000
 42   -0.657468 1.697302 -2.688614 0.000000 0.000002 0.000000
 43   -0.664068 1.698578 2.869377 0.000000 0.000002 0.000000
time 1
  0   -0.030018 -3.415885 2.320755 0.000000 0.000000 -1.571069
  1   -1.093036 0.000002 -0.326057 -0.214119 -1.569082 -1.356583
  2   2.262337 0.113614 0.064702 -0.054849 -0.023932 -0.017668
  3   2.380047 0.353302 0.047440 0.045843 0.015612 0.026935
  4   2.033756 0.190472 -0.000128 0.039310 0.019235 -0.091875
  5   2.451511 0.204909 -0.003447 -0.000103 0.008037 0.034833
  6   7.247600 -0.397300 -0.109469 -0.004146 -0.046204 0.156861
  7   -2.022252 -0.104661 3.136172 -0.366363 -1.380485 -2.833565
  8   1.168026 -0.537438 -0.063437 0.451361 1.136113 0.245071
  9   6.790376 -0.619176 0.015206 -0.005817 -0.030318 -0.145050
 10   8.637599 0.544015 -0.090417 -1.547744 0.109819 0.012395
 11   6.790465 -0.619039 0.017802 -0.007174 -0.031862 -0.116705
 12   -2.022474 -0.104699 -2.873818 -0.012404 1.239086 -3.219270
 13   1.167898 -0.537463 0.063297 0.100665 -1.117524 -0.378373
 14   7.002743 -0.617765 -0.183752 0.038374 -0.012242 -0.334973
 15   8.209042 0.615527 -0.255885 1.567358 0.003796 0.018155
 16   7.002735 -0.617911 -0.183641 0.040989 -0.007632 -0.253049
 17   1.574674 0.609930 -0.000899 -0.032578 0.035721 0.152198
 18   -0.602177 0.511412 -0.000006 0.000000 0.000000 0.000000
 19   3.673773 0.177020 1.119313 -0.000002 -0.000014 -0.174510
 20   3.673767 0.176993 -1.117566 0.000007 -0.000003 -0.174546
 21   3.938451 1.334540 1.627658 0.000002 -0.000011 -0.000026
 22   -0.246060 -0.011889 0.516521 -0.000011 0.000031 0.000025
 23   3.942374 1.334565 -1.631083 0.000019 0.000002 -0.000024
 24   -0.246150 -0.011872 -0.516511 -0.000005 -0.000006 0.000048
 25   4.941364 1.997338 1.629330 0.000018 -0.000001 -0.000024
 26   4.941382 1.997366 -1.629410 -0.000001 0.000005 -0.000024
 27   2.914462 1.619264 1.514501 -0.000019 -0.000022 -0.000050
 28   2.916892 1.618870 -1.501142 -0.000002 -0.000009 -0.000024
 29   8.824059 0.150544 0.091743 0.000006 -0.000278 -0.169920
 30   2.111085 -0.568992 1.780414 0.001579 0.008036 -0.013571
 31   2.121290 -0.557383 -1.853599 0.000628 0.001114 0.002564
 32   -0.814395 -0.093824 3.127092 0.022628 -3.115251 -0.531368
 33   14.298673 -0.408176 0.471578 0.052584 -0.007938 -0.999493
 34   15.835795 0.581398 0.242756 -0.042170 -0.113745 0.126437
 35   -0.815868 -0.091229 -3.114430 -0.056757 3.180131 0.123518
 36   14.294526 -0.410349 -0.467541 0.004035 0.017917 -0.186015
 37   15.834409 0.579420 -0.284600 0.098015 -0.092767 0.132118
 38   1.139685 -3.453749 -2.823813 -0.000358 -0.001783 -0.002626
 39   -4.453836 -1.054854 -0.746180 -0.000180 -0.004626 -0.004123
 40   1.118101 -3.449769 3.237290 -0.000358 -0.001867 -0.002627
 41   -4.441652 -1.055224 0.959566 -0.000121 -0.002421 -0.004123
 42   -0.657468 1.697302 -2.680801 0.000803 0.002915 0.000000
 43   -0.664068 1.698578 2.869377 0.000025 0.000002 0.002133
time 2
  0   0.016858 -6.534886 2.086372 0.000000 0.000000 -1.571069
  1   -1.093036 0.000002 -0.326057 -0.214066 -1.569082 -1.356583
  2   2.262337 0.113614 0.064702 -0.064453 -0.021548 -0.019258
  3   2.380047 0.353302 0.047440 0.055474 0.014090 0.029568
  4   2.033756 0.190472 -0.000128 0.051850 0.020314 -0.090933
  5   2.451511 0.204909 -0.003447 -0.000086 0.008024 0.034833
  6   7.247600 -0.397300 -0.109469 -0.004086 -0.045137 0.156861
  7   -2.022252 -0.104661 3.136172 -0.353230 -1.381638 -2.847089
  8   1.168026 -0.537438 -0.063437 0.501669 1.124289 0.315733
  9   6.790376 -0.619176 0.015206 -0.007426 -0.032654 -0.101354
 10   8.637599 0.544015 -0.090417 -1.559280 0.086942 -0.007355
 11   6.790465 -0.619039 0.017802 -0.008283 -0.033397 -0.086022
 12   -2.022474 -0.104699 -2.873818 -0.020356 1.239202 -3.227791
 13   1.167898 -0.537463 0.063297 0.142843 -1.098759 -0.433278
 14   7.002743 -0.617765 -0.183752 0.036837 -0.016160 -0.401720
 15   8.209042 0.615527 -0.255885 1.576777 0.012875 -0.002954
 16   7.002735 -0.617911 -0.183641 0.039670 -0.010225 -0.299853
 17   1.574674 0.609930 -0.000899 -0.046349 0.034159 0.143401
 18   -0.602177 0.511412 -0.000006 0.000000 0.000000 0.000000
 19   3.673773 0.177020 1.119313 -0.000002 -0.000014 -0.174510
 20   3.673767 0.176993 -1.117566 0.000007 -0.000003 -0.174546
 21   3.938451 1.334540 1.627658 0.000002 -0.000011 -0.000026
 22   -0.246060 -0.011889 0.516521 -0.000011 0.000031 0.000025
 23   3.942374 1.334565 -1.631083 0.000019 0.000002 -0.000024
 24   -0.246150 -0.011872 -0.516511 -0.000005 -0.000006 0.000048
 25   4.941364 1.997338 1.629330 0.000018 -0.000001 -0.000024
 26   4.941382 1.997366 -1.629410 -0.000001 0.000005 -0.000024
 27   2.914462 1.623171 1.514501 -0.000019 -0.000022 -0.000050
 28   2.916892 1.618870 -1.501142 -0.000002 -0.000009 -0.000024
 29   8.824059 0.150544 0.091743 0.000273 -0.000421 -0.157259
 30   2.111085 -0.592430 1.764788 0.005904 0.031692 -0.050518
 31   2.121290 -0.541757 -1.861412 0.002360 0.004222 0.009551
 32   -0.814395 -0.093824 3.127092 0.018154 -3.123274 -0.528181
 33   14.298673 -0.408176 0.471578 0.038646 -0.015150 -0.785118
 34   15.835795 0.581398 0.242756 -0.067910 -0.076578 0.153340
 35   -0.815868 -0.091229 -3.114430 -0.064238 3.179194 0.191771
 36   14.294526 -0.410349 -0.467541 0.003892 0.018001 -0.189955
 37   15.834409 0.579420 -0.284600 0.104891 -0.082836 0.123042
 38   1.139685 -3.453749 -2.823813 -0.001326 -0.006628 -0.009713
 39   -4.434304 -1.043135 -0.746180 -0.000683 -0.017198 -0.015398
 40   1.110288 -3.449769 3.229477 -0.001368 -0.006940 -0.009714
 41   -4.472903 -1.031785 0.959566 -0.000480 -0.009024 -0.015341
 42   -0.657468 1.697302 -2.661269 0.002984 0.010873 0.000000
 43   -0.664068 1.694672 2.869377 0.000112 0.000002 0.008030
time 3
  0   0.067641 -9.653887 1.793395 0.000000 0.000000 -1.571069
  1   -1.093036 0.000002 -0.326057 -0.214119 -1.569082 -1.356583
  2   2.262337 0.113614 0.064702 -0.070962 -0.020721 -0.022095
  3   2.380047 0.353302 0.047440 0.063109 0.015816 0.033893
  4   2.033756 0.190472 -0.000128 0.061643 0.020721 -0.087562
  5   2.451511 0.204909 -0.003447 0.000000 0.007789 0.034833
  6   7.247600 -0.397300 -0.109469 -0.003894 -0.042992 0.156861
  7   -2.022252 -0.104661 3.136172 -0.337893 -1.380312 -2.862585
  8   1.168026 -0.537438 -0.063437 0.533689 1.117396 0.368492
  9   6.790376 -0.619176 0.015206 -0.008591 -0.034322 -0.068375
 10   8.637599 0.544015 -0.090417 -1.566766 0.063361 -0.023199
 11   6.790465 -0.619039 0.017802 -0.009188 -0.034619 -0.063009
 12   -2.022474 -0.104699 -2.873818 -0.026488 1.241524 -3.234493
 13   1.167898 -0.537463 0.063297 0.165759 -1.084672 -0.460458
 14   7.002743 -0.617765 -0.183752 0.035584 -0.020135 -0.468549
 15   8.209042 0.615527 -0.255885 1.571025 0.013934 -0.026407
 16   7.002735 -0.617911 -0.183641 0.038494 -0.012876 -0.346601
 17   1.574674 0.609930 -0.000899 -0.058779 0.029899 0.132941
 18   -0.602177 0.511412 -0.000006 0.000000 0.000000 0.000000
 19   3.673773 0.177020 1.119313 -0.000002 -0.000014 -0.174510
 20   3.673767 0.176993 -1.117566 0.000007 -0.000003 -0.174546
 21   3.938451 1.334540 1.627658 0.000002 -0.000011 -0.000026
 22   -0.246060 -0.011889 0.516521 -0.000011 0.000031 0.000025
 23   3.942374 1.334565 -1.631083 0.000019 0.000002 -0.000024
 24   -0.246150 -0.011872 -0.516511 -0.000005 -0.000006 0.000048
 25   4.941364 1.997338 1.629330 0.000018 -0.000001 -0.000024
 26   4.941382 1.997366 -1.629410 -0.000001 0.000005 -0.000024
 27   2.914462 1.623171 1.514501 -0.000019 -0.000022 -0.000050
 28   2.916892 1.618870 -1.501142 -0.000002 -0.000009 -0.000024
 29   8.824059 0.150544 0.091743 0.000541 -0.000635 -0.138697
 30   2.107179 -0.631494 1.741350 0.012264 0.066594 -0.104962
 31   2.121290 -0.518319 -1.873131 0.004918 0.008755 0.019849
 32   -0.814395 -0.093824 3.127092 0.013866 -3.131010 -0.524481
 33   14.298673 -0.408176 0.471578 0.025403 -0.018885 -0.597024
 34   15.835795 0.581398 0.242756 -0.080423 -0.035556 0.178567
 35   -0.815868 -0.091229 -3.114430 -0.069255 3.178539 0.237181
 36   14.294526 -0.410349 -0.467541 0.000788 0.018660 -0.234061
 37   15.834409 0.579420 -0.284600 0.112496 -0.067966 0.107629
 38   1.139685 -3.453749 -2.823813 -0.002757 -0.013774 -0.020221
 39   -4.403053 -1.027509 -0.742274 -0.001426 -0.035738 -0.031973
 40   1.102476 -3.445863 3.217758 -0.002863 -0.014436 -0.020222
 41   -4.515873 -1.004441 0.955660 -0.000996 -0.018744 -0.031861
 42   -0.653562 1.697302 -2.626112 0.006196 0.022571 0.000042
 43   -0.667974 1.690765 2.869377 0.000225 -0.000014 0.016687
time 4
  0   0.134049 -12.772888 1.480885 0.000000 0.000000 -1.571069
  1   -1.093036 0.000002 -0.326057 -0.214119 -1.569082 -1.356583
  2   2.262337 0.113614 0.064702 -0.073968 -0.020912 -0.025420
  3   2.380047 0.353302 0.047440 0.068315 0.018764 0.039056
  4   2.033756 0.190472 -0.000128 0.068062 0.020650 -0.081400
  5   2.451511 0.204909 -0.003447 0.000000 0.007371 0.034833
  6   7.247600 -0.397300 -0.109469 -0.003499 -0.039612 0.156861
  7   -2.022252 -0.104661 3.136172 -0.323035 -1.376824 -2.877706
  8   1.168026 -0.537438 -0.063437 0.534321 1.114679 0.396706
  9   6.790376 -0.619176 0.015206 -0.009534 -0.035390 -0.045282
 10   8.637599 0.544015 -0.090417 -1.569143 0.042807 -0.030144
 11   6.790465 -0.619039 0.017802 -0.009889 -0.035301 -0.046860
 12   -2.022474 -0.104699 -2.873818 -0.030895 1.245849 -3.239184
 13   1.167898 -0.537463 0.063297 0.175882 -1.076180 -0.471778
 14   7.002743 -0.617765 -0.183752 0.034560 -0.023883 -0.530593
 15   8.209042 0.615527 -0.255885 1.551324 0.004477 -0.052146
 16   7.002735 -0.617911 -0.183641 0.037505 -0.015413 -0.389982
 17   1.574674 0.609930 -0.000899 -0.068894 0.024361 0.121150
 18   -0.602177 0.511412 -0.000006 0.000000 0.000000 0.000000
 19   3.673773 0.177020 1.119313 -0.000002 -0.000014 -0.174510
 20   3.673767 0.176993 -1.117566 0.000007 -0.000003 -0.174546
 21   3.938451 1.334540 1.627658 0.000002 -0.000011 -0.000026
 22   -0.246060 -0.011889 0.516521 -0.000011 0.000031 0.000025
 23   3.938468 1.334565 -1.631083 0.000019 0.000002 -0.000024
 24   -0.246150 -0.011872 -0.516511 -0.000005 -0.000006 0.000048
 25   4.941364 1.997338 1.629330 0.000018 -0.000001 -0.000024
 26   4.941382 1.997366 -1.629410 -0.000001 0.000005 -0.000024
 27   2.914462 1.619264 1.514501 -0.000019 -0.000022 -0.000050
 28   2.916892 1.618870 -1.501142 -0.000002 -0.000009 -0.000024
 29   8.824059 0.150544 0.091743 0.000897 -0.000896 -0.116058
 30   2.103272 -0.674464 1.714005 0.020007 0.108965 -0.171071
 31   2.125196 -0.490974 -1.884850 0.008029 0.014298 0.032350
 32   -0.814395 -0.093824 3.127092 0.011350 -3.139510 -0.493914
 33   14.298673 -0.408176 0.471578 0.010375 -0.020074 -0.390112
 34   15.835795 0.581398 0.242756 -0.081458 0.000830 0.169305
 35   -0.815868 -0.091229 -3.114430 -0.075504 3.176571 0.295081
 36   14.294526 -0.410349 -0.467541 -0.000231 0.018852 -0.248660
 37   15.834409 0.579420 -0.284600 0.117698 -0.043855 0.054391
 38   1.139685 -3.453749 -2.823813 -0.004505 -0.022438 -0.032990
 39   -4.367896 -1.007978 -0.738367 -0.002325 -0.058233 -0.052111
 40   1.090756 -3.441956 3.206039 -0.004694 -0.023522 -0.032991
 41   -4.566656 -0.965377 0.955660 -0.001619 -0.030561 -0.051914
 42   -0.649655 1.697302 -2.587048 0.010115 0.036800 0.000125
 43   -0.667974 1.682953 2.869377 0.000375 -0.000061 0.027226
time 5
  0   0.208270 -15.891888 1.199626 0.000000 0.000000 -1.571069
  1   -1.093036 0.000002 -0.326057 -0.214119 -1.569082 -1.356583
  2   2.262337 0.113614 0.064702 -0.073000 -0.021308 -0.028384
  3   2.380047 0.353302 0.047440 0.070310 0.021640 0.043443
  4   2.033756 0.190472 -0.000128 0.070367 0.019942 -0.075129
  5   2.451511 0.204909 -0.003447 0.000000 0.006706 0.034833
  6   7.247600 -0.397300 -0.109469 -0.003163 -0.034890 0.156861
  7   -2.022252 -0.104661 3.136172 -0.309423 -1.370914 -2.890948
  8   1.168026 -0.537438 -0.063437 0.519957 1.114025 0.414672
  9   6.790376 -0.619176 0.015206 -0.010144 -0.036124 -0.029735
 10   8.637599 0.544015 -0.090417 -1.567294 0.028800 -0.022547
 11   6.790465 -0.619039 0.017802 -0.010298 -0.035898 -0.035960
 12   -2.022474 -0.104699 -2.873818 -0.032907 1.252234 -3.241099
 13   1.167898 -0.537463 0.063297 0.174616 -1.072925 -0.470204
 14   7.002743 -0.617765 -0.183752 0.034047 -0.027063 -0.582324
 15   8.209042 0.615527 -0.255885 1.520837 -0.017389 -0.075239
 16   7.002735 -0.617911 -0.183641 0.036752 -0.017556 -0.426299
 17   1.574674 0.609930 -0.000899 -0.075556 0.018468 0.112132
 18   -0.602177 0.511412 -0.000006 0.000000 0.000000 0.000000
 19   3.673773 0.177020 1.119313 -0.000002 -0.000014 -0.174510
 20   3.673767 0.176993 -1.117566 0.000007 -0.000003 -0.174546
 21   3.938451 1.334540 1.627658 0.000002 -0.000011 -0.000026
 22   -0.246060 -0.011889 0.516521 -0.000011 0.000031 0.000025
 23   3.942374 1.334565 -1.631083 0.000019 0.000002 -0.000024
 24   -0.246150 -0.011872 -0.516511 -0.000005 -0.000006 0.000048
 25   4.941364 1.997338 1.629330 0.000018 -0.000001 -0.000024
 26   4.941382 1.997366 -1.629410 -0.000001 0.000005 -0.000024
 27   2.914462 1.619264 1.514501 -0.000019 -0.000022 -0.000050
 28   2.916892 1.618870 -1.501142 -0.000002 -0.000009 -0.000024
 29   8.824059 0.150544 0.091743 0.001254 -0.001181 -0.091487
 30   2.099366 -0.721340 1.686661 0.028414 0.155056 -0.242991
 31   2.125196 -0.459723 -1.900475 0.011415 0.020307 0.045942
 32   -0.814395 -0.093824 3.127092 0.009206 -3.148583 -0.460842
 33   14.298673 -0.408176 0.471578 -0.001466 -0.018821 -0.227664
 34   15.835795 0.581398 0.242756 -0.072326 0.026357 0.125732
 35   -0.815868 -0.091229 -3.114430 -0.080344 3.174135 0.344052
 36   14.294526 -0.410349 -0.467541 -0.002340 0.019175 -0.278477
 37   15.834409 0.579420 -0.284600 0.120436 -0.016391 -0.003865
 38   1.139685 -3.453749 -2.823813 -0.006399 -0.031874 -0.046920
 39   -4.328832 -0.988446 -0.730555 -0.003308 -0.082718 -0.074043
 40   1.075131 -3.438050 3.194320 -0.006652 -0.033415 -0.046921
 41   -4.621346 -0.926313 0.951753 -0.002302 -0.043408 -0.073763
 42   -0.645749 1.697302 -2.544078 0.014358 0.052270 0.000293
 43   -0.671881 1.675140 2.869377 0.000537 -0.000124 0.038686
time 6
  0   0.298116 -19.010889 0.973057 0.000000 0.000000 -1.571069
  1   -1.093036 0.000002 -0.326057 -0.214066 -1.569082 -1.356583
  2   2.262337 0.113614 0.064702 -0.067905 -0.020840 -0.030028
  3   2.380047 0.353302 0.047440 0.068735 0.023390 0.046116
  4   2.033756 0.190472 -0.000128 0.068227 0.018576 -0.071830
  5   2.451511 0.204909 -0.003447 0.000000 0.005857 0.034833
  6   7.247600 -0.397300 -0.109469 -0.002540 -0.028574 0.156861
  7   -2.022252 -0.104661 3.136172 -0.296674 -1.362295 -2.903063
  8   1.168026 -0.537438 -0.063437 0.486292 1.118201 0.412964
  9   6.790376 -0.619176 0.015206 -0.010477 -0.036525 -0.020906
 10   8.637599 0.544015 -0.090417 -1.561922 0.023309 0.002267
 11   6.790465 -0.619039 0.017802 -0.010473 -0.036125 -0.029789
 12   -2.022474 -0.104699 -2.873818 -0.031757 1.261290 -3.240046
 13   1.167898 -0.537463 0.063297 0.157464 -1.076892 -0.451620
 14   7.002743 -0.617765 -0.183752 0.033706 -0.029391 -0.619204
 15   8.209042 0.615527 -0.255885 1.482441 -0.048712 -0.087386
 16   7.002735 -0.617911 -0.183641 0.036281 -0.019078 -0.452019
 17   1.574674 0.609930 -0.000899 -0.078318 0.011723 0.108288
 18   -0.602177 0.511412 -0.000006 0.000000 0.000000 0.000000
 19   3.673773 0.177020 1.119313 -0.000002 -0.000014 -0.174510
 20   3.673767 0.176993 -1.117566 0.000007 -0.000003 -0.174546
 21   3.942357 1.338447 1.627658 0.000002 -0.000011 -0.000026
 22   -0.246060 -0.011889 0.516521 -0.000011 0.000031 0.000025
 23   3.938468 1.334565 -1.631083 0.000019 0.000002 -0.000024
 24   -0.246150 -0.011872 -0.516511 -0.000005 -0.000006 0.000048
 25   4.941364 1.997338 1.629330 0.000018 -0.000001 -0.000024
 26   4.941382 1.997366 -1.629410 -0.000001 0.000005 -0.000024
 27   2.914462 1.623171 1.514501 -0.000019 -0.000022 -0.000050
 28   2.916892 1.618870 -1.501142 -0.000002 -0.000009 -0.000024
 29   8.824059 0.150544 0.091743 0.001699 -0.001465 -0.066916
 30   2.095459 -0.772123 1.655410 0.036835 0.201176 -0.314912
 31   2.129103 -0.428472 -1.916101 0.014786 0.026316 0.059552
 32   -0.814395 -0.093824 3.127092 0.009485 -3.155173 -0.422590
 33   14.298673 -0.408176 0.471578 -0.012480 -0.015848 -0.071408
 34   15.835795 0.581398 0.242756 -0.055511 0.012983 -0.061440
 35   -0.815868 -0.091229 -3.114430 -0.085185 3.170762 0.395324
 36   14.294526 -0.410349 -0.467541 -0.004114 0.019403 -0.303040
 37   15.834409 0.579420 -0.284600 0.117599 0.014733 -0.065113
 38   1.139685 -3.453749 -2.823813 -0.008272 -0.041321 -0.060788
 39   -4.289768 -0.968914 -0.722742 -0.004290 -0.107214 -0.095947
 40   1.063412 -3.430237 3.178694 -0.008630 -0.043297 -0.060789
 41   -4.679941 -0.887250 0.947847 -0.002985 -0.056256 -0.095583
 42   -0.641843 1.697302 -2.501108 0.018612 0.067740 0.000502
 43   -0.675787 1.667327 2.869377 0.000700 -0.000218 0.050145
time 7
  0   0.411401 -22.129890 0.859772 0.000000 0.000000 -1.571069
  1   -1.093036 0.000002 -0.326057 -0.214066 -1.569082 -1.356583
  2   2.262337 0.113614 0.064702 -0.059689 -0.018695 -0.030552
  3   2.380047 0.353302 0.047440 0.063784 0.022599 0.046973
  4   2.033756 0.190472 -0.000128 0.061975 0.016515 -0.070960
  5   2.451511 0.204909 -0.003447 0.000000 0.004760 0.034833
  6   7.247600 -0.397300 -0.109469 -0.001797 -0.020581 0.156829
  7   -2.022252 -0.104661 3.136172 -0.284596 -1.350908 -2.914521
  8   1.168026 -0.537438 -0.063437 0.445033 1.125547 0.399680
  9   6.790376 -0.619176 0.015206 -0.010477 -0.036725 -0.017812
 10   8.637599 0.544015 -0.090417 -1.551178 0.026125 0.046975
 11   6.790465 -0.619039 0.017802 -0.010473 -0.036239 -0.027655
 12   -2.022474 -0.104699 -2.873818 -0.027925 1.272899 -3.236120
 13   1.167898 -0.537463 0.063297 0.125128 -1.087520 -0.417418
 14   7.002743 -0.617765 -0.183752 0.033535 -0.030584 -0.638345
 15   8.209042 0.615527 -0.255885 1.452817 -0.085256 -0.088709
 16   7.002735 -0.617911 -0.183641 0.036046 -0.019868 -0.465376
 17   1.574674 0.609930 -0.000899 -0.076937 0.003629 0.108399
 18   -0.602177 0.511412 -0.000006 0.000000 0.000000 0.000000
 19   3.673773 0.177020 1.119313 -0.000002 -0.000014 -0.174510
 20   3.673767 0.176993 -1.117566 0.000007 -0.000003 -0.174546
 21   3.938451 1.334540 1.627658 0.000002 -0.000011 -0.000026
 22   -0.246060 -0.011889 0.516521 -0.000011 0.000031 0.000025
 23   3.938468 1.334565 -1.631083 0.000019 0.000002 -0.000024
 24   -0.246150 -0.011872 -0.516511 -0.000005 -0.000006 0.000048
 25   4.941364 1.997338 1.629330 0.000018 -0.000001 -0.000024
 26   4.941382 1.997366 -1.629410 -0.000001 0.000005 -0.000024
 27   2.914462 1.619264 1.514501 -0.000019 -0.000022 -0.000050
 28   2.916892 1.618870 -1.501142 -0.000002 -0.000009 -0.000024
 29   8.824059 0.150544 0.091743 0.002056 -0.001726 -0.044276
 30   2.091553 -0.815093 1.628065 0.044564 0.243547 -0.380999
 31   2.129103 -0.401128 -1.927820 0.017896 0.031859 0.072052
 32   -0.814395 -0.093824 3.127092 0.006969 -3.159567 -0.426973
 33   14.298673 -0.408176 0.471578 -0.012480 -0.015848 -0.071408
 34   15.835795 0.581398 0.242756 -0.046885 0.033580 -0.091827
 35   -0.815868 -0.091229 -3.114430 -0.084833 3.166640 0.407321
 36   14.294526 -0.410349 -0.467541 -0.010094 0.019810 -0.385460
 37   15.834409 0.579420 -0.284600 0.102094 0.061086 -0.159368
 38   1.139685 -3.457655 -2.823813 -0.010019 -0.049986 -0.073557
 39   -4.254611 -0.949382 -0.714929 -0.005189 -0.129709 -0.116085
 40   1.051693 -3.426331 3.166975 -0.010440 -0.052395 -0.073558
 41   -4.730724 -0.852092 0.947847 -0.003620 -0.068072 -0.115664
 42   -0.637936 1.697302 -2.458138 0.022519 0.081969 0.000836
 43   -0.679693 1.655608 2.869377 0.000850 -0.000359 0.060684
time 8
  0   0.552030 -25.248892 0.887117 0.000000 0.000000 -1.571069
  1   -1.093036 0.000002 -0.326057 -0.214066 -1.569082 -1.356583
  2   2.262337 0.113614 0.064702 -0.049410 -0.010570 -0.029703
  3   2.380047 0.353302 0.047440 0.055399 0.012831 0.046218
  4   2.033756 0.190472 -0.000128 0.052348 0.013663 -0.071685
  5   2.451511 0.204909 -0.003447 0.000137 0.003363 0.034833
  6   7.247600 -0.397300 -0.109469 -0.000874 -0.010681 0.156829
  7   -2.022252 -0.104661 3.136172 -0.272901 -1.336321 -2.925603
  8   1.168026 -0.537438 -0.063437 0.396560 1.135761 0.368998
  9   6.790376 -0.619176 0.015206 -0.010477 -0.036592 -0.019925
 10   8.637599 0.544015 -0.090417 -1.531540 0.036120 0.100510
 11   6.790465 -0.619039 0.017802 -0.010473 -0.036154 -0.029154
 12   -2.022474 -0.104699 -2.873818 -0.021218 1.287382 -3.229035
 13   1.167898 -0.537463 0.063297 0.079927 -1.105065 -0.370564
 14   7.002743 -0.617765 -0.183752 0.033478 -0.030584 -0.639335
 15   8.209042 0.615527 -0.255885 1.439299 -0.120286 -0.084680
 16   7.002735 -0.617911 -0.183641 0.035999 -0.019924 -0.466149
 17   1.574674 0.609930 -0.000899 -0.070722 -0.003921 0.111577
 18   -0.602177 0.511412 -0.000006 0.000000 0.000000 0.000000
 19   3.673773 0.177020 1.119313 -0.000002 -0.000014 -0.174510
 20   3.673767 0.176993 -1.117566 0.000007 -0.000003 -0.174546
 21   3.938451 1.334540 1.627658 0.000002 -0.000011 -0.000026
 22   -0.246060 -0.011889 0.516521 -0.000011 0.000031 0.000025
 23   3.942374 1.334565 -1.631083 0.000019 0.000002 -0.000024
 24   -0.246150 -0.011872 -0.516511 -0.000005 -0.000006 0.000048
 25   4.941364 1.997338 1.629330 0.000018 -0.000001 -0.000024
 26   4.941382 1.997366 -1.629410 -0.000001 0.000005 -0.000024
 27   2.914462 1.623171 1.514501 -0.000019 -0.000022 -0.000050
 28   2.916892 1.618870 -1.501142 -0.000002 -0.000009 -0.000024
 29   8.824059 0.150544 0.091743 0.002323 -0.001940 -0.025661
 30   2.087647 -0.850250 1.604627 0.050938 0.278450 -0.435422
 31   2.133009 -0.377690 -1.939539 0.020455 0.036392 0.082333
 32   -0.814395 -0.093824 3.127092 0.004918 -3.162432 -0.433975
 33   14.298673 -0.408176 0.471578 -0.006440 -0.017722 -0.158111
 34   15.835795 0.581398 0.242756 -0.046885 0.072504 -0.044769
 35   -0.815868 -0.091229 -3.114430 -0.078760 3.152025 0.408745
 36   14.294526 -0.410349 -0.467541 -0.015056 0.019786 -0.453203
 37   15.834409 0.579420 -0.284600 0.063398 0.111304 -0.278213
 38   1.139685 -3.457655 -2.823813 -0.011451 -0.057132 -0.084065
 39   -4.223360 -0.933757 -0.703210 -0.005932 -0.148249 -0.132688
 40   1.039974 -3.422424 3.155256 -0.011935 -0.059878 -0.084066
 41   -4.773694 -0.820841 0.943941 -0.004136 -0.077792 -0.132184
 42   -0.634030 1.693396 -2.426887 0.025743 0.093682 0.001213
 43   -0.679693 1.647795 2.869377 0.000975 -0.000532 0.069342
time 9
  0   0.723910 -28.363985 1.062904 0.000000 0.000000 -1.571069
  1   -1.093036 0.000002 -0.326057 -0.214066 -1.569082 -1.356583
  2   2.262337 0.113614 0.064702 -0.037806 0.005861 -0.027462
  3   2.380047 0.353302 0.047440 0.043728 -0.008765 0.043994
  4   2.033756 0.190472 -0.000128 0.039863 0.009995 -0.073933
  5   2.451511 0.204909 -0.003447 0.000274 0.001692 0.034833
  6   7.247600 -0.397300 -0.109469 0.000145 0.000872 0.156829
  7   -2.022252 -0.104661 3.136172 -0.261207 -1.318910 -2.935934
  8   1.168026 -0.537438 -0.063437 0.337519 1.146981 0.315986
  9   6.790376 -0.619176 0.015206 -0.010200 -0.036258 -0.026415
 10   8.637599 0.544015 -0.090417 -1.511461 0.053999 0.131618
 11   6.790465 -0.619039 0.017802 -0.010327 -0.035983 -0.033711
 12   -2.022474 -0.104699 -2.873818 -0.011446 1.304826 -3.219174
 13   1.167898 -0.537463 0.063297 0.020105 -1.127797 -0.309666
 14   7.002743 -0.617765 -0.183752 0.033592 -0.029675 -0.623494
 15   8.209042 0.615527 -0.255885 1.438508 -0.144648 -0.077163
 16   7.002735 -0.617911 -0.183641 0.036187 -0.019247 -0.455055
 17   1.574674 0.609930 -0.000899 -0.059876 -0.010429 0.119894
 18   -0.602177 0.511412 -0.000006 0.000000 0.000000 0.000000
 19   3.677679 0.177020 1.119313 -0.000002 -0.000014 -0.174510
 20   3.673767 0.176993 -1.117566 0.000007 -0.000003 -0.174546
 21   3.942357 1.334540 1.627658 0.000002 -0.000011 -0.000026
 22   -0.246060 -0.011889 0.516521 -0.000011 0.000031 0.000025
 23   3.942374 1.334565 -1.631083 0.000019 0.000002 -0.000024
 24   -0.246150 -0.011872 -0.516511 -0.000005 -0.000006 0.000048
 25   4.941364 1.997338 1.629330 0.000018 -0.000001 -0.000024
 26   4.941382 1.997366 -1.629410 -0.000001 0.000005 -0.000024
 27   2.914462 1.619264 1.514501 -0.000019 -0.000022 -0.000050
 28   2.916892 1.618870 -1.501142 -0.000002 -0.000009 -0.000024
 29   8.824059 0.150544 0.091743 0.002501 -0.002083 -0.013053
 30   2.083740 -0.877595 1.589002 0.055250 0.302134 -0.472369
 31   2.133009 -0.362064 -1.947352 0.022186 0.039474 0.089320
 32   -0.814395 -0.093824 3.127092 0.000724 -3.163291 -0.471543
 33   14.298673 -0.408176 0.471578 0.006767 -0.019893 -0.341124
 34   15.835795 0.581398 0.242756 -0.057282 0.075091 -0.052090
 35   -0.815868 -0.091229 -3.114430 -0.068022 3.136004 0.358514
 36   14.294526 -0.410349 -0.467541 -0.023241 0.018995 -0.565747
 37   15.834409 0.579420 -0.284600 0.014734 0.146344 -0.373178
 38   1.139685 -3.457655 -2.823813 -0.012419 -0.061976 -0.091213
 39   -4.203828 -0.925944 -0.691491 -0.006436 -0.160821 -0.143935
 40   1.036067 -3.422424 3.151350 -0.012945 -0.064952 -0.091214
 41   -4.801039 -0.801310 0.943941 -0.004483 -0.084395 -0.143402
 42   -0.634030 1.693396 -2.403449 0.027924 0.101625 0.001757
 43   -0.679693 1.636076 2.869377 0.001062 -0.000751 0.075238
time 10
  0   0.895790 -31.479080 1.332443 0.000000 0.000000 -1.571069
  1   -1.093036 0.000002 -0.326057 -0.214066 -1.569082 -1.356583
  2   2.262337 0.113614 0.064702 -0.024916 0.026055 -0.024788
  3   2.380047 0.353302 0.047440 0.029792 -0.035227 0.040729
  4   2.033756 0.190472 -0.000128 0.025238 0.005561 -0.077449
  5   2.451511 0.204909 -0.003447 0.000428 -0.000149 0.034833
  6   7.247600 -0.397300 -0.109469 0.001211 0.013827 0.156829
  7   -2.022252 -0.104661 3.136172 -0.250279 -1.299048 -2.945513
  8   1.168026 -0.537438 -0.063437 0.263228 1.156893 0.238492
  9   6.790376 -0.619176 0.015206 -0.009645 -0.035457 -0.043471
 10   8.637599 0.544015 -0.090417 -1.501598 0.079622 0.128507
 11   6.790465 -0.619039 0.017802 -0.009889 -0.035358 -0.045649
 12   -2.022474 -0.104699 -2.873818 0.001584 1.324475 -3.205579
 13   1.167898 -0.537463 0.063297 -0.059119 -1.151749 -0.228852
 14   7.002743 -0.617765 -0.183752 0.033933 -0.027461 -0.588017
 15   8.209042 0.615527 -0.255885 1.444620 -0.158267 -0.067301
 16   7.002735 -0.617911 -0.183641 0.036705 -0.017781 -0.430328
 17   1.574674 0.609930 -0.000899 -0.046308 -0.017245 0.135713
 18   -0.602177 0.511412 -0.000006 0.000000 0.000000 0.000000
 19   3.677679 0.180927 1.119313 -0.000002 -0.000014 -0.174510
 20   3.673767 0.176993 -1.117566 0.000007 -0.000003 -0.174546
 21   3.942357 1.338447 1.627658 0.000002 -0.000011 -0.000026
 22   -0.246060 -0.011889 0.516521 -0.000011 0.000031 0.000025
 23   3.942374 1.338472 -1.631083 0.000019 0.000002 -0.000024
 24   -0.246150 -0.011872 -0.516511 -0.000005 -0.000006 0.000048
 25   4.941364 1.997338 1.629330 0.000018 -0.000001 -0.000024
 26   4.941382 1.997366 -1.629410 -0.000001 0.000005 -0.000024
 27   2.914462 1.623171 1.514501 -0.000019 -0.000022 -0.000050
 28   2.916892 1.622777 -1.501142 -0.000002 -0.000009 -0.000024
 29   8.824059 0.150544 0.091743 0.002591 -0.002154 -0.008386
 30   2.083740 -0.885408 1.585095 0.056850 0.310882 -0.485964
 31   2.133009 -0.358158 -1.947352 0.022830 0.040613 0.091903
 32   -0.814395 -0.093824 3.127092 0.000258 -3.165966 -0.462834
 33   14.298673 -0.408176 0.471578 0.014450 -0.020061 -0.445929
 34   15.835795 0.581398 0.242756 -0.068876 0.073871 -0.044857
 35   -0.815868 -0.091229 -3.114430 -0.056316 3.120639 0.255806
 36   14.294526 -0.410349 -0.467541 -0.034447 0.016359 -0.722862
 37   15.834409 0.579420 -0.284600 -0.032158 0.163749 -0.422156
 38   1.135779 -3.457655 -2.823813 -0.012777 -0.063760 -0.093840
 39   -4.196015 -0.922037 -0.679772 -0.006615 -0.165447 -0.148086
 40   1.032161 -3.422424 3.147443 -0.013324 -0.066832 -0.093841
 41   -4.812757 -0.793497 0.943941 -0.004615 -0.086828 -0.147525
 42   -0.634030 1.689489 -2.395636 0.028727 0.104553 0.002426
 43   -0.683600 1.628263 2.869377 0.001087 -0.001034 0.077413
time 11
  0   1.040326 -34.598080 1.652765 0.000000 0.000000 -1.571069
  1   -1.093036 0.000002 -0.326057 -0.214066 -1.569082 -1.356583
  2   2.262337 0.113614 0.064702 -0.010446 0.041348 -0.022330
  3   2.380047 0.353302 0.047440 0.015466 -0.053551 0.036750
  4   2.033756 0.190472 -0.000128 0.009064 0.000336 -0.081436
  5   2.451511 0.204909 -0.003447 0.000565 -0.002055 0.034833
  6   7.247600 -0.397300 -0.109469 0.002506 0.027130 0.156861
  7   -2.022252 -0.104661 3.136172 -0.240310 -1.278004 -2.953684
  8   1.168026 -0.537438 -0.063437 0.179824 1.165547 0.138414
  9   6.790376 -0.619176 0.015206 -0.008646 -0.034456 -0.066790
 10   8.637599 0.544015 -0.090417 -1.502214 0.108130 0.105140
 11   6.790465 -0.619039 0.017802 -0.009276 -0.034676 -0.061856
 12   -2.022474 -0.104699 -2.873818 0.019021 1.345111 -3.188058
 13   1.167898 -0.537463 0.063297 -0.159853 -1.168786 -0.125701
 14   7.002743 -0.617765 -0.183752 0.034617 -0.023770 -0.527788
 15   8.209042 0.615527 -0.255885 1.453895 -0.165682 -0.055333
 16   7.002735 -0.617911 -0.183641 0.037552 -0.015300 -0.388051
 17   1.574674 0.609930 -0.000899 -0.032578 -0.027422 0.149721
 18   -0.602177 0.511412 -0.000006 0.000000 0.000000 0.000000
 19   3.677679 0.177020 1.119313 -0.000002 -0.000014 -0.174510
 20   3.673767 0.176993 -1.117566 0.000007 -0.000003 -0.174546
 21   3.938451 1.334540 1.627658 0.000002 -0.000011 -0.000026
 22   -0.246060 -0.011889 0.516521 -0.000011 0.000031 0.000025
 23   3.942374 1.334565 -1.631083 0.000019 0.000002 -0.000024
 24   -0.246150 -0.011872 -0.516511 -0.000005 -0.000006 0.000048
 25   4.941364 1.997338 1.629330 0.000018 -0.000001 -0.000024
 26   4.941382 1.997366 -1.629410 -0.000001 0.000005 -0.000024
 27   2.914462 1.619264 1.514501 -0.000019 -0.000022 -0.000050
 28   2.920798 1.618870 -1.501142 -0.000002 -0.000009 -0.000024
 29   8.824059 0.150544 0.091743 0.002591 -0.002106 -0.013161
 30   2.087647 -0.873689 1.589002 0.053406 0.298356 -0.470739
 31   2.133009 -0.369877 -1.943445 0.021558 0.037946 0.084425
 32   -0.814395 -0.093824 3.127092 0.006223 -3.170359 -0.388494
 33   14.298673 -0.408176 0.471578 0.014545 -0.020061 -0.447914
 34   15.835795 0.581398 0.242756 -0.074373 0.079630 0.008066
 35   -0.815868 -0.091229 -3.114430 -0.047603 3.106023 0.119135
 36   14.294526 -0.410349 -0.467541 -0.046096 0.011421 -0.893957
 37   15.834409 0.579420 -0.284600 -0.070617 0.169431 -0.423069
 38   1.127966 -3.453749 -2.823813 -0.012061 -0.060060 -0.093107
 39   -4.203828 -0.922037 -0.668053 -0.005944 -0.158388 -0.146964
 40   1.039974 -3.422424 3.147443 -0.012166 -0.061035 -0.093047
 41   -4.804945 -0.797403 0.943941 -0.004327 -0.083796 -0.146431
 42   -0.634030 1.681677 -2.403449 0.027888 0.101272 0.005061
 43   -0.683600 1.616544 2.861564 -0.000125 -0.005474 0.077413
time 12
  0   1.110640 -37.720985 1.965275 0.000000 0.000000 -1.571069
  1   -1.093036 0.000002 -0.326057 -0.214066 -1.569082 -1.356583
  2   2.262337 0.113614 0.064702 0.005094 0.046129 -0.020342
  3   2.380047 0.353302 0.047440 0.001830 -0.056967 0.032730
  4   2.033756 0.190472 -0.000128 -0.007903 -0.005381 -0.085532
  5   2.451511 0.204909 -0.003447 0.000702 -0.003830 0.034833
  6   7.247600 -0.397300 -0.109469 0.003656 0.039247 0.156861
  7   -2.022252 -0.104661 3.136172 -0.232833 -1.257940 -2.959507
  8   1.168026 -0.537438 -0.063437 0.088511 1.172289 0.016511
  9   6.790376 -0.619176 0.015206 -0.007426 -0.032787 -0.099845
 10   8.637599 0.544015 -0.090417 -1.513222 0.130162 0.072224
 11   6.790465 -0.619039 0.017802 -0.008312 -0.033482 -0.085041
 12   -2.022474 -0.104699 -2.873818 0.040673 1.364702 -3.166038
 13   1.167898 -0.537463 0.063297 -0.268672 -1.174431 -0.012319
 14   7.002743 -0.617765 -0.183752 0.035926 -0.018829 -0.447015
 15   8.209042 0.615527 -0.255885 1.464321 -0.165833 -0.041923
 16   7.002735 -0.617911 -0.183641 0.038870 -0.012030 -0.331533
 17   1.574674 0.609930 -0.000899 -0.019742 -0.039137 0.158629
 18   -0.602177 0.511412 -0.000006 0.000000 0.000000 0.000000
 19   3.673773 0.177020 1.119313 -0.000002 -0.000014 -0.174510
 20   3.673767 0.180900 -1.117566 0.000007 -0.000003 -0.174546
 21   3.938451 1.334540 1.627658 0.000002 -0.000011 -0.000026
 22   -0.246060 -0.011889 0.516521 -0.000011 0.000031 0.000025
 23   3.938468 1.334565 -1.631083 0.000019 0.000002 -0.000024
 24   -0.246150 -0.011872 -0.516511 -0.000005 -0.000006 0.000048
 25   4.941364 1.997338 1.629330 0.000018 -0.000001 -0.000024
 26   4.941382 1.997366 -1.629410 -0.000001 0.000005 -0.000024
 27   2.914462 1.619264 1.514501 -0.000019 -0.000022 -0.000050
 28   2.916892 1.618870 -1.501142 -0.000002 -0.000009 -0.000024
 29   8.824059 0.150544 0.091743 0.002501 -0.001988 -0.026090
 30   2.095459 -0.838531 1.600721 0.044076 0.264384 -0.429375
 31   2.129103 -0.405034 -1.931726 0.018141 0.030693 0.064119
 32   -0.814395 -0.093824 3.127092 0.014519 -3.174466 -0.295540
 33   14.298673 -0.408176 0.471578 0.012412 -0.020100 -0.419013
 34   15.835795 0.581398 0.242756 -0.077962 0.089245 0.071000
 35   -0.815868 -0.091229 -3.114430 -0.043554 3.093844 -0.054510
 36   14.294526 -0.410349 -0.467541 -0.056511 0.005285 -1.072082
 37   15.834409 0.579420 -0.284600 -0.096584 0.171197 -0.372823
 38   1.108434 -3.453749 -2.823813 -0.010061 -0.050010 -0.091091
 39   -4.215548 -0.922037 -0.656334 -0.004123 -0.139201 -0.143767
 40   1.063412 -3.430237 3.147443 -0.009051 -0.045321 -0.090848
 41   -4.793226 -0.805216 0.943941 -0.003560 -0.075599 -0.143346
 42   -0.637936 1.669957 -2.430794 0.025599 0.092364 0.010999
 43   -0.679693 1.608732 2.834219 -0.003448 -0.016960 0.077288
time 13
  0   1.134078 -40.839989 2.207470 0.000000 0.000000 -1.571069
  1   -1.093036 0.000002 -0.326057 -0.214066 -1.569082 -1.356679
  2   2.262337 0.113614 0.064702 0.020965 0.043517 -0.018933
  3   2.380047 0.353302 0.047440 -0.011131 -0.051658 0.029302
  4   2.033756 0.190472 -0.000128 -0.025313 -0.011277 -0.088903
  5   2.451511 0.204909 -0.003447 0.000736 -0.005214 0.034833
  6   7.247600 -0.397300 -0.109469 0.004447 0.048499 0.156861
  7   -2.022252 -0.104661 3.136172 -0.229478 -1.240961 -2.961573
  8   1.168026 -0.537438 -0.063437 -0.009637 1.171987 -0.123927
  9   6.790376 -0.619176 0.015206 -0.005817 -0.030385 -0.144295
 10   8.637599 0.544015 -0.090417 -1.531980 0.137764 0.042635
 11   6.790465 -0.619039 0.017802 -0.007115 -0.031890 -0.116070
 12   -2.022474 -0.104699 -2.873818 0.065296 1.381158 -3.141337
 13   1.167898 -0.537463 0.063297 -0.366454 -1.170972 0.090772
 14   7.002743 -0.617765 -0.183752 0.037748 -0.013662 -0.359147
 15   8.209042 0.615527 -0.255885 1.475682 -0.159553 -0.027430
 16   7.002735 -0.617911 -0.183641 0.040518 -0.008590 -0.269993
 17   1.574674 0.609930 -0.000899 -0.006296 -0.048012 0.163323
 18   -0.602177 0.511412 -0.000006 0.000000 0.000000 0.000000
 19   3.673773 0.177020 1.119313 -0.000002 -0.000014 -0.174510
 20   3.673767 0.176993 -1.117566 0.000007 -0.000003 -0.174546
 21   3.938451 1.334540 1.627658 0.000002 -0.000011 -0.000026
 22   -0.246060 -0.011889 0.516521 -0.000011 0.000031 0.000025
 23   3.942374 1.338472 -1.631083 0.000019 0.000002 -0.000024
 24   -0.246150 -0.011872 -0.516511 -0.000005 -0.000006 0.000048
 25   4.941364 1.997338 1.629330 0.000018 -0.000001 -0.000024
 26   4.941382 1.997366 -1.629410 -0.000001 0.000005 -0.000024
 27   2.914462 1.623171 1.514501 -0.000019 -0.000022 -0.000050
 28   2.916892 1.618870 -1.501142 -0.000002 -0.000009 -0.000024
 29   8.824059 0.150544 0.091743 0.002323 -0.001798 -0.045135
 30   2.107179 -0.783842 1.624159 0.030326 0.214283 -0.368455
 31   2.125196 -0.455817 -1.912194 0.013085 0.019996 0.034205
 32   -0.814395 -0.093824 3.127092 0.025238 -3.177331 -0.184713
 33   14.298673 -0.408176 0.471578 0.007654 -0.019997 -0.354383
 34   15.835795 0.581398 0.242756 -0.080492 0.095980 0.114838
 35   -0.815868 -0.091229 -3.114430 -0.041706 3.087192 -0.232866
 36   14.294526 -0.410349 -0.467541 -0.064277 -0.001750 -1.210272
 37   15.834409 0.579420 -0.284600 -0.099205 0.174064 -0.270050
 38   1.081089 -3.445936 -2.823813 -0.007136 -0.035212 -0.087853
 39   -4.235079 -0.925944 -0.640708 -0.001450 -0.110929 -0.138747
 40   1.094663 -3.438050 3.151350 -0.004462 -0.022160 -0.087426
 41   -4.769788 -0.813029 0.947847 -0.002422 -0.063506 -0.138466
 42   -0.645749 1.646519 -2.465951 0.022231 0.079239 0.019322
 43   -0.679693 1.600919 2.795156 -0.008346 -0.033735 0.076995
time 14
  0   1.114546 -43.958988 2.352005 0.000000 0.000000 -1.571069
  1   -1.093036 0.000002 -0.326057 -0.214066 -1.569082 -1.356679
  2   2.262337 0.113614 0.064702 0.036441 0.036206 -0.017975
  3   2.380047 0.353302 0.047440 -0.023417 -0.040716 0.026996
  4   2.033756 0.190472 -0.000128 -0.042483 -0.016730 -0.091114
  5   2.451511 0.204909 -0.003447 0.000839 -0.006024 0.034833
  6   7.247600 -0.397300 -0.109469 0.005023 0.054048 0.156956
  7   -2.022252 -0.104661 3.136172 -0.229478 -1.228652 -2.959883
  8   1.168026 -0.537438 -0.063437 -0.107279 1.163283 -0.267655
  9   6.790376 -0.619176 0.015206 -0.003930 -0.027381 -0.198556
 10   8.637599 0.544015 -0.090417 -1.554260 0.134737 0.028962
 11   6.790465 -0.619039 0.017802 -0.005772 -0.029872 -0.154136
 12   -2.022474 -0.104699 -2.873818 0.091642 1.392768 -3.114721
 13   1.167898 -0.537463 0.063297 -0.437594 -1.161107 0.167651
 14   7.002743 -0.617765 -0.183752 0.039854 -0.009006 -0.277714
 15   8.209042 0.615527 -0.255885 1.488121 -0.149037 -0.022017
 16   7.002735 -0.617911 -0.183641 0.042213 -0.005432 -0.212979
 17   1.574674 0.609930 -0.000899 0.007027 -0.054686 0.163434
 18   -0.602177 0.511412 -0.000006 0.000000 0.000000 0.000000
 19   3.673773 0.177020 1.119313 -0.000002 -0.000014 -0.174510
 20   3.673767 0.176993 -1.117566 0.000007 -0.000003 -0.174546
 21   3.938451 1.334540 1.627658 0.000002 -0.000011 -0.000026
 22   -0.246060 -0.011889 0.516521 -0.000011 0.000031 0.000025
 23   3.938468 1.334565 -1.631083 0.000019 0.000002 -0.000024
 24   -0.246150 -0.011872 -0.516511 -0.000005 -0.000006 0.000048
 25   4.941364 1.997338 1.629330 0.000018 -0.000001 -0.000024
 26   4.941382 1.997366 -1.629410 -0.000001 0.000005 -0.000024
 27   2.914462 1.619264 1.514501 -0.000019 -0.000022 -0.000050
 28   2.916892 1.618870 -1.501142 -0.000002 -0.000009 -0.000024
 29   8.824059 0.150544 0.091743 0.002234 -0.001584 -0.068257
 30   2.118898 -0.721340 1.647597 0.013634 0.153487 -0.294455
 31   2.121290 -0.518319 -1.888756 0.006956 0.006993 -0.002094
 32   -0.814395 -0.093824 3.127092 0.037635 -3.178286 -0.063981
 33   14.298673 -0.408176 0.471578 0.001231 -0.019351 -0.267522
 34   15.835795 0.581398 0.242756 -0.082838 0.097859 0.134861
 35   -0.815868 -0.091229 -3.114430 -0.040210 3.087754 -0.380163
 36   14.294526 -0.410349 -0.467541 -0.066901 -0.004602 -1.262334
 37   15.834409 0.579420 -0.284600 -0.073198 0.175395 -0.139341
 38   1.045932 -3.438123 -2.823813 -0.003578 -0.017232 -0.083637
 39   -4.262424 -0.929850 -0.628989 0.001798 -0.076606 -0.132128
 40   1.133726 -3.449769 3.155256 0.001116 0.005942 -0.082905
 41   -4.742443 -0.828654 0.951753 -0.001044 -0.048825 -0.132015
 42   -0.653562 1.626987 -2.508921 0.018145 0.063309 0.029276
 43   -0.679693 1.593106 2.752186 -0.014293 -0.054008 0.076409
time 15
  0   1.071576 -47.074081 2.394975 0.000000 0.000000 -1.571069
  1   -1.093036 0.000002 -0.326057 -0.214066 -1.569082 -1.356679
  2   2.262337 0.113614 0.064702 0.050605 0.027793 -0.017559
  3   2.380047 0.353302 0.047440 -0.034787 -0.028372 0.026221
  4   2.033756 0.190472 -0.000128 -0.058731 -0.021081 -0.091839
  5   2.451511 0.204909 -0.003447 0.000839 -0.006324 0.034833
  6   7.247600 -0.397300 -0.109469 0.005166 0.055857 0.156956
  7   -2.022252 -0.104661 3.136172 -0.233504 -1.221560 -2.954623
  8   1.168026 -0.537438 -0.063437 -0.193467 1.146830 -0.396263
  9   6.790376 -0.619176 0.015206 -0.002100 -0.024044 -0.258326
 10   8.637599 0.544015 -0.090417 -1.578919 0.125587 0.009573
 11   6.790465 -0.619039 0.017802 -0.004400 -0.027569 -0.195950
 12   -2.022474 -0.104699 -2.873818 0.116265 1.398834 -3.089828
 13   1.167898 -0.537463 0.063297 -0.488980 -1.148291 0.226733
 14   7.002743 -0.617765 -0.183752 0.041904 -0.005258 -0.209235
 15   8.209042 0.615527 -0.255885 1.501207 -0.131635 -0.031579
 16   7.002735 -0.617911 -0.183641 0.043813 -0.002895 -0.165127
 17   1.574674 0.609930 -0.000899 0.020798 -0.058852 0.158925
 18   -0.602177 0.511412 -0.000006 0.000000 0.000000 0.000000
 19   3.673773 0.177020 1.119313 -0.000002 -0.000014 -0.174510
 20   3.673767 0.176993 -1.117566 0.000007 -0.000003 -0.174546
 21   3.938451 1.334540 1.627658 0.000002 -0.000011 -0.000026
 22   -0.246060 -0.011889 0.516521 -0.000011 0.000031 0.000025
 23   3.938468 1.334565 -1.631083 0.000019 0.000002 -0.000024
 24   -0.246150 -0.011872 -0.516511 -0.000005 -0.000006 0.000048
 25   4.941364 1.997338 1.629330 0.000018 -0.000001 -0.000024
 26   4.941382 1.997366 -1.629410 -0.000001 0.000005 -0.000024
 27   2.914462 1.619264 1.514501 -0.000019 -0.000022 -0.000050
 28   2.916892 1.618870 -1.501142 -0.000002 -0.000009 -0.000024
 29   8.824059 0.150544 0.091743 0.002056 -0.001323 -0.093418
 30   2.138430 -0.654932 1.674942 -0.004524 0.087315 -0.213914
 31   2.121290 -0.580821 -1.865318 0.000291 -0.007123 -0.041633
 32   -0.814395 -0.093824 3.127092 0.053480 -3.176949 0.092498
 33   14.298673 -0.408176 0.471578 -0.009628 -0.016740 -0.110075
 34   15.835795 0.581398 0.242756 -0.084080 0.091441 0.104606
 35   -0.815868 -0.091229 -3.114430 -0.035985 3.094031 -0.479749
 36   14.294526 -0.410349 -0.467541 -0.064037 -0.001570 -1.204942
 37   15.834409 0.579420 -0.284600 -0.027449 0.166795 -0.018417
 38   1.010775 -3.426404 -2.819907 0.000295 0.002326 -0.078567
 39   -4.289768 -0.933757 -0.617270 0.005345 -0.039250 -0.124162
 40   1.176697 -3.457582 3.155256 0.007199 0.036550 -0.077468
 41   -4.711192 -0.844280 0.951753 0.000454 -0.032850 -0.124218
 42   -0.657468 1.599643 -2.555797 0.013686 0.045968 0.039982
 43   -0.679693 1.589200 2.701403 -0.020765 -0.076039 0.075406
time 16
  0   1.028606 -50.193085 2.301223 0.000000 0.000000 -1.571069
  1   -1.093036 0.000002 -0.326057 -0.214066 -1.569082 -1.356679
  2   2.262337 0.113614 0.064702 0.062833 0.021741 -0.018210
  3   2.380047 0.353302 0.047440 -0.045303 -0.018376 0.026894
  4   2.033756 0.190472 -0.000128 -0.073448 -0.023885 -0.091005
  5   2.451511 0.204909 -0.003447 0.000822 -0.006285 0.034833
  6   7.247600 -0.397300 -0.109469 0.005190 0.055462 0.156956
  7   -2.022252 -0.104661 3.136172 -0.240022 -1.218418 -2.947580
  8   1.168026 -0.537438 -0.063437 -0.258646 1.126302 -0.495202
  9   6.790376 -0.619176 0.015206 -0.000380 -0.020307 -0.321795
 10   8.637599 0.544015 -0.090417 -1.601727 0.108693 -0.013287
 11   6.790465 -0.619039 0.017802 -0.003028 -0.025068 -0.240417
 12   -2.022474 -0.104699 -2.873818 0.137247 1.400953 -3.068669
 13   1.167898 -0.537463 0.063297 -0.537063 -1.133391 0.286481
 14   7.002743 -0.617765 -0.183752 0.043726 -0.002362 -0.154864
 15   8.209042 0.615527 -0.255885 1.512712 -0.105305 -0.049440
 16   7.002735 -0.617911 -0.183641 0.045131 -0.000921 -0.127044
 17   1.574674 0.609930 -0.000899 0.034325 -0.061479 0.151163
 18   -0.602177 0.511412 -0.000006 0.000000 0.000000 0.000000
 19   3.677679 0.180927 1.119313 -0.000002 -0.000014 -0.174510
 20   3.677673 0.176993 -1.117566 0.000007 -0.000003 -0.174546
 21   3.938451 1.334540 1.627658 0.000002 -0.000011 -0.000026
 22   -0.246060 -0.011889 0.516521 -0.000011 0.000031 0.000025
 23   3.942374 1.334565 -1.631083 0.000019 0.000002 -0.000024
 24   -0.246150 -0.011872 -0.516511 -0.000005 -0.000006 0.000048
 25   4.941364 1.997338 1.629330 0.000018 -0.000001 -0.000024
 26   4.941382 1.997366 -1.629410 -0.000001 0.000005 -0.000024
 27   2.914462 1.623171 1.514501 -0.000019 -0.000022 -0.000050
 28   2.916892 1.622777 -1.501142 -0.000002 -0.000009 -0.000024
 29   8.824059 0.150544 0.091743 0.001878 -0.001086 -0.118579
 30   2.154055 -0.584617 1.702286 -0.022681 0.021172 -0.133374
 31   2.117383 -0.647229 -1.841880 -0.006374 -0.021265 -0.081154
 32   -0.814395 -0.093824 3.127092 0.063267 -3.175516 0.185110
 33   14.298673 -0.408176 0.471578 -0.012384 -0.015848 -0.071408
 34   15.835795 0.581398 0.242756 -0.088842 0.081753 0.096800
 35   -0.815868 -0.091229 -3.114430 -0.029296 3.104056 -0.533048
 36   14.294526 -0.410349 -0.467541 -0.055816 0.005549 -1.056247
 37   15.834409 0.579420 -0.284600 0.023481 0.141097 0.077461
 38   0.971711 -3.418591 -2.819907 0.004168 0.021884 -0.072763
 39   -4.321019 -0.941569 -0.605551 0.008881 -0.001894 -0.115075
 40   1.219667 -3.465394 3.163069 0.013261 0.067159 -0.071358
 41   -4.679941 -0.863811 0.955660 0.001952 -0.016862 -0.115328
 42   -0.665281 1.576205 -2.602674 0.009228 0.028627 0.050605
 43   -0.679693 1.585293 2.650620 -0.027225 -0.098022 0.073942
time 17
  0   0.989542 -53.312084 2.055121 0.000000 0.000000 -1.571069
  1   -1.093036 0.000002 -0.326057 -0.214066 -1.569082 -1.356679
  2   2.262337 0.113614 0.064702 0.072399 0.019296 -0.020053
  3   2.380047 0.353302 0.047440 -0.054694 -0.013750 0.029302
  4   2.033756 0.190472 -0.000128 -0.086063 -0.025180 -0.088468
  5   2.451511 0.204909 -0.003447 0.000822 -0.006063 0.034833
  6   7.247600 -0.397300 -0.109469 0.005023 0.054048 0.156956
  7   -2.022252 -0.104661 3.136172 -0.247691 -1.218101 -2.938939
  8   1.168026 -0.537438 -0.063437 -0.298323 1.105220 -0.557387
  9   6.790376 -0.619176 0.015206 0.001174 -0.016369 -0.388432
 10   8.637599 0.544015 -0.090417 -1.613792 0.087294 -0.037667
 11   6.790465 -0.619039 0.017802 -0.001685 -0.022368 -0.287076
 12   -2.022474 -0.104699 -2.873818 0.152767 1.400198 -3.052872
 13   1.167898 -0.537463 0.063297 -0.574953 -1.118135 0.343565
 14   7.002743 -0.617765 -0.183752 0.045263 -0.000147 -0.112951
 15   8.209042 0.615527 -0.255885 1.521484 -0.074663 -0.070007
 16   7.002735 -0.617911 -0.183641 0.046214 0.000545 -0.097737
 17   1.574674 0.609930 -0.000899 0.047486 -0.062047 0.141405
 18   -0.602177 0.511412 -0.000006 0.000000 0.000000 0.000000
 19   3.673773 0.177020 1.119313 -0.000002 -0.000014 -0.174510
 20   3.677673 0.180900 -1.117566 0.000007 -0.000003 -0.174546
 21   3.942357 1.334540 1.627658 0.000002 -0.000011 -0.000026
 22   -0.246060 -0.011889 0.516521 -0.000011 0.000031 0.000025
 23   3.942374 1.338472 -1.631083 0.000019 0.000002 -0.000024
 24   -0.246150 -0.011872 -0.516511 -0.000005 -0.000006 0.000048
 25   4.941364 1.997338 1.629330 0.000018 -0.000001 -0.000024
 26   4.941382 1.997366 -1.629410 -0.000001 0.000005 -0.000024
 27   2.914462 1.619264 1.514501 -0.000019 -0.000022 -0.000050
 28   2.916892 1.618870 -1.501142 -0.000002 -0.000009 -0.000024
 29   8.824059 0.150544 0.091743 0.001610 -0.000848 -0.141701
 30   2.169681 -0.526022 1.729631 -0.039373 -0.039595 -0.059352
 31   2.113477 -0.709731 -1.822348 -0.012503 -0.034268 -0.117472
 32   -0.814395 -0.093824 3.127092 0.070537 -3.174179 0.255921
 33   14.298673 -0.408176 0.471578 -0.012408 -0.015848 -0.071408
 34   15.835795 0.581398 0.242756 -0.094961 0.071406 0.090582
 35   -0.815868 -0.091229 -3.114430 -0.022167 3.115017 -0.547126
 36   14.294526 -0.410349 -0.467541 -0.042956 0.013219 -0.850778
 37   15.834409 0.579420 -0.284600 0.064442 0.100682 0.144641
 38   0.940460 -3.410779 -2.819907 0.007725 0.039863 -0.066409
 39   -4.348364 -0.945476 -0.597738 0.012140 0.032418 -0.105119
 40   1.262637 -3.477114 3.166975 0.018860 0.095273 -0.064760
 41   -4.640877 -0.883343 0.959566 0.003331 -0.002181 -0.105567
 42   -0.673093 1.552766 -2.645644 0.005141 0.012697 0.060308
 43   -0.675787 1.577481 2.603744 -0.033172 -0.118217 0.071934
time 18
  0   0.950478 -56.431084 1.738705 0.000000 0.000000 -1.571069
  1   -1.093036 0.000002 -0.326057 -0.214066 -1.569082 -1.356679
  2   2.262337 0.113614 0.064702 0.078946 0.018960 -0.023197
  3   2.380047 0.353302 0.047440 -0.062104 -0.012744 0.033383
  4   2.033756 0.190472 -0.000128 -0.095893 -0.025443 -0.084336
  5   2.451511 0.204909 -0.003447 0.000736 -0.005736 0.034833
  6   7.247600 -0.397300 -0.109469 0.004843 0.051531 0.156956
  7   -2.022252 -0.104661 3.136172 -0.255647 -1.220234 -2.930675
  8   1.168026 -0.537438 -0.063437 -0.313637 1.087308 -0.584842
  9   6.790376 -0.619176 0.015206 0.002394 -0.012231 -0.455447
 10   8.637599 0.544015 -0.090417 -1.610622 0.070260 -0.061758
 11   6.790465 -0.619039 0.017802 -0.000488 -0.019639 -0.334024
 12   -2.022474 -0.104699 -2.873818 0.162636 1.397267 -3.042819
 13   1.167898 -0.537463 0.063297 -0.591754 -1.107913 0.385516
 14   7.002743 -0.617765 -0.183752 0.046402 0.001386 -0.081599
 15   8.209042 0.615527 -0.255885 1.526517 -0.046291 -0.087086
 16   7.002735 -0.617911 -0.183641 0.047061 0.001616 -0.075770
 17   1.574674 0.609930 -0.000899 0.059429 -0.059704 0.130723
 18   -0.602177 0.511412 -0.000006 0.000000 0.000000 0.000000
 19   3.673773 0.177020 1.119313 -0.000002 -0.000014 -0.174510
 20   3.673767 0.176993 -1.117566 0.000007 -0.000003 -0.174546
 21   3.938451 1.334540 1.627658 0.000002 -0.000011 -0.000026
 22   -0.246060 -0.011889 0.516521 -0.000011 0.000031 0.000025
 23   3.938468 1.334565 -1.631083 0.000019 0.000002 -0.000024
 24   -0.246150 -0.011872 -0.516511 -0.000005 -0.000006 0.000048
 25   4.941364 1.997338 1.629330 0.000018 -0.000001 -0.000024
 26   4.941382 1.997366 -1.629410 -0.000001 0.000005 -0.000024
 27   2.914462 1.619264 1.514501 -0.000019 -0.000022 -0.000050
 28   2.916892 1.618870 -1.501142 -0.000002 -0.000009 -0.000024
 29   8.824059 0.150544 0.091743 0.001432 -0.000635 -0.160746
 30   2.181400 -0.475239 1.749163 -0.053123 -0.089667 0.001589
 31   2.113477 -0.760514 -1.802816 -0.017559 -0.044965 -0.147385
 32   -0.814395 -0.093824 3.127092 0.077901 -3.171983 0.325025
 33   14.298673 -0.408176 0.471578 -0.012420 -0.015848 -0.071408
 34   15.835795 0.581398 0.242756 -0.100964 0.056324 0.065884
 35   -0.815868 -0.091229 -3.114430 -0.016270 3.125979 -0.532445
 36   14.294526 -0.410349 -0.467541 -0.027268 0.018360 -0.623912
 37   15.834409 0.579420 -0.284600 0.087534 0.055378 0.180082
 38   0.913116 -3.402966 -2.819907 0.010651 0.054673 -0.059688
 39   -4.375709 -0.953288 -0.589925 0.014825 0.060690 -0.094545
 40   1.293888 -3.484926 3.170882 0.023449 0.118434 -0.057734
 41   -4.605720 -0.902875 0.959566 0.004469 0.009899 -0.095162
 42   -0.680906 1.537141 -2.680801 0.001774 -0.000412 0.068296
 43   -0.675787 1.577481 2.564680 -0.038069 -0.134819 0.069216
time 19
  0   0.895789 -59.557899 1.422289 0.000000 0.000000 -1.571069
  1   -1.093036 0.000002 -0.326057 -0.214066 -1.569082 -1.356679
  2   2.262337 0.113614 0.064702 0.082041 0.019416 -0.026920
  3   2.380047 0.353302 0.047440 -0.067160 -0.013223 0.038219
  4   2.033756 0.190472 -0.000128 -0.102311 -0.025215 -0.079479
  5   2.451511 0.204909 -0.003447 0.000719 -0.005188 0.034833
  6   7.247600 -0.397300 -0.109469 0.004363 0.047684 0.156861
  7   -2.022252 -0.104661 3.136172 -0.263795 -1.224414 -2.922504
  8   1.168026 -0.537438 -0.063437 -0.313637 1.075585 -0.589903
  9   6.790376 -0.619176 0.015206 0.003393 -0.008360 -0.517633
 10   8.637599 0.544015 -0.090417 -1.592745 0.064488 -0.083027
 11   6.790465 -0.619039 0.017802 0.000534 -0.017052 -0.377511
 12   -2.022474 -0.104699 -2.873818 0.164935 1.392362 -3.039851
 13   1.167898 -0.537463 0.063297 -0.587958 -1.102014 0.410759
 14   7.002743 -0.617765 -0.183752 0.047256 0.002351 -0.059570
 15   8.209042 0.615527 -0.255885 1.527524 -0.029268 -0.094663
 16   7.002735 -0.617911 -0.183641 0.047673 0.002293 -0.060371
 17   1.574674 0.609930 -0.000899 0.069463 -0.054804 0.120781
 18   -0.602177 0.511412 -0.000006 0.000000 0.000000 0.000000
 19   3.673773 0.177020 1.119313 -0.000002 -0.000014 -0.174510
 20   3.673767 0.176993 -1.117566 0.000007 -0.000003 -0.174546
 21   3.938451 1.334540 1.627658 0.000002 -0.000011 -0.000026
 22   -0.246060 -0.011889 0.516521 -0.000011 0.000031 0.000025
 23   3.942374 1.334565 -1.631083 0.000019 0.000002 -0.000024
 24   -0.246150 -0.011872 -0.516511 -0.000005 -0.000006 0.000048
 25   4.941364 1.997338 1.629330 0.000018 -0.000001 -0.000024
 26   4.941382 1.997366 -1.629410 -0.000001 0.000005 -0.000024
 27   2.914462 1.623171 1.514501 -0.000019 -0.000022 -0.000050
 28   2.916892 1.618870 -1.501142 -0.000002 -0.000009 -0.000024
 29   8.824059 0.150544 0.091743 0.001165 -0.000492 -0.173676
 30   2.189212 -0.440082 1.768695 -0.062453 -0.123639 0.042953
 31   2.109571 -0.795671 -1.791097 -0.020976 -0.052217 -0.167691
 32   -0.814395 -0.093824 3.127092 0.079486 -3.171696 0.340565
 33   14.298673 -0.408176 0.471578 -0.005816 -0.017825 -0.165892
 34   15.835795 0.581398 0.242756 -0.107612 0.035337 0.048199
 35   -0.815868 -0.091229 -3.114430 -0.011341 3.136847 -0.512232
 36   14.294526 -0.410349 -0.467541 -0.013079 0.019930 -0.429798
 37   15.834409 0.579420 -0.284600 0.092321 0.014528 0.188447
 38   0.893584 -3.399060 -2.816000 0.012650 0.064712 -0.052724
 39   -4.399147 -0.965008 -0.586019 0.016635 0.079877 -0.083579
 40   1.317326 -3.492739 3.178694 0.026585 0.134148 -0.050647
 41   -4.574469 -0.922407 0.959566 0.005236 0.018097 -0.084308
 42   -0.684813 1.525422 -2.700333 -0.000503 -0.009320 0.073691
 43   -0.675787 1.573574 2.541242 -0.041393 -0.146085 0.065787
time 20
  0   0.833287 -62.669086 1.133218 0.000000 0.000000 -1.571069
  1   -1.093036 0.000002 -0.326057 -0.214066 -1.569082 -1.356776
  2   2.262337 0.113614 0.064702 0.081073 0.019703 -0.030028
  3   2.380047 0.353302 0.047440 -0.069050 -0.014266 0.042280
  4   2.033756 0.190472 -0.000128 -0.104653 -0.024377 -0.075383
  5   2.451511 0.204909 -0.003447 0.000719 -0.004418 0.034833
  6   7.247600 -0.397300 -0.109469 0.003920 0.042327 0.156861
  7   -2.022252 -0.104661 3.136172 -0.271943 -1.230987 -2.914615
  8   1.168026 -0.537438 -0.063437 -0.302816 1.070956 -0.581173
  9   6.790376 -0.619176 0.015206 0.003892 -0.005023 -0.569479
 10   8.637599 0.544015 -0.090417 -1.563860 0.072231 -0.098147
 11   6.790465 -0.619039 0.017802 0.001293 -0.014835 -0.413846
 12   -2.022474 -0.104699 -2.873818 0.160719 1.385222 -3.043968
 13   1.167898 -0.537463 0.063297 -0.576851 -1.099522 0.430614
 14   7.002743 -0.617765 -0.183752 0.047825 0.003090 -0.044554
 15   8.209042 0.615527 -0.255885 1.523353 -0.028889 -0.087146
 16   7.002735 -0.617911 -0.183641 0.048097 0.002744 -0.049829
 17   1.574674 0.609930 -0.000899 0.076328 -0.047941 0.114423
 18   -0.602177 0.511412 -0.000006 0.000000 0.000000 0.000000
 19   3.677679 0.180927 1.119313 -0.000002 -0.000014 -0.174510
 20   3.673767 0.180900 -1.117566 0.000007 -0.000003 -0.174546
 21   3.938451 1.338447 1.627658 0.000002 -0.000011 -0.000026
 22   -0.246060 -0.011889 0.516521 -0.000011 0.000031 0.000025
 23   3.942374 1.338472 -1.631083 0.000019 0.000002 -0.000024
 24   -0.246150 -0.011872 -0.516511 -0.000005 -0.000006 0.000048
 25   4.941364 1.997338 1.629330 0.000018 -0.000001 -0.000024
 26   4.941382 1.997366 -1.629410 -0.000001 0.000005 -0.000024
 27   2.914462 1.623171 1.514501 -0.000019 -0.000022 -0.000050
 28   2.920798 1.622777 -1.501142 -0.000002 -0.000009 -0.000024
 29   8.824059 0.150544 0.091743 0.000986 -0.000397 -0.178343
 30   2.193119 -0.428362 1.776507 -0.065897 -0.136136 0.058199
 31   2.109571 -0.807390 -1.783284 -0.022247 -0.054885 -0.175170
 32   -0.814395 -0.093824 3.127092 0.082002 -3.169977 0.367375
 33   14.298673 -0.408176 0.471578 -0.000891 -0.018911 -0.235048
 34   15.835795 0.581398 0.242756 -0.109774 0.005003 -0.005033
 35   -0.815868 -0.091229 -3.114430 -0.009317 3.147715 -0.464411
 36   14.294526 -0.410349 -0.467541 0.002202 0.018528 -0.219153
 37   15.834409 0.579420 -0.284600 0.082569 -0.008636 0.114270
 38   0.885771 -3.395154 -2.816000 0.013387 0.068411 -0.045637
 39   -4.414772 -0.972820 -0.582112 0.017306 0.086948 -0.072472
 40   1.325139 -3.492739 3.186507 0.027722 0.139945 -0.043499
 41   -4.543218 -0.941939 0.959566 0.005524 0.021129 -0.073258
 42   -0.684813 1.521515 -2.712052 -0.001342 -0.012601 0.075657
 43   -0.671881 1.573574 2.529523 -0.042617 -0.150243 0.061437
time 21
  0   0.751253 -65.788086 0.933993 0.000000 0.000000 -1.571069
  1   -1.093036 0.000002 -0.326057 -0.214066 -1.569082 -1.356776
  2   2.262337 0.113614 0.064702 0.076080 0.019236 -0.031817
  3   2.380047 0.353302 0.047440 -0.067460 -0.014961 0.044810
  4   2.033756 0.190472 -0.000128 -0.102606 -0.022807 -0.072882
  5   2.451511 0.204909 -0.003447 0.000685 -0.003452 0.034833
  6   7.247600 -0.397300 -0.109469 0.003309 0.035268 0.156861
  7   -2.022252 -0.104661 3.136172 -0.279995 -1.240269 -2.907290
  8   1.168026 -0.537438 -0.063437 -0.277820 1.073019 -0.555932
  9   6.790376 -0.619176 0.015206 0.004281 -0.002754 -0.606609
 10   8.637599 0.544015 -0.090417 -1.525287 0.086168 -0.103139
 11   6.790465 -0.619039 0.017802 0.001760 -0.013243 -0.439800
 12   -2.022474 -0.104699 -2.873818 0.149414 1.375673 -3.055074
 13   1.167898 -0.537463 0.063297 -0.553091 -1.103743 0.433520
 14   7.002743 -0.617765 -0.183752 0.048223 0.003487 -0.035891
 15   8.209042 0.615527 -0.255885 1.511561 -0.041373 -0.061407
 16   7.002735 -0.617911 -0.183641 0.048332 0.003026 -0.043758
 17   1.574674 0.609930 -0.000899 0.079496 -0.039492 0.111688
 18   -0.602177 0.511412 -0.000006 0.000000 0.000000 0.000000
 19   3.677679 0.180927 1.119313 -0.000002 -0.000014 -0.174510
 20   3.673767 0.176993 -1.117566 0.000007 -0.000003 -0.174546
 21   3.938451 1.338447 1.627658 0.000002 -0.000011 -0.000026
 22   -0.246060 -0.011889 0.516521 -0.000011 0.000031 0.000025
 23   3.938468 1.334565 -1.631083 0.000019 0.000002 -0.000024
 24   -0.246150 -0.011872 -0.516511 -0.000005 -0.000006 0.000048
 25   4.941364 1.997338 1.629330 0.000018 -0.000001 -0.000024
 26   4.941382 1.997366 -1.629410 -0.000001 0.000005 -0.000024
 27   2.914462 1.619264 1.514501 -0.000019 -0.000022 -0.000050
 28   2.916892 1.618870 -1.501142 -0.000002 -0.000009 -0.000024
 29   8.824059 0.150544 0.091743 0.000808 -0.000350 -0.178236
 30   2.193119 -0.432269 1.776507 -0.064053 -0.132358 0.056570
 31   2.109571 -0.799578 -1.787191 -0.021619 -0.053357 -0.170257
 32   -0.814395 -0.093824 3.127092 0.084053 -3.167780 0.394413
 33   14.298673 -0.408176 0.471578 0.004155 -0.019635 -0.304601
 34   15.835795 0.581398 0.242756 -0.106600 -0.026892 -0.054251
 35   -0.815868 -0.091229 -3.114430 -0.009317 3.155491 -0.421739
 36   14.294526 -0.410349 -0.467541 0.012580 0.015652 -0.071385
 37   15.834409 0.579420 -0.284600 0.064699 -0.006230 -0.049294
 38   0.893584 -3.399060 -2.816000 0.013008 0.066495 -0.038672
 39   -4.426491 -0.984539 -0.586019 0.016826 0.084503 -0.061450
 40   1.321232 -3.492739 3.190413 0.026943 0.136016 -0.036596
 41   -4.515873 -0.961471 0.959566 0.005368 0.020530 -0.062263
 42   -0.684813 1.525422 -2.712052 -0.001306 -0.012249 0.073566
 43   -0.671881 1.577481 2.541242 -0.041430 -0.146038 0.055833
time 22
  0   0.645781 -68.907089 0.816802 0.000000 0.000000 -1.571069
  1   -1.093036 0.000002 -0.326057 -0.214066 -1.569082 -1.356776
  2   2.262337 0.113614 0.064702 0.067877 0.017247 -0.032323
  3   2.380047 0.353302 0.047440 -0.062509 -0.014110 0.045647
  4   2.033756 0.190472 -0.000128 -0.096446 -0.020494 -0.072048
  5   2.451511 0.204909 -0.003447 0.000582 -0.002172 0.034833
  6   7.247600 -0.397300 -0.109469 0.002458 0.026219 0.156861
  7   -2.022252 -0.104661 3.136172 -0.289676 -1.252549 -2.899401
  8   1.168026 -0.537438 -0.063437 -0.238586 1.081321 -0.515066
  9   6.790376 -0.619176 0.015206 0.004281 -0.001486 -0.626004
 10   8.637599 0.544015 -0.090417 -1.494024 0.102710 -0.099594
 11   6.790465 -0.619039 0.017802 0.001965 -0.012419 -0.453411
 12   -2.022474 -0.104699 -2.873818 0.132648 1.363367 -3.071733
 13   1.167898 -0.537463 0.063297 -0.530174 -1.112642 0.427890
 14   7.002743 -0.617765 -0.183752 0.048280 0.003601 -0.032426
 15   8.209042 0.615527 -0.255885 1.488696 -0.056051 -0.015763
 16   7.002735 -0.617911 -0.183641 0.048427 0.003139 -0.041385
 17   1.574674 0.609930 -0.000899 0.078521 -0.029954 0.112243
 18   -0.602177 0.511412 -0.000006 0.000000 0.000000 0.000000
 19   3.673773 0.180927 1.119313 -0.000002 -0.000014 -0.174510
 20   3.673767 0.176993 -1.117566 0.000007 -0.000003 -0.174546
 21   3.938451 1.338447 1.627658 0.000002 -0.000011 -0.000026
 22   -0.246060 -0.011889 0.516521 -0.000011 0.000031 0.000025
 23   3.938468 1.334565 -1.631083 0.000019 0.000002 -0.000024
 24   -0.246150 -0.011872 -0.516511 -0.000005 -0.000006 0.000048
 25   4.941364 1.997338 1.629330 0.000018 -0.000001 -0.000024
 26   4.941382 1.997366 -1.629410 -0.000001 0.000005 -0.000024
 27   2.914462 1.619264 1.514501 -0.000019 -0.000022 -0.000050
 28   2.916892 1.618870 -1.501142 -0.000002 -0.000009 -0.000024
 29   8.824059 0.150544 0.091743 0.000630 -0.000302 -0.177967
 30   2.185306 -0.440082 1.780414 -0.059036 -0.122041 0.052152
 31   2.109571 -0.780046 -1.791097 -0.019934 -0.049187 -0.156938
 32   -0.814395 -0.093824 3.127092 0.083866 -3.163578 0.407448
 33   14.298673 -0.408176 0.471578 0.008925 -0.020010 -0.369945
 34   15.835795 0.581398 0.242756 -0.092936 -0.063815 -0.121728
 35   -0.815868 -0.091229 -3.114430 -0.006676 3.159894 -0.427108
 36   14.294526 -0.410349 -0.467541 0.012569 0.015652 -0.071385
 37   15.834409 0.579420 -0.284600 0.054650 -0.029112 -0.082250
 38   0.913116 -3.402966 -2.819907 0.011977 0.061301 -0.031890
 39   -4.438210 -0.996258 -0.601644 0.015508 0.077900 -0.050708
 40   1.305607 -3.488833 3.198226 0.024838 0.125387 -0.029997
 41   -4.496342 -0.981003 0.959566 0.004949 0.018924 -0.051494
 42   -0.684813 1.537141 -2.708146 -0.001210 -0.011283 0.067794
 43   -0.667974 1.585293 2.564680 -0.038182 -0.134615 0.048932
time 23
  0   0.501245 -72.029999 0.824615 0.000000 0.000000 -1.571069
  1   -1.093036 0.000002 -0.326057 -0.214066 -1.569082 -1.356776
  2   2.262337 0.113614 0.064702 0.057687 0.009217 -0.031329
  3   2.380047 0.353302 0.047440 -0.054259 -0.004954 0.044912
  4   2.033756 0.190472 -0.000128 -0.086819 -0.017318 -0.072882
  5   2.451511 0.204909 -0.003447 0.000428 -0.000619 0.034833
  6   7.247600 -0.397300 -0.109469 0.001403 0.015253 0.156829
  7   -2.022252 -0.104661 3.136172 -0.300317 -1.267914 -2.889446
  8   1.168026 -0.537438 -0.063437 -0.187329 1.096415 -0.461421
  9   6.790376 -0.619176 0.015206 0.004281 -0.001419 -0.627287
 10   8.637599 0.544015 -0.090417 -1.478789 0.120448 -0.091853
 11   6.790465 -0.619039 0.017802 0.001965 -0.012362 -0.454334
 12   -2.022474 -0.104699 -2.873818 0.112337 1.348187 -3.092030
 13   1.167898 -0.537463 0.063297 -0.500790 -1.124949 0.406703
 14   7.002743 -0.617765 -0.183752 0.048280 0.003601 -0.033581
 15   8.209042 0.615527 -0.255885 1.451810 -0.065357 0.039563
 16   7.002735 -0.617911 -0.183641 0.048427 0.003139 -0.042158
 17   1.574674 0.609930 -0.000899 0.072509 -0.021174 0.115274
 18   -0.602177 0.511412 -0.000006 0.000000 0.000000 0.000000
 19   3.673773 0.177020 1.119313 -0.000002 -0.000014 -0.174510
 20   3.673767 0.176993 -1.117566 0.000007 -0.000003 -0.174546
 21   3.938451 1.334540 1.627658 0.000002 -0.000011 -0.000026
 22   -0.246060 -0.011889 0.516521 -0.000011 0.000031 0.000025
 23   3.942374 1.334565 -1.631083 0.000019 0.000002 -0.000024
 24   -0.246150 -0.011872 -0.516511 -0.000005 -0.000006 0.000048
 25   4.941364 1.997338 1.629330 0.000018 -0.000001 -0.000024
 26   4.941382 1.997366 -1.629410 -0.000001 0.000005 -0.000024
 27   2.914462 1.619264 1.514501 -0.000019 -0.000022 -0.000050
 28   2.916892 1.618870 -1.501142 -0.000002 -0.000009 -0.000024
 29   8.824059 0.150544 0.091743 0.000452 -0.000278 -0.177538
 30   2.177493 -0.455707 1.784320 -0.051659 -0.106871 0.045634
 31   2.113477 -0.752701 -1.798910 -0.017436 -0.043022 -0.137323
 32   -0.814395 -0.093824 3.127092 0.077901 -3.158134 0.370733
 33   14.298673 -0.408176 0.471578 0.017410 -0.019881 -0.485787
 34   15.835795 0.581398 0.242756 -0.071061 -0.095467 -0.165478
 35   -0.815868 -0.091229 -3.114430 -0.001923 3.162237 -0.466602
 36   14.294526 -0.410349 -0.467541 0.002322 0.018504 -0.217531
 37   15.834409 0.579420 -0.284600 0.055222 -0.070807 -0.014360
 38   0.940460 -3.406873 -2.819907 0.010482 0.053637 -0.025414
 39   -4.446023 -1.007978 -0.617270 0.013567 0.068168 -0.040471
 40   1.282169 -3.484926 3.206039 0.021744 0.109710 -0.023766
 41   -4.476810 -0.996628 0.959566 0.004325 0.016563 -0.041172
 42   -0.680906 1.556673 -2.704239 -0.001055 -0.009872 0.059304
 43   -0.667974 1.600919 2.603744 -0.033409 -0.117794 0.041111
time 24
  0   0.321552 -75.148994 0.976963 0.000000 0.000000 -1.571069
  1   -1.093036 0.000002 -0.326057 -0.214066 -1.569082 -1.356776
  2   2.262337 0.113614 0.064702 0.046287 -0.009251 -0.028944
  3   2.380047 0.353302 0.047440 -0.042438 0.018380 0.042831
  4   2.033756 0.190472 -0.000128 -0.074370 -0.013291 -0.074984
  5   2.451511 0.204909 -0.003447 0.000291 0.001105 0.034833
  6   7.247600 -0.397300 -0.109469 0.000229 0.002622 0.156829
  7   -2.022252 -0.104661 3.136172 -0.314312 -1.286047 -2.876955
  8   1.168026 -0.537438 -0.063437 -0.123795 1.117849 -0.396010
  9   6.790376 -0.619176 0.015206 0.004281 -0.002354 -0.611665
 10   8.637599 0.544015 -0.090417 -1.476235 0.137764 -0.076661
 11   6.790465 -0.619039 0.017802 0.001760 -0.013044 -0.443375
 12   -2.022474 -0.104699 -2.873818 0.090684 1.330018 -3.113572
 13   1.167898 -0.537463 0.063297 -0.452215 -1.135883 0.360999
 14   7.002743 -0.617765 -0.183752 0.048167 0.003373 -0.038861
 15   8.209042 0.615527 -0.255885 1.399896 -0.068232 0.074142
 16   7.002735 -0.617911 -0.183641 0.048285 0.002913 -0.045856
 17   1.574674 0.609930 -0.000899 0.061135 -0.014997 0.122000
 18   -0.602177 0.511412 -0.000006 0.000000 0.000000 0.000000
 19   3.673773 0.177020 1.119313 -0.000002 -0.000014 -0.174510
 20   3.673767 0.180900 -1.117566 0.000007 -0.000003 -0.174546
 21   3.938451 1.334540 1.627658 0.000002 -0.000011 -0.000026
 22   -0.246060 -0.011889 0.516521 -0.000011 0.000031 0.000025
 23   3.942374 1.334565 -1.631083 0.000019 0.000002 -0.000024
 24   -0.246150 -0.011872 -0.516511 -0.000005 -0.000006 0.000048
 25   4.941364 1.997338 1.629330 0.000018 -0.000001 -0.000024
 26   4.941382 1.997366 -1.629410 -0.000001 0.000005 -0.000024
 27   2.914462 1.619264 1.514501 -0.000019 -0.000022 -0.000050
 28   2.916892 1.618870 -1.501142 -0.000002 -0.000009 -0.000024
 29   8.824059 0.150544 0.091743 0.000362 -0.000255 -0.177002
 30   2.165774 -0.475239 1.784320 -0.042696 -0.088446 0.037721
 31   2.113477 -0.721450 -1.810629 -0.014403 -0.035563 -0.113505
 32   -0.814395 -0.093824 3.127092 0.063547 -3.149634 0.249034
 33   14.298673 -0.408176 0.471578 0.033241 -0.016998 -0.706037
 34   15.835795 0.581398 0.242756 -0.035223 -0.128265 -0.212491
 35   -0.815868 -0.091229 -3.114430 0.001245 3.164017 -0.488733
 36   14.294526 -0.410349 -0.467541 -0.008824 0.019858 -0.371247
 37   15.834409 0.579420 -0.284600 0.064167 -0.077436 -0.034793
 38   0.975618 -3.418591 -2.819907 0.008672 0.044334 -0.019427
 39   -4.449929 -1.015790 -0.640708 0.011218 0.056340 -0.030963
 40   1.250918 -3.477114 3.213852 0.017955 0.090682 -0.018023
 41   -4.461185 -1.012254 0.959566 0.003570 0.013686 -0.031524
 42   -0.677000 1.584017 -2.704239 -0.000875 -0.008155 0.049016
 43   -0.667974 1.616544 2.650620 -0.027612 -0.097348 0.032914
time 25
  0   0.122327 -78.264091 1.246503 0.000000 0.000000 -1.571069
  1   -1.093036 0.000002 -0.326057 -0.214066 -1.569082 -1.356776
  2   2.262337 0.113614 0.064702 0.033613 -0.032238 -0.025926
  3   2.380047 0.353302 0.047440 -0.028382 0.047479 0.039668
  4   2.033756 0.190472 -0.000128 -0.059782 -0.008413 -0.078210
  5   2.451511 0.204909 -0.003447 0.000137 0.002972 0.034833
  6   7.247600 -0.397300 -0.109469 -0.000898 -0.010633 0.156829
  7   -2.022252 -0.104661 3.136172 -0.329937 -1.305764 -2.862961
  8   1.168026 -0.537438 -0.063437 -0.042796 1.141849 -0.312443
  9   6.790376 -0.619176 0.015206 0.003948 -0.004556 -0.576724
 10   8.637599 0.544015 -0.090417 -1.480286 0.151842 -0.049821
 11   6.790465 -0.619039 0.017802 0.001410 -0.014522 -0.418921
 12   -2.022474 -0.104699 -2.873818 0.070278 1.310311 -3.133965
 13   1.167898 -0.537463 0.063297 -0.386981 -1.142545 0.290234
 14   7.002743 -0.617765 -0.183752 0.047483 0.002578 -0.054207
 15   8.209042 0.615527 -0.255885 1.337916 -0.066870 0.086952
 16   7.002735 -0.617911 -0.183641 0.047815 0.002462 -0.056618
 17   1.574674 0.609930 -0.000899 0.046187 -0.010098 0.135343
 18   -0.602177 0.511412 -0.000006 0.000000 0.000000 0.000000
 19   3.677679 0.177020 1.119313 -0.000002 -0.000014 -0.174510
 20   3.673767 0.176993 -1.117566 0.000007 -0.000003 -0.174546
 21   3.938451 1.334540 1.627658 0.000002 -0.000011 -0.000026
 22   -0.246060 -0.011889 0.516521 -0.000011 0.000031 0.000025
 23   3.942374 1.338472 -1.631083 0.000019 0.000002 -0.000024
 24   -0.246150 -0.011872 -0.516511 -0.000005 -0.000006 0.000048
 25   4.941364 1.997338 1.629330 0.000018 -0.000001 -0.000024
 26   4.941382 1.997366 -1.629410 -0.000001 0.000005 -0.000024
 27   2.914462 1.619264 1.514501 -0.000019 -0.000022 -0.000050
 28   2.916892 1.618870 -1.501142 -0.000002 -0.000009 -0.000024
 29   8.824059 0.150544 0.091743 0.000273 -0.000231 -0.176412
 30   2.150149 -0.494771 1.784320 -0.032946 -0.068394 0.029101
 31   2.117383 -0.682386 -1.818442 -0.011124 -0.027430 -0.087577
 32   -0.814395 -0.093824 3.127092 0.048633 -3.134639 0.077015
 33   14.298673 -0.408176 0.471578 0.049492 -0.009799 -0.947487
 34   15.835795 0.581398 0.242756 0.018718 -0.160039 -0.311634
 35   -0.815868 -0.091229 -3.114430 0.001597 3.167109 -0.475312
 36   14.294526 -0.410349 -0.467541 -0.015799 0.019846 -0.466566
 37   15.834409 0.579420 -0.284600 0.073762 -0.078332 -0.035858
 38   1.014681 -3.426404 -2.819907 0.006694 0.034212 -0.013990
 39   -4.453836 -1.027509 -0.664146 0.008653 0.043468 -0.022353
 40   1.219667 -3.469301 3.221664 0.013850 0.069967 -0.012952
 41   -4.453372 -1.027879 0.959566 0.002755 0.010558 -0.022802
 42   -0.669187 1.611362 -2.700333 -0.000671 -0.006300 0.037807
 43   -0.664068 1.636076 2.701403 -0.021302 -0.075113 0.024717
time 26
  0   -0.033928 -81.383095 1.570732 0.000000 0.000000 -1.571069
  1   -1.093036 0.000002 -0.326057 -0.214066 -1.569082 -1.356776
  2   2.262337 0.113614 0.064702 0.019220 -0.047314 -0.023324
  3   2.380047 0.353302 0.047440 -0.014176 0.064845 0.035893
  4   2.033756 0.190472 -0.000128 -0.043645 -0.002828 -0.082125
  5   2.451511 0.204909 -0.003447 0.000086 0.004773 0.034833
  6   7.247600 -0.397300 -0.109469 -0.002000 -0.023229 0.156829
  7   -2.022252 -0.104661 3.136172 -0.347287 -1.325655 -2.847089
  8   1.168026 -0.537438 -0.063437 0.058326 1.160415 -0.206039
  9   6.790376 -0.619176 0.015206 0.003393 -0.008294 -0.517935
 10   8.637599 0.544015 -0.090417 -1.486803 0.159726 -0.015747
 11   6.790465 -0.619039 0.017802 0.000534 -0.016995 -0.377799
 12   -2.022474 -0.104699 -2.873818 0.051595 1.290401 -3.152921
 13   1.167898 -0.537463 0.063297 -0.314364 -1.147223 0.199916
 14   7.002743 -0.617765 -0.183752 0.046629 0.001613 -0.076731
 15   8.209042 0.615527 -0.255885 1.302755 -0.062331 0.093687
 16   7.002735 -0.617911 -0.183641 0.047203 0.001785 -0.072348
 17   1.574674 0.609930 -0.000899 0.031603 -0.002761 0.151939
 18   -0.602177 0.511412 -0.000006 0.000000 0.000000 0.000000
 19   3.673773 0.180927 1.119313 -0.000002 -0.000014 -0.174510
 20   3.673767 0.176993 -1.117566 0.000007 -0.000003 -0.174546
 21   3.938451 1.334540 1.627658 0.000002 -0.000011 -0.000026
 22   -0.246060 -0.011889 0.516521 -0.000011 0.000031 0.000025
 23   3.938468 1.334565 -1.631083 0.000019 0.000002 -0.000024
 24   -0.246150 -0.011872 -0.516511 -0.000005 -0.000006 0.000048
 25   4.941364 1.997338 1.629330 0.000018 -0.000001 -0.000024
 26   4.941382 1.997366 -1.629410 -0.000001 0.000005 -0.000024
 27   2.914462 1.619264 1.514501 -0.000019 -0.000022 -0.000050
 28   2.916892 1.618870 -1.501142 -0.000002 -0.000009 -0.000024
 29   8.824059 0.150544 0.091743 0.000095 -0.000231 -0.175875
 30   2.138430 -0.514303 1.784320 -0.023196 -0.048342 0.020502
 31   2.117383 -0.647229 -1.830161 -0.007829 -0.019322 -0.061648
 32   -0.814395 -0.093824 3.127092 0.040151 -3.117066 -0.096825
 33   14.298673 -0.408176 0.471578 0.060255 -0.002173 -1.132008
 34   15.835795 0.581398 0.242756 0.072659 -0.177658 -0.410468
 35   -0.815868 -0.091229 -3.114430 -0.004388 3.172074 -0.400102
 36   14.294526 -0.410349 -0.467541 -0.015883 0.019846 -0.467184
 37   15.834409 0.579420 -0.284600 0.079199 -0.084475 0.014692
 38   1.049839 -3.434217 -2.823813 0.004694 0.024077 -0.009285
 39   -4.457742 -1.035322 -0.691491 0.006088 0.030597 -0.014837
 40   1.188416 -3.465394 3.225571 0.009746 0.049252 -0.008553
 41   -4.441652 -1.039598 0.959566 0.001941 0.007430 -0.015145
 42   -0.665281 1.634800 -2.696427 -0.000467 -0.004429 0.026641
 43   -0.664068 1.655608 2.752186 -0.014993 -0.052878 0.017022
time 27
  0   -0.115962 -84.502090 1.894960 0.000000 0.000000 -1.571069
  1   -1.093036 0.000002 -0.326057 -0.214066 -1.569082 -1.356776
  2   2.262337 0.113614 0.064702 0.003591 -0.052516 -0.021065
  3   2.380047 0.353302 0.047440 -0.000510 0.067925 0.032077
  4   2.033756 0.190472 -0.000128 -0.026604 0.002984 -0.085967
  5   2.451511 0.204909 -0.003447 0.000000 0.006249 0.034833
  6   7.247600 -0.397300 -0.109469 -0.002971 -0.033632 0.156861
  7   -2.022252 -0.104661 3.136172 -0.363391 -1.343816 -2.832532
  8   1.168026 -0.537438 -0.063437 0.168560 1.169572 -0.088438
  9   6.790376 -0.619176 0.015206 0.002061 -0.013232 -0.439977
 10   8.637599 0.544015 -0.090417 -1.495345 0.160571 0.013191
 11   6.790465 -0.619039 0.017802 -0.000721 -0.020264 -0.323123
 12   -2.022474 -0.104699 -2.873818 0.034829 1.272406 -3.169963
 13   1.167898 -0.537463 0.063297 -0.234719 -1.151139 0.091559
 14   7.002743 -0.617765 -0.183752 0.045320 -0.000034 -0.110146
 15   8.209042 0.615527 -0.255885 1.339929 -0.055521 0.088936
 16   7.002735 -0.617911 -0.183641 0.046308 0.000658 -0.095750
 17   1.574674 0.609930 -0.000899 0.018077 0.006753 0.161697
 18   -0.602177 0.511412 -0.000006 0.000000 0.000000 0.000000
 19   3.673773 0.177020 1.119313 -0.000002 -0.000014 -0.174510
 20   3.673767 0.180900 -1.117566 0.000007 -0.000003 -0.174546
 21   3.938451 1.334540 1.627658 0.000002 -0.000011 -0.000026
 22   -0.246060 -0.011889 0.516521 -0.000011 0.000031 0.000025
 23   3.938468 1.334565 -1.631083 0.000019 0.000002 -0.000024
 24   -0.246150 -0.011872 -0.516511 -0.000005 -0.000006 0.000048
 25   4.941364 1.997338 1.629330 0.000018 -0.000001 -0.000024
 26   4.941382 1.997366 -1.629410 -0.000001 0.000005 -0.000024
 27   2.914462 1.619264 1.514501 -0.000019 -0.000022 -0.000050
 28   2.916892 1.618870 -1.501142 -0.000002 -0.000009 -0.000024
 29   8.824059 0.150544 0.091743 0.000095 -0.000231 -0.175339
 30   2.126710 -0.533834 1.784320 -0.014233 -0.029917 0.012590
 31   2.121290 -0.612072 -1.841880 -0.004796 -0.011837 -0.037830
 32   -0.814395 -0.093824 3.127092 0.037075 -3.104841 -0.244936
 33   14.298673 -0.408176 0.471578 0.066319 0.003785 -1.246818
 34   15.835795 0.581398 0.242756 0.096306 -0.180904 -0.385770
 35   -0.815868 -0.091229 -3.114430 -0.013013 3.176477 -0.304241
 36   14.294526 -0.410349 -0.467541 -0.013318 0.019954 -0.432887
 37   15.834409 0.579420 -0.284600 0.082647 -0.094022 0.075078
 38   1.084996 -3.442030 -2.823813 0.002884 0.014774 -0.005375
 39   -4.457742 -1.047041 -0.711023 0.003739 0.018780 -0.008638
 40   1.161071 -3.457582 3.233384 0.005978 0.030224 -0.004949
 41   -4.437746 -1.047411 0.959566 0.001185 0.004554 -0.008835
 42   -0.661374 1.662145 -2.692520 -0.000288 -0.002712 0.016311
 43   -0.664068 1.671233 2.799062 -0.009196 -0.032448 0.010246
time 28
  0   -0.147213 -87.621094 2.172312 0.000000 0.000000 -1.571069
  1   -1.093036 0.000002 -0.326057 -0.214066 -1.569082 -1.356776
  2   2.262337 0.113614 0.064702 -0.012293 -0.050418 -0.019294
  3   2.380047 0.353302 0.047440 0.012361 0.061153 0.028853
  4   2.033756 0.190472 -0.000128 -0.009194 0.008653 -0.089084
  5   2.451511 0.204909 -0.003447 0.000000 0.007280 0.034833
  6   7.247600 -0.397300 -0.109469 -0.003630 -0.040870 0.156861
  7   -2.022252 -0.104661 3.136172 -0.375086 -1.358720 -2.822483
  8   1.168026 -0.537438 -0.063437 0.269619 1.169421 0.021635
  9   6.790376 -0.619176 0.015206 0.000397 -0.018371 -0.354396
 10   8.637599 0.544015 -0.090417 -1.506529 0.154869 0.032941
 11   6.790465 -0.619039 0.017802 -0.002327 -0.023789 -0.263199
 12   -2.022474 -0.104699 -2.873818 0.020649 1.257952 -3.184420
 13   1.167898 -0.537463 0.063297 -0.146567 -1.151343 -0.032659
 14   7.002743 -0.617765 -0.183752 0.043726 -0.002362 -0.155194
 15   8.209042 0.615527 -0.255885 1.399249 -0.044551 0.076307
 16   7.002735 -0.617911 -0.183641 0.045131 -0.000921 -0.127265
 17   1.574674 0.609930 -0.000899 0.005200 0.016906 0.165651
 18   -0.602177 0.511412 -0.000006 0.000000 0.000000 0.000000
 19   3.673773 0.180927 1.119313 -0.000002 -0.000014 -0.174510
 20   3.673767 0.176993 -1.117566 0.000007 -0.000003 -0.174546
 21   3.938451 1.334540 1.627658 0.000002 -0.000011 -0.000026
 22   -0.246060 -0.011889 0.516521 -0.000011 0.000031 0.000025
 23   3.938468 1.334565 -1.631083 0.000019 0.000002 -0.000024
 24   -0.246150 -0.011872 -0.516511 -0.000005 -0.000006 0.000048
 25   4.941364 1.997338 1.629330 0.000018 -0.000001 -0.000024
 26   4.941382 1.997366 -1.629410 -0.000001 0.000005 -0.000024
 27   2.914462 1.619264 1.514501 -0.000019 -0.000022 -0.000050
 28   2.916892 1.618870 -1.501142 -0.000002 -0.000009 -0.000024
 29   8.824059 0.150544 0.091743 0.000006 -0.000231 -0.174910
 30   2.118898 -0.549460 1.784320 -0.006856 -0.014748 0.006071
 31   2.121290 -0.584727 -1.849693 -0.002314 -0.005698 -0.018216
 32   -0.814395 -0.093824 3.127092 0.035584 -3.101212 -0.346713
 33   14.298673 -0.408176 0.471578 0.068105 0.005853 -1.283738
 34   15.835795 0.581398 0.242756 0.074569 -0.175535 -0.209139
 35   -0.815868 -0.091229 -3.114430 -0.024103 3.179476 -0.192495
 36   14.294526 -0.410349 -0.467541 -0.008333 0.019894 -0.366071
 37   15.834409 0.579420 -0.284600 0.085268 -0.100037 0.114879
 38   1.116247 -3.449842 -2.823813 0.001389 0.007110 -0.002443
 39   -4.457742 -1.050948 -0.730555 0.001798 0.009036 -0.003983
 40   1.137633 -3.453675 3.237290 0.002884 0.014546 -0.002260
 41   -4.433840 -1.055224 0.959566 0.000562 0.002193 -0.004067
 42   -0.657468 1.681677 -2.688614 -0.000132 -0.001301 0.007863
 43   -0.664068 1.686859 2.834219 -0.004423 -0.015611 0.004851
time 29
  0   -0.123775 -90.740097 2.340286 0.000000 0.000000 -1.571069
  1   -1.093036 0.000002 -0.326057 -0.214066 -1.569082 -1.356776
  2   2.262337 0.113614 0.064702 -0.027922 -0.041430 -0.017993
  3   2.380047 0.353302 0.047440 0.024242 0.045130 0.026792
  4   2.033756 0.190472 -0.000128 0.007810 0.013399 -0.091259
  5   2.451511 0.204909 -0.003447 -0.000103 0.007854 0.034833
  6   7.247600 -0.397300 -0.109469 -0.004122 -0.044993 0.156861
  7   -2.022252 -0.104661 3.136172 -0.379975 -1.369674 -2.818539
  8   1.168026 -0.537438 -0.063437 0.344037 1.161572 0.106721
  9   6.790376 -0.619176 0.015206 -0.001656 -0.023177 -0.273118
 10   8.637599 0.544015 -0.090417 -1.519563 0.144662 0.039018
 11   6.790465 -0.619039 0.017802 -0.004050 -0.027001 -0.206332
 12   -2.022474 -0.104699 -2.873818 0.008099 1.247590 -3.197728
 13   1.167898 -0.537463 0.063297 -0.054620 -1.146155 -0.163172
 14   7.002743 -0.617765 -0.183752 0.041847 -0.005258 -0.209895
 15   8.209042 0.615527 -0.255885 1.463818 -0.029419 0.058447
 16   7.002735 -0.617911 -0.183641 0.043813 -0.002951 -0.165624
 17   1.574674 0.609930 -0.000899 -0.006378 0.027414 0.165097
 18   -0.602177 0.511412 -0.000006 0.000000 0.000000 0.000000
 19   3.677679 0.177020 1.119313 -0.000002 -0.000014 -0.174510
 20   3.673767 0.180900 -1.117566 0.000007 -0.000003 -0.174546
 21   3.942357 1.334540 1.627658 0.000002 -0.000011 -0.000026
 22   -0.246060 -0.011889 0.516521 -0.000011 0.000031 0.000025
 23   3.938468 1.334565 -1.631083 0.000019 0.000002 -0.000024
 24   -0.246150 -0.011872 -0.516511 -0.000005 -0.000006 0.000048
 25   4.941364 1.997338 1.629330 0.000018 -0.000001 -0.000024
 26   4.941382 1.997366 -1.629410 -0.000001 0.000005 -0.000024
 27   2.914462 1.623171 1.514501 -0.000019 -0.000022 -0.000050
 28   2.916892 1.618870 -1.501142 -0.000002 -0.000009 -0.000024
 29   8.824059 0.150544 0.091743 0.000006 -0.000231 -0.174641
 30   2.111085 -0.561179 1.784320 -0.001852 -0.004460 0.001632
 31   2.121290 -0.565195 -1.853599 -0.000613 -0.001528 -0.004897
 32   -0.814395 -0.093824 3.127092 0.032695 -3.103313 -0.428908
 33   14.298673 -0.408176 0.471578 0.066451 0.003966 -1.249597
 34   15.835795 0.581398 0.242756 0.037212 -0.165115 -0.057118
 35   -0.815868 -0.091229 -3.114430 -0.035809 3.180881 -0.081789
 36   14.294526 -0.410349 -0.467541 -0.003107 0.019547 -0.297479
 37   15.834409 0.579420 -0.284600 0.088460 -0.101854 0.136478
 38   1.135779 -3.453749 -2.823813 0.000358 0.001904 -0.000610
 39   -4.457742 -1.054854 -0.742274 0.000479 0.002433 -0.001010
 40   1.122007 -3.449769 3.237290 0.000758 0.003917 -0.000550
 41   -4.433840 -1.059130 0.959566 0.000143 0.000587 -0.001038
 42   -0.657468 1.693396 -2.688614 -0.000036 -0.000351 0.002091
 43   -0.664068 1.698578 2.861564 -0.001187 -0.004203 0.001255
time 30
  0   -0.072992 -93.859093 2.414507 0.000000 0.000000 -1.571069
  1   -1.093036 0.000002 -0.326057 -0.214119 -1.569082 -1.356583
  2   2.262337 0.113614 0.064702 -0.042672 -0.030368 -0.017288
  3   2.380047 0.353302 0.047440 0.035522 0.026841 0.026221
  4   2.033756 0.190472 -0.000128 0.024519 0.017006 -0.091259
  5   2.451511 0.204909 -0.003447 -0.000103 0.008037 0.034833
  6   7.247600 -0.397300 -0.109469 -0.004158 -0.046299 0.156861
  7   -2.022252 -0.104661 3.136172 -0.375373 -1.376651 -2.823986
  8   1.168026 -0.537438 -0.063437 0.397256 1.149899 0.173650
  9   6.790376 -0.619176 0.015206 -0.003930 -0.027248 -0.201273
 10   8.637599 0.544015 -0.090417 -1.534270 0.129528 0.029757
 11   6.790465 -0.619039 0.017802 -0.005743 -0.029730 -0.156039
 12   -2.022474 -0.104699 -2.873818 -0.002823 1.241670 -3.209217
 13   1.167898 -0.537463 0.063297 0.035360 -1.133798 -0.288600
 14   7.002743 -0.617765 -0.183752 0.040082 -0.008665 -0.271609
 15   8.209042 0.615527 -0.255885 1.526445 -0.011639 0.038421
 16   7.002735 -0.617911 -0.183641 0.042354 -0.005207 -0.208674
 17   1.574674 0.609930 -0.000899 -0.019823 0.031722 0.159109
 18   -0.602177 0.511412 -0.000006 0.000000 0.000000 0.000000
 19   3.673773 0.177020 1.119313 -0.000002 -0.000014 -0.174510
 20   3.673767 0.176993 -1.117566 0.000007 -0.000003 -0.174546
 21   3.938451 1.334540 1.627658 0.000002 -0.000011 -0.000026
 22   -0.246060 -0.011889 0.516521 -0.000011 0.000031 0.000025
 23   3.942374 1.334565 -1.631083 0.000019 0.000002 -0.000024
 24   -0.246150 -0.011872 -0.516511 -0.000005 -0.000006 0.000048
 25   4.941364 1.997338 1.629330 0.000018 -0.000001 -0.000024
 26   4.941382 1.997366 -1.629410 -0.000001 0.000005 -0.000024
 27   2.914462 1.619264 1.514501 -0.000019 -0.000022 -0.000050
 28   2.916892 1.618870 -1.501142 -0.000002 -0.000009 -0.000024
 29   8.824059 0.150544 0.091743 0.000006 -0.000231 -0.174534
 30   2.111085 -0.561179 1.784320 -0.000008 -0.000682 0.000024
 31   2.121290 -0.561289 -1.853599 0.000000 0.000000 -0.000002
 32   -0.814395 -0.093824 3.127092 0.028220 -3.108948 -0.482757
 33   14.298673 -0.408176 0.471578 0.060087 -0.002238 -1.128118
 34   15.835795 0.581398 0.242756 -0.005066 -0.145153 0.045333
 35   -0.815868 -0.091229 -3.114430 -0.046547 3.180881 0.029793
 36   14.294526 -0.410349 -0.467541 0.000752 0.018468 -0.228345
 37   15.834409 0.579420 -0.284600 0.092636 -0.099141 0.139267
 38   1.139685 -3.453749 -2.823813 0.000000 0.000000 0.000001
 39   -4.457742 -1.054854 -0.746180 0.000000 0.000000 0.000000
 40   1.118101 -3.449769 3.237290 0.000000 0.000001 0.000000
 41   -4.433840 -1.059130 0.959566 -0.000001 0.000000 0.000000
 42   -0.657468 1.697302 -2.688614 0.000000 0.000002 0.000000
 43   -0.664068 1.698578 2.869377 0.000000 0.000002 0.000000
end
